<svg xmlns="http://www.w3.org/2000/svg" xmlns:xlink="http://www.w3.org/1999/xlink" class="plot-d6a7b5" fill="currentColor" font-family="system-ui, sans-serif" font-size="10" text-anchor="middle" width="640" height="60" viewBox="0 0 640 60" style="color: black;"><style>.plot-d6a7b5 {
  display: block;
  background: white;
  height: auto;
  height: intrinsic;
  max-width: 100%;
}
.plot-d6a7b5 text,
.plot-d6a7b5 tspan {
  white-space: pre;
}</style><g aria-label="x-axis tick" fill="none" stroke="currentColor"><path transform="translate(109.53109370101618,30)" d="M0,0L0,6"/><path transform="translate(207.8706427052026,30)" d="M0,0L0,6"/><path transform="translate(306.21019170938905,30)" d="M0,0L0,6"/><path transform="translate(404.5497407135755,30)" d="M0,0L0,6"/><path transform="translate(502.889289717762,30)" d="M0,0L0,6"/><path transform="translate(601.2288387219484,30)" d="M0,0L0,6"/></g><g aria-label="x-axis tick label" font-variant="tabular-nums" transform="translate(0,9)"><text y="0.71em" transform="translate(109.53109370101618,30)">−2</text><text y="0.71em" transform="translate(207.8706427052026,30)">−1</text><text y="0.71em" transform="translate(306.21019170938905,30)">0</text><text y="0.71em" transform="translate(404.5497407135755,30)">1</text><text y="0.71em" transform="translate(502.889289717762,30)">2</text><text y="0.71em" transform="translate(601.2288387219484,30)">3</text></g><g aria-label="tick" stroke="steelblue"><line opacity="0.2" x1="341.456176490759" x2="341.456176490759" y1="0.5" y2="30"/><line opacity="0.2" x1="192.07319542314644" x2="192.07319542314644" y1="0.5" y2="30"/><line opacity="0.2" x1="191.13627427083318" x2="191.13627427083318" y1="0.5" y2="30"/><line opacity="0.2" x1="226.86244594493166" x2="226.86244594493166" y1="0.5" y2="30"/><line opacity="0.2" x1="313.35973875043834" x2="313.35973875043834" y1="0.5" y2="30"/><line opacity="0.2" x1="323.7555468913699" x2="323.7555468913699" y1="0.5" y2="30"/><line opacity="0.2" x1="379.9623937220554" x2="379.9623937220554" y1="0.5" y2="30"/><line opacity="0.2" x1="354.31124743054414" x2="354.31124743054414" y1="0.5" y2="30"/><line opacity="0.2" x1="299.8694979004242" x2="299.8694979004242" y1="0.5" y2="30"/><line opacity="0.2" x1="521.5281466623634" x2="521.5281466623634" y1="0.5" y2="30"/><line opacity="0.2" x1="118.90076589577261" x2="118.90076589577261" y1="0.5" y2="30"/><line opacity="0.2" x1="313.3706124551012" x2="313.3706124551012" y1="0.5" y2="30"/><line opacity="0.2" x1="328.09179150273775" x2="328.09179150273775" y1="0.5" y2="30"/><line opacity="0.2" x1="169.79019694486112" x2="169.79019694486112" y1="0.5" y2="30"/><line opacity="0.2" x1="290.9143458018693" x2="290.9143458018693" y1="0.5" y2="30"/><line opacity="0.2" x1="462.85965401061344" x2="462.85965401061344" y1="0.5" y2="30"/><line opacity="0.2" x1="266.8577418349561" x2="266.8577418349561" y1="0.5" y2="30"/><line opacity="0.2" x1="373.85065360052073" x2="373.85065360052073" y1="0.5" y2="30"/><line opacity="0.2" x1="195.43922196328538" x2="195.43922196328538" y1="0.5" y2="30"/><line opacity="0.2" x1="341.92554576165145" x2="341.92554576165145" y1="0.5" y2="30"/><line opacity="0.2" x1="356.2191925676586" x2="356.2191925676586" y1="0.5" y2="30"/><line opacity="0.2" x1="185.08053400791835" x2="185.08053400791835" y1="0.5" y2="30"/><line opacity="0.2" x1="304.5171197591169" x2="304.5171197591169" y1="0.5" y2="30"/><line opacity="0.2" x1="353.824410435719" x2="353.824410435719" y1="0.5" y2="30"/><line opacity="0.2" x1="179.11207262061535" x2="179.11207262061535" y1="0.5" y2="30"/><line opacity="0.2" x1="299.06717264021194" x2="299.06717264021194" y1="0.5" y2="30"/><line opacity="0.2" x1="305.1510648624643" x2="305.1510648624643" y1="0.5" y2="30"/><line opacity="0.2" x1="254.4314565029585" x2="254.4314565029585" y1="0.5" y2="30"/><line opacity="0.2" x1="319.05214317212824" x2="319.05214317212824" y1="0.5" y2="30"/><line opacity="0.2" x1="516.1074946686408" x2="516.1074946686408" y1="0.5" y2="30"/><line opacity="0.2" x1="239.57463498105898" x2="239.57463498105898" y1="0.5" y2="30"/><line opacity="0.2" x1="331.2023318054247" x2="331.2023318054247" y1="0.5" y2="30"/><line opacity="0.2" x1="258.1824136722712" x2="258.1824136722712" y1="0.5" y2="30"/><line opacity="0.2" x1="238.5922155227778" x2="238.5922155227778" y1="0.5" y2="30"/><line opacity="0.2" x1="402.2851271768839" x2="402.2851271768839" y1="0.5" y2="30"/><line opacity="0.2" x1="114.08417322293148" x2="114.08417322293148" y1="0.5" y2="30"/><line opacity="0.2" x1="415.4740792948023" x2="415.4740792948023" y1="0.5" y2="30"/><line opacity="0.2" x1="411.2226238356728" x2="411.2226238356728" y1="0.5" y2="30"/><line opacity="0.2" x1="407.91702571730235" x2="407.91702571730235" y1="0.5" y2="30"/><line opacity="0.2" x1="203.64562718728376" x2="203.64562718728376" y1="0.5" y2="30"/><line opacity="0.2" x1="284.8562166005451" x2="284.8562166005451" y1="0.5" y2="30"/><line opacity="0.2" x1="464.45523540199133" x2="464.45523540199133" y1="0.5" y2="30"/><line opacity="0.2" x1="306.0609127614129" x2="306.0609127614129" y1="0.5" y2="30"/><line opacity="0.2" x1="380.4204889526547" x2="380.4204889526547" y1="0.5" y2="30"/><line opacity="0.2" x1="188.66550568525153" x2="188.66550568525153" y1="0.5" y2="30"/><line opacity="0.2" x1="290.3335133645805" x2="290.3335133645805" y1="0.5" y2="30"/><line opacity="0.2" x1="283.5343230863916" x2="283.5343230863916" y1="0.5" y2="30"/><line opacity="0.2" x1="150.8316652122551" x2="150.8316652122551" y1="0.5" y2="30"/><line opacity="0.2" x1="466.1951825221967" x2="466.1951825221967" y1="0.5" y2="30"/><line opacity="0.2" x1="309.9138614100047" x2="309.9138614100047" y1="0.5" y2="30"/><line opacity="0.2" x1="269.09774552525363" x2="269.09774552525363" y1="0.5" y2="30"/><line opacity="0.2" x1="355.3546108881063" x2="355.3546108881063" y1="0.5" y2="30"/><line opacity="0.2" x1="283.27153970377947" x2="283.27153970377947" y1="0.5" y2="30"/><line opacity="0.2" x1="377.17103674043017" x2="377.17103674043017" y1="0.5" y2="30"/><line opacity="0.2" x1="203.0566293888338" x2="203.0566293888338" y1="0.5" y2="30"/><line opacity="0.2" x1="527.0370337225295" x2="527.0370337225295" y1="0.5" y2="30"/><line opacity="0.2" x1="360.58096367504754" x2="360.58096367504754" y1="0.5" y2="30"/><line opacity="0.2" x1="288.25931891726464" x2="288.25931891726464" y1="0.5" y2="30"/><line opacity="0.2" x1="461.3183137242373" x2="461.3183137242373" y1="0.5" y2="30"/><line opacity="0.2" x1="195.61281810087542" x2="195.61281810087542" y1="0.5" y2="30"/><line opacity="0.2" x1="300.7954232686428" x2="300.7954232686428" y1="0.5" y2="30"/><line opacity="0.2" x1="409.1063789358273" x2="409.1063789358273" y1="0.5" y2="30"/><line opacity="0.2" x1="73.58937164391848" x2="73.58937164391848" y1="0.5" y2="30"/><line opacity="0.2" x1="272.4674748403071" x2="272.4674748403071" y1="0.5" y2="30"/><line opacity="0.2" x1="372.44978419946324" x2="372.44978419946324" y1="0.5" y2="30"/><line opacity="0.2" x1="347.21799201850587" x2="347.21799201850587" y1="0.5" y2="30"/><line opacity="0.2" x1="240.78450653265463" x2="240.78450653265463" y1="0.5" y2="30"/><line opacity="0.2" x1="301.0418372003952" x2="301.0418372003952" y1="0.5" y2="30"/><line opacity="0.2" x1="290.566772982948" x2="290.566772982948" y1="0.5" y2="30"/><line opacity="0.2" x1="175.87050742352562" x2="175.87050742352562" y1="0.5" y2="30"/><line opacity="0.2" x1="367.9278001975073" x2="367.9278001975073" y1="0.5" y2="30"/><line opacity="0.2" x1="267.9001492201722" x2="267.9001492201722" y1="0.5" y2="30"/><line opacity="0.2" x1="316.4577997753765" x2="316.4577997753765" y1="0.5" y2="30"/><line opacity="0.2" x1="451.6722982218566" x2="451.6722982218566" y1="0.5" y2="30"/><line opacity="0.2" x1="168.36711920217684" x2="168.36711920217684" y1="0.5" y2="30"/><line opacity="0.2" x1="173.35453517422496" x2="173.35453517422496" y1="0.5" y2="30"/><line opacity="0.2" x1="412.9520774136617" x2="412.9520774136617" y1="0.5" y2="30"/><line opacity="0.2" x1="269.7686496767365" x2="269.7686496767365" y1="0.5" y2="30"/><line opacity="0.2" x1="255.89988637048404" x2="255.89988637048404" y1="0.5" y2="30"/><line opacity="0.2" x1="235.22414451513436" x2="235.22414451513436" y1="0.5" y2="30"/><line opacity="0.2" x1="221.63315842711015" x2="221.63315842711015" y1="0.5" y2="30"/><line opacity="0.2" x1="290.7276951612134" x2="290.7276951612134" y1="0.5" y2="30"/><line opacity="0.2" x1="283.38659868134647" x2="283.38659868134647" y1="0.5" y2="30"/><line opacity="0.2" x1="491.8413377673368" x2="491.8413377673368" y1="0.5" y2="30"/><line opacity="0.2" x1="134.66772849346253" x2="134.66772849346253" y1="0.5" y2="30"/><line opacity="0.2" x1="126.59624150697105" x2="126.59624150697105" y1="0.5" y2="30"/><line opacity="0.2" x1="258.64700349932883" x2="258.64700349932883" y1="0.5" y2="30"/><line opacity="0.2" x1="299.08863693473756" x2="299.08863693473756" y1="0.5" y2="30"/><line opacity="0.2" x1="172.12385653865476" x2="172.12385653865476" y1="0.5" y2="30"/><line opacity="0.2" x1="513.7849582583274" x2="513.7849582583274" y1="0.5" y2="30"/><line opacity="0.2" x1="202.89183397750566" x2="202.89183397750566" y1="0.5" y2="30"/><line opacity="0.2" x1="403.0382217018187" x2="403.0382217018187" y1="0.5" y2="30"/><line opacity="0.2" x1="386.84013505988304" x2="386.84013505988304" y1="0.5" y2="30"/><line opacity="0.2" x1="237.3657622160828" x2="237.3657622160828" y1="0.5" y2="30"/><line opacity="0.2" x1="175.27633571280765" x2="175.27633571280765" y1="0.5" y2="30"/><line opacity="0.2" x1="59.56983217317871" x2="59.56983217317871" y1="0.5" y2="30"/><line opacity="0.2" x1="363.1750755745185" x2="363.1750755745185" y1="0.5" y2="30"/><line opacity="0.2" x1="408.633916781968" x2="408.633916781968" y1="0.5" y2="30"/><line opacity="0.2" x1="309.1220474441535" x2="309.1220474441535" y1="0.5" y2="30"/><line opacity="0.2" x1="263.9844651563622" x2="263.9844651563622" y1="0.5" y2="30"/><line opacity="0.2" x1="368.17406665937364" x2="368.17406665937364" y1="0.5" y2="30"/><line opacity="0.2" x1="224.33441221982267" x2="224.33441221982267" y1="0.5" y2="30"/><line opacity="0.2" x1="276.15056949875964" x2="276.15056949875964" y1="0.5" y2="30"/><line opacity="0.2" x1="174.3798740407962" x2="174.3798740407962" y1="0.5" y2="30"/><line opacity="0.2" x1="423.6638839543314" x2="423.6638839543314" y1="0.5" y2="30"/><line opacity="0.2" x1="463.73855520918596" x2="463.73855520918596" y1="0.5" y2="30"/><line opacity="0.2" x1="129.6750931344987" x2="129.6750931344987" y1="0.5" y2="30"/><line opacity="0.2" x1="400.11582025140325" x2="400.11582025140325" y1="0.5" y2="30"/><line opacity="0.2" x1="370.20471648083526" x2="370.20471648083526" y1="0.5" y2="30"/><line opacity="0.2" x1="225.26151119047057" x2="225.26151119047057" y1="0.5" y2="30"/><line opacity="0.2" x1="375.40622768004215" x2="375.40622768004215" y1="0.5" y2="30"/><line opacity="0.2" x1="268.50929596699956" x2="268.50929596699956" y1="0.5" y2="30"/><line opacity="0.2" x1="345.75421754775743" x2="345.75421754775743" y1="0.5" y2="30"/><line opacity="0.2" x1="363.44874897469134" x2="363.44874897469134" y1="0.5" y2="30"/><line opacity="0.2" x1="175.6594988310591" x2="175.6594988310591" y1="0.5" y2="30"/><line opacity="0.2" x1="337.04011725006393" x2="337.04011725006393" y1="0.5" y2="30"/><line opacity="0.2" x1="98.51623536247348" x2="98.51623536247348" y1="0.5" y2="30"/><line opacity="0.2" x1="341.9038305745475" x2="341.9038305745475" y1="0.5" y2="30"/><line opacity="0.2" x1="334.3087697335727" x2="334.3087697335727" y1="0.5" y2="30"/><line opacity="0.2" x1="295.3456752888085" x2="295.3456752888085" y1="0.5" y2="30"/><line opacity="0.2" x1="335.0650733956666" x2="335.0650733956666" y1="0.5" y2="30"/><line opacity="0.2" x1="189.467941948875" x2="189.467941948875" y1="0.5" y2="30"/><line opacity="0.2" x1="379.8462713317904" x2="379.8462713317904" y1="0.5" y2="30"/><line opacity="0.2" x1="338.9940751533205" x2="338.9940751533205" y1="0.5" y2="30"/><line opacity="0.2" x1="316.9022560995121" x2="316.9022560995121" y1="0.5" y2="30"/><line opacity="0.2" x1="259.8157568311661" x2="259.8157568311661" y1="0.5" y2="30"/><line opacity="0.2" x1="336.1443260114964" x2="336.1443260114964" y1="0.5" y2="30"/><line opacity="0.2" x1="255.3042994803609" x2="255.3042994803609" y1="0.5" y2="30"/><line opacity="0.2" x1="297.43569027916243" x2="297.43569027916243" y1="0.5" y2="30"/><line opacity="0.2" x1="375.33829719818885" x2="375.33829719818885" y1="0.5" y2="30"/><line opacity="0.2" x1="295.41476423311474" x2="295.41476423311474" y1="0.5" y2="30"/><line opacity="0.2" x1="201.647019818898" x2="201.647019818898" y1="0.5" y2="30"/><line opacity="0.2" x1="462.17486531691054" x2="462.17486531691054" y1="0.5" y2="30"/><line opacity="0.2" x1="158.23064906956077" x2="158.23064906956077" y1="0.5" y2="30"/><line opacity="0.2" x1="183.0919733257533" x2="183.0919733257533" y1="0.5" y2="30"/><line opacity="0.2" x1="328.3780256024244" x2="328.3780256024244" y1="0.5" y2="30"/><line opacity="0.2" x1="338.29452305959" x2="338.29452305959" y1="0.5" y2="30"/><line opacity="0.2" x1="363.45068326403833" x2="363.45068326403833" y1="0.5" y2="30"/><line opacity="0.2" x1="345.79267644471446" x2="345.79267644471446" y1="0.5" y2="30"/><line opacity="0.2" x1="278.6276939218778" x2="278.6276939218778" y1="0.5" y2="30"/><line opacity="0.2" x1="227.28893751828988" x2="227.28893751828988" y1="0.5" y2="30"/><line opacity="0.2" x1="199.7820235362509" x2="199.7820235362509" y1="0.5" y2="30"/><line opacity="0.2" x1="100.60855342289511" x2="100.60855342289511" y1="0.5" y2="30"/><line opacity="0.2" x1="279.06747436900787" x2="279.06747436900787" y1="0.5" y2="30"/><line opacity="0.2" x1="457.44707261369217" x2="457.44707261369217" y1="0.5" y2="30"/><line opacity="0.2" x1="390.4091732199294" x2="390.4091732199294" y1="0.5" y2="30"/><line opacity="0.2" x1="386.3001916138927" x2="386.3001916138927" y1="0.5" y2="30"/><line opacity="0.2" x1="286.54150443784636" x2="286.54150443784636" y1="0.5" y2="30"/><line opacity="0.2" x1="201.82723027899496" x2="201.82723027899496" y1="0.5" y2="30"/><line opacity="0.2" x1="219.98456525399686" x2="219.98456525399686" y1="0.5" y2="30"/><line opacity="0.2" x1="345.7130635157445" x2="345.7130635157445" y1="0.5" y2="30"/><line opacity="0.2" x1="489.1455308430212" x2="489.1455308430212" y1="0.5" y2="30"/><line opacity="0.2" x1="407.47475646157466" x2="407.47475646157466" y1="0.5" y2="30"/><line opacity="0.2" x1="365.65927598363726" x2="365.65927598363726" y1="0.5" y2="30"/><line opacity="0.2" x1="304.6163045886573" x2="304.6163045886573" y1="0.5" y2="30"/><line opacity="0.2" x1="136.39774319717827" x2="136.39774319717827" y1="0.5" y2="30"/><line opacity="0.2" x1="200.40569725782942" x2="200.40569725782942" y1="0.5" y2="30"/><line opacity="0.2" x1="345.5739723128079" x2="345.5739723128079" y1="0.5" y2="30"/><line opacity="0.2" x1="128.74221427634177" x2="128.74221427634177" y1="0.5" y2="30"/><line opacity="0.2" x1="240.1976542563896" x2="240.1976542563896" y1="0.5" y2="30"/><line opacity="0.2" x1="151.49696281874094" x2="151.49696281874094" y1="0.5" y2="30"/><line opacity="0.2" x1="154.7966261292848" x2="154.7966261292848" y1="0.5" y2="30"/><line opacity="0.2" x1="440.66485029888815" x2="440.66485029888815" y1="0.5" y2="30"/><line opacity="0.2" x1="430.2769823114922" x2="430.2769823114922" y1="0.5" y2="30"/><line opacity="0.2" x1="365.9150432788025" x2="365.9150432788025" y1="0.5" y2="30"/><line opacity="0.2" x1="340.96127247746654" x2="340.96127247746654" y1="0.5" y2="30"/><line opacity="0.2" x1="439.54035881565466" x2="439.54035881565466" y1="0.5" y2="30"/><line opacity="0.2" x1="428.4311607767208" x2="428.4311607767208" y1="0.5" y2="30"/><line opacity="0.2" x1="309.3832106726463" x2="309.3832106726463" y1="0.5" y2="30"/><line opacity="0.2" x1="343.59133807731195" x2="343.59133807731195" y1="0.5" y2="30"/><line opacity="0.2" x1="342.80006391677546" x2="342.80006391677546" y1="0.5" y2="30"/><line opacity="0.2" x1="301.8502464600059" x2="301.8502464600059" y1="0.5" y2="30"/><line opacity="0.2" x1="348.1546299197568" x2="348.1546299197568" y1="0.5" y2="30"/><line opacity="0.2" x1="302.46681167703" x2="302.46681167703" y1="0.5" y2="30"/><line opacity="0.2" x1="310.56892826208446" x2="310.56892826208446" y1="0.5" y2="30"/><line opacity="0.2" x1="358.7056455740369" x2="358.7056455740369" y1="0.5" y2="30"/><line opacity="0.2" x1="242.5527070646616" x2="242.5527070646616" y1="0.5" y2="30"/><line opacity="0.2" x1="312.00786102632526" x2="312.00786102632526" y1="0.5" y2="30"/><line opacity="0.2" x1="354.36066153356774" x2="354.36066153356774" y1="0.5" y2="30"/><line opacity="0.2" x1="533.0344596747608" x2="533.0344596747608" y1="0.5" y2="30"/><line opacity="0.2" x1="246.39394115985195" x2="246.39394115985195" y1="0.5" y2="30"/><line opacity="0.2" x1="509.6708450051309" x2="509.6708450051309" y1="0.5" y2="30"/><line opacity="0.2" x1="166.7521136819865" x2="166.7521136819865" y1="0.5" y2="30"/><line opacity="0.2" x1="163.06681964867641" x2="163.06681964867641" y1="0.5" y2="30"/><line opacity="0.2" x1="421.29770793820313" x2="421.29770793820313" y1="0.5" y2="30"/><line opacity="0.2" x1="325.5869919525838" x2="325.5869919525838" y1="0.5" y2="30"/><line opacity="0.2" x1="400.29562627862845" x2="400.29562627862845" y1="0.5" y2="30"/><line opacity="0.2" x1="349.89113934489376" x2="349.89113934489376" y1="0.5" y2="30"/><line opacity="0.2" x1="280.1238112844636" x2="280.1238112844636" y1="0.5" y2="30"/><line opacity="0.2" x1="330.0354931530877" x2="330.0354931530877" y1="0.5" y2="30"/><line opacity="0.2" x1="133.39882714657128" x2="133.39882714657128" y1="0.5" y2="30"/><line opacity="0.2" x1="243.13701411328532" x2="243.13701411328532" y1="0.5" y2="30"/><line opacity="0.2" x1="327.49222657728814" x2="327.49222657728814" y1="0.5" y2="30"/><line opacity="0.2" x1="459.1662647814494" x2="459.1662647814494" y1="0.5" y2="30"/><line opacity="0.2" x1="331.0883407148224" x2="331.0883407148224" y1="0.5" y2="30"/><line opacity="0.2" x1="413.4924657376319" x2="413.4924657376319" y1="0.5" y2="30"/><line opacity="0.2" x1="398.01052603221297" x2="398.01052603221297" y1="0.5" y2="30"/><line opacity="0.2" x1="308.133308663265" x2="308.133308663265" y1="0.5" y2="30"/><line opacity="0.2" x1="480.58446154234" x2="480.58446154234" y1="0.5" y2="30"/><line opacity="0.2" x1="139.53346168758915" x2="139.53346168758915" y1="0.5" y2="30"/><line opacity="0.2" x1="399.8021389852651" x2="399.8021389852651" y1="0.5" y2="30"/><line opacity="0.2" x1="369.38121380109703" x2="369.38121380109703" y1="0.5" y2="30"/><line opacity="0.2" x1="294.45437221694175" x2="294.45437221694175" y1="0.5" y2="30"/><line opacity="0.2" x1="437.34405145925905" x2="437.34405145925905" y1="0.5" y2="30"/><line opacity="0.2" x1="232.2744775137842" x2="232.2744775137842" y1="0.5" y2="30"/><line opacity="0.2" x1="169.19957488902682" x2="169.19957488902682" y1="0.5" y2="30"/><line opacity="0.2" x1="322.92624510806326" x2="322.92624510806326" y1="0.5" y2="30"/><line opacity="0.2" x1="348.7877127120186" x2="348.7877127120186" y1="0.5" y2="30"/><line opacity="0.2" x1="352.803676546311" x2="352.803676546311" y1="0.5" y2="30"/><line opacity="0.2" x1="257.2739898478826" x2="257.2739898478826" y1="0.5" y2="30"/><line opacity="0.2" x1="225.8392540616835" x2="225.8392540616835" y1="0.5" y2="30"/><line opacity="0.2" x1="424.6863676111623" x2="424.6863676111623" y1="0.5" y2="30"/><line opacity="0.2" x1="341.43814207870656" x2="341.43814207870656" y1="0.5" y2="30"/><line opacity="0.2" x1="367.1577370519498" x2="367.1577370519498" y1="0.5" y2="30"/><line opacity="0.2" x1="271.84199854611035" x2="271.84199854611035" y1="0.5" y2="30"/><line opacity="0.2" x1="252.81583995847075" x2="252.81583995847075" y1="0.5" y2="30"/><line opacity="0.2" x1="156.61703278329918" x2="156.61703278329918" y1="0.5" y2="30"/><line opacity="0.2" x1="349.30398698713657" x2="349.30398698713657" y1="0.5" y2="30"/><line opacity="0.2" x1="306.25118051749877" x2="306.25118051749877" y1="0.5" y2="30"/><line opacity="0.2" x1="164.81639039441092" x2="164.81639039441092" y1="0.5" y2="30"/><line opacity="0.2" x1="538.6056292739518" x2="538.6056292739518" y1="0.5" y2="30"/><line opacity="0.2" x1="163.25865195223383" x2="163.25865195223383" y1="0.5" y2="30"/><line opacity="0.2" x1="305.10124460260636" x2="305.10124460260636" y1="0.5" y2="30"/><line opacity="0.2" x1="276.64734182609357" x2="276.64734182609357" y1="0.5" y2="30"/><line opacity="0.2" x1="217.5294949021461" x2="217.5294949021461" y1="0.5" y2="30"/><line opacity="0.2" x1="302.1196585123534" x2="302.1196585123534" y1="0.5" y2="30"/><line opacity="0.2" x1="99.56606254050999" x2="99.56606254050999" y1="0.5" y2="30"/><line opacity="0.2" x1="402.3336810765489" x2="402.3336810765489" y1="0.5" y2="30"/><line opacity="0.2" x1="248.06652499685939" x2="248.06652499685939" y1="0.5" y2="30"/><line opacity="0.2" x1="421.8052182305577" x2="421.8052182305577" y1="0.5" y2="30"/><line opacity="0.2" x1="339.4678252756918" x2="339.4678252756918" y1="0.5" y2="30"/><line opacity="0.2" x1="327.46342506481943" x2="327.46342506481943" y1="0.5" y2="30"/><line opacity="0.2" x1="201.31479441276863" x2="201.31479441276863" y1="0.5" y2="30"/><line opacity="0.2" x1="267.2496794851956" x2="267.2496794851956" y1="0.5" y2="30"/><line opacity="0.2" x1="330.3237792144748" x2="330.3237792144748" y1="0.5" y2="30"/><line opacity="0.2" x1="330.65921027987406" x2="330.65921027987406" y1="0.5" y2="30"/><line opacity="0.2" x1="263.0359653503626" x2="263.0359653503626" y1="0.5" y2="30"/><line opacity="0.2" x1="422.37209171214397" x2="422.37209171214397" y1="0.5" y2="30"/><line opacity="0.2" x1="257.9398742190902" x2="257.9398742190902" y1="0.5" y2="30"/><line opacity="0.2" x1="446.1555439868432" x2="446.1555439868432" y1="0.5" y2="30"/><line opacity="0.2" x1="312.11401057715284" x2="312.11401057715284" y1="0.5" y2="30"/><line opacity="0.2" x1="247.03522686063488" x2="247.03522686063488" y1="0.5" y2="30"/><line opacity="0.2" x1="285.56655381674267" x2="285.56655381674267" y1="0.5" y2="30"/><line opacity="0.2" x1="324.5825579361741" x2="324.5825579361741" y1="0.5" y2="30"/><line opacity="0.2" x1="111.04375429214224" x2="111.04375429214224" y1="0.5" y2="30"/><line opacity="0.2" x1="390.90568695987696" x2="390.90568695987696" y1="0.5" y2="30"/><line opacity="0.2" x1="302.5060727965748" x2="302.5060727965748" y1="0.5" y2="30"/><line opacity="0.2" x1="428.4732024134635" x2="428.4732024134635" y1="0.5" y2="30"/><line opacity="0.2" x1="393.95292252551917" x2="393.95292252551917" y1="0.5" y2="30"/><line opacity="0.2" x1="148.89481302819917" x2="148.89481302819917" y1="0.5" y2="30"/><line opacity="0.2" x1="487.7359421472368" x2="487.7359421472368" y1="0.5" y2="30"/><line opacity="0.2" x1="364.94644909850575" x2="364.94644909850575" y1="0.5" y2="30"/><line opacity="0.2" x1="126.18401251700077" x2="126.18401251700077" y1="0.5" y2="30"/><line opacity="0.2" x1="401.486664556852" x2="401.486664556852" y1="0.5" y2="30"/><line opacity="0.2" x1="163.7033836420811" x2="163.7033836420811" y1="0.5" y2="30"/><line opacity="0.2" x1="202.73807945273475" x2="202.73807945273475" y1="0.5" y2="30"/><line opacity="0.2" x1="363.7401471094239" x2="363.7401471094239" y1="0.5" y2="30"/><line opacity="0.2" x1="347.5509589146652" x2="347.5509589146652" y1="0.5" y2="30"/><line opacity="0.2" x1="284.74734867330307" x2="284.74734867330307" y1="0.5" y2="30"/><line opacity="0.2" x1="476.8787099552922" x2="476.8787099552922" y1="0.5" y2="30"/><line opacity="0.2" x1="379.7667299594162" x2="379.7667299594162" y1="0.5" y2="30"/><line opacity="0.2" x1="516.8705613337694" x2="516.8705613337694" y1="0.5" y2="30"/><line opacity="0.2" x1="485.88376731757165" x2="485.88376731757165" y1="0.5" y2="30"/><line opacity="0.2" x1="254.58897416926112" x2="254.58897416926112" y1="0.5" y2="30"/><line opacity="0.2" x1="228.45613247361575" x2="228.45613247361575" y1="0.5" y2="30"/><line opacity="0.2" x1="299.12558928853815" x2="299.12558928853815" y1="0.5" y2="30"/><line opacity="0.2" x1="286.6876591426134" x2="286.6876591426134" y1="0.5" y2="30"/><line opacity="0.2" x1="199.1703840425945" x2="199.1703840425945" y1="0.5" y2="30"/><line opacity="0.2" x1="261.49686258728974" x2="261.49686258728974" y1="0.5" y2="30"/><line opacity="0.2" x1="127.11198186137955" x2="127.11198186137955" y1="0.5" y2="30"/><line opacity="0.2" x1="350.6377554808263" x2="350.6377554808263" y1="0.5" y2="30"/><line opacity="0.2" x1="564.875400014322" x2="564.875400014322" y1="0.5" y2="30"/><line opacity="0.2" x1="389.0936092074497" x2="389.0936092074497" y1="0.5" y2="30"/><line opacity="0.2" x1="250.49140801745943" x2="250.49140801745943" y1="0.5" y2="30"/><line opacity="0.2" x1="304.46023361436926" x2="304.46023361436926" y1="0.5" y2="30"/><line opacity="0.2" x1="371.35509604718663" x2="371.35509604718663" y1="0.5" y2="30"/><line opacity="0.2" x1="325.684000018152" x2="325.684000018152" y1="0.5" y2="30"/><line opacity="0.2" x1="353.93034563134637" x2="353.93034563134637" y1="0.5" y2="30"/><line opacity="0.2" x1="309.0925257739859" x2="309.0925257739859" y1="0.5" y2="30"/><line opacity="0.2" x1="206.60575608661264" x2="206.60575608661264" y1="0.5" y2="30"/><line opacity="0.2" x1="222.0280837478422" x2="222.0280837478422" y1="0.5" y2="30"/><line opacity="0.2" x1="610.91703724588" x2="610.91703724588" y1="0.5" y2="30"/><line opacity="0.2" x1="136.2645131980181" x2="136.2645131980181" y1="0.5" y2="30"/><line opacity="0.2" x1="309.0531822428854" x2="309.0531822428854" y1="0.5" y2="30"/><line opacity="0.2" x1="219.38464588508978" x2="219.38464588508978" y1="0.5" y2="30"/><line opacity="0.2" x1="362.36457033697235" x2="362.36457033697235" y1="0.5" y2="30"/><line opacity="0.2" x1="366.19414300242147" x2="366.19414300242147" y1="0.5" y2="30"/><line opacity="0.2" x1="236.75217961015008" x2="236.75217961015008" y1="0.5" y2="30"/><line opacity="0.2" x1="254.5926665893026" x2="254.5926665893026" y1="0.5" y2="30"/><line opacity="0.2" x1="321.84843369472804" x2="321.84843369472804" y1="0.5" y2="30"/><line opacity="0.2" x1="170.19447234048758" x2="170.19447234048758" y1="0.5" y2="30"/><line opacity="0.2" x1="461.63942739170346" x2="461.63942739170346" y1="0.5" y2="30"/><line opacity="0.2" x1="166.47386718669392" x2="166.47386718669392" y1="0.5" y2="30"/><line opacity="0.2" x1="199.95368475400005" x2="199.95368475400005" y1="0.5" y2="30"/><line opacity="0.2" x1="246.01339521695422" x2="246.01339521695422" y1="0.5" y2="30"/><line opacity="0.2" x1="328.52939369513433" x2="328.52939369513433" y1="0.5" y2="30"/><line opacity="0.2" x1="282.27233932166985" x2="282.27233932166985" y1="0.5" y2="30"/><line opacity="0.2" x1="234.11739683029083" x2="234.11739683029083" y1="0.5" y2="30"/><line opacity="0.2" x1="299.48065849390224" x2="299.48065849390224" y1="0.5" y2="30"/><line opacity="0.2" x1="295.38155462969445" x2="295.38155462969445" y1="0.5" y2="30"/><line opacity="0.2" x1="457.26183938299476" x2="457.26183938299476" y1="0.5" y2="30"/><line opacity="0.2" x1="148.77270879090895" x2="148.77270879090895" y1="0.5" y2="30"/><line opacity="0.2" x1="423.9285852979962" x2="423.9285852979962" y1="0.5" y2="30"/><line opacity="0.2" x1="188.06257264221028" x2="188.06257264221028" y1="0.5" y2="30"/><line opacity="0.2" x1="441.75288431768627" x2="441.75288431768627" y1="0.5" y2="30"/><line opacity="0.2" x1="265.75685905361837" x2="265.75685905361837" y1="0.5" y2="30"/><line opacity="0.2" x1="359.9996812540498" x2="359.9996812540498" y1="0.5" y2="30"/><line opacity="0.2" x1="370.8404494815535" x2="370.8404494815535" y1="0.5" y2="30"/><line opacity="0.2" x1="272.7119357265838" x2="272.7119357265838" y1="0.5" y2="30"/><line opacity="0.2" x1="204.90571710487222" x2="204.90571710487222" y1="0.5" y2="30"/><line opacity="0.2" x1="241.28561925588662" x2="241.28561925588662" y1="0.5" y2="30"/><line opacity="0.2" x1="246.7001192065142" x2="246.7001192065142" y1="0.5" y2="30"/><line opacity="0.2" x1="367.7766896646089" x2="367.7766896646089" y1="0.5" y2="30"/><line opacity="0.2" x1="452.6018988112739" x2="452.6018988112739" y1="0.5" y2="30"/><line opacity="0.2" x1="241.79336012148656" x2="241.79336012148656" y1="0.5" y2="30"/><line opacity="0.2" x1="278.782627714744" x2="278.782627714744" y1="0.5" y2="30"/><line opacity="0.2" x1="279.6158805269218" x2="279.6158805269218" y1="0.5" y2="30"/><line opacity="0.2" x1="212.3370834174484" x2="212.3370834174484" y1="0.5" y2="30"/><line opacity="0.2" x1="319.9000096920096" x2="319.9000096920096" y1="0.5" y2="30"/><line opacity="0.2" x1="250.9450710132264" x2="250.9450710132264" y1="0.5" y2="30"/><line opacity="0.2" x1="237.86540400640726" x2="237.86540400640726" y1="0.5" y2="30"/><line opacity="0.2" x1="266.68001966822436" x2="266.68001966822436" y1="0.5" y2="30"/><line opacity="0.2" x1="325.0230187390058" x2="325.0230187390058" y1="0.5" y2="30"/><line opacity="0.2" x1="284.26261210800453" x2="284.26261210800453" y1="0.5" y2="30"/><line opacity="0.2" x1="365.82128074165183" x2="365.82128074165183" y1="0.5" y2="30"/><line opacity="0.2" x1="213.22154844598398" x2="213.22154844598398" y1="0.5" y2="30"/><line opacity="0.2" x1="126.34852734692181" x2="126.34852734692181" y1="0.5" y2="30"/><line opacity="0.2" x1="393.8398429048042" x2="393.8398429048042" y1="0.5" y2="30"/><line opacity="0.2" x1="340.1126778745144" x2="340.1126778745144" y1="0.5" y2="30"/><line opacity="0.2" x1="327.6928306025682" x2="327.6928306025682" y1="0.5" y2="30"/><line opacity="0.2" x1="395.1411967819623" x2="395.1411967819623" y1="0.5" y2="30"/><line opacity="0.2" x1="489.2786687481102" x2="489.2786687481102" y1="0.5" y2="30"/><line opacity="0.2" x1="141.8410307338362" x2="141.8410307338362" y1="0.5" y2="30"/><line opacity="0.2" x1="438.018383962435" x2="438.018383962435" y1="0.5" y2="30"/><line opacity="0.2" x1="178.70161788260913" x2="178.70161788260913" y1="0.5" y2="30"/><line opacity="0.2" x1="362.85974754512955" x2="362.85974754512955" y1="0.5" y2="30"/><line opacity="0.2" x1="397.73759300240783" x2="397.73759300240783" y1="0.5" y2="30"/><line opacity="0.2" x1="471.64749718008903" x2="471.64749718008903" y1="0.5" y2="30"/><line opacity="0.2" x1="364.19603252261913" x2="364.19603252261913" y1="0.5" y2="30"/><line opacity="0.2" x1="493.7247233877924" x2="493.7247233877924" y1="0.5" y2="30"/><line opacity="0.2" x1="177.92594779002494" x2="177.92594779002494" y1="0.5" y2="30"/><line opacity="0.2" x1="440.59080572973954" x2="440.59080572973954" y1="0.5" y2="30"/><line opacity="0.2" x1="404.36095691465715" x2="404.36095691465715" y1="0.5" y2="30"/><line opacity="0.2" x1="259.1916153093507" x2="259.1916153093507" y1="0.5" y2="30"/><line opacity="0.2" x1="444.32502258855453" x2="444.32502258855453" y1="0.5" y2="30"/><line opacity="0.2" x1="249.98158865197175" x2="249.98158865197175" y1="0.5" y2="30"/><line opacity="0.2" x1="367.66210613268896" x2="367.66210613268896" y1="0.5" y2="30"/><line opacity="0.2" x1="379.0946331632722" x2="379.0946331632722" y1="0.5" y2="30"/><line opacity="0.2" x1="179.02062492392471" x2="179.02062492392471" y1="0.5" y2="30"/><line opacity="0.2" x1="320.7732541164899" x2="320.7732541164899" y1="0.5" y2="30"/><line opacity="0.2" x1="285.0499609979564" x2="285.0499609979564" y1="0.5" y2="30"/><line opacity="0.2" x1="359.79691487564463" x2="359.79691487564463" y1="0.5" y2="30"/><line opacity="0.2" x1="147.74635508359074" x2="147.74635508359074" y1="0.5" y2="30"/><line opacity="0.2" x1="324.44543047250056" x2="324.44543047250056" y1="0.5" y2="30"/><line opacity="0.2" x1="322.9826153001075" x2="322.9826153001075" y1="0.5" y2="30"/><line opacity="0.2" x1="245.39868368777005" x2="245.39868368777005" y1="0.5" y2="30"/><line opacity="0.2" x1="291.38774986552556" x2="291.38774986552556" y1="0.5" y2="30"/><line opacity="0.2" x1="285.9504288315868" x2="285.9504288315868" y1="0.5" y2="30"/><line opacity="0.2" x1="172.62389976484502" x2="172.62389976484502" y1="0.5" y2="30"/><line opacity="0.2" x1="297.1770942458412" x2="297.1770942458412" y1="0.5" y2="30"/><line opacity="0.2" x1="118.61050610561568" x2="118.61050610561568" y1="0.5" y2="30"/><line opacity="0.2" x1="172.93819938492467" x2="172.93819938492467" y1="0.5" y2="30"/><line opacity="0.2" x1="233.10231069774844" x2="233.10231069774844" y1="0.5" y2="30"/><line opacity="0.2" x1="429.19904573613553" x2="429.19904573613553" y1="0.5" y2="30"/><line opacity="0.2" x1="241.4718256567522" x2="241.4718256567522" y1="0.5" y2="30"/><line opacity="0.2" x1="382.10964578572043" x2="382.10964578572043" y1="0.5" y2="30"/><line opacity="0.2" x1="359.70894538577556" x2="359.70894538577556" y1="0.5" y2="30"/><line opacity="0.2" x1="538.8925003244627" x2="538.8925003244627" y1="0.5" y2="30"/><line opacity="0.2" x1="373.1083436959616" x2="373.1083436959616" y1="0.5" y2="30"/><line opacity="0.2" x1="232.95663856778535" x2="232.95663856778535" y1="0.5" y2="30"/><line opacity="0.2" x1="251.48786776993765" x2="251.48786776993765" y1="0.5" y2="30"/><line opacity="0.2" x1="316.499634432138" x2="316.499634432138" y1="0.5" y2="30"/><line opacity="0.2" x1="241.81592349874325" x2="241.81592349874325" y1="0.5" y2="30"/><line opacity="0.2" x1="252.76089324887292" x2="252.76089324887292" y1="0.5" y2="30"/><line opacity="0.2" x1="336.3312835578192" x2="336.3312835578192" y1="0.5" y2="30"/><line opacity="0.2" x1="301.1910612122788" x2="301.1910612122788" y1="0.5" y2="30"/><line opacity="0.2" x1="203.7074793626188" x2="203.7074793626188" y1="0.5" y2="30"/><line opacity="0.2" x1="339.0417638184708" x2="339.0417638184708" y1="0.5" y2="30"/><line opacity="0.2" x1="261.13733092899486" x2="261.13733092899486" y1="0.5" y2="30"/><line opacity="0.2" x1="268.98245170757997" x2="268.98245170757997" y1="0.5" y2="30"/><line opacity="0.2" x1="182.49043174591756" x2="182.49043174591756" y1="0.5" y2="30"/><line opacity="0.2" x1="509.1824385875137" x2="509.1824385875137" y1="0.5" y2="30"/><line opacity="0.2" x1="270.8748460976017" x2="270.8748460976017" y1="0.5" y2="30"/><line opacity="0.2" x1="328.2336205807527" x2="328.2336205807527" y1="0.5" y2="30"/><line opacity="0.2" x1="556.6247603617129" x2="556.6247603617129" y1="0.5" y2="30"/><line opacity="0.2" x1="250.33816014824106" x2="250.33816014824106" y1="0.5" y2="30"/><line opacity="0.2" x1="327.1804940642914" x2="327.1804940642914" y1="0.5" y2="30"/><line opacity="0.2" x1="360.605767324537" x2="360.605767324537" y1="0.5" y2="30"/><line opacity="0.2" x1="413.86538191391145" x2="413.86538191391145" y1="0.5" y2="30"/><line opacity="0.2" x1="264.76874483362076" x2="264.76874483362076" y1="0.5" y2="30"/><line opacity="0.2" x1="235.13333744232" x2="235.13333744232" y1="0.5" y2="30"/><line opacity="0.2" x1="178.25940129491332" x2="178.25940129491332" y1="0.5" y2="30"/><line opacity="0.2" x1="261.4659167135303" x2="261.4659167135303" y1="0.5" y2="30"/><line opacity="0.2" x1="316.7612088935808" x2="316.7612088935808" y1="0.5" y2="30"/><line opacity="0.2" x1="236.24208234137853" x2="236.24208234137853" y1="0.5" y2="30"/><line opacity="0.2" x1="388.37005138893335" x2="388.37005138893335" y1="0.5" y2="30"/><line opacity="0.2" x1="358.05084877102405" x2="358.05084877102405" y1="0.5" y2="30"/><line opacity="0.2" x1="304.61354431019646" x2="304.61354431019646" y1="0.5" y2="30"/><line opacity="0.2" x1="385.6309566728556" x2="385.6309566728556" y1="0.5" y2="30"/><line opacity="0.2" x1="197.90344412963236" x2="197.90344412963236" y1="0.5" y2="30"/><line opacity="0.2" x1="231.27069196614764" x2="231.27069196614764" y1="0.5" y2="30"/><line opacity="0.2" x1="501.6141655222305" x2="501.6141655222305" y1="0.5" y2="30"/><line opacity="0.2" x1="470.76590900794594" x2="470.76590900794594" y1="0.5" y2="30"/><line opacity="0.2" x1="265.0608740452016" x2="265.0608740452016" y1="0.5" y2="30"/><line opacity="0.2" x1="362.99581808287496" x2="362.99581808287496" y1="0.5" y2="30"/><line opacity="0.2" x1="265.1346035552029" x2="265.1346035552029" y1="0.5" y2="30"/><line opacity="0.2" x1="357.4415771531466" x2="357.4415771531466" y1="0.5" y2="30"/><line opacity="0.2" x1="249.3709341003195" x2="249.3709341003195" y1="0.5" y2="30"/><line opacity="0.2" x1="335.03217828838206" x2="335.03217828838206" y1="0.5" y2="30"/><line opacity="0.2" x1="247.2304220467621" x2="247.2304220467621" y1="0.5" y2="30"/><line opacity="0.2" x1="244.74129338574554" x2="244.74129338574554" y1="0.5" y2="30"/><line opacity="0.2" x1="196.11233839748033" x2="196.11233839748033" y1="0.5" y2="30"/><line opacity="0.2" x1="281.05024399240807" x2="281.05024399240807" y1="0.5" y2="30"/><line opacity="0.2" x1="242.28576840860683" x2="242.28576840860683" y1="0.5" y2="30"/><line opacity="0.2" x1="327.38130831028656" x2="327.38130831028656" y1="0.5" y2="30"/><line opacity="0.2" x1="364.40089164995925" x2="364.40089164995925" y1="0.5" y2="30"/><line opacity="0.2" x1="332.8483550141443" x2="332.8483550141443" y1="0.5" y2="30"/><line opacity="0.2" x1="317.94087457370796" x2="317.94087457370796" y1="0.5" y2="30"/><line opacity="0.2" x1="182.63319986206537" x2="182.63319986206537" y1="0.5" y2="30"/><line opacity="0.2" x1="368.72621250458263" x2="368.72621250458263" y1="0.5" y2="30"/><line opacity="0.2" x1="214.0768748615665" x2="214.0768748615665" y1="0.5" y2="30"/><line opacity="0.2" x1="493.6984268345433" x2="493.6984268345433" y1="0.5" y2="30"/><line opacity="0.2" x1="221.78772952053953" x2="221.78772952053953" y1="0.5" y2="30"/><line opacity="0.2" x1="620" x2="620" y1="0.5" y2="30"/><line opacity="0.2" x1="369.5496137939136" x2="369.5496137939136" y1="0.5" y2="30"/><line opacity="0.2" x1="149.78628449746122" x2="149.78628449746122" y1="0.5" y2="30"/><line opacity="0.2" x1="400.42371428565343" x2="400.42371428565343" y1="0.5" y2="30"/><line opacity="0.2" x1="146.2002819940538" x2="146.2002819940538" y1="0.5" y2="30"/><line opacity="0.2" x1="290.1196701221597" x2="290.1196701221597" y1="0.5" y2="30"/><line opacity="0.2" x1="259.8345183288253" x2="259.8345183288253" y1="0.5" y2="30"/><line opacity="0.2" x1="322.99311172799685" x2="322.99311172799685" y1="0.5" y2="30"/><line opacity="0.2" x1="57.76648135732408" x2="57.76648135732408" y1="0.5" y2="30"/><line opacity="0.2" x1="303.0501854418508" x2="303.0501854418508" y1="0.5" y2="30"/><line opacity="0.2" x1="322.9973807607853" x2="322.9973807607853" y1="0.5" y2="30"/><line opacity="0.2" x1="189.60973647806742" x2="189.60973647806742" y1="0.5" y2="30"/><line opacity="0.2" x1="109.09766733512565" x2="109.09766733512565" y1="0.5" y2="30"/><line opacity="0.2" x1="264.07753052192936" x2="264.07753052192936" y1="0.5" y2="30"/><line opacity="0.2" x1="339.9595621387696" x2="339.9595621387696" y1="0.5" y2="30"/><line opacity="0.2" x1="322.6774069206415" x2="322.6774069206415" y1="0.5" y2="30"/><line opacity="0.2" x1="280.362296501155" x2="280.362296501155" y1="0.5" y2="30"/><line opacity="0.2" x1="264.0375889509533" x2="264.0375889509533" y1="0.5" y2="30"/><line opacity="0.2" x1="459.69342471258926" x2="459.69342471258926" y1="0.5" y2="30"/><line opacity="0.2" x1="362.65305346751506" x2="362.65305346751506" y1="0.5" y2="30"/><line opacity="0.2" x1="278.6038665341177" x2="278.6038665341177" y1="0.5" y2="30"/><line opacity="0.2" x1="402.25328507026035" x2="402.25328507026035" y1="0.5" y2="30"/><line opacity="0.2" x1="258.83220714813325" x2="258.83220714813325" y1="0.5" y2="30"/><line opacity="0.2" x1="544.10132425155" x2="544.10132425155" y1="0.5" y2="30"/><line opacity="0.2" x1="269.21296913713525" x2="269.21296913713525" y1="0.5" y2="30"/><line opacity="0.2" x1="257.1120935828473" x2="257.1120935828473" y1="0.5" y2="30"/><line opacity="0.2" x1="367.6008813731994" x2="367.6008813731994" y1="0.5" y2="30"/><line opacity="0.2" x1="255.3229575367498" x2="255.3229575367498" y1="0.5" y2="30"/><line opacity="0.2" x1="347.5216963125196" x2="347.5216963125196" y1="0.5" y2="30"/><line opacity="0.2" x1="172.3785331956426" x2="172.3785331956426" y1="0.5" y2="30"/><line opacity="0.2" x1="247.03939506034027" x2="247.03939506034027" y1="0.5" y2="30"/><line opacity="0.2" x1="232.7111961181153" x2="232.7111961181153" y1="0.5" y2="30"/><line opacity="0.2" x1="417.07762123796874" x2="417.07762123796874" y1="0.5" y2="30"/><line opacity="0.2" x1="368.6553998456465" x2="368.6553998456465" y1="0.5" y2="30"/><line opacity="0.2" x1="329.56764368765124" x2="329.56764368765124" y1="0.5" y2="30"/><line opacity="0.2" x1="339.2569964824063" x2="339.2569964824063" y1="0.5" y2="30"/><line opacity="0.2" x1="350.8393889339263" x2="350.8393889339263" y1="0.5" y2="30"/><line opacity="0.2" x1="420.12309831066506" x2="420.12309831066506" y1="0.5" y2="30"/><line opacity="0.2" x1="442.8555887030334" x2="442.8555887030334" y1="0.5" y2="30"/><line opacity="0.2" x1="456.59626926770403" x2="456.59626926770403" y1="0.5" y2="30"/><line opacity="0.2" x1="586.7426778489236" x2="586.7426778489236" y1="0.5" y2="30"/><line opacity="0.2" x1="226.68929882008527" x2="226.68929882008527" y1="0.5" y2="30"/><line opacity="0.2" x1="435.76461406880117" x2="435.76461406880117" y1="0.5" y2="30"/><line opacity="0.2" x1="325.5772169655464" x2="325.5772169655464" y1="0.5" y2="30"/><line opacity="0.2" x1="247.39237727680066" x2="247.39237727680066" y1="0.5" y2="30"/><line opacity="0.2" x1="306.1658414909854" x2="306.1658414909854" y1="0.5" y2="30"/><line opacity="0.2" x1="224.28307855082846" x2="224.28307855082846" y1="0.5" y2="30"/><line opacity="0.2" x1="193.12352752468308" x2="193.12352752468308" y1="0.5" y2="30"/><line opacity="0.2" x1="354.73604262519723" x2="354.73604262519723" y1="0.5" y2="30"/><line opacity="0.2" x1="362.52168703776397" x2="362.52168703776397" y1="0.5" y2="30"/><line opacity="0.2" x1="450.8657309702733" x2="450.8657309702733" y1="0.5" y2="30"/><line opacity="0.2" x1="346.08759624749814" x2="346.08759624749814" y1="0.5" y2="30"/><line opacity="0.2" x1="407.2835333831774" x2="407.2835333831774" y1="0.5" y2="30"/><line opacity="0.2" x1="370.75211592556025" x2="370.75211592556025" y1="0.5" y2="30"/><line opacity="0.2" x1="357.97204787537305" x2="357.97204787537305" y1="0.5" y2="30"/><line opacity="0.2" x1="119.61256756547515" x2="119.61256756547515" y1="0.5" y2="30"/><line opacity="0.2" x1="379.5962915419249" x2="379.5962915419249" y1="0.5" y2="30"/><line opacity="0.2" x1="366.41773171764305" x2="366.41773171764305" y1="0.5" y2="30"/><line opacity="0.2" x1="226.53071882461546" x2="226.53071882461546" y1="0.5" y2="30"/><line opacity="0.2" x1="238.80403297776783" x2="238.80403297776783" y1="0.5" y2="30"/><line opacity="0.2" x1="430.99084511798065" x2="430.99084511798065" y1="0.5" y2="30"/><line opacity="0.2" x1="113.07839111368163" x2="113.07839111368163" y1="0.5" y2="30"/><line opacity="0.2" x1="399.1455848912652" x2="399.1455848912652" y1="0.5" y2="30"/><line opacity="0.2" x1="396.7088310902854" x2="396.7088310902854" y1="0.5" y2="30"/><line opacity="0.2" x1="334.5563303503074" x2="334.5563303503074" y1="0.5" y2="30"/><line opacity="0.2" x1="110.78390552290247" x2="110.78390552290247" y1="0.5" y2="30"/><line opacity="0.2" x1="168.44376107681214" x2="168.44376107681214" y1="0.5" y2="30"/><line opacity="0.2" x1="411.910861771226" x2="411.910861771226" y1="0.5" y2="30"/><line opacity="0.2" x1="77.77787468778567" x2="77.77787468778567" y1="0.5" y2="30"/><line opacity="0.2" x1="341.6152922029551" x2="341.6152922029551" y1="0.5" y2="30"/><line opacity="0.2" x1="414.513320173375" x2="414.513320173375" y1="0.5" y2="30"/><line opacity="0.2" x1="184.601595148012" x2="184.601595148012" y1="0.5" y2="30"/><line opacity="0.2" x1="143.79060668816183" x2="143.79060668816183" y1="0.5" y2="30"/><line opacity="0.2" x1="252.62163530234398" x2="252.62163530234398" y1="0.5" y2="30"/><line opacity="0.2" x1="265.6993275415052" x2="265.6993275415052" y1="0.5" y2="30"/><line opacity="0.2" x1="316.6628407811487" x2="316.6628407811487" y1="0.5" y2="30"/><line opacity="0.2" x1="417.5988482074468" x2="417.5988482074468" y1="0.5" y2="30"/><line opacity="0.2" x1="330.3481816175014" x2="330.3481816175014" y1="0.5" y2="30"/><line opacity="0.2" x1="274.9988898877046" x2="274.9988898877046" y1="0.5" y2="30"/><line opacity="0.2" x1="213.06687310604977" x2="213.06687310604977" y1="0.5" y2="30"/><line opacity="0.2" x1="268.2315799290069" x2="268.2315799290069" y1="0.5" y2="30"/><line opacity="0.2" x1="265.96455913844005" x2="265.96455913844005" y1="0.5" y2="30"/><line opacity="0.2" x1="249.19016731011726" x2="249.19016731011726" y1="0.5" y2="30"/><line opacity="0.2" x1="329.4159598955676" x2="329.4159598955676" y1="0.5" y2="30"/><line opacity="0.2" x1="321.01151763654997" x2="321.01151763654997" y1="0.5" y2="30"/><line opacity="0.2" x1="299.3247341661238" x2="299.3247341661238" y1="0.5" y2="30"/><line opacity="0.2" x1="390.74715120694043" x2="390.74715120694043" y1="0.5" y2="30"/><line opacity="0.2" x1="337.6380932757487" x2="337.6380932757487" y1="0.5" y2="30"/><line opacity="0.2" x1="198.90501306102018" x2="198.90501306102018" y1="0.5" y2="30"/><line opacity="0.2" x1="342.5549387008219" x2="342.5549387008219" y1="0.5" y2="30"/><line opacity="0.2" x1="337.9894922078324" x2="337.9894922078324" y1="0.5" y2="30"/><line opacity="0.2" x1="284.23478828791264" x2="284.23478828791264" y1="0.5" y2="30"/><line opacity="0.2" x1="177.34219645106631" x2="177.34219645106631" y1="0.5" y2="30"/><line opacity="0.2" x1="255.6852706671941" x2="255.6852706671941" y1="0.5" y2="30"/><line opacity="0.2" x1="351.5771219686971" x2="351.5771219686971" y1="0.5" y2="30"/><line opacity="0.2" x1="315.0206337503536" x2="315.0206337503536" y1="0.5" y2="30"/><line opacity="0.2" x1="195.9324039570995" x2="195.9324039570995" y1="0.5" y2="30"/><line opacity="0.2" x1="246.3769917723223" x2="246.3769917723223" y1="0.5" y2="30"/><line opacity="0.2" x1="406.63541847185047" x2="406.63541847185047" y1="0.5" y2="30"/><line opacity="0.2" x1="400.3080714911293" x2="400.3080714911293" y1="0.5" y2="30"/><line opacity="0.2" x1="343.2446452647617" x2="343.2446452647617" y1="0.5" y2="30"/><line opacity="0.2" x1="153.23711376930748" x2="153.23711376930748" y1="0.5" y2="30"/><line opacity="0.2" x1="297.93083994072396" x2="297.93083994072396" y1="0.5" y2="30"/><line opacity="0.2" x1="227.77379431569838" x2="227.77379431569838" y1="0.5" y2="30"/><line opacity="0.2" x1="480.66269840399605" x2="480.66269840399605" y1="0.5" y2="30"/><line opacity="0.2" x1="341.02347479779274" x2="341.02347479779274" y1="0.5" y2="30"/><line opacity="0.2" x1="313.01921782912564" x2="313.01921782912564" y1="0.5" y2="30"/><line opacity="0.2" x1="247.55278503479295" x2="247.55278503479295" y1="0.5" y2="30"/><line opacity="0.2" x1="336.4958948545285" x2="336.4958948545285" y1="0.5" y2="30"/><line opacity="0.2" x1="345.2033273108502" x2="345.2033273108502" y1="0.5" y2="30"/><line opacity="0.2" x1="366.1468670846122" x2="366.1468670846122" y1="0.5" y2="30"/><line opacity="0.2" x1="376.22764904306734" x2="376.22764904306734" y1="0.5" y2="30"/><line opacity="0.2" x1="293.4686083402373" x2="293.4686083402373" y1="0.5" y2="30"/><line opacity="0.2" x1="422.65228891629044" x2="422.65228891629044" y1="0.5" y2="30"/><line opacity="0.2" x1="196.41000841289124" x2="196.41000841289124" y1="0.5" y2="30"/><line opacity="0.2" x1="131.81857289100634" x2="131.81857289100634" y1="0.5" y2="30"/><line opacity="0.2" x1="210.3828493712769" x2="210.3828493712769" y1="0.5" y2="30"/><line opacity="0.2" x1="269.8201803534312" x2="269.8201803534312" y1="0.5" y2="30"/><line opacity="0.2" x1="319.78185488282526" x2="319.78185488282526" y1="0.5" y2="30"/><line opacity="0.2" x1="436.7796015385042" x2="436.7796015385042" y1="0.5" y2="30"/><line opacity="0.2" x1="311.6850401976454" x2="311.6850401976454" y1="0.5" y2="30"/><line opacity="0.2" x1="378.5607646180344" x2="378.5607646180344" y1="0.5" y2="30"/><line opacity="0.2" x1="365.49107829061603" x2="365.49107829061603" y1="0.5" y2="30"/><line opacity="0.2" x1="187.80479992052062" x2="187.80479992052062" y1="0.5" y2="30"/><line opacity="0.2" x1="103.07428567382316" x2="103.07428567382316" y1="0.5" y2="30"/><line opacity="0.2" x1="269.32771543995403" x2="269.32771543995403" y1="0.5" y2="30"/><line opacity="0.2" x1="398.7766656203386" x2="398.7766656203386" y1="0.5" y2="30"/><line opacity="0.2" x1="172.79348719407122" x2="172.79348719407122" y1="0.5" y2="30"/><line opacity="0.2" x1="284.0654777784662" x2="284.0654777784662" y1="0.5" y2="30"/><line opacity="0.2" x1="218.47181478464506" x2="218.47181478464506" y1="0.5" y2="30"/><line opacity="0.2" x1="363.9550099714597" x2="363.9550099714597" y1="0.5" y2="30"/><line opacity="0.2" x1="291.5581768066232" x2="291.5581768066232" y1="0.5" y2="30"/><line opacity="0.2" x1="315.20249933179605" x2="315.20249933179605" y1="0.5" y2="30"/><line opacity="0.2" x1="382.76201508876585" x2="382.76201508876585" y1="0.5" y2="30"/><line opacity="0.2" x1="218.47146681732482" x2="218.47146681732482" y1="0.5" y2="30"/><line opacity="0.2" x1="285.69391557658014" x2="285.69391557658014" y1="0.5" y2="30"/><line opacity="0.2" x1="321.2227545221905" x2="321.2227545221905" y1="0.5" y2="30"/><line opacity="0.2" x1="264.48282153564185" x2="264.48282153564185" y1="0.5" y2="30"/><line opacity="0.2" x1="373.57312456766573" x2="373.57312456766573" y1="0.5" y2="30"/><line opacity="0.2" x1="178.75088584102036" x2="178.75088584102036" y1="0.5" y2="30"/><line opacity="0.2" x1="357.5878741977386" x2="357.5878741977386" y1="0.5" y2="30"/><line opacity="0.2" x1="234.5674708465138" x2="234.5674708465138" y1="0.5" y2="30"/><line opacity="0.2" x1="502.5020178601013" x2="502.5020178601013" y1="0.5" y2="30"/><line opacity="0.2" x1="467.02970464233306" x2="467.02970464233306" y1="0.5" y2="30"/><line opacity="0.2" x1="264.8770095793245" x2="264.8770095793245" y1="0.5" y2="30"/><line opacity="0.2" x1="161.25622922771834" x2="161.25622922771834" y1="0.5" y2="30"/><line opacity="0.2" x1="319.0650629893358" x2="319.0650629893358" y1="0.5" y2="30"/><line opacity="0.2" x1="336.6508669667556" x2="336.6508669667556" y1="0.5" y2="30"/><line opacity="0.2" x1="162.92412824758" x2="162.92412824758" y1="0.5" y2="30"/><line opacity="0.2" x1="417.28762149269255" x2="417.28762149269255" y1="0.5" y2="30"/><line opacity="0.2" x1="263.80287800193383" x2="263.80287800193383" y1="0.5" y2="30"/><line opacity="0.2" x1="285.85824220584936" x2="285.85824220584936" y1="0.5" y2="30"/><line opacity="0.2" x1="281.1678854207119" x2="281.1678854207119" y1="0.5" y2="30"/><line opacity="0.2" x1="268.7205783337935" x2="268.7205783337935" y1="0.5" y2="30"/><line opacity="0.2" x1="486.0581051554665" x2="486.0581051554665" y1="0.5" y2="30"/><line opacity="0.2" x1="445.6911124192616" x2="445.6911124192616" y1="0.5" y2="30"/><line opacity="0.2" x1="223.4524891783747" x2="223.4524891783747" y1="0.5" y2="30"/><line opacity="0.2" x1="386.11554252105907" x2="386.11554252105907" y1="0.5" y2="30"/><line opacity="0.2" x1="136.83175677395963" x2="136.83175677395963" y1="0.5" y2="30"/><line opacity="0.2" x1="372.0211075480563" x2="372.0211075480563" y1="0.5" y2="30"/><line opacity="0.2" x1="331.4136680390089" x2="331.4136680390089" y1="0.5" y2="30"/><line opacity="0.2" x1="302.60311606830794" x2="302.60311606830794" y1="0.5" y2="30"/><line opacity="0.2" x1="331.61191671571584" x2="331.61191671571584" y1="0.5" y2="30"/><line opacity="0.2" x1="204.35550517236345" x2="204.35550517236345" y1="0.5" y2="30"/><line opacity="0.2" x1="439.0485556261525" x2="439.0485556261525" y1="0.5" y2="30"/><line opacity="0.2" x1="244.116622025495" x2="244.116622025495" y1="0.5" y2="30"/><line opacity="0.2" x1="103.14410974738774" x2="103.14410974738774" y1="0.5" y2="30"/><line opacity="0.2" x1="331.57315112054135" x2="331.57315112054135" y1="0.5" y2="30"/><line opacity="0.2" x1="247.3768056950615" x2="247.3768056950615" y1="0.5" y2="30"/><line opacity="0.2" x1="554.0112283665442" x2="554.0112283665442" y1="0.5" y2="30"/><line opacity="0.2" x1="169.50595848906957" x2="169.50595848906957" y1="0.5" y2="30"/><line opacity="0.2" x1="189.89356509494863" x2="189.89356509494863" y1="0.5" y2="30"/><line opacity="0.2" x1="450.1129734639916" x2="450.1129734639916" y1="0.5" y2="30"/><line opacity="0.2" x1="353.06085730082333" x2="353.06085730082333" y1="0.5" y2="30"/><line opacity="0.2" x1="342.1260722362725" x2="342.1260722362725" y1="0.5" y2="30"/><line opacity="0.2" x1="177.7873487701593" x2="177.7873487701593" y1="0.5" y2="30"/><line opacity="0.2" x1="194.61432455028503" x2="194.61432455028503" y1="0.5" y2="30"/><line opacity="0.2" x1="434.31650076651795" x2="434.31650076651795" y1="0.5" y2="30"/><line opacity="0.2" x1="471.4628241570916" x2="471.4628241570916" y1="0.5" y2="30"/><line opacity="0.2" x1="313.7371212182156" x2="313.7371212182156" y1="0.5" y2="30"/><line opacity="0.2" x1="201.8670700839862" x2="201.8670700839862" y1="0.5" y2="30"/><line opacity="0.2" x1="373.77800425282675" x2="373.77800425282675" y1="0.5" y2="30"/><line opacity="0.2" x1="307.11107973538526" x2="307.11107973538526" y1="0.5" y2="30"/><line opacity="0.2" x1="316.79995478885087" x2="316.79995478885087" y1="0.5" y2="30"/><line opacity="0.2" x1="213.1736843505932" x2="213.1736843505932" y1="0.5" y2="30"/><line opacity="0.2" x1="195.48890625282982" x2="195.48890625282982" y1="0.5" y2="30"/><line opacity="0.2" x1="192.10401778289653" x2="192.10401778289653" y1="0.5" y2="30"/><line opacity="0.2" x1="331.83456115579236" x2="331.83456115579236" y1="0.5" y2="30"/><line opacity="0.2" x1="271.13096847447" x2="271.13096847447" y1="0.5" y2="30"/><line opacity="0.2" x1="386.5617298212474" x2="386.5617298212474" y1="0.5" y2="30"/><line opacity="0.2" x1="238.18663928089111" x2="238.18663928089111" y1="0.5" y2="30"/><line opacity="0.2" x1="335.8541409847873" x2="335.8541409847873" y1="0.5" y2="30"/><line opacity="0.2" x1="272.92690052320654" x2="272.92690052320654" y1="0.5" y2="30"/><line opacity="0.2" x1="153.80903497879342" x2="153.80903497879342" y1="0.5" y2="30"/><line opacity="0.2" x1="413.5009730538027" x2="413.5009730538027" y1="0.5" y2="30"/><line opacity="0.2" x1="435.90509916815483" x2="435.90509916815483" y1="0.5" y2="30"/><line opacity="0.2" x1="164.1609781990425" x2="164.1609781990425" y1="0.5" y2="30"/><line opacity="0.2" x1="310.5269652439282" x2="310.5269652439282" y1="0.5" y2="30"/><line opacity="0.2" x1="220.74109958991906" x2="220.74109958991906" y1="0.5" y2="30"/><line opacity="0.2" x1="200.68304324992607" x2="200.68304324992607" y1="0.5" y2="30"/><line opacity="0.2" x1="258.8067466815334" x2="258.8067466815334" y1="0.5" y2="30"/><line opacity="0.2" x1="294.1399759102817" x2="294.1399759102817" y1="0.5" y2="30"/><line opacity="0.2" x1="333.32068932952507" x2="333.32068932952507" y1="0.5" y2="30"/><line opacity="0.2" x1="203.26484842457796" x2="203.26484842457796" y1="0.5" y2="30"/><line opacity="0.2" x1="264.34205731977545" x2="264.34205731977545" y1="0.5" y2="30"/><line opacity="0.2" x1="347.3840897695091" x2="347.3840897695091" y1="0.5" y2="30"/><line opacity="0.2" x1="378.76452725070214" x2="378.76452725070214" y1="0.5" y2="30"/><line opacity="0.2" x1="252.3226086100836" x2="252.3226086100836" y1="0.5" y2="30"/><line opacity="0.2" x1="306.9401986769898" x2="306.9401986769898" y1="0.5" y2="30"/><line opacity="0.2" x1="284.5948550970702" x2="284.5948550970702" y1="0.5" y2="30"/><line opacity="0.2" x1="358.58244748447134" x2="358.58244748447134" y1="0.5" y2="30"/><line opacity="0.2" x1="169.25901863458307" x2="169.25901863458307" y1="0.5" y2="30"/><line opacity="0.2" x1="400.38018937187667" x2="400.38018937187667" y1="0.5" y2="30"/><line opacity="0.2" x1="386.32553422204757" x2="386.32553422204757" y1="0.5" y2="30"/><line opacity="0.2" x1="371.16768599561306" x2="371.16768599561306" y1="0.5" y2="30"/><line opacity="0.2" x1="367.0257100434361" x2="367.0257100434361" y1="0.5" y2="30"/><line opacity="0.2" x1="461.98936567725434" x2="461.98936567725434" y1="0.5" y2="30"/><line opacity="0.2" x1="258.20072137697656" x2="258.20072137697656" y1="0.5" y2="30"/><line opacity="0.2" x1="284.0165791561675" x2="284.0165791561675" y1="0.5" y2="30"/><line opacity="0.2" x1="391.09635121932234" x2="391.09635121932234" y1="0.5" y2="30"/><line opacity="0.2" x1="328.640216086683" x2="328.640216086683" y1="0.5" y2="30"/><line opacity="0.2" x1="266.2579306329979" x2="266.2579306329979" y1="0.5" y2="30"/><line opacity="0.2" x1="241.48049222375445" x2="241.48049222375445" y1="0.5" y2="30"/><line opacity="0.2" x1="193.38601143119473" x2="193.38601143119473" y1="0.5" y2="30"/><line opacity="0.2" x1="293.6094415029992" x2="293.6094415029992" y1="0.5" y2="30"/><line opacity="0.2" x1="187.7229101389792" x2="187.7229101389792" y1="0.5" y2="30"/><line opacity="0.2" x1="220.94848231593596" x2="220.94848231593596" y1="0.5" y2="30"/><line opacity="0.2" x1="327.1364828205256" x2="327.1364828205256" y1="0.5" y2="30"/><line opacity="0.2" x1="271.8710343526546" x2="271.8710343526546" y1="0.5" y2="30"/><line opacity="0.2" x1="445.79427527257326" x2="445.79427527257326" y1="0.5" y2="30"/><line opacity="0.2" x1="135.45794982882435" x2="135.45794982882435" y1="0.5" y2="30"/><line opacity="0.2" x1="482.822490340033" x2="482.822490340033" y1="0.5" y2="30"/><line opacity="0.2" x1="86.6991235985722" x2="86.6991235985722" y1="0.5" y2="30"/><line opacity="0.2" x1="388.887868346192" x2="388.887868346192" y1="0.5" y2="30"/><line opacity="0.2" x1="326.30673519688423" x2="326.30673519688423" y1="0.5" y2="30"/><line opacity="0.2" x1="177.72516769570868" x2="177.72516769570868" y1="0.5" y2="30"/><line opacity="0.2" x1="244.49541824106902" x2="244.49541824106902" y1="0.5" y2="30"/><line opacity="0.2" x1="355.98198031977836" x2="355.98198031977836" y1="0.5" y2="30"/><line opacity="0.2" x1="303.69370085830394" x2="303.69370085830394" y1="0.5" y2="30"/><line opacity="0.2" x1="412.9078208518133" x2="412.9078208518133" y1="0.5" y2="30"/><line opacity="0.2" x1="140.6618720514386" x2="140.6618720514386" y1="0.5" y2="30"/><line opacity="0.2" x1="251.65544542888264" x2="251.65544542888264" y1="0.5" y2="30"/><line opacity="0.2" x1="380.11623086303274" x2="380.11623086303274" y1="0.5" y2="30"/><line opacity="0.2" x1="500.2991489359675" x2="500.2991489359675" y1="0.5" y2="30"/><line opacity="0.2" x1="226.59282063407065" x2="226.59282063407065" y1="0.5" y2="30"/><line opacity="0.2" x1="418.7666087584614" x2="418.7666087584614" y1="0.5" y2="30"/><line opacity="0.2" x1="236.5893504686472" x2="236.5893504686472" y1="0.5" y2="30"/><line opacity="0.2" x1="367.65540420231054" x2="367.65540420231054" y1="0.5" y2="30"/><line opacity="0.2" x1="138.61811220452552" x2="138.61811220452552" y1="0.5" y2="30"/><line opacity="0.2" x1="436.8538277967476" x2="436.8538277967476" y1="0.5" y2="30"/><line opacity="0.2" x1="253.92940716448612" x2="253.92940716448612" y1="0.5" y2="30"/><line opacity="0.2" x1="392.2395686040298" x2="392.2395686040298" y1="0.5" y2="30"/><line opacity="0.2" x1="413.1580565287236" x2="413.1580565287236" y1="0.5" y2="30"/><line opacity="0.2" x1="192.8667656550378" x2="192.8667656550378" y1="0.5" y2="30"/><line opacity="0.2" x1="343.7241404521229" x2="343.7241404521229" y1="0.5" y2="30"/><line opacity="0.2" x1="371.2966284428868" x2="371.2966284428868" y1="0.5" y2="30"/><line opacity="0.2" x1="533.4777395892693" x2="533.4777395892693" y1="0.5" y2="30"/><line opacity="0.2" x1="316.3236734544158" x2="316.3236734544158" y1="0.5" y2="30"/><line opacity="0.2" x1="353.43451836306895" x2="353.43451836306895" y1="0.5" y2="30"/><line opacity="0.2" x1="354.3765940031402" x2="354.3765940031402" y1="0.5" y2="30"/><line opacity="0.2" x1="202.2893639625521" x2="202.2893639625521" y1="0.5" y2="30"/><line opacity="0.2" x1="465.20797923202934" x2="465.20797923202934" y1="0.5" y2="30"/><line opacity="0.2" x1="251.96416768330332" x2="251.96416768330332" y1="0.5" y2="30"/><line opacity="0.2" x1="372.2384685822942" x2="372.2384685822942" y1="0.5" y2="30"/><line opacity="0.2" x1="255.40699404354467" x2="255.40699404354467" y1="0.5" y2="30"/><line opacity="0.2" x1="264.30724778478145" x2="264.30724778478145" y1="0.5" y2="30"/><line opacity="0.2" x1="273.8663668226285" x2="273.8663668226285" y1="0.5" y2="30"/><line opacity="0.2" x1="318.63644866697143" x2="318.63644866697143" y1="0.5" y2="30"/><line opacity="0.2" x1="388.1408195166901" x2="388.1408195166901" y1="0.5" y2="30"/><line opacity="0.2" x1="77.51436656104174" x2="77.51436656104174" y1="0.5" y2="30"/><line opacity="0.2" x1="447.6186607723473" x2="447.6186607723473" y1="0.5" y2="30"/><line opacity="0.2" x1="251.12862211678737" x2="251.12862211678737" y1="0.5" y2="30"/><line opacity="0.2" x1="206.30282611365786" x2="206.30282611365786" y1="0.5" y2="30"/><line opacity="0.2" x1="331.3756175065368" x2="331.3756175065368" y1="0.5" y2="30"/><line opacity="0.2" x1="379.75239192924283" x2="379.75239192924283" y1="0.5" y2="30"/><line opacity="0.2" x1="352.0308884768401" x2="352.0308884768401" y1="0.5" y2="30"/><line opacity="0.2" x1="546.8740388732577" x2="546.8740388732577" y1="0.5" y2="30"/><line opacity="0.2" x1="341.05834523835733" x2="341.05834523835733" y1="0.5" y2="30"/><line opacity="0.2" x1="299.3829198045503" x2="299.3829198045503" y1="0.5" y2="30"/><line opacity="0.2" x1="336.4243860327928" x2="336.4243860327928" y1="0.5" y2="30"/><line opacity="0.2" x1="286.87059113206016" x2="286.87059113206016" y1="0.5" y2="30"/><line opacity="0.2" x1="125.33542646472839" x2="125.33542646472839" y1="0.5" y2="30"/><line opacity="0.2" x1="161.99773212038843" x2="161.99773212038843" y1="0.5" y2="30"/><line opacity="0.2" x1="247.19086831151918" x2="247.19086831151918" y1="0.5" y2="30"/><line opacity="0.2" x1="380.43448897774897" x2="380.43448897774897" y1="0.5" y2="30"/><line opacity="0.2" x1="306.89085999785544" x2="306.89085999785544" y1="0.5" y2="30"/><line opacity="0.2" x1="228.25258687787965" x2="228.25258687787965" y1="0.5" y2="30"/><line opacity="0.2" x1="272.68937412683096" x2="272.68937412683096" y1="0.5" y2="30"/><line opacity="0.2" x1="429.1341896532078" x2="429.1341896532078" y1="0.5" y2="30"/><line opacity="0.2" x1="354.28149675030556" x2="354.28149675030556" y1="0.5" y2="30"/><line opacity="0.2" x1="277.05375721820224" x2="277.05375721820224" y1="0.5" y2="30"/><line opacity="0.2" x1="332.1810555803522" x2="332.1810555803522" y1="0.5" y2="30"/><line opacity="0.2" x1="328.8081698379487" x2="328.8081698379487" y1="0.5" y2="30"/><line opacity="0.2" x1="416.0706204262126" x2="416.0706204262126" y1="0.5" y2="30"/><line opacity="0.2" x1="418.0428400238332" x2="418.0428400238332" y1="0.5" y2="30"/><line opacity="0.2" x1="220.106902744041" x2="220.106902744041" y1="0.5" y2="30"/><line opacity="0.2" x1="299.2131682589483" x2="299.2131682589483" y1="0.5" y2="30"/><line opacity="0.2" x1="421.44374892772527" x2="421.44374892772527" y1="0.5" y2="30"/><line opacity="0.2" x1="229.7973250301245" x2="229.7973250301245" y1="0.5" y2="30"/><line opacity="0.2" x1="332.7880905852646" x2="332.7880905852646" y1="0.5" y2="30"/><line opacity="0.2" x1="487.38463703095374" x2="487.38463703095374" y1="0.5" y2="30"/><line opacity="0.2" x1="277.1300155744921" x2="277.1300155744921" y1="0.5" y2="30"/><line opacity="0.2" x1="177.55108999895876" x2="177.55108999895876" y1="0.5" y2="30"/><line opacity="0.2" x1="335.7120741939283" x2="335.7120741939283" y1="0.5" y2="30"/><line opacity="0.2" x1="326.8512015627112" x2="326.8512015627112" y1="0.5" y2="30"/><line opacity="0.2" x1="379.64343789311084" x2="379.64343789311084" y1="0.5" y2="30"/><line opacity="0.2" x1="332.12957532610415" x2="332.12957532610415" y1="0.5" y2="30"/><line opacity="0.2" x1="244.35122920262341" x2="244.35122920262341" y1="0.5" y2="30"/><line opacity="0.2" x1="367.45178086070536" x2="367.45178086070536" y1="0.5" y2="30"/><line opacity="0.2" x1="227.4776039425995" x2="227.4776039425995" y1="0.5" y2="30"/><line opacity="0.2" x1="475.5835703568959" x2="475.5835703568959" y1="0.5" y2="30"/><line opacity="0.2" x1="134.4958050975125" x2="134.4958050975125" y1="0.5" y2="30"/><line opacity="0.2" x1="282.1561272005287" x2="282.1561272005287" y1="0.5" y2="30"/><line opacity="0.2" x1="348.22669447771386" x2="348.22669447771386" y1="0.5" y2="30"/><line opacity="0.2" x1="444.7596756514992" x2="444.7596756514992" y1="0.5" y2="30"/><line opacity="0.2" x1="228.3861224141129" x2="228.3861224141129" y1="0.5" y2="30"/><line opacity="0.2" x1="224.94025444686716" x2="224.94025444686716" y1="0.5" y2="30"/><line opacity="0.2" x1="196.2921348600617" x2="196.2921348600617" y1="0.5" y2="30"/><line opacity="0.2" x1="286.4970629940238" x2="286.4970629940238" y1="0.5" y2="30"/><line opacity="0.2" x1="329.62841621149033" x2="329.62841621149033" y1="0.5" y2="30"/><line opacity="0.2" x1="446.43270231579453" x2="446.43270231579453" y1="0.5" y2="30"/><line opacity="0.2" x1="305.7774292615486" x2="305.7774292615486" y1="0.5" y2="30"/><line opacity="0.2" x1="272.12154189937377" x2="272.12154189937377" y1="0.5" y2="30"/><line opacity="0.2" x1="421.1789304686377" x2="421.1789304686377" y1="0.5" y2="30"/><line opacity="0.2" x1="142.13748397362397" x2="142.13748397362397" y1="0.5" y2="30"/><line opacity="0.2" x1="443.93489041267253" x2="443.93489041267253" y1="0.5" y2="30"/><line opacity="0.2" x1="266.9783142476325" x2="266.9783142476325" y1="0.5" y2="30"/><line opacity="0.2" x1="294.80978225328647" x2="294.80978225328647" y1="0.5" y2="30"/><line opacity="0.2" x1="398.65245973596876" x2="398.65245973596876" y1="0.5" y2="30"/><line opacity="0.2" x1="265.25273836698597" x2="265.25273836698597" y1="0.5" y2="30"/><line opacity="0.2" x1="345.7770416411414" x2="345.7770416411414" y1="0.5" y2="30"/><line opacity="0.2" x1="316.9120349674808" x2="316.9120349674808" y1="0.5" y2="30"/><line opacity="0.2" x1="332.37734392845647" x2="332.37734392845647" y1="0.5" y2="30"/><line opacity="0.2" x1="488.7165088153941" x2="488.7165088153941" y1="0.5" y2="30"/><line opacity="0.2" x1="236.05311586329856" x2="236.05311586329856" y1="0.5" y2="30"/><line opacity="0.2" x1="268.2965562159444" x2="268.2965562159444" y1="0.5" y2="30"/><line opacity="0.2" x1="118.1681905280038" x2="118.1681905280038" y1="0.5" y2="30"/><line opacity="0.2" x1="255.115640081183" x2="255.115640081183" y1="0.5" y2="30"/><line opacity="0.2" x1="221.30895676702417" x2="221.30895676702417" y1="0.5" y2="30"/><line opacity="0.2" x1="414.3593918939064" x2="414.3593918939064" y1="0.5" y2="30"/><line opacity="0.2" x1="356.2901578769513" x2="356.2901578769513" y1="0.5" y2="30"/><line opacity="0.2" x1="437.57896345674203" x2="437.57896345674203" y1="0.5" y2="30"/><line opacity="0.2" x1="524.6078346761212" x2="524.6078346761212" y1="0.5" y2="30"/><line opacity="0.2" x1="319.9296350455703" x2="319.9296350455703" y1="0.5" y2="30"/><line opacity="0.2" x1="321.0558123288344" x2="321.0558123288344" y1="0.5" y2="30"/><line opacity="0.2" x1="305.6348900667535" x2="305.6348900667535" y1="0.5" y2="30"/><line opacity="0.2" x1="494.812799752123" x2="494.812799752123" y1="0.5" y2="30"/><line opacity="0.2" x1="300.6475209314272" x2="300.6475209314272" y1="0.5" y2="30"/><line opacity="0.2" x1="301.9865090191902" x2="301.9865090191902" y1="0.5" y2="30"/><line opacity="0.2" x1="400.24851353040253" x2="400.24851353040253" y1="0.5" y2="30"/><line opacity="0.2" x1="323.28594403335666" x2="323.28594403335666" y1="0.5" y2="30"/><line opacity="0.2" x1="166.92714202883306" x2="166.92714202883306" y1="0.5" y2="30"/><line opacity="0.2" x1="294.2273309240105" x2="294.2273309240105" y1="0.5" y2="30"/><line opacity="0.2" x1="316.7157358045473" x2="316.7157358045473" y1="0.5" y2="30"/><line opacity="0.2" x1="325.4065584107468" x2="325.4065584107468" y1="0.5" y2="30"/><line opacity="0.2" x1="178.55733501307864" x2="178.55733501307864" y1="0.5" y2="30"/><line opacity="0.2" x1="363.387484540117" x2="363.387484540117" y1="0.5" y2="30"/><line opacity="0.2" x1="376.2364476747752" x2="376.2364476747752" y1="0.5" y2="30"/><line opacity="0.2" x1="212.77128592732782" x2="212.77128592732782" y1="0.5" y2="30"/><line opacity="0.2" x1="157.30565520660747" x2="157.30565520660747" y1="0.5" y2="30"/><line opacity="0.2" x1="373.4725038301468" x2="373.4725038301468" y1="0.5" y2="30"/><line opacity="0.2" x1="214.7097588626343" x2="214.7097588626343" y1="0.5" y2="30"/><line opacity="0.2" x1="323.77561844154974" x2="323.77561844154974" y1="0.5" y2="30"/><line opacity="0.2" x1="146.9326719890677" x2="146.9326719890677" y1="0.5" y2="30"/><line opacity="0.2" x1="220.52145828621096" x2="220.52145828621096" y1="0.5" y2="30"/><line opacity="0.2" x1="173.62395299126646" x2="173.62395299126646" y1="0.5" y2="30"/><line opacity="0.2" x1="310.8529791431419" x2="310.8529791431419" y1="0.5" y2="30"/><line opacity="0.2" x1="297.5700902938475" x2="297.5700902938475" y1="0.5" y2="30"/><line opacity="0.2" x1="199.20081941386545" x2="199.20081941386545" y1="0.5" y2="30"/><line opacity="0.2" x1="251.01999610201545" x2="251.01999610201545" y1="0.5" y2="30"/><line opacity="0.2" x1="323.75604161502844" x2="323.75604161502844" y1="0.5" y2="30"/><line opacity="0.2" x1="215.69669896394169" x2="215.69669896394169" y1="0.5" y2="30"/><line opacity="0.2" x1="291.71640601998325" x2="291.71640601998325" y1="0.5" y2="30"/><line opacity="0.2" x1="257.222770036745" x2="257.222770036745" y1="0.5" y2="30"/><line opacity="0.2" x1="283.55231898166346" x2="283.55231898166346" y1="0.5" y2="30"/><line opacity="0.2" x1="392.61906846472596" x2="392.61906846472596" y1="0.5" y2="30"/><line opacity="0.2" x1="262.20548144676724" x2="262.20548144676724" y1="0.5" y2="30"/><line opacity="0.2" x1="293.95598982098966" x2="293.95598982098966" y1="0.5" y2="30"/><line opacity="0.2" x1="357.38223028445645" x2="357.38223028445645" y1="0.5" y2="30"/><line opacity="0.2" x1="237.9246643970466" x2="237.9246643970466" y1="0.5" y2="30"/><line opacity="0.2" x1="249.48418980524409" x2="249.48418980524409" y1="0.5" y2="30"/><line opacity="0.2" x1="237.1793509093427" x2="237.1793509093427" y1="0.5" y2="30"/><line opacity="0.2" x1="335.21528886191555" x2="335.21528886191555" y1="0.5" y2="30"/><line opacity="0.2" x1="161.16743873795264" x2="161.16743873795264" y1="0.5" y2="30"/><line opacity="0.2" x1="122.89292108133294" x2="122.89292108133294" y1="0.5" y2="30"/><line opacity="0.2" x1="336.38695822096383" x2="336.38695822096383" y1="0.5" y2="30"/><line opacity="0.2" x1="309.7217872249588" x2="309.7217872249588" y1="0.5" y2="30"/><line opacity="0.2" x1="404.756495311879" x2="404.756495311879" y1="0.5" y2="30"/><line opacity="0.2" x1="464.44391293822434" x2="464.44391293822434" y1="0.5" y2="30"/><line opacity="0.2" x1="342.0643160900643" x2="342.0643160900643" y1="0.5" y2="30"/><line opacity="0.2" x1="321.5800635814091" x2="321.5800635814091" y1="0.5" y2="30"/><line opacity="0.2" x1="291.6117648630173" x2="291.6117648630173" y1="0.5" y2="30"/><line opacity="0.2" x1="244.80780033446558" x2="244.80780033446558" y1="0.5" y2="30"/><line opacity="0.2" x1="543.4429676020397" x2="543.4429676020397" y1="0.5" y2="30"/><line opacity="0.2" x1="129.93707509847246" x2="129.93707509847246" y1="0.5" y2="30"/><line opacity="0.2" x1="221.1537304946854" x2="221.1537304946854" y1="0.5" y2="30"/><line opacity="0.2" x1="198.2488421513175" x2="198.2488421513175" y1="0.5" y2="30"/><line opacity="0.2" x1="349.8518284836725" x2="349.8518284836725" y1="0.5" y2="30"/><line opacity="0.2" x1="312.89514877166175" x2="312.89514877166175" y1="0.5" y2="30"/><line opacity="0.2" x1="174.18482725531612" x2="174.18482725531612" y1="0.5" y2="30"/><line opacity="0.2" x1="210.06856325944406" x2="210.06856325944406" y1="0.5" y2="30"/><line opacity="0.2" x1="274.2524318426036" x2="274.2524318426036" y1="0.5" y2="30"/><line opacity="0.2" x1="467.11587765978595" x2="467.11587765978595" y1="0.5" y2="30"/><line opacity="0.2" x1="117.24789255341574" x2="117.24789255341574" y1="0.5" y2="30"/><line opacity="0.2" x1="336.83922137105594" x2="336.83922137105594" y1="0.5" y2="30"/><line opacity="0.2" x1="498.05999726496714" x2="498.05999726496714" y1="0.5" y2="30"/><line opacity="0.2" x1="424.03917374906587" x2="424.03917374906587" y1="0.5" y2="30"/><line opacity="0.2" x1="335.2248757137518" x2="335.2248757137518" y1="0.5" y2="30"/><line opacity="0.2" x1="168.40285107369152" x2="168.40285107369152" y1="0.5" y2="30"/><line opacity="0.2" x1="358.230158912908" x2="358.230158912908" y1="0.5" y2="30"/><line opacity="0.2" x1="370.3984777680563" x2="370.3984777680563" y1="0.5" y2="30"/><line opacity="0.2" x1="226.43063421471794" x2="226.43063421471794" y1="0.5" y2="30"/><line opacity="0.2" x1="283.6154447389423" x2="283.6154447389423" y1="0.5" y2="30"/><line opacity="0.2" x1="183.29463509935619" x2="183.29463509935619" y1="0.5" y2="30"/><line opacity="0.2" x1="269.6295904917161" x2="269.6295904917161" y1="0.5" y2="30"/><line opacity="0.2" x1="321.330747525012" x2="321.330747525012" y1="0.5" y2="30"/><line opacity="0.2" x1="245.88468630325548" x2="245.88468630325548" y1="0.5" y2="30"/><line opacity="0.2" x1="436.8453140083135" x2="436.8453140083135" y1="0.5" y2="30"/><line opacity="0.2" x1="526.8722946827413" x2="526.8722946827413" y1="0.5" y2="30"/><line opacity="0.2" x1="329.8703353270012" x2="329.8703353270012" y1="0.5" y2="30"/><line opacity="0.2" x1="319.7639377496385" x2="319.7639377496385" y1="0.5" y2="30"/><line opacity="0.2" x1="150.13488830020557" x2="150.13488830020557" y1="0.5" y2="30"/><line opacity="0.2" x1="20" x2="20" y1="0.5" y2="30"/><line opacity="0.2" x1="233.57319999315635" x2="233.57319999315635" y1="0.5" y2="30"/><line opacity="0.2" x1="303.06733438568625" x2="303.06733438568625" y1="0.5" y2="30"/><line opacity="0.2" x1="292.2139972183402" x2="292.2139972183402" y1="0.5" y2="30"/><line opacity="0.2" x1="157.92984325916933" x2="157.92984325916933" y1="0.5" y2="30"/><line opacity="0.2" x1="354.27600764890326" x2="354.27600764890326" y1="0.5" y2="30"/><line opacity="0.2" x1="331.12465164363766" x2="331.12465164363766" y1="0.5" y2="30"/><line opacity="0.2" x1="374.08901751119714" x2="374.08901751119714" y1="0.5" y2="30"/><line opacity="0.2" x1="320.8258638444195" x2="320.8258638444195" y1="0.5" y2="30"/><line opacity="0.2" x1="248.54715158376376" x2="248.54715158376376" y1="0.5" y2="30"/><line opacity="0.2" x1="206.12251167532958" x2="206.12251167532958" y1="0.5" y2="30"/><line opacity="0.2" x1="257.0364773601881" x2="257.0364773601881" y1="0.5" y2="30"/><line opacity="0.2" x1="528.3532336098295" x2="528.3532336098295" y1="0.5" y2="30"/><line opacity="0.2" x1="191.98280441114184" x2="191.98280441114184" y1="0.5" y2="30"/><line opacity="0.2" x1="432.9062517215239" x2="432.9062517215239" y1="0.5" y2="30"/><line opacity="0.2" x1="190.78128939819442" x2="190.78128939819442" y1="0.5" y2="30"/><line opacity="0.2" x1="437.89687745929484" x2="437.89687745929484" y1="0.5" y2="30"/><line opacity="0.2" x1="145.05282629665783" x2="145.05282629665783" y1="0.5" y2="30"/><line opacity="0.2" x1="317.95322493623667" x2="317.95322493623667" y1="0.5" y2="30"/><line opacity="0.2" x1="264.1152393878638" x2="264.1152393878638" y1="0.5" y2="30"/><line opacity="0.2" x1="392.93966297857975" x2="392.93966297857975" y1="0.5" y2="30"/><line opacity="0.2" x1="559.4258172332931" x2="559.4258172332931" y1="0.5" y2="30"/><line opacity="0.2" x1="336.288649777888" x2="336.288649777888" y1="0.5" y2="30"/><line opacity="0.2" x1="315.4904090341836" x2="315.4904090341836" y1="0.5" y2="30"/><line opacity="0.2" x1="436.11431929698153" x2="436.11431929698153" y1="0.5" y2="30"/><line opacity="0.2" x1="232.39769356383283" x2="232.39769356383283" y1="0.5" y2="30"/><line opacity="0.2" x1="457.3211212253656" x2="457.3211212253656" y1="0.5" y2="30"/><line opacity="0.2" x1="586.1921349039661" x2="586.1921349039661" y1="0.5" y2="30"/><line opacity="0.2" x1="296.2936943407696" x2="296.2936943407696" y1="0.5" y2="30"/><line opacity="0.2" x1="251.3598809036437" x2="251.3598809036437" y1="0.5" y2="30"/><line opacity="0.2" x1="408.28667229336185" x2="408.28667229336185" y1="0.5" y2="30"/><line opacity="0.2" x1="214.67950817962648" x2="214.67950817962648" y1="0.5" y2="30"/><line opacity="0.2" x1="214.49146363480955" x2="214.49146363480955" y1="0.5" y2="30"/><line opacity="0.2" x1="303.1680480631395" x2="303.1680480631395" y1="0.5" y2="30"/><line opacity="0.2" x1="200.82334250462114" x2="200.82334250462114" y1="0.5" y2="30"/><line opacity="0.2" x1="210.33027216181875" x2="210.33027216181875" y1="0.5" y2="30"/><line opacity="0.2" x1="321.48607504362167" x2="321.48607504362167" y1="0.5" y2="30"/><line opacity="0.2" x1="535.501253063539" x2="535.501253063539" y1="0.5" y2="30"/><line opacity="0.2" x1="270.32846105713526" x2="270.32846105713526" y1="0.5" y2="30"/><line opacity="0.2" x1="378.5116670017044" x2="378.5116670017044" y1="0.5" y2="30"/><line opacity="0.2" x1="309.59411619121903" x2="309.59411619121903" y1="0.5" y2="30"/><line opacity="0.2" x1="306.8897051340482" x2="306.8897051340482" y1="0.5" y2="30"/><line opacity="0.2" x1="444.8807857597325" x2="444.8807857597325" y1="0.5" y2="30"/><line opacity="0.2" x1="195.63911582061132" x2="195.63911582061132" y1="0.5" y2="30"/><line opacity="0.2" x1="421.86223456209683" x2="421.86223456209683" y1="0.5" y2="30"/><line opacity="0.2" x1="314.9856731540543" x2="314.9856731540543" y1="0.5" y2="30"/><line opacity="0.2" x1="211.26098260120034" x2="211.26098260120034" y1="0.5" y2="30"/><line opacity="0.2" x1="369.2786337585817" x2="369.2786337585817" y1="0.5" y2="30"/><line opacity="0.2" x1="366.4183014826431" x2="366.4183014826431" y1="0.5" y2="30"/><line opacity="0.2" x1="273.3858191403249" x2="273.3858191403249" y1="0.5" y2="30"/><line opacity="0.2" x1="290.6412575880255" x2="290.6412575880255" y1="0.5" y2="30"/><line opacity="0.2" x1="495.6597869293617" x2="495.6597869293617" y1="0.5" y2="30"/><line opacity="0.2" x1="448.40297323875745" x2="448.40297323875745" y1="0.5" y2="30"/><line opacity="0.2" x1="329.0075187658051" x2="329.0075187658051" y1="0.5" y2="30"/><line opacity="0.2" x1="395.81265413590154" x2="395.81265413590154" y1="0.5" y2="30"/><line opacity="0.2" x1="369.370835706518" x2="369.370835706518" y1="0.5" y2="30"/><line opacity="0.2" x1="258.04910351156053" x2="258.04910351156053" y1="0.5" y2="30"/><line opacity="0.2" x1="142.5498935910337" x2="142.5498935910337" y1="0.5" y2="30"/><line opacity="0.2" x1="258.7177042964292" x2="258.7177042964292" y1="0.5" y2="30"/><line opacity="0.2" x1="341.233321793742" x2="341.233321793742" y1="0.5" y2="30"/><line opacity="0.2" x1="242.63982349499383" x2="242.63982349499383" y1="0.5" y2="30"/><line opacity="0.2" x1="119.00200604449988" x2="119.00200604449988" y1="0.5" y2="30"/><line opacity="0.2" x1="280.7389608139375" x2="280.7389608139375" y1="0.5" y2="30"/><line opacity="0.2" x1="304.79028497082" x2="304.79028497082" y1="0.5" y2="30"/><line opacity="0.2" x1="365.058135051135" x2="365.058135051135" y1="0.5" y2="30"/><line opacity="0.2" x1="352.6347886626592" x2="352.6347886626592" y1="0.5" y2="30"/><line opacity="0.2" x1="265.1891213954978" x2="265.1891213954978" y1="0.5" y2="30"/><line opacity="0.2" x1="348.6411712066836" x2="348.6411712066836" y1="0.5" y2="30"/><line opacity="0.2" x1="216.2489438772254" x2="216.2489438772254" y1="0.5" y2="30"/><line opacity="0.2" x1="163.5923367753934" x2="163.5923367753934" y1="0.5" y2="30"/><line opacity="0.2" x1="395.61580420333115" x2="395.61580420333115" y1="0.5" y2="30"/><line opacity="0.2" x1="347.5166014365159" x2="347.5166014365159" y1="0.5" y2="30"/><line opacity="0.2" x1="386.9125529155231" x2="386.9125529155231" y1="0.5" y2="30"/><line opacity="0.2" x1="272.318806706534" x2="272.318806706534" y1="0.5" y2="30"/><line opacity="0.2" x1="97.25851879282249" x2="97.25851879282249" y1="0.5" y2="30"/><line opacity="0.2" x1="400.54740162671123" x2="400.54740162671123" y1="0.5" y2="30"/><line opacity="0.2" x1="273.3193520606758" x2="273.3193520606758" y1="0.5" y2="30"/><line opacity="0.2" x1="222.98230527009227" x2="222.98230527009227" y1="0.5" y2="30"/><line opacity="0.2" x1="343.01763005951904" x2="343.01763005951904" y1="0.5" y2="30"/><line opacity="0.2" x1="329.2572019716431" x2="329.2572019716431" y1="0.5" y2="30"/><line opacity="0.2" x1="164.43436172371784" x2="164.43436172371784" y1="0.5" y2="30"/><line opacity="0.2" x1="239.57326492818257" x2="239.57326492818257" y1="0.5" y2="30"/><line opacity="0.2" x1="404.17913535434303" x2="404.17913535434303" y1="0.5" y2="30"/><line opacity="0.2" x1="344.71903571196907" x2="344.71903571196907" y1="0.5" y2="30"/><line opacity="0.2" x1="249.7854586912892" x2="249.7854586912892" y1="0.5" y2="30"/><line opacity="0.2" x1="305.8839386231579" x2="305.8839386231579" y1="0.5" y2="30"/><line opacity="0.2" x1="264.5131497520283" x2="264.5131497520283" y1="0.5" y2="30"/><line opacity="0.2" x1="169.90397427192573" x2="169.90397427192573" y1="0.5" y2="30"/><line opacity="0.2" x1="262.75685834477946" x2="262.75685834477946" y1="0.5" y2="30"/><line opacity="0.2" x1="385.6352839463847" x2="385.6352839463847" y1="0.5" y2="30"/><line opacity="0.2" x1="221.9291329014545" x2="221.9291329014545" y1="0.5" y2="30"/><line opacity="0.2" x1="351.76600843409074" x2="351.76600843409074" y1="0.5" y2="30"/><line opacity="0.2" x1="417.15307088153634" x2="417.15307088153634" y1="0.5" y2="30"/><line opacity="0.2" x1="528.8427921341446" x2="528.8427921341446" y1="0.5" y2="30"/><line opacity="0.2" x1="261.1286354818464" x2="261.1286354818464" y1="0.5" y2="30"/><line opacity="0.2" x1="333.1469249857363" x2="333.1469249857363" y1="0.5" y2="30"/><line opacity="0.2" x1="364.44494440994447" x2="364.44494440994447" y1="0.5" y2="30"/><line opacity="0.2" x1="242.06702042525862" x2="242.06702042525862" y1="0.5" y2="30"/><line opacity="0.2" x1="137.35646197505145" x2="137.35646197505145" y1="0.5" y2="30"/><line opacity="0.2" x1="233.43879170537244" x2="233.43879170537244" y1="0.5" y2="30"/><line opacity="0.2" x1="270.1585422598417" x2="270.1585422598417" y1="0.5" y2="30"/><line opacity="0.2" x1="311.0899818353839" x2="311.0899818353839" y1="0.5" y2="30"/><line opacity="0.2" x1="429.10661066364776" x2="429.10661066364776" y1="0.5" y2="30"/><line opacity="0.2" x1="256.47697832111055" x2="256.47697832111055" y1="0.5" y2="30"/><line opacity="0.2" x1="271.24018440651264" x2="271.24018440651264" y1="0.5" y2="30"/><line opacity="0.2" x1="320.67101801025393" x2="320.67101801025393" y1="0.5" y2="30"/><line opacity="0.2" x1="326.6399886796556" x2="326.6399886796556" y1="0.5" y2="30"/><line opacity="0.2" x1="292.9830360450086" x2="292.9830360450086" y1="0.5" y2="30"/><line opacity="0.2" x1="229.35251017149633" x2="229.35251017149633" y1="0.5" y2="30"/><line opacity="0.2" x1="277.1317946621045" x2="277.1317946621045" y1="0.5" y2="30"/><line opacity="0.2" x1="303.7034576180682" x2="303.7034576180682" y1="0.5" y2="30"/><line opacity="0.2" x1="375.79107826320103" x2="375.79107826320103" y1="0.5" y2="30"/><line opacity="0.2" x1="252.24063691717333" x2="252.24063691717333" y1="0.5" y2="30"/><line opacity="0.2" x1="262.06662064640994" x2="262.06662064640994" y1="0.5" y2="30"/><line opacity="0.2" x1="301.254203436342" x2="301.254203436342" y1="0.5" y2="30"/><line opacity="0.2" x1="323.9239192999123" x2="323.9239192999123" y1="0.5" y2="30"/><line opacity="0.2" x1="388.0752124172812" x2="388.0752124172812" y1="0.5" y2="30"/><line opacity="0.2" x1="408.88437325442175" x2="408.88437325442175" y1="0.5" y2="30"/><line opacity="0.2" x1="184.21943743910165" x2="184.21943743910165" y1="0.5" y2="30"/><line opacity="0.2" x1="386.0553788063261" x2="386.0553788063261" y1="0.5" y2="30"/><line opacity="0.2" x1="160.8579128264947" x2="160.8579128264947" y1="0.5" y2="30"/><line opacity="0.2" x1="388.7768373491193" x2="388.7768373491193" y1="0.5" y2="30"/><line opacity="0.2" x1="318.5939194281828" x2="318.5939194281828" y1="0.5" y2="30"/><line opacity="0.2" x1="259.2685051824733" x2="259.2685051824733" y1="0.5" y2="30"/><line opacity="0.2" x1="324.43342839580407" x2="324.43342839580407" y1="0.5" y2="30"/><line opacity="0.2" x1="420.7394926191699" x2="420.7394926191699" y1="0.5" y2="30"/><line opacity="0.2" x1="192.83968102647174" x2="192.83968102647174" y1="0.5" y2="30"/><line opacity="0.2" x1="398.74860167531176" x2="398.74860167531176" y1="0.5" y2="30"/><line opacity="0.2" x1="332.51840586472775" x2="332.51840586472775" y1="0.5" y2="30"/><line opacity="0.2" x1="152.6950648801606" x2="152.6950648801606" y1="0.5" y2="30"/><line opacity="0.2" x1="323.9737137655375" x2="323.9737137655375" y1="0.5" y2="30"/><line opacity="0.2" x1="240.14972159601706" x2="240.14972159601706" y1="0.5" y2="30"/><line opacity="0.2" x1="209.0343180253877" x2="209.0343180253877" y1="0.5" y2="30"/><line opacity="0.2" x1="324.07188901104166" x2="324.07188901104166" y1="0.5" y2="30"/><line opacity="0.2" x1="234.49387696176225" x2="234.49387696176225" y1="0.5" y2="30"/><line opacity="0.2" x1="209.82888927601016" x2="209.82888927601016" y1="0.5" y2="30"/><line opacity="0.2" x1="273.8359105025851" x2="273.8359105025851" y1="0.5" y2="30"/><line opacity="0.2" x1="281.6735274183102" x2="281.6735274183102" y1="0.5" y2="30"/><line opacity="0.2" x1="304.01777541283883" x2="304.01777541283883" y1="0.5" y2="30"/><line opacity="0.2" x1="484.1802306321674" x2="484.1802306321674" y1="0.5" y2="30"/><line opacity="0.2" x1="340.6482576118191" x2="340.6482576118191" y1="0.5" y2="30"/><line opacity="0.2" x1="457.17894793523794" x2="457.17894793523794" y1="0.5" y2="30"/><line opacity="0.2" x1="211.63357022873603" x2="211.63357022873603" y1="0.5" y2="30"/><line opacity="0.2" x1="140.68254794114915" x2="140.68254794114915" y1="0.5" y2="30"/><line opacity="0.2" x1="391.4338208498194" x2="391.4338208498194" y1="0.5" y2="30"/><line opacity="0.2" x1="238.97028139698497" x2="238.97028139698497" y1="0.5" y2="30"/><line opacity="0.2" x1="291.48009141998807" x2="291.48009141998807" y1="0.5" y2="30"/><line opacity="0.2" x1="234.98332553083944" x2="234.98332553083944" y1="0.5" y2="30"/><line opacity="0.2" x1="125.71054119615425" x2="125.71054119615425" y1="0.5" y2="30"/><line opacity="0.2" x1="288.4178479410779" x2="288.4178479410779" y1="0.5" y2="30"/><line opacity="0.2" x1="258.31226781762064" x2="258.31226781762064" y1="0.5" y2="30"/><line opacity="0.2" x1="305.41512012653976" x2="305.41512012653976" y1="0.5" y2="30"/><line opacity="0.2" x1="487.77241800010046" x2="487.77241800010046" y1="0.5" y2="30"/><line opacity="0.2" x1="355.12852606150125" x2="355.12852606150125" y1="0.5" y2="30"/><line opacity="0.2" x1="358.0358606767185" x2="358.0358606767185" y1="0.5" y2="30"/></g></svg>