<svg xmlns="http://www.w3.org/2000/svg" xmlns:xlink="http://www.w3.org/1999/xlink" class="plot-b93d378d4eaaf" fill="currentColor" font-family="system-ui, sans-serif" font-size="10" text-anchor="middle" width="640" height="400" viewBox="0 0 640 400" style="color: black;"><style>
        .plot-b93d378d4eaaf {
          display: block;
          background: white;
          height: auto;
          height: intrinsic;
          max-width: 100%;
        }
        .plot-b93d378d4eaaf text,
        .plot-b93d378d4eaaf tspan {
          white-space: pre;
        }
      </style><g aria-label="y-axis tick" fill="none" stroke="currentColor" transform="translate(0,0.5)"><path transform="translate(40,371.0775037575418)" d="M0,0L-6,0"/><path transform="translate(40,343.0319138337485)" d="M0,0L-6,0"/><path transform="translate(40,314.98632390995516)" d="M0,0L-6,0"/><path transform="translate(40,286.94073398616183)" d="M0,0L-6,0"/><path transform="translate(40,258.8951440623685)" d="M0,0L-6,0"/><path transform="translate(40,230.84955413857512)" d="M0,0L-6,0"/><path transform="translate(40,202.80396421478184)" d="M0,0L-6,0"/><path transform="translate(40,174.7583742909885)" d="M0,0L-6,0"/><path transform="translate(40,146.71278436719513)" d="M0,0L-6,0"/><path transform="translate(40,118.66719444340181)" d="M0,0L-6,0"/><path transform="translate(40,90.62160451960847)" d="M0,0L-6,0"/><path transform="translate(40,62.57601459581514)" d="M0,0L-6,0"/><path transform="translate(40,34.53042467202181)" d="M0,0L-6,0"/></g><g aria-label="y-axis tick label" text-anchor="end" font-variant="tabular-nums" transform="translate(-8.5,0.5)"><text y="0.32em" transform="translate(40,371.0775037575418)">−10</text><text y="0.32em" transform="translate(40,343.0319138337485)">−9</text><text y="0.32em" transform="translate(40,314.98632390995516)">−8</text><text y="0.32em" transform="translate(40,286.94073398616183)">−7</text><text y="0.32em" transform="translate(40,258.8951440623685)">−6</text><text y="0.32em" transform="translate(40,230.84955413857512)">−5</text><text y="0.32em" transform="translate(40,202.80396421478184)">−4</text><text y="0.32em" transform="translate(40,174.7583742909885)">−3</text><text y="0.32em" transform="translate(40,146.71278436719513)">−2</text><text y="0.32em" transform="translate(40,118.66719444340181)">−1</text><text y="0.32em" transform="translate(40,90.62160451960847)">0</text><text y="0.32em" transform="translate(40,62.57601459581514)">1</text><text y="0.32em" transform="translate(40,34.53042467202181)">2</text></g><g aria-label="rule" stroke="steelblue" transform="translate(0,0.5)"><line x1="40" x2="639" y1="90.62160451960847" y2="90.62160451960847"/></g><g aria-label="line" fill="none" stroke="currentColor" stroke-width="1.5" stroke-linejoin="round" stroke-linecap="round" transform="translate(0.5,0.5)"><path d="M40,117.848L46.051,117.169L52.101,102.655L58.152,113.361L64.202,147.664L70.253,198.094L76.303,205.982L82.354,192.495L88.404,213.853L94.455,202.965L100.505,201.033L106.556,186.552L112.606,163.6L118.657,164.832L124.707,151.604L130.758,169.376L136.808,190.665L142.859,165.825L148.909,133.997L154.96,150.012L161.01,126.568L167.061,135.51L173.111,119.869L179.162,104.006L185.212,94.943L191.263,97.385L197.313,86.204L203.364,92.342L209.414,133.866L215.465,123.296L221.515,122.302L227.566,132.633L233.616,116.783L239.667,158.992L245.717,96.861L251.768,124.364L257.818,154.557L263.869,178.83L269.919,165.11L275.97,142.466L282.02,133.065L288.071,120.061L294.121,140.643L300.172,151.764L306.222,129.348L312.273,126.255L318.323,79.528L324.374,91.044L330.424,50.323L336.475,35.027L342.525,33.533L348.576,94.472L354.626,85.126L360.677,44.974L366.727,34.644L372.778,60.334L378.828,69.048L384.879,62.498L390.929,60.41L396.98,62.408L403.03,42.799L409.081,43.207L415.131,62.025L421.182,65.02L427.232,53.127L433.283,56.083L439.333,54.637L445.384,32.336L451.434,20L457.485,30.156L463.535,72.313L469.586,40.661L475.636,77.446L481.687,77.684L487.737,110.147L493.788,153.71L499.838,140.698L505.889,121.858L511.939,119.694L517.99,91.676L524.04,124.231L530.091,154.336L536.141,177.846L542.192,152.916L548.242,160.492L554.293,165.852L560.343,167.786L566.394,220.104L572.444,222.216L578.495,233.728L584.545,218.089L590.596,222.25L596.646,218.67L602.697,279.227L608.747,299.091L614.798,324.374L620.848,356.979L626.899,336.442L632.949,363.592L639,380"/></g></svg>