<svg xmlns="http://www.w3.org/2000/svg" xmlns:xlink="http://www.w3.org/1999/xlink" class="plot-d6a7b5" fill="currentColor" font-family="system-ui, sans-serif" font-size="10" text-anchor="middle" width="640" height="60" viewBox="0 0 640 60" style="color: black; background-color: white;"><style>.plot-d6a7b5 {
  display: block;
  background: white;
  height: auto;
  height: intrinsic;
  max-width: 100%;
}
.plot-d6a7b5 text,
.plot-d6a7b5 tspan {
  white-space: pre;
}</style><g aria-label="x-axis tick" fill="none" stroke="currentColor"><path transform="translate(64.86088124252126,30)" d="M0,0L0,6"/><path transform="translate(147.71525402973577,30)" d="M0,0L0,6"/><path transform="translate(230.56962681695032,30)" d="M0,0L0,6"/><path transform="translate(313.42399960416486,30)" d="M0,0L0,6"/><path transform="translate(396.2783723913794,30)" d="M0,0L0,6"/><path transform="translate(479.1327451785939,30)" d="M0,0L0,6"/><path transform="translate(561.9871179658085,30)" d="M0,0L0,6"/></g><g aria-label="x-axis tick label" font-variant="tabular-nums" transform="translate(0,9)"><text y="0.71em" transform="translate(64.86088124252126,30)">−3</text><text y="0.71em" transform="translate(147.71525402973577,30)">−2</text><text y="0.71em" transform="translate(230.56962681695032,30)">−1</text><text y="0.71em" transform="translate(313.42399960416486,30)">0</text><text y="0.71em" transform="translate(396.2783723913794,30)">1</text><text y="0.71em" transform="translate(479.1327451785939,30)">2</text><text y="0.71em" transform="translate(561.9871179658085,30)">3</text></g><g aria-label="tick" stroke="steelblue"><line opacity="0.2" x1="543.2586481520113" x2="543.2586481520113" y1="0.5" y2="30"/><line opacity="0.2" x1="50.19572921063265" x2="50.19572921063265" y1="0.5" y2="30"/><line opacity="0.2" x1="291.1924675577684" x2="291.1924675577684" y1="0.5" y2="30"/><line opacity="0.2" x1="324.00024616675734" x2="324.00024616675734" y1="0.5" y2="30"/><line opacity="0.2" x1="274.88652119284416" x2="274.88652119284416" y1="0.5" y2="30"/><line opacity="0.2" x1="294.1116376045123" x2="294.1116376045123" y1="0.5" y2="30"/><line opacity="0.2" x1="198.3330841782627" x2="198.3330841782627" y1="0.5" y2="30"/><line opacity="0.2" x1="304.80082636100883" x2="304.80082636100883" y1="0.5" y2="30"/><line opacity="0.2" x1="333.0389544949528" x2="333.0389544949528" y1="0.5" y2="30"/><line opacity="0.2" x1="388.4507165784021" x2="388.4507165784021" y1="0.5" y2="30"/><line opacity="0.2" x1="409.5626399891984" x2="409.5626399891984" y1="0.5" y2="30"/><line opacity="0.2" x1="304.2380474067145" x2="304.2380474067145" y1="0.5" y2="30"/><line opacity="0.2" x1="416.50948905883706" x2="416.50948905883706" y1="0.5" y2="30"/><line opacity="0.2" x1="201.73480784422992" x2="201.73480784422992" y1="0.5" y2="30"/><line opacity="0.2" x1="350.1952550116377" x2="350.1952550116377" y1="0.5" y2="30"/><line opacity="0.2" x1="373.6334088651936" x2="373.6334088651936" y1="0.5" y2="30"/><line opacity="0.2" x1="291.3948356043333" x2="291.3948356043333" y1="0.5" y2="30"/><line opacity="0.2" x1="334.6954590575265" x2="334.6954590575265" y1="0.5" y2="30"/><line opacity="0.2" x1="241.3537818504612" x2="241.3537818504612" y1="0.5" y2="30"/><line opacity="0.2" x1="376.09729126659676" x2="376.09729126659676" y1="0.5" y2="30"/><line opacity="0.2" x1="234.168482688313" x2="234.168482688313" y1="0.5" y2="30"/><line opacity="0.2" x1="298.65640656999307" x2="298.65640656999307" y1="0.5" y2="30"/><line opacity="0.2" x1="287.46696658877426" x2="287.46696658877426" y1="0.5" y2="30"/><line opacity="0.2" x1="620" x2="620" y1="0.5" y2="30"/><line opacity="0.2" x1="389.07113175652097" x2="389.07113175652097" y1="0.5" y2="30"/><line opacity="0.2" x1="426.42322121225993" x2="426.42322121225993" y1="0.5" y2="30"/><line opacity="0.2" x1="289.1899897405566" x2="289.1899897405566" y1="0.5" y2="30"/><line opacity="0.2" x1="286.508382276781" x2="286.508382276781" y1="0.5" y2="30"/><line opacity="0.2" x1="323.22368726486263" x2="323.22368726486263" y1="0.5" y2="30"/><line opacity="0.2" x1="133.9095772739008" x2="133.9095772739008" y1="0.5" y2="30"/><line opacity="0.2" x1="311.07198720710653" x2="311.07198720710653" y1="0.5" y2="30"/><line opacity="0.2" x1="307.66230229229984" x2="307.66230229229984" y1="0.5" y2="30"/><line opacity="0.2" x1="363.88497304066095" x2="363.88497304066095" y1="0.5" y2="30"/><line opacity="0.2" x1="476.5264902633625" x2="476.5264902633625" y1="0.5" y2="30"/><line opacity="0.2" x1="292.1478141650979" x2="292.1478141650979" y1="0.5" y2="30"/><line opacity="0.2" x1="312.1546693800717" x2="312.1546693800717" y1="0.5" y2="30"/><line opacity="0.2" x1="332.1060142297697" x2="332.1060142297697" y1="0.5" y2="30"/><line opacity="0.2" x1="304.6650547759568" x2="304.6650547759568" y1="0.5" y2="30"/><line opacity="0.2" x1="332.45223769375997" x2="332.45223769375997" y1="0.5" y2="30"/><line opacity="0.2" x1="276.499847094456" x2="276.499847094456" y1="0.5" y2="30"/><line opacity="0.2" x1="340.31907537550796" x2="340.31907537550796" y1="0.5" y2="30"/><line opacity="0.2" x1="277.8117063621748" x2="277.8117063621748" y1="0.5" y2="30"/><line opacity="0.2" x1="237.96376270328958" x2="237.96376270328958" y1="0.5" y2="30"/><line opacity="0.2" x1="314.2639347639146" x2="314.2639347639146" y1="0.5" y2="30"/><line opacity="0.2" x1="300.30968608889975" x2="300.30968608889975" y1="0.5" y2="30"/><line opacity="0.2" x1="250.1756467520161" x2="250.1756467520161" y1="0.5" y2="30"/><line opacity="0.2" x1="435.98844534140676" x2="435.98844534140676" y1="0.5" y2="30"/><line opacity="0.2" x1="243.8613089213273" x2="243.8613089213273" y1="0.5" y2="30"/><line opacity="0.2" x1="186.16422998419182" x2="186.16422998419182" y1="0.5" y2="30"/><line opacity="0.2" x1="264.0042223454505" x2="264.0042223454505" y1="0.5" y2="30"/><line opacity="0.2" x1="420.62646587230716" x2="420.62646587230716" y1="0.5" y2="30"/><line opacity="0.2" x1="354.037724910736" x2="354.037724910736" y1="0.5" y2="30"/><line opacity="0.2" x1="302.28040053056736" x2="302.28040053056736" y1="0.5" y2="30"/><line opacity="0.2" x1="384.93865190268457" x2="384.93865190268457" y1="0.5" y2="30"/><line opacity="0.2" x1="283.4454944716124" x2="283.4454944716124" y1="0.5" y2="30"/><line opacity="0.2" x1="440.0465964122427" x2="440.0465964122427" y1="0.5" y2="30"/><line opacity="0.2" x1="346.77383858053594" x2="346.77383858053594" y1="0.5" y2="30"/><line opacity="0.2" x1="166.06437719154312" x2="166.06437719154312" y1="0.5" y2="30"/><line opacity="0.2" x1="402.4729963793963" x2="402.4729963793963" y1="0.5" y2="30"/><line opacity="0.2" x1="298.83135410746536" x2="298.83135410746536" y1="0.5" y2="30"/><line opacity="0.2" x1="380.4276402286675" x2="380.4276402286675" y1="0.5" y2="30"/><line opacity="0.2" x1="316.5991334251347" x2="316.5991334251347" y1="0.5" y2="30"/><line opacity="0.2" x1="356.999405680756" x2="356.999405680756" y1="0.5" y2="30"/><line opacity="0.2" x1="247.22907931999805" x2="247.22907931999805" y1="0.5" y2="30"/><line opacity="0.2" x1="356.70666902474284" x2="356.70666902474284" y1="0.5" y2="30"/><line opacity="0.2" x1="73.34012266963478" x2="73.34012266963478" y1="0.5" y2="30"/><line opacity="0.2" x1="351.5640973523143" x2="351.5640973523143" y1="0.5" y2="30"/><line opacity="0.2" x1="349.0343082096182" x2="349.0343082096182" y1="0.5" y2="30"/><line opacity="0.2" x1="246.12893016441723" x2="246.12893016441723" y1="0.5" y2="30"/><line opacity="0.2" x1="217.57643942327314" x2="217.57643942327314" y1="0.5" y2="30"/><line opacity="0.2" x1="287.73413739797337" x2="287.73413739797337" y1="0.5" y2="30"/><line opacity="0.2" x1="239.72748233030248" x2="239.72748233030248" y1="0.5" y2="30"/><line opacity="0.2" x1="275.69128212977597" x2="275.69128212977597" y1="0.5" y2="30"/><line opacity="0.2" x1="307.6260508720638" x2="307.6260508720638" y1="0.5" y2="30"/><line opacity="0.2" x1="240.03953011770835" x2="240.03953011770835" y1="0.5" y2="30"/><line opacity="0.2" x1="295.96621570650905" x2="295.96621570650905" y1="0.5" y2="30"/><line opacity="0.2" x1="496.09843451070833" x2="496.09843451070833" y1="0.5" y2="30"/><line opacity="0.2" x1="274.41322010301906" x2="274.41322010301906" y1="0.5" y2="30"/><line opacity="0.2" x1="242.73653746458592" x2="242.73653746458592" y1="0.5" y2="30"/><line opacity="0.2" x1="387.5985313230591" x2="387.5985313230591" y1="0.5" y2="30"/><line opacity="0.2" x1="310.52926074111326" x2="310.52926074111326" y1="0.5" y2="30"/><line opacity="0.2" x1="328.8477216407603" x2="328.8477216407603" y1="0.5" y2="30"/><line opacity="0.2" x1="288.03639955456663" x2="288.03639955456663" y1="0.5" y2="30"/><line opacity="0.2" x1="504.78838663325456" x2="504.78838663325456" y1="0.5" y2="30"/><line opacity="0.2" x1="389.8771665905263" x2="389.8771665905263" y1="0.5" y2="30"/><line opacity="0.2" x1="404.5965050639972" x2="404.5965050639972" y1="0.5" y2="30"/><line opacity="0.2" x1="361.54369639592454" x2="361.54369639592454" y1="0.5" y2="30"/><line opacity="0.2" x1="443.9041082154955" x2="443.9041082154955" y1="0.5" y2="30"/><line opacity="0.2" x1="356.4765891889949" x2="356.4765891889949" y1="0.5" y2="30"/><line opacity="0.2" x1="220.83679656144875" x2="220.83679656144875" y1="0.5" y2="30"/><line opacity="0.2" x1="321.7040985556807" x2="321.7040985556807" y1="0.5" y2="30"/><line opacity="0.2" x1="450.162621448248" x2="450.162621448248" y1="0.5" y2="30"/><line opacity="0.2" x1="353.7749887545521" x2="353.7749887545521" y1="0.5" y2="30"/><line opacity="0.2" x1="496.95030538212154" x2="496.95030538212154" y1="0.5" y2="30"/><line opacity="0.2" x1="420.64098418804195" x2="420.64098418804195" y1="0.5" y2="30"/><line opacity="0.2" x1="348.14066865383677" x2="348.14066865383677" y1="0.5" y2="30"/><line opacity="0.2" x1="373.7169500827786" x2="373.7169500827786" y1="0.5" y2="30"/><line opacity="0.2" x1="159.46881832557406" x2="159.46881832557406" y1="0.5" y2="30"/><line opacity="0.2" x1="373.5271167173579" x2="373.5271167173579" y1="0.5" y2="30"/><line opacity="0.2" x1="189.75773140729234" x2="189.75773140729234" y1="0.5" y2="30"/><line opacity="0.2" x1="359.43630842734274" x2="359.43630842734274" y1="0.5" y2="30"/><line opacity="0.2" x1="392.61203536517996" x2="392.61203536517996" y1="0.5" y2="30"/><line opacity="0.2" x1="527.7124917694796" x2="527.7124917694796" y1="0.5" y2="30"/><line opacity="0.2" x1="280.3808536453673" x2="280.3808536453673" y1="0.5" y2="30"/><line opacity="0.2" x1="433.3557722625984" x2="433.3557722625984" y1="0.5" y2="30"/><line opacity="0.2" x1="238.71231619880496" x2="238.71231619880496" y1="0.5" y2="30"/><line opacity="0.2" x1="396.10151090603233" x2="396.10151090603233" y1="0.5" y2="30"/><line opacity="0.2" x1="372.99596688524724" x2="372.99596688524724" y1="0.5" y2="30"/><line opacity="0.2" x1="379.97988232587005" x2="379.97988232587005" y1="0.5" y2="30"/><line opacity="0.2" x1="367.8642625837426" x2="367.8642625837426" y1="0.5" y2="30"/><line opacity="0.2" x1="372.5000145623451" x2="372.5000145623451" y1="0.5" y2="30"/><line opacity="0.2" x1="290.2311023409173" x2="290.2311023409173" y1="0.5" y2="30"/><line opacity="0.2" x1="277.81502211028715" x2="277.81502211028715" y1="0.5" y2="30"/><line opacity="0.2" x1="422.6739445997316" x2="422.6739445997316" y1="0.5" y2="30"/><line opacity="0.2" x1="599.2827216932279" x2="599.2827216932279" y1="0.5" y2="30"/><line opacity="0.2" x1="212.68069975817048" x2="212.68069975817048" y1="0.5" y2="30"/><line opacity="0.2" x1="319.4590793640755" x2="319.4590793640755" y1="0.5" y2="30"/><line opacity="0.2" x1="319.23322608851345" x2="319.23322608851345" y1="0.5" y2="30"/><line opacity="0.2" x1="170.76074853884117" x2="170.76074853884117" y1="0.5" y2="30"/><line opacity="0.2" x1="372.6649052025663" x2="372.6649052025663" y1="0.5" y2="30"/><line opacity="0.2" x1="279.1892936770825" x2="279.1892936770825" y1="0.5" y2="30"/><line opacity="0.2" x1="367.5863660948778" x2="367.5863660948778" y1="0.5" y2="30"/><line opacity="0.2" x1="439.1214896685136" x2="439.1214896685136" y1="0.5" y2="30"/><line opacity="0.2" x1="361.15132197555283" x2="361.15132197555283" y1="0.5" y2="30"/><line opacity="0.2" x1="382.4898847463135" x2="382.4898847463135" y1="0.5" y2="30"/><line opacity="0.2" x1="425.869089355791" x2="425.869089355791" y1="0.5" y2="30"/><line opacity="0.2" x1="438.4916755656631" x2="438.4916755656631" y1="0.5" y2="30"/><line opacity="0.2" x1="228.3736360997938" x2="228.3736360997938" y1="0.5" y2="30"/><line opacity="0.2" x1="408.2371430297557" x2="408.2371430297557" y1="0.5" y2="30"/><line opacity="0.2" x1="388.41279685611715" x2="388.41279685611715" y1="0.5" y2="30"/><line opacity="0.2" x1="372.9007690245022" x2="372.9007690245022" y1="0.5" y2="30"/><line opacity="0.2" x1="297.28955794614143" x2="297.28955794614143" y1="0.5" y2="30"/><line opacity="0.2" x1="315.26870689986106" x2="315.26870689986106" y1="0.5" y2="30"/><line opacity="0.2" x1="225.32614637939966" x2="225.32614637939966" y1="0.5" y2="30"/><line opacity="0.2" x1="261.31579864543477" x2="261.31579864543477" y1="0.5" y2="30"/><line opacity="0.2" x1="207.8931873025458" x2="207.8931873025458" y1="0.5" y2="30"/><line opacity="0.2" x1="332.1490383632309" x2="332.1490383632309" y1="0.5" y2="30"/><line opacity="0.2" x1="321.5794940905082" x2="321.5794940905082" y1="0.5" y2="30"/><line opacity="0.2" x1="313.70629632833186" x2="313.70629632833186" y1="0.5" y2="30"/><line opacity="0.2" x1="305.10050570149383" x2="305.10050570149383" y1="0.5" y2="30"/><line opacity="0.2" x1="382.0500956321522" x2="382.0500956321522" y1="0.5" y2="30"/><line opacity="0.2" x1="342.30206531280686" x2="342.30206531280686" y1="0.5" y2="30"/><line opacity="0.2" x1="235.01817319810436" x2="235.01817319810436" y1="0.5" y2="30"/><line opacity="0.2" x1="430.8711161143889" x2="430.8711161143889" y1="0.5" y2="30"/><line opacity="0.2" x1="374.3636510138301" x2="374.3636510138301" y1="0.5" y2="30"/><line opacity="0.2" x1="412.06053205529963" x2="412.06053205529963" y1="0.5" y2="30"/><line opacity="0.2" x1="326.036374446889" x2="326.036374446889" y1="0.5" y2="30"/><line opacity="0.2" x1="279.66967985268235" x2="279.66967985268235" y1="0.5" y2="30"/><line opacity="0.2" x1="200.19429493744525" x2="200.19429493744525" y1="0.5" y2="30"/><line opacity="0.2" x1="330.6712507608132" x2="330.6712507608132" y1="0.5" y2="30"/><line opacity="0.2" x1="384.34619349629827" x2="384.34619349629827" y1="0.5" y2="30"/><line opacity="0.2" x1="301.7317941162883" x2="301.7317941162883" y1="0.5" y2="30"/><line opacity="0.2" x1="339.7684979238367" x2="339.7684979238367" y1="0.5" y2="30"/><line opacity="0.2" x1="397.9579947072653" x2="397.9579947072653" y1="0.5" y2="30"/><line opacity="0.2" x1="297.0220033890466" x2="297.0220033890466" y1="0.5" y2="30"/><line opacity="0.2" x1="350.1147644798634" x2="350.1147644798634" y1="0.5" y2="30"/><line opacity="0.2" x1="349.0158737111034" x2="349.0158737111034" y1="0.5" y2="30"/><line opacity="0.2" x1="488.16236709366694" x2="488.16236709366694" y1="0.5" y2="30"/><line opacity="0.2" x1="285.46960772715073" x2="285.46960772715073" y1="0.5" y2="30"/><line opacity="0.2" x1="257.8075233094058" x2="257.8075233094058" y1="0.5" y2="30"/><line opacity="0.2" x1="406.5520383548468" x2="406.5520383548468" y1="0.5" y2="30"/><line opacity="0.2" x1="255.26667357395252" x2="255.26667357395252" y1="0.5" y2="30"/><line opacity="0.2" x1="464.89007123299575" x2="464.89007123299575" y1="0.5" y2="30"/><line opacity="0.2" x1="269.4555392182995" x2="269.4555392182995" y1="0.5" y2="30"/><line opacity="0.2" x1="389.8543723298042" x2="389.8543723298042" y1="0.5" y2="30"/><line opacity="0.2" x1="349.4016106983658" x2="349.4016106983658" y1="0.5" y2="30"/><line opacity="0.2" x1="431.89137769675244" x2="431.89137769675244" y1="0.5" y2="30"/><line opacity="0.2" x1="383.98529452199193" x2="383.98529452199193" y1="0.5" y2="30"/><line opacity="0.2" x1="212.82819025673103" x2="212.82819025673103" y1="0.5" y2="30"/><line opacity="0.2" x1="295.7460345700648" x2="295.7460345700648" y1="0.5" y2="30"/><line opacity="0.2" x1="358.17053850495154" x2="358.17053850495154" y1="0.5" y2="30"/><line opacity="0.2" x1="177.75868264845326" x2="177.75868264845326" y1="0.5" y2="30"/><line opacity="0.2" x1="324.7734257479354" x2="324.7734257479354" y1="0.5" y2="30"/><line opacity="0.2" x1="159.66187676986434" x2="159.66187676986434" y1="0.5" y2="30"/><line opacity="0.2" x1="247.01056401700382" x2="247.01056401700382" y1="0.5" y2="30"/><line opacity="0.2" x1="305.3825254424024" x2="305.3825254424024" y1="0.5" y2="30"/><line opacity="0.2" x1="310.60159905135947" x2="310.60159905135947" y1="0.5" y2="30"/><line opacity="0.2" x1="326.6970628703906" x2="326.6970628703906" y1="0.5" y2="30"/><line opacity="0.2" x1="261.21494733173375" x2="261.21494733173375" y1="0.5" y2="30"/><line opacity="0.2" x1="245.87376492201855" x2="245.87376492201855" y1="0.5" y2="30"/><line opacity="0.2" x1="298.65888199375075" x2="298.65888199375075" y1="0.5" y2="30"/><line opacity="0.2" x1="130.5996015297934" x2="130.5996015297934" y1="0.5" y2="30"/><line opacity="0.2" x1="242.07986986676553" x2="242.07986986676553" y1="0.5" y2="30"/><line opacity="0.2" x1="225.66513034455645" x2="225.66513034455645" y1="0.5" y2="30"/><line opacity="0.2" x1="296.64928165262245" x2="296.64928165262245" y1="0.5" y2="30"/><line opacity="0.2" x1="381.7402689748628" x2="381.7402689748628" y1="0.5" y2="30"/><line opacity="0.2" x1="310.51460932191833" x2="310.51460932191833" y1="0.5" y2="30"/><line opacity="0.2" x1="404.6839397995401" x2="404.6839397995401" y1="0.5" y2="30"/><line opacity="0.2" x1="307.7705298644434" x2="307.7705298644434" y1="0.5" y2="30"/><line opacity="0.2" x1="313.83533634510115" x2="313.83533634510115" y1="0.5" y2="30"/><line opacity="0.2" x1="305.6592575653162" x2="305.6592575653162" y1="0.5" y2="30"/><line opacity="0.2" x1="379.95470463039703" x2="379.95470463039703" y1="0.5" y2="30"/><line opacity="0.2" x1="251.76857463379014" x2="251.76857463379014" y1="0.5" y2="30"/><line opacity="0.2" x1="428.6047736978113" x2="428.6047736978113" y1="0.5" y2="30"/><line opacity="0.2" x1="344.98004961505785" x2="344.98004961505785" y1="0.5" y2="30"/><line opacity="0.2" x1="348.9820631112291" x2="348.9820631112291" y1="0.5" y2="30"/><line opacity="0.2" x1="398.4514519849933" x2="398.4514519849933" y1="0.5" y2="30"/><line opacity="0.2" x1="396.5349447810008" x2="396.5349447810008" y1="0.5" y2="30"/><line opacity="0.2" x1="422.9526733360828" x2="422.9526733360828" y1="0.5" y2="30"/><line opacity="0.2" x1="232.1300540222644" x2="232.1300540222644" y1="0.5" y2="30"/><line opacity="0.2" x1="259.3210330744605" x2="259.3210330744605" y1="0.5" y2="30"/><line opacity="0.2" x1="138.38665359231604" x2="138.38665359231604" y1="0.5" y2="30"/><line opacity="0.2" x1="311.6017224138406" x2="311.6017224138406" y1="0.5" y2="30"/><line opacity="0.2" x1="238.7480591154748" x2="238.7480591154748" y1="0.5" y2="30"/><line opacity="0.2" x1="216.17326721195764" x2="216.17326721195764" y1="0.5" y2="30"/><line opacity="0.2" x1="375.894318575652" x2="375.894318575652" y1="0.5" y2="30"/><line opacity="0.2" x1="215.1799579389286" x2="215.1799579389286" y1="0.5" y2="30"/><line opacity="0.2" x1="258.9832436023063" x2="258.9832436023063" y1="0.5" y2="30"/><line opacity="0.2" x1="245.66609900398532" x2="245.66609900398532" y1="0.5" y2="30"/><line opacity="0.2" x1="384.8866982948434" x2="384.8866982948434" y1="0.5" y2="30"/><line opacity="0.2" x1="158.08006228230295" x2="158.08006228230295" y1="0.5" y2="30"/><line opacity="0.2" x1="348.47338633236427" x2="348.47338633236427" y1="0.5" y2="30"/><line opacity="0.2" x1="322.4343924980606" x2="322.4343924980606" y1="0.5" y2="30"/><line opacity="0.2" x1="450.5599717956408" x2="450.5599717956408" y1="0.5" y2="30"/><line opacity="0.2" x1="423.9438639027724" x2="423.9438639027724" y1="0.5" y2="30"/><line opacity="0.2" x1="380.2124575759284" x2="380.2124575759284" y1="0.5" y2="30"/><line opacity="0.2" x1="306.0106356726546" x2="306.0106356726546" y1="0.5" y2="30"/><line opacity="0.2" x1="418.3099447131533" x2="418.3099447131533" y1="0.5" y2="30"/><line opacity="0.2" x1="206.49610025190609" x2="206.49610025190609" y1="0.5" y2="30"/><line opacity="0.2" x1="338.55759632329807" x2="338.55759632329807" y1="0.5" y2="30"/><line opacity="0.2" x1="340.12002777645876" x2="340.12002777645876" y1="0.5" y2="30"/><line opacity="0.2" x1="290.79474567691096" x2="290.79474567691096" y1="0.5" y2="30"/><line opacity="0.2" x1="267.3052464652212" x2="267.3052464652212" y1="0.5" y2="30"/><line opacity="0.2" x1="254.04675881162598" x2="254.04675881162598" y1="0.5" y2="30"/><line opacity="0.2" x1="329.2357486751405" x2="329.2357486751405" y1="0.5" y2="30"/><line opacity="0.2" x1="302.80714722595627" x2="302.80714722595627" y1="0.5" y2="30"/><line opacity="0.2" x1="268.1029299414821" x2="268.1029299414821" y1="0.5" y2="30"/><line opacity="0.2" x1="412.01169291294605" x2="412.01169291294605" y1="0.5" y2="30"/><line opacity="0.2" x1="360.48941905064464" x2="360.48941905064464" y1="0.5" y2="30"/><line opacity="0.2" x1="277.85933433186057" x2="277.85933433186057" y1="0.5" y2="30"/><line opacity="0.2" x1="178.92521300657722" x2="178.92521300657722" y1="0.5" y2="30"/><line opacity="0.2" x1="361.6296763564802" x2="361.6296763564802" y1="0.5" y2="30"/><line opacity="0.2" x1="264.8137457002597" x2="264.8137457002597" y1="0.5" y2="30"/><line opacity="0.2" x1="268.86418675116164" x2="268.86418675116164" y1="0.5" y2="30"/><line opacity="0.2" x1="401.7696245869539" x2="401.7696245869539" y1="0.5" y2="30"/><line opacity="0.2" x1="356.14248152846426" x2="356.14248152846426" y1="0.5" y2="30"/><line opacity="0.2" x1="308.94726393131765" x2="308.94726393131765" y1="0.5" y2="30"/><line opacity="0.2" x1="374.14731135555695" x2="374.14731135555695" y1="0.5" y2="30"/><line opacity="0.2" x1="230.5205565497335" x2="230.5205565497335" y1="0.5" y2="30"/><line opacity="0.2" x1="246.60641592592302" x2="246.60641592592302" y1="0.5" y2="30"/><line opacity="0.2" x1="355.68904525211394" x2="355.68904525211394" y1="0.5" y2="30"/><line opacity="0.2" x1="212.5652802653883" x2="212.5652802653883" y1="0.5" y2="30"/><line opacity="0.2" x1="218.4362675771803" x2="218.4362675771803" y1="0.5" y2="30"/><line opacity="0.2" x1="426.6983053833178" x2="426.6983053833178" y1="0.5" y2="30"/><line opacity="0.2" x1="418.3656565393719" x2="418.3656565393719" y1="0.5" y2="30"/><line opacity="0.2" x1="299.77091913449874" x2="299.77091913449874" y1="0.5" y2="30"/><line opacity="0.2" x1="389.3889413892757" x2="389.3889413892757" y1="0.5" y2="30"/><line opacity="0.2" x1="192.5099480021091" x2="192.5099480021091" y1="0.5" y2="30"/><line opacity="0.2" x1="305.54225051485656" x2="305.54225051485656" y1="0.5" y2="30"/><line opacity="0.2" x1="426.03413246400197" x2="426.03413246400197" y1="0.5" y2="30"/><line opacity="0.2" x1="277.1259736718165" x2="277.1259736718165" y1="0.5" y2="30"/><line opacity="0.2" x1="235.86757954143098" x2="235.86757954143098" y1="0.5" y2="30"/><line opacity="0.2" x1="276.78307442341674" x2="276.78307442341674" y1="0.5" y2="30"/><line opacity="0.2" x1="492.097441853215" x2="492.097441853215" y1="0.5" y2="30"/><line opacity="0.2" x1="205.16867909746946" x2="205.16867909746946" y1="0.5" y2="30"/><line opacity="0.2" x1="388.5204273933645" x2="388.5204273933645" y1="0.5" y2="30"/><line opacity="0.2" x1="430.33760795774896" x2="430.33760795774896" y1="0.5" y2="30"/><line opacity="0.2" x1="423.08459573493997" x2="423.08459573493997" y1="0.5" y2="30"/><line opacity="0.2" x1="297.0546353062236" x2="297.0546353062236" y1="0.5" y2="30"/><line opacity="0.2" x1="296.0306568405382" x2="296.0306568405382" y1="0.5" y2="30"/><line opacity="0.2" x1="184.11036764712682" x2="184.11036764712682" y1="0.5" y2="30"/><line opacity="0.2" x1="325.0284049078062" x2="325.0284049078062" y1="0.5" y2="30"/><line opacity="0.2" x1="213.1678871308039" x2="213.1678871308039" y1="0.5" y2="30"/><line opacity="0.2" x1="324.024494622043" x2="324.024494622043" y1="0.5" y2="30"/><line opacity="0.2" x1="386.68398607844426" x2="386.68398607844426" y1="0.5" y2="30"/><line opacity="0.2" x1="434.55458908197687" x2="434.55458908197687" y1="0.5" y2="30"/><line opacity="0.2" x1="431.2193538915673" x2="431.2193538915673" y1="0.5" y2="30"/><line opacity="0.2" x1="328.0952016213095" x2="328.0952016213095" y1="0.5" y2="30"/><line opacity="0.2" x1="329.6406268179288" x2="329.6406268179288" y1="0.5" y2="30"/><line opacity="0.2" x1="332.9415542449862" x2="332.9415542449862" y1="0.5" y2="30"/><line opacity="0.2" x1="367.05736284654824" x2="367.05736284654824" y1="0.5" y2="30"/><line opacity="0.2" x1="223.35098990642717" x2="223.35098990642717" y1="0.5" y2="30"/><line opacity="0.2" x1="228.7361554283268" x2="228.7361554283268" y1="0.5" y2="30"/><line opacity="0.2" x1="249.99964428236893" x2="249.99964428236893" y1="0.5" y2="30"/><line opacity="0.2" x1="336.0265535546715" x2="336.0265535546715" y1="0.5" y2="30"/><line opacity="0.2" x1="309.6536159703016" x2="309.6536159703016" y1="0.5" y2="30"/><line opacity="0.2" x1="241.91161454088808" x2="241.91161454088808" y1="0.5" y2="30"/><line opacity="0.2" x1="199.13716508622815" x2="199.13716508622815" y1="0.5" y2="30"/><line opacity="0.2" x1="458.09652347644163" x2="458.09652347644163" y1="0.5" y2="30"/><line opacity="0.2" x1="438.02299117095527" x2="438.02299117095527" y1="0.5" y2="30"/><line opacity="0.2" x1="427.38310221270615" x2="427.38310221270615" y1="0.5" y2="30"/><line opacity="0.2" x1="297.60251397341335" x2="297.60251397341335" y1="0.5" y2="30"/><line opacity="0.2" x1="295.25690119525007" x2="295.25690119525007" y1="0.5" y2="30"/><line opacity="0.2" x1="310.1818704360504" x2="310.1818704360504" y1="0.5" y2="30"/><line opacity="0.2" x1="329.28206482150307" x2="329.28206482150307" y1="0.5" y2="30"/><line opacity="0.2" x1="290.058796315201" x2="290.058796315201" y1="0.5" y2="30"/><line opacity="0.2" x1="454.61441004480116" x2="454.61441004480116" y1="0.5" y2="30"/><line opacity="0.2" x1="269.79616817464563" x2="269.79616817464563" y1="0.5" y2="30"/><line opacity="0.2" x1="380.53742339595715" x2="380.53742339595715" y1="0.5" y2="30"/><line opacity="0.2" x1="328.70532638022786" x2="328.70532638022786" y1="0.5" y2="30"/><line opacity="0.2" x1="283.31373644758577" x2="283.31373644758577" y1="0.5" y2="30"/><line opacity="0.2" x1="204.80508042162563" x2="204.80508042162563" y1="0.5" y2="30"/><line opacity="0.2" x1="431.21016996971275" x2="431.21016996971275" y1="0.5" y2="30"/><line opacity="0.2" x1="432.95185869819306" x2="432.95185869819306" y1="0.5" y2="30"/><line opacity="0.2" x1="290.64720041976204" x2="290.64720041976204" y1="0.5" y2="30"/><line opacity="0.2" x1="265.7234994793996" x2="265.7234994793996" y1="0.5" y2="30"/><line opacity="0.2" x1="272.21508527304013" x2="272.21508527304013" y1="0.5" y2="30"/><line opacity="0.2" x1="341.47003382942114" x2="341.47003382942114" y1="0.5" y2="30"/><line opacity="0.2" x1="151.49605944581862" x2="151.49605944581862" y1="0.5" y2="30"/><line opacity="0.2" x1="273.6714946652317" x2="273.6714946652317" y1="0.5" y2="30"/><line opacity="0.2" x1="391.19603346592396" x2="391.19603346592396" y1="0.5" y2="30"/><line opacity="0.2" x1="174.8473780294164" x2="174.8473780294164" y1="0.5" y2="30"/><line opacity="0.2" x1="354.72353685200324" x2="354.72353685200324" y1="0.5" y2="30"/><line opacity="0.2" x1="207.53669930257823" x2="207.53669930257823" y1="0.5" y2="30"/><line opacity="0.2" x1="420.25079543120705" x2="420.25079543120705" y1="0.5" y2="30"/><line opacity="0.2" x1="374.26451118708076" x2="374.26451118708076" y1="0.5" y2="30"/><line opacity="0.2" x1="170.76521239117585" x2="170.76521239117585" y1="0.5" y2="30"/><line opacity="0.2" x1="180.40516744605026" x2="180.40516744605026" y1="0.5" y2="30"/><line opacity="0.2" x1="247.0597567806421" x2="247.0597567806421" y1="0.5" y2="30"/><line opacity="0.2" x1="269.96809988737726" x2="269.96809988737726" y1="0.5" y2="30"/><line opacity="0.2" x1="373.41098762953027" x2="373.41098762953027" y1="0.5" y2="30"/><line opacity="0.2" x1="404.9728774749433" x2="404.9728774749433" y1="0.5" y2="30"/><line opacity="0.2" x1="285.2624539752007" x2="285.2624539752007" y1="0.5" y2="30"/><line opacity="0.2" x1="288.8146620584497" x2="288.8146620584497" y1="0.5" y2="30"/><line opacity="0.2" x1="249.14470599729037" x2="249.14470599729037" y1="0.5" y2="30"/><line opacity="0.2" x1="337.0824394218206" x2="337.0824394218206" y1="0.5" y2="30"/><line opacity="0.2" x1="393.49542361285756" x2="393.49542361285756" y1="0.5" y2="30"/><line opacity="0.2" x1="321.52392005310185" x2="321.52392005310185" y1="0.5" y2="30"/><line opacity="0.2" x1="267.20692841493667" x2="267.20692841493667" y1="0.5" y2="30"/><line opacity="0.2" x1="329.71650589737044" x2="329.71650589737044" y1="0.5" y2="30"/><line opacity="0.2" x1="393.1674106086564" x2="393.1674106086564" y1="0.5" y2="30"/><line opacity="0.2" x1="214.10266597962965" x2="214.10266597962965" y1="0.5" y2="30"/><line opacity="0.2" x1="277.3836327732687" x2="277.3836327732687" y1="0.5" y2="30"/><line opacity="0.2" x1="371.79790367619177" x2="371.79790367619177" y1="0.5" y2="30"/><line opacity="0.2" x1="283.53047106463515" x2="283.53047106463515" y1="0.5" y2="30"/><line opacity="0.2" x1="240.40824745225555" x2="240.40824745225555" y1="0.5" y2="30"/><line opacity="0.2" x1="502.2648999209907" x2="502.2648999209907" y1="0.5" y2="30"/><line opacity="0.2" x1="349.5574890588839" x2="349.5574890588839" y1="0.5" y2="30"/><line opacity="0.2" x1="145.6861636650212" x2="145.6861636650212" y1="0.5" y2="30"/><line opacity="0.2" x1="303.84859804300777" x2="303.84859804300777" y1="0.5" y2="30"/><line opacity="0.2" x1="264.13672905898744" x2="264.13672905898744" y1="0.5" y2="30"/><line opacity="0.2" x1="378.9379724118446" x2="378.9379724118446" y1="0.5" y2="30"/><line opacity="0.2" x1="230.42834098800978" x2="230.42834098800978" y1="0.5" y2="30"/><line opacity="0.2" x1="324.4544662770157" x2="324.4544662770157" y1="0.5" y2="30"/><line opacity="0.2" x1="423.80948662793696" x2="423.80948662793696" y1="0.5" y2="30"/><line opacity="0.2" x1="228.5176161569542" x2="228.5176161569542" y1="0.5" y2="30"/><line opacity="0.2" x1="492.00483879118116" x2="492.00483879118116" y1="0.5" y2="30"/><line opacity="0.2" x1="282.88864478144933" x2="282.88864478144933" y1="0.5" y2="30"/><line opacity="0.2" x1="278.6178855573905" x2="278.6178855573905" y1="0.5" y2="30"/><line opacity="0.2" x1="441.5264296767775" x2="441.5264296767775" y1="0.5" y2="30"/><line opacity="0.2" x1="223.14442529316105" x2="223.14442529316105" y1="0.5" y2="30"/><line opacity="0.2" x1="273.70778583785574" x2="273.70778583785574" y1="0.5" y2="30"/><line opacity="0.2" x1="300.5362540922552" x2="300.5362540922552" y1="0.5" y2="30"/><line opacity="0.2" x1="465.0796689592519" x2="465.0796689592519" y1="0.5" y2="30"/><line opacity="0.2" x1="365.6607245734107" x2="365.6607245734107" y1="0.5" y2="30"/><line opacity="0.2" x1="405.84566980362916" x2="405.84566980362916" y1="0.5" y2="30"/><line opacity="0.2" x1="475.93652102928985" x2="475.93652102928985" y1="0.5" y2="30"/><line opacity="0.2" x1="441.5782050647947" x2="441.5782050647947" y1="0.5" y2="30"/><line opacity="0.2" x1="266.4088770622532" x2="266.4088770622532" y1="0.5" y2="30"/><line opacity="0.2" x1="342.06439563506683" x2="342.06439563506683" y1="0.5" y2="30"/><line opacity="0.2" x1="490.0984522826515" x2="490.0984522826515" y1="0.5" y2="30"/><line opacity="0.2" x1="266.3083459876267" x2="266.3083459876267" y1="0.5" y2="30"/><line opacity="0.2" x1="410.2058854407444" x2="410.2058854407444" y1="0.5" y2="30"/><line opacity="0.2" x1="360.7015059790408" x2="360.7015059790408" y1="0.5" y2="30"/><line opacity="0.2" x1="495.5713090477359" x2="495.5713090477359" y1="0.5" y2="30"/><line opacity="0.2" x1="274.83110243499095" x2="274.83110243499095" y1="0.5" y2="30"/><line opacity="0.2" x1="300.68700614809904" x2="300.68700614809904" y1="0.5" y2="30"/><line opacity="0.2" x1="244.17716283845215" x2="244.17716283845215" y1="0.5" y2="30"/><line opacity="0.2" x1="315.22088266507325" x2="315.22088266507325" y1="0.5" y2="30"/><line opacity="0.2" x1="429.4260530292838" x2="429.4260530292838" y1="0.5" y2="30"/><line opacity="0.2" x1="356.0253787624112" x2="356.0253787624112" y1="0.5" y2="30"/><line opacity="0.2" x1="328.56209797404665" x2="328.56209797404665" y1="0.5" y2="30"/><line opacity="0.2" x1="322.24169598762927" x2="322.24169598762927" y1="0.5" y2="30"/><line opacity="0.2" x1="383.9793190998764" x2="383.9793190998764" y1="0.5" y2="30"/><line opacity="0.2" x1="326.4450549333843" x2="326.4450549333843" y1="0.5" y2="30"/><line opacity="0.2" x1="255.85634559359715" x2="255.85634559359715" y1="0.5" y2="30"/><line opacity="0.2" x1="214.49821678813996" x2="214.49821678813996" y1="0.5" y2="30"/><line opacity="0.2" x1="270.2106158742709" x2="270.2106158742709" y1="0.5" y2="30"/><line opacity="0.2" x1="189.56402196555916" x2="189.56402196555916" y1="0.5" y2="30"/><line opacity="0.2" x1="138.34951946995892" x2="138.34951946995892" y1="0.5" y2="30"/><line opacity="0.2" x1="371.257452826992" x2="371.257452826992" y1="0.5" y2="30"/><line opacity="0.2" x1="310.92890182134295" x2="310.92890182134295" y1="0.5" y2="30"/><line opacity="0.2" x1="228.59997663403917" x2="228.59997663403917" y1="0.5" y2="30"/><line opacity="0.2" x1="312.9468589064771" x2="312.9468589064771" y1="0.5" y2="30"/><line opacity="0.2" x1="395.43581465270137" x2="395.43581465270137" y1="0.5" y2="30"/><line opacity="0.2" x1="342.4951383560819" x2="342.4951383560819" y1="0.5" y2="30"/><line opacity="0.2" x1="352.5312440109908" x2="352.5312440109908" y1="0.5" y2="30"/><line opacity="0.2" x1="195.29058546803992" x2="195.29058546803992" y1="0.5" y2="30"/><line opacity="0.2" x1="399.0691432003073" x2="399.0691432003073" y1="0.5" y2="30"/><line opacity="0.2" x1="397.56024781905836" x2="397.56024781905836" y1="0.5" y2="30"/><line opacity="0.2" x1="360.28179353123267" x2="360.28179353123267" y1="0.5" y2="30"/><line opacity="0.2" x1="278.1759672495432" x2="278.1759672495432" y1="0.5" y2="30"/><line opacity="0.2" x1="316.5764719870047" x2="316.5764719870047" y1="0.5" y2="30"/><line opacity="0.2" x1="360.8117002700337" x2="360.8117002700337" y1="0.5" y2="30"/><line opacity="0.2" x1="219.7483993079993" x2="219.7483993079993" y1="0.5" y2="30"/><line opacity="0.2" x1="288.6074341056786" x2="288.6074341056786" y1="0.5" y2="30"/><line opacity="0.2" x1="281.93850655152414" x2="281.93850655152414" y1="0.5" y2="30"/><line opacity="0.2" x1="20" x2="20" y1="0.5" y2="30"/><line opacity="0.2" x1="397.15055615515587" x2="397.15055615515587" y1="0.5" y2="30"/><line opacity="0.2" x1="237.6904173308346" x2="237.6904173308346" y1="0.5" y2="30"/><line opacity="0.2" x1="355.8998911903117" x2="355.8998911903117" y1="0.5" y2="30"/><line opacity="0.2" x1="374.85373945029573" x2="374.85373945029573" y1="0.5" y2="30"/><line opacity="0.2" x1="320.7301001751504" x2="320.7301001751504" y1="0.5" y2="30"/><line opacity="0.2" x1="246.4770097071038" x2="246.4770097071038" y1="0.5" y2="30"/><line opacity="0.2" x1="397.95192704527824" x2="397.95192704527824" y1="0.5" y2="30"/><line opacity="0.2" x1="313.01809675713844" x2="313.01809675713844" y1="0.5" y2="30"/><line opacity="0.2" x1="381.91613982723095" x2="381.91613982723095" y1="0.5" y2="30"/><line opacity="0.2" x1="367.8253428797396" x2="367.8253428797396" y1="0.5" y2="30"/><line opacity="0.2" x1="337.7382376689252" x2="337.7382376689252" y1="0.5" y2="30"/><line opacity="0.2" x1="352.1457493396323" x2="352.1457493396323" y1="0.5" y2="30"/><line opacity="0.2" x1="370.3879015892314" x2="370.3879015892314" y1="0.5" y2="30"/><line opacity="0.2" x1="406.8943742003165" x2="406.8943742003165" y1="0.5" y2="30"/><line opacity="0.2" x1="344.9916327448494" x2="344.9916327448494" y1="0.5" y2="30"/><line opacity="0.2" x1="196.69498089848338" x2="196.69498089848338" y1="0.5" y2="30"/><line opacity="0.2" x1="207.48566871647202" x2="207.48566871647202" y1="0.5" y2="30"/><line opacity="0.2" x1="81.876235403908" x2="81.876235403908" y1="0.5" y2="30"/><line opacity="0.2" x1="316.83582653539327" x2="316.83582653539327" y1="0.5" y2="30"/><line opacity="0.2" x1="208.03265270008984" x2="208.03265270008984" y1="0.5" y2="30"/><line opacity="0.2" x1="341.5198269401662" x2="341.5198269401662" y1="0.5" y2="30"/><line opacity="0.2" x1="323.20505272985866" x2="323.20505272985866" y1="0.5" y2="30"/><line opacity="0.2" x1="296.61715109166016" x2="296.61715109166016" y1="0.5" y2="30"/><line opacity="0.2" x1="128.58737666828932" x2="128.58737666828932" y1="0.5" y2="30"/><line opacity="0.2" x1="277.7300935495057" x2="277.7300935495057" y1="0.5" y2="30"/><line opacity="0.2" x1="269.9512492036901" x2="269.9512492036901" y1="0.5" y2="30"/><line opacity="0.2" x1="215.51787799413847" x2="215.51787799413847" y1="0.5" y2="30"/><line opacity="0.2" x1="411.13620623705003" x2="411.13620623705003" y1="0.5" y2="30"/><line opacity="0.2" x1="297.44644174858536" x2="297.44644174858536" y1="0.5" y2="30"/><line opacity="0.2" x1="306.2847356234624" x2="306.2847356234624" y1="0.5" y2="30"/><line opacity="0.2" x1="299.4039120986397" x2="299.4039120986397" y1="0.5" y2="30"/><line opacity="0.2" x1="325.7805245778961" x2="325.7805245778961" y1="0.5" y2="30"/><line opacity="0.2" x1="383.6626802933256" x2="383.6626802933256" y1="0.5" y2="30"/><line opacity="0.2" x1="250.60238414986947" x2="250.60238414986947" y1="0.5" y2="30"/><line opacity="0.2" x1="225.0458631476204" x2="225.0458631476204" y1="0.5" y2="30"/><line opacity="0.2" x1="340.7921687037197" x2="340.7921687037197" y1="0.5" y2="30"/><line opacity="0.2" x1="324.9711184391523" x2="324.9711184391523" y1="0.5" y2="30"/><line opacity="0.2" x1="292.2173032508436" x2="292.2173032508436" y1="0.5" y2="30"/><line opacity="0.2" x1="400.873626247008" x2="400.873626247008" y1="0.5" y2="30"/><line opacity="0.2" x1="316.76780903208044" x2="316.76780903208044" y1="0.5" y2="30"/><line opacity="0.2" x1="375.63281025646086" x2="375.63281025646086" y1="0.5" y2="30"/><line opacity="0.2" x1="463.8551094433034" x2="463.8551094433034" y1="0.5" y2="30"/><line opacity="0.2" x1="210.63867360959568" x2="210.63867360959568" y1="0.5" y2="30"/><line opacity="0.2" x1="287.62890826391225" x2="287.62890826391225" y1="0.5" y2="30"/><line opacity="0.2" x1="178.7235368299781" x2="178.7235368299781" y1="0.5" y2="30"/><line opacity="0.2" x1="235.51436513255132" x2="235.51436513255132" y1="0.5" y2="30"/><line opacity="0.2" x1="211.4522409729023" x2="211.4522409729023" y1="0.5" y2="30"/><line opacity="0.2" x1="432.9022902508388" x2="432.9022902508388" y1="0.5" y2="30"/><line opacity="0.2" x1="258.9342241354063" x2="258.9342241354063" y1="0.5" y2="30"/><line opacity="0.2" x1="241.06386896348792" x2="241.06386896348792" y1="0.5" y2="30"/><line opacity="0.2" x1="166.55497805173647" x2="166.55497805173647" y1="0.5" y2="30"/><line opacity="0.2" x1="379.9312523370612" x2="379.9312523370612" y1="0.5" y2="30"/><line opacity="0.2" x1="301.54538341633963" x2="301.54538341633963" y1="0.5" y2="30"/><line opacity="0.2" x1="89.75655183650098" x2="89.75655183650098" y1="0.5" y2="30"/><line opacity="0.2" x1="290.0269997593961" x2="290.0269997593961" y1="0.5" y2="30"/><line opacity="0.2" x1="296.5433348351059" x2="296.5433348351059" y1="0.5" y2="30"/><line opacity="0.2" x1="247.84810658885667" x2="247.84810658885667" y1="0.5" y2="30"/><line opacity="0.2" x1="276.6100039397232" x2="276.6100039397232" y1="0.5" y2="30"/><line opacity="0.2" x1="343.8200674209107" x2="343.8200674209107" y1="0.5" y2="30"/><line opacity="0.2" x1="348.99196916650226" x2="348.99196916650226" y1="0.5" y2="30"/><line opacity="0.2" x1="401.8812098524018" x2="401.8812098524018" y1="0.5" y2="30"/><line opacity="0.2" x1="263.3689612916269" x2="263.3689612916269" y1="0.5" y2="30"/><line opacity="0.2" x1="278.41789584069255" x2="278.41789584069255" y1="0.5" y2="30"/><line opacity="0.2" x1="289.34587714060376" x2="289.34587714060376" y1="0.5" y2="30"/><line opacity="0.2" x1="208.9695797117534" x2="208.9695797117534" y1="0.5" y2="30"/><line opacity="0.2" x1="274.5862767700632" x2="274.5862767700632" y1="0.5" y2="30"/><line opacity="0.2" x1="298.616605437343" x2="298.616605437343" y1="0.5" y2="30"/><line opacity="0.2" x1="336.7363423020334" x2="336.7363423020334" y1="0.5" y2="30"/><line opacity="0.2" x1="349.75215237237404" x2="349.75215237237404" y1="0.5" y2="30"/><line opacity="0.2" x1="387.19765585627255" x2="387.19765585627255" y1="0.5" y2="30"/><line opacity="0.2" x1="280.55838606199205" x2="280.55838606199205" y1="0.5" y2="30"/><line opacity="0.2" x1="246.9580905972695" x2="246.9580905972695" y1="0.5" y2="30"/><line opacity="0.2" x1="407.12354792999173" x2="407.12354792999173" y1="0.5" y2="30"/><line opacity="0.2" x1="236.2531683649554" x2="236.2531683649554" y1="0.5" y2="30"/><line opacity="0.2" x1="368.02889814328375" x2="368.02889814328375" y1="0.5" y2="30"/><line opacity="0.2" x1="356.49342280472194" x2="356.49342280472194" y1="0.5" y2="30"/><line opacity="0.2" x1="363.94364449762304" x2="363.94364449762304" y1="0.5" y2="30"/><line opacity="0.2" x1="348.975615398054" x2="348.975615398054" y1="0.5" y2="30"/><line opacity="0.2" x1="192.45748293589963" x2="192.45748293589963" y1="0.5" y2="30"/><line opacity="0.2" x1="275.39387649654304" x2="275.39387649654304" y1="0.5" y2="30"/><line opacity="0.2" x1="349.5872127469196" x2="349.5872127469196" y1="0.5" y2="30"/><line opacity="0.2" x1="298.4300026111494" x2="298.4300026111494" y1="0.5" y2="30"/><line opacity="0.2" x1="405.3427426975102" x2="405.3427426975102" y1="0.5" y2="30"/><line opacity="0.2" x1="431.654605034916" x2="431.654605034916" y1="0.5" y2="30"/><line opacity="0.2" x1="308.0264546939053" x2="308.0264546939053" y1="0.5" y2="30"/><line opacity="0.2" x1="210.353196871107" x2="210.353196871107" y1="0.5" y2="30"/><line opacity="0.2" x1="391.66288879251005" x2="391.66288879251005" y1="0.5" y2="30"/><line opacity="0.2" x1="186.60323033404802" x2="186.60323033404802" y1="0.5" y2="30"/><line opacity="0.2" x1="414.96448660979377" x2="414.96448660979377" y1="0.5" y2="30"/><line opacity="0.2" x1="118.85674746545116" x2="118.85674746545116" y1="0.5" y2="30"/><line opacity="0.2" x1="374.923408910667" x2="374.923408910667" y1="0.5" y2="30"/><line opacity="0.2" x1="209.18254303736765" x2="209.18254303736765" y1="0.5" y2="30"/><line opacity="0.2" x1="282.5099309490178" x2="282.5099309490178" y1="0.5" y2="30"/><line opacity="0.2" x1="404.33223987521023" x2="404.33223987521023" y1="0.5" y2="30"/><line opacity="0.2" x1="260.3936937503999" x2="260.3936937503999" y1="0.5" y2="30"/><line opacity="0.2" x1="111.11927883214294" x2="111.11927883214294" y1="0.5" y2="30"/><line opacity="0.2" x1="215.91951864575475" x2="215.91951864575475" y1="0.5" y2="30"/><line opacity="0.2" x1="298.7480332193146" x2="298.7480332193146" y1="0.5" y2="30"/><line opacity="0.2" x1="409.86181823928024" x2="409.86181823928024" y1="0.5" y2="30"/><line opacity="0.2" x1="307.02549806713984" x2="307.02549806713984" y1="0.5" y2="30"/><line opacity="0.2" x1="250.68526074982015" x2="250.68526074982015" y1="0.5" y2="30"/><line opacity="0.2" x1="167.47250620994546" x2="167.47250620994546" y1="0.5" y2="30"/><line opacity="0.2" x1="275.17420336341047" x2="275.17420336341047" y1="0.5" y2="30"/><line opacity="0.2" x1="357.21388901279346" x2="357.21388901279346" y1="0.5" y2="30"/><line opacity="0.2" x1="330.9206162068085" x2="330.9206162068085" y1="0.5" y2="30"/><line opacity="0.2" x1="381.8985589191237" x2="381.8985589191237" y1="0.5" y2="30"/><line opacity="0.2" x1="278.73067577137965" x2="278.73067577137965" y1="0.5" y2="30"/><line opacity="0.2" x1="327.13304717748105" x2="327.13304717748105" y1="0.5" y2="30"/><line opacity="0.2" x1="68.03379651290962" x2="68.03379651290962" y1="0.5" y2="30"/><line opacity="0.2" x1="203.7068581267988" x2="203.7068581267988" y1="0.5" y2="30"/><line opacity="0.2" x1="439.57324068732163" x2="439.57324068732163" y1="0.5" y2="30"/><line opacity="0.2" x1="356.90524488178227" x2="356.90524488178227" y1="0.5" y2="30"/><line opacity="0.2" x1="360.60934081995515" x2="360.60934081995515" y1="0.5" y2="30"/><line opacity="0.2" x1="320.4822043465765" x2="320.4822043465765" y1="0.5" y2="30"/><line opacity="0.2" x1="309.0551767312576" x2="309.0551767312576" y1="0.5" y2="30"/><line opacity="0.2" x1="384.51432603781893" x2="384.51432603781893" y1="0.5" y2="30"/><line opacity="0.2" x1="508.0223304708317" x2="508.0223304708317" y1="0.5" y2="30"/><line opacity="0.2" x1="413.1467245056634" x2="413.1467245056634" y1="0.5" y2="30"/><line opacity="0.2" x1="374.11154621172386" x2="374.11154621172386" y1="0.5" y2="30"/><line opacity="0.2" x1="442.3961590452689" x2="442.3961590452689" y1="0.5" y2="30"/><line opacity="0.2" x1="248.96266997590675" x2="248.96266997590675" y1="0.5" y2="30"/><line opacity="0.2" x1="326.12264467604166" x2="326.12264467604166" y1="0.5" y2="30"/><line opacity="0.2" x1="217.8954746285176" x2="217.8954746285176" y1="0.5" y2="30"/><line opacity="0.2" x1="369.602398791859" x2="369.602398791859" y1="0.5" y2="30"/><line opacity="0.2" x1="361.44155545100864" x2="361.44155545100864" y1="0.5" y2="30"/><line opacity="0.2" x1="304.13184470486016" x2="304.13184470486016" y1="0.5" y2="30"/><line opacity="0.2" x1="338.0530776805324" x2="338.0530776805324" y1="0.5" y2="30"/><line opacity="0.2" x1="327.7431660900655" x2="327.7431660900655" y1="0.5" y2="30"/><line opacity="0.2" x1="190.37395095048606" x2="190.37395095048606" y1="0.5" y2="30"/><line opacity="0.2" x1="421.55519413122096" x2="421.55519413122096" y1="0.5" y2="30"/><line opacity="0.2" x1="463.09048069937825" x2="463.09048069937825" y1="0.5" y2="30"/><line opacity="0.2" x1="359.15267993433076" x2="359.15267993433076" y1="0.5" y2="30"/><line opacity="0.2" x1="375.6277284492827" x2="375.6277284492827" y1="0.5" y2="30"/><line opacity="0.2" x1="216.50534204879742" x2="216.50534204879742" y1="0.5" y2="30"/><line opacity="0.2" x1="255.56723939489513" x2="255.56723939489513" y1="0.5" y2="30"/><line opacity="0.2" x1="250.61293399974787" x2="250.61293399974787" y1="0.5" y2="30"/><line opacity="0.2" x1="304.2442347600007" x2="304.2442347600007" y1="0.5" y2="30"/><line opacity="0.2" x1="381.09139210408154" x2="381.09139210408154" y1="0.5" y2="30"/><line opacity="0.2" x1="228.55514699874612" x2="228.55514699874612" y1="0.5" y2="30"/><line opacity="0.2" x1="318.22442608162487" x2="318.22442608162487" y1="0.5" y2="30"/><line opacity="0.2" x1="444.404523564191" x2="444.404523564191" y1="0.5" y2="30"/><line opacity="0.2" x1="472.819087316157" x2="472.819087316157" y1="0.5" y2="30"/><line opacity="0.2" x1="194.33137974374887" x2="194.33137974374887" y1="0.5" y2="30"/><line opacity="0.2" x1="239.12019873760903" x2="239.12019873760903" y1="0.5" y2="30"/><line opacity="0.2" x1="238.4499888133067" x2="238.4499888133067" y1="0.5" y2="30"/><line opacity="0.2" x1="372.9653352949418" x2="372.9653352949418" y1="0.5" y2="30"/><line opacity="0.2" x1="439.10515842425445" x2="439.10515842425445" y1="0.5" y2="30"/><line opacity="0.2" x1="298.4178246043971" x2="298.4178246043971" y1="0.5" y2="30"/><line opacity="0.2" x1="313.1809647016394" x2="313.1809647016394" y1="0.5" y2="30"/><line opacity="0.2" x1="334.2888750128956" x2="334.2888750128956" y1="0.5" y2="30"/><line opacity="0.2" x1="300.9702864749174" x2="300.9702864749174" y1="0.5" y2="30"/><line opacity="0.2" x1="272.4722851118452" x2="272.4722851118452" y1="0.5" y2="30"/><line opacity="0.2" x1="210.9899603152911" x2="210.9899603152911" y1="0.5" y2="30"/><line opacity="0.2" x1="389.18339028596455" x2="389.18339028596455" y1="0.5" y2="30"/><line opacity="0.2" x1="230.83470290357522" x2="230.83470290357522" y1="0.5" y2="30"/><line opacity="0.2" x1="356.8329105083234" x2="356.8329105083234" y1="0.5" y2="30"/><line opacity="0.2" x1="454.3466384694203" x2="454.3466384694203" y1="0.5" y2="30"/><line opacity="0.2" x1="247.22003679006886" x2="247.22003679006886" y1="0.5" y2="30"/><line opacity="0.2" x1="362.47945782686503" x2="362.47945782686503" y1="0.5" y2="30"/><line opacity="0.2" x1="133.37981485401085" x2="133.37981485401085" y1="0.5" y2="30"/><line opacity="0.2" x1="145.2439399349115" x2="145.2439399349115" y1="0.5" y2="30"/><line opacity="0.2" x1="360.31002039804883" x2="360.31002039804883" y1="0.5" y2="30"/><line opacity="0.2" x1="377.30074935380827" x2="377.30074935380827" y1="0.5" y2="30"/><line opacity="0.2" x1="276.548936770424" x2="276.548936770424" y1="0.5" y2="30"/><line opacity="0.2" x1="270.5247290321559" x2="270.5247290321559" y1="0.5" y2="30"/><line opacity="0.2" x1="356.4932986938395" x2="356.4932986938395" y1="0.5" y2="30"/><line opacity="0.2" x1="134.7549175049108" x2="134.7549175049108" y1="0.5" y2="30"/><line opacity="0.2" x1="324.2089510038586" x2="324.2089510038586" y1="0.5" y2="30"/><line opacity="0.2" x1="393.8912027156137" x2="393.8912027156137" y1="0.5" y2="30"/><line opacity="0.2" x1="270.2633315988225" x2="270.2633315988225" y1="0.5" y2="30"/><line opacity="0.2" x1="358.24922379473077" x2="358.24922379473077" y1="0.5" y2="30"/><line opacity="0.2" x1="271.46009224369953" x2="271.46009224369953" y1="0.5" y2="30"/><line opacity="0.2" x1="416.3877862532819" x2="416.3877862532819" y1="0.5" y2="30"/><line opacity="0.2" x1="453.3987493980401" x2="453.3987493980401" y1="0.5" y2="30"/><line opacity="0.2" x1="339.85182999469316" x2="339.85182999469316" y1="0.5" y2="30"/><line opacity="0.2" x1="132.74077728470377" x2="132.74077728470377" y1="0.5" y2="30"/><line opacity="0.2" x1="263.86589813263294" x2="263.86589813263294" y1="0.5" y2="30"/><line opacity="0.2" x1="378.5641942377884" x2="378.5641942377884" y1="0.5" y2="30"/><line opacity="0.2" x1="253.07760599707782" x2="253.07760599707782" y1="0.5" y2="30"/><line opacity="0.2" x1="360.365465307843" x2="360.365465307843" y1="0.5" y2="30"/><line opacity="0.2" x1="322.38767107544334" x2="322.38767107544334" y1="0.5" y2="30"/><line opacity="0.2" x1="392.1437071437081" x2="392.1437071437081" y1="0.5" y2="30"/><line opacity="0.2" x1="468.35805124136" x2="468.35805124136" y1="0.5" y2="30"/><line opacity="0.2" x1="184.60780277353442" x2="184.60780277353442" y1="0.5" y2="30"/><line opacity="0.2" x1="285.11462850022195" x2="285.11462850022195" y1="0.5" y2="30"/><line opacity="0.2" x1="277.50588329718437" x2="277.50588329718437" y1="0.5" y2="30"/><line opacity="0.2" x1="427.1183490209897" x2="427.1183490209897" y1="0.5" y2="30"/><line opacity="0.2" x1="317.38315432885486" x2="317.38315432885486" y1="0.5" y2="30"/><line opacity="0.2" x1="417.70459936444365" x2="417.70459936444365" y1="0.5" y2="30"/><line opacity="0.2" x1="346.4133461058634" x2="346.4133461058634" y1="0.5" y2="30"/><line opacity="0.2" x1="266.967292724163" x2="266.967292724163" y1="0.5" y2="30"/><line opacity="0.2" x1="207.33087418579908" x2="207.33087418579908" y1="0.5" y2="30"/><line opacity="0.2" x1="393.9271433444236" x2="393.9271433444236" y1="0.5" y2="30"/><line opacity="0.2" x1="313.5805100162794" x2="313.5805100162794" y1="0.5" y2="30"/><line opacity="0.2" x1="346.12603269906106" x2="346.12603269906106" y1="0.5" y2="30"/><line opacity="0.2" x1="181.55189000202594" x2="181.55189000202594" y1="0.5" y2="30"/><line opacity="0.2" x1="197.61989691046475" x2="197.61989691046475" y1="0.5" y2="30"/><line opacity="0.2" x1="345.4056956200301" x2="345.4056956200301" y1="0.5" y2="30"/><line opacity="0.2" x1="312.2948182165499" x2="312.2948182165499" y1="0.5" y2="30"/><line opacity="0.2" x1="311.64520781483753" x2="311.64520781483753" y1="0.5" y2="30"/><line opacity="0.2" x1="377.47104191801225" x2="377.47104191801225" y1="0.5" y2="30"/><line opacity="0.2" x1="300.7148627021221" x2="300.7148627021221" y1="0.5" y2="30"/><line opacity="0.2" x1="515.9571892264698" x2="515.9571892264698" y1="0.5" y2="30"/><line opacity="0.2" x1="272.59243430601396" x2="272.59243430601396" y1="0.5" y2="30"/><line opacity="0.2" x1="226.47064385147232" x2="226.47064385147232" y1="0.5" y2="30"/><line opacity="0.2" x1="374.47335918694824" x2="374.47335918694824" y1="0.5" y2="30"/><line opacity="0.2" x1="303.3561670097225" x2="303.3561670097225" y1="0.5" y2="30"/><line opacity="0.2" x1="324.3624513176642" x2="324.3624513176642" y1="0.5" y2="30"/><line opacity="0.2" x1="365.5419420998312" x2="365.5419420998312" y1="0.5" y2="30"/><line opacity="0.2" x1="310.3235066517728" x2="310.3235066517728" y1="0.5" y2="30"/><line opacity="0.2" x1="276.55559520973156" x2="276.55559520973156" y1="0.5" y2="30"/><line opacity="0.2" x1="264.9697209111172" x2="264.9697209111172" y1="0.5" y2="30"/><line opacity="0.2" x1="287.15520914866534" x2="287.15520914866534" y1="0.5" y2="30"/><line opacity="0.2" x1="276.8477385345316" x2="276.8477385345316" y1="0.5" y2="30"/><line opacity="0.2" x1="495.9704243213756" x2="495.9704243213756" y1="0.5" y2="30"/><line opacity="0.2" x1="228.89560859549877" x2="228.89560859549877" y1="0.5" y2="30"/><line opacity="0.2" x1="240.88290131942375" x2="240.88290131942375" y1="0.5" y2="30"/><line opacity="0.2" x1="208.0385390581446" x2="208.0385390581446" y1="0.5" y2="30"/><line opacity="0.2" x1="331.8610340477098" x2="331.8610340477098" y1="0.5" y2="30"/><line opacity="0.2" x1="280.9066789359443" x2="280.9066789359443" y1="0.5" y2="30"/><line opacity="0.2" x1="242.1828440244088" x2="242.1828440244088" y1="0.5" y2="30"/><line opacity="0.2" x1="232.97548015662747" x2="232.97548015662747" y1="0.5" y2="30"/><line opacity="0.2" x1="452.1911448042582" x2="452.1911448042582" y1="0.5" y2="30"/><line opacity="0.2" x1="215.3298315769313" x2="215.3298315769313" y1="0.5" y2="30"/><line opacity="0.2" x1="283.38308040027465" x2="283.38308040027465" y1="0.5" y2="30"/><line opacity="0.2" x1="226.07324729674625" x2="226.07324729674625" y1="0.5" y2="30"/><line opacity="0.2" x1="303.6994200722762" x2="303.6994200722762" y1="0.5" y2="30"/><line opacity="0.2" x1="196.97952122719366" x2="196.97952122719366" y1="0.5" y2="30"/><line opacity="0.2" x1="381.3502260347746" x2="381.3502260347746" y1="0.5" y2="30"/><line opacity="0.2" x1="230.01306319018454" x2="230.01306319018454" y1="0.5" y2="30"/><line opacity="0.2" x1="234.21229846783726" x2="234.21229846783726" y1="0.5" y2="30"/><line opacity="0.2" x1="388.03521017492756" x2="388.03521017492756" y1="0.5" y2="30"/><line opacity="0.2" x1="390.84814002042293" x2="390.84814002042293" y1="0.5" y2="30"/><line opacity="0.2" x1="325.44082798364036" x2="325.44082798364036" y1="0.5" y2="30"/><line opacity="0.2" x1="352.41664472110347" x2="352.41664472110347" y1="0.5" y2="30"/><line opacity="0.2" x1="265.8933783973102" x2="265.8933783973102" y1="0.5" y2="30"/><line opacity="0.2" x1="274.5030405555075" x2="274.5030405555075" y1="0.5" y2="30"/><line opacity="0.2" x1="158.96310465746683" x2="158.96310465746683" y1="0.5" y2="30"/><line opacity="0.2" x1="191.66148539808208" x2="191.66148539808208" y1="0.5" y2="30"/><line opacity="0.2" x1="435.5598046852758" x2="435.5598046852758" y1="0.5" y2="30"/><line opacity="0.2" x1="306.1085115059389" x2="306.1085115059389" y1="0.5" y2="30"/><line opacity="0.2" x1="373.2687095652736" x2="373.2687095652736" y1="0.5" y2="30"/><line opacity="0.2" x1="346.59333069487013" x2="346.59333069487013" y1="0.5" y2="30"/><line opacity="0.2" x1="470.2214455444948" x2="470.2214455444948" y1="0.5" y2="30"/><line opacity="0.2" x1="272.18159967673864" x2="272.18159967673864" y1="0.5" y2="30"/><line opacity="0.2" x1="337.5091851509253" x2="337.5091851509253" y1="0.5" y2="30"/><line opacity="0.2" x1="299.6333781850906" x2="299.6333781850906" y1="0.5" y2="30"/><line opacity="0.2" x1="206.1965092460431" x2="206.1965092460431" y1="0.5" y2="30"/><line opacity="0.2" x1="333.6364927729018" x2="333.6364927729018" y1="0.5" y2="30"/><line opacity="0.2" x1="259.3635871349047" x2="259.3635871349047" y1="0.5" y2="30"/><line opacity="0.2" x1="438.5836709879249" x2="438.5836709879249" y1="0.5" y2="30"/><line opacity="0.2" x1="293.4484609861218" x2="293.4484609861218" y1="0.5" y2="30"/><line opacity="0.2" x1="283.8326999221611" x2="283.8326999221611" y1="0.5" y2="30"/><line opacity="0.2" x1="549.8110149887984" x2="549.8110149887984" y1="0.5" y2="30"/><line opacity="0.2" x1="361.4313709338832" x2="361.4313709338832" y1="0.5" y2="30"/><line opacity="0.2" x1="309.97882715737416" x2="309.97882715737416" y1="0.5" y2="30"/><line opacity="0.2" x1="335.3082961915853" x2="335.3082961915853" y1="0.5" y2="30"/><line opacity="0.2" x1="235.37118029988812" x2="235.37118029988812" y1="0.5" y2="30"/><line opacity="0.2" x1="441.5122036912479" x2="441.5122036912479" y1="0.5" y2="30"/><line opacity="0.2" x1="362.8949767835298" x2="362.8949767835298" y1="0.5" y2="30"/><line opacity="0.2" x1="357.440469948691" x2="357.440469948691" y1="0.5" y2="30"/><line opacity="0.2" x1="309.07635049829906" x2="309.07635049829906" y1="0.5" y2="30"/><line opacity="0.2" x1="313.5476400485" x2="313.5476400485" y1="0.5" y2="30"/><line opacity="0.2" x1="273.7930419607081" x2="273.7930419607081" y1="0.5" y2="30"/><line opacity="0.2" x1="428.24202542379004" x2="428.24202542379004" y1="0.5" y2="30"/><line opacity="0.2" x1="234.17748759601778" x2="234.17748759601778" y1="0.5" y2="30"/><line opacity="0.2" x1="226.26155156126407" x2="226.26155156126407" y1="0.5" y2="30"/><line opacity="0.2" x1="392.348046281258" x2="392.348046281258" y1="0.5" y2="30"/><line opacity="0.2" x1="293.2198684760161" x2="293.2198684760161" y1="0.5" y2="30"/><line opacity="0.2" x1="520.1320534959169" x2="520.1320534959169" y1="0.5" y2="30"/><line opacity="0.2" x1="439.9177603094091" x2="439.9177603094091" y1="0.5" y2="30"/><line opacity="0.2" x1="255.70329086797238" x2="255.70329086797238" y1="0.5" y2="30"/><line opacity="0.2" x1="344.0459652952005" x2="344.0459652952005" y1="0.5" y2="30"/><line opacity="0.2" x1="210.58178459073648" x2="210.58178459073648" y1="0.5" y2="30"/><line opacity="0.2" x1="347.00362341328395" x2="347.00362341328395" y1="0.5" y2="30"/><line opacity="0.2" x1="363.15648618275384" x2="363.15648618275384" y1="0.5" y2="30"/><line opacity="0.2" x1="291.0112366869838" x2="291.0112366869838" y1="0.5" y2="30"/><line opacity="0.2" x1="226.5843838381394" x2="226.5843838381394" y1="0.5" y2="30"/><line opacity="0.2" x1="175.73322402196604" x2="175.73322402196604" y1="0.5" y2="30"/><line opacity="0.2" x1="433.54677299050866" x2="433.54677299050866" y1="0.5" y2="30"/><line opacity="0.2" x1="393.05500328627187" x2="393.05500328627187" y1="0.5" y2="30"/><line opacity="0.2" x1="331.2040957856876" x2="331.2040957856876" y1="0.5" y2="30"/><line opacity="0.2" x1="292.78107748288403" x2="292.78107748288403" y1="0.5" y2="30"/><line opacity="0.2" x1="208.8663620963557" x2="208.8663620963557" y1="0.5" y2="30"/><line opacity="0.2" x1="267.0541274347687" x2="267.0541274347687" y1="0.5" y2="30"/><line opacity="0.2" x1="275.79928723314134" x2="275.79928723314134" y1="0.5" y2="30"/><line opacity="0.2" x1="297.77410211344227" x2="297.77410211344227" y1="0.5" y2="30"/><line opacity="0.2" x1="347.3852446181137" x2="347.3852446181137" y1="0.5" y2="30"/><line opacity="0.2" x1="408.04590145743794" x2="408.04590145743794" y1="0.5" y2="30"/><line opacity="0.2" x1="211.18190149426545" x2="211.18190149426545" y1="0.5" y2="30"/><line opacity="0.2" x1="274.87605810445064" x2="274.87605810445064" y1="0.5" y2="30"/><line opacity="0.2" x1="146.32534201078676" x2="146.32534201078676" y1="0.5" y2="30"/><line opacity="0.2" x1="273.0723295543424" x2="273.0723295543424" y1="0.5" y2="30"/><line opacity="0.2" x1="334.9725849094347" x2="334.9725849094347" y1="0.5" y2="30"/><line opacity="0.2" x1="286.9215618945337" x2="286.9215618945337" y1="0.5" y2="30"/><line opacity="0.2" x1="283.90323751342925" x2="283.90323751342925" y1="0.5" y2="30"/><line opacity="0.2" x1="215.56793005561667" x2="215.56793005561667" y1="0.5" y2="30"/><line opacity="0.2" x1="292.30174624542883" x2="292.30174624542883" y1="0.5" y2="30"/><line opacity="0.2" x1="286.9818559183054" x2="286.9818559183054" y1="0.5" y2="30"/><line opacity="0.2" x1="370.44079072270904" x2="370.44079072270904" y1="0.5" y2="30"/><line opacity="0.2" x1="355.2985383696651" x2="355.2985383696651" y1="0.5" y2="30"/><line opacity="0.2" x1="240.9110583765683" x2="240.9110583765683" y1="0.5" y2="30"/><line opacity="0.2" x1="144.84112300493558" x2="144.84112300493558" y1="0.5" y2="30"/><line opacity="0.2" x1="267.97653806208933" x2="267.97653806208933" y1="0.5" y2="30"/><line opacity="0.2" x1="482.0294869331174" x2="482.0294869331174" y1="0.5" y2="30"/><line opacity="0.2" x1="274.7734536652821" x2="274.7734536652821" y1="0.5" y2="30"/><line opacity="0.2" x1="245.96121497445628" x2="245.96121497445628" y1="0.5" y2="30"/><line opacity="0.2" x1="162.86117171444886" x2="162.86117171444886" y1="0.5" y2="30"/><line opacity="0.2" x1="304.42290988400003" x2="304.42290988400003" y1="0.5" y2="30"/><line opacity="0.2" x1="373.38023972549036" x2="373.38023972549036" y1="0.5" y2="30"/><line opacity="0.2" x1="433.90282528231546" x2="433.90282528231546" y1="0.5" y2="30"/><line opacity="0.2" x1="150.2878951088014" x2="150.2878951088014" y1="0.5" y2="30"/><line opacity="0.2" x1="270.8648200424293" x2="270.8648200424293" y1="0.5" y2="30"/><line opacity="0.2" x1="315.96352915818875" x2="315.96352915818875" y1="0.5" y2="30"/><line opacity="0.2" x1="468.74485593521837" x2="468.74485593521837" y1="0.5" y2="30"/><line opacity="0.2" x1="352.1694647329985" x2="352.1694647329985" y1="0.5" y2="30"/><line opacity="0.2" x1="278.2974544579084" x2="278.2974544579084" y1="0.5" y2="30"/><line opacity="0.2" x1="464.2188934876813" x2="464.2188934876813" y1="0.5" y2="30"/><line opacity="0.2" x1="252.61813922892966" x2="252.61813922892966" y1="0.5" y2="30"/><line opacity="0.2" x1="273.40281014908834" x2="273.40281014908834" y1="0.5" y2="30"/><line opacity="0.2" x1="307.94381631260495" x2="307.94381631260495" y1="0.5" y2="30"/><line opacity="0.2" x1="398.9459414520286" x2="398.9459414520286" y1="0.5" y2="30"/><line opacity="0.2" x1="441.8477573998134" x2="441.8477573998134" y1="0.5" y2="30"/><line opacity="0.2" x1="297.0353993874475" x2="297.0353993874475" y1="0.5" y2="30"/><line opacity="0.2" x1="257.26059009135525" x2="257.26059009135525" y1="0.5" y2="30"/><line opacity="0.2" x1="373.9059516607646" x2="373.9059516607646" y1="0.5" y2="30"/><line opacity="0.2" x1="298.0937672789653" x2="298.0937672789653" y1="0.5" y2="30"/><line opacity="0.2" x1="181.40392308376076" x2="181.40392308376076" y1="0.5" y2="30"/><line opacity="0.2" x1="271.96083129657075" x2="271.96083129657075" y1="0.5" y2="30"/><line opacity="0.2" x1="263.34264063356335" x2="263.34264063356335" y1="0.5" y2="30"/><line opacity="0.2" x1="284.9989506609786" x2="284.9989506609786" y1="0.5" y2="30"/><line opacity="0.2" x1="243.74580477006256" x2="243.74580477006256" y1="0.5" y2="30"/><line opacity="0.2" x1="176.2303316767505" x2="176.2303316767505" y1="0.5" y2="30"/><line opacity="0.2" x1="396.8351251982798" x2="396.8351251982798" y1="0.5" y2="30"/><line opacity="0.2" x1="372.2040170504024" x2="372.2040170504024" y1="0.5" y2="30"/><line opacity="0.2" x1="257.1302682689134" x2="257.1302682689134" y1="0.5" y2="30"/><line opacity="0.2" x1="287.58183854835215" x2="287.58183854835215" y1="0.5" y2="30"/><line opacity="0.2" x1="327.65049386589595" x2="327.65049386589595" y1="0.5" y2="30"/><line opacity="0.2" x1="202.40350502565676" x2="202.40350502565676" y1="0.5" y2="30"/><line opacity="0.2" x1="338.67051540455526" x2="338.67051540455526" y1="0.5" y2="30"/><line opacity="0.2" x1="426.64672409097216" x2="426.64672409097216" y1="0.5" y2="30"/><line opacity="0.2" x1="388.8294470669507" x2="388.8294470669507" y1="0.5" y2="30"/><line opacity="0.2" x1="323.09969025779526" x2="323.09969025779526" y1="0.5" y2="30"/><line opacity="0.2" x1="381.2269900597058" x2="381.2269900597058" y1="0.5" y2="30"/><line opacity="0.2" x1="403.0565330602568" x2="403.0565330602568" y1="0.5" y2="30"/><line opacity="0.2" x1="320.0572345120542" x2="320.0572345120542" y1="0.5" y2="30"/><line opacity="0.2" x1="325.96356620512375" x2="325.96356620512375" y1="0.5" y2="30"/><line opacity="0.2" x1="335.28513562702545" x2="335.28513562702545" y1="0.5" y2="30"/><line opacity="0.2" x1="288.0675193898192" x2="288.0675193898192" y1="0.5" y2="30"/><line opacity="0.2" x1="321.1764113453721" x2="321.1764113453721" y1="0.5" y2="30"/><line opacity="0.2" x1="370.09443043267925" x2="370.09443043267925" y1="0.5" y2="30"/><line opacity="0.2" x1="236.00051846599035" x2="236.00051846599035" y1="0.5" y2="30"/><line opacity="0.2" x1="362.23759414068195" x2="362.23759414068195" y1="0.5" y2="30"/><line opacity="0.2" x1="241.98875421119038" x2="241.98875421119038" y1="0.5" y2="30"/><line opacity="0.2" x1="380.1757374149401" x2="380.1757374149401" y1="0.5" y2="30"/><line opacity="0.2" x1="183.90686781717346" x2="183.90686781717346" y1="0.5" y2="30"/><line opacity="0.2" x1="334.5906985227696" x2="334.5906985227696" y1="0.5" y2="30"/><line opacity="0.2" x1="340.042211537467" x2="340.042211537467" y1="0.5" y2="30"/><line opacity="0.2" x1="294.31176181709685" x2="294.31176181709685" y1="0.5" y2="30"/><line opacity="0.2" x1="397.60266607334984" x2="397.60266607334984" y1="0.5" y2="30"/><line opacity="0.2" x1="267.10299080144665" x2="267.10299080144665" y1="0.5" y2="30"/><line opacity="0.2" x1="286.3104397280463" x2="286.3104397280463" y1="0.5" y2="30"/><line opacity="0.2" x1="250.9725623773684" x2="250.9725623773684" y1="0.5" y2="30"/><line opacity="0.2" x1="444.4236147644627" x2="444.4236147644627" y1="0.5" y2="30"/><line opacity="0.2" x1="271.9006142222741" x2="271.9006142222741" y1="0.5" y2="30"/><line opacity="0.2" x1="458.18230849523377" x2="458.18230849523377" y1="0.5" y2="30"/><line opacity="0.2" x1="383.1604795680294" x2="383.1604795680294" y1="0.5" y2="30"/><line opacity="0.2" x1="222.2616711370361" x2="222.2616711370361" y1="0.5" y2="30"/><line opacity="0.2" x1="171.32058406399312" x2="171.32058406399312" y1="0.5" y2="30"/><line opacity="0.2" x1="284.91071842583034" x2="284.91071842583034" y1="0.5" y2="30"/><line opacity="0.2" x1="402.55823273515534" x2="402.55823273515534" y1="0.5" y2="30"/><line opacity="0.2" x1="253.4420719626566" x2="253.4420719626566" y1="0.5" y2="30"/><line opacity="0.2" x1="282.4890518844391" x2="282.4890518844391" y1="0.5" y2="30"/><line opacity="0.2" x1="246.55893948057664" x2="246.55893948057664" y1="0.5" y2="30"/><line opacity="0.2" x1="405.16841035123446" x2="405.16841035123446" y1="0.5" y2="30"/><line opacity="0.2" x1="419.3326265977471" x2="419.3326265977471" y1="0.5" y2="30"/><line opacity="0.2" x1="354.6804515726968" x2="354.6804515726968" y1="0.5" y2="30"/><line opacity="0.2" x1="284.13792694776026" x2="284.13792694776026" y1="0.5" y2="30"/><line opacity="0.2" x1="163.15866357507073" x2="163.15866357507073" y1="0.5" y2="30"/><line opacity="0.2" x1="401.0506613667523" x2="401.0506613667523" y1="0.5" y2="30"/><line opacity="0.2" x1="287.38166006372325" x2="287.38166006372325" y1="0.5" y2="30"/><line opacity="0.2" x1="337.5912181922976" x2="337.5912181922976" y1="0.5" y2="30"/><line opacity="0.2" x1="409.8203427070457" x2="409.8203427070457" y1="0.5" y2="30"/><line opacity="0.2" x1="370.8108184279289" x2="370.8108184279289" y1="0.5" y2="30"/><line opacity="0.2" x1="371.411821006833" x2="371.411821006833" y1="0.5" y2="30"/><line opacity="0.2" x1="316.1910603322111" x2="316.1910603322111" y1="0.5" y2="30"/><line opacity="0.2" x1="272.5224526692537" x2="272.5224526692537" y1="0.5" y2="30"/><line opacity="0.2" x1="308.34510780279834" x2="308.34510780279834" y1="0.5" y2="30"/><line opacity="0.2" x1="267.7140289804336" x2="267.7140289804336" y1="0.5" y2="30"/><line opacity="0.2" x1="235.26618292176795" x2="235.26618292176795" y1="0.5" y2="30"/><line opacity="0.2" x1="327.7601744851739" x2="327.7601744851739" y1="0.5" y2="30"/><line opacity="0.2" x1="289.09316789408905" x2="289.09316789408905" y1="0.5" y2="30"/><line opacity="0.2" x1="340.13228817814417" x2="340.13228817814417" y1="0.5" y2="30"/><line opacity="0.2" x1="363.98575276368916" x2="363.98575276368916" y1="0.5" y2="30"/><line opacity="0.2" x1="372.3199723592248" x2="372.3199723592248" y1="0.5" y2="30"/><line opacity="0.2" x1="250.07531851351197" x2="250.07531851351197" y1="0.5" y2="30"/><line opacity="0.2" x1="314.2920414384827" x2="314.2920414384827" y1="0.5" y2="30"/><line opacity="0.2" x1="348.14030368601476" x2="348.14030368601476" y1="0.5" y2="30"/><line opacity="0.2" x1="289.4440531892515" x2="289.4440531892515" y1="0.5" y2="30"/><line opacity="0.2" x1="309.9296469473836" x2="309.9296469473836" y1="0.5" y2="30"/><line opacity="0.2" x1="223.66661342878646" x2="223.66661342878646" y1="0.5" y2="30"/><line opacity="0.2" x1="200.5038883676895" x2="200.5038883676895" y1="0.5" y2="30"/><line opacity="0.2" x1="478.37142656136814" x2="478.37142656136814" y1="0.5" y2="30"/><line opacity="0.2" x1="349.2213331042852" x2="349.2213331042852" y1="0.5" y2="30"/><line opacity="0.2" x1="298.146031182566" x2="298.146031182566" y1="0.5" y2="30"/><line opacity="0.2" x1="349.75676255122943" x2="349.75676255122943" y1="0.5" y2="30"/><line opacity="0.2" x1="267.82151479957065" x2="267.82151479957065" y1="0.5" y2="30"/><line opacity="0.2" x1="282.036926185586" x2="282.036926185586" y1="0.5" y2="30"/><line opacity="0.2" x1="428.02630064269255" x2="428.02630064269255" y1="0.5" y2="30"/><line opacity="0.2" x1="447.10342606070816" x2="447.10342606070816" y1="0.5" y2="30"/><line opacity="0.2" x1="364.7927156884111" x2="364.7927156884111" y1="0.5" y2="30"/><line opacity="0.2" x1="302.4999514929987" x2="302.4999514929987" y1="0.5" y2="30"/><line opacity="0.2" x1="373.68354150429354" x2="373.68354150429354" y1="0.5" y2="30"/><line opacity="0.2" x1="334.920534383841" x2="334.920534383841" y1="0.5" y2="30"/><line opacity="0.2" x1="281.1712550048063" x2="281.1712550048063" y1="0.5" y2="30"/><line opacity="0.2" x1="477.70340769585613" x2="477.70340769585613" y1="0.5" y2="30"/><line opacity="0.2" x1="434.30919050553337" x2="434.30919050553337" y1="0.5" y2="30"/><line opacity="0.2" x1="346.1536517267694" x2="346.1536517267694" y1="0.5" y2="30"/><line opacity="0.2" x1="351.4964343918609" x2="351.4964343918609" y1="0.5" y2="30"/><line opacity="0.2" x1="244.71023541976066" x2="244.71023541976066" y1="0.5" y2="30"/><line opacity="0.2" x1="403.25554633673994" x2="403.25554633673994" y1="0.5" y2="30"/><line opacity="0.2" x1="413.08079766433485" x2="413.08079766433485" y1="0.5" y2="30"/><line opacity="0.2" x1="287.11104031518977" x2="287.11104031518977" y1="0.5" y2="30"/><line opacity="0.2" x1="281.4776782722504" x2="281.4776782722504" y1="0.5" y2="30"/><line opacity="0.2" x1="315.7370158689398" x2="315.7370158689398" y1="0.5" y2="30"/><line opacity="0.2" x1="350.87917885851357" x2="350.87917885851357" y1="0.5" y2="30"/><line opacity="0.2" x1="450.43858494465644" x2="450.43858494465644" y1="0.5" y2="30"/><line opacity="0.2" x1="177.0498687594699" x2="177.0498687594699" y1="0.5" y2="30"/><line opacity="0.2" x1="438.6183071165482" x2="438.6183071165482" y1="0.5" y2="30"/><line opacity="0.2" x1="370.9321751415106" x2="370.9321751415106" y1="0.5" y2="30"/><line opacity="0.2" x1="297.0578553044977" x2="297.0578553044977" y1="0.5" y2="30"/><line opacity="0.2" x1="243.1549150120226" x2="243.1549150120226" y1="0.5" y2="30"/><line opacity="0.2" x1="387.4748339133698" x2="387.4748339133698" y1="0.5" y2="30"/><line opacity="0.2" x1="325.75409649602943" x2="325.75409649602943" y1="0.5" y2="30"/><line opacity="0.2" x1="361.74908254628434" x2="361.74908254628434" y1="0.5" y2="30"/><line opacity="0.2" x1="202.7758005833489" x2="202.7758005833489" y1="0.5" y2="30"/><line opacity="0.2" x1="219.9631654219954" x2="219.9631654219954" y1="0.5" y2="30"/><line opacity="0.2" x1="316.5301651191133" x2="316.5301651191133" y1="0.5" y2="30"/><line opacity="0.2" x1="389.427296196041" x2="389.427296196041" y1="0.5" y2="30"/><line opacity="0.2" x1="228.3023017884678" x2="228.3023017884678" y1="0.5" y2="30"/><line opacity="0.2" x1="365.8206799332151" x2="365.8206799332151" y1="0.5" y2="30"/><line opacity="0.2" x1="217.80400732379732" x2="217.80400732379732" y1="0.5" y2="30"/><line opacity="0.2" x1="379.7561864134598" x2="379.7561864134598" y1="0.5" y2="30"/><line opacity="0.2" x1="235.69659981797585" x2="235.69659981797585" y1="0.5" y2="30"/><line opacity="0.2" x1="325.90885660922163" x2="325.90885660922163" y1="0.5" y2="30"/><line opacity="0.2" x1="351.6127284732891" x2="351.6127284732891" y1="0.5" y2="30"/><line opacity="0.2" x1="364.4262860236408" x2="364.4262860236408" y1="0.5" y2="30"/><line opacity="0.2" x1="273.59181715720734" x2="273.59181715720734" y1="0.5" y2="30"/><line opacity="0.2" x1="232.9903545847668" x2="232.9903545847668" y1="0.5" y2="30"/><line opacity="0.2" x1="196.80512555852758" x2="196.80512555852758" y1="0.5" y2="30"/><line opacity="0.2" x1="248.20794276108404" x2="248.20794276108404" y1="0.5" y2="30"/><line opacity="0.2" x1="369.4531568119836" x2="369.4531568119836" y1="0.5" y2="30"/><line opacity="0.2" x1="338.5158231906857" x2="338.5158231906857" y1="0.5" y2="30"/><line opacity="0.2" x1="325.94466765570235" x2="325.94466765570235" y1="0.5" y2="30"/><line opacity="0.2" x1="222.93552394120982" x2="222.93552394120982" y1="0.5" y2="30"/><line opacity="0.2" x1="381.29668165882936" x2="381.29668165882936" y1="0.5" y2="30"/><line opacity="0.2" x1="233.2918290050352" x2="233.2918290050352" y1="0.5" y2="30"/><line opacity="0.2" x1="495.460019928608" x2="495.460019928608" y1="0.5" y2="30"/><line opacity="0.2" x1="331.10614583358256" x2="331.10614583358256" y1="0.5" y2="30"/><line opacity="0.2" x1="230.9744979121475" x2="230.9744979121475" y1="0.5" y2="30"/><line opacity="0.2" x1="275.3188165849386" x2="275.3188165849386" y1="0.5" y2="30"/><line opacity="0.2" x1="338.5416609376772" x2="338.5416609376772" y1="0.5" y2="30"/><line opacity="0.2" x1="270.5803515908706" x2="270.5803515908706" y1="0.5" y2="30"/><line opacity="0.2" x1="317.13197072553845" x2="317.13197072553845" y1="0.5" y2="30"/><line opacity="0.2" x1="254.77713236324826" x2="254.77713236324826" y1="0.5" y2="30"/><line opacity="0.2" x1="305.48429872422315" x2="305.48429872422315" y1="0.5" y2="30"/><line opacity="0.2" x1="286.24966681969414" x2="286.24966681969414" y1="0.5" y2="30"/><line opacity="0.2" x1="200.32122429648388" x2="200.32122429648388" y1="0.5" y2="30"/><line opacity="0.2" x1="282.52716335395667" x2="282.52716335395667" y1="0.5" y2="30"/><line opacity="0.2" x1="318.4606454377421" x2="318.4606454377421" y1="0.5" y2="30"/><line opacity="0.2" x1="240.3132179591538" x2="240.3132179591538" y1="0.5" y2="30"/><line opacity="0.2" x1="423.22140562226326" x2="423.22140562226326" y1="0.5" y2="30"/><line opacity="0.2" x1="367.65408313949035" x2="367.65408313949035" y1="0.5" y2="30"/><line opacity="0.2" x1="233.03854436234766" x2="233.03854436234766" y1="0.5" y2="30"/><line opacity="0.2" x1="306.0139385951922" x2="306.0139385951922" y1="0.5" y2="30"/><line opacity="0.2" x1="368.15535315820216" x2="368.15535315820216" y1="0.5" y2="30"/><line opacity="0.2" x1="381.35188532079" x2="381.35188532079" y1="0.5" y2="30"/><line opacity="0.2" x1="410.149295475328" x2="410.149295475328" y1="0.5" y2="30"/><line opacity="0.2" x1="162.2336766219266" x2="162.2336766219266" y1="0.5" y2="30"/><line opacity="0.2" x1="298.0196822601427" x2="298.0196822601427" y1="0.5" y2="30"/><line opacity="0.2" x1="204.63336418613147" x2="204.63336418613147" y1="0.5" y2="30"/><line opacity="0.2" x1="300.07215553835204" x2="300.07215553835204" y1="0.5" y2="30"/><line opacity="0.2" x1="294.8185273589005" x2="294.8185273589005" y1="0.5" y2="30"/><line opacity="0.2" x1="283.55670047772946" x2="283.55670047772946" y1="0.5" y2="30"/><line opacity="0.2" x1="325.81389036702507" x2="325.81389036702507" y1="0.5" y2="30"/><line opacity="0.2" x1="320.5835432439739" x2="320.5835432439739" y1="0.5" y2="30"/><line opacity="0.2" x1="259.20974003106085" x2="259.20974003106085" y1="0.5" y2="30"/><line opacity="0.2" x1="388.14778966643536" x2="388.14778966643536" y1="0.5" y2="30"/><line opacity="0.2" x1="387.2415021774355" x2="387.2415021774355" y1="0.5" y2="30"/><line opacity="0.2" x1="214.25944593525358" x2="214.25944593525358" y1="0.5" y2="30"/><line opacity="0.2" x1="306.89902824466515" x2="306.89902824466515" y1="0.5" y2="30"/><line opacity="0.2" x1="290.57446119211227" x2="290.57446119211227" y1="0.5" y2="30"/><line opacity="0.2" x1="327.57058751464774" x2="327.57058751464774" y1="0.5" y2="30"/><line opacity="0.2" x1="417.78991437729235" x2="417.78991437729235" y1="0.5" y2="30"/><line opacity="0.2" x1="263.5693852693447" x2="263.5693852693447" y1="0.5" y2="30"/><line opacity="0.2" x1="366.41475369083304" x2="366.41475369083304" y1="0.5" y2="30"/><line opacity="0.2" x1="433.96784504855384" x2="433.96784504855384" y1="0.5" y2="30"/><line opacity="0.2" x1="218.91040102517104" x2="218.91040102517104" y1="0.5" y2="30"/><line opacity="0.2" x1="406.43550297217956" x2="406.43550297217956" y1="0.5" y2="30"/><line opacity="0.2" x1="313.4559472551712" x2="313.4559472551712" y1="0.5" y2="30"/><line opacity="0.2" x1="332.45984930929836" x2="332.45984930929836" y1="0.5" y2="30"/><line opacity="0.2" x1="397.96917060928246" x2="397.96917060928246" y1="0.5" y2="30"/><line opacity="0.2" x1="282.1789648876563" x2="282.1789648876563" y1="0.5" y2="30"/><line opacity="0.2" x1="338.58240433630687" x2="338.58240433630687" y1="0.5" y2="30"/><line opacity="0.2" x1="401.57257467880527" x2="401.57257467880527" y1="0.5" y2="30"/><line opacity="0.2" x1="362.0906653144119" x2="362.0906653144119" y1="0.5" y2="30"/><line opacity="0.2" x1="167.79333383561584" x2="167.79333383561584" y1="0.5" y2="30"/><line opacity="0.2" x1="192.2758919910286" x2="192.2758919910286" y1="0.5" y2="30"/><line opacity="0.2" x1="356.1612958613908" x2="356.1612958613908" y1="0.5" y2="30"/><line opacity="0.2" x1="204.11179523052112" x2="204.11179523052112" y1="0.5" y2="30"/><line opacity="0.2" x1="345.6502370644994" x2="345.6502370644994" y1="0.5" y2="30"/><line opacity="0.2" x1="409.83177743008827" x2="409.83177743008827" y1="0.5" y2="30"/><line opacity="0.2" x1="441.68010094885597" x2="441.68010094885597" y1="0.5" y2="30"/><line opacity="0.2" x1="319.38521091584266" x2="319.38521091584266" y1="0.5" y2="30"/><line opacity="0.2" x1="349.2188814518019" x2="349.2188814518019" y1="0.5" y2="30"/><line opacity="0.2" x1="254.31101020532466" x2="254.31101020532466" y1="0.5" y2="30"/><line opacity="0.2" x1="393.71738127304536" x2="393.71738127304536" y1="0.5" y2="30"/><line opacity="0.2" x1="388.0239717700414" x2="388.0239717700414" y1="0.5" y2="30"/><line opacity="0.2" x1="309.28053568579793" x2="309.28053568579793" y1="0.5" y2="30"/><line opacity="0.2" x1="372.45374408255736" x2="372.45374408255736" y1="0.5" y2="30"/><line opacity="0.2" x1="314.60880929030816" x2="314.60880929030816" y1="0.5" y2="30"/><line opacity="0.2" x1="449.61512841281643" x2="449.61512841281643" y1="0.5" y2="30"/><line opacity="0.2" x1="496.14168163163475" x2="496.14168163163475" y1="0.5" y2="30"/><line opacity="0.2" x1="241.12111570148983" x2="241.12111570148983" y1="0.5" y2="30"/><line opacity="0.2" x1="167.08108274603575" x2="167.08108274603575" y1="0.5" y2="30"/><line opacity="0.2" x1="378.19065343628824" x2="378.19065343628824" y1="0.5" y2="30"/><line opacity="0.2" x1="428.5053329801392" x2="428.5053329801392" y1="0.5" y2="30"/><line opacity="0.2" x1="376.7873930969659" x2="376.7873930969659" y1="0.5" y2="30"/><line opacity="0.2" x1="357.71580804131344" x2="357.71580804131344" y1="0.5" y2="30"/><line opacity="0.2" x1="371.7171972537992" x2="371.7171972537992" y1="0.5" y2="30"/><line opacity="0.2" x1="410.13240361917946" x2="410.13240361917946" y1="0.5" y2="30"/><line opacity="0.2" x1="233.28004261415356" x2="233.28004261415356" y1="0.5" y2="30"/><line opacity="0.2" x1="283.60100616584805" x2="283.60100616584805" y1="0.5" y2="30"/><line opacity="0.2" x1="292.3623825144071" x2="292.3623825144071" y1="0.5" y2="30"/><line opacity="0.2" x1="220.9849594585274" x2="220.9849594585274" y1="0.5" y2="30"/><line opacity="0.2" x1="282.067555874073" x2="282.067555874073" y1="0.5" y2="30"/><line opacity="0.2" x1="130.37379209240277" x2="130.37379209240277" y1="0.5" y2="30"/><line opacity="0.2" x1="174.7671755861767" x2="174.7671755861767" y1="0.5" y2="30"/><line opacity="0.2" x1="333.6140080617808" x2="333.6140080617808" y1="0.5" y2="30"/><line opacity="0.2" x1="287.43501994397246" x2="287.43501994397246" y1="0.5" y2="30"/><line opacity="0.2" x1="333.6995049261518" x2="333.6995049261518" y1="0.5" y2="30"/><line opacity="0.2" x1="248.13671920877727" x2="248.13671920877727" y1="0.5" y2="30"/><line opacity="0.2" x1="243.8057722527978" x2="243.8057722527978" y1="0.5" y2="30"/><line opacity="0.2" x1="244.67067781657295" x2="244.67067781657295" y1="0.5" y2="30"/><line opacity="0.2" x1="281.6559258008625" x2="281.6559258008625" y1="0.5" y2="30"/><line opacity="0.2" x1="425.2935251282513" x2="425.2935251282513" y1="0.5" y2="30"/><line opacity="0.2" x1="327.6158353259709" x2="327.6158353259709" y1="0.5" y2="30"/><line opacity="0.2" x1="317.2619981292761" x2="317.2619981292761" y1="0.5" y2="30"/><line opacity="0.2" x1="325.5429544484801" x2="325.5429544484801" y1="0.5" y2="30"/><line opacity="0.2" x1="495.59912164576895" x2="495.59912164576895" y1="0.5" y2="30"/><line opacity="0.2" x1="355.72558756195826" x2="355.72558756195826" y1="0.5" y2="30"/><line opacity="0.2" x1="355.50670149991356" x2="355.50670149991356" y1="0.5" y2="30"/><line opacity="0.2" x1="298.56176680236456" x2="298.56176680236456" y1="0.5" y2="30"/><line opacity="0.2" x1="357.29913174195053" x2="357.29913174195053" y1="0.5" y2="30"/><line opacity="0.2" x1="318.1371069294329" x2="318.1371069294329" y1="0.5" y2="30"/><line opacity="0.2" x1="319.51880659565944" x2="319.51880659565944" y1="0.5" y2="30"/><line opacity="0.2" x1="35.3530091823741" x2="35.3530091823741" y1="0.5" y2="30"/><line opacity="0.2" x1="405.93999263305193" x2="405.93999263305193" y1="0.5" y2="30"/><line opacity="0.2" x1="318.4782764855926" x2="318.4782764855926" y1="0.5" y2="30"/><line opacity="0.2" x1="364.39988236082684" x2="364.39988236082684" y1="0.5" y2="30"/><line opacity="0.2" x1="382.4565561075397" x2="382.4565561075397" y1="0.5" y2="30"/><line opacity="0.2" x1="317.7282439795395" x2="317.7282439795395" y1="0.5" y2="30"/><line opacity="0.2" x1="336.6756080170062" x2="336.6756080170062" y1="0.5" y2="30"/><line opacity="0.2" x1="249.59259518198184" x2="249.59259518198184" y1="0.5" y2="30"/><line opacity="0.2" x1="238.38044589191873" x2="238.38044589191873" y1="0.5" y2="30"/><line opacity="0.2" x1="323.66017504540196" x2="323.66017504540196" y1="0.5" y2="30"/><line opacity="0.2" x1="366.38672785211884" x2="366.38672785211884" y1="0.5" y2="30"/><line opacity="0.2" x1="258.31185025700273" x2="258.31185025700273" y1="0.5" y2="30"/><line opacity="0.2" x1="424.0788183846742" x2="424.0788183846742" y1="0.5" y2="30"/><line opacity="0.2" x1="315.04673246608195" x2="315.04673246608195" y1="0.5" y2="30"/><line opacity="0.2" x1="324.13658714025007" x2="324.13658714025007" y1="0.5" y2="30"/><line opacity="0.2" x1="463.05051813564245" x2="463.05051813564245" y1="0.5" y2="30"/><line opacity="0.2" x1="333.68151083083455" x2="333.68151083083455" y1="0.5" y2="30"/><line opacity="0.2" x1="294.0309697814111" x2="294.0309697814111" y1="0.5" y2="30"/><line opacity="0.2" x1="391.44863594270737" x2="391.44863594270737" y1="0.5" y2="30"/><line opacity="0.2" x1="316.6632580937511" x2="316.6632580937511" y1="0.5" y2="30"/><line opacity="0.2" x1="323.5577931819116" x2="323.5577931819116" y1="0.5" y2="30"/><line opacity="0.2" x1="249.17263740294462" x2="249.17263740294462" y1="0.5" y2="30"/><line opacity="0.2" x1="307.9339558034257" x2="307.9339558034257" y1="0.5" y2="30"/><line opacity="0.2" x1="121.34038321844189" x2="121.34038321844189" y1="0.5" y2="30"/><line opacity="0.2" x1="240.79225288602288" x2="240.79225288602288" y1="0.5" y2="30"/><line opacity="0.2" x1="248.50892858825804" x2="248.50892858825804" y1="0.5" y2="30"/><line opacity="0.2" x1="350.38550870141887" x2="350.38550870141887" y1="0.5" y2="30"/><line opacity="0.2" x1="321.3770362321908" x2="321.3770362321908" y1="0.5" y2="30"/><line opacity="0.2" x1="311.50517395315484" x2="311.50517395315484" y1="0.5" y2="30"/><line opacity="0.2" x1="365.87812491673446" x2="365.87812491673446" y1="0.5" y2="30"/><line opacity="0.2" x1="190.7574343516307" x2="190.7574343516307" y1="0.5" y2="30"/><line opacity="0.2" x1="215.84658853163205" x2="215.84658853163205" y1="0.5" y2="30"/><line opacity="0.2" x1="149.20485179005175" x2="149.20485179005175" y1="0.5" y2="30"/><line opacity="0.2" x1="417.85393192509304" x2="417.85393192509304" y1="0.5" y2="30"/><line opacity="0.2" x1="321.8035701562933" x2="321.8035701562933" y1="0.5" y2="30"/><line opacity="0.2" x1="403.8830892578703" x2="403.8830892578703" y1="0.5" y2="30"/><line opacity="0.2" x1="331.6645203851373" x2="331.6645203851373" y1="0.5" y2="30"/><line opacity="0.2" x1="395.2589912844647" x2="395.2589912844647" y1="0.5" y2="30"/><line opacity="0.2" x1="346.84682294107245" x2="346.84682294107245" y1="0.5" y2="30"/><line opacity="0.2" x1="243.65505728920368" x2="243.65505728920368" y1="0.5" y2="30"/><line opacity="0.2" x1="481.5651235189757" x2="481.5651235189757" y1="0.5" y2="30"/><line opacity="0.2" x1="278.28699300130233" x2="278.28699300130233" y1="0.5" y2="30"/><line opacity="0.2" x1="161.78842029829391" x2="161.78842029829391" y1="0.5" y2="30"/><line opacity="0.2" x1="159.70653308913762" x2="159.70653308913762" y1="0.5" y2="30"/><line opacity="0.2" x1="501.8018988937005" x2="501.8018988937005" y1="0.5" y2="30"/><line opacity="0.2" x1="467.61827208128" x2="467.61827208128" y1="0.5" y2="30"/><line opacity="0.2" x1="417.9943177396634" x2="417.9943177396634" y1="0.5" y2="30"/><line opacity="0.2" x1="272.6507937628543" x2="272.6507937628543" y1="0.5" y2="30"/><line opacity="0.2" x1="298.23020886729876" x2="298.23020886729876" y1="0.5" y2="30"/><line opacity="0.2" x1="338.2402923204401" x2="338.2402923204401" y1="0.5" y2="30"/><line opacity="0.2" x1="184.13035503621072" x2="184.13035503621072" y1="0.5" y2="30"/><line opacity="0.2" x1="322.256644320877" x2="322.256644320877" y1="0.5" y2="30"/><line opacity="0.2" x1="234.325862846163" x2="234.325862846163" y1="0.5" y2="30"/><line opacity="0.2" x1="388.991065346065" x2="388.991065346065" y1="0.5" y2="30"/><line opacity="0.2" x1="267.47000658458313" x2="267.47000658458313" y1="0.5" y2="30"/><line opacity="0.2" x1="290.99344092482676" x2="290.99344092482676" y1="0.5" y2="30"/></g></svg>