<svg xmlns="http://www.w3.org/2000/svg" xmlns:xlink="http://www.w3.org/1999/xlink" class="plot-d6a7b5" fill="currentColor" font-family="system-ui, sans-serif" font-size="10" text-anchor="middle" width="640" height="60" viewBox="0 0 640 60" style="color: black; background-color: white;"><style>:where(.plot-d6a7b5) {
  --plot-background: white;
  display: block;
  height: auto;
  height: intrinsic;
  max-width: 100%;
}
:where(.plot-d6a7b5 text),
:where(.plot-d6a7b5 tspan) {
  white-space: pre;
}</style><g aria-label="x-axis tick" aria-hidden="true" fill="none" stroke="currentColor"><path transform="translate(100.91854445880536,30)" d="M0,0L0,6"/><path transform="translate(191.89374788166776,30)" d="M0,0L0,6"/><path transform="translate(282.8689513045301,30)" d="M0,0L0,6"/><path transform="translate(373.84415472739255,30)" d="M0,0L0,6"/><path transform="translate(464.81935815025486,30)" d="M0,0L0,6"/><path transform="translate(555.7945615731172,30)" d="M0,0L0,6"/></g><g aria-label="x-axis tick label" font-variant="tabular-nums" transform="translate(0,9)"><text y="0.71em" transform="translate(100.91854445880536,30)">−3</text><text y="0.71em" transform="translate(191.89374788166776,30)">−2</text><text y="0.71em" transform="translate(282.8689513045301,30)">−1</text><text y="0.71em" transform="translate(373.84415472739255,30)">0</text><text y="0.71em" transform="translate(464.81935815025486,30)">1</text><text y="0.71em" transform="translate(555.7945615731172,30)">2</text></g><g aria-label="tick" stroke="steelblue"><line opacity="0.2" x1="371.33728051953176" x2="371.33728051953176" y1="0.5" y2="30"/><line opacity="0.2" x1="478.197277752445" x2="478.197277752445" y1="0.5" y2="30"/><line opacity="0.2" x1="256.9258608663929" x2="256.9258608663929" y1="0.5" y2="30"/><line opacity="0.2" x1="405.7876789823542" x2="405.7876789823542" y1="0.5" y2="30"/><line opacity="0.2" x1="461.39613277624574" x2="461.39613277624574" y1="0.5" y2="30"/><line opacity="0.2" x1="439.7877823329889" x2="439.7877823329889" y1="0.5" y2="30"/><line opacity="0.2" x1="132.24911883579924" x2="132.24911883579924" y1="0.5" y2="30"/><line opacity="0.2" x1="568.8866746106459" x2="568.8866746106459" y1="0.5" y2="30"/><line opacity="0.2" x1="372.1935037708073" x2="372.1935037708073" y1="0.5" y2="30"/><line opacity="0.2" x1="413.88509095498637" x2="413.88509095498637" y1="0.5" y2="30"/><line opacity="0.2" x1="260.491704170857" x2="260.491704170857" y1="0.5" y2="30"/><line opacity="0.2" x1="544.1773780768909" x2="544.1773780768909" y1="0.5" y2="30"/><line opacity="0.2" x1="466.0194153877911" x2="466.0194153877911" y1="0.5" y2="30"/><line opacity="0.2" x1="380.2412621871807" x2="380.2412621871807" y1="0.5" y2="30"/><line opacity="0.2" x1="336.729120660362" x2="336.729120660362" y1="0.5" y2="30"/><line opacity="0.2" x1="446.04875711626306" x2="446.04875711626306" y1="0.5" y2="30"/><line opacity="0.2" x1="459.82361444955643" x2="459.82361444955643" y1="0.5" y2="30"/><line opacity="0.2" x1="368.87670757316613" x2="368.87670757316613" y1="0.5" y2="30"/><line opacity="0.2" x1="337.2937097110084" x2="337.2937097110084" y1="0.5" y2="30"/><line opacity="0.2" x1="450.9907217244428" x2="450.9907217244428" y1="0.5" y2="30"/><line opacity="0.2" x1="241.0203925714325" x2="241.0203925714325" y1="0.5" y2="30"/><line opacity="0.2" x1="367.5321115504966" x2="367.5321115504966" y1="0.5" y2="30"/><line opacity="0.2" x1="413.0020350953382" x2="413.0020350953382" y1="0.5" y2="30"/><line opacity="0.2" x1="386.69895168296136" x2="386.69895168296136" y1="0.5" y2="30"/><line opacity="0.2" x1="248.276028012948" x2="248.276028012948" y1="0.5" y2="30"/><line opacity="0.2" x1="341.78000281798774" x2="341.78000281798774" y1="0.5" y2="30"/><line opacity="0.2" x1="477.9523929400715" x2="477.9523929400715" y1="0.5" y2="30"/><line opacity="0.2" x1="295.80842670680397" x2="295.80842670680397" y1="0.5" y2="30"/><line opacity="0.2" x1="389.1784504535058" x2="389.1784504535058" y1="0.5" y2="30"/><line opacity="0.2" x1="335.266034642783" x2="335.266034642783" y1="0.5" y2="30"/><line opacity="0.2" x1="390.899377651072" x2="390.899377651072" y1="0.5" y2="30"/><line opacity="0.2" x1="265.97847989726114" x2="265.97847989726114" y1="0.5" y2="30"/><line opacity="0.2" x1="370.0009090431658" x2="370.0009090431658" y1="0.5" y2="30"/><line opacity="0.2" x1="430.23220711317276" x2="430.23220711317276" y1="0.5" y2="30"/><line opacity="0.2" x1="447.37609392623267" x2="447.37609392623267" y1="0.5" y2="30"/><line opacity="0.2" x1="351.2409652311374" x2="351.2409652311374" y1="0.5" y2="30"/><line opacity="0.2" x1="319.17672996564454" x2="319.17672996564454" y1="0.5" y2="30"/><line opacity="0.2" x1="419.5867519215819" x2="419.5867519215819" y1="0.5" y2="30"/><line opacity="0.2" x1="270.0690254793861" x2="270.0690254793861" y1="0.5" y2="30"/><line opacity="0.2" x1="396.71024653463604" x2="396.71024653463604" y1="0.5" y2="30"/><line opacity="0.2" x1="202.7081191179726" x2="202.7081191179726" y1="0.5" y2="30"/><line opacity="0.2" x1="339.0517129482079" x2="339.0517129482079" y1="0.5" y2="30"/><line opacity="0.2" x1="334.5257827776109" x2="334.5257827776109" y1="0.5" y2="30"/><line opacity="0.2" x1="269.49123775188554" x2="269.49123775188554" y1="0.5" y2="30"/><line opacity="0.2" x1="381.89570151679067" x2="381.89570151679067" y1="0.5" y2="30"/><line opacity="0.2" x1="416.585994942022" x2="416.585994942022" y1="0.5" y2="30"/><line opacity="0.2" x1="195.09887301594554" x2="195.09887301594554" y1="0.5" y2="30"/><line opacity="0.2" x1="369.83487383177373" x2="369.83487383177373" y1="0.5" y2="30"/><line opacity="0.2" x1="352.93357473171227" x2="352.93357473171227" y1="0.5" y2="30"/><line opacity="0.2" x1="335.1313366448073" x2="335.1313366448073" y1="0.5" y2="30"/><line opacity="0.2" x1="359.6188053316482" x2="359.6188053316482" y1="0.5" y2="30"/><line opacity="0.2" x1="545.5708969093395" x2="545.5708969093395" y1="0.5" y2="30"/><line opacity="0.2" x1="486.3380661806983" x2="486.3380661806983" y1="0.5" y2="30"/><line opacity="0.2" x1="353.6402270489979" x2="353.6402270489979" y1="0.5" y2="30"/><line opacity="0.2" x1="284.19826306132853" x2="284.19826306132853" y1="0.5" y2="30"/><line opacity="0.2" x1="270.61226444187577" x2="270.61226444187577" y1="0.5" y2="30"/><line opacity="0.2" x1="482.2659645091583" x2="482.2659645091583" y1="0.5" y2="30"/><line opacity="0.2" x1="361.494115433339" x2="361.494115433339" y1="0.5" y2="30"/><line opacity="0.2" x1="276.63191141141726" x2="276.63191141141726" y1="0.5" y2="30"/><line opacity="0.2" x1="311.58977603536437" x2="311.58977603536437" y1="0.5" y2="30"/><line opacity="0.2" x1="254.4114817398431" x2="254.4114817398431" y1="0.5" y2="30"/><line opacity="0.2" x1="321.72773274080737" x2="321.72773274080737" y1="0.5" y2="30"/><line opacity="0.2" x1="321.1028342147482" x2="321.1028342147482" y1="0.5" y2="30"/><line opacity="0.2" x1="458.15620372024904" x2="458.15620372024904" y1="0.5" y2="30"/><line opacity="0.2" x1="481.779474073855" x2="481.779474073855" y1="0.5" y2="30"/><line opacity="0.2" x1="270.63878579343964" x2="270.63878579343964" y1="0.5" y2="30"/><line opacity="0.2" x1="359.7066066364554" x2="359.7066066364554" y1="0.5" y2="30"/><line opacity="0.2" x1="564.6773520585863" x2="564.6773520585863" y1="0.5" y2="30"/><line opacity="0.2" x1="360.55448219954445" x2="360.55448219954445" y1="0.5" y2="30"/><line opacity="0.2" x1="329.328021649079" x2="329.328021649079" y1="0.5" y2="30"/><line opacity="0.2" x1="385.2187770392987" x2="385.2187770392987" y1="0.5" y2="30"/><line opacity="0.2" x1="312.2849920910585" x2="312.2849920910585" y1="0.5" y2="30"/><line opacity="0.2" x1="255.6060528458403" x2="255.6060528458403" y1="0.5" y2="30"/><line opacity="0.2" x1="369.8057768438211" x2="369.8057768438211" y1="0.5" y2="30"/><line opacity="0.2" x1="476.4493972893858" x2="476.4493972893858" y1="0.5" y2="30"/><line opacity="0.2" x1="515.7908182067811" x2="515.7908182067811" y1="0.5" y2="30"/><line opacity="0.2" x1="382.0715134452323" x2="382.0715134452323" y1="0.5" y2="30"/><line opacity="0.2" x1="400.2005916564976" x2="400.2005916564976" y1="0.5" y2="30"/><line opacity="0.2" x1="386.5760444831793" x2="386.5760444831793" y1="0.5" y2="30"/><line opacity="0.2" x1="303.89183937080725" x2="303.89183937080725" y1="0.5" y2="30"/><line opacity="0.2" x1="457.9847684036465" x2="457.9847684036465" y1="0.5" y2="30"/><line opacity="0.2" x1="281.3875517448171" x2="281.3875517448171" y1="0.5" y2="30"/><line opacity="0.2" x1="440.2645613942336" x2="440.2645613942336" y1="0.5" y2="30"/><line opacity="0.2" x1="395.5473361355928" x2="395.5473361355928" y1="0.5" y2="30"/><line opacity="0.2" x1="386.17349971630017" x2="386.17349971630017" y1="0.5" y2="30"/><line opacity="0.2" x1="450.4173364181224" x2="450.4173364181224" y1="0.5" y2="30"/><line opacity="0.2" x1="451.4611338448499" x2="451.4611338448499" y1="0.5" y2="30"/><line opacity="0.2" x1="498.8646058864777" x2="498.8646058864777" y1="0.5" y2="30"/><line opacity="0.2" x1="435.2919833848933" x2="435.2919833848933" y1="0.5" y2="30"/><line opacity="0.2" x1="330.78961140059016" x2="330.78961140059016" y1="0.5" y2="30"/><line opacity="0.2" x1="484.8052564386067" x2="484.8052564386067" y1="0.5" y2="30"/><line opacity="0.2" x1="530.5797084363343" x2="530.5797084363343" y1="0.5" y2="30"/><line opacity="0.2" x1="483.05212465980355" x2="483.05212465980355" y1="0.5" y2="30"/><line opacity="0.2" x1="393.34190303701996" x2="393.34190303701996" y1="0.5" y2="30"/><line opacity="0.2" x1="434.23000587987445" x2="434.23000587987445" y1="0.5" y2="30"/><line opacity="0.2" x1="424.7941301019052" x2="424.7941301019052" y1="0.5" y2="30"/><line opacity="0.2" x1="414.27922431580544" x2="414.27922431580544" y1="0.5" y2="30"/><line opacity="0.2" x1="394.16295689368087" x2="394.16295689368087" y1="0.5" y2="30"/><line opacity="0.2" x1="449.7058889678771" x2="449.7058889678771" y1="0.5" y2="30"/><line opacity="0.2" x1="497.5851557518504" x2="497.5851557518504" y1="0.5" y2="30"/><line opacity="0.2" x1="353.42293177023146" x2="353.42293177023146" y1="0.5" y2="30"/><line opacity="0.2" x1="488.79895832992366" x2="488.79895832992366" y1="0.5" y2="30"/><line opacity="0.2" x1="361.40470550896276" x2="361.40470550896276" y1="0.5" y2="30"/><line opacity="0.2" x1="412.0862404461999" x2="412.0862404461999" y1="0.5" y2="30"/><line opacity="0.2" x1="409.92322051130697" x2="409.92322051130697" y1="0.5" y2="30"/><line opacity="0.2" x1="264.9440732981311" x2="264.9440732981311" y1="0.5" y2="30"/><line opacity="0.2" x1="433.8571687977165" x2="433.8571687977165" y1="0.5" y2="30"/><line opacity="0.2" x1="303.8098650100429" x2="303.8098650100429" y1="0.5" y2="30"/><line opacity="0.2" x1="353.0679106917315" x2="353.0679106917315" y1="0.5" y2="30"/><line opacity="0.2" x1="457.6979870900266" x2="457.6979870900266" y1="0.5" y2="30"/><line opacity="0.2" x1="316.7410663302507" x2="316.7410663302507" y1="0.5" y2="30"/><line opacity="0.2" x1="426.42969559573027" x2="426.42969559573027" y1="0.5" y2="30"/><line opacity="0.2" x1="469.46008411259015" x2="469.46008411259015" y1="0.5" y2="30"/><line opacity="0.2" x1="482.79187282901637" x2="482.79187282901637" y1="0.5" y2="30"/><line opacity="0.2" x1="454.72468737511326" x2="454.72468737511326" y1="0.5" y2="30"/><line opacity="0.2" x1="326.91570264049494" x2="326.91570264049494" y1="0.5" y2="30"/><line opacity="0.2" x1="185.45351688140593" x2="185.45351688140593" y1="0.5" y2="30"/><line opacity="0.2" x1="401.74009813564936" x2="401.74009813564936" y1="0.5" y2="30"/><line opacity="0.2" x1="356.95782795845173" x2="356.95782795845173" y1="0.5" y2="30"/><line opacity="0.2" x1="320.59745206775773" x2="320.59745206775773" y1="0.5" y2="30"/><line opacity="0.2" x1="208.16625378794882" x2="208.16625378794882" y1="0.5" y2="30"/><line opacity="0.2" x1="426.0937628272993" x2="426.0937628272993" y1="0.5" y2="30"/><line opacity="0.2" x1="343.605747428343" x2="343.605747428343" y1="0.5" y2="30"/><line opacity="0.2" x1="414.59293406004787" x2="414.59293406004787" y1="0.5" y2="30"/><line opacity="0.2" x1="418.7137854346265" x2="418.7137854346265" y1="0.5" y2="30"/><line opacity="0.2" x1="306.4120638443182" x2="306.4120638443182" y1="0.5" y2="30"/><line opacity="0.2" x1="432.47297410200196" x2="432.47297410200196" y1="0.5" y2="30"/><line opacity="0.2" x1="341.50030501318804" x2="341.50030501318804" y1="0.5" y2="30"/><line opacity="0.2" x1="417.2103080036073" x2="417.2103080036073" y1="0.5" y2="30"/><line opacity="0.2" x1="419.42209009074855" x2="419.42209009074855" y1="0.5" y2="30"/><line opacity="0.2" x1="467.4981267689321" x2="467.4981267689321" y1="0.5" y2="30"/><line opacity="0.2" x1="416.67811467851845" x2="416.67811467851845" y1="0.5" y2="30"/><line opacity="0.2" x1="291.5322405595518" x2="291.5322405595518" y1="0.5" y2="30"/><line opacity="0.2" x1="325.7955846752994" x2="325.7955846752994" y1="0.5" y2="30"/><line opacity="0.2" x1="422.9012700720583" x2="422.9012700720583" y1="0.5" y2="30"/><line opacity="0.2" x1="365.17921343659157" x2="365.17921343659157" y1="0.5" y2="30"/><line opacity="0.2" x1="458.17873794780957" x2="458.17873794780957" y1="0.5" y2="30"/><line opacity="0.2" x1="389.0277454912249" x2="389.0277454912249" y1="0.5" y2="30"/><line opacity="0.2" x1="309.03108893130195" x2="309.03108893130195" y1="0.5" y2="30"/><line opacity="0.2" x1="381.2754131273911" x2="381.2754131273911" y1="0.5" y2="30"/><line opacity="0.2" x1="379.50403941864096" x2="379.50403941864096" y1="0.5" y2="30"/><line opacity="0.2" x1="362.4110789885685" x2="362.4110789885685" y1="0.5" y2="30"/><line opacity="0.2" x1="268.4243258180826" x2="268.4243258180826" y1="0.5" y2="30"/><line opacity="0.2" x1="558.0773791106612" x2="558.0773791106612" y1="0.5" y2="30"/><line opacity="0.2" x1="385.5296439004172" x2="385.5296439004172" y1="0.5" y2="30"/><line opacity="0.2" x1="480.9432188990797" x2="480.9432188990797" y1="0.5" y2="30"/><line opacity="0.2" x1="418.98524053211247" x2="418.98524053211247" y1="0.5" y2="30"/><line opacity="0.2" x1="381.206829899101" x2="381.206829899101" y1="0.5" y2="30"/><line opacity="0.2" x1="323.04854168981586" x2="323.04854168981586" y1="0.5" y2="30"/><line opacity="0.2" x1="366.41737004170005" x2="366.41737004170005" y1="0.5" y2="30"/><line opacity="0.2" x1="20" x2="20" y1="0.5" y2="30"/><line opacity="0.2" x1="500.46001361284317" x2="500.46001361284317" y1="0.5" y2="30"/><line opacity="0.2" x1="286.3730965071521" x2="286.3730965071521" y1="0.5" y2="30"/><line opacity="0.2" x1="461.9189748604424" x2="461.9189748604424" y1="0.5" y2="30"/><line opacity="0.2" x1="551.8411476868478" x2="551.8411476868478" y1="0.5" y2="30"/><line opacity="0.2" x1="303.4276432617127" x2="303.4276432617127" y1="0.5" y2="30"/><line opacity="0.2" x1="327.8521983200549" x2="327.8521983200549" y1="0.5" y2="30"/><line opacity="0.2" x1="372.27754048703554" x2="372.27754048703554" y1="0.5" y2="30"/><line opacity="0.2" x1="422.68030124048147" x2="422.68030124048147" y1="0.5" y2="30"/><line opacity="0.2" x1="346.6578349347911" x2="346.6578349347911" y1="0.5" y2="30"/><line opacity="0.2" x1="216.4940589549123" x2="216.4940589549123" y1="0.5" y2="30"/><line opacity="0.2" x1="396.22783910092636" x2="396.22783910092636" y1="0.5" y2="30"/><line opacity="0.2" x1="276.4227886967529" x2="276.4227886967529" y1="0.5" y2="30"/><line opacity="0.2" x1="302.7032622928045" x2="302.7032622928045" y1="0.5" y2="30"/><line opacity="0.2" x1="382.4588414318707" x2="382.4588414318707" y1="0.5" y2="30"/><line opacity="0.2" x1="410.27572355691916" x2="410.27572355691916" y1="0.5" y2="30"/><line opacity="0.2" x1="213.63400355972647" x2="213.63400355972647" y1="0.5" y2="30"/><line opacity="0.2" x1="268.67201157386927" x2="268.67201157386927" y1="0.5" y2="30"/><line opacity="0.2" x1="329.99174838181483" x2="329.99174838181483" y1="0.5" y2="30"/><line opacity="0.2" x1="356.7585452053538" x2="356.7585452053538" y1="0.5" y2="30"/><line opacity="0.2" x1="373.9339328250037" x2="373.9339328250037" y1="0.5" y2="30"/><line opacity="0.2" x1="419.4451199710504" x2="419.4451199710504" y1="0.5" y2="30"/><line opacity="0.2" x1="405.87550559915667" x2="405.87550559915667" y1="0.5" y2="30"/><line opacity="0.2" x1="323.42143047309844" x2="323.42143047309844" y1="0.5" y2="30"/><line opacity="0.2" x1="305.6689120419762" x2="305.6689120419762" y1="0.5" y2="30"/><line opacity="0.2" x1="518.1135945700546" x2="518.1135945700546" y1="0.5" y2="30"/><line opacity="0.2" x1="319.0655676856777" x2="319.0655676856777" y1="0.5" y2="30"/><line opacity="0.2" x1="558.5203273149716" x2="558.5203273149716" y1="0.5" y2="30"/><line opacity="0.2" x1="375.2843049072841" x2="375.2843049072841" y1="0.5" y2="30"/><line opacity="0.2" x1="510.66470558665475" x2="510.66470558665475" y1="0.5" y2="30"/><line opacity="0.2" x1="466.52710932254126" x2="466.52710932254126" y1="0.5" y2="30"/><line opacity="0.2" x1="418.0115150188661" x2="418.0115150188661" y1="0.5" y2="30"/><line opacity="0.2" x1="239.89272106298856" x2="239.89272106298856" y1="0.5" y2="30"/><line opacity="0.2" x1="391.902307839519" x2="391.902307839519" y1="0.5" y2="30"/><line opacity="0.2" x1="399.3563867987132" x2="399.3563867987132" y1="0.5" y2="30"/><line opacity="0.2" x1="512.5713610557182" x2="512.5713610557182" y1="0.5" y2="30"/><line opacity="0.2" x1="493.4453882821884" x2="493.4453882821884" y1="0.5" y2="30"/><line opacity="0.2" x1="477.7042019713452" x2="477.7042019713452" y1="0.5" y2="30"/><line opacity="0.2" x1="288.8891875521649" x2="288.8891875521649" y1="0.5" y2="30"/><line opacity="0.2" x1="604.5977737136058" x2="604.5977737136058" y1="0.5" y2="30"/><line opacity="0.2" x1="413.34913049521566" x2="413.34913049521566" y1="0.5" y2="30"/><line opacity="0.2" x1="426.34500989080624" x2="426.34500989080624" y1="0.5" y2="30"/><line opacity="0.2" x1="379.3039600646212" x2="379.3039600646212" y1="0.5" y2="30"/><line opacity="0.2" x1="305.80845494560856" x2="305.80845494560856" y1="0.5" y2="30"/><line opacity="0.2" x1="431.97971088206117" x2="431.97971088206117" y1="0.5" y2="30"/><line opacity="0.2" x1="309.2534326947377" x2="309.2534326947377" y1="0.5" y2="30"/><line opacity="0.2" x1="502.06678943442967" x2="502.06678943442967" y1="0.5" y2="30"/><line opacity="0.2" x1="472.36421800677334" x2="472.36421800677334" y1="0.5" y2="30"/><line opacity="0.2" x1="347.94172654613504" x2="347.94172654613504" y1="0.5" y2="30"/><line opacity="0.2" x1="278.6505318090816" x2="278.6505318090816" y1="0.5" y2="30"/><line opacity="0.2" x1="338.1474350802246" x2="338.1474350802246" y1="0.5" y2="30"/><line opacity="0.2" x1="381.3844827568514" x2="381.3844827568514" y1="0.5" y2="30"/><line opacity="0.2" x1="369.9356829783976" x2="369.9356829783976" y1="0.5" y2="30"/><line opacity="0.2" x1="347.8303357013903" x2="347.8303357013903" y1="0.5" y2="30"/><line opacity="0.2" x1="371.0184725610411" x2="371.0184725610411" y1="0.5" y2="30"/><line opacity="0.2" x1="458.1730184187905" x2="458.1730184187905" y1="0.5" y2="30"/><line opacity="0.2" x1="443.4284238960688" x2="443.4284238960688" y1="0.5" y2="30"/><line opacity="0.2" x1="421.4116649687471" x2="421.4116649687471" y1="0.5" y2="30"/><line opacity="0.2" x1="374.4292477570839" x2="374.4292477570839" y1="0.5" y2="30"/><line opacity="0.2" x1="306.3418401692429" x2="306.3418401692429" y1="0.5" y2="30"/><line opacity="0.2" x1="381.7186363358428" x2="381.7186363358428" y1="0.5" y2="30"/><line opacity="0.2" x1="386.65556602368156" x2="386.65556602368156" y1="0.5" y2="30"/><line opacity="0.2" x1="400.9367532405089" x2="400.9367532405089" y1="0.5" y2="30"/><line opacity="0.2" x1="390.4211490428346" x2="390.4211490428346" y1="0.5" y2="30"/><line opacity="0.2" x1="337.6078194127475" x2="337.6078194127475" y1="0.5" y2="30"/><line opacity="0.2" x1="208.23844954531668" x2="208.23844954531668" y1="0.5" y2="30"/><line opacity="0.2" x1="350.33524601138333" x2="350.33524601138333" y1="0.5" y2="30"/><line opacity="0.2" x1="385.36657746866996" x2="385.36657746866996" y1="0.5" y2="30"/><line opacity="0.2" x1="357.8602997009565" x2="357.8602997009565" y1="0.5" y2="30"/><line opacity="0.2" x1="257.83884534934504" x2="257.83884534934504" y1="0.5" y2="30"/><line opacity="0.2" x1="351.95421847026097" x2="351.95421847026097" y1="0.5" y2="30"/><line opacity="0.2" x1="411.6436919138432" x2="411.6436919138432" y1="0.5" y2="30"/><line opacity="0.2" x1="489.4531503281779" x2="489.4531503281779" y1="0.5" y2="30"/><line opacity="0.2" x1="401.8599636766745" x2="401.8599636766745" y1="0.5" y2="30"/><line opacity="0.2" x1="181.43080518433715" x2="181.43080518433715" y1="0.5" y2="30"/><line opacity="0.2" x1="397.85289581659976" x2="397.85289581659976" y1="0.5" y2="30"/><line opacity="0.2" x1="160.42532733935505" x2="160.42532733935505" y1="0.5" y2="30"/><line opacity="0.2" x1="276.0498611589699" x2="276.0498611589699" y1="0.5" y2="30"/><line opacity="0.2" x1="438.5120375263908" x2="438.5120375263908" y1="0.5" y2="30"/><line opacity="0.2" x1="279.73075455998315" x2="279.73075455998315" y1="0.5" y2="30"/><line opacity="0.2" x1="293.15506842320144" x2="293.15506842320144" y1="0.5" y2="30"/><line opacity="0.2" x1="403.88098885443094" x2="403.88098885443094" y1="0.5" y2="30"/><line opacity="0.2" x1="274.4852518869096" x2="274.4852518869096" y1="0.5" y2="30"/><line opacity="0.2" x1="470.87729074616595" x2="470.87729074616595" y1="0.5" y2="30"/><line opacity="0.2" x1="356.59793913793663" x2="356.59793913793663" y1="0.5" y2="30"/><line opacity="0.2" x1="369.7558679438221" x2="369.7558679438221" y1="0.5" y2="30"/><line opacity="0.2" x1="272.8427336962309" x2="272.8427336962309" y1="0.5" y2="30"/><line opacity="0.2" x1="382.2058510710249" x2="382.2058510710249" y1="0.5" y2="30"/><line opacity="0.2" x1="417.549948061454" x2="417.549948061454" y1="0.5" y2="30"/><line opacity="0.2" x1="378.7782242298887" x2="378.7782242298887" y1="0.5" y2="30"/><line opacity="0.2" x1="328.45308747867705" x2="328.45308747867705" y1="0.5" y2="30"/><line opacity="0.2" x1="285.38586902022695" x2="285.38586902022695" y1="0.5" y2="30"/><line opacity="0.2" x1="270.11820271662975" x2="270.11820271662975" y1="0.5" y2="30"/><line opacity="0.2" x1="332.62066675848155" x2="332.62066675848155" y1="0.5" y2="30"/><line opacity="0.2" x1="328.7968697168035" x2="328.7968697168035" y1="0.5" y2="30"/><line opacity="0.2" x1="489.04381817829193" x2="489.04381817829193" y1="0.5" y2="30"/><line opacity="0.2" x1="224.15558811894817" x2="224.15558811894817" y1="0.5" y2="30"/><line opacity="0.2" x1="211.68186185286393" x2="211.68186185286393" y1="0.5" y2="30"/><line opacity="0.2" x1="492.1114337094888" x2="492.1114337094888" y1="0.5" y2="30"/><line opacity="0.2" x1="264.4802892176282" x2="264.4802892176282" y1="0.5" y2="30"/><line opacity="0.2" x1="259.57936554329467" x2="259.57936554329467" y1="0.5" y2="30"/><line opacity="0.2" x1="346.14920667343137" x2="346.14920667343137" y1="0.5" y2="30"/><line opacity="0.2" x1="305.1301696458918" x2="305.1301696458918" y1="0.5" y2="30"/><line opacity="0.2" x1="177.5552042063762" x2="177.5552042063762" y1="0.5" y2="30"/><line opacity="0.2" x1="321.20183183634845" x2="321.20183183634845" y1="0.5" y2="30"/><line opacity="0.2" x1="248.29964175325617" x2="248.29964175325617" y1="0.5" y2="30"/><line opacity="0.2" x1="452.3517642475259" x2="452.3517642475259" y1="0.5" y2="30"/><line opacity="0.2" x1="562.7718626810173" x2="562.7718626810173" y1="0.5" y2="30"/><line opacity="0.2" x1="457.9306831272411" x2="457.9306831272411" y1="0.5" y2="30"/><line opacity="0.2" x1="323.0271076256008" x2="323.0271076256008" y1="0.5" y2="30"/><line opacity="0.2" x1="385.2203163451901" x2="385.2203163451901" y1="0.5" y2="30"/><line opacity="0.2" x1="307.0451162067083" x2="307.0451162067083" y1="0.5" y2="30"/><line opacity="0.2" x1="465.702237394471" x2="465.702237394471" y1="0.5" y2="30"/><line opacity="0.2" x1="369.01566668259505" x2="369.01566668259505" y1="0.5" y2="30"/><line opacity="0.2" x1="453.50273479335885" x2="453.50273479335885" y1="0.5" y2="30"/><line opacity="0.2" x1="600.0327740440041" x2="600.0327740440041" y1="0.5" y2="30"/><line opacity="0.2" x1="125.56057102788131" x2="125.56057102788131" y1="0.5" y2="30"/><line opacity="0.2" x1="188.17988830869808" x2="188.17988830869808" y1="0.5" y2="30"/><line opacity="0.2" x1="185.52637726143175" x2="185.52637726143175" y1="0.5" y2="30"/><line opacity="0.2" x1="324.93525044440247" x2="324.93525044440247" y1="0.5" y2="30"/><line opacity="0.2" x1="298.15539552874384" x2="298.15539552874384" y1="0.5" y2="30"/><line opacity="0.2" x1="390.6830377760226" x2="390.6830377760226" y1="0.5" y2="30"/><line opacity="0.2" x1="553.4186082091624" x2="553.4186082091624" y1="0.5" y2="30"/><line opacity="0.2" x1="263.3236473652738" x2="263.3236473652738" y1="0.5" y2="30"/><line opacity="0.2" x1="322.7226733947524" x2="322.7226733947524" y1="0.5" y2="30"/><line opacity="0.2" x1="418.65730770501204" x2="418.65730770501204" y1="0.5" y2="30"/><line opacity="0.2" x1="295.3648521430957" x2="295.3648521430957" y1="0.5" y2="30"/><line opacity="0.2" x1="480.7210842786032" x2="480.7210842786032" y1="0.5" y2="30"/><line opacity="0.2" x1="354.2410032402149" x2="354.2410032402149" y1="0.5" y2="30"/><line opacity="0.2" x1="387.78393700883754" x2="387.78393700883754" y1="0.5" y2="30"/><line opacity="0.2" x1="345.15445940154916" x2="345.15445940154916" y1="0.5" y2="30"/><line opacity="0.2" x1="368.64638720478695" x2="368.64638720478695" y1="0.5" y2="30"/><line opacity="0.2" x1="368.61117106288924" x2="368.61117106288924" y1="0.5" y2="30"/><line opacity="0.2" x1="330.8937219257496" x2="330.8937219257496" y1="0.5" y2="30"/><line opacity="0.2" x1="283.83364446164126" x2="283.83364446164126" y1="0.5" y2="30"/><line opacity="0.2" x1="225.11409758129622" x2="225.11409758129622" y1="0.5" y2="30"/><line opacity="0.2" x1="490.92696625675586" x2="490.92696625675586" y1="0.5" y2="30"/><line opacity="0.2" x1="425.2172584988817" x2="425.2172584988817" y1="0.5" y2="30"/><line opacity="0.2" x1="230.9748229691569" x2="230.9748229691569" y1="0.5" y2="30"/><line opacity="0.2" x1="427.15989065285663" x2="427.15989065285663" y1="0.5" y2="30"/><line opacity="0.2" x1="413.3231315268582" x2="413.3231315268582" y1="0.5" y2="30"/><line opacity="0.2" x1="407.93963661678265" x2="407.93963661678265" y1="0.5" y2="30"/><line opacity="0.2" x1="239.6063328730914" x2="239.6063328730914" y1="0.5" y2="30"/><line opacity="0.2" x1="382.9575658175768" x2="382.9575658175768" y1="0.5" y2="30"/><line opacity="0.2" x1="605.9023318111456" x2="605.9023318111456" y1="0.5" y2="30"/><line opacity="0.2" x1="321.8879051658311" x2="321.8879051658311" y1="0.5" y2="30"/><line opacity="0.2" x1="332.7262691530083" x2="332.7262691530083" y1="0.5" y2="30"/><line opacity="0.2" x1="360.50749518603214" x2="360.50749518603214" y1="0.5" y2="30"/><line opacity="0.2" x1="408.7730301271583" x2="408.7730301271583" y1="0.5" y2="30"/><line opacity="0.2" x1="318.489842055344" x2="318.489842055344" y1="0.5" y2="30"/><line opacity="0.2" x1="316.8408311852123" x2="316.8408311852123" y1="0.5" y2="30"/><line opacity="0.2" x1="327.1957204699085" x2="327.1957204699085" y1="0.5" y2="30"/><line opacity="0.2" x1="449.08593617901477" x2="449.08593617901477" y1="0.5" y2="30"/><line opacity="0.2" x1="254.14813716557828" x2="254.14813716557828" y1="0.5" y2="30"/><line opacity="0.2" x1="397.9495563438663" x2="397.9495563438663" y1="0.5" y2="30"/><line opacity="0.2" x1="153.20062620734345" x2="153.20062620734345" y1="0.5" y2="30"/><line opacity="0.2" x1="232.31082772102292" x2="232.31082772102292" y1="0.5" y2="30"/><line opacity="0.2" x1="397.91463106933884" x2="397.91463106933884" y1="0.5" y2="30"/><line opacity="0.2" x1="310.1963094898787" x2="310.1963094898787" y1="0.5" y2="30"/><line opacity="0.2" x1="328.2255960807282" x2="328.2255960807282" y1="0.5" y2="30"/><line opacity="0.2" x1="438.66255004357635" x2="438.66255004357635" y1="0.5" y2="30"/><line opacity="0.2" x1="479.155871743684" x2="479.155871743684" y1="0.5" y2="30"/><line opacity="0.2" x1="461.81162989339896" x2="461.81162989339896" y1="0.5" y2="30"/><line opacity="0.2" x1="425.146782160335" x2="425.146782160335" y1="0.5" y2="30"/><line opacity="0.2" x1="318.5662404254854" x2="318.5662404254854" y1="0.5" y2="30"/><line opacity="0.2" x1="174.33472435217698" x2="174.33472435217698" y1="0.5" y2="30"/><line opacity="0.2" x1="164.04597133343665" x2="164.04597133343665" y1="0.5" y2="30"/><line opacity="0.2" x1="486.14471676684747" x2="486.14471676684747" y1="0.5" y2="30"/><line opacity="0.2" x1="336.14759102638925" x2="336.14759102638925" y1="0.5" y2="30"/><line opacity="0.2" x1="571.8630181986806" x2="571.8630181986806" y1="0.5" y2="30"/><line opacity="0.2" x1="300.44962449697994" x2="300.44962449697994" y1="0.5" y2="30"/><line opacity="0.2" x1="561.5864669344439" x2="561.5864669344439" y1="0.5" y2="30"/><line opacity="0.2" x1="424.12489633868563" x2="424.12489633868563" y1="0.5" y2="30"/><line opacity="0.2" x1="510.4793030989332" x2="510.4793030989332" y1="0.5" y2="30"/><line opacity="0.2" x1="290.92097547041624" x2="290.92097547041624" y1="0.5" y2="30"/><line opacity="0.2" x1="315.131643098566" x2="315.131643098566" y1="0.5" y2="30"/><line opacity="0.2" x1="416.00279564184336" x2="416.00279564184336" y1="0.5" y2="30"/><line opacity="0.2" x1="255.41002178882422" x2="255.41002178882422" y1="0.5" y2="30"/><line opacity="0.2" x1="328.8871201394751" x2="328.8871201394751" y1="0.5" y2="30"/><line opacity="0.2" x1="377.6217017400065" x2="377.6217017400065" y1="0.5" y2="30"/><line opacity="0.2" x1="354.2525146510243" x2="354.2525146510243" y1="0.5" y2="30"/><line opacity="0.2" x1="458.4209668901013" x2="458.4209668901013" y1="0.5" y2="30"/><line opacity="0.2" x1="271.75192339391936" x2="271.75192339391936" y1="0.5" y2="30"/><line opacity="0.2" x1="339.99894768254535" x2="339.99894768254535" y1="0.5" y2="30"/><line opacity="0.2" x1="331.8886823218882" x2="331.8886823218882" y1="0.5" y2="30"/><line opacity="0.2" x1="536.4208944694449" x2="536.4208944694449" y1="0.5" y2="30"/><line opacity="0.2" x1="408.4785435572136" x2="408.4785435572136" y1="0.5" y2="30"/><line opacity="0.2" x1="389.07836688699655" x2="389.07836688699655" y1="0.5" y2="30"/><line opacity="0.2" x1="439.5356666316474" x2="439.5356666316474" y1="0.5" y2="30"/><line opacity="0.2" x1="426.0367909853274" x2="426.0367909853274" y1="0.5" y2="30"/><line opacity="0.2" x1="457.0254316105316" x2="457.0254316105316" y1="0.5" y2="30"/><line opacity="0.2" x1="403.15618676020597" x2="403.15618676020597" y1="0.5" y2="30"/><line opacity="0.2" x1="226.91038617705667" x2="226.91038617705667" y1="0.5" y2="30"/><line opacity="0.2" x1="341.2647570557004" x2="341.2647570557004" y1="0.5" y2="30"/><line opacity="0.2" x1="276.7813138897972" x2="276.7813138897972" y1="0.5" y2="30"/><line opacity="0.2" x1="428.4671058849592" x2="428.4671058849592" y1="0.5" y2="30"/><line opacity="0.2" x1="194.92016506692525" x2="194.92016506692525" y1="0.5" y2="30"/><line opacity="0.2" x1="486.80655996112387" x2="486.80655996112387" y1="0.5" y2="30"/><line opacity="0.2" x1="391.7038031990149" x2="391.7038031990149" y1="0.5" y2="30"/><line opacity="0.2" x1="285.53405862547913" x2="285.53405862547913" y1="0.5" y2="30"/><line opacity="0.2" x1="368.72242289855376" x2="368.72242289855376" y1="0.5" y2="30"/><line opacity="0.2" x1="466.33498141070197" x2="466.33498141070197" y1="0.5" y2="30"/><line opacity="0.2" x1="438.6897680156836" x2="438.6897680156836" y1="0.5" y2="30"/><line opacity="0.2" x1="544.6006401482134" x2="544.6006401482134" y1="0.5" y2="30"/><line opacity="0.2" x1="423.36287902253883" x2="423.36287902253883" y1="0.5" y2="30"/><line opacity="0.2" x1="348.0952329694209" x2="348.0952329694209" y1="0.5" y2="30"/><line opacity="0.2" x1="392.3994933767086" x2="392.3994933767086" y1="0.5" y2="30"/><line opacity="0.2" x1="237.40117807631054" x2="237.40117807631054" y1="0.5" y2="30"/><line opacity="0.2" x1="372.62454038503927" x2="372.62454038503927" y1="0.5" y2="30"/><line opacity="0.2" x1="275.3795832533238" x2="275.3795832533238" y1="0.5" y2="30"/><line opacity="0.2" x1="383.6178804537552" x2="383.6178804537552" y1="0.5" y2="30"/><line opacity="0.2" x1="377.5872107571441" x2="377.5872107571441" y1="0.5" y2="30"/><line opacity="0.2" x1="289.6857314526561" x2="289.6857314526561" y1="0.5" y2="30"/><line opacity="0.2" x1="365.54301444695994" x2="365.54301444695994" y1="0.5" y2="30"/><line opacity="0.2" x1="364.4181278752673" x2="364.4181278752673" y1="0.5" y2="30"/><line opacity="0.2" x1="449.41688955835167" x2="449.41688955835167" y1="0.5" y2="30"/><line opacity="0.2" x1="465.24203405426584" x2="465.24203405426584" y1="0.5" y2="30"/><line opacity="0.2" x1="289.77836117117806" x2="289.77836117117806" y1="0.5" y2="30"/><line opacity="0.2" x1="108.9194740222271" x2="108.9194740222271" y1="0.5" y2="30"/><line opacity="0.2" x1="491.59494206216704" x2="491.59494206216704" y1="0.5" y2="30"/><line opacity="0.2" x1="425.9569145194928" x2="425.9569145194928" y1="0.5" y2="30"/><line opacity="0.2" x1="585.5693584709794" x2="585.5693584709794" y1="0.5" y2="30"/><line opacity="0.2" x1="357.71902355605994" x2="357.71902355605994" y1="0.5" y2="30"/><line opacity="0.2" x1="208.9852490687524" x2="208.9852490687524" y1="0.5" y2="30"/><line opacity="0.2" x1="520.2963097053944" x2="520.2963097053944" y1="0.5" y2="30"/><line opacity="0.2" x1="194.86551059673613" x2="194.86551059673613" y1="0.5" y2="30"/><line opacity="0.2" x1="396.79214262652624" x2="396.79214262652624" y1="0.5" y2="30"/><line opacity="0.2" x1="369.5414084963901" x2="369.5414084963901" y1="0.5" y2="30"/><line opacity="0.2" x1="332.78782180325237" x2="332.78782180325237" y1="0.5" y2="30"/><line opacity="0.2" x1="510.7132614513383" x2="510.7132614513383" y1="0.5" y2="30"/><line opacity="0.2" x1="424.1939223770069" x2="424.1939223770069" y1="0.5" y2="30"/><line opacity="0.2" x1="489.25840830509816" x2="489.25840830509816" y1="0.5" y2="30"/><line opacity="0.2" x1="620" x2="620" y1="0.5" y2="30"/><line opacity="0.2" x1="548.140315644723" x2="548.140315644723" y1="0.5" y2="30"/><line opacity="0.2" x1="313.2344477601374" x2="313.2344477601374" y1="0.5" y2="30"/><line opacity="0.2" x1="330.3655536650064" x2="330.3655536650064" y1="0.5" y2="30"/><line opacity="0.2" x1="325.56934490591084" x2="325.56934490591084" y1="0.5" y2="30"/><line opacity="0.2" x1="466.3448797786216" x2="466.3448797786216" y1="0.5" y2="30"/><line opacity="0.2" x1="352.078889395871" x2="352.078889395871" y1="0.5" y2="30"/><line opacity="0.2" x1="374.9555923760943" x2="374.9555923760943" y1="0.5" y2="30"/><line opacity="0.2" x1="371.84025142137887" x2="371.84025142137887" y1="0.5" y2="30"/><line opacity="0.2" x1="457.7683133873131" x2="457.7683133873131" y1="0.5" y2="30"/><line opacity="0.2" x1="313.9583664596022" x2="313.9583664596022" y1="0.5" y2="30"/><line opacity="0.2" x1="219.51178366841805" x2="219.51178366841805" y1="0.5" y2="30"/><line opacity="0.2" x1="460.74177425769386" x2="460.74177425769386" y1="0.5" y2="30"/><line opacity="0.2" x1="556.9627459654344" x2="556.9627459654344" y1="0.5" y2="30"/><line opacity="0.2" x1="288.549454830628" x2="288.549454830628" y1="0.5" y2="30"/><line opacity="0.2" x1="541.4777637264746" x2="541.4777637264746" y1="0.5" y2="30"/><line opacity="0.2" x1="455.92345299069945" x2="455.92345299069945" y1="0.5" y2="30"/><line opacity="0.2" x1="383.95805574979016" x2="383.95805574979016" y1="0.5" y2="30"/><line opacity="0.2" x1="458.0099746844659" x2="458.0099746844659" y1="0.5" y2="30"/><line opacity="0.2" x1="457.33757434417373" x2="457.33757434417373" y1="0.5" y2="30"/><line opacity="0.2" x1="400.6464159712024" x2="400.6464159712024" y1="0.5" y2="30"/><line opacity="0.2" x1="357.1722832546494" x2="357.1722832546494" y1="0.5" y2="30"/><line opacity="0.2" x1="503.84508109201846" x2="503.84508109201846" y1="0.5" y2="30"/><line opacity="0.2" x1="247.0530871895859" x2="247.0530871895859" y1="0.5" y2="30"/><line opacity="0.2" x1="249.94723165097847" x2="249.94723165097847" y1="0.5" y2="30"/><line opacity="0.2" x1="412.1312846537774" x2="412.1312846537774" y1="0.5" y2="30"/><line opacity="0.2" x1="459.16842333438365" x2="459.16842333438365" y1="0.5" y2="30"/><line opacity="0.2" x1="277.4674599844858" x2="277.4674599844858" y1="0.5" y2="30"/><line opacity="0.2" x1="310.32932576208117" x2="310.32932576208117" y1="0.5" y2="30"/><line opacity="0.2" x1="288.37884660885123" x2="288.37884660885123" y1="0.5" y2="30"/><line opacity="0.2" x1="319.38854402513573" x2="319.38854402513573" y1="0.5" y2="30"/><line opacity="0.2" x1="321.16077985676185" x2="321.16077985676185" y1="0.5" y2="30"/><line opacity="0.2" x1="370.30367719807526" x2="370.30367719807526" y1="0.5" y2="30"/><line opacity="0.2" x1="468.5262227249301" x2="468.5262227249301" y1="0.5" y2="30"/><line opacity="0.2" x1="366.5194555699754" x2="366.5194555699754" y1="0.5" y2="30"/><line opacity="0.2" x1="475.0770632323992" x2="475.0770632323992" y1="0.5" y2="30"/><line opacity="0.2" x1="223.85956039117204" x2="223.85956039117204" y1="0.5" y2="30"/><line opacity="0.2" x1="415.94308207388696" x2="415.94308207388696" y1="0.5" y2="30"/><line opacity="0.2" x1="382.66961194352336" x2="382.66961194352336" y1="0.5" y2="30"/><line opacity="0.2" x1="430.6575320480424" x2="430.6575320480424" y1="0.5" y2="30"/><line opacity="0.2" x1="198.2899708179261" x2="198.2899708179261" y1="0.5" y2="30"/><line opacity="0.2" x1="407.68571665319513" x2="407.68571665319513" y1="0.5" y2="30"/><line opacity="0.2" x1="422.25573497780806" x2="422.25573497780806" y1="0.5" y2="30"/><line opacity="0.2" x1="373.1984480365023" x2="373.1984480365023" y1="0.5" y2="30"/><line opacity="0.2" x1="373.21396123994106" x2="373.21396123994106" y1="0.5" y2="30"/><line opacity="0.2" x1="347.100832034334" x2="347.100832034334" y1="0.5" y2="30"/><line opacity="0.2" x1="370.8501934285368" x2="370.8501934285368" y1="0.5" y2="30"/><line opacity="0.2" x1="259.56325584636284" x2="259.56325584636284" y1="0.5" y2="30"/><line opacity="0.2" x1="531.8037923014133" x2="531.8037923014133" y1="0.5" y2="30"/><line opacity="0.2" x1="221.73681365423008" x2="221.73681365423008" y1="0.5" y2="30"/><line opacity="0.2" x1="344.3111942477552" x2="344.3111942477552" y1="0.5" y2="30"/><line opacity="0.2" x1="234.425264038691" x2="234.425264038691" y1="0.5" y2="30"/><line opacity="0.2" x1="446.16461378132567" x2="446.16461378132567" y1="0.5" y2="30"/><line opacity="0.2" x1="206.79722614745026" x2="206.79722614745026" y1="0.5" y2="30"/><line opacity="0.2" x1="431.24439307751254" x2="431.24439307751254" y1="0.5" y2="30"/><line opacity="0.2" x1="366.5758327262454" x2="366.5758327262454" y1="0.5" y2="30"/><line opacity="0.2" x1="421.63779368948826" x2="421.63779368948826" y1="0.5" y2="30"/><line opacity="0.2" x1="510.34959551056585" x2="510.34959551056585" y1="0.5" y2="30"/><line opacity="0.2" x1="581.4544415060416" x2="581.4544415060416" y1="0.5" y2="30"/><line opacity="0.2" x1="253.06844747281568" x2="253.06844747281568" y1="0.5" y2="30"/><line opacity="0.2" x1="574.3411564307246" x2="574.3411564307246" y1="0.5" y2="30"/><line opacity="0.2" x1="369.4240178547535" x2="369.4240178547535" y1="0.5" y2="30"/><line opacity="0.2" x1="382.39041179301364" x2="382.39041179301364" y1="0.5" y2="30"/><line opacity="0.2" x1="313.7160280140352" x2="313.7160280140352" y1="0.5" y2="30"/><line opacity="0.2" x1="335.4786136141303" x2="335.4786136141303" y1="0.5" y2="30"/><line opacity="0.2" x1="401.50251551481466" x2="401.50251551481466" y1="0.5" y2="30"/><line opacity="0.2" x1="422.0056833017529" x2="422.0056833017529" y1="0.5" y2="30"/><line opacity="0.2" x1="377.8294007789486" x2="377.8294007789486" y1="0.5" y2="30"/><line opacity="0.2" x1="384.54508241676564" x2="384.54508241676564" y1="0.5" y2="30"/><line opacity="0.2" x1="417.2828037074067" x2="417.2828037074067" y1="0.5" y2="30"/><line opacity="0.2" x1="191.19850448257543" x2="191.19850448257543" y1="0.5" y2="30"/><line opacity="0.2" x1="445.1584551659707" x2="445.1584551659707" y1="0.5" y2="30"/><line opacity="0.2" x1="286.8273192997865" x2="286.8273192997865" y1="0.5" y2="30"/><line opacity="0.2" x1="432.42109169457643" x2="432.42109169457643" y1="0.5" y2="30"/><line opacity="0.2" x1="295.4835040745227" x2="295.4835040745227" y1="0.5" y2="30"/><line opacity="0.2" x1="416.24992585411314" x2="416.24992585411314" y1="0.5" y2="30"/><line opacity="0.2" x1="265.4143827486064" x2="265.4143827486064" y1="0.5" y2="30"/><line opacity="0.2" x1="276.42034439066254" x2="276.42034439066254" y1="0.5" y2="30"/><line opacity="0.2" x1="384.7336601474792" x2="384.7336601474792" y1="0.5" y2="30"/><line opacity="0.2" x1="436.39159170989564" x2="436.39159170989564" y1="0.5" y2="30"/><line opacity="0.2" x1="503.478082021764" x2="503.478082021764" y1="0.5" y2="30"/><line opacity="0.2" x1="247.88591904461398" x2="247.88591904461398" y1="0.5" y2="30"/><line opacity="0.2" x1="444.8250178760962" x2="444.8250178760962" y1="0.5" y2="30"/><line opacity="0.2" x1="330.16323432008465" x2="330.16323432008465" y1="0.5" y2="30"/><line opacity="0.2" x1="394.44167282443175" x2="394.44167282443175" y1="0.5" y2="30"/><line opacity="0.2" x1="332.64679890041083" x2="332.64679890041083" y1="0.5" y2="30"/><line opacity="0.2" x1="367.31631972371696" x2="367.31631972371696" y1="0.5" y2="30"/><line opacity="0.2" x1="368.10952851114047" x2="368.10952851114047" y1="0.5" y2="30"/><line opacity="0.2" x1="433.62332440755034" x2="433.62332440755034" y1="0.5" y2="30"/><line opacity="0.2" x1="332.09887616498844" x2="332.09887616498844" y1="0.5" y2="30"/><line opacity="0.2" x1="300.3321408171279" x2="300.3321408171279" y1="0.5" y2="30"/><line opacity="0.2" x1="422.38086933368675" x2="422.38086933368675" y1="0.5" y2="30"/><line opacity="0.2" x1="488.0511667051904" x2="488.0511667051904" y1="0.5" y2="30"/><line opacity="0.2" x1="268.7820543729296" x2="268.7820543729296" y1="0.5" y2="30"/><line opacity="0.2" x1="437.12506867391613" x2="437.12506867391613" y1="0.5" y2="30"/><line opacity="0.2" x1="388.11451315663055" x2="388.11451315663055" y1="0.5" y2="30"/><line opacity="0.2" x1="379.7411538980235" x2="379.7411538980235" y1="0.5" y2="30"/><line opacity="0.2" x1="358.1319942506369" x2="358.1319942506369" y1="0.5" y2="30"/><line opacity="0.2" x1="405.4532714045923" x2="405.4532714045923" y1="0.5" y2="30"/><line opacity="0.2" x1="388.4370919620314" x2="388.4370919620314" y1="0.5" y2="30"/><line opacity="0.2" x1="456.57211556674037" x2="456.57211556674037" y1="0.5" y2="30"/><line opacity="0.2" x1="514.5418340402533" x2="514.5418340402533" y1="0.5" y2="30"/><line opacity="0.2" x1="430.40283115832653" x2="430.40283115832653" y1="0.5" y2="30"/><line opacity="0.2" x1="355.6396511384285" x2="355.6396511384285" y1="0.5" y2="30"/><line opacity="0.2" x1="196.91218841900863" x2="196.91218841900863" y1="0.5" y2="30"/><line opacity="0.2" x1="439.97916476650545" x2="439.97916476650545" y1="0.5" y2="30"/><line opacity="0.2" x1="412.838936056954" x2="412.838936056954" y1="0.5" y2="30"/><line opacity="0.2" x1="412.1130962814311" x2="412.1130962814311" y1="0.5" y2="30"/><line opacity="0.2" x1="203.16245535513883" x2="203.16245535513883" y1="0.5" y2="30"/><line opacity="0.2" x1="291.627298288399" x2="291.627298288399" y1="0.5" y2="30"/><line opacity="0.2" x1="368.51158017175067" x2="368.51158017175067" y1="0.5" y2="30"/><line opacity="0.2" x1="379.3049510660911" x2="379.3049510660911" y1="0.5" y2="30"/><line opacity="0.2" x1="576.475537614999" x2="576.475537614999" y1="0.5" y2="30"/><line opacity="0.2" x1="431.70988701008054" x2="431.70988701008054" y1="0.5" y2="30"/><line opacity="0.2" x1="278.8518261599585" x2="278.8518261599585" y1="0.5" y2="30"/><line opacity="0.2" x1="404.956800965398" x2="404.956800965398" y1="0.5" y2="30"/><line opacity="0.2" x1="319.86724305598494" x2="319.86724305598494" y1="0.5" y2="30"/><line opacity="0.2" x1="350.07776981314066" x2="350.07776981314066" y1="0.5" y2="30"/><line opacity="0.2" x1="393.97584662401425" x2="393.97584662401425" y1="0.5" y2="30"/><line opacity="0.2" x1="488.7827365509944" x2="488.7827365509944" y1="0.5" y2="30"/><line opacity="0.2" x1="475.2778629864406" x2="475.2778629864406" y1="0.5" y2="30"/><line opacity="0.2" x1="310.5155432941599" x2="310.5155432941599" y1="0.5" y2="30"/><line opacity="0.2" x1="309.66471447736944" x2="309.66471447736944" y1="0.5" y2="30"/><line opacity="0.2" x1="385.0732841024257" x2="385.0732841024257" y1="0.5" y2="30"/><line opacity="0.2" x1="464.5223252011143" x2="464.5223252011143" y1="0.5" y2="30"/><line opacity="0.2" x1="396.5362051536075" x2="396.5362051536075" y1="0.5" y2="30"/><line opacity="0.2" x1="483.5087664261261" x2="483.5087664261261" y1="0.5" y2="30"/><line opacity="0.2" x1="298.2205406382568" x2="298.2205406382568" y1="0.5" y2="30"/><line opacity="0.2" x1="311.22470614482825" x2="311.22470614482825" y1="0.5" y2="30"/><line opacity="0.2" x1="286.1099832003922" x2="286.1099832003922" y1="0.5" y2="30"/><line opacity="0.2" x1="383.49714580433766" x2="383.49714580433766" y1="0.5" y2="30"/><line opacity="0.2" x1="266.8037232777827" x2="266.8037232777827" y1="0.5" y2="30"/><line opacity="0.2" x1="349.04040481400386" x2="349.04040481400386" y1="0.5" y2="30"/><line opacity="0.2" x1="332.77733588860355" x2="332.77733588860355" y1="0.5" y2="30"/><line opacity="0.2" x1="412.49326371207303" x2="412.49326371207303" y1="0.5" y2="30"/><line opacity="0.2" x1="384.071136320075" x2="384.071136320075" y1="0.5" y2="30"/><line opacity="0.2" x1="266.4826746415179" x2="266.4826746415179" y1="0.5" y2="30"/><line opacity="0.2" x1="463.0218557541622" x2="463.0218557541622" y1="0.5" y2="30"/><line opacity="0.2" x1="495.6069085876333" x2="495.6069085876333" y1="0.5" y2="30"/><line opacity="0.2" x1="391.7435998229642" x2="391.7435998229642" y1="0.5" y2="30"/><line opacity="0.2" x1="355.9502437539543" x2="355.9502437539543" y1="0.5" y2="30"/><line opacity="0.2" x1="385.51580818998644" x2="385.51580818998644" y1="0.5" y2="30"/><line opacity="0.2" x1="249.32690106969102" x2="249.32690106969102" y1="0.5" y2="30"/><line opacity="0.2" x1="410.8128530607533" x2="410.8128530607533" y1="0.5" y2="30"/><line opacity="0.2" x1="490.3886294319371" x2="490.3886294319371" y1="0.5" y2="30"/><line opacity="0.2" x1="366.3065929653399" x2="366.3065929653399" y1="0.5" y2="30"/><line opacity="0.2" x1="385.265810956338" x2="385.265810956338" y1="0.5" y2="30"/><line opacity="0.2" x1="511.1488758532833" x2="511.1488758532833" y1="0.5" y2="30"/><line opacity="0.2" x1="248.9575634778526" x2="248.9575634778526" y1="0.5" y2="30"/><line opacity="0.2" x1="387.5138548771442" x2="387.5138548771442" y1="0.5" y2="30"/><line opacity="0.2" x1="339.4580034108387" x2="339.4580034108387" y1="0.5" y2="30"/><line opacity="0.2" x1="380.5711052456474" x2="380.5711052456474" y1="0.5" y2="30"/><line opacity="0.2" x1="402.798672916995" x2="402.798672916995" y1="0.5" y2="30"/><line opacity="0.2" x1="372.4103233050829" x2="372.4103233050829" y1="0.5" y2="30"/><line opacity="0.2" x1="356.8052173057313" x2="356.8052173057313" y1="0.5" y2="30"/><line opacity="0.2" x1="215.06310930676472" x2="215.06310930676472" y1="0.5" y2="30"/><line opacity="0.2" x1="464.7567027888216" x2="464.7567027888216" y1="0.5" y2="30"/><line opacity="0.2" x1="275.95837881931925" x2="275.95837881931925" y1="0.5" y2="30"/><line opacity="0.2" x1="340.55020162495754" x2="340.55020162495754" y1="0.5" y2="30"/><line opacity="0.2" x1="371.8174811295075" x2="371.8174811295075" y1="0.5" y2="30"/><line opacity="0.2" x1="430.25193312231323" x2="430.25193312231323" y1="0.5" y2="30"/><line opacity="0.2" x1="380.8694602291808" x2="380.8694602291808" y1="0.5" y2="30"/><line opacity="0.2" x1="276.05758903560627" x2="276.05758903560627" y1="0.5" y2="30"/><line opacity="0.2" x1="405.8750212148475" x2="405.8750212148475" y1="0.5" y2="30"/><line opacity="0.2" x1="379.6552598121942" x2="379.6552598121942" y1="0.5" y2="30"/><line opacity="0.2" x1="401.51815964119083" x2="401.51815964119083" y1="0.5" y2="30"/><line opacity="0.2" x1="292.1240830399672" x2="292.1240830399672" y1="0.5" y2="30"/><line opacity="0.2" x1="346.1953788436317" x2="346.1953788436317" y1="0.5" y2="30"/><line opacity="0.2" x1="343.9254668791395" x2="343.9254668791395" y1="0.5" y2="30"/><line opacity="0.2" x1="352.7289951076182" x2="352.7289951076182" y1="0.5" y2="30"/><line opacity="0.2" x1="310.6815486013748" x2="310.6815486013748" y1="0.5" y2="30"/><line opacity="0.2" x1="355.16337445406623" x2="355.16337445406623" y1="0.5" y2="30"/><line opacity="0.2" x1="387.8289892912598" x2="387.8289892912598" y1="0.5" y2="30"/><line opacity="0.2" x1="407.9403282562114" x2="407.9403282562114" y1="0.5" y2="30"/><line opacity="0.2" x1="341.6995832273661" x2="341.6995832273661" y1="0.5" y2="30"/><line opacity="0.2" x1="272.9510263044024" x2="272.9510263044024" y1="0.5" y2="30"/><line opacity="0.2" x1="439.61605611724536" x2="439.61605611724536" y1="0.5" y2="30"/><line opacity="0.2" x1="381.5484968466966" x2="381.5484968466966" y1="0.5" y2="30"/><line opacity="0.2" x1="372.96431244353124" x2="372.96431244353124" y1="0.5" y2="30"/><line opacity="0.2" x1="456.65323578697405" x2="456.65323578697405" y1="0.5" y2="30"/><line opacity="0.2" x1="430.40271399385654" x2="430.40271399385654" y1="0.5" y2="30"/><line opacity="0.2" x1="381.3976426596487" x2="381.3976426596487" y1="0.5" y2="30"/><line opacity="0.2" x1="188.36271652450907" x2="188.36271652450907" y1="0.5" y2="30"/><line opacity="0.2" x1="439.3389208883054" x2="439.3389208883054" y1="0.5" y2="30"/><line opacity="0.2" x1="319.12944684165666" x2="319.12944684165666" y1="0.5" y2="30"/><line opacity="0.2" x1="517.136686938842" x2="517.136686938842" y1="0.5" y2="30"/><line opacity="0.2" x1="263.75613436718083" x2="263.75613436718083" y1="0.5" y2="30"/><line opacity="0.2" x1="378.0210973208172" x2="378.0210973208172" y1="0.5" y2="30"/><line opacity="0.2" x1="336.9827751750946" x2="336.9827751750946" y1="0.5" y2="30"/><line opacity="0.2" x1="318.5842328201278" x2="318.5842328201278" y1="0.5" y2="30"/><line opacity="0.2" x1="425.559665291412" x2="425.559665291412" y1="0.5" y2="30"/><line opacity="0.2" x1="616.8867373683598" x2="616.8867373683598" y1="0.5" y2="30"/><line opacity="0.2" x1="430.1796182829321" x2="430.1796182829321" y1="0.5" y2="30"/><line opacity="0.2" x1="367.88461311287375" x2="367.88461311287375" y1="0.5" y2="30"/><line opacity="0.2" x1="394.9031293584782" x2="394.9031293584782" y1="0.5" y2="30"/><line opacity="0.2" x1="469.40766685366805" x2="469.40766685366805" y1="0.5" y2="30"/><line opacity="0.2" x1="393.6542123408021" x2="393.6542123408021" y1="0.5" y2="30"/><line opacity="0.2" x1="407.5680732109016" x2="407.5680732109016" y1="0.5" y2="30"/><line opacity="0.2" x1="379.44387636520025" x2="379.44387636520025" y1="0.5" y2="30"/><line opacity="0.2" x1="451.75005179106137" x2="451.75005179106137" y1="0.5" y2="30"/><line opacity="0.2" x1="440.4469642872714" x2="440.4469642872714" y1="0.5" y2="30"/><line opacity="0.2" x1="347.0777408912863" x2="347.0777408912863" y1="0.5" y2="30"/><line opacity="0.2" x1="425.1056980883254" x2="425.1056980883254" y1="0.5" y2="30"/><line opacity="0.2" x1="415.81949904443707" x2="415.81949904443707" y1="0.5" y2="30"/><line opacity="0.2" x1="418.3183482593526" x2="418.3183482593526" y1="0.5" y2="30"/><line opacity="0.2" x1="318.04922779341166" x2="318.04922779341166" y1="0.5" y2="30"/><line opacity="0.2" x1="238.23367527530365" x2="238.23367527530365" y1="0.5" y2="30"/><line opacity="0.2" x1="374.69436666436457" x2="374.69436666436457" y1="0.5" y2="30"/><line opacity="0.2" x1="515.8379954232206" x2="515.8379954232206" y1="0.5" y2="30"/><line opacity="0.2" x1="319.83996734880907" x2="319.83996734880907" y1="0.5" y2="30"/><line opacity="0.2" x1="455.13372416222273" x2="455.13372416222273" y1="0.5" y2="30"/><line opacity="0.2" x1="423.06246397413236" x2="423.06246397413236" y1="0.5" y2="30"/><line opacity="0.2" x1="462.17197438963046" x2="462.17197438963046" y1="0.5" y2="30"/><line opacity="0.2" x1="361.8949583906368" x2="361.8949583906368" y1="0.5" y2="30"/><line opacity="0.2" x1="481.228827268274" x2="481.228827268274" y1="0.5" y2="30"/><line opacity="0.2" x1="376.2087927175354" x2="376.2087927175354" y1="0.5" y2="30"/><line opacity="0.2" x1="367.00776447082285" x2="367.00776447082285" y1="0.5" y2="30"/><line opacity="0.2" x1="408.54352738483556" x2="408.54352738483556" y1="0.5" y2="30"/><line opacity="0.2" x1="469.23454785844467" x2="469.23454785844467" y1="0.5" y2="30"/><line opacity="0.2" x1="544.1723437184678" x2="544.1723437184678" y1="0.5" y2="30"/><line opacity="0.2" x1="419.98982066409224" x2="419.98982066409224" y1="0.5" y2="30"/><line opacity="0.2" x1="556.9355601600921" x2="556.9355601600921" y1="0.5" y2="30"/><line opacity="0.2" x1="347.33524224071647" x2="347.33524224071647" y1="0.5" y2="30"/><line opacity="0.2" x1="439.7041910058222" x2="439.7041910058222" y1="0.5" y2="30"/><line opacity="0.2" x1="347.8587439723315" x2="347.8587439723315" y1="0.5" y2="30"/><line opacity="0.2" x1="395.91222236026204" x2="395.91222236026204" y1="0.5" y2="30"/><line opacity="0.2" x1="374.2529444652852" x2="374.2529444652852" y1="0.5" y2="30"/><line opacity="0.2" x1="456.7504716576918" x2="456.7504716576918" y1="0.5" y2="30"/><line opacity="0.2" x1="616.536136095156" x2="616.536136095156" y1="0.5" y2="30"/><line opacity="0.2" x1="505.4532047991175" x2="505.4532047991175" y1="0.5" y2="30"/><line opacity="0.2" x1="220.78845361893067" x2="220.78845361893067" y1="0.5" y2="30"/><line opacity="0.2" x1="413.99450843088584" x2="413.99450843088584" y1="0.5" y2="30"/><line opacity="0.2" x1="355.77863968356405" x2="355.77863968356405" y1="0.5" y2="30"/><line opacity="0.2" x1="491.79711989198836" x2="491.79711989198836" y1="0.5" y2="30"/><line opacity="0.2" x1="282.9001983255772" x2="282.9001983255772" y1="0.5" y2="30"/><line opacity="0.2" x1="425.50242317239935" x2="425.50242317239935" y1="0.5" y2="30"/><line opacity="0.2" x1="327.3226764495492" x2="327.3226764495492" y1="0.5" y2="30"/><line opacity="0.2" x1="358.2734046200564" x2="358.2734046200564" y1="0.5" y2="30"/><line opacity="0.2" x1="282.9261766156158" x2="282.9261766156158" y1="0.5" y2="30"/><line opacity="0.2" x1="299.87342929020434" x2="299.87342929020434" y1="0.5" y2="30"/><line opacity="0.2" x1="340.6805348063043" x2="340.6805348063043" y1="0.5" y2="30"/><line opacity="0.2" x1="348.1488859899995" x2="348.1488859899995" y1="0.5" y2="30"/><line opacity="0.2" x1="476.09691365342974" x2="476.09691365342974" y1="0.5" y2="30"/><line opacity="0.2" x1="308.83074790450416" x2="308.83074790450416" y1="0.5" y2="30"/><line opacity="0.2" x1="316.9929158875203" x2="316.9929158875203" y1="0.5" y2="30"/><line opacity="0.2" x1="445.07431871643155" x2="445.07431871643155" y1="0.5" y2="30"/><line opacity="0.2" x1="458.6912715597541" x2="458.6912715597541" y1="0.5" y2="30"/><line opacity="0.2" x1="134.72789843063347" x2="134.72789843063347" y1="0.5" y2="30"/><line opacity="0.2" x1="415.34549989754413" x2="415.34549989754413" y1="0.5" y2="30"/><line opacity="0.2" x1="448.7362431471782" x2="448.7362431471782" y1="0.5" y2="30"/><line opacity="0.2" x1="375.8738977092627" x2="375.8738977092627" y1="0.5" y2="30"/><line opacity="0.2" x1="571.6598891941719" x2="571.6598891941719" y1="0.5" y2="30"/><line opacity="0.2" x1="347.0503892844631" x2="347.0503892844631" y1="0.5" y2="30"/><line opacity="0.2" x1="442.66953036704007" x2="442.66953036704007" y1="0.5" y2="30"/><line opacity="0.2" x1="320.9293410373253" x2="320.9293410373253" y1="0.5" y2="30"/><line opacity="0.2" x1="341.29561040627175" x2="341.29561040627175" y1="0.5" y2="30"/><line opacity="0.2" x1="372.6144526753282" x2="372.6144526753282" y1="0.5" y2="30"/><line opacity="0.2" x1="504.0634364454837" x2="504.0634364454837" y1="0.5" y2="30"/><line opacity="0.2" x1="333.54638402119156" x2="333.54638402119156" y1="0.5" y2="30"/><line opacity="0.2" x1="452.3166652756431" x2="452.3166652756431" y1="0.5" y2="30"/><line opacity="0.2" x1="386.4774464211391" x2="386.4774464211391" y1="0.5" y2="30"/><line opacity="0.2" x1="492.43456872638984" x2="492.43456872638984" y1="0.5" y2="30"/><line opacity="0.2" x1="299.52860465996525" x2="299.52860465996525" y1="0.5" y2="30"/><line opacity="0.2" x1="512.5178835151476" x2="512.5178835151476" y1="0.5" y2="30"/><line opacity="0.2" x1="239.319886055281" x2="239.319886055281" y1="0.5" y2="30"/><line opacity="0.2" x1="348.5919272407593" x2="348.5919272407593" y1="0.5" y2="30"/><line opacity="0.2" x1="284.60461867078516" x2="284.60461867078516" y1="0.5" y2="30"/><line opacity="0.2" x1="381.47238775790663" x2="381.47238775790663" y1="0.5" y2="30"/><line opacity="0.2" x1="433.94072994320754" x2="433.94072994320754" y1="0.5" y2="30"/><line opacity="0.2" x1="353.24704709218054" x2="353.24704709218054" y1="0.5" y2="30"/><line opacity="0.2" x1="328.54638922474396" x2="328.54638922474396" y1="0.5" y2="30"/><line opacity="0.2" x1="345.9115249135281" x2="345.9115249135281" y1="0.5" y2="30"/><line opacity="0.2" x1="409.97788964998887" x2="409.97788964998887" y1="0.5" y2="30"/><line opacity="0.2" x1="420.5462531754403" x2="420.5462531754403" y1="0.5" y2="30"/><line opacity="0.2" x1="490.6936139100043" x2="490.6936139100043" y1="0.5" y2="30"/><line opacity="0.2" x1="408.08111900148515" x2="408.08111900148515" y1="0.5" y2="30"/><line opacity="0.2" x1="432.4764483111187" x2="432.4764483111187" y1="0.5" y2="30"/><line opacity="0.2" x1="380.3430312537975" x2="380.3430312537975" y1="0.5" y2="30"/><line opacity="0.2" x1="415.2921615427272" x2="415.2921615427272" y1="0.5" y2="30"/><line opacity="0.2" x1="379.41037878400994" x2="379.41037878400994" y1="0.5" y2="30"/><line opacity="0.2" x1="366.1971685848786" x2="366.1971685848786" y1="0.5" y2="30"/><line opacity="0.2" x1="419.5071125532772" x2="419.5071125532772" y1="0.5" y2="30"/><line opacity="0.2" x1="260.681096948789" x2="260.681096948789" y1="0.5" y2="30"/><line opacity="0.2" x1="314.97281162762266" x2="314.97281162762266" y1="0.5" y2="30"/><line opacity="0.2" x1="472.6830004066715" x2="472.6830004066715" y1="0.5" y2="30"/><line opacity="0.2" x1="154.634356395336" x2="154.634356395336" y1="0.5" y2="30"/><line opacity="0.2" x1="401.04566446357035" x2="401.04566446357035" y1="0.5" y2="30"/><line opacity="0.2" x1="442.88339459216996" x2="442.88339459216996" y1="0.5" y2="30"/><line opacity="0.2" x1="310.6234617511644" x2="310.6234617511644" y1="0.5" y2="30"/><line opacity="0.2" x1="411.8591336215113" x2="411.8591336215113" y1="0.5" y2="30"/><line opacity="0.2" x1="404.99335497315417" x2="404.99335497315417" y1="0.5" y2="30"/><line opacity="0.2" x1="349.57821029512405" x2="349.57821029512405" y1="0.5" y2="30"/><line opacity="0.2" x1="433.6004431496053" x2="433.6004431496053" y1="0.5" y2="30"/><line opacity="0.2" x1="406.1960864755673" x2="406.1960864755673" y1="0.5" y2="30"/><line opacity="0.2" x1="461.72463700075497" x2="461.72463700075497" y1="0.5" y2="30"/><line opacity="0.2" x1="379.55559560880823" x2="379.55559560880823" y1="0.5" y2="30"/><line opacity="0.2" x1="300.9295129542086" x2="300.9295129542086" y1="0.5" y2="30"/><line opacity="0.2" x1="380.2159215022471" x2="380.2159215022471" y1="0.5" y2="30"/><line opacity="0.2" x1="381.8133497380616" x2="381.8133497380616" y1="0.5" y2="30"/><line opacity="0.2" x1="445.23941574156873" x2="445.23941574156873" y1="0.5" y2="30"/><line opacity="0.2" x1="263.1169304521391" x2="263.1169304521391" y1="0.5" y2="30"/><line opacity="0.2" x1="246.456722033219" x2="246.456722033219" y1="0.5" y2="30"/><line opacity="0.2" x1="294.9487247487448" x2="294.9487247487448" y1="0.5" y2="30"/><line opacity="0.2" x1="365.19445344591736" x2="365.19445344591736" y1="0.5" y2="30"/><line opacity="0.2" x1="400.3551177054047" x2="400.3551177054047" y1="0.5" y2="30"/><line opacity="0.2" x1="516.4539079596775" x2="516.4539079596775" y1="0.5" y2="30"/><line opacity="0.2" x1="552.2547334970044" x2="552.2547334970044" y1="0.5" y2="30"/><line opacity="0.2" x1="469.2845425477697" x2="469.2845425477697" y1="0.5" y2="30"/><line opacity="0.2" x1="370.2262094619987" x2="370.2262094619987" y1="0.5" y2="30"/><line opacity="0.2" x1="451.53003547886675" x2="451.53003547886675" y1="0.5" y2="30"/><line opacity="0.2" x1="282.35062439957835" x2="282.35062439957835" y1="0.5" y2="30"/><line opacity="0.2" x1="527.6168961676561" x2="527.6168961676561" y1="0.5" y2="30"/><line opacity="0.2" x1="193.20039489010847" x2="193.20039489010847" y1="0.5" y2="30"/><line opacity="0.2" x1="326.3972977359153" x2="326.3972977359153" y1="0.5" y2="30"/><line opacity="0.2" x1="404.67135135118286" x2="404.67135135118286" y1="0.5" y2="30"/><line opacity="0.2" x1="448.00450533101036" x2="448.00450533101036" y1="0.5" y2="30"/><line opacity="0.2" x1="487.4660205561771" x2="487.4660205561771" y1="0.5" y2="30"/><line opacity="0.2" x1="392.69778418692727" x2="392.69778418692727" y1="0.5" y2="30"/><line opacity="0.2" x1="400.2522868738098" x2="400.2522868738098" y1="0.5" y2="30"/><line opacity="0.2" x1="449.0464832073494" x2="449.0464832073494" y1="0.5" y2="30"/><line opacity="0.2" x1="435.93846565027405" x2="435.93846565027405" y1="0.5" y2="30"/><line opacity="0.2" x1="408.76381573139713" x2="408.76381573139713" y1="0.5" y2="30"/><line opacity="0.2" x1="573.0705419641" x2="573.0705419641" y1="0.5" y2="30"/><line opacity="0.2" x1="546.6656290791084" x2="546.6656290791084" y1="0.5" y2="30"/><line opacity="0.2" x1="452.11585247542615" x2="452.11585247542615" y1="0.5" y2="30"/><line opacity="0.2" x1="574.0328759692759" x2="574.0328759692759" y1="0.5" y2="30"/><line opacity="0.2" x1="358.7211721085621" x2="358.7211721085621" y1="0.5" y2="30"/><line opacity="0.2" x1="173.55496425556453" x2="173.55496425556453" y1="0.5" y2="30"/><line opacity="0.2" x1="401.9094426432524" x2="401.9094426432524" y1="0.5" y2="30"/><line opacity="0.2" x1="371.38942767399584" x2="371.38942767399584" y1="0.5" y2="30"/><line opacity="0.2" x1="308.37328014637984" x2="308.37328014637984" y1="0.5" y2="30"/><line opacity="0.2" x1="209.71583237162838" x2="209.71583237162838" y1="0.5" y2="30"/><line opacity="0.2" x1="395.8210687247242" x2="395.8210687247242" y1="0.5" y2="30"/><line opacity="0.2" x1="421.248105099731" x2="421.248105099731" y1="0.5" y2="30"/><line opacity="0.2" x1="424.9675762524631" x2="424.9675762524631" y1="0.5" y2="30"/><line opacity="0.2" x1="537.5222301344858" x2="537.5222301344858" y1="0.5" y2="30"/><line opacity="0.2" x1="396.6677842924436" x2="396.6677842924436" y1="0.5" y2="30"/><line opacity="0.2" x1="312.03455175470873" x2="312.03455175470873" y1="0.5" y2="30"/><line opacity="0.2" x1="390.25737936917585" x2="390.25737936917585" y1="0.5" y2="30"/><line opacity="0.2" x1="284.38412503870404" x2="284.38412503870404" y1="0.5" y2="30"/><line opacity="0.2" x1="494.5783328741939" x2="494.5783328741939" y1="0.5" y2="30"/><line opacity="0.2" x1="189.2878128957253" x2="189.2878128957253" y1="0.5" y2="30"/><line opacity="0.2" x1="406.58361315121687" x2="406.58361315121687" y1="0.5" y2="30"/><line opacity="0.2" x1="435.864573549948" x2="435.864573549948" y1="0.5" y2="30"/><line opacity="0.2" x1="340.2693211873897" x2="340.2693211873897" y1="0.5" y2="30"/><line opacity="0.2" x1="237.18600530346953" x2="237.18600530346953" y1="0.5" y2="30"/><line opacity="0.2" x1="431.8259539646245" x2="431.8259539646245" y1="0.5" y2="30"/><line opacity="0.2" x1="427.42001201523027" x2="427.42001201523027" y1="0.5" y2="30"/><line opacity="0.2" x1="416.89222710440635" x2="416.89222710440635" y1="0.5" y2="30"/><line opacity="0.2" x1="356.81857646544427" x2="356.81857646544427" y1="0.5" y2="30"/><line opacity="0.2" x1="230.91850132089243" x2="230.91850132089243" y1="0.5" y2="30"/><line opacity="0.2" x1="414.0851591644695" x2="414.0851591644695" y1="0.5" y2="30"/><line opacity="0.2" x1="332.66428341385614" x2="332.66428341385614" y1="0.5" y2="30"/><line opacity="0.2" x1="420.2276052198358" x2="420.2276052198358" y1="0.5" y2="30"/><line opacity="0.2" x1="140.89425166132753" x2="140.89425166132753" y1="0.5" y2="30"/><line opacity="0.2" x1="443.99197253359273" x2="443.99197253359273" y1="0.5" y2="30"/><line opacity="0.2" x1="455.7786505954168" x2="455.7786505954168" y1="0.5" y2="30"/><line opacity="0.2" x1="468.9133874210475" x2="468.9133874210475" y1="0.5" y2="30"/><line opacity="0.2" x1="250.24741676372443" x2="250.24741676372443" y1="0.5" y2="30"/><line opacity="0.2" x1="388.7722672344412" x2="388.7722672344412" y1="0.5" y2="30"/><line opacity="0.2" x1="330.8278220745831" x2="330.8278220745831" y1="0.5" y2="30"/><line opacity="0.2" x1="214.39483625103173" x2="214.39483625103173" y1="0.5" y2="30"/><line opacity="0.2" x1="412.2788819816127" x2="412.2788819816127" y1="0.5" y2="30"/><line opacity="0.2" x1="453.2662261525191" x2="453.2662261525191" y1="0.5" y2="30"/><line opacity="0.2" x1="368.19493149308676" x2="368.19493149308676" y1="0.5" y2="30"/><line opacity="0.2" x1="469.5113332935839" x2="469.5113332935839" y1="0.5" y2="30"/><line opacity="0.2" x1="241.4880039986347" x2="241.4880039986347" y1="0.5" y2="30"/><line opacity="0.2" x1="318.85852101079377" x2="318.85852101079377" y1="0.5" y2="30"/><line opacity="0.2" x1="282.6233037290472" x2="282.6233037290472" y1="0.5" y2="30"/><line opacity="0.2" x1="258.3179221750803" x2="258.3179221750803" y1="0.5" y2="30"/><line opacity="0.2" x1="352.5025780848841" x2="352.5025780848841" y1="0.5" y2="30"/><line opacity="0.2" x1="489.8421035061642" x2="489.8421035061642" y1="0.5" y2="30"/><line opacity="0.2" x1="418.0064889017783" x2="418.0064889017783" y1="0.5" y2="30"/><line opacity="0.2" x1="358.6365883427526" x2="358.6365883427526" y1="0.5" y2="30"/><line opacity="0.2" x1="227.8740259236924" x2="227.8740259236924" y1="0.5" y2="30"/><line opacity="0.2" x1="495.86931860712605" x2="495.86931860712605" y1="0.5" y2="30"/><line opacity="0.2" x1="313.9257166710354" x2="313.9257166710354" y1="0.5" y2="30"/><line opacity="0.2" x1="300.84535612707094" x2="300.84535612707094" y1="0.5" y2="30"/><line opacity="0.2" x1="324.12393731095165" x2="324.12393731095165" y1="0.5" y2="30"/><line opacity="0.2" x1="342.3066922932087" x2="342.3066922932087" y1="0.5" y2="30"/><line opacity="0.2" x1="269.45176393439493" x2="269.45176393439493" y1="0.5" y2="30"/><line opacity="0.2" x1="466.0936424143023" x2="466.0936424143023" y1="0.5" y2="30"/><line opacity="0.2" x1="480.2064502457082" x2="480.2064502457082" y1="0.5" y2="30"/><line opacity="0.2" x1="429.26664678671654" x2="429.26664678671654" y1="0.5" y2="30"/><line opacity="0.2" x1="247.27176000420354" x2="247.27176000420354" y1="0.5" y2="30"/><line opacity="0.2" x1="411.6186149666936" x2="411.6186149666936" y1="0.5" y2="30"/><line opacity="0.2" x1="539.8671192682972" x2="539.8671192682972" y1="0.5" y2="30"/><line opacity="0.2" x1="375.44217136196136" x2="375.44217136196136" y1="0.5" y2="30"/><line opacity="0.2" x1="296.96029034825193" x2="296.96029034825193" y1="0.5" y2="30"/><line opacity="0.2" x1="249.81407162822492" x2="249.81407162822492" y1="0.5" y2="30"/><line opacity="0.2" x1="393.61164336366556" x2="393.61164336366556" y1="0.5" y2="30"/><line opacity="0.2" x1="495.33270786499537" x2="495.33270786499537" y1="0.5" y2="30"/><line opacity="0.2" x1="389.8705594434456" x2="389.8705594434456" y1="0.5" y2="30"/><line opacity="0.2" x1="386.0610094717072" x2="386.0610094717072" y1="0.5" y2="30"/><line opacity="0.2" x1="385.67649010882525" x2="385.67649010882525" y1="0.5" y2="30"/><line opacity="0.2" x1="335.9477956859626" x2="335.9477956859626" y1="0.5" y2="30"/><line opacity="0.2" x1="354.8081255298108" x2="354.8081255298108" y1="0.5" y2="30"/><line opacity="0.2" x1="209.5692372461126" x2="209.5692372461126" y1="0.5" y2="30"/><line opacity="0.2" x1="240.77096168246206" x2="240.77096168246206" y1="0.5" y2="30"/><line opacity="0.2" x1="546.000310901538" x2="546.000310901538" y1="0.5" y2="30"/><line opacity="0.2" x1="341.60941344280036" x2="341.60941344280036" y1="0.5" y2="30"/><line opacity="0.2" x1="315.67684445648234" x2="315.67684445648234" y1="0.5" y2="30"/><line opacity="0.2" x1="423.6581389283374" x2="423.6581389283374" y1="0.5" y2="30"/><line opacity="0.2" x1="353.0295913330382" x2="353.0295913330382" y1="0.5" y2="30"/><line opacity="0.2" x1="400.0590742393608" x2="400.0590742393608" y1="0.5" y2="30"/><line opacity="0.2" x1="472.6423835231108" x2="472.6423835231108" y1="0.5" y2="30"/><line opacity="0.2" x1="460.4517358432183" x2="460.4517358432183" y1="0.5" y2="30"/><line opacity="0.2" x1="531.2312003181326" x2="531.2312003181326" y1="0.5" y2="30"/><line opacity="0.2" x1="467.84840579137693" x2="467.84840579137693" y1="0.5" y2="30"/><line opacity="0.2" x1="347.51607207661345" x2="347.51607207661345" y1="0.5" y2="30"/><line opacity="0.2" x1="455.85324192022136" x2="455.85324192022136" y1="0.5" y2="30"/><line opacity="0.2" x1="432.09000330093966" x2="432.09000330093966" y1="0.5" y2="30"/><line opacity="0.2" x1="404.4788570571244" x2="404.4788570571244" y1="0.5" y2="30"/><line opacity="0.2" x1="404.3591180306677" x2="404.3591180306677" y1="0.5" y2="30"/><line opacity="0.2" x1="327.8103641701813" x2="327.8103641701813" y1="0.5" y2="30"/><line opacity="0.2" x1="440.7426671222581" x2="440.7426671222581" y1="0.5" y2="30"/><line opacity="0.2" x1="343.8752843632439" x2="343.8752843632439" y1="0.5" y2="30"/><line opacity="0.2" x1="314.2790829387949" x2="314.2790829387949" y1="0.5" y2="30"/><line opacity="0.2" x1="241.151061945682" x2="241.151061945682" y1="0.5" y2="30"/><line opacity="0.2" x1="481.6187662689254" x2="481.6187662689254" y1="0.5" y2="30"/><line opacity="0.2" x1="498.17501946562214" x2="498.17501946562214" y1="0.5" y2="30"/><line opacity="0.2" x1="363.9228734567958" x2="363.9228734567958" y1="0.5" y2="30"/><line opacity="0.2" x1="262.3313198586382" x2="262.3313198586382" y1="0.5" y2="30"/><line opacity="0.2" x1="369.93654478228893" x2="369.93654478228893" y1="0.5" y2="30"/><line opacity="0.2" x1="403.7043433382013" x2="403.7043433382013" y1="0.5" y2="30"/><line opacity="0.2" x1="265.5005588775224" x2="265.5005588775224" y1="0.5" y2="30"/><line opacity="0.2" x1="387.38473988145387" x2="387.38473988145387" y1="0.5" y2="30"/><line opacity="0.2" x1="371.52314924767313" x2="371.52314924767313" y1="0.5" y2="30"/><line opacity="0.2" x1="448.6268545038556" x2="448.6268545038556" y1="0.5" y2="30"/><line opacity="0.2" x1="481.8793782456268" x2="481.8793782456268" y1="0.5" y2="30"/><line opacity="0.2" x1="334.0184195961321" x2="334.0184195961321" y1="0.5" y2="30"/><line opacity="0.2" x1="415.5422692374197" x2="415.5422692374197" y1="0.5" y2="30"/><line opacity="0.2" x1="394.37096381594205" x2="394.37096381594205" y1="0.5" y2="30"/><line opacity="0.2" x1="411.5238672180452" x2="411.5238672180452" y1="0.5" y2="30"/><line opacity="0.2" x1="402.33047503011164" x2="402.33047503011164" y1="0.5" y2="30"/><line opacity="0.2" x1="611.5358991463044" x2="611.5358991463044" y1="0.5" y2="30"/><line opacity="0.2" x1="432.1751943731943" x2="432.1751943731943" y1="0.5" y2="30"/><line opacity="0.2" x1="269.67476668989957" x2="269.67476668989957" y1="0.5" y2="30"/><line opacity="0.2" x1="376.445217015649" x2="376.445217015649" y1="0.5" y2="30"/><line opacity="0.2" x1="301.6281460556846" x2="301.6281460556846" y1="0.5" y2="30"/><line opacity="0.2" x1="389.5693068879669" x2="389.5693068879669" y1="0.5" y2="30"/><line opacity="0.2" x1="531.278157580695" x2="531.278157580695" y1="0.5" y2="30"/><line opacity="0.2" x1="510.9486090131719" x2="510.9486090131719" y1="0.5" y2="30"/><line opacity="0.2" x1="391.5203352020428" x2="391.5203352020428" y1="0.5" y2="30"/><line opacity="0.2" x1="369.0340238568406" x2="369.0340238568406" y1="0.5" y2="30"/><line opacity="0.2" x1="303.64704983122334" x2="303.64704983122334" y1="0.5" y2="30"/><line opacity="0.2" x1="382.6018779575324" x2="382.6018779575324" y1="0.5" y2="30"/><line opacity="0.2" x1="307.04122266660704" x2="307.04122266660704" y1="0.5" y2="30"/><line opacity="0.2" x1="301.58967159696476" x2="301.58967159696476" y1="0.5" y2="30"/><line opacity="0.2" x1="486.3911581397514" x2="486.3911581397514" y1="0.5" y2="30"/><line opacity="0.2" x1="376.2645679931954" x2="376.2645679931954" y1="0.5" y2="30"/><line opacity="0.2" x1="304.4864883692322" x2="304.4864883692322" y1="0.5" y2="30"/><line opacity="0.2" x1="273.8063061128954" x2="273.8063061128954" y1="0.5" y2="30"/><line opacity="0.2" x1="276.22079325652936" x2="276.22079325652936" y1="0.5" y2="30"/><line opacity="0.2" x1="387.256701243706" x2="387.256701243706" y1="0.5" y2="30"/><line opacity="0.2" x1="364.76090336124156" x2="364.76090336124156" y1="0.5" y2="30"/><line opacity="0.2" x1="536.1008520698432" x2="536.1008520698432" y1="0.5" y2="30"/><line opacity="0.2" x1="574.2079610271169" x2="574.2079610271169" y1="0.5" y2="30"/><line opacity="0.2" x1="318.7201242412034" x2="318.7201242412034" y1="0.5" y2="30"/><line opacity="0.2" x1="235.0271040700074" x2="235.0271040700074" y1="0.5" y2="30"/><line opacity="0.2" x1="461.64583625953554" x2="461.64583625953554" y1="0.5" y2="30"/><line opacity="0.2" x1="417.6583870252051" x2="417.6583870252051" y1="0.5" y2="30"/><line opacity="0.2" x1="319.677835314556" x2="319.677835314556" y1="0.5" y2="30"/><line opacity="0.2" x1="317.39344661140484" x2="317.39344661140484" y1="0.5" y2="30"/><line opacity="0.2" x1="381.1419407989137" x2="381.1419407989137" y1="0.5" y2="30"/><line opacity="0.2" x1="371.0154635904624" x2="371.0154635904624" y1="0.5" y2="30"/><line opacity="0.2" x1="460.70339372577814" x2="460.70339372577814" y1="0.5" y2="30"/><line opacity="0.2" x1="292.7812031687244" x2="292.7812031687244" y1="0.5" y2="30"/><line opacity="0.2" x1="415.5615765632307" x2="415.5615765632307" y1="0.5" y2="30"/><line opacity="0.2" x1="326.0798828555408" x2="326.0798828555408" y1="0.5" y2="30"/><line opacity="0.2" x1="461.6162197753105" x2="461.6162197753105" y1="0.5" y2="30"/><line opacity="0.2" x1="355.57365904976336" x2="355.57365904976336" y1="0.5" y2="30"/><line opacity="0.2" x1="450.18154031306767" x2="450.18154031306767" y1="0.5" y2="30"/><line opacity="0.2" x1="186.13465332587947" x2="186.13465332587947" y1="0.5" y2="30"/><line opacity="0.2" x1="416.02966334160476" x2="416.02966334160476" y1="0.5" y2="30"/><line opacity="0.2" x1="570.296223737841" x2="570.296223737841" y1="0.5" y2="30"/><line opacity="0.2" x1="269.3038275587464" x2="269.3038275587464" y1="0.5" y2="30"/><line opacity="0.2" x1="235.56170705694262" x2="235.56170705694262" y1="0.5" y2="30"/><line opacity="0.2" x1="292.66422511078326" x2="292.66422511078326" y1="0.5" y2="30"/><line opacity="0.2" x1="433.74682672026466" x2="433.74682672026466" y1="0.5" y2="30"/><line opacity="0.2" x1="197.34342876519003" x2="197.34342876519003" y1="0.5" y2="30"/><line opacity="0.2" x1="500.7459941080057" x2="500.7459941080057" y1="0.5" y2="30"/><line opacity="0.2" x1="368.78903309204463" x2="368.78903309204463" y1="0.5" y2="30"/><line opacity="0.2" x1="214.64128676591284" x2="214.64128676591284" y1="0.5" y2="30"/><line opacity="0.2" x1="505.53231646410626" x2="505.53231646410626" y1="0.5" y2="30"/><line opacity="0.2" x1="434.5548215496241" x2="434.5548215496241" y1="0.5" y2="30"/><line opacity="0.2" x1="312.471553470789" x2="312.471553470789" y1="0.5" y2="30"/><line opacity="0.2" x1="497.64491707841336" x2="497.64491707841336" y1="0.5" y2="30"/><line opacity="0.2" x1="350.06729401340675" x2="350.06729401340675" y1="0.5" y2="30"/><line opacity="0.2" x1="159.80790324347484" x2="159.80790324347484" y1="0.5" y2="30"/><line opacity="0.2" x1="336.1989475867131" x2="336.1989475867131" y1="0.5" y2="30"/><line opacity="0.2" x1="306.22244465189283" x2="306.22244465189283" y1="0.5" y2="30"/><line opacity="0.2" x1="342.5491850414423" x2="342.5491850414423" y1="0.5" y2="30"/><line opacity="0.2" x1="285.40793493454066" x2="285.40793493454066" y1="0.5" y2="30"/><line opacity="0.2" x1="312.60913316458584" x2="312.60913316458584" y1="0.5" y2="30"/><line opacity="0.2" x1="337.13291004931756" x2="337.13291004931756" y1="0.5" y2="30"/><line opacity="0.2" x1="409.8657341844364" x2="409.8657341844364" y1="0.5" y2="30"/><line opacity="0.2" x1="300.56642728349004" x2="300.56642728349004" y1="0.5" y2="30"/><line opacity="0.2" x1="509.75441245175756" x2="509.75441245175756" y1="0.5" y2="30"/><line opacity="0.2" x1="498.3827807507972" x2="498.3827807507972" y1="0.5" y2="30"/><line opacity="0.2" x1="409.18403264184656" x2="409.18403264184656" y1="0.5" y2="30"/><line opacity="0.2" x1="426.5566050605008" x2="426.5566050605008" y1="0.5" y2="30"/><line opacity="0.2" x1="466.8494967832435" x2="466.8494967832435" y1="0.5" y2="30"/><line opacity="0.2" x1="412.84612358354366" x2="412.84612358354366" y1="0.5" y2="30"/><line opacity="0.2" x1="315.3359405835896" x2="315.3359405835896" y1="0.5" y2="30"/><line opacity="0.2" x1="433.7081267827076" x2="433.7081267827076" y1="0.5" y2="30"/><line opacity="0.2" x1="428.3147308168647" x2="428.3147308168647" y1="0.5" y2="30"/><line opacity="0.2" x1="419.5683738551495" x2="419.5683738551495" y1="0.5" y2="30"/><line opacity="0.2" x1="506.6154900681362" x2="506.6154900681362" y1="0.5" y2="30"/><line opacity="0.2" x1="393.85998722022487" x2="393.85998722022487" y1="0.5" y2="30"/><line opacity="0.2" x1="245.53431584557455" x2="245.53431584557455" y1="0.5" y2="30"/><line opacity="0.2" x1="307.1674910924082" x2="307.1674910924082" y1="0.5" y2="30"/><line opacity="0.2" x1="316.52906744988076" x2="316.52906744988076" y1="0.5" y2="30"/><line opacity="0.2" x1="226.5210565837778" x2="226.5210565837778" y1="0.5" y2="30"/><line opacity="0.2" x1="372.86320316041764" x2="372.86320316041764" y1="0.5" y2="30"/><line opacity="0.2" x1="486.68213510694005" x2="486.68213510694005" y1="0.5" y2="30"/><line opacity="0.2" x1="284.0248417949325" x2="284.0248417949325" y1="0.5" y2="30"/><line opacity="0.2" x1="343.0863319621936" x2="343.0863319621936" y1="0.5" y2="30"/><line opacity="0.2" x1="448.9827657857844" x2="448.9827657857844" y1="0.5" y2="30"/><line opacity="0.2" x1="460.70157936776525" x2="460.70157936776525" y1="0.5" y2="30"/><line opacity="0.2" x1="458.5834368404683" x2="458.5834368404683" y1="0.5" y2="30"/><line opacity="0.2" x1="260.8773101253285" x2="260.8773101253285" y1="0.5" y2="30"/><line opacity="0.2" x1="195.8426015561722" x2="195.8426015561722" y1="0.5" y2="30"/><line opacity="0.2" x1="249.1852205341314" x2="249.1852205341314" y1="0.5" y2="30"/><line opacity="0.2" x1="501.1622293438148" x2="501.1622293438148" y1="0.5" y2="30"/><line opacity="0.2" x1="439.46610166261115" x2="439.46610166261115" y1="0.5" y2="30"/><line opacity="0.2" x1="362.5831457919527" x2="362.5831457919527" y1="0.5" y2="30"/><line opacity="0.2" x1="358.5917677719561" x2="358.5917677719561" y1="0.5" y2="30"/><line opacity="0.2" x1="283.87755340935007" x2="283.87755340935007" y1="0.5" y2="30"/><line opacity="0.2" x1="501.1673089949655" x2="501.1673089949655" y1="0.5" y2="30"/><line opacity="0.2" x1="454.9442508364775" x2="454.9442508364775" y1="0.5" y2="30"/><line opacity="0.2" x1="419.13599879330155" x2="419.13599879330155" y1="0.5" y2="30"/><line opacity="0.2" x1="495.95155103469375" x2="495.95155103469375" y1="0.5" y2="30"/><line opacity="0.2" x1="378.8211359810011" x2="378.8211359810011" y1="0.5" y2="30"/><line opacity="0.2" x1="475.6810431096115" x2="475.6810431096115" y1="0.5" y2="30"/><line opacity="0.2" x1="222.97504602935447" x2="222.97504602935447" y1="0.5" y2="30"/><line opacity="0.2" x1="486.13664979871214" x2="486.13664979871214" y1="0.5" y2="30"/><line opacity="0.2" x1="397.7013534895577" x2="397.7013534895577" y1="0.5" y2="30"/><line opacity="0.2" x1="363.8791987573406" x2="363.8791987573406" y1="0.5" y2="30"/><line opacity="0.2" x1="315.5425514484873" x2="315.5425514484873" y1="0.5" y2="30"/><line opacity="0.2" x1="285.03159502387877" x2="285.03159502387877" y1="0.5" y2="30"/><line opacity="0.2" x1="235.23871942466303" x2="235.23871942466303" y1="0.5" y2="30"/><line opacity="0.2" x1="428.7374344390582" x2="428.7374344390582" y1="0.5" y2="30"/><line opacity="0.2" x1="371.8316727233117" x2="371.8316727233117" y1="0.5" y2="30"/><line opacity="0.2" x1="602.6509510333051" x2="602.6509510333051" y1="0.5" y2="30"/><line opacity="0.2" x1="467.684494955464" x2="467.684494955464" y1="0.5" y2="30"/><line opacity="0.2" x1="340.3459876706594" x2="340.3459876706594" y1="0.5" y2="30"/><line opacity="0.2" x1="244.47521556654272" x2="244.47521556654272" y1="0.5" y2="30"/><line opacity="0.2" x1="272.39339900718494" x2="272.39339900718494" y1="0.5" y2="30"/><line opacity="0.2" x1="211.47278538480637" x2="211.47278538480637" y1="0.5" y2="30"/><line opacity="0.2" x1="341.38021262054673" x2="341.38021262054673" y1="0.5" y2="30"/><line opacity="0.2" x1="419.8318069144612" x2="419.8318069144612" y1="0.5" y2="30"/><line opacity="0.2" x1="330.6777299297566" x2="330.6777299297566" y1="0.5" y2="30"/><line opacity="0.2" x1="404.96641418238295" x2="404.96641418238295" y1="0.5" y2="30"/><line opacity="0.2" x1="459.47788513647953" x2="459.47788513647953" y1="0.5" y2="30"/><line opacity="0.2" x1="532.8016124019211" x2="532.8016124019211" y1="0.5" y2="30"/><line opacity="0.2" x1="216.87927416452106" x2="216.87927416452106" y1="0.5" y2="30"/><line opacity="0.2" x1="337.96830762026315" x2="337.96830762026315" y1="0.5" y2="30"/><line opacity="0.2" x1="340.7621307240765" x2="340.7621307240765" y1="0.5" y2="30"/><line opacity="0.2" x1="399.30374454809265" x2="399.30374454809265" y1="0.5" y2="30"/><line opacity="0.2" x1="349.2260844050974" x2="349.2260844050974" y1="0.5" y2="30"/><line opacity="0.2" x1="247.61052094627854" x2="247.61052094627854" y1="0.5" y2="30"/><line opacity="0.2" x1="297.72361719754156" x2="297.72361719754156" y1="0.5" y2="30"/><line opacity="0.2" x1="306.8628924608319" x2="306.8628924608319" y1="0.5" y2="30"/><line opacity="0.2" x1="199.3830761590196" x2="199.3830761590196" y1="0.5" y2="30"/><line opacity="0.2" x1="390.07805299225913" x2="390.07805299225913" y1="0.5" y2="30"/><line opacity="0.2" x1="340.80680420817936" x2="340.80680420817936" y1="0.5" y2="30"/><line opacity="0.2" x1="426.7133756312963" x2="426.7133756312963" y1="0.5" y2="30"/><line opacity="0.2" x1="294.87583148776235" x2="294.87583148776235" y1="0.5" y2="30"/><line opacity="0.2" x1="469.34967932299037" x2="469.34967932299037" y1="0.5" y2="30"/><line opacity="0.2" x1="391.65990526601206" x2="391.65990526601206" y1="0.5" y2="30"/><line opacity="0.2" x1="339.36285085256225" x2="339.36285085256225" y1="0.5" y2="30"/><line opacity="0.2" x1="281.75561643401477" x2="281.75561643401477" y1="0.5" y2="30"/><line opacity="0.2" x1="418.42222475525" x2="418.42222475525" y1="0.5" y2="30"/><line opacity="0.2" x1="380.2824194959433" x2="380.2824194959433" y1="0.5" y2="30"/><line opacity="0.2" x1="475.67133421297757" x2="475.67133421297757" y1="0.5" y2="30"/><line opacity="0.2" x1="413.047583227809" x2="413.047583227809" y1="0.5" y2="30"/><line opacity="0.2" x1="401.6131754125618" x2="401.6131754125618" y1="0.5" y2="30"/><line opacity="0.2" x1="545.7175060398358" x2="545.7175060398358" y1="0.5" y2="30"/><line opacity="0.2" x1="450.53423433056696" x2="450.53423433056696" y1="0.5" y2="30"/><line opacity="0.2" x1="485.0918747666452" x2="485.0918747666452" y1="0.5" y2="30"/><line opacity="0.2" x1="292.1297898029596" x2="292.1297898029596" y1="0.5" y2="30"/><line opacity="0.2" x1="396.16617499064165" x2="396.16617499064165" y1="0.5" y2="30"/><line opacity="0.2" x1="405.613622834888" x2="405.613622834888" y1="0.5" y2="30"/><line opacity="0.2" x1="366.5844301800673" x2="366.5844301800673" y1="0.5" y2="30"/><line opacity="0.2" x1="138.22517540427359" x2="138.22517540427359" y1="0.5" y2="30"/><line opacity="0.2" x1="226.22242955173283" x2="226.22242955173283" y1="0.5" y2="30"/><line opacity="0.2" x1="287.895128279882" x2="287.895128279882" y1="0.5" y2="30"/><line opacity="0.2" x1="285.40833488916246" x2="285.40833488916246" y1="0.5" y2="30"/><line opacity="0.2" x1="251.5011109156788" x2="251.5011109156788" y1="0.5" y2="30"/><line opacity="0.2" x1="523.1571938281498" x2="523.1571938281498" y1="0.5" y2="30"/><line opacity="0.2" x1="356.93506186503356" x2="356.93506186503356" y1="0.5" y2="30"/><line opacity="0.2" x1="312.3549696791705" x2="312.3549696791705" y1="0.5" y2="30"/><line opacity="0.2" x1="178.87757767679352" x2="178.87757767679352" y1="0.5" y2="30"/><line opacity="0.2" x1="368.59309171410507" x2="368.59309171410507" y1="0.5" y2="30"/><line opacity="0.2" x1="418.99233666383964" x2="418.99233666383964" y1="0.5" y2="30"/><line opacity="0.2" x1="240.56734123693707" x2="240.56734123693707" y1="0.5" y2="30"/><line opacity="0.2" x1="171.0412868065259" x2="171.0412868065259" y1="0.5" y2="30"/><line opacity="0.2" x1="418.46605815308345" x2="418.46605815308345" y1="0.5" y2="30"/><line opacity="0.2" x1="386.25743940810156" x2="386.25743940810156" y1="0.5" y2="30"/><line opacity="0.2" x1="561.4360301991851" x2="561.4360301991851" y1="0.5" y2="30"/><line opacity="0.2" x1="398.03597311697644" x2="398.03597311697644" y1="0.5" y2="30"/><line opacity="0.2" x1="448.4373997748803" x2="448.4373997748803" y1="0.5" y2="30"/><line opacity="0.2" x1="410.36855283753516" x2="410.36855283753516" y1="0.5" y2="30"/><line opacity="0.2" x1="473.68345917703147" x2="473.68345917703147" y1="0.5" y2="30"/><line opacity="0.2" x1="309.10094904982583" x2="309.10094904982583" y1="0.5" y2="30"/><line opacity="0.2" x1="363.3861145852577" x2="363.3861145852577" y1="0.5" y2="30"/><line opacity="0.2" x1="388.84745319154655" x2="388.84745319154655" y1="0.5" y2="30"/><line opacity="0.2" x1="417.02438414959346" x2="417.02438414959346" y1="0.5" y2="30"/><line opacity="0.2" x1="379.6972970021524" x2="379.6972970021524" y1="0.5" y2="30"/><line opacity="0.2" x1="532.8259923034526" x2="532.8259923034526" y1="0.5" y2="30"/><line opacity="0.2" x1="351.50062321236425" x2="351.50062321236425" y1="0.5" y2="30"/><line opacity="0.2" x1="570.1413760339751" x2="570.1413760339751" y1="0.5" y2="30"/><line opacity="0.2" x1="399.2035749378212" x2="399.2035749378212" y1="0.5" y2="30"/><line opacity="0.2" x1="340.882607165568" x2="340.882607165568" y1="0.5" y2="30"/><line opacity="0.2" x1="126.42338036928255" x2="126.42338036928255" y1="0.5" y2="30"/><line opacity="0.2" x1="486.6104952066364" x2="486.6104952066364" y1="0.5" y2="30"/><line opacity="0.2" x1="479.05247533121235" x2="479.05247533121235" y1="0.5" y2="30"/></g></svg>