<svg xmlns="http://www.w3.org/2000/svg" xmlns:xlink="http://www.w3.org/1999/xlink" class="plot-9834369cc53fd" fill="currentColor" font-family="system-ui, sans-serif" font-size="10" text-anchor="middle" width="640" height="60" viewBox="0 0 640 60" style="color: black;"><style>
        .plot-9834369cc53fd {
          display: block;
          background: white;
          height: auto;
          height: intrinsic;
          max-width: 100%;
        }
        .plot-9834369cc53fd text,
        .plot-9834369cc53fd tspan {
          white-space: pre;
        }
      </style><g aria-label="x-axis tick" fill="none" stroke="currentColor" transform="translate(0.5,0)"><path transform="translate(38.911881037592764,30)" d="M0,0L0,6"/><path transform="translate(135.92720295321206,30)" d="M0,0L0,6"/><path transform="translate(232.94252486883133,30)" d="M0,0L0,6"/><path transform="translate(329.9578467844506,30)" d="M0,0L0,6"/><path transform="translate(426.9731687000699,30)" d="M0,0L0,6"/><path transform="translate(523.9884906156892,30)" d="M0,0L0,6"/></g><g aria-label="x-axis tick label" font-variant="tabular-nums" transform="translate(0.5,9.5)"><text y="0.71em" transform="translate(38.911881037592764,30)">−3</text><text y="0.71em" transform="translate(135.92720295321206,30)">−2</text><text y="0.71em" transform="translate(232.94252486883133,30)">−1</text><text y="0.71em" transform="translate(329.9578467844506,30)">0</text><text y="0.71em" transform="translate(426.9731687000699,30)">1</text><text y="0.71em" transform="translate(523.9884906156892,30)">2</text></g><g aria-label="tick" stroke="steelblue" transform="translate(0.5,0)"><line opacity="0.2" x1="190.8735652498586" x2="190.8735652498586" y1="0" y2="30"/><line opacity="0.2" x1="204.0823463925373" x2="204.0823463925373" y1="0" y2="30"/><line opacity="0.2" x1="301.9638414406953" x2="301.9638414406953" y1="0" y2="30"/><line opacity="0.2" x1="457.69146883044255" x2="457.69146883044255" y1="0" y2="30"/><line opacity="0.2" x1="366.7057920474795" x2="366.7057920474795" y1="0" y2="30"/><line opacity="0.2" x1="393.28059652019454" x2="393.28059652019454" y1="0" y2="30"/><line opacity="0.2" x1="229.1478411261438" x2="229.1478411261438" y1="0" y2="30"/><line opacity="0.2" x1="228.82150349756475" x2="228.82150349756475" y1="0" y2="30"/><line opacity="0.2" x1="131.85927568257367" x2="131.85927568257367" y1="0" y2="30"/><line opacity="0.2" x1="300.55838047453983" x2="300.55838047453983" y1="0" y2="30"/><line opacity="0.2" x1="355.2277541843933" x2="355.2277541843933" y1="0" y2="30"/><line opacity="0.2" x1="332.9713544092887" x2="332.9713544092887" y1="0" y2="30"/><line opacity="0.2" x1="293.9951987664088" x2="293.9951987664088" y1="0" y2="30"/><line opacity="0.2" x1="441.00075747379947" x2="441.00075747379947" y1="0" y2="30"/><line opacity="0.2" x1="333.80715582279424" x2="333.80715582279424" y1="0" y2="30"/><line opacity="0.2" x1="373.5716332624354" x2="373.5716332624354" y1="0" y2="30"/><line opacity="0.2" x1="201.6001351934013" x2="201.6001351934013" y1="0" y2="30"/><line opacity="0.2" x1="25.414523112577015" x2="25.414523112577015" y1="0" y2="30"/><line opacity="0.2" x1="294.4614939964543" x2="294.4614939964543" y1="0" y2="30"/><line opacity="0.2" x1="257.22173679204906" x2="257.22173679204906" y1="0" y2="30"/><line opacity="0.2" x1="330.4599794661647" x2="330.4599794661647" y1="0" y2="30"/><line opacity="0.2" x1="349.6579044901354" x2="349.6579044901354" y1="0" y2="30"/><line opacity="0.2" x1="342.3088550647677" x2="342.3088550647677" y1="0" y2="30"/><line opacity="0.2" x1="306.6824265674632" x2="306.6824265674632" y1="0" y2="30"/><line opacity="0.2" x1="197.7546407673304" x2="197.7546407673304" y1="0" y2="30"/><line opacity="0.2" x1="322.2511672294542" x2="322.2511672294542" y1="0" y2="30"/><line opacity="0.2" x1="276.5154495141329" x2="276.5154495141329" y1="0" y2="30"/><line opacity="0.2" x1="518.6452182727674" x2="518.6452182727674" y1="0" y2="30"/><line opacity="0.2" x1="461.29806802317273" x2="461.29806802317273" y1="0" y2="30"/><line opacity="0.2" x1="325.8830275193433" x2="325.8830275193433" y1="0" y2="30"/><line opacity="0.2" x1="390.99986475408036" x2="390.99986475408036" y1="0" y2="30"/><line opacity="0.2" x1="155.98049753280765" x2="155.98049753280765" y1="0" y2="30"/><line opacity="0.2" x1="465.9998405194" x2="465.9998405194" y1="0" y2="30"/><line opacity="0.2" x1="508.8898538047047" x2="508.8898538047047" y1="0" y2="30"/><line opacity="0.2" x1="398.95990933909235" x2="398.95990933909235" y1="0" y2="30"/><line opacity="0.2" x1="369.6722377523475" x2="369.6722377523475" y1="0" y2="30"/><line opacity="0.2" x1="513.6587334465315" x2="513.6587334465315" y1="0" y2="30"/><line opacity="0.2" x1="174.63958024755297" x2="174.63958024755297" y1="0" y2="30"/><line opacity="0.2" x1="390.55246296044015" x2="390.55246296044015" y1="0" y2="30"/><line opacity="0.2" x1="522.3129481280698" x2="522.3129481280698" y1="0" y2="30"/><line opacity="0.2" x1="164.73220752250558" x2="164.73220752250558" y1="0" y2="30"/><line opacity="0.2" x1="242.41899419500444" x2="242.41899419500444" y1="0" y2="30"/><line opacity="0.2" x1="179.64909225130066" x2="179.64909225130066" y1="0" y2="30"/><line opacity="0.2" x1="154.73486966369973" x2="154.73486966369973" y1="0" y2="30"/><line opacity="0.2" x1="294.24248268509905" x2="294.24248268509905" y1="0" y2="30"/><line opacity="0.2" x1="275.12363377970104" x2="275.12363377970104" y1="0" y2="30"/><line opacity="0.2" x1="440.3166532646114" x2="440.3166532646114" y1="0" y2="30"/><line opacity="0.2" x1="292.817006896785" x2="292.817006896785" y1="0" y2="30"/><line opacity="0.2" x1="357.0029189323485" x2="357.0029189323485" y1="0" y2="30"/><line opacity="0.2" x1="416.443533926932" x2="416.443533926932" y1="0" y2="30"/><line opacity="0.2" x1="272.37625888440107" x2="272.37625888440107" y1="0" y2="30"/><line opacity="0.2" x1="523.8390009214338" x2="523.8390009214338" y1="0" y2="30"/><line opacity="0.2" x1="236.23969222635412" x2="236.23969222635412" y1="0" y2="30"/><line opacity="0.2" x1="364.1541130800131" x2="364.1541130800131" y1="0" y2="30"/><line opacity="0.2" x1="408.602875052172" x2="408.602875052172" y1="0" y2="30"/><line opacity="0.2" x1="398.6977774325712" x2="398.6977774325712" y1="0" y2="30"/><line opacity="0.2" x1="350.01258399445555" x2="350.01258399445555" y1="0" y2="30"/><line opacity="0.2" x1="362.56099610836463" x2="362.56099610836463" y1="0" y2="30"/><line opacity="0.2" x1="479.4922086685837" x2="479.4922086685837" y1="0" y2="30"/><line opacity="0.2" x1="188.84591324703626" x2="188.84591324703626" y1="0" y2="30"/><line opacity="0.2" x1="420.9314619880478" x2="420.9314619880478" y1="0" y2="30"/><line opacity="0.2" x1="251.12015250285134" x2="251.12015250285134" y1="0" y2="30"/><line opacity="0.2" x1="263.178259121803" x2="263.178259121803" y1="0" y2="30"/><line opacity="0.2" x1="445.642434132714" x2="445.642434132714" y1="0" y2="30"/><line opacity="0.2" x1="467.58762035464395" x2="467.58762035464395" y1="0" y2="30"/><line opacity="0.2" x1="212.53909924141954" x2="212.53909924141954" y1="0" y2="30"/><line opacity="0.2" x1="410.284160496406" x2="410.284160496406" y1="0" y2="30"/><line opacity="0.2" x1="183.30379818184133" x2="183.30379818184133" y1="0" y2="30"/><line opacity="0.2" x1="258.2596864873691" x2="258.2596864873691" y1="0" y2="30"/><line opacity="0.2" x1="290.31898963198137" x2="290.31898963198137" y1="0" y2="30"/><line opacity="0.2" x1="425.50612017931786" x2="425.50612017931786" y1="0" y2="30"/><line opacity="0.2" x1="564.8393453865126" x2="564.8393453865126" y1="0" y2="30"/><line opacity="0.2" x1="181.51904190548728" x2="181.51904190548728" y1="0" y2="30"/><line opacity="0.2" x1="191.32043847512003" x2="191.32043847512003" y1="0" y2="30"/><line opacity="0.2" x1="417.1768198427759" x2="417.1768198427759" y1="0" y2="30"/><line opacity="0.2" x1="311.76557794110397" x2="311.76557794110397" y1="0" y2="30"/><line opacity="0.2" x1="459.11734721179687" x2="459.11734721179687" y1="0" y2="30"/><line opacity="0.2" x1="296.1919830593773" x2="296.1919830593773" y1="0" y2="30"/><line opacity="0.2" x1="110.48954379090861" x2="110.48954379090861" y1="0" y2="30"/><line opacity="0.2" x1="195.36395821516427" x2="195.36395821516427" y1="0" y2="30"/><line opacity="0.2" x1="279.5907168973028" x2="279.5907168973028" y1="0" y2="30"/><line opacity="0.2" x1="284.1806508847629" x2="284.1806508847629" y1="0" y2="30"/><line opacity="0.2" x1="279.28875105341865" x2="279.28875105341865" y1="0" y2="30"/><line opacity="0.2" x1="264.2140687907242" x2="264.2140687907242" y1="0" y2="30"/><line opacity="0.2" x1="325.2981479752141" x2="325.2981479752141" y1="0" y2="30"/><line opacity="0.2" x1="214.51527132527167" x2="214.51527132527167" y1="0" y2="30"/><line opacity="0.2" x1="542.3858275179417" x2="542.3858275179417" y1="0" y2="30"/><line opacity="0.2" x1="402.96255541242857" x2="402.96255541242857" y1="0" y2="30"/><line opacity="0.2" x1="380.33351673220926" x2="380.33351673220926" y1="0" y2="30"/><line opacity="0.2" x1="558.4641933444716" x2="558.4641933444716" y1="0" y2="30"/><line opacity="0.2" x1="361.9025083613089" x2="361.9025083613089" y1="0" y2="30"/><line opacity="0.2" x1="317.7575562868569" x2="317.7575562868569" y1="0" y2="30"/><line opacity="0.2" x1="366.1623582523106" x2="366.1623582523106" y1="0" y2="30"/><line opacity="0.2" x1="328.48267227834447" x2="328.48267227834447" y1="0" y2="30"/><line opacity="0.2" x1="270.6790948618143" x2="270.6790948618143" y1="0" y2="30"/><line opacity="0.2" x1="436.7083474308596" x2="436.7083474308596" y1="0" y2="30"/><line opacity="0.2" x1="415.7963267035981" x2="415.7963267035981" y1="0" y2="30"/><line opacity="0.2" x1="201.5952467971897" x2="201.5952467971897" y1="0" y2="30"/><line opacity="0.2" x1="264.1500408574661" x2="264.1500408574661" y1="0" y2="30"/><line opacity="0.2" x1="334.96797075310724" x2="334.96797075310724" y1="0" y2="30"/><line opacity="0.2" x1="281.96062216946814" x2="281.96062216946814" y1="0" y2="30"/><line opacity="0.2" x1="334.8094446534977" x2="334.8094446534977" y1="0" y2="30"/><line opacity="0.2" x1="304.62344024335505" x2="304.62344024335505" y1="0" y2="30"/><line opacity="0.2" x1="538.4655077493088" x2="538.4655077493088" y1="0" y2="30"/><line opacity="0.2" x1="223.6583165814881" x2="223.6583165814881" y1="0" y2="30"/><line opacity="0.2" x1="363.8837712874468" x2="363.8837712874468" y1="0" y2="30"/><line opacity="0.2" x1="271.9839220198732" x2="271.9839220198732" y1="0" y2="30"/><line opacity="0.2" x1="309.3592014992131" x2="309.3592014992131" y1="0" y2="30"/><line opacity="0.2" x1="210.30463891216692" x2="210.30463891216692" y1="0" y2="30"/><line opacity="0.2" x1="183.48161565347115" x2="183.48161565347115" y1="0" y2="30"/><line opacity="0.2" x1="398.2804214003157" x2="398.2804214003157" y1="0" y2="30"/><line opacity="0.2" x1="522.8055815300331" x2="522.8055815300331" y1="0" y2="30"/><line opacity="0.2" x1="393.7015339658332" x2="393.7015339658332" y1="0" y2="30"/><line opacity="0.2" x1="320.5300784826899" x2="320.5300784826899" y1="0" y2="30"/><line opacity="0.2" x1="351.6477896345194" x2="351.6477896345194" y1="0" y2="30"/><line opacity="0.2" x1="503.8081840742895" x2="503.8081840742895" y1="0" y2="30"/><line opacity="0.2" x1="218.84141509508788" x2="218.84141509508788" y1="0" y2="30"/><line opacity="0.2" x1="239.57262417802247" x2="239.57262417802247" y1="0" y2="30"/><line opacity="0.2" x1="339.9692713997191" x2="339.9692713997191" y1="0" y2="30"/><line opacity="0.2" x1="294.4786825184432" x2="294.4786825184432" y1="0" y2="30"/><line opacity="0.2" x1="272.25678037707826" x2="272.25678037707826" y1="0" y2="30"/><line opacity="0.2" x1="410.1233386244501" x2="410.1233386244501" y1="0" y2="30"/><line opacity="0.2" x1="190.60181243299186" x2="190.60181243299186" y1="0" y2="30"/><line opacity="0.2" x1="339.9324799561692" x2="339.9324799561692" y1="0" y2="30"/><line opacity="0.2" x1="392.22674591415193" x2="392.22674591415193" y1="0" y2="30"/><line opacity="0.2" x1="367.86538143993243" x2="367.86538143993243" y1="0" y2="30"/><line opacity="0.2" x1="302.49031260036503" x2="302.49031260036503" y1="0" y2="30"/><line opacity="0.2" x1="304.6824103448712" x2="304.6824103448712" y1="0" y2="30"/><line opacity="0.2" x1="374.82511814342314" x2="374.82511814342314" y1="0" y2="30"/><line opacity="0.2" x1="342.628517042485" x2="342.628517042485" y1="0" y2="30"/><line opacity="0.2" x1="267.8675485983228" x2="267.8675485983228" y1="0" y2="30"/><line opacity="0.2" x1="402.58321454655834" x2="402.58321454655834" y1="0" y2="30"/><line opacity="0.2" x1="299.18965122590936" x2="299.18965122590936" y1="0" y2="30"/><line opacity="0.2" x1="449.1759270119081" x2="449.1759270119081" y1="0" y2="30"/><line opacity="0.2" x1="258.9014023094726" x2="258.9014023094726" y1="0" y2="30"/><line opacity="0.2" x1="214.97929300958265" x2="214.97929300958265" y1="0" y2="30"/><line opacity="0.2" x1="303.8038062992683" x2="303.8038062992683" y1="0" y2="30"/><line opacity="0.2" x1="280.82236031859264" x2="280.82236031859264" y1="0" y2="30"/><line opacity="0.2" x1="361.1027952974076" x2="361.1027952974076" y1="0" y2="30"/><line opacity="0.2" x1="359.8352542643814" x2="359.8352542643814" y1="0" y2="30"/><line opacity="0.2" x1="368.58350272291597" x2="368.58350272291597" y1="0" y2="30"/><line opacity="0.2" x1="366.7647126054864" x2="366.7647126054864" y1="0" y2="30"/><line opacity="0.2" x1="261.39878382670594" x2="261.39878382670594" y1="0" y2="30"/><line opacity="0.2" x1="317.0799921317876" x2="317.0799921317876" y1="0" y2="30"/><line opacity="0.2" x1="219.01689584571773" x2="219.01689584571773" y1="0" y2="30"/><line opacity="0.2" x1="264.9092859060378" x2="264.9092859060378" y1="0" y2="30"/><line opacity="0.2" x1="237.2980939075695" x2="237.2980939075695" y1="0" y2="30"/><line opacity="0.2" x1="132.042711973819" x2="132.042711973819" y1="0" y2="30"/><line opacity="0.2" x1="329.14489180723496" x2="329.14489180723496" y1="0" y2="30"/><line opacity="0.2" x1="349.3383726584986" x2="349.3383726584986" y1="0" y2="30"/><line opacity="0.2" x1="277.3689678423802" x2="277.3689678423802" y1="0" y2="30"/><line opacity="0.2" x1="331.9762291316785" x2="331.9762291316785" y1="0" y2="30"/><line opacity="0.2" x1="370.63866241531736" x2="370.63866241531736" y1="0" y2="30"/><line opacity="0.2" x1="335.26167009690386" x2="335.26167009690386" y1="0" y2="30"/><line opacity="0.2" x1="396.97533564821003" x2="396.97533564821003" y1="0" y2="30"/><line opacity="0.2" x1="241.27503692811072" x2="241.27503692811072" y1="0" y2="30"/><line opacity="0.2" x1="347.4757228071947" x2="347.4757228071947" y1="0" y2="30"/><line opacity="0.2" x1="267.70871623315384" x2="267.70871623315384" y1="0" y2="30"/><line opacity="0.2" x1="330.9798813206105" x2="330.9798813206105" y1="0" y2="30"/><line opacity="0.2" x1="335.36495855089936" x2="335.36495855089936" y1="0" y2="30"/><line opacity="0.2" x1="370.28530530939895" x2="370.28530530939895" y1="0" y2="30"/><line opacity="0.2" x1="133.60660474073615" x2="133.60660474073615" y1="0" y2="30"/><line opacity="0.2" x1="239.63040924019944" x2="239.63040924019944" y1="0" y2="30"/><line opacity="0.2" x1="182.54887194220612" x2="182.54887194220612" y1="0" y2="30"/><line opacity="0.2" x1="338.3351363401743" x2="338.3351363401743" y1="0" y2="30"/><line opacity="0.2" x1="278.9700396107679" x2="278.9700396107679" y1="0" y2="30"/><line opacity="0.2" x1="333.9832848461311" x2="333.9832848461311" y1="0" y2="30"/><line opacity="0.2" x1="223.386135028835" x2="223.386135028835" y1="0" y2="30"/><line opacity="0.2" x1="292.3174258162673" x2="292.3174258162673" y1="0" y2="30"/><line opacity="0.2" x1="329.0163002495529" x2="329.0163002495529" y1="0" y2="30"/><line opacity="0.2" x1="278.0425761685219" x2="278.0425761685219" y1="0" y2="30"/><line opacity="0.2" x1="242.85306094688175" x2="242.85306094688175" y1="0" y2="30"/><line opacity="0.2" x1="289.85030204426505" x2="289.85030204426505" y1="0" y2="30"/><line opacity="0.2" x1="397.1138291734389" x2="397.1138291734389" y1="0" y2="30"/><line opacity="0.2" x1="401.8490396869334" x2="401.8490396869334" y1="0" y2="30"/><line opacity="0.2" x1="193.98369676238696" x2="193.98369676238696" y1="0" y2="30"/><line opacity="0.2" x1="260.84121941678296" x2="260.84121941678296" y1="0" y2="30"/><line opacity="0.2" x1="314.497974247992" x2="314.497974247992" y1="0" y2="30"/><line opacity="0.2" x1="438.1019916031253" x2="438.1019916031253" y1="0" y2="30"/><line opacity="0.2" x1="128.00490624813926" x2="128.00490624813926" y1="0" y2="30"/><line opacity="0.2" x1="439.46993116493417" x2="439.46993116493417" y1="0" y2="30"/><line opacity="0.2" x1="351.1786525030155" x2="351.1786525030155" y1="0" y2="30"/><line opacity="0.2" x1="379.6094478634981" x2="379.6094478634981" y1="0" y2="30"/><line opacity="0.2" x1="338.5536594920037" x2="338.5536594920037" y1="0" y2="30"/><line opacity="0.2" x1="272.1110114245762" x2="272.1110114245762" y1="0" y2="30"/><line opacity="0.2" x1="395.8073504921236" x2="395.8073504921236" y1="0" y2="30"/><line opacity="0.2" x1="258.6165556696224" x2="258.6165556696224" y1="0" y2="30"/><line opacity="0.2" x1="232.12241711381714" x2="232.12241711381714" y1="0" y2="30"/><line opacity="0.2" x1="200.5992062497624" x2="200.5992062497624" y1="0" y2="30"/><line opacity="0.2" x1="529.1693186606037" x2="529.1693186606037" y1="0" y2="30"/><line opacity="0.2" x1="334.93690192899635" x2="334.93690192899635" y1="0" y2="30"/><line opacity="0.2" x1="392.0861458162643" x2="392.0861458162643" y1="0" y2="30"/><line opacity="0.2" x1="228.19214262259845" x2="228.19214262259845" y1="0" y2="30"/><line opacity="0.2" x1="329.58646071645853" x2="329.58646071645853" y1="0" y2="30"/><line opacity="0.2" x1="384.45328614550533" x2="384.45328614550533" y1="0" y2="30"/><line opacity="0.2" x1="459.2367888278345" x2="459.2367888278345" y1="0" y2="30"/><line opacity="0.2" x1="310.94210334243036" x2="310.94210334243036" y1="0" y2="30"/><line opacity="0.2" x1="552.6904057361379" x2="552.6904057361379" y1="0" y2="30"/><line opacity="0.2" x1="502.64045251800405" x2="502.64045251800405" y1="0" y2="30"/><line opacity="0.2" x1="293.29184125779994" x2="293.29184125779994" y1="0" y2="30"/><line opacity="0.2" x1="334.9414894203197" x2="334.9414894203197" y1="0" y2="30"/><line opacity="0.2" x1="524.165401259696" x2="524.165401259696" y1="0" y2="30"/><line opacity="0.2" x1="501.82371320458327" x2="501.82371320458327" y1="0" y2="30"/><line opacity="0.2" x1="231.22360002499468" x2="231.22360002499468" y1="0" y2="30"/><line opacity="0.2" x1="327.70818688628333" x2="327.70818688628333" y1="0" y2="30"/><line opacity="0.2" x1="247.89786845002692" x2="247.89786845002692" y1="0" y2="30"/><line opacity="0.2" x1="390.92461093298226" x2="390.92461093298226" y1="0" y2="30"/><line opacity="0.2" x1="294.2644791979993" x2="294.2644791979993" y1="0" y2="30"/><line opacity="0.2" x1="375.9098729763947" x2="375.9098729763947" y1="0" y2="30"/><line opacity="0.2" x1="289.9132869120903" x2="289.9132869120903" y1="0" y2="30"/><line opacity="0.2" x1="231.68374286333568" x2="231.68374286333568" y1="0" y2="30"/><line opacity="0.2" x1="247.3921199160015" x2="247.3921199160015" y1="0" y2="30"/><line opacity="0.2" x1="260.25814445768765" x2="260.25814445768765" y1="0" y2="30"/><line opacity="0.2" x1="444.1879341552177" x2="444.1879341552177" y1="0" y2="30"/><line opacity="0.2" x1="244.82633349823516" x2="244.82633349823516" y1="0" y2="30"/><line opacity="0.2" x1="369.98824331597694" x2="369.98824331597694" y1="0" y2="30"/><line opacity="0.2" x1="423.752026274479" x2="423.752026274479" y1="0" y2="30"/><line opacity="0.2" x1="266.9422829318053" x2="266.9422829318053" y1="0" y2="30"/><line opacity="0.2" x1="266.745334559011" x2="266.745334559011" y1="0" y2="30"/><line opacity="0.2" x1="489.0455249041217" x2="489.0455249041217" y1="0" y2="30"/><line opacity="0.2" x1="540.2276645294753" x2="540.2276645294753" y1="0" y2="30"/><line opacity="0.2" x1="326.88371571841355" x2="326.88371571841355" y1="0" y2="30"/><line opacity="0.2" x1="259.73303788834306" x2="259.73303788834306" y1="0" y2="30"/><line opacity="0.2" x1="232.07923049020772" x2="232.07923049020772" y1="0" y2="30"/><line opacity="0.2" x1="378.4615640505887" x2="378.4615640505887" y1="0" y2="30"/><line opacity="0.2" x1="355.0345551140988" x2="355.0345551140988" y1="0" y2="30"/><line opacity="0.2" x1="154.854451487454" x2="154.854451487454" y1="0" y2="30"/><line opacity="0.2" x1="481.8769371273316" x2="481.8769371273316" y1="0" y2="30"/><line opacity="0.2" x1="329.4275036070928" x2="329.4275036070928" y1="0" y2="30"/><line opacity="0.2" x1="376.2084117422311" x2="376.2084117422311" y1="0" y2="30"/><line opacity="0.2" x1="311.79108099930676" x2="311.79108099930676" y1="0" y2="30"/><line opacity="0.2" x1="309.5331418644132" x2="309.5331418644132" y1="0" y2="30"/><line opacity="0.2" x1="355.6108818706098" x2="355.6108818706098" y1="0" y2="30"/><line opacity="0.2" x1="460.8914754478857" x2="460.8914754478857" y1="0" y2="30"/><line opacity="0.2" x1="278.7674171842366" x2="278.7674171842366" y1="0" y2="30"/><line opacity="0.2" x1="336.743397821027" x2="336.743397821027" y1="0" y2="30"/><line opacity="0.2" x1="413.56187709069303" x2="413.56187709069303" y1="0" y2="30"/><line opacity="0.2" x1="276.48329574832326" x2="276.48329574832326" y1="0" y2="30"/><line opacity="0.2" x1="298.35026214563095" x2="298.35026214563095" y1="0" y2="30"/><line opacity="0.2" x1="315.34538874540783" x2="315.34538874540783" y1="0" y2="30"/><line opacity="0.2" x1="410.43839243559574" x2="410.43839243559574" y1="0" y2="30"/><line opacity="0.2" x1="417.2542728393207" x2="417.2542728393207" y1="0" y2="30"/><line opacity="0.2" x1="307.3704796428974" x2="307.3704796428974" y1="0" y2="30"/><line opacity="0.2" x1="436.0316019866716" x2="436.0316019866716" y1="0" y2="30"/><line opacity="0.2" x1="469.621498438097" x2="469.621498438097" y1="0" y2="30"/><line opacity="0.2" x1="445.73892920321674" x2="445.73892920321674" y1="0" y2="30"/><line opacity="0.2" x1="282.76025527987247" x2="282.76025527987247" y1="0" y2="30"/><line opacity="0.2" x1="307.04944402854045" x2="307.04944402854045" y1="0" y2="30"/><line opacity="0.2" x1="320.42407474574816" x2="320.42407474574816" y1="0" y2="30"/><line opacity="0.2" x1="419.82501501123386" x2="419.82501501123386" y1="0" y2="30"/><line opacity="0.2" x1="353.11353706663607" x2="353.11353706663607" y1="0" y2="30"/><line opacity="0.2" x1="514.8261849309591" x2="514.8261849309591" y1="0" y2="30"/><line opacity="0.2" x1="243.9976099584701" x2="243.9976099584701" y1="0" y2="30"/><line opacity="0.2" x1="295.45375532664616" x2="295.45375532664616" y1="0" y2="30"/><line opacity="0.2" x1="338.9827887058413" x2="338.9827887058413" y1="0" y2="30"/><line opacity="0.2" x1="515.0119625813547" x2="515.0119625813547" y1="0" y2="30"/><line opacity="0.2" x1="361.62612210513663" x2="361.62612210513663" y1="0" y2="30"/><line opacity="0.2" x1="367.8659862548141" x2="367.8659862548141" y1="0" y2="30"/><line opacity="0.2" x1="150.62417965645955" x2="150.62417965645955" y1="0" y2="30"/><line opacity="0.2" x1="522.1962996174778" x2="522.1962996174778" y1="0" y2="30"/><line opacity="0.2" x1="355.8646714459411" x2="355.8646714459411" y1="0" y2="30"/><line opacity="0.2" x1="323.844549710295" x2="323.844549710295" y1="0" y2="30"/><line opacity="0.2" x1="413.4617965638482" x2="413.4617965638482" y1="0" y2="30"/><line opacity="0.2" x1="215.46120851546215" x2="215.46120851546215" y1="0" y2="30"/><line opacity="0.2" x1="186.99469474124493" x2="186.99469474124493" y1="0" y2="30"/><line opacity="0.2" x1="381.8946442212287" x2="381.8946442212287" y1="0" y2="30"/><line opacity="0.2" x1="461.7840300834388" x2="461.7840300834388" y1="0" y2="30"/><line opacity="0.2" x1="413.19490776853246" x2="413.19490776853246" y1="0" y2="30"/><line opacity="0.2" x1="320.9727689827053" x2="320.9727689827053" y1="0" y2="30"/><line opacity="0.2" x1="321.9681725093995" x2="321.9681725093995" y1="0" y2="30"/><line opacity="0.2" x1="341.0156883564423" x2="341.0156883564423" y1="0" y2="30"/><line opacity="0.2" x1="439.94790681271627" x2="439.94790681271627" y1="0" y2="30"/><line opacity="0.2" x1="252.07470178631596" x2="252.07470178631596" y1="0" y2="30"/><line opacity="0.2" x1="336.9631025534979" x2="336.9631025534979" y1="0" y2="30"/><line opacity="0.2" x1="347.02043671844916" x2="347.02043671844916" y1="0" y2="30"/><line opacity="0.2" x1="304.4770834515656" x2="304.4770834515656" y1="0" y2="30"/><line opacity="0.2" x1="375.08691593246255" x2="375.08691593246255" y1="0" y2="30"/><line opacity="0.2" x1="394.93721724319226" x2="394.93721724319226" y1="0" y2="30"/><line opacity="0.2" x1="309.45831277067634" x2="309.45831277067634" y1="0" y2="30"/><line opacity="0.2" x1="373.7813905706634" x2="373.7813905706634" y1="0" y2="30"/><line opacity="0.2" x1="196.32302113552686" x2="196.32302113552686" y1="0" y2="30"/><line opacity="0.2" x1="450.2351242347671" x2="450.2351242347671" y1="0" y2="30"/><line opacity="0.2" x1="270.008749895234" x2="270.008749895234" y1="0" y2="30"/><line opacity="0.2" x1="403.0583258748333" x2="403.0583258748333" y1="0" y2="30"/><line opacity="0.2" x1="315.8127405272572" x2="315.8127405272572" y1="0" y2="30"/><line opacity="0.2" x1="389.32177017783437" x2="389.32177017783437" y1="0" y2="30"/><line opacity="0.2" x1="454.1857402305419" x2="454.1857402305419" y1="0" y2="30"/><line opacity="0.2" x1="314.7819021272028" x2="314.7819021272028" y1="0" y2="30"/><line opacity="0.2" x1="305.00528738348123" x2="305.00528738348123" y1="0" y2="30"/><line opacity="0.2" x1="431.20833801960407" x2="431.20833801960407" y1="0" y2="30"/><line opacity="0.2" x1="321.8214928090782" x2="321.8214928090782" y1="0" y2="30"/><line opacity="0.2" x1="273.48933905615013" x2="273.48933905615013" y1="0" y2="30"/><line opacity="0.2" x1="194.83886295911094" x2="194.83886295911094" y1="0" y2="30"/><line opacity="0.2" x1="195.6464773845184" x2="195.6464773845184" y1="0" y2="30"/><line opacity="0.2" x1="497.3465191760563" x2="497.3465191760563" y1="0" y2="30"/><line opacity="0.2" x1="355.42748541283635" x2="355.42748541283635" y1="0" y2="30"/><line opacity="0.2" x1="307.0792517180297" x2="307.0792517180297" y1="0" y2="30"/><line opacity="0.2" x1="340.63915615666247" x2="340.63915615666247" y1="0" y2="30"/><line opacity="0.2" x1="271.62070174649824" x2="271.62070174649824" y1="0" y2="30"/><line opacity="0.2" x1="326.05692180909324" x2="326.05692180909324" y1="0" y2="30"/><line opacity="0.2" x1="348.68457682250175" x2="348.68457682250175" y1="0" y2="30"/><line opacity="0.2" x1="495.4227337645616" x2="495.4227337645616" y1="0" y2="30"/><line opacity="0.2" x1="357.2669411914496" x2="357.2669411914496" y1="0" y2="30"/><line opacity="0.2" x1="452.14969722581725" x2="452.14969722581725" y1="0" y2="30"/><line opacity="0.2" x1="319.3993190371484" x2="319.3993190371484" y1="0" y2="30"/><line opacity="0.2" x1="416.08985925366" x2="416.08985925366" y1="0" y2="30"/><line opacity="0.2" x1="297.80165308155875" x2="297.80165308155875" y1="0" y2="30"/><line opacity="0.2" x1="351.47189108214127" x2="351.47189108214127" y1="0" y2="30"/><line opacity="0.2" x1="141.9496011807264" x2="141.9496011807264" y1="0" y2="30"/><line opacity="0.2" x1="357.4045424710919" x2="357.4045424710919" y1="0" y2="30"/><line opacity="0.2" x1="258.42933881559566" x2="258.42933881559566" y1="0" y2="30"/><line opacity="0.2" x1="263.55157553731914" x2="263.55157553731914" y1="0" y2="30"/><line opacity="0.2" x1="182.24484553856732" x2="182.24484553856732" y1="0" y2="30"/><line opacity="0.2" x1="404.51965056510517" x2="404.51965056510517" y1="0" y2="30"/><line opacity="0.2" x1="335.7650274853537" x2="335.7650274853537" y1="0" y2="30"/><line opacity="0.2" x1="523.764386862084" x2="523.764386862084" y1="0" y2="30"/><line opacity="0.2" x1="456.2230625676546" x2="456.2230625676546" y1="0" y2="30"/><line opacity="0.2" x1="273.5311152394685" x2="273.5311152394685" y1="0" y2="30"/><line opacity="0.2" x1="289.97113731811874" x2="289.97113731811874" y1="0" y2="30"/><line opacity="0.2" x1="411.6660187881494" x2="411.6660187881494" y1="0" y2="30"/><line opacity="0.2" x1="132.51933748551642" x2="132.51933748551642" y1="0" y2="30"/><line opacity="0.2" x1="428.991811278391" x2="428.991811278391" y1="0" y2="30"/><line opacity="0.2" x1="477.8967556435416" x2="477.8967556435416" y1="0" y2="30"/><line opacity="0.2" x1="381.73974834717876" x2="381.73974834717876" y1="0" y2="30"/><line opacity="0.2" x1="293.2412650158157" x2="293.2412650158157" y1="0" y2="30"/><line opacity="0.2" x1="340.3995302693992" x2="340.3995302693992" y1="0" y2="30"/><line opacity="0.2" x1="336.80011111286865" x2="336.80011111286865" y1="0" y2="30"/><line opacity="0.2" x1="367.4061653760906" x2="367.4061653760906" y1="0" y2="30"/><line opacity="0.2" x1="201.13691584473537" x2="201.13691584473537" y1="0" y2="30"/><line opacity="0.2" x1="280.71970664794145" x2="280.71970664794145" y1="0" y2="30"/><line opacity="0.2" x1="448.24254502319144" x2="448.24254502319144" y1="0" y2="30"/><line opacity="0.2" x1="413.1263595515109" x2="413.1263595515109" y1="0" y2="30"/><line opacity="0.2" x1="332.9276457398083" x2="332.9276457398083" y1="0" y2="30"/><line opacity="0.2" x1="337.1812749765696" x2="337.1812749765696" y1="0" y2="30"/><line opacity="0.2" x1="342.2069968192619" x2="342.2069968192619" y1="0" y2="30"/><line opacity="0.2" x1="262.2583885796469" x2="262.2583885796469" y1="0" y2="30"/><line opacity="0.2" x1="306.70441523715425" x2="306.70441523715425" y1="0" y2="30"/><line opacity="0.2" x1="311.6195878339901" x2="311.6195878339901" y1="0" y2="30"/><line opacity="0.2" x1="83.44120695708489" x2="83.44120695708489" y1="0" y2="30"/><line opacity="0.2" x1="344.65815103146775" x2="344.65815103146775" y1="0" y2="30"/><line opacity="0.2" x1="361.122651585928" x2="361.122651585928" y1="0" y2="30"/><line opacity="0.2" x1="352.67850449643504" x2="352.67850449643504" y1="0" y2="30"/><line opacity="0.2" x1="421.6637098653658" x2="421.6637098653658" y1="0" y2="30"/><line opacity="0.2" x1="328.9999712410746" x2="328.9999712410746" y1="0" y2="30"/><line opacity="0.2" x1="283.67128751650023" x2="283.67128751650023" y1="0" y2="30"/><line opacity="0.2" x1="249.12211908705882" x2="249.12211908705882" y1="0" y2="30"/><line opacity="0.2" x1="402.1887282669902" x2="402.1887282669902" y1="0" y2="30"/><line opacity="0.2" x1="339.6976056058869" x2="339.6976056058869" y1="0" y2="30"/><line opacity="0.2" x1="474.4461597361771" x2="474.4461597361771" y1="0" y2="30"/><line opacity="0.2" x1="521.4552891645064" x2="521.4552891645064" y1="0" y2="30"/><line opacity="0.2" x1="283.1095783606239" x2="283.1095783606239" y1="0" y2="30"/><line opacity="0.2" x1="409.6787360646982" x2="409.6787360646982" y1="0" y2="30"/><line opacity="0.2" x1="277.19396916145746" x2="277.19396916145746" y1="0" y2="30"/><line opacity="0.2" x1="341.78372859473717" x2="341.78372859473717" y1="0" y2="30"/><line opacity="0.2" x1="282.17634080966417" x2="282.17634080966417" y1="0" y2="30"/><line opacity="0.2" x1="215.43730229526167" x2="215.43730229526167" y1="0" y2="30"/><line opacity="0.2" x1="251.0764699326886" x2="251.0764699326886" y1="0" y2="30"/><line opacity="0.2" x1="290.82420126662873" x2="290.82420126662873" y1="0" y2="30"/><line opacity="0.2" x1="566.5613056070483" x2="566.5613056070483" y1="0" y2="30"/><line opacity="0.2" x1="367.1871610726136" x2="367.1871610726136" y1="0" y2="30"/><line opacity="0.2" x1="403.5357314203558" x2="403.5357314203558" y1="0" y2="30"/><line opacity="0.2" x1="278.60075919003543" x2="278.60075919003543" y1="0" y2="30"/><line opacity="0.2" x1="363.83316728320705" x2="363.83316728320705" y1="0" y2="30"/><line opacity="0.2" x1="333.7432061494483" x2="333.7432061494483" y1="0" y2="30"/><line opacity="0.2" x1="298.6655935818504" x2="298.6655935818504" y1="0" y2="30"/><line opacity="0.2" x1="325.556995860961" x2="325.556995860961" y1="0" y2="30"/><line opacity="0.2" x1="401.89764488698177" x2="401.89764488698177" y1="0" y2="30"/><line opacity="0.2" x1="287.8157105147399" x2="287.8157105147399" y1="0" y2="30"/><line opacity="0.2" x1="416.3239244334958" x2="416.3239244334958" y1="0" y2="30"/><line opacity="0.2" x1="237.60139958838275" x2="237.60139958838275" y1="0" y2="30"/><line opacity="0.2" x1="287.1635586693786" x2="287.1635586693786" y1="0" y2="30"/><line opacity="0.2" x1="221.2611526143825" x2="221.2611526143825" y1="0" y2="30"/><line opacity="0.2" x1="112.73351682812412" x2="112.73351682812412" y1="0" y2="30"/><line opacity="0.2" x1="292.7737130617494" x2="292.7737130617494" y1="0" y2="30"/><line opacity="0.2" x1="445.84012476065186" x2="445.84012476065186" y1="0" y2="30"/><line opacity="0.2" x1="406.52581741972057" x2="406.52581741972057" y1="0" y2="30"/><line opacity="0.2" x1="377.90058081302647" x2="377.90058081302647" y1="0" y2="30"/><line opacity="0.2" x1="119.99929079326083" x2="119.99929079326083" y1="0" y2="30"/><line opacity="0.2" x1="67.96939262678087" x2="67.96939262678087" y1="0" y2="30"/><line opacity="0.2" x1="497.27022850214456" x2="497.27022850214456" y1="0" y2="30"/><line opacity="0.2" x1="294.3128209867588" x2="294.3128209867588" y1="0" y2="30"/><line opacity="0.2" x1="125.61023337679683" x2="125.61023337679683" y1="0" y2="30"/><line opacity="0.2" x1="340.68972142935985" x2="340.68972142935985" y1="0" y2="30"/><line opacity="0.2" x1="332.69753225997624" x2="332.69753225997624" y1="0" y2="30"/><line opacity="0.2" x1="415.6444792435943" x2="415.6444792435943" y1="0" y2="30"/><line opacity="0.2" x1="293.38375106652506" x2="293.38375106652506" y1="0" y2="30"/><line opacity="0.2" x1="182.24480756932712" x2="182.24480756932712" y1="0" y2="30"/><line opacity="0.2" x1="259.50713076605206" x2="259.50713076605206" y1="0" y2="30"/><line opacity="0.2" x1="431.02196293082415" x2="431.02196293082415" y1="0" y2="30"/><line opacity="0.2" x1="360.1642374445332" x2="360.1642374445332" y1="0" y2="30"/><line opacity="0.2" x1="305.89302386751416" x2="305.89302386751416" y1="0" y2="30"/><line opacity="0.2" x1="431.18575527523063" x2="431.18575527523063" y1="0" y2="30"/><line opacity="0.2" x1="421.881958680417" x2="421.881958680417" y1="0" y2="30"/><line opacity="0.2" x1="375.8767021006666" x2="375.8767021006666" y1="0" y2="30"/><line opacity="0.2" x1="199.32092634884037" x2="199.32092634884037" y1="0" y2="30"/><line opacity="0.2" x1="434.5201444867167" x2="434.5201444867167" y1="0" y2="30"/><line opacity="0.2" x1="289.6804707195169" x2="289.6804707195169" y1="0" y2="30"/><line opacity="0.2" x1="469.60043209862994" x2="469.60043209862994" y1="0" y2="30"/><line opacity="0.2" x1="406.7127315962117" x2="406.7127315962117" y1="0" y2="30"/><line opacity="0.2" x1="220.41767971557158" x2="220.41767971557158" y1="0" y2="30"/><line opacity="0.2" x1="454.99282879596825" x2="454.99282879596825" y1="0" y2="30"/><line opacity="0.2" x1="413.24488447708757" x2="413.24488447708757" y1="0" y2="30"/><line opacity="0.2" x1="289.59365081227224" x2="289.59365081227224" y1="0" y2="30"/><line opacity="0.2" x1="433.75304903887195" x2="433.75304903887195" y1="0" y2="30"/><line opacity="0.2" x1="300.4359279996152" x2="300.4359279996152" y1="0" y2="30"/><line opacity="0.2" x1="168.7538471725838" x2="168.7538471725838" y1="0" y2="30"/><line opacity="0.2" x1="113.33931886521792" x2="113.33931886521792" y1="0" y2="30"/><line opacity="0.2" x1="506.55182804860243" x2="506.55182804860243" y1="0" y2="30"/><line opacity="0.2" x1="329.40134024865" x2="329.40134024865" y1="0" y2="30"/><line opacity="0.2" x1="370.283652879309" x2="370.283652879309" y1="0" y2="30"/><line opacity="0.2" x1="369.20794526858543" x2="369.20794526858543" y1="0" y2="30"/><line opacity="0.2" x1="406.9665781339907" x2="406.9665781339907" y1="0" y2="30"/><line opacity="0.2" x1="273.7532452364811" x2="273.7532452364811" y1="0" y2="30"/><line opacity="0.2" x1="327.88985167815434" x2="327.88985167815434" y1="0" y2="30"/><line opacity="0.2" x1="450.85271840288635" x2="450.85271840288635" y1="0" y2="30"/><line opacity="0.2" x1="419.81558366879176" x2="419.81558366879176" y1="0" y2="30"/><line opacity="0.2" x1="399.5190964756211" x2="399.5190964756211" y1="0" y2="30"/><line opacity="0.2" x1="501.3050655187752" x2="501.3050655187752" y1="0" y2="30"/><line opacity="0.2" x1="290.6667709166344" x2="290.6667709166344" y1="0" y2="30"/><line opacity="0.2" x1="481.81750006186473" x2="481.81750006186473" y1="0" y2="30"/><line opacity="0.2" x1="170.62097608593785" x2="170.62097608593785" y1="0" y2="30"/><line opacity="0.2" x1="332.6856421705494" x2="332.6856421705494" y1="0" y2="30"/><line opacity="0.2" x1="305.47733876026746" x2="305.47733876026746" y1="0" y2="30"/><line opacity="0.2" x1="20" x2="20" y1="0" y2="30"/><line opacity="0.2" x1="354.3993828144104" x2="354.3993828144104" y1="0" y2="30"/><line opacity="0.2" x1="271.43749184256177" x2="271.43749184256177" y1="0" y2="30"/><line opacity="0.2" x1="165.35864945105456" x2="165.35864945105456" y1="0" y2="30"/><line opacity="0.2" x1="150.42872400115087" x2="150.42872400115087" y1="0" y2="30"/><line opacity="0.2" x1="277.0895859798525" x2="277.0895859798525" y1="0" y2="30"/><line opacity="0.2" x1="179.4774884209692" x2="179.4774884209692" y1="0" y2="30"/><line opacity="0.2" x1="402.4399647830675" x2="402.4399647830675" y1="0" y2="30"/><line opacity="0.2" x1="399.7550688950234" x2="399.7550688950234" y1="0" y2="30"/><line opacity="0.2" x1="420.1474400739798" x2="420.1474400739798" y1="0" y2="30"/><line opacity="0.2" x1="428.51368384611783" x2="428.51368384611783" y1="0" y2="30"/><line opacity="0.2" x1="220.82430273303592" x2="220.82430273303592" y1="0" y2="30"/><line opacity="0.2" x1="289.75181122113355" x2="289.75181122113355" y1="0" y2="30"/><line opacity="0.2" x1="331.27997704060346" x2="331.27997704060346" y1="0" y2="30"/><line opacity="0.2" x1="320.7971490092068" x2="320.7971490092068" y1="0" y2="30"/><line opacity="0.2" x1="250.56950594123737" x2="250.56950594123737" y1="0" y2="30"/><line opacity="0.2" x1="270.9716048321695" x2="270.9716048321695" y1="0" y2="30"/><line opacity="0.2" x1="430.29798798598745" x2="430.29798798598745" y1="0" y2="30"/><line opacity="0.2" x1="299.29755590337595" x2="299.29755590337595" y1="0" y2="30"/><line opacity="0.2" x1="277.8585848387495" x2="277.8585848387495" y1="0" y2="30"/><line opacity="0.2" x1="214.47819949106807" x2="214.47819949106807" y1="0" y2="30"/><line opacity="0.2" x1="406.4820400697486" x2="406.4820400697486" y1="0" y2="30"/><line opacity="0.2" x1="416.8828570971078" x2="416.8828570971078" y1="0" y2="30"/><line opacity="0.2" x1="474.8704058530915" x2="474.8704058530915" y1="0" y2="30"/><line opacity="0.2" x1="194.66335280356196" x2="194.66335280356196" y1="0" y2="30"/><line opacity="0.2" x1="352.7986273832137" x2="352.7986273832137" y1="0" y2="30"/><line opacity="0.2" x1="266.16530131876357" x2="266.16530131876357" y1="0" y2="30"/><line opacity="0.2" x1="415.57697962063565" x2="415.57697962063565" y1="0" y2="30"/><line opacity="0.2" x1="468.32416707744846" x2="468.32416707744846" y1="0" y2="30"/><line opacity="0.2" x1="142.50192174305573" x2="142.50192174305573" y1="0" y2="30"/><line opacity="0.2" x1="410.1124573159339" x2="410.1124573159339" y1="0" y2="30"/><line opacity="0.2" x1="478.6337045698473" x2="478.6337045698473" y1="0" y2="30"/><line opacity="0.2" x1="431.1082596371037" x2="431.1082596371037" y1="0" y2="30"/><line opacity="0.2" x1="365.1650064397528" x2="365.1650064397528" y1="0" y2="30"/><line opacity="0.2" x1="163.74837846210463" x2="163.74837846210463" y1="0" y2="30"/><line opacity="0.2" x1="247.3061125563339" x2="247.3061125563339" y1="0" y2="30"/><line opacity="0.2" x1="387.9102289590323" x2="387.9102289590323" y1="0" y2="30"/><line opacity="0.2" x1="328.18914674406795" x2="328.18914674406795" y1="0" y2="30"/><line opacity="0.2" x1="257.3212799868486" x2="257.3212799868486" y1="0" y2="30"/><line opacity="0.2" x1="121.91117755801335" x2="121.91117755801335" y1="0" y2="30"/><line opacity="0.2" x1="329.09676091354373" x2="329.09676091354373" y1="0" y2="30"/><line opacity="0.2" x1="215.88148368337625" x2="215.88148368337625" y1="0" y2="30"/><line opacity="0.2" x1="316.2571445959366" x2="316.2571445959366" y1="0" y2="30"/><line opacity="0.2" x1="238.61703518620678" x2="238.61703518620678" y1="0" y2="30"/><line opacity="0.2" x1="190.83906028059127" x2="190.83906028059127" y1="0" y2="30"/><line opacity="0.2" x1="298.7189614260471" x2="298.7189614260471" y1="0" y2="30"/><line opacity="0.2" x1="254.30276054231754" x2="254.30276054231754" y1="0" y2="30"/><line opacity="0.2" x1="473.85210984599166" x2="473.85210984599166" y1="0" y2="30"/><line opacity="0.2" x1="444.4690291739809" x2="444.4690291739809" y1="0" y2="30"/><line opacity="0.2" x1="391.02909142178936" x2="391.02909142178936" y1="0" y2="30"/><line opacity="0.2" x1="405.40187887409866" x2="405.40187887409866" y1="0" y2="30"/><line opacity="0.2" x1="357.9147929232722" x2="357.9147929232722" y1="0" y2="30"/><line opacity="0.2" x1="155.59184894771118" x2="155.59184894771118" y1="0" y2="30"/><line opacity="0.2" x1="296.89545818946704" x2="296.89545818946704" y1="0" y2="30"/><line opacity="0.2" x1="263.58303924659174" x2="263.58303924659174" y1="0" y2="30"/><line opacity="0.2" x1="116.60976922536358" x2="116.60976922536358" y1="0" y2="30"/><line opacity="0.2" x1="392.65008454382945" x2="392.65008454382945" y1="0" y2="30"/><line opacity="0.2" x1="213.62702431821793" x2="213.62702431821793" y1="0" y2="30"/><line opacity="0.2" x1="280.24711649466633" x2="280.24711649466633" y1="0" y2="30"/><line opacity="0.2" x1="322.7775586921197" x2="322.7775586921197" y1="0" y2="30"/><line opacity="0.2" x1="344.0005002469856" x2="344.0005002469856" y1="0" y2="30"/><line opacity="0.2" x1="285.3604811831769" x2="285.3604811831769" y1="0" y2="30"/><line opacity="0.2" x1="259.6832801569333" x2="259.6832801569333" y1="0" y2="30"/><line opacity="0.2" x1="345.8637690928392" x2="345.8637690928392" y1="0" y2="30"/><line opacity="0.2" x1="139.72272146757635" x2="139.72272146757635" y1="0" y2="30"/><line opacity="0.2" x1="287.6178480120705" x2="287.6178480120705" y1="0" y2="30"/><line opacity="0.2" x1="231.7791875275945" x2="231.7791875275945" y1="0" y2="30"/><line opacity="0.2" x1="260.65884227109353" x2="260.65884227109353" y1="0" y2="30"/><line opacity="0.2" x1="326.94124303379" x2="326.94124303379" y1="0" y2="30"/><line opacity="0.2" x1="316.83538873451965" x2="316.83538873451965" y1="0" y2="30"/><line opacity="0.2" x1="185.77091506084395" x2="185.77091506084395" y1="0" y2="30"/><line opacity="0.2" x1="290.1487681772384" x2="290.1487681772384" y1="0" y2="30"/><line opacity="0.2" x1="249.13852512986813" x2="249.13852512986813" y1="0" y2="30"/><line opacity="0.2" x1="539.6819428562228" x2="539.6819428562228" y1="0" y2="30"/><line opacity="0.2" x1="139.99015307688714" x2="139.99015307688714" y1="0" y2="30"/><line opacity="0.2" x1="77.57805363108261" x2="77.57805363108261" y1="0" y2="30"/><line opacity="0.2" x1="140.47213706246177" x2="140.47213706246177" y1="0" y2="30"/><line opacity="0.2" x1="247.8162272967087" x2="247.8162272967087" y1="0" y2="30"/><line opacity="0.2" x1="334.2646794305767" x2="334.2646794305767" y1="0" y2="30"/><line opacity="0.2" x1="444.20846362754355" x2="444.20846362754355" y1="0" y2="30"/><line opacity="0.2" x1="448.1838748471206" x2="448.1838748471206" y1="0" y2="30"/><line opacity="0.2" x1="269.9557840435949" x2="269.9557840435949" y1="0" y2="30"/><line opacity="0.2" x1="346.27101741935934" x2="346.27101741935934" y1="0" y2="30"/><line opacity="0.2" x1="321.8952283517415" x2="321.8952283517415" y1="0" y2="30"/><line opacity="0.2" x1="441.14142612765033" x2="441.14142612765033" y1="0" y2="30"/><line opacity="0.2" x1="251.85534735441928" x2="251.85534735441928" y1="0" y2="30"/><line opacity="0.2" x1="305.4418294505469" x2="305.4418294505469" y1="0" y2="30"/><line opacity="0.2" x1="425.8272776847017" x2="425.8272776847017" y1="0" y2="30"/><line opacity="0.2" x1="389.4492703456276" x2="389.4492703456276" y1="0" y2="30"/><line opacity="0.2" x1="368.0485493896657" x2="368.0485493896657" y1="0" y2="30"/><line opacity="0.2" x1="376.50337195072996" x2="376.50337195072996" y1="0" y2="30"/><line opacity="0.2" x1="374.24611540634413" x2="374.24611540634413" y1="0" y2="30"/><line opacity="0.2" x1="402.72068722809485" x2="402.72068722809485" y1="0" y2="30"/><line opacity="0.2" x1="314.11597463281635" x2="314.11597463281635" y1="0" y2="30"/><line opacity="0.2" x1="349.3178852663892" x2="349.3178852663892" y1="0" y2="30"/><line opacity="0.2" x1="190.69685392767326" x2="190.69685392767326" y1="0" y2="30"/><line opacity="0.2" x1="418.10891544617806" x2="418.10891544617806" y1="0" y2="30"/><line opacity="0.2" x1="456.24141875574" x2="456.24141875574" y1="0" y2="30"/><line opacity="0.2" x1="427.6370181793176" x2="427.6370181793176" y1="0" y2="30"/><line opacity="0.2" x1="232.6060905333553" x2="232.6060905333553" y1="0" y2="30"/><line opacity="0.2" x1="495.06585260122444" x2="495.06585260122444" y1="0" y2="30"/><line opacity="0.2" x1="273.7577179757727" x2="273.7577179757727" y1="0" y2="30"/><line opacity="0.2" x1="244.54139482872193" x2="244.54139482872193" y1="0" y2="30"/><line opacity="0.2" x1="306.63268065973233" x2="306.63268065973233" y1="0" y2="30"/><line opacity="0.2" x1="355.1164767558696" x2="355.1164767558696" y1="0" y2="30"/><line opacity="0.2" x1="460.7659414704579" x2="460.7659414704579" y1="0" y2="30"/><line opacity="0.2" x1="223.38817694472502" x2="223.38817694472502" y1="0" y2="30"/><line opacity="0.2" x1="335.3999199042532" x2="335.3999199042532" y1="0" y2="30"/><line opacity="0.2" x1="404.06883515242373" x2="404.06883515242373" y1="0" y2="30"/><line opacity="0.2" x1="222.13363650301514" x2="222.13363650301514" y1="0" y2="30"/><line opacity="0.2" x1="119.49892334041857" x2="119.49892334041857" y1="0" y2="30"/><line opacity="0.2" x1="553.2489392127383" x2="553.2489392127383" y1="0" y2="30"/><line opacity="0.2" x1="412.97077006303016" x2="412.97077006303016" y1="0" y2="30"/><line opacity="0.2" x1="330.7075034052507" x2="330.7075034052507" y1="0" y2="30"/><line opacity="0.2" x1="385.31837492145365" x2="385.31837492145365" y1="0" y2="30"/><line opacity="0.2" x1="340.52148465679096" x2="340.52148465679096" y1="0" y2="30"/><line opacity="0.2" x1="313.62042943288867" x2="313.62042943288867" y1="0" y2="30"/><line opacity="0.2" x1="307.42990469083765" x2="307.42990469083765" y1="0" y2="30"/><line opacity="0.2" x1="470.4823109436173" x2="470.4823109436173" y1="0" y2="30"/><line opacity="0.2" x1="550.7528729031086" x2="550.7528729031086" y1="0" y2="30"/><line opacity="0.2" x1="430.83334004574107" x2="430.83334004574107" y1="0" y2="30"/><line opacity="0.2" x1="319.1976363207717" x2="319.1976363207717" y1="0" y2="30"/><line opacity="0.2" x1="334.8199353703951" x2="334.8199353703951" y1="0" y2="30"/><line opacity="0.2" x1="325.0309393640143" x2="325.0309393640143" y1="0" y2="30"/><line opacity="0.2" x1="303.04239570760575" x2="303.04239570760575" y1="0" y2="30"/><line opacity="0.2" x1="185.00635830594933" x2="185.00635830594933" y1="0" y2="30"/><line opacity="0.2" x1="245.77442470831082" x2="245.77442470831082" y1="0" y2="30"/><line opacity="0.2" x1="549.8105403311097" x2="549.8105403311097" y1="0" y2="30"/><line opacity="0.2" x1="249.75872982617574" x2="249.75872982617574" y1="0" y2="30"/><line opacity="0.2" x1="343.26799031922803" x2="343.26799031922803" y1="0" y2="30"/><line opacity="0.2" x1="333.11448077004826" x2="333.11448077004826" y1="0" y2="30"/><line opacity="0.2" x1="371.72249050946516" x2="371.72249050946516" y1="0" y2="30"/><line opacity="0.2" x1="422.84215277820584" x2="422.84215277820584" y1="0" y2="30"/><line opacity="0.2" x1="374.58863943929754" x2="374.58863943929754" y1="0" y2="30"/><line opacity="0.2" x1="396.2359469404712" x2="396.2359469404712" y1="0" y2="30"/><line opacity="0.2" x1="314.8056926741296" x2="314.8056926741296" y1="0" y2="30"/><line opacity="0.2" x1="395.5519140512925" x2="395.5519140512925" y1="0" y2="30"/><line opacity="0.2" x1="228.59031189685956" x2="228.59031189685956" y1="0" y2="30"/><line opacity="0.2" x1="341.6434813692776" x2="341.6434813692776" y1="0" y2="30"/><line opacity="0.2" x1="323.99301098258604" x2="323.99301098258604" y1="0" y2="30"/><line opacity="0.2" x1="267.0681748711811" x2="267.0681748711811" y1="0" y2="30"/><line opacity="0.2" x1="180.2461071393894" x2="180.2461071393894" y1="0" y2="30"/><line opacity="0.2" x1="291.3935426141754" x2="291.3935426141754" y1="0" y2="30"/><line opacity="0.2" x1="237.81095329632745" x2="237.81095329632745" y1="0" y2="30"/><line opacity="0.2" x1="411.7001971004523" x2="411.7001971004523" y1="0" y2="30"/><line opacity="0.2" x1="608.2160624031608" x2="608.2160624031608" y1="0" y2="30"/><line opacity="0.2" x1="507.8906999220226" x2="507.8906999220226" y1="0" y2="30"/><line opacity="0.2" x1="392.5000562987269" x2="392.5000562987269" y1="0" y2="30"/><line opacity="0.2" x1="200.38176897313923" x2="200.38176897313923" y1="0" y2="30"/><line opacity="0.2" x1="339.7917842515148" x2="339.7917842515148" y1="0" y2="30"/><line opacity="0.2" x1="351.2713532441317" x2="351.2713532441317" y1="0" y2="30"/><line opacity="0.2" x1="368.1651531146722" x2="368.1651531146722" y1="0" y2="30"/><line opacity="0.2" x1="296.89199415705764" x2="296.89199415705764" y1="0" y2="30"/><line opacity="0.2" x1="376.61613542718516" x2="376.61613542718516" y1="0" y2="30"/><line opacity="0.2" x1="323.9314060452148" x2="323.9314060452148" y1="0" y2="30"/><line opacity="0.2" x1="349.726339741643" x2="349.726339741643" y1="0" y2="30"/><line opacity="0.2" x1="296.7019652201179" x2="296.7019652201179" y1="0" y2="30"/><line opacity="0.2" x1="421.6222836978042" x2="421.6222836978042" y1="0" y2="30"/><line opacity="0.2" x1="281.7329098415187" x2="281.7329098415187" y1="0" y2="30"/><line opacity="0.2" x1="185.927273478722" x2="185.927273478722" y1="0" y2="30"/><line opacity="0.2" x1="359.339737337339" x2="359.339737337339" y1="0" y2="30"/><line opacity="0.2" x1="165.689017482565" x2="165.689017482565" y1="0" y2="30"/><line opacity="0.2" x1="285.145775280696" x2="285.145775280696" y1="0" y2="30"/><line opacity="0.2" x1="370.7179838545762" x2="370.7179838545762" y1="0" y2="30"/><line opacity="0.2" x1="216.23257078509798" x2="216.23257078509798" y1="0" y2="30"/><line opacity="0.2" x1="336.1718716795869" x2="336.1718716795869" y1="0" y2="30"/><line opacity="0.2" x1="368.79063800473034" x2="368.79063800473034" y1="0" y2="30"/><line opacity="0.2" x1="258.5831903888143" x2="258.5831903888143" y1="0" y2="30"/><line opacity="0.2" x1="405.8663927187798" x2="405.8663927187798" y1="0" y2="30"/><line opacity="0.2" x1="397.3515509117044" x2="397.3515509117044" y1="0" y2="30"/><line opacity="0.2" x1="448.6758012947334" x2="448.6758012947334" y1="0" y2="30"/><line opacity="0.2" x1="179.10826063121075" x2="179.10826063121075" y1="0" y2="30"/><line opacity="0.2" x1="548.872839337451" x2="548.872839337451" y1="0" y2="30"/><line opacity="0.2" x1="376.5216697815705" x2="376.5216697815705" y1="0" y2="30"/><line opacity="0.2" x1="381.82230696880237" x2="381.82230696880237" y1="0" y2="30"/><line opacity="0.2" x1="458.53692555728463" x2="458.53692555728463" y1="0" y2="30"/><line opacity="0.2" x1="372.0158236170592" x2="372.0158236170592" y1="0" y2="30"/><line opacity="0.2" x1="438.0436047170453" x2="438.0436047170453" y1="0" y2="30"/><line opacity="0.2" x1="312.68255112127605" x2="312.68255112127605" y1="0" y2="30"/><line opacity="0.2" x1="517.4445984636203" x2="517.4445984636203" y1="0" y2="30"/><line opacity="0.2" x1="278.38538763528834" x2="278.38538763528834" y1="0" y2="30"/><line opacity="0.2" x1="279.15013685193975" x2="279.15013685193975" y1="0" y2="30"/><line opacity="0.2" x1="391.83292521528193" x2="391.83292521528193" y1="0" y2="30"/><line opacity="0.2" x1="261.4333449550105" x2="261.4333449550105" y1="0" y2="30"/><line opacity="0.2" x1="107.22737840054444" x2="107.22737840054444" y1="0" y2="30"/><line opacity="0.2" x1="432.54427891892846" x2="432.54427891892846" y1="0" y2="30"/><line opacity="0.2" x1="477.67729741199616" x2="477.67729741199616" y1="0" y2="30"/><line opacity="0.2" x1="186.82857366571798" x2="186.82857366571798" y1="0" y2="30"/><line opacity="0.2" x1="362.910394027896" x2="362.910394027896" y1="0" y2="30"/><line opacity="0.2" x1="357.0857494642037" x2="357.0857494642037" y1="0" y2="30"/><line opacity="0.2" x1="429.968393901039" x2="429.968393901039" y1="0" y2="30"/><line opacity="0.2" x1="375.0956112100599" x2="375.0956112100599" y1="0" y2="30"/><line opacity="0.2" x1="133.66325520565783" x2="133.66325520565783" y1="0" y2="30"/><line opacity="0.2" x1="346.7759391307076" x2="346.7759391307076" y1="0" y2="30"/><line opacity="0.2" x1="446.2077085951946" x2="446.2077085951946" y1="0" y2="30"/><line opacity="0.2" x1="174.43537808357522" x2="174.43537808357522" y1="0" y2="30"/><line opacity="0.2" x1="288.93566046225595" x2="288.93566046225595" y1="0" y2="30"/><line opacity="0.2" x1="388.2371525950278" x2="388.2371525950278" y1="0" y2="30"/><line opacity="0.2" x1="262.396372501583" x2="262.396372501583" y1="0" y2="30"/><line opacity="0.2" x1="362.5599522491133" x2="362.5599522491133" y1="0" y2="30"/><line opacity="0.2" x1="360.4836884215258" x2="360.4836884215258" y1="0" y2="30"/><line opacity="0.2" x1="311.26552126496347" x2="311.26552126496347" y1="0" y2="30"/><line opacity="0.2" x1="357.7170087456484" x2="357.7170087456484" y1="0" y2="30"/><line opacity="0.2" x1="499.82325998644257" x2="499.82325998644257" y1="0" y2="30"/><line opacity="0.2" x1="428.12565344506163" x2="428.12565344506163" y1="0" y2="30"/><line opacity="0.2" x1="295.485062752515" x2="295.485062752515" y1="0" y2="30"/><line opacity="0.2" x1="419.61786873205705" x2="419.61786873205705" y1="0" y2="30"/><line opacity="0.2" x1="263.7457934880966" x2="263.7457934880966" y1="0" y2="30"/><line opacity="0.2" x1="393.7236725073532" x2="393.7236725073532" y1="0" y2="30"/><line opacity="0.2" x1="252.68493283282274" x2="252.68493283282274" y1="0" y2="30"/><line opacity="0.2" x1="505.89241445150816" x2="505.89241445150816" y1="0" y2="30"/><line opacity="0.2" x1="322.63213729210054" x2="322.63213729210054" y1="0" y2="30"/><line opacity="0.2" x1="376.16663621768663" x2="376.16663621768663" y1="0" y2="30"/><line opacity="0.2" x1="185.08570198076524" x2="185.08570198076524" y1="0" y2="30"/><line opacity="0.2" x1="515.5201118284856" x2="515.5201118284856" y1="0" y2="30"/><line opacity="0.2" x1="218.0517324396912" x2="218.0517324396912" y1="0" y2="30"/><line opacity="0.2" x1="227.0326783406997" x2="227.0326783406997" y1="0" y2="30"/><line opacity="0.2" x1="303.6709486924249" x2="303.6709486924249" y1="0" y2="30"/><line opacity="0.2" x1="312.49361981809056" x2="312.49361981809056" y1="0" y2="30"/><line opacity="0.2" x1="347.492935845939" x2="347.492935845939" y1="0" y2="30"/><line opacity="0.2" x1="302.3587011724482" x2="302.3587011724482" y1="0" y2="30"/><line opacity="0.2" x1="238.43554343219373" x2="238.43554343219373" y1="0" y2="30"/><line opacity="0.2" x1="264.32794367076093" x2="264.32794367076093" y1="0" y2="30"/><line opacity="0.2" x1="83.42901068482371" x2="83.42901068482371" y1="0" y2="30"/><line opacity="0.2" x1="525.6061804662479" x2="525.6061804662479" y1="0" y2="30"/><line opacity="0.2" x1="309.58743058750315" x2="309.58743058750315" y1="0" y2="30"/><line opacity="0.2" x1="323.599827805086" x2="323.599827805086" y1="0" y2="30"/><line opacity="0.2" x1="226.34186891580666" x2="226.34186891580666" y1="0" y2="30"/><line opacity="0.2" x1="382.91945074098663" x2="382.91945074098663" y1="0" y2="30"/><line opacity="0.2" x1="467.3095074785419" x2="467.3095074785419" y1="0" y2="30"/><line opacity="0.2" x1="281.71225381366975" x2="281.71225381366975" y1="0" y2="30"/><line opacity="0.2" x1="297.9270329106539" x2="297.9270329106539" y1="0" y2="30"/><line opacity="0.2" x1="198.59416353000213" x2="198.59416353000213" y1="0" y2="30"/><line opacity="0.2" x1="512.2549517793586" x2="512.2549517793586" y1="0" y2="30"/><line opacity="0.2" x1="446.1695933347221" x2="446.1695933347221" y1="0" y2="30"/><line opacity="0.2" x1="377.34549195939553" x2="377.34549195939553" y1="0" y2="30"/><line opacity="0.2" x1="557.0508258140828" x2="557.0508258140828" y1="0" y2="30"/><line opacity="0.2" x1="308.1521611090846" x2="308.1521611090846" y1="0" y2="30"/><line opacity="0.2" x1="303.15643520479256" x2="303.15643520479256" y1="0" y2="30"/><line opacity="0.2" x1="223.1186286269394" x2="223.1186286269394" y1="0" y2="30"/><line opacity="0.2" x1="279.81712044022277" x2="279.81712044022277" y1="0" y2="30"/><line opacity="0.2" x1="409.77306821250085" x2="409.77306821250085" y1="0" y2="30"/><line opacity="0.2" x1="557.6430940184312" x2="557.6430940184312" y1="0" y2="30"/><line opacity="0.2" x1="211.5411868114491" x2="211.5411868114491" y1="0" y2="30"/><line opacity="0.2" x1="277.7174574955487" x2="277.7174574955487" y1="0" y2="30"/><line opacity="0.2" x1="415.44128853339123" x2="415.44128853339123" y1="0" y2="30"/><line opacity="0.2" x1="248.1454040220066" x2="248.1454040220066" y1="0" y2="30"/><line opacity="0.2" x1="203.85644965924615" x2="203.85644965924615" y1="0" y2="30"/><line opacity="0.2" x1="340.3970986388868" x2="340.3970986388868" y1="0" y2="30"/><line opacity="0.2" x1="214.89892850112136" x2="214.89892850112136" y1="0" y2="30"/><line opacity="0.2" x1="352.965289047703" x2="352.965289047703" y1="0" y2="30"/><line opacity="0.2" x1="281.8164656975775" x2="281.8164656975775" y1="0" y2="30"/><line opacity="0.2" x1="470.6253277234751" x2="470.6253277234751" y1="0" y2="30"/><line opacity="0.2" x1="328.23108338550395" x2="328.23108338550395" y1="0" y2="30"/><line opacity="0.2" x1="341.9622575640292" x2="341.9622575640292" y1="0" y2="30"/><line opacity="0.2" x1="335.67058921675516" x2="335.67058921675516" y1="0" y2="30"/><line opacity="0.2" x1="447.9462888741663" x2="447.9462888741663" y1="0" y2="30"/><line opacity="0.2" x1="209.0629079970761" x2="209.0629079970761" y1="0" y2="30"/><line opacity="0.2" x1="198.4738296639157" x2="198.4738296639157" y1="0" y2="30"/><line opacity="0.2" x1="300.46866945162344" x2="300.46866945162344" y1="0" y2="30"/><line opacity="0.2" x1="242.6489376437851" x2="242.6489376437851" y1="0" y2="30"/><line opacity="0.2" x1="473.82013018304343" x2="473.82013018304343" y1="0" y2="30"/><line opacity="0.2" x1="253.83589296390204" x2="253.83589296390204" y1="0" y2="30"/><line opacity="0.2" x1="395.43831858456457" x2="395.43831858456457" y1="0" y2="30"/><line opacity="0.2" x1="515.8644173218596" x2="515.8644173218596" y1="0" y2="30"/><line opacity="0.2" x1="392.8100466523494" x2="392.8100466523494" y1="0" y2="30"/><line opacity="0.2" x1="391.25148610992966" x2="391.25148610992966" y1="0" y2="30"/><line opacity="0.2" x1="434.22889748896614" x2="434.22889748896614" y1="0" y2="30"/><line opacity="0.2" x1="459.2050982146979" x2="459.2050982146979" y1="0" y2="30"/><line opacity="0.2" x1="356.05308821788833" x2="356.05308821788833" y1="0" y2="30"/><line opacity="0.2" x1="339.9812413117042" x2="339.9812413117042" y1="0" y2="30"/><line opacity="0.2" x1="427.93512809232334" x2="427.93512809232334" y1="0" y2="30"/><line opacity="0.2" x1="463.80074638303523" x2="463.80074638303523" y1="0" y2="30"/><line opacity="0.2" x1="488.9044959135498" x2="488.9044959135498" y1="0" y2="30"/><line opacity="0.2" x1="434.84702422972987" x2="434.84702422972987" y1="0" y2="30"/><line opacity="0.2" x1="161.55888252791445" x2="161.55888252791445" y1="0" y2="30"/><line opacity="0.2" x1="441.8993799250828" x2="441.8993799250828" y1="0" y2="30"/><line opacity="0.2" x1="270.67399914697353" x2="270.67399914697353" y1="0" y2="30"/><line opacity="0.2" x1="371.1191639303175" x2="371.1191639303175" y1="0" y2="30"/><line opacity="0.2" x1="428.31858362775677" x2="428.31858362775677" y1="0" y2="30"/><line opacity="0.2" x1="191.86506263393397" x2="191.86506263393397" y1="0" y2="30"/><line opacity="0.2" x1="265.8824815158036" x2="265.8824815158036" y1="0" y2="30"/><line opacity="0.2" x1="436.54869919494746" x2="436.54869919494746" y1="0" y2="30"/><line opacity="0.2" x1="166.0248930664202" x2="166.0248930664202" y1="0" y2="30"/><line opacity="0.2" x1="417.60507981692524" x2="417.60507981692524" y1="0" y2="30"/><line opacity="0.2" x1="186.76245834205963" x2="186.76245834205963" y1="0" y2="30"/><line opacity="0.2" x1="214.35504265650826" x2="214.35504265650826" y1="0" y2="30"/><line opacity="0.2" x1="338.747536538797" x2="338.747536538797" y1="0" y2="30"/><line opacity="0.2" x1="208.17286831907293" x2="208.17286831907293" y1="0" y2="30"/><line opacity="0.2" x1="381.6056513923192" x2="381.6056513923192" y1="0" y2="30"/><line opacity="0.2" x1="482.66102059638354" x2="482.66102059638354" y1="0" y2="30"/><line opacity="0.2" x1="260.54033178025026" x2="260.54033178025026" y1="0" y2="30"/><line opacity="0.2" x1="330.6138324610483" x2="330.6138324610483" y1="0" y2="30"/><line opacity="0.2" x1="373.8151783581667" x2="373.8151783581667" y1="0" y2="30"/><line opacity="0.2" x1="359.5603098364584" x2="359.5603098364584" y1="0" y2="30"/><line opacity="0.2" x1="221.42895742652615" x2="221.42895742652615" y1="0" y2="30"/><line opacity="0.2" x1="388.0434889971021" x2="388.0434889971021" y1="0" y2="30"/><line opacity="0.2" x1="299.43012772741145" x2="299.43012772741145" y1="0" y2="30"/><line opacity="0.2" x1="485.65968637971804" x2="485.65968637971804" y1="0" y2="30"/><line opacity="0.2" x1="438.3927983665163" x2="438.3927983665163" y1="0" y2="30"/><line opacity="0.2" x1="318.8048488205274" x2="318.8048488205274" y1="0" y2="30"/><line opacity="0.2" x1="393.6569298577583" x2="393.6569298577583" y1="0" y2="30"/><line opacity="0.2" x1="267.8435176105646" x2="267.8435176105646" y1="0" y2="30"/><line opacity="0.2" x1="426.6464793799712" x2="426.6464793799712" y1="0" y2="30"/><line opacity="0.2" x1="297.6112389855316" x2="297.6112389855316" y1="0" y2="30"/><line opacity="0.2" x1="326.8068935198779" x2="326.8068935198779" y1="0" y2="30"/><line opacity="0.2" x1="207.57018776627916" x2="207.57018776627916" y1="0" y2="30"/><line opacity="0.2" x1="382.10263997383896" x2="382.10263997383896" y1="0" y2="30"/><line opacity="0.2" x1="405.9824775893878" x2="405.9824775893878" y1="0" y2="30"/><line opacity="0.2" x1="174.76623439051275" x2="174.76623439051275" y1="0" y2="30"/><line opacity="0.2" x1="325.87913274744915" x2="325.87913274744915" y1="0" y2="30"/><line opacity="0.2" x1="319.3559691168625" x2="319.3559691168625" y1="0" y2="30"/><line opacity="0.2" x1="312.73824639332014" x2="312.73824639332014" y1="0" y2="30"/><line opacity="0.2" x1="317.82373390607944" x2="317.82373390607944" y1="0" y2="30"/><line opacity="0.2" x1="306.8052532620996" x2="306.8052532620996" y1="0" y2="30"/><line opacity="0.2" x1="336.14451356820535" x2="336.14451356820535" y1="0" y2="30"/><line opacity="0.2" x1="318.1573681777585" x2="318.1573681777585" y1="0" y2="30"/><line opacity="0.2" x1="344.5115885746685" x2="344.5115885746685" y1="0" y2="30"/><line opacity="0.2" x1="320.13015848220584" x2="320.13015848220584" y1="0" y2="30"/><line opacity="0.2" x1="413.8039542515236" x2="413.8039542515236" y1="0" y2="30"/><line opacity="0.2" x1="317.707340072896" x2="317.707340072896" y1="0" y2="30"/><line opacity="0.2" x1="327.6871852579349" x2="327.6871852579349" y1="0" y2="30"/><line opacity="0.2" x1="323.516164495055" x2="323.516164495055" y1="0" y2="30"/><line opacity="0.2" x1="345.14583358750025" x2="345.14583358750025" y1="0" y2="30"/><line opacity="0.2" x1="410.6825204836538" x2="410.6825204836538" y1="0" y2="30"/><line opacity="0.2" x1="272.7146477430067" x2="272.7146477430067" y1="0" y2="30"/><line opacity="0.2" x1="331.55216958935773" x2="331.55216958935773" y1="0" y2="30"/><line opacity="0.2" x1="351.1179683314534" x2="351.1179683314534" y1="0" y2="30"/><line opacity="0.2" x1="215.9942398616849" x2="215.9942398616849" y1="0" y2="30"/><line opacity="0.2" x1="499.8883817140698" x2="499.8883817140698" y1="0" y2="30"/><line opacity="0.2" x1="286.87833840422866" x2="286.87833840422866" y1="0" y2="30"/><line opacity="0.2" x1="361.30305046698993" x2="361.30305046698993" y1="0" y2="30"/><line opacity="0.2" x1="274.7834360012416" x2="274.7834360012416" y1="0" y2="30"/><line opacity="0.2" x1="401.8117962776547" x2="401.8117962776547" y1="0" y2="30"/><line opacity="0.2" x1="289.87976254816743" x2="289.87976254816743" y1="0" y2="30"/><line opacity="0.2" x1="307.46930492927737" x2="307.46930492927737" y1="0" y2="30"/><line opacity="0.2" x1="130.38692679870584" x2="130.38692679870584" y1="0" y2="30"/><line opacity="0.2" x1="353.49788807442326" x2="353.49788807442326" y1="0" y2="30"/><line opacity="0.2" x1="381.62525946161765" x2="381.62525946161765" y1="0" y2="30"/><line opacity="0.2" x1="287.26113691419425" x2="287.26113691419425" y1="0" y2="30"/><line opacity="0.2" x1="478.65979345482504" x2="478.65979345482504" y1="0" y2="30"/><line opacity="0.2" x1="532.932404587982" x2="532.932404587982" y1="0" y2="30"/><line opacity="0.2" x1="416.3760824574731" x2="416.3760824574731" y1="0" y2="30"/><line opacity="0.2" x1="237.37415676906298" x2="237.37415676906298" y1="0" y2="30"/><line opacity="0.2" x1="620" x2="620" y1="0" y2="30"/><line opacity="0.2" x1="157.06468255672934" x2="157.06468255672934" y1="0" y2="30"/><line opacity="0.2" x1="272.8758053673273" x2="272.8758053673273" y1="0" y2="30"/><line opacity="0.2" x1="214.70144283266586" x2="214.70144283266586" y1="0" y2="30"/><line opacity="0.2" x1="245.0418735591963" x2="245.0418735591963" y1="0" y2="30"/><line opacity="0.2" x1="290.5723869158709" x2="290.5723869158709" y1="0" y2="30"/><line opacity="0.2" x1="245.64428397962135" x2="245.64428397962135" y1="0" y2="30"/><line opacity="0.2" x1="283.95623691421065" x2="283.95623691421065" y1="0" y2="30"/><line opacity="0.2" x1="287.3980166928161" x2="287.3980166928161" y1="0" y2="30"/><line opacity="0.2" x1="205.06791453003015" x2="205.06791453003015" y1="0" y2="30"/><line opacity="0.2" x1="260.237639621717" x2="260.237639621717" y1="0" y2="30"/><line opacity="0.2" x1="128.4591784432709" x2="128.4591784432709" y1="0" y2="30"/><line opacity="0.2" x1="358.9553121307863" x2="358.9553121307863" y1="0" y2="30"/><line opacity="0.2" x1="275.65353533049904" x2="275.65353533049904" y1="0" y2="30"/><line opacity="0.2" x1="321.7594262950091" x2="321.7594262950091" y1="0" y2="30"/><line opacity="0.2" x1="347.24642343839895" x2="347.24642343839895" y1="0" y2="30"/><line opacity="0.2" x1="377.4594256470317" x2="377.4594256470317" y1="0" y2="30"/><line opacity="0.2" x1="281.82017738500787" x2="281.82017738500787" y1="0" y2="30"/><line opacity="0.2" x1="484.2311636696061" x2="484.2311636696061" y1="0" y2="30"/><line opacity="0.2" x1="561.9945405852061" x2="561.9945405852061" y1="0" y2="30"/><line opacity="0.2" x1="36.29349221804995" x2="36.29349221804995" y1="0" y2="30"/><line opacity="0.2" x1="233.1241557348776" x2="233.1241557348776" y1="0" y2="30"/><line opacity="0.2" x1="176.3180575352217" x2="176.3180575352217" y1="0" y2="30"/><line opacity="0.2" x1="312.1173218056032" x2="312.1173218056032" y1="0" y2="30"/><line opacity="0.2" x1="188.23413325928388" x2="188.23413325928388" y1="0" y2="30"/><line opacity="0.2" x1="369.9638622264586" x2="369.9638622264586" y1="0" y2="30"/><line opacity="0.2" x1="302.75247019592393" x2="302.75247019592393" y1="0" y2="30"/><line opacity="0.2" x1="480.6416463332529" x2="480.6416463332529" y1="0" y2="30"/><line opacity="0.2" x1="369.1144229025613" x2="369.1144229025613" y1="0" y2="30"/><line opacity="0.2" x1="467.1202694802695" x2="467.1202694802695" y1="0" y2="30"/><line opacity="0.2" x1="318.01822551646933" x2="318.01822551646933" y1="0" y2="30"/><line opacity="0.2" x1="306.4613074589621" x2="306.4613074589621" y1="0" y2="30"/><line opacity="0.2" x1="318.08729956154207" x2="318.08729956154207" y1="0" y2="30"/><line opacity="0.2" x1="148.95445735446066" x2="148.95445735446066" y1="0" y2="30"/><line opacity="0.2" x1="167.73890865028127" x2="167.73890865028127" y1="0" y2="30"/><line opacity="0.2" x1="439.8231100232335" x2="439.8231100232335" y1="0" y2="30"/><line opacity="0.2" x1="326.44652078260617" x2="326.44652078260617" y1="0" y2="30"/><line opacity="0.2" x1="370.7301768187995" x2="370.7301768187995" y1="0" y2="30"/><line opacity="0.2" x1="356.1443632169975" x2="356.1443632169975" y1="0" y2="30"/><line opacity="0.2" x1="434.58653489345846" x2="434.58653489345846" y1="0" y2="30"/><line opacity="0.2" x1="374.43208333935024" x2="374.43208333935024" y1="0" y2="30"/><line opacity="0.2" x1="314.5993413555359" x2="314.5993413555359" y1="0" y2="30"/><line opacity="0.2" x1="235.05989729500942" x2="235.05989729500942" y1="0" y2="30"/><line opacity="0.2" x1="277.95858551590806" x2="277.95858551590806" y1="0" y2="30"/><line opacity="0.2" x1="191.75269361772288" x2="191.75269361772288" y1="0" y2="30"/><line opacity="0.2" x1="339.49727988132327" x2="339.49727988132327" y1="0" y2="30"/><line opacity="0.2" x1="300.9886750326987" x2="300.9886750326987" y1="0" y2="30"/><line opacity="0.2" x1="146.56479186439313" x2="146.56479186439313" y1="0" y2="30"/><line opacity="0.2" x1="192.7001927264237" x2="192.7001927264237" y1="0" y2="30"/><line opacity="0.2" x1="411.21747086062214" x2="411.21747086062214" y1="0" y2="30"/><line opacity="0.2" x1="431.12617670404893" x2="431.12617670404893" y1="0" y2="30"/><line opacity="0.2" x1="395.79809774703415" x2="395.79809774703415" y1="0" y2="30"/><line opacity="0.2" x1="357.9659906453246" x2="357.9659906453246" y1="0" y2="30"/><line opacity="0.2" x1="213.6940043310276" x2="213.6940043310276" y1="0" y2="30"/><line opacity="0.2" x1="392.0491855615668" x2="392.0491855615668" y1="0" y2="30"/><line opacity="0.2" x1="349.547710184301" x2="349.547710184301" y1="0" y2="30"/><line opacity="0.2" x1="389.1900600659672" x2="389.1900600659672" y1="0" y2="30"/><line opacity="0.2" x1="369.89929014267676" x2="369.89929014267676" y1="0" y2="30"/><line opacity="0.2" x1="343.3896086404948" x2="343.3896086404948" y1="0" y2="30"/><line opacity="0.2" x1="388.9129187803749" x2="388.9129187803749" y1="0" y2="30"/><line opacity="0.2" x1="496.7858402837542" x2="496.7858402837542" y1="0" y2="30"/><line opacity="0.2" x1="455.3893567280156" x2="455.3893567280156" y1="0" y2="30"/><line opacity="0.2" x1="237.93220565409953" x2="237.93220565409953" y1="0" y2="30"/><line opacity="0.2" x1="385.4286301582614" x2="385.4286301582614" y1="0" y2="30"/><line opacity="0.2" x1="195.78091168345048" x2="195.78091168345048" y1="0" y2="30"/><line opacity="0.2" x1="541.8955338854677" x2="541.8955338854677" y1="0" y2="30"/><line opacity="0.2" x1="466.3560283670133" x2="466.3560283670133" y1="0" y2="30"/><line opacity="0.2" x1="299.0880610358679" x2="299.0880610358679" y1="0" y2="30"/><line opacity="0.2" x1="398.1671531080902" x2="398.1671531080902" y1="0" y2="30"/><line opacity="0.2" x1="382.5173525817959" x2="382.5173525817959" y1="0" y2="30"/><line opacity="0.2" x1="375.01730239135986" x2="375.01730239135986" y1="0" y2="30"/><line opacity="0.2" x1="254.20576347375822" x2="254.20576347375822" y1="0" y2="30"/><line opacity="0.2" x1="288.62054512142134" x2="288.62054512142134" y1="0" y2="30"/><line opacity="0.2" x1="316.3637543459688" x2="316.3637543459688" y1="0" y2="30"/><line opacity="0.2" x1="349.6746117461533" x2="349.6746117461533" y1="0" y2="30"/><line opacity="0.2" x1="298.9891635590448" x2="298.9891635590448" y1="0" y2="30"/><line opacity="0.2" x1="329.5930940013965" x2="329.5930940013965" y1="0" y2="30"/><line opacity="0.2" x1="192.6104514543544" x2="192.6104514543544" y1="0" y2="30"/><line opacity="0.2" x1="517.7005649444928" x2="517.7005649444928" y1="0" y2="30"/><line opacity="0.2" x1="443.5092438149881" x2="443.5092438149881" y1="0" y2="30"/><line opacity="0.2" x1="307.5963844820738" x2="307.5963844820738" y1="0" y2="30"/><line opacity="0.2" x1="491.1507029857429" x2="491.1507029857429" y1="0" y2="30"/><line opacity="0.2" x1="504.580133955949" x2="504.580133955949" y1="0" y2="30"/><line opacity="0.2" x1="174.29772983852178" x2="174.29772983852178" y1="0" y2="30"/><line opacity="0.2" x1="210.5031737242941" x2="210.5031737242941" y1="0" y2="30"/><line opacity="0.2" x1="334.0821787008821" x2="334.0821787008821" y1="0" y2="30"/><line opacity="0.2" x1="331.32475209280506" x2="331.32475209280506" y1="0" y2="30"/><line opacity="0.2" x1="324.3456850940556" x2="324.3456850940556" y1="0" y2="30"/><line opacity="0.2" x1="315.6284179740798" x2="315.6284179740798" y1="0" y2="30"/><line opacity="0.2" x1="258.1424652394159" x2="258.1424652394159" y1="0" y2="30"/><line opacity="0.2" x1="218.68149357114018" x2="218.68149357114018" y1="0" y2="30"/><line opacity="0.2" x1="429.77436100563096" x2="429.77436100563096" y1="0" y2="30"/><line opacity="0.2" x1="349.37762365126105" x2="349.37762365126105" y1="0" y2="30"/><line opacity="0.2" x1="231.35319182687567" x2="231.35319182687567" y1="0" y2="30"/><line opacity="0.2" x1="491.56756452723005" x2="491.56756452723005" y1="0" y2="30"/><line opacity="0.2" x1="370.75113168171464" x2="370.75113168171464" y1="0" y2="30"/><line opacity="0.2" x1="401.4216217245713" x2="401.4216217245713" y1="0" y2="30"/><line opacity="0.2" x1="236.70341122214603" x2="236.70341122214603" y1="0" y2="30"/><line opacity="0.2" x1="443.7244860081443" x2="443.7244860081443" y1="0" y2="30"/><line opacity="0.2" x1="395.6906199253951" x2="395.6906199253951" y1="0" y2="30"/><line opacity="0.2" x1="431.7047592120229" x2="431.7047592120229" y1="0" y2="30"/><line opacity="0.2" x1="514.6818048313645" x2="514.6818048313645" y1="0" y2="30"/><line opacity="0.2" x1="487.25406898974745" x2="487.25406898974745" y1="0" y2="30"/><line opacity="0.2" x1="388.92649649944525" x2="388.92649649944525" y1="0" y2="30"/><line opacity="0.2" x1="247.6696265588274" x2="247.6696265588274" y1="0" y2="30"/><line opacity="0.2" x1="401.2383035727533" x2="401.2383035727533" y1="0" y2="30"/><line opacity="0.2" x1="353.1939954706255" x2="353.1939954706255" y1="0" y2="30"/><line opacity="0.2" x1="309.92180890919593" x2="309.92180890919593" y1="0" y2="30"/><line opacity="0.2" x1="230.01947447902887" x2="230.01947447902887" y1="0" y2="30"/><line opacity="0.2" x1="289.5337858455455" x2="289.5337858455455" y1="0" y2="30"/><line opacity="0.2" x1="291.6985315951246" x2="291.6985315951246" y1="0" y2="30"/><line opacity="0.2" x1="469.51140074839617" x2="469.51140074839617" y1="0" y2="30"/><line opacity="0.2" x1="224.07150828854031" x2="224.07150828854031" y1="0" y2="30"/><line opacity="0.2" x1="519.2594443184237" x2="519.2594443184237" y1="0" y2="30"/><line opacity="0.2" x1="221.91543612364794" x2="221.91543612364794" y1="0" y2="30"/><line opacity="0.2" x1="68.15728197919475" x2="68.15728197919475" y1="0" y2="30"/><line opacity="0.2" x1="374.4064738438423" x2="374.4064738438423" y1="0" y2="30"/><line opacity="0.2" x1="287.2651165480968" x2="287.2651165480968" y1="0" y2="30"/><line opacity="0.2" x1="235.4737792507444" x2="235.4737792507444" y1="0" y2="30"/><line opacity="0.2" x1="409.73393847993793" x2="409.73393847993793" y1="0" y2="30"/><line opacity="0.2" x1="359.01652354352836" x2="359.01652354352836" y1="0" y2="30"/><line opacity="0.2" x1="366.1406777983672" x2="366.1406777983672" y1="0" y2="30"/><line opacity="0.2" x1="214.5180958729165" x2="214.5180958729165" y1="0" y2="30"/><line opacity="0.2" x1="229.04335642081247" x2="229.04335642081247" y1="0" y2="30"/><line opacity="0.2" x1="378.08227934714307" x2="378.08227934714307" y1="0" y2="30"/><line opacity="0.2" x1="257.86870854345835" x2="257.86870854345835" y1="0" y2="30"/><line opacity="0.2" x1="207.2819163353903" x2="207.2819163353903" y1="0" y2="30"/><line opacity="0.2" x1="493.8186888237865" x2="493.8186888237865" y1="0" y2="30"/><line opacity="0.2" x1="337.7428672563907" x2="337.7428672563907" y1="0" y2="30"/><line opacity="0.2" x1="308.6836194189035" x2="308.6836194189035" y1="0" y2="30"/><line opacity="0.2" x1="328.94212318352896" x2="328.94212318352896" y1="0" y2="30"/><line opacity="0.2" x1="343.49779913230765" x2="343.49779913230765" y1="0" y2="30"/><line opacity="0.2" x1="238.88335027251503" x2="238.88335027251503" y1="0" y2="30"/><line opacity="0.2" x1="386.2988324110923" x2="386.2988324110923" y1="0" y2="30"/><line opacity="0.2" x1="418.18565047755527" x2="418.18565047755527" y1="0" y2="30"/><line opacity="0.2" x1="288.1353631958789" x2="288.1353631958789" y1="0" y2="30"/><line opacity="0.2" x1="305.5786851913567" x2="305.5786851913567" y1="0" y2="30"/><line opacity="0.2" x1="314.9307496858316" x2="314.9307496858316" y1="0" y2="30"/><line opacity="0.2" x1="389.9003204901992" x2="389.9003204901992" y1="0" y2="30"/><line opacity="0.2" x1="461.4941317555556" x2="461.4941317555556" y1="0" y2="30"/><line opacity="0.2" x1="365.0738303024255" x2="365.0738303024255" y1="0" y2="30"/><line opacity="0.2" x1="306.3125823833578" x2="306.3125823833578" y1="0" y2="30"/><line opacity="0.2" x1="236.64472765207344" x2="236.64472765207344" y1="0" y2="30"/><line opacity="0.2" x1="269.1039731446838" x2="269.1039731446838" y1="0" y2="30"/><line opacity="0.2" x1="428.51919142906814" x2="428.51919142906814" y1="0" y2="30"/><line opacity="0.2" x1="400.9971630997524" x2="400.9971630997524" y1="0" y2="30"/><line opacity="0.2" x1="350.7243178282152" x2="350.7243178282152" y1="0" y2="30"/><line opacity="0.2" x1="179.4585286804516" x2="179.4585286804516" y1="0" y2="30"/><line opacity="0.2" x1="301.50514019466834" x2="301.50514019466834" y1="0" y2="30"/><line opacity="0.2" x1="325.3139284703095" x2="325.3139284703095" y1="0" y2="30"/><line opacity="0.2" x1="413.1337000327845" x2="413.1337000327845" y1="0" y2="30"/><line opacity="0.2" x1="392.7389964875767" x2="392.7389964875767" y1="0" y2="30"/><line opacity="0.2" x1="340.612009664193" x2="340.612009664193" y1="0" y2="30"/><line opacity="0.2" x1="177.6129256084505" x2="177.6129256084505" y1="0" y2="30"/><line opacity="0.2" x1="273.8043114725474" x2="273.8043114725474" y1="0" y2="30"/><line opacity="0.2" x1="340.6125956075611" x2="340.6125956075611" y1="0" y2="30"/><line opacity="0.2" x1="217.82501562138594" x2="217.82501562138594" y1="0" y2="30"/><line opacity="0.2" x1="304.3271573751106" x2="304.3271573751106" y1="0" y2="30"/><line opacity="0.2" x1="259.3951154585529" x2="259.3951154585529" y1="0" y2="30"/><line opacity="0.2" x1="440.2241121361335" x2="440.2241121361335" y1="0" y2="30"/><line opacity="0.2" x1="449.88925194852266" x2="449.88925194852266" y1="0" y2="30"/><line opacity="0.2" x1="428.25944765961214" x2="428.25944765961214" y1="0" y2="30"/><line opacity="0.2" x1="263.76986127161604" x2="263.76986127161604" y1="0" y2="30"/><line opacity="0.2" x1="153.53538993604917" x2="153.53538993604917" y1="0" y2="30"/><line opacity="0.2" x1="463.5442003510641" x2="463.5442003510641" y1="0" y2="30"/><line opacity="0.2" x1="300.0825576412206" x2="300.0825576412206" y1="0" y2="30"/><line opacity="0.2" x1="256.3956784234688" x2="256.3956784234688" y1="0" y2="30"/><line opacity="0.2" x1="346.19276552942057" x2="346.19276552942057" y1="0" y2="30"/><line opacity="0.2" x1="232.62370762294927" x2="232.62370762294927" y1="0" y2="30"/><line opacity="0.2" x1="309.7879609274223" x2="309.7879609274223" y1="0" y2="30"/><line opacity="0.2" x1="393.7575167777678" x2="393.7575167777678" y1="0" y2="30"/><line opacity="0.2" x1="387.6045576090517" x2="387.6045576090517" y1="0" y2="30"/><line opacity="0.2" x1="303.65466705028933" x2="303.65466705028933" y1="0" y2="30"/><line opacity="0.2" x1="307.46403591165443" x2="307.46403591165443" y1="0" y2="30"/><line opacity="0.2" x1="375.5870251732143" x2="375.5870251732143" y1="0" y2="30"/><line opacity="0.2" x1="307.8565429988763" x2="307.8565429988763" y1="0" y2="30"/><line opacity="0.2" x1="335.46767179017843" x2="335.46767179017843" y1="0" y2="30"/><line opacity="0.2" x1="372.3116053454395" x2="372.3116053454395" y1="0" y2="30"/><line opacity="0.2" x1="363.31670569354856" x2="363.31670569354856" y1="0" y2="30"/><line opacity="0.2" x1="393.09687059976943" x2="393.09687059976943" y1="0" y2="30"/><line opacity="0.2" x1="275.9953922176116" x2="275.9953922176116" y1="0" y2="30"/><line opacity="0.2" x1="319.44312974514264" x2="319.44312974514264" y1="0" y2="30"/><line opacity="0.2" x1="149.67284149132558" x2="149.67284149132558" y1="0" y2="30"/><line opacity="0.2" x1="363.24780683511193" x2="363.24780683511193" y1="0" y2="30"/><line opacity="0.2" x1="403.98387277160924" x2="403.98387277160924" y1="0" y2="30"/><line opacity="0.2" x1="349.54426942351483" x2="349.54426942351483" y1="0" y2="30"/><line opacity="0.2" x1="326.3199703138275" x2="326.3199703138275" y1="0" y2="30"/><line opacity="0.2" x1="281.5042386005102" x2="281.5042386005102" y1="0" y2="30"/><line opacity="0.2" x1="298.3957395483649" x2="298.3957395483649" y1="0" y2="30"/><line opacity="0.2" x1="465.216528870715" x2="465.216528870715" y1="0" y2="30"/><line opacity="0.2" x1="308.80433708824893" x2="308.80433708824893" y1="0" y2="30"/><line opacity="0.2" x1="453.373811062637" x2="453.373811062637" y1="0" y2="30"/><line opacity="0.2" x1="331.9501766512228" x2="331.9501766512228" y1="0" y2="30"/><line opacity="0.2" x1="263.1609043306212" x2="263.1609043306212" y1="0" y2="30"/><line opacity="0.2" x1="513.27229832241" x2="513.27229832241" y1="0" y2="30"/><line opacity="0.2" x1="523.6673178612215" x2="523.6673178612215" y1="0" y2="30"/><line opacity="0.2" x1="231.32838421919715" x2="231.32838421919715" y1="0" y2="30"/><line opacity="0.2" x1="234.6926420432" x2="234.6926420432" y1="0" y2="30"/><line opacity="0.2" x1="412.27141719113945" x2="412.27141719113945" y1="0" y2="30"/><line opacity="0.2" x1="258.87866872892624" x2="258.87866872892624" y1="0" y2="30"/><line opacity="0.2" x1="420.463905336984" x2="420.463905336984" y1="0" y2="30"/><line opacity="0.2" x1="462.69574422176527" x2="462.69574422176527" y1="0" y2="30"/><line opacity="0.2" x1="209.69327251411767" x2="209.69327251411767" y1="0" y2="30"/><line opacity="0.2" x1="450.52669092140064" x2="450.52669092140064" y1="0" y2="30"/><line opacity="0.2" x1="331.3305258647578" x2="331.3305258647578" y1="0" y2="30"/><line opacity="0.2" x1="305.0762835476305" x2="305.0762835476305" y1="0" y2="30"/><line opacity="0.2" x1="435.5445636412113" x2="435.5445636412113" y1="0" y2="30"/><line opacity="0.2" x1="296.1193245294276" x2="296.1193245294276" y1="0" y2="30"/><line opacity="0.2" x1="283.42846049336083" x2="283.42846049336083" y1="0" y2="30"/><line opacity="0.2" x1="393.908584920305" x2="393.908584920305" y1="0" y2="30"/><line opacity="0.2" x1="352.1413917192874" x2="352.1413917192874" y1="0" y2="30"/><line opacity="0.2" x1="236.85573101416668" x2="236.85573101416668" y1="0" y2="30"/><line opacity="0.2" x1="446.1514323854426" x2="446.1514323854426" y1="0" y2="30"/><line opacity="0.2" x1="227.6937258495438" x2="227.6937258495438" y1="0" y2="30"/><line opacity="0.2" x1="239.21913318735486" x2="239.21913318735486" y1="0" y2="30"/><line opacity="0.2" x1="386.8259384082757" x2="386.8259384082757" y1="0" y2="30"/><line opacity="0.2" x1="280.1487348216357" x2="280.1487348216357" y1="0" y2="30"/><line opacity="0.2" x1="302.31726904260756" x2="302.31726904260756" y1="0" y2="30"/><line opacity="0.2" x1="222.17284404700888" x2="222.17284404700888" y1="0" y2="30"/><line opacity="0.2" x1="317.65892037469933" x2="317.65892037469933" y1="0" y2="30"/><line opacity="0.2" x1="126.82767591925955" x2="126.82767591925955" y1="0" y2="30"/><line opacity="0.2" x1="432.8326766801599" x2="432.8326766801599" y1="0" y2="30"/><line opacity="0.2" x1="206.93835572552263" x2="206.93835572552263" y1="0" y2="30"/><line opacity="0.2" x1="223.24902518902866" x2="223.24902518902866" y1="0" y2="30"/><line opacity="0.2" x1="333.7124138870826" x2="333.7124138870826" y1="0" y2="30"/><line opacity="0.2" x1="411.26359991331435" x2="411.26359991331435" y1="0" y2="30"/><line opacity="0.2" x1="238.31931343017231" x2="238.31931343017231" y1="0" y2="30"/><line opacity="0.2" x1="382.36994510860103" x2="382.36994510860103" y1="0" y2="30"/><line opacity="0.2" x1="331.8718623993021" x2="331.8718623993021" y1="0" y2="30"/><line opacity="0.2" x1="400.16358251816814" x2="400.16358251816814" y1="0" y2="30"/><line opacity="0.2" x1="351.9859939529838" x2="351.9859939529838" y1="0" y2="30"/><line opacity="0.2" x1="304.66943776493883" x2="304.66943776493883" y1="0" y2="30"/><line opacity="0.2" x1="257.4118424481168" x2="257.4118424481168" y1="0" y2="30"/></g></svg>