<svg xmlns="http://www.w3.org/2000/svg" xmlns:xlink="http://www.w3.org/1999/xlink" class="plot-13629204cb634" fill="currentColor" font-family="system-ui, sans-serif" font-size="10" text-anchor="middle" width="640" height="60" viewBox="0 0 640 60" style="color: black;"><style>
        .plot-13629204cb634 {
          display: block;
          background: white;
          height: auto;
          height: intrinsic;
          max-width: 100%;
        }
        .plot-13629204cb634 text,
        .plot-13629204cb634 tspan {
          white-space: pre;
        }
      </style><g aria-label="x-axis tick" fill="none" stroke="currentColor" transform="translate(0.5,0)"><path transform="translate(39.36648992751489,30)" d="M0,0L0,6"/><path transform="translate(126.32738636874245,30)" d="M0,0L0,6"/><path transform="translate(213.28828280996999,30)" d="M0,0L0,6"/><path transform="translate(300.2491792511976,30)" d="M0,0L0,6"/><path transform="translate(387.2100756924251,30)" d="M0,0L0,6"/><path transform="translate(474.17097213365275,30)" d="M0,0L0,6"/><path transform="translate(561.1318685748803,30)" d="M0,0L0,6"/></g><g aria-label="x-axis tick label" font-variant="tabular-nums" transform="translate(0.5,9.5)"><text y="0.71em" transform="translate(39.36648992751489,30)">−3</text><text y="0.71em" transform="translate(126.32738636874245,30)">−2</text><text y="0.71em" transform="translate(213.28828280996999,30)">−1</text><text y="0.71em" transform="translate(300.2491792511976,30)">0</text><text y="0.71em" transform="translate(387.2100756924251,30)">1</text><text y="0.71em" transform="translate(474.17097213365275,30)">2</text><text y="0.71em" transform="translate(561.1318685748803,30)">3</text></g><g aria-label="tick" stroke="royalblue" transform="translate(0.5,0)"><line opacity="0.2" x1="273.36587622939" x2="273.36587622939" y1="0" y2="30"/><line opacity="0.2" x1="193.7694325116293" x2="193.7694325116293" y1="0" y2="30"/><line opacity="0.2" x1="267.4628910040528" x2="267.4628910040528" y1="0" y2="30"/><line opacity="0.2" x1="237.12677258370846" x2="237.12677258370846" y1="0" y2="30"/><line opacity="0.2" x1="472.5334340203915" x2="472.5334340203915" y1="0" y2="30"/><line opacity="0.2" x1="198.425512564446" x2="198.425512564446" y1="0" y2="30"/><line opacity="0.2" x1="272.51881104049966" x2="272.51881104049966" y1="0" y2="30"/><line opacity="0.2" x1="161.86307247409667" x2="161.86307247409667" y1="0" y2="30"/><line opacity="0.2" x1="376.8936947319678" x2="376.8936947319678" y1="0" y2="30"/><line opacity="0.2" x1="293.4984902034066" x2="293.4984902034066" y1="0" y2="30"/><line opacity="0.2" x1="375.0275616729277" x2="375.0275616729277" y1="0" y2="30"/><line opacity="0.2" x1="222.17168987302819" x2="222.17168987302819" y1="0" y2="30"/><line opacity="0.2" x1="428.99217666304185" x2="428.99217666304185" y1="0" y2="30"/><line opacity="0.2" x1="359.8688479731286" x2="359.8688479731286" y1="0" y2="30"/><line opacity="0.2" x1="414.1336775660684" x2="414.1336775660684" y1="0" y2="30"/><line opacity="0.2" x1="300.8019441268605" x2="300.8019441268605" y1="0" y2="30"/><line opacity="0.2" x1="183.44431236528533" x2="183.44431236528533" y1="0" y2="30"/><line opacity="0.2" x1="228.5042056343994" x2="228.5042056343994" y1="0" y2="30"/><line opacity="0.2" x1="236.39219610027345" x2="236.39219610027345" y1="0" y2="30"/><line opacity="0.2" x1="321.06961098693097" x2="321.06961098693097" y1="0" y2="30"/><line opacity="0.2" x1="414.5626988635939" x2="414.5626988635939" y1="0" y2="30"/><line opacity="0.2" x1="152.5467159372563" x2="152.5467159372563" y1="0" y2="30"/><line opacity="0.2" x1="339.9840160120955" x2="339.9840160120955" y1="0" y2="30"/><line opacity="0.2" x1="413.8703102308658" x2="413.8703102308658" y1="0" y2="30"/><line opacity="0.2" x1="286.1066598894999" x2="286.1066598894999" y1="0" y2="30"/><line opacity="0.2" x1="218.83011418330958" x2="218.83011418330958" y1="0" y2="30"/><line opacity="0.2" x1="388.76837200422005" x2="388.76837200422005" y1="0" y2="30"/><line opacity="0.2" x1="253.05699871822088" x2="253.05699871822088" y1="0" y2="30"/><line opacity="0.2" x1="332.4867890003844" x2="332.4867890003844" y1="0" y2="30"/><line opacity="0.2" x1="346.8900961272041" x2="346.8900961272041" y1="0" y2="30"/><line opacity="0.2" x1="223.01439022692034" x2="223.01439022692034" y1="0" y2="30"/><line opacity="0.2" x1="443.7626302438701" x2="443.7626302438701" y1="0" y2="30"/><line opacity="0.2" x1="318.10747376350207" x2="318.10747376350207" y1="0" y2="30"/><line opacity="0.2" x1="396.16778557515016" x2="396.16778557515016" y1="0" y2="30"/><line opacity="0.2" x1="447.06526147872376" x2="447.06526147872376" y1="0" y2="30"/><line opacity="0.2" x1="261.390308439744" x2="261.390308439744" y1="0" y2="30"/><line opacity="0.2" x1="265.8001663036263" x2="265.8001663036263" y1="0" y2="30"/><line opacity="0.2" x1="260.4971279321711" x2="260.4971279321711" y1="0" y2="30"/><line opacity="0.2" x1="173.78937064204052" x2="173.78937064204052" y1="0" y2="30"/><line opacity="0.2" x1="332.1774783063146" x2="332.1774783063146" y1="0" y2="30"/><line opacity="0.2" x1="318.3895510198954" x2="318.3895510198954" y1="0" y2="30"/><line opacity="0.2" x1="296.3138697007945" x2="296.3138697007945" y1="0" y2="30"/><line opacity="0.2" x1="153.29811528021753" x2="153.29811528021753" y1="0" y2="30"/><line opacity="0.2" x1="416.1313309122089" x2="416.1313309122089" y1="0" y2="30"/><line opacity="0.2" x1="362.88983667182526" x2="362.88983667182526" y1="0" y2="30"/><line opacity="0.2" x1="372.3537711019992" x2="372.3537711019992" y1="0" y2="30"/><line opacity="0.2" x1="170.73681344037786" x2="170.73681344037786" y1="0" y2="30"/><line opacity="0.2" x1="301.8356944251154" x2="301.8356944251154" y1="0" y2="30"/><line opacity="0.2" x1="230.0884335273684" x2="230.0884335273684" y1="0" y2="30"/><line opacity="0.2" x1="375.7577932679262" x2="375.7577932679262" y1="0" y2="30"/><line opacity="0.2" x1="268.6089665166241" x2="268.6089665166241" y1="0" y2="30"/><line opacity="0.2" x1="296.18832439154926" x2="296.18832439154926" y1="0" y2="30"/><line opacity="0.2" x1="409.978630139402" x2="409.978630139402" y1="0" y2="30"/><line opacity="0.2" x1="374.30220363676807" x2="374.30220363676807" y1="0" y2="30"/><line opacity="0.2" x1="451.9968659330315" x2="451.9968659330315" y1="0" y2="30"/><line opacity="0.2" x1="351.2072725437449" x2="351.2072725437449" y1="0" y2="30"/><line opacity="0.2" x1="309.3591319348527" x2="309.3591319348527" y1="0" y2="30"/><line opacity="0.2" x1="156.502318520221" x2="156.502318520221" y1="0" y2="30"/><line opacity="0.2" x1="400.2223635648144" x2="400.2223635648144" y1="0" y2="30"/><line opacity="0.2" x1="220.8465487734728" x2="220.8465487734728" y1="0" y2="30"/><line opacity="0.2" x1="277.54913238448614" x2="277.54913238448614" y1="0" y2="30"/><line opacity="0.2" x1="256.9368080203603" x2="256.9368080203603" y1="0" y2="30"/><line opacity="0.2" x1="361.49446637346864" x2="361.49446637346864" y1="0" y2="30"/><line opacity="0.2" x1="381.7251026097229" x2="381.7251026097229" y1="0" y2="30"/><line opacity="0.2" x1="222.9240125305523" x2="222.9240125305523" y1="0" y2="30"/><line opacity="0.2" x1="234.43615678317374" x2="234.43615678317374" y1="0" y2="30"/><line opacity="0.2" x1="444.07909861738716" x2="444.07909861738716" y1="0" y2="30"/><line opacity="0.2" x1="266.9092409303068" x2="266.9092409303068" y1="0" y2="30"/><line opacity="0.2" x1="354.88872246891714" x2="354.88872246891714" y1="0" y2="30"/><line opacity="0.2" x1="360.4099964207884" x2="360.4099964207884" y1="0" y2="30"/><line opacity="0.2" x1="416.02120984090317" x2="416.02120984090317" y1="0" y2="30"/><line opacity="0.2" x1="301.1108866146103" x2="301.1108866146103" y1="0" y2="30"/><line opacity="0.2" x1="276.9358502009806" x2="276.9358502009806" y1="0" y2="30"/><line opacity="0.2" x1="296.7918907895508" x2="296.7918907895508" y1="0" y2="30"/><line opacity="0.2" x1="423.5764371476387" x2="423.5764371476387" y1="0" y2="30"/><line opacity="0.2" x1="304.8594234359566" x2="304.8594234359566" y1="0" y2="30"/><line opacity="0.2" x1="481.4171605854384" x2="481.4171605854384" y1="0" y2="30"/><line opacity="0.2" x1="319.24695272912106" x2="319.24695272912106" y1="0" y2="30"/><line opacity="0.2" x1="376.21288692700176" x2="376.21288692700176" y1="0" y2="30"/><line opacity="0.2" x1="245.54534096687382" x2="245.54534096687382" y1="0" y2="30"/><line opacity="0.2" x1="318.8767531718509" x2="318.8767531718509" y1="0" y2="30"/><line opacity="0.2" x1="187.09754363587402" x2="187.09754363587402" y1="0" y2="30"/><line opacity="0.2" x1="317.0608013114317" x2="317.0608013114317" y1="0" y2="30"/><line opacity="0.2" x1="271.53972265762997" x2="271.53972265762997" y1="0" y2="30"/><line opacity="0.2" x1="415.9573217635873" x2="415.9573217635873" y1="0" y2="30"/><line opacity="0.2" x1="209.49567578542982" x2="209.49567578542982" y1="0" y2="30"/><line opacity="0.2" x1="334.6045073563208" x2="334.6045073563208" y1="0" y2="30"/><line opacity="0.2" x1="223.61396265061805" x2="223.61396265061805" y1="0" y2="30"/><line opacity="0.2" x1="338.2613753103348" x2="338.2613753103348" y1="0" y2="30"/><line opacity="0.2" x1="449.24093085949676" x2="449.24093085949676" y1="0" y2="30"/><line opacity="0.2" x1="288.2635330265676" x2="288.2635330265676" y1="0" y2="30"/><line opacity="0.2" x1="197.65683313016424" x2="197.65683313016424" y1="0" y2="30"/><line opacity="0.2" x1="227.83014035882857" x2="227.83014035882857" y1="0" y2="30"/><line opacity="0.2" x1="398.4555355738346" x2="398.4555355738346" y1="0" y2="30"/><line opacity="0.2" x1="402.70386610331195" x2="402.70386610331195" y1="0" y2="30"/><line opacity="0.2" x1="314.05662350453895" x2="314.05662350453895" y1="0" y2="30"/><line opacity="0.2" x1="366.1625962299478" x2="366.1625962299478" y1="0" y2="30"/><line opacity="0.2" x1="237.28916728825604" x2="237.28916728825604" y1="0" y2="30"/><line opacity="0.2" x1="380.4104395381752" x2="380.4104395381752" y1="0" y2="30"/><line opacity="0.2" x1="184.68505582123976" x2="184.68505582123976" y1="0" y2="30"/><line opacity="0.2" x1="446.82640137136707" x2="446.82640137136707" y1="0" y2="30"/><line opacity="0.2" x1="233.8300948092697" x2="233.8300948092697" y1="0" y2="30"/><line opacity="0.2" x1="410.5095034129639" x2="410.5095034129639" y1="0" y2="30"/><line opacity="0.2" x1="250.92947845294435" x2="250.92947845294435" y1="0" y2="30"/><line opacity="0.2" x1="261.09497522006524" x2="261.09497522006524" y1="0" y2="30"/><line opacity="0.2" x1="165.81437650715688" x2="165.81437650715688" y1="0" y2="30"/><line opacity="0.2" x1="258.0053600104043" x2="258.0053600104043" y1="0" y2="30"/><line opacity="0.2" x1="324.84758538211474" x2="324.84758538211474" y1="0" y2="30"/><line opacity="0.2" x1="339.940833429462" x2="339.940833429462" y1="0" y2="30"/><line opacity="0.2" x1="283.11516354404756" x2="283.11516354404756" y1="0" y2="30"/><line opacity="0.2" x1="312.80375241057925" x2="312.80375241057925" y1="0" y2="30"/><line opacity="0.2" x1="310.41418118512496" x2="310.41418118512496" y1="0" y2="30"/><line opacity="0.2" x1="303.36599816327265" x2="303.36599816327265" y1="0" y2="30"/><line opacity="0.2" x1="229.33832888315752" x2="229.33832888315752" y1="0" y2="30"/><line opacity="0.2" x1="322.33858662399905" x2="322.33858662399905" y1="0" y2="30"/><line opacity="0.2" x1="230.0782183706217" x2="230.0782183706217" y1="0" y2="30"/><line opacity="0.2" x1="250.6997310886392" x2="250.6997310886392" y1="0" y2="30"/><line opacity="0.2" x1="191.1748818789348" x2="191.1748818789348" y1="0" y2="30"/><line opacity="0.2" x1="190.1402724269057" x2="190.1402724269057" y1="0" y2="30"/><line opacity="0.2" x1="414.06691017948134" x2="414.06691017948134" y1="0" y2="30"/><line opacity="0.2" x1="380.8235589315209" x2="380.8235589315209" y1="0" y2="30"/><line opacity="0.2" x1="374.6958615567468" x2="374.6958615567468" y1="0" y2="30"/><line opacity="0.2" x1="533.347587907118" x2="533.347587907118" y1="0" y2="30"/><line opacity="0.2" x1="299.9354031790862" x2="299.9354031790862" y1="0" y2="30"/><line opacity="0.2" x1="311.5804160423228" x2="311.5804160423228" y1="0" y2="30"/><line opacity="0.2" x1="454.9297315623001" x2="454.9297315623001" y1="0" y2="30"/><line opacity="0.2" x1="534.8866117087438" x2="534.8866117087438" y1="0" y2="30"/><line opacity="0.2" x1="319.20805976510695" x2="319.20805976510695" y1="0" y2="30"/><line opacity="0.2" x1="149.8610662761802" x2="149.8610662761802" y1="0" y2="30"/><line opacity="0.2" x1="294.55760910505194" x2="294.55760910505194" y1="0" y2="30"/><line opacity="0.2" x1="308.73631734872" x2="308.73631734872" y1="0" y2="30"/><line opacity="0.2" x1="223.93986895308228" x2="223.93986895308228" y1="0" y2="30"/><line opacity="0.2" x1="370.7539328809162" x2="370.7539328809162" y1="0" y2="30"/><line opacity="0.2" x1="203.44401198054604" x2="203.44401198054604" y1="0" y2="30"/><line opacity="0.2" x1="363.33879092235725" x2="363.33879092235725" y1="0" y2="30"/><line opacity="0.2" x1="289.50594130854665" x2="289.50594130854665" y1="0" y2="30"/><line opacity="0.2" x1="330.85893672668425" x2="330.85893672668425" y1="0" y2="30"/><line opacity="0.2" x1="375.8285990862212" x2="375.8285990862212" y1="0" y2="30"/><line opacity="0.2" x1="249.52285551152923" x2="249.52285551152923" y1="0" y2="30"/><line opacity="0.2" x1="196.08885771775164" x2="196.08885771775164" y1="0" y2="30"/><line opacity="0.2" x1="302.84636069139384" x2="302.84636069139384" y1="0" y2="30"/><line opacity="0.2" x1="365.03761565914067" x2="365.03761565914067" y1="0" y2="30"/><line opacity="0.2" x1="224.32647453878755" x2="224.32647453878755" y1="0" y2="30"/><line opacity="0.2" x1="321.210108923272" x2="321.210108923272" y1="0" y2="30"/><line opacity="0.2" x1="458.56089711794993" x2="458.56089711794993" y1="0" y2="30"/><line opacity="0.2" x1="368.8546662483747" x2="368.8546662483747" y1="0" y2="30"/><line opacity="0.2" x1="199.7535753623151" x2="199.7535753623151" y1="0" y2="30"/><line opacity="0.2" x1="326.70503967143054" x2="326.70503967143054" y1="0" y2="30"/><line opacity="0.2" x1="320.94665028092567" x2="320.94665028092567" y1="0" y2="30"/><line opacity="0.2" x1="313.6904784139647" x2="313.6904784139647" y1="0" y2="30"/><line opacity="0.2" x1="226.4285667708794" x2="226.4285667708794" y1="0" y2="30"/><line opacity="0.2" x1="288.75118121723466" x2="288.75118121723466" y1="0" y2="30"/><line opacity="0.2" x1="241.65880821256283" x2="241.65880821256283" y1="0" y2="30"/><line opacity="0.2" x1="223.32909754767047" x2="223.32909754767047" y1="0" y2="30"/><line opacity="0.2" x1="272.97629828088134" x2="272.97629828088134" y1="0" y2="30"/><line opacity="0.2" x1="391.5880778692723" x2="391.5880778692723" y1="0" y2="30"/><line opacity="0.2" x1="451.0061745006034" x2="451.0061745006034" y1="0" y2="30"/><line opacity="0.2" x1="313.34684600471184" x2="313.34684600471184" y1="0" y2="30"/><line opacity="0.2" x1="150.57569429966907" x2="150.57569429966907" y1="0" y2="30"/><line opacity="0.2" x1="218.84846709494678" x2="218.84846709494678" y1="0" y2="30"/><line opacity="0.2" x1="153.43215113972127" x2="153.43215113972127" y1="0" y2="30"/><line opacity="0.2" x1="308.37818853390934" x2="308.37818853390934" y1="0" y2="30"/><line opacity="0.2" x1="439.85307603916095" x2="439.85307603916095" y1="0" y2="30"/><line opacity="0.2" x1="354.1657395920228" x2="354.1657395920228" y1="0" y2="30"/><line opacity="0.2" x1="336.9315730379701" x2="336.9315730379701" y1="0" y2="30"/><line opacity="0.2" x1="364.39265488618935" x2="364.39265488618935" y1="0" y2="30"/><line opacity="0.2" x1="163.87983540137722" x2="163.87983540137722" y1="0" y2="30"/><line opacity="0.2" x1="407.81160806576816" x2="407.81160806576816" y1="0" y2="30"/><line opacity="0.2" x1="354.66802498136275" x2="354.66802498136275" y1="0" y2="30"/><line opacity="0.2" x1="247.21189430685783" x2="247.21189430685783" y1="0" y2="30"/><line opacity="0.2" x1="423.0234534030481" x2="423.0234534030481" y1="0" y2="30"/><line opacity="0.2" x1="187.5659202796164" x2="187.5659202796164" y1="0" y2="30"/><line opacity="0.2" x1="325.3574594210605" x2="325.3574594210605" y1="0" y2="30"/><line opacity="0.2" x1="156.40378226875123" x2="156.40378226875123" y1="0" y2="30"/><line opacity="0.2" x1="205.35736932422617" x2="205.35736932422617" y1="0" y2="30"/><line opacity="0.2" x1="223.69085419849281" x2="223.69085419849281" y1="0" y2="30"/><line opacity="0.2" x1="218.67171610716764" x2="218.67171610716764" y1="0" y2="30"/><line opacity="0.2" x1="342.1978478155146" x2="342.1978478155146" y1="0" y2="30"/><line opacity="0.2" x1="230.48591908482783" x2="230.48591908482783" y1="0" y2="30"/><line opacity="0.2" x1="211.89265122053308" x2="211.89265122053308" y1="0" y2="30"/><line opacity="0.2" x1="518.2106185781871" x2="518.2106185781871" y1="0" y2="30"/><line opacity="0.2" x1="405.3025042333791" x2="405.3025042333791" y1="0" y2="30"/><line opacity="0.2" x1="371.70211021519265" x2="371.70211021519265" y1="0" y2="30"/><line opacity="0.2" x1="229.06287977337806" x2="229.06287977337806" y1="0" y2="30"/><line opacity="0.2" x1="358.3849025977779" x2="358.3849025977779" y1="0" y2="30"/><line opacity="0.2" x1="285.8236650740252" x2="285.8236650740252" y1="0" y2="30"/><line opacity="0.2" x1="419.529607068275" x2="419.529607068275" y1="0" y2="30"/><line opacity="0.2" x1="306.4828376805875" x2="306.4828376805875" y1="0" y2="30"/><line opacity="0.2" x1="319.8026230975517" x2="319.8026230975517" y1="0" y2="30"/><line opacity="0.2" x1="207.51260446332626" x2="207.51260446332626" y1="0" y2="30"/><line opacity="0.2" x1="232.03302848153155" x2="232.03302848153155" y1="0" y2="30"/><line opacity="0.2" x1="213.44709864089867" x2="213.44709864089867" y1="0" y2="30"/><line opacity="0.2" x1="325.58135479848295" x2="325.58135479848295" y1="0" y2="30"/><line opacity="0.2" x1="319.1378593467518" x2="319.1378593467518" y1="0" y2="30"/><line opacity="0.2" x1="414.6516544173344" x2="414.6516544173344" y1="0" y2="30"/><line opacity="0.2" x1="337.4923875452534" x2="337.4923875452534" y1="0" y2="30"/><line opacity="0.2" x1="294.3678736991698" x2="294.3678736991698" y1="0" y2="30"/><line opacity="0.2" x1="277.00933394929325" x2="277.00933394929325" y1="0" y2="30"/><line opacity="0.2" x1="268.64222183566477" x2="268.64222183566477" y1="0" y2="30"/><line opacity="0.2" x1="305.6874982242684" x2="305.6874982242684" y1="0" y2="30"/><line opacity="0.2" x1="146.8374161990982" x2="146.8374161990982" y1="0" y2="30"/><line opacity="0.2" x1="227.88131710151643" x2="227.88131710151643" y1="0" y2="30"/><line opacity="0.2" x1="274.3408823732303" x2="274.3408823732303" y1="0" y2="30"/><line opacity="0.2" x1="234.73246635940205" x2="234.73246635940205" y1="0" y2="30"/><line opacity="0.2" x1="504.0964912987689" x2="504.0964912987689" y1="0" y2="30"/><line opacity="0.2" x1="269.8220343124541" x2="269.8220343124541" y1="0" y2="30"/><line opacity="0.2" x1="183.6623650257187" x2="183.6623650257187" y1="0" y2="30"/><line opacity="0.2" x1="317.7378417285516" x2="317.7378417285516" y1="0" y2="30"/><line opacity="0.2" x1="476.56590301080115" x2="476.56590301080115" y1="0" y2="30"/><line opacity="0.2" x1="282.1999066656639" x2="282.1999066656639" y1="0" y2="30"/><line opacity="0.2" x1="251.33535103529985" x2="251.33535103529985" y1="0" y2="30"/><line opacity="0.2" x1="305.12178451426166" x2="305.12178451426166" y1="0" y2="30"/><line opacity="0.2" x1="361.8504728157285" x2="361.8504728157285" y1="0" y2="30"/><line opacity="0.2" x1="385.13126825469146" x2="385.13126825469146" y1="0" y2="30"/><line opacity="0.2" x1="384.35390290560775" x2="384.35390290560775" y1="0" y2="30"/><line opacity="0.2" x1="313.73239110872686" x2="313.73239110872686" y1="0" y2="30"/><line opacity="0.2" x1="236.4648947244746" x2="236.4648947244746" y1="0" y2="30"/><line opacity="0.2" x1="478.221113276422" x2="478.221113276422" y1="0" y2="30"/><line opacity="0.2" x1="185.92925348534624" x2="185.92925348534624" y1="0" y2="30"/><line opacity="0.2" x1="331.5118510374675" x2="331.5118510374675" y1="0" y2="30"/><line opacity="0.2" x1="256.6404121341411" x2="256.6404121341411" y1="0" y2="30"/><line opacity="0.2" x1="397.478177272814" x2="397.478177272814" y1="0" y2="30"/><line opacity="0.2" x1="87.12361644679336" x2="87.12361644679336" y1="0" y2="30"/><line opacity="0.2" x1="258.4913424788887" x2="258.4913424788887" y1="0" y2="30"/><line opacity="0.2" x1="241.52304940299294" x2="241.52304940299294" y1="0" y2="30"/><line opacity="0.2" x1="295.4432481350282" x2="295.4432481350282" y1="0" y2="30"/><line opacity="0.2" x1="378.7695698136049" x2="378.7695698136049" y1="0" y2="30"/><line opacity="0.2" x1="259.68413383400514" x2="259.68413383400514" y1="0" y2="30"/><line opacity="0.2" x1="197.55672083279072" x2="197.55672083279072" y1="0" y2="30"/><line opacity="0.2" x1="296.181536863382" x2="296.181536863382" y1="0" y2="30"/><line opacity="0.2" x1="290.993764083315" x2="290.993764083315" y1="0" y2="30"/><line opacity="0.2" x1="272.73666146309597" x2="272.73666146309597" y1="0" y2="30"/><line opacity="0.2" x1="277.42656621139554" x2="277.42656621139554" y1="0" y2="30"/><line opacity="0.2" x1="250.93116487786085" x2="250.93116487786085" y1="0" y2="30"/><line opacity="0.2" x1="369.82442335146396" x2="369.82442335146396" y1="0" y2="30"/><line opacity="0.2" x1="379.2088719483451" x2="379.2088719483451" y1="0" y2="30"/><line opacity="0.2" x1="281.29577385556945" x2="281.29577385556945" y1="0" y2="30"/><line opacity="0.2" x1="472.6671651751058" x2="472.6671651751058" y1="0" y2="30"/><line opacity="0.2" x1="139.6602622267903" x2="139.6602622267903" y1="0" y2="30"/><line opacity="0.2" x1="355.9117554016648" x2="355.9117554016648" y1="0" y2="30"/><line opacity="0.2" x1="135.91889853309527" x2="135.91889853309527" y1="0" y2="30"/><line opacity="0.2" x1="283.6611688343747" x2="283.6611688343747" y1="0" y2="30"/><line opacity="0.2" x1="313.0968331876884" x2="313.0968331876884" y1="0" y2="30"/><line opacity="0.2" x1="242.89563359617142" x2="242.89563359617142" y1="0" y2="30"/><line opacity="0.2" x1="561.4590604204132" x2="561.4590604204132" y1="0" y2="30"/><line opacity="0.2" x1="349.9081757704675" x2="349.9081757704675" y1="0" y2="30"/><line opacity="0.2" x1="213.74139885153406" x2="213.74139885153406" y1="0" y2="30"/><line opacity="0.2" x1="275.2559010545405" x2="275.2559010545405" y1="0" y2="30"/><line opacity="0.2" x1="281.5688721197468" x2="281.5688721197468" y1="0" y2="30"/><line opacity="0.2" x1="397.241166463604" x2="397.241166463604" y1="0" y2="30"/><line opacity="0.2" x1="332.75784566977137" x2="332.75784566977137" y1="0" y2="30"/><line opacity="0.2" x1="408.5305092275372" x2="408.5305092275372" y1="0" y2="30"/><line opacity="0.2" x1="424.02009440109435" x2="424.02009440109435" y1="0" y2="30"/><line opacity="0.2" x1="303.44587884500334" x2="303.44587884500334" y1="0" y2="30"/><line opacity="0.2" x1="355.05805864673545" x2="355.05805864673545" y1="0" y2="30"/><line opacity="0.2" x1="281.7392618475511" x2="281.7392618475511" y1="0" y2="30"/><line opacity="0.2" x1="321.4684718218364" x2="321.4684718218364" y1="0" y2="30"/><line opacity="0.2" x1="374.5646329528083" x2="374.5646329528083" y1="0" y2="30"/><line opacity="0.2" x1="346.37655908818465" x2="346.37655908818465" y1="0" y2="30"/><line opacity="0.2" x1="217.24682914644245" x2="217.24682914644245" y1="0" y2="30"/><line opacity="0.2" x1="272.36823197015326" x2="272.36823197015326" y1="0" y2="30"/><line opacity="0.2" x1="469.3714976690011" x2="469.3714976690011" y1="0" y2="30"/><line opacity="0.2" x1="305.03592363422007" x2="305.03592363422007" y1="0" y2="30"/><line opacity="0.2" x1="318.6805788858936" x2="318.6805788858936" y1="0" y2="30"/><line opacity="0.2" x1="249.5415830267071" x2="249.5415830267071" y1="0" y2="30"/><line opacity="0.2" x1="335.72932806889634" x2="335.72932806889634" y1="0" y2="30"/><line opacity="0.2" x1="400.0143431352019" x2="400.0143431352019" y1="0" y2="30"/><line opacity="0.2" x1="348.3525828759414" x2="348.3525828759414" y1="0" y2="30"/><line opacity="0.2" x1="326.6043735372035" x2="326.6043735372035" y1="0" y2="30"/><line opacity="0.2" x1="200.93491311750572" x2="200.93491311750572" y1="0" y2="30"/><line opacity="0.2" x1="311.07342404662853" x2="311.07342404662853" y1="0" y2="30"/><line opacity="0.2" x1="268.4509717875982" x2="268.4509717875982" y1="0" y2="30"/><line opacity="0.2" x1="232.60024732154142" x2="232.60024732154142" y1="0" y2="30"/><line opacity="0.2" x1="404.78044388224856" x2="404.78044388224856" y1="0" y2="30"/><line opacity="0.2" x1="303.7657421313506" x2="303.7657421313506" y1="0" y2="30"/><line opacity="0.2" x1="329.72868112307816" x2="329.72868112307816" y1="0" y2="30"/><line opacity="0.2" x1="197.68428932142905" x2="197.68428932142905" y1="0" y2="30"/><line opacity="0.2" x1="393.493312466775" x2="393.493312466775" y1="0" y2="30"/><line opacity="0.2" x1="285.09369055704224" x2="285.09369055704224" y1="0" y2="30"/><line opacity="0.2" x1="131.39052311144084" x2="131.39052311144084" y1="0" y2="30"/><line opacity="0.2" x1="279.4943290077946" x2="279.4943290077946" y1="0" y2="30"/><line opacity="0.2" x1="241.30985768361265" x2="241.30985768361265" y1="0" y2="30"/><line opacity="0.2" x1="232.25235500449446" x2="232.25235500449446" y1="0" y2="30"/><line opacity="0.2" x1="403.5098077427335" x2="403.5098077427335" y1="0" y2="30"/><line opacity="0.2" x1="195.20298021741146" x2="195.20298021741146" y1="0" y2="30"/><line opacity="0.2" x1="256.06602966443074" x2="256.06602966443074" y1="0" y2="30"/><line opacity="0.2" x1="234.75939758404178" x2="234.75939758404178" y1="0" y2="30"/><line opacity="0.2" x1="406.12303998712616" x2="406.12303998712616" y1="0" y2="30"/><line opacity="0.2" x1="227.03851455390472" x2="227.03851455390472" y1="0" y2="30"/><line opacity="0.2" x1="440.05231482488534" x2="440.05231482488534" y1="0" y2="30"/><line opacity="0.2" x1="353.2807664583838" x2="353.2807664583838" y1="0" y2="30"/><line opacity="0.2" x1="217.14438265003417" x2="217.14438265003417" y1="0" y2="30"/><line opacity="0.2" x1="73.33279332427679" x2="73.33279332427679" y1="0" y2="30"/><line opacity="0.2" x1="323.0089024698742" x2="323.0089024698742" y1="0" y2="30"/><line opacity="0.2" x1="374.98753221666755" x2="374.98753221666755" y1="0" y2="30"/><line opacity="0.2" x1="348.6870680491877" x2="348.6870680491877" y1="0" y2="30"/><line opacity="0.2" x1="227.92141267698395" x2="227.92141267698395" y1="0" y2="30"/><line opacity="0.2" x1="326.31390714487975" x2="326.31390714487975" y1="0" y2="30"/><line opacity="0.2" x1="335.7569432025766" x2="335.7569432025766" y1="0" y2="30"/><line opacity="0.2" x1="164.14855603780902" x2="164.14855603780902" y1="0" y2="30"/><line opacity="0.2" x1="275.432781118617" x2="275.432781118617" y1="0" y2="30"/><line opacity="0.2" x1="136.13817047260534" x2="136.13817047260534" y1="0" y2="30"/><line opacity="0.2" x1="325.84489015488714" x2="325.84489015488714" y1="0" y2="30"/><line opacity="0.2" x1="353.3129276812366" x2="353.3129276812366" y1="0" y2="30"/><line opacity="0.2" x1="205.04154816316242" x2="205.04154816316242" y1="0" y2="30"/><line opacity="0.2" x1="393.6175416293529" x2="393.6175416293529" y1="0" y2="30"/><line opacity="0.2" x1="372.18836058915883" x2="372.18836058915883" y1="0" y2="30"/><line opacity="0.2" x1="357.54289251253795" x2="357.54289251253795" y1="0" y2="30"/><line opacity="0.2" x1="504.41168823124616" x2="504.41168823124616" y1="0" y2="30"/><line opacity="0.2" x1="257.0377542137708" x2="257.0377542137708" y1="0" y2="30"/><line opacity="0.2" x1="251.43725093261943" x2="251.43725093261943" y1="0" y2="30"/><line opacity="0.2" x1="273.92221125860175" x2="273.92221125860175" y1="0" y2="30"/><line opacity="0.2" x1="312.1377844734778" x2="312.1377844734778" y1="0" y2="30"/><line opacity="0.2" x1="294.9600706468156" x2="294.9600706468156" y1="0" y2="30"/><line opacity="0.2" x1="192.70984527612953" x2="192.70984527612953" y1="0" y2="30"/><line opacity="0.2" x1="255.63042425540664" x2="255.63042425540664" y1="0" y2="30"/><line opacity="0.2" x1="161.03001560859627" x2="161.03001560859627" y1="0" y2="30"/><line opacity="0.2" x1="249.19099188793945" x2="249.19099188793945" y1="0" y2="30"/><line opacity="0.2" x1="374.36395839503604" x2="374.36395839503604" y1="0" y2="30"/><line opacity="0.2" x1="379.67473330216336" x2="379.67473330216336" y1="0" y2="30"/><line opacity="0.2" x1="341.39202205385965" x2="341.39202205385965" y1="0" y2="30"/><line opacity="0.2" x1="233.9898083826487" x2="233.9898083826487" y1="0" y2="30"/><line opacity="0.2" x1="288.23216161892117" x2="288.23216161892117" y1="0" y2="30"/><line opacity="0.2" x1="159.8369878589617" x2="159.8369878589617" y1="0" y2="30"/><line opacity="0.2" x1="408.9340688652788" x2="408.9340688652788" y1="0" y2="30"/><line opacity="0.2" x1="128.09223734185022" x2="128.09223734185022" y1="0" y2="30"/><line opacity="0.2" x1="489.8775495015631" x2="489.8775495015631" y1="0" y2="30"/><line opacity="0.2" x1="465.56794060863507" x2="465.56794060863507" y1="0" y2="30"/><line opacity="0.2" x1="417.8305360769867" x2="417.8305360769867" y1="0" y2="30"/><line opacity="0.2" x1="405.91193618281113" x2="405.91193618281113" y1="0" y2="30"/><line opacity="0.2" x1="307.88703502501653" x2="307.88703502501653" y1="0" y2="30"/><line opacity="0.2" x1="223.63710682397578" x2="223.63710682397578" y1="0" y2="30"/><line opacity="0.2" x1="363.4291004686455" x2="363.4291004686455" y1="0" y2="30"/><line opacity="0.2" x1="306.16896370195644" x2="306.16896370195644" y1="0" y2="30"/><line opacity="0.2" x1="262.31202506067586" x2="262.31202506067586" y1="0" y2="30"/><line opacity="0.2" x1="332.5243729079913" x2="332.5243729079913" y1="0" y2="30"/><line opacity="0.2" x1="218.8469571719523" x2="218.8469571719523" y1="0" y2="30"/><line opacity="0.2" x1="389.10768990821805" x2="389.10768990821805" y1="0" y2="30"/><line opacity="0.2" x1="415.4678021432506" x2="415.4678021432506" y1="0" y2="30"/><line opacity="0.2" x1="172.6214451891976" x2="172.6214451891976" y1="0" y2="30"/><line opacity="0.2" x1="349.3212000569263" x2="349.3212000569263" y1="0" y2="30"/><line opacity="0.2" x1="256.9544505222398" x2="256.9544505222398" y1="0" y2="30"/><line opacity="0.2" x1="345.4085676317122" x2="345.4085676317122" y1="0" y2="30"/><line opacity="0.2" x1="141.90896956820941" x2="141.90896956820941" y1="0" y2="30"/><line opacity="0.2" x1="381.0561095125527" x2="381.0561095125527" y1="0" y2="30"/><line opacity="0.2" x1="175.92205270203104" x2="175.92205270203104" y1="0" y2="30"/><line opacity="0.2" x1="150.96005365366753" x2="150.96005365366753" y1="0" y2="30"/><line opacity="0.2" x1="151.07255633918362" x2="151.07255633918362" y1="0" y2="30"/><line opacity="0.2" x1="317.5787094941998" x2="317.5787094941998" y1="0" y2="30"/><line opacity="0.2" x1="385.44322468658" x2="385.44322468658" y1="0" y2="30"/><line opacity="0.2" x1="246.5978121515325" x2="246.5978121515325" y1="0" y2="30"/><line opacity="0.2" x1="280.0321647527317" x2="280.0321647527317" y1="0" y2="30"/><line opacity="0.2" x1="357.19549345099114" x2="357.19549345099114" y1="0" y2="30"/><line opacity="0.2" x1="346.55554780477456" x2="346.55554780477456" y1="0" y2="30"/><line opacity="0.2" x1="370.2985895961899" x2="370.2985895961899" y1="0" y2="30"/><line opacity="0.2" x1="326.5648379561743" x2="326.5648379561743" y1="0" y2="30"/><line opacity="0.2" x1="274.0011276678033" x2="274.0011276678033" y1="0" y2="30"/><line opacity="0.2" x1="231.10421426887942" x2="231.10421426887942" y1="0" y2="30"/><line opacity="0.2" x1="66.18959541722356" x2="66.18959541722356" y1="0" y2="30"/><line opacity="0.2" x1="334.47854935218146" x2="334.47854935218146" y1="0" y2="30"/><line opacity="0.2" x1="328.0209599808296" x2="328.0209599808296" y1="0" y2="30"/><line opacity="0.2" x1="314.4634587663239" x2="314.4634587663239" y1="0" y2="30"/><line opacity="0.2" x1="350.9058500907305" x2="350.9058500907305" y1="0" y2="30"/><line opacity="0.2" x1="378.55419395716115" x2="378.55419395716115" y1="0" y2="30"/><line opacity="0.2" x1="311.0117135433367" x2="311.0117135433367" y1="0" y2="30"/><line opacity="0.2" x1="476.9418608902242" x2="476.9418608902242" y1="0" y2="30"/><line opacity="0.2" x1="362.27242550908875" x2="362.27242550908875" y1="0" y2="30"/><line opacity="0.2" x1="287.70436954501304" x2="287.70436954501304" y1="0" y2="30"/><line opacity="0.2" x1="294.2003314809775" x2="294.2003314809775" y1="0" y2="30"/><line opacity="0.2" x1="443.0452558316389" x2="443.0452558316389" y1="0" y2="30"/><line opacity="0.2" x1="339.55821775805686" x2="339.55821775805686" y1="0" y2="30"/><line opacity="0.2" x1="354.61289433572614" x2="354.61289433572614" y1="0" y2="30"/><line opacity="0.2" x1="520.8458834291679" x2="520.8458834291679" y1="0" y2="30"/><line opacity="0.2" x1="237.3148649693196" x2="237.3148649693196" y1="0" y2="30"/><line opacity="0.2" x1="263.2314117281254" x2="263.2314117281254" y1="0" y2="30"/><line opacity="0.2" x1="226.92397632822357" x2="226.92397632822357" y1="0" y2="30"/><line opacity="0.2" x1="480.74997514409" x2="480.74997514409" y1="0" y2="30"/><line opacity="0.2" x1="335.81011821225104" x2="335.81011821225104" y1="0" y2="30"/><line opacity="0.2" x1="387.9886827214611" x2="387.9886827214611" y1="0" y2="30"/><line opacity="0.2" x1="379.12343387671444" x2="379.12343387671444" y1="0" y2="30"/><line opacity="0.2" x1="243.54078023409727" x2="243.54078023409727" y1="0" y2="30"/><line opacity="0.2" x1="187.53073148598466" x2="187.53073148598466" y1="0" y2="30"/><line opacity="0.2" x1="284.7422543247321" x2="284.7422543247321" y1="0" y2="30"/><line opacity="0.2" x1="294.5820759555376" x2="294.5820759555376" y1="0" y2="30"/><line opacity="0.2" x1="385.7440295924406" x2="385.7440295924406" y1="0" y2="30"/><line opacity="0.2" x1="442.18561997945426" x2="442.18561997945426" y1="0" y2="30"/><line opacity="0.2" x1="259.2398841090074" x2="259.2398841090074" y1="0" y2="30"/><line opacity="0.2" x1="321.01341064990106" x2="321.01341064990106" y1="0" y2="30"/><line opacity="0.2" x1="215.55860450895875" x2="215.55860450895875" y1="0" y2="30"/><line opacity="0.2" x1="438.27956972416473" x2="438.27956972416473" y1="0" y2="30"/><line opacity="0.2" x1="302.5766803205977" x2="302.5766803205977" y1="0" y2="30"/><line opacity="0.2" x1="257.8245826374032" x2="257.8245826374032" y1="0" y2="30"/><line opacity="0.2" x1="254.59362754094929" x2="254.59362754094929" y1="0" y2="30"/><line opacity="0.2" x1="244.2986449927234" x2="244.2986449927234" y1="0" y2="30"/><line opacity="0.2" x1="232.96551024224436" x2="232.96551024224436" y1="0" y2="30"/><line opacity="0.2" x1="354.46103628700587" x2="354.46103628700587" y1="0" y2="30"/><line opacity="0.2" x1="313.0915349985396" x2="313.0915349985396" y1="0" y2="30"/><line opacity="0.2" x1="197.6782684015514" x2="197.6782684015514" y1="0" y2="30"/><line opacity="0.2" x1="333.7475080656392" x2="333.7475080656392" y1="0" y2="30"/><line opacity="0.2" x1="385.9346931600553" x2="385.9346931600553" y1="0" y2="30"/><line opacity="0.2" x1="143.8640414775957" x2="143.8640414775957" y1="0" y2="30"/><line opacity="0.2" x1="316.1614972394977" x2="316.1614972394977" y1="0" y2="30"/><line opacity="0.2" x1="224.2366423080804" x2="224.2366423080804" y1="0" y2="30"/><line opacity="0.2" x1="108.92077198407922" x2="108.92077198407922" y1="0" y2="30"/><line opacity="0.2" x1="426.20801152081566" x2="426.20801152081566" y1="0" y2="30"/><line opacity="0.2" x1="410.48532269491625" x2="410.48532269491625" y1="0" y2="30"/><line opacity="0.2" x1="256.42699726902606" x2="256.42699726902606" y1="0" y2="30"/><line opacity="0.2" x1="431.2729481091444" x2="431.2729481091444" y1="0" y2="30"/><line opacity="0.2" x1="270.4377323193597" x2="270.4377323193597" y1="0" y2="30"/><line opacity="0.2" x1="280.3545330748998" x2="280.3545330748998" y1="0" y2="30"/><line opacity="0.2" x1="290.60874128339276" x2="290.60874128339276" y1="0" y2="30"/><line opacity="0.2" x1="273.6609700255017" x2="273.6609700255017" y1="0" y2="30"/><line opacity="0.2" x1="345.55729499369005" x2="345.55729499369005" y1="0" y2="30"/><line opacity="0.2" x1="327.83000963232115" x2="327.83000963232115" y1="0" y2="30"/><line opacity="0.2" x1="497.0632142139697" x2="497.0632142139697" y1="0" y2="30"/><line opacity="0.2" x1="526.7053188096722" x2="526.7053188096722" y1="0" y2="30"/><line opacity="0.2" x1="230.39748853379538" x2="230.39748853379538" y1="0" y2="30"/><line opacity="0.2" x1="282.66802954860884" x2="282.66802954860884" y1="0" y2="30"/><line opacity="0.2" x1="252.32542937673594" x2="252.32542937673594" y1="0" y2="30"/><line opacity="0.2" x1="246.14622679839235" x2="246.14622679839235" y1="0" y2="30"/><line opacity="0.2" x1="287.30665129611356" x2="287.30665129611356" y1="0" y2="30"/><line opacity="0.2" x1="352.89111920868527" x2="352.89111920868527" y1="0" y2="30"/><line opacity="0.2" x1="199.23895992743934" x2="199.23895992743934" y1="0" y2="30"/><line opacity="0.2" x1="224.27501057699342" x2="224.27501057699342" y1="0" y2="30"/><line opacity="0.2" x1="382.0567280846825" x2="382.0567280846825" y1="0" y2="30"/><line opacity="0.2" x1="380.7957734929873" x2="380.7957734929873" y1="0" y2="30"/><line opacity="0.2" x1="400.1935730170607" x2="400.1935730170607" y1="0" y2="30"/><line opacity="0.2" x1="398.62158172704375" x2="398.62158172704375" y1="0" y2="30"/><line opacity="0.2" x1="293.0864032587158" x2="293.0864032587158" y1="0" y2="30"/><line opacity="0.2" x1="269.12746147308235" x2="269.12746147308235" y1="0" y2="30"/><line opacity="0.2" x1="349.0507450730502" x2="349.0507450730502" y1="0" y2="30"/><line opacity="0.2" x1="620" x2="620" y1="0" y2="30"/><line opacity="0.2" x1="454.1283691298965" x2="454.1283691298965" y1="0" y2="30"/><line opacity="0.2" x1="470.84177557747444" x2="470.84177557747444" y1="0" y2="30"/><line opacity="0.2" x1="333.89584517575196" x2="333.89584517575196" y1="0" y2="30"/><line opacity="0.2" x1="397.5047540317241" x2="397.5047540317241" y1="0" y2="30"/><line opacity="0.2" x1="407.27452314866946" x2="407.27452314866946" y1="0" y2="30"/><line opacity="0.2" x1="282.9582860590652" x2="282.9582860590652" y1="0" y2="30"/><line opacity="0.2" x1="211.117031513274" x2="211.117031513274" y1="0" y2="30"/><line opacity="0.2" x1="472.85019599976846" x2="472.85019599976846" y1="0" y2="30"/><line opacity="0.2" x1="298.1355511257951" x2="298.1355511257951" y1="0" y2="30"/><line opacity="0.2" x1="257.208663555511" x2="257.208663555511" y1="0" y2="30"/><line opacity="0.2" x1="366.0850885205857" x2="366.0850885205857" y1="0" y2="30"/><line opacity="0.2" x1="271.029038805003" x2="271.029038805003" y1="0" y2="30"/><line opacity="0.2" x1="155.15844968207696" x2="155.15844968207696" y1="0" y2="30"/><line opacity="0.2" x1="302.0671322008011" x2="302.0671322008011" y1="0" y2="30"/><line opacity="0.2" x1="263.9732382736217" x2="263.9732382736217" y1="0" y2="30"/><line opacity="0.2" x1="195.30089014717734" x2="195.30089014717734" y1="0" y2="30"/><line opacity="0.2" x1="423.6786634861665" x2="423.6786634861665" y1="0" y2="30"/><line opacity="0.2" x1="373.29007060699143" x2="373.29007060699143" y1="0" y2="30"/><line opacity="0.2" x1="319.216826708458" x2="319.216826708458" y1="0" y2="30"/><line opacity="0.2" x1="276.5253611790178" x2="276.5253611790178" y1="0" y2="30"/><line opacity="0.2" x1="179.9478880734207" x2="179.9478880734207" y1="0" y2="30"/><line opacity="0.2" x1="342.13099435162655" x2="342.13099435162655" y1="0" y2="30"/><line opacity="0.2" x1="288.6527804800001" x2="288.6527804800001" y1="0" y2="30"/><line opacity="0.2" x1="330.1206528972463" x2="330.1206528972463" y1="0" y2="30"/><line opacity="0.2" x1="176.17373828894944" x2="176.17373828894944" y1="0" y2="30"/><line opacity="0.2" x1="218.0334255084997" x2="218.0334255084997" y1="0" y2="30"/><line opacity="0.2" x1="178.5714701120827" x2="178.5714701120827" y1="0" y2="30"/><line opacity="0.2" x1="224.46822183146088" x2="224.46822183146088" y1="0" y2="30"/><line opacity="0.2" x1="273.4571768507771" x2="273.4571768507771" y1="0" y2="30"/><line opacity="0.2" x1="344.7233639098073" x2="344.7233639098073" y1="0" y2="30"/><line opacity="0.2" x1="349.64204796424906" x2="349.64204796424906" y1="0" y2="30"/><line opacity="0.2" x1="217.40809486447966" x2="217.40809486447966" y1="0" y2="30"/><line opacity="0.2" x1="313.5522547635371" x2="313.5522547635371" y1="0" y2="30"/><line opacity="0.2" x1="271.0607143957397" x2="271.0607143957397" y1="0" y2="30"/><line opacity="0.2" x1="349.9903359706574" x2="349.9903359706574" y1="0" y2="30"/><line opacity="0.2" x1="222.74906541199695" x2="222.74906541199695" y1="0" y2="30"/><line opacity="0.2" x1="255.9460582446411" x2="255.9460582446411" y1="0" y2="30"/><line opacity="0.2" x1="242.67864771160052" x2="242.67864771160052" y1="0" y2="30"/><line opacity="0.2" x1="210.31551618519777" x2="210.31551618519777" y1="0" y2="30"/><line opacity="0.2" x1="419.1478757952242" x2="419.1478757952242" y1="0" y2="30"/><line opacity="0.2" x1="252.67500498041446" x2="252.67500498041446" y1="0" y2="30"/><line opacity="0.2" x1="207.91363442697755" x2="207.91363442697755" y1="0" y2="30"/><line opacity="0.2" x1="308.12775862947956" x2="308.12775862947956" y1="0" y2="30"/><line opacity="0.2" x1="229.63062264788744" x2="229.63062264788744" y1="0" y2="30"/><line opacity="0.2" x1="384.1410656473223" x2="384.1410656473223" y1="0" y2="30"/><line opacity="0.2" x1="179.85943752821188" x2="179.85943752821188" y1="0" y2="30"/><line opacity="0.2" x1="275.6579866031956" x2="275.6579866031956" y1="0" y2="30"/><line opacity="0.2" x1="272.82412766958277" x2="272.82412766958277" y1="0" y2="30"/><line opacity="0.2" x1="312.5598069291419" x2="312.5598069291419" y1="0" y2="30"/><line opacity="0.2" x1="275.8908535375835" x2="275.8908535375835" y1="0" y2="30"/><line opacity="0.2" x1="384.33723225682513" x2="384.33723225682513" y1="0" y2="30"/><line opacity="0.2" x1="286.87107279566845" x2="286.87107279566845" y1="0" y2="30"/><line opacity="0.2" x1="318.7836317616428" x2="318.7836317616428" y1="0" y2="30"/><line opacity="0.2" x1="274.6984395723903" x2="274.6984395723903" y1="0" y2="30"/><line opacity="0.2" x1="314.92005890396894" x2="314.92005890396894" y1="0" y2="30"/><line opacity="0.2" x1="235.67611351716997" x2="235.67611351716997" y1="0" y2="30"/><line opacity="0.2" x1="431.0017314008087" x2="431.0017314008087" y1="0" y2="30"/><line opacity="0.2" x1="325.02851251833835" x2="325.02851251833835" y1="0" y2="30"/><line opacity="0.2" x1="414.6421453195974" x2="414.6421453195974" y1="0" y2="30"/><line opacity="0.2" x1="356.2994799358446" x2="356.2994799358446" y1="0" y2="30"/><line opacity="0.2" x1="418.3312498625599" x2="418.3312498625599" y1="0" y2="30"/><line opacity="0.2" x1="394.0763642511901" x2="394.0763642511901" y1="0" y2="30"/><line opacity="0.2" x1="314.4269928573083" x2="314.4269928573083" y1="0" y2="30"/><line opacity="0.2" x1="377.8329437781975" x2="377.8329437781975" y1="0" y2="30"/><line opacity="0.2" x1="118.44714267902921" x2="118.44714267902921" y1="0" y2="30"/><line opacity="0.2" x1="264.5520956397721" x2="264.5520956397721" y1="0" y2="30"/><line opacity="0.2" x1="291.5367064524518" x2="291.5367064524518" y1="0" y2="30"/><line opacity="0.2" x1="257.5880462468646" x2="257.5880462468646" y1="0" y2="30"/><line opacity="0.2" x1="293.6638529686009" x2="293.6638529686009" y1="0" y2="30"/><line opacity="0.2" x1="439.44097148671887" x2="439.44097148671887" y1="0" y2="30"/><line opacity="0.2" x1="320.21554223433156" x2="320.21554223433156" y1="0" y2="30"/><line opacity="0.2" x1="409.58875656452113" x2="409.58875656452113" y1="0" y2="30"/><line opacity="0.2" x1="480.0188679205607" x2="480.0188679205607" y1="0" y2="30"/><line opacity="0.2" x1="188.28434295195305" x2="188.28434295195305" y1="0" y2="30"/><line opacity="0.2" x1="194.15652132366748" x2="194.15652132366748" y1="0" y2="30"/><line opacity="0.2" x1="362.3539832850915" x2="362.3539832850915" y1="0" y2="30"/><line opacity="0.2" x1="398.69076162271625" x2="398.69076162271625" y1="0" y2="30"/><line opacity="0.2" x1="389.4891718290447" x2="389.4891718290447" y1="0" y2="30"/><line opacity="0.2" x1="404.58876564497166" x2="404.58876564497166" y1="0" y2="30"/><line opacity="0.2" x1="298.19434945653364" x2="298.19434945653364" y1="0" y2="30"/><line opacity="0.2" x1="276.68470709746657" x2="276.68470709746657" y1="0" y2="30"/><line opacity="0.2" x1="275.0165211782478" x2="275.0165211782478" y1="0" y2="30"/><line opacity="0.2" x1="348.3920420339178" x2="348.3920420339178" y1="0" y2="30"/><line opacity="0.2" x1="267.3168709390151" x2="267.3168709390151" y1="0" y2="30"/><line opacity="0.2" x1="297.7544022541875" x2="297.7544022541875" y1="0" y2="30"/><line opacity="0.2" x1="388.36386912125494" x2="388.36386912125494" y1="0" y2="30"/><line opacity="0.2" x1="224.86457287401376" x2="224.86457287401376" y1="0" y2="30"/><line opacity="0.2" x1="454.52860102360245" x2="454.52860102360245" y1="0" y2="30"/><line opacity="0.2" x1="377.6509911527169" x2="377.6509911527169" y1="0" y2="30"/><line opacity="0.2" x1="311.9321608928507" x2="311.9321608928507" y1="0" y2="30"/><line opacity="0.2" x1="245.43864491109383" x2="245.43864491109383" y1="0" y2="30"/><line opacity="0.2" x1="433.501647157117" x2="433.501647157117" y1="0" y2="30"/><line opacity="0.2" x1="285.7382767757168" x2="285.7382767757168" y1="0" y2="30"/><line opacity="0.2" x1="285.93591686546375" x2="285.93591686546375" y1="0" y2="30"/><line opacity="0.2" x1="349.9870386254273" x2="349.9870386254273" y1="0" y2="30"/><line opacity="0.2" x1="229.88377141810219" x2="229.88377141810219" y1="0" y2="30"/><line opacity="0.2" x1="213.72443005382104" x2="213.72443005382104" y1="0" y2="30"/><line opacity="0.2" x1="350.7072424608542" x2="350.7072424608542" y1="0" y2="30"/><line opacity="0.2" x1="85.62725903156822" x2="85.62725903156822" y1="0" y2="30"/><line opacity="0.2" x1="105.79003549811776" x2="105.79003549811776" y1="0" y2="30"/><line opacity="0.2" x1="290.08798052488305" x2="290.08798052488305" y1="0" y2="30"/><line opacity="0.2" x1="203.315338001628" x2="203.315338001628" y1="0" y2="30"/><line opacity="0.2" x1="284.5396704925499" x2="284.5396704925499" y1="0" y2="30"/><line opacity="0.2" x1="191.38178855580793" x2="191.38178855580793" y1="0" y2="30"/><line opacity="0.2" x1="362.75705411659493" x2="362.75705411659493" y1="0" y2="30"/><line opacity="0.2" x1="332.67853780712153" x2="332.67853780712153" y1="0" y2="30"/><line opacity="0.2" x1="410.3515642186444" x2="410.3515642186444" y1="0" y2="30"/><line opacity="0.2" x1="410.66995585462183" x2="410.66995585462183" y1="0" y2="30"/><line opacity="0.2" x1="318.2853616171696" x2="318.2853616171696" y1="0" y2="30"/><line opacity="0.2" x1="482.72344056651644" x2="482.72344056651644" y1="0" y2="30"/><line opacity="0.2" x1="416.5466320977848" x2="416.5466320977848" y1="0" y2="30"/><line opacity="0.2" x1="191.9343299691605" x2="191.9343299691605" y1="0" y2="30"/><line opacity="0.2" x1="222.95020194888804" x2="222.95020194888804" y1="0" y2="30"/><line opacity="0.2" x1="303.030765806174" x2="303.030765806174" y1="0" y2="30"/><line opacity="0.2" x1="383.0172343428693" x2="383.0172343428693" y1="0" y2="30"/><line opacity="0.2" x1="194.2272662523949" x2="194.2272662523949" y1="0" y2="30"/><line opacity="0.2" x1="193.31732983788848" x2="193.31732983788848" y1="0" y2="30"/><line opacity="0.2" x1="281.4576624346407" x2="281.4576624346407" y1="0" y2="30"/><line opacity="0.2" x1="181.33118473179422" x2="181.33118473179422" y1="0" y2="30"/><line opacity="0.2" x1="238.29890684302882" x2="238.29890684302882" y1="0" y2="30"/><line opacity="0.2" x1="370.6555352005433" x2="370.6555352005433" y1="0" y2="30"/><line opacity="0.2" x1="104.36271648561808" x2="104.36271648561808" y1="0" y2="30"/><line opacity="0.2" x1="336.12122867704903" x2="336.12122867704903" y1="0" y2="30"/><line opacity="0.2" x1="454.01923992371906" x2="454.01923992371906" y1="0" y2="30"/><line opacity="0.2" x1="234.76732976700495" x2="234.76732976700495" y1="0" y2="30"/><line opacity="0.2" x1="252.79623152184993" x2="252.79623152184993" y1="0" y2="30"/><line opacity="0.2" x1="398.25605987500984" x2="398.25605987500984" y1="0" y2="30"/><line opacity="0.2" x1="185.69734451678784" x2="185.69734451678784" y1="0" y2="30"/><line opacity="0.2" x1="315.8371096882947" x2="315.8371096882947" y1="0" y2="30"/><line opacity="0.2" x1="215.92291191451122" x2="215.92291191451122" y1="0" y2="30"/><line opacity="0.2" x1="473.09455483966906" x2="473.09455483966906" y1="0" y2="30"/><line opacity="0.2" x1="554.6666067126134" x2="554.6666067126134" y1="0" y2="30"/><line opacity="0.2" x1="327.57222982444745" x2="327.57222982444745" y1="0" y2="30"/><line opacity="0.2" x1="150.86145264935215" x2="150.86145264935215" y1="0" y2="30"/><line opacity="0.2" x1="200.2559587023726" x2="200.2559587023726" y1="0" y2="30"/><line opacity="0.2" x1="279.29831596995314" x2="279.29831596995314" y1="0" y2="30"/><line opacity="0.2" x1="297.1343565984459" x2="297.1343565984459" y1="0" y2="30"/><line opacity="0.2" x1="181.86314618421613" x2="181.86314618421613" y1="0" y2="30"/><line opacity="0.2" x1="184.5936471832946" x2="184.5936471832946" y1="0" y2="30"/><line opacity="0.2" x1="439.9816271537044" x2="439.9816271537044" y1="0" y2="30"/><line opacity="0.2" x1="174.48429926534212" x2="174.48429926534212" y1="0" y2="30"/><line opacity="0.2" x1="388.14535842422566" x2="388.14535842422566" y1="0" y2="30"/><line opacity="0.2" x1="395.96418301005764" x2="395.96418301005764" y1="0" y2="30"/><line opacity="0.2" x1="273.28480913791725" x2="273.28480913791725" y1="0" y2="30"/><line opacity="0.2" x1="350.1742924910636" x2="350.1742924910636" y1="0" y2="30"/><line opacity="0.2" x1="166.55370298092794" x2="166.55370298092794" y1="0" y2="30"/><line opacity="0.2" x1="361.6427902708165" x2="361.6427902708165" y1="0" y2="30"/><line opacity="0.2" x1="378.5369105207497" x2="378.5369105207497" y1="0" y2="30"/><line opacity="0.2" x1="284.7205085028158" x2="284.7205085028158" y1="0" y2="30"/><line opacity="0.2" x1="353.22497429830185" x2="353.22497429830185" y1="0" y2="30"/><line opacity="0.2" x1="284.1325999221517" x2="284.1325999221517" y1="0" y2="30"/><line opacity="0.2" x1="545.32149582363" x2="545.32149582363" y1="0" y2="30"/><line opacity="0.2" x1="297.843823591165" x2="297.843823591165" y1="0" y2="30"/><line opacity="0.2" x1="217.85908006333977" x2="217.85908006333977" y1="0" y2="30"/><line opacity="0.2" x1="269.66300026928883" x2="269.66300026928883" y1="0" y2="30"/><line opacity="0.2" x1="170.52044890177646" x2="170.52044890177646" y1="0" y2="30"/><line opacity="0.2" x1="194.14406267791483" x2="194.14406267791483" y1="0" y2="30"/><line opacity="0.2" x1="347.2564173781089" x2="347.2564173781089" y1="0" y2="30"/><line opacity="0.2" x1="252.60673593433617" x2="252.60673593433617" y1="0" y2="30"/><line opacity="0.2" x1="336.1638554644311" x2="336.1638554644311" y1="0" y2="30"/><line opacity="0.2" x1="302.11005526566976" x2="302.11005526566976" y1="0" y2="30"/><line opacity="0.2" x1="263.41101697685747" x2="263.41101697685747" y1="0" y2="30"/><line opacity="0.2" x1="385.5352304748994" x2="385.5352304748994" y1="0" y2="30"/><line opacity="0.2" x1="300.5507012312589" x2="300.5507012312589" y1="0" y2="30"/><line opacity="0.2" x1="362.7263569713691" x2="362.7263569713691" y1="0" y2="30"/><line opacity="0.2" x1="190.88893194919433" x2="190.88893194919433" y1="0" y2="30"/><line opacity="0.2" x1="356.30410020366156" x2="356.30410020366156" y1="0" y2="30"/><line opacity="0.2" x1="343.73765343676615" x2="343.73765343676615" y1="0" y2="30"/><line opacity="0.2" x1="429.1944081171722" x2="429.1944081171722" y1="0" y2="30"/><line opacity="0.2" x1="130.74196293339224" x2="130.74196293339224" y1="0" y2="30"/><line opacity="0.2" x1="208.35462040486877" x2="208.35462040486877" y1="0" y2="30"/><line opacity="0.2" x1="352.06032065638357" x2="352.06032065638357" y1="0" y2="30"/><line opacity="0.2" x1="394.0565421342272" x2="394.0565421342272" y1="0" y2="30"/><line opacity="0.2" x1="426.5459372309567" x2="426.5459372309567" y1="0" y2="30"/><line opacity="0.2" x1="349.12691470611463" x2="349.12691470611463" y1="0" y2="30"/><line opacity="0.2" x1="475.8412677149868" x2="475.8412677149868" y1="0" y2="30"/><line opacity="0.2" x1="269.6038915829224" x2="269.6038915829224" y1="0" y2="30"/><line opacity="0.2" x1="381.1702689449973" x2="381.1702689449973" y1="0" y2="30"/><line opacity="0.2" x1="271.398556853397" x2="271.398556853397" y1="0" y2="30"/><line opacity="0.2" x1="440.6180760977823" x2="440.6180760977823" y1="0" y2="30"/><line opacity="0.2" x1="323.28216755772854" x2="323.28216755772854" y1="0" y2="30"/><line opacity="0.2" x1="337.91798344954515" x2="337.91798344954515" y1="0" y2="30"/><line opacity="0.2" x1="410.65122105427236" x2="410.65122105427236" y1="0" y2="30"/><line opacity="0.2" x1="345.71483493556326" x2="345.71483493556326" y1="0" y2="30"/><line opacity="0.2" x1="274.37336094491553" x2="274.37336094491553" y1="0" y2="30"/><line opacity="0.2" x1="393.75561583774714" x2="393.75561583774714" y1="0" y2="30"/><line opacity="0.2" x1="415.30947941143455" x2="415.30947941143455" y1="0" y2="30"/><line opacity="0.2" x1="49.049110281100184" x2="49.049110281100184" y1="0" y2="30"/><line opacity="0.2" x1="193.90444301326647" x2="193.90444301326647" y1="0" y2="30"/><line opacity="0.2" x1="372.19950846569475" x2="372.19950846569475" y1="0" y2="30"/><line opacity="0.2" x1="168.94534339153864" x2="168.94534339153864" y1="0" y2="30"/><line opacity="0.2" x1="570.3887172353777" x2="570.3887172353777" y1="0" y2="30"/><line opacity="0.2" x1="277.5298509268316" x2="277.5298509268316" y1="0" y2="30"/><line opacity="0.2" x1="311.754844403982" x2="311.754844403982" y1="0" y2="30"/><line opacity="0.2" x1="252.20415366271" x2="252.20415366271" y1="0" y2="30"/><line opacity="0.2" x1="218.58412468769276" x2="218.58412468769276" y1="0" y2="30"/><line opacity="0.2" x1="324.8382630213369" x2="324.8382630213369" y1="0" y2="30"/><line opacity="0.2" x1="212.2669294579816" x2="212.2669294579816" y1="0" y2="30"/><line opacity="0.2" x1="253.2009236152587" x2="253.2009236152587" y1="0" y2="30"/><line opacity="0.2" x1="325.625606310186" x2="325.625606310186" y1="0" y2="30"/><line opacity="0.2" x1="189.30485369126893" x2="189.30485369126893" y1="0" y2="30"/><line opacity="0.2" x1="279.6279503410007" x2="279.6279503410007" y1="0" y2="30"/><line opacity="0.2" x1="195.99847405569926" x2="195.99847405569926" y1="0" y2="30"/><line opacity="0.2" x1="223.4523614386041" x2="223.4523614386041" y1="0" y2="30"/><line opacity="0.2" x1="337.93271364878746" x2="337.93271364878746" y1="0" y2="30"/><line opacity="0.2" x1="349.5534560741013" x2="349.5534560741013" y1="0" y2="30"/><line opacity="0.2" x1="335.97453514025153" x2="335.97453514025153" y1="0" y2="30"/><line opacity="0.2" x1="322.3467122661358" x2="322.3467122661358" y1="0" y2="30"/><line opacity="0.2" x1="292.5392161825884" x2="292.5392161825884" y1="0" y2="30"/><line opacity="0.2" x1="172.49738260212405" x2="172.49738260212405" y1="0" y2="30"/><line opacity="0.2" x1="365.4396902277787" x2="365.4396902277787" y1="0" y2="30"/><line opacity="0.2" x1="100.74790813846343" x2="100.74790813846343" y1="0" y2="30"/><line opacity="0.2" x1="141.8395247295247" x2="141.8395247295247" y1="0" y2="30"/><line opacity="0.2" x1="428.9636348241572" x2="428.9636348241572" y1="0" y2="30"/><line opacity="0.2" x1="396.1355961952634" x2="396.1355961952634" y1="0" y2="30"/><line opacity="0.2" x1="238.30510861012652" x2="238.30510861012652" y1="0" y2="30"/><line opacity="0.2" x1="295.3303896109274" x2="295.3303896109274" y1="0" y2="30"/><line opacity="0.2" x1="444.21265548667964" x2="444.21265548667964" y1="0" y2="30"/><line opacity="0.2" x1="345.7913370350013" x2="345.7913370350013" y1="0" y2="30"/><line opacity="0.2" x1="243.97333233568497" x2="243.97333233568497" y1="0" y2="30"/><line opacity="0.2" x1="298.60694677384856" x2="298.60694677384856" y1="0" y2="30"/><line opacity="0.2" x1="152.357267849319" x2="152.357267849319" y1="0" y2="30"/><line opacity="0.2" x1="314.5623865693287" x2="314.5623865693287" y1="0" y2="30"/><line opacity="0.2" x1="263.2417196906092" x2="263.2417196906092" y1="0" y2="30"/><line opacity="0.2" x1="347.66995115433446" x2="347.66995115433446" y1="0" y2="30"/><line opacity="0.2" x1="252.11558892373606" x2="252.11558892373606" y1="0" y2="30"/><line opacity="0.2" x1="188.46158880042753" x2="188.46158880042753" y1="0" y2="30"/><line opacity="0.2" x1="443.70733035042554" x2="443.70733035042554" y1="0" y2="30"/><line opacity="0.2" x1="527.1605708146653" x2="527.1605708146653" y1="0" y2="30"/><line opacity="0.2" x1="240.1807810640814" x2="240.1807810640814" y1="0" y2="30"/><line opacity="0.2" x1="265.4157226512842" x2="265.4157226512842" y1="0" y2="30"/><line opacity="0.2" x1="269.19690023425886" x2="269.19690023425886" y1="0" y2="30"/><line opacity="0.2" x1="188.54344240796627" x2="188.54344240796627" y1="0" y2="30"/><line opacity="0.2" x1="346.7740247329148" x2="346.7740247329148" y1="0" y2="30"/><line opacity="0.2" x1="339.5131424355683" x2="339.5131424355683" y1="0" y2="30"/><line opacity="0.2" x1="395.4362551767874" x2="395.4362551767874" y1="0" y2="30"/><line opacity="0.2" x1="352.1229967246384" x2="352.1229967246384" y1="0" y2="30"/><line opacity="0.2" x1="346.70332247622207" x2="346.70332247622207" y1="0" y2="30"/><line opacity="0.2" x1="218.08193704773436" x2="218.08193704773436" y1="0" y2="30"/><line opacity="0.2" x1="350.4197766772457" x2="350.4197766772457" y1="0" y2="30"/><line opacity="0.2" x1="304.57310329845785" x2="304.57310329845785" y1="0" y2="30"/><line opacity="0.2" x1="258.3986303595312" x2="258.3986303595312" y1="0" y2="30"/><line opacity="0.2" x1="314.7717327902637" x2="314.7717327902637" y1="0" y2="30"/><line opacity="0.2" x1="379.08848215706" x2="379.08848215706" y1="0" y2="30"/><line opacity="0.2" x1="298.02386186894125" x2="298.02386186894125" y1="0" y2="30"/><line opacity="0.2" x1="222.77240004299907" x2="222.77240004299907" y1="0" y2="30"/><line opacity="0.2" x1="251.335454099036" x2="251.335454099036" y1="0" y2="30"/><line opacity="0.2" x1="292.2800780854191" x2="292.2800780854191" y1="0" y2="30"/><line opacity="0.2" x1="266.62504544009823" x2="266.62504544009823" y1="0" y2="30"/><line opacity="0.2" x1="221.1273592362578" x2="221.1273592362578" y1="0" y2="30"/><line opacity="0.2" x1="241.0905172816646" x2="241.0905172816646" y1="0" y2="30"/><line opacity="0.2" x1="518.5635958912156" x2="518.5635958912156" y1="0" y2="30"/><line opacity="0.2" x1="201.19120172272986" x2="201.19120172272986" y1="0" y2="30"/><line opacity="0.2" x1="324.93528509329406" x2="324.93528509329406" y1="0" y2="30"/><line opacity="0.2" x1="300.40048284433055" x2="300.40048284433055" y1="0" y2="30"/><line opacity="0.2" x1="293.19462647621947" x2="293.19462647621947" y1="0" y2="30"/><line opacity="0.2" x1="274.92073405641383" x2="274.92073405641383" y1="0" y2="30"/><line opacity="0.2" x1="61.690188573402864" x2="61.690188573402864" y1="0" y2="30"/><line opacity="0.2" x1="474.8047318351489" x2="474.8047318351489" y1="0" y2="30"/><line opacity="0.2" x1="295.6584357396162" x2="295.6584357396162" y1="0" y2="30"/><line opacity="0.2" x1="261.40218306509615" x2="261.40218306509615" y1="0" y2="30"/><line opacity="0.2" x1="216.52110645755064" x2="216.52110645755064" y1="0" y2="30"/><line opacity="0.2" x1="347.84375796033805" x2="347.84375796033805" y1="0" y2="30"/><line opacity="0.2" x1="419.72013342685824" x2="419.72013342685824" y1="0" y2="30"/><line opacity="0.2" x1="371.29517371808146" x2="371.29517371808146" y1="0" y2="30"/><line opacity="0.2" x1="362.7366652368395" x2="362.7366652368395" y1="0" y2="30"/><line opacity="0.2" x1="338.9382424101634" x2="338.9382424101634" y1="0" y2="30"/><line opacity="0.2" x1="272.00736021645463" x2="272.00736021645463" y1="0" y2="30"/><line opacity="0.2" x1="152.10549426398964" x2="152.10549426398964" y1="0" y2="30"/><line opacity="0.2" x1="273.1938972654669" x2="273.1938972654669" y1="0" y2="30"/><line opacity="0.2" x1="320.5759196497333" x2="320.5759196497333" y1="0" y2="30"/><line opacity="0.2" x1="347.647623590336" x2="347.647623590336" y1="0" y2="30"/><line opacity="0.2" x1="333.17705731809815" x2="333.17705731809815" y1="0" y2="30"/><line opacity="0.2" x1="264.6919477054726" x2="264.6919477054726" y1="0" y2="30"/><line opacity="0.2" x1="236.63122463037894" x2="236.63122463037894" y1="0" y2="30"/><line opacity="0.2" x1="251.7206283312023" x2="251.7206283312023" y1="0" y2="30"/><line opacity="0.2" x1="200.41417571208197" x2="200.41417571208197" y1="0" y2="30"/><line opacity="0.2" x1="251.145478660393" x2="251.145478660393" y1="0" y2="30"/><line opacity="0.2" x1="255.55947705514424" x2="255.55947705514424" y1="0" y2="30"/><line opacity="0.2" x1="370.5261828153559" x2="370.5261828153559" y1="0" y2="30"/><line opacity="0.2" x1="127.77040752121553" x2="127.77040752121553" y1="0" y2="30"/><line opacity="0.2" x1="334.8251029436905" x2="334.8251029436905" y1="0" y2="30"/><line opacity="0.2" x1="344.0516948377569" x2="344.0516948377569" y1="0" y2="30"/><line opacity="0.2" x1="404.80582719316436" x2="404.80582719316436" y1="0" y2="30"/><line opacity="0.2" x1="439.26320677629417" x2="439.26320677629417" y1="0" y2="30"/><line opacity="0.2" x1="335.45202358263776" x2="335.45202358263776" y1="0" y2="30"/><line opacity="0.2" x1="377.2619791536524" x2="377.2619791536524" y1="0" y2="30"/><line opacity="0.2" x1="406.1912361093327" x2="406.1912361093327" y1="0" y2="30"/><line opacity="0.2" x1="354.25602424504143" x2="354.25602424504143" y1="0" y2="30"/><line opacity="0.2" x1="283.5873898353303" x2="283.5873898353303" y1="0" y2="30"/><line opacity="0.2" x1="204.97193045335533" x2="204.97193045335533" y1="0" y2="30"/><line opacity="0.2" x1="373.665661224807" x2="373.665661224807" y1="0" y2="30"/><line opacity="0.2" x1="434.7706444657002" x2="434.7706444657002" y1="0" y2="30"/><line opacity="0.2" x1="223.8567789286312" x2="223.8567789286312" y1="0" y2="30"/><line opacity="0.2" x1="313.40068389738786" x2="313.40068389738786" y1="0" y2="30"/><line opacity="0.2" x1="367.59268394990994" x2="367.59268394990994" y1="0" y2="30"/><line opacity="0.2" x1="450.3409286867975" x2="450.3409286867975" y1="0" y2="30"/><line opacity="0.2" x1="438.2461389384699" x2="438.2461389384699" y1="0" y2="30"/><line opacity="0.2" x1="346.85386632477235" x2="346.85386632477235" y1="0" y2="30"/><line opacity="0.2" x1="339.4384502353814" x2="339.4384502353814" y1="0" y2="30"/><line opacity="0.2" x1="310.96423269385434" x2="310.96423269385434" y1="0" y2="30"/><line opacity="0.2" x1="176.73790618143576" x2="176.73790618143576" y1="0" y2="30"/><line opacity="0.2" x1="250.89441727303642" x2="250.89441727303642" y1="0" y2="30"/><line opacity="0.2" x1="355.96241664125216" x2="355.96241664125216" y1="0" y2="30"/><line opacity="0.2" x1="460.58953148379965" x2="460.58953148379965" y1="0" y2="30"/><line opacity="0.2" x1="266.26820009207347" x2="266.26820009207347" y1="0" y2="30"/><line opacity="0.2" x1="358.53513145614147" x2="358.53513145614147" y1="0" y2="30"/><line opacity="0.2" x1="200.41821357791557" x2="200.41821357791557" y1="0" y2="30"/><line opacity="0.2" x1="184.62397060149982" x2="184.62397060149982" y1="0" y2="30"/><line opacity="0.2" x1="410.13884605217953" x2="410.13884605217953" y1="0" y2="30"/><line opacity="0.2" x1="271.53912453420276" x2="271.53912453420276" y1="0" y2="30"/><line opacity="0.2" x1="184.85942796487285" x2="184.85942796487285" y1="0" y2="30"/><line opacity="0.2" x1="240.2544692594721" x2="240.2544692594721" y1="0" y2="30"/><line opacity="0.2" x1="387.6498500508538" x2="387.6498500508538" y1="0" y2="30"/><line opacity="0.2" x1="351.7765848179143" x2="351.7765848179143" y1="0" y2="30"/><line opacity="0.2" x1="295.9454556172099" x2="295.9454556172099" y1="0" y2="30"/><line opacity="0.2" x1="360.8733666722823" x2="360.8733666722823" y1="0" y2="30"/><line opacity="0.2" x1="300.5019119781912" x2="300.5019119781912" y1="0" y2="30"/><line opacity="0.2" x1="389.12591508100894" x2="389.12591508100894" y1="0" y2="30"/><line opacity="0.2" x1="312.74281096485805" x2="312.74281096485805" y1="0" y2="30"/><line opacity="0.2" x1="364.74346007036104" x2="364.74346007036104" y1="0" y2="30"/><line opacity="0.2" x1="146.15227447789889" x2="146.15227447789889" y1="0" y2="30"/><line opacity="0.2" x1="450.0174560031819" x2="450.0174560031819" y1="0" y2="30"/><line opacity="0.2" x1="503.3721432945344" x2="503.3721432945344" y1="0" y2="30"/><line opacity="0.2" x1="210.00457160174153" x2="210.00457160174153" y1="0" y2="30"/><line opacity="0.2" x1="295.8970163203421" x2="295.8970163203421" y1="0" y2="30"/><line opacity="0.2" x1="337.9916414496941" x2="337.9916414496941" y1="0" y2="30"/><line opacity="0.2" x1="251.1966094362639" x2="251.1966094362639" y1="0" y2="30"/><line opacity="0.2" x1="285.3453144148099" x2="285.3453144148099" y1="0" y2="30"/><line opacity="0.2" x1="384.4463105789788" x2="384.4463105789788" y1="0" y2="30"/><line opacity="0.2" x1="136.42169464886703" x2="136.42169464886703" y1="0" y2="30"/><line opacity="0.2" x1="277.4623883988241" x2="277.4623883988241" y1="0" y2="30"/><line opacity="0.2" x1="243.15858266197728" x2="243.15858266197728" y1="0" y2="30"/><line opacity="0.2" x1="289.3770732042443" x2="289.3770732042443" y1="0" y2="30"/><line opacity="0.2" x1="320.5022395230321" x2="320.5022395230321" y1="0" y2="30"/><line opacity="0.2" x1="339.4855885726032" x2="339.4855885726032" y1="0" y2="30"/><line opacity="0.2" x1="209.6884080343927" x2="209.6884080343927" y1="0" y2="30"/><line opacity="0.2" x1="249.28337559912947" x2="249.28337559912947" y1="0" y2="30"/><line opacity="0.2" x1="471.30903755532023" x2="471.30903755532023" y1="0" y2="30"/><line opacity="0.2" x1="332.9161594545316" x2="332.9161594545316" y1="0" y2="30"/><line opacity="0.2" x1="273.4717957842063" x2="273.4717957842063" y1="0" y2="30"/><line opacity="0.2" x1="291.77634642762087" x2="291.77634642762087" y1="0" y2="30"/><line opacity="0.2" x1="219.02262665992856" x2="219.02262665992856" y1="0" y2="30"/><line opacity="0.2" x1="344.9469261064224" x2="344.9469261064224" y1="0" y2="30"/><line opacity="0.2" x1="286.85291026754635" x2="286.85291026754635" y1="0" y2="30"/><line opacity="0.2" x1="233.0365844993639" x2="233.0365844993639" y1="0" y2="30"/><line opacity="0.2" x1="259.12408407681767" x2="259.12408407681767" y1="0" y2="30"/><line opacity="0.2" x1="208.01974763484182" x2="208.01974763484182" y1="0" y2="30"/><line opacity="0.2" x1="216.7829097204744" x2="216.7829097204744" y1="0" y2="30"/><line opacity="0.2" x1="228.84774420758413" x2="228.84774420758413" y1="0" y2="30"/><line opacity="0.2" x1="289.89336675470986" x2="289.89336675470986" y1="0" y2="30"/><line opacity="0.2" x1="259.0253716748919" x2="259.0253716748919" y1="0" y2="30"/><line opacity="0.2" x1="302.34773668676894" x2="302.34773668676894" y1="0" y2="30"/><line opacity="0.2" x1="166.80814195928747" x2="166.80814195928747" y1="0" y2="30"/><line opacity="0.2" x1="382.9757478703431" x2="382.9757478703431" y1="0" y2="30"/><line opacity="0.2" x1="236.26438783685145" x2="236.26438783685145" y1="0" y2="30"/><line opacity="0.2" x1="279.689540180101" x2="279.689540180101" y1="0" y2="30"/><line opacity="0.2" x1="359.3576483997932" x2="359.3576483997932" y1="0" y2="30"/><line opacity="0.2" x1="381.03319540491157" x2="381.03319540491157" y1="0" y2="30"/><line opacity="0.2" x1="283.60244566511955" x2="283.60244566511955" y1="0" y2="30"/><line opacity="0.2" x1="412.56211150683316" x2="412.56211150683316" y1="0" y2="30"/><line opacity="0.2" x1="376.465480781203" x2="376.465480781203" y1="0" y2="30"/><line opacity="0.2" x1="395.2356319506634" x2="395.2356319506634" y1="0" y2="30"/><line opacity="0.2" x1="484.6045662415383" x2="484.6045662415383" y1="0" y2="30"/><line opacity="0.2" x1="239.64971430748187" x2="239.64971430748187" y1="0" y2="30"/><line opacity="0.2" x1="103.80336797477081" x2="103.80336797477081" y1="0" y2="30"/><line opacity="0.2" x1="219.42976294798763" x2="219.42976294798763" y1="0" y2="30"/><line opacity="0.2" x1="202.65401492912474" x2="202.65401492912474" y1="0" y2="30"/><line opacity="0.2" x1="292.55355658581266" x2="292.55355658581266" y1="0" y2="30"/><line opacity="0.2" x1="419.11027495386764" x2="419.11027495386764" y1="0" y2="30"/><line opacity="0.2" x1="390.82960009091056" x2="390.82960009091056" y1="0" y2="30"/><line opacity="0.2" x1="261.66935916788725" x2="261.66935916788725" y1="0" y2="30"/><line opacity="0.2" x1="304.82033488636324" x2="304.82033488636324" y1="0" y2="30"/><line opacity="0.2" x1="269.4495231776801" x2="269.4495231776801" y1="0" y2="30"/><line opacity="0.2" x1="294.0130464749868" x2="294.0130464749868" y1="0" y2="30"/><line opacity="0.2" x1="205.9341676825064" x2="205.9341676825064" y1="0" y2="30"/><line opacity="0.2" x1="189.44922382415794" x2="189.44922382415794" y1="0" y2="30"/><line opacity="0.2" x1="358.4715831113629" x2="358.4715831113629" y1="0" y2="30"/><line opacity="0.2" x1="242.75148470820218" x2="242.75148470820218" y1="0" y2="30"/><line opacity="0.2" x1="258.8973023027314" x2="258.8973023027314" y1="0" y2="30"/><line opacity="0.2" x1="474.88380726442995" x2="474.88380726442995" y1="0" y2="30"/><line opacity="0.2" x1="288.81001034485064" x2="288.81001034485064" y1="0" y2="30"/><line opacity="0.2" x1="384.0054438439095" x2="384.0054438439095" y1="0" y2="30"/><line opacity="0.2" x1="282.857127819596" x2="282.857127819596" y1="0" y2="30"/><line opacity="0.2" x1="237.9105886637335" x2="237.9105886637335" y1="0" y2="30"/><line opacity="0.2" x1="308.1443475063652" x2="308.1443475063652" y1="0" y2="30"/><line opacity="0.2" x1="311.7282974443829" x2="311.7282974443829" y1="0" y2="30"/><line opacity="0.2" x1="370.93991113782835" x2="370.93991113782835" y1="0" y2="30"/><line opacity="0.2" x1="338.81135194589683" x2="338.81135194589683" y1="0" y2="30"/><line opacity="0.2" x1="448.8779219836483" x2="448.8779219836483" y1="0" y2="30"/><line opacity="0.2" x1="383.9148531445155" x2="383.9148531445155" y1="0" y2="30"/><line opacity="0.2" x1="304.80274379326767" x2="304.80274379326767" y1="0" y2="30"/><line opacity="0.2" x1="298.1284537140138" x2="298.1284537140138" y1="0" y2="30"/><line opacity="0.2" x1="136.914634211041" x2="136.914634211041" y1="0" y2="30"/><line opacity="0.2" x1="281.7911533634007" x2="281.7911533634007" y1="0" y2="30"/><line opacity="0.2" x1="344.3960508273118" x2="344.3960508273118" y1="0" y2="30"/><line opacity="0.2" x1="351.7863634053327" x2="351.7863634053327" y1="0" y2="30"/><line opacity="0.2" x1="360.540273347322" x2="360.540273347322" y1="0" y2="30"/><line opacity="0.2" x1="223.24351899349602" x2="223.24351899349602" y1="0" y2="30"/><line opacity="0.2" x1="215.51880367896894" x2="215.51880367896894" y1="0" y2="30"/><line opacity="0.2" x1="179.10778860810308" x2="179.10778860810308" y1="0" y2="30"/><line opacity="0.2" x1="433.80043431459427" x2="433.80043431459427" y1="0" y2="30"/><line opacity="0.2" x1="398.62329785971366" x2="398.62329785971366" y1="0" y2="30"/><line opacity="0.2" x1="345.9291156005143" x2="345.9291156005143" y1="0" y2="30"/><line opacity="0.2" x1="203.7320041964049" x2="203.7320041964049" y1="0" y2="30"/><line opacity="0.2" x1="310.0051120531558" x2="310.0051120531558" y1="0" y2="30"/><line opacity="0.2" x1="254.17461927556673" x2="254.17461927556673" y1="0" y2="30"/><line opacity="0.2" x1="361.290166686258" x2="361.290166686258" y1="0" y2="30"/><line opacity="0.2" x1="20" x2="20" y1="0" y2="30"/><line opacity="0.2" x1="244.7787941968173" x2="244.7787941968173" y1="0" y2="30"/><line opacity="0.2" x1="390.84010428197087" x2="390.84010428197087" y1="0" y2="30"/><line opacity="0.2" x1="285.5126158670877" x2="285.5126158670877" y1="0" y2="30"/><line opacity="0.2" x1="290.6147038480379" x2="290.6147038480379" y1="0" y2="30"/><line opacity="0.2" x1="362.66760525727267" x2="362.66760525727267" y1="0" y2="30"/><line opacity="0.2" x1="427.6134906925959" x2="427.6134906925959" y1="0" y2="30"/><line opacity="0.2" x1="294.5467723515747" x2="294.5467723515747" y1="0" y2="30"/><line opacity="0.2" x1="348.88836690041165" x2="348.88836690041165" y1="0" y2="30"/><line opacity="0.2" x1="394.50009700571206" x2="394.50009700571206" y1="0" y2="30"/><line opacity="0.2" x1="375.75720607714" x2="375.75720607714" y1="0" y2="30"/><line opacity="0.2" x1="244.07689769905252" x2="244.07689769905252" y1="0" y2="30"/><line opacity="0.2" x1="233.9755304392794" x2="233.9755304392794" y1="0" y2="30"/><line opacity="0.2" x1="360.51764799249526" x2="360.51764799249526" y1="0" y2="30"/><line opacity="0.2" x1="221.5591461329846" x2="221.5591461329846" y1="0" y2="30"/><line opacity="0.2" x1="349.34495978915595" x2="349.34495978915595" y1="0" y2="30"/><line opacity="0.2" x1="382.26052773993445" x2="382.26052773993445" y1="0" y2="30"/><line opacity="0.2" x1="297.08652276989375" x2="297.08652276989375" y1="0" y2="30"/><line opacity="0.2" x1="300.2298191174457" x2="300.2298191174457" y1="0" y2="30"/><line opacity="0.2" x1="376.2060363527784" x2="376.2060363527784" y1="0" y2="30"/><line opacity="0.2" x1="311.0374966402089" x2="311.0374966402089" y1="0" y2="30"/><line opacity="0.2" x1="200.15103716700517" x2="200.15103716700517" y1="0" y2="30"/><line opacity="0.2" x1="244.0338212463696" x2="244.0338212463696" y1="0" y2="30"/><line opacity="0.2" x1="175.18476046168294" x2="175.18476046168294" y1="0" y2="30"/><line opacity="0.2" x1="271.29366563366125" x2="271.29366563366125" y1="0" y2="30"/><line opacity="0.2" x1="379.62351941345725" x2="379.62351941345725" y1="0" y2="30"/><line opacity="0.2" x1="271.60379738355994" x2="271.60379738355994" y1="0" y2="30"/><line opacity="0.2" x1="274.56213626915843" x2="274.56213626915843" y1="0" y2="30"/><line opacity="0.2" x1="105.00174925842649" x2="105.00174925842649" y1="0" y2="30"/><line opacity="0.2" x1="312.7009000080457" x2="312.7009000080457" y1="0" y2="30"/><line opacity="0.2" x1="150.78585847433294" x2="150.78585847433294" y1="0" y2="30"/><line opacity="0.2" x1="278.4951031839628" x2="278.4951031839628" y1="0" y2="30"/><line opacity="0.2" x1="399.526117003456" x2="399.526117003456" y1="0" y2="30"/><line opacity="0.2" x1="365.9668644048153" x2="365.9668644048153" y1="0" y2="30"/><line opacity="0.2" x1="191.68903218248056" x2="191.68903218248056" y1="0" y2="30"/><line opacity="0.2" x1="406.18075795336335" x2="406.18075795336335" y1="0" y2="30"/><line opacity="0.2" x1="380.31500138711755" x2="380.31500138711755" y1="0" y2="30"/><line opacity="0.2" x1="138.46433081867823" x2="138.46433081867823" y1="0" y2="30"/><line opacity="0.2" x1="372.623941301013" x2="372.623941301013" y1="0" y2="30"/><line opacity="0.2" x1="381.5726740735934" x2="381.5726740735934" y1="0" y2="30"/><line opacity="0.2" x1="342.65712945007266" x2="342.65712945007266" y1="0" y2="30"/><line opacity="0.2" x1="199.45465647173128" x2="199.45465647173128" y1="0" y2="30"/><line opacity="0.2" x1="341.37290975288323" x2="341.37290975288323" y1="0" y2="30"/><line opacity="0.2" x1="164.5653407711999" x2="164.5653407711999" y1="0" y2="30"/><line opacity="0.2" x1="182.65212393183188" x2="182.65212393183188" y1="0" y2="30"/><line opacity="0.2" x1="335.1861124493815" x2="335.1861124493815" y1="0" y2="30"/><line opacity="0.2" x1="205.2079796968393" x2="205.2079796968393" y1="0" y2="30"/><line opacity="0.2" x1="150.2499555515804" x2="150.2499555515804" y1="0" y2="30"/><line opacity="0.2" x1="271.7456543983475" x2="271.7456543983475" y1="0" y2="30"/><line opacity="0.2" x1="193.3676016976199" x2="193.3676016976199" y1="0" y2="30"/><line opacity="0.2" x1="306.5214307652956" x2="306.5214307652956" y1="0" y2="30"/><line opacity="0.2" x1="250.31841027689424" x2="250.31841027689424" y1="0" y2="30"/><line opacity="0.2" x1="377.23307864880695" x2="377.23307864880695" y1="0" y2="30"/><line opacity="0.2" x1="301.63306675905204" x2="301.63306675905204" y1="0" y2="30"/><line opacity="0.2" x1="354.6505547267533" x2="354.6505547267533" y1="0" y2="30"/><line opacity="0.2" x1="468.8921295032671" x2="468.8921295032671" y1="0" y2="30"/><line opacity="0.2" x1="140.17805574315983" x2="140.17805574315983" y1="0" y2="30"/><line opacity="0.2" x1="343.9306656496112" x2="343.9306656496112" y1="0" y2="30"/><line opacity="0.2" x1="382.9703189656081" x2="382.9703189656081" y1="0" y2="30"/><line opacity="0.2" x1="328.90018062148914" x2="328.90018062148914" y1="0" y2="30"/><line opacity="0.2" x1="253.0815670341966" x2="253.0815670341966" y1="0" y2="30"/><line opacity="0.2" x1="228.77883455418566" x2="228.77883455418566" y1="0" y2="30"/><line opacity="0.2" x1="272.5068952044313" x2="272.5068952044313" y1="0" y2="30"/><line opacity="0.2" x1="256.7656776782404" x2="256.7656776782404" y1="0" y2="30"/><line opacity="0.2" x1="210.27858141614553" x2="210.27858141614553" y1="0" y2="30"/><line opacity="0.2" x1="334.77446284411155" x2="334.77446284411155" y1="0" y2="30"/><line opacity="0.2" x1="487.78835071059956" x2="487.78835071059956" y1="0" y2="30"/><line opacity="0.2" x1="324.75462707756805" x2="324.75462707756805" y1="0" y2="30"/><line opacity="0.2" x1="334.7539039448984" x2="334.7539039448984" y1="0" y2="30"/><line opacity="0.2" x1="51.60441089922072" x2="51.60441089922072" y1="0" y2="30"/><line opacity="0.2" x1="120.57067227157931" x2="120.57067227157931" y1="0" y2="30"/><line opacity="0.2" x1="153.4398622493646" x2="153.4398622493646" y1="0" y2="30"/><line opacity="0.2" x1="282.13978631747017" x2="282.13978631747017" y1="0" y2="30"/><line opacity="0.2" x1="227.61305183340727" x2="227.61305183340727" y1="0" y2="30"/><line opacity="0.2" x1="272.93398401126984" x2="272.93398401126984" y1="0" y2="30"/><line opacity="0.2" x1="206.80643606052328" x2="206.80643606052328" y1="0" y2="30"/><line opacity="0.2" x1="325.95623090346294" x2="325.95623090346294" y1="0" y2="30"/><line opacity="0.2" x1="191.7112563236232" x2="191.7112563236232" y1="0" y2="30"/><line opacity="0.2" x1="328.0446064349816" x2="328.0446064349816" y1="0" y2="30"/><line opacity="0.2" x1="302.6622250048539" x2="302.6622250048539" y1="0" y2="30"/><line opacity="0.2" x1="356.6382520887486" x2="356.6382520887486" y1="0" y2="30"/><line opacity="0.2" x1="225.36347339126814" x2="225.36347339126814" y1="0" y2="30"/><line opacity="0.2" x1="292.47979118200715" x2="292.47979118200715" y1="0" y2="30"/><line opacity="0.2" x1="363.3760049937197" x2="363.3760049937197" y1="0" y2="30"/><line opacity="0.2" x1="324.98557464461044" x2="324.98557464461044" y1="0" y2="30"/><line opacity="0.2" x1="171.35156124742696" x2="171.35156124742696" y1="0" y2="30"/><line opacity="0.2" x1="365.63379093086365" x2="365.63379093086365" y1="0" y2="30"/><line opacity="0.2" x1="234.5301999234448" x2="234.5301999234448" y1="0" y2="30"/><line opacity="0.2" x1="227.3849982831967" x2="227.3849982831967" y1="0" y2="30"/><line opacity="0.2" x1="328.83545975799603" x2="328.83545975799603" y1="0" y2="30"/><line opacity="0.2" x1="269.66225904564817" x2="269.66225904564817" y1="0" y2="30"/><line opacity="0.2" x1="200.16319230420862" x2="200.16319230420862" y1="0" y2="30"/><line opacity="0.2" x1="518.0444554323002" x2="518.0444554323002" y1="0" y2="30"/><line opacity="0.2" x1="274.61290020268586" x2="274.61290020268586" y1="0" y2="30"/><line opacity="0.2" x1="123.7402674209512" x2="123.7402674209512" y1="0" y2="30"/><line opacity="0.2" x1="322.38440616430836" x2="322.38440616430836" y1="0" y2="30"/><line opacity="0.2" x1="232.9430989687108" x2="232.9430989687108" y1="0" y2="30"/><line opacity="0.2" x1="376.48482390442774" x2="376.48482390442774" y1="0" y2="30"/><line opacity="0.2" x1="305.3273565662232" x2="305.3273565662232" y1="0" y2="30"/><line opacity="0.2" x1="486.8547378992264" x2="486.8547378992264" y1="0" y2="30"/><line opacity="0.2" x1="326.2324500204807" x2="326.2324500204807" y1="0" y2="30"/><line opacity="0.2" x1="462.56315795260105" x2="462.56315795260105" y1="0" y2="30"/><line opacity="0.2" x1="295.0164153420767" x2="295.0164153420767" y1="0" y2="30"/><line opacity="0.2" x1="254.74582135873547" x2="254.74582135873547" y1="0" y2="30"/><line opacity="0.2" x1="364.14862950606994" x2="364.14862950606994" y1="0" y2="30"/><line opacity="0.2" x1="455.3061081626403" x2="455.3061081626403" y1="0" y2="30"/><line opacity="0.2" x1="392.1922564036476" x2="392.1922564036476" y1="0" y2="30"/><line opacity="0.2" x1="271.20542855058613" x2="271.20542855058613" y1="0" y2="30"/><line opacity="0.2" x1="359.0492047413384" x2="359.0492047413384" y1="0" y2="30"/><line opacity="0.2" x1="364.34234981848135" x2="364.34234981848135" y1="0" y2="30"/><line opacity="0.2" x1="315.5354945143967" x2="315.5354945143967" y1="0" y2="30"/><line opacity="0.2" x1="288.92838674942703" x2="288.92838674942703" y1="0" y2="30"/><line opacity="0.2" x1="314.1134009502338" x2="314.1134009502338" y1="0" y2="30"/><line opacity="0.2" x1="352.11346847104994" x2="352.11346847104994" y1="0" y2="30"/><line opacity="0.2" x1="362.4927479229126" x2="362.4927479229126" y1="0" y2="30"/><line opacity="0.2" x1="228.99575931500655" x2="228.99575931500655" y1="0" y2="30"/><line opacity="0.2" x1="291.0101534842317" x2="291.0101534842317" y1="0" y2="30"/><line opacity="0.2" x1="250.61778064761964" x2="250.61778064761964" y1="0" y2="30"/><line opacity="0.2" x1="117.1277535290073" x2="117.1277535290073" y1="0" y2="30"/><line opacity="0.2" x1="356.45628341732584" x2="356.45628341732584" y1="0" y2="30"/><line opacity="0.2" x1="200.616063744669" x2="200.616063744669" y1="0" y2="30"/><line opacity="0.2" x1="362.4647753522754" x2="362.4647753522754" y1="0" y2="30"/><line opacity="0.2" x1="185.05008244551252" x2="185.05008244551252" y1="0" y2="30"/><line opacity="0.2" x1="239.64996873154183" x2="239.64996873154183" y1="0" y2="30"/><line opacity="0.2" x1="222.09673590362758" x2="222.09673590362758" y1="0" y2="30"/><line opacity="0.2" x1="462.1550621467859" x2="462.1550621467859" y1="0" y2="30"/><line opacity="0.2" x1="543.2976697354646" x2="543.2976697354646" y1="0" y2="30"/><line opacity="0.2" x1="246.44781554905944" x2="246.44781554905944" y1="0" y2="30"/><line opacity="0.2" x1="336.40609778338643" x2="336.40609778338643" y1="0" y2="30"/><line opacity="0.2" x1="236.9222615272041" x2="236.9222615272041" y1="0" y2="30"/><line opacity="0.2" x1="246.51796266307585" x2="246.51796266307585" y1="0" y2="30"/><line opacity="0.2" x1="484.9891758135412" x2="484.9891758135412" y1="0" y2="30"/><line opacity="0.2" x1="255.25205493268334" x2="255.25205493268334" y1="0" y2="30"/><line opacity="0.2" x1="229.70569595733207" x2="229.70569595733207" y1="0" y2="30"/><line opacity="0.2" x1="383.7454370626043" x2="383.7454370626043" y1="0" y2="30"/><line opacity="0.2" x1="305.6006898482311" x2="305.6006898482311" y1="0" y2="30"/><line opacity="0.2" x1="393.30381266430163" x2="393.30381266430163" y1="0" y2="30"/><line opacity="0.2" x1="368.89445749910595" x2="368.89445749910595" y1="0" y2="30"/><line opacity="0.2" x1="376.20795063819435" x2="376.20795063819435" y1="0" y2="30"/><line opacity="0.2" x1="312.7430939718804" x2="312.7430939718804" y1="0" y2="30"/><line opacity="0.2" x1="337.154909139963" x2="337.154909139963" y1="0" y2="30"/><line opacity="0.2" x1="230.24524476594314" x2="230.24524476594314" y1="0" y2="30"/><line opacity="0.2" x1="231.88033497684552" x2="231.88033497684552" y1="0" y2="30"/><line opacity="0.2" x1="291.0052743581538" x2="291.0052743581538" y1="0" y2="30"/><line opacity="0.2" x1="320.5650254447071" x2="320.5650254447071" y1="0" y2="30"/><line opacity="0.2" x1="186.82053274819" x2="186.82053274819" y1="0" y2="30"/><line opacity="0.2" x1="405.432831192104" x2="405.432831192104" y1="0" y2="30"/><line opacity="0.2" x1="282.9727405263392" x2="282.9727405263392" y1="0" y2="30"/><line opacity="0.2" x1="323.97671114865267" x2="323.97671114865267" y1="0" y2="30"/><line opacity="0.2" x1="412.75585569091794" x2="412.75585569091794" y1="0" y2="30"/><line opacity="0.2" x1="265.44673630816845" x2="265.44673630816845" y1="0" y2="30"/><line opacity="0.2" x1="321.3619243080291" x2="321.3619243080291" y1="0" y2="30"/><line opacity="0.2" x1="401.0419494123391" x2="401.0419494123391" y1="0" y2="30"/><line opacity="0.2" x1="316.2559921816342" x2="316.2559921816342" y1="0" y2="30"/><line opacity="0.2" x1="395.2538791085685" x2="395.2538791085685" y1="0" y2="30"/><line opacity="0.2" x1="348.89143457766295" x2="348.89143457766295" y1="0" y2="30"/><line opacity="0.2" x1="311.43365314983197" x2="311.43365314983197" y1="0" y2="30"/><line opacity="0.2" x1="357.70735838128167" x2="357.70735838128167" y1="0" y2="30"/><line opacity="0.2" x1="205.9934904554241" x2="205.9934904554241" y1="0" y2="30"/><line opacity="0.2" x1="298.2570918178473" x2="298.2570918178473" y1="0" y2="30"/></g></svg>