<svg xmlns="http://www.w3.org/2000/svg" xmlns:xlink="http://www.w3.org/1999/xlink" class="plot-936fa274afc33" fill="currentColor" font-family="system-ui, sans-serif" font-size="10" text-anchor="middle" width="640" height="400" viewBox="0 0 640 400" style="color: black;"><style>
        .plot-936fa274afc33 {
          display: block;
          background: white;
          height: auto;
          height: intrinsic;
          max-width: 100%;
        }
        .plot-936fa274afc33 text,
        .plot-936fa274afc33 tspan {
          white-space: pre;
        }
      </style><g aria-label="y-axis tick" fill="none" stroke="currentColor" transform="translate(0,0.5)"><path transform="translate(40,379.73474797705836)" d="M0,0L-6,0"/><path transform="translate(40,349.06197582514574)" d="M0,0L-6,0"/><path transform="translate(40,318.3892036732332)" d="M0,0L-6,0"/><path transform="translate(40,287.71643152132066)" d="M0,0L-6,0"/><path transform="translate(40,257.04365936940803)" d="M0,0L-6,0"/><path transform="translate(40,226.37088721749546)" d="M0,0L-6,0"/><path transform="translate(40,195.69811506558295)" d="M0,0L-6,0"/><path transform="translate(40,165.02534291367039)" d="M0,0L-6,0"/><path transform="translate(40,134.3525707617578)" d="M0,0L-6,0"/><path transform="translate(40,103.67979860984525)" d="M0,0L-6,0"/><path transform="translate(40,73.00702645793267)" d="M0,0L-6,0"/><path transform="translate(40,42.334254306020114)" d="M0,0L-6,0"/></g><g aria-label="y-axis tick label" text-anchor="end" font-variant="tabular-nums" transform="translate(-8.5,0.5)"><text y="0.32em" transform="translate(40,379.73474797705836)">−2</text><text y="0.32em" transform="translate(40,349.06197582514574)">0</text><text y="0.32em" transform="translate(40,318.3892036732332)">2</text><text y="0.32em" transform="translate(40,287.71643152132066)">4</text><text y="0.32em" transform="translate(40,257.04365936940803)">6</text><text y="0.32em" transform="translate(40,226.37088721749546)">8</text><text y="0.32em" transform="translate(40,195.69811506558295)">10</text><text y="0.32em" transform="translate(40,165.02534291367039)">12</text><text y="0.32em" transform="translate(40,134.3525707617578)">14</text><text y="0.32em" transform="translate(40,103.67979860984525)">16</text><text y="0.32em" transform="translate(40,73.00702645793267)">18</text><text y="0.32em" transform="translate(40,42.334254306020114)">20</text></g><g aria-label="rule" stroke="royalblue" transform="translate(0,0.5)"><line x1="40" x2="639" y1="349.06197582514574" y2="349.06197582514574"/></g><g aria-label="line" fill="none" stroke="currentColor" stroke-width="1.5" stroke-linejoin="round" stroke-linecap="round" transform="translate(0.5,0.5)"><path d="M40,338.467L46.051,377.434L52.101,380L58.152,362.364L64.202,375.885L70.253,372.147L76.303,361.783L82.354,330.338L88.404,297.677L94.455,314.359L100.505,301.303L106.556,278.32L112.606,237.103L118.657,213.597L124.707,248.873L130.758,256.628L136.808,249.629L142.859,260.718L148.909,263.689L154.96,278.705L161.01,276.149L167.061,289.71L173.111,282.497L179.162,274.543L185.212,249.142L191.263,268.031L197.313,248.748L203.364,242.325L209.414,235.858L215.465,222.6L221.515,208.25L227.566,180.284L233.616,169.907L239.667,136.234L245.717,129.363L251.768,137.505L257.818,158.581L263.869,181.896L269.919,193.941L275.97,202.668L282.02,222.537L288.071,208.151L294.121,240.973L300.172,231.726L306.222,180.625L312.273,166.713L318.323,159.158L324.374,166.487L330.424,184.526L336.475,199.596L342.525,194.087L348.576,214.823L354.626,215.011L360.677,212.116L366.727,185.396L372.778,161.52L378.828,147.276L384.879,150.751L390.929,161.278L396.98,155.011L403.03,164.236L409.081,198.236L415.131,168.844L421.182,173.555L427.232,160.302L433.283,178.414L439.333,176.738L445.384,184.163L451.434,174.72L457.485,175.196L463.535,176.025L469.586,171.095L475.636,159.411L481.687,158.436L487.737,122.919L493.788,139.034L499.838,134.644L505.889,131.398L511.939,132.393L517.99,123.642L524.04,98.633L530.091,93.271L536.141,80.074L542.192,105.097L548.242,110.329L554.293,116.386L560.343,79.457L566.394,67.289L572.444,72.838L578.495,45.155L584.545,72.042L590.596,53.734L596.646,29.732L602.697,40.727L608.747,48.72L614.798,49.653L620.848,37.922L626.899,39.093L632.949,20L639,20.033"/></g></svg>