<svg xmlns="http://www.w3.org/2000/svg" xmlns:xlink="http://www.w3.org/1999/xlink" class="plot-264f94d03c1c" fill="currentColor" font-family="system-ui, sans-serif" font-size="10" text-anchor="middle" width="640" height="400" viewBox="0 0 640 400" style="color: black;"><style>
        .plot-264f94d03c1c {
          display: block;
          background: white;
          height: auto;
          height: intrinsic;
          max-width: 100%;
        }
        .plot-264f94d03c1c text,
        .plot-264f94d03c1c tspan {
          white-space: pre;
        }
      </style><g aria-label="y-axis tick" fill="none" stroke="currentColor" transform="translate(0,0.5)"><path transform="translate(40,347.75982822138315)" d="M0,0L-6,0"/><path transform="translate(40,306.1020205437902)" d="M0,0L-6,0"/><path transform="translate(40,264.4442128661972)" d="M0,0L-6,0"/><path transform="translate(40,222.7864051886042)" d="M0,0L-6,0"/><path transform="translate(40,181.12859751101118)" d="M0,0L-6,0"/><path transform="translate(40,139.47078983341817)" d="M0,0L-6,0"/><path transform="translate(40,97.81298215582515)" d="M0,0L-6,0"/><path transform="translate(40,56.15517447823218)" d="M0,0L-6,0"/></g><g aria-label="y-axis tick label" text-anchor="end" font-variant="tabular-nums" transform="translate(-8.5,0.5)"><text y="0.32em" transform="translate(40,347.75982822138315)">−1</text><text y="0.32em" transform="translate(40,306.1020205437902)">0</text><text y="0.32em" transform="translate(40,264.4442128661972)">1</text><text y="0.32em" transform="translate(40,222.7864051886042)">2</text><text y="0.32em" transform="translate(40,181.12859751101118)">3</text><text y="0.32em" transform="translate(40,139.47078983341817)">4</text><text y="0.32em" transform="translate(40,97.81298215582515)">5</text><text y="0.32em" transform="translate(40,56.15517447823218)">6</text></g><g aria-label="rule" stroke="steelblue" transform="translate(0,0.5)"><line x1="40" x2="639" y1="306.1020205437902" y2="306.1020205437902"/></g><g aria-label="line" fill="none" stroke="currentColor" stroke-width="1.5" stroke-linejoin="round" stroke-linecap="round" transform="translate(0.5,0.5)"><path d="M40,345.775L46.051,380L52.101,344.564L58.152,341.681L64.202,308.502L70.253,303.764L76.303,253.535L82.354,282.748L88.404,327.989L94.455,309.304L100.505,268.732L106.556,264.234L112.606,229.816L118.657,305.781L124.707,249.671L130.758,313.619L136.808,353.27L142.859,312.357L148.909,327.151L154.96,243.779L161.01,192.294L167.061,171.589L173.111,203.782L179.162,229.81L185.212,243.904L191.263,264.335L197.313,240.274L203.364,294.815L209.414,202.055L215.465,263.446L221.515,286.536L227.566,272.427L233.616,300.166L239.667,285.956L245.717,325.945L251.768,324.866L257.818,240.445L263.869,175.031L269.919,186.008L275.97,181.436L282.02,217.405L288.071,296.464L294.121,239.887L300.172,256.23L306.222,282.771L312.273,283.363L318.323,230.63L324.374,192.764L330.424,224.276L336.475,192.934L342.525,199.748L348.576,197.257L354.626,224.472L360.677,225.047L366.727,193.44L372.778,224.662L378.828,213.259L384.879,204.037L390.929,158.333L396.98,87.069L403.03,68.743L409.081,77.442L415.131,109.527L421.182,82.154L427.232,76.554L433.283,20L439.333,23.406L445.384,47.538L451.434,28.951L457.485,76.415L463.535,86.172L469.586,120.779L475.636,122.221L481.687,76.193L487.737,59.052L493.788,159.075L499.838,166.011L505.889,196.43L511.939,211.574L517.99,209.026L524.04,195.869L530.091,194.428L536.141,224.933L542.192,257.919L548.242,292.668L554.293,323.629L560.343,292.18L566.394,251.743L572.444,201.603L578.495,206.725L584.545,217.155L590.596,202.443L596.646,195.406L602.697,200.666L608.747,291.546L614.798,206.497L620.848,186.532L626.899,217.298L632.949,152.284L639,139.919"/></g></svg>