<svg xmlns="http://www.w3.org/2000/svg" xmlns:xlink="http://www.w3.org/1999/xlink" class="plot-d6a7b5" fill="currentColor" font-family="system-ui, sans-serif" font-size="10" text-anchor="middle" width="640" height="60" viewBox="0 0 640 60" style="color: black; background-color: white;"><style>.plot-d6a7b5 {
  display: block;
  background: white;
  height: auto;
  height: intrinsic;
  max-width: 100%;
}
.plot-d6a7b5 text,
.plot-d6a7b5 tspan {
  white-space: pre;
}</style><g aria-label="x-axis tick" fill="none" stroke="currentColor"><path transform="translate(48.48959414543912,30)" d="M0,0L0,6"/><path transform="translate(148.48818828505563,30)" d="M0,0L0,6"/><path transform="translate(248.48678242467216,30)" d="M0,0L0,6"/><path transform="translate(348.48537656428863,30)" d="M0,0L0,6"/><path transform="translate(448.48397070390513,30)" d="M0,0L0,6"/><path transform="translate(548.4825648435216,30)" d="M0,0L0,6"/></g><g aria-label="x-axis tick label" font-variant="tabular-nums" transform="translate(0,9)"><text y="0.71em" transform="translate(48.48959414543912,30)">−3</text><text y="0.71em" transform="translate(148.48818828505563,30)">−2</text><text y="0.71em" transform="translate(248.48678242467216,30)">−1</text><text y="0.71em" transform="translate(348.48537656428863,30)">0</text><text y="0.71em" transform="translate(448.48397070390513,30)">1</text><text y="0.71em" transform="translate(548.4825648435216,30)">2</text></g><g aria-label="tick" stroke="steelblue"><line opacity="0.2" x1="320.37723898770935" x2="320.37723898770935" y1="0.5" y2="30"/><line opacity="0.2" x1="360.8723487951868" x2="360.8723487951868" y1="0.5" y2="30"/><line opacity="0.2" x1="347.9641326570675" x2="347.9641326570675" y1="0.5" y2="30"/><line opacity="0.2" x1="482.48616088179386" x2="482.48616088179386" y1="0.5" y2="30"/><line opacity="0.2" x1="372.46784120913424" x2="372.46784120913424" y1="0.5" y2="30"/><line opacity="0.2" x1="213.51776062360588" x2="213.51776062360588" y1="0.5" y2="30"/><line opacity="0.2" x1="292.9722623634175" x2="292.9722623634175" y1="0.5" y2="30"/><line opacity="0.2" x1="363.9757495479755" x2="363.9757495479755" y1="0.5" y2="30"/><line opacity="0.2" x1="409.8948464410867" x2="409.8948464410867" y1="0.5" y2="30"/><line opacity="0.2" x1="398.66843814982036" x2="398.66843814982036" y1="0.5" y2="30"/><line opacity="0.2" x1="307.37191148754664" x2="307.37191148754664" y1="0.5" y2="30"/><line opacity="0.2" x1="320.77711138633015" x2="320.77711138633015" y1="0.5" y2="30"/><line opacity="0.2" x1="369.88575111082037" x2="369.88575111082037" y1="0.5" y2="30"/><line opacity="0.2" x1="263.097561933975" x2="263.097561933975" y1="0.5" y2="30"/><line opacity="0.2" x1="208.40760984529493" x2="208.40760984529493" y1="0.5" y2="30"/><line opacity="0.2" x1="171.50160785939664" x2="171.50160785939664" y1="0.5" y2="30"/><line opacity="0.2" x1="392.3495469817465" x2="392.3495469817465" y1="0.5" y2="30"/><line opacity="0.2" x1="387.9271088201164" x2="387.9271088201164" y1="0.5" y2="30"/><line opacity="0.2" x1="323.22981993309025" x2="323.22981993309025" y1="0.5" y2="30"/><line opacity="0.2" x1="373.97564896432414" x2="373.97564896432414" y1="0.5" y2="30"/><line opacity="0.2" x1="304.95990307189925" x2="304.95990307189925" y1="0.5" y2="30"/><line opacity="0.2" x1="297.0116420584935" x2="297.0116420584935" y1="0.5" y2="30"/><line opacity="0.2" x1="338.79586511933576" x2="338.79586511933576" y1="0.5" y2="30"/><line opacity="0.2" x1="279.9988379218397" x2="279.9988379218397" y1="0.5" y2="30"/><line opacity="0.2" x1="481.87242496238696" x2="481.87242496238696" y1="0.5" y2="30"/><line opacity="0.2" x1="256.4508065400672" x2="256.4508065400672" y1="0.5" y2="30"/><line opacity="0.2" x1="283.4048960895563" x2="283.4048960895563" y1="0.5" y2="30"/><line opacity="0.2" x1="412.8151342875604" x2="412.8151342875604" y1="0.5" y2="30"/><line opacity="0.2" x1="451.712496828136" x2="451.712496828136" y1="0.5" y2="30"/><line opacity="0.2" x1="369.2805160285927" x2="369.2805160285927" y1="0.5" y2="30"/><line opacity="0.2" x1="286.77077317888387" x2="286.77077317888387" y1="0.5" y2="30"/><line opacity="0.2" x1="516.5152488370811" x2="516.5152488370811" y1="0.5" y2="30"/><line opacity="0.2" x1="398.63457236944015" x2="398.63457236944015" y1="0.5" y2="30"/><line opacity="0.2" x1="408.3761607227395" x2="408.3761607227395" y1="0.5" y2="30"/><line opacity="0.2" x1="252.52650716573814" x2="252.52650716573814" y1="0.5" y2="30"/><line opacity="0.2" x1="376.96157504627234" x2="376.96157504627234" y1="0.5" y2="30"/><line opacity="0.2" x1="390.25729056037204" x2="390.25729056037204" y1="0.5" y2="30"/><line opacity="0.2" x1="360.80048411370655" x2="360.80048411370655" y1="0.5" y2="30"/><line opacity="0.2" x1="405.562697370679" x2="405.562697370679" y1="0.5" y2="30"/><line opacity="0.2" x1="548.8942989413631" x2="548.8942989413631" y1="0.5" y2="30"/><line opacity="0.2" x1="367.3889663764503" x2="367.3889663764503" y1="0.5" y2="30"/><line opacity="0.2" x1="331.22960733995313" x2="331.22960733995313" y1="0.5" y2="30"/><line opacity="0.2" x1="356.7845860230495" x2="356.7845860230495" y1="0.5" y2="30"/><line opacity="0.2" x1="311.2253142506572" x2="311.2253142506572" y1="0.5" y2="30"/><line opacity="0.2" x1="303.02132720776206" x2="303.02132720776206" y1="0.5" y2="30"/><line opacity="0.2" x1="298.4343217640515" x2="298.4343217640515" y1="0.5" y2="30"/><line opacity="0.2" x1="540.7942787849433" x2="540.7942787849433" y1="0.5" y2="30"/><line opacity="0.2" x1="454.1649323490171" x2="454.1649323490171" y1="0.5" y2="30"/><line opacity="0.2" x1="402.1690142040017" x2="402.1690142040017" y1="0.5" y2="30"/><line opacity="0.2" x1="314.4490362450001" x2="314.4490362450001" y1="0.5" y2="30"/><line opacity="0.2" x1="518.6829376537643" x2="518.6829376537643" y1="0.5" y2="30"/><line opacity="0.2" x1="280.93126235132144" x2="280.93126235132144" y1="0.5" y2="30"/><line opacity="0.2" x1="306.6229422384073" x2="306.6229422384073" y1="0.5" y2="30"/><line opacity="0.2" x1="173.20191923052502" x2="173.20191923052502" y1="0.5" y2="30"/><line opacity="0.2" x1="371.81482740704797" x2="371.81482740704797" y1="0.5" y2="30"/><line opacity="0.2" x1="280.84795406886917" x2="280.84795406886917" y1="0.5" y2="30"/><line opacity="0.2" x1="228.97222831643296" x2="228.97222831643296" y1="0.5" y2="30"/><line opacity="0.2" x1="373.9218632088503" x2="373.9218632088503" y1="0.5" y2="30"/><line opacity="0.2" x1="333.9620318475617" x2="333.9620318475617" y1="0.5" y2="30"/><line opacity="0.2" x1="440.6481112919479" x2="440.6481112919479" y1="0.5" y2="30"/><line opacity="0.2" x1="341.73666704625754" x2="341.73666704625754" y1="0.5" y2="30"/><line opacity="0.2" x1="249.60919530670935" x2="249.60919530670935" y1="0.5" y2="30"/><line opacity="0.2" x1="373.3228712496347" x2="373.3228712496347" y1="0.5" y2="30"/><line opacity="0.2" x1="365.8184557811774" x2="365.8184557811774" y1="0.5" y2="30"/><line opacity="0.2" x1="530.8581614495738" x2="530.8581614495738" y1="0.5" y2="30"/><line opacity="0.2" x1="403.4840025206352" x2="403.4840025206352" y1="0.5" y2="30"/><line opacity="0.2" x1="380.5154084776489" x2="380.5154084776489" y1="0.5" y2="30"/><line opacity="0.2" x1="353.80854372273853" x2="353.80854372273853" y1="0.5" y2="30"/><line opacity="0.2" x1="293.60205822622913" x2="293.60205822622913" y1="0.5" y2="30"/><line opacity="0.2" x1="409.9086690619406" x2="409.9086690619406" y1="0.5" y2="30"/><line opacity="0.2" x1="455.58319224631026" x2="455.58319224631026" y1="0.5" y2="30"/><line opacity="0.2" x1="343.1726152581356" x2="343.1726152581356" y1="0.5" y2="30"/><line opacity="0.2" x1="326.71145111510134" x2="326.71145111510134" y1="0.5" y2="30"/><line opacity="0.2" x1="359.22917459808684" x2="359.22917459808684" y1="0.5" y2="30"/><line opacity="0.2" x1="456.8859133595348" x2="456.8859133595348" y1="0.5" y2="30"/><line opacity="0.2" x1="363.25971881851876" x2="363.25971881851876" y1="0.5" y2="30"/><line opacity="0.2" x1="358.2644637096177" x2="358.2644637096177" y1="0.5" y2="30"/><line opacity="0.2" x1="214.76400378647222" x2="214.76400378647222" y1="0.5" y2="30"/><line opacity="0.2" x1="458.8541230686882" x2="458.8541230686882" y1="0.5" y2="30"/><line opacity="0.2" x1="293.10664471293944" x2="293.10664471293944" y1="0.5" y2="30"/><line opacity="0.2" x1="351.5702172377091" x2="351.5702172377091" y1="0.5" y2="30"/><line opacity="0.2" x1="377.5663996665291" x2="377.5663996665291" y1="0.5" y2="30"/><line opacity="0.2" x1="431.8417037748523" x2="431.8417037748523" y1="0.5" y2="30"/><line opacity="0.2" x1="274.91399044520693" x2="274.91399044520693" y1="0.5" y2="30"/><line opacity="0.2" x1="369.2081298544207" x2="369.2081298544207" y1="0.5" y2="30"/><line opacity="0.2" x1="283.3994387359674" x2="283.3994387359674" y1="0.5" y2="30"/><line opacity="0.2" x1="308.8575490839107" x2="308.8575490839107" y1="0.5" y2="30"/><line opacity="0.2" x1="301.15492464140794" x2="301.15492464140794" y1="0.5" y2="30"/><line opacity="0.2" x1="299.72852371019906" x2="299.72852371019906" y1="0.5" y2="30"/><line opacity="0.2" x1="343.0093446432544" x2="343.0093446432544" y1="0.5" y2="30"/><line opacity="0.2" x1="455.6584393070873" x2="455.6584393070873" y1="0.5" y2="30"/><line opacity="0.2" x1="270.21631960376465" x2="270.21631960376465" y1="0.5" y2="30"/><line opacity="0.2" x1="332.04087111008477" x2="332.04087111008477" y1="0.5" y2="30"/><line opacity="0.2" x1="330.5409492229648" x2="330.5409492229648" y1="0.5" y2="30"/><line opacity="0.2" x1="308.1559284150944" x2="308.1559284150944" y1="0.5" y2="30"/><line opacity="0.2" x1="367.5591670416922" x2="367.5591670416922" y1="0.5" y2="30"/><line opacity="0.2" x1="314.2799572926911" x2="314.2799572926911" y1="0.5" y2="30"/><line opacity="0.2" x1="475.0133797460575" x2="475.0133797460575" y1="0.5" y2="30"/><line opacity="0.2" x1="321.37470524104555" x2="321.37470524104555" y1="0.5" y2="30"/><line opacity="0.2" x1="472.9553086719473" x2="472.9553086719473" y1="0.5" y2="30"/><line opacity="0.2" x1="480.49927069267056" x2="480.49927069267056" y1="0.5" y2="30"/><line opacity="0.2" x1="336.49202505916907" x2="336.49202505916907" y1="0.5" y2="30"/><line opacity="0.2" x1="412.79158261050077" x2="412.79158261050077" y1="0.5" y2="30"/><line opacity="0.2" x1="422.06054850429916" x2="422.06054850429916" y1="0.5" y2="30"/><line opacity="0.2" x1="548.4431543693885" x2="548.4431543693885" y1="0.5" y2="30"/><line opacity="0.2" x1="419.4508812007899" x2="419.4508812007899" y1="0.5" y2="30"/><line opacity="0.2" x1="363.78313030097786" x2="363.78313030097786" y1="0.5" y2="30"/><line opacity="0.2" x1="457.5491708578381" x2="457.5491708578381" y1="0.5" y2="30"/><line opacity="0.2" x1="225.8736477392641" x2="225.8736477392641" y1="0.5" y2="30"/><line opacity="0.2" x1="439.84566059172755" x2="439.84566059172755" y1="0.5" y2="30"/><line opacity="0.2" x1="354.3771269826075" x2="354.3771269826075" y1="0.5" y2="30"/><line opacity="0.2" x1="316.6595128514319" x2="316.6595128514319" y1="0.5" y2="30"/><line opacity="0.2" x1="331.2615029576788" x2="331.2615029576788" y1="0.5" y2="30"/><line opacity="0.2" x1="464.73711039593246" x2="464.73711039593246" y1="0.5" y2="30"/><line opacity="0.2" x1="289.49409938463833" x2="289.49409938463833" y1="0.5" y2="30"/><line opacity="0.2" x1="339.4650207691432" x2="339.4650207691432" y1="0.5" y2="30"/><line opacity="0.2" x1="462.6594647834761" x2="462.6594647834761" y1="0.5" y2="30"/><line opacity="0.2" x1="297.3235954870106" x2="297.3235954870106" y1="0.5" y2="30"/><line opacity="0.2" x1="142.53660908577297" x2="142.53660908577297" y1="0.5" y2="30"/><line opacity="0.2" x1="251.66365926791914" x2="251.66365926791914" y1="0.5" y2="30"/><line opacity="0.2" x1="330.8539440977532" x2="330.8539440977532" y1="0.5" y2="30"/><line opacity="0.2" x1="374.2541057793462" x2="374.2541057793462" y1="0.5" y2="30"/><line opacity="0.2" x1="334.58620371039143" x2="334.58620371039143" y1="0.5" y2="30"/><line opacity="0.2" x1="94.46130002522128" x2="94.46130002522128" y1="0.5" y2="30"/><line opacity="0.2" x1="286.13830469823495" x2="286.13830469823495" y1="0.5" y2="30"/><line opacity="0.2" x1="554.9806958132008" x2="554.9806958132008" y1="0.5" y2="30"/><line opacity="0.2" x1="520.8541039229987" x2="520.8541039229987" y1="0.5" y2="30"/><line opacity="0.2" x1="254.90906827297746" x2="254.90906827297746" y1="0.5" y2="30"/><line opacity="0.2" x1="512.7023977854652" x2="512.7023977854652" y1="0.5" y2="30"/><line opacity="0.2" x1="132.15374578759122" x2="132.15374578759122" y1="0.5" y2="30"/><line opacity="0.2" x1="574.2074329235129" x2="574.2074329235129" y1="0.5" y2="30"/><line opacity="0.2" x1="366.22188500302224" x2="366.22188500302224" y1="0.5" y2="30"/><line opacity="0.2" x1="326.8904645245333" x2="326.8904645245333" y1="0.5" y2="30"/><line opacity="0.2" x1="412.8823785822531" x2="412.8823785822531" y1="0.5" y2="30"/><line opacity="0.2" x1="182.0962037806957" x2="182.0962037806957" y1="0.5" y2="30"/><line opacity="0.2" x1="381.484580291558" x2="381.484580291558" y1="0.5" y2="30"/><line opacity="0.2" x1="318.446703338248" x2="318.446703338248" y1="0.5" y2="30"/><line opacity="0.2" x1="328.6711989057985" x2="328.6711989057985" y1="0.5" y2="30"/><line opacity="0.2" x1="192.6621696906813" x2="192.6621696906813" y1="0.5" y2="30"/><line opacity="0.2" x1="371.8650286297595" x2="371.8650286297595" y1="0.5" y2="30"/><line opacity="0.2" x1="523.7364559253091" x2="523.7364559253091" y1="0.5" y2="30"/><line opacity="0.2" x1="214.4867443639265" x2="214.4867443639265" y1="0.5" y2="30"/><line opacity="0.2" x1="206.6105956281677" x2="206.6105956281677" y1="0.5" y2="30"/><line opacity="0.2" x1="425.26976464825367" x2="425.26976464825367" y1="0.5" y2="30"/><line opacity="0.2" x1="418.5402755687571" x2="418.5402755687571" y1="0.5" y2="30"/><line opacity="0.2" x1="273.0349961840627" x2="273.0349961840627" y1="0.5" y2="30"/><line opacity="0.2" x1="348.00265543535255" x2="348.00265543535255" y1="0.5" y2="30"/><line opacity="0.2" x1="309.27303425201524" x2="309.27303425201524" y1="0.5" y2="30"/><line opacity="0.2" x1="125.72894661214087" x2="125.72894661214087" y1="0.5" y2="30"/><line opacity="0.2" x1="220.83159830859375" x2="220.83159830859375" y1="0.5" y2="30"/><line opacity="0.2" x1="243.12565551225183" x2="243.12565551225183" y1="0.5" y2="30"/><line opacity="0.2" x1="239.0161160219762" x2="239.0161160219762" y1="0.5" y2="30"/><line opacity="0.2" x1="426.3211486855929" x2="426.3211486855929" y1="0.5" y2="30"/><line opacity="0.2" x1="383.5776625161167" x2="383.5776625161167" y1="0.5" y2="30"/><line opacity="0.2" x1="290.20713786025794" x2="290.20713786025794" y1="0.5" y2="30"/><line opacity="0.2" x1="332.07482372616096" x2="332.07482372616096" y1="0.5" y2="30"/><line opacity="0.2" x1="196.79048549037756" x2="196.79048549037756" y1="0.5" y2="30"/><line opacity="0.2" x1="253.295953390767" x2="253.295953390767" y1="0.5" y2="30"/><line opacity="0.2" x1="487.37292540317753" x2="487.37292540317753" y1="0.5" y2="30"/><line opacity="0.2" x1="438.8011541210007" x2="438.8011541210007" y1="0.5" y2="30"/><line opacity="0.2" x1="203.99361976586894" x2="203.99361976586894" y1="0.5" y2="30"/><line opacity="0.2" x1="501.5326042588573" x2="501.5326042588573" y1="0.5" y2="30"/><line opacity="0.2" x1="244.85535027056102" x2="244.85535027056102" y1="0.5" y2="30"/><line opacity="0.2" x1="276.42672345573806" x2="276.42672345573806" y1="0.5" y2="30"/><line opacity="0.2" x1="448.9919880578102" x2="448.9919880578102" y1="0.5" y2="30"/><line opacity="0.2" x1="289.542439045058" x2="289.542439045058" y1="0.5" y2="30"/><line opacity="0.2" x1="503.5557906361988" x2="503.5557906361988" y1="0.5" y2="30"/><line opacity="0.2" x1="417.9280522014459" x2="417.9280522014459" y1="0.5" y2="30"/><line opacity="0.2" x1="318.94019442947007" x2="318.94019442947007" y1="0.5" y2="30"/><line opacity="0.2" x1="266.7683946426984" x2="266.7683946426984" y1="0.5" y2="30"/><line opacity="0.2" x1="335.9540978314277" x2="335.9540978314277" y1="0.5" y2="30"/><line opacity="0.2" x1="397.3846122806469" x2="397.3846122806469" y1="0.5" y2="30"/><line opacity="0.2" x1="482.7436336203964" x2="482.7436336203964" y1="0.5" y2="30"/><line opacity="0.2" x1="285.51759063744663" x2="285.51759063744663" y1="0.5" y2="30"/><line opacity="0.2" x1="398.0854625867076" x2="398.0854625867076" y1="0.5" y2="30"/><line opacity="0.2" x1="368.5013200318127" x2="368.5013200318127" y1="0.5" y2="30"/><line opacity="0.2" x1="341.5827826674491" x2="341.5827826674491" y1="0.5" y2="30"/><line opacity="0.2" x1="323.21065992017986" x2="323.21065992017986" y1="0.5" y2="30"/><line opacity="0.2" x1="248.43944504498802" x2="248.43944504498802" y1="0.5" y2="30"/><line opacity="0.2" x1="299.8612188259153" x2="299.8612188259153" y1="0.5" y2="30"/><line opacity="0.2" x1="470.17961289546275" x2="470.17961289546275" y1="0.5" y2="30"/><line opacity="0.2" x1="478.2498223224049" x2="478.2498223224049" y1="0.5" y2="30"/><line opacity="0.2" x1="284.9250599543683" x2="284.9250599543683" y1="0.5" y2="30"/><line opacity="0.2" x1="412.8150934317291" x2="412.8150934317291" y1="0.5" y2="30"/><line opacity="0.2" x1="339.5343733442169" x2="339.5343733442169" y1="0.5" y2="30"/><line opacity="0.2" x1="469.0208898153584" x2="469.0208898153584" y1="0.5" y2="30"/><line opacity="0.2" x1="324.58968253711515" x2="324.58968253711515" y1="0.5" y2="30"/><line opacity="0.2" x1="338.55317596536037" x2="338.55317596536037" y1="0.5" y2="30"/><line opacity="0.2" x1="498.0610919372482" x2="498.0610919372482" y1="0.5" y2="30"/><line opacity="0.2" x1="253.74419191627618" x2="253.74419191627618" y1="0.5" y2="30"/><line opacity="0.2" x1="390.97778639890186" x2="390.97778639890186" y1="0.5" y2="30"/><line opacity="0.2" x1="280.8632844137082" x2="280.8632844137082" y1="0.5" y2="30"/><line opacity="0.2" x1="265.02991395796096" x2="265.02991395796096" y1="0.5" y2="30"/><line opacity="0.2" x1="428.85057008968283" x2="428.85057008968283" y1="0.5" y2="30"/><line opacity="0.2" x1="328.71528645817716" x2="328.71528645817716" y1="0.5" y2="30"/><line opacity="0.2" x1="287.4033631767828" x2="287.4033631767828" y1="0.5" y2="30"/><line opacity="0.2" x1="353.8025961974375" x2="353.8025961974375" y1="0.5" y2="30"/><line opacity="0.2" x1="211.3680817084721" x2="211.3680817084721" y1="0.5" y2="30"/><line opacity="0.2" x1="446.9299814466318" x2="446.9299814466318" y1="0.5" y2="30"/><line opacity="0.2" x1="356.732968859409" x2="356.732968859409" y1="0.5" y2="30"/><line opacity="0.2" x1="350.47407913081076" x2="350.47407913081076" y1="0.5" y2="30"/><line opacity="0.2" x1="437.8520161953831" x2="437.8520161953831" y1="0.5" y2="30"/><line opacity="0.2" x1="402.5437439111939" x2="402.5437439111939" y1="0.5" y2="30"/><line opacity="0.2" x1="264.60723251900225" x2="264.60723251900225" y1="0.5" y2="30"/><line opacity="0.2" x1="297.18216979796546" x2="297.18216979796546" y1="0.5" y2="30"/><line opacity="0.2" x1="331.8952448562741" x2="331.8952448562741" y1="0.5" y2="30"/><line opacity="0.2" x1="334.4176583097442" x2="334.4176583097442" y1="0.5" y2="30"/><line opacity="0.2" x1="245.55111857367908" x2="245.55111857367908" y1="0.5" y2="30"/><line opacity="0.2" x1="331.19060641299666" x2="331.19060641299666" y1="0.5" y2="30"/><line opacity="0.2" x1="538.3193350641319" x2="538.3193350641319" y1="0.5" y2="30"/><line opacity="0.2" x1="462.03987073127473" x2="462.03987073127473" y1="0.5" y2="30"/><line opacity="0.2" x1="376.1411981259424" x2="376.1411981259424" y1="0.5" y2="30"/><line opacity="0.2" x1="429.90982948129823" x2="429.90982948129823" y1="0.5" y2="30"/><line opacity="0.2" x1="225.36126178162533" x2="225.36126178162533" y1="0.5" y2="30"/><line opacity="0.2" x1="430.9823833446961" x2="430.9823833446961" y1="0.5" y2="30"/><line opacity="0.2" x1="444.8776614475136" x2="444.8776614475136" y1="0.5" y2="30"/><line opacity="0.2" x1="439.07726235205365" x2="439.07726235205365" y1="0.5" y2="30"/><line opacity="0.2" x1="373.06787093852773" x2="373.06787093852773" y1="0.5" y2="30"/><line opacity="0.2" x1="367.89035574764694" x2="367.89035574764694" y1="0.5" y2="30"/><line opacity="0.2" x1="303.6823982596503" x2="303.6823982596503" y1="0.5" y2="30"/><line opacity="0.2" x1="415.1684718231326" x2="415.1684718231326" y1="0.5" y2="30"/><line opacity="0.2" x1="425.82223122842555" x2="425.82223122842555" y1="0.5" y2="30"/><line opacity="0.2" x1="310.87257352022493" x2="310.87257352022493" y1="0.5" y2="30"/><line opacity="0.2" x1="385.77740365539256" x2="385.77740365539256" y1="0.5" y2="30"/><line opacity="0.2" x1="447.51512553627214" x2="447.51512553627214" y1="0.5" y2="30"/><line opacity="0.2" x1="254.38362906552135" x2="254.38362906552135" y1="0.5" y2="30"/><line opacity="0.2" x1="320.05103884175867" x2="320.05103884175867" y1="0.5" y2="30"/><line opacity="0.2" x1="311.02730139770176" x2="311.02730139770176" y1="0.5" y2="30"/><line opacity="0.2" x1="204.63121823586656" x2="204.63121823586656" y1="0.5" y2="30"/><line opacity="0.2" x1="249.43787775760717" x2="249.43787775760717" y1="0.5" y2="30"/><line opacity="0.2" x1="397.37831677691054" x2="397.37831677691054" y1="0.5" y2="30"/><line opacity="0.2" x1="318.66302053346465" x2="318.66302053346465" y1="0.5" y2="30"/><line opacity="0.2" x1="413.20095297211674" x2="413.20095297211674" y1="0.5" y2="30"/><line opacity="0.2" x1="242.9908553947745" x2="242.9908553947745" y1="0.5" y2="30"/><line opacity="0.2" x1="407.59420708557803" x2="407.59420708557803" y1="0.5" y2="30"/><line opacity="0.2" x1="348.04710781425433" x2="348.04710781425433" y1="0.5" y2="30"/><line opacity="0.2" x1="411.32929415902083" x2="411.32929415902083" y1="0.5" y2="30"/><line opacity="0.2" x1="402.7625445714574" x2="402.7625445714574" y1="0.5" y2="30"/><line opacity="0.2" x1="383.32760261964256" x2="383.32760261964256" y1="0.5" y2="30"/><line opacity="0.2" x1="331.7090810044664" x2="331.7090810044664" y1="0.5" y2="30"/><line opacity="0.2" x1="417.4112776882798" x2="417.4112776882798" y1="0.5" y2="30"/><line opacity="0.2" x1="516.323862811747" x2="516.323862811747" y1="0.5" y2="30"/><line opacity="0.2" x1="505.26909906887084" x2="505.26909906887084" y1="0.5" y2="30"/><line opacity="0.2" x1="223.09286554458097" x2="223.09286554458097" y1="0.5" y2="30"/><line opacity="0.2" x1="423.7302727838547" x2="423.7302727838547" y1="0.5" y2="30"/><line opacity="0.2" x1="223.4399649925405" x2="223.4399649925405" y1="0.5" y2="30"/><line opacity="0.2" x1="403.8886226154726" x2="403.8886226154726" y1="0.5" y2="30"/><line opacity="0.2" x1="306.5061745786331" x2="306.5061745786331" y1="0.5" y2="30"/><line opacity="0.2" x1="204.01857913759633" x2="204.01857913759633" y1="0.5" y2="30"/><line opacity="0.2" x1="291.90852677047894" x2="291.90852677047894" y1="0.5" y2="30"/><line opacity="0.2" x1="359.6227080284933" x2="359.6227080284933" y1="0.5" y2="30"/><line opacity="0.2" x1="376.9638278813706" x2="376.9638278813706" y1="0.5" y2="30"/><line opacity="0.2" x1="397.62995159741394" x2="397.62995159741394" y1="0.5" y2="30"/><line opacity="0.2" x1="122.29092427787181" x2="122.29092427787181" y1="0.5" y2="30"/><line opacity="0.2" x1="269.8475410803875" x2="269.8475410803875" y1="0.5" y2="30"/><line opacity="0.2" x1="409.8577433304527" x2="409.8577433304527" y1="0.5" y2="30"/><line opacity="0.2" x1="379.27326393933504" x2="379.27326393933504" y1="0.5" y2="30"/><line opacity="0.2" x1="181.92987098078248" x2="181.92987098078248" y1="0.5" y2="30"/><line opacity="0.2" x1="332.1214025763012" x2="332.1214025763012" y1="0.5" y2="30"/><line opacity="0.2" x1="379.7515150242036" x2="379.7515150242036" y1="0.5" y2="30"/><line opacity="0.2" x1="197.47283981683756" x2="197.47283981683756" y1="0.5" y2="30"/><line opacity="0.2" x1="238.78261208438084" x2="238.78261208438084" y1="0.5" y2="30"/><line opacity="0.2" x1="373.2148411142357" x2="373.2148411142357" y1="0.5" y2="30"/><line opacity="0.2" x1="428.65706698622324" x2="428.65706698622324" y1="0.5" y2="30"/><line opacity="0.2" x1="513.7547683685636" x2="513.7547683685636" y1="0.5" y2="30"/><line opacity="0.2" x1="300.7078286777969" x2="300.7078286777969" y1="0.5" y2="30"/><line opacity="0.2" x1="132.14178536821962" x2="132.14178536821962" y1="0.5" y2="30"/><line opacity="0.2" x1="297.34414239390793" x2="297.34414239390793" y1="0.5" y2="30"/><line opacity="0.2" x1="414.27975288072406" x2="414.27975288072406" y1="0.5" y2="30"/><line opacity="0.2" x1="407.692850360933" x2="407.692850360933" y1="0.5" y2="30"/><line opacity="0.2" x1="484.34722728443217" x2="484.34722728443217" y1="0.5" y2="30"/><line opacity="0.2" x1="366.8885509577777" x2="366.8885509577777" y1="0.5" y2="30"/><line opacity="0.2" x1="217.8139022371215" x2="217.8139022371215" y1="0.5" y2="30"/><line opacity="0.2" x1="247.43397429032905" x2="247.43397429032905" y1="0.5" y2="30"/><line opacity="0.2" x1="216.578418493105" x2="216.578418493105" y1="0.5" y2="30"/><line opacity="0.2" x1="488.0709195269787" x2="488.0709195269787" y1="0.5" y2="30"/><line opacity="0.2" x1="349.5155509771165" x2="349.5155509771165" y1="0.5" y2="30"/><line opacity="0.2" x1="395.9365173288925" x2="395.9365173288925" y1="0.5" y2="30"/><line opacity="0.2" x1="461.75572468637705" x2="461.75572468637705" y1="0.5" y2="30"/><line opacity="0.2" x1="497.7025765602719" x2="497.7025765602719" y1="0.5" y2="30"/><line opacity="0.2" x1="371.89200369991715" x2="371.89200369991715" y1="0.5" y2="30"/><line opacity="0.2" x1="250.2553446524351" x2="250.2553446524351" y1="0.5" y2="30"/><line opacity="0.2" x1="380.77743387253975" x2="380.77743387253975" y1="0.5" y2="30"/><line opacity="0.2" x1="331.3159569152121" x2="331.3159569152121" y1="0.5" y2="30"/><line opacity="0.2" x1="293.6775642372283" x2="293.6775642372283" y1="0.5" y2="30"/><line opacity="0.2" x1="287.21870643247195" x2="287.21870643247195" y1="0.5" y2="30"/><line opacity="0.2" x1="274.6971760809563" x2="274.6971760809563" y1="0.5" y2="30"/><line opacity="0.2" x1="441.6614735935314" x2="441.6614735935314" y1="0.5" y2="30"/><line opacity="0.2" x1="228.17257144061134" x2="228.17257144061134" y1="0.5" y2="30"/><line opacity="0.2" x1="491.00896737842726" x2="491.00896737842726" y1="0.5" y2="30"/><line opacity="0.2" x1="476.53849173960907" x2="476.53849173960907" y1="0.5" y2="30"/><line opacity="0.2" x1="327.40851109590227" x2="327.40851109590227" y1="0.5" y2="30"/><line opacity="0.2" x1="194.64710796016584" x2="194.64710796016584" y1="0.5" y2="30"/><line opacity="0.2" x1="387.4987277967577" x2="387.4987277967577" y1="0.5" y2="30"/><line opacity="0.2" x1="443.1151849731478" x2="443.1151849731478" y1="0.5" y2="30"/><line opacity="0.2" x1="274.90228092071817" x2="274.90228092071817" y1="0.5" y2="30"/><line opacity="0.2" x1="532.7969513902889" x2="532.7969513902889" y1="0.5" y2="30"/><line opacity="0.2" x1="336.3818867800132" x2="336.3818867800132" y1="0.5" y2="30"/><line opacity="0.2" x1="422.4173199379034" x2="422.4173199379034" y1="0.5" y2="30"/><line opacity="0.2" x1="274.2587372213307" x2="274.2587372213307" y1="0.5" y2="30"/><line opacity="0.2" x1="293.45037946735897" x2="293.45037946735897" y1="0.5" y2="30"/><line opacity="0.2" x1="295.88584236141395" x2="295.88584236141395" y1="0.5" y2="30"/><line opacity="0.2" x1="206.6801701914282" x2="206.6801701914282" y1="0.5" y2="30"/><line opacity="0.2" x1="104.10679115222449" x2="104.10679115222449" y1="0.5" y2="30"/><line opacity="0.2" x1="481.99870794068556" x2="481.99870794068556" y1="0.5" y2="30"/><line opacity="0.2" x1="298.39759814008625" x2="298.39759814008625" y1="0.5" y2="30"/><line opacity="0.2" x1="333.81845652146836" x2="333.81845652146836" y1="0.5" y2="30"/><line opacity="0.2" x1="333.1878354872037" x2="333.1878354872037" y1="0.5" y2="30"/><line opacity="0.2" x1="342.7404580046501" x2="342.7404580046501" y1="0.5" y2="30"/><line opacity="0.2" x1="216.2846406807654" x2="216.2846406807654" y1="0.5" y2="30"/><line opacity="0.2" x1="450.285409343067" x2="450.285409343067" y1="0.5" y2="30"/><line opacity="0.2" x1="440.3032393692467" x2="440.3032393692467" y1="0.5" y2="30"/><line opacity="0.2" x1="345.0684347879223" x2="345.0684347879223" y1="0.5" y2="30"/><line opacity="0.2" x1="535.8150176850587" x2="535.8150176850587" y1="0.5" y2="30"/><line opacity="0.2" x1="212.56183533649101" x2="212.56183533649101" y1="0.5" y2="30"/><line opacity="0.2" x1="465.5885185308054" x2="465.5885185308054" y1="0.5" y2="30"/><line opacity="0.2" x1="341.6753935595938" x2="341.6753935595938" y1="0.5" y2="30"/><line opacity="0.2" x1="296.76540206291656" x2="296.76540206291656" y1="0.5" y2="30"/><line opacity="0.2" x1="433.0186568134645" x2="433.0186568134645" y1="0.5" y2="30"/><line opacity="0.2" x1="349.62897377763534" x2="349.62897377763534" y1="0.5" y2="30"/><line opacity="0.2" x1="423.5885205118338" x2="423.5885205118338" y1="0.5" y2="30"/><line opacity="0.2" x1="160.00120428517099" x2="160.00120428517099" y1="0.5" y2="30"/><line opacity="0.2" x1="268.6421635428533" x2="268.6421635428533" y1="0.5" y2="30"/><line opacity="0.2" x1="372.2542362974564" x2="372.2542362974564" y1="0.5" y2="30"/><line opacity="0.2" x1="453.11257400839395" x2="453.11257400839395" y1="0.5" y2="30"/><line opacity="0.2" x1="515.3301019470991" x2="515.3301019470991" y1="0.5" y2="30"/><line opacity="0.2" x1="524.6961038133273" x2="524.6961038133273" y1="0.5" y2="30"/><line opacity="0.2" x1="508.0530041380009" x2="508.0530041380009" y1="0.5" y2="30"/><line opacity="0.2" x1="413.8254210722005" x2="413.8254210722005" y1="0.5" y2="30"/><line opacity="0.2" x1="307.36101223244526" x2="307.36101223244526" y1="0.5" y2="30"/><line opacity="0.2" x1="132.02135351409098" x2="132.02135351409098" y1="0.5" y2="30"/><line opacity="0.2" x1="347.38902517910685" x2="347.38902517910685" y1="0.5" y2="30"/><line opacity="0.2" x1="439.2321539057459" x2="439.2321539057459" y1="0.5" y2="30"/><line opacity="0.2" x1="296.293961062219" x2="296.293961062219" y1="0.5" y2="30"/><line opacity="0.2" x1="488.06191421065375" x2="488.06191421065375" y1="0.5" y2="30"/><line opacity="0.2" x1="269.9882700485406" x2="269.9882700485406" y1="0.5" y2="30"/><line opacity="0.2" x1="307.67667626997974" x2="307.67667626997974" y1="0.5" y2="30"/><line opacity="0.2" x1="367.44452642254817" x2="367.44452642254817" y1="0.5" y2="30"/><line opacity="0.2" x1="283.1278348975417" x2="283.1278348975417" y1="0.5" y2="30"/><line opacity="0.2" x1="346.95372193712564" x2="346.95372193712564" y1="0.5" y2="30"/><line opacity="0.2" x1="347.564458921017" x2="347.564458921017" y1="0.5" y2="30"/><line opacity="0.2" x1="507.5357322236676" x2="507.5357322236676" y1="0.5" y2="30"/><line opacity="0.2" x1="506.21418824546464" x2="506.21418824546464" y1="0.5" y2="30"/><line opacity="0.2" x1="324.0403263503394" x2="324.0403263503394" y1="0.5" y2="30"/><line opacity="0.2" x1="532.4704243528399" x2="532.4704243528399" y1="0.5" y2="30"/><line opacity="0.2" x1="128.39500101708433" x2="128.39500101708433" y1="0.5" y2="30"/><line opacity="0.2" x1="272.10240808493813" x2="272.10240808493813" y1="0.5" y2="30"/><line opacity="0.2" x1="313.661915522951" x2="313.661915522951" y1="0.5" y2="30"/><line opacity="0.2" x1="435.745107939504" x2="435.745107939504" y1="0.5" y2="30"/><line opacity="0.2" x1="517.8043934267424" x2="517.8043934267424" y1="0.5" y2="30"/><line opacity="0.2" x1="226.89672677685675" x2="226.89672677685675" y1="0.5" y2="30"/><line opacity="0.2" x1="384.6404022235143" x2="384.6404022235143" y1="0.5" y2="30"/><line opacity="0.2" x1="330.4105018621665" x2="330.4105018621665" y1="0.5" y2="30"/><line opacity="0.2" x1="377.0593063588751" x2="377.0593063588751" y1="0.5" y2="30"/><line opacity="0.2" x1="447.57195976413993" x2="447.57195976413993" y1="0.5" y2="30"/><line opacity="0.2" x1="450.4827061637623" x2="450.4827061637623" y1="0.5" y2="30"/><line opacity="0.2" x1="473.904691349932" x2="473.904691349932" y1="0.5" y2="30"/><line opacity="0.2" x1="245.8409000500315" x2="245.8409000500315" y1="0.5" y2="30"/><line opacity="0.2" x1="313.87265642676624" x2="313.87265642676624" y1="0.5" y2="30"/><line opacity="0.2" x1="220.12944152367794" x2="220.12944152367794" y1="0.5" y2="30"/><line opacity="0.2" x1="413.023920956166" x2="413.023920956166" y1="0.5" y2="30"/><line opacity="0.2" x1="350.79773185575976" x2="350.79773185575976" y1="0.5" y2="30"/><line opacity="0.2" x1="366.05751195024203" x2="366.05751195024203" y1="0.5" y2="30"/><line opacity="0.2" x1="201.25733640660263" x2="201.25733640660263" y1="0.5" y2="30"/><line opacity="0.2" x1="185.49603077327956" x2="185.49603077327956" y1="0.5" y2="30"/><line opacity="0.2" x1="412.58609808782893" x2="412.58609808782893" y1="0.5" y2="30"/><line opacity="0.2" x1="329.1264374647061" x2="329.1264374647061" y1="0.5" y2="30"/><line opacity="0.2" x1="183.4160154511633" x2="183.4160154511633" y1="0.5" y2="30"/><line opacity="0.2" x1="406.3822453457649" x2="406.3822453457649" y1="0.5" y2="30"/><line opacity="0.2" x1="321.54999672559745" x2="321.54999672559745" y1="0.5" y2="30"/><line opacity="0.2" x1="472.24014486320334" x2="472.24014486320334" y1="0.5" y2="30"/><line opacity="0.2" x1="124.74873725252195" x2="124.74873725252195" y1="0.5" y2="30"/><line opacity="0.2" x1="314.40656154514147" x2="314.40656154514147" y1="0.5" y2="30"/><line opacity="0.2" x1="609.3161747430607" x2="609.3161747430607" y1="0.5" y2="30"/><line opacity="0.2" x1="475.7009452747665" x2="475.7009452747665" y1="0.5" y2="30"/><line opacity="0.2" x1="402.0572891667249" x2="402.0572891667249" y1="0.5" y2="30"/><line opacity="0.2" x1="367.0769146975979" x2="367.0769146975979" y1="0.5" y2="30"/><line opacity="0.2" x1="386.56541687439267" x2="386.56541687439267" y1="0.5" y2="30"/><line opacity="0.2" x1="408.8598367027369" x2="408.8598367027369" y1="0.5" y2="30"/><line opacity="0.2" x1="283.14633792755376" x2="283.14633792755376" y1="0.5" y2="30"/><line opacity="0.2" x1="468.2937490718636" x2="468.2937490718636" y1="0.5" y2="30"/><line opacity="0.2" x1="389.59409962692285" x2="389.59409962692285" y1="0.5" y2="30"/><line opacity="0.2" x1="218.94463394727958" x2="218.94463394727958" y1="0.5" y2="30"/><line opacity="0.2" x1="329.17688605049517" x2="329.17688605049517" y1="0.5" y2="30"/><line opacity="0.2" x1="537.6110045700743" x2="537.6110045700743" y1="0.5" y2="30"/><line opacity="0.2" x1="338.2538250335383" x2="338.2538250335383" y1="0.5" y2="30"/><line opacity="0.2" x1="317.40447429652784" x2="317.40447429652784" y1="0.5" y2="30"/><line opacity="0.2" x1="47.37100656726223" x2="47.37100656726223" y1="0.5" y2="30"/><line opacity="0.2" x1="517.7846484694326" x2="517.7846484694326" y1="0.5" y2="30"/><line opacity="0.2" x1="488.936918765418" x2="488.936918765418" y1="0.5" y2="30"/><line opacity="0.2" x1="362.8478166361932" x2="362.8478166361932" y1="0.5" y2="30"/><line opacity="0.2" x1="318.46479940562176" x2="318.46479940562176" y1="0.5" y2="30"/><line opacity="0.2" x1="535.5424135814923" x2="535.5424135814923" y1="0.5" y2="30"/><line opacity="0.2" x1="120.1738626088692" x2="120.1738626088692" y1="0.5" y2="30"/><line opacity="0.2" x1="219.73515667151935" x2="219.73515667151935" y1="0.5" y2="30"/><line opacity="0.2" x1="260.3660412648684" x2="260.3660412648684" y1="0.5" y2="30"/><line opacity="0.2" x1="373.29951088338726" x2="373.29951088338726" y1="0.5" y2="30"/><line opacity="0.2" x1="327.5527962864862" x2="327.5527962864862" y1="0.5" y2="30"/><line opacity="0.2" x1="416.779670345354" x2="416.779670345354" y1="0.5" y2="30"/><line opacity="0.2" x1="383.4029088691841" x2="383.4029088691841" y1="0.5" y2="30"/><line opacity="0.2" x1="313.19116305746246" x2="313.19116305746246" y1="0.5" y2="30"/><line opacity="0.2" x1="460.3221215686803" x2="460.3221215686803" y1="0.5" y2="30"/><line opacity="0.2" x1="388.70215231654026" x2="388.70215231654026" y1="0.5" y2="30"/><line opacity="0.2" x1="376.8251454507169" x2="376.8251454507169" y1="0.5" y2="30"/><line opacity="0.2" x1="385.03552030626616" x2="385.03552030626616" y1="0.5" y2="30"/><line opacity="0.2" x1="326.3435782887196" x2="326.3435782887196" y1="0.5" y2="30"/><line opacity="0.2" x1="109.79238493407975" x2="109.79238493407975" y1="0.5" y2="30"/><line opacity="0.2" x1="410.6406756771378" x2="410.6406756771378" y1="0.5" y2="30"/><line opacity="0.2" x1="240.44519078554535" x2="240.44519078554535" y1="0.5" y2="30"/><line opacity="0.2" x1="359.38562148378224" x2="359.38562148378224" y1="0.5" y2="30"/><line opacity="0.2" x1="511.7876426334144" x2="511.7876426334144" y1="0.5" y2="30"/><line opacity="0.2" x1="368.4384291137477" x2="368.4384291137477" y1="0.5" y2="30"/><line opacity="0.2" x1="388.0664367156634" x2="388.0664367156634" y1="0.5" y2="30"/><line opacity="0.2" x1="216.40421342422096" x2="216.40421342422096" y1="0.5" y2="30"/><line opacity="0.2" x1="307.62494000722484" x2="307.62494000722484" y1="0.5" y2="30"/><line opacity="0.2" x1="471.0012688732625" x2="471.0012688732625" y1="0.5" y2="30"/><line opacity="0.2" x1="160.1346862405304" x2="160.1346862405304" y1="0.5" y2="30"/><line opacity="0.2" x1="194.24023897724499" x2="194.24023897724499" y1="0.5" y2="30"/><line opacity="0.2" x1="568.9630684336066" x2="568.9630684336066" y1="0.5" y2="30"/><line opacity="0.2" x1="353.4141702785711" x2="353.4141702785711" y1="0.5" y2="30"/><line opacity="0.2" x1="380.37174281120434" x2="380.37174281120434" y1="0.5" y2="30"/><line opacity="0.2" x1="237.35608609929045" x2="237.35608609929045" y1="0.5" y2="30"/><line opacity="0.2" x1="266.31602033258486" x2="266.31602033258486" y1="0.5" y2="30"/><line opacity="0.2" x1="487.57902304905457" x2="487.57902304905457" y1="0.5" y2="30"/><line opacity="0.2" x1="450.03677403278414" x2="450.03677403278414" y1="0.5" y2="30"/><line opacity="0.2" x1="422.0047530272257" x2="422.0047530272257" y1="0.5" y2="30"/><line opacity="0.2" x1="358.0933732591025" x2="358.0933732591025" y1="0.5" y2="30"/><line opacity="0.2" x1="314.001344899118" x2="314.001344899118" y1="0.5" y2="30"/><line opacity="0.2" x1="292.8825474069635" x2="292.8825474069635" y1="0.5" y2="30"/><line opacity="0.2" x1="390.8367413719923" x2="390.8367413719923" y1="0.5" y2="30"/><line opacity="0.2" x1="419.7126702271614" x2="419.7126702271614" y1="0.5" y2="30"/><line opacity="0.2" x1="423.87738532890955" x2="423.87738532890955" y1="0.5" y2="30"/><line opacity="0.2" x1="319.02384991884134" x2="319.02384991884134" y1="0.5" y2="30"/><line opacity="0.2" x1="481.11139201991085" x2="481.11139201991085" y1="0.5" y2="30"/><line opacity="0.2" x1="545.3239081807902" x2="545.3239081807902" y1="0.5" y2="30"/><line opacity="0.2" x1="422.2144989785036" x2="422.2144989785036" y1="0.5" y2="30"/><line opacity="0.2" x1="371.48389764308286" x2="371.48389764308286" y1="0.5" y2="30"/><line opacity="0.2" x1="351.7759326575532" x2="351.7759326575532" y1="0.5" y2="30"/><line opacity="0.2" x1="396.7004027843965" x2="396.7004027843965" y1="0.5" y2="30"/><line opacity="0.2" x1="383.9919862372936" x2="383.9919862372936" y1="0.5" y2="30"/><line opacity="0.2" x1="241.706530856774" x2="241.706530856774" y1="0.5" y2="30"/><line opacity="0.2" x1="417.3648384571661" x2="417.3648384571661" y1="0.5" y2="30"/><line opacity="0.2" x1="351.4832771905333" x2="351.4832771905333" y1="0.5" y2="30"/><line opacity="0.2" x1="227.050444411699" x2="227.050444411699" y1="0.5" y2="30"/><line opacity="0.2" x1="302.9399438415796" x2="302.9399438415796" y1="0.5" y2="30"/><line opacity="0.2" x1="274.3615058546026" x2="274.3615058546026" y1="0.5" y2="30"/><line opacity="0.2" x1="239.6304313750423" x2="239.6304313750423" y1="0.5" y2="30"/><line opacity="0.2" x1="270.04135387080333" x2="270.04135387080333" y1="0.5" y2="30"/><line opacity="0.2" x1="491.091319317783" x2="491.091319317783" y1="0.5" y2="30"/><line opacity="0.2" x1="340.17633558233575" x2="340.17633558233575" y1="0.5" y2="30"/><line opacity="0.2" x1="428.1317458713399" x2="428.1317458713399" y1="0.5" y2="30"/><line opacity="0.2" x1="337.74495320405606" x2="337.74495320405606" y1="0.5" y2="30"/><line opacity="0.2" x1="335.0214390548981" x2="335.0214390548981" y1="0.5" y2="30"/><line opacity="0.2" x1="326.0001180739149" x2="326.0001180739149" y1="0.5" y2="30"/><line opacity="0.2" x1="224.638595249683" x2="224.638595249683" y1="0.5" y2="30"/><line opacity="0.2" x1="249.28591860423523" x2="249.28591860423523" y1="0.5" y2="30"/><line opacity="0.2" x1="473.9648858672033" x2="473.9648858672033" y1="0.5" y2="30"/><line opacity="0.2" x1="293.9559400953728" x2="293.9559400953728" y1="0.5" y2="30"/><line opacity="0.2" x1="409.58863508190984" x2="409.58863508190984" y1="0.5" y2="30"/><line opacity="0.2" x1="347.3987820506601" x2="347.3987820506601" y1="0.5" y2="30"/><line opacity="0.2" x1="278.4561220880918" x2="278.4561220880918" y1="0.5" y2="30"/><line opacity="0.2" x1="312.0210026361421" x2="312.0210026361421" y1="0.5" y2="30"/><line opacity="0.2" x1="306.7405761935283" x2="306.7405761935283" y1="0.5" y2="30"/><line opacity="0.2" x1="493.5193534317133" x2="493.5193534317133" y1="0.5" y2="30"/><line opacity="0.2" x1="444.24648913832925" x2="444.24648913832925" y1="0.5" y2="30"/><line opacity="0.2" x1="511.9519973851825" x2="511.9519973851825" y1="0.5" y2="30"/><line opacity="0.2" x1="486.5137134246108" x2="486.5137134246108" y1="0.5" y2="30"/><line opacity="0.2" x1="313.08004917639977" x2="313.08004917639977" y1="0.5" y2="30"/><line opacity="0.2" x1="390.1562231405711" x2="390.1562231405711" y1="0.5" y2="30"/><line opacity="0.2" x1="210.98796875895957" x2="210.98796875895957" y1="0.5" y2="30"/><line opacity="0.2" x1="231.48876214132255" x2="231.48876214132255" y1="0.5" y2="30"/><line opacity="0.2" x1="464.11982356893066" x2="464.11982356893066" y1="0.5" y2="30"/><line opacity="0.2" x1="331.40477445790896" x2="331.40477445790896" y1="0.5" y2="30"/><line opacity="0.2" x1="241.1151854345633" x2="241.1151854345633" y1="0.5" y2="30"/><line opacity="0.2" x1="539.9641055059454" x2="539.9641055059454" y1="0.5" y2="30"/><line opacity="0.2" x1="311.9359625575519" x2="311.9359625575519" y1="0.5" y2="30"/><line opacity="0.2" x1="388.2465068575924" x2="388.2465068575924" y1="0.5" y2="30"/><line opacity="0.2" x1="403.8623189300537" x2="403.8623189300537" y1="0.5" y2="30"/><line opacity="0.2" x1="244.01714893733353" x2="244.01714893733353" y1="0.5" y2="30"/><line opacity="0.2" x1="598.0479498902148" x2="598.0479498902148" y1="0.5" y2="30"/><line opacity="0.2" x1="376.59111200454436" x2="376.59111200454436" y1="0.5" y2="30"/><line opacity="0.2" x1="212.23022359721313" x2="212.23022359721313" y1="0.5" y2="30"/><line opacity="0.2" x1="474.5980576339657" x2="474.5980576339657" y1="0.5" y2="30"/><line opacity="0.2" x1="233.9748228473147" x2="233.9748228473147" y1="0.5" y2="30"/><line opacity="0.2" x1="274.4782815976671" x2="274.4782815976671" y1="0.5" y2="30"/><line opacity="0.2" x1="274.6890168531588" x2="274.6890168531588" y1="0.5" y2="30"/><line opacity="0.2" x1="466.3837376946174" x2="466.3837376946174" y1="0.5" y2="30"/><line opacity="0.2" x1="328.59267416633327" x2="328.59267416633327" y1="0.5" y2="30"/><line opacity="0.2" x1="403.7902995383553" x2="403.7902995383553" y1="0.5" y2="30"/><line opacity="0.2" x1="397.0692464235563" x2="397.0692464235563" y1="0.5" y2="30"/><line opacity="0.2" x1="408.71496120786276" x2="408.71496120786276" y1="0.5" y2="30"/><line opacity="0.2" x1="319.69142875894715" x2="319.69142875894715" y1="0.5" y2="30"/><line opacity="0.2" x1="410.00152287693993" x2="410.00152287693993" y1="0.5" y2="30"/><line opacity="0.2" x1="279.29022121431086" x2="279.29022121431086" y1="0.5" y2="30"/><line opacity="0.2" x1="142.1958525278907" x2="142.1958525278907" y1="0.5" y2="30"/><line opacity="0.2" x1="261.46211229838184" x2="261.46211229838184" y1="0.5" y2="30"/><line opacity="0.2" x1="343.33582950751736" x2="343.33582950751736" y1="0.5" y2="30"/><line opacity="0.2" x1="513.0652135221612" x2="513.0652135221612" y1="0.5" y2="30"/><line opacity="0.2" x1="359.4238479018757" x2="359.4238479018757" y1="0.5" y2="30"/><line opacity="0.2" x1="224.13196834657123" x2="224.13196834657123" y1="0.5" y2="30"/><line opacity="0.2" x1="345.4414850496162" x2="345.4414850496162" y1="0.5" y2="30"/><line opacity="0.2" x1="172.3482918054024" x2="172.3482918054024" y1="0.5" y2="30"/><line opacity="0.2" x1="366.1754554156028" x2="366.1754554156028" y1="0.5" y2="30"/><line opacity="0.2" x1="494.25332348894204" x2="494.25332348894204" y1="0.5" y2="30"/><line opacity="0.2" x1="97.76717030571848" x2="97.76717030571848" y1="0.5" y2="30"/><line opacity="0.2" x1="303.7404397772607" x2="303.7404397772607" y1="0.5" y2="30"/><line opacity="0.2" x1="86.91100441702122" x2="86.91100441702122" y1="0.5" y2="30"/><line opacity="0.2" x1="331.3376100026181" x2="331.3376100026181" y1="0.5" y2="30"/><line opacity="0.2" x1="362.46085064082854" x2="362.46085064082854" y1="0.5" y2="30"/><line opacity="0.2" x1="456.0863036885193" x2="456.0863036885193" y1="0.5" y2="30"/><line opacity="0.2" x1="333.5365962532098" x2="333.5365962532098" y1="0.5" y2="30"/><line opacity="0.2" x1="481.66785410849985" x2="481.66785410849985" y1="0.5" y2="30"/><line opacity="0.2" x1="419.01726646563253" x2="419.01726646563253" y1="0.5" y2="30"/><line opacity="0.2" x1="374.3465355019609" x2="374.3465355019609" y1="0.5" y2="30"/><line opacity="0.2" x1="244.1887564383423" x2="244.1887564383423" y1="0.5" y2="30"/><line opacity="0.2" x1="285.4489930450536" x2="285.4489930450536" y1="0.5" y2="30"/><line opacity="0.2" x1="471.91471805825046" x2="471.91471805825046" y1="0.5" y2="30"/><line opacity="0.2" x1="429.65075003733335" x2="429.65075003733335" y1="0.5" y2="30"/><line opacity="0.2" x1="463.48743879747684" x2="463.48743879747684" y1="0.5" y2="30"/><line opacity="0.2" x1="451.033554450518" x2="451.033554450518" y1="0.5" y2="30"/><line opacity="0.2" x1="359.2396362712151" x2="359.2396362712151" y1="0.5" y2="30"/><line opacity="0.2" x1="332.19178132988185" x2="332.19178132988185" y1="0.5" y2="30"/><line opacity="0.2" x1="255.26119703616763" x2="255.26119703616763" y1="0.5" y2="30"/><line opacity="0.2" x1="431.1814328776489" x2="431.1814328776489" y1="0.5" y2="30"/><line opacity="0.2" x1="403.7065812516669" x2="403.7065812516669" y1="0.5" y2="30"/><line opacity="0.2" x1="433.33820376532054" x2="433.33820376532054" y1="0.5" y2="30"/><line opacity="0.2" x1="300.9172013028085" x2="300.9172013028085" y1="0.5" y2="30"/><line opacity="0.2" x1="469.9641971056811" x2="469.9641971056811" y1="0.5" y2="30"/><line opacity="0.2" x1="20" x2="20" y1="0.5" y2="30"/><line opacity="0.2" x1="256.0715244632812" x2="256.0715244632812" y1="0.5" y2="30"/><line opacity="0.2" x1="293.463314601243" x2="293.463314601243" y1="0.5" y2="30"/><line opacity="0.2" x1="208.6841215326829" x2="208.6841215326829" y1="0.5" y2="30"/><line opacity="0.2" x1="385.5694780727435" x2="385.5694780727435" y1="0.5" y2="30"/><line opacity="0.2" x1="318.52147019358773" x2="318.52147019358773" y1="0.5" y2="30"/><line opacity="0.2" x1="437.155750943937" x2="437.155750943937" y1="0.5" y2="30"/><line opacity="0.2" x1="283.26658262640456" x2="283.26658262640456" y1="0.5" y2="30"/><line opacity="0.2" x1="332.102470047402" x2="332.102470047402" y1="0.5" y2="30"/><line opacity="0.2" x1="226.6565705326432" x2="226.6565705326432" y1="0.5" y2="30"/><line opacity="0.2" x1="344.4953526903209" x2="344.4953526903209" y1="0.5" y2="30"/><line opacity="0.2" x1="296.57999545997313" x2="296.57999545997313" y1="0.5" y2="30"/><line opacity="0.2" x1="528.8097465965176" x2="528.8097465965176" y1="0.5" y2="30"/><line opacity="0.2" x1="334.43917908120943" x2="334.43917908120943" y1="0.5" y2="30"/><line opacity="0.2" x1="301.87801838446285" x2="301.87801838446285" y1="0.5" y2="30"/><line opacity="0.2" x1="323.7350579116204" x2="323.7350579116204" y1="0.5" y2="30"/><line opacity="0.2" x1="244.1505881463528" x2="244.1505881463528" y1="0.5" y2="30"/><line opacity="0.2" x1="283.5589132300574" x2="283.5589132300574" y1="0.5" y2="30"/><line opacity="0.2" x1="403.1712703930969" x2="403.1712703930969" y1="0.5" y2="30"/><line opacity="0.2" x1="263.14778912726496" x2="263.14778912726496" y1="0.5" y2="30"/><line opacity="0.2" x1="310.8140892028205" x2="310.8140892028205" y1="0.5" y2="30"/><line opacity="0.2" x1="412.08835120480376" x2="412.08835120480376" y1="0.5" y2="30"/><line opacity="0.2" x1="424.2792533263324" x2="424.2792533263324" y1="0.5" y2="30"/><line opacity="0.2" x1="435.18841685801874" x2="435.18841685801874" y1="0.5" y2="30"/><line opacity="0.2" x1="484.06274488982524" x2="484.06274488982524" y1="0.5" y2="30"/><line opacity="0.2" x1="291.2885161951782" x2="291.2885161951782" y1="0.5" y2="30"/><line opacity="0.2" x1="492.9718229877075" x2="492.9718229877075" y1="0.5" y2="30"/><line opacity="0.2" x1="260.5937329026612" x2="260.5937329026612" y1="0.5" y2="30"/><line opacity="0.2" x1="256.05289278702685" x2="256.05289278702685" y1="0.5" y2="30"/><line opacity="0.2" x1="275.0588805821651" x2="275.0588805821651" y1="0.5" y2="30"/><line opacity="0.2" x1="444.86907783392564" x2="444.86907783392564" y1="0.5" y2="30"/><line opacity="0.2" x1="375.2747803977962" x2="375.2747803977962" y1="0.5" y2="30"/><line opacity="0.2" x1="285.3944149415431" x2="285.3944149415431" y1="0.5" y2="30"/><line opacity="0.2" x1="366.3077206159451" x2="366.3077206159451" y1="0.5" y2="30"/><line opacity="0.2" x1="284.506586006177" x2="284.506586006177" y1="0.5" y2="30"/><line opacity="0.2" x1="513.9159528989611" x2="513.9159528989611" y1="0.5" y2="30"/><line opacity="0.2" x1="467.0076190841313" x2="467.0076190841313" y1="0.5" y2="30"/><line opacity="0.2" x1="347.2124435864922" x2="347.2124435864922" y1="0.5" y2="30"/><line opacity="0.2" x1="365.85782271471436" x2="365.85782271471436" y1="0.5" y2="30"/><line opacity="0.2" x1="228.30271352453306" x2="228.30271352453306" y1="0.5" y2="30"/><line opacity="0.2" x1="487.4071689671489" x2="487.4071689671489" y1="0.5" y2="30"/><line opacity="0.2" x1="589.547860334151" x2="589.547860334151" y1="0.5" y2="30"/><line opacity="0.2" x1="484.52836703650263" x2="484.52836703650263" y1="0.5" y2="30"/><line opacity="0.2" x1="457.61737631345983" x2="457.61737631345983" y1="0.5" y2="30"/><line opacity="0.2" x1="330.16094719513256" x2="330.16094719513256" y1="0.5" y2="30"/><line opacity="0.2" x1="398.96801364427654" x2="398.96801364427654" y1="0.5" y2="30"/><line opacity="0.2" x1="386.0397239414616" x2="386.0397239414616" y1="0.5" y2="30"/><line opacity="0.2" x1="545.5267897348249" x2="545.5267897348249" y1="0.5" y2="30"/><line opacity="0.2" x1="303.42735990151374" x2="303.42735990151374" y1="0.5" y2="30"/><line opacity="0.2" x1="320.2000092868489" x2="320.2000092868489" y1="0.5" y2="30"/><line opacity="0.2" x1="239.79464107476994" x2="239.79464107476994" y1="0.5" y2="30"/><line opacity="0.2" x1="296.7230558672359" x2="296.7230558672359" y1="0.5" y2="30"/><line opacity="0.2" x1="374.9458783628321" x2="374.9458783628321" y1="0.5" y2="30"/><line opacity="0.2" x1="311.9202063723335" x2="311.9202063723335" y1="0.5" y2="30"/><line opacity="0.2" x1="455.81107288179203" x2="455.81107288179203" y1="0.5" y2="30"/><line opacity="0.2" x1="218.0524361541222" x2="218.0524361541222" y1="0.5" y2="30"/><line opacity="0.2" x1="355.4463549308186" x2="355.4463549308186" y1="0.5" y2="30"/><line opacity="0.2" x1="337.5794148644862" x2="337.5794148644862" y1="0.5" y2="30"/><line opacity="0.2" x1="383.37825715069596" x2="383.37825715069596" y1="0.5" y2="30"/><line opacity="0.2" x1="335.870793182228" x2="335.870793182228" y1="0.5" y2="30"/><line opacity="0.2" x1="266.5074739954525" x2="266.5074739954525" y1="0.5" y2="30"/><line opacity="0.2" x1="215.46832383632827" x2="215.46832383632827" y1="0.5" y2="30"/><line opacity="0.2" x1="395.27188205243584" x2="395.27188205243584" y1="0.5" y2="30"/><line opacity="0.2" x1="365.9351856478485" x2="365.9351856478485" y1="0.5" y2="30"/><line opacity="0.2" x1="88.87624894827128" x2="88.87624894827128" y1="0.5" y2="30"/><line opacity="0.2" x1="216.04281335756977" x2="216.04281335756977" y1="0.5" y2="30"/><line opacity="0.2" x1="254.38807202012194" x2="254.38807202012194" y1="0.5" y2="30"/><line opacity="0.2" x1="267.7518143725506" x2="267.7518143725506" y1="0.5" y2="30"/><line opacity="0.2" x1="328.371157161107" x2="328.371157161107" y1="0.5" y2="30"/><line opacity="0.2" x1="451.18339823565327" x2="451.18339823565327" y1="0.5" y2="30"/><line opacity="0.2" x1="198.61434189567382" x2="198.61434189567382" y1="0.5" y2="30"/><line opacity="0.2" x1="202.83248040307947" x2="202.83248040307947" y1="0.5" y2="30"/><line opacity="0.2" x1="332.4790083083753" x2="332.4790083083753" y1="0.5" y2="30"/><line opacity="0.2" x1="284.3763081847111" x2="284.3763081847111" y1="0.5" y2="30"/><line opacity="0.2" x1="322.97574971345864" x2="322.97574971345864" y1="0.5" y2="30"/><line opacity="0.2" x1="527.8983196654825" x2="527.8983196654825" y1="0.5" y2="30"/><line opacity="0.2" x1="297.52122798679176" x2="297.52122798679176" y1="0.5" y2="30"/><line opacity="0.2" x1="390.30203669807264" x2="390.30203669807264" y1="0.5" y2="30"/><line opacity="0.2" x1="312.12279819721425" x2="312.12279819721425" y1="0.5" y2="30"/><line opacity="0.2" x1="286.86195900981784" x2="286.86195900981784" y1="0.5" y2="30"/><line opacity="0.2" x1="177.2323511183415" x2="177.2323511183415" y1="0.5" y2="30"/><line opacity="0.2" x1="333.7107508071795" x2="333.7107508071795" y1="0.5" y2="30"/><line opacity="0.2" x1="338.51896806017703" x2="338.51896806017703" y1="0.5" y2="30"/><line opacity="0.2" x1="344.6818680895117" x2="344.6818680895117" y1="0.5" y2="30"/><line opacity="0.2" x1="86.52331227568779" x2="86.52331227568779" y1="0.5" y2="30"/><line opacity="0.2" x1="373.50417407164" x2="373.50417407164" y1="0.5" y2="30"/><line opacity="0.2" x1="252.79947467463256" x2="252.79947467463256" y1="0.5" y2="30"/><line opacity="0.2" x1="239.75182105292308" x2="239.75182105292308" y1="0.5" y2="30"/><line opacity="0.2" x1="344.9195327305377" x2="344.9195327305377" y1="0.5" y2="30"/><line opacity="0.2" x1="479.3712065924283" x2="479.3712065924283" y1="0.5" y2="30"/><line opacity="0.2" x1="214.88212734826405" x2="214.88212734826405" y1="0.5" y2="30"/><line opacity="0.2" x1="311.9694748838625" x2="311.9694748838625" y1="0.5" y2="30"/><line opacity="0.2" x1="269.56216573990145" x2="269.56216573990145" y1="0.5" y2="30"/><line opacity="0.2" x1="352.8029076457144" x2="352.8029076457144" y1="0.5" y2="30"/><line opacity="0.2" x1="500.88728452047553" x2="500.88728452047553" y1="0.5" y2="30"/><line opacity="0.2" x1="321.3202899963754" x2="321.3202899963754" y1="0.5" y2="30"/><line opacity="0.2" x1="461.89897219294676" x2="461.89897219294676" y1="0.5" y2="30"/><line opacity="0.2" x1="334.562213086054" x2="334.562213086054" y1="0.5" y2="30"/><line opacity="0.2" x1="251.79607535764563" x2="251.79607535764563" y1="0.5" y2="30"/><line opacity="0.2" x1="320.9435742509771" x2="320.9435742509771" y1="0.5" y2="30"/><line opacity="0.2" x1="340.7041450303644" x2="340.7041450303644" y1="0.5" y2="30"/><line opacity="0.2" x1="277.5030904026942" x2="277.5030904026942" y1="0.5" y2="30"/><line opacity="0.2" x1="293.3014417479243" x2="293.3014417479243" y1="0.5" y2="30"/><line opacity="0.2" x1="395.1951313127181" x2="395.1951313127181" y1="0.5" y2="30"/><line opacity="0.2" x1="251.94871379520004" x2="251.94871379520004" y1="0.5" y2="30"/><line opacity="0.2" x1="351.0569466689556" x2="351.0569466689556" y1="0.5" y2="30"/><line opacity="0.2" x1="197.5471086242558" x2="197.5471086242558" y1="0.5" y2="30"/><line opacity="0.2" x1="481.7904017795351" x2="481.7904017795351" y1="0.5" y2="30"/><line opacity="0.2" x1="262.19309600934395" x2="262.19309600934395" y1="0.5" y2="30"/><line opacity="0.2" x1="330.5856420524731" x2="330.5856420524731" y1="0.5" y2="30"/><line opacity="0.2" x1="479.0889581338913" x2="479.0889581338913" y1="0.5" y2="30"/><line opacity="0.2" x1="149.91937284974753" x2="149.91937284974753" y1="0.5" y2="30"/><line opacity="0.2" x1="240.4641366967119" x2="240.4641366967119" y1="0.5" y2="30"/><line opacity="0.2" x1="333.3558956385421" x2="333.3558956385421" y1="0.5" y2="30"/><line opacity="0.2" x1="249.62524939285677" x2="249.62524939285677" y1="0.5" y2="30"/><line opacity="0.2" x1="331.3489420824725" x2="331.3489420824725" y1="0.5" y2="30"/><line opacity="0.2" x1="252.26157653618824" x2="252.26157653618824" y1="0.5" y2="30"/><line opacity="0.2" x1="372.9178518116384" x2="372.9178518116384" y1="0.5" y2="30"/><line opacity="0.2" x1="319.42149268904615" x2="319.42149268904615" y1="0.5" y2="30"/><line opacity="0.2" x1="232.23762688562064" x2="232.23762688562064" y1="0.5" y2="30"/><line opacity="0.2" x1="319.79353568442417" x2="319.79353568442417" y1="0.5" y2="30"/><line opacity="0.2" x1="236.17727666641662" x2="236.17727666641662" y1="0.5" y2="30"/><line opacity="0.2" x1="304.22320952688744" x2="304.22320952688744" y1="0.5" y2="30"/><line opacity="0.2" x1="367.1533335142295" x2="367.1533335142295" y1="0.5" y2="30"/><line opacity="0.2" x1="288.2950677261256" x2="288.2950677261256" y1="0.5" y2="30"/><line opacity="0.2" x1="272.03476511120033" x2="272.03476511120033" y1="0.5" y2="30"/><line opacity="0.2" x1="385.93756001231617" x2="385.93756001231617" y1="0.5" y2="30"/><line opacity="0.2" x1="305.9143553059449" x2="305.9143553059449" y1="0.5" y2="30"/><line opacity="0.2" x1="404.0424745922751" x2="404.0424745922751" y1="0.5" y2="30"/><line opacity="0.2" x1="351.7084886089503" x2="351.7084886089503" y1="0.5" y2="30"/><line opacity="0.2" x1="72.9372782783474" x2="72.9372782783474" y1="0.5" y2="30"/><line opacity="0.2" x1="309.4540598414023" x2="309.4540598414023" y1="0.5" y2="30"/><line opacity="0.2" x1="620" x2="620" y1="0.5" y2="30"/><line opacity="0.2" x1="373.5213303312461" x2="373.5213303312461" y1="0.5" y2="30"/><line opacity="0.2" x1="281.49215363728206" x2="281.49215363728206" y1="0.5" y2="30"/><line opacity="0.2" x1="445.9881151173598" x2="445.9881151173598" y1="0.5" y2="30"/><line opacity="0.2" x1="93.38504016367138" x2="93.38504016367138" y1="0.5" y2="30"/><line opacity="0.2" x1="228.26495751148937" x2="228.26495751148937" y1="0.5" y2="30"/><line opacity="0.2" x1="312.514899719825" x2="312.514899719825" y1="0.5" y2="30"/><line opacity="0.2" x1="405.2945139273101" x2="405.2945139273101" y1="0.5" y2="30"/><line opacity="0.2" x1="429.74133593101203" x2="429.74133593101203" y1="0.5" y2="30"/><line opacity="0.2" x1="316.0229202429247" x2="316.0229202429247" y1="0.5" y2="30"/><line opacity="0.2" x1="299.7916829340237" x2="299.7916829340237" y1="0.5" y2="30"/><line opacity="0.2" x1="370.47163173482113" x2="370.47163173482113" y1="0.5" y2="30"/><line opacity="0.2" x1="356.84881682743674" x2="356.84881682743674" y1="0.5" y2="30"/><line opacity="0.2" x1="407.3763030363458" x2="407.3763030363458" y1="0.5" y2="30"/><line opacity="0.2" x1="287.4466924591809" x2="287.4466924591809" y1="0.5" y2="30"/><line opacity="0.2" x1="452.1248654714459" x2="452.1248654714459" y1="0.5" y2="30"/><line opacity="0.2" x1="322.8363335048264" x2="322.8363335048264" y1="0.5" y2="30"/><line opacity="0.2" x1="260.46965858453126" x2="260.46965858453126" y1="0.5" y2="30"/><line opacity="0.2" x1="171.72155825278242" x2="171.72155825278242" y1="0.5" y2="30"/><line opacity="0.2" x1="365.1449681392442" x2="365.1449681392442" y1="0.5" y2="30"/><line opacity="0.2" x1="373.4348493701084" x2="373.4348493701084" y1="0.5" y2="30"/><line opacity="0.2" x1="351.4592840865132" x2="351.4592840865132" y1="0.5" y2="30"/><line opacity="0.2" x1="393.29499321526623" x2="393.29499321526623" y1="0.5" y2="30"/><line opacity="0.2" x1="254.80330428653525" x2="254.80330428653525" y1="0.5" y2="30"/><line opacity="0.2" x1="268.33742766924956" x2="268.33742766924956" y1="0.5" y2="30"/><line opacity="0.2" x1="405.8184366187776" x2="405.8184366187776" y1="0.5" y2="30"/><line opacity="0.2" x1="360.5024804783193" x2="360.5024804783193" y1="0.5" y2="30"/><line opacity="0.2" x1="366.9507499997775" x2="366.9507499997775" y1="0.5" y2="30"/><line opacity="0.2" x1="349.3302505290724" x2="349.3302505290724" y1="0.5" y2="30"/><line opacity="0.2" x1="549.449309084766" x2="549.449309084766" y1="0.5" y2="30"/><line opacity="0.2" x1="388.98748314281727" x2="388.98748314281727" y1="0.5" y2="30"/><line opacity="0.2" x1="530.1730926674227" x2="530.1730926674227" y1="0.5" y2="30"/><line opacity="0.2" x1="247.8882457060971" x2="247.8882457060971" y1="0.5" y2="30"/><line opacity="0.2" x1="474.86419373369415" x2="474.86419373369415" y1="0.5" y2="30"/><line opacity="0.2" x1="399.8317788463519" x2="399.8317788463519" y1="0.5" y2="30"/><line opacity="0.2" x1="201.05253602795403" x2="201.05253602795403" y1="0.5" y2="30"/><line opacity="0.2" x1="348.9429770499853" x2="348.9429770499853" y1="0.5" y2="30"/><line opacity="0.2" x1="382.02213903924843" x2="382.02213903924843" y1="0.5" y2="30"/><line opacity="0.2" x1="395.9092370633168" x2="395.9092370633168" y1="0.5" y2="30"/><line opacity="0.2" x1="259.0603291448212" x2="259.0603291448212" y1="0.5" y2="30"/><line opacity="0.2" x1="491.30044149804326" x2="491.30044149804326" y1="0.5" y2="30"/><line opacity="0.2" x1="519.0254822855517" x2="519.0254822855517" y1="0.5" y2="30"/><line opacity="0.2" x1="245.921744917891" x2="245.921744917891" y1="0.5" y2="30"/><line opacity="0.2" x1="400.5582833442031" x2="400.5582833442031" y1="0.5" y2="30"/><line opacity="0.2" x1="289.0946153206482" x2="289.0946153206482" y1="0.5" y2="30"/><line opacity="0.2" x1="352.09761255277255" x2="352.09761255277255" y1="0.5" y2="30"/><line opacity="0.2" x1="317.9134207228596" x2="317.9134207228596" y1="0.5" y2="30"/><line opacity="0.2" x1="467.463059742948" x2="467.463059742948" y1="0.5" y2="30"/><line opacity="0.2" x1="432.0209854066255" x2="432.0209854066255" y1="0.5" y2="30"/><line opacity="0.2" x1="394.7503443768191" x2="394.7503443768191" y1="0.5" y2="30"/><line opacity="0.2" x1="360.8319699503994" x2="360.8319699503994" y1="0.5" y2="30"/><line opacity="0.2" x1="108.72596457624412" x2="108.72596457624412" y1="0.5" y2="30"/><line opacity="0.2" x1="369.3438377767262" x2="369.3438377767262" y1="0.5" y2="30"/><line opacity="0.2" x1="297.14217760577884" x2="297.14217760577884" y1="0.5" y2="30"/><line opacity="0.2" x1="436.21113285930744" x2="436.21113285930744" y1="0.5" y2="30"/><line opacity="0.2" x1="234.89049984079742" x2="234.89049984079742" y1="0.5" y2="30"/><line opacity="0.2" x1="298.9413535782328" x2="298.9413535782328" y1="0.5" y2="30"/><line opacity="0.2" x1="363.91741893553706" x2="363.91741893553706" y1="0.5" y2="30"/><line opacity="0.2" x1="400.0713811095012" x2="400.0713811095012" y1="0.5" y2="30"/><line opacity="0.2" x1="99.91880624566886" x2="99.91880624566886" y1="0.5" y2="30"/><line opacity="0.2" x1="372.0501515131971" x2="372.0501515131971" y1="0.5" y2="30"/><line opacity="0.2" x1="217.50986912575922" x2="217.50986912575922" y1="0.5" y2="30"/><line opacity="0.2" x1="452.4063909505653" x2="452.4063909505653" y1="0.5" y2="30"/><line opacity="0.2" x1="356.25978902752723" x2="356.25978902752723" y1="0.5" y2="30"/><line opacity="0.2" x1="347.6188266276366" x2="347.6188266276366" y1="0.5" y2="30"/><line opacity="0.2" x1="246.42491719829454" x2="246.42491719829454" y1="0.5" y2="30"/><line opacity="0.2" x1="325.3852772589172" x2="325.3852772589172" y1="0.5" y2="30"/><line opacity="0.2" x1="421.6833813683408" x2="421.6833813683408" y1="0.5" y2="30"/><line opacity="0.2" x1="325.19986949554254" x2="325.19986949554254" y1="0.5" y2="30"/><line opacity="0.2" x1="357.4520829437552" x2="357.4520829437552" y1="0.5" y2="30"/><line opacity="0.2" x1="71.75216121049247" x2="71.75216121049247" y1="0.5" y2="30"/><line opacity="0.2" x1="416.8288975728963" x2="416.8288975728963" y1="0.5" y2="30"/><line opacity="0.2" x1="307.1138890874378" x2="307.1138890874378" y1="0.5" y2="30"/><line opacity="0.2" x1="513.6112669109115" x2="513.6112669109115" y1="0.5" y2="30"/><line opacity="0.2" x1="334.859349078209" x2="334.859349078209" y1="0.5" y2="30"/><line opacity="0.2" x1="384.9110556509991" x2="384.9110556509991" y1="0.5" y2="30"/><line opacity="0.2" x1="329.2302619281776" x2="329.2302619281776" y1="0.5" y2="30"/><line opacity="0.2" x1="281.33090007755857" x2="281.33090007755857" y1="0.5" y2="30"/><line opacity="0.2" x1="327.0461166848651" x2="327.0461166848651" y1="0.5" y2="30"/><line opacity="0.2" x1="231.57181484685862" x2="231.57181484685862" y1="0.5" y2="30"/><line opacity="0.2" x1="385.97933427813587" x2="385.97933427813587" y1="0.5" y2="30"/><line opacity="0.2" x1="196.56004989611066" x2="196.56004989611066" y1="0.5" y2="30"/><line opacity="0.2" x1="398.63685154293125" x2="398.63685154293125" y1="0.5" y2="30"/><line opacity="0.2" x1="400.7285591130216" x2="400.7285591130216" y1="0.5" y2="30"/><line opacity="0.2" x1="257.2254003296871" x2="257.2254003296871" y1="0.5" y2="30"/><line opacity="0.2" x1="403.757042026521" x2="403.757042026521" y1="0.5" y2="30"/><line opacity="0.2" x1="397.78933653285503" x2="397.78933653285503" y1="0.5" y2="30"/><line opacity="0.2" x1="301.9810243024173" x2="301.9810243024173" y1="0.5" y2="30"/><line opacity="0.2" x1="97.48397503056982" x2="97.48397503056982" y1="0.5" y2="30"/><line opacity="0.2" x1="337.3170624885488" x2="337.3170624885488" y1="0.5" y2="30"/><line opacity="0.2" x1="395.9826851577603" x2="395.9826851577603" y1="0.5" y2="30"/><line opacity="0.2" x1="165.64788503030542" x2="165.64788503030542" y1="0.5" y2="30"/><line opacity="0.2" x1="295.3835465400338" x2="295.3835465400338" y1="0.5" y2="30"/><line opacity="0.2" x1="261.00970783907843" x2="261.00970783907843" y1="0.5" y2="30"/><line opacity="0.2" x1="423.1985871788137" x2="423.1985871788137" y1="0.5" y2="30"/><line opacity="0.2" x1="475.3353860499003" x2="475.3353860499003" y1="0.5" y2="30"/><line opacity="0.2" x1="479.63287785843863" x2="479.63287785843863" y1="0.5" y2="30"/><line opacity="0.2" x1="249.13159994881516" x2="249.13159994881516" y1="0.5" y2="30"/><line opacity="0.2" x1="353.95974160070114" x2="353.95974160070114" y1="0.5" y2="30"/><line opacity="0.2" x1="345.428247658197" x2="345.428247658197" y1="0.5" y2="30"/><line opacity="0.2" x1="390.50191817654974" x2="390.50191817654974" y1="0.5" y2="30"/><line opacity="0.2" x1="197.53871605859172" x2="197.53871605859172" y1="0.5" y2="30"/><line opacity="0.2" x1="371.30906134436236" x2="371.30906134436236" y1="0.5" y2="30"/><line opacity="0.2" x1="384.27448681062964" x2="384.27448681062964" y1="0.5" y2="30"/><line opacity="0.2" x1="265.34692255372823" x2="265.34692255372823" y1="0.5" y2="30"/><line opacity="0.2" x1="473.45484307440597" x2="473.45484307440597" y1="0.5" y2="30"/><line opacity="0.2" x1="374.34744966355765" x2="374.34744966355765" y1="0.5" y2="30"/><line opacity="0.2" x1="456.3628635664299" x2="456.3628635664299" y1="0.5" y2="30"/><line opacity="0.2" x1="327.8413371107673" x2="327.8413371107673" y1="0.5" y2="30"/><line opacity="0.2" x1="292.6976339253185" x2="292.6976339253185" y1="0.5" y2="30"/><line opacity="0.2" x1="339.017365893484" x2="339.017365893484" y1="0.5" y2="30"/><line opacity="0.2" x1="308.02600178184554" x2="308.02600178184554" y1="0.5" y2="30"/><line opacity="0.2" x1="363.2047949189577" x2="363.2047949189577" y1="0.5" y2="30"/><line opacity="0.2" x1="465.19568019933547" x2="465.19568019933547" y1="0.5" y2="30"/><line opacity="0.2" x1="396.527791609383" x2="396.527791609383" y1="0.5" y2="30"/><line opacity="0.2" x1="313.8314324355991" x2="313.8314324355991" y1="0.5" y2="30"/><line opacity="0.2" x1="365.26570494488794" x2="365.26570494488794" y1="0.5" y2="30"/><line opacity="0.2" x1="403.9693483988719" x2="403.9693483988719" y1="0.5" y2="30"/><line opacity="0.2" x1="345.225683502769" x2="345.225683502769" y1="0.5" y2="30"/><line opacity="0.2" x1="367.35656979619233" x2="367.35656979619233" y1="0.5" y2="30"/><line opacity="0.2" x1="314.92018910174517" x2="314.92018910174517" y1="0.5" y2="30"/><line opacity="0.2" x1="147.12949403534833" x2="147.12949403534833" y1="0.5" y2="30"/><line opacity="0.2" x1="416.8646687479748" x2="416.8646687479748" y1="0.5" y2="30"/><line opacity="0.2" x1="507.63920723629263" x2="507.63920723629263" y1="0.5" y2="30"/><line opacity="0.2" x1="182.95028582874605" x2="182.95028582874605" y1="0.5" y2="30"/><line opacity="0.2" x1="474.8910426575484" x2="474.8910426575484" y1="0.5" y2="30"/><line opacity="0.2" x1="243.31410006895635" x2="243.31410006895635" y1="0.5" y2="30"/><line opacity="0.2" x1="357.0201073259548" x2="357.0201073259548" y1="0.5" y2="30"/><line opacity="0.2" x1="276.07423014336575" x2="276.07423014336575" y1="0.5" y2="30"/><line opacity="0.2" x1="418.3669321326791" x2="418.3669321326791" y1="0.5" y2="30"/><line opacity="0.2" x1="329.41997635560557" x2="329.41997635560557" y1="0.5" y2="30"/><line opacity="0.2" x1="285.8553479303517" x2="285.8553479303517" y1="0.5" y2="30"/><line opacity="0.2" x1="391.7124854546984" x2="391.7124854546984" y1="0.5" y2="30"/><line opacity="0.2" x1="130.2974827446734" x2="130.2974827446734" y1="0.5" y2="30"/><line opacity="0.2" x1="303.0874528288532" x2="303.0874528288532" y1="0.5" y2="30"/><line opacity="0.2" x1="405.2360581809064" x2="405.2360581809064" y1="0.5" y2="30"/><line opacity="0.2" x1="289.84555095282593" x2="289.84555095282593" y1="0.5" y2="30"/><line opacity="0.2" x1="416.6148016101246" x2="416.6148016101246" y1="0.5" y2="30"/><line opacity="0.2" x1="371.20310896629417" x2="371.20310896629417" y1="0.5" y2="30"/><line opacity="0.2" x1="396.35963746485834" x2="396.35963746485834" y1="0.5" y2="30"/><line opacity="0.2" x1="314.5425518844489" x2="314.5425518844489" y1="0.5" y2="30"/><line opacity="0.2" x1="348.911613362281" x2="348.911613362281" y1="0.5" y2="30"/><line opacity="0.2" x1="320.1868635966884" x2="320.1868635966884" y1="0.5" y2="30"/><line opacity="0.2" x1="388.485287060503" x2="388.485287060503" y1="0.5" y2="30"/><line opacity="0.2" x1="300.1832316217371" x2="300.1832316217371" y1="0.5" y2="30"/><line opacity="0.2" x1="366.25176688567694" x2="366.25176688567694" y1="0.5" y2="30"/><line opacity="0.2" x1="400.9700851880779" x2="400.9700851880779" y1="0.5" y2="30"/><line opacity="0.2" x1="390.5381623472587" x2="390.5381623472587" y1="0.5" y2="30"/><line opacity="0.2" x1="504.75429981956296" x2="504.75429981956296" y1="0.5" y2="30"/><line opacity="0.2" x1="328.4502730772136" x2="328.4502730772136" y1="0.5" y2="30"/><line opacity="0.2" x1="319.3999037290186" x2="319.3999037290186" y1="0.5" y2="30"/><line opacity="0.2" x1="437.6928678243776" x2="437.6928678243776" y1="0.5" y2="30"/><line opacity="0.2" x1="358.4049956142585" x2="358.4049956142585" y1="0.5" y2="30"/><line opacity="0.2" x1="323.18284119374255" x2="323.18284119374255" y1="0.5" y2="30"/><line opacity="0.2" x1="458.93390963253165" x2="458.93390963253165" y1="0.5" y2="30"/><line opacity="0.2" x1="299.7431072761094" x2="299.7431072761094" y1="0.5" y2="30"/><line opacity="0.2" x1="238.03721009687254" x2="238.03721009687254" y1="0.5" y2="30"/><line opacity="0.2" x1="220.879814503004" x2="220.879814503004" y1="0.5" y2="30"/><line opacity="0.2" x1="368.930578844569" x2="368.930578844569" y1="0.5" y2="30"/><line opacity="0.2" x1="293.4581772675435" x2="293.4581772675435" y1="0.5" y2="30"/><line opacity="0.2" x1="398.382708538525" x2="398.382708538525" y1="0.5" y2="30"/><line opacity="0.2" x1="381.97181033154266" x2="381.97181033154266" y1="0.5" y2="30"/><line opacity="0.2" x1="314.7677691981387" x2="314.7677691981387" y1="0.5" y2="30"/><line opacity="0.2" x1="144.4509347319686" x2="144.4509347319686" y1="0.5" y2="30"/><line opacity="0.2" x1="380.96404518367194" x2="380.96404518367194" y1="0.5" y2="30"/><line opacity="0.2" x1="426.904271048826" x2="426.904271048826" y1="0.5" y2="30"/><line opacity="0.2" x1="370.9751272823886" x2="370.9751272823886" y1="0.5" y2="30"/><line opacity="0.2" x1="361.0182570335913" x2="361.0182570335913" y1="0.5" y2="30"/><line opacity="0.2" x1="314.52712477626426" x2="314.52712477626426" y1="0.5" y2="30"/><line opacity="0.2" x1="196.2800002489082" x2="196.2800002489082" y1="0.5" y2="30"/><line opacity="0.2" x1="516.1340646497913" x2="516.1340646497913" y1="0.5" y2="30"/><line opacity="0.2" x1="615.1303465527498" x2="615.1303465527498" y1="0.5" y2="30"/><line opacity="0.2" x1="425.8652772467066" x2="425.8652772467066" y1="0.5" y2="30"/><line opacity="0.2" x1="241.12712867323967" x2="241.12712867323967" y1="0.5" y2="30"/><line opacity="0.2" x1="283.90395463950904" x2="283.90395463950904" y1="0.5" y2="30"/><line opacity="0.2" x1="533.5222111372733" x2="533.5222111372733" y1="0.5" y2="30"/><line opacity="0.2" x1="129.70731909207913" x2="129.70731909207913" y1="0.5" y2="30"/><line opacity="0.2" x1="431.1854407280343" x2="431.1854407280343" y1="0.5" y2="30"/><line opacity="0.2" x1="398.1756807122948" x2="398.1756807122948" y1="0.5" y2="30"/><line opacity="0.2" x1="397.9598627496678" x2="397.9598627496678" y1="0.5" y2="30"/><line opacity="0.2" x1="418.09340696681386" x2="418.09340696681386" y1="0.5" y2="30"/><line opacity="0.2" x1="325.850006769432" x2="325.850006769432" y1="0.5" y2="30"/><line opacity="0.2" x1="250.5095063769831" x2="250.5095063769831" y1="0.5" y2="30"/><line opacity="0.2" x1="263.7394801184561" x2="263.7394801184561" y1="0.5" y2="30"/><line opacity="0.2" x1="274.7048478401411" x2="274.7048478401411" y1="0.5" y2="30"/><line opacity="0.2" x1="421.66564776036057" x2="421.66564776036057" y1="0.5" y2="30"/><line opacity="0.2" x1="215.61266937207574" x2="215.61266937207574" y1="0.5" y2="30"/><line opacity="0.2" x1="294.08716584770167" x2="294.08716584770167" y1="0.5" y2="30"/><line opacity="0.2" x1="511.6805385476572" x2="511.6805385476572" y1="0.5" y2="30"/><line opacity="0.2" x1="281.6965986810182" x2="281.6965986810182" y1="0.5" y2="30"/><line opacity="0.2" x1="513.0897101193972" x2="513.0897101193972" y1="0.5" y2="30"/><line opacity="0.2" x1="322.7925503988253" x2="322.7925503988253" y1="0.5" y2="30"/><line opacity="0.2" x1="342.3640973947814" x2="342.3640973947814" y1="0.5" y2="30"/><line opacity="0.2" x1="254.64386549331346" x2="254.64386549331346" y1="0.5" y2="30"/><line opacity="0.2" x1="297.27504933449427" x2="297.27504933449427" y1="0.5" y2="30"/><line opacity="0.2" x1="295.4938316578825" x2="295.4938316578825" y1="0.5" y2="30"/><line opacity="0.2" x1="387.0693547894574" x2="387.0693547894574" y1="0.5" y2="30"/><line opacity="0.2" x1="46.383476781448245" x2="46.383476781448245" y1="0.5" y2="30"/><line opacity="0.2" x1="461.21747215585174" x2="461.21747215585174" y1="0.5" y2="30"/><line opacity="0.2" x1="305.526195101641" x2="305.526195101641" y1="0.5" y2="30"/><line opacity="0.2" x1="339.8067976099207" x2="339.8067976099207" y1="0.5" y2="30"/><line opacity="0.2" x1="478.47831505089465" x2="478.47831505089465" y1="0.5" y2="30"/><line opacity="0.2" x1="444.7909239102733" x2="444.7909239102733" y1="0.5" y2="30"/><line opacity="0.2" x1="344.09570591802793" x2="344.09570591802793" y1="0.5" y2="30"/><line opacity="0.2" x1="450.6573034286446" x2="450.6573034286446" y1="0.5" y2="30"/><line opacity="0.2" x1="287.59426214274515" x2="287.59426214274515" y1="0.5" y2="30"/><line opacity="0.2" x1="181.33610980052578" x2="181.33610980052578" y1="0.5" y2="30"/><line opacity="0.2" x1="512.4127134715169" x2="512.4127134715169" y1="0.5" y2="30"/><line opacity="0.2" x1="403.3186918008984" x2="403.3186918008984" y1="0.5" y2="30"/><line opacity="0.2" x1="403.5993487231244" x2="403.5993487231244" y1="0.5" y2="30"/><line opacity="0.2" x1="267.53631957663174" x2="267.53631957663174" y1="0.5" y2="30"/><line opacity="0.2" x1="325.5938677353988" x2="325.5938677353988" y1="0.5" y2="30"/><line opacity="0.2" x1="279.1017424571156" x2="279.1017424571156" y1="0.5" y2="30"/><line opacity="0.2" x1="205.40225560058383" x2="205.40225560058383" y1="0.5" y2="30"/><line opacity="0.2" x1="390.41401689517534" x2="390.41401689517534" y1="0.5" y2="30"/><line opacity="0.2" x1="438.23871037961203" x2="438.23871037961203" y1="0.5" y2="30"/><line opacity="0.2" x1="463.5529058132526" x2="463.5529058132526" y1="0.5" y2="30"/><line opacity="0.2" x1="374.1062412466541" x2="374.1062412466541" y1="0.5" y2="30"/><line opacity="0.2" x1="260.88124738538085" x2="260.88124738538085" y1="0.5" y2="30"/><line opacity="0.2" x1="477.10567004448" x2="477.10567004448" y1="0.5" y2="30"/><line opacity="0.2" x1="462.8992839196493" x2="462.8992839196493" y1="0.5" y2="30"/><line opacity="0.2" x1="351.42807956380915" x2="351.42807956380915" y1="0.5" y2="30"/><line opacity="0.2" x1="448.9494000144818" x2="448.9494000144818" y1="0.5" y2="30"/><line opacity="0.2" x1="291.95431754063145" x2="291.95431754063145" y1="0.5" y2="30"/><line opacity="0.2" x1="358.6179830028121" x2="358.6179830028121" y1="0.5" y2="30"/><line opacity="0.2" x1="348.2519687122523" x2="348.2519687122523" y1="0.5" y2="30"/><line opacity="0.2" x1="356.7059976051378" x2="356.7059976051378" y1="0.5" y2="30"/><line opacity="0.2" x1="298.1351176723595" x2="298.1351176723595" y1="0.5" y2="30"/><line opacity="0.2" x1="195.943233285033" x2="195.943233285033" y1="0.5" y2="30"/><line opacity="0.2" x1="235.89693674406416" x2="235.89693674406416" y1="0.5" y2="30"/><line opacity="0.2" x1="516.190822553747" x2="516.190822553747" y1="0.5" y2="30"/><line opacity="0.2" x1="353.22223671017264" x2="353.22223671017264" y1="0.5" y2="30"/><line opacity="0.2" x1="432.3748603383781" x2="432.3748603383781" y1="0.5" y2="30"/><line opacity="0.2" x1="153.27353251827853" x2="153.27353251827853" y1="0.5" y2="30"/><line opacity="0.2" x1="235.1102680601189" x2="235.1102680601189" y1="0.5" y2="30"/><line opacity="0.2" x1="147.61934513294582" x2="147.61934513294582" y1="0.5" y2="30"/><line opacity="0.2" x1="353.7533036337311" x2="353.7533036337311" y1="0.5" y2="30"/><line opacity="0.2" x1="291.11394405055404" x2="291.11394405055404" y1="0.5" y2="30"/><line opacity="0.2" x1="390.85326741174384" x2="390.85326741174384" y1="0.5" y2="30"/><line opacity="0.2" x1="167.31416866195644" x2="167.31416866195644" y1="0.5" y2="30"/><line opacity="0.2" x1="355.0642215535632" x2="355.0642215535632" y1="0.5" y2="30"/><line opacity="0.2" x1="438.059176592508" x2="438.059176592508" y1="0.5" y2="30"/><line opacity="0.2" x1="502.11944952274484" x2="502.11944952274484" y1="0.5" y2="30"/><line opacity="0.2" x1="391.42364146189504" x2="391.42364146189504" y1="0.5" y2="30"/><line opacity="0.2" x1="324.6239926752688" x2="324.6239926752688" y1="0.5" y2="30"/><line opacity="0.2" x1="279.59759314379045" x2="279.59759314379045" y1="0.5" y2="30"/><line opacity="0.2" x1="393.58235637294405" x2="393.58235637294405" y1="0.5" y2="30"/><line opacity="0.2" x1="338.2817820107074" x2="338.2817820107074" y1="0.5" y2="30"/><line opacity="0.2" x1="362.11264048234875" x2="362.11264048234875" y1="0.5" y2="30"/><line opacity="0.2" x1="501.6698906018698" x2="501.6698906018698" y1="0.5" y2="30"/><line opacity="0.2" x1="440.99282963059835" x2="440.99282963059835" y1="0.5" y2="30"/><line opacity="0.2" x1="321.3786301568238" x2="321.3786301568238" y1="0.5" y2="30"/><line opacity="0.2" x1="387.1726819442289" x2="387.1726819442289" y1="0.5" y2="30"/><line opacity="0.2" x1="447.6885053359984" x2="447.6885053359984" y1="0.5" y2="30"/><line opacity="0.2" x1="352.01305604620717" x2="352.01305604620717" y1="0.5" y2="30"/><line opacity="0.2" x1="372.1642790774248" x2="372.1642790774248" y1="0.5" y2="30"/><line opacity="0.2" x1="345.95021731929745" x2="345.95021731929745" y1="0.5" y2="30"/><line opacity="0.2" x1="465.41964282789627" x2="465.41964282789627" y1="0.5" y2="30"/><line opacity="0.2" x1="401.5883203165369" x2="401.5883203165369" y1="0.5" y2="30"/><line opacity="0.2" x1="302.846536239651" x2="302.846536239651" y1="0.5" y2="30"/><line opacity="0.2" x1="360.353313229474" x2="360.353313229474" y1="0.5" y2="30"/><line opacity="0.2" x1="311.11659873577963" x2="311.11659873577963" y1="0.5" y2="30"/><line opacity="0.2" x1="344.17231812716767" x2="344.17231812716767" y1="0.5" y2="30"/><line opacity="0.2" x1="485.16287656662723" x2="485.16287656662723" y1="0.5" y2="30"/><line opacity="0.2" x1="302.0490125517796" x2="302.0490125517796" y1="0.5" y2="30"/><line opacity="0.2" x1="395.07583532076495" x2="395.07583532076495" y1="0.5" y2="30"/><line opacity="0.2" x1="364.28031693090577" x2="364.28031693090577" y1="0.5" y2="30"/><line opacity="0.2" x1="279.60808348253465" x2="279.60808348253465" y1="0.5" y2="30"/><line opacity="0.2" x1="386.75358783756894" x2="386.75358783756894" y1="0.5" y2="30"/><line opacity="0.2" x1="395.7893322893074" x2="395.7893322893074" y1="0.5" y2="30"/><line opacity="0.2" x1="575.8981701955748" x2="575.8981701955748" y1="0.5" y2="30"/><line opacity="0.2" x1="388.4300623547425" x2="388.4300623547425" y1="0.5" y2="30"/><line opacity="0.2" x1="329.52982908558533" x2="329.52982908558533" y1="0.5" y2="30"/><line opacity="0.2" x1="311.3525899143352" x2="311.3525899143352" y1="0.5" y2="30"/><line opacity="0.2" x1="332.41539287627387" x2="332.41539287627387" y1="0.5" y2="30"/><line opacity="0.2" x1="293.7080306106818" x2="293.7080306106818" y1="0.5" y2="30"/><line opacity="0.2" x1="368.3949922388191" x2="368.3949922388191" y1="0.5" y2="30"/><line opacity="0.2" x1="244.16016909036733" x2="244.16016909036733" y1="0.5" y2="30"/><line opacity="0.2" x1="516.9896869797249" x2="516.9896869797249" y1="0.5" y2="30"/><line opacity="0.2" x1="335.524912635125" x2="335.524912635125" y1="0.5" y2="30"/><line opacity="0.2" x1="485.9980053519667" x2="485.9980053519667" y1="0.5" y2="30"/><line opacity="0.2" x1="192.60160799113217" x2="192.60160799113217" y1="0.5" y2="30"/><line opacity="0.2" x1="444.27420091117364" x2="444.27420091117364" y1="0.5" y2="30"/><line opacity="0.2" x1="437.0872291520119" x2="437.0872291520119" y1="0.5" y2="30"/><line opacity="0.2" x1="98.31352219933903" x2="98.31352219933903" y1="0.5" y2="30"/><line opacity="0.2" x1="365.3285586079328" x2="365.3285586079328" y1="0.5" y2="30"/><line opacity="0.2" x1="355.78587803758484" x2="355.78587803758484" y1="0.5" y2="30"/><line opacity="0.2" x1="276.6291806342008" x2="276.6291806342008" y1="0.5" y2="30"/><line opacity="0.2" x1="552.247643521283" x2="552.247643521283" y1="0.5" y2="30"/><line opacity="0.2" x1="528.1913028392878" x2="528.1913028392878" y1="0.5" y2="30"/><line opacity="0.2" x1="312.9525957003215" x2="312.9525957003215" y1="0.5" y2="30"/><line opacity="0.2" x1="125.21984670806896" x2="125.21984670806896" y1="0.5" y2="30"/><line opacity="0.2" x1="484.90875612868575" x2="484.90875612868575" y1="0.5" y2="30"/><line opacity="0.2" x1="372.20800735929265" x2="372.20800735929265" y1="0.5" y2="30"/><line opacity="0.2" x1="185.66534814299342" x2="185.66534814299342" y1="0.5" y2="30"/><line opacity="0.2" x1="542.3086094400721" x2="542.3086094400721" y1="0.5" y2="30"/><line opacity="0.2" x1="259.07970385875655" x2="259.07970385875655" y1="0.5" y2="30"/><line opacity="0.2" x1="344.3268112227438" x2="344.3268112227438" y1="0.5" y2="30"/><line opacity="0.2" x1="400.4082048183388" x2="400.4082048183388" y1="0.5" y2="30"/><line opacity="0.2" x1="251.19459856314916" x2="251.19459856314916" y1="0.5" y2="30"/><line opacity="0.2" x1="469.62061610767927" x2="469.62061610767927" y1="0.5" y2="30"/><line opacity="0.2" x1="130.17671113905845" x2="130.17671113905845" y1="0.5" y2="30"/><line opacity="0.2" x1="242.2958861927788" x2="242.2958861927788" y1="0.5" y2="30"/><line opacity="0.2" x1="469.14904233975716" x2="469.14904233975716" y1="0.5" y2="30"/><line opacity="0.2" x1="288.9628958555011" x2="288.9628958555011" y1="0.5" y2="30"/><line opacity="0.2" x1="108.07542207981379" x2="108.07542207981379" y1="0.5" y2="30"/><line opacity="0.2" x1="411.4053069418978" x2="411.4053069418978" y1="0.5" y2="30"/><line opacity="0.2" x1="298.2171140826526" x2="298.2171140826526" y1="0.5" y2="30"/><line opacity="0.2" x1="461.16597727192305" x2="461.16597727192305" y1="0.5" y2="30"/><line opacity="0.2" x1="342.97317495569683" x2="342.97317495569683" y1="0.5" y2="30"/><line opacity="0.2" x1="335.30852880992757" x2="335.30852880992757" y1="0.5" y2="30"/><line opacity="0.2" x1="243.11135619117567" x2="243.11135619117567" y1="0.5" y2="30"/><line opacity="0.2" x1="252.1371778300073" x2="252.1371778300073" y1="0.5" y2="30"/><line opacity="0.2" x1="264.02193506903325" x2="264.02193506903325" y1="0.5" y2="30"/><line opacity="0.2" x1="236.34708395973695" x2="236.34708395973695" y1="0.5" y2="30"/><line opacity="0.2" x1="425.9042393515802" x2="425.9042393515802" y1="0.5" y2="30"/><line opacity="0.2" x1="310.30907361498726" x2="310.30907361498726" y1="0.5" y2="30"/><line opacity="0.2" x1="359.20771513606985" x2="359.20771513606985" y1="0.5" y2="30"/><line opacity="0.2" x1="331.7484676611293" x2="331.7484676611293" y1="0.5" y2="30"/><line opacity="0.2" x1="380.7643643172335" x2="380.7643643172335" y1="0.5" y2="30"/><line opacity="0.2" x1="522.6934325789598" x2="522.6934325789598" y1="0.5" y2="30"/><line opacity="0.2" x1="426.0323504897172" x2="426.0323504897172" y1="0.5" y2="30"/><line opacity="0.2" x1="369.80745799274683" x2="369.80745799274683" y1="0.5" y2="30"/><line opacity="0.2" x1="312.34149317075463" x2="312.34149317075463" y1="0.5" y2="30"/><line opacity="0.2" x1="253.81354129576025" x2="253.81354129576025" y1="0.5" y2="30"/><line opacity="0.2" x1="548.693266592279" x2="548.693266592279" y1="0.5" y2="30"/><line opacity="0.2" x1="230.1794704467999" x2="230.1794704467999" y1="0.5" y2="30"/><line opacity="0.2" x1="376.24403786815583" x2="376.24403786815583" y1="0.5" y2="30"/><line opacity="0.2" x1="328.2600669433504" x2="328.2600669433504" y1="0.5" y2="30"/><line opacity="0.2" x1="431.08459910021105" x2="431.08459910021105" y1="0.5" y2="30"/><line opacity="0.2" x1="194.14678874471699" x2="194.14678874471699" y1="0.5" y2="30"/><line opacity="0.2" x1="235.8771781605523" x2="235.8771781605523" y1="0.5" y2="30"/><line opacity="0.2" x1="226.3362361732551" x2="226.3362361732551" y1="0.5" y2="30"/><line opacity="0.2" x1="548.9206325174666" x2="548.9206325174666" y1="0.5" y2="30"/><line opacity="0.2" x1="369.62833959145576" x2="369.62833959145576" y1="0.5" y2="30"/><line opacity="0.2" x1="374.68709974424104" x2="374.68709974424104" y1="0.5" y2="30"/><line opacity="0.2" x1="362.03396739256607" x2="362.03396739256607" y1="0.5" y2="30"/><line opacity="0.2" x1="281.08462513451" x2="281.08462513451" y1="0.5" y2="30"/><line opacity="0.2" x1="464.2347098975331" x2="464.2347098975331" y1="0.5" y2="30"/><line opacity="0.2" x1="395.05877838845555" x2="395.05877838845555" y1="0.5" y2="30"/></g></svg>