<svg xmlns="http://www.w3.org/2000/svg" xmlns:xlink="http://www.w3.org/1999/xlink" class="plot-d6a7b5" fill="currentColor" font-family="system-ui, sans-serif" font-size="10" text-anchor="middle" width="640" height="60" viewBox="0 0 640 60" style="color: black; background-color: white;"><style>:where(.plot-d6a7b5) {
  --plot-background: white;
  display: block;
  height: auto;
  height: intrinsic;
  max-width: 100%;
}
:where(.plot-d6a7b5 text),
:where(.plot-d6a7b5 tspan) {
  white-space: pre;
}</style><g aria-label="x-axis tick" aria-hidden="true" fill="none" stroke="currentColor"><path transform="translate(40.1522553199892,30)" d="M0,0L0,6"/><path transform="translate(130.06390602796628,30)" d="M0,0L0,6"/><path transform="translate(219.97555673594337,30)" d="M0,0L0,6"/><path transform="translate(309.88720744392043,30)" d="M0,0L0,6"/><path transform="translate(399.7988581518975,30)" d="M0,0L0,6"/><path transform="translate(489.7105088598746,30)" d="M0,0L0,6"/><path transform="translate(579.6221595678517,30)" d="M0,0L0,6"/></g><g aria-label="x-axis tick label" font-variant="tabular-nums" transform="translate(0,9)"><text y="0.71em" transform="translate(40.1522553199892,30)">−3</text><text y="0.71em" transform="translate(130.06390602796628,30)">−2</text><text y="0.71em" transform="translate(219.97555673594337,30)">−1</text><text y="0.71em" transform="translate(309.88720744392043,30)">0</text><text y="0.71em" transform="translate(399.7988581518975,30)">1</text><text y="0.71em" transform="translate(489.7105088598746,30)">2</text><text y="0.71em" transform="translate(579.6221595678517,30)">3</text></g><g aria-label="tick" stroke="steelblue"><line opacity="0.2" x1="361.06395934249946" x2="361.06395934249946" y1="0.5" y2="30"/><line opacity="0.2" x1="233.7671508525737" x2="233.7671508525737" y1="0.5" y2="30"/><line opacity="0.2" x1="288.3016830754423" x2="288.3016830754423" y1="0.5" y2="30"/><line opacity="0.2" x1="381.19988716181035" x2="381.19988716181035" y1="0.5" y2="30"/><line opacity="0.2" x1="258.0802562907761" x2="258.0802562907761" y1="0.5" y2="30"/><line opacity="0.2" x1="349.4140198320769" x2="349.4140198320769" y1="0.5" y2="30"/><line opacity="0.2" x1="271.7651851774111" x2="271.7651851774111" y1="0.5" y2="30"/><line opacity="0.2" x1="270.68272803841717" x2="270.68272803841717" y1="0.5" y2="30"/><line opacity="0.2" x1="284.40571752855595" x2="284.40571752855595" y1="0.5" y2="30"/><line opacity="0.2" x1="242.80920460542234" x2="242.80920460542234" y1="0.5" y2="30"/><line opacity="0.2" x1="415.78052328161726" x2="415.78052328161726" y1="0.5" y2="30"/><line opacity="0.2" x1="380.85669480799515" x2="380.85669480799515" y1="0.5" y2="30"/><line opacity="0.2" x1="366.5185806528526" x2="366.5185806528526" y1="0.5" y2="30"/><line opacity="0.2" x1="305.8822160317794" x2="305.8822160317794" y1="0.5" y2="30"/><line opacity="0.2" x1="191.82694801234476" x2="191.82694801234476" y1="0.5" y2="30"/><line opacity="0.2" x1="526.5578460700467" x2="526.5578460700467" y1="0.5" y2="30"/><line opacity="0.2" x1="184.58304486551233" x2="184.58304486551233" y1="0.5" y2="30"/><line opacity="0.2" x1="260.463812899354" x2="260.463812899354" y1="0.5" y2="30"/><line opacity="0.2" x1="258.62691727179117" x2="258.62691727179117" y1="0.5" y2="30"/><line opacity="0.2" x1="342.41026172061424" x2="342.41026172061424" y1="0.5" y2="30"/><line opacity="0.2" x1="275.073001004653" x2="275.073001004653" y1="0.5" y2="30"/><line opacity="0.2" x1="279.9325820132192" x2="279.9325820132192" y1="0.5" y2="30"/><line opacity="0.2" x1="437.20544490424277" x2="437.20544490424277" y1="0.5" y2="30"/><line opacity="0.2" x1="359.7641365050885" x2="359.7641365050885" y1="0.5" y2="30"/><line opacity="0.2" x1="480.24216010414887" x2="480.24216010414887" y1="0.5" y2="30"/><line opacity="0.2" x1="408.03526677522746" x2="408.03526677522746" y1="0.5" y2="30"/><line opacity="0.2" x1="239.06787197703258" x2="239.06787197703258" y1="0.5" y2="30"/><line opacity="0.2" x1="396.2566527593921" x2="396.2566527593921" y1="0.5" y2="30"/><line opacity="0.2" x1="399.72888613707187" x2="399.72888613707187" y1="0.5" y2="30"/><line opacity="0.2" x1="226.0842962149374" x2="226.0842962149374" y1="0.5" y2="30"/><line opacity="0.2" x1="210.34883357977586" x2="210.34883357977586" y1="0.5" y2="30"/><line opacity="0.2" x1="370.1486013700076" x2="370.1486013700076" y1="0.5" y2="30"/><line opacity="0.2" x1="202.42871733850353" x2="202.42871733850353" y1="0.5" y2="30"/><line opacity="0.2" x1="158.08858275985358" x2="158.08858275985358" y1="0.5" y2="30"/><line opacity="0.2" x1="294.63308953169525" x2="294.63308953169525" y1="0.5" y2="30"/><line opacity="0.2" x1="404.90120542188794" x2="404.90120542188794" y1="0.5" y2="30"/><line opacity="0.2" x1="303.62498584791945" x2="303.62498584791945" y1="0.5" y2="30"/><line opacity="0.2" x1="267.15257769748337" x2="267.15257769748337" y1="0.5" y2="30"/><line opacity="0.2" x1="337.4872243199369" x2="337.4872243199369" y1="0.5" y2="30"/><line opacity="0.2" x1="335.3921325123691" x2="335.3921325123691" y1="0.5" y2="30"/><line opacity="0.2" x1="364.4465843307781" x2="364.4465843307781" y1="0.5" y2="30"/><line opacity="0.2" x1="243.42213561853177" x2="243.42213561853177" y1="0.5" y2="30"/><line opacity="0.2" x1="406.34306736138996" x2="406.34306736138996" y1="0.5" y2="30"/><line opacity="0.2" x1="316.18020620423465" x2="316.18020620423465" y1="0.5" y2="30"/><line opacity="0.2" x1="309.5055791285327" x2="309.5055791285327" y1="0.5" y2="30"/><line opacity="0.2" x1="200.78428518828636" x2="200.78428518828636" y1="0.5" y2="30"/><line opacity="0.2" x1="235.07377475714583" x2="235.07377475714583" y1="0.5" y2="30"/><line opacity="0.2" x1="354.4237364002226" x2="354.4237364002226" y1="0.5" y2="30"/><line opacity="0.2" x1="191.3419126262454" x2="191.3419126262454" y1="0.5" y2="30"/><line opacity="0.2" x1="351.8901367493967" x2="351.8901367493967" y1="0.5" y2="30"/><line opacity="0.2" x1="335.27287366406006" x2="335.27287366406006" y1="0.5" y2="30"/><line opacity="0.2" x1="387.00239442012287" x2="387.00239442012287" y1="0.5" y2="30"/><line opacity="0.2" x1="296.54368339637836" x2="296.54368339637836" y1="0.5" y2="30"/><line opacity="0.2" x1="328.68389758335513" x2="328.68389758335513" y1="0.5" y2="30"/><line opacity="0.2" x1="431.3461534030409" x2="431.3461534030409" y1="0.5" y2="30"/><line opacity="0.2" x1="332.41162689944485" x2="332.41162689944485" y1="0.5" y2="30"/><line opacity="0.2" x1="232.98413704567244" x2="232.98413704567244" y1="0.5" y2="30"/><line opacity="0.2" x1="120.25998861681494" x2="120.25998861681494" y1="0.5" y2="30"/><line opacity="0.2" x1="375.0093069560682" x2="375.0093069560682" y1="0.5" y2="30"/><line opacity="0.2" x1="315.9895696609326" x2="315.9895696609326" y1="0.5" y2="30"/><line opacity="0.2" x1="254.63514351488627" x2="254.63514351488627" y1="0.5" y2="30"/><line opacity="0.2" x1="153.39168422654996" x2="153.39168422654996" y1="0.5" y2="30"/><line opacity="0.2" x1="226.15736766624477" x2="226.15736766624477" y1="0.5" y2="30"/><line opacity="0.2" x1="205.18307429832316" x2="205.18307429832316" y1="0.5" y2="30"/><line opacity="0.2" x1="278.888487677671" x2="278.888487677671" y1="0.5" y2="30"/><line opacity="0.2" x1="366.495685722092" x2="366.495685722092" y1="0.5" y2="30"/><line opacity="0.2" x1="306.0205591587746" x2="306.0205591587746" y1="0.5" y2="30"/><line opacity="0.2" x1="270.18225616561693" x2="270.18225616561693" y1="0.5" y2="30"/><line opacity="0.2" x1="439.3039267856064" x2="439.3039267856064" y1="0.5" y2="30"/><line opacity="0.2" x1="232.60539217224303" x2="232.60539217224303" y1="0.5" y2="30"/><line opacity="0.2" x1="233.57829188502208" x2="233.57829188502208" y1="0.5" y2="30"/><line opacity="0.2" x1="243.753362719337" x2="243.753362719337" y1="0.5" y2="30"/><line opacity="0.2" x1="341.12542732378824" x2="341.12542732378824" y1="0.5" y2="30"/><line opacity="0.2" x1="230.52554938377315" x2="230.52554938377315" y1="0.5" y2="30"/><line opacity="0.2" x1="124.62758827720361" x2="124.62758827720361" y1="0.5" y2="30"/><line opacity="0.2" x1="395.8385360589261" x2="395.8385360589261" y1="0.5" y2="30"/><line opacity="0.2" x1="371.0753049730178" x2="371.0753049730178" y1="0.5" y2="30"/><line opacity="0.2" x1="292.90980846624313" x2="292.90980846624313" y1="0.5" y2="30"/><line opacity="0.2" x1="403.2408844391895" x2="403.2408844391895" y1="0.5" y2="30"/><line opacity="0.2" x1="457.9001714343329" x2="457.9001714343329" y1="0.5" y2="30"/><line opacity="0.2" x1="181.49581897420325" x2="181.49581897420325" y1="0.5" y2="30"/><line opacity="0.2" x1="345.06373351787164" x2="345.06373351787164" y1="0.5" y2="30"/><line opacity="0.2" x1="331.43088976784753" x2="331.43088976784753" y1="0.5" y2="30"/><line opacity="0.2" x1="368.9508618359475" x2="368.9508618359475" y1="0.5" y2="30"/><line opacity="0.2" x1="386.34853486808345" x2="386.34853486808345" y1="0.5" y2="30"/><line opacity="0.2" x1="260.3000800446981" x2="260.3000800446981" y1="0.5" y2="30"/><line opacity="0.2" x1="199.64104264344252" x2="199.64104264344252" y1="0.5" y2="30"/><line opacity="0.2" x1="269.1169237106918" x2="269.1169237106918" y1="0.5" y2="30"/><line opacity="0.2" x1="385.5685115781003" x2="385.5685115781003" y1="0.5" y2="30"/><line opacity="0.2" x1="379.26162637643574" x2="379.26162637643574" y1="0.5" y2="30"/><line opacity="0.2" x1="156.3395903086918" x2="156.3395903086918" y1="0.5" y2="30"/><line opacity="0.2" x1="243.4343937164503" x2="243.4343937164503" y1="0.5" y2="30"/><line opacity="0.2" x1="367.08906973206433" x2="367.08906973206433" y1="0.5" y2="30"/><line opacity="0.2" x1="452.26765420984896" x2="452.26765420984896" y1="0.5" y2="30"/><line opacity="0.2" x1="342.5463302421196" x2="342.5463302421196" y1="0.5" y2="30"/><line opacity="0.2" x1="251.31415396912888" x2="251.31415396912888" y1="0.5" y2="30"/><line opacity="0.2" x1="412.8924785053643" x2="412.8924785053643" y1="0.5" y2="30"/><line opacity="0.2" x1="269.07164621761535" x2="269.07164621761535" y1="0.5" y2="30"/><line opacity="0.2" x1="194.51574842342478" x2="194.51574842342478" y1="0.5" y2="30"/><line opacity="0.2" x1="453.63847352491666" x2="453.63847352491666" y1="0.5" y2="30"/><line opacity="0.2" x1="448.1095662243347" x2="448.1095662243347" y1="0.5" y2="30"/><line opacity="0.2" x1="409.37088260680895" x2="409.37088260680895" y1="0.5" y2="30"/><line opacity="0.2" x1="283.45988744084957" x2="283.45988744084957" y1="0.5" y2="30"/><line opacity="0.2" x1="382.16907621877175" x2="382.16907621877175" y1="0.5" y2="30"/><line opacity="0.2" x1="315.38650636568394" x2="315.38650636568394" y1="0.5" y2="30"/><line opacity="0.2" x1="195.4918474764894" x2="195.4918474764894" y1="0.5" y2="30"/><line opacity="0.2" x1="322.6606875086084" x2="322.6606875086084" y1="0.5" y2="30"/><line opacity="0.2" x1="379.49760118295546" x2="379.49760118295546" y1="0.5" y2="30"/><line opacity="0.2" x1="305.19175066002737" x2="305.19175066002737" y1="0.5" y2="30"/><line opacity="0.2" x1="287.91661441558665" x2="287.91661441558665" y1="0.5" y2="30"/><line opacity="0.2" x1="428.61153473542487" x2="428.61153473542487" y1="0.5" y2="30"/><line opacity="0.2" x1="102.23818258067294" x2="102.23818258067294" y1="0.5" y2="30"/><line opacity="0.2" x1="277.3018737806417" x2="277.3018737806417" y1="0.5" y2="30"/><line opacity="0.2" x1="330.1085483141474" x2="330.1085483141474" y1="0.5" y2="30"/><line opacity="0.2" x1="473.0340408904659" x2="473.0340408904659" y1="0.5" y2="30"/><line opacity="0.2" x1="324.8876731194803" x2="324.8876731194803" y1="0.5" y2="30"/><line opacity="0.2" x1="311.3727067404896" x2="311.3727067404896" y1="0.5" y2="30"/><line opacity="0.2" x1="342.0854326906922" x2="342.0854326906922" y1="0.5" y2="30"/><line opacity="0.2" x1="334.8141727196292" x2="334.8141727196292" y1="0.5" y2="30"/><line opacity="0.2" x1="456.5944328324741" x2="456.5944328324741" y1="0.5" y2="30"/><line opacity="0.2" x1="226.28568634384504" x2="226.28568634384504" y1="0.5" y2="30"/><line opacity="0.2" x1="197.53344295457845" x2="197.53344295457845" y1="0.5" y2="30"/><line opacity="0.2" x1="169.77752250107656" x2="169.77752250107656" y1="0.5" y2="30"/><line opacity="0.2" x1="239.43498147259868" x2="239.43498147259868" y1="0.5" y2="30"/><line opacity="0.2" x1="342.8507885794917" x2="342.8507885794917" y1="0.5" y2="30"/><line opacity="0.2" x1="346.186254978321" x2="346.186254978321" y1="0.5" y2="30"/><line opacity="0.2" x1="273.4113947967448" x2="273.4113947967448" y1="0.5" y2="30"/><line opacity="0.2" x1="408.3173348941278" x2="408.3173348941278" y1="0.5" y2="30"/><line opacity="0.2" x1="373.050537014199" x2="373.050537014199" y1="0.5" y2="30"/><line opacity="0.2" x1="333.63459070933834" x2="333.63459070933834" y1="0.5" y2="30"/><line opacity="0.2" x1="303.512823632439" x2="303.512823632439" y1="0.5" y2="30"/><line opacity="0.2" x1="275.05921274246685" x2="275.05921274246685" y1="0.5" y2="30"/><line opacity="0.2" x1="237.0554810642052" x2="237.0554810642052" y1="0.5" y2="30"/><line opacity="0.2" x1="186.7162571309933" x2="186.7162571309933" y1="0.5" y2="30"/><line opacity="0.2" x1="57.86266324342151" x2="57.86266324342151" y1="0.5" y2="30"/><line opacity="0.2" x1="220.0590808669336" x2="220.0590808669336" y1="0.5" y2="30"/><line opacity="0.2" x1="289.0310390973144" x2="289.0310390973144" y1="0.5" y2="30"/><line opacity="0.2" x1="252.92704701162188" x2="252.92704701162188" y1="0.5" y2="30"/><line opacity="0.2" x1="340.147247002177" x2="340.147247002177" y1="0.5" y2="30"/><line opacity="0.2" x1="283.97592496098645" x2="283.97592496098645" y1="0.5" y2="30"/><line opacity="0.2" x1="330.6641256981274" x2="330.6641256981274" y1="0.5" y2="30"/><line opacity="0.2" x1="271.55434500930465" x2="271.55434500930465" y1="0.5" y2="30"/><line opacity="0.2" x1="215.46435679023216" x2="215.46435679023216" y1="0.5" y2="30"/><line opacity="0.2" x1="374.4587965166645" x2="374.4587965166645" y1="0.5" y2="30"/><line opacity="0.2" x1="353.7552834591042" x2="353.7552834591042" y1="0.5" y2="30"/><line opacity="0.2" x1="308.97719901793994" x2="308.97719901793994" y1="0.5" y2="30"/><line opacity="0.2" x1="400.944246589069" x2="400.944246589069" y1="0.5" y2="30"/><line opacity="0.2" x1="320.46440652878715" x2="320.46440652878715" y1="0.5" y2="30"/><line opacity="0.2" x1="266.06971060096663" x2="266.06971060096663" y1="0.5" y2="30"/><line opacity="0.2" x1="273.165899723451" x2="273.165899723451" y1="0.5" y2="30"/><line opacity="0.2" x1="346.6235316802276" x2="346.6235316802276" y1="0.5" y2="30"/><line opacity="0.2" x1="155.89084930349162" x2="155.89084930349162" y1="0.5" y2="30"/><line opacity="0.2" x1="228.54570516519365" x2="228.54570516519365" y1="0.5" y2="30"/><line opacity="0.2" x1="417.99051659512446" x2="417.99051659512446" y1="0.5" y2="30"/><line opacity="0.2" x1="474.8389476559122" x2="474.8389476559122" y1="0.5" y2="30"/><line opacity="0.2" x1="200.60725274766918" x2="200.60725274766918" y1="0.5" y2="30"/><line opacity="0.2" x1="368.99703626470665" x2="368.99703626470665" y1="0.5" y2="30"/><line opacity="0.2" x1="382.86121937426554" x2="382.86121937426554" y1="0.5" y2="30"/><line opacity="0.2" x1="337.0347429953501" x2="337.0347429953501" y1="0.5" y2="30"/><line opacity="0.2" x1="394.697403768348" x2="394.697403768348" y1="0.5" y2="30"/><line opacity="0.2" x1="407.5870775377881" x2="407.5870775377881" y1="0.5" y2="30"/><line opacity="0.2" x1="376.58603023095577" x2="376.58603023095577" y1="0.5" y2="30"/><line opacity="0.2" x1="250.05976663207406" x2="250.05976663207406" y1="0.5" y2="30"/><line opacity="0.2" x1="436.272414516416" x2="436.272414516416" y1="0.5" y2="30"/><line opacity="0.2" x1="373.4073446174734" x2="373.4073446174734" y1="0.5" y2="30"/><line opacity="0.2" x1="271.64896062018005" x2="271.64896062018005" y1="0.5" y2="30"/><line opacity="0.2" x1="355.80452743476826" x2="355.80452743476826" y1="0.5" y2="30"/><line opacity="0.2" x1="366.9910245964169" x2="366.9910245964169" y1="0.5" y2="30"/><line opacity="0.2" x1="276.56413880307895" x2="276.56413880307895" y1="0.5" y2="30"/><line opacity="0.2" x1="309.99627007040226" x2="309.99627007040226" y1="0.5" y2="30"/><line opacity="0.2" x1="388.9304663016007" x2="388.9304663016007" y1="0.5" y2="30"/><line opacity="0.2" x1="264.8167349146855" x2="264.8167349146855" y1="0.5" y2="30"/><line opacity="0.2" x1="221.45484005106374" x2="221.45484005106374" y1="0.5" y2="30"/><line opacity="0.2" x1="322.23899227211206" x2="322.23899227211206" y1="0.5" y2="30"/><line opacity="0.2" x1="330.1992995846131" x2="330.1992995846131" y1="0.5" y2="30"/><line opacity="0.2" x1="427.24667575538604" x2="427.24667575538604" y1="0.5" y2="30"/><line opacity="0.2" x1="398.61752857174775" x2="398.61752857174775" y1="0.5" y2="30"/><line opacity="0.2" x1="432.46823757774234" x2="432.46823757774234" y1="0.5" y2="30"/><line opacity="0.2" x1="433.063458604186" x2="433.063458604186" y1="0.5" y2="30"/><line opacity="0.2" x1="375.2777934409953" x2="375.2777934409953" y1="0.5" y2="30"/><line opacity="0.2" x1="233.3771889810651" x2="233.3771889810651" y1="0.5" y2="30"/><line opacity="0.2" x1="288.44549544105854" x2="288.44549544105854" y1="0.5" y2="30"/><line opacity="0.2" x1="432.25272947659005" x2="432.25272947659005" y1="0.5" y2="30"/><line opacity="0.2" x1="296.8026086127759" x2="296.8026086127759" y1="0.5" y2="30"/><line opacity="0.2" x1="294.2073748595805" x2="294.2073748595805" y1="0.5" y2="30"/><line opacity="0.2" x1="395.0968815881841" x2="395.0968815881841" y1="0.5" y2="30"/><line opacity="0.2" x1="376.3036513257871" x2="376.3036513257871" y1="0.5" y2="30"/><line opacity="0.2" x1="203.47715367657236" x2="203.47715367657236" y1="0.5" y2="30"/><line opacity="0.2" x1="382.15283889373205" x2="382.15283889373205" y1="0.5" y2="30"/><line opacity="0.2" x1="382.08474642656137" x2="382.08474642656137" y1="0.5" y2="30"/><line opacity="0.2" x1="277.6721142255984" x2="277.6721142255984" y1="0.5" y2="30"/><line opacity="0.2" x1="613.1548569889583" x2="613.1548569889583" y1="0.5" y2="30"/><line opacity="0.2" x1="287.4168580062741" x2="287.4168580062741" y1="0.5" y2="30"/><line opacity="0.2" x1="233.99752890210362" x2="233.99752890210362" y1="0.5" y2="30"/><line opacity="0.2" x1="397.1190570500572" x2="397.1190570500572" y1="0.5" y2="30"/><line opacity="0.2" x1="193.01226113246472" x2="193.01226113246472" y1="0.5" y2="30"/><line opacity="0.2" x1="266.0919260274221" x2="266.0919260274221" y1="0.5" y2="30"/><line opacity="0.2" x1="274.44437907482535" x2="274.44437907482535" y1="0.5" y2="30"/><line opacity="0.2" x1="497.1251916758401" x2="497.1251916758401" y1="0.5" y2="30"/><line opacity="0.2" x1="400.50015389668624" x2="400.50015389668624" y1="0.5" y2="30"/><line opacity="0.2" x1="302.30257269787285" x2="302.30257269787285" y1="0.5" y2="30"/><line opacity="0.2" x1="465.6047099140212" x2="465.6047099140212" y1="0.5" y2="30"/><line opacity="0.2" x1="234.82269500964088" x2="234.82269500964088" y1="0.5" y2="30"/><line opacity="0.2" x1="130.95305866870845" x2="130.95305866870845" y1="0.5" y2="30"/><line opacity="0.2" x1="246.0768518174493" x2="246.0768518174493" y1="0.5" y2="30"/><line opacity="0.2" x1="293.86242754623163" x2="293.86242754623163" y1="0.5" y2="30"/><line opacity="0.2" x1="312.2063095582196" x2="312.2063095582196" y1="0.5" y2="30"/><line opacity="0.2" x1="363.4853487443671" x2="363.4853487443671" y1="0.5" y2="30"/><line opacity="0.2" x1="402.43943485032423" x2="402.43943485032423" y1="0.5" y2="30"/><line opacity="0.2" x1="347.70254923580677" x2="347.70254923580677" y1="0.5" y2="30"/><line opacity="0.2" x1="390.37276417842594" x2="390.37276417842594" y1="0.5" y2="30"/><line opacity="0.2" x1="344.22563221430113" x2="344.22563221430113" y1="0.5" y2="30"/><line opacity="0.2" x1="433.11115187572153" x2="433.11115187572153" y1="0.5" y2="30"/><line opacity="0.2" x1="345.9817663782612" x2="345.9817663782612" y1="0.5" y2="30"/><line opacity="0.2" x1="325.42892793034906" x2="325.42892793034906" y1="0.5" y2="30"/><line opacity="0.2" x1="365.45524315938866" x2="365.45524315938866" y1="0.5" y2="30"/><line opacity="0.2" x1="407.4401295232002" x2="407.4401295232002" y1="0.5" y2="30"/><line opacity="0.2" x1="247.0167543755638" x2="247.0167543755638" y1="0.5" y2="30"/><line opacity="0.2" x1="203.5502773050138" x2="203.5502773050138" y1="0.5" y2="30"/><line opacity="0.2" x1="331.41057729805215" x2="331.41057729805215" y1="0.5" y2="30"/><line opacity="0.2" x1="358.8690016108022" x2="358.8690016108022" y1="0.5" y2="30"/><line opacity="0.2" x1="324.66781790818675" x2="324.66781790818675" y1="0.5" y2="30"/><line opacity="0.2" x1="370.9708608816965" x2="370.9708608816965" y1="0.5" y2="30"/><line opacity="0.2" x1="305.3057914060314" x2="305.3057914060314" y1="0.5" y2="30"/><line opacity="0.2" x1="181.2771888038525" x2="181.2771888038525" y1="0.5" y2="30"/><line opacity="0.2" x1="321.16901595453004" x2="321.16901595453004" y1="0.5" y2="30"/><line opacity="0.2" x1="327.5291654809459" x2="327.5291654809459" y1="0.5" y2="30"/><line opacity="0.2" x1="191.1649213210892" x2="191.1649213210892" y1="0.5" y2="30"/><line opacity="0.2" x1="317.6307957759992" x2="317.6307957759992" y1="0.5" y2="30"/><line opacity="0.2" x1="376.56555202574486" x2="376.56555202574486" y1="0.5" y2="30"/><line opacity="0.2" x1="141.08040648537664" x2="141.08040648537664" y1="0.5" y2="30"/><line opacity="0.2" x1="293.31874333844684" x2="293.31874333844684" y1="0.5" y2="30"/><line opacity="0.2" x1="302.4662834136314" x2="302.4662834136314" y1="0.5" y2="30"/><line opacity="0.2" x1="447.50717019722606" x2="447.50717019722606" y1="0.5" y2="30"/><line opacity="0.2" x1="387.29079218964864" x2="387.29079218964864" y1="0.5" y2="30"/><line opacity="0.2" x1="358.2447616753059" x2="358.2447616753059" y1="0.5" y2="30"/><line opacity="0.2" x1="337.3639340464412" x2="337.3639340464412" y1="0.5" y2="30"/><line opacity="0.2" x1="389.4937087239892" x2="389.4937087239892" y1="0.5" y2="30"/><line opacity="0.2" x1="377.31917539905066" x2="377.31917539905066" y1="0.5" y2="30"/><line opacity="0.2" x1="184.92660797077485" x2="184.92660797077485" y1="0.5" y2="30"/><line opacity="0.2" x1="233.15806517433595" x2="233.15806517433595" y1="0.5" y2="30"/><line opacity="0.2" x1="323.77570858583414" x2="323.77570858583414" y1="0.5" y2="30"/><line opacity="0.2" x1="221.07369394077514" x2="221.07369394077514" y1="0.5" y2="30"/><line opacity="0.2" x1="359.83090941708156" x2="359.83090941708156" y1="0.5" y2="30"/><line opacity="0.2" x1="307.6559909812502" x2="307.6559909812502" y1="0.5" y2="30"/><line opacity="0.2" x1="266.77144148130606" x2="266.77144148130606" y1="0.5" y2="30"/><line opacity="0.2" x1="331.496813547131" x2="331.496813547131" y1="0.5" y2="30"/><line opacity="0.2" x1="199.89752695213622" x2="199.89752695213622" y1="0.5" y2="30"/><line opacity="0.2" x1="218.9208938471396" x2="218.9208938471396" y1="0.5" y2="30"/><line opacity="0.2" x1="173.70083510579144" x2="173.70083510579144" y1="0.5" y2="30"/><line opacity="0.2" x1="297.96394320491265" x2="297.96394320491265" y1="0.5" y2="30"/><line opacity="0.2" x1="246.28612941489467" x2="246.28612941489467" y1="0.5" y2="30"/><line opacity="0.2" x1="372.3450121296511" x2="372.3450121296511" y1="0.5" y2="30"/><line opacity="0.2" x1="307.03877845563693" x2="307.03877845563693" y1="0.5" y2="30"/><line opacity="0.2" x1="376.984472134054" x2="376.984472134054" y1="0.5" y2="30"/><line opacity="0.2" x1="373.6845906089244" x2="373.6845906089244" y1="0.5" y2="30"/><line opacity="0.2" x1="405.2908064935078" x2="405.2908064935078" y1="0.5" y2="30"/><line opacity="0.2" x1="270.3168553770996" x2="270.3168553770996" y1="0.5" y2="30"/><line opacity="0.2" x1="381.59152425195265" x2="381.59152425195265" y1="0.5" y2="30"/><line opacity="0.2" x1="188.18521140311776" x2="188.18521140311776" y1="0.5" y2="30"/><line opacity="0.2" x1="340.8214873166255" x2="340.8214873166255" y1="0.5" y2="30"/><line opacity="0.2" x1="442.9809430936815" x2="442.9809430936815" y1="0.5" y2="30"/><line opacity="0.2" x1="329.02139320487066" x2="329.02139320487066" y1="0.5" y2="30"/><line opacity="0.2" x1="245.7924369830061" x2="245.7924369830061" y1="0.5" y2="30"/><line opacity="0.2" x1="464.11245581992017" x2="464.11245581992017" y1="0.5" y2="30"/><line opacity="0.2" x1="259.2836989644389" x2="259.2836989644389" y1="0.5" y2="30"/><line opacity="0.2" x1="188.9457394683379" x2="188.9457394683379" y1="0.5" y2="30"/><line opacity="0.2" x1="326.19821022635693" x2="326.19821022635693" y1="0.5" y2="30"/><line opacity="0.2" x1="305.2748390487487" x2="305.2748390487487" y1="0.5" y2="30"/><line opacity="0.2" x1="457.56952247031165" x2="457.56952247031165" y1="0.5" y2="30"/><line opacity="0.2" x1="221.3157672760018" x2="221.3157672760018" y1="0.5" y2="30"/><line opacity="0.2" x1="376.38315392835943" x2="376.38315392835943" y1="0.5" y2="30"/><line opacity="0.2" x1="207.77533448803635" x2="207.77533448803635" y1="0.5" y2="30"/><line opacity="0.2" x1="269.5197988524867" x2="269.5197988524867" y1="0.5" y2="30"/><line opacity="0.2" x1="379.50347756200046" x2="379.50347756200046" y1="0.5" y2="30"/><line opacity="0.2" x1="316.96651474522287" x2="316.96651474522287" y1="0.5" y2="30"/><line opacity="0.2" x1="347.7949008554843" x2="347.7949008554843" y1="0.5" y2="30"/><line opacity="0.2" x1="238.63524203937635" x2="238.63524203937635" y1="0.5" y2="30"/><line opacity="0.2" x1="281.00713813999823" x2="281.00713813999823" y1="0.5" y2="30"/><line opacity="0.2" x1="432.7547181645488" x2="432.7547181645488" y1="0.5" y2="30"/><line opacity="0.2" x1="391.31397811411506" x2="391.31397811411506" y1="0.5" y2="30"/><line opacity="0.2" x1="307.73453622459783" x2="307.73453622459783" y1="0.5" y2="30"/><line opacity="0.2" x1="293.8122379340367" x2="293.8122379340367" y1="0.5" y2="30"/><line opacity="0.2" x1="335.265064642394" x2="335.265064642394" y1="0.5" y2="30"/><line opacity="0.2" x1="302.3104655647762" x2="302.3104655647762" y1="0.5" y2="30"/><line opacity="0.2" x1="358.9310680379722" x2="358.9310680379722" y1="0.5" y2="30"/><line opacity="0.2" x1="158.0150149208807" x2="158.0150149208807" y1="0.5" y2="30"/><line opacity="0.2" x1="433.1954603168407" x2="433.1954603168407" y1="0.5" y2="30"/><line opacity="0.2" x1="143.59215818700793" x2="143.59215818700793" y1="0.5" y2="30"/><line opacity="0.2" x1="318.869545129867" x2="318.869545129867" y1="0.5" y2="30"/><line opacity="0.2" x1="321.3806740618064" x2="321.3806740618064" y1="0.5" y2="30"/><line opacity="0.2" x1="281.73488345607603" x2="281.73488345607603" y1="0.5" y2="30"/><line opacity="0.2" x1="136.4617363659335" x2="136.4617363659335" y1="0.5" y2="30"/><line opacity="0.2" x1="366.16656798720345" x2="366.16656798720345" y1="0.5" y2="30"/><line opacity="0.2" x1="221.3418145192869" x2="221.3418145192869" y1="0.5" y2="30"/><line opacity="0.2" x1="489.20604013382933" x2="489.20604013382933" y1="0.5" y2="30"/><line opacity="0.2" x1="145.22320031989884" x2="145.22320031989884" y1="0.5" y2="30"/><line opacity="0.2" x1="148.69460381542086" x2="148.69460381542086" y1="0.5" y2="30"/><line opacity="0.2" x1="368.41822640382696" x2="368.41822640382696" y1="0.5" y2="30"/><line opacity="0.2" x1="302.4134997458917" x2="302.4134997458917" y1="0.5" y2="30"/><line opacity="0.2" x1="244.7062745611299" x2="244.7062745611299" y1="0.5" y2="30"/><line opacity="0.2" x1="492.9551934180523" x2="492.9551934180523" y1="0.5" y2="30"/><line opacity="0.2" x1="153.40500466198512" x2="153.40500466198512" y1="0.5" y2="30"/><line opacity="0.2" x1="236.23720846855605" x2="236.23720846855605" y1="0.5" y2="30"/><line opacity="0.2" x1="303.4899971668114" x2="303.4899971668114" y1="0.5" y2="30"/><line opacity="0.2" x1="311.5224576033131" x2="311.5224576033131" y1="0.5" y2="30"/><line opacity="0.2" x1="292.8433622869849" x2="292.8433622869849" y1="0.5" y2="30"/><line opacity="0.2" x1="411.0607712177825" x2="411.0607712177825" y1="0.5" y2="30"/><line opacity="0.2" x1="200.1728480117384" x2="200.1728480117384" y1="0.5" y2="30"/><line opacity="0.2" x1="414.7718305919883" x2="414.7718305919883" y1="0.5" y2="30"/><line opacity="0.2" x1="417.4792868980247" x2="417.4792868980247" y1="0.5" y2="30"/><line opacity="0.2" x1="319.52703857572885" x2="319.52703857572885" y1="0.5" y2="30"/><line opacity="0.2" x1="268.7702741630849" x2="268.7702741630849" y1="0.5" y2="30"/><line opacity="0.2" x1="239.27300320123055" x2="239.27300320123055" y1="0.5" y2="30"/><line opacity="0.2" x1="242.7026434296892" x2="242.7026434296892" y1="0.5" y2="30"/><line opacity="0.2" x1="270.74537351695756" x2="270.74537351695756" y1="0.5" y2="30"/><line opacity="0.2" x1="317.93751211076517" x2="317.93751211076517" y1="0.5" y2="30"/><line opacity="0.2" x1="173.64125931462223" x2="173.64125931462223" y1="0.5" y2="30"/><line opacity="0.2" x1="237.4734665798362" x2="237.4734665798362" y1="0.5" y2="30"/><line opacity="0.2" x1="174.52959918310947" x2="174.52959918310947" y1="0.5" y2="30"/><line opacity="0.2" x1="396.5978664940476" x2="396.5978664940476" y1="0.5" y2="30"/><line opacity="0.2" x1="345.6258646873525" x2="345.6258646873525" y1="0.5" y2="30"/><line opacity="0.2" x1="305.12736841340774" x2="305.12736841340774" y1="0.5" y2="30"/><line opacity="0.2" x1="318.8551368159616" x2="318.8551368159616" y1="0.5" y2="30"/><line opacity="0.2" x1="366.77155699087547" x2="366.77155699087547" y1="0.5" y2="30"/><line opacity="0.2" x1="493.29284905229076" x2="493.29284905229076" y1="0.5" y2="30"/><line opacity="0.2" x1="248.23060728585347" x2="248.23060728585347" y1="0.5" y2="30"/><line opacity="0.2" x1="329.5067143042879" x2="329.5067143042879" y1="0.5" y2="30"/><line opacity="0.2" x1="333.2138784091388" x2="333.2138784091388" y1="0.5" y2="30"/><line opacity="0.2" x1="454.4060849714225" x2="454.4060849714225" y1="0.5" y2="30"/><line opacity="0.2" x1="20" x2="20" y1="0.5" y2="30"/><line opacity="0.2" x1="620" x2="620" y1="0.5" y2="30"/><line opacity="0.2" x1="292.38502276668623" x2="292.38502276668623" y1="0.5" y2="30"/><line opacity="0.2" x1="307.5065608922188" x2="307.5065608922188" y1="0.5" y2="30"/><line opacity="0.2" x1="121.85797089987176" x2="121.85797089987176" y1="0.5" y2="30"/><line opacity="0.2" x1="124.87100367431714" x2="124.87100367431714" y1="0.5" y2="30"/><line opacity="0.2" x1="343.89078541268424" x2="343.89078541268424" y1="0.5" y2="30"/><line opacity="0.2" x1="335.49588669036876" x2="335.49588669036876" y1="0.5" y2="30"/><line opacity="0.2" x1="162.5981173296607" x2="162.5981173296607" y1="0.5" y2="30"/><line opacity="0.2" x1="392.88082151179094" x2="392.88082151179094" y1="0.5" y2="30"/><line opacity="0.2" x1="342.4099802702883" x2="342.4099802702883" y1="0.5" y2="30"/><line opacity="0.2" x1="285.9182570953737" x2="285.9182570953737" y1="0.5" y2="30"/><line opacity="0.2" x1="213.29681802379864" x2="213.29681802379864" y1="0.5" y2="30"/><line opacity="0.2" x1="358.5616989468093" x2="358.5616989468093" y1="0.5" y2="30"/><line opacity="0.2" x1="422.4915536905188" x2="422.4915536905188" y1="0.5" y2="30"/><line opacity="0.2" x1="294.60135558873134" x2="294.60135558873134" y1="0.5" y2="30"/><line opacity="0.2" x1="329.73308549602154" x2="329.73308549602154" y1="0.5" y2="30"/><line opacity="0.2" x1="374.9580174495917" x2="374.9580174495917" y1="0.5" y2="30"/><line opacity="0.2" x1="252.19721840809962" x2="252.19721840809962" y1="0.5" y2="30"/><line opacity="0.2" x1="215.64234074160416" x2="215.64234074160416" y1="0.5" y2="30"/><line opacity="0.2" x1="257.7100778054482" x2="257.7100778054482" y1="0.5" y2="30"/><line opacity="0.2" x1="350.8360904176816" x2="350.8360904176816" y1="0.5" y2="30"/><line opacity="0.2" x1="320.5369317097131" x2="320.5369317097131" y1="0.5" y2="30"/><line opacity="0.2" x1="265.9878070066992" x2="265.9878070066992" y1="0.5" y2="30"/><line opacity="0.2" x1="362.2931463741469" x2="362.2931463741469" y1="0.5" y2="30"/><line opacity="0.2" x1="464.30205301207764" x2="464.30205301207764" y1="0.5" y2="30"/><line opacity="0.2" x1="285.66280945868056" x2="285.66280945868056" y1="0.5" y2="30"/><line opacity="0.2" x1="195.2866521758" x2="195.2866521758" y1="0.5" y2="30"/><line opacity="0.2" x1="297.95133034864546" x2="297.95133034864546" y1="0.5" y2="30"/><line opacity="0.2" x1="264.0666887876614" x2="264.0666887876614" y1="0.5" y2="30"/><line opacity="0.2" x1="348.76562490845276" x2="348.76562490845276" y1="0.5" y2="30"/><line opacity="0.2" x1="319.78905624039123" x2="319.78905624039123" y1="0.5" y2="30"/><line opacity="0.2" x1="352.0633595715804" x2="352.0633595715804" y1="0.5" y2="30"/><line opacity="0.2" x1="341.2777413649999" x2="341.2777413649999" y1="0.5" y2="30"/><line opacity="0.2" x1="274.9993093943169" x2="274.9993093943169" y1="0.5" y2="30"/><line opacity="0.2" x1="367.6546590800548" x2="367.6546590800548" y1="0.5" y2="30"/><line opacity="0.2" x1="248.87591506907523" x2="248.87591506907523" y1="0.5" y2="30"/><line opacity="0.2" x1="321.02528654033176" x2="321.02528654033176" y1="0.5" y2="30"/><line opacity="0.2" x1="326.10438275417766" x2="326.10438275417766" y1="0.5" y2="30"/><line opacity="0.2" x1="291.1575079887013" x2="291.1575079887013" y1="0.5" y2="30"/><line opacity="0.2" x1="309.84385702192765" x2="309.84385702192765" y1="0.5" y2="30"/><line opacity="0.2" x1="278.02893144860536" x2="278.02893144860536" y1="0.5" y2="30"/><line opacity="0.2" x1="84.24048542303336" x2="84.24048542303336" y1="0.5" y2="30"/><line opacity="0.2" x1="494.2679448804264" x2="494.2679448804264" y1="0.5" y2="30"/><line opacity="0.2" x1="406.76557871427235" x2="406.76557871427235" y1="0.5" y2="30"/><line opacity="0.2" x1="292.106306402326" x2="292.106306402326" y1="0.5" y2="30"/><line opacity="0.2" x1="273.67325456492114" x2="273.67325456492114" y1="0.5" y2="30"/><line opacity="0.2" x1="271.2354851220083" x2="271.2354851220083" y1="0.5" y2="30"/><line opacity="0.2" x1="473.26730042536246" x2="473.26730042536246" y1="0.5" y2="30"/><line opacity="0.2" x1="199.4578475040633" x2="199.4578475040633" y1="0.5" y2="30"/><line opacity="0.2" x1="394.0364086820332" x2="394.0364086820332" y1="0.5" y2="30"/><line opacity="0.2" x1="346.57397370453106" x2="346.57397370453106" y1="0.5" y2="30"/><line opacity="0.2" x1="331.3080430285517" x2="331.3080430285517" y1="0.5" y2="30"/><line opacity="0.2" x1="333.14545791355533" x2="333.14545791355533" y1="0.5" y2="30"/><line opacity="0.2" x1="384.4149775153553" x2="384.4149775153553" y1="0.5" y2="30"/><line opacity="0.2" x1="323.23179255234413" x2="323.23179255234413" y1="0.5" y2="30"/><line opacity="0.2" x1="430.5833771492585" x2="430.5833771492585" y1="0.5" y2="30"/><line opacity="0.2" x1="109.24427106624806" x2="109.24427106624806" y1="0.5" y2="30"/><line opacity="0.2" x1="170.96069489840383" x2="170.96069489840383" y1="0.5" y2="30"/><line opacity="0.2" x1="317.53999476637586" x2="317.53999476637586" y1="0.5" y2="30"/><line opacity="0.2" x1="369.13258232364706" x2="369.13258232364706" y1="0.5" y2="30"/><line opacity="0.2" x1="341.44383494291174" x2="341.44383494291174" y1="0.5" y2="30"/><line opacity="0.2" x1="323.3283761996635" x2="323.3283761996635" y1="0.5" y2="30"/><line opacity="0.2" x1="232.6470415690722" x2="232.6470415690722" y1="0.5" y2="30"/><line opacity="0.2" x1="495.1548832227527" x2="495.1548832227527" y1="0.5" y2="30"/><line opacity="0.2" x1="247.8110492782005" x2="247.8110492782005" y1="0.5" y2="30"/><line opacity="0.2" x1="164.25190243692134" x2="164.25190243692134" y1="0.5" y2="30"/><line opacity="0.2" x1="417.7143760505805" x2="417.7143760505805" y1="0.5" y2="30"/><line opacity="0.2" x1="149.74042807746596" x2="149.74042807746596" y1="0.5" y2="30"/><line opacity="0.2" x1="326.2953917486604" x2="326.2953917486604" y1="0.5" y2="30"/><line opacity="0.2" x1="254.37293416581844" x2="254.37293416581844" y1="0.5" y2="30"/><line opacity="0.2" x1="258.02382038793223" x2="258.02382038793223" y1="0.5" y2="30"/><line opacity="0.2" x1="526.2801485369721" x2="526.2801485369721" y1="0.5" y2="30"/><line opacity="0.2" x1="420.5093620360499" x2="420.5093620360499" y1="0.5" y2="30"/><line opacity="0.2" x1="304.37186178242933" x2="304.37186178242933" y1="0.5" y2="30"/><line opacity="0.2" x1="481.0273150093263" x2="481.0273150093263" y1="0.5" y2="30"/><line opacity="0.2" x1="231.9301445995491" x2="231.9301445995491" y1="0.5" y2="30"/><line opacity="0.2" x1="303.2852372834449" x2="303.2852372834449" y1="0.5" y2="30"/><line opacity="0.2" x1="305.56888653428064" x2="305.56888653428064" y1="0.5" y2="30"/><line opacity="0.2" x1="373.0625760336004" x2="373.0625760336004" y1="0.5" y2="30"/><line opacity="0.2" x1="249.46305112115743" x2="249.46305112115743" y1="0.5" y2="30"/><line opacity="0.2" x1="446.8275901534922" x2="446.8275901534922" y1="0.5" y2="30"/><line opacity="0.2" x1="376.61471436632525" x2="376.61471436632525" y1="0.5" y2="30"/><line opacity="0.2" x1="187.0045948798745" x2="187.0045948798745" y1="0.5" y2="30"/><line opacity="0.2" x1="265.6961300795017" x2="265.6961300795017" y1="0.5" y2="30"/><line opacity="0.2" x1="353.10437897035007" x2="353.10437897035007" y1="0.5" y2="30"/><line opacity="0.2" x1="247.13116610736486" x2="247.13116610736486" y1="0.5" y2="30"/><line opacity="0.2" x1="315.67920567645405" x2="315.67920567645405" y1="0.5" y2="30"/><line opacity="0.2" x1="522.6235917666384" x2="522.6235917666384" y1="0.5" y2="30"/><line opacity="0.2" x1="324.3721993733998" x2="324.3721993733998" y1="0.5" y2="30"/><line opacity="0.2" x1="357.0029202863751" x2="357.0029202863751" y1="0.5" y2="30"/><line opacity="0.2" x1="336.92852866818976" x2="336.92852866818976" y1="0.5" y2="30"/><line opacity="0.2" x1="283.9553074873855" x2="283.9553074873855" y1="0.5" y2="30"/><line opacity="0.2" x1="262.38761487775656" x2="262.38761487775656" y1="0.5" y2="30"/><line opacity="0.2" x1="365.5580397120339" x2="365.5580397120339" y1="0.5" y2="30"/><line opacity="0.2" x1="336.87044008772597" x2="336.87044008772597" y1="0.5" y2="30"/><line opacity="0.2" x1="418.3130328008584" x2="418.3130328008584" y1="0.5" y2="30"/><line opacity="0.2" x1="283.3253087144292" x2="283.3253087144292" y1="0.5" y2="30"/><line opacity="0.2" x1="335.1400786013776" x2="335.1400786013776" y1="0.5" y2="30"/><line opacity="0.2" x1="325.7728971561586" x2="325.7728971561586" y1="0.5" y2="30"/><line opacity="0.2" x1="211.2111942744511" x2="211.2111942744511" y1="0.5" y2="30"/><line opacity="0.2" x1="234.76263357160718" x2="234.76263357160718" y1="0.5" y2="30"/><line opacity="0.2" x1="230.90628435866782" x2="230.90628435866782" y1="0.5" y2="30"/><line opacity="0.2" x1="266.268493014486" x2="266.268493014486" y1="0.5" y2="30"/><line opacity="0.2" x1="295.3599282788483" x2="295.3599282788483" y1="0.5" y2="30"/><line opacity="0.2" x1="182.79744561068964" x2="182.79744561068964" y1="0.5" y2="30"/><line opacity="0.2" x1="226.77768625920285" x2="226.77768625920285" y1="0.5" y2="30"/><line opacity="0.2" x1="242.48387000489006" x2="242.48387000489006" y1="0.5" y2="30"/><line opacity="0.2" x1="164.04752380158988" x2="164.04752380158988" y1="0.5" y2="30"/><line opacity="0.2" x1="406.1367860934426" x2="406.1367860934426" y1="0.5" y2="30"/><line opacity="0.2" x1="326.8139710029097" x2="326.8139710029097" y1="0.5" y2="30"/><line opacity="0.2" x1="359.7680795234922" x2="359.7680795234922" y1="0.5" y2="30"/><line opacity="0.2" x1="455.30077385521594" x2="455.30077385521594" y1="0.5" y2="30"/><line opacity="0.2" x1="352.50327205459325" x2="352.50327205459325" y1="0.5" y2="30"/><line opacity="0.2" x1="336.1751337697177" x2="336.1751337697177" y1="0.5" y2="30"/><line opacity="0.2" x1="214.3173567447059" x2="214.3173567447059" y1="0.5" y2="30"/><line opacity="0.2" x1="340.98618241102076" x2="340.98618241102076" y1="0.5" y2="30"/><line opacity="0.2" x1="326.2443322038185" x2="326.2443322038185" y1="0.5" y2="30"/><line opacity="0.2" x1="255.55020141909108" x2="255.55020141909108" y1="0.5" y2="30"/><line opacity="0.2" x1="493.3156795880054" x2="493.3156795880054" y1="0.5" y2="30"/><line opacity="0.2" x1="237.04034136524152" x2="237.04034136524152" y1="0.5" y2="30"/><line opacity="0.2" x1="413.34806808393705" x2="413.34806808393705" y1="0.5" y2="30"/><line opacity="0.2" x1="224.48367991924258" x2="224.48367991924258" y1="0.5" y2="30"/><line opacity="0.2" x1="506.16971430058265" x2="506.16971430058265" y1="0.5" y2="30"/><line opacity="0.2" x1="238.94469832059664" x2="238.94469832059664" y1="0.5" y2="30"/><line opacity="0.2" x1="336.28837502745915" x2="336.28837502745915" y1="0.5" y2="30"/><line opacity="0.2" x1="477.5627540054879" x2="477.5627540054879" y1="0.5" y2="30"/><line opacity="0.2" x1="227.87682321467108" x2="227.87682321467108" y1="0.5" y2="30"/><line opacity="0.2" x1="391.2809675857917" x2="391.2809675857917" y1="0.5" y2="30"/><line opacity="0.2" x1="426.2800675629537" x2="426.2800675629537" y1="0.5" y2="30"/><line opacity="0.2" x1="462.65074028171676" x2="462.65074028171676" y1="0.5" y2="30"/><line opacity="0.2" x1="241.4321778771593" x2="241.4321778771593" y1="0.5" y2="30"/><line opacity="0.2" x1="320.446254590036" x2="320.446254590036" y1="0.5" y2="30"/><line opacity="0.2" x1="384.4918595667301" x2="384.4918595667301" y1="0.5" y2="30"/><line opacity="0.2" x1="374.2492330957362" x2="374.2492330957362" y1="0.5" y2="30"/><line opacity="0.2" x1="405.097161838892" x2="405.097161838892" y1="0.5" y2="30"/><line opacity="0.2" x1="381.71813238699247" x2="381.71813238699247" y1="0.5" y2="30"/><line opacity="0.2" x1="234.9179333410246" x2="234.9179333410246" y1="0.5" y2="30"/><line opacity="0.2" x1="256.93335671422784" x2="256.93335671422784" y1="0.5" y2="30"/><line opacity="0.2" x1="432.2813469445866" x2="432.2813469445866" y1="0.5" y2="30"/><line opacity="0.2" x1="168.12537045117853" x2="168.12537045117853" y1="0.5" y2="30"/><line opacity="0.2" x1="425.9408760976022" x2="425.9408760976022" y1="0.5" y2="30"/><line opacity="0.2" x1="314.9328100584837" x2="314.9328100584837" y1="0.5" y2="30"/><line opacity="0.2" x1="288.3529513933066" x2="288.3529513933066" y1="0.5" y2="30"/><line opacity="0.2" x1="432.49848103258756" x2="432.49848103258756" y1="0.5" y2="30"/><line opacity="0.2" x1="260.5739979770434" x2="260.5739979770434" y1="0.5" y2="30"/><line opacity="0.2" x1="171.67507156413737" x2="171.67507156413737" y1="0.5" y2="30"/><line opacity="0.2" x1="410.4617821132867" x2="410.4617821132867" y1="0.5" y2="30"/><line opacity="0.2" x1="361.5834746165809" x2="361.5834746165809" y1="0.5" y2="30"/><line opacity="0.2" x1="257.3655741722057" x2="257.3655741722057" y1="0.5" y2="30"/><line opacity="0.2" x1="287.57079173840333" x2="287.57079173840333" y1="0.5" y2="30"/><line opacity="0.2" x1="416.00735220310975" x2="416.00735220310975" y1="0.5" y2="30"/><line opacity="0.2" x1="286.3713174753417" x2="286.3713174753417" y1="0.5" y2="30"/><line opacity="0.2" x1="209.4738116244432" x2="209.4738116244432" y1="0.5" y2="30"/><line opacity="0.2" x1="115.4749669786904" x2="115.4749669786904" y1="0.5" y2="30"/><line opacity="0.2" x1="278.23451184501516" x2="278.23451184501516" y1="0.5" y2="30"/><line opacity="0.2" x1="285.77549149882464" x2="285.77549149882464" y1="0.5" y2="30"/><line opacity="0.2" x1="235.00975804145025" x2="235.00975804145025" y1="0.5" y2="30"/><line opacity="0.2" x1="297.90869705208377" x2="297.90869705208377" y1="0.5" y2="30"/><line opacity="0.2" x1="350.97851537615765" x2="350.97851537615765" y1="0.5" y2="30"/><line opacity="0.2" x1="246.3674773120805" x2="246.3674773120805" y1="0.5" y2="30"/><line opacity="0.2" x1="389.29730571613834" x2="389.29730571613834" y1="0.5" y2="30"/><line opacity="0.2" x1="254.91181758577903" x2="254.91181758577903" y1="0.5" y2="30"/><line opacity="0.2" x1="347.6059520274584" x2="347.6059520274584" y1="0.5" y2="30"/><line opacity="0.2" x1="298.933658137507" x2="298.933658137507" y1="0.5" y2="30"/><line opacity="0.2" x1="381.95046215673796" x2="381.95046215673796" y1="0.5" y2="30"/><line opacity="0.2" x1="253.70547239216376" x2="253.70547239216376" y1="0.5" y2="30"/><line opacity="0.2" x1="245.28493030087583" x2="245.28493030087583" y1="0.5" y2="30"/><line opacity="0.2" x1="405.41983093889934" x2="405.41983093889934" y1="0.5" y2="30"/><line opacity="0.2" x1="370.4651145405831" x2="370.4651145405831" y1="0.5" y2="30"/><line opacity="0.2" x1="363.38769242188215" x2="363.38769242188215" y1="0.5" y2="30"/><line opacity="0.2" x1="485.79055925812827" x2="485.79055925812827" y1="0.5" y2="30"/><line opacity="0.2" x1="413.6310213953816" x2="413.6310213953816" y1="0.5" y2="30"/><line opacity="0.2" x1="383.5209489334739" x2="383.5209489334739" y1="0.5" y2="30"/><line opacity="0.2" x1="410.4803959643661" x2="410.4803959643661" y1="0.5" y2="30"/><line opacity="0.2" x1="183.88030650490242" x2="183.88030650490242" y1="0.5" y2="30"/><line opacity="0.2" x1="340.72804527605126" x2="340.72804527605126" y1="0.5" y2="30"/><line opacity="0.2" x1="503.4889027648621" x2="503.4889027648621" y1="0.5" y2="30"/><line opacity="0.2" x1="291.0596595675234" x2="291.0596595675234" y1="0.5" y2="30"/><line opacity="0.2" x1="84.2001188120712" x2="84.2001188120712" y1="0.5" y2="30"/><line opacity="0.2" x1="153.10828419079604" x2="153.10828419079604" y1="0.5" y2="30"/><line opacity="0.2" x1="215.66810555246252" x2="215.66810555246252" y1="0.5" y2="30"/><line opacity="0.2" x1="348.55418750014434" x2="348.55418750014434" y1="0.5" y2="30"/><line opacity="0.2" x1="275.2232133120892" x2="275.2232133120892" y1="0.5" y2="30"/><line opacity="0.2" x1="436.55340692817725" x2="436.55340692817725" y1="0.5" y2="30"/><line opacity="0.2" x1="238.9304676504499" x2="238.9304676504499" y1="0.5" y2="30"/><line opacity="0.2" x1="419.4410367034073" x2="419.4410367034073" y1="0.5" y2="30"/><line opacity="0.2" x1="397.22048505793913" x2="397.22048505793913" y1="0.5" y2="30"/><line opacity="0.2" x1="265.8472345390304" x2="265.8472345390304" y1="0.5" y2="30"/><line opacity="0.2" x1="313.40420298617784" x2="313.40420298617784" y1="0.5" y2="30"/><line opacity="0.2" x1="304.1957707548065" x2="304.1957707548065" y1="0.5" y2="30"/><line opacity="0.2" x1="339.5189027070452" x2="339.5189027070452" y1="0.5" y2="30"/><line opacity="0.2" x1="179.57931151332193" x2="179.57931151332193" y1="0.5" y2="30"/><line opacity="0.2" x1="316.4078066753289" x2="316.4078066753289" y1="0.5" y2="30"/><line opacity="0.2" x1="417.32947241911666" x2="417.32947241911666" y1="0.5" y2="30"/><line opacity="0.2" x1="216.02459718623425" x2="216.02459718623425" y1="0.5" y2="30"/><line opacity="0.2" x1="414.18173353920923" x2="414.18173353920923" y1="0.5" y2="30"/><line opacity="0.2" x1="318.9515742621236" x2="318.9515742621236" y1="0.5" y2="30"/><line opacity="0.2" x1="318.72920829488874" x2="318.72920829488874" y1="0.5" y2="30"/><line opacity="0.2" x1="351.53619844081834" x2="351.53619844081834" y1="0.5" y2="30"/><line opacity="0.2" x1="181.62304619704588" x2="181.62304619704588" y1="0.5" y2="30"/><line opacity="0.2" x1="283.856002452942" x2="283.856002452942" y1="0.5" y2="30"/><line opacity="0.2" x1="295.73262887719693" x2="295.73262887719693" y1="0.5" y2="30"/><line opacity="0.2" x1="427.720610749302" x2="427.720610749302" y1="0.5" y2="30"/><line opacity="0.2" x1="166.41017618014223" x2="166.41017618014223" y1="0.5" y2="30"/><line opacity="0.2" x1="246.43112629407685" x2="246.43112629407685" y1="0.5" y2="30"/><line opacity="0.2" x1="97.03484099412574" x2="97.03484099412574" y1="0.5" y2="30"/><line opacity="0.2" x1="214.73181076843187" x2="214.73181076843187" y1="0.5" y2="30"/><line opacity="0.2" x1="326.5791771179751" x2="326.5791771179751" y1="0.5" y2="30"/><line opacity="0.2" x1="284.08232722771663" x2="284.08232722771663" y1="0.5" y2="30"/><line opacity="0.2" x1="366.2629622699772" x2="366.2629622699772" y1="0.5" y2="30"/><line opacity="0.2" x1="331.42687885844606" x2="331.42687885844606" y1="0.5" y2="30"/><line opacity="0.2" x1="369.13378675940913" x2="369.13378675940913" y1="0.5" y2="30"/><line opacity="0.2" x1="344.2317947541762" x2="344.2317947541762" y1="0.5" y2="30"/><line opacity="0.2" x1="264.28894226333404" x2="264.28894226333404" y1="0.5" y2="30"/><line opacity="0.2" x1="299.54146586553316" x2="299.54146586553316" y1="0.5" y2="30"/><line opacity="0.2" x1="399.6093705581231" x2="399.6093705581231" y1="0.5" y2="30"/><line opacity="0.2" x1="458.05640351838554" x2="458.05640351838554" y1="0.5" y2="30"/><line opacity="0.2" x1="106.08001674591465" x2="106.08001674591465" y1="0.5" y2="30"/><line opacity="0.2" x1="350.715785199122" x2="350.715785199122" y1="0.5" y2="30"/><line opacity="0.2" x1="352.7787501364067" x2="352.7787501364067" y1="0.5" y2="30"/><line opacity="0.2" x1="200.78998550865862" x2="200.78998550865862" y1="0.5" y2="30"/><line opacity="0.2" x1="383.6085844968955" x2="383.6085844968955" y1="0.5" y2="30"/><line opacity="0.2" x1="249.27506386084625" x2="249.27506386084625" y1="0.5" y2="30"/><line opacity="0.2" x1="328.93385181309026" x2="328.93385181309026" y1="0.5" y2="30"/><line opacity="0.2" x1="306.1184513812756" x2="306.1184513812756" y1="0.5" y2="30"/><line opacity="0.2" x1="279.121844497048" x2="279.121844497048" y1="0.5" y2="30"/><line opacity="0.2" x1="264.28809791485185" x2="264.28809791485185" y1="0.5" y2="30"/><line opacity="0.2" x1="323.24176225357087" x2="323.24176225357087" y1="0.5" y2="30"/><line opacity="0.2" x1="347.3808100156609" x2="347.3808100156609" y1="0.5" y2="30"/><line opacity="0.2" x1="268.6136010476907" x2="268.6136010476907" y1="0.5" y2="30"/><line opacity="0.2" x1="278.46480800217574" x2="278.46480800217574" y1="0.5" y2="30"/><line opacity="0.2" x1="335.5955503673751" x2="335.5955503673751" y1="0.5" y2="30"/><line opacity="0.2" x1="359.162917050932" x2="359.162917050932" y1="0.5" y2="30"/><line opacity="0.2" x1="390.6366179321586" x2="390.6366179321586" y1="0.5" y2="30"/><line opacity="0.2" x1="295.77458330487934" x2="295.77458330487934" y1="0.5" y2="30"/><line opacity="0.2" x1="267.88139927661354" x2="267.88139927661354" y1="0.5" y2="30"/><line opacity="0.2" x1="518.7796767220124" x2="518.7796767220124" y1="0.5" y2="30"/><line opacity="0.2" x1="246.31507606909958" x2="246.31507606909958" y1="0.5" y2="30"/><line opacity="0.2" x1="324.99396570612737" x2="324.99396570612737" y1="0.5" y2="30"/><line opacity="0.2" x1="190.97754338901217" x2="190.97754338901217" y1="0.5" y2="30"/><line opacity="0.2" x1="230.9626310952546" x2="230.9626310952546" y1="0.5" y2="30"/><line opacity="0.2" x1="285.71792946715715" x2="285.71792946715715" y1="0.5" y2="30"/><line opacity="0.2" x1="312.0189962232687" x2="312.0189962232687" y1="0.5" y2="30"/><line opacity="0.2" x1="382.34775797913056" x2="382.34775797913056" y1="0.5" y2="30"/><line opacity="0.2" x1="320.99253983461927" x2="320.99253983461927" y1="0.5" y2="30"/><line opacity="0.2" x1="483.6619148439657" x2="483.6619148439657" y1="0.5" y2="30"/><line opacity="0.2" x1="326.35853364089576" x2="326.35853364089576" y1="0.5" y2="30"/><line opacity="0.2" x1="277.90208542999676" x2="277.90208542999676" y1="0.5" y2="30"/><line opacity="0.2" x1="430.05881625620054" x2="430.05881625620054" y1="0.5" y2="30"/><line opacity="0.2" x1="390.5159767891016" x2="390.5159767891016" y1="0.5" y2="30"/><line opacity="0.2" x1="231.89275605465772" x2="231.89275605465772" y1="0.5" y2="30"/><line opacity="0.2" x1="382.36862216427454" x2="382.36862216427454" y1="0.5" y2="30"/><line opacity="0.2" x1="196.11599516063012" x2="196.11599516063012" y1="0.5" y2="30"/><line opacity="0.2" x1="200.98018159913286" x2="200.98018159913286" y1="0.5" y2="30"/><line opacity="0.2" x1="235.57475118036203" x2="235.57475118036203" y1="0.5" y2="30"/><line opacity="0.2" x1="274.09218946299137" x2="274.09218946299137" y1="0.5" y2="30"/><line opacity="0.2" x1="294.08732784686646" x2="294.08732784686646" y1="0.5" y2="30"/><line opacity="0.2" x1="332.0667078190757" x2="332.0667078190757" y1="0.5" y2="30"/><line opacity="0.2" x1="372.28350605129106" x2="372.28350605129106" y1="0.5" y2="30"/><line opacity="0.2" x1="354.65473829414327" x2="354.65473829414327" y1="0.5" y2="30"/><line opacity="0.2" x1="412.3356768434419" x2="412.3356768434419" y1="0.5" y2="30"/><line opacity="0.2" x1="327.7035241732715" x2="327.7035241732715" y1="0.5" y2="30"/><line opacity="0.2" x1="436.4457815655157" x2="436.4457815655157" y1="0.5" y2="30"/><line opacity="0.2" x1="251.44015455843504" x2="251.44015455843504" y1="0.5" y2="30"/><line opacity="0.2" x1="368.49044201202446" x2="368.49044201202446" y1="0.5" y2="30"/><line opacity="0.2" x1="345.1954942757831" x2="345.1954942757831" y1="0.5" y2="30"/><line opacity="0.2" x1="227.51324860191372" x2="227.51324860191372" y1="0.5" y2="30"/><line opacity="0.2" x1="186.83478064074967" x2="186.83478064074967" y1="0.5" y2="30"/><line opacity="0.2" x1="180.67484927530398" x2="180.67484927530398" y1="0.5" y2="30"/><line opacity="0.2" x1="194.81561586530995" x2="194.81561586530995" y1="0.5" y2="30"/><line opacity="0.2" x1="138.14076922109564" x2="138.14076922109564" y1="0.5" y2="30"/><line opacity="0.2" x1="472.500506220762" x2="472.500506220762" y1="0.5" y2="30"/><line opacity="0.2" x1="446.26934467609925" x2="446.26934467609925" y1="0.5" y2="30"/><line opacity="0.2" x1="105.41901282503824" x2="105.41901282503824" y1="0.5" y2="30"/><line opacity="0.2" x1="329.055942414853" x2="329.055942414853" y1="0.5" y2="30"/><line opacity="0.2" x1="256.87219990260655" x2="256.87219990260655" y1="0.5" y2="30"/><line opacity="0.2" x1="242.6485205742733" x2="242.6485205742733" y1="0.5" y2="30"/><line opacity="0.2" x1="333.95847371364766" x2="333.95847371364766" y1="0.5" y2="30"/><line opacity="0.2" x1="392.24296256170874" x2="392.24296256170874" y1="0.5" y2="30"/><line opacity="0.2" x1="483.02582022320775" x2="483.02582022320775" y1="0.5" y2="30"/><line opacity="0.2" x1="218.1275895559828" x2="218.1275895559828" y1="0.5" y2="30"/><line opacity="0.2" x1="301.65733316738493" x2="301.65733316738493" y1="0.5" y2="30"/><line opacity="0.2" x1="240.56888798107462" x2="240.56888798107462" y1="0.5" y2="30"/><line opacity="0.2" x1="243.3785034762204" x2="243.3785034762204" y1="0.5" y2="30"/><line opacity="0.2" x1="339.9081721811205" x2="339.9081721811205" y1="0.5" y2="30"/><line opacity="0.2" x1="374.1095299573833" x2="374.1095299573833" y1="0.5" y2="30"/><line opacity="0.2" x1="321.4469738238328" x2="321.4469738238328" y1="0.5" y2="30"/><line opacity="0.2" x1="221.59124158228943" x2="221.59124158228943" y1="0.5" y2="30"/><line opacity="0.2" x1="315.0088393980084" x2="315.0088393980084" y1="0.5" y2="30"/><line opacity="0.2" x1="425.8673573792565" x2="425.8673573792565" y1="0.5" y2="30"/><line opacity="0.2" x1="280.23383832801807" x2="280.23383832801807" y1="0.5" y2="30"/><line opacity="0.2" x1="332.2834293267737" x2="332.2834293267737" y1="0.5" y2="30"/><line opacity="0.2" x1="261.5351990929078" x2="261.5351990929078" y1="0.5" y2="30"/><line opacity="0.2" x1="248.07215493747546" x2="248.07215493747546" y1="0.5" y2="30"/><line opacity="0.2" x1="309.86590531900254" x2="309.86590531900254" y1="0.5" y2="30"/><line opacity="0.2" x1="227.68013447736064" x2="227.68013447736064" y1="0.5" y2="30"/><line opacity="0.2" x1="285.5417336601505" x2="285.5417336601505" y1="0.5" y2="30"/><line opacity="0.2" x1="271.9632333328101" x2="271.9632333328101" y1="0.5" y2="30"/><line opacity="0.2" x1="319.0393783515776" x2="319.0393783515776" y1="0.5" y2="30"/><line opacity="0.2" x1="124.5630256509535" x2="124.5630256509535" y1="0.5" y2="30"/><line opacity="0.2" x1="371.3491558782946" x2="371.3491558782946" y1="0.5" y2="30"/><line opacity="0.2" x1="377.54938210955567" x2="377.54938210955567" y1="0.5" y2="30"/><line opacity="0.2" x1="273.0201035960034" x2="273.0201035960034" y1="0.5" y2="30"/><line opacity="0.2" x1="407.57311344035713" x2="407.57311344035713" y1="0.5" y2="30"/><line opacity="0.2" x1="420.1651865301315" x2="420.1651865301315" y1="0.5" y2="30"/><line opacity="0.2" x1="219.71241198986357" x2="219.71241198986357" y1="0.5" y2="30"/><line opacity="0.2" x1="299.0763028383145" x2="299.0763028383145" y1="0.5" y2="30"/><line opacity="0.2" x1="423.93724925082125" x2="423.93724925082125" y1="0.5" y2="30"/><line opacity="0.2" x1="220.70707717363018" x2="220.70707717363018" y1="0.5" y2="30"/><line opacity="0.2" x1="433.8130360123917" x2="433.8130360123917" y1="0.5" y2="30"/><line opacity="0.2" x1="291.3445594916658" x2="291.3445594916658" y1="0.5" y2="30"/><line opacity="0.2" x1="293.2875017611683" x2="293.2875017611683" y1="0.5" y2="30"/><line opacity="0.2" x1="491.8760288525656" x2="491.8760288525656" y1="0.5" y2="30"/><line opacity="0.2" x1="372.1374429840867" x2="372.1374429840867" y1="0.5" y2="30"/><line opacity="0.2" x1="406.6467666856675" x2="406.6467666856675" y1="0.5" y2="30"/><line opacity="0.2" x1="365.02503971450716" x2="365.02503971450716" y1="0.5" y2="30"/><line opacity="0.2" x1="257.1484725378974" x2="257.1484725378974" y1="0.5" y2="30"/><line opacity="0.2" x1="277.4745161069242" x2="277.4745161069242" y1="0.5" y2="30"/><line opacity="0.2" x1="367.23141928159833" x2="367.23141928159833" y1="0.5" y2="30"/><line opacity="0.2" x1="443.87341347971454" x2="443.87341347971454" y1="0.5" y2="30"/><line opacity="0.2" x1="359.8426197557416" x2="359.8426197557416" y1="0.5" y2="30"/><line opacity="0.2" x1="194.9681003499582" x2="194.9681003499582" y1="0.5" y2="30"/><line opacity="0.2" x1="320.756437932009" x2="320.756437932009" y1="0.5" y2="30"/><line opacity="0.2" x1="310.77796693741294" x2="310.77796693741294" y1="0.5" y2="30"/><line opacity="0.2" x1="230.80784310342528" x2="230.80784310342528" y1="0.5" y2="30"/><line opacity="0.2" x1="252.9627197740842" x2="252.9627197740842" y1="0.5" y2="30"/><line opacity="0.2" x1="369.5884534738296" x2="369.5884534738296" y1="0.5" y2="30"/><line opacity="0.2" x1="262.93087652026236" x2="262.93087652026236" y1="0.5" y2="30"/><line opacity="0.2" x1="281.7835576330206" x2="281.7835576330206" y1="0.5" y2="30"/><line opacity="0.2" x1="328.7483439411957" x2="328.7483439411957" y1="0.5" y2="30"/><line opacity="0.2" x1="400.6631506156398" x2="400.6631506156398" y1="0.5" y2="30"/><line opacity="0.2" x1="38.629344331148765" x2="38.629344331148765" y1="0.5" y2="30"/><line opacity="0.2" x1="124.42848787372797" x2="124.42848787372797" y1="0.5" y2="30"/><line opacity="0.2" x1="249.4237826921879" x2="249.4237826921879" y1="0.5" y2="30"/><line opacity="0.2" x1="240.89631862873802" x2="240.89631862873802" y1="0.5" y2="30"/><line opacity="0.2" x1="202.4408589298365" x2="202.4408589298365" y1="0.5" y2="30"/><line opacity="0.2" x1="187.46083658539084" x2="187.46083658539084" y1="0.5" y2="30"/><line opacity="0.2" x1="210.21336437295813" x2="210.21336437295813" y1="0.5" y2="30"/><line opacity="0.2" x1="400.771354954909" x2="400.771354954909" y1="0.5" y2="30"/><line opacity="0.2" x1="222.2950416322896" x2="222.2950416322896" y1="0.5" y2="30"/><line opacity="0.2" x1="271.91000893212095" x2="271.91000893212095" y1="0.5" y2="30"/><line opacity="0.2" x1="249.3157926453563" x2="249.3157926453563" y1="0.5" y2="30"/><line opacity="0.2" x1="312.2623111108635" x2="312.2623111108635" y1="0.5" y2="30"/><line opacity="0.2" x1="410.4104533664705" x2="410.4104533664705" y1="0.5" y2="30"/><line opacity="0.2" x1="189.2153600266492" x2="189.2153600266492" y1="0.5" y2="30"/><line opacity="0.2" x1="271.3610481992882" x2="271.3610481992882" y1="0.5" y2="30"/><line opacity="0.2" x1="260.0827327574075" x2="260.0827327574075" y1="0.5" y2="30"/><line opacity="0.2" x1="367.2385006275526" x2="367.2385006275526" y1="0.5" y2="30"/><line opacity="0.2" x1="200.48278788850754" x2="200.48278788850754" y1="0.5" y2="30"/><line opacity="0.2" x1="370.4554982312852" x2="370.4554982312852" y1="0.5" y2="30"/><line opacity="0.2" x1="300.4501586172115" x2="300.4501586172115" y1="0.5" y2="30"/><line opacity="0.2" x1="322.03098563429916" x2="322.03098563429916" y1="0.5" y2="30"/><line opacity="0.2" x1="316.76991523728225" x2="316.76991523728225" y1="0.5" y2="30"/><line opacity="0.2" x1="329.6121087003632" x2="329.6121087003632" y1="0.5" y2="30"/><line opacity="0.2" x1="310.5293429262301" x2="310.5293429262301" y1="0.5" y2="30"/><line opacity="0.2" x1="445.1539159789678" x2="445.1539159789678" y1="0.5" y2="30"/><line opacity="0.2" x1="343.5722376485787" x2="343.5722376485787" y1="0.5" y2="30"/><line opacity="0.2" x1="236.10248039650594" x2="236.10248039650594" y1="0.5" y2="30"/><line opacity="0.2" x1="322.4193282413796" x2="322.4193282413796" y1="0.5" y2="30"/><line opacity="0.2" x1="345.36310384699203" x2="345.36310384699203" y1="0.5" y2="30"/><line opacity="0.2" x1="154.65541369143668" x2="154.65541369143668" y1="0.5" y2="30"/><line opacity="0.2" x1="485.8986544373043" x2="485.8986544373043" y1="0.5" y2="30"/><line opacity="0.2" x1="304.58005505009703" x2="304.58005505009703" y1="0.5" y2="30"/><line opacity="0.2" x1="219.4745472478648" x2="219.4745472478648" y1="0.5" y2="30"/><line opacity="0.2" x1="206.40593099826424" x2="206.40593099826424" y1="0.5" y2="30"/><line opacity="0.2" x1="320.3794136374619" x2="320.3794136374619" y1="0.5" y2="30"/><line opacity="0.2" x1="382.6893474977089" x2="382.6893474977089" y1="0.5" y2="30"/><line opacity="0.2" x1="300.828875584547" x2="300.828875584547" y1="0.5" y2="30"/><line opacity="0.2" x1="215.6403289325277" x2="215.6403289325277" y1="0.5" y2="30"/><line opacity="0.2" x1="385.25895481802365" x2="385.25895481802365" y1="0.5" y2="30"/><line opacity="0.2" x1="512.4021448496746" x2="512.4021448496746" y1="0.5" y2="30"/><line opacity="0.2" x1="236.8588432328123" x2="236.8588432328123" y1="0.5" y2="30"/><line opacity="0.2" x1="380.23432742899223" x2="380.23432742899223" y1="0.5" y2="30"/><line opacity="0.2" x1="149.13733486957648" x2="149.13733486957648" y1="0.5" y2="30"/><line opacity="0.2" x1="265.65050131050486" x2="265.65050131050486" y1="0.5" y2="30"/><line opacity="0.2" x1="215.57506529964164" x2="215.57506529964164" y1="0.5" y2="30"/><line opacity="0.2" x1="476.26985081717606" x2="476.26985081717606" y1="0.5" y2="30"/><line opacity="0.2" x1="232.51776536357727" x2="232.51776536357727" y1="0.5" y2="30"/><line opacity="0.2" x1="230.21784186251136" x2="230.21784186251136" y1="0.5" y2="30"/><line opacity="0.2" x1="275.9546635859232" x2="275.9546635859232" y1="0.5" y2="30"/><line opacity="0.2" x1="307.2196854131451" x2="307.2196854131451" y1="0.5" y2="30"/><line opacity="0.2" x1="189.48038609048527" x2="189.48038609048527" y1="0.5" y2="30"/><line opacity="0.2" x1="370.61598988984576" x2="370.61598988984576" y1="0.5" y2="30"/><line opacity="0.2" x1="226.815409914506" x2="226.815409914506" y1="0.5" y2="30"/><line opacity="0.2" x1="127.38019764935876" x2="127.38019764935876" y1="0.5" y2="30"/><line opacity="0.2" x1="226.74147391334878" x2="226.74147391334878" y1="0.5" y2="30"/><line opacity="0.2" x1="206.7099159891543" x2="206.7099159891543" y1="0.5" y2="30"/><line opacity="0.2" x1="365.97217418940716" x2="365.97217418940716" y1="0.5" y2="30"/><line opacity="0.2" x1="198.26880619298947" x2="198.26880619298947" y1="0.5" y2="30"/><line opacity="0.2" x1="157.31887865209546" x2="157.31887865209546" y1="0.5" y2="30"/><line opacity="0.2" x1="271.5461863977499" x2="271.5461863977499" y1="0.5" y2="30"/><line opacity="0.2" x1="314.6754376748298" x2="314.6754376748298" y1="0.5" y2="30"/><line opacity="0.2" x1="224.8007193624947" x2="224.8007193624947" y1="0.5" y2="30"/><line opacity="0.2" x1="315.06371054398033" x2="315.06371054398033" y1="0.5" y2="30"/><line opacity="0.2" x1="415.2396642367653" x2="415.2396642367653" y1="0.5" y2="30"/><line opacity="0.2" x1="408.95760023128736" x2="408.95760023128736" y1="0.5" y2="30"/><line opacity="0.2" x1="274.4481782924904" x2="274.4481782924904" y1="0.5" y2="30"/><line opacity="0.2" x1="310.6668281762918" x2="310.6668281762918" y1="0.5" y2="30"/><line opacity="0.2" x1="408.46376732576135" x2="408.46376732576135" y1="0.5" y2="30"/><line opacity="0.2" x1="331.01628046193366" x2="331.01628046193366" y1="0.5" y2="30"/><line opacity="0.2" x1="370.12776723601905" x2="370.12776723601905" y1="0.5" y2="30"/><line opacity="0.2" x1="310.02181622367175" x2="310.02181622367175" y1="0.5" y2="30"/><line opacity="0.2" x1="197.8377661885756" x2="197.8377661885756" y1="0.5" y2="30"/><line opacity="0.2" x1="211.73373903830375" x2="211.73373903830375" y1="0.5" y2="30"/><line opacity="0.2" x1="427.1049764453838" x2="427.1049764453838" y1="0.5" y2="30"/><line opacity="0.2" x1="283.9317705312047" x2="283.9317705312047" y1="0.5" y2="30"/><line opacity="0.2" x1="152.1196860204789" x2="152.1196860204789" y1="0.5" y2="30"/><line opacity="0.2" x1="217.43335687875964" x2="217.43335687875964" y1="0.5" y2="30"/><line opacity="0.2" x1="279.87529027801156" x2="279.87529027801156" y1="0.5" y2="30"/><line opacity="0.2" x1="281.8553432023664" x2="281.8553432023664" y1="0.5" y2="30"/><line opacity="0.2" x1="267.9874335029214" x2="267.9874335029214" y1="0.5" y2="30"/><line opacity="0.2" x1="309.8393235483448" x2="309.8393235483448" y1="0.5" y2="30"/><line opacity="0.2" x1="305.8532647990394" x2="305.8532647990394" y1="0.5" y2="30"/><line opacity="0.2" x1="388.3501082305864" x2="388.3501082305864" y1="0.5" y2="30"/><line opacity="0.2" x1="397.1184529629964" x2="397.1184529629964" y1="0.5" y2="30"/><line opacity="0.2" x1="384.79437266297697" x2="384.79437266297697" y1="0.5" y2="30"/><line opacity="0.2" x1="273.27485172335787" x2="273.27485172335787" y1="0.5" y2="30"/><line opacity="0.2" x1="392.12208132977594" x2="392.12208132977594" y1="0.5" y2="30"/><line opacity="0.2" x1="292.5539200479259" x2="292.5539200479259" y1="0.5" y2="30"/><line opacity="0.2" x1="243.45460387471846" x2="243.45460387471846" y1="0.5" y2="30"/><line opacity="0.2" x1="250.38836669948785" x2="250.38836669948785" y1="0.5" y2="30"/><line opacity="0.2" x1="383.94518233019045" x2="383.94518233019045" y1="0.5" y2="30"/><line opacity="0.2" x1="445.425779837274" x2="445.425779837274" y1="0.5" y2="30"/><line opacity="0.2" x1="313.5808235866958" x2="313.5808235866958" y1="0.5" y2="30"/><line opacity="0.2" x1="465.80603280411225" x2="465.80603280411225" y1="0.5" y2="30"/><line opacity="0.2" x1="423.7658100258186" x2="423.7658100258186" y1="0.5" y2="30"/><line opacity="0.2" x1="228.26193185599413" x2="228.26193185599413" y1="0.5" y2="30"/><line opacity="0.2" x1="157.87763060180444" x2="157.87763060180444" y1="0.5" y2="30"/><line opacity="0.2" x1="193.33421837144434" x2="193.33421837144434" y1="0.5" y2="30"/><line opacity="0.2" x1="374.27660672939817" x2="374.27660672939817" y1="0.5" y2="30"/><line opacity="0.2" x1="355.48806135866494" x2="355.48806135866494" y1="0.5" y2="30"/><line opacity="0.2" x1="289.96931655331286" x2="289.96931655331286" y1="0.5" y2="30"/><line opacity="0.2" x1="165.70219542507175" x2="165.70219542507175" y1="0.5" y2="30"/><line opacity="0.2" x1="265.5949286347951" x2="265.5949286347951" y1="0.5" y2="30"/><line opacity="0.2" x1="370.8250505605616" x2="370.8250505605616" y1="0.5" y2="30"/><line opacity="0.2" x1="361.36545046402057" x2="361.36545046402057" y1="0.5" y2="30"/><line opacity="0.2" x1="280.36226928274095" x2="280.36226928274095" y1="0.5" y2="30"/><line opacity="0.2" x1="416.4580133710132" x2="416.4580133710132" y1="0.5" y2="30"/><line opacity="0.2" x1="270.8062941893201" x2="270.8062941893201" y1="0.5" y2="30"/><line opacity="0.2" x1="253.08238003823192" x2="253.08238003823192" y1="0.5" y2="30"/><line opacity="0.2" x1="306.5069162701044" x2="306.5069162701044" y1="0.5" y2="30"/><line opacity="0.2" x1="248.1783889553162" x2="248.1783889553162" y1="0.5" y2="30"/><line opacity="0.2" x1="320.1224296345566" x2="320.1224296345566" y1="0.5" y2="30"/><line opacity="0.2" x1="400.05013922000484" x2="400.05013922000484" y1="0.5" y2="30"/><line opacity="0.2" x1="214.01830535094845" x2="214.01830535094845" y1="0.5" y2="30"/><line opacity="0.2" x1="195.91046600045578" x2="195.91046600045578" y1="0.5" y2="30"/><line opacity="0.2" x1="246.02182033929776" x2="246.02182033929776" y1="0.5" y2="30"/><line opacity="0.2" x1="385.006718647479" x2="385.006718647479" y1="0.5" y2="30"/><line opacity="0.2" x1="311.817676849653" x2="311.817676849653" y1="0.5" y2="30"/><line opacity="0.2" x1="258.88479863401886" x2="258.88479863401886" y1="0.5" y2="30"/><line opacity="0.2" x1="384.4001670404125" x2="384.4001670404125" y1="0.5" y2="30"/><line opacity="0.2" x1="288.5344528272298" x2="288.5344528272298" y1="0.5" y2="30"/><line opacity="0.2" x1="110.10825793473293" x2="110.10825793473293" y1="0.5" y2="30"/><line opacity="0.2" x1="383.5739471197142" x2="383.5739471197142" y1="0.5" y2="30"/><line opacity="0.2" x1="285.6308229482622" x2="285.6308229482622" y1="0.5" y2="30"/><line opacity="0.2" x1="261.6147203994966" x2="261.6147203994966" y1="0.5" y2="30"/><line opacity="0.2" x1="317.596383848023" x2="317.596383848023" y1="0.5" y2="30"/><line opacity="0.2" x1="398.14296166969456" x2="398.14296166969456" y1="0.5" y2="30"/><line opacity="0.2" x1="365.6024389151467" x2="365.6024389151467" y1="0.5" y2="30"/><line opacity="0.2" x1="350.0817031270552" x2="350.0817031270552" y1="0.5" y2="30"/><line opacity="0.2" x1="392.2605826134013" x2="392.2605826134013" y1="0.5" y2="30"/><line opacity="0.2" x1="256.80621451058937" x2="256.80621451058937" y1="0.5" y2="30"/><line opacity="0.2" x1="328.30150582449335" x2="328.30150582449335" y1="0.5" y2="30"/><line opacity="0.2" x1="257.9792357334944" x2="257.9792357334944" y1="0.5" y2="30"/><line opacity="0.2" x1="439.2564084439289" x2="439.2564084439289" y1="0.5" y2="30"/><line opacity="0.2" x1="372.64859287702853" x2="372.64859287702853" y1="0.5" y2="30"/><line opacity="0.2" x1="376.71005142001235" x2="376.71005142001235" y1="0.5" y2="30"/><line opacity="0.2" x1="366.9066344138741" x2="366.9066344138741" y1="0.5" y2="30"/><line opacity="0.2" x1="280.60914693197077" x2="280.60914693197077" y1="0.5" y2="30"/><line opacity="0.2" x1="355.66727933869555" x2="355.66727933869555" y1="0.5" y2="30"/><line opacity="0.2" x1="427.2682851389848" x2="427.2682851389848" y1="0.5" y2="30"/><line opacity="0.2" x1="272.07751875953426" x2="272.07751875953426" y1="0.5" y2="30"/><line opacity="0.2" x1="397.1531661600292" x2="397.1531661600292" y1="0.5" y2="30"/><line opacity="0.2" x1="372.99046877823724" x2="372.99046877823724" y1="0.5" y2="30"/><line opacity="0.2" x1="323.830540804911" x2="323.830540804911" y1="0.5" y2="30"/><line opacity="0.2" x1="389.838439679475" x2="389.838439679475" y1="0.5" y2="30"/><line opacity="0.2" x1="285.2540160446819" x2="285.2540160446819" y1="0.5" y2="30"/><line opacity="0.2" x1="202.3650338789107" x2="202.3650338789107" y1="0.5" y2="30"/><line opacity="0.2" x1="302.482992537939" x2="302.482992537939" y1="0.5" y2="30"/><line opacity="0.2" x1="236.44214485480117" x2="236.44214485480117" y1="0.5" y2="30"/><line opacity="0.2" x1="300.4353629017944" x2="300.4353629017944" y1="0.5" y2="30"/><line opacity="0.2" x1="233.72039641778017" x2="233.72039641778017" y1="0.5" y2="30"/><line opacity="0.2" x1="226.17954467704084" x2="226.17954467704084" y1="0.5" y2="30"/><line opacity="0.2" x1="484.9251412988893" x2="484.9251412988893" y1="0.5" y2="30"/><line opacity="0.2" x1="279.7813862870589" x2="279.7813862870589" y1="0.5" y2="30"/><line opacity="0.2" x1="329.84280866106934" x2="329.84280866106934" y1="0.5" y2="30"/><line opacity="0.2" x1="376.64127436976474" x2="376.64127436976474" y1="0.5" y2="30"/><line opacity="0.2" x1="318.8138795720665" x2="318.8138795720665" y1="0.5" y2="30"/><line opacity="0.2" x1="322.36346193169396" x2="322.36346193169396" y1="0.5" y2="30"/><line opacity="0.2" x1="344.00275585844116" x2="344.00275585844116" y1="0.5" y2="30"/><line opacity="0.2" x1="388.8114646669355" x2="388.8114646669355" y1="0.5" y2="30"/><line opacity="0.2" x1="278.1280104753592" x2="278.1280104753592" y1="0.5" y2="30"/><line opacity="0.2" x1="344.93965681200365" x2="344.93965681200365" y1="0.5" y2="30"/><line opacity="0.2" x1="307.7308351699272" x2="307.7308351699272" y1="0.5" y2="30"/><line opacity="0.2" x1="287.18727903746293" x2="287.18727903746293" y1="0.5" y2="30"/><line opacity="0.2" x1="319.66757435512733" x2="319.66757435512733" y1="0.5" y2="30"/><line opacity="0.2" x1="326.0614543524533" x2="326.0614543524533" y1="0.5" y2="30"/><line opacity="0.2" x1="343.8555178672843" x2="343.8555178672843" y1="0.5" y2="30"/><line opacity="0.2" x1="228.70805757781338" x2="228.70805757781338" y1="0.5" y2="30"/><line opacity="0.2" x1="207.463956672002" x2="207.463956672002" y1="0.5" y2="30"/><line opacity="0.2" x1="393.8124806464558" x2="393.8124806464558" y1="0.5" y2="30"/><line opacity="0.2" x1="328.29281122313876" x2="328.29281122313876" y1="0.5" y2="30"/><line opacity="0.2" x1="184.25548758725597" x2="184.25548758725597" y1="0.5" y2="30"/><line opacity="0.2" x1="99.85776451259238" x2="99.85776451259238" y1="0.5" y2="30"/><line opacity="0.2" x1="332.9733496751192" x2="332.9733496751192" y1="0.5" y2="30"/><line opacity="0.2" x1="339.0048465592496" x2="339.0048465592496" y1="0.5" y2="30"/><line opacity="0.2" x1="269.57607529041616" x2="269.57607529041616" y1="0.5" y2="30"/><line opacity="0.2" x1="392.2929938514526" x2="392.2929938514526" y1="0.5" y2="30"/><line opacity="0.2" x1="310.99560375269857" x2="310.99560375269857" y1="0.5" y2="30"/><line opacity="0.2" x1="358.8610532386768" x2="358.8610532386768" y1="0.5" y2="30"/><line opacity="0.2" x1="284.48945648238515" x2="284.48945648238515" y1="0.5" y2="30"/><line opacity="0.2" x1="341.6481901596059" x2="341.6481901596059" y1="0.5" y2="30"/><line opacity="0.2" x1="250.8671194411228" x2="250.8671194411228" y1="0.5" y2="30"/><line opacity="0.2" x1="191.29339823143565" x2="191.29339823143565" y1="0.5" y2="30"/><line opacity="0.2" x1="279.1224659770256" x2="279.1224659770256" y1="0.5" y2="30"/><line opacity="0.2" x1="301.3027801808527" x2="301.3027801808527" y1="0.5" y2="30"/><line opacity="0.2" x1="375.5899390098849" x2="375.5899390098849" y1="0.5" y2="30"/><line opacity="0.2" x1="251.2955505619497" x2="251.2955505619497" y1="0.5" y2="30"/><line opacity="0.2" x1="260.0251915737791" x2="260.0251915737791" y1="0.5" y2="30"/><line opacity="0.2" x1="351.99976433870967" x2="351.99976433870967" y1="0.5" y2="30"/><line opacity="0.2" x1="227.1692019052438" x2="227.1692019052438" y1="0.5" y2="30"/><line opacity="0.2" x1="435.1668201891859" x2="435.1668201891859" y1="0.5" y2="30"/><line opacity="0.2" x1="232.19121909884532" x2="232.19121909884532" y1="0.5" y2="30"/><line opacity="0.2" x1="316.0480691001805" x2="316.0480691001805" y1="0.5" y2="30"/><line opacity="0.2" x1="467.68877711644814" x2="467.68877711644814" y1="0.5" y2="30"/><line opacity="0.2" x1="201.8330216539287" x2="201.8330216539287" y1="0.5" y2="30"/><line opacity="0.2" x1="368.07423943348306" x2="368.07423943348306" y1="0.5" y2="30"/><line opacity="0.2" x1="253.2671806366754" x2="253.2671806366754" y1="0.5" y2="30"/><line opacity="0.2" x1="412.34129622880755" x2="412.34129622880755" y1="0.5" y2="30"/><line opacity="0.2" x1="211.84386445145216" x2="211.84386445145216" y1="0.5" y2="30"/><line opacity="0.2" x1="348.49216350234343" x2="348.49216350234343" y1="0.5" y2="30"/><line opacity="0.2" x1="123.47874682069042" x2="123.47874682069042" y1="0.5" y2="30"/><line opacity="0.2" x1="355.7735773317159" x2="355.7735773317159" y1="0.5" y2="30"/><line opacity="0.2" x1="297.8391535218111" x2="297.8391535218111" y1="0.5" y2="30"/><line opacity="0.2" x1="424.2249529357226" x2="424.2249529357226" y1="0.5" y2="30"/><line opacity="0.2" x1="347.0939359127531" x2="347.0939359127531" y1="0.5" y2="30"/><line opacity="0.2" x1="330.33695360930017" x2="330.33695360930017" y1="0.5" y2="30"/><line opacity="0.2" x1="395.1317703226572" x2="395.1317703226572" y1="0.5" y2="30"/><line opacity="0.2" x1="199.03277494375263" x2="199.03277494375263" y1="0.5" y2="30"/><line opacity="0.2" x1="153.70371114531434" x2="153.70371114531434" y1="0.5" y2="30"/><line opacity="0.2" x1="274.2148703625174" x2="274.2148703625174" y1="0.5" y2="30"/><line opacity="0.2" x1="285.05145293735285" x2="285.05145293735285" y1="0.5" y2="30"/><line opacity="0.2" x1="335.08733799653413" x2="335.08733799653413" y1="0.5" y2="30"/><line opacity="0.2" x1="398.15495670123425" x2="398.15495670123425" y1="0.5" y2="30"/><line opacity="0.2" x1="337.7767982802959" x2="337.7767982802959" y1="0.5" y2="30"/><line opacity="0.2" x1="330.2287340560016" x2="330.2287340560016" y1="0.5" y2="30"/><line opacity="0.2" x1="308.88705071582854" x2="308.88705071582854" y1="0.5" y2="30"/><line opacity="0.2" x1="332.14692317566477" x2="332.14692317566477" y1="0.5" y2="30"/><line opacity="0.2" x1="450.37676168598796" x2="450.37676168598796" y1="0.5" y2="30"/><line opacity="0.2" x1="305.80659203017336" x2="305.80659203017336" y1="0.5" y2="30"/><line opacity="0.2" x1="405.1844591646362" x2="405.1844591646362" y1="0.5" y2="30"/><line opacity="0.2" x1="271.9875381491162" x2="271.9875381491162" y1="0.5" y2="30"/><line opacity="0.2" x1="415.16670933260605" x2="415.16670933260605" y1="0.5" y2="30"/><line opacity="0.2" x1="262.98834287357425" x2="262.98834287357425" y1="0.5" y2="30"/><line opacity="0.2" x1="364.7075951538955" x2="364.7075951538955" y1="0.5" y2="30"/><line opacity="0.2" x1="467.0204654171415" x2="467.0204654171415" y1="0.5" y2="30"/><line opacity="0.2" x1="311.00540757460317" x2="311.00540757460317" y1="0.5" y2="30"/><line opacity="0.2" x1="588.7475480552397" x2="588.7475480552397" y1="0.5" y2="30"/><line opacity="0.2" x1="204.44086586894832" x2="204.44086586894832" y1="0.5" y2="30"/><line opacity="0.2" x1="357.5710534050212" x2="357.5710534050212" y1="0.5" y2="30"/><line opacity="0.2" x1="324.24266627760977" x2="324.24266627760977" y1="0.5" y2="30"/><line opacity="0.2" x1="281.1068617743864" x2="281.1068617743864" y1="0.5" y2="30"/><line opacity="0.2" x1="324.04040075178347" x2="324.04040075178347" y1="0.5" y2="30"/><line opacity="0.2" x1="337.3957772640531" x2="337.3957772640531" y1="0.5" y2="30"/><line opacity="0.2" x1="174.09868868703322" x2="174.09868868703322" y1="0.5" y2="30"/><line opacity="0.2" x1="172.70836855604634" x2="172.70836855604634" y1="0.5" y2="30"/><line opacity="0.2" x1="300.3313469351551" x2="300.3313469351551" y1="0.5" y2="30"/><line opacity="0.2" x1="357.6845200474992" x2="357.6845200474992" y1="0.5" y2="30"/><line opacity="0.2" x1="308.9635275848815" x2="308.9635275848815" y1="0.5" y2="30"/><line opacity="0.2" x1="233.30826832450356" x2="233.30826832450356" y1="0.5" y2="30"/><line opacity="0.2" x1="241.91813150825084" x2="241.91813150825084" y1="0.5" y2="30"/><line opacity="0.2" x1="204.3181831026031" x2="204.3181831026031" y1="0.5" y2="30"/><line opacity="0.2" x1="390.8198058459613" x2="390.8198058459613" y1="0.5" y2="30"/><line opacity="0.2" x1="234.74491859485516" x2="234.74491859485516" y1="0.5" y2="30"/><line opacity="0.2" x1="283.3759365695159" x2="283.3759365695159" y1="0.5" y2="30"/><line opacity="0.2" x1="229.38133530563647" x2="229.38133530563647" y1="0.5" y2="30"/><line opacity="0.2" x1="242.3151090511015" x2="242.3151090511015" y1="0.5" y2="30"/><line opacity="0.2" x1="263.69023925424" x2="263.69023925424" y1="0.5" y2="30"/><line opacity="0.2" x1="494.84224237031856" x2="494.84224237031856" y1="0.5" y2="30"/><line opacity="0.2" x1="218.10256152704812" x2="218.10256152704812" y1="0.5" y2="30"/><line opacity="0.2" x1="496.1698381711887" x2="496.1698381711887" y1="0.5" y2="30"/><line opacity="0.2" x1="398.5911389672856" x2="398.5911389672856" y1="0.5" y2="30"/><line opacity="0.2" x1="272.6069508815348" x2="272.6069508815348" y1="0.5" y2="30"/><line opacity="0.2" x1="384.4600850256415" x2="384.4600850256415" y1="0.5" y2="30"/><line opacity="0.2" x1="340.77564444062267" x2="340.77564444062267" y1="0.5" y2="30"/><line opacity="0.2" x1="519.3626450340024" x2="519.3626450340024" y1="0.5" y2="30"/><line opacity="0.2" x1="212.22669964413151" x2="212.22669964413151" y1="0.5" y2="30"/><line opacity="0.2" x1="334.8429429013343" x2="334.8429429013343" y1="0.5" y2="30"/><line opacity="0.2" x1="149.41771496562455" x2="149.41771496562455" y1="0.5" y2="30"/><line opacity="0.2" x1="217.43598410563197" x2="217.43598410563197" y1="0.5" y2="30"/><line opacity="0.2" x1="491.9986627124356" x2="491.9986627124356" y1="0.5" y2="30"/><line opacity="0.2" x1="158.06884873606256" x2="158.06884873606256" y1="0.5" y2="30"/><line opacity="0.2" x1="451.0300529759753" x2="451.0300529759753" y1="0.5" y2="30"/><line opacity="0.2" x1="225.42676821709262" x2="225.42676821709262" y1="0.5" y2="30"/><line opacity="0.2" x1="380.88636274307447" x2="380.88636274307447" y1="0.5" y2="30"/><line opacity="0.2" x1="347.58223802764496" x2="347.58223802764496" y1="0.5" y2="30"/><line opacity="0.2" x1="448.5548343313268" x2="448.5548343313268" y1="0.5" y2="30"/><line opacity="0.2" x1="311.8482659933238" x2="311.8482659933238" y1="0.5" y2="30"/><line opacity="0.2" x1="269.0973765807621" x2="269.0973765807621" y1="0.5" y2="30"/><line opacity="0.2" x1="314.8916156299732" x2="314.8916156299732" y1="0.5" y2="30"/><line opacity="0.2" x1="250.77968048065125" x2="250.77968048065125" y1="0.5" y2="30"/><line opacity="0.2" x1="365.4379846204227" x2="365.4379846204227" y1="0.5" y2="30"/><line opacity="0.2" x1="366.5158713479132" x2="366.5158713479132" y1="0.5" y2="30"/><line opacity="0.2" x1="375.26792940654775" x2="375.26792940654775" y1="0.5" y2="30"/><line opacity="0.2" x1="272.3832137834947" x2="272.3832137834947" y1="0.5" y2="30"/><line opacity="0.2" x1="308.8960284375634" x2="308.8960284375634" y1="0.5" y2="30"/><line opacity="0.2" x1="412.27759469957203" x2="412.27759469957203" y1="0.5" y2="30"/><line opacity="0.2" x1="408.37048128935146" x2="408.37048128935146" y1="0.5" y2="30"/><line opacity="0.2" x1="378.86291452532447" x2="378.86291452532447" y1="0.5" y2="30"/><line opacity="0.2" x1="463.1284597740026" x2="463.1284597740026" y1="0.5" y2="30"/><line opacity="0.2" x1="232.36335602760727" x2="232.36335602760727" y1="0.5" y2="30"/><line opacity="0.2" x1="186.94047239225367" x2="186.94047239225367" y1="0.5" y2="30"/><line opacity="0.2" x1="245.5489244221661" x2="245.5489244221661" y1="0.5" y2="30"/><line opacity="0.2" x1="293.18673698551555" x2="293.18673698551555" y1="0.5" y2="30"/><line opacity="0.2" x1="461.136028582026" x2="461.136028582026" y1="0.5" y2="30"/><line opacity="0.2" x1="427.9507734587748" x2="427.9507734587748" y1="0.5" y2="30"/><line opacity="0.2" x1="354.9942584650719" x2="354.9942584650719" y1="0.5" y2="30"/><line opacity="0.2" x1="399.96579520228244" x2="399.96579520228244" y1="0.5" y2="30"/><line opacity="0.2" x1="284.5595784082208" x2="284.5595784082208" y1="0.5" y2="30"/><line opacity="0.2" x1="515.5748658071067" x2="515.5748658071067" y1="0.5" y2="30"/><line opacity="0.2" x1="324.6283801266103" x2="324.6283801266103" y1="0.5" y2="30"/><line opacity="0.2" x1="337.0427456131856" x2="337.0427456131856" y1="0.5" y2="30"/><line opacity="0.2" x1="437.3049141860886" x2="437.3049141860886" y1="0.5" y2="30"/><line opacity="0.2" x1="311.0206086768787" x2="311.0206086768787" y1="0.5" y2="30"/><line opacity="0.2" x1="565.8037436949411" x2="565.8037436949411" y1="0.5" y2="30"/><line opacity="0.2" x1="345.38251416576907" x2="345.38251416576907" y1="0.5" y2="30"/><line opacity="0.2" x1="219.935672523577" x2="219.935672523577" y1="0.5" y2="30"/><line opacity="0.2" x1="473.6879038412967" x2="473.6879038412967" y1="0.5" y2="30"/><line opacity="0.2" x1="124.09496215947183" x2="124.09496215947183" y1="0.5" y2="30"/><line opacity="0.2" x1="317.0345168886966" x2="317.0345168886966" y1="0.5" y2="30"/><line opacity="0.2" x1="290.06996184773203" x2="290.06996184773203" y1="0.5" y2="30"/><line opacity="0.2" x1="395.82077629291655" x2="395.82077629291655" y1="0.5" y2="30"/><line opacity="0.2" x1="389.87708755966503" x2="389.87708755966503" y1="0.5" y2="30"/><line opacity="0.2" x1="340.1138267751519" x2="340.1138267751519" y1="0.5" y2="30"/><line opacity="0.2" x1="432.26298260927734" x2="432.26298260927734" y1="0.5" y2="30"/><line opacity="0.2" x1="364.3453590935268" x2="364.3453590935268" y1="0.5" y2="30"/><line opacity="0.2" x1="204.25703845155397" x2="204.25703845155397" y1="0.5" y2="30"/><line opacity="0.2" x1="196.36464915205642" x2="196.36464915205642" y1="0.5" y2="30"/><line opacity="0.2" x1="155.12696951240363" x2="155.12696951240363" y1="0.5" y2="30"/><line opacity="0.2" x1="145.4477181040878" x2="145.4477181040878" y1="0.5" y2="30"/><line opacity="0.2" x1="138.54808370159245" x2="138.54808370159245" y1="0.5" y2="30"/><line opacity="0.2" x1="366.5941749460749" x2="366.5941749460749" y1="0.5" y2="30"/><line opacity="0.2" x1="470.9604044833617" x2="470.9604044833617" y1="0.5" y2="30"/><line opacity="0.2" x1="388.1108500032327" x2="388.1108500032327" y1="0.5" y2="30"/><line opacity="0.2" x1="300.34877013707296" x2="300.34877013707296" y1="0.5" y2="30"/><line opacity="0.2" x1="202.37008029491636" x2="202.37008029491636" y1="0.5" y2="30"/><line opacity="0.2" x1="242.51431642157982" x2="242.51431642157982" y1="0.5" y2="30"/><line opacity="0.2" x1="283.38679232824273" x2="283.38679232824273" y1="0.5" y2="30"/><line opacity="0.2" x1="347.8988463505302" x2="347.8988463505302" y1="0.5" y2="30"/><line opacity="0.2" x1="360.0877137522969" x2="360.0877137522969" y1="0.5" y2="30"/><line opacity="0.2" x1="328.72872181272294" x2="328.72872181272294" y1="0.5" y2="30"/><line opacity="0.2" x1="360.7453429436073" x2="360.7453429436073" y1="0.5" y2="30"/><line opacity="0.2" x1="228.30479080261009" x2="228.30479080261009" y1="0.5" y2="30"/><line opacity="0.2" x1="435.9633580681666" x2="435.9633580681666" y1="0.5" y2="30"/><line opacity="0.2" x1="335.3807736037784" x2="335.3807736037784" y1="0.5" y2="30"/><line opacity="0.2" x1="338.1280033855599" x2="338.1280033855599" y1="0.5" y2="30"/><line opacity="0.2" x1="252.8717539630648" x2="252.8717539630648" y1="0.5" y2="30"/><line opacity="0.2" x1="177.3344565550921" x2="177.3344565550921" y1="0.5" y2="30"/><line opacity="0.2" x1="185.92220575745858" x2="185.92220575745858" y1="0.5" y2="30"/><line opacity="0.2" x1="111.75505335533937" x2="111.75505335533937" y1="0.5" y2="30"/><line opacity="0.2" x1="147.17135703115846" x2="147.17135703115846" y1="0.5" y2="30"/><line opacity="0.2" x1="385.4003165933312" x2="385.4003165933312" y1="0.5" y2="30"/><line opacity="0.2" x1="205.62596997782762" x2="205.62596997782762" y1="0.5" y2="30"/><line opacity="0.2" x1="375.152299181407" x2="375.152299181407" y1="0.5" y2="30"/><line opacity="0.2" x1="449.14230137050447" x2="449.14230137050447" y1="0.5" y2="30"/><line opacity="0.2" x1="307.39045850252813" x2="307.39045850252813" y1="0.5" y2="30"/><line opacity="0.2" x1="308.7348292730445" x2="308.7348292730445" y1="0.5" y2="30"/><line opacity="0.2" x1="449.3350218299199" x2="449.3350218299199" y1="0.5" y2="30"/><line opacity="0.2" x1="353.6518578282035" x2="353.6518578282035" y1="0.5" y2="30"/></g></svg>