<svg xmlns="http://www.w3.org/2000/svg" xmlns:xlink="http://www.w3.org/1999/xlink" class="plot-d6a7b5" fill="currentColor" font-family="system-ui, sans-serif" font-size="10" text-anchor="middle" width="640" height="60" viewBox="0 0 640 60" style="color: black; background-color: white;"><style>.plot-d6a7b5 {
  display: block;
  background: white;
  height: auto;
  height: intrinsic;
  max-width: 100%;
}
.plot-d6a7b5 text,
.plot-d6a7b5 tspan {
  white-space: pre;
}</style><g aria-label="x-axis tick" fill="none" stroke="currentColor"><path transform="translate(31.767556401471744,30)" d="M0,0L0,6"/><path transform="translate(125.43714826874789,30)" d="M0,0L0,6"/><path transform="translate(219.10674013602403,30)" d="M0,0L0,6"/><path transform="translate(312.7763320033002,30)" d="M0,0L0,6"/><path transform="translate(406.44592387057634,30)" d="M0,0L0,6"/><path transform="translate(500.1155157378525,30)" d="M0,0L0,6"/><path transform="translate(593.7851076051286,30)" d="M0,0L0,6"/></g><g aria-label="x-axis tick label" font-variant="tabular-nums" transform="translate(0,9)"><text y="0.71em" transform="translate(31.767556401471744,30)">−3</text><text y="0.71em" transform="translate(125.43714826874789,30)">−2</text><text y="0.71em" transform="translate(219.10674013602403,30)">−1</text><text y="0.71em" transform="translate(312.7763320033002,30)">0</text><text y="0.71em" transform="translate(406.44592387057634,30)">1</text><text y="0.71em" transform="translate(500.1155157378525,30)">2</text><text y="0.71em" transform="translate(593.7851076051286,30)">3</text></g><g aria-label="tick" stroke="steelblue"><line opacity="0.2" x1="266.0375210593985" x2="266.0375210593985" y1="0.5" y2="30"/><line opacity="0.2" x1="349.62925013208735" x2="349.62925013208735" y1="0.5" y2="30"/><line opacity="0.2" x1="357.72266361194085" x2="357.72266361194085" y1="0.5" y2="30"/><line opacity="0.2" x1="384.43582462998097" x2="384.43582462998097" y1="0.5" y2="30"/><line opacity="0.2" x1="138.5982837280171" x2="138.5982837280171" y1="0.5" y2="30"/><line opacity="0.2" x1="234.42478276351238" x2="234.42478276351238" y1="0.5" y2="30"/><line opacity="0.2" x1="199.24950185177568" x2="199.24950185177568" y1="0.5" y2="30"/><line opacity="0.2" x1="187.54898533609102" x2="187.54898533609102" y1="0.5" y2="30"/><line opacity="0.2" x1="428.06444473454593" x2="428.06444473454593" y1="0.5" y2="30"/><line opacity="0.2" x1="341.48562786283236" x2="341.48562786283236" y1="0.5" y2="30"/><line opacity="0.2" x1="204.13381247126574" x2="204.13381247126574" y1="0.5" y2="30"/><line opacity="0.2" x1="390.56969628206684" x2="390.56969628206684" y1="0.5" y2="30"/><line opacity="0.2" x1="357.81555268683127" x2="357.81555268683127" y1="0.5" y2="30"/><line opacity="0.2" x1="294.99648556032224" x2="294.99648556032224" y1="0.5" y2="30"/><line opacity="0.2" x1="361.24353102117067" x2="361.24353102117067" y1="0.5" y2="30"/><line opacity="0.2" x1="230.25504255057365" x2="230.25504255057365" y1="0.5" y2="30"/><line opacity="0.2" x1="130.19018686671902" x2="130.19018686671902" y1="0.5" y2="30"/><line opacity="0.2" x1="229.59536976880966" x2="229.59536976880966" y1="0.5" y2="30"/><line opacity="0.2" x1="366.7337922534352" x2="366.7337922534352" y1="0.5" y2="30"/><line opacity="0.2" x1="195.00221271648965" x2="195.00221271648965" y1="0.5" y2="30"/><line opacity="0.2" x1="195.91304048887662" x2="195.91304048887662" y1="0.5" y2="30"/><line opacity="0.2" x1="297.3844910489769" x2="297.3844910489769" y1="0.5" y2="30"/><line opacity="0.2" x1="147.3425684102928" x2="147.3425684102928" y1="0.5" y2="30"/><line opacity="0.2" x1="345.1024865576269" x2="345.1024865576269" y1="0.5" y2="30"/><line opacity="0.2" x1="206.0952548472854" x2="206.0952548472854" y1="0.5" y2="30"/><line opacity="0.2" x1="241.72261211244668" x2="241.72261211244668" y1="0.5" y2="30"/><line opacity="0.2" x1="236.93056453029592" x2="236.93056453029592" y1="0.5" y2="30"/><line opacity="0.2" x1="560.7758906066471" x2="560.7758906066471" y1="0.5" y2="30"/><line opacity="0.2" x1="255.76686648817247" x2="255.76686648817247" y1="0.5" y2="30"/><line opacity="0.2" x1="289.95929037889647" x2="289.95929037889647" y1="0.5" y2="30"/><line opacity="0.2" x1="345.5399001433615" x2="345.5399001433615" y1="0.5" y2="30"/><line opacity="0.2" x1="310.66372778284074" x2="310.66372778284074" y1="0.5" y2="30"/><line opacity="0.2" x1="409.0999994064489" x2="409.0999994064489" y1="0.5" y2="30"/><line opacity="0.2" x1="259.06009531674493" x2="259.06009531674493" y1="0.5" y2="30"/><line opacity="0.2" x1="294.94396082267224" x2="294.94396082267224" y1="0.5" y2="30"/><line opacity="0.2" x1="242.49608925852579" x2="242.49608925852579" y1="0.5" y2="30"/><line opacity="0.2" x1="344.9810202780922" x2="344.9810202780922" y1="0.5" y2="30"/><line opacity="0.2" x1="224.10762846086888" x2="224.10762846086888" y1="0.5" y2="30"/><line opacity="0.2" x1="383.9810450728025" x2="383.9810450728025" y1="0.5" y2="30"/><line opacity="0.2" x1="417.1680691105699" x2="417.1680691105699" y1="0.5" y2="30"/><line opacity="0.2" x1="410.8712169708284" x2="410.8712169708284" y1="0.5" y2="30"/><line opacity="0.2" x1="294.4671434330563" x2="294.4671434330563" y1="0.5" y2="30"/><line opacity="0.2" x1="369.26290536783097" x2="369.26290536783097" y1="0.5" y2="30"/><line opacity="0.2" x1="365.43579326197425" x2="365.43579326197425" y1="0.5" y2="30"/><line opacity="0.2" x1="299.24156930405945" x2="299.24156930405945" y1="0.5" y2="30"/><line opacity="0.2" x1="329.01230840718614" x2="329.01230840718614" y1="0.5" y2="30"/><line opacity="0.2" x1="379.62358380559175" x2="379.62358380559175" y1="0.5" y2="30"/><line opacity="0.2" x1="407.1741073548799" x2="407.1741073548799" y1="0.5" y2="30"/><line opacity="0.2" x1="310.2829235814205" x2="310.2829235814205" y1="0.5" y2="30"/><line opacity="0.2" x1="258.8533202354534" x2="258.8533202354534" y1="0.5" y2="30"/><line opacity="0.2" x1="344.4628715559517" x2="344.4628715559517" y1="0.5" y2="30"/><line opacity="0.2" x1="246.54904584223345" x2="246.54904584223345" y1="0.5" y2="30"/><line opacity="0.2" x1="254.53844451953267" x2="254.53844451953267" y1="0.5" y2="30"/><line opacity="0.2" x1="277.53581727312735" x2="277.53581727312735" y1="0.5" y2="30"/><line opacity="0.2" x1="320.2128569019742" x2="320.2128569019742" y1="0.5" y2="30"/><line opacity="0.2" x1="210.80345087944914" x2="210.80345087944914" y1="0.5" y2="30"/><line opacity="0.2" x1="411.81484430575426" x2="411.81484430575426" y1="0.5" y2="30"/><line opacity="0.2" x1="182.61081896633866" x2="182.61081896633866" y1="0.5" y2="30"/><line opacity="0.2" x1="330.81722979014285" x2="330.81722979014285" y1="0.5" y2="30"/><line opacity="0.2" x1="198.05869849632347" x2="198.05869849632347" y1="0.5" y2="30"/><line opacity="0.2" x1="346.8263449788249" x2="346.8263449788249" y1="0.5" y2="30"/><line opacity="0.2" x1="339.8910098306534" x2="339.8910098306534" y1="0.5" y2="30"/><line opacity="0.2" x1="291.1252901938237" x2="291.1252901938237" y1="0.5" y2="30"/><line opacity="0.2" x1="385.6040959005598" x2="385.6040959005598" y1="0.5" y2="30"/><line opacity="0.2" x1="359.5355530667508" x2="359.5355530667508" y1="0.5" y2="30"/><line opacity="0.2" x1="334.502581912241" x2="334.502581912241" y1="0.5" y2="30"/><line opacity="0.2" x1="142.3903627216373" x2="142.3903627216373" y1="0.5" y2="30"/><line opacity="0.2" x1="324.67019835814494" x2="324.67019835814494" y1="0.5" y2="30"/><line opacity="0.2" x1="87.86867573003465" x2="87.86867573003465" y1="0.5" y2="30"/><line opacity="0.2" x1="205.6571835849808" x2="205.6571835849808" y1="0.5" y2="30"/><line opacity="0.2" x1="297.7037184012313" x2="297.7037184012313" y1="0.5" y2="30"/><line opacity="0.2" x1="267.1184800778087" x2="267.1184800778087" y1="0.5" y2="30"/><line opacity="0.2" x1="317.7180587414324" x2="317.7180587414324" y1="0.5" y2="30"/><line opacity="0.2" x1="357.20973618138026" x2="357.20973618138026" y1="0.5" y2="30"/><line opacity="0.2" x1="420.65105782747776" x2="420.65105782747776" y1="0.5" y2="30"/><line opacity="0.2" x1="375.62643075923097" x2="375.62643075923097" y1="0.5" y2="30"/><line opacity="0.2" x1="298.3484209958615" x2="298.3484209958615" y1="0.5" y2="30"/><line opacity="0.2" x1="465.8846584127599" x2="465.8846584127599" y1="0.5" y2="30"/><line opacity="0.2" x1="327.12126915281607" x2="327.12126915281607" y1="0.5" y2="30"/><line opacity="0.2" x1="436.96656037225887" x2="436.96656037225887" y1="0.5" y2="30"/><line opacity="0.2" x1="527.4266948031453" x2="527.4266948031453" y1="0.5" y2="30"/><line opacity="0.2" x1="369.1846346003499" x2="369.1846346003499" y1="0.5" y2="30"/><line opacity="0.2" x1="345.2337888269627" x2="345.2337888269627" y1="0.5" y2="30"/><line opacity="0.2" x1="417.9253427467397" x2="417.9253427467397" y1="0.5" y2="30"/><line opacity="0.2" x1="297.6739789200563" x2="297.6739789200563" y1="0.5" y2="30"/><line opacity="0.2" x1="335.20310703308263" x2="335.20310703308263" y1="0.5" y2="30"/><line opacity="0.2" x1="326.99358100219257" x2="326.99358100219257" y1="0.5" y2="30"/><line opacity="0.2" x1="524.0612134470721" x2="524.0612134470721" y1="0.5" y2="30"/><line opacity="0.2" x1="438.60084009121573" x2="438.60084009121573" y1="0.5" y2="30"/><line opacity="0.2" x1="332.377933916898" x2="332.377933916898" y1="0.5" y2="30"/><line opacity="0.2" x1="282.3093730801075" x2="282.3093730801075" y1="0.5" y2="30"/><line opacity="0.2" x1="315.98568081323856" x2="315.98568081323856" y1="0.5" y2="30"/><line opacity="0.2" x1="329.83205652960817" x2="329.83205652960817" y1="0.5" y2="30"/><line opacity="0.2" x1="334.97685296220357" x2="334.97685296220357" y1="0.5" y2="30"/><line opacity="0.2" x1="323.0730877687556" x2="323.0730877687556" y1="0.5" y2="30"/><line opacity="0.2" x1="386.66927381052056" x2="386.66927381052056" y1="0.5" y2="30"/><line opacity="0.2" x1="400.0672238158371" x2="400.0672238158371" y1="0.5" y2="30"/><line opacity="0.2" x1="338.07440786150016" x2="338.07440786150016" y1="0.5" y2="30"/><line opacity="0.2" x1="331.01547130749384" x2="331.01547130749384" y1="0.5" y2="30"/><line opacity="0.2" x1="264.88876715724325" x2="264.88876715724325" y1="0.5" y2="30"/><line opacity="0.2" x1="174.9921959144881" x2="174.9921959144881" y1="0.5" y2="30"/><line opacity="0.2" x1="347.79136447839653" x2="347.79136447839653" y1="0.5" y2="30"/><line opacity="0.2" x1="170.72435618815626" x2="170.72435618815626" y1="0.5" y2="30"/><line opacity="0.2" x1="333.3744902669745" x2="333.3744902669745" y1="0.5" y2="30"/><line opacity="0.2" x1="487.6753302650935" x2="487.6753302650935" y1="0.5" y2="30"/><line opacity="0.2" x1="349.315615191577" x2="349.315615191577" y1="0.5" y2="30"/><line opacity="0.2" x1="261.08595867916983" x2="261.08595867916983" y1="0.5" y2="30"/><line opacity="0.2" x1="403.4464647528523" x2="403.4464647528523" y1="0.5" y2="30"/><line opacity="0.2" x1="246.49911358952724" x2="246.49911358952724" y1="0.5" y2="30"/><line opacity="0.2" x1="224.72713305856328" x2="224.72713305856328" y1="0.5" y2="30"/><line opacity="0.2" x1="136.17987854795632" x2="136.17987854795632" y1="0.5" y2="30"/><line opacity="0.2" x1="313.62018436518036" x2="313.62018436518036" y1="0.5" y2="30"/><line opacity="0.2" x1="278.5066154471587" x2="278.5066154471587" y1="0.5" y2="30"/><line opacity="0.2" x1="327.60005761543067" x2="327.60005761543067" y1="0.5" y2="30"/><line opacity="0.2" x1="274.8716967545432" x2="274.8716967545432" y1="0.5" y2="30"/><line opacity="0.2" x1="285.2353514525745" x2="285.2353514525745" y1="0.5" y2="30"/><line opacity="0.2" x1="400.9410208701106" x2="400.9410208701106" y1="0.5" y2="30"/><line opacity="0.2" x1="317.07685716352944" x2="317.07685716352944" y1="0.5" y2="30"/><line opacity="0.2" x1="306.7502737226118" x2="306.7502737226118" y1="0.5" y2="30"/><line opacity="0.2" x1="387.15507691077624" x2="387.15507691077624" y1="0.5" y2="30"/><line opacity="0.2" x1="450.90650161802546" x2="450.90650161802546" y1="0.5" y2="30"/><line opacity="0.2" x1="223.26049938316027" x2="223.26049938316027" y1="0.5" y2="30"/><line opacity="0.2" x1="311.279572253279" x2="311.279572253279" y1="0.5" y2="30"/><line opacity="0.2" x1="284.0580089031825" x2="284.0580089031825" y1="0.5" y2="30"/><line opacity="0.2" x1="265.35844828933256" x2="265.35844828933256" y1="0.5" y2="30"/><line opacity="0.2" x1="248.21821105972714" x2="248.21821105972714" y1="0.5" y2="30"/><line opacity="0.2" x1="454.4062426739777" x2="454.4062426739777" y1="0.5" y2="30"/><line opacity="0.2" x1="366.228599428222" x2="366.228599428222" y1="0.5" y2="30"/><line opacity="0.2" x1="357.1768229090842" x2="357.1768229090842" y1="0.5" y2="30"/><line opacity="0.2" x1="260.0143675345367" x2="260.0143675345367" y1="0.5" y2="30"/><line opacity="0.2" x1="244.0030559481222" x2="244.0030559481222" y1="0.5" y2="30"/><line opacity="0.2" x1="304.8712865642044" x2="304.8712865642044" y1="0.5" y2="30"/><line opacity="0.2" x1="150.75675539013122" x2="150.75675539013122" y1="0.5" y2="30"/><line opacity="0.2" x1="388.2234046612209" x2="388.2234046612209" y1="0.5" y2="30"/><line opacity="0.2" x1="300.9065923931939" x2="300.9065923931939" y1="0.5" y2="30"/><line opacity="0.2" x1="337.6822468177285" x2="337.6822468177285" y1="0.5" y2="30"/><line opacity="0.2" x1="136.65094610816425" x2="136.65094610816425" y1="0.5" y2="30"/><line opacity="0.2" x1="326.29512683878426" x2="326.29512683878426" y1="0.5" y2="30"/><line opacity="0.2" x1="263.8463437927267" x2="263.8463437927267" y1="0.5" y2="30"/><line opacity="0.2" x1="331.1241034056152" x2="331.1241034056152" y1="0.5" y2="30"/><line opacity="0.2" x1="366.19474055484073" x2="366.19474055484073" y1="0.5" y2="30"/><line opacity="0.2" x1="427.15865235427356" x2="427.15865235427356" y1="0.5" y2="30"/><line opacity="0.2" x1="262.5976579901925" x2="262.5976579901925" y1="0.5" y2="30"/><line opacity="0.2" x1="320.4087152236564" x2="320.4087152236564" y1="0.5" y2="30"/><line opacity="0.2" x1="314.6703992377736" x2="314.6703992377736" y1="0.5" y2="30"/><line opacity="0.2" x1="491.5382761977677" x2="491.5382761977677" y1="0.5" y2="30"/><line opacity="0.2" x1="340.30076812521213" x2="340.30076812521213" y1="0.5" y2="30"/><line opacity="0.2" x1="360.4098440992735" x2="360.4098440992735" y1="0.5" y2="30"/><line opacity="0.2" x1="437.47730082801917" x2="437.47730082801917" y1="0.5" y2="30"/><line opacity="0.2" x1="352.06249184003474" x2="352.06249184003474" y1="0.5" y2="30"/><line opacity="0.2" x1="306.8891495854164" x2="306.8891495854164" y1="0.5" y2="30"/><line opacity="0.2" x1="216.49611566844365" x2="216.49611566844365" y1="0.5" y2="30"/><line opacity="0.2" x1="219.01622910211253" x2="219.01622910211253" y1="0.5" y2="30"/><line opacity="0.2" x1="195.29266131725188" x2="195.29266131725188" y1="0.5" y2="30"/><line opacity="0.2" x1="460.58220991330825" x2="460.58220991330825" y1="0.5" y2="30"/><line opacity="0.2" x1="405.76442038833153" x2="405.76442038833153" y1="0.5" y2="30"/><line opacity="0.2" x1="191.39679244074878" x2="191.39679244074878" y1="0.5" y2="30"/><line opacity="0.2" x1="300.49198270347085" x2="300.49198270347085" y1="0.5" y2="30"/><line opacity="0.2" x1="314.9674085365114" x2="314.9674085365114" y1="0.5" y2="30"/><line opacity="0.2" x1="428.5011473566248" x2="428.5011473566248" y1="0.5" y2="30"/><line opacity="0.2" x1="461.2306424679583" x2="461.2306424679583" y1="0.5" y2="30"/><line opacity="0.2" x1="272.05876103635774" x2="272.05876103635774" y1="0.5" y2="30"/><line opacity="0.2" x1="507.97077739093265" x2="507.97077739093265" y1="0.5" y2="30"/><line opacity="0.2" x1="326.03106914480895" x2="326.03106914480895" y1="0.5" y2="30"/><line opacity="0.2" x1="266.553481324764" x2="266.553481324764" y1="0.5" y2="30"/><line opacity="0.2" x1="414.7879481184152" x2="414.7879481184152" y1="0.5" y2="30"/><line opacity="0.2" x1="419.10130524613413" x2="419.10130524613413" y1="0.5" y2="30"/><line opacity="0.2" x1="273.33616667072215" x2="273.33616667072215" y1="0.5" y2="30"/><line opacity="0.2" x1="289.95633919170234" x2="289.95633919170234" y1="0.5" y2="30"/><line opacity="0.2" x1="417.2446363657177" x2="417.2446363657177" y1="0.5" y2="30"/><line opacity="0.2" x1="280.15224092054035" x2="280.15224092054035" y1="0.5" y2="30"/><line opacity="0.2" x1="380.74717468181916" x2="380.74717468181916" y1="0.5" y2="30"/><line opacity="0.2" x1="345.5074340114719" x2="345.5074340114719" y1="0.5" y2="30"/><line opacity="0.2" x1="303.36904446970885" x2="303.36904446970885" y1="0.5" y2="30"/><line opacity="0.2" x1="434.1637630661165" x2="434.1637630661165" y1="0.5" y2="30"/><line opacity="0.2" x1="284.7124706009847" x2="284.7124706009847" y1="0.5" y2="30"/><line opacity="0.2" x1="251.7855132083454" x2="251.7855132083454" y1="0.5" y2="30"/><line opacity="0.2" x1="332.7569130624158" x2="332.7569130624158" y1="0.5" y2="30"/><line opacity="0.2" x1="294.866841661561" x2="294.866841661561" y1="0.5" y2="30"/><line opacity="0.2" x1="284.96320637256434" x2="284.96320637256434" y1="0.5" y2="30"/><line opacity="0.2" x1="440.35800470755566" x2="440.35800470755566" y1="0.5" y2="30"/><line opacity="0.2" x1="280.09409395750674" x2="280.09409395750674" y1="0.5" y2="30"/><line opacity="0.2" x1="354.44335714601243" x2="354.44335714601243" y1="0.5" y2="30"/><line opacity="0.2" x1="155.72530368729102" x2="155.72530368729102" y1="0.5" y2="30"/><line opacity="0.2" x1="417.5465938994792" x2="417.5465938994792" y1="0.5" y2="30"/><line opacity="0.2" x1="197.44692974755" x2="197.44692974755" y1="0.5" y2="30"/><line opacity="0.2" x1="267.0115858104609" x2="267.0115858104609" y1="0.5" y2="30"/><line opacity="0.2" x1="471.7188603931406" x2="471.7188603931406" y1="0.5" y2="30"/><line opacity="0.2" x1="199.83018959941938" x2="199.83018959941938" y1="0.5" y2="30"/><line opacity="0.2" x1="247.8881399692587" x2="247.8881399692587" y1="0.5" y2="30"/><line opacity="0.2" x1="194.0274534806115" x2="194.0274534806115" y1="0.5" y2="30"/><line opacity="0.2" x1="252.0093199234638" x2="252.0093199234638" y1="0.5" y2="30"/><line opacity="0.2" x1="338.6871594311055" x2="338.6871594311055" y1="0.5" y2="30"/><line opacity="0.2" x1="302.89252985977237" x2="302.89252985977237" y1="0.5" y2="30"/><line opacity="0.2" x1="244.27667186446473" x2="244.27667186446473" y1="0.5" y2="30"/><line opacity="0.2" x1="279.9604271837173" x2="279.9604271837173" y1="0.5" y2="30"/><line opacity="0.2" x1="354.5854153025823" x2="354.5854153025823" y1="0.5" y2="30"/><line opacity="0.2" x1="423.6913040133483" x2="423.6913040133483" y1="0.5" y2="30"/><line opacity="0.2" x1="295.0613916158169" x2="295.0613916158169" y1="0.5" y2="30"/><line opacity="0.2" x1="346.82277322553136" x2="346.82277322553136" y1="0.5" y2="30"/><line opacity="0.2" x1="448.52020944747494" x2="448.52020944747494" y1="0.5" y2="30"/><line opacity="0.2" x1="387.4422403478879" x2="387.4422403478879" y1="0.5" y2="30"/><line opacity="0.2" x1="285.64171042104476" x2="285.64171042104476" y1="0.5" y2="30"/><line opacity="0.2" x1="337.35543368784244" x2="337.35543368784244" y1="0.5" y2="30"/><line opacity="0.2" x1="412.53625090678156" x2="412.53625090678156" y1="0.5" y2="30"/><line opacity="0.2" x1="258.2421644499799" x2="258.2421644499799" y1="0.5" y2="30"/><line opacity="0.2" x1="407.61600311668167" x2="407.61600311668167" y1="0.5" y2="30"/><line opacity="0.2" x1="211.12647481543044" x2="211.12647481543044" y1="0.5" y2="30"/><line opacity="0.2" x1="417.6704453271175" x2="417.6704453271175" y1="0.5" y2="30"/><line opacity="0.2" x1="369.0121891992325" x2="369.0121891992325" y1="0.5" y2="30"/><line opacity="0.2" x1="404.47203800755744" x2="404.47203800755744" y1="0.5" y2="30"/><line opacity="0.2" x1="241.0883387235172" x2="241.0883387235172" y1="0.5" y2="30"/><line opacity="0.2" x1="307.8824828019438" x2="307.8824828019438" y1="0.5" y2="30"/><line opacity="0.2" x1="352.4977493262083" x2="352.4977493262083" y1="0.5" y2="30"/><line opacity="0.2" x1="313.85139121644914" x2="313.85139121644914" y1="0.5" y2="30"/><line opacity="0.2" x1="175.9721459139474" x2="175.9721459139474" y1="0.5" y2="30"/><line opacity="0.2" x1="333.39236750866667" x2="333.39236750866667" y1="0.5" y2="30"/><line opacity="0.2" x1="149.71576644662463" x2="149.71576644662463" y1="0.5" y2="30"/><line opacity="0.2" x1="365.61277580375395" x2="365.61277580375395" y1="0.5" y2="30"/><line opacity="0.2" x1="313.3453939603141" x2="313.3453939603141" y1="0.5" y2="30"/><line opacity="0.2" x1="358.85890493721774" x2="358.85890493721774" y1="0.5" y2="30"/><line opacity="0.2" x1="332.25896823496873" x2="332.25896823496873" y1="0.5" y2="30"/><line opacity="0.2" x1="373.1523196831952" x2="373.1523196831952" y1="0.5" y2="30"/><line opacity="0.2" x1="421.982733600634" x2="421.982733600634" y1="0.5" y2="30"/><line opacity="0.2" x1="416.367514378387" x2="416.367514378387" y1="0.5" y2="30"/><line opacity="0.2" x1="377.99041569812357" x2="377.99041569812357" y1="0.5" y2="30"/><line opacity="0.2" x1="160.305668827427" x2="160.305668827427" y1="0.5" y2="30"/><line opacity="0.2" x1="362.4439742565788" x2="362.4439742565788" y1="0.5" y2="30"/><line opacity="0.2" x1="312.29418388673145" x2="312.29418388673145" y1="0.5" y2="30"/><line opacity="0.2" x1="245.0766859642083" x2="245.0766859642083" y1="0.5" y2="30"/><line opacity="0.2" x1="391.8416914601876" x2="391.8416914601876" y1="0.5" y2="30"/><line opacity="0.2" x1="220.97368757047033" x2="220.97368757047033" y1="0.5" y2="30"/><line opacity="0.2" x1="323.5000423685179" x2="323.5000423685179" y1="0.5" y2="30"/><line opacity="0.2" x1="320.04762708640084" x2="320.04762708640084" y1="0.5" y2="30"/><line opacity="0.2" x1="271.47836418591163" x2="271.47836418591163" y1="0.5" y2="30"/><line opacity="0.2" x1="307.01836087994786" x2="307.01836087994786" y1="0.5" y2="30"/><line opacity="0.2" x1="248.1189999087207" x2="248.1189999087207" y1="0.5" y2="30"/><line opacity="0.2" x1="391.09288907355034" x2="391.09288907355034" y1="0.5" y2="30"/><line opacity="0.2" x1="471.3707232787527" x2="471.3707232787527" y1="0.5" y2="30"/><line opacity="0.2" x1="393.41266811442546" x2="393.41266811442546" y1="0.5" y2="30"/><line opacity="0.2" x1="393.142907814431" x2="393.142907814431" y1="0.5" y2="30"/><line opacity="0.2" x1="216.99059271995515" x2="216.99059271995515" y1="0.5" y2="30"/><line opacity="0.2" x1="286.8819559726576" x2="286.8819559726576" y1="0.5" y2="30"/><line opacity="0.2" x1="232.75876713499565" x2="232.75876713499565" y1="0.5" y2="30"/><line opacity="0.2" x1="388.1100821504756" x2="388.1100821504756" y1="0.5" y2="30"/><line opacity="0.2" x1="218.27519566900816" x2="218.27519566900816" y1="0.5" y2="30"/><line opacity="0.2" x1="329.6807069291797" x2="329.6807069291797" y1="0.5" y2="30"/><line opacity="0.2" x1="465.59634908145256" x2="465.59634908145256" y1="0.5" y2="30"/><line opacity="0.2" x1="288.3186129932707" x2="288.3186129932707" y1="0.5" y2="30"/><line opacity="0.2" x1="154.3218968188833" x2="154.3218968188833" y1="0.5" y2="30"/><line opacity="0.2" x1="252.08119841406895" x2="252.08119841406895" y1="0.5" y2="30"/><line opacity="0.2" x1="337.9254284739803" x2="337.9254284739803" y1="0.5" y2="30"/><line opacity="0.2" x1="440.66250019985824" x2="440.66250019985824" y1="0.5" y2="30"/><line opacity="0.2" x1="270.8781192505597" x2="270.8781192505597" y1="0.5" y2="30"/><line opacity="0.2" x1="486.0020423744989" x2="486.0020423744989" y1="0.5" y2="30"/><line opacity="0.2" x1="186.81970445565713" x2="186.81970445565713" y1="0.5" y2="30"/><line opacity="0.2" x1="266.83005499960586" x2="266.83005499960586" y1="0.5" y2="30"/><line opacity="0.2" x1="352.08889337880703" x2="352.08889337880703" y1="0.5" y2="30"/><line opacity="0.2" x1="258.9485658344286" x2="258.9485658344286" y1="0.5" y2="30"/><line opacity="0.2" x1="278.8090208070961" x2="278.8090208070961" y1="0.5" y2="30"/><line opacity="0.2" x1="261.42873100287443" x2="261.42873100287443" y1="0.5" y2="30"/><line opacity="0.2" x1="384.10844676408254" x2="384.10844676408254" y1="0.5" y2="30"/><line opacity="0.2" x1="405.2038181714252" x2="405.2038181714252" y1="0.5" y2="30"/><line opacity="0.2" x1="334.4070672331445" x2="334.4070672331445" y1="0.5" y2="30"/><line opacity="0.2" x1="399.45792144475286" x2="399.45792144475286" y1="0.5" y2="30"/><line opacity="0.2" x1="280.91855145394754" x2="280.91855145394754" y1="0.5" y2="30"/><line opacity="0.2" x1="273.4989418873498" x2="273.4989418873498" y1="0.5" y2="30"/><line opacity="0.2" x1="270.0171236610432" x2="270.0171236610432" y1="0.5" y2="30"/><line opacity="0.2" x1="324.19226504741476" x2="324.19226504741476" y1="0.5" y2="30"/><line opacity="0.2" x1="148.56634343736093" x2="148.56634343736093" y1="0.5" y2="30"/><line opacity="0.2" x1="139.67162177496064" x2="139.67162177496064" y1="0.5" y2="30"/><line opacity="0.2" x1="281.8011575777733" x2="281.8011575777733" y1="0.5" y2="30"/><line opacity="0.2" x1="277.09371505301607" x2="277.09371505301607" y1="0.5" y2="30"/><line opacity="0.2" x1="336.875250132554" x2="336.875250132554" y1="0.5" y2="30"/><line opacity="0.2" x1="306.3174782021636" x2="306.3174782021636" y1="0.5" y2="30"/><line opacity="0.2" x1="362.8683705887535" x2="362.8683705887535" y1="0.5" y2="30"/><line opacity="0.2" x1="261.893884215892" x2="261.893884215892" y1="0.5" y2="30"/><line opacity="0.2" x1="289.03888235867566" x2="289.03888235867566" y1="0.5" y2="30"/><line opacity="0.2" x1="222.29096616496412" x2="222.29096616496412" y1="0.5" y2="30"/><line opacity="0.2" x1="255.31924200502618" x2="255.31924200502618" y1="0.5" y2="30"/><line opacity="0.2" x1="422.3160755430291" x2="422.3160755430291" y1="0.5" y2="30"/><line opacity="0.2" x1="221.01863522111697" x2="221.01863522111697" y1="0.5" y2="30"/><line opacity="0.2" x1="197.8031397388548" x2="197.8031397388548" y1="0.5" y2="30"/><line opacity="0.2" x1="350.37453498965243" x2="350.37453498965243" y1="0.5" y2="30"/><line opacity="0.2" x1="281.21179331055146" x2="281.21179331055146" y1="0.5" y2="30"/><line opacity="0.2" x1="385.942971345707" x2="385.942971345707" y1="0.5" y2="30"/><line opacity="0.2" x1="353.6829320669645" x2="353.6829320669645" y1="0.5" y2="30"/><line opacity="0.2" x1="319.1712368630102" x2="319.1712368630102" y1="0.5" y2="30"/><line opacity="0.2" x1="320.6558422630698" x2="320.6558422630698" y1="0.5" y2="30"/><line opacity="0.2" x1="276.74562483092257" x2="276.74562483092257" y1="0.5" y2="30"/><line opacity="0.2" x1="445.05380825229025" x2="445.05380825229025" y1="0.5" y2="30"/><line opacity="0.2" x1="393.413576198532" x2="393.413576198532" y1="0.5" y2="30"/><line opacity="0.2" x1="244.47877940985597" x2="244.47877940985597" y1="0.5" y2="30"/><line opacity="0.2" x1="394.30836899905654" x2="394.30836899905654" y1="0.5" y2="30"/><line opacity="0.2" x1="485.76880043797235" x2="485.76880043797235" y1="0.5" y2="30"/><line opacity="0.2" x1="216.33602514376386" x2="216.33602514376386" y1="0.5" y2="30"/><line opacity="0.2" x1="374.8552941541644" x2="374.8552941541644" y1="0.5" y2="30"/><line opacity="0.2" x1="178.9565163317203" x2="178.9565163317203" y1="0.5" y2="30"/><line opacity="0.2" x1="251.19880164592612" x2="251.19880164592612" y1="0.5" y2="30"/><line opacity="0.2" x1="329.99319222456063" x2="329.99319222456063" y1="0.5" y2="30"/><line opacity="0.2" x1="322.1056770728434" x2="322.1056770728434" y1="0.5" y2="30"/><line opacity="0.2" x1="236.41019552432587" x2="236.41019552432587" y1="0.5" y2="30"/><line opacity="0.2" x1="320.08104999857443" x2="320.08104999857443" y1="0.5" y2="30"/><line opacity="0.2" x1="300.83959679275745" x2="300.83959679275745" y1="0.5" y2="30"/><line opacity="0.2" x1="563.0006885065415" x2="563.0006885065415" y1="0.5" y2="30"/><line opacity="0.2" x1="312.1965257743545" x2="312.1965257743545" y1="0.5" y2="30"/><line opacity="0.2" x1="248.17414031600157" x2="248.17414031600157" y1="0.5" y2="30"/><line opacity="0.2" x1="308.8214282014934" x2="308.8214282014934" y1="0.5" y2="30"/><line opacity="0.2" x1="336.27155568863003" x2="336.27155568863003" y1="0.5" y2="30"/><line opacity="0.2" x1="285.1759197698984" x2="285.1759197698984" y1="0.5" y2="30"/><line opacity="0.2" x1="331.4120856135212" x2="331.4120856135212" y1="0.5" y2="30"/><line opacity="0.2" x1="367.09624962117084" x2="367.09624962117084" y1="0.5" y2="30"/><line opacity="0.2" x1="348.9948065049279" x2="348.9948065049279" y1="0.5" y2="30"/><line opacity="0.2" x1="255.75147141064247" x2="255.75147141064247" y1="0.5" y2="30"/><line opacity="0.2" x1="311.93215967986225" x2="311.93215967986225" y1="0.5" y2="30"/><line opacity="0.2" x1="370.77872031445156" x2="370.77872031445156" y1="0.5" y2="30"/><line opacity="0.2" x1="341.4944948212314" x2="341.4944948212314" y1="0.5" y2="30"/><line opacity="0.2" x1="171.20889899658525" x2="171.20889899658525" y1="0.5" y2="30"/><line opacity="0.2" x1="264.8948922916505" x2="264.8948922916505" y1="0.5" y2="30"/><line opacity="0.2" x1="135.08865638829803" x2="135.08865638829803" y1="0.5" y2="30"/><line opacity="0.2" x1="279.33237535702165" x2="279.33237535702165" y1="0.5" y2="30"/><line opacity="0.2" x1="341.5167070404246" x2="341.5167070404246" y1="0.5" y2="30"/><line opacity="0.2" x1="232.07961063073876" x2="232.07961063073876" y1="0.5" y2="30"/><line opacity="0.2" x1="126.820997012455" x2="126.820997012455" y1="0.5" y2="30"/><line opacity="0.2" x1="404.54452484218007" x2="404.54452484218007" y1="0.5" y2="30"/><line opacity="0.2" x1="236.15998882227746" x2="236.15998882227746" y1="0.5" y2="30"/><line opacity="0.2" x1="385.25773708429693" x2="385.25773708429693" y1="0.5" y2="30"/><line opacity="0.2" x1="434.2740387547506" x2="434.2740387547506" y1="0.5" y2="30"/><line opacity="0.2" x1="247.78987523653092" x2="247.78987523653092" y1="0.5" y2="30"/><line opacity="0.2" x1="334.58292811014184" x2="334.58292811014184" y1="0.5" y2="30"/><line opacity="0.2" x1="280.8781821403335" x2="280.8781821403335" y1="0.5" y2="30"/><line opacity="0.2" x1="222.47120610351018" x2="222.47120610351018" y1="0.5" y2="30"/><line opacity="0.2" x1="328.3468275896824" x2="328.3468275896824" y1="0.5" y2="30"/><line opacity="0.2" x1="331.9030537787419" x2="331.9030537787419" y1="0.5" y2="30"/><line opacity="0.2" x1="246.42353002455377" x2="246.42353002455377" y1="0.5" y2="30"/><line opacity="0.2" x1="398.22525188319497" x2="398.22525188319497" y1="0.5" y2="30"/><line opacity="0.2" x1="359.44547977024143" x2="359.44547977024143" y1="0.5" y2="30"/><line opacity="0.2" x1="208.2185174271026" x2="208.2185174271026" y1="0.5" y2="30"/><line opacity="0.2" x1="244.64367159430543" x2="244.64367159430543" y1="0.5" y2="30"/><line opacity="0.2" x1="188.24050470274162" x2="188.24050470274162" y1="0.5" y2="30"/><line opacity="0.2" x1="287.8736871633954" x2="287.8736871633954" y1="0.5" y2="30"/><line opacity="0.2" x1="343.2704146066466" x2="343.2704146066466" y1="0.5" y2="30"/><line opacity="0.2" x1="100.85661688645224" x2="100.85661688645224" y1="0.5" y2="30"/><line opacity="0.2" x1="212.07996615210575" x2="212.07996615210575" y1="0.5" y2="30"/><line opacity="0.2" x1="295.421985148047" x2="295.421985148047" y1="0.5" y2="30"/><line opacity="0.2" x1="207.77889319593885" x2="207.77889319593885" y1="0.5" y2="30"/><line opacity="0.2" x1="392.24789493874744" x2="392.24789493874744" y1="0.5" y2="30"/><line opacity="0.2" x1="213.769091388822" x2="213.769091388822" y1="0.5" y2="30"/><line opacity="0.2" x1="267.40761180389677" x2="267.40761180389677" y1="0.5" y2="30"/><line opacity="0.2" x1="355.6717173677316" x2="355.6717173677316" y1="0.5" y2="30"/><line opacity="0.2" x1="357.55140358210025" x2="357.55140358210025" y1="0.5" y2="30"/><line opacity="0.2" x1="268.3846015517665" x2="268.3846015517665" y1="0.5" y2="30"/><line opacity="0.2" x1="360.6774263779361" x2="360.6774263779361" y1="0.5" y2="30"/><line opacity="0.2" x1="367.81199816092794" x2="367.81199816092794" y1="0.5" y2="30"/><line opacity="0.2" x1="156.12189230640016" x2="156.12189230640016" y1="0.5" y2="30"/><line opacity="0.2" x1="440.6575071140893" x2="440.6575071140893" y1="0.5" y2="30"/><line opacity="0.2" x1="620" x2="620" y1="0.5" y2="30"/><line opacity="0.2" x1="361.7928245408191" x2="361.7928245408191" y1="0.5" y2="30"/><line opacity="0.2" x1="372.3911448178685" x2="372.3911448178685" y1="0.5" y2="30"/><line opacity="0.2" x1="417.27705695343974" x2="417.27705695343974" y1="0.5" y2="30"/><line opacity="0.2" x1="360.49829238811367" x2="360.49829238811367" y1="0.5" y2="30"/><line opacity="0.2" x1="306.9583259119955" x2="306.9583259119955" y1="0.5" y2="30"/><line opacity="0.2" x1="225.60178569478248" x2="225.60178569478248" y1="0.5" y2="30"/><line opacity="0.2" x1="367.05042082225776" x2="367.05042082225776" y1="0.5" y2="30"/><line opacity="0.2" x1="370.8423625345429" x2="370.8423625345429" y1="0.5" y2="30"/><line opacity="0.2" x1="277.0631646434064" x2="277.0631646434064" y1="0.5" y2="30"/><line opacity="0.2" x1="187.94915477158844" x2="187.94915477158844" y1="0.5" y2="30"/><line opacity="0.2" x1="380.9042082497915" x2="380.9042082497915" y1="0.5" y2="30"/><line opacity="0.2" x1="501.69886361266845" x2="501.69886361266845" y1="0.5" y2="30"/><line opacity="0.2" x1="217.50476600006465" x2="217.50476600006465" y1="0.5" y2="30"/><line opacity="0.2" x1="531.2610231808209" x2="531.2610231808209" y1="0.5" y2="30"/><line opacity="0.2" x1="300.97803768585874" x2="300.97803768585874" y1="0.5" y2="30"/><line opacity="0.2" x1="219.03503254460108" x2="219.03503254460108" y1="0.5" y2="30"/><line opacity="0.2" x1="219.3465115957021" x2="219.3465115957021" y1="0.5" y2="30"/><line opacity="0.2" x1="189.63886364335698" x2="189.63886364335698" y1="0.5" y2="30"/><line opacity="0.2" x1="396.2354391784938" x2="396.2354391784938" y1="0.5" y2="30"/><line opacity="0.2" x1="294.7574252098355" x2="294.7574252098355" y1="0.5" y2="30"/><line opacity="0.2" x1="336.49861287712804" x2="336.49861287712804" y1="0.5" y2="30"/><line opacity="0.2" x1="267.7226015002824" x2="267.7226015002824" y1="0.5" y2="30"/><line opacity="0.2" x1="427.2260316979131" x2="427.2260316979131" y1="0.5" y2="30"/><line opacity="0.2" x1="244.23567155070765" x2="244.23567155070765" y1="0.5" y2="30"/><line opacity="0.2" x1="320.0524163403923" x2="320.0524163403923" y1="0.5" y2="30"/><line opacity="0.2" x1="214.8262709331648" x2="214.8262709331648" y1="0.5" y2="30"/><line opacity="0.2" x1="403.2507046973641" x2="403.2507046973641" y1="0.5" y2="30"/><line opacity="0.2" x1="362.3831632265833" x2="362.3831632265833" y1="0.5" y2="30"/><line opacity="0.2" x1="179.93800496448662" x2="179.93800496448662" y1="0.5" y2="30"/><line opacity="0.2" x1="504.93422142463163" x2="504.93422142463163" y1="0.5" y2="30"/><line opacity="0.2" x1="276.84186567439514" x2="276.84186567439514" y1="0.5" y2="30"/><line opacity="0.2" x1="399.8723254857126" x2="399.8723254857126" y1="0.5" y2="30"/><line opacity="0.2" x1="370.0228379333597" x2="370.0228379333597" y1="0.5" y2="30"/><line opacity="0.2" x1="299.1442079703225" x2="299.1442079703225" y1="0.5" y2="30"/><line opacity="0.2" x1="271.49456298884763" x2="271.49456298884763" y1="0.5" y2="30"/><line opacity="0.2" x1="227.264971613255" x2="227.264971613255" y1="0.5" y2="30"/><line opacity="0.2" x1="226.33086084994417" x2="226.33086084994417" y1="0.5" y2="30"/><line opacity="0.2" x1="428.5087278825032" x2="428.5087278825032" y1="0.5" y2="30"/><line opacity="0.2" x1="281.8385188874779" x2="281.8385188874779" y1="0.5" y2="30"/><line opacity="0.2" x1="298.2175085264123" x2="298.2175085264123" y1="0.5" y2="30"/><line opacity="0.2" x1="337.30383682324896" x2="337.30383682324896" y1="0.5" y2="30"/><line opacity="0.2" x1="295.8013463132016" x2="295.8013463132016" y1="0.5" y2="30"/><line opacity="0.2" x1="440.19043485353" x2="440.19043485353" y1="0.5" y2="30"/><line opacity="0.2" x1="328.07966970473046" x2="328.07966970473046" y1="0.5" y2="30"/><line opacity="0.2" x1="221.79978007555962" x2="221.79978007555962" y1="0.5" y2="30"/><line opacity="0.2" x1="457.7944395911396" x2="457.7944395911396" y1="0.5" y2="30"/><line opacity="0.2" x1="362.54280540233077" x2="362.54280540233077" y1="0.5" y2="30"/><line opacity="0.2" x1="342.7597445341692" x2="342.7597445341692" y1="0.5" y2="30"/><line opacity="0.2" x1="345.21980272800124" x2="345.21980272800124" y1="0.5" y2="30"/><line opacity="0.2" x1="225.8904392099352" x2="225.8904392099352" y1="0.5" y2="30"/><line opacity="0.2" x1="300.879468269805" x2="300.879468269805" y1="0.5" y2="30"/><line opacity="0.2" x1="402.59622570263895" x2="402.59622570263895" y1="0.5" y2="30"/><line opacity="0.2" x1="373.21628163304257" x2="373.21628163304257" y1="0.5" y2="30"/><line opacity="0.2" x1="398.58999317859355" x2="398.58999317859355" y1="0.5" y2="30"/><line opacity="0.2" x1="441.82650054449294" x2="441.82650054449294" y1="0.5" y2="30"/><line opacity="0.2" x1="431.78028486234547" x2="431.78028486234547" y1="0.5" y2="30"/><line opacity="0.2" x1="195.42379093115528" x2="195.42379093115528" y1="0.5" y2="30"/><line opacity="0.2" x1="331.897941103471" x2="331.897941103471" y1="0.5" y2="30"/><line opacity="0.2" x1="382.8186425055155" x2="382.8186425055155" y1="0.5" y2="30"/><line opacity="0.2" x1="389.2287189621797" x2="389.2287189621797" y1="0.5" y2="30"/><line opacity="0.2" x1="311.00814237600764" x2="311.00814237600764" y1="0.5" y2="30"/><line opacity="0.2" x1="375.8563150839301" x2="375.8563150839301" y1="0.5" y2="30"/><line opacity="0.2" x1="281.3809241061189" x2="281.3809241061189" y1="0.5" y2="30"/><line opacity="0.2" x1="304.5556833407642" x2="304.5556833407642" y1="0.5" y2="30"/><line opacity="0.2" x1="450.6618266920102" x2="450.6618266920102" y1="0.5" y2="30"/><line opacity="0.2" x1="272.4460734119105" x2="272.4460734119105" y1="0.5" y2="30"/><line opacity="0.2" x1="373.81562419893373" x2="373.81562419893373" y1="0.5" y2="30"/><line opacity="0.2" x1="300.4542338824039" x2="300.4542338824039" y1="0.5" y2="30"/><line opacity="0.2" x1="363.42098463952533" x2="363.42098463952533" y1="0.5" y2="30"/><line opacity="0.2" x1="312.63446708903757" x2="312.63446708903757" y1="0.5" y2="30"/><line opacity="0.2" x1="276.8010298493055" x2="276.8010298493055" y1="0.5" y2="30"/><line opacity="0.2" x1="308.90912278633124" x2="308.90912278633124" y1="0.5" y2="30"/><line opacity="0.2" x1="303.30661171061007" x2="303.30661171061007" y1="0.5" y2="30"/><line opacity="0.2" x1="107.05074010535017" x2="107.05074010535017" y1="0.5" y2="30"/><line opacity="0.2" x1="244.0809881051957" x2="244.0809881051957" y1="0.5" y2="30"/><line opacity="0.2" x1="396.21452181648306" x2="396.21452181648306" y1="0.5" y2="30"/><line opacity="0.2" x1="346.6829394032229" x2="346.6829394032229" y1="0.5" y2="30"/><line opacity="0.2" x1="290.77541861712297" x2="290.77541861712297" y1="0.5" y2="30"/><line opacity="0.2" x1="235.77450530119742" x2="235.77450530119742" y1="0.5" y2="30"/><line opacity="0.2" x1="368.48234232672445" x2="368.48234232672445" y1="0.5" y2="30"/><line opacity="0.2" x1="333.0290146943171" x2="333.0290146943171" y1="0.5" y2="30"/><line opacity="0.2" x1="173.83163804395832" x2="173.83163804395832" y1="0.5" y2="30"/><line opacity="0.2" x1="453.59507401660363" x2="453.59507401660363" y1="0.5" y2="30"/><line opacity="0.2" x1="488.64759978376566" x2="488.64759978376566" y1="0.5" y2="30"/><line opacity="0.2" x1="410.1489142579272" x2="410.1489142579272" y1="0.5" y2="30"/><line opacity="0.2" x1="408.7590096043327" x2="408.7590096043327" y1="0.5" y2="30"/><line opacity="0.2" x1="360.96102305387797" x2="360.96102305387797" y1="0.5" y2="30"/><line opacity="0.2" x1="300.79453616042497" x2="300.79453616042497" y1="0.5" y2="30"/><line opacity="0.2" x1="188.46230439577343" x2="188.46230439577343" y1="0.5" y2="30"/><line opacity="0.2" x1="276.0673651807342" x2="276.0673651807342" y1="0.5" y2="30"/><line opacity="0.2" x1="321.15306494403393" x2="321.15306494403393" y1="0.5" y2="30"/><line opacity="0.2" x1="328.9818175917301" x2="328.9818175917301" y1="0.5" y2="30"/><line opacity="0.2" x1="316.0877734653086" x2="316.0877734653086" y1="0.5" y2="30"/><line opacity="0.2" x1="292.27052692345285" x2="292.27052692345285" y1="0.5" y2="30"/><line opacity="0.2" x1="426.3343993533572" x2="426.3343993533572" y1="0.5" y2="30"/><line opacity="0.2" x1="108.92701827978685" x2="108.92701827978685" y1="0.5" y2="30"/><line opacity="0.2" x1="314.22023510202104" x2="314.22023510202104" y1="0.5" y2="30"/><line opacity="0.2" x1="423.66722026525485" x2="423.66722026525485" y1="0.5" y2="30"/><line opacity="0.2" x1="289.3486597093884" x2="289.3486597093884" y1="0.5" y2="30"/><line opacity="0.2" x1="333.24429327956943" x2="333.24429327956943" y1="0.5" y2="30"/><line opacity="0.2" x1="301.67622215405044" x2="301.67622215405044" y1="0.5" y2="30"/><line opacity="0.2" x1="331.1930203263836" x2="331.1930203263836" y1="0.5" y2="30"/><line opacity="0.2" x1="506.36396719987255" x2="506.36396719987255" y1="0.5" y2="30"/><line opacity="0.2" x1="180.09579659288147" x2="180.09579659288147" y1="0.5" y2="30"/><line opacity="0.2" x1="347.29488773302273" x2="347.29488773302273" y1="0.5" y2="30"/><line opacity="0.2" x1="282.69713821789674" x2="282.69713821789674" y1="0.5" y2="30"/><line opacity="0.2" x1="471.72079412086464" x2="471.72079412086464" y1="0.5" y2="30"/><line opacity="0.2" x1="401.6977129412574" x2="401.6977129412574" y1="0.5" y2="30"/><line opacity="0.2" x1="256.7464923567291" x2="256.7464923567291" y1="0.5" y2="30"/><line opacity="0.2" x1="297.40344371996525" x2="297.40344371996525" y1="0.5" y2="30"/><line opacity="0.2" x1="266.1199718471878" x2="266.1199718471878" y1="0.5" y2="30"/><line opacity="0.2" x1="101.60104425743478" x2="101.60104425743478" y1="0.5" y2="30"/><line opacity="0.2" x1="299.05882563201294" x2="299.05882563201294" y1="0.5" y2="30"/><line opacity="0.2" x1="332.11371149002474" x2="332.11371149002474" y1="0.5" y2="30"/><line opacity="0.2" x1="283.5549206262484" x2="283.5549206262484" y1="0.5" y2="30"/><line opacity="0.2" x1="243.09489391556357" x2="243.09489391556357" y1="0.5" y2="30"/><line opacity="0.2" x1="237.2719589013347" x2="237.2719589013347" y1="0.5" y2="30"/><line opacity="0.2" x1="379.7907255723736" x2="379.7907255723736" y1="0.5" y2="30"/><line opacity="0.2" x1="231.62654473151193" x2="231.62654473151193" y1="0.5" y2="30"/><line opacity="0.2" x1="311.3301182069709" x2="311.3301182069709" y1="0.5" y2="30"/><line opacity="0.2" x1="261.7190285025106" x2="261.7190285025106" y1="0.5" y2="30"/><line opacity="0.2" x1="167.0314513414171" x2="167.0314513414171" y1="0.5" y2="30"/><line opacity="0.2" x1="314.2397656254728" x2="314.2397656254728" y1="0.5" y2="30"/><line opacity="0.2" x1="42.722632212942" x2="42.722632212942" y1="0.5" y2="30"/><line opacity="0.2" x1="254.89966824368673" x2="254.89966824368673" y1="0.5" y2="30"/><line opacity="0.2" x1="442.5314906858501" x2="442.5314906858501" y1="0.5" y2="30"/><line opacity="0.2" x1="243.33883667290772" x2="243.33883667290772" y1="0.5" y2="30"/><line opacity="0.2" x1="342.8294520097206" x2="342.8294520097206" y1="0.5" y2="30"/><line opacity="0.2" x1="301.45951428670276" x2="301.45951428670276" y1="0.5" y2="30"/><line opacity="0.2" x1="297.29597454596166" x2="297.29597454596166" y1="0.5" y2="30"/><line opacity="0.2" x1="397.0621351132004" x2="397.0621351132004" y1="0.5" y2="30"/><line opacity="0.2" x1="293.91119222593346" x2="293.91119222593346" y1="0.5" y2="30"/><line opacity="0.2" x1="290.3447337276533" x2="290.3447337276533" y1="0.5" y2="30"/><line opacity="0.2" x1="355.57661165831945" x2="355.57661165831945" y1="0.5" y2="30"/><line opacity="0.2" x1="352.1583230687964" x2="352.1583230687964" y1="0.5" y2="30"/><line opacity="0.2" x1="367.52197402605725" x2="367.52197402605725" y1="0.5" y2="30"/><line opacity="0.2" x1="252.49951748921913" x2="252.49951748921913" y1="0.5" y2="30"/><line opacity="0.2" x1="356.3005573271982" x2="356.3005573271982" y1="0.5" y2="30"/><line opacity="0.2" x1="342.03227187746177" x2="342.03227187746177" y1="0.5" y2="30"/><line opacity="0.2" x1="254.8316937990518" x2="254.8316937990518" y1="0.5" y2="30"/><line opacity="0.2" x1="290.5395254147529" x2="290.5395254147529" y1="0.5" y2="30"/><line opacity="0.2" x1="374.97760495916214" x2="374.97760495916214" y1="0.5" y2="30"/><line opacity="0.2" x1="151.37615195180135" x2="151.37615195180135" y1="0.5" y2="30"/><line opacity="0.2" x1="289.2651024925273" x2="289.2651024925273" y1="0.5" y2="30"/><line opacity="0.2" x1="253.02712580266578" x2="253.02712580266578" y1="0.5" y2="30"/><line opacity="0.2" x1="349.0368801132767" x2="349.0368801132767" y1="0.5" y2="30"/><line opacity="0.2" x1="409.5403476441905" x2="409.5403476441905" y1="0.5" y2="30"/><line opacity="0.2" x1="391.18932216133794" x2="391.18932216133794" y1="0.5" y2="30"/><line opacity="0.2" x1="407.6397316771538" x2="407.6397316771538" y1="0.5" y2="30"/><line opacity="0.2" x1="554.530068884101" x2="554.530068884101" y1="0.5" y2="30"/><line opacity="0.2" x1="253.05265654355293" x2="253.05265654355293" y1="0.5" y2="30"/><line opacity="0.2" x1="261.45344849085456" x2="261.45344849085456" y1="0.5" y2="30"/><line opacity="0.2" x1="309.74592844132235" x2="309.74592844132235" y1="0.5" y2="30"/><line opacity="0.2" x1="439.1039858331926" x2="439.1039858331926" y1="0.5" y2="30"/><line opacity="0.2" x1="307.49517931523775" x2="307.49517931523775" y1="0.5" y2="30"/><line opacity="0.2" x1="407.6201763610276" x2="407.6201763610276" y1="0.5" y2="30"/><line opacity="0.2" x1="219.4223935853243" x2="219.4223935853243" y1="0.5" y2="30"/><line opacity="0.2" x1="221.75201219607303" x2="221.75201219607303" y1="0.5" y2="30"/><line opacity="0.2" x1="405.0372473810239" x2="405.0372473810239" y1="0.5" y2="30"/><line opacity="0.2" x1="339.58813569968765" x2="339.58813569968765" y1="0.5" y2="30"/><line opacity="0.2" x1="241.4684789323033" x2="241.4684789323033" y1="0.5" y2="30"/><line opacity="0.2" x1="93.47549007110997" x2="93.47549007110997" y1="0.5" y2="30"/><line opacity="0.2" x1="179.678830602238" x2="179.678830602238" y1="0.5" y2="30"/><line opacity="0.2" x1="430.1774762189896" x2="430.1774762189896" y1="0.5" y2="30"/><line opacity="0.2" x1="245.17892280344773" x2="245.17892280344773" y1="0.5" y2="30"/><line opacity="0.2" x1="394.8482158573124" x2="394.8482158573124" y1="0.5" y2="30"/><line opacity="0.2" x1="296.985501068253" x2="296.985501068253" y1="0.5" y2="30"/><line opacity="0.2" x1="440.74326096192743" x2="440.74326096192743" y1="0.5" y2="30"/><line opacity="0.2" x1="387.48712283370753" x2="387.48712283370753" y1="0.5" y2="30"/><line opacity="0.2" x1="462.303650109488" x2="462.303650109488" y1="0.5" y2="30"/><line opacity="0.2" x1="301.19726616564117" x2="301.19726616564117" y1="0.5" y2="30"/><line opacity="0.2" x1="145.57101280011793" x2="145.57101280011793" y1="0.5" y2="30"/><line opacity="0.2" x1="318.18165141280616" x2="318.18165141280616" y1="0.5" y2="30"/><line opacity="0.2" x1="370.69224929517026" x2="370.69224929517026" y1="0.5" y2="30"/><line opacity="0.2" x1="278.9219593717175" x2="278.9219593717175" y1="0.5" y2="30"/><line opacity="0.2" x1="365.874145876608" x2="365.874145876608" y1="0.5" y2="30"/><line opacity="0.2" x1="133.05348309692675" x2="133.05348309692675" y1="0.5" y2="30"/><line opacity="0.2" x1="422.59015451881163" x2="422.59015451881163" y1="0.5" y2="30"/><line opacity="0.2" x1="208.59068222438933" x2="208.59068222438933" y1="0.5" y2="30"/><line opacity="0.2" x1="440.2719305279291" x2="440.2719305279291" y1="0.5" y2="30"/><line opacity="0.2" x1="461.2500280287513" x2="461.2500280287513" y1="0.5" y2="30"/><line opacity="0.2" x1="347.01201320532726" x2="347.01201320532726" y1="0.5" y2="30"/><line opacity="0.2" x1="357.1631023965039" x2="357.1631023965039" y1="0.5" y2="30"/><line opacity="0.2" x1="233.4244090483199" x2="233.4244090483199" y1="0.5" y2="30"/><line opacity="0.2" x1="384.6580118787268" x2="384.6580118787268" y1="0.5" y2="30"/><line opacity="0.2" x1="170.45599614036888" x2="170.45599614036888" y1="0.5" y2="30"/><line opacity="0.2" x1="307.7487822783325" x2="307.7487822783325" y1="0.5" y2="30"/><line opacity="0.2" x1="524.6167985434356" x2="524.6167985434356" y1="0.5" y2="30"/><line opacity="0.2" x1="318.19263413639646" x2="318.19263413639646" y1="0.5" y2="30"/><line opacity="0.2" x1="190.2578569091549" x2="190.2578569091549" y1="0.5" y2="30"/><line opacity="0.2" x1="279.60030546555043" x2="279.60030546555043" y1="0.5" y2="30"/><line opacity="0.2" x1="263.61923009503005" x2="263.61923009503005" y1="0.5" y2="30"/><line opacity="0.2" x1="279.12672012662864" x2="279.12672012662864" y1="0.5" y2="30"/><line opacity="0.2" x1="287.54646329453925" x2="287.54646329453925" y1="0.5" y2="30"/><line opacity="0.2" x1="315.0547232346582" x2="315.0547232346582" y1="0.5" y2="30"/><line opacity="0.2" x1="305.0539418757963" x2="305.0539418757963" y1="0.5" y2="30"/><line opacity="0.2" x1="390.57828562300466" x2="390.57828562300466" y1="0.5" y2="30"/><line opacity="0.2" x1="224.4783556225203" x2="224.4783556225203" y1="0.5" y2="30"/><line opacity="0.2" x1="340.2360558771649" x2="340.2360558771649" y1="0.5" y2="30"/><line opacity="0.2" x1="196.99639174122868" x2="196.99639174122868" y1="0.5" y2="30"/><line opacity="0.2" x1="344.1712527462783" x2="344.1712527462783" y1="0.5" y2="30"/><line opacity="0.2" x1="254.12218800012351" x2="254.12218800012351" y1="0.5" y2="30"/><line opacity="0.2" x1="258.88477326010803" x2="258.88477326010803" y1="0.5" y2="30"/><line opacity="0.2" x1="231.79416432687128" x2="231.79416432687128" y1="0.5" y2="30"/><line opacity="0.2" x1="372.1893411877521" x2="372.1893411877521" y1="0.5" y2="30"/><line opacity="0.2" x1="307.3860701683737" x2="307.3860701683737" y1="0.5" y2="30"/><line opacity="0.2" x1="290.46909887460856" x2="290.46909887460856" y1="0.5" y2="30"/><line opacity="0.2" x1="392.6602085357901" x2="392.6602085357901" y1="0.5" y2="30"/><line opacity="0.2" x1="349.4337331174065" x2="349.4337331174065" y1="0.5" y2="30"/><line opacity="0.2" x1="298.4614761549103" x2="298.4614761549103" y1="0.5" y2="30"/><line opacity="0.2" x1="238.35205995624787" x2="238.35205995624787" y1="0.5" y2="30"/><line opacity="0.2" x1="379.6475937204582" x2="379.6475937204582" y1="0.5" y2="30"/><line opacity="0.2" x1="258.01573729201385" x2="258.01573729201385" y1="0.5" y2="30"/><line opacity="0.2" x1="543.6734314361145" x2="543.6734314361145" y1="0.5" y2="30"/><line opacity="0.2" x1="134.7312698585359" x2="134.7312698585359" y1="0.5" y2="30"/><line opacity="0.2" x1="281.57171491771015" x2="281.57171491771015" y1="0.5" y2="30"/><line opacity="0.2" x1="240.4112648360608" x2="240.4112648360608" y1="0.5" y2="30"/><line opacity="0.2" x1="185.69103838276072" x2="185.69103838276072" y1="0.5" y2="30"/><line opacity="0.2" x1="444.25800999507237" x2="444.25800999507237" y1="0.5" y2="30"/><line opacity="0.2" x1="346.3696411151086" x2="346.3696411151086" y1="0.5" y2="30"/><line opacity="0.2" x1="180.49186609497374" x2="180.49186609497374" y1="0.5" y2="30"/><line opacity="0.2" x1="292.3789498162805" x2="292.3789498162805" y1="0.5" y2="30"/><line opacity="0.2" x1="401.54246343943197" x2="401.54246343943197" y1="0.5" y2="30"/><line opacity="0.2" x1="495.91419249228915" x2="495.91419249228915" y1="0.5" y2="30"/><line opacity="0.2" x1="254.9785097737144" x2="254.9785097737144" y1="0.5" y2="30"/><line opacity="0.2" x1="349.14387767962853" x2="349.14387767962853" y1="0.5" y2="30"/><line opacity="0.2" x1="321.60960569944854" x2="321.60960569944854" y1="0.5" y2="30"/><line opacity="0.2" x1="254.93408935952235" x2="254.93408935952235" y1="0.5" y2="30"/><line opacity="0.2" x1="321.391032770958" x2="321.391032770958" y1="0.5" y2="30"/><line opacity="0.2" x1="445.8308265348572" x2="445.8308265348572" y1="0.5" y2="30"/><line opacity="0.2" x1="310.73579269581865" x2="310.73579269581865" y1="0.5" y2="30"/><line opacity="0.2" x1="260.1591578526869" x2="260.1591578526869" y1="0.5" y2="30"/><line opacity="0.2" x1="232.85462830956163" x2="232.85462830956163" y1="0.5" y2="30"/><line opacity="0.2" x1="294.7572466414723" x2="294.7572466414723" y1="0.5" y2="30"/><line opacity="0.2" x1="364.1327250850722" x2="364.1327250850722" y1="0.5" y2="30"/><line opacity="0.2" x1="355.46530097697934" x2="355.46530097697934" y1="0.5" y2="30"/><line opacity="0.2" x1="291.74408784430534" x2="291.74408784430534" y1="0.5" y2="30"/><line opacity="0.2" x1="306.4419529928017" x2="306.4419529928017" y1="0.5" y2="30"/><line opacity="0.2" x1="219.27071402671623" x2="219.27071402671623" y1="0.5" y2="30"/><line opacity="0.2" x1="295.4752621772797" x2="295.4752621772797" y1="0.5" y2="30"/><line opacity="0.2" x1="221.17623145747945" x2="221.17623145747945" y1="0.5" y2="30"/><line opacity="0.2" x1="363.1546347447657" x2="363.1546347447657" y1="0.5" y2="30"/><line opacity="0.2" x1="265.1806134846288" x2="265.1806134846288" y1="0.5" y2="30"/><line opacity="0.2" x1="312.65609187564803" x2="312.65609187564803" y1="0.5" y2="30"/><line opacity="0.2" x1="268.4858744926246" x2="268.4858744926246" y1="0.5" y2="30"/><line opacity="0.2" x1="243.08701180763836" x2="243.08701180763836" y1="0.5" y2="30"/><line opacity="0.2" x1="337.1576745328337" x2="337.1576745328337" y1="0.5" y2="30"/><line opacity="0.2" x1="347.03633827586" x2="347.03633827586" y1="0.5" y2="30"/><line opacity="0.2" x1="471.49901374783065" x2="471.49901374783065" y1="0.5" y2="30"/><line opacity="0.2" x1="231.50339739234985" x2="231.50339739234985" y1="0.5" y2="30"/><line opacity="0.2" x1="355.67627836616373" x2="355.67627836616373" y1="0.5" y2="30"/><line opacity="0.2" x1="249.2073430401134" x2="249.2073430401134" y1="0.5" y2="30"/><line opacity="0.2" x1="384.63516460219716" x2="384.63516460219716" y1="0.5" y2="30"/><line opacity="0.2" x1="306.0002700360968" x2="306.0002700360968" y1="0.5" y2="30"/><line opacity="0.2" x1="203.97578572063986" x2="203.97578572063986" y1="0.5" y2="30"/><line opacity="0.2" x1="420.65771975475155" x2="420.65771975475155" y1="0.5" y2="30"/><line opacity="0.2" x1="181.13290883127638" x2="181.13290883127638" y1="0.5" y2="30"/><line opacity="0.2" x1="284.6990579086283" x2="284.6990579086283" y1="0.5" y2="30"/><line opacity="0.2" x1="302.7580017177489" x2="302.7580017177489" y1="0.5" y2="30"/><line opacity="0.2" x1="280.0780616214688" x2="280.0780616214688" y1="0.5" y2="30"/><line opacity="0.2" x1="360.2702205216866" x2="360.2702205216866" y1="0.5" y2="30"/><line opacity="0.2" x1="251.08949863213252" x2="251.08949863213252" y1="0.5" y2="30"/><line opacity="0.2" x1="263.95826765998225" x2="263.95826765998225" y1="0.5" y2="30"/><line opacity="0.2" x1="266.21017257316134" x2="266.21017257316134" y1="0.5" y2="30"/><line opacity="0.2" x1="253.12099226197023" x2="253.12099226197023" y1="0.5" y2="30"/><line opacity="0.2" x1="242.20235475980908" x2="242.20235475980908" y1="0.5" y2="30"/><line opacity="0.2" x1="442.88694161425025" x2="442.88694161425025" y1="0.5" y2="30"/><line opacity="0.2" x1="413.1192691834561" x2="413.1192691834561" y1="0.5" y2="30"/><line opacity="0.2" x1="295.3782320193752" x2="295.3782320193752" y1="0.5" y2="30"/><line opacity="0.2" x1="307.31432864573725" x2="307.31432864573725" y1="0.5" y2="30"/><line opacity="0.2" x1="361.3092684473671" x2="361.3092684473671" y1="0.5" y2="30"/><line opacity="0.2" x1="392.04697423491655" x2="392.04697423491655" y1="0.5" y2="30"/><line opacity="0.2" x1="228.36243582165554" x2="228.36243582165554" y1="0.5" y2="30"/><line opacity="0.2" x1="168.64406705871178" x2="168.64406705871178" y1="0.5" y2="30"/><line opacity="0.2" x1="226.3357377816233" x2="226.3357377816233" y1="0.5" y2="30"/><line opacity="0.2" x1="171.74709315615954" x2="171.74709315615954" y1="0.5" y2="30"/><line opacity="0.2" x1="437.43662070498107" x2="437.43662070498107" y1="0.5" y2="30"/><line opacity="0.2" x1="297.84859863862897" x2="297.84859863862897" y1="0.5" y2="30"/><line opacity="0.2" x1="340.3468726267531" x2="340.3468726267531" y1="0.5" y2="30"/><line opacity="0.2" x1="281.82229346758453" x2="281.82229346758453" y1="0.5" y2="30"/><line opacity="0.2" x1="223.94526077438846" x2="223.94526077438846" y1="0.5" y2="30"/><line opacity="0.2" x1="248.5683507434325" x2="248.5683507434325" y1="0.5" y2="30"/><line opacity="0.2" x1="341.4574960833863" x2="341.4574960833863" y1="0.5" y2="30"/><line opacity="0.2" x1="433.6463036589453" x2="433.6463036589453" y1="0.5" y2="30"/><line opacity="0.2" x1="296.5809760405615" x2="296.5809760405615" y1="0.5" y2="30"/><line opacity="0.2" x1="213.26793410754223" x2="213.26793410754223" y1="0.5" y2="30"/><line opacity="0.2" x1="20" x2="20" y1="0.5" y2="30"/><line opacity="0.2" x1="270.8664021171094" x2="270.8664021171094" y1="0.5" y2="30"/><line opacity="0.2" x1="267.7607134824155" x2="267.7607134824155" y1="0.5" y2="30"/><line opacity="0.2" x1="304.0509780266474" x2="304.0509780266474" y1="0.5" y2="30"/><line opacity="0.2" x1="395.280721410536" x2="395.280721410536" y1="0.5" y2="30"/><line opacity="0.2" x1="279.95417515688547" x2="279.95417515688547" y1="0.5" y2="30"/><line opacity="0.2" x1="319.99764197850845" x2="319.99764197850845" y1="0.5" y2="30"/><line opacity="0.2" x1="381.79827960753335" x2="381.79827960753335" y1="0.5" y2="30"/><line opacity="0.2" x1="352.6137547777087" x2="352.6137547777087" y1="0.5" y2="30"/><line opacity="0.2" x1="252.65977838479722" x2="252.65977838479722" y1="0.5" y2="30"/><line opacity="0.2" x1="435.64941044518145" x2="435.64941044518145" y1="0.5" y2="30"/><line opacity="0.2" x1="456.77054196710895" x2="456.77054196710895" y1="0.5" y2="30"/><line opacity="0.2" x1="286.43967170731327" x2="286.43967170731327" y1="0.5" y2="30"/><line opacity="0.2" x1="340.21414791412434" x2="340.21414791412434" y1="0.5" y2="30"/><line opacity="0.2" x1="327.04943397626954" x2="327.04943397626954" y1="0.5" y2="30"/><line opacity="0.2" x1="179.66507622916149" x2="179.66507622916149" y1="0.5" y2="30"/><line opacity="0.2" x1="330.5086315598139" x2="330.5086315598139" y1="0.5" y2="30"/><line opacity="0.2" x1="256.8241535447802" x2="256.8241535447802" y1="0.5" y2="30"/><line opacity="0.2" x1="320.9072848213272" x2="320.9072848213272" y1="0.5" y2="30"/><line opacity="0.2" x1="317.4179880982071" x2="317.4179880982071" y1="0.5" y2="30"/><line opacity="0.2" x1="410.96818777178186" x2="410.96818777178186" y1="0.5" y2="30"/><line opacity="0.2" x1="307.54819331839104" x2="307.54819331839104" y1="0.5" y2="30"/><line opacity="0.2" x1="308.42026086337654" x2="308.42026086337654" y1="0.5" y2="30"/><line opacity="0.2" x1="287.62505777225186" x2="287.62505777225186" y1="0.5" y2="30"/><line opacity="0.2" x1="244.54164777120778" x2="244.54164777120778" y1="0.5" y2="30"/><line opacity="0.2" x1="160.71720779073334" x2="160.71720779073334" y1="0.5" y2="30"/><line opacity="0.2" x1="309.9567349290436" x2="309.9567349290436" y1="0.5" y2="30"/><line opacity="0.2" x1="265.5969756235828" x2="265.5969756235828" y1="0.5" y2="30"/><line opacity="0.2" x1="340.69386900664523" x2="340.69386900664523" y1="0.5" y2="30"/><line opacity="0.2" x1="239.68272233462397" x2="239.68272233462397" y1="0.5" y2="30"/><line opacity="0.2" x1="268.9810856682151" x2="268.9810856682151" y1="0.5" y2="30"/><line opacity="0.2" x1="257.3795381607628" x2="257.3795381607628" y1="0.5" y2="30"/><line opacity="0.2" x1="363.07302590549637" x2="363.07302590549637" y1="0.5" y2="30"/><line opacity="0.2" x1="311.37399960920027" x2="311.37399960920027" y1="0.5" y2="30"/><line opacity="0.2" x1="288.8840660546471" x2="288.8840660546471" y1="0.5" y2="30"/><line opacity="0.2" x1="318.0962540034597" x2="318.0962540034597" y1="0.5" y2="30"/><line opacity="0.2" x1="412.5802309334709" x2="412.5802309334709" y1="0.5" y2="30"/><line opacity="0.2" x1="294.6069471867313" x2="294.6069471867313" y1="0.5" y2="30"/><line opacity="0.2" x1="312.1644764289369" x2="312.1644764289369" y1="0.5" y2="30"/><line opacity="0.2" x1="436.4384644520385" x2="436.4384644520385" y1="0.5" y2="30"/><line opacity="0.2" x1="309.2353665583336" x2="309.2353665583336" y1="0.5" y2="30"/><line opacity="0.2" x1="414.2028528001958" x2="414.2028528001958" y1="0.5" y2="30"/><line opacity="0.2" x1="348.98292589731716" x2="348.98292589731716" y1="0.5" y2="30"/><line opacity="0.2" x1="165.62968559140126" x2="165.62968559140126" y1="0.5" y2="30"/><line opacity="0.2" x1="425.74548292971787" x2="425.74548292971787" y1="0.5" y2="30"/><line opacity="0.2" x1="241.00050502459572" x2="241.00050502459572" y1="0.5" y2="30"/><line opacity="0.2" x1="458.4069826263496" x2="458.4069826263496" y1="0.5" y2="30"/><line opacity="0.2" x1="311.27824835092383" x2="311.27824835092383" y1="0.5" y2="30"/><line opacity="0.2" x1="359.80097211938335" x2="359.80097211938335" y1="0.5" y2="30"/><line opacity="0.2" x1="286.11297141739834" x2="286.11297141739834" y1="0.5" y2="30"/><line opacity="0.2" x1="342.823956176503" x2="342.823956176503" y1="0.5" y2="30"/><line opacity="0.2" x1="375.0010663281202" x2="375.0010663281202" y1="0.5" y2="30"/><line opacity="0.2" x1="422.3264640827247" x2="422.3264640827247" y1="0.5" y2="30"/><line opacity="0.2" x1="270.2562512095574" x2="270.2562512095574" y1="0.5" y2="30"/><line opacity="0.2" x1="396.9144538370239" x2="396.9144538370239" y1="0.5" y2="30"/><line opacity="0.2" x1="299.7615598102345" x2="299.7615598102345" y1="0.5" y2="30"/><line opacity="0.2" x1="363.7170120732397" x2="363.7170120732397" y1="0.5" y2="30"/><line opacity="0.2" x1="83.07624007633879" x2="83.07624007633879" y1="0.5" y2="30"/><line opacity="0.2" x1="283.4266623159639" x2="283.4266623159639" y1="0.5" y2="30"/><line opacity="0.2" x1="220.84574806110595" x2="220.84574806110595" y1="0.5" y2="30"/><line opacity="0.2" x1="382.7531780837011" x2="382.7531780837011" y1="0.5" y2="30"/><line opacity="0.2" x1="440.34303880205744" x2="440.34303880205744" y1="0.5" y2="30"/><line opacity="0.2" x1="482.59513702027726" x2="482.59513702027726" y1="0.5" y2="30"/><line opacity="0.2" x1="363.4026136385252" x2="363.4026136385252" y1="0.5" y2="30"/><line opacity="0.2" x1="355.81960439493304" x2="355.81960439493304" y1="0.5" y2="30"/><line opacity="0.2" x1="406.07002608930577" x2="406.07002608930577" y1="0.5" y2="30"/><line opacity="0.2" x1="148.830287566708" x2="148.830287566708" y1="0.5" y2="30"/><line opacity="0.2" x1="183.50892099403265" x2="183.50892099403265" y1="0.5" y2="30"/><line opacity="0.2" x1="291.8004605716682" x2="291.8004605716682" y1="0.5" y2="30"/><line opacity="0.2" x1="439.78328372880605" x2="439.78328372880605" y1="0.5" y2="30"/><line opacity="0.2" x1="190.45203653644307" x2="190.45203653644307" y1="0.5" y2="30"/><line opacity="0.2" x1="388.94160050601323" x2="388.94160050601323" y1="0.5" y2="30"/><line opacity="0.2" x1="156.88643217713553" x2="156.88643217713553" y1="0.5" y2="30"/><line opacity="0.2" x1="379.7924551813208" x2="379.7924551813208" y1="0.5" y2="30"/><line opacity="0.2" x1="196.2702181566409" x2="196.2702181566409" y1="0.5" y2="30"/><line opacity="0.2" x1="459.4002854033072" x2="459.4002854033072" y1="0.5" y2="30"/><line opacity="0.2" x1="243.1457790334648" x2="243.1457790334648" y1="0.5" y2="30"/><line opacity="0.2" x1="218.0327000217841" x2="218.0327000217841" y1="0.5" y2="30"/><line opacity="0.2" x1="194.6410355022285" x2="194.6410355022285" y1="0.5" y2="30"/><line opacity="0.2" x1="433.85560814950526" x2="433.85560814950526" y1="0.5" y2="30"/><line opacity="0.2" x1="213.89065122706626" x2="213.89065122706626" y1="0.5" y2="30"/><line opacity="0.2" x1="208.3749007340414" x2="208.3749007340414" y1="0.5" y2="30"/><line opacity="0.2" x1="214.04058450321705" x2="214.04058450321705" y1="0.5" y2="30"/><line opacity="0.2" x1="341.7085807812738" x2="341.7085807812738" y1="0.5" y2="30"/><line opacity="0.2" x1="227.791779683705" x2="227.791779683705" y1="0.5" y2="30"/><line opacity="0.2" x1="246.5760585349563" x2="246.5760585349563" y1="0.5" y2="30"/><line opacity="0.2" x1="247.22188074309568" x2="247.22188074309568" y1="0.5" y2="30"/><line opacity="0.2" x1="319.94784082922064" x2="319.94784082922064" y1="0.5" y2="30"/><line opacity="0.2" x1="271.0543455758704" x2="271.0543455758704" y1="0.5" y2="30"/><line opacity="0.2" x1="239.93205240919877" x2="239.93205240919877" y1="0.5" y2="30"/><line opacity="0.2" x1="295.92846579893967" x2="295.92846579893967" y1="0.5" y2="30"/><line opacity="0.2" x1="117.08649383552955" x2="117.08649383552955" y1="0.5" y2="30"/><line opacity="0.2" x1="510.8801705172628" x2="510.8801705172628" y1="0.5" y2="30"/><line opacity="0.2" x1="348.0735759515323" x2="348.0735759515323" y1="0.5" y2="30"/><line opacity="0.2" x1="120.91902039763042" x2="120.91902039763042" y1="0.5" y2="30"/><line opacity="0.2" x1="343.50058005892987" x2="343.50058005892987" y1="0.5" y2="30"/><line opacity="0.2" x1="346.3996927695913" x2="346.3996927695913" y1="0.5" y2="30"/><line opacity="0.2" x1="261.0500270330584" x2="261.0500270330584" y1="0.5" y2="30"/><line opacity="0.2" x1="251.7759223171725" x2="251.7759223171725" y1="0.5" y2="30"/><line opacity="0.2" x1="345.05394553652394" x2="345.05394553652394" y1="0.5" y2="30"/><line opacity="0.2" x1="348.87470607969294" x2="348.87470607969294" y1="0.5" y2="30"/><line opacity="0.2" x1="228.40935870433592" x2="228.40935870433592" y1="0.5" y2="30"/><line opacity="0.2" x1="437.4321674129678" x2="437.4321674129678" y1="0.5" y2="30"/><line opacity="0.2" x1="295.24891911871737" x2="295.24891911871737" y1="0.5" y2="30"/><line opacity="0.2" x1="381.8500073911857" x2="381.8500073911857" y1="0.5" y2="30"/><line opacity="0.2" x1="376.1765116375833" x2="376.1765116375833" y1="0.5" y2="30"/><line opacity="0.2" x1="190.08221932226354" x2="190.08221932226354" y1="0.5" y2="30"/><line opacity="0.2" x1="313.8282892645309" x2="313.8282892645309" y1="0.5" y2="30"/><line opacity="0.2" x1="411.3570772309596" x2="411.3570772309596" y1="0.5" y2="30"/><line opacity="0.2" x1="286.16455171709725" x2="286.16455171709725" y1="0.5" y2="30"/><line opacity="0.2" x1="352.84211632025875" x2="352.84211632025875" y1="0.5" y2="30"/><line opacity="0.2" x1="258.1168892861666" x2="258.1168892861666" y1="0.5" y2="30"/><line opacity="0.2" x1="262.29059948151877" x2="262.29059948151877" y1="0.5" y2="30"/><line opacity="0.2" x1="186.48825106381634" x2="186.48825106381634" y1="0.5" y2="30"/><line opacity="0.2" x1="344.5507828369479" x2="344.5507828369479" y1="0.5" y2="30"/><line opacity="0.2" x1="386.5119702544019" x2="386.5119702544019" y1="0.5" y2="30"/><line opacity="0.2" x1="328.9371819581069" x2="328.9371819581069" y1="0.5" y2="30"/><line opacity="0.2" x1="346.3295586607107" x2="346.3295586607107" y1="0.5" y2="30"/><line opacity="0.2" x1="353.12369527613856" x2="353.12369527613856" y1="0.5" y2="30"/><line opacity="0.2" x1="394.7755378232958" x2="394.7755378232958" y1="0.5" y2="30"/><line opacity="0.2" x1="268.2065809209661" x2="268.2065809209661" y1="0.5" y2="30"/><line opacity="0.2" x1="211.7108063951343" x2="211.7108063951343" y1="0.5" y2="30"/><line opacity="0.2" x1="419.2188420668541" x2="419.2188420668541" y1="0.5" y2="30"/><line opacity="0.2" x1="441.0183476047742" x2="441.0183476047742" y1="0.5" y2="30"/><line opacity="0.2" x1="431.2841474784565" x2="431.2841474784565" y1="0.5" y2="30"/><line opacity="0.2" x1="391.9372912684118" x2="391.9372912684118" y1="0.5" y2="30"/><line opacity="0.2" x1="108.32808653279449" x2="108.32808653279449" y1="0.5" y2="30"/><line opacity="0.2" x1="256.3230602936703" x2="256.3230602936703" y1="0.5" y2="30"/><line opacity="0.2" x1="222.47178236026835" x2="222.47178236026835" y1="0.5" y2="30"/><line opacity="0.2" x1="377.1980498832143" x2="377.1980498832143" y1="0.5" y2="30"/><line opacity="0.2" x1="262.6303969838278" x2="262.6303969838278" y1="0.5" y2="30"/><line opacity="0.2" x1="233.12361088989556" x2="233.12361088989556" y1="0.5" y2="30"/><line opacity="0.2" x1="52.09644087746918" x2="52.09644087746918" y1="0.5" y2="30"/><line opacity="0.2" x1="355.6692217800641" x2="355.6692217800641" y1="0.5" y2="30"/><line opacity="0.2" x1="246.74188127667037" x2="246.74188127667037" y1="0.5" y2="30"/><line opacity="0.2" x1="234.63552702482852" x2="234.63552702482852" y1="0.5" y2="30"/><line opacity="0.2" x1="394.01839478134445" x2="394.01839478134445" y1="0.5" y2="30"/><line opacity="0.2" x1="214.13899579091648" x2="214.13899579091648" y1="0.5" y2="30"/><line opacity="0.2" x1="313.0756239544801" x2="313.0756239544801" y1="0.5" y2="30"/><line opacity="0.2" x1="332.58572799400565" x2="332.58572799400565" y1="0.5" y2="30"/><line opacity="0.2" x1="390.73305944591755" x2="390.73305944591755" y1="0.5" y2="30"/><line opacity="0.2" x1="266.1432789441921" x2="266.1432789441921" y1="0.5" y2="30"/><line opacity="0.2" x1="168.0989560438952" x2="168.0989560438952" y1="0.5" y2="30"/><line opacity="0.2" x1="242.81333756966995" x2="242.81333756966995" y1="0.5" y2="30"/><line opacity="0.2" x1="232.11980295295604" x2="232.11980295295604" y1="0.5" y2="30"/><line opacity="0.2" x1="61.77052608442156" x2="61.77052608442156" y1="0.5" y2="30"/><line opacity="0.2" x1="229.75401029636595" x2="229.75401029636595" y1="0.5" y2="30"/><line opacity="0.2" x1="405.191213414982" x2="405.191213414982" y1="0.5" y2="30"/><line opacity="0.2" x1="547.6235984405657" x2="547.6235984405657" y1="0.5" y2="30"/><line opacity="0.2" x1="335.7426555587522" x2="335.7426555587522" y1="0.5" y2="30"/><line opacity="0.2" x1="319.182497598655" x2="319.182497598655" y1="0.5" y2="30"/><line opacity="0.2" x1="214.8671135404887" x2="214.8671135404887" y1="0.5" y2="30"/><line opacity="0.2" x1="439.5950193872909" x2="439.5950193872909" y1="0.5" y2="30"/><line opacity="0.2" x1="329.61285022322875" x2="329.61285022322875" y1="0.5" y2="30"/><line opacity="0.2" x1="188.40884413006756" x2="188.40884413006756" y1="0.5" y2="30"/><line opacity="0.2" x1="462.6426220351204" x2="462.6426220351204" y1="0.5" y2="30"/><line opacity="0.2" x1="310.32641412198814" x2="310.32641412198814" y1="0.5" y2="30"/><line opacity="0.2" x1="302.6445834028837" x2="302.6445834028837" y1="0.5" y2="30"/><line opacity="0.2" x1="517.3728995689253" x2="517.3728995689253" y1="0.5" y2="30"/><line opacity="0.2" x1="420.95797085112457" x2="420.95797085112457" y1="0.5" y2="30"/><line opacity="0.2" x1="259.74540581213523" x2="259.74540581213523" y1="0.5" y2="30"/><line opacity="0.2" x1="169.2255052718656" x2="169.2255052718656" y1="0.5" y2="30"/><line opacity="0.2" x1="208.52443836337977" x2="208.52443836337977" y1="0.5" y2="30"/><line opacity="0.2" x1="129.05749645159844" x2="129.05749645159844" y1="0.5" y2="30"/><line opacity="0.2" x1="154.6585724458622" x2="154.6585724458622" y1="0.5" y2="30"/><line opacity="0.2" x1="292.0800610792273" x2="292.0800610792273" y1="0.5" y2="30"/><line opacity="0.2" x1="433.51448208429986" x2="433.51448208429986" y1="0.5" y2="30"/><line opacity="0.2" x1="479.4235479114471" x2="479.4235479114471" y1="0.5" y2="30"/><line opacity="0.2" x1="342.2756798336634" x2="342.2756798336634" y1="0.5" y2="30"/><line opacity="0.2" x1="188.6875231736878" x2="188.6875231736878" y1="0.5" y2="30"/><line opacity="0.2" x1="284.14987195584627" x2="284.14987195584627" y1="0.5" y2="30"/><line opacity="0.2" x1="154.22045332252443" x2="154.22045332252443" y1="0.5" y2="30"/><line opacity="0.2" x1="175.15222280438698" x2="175.15222280438698" y1="0.5" y2="30"/><line opacity="0.2" x1="380.88891109475065" x2="380.88891109475065" y1="0.5" y2="30"/><line opacity="0.2" x1="337.1322945370678" x2="337.1322945370678" y1="0.5" y2="30"/><line opacity="0.2" x1="285.1027002651439" x2="285.1027002651439" y1="0.5" y2="30"/><line opacity="0.2" x1="282.89969861063713" x2="282.89969861063713" y1="0.5" y2="30"/><line opacity="0.2" x1="254.94935314860237" x2="254.94935314860237" y1="0.5" y2="30"/><line opacity="0.2" x1="457.8727486319858" x2="457.8727486319858" y1="0.5" y2="30"/><line opacity="0.2" x1="245.08203524689773" x2="245.08203524689773" y1="0.5" y2="30"/><line opacity="0.2" x1="239.85548762341793" x2="239.85548762341793" y1="0.5" y2="30"/><line opacity="0.2" x1="339.515794936356" x2="339.515794936356" y1="0.5" y2="30"/><line opacity="0.2" x1="432.1971738924994" x2="432.1971738924994" y1="0.5" y2="30"/><line opacity="0.2" x1="485.13835165689056" x2="485.13835165689056" y1="0.5" y2="30"/><line opacity="0.2" x1="419.50210104106594" x2="419.50210104106594" y1="0.5" y2="30"/><line opacity="0.2" x1="165.17224881710356" x2="165.17224881710356" y1="0.5" y2="30"/><line opacity="0.2" x1="311.2085919243541" x2="311.2085919243541" y1="0.5" y2="30"/><line opacity="0.2" x1="495.8767993201542" x2="495.8767993201542" y1="0.5" y2="30"/><line opacity="0.2" x1="238.48307113362966" x2="238.48307113362966" y1="0.5" y2="30"/><line opacity="0.2" x1="349.3219615580797" x2="349.3219615580797" y1="0.5" y2="30"/><line opacity="0.2" x1="363.46288324356215" x2="363.46288324356215" y1="0.5" y2="30"/><line opacity="0.2" x1="429.3155539409154" x2="429.3155539409154" y1="0.5" y2="30"/><line opacity="0.2" x1="328.71557293116297" x2="328.71557293116297" y1="0.5" y2="30"/><line opacity="0.2" x1="202.1578688483927" x2="202.1578688483927" y1="0.5" y2="30"/><line opacity="0.2" x1="382.4330235903111" x2="382.4330235903111" y1="0.5" y2="30"/><line opacity="0.2" x1="471.67181083897236" x2="471.67181083897236" y1="0.5" y2="30"/><line opacity="0.2" x1="346.15712630782855" x2="346.15712630782855" y1="0.5" y2="30"/><line opacity="0.2" x1="273.379692440319" x2="273.379692440319" y1="0.5" y2="30"/><line opacity="0.2" x1="269.07275704259246" x2="269.07275704259246" y1="0.5" y2="30"/><line opacity="0.2" x1="406.00879175003706" x2="406.00879175003706" y1="0.5" y2="30"/><line opacity="0.2" x1="405.73294389583197" x2="405.73294389583197" y1="0.5" y2="30"/><line opacity="0.2" x1="181.9617502624451" x2="181.9617502624451" y1="0.5" y2="30"/><line opacity="0.2" x1="304.2551457628086" x2="304.2551457628086" y1="0.5" y2="30"/><line opacity="0.2" x1="104.96025226146259" x2="104.96025226146259" y1="0.5" y2="30"/><line opacity="0.2" x1="292.18866052746705" x2="292.18866052746705" y1="0.5" y2="30"/><line opacity="0.2" x1="369.9531624624932" x2="369.9531624624932" y1="0.5" y2="30"/><line opacity="0.2" x1="315.78994926495307" x2="315.78994926495307" y1="0.5" y2="30"/><line opacity="0.2" x1="313.37969138177715" x2="313.37969138177715" y1="0.5" y2="30"/><line opacity="0.2" x1="230.76606500155128" x2="230.76606500155128" y1="0.5" y2="30"/><line opacity="0.2" x1="539.6966923826815" x2="539.6966923826815" y1="0.5" y2="30"/><line opacity="0.2" x1="396.3024562791085" x2="396.3024562791085" y1="0.5" y2="30"/><line opacity="0.2" x1="399.6748372595841" x2="399.6748372595841" y1="0.5" y2="30"/><line opacity="0.2" x1="318.3876083185311" x2="318.3876083185311" y1="0.5" y2="30"/><line opacity="0.2" x1="213.84034971889085" x2="213.84034971889085" y1="0.5" y2="30"/><line opacity="0.2" x1="250.2764465317449" x2="250.2764465317449" y1="0.5" y2="30"/><line opacity="0.2" x1="132.72473030077762" x2="132.72473030077762" y1="0.5" y2="30"/><line opacity="0.2" x1="373.12041916436" x2="373.12041916436" y1="0.5" y2="30"/><line opacity="0.2" x1="192.61560496388444" x2="192.61560496388444" y1="0.5" y2="30"/><line opacity="0.2" x1="287.9146431639428" x2="287.9146431639428" y1="0.5" y2="30"/><line opacity="0.2" x1="536.535724939513" x2="536.535724939513" y1="0.5" y2="30"/><line opacity="0.2" x1="395.1645196601254" x2="395.1645196601254" y1="0.5" y2="30"/><line opacity="0.2" x1="515.7457661201705" x2="515.7457661201705" y1="0.5" y2="30"/><line opacity="0.2" x1="258.0423138449271" x2="258.0423138449271" y1="0.5" y2="30"/><line opacity="0.2" x1="348.98207907361444" x2="348.98207907361444" y1="0.5" y2="30"/><line opacity="0.2" x1="393.54763922864885" x2="393.54763922864885" y1="0.5" y2="30"/><line opacity="0.2" x1="226.82062672328325" x2="226.82062672328325" y1="0.5" y2="30"/><line opacity="0.2" x1="59.35795201233364" x2="59.35795201233364" y1="0.5" y2="30"/><line opacity="0.2" x1="446.78435228696185" x2="446.78435228696185" y1="0.5" y2="30"/><line opacity="0.2" x1="429.6993067202057" x2="429.6993067202057" y1="0.5" y2="30"/><line opacity="0.2" x1="252.5133122852549" x2="252.5133122852549" y1="0.5" y2="30"/><line opacity="0.2" x1="221.01490710373315" x2="221.01490710373315" y1="0.5" y2="30"/><line opacity="0.2" x1="364.0603266863832" x2="364.0603266863832" y1="0.5" y2="30"/><line opacity="0.2" x1="333.9054367149644" x2="333.9054367149644" y1="0.5" y2="30"/><line opacity="0.2" x1="285.16627908040863" x2="285.16627908040863" y1="0.5" y2="30"/><line opacity="0.2" x1="129.4765462660455" x2="129.4765462660455" y1="0.5" y2="30"/><line opacity="0.2" x1="344.71186586816424" x2="344.71186586816424" y1="0.5" y2="30"/><line opacity="0.2" x1="433.8304836366015" x2="433.8304836366015" y1="0.5" y2="30"/><line opacity="0.2" x1="203.7123197798713" x2="203.7123197798713" y1="0.5" y2="30"/><line opacity="0.2" x1="337.44697365716354" x2="337.44697365716354" y1="0.5" y2="30"/><line opacity="0.2" x1="327.7870430200473" x2="327.7870430200473" y1="0.5" y2="30"/><line opacity="0.2" x1="325.4198816894036" x2="325.4198816894036" y1="0.5" y2="30"/><line opacity="0.2" x1="403.65094871762244" x2="403.65094871762244" y1="0.5" y2="30"/><line opacity="0.2" x1="370.03974347610335" x2="370.03974347610335" y1="0.5" y2="30"/><line opacity="0.2" x1="342.197815950593" x2="342.197815950593" y1="0.5" y2="30"/><line opacity="0.2" x1="358.404561069447" x2="358.404561069447" y1="0.5" y2="30"/><line opacity="0.2" x1="285.33059827393623" x2="285.33059827393623" y1="0.5" y2="30"/><line opacity="0.2" x1="248.4511626959117" x2="248.4511626959117" y1="0.5" y2="30"/><line opacity="0.2" x1="258.3824109262212" x2="258.3824109262212" y1="0.5" y2="30"/><line opacity="0.2" x1="272.2730817430407" x2="272.2730817430407" y1="0.5" y2="30"/><line opacity="0.2" x1="143.94157351010875" x2="143.94157351010875" y1="0.5" y2="30"/><line opacity="0.2" x1="312.1571106389963" x2="312.1571106389963" y1="0.5" y2="30"/><line opacity="0.2" x1="216.92862444032298" x2="216.92862444032298" y1="0.5" y2="30"/><line opacity="0.2" x1="243.31169360402637" x2="243.31169360402637" y1="0.5" y2="30"/><line opacity="0.2" x1="339.338543335407" x2="339.338543335407" y1="0.5" y2="30"/><line opacity="0.2" x1="313.51425419703423" x2="313.51425419703423" y1="0.5" y2="30"/><line opacity="0.2" x1="394.87686180905564" x2="394.87686180905564" y1="0.5" y2="30"/><line opacity="0.2" x1="380.5309580666321" x2="380.5309580666321" y1="0.5" y2="30"/><line opacity="0.2" x1="411.8546790039712" x2="411.8546790039712" y1="0.5" y2="30"/><line opacity="0.2" x1="147.7650353375172" x2="147.7650353375172" y1="0.5" y2="30"/><line opacity="0.2" x1="284.05320760645475" x2="284.05320760645475" y1="0.5" y2="30"/><line opacity="0.2" x1="314.7669889032529" x2="314.7669889032529" y1="0.5" y2="30"/><line opacity="0.2" x1="234.04218371905682" x2="234.04218371905682" y1="0.5" y2="30"/><line opacity="0.2" x1="354.161642309808" x2="354.161642309808" y1="0.5" y2="30"/><line opacity="0.2" x1="346.2168166437065" x2="346.2168166437065" y1="0.5" y2="30"/><line opacity="0.2" x1="383.26718802592603" x2="383.26718802592603" y1="0.5" y2="30"/><line opacity="0.2" x1="402.35037807384754" x2="402.35037807384754" y1="0.5" y2="30"/><line opacity="0.2" x1="202.63773488170295" x2="202.63773488170295" y1="0.5" y2="30"/><line opacity="0.2" x1="305.1771516702819" x2="305.1771516702819" y1="0.5" y2="30"/><line opacity="0.2" x1="332.46486647392857" x2="332.46486647392857" y1="0.5" y2="30"/><line opacity="0.2" x1="318.09551711907943" x2="318.09551711907943" y1="0.5" y2="30"/><line opacity="0.2" x1="383.00415718200276" x2="383.00415718200276" y1="0.5" y2="30"/><line opacity="0.2" x1="476.09612896201634" x2="476.09612896201634" y1="0.5" y2="30"/><line opacity="0.2" x1="287.6598317535247" x2="287.6598317535247" y1="0.5" y2="30"/><line opacity="0.2" x1="187.77975315554536" x2="187.77975315554536" y1="0.5" y2="30"/><line opacity="0.2" x1="288.8471170460198" x2="288.8471170460198" y1="0.5" y2="30"/><line opacity="0.2" x1="284.3523970429099" x2="284.3523970429099" y1="0.5" y2="30"/><line opacity="0.2" x1="227.6572549796793" x2="227.6572549796793" y1="0.5" y2="30"/><line opacity="0.2" x1="225.64731666110566" x2="225.64731666110566" y1="0.5" y2="30"/><line opacity="0.2" x1="313.9154161771658" x2="313.9154161771658" y1="0.5" y2="30"/><line opacity="0.2" x1="325.73166996872425" x2="325.73166996872425" y1="0.5" y2="30"/><line opacity="0.2" x1="313.22491873324174" x2="313.22491873324174" y1="0.5" y2="30"/><line opacity="0.2" x1="156.96868327734376" x2="156.96868327734376" y1="0.5" y2="30"/><line opacity="0.2" x1="101.59197651213391" x2="101.59197651213391" y1="0.5" y2="30"/><line opacity="0.2" x1="450.7825940182474" x2="450.7825940182474" y1="0.5" y2="30"/><line opacity="0.2" x1="431.47595901875" x2="431.47595901875" y1="0.5" y2="30"/><line opacity="0.2" x1="356.81168069317766" x2="356.81168069317766" y1="0.5" y2="30"/><line opacity="0.2" x1="330.04647287616723" x2="330.04647287616723" y1="0.5" y2="30"/><line opacity="0.2" x1="326.1931037946205" x2="326.1931037946205" y1="0.5" y2="30"/><line opacity="0.2" x1="371.6309694436333" x2="371.6309694436333" y1="0.5" y2="30"/><line opacity="0.2" x1="437.65816436563824" x2="437.65816436563824" y1="0.5" y2="30"/><line opacity="0.2" x1="316.8136149162883" x2="316.8136149162883" y1="0.5" y2="30"/><line opacity="0.2" x1="215.68627589797325" x2="215.68627589797325" y1="0.5" y2="30"/><line opacity="0.2" x1="212.90384943005978" x2="212.90384943005978" y1="0.5" y2="30"/><line opacity="0.2" x1="346.52303592177054" x2="346.52303592177054" y1="0.5" y2="30"/><line opacity="0.2" x1="164.47939083974816" x2="164.47939083974816" y1="0.5" y2="30"/><line opacity="0.2" x1="279.1086252408396" x2="279.1086252408396" y1="0.5" y2="30"/><line opacity="0.2" x1="181.09749566069542" x2="181.09749566069542" y1="0.5" y2="30"/><line opacity="0.2" x1="158.87766611997208" x2="158.87766611997208" y1="0.5" y2="30"/><line opacity="0.2" x1="295.049477776517" x2="295.049477776517" y1="0.5" y2="30"/><line opacity="0.2" x1="364.9558839069735" x2="364.9558839069735" y1="0.5" y2="30"/><line opacity="0.2" x1="335.68581638482874" x2="335.68581638482874" y1="0.5" y2="30"/><line opacity="0.2" x1="316.2404626425983" x2="316.2404626425983" y1="0.5" y2="30"/><line opacity="0.2" x1="466.409603568218" x2="466.409603568218" y1="0.5" y2="30"/><line opacity="0.2" x1="422.83386637698555" x2="422.83386637698555" y1="0.5" y2="30"/><line opacity="0.2" x1="371.3236843560227" x2="371.3236843560227" y1="0.5" y2="30"/><line opacity="0.2" x1="436.4767917884619" x2="436.4767917884619" y1="0.5" y2="30"/><line opacity="0.2" x1="214.44411170944778" x2="214.44411170944778" y1="0.5" y2="30"/><line opacity="0.2" x1="185.53937019131348" x2="185.53937019131348" y1="0.5" y2="30"/><line opacity="0.2" x1="399.56949127801795" x2="399.56949127801795" y1="0.5" y2="30"/><line opacity="0.2" x1="277.1608247014799" x2="277.1608247014799" y1="0.5" y2="30"/><line opacity="0.2" x1="243.79429066500066" x2="243.79429066500066" y1="0.5" y2="30"/><line opacity="0.2" x1="328.9398548421182" x2="328.9398548421182" y1="0.5" y2="30"/><line opacity="0.2" x1="423.5549018021148" x2="423.5549018021148" y1="0.5" y2="30"/><line opacity="0.2" x1="284.54126919976716" x2="284.54126919976716" y1="0.5" y2="30"/><line opacity="0.2" x1="239.42160638077152" x2="239.42160638077152" y1="0.5" y2="30"/><line opacity="0.2" x1="400.0962517111806" x2="400.0962517111806" y1="0.5" y2="30"/><line opacity="0.2" x1="455.59480509894246" x2="455.59480509894246" y1="0.5" y2="30"/><line opacity="0.2" x1="118.1506392289606" x2="118.1506392289606" y1="0.5" y2="30"/><line opacity="0.2" x1="337.16380039413326" x2="337.16380039413326" y1="0.5" y2="30"/><line opacity="0.2" x1="396.5855579817772" x2="396.5855579817772" y1="0.5" y2="30"/><line opacity="0.2" x1="451.56260055933916" x2="451.56260055933916" y1="0.5" y2="30"/><line opacity="0.2" x1="252.23323848621456" x2="252.23323848621456" y1="0.5" y2="30"/><line opacity="0.2" x1="283.4699297835667" x2="283.4699297835667" y1="0.5" y2="30"/><line opacity="0.2" x1="203.50443711249244" x2="203.50443711249244" y1="0.5" y2="30"/><line opacity="0.2" x1="249.41577505855167" x2="249.41577505855167" y1="0.5" y2="30"/><line opacity="0.2" x1="278.7391395052501" x2="278.7391395052501" y1="0.5" y2="30"/><line opacity="0.2" x1="558.5615470523693" x2="558.5615470523693" y1="0.5" y2="30"/><line opacity="0.2" x1="311.44701730348174" x2="311.44701730348174" y1="0.5" y2="30"/><line opacity="0.2" x1="381.13950021880834" x2="381.13950021880834" y1="0.5" y2="30"/><line opacity="0.2" x1="329.4141579915238" x2="329.4141579915238" y1="0.5" y2="30"/><line opacity="0.2" x1="427.6078715962512" x2="427.6078715962512" y1="0.5" y2="30"/><line opacity="0.2" x1="310.39184474689273" x2="310.39184474689273" y1="0.5" y2="30"/><line opacity="0.2" x1="437.38295290914016" x2="437.38295290914016" y1="0.5" y2="30"/><line opacity="0.2" x1="188.64112557245215" x2="188.64112557245215" y1="0.5" y2="30"/><line opacity="0.2" x1="175.26884726535982" x2="175.26884726535982" y1="0.5" y2="30"/><line opacity="0.2" x1="438.3196753144395" x2="438.3196753144395" y1="0.5" y2="30"/><line opacity="0.2" x1="202.3408545130334" x2="202.3408545130334" y1="0.5" y2="30"/><line opacity="0.2" x1="276.5736377478984" x2="276.5736377478984" y1="0.5" y2="30"/><line opacity="0.2" x1="273.89590035162666" x2="273.89590035162666" y1="0.5" y2="30"/><line opacity="0.2" x1="294.187909463413" x2="294.187909463413" y1="0.5" y2="30"/><line opacity="0.2" x1="311.7427456328764" x2="311.7427456328764" y1="0.5" y2="30"/><line opacity="0.2" x1="437.5612165756771" x2="437.5612165756771" y1="0.5" y2="30"/><line opacity="0.2" x1="308.88939804044225" x2="308.88939804044225" y1="0.5" y2="30"/><line opacity="0.2" x1="417.5496873778205" x2="417.5496873778205" y1="0.5" y2="30"/><line opacity="0.2" x1="488.5728512947968" x2="488.5728512947968" y1="0.5" y2="30"/><line opacity="0.2" x1="205.14503946103537" x2="205.14503946103537" y1="0.5" y2="30"/><line opacity="0.2" x1="377.99917659534066" x2="377.99917659534066" y1="0.5" y2="30"/><line opacity="0.2" x1="423.7299964543449" x2="423.7299964543449" y1="0.5" y2="30"/><line opacity="0.2" x1="342.86188607500895" x2="342.86188607500895" y1="0.5" y2="30"/><line opacity="0.2" x1="228.42847791685153" x2="228.42847791685153" y1="0.5" y2="30"/><line opacity="0.2" x1="337.5629062007404" x2="337.5629062007404" y1="0.5" y2="30"/><line opacity="0.2" x1="315.53029562212475" x2="315.53029562212475" y1="0.5" y2="30"/><line opacity="0.2" x1="270.7291948585799" x2="270.7291948585799" y1="0.5" y2="30"/><line opacity="0.2" x1="380.04667756555637" x2="380.04667756555637" y1="0.5" y2="30"/><line opacity="0.2" x1="387.77484532998227" x2="387.77484532998227" y1="0.5" y2="30"/><line opacity="0.2" x1="431.3971432396532" x2="431.3971432396532" y1="0.5" y2="30"/><line opacity="0.2" x1="289.173831756148" x2="289.173831756148" y1="0.5" y2="30"/></g></svg>