<svg xmlns="http://www.w3.org/2000/svg" xmlns:xlink="http://www.w3.org/1999/xlink" class="plot-f6d35844d0a4d" fill="currentColor" font-family="system-ui, sans-serif" font-size="10" text-anchor="middle" width="640" height="400" viewBox="0 0 640 400" style="color: black;"><style>
        .plot-f6d35844d0a4d {
          display: block;
          background: white;
          height: auto;
          height: intrinsic;
          max-width: 100%;
        }
        .plot-f6d35844d0a4d text,
        .plot-f6d35844d0a4d tspan {
          white-space: pre;
        }
      </style><g aria-label="y-axis tick" fill="none" stroke="currentColor" transform="translate(0,0.5)"><path transform="translate(40,361.2194066019283)" d="M0,0L-6,0"/><path transform="translate(40,335.8028029417102)" d="M0,0L-6,0"/><path transform="translate(40,310.386199281492)" d="M0,0L-6,0"/><path transform="translate(40,284.9695956212738)" d="M0,0L-6,0"/><path transform="translate(40,259.5529919610557)" d="M0,0L-6,0"/><path transform="translate(40,234.13638830083747)" d="M0,0L-6,0"/><path transform="translate(40,208.71978464061928)" d="M0,0L-6,0"/><path transform="translate(40,183.30318098040112)" d="M0,0L-6,0"/><path transform="translate(40,157.8865773201829)" d="M0,0L-6,0"/><path transform="translate(40,132.46997365996475)" d="M0,0L-6,0"/><path transform="translate(40,107.05336999974656)" d="M0,0L-6,0"/><path transform="translate(40,81.63676633952838)" d="M0,0L-6,0"/><path transform="translate(40,56.22016267931018)" d="M0,0L-6,0"/><path transform="translate(40,30.803559019092006)" d="M0,0L-6,0"/></g><g aria-label="y-axis tick label" text-anchor="end" font-variant="tabular-nums" transform="translate(-8.5,0.5)"><text y="0.32em" transform="translate(40,361.2194066019283)">0</text><text y="0.32em" transform="translate(40,335.8028029417102)">1</text><text y="0.32em" transform="translate(40,310.386199281492)">2</text><text y="0.32em" transform="translate(40,284.9695956212738)">3</text><text y="0.32em" transform="translate(40,259.5529919610557)">4</text><text y="0.32em" transform="translate(40,234.13638830083747)">5</text><text y="0.32em" transform="translate(40,208.71978464061928)">6</text><text y="0.32em" transform="translate(40,183.30318098040112)">7</text><text y="0.32em" transform="translate(40,157.8865773201829)">8</text><text y="0.32em" transform="translate(40,132.46997365996475)">9</text><text y="0.32em" transform="translate(40,107.05336999974656)">10</text><text y="0.32em" transform="translate(40,81.63676633952838)">11</text><text y="0.32em" transform="translate(40,56.22016267931018)">12</text><text y="0.32em" transform="translate(40,30.803559019092006)">13</text></g><g aria-label="line" fill="none" stroke="currentColor" stroke-width="1.5" stroke-linejoin="round" stroke-linecap="round" transform="translate(0.5,0.5)"><path d="M40,354.885L46.051,342.033L52.101,323.314L58.152,306.034L64.202,279.14L70.253,278.389L76.303,293.208L82.354,281.222L88.404,237.815L94.455,232.425L100.505,199.65L106.556,173.794L112.606,169.268L118.657,199.215L124.707,144.132L130.758,121.513L136.808,76.964L142.859,134.058L148.909,117.455L154.96,141.332L161.01,165.588L167.061,137.427L173.111,145.159L179.162,137.545L185.212,133.061L191.263,113.484L197.313,138.131L203.364,137.605L209.414,90.726L215.465,94.727L221.515,96.603L227.566,133.182L233.616,175.829L239.667,180.266L245.717,199.621L251.768,168.149L257.818,116.993L263.869,123.528L269.919,123.847L275.97,138.871L282.02,150.829L288.071,171.907L294.121,189.166L300.172,205.264L306.222,190.944L312.273,173.425L318.323,190.993L324.374,158.297L330.424,99.51L336.475,55.518L342.525,62.958L348.576,74.223L354.626,68.389L360.677,78.54L366.727,72.168L372.778,61.749L378.828,20L384.879,53.274L390.929,81.436L396.98,104.918L403.03,78.318L409.081,115.978L415.131,89.161L421.182,123.923L427.232,148.068L433.283,157.963L439.333,178.423L445.384,179.177L451.434,171.423L457.485,155.914L463.535,182.99L469.586,200.488L475.636,248.65L481.687,257.45L487.737,246.28L493.788,210.522L499.838,198.698L505.889,230.964L511.939,236.75L517.99,268.962L524.04,298.928L530.091,305.598L536.141,322.847L542.192,309.673L548.242,293.736L554.293,281.801L560.343,289.917L566.394,258.953L572.444,257.908L578.495,266.742L584.545,244.69L590.596,273.436L596.646,318.949L602.697,366.776L608.747,380L614.798,339.266L620.848,335.94L626.899,347.149L632.949,353.916L639,345.236"/></g></svg>