<svg xmlns="http://www.w3.org/2000/svg" xmlns:xlink="http://www.w3.org/1999/xlink" class="plot-d6a7b5" fill="currentColor" font-family="system-ui, sans-serif" font-size="10" text-anchor="middle" width="640" height="400" viewBox="0 0 640 400" style="color: black; background-color: white;"><style>:where(.plot-d6a7b5) {
  --plot-background: white;
  display: block;
  height: auto;
  height: intrinsic;
  max-width: 100%;
}
:where(.plot-d6a7b5 text),
:where(.plot-d6a7b5 tspan) {
  white-space: pre;
}</style><g aria-label="y-axis tick" fill="none" stroke="currentColor"><path transform="translate(40,355.25814135312135)" d="M0,0L-6,0"/><path transform="translate(40,328.67116292056215)" d="M0,0L-6,0"/><path transform="translate(40,302.0841844880028)" d="M0,0L-6,0"/><path transform="translate(40,275.49720605544354)" d="M0,0L-6,0"/><path transform="translate(40,248.91022762288432)" d="M0,0L-6,0"/><path transform="translate(40,222.32324919032504)" d="M0,0L-6,0"/><path transform="translate(40,195.73627075776582)" d="M0,0L-6,0"/><path transform="translate(40,169.14929232520657)" d="M0,0L-6,0"/><path transform="translate(40,142.56231389264732)" d="M0,0L-6,0"/><path transform="translate(40,115.97533546008805)" d="M0,0L-6,0"/><path transform="translate(40,89.3883570275288)" d="M0,0L-6,0"/><path transform="translate(40,62.801378594969556)" d="M0,0L-6,0"/><path transform="translate(40,36.21440016241027)" d="M0,0L-6,0"/></g><g aria-label="y-axis tick label" text-anchor="end" font-variant="tabular-nums" transform="translate(-9,0)"><text y="0.32em" transform="translate(40,355.25814135312135)">−10</text><text y="0.32em" transform="translate(40,328.67116292056215)">−9</text><text y="0.32em" transform="translate(40,302.0841844880028)">−8</text><text y="0.32em" transform="translate(40,275.49720605544354)">−7</text><text y="0.32em" transform="translate(40,248.91022762288432)">−6</text><text y="0.32em" transform="translate(40,222.32324919032504)">−5</text><text y="0.32em" transform="translate(40,195.73627075776582)">−4</text><text y="0.32em" transform="translate(40,169.14929232520657)">−3</text><text y="0.32em" transform="translate(40,142.56231389264732)">−2</text><text y="0.32em" transform="translate(40,115.97533546008805)">−1</text><text y="0.32em" transform="translate(40,89.3883570275288)">0</text><text y="0.32em" transform="translate(40,62.801378594969556)">1</text><text y="0.32em" transform="translate(40,36.21440016241027)">2</text></g><g aria-label="rule" stroke="steelblue"><line x1="40" x2="639.5" y1="89.3883570275288" y2="89.3883570275288"/></g><g aria-label="line" fill="none" stroke="currentColor" stroke-width="1.5" stroke-linejoin="round" stroke-linecap="round"><path d="M40,117.733L46.056,138.642L52.111,118.244L58.167,108.841L64.222,95.722L70.278,84.375L76.333,69.88L82.389,58.067L88.444,104.046L94.5,68.56L100.556,87.821L106.611,110.15L112.667,140.77L118.722,154.056L124.778,144.98L130.833,145.96L136.889,126.311L142.944,104.588L149,53.158L155.056,20L161.111,22.663L167.167,24.401L173.222,40.41L179.278,38.891L185.333,85.732L191.389,132.874L197.444,104.195L203.5,139.594L209.556,151.67L215.611,127.526L221.667,140.784L227.722,116.592L233.778,117.18L239.833,162.454L245.889,171.046L251.944,215.117L258,216.018L264.056,230.019L270.111,233.429L276.167,273.131L282.222,294.783L288.278,277.62L294.333,308.574L300.389,352.522L306.444,356.655L312.5,332.136L318.556,337.444L324.611,334.626L330.667,324.11L336.722,264.729L342.778,255.388L348.833,282.911L354.889,256.591L360.944,276.284L367,265.09L373.056,249.855L379.111,225.813L385.167,249.79L391.222,240.404L397.278,284.939L403.333,288.086L409.389,247.334L415.444,259.012L421.5,283.915L427.556,342.389L433.611,356.146L439.667,380L445.722,365.473L451.778,347.448L457.833,340.724L463.889,305.093L469.944,299.976L476,270.159L482.056,265.413L488.111,313.778L494.167,342.826L500.222,359.984L506.278,375.939L512.333,339.223L518.389,326.36L524.444,297.759L530.5,309.091L536.556,289.549L542.611,286.021L548.667,277.708L554.722,278.882L560.778,275.214L566.833,248.512L572.889,265.186L578.944,265.725L585,205.211L591.056,161.71L597.111,137.841L603.167,137.729L609.222,115.02L615.278,126.428L621.333,100.64L627.389,60.791L633.444,108.871L639.5,97.718"/></g></svg>