<svg xmlns="http://www.w3.org/2000/svg" xmlns:xlink="http://www.w3.org/1999/xlink" class="plot-719d7b2459a1b" fill="currentColor" font-family="system-ui, sans-serif" font-size="10" text-anchor="middle" width="640" height="400" viewBox="0 0 640 400" style="color: black;"><style>
        .plot-719d7b2459a1b {
          display: block;
          background: white;
          height: auto;
          height: intrinsic;
          max-width: 100%;
        }
        .plot-719d7b2459a1b text,
        .plot-719d7b2459a1b tspan {
          white-space: pre;
        }
      </style><g aria-label="y-axis tick" fill="none" stroke="currentColor" transform="translate(0,0.5)"><path transform="translate(40,353.49405466044124)" d="M0,0L-6,0"/><path transform="translate(40,326.23379414824393)" d="M0,0L-6,0"/><path transform="translate(40,298.9735336360467)" d="M0,0L-6,0"/><path transform="translate(40,271.7132731238494)" d="M0,0L-6,0"/><path transform="translate(40,244.4530126116521)" d="M0,0L-6,0"/><path transform="translate(40,217.19275209945482)" d="M0,0L-6,0"/><path transform="translate(40,189.9324915872575)" d="M0,0L-6,0"/><path transform="translate(40,162.67223107506018)" d="M0,0L-6,0"/><path transform="translate(40,135.41197056286293)" d="M0,0L-6,0"/><path transform="translate(40,108.15171005066563)" d="M0,0L-6,0"/><path transform="translate(40,80.89144953846832)" d="M0,0L-6,0"/><path transform="translate(40,53.63118902627102)" d="M0,0L-6,0"/><path transform="translate(40,26.370928514073753)" d="M0,0L-6,0"/></g><g aria-label="y-axis tick label" text-anchor="end" font-variant="tabular-nums" transform="translate(-8.5,0.5)"><text y="0.32em" transform="translate(40,353.49405466044124)">−11</text><text y="0.32em" transform="translate(40,326.23379414824393)">−10</text><text y="0.32em" transform="translate(40,298.9735336360467)">−9</text><text y="0.32em" transform="translate(40,271.7132731238494)">−8</text><text y="0.32em" transform="translate(40,244.4530126116521)">−7</text><text y="0.32em" transform="translate(40,217.19275209945482)">−6</text><text y="0.32em" transform="translate(40,189.9324915872575)">−5</text><text y="0.32em" transform="translate(40,162.67223107506018)">−4</text><text y="0.32em" transform="translate(40,135.41197056286293)">−3</text><text y="0.32em" transform="translate(40,108.15171005066563)">−2</text><text y="0.32em" transform="translate(40,80.89144953846832)">−1</text><text y="0.32em" transform="translate(40,53.63118902627102)">0</text><text y="0.32em" transform="translate(40,26.370928514073753)">1</text></g><g aria-label="rule" stroke="steelblue" transform="translate(0,0.5)"><line x1="40" x2="639" y1="53.63118902627102" y2="53.63118902627102"/></g><g aria-label="line" fill="none" stroke="currentColor" stroke-width="1.5" stroke-linejoin="round" stroke-linecap="round" transform="translate(0.5,0.5)"><path d="M40,84.933L46.051,85.736L52.101,50.681L58.152,39.267L64.202,30.31L70.253,38.024L76.303,80.328L82.354,109.405L88.404,111.901L94.455,102.35L100.505,167.906L106.556,168.538L112.606,146.381L118.657,95.561L124.707,108.529L130.758,164.864L136.808,160.311L142.859,184.545L148.909,153.397L154.96,114.811L161.01,94.644L167.061,101.559L173.111,74.329L179.162,59.987L185.212,93.782L191.263,58.18L197.313,84.004L203.364,101.729L209.414,85.264L215.465,111.56L221.515,104.291L227.566,91.994L233.616,72.673L239.667,89.113L245.717,116.563L251.768,93.343L257.818,67.008L263.869,49.229L269.919,85.786L275.97,110.195L282.02,157.708L288.071,105.83L294.121,132.265L300.172,117.013L306.222,130.979L312.273,133.351L318.323,105.677L324.374,99.691L330.424,92.633L336.475,80.003L342.525,66.124L348.576,84.118L354.626,112.593L360.677,79.724L366.727,43.305L372.778,20L378.828,26.475L384.879,37.679L390.929,61.774L396.98,79.042L403.03,134.723L409.081,86.205L415.131,124.883L421.182,115.853L427.232,140.273L433.283,174.22L439.333,190.043L445.384,202.783L451.434,212.642L457.485,191.409L463.535,226.528L469.586,219.177L475.636,214.403L481.687,274.658L487.737,258.394L493.788,217.746L499.838,224.527L505.889,232.359L511.939,267.413L517.99,282.406L524.04,303.844L530.091,309.669L536.141,304.227L542.192,335.784L548.242,331.937L554.293,318.196L560.343,349.373L566.394,350.814L572.444,345.546L578.495,360.241L584.545,380L590.596,371.243L596.646,363.148L602.697,304.943L608.747,267.876L614.798,225.199L620.848,278.725L626.899,279.862L632.949,309.897L639,277.381"/></g></svg>