<svg xmlns="http://www.w3.org/2000/svg" xmlns:xlink="http://www.w3.org/1999/xlink" class="plot-d6a7b5" fill="currentColor" font-family="system-ui, sans-serif" font-size="10" text-anchor="middle" width="640" height="60" viewBox="0 0 640 60" style="color: black; background-color: white;"><style>.plot-d6a7b5 {
  display: block;
  background: white;
  height: auto;
  height: intrinsic;
  max-width: 100%;
}
.plot-d6a7b5 text,
.plot-d6a7b5 tspan {
  white-space: pre;
}</style><g aria-label="x-axis tick" fill="none" stroke="currentColor"><path transform="translate(49.86206094433038,30)" d="M0,0L0,6"/><path transform="translate(142.39294900195094,30)" d="M0,0L0,6"/><path transform="translate(234.92383705957153,30)" d="M0,0L0,6"/><path transform="translate(327.4547251171921,30)" d="M0,0L0,6"/><path transform="translate(419.98561317481267,30)" d="M0,0L0,6"/><path transform="translate(512.5165012324333,30)" d="M0,0L0,6"/><path transform="translate(605.0473892900537,30)" d="M0,0L0,6"/></g><g aria-label="x-axis tick label" font-variant="tabular-nums" transform="translate(0,9)"><text y="0.71em" transform="translate(49.86206094433038,30)">−3</text><text y="0.71em" transform="translate(142.39294900195094,30)">−2</text><text y="0.71em" transform="translate(234.92383705957153,30)">−1</text><text y="0.71em" transform="translate(327.4547251171921,30)">0</text><text y="0.71em" transform="translate(419.98561317481267,30)">1</text><text y="0.71em" transform="translate(512.5165012324333,30)">2</text><text y="0.71em" transform="translate(605.0473892900537,30)">3</text></g><g aria-label="tick" stroke="steelblue"><line opacity="0.2" x1="351.35450029193856" x2="351.35450029193856" y1="0.5" y2="30"/><line opacity="0.2" x1="306.09309603796424" x2="306.09309603796424" y1="0.5" y2="30"/><line opacity="0.2" x1="203.20822577161695" x2="203.20822577161695" y1="0.5" y2="30"/><line opacity="0.2" x1="434.73536656440007" x2="434.73536656440007" y1="0.5" y2="30"/><line opacity="0.2" x1="243.69500394732708" x2="243.69500394732708" y1="0.5" y2="30"/><line opacity="0.2" x1="317.80862176591825" x2="317.80862176591825" y1="0.5" y2="30"/><line opacity="0.2" x1="486.67241606270335" x2="486.67241606270335" y1="0.5" y2="30"/><line opacity="0.2" x1="448.97793638319723" x2="448.97793638319723" y1="0.5" y2="30"/><line opacity="0.2" x1="285.1075190493459" x2="285.1075190493459" y1="0.5" y2="30"/><line opacity="0.2" x1="340.18057606554675" x2="340.18057606554675" y1="0.5" y2="30"/><line opacity="0.2" x1="231.71023100141812" x2="231.71023100141812" y1="0.5" y2="30"/><line opacity="0.2" x1="361.27926036064883" x2="361.27926036064883" y1="0.5" y2="30"/><line opacity="0.2" x1="480.27796411689786" x2="480.27796411689786" y1="0.5" y2="30"/><line opacity="0.2" x1="324.10637817658215" x2="324.10637817658215" y1="0.5" y2="30"/><line opacity="0.2" x1="487.0697397375265" x2="487.0697397375265" y1="0.5" y2="30"/><line opacity="0.2" x1="503.0089845091568" x2="503.0089845091568" y1="0.5" y2="30"/><line opacity="0.2" x1="265.3574949196192" x2="265.3574949196192" y1="0.5" y2="30"/><line opacity="0.2" x1="401.33035642120296" x2="401.33035642120296" y1="0.5" y2="30"/><line opacity="0.2" x1="75.27609671050224" x2="75.27609671050224" y1="0.5" y2="30"/><line opacity="0.2" x1="473.87738448105915" x2="473.87738448105915" y1="0.5" y2="30"/><line opacity="0.2" x1="238.24794491110697" x2="238.24794491110697" y1="0.5" y2="30"/><line opacity="0.2" x1="325.67785499986894" x2="325.67785499986894" y1="0.5" y2="30"/><line opacity="0.2" x1="325.27718224824696" x2="325.27718224824696" y1="0.5" y2="30"/><line opacity="0.2" x1="336.41423135511525" x2="336.41423135511525" y1="0.5" y2="30"/><line opacity="0.2" x1="347.9214709653786" x2="347.9214709653786" y1="0.5" y2="30"/><line opacity="0.2" x1="276.7838019080078" x2="276.7838019080078" y1="0.5" y2="30"/><line opacity="0.2" x1="324.41333307489725" x2="324.41333307489725" y1="0.5" y2="30"/><line opacity="0.2" x1="338.730740158612" x2="338.730740158612" y1="0.5" y2="30"/><line opacity="0.2" x1="290.39624519659236" x2="290.39624519659236" y1="0.5" y2="30"/><line opacity="0.2" x1="262.7387797858177" x2="262.7387797858177" y1="0.5" y2="30"/><line opacity="0.2" x1="228.87059877727526" x2="228.87059877727526" y1="0.5" y2="30"/><line opacity="0.2" x1="463.8804330510971" x2="463.8804330510971" y1="0.5" y2="30"/><line opacity="0.2" x1="575.3136393336831" x2="575.3136393336831" y1="0.5" y2="30"/><line opacity="0.2" x1="498.02470943686944" x2="498.02470943686944" y1="0.5" y2="30"/><line opacity="0.2" x1="382.4121351630827" x2="382.4121351630827" y1="0.5" y2="30"/><line opacity="0.2" x1="356.2814565958235" x2="356.2814565958235" y1="0.5" y2="30"/><line opacity="0.2" x1="511.6176719044793" x2="511.6176719044793" y1="0.5" y2="30"/><line opacity="0.2" x1="211.42458260521443" x2="211.42458260521443" y1="0.5" y2="30"/><line opacity="0.2" x1="376.2651594250642" x2="376.2651594250642" y1="0.5" y2="30"/><line opacity="0.2" x1="352.5485277768198" x2="352.5485277768198" y1="0.5" y2="30"/><line opacity="0.2" x1="365.56935488684434" x2="365.56935488684434" y1="0.5" y2="30"/><line opacity="0.2" x1="331.6012251806744" x2="331.6012251806744" y1="0.5" y2="30"/><line opacity="0.2" x1="249.41718511708268" x2="249.41718511708268" y1="0.5" y2="30"/><line opacity="0.2" x1="377.38163728894307" x2="377.38163728894307" y1="0.5" y2="30"/><line opacity="0.2" x1="255.37399302691932" x2="255.37399302691932" y1="0.5" y2="30"/><line opacity="0.2" x1="385.3536757361707" x2="385.3536757361707" y1="0.5" y2="30"/><line opacity="0.2" x1="418.04583815080537" x2="418.04583815080537" y1="0.5" y2="30"/><line opacity="0.2" x1="271.9959958109963" x2="271.9959958109963" y1="0.5" y2="30"/><line opacity="0.2" x1="194.4995087433539" x2="194.4995087433539" y1="0.5" y2="30"/><line opacity="0.2" x1="238.19227487533" x2="238.19227487533" y1="0.5" y2="30"/><line opacity="0.2" x1="300.7553127178868" x2="300.7553127178868" y1="0.5" y2="30"/><line opacity="0.2" x1="319.6807158092364" x2="319.6807158092364" y1="0.5" y2="30"/><line opacity="0.2" x1="198.0048925627671" x2="198.0048925627671" y1="0.5" y2="30"/><line opacity="0.2" x1="161.9029492381017" x2="161.9029492381017" y1="0.5" y2="30"/><line opacity="0.2" x1="457.209936476154" x2="457.209936476154" y1="0.5" y2="30"/><line opacity="0.2" x1="463.7067176028247" x2="463.7067176028247" y1="0.5" y2="30"/><line opacity="0.2" x1="191.88257133018033" x2="191.88257133018033" y1="0.5" y2="30"/><line opacity="0.2" x1="358.2765491672959" x2="358.2765491672959" y1="0.5" y2="30"/><line opacity="0.2" x1="324.99728325921535" x2="324.99728325921535" y1="0.5" y2="30"/><line opacity="0.2" x1="347.01563120030295" x2="347.01563120030295" y1="0.5" y2="30"/><line opacity="0.2" x1="432.93333166647443" x2="432.93333166647443" y1="0.5" y2="30"/><line opacity="0.2" x1="443.7840156185987" x2="443.7840156185987" y1="0.5" y2="30"/><line opacity="0.2" x1="356.94698204988117" x2="356.94698204988117" y1="0.5" y2="30"/><line opacity="0.2" x1="329.4993518643558" x2="329.4993518643558" y1="0.5" y2="30"/><line opacity="0.2" x1="232.18335777734313" x2="232.18335777734313" y1="0.5" y2="30"/><line opacity="0.2" x1="153.82614502944892" x2="153.82614502944892" y1="0.5" y2="30"/><line opacity="0.2" x1="499.2611384006077" x2="499.2611384006077" y1="0.5" y2="30"/><line opacity="0.2" x1="340.6296969210105" x2="340.6296969210105" y1="0.5" y2="30"/><line opacity="0.2" x1="374.8452428254438" x2="374.8452428254438" y1="0.5" y2="30"/><line opacity="0.2" x1="267.30936263565076" x2="267.30936263565076" y1="0.5" y2="30"/><line opacity="0.2" x1="392.0662385720895" x2="392.0662385720895" y1="0.5" y2="30"/><line opacity="0.2" x1="235.59590221656634" x2="235.59590221656634" y1="0.5" y2="30"/><line opacity="0.2" x1="431.45077161172594" x2="431.45077161172594" y1="0.5" y2="30"/><line opacity="0.2" x1="381.1531057518443" x2="381.1531057518443" y1="0.5" y2="30"/><line opacity="0.2" x1="298.19479603104605" x2="298.19479603104605" y1="0.5" y2="30"/><line opacity="0.2" x1="468.72396034960906" x2="468.72396034960906" y1="0.5" y2="30"/><line opacity="0.2" x1="329.7987111852033" x2="329.7987111852033" y1="0.5" y2="30"/><line opacity="0.2" x1="253.22047486736835" x2="253.22047486736835" y1="0.5" y2="30"/><line opacity="0.2" x1="350.9739558723872" x2="350.9739558723872" y1="0.5" y2="30"/><line opacity="0.2" x1="380.4927697499496" x2="380.4927697499496" y1="0.5" y2="30"/><line opacity="0.2" x1="372.2349675305838" x2="372.2349675305838" y1="0.5" y2="30"/><line opacity="0.2" x1="358.6388872976863" x2="358.6388872976863" y1="0.5" y2="30"/><line opacity="0.2" x1="246.11603012962752" x2="246.11603012962752" y1="0.5" y2="30"/><line opacity="0.2" x1="284.40378374278254" x2="284.40378374278254" y1="0.5" y2="30"/><line opacity="0.2" x1="329.8992051505378" x2="329.8992051505378" y1="0.5" y2="30"/><line opacity="0.2" x1="317.32702742976426" x2="317.32702742976426" y1="0.5" y2="30"/><line opacity="0.2" x1="354.54936925269203" x2="354.54936925269203" y1="0.5" y2="30"/><line opacity="0.2" x1="395.7136385621312" x2="395.7136385621312" y1="0.5" y2="30"/><line opacity="0.2" x1="307.9130167613203" x2="307.9130167613203" y1="0.5" y2="30"/><line opacity="0.2" x1="341.8329869772553" x2="341.8329869772553" y1="0.5" y2="30"/><line opacity="0.2" x1="416.11437719694754" x2="416.11437719694754" y1="0.5" y2="30"/><line opacity="0.2" x1="194.71794509235406" x2="194.71794509235406" y1="0.5" y2="30"/><line opacity="0.2" x1="408.99777372068985" x2="408.99777372068985" y1="0.5" y2="30"/><line opacity="0.2" x1="296.0242665300216" x2="296.0242665300216" y1="0.5" y2="30"/><line opacity="0.2" x1="320.55884718987323" x2="320.55884718987323" y1="0.5" y2="30"/><line opacity="0.2" x1="313.93635224838187" x2="313.93635224838187" y1="0.5" y2="30"/><line opacity="0.2" x1="414.5843995497221" x2="414.5843995497221" y1="0.5" y2="30"/><line opacity="0.2" x1="498.30132788025867" x2="498.30132788025867" y1="0.5" y2="30"/><line opacity="0.2" x1="261.9637430309274" x2="261.9637430309274" y1="0.5" y2="30"/><line opacity="0.2" x1="390.9987334871609" x2="390.9987334871609" y1="0.5" y2="30"/><line opacity="0.2" x1="235.31655209765034" x2="235.31655209765034" y1="0.5" y2="30"/><line opacity="0.2" x1="297.4056552452282" x2="297.4056552452282" y1="0.5" y2="30"/><line opacity="0.2" x1="222.41352145075047" x2="222.41352145075047" y1="0.5" y2="30"/><line opacity="0.2" x1="262.24935268458245" x2="262.24935268458245" y1="0.5" y2="30"/><line opacity="0.2" x1="263.7316605575707" x2="263.7316605575707" y1="0.5" y2="30"/><line opacity="0.2" x1="480.4775875295744" x2="480.4775875295744" y1="0.5" y2="30"/><line opacity="0.2" x1="280.7485011758482" x2="280.7485011758482" y1="0.5" y2="30"/><line opacity="0.2" x1="323.4336675042404" x2="323.4336675042404" y1="0.5" y2="30"/><line opacity="0.2" x1="430.03447323238987" x2="430.03447323238987" y1="0.5" y2="30"/><line opacity="0.2" x1="321.63544673855927" x2="321.63544673855927" y1="0.5" y2="30"/><line opacity="0.2" x1="258.74044203656814" x2="258.74044203656814" y1="0.5" y2="30"/><line opacity="0.2" x1="203.99804812662956" x2="203.99804812662956" y1="0.5" y2="30"/><line opacity="0.2" x1="221.19904682409387" x2="221.19904682409387" y1="0.5" y2="30"/><line opacity="0.2" x1="298.9085254450314" x2="298.9085254450314" y1="0.5" y2="30"/><line opacity="0.2" x1="414.46718194548123" x2="414.46718194548123" y1="0.5" y2="30"/><line opacity="0.2" x1="302.3668532372867" x2="302.3668532372867" y1="0.5" y2="30"/><line opacity="0.2" x1="337.90880609029534" x2="337.90880609029534" y1="0.5" y2="30"/><line opacity="0.2" x1="381.2340577594548" x2="381.2340577594548" y1="0.5" y2="30"/><line opacity="0.2" x1="351.8570113512712" x2="351.8570113512712" y1="0.5" y2="30"/><line opacity="0.2" x1="193.53832438735733" x2="193.53832438735733" y1="0.5" y2="30"/><line opacity="0.2" x1="345.48674825459295" x2="345.48674825459295" y1="0.5" y2="30"/><line opacity="0.2" x1="346.2941413916104" x2="346.2941413916104" y1="0.5" y2="30"/><line opacity="0.2" x1="284.59374739058546" x2="284.59374739058546" y1="0.5" y2="30"/><line opacity="0.2" x1="294.9173553469709" x2="294.9173553469709" y1="0.5" y2="30"/><line opacity="0.2" x1="439.98534931530673" x2="439.98534931530673" y1="0.5" y2="30"/><line opacity="0.2" x1="307.82417310345875" x2="307.82417310345875" y1="0.5" y2="30"/><line opacity="0.2" x1="294.15792510198247" x2="294.15792510198247" y1="0.5" y2="30"/><line opacity="0.2" x1="247.88331375785705" x2="247.88331375785705" y1="0.5" y2="30"/><line opacity="0.2" x1="426.2417176586412" x2="426.2417176586412" y1="0.5" y2="30"/><line opacity="0.2" x1="243.87987282638042" x2="243.87987282638042" y1="0.5" y2="30"/><line opacity="0.2" x1="208.63683516926096" x2="208.63683516926096" y1="0.5" y2="30"/><line opacity="0.2" x1="478.0976211181884" x2="478.0976211181884" y1="0.5" y2="30"/><line opacity="0.2" x1="332.00457117947525" x2="332.00457117947525" y1="0.5" y2="30"/><line opacity="0.2" x1="460.22734776201787" x2="460.22734776201787" y1="0.5" y2="30"/><line opacity="0.2" x1="328.73883453061904" x2="328.73883453061904" y1="0.5" y2="30"/><line opacity="0.2" x1="406.56008544399003" x2="406.56008544399003" y1="0.5" y2="30"/><line opacity="0.2" x1="245.17777901442273" x2="245.17777901442273" y1="0.5" y2="30"/><line opacity="0.2" x1="217.07685492613206" x2="217.07685492613206" y1="0.5" y2="30"/><line opacity="0.2" x1="297.16658131245754" x2="297.16658131245754" y1="0.5" y2="30"/><line opacity="0.2" x1="354.73446080962214" x2="354.73446080962214" y1="0.5" y2="30"/><line opacity="0.2" x1="292.69206282168557" x2="292.69206282168557" y1="0.5" y2="30"/><line opacity="0.2" x1="413.9877662569759" x2="413.9877662569759" y1="0.5" y2="30"/><line opacity="0.2" x1="152.1153144107727" x2="152.1153144107727" y1="0.5" y2="30"/><line opacity="0.2" x1="449.57484891627524" x2="449.57484891627524" y1="0.5" y2="30"/><line opacity="0.2" x1="314.18831242742687" x2="314.18831242742687" y1="0.5" y2="30"/><line opacity="0.2" x1="365.75755793319007" x2="365.75755793319007" y1="0.5" y2="30"/><line opacity="0.2" x1="360.73334889860666" x2="360.73334889860666" y1="0.5" y2="30"/><line opacity="0.2" x1="453.6815666775088" x2="453.6815666775088" y1="0.5" y2="30"/><line opacity="0.2" x1="361.2012732659018" x2="361.2012732659018" y1="0.5" y2="30"/><line opacity="0.2" x1="397.24808197924244" x2="397.24808197924244" y1="0.5" y2="30"/><line opacity="0.2" x1="366.50412965868395" x2="366.50412965868395" y1="0.5" y2="30"/><line opacity="0.2" x1="448.44113593591175" x2="448.44113593591175" y1="0.5" y2="30"/><line opacity="0.2" x1="326.03645135126294" x2="326.03645135126294" y1="0.5" y2="30"/><line opacity="0.2" x1="172.38358445898288" x2="172.38358445898288" y1="0.5" y2="30"/><line opacity="0.2" x1="503.4348588930586" x2="503.4348588930586" y1="0.5" y2="30"/><line opacity="0.2" x1="238.90617281021903" x2="238.90617281021903" y1="0.5" y2="30"/><line opacity="0.2" x1="379.29188700594915" x2="379.29188700594915" y1="0.5" y2="30"/><line opacity="0.2" x1="319.64700359233564" x2="319.64700359233564" y1="0.5" y2="30"/><line opacity="0.2" x1="264.26892881454563" x2="264.26892881454563" y1="0.5" y2="30"/><line opacity="0.2" x1="324.966037608375" x2="324.966037608375" y1="0.5" y2="30"/><line opacity="0.2" x1="294.9879009309009" x2="294.9879009309009" y1="0.5" y2="30"/><line opacity="0.2" x1="395.60280096483353" x2="395.60280096483353" y1="0.5" y2="30"/><line opacity="0.2" x1="301.0096640205525" x2="301.0096640205525" y1="0.5" y2="30"/><line opacity="0.2" x1="143.22538604401626" x2="143.22538604401626" y1="0.5" y2="30"/><line opacity="0.2" x1="364.62204465446234" x2="364.62204465446234" y1="0.5" y2="30"/><line opacity="0.2" x1="434.0954429154742" x2="434.0954429154742" y1="0.5" y2="30"/><line opacity="0.2" x1="360.0468964641377" x2="360.0468964641377" y1="0.5" y2="30"/><line opacity="0.2" x1="293.78126288215407" x2="293.78126288215407" y1="0.5" y2="30"/><line opacity="0.2" x1="298.86436521785515" x2="298.86436521785515" y1="0.5" y2="30"/><line opacity="0.2" x1="422.72416753366014" x2="422.72416753366014" y1="0.5" y2="30"/><line opacity="0.2" x1="300.8807912146887" x2="300.8807912146887" y1="0.5" y2="30"/><line opacity="0.2" x1="290.3226214257767" x2="290.3226214257767" y1="0.5" y2="30"/><line opacity="0.2" x1="427.82084070511235" x2="427.82084070511235" y1="0.5" y2="30"/><line opacity="0.2" x1="322.6566970795804" x2="322.6566970795804" y1="0.5" y2="30"/><line opacity="0.2" x1="379.5237247385262" x2="379.5237247385262" y1="0.5" y2="30"/><line opacity="0.2" x1="380.57203862428145" x2="380.57203862428145" y1="0.5" y2="30"/><line opacity="0.2" x1="355.1709176194508" x2="355.1709176194508" y1="0.5" y2="30"/><line opacity="0.2" x1="229.29158493416065" x2="229.29158493416065" y1="0.5" y2="30"/><line opacity="0.2" x1="356.97066756698325" x2="356.97066756698325" y1="0.5" y2="30"/><line opacity="0.2" x1="324.5265232492906" x2="324.5265232492906" y1="0.5" y2="30"/><line opacity="0.2" x1="169.0225904997583" x2="169.0225904997583" y1="0.5" y2="30"/><line opacity="0.2" x1="341.4140084607009" x2="341.4140084607009" y1="0.5" y2="30"/><line opacity="0.2" x1="270.0543187231318" x2="270.0543187231318" y1="0.5" y2="30"/><line opacity="0.2" x1="289.8976996603252" x2="289.8976996603252" y1="0.5" y2="30"/><line opacity="0.2" x1="273.1910204778303" x2="273.1910204778303" y1="0.5" y2="30"/><line opacity="0.2" x1="365.07346488370166" x2="365.07346488370166" y1="0.5" y2="30"/><line opacity="0.2" x1="464.66442346902426" x2="464.66442346902426" y1="0.5" y2="30"/><line opacity="0.2" x1="430.7085656898891" x2="430.7085656898891" y1="0.5" y2="30"/><line opacity="0.2" x1="342.02614273160947" x2="342.02614273160947" y1="0.5" y2="30"/><line opacity="0.2" x1="471.47565625672337" x2="471.47565625672337" y1="0.5" y2="30"/><line opacity="0.2" x1="200.28156786127047" x2="200.28156786127047" y1="0.5" y2="30"/><line opacity="0.2" x1="336.4146552681283" x2="336.4146552681283" y1="0.5" y2="30"/><line opacity="0.2" x1="417.1676026028783" x2="417.1676026028783" y1="0.5" y2="30"/><line opacity="0.2" x1="220.32161103787604" x2="220.32161103787604" y1="0.5" y2="30"/><line opacity="0.2" x1="487.32652918614815" x2="487.32652918614815" y1="0.5" y2="30"/><line opacity="0.2" x1="237.30494821311933" x2="237.30494821311933" y1="0.5" y2="30"/><line opacity="0.2" x1="322.790669884576" x2="322.790669884576" y1="0.5" y2="30"/><line opacity="0.2" x1="362.52021259803354" x2="362.52021259803354" y1="0.5" y2="30"/><line opacity="0.2" x1="363.75546774720993" x2="363.75546774720993" y1="0.5" y2="30"/><line opacity="0.2" x1="280.4549519131847" x2="280.4549519131847" y1="0.5" y2="30"/><line opacity="0.2" x1="337.86137143384263" x2="337.86137143384263" y1="0.5" y2="30"/><line opacity="0.2" x1="395.91926871561793" x2="395.91926871561793" y1="0.5" y2="30"/><line opacity="0.2" x1="405.44562077888406" x2="405.44562077888406" y1="0.5" y2="30"/><line opacity="0.2" x1="245.39406595669183" x2="245.39406595669183" y1="0.5" y2="30"/><line opacity="0.2" x1="266.1132443797229" x2="266.1132443797229" y1="0.5" y2="30"/><line opacity="0.2" x1="404.2417195519558" x2="404.2417195519558" y1="0.5" y2="30"/><line opacity="0.2" x1="311.9059219241224" x2="311.9059219241224" y1="0.5" y2="30"/><line opacity="0.2" x1="346.2585786672104" x2="346.2585786672104" y1="0.5" y2="30"/><line opacity="0.2" x1="282.7695091223121" x2="282.7695091223121" y1="0.5" y2="30"/><line opacity="0.2" x1="394.1563034657609" x2="394.1563034657609" y1="0.5" y2="30"/><line opacity="0.2" x1="301.0260948222057" x2="301.0260948222057" y1="0.5" y2="30"/><line opacity="0.2" x1="339.3620432152161" x2="339.3620432152161" y1="0.5" y2="30"/><line opacity="0.2" x1="319.03774488722746" x2="319.03774488722746" y1="0.5" y2="30"/><line opacity="0.2" x1="246.4464307458627" x2="246.4464307458627" y1="0.5" y2="30"/><line opacity="0.2" x1="344.9047550001011" x2="344.9047550001011" y1="0.5" y2="30"/><line opacity="0.2" x1="333.1059233208444" x2="333.1059233208444" y1="0.5" y2="30"/><line opacity="0.2" x1="413.9442442038775" x2="413.9442442038775" y1="0.5" y2="30"/><line opacity="0.2" x1="236.69541227641972" x2="236.69541227641972" y1="0.5" y2="30"/><line opacity="0.2" x1="378.52173117459836" x2="378.52173117459836" y1="0.5" y2="30"/><line opacity="0.2" x1="497.6800406890904" x2="497.6800406890904" y1="0.5" y2="30"/><line opacity="0.2" x1="343.463723862807" x2="343.463723862807" y1="0.5" y2="30"/><line opacity="0.2" x1="349.0585544165616" x2="349.0585544165616" y1="0.5" y2="30"/><line opacity="0.2" x1="320.6496558774763" x2="320.6496558774763" y1="0.5" y2="30"/><line opacity="0.2" x1="80.9610973900964" x2="80.9610973900964" y1="0.5" y2="30"/><line opacity="0.2" x1="303.55281445544426" x2="303.55281445544426" y1="0.5" y2="30"/><line opacity="0.2" x1="238.29626973706144" x2="238.29626973706144" y1="0.5" y2="30"/><line opacity="0.2" x1="452.61491733920474" x2="452.61491733920474" y1="0.5" y2="30"/><line opacity="0.2" x1="324.54333502098365" x2="324.54333502098365" y1="0.5" y2="30"/><line opacity="0.2" x1="392.1201583091667" x2="392.1201583091667" y1="0.5" y2="30"/><line opacity="0.2" x1="254.70485853474574" x2="254.70485853474574" y1="0.5" y2="30"/><line opacity="0.2" x1="330.78813206732804" x2="330.78813206732804" y1="0.5" y2="30"/><line opacity="0.2" x1="266.4807086800386" x2="266.4807086800386" y1="0.5" y2="30"/><line opacity="0.2" x1="430.8636298919193" x2="430.8636298919193" y1="0.5" y2="30"/><line opacity="0.2" x1="115.84212964602656" x2="115.84212964602656" y1="0.5" y2="30"/><line opacity="0.2" x1="458.33970274278056" x2="458.33970274278056" y1="0.5" y2="30"/><line opacity="0.2" x1="416.1589524475571" x2="416.1589524475571" y1="0.5" y2="30"/><line opacity="0.2" x1="362.3586070108182" x2="362.3586070108182" y1="0.5" y2="30"/><line opacity="0.2" x1="403.63286553893226" x2="403.63286553893226" y1="0.5" y2="30"/><line opacity="0.2" x1="288.07430278226906" x2="288.07430278226906" y1="0.5" y2="30"/><line opacity="0.2" x1="328.8274382447123" x2="328.8274382447123" y1="0.5" y2="30"/><line opacity="0.2" x1="334.0175387275143" x2="334.0175387275143" y1="0.5" y2="30"/><line opacity="0.2" x1="314.7643489008703" x2="314.7643489008703" y1="0.5" y2="30"/><line opacity="0.2" x1="351.56423487739056" x2="351.56423487739056" y1="0.5" y2="30"/><line opacity="0.2" x1="439.5240525807766" x2="439.5240525807766" y1="0.5" y2="30"/><line opacity="0.2" x1="380.3076634872429" x2="380.3076634872429" y1="0.5" y2="30"/><line opacity="0.2" x1="285.996891982982" x2="285.996891982982" y1="0.5" y2="30"/><line opacity="0.2" x1="213.9248257146193" x2="213.9248257146193" y1="0.5" y2="30"/><line opacity="0.2" x1="378.550813269859" x2="378.550813269859" y1="0.5" y2="30"/><line opacity="0.2" x1="520.4070181627224" x2="520.4070181627224" y1="0.5" y2="30"/><line opacity="0.2" x1="362.50511764179623" x2="362.50511764179623" y1="0.5" y2="30"/><line opacity="0.2" x1="361.12201629646114" x2="361.12201629646114" y1="0.5" y2="30"/><line opacity="0.2" x1="517.9348682783061" x2="517.9348682783061" y1="0.5" y2="30"/><line opacity="0.2" x1="285.60911590637875" x2="285.60911590637875" y1="0.5" y2="30"/><line opacity="0.2" x1="397.07128113952393" x2="397.07128113952393" y1="0.5" y2="30"/><line opacity="0.2" x1="406.4568749234132" x2="406.4568749234132" y1="0.5" y2="30"/><line opacity="0.2" x1="286.88234543128357" x2="286.88234543128357" y1="0.5" y2="30"/><line opacity="0.2" x1="322.8715929953461" x2="322.8715929953461" y1="0.5" y2="30"/><line opacity="0.2" x1="297.0832818105499" x2="297.0832818105499" y1="0.5" y2="30"/><line opacity="0.2" x1="275.03769961987604" x2="275.03769961987604" y1="0.5" y2="30"/><line opacity="0.2" x1="362.87118957134265" x2="362.87118957134265" y1="0.5" y2="30"/><line opacity="0.2" x1="464.9731651310506" x2="464.9731651310506" y1="0.5" y2="30"/><line opacity="0.2" x1="370.3082428091886" x2="370.3082428091886" y1="0.5" y2="30"/><line opacity="0.2" x1="426.8792381663939" x2="426.8792381663939" y1="0.5" y2="30"/><line opacity="0.2" x1="247.13280683941252" x2="247.13280683941252" y1="0.5" y2="30"/><line opacity="0.2" x1="463.27346328436704" x2="463.27346328436704" y1="0.5" y2="30"/><line opacity="0.2" x1="322.97903293860423" x2="322.97903293860423" y1="0.5" y2="30"/><line opacity="0.2" x1="317.8554516667734" x2="317.8554516667734" y1="0.5" y2="30"/><line opacity="0.2" x1="196.60900442853494" x2="196.60900442853494" y1="0.5" y2="30"/><line opacity="0.2" x1="391.8469120327721" x2="391.8469120327721" y1="0.5" y2="30"/><line opacity="0.2" x1="282.04651833497786" x2="282.04651833497786" y1="0.5" y2="30"/><line opacity="0.2" x1="183.0590890086662" x2="183.0590890086662" y1="0.5" y2="30"/><line opacity="0.2" x1="366.7898654404162" x2="366.7898654404162" y1="0.5" y2="30"/><line opacity="0.2" x1="237.09883357840255" x2="237.09883357840255" y1="0.5" y2="30"/><line opacity="0.2" x1="334.474674896147" x2="334.474674896147" y1="0.5" y2="30"/><line opacity="0.2" x1="271.8285782401835" x2="271.8285782401835" y1="0.5" y2="30"/><line opacity="0.2" x1="369.09933376200877" x2="369.09933376200877" y1="0.5" y2="30"/><line opacity="0.2" x1="383.32534394120296" x2="383.32534394120296" y1="0.5" y2="30"/><line opacity="0.2" x1="407.80153417234993" x2="407.80153417234993" y1="0.5" y2="30"/><line opacity="0.2" x1="178.74554597208797" x2="178.74554597208797" y1="0.5" y2="30"/><line opacity="0.2" x1="413.57143806340366" x2="413.57143806340366" y1="0.5" y2="30"/><line opacity="0.2" x1="397.3108831954516" x2="397.3108831954516" y1="0.5" y2="30"/><line opacity="0.2" x1="471.21021966190284" x2="471.21021966190284" y1="0.5" y2="30"/><line opacity="0.2" x1="450.2022249242179" x2="450.2022249242179" y1="0.5" y2="30"/><line opacity="0.2" x1="297.79576060662686" x2="297.79576060662686" y1="0.5" y2="30"/><line opacity="0.2" x1="539.0676644739978" x2="539.0676644739978" y1="0.5" y2="30"/><line opacity="0.2" x1="297.32066526081223" x2="297.32066526081223" y1="0.5" y2="30"/><line opacity="0.2" x1="329.06477724544976" x2="329.06477724544976" y1="0.5" y2="30"/><line opacity="0.2" x1="362.88656336610956" x2="362.88656336610956" y1="0.5" y2="30"/><line opacity="0.2" x1="288.8300091457749" x2="288.8300091457749" y1="0.5" y2="30"/><line opacity="0.2" x1="342.80827743869736" x2="342.80827743869736" y1="0.5" y2="30"/><line opacity="0.2" x1="283.44277779641254" x2="283.44277779641254" y1="0.5" y2="30"/><line opacity="0.2" x1="407.135479229377" x2="407.135479229377" y1="0.5" y2="30"/><line opacity="0.2" x1="203.0790686754297" x2="203.0790686754297" y1="0.5" y2="30"/><line opacity="0.2" x1="439.46263424741096" x2="439.46263424741096" y1="0.5" y2="30"/><line opacity="0.2" x1="288.02060742153844" x2="288.02060742153844" y1="0.5" y2="30"/><line opacity="0.2" x1="408.8944165879795" x2="408.8944165879795" y1="0.5" y2="30"/><line opacity="0.2" x1="247.2214684728182" x2="247.2214684728182" y1="0.5" y2="30"/><line opacity="0.2" x1="392.9229203344501" x2="392.9229203344501" y1="0.5" y2="30"/><line opacity="0.2" x1="507.6286825408378" x2="507.6286825408378" y1="0.5" y2="30"/><line opacity="0.2" x1="438.36148140108924" x2="438.36148140108924" y1="0.5" y2="30"/><line opacity="0.2" x1="221.42554525582523" x2="221.42554525582523" y1="0.5" y2="30"/><line opacity="0.2" x1="149.29108142493965" x2="149.29108142493965" y1="0.5" y2="30"/><line opacity="0.2" x1="243.14126726091456" x2="243.14126726091456" y1="0.5" y2="30"/><line opacity="0.2" x1="396.01213436023824" x2="396.01213436023824" y1="0.5" y2="30"/><line opacity="0.2" x1="329.6773952085105" x2="329.6773952085105" y1="0.5" y2="30"/><line opacity="0.2" x1="313.2381663456723" x2="313.2381663456723" y1="0.5" y2="30"/><line opacity="0.2" x1="241.9873169792076" x2="241.9873169792076" y1="0.5" y2="30"/><line opacity="0.2" x1="353.85769971619015" x2="353.85769971619015" y1="0.5" y2="30"/><line opacity="0.2" x1="312.22389771702774" x2="312.22389771702774" y1="0.5" y2="30"/><line opacity="0.2" x1="356.01476480462156" x2="356.01476480462156" y1="0.5" y2="30"/><line opacity="0.2" x1="235.53504146822831" x2="235.53504146822831" y1="0.5" y2="30"/><line opacity="0.2" x1="331.59108970866373" x2="331.59108970866373" y1="0.5" y2="30"/><line opacity="0.2" x1="287.4346021400781" x2="287.4346021400781" y1="0.5" y2="30"/><line opacity="0.2" x1="268.3432971453524" x2="268.3432971453524" y1="0.5" y2="30"/><line opacity="0.2" x1="317.7445624436072" x2="317.7445624436072" y1="0.5" y2="30"/><line opacity="0.2" x1="349.9712201013064" x2="349.9712201013064" y1="0.5" y2="30"/><line opacity="0.2" x1="447.39587772675304" x2="447.39587772675304" y1="0.5" y2="30"/><line opacity="0.2" x1="420.9231469736958" x2="420.9231469736958" y1="0.5" y2="30"/><line opacity="0.2" x1="243.80277059558165" x2="243.80277059558165" y1="0.5" y2="30"/><line opacity="0.2" x1="169.72301554456894" x2="169.72301554456894" y1="0.5" y2="30"/><line opacity="0.2" x1="340.2121820546545" x2="340.2121820546545" y1="0.5" y2="30"/><line opacity="0.2" x1="220.70491904716218" x2="220.70491904716218" y1="0.5" y2="30"/><line opacity="0.2" x1="384.1019796947817" x2="384.1019796947817" y1="0.5" y2="30"/><line opacity="0.2" x1="307.0265761082649" x2="307.0265761082649" y1="0.5" y2="30"/><line opacity="0.2" x1="424.29614508455364" x2="424.29614508455364" y1="0.5" y2="30"/><line opacity="0.2" x1="311.3358663200603" x2="311.3358663200603" y1="0.5" y2="30"/><line opacity="0.2" x1="379.8004619110705" x2="379.8004619110705" y1="0.5" y2="30"/><line opacity="0.2" x1="456.3190787005556" x2="456.3190787005556" y1="0.5" y2="30"/><line opacity="0.2" x1="407.54193623873374" x2="407.54193623873374" y1="0.5" y2="30"/><line opacity="0.2" x1="450.893577114724" x2="450.893577114724" y1="0.5" y2="30"/><line opacity="0.2" x1="269.3026533972545" x2="269.3026533972545" y1="0.5" y2="30"/><line opacity="0.2" x1="378.16206520135245" x2="378.16206520135245" y1="0.5" y2="30"/><line opacity="0.2" x1="254.5778641015867" x2="254.5778641015867" y1="0.5" y2="30"/><line opacity="0.2" x1="205.57973492864096" x2="205.57973492864096" y1="0.5" y2="30"/><line opacity="0.2" x1="323.2094778537103" x2="323.2094778537103" y1="0.5" y2="30"/><line opacity="0.2" x1="402.7749919920411" x2="402.7749919920411" y1="0.5" y2="30"/><line opacity="0.2" x1="326.62517492191307" x2="326.62517492191307" y1="0.5" y2="30"/><line opacity="0.2" x1="245.20744087458286" x2="245.20744087458286" y1="0.5" y2="30"/><line opacity="0.2" x1="402.79960189911554" x2="402.79960189911554" y1="0.5" y2="30"/><line opacity="0.2" x1="379.2112980853633" x2="379.2112980853633" y1="0.5" y2="30"/><line opacity="0.2" x1="398.96710510438515" x2="398.96710510438515" y1="0.5" y2="30"/><line opacity="0.2" x1="388.1058044861717" x2="388.1058044861717" y1="0.5" y2="30"/><line opacity="0.2" x1="303.72493798531286" x2="303.72493798531286" y1="0.5" y2="30"/><line opacity="0.2" x1="377.37770065704944" x2="377.37770065704944" y1="0.5" y2="30"/><line opacity="0.2" x1="337.4464742617209" x2="337.4464742617209" y1="0.5" y2="30"/><line opacity="0.2" x1="77.71565990002287" x2="77.71565990002287" y1="0.5" y2="30"/><line opacity="0.2" x1="318.77886733322924" x2="318.77886733322924" y1="0.5" y2="30"/><line opacity="0.2" x1="301.89018425785605" x2="301.89018425785605" y1="0.5" y2="30"/><line opacity="0.2" x1="375.95373434987886" x2="375.95373434987886" y1="0.5" y2="30"/><line opacity="0.2" x1="434.67332854176834" x2="434.67332854176834" y1="0.5" y2="30"/><line opacity="0.2" x1="354.5343640077444" x2="354.5343640077444" y1="0.5" y2="30"/><line opacity="0.2" x1="371.2655923469191" x2="371.2655923469191" y1="0.5" y2="30"/><line opacity="0.2" x1="358.48580779250403" x2="358.48580779250403" y1="0.5" y2="30"/><line opacity="0.2" x1="326.6655151156255" x2="326.6655151156255" y1="0.5" y2="30"/><line opacity="0.2" x1="403.05813756509104" x2="403.05813756509104" y1="0.5" y2="30"/><line opacity="0.2" x1="395.66878345817224" x2="395.66878345817224" y1="0.5" y2="30"/><line opacity="0.2" x1="239.45776795345787" x2="239.45776795345787" y1="0.5" y2="30"/><line opacity="0.2" x1="417.5236181335835" x2="417.5236181335835" y1="0.5" y2="30"/><line opacity="0.2" x1="287.0112405070025" x2="287.0112405070025" y1="0.5" y2="30"/><line opacity="0.2" x1="308.9749556439711" x2="308.9749556439711" y1="0.5" y2="30"/><line opacity="0.2" x1="312.7617791017437" x2="312.7617791017437" y1="0.5" y2="30"/><line opacity="0.2" x1="451.2093224420532" x2="451.2093224420532" y1="0.5" y2="30"/><line opacity="0.2" x1="362.39838623418" x2="362.39838623418" y1="0.5" y2="30"/><line opacity="0.2" x1="506.69394422499664" x2="506.69394422499664" y1="0.5" y2="30"/><line opacity="0.2" x1="394.185134116611" x2="394.185134116611" y1="0.5" y2="30"/><line opacity="0.2" x1="412.35140890520904" x2="412.35140890520904" y1="0.5" y2="30"/><line opacity="0.2" x1="197.33248041908718" x2="197.33248041908718" y1="0.5" y2="30"/><line opacity="0.2" x1="408.04562366853054" x2="408.04562366853054" y1="0.5" y2="30"/><line opacity="0.2" x1="268.38213156640757" x2="268.38213156640757" y1="0.5" y2="30"/><line opacity="0.2" x1="306.5901810394389" x2="306.5901810394389" y1="0.5" y2="30"/><line opacity="0.2" x1="312.88208191514383" x2="312.88208191514383" y1="0.5" y2="30"/><line opacity="0.2" x1="303.82179745371246" x2="303.82179745371246" y1="0.5" y2="30"/><line opacity="0.2" x1="529.0595704411908" x2="529.0595704411908" y1="0.5" y2="30"/><line opacity="0.2" x1="175.34707664958535" x2="175.34707664958535" y1="0.5" y2="30"/><line opacity="0.2" x1="386.13384354343356" x2="386.13384354343356" y1="0.5" y2="30"/><line opacity="0.2" x1="407.2145209763015" x2="407.2145209763015" y1="0.5" y2="30"/><line opacity="0.2" x1="432.2693419107845" x2="432.2693419107845" y1="0.5" y2="30"/><line opacity="0.2" x1="301.0560787783651" x2="301.0560787783651" y1="0.5" y2="30"/><line opacity="0.2" x1="294.68635018386976" x2="294.68635018386976" y1="0.5" y2="30"/><line opacity="0.2" x1="330.5116828341684" x2="330.5116828341684" y1="0.5" y2="30"/><line opacity="0.2" x1="93.16342481412698" x2="93.16342481412698" y1="0.5" y2="30"/><line opacity="0.2" x1="223.47555093991522" x2="223.47555093991522" y1="0.5" y2="30"/><line opacity="0.2" x1="234.19303644519664" x2="234.19303644519664" y1="0.5" y2="30"/><line opacity="0.2" x1="366.1144508486096" x2="366.1144508486096" y1="0.5" y2="30"/><line opacity="0.2" x1="240.1927377471964" x2="240.1927377471964" y1="0.5" y2="30"/><line opacity="0.2" x1="523.6044543678228" x2="523.6044543678228" y1="0.5" y2="30"/><line opacity="0.2" x1="432.83930354491457" x2="432.83930354491457" y1="0.5" y2="30"/><line opacity="0.2" x1="538.9087080078336" x2="538.9087080078336" y1="0.5" y2="30"/><line opacity="0.2" x1="528.5420507861307" x2="528.5420507861307" y1="0.5" y2="30"/><line opacity="0.2" x1="365.12427600666905" x2="365.12427600666905" y1="0.5" y2="30"/><line opacity="0.2" x1="336.9552927998116" x2="336.9552927998116" y1="0.5" y2="30"/><line opacity="0.2" x1="436.4196796695872" x2="436.4196796695872" y1="0.5" y2="30"/><line opacity="0.2" x1="286.49083707363076" x2="286.49083707363076" y1="0.5" y2="30"/><line opacity="0.2" x1="477.0672700103001" x2="477.0672700103001" y1="0.5" y2="30"/><line opacity="0.2" x1="276.36521685867297" x2="276.36521685867297" y1="0.5" y2="30"/><line opacity="0.2" x1="250.1788163932779" x2="250.1788163932779" y1="0.5" y2="30"/><line opacity="0.2" x1="179.99978293708577" x2="179.99978293708577" y1="0.5" y2="30"/><line opacity="0.2" x1="253.86852551151748" x2="253.86852551151748" y1="0.5" y2="30"/><line opacity="0.2" x1="288.6363132622926" x2="288.6363132622926" y1="0.5" y2="30"/><line opacity="0.2" x1="335.9776549885039" x2="335.9776549885039" y1="0.5" y2="30"/><line opacity="0.2" x1="376.37772119497487" x2="376.37772119497487" y1="0.5" y2="30"/><line opacity="0.2" x1="430.5450421551938" x2="430.5450421551938" y1="0.5" y2="30"/><line opacity="0.2" x1="409.4458880277183" x2="409.4458880277183" y1="0.5" y2="30"/><line opacity="0.2" x1="356.6540967477266" x2="356.6540967477266" y1="0.5" y2="30"/><line opacity="0.2" x1="291.3056657253192" x2="291.3056657253192" y1="0.5" y2="30"/><line opacity="0.2" x1="291.1641005491099" x2="291.1641005491099" y1="0.5" y2="30"/><line opacity="0.2" x1="464.34440397869406" x2="464.34440397869406" y1="0.5" y2="30"/><line opacity="0.2" x1="397.4646159645734" x2="397.4646159645734" y1="0.5" y2="30"/><line opacity="0.2" x1="242.71813129300307" x2="242.71813129300307" y1="0.5" y2="30"/><line opacity="0.2" x1="132.51669672029325" x2="132.51669672029325" y1="0.5" y2="30"/><line opacity="0.2" x1="289.441159592608" x2="289.441159592608" y1="0.5" y2="30"/><line opacity="0.2" x1="292.6011424994812" x2="292.6011424994812" y1="0.5" y2="30"/><line opacity="0.2" x1="461.31486509051035" x2="461.31486509051035" y1="0.5" y2="30"/><line opacity="0.2" x1="369.47124149207076" x2="369.47124149207076" y1="0.5" y2="30"/><line opacity="0.2" x1="289.1714235283841" x2="289.1714235283841" y1="0.5" y2="30"/><line opacity="0.2" x1="392.4261071487102" x2="392.4261071487102" y1="0.5" y2="30"/><line opacity="0.2" x1="200.6924668442918" x2="200.6924668442918" y1="0.5" y2="30"/><line opacity="0.2" x1="174.64658974556482" x2="174.64658974556482" y1="0.5" y2="30"/><line opacity="0.2" x1="283.86081558577405" x2="283.86081558577405" y1="0.5" y2="30"/><line opacity="0.2" x1="450.67244859643574" x2="450.67244859643574" y1="0.5" y2="30"/><line opacity="0.2" x1="604.944151141517" x2="604.944151141517" y1="0.5" y2="30"/><line opacity="0.2" x1="254.68065669269458" x2="254.68065669269458" y1="0.5" y2="30"/><line opacity="0.2" x1="334.6362646573747" x2="334.6362646573747" y1="0.5" y2="30"/><line opacity="0.2" x1="233.41777332348687" x2="233.41777332348687" y1="0.5" y2="30"/><line opacity="0.2" x1="143.91762733649998" x2="143.91762733649998" y1="0.5" y2="30"/><line opacity="0.2" x1="457.1398158453964" x2="457.1398158453964" y1="0.5" y2="30"/><line opacity="0.2" x1="570.8005598579939" x2="570.8005598579939" y1="0.5" y2="30"/><line opacity="0.2" x1="242.34658916113588" x2="242.34658916113588" y1="0.5" y2="30"/><line opacity="0.2" x1="348.0653317055428" x2="348.0653317055428" y1="0.5" y2="30"/><line opacity="0.2" x1="315.00324061153793" x2="315.00324061153793" y1="0.5" y2="30"/><line opacity="0.2" x1="228.99056044106018" x2="228.99056044106018" y1="0.5" y2="30"/><line opacity="0.2" x1="586.0995117041944" x2="586.0995117041944" y1="0.5" y2="30"/><line opacity="0.2" x1="307.7977103730892" x2="307.7977103730892" y1="0.5" y2="30"/><line opacity="0.2" x1="401.098632362707" x2="401.098632362707" y1="0.5" y2="30"/><line opacity="0.2" x1="313.4968076808321" x2="313.4968076808321" y1="0.5" y2="30"/><line opacity="0.2" x1="204.3675509765594" x2="204.3675509765594" y1="0.5" y2="30"/><line opacity="0.2" x1="256.38229110276876" x2="256.38229110276876" y1="0.5" y2="30"/><line opacity="0.2" x1="286.2187153004823" x2="286.2187153004823" y1="0.5" y2="30"/><line opacity="0.2" x1="450.90129686882136" x2="450.90129686882136" y1="0.5" y2="30"/><line opacity="0.2" x1="270.5573220279001" x2="270.5573220279001" y1="0.5" y2="30"/><line opacity="0.2" x1="455.5232891390419" x2="455.5232891390419" y1="0.5" y2="30"/><line opacity="0.2" x1="292.9602478232019" x2="292.9602478232019" y1="0.5" y2="30"/><line opacity="0.2" x1="298.61262985357683" x2="298.61262985357683" y1="0.5" y2="30"/><line opacity="0.2" x1="325.17402915367626" x2="325.17402915367626" y1="0.5" y2="30"/><line opacity="0.2" x1="291.88433455654456" x2="291.88433455654456" y1="0.5" y2="30"/><line opacity="0.2" x1="301.61068305895117" x2="301.61068305895117" y1="0.5" y2="30"/><line opacity="0.2" x1="343.3463444966199" x2="343.3463444966199" y1="0.5" y2="30"/><line opacity="0.2" x1="313.7723427022794" x2="313.7723427022794" y1="0.5" y2="30"/><line opacity="0.2" x1="294.9992127176776" x2="294.9992127176776" y1="0.5" y2="30"/><line opacity="0.2" x1="398.52033296314795" x2="398.52033296314795" y1="0.5" y2="30"/><line opacity="0.2" x1="347.32272130604264" x2="347.32272130604264" y1="0.5" y2="30"/><line opacity="0.2" x1="354.8805549682927" x2="354.8805549682927" y1="0.5" y2="30"/><line opacity="0.2" x1="476.26284606873696" x2="476.26284606873696" y1="0.5" y2="30"/><line opacity="0.2" x1="213.683915460379" x2="213.683915460379" y1="0.5" y2="30"/><line opacity="0.2" x1="476.8647318354966" x2="476.8647318354966" y1="0.5" y2="30"/><line opacity="0.2" x1="252.94817351993512" x2="252.94817351993512" y1="0.5" y2="30"/><line opacity="0.2" x1="323.545908684515" x2="323.545908684515" y1="0.5" y2="30"/><line opacity="0.2" x1="361.64340072551215" x2="361.64340072551215" y1="0.5" y2="30"/><line opacity="0.2" x1="382.02056722337954" x2="382.02056722337954" y1="0.5" y2="30"/><line opacity="0.2" x1="275.22359802836905" x2="275.22359802836905" y1="0.5" y2="30"/><line opacity="0.2" x1="354.46203052546804" x2="354.46203052546804" y1="0.5" y2="30"/><line opacity="0.2" x1="251.32871802116253" x2="251.32871802116253" y1="0.5" y2="30"/><line opacity="0.2" x1="351.9599420573255" x2="351.9599420573255" y1="0.5" y2="30"/><line opacity="0.2" x1="130.30217423538767" x2="130.30217423538767" y1="0.5" y2="30"/><line opacity="0.2" x1="334.81759753591973" x2="334.81759753591973" y1="0.5" y2="30"/><line opacity="0.2" x1="253.5204239286327" x2="253.5204239286327" y1="0.5" y2="30"/><line opacity="0.2" x1="170.4517604695178" x2="170.4517604695178" y1="0.5" y2="30"/><line opacity="0.2" x1="510.93097705074143" x2="510.93097705074143" y1="0.5" y2="30"/><line opacity="0.2" x1="285.8434814880469" x2="285.8434814880469" y1="0.5" y2="30"/><line opacity="0.2" x1="313.7609922580684" x2="313.7609922580684" y1="0.5" y2="30"/><line opacity="0.2" x1="357.517734525542" x2="357.517734525542" y1="0.5" y2="30"/><line opacity="0.2" x1="461.6917727722744" x2="461.6917727722744" y1="0.5" y2="30"/><line opacity="0.2" x1="338.2509614325384" x2="338.2509614325384" y1="0.5" y2="30"/><line opacity="0.2" x1="334.54954676201794" x2="334.54954676201794" y1="0.5" y2="30"/><line opacity="0.2" x1="327.3861520512007" x2="327.3861520512007" y1="0.5" y2="30"/><line opacity="0.2" x1="426.38331235252167" x2="426.38331235252167" y1="0.5" y2="30"/><line opacity="0.2" x1="335.2532673293249" x2="335.2532673293249" y1="0.5" y2="30"/><line opacity="0.2" x1="307.64162239509443" x2="307.64162239509443" y1="0.5" y2="30"/><line opacity="0.2" x1="317.68315504615765" x2="317.68315504615765" y1="0.5" y2="30"/><line opacity="0.2" x1="380.52060729906725" x2="380.52060729906725" y1="0.5" y2="30"/><line opacity="0.2" x1="367.7607248448179" x2="367.7607248448179" y1="0.5" y2="30"/><line opacity="0.2" x1="378.65711759997345" x2="378.65711759997345" y1="0.5" y2="30"/><line opacity="0.2" x1="346.761266352507" x2="346.761266352507" y1="0.5" y2="30"/><line opacity="0.2" x1="271.6237443855756" x2="271.6237443855756" y1="0.5" y2="30"/><line opacity="0.2" x1="206.95269634748502" x2="206.95269634748502" y1="0.5" y2="30"/><line opacity="0.2" x1="290.9091661032763" x2="290.9091661032763" y1="0.5" y2="30"/><line opacity="0.2" x1="321.26859195908435" x2="321.26859195908435" y1="0.5" y2="30"/><line opacity="0.2" x1="179.16173901268002" x2="179.16173901268002" y1="0.5" y2="30"/><line opacity="0.2" x1="195.43733600957847" x2="195.43733600957847" y1="0.5" y2="30"/><line opacity="0.2" x1="382.4262143859682" x2="382.4262143859682" y1="0.5" y2="30"/><line opacity="0.2" x1="360.0911093259966" x2="360.0911093259966" y1="0.5" y2="30"/><line opacity="0.2" x1="172.2637546003338" x2="172.2637546003338" y1="0.5" y2="30"/><line opacity="0.2" x1="395.66330444349336" x2="395.66330444349336" y1="0.5" y2="30"/><line opacity="0.2" x1="283.0731214580087" x2="283.0731214580087" y1="0.5" y2="30"/><line opacity="0.2" x1="291.254249262975" x2="291.254249262975" y1="0.5" y2="30"/><line opacity="0.2" x1="337.4438756901164" x2="337.4438756901164" y1="0.5" y2="30"/><line opacity="0.2" x1="450.7555356618687" x2="450.7555356618687" y1="0.5" y2="30"/><line opacity="0.2" x1="601.2965602192817" x2="601.2965602192817" y1="0.5" y2="30"/><line opacity="0.2" x1="269.773418468421" x2="269.773418468421" y1="0.5" y2="30"/><line opacity="0.2" x1="244.183210091726" x2="244.183210091726" y1="0.5" y2="30"/><line opacity="0.2" x1="439.44249161206807" x2="439.44249161206807" y1="0.5" y2="30"/><line opacity="0.2" x1="314.28700000083506" x2="314.28700000083506" y1="0.5" y2="30"/><line opacity="0.2" x1="200.67084475251627" x2="200.67084475251627" y1="0.5" y2="30"/><line opacity="0.2" x1="383.59007036186716" x2="383.59007036186716" y1="0.5" y2="30"/><line opacity="0.2" x1="273.43846339411783" x2="273.43846339411783" y1="0.5" y2="30"/><line opacity="0.2" x1="63.58937671430756" x2="63.58937671430756" y1="0.5" y2="30"/><line opacity="0.2" x1="347.34923031120513" x2="347.34923031120513" y1="0.5" y2="30"/><line opacity="0.2" x1="269.1693635466532" x2="269.1693635466532" y1="0.5" y2="30"/><line opacity="0.2" x1="385.86279508186414" x2="385.86279508186414" y1="0.5" y2="30"/><line opacity="0.2" x1="370.72864214200825" x2="370.72864214200825" y1="0.5" y2="30"/><line opacity="0.2" x1="515.1334966911134" x2="515.1334966911134" y1="0.5" y2="30"/><line opacity="0.2" x1="215.72471544998177" x2="215.72471544998177" y1="0.5" y2="30"/><line opacity="0.2" x1="344.3291290126299" x2="344.3291290126299" y1="0.5" y2="30"/><line opacity="0.2" x1="177.53488847439755" x2="177.53488847439755" y1="0.5" y2="30"/><line opacity="0.2" x1="275.23464356346005" x2="275.23464356346005" y1="0.5" y2="30"/><line opacity="0.2" x1="361.0488771248092" x2="361.0488771248092" y1="0.5" y2="30"/><line opacity="0.2" x1="287.7587846799036" x2="287.7587846799036" y1="0.5" y2="30"/><line opacity="0.2" x1="301.1673310885883" x2="301.1673310885883" y1="0.5" y2="30"/><line opacity="0.2" x1="288.9472915299789" x2="288.9472915299789" y1="0.5" y2="30"/><line opacity="0.2" x1="219.07425797181787" x2="219.07425797181787" y1="0.5" y2="30"/><line opacity="0.2" x1="137.2908892481352" x2="137.2908892481352" y1="0.5" y2="30"/><line opacity="0.2" x1="455.59115602194254" x2="455.59115602194254" y1="0.5" y2="30"/><line opacity="0.2" x1="289.40366253261" x2="289.40366253261" y1="0.5" y2="30"/><line opacity="0.2" x1="437.50305923689814" x2="437.50305923689814" y1="0.5" y2="30"/><line opacity="0.2" x1="341.09473007019653" x2="341.09473007019653" y1="0.5" y2="30"/><line opacity="0.2" x1="307.59204399732664" x2="307.59204399732664" y1="0.5" y2="30"/><line opacity="0.2" x1="326.2911660055209" x2="326.2911660055209" y1="0.5" y2="30"/><line opacity="0.2" x1="432.56157027796587" x2="432.56157027796587" y1="0.5" y2="30"/><line opacity="0.2" x1="246.4005160278588" x2="246.4005160278588" y1="0.5" y2="30"/><line opacity="0.2" x1="444.4073458389212" x2="444.4073458389212" y1="0.5" y2="30"/><line opacity="0.2" x1="358.3070711846904" x2="358.3070711846904" y1="0.5" y2="30"/><line opacity="0.2" x1="293.6135805492644" x2="293.6135805492644" y1="0.5" y2="30"/><line opacity="0.2" x1="117.2974849490196" x2="117.2974849490196" y1="0.5" y2="30"/><line opacity="0.2" x1="394.4131635062005" x2="394.4131635062005" y1="0.5" y2="30"/><line opacity="0.2" x1="181.49599890951328" x2="181.49599890951328" y1="0.5" y2="30"/><line opacity="0.2" x1="331.809313938726" x2="331.809313938726" y1="0.5" y2="30"/><line opacity="0.2" x1="216.0754616127793" x2="216.0754616127793" y1="0.5" y2="30"/><line opacity="0.2" x1="334.5689647715708" x2="334.5689647715708" y1="0.5" y2="30"/><line opacity="0.2" x1="307.69511498105896" x2="307.69511498105896" y1="0.5" y2="30"/><line opacity="0.2" x1="360.64165255315675" x2="360.64165255315675" y1="0.5" y2="30"/><line opacity="0.2" x1="306.0280937210371" x2="306.0280937210371" y1="0.5" y2="30"/><line opacity="0.2" x1="568.6514034986712" x2="568.6514034986712" y1="0.5" y2="30"/><line opacity="0.2" x1="390.1058104699873" x2="390.1058104699873" y1="0.5" y2="30"/><line opacity="0.2" x1="321.6671826151872" x2="321.6671826151872" y1="0.5" y2="30"/><line opacity="0.2" x1="462.31848143784805" x2="462.31848143784805" y1="0.5" y2="30"/><line opacity="0.2" x1="231.61385211523952" x2="231.61385211523952" y1="0.5" y2="30"/><line opacity="0.2" x1="333.4941939295143" x2="333.4941939295143" y1="0.5" y2="30"/><line opacity="0.2" x1="345.02434041067795" x2="345.02434041067795" y1="0.5" y2="30"/><line opacity="0.2" x1="403.9236388870973" x2="403.9236388870973" y1="0.5" y2="30"/><line opacity="0.2" x1="255.3929360756486" x2="255.3929360756486" y1="0.5" y2="30"/><line opacity="0.2" x1="265.82742723267444" x2="265.82742723267444" y1="0.5" y2="30"/><line opacity="0.2" x1="406.7866519455008" x2="406.7866519455008" y1="0.5" y2="30"/><line opacity="0.2" x1="424.2398091005128" x2="424.2398091005128" y1="0.5" y2="30"/><line opacity="0.2" x1="292.28773443469737" x2="292.28773443469737" y1="0.5" y2="30"/><line opacity="0.2" x1="361.3363773282855" x2="361.3363773282855" y1="0.5" y2="30"/><line opacity="0.2" x1="313.81844181968006" x2="313.81844181968006" y1="0.5" y2="30"/><line opacity="0.2" x1="119.94788582229603" x2="119.94788582229603" y1="0.5" y2="30"/><line opacity="0.2" x1="337.68833279775924" x2="337.68833279775924" y1="0.5" y2="30"/><line opacity="0.2" x1="308.7396019664528" x2="308.7396019664528" y1="0.5" y2="30"/><line opacity="0.2" x1="244.90974464840926" x2="244.90974464840926" y1="0.5" y2="30"/><line opacity="0.2" x1="280.9583683615738" x2="280.9583683615738" y1="0.5" y2="30"/><line opacity="0.2" x1="314.4199798847853" x2="314.4199798847853" y1="0.5" y2="30"/><line opacity="0.2" x1="350.44022395968386" x2="350.44022395968386" y1="0.5" y2="30"/><line opacity="0.2" x1="184.65468418377486" x2="184.65468418377486" y1="0.5" y2="30"/><line opacity="0.2" x1="428.3187802025757" x2="428.3187802025757" y1="0.5" y2="30"/><line opacity="0.2" x1="266.2735030346288" x2="266.2735030346288" y1="0.5" y2="30"/><line opacity="0.2" x1="329.5018977020203" x2="329.5018977020203" y1="0.5" y2="30"/><line opacity="0.2" x1="267.51060033317174" x2="267.51060033317174" y1="0.5" y2="30"/><line opacity="0.2" x1="133.52091858994177" x2="133.52091858994177" y1="0.5" y2="30"/><line opacity="0.2" x1="308.2775049171642" x2="308.2775049171642" y1="0.5" y2="30"/><line opacity="0.2" x1="233.0816501964129" x2="233.0816501964129" y1="0.5" y2="30"/><line opacity="0.2" x1="340.2940988978374" x2="340.2940988978374" y1="0.5" y2="30"/><line opacity="0.2" x1="386.61718782626764" x2="386.61718782626764" y1="0.5" y2="30"/><line opacity="0.2" x1="504.38465721452275" x2="504.38465721452275" y1="0.5" y2="30"/><line opacity="0.2" x1="459.888213395978" x2="459.888213395978" y1="0.5" y2="30"/><line opacity="0.2" x1="292.18918756232085" x2="292.18918756232085" y1="0.5" y2="30"/><line opacity="0.2" x1="316.9344048503935" x2="316.9344048503935" y1="0.5" y2="30"/><line opacity="0.2" x1="383.543607945457" x2="383.543607945457" y1="0.5" y2="30"/><line opacity="0.2" x1="260.8265077826568" x2="260.8265077826568" y1="0.5" y2="30"/><line opacity="0.2" x1="207.43676752477654" x2="207.43676752477654" y1="0.5" y2="30"/><line opacity="0.2" x1="369.7384408146813" x2="369.7384408146813" y1="0.5" y2="30"/><line opacity="0.2" x1="244.92862264720722" x2="244.92862264720722" y1="0.5" y2="30"/><line opacity="0.2" x1="334.3584075146786" x2="334.3584075146786" y1="0.5" y2="30"/><line opacity="0.2" x1="184.96737501647075" x2="184.96737501647075" y1="0.5" y2="30"/><line opacity="0.2" x1="259.19993425310525" x2="259.19993425310525" y1="0.5" y2="30"/><line opacity="0.2" x1="318.0653109929391" x2="318.0653109929391" y1="0.5" y2="30"/><line opacity="0.2" x1="381.3911685234933" x2="381.3911685234933" y1="0.5" y2="30"/><line opacity="0.2" x1="620" x2="620" y1="0.5" y2="30"/><line opacity="0.2" x1="313.58882246747453" x2="313.58882246747453" y1="0.5" y2="30"/><line opacity="0.2" x1="235.9817836726593" x2="235.9817836726593" y1="0.5" y2="30"/><line opacity="0.2" x1="333.7385579579832" x2="333.7385579579832" y1="0.5" y2="30"/><line opacity="0.2" x1="411.3193411063297" x2="411.3193411063297" y1="0.5" y2="30"/><line opacity="0.2" x1="323.5932405246043" x2="323.5932405246043" y1="0.5" y2="30"/><line opacity="0.2" x1="349.30313296192037" x2="349.30313296192037" y1="0.5" y2="30"/><line opacity="0.2" x1="345.4768417159406" x2="345.4768417159406" y1="0.5" y2="30"/><line opacity="0.2" x1="304.0613137024525" x2="304.0613137024525" y1="0.5" y2="30"/><line opacity="0.2" x1="403.8962982967501" x2="403.8962982967501" y1="0.5" y2="30"/><line opacity="0.2" x1="374.5616057506187" x2="374.5616057506187" y1="0.5" y2="30"/><line opacity="0.2" x1="201.44614325823642" x2="201.44614325823642" y1="0.5" y2="30"/><line opacity="0.2" x1="426.4881441800214" x2="426.4881441800214" y1="0.5" y2="30"/><line opacity="0.2" x1="289.30941731323384" x2="289.30941731323384" y1="0.5" y2="30"/><line opacity="0.2" x1="333.7608286687763" x2="333.7608286687763" y1="0.5" y2="30"/><line opacity="0.2" x1="300.35658315627865" x2="300.35658315627865" y1="0.5" y2="30"/><line opacity="0.2" x1="369.76837472673316" x2="369.76837472673316" y1="0.5" y2="30"/><line opacity="0.2" x1="379.1074077947818" x2="379.1074077947818" y1="0.5" y2="30"/><line opacity="0.2" x1="333.21868645503224" x2="333.21868645503224" y1="0.5" y2="30"/><line opacity="0.2" x1="297.3755505185954" x2="297.3755505185954" y1="0.5" y2="30"/><line opacity="0.2" x1="247.08721107860828" x2="247.08721107860828" y1="0.5" y2="30"/><line opacity="0.2" x1="510.4580279462029" x2="510.4580279462029" y1="0.5" y2="30"/><line opacity="0.2" x1="285.0255834735167" x2="285.0255834735167" y1="0.5" y2="30"/><line opacity="0.2" x1="234.3594776514783" x2="234.3594776514783" y1="0.5" y2="30"/><line opacity="0.2" x1="234.90872589770308" x2="234.90872589770308" y1="0.5" y2="30"/><line opacity="0.2" x1="327.2123804723479" x2="327.2123804723479" y1="0.5" y2="30"/><line opacity="0.2" x1="490.85876139703265" x2="490.85876139703265" y1="0.5" y2="30"/><line opacity="0.2" x1="73.15775566294154" x2="73.15775566294154" y1="0.5" y2="30"/><line opacity="0.2" x1="253.23599432006324" x2="253.23599432006324" y1="0.5" y2="30"/><line opacity="0.2" x1="372.44854018222463" x2="372.44854018222463" y1="0.5" y2="30"/><line opacity="0.2" x1="249.3973806218096" x2="249.3973806218096" y1="0.5" y2="30"/><line opacity="0.2" x1="377.1732277362261" x2="377.1732277362261" y1="0.5" y2="30"/><line opacity="0.2" x1="326.8976857365045" x2="326.8976857365045" y1="0.5" y2="30"/><line opacity="0.2" x1="421.25993712799345" x2="421.25993712799345" y1="0.5" y2="30"/><line opacity="0.2" x1="220.34435326061976" x2="220.34435326061976" y1="0.5" y2="30"/><line opacity="0.2" x1="393.7608707699715" x2="393.7608707699715" y1="0.5" y2="30"/><line opacity="0.2" x1="370.4466324563051" x2="370.4466324563051" y1="0.5" y2="30"/><line opacity="0.2" x1="394.81263214346325" x2="394.81263214346325" y1="0.5" y2="30"/><line opacity="0.2" x1="293.16489514565836" x2="293.16489514565836" y1="0.5" y2="30"/><line opacity="0.2" x1="382.7553560595959" x2="382.7553560595959" y1="0.5" y2="30"/><line opacity="0.2" x1="354.2612314103119" x2="354.2612314103119" y1="0.5" y2="30"/><line opacity="0.2" x1="496.46344854236196" x2="496.46344854236196" y1="0.5" y2="30"/><line opacity="0.2" x1="209.46426202946975" x2="209.46426202946975" y1="0.5" y2="30"/><line opacity="0.2" x1="289.923948645392" x2="289.923948645392" y1="0.5" y2="30"/><line opacity="0.2" x1="332.3547680560591" x2="332.3547680560591" y1="0.5" y2="30"/><line opacity="0.2" x1="480.30602568363685" x2="480.30602568363685" y1="0.5" y2="30"/><line opacity="0.2" x1="391.2863028523367" x2="391.2863028523367" y1="0.5" y2="30"/><line opacity="0.2" x1="282.01169932779675" x2="282.01169932779675" y1="0.5" y2="30"/><line opacity="0.2" x1="330.53338309164116" x2="330.53338309164116" y1="0.5" y2="30"/><line opacity="0.2" x1="236.04266888481806" x2="236.04266888481806" y1="0.5" y2="30"/><line opacity="0.2" x1="461.1403158256977" x2="461.1403158256977" y1="0.5" y2="30"/><line opacity="0.2" x1="358.54344497392407" x2="358.54344497392407" y1="0.5" y2="30"/><line opacity="0.2" x1="298.45525622326164" x2="298.45525622326164" y1="0.5" y2="30"/><line opacity="0.2" x1="360.85402600906775" x2="360.85402600906775" y1="0.5" y2="30"/><line opacity="0.2" x1="460.88285563805476" x2="460.88285563805476" y1="0.5" y2="30"/><line opacity="0.2" x1="336.6228520108587" x2="336.6228520108587" y1="0.5" y2="30"/><line opacity="0.2" x1="327.7337040415131" x2="327.7337040415131" y1="0.5" y2="30"/><line opacity="0.2" x1="345.5679995514426" x2="345.5679995514426" y1="0.5" y2="30"/><line opacity="0.2" x1="223.45067846357222" x2="223.45067846357222" y1="0.5" y2="30"/><line opacity="0.2" x1="377.33141608580877" x2="377.33141608580877" y1="0.5" y2="30"/><line opacity="0.2" x1="244.08007371991326" x2="244.08007371991326" y1="0.5" y2="30"/><line opacity="0.2" x1="278.8678804358404" x2="278.8678804358404" y1="0.5" y2="30"/><line opacity="0.2" x1="270.6958746301624" x2="270.6958746301624" y1="0.5" y2="30"/><line opacity="0.2" x1="405.13334363821986" x2="405.13334363821986" y1="0.5" y2="30"/><line opacity="0.2" x1="402.00688792318863" x2="402.00688792318863" y1="0.5" y2="30"/><line opacity="0.2" x1="362.6693559064661" x2="362.6693559064661" y1="0.5" y2="30"/><line opacity="0.2" x1="362.8233258712327" x2="362.8233258712327" y1="0.5" y2="30"/><line opacity="0.2" x1="512.5905349666921" x2="512.5905349666921" y1="0.5" y2="30"/><line opacity="0.2" x1="275.16954923057153" x2="275.16954923057153" y1="0.5" y2="30"/><line opacity="0.2" x1="348.1795219846391" x2="348.1795219846391" y1="0.5" y2="30"/><line opacity="0.2" x1="369.19052068268724" x2="369.19052068268724" y1="0.5" y2="30"/><line opacity="0.2" x1="252.05328676506903" x2="252.05328676506903" y1="0.5" y2="30"/><line opacity="0.2" x1="367.6253189036391" x2="367.6253189036391" y1="0.5" y2="30"/><line opacity="0.2" x1="285.18448125692873" x2="285.18448125692873" y1="0.5" y2="30"/><line opacity="0.2" x1="381.0869547747769" x2="381.0869547747769" y1="0.5" y2="30"/><line opacity="0.2" x1="132.7311152218149" x2="132.7311152218149" y1="0.5" y2="30"/><line opacity="0.2" x1="372.50613733847547" x2="372.50613733847547" y1="0.5" y2="30"/><line opacity="0.2" x1="291.86072587321127" x2="291.86072587321127" y1="0.5" y2="30"/><line opacity="0.2" x1="384.3658024840182" x2="384.3658024840182" y1="0.5" y2="30"/><line opacity="0.2" x1="369.1846585209281" x2="369.1846585209281" y1="0.5" y2="30"/><line opacity="0.2" x1="282.63284335712825" x2="282.63284335712825" y1="0.5" y2="30"/><line opacity="0.2" x1="319.7962544120772" x2="319.7962544120772" y1="0.5" y2="30"/><line opacity="0.2" x1="368.3181916635801" x2="368.3181916635801" y1="0.5" y2="30"/><line opacity="0.2" x1="167.05304475083634" x2="167.05304475083634" y1="0.5" y2="30"/><line opacity="0.2" x1="536.8508952703813" x2="536.8508952703813" y1="0.5" y2="30"/><line opacity="0.2" x1="334.7533646559374" x2="334.7533646559374" y1="0.5" y2="30"/><line opacity="0.2" x1="445.70159782136005" x2="445.70159782136005" y1="0.5" y2="30"/><line opacity="0.2" x1="422.85565798054233" x2="422.85565798054233" y1="0.5" y2="30"/><line opacity="0.2" x1="288.95530450244587" x2="288.95530450244587" y1="0.5" y2="30"/><line opacity="0.2" x1="403.2985894266124" x2="403.2985894266124" y1="0.5" y2="30"/><line opacity="0.2" x1="228.80137277828263" x2="228.80137277828263" y1="0.5" y2="30"/><line opacity="0.2" x1="474.4603572288824" x2="474.4603572288824" y1="0.5" y2="30"/><line opacity="0.2" x1="336.4353833029306" x2="336.4353833029306" y1="0.5" y2="30"/><line opacity="0.2" x1="443.612341528685" x2="443.612341528685" y1="0.5" y2="30"/><line opacity="0.2" x1="410.76449820928246" x2="410.76449820928246" y1="0.5" y2="30"/><line opacity="0.2" x1="225.16275585033182" x2="225.16275585033182" y1="0.5" y2="30"/><line opacity="0.2" x1="397.00701267174355" x2="397.00701267174355" y1="0.5" y2="30"/><line opacity="0.2" x1="419.61509381044294" x2="419.61509381044294" y1="0.5" y2="30"/><line opacity="0.2" x1="427.21783980051777" x2="427.21783980051777" y1="0.5" y2="30"/><line opacity="0.2" x1="463.6991574206472" x2="463.6991574206472" y1="0.5" y2="30"/><line opacity="0.2" x1="224.2184414700248" x2="224.2184414700248" y1="0.5" y2="30"/><line opacity="0.2" x1="305.3409894625994" x2="305.3409894625994" y1="0.5" y2="30"/><line opacity="0.2" x1="429.21686695450245" x2="429.21686695450245" y1="0.5" y2="30"/><line opacity="0.2" x1="312.4442023526309" x2="312.4442023526309" y1="0.5" y2="30"/><line opacity="0.2" x1="20" x2="20" y1="0.5" y2="30"/><line opacity="0.2" x1="307.0845488394378" x2="307.0845488394378" y1="0.5" y2="30"/><line opacity="0.2" x1="359.7412741704632" x2="359.7412741704632" y1="0.5" y2="30"/><line opacity="0.2" x1="457.4159815352879" x2="457.4159815352879" y1="0.5" y2="30"/><line opacity="0.2" x1="269.2640981271983" x2="269.2640981271983" y1="0.5" y2="30"/><line opacity="0.2" x1="363.9323210228489" x2="363.9323210228489" y1="0.5" y2="30"/><line opacity="0.2" x1="287.7862107292841" x2="287.7862107292841" y1="0.5" y2="30"/><line opacity="0.2" x1="407.10570801436364" x2="407.10570801436364" y1="0.5" y2="30"/><line opacity="0.2" x1="238.57291095967383" x2="238.57291095967383" y1="0.5" y2="30"/><line opacity="0.2" x1="255.08754904701345" x2="255.08754904701345" y1="0.5" y2="30"/><line opacity="0.2" x1="342.18250879150634" x2="342.18250879150634" y1="0.5" y2="30"/><line opacity="0.2" x1="188.46391068423543" x2="188.46391068423543" y1="0.5" y2="30"/><line opacity="0.2" x1="387.8092323388488" x2="387.8092323388488" y1="0.5" y2="30"/><line opacity="0.2" x1="333.9410764911964" x2="333.9410764911964" y1="0.5" y2="30"/><line opacity="0.2" x1="361.071200952391" x2="361.071200952391" y1="0.5" y2="30"/><line opacity="0.2" x1="305.78608580504033" x2="305.78608580504033" y1="0.5" y2="30"/><line opacity="0.2" x1="242.74684739319244" x2="242.74684739319244" y1="0.5" y2="30"/><line opacity="0.2" x1="301.9598493214932" x2="301.9598493214932" y1="0.5" y2="30"/><line opacity="0.2" x1="311.1934972706807" x2="311.1934972706807" y1="0.5" y2="30"/><line opacity="0.2" x1="268.5230918973176" x2="268.5230918973176" y1="0.5" y2="30"/><line opacity="0.2" x1="116.50316814641384" x2="116.50316814641384" y1="0.5" y2="30"/><line opacity="0.2" x1="193.47438079360796" x2="193.47438079360796" y1="0.5" y2="30"/><line opacity="0.2" x1="383.64046612160723" x2="383.64046612160723" y1="0.5" y2="30"/><line opacity="0.2" x1="380.75339021959326" x2="380.75339021959326" y1="0.5" y2="30"/><line opacity="0.2" x1="222.01847479571788" x2="222.01847479571788" y1="0.5" y2="30"/><line opacity="0.2" x1="270.9119984298676" x2="270.9119984298676" y1="0.5" y2="30"/><line opacity="0.2" x1="227.3757438386364" x2="227.3757438386364" y1="0.5" y2="30"/><line opacity="0.2" x1="311.0365662032286" x2="311.0365662032286" y1="0.5" y2="30"/><line opacity="0.2" x1="492.6288110100288" x2="492.6288110100288" y1="0.5" y2="30"/><line opacity="0.2" x1="285.25744089639954" x2="285.25744089639954" y1="0.5" y2="30"/><line opacity="0.2" x1="195.58319627819628" x2="195.58319627819628" y1="0.5" y2="30"/><line opacity="0.2" x1="46.587599625579855" x2="46.587599625579855" y1="0.5" y2="30"/><line opacity="0.2" x1="352.0126536865089" x2="352.0126536865089" y1="0.5" y2="30"/><line opacity="0.2" x1="313.2982451847324" x2="313.2982451847324" y1="0.5" y2="30"/><line opacity="0.2" x1="413.2576756681136" x2="413.2576756681136" y1="0.5" y2="30"/><line opacity="0.2" x1="329.6881867542508" x2="329.6881867542508" y1="0.5" y2="30"/><line opacity="0.2" x1="323.4676093310922" x2="323.4676093310922" y1="0.5" y2="30"/><line opacity="0.2" x1="206.13422979816602" x2="206.13422979816602" y1="0.5" y2="30"/><line opacity="0.2" x1="390.4018045702055" x2="390.4018045702055" y1="0.5" y2="30"/><line opacity="0.2" x1="386.66408614786843" x2="386.66408614786843" y1="0.5" y2="30"/><line opacity="0.2" x1="378.70377124076964" x2="378.70377124076964" y1="0.5" y2="30"/><line opacity="0.2" x1="176.09682062875422" x2="176.09682062875422" y1="0.5" y2="30"/><line opacity="0.2" x1="370.28732192915965" x2="370.28732192915965" y1="0.5" y2="30"/><line opacity="0.2" x1="257.02138019966264" x2="257.02138019966264" y1="0.5" y2="30"/><line opacity="0.2" x1="186.55625995587116" x2="186.55625995587116" y1="0.5" y2="30"/><line opacity="0.2" x1="288.68783409915073" x2="288.68783409915073" y1="0.5" y2="30"/><line opacity="0.2" x1="418.7878156400699" x2="418.7878156400699" y1="0.5" y2="30"/><line opacity="0.2" x1="422.97253762976027" x2="422.97253762976027" y1="0.5" y2="30"/><line opacity="0.2" x1="286.81349878505006" x2="286.81349878505006" y1="0.5" y2="30"/><line opacity="0.2" x1="369.64442768369076" x2="369.64442768369076" y1="0.5" y2="30"/><line opacity="0.2" x1="522.8327057238113" x2="522.8327057238113" y1="0.5" y2="30"/><line opacity="0.2" x1="385.76616091435085" x2="385.76616091435085" y1="0.5" y2="30"/><line opacity="0.2" x1="246.08903559331486" x2="246.08903559331486" y1="0.5" y2="30"/><line opacity="0.2" x1="294.5547597141907" x2="294.5547597141907" y1="0.5" y2="30"/><line opacity="0.2" x1="412.3302154263462" x2="412.3302154263462" y1="0.5" y2="30"/><line opacity="0.2" x1="365.2511037202139" x2="365.2511037202139" y1="0.5" y2="30"/><line opacity="0.2" x1="342.4260149878032" x2="342.4260149878032" y1="0.5" y2="30"/><line opacity="0.2" x1="244.0336432074439" x2="244.0336432074439" y1="0.5" y2="30"/><line opacity="0.2" x1="389.3665158868854" x2="389.3665158868854" y1="0.5" y2="30"/><line opacity="0.2" x1="232.2318986922173" x2="232.2318986922173" y1="0.5" y2="30"/><line opacity="0.2" x1="346.3715674174633" x2="346.3715674174633" y1="0.5" y2="30"/><line opacity="0.2" x1="457.7218481560504" x2="457.7218481560504" y1="0.5" y2="30"/><line opacity="0.2" x1="155.36424831382072" x2="155.36424831382072" y1="0.5" y2="30"/><line opacity="0.2" x1="165.67334674060643" x2="165.67334674060643" y1="0.5" y2="30"/><line opacity="0.2" x1="386.58147929040166" x2="386.58147929040166" y1="0.5" y2="30"/><line opacity="0.2" x1="285.8677960287162" x2="285.8677960287162" y1="0.5" y2="30"/><line opacity="0.2" x1="308.0023255569624" x2="308.0023255569624" y1="0.5" y2="30"/><line opacity="0.2" x1="271.8435843271898" x2="271.8435843271898" y1="0.5" y2="30"/><line opacity="0.2" x1="249.14333943714598" x2="249.14333943714598" y1="0.5" y2="30"/><line opacity="0.2" x1="361.5051373052478" x2="361.5051373052478" y1="0.5" y2="30"/><line opacity="0.2" x1="407.60259872714823" x2="407.60259872714823" y1="0.5" y2="30"/><line opacity="0.2" x1="254.00562623301442" x2="254.00562623301442" y1="0.5" y2="30"/><line opacity="0.2" x1="247.6717318157885" x2="247.6717318157885" y1="0.5" y2="30"/><line opacity="0.2" x1="378.00329436598486" x2="378.00329436598486" y1="0.5" y2="30"/><line opacity="0.2" x1="293.62100022958714" x2="293.62100022958714" y1="0.5" y2="30"/><line opacity="0.2" x1="295.5041306239523" x2="295.5041306239523" y1="0.5" y2="30"/><line opacity="0.2" x1="447.2923379894301" x2="447.2923379894301" y1="0.5" y2="30"/><line opacity="0.2" x1="508.4188347261218" x2="508.4188347261218" y1="0.5" y2="30"/><line opacity="0.2" x1="367.2848470550511" x2="367.2848470550511" y1="0.5" y2="30"/><line opacity="0.2" x1="211.5595308967146" x2="211.5595308967146" y1="0.5" y2="30"/><line opacity="0.2" x1="344.29826735923365" x2="344.29826735923365" y1="0.5" y2="30"/><line opacity="0.2" x1="373.5880842144056" x2="373.5880842144056" y1="0.5" y2="30"/><line opacity="0.2" x1="483.4242482094273" x2="483.4242482094273" y1="0.5" y2="30"/><line opacity="0.2" x1="562.3267505791716" x2="562.3267505791716" y1="0.5" y2="30"/><line opacity="0.2" x1="240.1482386070912" x2="240.1482386070912" y1="0.5" y2="30"/><line opacity="0.2" x1="556.5504841242905" x2="556.5504841242905" y1="0.5" y2="30"/><line opacity="0.2" x1="118.48565623909843" x2="118.48565623909843" y1="0.5" y2="30"/><line opacity="0.2" x1="236.11775416106258" x2="236.11775416106258" y1="0.5" y2="30"/><line opacity="0.2" x1="393.7360860536413" x2="393.7360860536413" y1="0.5" y2="30"/><line opacity="0.2" x1="397.0457931759999" x2="397.0457931759999" y1="0.5" y2="30"/><line opacity="0.2" x1="301.2272323969099" x2="301.2272323969099" y1="0.5" y2="30"/><line opacity="0.2" x1="286.9255605329326" x2="286.9255605329326" y1="0.5" y2="30"/><line opacity="0.2" x1="294.10139460407873" x2="294.10139460407873" y1="0.5" y2="30"/><line opacity="0.2" x1="241.35914531803155" x2="241.35914531803155" y1="0.5" y2="30"/><line opacity="0.2" x1="256.1787086765252" x2="256.1787086765252" y1="0.5" y2="30"/><line opacity="0.2" x1="195.90651629034227" x2="195.90651629034227" y1="0.5" y2="30"/><line opacity="0.2" x1="214.6899437471215" x2="214.6899437471215" y1="0.5" y2="30"/><line opacity="0.2" x1="344.7428958877076" x2="344.7428958877076" y1="0.5" y2="30"/><line opacity="0.2" x1="277.92749281212485" x2="277.92749281212485" y1="0.5" y2="30"/><line opacity="0.2" x1="260.429118502936" x2="260.429118502936" y1="0.5" y2="30"/><line opacity="0.2" x1="309.4580277487963" x2="309.4580277487963" y1="0.5" y2="30"/><line opacity="0.2" x1="300.90650305430887" x2="300.90650305430887" y1="0.5" y2="30"/><line opacity="0.2" x1="162.58844494250746" x2="162.58844494250746" y1="0.5" y2="30"/><line opacity="0.2" x1="228.2885733744963" x2="228.2885733744963" y1="0.5" y2="30"/><line opacity="0.2" x1="38.89995882062419" x2="38.89995882062419" y1="0.5" y2="30"/><line opacity="0.2" x1="397.15753467423895" x2="397.15753467423895" y1="0.5" y2="30"/><line opacity="0.2" x1="439.06561595071753" x2="439.06561595071753" y1="0.5" y2="30"/><line opacity="0.2" x1="288.99610531961844" x2="288.99610531961844" y1="0.5" y2="30"/><line opacity="0.2" x1="321.78166767539517" x2="321.78166767539517" y1="0.5" y2="30"/><line opacity="0.2" x1="500.10036181786774" x2="500.10036181786774" y1="0.5" y2="30"/><line opacity="0.2" x1="339.4179754521388" x2="339.4179754521388" y1="0.5" y2="30"/><line opacity="0.2" x1="326.67787041290563" x2="326.67787041290563" y1="0.5" y2="30"/><line opacity="0.2" x1="236.186495292156" x2="236.186495292156" y1="0.5" y2="30"/><line opacity="0.2" x1="360.60444674154303" x2="360.60444674154303" y1="0.5" y2="30"/><line opacity="0.2" x1="491.994254276694" x2="491.994254276694" y1="0.5" y2="30"/><line opacity="0.2" x1="386.790103141684" x2="386.790103141684" y1="0.5" y2="30"/><line opacity="0.2" x1="363.4968465655465" x2="363.4968465655465" y1="0.5" y2="30"/><line opacity="0.2" x1="403.90710524774437" x2="403.90710524774437" y1="0.5" y2="30"/><line opacity="0.2" x1="375.21180123135605" x2="375.21180123135605" y1="0.5" y2="30"/><line opacity="0.2" x1="425.8012613336299" x2="425.8012613336299" y1="0.5" y2="30"/><line opacity="0.2" x1="395.4323026030555" x2="395.4323026030555" y1="0.5" y2="30"/><line opacity="0.2" x1="492.2582522735298" x2="492.2582522735298" y1="0.5" y2="30"/><line opacity="0.2" x1="444.4285437611419" x2="444.4285437611419" y1="0.5" y2="30"/><line opacity="0.2" x1="467.72943015671586" x2="467.72943015671586" y1="0.5" y2="30"/><line opacity="0.2" x1="241.6957937273547" x2="241.6957937273547" y1="0.5" y2="30"/><line opacity="0.2" x1="460.53770242375623" x2="460.53770242375623" y1="0.5" y2="30"/><line opacity="0.2" x1="460.49057175258815" x2="460.49057175258815" y1="0.5" y2="30"/><line opacity="0.2" x1="451.82172276666466" x2="451.82172276666466" y1="0.5" y2="30"/><line opacity="0.2" x1="175.290290129222" x2="175.290290129222" y1="0.5" y2="30"/><line opacity="0.2" x1="264.8568336664716" x2="264.8568336664716" y1="0.5" y2="30"/><line opacity="0.2" x1="393.27431288856053" x2="393.27431288856053" y1="0.5" y2="30"/><line opacity="0.2" x1="456.03769040641936" x2="456.03769040641936" y1="0.5" y2="30"/><line opacity="0.2" x1="329.4238667652666" x2="329.4238667652666" y1="0.5" y2="30"/><line opacity="0.2" x1="305.03382817877616" x2="305.03382817877616" y1="0.5" y2="30"/><line opacity="0.2" x1="198.0874245496133" x2="198.0874245496133" y1="0.5" y2="30"/><line opacity="0.2" x1="276.8221427079626" x2="276.8221427079626" y1="0.5" y2="30"/><line opacity="0.2" x1="345.5582383426392" x2="345.5582383426392" y1="0.5" y2="30"/><line opacity="0.2" x1="307.05505208375644" x2="307.05505208375644" y1="0.5" y2="30"/><line opacity="0.2" x1="271.1550283050887" x2="271.1550283050887" y1="0.5" y2="30"/><line opacity="0.2" x1="309.5753108839678" x2="309.5753108839678" y1="0.5" y2="30"/><line opacity="0.2" x1="456.90321138716956" x2="456.90321138716956" y1="0.5" y2="30"/><line opacity="0.2" x1="398.77863605271256" x2="398.77863605271256" y1="0.5" y2="30"/><line opacity="0.2" x1="235.12214964713334" x2="235.12214964713334" y1="0.5" y2="30"/><line opacity="0.2" x1="434.1698479742101" x2="434.1698479742101" y1="0.5" y2="30"/><line opacity="0.2" x1="404.074538931311" x2="404.074538931311" y1="0.5" y2="30"/><line opacity="0.2" x1="413.60826398098703" x2="413.60826398098703" y1="0.5" y2="30"/><line opacity="0.2" x1="124.36716792518095" x2="124.36716792518095" y1="0.5" y2="30"/><line opacity="0.2" x1="475.4301804235627" x2="475.4301804235627" y1="0.5" y2="30"/><line opacity="0.2" x1="439.1515733521575" x2="439.1515733521575" y1="0.5" y2="30"/><line opacity="0.2" x1="258.34969137411247" x2="258.34969137411247" y1="0.5" y2="30"/><line opacity="0.2" x1="390.9931420378789" x2="390.9931420378789" y1="0.5" y2="30"/><line opacity="0.2" x1="304.2738445421394" x2="304.2738445421394" y1="0.5" y2="30"/><line opacity="0.2" x1="281.81315274148164" x2="281.81315274148164" y1="0.5" y2="30"/><line opacity="0.2" x1="269.81681796842787" x2="269.81681796842787" y1="0.5" y2="30"/><line opacity="0.2" x1="403.43673601059663" x2="403.43673601059663" y1="0.5" y2="30"/><line opacity="0.2" x1="354.96665703911935" x2="354.96665703911935" y1="0.5" y2="30"/><line opacity="0.2" x1="387.25957402468333" x2="387.25957402468333" y1="0.5" y2="30"/><line opacity="0.2" x1="285.10636290499025" x2="285.10636290499025" y1="0.5" y2="30"/><line opacity="0.2" x1="350.075756416798" x2="350.075756416798" y1="0.5" y2="30"/><line opacity="0.2" x1="294.062792195773" x2="294.062792195773" y1="0.5" y2="30"/><line opacity="0.2" x1="468.46155023946596" x2="468.46155023946596" y1="0.5" y2="30"/><line opacity="0.2" x1="271.5219588538401" x2="271.5219588538401" y1="0.5" y2="30"/><line opacity="0.2" x1="179.8405503822824" x2="179.8405503822824" y1="0.5" y2="30"/><line opacity="0.2" x1="234.2096543481884" x2="234.2096543481884" y1="0.5" y2="30"/><line opacity="0.2" x1="315.7065900533362" x2="315.7065900533362" y1="0.5" y2="30"/><line opacity="0.2" x1="368.5932080336545" x2="368.5932080336545" y1="0.5" y2="30"/><line opacity="0.2" x1="230.63916644844318" x2="230.63916644844318" y1="0.5" y2="30"/><line opacity="0.2" x1="372.0111368406395" x2="372.0111368406395" y1="0.5" y2="30"/><line opacity="0.2" x1="334.6246264482206" x2="334.6246264482206" y1="0.5" y2="30"/><line opacity="0.2" x1="524.0823988639636" x2="524.0823988639636" y1="0.5" y2="30"/><line opacity="0.2" x1="436.98958146362907" x2="436.98958146362907" y1="0.5" y2="30"/><line opacity="0.2" x1="197.72168242820896" x2="197.72168242820896" y1="0.5" y2="30"/><line opacity="0.2" x1="529.0855771062677" x2="529.0855771062677" y1="0.5" y2="30"/><line opacity="0.2" x1="312.44306851104267" x2="312.44306851104267" y1="0.5" y2="30"/><line opacity="0.2" x1="294.8175429733522" x2="294.8175429733522" y1="0.5" y2="30"/><line opacity="0.2" x1="430.2831625723262" x2="430.2831625723262" y1="0.5" y2="30"/><line opacity="0.2" x1="300.58288226974787" x2="300.58288226974787" y1="0.5" y2="30"/><line opacity="0.2" x1="231.79709365406597" x2="231.79709365406597" y1="0.5" y2="30"/><line opacity="0.2" x1="401.3007180539024" x2="401.3007180539024" y1="0.5" y2="30"/><line opacity="0.2" x1="372.2027656462493" x2="372.2027656462493" y1="0.5" y2="30"/><line opacity="0.2" x1="214.4136197008068" x2="214.4136197008068" y1="0.5" y2="30"/><line opacity="0.2" x1="282.14952323438456" x2="282.14952323438456" y1="0.5" y2="30"/><line opacity="0.2" x1="325.39292035731256" x2="325.39292035731256" y1="0.5" y2="30"/><line opacity="0.2" x1="219.33738132581294" x2="219.33738132581294" y1="0.5" y2="30"/><line opacity="0.2" x1="183.8792955721293" x2="183.8792955721293" y1="0.5" y2="30"/><line opacity="0.2" x1="198.09501144624957" x2="198.09501144624957" y1="0.5" y2="30"/><line opacity="0.2" x1="267.4431489365239" x2="267.4431489365239" y1="0.5" y2="30"/><line opacity="0.2" x1="341.7563301278188" x2="341.7563301278188" y1="0.5" y2="30"/><line opacity="0.2" x1="355.883139020289" x2="355.883139020289" y1="0.5" y2="30"/><line opacity="0.2" x1="391.04992717690845" x2="391.04992717690845" y1="0.5" y2="30"/><line opacity="0.2" x1="429.05654921236686" x2="429.05654921236686" y1="0.5" y2="30"/><line opacity="0.2" x1="231.33245770716124" x2="231.33245770716124" y1="0.5" y2="30"/><line opacity="0.2" x1="424.6009359543625" x2="424.6009359543625" y1="0.5" y2="30"/><line opacity="0.2" x1="353.29497863233763" x2="353.29497863233763" y1="0.5" y2="30"/><line opacity="0.2" x1="364.36945120543396" x2="364.36945120543396" y1="0.5" y2="30"/><line opacity="0.2" x1="240.7592596853121" x2="240.7592596853121" y1="0.5" y2="30"/><line opacity="0.2" x1="270.20010738555254" x2="270.20010738555254" y1="0.5" y2="30"/><line opacity="0.2" x1="559.803282101791" x2="559.803282101791" y1="0.5" y2="30"/><line opacity="0.2" x1="462.2184489711641" x2="462.2184489711641" y1="0.5" y2="30"/><line opacity="0.2" x1="457.61938973214643" x2="457.61938973214643" y1="0.5" y2="30"/><line opacity="0.2" x1="187.7064543081395" x2="187.7064543081395" y1="0.5" y2="30"/><line opacity="0.2" x1="424.9875285212979" x2="424.9875285212979" y1="0.5" y2="30"/><line opacity="0.2" x1="393.4304831045565" x2="393.4304831045565" y1="0.5" y2="30"/><line opacity="0.2" x1="331.09163780900246" x2="331.09163780900246" y1="0.5" y2="30"/><line opacity="0.2" x1="362.0496683291125" x2="362.0496683291125" y1="0.5" y2="30"/><line opacity="0.2" x1="230.9035961452034" x2="230.9035961452034" y1="0.5" y2="30"/><line opacity="0.2" x1="328.25787194298226" x2="328.25787194298226" y1="0.5" y2="30"/><line opacity="0.2" x1="381.1965274125302" x2="381.1965274125302" y1="0.5" y2="30"/><line opacity="0.2" x1="104.69809073471971" x2="104.69809073471971" y1="0.5" y2="30"/><line opacity="0.2" x1="381.43196183143306" x2="381.43196183143306" y1="0.5" y2="30"/><line opacity="0.2" x1="270.17149187555196" x2="270.17149187555196" y1="0.5" y2="30"/><line opacity="0.2" x1="345.53041122530016" x2="345.53041122530016" y1="0.5" y2="30"/><line opacity="0.2" x1="245.50686081901972" x2="245.50686081901972" y1="0.5" y2="30"/><line opacity="0.2" x1="393.61947777104325" x2="393.61947777104325" y1="0.5" y2="30"/><line opacity="0.2" x1="199.06219029869808" x2="199.06219029869808" y1="0.5" y2="30"/><line opacity="0.2" x1="435.56718501376116" x2="435.56718501376116" y1="0.5" y2="30"/><line opacity="0.2" x1="126.56551293272584" x2="126.56551293272584" y1="0.5" y2="30"/><line opacity="0.2" x1="429.75079293818027" x2="429.75079293818027" y1="0.5" y2="30"/><line opacity="0.2" x1="522.95253103786" x2="522.95253103786" y1="0.5" y2="30"/><line opacity="0.2" x1="393.9597369992112" x2="393.9597369992112" y1="0.5" y2="30"/><line opacity="0.2" x1="230.66331751861847" x2="230.66331751861847" y1="0.5" y2="30"/><line opacity="0.2" x1="503.2782349928528" x2="503.2782349928528" y1="0.5" y2="30"/><line opacity="0.2" x1="251.7974768233783" x2="251.7974768233783" y1="0.5" y2="30"/><line opacity="0.2" x1="247.75363393326523" x2="247.75363393326523" y1="0.5" y2="30"/><line opacity="0.2" x1="364.1125287708294" x2="364.1125287708294" y1="0.5" y2="30"/><line opacity="0.2" x1="225.95496943616286" x2="225.95496943616286" y1="0.5" y2="30"/><line opacity="0.2" x1="274.68583225370446" x2="274.68583225370446" y1="0.5" y2="30"/><line opacity="0.2" x1="311.73585589190014" x2="311.73585589190014" y1="0.5" y2="30"/><line opacity="0.2" x1="301.69631470135266" x2="301.69631470135266" y1="0.5" y2="30"/><line opacity="0.2" x1="324.85766628042524" x2="324.85766628042524" y1="0.5" y2="30"/><line opacity="0.2" x1="435.66639434177284" x2="435.66639434177284" y1="0.5" y2="30"/><line opacity="0.2" x1="371.4032999119862" x2="371.4032999119862" y1="0.5" y2="30"/><line opacity="0.2" x1="148.4164751402616" x2="148.4164751402616" y1="0.5" y2="30"/><line opacity="0.2" x1="365.27663024564475" x2="365.27663024564475" y1="0.5" y2="30"/><line opacity="0.2" x1="503.0266166329976" x2="503.0266166329976" y1="0.5" y2="30"/><line opacity="0.2" x1="319.2681396560453" x2="319.2681396560453" y1="0.5" y2="30"/><line opacity="0.2" x1="269.05734181007824" x2="269.05734181007824" y1="0.5" y2="30"/><line opacity="0.2" x1="304.8542646670682" x2="304.8542646670682" y1="0.5" y2="30"/><line opacity="0.2" x1="239.93567558613665" x2="239.93567558613665" y1="0.5" y2="30"/><line opacity="0.2" x1="409.5836029183654" x2="409.5836029183654" y1="0.5" y2="30"/><line opacity="0.2" x1="295.0520797543406" x2="295.0520797543406" y1="0.5" y2="30"/><line opacity="0.2" x1="391.6604590124765" x2="391.6604590124765" y1="0.5" y2="30"/><line opacity="0.2" x1="385.23615806525015" x2="385.23615806525015" y1="0.5" y2="30"/><line opacity="0.2" x1="448.3235663400678" x2="448.3235663400678" y1="0.5" y2="30"/><line opacity="0.2" x1="359.17397232229223" x2="359.17397232229223" y1="0.5" y2="30"/><line opacity="0.2" x1="369.1208999611022" x2="369.1208999611022" y1="0.5" y2="30"/><line opacity="0.2" x1="587.0175117442494" x2="587.0175117442494" y1="0.5" y2="30"/><line opacity="0.2" x1="325.4003088000704" x2="325.4003088000704" y1="0.5" y2="30"/><line opacity="0.2" x1="509.6847074255683" x2="509.6847074255683" y1="0.5" y2="30"/><line opacity="0.2" x1="231.68621058633207" x2="231.68621058633207" y1="0.5" y2="30"/><line opacity="0.2" x1="318.4818252533394" x2="318.4818252533394" y1="0.5" y2="30"/><line opacity="0.2" x1="107.76084900639121" x2="107.76084900639121" y1="0.5" y2="30"/><line opacity="0.2" x1="315.1962285962576" x2="315.1962285962576" y1="0.5" y2="30"/><line opacity="0.2" x1="115.67556597543572" x2="115.67556597543572" y1="0.5" y2="30"/><line opacity="0.2" x1="210.79184737415463" x2="210.79184737415463" y1="0.5" y2="30"/><line opacity="0.2" x1="362.1086641601164" x2="362.1086641601164" y1="0.5" y2="30"/><line opacity="0.2" x1="361.3933289781855" x2="361.3933289781855" y1="0.5" y2="30"/><line opacity="0.2" x1="263.5073257597559" x2="263.5073257597559" y1="0.5" y2="30"/><line opacity="0.2" x1="173.61762198881158" x2="173.61762198881158" y1="0.5" y2="30"/><line opacity="0.2" x1="211.88642506439598" x2="211.88642506439598" y1="0.5" y2="30"/><line opacity="0.2" x1="270.8341620722789" x2="270.8341620722789" y1="0.5" y2="30"/><line opacity="0.2" x1="234.17646311315448" x2="234.17646311315448" y1="0.5" y2="30"/><line opacity="0.2" x1="366.86382883374495" x2="366.86382883374495" y1="0.5" y2="30"/><line opacity="0.2" x1="419.62415449856377" x2="419.62415449856377" y1="0.5" y2="30"/><line opacity="0.2" x1="192.21202556697318" x2="192.21202556697318" y1="0.5" y2="30"/><line opacity="0.2" x1="187.66359284009508" x2="187.66359284009508" y1="0.5" y2="30"/><line opacity="0.2" x1="386.0181670467952" x2="386.0181670467952" y1="0.5" y2="30"/><line opacity="0.2" x1="333.3907646360839" x2="333.3907646360839" y1="0.5" y2="30"/><line opacity="0.2" x1="246.75115036277955" x2="246.75115036277955" y1="0.5" y2="30"/><line opacity="0.2" x1="248.0825416533201" x2="248.0825416533201" y1="0.5" y2="30"/><line opacity="0.2" x1="462.5205965583488" x2="462.5205965583488" y1="0.5" y2="30"/><line opacity="0.2" x1="432.10740206537395" x2="432.10740206537395" y1="0.5" y2="30"/><line opacity="0.2" x1="385.71710096602374" x2="385.71710096602374" y1="0.5" y2="30"/><line opacity="0.2" x1="209.78908741176133" x2="209.78908741176133" y1="0.5" y2="30"/><line opacity="0.2" x1="437.94855162747" x2="437.94855162747" y1="0.5" y2="30"/><line opacity="0.2" x1="340.7699938798264" x2="340.7699938798264" y1="0.5" y2="30"/><line opacity="0.2" x1="108.80264664958838" x2="108.80264664958838" y1="0.5" y2="30"/><line opacity="0.2" x1="435.9192047575528" x2="435.9192047575528" y1="0.5" y2="30"/><line opacity="0.2" x1="165.11161404635175" x2="165.11161404635175" y1="0.5" y2="30"/><line opacity="0.2" x1="274.2537547308604" x2="274.2537547308604" y1="0.5" y2="30"/><line opacity="0.2" x1="148.0220330690973" x2="148.0220330690973" y1="0.5" y2="30"/><line opacity="0.2" x1="434.2044793374286" x2="434.2044793374286" y1="0.5" y2="30"/><line opacity="0.2" x1="331.3404405211172" x2="331.3404405211172" y1="0.5" y2="30"/><line opacity="0.2" x1="537.8815663202749" x2="537.8815663202749" y1="0.5" y2="30"/><line opacity="0.2" x1="313.27391646627234" x2="313.27391646627234" y1="0.5" y2="30"/><line opacity="0.2" x1="275.175178373864" x2="275.175178373864" y1="0.5" y2="30"/><line opacity="0.2" x1="527.9541022072364" x2="527.9541022072364" y1="0.5" y2="30"/><line opacity="0.2" x1="362.05694368789034" x2="362.05694368789034" y1="0.5" y2="30"/><line opacity="0.2" x1="276.01194230817845" x2="276.01194230817845" y1="0.5" y2="30"/><line opacity="0.2" x1="344.0437218779694" x2="344.0437218779694" y1="0.5" y2="30"/><line opacity="0.2" x1="266.23919916186964" x2="266.23919916186964" y1="0.5" y2="30"/><line opacity="0.2" x1="191.49173740749853" x2="191.49173740749853" y1="0.5" y2="30"/><line opacity="0.2" x1="248.25068719863046" x2="248.25068719863046" y1="0.5" y2="30"/><line opacity="0.2" x1="212.32145581095324" x2="212.32145581095324" y1="0.5" y2="30"/><line opacity="0.2" x1="346.2841179790209" x2="346.2841179790209" y1="0.5" y2="30"/><line opacity="0.2" x1="164.96765305562226" x2="164.96765305562226" y1="0.5" y2="30"/><line opacity="0.2" x1="296.2599413434485" x2="296.2599413434485" y1="0.5" y2="30"/><line opacity="0.2" x1="333.19385450229834" x2="333.19385450229834" y1="0.5" y2="30"/><line opacity="0.2" x1="389.69207072321973" x2="389.69207072321973" y1="0.5" y2="30"/><line opacity="0.2" x1="320.86295702495283" x2="320.86295702495283" y1="0.5" y2="30"/><line opacity="0.2" x1="262.93932731226505" x2="262.93932731226505" y1="0.5" y2="30"/><line opacity="0.2" x1="342.32143562858715" x2="342.32143562858715" y1="0.5" y2="30"/><line opacity="0.2" x1="309.78174213984886" x2="309.78174213984886" y1="0.5" y2="30"/><line opacity="0.2" x1="353.15269495834775" x2="353.15269495834775" y1="0.5" y2="30"/><line opacity="0.2" x1="229.11570337033223" x2="229.11570337033223" y1="0.5" y2="30"/><line opacity="0.2" x1="368.3093035257629" x2="368.3093035257629" y1="0.5" y2="30"/><line opacity="0.2" x1="380.58053505275495" x2="380.58053505275495" y1="0.5" y2="30"/><line opacity="0.2" x1="304.9659432099948" x2="304.9659432099948" y1="0.5" y2="30"/><line opacity="0.2" x1="214.6689354012893" x2="214.6689354012893" y1="0.5" y2="30"/></g></svg>