<svg xmlns="http://www.w3.org/2000/svg" xmlns:xlink="http://www.w3.org/1999/xlink" class="plot-d6a7b5" fill="currentColor" font-family="system-ui, sans-serif" font-size="10" text-anchor="middle" width="640" height="60" viewBox="0 0 640 60" style="color: black; background-color: white;"><style>.plot-d6a7b5 {
  --plot-background: white;
  display: block;
  height: auto;
  height: intrinsic;
  max-width: 100%;
}
.plot-d6a7b5 text,
.plot-d6a7b5 tspan {
  white-space: pre;
}</style><g aria-label="x-axis tick" fill="none" stroke="currentColor"><path transform="translate(90.63390740584487,30)" d="M0,0L0,6"/><path transform="translate(168.83889683784787,30)" d="M0,0L0,6"/><path transform="translate(247.0438862698509,30)" d="M0,0L0,6"/><path transform="translate(325.2488757018539,30)" d="M0,0L0,6"/><path transform="translate(403.4538651338569,30)" d="M0,0L0,6"/><path transform="translate(481.6588545658599,30)" d="M0,0L0,6"/><path transform="translate(559.8638439978629,30)" d="M0,0L0,6"/></g><g aria-label="x-axis tick label" font-variant="tabular-nums" transform="translate(0,9)"><text y="0.71em" transform="translate(90.63390740584487,30)">−3</text><text y="0.71em" transform="translate(168.83889683784787,30)">−2</text><text y="0.71em" transform="translate(247.0438862698509,30)">−1</text><text y="0.71em" transform="translate(325.2488757018539,30)">0</text><text y="0.71em" transform="translate(403.4538651338569,30)">1</text><text y="0.71em" transform="translate(481.6588545658599,30)">2</text><text y="0.71em" transform="translate(559.8638439978629,30)">3</text></g><g aria-label="tick" stroke="steelblue"><line opacity="0.2" x1="343.75054485802684" x2="343.75054485802684" y1="0.5" y2="30"/><line opacity="0.2" x1="398.0579864644016" x2="398.0579864644016" y1="0.5" y2="30"/><line opacity="0.2" x1="438.55716123782014" x2="438.55716123782014" y1="0.5" y2="30"/><line opacity="0.2" x1="473.6347050890403" x2="473.6347050890403" y1="0.5" y2="30"/><line opacity="0.2" x1="266.961912067091" x2="266.961912067091" y1="0.5" y2="30"/><line opacity="0.2" x1="326.0062405297305" x2="326.0062405297305" y1="0.5" y2="30"/><line opacity="0.2" x1="249.65076898364896" x2="249.65076898364896" y1="0.5" y2="30"/><line opacity="0.2" x1="350.0873154106918" x2="350.0873154106918" y1="0.5" y2="30"/><line opacity="0.2" x1="326.69240608649886" x2="326.69240608649886" y1="0.5" y2="30"/><line opacity="0.2" x1="291.25750703117865" x2="291.25750703117865" y1="0.5" y2="30"/><line opacity="0.2" x1="314.6722221341199" x2="314.6722221341199" y1="0.5" y2="30"/><line opacity="0.2" x1="303.7722946444488" x2="303.7722946444488" y1="0.5" y2="30"/><line opacity="0.2" x1="335.2059856910229" x2="335.2059856910229" y1="0.5" y2="30"/><line opacity="0.2" x1="385.3848061757802" x2="385.3848061757802" y1="0.5" y2="30"/><line opacity="0.2" x1="294.2415992762776" x2="294.2415992762776" y1="0.5" y2="30"/><line opacity="0.2" x1="393.9019829513821" x2="393.9019829513821" y1="0.5" y2="30"/><line opacity="0.2" x1="386.87536392926745" x2="386.87536392926745" y1="0.5" y2="30"/><line opacity="0.2" x1="337.9190287976838" x2="337.9190287976838" y1="0.5" y2="30"/><line opacity="0.2" x1="354.5509796688168" x2="354.5509796688168" y1="0.5" y2="30"/><line opacity="0.2" x1="319.6231995898493" x2="319.6231995898493" y1="0.5" y2="30"/><line opacity="0.2" x1="404.22040357231583" x2="404.22040357231583" y1="0.5" y2="30"/><line opacity="0.2" x1="290.37817436864657" x2="290.37817436864657" y1="0.5" y2="30"/><line opacity="0.2" x1="328.95438436098647" x2="328.95438436098647" y1="0.5" y2="30"/><line opacity="0.2" x1="307.8226052145398" x2="307.8226052145398" y1="0.5" y2="30"/><line opacity="0.2" x1="352.7417713246899" x2="352.7417713246899" y1="0.5" y2="30"/><line opacity="0.2" x1="462.3198912451002" x2="462.3198912451002" y1="0.5" y2="30"/><line opacity="0.2" x1="362.44250445498494" x2="362.44250445498494" y1="0.5" y2="30"/><line opacity="0.2" x1="233.98173262503693" x2="233.98173262503693" y1="0.5" y2="30"/><line opacity="0.2" x1="185.6264387273122" x2="185.6264387273122" y1="0.5" y2="30"/><line opacity="0.2" x1="331.5768279138573" x2="331.5768279138573" y1="0.5" y2="30"/><line opacity="0.2" x1="393.8839104677196" x2="393.8839104677196" y1="0.5" y2="30"/><line opacity="0.2" x1="306.97933176806043" x2="306.97933176806043" y1="0.5" y2="30"/><line opacity="0.2" x1="332.9737510587534" x2="332.9737510587534" y1="0.5" y2="30"/><line opacity="0.2" x1="370.9350492145993" x2="370.9350492145993" y1="0.5" y2="30"/><line opacity="0.2" x1="246.40852137522182" x2="246.40852137522182" y1="0.5" y2="30"/><line opacity="0.2" x1="408.5715597913084" x2="408.5715597913084" y1="0.5" y2="30"/><line opacity="0.2" x1="281.0078090163304" x2="281.0078090163304" y1="0.5" y2="30"/><line opacity="0.2" x1="239.79230250913312" x2="239.79230250913312" y1="0.5" y2="30"/><line opacity="0.2" x1="239.3359009158088" x2="239.3359009158088" y1="0.5" y2="30"/><line opacity="0.2" x1="328.27271279212374" x2="328.27271279212374" y1="0.5" y2="30"/><line opacity="0.2" x1="383.0937984278419" x2="383.0937984278419" y1="0.5" y2="30"/><line opacity="0.2" x1="457.4168552184607" x2="457.4168552184607" y1="0.5" y2="30"/><line opacity="0.2" x1="292.26014011763806" x2="292.26014011763806" y1="0.5" y2="30"/><line opacity="0.2" x1="171.79984284179295" x2="171.79984284179295" y1="0.5" y2="30"/><line opacity="0.2" x1="272.5950469523067" x2="272.5950469523067" y1="0.5" y2="30"/><line opacity="0.2" x1="375.25155489186966" x2="375.25155489186966" y1="0.5" y2="30"/><line opacity="0.2" x1="193.65153089963312" x2="193.65153089963312" y1="0.5" y2="30"/><line opacity="0.2" x1="326.5730661645536" x2="326.5730661645536" y1="0.5" y2="30"/><line opacity="0.2" x1="270.06035450037626" x2="270.06035450037626" y1="0.5" y2="30"/><line opacity="0.2" x1="179.3334963244344" x2="179.3334963244344" y1="0.5" y2="30"/><line opacity="0.2" x1="340.0234513630903" x2="340.0234513630903" y1="0.5" y2="30"/><line opacity="0.2" x1="266.2571196326416" x2="266.2571196326416" y1="0.5" y2="30"/><line opacity="0.2" x1="386.64518262491265" x2="386.64518262491265" y1="0.5" y2="30"/><line opacity="0.2" x1="351.47218854521446" x2="351.47218854521446" y1="0.5" y2="30"/><line opacity="0.2" x1="242.58645897567357" x2="242.58645897567357" y1="0.5" y2="30"/><line opacity="0.2" x1="288.06777891911634" x2="288.06777891911634" y1="0.5" y2="30"/><line opacity="0.2" x1="388.2082072533575" x2="388.2082072533575" y1="0.5" y2="30"/><line opacity="0.2" x1="356.1813234295908" x2="356.1813234295908" y1="0.5" y2="30"/><line opacity="0.2" x1="389.87551672979043" x2="389.87551672979043" y1="0.5" y2="30"/><line opacity="0.2" x1="450.0409471493733" x2="450.0409471493733" y1="0.5" y2="30"/><line opacity="0.2" x1="270.603776554227" x2="270.603776554227" y1="0.5" y2="30"/><line opacity="0.2" x1="340.0641751923904" x2="340.0641751923904" y1="0.5" y2="30"/><line opacity="0.2" x1="326.8392666229802" x2="326.8392666229802" y1="0.5" y2="30"/><line opacity="0.2" x1="334.3771959851474" x2="334.3771959851474" y1="0.5" y2="30"/><line opacity="0.2" x1="281.42191861318184" x2="281.42191861318184" y1="0.5" y2="30"/><line opacity="0.2" x1="171.22944242073265" x2="171.22944242073265" y1="0.5" y2="30"/><line opacity="0.2" x1="258.9270777465616" x2="258.9270777465616" y1="0.5" y2="30"/><line opacity="0.2" x1="393.41616593392814" x2="393.41616593392814" y1="0.5" y2="30"/><line opacity="0.2" x1="366.84965922990193" x2="366.84965922990193" y1="0.5" y2="30"/><line opacity="0.2" x1="290.1233187432032" x2="290.1233187432032" y1="0.5" y2="30"/><line opacity="0.2" x1="275.75528749254494" x2="275.75528749254494" y1="0.5" y2="30"/><line opacity="0.2" x1="273.86252040238617" x2="273.86252040238617" y1="0.5" y2="30"/><line opacity="0.2" x1="289.0770607344322" x2="289.0770607344322" y1="0.5" y2="30"/><line opacity="0.2" x1="229.54967822774833" x2="229.54967822774833" y1="0.5" y2="30"/><line opacity="0.2" x1="304.2012428735456" x2="304.2012428735456" y1="0.5" y2="30"/><line opacity="0.2" x1="203.8290828120155" x2="203.8290828120155" y1="0.5" y2="30"/><line opacity="0.2" x1="289.62881036446385" x2="289.62881036446385" y1="0.5" y2="30"/><line opacity="0.2" x1="262.4267167310976" x2="262.4267167310976" y1="0.5" y2="30"/><line opacity="0.2" x1="262.533572913224" x2="262.533572913224" y1="0.5" y2="30"/><line opacity="0.2" x1="229.18589526847956" x2="229.18589526847956" y1="0.5" y2="30"/><line opacity="0.2" x1="299.1676473916617" x2="299.1676473916617" y1="0.5" y2="30"/><line opacity="0.2" x1="256.4841736460263" x2="256.4841736460263" y1="0.5" y2="30"/><line opacity="0.2" x1="316.94473280665846" x2="316.94473280665846" y1="0.5" y2="30"/><line opacity="0.2" x1="355.04472671671607" x2="355.04472671671607" y1="0.5" y2="30"/><line opacity="0.2" x1="314.91991540915063" x2="314.91991540915063" y1="0.5" y2="30"/><line opacity="0.2" x1="384.4981447634889" x2="384.4981447634889" y1="0.5" y2="30"/><line opacity="0.2" x1="418.9713889572218" x2="418.9713889572218" y1="0.5" y2="30"/><line opacity="0.2" x1="413.0392568561736" x2="413.0392568561736" y1="0.5" y2="30"/><line opacity="0.2" x1="481.76339948423595" x2="481.76339948423595" y1="0.5" y2="30"/><line opacity="0.2" x1="473.95862487844147" x2="473.95862487844147" y1="0.5" y2="30"/><line opacity="0.2" x1="263.70091139892753" x2="263.70091139892753" y1="0.5" y2="30"/><line opacity="0.2" x1="353.7722220971925" x2="353.7722220971925" y1="0.5" y2="30"/><line opacity="0.2" x1="380.5770401545924" x2="380.5770401545924" y1="0.5" y2="30"/><line opacity="0.2" x1="220.07748714472478" x2="220.07748714472478" y1="0.5" y2="30"/><line opacity="0.2" x1="325.5415347817772" x2="325.5415347817772" y1="0.5" y2="30"/><line opacity="0.2" x1="349.83549992907126" x2="349.83549992907126" y1="0.5" y2="30"/><line opacity="0.2" x1="276.0023815347957" x2="276.0023815347957" y1="0.5" y2="30"/><line opacity="0.2" x1="219.1273201605537" x2="219.1273201605537" y1="0.5" y2="30"/><line opacity="0.2" x1="243.44594829297253" x2="243.44594829297253" y1="0.5" y2="30"/><line opacity="0.2" x1="345.92277909229483" x2="345.92277909229483" y1="0.5" y2="30"/><line opacity="0.2" x1="386.83544584552845" x2="386.83544584552845" y1="0.5" y2="30"/><line opacity="0.2" x1="317.13300445739065" x2="317.13300445739065" y1="0.5" y2="30"/><line opacity="0.2" x1="277.9021753119683" x2="277.9021753119683" y1="0.5" y2="30"/><line opacity="0.2" x1="375.563211243476" x2="375.563211243476" y1="0.5" y2="30"/><line opacity="0.2" x1="254.5090115918785" x2="254.5090115918785" y1="0.5" y2="30"/><line opacity="0.2" x1="341.9806953260585" x2="341.9806953260585" y1="0.5" y2="30"/><line opacity="0.2" x1="340.2780279346225" x2="340.2780279346225" y1="0.5" y2="30"/><line opacity="0.2" x1="237.95687919696934" x2="237.95687919696934" y1="0.5" y2="30"/><line opacity="0.2" x1="382.1971763056075" x2="382.1971763056075" y1="0.5" y2="30"/><line opacity="0.2" x1="383.51969013362265" x2="383.51969013362265" y1="0.5" y2="30"/><line opacity="0.2" x1="379.2212363887296" x2="379.2212363887296" y1="0.5" y2="30"/><line opacity="0.2" x1="307.7033832489512" x2="307.7033832489512" y1="0.5" y2="30"/><line opacity="0.2" x1="170.027593277161" x2="170.027593277161" y1="0.5" y2="30"/><line opacity="0.2" x1="404.69322987696097" x2="404.69322987696097" y1="0.5" y2="30"/><line opacity="0.2" x1="196.68610178612002" x2="196.68610178612002" y1="0.5" y2="30"/><line opacity="0.2" x1="326.7108373198769" x2="326.7108373198769" y1="0.5" y2="30"/><line opacity="0.2" x1="283.52582612895765" x2="283.52582612895765" y1="0.5" y2="30"/><line opacity="0.2" x1="458.8740605581075" x2="458.8740605581075" y1="0.5" y2="30"/><line opacity="0.2" x1="275.20308436030075" x2="275.20308436030075" y1="0.5" y2="30"/><line opacity="0.2" x1="288.40648618931215" x2="288.40648618931215" y1="0.5" y2="30"/><line opacity="0.2" x1="363.00952425511394" x2="363.00952425511394" y1="0.5" y2="30"/><line opacity="0.2" x1="320.0443474179124" x2="320.0443474179124" y1="0.5" y2="30"/><line opacity="0.2" x1="543.0417177776158" x2="543.0417177776158" y1="0.5" y2="30"/><line opacity="0.2" x1="386.70513650027397" x2="386.70513650027397" y1="0.5" y2="30"/><line opacity="0.2" x1="310.1868569014012" x2="310.1868569014012" y1="0.5" y2="30"/><line opacity="0.2" x1="358.1641050492514" x2="358.1641050492514" y1="0.5" y2="30"/><line opacity="0.2" x1="342.319769181992" x2="342.319769181992" y1="0.5" y2="30"/><line opacity="0.2" x1="296.07424428085324" x2="296.07424428085324" y1="0.5" y2="30"/><line opacity="0.2" x1="414.05021412736215" x2="414.05021412736215" y1="0.5" y2="30"/><line opacity="0.2" x1="387.2815315883911" x2="387.2815315883911" y1="0.5" y2="30"/><line opacity="0.2" x1="215.15957103034907" x2="215.15957103034907" y1="0.5" y2="30"/><line opacity="0.2" x1="387.1484703871041" x2="387.1484703871041" y1="0.5" y2="30"/><line opacity="0.2" x1="223.32240363308836" x2="223.32240363308836" y1="0.5" y2="30"/><line opacity="0.2" x1="315.843292692066" x2="315.843292692066" y1="0.5" y2="30"/><line opacity="0.2" x1="493.2133407549062" x2="493.2133407549062" y1="0.5" y2="30"/><line opacity="0.2" x1="254.65361960631418" x2="254.65361960631418" y1="0.5" y2="30"/><line opacity="0.2" x1="265.75629133494607" x2="265.75629133494607" y1="0.5" y2="30"/><line opacity="0.2" x1="254.92263369475094" x2="254.92263369475094" y1="0.5" y2="30"/><line opacity="0.2" x1="261.5543315349467" x2="261.5543315349467" y1="0.5" y2="30"/><line opacity="0.2" x1="320.63230733217915" x2="320.63230733217915" y1="0.5" y2="30"/><line opacity="0.2" x1="219.49333444007868" x2="219.49333444007868" y1="0.5" y2="30"/><line opacity="0.2" x1="295.20528500474126" x2="295.20528500474126" y1="0.5" y2="30"/><line opacity="0.2" x1="229.9104840634399" x2="229.9104840634399" y1="0.5" y2="30"/><line opacity="0.2" x1="295.89005953969695" x2="295.89005953969695" y1="0.5" y2="30"/><line opacity="0.2" x1="343.20650834322083" x2="343.20650834322083" y1="0.5" y2="30"/><line opacity="0.2" x1="425.17428689424634" x2="425.17428689424634" y1="0.5" y2="30"/><line opacity="0.2" x1="411.225436767299" x2="411.225436767299" y1="0.5" y2="30"/><line opacity="0.2" x1="254.6839890311757" x2="254.6839890311757" y1="0.5" y2="30"/><line opacity="0.2" x1="232.14304216896994" x2="232.14304216896994" y1="0.5" y2="30"/><line opacity="0.2" x1="419.66589861429077" x2="419.66589861429077" y1="0.5" y2="30"/><line opacity="0.2" x1="279.04373328935037" x2="279.04373328935037" y1="0.5" y2="30"/><line opacity="0.2" x1="378.6752078920531" x2="378.6752078920531" y1="0.5" y2="30"/><line opacity="0.2" x1="305.17258301263826" x2="305.17258301263826" y1="0.5" y2="30"/><line opacity="0.2" x1="458.4468330759921" x2="458.4468330759921" y1="0.5" y2="30"/><line opacity="0.2" x1="470.41065776838946" x2="470.41065776838946" y1="0.5" y2="30"/><line opacity="0.2" x1="332.4273342625164" x2="332.4273342625164" y1="0.5" y2="30"/><line opacity="0.2" x1="211.80570225474068" x2="211.80570225474068" y1="0.5" y2="30"/><line opacity="0.2" x1="372.780777946431" x2="372.780777946431" y1="0.5" y2="30"/><line opacity="0.2" x1="462.9343339952653" x2="462.9343339952653" y1="0.5" y2="30"/><line opacity="0.2" x1="375.7352446580303" x2="375.7352446580303" y1="0.5" y2="30"/><line opacity="0.2" x1="280.7604717612636" x2="280.7604717612636" y1="0.5" y2="30"/><line opacity="0.2" x1="458.1284159684369" x2="458.1284159684369" y1="0.5" y2="30"/><line opacity="0.2" x1="300.6024160603183" x2="300.6024160603183" y1="0.5" y2="30"/><line opacity="0.2" x1="282.83168815764947" x2="282.83168815764947" y1="0.5" y2="30"/><line opacity="0.2" x1="386.9408618901801" x2="386.9408618901801" y1="0.5" y2="30"/><line opacity="0.2" x1="364.2413012105552" x2="364.2413012105552" y1="0.5" y2="30"/><line opacity="0.2" x1="276.4134013871637" x2="276.4134013871637" y1="0.5" y2="30"/><line opacity="0.2" x1="495.31716918011193" x2="495.31716918011193" y1="0.5" y2="30"/><line opacity="0.2" x1="430.455946778815" x2="430.455946778815" y1="0.5" y2="30"/><line opacity="0.2" x1="236.70181429664993" x2="236.70181429664993" y1="0.5" y2="30"/><line opacity="0.2" x1="391.0095948029062" x2="391.0095948029062" y1="0.5" y2="30"/><line opacity="0.2" x1="386.79469413729527" x2="386.79469413729527" y1="0.5" y2="30"/><line opacity="0.2" x1="397.7907509731613" x2="397.7907509731613" y1="0.5" y2="30"/><line opacity="0.2" x1="246.5839874238425" x2="246.5839874238425" y1="0.5" y2="30"/><line opacity="0.2" x1="401.67992008012334" x2="401.67992008012334" y1="0.5" y2="30"/><line opacity="0.2" x1="306.04801972824134" x2="306.04801972824134" y1="0.5" y2="30"/><line opacity="0.2" x1="265.64517211465045" x2="265.64517211465045" y1="0.5" y2="30"/><line opacity="0.2" x1="294.9960486262443" x2="294.9960486262443" y1="0.5" y2="30"/><line opacity="0.2" x1="368.52045024911064" x2="368.52045024911064" y1="0.5" y2="30"/><line opacity="0.2" x1="258.01755432409385" x2="258.01755432409385" y1="0.5" y2="30"/><line opacity="0.2" x1="258.6210858494621" x2="258.6210858494621" y1="0.5" y2="30"/><line opacity="0.2" x1="375.3739693435261" x2="375.3739693435261" y1="0.5" y2="30"/><line opacity="0.2" x1="393.0719475671305" x2="393.0719475671305" y1="0.5" y2="30"/><line opacity="0.2" x1="273.79709985609213" x2="273.79709985609213" y1="0.5" y2="30"/><line opacity="0.2" x1="302.0818075983104" x2="302.0818075983104" y1="0.5" y2="30"/><line opacity="0.2" x1="452.58006156775485" x2="452.58006156775485" y1="0.5" y2="30"/><line opacity="0.2" x1="355.19294699395783" x2="355.19294699395783" y1="0.5" y2="30"/><line opacity="0.2" x1="121.24911702234904" x2="121.24911702234904" y1="0.5" y2="30"/><line opacity="0.2" x1="440.1890612465002" x2="440.1890612465002" y1="0.5" y2="30"/><line opacity="0.2" x1="396.6332601999178" x2="396.6332601999178" y1="0.5" y2="30"/><line opacity="0.2" x1="287.8826639271054" x2="287.8826639271054" y1="0.5" y2="30"/><line opacity="0.2" x1="198.90318950538102" x2="198.90318950538102" y1="0.5" y2="30"/><line opacity="0.2" x1="326.79180141939787" x2="326.79180141939787" y1="0.5" y2="30"/><line opacity="0.2" x1="373.4077787583643" x2="373.4077787583643" y1="0.5" y2="30"/><line opacity="0.2" x1="312.0547174028546" x2="312.0547174028546" y1="0.5" y2="30"/><line opacity="0.2" x1="377.8298978431195" x2="377.8298978431195" y1="0.5" y2="30"/><line opacity="0.2" x1="424.8437996894496" x2="424.8437996894496" y1="0.5" y2="30"/><line opacity="0.2" x1="233.36650083635735" x2="233.36650083635735" y1="0.5" y2="30"/><line opacity="0.2" x1="379.6091067078877" x2="379.6091067078877" y1="0.5" y2="30"/><line opacity="0.2" x1="332.88218688170696" x2="332.88218688170696" y1="0.5" y2="30"/><line opacity="0.2" x1="240.83968351498666" x2="240.83968351498666" y1="0.5" y2="30"/><line opacity="0.2" x1="333.5304406159007" x2="333.5304406159007" y1="0.5" y2="30"/><line opacity="0.2" x1="147.65203141503557" x2="147.65203141503557" y1="0.5" y2="30"/><line opacity="0.2" x1="321.3692437740873" x2="321.3692437740873" y1="0.5" y2="30"/><line opacity="0.2" x1="249.3642997139251" x2="249.3642997139251" y1="0.5" y2="30"/><line opacity="0.2" x1="378.31835420745955" x2="378.31835420745955" y1="0.5" y2="30"/><line opacity="0.2" x1="397.80536494621293" x2="397.80536494621293" y1="0.5" y2="30"/><line opacity="0.2" x1="192.92538333914814" x2="192.92538333914814" y1="0.5" y2="30"/><line opacity="0.2" x1="378.769253919787" x2="378.769253919787" y1="0.5" y2="30"/><line opacity="0.2" x1="296.4572498573005" x2="296.4572498573005" y1="0.5" y2="30"/><line opacity="0.2" x1="326.51344729741965" x2="326.51344729741965" y1="0.5" y2="30"/><line opacity="0.2" x1="335.00426195649146" x2="335.00426195649146" y1="0.5" y2="30"/><line opacity="0.2" x1="306.95396695313764" x2="306.95396695313764" y1="0.5" y2="30"/><line opacity="0.2" x1="354.597346941509" x2="354.597346941509" y1="0.5" y2="30"/><line opacity="0.2" x1="366.73248741809596" x2="366.73248741809596" y1="0.5" y2="30"/><line opacity="0.2" x1="412.86292634821024" x2="412.86292634821024" y1="0.5" y2="30"/><line opacity="0.2" x1="184.4718289881675" x2="184.4718289881675" y1="0.5" y2="30"/><line opacity="0.2" x1="229.38875400836588" x2="229.38875400836588" y1="0.5" y2="30"/><line opacity="0.2" x1="341.2943697417534" x2="341.2943697417534" y1="0.5" y2="30"/><line opacity="0.2" x1="217.69754181220736" x2="217.69754181220736" y1="0.5" y2="30"/><line opacity="0.2" x1="546.3756282725827" x2="546.3756282725827" y1="0.5" y2="30"/><line opacity="0.2" x1="288.92935963847447" x2="288.92935963847447" y1="0.5" y2="30"/><line opacity="0.2" x1="403.98883713049815" x2="403.98883713049815" y1="0.5" y2="30"/><line opacity="0.2" x1="416.3186083385504" x2="416.3186083385504" y1="0.5" y2="30"/><line opacity="0.2" x1="296.4517029950016" x2="296.4517029950016" y1="0.5" y2="30"/><line opacity="0.2" x1="360.0822735394119" x2="360.0822735394119" y1="0.5" y2="30"/><line opacity="0.2" x1="439.99973441577146" x2="439.99973441577146" y1="0.5" y2="30"/><line opacity="0.2" x1="383.90563695427124" x2="383.90563695427124" y1="0.5" y2="30"/><line opacity="0.2" x1="273.1522418430516" x2="273.1522418430516" y1="0.5" y2="30"/><line opacity="0.2" x1="288.75913382983435" x2="288.75913382983435" y1="0.5" y2="30"/><line opacity="0.2" x1="259.5295902109287" x2="259.5295902109287" y1="0.5" y2="30"/><line opacity="0.2" x1="438.82083272944413" x2="438.82083272944413" y1="0.5" y2="30"/><line opacity="0.2" x1="379.8198076415416" x2="379.8198076415416" y1="0.5" y2="30"/><line opacity="0.2" x1="297.4235947979254" x2="297.4235947979254" y1="0.5" y2="30"/><line opacity="0.2" x1="281.8176309847542" x2="281.8176309847542" y1="0.5" y2="30"/><line opacity="0.2" x1="427.215837674278" x2="427.215837674278" y1="0.5" y2="30"/><line opacity="0.2" x1="401.8568774927162" x2="401.8568774927162" y1="0.5" y2="30"/><line opacity="0.2" x1="380.4765382044289" x2="380.4765382044289" y1="0.5" y2="30"/><line opacity="0.2" x1="270.01903495995157" x2="270.01903495995157" y1="0.5" y2="30"/><line opacity="0.2" x1="271.0276820449081" x2="271.0276820449081" y1="0.5" y2="30"/><line opacity="0.2" x1="442.8146678587456" x2="442.8146678587456" y1="0.5" y2="30"/><line opacity="0.2" x1="273.9578620217294" x2="273.9578620217294" y1="0.5" y2="30"/><line opacity="0.2" x1="419.19174626006145" x2="419.19174626006145" y1="0.5" y2="30"/><line opacity="0.2" x1="373.3947570565074" x2="373.3947570565074" y1="0.5" y2="30"/><line opacity="0.2" x1="430.48801357075166" x2="430.48801357075166" y1="0.5" y2="30"/><line opacity="0.2" x1="256.7551953945982" x2="256.7551953945982" y1="0.5" y2="30"/><line opacity="0.2" x1="332.11520362974966" x2="332.11520362974966" y1="0.5" y2="30"/><line opacity="0.2" x1="318.2938879076849" x2="318.2938879076849" y1="0.5" y2="30"/><line opacity="0.2" x1="271.0604905488144" x2="271.0604905488144" y1="0.5" y2="30"/><line opacity="0.2" x1="346.6988622670081" x2="346.6988622670081" y1="0.5" y2="30"/><line opacity="0.2" x1="307.1310080106324" x2="307.1310080106324" y1="0.5" y2="30"/><line opacity="0.2" x1="392.60200873843615" x2="392.60200873843615" y1="0.5" y2="30"/><line opacity="0.2" x1="269.26612653323315" x2="269.26612653323315" y1="0.5" y2="30"/><line opacity="0.2" x1="446.58628625080837" x2="446.58628625080837" y1="0.5" y2="30"/><line opacity="0.2" x1="346.44307317767505" x2="346.44307317767505" y1="0.5" y2="30"/><line opacity="0.2" x1="255.5084456269125" x2="255.5084456269125" y1="0.5" y2="30"/><line opacity="0.2" x1="377.9413570124282" x2="377.9413570124282" y1="0.5" y2="30"/><line opacity="0.2" x1="326.781334828298" x2="326.781334828298" y1="0.5" y2="30"/><line opacity="0.2" x1="430.1478390431013" x2="430.1478390431013" y1="0.5" y2="30"/><line opacity="0.2" x1="399.76914305082573" x2="399.76914305082573" y1="0.5" y2="30"/><line opacity="0.2" x1="359.52068848542757" x2="359.52068848542757" y1="0.5" y2="30"/><line opacity="0.2" x1="193.8471517311069" x2="193.8471517311069" y1="0.5" y2="30"/><line opacity="0.2" x1="371.81729248061873" x2="371.81729248061873" y1="0.5" y2="30"/><line opacity="0.2" x1="165.77674241217335" x2="165.77674241217335" y1="0.5" y2="30"/><line opacity="0.2" x1="395.5843791787659" x2="395.5843791787659" y1="0.5" y2="30"/><line opacity="0.2" x1="408.0242438332957" x2="408.0242438332957" y1="0.5" y2="30"/><line opacity="0.2" x1="296.4773653451484" x2="296.4773653451484" y1="0.5" y2="30"/><line opacity="0.2" x1="309.85754493692053" x2="309.85754493692053" y1="0.5" y2="30"/><line opacity="0.2" x1="274.1009742020862" x2="274.1009742020862" y1="0.5" y2="30"/><line opacity="0.2" x1="317.31961101256525" x2="317.31961101256525" y1="0.5" y2="30"/><line opacity="0.2" x1="261.54334111964647" x2="261.54334111964647" y1="0.5" y2="30"/><line opacity="0.2" x1="395.01196409002125" x2="395.01196409002125" y1="0.5" y2="30"/><line opacity="0.2" x1="303.2448218968958" x2="303.2448218968958" y1="0.5" y2="30"/><line opacity="0.2" x1="208.02122168926238" x2="208.02122168926238" y1="0.5" y2="30"/><line opacity="0.2" x1="312.42794252831527" x2="312.42794252831527" y1="0.5" y2="30"/><line opacity="0.2" x1="374.8358787602429" x2="374.8358787602429" y1="0.5" y2="30"/><line opacity="0.2" x1="388.66989427492206" x2="388.66989427492206" y1="0.5" y2="30"/><line opacity="0.2" x1="191.75810493157496" x2="191.75810493157496" y1="0.5" y2="30"/><line opacity="0.2" x1="303.6707393122868" x2="303.6707393122868" y1="0.5" y2="30"/><line opacity="0.2" x1="240.58149188445674" x2="240.58149188445674" y1="0.5" y2="30"/><line opacity="0.2" x1="409.0171086249678" x2="409.0171086249678" y1="0.5" y2="30"/><line opacity="0.2" x1="310.01349207150986" x2="310.01349207150986" y1="0.5" y2="30"/><line opacity="0.2" x1="230.49061487938397" x2="230.49061487938397" y1="0.5" y2="30"/><line opacity="0.2" x1="318.4283806125761" x2="318.4283806125761" y1="0.5" y2="30"/><line opacity="0.2" x1="369.67341669531106" x2="369.67341669531106" y1="0.5" y2="30"/><line opacity="0.2" x1="395.1447461214712" x2="395.1447461214712" y1="0.5" y2="30"/><line opacity="0.2" x1="392.756559767261" x2="392.756559767261" y1="0.5" y2="30"/><line opacity="0.2" x1="349.37828586952315" x2="349.37828586952315" y1="0.5" y2="30"/><line opacity="0.2" x1="313.5467924730009" x2="313.5467924730009" y1="0.5" y2="30"/><line opacity="0.2" x1="443.53948711392906" x2="443.53948711392906" y1="0.5" y2="30"/><line opacity="0.2" x1="317.2304333844023" x2="317.2304333844023" y1="0.5" y2="30"/><line opacity="0.2" x1="266.12378016637126" x2="266.12378016637126" y1="0.5" y2="30"/><line opacity="0.2" x1="266.72001842718527" x2="266.72001842718527" y1="0.5" y2="30"/><line opacity="0.2" x1="350.87214864513396" x2="350.87214864513396" y1="0.5" y2="30"/><line opacity="0.2" x1="267.09761935268415" x2="267.09761935268415" y1="0.5" y2="30"/><line opacity="0.2" x1="371.29838857283295" x2="371.29838857283295" y1="0.5" y2="30"/><line opacity="0.2" x1="227.232002646404" x2="227.232002646404" y1="0.5" y2="30"/><line opacity="0.2" x1="307.1637358649819" x2="307.1637358649819" y1="0.5" y2="30"/><line opacity="0.2" x1="317.05977260951505" x2="317.05977260951505" y1="0.5" y2="30"/><line opacity="0.2" x1="259.27488027180397" x2="259.27488027180397" y1="0.5" y2="30"/><line opacity="0.2" x1="429.38334973742616" x2="429.38334973742616" y1="0.5" y2="30"/><line opacity="0.2" x1="322.02477754817613" x2="322.02477754817613" y1="0.5" y2="30"/><line opacity="0.2" x1="264.0516388948746" x2="264.0516388948746" y1="0.5" y2="30"/><line opacity="0.2" x1="312.8458185603018" x2="312.8458185603018" y1="0.5" y2="30"/><line opacity="0.2" x1="294.41663848116457" x2="294.41663848116457" y1="0.5" y2="30"/><line opacity="0.2" x1="308.3067698376526" x2="308.3067698376526" y1="0.5" y2="30"/><line opacity="0.2" x1="295.3604288574287" x2="295.3604288574287" y1="0.5" y2="30"/><line opacity="0.2" x1="259.89917330368314" x2="259.89917330368314" y1="0.5" y2="30"/><line opacity="0.2" x1="356.97284734108075" x2="356.97284734108075" y1="0.5" y2="30"/><line opacity="0.2" x1="430.9816559809934" x2="430.9816559809934" y1="0.5" y2="30"/><line opacity="0.2" x1="479.14839589431165" x2="479.14839589431165" y1="0.5" y2="30"/><line opacity="0.2" x1="246.18575851465343" x2="246.18575851465343" y1="0.5" y2="30"/><line opacity="0.2" x1="312.6442712183691" x2="312.6442712183691" y1="0.5" y2="30"/><line opacity="0.2" x1="216.1130618779914" x2="216.1130618779914" y1="0.5" y2="30"/><line opacity="0.2" x1="304.16608311962216" x2="304.16608311962216" y1="0.5" y2="30"/><line opacity="0.2" x1="250.35467675070083" x2="250.35467675070083" y1="0.5" y2="30"/><line opacity="0.2" x1="240.80658866036455" x2="240.80658866036455" y1="0.5" y2="30"/><line opacity="0.2" x1="418.6126884705164" x2="418.6126884705164" y1="0.5" y2="30"/><line opacity="0.2" x1="385.39806798197606" x2="385.39806798197606" y1="0.5" y2="30"/><line opacity="0.2" x1="298.6036277864439" x2="298.6036277864439" y1="0.5" y2="30"/><line opacity="0.2" x1="406.37836271410276" x2="406.37836271410276" y1="0.5" y2="30"/><line opacity="0.2" x1="328.2586590188625" x2="328.2586590188625" y1="0.5" y2="30"/><line opacity="0.2" x1="314.7627148657948" x2="314.7627148657948" y1="0.5" y2="30"/><line opacity="0.2" x1="227.3188722940094" x2="227.3188722940094" y1="0.5" y2="30"/><line opacity="0.2" x1="442.34262871824376" x2="442.34262871824376" y1="0.5" y2="30"/><line opacity="0.2" x1="344.32291681265133" x2="344.32291681265133" y1="0.5" y2="30"/><line opacity="0.2" x1="321.55529961856143" x2="321.55529961856143" y1="0.5" y2="30"/><line opacity="0.2" x1="413.04857195632337" x2="413.04857195632337" y1="0.5" y2="30"/><line opacity="0.2" x1="301.6335392181141" x2="301.6335392181141" y1="0.5" y2="30"/><line opacity="0.2" x1="274.2586049149144" x2="274.2586049149144" y1="0.5" y2="30"/><line opacity="0.2" x1="337.7453573507229" x2="337.7453573507229" y1="0.5" y2="30"/><line opacity="0.2" x1="358.9400550520046" x2="358.9400550520046" y1="0.5" y2="30"/><line opacity="0.2" x1="449.46484648083276" x2="449.46484648083276" y1="0.5" y2="30"/><line opacity="0.2" x1="339.53176618334436" x2="339.53176618334436" y1="0.5" y2="30"/><line opacity="0.2" x1="294.9004935190075" x2="294.9004935190075" y1="0.5" y2="30"/><line opacity="0.2" x1="276.7437312546999" x2="276.7437312546999" y1="0.5" y2="30"/><line opacity="0.2" x1="340.3724229553476" x2="340.3724229553476" y1="0.5" y2="30"/><line opacity="0.2" x1="357.7750227355727" x2="357.7750227355727" y1="0.5" y2="30"/><line opacity="0.2" x1="162.0219314632162" x2="162.0219314632162" y1="0.5" y2="30"/><line opacity="0.2" x1="308.4192000068426" x2="308.4192000068426" y1="0.5" y2="30"/><line opacity="0.2" x1="313.678641105349" x2="313.678641105349" y1="0.5" y2="30"/><line opacity="0.2" x1="428.3988438399864" x2="428.3988438399864" y1="0.5" y2="30"/><line opacity="0.2" x1="311.2098455570277" x2="311.2098455570277" y1="0.5" y2="30"/><line opacity="0.2" x1="392.6801208050039" x2="392.6801208050039" y1="0.5" y2="30"/><line opacity="0.2" x1="444.0942929000759" x2="444.0942929000759" y1="0.5" y2="30"/><line opacity="0.2" x1="400.5889021012894" x2="400.5889021012894" y1="0.5" y2="30"/><line opacity="0.2" x1="312.7842498542125" x2="312.7842498542125" y1="0.5" y2="30"/><line opacity="0.2" x1="199.4992323242555" x2="199.4992323242555" y1="0.5" y2="30"/><line opacity="0.2" x1="306.68481636002673" x2="306.68481636002673" y1="0.5" y2="30"/><line opacity="0.2" x1="291.3817518990552" x2="291.3817518990552" y1="0.5" y2="30"/><line opacity="0.2" x1="383.395516307388" x2="383.395516307388" y1="0.5" y2="30"/><line opacity="0.2" x1="325.1964518859714" x2="325.1964518859714" y1="0.5" y2="30"/><line opacity="0.2" x1="279.57095344059894" x2="279.57095344059894" y1="0.5" y2="30"/><line opacity="0.2" x1="349.7796132341956" x2="349.7796132341956" y1="0.5" y2="30"/><line opacity="0.2" x1="291.69862737983954" x2="291.69862737983954" y1="0.5" y2="30"/><line opacity="0.2" x1="314.0359809521195" x2="314.0359809521195" y1="0.5" y2="30"/><line opacity="0.2" x1="326.4262184350576" x2="326.4262184350576" y1="0.5" y2="30"/><line opacity="0.2" x1="299.9344966021116" x2="299.9344966021116" y1="0.5" y2="30"/><line opacity="0.2" x1="366.80391799964326" x2="366.80391799964326" y1="0.5" y2="30"/><line opacity="0.2" x1="346.00526978955315" x2="346.00526978955315" y1="0.5" y2="30"/><line opacity="0.2" x1="319.4029772021206" x2="319.4029772021206" y1="0.5" y2="30"/><line opacity="0.2" x1="384.2713847570626" x2="384.2713847570626" y1="0.5" y2="30"/><line opacity="0.2" x1="347.42034458528343" x2="347.42034458528343" y1="0.5" y2="30"/><line opacity="0.2" x1="226.18597580542172" x2="226.18597580542172" y1="0.5" y2="30"/><line opacity="0.2" x1="412.5748742232154" x2="412.5748742232154" y1="0.5" y2="30"/><line opacity="0.2" x1="305.35085150088213" x2="305.35085150088213" y1="0.5" y2="30"/><line opacity="0.2" x1="437.6700095961297" x2="437.6700095961297" y1="0.5" y2="30"/><line opacity="0.2" x1="266.3535914740041" x2="266.3535914740041" y1="0.5" y2="30"/><line opacity="0.2" x1="287.72560796815117" x2="287.72560796815117" y1="0.5" y2="30"/><line opacity="0.2" x1="343.7367587018526" x2="343.7367587018526" y1="0.5" y2="30"/><line opacity="0.2" x1="362.43816003039854" x2="362.43816003039854" y1="0.5" y2="30"/><line opacity="0.2" x1="362.21436365719035" x2="362.21436365719035" y1="0.5" y2="30"/><line opacity="0.2" x1="211.99022912972958" x2="211.99022912972958" y1="0.5" y2="30"/><line opacity="0.2" x1="380.5568658082934" x2="380.5568658082934" y1="0.5" y2="30"/><line opacity="0.2" x1="445.51041274498664" x2="445.51041274498664" y1="0.5" y2="30"/><line opacity="0.2" x1="285.28394449923616" x2="285.28394449923616" y1="0.5" y2="30"/><line opacity="0.2" x1="317.60915014163214" x2="317.60915014163214" y1="0.5" y2="30"/><line opacity="0.2" x1="195.69574834233913" x2="195.69574834233913" y1="0.5" y2="30"/><line opacity="0.2" x1="268.6076098361489" x2="268.6076098361489" y1="0.5" y2="30"/><line opacity="0.2" x1="283.5586755464736" x2="283.5586755464736" y1="0.5" y2="30"/><line opacity="0.2" x1="440.8087763715974" x2="440.8087763715974" y1="0.5" y2="30"/><line opacity="0.2" x1="441.4394479742076" x2="441.4394479742076" y1="0.5" y2="30"/><line opacity="0.2" x1="223.53917935003082" x2="223.53917935003082" y1="0.5" y2="30"/><line opacity="0.2" x1="233.23082177789775" x2="233.23082177789775" y1="0.5" y2="30"/><line opacity="0.2" x1="283.3383817426473" x2="283.3383817426473" y1="0.5" y2="30"/><line opacity="0.2" x1="295.32848048378787" x2="295.32848048378787" y1="0.5" y2="30"/><line opacity="0.2" x1="284.7593179704989" x2="284.7593179704989" y1="0.5" y2="30"/><line opacity="0.2" x1="322.0111292911144" x2="322.0111292911144" y1="0.5" y2="30"/><line opacity="0.2" x1="391.40251988137993" x2="391.40251988137993" y1="0.5" y2="30"/><line opacity="0.2" x1="488.20871113613913" x2="488.20871113613913" y1="0.5" y2="30"/><line opacity="0.2" x1="354.3440375755885" x2="354.3440375755885" y1="0.5" y2="30"/><line opacity="0.2" x1="392.0777319566129" x2="392.0777319566129" y1="0.5" y2="30"/><line opacity="0.2" x1="246.28738319393105" x2="246.28738319393105" y1="0.5" y2="30"/><line opacity="0.2" x1="317.85487734368587" x2="317.85487734368587" y1="0.5" y2="30"/><line opacity="0.2" x1="369.73385018854674" x2="369.73385018854674" y1="0.5" y2="30"/><line opacity="0.2" x1="303.3352744793353" x2="303.3352744793353" y1="0.5" y2="30"/><line opacity="0.2" x1="437.18009078679546" x2="437.18009078679546" y1="0.5" y2="30"/><line opacity="0.2" x1="223.4689129913183" x2="223.4689129913183" y1="0.5" y2="30"/><line opacity="0.2" x1="389.5544750487942" x2="389.5544750487942" y1="0.5" y2="30"/><line opacity="0.2" x1="255.98135290116747" x2="255.98135290116747" y1="0.5" y2="30"/><line opacity="0.2" x1="407.5758007292706" x2="407.5758007292706" y1="0.5" y2="30"/><line opacity="0.2" x1="323.22450076723607" x2="323.22450076723607" y1="0.5" y2="30"/><line opacity="0.2" x1="281.6645843640058" x2="281.6645843640058" y1="0.5" y2="30"/><line opacity="0.2" x1="134.14254344116915" x2="134.14254344116915" y1="0.5" y2="30"/><line opacity="0.2" x1="281.93876248952" x2="281.93876248952" y1="0.5" y2="30"/><line opacity="0.2" x1="291.03148967314166" x2="291.03148967314166" y1="0.5" y2="30"/><line opacity="0.2" x1="341.8298948455573" x2="341.8298948455573" y1="0.5" y2="30"/><line opacity="0.2" x1="243.86139735754608" x2="243.86139735754608" y1="0.5" y2="30"/><line opacity="0.2" x1="408.1982363645164" x2="408.1982363645164" y1="0.5" y2="30"/><line opacity="0.2" x1="321.0784493395821" x2="321.0784493395821" y1="0.5" y2="30"/><line opacity="0.2" x1="381.957453529253" x2="381.957453529253" y1="0.5" y2="30"/><line opacity="0.2" x1="353.5566346653397" x2="353.5566346653397" y1="0.5" y2="30"/><line opacity="0.2" x1="340.9096613947789" x2="340.9096613947789" y1="0.5" y2="30"/><line opacity="0.2" x1="332.2272377476134" x2="332.2272377476134" y1="0.5" y2="30"/><line opacity="0.2" x1="294.93813093658156" x2="294.93813093658156" y1="0.5" y2="30"/><line opacity="0.2" x1="376.9717372820511" x2="376.9717372820511" y1="0.5" y2="30"/><line opacity="0.2" x1="336.18006796003203" x2="336.18006796003203" y1="0.5" y2="30"/><line opacity="0.2" x1="435.2252237920857" x2="435.2252237920857" y1="0.5" y2="30"/><line opacity="0.2" x1="384.5904373188872" x2="384.5904373188872" y1="0.5" y2="30"/><line opacity="0.2" x1="284.28225094221244" x2="284.28225094221244" y1="0.5" y2="30"/><line opacity="0.2" x1="314.2567240996481" x2="314.2567240996481" y1="0.5" y2="30"/><line opacity="0.2" x1="335.89367976721593" x2="335.89367976721593" y1="0.5" y2="30"/><line opacity="0.2" x1="290.7693339653912" x2="290.7693339653912" y1="0.5" y2="30"/><line opacity="0.2" x1="185.1657554245939" x2="185.1657554245939" y1="0.5" y2="30"/><line opacity="0.2" x1="308.11615799963556" x2="308.11615799963556" y1="0.5" y2="30"/><line opacity="0.2" x1="307.9510599870814" x2="307.9510599870814" y1="0.5" y2="30"/><line opacity="0.2" x1="303.3054378275881" x2="303.3054378275881" y1="0.5" y2="30"/><line opacity="0.2" x1="259.66295603290195" x2="259.66295603290195" y1="0.5" y2="30"/><line opacity="0.2" x1="197.08982932263504" x2="197.08982932263504" y1="0.5" y2="30"/><line opacity="0.2" x1="370.1368673935045" x2="370.1368673935045" y1="0.5" y2="30"/><line opacity="0.2" x1="291.60092802615446" x2="291.60092802615446" y1="0.5" y2="30"/><line opacity="0.2" x1="303.38139552959433" x2="303.38139552959433" y1="0.5" y2="30"/><line opacity="0.2" x1="348.48078447771695" x2="348.48078447771695" y1="0.5" y2="30"/><line opacity="0.2" x1="321.0419719313845" x2="321.0419719313845" y1="0.5" y2="30"/><line opacity="0.2" x1="284.47230579377884" x2="284.47230579377884" y1="0.5" y2="30"/><line opacity="0.2" x1="412.5467606597482" x2="412.5467606597482" y1="0.5" y2="30"/><line opacity="0.2" x1="399.2795507722404" x2="399.2795507722404" y1="0.5" y2="30"/><line opacity="0.2" x1="332.37049030956047" x2="332.37049030956047" y1="0.5" y2="30"/><line opacity="0.2" x1="464.12495826499406" x2="464.12495826499406" y1="0.5" y2="30"/><line opacity="0.2" x1="322.1830700640737" x2="322.1830700640737" y1="0.5" y2="30"/><line opacity="0.2" x1="302.580817460422" x2="302.580817460422" y1="0.5" y2="30"/><line opacity="0.2" x1="211.41267853442008" x2="211.41267853442008" y1="0.5" y2="30"/><line opacity="0.2" x1="292.89101648833235" x2="292.89101648833235" y1="0.5" y2="30"/><line opacity="0.2" x1="222.87880049741602" x2="222.87880049741602" y1="0.5" y2="30"/><line opacity="0.2" x1="382.1644038376935" x2="382.1644038376935" y1="0.5" y2="30"/><line opacity="0.2" x1="338.9830516477404" x2="338.9830516477404" y1="0.5" y2="30"/><line opacity="0.2" x1="404.7153843579105" x2="404.7153843579105" y1="0.5" y2="30"/><line opacity="0.2" x1="393.52369495391264" x2="393.52369495391264" y1="0.5" y2="30"/><line opacity="0.2" x1="267.7636862783633" x2="267.7636862783633" y1="0.5" y2="30"/><line opacity="0.2" x1="379.10285526762243" x2="379.10285526762243" y1="0.5" y2="30"/><line opacity="0.2" x1="314.2375846073183" x2="314.2375846073183" y1="0.5" y2="30"/><line opacity="0.2" x1="370.9987271009537" x2="370.9987271009537" y1="0.5" y2="30"/><line opacity="0.2" x1="401.0776008049067" x2="401.0776008049067" y1="0.5" y2="30"/><line opacity="0.2" x1="291.63501249673294" x2="291.63501249673294" y1="0.5" y2="30"/><line opacity="0.2" x1="343.3593631829423" x2="343.3593631829423" y1="0.5" y2="30"/><line opacity="0.2" x1="403.0674351639523" x2="403.0674351639523" y1="0.5" y2="30"/><line opacity="0.2" x1="272.90735291747325" x2="272.90735291747325" y1="0.5" y2="30"/><line opacity="0.2" x1="307.97170692948043" x2="307.97170692948043" y1="0.5" y2="30"/><line opacity="0.2" x1="222.62120558133083" x2="222.62120558133083" y1="0.5" y2="30"/><line opacity="0.2" x1="417.4205962888873" x2="417.4205962888873" y1="0.5" y2="30"/><line opacity="0.2" x1="323.43022984121365" x2="323.43022984121365" y1="0.5" y2="30"/><line opacity="0.2" x1="355.99393807102723" x2="355.99393807102723" y1="0.5" y2="30"/><line opacity="0.2" x1="331.4594905911251" x2="331.4594905911251" y1="0.5" y2="30"/><line opacity="0.2" x1="294.1719363899284" x2="294.1719363899284" y1="0.5" y2="30"/><line opacity="0.2" x1="331.74550749160824" x2="331.74550749160824" y1="0.5" y2="30"/><line opacity="0.2" x1="174.0221658976307" x2="174.0221658976307" y1="0.5" y2="30"/><line opacity="0.2" x1="268.6781589374005" x2="268.6781589374005" y1="0.5" y2="30"/><line opacity="0.2" x1="265.81118408932167" x2="265.81118408932167" y1="0.5" y2="30"/><line opacity="0.2" x1="286.08660359472435" x2="286.08660359472435" y1="0.5" y2="30"/><line opacity="0.2" x1="228.22560688747316" x2="228.22560688747316" y1="0.5" y2="30"/><line opacity="0.2" x1="344.4126305331379" x2="344.4126305331379" y1="0.5" y2="30"/><line opacity="0.2" x1="402.5279443099579" x2="402.5279443099579" y1="0.5" y2="30"/><line opacity="0.2" x1="292.0436617777666" x2="292.0436617777666" y1="0.5" y2="30"/><line opacity="0.2" x1="311.32242810328205" x2="311.32242810328205" y1="0.5" y2="30"/><line opacity="0.2" x1="418.43217568359796" x2="418.43217568359796" y1="0.5" y2="30"/><line opacity="0.2" x1="293.07915604287246" x2="293.07915604287246" y1="0.5" y2="30"/><line opacity="0.2" x1="246.19892306970988" x2="246.19892306970988" y1="0.5" y2="30"/><line opacity="0.2" x1="351.97687069102045" x2="351.97687069102045" y1="0.5" y2="30"/><line opacity="0.2" x1="311.3896472469048" x2="311.3896472469048" y1="0.5" y2="30"/><line opacity="0.2" x1="267.37054151951924" x2="267.37054151951924" y1="0.5" y2="30"/><line opacity="0.2" x1="434.2809507136283" x2="434.2809507136283" y1="0.5" y2="30"/><line opacity="0.2" x1="354.39044299998767" x2="354.39044299998767" y1="0.5" y2="30"/><line opacity="0.2" x1="295.53531083387827" x2="295.53531083387827" y1="0.5" y2="30"/><line opacity="0.2" x1="325.54374079657214" x2="325.54374079657214" y1="0.5" y2="30"/><line opacity="0.2" x1="361.1968991773854" x2="361.1968991773854" y1="0.5" y2="30"/><line opacity="0.2" x1="413.9351871926423" x2="413.9351871926423" y1="0.5" y2="30"/><line opacity="0.2" x1="300.0624680687424" x2="300.0624680687424" y1="0.5" y2="30"/><line opacity="0.2" x1="343.87586912738243" x2="343.87586912738243" y1="0.5" y2="30"/><line opacity="0.2" x1="207.00443705352245" x2="207.00443705352245" y1="0.5" y2="30"/><line opacity="0.2" x1="175.41613036078846" x2="175.41613036078846" y1="0.5" y2="30"/><line opacity="0.2" x1="320.7251096417697" x2="320.7251096417697" y1="0.5" y2="30"/><line opacity="0.2" x1="301.1508182639911" x2="301.1508182639911" y1="0.5" y2="30"/><line opacity="0.2" x1="185.44365787852624" x2="185.44365787852624" y1="0.5" y2="30"/><line opacity="0.2" x1="281.6907776803313" x2="281.6907776803313" y1="0.5" y2="30"/><line opacity="0.2" x1="331.11491384746154" x2="331.11491384746154" y1="0.5" y2="30"/><line opacity="0.2" x1="507.2476523313453" x2="507.2476523313453" y1="0.5" y2="30"/><line opacity="0.2" x1="277.00136007593585" x2="277.00136007593585" y1="0.5" y2="30"/><line opacity="0.2" x1="339.5470461443036" x2="339.5470461443036" y1="0.5" y2="30"/><line opacity="0.2" x1="418.0660455506502" x2="418.0660455506502" y1="0.5" y2="30"/><line opacity="0.2" x1="293.5944493187919" x2="293.5944493187919" y1="0.5" y2="30"/><line opacity="0.2" x1="406.06602471867757" x2="406.06602471867757" y1="0.5" y2="30"/><line opacity="0.2" x1="365.3649840732413" x2="365.3649840732413" y1="0.5" y2="30"/><line opacity="0.2" x1="369.59882932963114" x2="369.59882932963114" y1="0.5" y2="30"/><line opacity="0.2" x1="172.79686093957253" x2="172.79686093957253" y1="0.5" y2="30"/><line opacity="0.2" x1="467.1983396889038" x2="467.1983396889038" y1="0.5" y2="30"/><line opacity="0.2" x1="275.91216876543143" x2="275.91216876543143" y1="0.5" y2="30"/><line opacity="0.2" x1="232.21417184408006" x2="232.21417184408006" y1="0.5" y2="30"/><line opacity="0.2" x1="438.33483690858736" x2="438.33483690858736" y1="0.5" y2="30"/><line opacity="0.2" x1="255.02015779069626" x2="255.02015779069626" y1="0.5" y2="30"/><line opacity="0.2" x1="433.8322210321045" x2="433.8322210321045" y1="0.5" y2="30"/><line opacity="0.2" x1="400.52720522640675" x2="400.52720522640675" y1="0.5" y2="30"/><line opacity="0.2" x1="308.7759498930377" x2="308.7759498930377" y1="0.5" y2="30"/><line opacity="0.2" x1="274.3716922538005" x2="274.3716922538005" y1="0.5" y2="30"/><line opacity="0.2" x1="433.94490530791904" x2="433.94490530791904" y1="0.5" y2="30"/><line opacity="0.2" x1="301.6338091310529" x2="301.6338091310529" y1="0.5" y2="30"/><line opacity="0.2" x1="389.5125243456788" x2="389.5125243456788" y1="0.5" y2="30"/><line opacity="0.2" x1="348.7553151701862" x2="348.7553151701862" y1="0.5" y2="30"/><line opacity="0.2" x1="163.4556068143302" x2="163.4556068143302" y1="0.5" y2="30"/><line opacity="0.2" x1="390.79017675983994" x2="390.79017675983994" y1="0.5" y2="30"/><line opacity="0.2" x1="340.0954075899172" x2="340.0954075899172" y1="0.5" y2="30"/><line opacity="0.2" x1="419.4132167339956" x2="419.4132167339956" y1="0.5" y2="30"/><line opacity="0.2" x1="82.2612660491924" x2="82.2612660491924" y1="0.5" y2="30"/><line opacity="0.2" x1="307.4833098705606" x2="307.4833098705606" y1="0.5" y2="30"/><line opacity="0.2" x1="238.69860690307365" x2="238.69860690307365" y1="0.5" y2="30"/><line opacity="0.2" x1="331.3900322116157" x2="331.3900322116157" y1="0.5" y2="30"/><line opacity="0.2" x1="303.38156542832166" x2="303.38156542832166" y1="0.5" y2="30"/><line opacity="0.2" x1="385.52553618477674" x2="385.52553618477674" y1="0.5" y2="30"/><line opacity="0.2" x1="271.4177950300672" x2="271.4177950300672" y1="0.5" y2="30"/><line opacity="0.2" x1="388.2519616978393" x2="388.2519616978393" y1="0.5" y2="30"/><line opacity="0.2" x1="382.31975032490817" x2="382.31975032490817" y1="0.5" y2="30"/><line opacity="0.2" x1="368.9469559157723" x2="368.9469559157723" y1="0.5" y2="30"/><line opacity="0.2" x1="364.18355340496805" x2="364.18355340496805" y1="0.5" y2="30"/><line opacity="0.2" x1="332.65476514218267" x2="332.65476514218267" y1="0.5" y2="30"/><line opacity="0.2" x1="505.2660013220386" x2="505.2660013220386" y1="0.5" y2="30"/><line opacity="0.2" x1="270.8404222648206" x2="270.8404222648206" y1="0.5" y2="30"/><line opacity="0.2" x1="319.13745719538866" x2="319.13745719538866" y1="0.5" y2="30"/><line opacity="0.2" x1="300.9671249697354" x2="300.9671249697354" y1="0.5" y2="30"/><line opacity="0.2" x1="267.21049533521887" x2="267.21049533521887" y1="0.5" y2="30"/><line opacity="0.2" x1="451.9535873962818" x2="451.9535873962818" y1="0.5" y2="30"/><line opacity="0.2" x1="349.77497700054556" x2="349.77497700054556" y1="0.5" y2="30"/><line opacity="0.2" x1="295.08501510454914" x2="295.08501510454914" y1="0.5" y2="30"/><line opacity="0.2" x1="442.7783352792351" x2="442.7783352792351" y1="0.5" y2="30"/><line opacity="0.2" x1="336.6471651512428" x2="336.6471651512428" y1="0.5" y2="30"/><line opacity="0.2" x1="263.6334106247062" x2="263.6334106247062" y1="0.5" y2="30"/><line opacity="0.2" x1="257.4799944994927" x2="257.4799944994927" y1="0.5" y2="30"/><line opacity="0.2" x1="222.2956172429079" x2="222.2956172429079" y1="0.5" y2="30"/><line opacity="0.2" x1="198.67537386964608" x2="198.67537386964608" y1="0.5" y2="30"/><line opacity="0.2" x1="362.21046773919437" x2="362.21046773919437" y1="0.5" y2="30"/><line opacity="0.2" x1="283.0102208876359" x2="283.0102208876359" y1="0.5" y2="30"/><line opacity="0.2" x1="313.2654526905194" x2="313.2654526905194" y1="0.5" y2="30"/><line opacity="0.2" x1="428.7538953447958" x2="428.7538953447958" y1="0.5" y2="30"/><line opacity="0.2" x1="445.404016501191" x2="445.404016501191" y1="0.5" y2="30"/><line opacity="0.2" x1="228.38929291095303" x2="228.38929291095303" y1="0.5" y2="30"/><line opacity="0.2" x1="509.6853335642079" x2="509.6853335642079" y1="0.5" y2="30"/><line opacity="0.2" x1="535.1192072569877" x2="535.1192072569877" y1="0.5" y2="30"/><line opacity="0.2" x1="282.95812431206775" x2="282.95812431206775" y1="0.5" y2="30"/><line opacity="0.2" x1="312.600687813529" x2="312.600687813529" y1="0.5" y2="30"/><line opacity="0.2" x1="291.38743536492797" x2="291.38743536492797" y1="0.5" y2="30"/><line opacity="0.2" x1="412.5155003560515" x2="412.5155003560515" y1="0.5" y2="30"/><line opacity="0.2" x1="279.57261432247367" x2="279.57261432247367" y1="0.5" y2="30"/><line opacity="0.2" x1="309.71166477251694" x2="309.71166477251694" y1="0.5" y2="30"/><line opacity="0.2" x1="278.75614496755657" x2="278.75614496755657" y1="0.5" y2="30"/><line opacity="0.2" x1="319.7817838027022" x2="319.7817838027022" y1="0.5" y2="30"/><line opacity="0.2" x1="218.1226405819929" x2="218.1226405819929" y1="0.5" y2="30"/><line opacity="0.2" x1="291.06917927018793" x2="291.06917927018793" y1="0.5" y2="30"/><line opacity="0.2" x1="256.7580919688296" x2="256.7580919688296" y1="0.5" y2="30"/><line opacity="0.2" x1="222.52035102005647" x2="222.52035102005647" y1="0.5" y2="30"/><line opacity="0.2" x1="347.1575765784851" x2="347.1575765784851" y1="0.5" y2="30"/><line opacity="0.2" x1="286.93446060745305" x2="286.93446060745305" y1="0.5" y2="30"/><line opacity="0.2" x1="324.9736988012381" x2="324.9736988012381" y1="0.5" y2="30"/><line opacity="0.2" x1="414.12951489740925" x2="414.12951489740925" y1="0.5" y2="30"/><line opacity="0.2" x1="465.25873837119144" x2="465.25873837119144" y1="0.5" y2="30"/><line opacity="0.2" x1="290.5667315053687" x2="290.5667315053687" y1="0.5" y2="30"/><line opacity="0.2" x1="383.68093959637804" x2="383.68093959637804" y1="0.5" y2="30"/><line opacity="0.2" x1="272.74147798350367" x2="272.74147798350367" y1="0.5" y2="30"/><line opacity="0.2" x1="300.68102018385724" x2="300.68102018385724" y1="0.5" y2="30"/><line opacity="0.2" x1="485.46912222513134" x2="485.46912222513134" y1="0.5" y2="30"/><line opacity="0.2" x1="372.0067906919797" x2="372.0067906919797" y1="0.5" y2="30"/><line opacity="0.2" x1="187.5311675504525" x2="187.5311675504525" y1="0.5" y2="30"/><line opacity="0.2" x1="387.275721157307" x2="387.275721157307" y1="0.5" y2="30"/><line opacity="0.2" x1="293.71089884596813" x2="293.71089884596813" y1="0.5" y2="30"/><line opacity="0.2" x1="350.2530455833909" x2="350.2530455833909" y1="0.5" y2="30"/><line opacity="0.2" x1="240.9785654892779" x2="240.9785654892779" y1="0.5" y2="30"/><line opacity="0.2" x1="309.8733555449594" x2="309.8733555449594" y1="0.5" y2="30"/><line opacity="0.2" x1="312.49999546064277" x2="312.49999546064277" y1="0.5" y2="30"/><line opacity="0.2" x1="290.02910027934917" x2="290.02910027934917" y1="0.5" y2="30"/><line opacity="0.2" x1="341.8600450515121" x2="341.8600450515121" y1="0.5" y2="30"/><line opacity="0.2" x1="367.919417671945" x2="367.919417671945" y1="0.5" y2="30"/><line opacity="0.2" x1="466.05497601288266" x2="466.05497601288266" y1="0.5" y2="30"/><line opacity="0.2" x1="309.97804343548955" x2="309.97804343548955" y1="0.5" y2="30"/><line opacity="0.2" x1="341.34933286295217" x2="341.34933286295217" y1="0.5" y2="30"/><line opacity="0.2" x1="341.3791034481735" x2="341.3791034481735" y1="0.5" y2="30"/><line opacity="0.2" x1="268.9398162636465" x2="268.9398162636465" y1="0.5" y2="30"/><line opacity="0.2" x1="261.8815679254774" x2="261.8815679254774" y1="0.5" y2="30"/><line opacity="0.2" x1="252.98266316701645" x2="252.98266316701645" y1="0.5" y2="30"/><line opacity="0.2" x1="304.2240276414269" x2="304.2240276414269" y1="0.5" y2="30"/><line opacity="0.2" x1="388.39598797939016" x2="388.39598797939016" y1="0.5" y2="30"/><line opacity="0.2" x1="269.4617008358799" x2="269.4617008358799" y1="0.5" y2="30"/><line opacity="0.2" x1="257.8292774264426" x2="257.8292774264426" y1="0.5" y2="30"/><line opacity="0.2" x1="452.47556386551827" x2="452.47556386551827" y1="0.5" y2="30"/><line opacity="0.2" x1="365.2307282182623" x2="365.2307282182623" y1="0.5" y2="30"/><line opacity="0.2" x1="435.9347201117422" x2="435.9347201117422" y1="0.5" y2="30"/><line opacity="0.2" x1="454.2485520030391" x2="454.2485520030391" y1="0.5" y2="30"/><line opacity="0.2" x1="447.60423919148917" x2="447.60423919148917" y1="0.5" y2="30"/><line opacity="0.2" x1="297.6175074881048" x2="297.6175074881048" y1="0.5" y2="30"/><line opacity="0.2" x1="298.2668725516494" x2="298.2668725516494" y1="0.5" y2="30"/><line opacity="0.2" x1="293.884882768558" x2="293.884882768558" y1="0.5" y2="30"/><line opacity="0.2" x1="185.60537219016774" x2="185.60537219016774" y1="0.5" y2="30"/><line opacity="0.2" x1="304.13084567597457" x2="304.13084567597457" y1="0.5" y2="30"/><line opacity="0.2" x1="337.0023080399264" x2="337.0023080399264" y1="0.5" y2="30"/><line opacity="0.2" x1="405.8079116654935" x2="405.8079116654935" y1="0.5" y2="30"/><line opacity="0.2" x1="350.38359937709447" x2="350.38359937709447" y1="0.5" y2="30"/><line opacity="0.2" x1="373.760384141168" x2="373.760384141168" y1="0.5" y2="30"/><line opacity="0.2" x1="327.0806070546063" x2="327.0806070546063" y1="0.5" y2="30"/><line opacity="0.2" x1="354.95032566526726" x2="354.95032566526726" y1="0.5" y2="30"/><line opacity="0.2" x1="308.97635768174706" x2="308.97635768174706" y1="0.5" y2="30"/><line opacity="0.2" x1="301.6702949871013" x2="301.6702949871013" y1="0.5" y2="30"/><line opacity="0.2" x1="406.08354272908446" x2="406.08354272908446" y1="0.5" y2="30"/><line opacity="0.2" x1="183.7278289760673" x2="183.7278289760673" y1="0.5" y2="30"/><line opacity="0.2" x1="350.55980418118725" x2="350.55980418118725" y1="0.5" y2="30"/><line opacity="0.2" x1="380.3776640872821" x2="380.3776640872821" y1="0.5" y2="30"/><line opacity="0.2" x1="353.5563823050244" x2="353.5563823050244" y1="0.5" y2="30"/><line opacity="0.2" x1="532.1561294726946" x2="532.1561294726946" y1="0.5" y2="30"/><line opacity="0.2" x1="381.81386028502965" x2="381.81386028502965" y1="0.5" y2="30"/><line opacity="0.2" x1="426.21647316183777" x2="426.21647316183777" y1="0.5" y2="30"/><line opacity="0.2" x1="365.2658356908712" x2="365.2658356908712" y1="0.5" y2="30"/><line opacity="0.2" x1="349.8376111255443" x2="349.8376111255443" y1="0.5" y2="30"/><line opacity="0.2" x1="347.85778164936386" x2="347.85778164936386" y1="0.5" y2="30"/><line opacity="0.2" x1="519.5282135793591" x2="519.5282135793591" y1="0.5" y2="30"/><line opacity="0.2" x1="395.6990938926481" x2="395.6990938926481" y1="0.5" y2="30"/><line opacity="0.2" x1="419.6501014256834" x2="419.6501014256834" y1="0.5" y2="30"/><line opacity="0.2" x1="256.5567596219647" x2="256.5567596219647" y1="0.5" y2="30"/><line opacity="0.2" x1="352.5296809294088" x2="352.5296809294088" y1="0.5" y2="30"/><line opacity="0.2" x1="244.11172683324696" x2="244.11172683324696" y1="0.5" y2="30"/><line opacity="0.2" x1="400.65705470410813" x2="400.65705470410813" y1="0.5" y2="30"/><line opacity="0.2" x1="260.65124719110463" x2="260.65124719110463" y1="0.5" y2="30"/><line opacity="0.2" x1="453.47873630046575" x2="453.47873630046575" y1="0.5" y2="30"/><line opacity="0.2" x1="332.4141947363167" x2="332.4141947363167" y1="0.5" y2="30"/><line opacity="0.2" x1="435.74520111457946" x2="435.74520111457946" y1="0.5" y2="30"/><line opacity="0.2" x1="352.1671848256336" x2="352.1671848256336" y1="0.5" y2="30"/><line opacity="0.2" x1="293.55800038387616" x2="293.55800038387616" y1="0.5" y2="30"/><line opacity="0.2" x1="451.07673563909475" x2="451.07673563909475" y1="0.5" y2="30"/><line opacity="0.2" x1="309.3776266269008" x2="309.3776266269008" y1="0.5" y2="30"/><line opacity="0.2" x1="327.92309779989813" x2="327.92309779989813" y1="0.5" y2="30"/><line opacity="0.2" x1="234.2303577476453" x2="234.2303577476453" y1="0.5" y2="30"/><line opacity="0.2" x1="393.2487014065229" x2="393.2487014065229" y1="0.5" y2="30"/><line opacity="0.2" x1="434.991859891171" x2="434.991859891171" y1="0.5" y2="30"/><line opacity="0.2" x1="295.12014607257976" x2="295.12014607257976" y1="0.5" y2="30"/><line opacity="0.2" x1="297.4888462844259" x2="297.4888462844259" y1="0.5" y2="30"/><line opacity="0.2" x1="256.06495674294354" x2="256.06495674294354" y1="0.5" y2="30"/><line opacity="0.2" x1="343.4700270368051" x2="343.4700270368051" y1="0.5" y2="30"/><line opacity="0.2" x1="321.3509290777746" x2="321.3509290777746" y1="0.5" y2="30"/><line opacity="0.2" x1="190.40021442639525" x2="190.40021442639525" y1="0.5" y2="30"/><line opacity="0.2" x1="381.7469804008863" x2="381.7469804008863" y1="0.5" y2="30"/><line opacity="0.2" x1="194.68398033878378" x2="194.68398033878378" y1="0.5" y2="30"/><line opacity="0.2" x1="381.1530171536026" x2="381.1530171536026" y1="0.5" y2="30"/><line opacity="0.2" x1="329.43518043404106" x2="329.43518043404106" y1="0.5" y2="30"/><line opacity="0.2" x1="218.71884369696463" x2="218.71884369696463" y1="0.5" y2="30"/><line opacity="0.2" x1="384.0596538528598" x2="384.0596538528598" y1="0.5" y2="30"/><line opacity="0.2" x1="320.5674072334221" x2="320.5674072334221" y1="0.5" y2="30"/><line opacity="0.2" x1="440.38261769331575" x2="440.38261769331575" y1="0.5" y2="30"/><line opacity="0.2" x1="154.53166982102226" x2="154.53166982102226" y1="0.5" y2="30"/><line opacity="0.2" x1="20" x2="20" y1="0.5" y2="30"/><line opacity="0.2" x1="351.64946494334083" x2="351.64946494334083" y1="0.5" y2="30"/><line opacity="0.2" x1="303.2295085735573" x2="303.2295085735573" y1="0.5" y2="30"/><line opacity="0.2" x1="285.064019600334" x2="285.064019600334" y1="0.5" y2="30"/><line opacity="0.2" x1="347.25826290652583" x2="347.25826290652583" y1="0.5" y2="30"/><line opacity="0.2" x1="214.6276207362926" x2="214.6276207362926" y1="0.5" y2="30"/><line opacity="0.2" x1="221.5209089274323" x2="221.5209089274323" y1="0.5" y2="30"/><line opacity="0.2" x1="346.55359448750716" x2="346.55359448750716" y1="0.5" y2="30"/><line opacity="0.2" x1="331.450690102878" x2="331.450690102878" y1="0.5" y2="30"/><line opacity="0.2" x1="350.04611927517925" x2="350.04611927517925" y1="0.5" y2="30"/><line opacity="0.2" x1="516.0398809127588" x2="516.0398809127588" y1="0.5" y2="30"/><line opacity="0.2" x1="297.9802860455633" x2="297.9802860455633" y1="0.5" y2="30"/><line opacity="0.2" x1="161.79509598306282" x2="161.79509598306282" y1="0.5" y2="30"/><line opacity="0.2" x1="321.62152215726434" x2="321.62152215726434" y1="0.5" y2="30"/><line opacity="0.2" x1="386.1369122328848" x2="386.1369122328848" y1="0.5" y2="30"/><line opacity="0.2" x1="253.38679704170772" x2="253.38679704170772" y1="0.5" y2="30"/><line opacity="0.2" x1="425.20530476013295" x2="425.20530476013295" y1="0.5" y2="30"/><line opacity="0.2" x1="341.79396922762976" x2="341.79396922762976" y1="0.5" y2="30"/><line opacity="0.2" x1="309.84126449920484" x2="309.84126449920484" y1="0.5" y2="30"/><line opacity="0.2" x1="257.11518055402786" x2="257.11518055402786" y1="0.5" y2="30"/><line opacity="0.2" x1="210.4338599292902" x2="210.4338599292902" y1="0.5" y2="30"/><line opacity="0.2" x1="281.79393198134215" x2="281.79393198134215" y1="0.5" y2="30"/><line opacity="0.2" x1="277.8320193618467" x2="277.8320193618467" y1="0.5" y2="30"/><line opacity="0.2" x1="339.28145249293493" x2="339.28145249293493" y1="0.5" y2="30"/><line opacity="0.2" x1="475.77340677700664" x2="475.77340677700664" y1="0.5" y2="30"/><line opacity="0.2" x1="318.72440163516666" x2="318.72440163516666" y1="0.5" y2="30"/><line opacity="0.2" x1="345.0329063262191" x2="345.0329063262191" y1="0.5" y2="30"/><line opacity="0.2" x1="241.63735119560786" x2="241.63735119560786" y1="0.5" y2="30"/><line opacity="0.2" x1="204.7560375574902" x2="204.7560375574902" y1="0.5" y2="30"/><line opacity="0.2" x1="385.0238378664294" x2="385.0238378664294" y1="0.5" y2="30"/><line opacity="0.2" x1="262.15629318812313" x2="262.15629318812313" y1="0.5" y2="30"/><line opacity="0.2" x1="262.93269875032536" x2="262.93269875032536" y1="0.5" y2="30"/><line opacity="0.2" x1="298.7696901905601" x2="298.7696901905601" y1="0.5" y2="30"/><line opacity="0.2" x1="281.50658950525224" x2="281.50658950525224" y1="0.5" y2="30"/><line opacity="0.2" x1="297.8483111825704" x2="297.8483111825704" y1="0.5" y2="30"/><line opacity="0.2" x1="403.66652300850075" x2="403.66652300850075" y1="0.5" y2="30"/><line opacity="0.2" x1="288.11632393756014" x2="288.11632393756014" y1="0.5" y2="30"/><line opacity="0.2" x1="310.0691019800073" x2="310.0691019800073" y1="0.5" y2="30"/><line opacity="0.2" x1="316.69000257853673" x2="316.69000257853673" y1="0.5" y2="30"/><line opacity="0.2" x1="131.18437050088932" x2="131.18437050088932" y1="0.5" y2="30"/><line opacity="0.2" x1="292.41050576318844" x2="292.41050576318844" y1="0.5" y2="30"/><line opacity="0.2" x1="262.25869585194175" x2="262.25869585194175" y1="0.5" y2="30"/><line opacity="0.2" x1="301.3807185311891" x2="301.3807185311891" y1="0.5" y2="30"/><line opacity="0.2" x1="417.5247274602911" x2="417.5247274602911" y1="0.5" y2="30"/><line opacity="0.2" x1="284.1420970739127" x2="284.1420970739127" y1="0.5" y2="30"/><line opacity="0.2" x1="266.15496936334785" x2="266.15496936334785" y1="0.5" y2="30"/><line opacity="0.2" x1="301.5053672308203" x2="301.5053672308203" y1="0.5" y2="30"/><line opacity="0.2" x1="270.34696173558336" x2="270.34696173558336" y1="0.5" y2="30"/><line opacity="0.2" x1="397.6127783128198" x2="397.6127783128198" y1="0.5" y2="30"/><line opacity="0.2" x1="318.0628933509115" x2="318.0628933509115" y1="0.5" y2="30"/><line opacity="0.2" x1="365.9391428186323" x2="365.9391428186323" y1="0.5" y2="30"/><line opacity="0.2" x1="344.1657175104548" x2="344.1657175104548" y1="0.5" y2="30"/><line opacity="0.2" x1="201.82855482142753" x2="201.82855482142753" y1="0.5" y2="30"/><line opacity="0.2" x1="289.31633652128244" x2="289.31633652128244" y1="0.5" y2="30"/><line opacity="0.2" x1="303.27251925581805" x2="303.27251925581805" y1="0.5" y2="30"/><line opacity="0.2" x1="225.45173360108586" x2="225.45173360108586" y1="0.5" y2="30"/><line opacity="0.2" x1="237.94681601748474" x2="237.94681601748474" y1="0.5" y2="30"/><line opacity="0.2" x1="358.4201955193283" x2="358.4201955193283" y1="0.5" y2="30"/><line opacity="0.2" x1="166.68836136521443" x2="166.68836136521443" y1="0.5" y2="30"/><line opacity="0.2" x1="406.27878705233394" x2="406.27878705233394" y1="0.5" y2="30"/><line opacity="0.2" x1="323.79170624366475" x2="323.79170624366475" y1="0.5" y2="30"/><line opacity="0.2" x1="271.0893633147994" x2="271.0893633147994" y1="0.5" y2="30"/><line opacity="0.2" x1="313.1072982833678" x2="313.1072982833678" y1="0.5" y2="30"/><line opacity="0.2" x1="416.2256839372591" x2="416.2256839372591" y1="0.5" y2="30"/><line opacity="0.2" x1="374.5952660529053" x2="374.5952660529053" y1="0.5" y2="30"/><line opacity="0.2" x1="308.7502078289942" x2="308.7502078289942" y1="0.5" y2="30"/><line opacity="0.2" x1="386.9522110781891" x2="386.9522110781891" y1="0.5" y2="30"/><line opacity="0.2" x1="233.60647000791744" x2="233.60647000791744" y1="0.5" y2="30"/><line opacity="0.2" x1="282.93072543902883" x2="282.93072543902883" y1="0.5" y2="30"/><line opacity="0.2" x1="226.04667159486334" x2="226.04667159486334" y1="0.5" y2="30"/><line opacity="0.2" x1="149.09462320947537" x2="149.09462320947537" y1="0.5" y2="30"/><line opacity="0.2" x1="332.4475258619049" x2="332.4475258619049" y1="0.5" y2="30"/><line opacity="0.2" x1="379.100725440707" x2="379.100725440707" y1="0.5" y2="30"/><line opacity="0.2" x1="291.45961371618574" x2="291.45961371618574" y1="0.5" y2="30"/><line opacity="0.2" x1="255.25198574525572" x2="255.25198574525572" y1="0.5" y2="30"/><line opacity="0.2" x1="279.0605060694868" x2="279.0605060694868" y1="0.5" y2="30"/><line opacity="0.2" x1="295.38262197127096" x2="295.38262197127096" y1="0.5" y2="30"/><line opacity="0.2" x1="341.7175178095485" x2="341.7175178095485" y1="0.5" y2="30"/><line opacity="0.2" x1="355.409835995337" x2="355.409835995337" y1="0.5" y2="30"/><line opacity="0.2" x1="400.26414220241963" x2="400.26414220241963" y1="0.5" y2="30"/><line opacity="0.2" x1="247.8089510612947" x2="247.8089510612947" y1="0.5" y2="30"/><line opacity="0.2" x1="388.0218357586056" x2="388.0218357586056" y1="0.5" y2="30"/><line opacity="0.2" x1="195.58808533023625" x2="195.58808533023625" y1="0.5" y2="30"/><line opacity="0.2" x1="376.7537399214136" x2="376.7537399214136" y1="0.5" y2="30"/><line opacity="0.2" x1="437.07148975473933" x2="437.07148975473933" y1="0.5" y2="30"/><line opacity="0.2" x1="308.8753451662632" x2="308.8753451662632" y1="0.5" y2="30"/><line opacity="0.2" x1="528.1107071686456" x2="528.1107071686456" y1="0.5" y2="30"/><line opacity="0.2" x1="216.93521693031894" x2="216.93521693031894" y1="0.5" y2="30"/><line opacity="0.2" x1="290.35981769349337" x2="290.35981769349337" y1="0.5" y2="30"/><line opacity="0.2" x1="481.7724395331588" x2="481.7724395331588" y1="0.5" y2="30"/><line opacity="0.2" x1="511.12938367073554" x2="511.12938367073554" y1="0.5" y2="30"/><line opacity="0.2" x1="283.5762444100677" x2="283.5762444100677" y1="0.5" y2="30"/><line opacity="0.2" x1="211.64405074697044" x2="211.64405074697044" y1="0.5" y2="30"/><line opacity="0.2" x1="397.8235015263211" x2="397.8235015263211" y1="0.5" y2="30"/><line opacity="0.2" x1="158.80635342856277" x2="158.80635342856277" y1="0.5" y2="30"/><line opacity="0.2" x1="332.77721163167166" x2="332.77721163167166" y1="0.5" y2="30"/><line opacity="0.2" x1="620" x2="620" y1="0.5" y2="30"/><line opacity="0.2" x1="426.3185280353969" x2="426.3185280353969" y1="0.5" y2="30"/><line opacity="0.2" x1="397.6215301192693" x2="397.6215301192693" y1="0.5" y2="30"/><line opacity="0.2" x1="323.58907164610184" x2="323.58907164610184" y1="0.5" y2="30"/><line opacity="0.2" x1="290.65716303128664" x2="290.65716303128664" y1="0.5" y2="30"/><line opacity="0.2" x1="387.0175921803525" x2="387.0175921803525" y1="0.5" y2="30"/><line opacity="0.2" x1="434.5475930061081" x2="434.5475930061081" y1="0.5" y2="30"/><line opacity="0.2" x1="374.4205106940985" x2="374.4205106940985" y1="0.5" y2="30"/><line opacity="0.2" x1="297.69281451495425" x2="297.69281451495425" y1="0.5" y2="30"/><line opacity="0.2" x1="310.54504335431085" x2="310.54504335431085" y1="0.5" y2="30"/><line opacity="0.2" x1="211.40328196085787" x2="211.40328196085787" y1="0.5" y2="30"/><line opacity="0.2" x1="337.5420780051816" x2="337.5420780051816" y1="0.5" y2="30"/><line opacity="0.2" x1="363.18267313469414" x2="363.18267313469414" y1="0.5" y2="30"/><line opacity="0.2" x1="384.3688276731638" x2="384.3688276731638" y1="0.5" y2="30"/><line opacity="0.2" x1="301.95901890053716" x2="301.95901890053716" y1="0.5" y2="30"/><line opacity="0.2" x1="223.38055343066088" x2="223.38055343066088" y1="0.5" y2="30"/><line opacity="0.2" x1="286.577636851251" x2="286.577636851251" y1="0.5" y2="30"/><line opacity="0.2" x1="279.3041782518038" x2="279.3041782518038" y1="0.5" y2="30"/><line opacity="0.2" x1="417.721885925616" x2="417.721885925616" y1="0.5" y2="30"/><line opacity="0.2" x1="231.3057462055319" x2="231.3057462055319" y1="0.5" y2="30"/><line opacity="0.2" x1="235.19544970305907" x2="235.19544970305907" y1="0.5" y2="30"/><line opacity="0.2" x1="247.18099378061464" x2="247.18099378061464" y1="0.5" y2="30"/><line opacity="0.2" x1="341.4979861426881" x2="341.4979861426881" y1="0.5" y2="30"/><line opacity="0.2" x1="287.69288100589887" x2="287.69288100589887" y1="0.5" y2="30"/><line opacity="0.2" x1="554.1674041653453" x2="554.1674041653453" y1="0.5" y2="30"/><line opacity="0.2" x1="462.7484397232478" x2="462.7484397232478" y1="0.5" y2="30"/><line opacity="0.2" x1="285.85818033723126" x2="285.85818033723126" y1="0.5" y2="30"/><line opacity="0.2" x1="295.7992295827846" x2="295.7992295827846" y1="0.5" y2="30"/><line opacity="0.2" x1="264.2940509097547" x2="264.2940509097547" y1="0.5" y2="30"/><line opacity="0.2" x1="313.45219907740443" x2="313.45219907740443" y1="0.5" y2="30"/><line opacity="0.2" x1="322.62326426339075" x2="322.62326426339075" y1="0.5" y2="30"/><line opacity="0.2" x1="252.61342416383096" x2="252.61342416383096" y1="0.5" y2="30"/><line opacity="0.2" x1="504.19309754419777" x2="504.19309754419777" y1="0.5" y2="30"/><line opacity="0.2" x1="375.4315031453117" x2="375.4315031453117" y1="0.5" y2="30"/><line opacity="0.2" x1="252.00260325587737" x2="252.00260325587737" y1="0.5" y2="30"/><line opacity="0.2" x1="401.74681732684087" x2="401.74681732684087" y1="0.5" y2="30"/><line opacity="0.2" x1="393.70698512821866" x2="393.70698512821866" y1="0.5" y2="30"/><line opacity="0.2" x1="398.7200711924461" x2="398.7200711924461" y1="0.5" y2="30"/><line opacity="0.2" x1="332.4381947153575" x2="332.4381947153575" y1="0.5" y2="30"/><line opacity="0.2" x1="340.4475094059929" x2="340.4475094059929" y1="0.5" y2="30"/><line opacity="0.2" x1="256.27494866788004" x2="256.27494866788004" y1="0.5" y2="30"/><line opacity="0.2" x1="381.49512767899756" x2="381.49512767899756" y1="0.5" y2="30"/><line opacity="0.2" x1="334.7583421077538" x2="334.7583421077538" y1="0.5" y2="30"/><line opacity="0.2" x1="129.7200392495966" x2="129.7200392495966" y1="0.5" y2="30"/><line opacity="0.2" x1="452.86249602542955" x2="452.86249602542955" y1="0.5" y2="30"/><line opacity="0.2" x1="304.74246285250985" x2="304.74246285250985" y1="0.5" y2="30"/><line opacity="0.2" x1="215.9344771785982" x2="215.9344771785982" y1="0.5" y2="30"/><line opacity="0.2" x1="386.3657909648261" x2="386.3657909648261" y1="0.5" y2="30"/><line opacity="0.2" x1="471.71826727909024" x2="471.71826727909024" y1="0.5" y2="30"/><line opacity="0.2" x1="399.95541738592385" x2="399.95541738592385" y1="0.5" y2="30"/><line opacity="0.2" x1="178.13947048327142" x2="178.13947048327142" y1="0.5" y2="30"/><line opacity="0.2" x1="287.9221337461835" x2="287.9221337461835" y1="0.5" y2="30"/><line opacity="0.2" x1="324.78354057013405" x2="324.78354057013405" y1="0.5" y2="30"/><line opacity="0.2" x1="442.5647189404429" x2="442.5647189404429" y1="0.5" y2="30"/><line opacity="0.2" x1="359.94392209012483" x2="359.94392209012483" y1="0.5" y2="30"/><line opacity="0.2" x1="270.62149426549564" x2="270.62149426549564" y1="0.5" y2="30"/><line opacity="0.2" x1="227.61295574036012" x2="227.61295574036012" y1="0.5" y2="30"/><line opacity="0.2" x1="310.9536365411582" x2="310.9536365411582" y1="0.5" y2="30"/><line opacity="0.2" x1="310.68857695042027" x2="310.68857695042027" y1="0.5" y2="30"/><line opacity="0.2" x1="344.09611476318275" x2="344.09611476318275" y1="0.5" y2="30"/><line opacity="0.2" x1="274.08129494833094" x2="274.08129494833094" y1="0.5" y2="30"/><line opacity="0.2" x1="302.1328911806783" x2="302.1328911806783" y1="0.5" y2="30"/><line opacity="0.2" x1="250.8154921277252" x2="250.8154921277252" y1="0.5" y2="30"/><line opacity="0.2" x1="407.2779495172571" x2="407.2779495172571" y1="0.5" y2="30"/><line opacity="0.2" x1="293.6719148144052" x2="293.6719148144052" y1="0.5" y2="30"/><line opacity="0.2" x1="425.0989246286102" x2="425.0989246286102" y1="0.5" y2="30"/><line opacity="0.2" x1="288.08804387565846" x2="288.08804387565846" y1="0.5" y2="30"/><line opacity="0.2" x1="292.07502033962635" x2="292.07502033962635" y1="0.5" y2="30"/><line opacity="0.2" x1="342.22929490450457" x2="342.22929490450457" y1="0.5" y2="30"/><line opacity="0.2" x1="347.06717596822733" x2="347.06717596822733" y1="0.5" y2="30"/><line opacity="0.2" x1="298.5785205392702" x2="298.5785205392702" y1="0.5" y2="30"/><line opacity="0.2" x1="274.3895048059819" x2="274.3895048059819" y1="0.5" y2="30"/><line opacity="0.2" x1="303.2781240915575" x2="303.2781240915575" y1="0.5" y2="30"/><line opacity="0.2" x1="435.33523278512223" x2="435.33523278512223" y1="0.5" y2="30"/><line opacity="0.2" x1="291.93973554333786" x2="291.93973554333786" y1="0.5" y2="30"/><line opacity="0.2" x1="168.3281039579685" x2="168.3281039579685" y1="0.5" y2="30"/><line opacity="0.2" x1="313.72413265938593" x2="313.72413265938593" y1="0.5" y2="30"/><line opacity="0.2" x1="410.05765912769" x2="410.05765912769" y1="0.5" y2="30"/><line opacity="0.2" x1="370.90097346370726" x2="370.90097346370726" y1="0.5" y2="30"/><line opacity="0.2" x1="334.9676296917477" x2="334.9676296917477" y1="0.5" y2="30"/><line opacity="0.2" x1="281.2432856050897" x2="281.2432856050897" y1="0.5" y2="30"/><line opacity="0.2" x1="280.28564337419056" x2="280.28564337419056" y1="0.5" y2="30"/><line opacity="0.2" x1="431.45453341526826" x2="431.45453341526826" y1="0.5" y2="30"/><line opacity="0.2" x1="321.12760581503255" x2="321.12760581503255" y1="0.5" y2="30"/><line opacity="0.2" x1="354.75030846361227" x2="354.75030846361227" y1="0.5" y2="30"/><line opacity="0.2" x1="274.71294723896773" x2="274.71294723896773" y1="0.5" y2="30"/><line opacity="0.2" x1="339.036987324771" x2="339.036987324771" y1="0.5" y2="30"/><line opacity="0.2" x1="193.98080027483368" x2="193.98080027483368" y1="0.5" y2="30"/><line opacity="0.2" x1="285.15969591830867" x2="285.15969591830867" y1="0.5" y2="30"/><line opacity="0.2" x1="336.89796691724496" x2="336.89796691724496" y1="0.5" y2="30"/><line opacity="0.2" x1="174.9925285857676" x2="174.9925285857676" y1="0.5" y2="30"/><line opacity="0.2" x1="431.68342238083125" x2="431.68342238083125" y1="0.5" y2="30"/><line opacity="0.2" x1="295.9335301575864" x2="295.9335301575864" y1="0.5" y2="30"/><line opacity="0.2" x1="322.2469785256466" x2="322.2469785256466" y1="0.5" y2="30"/><line opacity="0.2" x1="356.6029494801559" x2="356.6029494801559" y1="0.5" y2="30"/><line opacity="0.2" x1="275.34554299332075" x2="275.34554299332075" y1="0.5" y2="30"/><line opacity="0.2" x1="265.89527328680595" x2="265.89527328680595" y1="0.5" y2="30"/><line opacity="0.2" x1="353.07827323555824" x2="353.07827323555824" y1="0.5" y2="30"/><line opacity="0.2" x1="392.1106810468739" x2="392.1106810468739" y1="0.5" y2="30"/><line opacity="0.2" x1="336.519544270799" x2="336.519544270799" y1="0.5" y2="30"/><line opacity="0.2" x1="378.6259853425279" x2="378.6259853425279" y1="0.5" y2="30"/><line opacity="0.2" x1="449.98338586533265" x2="449.98338586533265" y1="0.5" y2="30"/><line opacity="0.2" x1="381.75708367748535" x2="381.75708367748535" y1="0.5" y2="30"/><line opacity="0.2" x1="348.79370150293585" x2="348.79370150293585" y1="0.5" y2="30"/><line opacity="0.2" x1="216.2570572227367" x2="216.2570572227367" y1="0.5" y2="30"/><line opacity="0.2" x1="334.66981308073355" x2="334.66981308073355" y1="0.5" y2="30"/><line opacity="0.2" x1="212.40951520742658" x2="212.40951520742658" y1="0.5" y2="30"/><line opacity="0.2" x1="165.85825481236233" x2="165.85825481236233" y1="0.5" y2="30"/><line opacity="0.2" x1="179.07399993329722" x2="179.07399993329722" y1="0.5" y2="30"/><line opacity="0.2" x1="355.7380116230512" x2="355.7380116230512" y1="0.5" y2="30"/><line opacity="0.2" x1="313.1926021489336" x2="313.1926021489336" y1="0.5" y2="30"/><line opacity="0.2" x1="449.39628140033625" x2="449.39628140033625" y1="0.5" y2="30"/><line opacity="0.2" x1="373.1205228805102" x2="373.1205228805102" y1="0.5" y2="30"/><line opacity="0.2" x1="383.19340291831145" x2="383.19340291831145" y1="0.5" y2="30"/><line opacity="0.2" x1="248.72360290989508" x2="248.72360290989508" y1="0.5" y2="30"/><line opacity="0.2" x1="314.1849371514822" x2="314.1849371514822" y1="0.5" y2="30"/><line opacity="0.2" x1="379.05730809642677" x2="379.05730809642677" y1="0.5" y2="30"/><line opacity="0.2" x1="441.1907152492703" x2="441.1907152492703" y1="0.5" y2="30"/><line opacity="0.2" x1="148.82700221900893" x2="148.82700221900893" y1="0.5" y2="30"/><line opacity="0.2" x1="421.21548853854506" x2="421.21548853854506" y1="0.5" y2="30"/><line opacity="0.2" x1="199.1803989465349" x2="199.1803989465349" y1="0.5" y2="30"/><line opacity="0.2" x1="323.1458180158576" x2="323.1458180158576" y1="0.5" y2="30"/><line opacity="0.2" x1="333.01852728074437" x2="333.01852728074437" y1="0.5" y2="30"/><line opacity="0.2" x1="416.7623250973488" x2="416.7623250973488" y1="0.5" y2="30"/><line opacity="0.2" x1="388.378505325359" x2="388.378505325359" y1="0.5" y2="30"/><line opacity="0.2" x1="281.7036459089624" x2="281.7036459089624" y1="0.5" y2="30"/><line opacity="0.2" x1="379.1708138103959" x2="379.1708138103959" y1="0.5" y2="30"/><line opacity="0.2" x1="283.0685513871546" x2="283.0685513871546" y1="0.5" y2="30"/><line opacity="0.2" x1="215.71679189291456" x2="215.71679189291456" y1="0.5" y2="30"/><line opacity="0.2" x1="354.38709346362236" x2="354.38709346362236" y1="0.5" y2="30"/><line opacity="0.2" x1="312.3702902128098" x2="312.3702902128098" y1="0.5" y2="30"/><line opacity="0.2" x1="420.3987670026337" x2="420.3987670026337" y1="0.5" y2="30"/><line opacity="0.2" x1="373.8577250108093" x2="373.8577250108093" y1="0.5" y2="30"/><line opacity="0.2" x1="383.27097146471965" x2="383.27097146471965" y1="0.5" y2="30"/><line opacity="0.2" x1="268.3419887604526" x2="268.3419887604526" y1="0.5" y2="30"/><line opacity="0.2" x1="356.40353680197455" x2="356.40353680197455" y1="0.5" y2="30"/><line opacity="0.2" x1="409.48142332409253" x2="409.48142332409253" y1="0.5" y2="30"/><line opacity="0.2" x1="339.46306769258024" x2="339.46306769258024" y1="0.5" y2="30"/><line opacity="0.2" x1="362.63512935933124" x2="362.63512935933124" y1="0.5" y2="30"/><line opacity="0.2" x1="267.5046483876864" x2="267.5046483876864" y1="0.5" y2="30"/><line opacity="0.2" x1="286.0474533607308" x2="286.0474533607308" y1="0.5" y2="30"/><line opacity="0.2" x1="313.73608805798034" x2="313.73608805798034" y1="0.5" y2="30"/><line opacity="0.2" x1="321.3946659294112" x2="321.3946659294112" y1="0.5" y2="30"/><line opacity="0.2" x1="198.80737145192413" x2="198.80737145192413" y1="0.5" y2="30"/><line opacity="0.2" x1="169.233345261727" x2="169.233345261727" y1="0.5" y2="30"/><line opacity="0.2" x1="344.0450203509679" x2="344.0450203509679" y1="0.5" y2="30"/><line opacity="0.2" x1="185.67378020338356" x2="185.67378020338356" y1="0.5" y2="30"/><line opacity="0.2" x1="387.59655021952005" x2="387.59655021952005" y1="0.5" y2="30"/><line opacity="0.2" x1="250.71126491443243" x2="250.71126491443243" y1="0.5" y2="30"/><line opacity="0.2" x1="404.58422283284733" x2="404.58422283284733" y1="0.5" y2="30"/><line opacity="0.2" x1="328.99628623483164" x2="328.99628623483164" y1="0.5" y2="30"/><line opacity="0.2" x1="335.6639336091698" x2="335.6639336091698" y1="0.5" y2="30"/><line opacity="0.2" x1="375.3433874623998" x2="375.3433874623998" y1="0.5" y2="30"/><line opacity="0.2" x1="448.1031831771044" x2="448.1031831771044" y1="0.5" y2="30"/><line opacity="0.2" x1="419.7940363667484" x2="419.7940363667484" y1="0.5" y2="30"/><line opacity="0.2" x1="307.5788530037087" x2="307.5788530037087" y1="0.5" y2="30"/><line opacity="0.2" x1="261.1875182044167" x2="261.1875182044167" y1="0.5" y2="30"/><line opacity="0.2" x1="366.6124896003111" x2="366.6124896003111" y1="0.5" y2="30"/><line opacity="0.2" x1="547.4350759669246" x2="547.4350759669246" y1="0.5" y2="30"/><line opacity="0.2" x1="167.53097397696587" x2="167.53097397696587" y1="0.5" y2="30"/><line opacity="0.2" x1="357.4966170342297" x2="357.4966170342297" y1="0.5" y2="30"/><line opacity="0.2" x1="359.5752916945356" x2="359.5752916945356" y1="0.5" y2="30"/><line opacity="0.2" x1="400.27371736354235" x2="400.27371736354235" y1="0.5" y2="30"/><line opacity="0.2" x1="307.56946459535766" x2="307.56946459535766" y1="0.5" y2="30"/><line opacity="0.2" x1="366.73542767811045" x2="366.73542767811045" y1="0.5" y2="30"/><line opacity="0.2" x1="402.14574461579946" x2="402.14574461579946" y1="0.5" y2="30"/><line opacity="0.2" x1="328.7356978317016" x2="328.7356978317016" y1="0.5" y2="30"/><line opacity="0.2" x1="331.61173850050903" x2="331.61173850050903" y1="0.5" y2="30"/><line opacity="0.2" x1="304.50780510169903" x2="304.50780510169903" y1="0.5" y2="30"/><line opacity="0.2" x1="363.0224529226451" x2="363.0224529226451" y1="0.5" y2="30"/><line opacity="0.2" x1="328.3772892965979" x2="328.3772892965979" y1="0.5" y2="30"/><line opacity="0.2" x1="281.0224926520466" x2="281.0224926520466" y1="0.5" y2="30"/><line opacity="0.2" x1="259.3450414718713" x2="259.3450414718713" y1="0.5" y2="30"/><line opacity="0.2" x1="330.3266090498338" x2="330.3266090498338" y1="0.5" y2="30"/><line opacity="0.2" x1="289.0587223498271" x2="289.0587223498271" y1="0.5" y2="30"/><line opacity="0.2" x1="269.12313831924973" x2="269.12313831924973" y1="0.5" y2="30"/><line opacity="0.2" x1="414.0766629774642" x2="414.0766629774642" y1="0.5" y2="30"/><line opacity="0.2" x1="327.97601189789856" x2="327.97601189789856" y1="0.5" y2="30"/><line opacity="0.2" x1="372.4739987173222" x2="372.4739987173222" y1="0.5" y2="30"/><line opacity="0.2" x1="251.01934838705517" x2="251.01934838705517" y1="0.5" y2="30"/><line opacity="0.2" x1="317.5919931942848" x2="317.5919931942848" y1="0.5" y2="30"/><line opacity="0.2" x1="365.0869792243925" x2="365.0869792243925" y1="0.5" y2="30"/><line opacity="0.2" x1="283.66107913377203" x2="283.66107913377203" y1="0.5" y2="30"/><line opacity="0.2" x1="222.792903306114" x2="222.792903306114" y1="0.5" y2="30"/><line opacity="0.2" x1="464.67978715829247" x2="464.67978715829247" y1="0.5" y2="30"/><line opacity="0.2" x1="366.0093644504743" x2="366.0093644504743" y1="0.5" y2="30"/><line opacity="0.2" x1="226.94249872969962" x2="226.94249872969962" y1="0.5" y2="30"/><line opacity="0.2" x1="190.71393094670688" x2="190.71393094670688" y1="0.5" y2="30"/><line opacity="0.2" x1="306.6163396536087" x2="306.6163396536087" y1="0.5" y2="30"/><line opacity="0.2" x1="302.0990717928887" x2="302.0990717928887" y1="0.5" y2="30"/><line opacity="0.2" x1="313.4082060059542" x2="313.4082060059542" y1="0.5" y2="30"/><line opacity="0.2" x1="362.2072153797335" x2="362.2072153797335" y1="0.5" y2="30"/><line opacity="0.2" x1="308.48828059775" x2="308.48828059775" y1="0.5" y2="30"/><line opacity="0.2" x1="377.6659951192176" x2="377.6659951192176" y1="0.5" y2="30"/><line opacity="0.2" x1="419.2963077882295" x2="419.2963077882295" y1="0.5" y2="30"/><line opacity="0.2" x1="397.0473189041612" x2="397.0473189041612" y1="0.5" y2="30"/><line opacity="0.2" x1="251.6060130720186" x2="251.6060130720186" y1="0.5" y2="30"/><line opacity="0.2" x1="312.3448751007631" x2="312.3448751007631" y1="0.5" y2="30"/><line opacity="0.2" x1="384.81853859223645" x2="384.81853859223645" y1="0.5" y2="30"/><line opacity="0.2" x1="271.6922610824269" x2="271.6922610824269" y1="0.5" y2="30"/><line opacity="0.2" x1="355.8904732113069" x2="355.8904732113069" y1="0.5" y2="30"/><line opacity="0.2" x1="345.42939229372337" x2="345.42939229372337" y1="0.5" y2="30"/><line opacity="0.2" x1="330.36196107101745" x2="330.36196107101745" y1="0.5" y2="30"/><line opacity="0.2" x1="257.1833806243796" x2="257.1833806243796" y1="0.5" y2="30"/><line opacity="0.2" x1="221.4301028377061" x2="221.4301028377061" y1="0.5" y2="30"/><line opacity="0.2" x1="278.3396325025873" x2="278.3396325025873" y1="0.5" y2="30"/><line opacity="0.2" x1="309.2132848528277" x2="309.2132848528277" y1="0.5" y2="30"/><line opacity="0.2" x1="350.33014446880526" x2="350.33014446880526" y1="0.5" y2="30"/><line opacity="0.2" x1="349.5599119988142" x2="349.5599119988142" y1="0.5" y2="30"/><line opacity="0.2" x1="251.02312095419822" x2="251.02312095419822" y1="0.5" y2="30"/><line opacity="0.2" x1="355.6500213809613" x2="355.6500213809613" y1="0.5" y2="30"/><line opacity="0.2" x1="330.46050625198484" x2="330.46050625198484" y1="0.5" y2="30"/><line opacity="0.2" x1="387.31259996520487" x2="387.31259996520487" y1="0.5" y2="30"/><line opacity="0.2" x1="441.8710112829643" x2="441.8710112829643" y1="0.5" y2="30"/><line opacity="0.2" x1="397.2744919707769" x2="397.2744919707769" y1="0.5" y2="30"/><line opacity="0.2" x1="338.313966949066" x2="338.313966949066" y1="0.5" y2="30"/><line opacity="0.2" x1="344.3821178062145" x2="344.3821178062145" y1="0.5" y2="30"/><line opacity="0.2" x1="310.65615464325856" x2="310.65615464325856" y1="0.5" y2="30"/><line opacity="0.2" x1="262.76187576469" x2="262.76187576469" y1="0.5" y2="30"/><line opacity="0.2" x1="315.63234318827557" x2="315.63234318827557" y1="0.5" y2="30"/><line opacity="0.2" x1="457.78086811038065" x2="457.78086811038065" y1="0.5" y2="30"/><line opacity="0.2" x1="311.5120453377544" x2="311.5120453377544" y1="0.5" y2="30"/><line opacity="0.2" x1="460.6632910085513" x2="460.6632910085513" y1="0.5" y2="30"/><line opacity="0.2" x1="393.8592333099069" x2="393.8592333099069" y1="0.5" y2="30"/><line opacity="0.2" x1="255.3087448287078" x2="255.3087448287078" y1="0.5" y2="30"/><line opacity="0.2" x1="383.0774175295193" x2="383.0774175295193" y1="0.5" y2="30"/><line opacity="0.2" x1="360.7139367177192" x2="360.7139367177192" y1="0.5" y2="30"/><line opacity="0.2" x1="318.5581732874993" x2="318.5581732874993" y1="0.5" y2="30"/><line opacity="0.2" x1="375.60447665367894" x2="375.60447665367894" y1="0.5" y2="30"/><line opacity="0.2" x1="261.3169649006839" x2="261.3169649006839" y1="0.5" y2="30"/><line opacity="0.2" x1="262.7116092446102" x2="262.7116092446102" y1="0.5" y2="30"/><line opacity="0.2" x1="422.1371416777226" x2="422.1371416777226" y1="0.5" y2="30"/><line opacity="0.2" x1="356.6126043267923" x2="356.6126043267923" y1="0.5" y2="30"/><line opacity="0.2" x1="235.32198581553698" x2="235.32198581553698" y1="0.5" y2="30"/><line opacity="0.2" x1="285.07637165095537" x2="285.07637165095537" y1="0.5" y2="30"/><line opacity="0.2" x1="411.6287668627573" x2="411.6287668627573" y1="0.5" y2="30"/><line opacity="0.2" x1="520.1690821936637" x2="520.1690821936637" y1="0.5" y2="30"/><line opacity="0.2" x1="298.0068020513642" x2="298.0068020513642" y1="0.5" y2="30"/><line opacity="0.2" x1="308.80851220209024" x2="308.80851220209024" y1="0.5" y2="30"/><line opacity="0.2" x1="319.90697303239347" x2="319.90697303239347" y1="0.5" y2="30"/><line opacity="0.2" x1="359.6273447764373" x2="359.6273447764373" y1="0.5" y2="30"/><line opacity="0.2" x1="399.5300355254125" x2="399.5300355254125" y1="0.5" y2="30"/></g></svg>