<svg xmlns="http://www.w3.org/2000/svg" xmlns:xlink="http://www.w3.org/1999/xlink" class="plot-d6a7b5" fill="currentColor" font-family="system-ui, sans-serif" font-size="10" text-anchor="middle" width="640" height="60" viewBox="0 0 640 60" style="color: black; background-color: white;"><style>.plot-d6a7b5 {
  display: block;
  background: white;
  height: auto;
  height: intrinsic;
  max-width: 100%;
}
.plot-d6a7b5 text,
.plot-d6a7b5 tspan {
  white-space: pre;
}</style><g aria-label="x-axis tick" fill="none" stroke="currentColor"><path transform="translate(42.43553373991922,30)" d="M0,0L0,6"/><path transform="translate(138.65994724301572,30)" d="M0,0L0,6"/><path transform="translate(234.8843607461122,30)" d="M0,0L0,6"/><path transform="translate(331.10877424920875,30)" d="M0,0L0,6"/><path transform="translate(427.33318775230526,30)" d="M0,0L0,6"/><path transform="translate(523.5576012554017,30)" d="M0,0L0,6"/><path transform="translate(619.7820147584982,30)" d="M0,0L0,6"/></g><g aria-label="x-axis tick label" font-variant="tabular-nums" transform="translate(0,9)"><text y="0.71em" transform="translate(42.43553373991922,30)">−3</text><text y="0.71em" transform="translate(138.65994724301572,30)">−2</text><text y="0.71em" transform="translate(234.8843607461122,30)">−1</text><text y="0.71em" transform="translate(331.10877424920875,30)">0</text><text y="0.71em" transform="translate(427.33318775230526,30)">1</text><text y="0.71em" transform="translate(523.5576012554017,30)">2</text><text y="0.71em" transform="translate(619.7820147584982,30)">3</text></g><g aria-label="tick" stroke="steelblue"><line opacity="0.2" x1="367.76232148809635" x2="367.76232148809635" y1="0.5" y2="30"/><line opacity="0.2" x1="279.2274249885082" x2="279.2274249885082" y1="0.5" y2="30"/><line opacity="0.2" x1="287.88792694576193" x2="287.88792694576193" y1="0.5" y2="30"/><line opacity="0.2" x1="406.4237495882725" x2="406.4237495882725" y1="0.5" y2="30"/><line opacity="0.2" x1="332.8852266710421" x2="332.8852266710421" y1="0.5" y2="30"/><line opacity="0.2" x1="339.32118010809984" x2="339.32118010809984" y1="0.5" y2="30"/><line opacity="0.2" x1="242.412690975508" x2="242.412690975508" y1="0.5" y2="30"/><line opacity="0.2" x1="394.6456056556709" x2="394.6456056556709" y1="0.5" y2="30"/><line opacity="0.2" x1="323.385134735932" x2="323.385134735932" y1="0.5" y2="30"/><line opacity="0.2" x1="394.85854398449044" x2="394.85854398449044" y1="0.5" y2="30"/><line opacity="0.2" x1="205.90239683172538" x2="205.90239683172538" y1="0.5" y2="30"/><line opacity="0.2" x1="287.18683590968834" x2="287.18683590968834" y1="0.5" y2="30"/><line opacity="0.2" x1="285.98315550459097" x2="285.98315550459097" y1="0.5" y2="30"/><line opacity="0.2" x1="336.7452958406361" x2="336.7452958406361" y1="0.5" y2="30"/><line opacity="0.2" x1="263.8306476538852" x2="263.8306476538852" y1="0.5" y2="30"/><line opacity="0.2" x1="292.6083796780195" x2="292.6083796780195" y1="0.5" y2="30"/><line opacity="0.2" x1="250.942170149144" x2="250.942170149144" y1="0.5" y2="30"/><line opacity="0.2" x1="376.17635092013467" x2="376.17635092013467" y1="0.5" y2="30"/><line opacity="0.2" x1="248.59015302343437" x2="248.59015302343437" y1="0.5" y2="30"/><line opacity="0.2" x1="492.015384495327" x2="492.015384495327" y1="0.5" y2="30"/><line opacity="0.2" x1="259.13142371711695" x2="259.13142371711695" y1="0.5" y2="30"/><line opacity="0.2" x1="187.61968838198032" x2="187.61968838198032" y1="0.5" y2="30"/><line opacity="0.2" x1="343.7660228949495" x2="343.7660228949495" y1="0.5" y2="30"/><line opacity="0.2" x1="409.6767142372831" x2="409.6767142372831" y1="0.5" y2="30"/><line opacity="0.2" x1="285.1572382939403" x2="285.1572382939403" y1="0.5" y2="30"/><line opacity="0.2" x1="360.18041711019566" x2="360.18041711019566" y1="0.5" y2="30"/><line opacity="0.2" x1="326.2346806604919" x2="326.2346806604919" y1="0.5" y2="30"/><line opacity="0.2" x1="291.49253428281753" x2="291.49253428281753" y1="0.5" y2="30"/><line opacity="0.2" x1="427.3066834160466" x2="427.3066834160466" y1="0.5" y2="30"/><line opacity="0.2" x1="248.7207487789638" x2="248.7207487789638" y1="0.5" y2="30"/><line opacity="0.2" x1="310.60883568294133" x2="310.60883568294133" y1="0.5" y2="30"/><line opacity="0.2" x1="340.51918026106176" x2="340.51918026106176" y1="0.5" y2="30"/><line opacity="0.2" x1="329.4781136930376" x2="329.4781136930376" y1="0.5" y2="30"/><line opacity="0.2" x1="287.9369932950679" x2="287.9369932950679" y1="0.5" y2="30"/><line opacity="0.2" x1="330.27314547387033" x2="330.27314547387033" y1="0.5" y2="30"/><line opacity="0.2" x1="424.0791776670429" x2="424.0791776670429" y1="0.5" y2="30"/><line opacity="0.2" x1="261.2564881525297" x2="261.2564881525297" y1="0.5" y2="30"/><line opacity="0.2" x1="86.87841045611188" x2="86.87841045611188" y1="0.5" y2="30"/><line opacity="0.2" x1="340.57637796925644" x2="340.57637796925644" y1="0.5" y2="30"/><line opacity="0.2" x1="397.60657912270693" x2="397.60657912270693" y1="0.5" y2="30"/><line opacity="0.2" x1="302.14690903870695" x2="302.14690903870695" y1="0.5" y2="30"/><line opacity="0.2" x1="389.99705793966825" x2="389.99705793966825" y1="0.5" y2="30"/><line opacity="0.2" x1="372.963449079533" x2="372.963449079533" y1="0.5" y2="30"/><line opacity="0.2" x1="420.6342207124871" x2="420.6342207124871" y1="0.5" y2="30"/><line opacity="0.2" x1="417.760485302874" x2="417.760485302874" y1="0.5" y2="30"/><line opacity="0.2" x1="317.33897194197596" x2="317.33897194197596" y1="0.5" y2="30"/><line opacity="0.2" x1="425.7381087997426" x2="425.7381087997426" y1="0.5" y2="30"/><line opacity="0.2" x1="198.9188695872761" x2="198.9188695872761" y1="0.5" y2="30"/><line opacity="0.2" x1="370.62659995051405" x2="370.62659995051405" y1="0.5" y2="30"/><line opacity="0.2" x1="206.31084616362145" x2="206.31084616362145" y1="0.5" y2="30"/><line opacity="0.2" x1="296.68690044820664" x2="296.68690044820664" y1="0.5" y2="30"/><line opacity="0.2" x1="182.0456693625944" x2="182.0456693625944" y1="0.5" y2="30"/><line opacity="0.2" x1="286.8533059320112" x2="286.8533059320112" y1="0.5" y2="30"/><line opacity="0.2" x1="206.30547984080795" x2="206.30547984080795" y1="0.5" y2="30"/><line opacity="0.2" x1="205.94333676633315" x2="205.94333676633315" y1="0.5" y2="30"/><line opacity="0.2" x1="417.46153724205635" x2="417.46153724205635" y1="0.5" y2="30"/><line opacity="0.2" x1="304.3673385383581" x2="304.3673385383581" y1="0.5" y2="30"/><line opacity="0.2" x1="231.57522215188231" x2="231.57522215188231" y1="0.5" y2="30"/><line opacity="0.2" x1="256.453427240668" x2="256.453427240668" y1="0.5" y2="30"/><line opacity="0.2" x1="437.36380036641344" x2="437.36380036641344" y1="0.5" y2="30"/><line opacity="0.2" x1="454.930797459364" x2="454.930797459364" y1="0.5" y2="30"/><line opacity="0.2" x1="424.1647015995838" x2="424.1647015995838" y1="0.5" y2="30"/><line opacity="0.2" x1="201.92088302856354" x2="201.92088302856354" y1="0.5" y2="30"/><line opacity="0.2" x1="356.9985508566247" x2="356.9985508566247" y1="0.5" y2="30"/><line opacity="0.2" x1="207.37192147166374" x2="207.37192147166374" y1="0.5" y2="30"/><line opacity="0.2" x1="393.19716362350175" x2="393.19716362350175" y1="0.5" y2="30"/><line opacity="0.2" x1="376.67600773747785" x2="376.67600773747785" y1="0.5" y2="30"/><line opacity="0.2" x1="216.9926080260153" x2="216.9926080260153" y1="0.5" y2="30"/><line opacity="0.2" x1="197.89971130717953" x2="197.89971130717953" y1="0.5" y2="30"/><line opacity="0.2" x1="332.21517047558416" x2="332.21517047558416" y1="0.5" y2="30"/><line opacity="0.2" x1="306.464997007186" x2="306.464997007186" y1="0.5" y2="30"/><line opacity="0.2" x1="316.9360200534544" x2="316.9360200534544" y1="0.5" y2="30"/><line opacity="0.2" x1="450.842289735738" x2="450.842289735738" y1="0.5" y2="30"/><line opacity="0.2" x1="247.29853820218435" x2="247.29853820218435" y1="0.5" y2="30"/><line opacity="0.2" x1="350.8643047540311" x2="350.8643047540311" y1="0.5" y2="30"/><line opacity="0.2" x1="383.2375804338247" x2="383.2375804338247" y1="0.5" y2="30"/><line opacity="0.2" x1="460.6789510962326" x2="460.6789510962326" y1="0.5" y2="30"/><line opacity="0.2" x1="255.2266926021451" x2="255.2266926021451" y1="0.5" y2="30"/><line opacity="0.2" x1="250.6928636466033" x2="250.6928636466033" y1="0.5" y2="30"/><line opacity="0.2" x1="355.9976461256967" x2="355.9976461256967" y1="0.5" y2="30"/><line opacity="0.2" x1="462.627702908113" x2="462.627702908113" y1="0.5" y2="30"/><line opacity="0.2" x1="187.56802306821263" x2="187.56802306821263" y1="0.5" y2="30"/><line opacity="0.2" x1="214.63721606868188" x2="214.63721606868188" y1="0.5" y2="30"/><line opacity="0.2" x1="332.40034982527936" x2="332.40034982527936" y1="0.5" y2="30"/><line opacity="0.2" x1="190.33427377701568" x2="190.33427377701568" y1="0.5" y2="30"/><line opacity="0.2" x1="455.10296270893065" x2="455.10296270893065" y1="0.5" y2="30"/><line opacity="0.2" x1="371.7905777838267" x2="371.7905777838267" y1="0.5" y2="30"/><line opacity="0.2" x1="278.09568089217686" x2="278.09568089217686" y1="0.5" y2="30"/><line opacity="0.2" x1="296.76281861839635" x2="296.76281861839635" y1="0.5" y2="30"/><line opacity="0.2" x1="309.71896740053165" x2="309.71896740053165" y1="0.5" y2="30"/><line opacity="0.2" x1="347.91258717181785" x2="347.91258717181785" y1="0.5" y2="30"/><line opacity="0.2" x1="357.1422452015502" x2="357.1422452015502" y1="0.5" y2="30"/><line opacity="0.2" x1="299.58587131146214" x2="299.58587131146214" y1="0.5" y2="30"/><line opacity="0.2" x1="163.34295311670823" x2="163.34295311670823" y1="0.5" y2="30"/><line opacity="0.2" x1="412.8037965357896" x2="412.8037965357896" y1="0.5" y2="30"/><line opacity="0.2" x1="302.1454302926454" x2="302.1454302926454" y1="0.5" y2="30"/><line opacity="0.2" x1="297.4324515072657" x2="297.4324515072657" y1="0.5" y2="30"/><line opacity="0.2" x1="381.6490294862416" x2="381.6490294862416" y1="0.5" y2="30"/><line opacity="0.2" x1="457.35849014584124" x2="457.35849014584124" y1="0.5" y2="30"/><line opacity="0.2" x1="384.89434973834994" x2="384.89434973834994" y1="0.5" y2="30"/><line opacity="0.2" x1="485.83875462733306" x2="485.83875462733306" y1="0.5" y2="30"/><line opacity="0.2" x1="303.51821229460853" x2="303.51821229460853" y1="0.5" y2="30"/><line opacity="0.2" x1="390.4810955641855" x2="390.4810955641855" y1="0.5" y2="30"/><line opacity="0.2" x1="221.296838402745" x2="221.296838402745" y1="0.5" y2="30"/><line opacity="0.2" x1="421.8982464499611" x2="421.8982464499611" y1="0.5" y2="30"/><line opacity="0.2" x1="455.12906211226993" x2="455.12906211226993" y1="0.5" y2="30"/><line opacity="0.2" x1="187.42021418782383" x2="187.42021418782383" y1="0.5" y2="30"/><line opacity="0.2" x1="486.42479222934037" x2="486.42479222934037" y1="0.5" y2="30"/><line opacity="0.2" x1="256.3662501810944" x2="256.3662501810944" y1="0.5" y2="30"/><line opacity="0.2" x1="216.6554731287946" x2="216.6554731287946" y1="0.5" y2="30"/><line opacity="0.2" x1="307.18396062602596" x2="307.18396062602596" y1="0.5" y2="30"/><line opacity="0.2" x1="347.3744996766482" x2="347.3744996766482" y1="0.5" y2="30"/><line opacity="0.2" x1="487.0062504885768" x2="487.0062504885768" y1="0.5" y2="30"/><line opacity="0.2" x1="425.4732302752775" x2="425.4732302752775" y1="0.5" y2="30"/><line opacity="0.2" x1="368.3472120113378" x2="368.3472120113378" y1="0.5" y2="30"/><line opacity="0.2" x1="535.2040748165743" x2="535.2040748165743" y1="0.5" y2="30"/><line opacity="0.2" x1="335.2961533033337" x2="335.2961533033337" y1="0.5" y2="30"/><line opacity="0.2" x1="419.1400183163613" x2="419.1400183163613" y1="0.5" y2="30"/><line opacity="0.2" x1="226.10842065125868" x2="226.10842065125868" y1="0.5" y2="30"/><line opacity="0.2" x1="371.28545118009527" x2="371.28545118009527" y1="0.5" y2="30"/><line opacity="0.2" x1="519.8597433556791" x2="519.8597433556791" y1="0.5" y2="30"/><line opacity="0.2" x1="286.0245601310176" x2="286.0245601310176" y1="0.5" y2="30"/><line opacity="0.2" x1="352.9788193063653" x2="352.9788193063653" y1="0.5" y2="30"/><line opacity="0.2" x1="443.6569356979993" x2="443.6569356979993" y1="0.5" y2="30"/><line opacity="0.2" x1="236.86422968627835" x2="236.86422968627835" y1="0.5" y2="30"/><line opacity="0.2" x1="401.37486847152735" x2="401.37486847152735" y1="0.5" y2="30"/><line opacity="0.2" x1="325.9052418484994" x2="325.9052418484994" y1="0.5" y2="30"/><line opacity="0.2" x1="267.98224302028217" x2="267.98224302028217" y1="0.5" y2="30"/><line opacity="0.2" x1="355.597360164733" x2="355.597360164733" y1="0.5" y2="30"/><line opacity="0.2" x1="323.48084995880265" x2="323.48084995880265" y1="0.5" y2="30"/><line opacity="0.2" x1="492.19319771093774" x2="492.19319771093774" y1="0.5" y2="30"/><line opacity="0.2" x1="406.7792791843064" x2="406.7792791843064" y1="0.5" y2="30"/><line opacity="0.2" x1="208.80898665137687" x2="208.80898665137687" y1="0.5" y2="30"/><line opacity="0.2" x1="266.77943326025456" x2="266.77943326025456" y1="0.5" y2="30"/><line opacity="0.2" x1="279.54382133794616" x2="279.54382133794616" y1="0.5" y2="30"/><line opacity="0.2" x1="156.2481861855255" x2="156.2481861855255" y1="0.5" y2="30"/><line opacity="0.2" x1="387.87888126627155" x2="387.87888126627155" y1="0.5" y2="30"/><line opacity="0.2" x1="519.8623569115936" x2="519.8623569115936" y1="0.5" y2="30"/><line opacity="0.2" x1="350.2195203697695" x2="350.2195203697695" y1="0.5" y2="30"/><line opacity="0.2" x1="371.1950632172494" x2="371.1950632172494" y1="0.5" y2="30"/><line opacity="0.2" x1="168.6645441359149" x2="168.6645441359149" y1="0.5" y2="30"/><line opacity="0.2" x1="268.16131859846814" x2="268.16131859846814" y1="0.5" y2="30"/><line opacity="0.2" x1="426.8505036111976" x2="426.8505036111976" y1="0.5" y2="30"/><line opacity="0.2" x1="376.9639407659706" x2="376.9639407659706" y1="0.5" y2="30"/><line opacity="0.2" x1="201.7734543106324" x2="201.7734543106324" y1="0.5" y2="30"/><line opacity="0.2" x1="20" x2="20" y1="0.5" y2="30"/><line opacity="0.2" x1="581.7958139797257" x2="581.7958139797257" y1="0.5" y2="30"/><line opacity="0.2" x1="456.55913950658714" x2="456.55913950658714" y1="0.5" y2="30"/><line opacity="0.2" x1="368.1332124215011" x2="368.1332124215011" y1="0.5" y2="30"/><line opacity="0.2" x1="388.20635573605557" x2="388.20635573605557" y1="0.5" y2="30"/><line opacity="0.2" x1="114.3377011286828" x2="114.3377011286828" y1="0.5" y2="30"/><line opacity="0.2" x1="371.99096565022853" x2="371.99096565022853" y1="0.5" y2="30"/><line opacity="0.2" x1="285.67640946875485" x2="285.67640946875485" y1="0.5" y2="30"/><line opacity="0.2" x1="419.81594400910956" x2="419.81594400910956" y1="0.5" y2="30"/><line opacity="0.2" x1="298.3570378955642" x2="298.3570378955642" y1="0.5" y2="30"/><line opacity="0.2" x1="297.2424607598076" x2="297.2424607598076" y1="0.5" y2="30"/><line opacity="0.2" x1="296.1715760847285" x2="296.1715760847285" y1="0.5" y2="30"/><line opacity="0.2" x1="287.3308981901809" x2="287.3308981901809" y1="0.5" y2="30"/><line opacity="0.2" x1="138.7536270791606" x2="138.7536270791606" y1="0.5" y2="30"/><line opacity="0.2" x1="520.3630234441978" x2="520.3630234441978" y1="0.5" y2="30"/><line opacity="0.2" x1="423.4304508174178" x2="423.4304508174178" y1="0.5" y2="30"/><line opacity="0.2" x1="541.4517843599033" x2="541.4517843599033" y1="0.5" y2="30"/><line opacity="0.2" x1="490.1427024660136" x2="490.1427024660136" y1="0.5" y2="30"/><line opacity="0.2" x1="418.15284486438014" x2="418.15284486438014" y1="0.5" y2="30"/><line opacity="0.2" x1="198.76097386596686" x2="198.76097386596686" y1="0.5" y2="30"/><line opacity="0.2" x1="459.2323617335541" x2="459.2323617335541" y1="0.5" y2="30"/><line opacity="0.2" x1="475.0977148493355" x2="475.0977148493355" y1="0.5" y2="30"/><line opacity="0.2" x1="372.07483611714946" x2="372.07483611714946" y1="0.5" y2="30"/><line opacity="0.2" x1="351.49535614686073" x2="351.49535614686073" y1="0.5" y2="30"/><line opacity="0.2" x1="494.01844542588185" x2="494.01844542588185" y1="0.5" y2="30"/><line opacity="0.2" x1="345.8947731842082" x2="345.8947731842082" y1="0.5" y2="30"/><line opacity="0.2" x1="277.05543533237403" x2="277.05543533237403" y1="0.5" y2="30"/><line opacity="0.2" x1="276.5959202927983" x2="276.5959202927983" y1="0.5" y2="30"/><line opacity="0.2" x1="331.3978543351672" x2="331.3978543351672" y1="0.5" y2="30"/><line opacity="0.2" x1="225.42931854002248" x2="225.42931854002248" y1="0.5" y2="30"/><line opacity="0.2" x1="428.49995251818893" x2="428.49995251818893" y1="0.5" y2="30"/><line opacity="0.2" x1="318.6329532009112" x2="318.6329532009112" y1="0.5" y2="30"/><line opacity="0.2" x1="150.03961225048653" x2="150.03961225048653" y1="0.5" y2="30"/><line opacity="0.2" x1="393.2403444344236" x2="393.2403444344236" y1="0.5" y2="30"/><line opacity="0.2" x1="233.4319782295105" x2="233.4319782295105" y1="0.5" y2="30"/><line opacity="0.2" x1="394.0382251918072" x2="394.0382251918072" y1="0.5" y2="30"/><line opacity="0.2" x1="264.76890160990905" x2="264.76890160990905" y1="0.5" y2="30"/><line opacity="0.2" x1="350.6174428480805" x2="350.6174428480805" y1="0.5" y2="30"/><line opacity="0.2" x1="454.01065151899246" x2="454.01065151899246" y1="0.5" y2="30"/><line opacity="0.2" x1="436.9867001268743" x2="436.9867001268743" y1="0.5" y2="30"/><line opacity="0.2" x1="116.3849671773233" x2="116.3849671773233" y1="0.5" y2="30"/><line opacity="0.2" x1="370.2395897845482" x2="370.2395897845482" y1="0.5" y2="30"/><line opacity="0.2" x1="424.07414654160556" x2="424.07414654160556" y1="0.5" y2="30"/><line opacity="0.2" x1="318.7242936583088" x2="318.7242936583088" y1="0.5" y2="30"/><line opacity="0.2" x1="281.8741324662696" x2="281.8741324662696" y1="0.5" y2="30"/><line opacity="0.2" x1="438.11962202719576" x2="438.11962202719576" y1="0.5" y2="30"/><line opacity="0.2" x1="334.050863003635" x2="334.050863003635" y1="0.5" y2="30"/><line opacity="0.2" x1="397.4971367346187" x2="397.4971367346187" y1="0.5" y2="30"/><line opacity="0.2" x1="285.1622696197645" x2="285.1622696197645" y1="0.5" y2="30"/><line opacity="0.2" x1="281.2008954413218" x2="281.2008954413218" y1="0.5" y2="30"/><line opacity="0.2" x1="307.48663529011037" x2="307.48663529011037" y1="0.5" y2="30"/><line opacity="0.2" x1="333.5489303806016" x2="333.5489303806016" y1="0.5" y2="30"/><line opacity="0.2" x1="341.98577379475597" x2="341.98577379475597" y1="0.5" y2="30"/><line opacity="0.2" x1="221.21511951721635" x2="221.21511951721635" y1="0.5" y2="30"/><line opacity="0.2" x1="388.6978037038688" x2="388.6978037038688" y1="0.5" y2="30"/><line opacity="0.2" x1="389.0151654914698" x2="389.0151654914698" y1="0.5" y2="30"/><line opacity="0.2" x1="494.8445966969772" x2="494.8445966969772" y1="0.5" y2="30"/><line opacity="0.2" x1="361.08971193037866" x2="361.08971193037866" y1="0.5" y2="30"/><line opacity="0.2" x1="336.8429064593006" x2="336.8429064593006" y1="0.5" y2="30"/><line opacity="0.2" x1="385.1799486704701" x2="385.1799486704701" y1="0.5" y2="30"/><line opacity="0.2" x1="360.3657902600728" x2="360.3657902600728" y1="0.5" y2="30"/><line opacity="0.2" x1="355.86565576375205" x2="355.86565576375205" y1="0.5" y2="30"/><line opacity="0.2" x1="141.61232696972954" x2="141.61232696972954" y1="0.5" y2="30"/><line opacity="0.2" x1="326.1555624299015" x2="326.1555624299015" y1="0.5" y2="30"/><line opacity="0.2" x1="345.1802733804689" x2="345.1802733804689" y1="0.5" y2="30"/><line opacity="0.2" x1="314.1031209532924" x2="314.1031209532924" y1="0.5" y2="30"/><line opacity="0.2" x1="395.20429895386224" x2="395.20429895386224" y1="0.5" y2="30"/><line opacity="0.2" x1="354.74347468963146" x2="354.74347468963146" y1="0.5" y2="30"/><line opacity="0.2" x1="490.3193319433045" x2="490.3193319433045" y1="0.5" y2="30"/><line opacity="0.2" x1="454.7726079362363" x2="454.7726079362363" y1="0.5" y2="30"/><line opacity="0.2" x1="334.31596074348136" x2="334.31596074348136" y1="0.5" y2="30"/><line opacity="0.2" x1="464.4214811490147" x2="464.4214811490147" y1="0.5" y2="30"/><line opacity="0.2" x1="384.777446678064" x2="384.777446678064" y1="0.5" y2="30"/><line opacity="0.2" x1="445.5376626709868" x2="445.5376626709868" y1="0.5" y2="30"/><line opacity="0.2" x1="180.7926751690493" x2="180.7926751690493" y1="0.5" y2="30"/><line opacity="0.2" x1="316.69700839474194" x2="316.69700839474194" y1="0.5" y2="30"/><line opacity="0.2" x1="287.5159273551237" x2="287.5159273551237" y1="0.5" y2="30"/><line opacity="0.2" x1="337.1758296004009" x2="337.1758296004009" y1="0.5" y2="30"/><line opacity="0.2" x1="413.1787427875723" x2="413.1787427875723" y1="0.5" y2="30"/><line opacity="0.2" x1="354.5196947488607" x2="354.5196947488607" y1="0.5" y2="30"/><line opacity="0.2" x1="298.61735612102996" x2="298.61735612102996" y1="0.5" y2="30"/><line opacity="0.2" x1="432.4104669717001" x2="432.4104669717001" y1="0.5" y2="30"/><line opacity="0.2" x1="458.1583504517027" x2="458.1583504517027" y1="0.5" y2="30"/><line opacity="0.2" x1="301.11266044096175" x2="301.11266044096175" y1="0.5" y2="30"/><line opacity="0.2" x1="532.0616461096484" x2="532.0616461096484" y1="0.5" y2="30"/><line opacity="0.2" x1="326.3271449825032" x2="326.3271449825032" y1="0.5" y2="30"/><line opacity="0.2" x1="489.01554231622646" x2="489.01554231622646" y1="0.5" y2="30"/><line opacity="0.2" x1="358.2495050064367" x2="358.2495050064367" y1="0.5" y2="30"/><line opacity="0.2" x1="380.84192331319343" x2="380.84192331319343" y1="0.5" y2="30"/><line opacity="0.2" x1="474.9227750525032" x2="474.9227750525032" y1="0.5" y2="30"/><line opacity="0.2" x1="422.12295292000334" x2="422.12295292000334" y1="0.5" y2="30"/><line opacity="0.2" x1="372.8893756725205" x2="372.8893756725205" y1="0.5" y2="30"/><line opacity="0.2" x1="244.26028636391695" x2="244.26028636391695" y1="0.5" y2="30"/><line opacity="0.2" x1="454.43644770357787" x2="454.43644770357787" y1="0.5" y2="30"/><line opacity="0.2" x1="406.654875335059" x2="406.654875335059" y1="0.5" y2="30"/><line opacity="0.2" x1="333.61278771728877" x2="333.61278771728877" y1="0.5" y2="30"/><line opacity="0.2" x1="329.8598185020068" x2="329.8598185020068" y1="0.5" y2="30"/><line opacity="0.2" x1="473.5675267473155" x2="473.5675267473155" y1="0.5" y2="30"/><line opacity="0.2" x1="271.346615012835" x2="271.346615012835" y1="0.5" y2="30"/><line opacity="0.2" x1="314.98024228083614" x2="314.98024228083614" y1="0.5" y2="30"/><line opacity="0.2" x1="310.8988863032104" x2="310.8988863032104" y1="0.5" y2="30"/><line opacity="0.2" x1="246.93564082188752" x2="246.93564082188752" y1="0.5" y2="30"/><line opacity="0.2" x1="456.3919339478919" x2="456.3919339478919" y1="0.5" y2="30"/><line opacity="0.2" x1="339.8918124201756" x2="339.8918124201756" y1="0.5" y2="30"/><line opacity="0.2" x1="328.94166845563285" x2="328.94166845563285" y1="0.5" y2="30"/><line opacity="0.2" x1="343.6330480453884" x2="343.6330480453884" y1="0.5" y2="30"/><line opacity="0.2" x1="448.71282491216823" x2="448.71282491216823" y1="0.5" y2="30"/><line opacity="0.2" x1="255.49482170937543" x2="255.49482170937543" y1="0.5" y2="30"/><line opacity="0.2" x1="352.67029028453277" x2="352.67029028453277" y1="0.5" y2="30"/><line opacity="0.2" x1="316.0990141004336" x2="316.0990141004336" y1="0.5" y2="30"/><line opacity="0.2" x1="305.3763549447375" x2="305.3763549447375" y1="0.5" y2="30"/><line opacity="0.2" x1="318.844941703005" x2="318.844941703005" y1="0.5" y2="30"/><line opacity="0.2" x1="220.01204297814564" x2="220.01204297814564" y1="0.5" y2="30"/><line opacity="0.2" x1="461.02295346100453" x2="461.02295346100453" y1="0.5" y2="30"/><line opacity="0.2" x1="326.6430336944577" x2="326.6430336944577" y1="0.5" y2="30"/><line opacity="0.2" x1="211.42601424448762" x2="211.42601424448762" y1="0.5" y2="30"/><line opacity="0.2" x1="315.28942177316276" x2="315.28942177316276" y1="0.5" y2="30"/><line opacity="0.2" x1="415.59370443271524" x2="415.59370443271524" y1="0.5" y2="30"/><line opacity="0.2" x1="223.29886998182127" x2="223.29886998182127" y1="0.5" y2="30"/><line opacity="0.2" x1="310.4005854274565" x2="310.4005854274565" y1="0.5" y2="30"/><line opacity="0.2" x1="329.0079469491713" x2="329.0079469491713" y1="0.5" y2="30"/><line opacity="0.2" x1="404.63883809689855" x2="404.63883809689855" y1="0.5" y2="30"/><line opacity="0.2" x1="302.44042334538" x2="302.44042334538" y1="0.5" y2="30"/><line opacity="0.2" x1="325.79400728651234" x2="325.79400728651234" y1="0.5" y2="30"/><line opacity="0.2" x1="297.57466098194595" x2="297.57466098194595" y1="0.5" y2="30"/><line opacity="0.2" x1="281.0077720105215" x2="281.0077720105215" y1="0.5" y2="30"/><line opacity="0.2" x1="422.7799862112536" x2="422.7799862112536" y1="0.5" y2="30"/><line opacity="0.2" x1="254.40500804459853" x2="254.40500804459853" y1="0.5" y2="30"/><line opacity="0.2" x1="299.1179389880922" x2="299.1179389880922" y1="0.5" y2="30"/><line opacity="0.2" x1="352.5861552526313" x2="352.5861552526313" y1="0.5" y2="30"/><line opacity="0.2" x1="469.24752218388164" x2="469.24752218388164" y1="0.5" y2="30"/><line opacity="0.2" x1="488.3933848462095" x2="488.3933848462095" y1="0.5" y2="30"/><line opacity="0.2" x1="393.9245037121514" x2="393.9245037121514" y1="0.5" y2="30"/><line opacity="0.2" x1="368.982574155466" x2="368.982574155466" y1="0.5" y2="30"/><line opacity="0.2" x1="332.4946663050167" x2="332.4946663050167" y1="0.5" y2="30"/><line opacity="0.2" x1="302.8935481842602" x2="302.8935481842602" y1="0.5" y2="30"/><line opacity="0.2" x1="478.7438034208804" x2="478.7438034208804" y1="0.5" y2="30"/><line opacity="0.2" x1="374.0662172113028" x2="374.0662172113028" y1="0.5" y2="30"/><line opacity="0.2" x1="404.7969635729151" x2="404.7969635729151" y1="0.5" y2="30"/><line opacity="0.2" x1="419.37198474541856" x2="419.37198474541856" y1="0.5" y2="30"/><line opacity="0.2" x1="393.1839436597136" x2="393.1839436597136" y1="0.5" y2="30"/><line opacity="0.2" x1="309.00432346223863" x2="309.00432346223863" y1="0.5" y2="30"/><line opacity="0.2" x1="616.7283463781991" x2="616.7283463781991" y1="0.5" y2="30"/><line opacity="0.2" x1="289.1946792571371" x2="289.1946792571371" y1="0.5" y2="30"/><line opacity="0.2" x1="430.07365603324934" x2="430.07365603324934" y1="0.5" y2="30"/><line opacity="0.2" x1="220.7547929070651" x2="220.7547929070651" y1="0.5" y2="30"/><line opacity="0.2" x1="304.4551491806752" x2="304.4551491806752" y1="0.5" y2="30"/><line opacity="0.2" x1="289.1275747707322" x2="289.1275747707322" y1="0.5" y2="30"/><line opacity="0.2" x1="464.7591885521401" x2="464.7591885521401" y1="0.5" y2="30"/><line opacity="0.2" x1="411.0724537254014" x2="411.0724537254014" y1="0.5" y2="30"/><line opacity="0.2" x1="266.7402850053789" x2="266.7402850053789" y1="0.5" y2="30"/><line opacity="0.2" x1="254.74817441098207" x2="254.74817441098207" y1="0.5" y2="30"/><line opacity="0.2" x1="456.74545009583574" x2="456.74545009583574" y1="0.5" y2="30"/><line opacity="0.2" x1="492.22529579780627" x2="492.22529579780627" y1="0.5" y2="30"/><line opacity="0.2" x1="279.7964018009054" x2="279.7964018009054" y1="0.5" y2="30"/><line opacity="0.2" x1="315.11919537778607" x2="315.11919537778607" y1="0.5" y2="30"/><line opacity="0.2" x1="438.8188154182841" x2="438.8188154182841" y1="0.5" y2="30"/><line opacity="0.2" x1="339.22922355077964" x2="339.22922355077964" y1="0.5" y2="30"/><line opacity="0.2" x1="465.19732028534486" x2="465.19732028534486" y1="0.5" y2="30"/><line opacity="0.2" x1="387.79036044140815" x2="387.79036044140815" y1="0.5" y2="30"/><line opacity="0.2" x1="336.5034608493487" x2="336.5034608493487" y1="0.5" y2="30"/><line opacity="0.2" x1="256.67362912938654" x2="256.67362912938654" y1="0.5" y2="30"/><line opacity="0.2" x1="445.85959573297254" x2="445.85959573297254" y1="0.5" y2="30"/><line opacity="0.2" x1="279.8672956916533" x2="279.8672956916533" y1="0.5" y2="30"/><line opacity="0.2" x1="293.3775664581827" x2="293.3775664581827" y1="0.5" y2="30"/><line opacity="0.2" x1="549.6415360985674" x2="549.6415360985674" y1="0.5" y2="30"/><line opacity="0.2" x1="370.51012575411534" x2="370.51012575411534" y1="0.5" y2="30"/><line opacity="0.2" x1="442.0340770605667" x2="442.0340770605667" y1="0.5" y2="30"/><line opacity="0.2" x1="217.5061232171579" x2="217.5061232171579" y1="0.5" y2="30"/><line opacity="0.2" x1="363.02688013859546" x2="363.02688013859546" y1="0.5" y2="30"/><line opacity="0.2" x1="413.894146831604" x2="413.894146831604" y1="0.5" y2="30"/><line opacity="0.2" x1="537.5511282585338" x2="537.5511282585338" y1="0.5" y2="30"/><line opacity="0.2" x1="459.5574522288554" x2="459.5574522288554" y1="0.5" y2="30"/><line opacity="0.2" x1="433.7961368891938" x2="433.7961368891938" y1="0.5" y2="30"/><line opacity="0.2" x1="377.28378875552824" x2="377.28378875552824" y1="0.5" y2="30"/><line opacity="0.2" x1="302.28981187531156" x2="302.28981187531156" y1="0.5" y2="30"/><line opacity="0.2" x1="509.8164366309736" x2="509.8164366309736" y1="0.5" y2="30"/><line opacity="0.2" x1="232.06842226537682" x2="232.06842226537682" y1="0.5" y2="30"/><line opacity="0.2" x1="364.480949688157" x2="364.480949688157" y1="0.5" y2="30"/><line opacity="0.2" x1="351.45854528733344" x2="351.45854528733344" y1="0.5" y2="30"/><line opacity="0.2" x1="385.23762757797465" x2="385.23762757797465" y1="0.5" y2="30"/><line opacity="0.2" x1="186.0358504240955" x2="186.0358504240955" y1="0.5" y2="30"/><line opacity="0.2" x1="347.20193991787835" x2="347.20193991787835" y1="0.5" y2="30"/><line opacity="0.2" x1="423.46481151012665" x2="423.46481151012665" y1="0.5" y2="30"/><line opacity="0.2" x1="285.51936258009937" x2="285.51936258009937" y1="0.5" y2="30"/><line opacity="0.2" x1="185.31820541449835" x2="185.31820541449835" y1="0.5" y2="30"/><line opacity="0.2" x1="174.1669268713558" x2="174.1669268713558" y1="0.5" y2="30"/><line opacity="0.2" x1="273.0964030583002" x2="273.0964030583002" y1="0.5" y2="30"/><line opacity="0.2" x1="520.7931417972349" x2="520.7931417972349" y1="0.5" y2="30"/><line opacity="0.2" x1="495.20841562940205" x2="495.20841562940205" y1="0.5" y2="30"/><line opacity="0.2" x1="216.42961034879733" x2="216.42961034879733" y1="0.5" y2="30"/><line opacity="0.2" x1="152.43045599573554" x2="152.43045599573554" y1="0.5" y2="30"/><line opacity="0.2" x1="249.68689626503294" x2="249.68689626503294" y1="0.5" y2="30"/><line opacity="0.2" x1="433.21433583024015" x2="433.21433583024015" y1="0.5" y2="30"/><line opacity="0.2" x1="361.16244033801684" x2="361.16244033801684" y1="0.5" y2="30"/><line opacity="0.2" x1="359.31831032359446" x2="359.31831032359446" y1="0.5" y2="30"/><line opacity="0.2" x1="261.5209532380965" x2="261.5209532380965" y1="0.5" y2="30"/><line opacity="0.2" x1="325.9140891847852" x2="325.9140891847852" y1="0.5" y2="30"/><line opacity="0.2" x1="417.48389384603786" x2="417.48389384603786" y1="0.5" y2="30"/><line opacity="0.2" x1="202.65457741595588" x2="202.65457741595588" y1="0.5" y2="30"/><line opacity="0.2" x1="350.43489182214034" x2="350.43489182214034" y1="0.5" y2="30"/><line opacity="0.2" x1="357.69474057834213" x2="357.69474057834213" y1="0.5" y2="30"/><line opacity="0.2" x1="244.05458408965865" x2="244.05458408965865" y1="0.5" y2="30"/><line opacity="0.2" x1="555.2015295026218" x2="555.2015295026218" y1="0.5" y2="30"/><line opacity="0.2" x1="299.0737763349416" x2="299.0737763349416" y1="0.5" y2="30"/><line opacity="0.2" x1="338.46178349118185" x2="338.46178349118185" y1="0.5" y2="30"/><line opacity="0.2" x1="390.7589319399012" x2="390.7589319399012" y1="0.5" y2="30"/><line opacity="0.2" x1="259.99500354063525" x2="259.99500354063525" y1="0.5" y2="30"/><line opacity="0.2" x1="185.6568446961646" x2="185.6568446961646" y1="0.5" y2="30"/><line opacity="0.2" x1="374.27655167698424" x2="374.27655167698424" y1="0.5" y2="30"/><line opacity="0.2" x1="303.49436883229345" x2="303.49436883229345" y1="0.5" y2="30"/><line opacity="0.2" x1="434.5582195420392" x2="434.5582195420392" y1="0.5" y2="30"/><line opacity="0.2" x1="357.1635284772219" x2="357.1635284772219" y1="0.5" y2="30"/><line opacity="0.2" x1="215.70659780384256" x2="215.70659780384256" y1="0.5" y2="30"/><line opacity="0.2" x1="415.0717479731675" x2="415.0717479731675" y1="0.5" y2="30"/><line opacity="0.2" x1="425.15222119745283" x2="425.15222119745283" y1="0.5" y2="30"/><line opacity="0.2" x1="294.23530890830034" x2="294.23530890830034" y1="0.5" y2="30"/><line opacity="0.2" x1="319.2203272463098" x2="319.2203272463098" y1="0.5" y2="30"/><line opacity="0.2" x1="263.0978902901111" x2="263.0978902901111" y1="0.5" y2="30"/><line opacity="0.2" x1="210.25141803158044" x2="210.25141803158044" y1="0.5" y2="30"/><line opacity="0.2" x1="332.32124067404993" x2="332.32124067404993" y1="0.5" y2="30"/><line opacity="0.2" x1="188.8105282854871" x2="188.8105282854871" y1="0.5" y2="30"/><line opacity="0.2" x1="452.8892235239259" x2="452.8892235239259" y1="0.5" y2="30"/><line opacity="0.2" x1="258.1577705290136" x2="258.1577705290136" y1="0.5" y2="30"/><line opacity="0.2" x1="475.03760184894963" x2="475.03760184894963" y1="0.5" y2="30"/><line opacity="0.2" x1="204.28152904236336" x2="204.28152904236336" y1="0.5" y2="30"/><line opacity="0.2" x1="250.07523144307083" x2="250.07523144307083" y1="0.5" y2="30"/><line opacity="0.2" x1="490.7803162227736" x2="490.7803162227736" y1="0.5" y2="30"/><line opacity="0.2" x1="465.8587216789203" x2="465.8587216789203" y1="0.5" y2="30"/><line opacity="0.2" x1="253.1048215726748" x2="253.1048215726748" y1="0.5" y2="30"/><line opacity="0.2" x1="529.0711275877072" x2="529.0711275877072" y1="0.5" y2="30"/><line opacity="0.2" x1="381.4381945052788" x2="381.4381945052788" y1="0.5" y2="30"/><line opacity="0.2" x1="304.0693807809389" x2="304.0693807809389" y1="0.5" y2="30"/><line opacity="0.2" x1="314.01378509451996" x2="314.01378509451996" y1="0.5" y2="30"/><line opacity="0.2" x1="452.4307340109461" x2="452.4307340109461" y1="0.5" y2="30"/><line opacity="0.2" x1="334.3864947968638" x2="334.3864947968638" y1="0.5" y2="30"/><line opacity="0.2" x1="384.56436215842916" x2="384.56436215842916" y1="0.5" y2="30"/><line opacity="0.2" x1="295.3192070904853" x2="295.3192070904853" y1="0.5" y2="30"/><line opacity="0.2" x1="249.49762049228326" x2="249.49762049228326" y1="0.5" y2="30"/><line opacity="0.2" x1="295.0243212084211" x2="295.0243212084211" y1="0.5" y2="30"/><line opacity="0.2" x1="177.22394572556746" x2="177.22394572556746" y1="0.5" y2="30"/><line opacity="0.2" x1="287.54329038046365" x2="287.54329038046365" y1="0.5" y2="30"/><line opacity="0.2" x1="366.3455373129623" x2="366.3455373129623" y1="0.5" y2="30"/><line opacity="0.2" x1="317.45619318723533" x2="317.45619318723533" y1="0.5" y2="30"/><line opacity="0.2" x1="310.8766625714346" x2="310.8766625714346" y1="0.5" y2="30"/><line opacity="0.2" x1="251.40943853663885" x2="251.40943853663885" y1="0.5" y2="30"/><line opacity="0.2" x1="263.5438273487046" x2="263.5438273487046" y1="0.5" y2="30"/><line opacity="0.2" x1="399.5667196181834" x2="399.5667196181834" y1="0.5" y2="30"/><line opacity="0.2" x1="95.90087650109959" x2="95.90087650109959" y1="0.5" y2="30"/><line opacity="0.2" x1="310.42253460357375" x2="310.42253460357375" y1="0.5" y2="30"/><line opacity="0.2" x1="470.8851037100905" x2="470.8851037100905" y1="0.5" y2="30"/><line opacity="0.2" x1="348.16985177640635" x2="348.16985177640635" y1="0.5" y2="30"/><line opacity="0.2" x1="413.59613712993206" x2="413.59613712993206" y1="0.5" y2="30"/><line opacity="0.2" x1="513.3427186588931" x2="513.3427186588931" y1="0.5" y2="30"/><line opacity="0.2" x1="357.8245160249141" x2="357.8245160249141" y1="0.5" y2="30"/><line opacity="0.2" x1="541.2010882099855" x2="541.2010882099855" y1="0.5" y2="30"/><line opacity="0.2" x1="381.53535558270556" x2="381.53535558270556" y1="0.5" y2="30"/><line opacity="0.2" x1="335.06952786732893" x2="335.06952786732893" y1="0.5" y2="30"/><line opacity="0.2" x1="348.54492644774973" x2="348.54492644774973" y1="0.5" y2="30"/><line opacity="0.2" x1="262.76329807843615" x2="262.76329807843615" y1="0.5" y2="30"/><line opacity="0.2" x1="531.2326428778991" x2="531.2326428778991" y1="0.5" y2="30"/><line opacity="0.2" x1="300.9688869436351" x2="300.9688869436351" y1="0.5" y2="30"/><line opacity="0.2" x1="304.4056434607677" x2="304.4056434607677" y1="0.5" y2="30"/><line opacity="0.2" x1="384.61911433234417" x2="384.61911433234417" y1="0.5" y2="30"/><line opacity="0.2" x1="461.35144538652816" x2="461.35144538652816" y1="0.5" y2="30"/><line opacity="0.2" x1="570.5525239350877" x2="570.5525239350877" y1="0.5" y2="30"/><line opacity="0.2" x1="275.61080853545735" x2="275.61080853545735" y1="0.5" y2="30"/><line opacity="0.2" x1="182.7506971169789" x2="182.7506971169789" y1="0.5" y2="30"/><line opacity="0.2" x1="339.8637424678878" x2="339.8637424678878" y1="0.5" y2="30"/><line opacity="0.2" x1="360.0473064159208" x2="360.0473064159208" y1="0.5" y2="30"/><line opacity="0.2" x1="244.78955999435127" x2="244.78955999435127" y1="0.5" y2="30"/><line opacity="0.2" x1="463.0419068186211" x2="463.0419068186211" y1="0.5" y2="30"/><line opacity="0.2" x1="184.54471699880736" x2="184.54471699880736" y1="0.5" y2="30"/><line opacity="0.2" x1="313.95550031102283" x2="313.95550031102283" y1="0.5" y2="30"/><line opacity="0.2" x1="252.64225799116767" x2="252.64225799116767" y1="0.5" y2="30"/><line opacity="0.2" x1="196.26687011595766" x2="196.26687011595766" y1="0.5" y2="30"/><line opacity="0.2" x1="277.2856728341495" x2="277.2856728341495" y1="0.5" y2="30"/><line opacity="0.2" x1="390.6654228503605" x2="390.6654228503605" y1="0.5" y2="30"/><line opacity="0.2" x1="444.0124617293294" x2="444.0124617293294" y1="0.5" y2="30"/><line opacity="0.2" x1="396.798807573034" x2="396.798807573034" y1="0.5" y2="30"/><line opacity="0.2" x1="339.31287414709766" x2="339.31287414709766" y1="0.5" y2="30"/><line opacity="0.2" x1="314.5900704824308" x2="314.5900704824308" y1="0.5" y2="30"/><line opacity="0.2" x1="387.97187666782025" x2="387.97187666782025" y1="0.5" y2="30"/><line opacity="0.2" x1="309.80481569874667" x2="309.80481569874667" y1="0.5" y2="30"/><line opacity="0.2" x1="513.1798589526366" x2="513.1798589526366" y1="0.5" y2="30"/><line opacity="0.2" x1="419.68132611447703" x2="419.68132611447703" y1="0.5" y2="30"/><line opacity="0.2" x1="328.74751591924417" x2="328.74751591924417" y1="0.5" y2="30"/><line opacity="0.2" x1="240.77725159150123" x2="240.77725159150123" y1="0.5" y2="30"/><line opacity="0.2" x1="267.68023762079275" x2="267.68023762079275" y1="0.5" y2="30"/><line opacity="0.2" x1="428.53384186963746" x2="428.53384186963746" y1="0.5" y2="30"/><line opacity="0.2" x1="294.2865918966952" x2="294.2865918966952" y1="0.5" y2="30"/><line opacity="0.2" x1="273.16320814126095" x2="273.16320814126095" y1="0.5" y2="30"/><line opacity="0.2" x1="435.52702870936577" x2="435.52702870936577" y1="0.5" y2="30"/><line opacity="0.2" x1="341.2946832938835" x2="341.2946832938835" y1="0.5" y2="30"/><line opacity="0.2" x1="246.33484177780923" x2="246.33484177780923" y1="0.5" y2="30"/><line opacity="0.2" x1="173.88295260694792" x2="173.88295260694792" y1="0.5" y2="30"/><line opacity="0.2" x1="403.64335088189523" x2="403.64335088189523" y1="0.5" y2="30"/><line opacity="0.2" x1="432.35569581460004" x2="432.35569581460004" y1="0.5" y2="30"/><line opacity="0.2" x1="378.76028856017393" x2="378.76028856017393" y1="0.5" y2="30"/><line opacity="0.2" x1="233.33376105559603" x2="233.33376105559603" y1="0.5" y2="30"/><line opacity="0.2" x1="406.5737895195466" x2="406.5737895195466" y1="0.5" y2="30"/><line opacity="0.2" x1="357.5042068752014" x2="357.5042068752014" y1="0.5" y2="30"/><line opacity="0.2" x1="394.32795798436103" x2="394.32795798436103" y1="0.5" y2="30"/><line opacity="0.2" x1="316.08200503564825" x2="316.08200503564825" y1="0.5" y2="30"/><line opacity="0.2" x1="175.93502216609716" x2="175.93502216609716" y1="0.5" y2="30"/><line opacity="0.2" x1="455.5838074210857" x2="455.5838074210857" y1="0.5" y2="30"/><line opacity="0.2" x1="505.7621776112576" x2="505.7621776112576" y1="0.5" y2="30"/><line opacity="0.2" x1="445.6689219346333" x2="445.6689219346333" y1="0.5" y2="30"/><line opacity="0.2" x1="286.7150884291625" x2="286.7150884291625" y1="0.5" y2="30"/><line opacity="0.2" x1="300.48963739327553" x2="300.48963739327553" y1="0.5" y2="30"/><line opacity="0.2" x1="452.4822600973337" x2="452.4822600973337" y1="0.5" y2="30"/><line opacity="0.2" x1="341.71102943324166" x2="341.71102943324166" y1="0.5" y2="30"/><line opacity="0.2" x1="319.32496623672023" x2="319.32496623672023" y1="0.5" y2="30"/><line opacity="0.2" x1="352.2373627967893" x2="352.2373627967893" y1="0.5" y2="30"/><line opacity="0.2" x1="444.6475534369138" x2="444.6475534369138" y1="0.5" y2="30"/><line opacity="0.2" x1="459.2469569475353" x2="459.2469569475353" y1="0.5" y2="30"/><line opacity="0.2" x1="354.4988197947573" x2="354.4988197947573" y1="0.5" y2="30"/><line opacity="0.2" x1="111.36124851547837" x2="111.36124851547837" y1="0.5" y2="30"/><line opacity="0.2" x1="293.45125612894924" x2="293.45125612894924" y1="0.5" y2="30"/><line opacity="0.2" x1="335.3887405843389" x2="335.3887405843389" y1="0.5" y2="30"/><line opacity="0.2" x1="376.7886957697279" x2="376.7886957697279" y1="0.5" y2="30"/><line opacity="0.2" x1="333.3379663177424" x2="333.3379663177424" y1="0.5" y2="30"/><line opacity="0.2" x1="368.58817184733914" x2="368.58817184733914" y1="0.5" y2="30"/><line opacity="0.2" x1="474.7017720111207" x2="474.7017720111207" y1="0.5" y2="30"/><line opacity="0.2" x1="170.34865664300807" x2="170.34865664300807" y1="0.5" y2="30"/><line opacity="0.2" x1="321.6224328943172" x2="321.6224328943172" y1="0.5" y2="30"/><line opacity="0.2" x1="335.2624775933169" x2="335.2624775933169" y1="0.5" y2="30"/><line opacity="0.2" x1="192.38426545593504" x2="192.38426545593504" y1="0.5" y2="30"/><line opacity="0.2" x1="294.75925859076995" x2="294.75925859076995" y1="0.5" y2="30"/><line opacity="0.2" x1="361.1103004941758" x2="361.1103004941758" y1="0.5" y2="30"/><line opacity="0.2" x1="523.5582415255465" x2="523.5582415255465" y1="0.5" y2="30"/><line opacity="0.2" x1="434.40980366759646" x2="434.40980366759646" y1="0.5" y2="30"/><line opacity="0.2" x1="296.10511502455864" x2="296.10511502455864" y1="0.5" y2="30"/><line opacity="0.2" x1="324.41261036359504" x2="324.41261036359504" y1="0.5" y2="30"/><line opacity="0.2" x1="412.58228938707015" x2="412.58228938707015" y1="0.5" y2="30"/><line opacity="0.2" x1="372.412213140683" x2="372.412213140683" y1="0.5" y2="30"/><line opacity="0.2" x1="444.4422773176303" x2="444.4422773176303" y1="0.5" y2="30"/><line opacity="0.2" x1="391.57984637874665" x2="391.57984637874665" y1="0.5" y2="30"/><line opacity="0.2" x1="436.311082879468" x2="436.311082879468" y1="0.5" y2="30"/><line opacity="0.2" x1="299.866966185307" x2="299.866966185307" y1="0.5" y2="30"/><line opacity="0.2" x1="305.92045848521775" x2="305.92045848521775" y1="0.5" y2="30"/><line opacity="0.2" x1="272.43638275725885" x2="272.43638275725885" y1="0.5" y2="30"/><line opacity="0.2" x1="374.2892559528319" x2="374.2892559528319" y1="0.5" y2="30"/><line opacity="0.2" x1="236.94135063384516" x2="236.94135063384516" y1="0.5" y2="30"/><line opacity="0.2" x1="240.61823011518982" x2="240.61823011518982" y1="0.5" y2="30"/><line opacity="0.2" x1="286.32631960269646" x2="286.32631960269646" y1="0.5" y2="30"/><line opacity="0.2" x1="356.4058753772978" x2="356.4058753772978" y1="0.5" y2="30"/><line opacity="0.2" x1="319.1999877120927" x2="319.1999877120927" y1="0.5" y2="30"/><line opacity="0.2" x1="422.85067441410996" x2="422.85067441410996" y1="0.5" y2="30"/><line opacity="0.2" x1="251.74727109790496" x2="251.74727109790496" y1="0.5" y2="30"/><line opacity="0.2" x1="325.2797916982615" x2="325.2797916982615" y1="0.5" y2="30"/><line opacity="0.2" x1="228.74901122244754" x2="228.74901122244754" y1="0.5" y2="30"/><line opacity="0.2" x1="237.92307100515112" x2="237.92307100515112" y1="0.5" y2="30"/><line opacity="0.2" x1="238.65522336976255" x2="238.65522336976255" y1="0.5" y2="30"/><line opacity="0.2" x1="281.31901932716147" x2="281.31901932716147" y1="0.5" y2="30"/><line opacity="0.2" x1="367.74167150957925" x2="367.74167150957925" y1="0.5" y2="30"/><line opacity="0.2" x1="373.0350631211987" x2="373.0350631211987" y1="0.5" y2="30"/><line opacity="0.2" x1="226.74375234067577" x2="226.74375234067577" y1="0.5" y2="30"/><line opacity="0.2" x1="357.1279315036481" x2="357.1279315036481" y1="0.5" y2="30"/><line opacity="0.2" x1="278.1187525300274" x2="278.1187525300274" y1="0.5" y2="30"/><line opacity="0.2" x1="304.47459459815303" x2="304.47459459815303" y1="0.5" y2="30"/><line opacity="0.2" x1="415.46042590175875" x2="415.46042590175875" y1="0.5" y2="30"/><line opacity="0.2" x1="195.06308714052543" x2="195.06308714052543" y1="0.5" y2="30"/><line opacity="0.2" x1="357.14801170548293" x2="357.14801170548293" y1="0.5" y2="30"/><line opacity="0.2" x1="200.05437069994332" x2="200.05437069994332" y1="0.5" y2="30"/><line opacity="0.2" x1="282.82743888841526" x2="282.82743888841526" y1="0.5" y2="30"/><line opacity="0.2" x1="338.3922949831285" x2="338.3922949831285" y1="0.5" y2="30"/><line opacity="0.2" x1="285.49363123792153" x2="285.49363123792153" y1="0.5" y2="30"/><line opacity="0.2" x1="200.5074627954937" x2="200.5074627954937" y1="0.5" y2="30"/><line opacity="0.2" x1="270.98375924413773" x2="270.98375924413773" y1="0.5" y2="30"/><line opacity="0.2" x1="248.53574091217487" x2="248.53574091217487" y1="0.5" y2="30"/><line opacity="0.2" x1="229.85580197022617" x2="229.85580197022617" y1="0.5" y2="30"/><line opacity="0.2" x1="358.5899703361442" x2="358.5899703361442" y1="0.5" y2="30"/><line opacity="0.2" x1="346.950858060329" x2="346.950858060329" y1="0.5" y2="30"/><line opacity="0.2" x1="274.99319283991287" x2="274.99319283991287" y1="0.5" y2="30"/><line opacity="0.2" x1="411.1506095385164" x2="411.1506095385164" y1="0.5" y2="30"/><line opacity="0.2" x1="469.8214788188341" x2="469.8214788188341" y1="0.5" y2="30"/><line opacity="0.2" x1="310.27382520757436" x2="310.27382520757436" y1="0.5" y2="30"/><line opacity="0.2" x1="333.6128051518447" x2="333.6128051518447" y1="0.5" y2="30"/><line opacity="0.2" x1="369.54255015284235" x2="369.54255015284235" y1="0.5" y2="30"/><line opacity="0.2" x1="279.32436450647975" x2="279.32436450647975" y1="0.5" y2="30"/><line opacity="0.2" x1="409.38399431753885" x2="409.38399431753885" y1="0.5" y2="30"/><line opacity="0.2" x1="347.96127901297336" x2="347.96127901297336" y1="0.5" y2="30"/><line opacity="0.2" x1="501.54928480562216" x2="501.54928480562216" y1="0.5" y2="30"/><line opacity="0.2" x1="401.64260524405086" x2="401.64260524405086" y1="0.5" y2="30"/><line opacity="0.2" x1="378.94597076165707" x2="378.94597076165707" y1="0.5" y2="30"/><line opacity="0.2" x1="285.35443217691403" x2="285.35443217691403" y1="0.5" y2="30"/><line opacity="0.2" x1="288.93790530352203" x2="288.93790530352203" y1="0.5" y2="30"/><line opacity="0.2" x1="350.45052947665926" x2="350.45052947665926" y1="0.5" y2="30"/><line opacity="0.2" x1="230.0254601748261" x2="230.0254601748261" y1="0.5" y2="30"/><line opacity="0.2" x1="379.6321926227758" x2="379.6321926227758" y1="0.5" y2="30"/><line opacity="0.2" x1="418.01991776047345" x2="418.01991776047345" y1="0.5" y2="30"/><line opacity="0.2" x1="497.96965711966124" x2="497.96965711966124" y1="0.5" y2="30"/><line opacity="0.2" x1="139.65020844907616" x2="139.65020844907616" y1="0.5" y2="30"/><line opacity="0.2" x1="379.88715221806723" x2="379.88715221806723" y1="0.5" y2="30"/><line opacity="0.2" x1="568.2243410670599" x2="568.2243410670599" y1="0.5" y2="30"/><line opacity="0.2" x1="359.86805683790226" x2="359.86805683790226" y1="0.5" y2="30"/><line opacity="0.2" x1="433.88343967676377" x2="433.88343967676377" y1="0.5" y2="30"/><line opacity="0.2" x1="297.8013107564896" x2="297.8013107564896" y1="0.5" y2="30"/><line opacity="0.2" x1="292.2782076953895" x2="292.2782076953895" y1="0.5" y2="30"/><line opacity="0.2" x1="328.96171742828716" x2="328.96171742828716" y1="0.5" y2="30"/><line opacity="0.2" x1="389.80581455302075" x2="389.80581455302075" y1="0.5" y2="30"/><line opacity="0.2" x1="283.50951718849785" x2="283.50951718849785" y1="0.5" y2="30"/><line opacity="0.2" x1="404.140422749081" x2="404.140422749081" y1="0.5" y2="30"/><line opacity="0.2" x1="240.43679954394338" x2="240.43679954394338" y1="0.5" y2="30"/><line opacity="0.2" x1="470.02004774002853" x2="470.02004774002853" y1="0.5" y2="30"/><line opacity="0.2" x1="350.5018722823743" x2="350.5018722823743" y1="0.5" y2="30"/><line opacity="0.2" x1="305.2829340438583" x2="305.2829340438583" y1="0.5" y2="30"/><line opacity="0.2" x1="477.24519024367265" x2="477.24519024367265" y1="0.5" y2="30"/><line opacity="0.2" x1="205.5928633514487" x2="205.5928633514487" y1="0.5" y2="30"/><line opacity="0.2" x1="414.5348259528371" x2="414.5348259528371" y1="0.5" y2="30"/><line opacity="0.2" x1="300.8212434562623" x2="300.8212434562623" y1="0.5" y2="30"/><line opacity="0.2" x1="297.809884240973" x2="297.809884240973" y1="0.5" y2="30"/><line opacity="0.2" x1="346.63931405537824" x2="346.63931405537824" y1="0.5" y2="30"/><line opacity="0.2" x1="361.86261460452084" x2="361.86261460452084" y1="0.5" y2="30"/><line opacity="0.2" x1="281.1091716052258" x2="281.1091716052258" y1="0.5" y2="30"/><line opacity="0.2" x1="447.40114535359885" x2="447.40114535359885" y1="0.5" y2="30"/><line opacity="0.2" x1="338.39734433182616" x2="338.39734433182616" y1="0.5" y2="30"/><line opacity="0.2" x1="406.67471360882615" x2="406.67471360882615" y1="0.5" y2="30"/><line opacity="0.2" x1="432.72331897810267" x2="432.72331897810267" y1="0.5" y2="30"/><line opacity="0.2" x1="266.33975577959995" x2="266.33975577959995" y1="0.5" y2="30"/><line opacity="0.2" x1="401.1977418145138" x2="401.1977418145138" y1="0.5" y2="30"/><line opacity="0.2" x1="253.19161347363982" x2="253.19161347363982" y1="0.5" y2="30"/><line opacity="0.2" x1="175.49293943003596" x2="175.49293943003596" y1="0.5" y2="30"/><line opacity="0.2" x1="353.64571982377765" x2="353.64571982377765" y1="0.5" y2="30"/><line opacity="0.2" x1="467.8897920476243" x2="467.8897920476243" y1="0.5" y2="30"/><line opacity="0.2" x1="235.7180286906211" x2="235.7180286906211" y1="0.5" y2="30"/><line opacity="0.2" x1="468.77349344056364" x2="468.77349344056364" y1="0.5" y2="30"/><line opacity="0.2" x1="238.34236307744587" x2="238.34236307744587" y1="0.5" y2="30"/><line opacity="0.2" x1="432.3713797626951" x2="432.3713797626951" y1="0.5" y2="30"/><line opacity="0.2" x1="565.0303773921079" x2="565.0303773921079" y1="0.5" y2="30"/><line opacity="0.2" x1="375.99107667567" x2="375.99107667567" y1="0.5" y2="30"/><line opacity="0.2" x1="356.2495858832156" x2="356.2495858832156" y1="0.5" y2="30"/><line opacity="0.2" x1="225.2170068482909" x2="225.2170068482909" y1="0.5" y2="30"/><line opacity="0.2" x1="423.67805105021995" x2="423.67805105021995" y1="0.5" y2="30"/><line opacity="0.2" x1="450.06312911357827" x2="450.06312911357827" y1="0.5" y2="30"/><line opacity="0.2" x1="383.46580483150507" x2="383.46580483150507" y1="0.5" y2="30"/><line opacity="0.2" x1="470.94316923596705" x2="470.94316923596705" y1="0.5" y2="30"/><line opacity="0.2" x1="384.5239673824745" x2="384.5239673824745" y1="0.5" y2="30"/><line opacity="0.2" x1="333.2089143631765" x2="333.2089143631765" y1="0.5" y2="30"/><line opacity="0.2" x1="179.52462555899984" x2="179.52462555899984" y1="0.5" y2="30"/><line opacity="0.2" x1="366.87595607257066" x2="366.87595607257066" y1="0.5" y2="30"/><line opacity="0.2" x1="216.6241312541937" x2="216.6241312541937" y1="0.5" y2="30"/><line opacity="0.2" x1="318.8755247125306" x2="318.8755247125306" y1="0.5" y2="30"/><line opacity="0.2" x1="215.52625189300448" x2="215.52625189300448" y1="0.5" y2="30"/><line opacity="0.2" x1="425.14909873481884" x2="425.14909873481884" y1="0.5" y2="30"/><line opacity="0.2" x1="232.78502773403827" x2="232.78502773403827" y1="0.5" y2="30"/><line opacity="0.2" x1="217.75338762274058" x2="217.75338762274058" y1="0.5" y2="30"/><line opacity="0.2" x1="287.8064987876779" x2="287.8064987876779" y1="0.5" y2="30"/><line opacity="0.2" x1="160.68258091486865" x2="160.68258091486865" y1="0.5" y2="30"/><line opacity="0.2" x1="238.91088307345007" x2="238.91088307345007" y1="0.5" y2="30"/><line opacity="0.2" x1="435.46813695624144" x2="435.46813695624144" y1="0.5" y2="30"/><line opacity="0.2" x1="199.3606650312052" x2="199.3606650312052" y1="0.5" y2="30"/><line opacity="0.2" x1="316.8064618293022" x2="316.8064618293022" y1="0.5" y2="30"/><line opacity="0.2" x1="262.96899590054187" x2="262.96899590054187" y1="0.5" y2="30"/><line opacity="0.2" x1="176.7620757137636" x2="176.7620757137636" y1="0.5" y2="30"/><line opacity="0.2" x1="344.3938125614679" x2="344.3938125614679" y1="0.5" y2="30"/><line opacity="0.2" x1="534.8820056916278" x2="534.8820056916278" y1="0.5" y2="30"/><line opacity="0.2" x1="300.78957266516693" x2="300.78957266516693" y1="0.5" y2="30"/><line opacity="0.2" x1="427.07083389556067" x2="427.07083389556067" y1="0.5" y2="30"/><line opacity="0.2" x1="257.72006622182226" x2="257.72006622182226" y1="0.5" y2="30"/><line opacity="0.2" x1="239.24853388012417" x2="239.24853388012417" y1="0.5" y2="30"/><line opacity="0.2" x1="391.48990451287324" x2="391.48990451287324" y1="0.5" y2="30"/><line opacity="0.2" x1="198.02596980253173" x2="198.02596980253173" y1="0.5" y2="30"/><line opacity="0.2" x1="304.3982420066658" x2="304.3982420066658" y1="0.5" y2="30"/><line opacity="0.2" x1="361.42948617082084" x2="361.42948617082084" y1="0.5" y2="30"/><line opacity="0.2" x1="473.7928343602129" x2="473.7928343602129" y1="0.5" y2="30"/><line opacity="0.2" x1="410.43696947910144" x2="410.43696947910144" y1="0.5" y2="30"/><line opacity="0.2" x1="200.9792621868943" x2="200.9792621868943" y1="0.5" y2="30"/><line opacity="0.2" x1="460.3525410929925" x2="460.3525410929925" y1="0.5" y2="30"/><line opacity="0.2" x1="401.83860847045287" x2="401.83860847045287" y1="0.5" y2="30"/><line opacity="0.2" x1="378.6041366112416" x2="378.6041366112416" y1="0.5" y2="30"/><line opacity="0.2" x1="420.805049788167" x2="420.805049788167" y1="0.5" y2="30"/><line opacity="0.2" x1="425.5417508473619" x2="425.5417508473619" y1="0.5" y2="30"/><line opacity="0.2" x1="395.11487085854844" x2="395.11487085854844" y1="0.5" y2="30"/><line opacity="0.2" x1="297.531789400993" x2="297.531789400993" y1="0.5" y2="30"/><line opacity="0.2" x1="230.75579939777862" x2="230.75579939777862" y1="0.5" y2="30"/><line opacity="0.2" x1="375.21965010626866" x2="375.21965010626866" y1="0.5" y2="30"/><line opacity="0.2" x1="407.9978236806286" x2="407.9978236806286" y1="0.5" y2="30"/><line opacity="0.2" x1="382.9771119488153" x2="382.9771119488153" y1="0.5" y2="30"/><line opacity="0.2" x1="240.4892237292447" x2="240.4892237292447" y1="0.5" y2="30"/><line opacity="0.2" x1="335.35012132327245" x2="335.35012132327245" y1="0.5" y2="30"/><line opacity="0.2" x1="318.07472617497297" x2="318.07472617497297" y1="0.5" y2="30"/><line opacity="0.2" x1="477.19495154031387" x2="477.19495154031387" y1="0.5" y2="30"/><line opacity="0.2" x1="407.92035968219545" x2="407.92035968219545" y1="0.5" y2="30"/><line opacity="0.2" x1="337.728099177359" x2="337.728099177359" y1="0.5" y2="30"/><line opacity="0.2" x1="200.88497996691805" x2="200.88497996691805" y1="0.5" y2="30"/><line opacity="0.2" x1="268.10415519125706" x2="268.10415519125706" y1="0.5" y2="30"/><line opacity="0.2" x1="319.6431196306425" x2="319.6431196306425" y1="0.5" y2="30"/><line opacity="0.2" x1="368.7261085510245" x2="368.7261085510245" y1="0.5" y2="30"/><line opacity="0.2" x1="339.08465559196355" x2="339.08465559196355" y1="0.5" y2="30"/><line opacity="0.2" x1="432.885958053448" x2="432.885958053448" y1="0.5" y2="30"/><line opacity="0.2" x1="182.69506819107377" x2="182.69506819107377" y1="0.5" y2="30"/><line opacity="0.2" x1="354.8348705569179" x2="354.8348705569179" y1="0.5" y2="30"/><line opacity="0.2" x1="224.59636374234898" x2="224.59636374234898" y1="0.5" y2="30"/><line opacity="0.2" x1="408.502859730333" x2="408.502859730333" y1="0.5" y2="30"/><line opacity="0.2" x1="383.59103984647123" x2="383.59103984647123" y1="0.5" y2="30"/><line opacity="0.2" x1="264.76937621151774" x2="264.76937621151774" y1="0.5" y2="30"/><line opacity="0.2" x1="407.7543104940957" x2="407.7543104940957" y1="0.5" y2="30"/><line opacity="0.2" x1="328.47814355058654" x2="328.47814355058654" y1="0.5" y2="30"/><line opacity="0.2" x1="228.41020703369273" x2="228.41020703369273" y1="0.5" y2="30"/><line opacity="0.2" x1="215.45784553263087" x2="215.45784553263087" y1="0.5" y2="30"/><line opacity="0.2" x1="275.6318685152359" x2="275.6318685152359" y1="0.5" y2="30"/><line opacity="0.2" x1="410.2740801590796" x2="410.2740801590796" y1="0.5" y2="30"/><line opacity="0.2" x1="432.35232611576066" x2="432.35232611576066" y1="0.5" y2="30"/><line opacity="0.2" x1="278.9056470210483" x2="278.9056470210483" y1="0.5" y2="30"/><line opacity="0.2" x1="487.6772485200679" x2="487.6772485200679" y1="0.5" y2="30"/><line opacity="0.2" x1="357.55392704404454" x2="357.55392704404454" y1="0.5" y2="30"/><line opacity="0.2" x1="563.1953306812894" x2="563.1953306812894" y1="0.5" y2="30"/><line opacity="0.2" x1="550.5031490199609" x2="550.5031490199609" y1="0.5" y2="30"/><line opacity="0.2" x1="332.4020165255908" x2="332.4020165255908" y1="0.5" y2="30"/><line opacity="0.2" x1="279.3887011751299" x2="279.3887011751299" y1="0.5" y2="30"/><line opacity="0.2" x1="451.7345681676675" x2="451.7345681676675" y1="0.5" y2="30"/><line opacity="0.2" x1="286.37425797458206" x2="286.37425797458206" y1="0.5" y2="30"/><line opacity="0.2" x1="387.4280618723732" x2="387.4280618723732" y1="0.5" y2="30"/><line opacity="0.2" x1="329.0169965579846" x2="329.0169965579846" y1="0.5" y2="30"/><line opacity="0.2" x1="340.292610263043" x2="340.292610263043" y1="0.5" y2="30"/><line opacity="0.2" x1="438.8478609834433" x2="438.8478609834433" y1="0.5" y2="30"/><line opacity="0.2" x1="94.6652418596725" x2="94.6652418596725" y1="0.5" y2="30"/><line opacity="0.2" x1="447.689807822463" x2="447.689807822463" y1="0.5" y2="30"/><line opacity="0.2" x1="348.6977049084495" x2="348.6977049084495" y1="0.5" y2="30"/><line opacity="0.2" x1="326.9760349236525" x2="326.9760349236525" y1="0.5" y2="30"/><line opacity="0.2" x1="274.6324588758847" x2="274.6324588758847" y1="0.5" y2="30"/><line opacity="0.2" x1="425.0429486216665" x2="425.0429486216665" y1="0.5" y2="30"/><line opacity="0.2" x1="345.8842975757799" x2="345.8842975757799" y1="0.5" y2="30"/><line opacity="0.2" x1="289.74994803040147" x2="289.74994803040147" y1="0.5" y2="30"/><line opacity="0.2" x1="229.79941562051908" x2="229.79941562051908" y1="0.5" y2="30"/><line opacity="0.2" x1="114.66572387186153" x2="114.66572387186153" y1="0.5" y2="30"/><line opacity="0.2" x1="178.3389828312998" x2="178.3389828312998" y1="0.5" y2="30"/><line opacity="0.2" x1="271.7843883315241" x2="271.7843883315241" y1="0.5" y2="30"/><line opacity="0.2" x1="392.6431784769177" x2="392.6431784769177" y1="0.5" y2="30"/><line opacity="0.2" x1="388.2859748824566" x2="388.2859748824566" y1="0.5" y2="30"/><line opacity="0.2" x1="309.6940543997644" x2="309.6940543997644" y1="0.5" y2="30"/><line opacity="0.2" x1="110.96740141086528" x2="110.96740141086528" y1="0.5" y2="30"/><line opacity="0.2" x1="495.31588123151016" x2="495.31588123151016" y1="0.5" y2="30"/><line opacity="0.2" x1="383.4047427664735" x2="383.4047427664735" y1="0.5" y2="30"/><line opacity="0.2" x1="341.3388781430701" x2="341.3388781430701" y1="0.5" y2="30"/><line opacity="0.2" x1="355.01316193550116" x2="355.01316193550116" y1="0.5" y2="30"/><line opacity="0.2" x1="367.99288980361547" x2="367.99288980361547" y1="0.5" y2="30"/><line opacity="0.2" x1="358.8918120478669" x2="358.8918120478669" y1="0.5" y2="30"/><line opacity="0.2" x1="177.1751712167483" x2="177.1751712167483" y1="0.5" y2="30"/><line opacity="0.2" x1="284.0382925249966" x2="284.0382925249966" y1="0.5" y2="30"/><line opacity="0.2" x1="189.57282341316568" x2="189.57282341316568" y1="0.5" y2="30"/><line opacity="0.2" x1="237.26691576841205" x2="237.26691576841205" y1="0.5" y2="30"/><line opacity="0.2" x1="308.6943741240831" x2="308.6943741240831" y1="0.5" y2="30"/><line opacity="0.2" x1="346.21583744601037" x2="346.21583744601037" y1="0.5" y2="30"/><line opacity="0.2" x1="194.3855581707629" x2="194.3855581707629" y1="0.5" y2="30"/><line opacity="0.2" x1="374.4183256298092" x2="374.4183256298092" y1="0.5" y2="30"/><line opacity="0.2" x1="423.51636227890305" x2="423.51636227890305" y1="0.5" y2="30"/><line opacity="0.2" x1="198.8900330327499" x2="198.8900330327499" y1="0.5" y2="30"/><line opacity="0.2" x1="331.0307584309893" x2="331.0307584309893" y1="0.5" y2="30"/><line opacity="0.2" x1="320.9071684162858" x2="320.9071684162858" y1="0.5" y2="30"/><line opacity="0.2" x1="264.1303703000746" x2="264.1303703000746" y1="0.5" y2="30"/><line opacity="0.2" x1="302.2500029256946" x2="302.2500029256946" y1="0.5" y2="30"/><line opacity="0.2" x1="270.75714876996125" x2="270.75714876996125" y1="0.5" y2="30"/><line opacity="0.2" x1="361.8098339152283" x2="361.8098339152283" y1="0.5" y2="30"/><line opacity="0.2" x1="462.8840094615254" x2="462.8840094615254" y1="0.5" y2="30"/><line opacity="0.2" x1="223.71855602833352" x2="223.71855602833352" y1="0.5" y2="30"/><line opacity="0.2" x1="339.77425823057536" x2="339.77425823057536" y1="0.5" y2="30"/><line opacity="0.2" x1="329.6292807819688" x2="329.6292807819688" y1="0.5" y2="30"/><line opacity="0.2" x1="351.60676757126964" x2="351.60676757126964" y1="0.5" y2="30"/><line opacity="0.2" x1="230.56061257797955" x2="230.56061257797955" y1="0.5" y2="30"/><line opacity="0.2" x1="317.52848683466755" x2="317.52848683466755" y1="0.5" y2="30"/><line opacity="0.2" x1="469.76408208789246" x2="469.76408208789246" y1="0.5" y2="30"/><line opacity="0.2" x1="383.06744999646895" x2="383.06744999646895" y1="0.5" y2="30"/><line opacity="0.2" x1="205.76490166089093" x2="205.76490166089093" y1="0.5" y2="30"/><line opacity="0.2" x1="459.8961602305224" x2="459.8961602305224" y1="0.5" y2="30"/><line opacity="0.2" x1="308.0988811106597" x2="308.0988811106597" y1="0.5" y2="30"/><line opacity="0.2" x1="518.3350542996131" x2="518.3350542996131" y1="0.5" y2="30"/><line opacity="0.2" x1="142.93343706263184" x2="142.93343706263184" y1="0.5" y2="30"/><line opacity="0.2" x1="514.1063318054222" x2="514.1063318054222" y1="0.5" y2="30"/><line opacity="0.2" x1="331.2625056439694" x2="331.2625056439694" y1="0.5" y2="30"/><line opacity="0.2" x1="319.3187913507711" x2="319.3187913507711" y1="0.5" y2="30"/><line opacity="0.2" x1="291.3894999986479" x2="291.3894999986479" y1="0.5" y2="30"/><line opacity="0.2" x1="493.13854269993647" x2="493.13854269993647" y1="0.5" y2="30"/><line opacity="0.2" x1="311.23956791098254" x2="311.23956791098254" y1="0.5" y2="30"/><line opacity="0.2" x1="338.9208433354798" x2="338.9208433354798" y1="0.5" y2="30"/><line opacity="0.2" x1="490.22256862476166" x2="490.22256862476166" y1="0.5" y2="30"/><line opacity="0.2" x1="211.60224757788578" x2="211.60224757788578" y1="0.5" y2="30"/><line opacity="0.2" x1="282.73548503696065" x2="282.73548503696065" y1="0.5" y2="30"/><line opacity="0.2" x1="346.6071298129427" x2="346.6071298129427" y1="0.5" y2="30"/><line opacity="0.2" x1="342.52269507914104" x2="342.52269507914104" y1="0.5" y2="30"/><line opacity="0.2" x1="289.0141511902235" x2="289.0141511902235" y1="0.5" y2="30"/><line opacity="0.2" x1="252.20229163124046" x2="252.20229163124046" y1="0.5" y2="30"/><line opacity="0.2" x1="270.8071148759203" x2="270.8071148759203" y1="0.5" y2="30"/><line opacity="0.2" x1="444.416529948438" x2="444.416529948438" y1="0.5" y2="30"/><line opacity="0.2" x1="187.0613496772309" x2="187.0613496772309" y1="0.5" y2="30"/><line opacity="0.2" x1="442.4245313636626" x2="442.4245313636626" y1="0.5" y2="30"/><line opacity="0.2" x1="285.04627140921315" x2="285.04627140921315" y1="0.5" y2="30"/><line opacity="0.2" x1="344.12840110835634" x2="344.12840110835634" y1="0.5" y2="30"/><line opacity="0.2" x1="336.3446265572935" x2="336.3446265572935" y1="0.5" y2="30"/><line opacity="0.2" x1="324.9932108973311" x2="324.9932108973311" y1="0.5" y2="30"/><line opacity="0.2" x1="259.5592453036265" x2="259.5592453036265" y1="0.5" y2="30"/><line opacity="0.2" x1="190.51918240634276" x2="190.51918240634276" y1="0.5" y2="30"/><line opacity="0.2" x1="424.70813050423214" x2="424.70813050423214" y1="0.5" y2="30"/><line opacity="0.2" x1="373.5453507931704" x2="373.5453507931704" y1="0.5" y2="30"/><line opacity="0.2" x1="422.8638852298102" x2="422.8638852298102" y1="0.5" y2="30"/><line opacity="0.2" x1="236.7854695105904" x2="236.7854695105904" y1="0.5" y2="30"/><line opacity="0.2" x1="217.3725620433653" x2="217.3725620433653" y1="0.5" y2="30"/><line opacity="0.2" x1="429.2403280550641" x2="429.2403280550641" y1="0.5" y2="30"/><line opacity="0.2" x1="227.48995217313424" x2="227.48995217313424" y1="0.5" y2="30"/><line opacity="0.2" x1="607.5323694622791" x2="607.5323694622791" y1="0.5" y2="30"/><line opacity="0.2" x1="329.39726416855694" x2="329.39726416855694" y1="0.5" y2="30"/><line opacity="0.2" x1="174.46032161751282" x2="174.46032161751282" y1="0.5" y2="30"/><line opacity="0.2" x1="366.4111524067218" x2="366.4111524067218" y1="0.5" y2="30"/><line opacity="0.2" x1="273.8207799241409" x2="273.8207799241409" y1="0.5" y2="30"/><line opacity="0.2" x1="383.7702892313723" x2="383.7702892313723" y1="0.5" y2="30"/><line opacity="0.2" x1="412.6112790538054" x2="412.6112790538054" y1="0.5" y2="30"/><line opacity="0.2" x1="268.63339544864806" x2="268.63339544864806" y1="0.5" y2="30"/><line opacity="0.2" x1="554.4348862226688" x2="554.4348862226688" y1="0.5" y2="30"/><line opacity="0.2" x1="424.36210576066577" x2="424.36210576066577" y1="0.5" y2="30"/><line opacity="0.2" x1="219.4865439407317" x2="219.4865439407317" y1="0.5" y2="30"/><line opacity="0.2" x1="451.5450332524651" x2="451.5450332524651" y1="0.5" y2="30"/><line opacity="0.2" x1="437.36999712040387" x2="437.36999712040387" y1="0.5" y2="30"/><line opacity="0.2" x1="352.14860686688485" x2="352.14860686688485" y1="0.5" y2="30"/><line opacity="0.2" x1="286.81704048329885" x2="286.81704048329885" y1="0.5" y2="30"/><line opacity="0.2" x1="202.55507245019814" x2="202.55507245019814" y1="0.5" y2="30"/><line opacity="0.2" x1="299.0423182928323" x2="299.0423182928323" y1="0.5" y2="30"/><line opacity="0.2" x1="189.05322586976206" x2="189.05322586976206" y1="0.5" y2="30"/><line opacity="0.2" x1="429.39853846586345" x2="429.39853846586345" y1="0.5" y2="30"/><line opacity="0.2" x1="255.73916344375613" x2="255.73916344375613" y1="0.5" y2="30"/><line opacity="0.2" x1="197.61956729279436" x2="197.61956729279436" y1="0.5" y2="30"/><line opacity="0.2" x1="319.72501386472874" x2="319.72501386472874" y1="0.5" y2="30"/><line opacity="0.2" x1="226.31761579344118" x2="226.31761579344118" y1="0.5" y2="30"/><line opacity="0.2" x1="218.6664345006113" x2="218.6664345006113" y1="0.5" y2="30"/><line opacity="0.2" x1="332.52282038580955" x2="332.52282038580955" y1="0.5" y2="30"/><line opacity="0.2" x1="188.29107683874025" x2="188.29107683874025" y1="0.5" y2="30"/><line opacity="0.2" x1="393.1113312812997" x2="393.1113312812997" y1="0.5" y2="30"/><line opacity="0.2" x1="306.12558476740975" x2="306.12558476740975" y1="0.5" y2="30"/><line opacity="0.2" x1="430.1655789563328" x2="430.1655789563328" y1="0.5" y2="30"/><line opacity="0.2" x1="444.51135104735766" x2="444.51135104735766" y1="0.5" y2="30"/><line opacity="0.2" x1="187.4835521499954" x2="187.4835521499954" y1="0.5" y2="30"/><line opacity="0.2" x1="254.5831781042886" x2="254.5831781042886" y1="0.5" y2="30"/><line opacity="0.2" x1="269.3421423211552" x2="269.3421423211552" y1="0.5" y2="30"/><line opacity="0.2" x1="518.3214320303796" x2="518.3214320303796" y1="0.5" y2="30"/><line opacity="0.2" x1="319.834971703187" x2="319.834971703187" y1="0.5" y2="30"/><line opacity="0.2" x1="427.9725146194824" x2="427.9725146194824" y1="0.5" y2="30"/><line opacity="0.2" x1="387.5923423258818" x2="387.5923423258818" y1="0.5" y2="30"/><line opacity="0.2" x1="327.51326189755673" x2="327.51326189755673" y1="0.5" y2="30"/><line opacity="0.2" x1="454.28271322946483" x2="454.28271322946483" y1="0.5" y2="30"/><line opacity="0.2" x1="428.450623482833" x2="428.450623482833" y1="0.5" y2="30"/><line opacity="0.2" x1="364.2241210679338" x2="364.2241210679338" y1="0.5" y2="30"/><line opacity="0.2" x1="361.7430624230043" x2="361.7430624230043" y1="0.5" y2="30"/><line opacity="0.2" x1="331.7987801933581" x2="331.7987801933581" y1="0.5" y2="30"/><line opacity="0.2" x1="244.81595298712764" x2="244.81595298712764" y1="0.5" y2="30"/><line opacity="0.2" x1="200.0214163917235" x2="200.0214163917235" y1="0.5" y2="30"/><line opacity="0.2" x1="353.51974599203567" x2="353.51974599203567" y1="0.5" y2="30"/><line opacity="0.2" x1="144.85340913424616" x2="144.85340913424616" y1="0.5" y2="30"/><line opacity="0.2" x1="227.96746455280913" x2="227.96746455280913" y1="0.5" y2="30"/><line opacity="0.2" x1="306.15598474816886" x2="306.15598474816886" y1="0.5" y2="30"/><line opacity="0.2" x1="186.51850742169182" x2="186.51850742169182" y1="0.5" y2="30"/><line opacity="0.2" x1="248.20564715089847" x2="248.20564715089847" y1="0.5" y2="30"/><line opacity="0.2" x1="240.20128334947537" x2="240.20128334947537" y1="0.5" y2="30"/><line opacity="0.2" x1="355.4835128062434" x2="355.4835128062434" y1="0.5" y2="30"/><line opacity="0.2" x1="321.03534665312776" x2="321.03534665312776" y1="0.5" y2="30"/><line opacity="0.2" x1="374.07324258868084" x2="374.07324258868084" y1="0.5" y2="30"/><line opacity="0.2" x1="365.08633087365575" x2="365.08633087365575" y1="0.5" y2="30"/><line opacity="0.2" x1="383.93606540284793" x2="383.93606540284793" y1="0.5" y2="30"/><line opacity="0.2" x1="341.73288648817163" x2="341.73288648817163" y1="0.5" y2="30"/><line opacity="0.2" x1="114.05584452488004" x2="114.05584452488004" y1="0.5" y2="30"/><line opacity="0.2" x1="468.4177414207921" x2="468.4177414207921" y1="0.5" y2="30"/><line opacity="0.2" x1="329.85276055685887" x2="329.85276055685887" y1="0.5" y2="30"/><line opacity="0.2" x1="472.25567780948086" x2="472.25567780948086" y1="0.5" y2="30"/><line opacity="0.2" x1="43.41158163198157" x2="43.41158163198157" y1="0.5" y2="30"/><line opacity="0.2" x1="267.50940447790526" x2="267.50940447790526" y1="0.5" y2="30"/><line opacity="0.2" x1="192.76583709884616" x2="192.76583709884616" y1="0.5" y2="30"/><line opacity="0.2" x1="240.08118394510566" x2="240.08118394510566" y1="0.5" y2="30"/><line opacity="0.2" x1="136.1834715951167" x2="136.1834715951167" y1="0.5" y2="30"/><line opacity="0.2" x1="167.49297379380218" x2="167.49297379380218" y1="0.5" y2="30"/><line opacity="0.2" x1="238.68807520249808" x2="238.68807520249808" y1="0.5" y2="30"/><line opacity="0.2" x1="131.33916389171313" x2="131.33916389171313" y1="0.5" y2="30"/><line opacity="0.2" x1="390.48744378763297" x2="390.48744378763297" y1="0.5" y2="30"/><line opacity="0.2" x1="233.93190159034262" x2="233.93190159034262" y1="0.5" y2="30"/><line opacity="0.2" x1="381.74265269689147" x2="381.74265269689147" y1="0.5" y2="30"/><line opacity="0.2" x1="355.78790269671936" x2="355.78790269671936" y1="0.5" y2="30"/><line opacity="0.2" x1="354.0728810386956" x2="354.0728810386956" y1="0.5" y2="30"/><line opacity="0.2" x1="480.2369311385553" x2="480.2369311385553" y1="0.5" y2="30"/><line opacity="0.2" x1="365.544469708066" x2="365.544469708066" y1="0.5" y2="30"/><line opacity="0.2" x1="368.30927414614456" x2="368.30927414614456" y1="0.5" y2="30"/><line opacity="0.2" x1="322.8292647506811" x2="322.8292647506811" y1="0.5" y2="30"/><line opacity="0.2" x1="620" x2="620" y1="0.5" y2="30"/><line opacity="0.2" x1="184.71951372579034" x2="184.71951372579034" y1="0.5" y2="30"/><line opacity="0.2" x1="295.11483159025454" x2="295.11483159025454" y1="0.5" y2="30"/><line opacity="0.2" x1="434.3994942383481" x2="434.3994942383481" y1="0.5" y2="30"/><line opacity="0.2" x1="257.70833050400114" x2="257.70833050400114" y1="0.5" y2="30"/><line opacity="0.2" x1="313.9258439432578" x2="313.9258439432578" y1="0.5" y2="30"/><line opacity="0.2" x1="309.49347032385435" x2="309.49347032385435" y1="0.5" y2="30"/><line opacity="0.2" x1="209.3635472695362" x2="209.3635472695362" y1="0.5" y2="30"/><line opacity="0.2" x1="278.01471684877544" x2="278.01471684877544" y1="0.5" y2="30"/><line opacity="0.2" x1="447.6202325219318" x2="447.6202325219318" y1="0.5" y2="30"/><line opacity="0.2" x1="301.5316267585581" x2="301.5316267585581" y1="0.5" y2="30"/><line opacity="0.2" x1="448.5394245135409" x2="448.5394245135409" y1="0.5" y2="30"/><line opacity="0.2" x1="263.21288166835143" x2="263.21288166835143" y1="0.5" y2="30"/><line opacity="0.2" x1="378.47175576070555" x2="378.47175576070555" y1="0.5" y2="30"/><line opacity="0.2" x1="324.4679584318826" x2="324.4679584318826" y1="0.5" y2="30"/><line opacity="0.2" x1="406.16654932298695" x2="406.16654932298695" y1="0.5" y2="30"/><line opacity="0.2" x1="226.26920752770906" x2="226.26920752770906" y1="0.5" y2="30"/><line opacity="0.2" x1="333.4951384716565" x2="333.4951384716565" y1="0.5" y2="30"/><line opacity="0.2" x1="295.46067912036193" x2="295.46067912036193" y1="0.5" y2="30"/><line opacity="0.2" x1="239.64915091393914" x2="239.64915091393914" y1="0.5" y2="30"/><line opacity="0.2" x1="412.7747812874664" x2="412.7747812874664" y1="0.5" y2="30"/><line opacity="0.2" x1="214.31930238398834" x2="214.31930238398834" y1="0.5" y2="30"/><line opacity="0.2" x1="337.8825383591564" x2="337.8825383591564" y1="0.5" y2="30"/><line opacity="0.2" x1="388.34760899601235" x2="388.34760899601235" y1="0.5" y2="30"/><line opacity="0.2" x1="274.2926526859721" x2="274.2926526859721" y1="0.5" y2="30"/><line opacity="0.2" x1="315.9620285555614" x2="315.9620285555614" y1="0.5" y2="30"/><line opacity="0.2" x1="276.5503976988745" x2="276.5503976988745" y1="0.5" y2="30"/><line opacity="0.2" x1="371.5537387498775" x2="371.5537387498775" y1="0.5" y2="30"/><line opacity="0.2" x1="260.5833886764235" x2="260.5833886764235" y1="0.5" y2="30"/><line opacity="0.2" x1="316.3785383759185" x2="316.3785383759185" y1="0.5" y2="30"/><line opacity="0.2" x1="353.2643408391195" x2="353.2643408391195" y1="0.5" y2="30"/><line opacity="0.2" x1="289.8711756254475" x2="289.8711756254475" y1="0.5" y2="30"/><line opacity="0.2" x1="383.0277316431377" x2="383.0277316431377" y1="0.5" y2="30"/><line opacity="0.2" x1="488.70635640061846" x2="488.70635640061846" y1="0.5" y2="30"/><line opacity="0.2" x1="263.6461898047448" x2="263.6461898047448" y1="0.5" y2="30"/><line opacity="0.2" x1="340.82249762221625" x2="340.82249762221625" y1="0.5" y2="30"/><line opacity="0.2" x1="324.28959373806987" x2="324.28959373806987" y1="0.5" y2="30"/><line opacity="0.2" x1="271.61135294001264" x2="271.61135294001264" y1="0.5" y2="30"/><line opacity="0.2" x1="211.62332410062442" x2="211.62332410062442" y1="0.5" y2="30"/><line opacity="0.2" x1="276.0560530795159" x2="276.0560530795159" y1="0.5" y2="30"/><line opacity="0.2" x1="386.7350844164012" x2="386.7350844164012" y1="0.5" y2="30"/><line opacity="0.2" x1="337.3623404510542" x2="337.3623404510542" y1="0.5" y2="30"/><line opacity="0.2" x1="318.73001091444684" x2="318.73001091444684" y1="0.5" y2="30"/><line opacity="0.2" x1="315.00745505878797" x2="315.00745505878797" y1="0.5" y2="30"/><line opacity="0.2" x1="322.5861506906916" x2="322.5861506906916" y1="0.5" y2="30"/><line opacity="0.2" x1="283.8517300915255" x2="283.8517300915255" y1="0.5" y2="30"/><line opacity="0.2" x1="303.13719994320047" x2="303.13719994320047" y1="0.5" y2="30"/><line opacity="0.2" x1="385.21137375681536" x2="385.21137375681536" y1="0.5" y2="30"/><line opacity="0.2" x1="264.75692640649555" x2="264.75692640649555" y1="0.5" y2="30"/><line opacity="0.2" x1="396.5790736430818" x2="396.5790736430818" y1="0.5" y2="30"/><line opacity="0.2" x1="395.57876556196004" x2="395.57876556196004" y1="0.5" y2="30"/><line opacity="0.2" x1="433.47405521697715" x2="433.47405521697715" y1="0.5" y2="30"/><line opacity="0.2" x1="342.70593924007767" x2="342.70593924007767" y1="0.5" y2="30"/><line opacity="0.2" x1="247.31624089820932" x2="247.31624089820932" y1="0.5" y2="30"/><line opacity="0.2" x1="251.31154918408203" x2="251.31154918408203" y1="0.5" y2="30"/><line opacity="0.2" x1="196.34678277388096" x2="196.34678277388096" y1="0.5" y2="30"/><line opacity="0.2" x1="417.53444719472003" x2="417.53444719472003" y1="0.5" y2="30"/><line opacity="0.2" x1="235.19208116151376" x2="235.19208116151376" y1="0.5" y2="30"/><line opacity="0.2" x1="305.8750902740058" x2="305.8750902740058" y1="0.5" y2="30"/><line opacity="0.2" x1="283.57939625638517" x2="283.57939625638517" y1="0.5" y2="30"/><line opacity="0.2" x1="104.29080872850204" x2="104.29080872850204" y1="0.5" y2="30"/><line opacity="0.2" x1="456.85981745068784" x2="456.85981745068784" y1="0.5" y2="30"/><line opacity="0.2" x1="223.568136474999" x2="223.568136474999" y1="0.5" y2="30"/><line opacity="0.2" x1="287.4717320870383" x2="287.4717320870383" y1="0.5" y2="30"/><line opacity="0.2" x1="258.2530792664006" x2="258.2530792664006" y1="0.5" y2="30"/><line opacity="0.2" x1="342.950368970546" x2="342.950368970546" y1="0.5" y2="30"/><line opacity="0.2" x1="323.95179918550156" x2="323.95179918550156" y1="0.5" y2="30"/><line opacity="0.2" x1="336.08391190963465" x2="336.08391190963465" y1="0.5" y2="30"/><line opacity="0.2" x1="406.43805121555795" x2="406.43805121555795" y1="0.5" y2="30"/><line opacity="0.2" x1="310.2733384632959" x2="310.2733384632959" y1="0.5" y2="30"/><line opacity="0.2" x1="169.29041255325697" x2="169.29041255325697" y1="0.5" y2="30"/><line opacity="0.2" x1="234.50596160139142" x2="234.50596160139142" y1="0.5" y2="30"/><line opacity="0.2" x1="322.9584593718777" x2="322.9584593718777" y1="0.5" y2="30"/><line opacity="0.2" x1="498.5278883983402" x2="498.5278883983402" y1="0.5" y2="30"/><line opacity="0.2" x1="96.07972809707982" x2="96.07972809707982" y1="0.5" y2="30"/><line opacity="0.2" x1="299.8536339286472" x2="299.8536339286472" y1="0.5" y2="30"/><line opacity="0.2" x1="386.50970527128726" x2="386.50970527128726" y1="0.5" y2="30"/><line opacity="0.2" x1="237.68888181951036" x2="237.68888181951036" y1="0.5" y2="30"/><line opacity="0.2" x1="351.5507775278048" x2="351.5507775278048" y1="0.5" y2="30"/><line opacity="0.2" x1="365.46439206526543" x2="365.46439206526543" y1="0.5" y2="30"/><line opacity="0.2" x1="210.89141860710464" x2="210.89141860710464" y1="0.5" y2="30"/><line opacity="0.2" x1="211.76187454739957" x2="211.76187454739957" y1="0.5" y2="30"/><line opacity="0.2" x1="403.98351705439717" x2="403.98351705439717" y1="0.5" y2="30"/><line opacity="0.2" x1="511.3673752059532" x2="511.3673752059532" y1="0.5" y2="30"/><line opacity="0.2" x1="451.25577764849055" x2="451.25577764849055" y1="0.5" y2="30"/><line opacity="0.2" x1="209.77960762370225" x2="209.77960762370225" y1="0.5" y2="30"/><line opacity="0.2" x1="406.7225447108509" x2="406.7225447108509" y1="0.5" y2="30"/><line opacity="0.2" x1="439.6923487966573" x2="439.6923487966573" y1="0.5" y2="30"/><line opacity="0.2" x1="133.4793661764803" x2="133.4793661764803" y1="0.5" y2="30"/><line opacity="0.2" x1="232.80637594188653" x2="232.80637594188653" y1="0.5" y2="30"/><line opacity="0.2" x1="482.86068311314546" x2="482.86068311314546" y1="0.5" y2="30"/><line opacity="0.2" x1="465.41602279883506" x2="465.41602279883506" y1="0.5" y2="30"/><line opacity="0.2" x1="472.16730375934696" x2="472.16730375934696" y1="0.5" y2="30"/><line opacity="0.2" x1="272.22993582905394" x2="272.22993582905394" y1="0.5" y2="30"/><line opacity="0.2" x1="266.026202912905" x2="266.026202912905" y1="0.5" y2="30"/><line opacity="0.2" x1="295.5339543434214" x2="295.5339543434214" y1="0.5" y2="30"/><line opacity="0.2" x1="306.0377071246931" x2="306.0377071246931" y1="0.5" y2="30"/><line opacity="0.2" x1="382.01755322276676" x2="382.01755322276676" y1="0.5" y2="30"/><line opacity="0.2" x1="495.14663615687977" x2="495.14663615687977" y1="0.5" y2="30"/><line opacity="0.2" x1="338.0826384602872" x2="338.0826384602872" y1="0.5" y2="30"/><line opacity="0.2" x1="485.2132266231339" x2="485.2132266231339" y1="0.5" y2="30"/><line opacity="0.2" x1="268.1277713169669" x2="268.1277713169669" y1="0.5" y2="30"/><line opacity="0.2" x1="342.3429406226629" x2="342.3429406226629" y1="0.5" y2="30"/><line opacity="0.2" x1="225.4047418539025" x2="225.4047418539025" y1="0.5" y2="30"/><line opacity="0.2" x1="328.50441429618826" x2="328.50441429618826" y1="0.5" y2="30"/><line opacity="0.2" x1="329.0308976972359" x2="329.0308976972359" y1="0.5" y2="30"/><line opacity="0.2" x1="337.74887293519396" x2="337.74887293519396" y1="0.5" y2="30"/><line opacity="0.2" x1="450.4109727340627" x2="450.4109727340627" y1="0.5" y2="30"/><line opacity="0.2" x1="267.9139379785956" x2="267.9139379785956" y1="0.5" y2="30"/><line opacity="0.2" x1="294.3553848125809" x2="294.3553848125809" y1="0.5" y2="30"/><line opacity="0.2" x1="381.31513538103843" x2="381.31513538103843" y1="0.5" y2="30"/><line opacity="0.2" x1="419.2915361843465" x2="419.2915361843465" y1="0.5" y2="30"/><line opacity="0.2" x1="299.1050916986363" x2="299.1050916986363" y1="0.5" y2="30"/><line opacity="0.2" x1="372.39797903817185" x2="372.39797903817185" y1="0.5" y2="30"/><line opacity="0.2" x1="288.30001764444825" x2="288.30001764444825" y1="0.5" y2="30"/><line opacity="0.2" x1="240.45693812583872" x2="240.45693812583872" y1="0.5" y2="30"/><line opacity="0.2" x1="329.1198182304129" x2="329.1198182304129" y1="0.5" y2="30"/><line opacity="0.2" x1="421.11996705834235" x2="421.11996705834235" y1="0.5" y2="30"/><line opacity="0.2" x1="374.85482135482334" x2="374.85482135482334" y1="0.5" y2="30"/><line opacity="0.2" x1="308.43860826564026" x2="308.43860826564026" y1="0.5" y2="30"/><line opacity="0.2" x1="420.5357235688157" x2="420.5357235688157" y1="0.5" y2="30"/><line opacity="0.2" x1="422.957121351388" x2="422.957121351388" y1="0.5" y2="30"/><line opacity="0.2" x1="406.49366011768313" x2="406.49366011768313" y1="0.5" y2="30"/><line opacity="0.2" x1="268.99577882381885" x2="268.99577882381885" y1="0.5" y2="30"/><line opacity="0.2" x1="358.71034930496563" x2="358.71034930496563" y1="0.5" y2="30"/><line opacity="0.2" x1="419.3987789189214" x2="419.3987789189214" y1="0.5" y2="30"/><line opacity="0.2" x1="282.83985645758406" x2="282.83985645758406" y1="0.5" y2="30"/><line opacity="0.2" x1="250.66146020153704" x2="250.66146020153704" y1="0.5" y2="30"/><line opacity="0.2" x1="284.95329415691094" x2="284.95329415691094" y1="0.5" y2="30"/><line opacity="0.2" x1="300.48456837866354" x2="300.48456837866354" y1="0.5" y2="30"/><line opacity="0.2" x1="264.55380712641954" x2="264.55380712641954" y1="0.5" y2="30"/><line opacity="0.2" x1="286.92741991050383" x2="286.92741991050383" y1="0.5" y2="30"/><line opacity="0.2" x1="299.70439174850736" x2="299.70439174850736" y1="0.5" y2="30"/><line opacity="0.2" x1="205.5692027079052" x2="205.5692027079052" y1="0.5" y2="30"/><line opacity="0.2" x1="260.0006130713187" x2="260.0006130713187" y1="0.5" y2="30"/><line opacity="0.2" x1="56.8995394226782" x2="56.8995394226782" y1="0.5" y2="30"/><line opacity="0.2" x1="296.68948478328326" x2="296.68948478328326" y1="0.5" y2="30"/><line opacity="0.2" x1="221.25619427870066" x2="221.25619427870066" y1="0.5" y2="30"/><line opacity="0.2" x1="274.85764595277635" x2="274.85764595277635" y1="0.5" y2="30"/><line opacity="0.2" x1="355.1353096245929" x2="355.1353096245929" y1="0.5" y2="30"/><line opacity="0.2" x1="232.0125094011169" x2="232.0125094011169" y1="0.5" y2="30"/><line opacity="0.2" x1="413.1522657898917" x2="413.1522657898917" y1="0.5" y2="30"/><line opacity="0.2" x1="517.9008583098133" x2="517.9008583098133" y1="0.5" y2="30"/><line opacity="0.2" x1="277.86170791110965" x2="277.86170791110965" y1="0.5" y2="30"/><line opacity="0.2" x1="412.3204791023557" x2="412.3204791023557" y1="0.5" y2="30"/><line opacity="0.2" x1="240.2235293686725" x2="240.2235293686725" y1="0.5" y2="30"/><line opacity="0.2" x1="334.58488663497417" x2="334.58488663497417" y1="0.5" y2="30"/><line opacity="0.2" x1="437.2754317336657" x2="437.2754317336657" y1="0.5" y2="30"/><line opacity="0.2" x1="220.8983193279379" x2="220.8983193279379" y1="0.5" y2="30"/><line opacity="0.2" x1="273.0838026465822" x2="273.0838026465822" y1="0.5" y2="30"/><line opacity="0.2" x1="457.096789008922" x2="457.096789008922" y1="0.5" y2="30"/><line opacity="0.2" x1="377.5325496932461" x2="377.5325496932461" y1="0.5" y2="30"/><line opacity="0.2" x1="274.80666009673763" x2="274.80666009673763" y1="0.5" y2="30"/><line opacity="0.2" x1="467.02488274357415" x2="467.02488274357415" y1="0.5" y2="30"/><line opacity="0.2" x1="226.14950941859152" x2="226.14950941859152" y1="0.5" y2="30"/><line opacity="0.2" x1="253.0140011726098" x2="253.0140011726098" y1="0.5" y2="30"/><line opacity="0.2" x1="287.153476198954" x2="287.153476198954" y1="0.5" y2="30"/><line opacity="0.2" x1="351.0351002443781" x2="351.0351002443781" y1="0.5" y2="30"/><line opacity="0.2" x1="436.3663163707687" x2="436.3663163707687" y1="0.5" y2="30"/><line opacity="0.2" x1="314.0233308827942" x2="314.0233308827942" y1="0.5" y2="30"/><line opacity="0.2" x1="291.00871933259873" x2="291.00871933259873" y1="0.5" y2="30"/><line opacity="0.2" x1="151.56357062442441" x2="151.56357062442441" y1="0.5" y2="30"/><line opacity="0.2" x1="222.60332029734596" x2="222.60332029734596" y1="0.5" y2="30"/><line opacity="0.2" x1="195.3675343445895" x2="195.3675343445895" y1="0.5" y2="30"/><line opacity="0.2" x1="347.8704693226031" x2="347.8704693226031" y1="0.5" y2="30"/><line opacity="0.2" x1="292.63772182145965" x2="292.63772182145965" y1="0.5" y2="30"/><line opacity="0.2" x1="80.10633922777191" x2="80.10633922777191" y1="0.5" y2="30"/><line opacity="0.2" x1="337.00824033896805" x2="337.00824033896805" y1="0.5" y2="30"/><line opacity="0.2" x1="261.52802894044913" x2="261.52802894044913" y1="0.5" y2="30"/><line opacity="0.2" x1="471.49478795332567" x2="471.49478795332567" y1="0.5" y2="30"/><line opacity="0.2" x1="252.66260877474758" x2="252.66260877474758" y1="0.5" y2="30"/><line opacity="0.2" x1="351.68334189173044" x2="351.68334189173044" y1="0.5" y2="30"/><line opacity="0.2" x1="298.17550924939775" x2="298.17550924939775" y1="0.5" y2="30"/><line opacity="0.2" x1="243.45739700613572" x2="243.45739700613572" y1="0.5" y2="30"/><line opacity="0.2" x1="546.8939696606119" x2="546.8939696606119" y1="0.5" y2="30"/></g></svg>