<svg xmlns="http://www.w3.org/2000/svg" xmlns:xlink="http://www.w3.org/1999/xlink" class="plot-d6a7b5" fill="currentColor" font-family="system-ui, sans-serif" font-size="10" text-anchor="middle" width="640" height="400" viewBox="0 0 640 400" style="color: black; background-color: white;"><style>:where(.plot-d6a7b5) {
  --plot-background: white;
  display: block;
  height: auto;
  height: intrinsic;
  max-width: 100%;
}
:where(.plot-d6a7b5 text),
:where(.plot-d6a7b5 tspan) {
  white-space: pre;
}</style><g aria-label="y-axis tick" aria-hidden="true" fill="none" stroke="currentColor"><path transform="translate(40,344.33960262006644)" d="M0,0L-6,0"/><path transform="translate(40,299.6241157003496)" d="M0,0L-6,0"/><path transform="translate(40,254.90862878063277)" d="M0,0L-6,0"/><path transform="translate(40,210.19314186091594)" d="M0,0L-6,0"/><path transform="translate(40,165.47765494119915)" d="M0,0L-6,0"/><path transform="translate(40,120.76216802148232)" d="M0,0L-6,0"/><path transform="translate(40,76.04668110176553)" d="M0,0L-6,0"/><path transform="translate(40,31.33119418204869)" d="M0,0L-6,0"/></g><g aria-label="y-axis tick label" text-anchor="end" font-variant="tabular-nums" transform="translate(-9,0)"><text y="0.32em" transform="translate(40,344.33960262006644)">−2</text><text y="0.32em" transform="translate(40,299.6241157003496)">0</text><text y="0.32em" transform="translate(40,254.90862878063277)">2</text><text y="0.32em" transform="translate(40,210.19314186091594)">4</text><text y="0.32em" transform="translate(40,165.47765494119915)">6</text><text y="0.32em" transform="translate(40,120.76216802148232)">8</text><text y="0.32em" transform="translate(40,76.04668110176553)">10</text><text y="0.32em" transform="translate(40,31.33119418204869)">12</text></g><g aria-label="rule" stroke="steelblue"><line x1="40" x2="639.5" y1="299.6241157003496" y2="299.6241157003496"/></g><g aria-label="line" fill="none" stroke="currentColor" stroke-width="1.5" stroke-linejoin="round" stroke-linecap="round"><path d="M40,285.653L46.056,317.377L52.111,329.564L58.167,360.659L64.222,360.462L70.278,380L76.333,367.965L82.389,359.71L88.444,355.321L94.5,339.308L100.556,304.643L106.611,278.829L112.667,272.834L118.722,313.481L124.778,283.694L130.833,253.523L136.889,248.901L142.944,278.149L149,291.838L155.056,327.684L161.111,257.71L167.167,302.381L173.222,278.419L179.278,265.675L185.333,226.009L191.389,220.031L197.444,229.491L203.5,266.389L209.556,301.751L215.611,313.124L221.667,277.662L227.722,287.163L233.778,306.208L239.833,343.795L245.889,330.317L251.944,312.448L258,314.282L264.056,337.948L270.111,352.51L276.167,378.034L282.222,374.637L288.278,341.564L294.333,360.395L300.389,339.776L306.444,315.751L312.5,301.305L318.556,290.076L324.611,243.471L330.667,237.127L336.722,240.761L342.778,230.629L348.833,206.91L354.889,207.59L360.944,191.314L367,178.85L373.056,182.942L379.111,210.386L385.167,212.172L391.222,185.921L397.278,181.242L403.333,166.155L409.389,182.844L415.444,193.945L421.5,186.229L427.556,177.162L433.611,175.288L439.667,181.357L445.722,157.27L451.778,132.109L457.833,134.055L463.889,134.919L469.944,124.32L476,154.948L482.056,170.007L488.111,146.89L494.167,130.259L500.222,92.401L506.278,111.411L512.333,120.102L518.389,117.953L524.444,111.446L530.5,91.227L536.556,84.211L542.611,69.957L548.667,20L554.722,39.562L560.778,28.558L566.833,20.263L572.889,34.377L578.944,72.905L585,57.44L591.056,82.086L597.111,93.32L603.167,64.71L609.222,81.251L615.278,77.251L621.333,62.332L627.389,85.805L633.444,125.178L639.5,111.422"/></g></svg>