<svg xmlns="http://www.w3.org/2000/svg" xmlns:xlink="http://www.w3.org/1999/xlink" class="plot-11d7c92f88e7c" fill="currentColor" font-family="system-ui, sans-serif" font-size="10" text-anchor="middle" width="640" height="400" viewBox="0 0 640 400" style="color: black;"><style>
        .plot-11d7c92f88e7c {
          display: block;
          background: white;
          height: auto;
          height: intrinsic;
          max-width: 100%;
        }
        .plot-11d7c92f88e7c text,
        .plot-11d7c92f88e7c tspan {
          white-space: pre;
        }
      </style><g aria-label="y-grid" stroke="currentColor" stroke-opacity="0.1" transform="translate(0,0.5)"><line x1="40" x2="620" y1="370" y2="370"/><line x1="40" x2="620" y1="326.25" y2="326.25"/><line x1="40" x2="620" y1="282.5" y2="282.5"/><line x1="40" x2="620" y1="238.75" y2="238.75"/><line x1="40" x2="620" y1="195" y2="195"/><line x1="40" x2="620" y1="151.25" y2="151.25"/><line x1="40" x2="620" y1="107.5" y2="107.5"/><line x1="40" x2="620" y1="63.75" y2="63.75"/><line x1="40" x2="620" y1="20" y2="20"/></g><g aria-label="y-axis tick" fill="none" stroke="currentColor" transform="translate(0,0.5)"><path transform="translate(40,370)" d="M0,0L-6,0"/><path transform="translate(40,326.25)" d="M0,0L-6,0"/><path transform="translate(40,282.5)" d="M0,0L-6,0"/><path transform="translate(40,238.75)" d="M0,0L-6,0"/><path transform="translate(40,195)" d="M0,0L-6,0"/><path transform="translate(40,151.25)" d="M0,0L-6,0"/><path transform="translate(40,107.5)" d="M0,0L-6,0"/><path transform="translate(40,63.75)" d="M0,0L-6,0"/><path transform="translate(40,20)" d="M0,0L-6,0"/></g><g aria-label="y-axis tick label" text-anchor="end" font-variant="tabular-nums" transform="translate(-8.5,0.5)"><text y="0.32em" transform="translate(40,370)">1.0</text><text y="0.32em" transform="translate(40,326.25)">1.5</text><text y="0.32em" transform="translate(40,282.5)">2.0</text><text y="0.32em" transform="translate(40,238.75)">2.5</text><text y="0.32em" transform="translate(40,195)">3.0</text><text y="0.32em" transform="translate(40,151.25)">3.5</text><text y="0.32em" transform="translate(40,107.5)">4.0</text><text y="0.32em" transform="translate(40,63.75)">4.5</text><text y="0.32em" transform="translate(40,20)">5.0</text></g><g aria-label="y-axis label" text-anchor="start" transform="translate(-36.5,-16.5)"><text y="0.71em" transform="translate(40,20)">↑ y</text></g><g aria-label="x-grid" stroke="currentColor" stroke-opacity="0.1" transform="translate(0.5,0)"><line x1="40" x2="40" y1="20" y2="370"/><line x1="98" x2="98" y1="20" y2="370"/><line x1="156" x2="156" y1="20" y2="370"/><line x1="214" x2="214" y1="20" y2="370"/><line x1="272" x2="272" y1="20" y2="370"/><line x1="330" x2="330" y1="20" y2="370"/><line x1="388" x2="388" y1="20" y2="370"/><line x1="446" x2="446" y1="20" y2="370"/><line x1="504" x2="504" y1="20" y2="370"/><line x1="562" x2="562" y1="20" y2="370"/><line x1="620" x2="620" y1="20" y2="370"/></g><g aria-label="x-axis tick" fill="none" stroke="currentColor" transform="translate(0.5,0)"><path transform="translate(40,370)" d="M0,0L0,6"/><path transform="translate(98,370)" d="M0,0L0,6"/><path transform="translate(156,370)" d="M0,0L0,6"/><path transform="translate(214,370)" d="M0,0L0,6"/><path transform="translate(272,370)" d="M0,0L0,6"/><path transform="translate(330,370)" d="M0,0L0,6"/><path transform="translate(388,370)" d="M0,0L0,6"/><path transform="translate(446,370)" d="M0,0L0,6"/><path transform="translate(504,370)" d="M0,0L0,6"/><path transform="translate(562,370)" d="M0,0L0,6"/><path transform="translate(620,370)" d="M0,0L0,6"/></g><g aria-label="x-axis tick label" font-variant="tabular-nums" transform="translate(0.5,9.5)"><text y="0.71em" transform="translate(40,370)">1.0</text><text y="0.71em" transform="translate(98,370)">1.5</text><text y="0.71em" transform="translate(156,370)">2.0</text><text y="0.71em" transform="translate(214,370)">2.5</text><text y="0.71em" transform="translate(272,370)">3.0</text><text y="0.71em" transform="translate(330,370)">3.5</text><text y="0.71em" transform="translate(388,370)">4.0</text><text y="0.71em" transform="translate(446,370)">4.5</text><text y="0.71em" transform="translate(504,370)">5.0</text><text y="0.71em" transform="translate(562,370)">5.5</text><text y="0.71em" transform="translate(620,370)">6.0</text></g><g aria-label="x-axis label" text-anchor="end" transform="translate(17.5,27.5)"><text transform="translate(620,370)">x →</text></g><g aria-label="dot" fill="steelblue" stroke="black" stroke-width="1.5" transform="translate(0.5,0.5)"><circle cx="40" cy="282.5" r="5" fill-opacity="0.7"/><circle cx="504" cy="370" r="5" fill-opacity="0.1"/><circle cx="156" cy="195" r="5" fill-opacity="0.7"/><circle cx="388" cy="107.5" r="5" fill-opacity="0.1"/><circle cx="620" cy="20" r="5" fill-opacity="0.7"/><circle cx="156" cy="370" r="5" fill-opacity="0.7"/><circle cx="388" cy="282.5" r="5" fill-opacity="0.1"/></g></svg>