<svg xmlns="http://www.w3.org/2000/svg" xmlns:xlink="http://www.w3.org/1999/xlink" class="plot-13abb8fa5dd2e" fill="currentColor" font-family="system-ui, sans-serif" font-size="10" text-anchor="middle" width="640" height="60" viewBox="0 0 640 60" style="color: black;"><style>
        .plot-13abb8fa5dd2e {
          display: block;
          background: white;
          height: auto;
          height: intrinsic;
          max-width: 100%;
        }
        .plot-13abb8fa5dd2e text,
        .plot-13abb8fa5dd2e tspan {
          white-space: pre;
        }
      </style><g aria-label="x-axis tick" fill="none" stroke="currentColor" transform="translate(0.5,0)"><path transform="translate(39.328249145409266,30)" d="M0,0L0,6"/><path transform="translate(116.6334734658036,30)" d="M0,0L0,6"/><path transform="translate(193.93869778619796,30)" d="M0,0L0,6"/><path transform="translate(271.24392210659227,30)" d="M0,0L0,6"/><path transform="translate(348.54914642698657,30)" d="M0,0L0,6"/><path transform="translate(425.8543707473809,30)" d="M0,0L0,6"/><path transform="translate(503.15959506777523,30)" d="M0,0L0,6"/><path transform="translate(580.4648193881696,30)" d="M0,0L0,6"/></g><g aria-label="x-axis tick label" font-variant="tabular-nums" transform="translate(0.5,9.5)"><text y="0.71em" transform="translate(39.328249145409266,30)">−4</text><text y="0.71em" transform="translate(116.6334734658036,30)">−3</text><text y="0.71em" transform="translate(193.93869778619796,30)">−2</text><text y="0.71em" transform="translate(271.24392210659227,30)">−1</text><text y="0.71em" transform="translate(348.54914642698657,30)">0</text><text y="0.71em" transform="translate(425.8543707473809,30)">1</text><text y="0.71em" transform="translate(503.15959506777523,30)">2</text><text y="0.71em" transform="translate(580.4648193881696,30)">3</text></g><g aria-label="tick" stroke="red" transform="translate(0.5,0)"><line opacity="0.2" x1="318.4152338032176" x2="318.4152338032176" y1="0" y2="30"/><line opacity="0.2" x1="206.4551315685063" x2="206.4551315685063" y1="0" y2="30"/><line opacity="0.2" x1="449.59191717315014" x2="449.59191717315014" y1="0" y2="30"/><line opacity="0.2" x1="450.22341374236436" x2="450.22341374236436" y1="0" y2="30"/><line opacity="0.2" x1="310.7188678995085" x2="310.7188678995085" y1="0" y2="30"/><line opacity="0.2" x1="249.6167261659379" x2="249.6167261659379" y1="0" y2="30"/><line opacity="0.2" x1="313.26822556965755" x2="313.26822556965755" y1="0" y2="30"/><line opacity="0.2" x1="421.13229916715693" x2="421.13229916715693" y1="0" y2="30"/><line opacity="0.2" x1="440.964097803223" x2="440.964097803223" y1="0" y2="30"/><line opacity="0.2" x1="335.4602580090012" x2="335.4602580090012" y1="0" y2="30"/><line opacity="0.2" x1="272.9197956166125" x2="272.9197956166125" y1="0" y2="30"/><line opacity="0.2" x1="311.9962795305825" x2="311.9962795305825" y1="0" y2="30"/><line opacity="0.2" x1="402.5349838683205" x2="402.5349838683205" y1="0" y2="30"/><line opacity="0.2" x1="291.29033579504767" x2="291.29033579504767" y1="0" y2="30"/><line opacity="0.2" x1="385.2479132310626" x2="385.2479132310626" y1="0" y2="30"/><line opacity="0.2" x1="277.7193943469777" x2="277.7193943469777" y1="0" y2="30"/><line opacity="0.2" x1="334.9358704398589" x2="334.9358704398589" y1="0" y2="30"/><line opacity="0.2" x1="435.1714198516163" x2="435.1714198516163" y1="0" y2="30"/><line opacity="0.2" x1="390.7594745987661" x2="390.7594745987661" y1="0" y2="30"/><line opacity="0.2" x1="259.01629600266426" x2="259.01629600266426" y1="0" y2="30"/><line opacity="0.2" x1="179.94879961117826" x2="179.94879961117826" y1="0" y2="30"/><line opacity="0.2" x1="260.1894579521558" x2="260.1894579521558" y1="0" y2="30"/><line opacity="0.2" x1="318.80593214528574" x2="318.80593214528574" y1="0" y2="30"/><line opacity="0.2" x1="461.94883859095034" x2="461.94883859095034" y1="0" y2="30"/><line opacity="0.2" x1="326.9952132669337" x2="326.9952132669337" y1="0" y2="30"/><line opacity="0.2" x1="413.10753863415755" x2="413.10753863415755" y1="0" y2="30"/><line opacity="0.2" x1="154.1270674784341" x2="154.1270674784341" y1="0" y2="30"/><line opacity="0.2" x1="381.15263498938896" x2="381.15263498938896" y1="0" y2="30"/><line opacity="0.2" x1="279.8277255894448" x2="279.8277255894448" y1="0" y2="30"/><line opacity="0.2" x1="396.475804291957" x2="396.475804291957" y1="0" y2="30"/><line opacity="0.2" x1="501.9800391165819" x2="501.9800391165819" y1="0" y2="30"/><line opacity="0.2" x1="413.0632243630643" x2="413.0632243630643" y1="0" y2="30"/><line opacity="0.2" x1="246.65025849758933" x2="246.65025849758933" y1="0" y2="30"/><line opacity="0.2" x1="486.14042643800843" x2="486.14042643800843" y1="0" y2="30"/><line opacity="0.2" x1="325.3762764098161" x2="325.3762764098161" y1="0" y2="30"/><line opacity="0.2" x1="298.8528347500765" x2="298.8528347500765" y1="0" y2="30"/><line opacity="0.2" x1="212.58922711354165" x2="212.58922711354165" y1="0" y2="30"/><line opacity="0.2" x1="389.1228084733455" x2="389.1228084733455" y1="0" y2="30"/><line opacity="0.2" x1="315.10437604628186" x2="315.10437604628186" y1="0" y2="30"/><line opacity="0.2" x1="359.59509738604714" x2="359.59509738604714" y1="0" y2="30"/><line opacity="0.2" x1="438.3117123570962" x2="438.3117123570962" y1="0" y2="30"/><line opacity="0.2" x1="275.57997918722134" x2="275.57997918722134" y1="0" y2="30"/><line opacity="0.2" x1="502.7469087831711" x2="502.7469087831711" y1="0" y2="30"/><line opacity="0.2" x1="309.78080938489524" x2="309.78080938489524" y1="0" y2="30"/><line opacity="0.2" x1="353.6826953609763" x2="353.6826953609763" y1="0" y2="30"/><line opacity="0.2" x1="256.14082821970266" x2="256.14082821970266" y1="0" y2="30"/><line opacity="0.2" x1="291.1549511224828" x2="291.1549511224828" y1="0" y2="30"/><line opacity="0.2" x1="290.7659774775809" x2="290.7659774775809" y1="0" y2="30"/><line opacity="0.2" x1="305.85743280484706" x2="305.85743280484706" y1="0" y2="30"/><line opacity="0.2" x1="345.14782585836247" x2="345.14782585836247" y1="0" y2="30"/><line opacity="0.2" x1="351.985295013607" x2="351.985295013607" y1="0" y2="30"/><line opacity="0.2" x1="413.2157052356735" x2="413.2157052356735" y1="0" y2="30"/><line opacity="0.2" x1="398.10896613689863" x2="398.10896613689863" y1="0" y2="30"/><line opacity="0.2" x1="510.71134847180866" x2="510.71134847180866" y1="0" y2="30"/><line opacity="0.2" x1="341.8745714989886" x2="341.8745714989886" y1="0" y2="30"/><line opacity="0.2" x1="358.8091224157085" x2="358.8091224157085" y1="0" y2="30"/><line opacity="0.2" x1="368.66648865975543" x2="368.66648865975543" y1="0" y2="30"/><line opacity="0.2" x1="325.8969424934193" x2="325.8969424934193" y1="0" y2="30"/><line opacity="0.2" x1="402.41834089407257" x2="402.41834089407257" y1="0" y2="30"/><line opacity="0.2" x1="350.1162113460029" x2="350.1162113460029" y1="0" y2="30"/><line opacity="0.2" x1="391.7722785647728" x2="391.7722785647728" y1="0" y2="30"/><line opacity="0.2" x1="313.11334733300896" x2="313.11334733300896" y1="0" y2="30"/><line opacity="0.2" x1="306.6536833437575" x2="306.6536833437575" y1="0" y2="30"/><line opacity="0.2" x1="217.46263744078885" x2="217.46263744078885" y1="0" y2="30"/><line opacity="0.2" x1="328.13259747909643" x2="328.13259747909643" y1="0" y2="30"/><line opacity="0.2" x1="297.4539662302318" x2="297.4539662302318" y1="0" y2="30"/><line opacity="0.2" x1="407.6896470427476" x2="407.6896470427476" y1="0" y2="30"/><line opacity="0.2" x1="348.59300066297914" x2="348.59300066297914" y1="0" y2="30"/><line opacity="0.2" x1="290.2428055484868" x2="290.2428055484868" y1="0" y2="30"/><line opacity="0.2" x1="274.866394466795" x2="274.866394466795" y1="0" y2="30"/><line opacity="0.2" x1="344.85346420217803" x2="344.85346420217803" y1="0" y2="30"/><line opacity="0.2" x1="378.6893849236291" x2="378.6893849236291" y1="0" y2="30"/><line opacity="0.2" x1="243.9472209968942" x2="243.9472209968942" y1="0" y2="30"/><line opacity="0.2" x1="535.1068008351143" x2="535.1068008351143" y1="0" y2="30"/><line opacity="0.2" x1="422.7448166989187" x2="422.7448166989187" y1="0" y2="30"/><line opacity="0.2" x1="445.03744802935864" x2="445.03744802935864" y1="0" y2="30"/><line opacity="0.2" x1="273.00852247645525" x2="273.00852247645525" y1="0" y2="30"/><line opacity="0.2" x1="361.75497099665716" x2="361.75497099665716" y1="0" y2="30"/><line opacity="0.2" x1="387.696987112267" x2="387.696987112267" y1="0" y2="30"/><line opacity="0.2" x1="313.81208482155887" x2="313.81208482155887" y1="0" y2="30"/><line opacity="0.2" x1="336.6275088058834" x2="336.6275088058834" y1="0" y2="30"/><line opacity="0.2" x1="189.43996221038554" x2="189.43996221038554" y1="0" y2="30"/><line opacity="0.2" x1="233.39682093051252" x2="233.39682093051252" y1="0" y2="30"/><line opacity="0.2" x1="263.9134699144446" x2="263.9134699144446" y1="0" y2="30"/><line opacity="0.2" x1="325.9402596994245" x2="325.9402596994245" y1="0" y2="30"/><line opacity="0.2" x1="264.8397344073469" x2="264.8397344073469" y1="0" y2="30"/><line opacity="0.2" x1="263.965500950425" x2="263.965500950425" y1="0" y2="30"/><line opacity="0.2" x1="351.6833450249745" x2="351.6833450249745" y1="0" y2="30"/><line opacity="0.2" x1="322.59379087879574" x2="322.59379087879574" y1="0" y2="30"/><line opacity="0.2" x1="395.3819988711802" x2="395.3819988711802" y1="0" y2="30"/><line opacity="0.2" x1="382.7326112063639" x2="382.7326112063639" y1="0" y2="30"/><line opacity="0.2" x1="317.80214319170426" x2="317.80214319170426" y1="0" y2="30"/><line opacity="0.2" x1="477.5808556438979" x2="477.5808556438979" y1="0" y2="30"/><line opacity="0.2" x1="332.74084315970856" x2="332.74084315970856" y1="0" y2="30"/><line opacity="0.2" x1="358.48983144212986" x2="358.48983144212986" y1="0" y2="30"/><line opacity="0.2" x1="356.0024297955436" x2="356.0024297955436" y1="0" y2="30"/><line opacity="0.2" x1="293.68466257025045" x2="293.68466257025045" y1="0" y2="30"/><line opacity="0.2" x1="190.70828307882135" x2="190.70828307882135" y1="0" y2="30"/><line opacity="0.2" x1="378.88104238832295" x2="378.88104238832295" y1="0" y2="30"/><line opacity="0.2" x1="267.30264425986013" x2="267.30264425986013" y1="0" y2="30"/><line opacity="0.2" x1="376.3532542696979" x2="376.3532542696979" y1="0" y2="30"/><line opacity="0.2" x1="202.35831759625842" x2="202.35831759625842" y1="0" y2="30"/><line opacity="0.2" x1="336.8781356703945" x2="336.8781356703945" y1="0" y2="30"/><line opacity="0.2" x1="428.7173869298031" x2="428.7173869298031" y1="0" y2="30"/><line opacity="0.2" x1="395.6394720408082" x2="395.6394720408082" y1="0" y2="30"/><line opacity="0.2" x1="378.3133081833504" x2="378.3133081833504" y1="0" y2="30"/><line opacity="0.2" x1="227.81978998451189" x2="227.81978998451189" y1="0" y2="30"/><line opacity="0.2" x1="513.3329410747132" x2="513.3329410747132" y1="0" y2="30"/><line opacity="0.2" x1="384.33124672841967" x2="384.33124672841967" y1="0" y2="30"/><line opacity="0.2" x1="400.5957542595624" x2="400.5957542595624" y1="0" y2="30"/><line opacity="0.2" x1="476.73799517545825" x2="476.73799517545825" y1="0" y2="30"/><line opacity="0.2" x1="373.5202506755899" x2="373.5202506755899" y1="0" y2="30"/><line opacity="0.2" x1="407.0763435303568" x2="407.0763435303568" y1="0" y2="30"/><line opacity="0.2" x1="318.86544001134087" x2="318.86544001134087" y1="0" y2="30"/><line opacity="0.2" x1="337.8779236043763" x2="337.8779236043763" y1="0" y2="30"/><line opacity="0.2" x1="539.6062829931224" x2="539.6062829931224" y1="0" y2="30"/><line opacity="0.2" x1="342.9821822399111" x2="342.9821822399111" y1="0" y2="30"/><line opacity="0.2" x1="458.36601166736676" x2="458.36601166736676" y1="0" y2="30"/><line opacity="0.2" x1="432.84214553216714" x2="432.84214553216714" y1="0" y2="30"/><line opacity="0.2" x1="219.45303194054068" x2="219.45303194054068" y1="0" y2="30"/><line opacity="0.2" x1="316.5595234694654" x2="316.5595234694654" y1="0" y2="30"/><line opacity="0.2" x1="304.19306175338073" x2="304.19306175338073" y1="0" y2="30"/><line opacity="0.2" x1="311.37497833891666" x2="311.37497833891666" y1="0" y2="30"/><line opacity="0.2" x1="466.7843899550053" x2="466.7843899550053" y1="0" y2="30"/><line opacity="0.2" x1="292.01326995896227" x2="292.01326995896227" y1="0" y2="30"/><line opacity="0.2" x1="408.56890428755787" x2="408.56890428755787" y1="0" y2="30"/><line opacity="0.2" x1="299.74479426875774" x2="299.74479426875774" y1="0" y2="30"/><line opacity="0.2" x1="269.78211037705154" x2="269.78211037705154" y1="0" y2="30"/><line opacity="0.2" x1="257.2160351708221" x2="257.2160351708221" y1="0" y2="30"/><line opacity="0.2" x1="397.2839912477681" x2="397.2839912477681" y1="0" y2="30"/><line opacity="0.2" x1="467.4338715194421" x2="467.4338715194421" y1="0" y2="30"/><line opacity="0.2" x1="380.17069234275687" x2="380.17069234275687" y1="0" y2="30"/><line opacity="0.2" x1="287.33344675177517" x2="287.33344675177517" y1="0" y2="30"/><line opacity="0.2" x1="270.171287098636" x2="270.171287098636" y1="0" y2="30"/><line opacity="0.2" x1="429.50782910918656" x2="429.50782910918656" y1="0" y2="30"/><line opacity="0.2" x1="246.93903506079826" x2="246.93903506079826" y1="0" y2="30"/><line opacity="0.2" x1="427.6869811233491" x2="427.6869811233491" y1="0" y2="30"/><line opacity="0.2" x1="174.16038732639527" x2="174.16038732639527" y1="0" y2="30"/><line opacity="0.2" x1="375.9030135641128" x2="375.9030135641128" y1="0" y2="30"/><line opacity="0.2" x1="285.6069425323279" x2="285.6069425323279" y1="0" y2="30"/><line opacity="0.2" x1="410.7774544412295" x2="410.7774544412295" y1="0" y2="30"/><line opacity="0.2" x1="415.15040920875254" x2="415.15040920875254" y1="0" y2="30"/><line opacity="0.2" x1="339.5739761595289" x2="339.5739761595289" y1="0" y2="30"/><line opacity="0.2" x1="348.13981396645636" x2="348.13981396645636" y1="0" y2="30"/><line opacity="0.2" x1="342.1402285319824" x2="342.1402285319824" y1="0" y2="30"/><line opacity="0.2" x1="380.4767945438304" x2="380.4767945438304" y1="0" y2="30"/><line opacity="0.2" x1="486.6134788853953" x2="486.6134788853953" y1="0" y2="30"/><line opacity="0.2" x1="307.8813633471807" x2="307.8813633471807" y1="0" y2="30"/><line opacity="0.2" x1="496.0116405297109" x2="496.0116405297109" y1="0" y2="30"/><line opacity="0.2" x1="304.07454757891605" x2="304.07454757891605" y1="0" y2="30"/><line opacity="0.2" x1="357.5935509761128" x2="357.5935509761128" y1="0" y2="30"/><line opacity="0.2" x1="305.0917480145521" x2="305.0917480145521" y1="0" y2="30"/><line opacity="0.2" x1="394.00375865040013" x2="394.00375865040013" y1="0" y2="30"/><line opacity="0.2" x1="262.6761382982311" x2="262.6761382982311" y1="0" y2="30"/><line opacity="0.2" x1="390.9526448542956" x2="390.9526448542956" y1="0" y2="30"/><line opacity="0.2" x1="387.85794784750493" x2="387.85794784750493" y1="0" y2="30"/><line opacity="0.2" x1="295.3829159485041" x2="295.3829159485041" y1="0" y2="30"/><line opacity="0.2" x1="352.08205549530817" x2="352.08205549530817" y1="0" y2="30"/><line opacity="0.2" x1="220.40062485799305" x2="220.40062485799305" y1="0" y2="30"/><line opacity="0.2" x1="433.2580201026532" x2="433.2580201026532" y1="0" y2="30"/><line opacity="0.2" x1="346.03282430874856" x2="346.03282430874856" y1="0" y2="30"/><line opacity="0.2" x1="323.02567906151705" x2="323.02567906151705" y1="0" y2="30"/><line opacity="0.2" x1="312.119843928431" x2="312.119843928431" y1="0" y2="30"/><line opacity="0.2" x1="296.42452296626794" x2="296.42452296626794" y1="0" y2="30"/><line opacity="0.2" x1="306.2747516765535" x2="306.2747516765535" y1="0" y2="30"/><line opacity="0.2" x1="378.71112857507575" x2="378.71112857507575" y1="0" y2="30"/><line opacity="0.2" x1="418.5113936738375" x2="418.5113936738375" y1="0" y2="30"/><line opacity="0.2" x1="415.73364253708684" x2="415.73364253708684" y1="0" y2="30"/><line opacity="0.2" x1="356.1276211853968" x2="356.1276211853968" y1="0" y2="30"/><line opacity="0.2" x1="377.5008127439831" x2="377.5008127439831" y1="0" y2="30"/><line opacity="0.2" x1="251.75503686077596" x2="251.75503686077596" y1="0" y2="30"/><line opacity="0.2" x1="436.16559641720573" x2="436.16559641720573" y1="0" y2="30"/><line opacity="0.2" x1="414.0615263499827" x2="414.0615263499827" y1="0" y2="30"/><line opacity="0.2" x1="535.4751037100528" x2="535.4751037100528" y1="0" y2="30"/><line opacity="0.2" x1="398.7362372017893" x2="398.7362372017893" y1="0" y2="30"/><line opacity="0.2" x1="502.9725449097863" x2="502.9725449097863" y1="0" y2="30"/><line opacity="0.2" x1="401.9145857522981" x2="401.9145857522981" y1="0" y2="30"/><line opacity="0.2" x1="440.00521563038257" x2="440.00521563038257" y1="0" y2="30"/><line opacity="0.2" x1="409.24431795253895" x2="409.24431795253895" y1="0" y2="30"/><line opacity="0.2" x1="479.36420054111954" x2="479.36420054111954" y1="0" y2="30"/><line opacity="0.2" x1="421.1948110231019" x2="421.1948110231019" y1="0" y2="30"/><line opacity="0.2" x1="493.99717540695195" x2="493.99717540695195" y1="0" y2="30"/><line opacity="0.2" x1="233.85948029391383" x2="233.85948029391383" y1="0" y2="30"/><line opacity="0.2" x1="199.69320700147267" x2="199.69320700147267" y1="0" y2="30"/><line opacity="0.2" x1="410.61454339236667" x2="410.61454339236667" y1="0" y2="30"/><line opacity="0.2" x1="304.06969371878404" x2="304.06969371878404" y1="0" y2="30"/><line opacity="0.2" x1="282.31676024460654" x2="282.31676024460654" y1="0" y2="30"/><line opacity="0.2" x1="455.3173830392792" x2="455.3173830392792" y1="0" y2="30"/><line opacity="0.2" x1="451.95587977229167" x2="451.95587977229167" y1="0" y2="30"/><line opacity="0.2" x1="336.20931838513326" x2="336.20931838513326" y1="0" y2="30"/><line opacity="0.2" x1="446.14313889579364" x2="446.14313889579364" y1="0" y2="30"/><line opacity="0.2" x1="183.57386806510686" x2="183.57386806510686" y1="0" y2="30"/><line opacity="0.2" x1="420.8245667490476" x2="420.8245667490476" y1="0" y2="30"/><line opacity="0.2" x1="237.310923923992" x2="237.310923923992" y1="0" y2="30"/><line opacity="0.2" x1="525.9131152792897" x2="525.9131152792897" y1="0" y2="30"/><line opacity="0.2" x1="276.0280627847339" x2="276.0280627847339" y1="0" y2="30"/><line opacity="0.2" x1="225.01774642704493" x2="225.01774642704493" y1="0" y2="30"/><line opacity="0.2" x1="261.15228141400945" x2="261.15228141400945" y1="0" y2="30"/><line opacity="0.2" x1="313.8206155916988" x2="313.8206155916988" y1="0" y2="30"/><line opacity="0.2" x1="325.43048882038846" x2="325.43048882038846" y1="0" y2="30"/><line opacity="0.2" x1="327.87665583786975" x2="327.87665583786975" y1="0" y2="30"/><line opacity="0.2" x1="330.3830184997644" x2="330.3830184997644" y1="0" y2="30"/><line opacity="0.2" x1="392.6313597912502" x2="392.6313597912502" y1="0" y2="30"/><line opacity="0.2" x1="296.50007045126796" x2="296.50007045126796" y1="0" y2="30"/><line opacity="0.2" x1="454.78863904501793" x2="454.78863904501793" y1="0" y2="30"/><line opacity="0.2" x1="280.316072194507" x2="280.316072194507" y1="0" y2="30"/><line opacity="0.2" x1="331.87964812301277" x2="331.87964812301277" y1="0" y2="30"/><line opacity="0.2" x1="371.13211033907226" x2="371.13211033907226" y1="0" y2="30"/><line opacity="0.2" x1="264.0493727289816" x2="264.0493727289816" y1="0" y2="30"/><line opacity="0.2" x1="387.2121029432125" x2="387.2121029432125" y1="0" y2="30"/><line opacity="0.2" x1="370.87645477184543" x2="370.87645477184543" y1="0" y2="30"/><line opacity="0.2" x1="435.88042342029826" x2="435.88042342029826" y1="0" y2="30"/><line opacity="0.2" x1="390.31625569105785" x2="390.31625569105785" y1="0" y2="30"/><line opacity="0.2" x1="370.74664845776033" x2="370.74664845776033" y1="0" y2="30"/><line opacity="0.2" x1="336.38640146094826" x2="336.38640146094826" y1="0" y2="30"/><line opacity="0.2" x1="384.4181318530437" x2="384.4181318530437" y1="0" y2="30"/><line opacity="0.2" x1="311.1517249589062" x2="311.1517249589062" y1="0" y2="30"/><line opacity="0.2" x1="413.4099797810821" x2="413.4099797810821" y1="0" y2="30"/><line opacity="0.2" x1="453.6363231997007" x2="453.6363231997007" y1="0" y2="30"/><line opacity="0.2" x1="305.1298987725655" x2="305.1298987725655" y1="0" y2="30"/><line opacity="0.2" x1="393.16329553275636" x2="393.16329553275636" y1="0" y2="30"/><line opacity="0.2" x1="397.72834121479747" x2="397.72834121479747" y1="0" y2="30"/><line opacity="0.2" x1="331.9043547631305" x2="331.9043547631305" y1="0" y2="30"/><line opacity="0.2" x1="418.82451021680555" x2="418.82451021680555" y1="0" y2="30"/><line opacity="0.2" x1="285.6817750104725" x2="285.6817750104725" y1="0" y2="30"/><line opacity="0.2" x1="334.41303559105523" x2="334.41303559105523" y1="0" y2="30"/><line opacity="0.2" x1="306.030905629733" x2="306.030905629733" y1="0" y2="30"/><line opacity="0.2" x1="296.75414776185386" x2="296.75414776185386" y1="0" y2="30"/><line opacity="0.2" x1="441.8669410206445" x2="441.8669410206445" y1="0" y2="30"/><line opacity="0.2" x1="448.55185466775947" x2="448.55185466775947" y1="0" y2="30"/><line opacity="0.2" x1="273.02848838936865" x2="273.02848838936865" y1="0" y2="30"/><line opacity="0.2" x1="261.59443297890243" x2="261.59443297890243" y1="0" y2="30"/><line opacity="0.2" x1="208.9057892080448" x2="208.9057892080448" y1="0" y2="30"/><line opacity="0.2" x1="383.7108996529529" x2="383.7108996529529" y1="0" y2="30"/><line opacity="0.2" x1="467.3662645913897" x2="467.3662645913897" y1="0" y2="30"/><line opacity="0.2" x1="486.37417698288124" x2="486.37417698288124" y1="0" y2="30"/><line opacity="0.2" x1="396.6817306291241" x2="396.6817306291241" y1="0" y2="30"/><line opacity="0.2" x1="408.50706102768044" x2="408.50706102768044" y1="0" y2="30"/><line opacity="0.2" x1="331.9230492179488" x2="331.9230492179488" y1="0" y2="30"/><line opacity="0.2" x1="343.4958821602864" x2="343.4958821602864" y1="0" y2="30"/><line opacity="0.2" x1="265.45045587420634" x2="265.45045587420634" y1="0" y2="30"/><line opacity="0.2" x1="483.3941399902679" x2="483.3941399902679" y1="0" y2="30"/><line opacity="0.2" x1="289.3050345818114" x2="289.3050345818114" y1="0" y2="30"/><line opacity="0.2" x1="287.46391760661425" x2="287.46391760661425" y1="0" y2="30"/><line opacity="0.2" x1="357.5027020572178" x2="357.5027020572178" y1="0" y2="30"/><line opacity="0.2" x1="385.59712263515934" x2="385.59712263515934" y1="0" y2="30"/><line opacity="0.2" x1="386.87899358063294" x2="386.87899358063294" y1="0" y2="30"/><line opacity="0.2" x1="298.84165036693383" x2="298.84165036693383" y1="0" y2="30"/><line opacity="0.2" x1="318.9296457526077" x2="318.9296457526077" y1="0" y2="30"/><line opacity="0.2" x1="251.69417470174972" x2="251.69417470174972" y1="0" y2="30"/><line opacity="0.2" x1="415.3244938456815" x2="415.3244938456815" y1="0" y2="30"/><line opacity="0.2" x1="208.19616452438515" x2="208.19616452438515" y1="0" y2="30"/><line opacity="0.2" x1="287.72736206601286" x2="287.72736206601286" y1="0" y2="30"/><line opacity="0.2" x1="337.57730099748005" x2="337.57730099748005" y1="0" y2="30"/><line opacity="0.2" x1="352.8248266855543" x2="352.8248266855543" y1="0" y2="30"/><line opacity="0.2" x1="445.35364731170046" x2="445.35364731170046" y1="0" y2="30"/><line opacity="0.2" x1="384.82915120915845" x2="384.82915120915845" y1="0" y2="30"/><line opacity="0.2" x1="376.2747685496885" x2="376.2747685496885" y1="0" y2="30"/><line opacity="0.2" x1="324.037282460488" x2="324.037282460488" y1="0" y2="30"/><line opacity="0.2" x1="212.90996046749999" x2="212.90996046749999" y1="0" y2="30"/><line opacity="0.2" x1="266.45460700356915" x2="266.45460700356915" y1="0" y2="30"/><line opacity="0.2" x1="476.5137298129971" x2="476.5137298129971" y1="0" y2="30"/><line opacity="0.2" x1="281.5696521724176" x2="281.5696521724176" y1="0" y2="30"/><line opacity="0.2" x1="319.9475865367557" x2="319.9475865367557" y1="0" y2="30"/><line opacity="0.2" x1="248.03260926498962" x2="248.03260926498962" y1="0" y2="30"/><line opacity="0.2" x1="368.8192622562674" x2="368.8192622562674" y1="0" y2="30"/><line opacity="0.2" x1="313.9938963465891" x2="313.9938963465891" y1="0" y2="30"/><line opacity="0.2" x1="366.68999131832487" x2="366.68999131832487" y1="0" y2="30"/><line opacity="0.2" x1="387.85442926630725" x2="387.85442926630725" y1="0" y2="30"/><line opacity="0.2" x1="307.87473377781834" x2="307.87473377781834" y1="0" y2="30"/><line opacity="0.2" x1="502.43325833241477" x2="502.43325833241477" y1="0" y2="30"/><line opacity="0.2" x1="276.30535961463744" x2="276.30535961463744" y1="0" y2="30"/><line opacity="0.2" x1="437.948901118717" x2="437.948901118717" y1="0" y2="30"/><line opacity="0.2" x1="259.3087821226224" x2="259.3087821226224" y1="0" y2="30"/><line opacity="0.2" x1="441.42426771807715" x2="441.42426771807715" y1="0" y2="30"/><line opacity="0.2" x1="463.23867445195776" x2="463.23867445195776" y1="0" y2="30"/><line opacity="0.2" x1="230.19285883476613" x2="230.19285883476613" y1="0" y2="30"/><line opacity="0.2" x1="453.1995484876108" x2="453.1995484876108" y1="0" y2="30"/><line opacity="0.2" x1="484.61034057580525" x2="484.61034057580525" y1="0" y2="30"/><line opacity="0.2" x1="402.0574808984679" x2="402.0574808984679" y1="0" y2="30"/><line opacity="0.2" x1="471.89318294794765" x2="471.89318294794765" y1="0" y2="30"/><line opacity="0.2" x1="367.3245276812191" x2="367.3245276812191" y1="0" y2="30"/><line opacity="0.2" x1="252.19146124111768" x2="252.19146124111768" y1="0" y2="30"/><line opacity="0.2" x1="299.16474225330325" x2="299.16474225330325" y1="0" y2="30"/><line opacity="0.2" x1="265.0394307060867" x2="265.0394307060867" y1="0" y2="30"/><line opacity="0.2" x1="232.4606027478843" x2="232.4606027478843" y1="0" y2="30"/><line opacity="0.2" x1="323.71571419459383" x2="323.71571419459383" y1="0" y2="30"/><line opacity="0.2" x1="342.2271978714001" x2="342.2271978714001" y1="0" y2="30"/><line opacity="0.2" x1="413.052312109675" x2="413.052312109675" y1="0" y2="30"/><line opacity="0.2" x1="408.04504099216194" x2="408.04504099216194" y1="0" y2="30"/><line opacity="0.2" x1="343.7538002959511" x2="343.7538002959511" y1="0" y2="30"/><line opacity="0.2" x1="428.09984287659165" x2="428.09984287659165" y1="0" y2="30"/><line opacity="0.2" x1="339.8626607818798" x2="339.8626607818798" y1="0" y2="30"/><line opacity="0.2" x1="311.56159755829407" x2="311.56159755829407" y1="0" y2="30"/><line opacity="0.2" x1="384.7160953398097" x2="384.7160953398097" y1="0" y2="30"/><line opacity="0.2" x1="238.45167899953782" x2="238.45167899953782" y1="0" y2="30"/><line opacity="0.2" x1="349.857823733817" x2="349.857823733817" y1="0" y2="30"/><line opacity="0.2" x1="422.4814141176929" x2="422.4814141176929" y1="0" y2="30"/><line opacity="0.2" x1="314.89986534106066" x2="314.89986534106066" y1="0" y2="30"/><line opacity="0.2" x1="341.96433136529765" x2="341.96433136529765" y1="0" y2="30"/><line opacity="0.2" x1="415.47717816577426" x2="415.47717816577426" y1="0" y2="30"/><line opacity="0.2" x1="321.5397612119719" x2="321.5397612119719" y1="0" y2="30"/><line opacity="0.2" x1="375.3225324180424" x2="375.3225324180424" y1="0" y2="30"/><line opacity="0.2" x1="458.2526900368504" x2="458.2526900368504" y1="0" y2="30"/><line opacity="0.2" x1="506.61379224660874" x2="506.61379224660874" y1="0" y2="30"/><line opacity="0.2" x1="296.84456143425604" x2="296.84456143425604" y1="0" y2="30"/><line opacity="0.2" x1="297.91309243776493" x2="297.91309243776493" y1="0" y2="30"/><line opacity="0.2" x1="375.9076030357718" x2="375.9076030357718" y1="0" y2="30"/><line opacity="0.2" x1="281.3665628933555" x2="281.3665628933555" y1="0" y2="30"/><line opacity="0.2" x1="390.2530701648153" x2="390.2530701648153" y1="0" y2="30"/><line opacity="0.2" x1="401.3654392440284" x2="401.3654392440284" y1="0" y2="30"/><line opacity="0.2" x1="314.5556497186726" x2="314.5556497186726" y1="0" y2="30"/><line opacity="0.2" x1="375.2388107832892" x2="375.2388107832892" y1="0" y2="30"/><line opacity="0.2" x1="431.1194717723739" x2="431.1194717723739" y1="0" y2="30"/><line opacity="0.2" x1="362.041132969382" x2="362.041132969382" y1="0" y2="30"/><line opacity="0.2" x1="270.22239296063094" x2="270.22239296063094" y1="0" y2="30"/><line opacity="0.2" x1="237.9885630643064" x2="237.9885630643064" y1="0" y2="30"/><line opacity="0.2" x1="238.16293437419898" x2="238.16293437419898" y1="0" y2="30"/><line opacity="0.2" x1="324.5678670001648" x2="324.5678670001648" y1="0" y2="30"/><line opacity="0.2" x1="310.89174940373323" x2="310.89174940373323" y1="0" y2="30"/><line opacity="0.2" x1="282.27812019751116" x2="282.27812019751116" y1="0" y2="30"/><line opacity="0.2" x1="183.9883488192093" x2="183.9883488192093" y1="0" y2="30"/><line opacity="0.2" x1="234.5905511625851" x2="234.5905511625851" y1="0" y2="30"/><line opacity="0.2" x1="221.99997811799417" x2="221.99997811799417" y1="0" y2="30"/><line opacity="0.2" x1="348.46450538304447" x2="348.46450538304447" y1="0" y2="30"/><line opacity="0.2" x1="412.3539181073071" x2="412.3539181073071" y1="0" y2="30"/><line opacity="0.2" x1="351.8098986923657" x2="351.8098986923657" y1="0" y2="30"/><line opacity="0.2" x1="288.8452015636592" x2="288.8452015636592" y1="0" y2="30"/><line opacity="0.2" x1="413.09180927164766" x2="413.09180927164766" y1="0" y2="30"/><line opacity="0.2" x1="443.677187327938" x2="443.677187327938" y1="0" y2="30"/><line opacity="0.2" x1="350.2656430502038" x2="350.2656430502038" y1="0" y2="30"/><line opacity="0.2" x1="348.3106040084166" x2="348.3106040084166" y1="0" y2="30"/><line opacity="0.2" x1="188.7623805351763" x2="188.7623805351763" y1="0" y2="30"/><line opacity="0.2" x1="356.2919996578531" x2="356.2919996578531" y1="0" y2="30"/><line opacity="0.2" x1="319.7129311766228" x2="319.7129311766228" y1="0" y2="30"/><line opacity="0.2" x1="146.7850793223037" x2="146.7850793223037" y1="0" y2="30"/><line opacity="0.2" x1="320.20164572978126" x2="320.20164572978126" y1="0" y2="30"/><line opacity="0.2" x1="369.14244367370054" x2="369.14244367370054" y1="0" y2="30"/><line opacity="0.2" x1="374.57468415118086" x2="374.57468415118086" y1="0" y2="30"/><line opacity="0.2" x1="256.0160984358422" x2="256.0160984358422" y1="0" y2="30"/><line opacity="0.2" x1="374.85111751147963" x2="374.85111751147963" y1="0" y2="30"/><line opacity="0.2" x1="220.05118153712294" x2="220.05118153712294" y1="0" y2="30"/><line opacity="0.2" x1="370.8086062673401" x2="370.8086062673401" y1="0" y2="30"/><line opacity="0.2" x1="393.25741323697764" x2="393.25741323697764" y1="0" y2="30"/><line opacity="0.2" x1="515.0789306657532" x2="515.0789306657532" y1="0" y2="30"/><line opacity="0.2" x1="279.55868060071253" x2="279.55868060071253" y1="0" y2="30"/><line opacity="0.2" x1="354.08585576408217" x2="354.08585576408217" y1="0" y2="30"/><line opacity="0.2" x1="239.67795613562643" x2="239.67795613562643" y1="0" y2="30"/><line opacity="0.2" x1="382.4354500814206" x2="382.4354500814206" y1="0" y2="30"/><line opacity="0.2" x1="320.54964635430923" x2="320.54964635430923" y1="0" y2="30"/><line opacity="0.2" x1="317.0871528852339" x2="317.0871528852339" y1="0" y2="30"/><line opacity="0.2" x1="360.6673517354892" x2="360.6673517354892" y1="0" y2="30"/><line opacity="0.2" x1="427.50413032975314" x2="427.50413032975314" y1="0" y2="30"/><line opacity="0.2" x1="301.73301282737293" x2="301.73301282737293" y1="0" y2="30"/><line opacity="0.2" x1="457.08062892111957" x2="457.08062892111957" y1="0" y2="30"/><line opacity="0.2" x1="355.7129555626332" x2="355.7129555626332" y1="0" y2="30"/><line opacity="0.2" x1="365.54426837974285" x2="365.54426837974285" y1="0" y2="30"/><line opacity="0.2" x1="586.7321247085426" x2="586.7321247085426" y1="0" y2="30"/><line opacity="0.2" x1="322.0140266288476" x2="322.0140266288476" y1="0" y2="30"/><line opacity="0.2" x1="294.3452643566094" x2="294.3452643566094" y1="0" y2="30"/><line opacity="0.2" x1="290.30943854175314" x2="290.30943854175314" y1="0" y2="30"/><line opacity="0.2" x1="329.98143360277254" x2="329.98143360277254" y1="0" y2="30"/><line opacity="0.2" x1="510.2382703666978" x2="510.2382703666978" y1="0" y2="30"/><line opacity="0.2" x1="280.81058287402385" x2="280.81058287402385" y1="0" y2="30"/><line opacity="0.2" x1="265.4570826713672" x2="265.4570826713672" y1="0" y2="30"/><line opacity="0.2" x1="365.2688605563885" x2="365.2688605563885" y1="0" y2="30"/><line opacity="0.2" x1="365.8280210141004" x2="365.8280210141004" y1="0" y2="30"/><line opacity="0.2" x1="403.687398537336" x2="403.687398537336" y1="0" y2="30"/><line opacity="0.2" x1="398.08752961570474" x2="398.08752961570474" y1="0" y2="30"/><line opacity="0.2" x1="357.4534585932203" x2="357.4534585932203" y1="0" y2="30"/><line opacity="0.2" x1="275.1302806980043" x2="275.1302806980043" y1="0" y2="30"/><line opacity="0.2" x1="345.559994735633" x2="345.559994735633" y1="0" y2="30"/><line opacity="0.2" x1="300.3529512738871" x2="300.3529512738871" y1="0" y2="30"/><line opacity="0.2" x1="299.40955774926874" x2="299.40955774926874" y1="0" y2="30"/><line opacity="0.2" x1="349.02483321384943" x2="349.02483321384943" y1="0" y2="30"/><line opacity="0.2" x1="330.99302941928346" x2="330.99302941928346" y1="0" y2="30"/><line opacity="0.2" x1="313.1454526723915" x2="313.1454526723915" y1="0" y2="30"/><line opacity="0.2" x1="312.8625066866311" x2="312.8625066866311" y1="0" y2="30"/><line opacity="0.2" x1="392.0956608885624" x2="392.0956608885624" y1="0" y2="30"/><line opacity="0.2" x1="387.6818121717952" x2="387.6818121717952" y1="0" y2="30"/><line opacity="0.2" x1="423.2055212652541" x2="423.2055212652541" y1="0" y2="30"/><line opacity="0.2" x1="429.7868448765982" x2="429.7868448765982" y1="0" y2="30"/><line opacity="0.2" x1="271.00252412088815" x2="271.00252412088815" y1="0" y2="30"/><line opacity="0.2" x1="315.9604077419113" x2="315.9604077419113" y1="0" y2="30"/><line opacity="0.2" x1="424.4190201805437" x2="424.4190201805437" y1="0" y2="30"/><line opacity="0.2" x1="365.75612805284794" x2="365.75612805284794" y1="0" y2="30"/><line opacity="0.2" x1="479.2447129555845" x2="479.2447129555845" y1="0" y2="30"/><line opacity="0.2" x1="457.5530732149985" x2="457.5530732149985" y1="0" y2="30"/><line opacity="0.2" x1="491.4553544812396" x2="491.4553544812396" y1="0" y2="30"/><line opacity="0.2" x1="523.5896408563407" x2="523.5896408563407" y1="0" y2="30"/><line opacity="0.2" x1="259.63904139324075" x2="259.63904139324075" y1="0" y2="30"/><line opacity="0.2" x1="276.7255226607264" x2="276.7255226607264" y1="0" y2="30"/><line opacity="0.2" x1="394.9904042284572" x2="394.9904042284572" y1="0" y2="30"/><line opacity="0.2" x1="384.9021455436106" x2="384.9021455436106" y1="0" y2="30"/><line opacity="0.2" x1="443.8495139856866" x2="443.8495139856866" y1="0" y2="30"/><line opacity="0.2" x1="359.7137502520233" x2="359.7137502520233" y1="0" y2="30"/><line opacity="0.2" x1="176.44829927315308" x2="176.44829927315308" y1="0" y2="30"/><line opacity="0.2" x1="242.55914965757208" x2="242.55914965757208" y1="0" y2="30"/><line opacity="0.2" x1="358.57567342719494" x2="358.57567342719494" y1="0" y2="30"/><line opacity="0.2" x1="383.491879310366" x2="383.491879310366" y1="0" y2="30"/><line opacity="0.2" x1="422.4968485738268" x2="422.4968485738268" y1="0" y2="30"/><line opacity="0.2" x1="332.3056635549472" x2="332.3056635549472" y1="0" y2="30"/><line opacity="0.2" x1="376.5984248176411" x2="376.5984248176411" y1="0" y2="30"/><line opacity="0.2" x1="450.5342384068538" x2="450.5342384068538" y1="0" y2="30"/><line opacity="0.2" x1="334.7993993559304" x2="334.7993993559304" y1="0" y2="30"/><line opacity="0.2" x1="346.0139389687108" x2="346.0139389687108" y1="0" y2="30"/><line opacity="0.2" x1="228.4230064969928" x2="228.4230064969928" y1="0" y2="30"/><line opacity="0.2" x1="271.09422239875926" x2="271.09422239875926" y1="0" y2="30"/><line opacity="0.2" x1="347.47824703082256" x2="347.47824703082256" y1="0" y2="30"/><line opacity="0.2" x1="453.2366305489885" x2="453.2366305489885" y1="0" y2="30"/><line opacity="0.2" x1="380.71008276930667" x2="380.71008276930667" y1="0" y2="30"/><line opacity="0.2" x1="260.01440750055247" x2="260.01440750055247" y1="0" y2="30"/><line opacity="0.2" x1="393.8596281004703" x2="393.8596281004703" y1="0" y2="30"/><line opacity="0.2" x1="374.4149018221446" x2="374.4149018221446" y1="0" y2="30"/><line opacity="0.2" x1="447.74314645239974" x2="447.74314645239974" y1="0" y2="30"/><line opacity="0.2" x1="367.60518126135145" x2="367.60518126135145" y1="0" y2="30"/><line opacity="0.2" x1="366.6463183208516" x2="366.6463183208516" y1="0" y2="30"/><line opacity="0.2" x1="407.4482171208848" x2="407.4482171208848" y1="0" y2="30"/><line opacity="0.2" x1="436.48339085552783" x2="436.48339085552783" y1="0" y2="30"/><line opacity="0.2" x1="353.65979743137575" x2="353.65979743137575" y1="0" y2="30"/><line opacity="0.2" x1="288.87697798248655" x2="288.87697798248655" y1="0" y2="30"/><line opacity="0.2" x1="377.1518071069057" x2="377.1518071069057" y1="0" y2="30"/><line opacity="0.2" x1="378.815880274298" x2="378.815880274298" y1="0" y2="30"/><line opacity="0.2" x1="344.01310822976063" x2="344.01310822976063" y1="0" y2="30"/><line opacity="0.2" x1="338.4793872531758" x2="338.4793872531758" y1="0" y2="30"/><line opacity="0.2" x1="294.47981421424015" x2="294.47981421424015" y1="0" y2="30"/><line opacity="0.2" x1="331.3595642439085" x2="331.3595642439085" y1="0" y2="30"/><line opacity="0.2" x1="287.1127292001368" x2="287.1127292001368" y1="0" y2="30"/><line opacity="0.2" x1="275.27793187085706" x2="275.27793187085706" y1="0" y2="30"/><line opacity="0.2" x1="362.8032283206596" x2="362.8032283206596" y1="0" y2="30"/><line opacity="0.2" x1="355.6445556049579" x2="355.6445556049579" y1="0" y2="30"/><line opacity="0.2" x1="358.84444443209213" x2="358.84444443209213" y1="0" y2="30"/><line opacity="0.2" x1="362.83498957943965" x2="362.83498957943965" y1="0" y2="30"/><line opacity="0.2" x1="345.3004197123293" x2="345.3004197123293" y1="0" y2="30"/><line opacity="0.2" x1="437.9359551841556" x2="437.9359551841556" y1="0" y2="30"/><line opacity="0.2" x1="328.98054868189087" x2="328.98054868189087" y1="0" y2="30"/><line opacity="0.2" x1="417.37357707381756" x2="417.37357707381756" y1="0" y2="30"/><line opacity="0.2" x1="431.89842658608734" x2="431.89842658608734" y1="0" y2="30"/><line opacity="0.2" x1="347.60039712220004" x2="347.60039712220004" y1="0" y2="30"/><line opacity="0.2" x1="434.31670222248533" x2="434.31670222248533" y1="0" y2="30"/><line opacity="0.2" x1="247.37717008645723" x2="247.37717008645723" y1="0" y2="30"/><line opacity="0.2" x1="283.0336253780174" x2="283.0336253780174" y1="0" y2="30"/><line opacity="0.2" x1="476.13278640852866" x2="476.13278640852866" y1="0" y2="30"/><line opacity="0.2" x1="385.85840457266164" x2="385.85840457266164" y1="0" y2="30"/><line opacity="0.2" x1="305.7788461504574" x2="305.7788461504574" y1="0" y2="30"/><line opacity="0.2" x1="212.54997512027848" x2="212.54997512027848" y1="0" y2="30"/><line opacity="0.2" x1="266.65346224746463" x2="266.65346224746463" y1="0" y2="30"/><line opacity="0.2" x1="264.01880368756827" x2="264.01880368756827" y1="0" y2="30"/><line opacity="0.2" x1="284.8568707995774" x2="284.8568707995774" y1="0" y2="30"/><line opacity="0.2" x1="312.65947681134423" x2="312.65947681134423" y1="0" y2="30"/><line opacity="0.2" x1="338.65069473531054" x2="338.65069473531054" y1="0" y2="30"/><line opacity="0.2" x1="350.93162689125796" x2="350.93162689125796" y1="0" y2="30"/><line opacity="0.2" x1="256.11611433976924" x2="256.11611433976924" y1="0" y2="30"/><line opacity="0.2" x1="435.0898881962701" x2="435.0898881962701" y1="0" y2="30"/><line opacity="0.2" x1="370.8688285021425" x2="370.8688285021425" y1="0" y2="30"/><line opacity="0.2" x1="375.72966832300614" x2="375.72966832300614" y1="0" y2="30"/><line opacity="0.2" x1="430.4643508447266" x2="430.4643508447266" y1="0" y2="30"/><line opacity="0.2" x1="418.7533395610822" x2="418.7533395610822" y1="0" y2="30"/><line opacity="0.2" x1="434.69213800252135" x2="434.69213800252135" y1="0" y2="30"/><line opacity="0.2" x1="254.02586213358762" x2="254.02586213358762" y1="0" y2="30"/><line opacity="0.2" x1="464.4268731148848" x2="464.4268731148848" y1="0" y2="30"/><line opacity="0.2" x1="272.32886771514046" x2="272.32886771514046" y1="0" y2="30"/><line opacity="0.2" x1="404.81314073512425" x2="404.81314073512425" y1="0" y2="30"/><line opacity="0.2" x1="320.0197945286379" x2="320.0197945286379" y1="0" y2="30"/><line opacity="0.2" x1="347.61821291544527" x2="347.61821291544527" y1="0" y2="30"/><line opacity="0.2" x1="333.07749786307454" x2="333.07749786307454" y1="0" y2="30"/><line opacity="0.2" x1="280.7371179218654" x2="280.7371179218654" y1="0" y2="30"/><line opacity="0.2" x1="279.7764443023982" x2="279.7764443023982" y1="0" y2="30"/><line opacity="0.2" x1="466.68127777745144" x2="466.68127777745144" y1="0" y2="30"/><line opacity="0.2" x1="333.14872309962175" x2="333.14872309962175" y1="0" y2="30"/><line opacity="0.2" x1="322.7640377687022" x2="322.7640377687022" y1="0" y2="30"/><line opacity="0.2" x1="254.6468780488274" x2="254.6468780488274" y1="0" y2="30"/><line opacity="0.2" x1="374.8667664359545" x2="374.8667664359545" y1="0" y2="30"/><line opacity="0.2" x1="280.79425307117015" x2="280.79425307117015" y1="0" y2="30"/><line opacity="0.2" x1="214.1912629927922" x2="214.1912629927922" y1="0" y2="30"/><line opacity="0.2" x1="364.61659156749346" x2="364.61659156749346" y1="0" y2="30"/><line opacity="0.2" x1="313.5693220473563" x2="313.5693220473563" y1="0" y2="30"/><line opacity="0.2" x1="317.1160063193227" x2="317.1160063193227" y1="0" y2="30"/><line opacity="0.2" x1="490.81861512761327" x2="490.81861512761327" y1="0" y2="30"/><line opacity="0.2" x1="307.17827989920113" x2="307.17827989920113" y1="0" y2="30"/><line opacity="0.2" x1="377.3623011884051" x2="377.3623011884051" y1="0" y2="30"/><line opacity="0.2" x1="342.3953545422672" x2="342.3953545422672" y1="0" y2="30"/><line opacity="0.2" x1="371.4347439864672" x2="371.4347439864672" y1="0" y2="30"/><line opacity="0.2" x1="287.06310332762587" x2="287.06310332762587" y1="0" y2="30"/><line opacity="0.2" x1="246.95825900595972" x2="246.95825900595972" y1="0" y2="30"/><line opacity="0.2" x1="368.26090980208863" x2="368.26090980208863" y1="0" y2="30"/><line opacity="0.2" x1="396.94399522908924" x2="396.94399522908924" y1="0" y2="30"/><line opacity="0.2" x1="425.2537812336945" x2="425.2537812336945" y1="0" y2="30"/><line opacity="0.2" x1="415.2928859087146" x2="415.2928859087146" y1="0" y2="30"/><line opacity="0.2" x1="330.0299152383125" x2="330.0299152383125" y1="0" y2="30"/><line opacity="0.2" x1="274.73931178498066" x2="274.73931178498066" y1="0" y2="30"/><line opacity="0.2" x1="428.10213056055784" x2="428.10213056055784" y1="0" y2="30"/><line opacity="0.2" x1="457.8989670212122" x2="457.8989670212122" y1="0" y2="30"/><line opacity="0.2" x1="341.6028902690062" x2="341.6028902690062" y1="0" y2="30"/><line opacity="0.2" x1="353.7502312010038" x2="353.7502312010038" y1="0" y2="30"/><line opacity="0.2" x1="289.4645590627294" x2="289.4645590627294" y1="0" y2="30"/><line opacity="0.2" x1="361.6301932070784" x2="361.6301932070784" y1="0" y2="30"/><line opacity="0.2" x1="350.64914086286666" x2="350.64914086286666" y1="0" y2="30"/><line opacity="0.2" x1="348.9395873057398" x2="348.9395873057398" y1="0" y2="30"/><line opacity="0.2" x1="285.2787028428224" x2="285.2787028428224" y1="0" y2="30"/><line opacity="0.2" x1="315.4592908038167" x2="315.4592908038167" y1="0" y2="30"/><line opacity="0.2" x1="497.10923757845984" x2="497.10923757845984" y1="0" y2="30"/><line opacity="0.2" x1="309.40436184541153" x2="309.40436184541153" y1="0" y2="30"/><line opacity="0.2" x1="297.56375213325106" x2="297.56375213325106" y1="0" y2="30"/><line opacity="0.2" x1="311.39309112106724" x2="311.39309112106724" y1="0" y2="30"/><line opacity="0.2" x1="433.453860712852" x2="433.453860712852" y1="0" y2="30"/><line opacity="0.2" x1="405.0337138644048" x2="405.0337138644048" y1="0" y2="30"/><line opacity="0.2" x1="444.60529280647756" x2="444.60529280647756" y1="0" y2="30"/><line opacity="0.2" x1="297.18605551030527" x2="297.18605551030527" y1="0" y2="30"/><line opacity="0.2" x1="354.04042269536683" x2="354.04042269536683" y1="0" y2="30"/><line opacity="0.2" x1="356.36947919637146" x2="356.36947919637146" y1="0" y2="30"/><line opacity="0.2" x1="185.7048880019709" x2="185.7048880019709" y1="0" y2="30"/><line opacity="0.2" x1="534.1622416724953" x2="534.1622416724953" y1="0" y2="30"/><line opacity="0.2" x1="423.21045934073453" x2="423.21045934073453" y1="0" y2="30"/><line opacity="0.2" x1="241.90372523882348" x2="241.90372523882348" y1="0" y2="30"/><line opacity="0.2" x1="330.3611063511071" x2="330.3611063511071" y1="0" y2="30"/><line opacity="0.2" x1="405.7027812094385" x2="405.7027812094385" y1="0" y2="30"/><line opacity="0.2" x1="214.5649735487598" x2="214.5649735487598" y1="0" y2="30"/><line opacity="0.2" x1="278.07657487429697" x2="278.07657487429697" y1="0" y2="30"/><line opacity="0.2" x1="450.58681807203845" x2="450.58681807203845" y1="0" y2="30"/><line opacity="0.2" x1="254.083424779347" x2="254.083424779347" y1="0" y2="30"/><line opacity="0.2" x1="304.3160338570184" x2="304.3160338570184" y1="0" y2="30"/><line opacity="0.2" x1="353.7418043630479" x2="353.7418043630479" y1="0" y2="30"/><line opacity="0.2" x1="376.95232773377273" x2="376.95232773377273" y1="0" y2="30"/><line opacity="0.2" x1="274.46799791653876" x2="274.46799791653876" y1="0" y2="30"/><line opacity="0.2" x1="92.49070912810399" x2="92.49070912810399" y1="0" y2="30"/><line opacity="0.2" x1="288.4827229958089" x2="288.4827229958089" y1="0" y2="30"/><line opacity="0.2" x1="533.5973887810651" x2="533.5973887810651" y1="0" y2="30"/><line opacity="0.2" x1="301.3328029297853" x2="301.3328029297853" y1="0" y2="30"/><line opacity="0.2" x1="288.13357144445683" x2="288.13357144445683" y1="0" y2="30"/><line opacity="0.2" x1="299.9541326996993" x2="299.9541326996993" y1="0" y2="30"/><line opacity="0.2" x1="408.42072414743956" x2="408.42072414743956" y1="0" y2="30"/><line opacity="0.2" x1="336.91611093401764" x2="336.91611093401764" y1="0" y2="30"/><line opacity="0.2" x1="265.4666301805665" x2="265.4666301805665" y1="0" y2="30"/><line opacity="0.2" x1="252.965264070735" x2="252.965264070735" y1="0" y2="30"/><line opacity="0.2" x1="256.5941285481768" x2="256.5941285481768" y1="0" y2="30"/><line opacity="0.2" x1="209.03552139026033" x2="209.03552139026033" y1="0" y2="30"/><line opacity="0.2" x1="325.3574234229425" x2="325.3574234229425" y1="0" y2="30"/><line opacity="0.2" x1="308.2659110902431" x2="308.2659110902431" y1="0" y2="30"/><line opacity="0.2" x1="532.3598354539879" x2="532.3598354539879" y1="0" y2="30"/><line opacity="0.2" x1="415.0339114401616" x2="415.0339114401616" y1="0" y2="30"/><line opacity="0.2" x1="450.7783454719944" x2="450.7783454719944" y1="0" y2="30"/><line opacity="0.2" x1="178.809115443052" x2="178.809115443052" y1="0" y2="30"/><line opacity="0.2" x1="228.7216301832338" x2="228.7216301832338" y1="0" y2="30"/><line opacity="0.2" x1="339.29346444991546" x2="339.29346444991546" y1="0" y2="30"/><line opacity="0.2" x1="223.3338483202701" x2="223.3338483202701" y1="0" y2="30"/><line opacity="0.2" x1="261.4549141756283" x2="261.4549141756283" y1="0" y2="30"/><line opacity="0.2" x1="123.30852456692602" x2="123.30852456692602" y1="0" y2="30"/><line opacity="0.2" x1="352.1801567661804" x2="352.1801567661804" y1="0" y2="30"/><line opacity="0.2" x1="463.06273543987504" x2="463.06273543987504" y1="0" y2="30"/><line opacity="0.2" x1="392.3403217696015" x2="392.3403217696015" y1="0" y2="30"/><line opacity="0.2" x1="377.5688888057123" x2="377.5688888057123" y1="0" y2="30"/><line opacity="0.2" x1="257.13509991545317" x2="257.13509991545317" y1="0" y2="30"/><line opacity="0.2" x1="370.65917544500877" x2="370.65917544500877" y1="0" y2="30"/><line opacity="0.2" x1="408.80993055391355" x2="408.80993055391355" y1="0" y2="30"/><line opacity="0.2" x1="421.2594229991762" x2="421.2594229991762" y1="0" y2="30"/><line opacity="0.2" x1="328.17079295664917" x2="328.17079295664917" y1="0" y2="30"/><line opacity="0.2" x1="185.26246012931472" x2="185.26246012931472" y1="0" y2="30"/><line opacity="0.2" x1="327.2473265195891" x2="327.2473265195891" y1="0" y2="30"/><line opacity="0.2" x1="378.9311649122267" x2="378.9311649122267" y1="0" y2="30"/><line opacity="0.2" x1="351.8400454989017" x2="351.8400454989017" y1="0" y2="30"/><line opacity="0.2" x1="300.88102726686395" x2="300.88102726686395" y1="0" y2="30"/><line opacity="0.2" x1="326.3350009904898" x2="326.3350009904898" y1="0" y2="30"/><line opacity="0.2" x1="221.0214166882974" x2="221.0214166882974" y1="0" y2="30"/><line opacity="0.2" x1="278.05984910137306" x2="278.05984910137306" y1="0" y2="30"/><line opacity="0.2" x1="255.73078119829032" x2="255.73078119829032" y1="0" y2="30"/><line opacity="0.2" x1="388.16957040676834" x2="388.16957040676834" y1="0" y2="30"/><line opacity="0.2" x1="362.79117868744186" x2="362.79117868744186" y1="0" y2="30"/><line opacity="0.2" x1="320.3667430257231" x2="320.3667430257231" y1="0" y2="30"/><line opacity="0.2" x1="413.5669831852812" x2="413.5669831852812" y1="0" y2="30"/><line opacity="0.2" x1="229.1980328323138" x2="229.1980328323138" y1="0" y2="30"/><line opacity="0.2" x1="481.1495772724484" x2="481.1495772724484" y1="0" y2="30"/><line opacity="0.2" x1="335.6670108375569" x2="335.6670108375569" y1="0" y2="30"/><line opacity="0.2" x1="233.99377669246218" x2="233.99377669246218" y1="0" y2="30"/><line opacity="0.2" x1="405.4245434110471" x2="405.4245434110471" y1="0" y2="30"/><line opacity="0.2" x1="287.9428633825007" x2="287.9428633825007" y1="0" y2="30"/><line opacity="0.2" x1="403.61963623711256" x2="403.61963623711256" y1="0" y2="30"/><line opacity="0.2" x1="403.9851291460974" x2="403.9851291460974" y1="0" y2="30"/><line opacity="0.2" x1="367.9518753882808" x2="367.9518753882808" y1="0" y2="30"/><line opacity="0.2" x1="133.52909494435144" x2="133.52909494435144" y1="0" y2="30"/><line opacity="0.2" x1="149.99686041669082" x2="149.99686041669082" y1="0" y2="30"/><line opacity="0.2" x1="358.1506715498237" x2="358.1506715498237" y1="0" y2="30"/><line opacity="0.2" x1="238.34233334930815" x2="238.34233334930815" y1="0" y2="30"/><line opacity="0.2" x1="195.43662672809484" x2="195.43662672809484" y1="0" y2="30"/><line opacity="0.2" x1="295.5989885966279" x2="295.5989885966279" y1="0" y2="30"/><line opacity="0.2" x1="235.20608831700704" x2="235.20608831700704" y1="0" y2="30"/><line opacity="0.2" x1="334.3486778482779" x2="334.3486778482779" y1="0" y2="30"/><line opacity="0.2" x1="170.96381919194198" x2="170.96381919194198" y1="0" y2="30"/><line opacity="0.2" x1="534.6761277332083" x2="534.6761277332083" y1="0" y2="30"/><line opacity="0.2" x1="216.37842870020847" x2="216.37842870020847" y1="0" y2="30"/><line opacity="0.2" x1="354.1091940558912" x2="354.1091940558912" y1="0" y2="30"/><line opacity="0.2" x1="347.2934403674072" x2="347.2934403674072" y1="0" y2="30"/><line opacity="0.2" x1="300.8751083544019" x2="300.8751083544019" y1="0" y2="30"/><line opacity="0.2" x1="365.86652090343796" x2="365.86652090343796" y1="0" y2="30"/><line opacity="0.2" x1="336.8415142104626" x2="336.8415142104626" y1="0" y2="30"/><line opacity="0.2" x1="426.10528790128654" x2="426.10528790128654" y1="0" y2="30"/><line opacity="0.2" x1="328.2772742793622" x2="328.2772742793622" y1="0" y2="30"/><line opacity="0.2" x1="428.38634448784853" x2="428.38634448784853" y1="0" y2="30"/><line opacity="0.2" x1="393.10515644605204" x2="393.10515644605204" y1="0" y2="30"/><line opacity="0.2" x1="425.9558357844707" x2="425.9558357844707" y1="0" y2="30"/><line opacity="0.2" x1="474.94105035940726" x2="474.94105035940726" y1="0" y2="30"/><line opacity="0.2" x1="376.13804666549" x2="376.13804666549" y1="0" y2="30"/><line opacity="0.2" x1="276.26411507058185" x2="276.26411507058185" y1="0" y2="30"/><line opacity="0.2" x1="365.2800654659661" x2="365.2800654659661" y1="0" y2="30"/><line opacity="0.2" x1="274.6208033651303" x2="274.6208033651303" y1="0" y2="30"/><line opacity="0.2" x1="408.69472042527946" x2="408.69472042527946" y1="0" y2="30"/><line opacity="0.2" x1="368.48680721804794" x2="368.48680721804794" y1="0" y2="30"/><line opacity="0.2" x1="395.4842397653474" x2="395.4842397653474" y1="0" y2="30"/><line opacity="0.2" x1="222.0325040776114" x2="222.0325040776114" y1="0" y2="30"/><line opacity="0.2" x1="320.7389055627252" x2="320.7389055627252" y1="0" y2="30"/><line opacity="0.2" x1="359.57619358927593" x2="359.57619358927593" y1="0" y2="30"/><line opacity="0.2" x1="221.9895027575619" x2="221.9895027575619" y1="0" y2="30"/><line opacity="0.2" x1="20" x2="20" y1="0" y2="30"/><line opacity="0.2" x1="493.4343406097962" x2="493.4343406097962" y1="0" y2="30"/><line opacity="0.2" x1="307.668960000958" x2="307.668960000958" y1="0" y2="30"/><line opacity="0.2" x1="429.4641401988036" x2="429.4641401988036" y1="0" y2="30"/><line opacity="0.2" x1="200.586479713262" x2="200.586479713262" y1="0" y2="30"/><line opacity="0.2" x1="479.42156696878106" x2="479.42156696878106" y1="0" y2="30"/><line opacity="0.2" x1="391.09407642363226" x2="391.09407642363226" y1="0" y2="30"/><line opacity="0.2" x1="333.1383516983292" x2="333.1383516983292" y1="0" y2="30"/><line opacity="0.2" x1="334.52112071855765" x2="334.52112071855765" y1="0" y2="30"/><line opacity="0.2" x1="318.0131038568581" x2="318.0131038568581" y1="0" y2="30"/><line opacity="0.2" x1="373.90998411413466" x2="373.90998411413466" y1="0" y2="30"/><line opacity="0.2" x1="288.5709510995145" x2="288.5709510995145" y1="0" y2="30"/><line opacity="0.2" x1="321.59549670103075" x2="321.59549670103075" y1="0" y2="30"/><line opacity="0.2" x1="402.6552301917782" x2="402.6552301917782" y1="0" y2="30"/><line opacity="0.2" x1="357.8269025073201" x2="357.8269025073201" y1="0" y2="30"/><line opacity="0.2" x1="454.1185428994388" x2="454.1185428994388" y1="0" y2="30"/><line opacity="0.2" x1="304.09210192224765" x2="304.09210192224765" y1="0" y2="30"/><line opacity="0.2" x1="466.3532000347523" x2="466.3532000347523" y1="0" y2="30"/><line opacity="0.2" x1="338.1134444241378" x2="338.1134444241378" y1="0" y2="30"/><line opacity="0.2" x1="372.34740184125775" x2="372.34740184125775" y1="0" y2="30"/><line opacity="0.2" x1="356.2354909384173" x2="356.2354909384173" y1="0" y2="30"/><line opacity="0.2" x1="360.40560009284553" x2="360.40560009284553" y1="0" y2="30"/><line opacity="0.2" x1="427.5303561288033" x2="427.5303561288033" y1="0" y2="30"/><line opacity="0.2" x1="327.0948122067573" x2="327.0948122067573" y1="0" y2="30"/><line opacity="0.2" x1="323.61277365921325" x2="323.61277365921325" y1="0" y2="30"/><line opacity="0.2" x1="381.54896552366733" x2="381.54896552366733" y1="0" y2="30"/><line opacity="0.2" x1="278.31930475787783" x2="278.31930475787783" y1="0" y2="30"/><line opacity="0.2" x1="267.28097549651727" x2="267.28097549651727" y1="0" y2="30"/><line opacity="0.2" x1="487.25913977272734" x2="487.25913977272734" y1="0" y2="30"/><line opacity="0.2" x1="361.2600692622018" x2="361.2600692622018" y1="0" y2="30"/><line opacity="0.2" x1="366.8258535385223" x2="366.8258535385223" y1="0" y2="30"/><line opacity="0.2" x1="274.01524839539957" x2="274.01524839539957" y1="0" y2="30"/><line opacity="0.2" x1="250.50867945886733" x2="250.50867945886733" y1="0" y2="30"/><line opacity="0.2" x1="273.3533169588545" x2="273.3533169588545" y1="0" y2="30"/><line opacity="0.2" x1="347.2151732019819" x2="347.2151732019819" y1="0" y2="30"/><line opacity="0.2" x1="359.2030975506578" x2="359.2030975506578" y1="0" y2="30"/><line opacity="0.2" x1="408.72326133165865" x2="408.72326133165865" y1="0" y2="30"/><line opacity="0.2" x1="233.14934027493433" x2="233.14934027493433" y1="0" y2="30"/><line opacity="0.2" x1="325.8573606096679" x2="325.8573606096679" y1="0" y2="30"/><line opacity="0.2" x1="322.28823045730854" x2="322.28823045730854" y1="0" y2="30"/><line opacity="0.2" x1="283.008884444598" x2="283.008884444598" y1="0" y2="30"/><line opacity="0.2" x1="232.5361046045546" x2="232.5361046045546" y1="0" y2="30"/><line opacity="0.2" x1="271.8680399915995" x2="271.8680399915995" y1="0" y2="30"/><line opacity="0.2" x1="362.35592827548584" x2="362.35592827548584" y1="0" y2="30"/><line opacity="0.2" x1="290.5091042171252" x2="290.5091042171252" y1="0" y2="30"/><line opacity="0.2" x1="397.98700834627374" x2="397.98700834627374" y1="0" y2="30"/><line opacity="0.2" x1="392.85003032851273" x2="392.85003032851273" y1="0" y2="30"/><line opacity="0.2" x1="472.55713433553336" x2="472.55713433553336" y1="0" y2="30"/><line opacity="0.2" x1="330.27670006161503" x2="330.27670006161503" y1="0" y2="30"/><line opacity="0.2" x1="197.73992576398663" x2="197.73992576398663" y1="0" y2="30"/><line opacity="0.2" x1="351.8262011707558" x2="351.8262011707558" y1="0" y2="30"/><line opacity="0.2" x1="354.82338881793856" x2="354.82338881793856" y1="0" y2="30"/><line opacity="0.2" x1="405.7955462610043" x2="405.7955462610043" y1="0" y2="30"/><line opacity="0.2" x1="316.0444751228912" x2="316.0444751228912" y1="0" y2="30"/><line opacity="0.2" x1="407.281357839336" x2="407.281357839336" y1="0" y2="30"/><line opacity="0.2" x1="242.56753153113084" x2="242.56753153113084" y1="0" y2="30"/><line opacity="0.2" x1="309.6903758077905" x2="309.6903758077905" y1="0" y2="30"/><line opacity="0.2" x1="341.69299280185146" x2="341.69299280185146" y1="0" y2="30"/><line opacity="0.2" x1="388.8152443852757" x2="388.8152443852757" y1="0" y2="30"/><line opacity="0.2" x1="404.49499992425797" x2="404.49499992425797" y1="0" y2="30"/><line opacity="0.2" x1="378.01963203865245" x2="378.01963203865245" y1="0" y2="30"/><line opacity="0.2" x1="371.582019060288" x2="371.582019060288" y1="0" y2="30"/><line opacity="0.2" x1="474.9054539782039" x2="474.9054539782039" y1="0" y2="30"/><line opacity="0.2" x1="414.97350068725154" x2="414.97350068725154" y1="0" y2="30"/><line opacity="0.2" x1="354.434938021215" x2="354.434938021215" y1="0" y2="30"/><line opacity="0.2" x1="345.67131880549215" x2="345.67131880549215" y1="0" y2="30"/><line opacity="0.2" x1="349.4977290260968" x2="349.4977290260968" y1="0" y2="30"/><line opacity="0.2" x1="467.62080834344755" x2="467.62080834344755" y1="0" y2="30"/><line opacity="0.2" x1="419.0815511872044" x2="419.0815511872044" y1="0" y2="30"/><line opacity="0.2" x1="314.1076072646898" x2="314.1076072646898" y1="0" y2="30"/><line opacity="0.2" x1="370.76231942200377" x2="370.76231942200377" y1="0" y2="30"/><line opacity="0.2" x1="363.95889719274743" x2="363.95889719274743" y1="0" y2="30"/><line opacity="0.2" x1="413.7130324893418" x2="413.7130324893418" y1="0" y2="30"/><line opacity="0.2" x1="466.28786590798916" x2="466.28786590798916" y1="0" y2="30"/><line opacity="0.2" x1="261.3660537262766" x2="261.3660537262766" y1="0" y2="30"/><line opacity="0.2" x1="252.20907216998035" x2="252.20907216998035" y1="0" y2="30"/><line opacity="0.2" x1="326.9150804571583" x2="326.9150804571583" y1="0" y2="30"/><line opacity="0.2" x1="423.52295027220373" x2="423.52295027220373" y1="0" y2="30"/><line opacity="0.2" x1="431.20461181326317" x2="431.20461181326317" y1="0" y2="30"/><line opacity="0.2" x1="430.06062698649004" x2="430.06062698649004" y1="0" y2="30"/><line opacity="0.2" x1="214.63536724663868" x2="214.63536724663868" y1="0" y2="30"/><line opacity="0.2" x1="439.9797143607088" x2="439.9797143607088" y1="0" y2="30"/><line opacity="0.2" x1="375.691609886946" x2="375.691609886946" y1="0" y2="30"/><line opacity="0.2" x1="477.5075868341036" x2="477.5075868341036" y1="0" y2="30"/><line opacity="0.2" x1="455.6045653843445" x2="455.6045653843445" y1="0" y2="30"/><line opacity="0.2" x1="351.71257101848096" x2="351.71257101848096" y1="0" y2="30"/><line opacity="0.2" x1="377.79132179183256" x2="377.79132179183256" y1="0" y2="30"/><line opacity="0.2" x1="264.7079534644075" x2="264.7079534644075" y1="0" y2="30"/><line opacity="0.2" x1="320.7528020367621" x2="320.7528020367621" y1="0" y2="30"/><line opacity="0.2" x1="196.3165550623983" x2="196.3165550623983" y1="0" y2="30"/><line opacity="0.2" x1="405.15222417930994" x2="405.15222417930994" y1="0" y2="30"/><line opacity="0.2" x1="388.6479837614439" x2="388.6479837614439" y1="0" y2="30"/><line opacity="0.2" x1="320.82404123259977" x2="320.82404123259977" y1="0" y2="30"/><line opacity="0.2" x1="463.28342148176205" x2="463.28342148176205" y1="0" y2="30"/><line opacity="0.2" x1="455.9637192748351" x2="455.9637192748351" y1="0" y2="30"/><line opacity="0.2" x1="311.5336750557749" x2="311.5336750557749" y1="0" y2="30"/><line opacity="0.2" x1="360.5457747035799" x2="360.5457747035799" y1="0" y2="30"/><line opacity="0.2" x1="292.89078855166764" x2="292.89078855166764" y1="0" y2="30"/><line opacity="0.2" x1="235.57798591353153" x2="235.57798591353153" y1="0" y2="30"/><line opacity="0.2" x1="322.5135190804506" x2="322.5135190804506" y1="0" y2="30"/><line opacity="0.2" x1="276.15694511183534" x2="276.15694511183534" y1="0" y2="30"/><line opacity="0.2" x1="311.3471634718962" x2="311.3471634718962" y1="0" y2="30"/><line opacity="0.2" x1="219.00185359103423" x2="219.00185359103423" y1="0" y2="30"/><line opacity="0.2" x1="379.3654957009656" x2="379.3654957009656" y1="0" y2="30"/><line opacity="0.2" x1="262.2504840013882" x2="262.2504840013882" y1="0" y2="30"/><line opacity="0.2" x1="228.03411985610055" x2="228.03411985610055" y1="0" y2="30"/><line opacity="0.2" x1="458.45665894302107" x2="458.45665894302107" y1="0" y2="30"/><line opacity="0.2" x1="194.19316346065557" x2="194.19316346065557" y1="0" y2="30"/><line opacity="0.2" x1="402.71939865660715" x2="402.71939865660715" y1="0" y2="30"/><line opacity="0.2" x1="428.06662935586246" x2="428.06662935586246" y1="0" y2="30"/><line opacity="0.2" x1="265.2565610872073" x2="265.2565610872073" y1="0" y2="30"/><line opacity="0.2" x1="395.3049147235074" x2="395.3049147235074" y1="0" y2="30"/><line opacity="0.2" x1="345.7838632259613" x2="345.7838632259613" y1="0" y2="30"/><line opacity="0.2" x1="393.87468166938936" x2="393.87468166938936" y1="0" y2="30"/><line opacity="0.2" x1="320.26005932863654" x2="320.26005932863654" y1="0" y2="30"/><line opacity="0.2" x1="304.16397528262513" x2="304.16397528262513" y1="0" y2="30"/><line opacity="0.2" x1="436.34771307073356" x2="436.34771307073356" y1="0" y2="30"/><line opacity="0.2" x1="466.96049971969734" x2="466.96049971969734" y1="0" y2="30"/><line opacity="0.2" x1="349.03357351302384" x2="349.03357351302384" y1="0" y2="30"/><line opacity="0.2" x1="289.6735438805895" x2="289.6735438805895" y1="0" y2="30"/><line opacity="0.2" x1="145.80230269962905" x2="145.80230269962905" y1="0" y2="30"/><line opacity="0.2" x1="343.1328753220506" x2="343.1328753220506" y1="0" y2="30"/><line opacity="0.2" x1="325.0113191331633" x2="325.0113191331633" y1="0" y2="30"/><line opacity="0.2" x1="371.23221272964054" x2="371.23221272964054" y1="0" y2="30"/><line opacity="0.2" x1="363.8487726732942" x2="363.8487726732942" y1="0" y2="30"/><line opacity="0.2" x1="346.3903927403024" x2="346.3903927403024" y1="0" y2="30"/><line opacity="0.2" x1="382.3188074338771" x2="382.3188074338771" y1="0" y2="30"/><line opacity="0.2" x1="386.91290381835745" x2="386.91290381835745" y1="0" y2="30"/><line opacity="0.2" x1="269.086184975204" x2="269.086184975204" y1="0" y2="30"/><line opacity="0.2" x1="282.0311458643483" x2="282.0311458643483" y1="0" y2="30"/><line opacity="0.2" x1="356.445762793926" x2="356.445762793926" y1="0" y2="30"/><line opacity="0.2" x1="335.6748649986891" x2="335.6748649986891" y1="0" y2="30"/><line opacity="0.2" x1="307.4384069675014" x2="307.4384069675014" y1="0" y2="30"/><line opacity="0.2" x1="422.1430743693069" x2="422.1430743693069" y1="0" y2="30"/><line opacity="0.2" x1="419.98466543161436" x2="419.98466543161436" y1="0" y2="30"/><line opacity="0.2" x1="308.91431455331485" x2="308.91431455331485" y1="0" y2="30"/><line opacity="0.2" x1="362.3646956001689" x2="362.3646956001689" y1="0" y2="30"/><line opacity="0.2" x1="361.6380189514484" x2="361.6380189514484" y1="0" y2="30"/><line opacity="0.2" x1="234.01070203647953" x2="234.01070203647953" y1="0" y2="30"/><line opacity="0.2" x1="113.43503455494528" x2="113.43503455494528" y1="0" y2="30"/><line opacity="0.2" x1="376.87486597475345" x2="376.87486597475345" y1="0" y2="30"/><line opacity="0.2" x1="204.00138055943717" x2="204.00138055943717" y1="0" y2="30"/><line opacity="0.2" x1="329.74781610705935" x2="329.74781610705935" y1="0" y2="30"/><line opacity="0.2" x1="460.69050176865045" x2="460.69050176865045" y1="0" y2="30"/><line opacity="0.2" x1="250.84306051905986" x2="250.84306051905986" y1="0" y2="30"/><line opacity="0.2" x1="293.25101262418065" x2="293.25101262418065" y1="0" y2="30"/><line opacity="0.2" x1="411.06530779312914" x2="411.06530779312914" y1="0" y2="30"/><line opacity="0.2" x1="404.204844288965" x2="404.204844288965" y1="0" y2="30"/><line opacity="0.2" x1="401.9688399020653" x2="401.9688399020653" y1="0" y2="30"/><line opacity="0.2" x1="352.4409471034743" x2="352.4409471034743" y1="0" y2="30"/><line opacity="0.2" x1="305.26024270529035" x2="305.26024270529035" y1="0" y2="30"/><line opacity="0.2" x1="250.51307223917203" x2="250.51307223917203" y1="0" y2="30"/><line opacity="0.2" x1="235.914785381813" x2="235.914785381813" y1="0" y2="30"/><line opacity="0.2" x1="403.1732912573147" x2="403.1732912573147" y1="0" y2="30"/><line opacity="0.2" x1="340.63770248437066" x2="340.63770248437066" y1="0" y2="30"/><line opacity="0.2" x1="404.0343687413004" x2="404.0343687413004" y1="0" y2="30"/><line opacity="0.2" x1="373.55340519555386" x2="373.55340519555386" y1="0" y2="30"/><line opacity="0.2" x1="341.3554112277756" x2="341.3554112277756" y1="0" y2="30"/><line opacity="0.2" x1="348.77343357416754" x2="348.77343357416754" y1="0" y2="30"/><line opacity="0.2" x1="411.0926417175913" x2="411.0926417175913" y1="0" y2="30"/><line opacity="0.2" x1="409.37534703070367" x2="409.37534703070367" y1="0" y2="30"/><line opacity="0.2" x1="385.20359086053224" x2="385.20359086053224" y1="0" y2="30"/><line opacity="0.2" x1="461.1952589093099" x2="461.1952589093099" y1="0" y2="30"/><line opacity="0.2" x1="471.5881682022888" x2="471.5881682022888" y1="0" y2="30"/><line opacity="0.2" x1="278.05323607499054" x2="278.05323607499054" y1="0" y2="30"/><line opacity="0.2" x1="432.324346916345" x2="432.324346916345" y1="0" y2="30"/><line opacity="0.2" x1="485.2440608906383" x2="485.2440608906383" y1="0" y2="30"/><line opacity="0.2" x1="405.6378502976841" x2="405.6378502976841" y1="0" y2="30"/><line opacity="0.2" x1="293.11392391451693" x2="293.11392391451693" y1="0" y2="30"/><line opacity="0.2" x1="403.58936561327124" x2="403.58936561327124" y1="0" y2="30"/><line opacity="0.2" x1="278.4095135367815" x2="278.4095135367815" y1="0" y2="30"/><line opacity="0.2" x1="450.1031198389937" x2="450.1031198389937" y1="0" y2="30"/><line opacity="0.2" x1="400.86707237313334" x2="400.86707237313334" y1="0" y2="30"/><line opacity="0.2" x1="383.12293776021056" x2="383.12293776021056" y1="0" y2="30"/><line opacity="0.2" x1="352.5905369499983" x2="352.5905369499983" y1="0" y2="30"/><line opacity="0.2" x1="319.5650131477895" x2="319.5650131477895" y1="0" y2="30"/><line opacity="0.2" x1="289.68064269554986" x2="289.68064269554986" y1="0" y2="30"/><line opacity="0.2" x1="386.681468051444" x2="386.681468051444" y1="0" y2="30"/><line opacity="0.2" x1="410.88750327534467" x2="410.88750327534467" y1="0" y2="30"/><line opacity="0.2" x1="339.56407735335404" x2="339.56407735335404" y1="0" y2="30"/><line opacity="0.2" x1="417.3446696549224" x2="417.3446696549224" y1="0" y2="30"/><line opacity="0.2" x1="329.54045735510084" x2="329.54045735510084" y1="0" y2="30"/><line opacity="0.2" x1="441.08557523634016" x2="441.08557523634016" y1="0" y2="30"/><line opacity="0.2" x1="339.31050203491645" x2="339.31050203491645" y1="0" y2="30"/><line opacity="0.2" x1="327.5143633209498" x2="327.5143633209498" y1="0" y2="30"/><line opacity="0.2" x1="328.19359904903166" x2="328.19359904903166" y1="0" y2="30"/><line opacity="0.2" x1="139.20504057993134" x2="139.20504057993134" y1="0" y2="30"/><line opacity="0.2" x1="310.6691343211935" x2="310.6691343211935" y1="0" y2="30"/><line opacity="0.2" x1="291.6940853272737" x2="291.6940853272737" y1="0" y2="30"/><line opacity="0.2" x1="431.77062902274025" x2="431.77062902274025" y1="0" y2="30"/><line opacity="0.2" x1="263.09127982070214" x2="263.09127982070214" y1="0" y2="30"/><line opacity="0.2" x1="383.73586163633365" x2="383.73586163633365" y1="0" y2="30"/><line opacity="0.2" x1="358.0877074292035" x2="358.0877074292035" y1="0" y2="30"/><line opacity="0.2" x1="504.75808671251247" x2="504.75808671251247" y1="0" y2="30"/><line opacity="0.2" x1="387.492014478649" x2="387.492014478649" y1="0" y2="30"/><line opacity="0.2" x1="321.8066136098933" x2="321.8066136098933" y1="0" y2="30"/><line opacity="0.2" x1="304.16052395862454" x2="304.16052395862454" y1="0" y2="30"/><line opacity="0.2" x1="233.22761475832428" x2="233.22761475832428" y1="0" y2="30"/><line opacity="0.2" x1="260.4958859803878" x2="260.4958859803878" y1="0" y2="30"/><line opacity="0.2" x1="354.06411969393093" x2="354.06411969393093" y1="0" y2="30"/><line opacity="0.2" x1="208.4848867529594" x2="208.4848867529594" y1="0" y2="30"/><line opacity="0.2" x1="220.48131996736834" x2="220.48131996736834" y1="0" y2="30"/><line opacity="0.2" x1="361.5291656845155" x2="361.5291656845155" y1="0" y2="30"/><line opacity="0.2" x1="307.0338300127445" x2="307.0338300127445" y1="0" y2="30"/><line opacity="0.2" x1="359.59820311529046" x2="359.59820311529046" y1="0" y2="30"/><line opacity="0.2" x1="387.5791900990422" x2="387.5791900990422" y1="0" y2="30"/><line opacity="0.2" x1="402.71885473327904" x2="402.71885473327904" y1="0" y2="30"/><line opacity="0.2" x1="170.99504618001563" x2="170.99504618001563" y1="0" y2="30"/><line opacity="0.2" x1="414.8735444228002" x2="414.8735444228002" y1="0" y2="30"/><line opacity="0.2" x1="295.1180862052919" x2="295.1180862052919" y1="0" y2="30"/><line opacity="0.2" x1="356.7592805286343" x2="356.7592805286343" y1="0" y2="30"/><line opacity="0.2" x1="414.4777177715839" x2="414.4777177715839" y1="0" y2="30"/><line opacity="0.2" x1="427.50736240706226" x2="427.50736240706226" y1="0" y2="30"/><line opacity="0.2" x1="360.41726117895996" x2="360.41726117895996" y1="0" y2="30"/><line opacity="0.2" x1="336.5092121049157" x2="336.5092121049157" y1="0" y2="30"/><line opacity="0.2" x1="286.9238792154099" x2="286.9238792154099" y1="0" y2="30"/><line opacity="0.2" x1="338.90956320903325" x2="338.90956320903325" y1="0" y2="30"/><line opacity="0.2" x1="375.1525801919014" x2="375.1525801919014" y1="0" y2="30"/><line opacity="0.2" x1="276.6295720426031" x2="276.6295720426031" y1="0" y2="30"/><line opacity="0.2" x1="388.72240606400334" x2="388.72240606400334" y1="0" y2="30"/><line opacity="0.2" x1="314.64598111839746" x2="314.64598111839746" y1="0" y2="30"/><line opacity="0.2" x1="358.72072261696593" x2="358.72072261696593" y1="0" y2="30"/><line opacity="0.2" x1="273.8748430814185" x2="273.8748430814185" y1="0" y2="30"/><line opacity="0.2" x1="408.04074282461676" x2="408.04074282461676" y1="0" y2="30"/><line opacity="0.2" x1="225.58791866129727" x2="225.58791866129727" y1="0" y2="30"/><line opacity="0.2" x1="373.2092432745831" x2="373.2092432745831" y1="0" y2="30"/><line opacity="0.2" x1="269.3677093915589" x2="269.3677093915589" y1="0" y2="30"/><line opacity="0.2" x1="356.80440053205615" x2="356.80440053205615" y1="0" y2="30"/><line opacity="0.2" x1="287.1226929146503" x2="287.1226929146503" y1="0" y2="30"/><line opacity="0.2" x1="346.61783931847464" x2="346.61783931847464" y1="0" y2="30"/><line opacity="0.2" x1="312.7868249093396" x2="312.7868249093396" y1="0" y2="30"/><line opacity="0.2" x1="361.3266654345509" x2="361.3266654345509" y1="0" y2="30"/><line opacity="0.2" x1="229.73964056942773" x2="229.73964056942773" y1="0" y2="30"/><line opacity="0.2" x1="214.49681616238067" x2="214.49681616238067" y1="0" y2="30"/><line opacity="0.2" x1="359.6896685744951" x2="359.6896685744951" y1="0" y2="30"/><line opacity="0.2" x1="303.10898583113845" x2="303.10898583113845" y1="0" y2="30"/><line opacity="0.2" x1="388.7630055758578" x2="388.7630055758578" y1="0" y2="30"/><line opacity="0.2" x1="472.52202092079824" x2="472.52202092079824" y1="0" y2="30"/><line opacity="0.2" x1="498.6572639859199" x2="498.6572639859199" y1="0" y2="30"/><line opacity="0.2" x1="292.80123354286843" x2="292.80123354286843" y1="0" y2="30"/><line opacity="0.2" x1="373.0082088738002" x2="373.0082088738002" y1="0" y2="30"/><line opacity="0.2" x1="413.23999837893797" x2="413.23999837893797" y1="0" y2="30"/><line opacity="0.2" x1="345.0789405100754" x2="345.0789405100754" y1="0" y2="30"/><line opacity="0.2" x1="354.23353354884296" x2="354.23353354884296" y1="0" y2="30"/><line opacity="0.2" x1="309.7793031981631" x2="309.7793031981631" y1="0" y2="30"/><line opacity="0.2" x1="300.83248535606987" x2="300.83248535606987" y1="0" y2="30"/><line opacity="0.2" x1="394.30944768693354" x2="394.30944768693354" y1="0" y2="30"/><line opacity="0.2" x1="363.14240331004993" x2="363.14240331004993" y1="0" y2="30"/><line opacity="0.2" x1="300.2049795505542" x2="300.2049795505542" y1="0" y2="30"/><line opacity="0.2" x1="261.4773741300206" x2="261.4773741300206" y1="0" y2="30"/><line opacity="0.2" x1="361.81278931698444" x2="361.81278931698444" y1="0" y2="30"/><line opacity="0.2" x1="524.927765232944" x2="524.927765232944" y1="0" y2="30"/><line opacity="0.2" x1="274.24130616208623" x2="274.24130616208623" y1="0" y2="30"/><line opacity="0.2" x1="250.5512163864602" x2="250.5512163864602" y1="0" y2="30"/><line opacity="0.2" x1="337.3342407021537" x2="337.3342407021537" y1="0" y2="30"/><line opacity="0.2" x1="383.43575459437244" x2="383.43575459437244" y1="0" y2="30"/><line opacity="0.2" x1="348.79487872533815" x2="348.79487872533815" y1="0" y2="30"/><line opacity="0.2" x1="300.4718907859213" x2="300.4718907859213" y1="0" y2="30"/><line opacity="0.2" x1="346.03284312790333" x2="346.03284312790333" y1="0" y2="30"/><line opacity="0.2" x1="349.24092858497073" x2="349.24092858497073" y1="0" y2="30"/><line opacity="0.2" x1="350.2811698126019" x2="350.2811698126019" y1="0" y2="30"/><line opacity="0.2" x1="227.11249307938382" x2="227.11249307938382" y1="0" y2="30"/><line opacity="0.2" x1="170.0529942102074" x2="170.0529942102074" y1="0" y2="30"/><line opacity="0.2" x1="219.97894065140855" x2="219.97894065140855" y1="0" y2="30"/><line opacity="0.2" x1="357.9431154995621" x2="357.9431154995621" y1="0" y2="30"/><line opacity="0.2" x1="273.97835615299545" x2="273.97835615299545" y1="0" y2="30"/><line opacity="0.2" x1="412.1659585168811" x2="412.1659585168811" y1="0" y2="30"/><line opacity="0.2" x1="357.70624380181766" x2="357.70624380181766" y1="0" y2="30"/><line opacity="0.2" x1="260.92977978972135" x2="260.92977978972135" y1="0" y2="30"/><line opacity="0.2" x1="420.51109124701475" x2="420.51109124701475" y1="0" y2="30"/><line opacity="0.2" x1="399.6562600081096" x2="399.6562600081096" y1="0" y2="30"/><line opacity="0.2" x1="368.6314535726697" x2="368.6314535726697" y1="0" y2="30"/><line opacity="0.2" x1="399.11758024901883" x2="399.11758024901883" y1="0" y2="30"/><line opacity="0.2" x1="223.7067130104477" x2="223.7067130104477" y1="0" y2="30"/><line opacity="0.2" x1="290.4710558391425" x2="290.4710558391425" y1="0" y2="30"/><line opacity="0.2" x1="327.47642353412385" x2="327.47642353412385" y1="0" y2="30"/><line opacity="0.2" x1="238.44604309366167" x2="238.44604309366167" y1="0" y2="30"/><line opacity="0.2" x1="392.4984364426913" x2="392.4984364426913" y1="0" y2="30"/><line opacity="0.2" x1="408.2646549485194" x2="408.2646549485194" y1="0" y2="30"/><line opacity="0.2" x1="355.9113176965558" x2="355.9113176965558" y1="0" y2="30"/><line opacity="0.2" x1="408.0520282922904" x2="408.0520282922904" y1="0" y2="30"/><line opacity="0.2" x1="249.147761494085" x2="249.147761494085" y1="0" y2="30"/><line opacity="0.2" x1="308.5811722790924" x2="308.5811722790924" y1="0" y2="30"/><line opacity="0.2" x1="348.7698273042348" x2="348.7698273042348" y1="0" y2="30"/><line opacity="0.2" x1="290.0927009813053" x2="290.0927009813053" y1="0" y2="30"/><line opacity="0.2" x1="356.9354937047449" x2="356.9354937047449" y1="0" y2="30"/><line opacity="0.2" x1="423.9542805814977" x2="423.9542805814977" y1="0" y2="30"/><line opacity="0.2" x1="327.37036022947575" x2="327.37036022947575" y1="0" y2="30"/><line opacity="0.2" x1="278.3246428478878" x2="278.3246428478878" y1="0" y2="30"/><line opacity="0.2" x1="267.4422817005647" x2="267.4422817005647" y1="0" y2="30"/><line opacity="0.2" x1="230.67116627443554" x2="230.67116627443554" y1="0" y2="30"/><line opacity="0.2" x1="183.60740885873327" x2="183.60740885873327" y1="0" y2="30"/><line opacity="0.2" x1="500.3320949158087" x2="500.3320949158087" y1="0" y2="30"/><line opacity="0.2" x1="288.8542202903983" x2="288.8542202903983" y1="0" y2="30"/><line opacity="0.2" x1="295.38536661342096" x2="295.38536661342096" y1="0" y2="30"/><line opacity="0.2" x1="319.1861899627588" x2="319.1861899627588" y1="0" y2="30"/><line opacity="0.2" x1="329.77778122695577" x2="329.77778122695577" y1="0" y2="30"/><line opacity="0.2" x1="215.9295546341467" x2="215.9295546341467" y1="0" y2="30"/><line opacity="0.2" x1="399.70246505969664" x2="399.70246505969664" y1="0" y2="30"/><line opacity="0.2" x1="365.6713259854203" x2="365.6713259854203" y1="0" y2="30"/><line opacity="0.2" x1="285.2948631871971" x2="285.2948631871971" y1="0" y2="30"/><line opacity="0.2" x1="423.3013127894666" x2="423.3013127894666" y1="0" y2="30"/><line opacity="0.2" x1="342.7396706711562" x2="342.7396706711562" y1="0" y2="30"/><line opacity="0.2" x1="300.090701398552" x2="300.090701398552" y1="0" y2="30"/><line opacity="0.2" x1="258.81263016047285" x2="258.81263016047285" y1="0" y2="30"/><line opacity="0.2" x1="620" x2="620" y1="0" y2="30"/><line opacity="0.2" x1="471.3955968409668" x2="471.3955968409668" y1="0" y2="30"/><line opacity="0.2" x1="377.7763714971598" x2="377.7763714971598" y1="0" y2="30"/><line opacity="0.2" x1="396.8016090311053" x2="396.8016090311053" y1="0" y2="30"/><line opacity="0.2" x1="240.9467134484895" x2="240.9467134484895" y1="0" y2="30"/><line opacity="0.2" x1="284.1459140953107" x2="284.1459140953107" y1="0" y2="30"/><line opacity="0.2" x1="230.6989199339105" x2="230.6989199339105" y1="0" y2="30"/><line opacity="0.2" x1="344.333496115711" x2="344.333496115711" y1="0" y2="30"/><line opacity="0.2" x1="196.9934901367844" x2="196.9934901367844" y1="0" y2="30"/><line opacity="0.2" x1="403.1701731393356" x2="403.1701731393356" y1="0" y2="30"/><line opacity="0.2" x1="256.9196117801005" x2="256.9196117801005" y1="0" y2="30"/><line opacity="0.2" x1="448.28172745205586" x2="448.28172745205586" y1="0" y2="30"/><line opacity="0.2" x1="377.4865854498004" x2="377.4865854498004" y1="0" y2="30"/><line opacity="0.2" x1="267.5142144876811" x2="267.5142144876811" y1="0" y2="30"/><line opacity="0.2" x1="302.56398863922277" x2="302.56398863922277" y1="0" y2="30"/><line opacity="0.2" x1="448.3291633701583" x2="448.3291633701583" y1="0" y2="30"/><line opacity="0.2" x1="474.8089524231757" x2="474.8089524231757" y1="0" y2="30"/><line opacity="0.2" x1="482.03308697452934" x2="482.03308697452934" y1="0" y2="30"/><line opacity="0.2" x1="496.6320537557632" x2="496.6320537557632" y1="0" y2="30"/><line opacity="0.2" x1="316.8355371694205" x2="316.8355371694205" y1="0" y2="30"/><line opacity="0.2" x1="356.5014461023394" x2="356.5014461023394" y1="0" y2="30"/><line opacity="0.2" x1="412.75365299669653" x2="412.75365299669653" y1="0" y2="30"/><line opacity="0.2" x1="446.6157196609514" x2="446.6157196609514" y1="0" y2="30"/><line opacity="0.2" x1="315.1816073871239" x2="315.1816073871239" y1="0" y2="30"/><line opacity="0.2" x1="342.9153377392177" x2="342.9153377392177" y1="0" y2="30"/><line opacity="0.2" x1="345.7726811447458" x2="345.7726811447458" y1="0" y2="30"/><line opacity="0.2" x1="154.97400561248253" x2="154.97400561248253" y1="0" y2="30"/><line opacity="0.2" x1="264.36591840001034" x2="264.36591840001034" y1="0" y2="30"/><line opacity="0.2" x1="367.25949371542526" x2="367.25949371542526" y1="0" y2="30"/><line opacity="0.2" x1="202.84815061182832" x2="202.84815061182832" y1="0" y2="30"/><line opacity="0.2" x1="382.75300490650267" x2="382.75300490650267" y1="0" y2="30"/><line opacity="0.2" x1="280.66614516008036" x2="280.66614516008036" y1="0" y2="30"/><line opacity="0.2" x1="185.82058422019546" x2="185.82058422019546" y1="0" y2="30"/><line opacity="0.2" x1="411.12108297485463" x2="411.12108297485463" y1="0" y2="30"/><line opacity="0.2" x1="415.88414245139154" x2="415.88414245139154" y1="0" y2="30"/><line opacity="0.2" x1="278.00433033701546" x2="278.00433033701546" y1="0" y2="30"/><line opacity="0.2" x1="361.3874007589739" x2="361.3874007589739" y1="0" y2="30"/><line opacity="0.2" x1="341.98237755214075" x2="341.98237755214075" y1="0" y2="30"/><line opacity="0.2" x1="420.52961810504814" x2="420.52961810504814" y1="0" y2="30"/><line opacity="0.2" x1="355.24079520480404" x2="355.24079520480404" y1="0" y2="30"/><line opacity="0.2" x1="290.06325678038866" x2="290.06325678038866" y1="0" y2="30"/><line opacity="0.2" x1="379.20371642928455" x2="379.20371642928455" y1="0" y2="30"/><line opacity="0.2" x1="364.69387895606826" x2="364.69387895606826" y1="0" y2="30"/><line opacity="0.2" x1="515.4334431665905" x2="515.4334431665905" y1="0" y2="30"/><line opacity="0.2" x1="417.8266757736369" x2="417.8266757736369" y1="0" y2="30"/><line opacity="0.2" x1="278.80803014058097" x2="278.80803014058097" y1="0" y2="30"/><line opacity="0.2" x1="402.879726441931" x2="402.879726441931" y1="0" y2="30"/><line opacity="0.2" x1="159.38647734212554" x2="159.38647734212554" y1="0" y2="30"/><line opacity="0.2" x1="363.5019526011043" x2="363.5019526011043" y1="0" y2="30"/><line opacity="0.2" x1="451.89995019738114" x2="451.89995019738114" y1="0" y2="30"/><line opacity="0.2" x1="133.03094234742815" x2="133.03094234742815" y1="0" y2="30"/><line opacity="0.2" x1="455.84144019729683" x2="455.84144019729683" y1="0" y2="30"/><line opacity="0.2" x1="509.4917440249577" x2="509.4917440249577" y1="0" y2="30"/><line opacity="0.2" x1="355.7513750139967" x2="355.7513750139967" y1="0" y2="30"/><line opacity="0.2" x1="263.04599462156256" x2="263.04599462156256" y1="0" y2="30"/><line opacity="0.2" x1="336.6130188447037" x2="336.6130188447037" y1="0" y2="30"/><line opacity="0.2" x1="323.941668040174" x2="323.941668040174" y1="0" y2="30"/><line opacity="0.2" x1="387.3999777017942" x2="387.3999777017942" y1="0" y2="30"/><line opacity="0.2" x1="453.8625143530966" x2="453.8625143530966" y1="0" y2="30"/><line opacity="0.2" x1="400.8862916871166" x2="400.8862916871166" y1="0" y2="30"/><line opacity="0.2" x1="339.126647994321" x2="339.126647994321" y1="0" y2="30"/><line opacity="0.2" x1="455.80199528871685" x2="455.80199528871685" y1="0" y2="30"/><line opacity="0.2" x1="401.00226964505396" x2="401.00226964505396" y1="0" y2="30"/><line opacity="0.2" x1="256.57728203921107" x2="256.57728203921107" y1="0" y2="30"/><line opacity="0.2" x1="398.0748531846933" x2="398.0748531846933" y1="0" y2="30"/><line opacity="0.2" x1="224.81334585058764" x2="224.81334585058764" y1="0" y2="30"/><line opacity="0.2" x1="311.5109919104419" x2="311.5109919104419" y1="0" y2="30"/><line opacity="0.2" x1="285.20950567417844" x2="285.20950567417844" y1="0" y2="30"/><line opacity="0.2" x1="298.7172491573071" x2="298.7172491573071" y1="0" y2="30"/><line opacity="0.2" x1="388.9591878576961" x2="388.9591878576961" y1="0" y2="30"/><line opacity="0.2" x1="454.91765573310585" x2="454.91765573310585" y1="0" y2="30"/><line opacity="0.2" x1="314.6398197846333" x2="314.6398197846333" y1="0" y2="30"/><line opacity="0.2" x1="290.34133816681367" x2="290.34133816681367" y1="0" y2="30"/><line opacity="0.2" x1="348.79392090554705" x2="348.79392090554705" y1="0" y2="30"/><line opacity="0.2" x1="395.6382232111045" x2="395.6382232111045" y1="0" y2="30"/><line opacity="0.2" x1="224.34396069720276" x2="224.34396069720276" y1="0" y2="30"/><line opacity="0.2" x1="389.5139795784416" x2="389.5139795784416" y1="0" y2="30"/><line opacity="0.2" x1="420.75444823689634" x2="420.75444823689634" y1="0" y2="30"/><line opacity="0.2" x1="294.8805201193035" x2="294.8805201193035" y1="0" y2="30"/><line opacity="0.2" x1="396.10578757266757" x2="396.10578757266757" y1="0" y2="30"/><line opacity="0.2" x1="374.57248048252217" x2="374.57248048252217" y1="0" y2="30"/><line opacity="0.2" x1="499.9759395604604" x2="499.9759395604604" y1="0" y2="30"/><line opacity="0.2" x1="409.69330864825616" x2="409.69330864825616" y1="0" y2="30"/></g></svg>