<svg xmlns="http://www.w3.org/2000/svg" xmlns:xlink="http://www.w3.org/1999/xlink" class="plot-925dc0a23bd52" fill="currentColor" font-family="system-ui, sans-serif" font-size="10" text-anchor="middle" width="640" height="60" viewBox="0 0 640 60" style="color: black;"><style>
        .plot-925dc0a23bd52 {
          display: block;
          background: white;
          height: auto;
          height: intrinsic;
          max-width: 100%;
        }
        .plot-925dc0a23bd52 text,
        .plot-925dc0a23bd52 tspan {
          white-space: pre;
        }
      </style><g aria-label="x-axis tick" fill="none" stroke="currentColor" transform="translate(0.5,0)"><path transform="translate(47.04372542925806,30)" d="M0,0L0,6"/><path transform="translate(149.94959366259644,30)" d="M0,0L0,6"/><path transform="translate(252.85546189593487,30)" d="M0,0L0,6"/><path transform="translate(355.7613301292733,30)" d="M0,0L0,6"/><path transform="translate(458.6671983626116,30)" d="M0,0L0,6"/><path transform="translate(561.5730665959501,30)" d="M0,0L0,6"/></g><g aria-label="x-axis tick label" font-variant="tabular-nums" transform="translate(0.5,9.5)"><text y="0.71em" transform="translate(47.04372542925806,30)">−3</text><text y="0.71em" transform="translate(149.94959366259644,30)">−2</text><text y="0.71em" transform="translate(252.85546189593487,30)">−1</text><text y="0.71em" transform="translate(355.7613301292733,30)">0</text><text y="0.71em" transform="translate(458.6671983626116,30)">1</text><text y="0.71em" transform="translate(561.5730665959501,30)">2</text></g><g aria-label="tick" stroke="royalblue" transform="translate(0.5,0)"><line opacity="0.2" x1="320.3833481274195" x2="320.3833481274195" y1="0" y2="30"/><line opacity="0.2" x1="365.19914677256645" x2="365.19914677256645" y1="0" y2="30"/><line opacity="0.2" x1="434.42292449409433" x2="434.42292449409433" y1="0" y2="30"/><line opacity="0.2" x1="426.98260086728243" x2="426.98260086728243" y1="0" y2="30"/><line opacity="0.2" x1="442.3705569369735" x2="442.3705569369735" y1="0" y2="30"/><line opacity="0.2" x1="273.5740068958295" x2="273.5740068958295" y1="0" y2="30"/><line opacity="0.2" x1="220.40302590765256" x2="220.40302590765256" y1="0" y2="30"/><line opacity="0.2" x1="355.03050998001373" x2="355.03050998001373" y1="0" y2="30"/><line opacity="0.2" x1="489.0793362656127" x2="489.0793362656127" y1="0" y2="30"/><line opacity="0.2" x1="311.95568204519105" x2="311.95568204519105" y1="0" y2="30"/><line opacity="0.2" x1="297.5933650516535" x2="297.5933650516535" y1="0" y2="30"/><line opacity="0.2" x1="365.33076490104474" x2="365.33076490104474" y1="0" y2="30"/><line opacity="0.2" x1="303.4357467998735" x2="303.4357467998735" y1="0" y2="30"/><line opacity="0.2" x1="183.32042198935176" x2="183.32042198935176" y1="0" y2="30"/><line opacity="0.2" x1="205.99030605034883" x2="205.99030605034883" y1="0" y2="30"/><line opacity="0.2" x1="417.9280626588005" x2="417.9280626588005" y1="0" y2="30"/><line opacity="0.2" x1="490.96046143048517" x2="490.96046143048517" y1="0" y2="30"/><line opacity="0.2" x1="390.8854321790046" x2="390.8854321790046" y1="0" y2="30"/><line opacity="0.2" x1="209.62116276402762" x2="209.62116276402762" y1="0" y2="30"/><line opacity="0.2" x1="460.7870600177951" x2="460.7870600177951" y1="0" y2="30"/><line opacity="0.2" x1="253.61112032301378" x2="253.61112032301378" y1="0" y2="30"/><line opacity="0.2" x1="439.1403269043155" x2="439.1403269043155" y1="0" y2="30"/><line opacity="0.2" x1="314.1680438408927" x2="314.1680438408927" y1="0" y2="30"/><line opacity="0.2" x1="278.16724853707575" x2="278.16724853707575" y1="0" y2="30"/><line opacity="0.2" x1="449.47997387689946" x2="449.47997387689946" y1="0" y2="30"/><line opacity="0.2" x1="351.87093512115644" x2="351.87093512115644" y1="0" y2="30"/><line opacity="0.2" x1="223.86294872082073" x2="223.86294872082073" y1="0" y2="30"/><line opacity="0.2" x1="266.5410705685184" x2="266.5410705685184" y1="0" y2="30"/><line opacity="0.2" x1="384.9914810380747" x2="384.9914810380747" y1="0" y2="30"/><line opacity="0.2" x1="321.05478765359794" x2="321.05478765359794" y1="0" y2="30"/><line opacity="0.2" x1="540.3480842786552" x2="540.3480842786552" y1="0" y2="30"/><line opacity="0.2" x1="223.46206724668502" x2="223.46206724668502" y1="0" y2="30"/><line opacity="0.2" x1="244.83274144984827" x2="244.83274144984827" y1="0" y2="30"/><line opacity="0.2" x1="383.67996883177847" x2="383.67996883177847" y1="0" y2="30"/><line opacity="0.2" x1="458.7601623669725" x2="458.7601623669725" y1="0" y2="30"/><line opacity="0.2" x1="186.2050422405152" x2="186.2050422405152" y1="0" y2="30"/><line opacity="0.2" x1="488.3828906595253" x2="488.3828906595253" y1="0" y2="30"/><line opacity="0.2" x1="395.21907331505787" x2="395.21907331505787" y1="0" y2="30"/><line opacity="0.2" x1="316.01548012191034" x2="316.01548012191034" y1="0" y2="30"/><line opacity="0.2" x1="265.64349542134784" x2="265.64349542134784" y1="0" y2="30"/><line opacity="0.2" x1="307.0963849641381" x2="307.0963849641381" y1="0" y2="30"/><line opacity="0.2" x1="333.6695563171051" x2="333.6695563171051" y1="0" y2="30"/><line opacity="0.2" x1="516.74049140087" x2="516.74049140087" y1="0" y2="30"/><line opacity="0.2" x1="217.00915521857988" x2="217.00915521857988" y1="0" y2="30"/><line opacity="0.2" x1="476.1766355745232" x2="476.1766355745232" y1="0" y2="30"/><line opacity="0.2" x1="239.8302460930784" x2="239.8302460930784" y1="0" y2="30"/><line opacity="0.2" x1="337.0667048475997" x2="337.0667048475997" y1="0" y2="30"/><line opacity="0.2" x1="353.3508656044112" x2="353.3508656044112" y1="0" y2="30"/><line opacity="0.2" x1="439.15450439365463" x2="439.15450439365463" y1="0" y2="30"/><line opacity="0.2" x1="482.6787324874441" x2="482.6787324874441" y1="0" y2="30"/><line opacity="0.2" x1="377.3367140787603" x2="377.3367140787603" y1="0" y2="30"/><line opacity="0.2" x1="313.6922741420439" x2="313.6922741420439" y1="0" y2="30"/><line opacity="0.2" x1="322.9386063505213" x2="322.9386063505213" y1="0" y2="30"/><line opacity="0.2" x1="408.1987384382708" x2="408.1987384382708" y1="0" y2="30"/><line opacity="0.2" x1="401.81678578175894" x2="401.81678578175894" y1="0" y2="30"/><line opacity="0.2" x1="336.94443554570626" x2="336.94443554570626" y1="0" y2="30"/><line opacity="0.2" x1="472.21435530520245" x2="472.21435530520245" y1="0" y2="30"/><line opacity="0.2" x1="443.0540863632361" x2="443.0540863632361" y1="0" y2="30"/><line opacity="0.2" x1="447.85514829884085" x2="447.85514829884085" y1="0" y2="30"/><line opacity="0.2" x1="232.85713342151" x2="232.85713342151" y1="0" y2="30"/><line opacity="0.2" x1="529.1084116380113" x2="529.1084116380113" y1="0" y2="30"/><line opacity="0.2" x1="620" x2="620" y1="0" y2="30"/><line opacity="0.2" x1="333.2693474000307" x2="333.2693474000307" y1="0" y2="30"/><line opacity="0.2" x1="359.7947317466539" x2="359.7947317466539" y1="0" y2="30"/><line opacity="0.2" x1="126.4828718302372" x2="126.4828718302372" y1="0" y2="30"/><line opacity="0.2" x1="232.70619005486267" x2="232.70619005486267" y1="0" y2="30"/><line opacity="0.2" x1="291.9986791242828" x2="291.9986791242828" y1="0" y2="30"/><line opacity="0.2" x1="502.52886844087124" x2="502.52886844087124" y1="0" y2="30"/><line opacity="0.2" x1="323.1068003751854" x2="323.1068003751854" y1="0" y2="30"/><line opacity="0.2" x1="427.6187960835399" x2="427.6187960835399" y1="0" y2="30"/><line opacity="0.2" x1="415.39824708549804" x2="415.39824708549804" y1="0" y2="30"/><line opacity="0.2" x1="356.8616681633629" x2="356.8616681633629" y1="0" y2="30"/><line opacity="0.2" x1="182.79359694257974" x2="182.79359694257974" y1="0" y2="30"/><line opacity="0.2" x1="391.39282750659805" x2="391.39282750659805" y1="0" y2="30"/><line opacity="0.2" x1="319.01194320951595" x2="319.01194320951595" y1="0" y2="30"/><line opacity="0.2" x1="251.5104803002609" x2="251.5104803002609" y1="0" y2="30"/><line opacity="0.2" x1="278.8720293419014" x2="278.8720293419014" y1="0" y2="30"/><line opacity="0.2" x1="418.40434778797055" x2="418.40434778797055" y1="0" y2="30"/><line opacity="0.2" x1="539.2993298548096" x2="539.2993298548096" y1="0" y2="30"/><line opacity="0.2" x1="257.57789091395625" x2="257.57789091395625" y1="0" y2="30"/><line opacity="0.2" x1="237.616148116747" x2="237.616148116747" y1="0" y2="30"/><line opacity="0.2" x1="367.36098935227255" x2="367.36098935227255" y1="0" y2="30"/><line opacity="0.2" x1="280.4982923520877" x2="280.4982923520877" y1="0" y2="30"/><line opacity="0.2" x1="378.83830540730065" x2="378.83830540730065" y1="0" y2="30"/><line opacity="0.2" x1="376.8408627973836" x2="376.8408627973836" y1="0" y2="30"/><line opacity="0.2" x1="299.41336145022524" x2="299.41336145022524" y1="0" y2="30"/><line opacity="0.2" x1="320.19145979431426" x2="320.19145979431426" y1="0" y2="30"/><line opacity="0.2" x1="591.3603408874093" x2="591.3603408874093" y1="0" y2="30"/><line opacity="0.2" x1="302.6011949455837" x2="302.6011949455837" y1="0" y2="30"/><line opacity="0.2" x1="332.623399516812" x2="332.623399516812" y1="0" y2="30"/><line opacity="0.2" x1="350.4649791581818" x2="350.4649791581818" y1="0" y2="30"/><line opacity="0.2" x1="317.4690899870089" x2="317.4690899870089" y1="0" y2="30"/><line opacity="0.2" x1="381.4437449942891" x2="381.4437449942891" y1="0" y2="30"/><line opacity="0.2" x1="292.66336404845106" x2="292.66336404845106" y1="0" y2="30"/><line opacity="0.2" x1="476.69369280327976" x2="476.69369280327976" y1="0" y2="30"/><line opacity="0.2" x1="300.8494181751149" x2="300.8494181751149" y1="0" y2="30"/><line opacity="0.2" x1="309.68536035416395" x2="309.68536035416395" y1="0" y2="30"/><line opacity="0.2" x1="474.47971686902497" x2="474.47971686902497" y1="0" y2="30"/><line opacity="0.2" x1="224.40561514837992" x2="224.40561514837992" y1="0" y2="30"/><line opacity="0.2" x1="364.5034132175278" x2="364.5034132175278" y1="0" y2="30"/><line opacity="0.2" x1="395.73434990888575" x2="395.73434990888575" y1="0" y2="30"/><line opacity="0.2" x1="391.30078698178545" x2="391.30078698178545" y1="0" y2="30"/><line opacity="0.2" x1="458.48994939559674" x2="458.48994939559674" y1="0" y2="30"/><line opacity="0.2" x1="446.0349620955445" x2="446.0349620955445" y1="0" y2="30"/><line opacity="0.2" x1="349.4868702521355" x2="349.4868702521355" y1="0" y2="30"/><line opacity="0.2" x1="379.52986999854164" x2="379.52986999854164" y1="0" y2="30"/><line opacity="0.2" x1="343.318552054751" x2="343.318552054751" y1="0" y2="30"/><line opacity="0.2" x1="396.3857621281378" x2="396.3857621281378" y1="0" y2="30"/><line opacity="0.2" x1="311.6216537861644" x2="311.6216537861644" y1="0" y2="30"/><line opacity="0.2" x1="553.6090768166696" x2="553.6090768166696" y1="0" y2="30"/><line opacity="0.2" x1="329.0322341489692" x2="329.0322341489692" y1="0" y2="30"/><line opacity="0.2" x1="220.8123335249105" x2="220.8123335249105" y1="0" y2="30"/><line opacity="0.2" x1="388.4549474101257" x2="388.4549474101257" y1="0" y2="30"/><line opacity="0.2" x1="365.9517348329654" x2="365.9517348329654" y1="0" y2="30"/><line opacity="0.2" x1="563.7988651788016" x2="563.7988651788016" y1="0" y2="30"/><line opacity="0.2" x1="327.7214498907273" x2="327.7214498907273" y1="0" y2="30"/><line opacity="0.2" x1="264.9583073529902" x2="264.9583073529902" y1="0" y2="30"/><line opacity="0.2" x1="376.83434538933403" x2="376.83434538933403" y1="0" y2="30"/><line opacity="0.2" x1="316.8550548470534" x2="316.8550548470534" y1="0" y2="30"/><line opacity="0.2" x1="464.77268737152133" x2="464.77268737152133" y1="0" y2="30"/><line opacity="0.2" x1="487.53332199369976" x2="487.53332199369976" y1="0" y2="30"/><line opacity="0.2" x1="368.0743653020261" x2="368.0743653020261" y1="0" y2="30"/><line opacity="0.2" x1="289.3277394060098" x2="289.3277394060098" y1="0" y2="30"/><line opacity="0.2" x1="470.91118645133776" x2="470.91118645133776" y1="0" y2="30"/><line opacity="0.2" x1="336.21832562539197" x2="336.21832562539197" y1="0" y2="30"/><line opacity="0.2" x1="361.1864289053806" x2="361.1864289053806" y1="0" y2="30"/><line opacity="0.2" x1="263.40604551748646" x2="263.40604551748646" y1="0" y2="30"/><line opacity="0.2" x1="561.2163561599259" x2="561.2163561599259" y1="0" y2="30"/><line opacity="0.2" x1="441.51465263624186" x2="441.51465263624186" y1="0" y2="30"/><line opacity="0.2" x1="330.57563323322546" x2="330.57563323322546" y1="0" y2="30"/><line opacity="0.2" x1="240.54983252514435" x2="240.54983252514435" y1="0" y2="30"/><line opacity="0.2" x1="381.1343187517297" x2="381.1343187517297" y1="0" y2="30"/><line opacity="0.2" x1="445.8153537162448" x2="445.8153537162448" y1="0" y2="30"/><line opacity="0.2" x1="407.0077845558433" x2="407.0077845558433" y1="0" y2="30"/><line opacity="0.2" x1="239.93979168074273" x2="239.93979168074273" y1="0" y2="30"/><line opacity="0.2" x1="539.1993771750316" x2="539.1993771750316" y1="0" y2="30"/><line opacity="0.2" x1="557.4866731961856" x2="557.4866731961856" y1="0" y2="30"/><line opacity="0.2" x1="228.9560201583279" x2="228.9560201583279" y1="0" y2="30"/><line opacity="0.2" x1="274.6473688217331" x2="274.6473688217331" y1="0" y2="30"/><line opacity="0.2" x1="408.8020627537627" x2="408.8020627537627" y1="0" y2="30"/><line opacity="0.2" x1="370.24863514833174" x2="370.24863514833174" y1="0" y2="30"/><line opacity="0.2" x1="415.2955002100513" x2="415.2955002100513" y1="0" y2="30"/><line opacity="0.2" x1="227.49320286680114" x2="227.49320286680114" y1="0" y2="30"/><line opacity="0.2" x1="438.7427523984562" x2="438.7427523984562" y1="0" y2="30"/><line opacity="0.2" x1="205.96926542498448" x2="205.96926542498448" y1="0" y2="30"/><line opacity="0.2" x1="148.28434634040354" x2="148.28434634040354" y1="0" y2="30"/><line opacity="0.2" x1="355.82321679592917" x2="355.82321679592917" y1="0" y2="30"/><line opacity="0.2" x1="460.330411088702" x2="460.330411088702" y1="0" y2="30"/><line opacity="0.2" x1="372.88805912034513" x2="372.88805912034513" y1="0" y2="30"/><line opacity="0.2" x1="417.58085644574163" x2="417.58085644574163" y1="0" y2="30"/><line opacity="0.2" x1="412.891570573813" x2="412.891570573813" y1="0" y2="30"/><line opacity="0.2" x1="357.52834562869094" x2="357.52834562869094" y1="0" y2="30"/><line opacity="0.2" x1="293.6302505212625" x2="293.6302505212625" y1="0" y2="30"/><line opacity="0.2" x1="37.67882154767838" x2="37.67882154767838" y1="0" y2="30"/><line opacity="0.2" x1="427.92058664666524" x2="427.92058664666524" y1="0" y2="30"/><line opacity="0.2" x1="272.8406752417675" x2="272.8406752417675" y1="0" y2="30"/><line opacity="0.2" x1="348.1646030456796" x2="348.1646030456796" y1="0" y2="30"/><line opacity="0.2" x1="412.76979879831924" x2="412.76979879831924" y1="0" y2="30"/><line opacity="0.2" x1="397.6983161856664" x2="397.6983161856664" y1="0" y2="30"/><line opacity="0.2" x1="503.70580313610304" x2="503.70580313610304" y1="0" y2="30"/><line opacity="0.2" x1="345.5207505699107" x2="345.5207505699107" y1="0" y2="30"/><line opacity="0.2" x1="582.3264023930831" x2="582.3264023930831" y1="0" y2="30"/><line opacity="0.2" x1="410.96153590079405" x2="410.96153590079405" y1="0" y2="30"/><line opacity="0.2" x1="402.7738572995919" x2="402.7738572995919" y1="0" y2="30"/><line opacity="0.2" x1="20" x2="20" y1="0" y2="30"/><line opacity="0.2" x1="505.9433493216547" x2="505.9433493216547" y1="0" y2="30"/><line opacity="0.2" x1="380.6989000290409" x2="380.6989000290409" y1="0" y2="30"/><line opacity="0.2" x1="407.6940955804158" x2="407.6940955804158" y1="0" y2="30"/><line opacity="0.2" x1="343.14270626062677" x2="343.14270626062677" y1="0" y2="30"/><line opacity="0.2" x1="308.74803446898096" x2="308.74803446898096" y1="0" y2="30"/><line opacity="0.2" x1="380.6853619716074" x2="380.6853619716074" y1="0" y2="30"/><line opacity="0.2" x1="312.87824396455153" x2="312.87824396455153" y1="0" y2="30"/><line opacity="0.2" x1="343.67093079925513" x2="343.67093079925513" y1="0" y2="30"/><line opacity="0.2" x1="271.57152481782816" x2="271.57152481782816" y1="0" y2="30"/><line opacity="0.2" x1="319.8470953836134" x2="319.8470953836134" y1="0" y2="30"/><line opacity="0.2" x1="352.4254166725372" x2="352.4254166725372" y1="0" y2="30"/><line opacity="0.2" x1="377.69415960346856" x2="377.69415960346856" y1="0" y2="30"/><line opacity="0.2" x1="181.12927994147557" x2="181.12927994147557" y1="0" y2="30"/><line opacity="0.2" x1="489.7109184441746" x2="489.7109184441746" y1="0" y2="30"/><line opacity="0.2" x1="500.0874254351124" x2="500.0874254351124" y1="0" y2="30"/><line opacity="0.2" x1="324.5455719349976" x2="324.5455719349976" y1="0" y2="30"/><line opacity="0.2" x1="306.8642204853726" x2="306.8642204853726" y1="0" y2="30"/><line opacity="0.2" x1="550.388929605122" x2="550.388929605122" y1="0" y2="30"/><line opacity="0.2" x1="358.4386340872501" x2="358.4386340872501" y1="0" y2="30"/><line opacity="0.2" x1="311.52228030748347" x2="311.52228030748347" y1="0" y2="30"/><line opacity="0.2" x1="231.69013231416554" x2="231.69013231416554" y1="0" y2="30"/><line opacity="0.2" x1="325.5137156076018" x2="325.5137156076018" y1="0" y2="30"/><line opacity="0.2" x1="319.46571750178185" x2="319.46571750178185" y1="0" y2="30"/><line opacity="0.2" x1="287.25813808776934" x2="287.25813808776934" y1="0" y2="30"/><line opacity="0.2" x1="103.53018075643008" x2="103.53018075643008" y1="0" y2="30"/><line opacity="0.2" x1="602.1074786999473" x2="602.1074786999473" y1="0" y2="30"/><line opacity="0.2" x1="438.62430544114864" x2="438.62430544114864" y1="0" y2="30"/><line opacity="0.2" x1="329.0374444763292" x2="329.0374444763292" y1="0" y2="30"/><line opacity="0.2" x1="372.2209488003328" x2="372.2209488003328" y1="0" y2="30"/><line opacity="0.2" x1="324.29545999560366" x2="324.29545999560366" y1="0" y2="30"/><line opacity="0.2" x1="486.0642735206216" x2="486.0642735206216" y1="0" y2="30"/><line opacity="0.2" x1="392.6621436448132" x2="392.6621436448132" y1="0" y2="30"/><line opacity="0.2" x1="421.5712883148026" x2="421.5712883148026" y1="0" y2="30"/><line opacity="0.2" x1="446.88831835542686" x2="446.88831835542686" y1="0" y2="30"/><line opacity="0.2" x1="443.619470762958" x2="443.619470762958" y1="0" y2="30"/><line opacity="0.2" x1="295.52534533007116" x2="295.52534533007116" y1="0" y2="30"/><line opacity="0.2" x1="454.7481367869669" x2="454.7481367869669" y1="0" y2="30"/><line opacity="0.2" x1="465.3437783473491" x2="465.3437783473491" y1="0" y2="30"/><line opacity="0.2" x1="354.31359527220246" x2="354.31359527220246" y1="0" y2="30"/><line opacity="0.2" x1="440.8229005848498" x2="440.8229005848498" y1="0" y2="30"/><line opacity="0.2" x1="229.68202566520978" x2="229.68202566520978" y1="0" y2="30"/><line opacity="0.2" x1="405.82300153679387" x2="405.82300153679387" y1="0" y2="30"/><line opacity="0.2" x1="352.6137972530281" x2="352.6137972530281" y1="0" y2="30"/><line opacity="0.2" x1="421.9437399124387" x2="421.9437399124387" y1="0" y2="30"/><line opacity="0.2" x1="353.8113396686313" x2="353.8113396686313" y1="0" y2="30"/><line opacity="0.2" x1="169.92203994072452" x2="169.92203994072452" y1="0" y2="30"/><line opacity="0.2" x1="268.18357963072503" x2="268.18357963072503" y1="0" y2="30"/><line opacity="0.2" x1="482.55120939571407" x2="482.55120939571407" y1="0" y2="30"/><line opacity="0.2" x1="498.4872376073206" x2="498.4872376073206" y1="0" y2="30"/><line opacity="0.2" x1="227.9875991430366" x2="227.9875991430366" y1="0" y2="30"/><line opacity="0.2" x1="400.0328223843681" x2="400.0328223843681" y1="0" y2="30"/><line opacity="0.2" x1="259.28370750959346" x2="259.28370750959346" y1="0" y2="30"/><line opacity="0.2" x1="289.9232472122021" x2="289.9232472122021" y1="0" y2="30"/><line opacity="0.2" x1="343.9970221507389" x2="343.9970221507389" y1="0" y2="30"/><line opacity="0.2" x1="432.81754869038417" x2="432.81754869038417" y1="0" y2="30"/><line opacity="0.2" x1="322.41391088424484" x2="322.41391088424484" y1="0" y2="30"/><line opacity="0.2" x1="322.5093887991551" x2="322.5093887991551" y1="0" y2="30"/><line opacity="0.2" x1="307.9756837316854" x2="307.9756837316854" y1="0" y2="30"/><line opacity="0.2" x1="435.68233968644796" x2="435.68233968644796" y1="0" y2="30"/><line opacity="0.2" x1="359.9588862455883" x2="359.9588862455883" y1="0" y2="30"/><line opacity="0.2" x1="215.92029911345938" x2="215.92029911345938" y1="0" y2="30"/><line opacity="0.2" x1="240.83511183811632" x2="240.83511183811632" y1="0" y2="30"/><line opacity="0.2" x1="525.8853603801646" x2="525.8853603801646" y1="0" y2="30"/><line opacity="0.2" x1="264.13292606156574" x2="264.13292606156574" y1="0" y2="30"/><line opacity="0.2" x1="425.74757730820284" x2="425.74757730820284" y1="0" y2="30"/><line opacity="0.2" x1="354.19982680646035" x2="354.19982680646035" y1="0" y2="30"/><line opacity="0.2" x1="412.04502062276936" x2="412.04502062276936" y1="0" y2="30"/><line opacity="0.2" x1="273.6000150145234" x2="273.6000150145234" y1="0" y2="30"/><line opacity="0.2" x1="592.387471710679" x2="592.387471710679" y1="0" y2="30"/><line opacity="0.2" x1="525.803207233214" x2="525.803207233214" y1="0" y2="30"/><line opacity="0.2" x1="253.94623070633256" x2="253.94623070633256" y1="0" y2="30"/><line opacity="0.2" x1="394.2490336209052" x2="394.2490336209052" y1="0" y2="30"/><line opacity="0.2" x1="407.8876994723106" x2="407.8876994723106" y1="0" y2="30"/><line opacity="0.2" x1="361.9577204849054" x2="361.9577204849054" y1="0" y2="30"/><line opacity="0.2" x1="373.5682130458605" x2="373.5682130458605" y1="0" y2="30"/><line opacity="0.2" x1="384.68417201306585" x2="384.68417201306585" y1="0" y2="30"/><line opacity="0.2" x1="464.61969503612477" x2="464.61969503612477" y1="0" y2="30"/><line opacity="0.2" x1="475.7909903479975" x2="475.7909903479975" y1="0" y2="30"/><line opacity="0.2" x1="352.6018553696979" x2="352.6018553696979" y1="0" y2="30"/><line opacity="0.2" x1="186.21271802606105" x2="186.21271802606105" y1="0" y2="30"/><line opacity="0.2" x1="374.09266524510326" x2="374.09266524510326" y1="0" y2="30"/><line opacity="0.2" x1="370.9587978305809" x2="370.9587978305809" y1="0" y2="30"/><line opacity="0.2" x1="435.4219255027348" x2="435.4219255027348" y1="0" y2="30"/><line opacity="0.2" x1="425.5371903493356" x2="425.5371903493356" y1="0" y2="30"/><line opacity="0.2" x1="546.7889387050037" x2="546.7889387050037" y1="0" y2="30"/><line opacity="0.2" x1="394.51997715624606" x2="394.51997715624606" y1="0" y2="30"/><line opacity="0.2" x1="249.04015581554307" x2="249.04015581554307" y1="0" y2="30"/><line opacity="0.2" x1="388.6948307110977" x2="388.6948307110977" y1="0" y2="30"/><line opacity="0.2" x1="408.1107750272914" x2="408.1107750272914" y1="0" y2="30"/><line opacity="0.2" x1="375.1189089908742" x2="375.1189089908742" y1="0" y2="30"/><line opacity="0.2" x1="291.6664042910337" x2="291.6664042910337" y1="0" y2="30"/><line opacity="0.2" x1="491.69824115099135" x2="491.69824115099135" y1="0" y2="30"/><line opacity="0.2" x1="276.9136485029386" x2="276.9136485029386" y1="0" y2="30"/><line opacity="0.2" x1="324.5828796900026" x2="324.5828796900026" y1="0" y2="30"/><line opacity="0.2" x1="411.0575453209993" x2="411.0575453209993" y1="0" y2="30"/><line opacity="0.2" x1="342.31577795472623" x2="342.31577795472623" y1="0" y2="30"/><line opacity="0.2" x1="286.2548376800875" x2="286.2548376800875" y1="0" y2="30"/><line opacity="0.2" x1="402.5584711275265" x2="402.5584711275265" y1="0" y2="30"/><line opacity="0.2" x1="299.8882822104533" x2="299.8882822104533" y1="0" y2="30"/><line opacity="0.2" x1="172.46691289601142" x2="172.46691289601142" y1="0" y2="30"/><line opacity="0.2" x1="514.996390626193" x2="514.996390626193" y1="0" y2="30"/><line opacity="0.2" x1="452.4693191057382" x2="452.4693191057382" y1="0" y2="30"/><line opacity="0.2" x1="575.7139249742274" x2="575.7139249742274" y1="0" y2="30"/><line opacity="0.2" x1="391.600030119818" x2="391.600030119818" y1="0" y2="30"/><line opacity="0.2" x1="402.33530740673234" x2="402.33530740673234" y1="0" y2="30"/><line opacity="0.2" x1="386.8599922503652" x2="386.8599922503652" y1="0" y2="30"/><line opacity="0.2" x1="290.4514838415288" x2="290.4514838415288" y1="0" y2="30"/><line opacity="0.2" x1="339.9828808524884" x2="339.9828808524884" y1="0" y2="30"/><line opacity="0.2" x1="361.32652314038387" x2="361.32652314038387" y1="0" y2="30"/><line opacity="0.2" x1="356.99564656571107" x2="356.99564656571107" y1="0" y2="30"/><line opacity="0.2" x1="356.3975327144297" x2="356.3975327144297" y1="0" y2="30"/><line opacity="0.2" x1="443.06504470012595" x2="443.06504470012595" y1="0" y2="30"/><line opacity="0.2" x1="239.32009142408202" x2="239.32009142408202" y1="0" y2="30"/><line opacity="0.2" x1="433.73326547201737" x2="433.73326547201737" y1="0" y2="30"/><line opacity="0.2" x1="323.75927836567803" x2="323.75927836567803" y1="0" y2="30"/><line opacity="0.2" x1="175.9183815659201" x2="175.9183815659201" y1="0" y2="30"/><line opacity="0.2" x1="189.29153823646027" x2="189.29153823646027" y1="0" y2="30"/><line opacity="0.2" x1="416.3959205518785" x2="416.3959205518785" y1="0" y2="30"/><line opacity="0.2" x1="435.04238766700104" x2="435.04238766700104" y1="0" y2="30"/><line opacity="0.2" x1="289.58104776091574" x2="289.58104776091574" y1="0" y2="30"/><line opacity="0.2" x1="395.29701025780133" x2="395.29701025780133" y1="0" y2="30"/><line opacity="0.2" x1="329.53485478513005" x2="329.53485478513005" y1="0" y2="30"/><line opacity="0.2" x1="343.80978028108365" x2="343.80978028108365" y1="0" y2="30"/><line opacity="0.2" x1="373.56228638417116" x2="373.56228638417116" y1="0" y2="30"/><line opacity="0.2" x1="356.2341947191953" x2="356.2341947191953" y1="0" y2="30"/><line opacity="0.2" x1="325.6761549093036" x2="325.6761549093036" y1="0" y2="30"/><line opacity="0.2" x1="297.3789394478711" x2="297.3789394478711" y1="0" y2="30"/><line opacity="0.2" x1="432.68141566544506" x2="432.68141566544506" y1="0" y2="30"/><line opacity="0.2" x1="435.927682155852" x2="435.927682155852" y1="0" y2="30"/><line opacity="0.2" x1="206.47252393558412" x2="206.47252393558412" y1="0" y2="30"/><line opacity="0.2" x1="313.30919224238454" x2="313.30919224238454" y1="0" y2="30"/><line opacity="0.2" x1="313.93598575517984" x2="313.93598575517984" y1="0" y2="30"/><line opacity="0.2" x1="390.0976576563099" x2="390.0976576563099" y1="0" y2="30"/><line opacity="0.2" x1="163.89096786334414" x2="163.89096786334414" y1="0" y2="30"/><line opacity="0.2" x1="144.8761409209536" x2="144.8761409209536" y1="0" y2="30"/><line opacity="0.2" x1="343.6334144210165" x2="343.6334144210165" y1="0" y2="30"/><line opacity="0.2" x1="432.5966905607114" x2="432.5966905607114" y1="0" y2="30"/><line opacity="0.2" x1="316.3380735205886" x2="316.3380735205886" y1="0" y2="30"/><line opacity="0.2" x1="338.6691345257853" x2="338.6691345257853" y1="0" y2="30"/><line opacity="0.2" x1="381.98999603883146" x2="381.98999603883146" y1="0" y2="30"/><line opacity="0.2" x1="498.15355084107875" x2="498.15355084107875" y1="0" y2="30"/><line opacity="0.2" x1="316.3937974959005" x2="316.3937974959005" y1="0" y2="30"/><line opacity="0.2" x1="244.78253358696895" x2="244.78253358696895" y1="0" y2="30"/><line opacity="0.2" x1="287.3498982224141" x2="287.3498982224141" y1="0" y2="30"/><line opacity="0.2" x1="269.1446821162864" x2="269.1446821162864" y1="0" y2="30"/><line opacity="0.2" x1="394.4210795296887" x2="394.4210795296887" y1="0" y2="30"/><line opacity="0.2" x1="506.2093828954633" x2="506.2093828954633" y1="0" y2="30"/><line opacity="0.2" x1="369.387526916753" x2="369.387526916753" y1="0" y2="30"/><line opacity="0.2" x1="182.32959943272016" x2="182.32959943272016" y1="0" y2="30"/><line opacity="0.2" x1="225.5082715470434" x2="225.5082715470434" y1="0" y2="30"/><line opacity="0.2" x1="436.3045598164292" x2="436.3045598164292" y1="0" y2="30"/><line opacity="0.2" x1="327.46629319369373" x2="327.46629319369373" y1="0" y2="30"/><line opacity="0.2" x1="203.66907855281795" x2="203.66907855281795" y1="0" y2="30"/><line opacity="0.2" x1="144.61126955545308" x2="144.61126955545308" y1="0" y2="30"/><line opacity="0.2" x1="460.16087858705623" x2="460.16087858705623" y1="0" y2="30"/><line opacity="0.2" x1="365.956322016576" x2="365.956322016576" y1="0" y2="30"/><line opacity="0.2" x1="554.3855832547201" x2="554.3855832547201" y1="0" y2="30"/><line opacity="0.2" x1="375.47963510802776" x2="375.47963510802776" y1="0" y2="30"/><line opacity="0.2" x1="531.3620119874755" x2="531.3620119874755" y1="0" y2="30"/><line opacity="0.2" x1="318.89086969292504" x2="318.89086969292504" y1="0" y2="30"/><line opacity="0.2" x1="379.7894631527659" x2="379.7894631527659" y1="0" y2="30"/><line opacity="0.2" x1="121.88915870159423" x2="121.88915870159423" y1="0" y2="30"/><line opacity="0.2" x1="218.54223192831597" x2="218.54223192831597" y1="0" y2="30"/><line opacity="0.2" x1="342.92643843750886" x2="342.92643843750886" y1="0" y2="30"/><line opacity="0.2" x1="435.20161968467676" x2="435.20161968467676" y1="0" y2="30"/><line opacity="0.2" x1="330.8778682087161" x2="330.8778682087161" y1="0" y2="30"/><line opacity="0.2" x1="92.60931133824567" x2="92.60931133824567" y1="0" y2="30"/><line opacity="0.2" x1="185.06805048613765" x2="185.06805048613765" y1="0" y2="30"/><line opacity="0.2" x1="243.0582597905762" x2="243.0582597905762" y1="0" y2="30"/><line opacity="0.2" x1="365.9049381216014" x2="365.9049381216014" y1="0" y2="30"/><line opacity="0.2" x1="350.46554504002506" x2="350.46554504002506" y1="0" y2="30"/><line opacity="0.2" x1="406.69307703275075" x2="406.69307703275075" y1="0" y2="30"/><line opacity="0.2" x1="480.00749519736814" x2="480.00749519736814" y1="0" y2="30"/><line opacity="0.2" x1="420.95017488494136" x2="420.95017488494136" y1="0" y2="30"/><line opacity="0.2" x1="240.59008391820404" x2="240.59008391820404" y1="0" y2="30"/><line opacity="0.2" x1="310.83003915202715" x2="310.83003915202715" y1="0" y2="30"/><line opacity="0.2" x1="353.8981059924944" x2="353.8981059924944" y1="0" y2="30"/><line opacity="0.2" x1="303.9449114389729" x2="303.9449114389729" y1="0" y2="30"/><line opacity="0.2" x1="251.79203320165823" x2="251.79203320165823" y1="0" y2="30"/><line opacity="0.2" x1="141.433339283412" x2="141.433339283412" y1="0" y2="30"/><line opacity="0.2" x1="412.6422778509343" x2="412.6422778509343" y1="0" y2="30"/><line opacity="0.2" x1="209.3790296833887" x2="209.3790296833887" y1="0" y2="30"/><line opacity="0.2" x1="361.5374326655451" x2="361.5374326655451" y1="0" y2="30"/><line opacity="0.2" x1="413.52354753192026" x2="413.52354753192026" y1="0" y2="30"/><line opacity="0.2" x1="337.1115214509222" x2="337.1115214509222" y1="0" y2="30"/><line opacity="0.2" x1="281.37177314475093" x2="281.37177314475093" y1="0" y2="30"/><line opacity="0.2" x1="358.5436954069127" x2="358.5436954069127" y1="0" y2="30"/><line opacity="0.2" x1="288.8269056198404" x2="288.8269056198404" y1="0" y2="30"/><line opacity="0.2" x1="434.09348292705045" x2="434.09348292705045" y1="0" y2="30"/><line opacity="0.2" x1="350.76077481480775" x2="350.76077481480775" y1="0" y2="30"/><line opacity="0.2" x1="555.2497715292454" x2="555.2497715292454" y1="0" y2="30"/><line opacity="0.2" x1="381.4427588867838" x2="381.4427588867838" y1="0" y2="30"/><line opacity="0.2" x1="394.6660194428059" x2="394.6660194428059" y1="0" y2="30"/><line opacity="0.2" x1="384.41026901068716" x2="384.41026901068716" y1="0" y2="30"/><line opacity="0.2" x1="286.1628813446675" x2="286.1628813446675" y1="0" y2="30"/><line opacity="0.2" x1="325.4540377447261" x2="325.4540377447261" y1="0" y2="30"/><line opacity="0.2" x1="306.19743962772515" x2="306.19743962772515" y1="0" y2="30"/><line opacity="0.2" x1="389.18413842804824" x2="389.18413842804824" y1="0" y2="30"/><line opacity="0.2" x1="387.20521494124705" x2="387.20521494124705" y1="0" y2="30"/><line opacity="0.2" x1="446.0476193049874" x2="446.0476193049874" y1="0" y2="30"/><line opacity="0.2" x1="386.2437442468376" x2="386.2437442468376" y1="0" y2="30"/><line opacity="0.2" x1="327.5722062885263" x2="327.5722062885263" y1="0" y2="30"/><line opacity="0.2" x1="348.9734481110586" x2="348.9734481110586" y1="0" y2="30"/><line opacity="0.2" x1="383.54147324269496" x2="383.54147324269496" y1="0" y2="30"/><line opacity="0.2" x1="317.1132096650725" x2="317.1132096650725" y1="0" y2="30"/><line opacity="0.2" x1="252.43669969017859" x2="252.43669969017859" y1="0" y2="30"/><line opacity="0.2" x1="512.917116093964" x2="512.917116093964" y1="0" y2="30"/><line opacity="0.2" x1="512.1461521933825" x2="512.1461521933825" y1="0" y2="30"/><line opacity="0.2" x1="388.1854456611869" x2="388.1854456611869" y1="0" y2="30"/><line opacity="0.2" x1="436.64192500899634" x2="436.64192500899634" y1="0" y2="30"/><line opacity="0.2" x1="388.3495442124776" x2="388.3495442124776" y1="0" y2="30"/><line opacity="0.2" x1="586.0433303202234" x2="586.0433303202234" y1="0" y2="30"/><line opacity="0.2" x1="467.40900495452155" x2="467.40900495452155" y1="0" y2="30"/><line opacity="0.2" x1="388.61118866220494" x2="388.61118866220494" y1="0" y2="30"/><line opacity="0.2" x1="379.53645479512267" x2="379.53645479512267" y1="0" y2="30"/><line opacity="0.2" x1="315.7190322365647" x2="315.7190322365647" y1="0" y2="30"/><line opacity="0.2" x1="357.9942161819791" x2="357.9942161819791" y1="0" y2="30"/><line opacity="0.2" x1="470.54950306682093" x2="470.54950306682093" y1="0" y2="30"/><line opacity="0.2" x1="458.29674872298494" x2="458.29674872298494" y1="0" y2="30"/><line opacity="0.2" x1="160.9911396301584" x2="160.9911396301584" y1="0" y2="30"/><line opacity="0.2" x1="384.62522854777586" x2="384.62522854777586" y1="0" y2="30"/><line opacity="0.2" x1="470.5711885426124" x2="470.5711885426124" y1="0" y2="30"/><line opacity="0.2" x1="348.33754596975456" x2="348.33754596975456" y1="0" y2="30"/><line opacity="0.2" x1="182.64226461431642" x2="182.64226461431642" y1="0" y2="30"/><line opacity="0.2" x1="378.0673385610866" x2="378.0673385610866" y1="0" y2="30"/><line opacity="0.2" x1="404.1812552951249" x2="404.1812552951249" y1="0" y2="30"/><line opacity="0.2" x1="431.21050432098923" x2="431.21050432098923" y1="0" y2="30"/><line opacity="0.2" x1="336.85354818402527" x2="336.85354818402527" y1="0" y2="30"/><line opacity="0.2" x1="351.8635771107028" x2="351.8635771107028" y1="0" y2="30"/><line opacity="0.2" x1="306.13883675433755" x2="306.13883675433755" y1="0" y2="30"/><line opacity="0.2" x1="345.41032598030125" x2="345.41032598030125" y1="0" y2="30"/><line opacity="0.2" x1="407.57888825595927" x2="407.57888825595927" y1="0" y2="30"/><line opacity="0.2" x1="315.0224958140247" x2="315.0224958140247" y1="0" y2="30"/><line opacity="0.2" x1="315.804875890283" x2="315.804875890283" y1="0" y2="30"/><line opacity="0.2" x1="432.44573177382085" x2="432.44573177382085" y1="0" y2="30"/><line opacity="0.2" x1="221.79834310214238" x2="221.79834310214238" y1="0" y2="30"/><line opacity="0.2" x1="490.92159057647854" x2="490.92159057647854" y1="0" y2="30"/><line opacity="0.2" x1="485.69838626853215" x2="485.69838626853215" y1="0" y2="30"/><line opacity="0.2" x1="560.6367177096722" x2="560.6367177096722" y1="0" y2="30"/><line opacity="0.2" x1="505.0782748977244" x2="505.0782748977244" y1="0" y2="30"/><line opacity="0.2" x1="282.1556759232942" x2="282.1556759232942" y1="0" y2="30"/><line opacity="0.2" x1="211.98969110805515" x2="211.98969110805515" y1="0" y2="30"/><line opacity="0.2" x1="312.86208514401187" x2="312.86208514401187" y1="0" y2="30"/><line opacity="0.2" x1="561.9706379459049" x2="561.9706379459049" y1="0" y2="30"/><line opacity="0.2" x1="430.2243879091463" x2="430.2243879091463" y1="0" y2="30"/><line opacity="0.2" x1="318.5767013503272" x2="318.5767013503272" y1="0" y2="30"/><line opacity="0.2" x1="423.1163319375388" x2="423.1163319375388" y1="0" y2="30"/><line opacity="0.2" x1="593.0651157734251" x2="593.0651157734251" y1="0" y2="30"/><line opacity="0.2" x1="228.18877508758322" x2="228.18877508758322" y1="0" y2="30"/><line opacity="0.2" x1="321.35675022629715" x2="321.35675022629715" y1="0" y2="30"/><line opacity="0.2" x1="419.1312970002381" x2="419.1312970002381" y1="0" y2="30"/><line opacity="0.2" x1="348.4598343104929" x2="348.4598343104929" y1="0" y2="30"/><line opacity="0.2" x1="149.34150629202165" x2="149.34150629202165" y1="0" y2="30"/><line opacity="0.2" x1="219.12689425832147" x2="219.12689425832147" y1="0" y2="30"/><line opacity="0.2" x1="266.96159386516536" x2="266.96159386516536" y1="0" y2="30"/><line opacity="0.2" x1="549.3575938012758" x2="549.3575938012758" y1="0" y2="30"/><line opacity="0.2" x1="351.93761631315925" x2="351.93761631315925" y1="0" y2="30"/><line opacity="0.2" x1="382.43796734997994" x2="382.43796734997994" y1="0" y2="30"/><line opacity="0.2" x1="241.35770765660234" x2="241.35770765660234" y1="0" y2="30"/><line opacity="0.2" x1="430.50489688108314" x2="430.50489688108314" y1="0" y2="30"/><line opacity="0.2" x1="413.9922026734145" x2="413.9922026734145" y1="0" y2="30"/><line opacity="0.2" x1="263.33679385025584" x2="263.33679385025584" y1="0" y2="30"/><line opacity="0.2" x1="371.70080293582123" x2="371.70080293582123" y1="0" y2="30"/><line opacity="0.2" x1="474.71521007746384" x2="474.71521007746384" y1="0" y2="30"/><line opacity="0.2" x1="233.38865115326465" x2="233.38865115326465" y1="0" y2="30"/><line opacity="0.2" x1="297.344235373826" x2="297.344235373826" y1="0" y2="30"/><line opacity="0.2" x1="209.09138475545683" x2="209.09138475545683" y1="0" y2="30"/><line opacity="0.2" x1="377.8156701014819" x2="377.8156701014819" y1="0" y2="30"/><line opacity="0.2" x1="317.9326091447991" x2="317.9326091447991" y1="0" y2="30"/><line opacity="0.2" x1="473.5022440126828" x2="473.5022440126828" y1="0" y2="30"/><line opacity="0.2" x1="218.59933141237624" x2="218.59933141237624" y1="0" y2="30"/><line opacity="0.2" x1="477.04937359430147" x2="477.04937359430147" y1="0" y2="30"/><line opacity="0.2" x1="510.36508407126576" x2="510.36508407126576" y1="0" y2="30"/><line opacity="0.2" x1="301.3670649486185" x2="301.3670649486185" y1="0" y2="30"/><line opacity="0.2" x1="392.1083491492737" x2="392.1083491492737" y1="0" y2="30"/><line opacity="0.2" x1="364.842327301308" x2="364.842327301308" y1="0" y2="30"/><line opacity="0.2" x1="171.67248420335497" x2="171.67248420335497" y1="0" y2="30"/><line opacity="0.2" x1="95.15391770074527" x2="95.15391770074527" y1="0" y2="30"/><line opacity="0.2" x1="365.9262074762181" x2="365.9262074762181" y1="0" y2="30"/><line opacity="0.2" x1="418.1028853641582" x2="418.1028853641582" y1="0" y2="30"/><line opacity="0.2" x1="336.02038869013376" x2="336.02038869013376" y1="0" y2="30"/><line opacity="0.2" x1="267.00516842800397" x2="267.00516842800397" y1="0" y2="30"/><line opacity="0.2" x1="375.1470866519357" x2="375.1470866519357" y1="0" y2="30"/><line opacity="0.2" x1="323.8029311549749" x2="323.8029311549749" y1="0" y2="30"/><line opacity="0.2" x1="527.9416454326253" x2="527.9416454326253" y1="0" y2="30"/><line opacity="0.2" x1="254.74739873212852" x2="254.74739873212852" y1="0" y2="30"/><line opacity="0.2" x1="304.65526618920774" x2="304.65526618920774" y1="0" y2="30"/><line opacity="0.2" x1="323.1068298568473" x2="323.1068298568473" y1="0" y2="30"/><line opacity="0.2" x1="353.5955936066991" x2="353.5955936066991" y1="0" y2="30"/><line opacity="0.2" x1="300.91061813149486" x2="300.91061813149486" y1="0" y2="30"/><line opacity="0.2" x1="190.63662637705372" x2="190.63662637705372" y1="0" y2="30"/><line opacity="0.2" x1="293.5044083406958" x2="293.5044083406958" y1="0" y2="30"/><line opacity="0.2" x1="367.7111239340053" x2="367.7111239340053" y1="0" y2="30"/><line opacity="0.2" x1="305.72935752470437" x2="305.72935752470437" y1="0" y2="30"/><line opacity="0.2" x1="348.19613058305197" x2="348.19613058305197" y1="0" y2="30"/><line opacity="0.2" x1="441.42031223597866" x2="441.42031223597866" y1="0" y2="30"/><line opacity="0.2" x1="295.6794465229138" x2="295.6794465229138" y1="0" y2="30"/><line opacity="0.2" x1="346.4693323572107" x2="346.4693323572107" y1="0" y2="30"/><line opacity="0.2" x1="365.1216696506409" x2="365.1216696506409" y1="0" y2="30"/><line opacity="0.2" x1="369.58502678526406" x2="369.58502678526406" y1="0" y2="30"/><line opacity="0.2" x1="416.9028848230825" x2="416.9028848230825" y1="0" y2="30"/><line opacity="0.2" x1="400.9083853907137" x2="400.9083853907137" y1="0" y2="30"/><line opacity="0.2" x1="277.23181906801136" x2="277.23181906801136" y1="0" y2="30"/><line opacity="0.2" x1="273.7227772091957" x2="273.7227772091957" y1="0" y2="30"/><line opacity="0.2" x1="314.51051801465593" x2="314.51051801465593" y1="0" y2="30"/><line opacity="0.2" x1="443.4460386396028" x2="443.4460386396028" y1="0" y2="30"/><line opacity="0.2" x1="538.283903181372" x2="538.283903181372" y1="0" y2="30"/><line opacity="0.2" x1="407.04923980289954" x2="407.04923980289954" y1="0" y2="30"/><line opacity="0.2" x1="438.08167700923934" x2="438.08167700923934" y1="0" y2="30"/><line opacity="0.2" x1="320.7558340840968" x2="320.7558340840968" y1="0" y2="30"/><line opacity="0.2" x1="357.3509029563075" x2="357.3509029563075" y1="0" y2="30"/><line opacity="0.2" x1="435.05433116596583" x2="435.05433116596583" y1="0" y2="30"/><line opacity="0.2" x1="399.65878280316736" x2="399.65878280316736" y1="0" y2="30"/><line opacity="0.2" x1="397.34356248331045" x2="397.34356248331045" y1="0" y2="30"/><line opacity="0.2" x1="373.404886624944" x2="373.404886624944" y1="0" y2="30"/><line opacity="0.2" x1="180.9345612883176" x2="180.9345612883176" y1="0" y2="30"/><line opacity="0.2" x1="499.06460444925347" x2="499.06460444925347" y1="0" y2="30"/><line opacity="0.2" x1="200.99474492572114" x2="200.99474492572114" y1="0" y2="30"/><line opacity="0.2" x1="289.7061856901572" x2="289.7061856901572" y1="0" y2="30"/><line opacity="0.2" x1="475.90623695060486" x2="475.90623695060486" y1="0" y2="30"/><line opacity="0.2" x1="423.37481825670005" x2="423.37481825670005" y1="0" y2="30"/><line opacity="0.2" x1="208.8779329145278" x2="208.8779329145278" y1="0" y2="30"/><line opacity="0.2" x1="380.9744102542447" x2="380.9744102542447" y1="0" y2="30"/><line opacity="0.2" x1="434.74400352953495" x2="434.74400352953495" y1="0" y2="30"/><line opacity="0.2" x1="412.72274974692635" x2="412.72274974692635" y1="0" y2="30"/><line opacity="0.2" x1="336.0025664012179" x2="336.0025664012179" y1="0" y2="30"/><line opacity="0.2" x1="487.1967731766333" x2="487.1967731766333" y1="0" y2="30"/><line opacity="0.2" x1="433.4991996052541" x2="433.4991996052541" y1="0" y2="30"/><line opacity="0.2" x1="417.68193671652347" x2="417.68193671652347" y1="0" y2="30"/><line opacity="0.2" x1="271.68987051373153" x2="271.68987051373153" y1="0" y2="30"/><line opacity="0.2" x1="324.72960790842353" x2="324.72960790842353" y1="0" y2="30"/><line opacity="0.2" x1="480.98632403035856" x2="480.98632403035856" y1="0" y2="30"/><line opacity="0.2" x1="370.1115358497454" x2="370.1115358497454" y1="0" y2="30"/><line opacity="0.2" x1="393.2593907454264" x2="393.2593907454264" y1="0" y2="30"/><line opacity="0.2" x1="275.6219155146927" x2="275.6219155146927" y1="0" y2="30"/><line opacity="0.2" x1="487.3648534644774" x2="487.3648534644774" y1="0" y2="30"/><line opacity="0.2" x1="454.2510913332761" x2="454.2510913332761" y1="0" y2="30"/><line opacity="0.2" x1="361.7081009073713" x2="361.7081009073713" y1="0" y2="30"/><line opacity="0.2" x1="302.96778413441854" x2="302.96778413441854" y1="0" y2="30"/><line opacity="0.2" x1="302.2400173718923" x2="302.2400173718923" y1="0" y2="30"/><line opacity="0.2" x1="283.66017119977977" x2="283.66017119977977" y1="0" y2="30"/><line opacity="0.2" x1="305.624571227822" x2="305.624571227822" y1="0" y2="30"/><line opacity="0.2" x1="259.11266566486285" x2="259.11266566486285" y1="0" y2="30"/><line opacity="0.2" x1="355.61502808179876" x2="355.61502808179876" y1="0" y2="30"/><line opacity="0.2" x1="512.3378852288457" x2="512.3378852288457" y1="0" y2="30"/><line opacity="0.2" x1="325.57236278663214" x2="325.57236278663214" y1="0" y2="30"/><line opacity="0.2" x1="593.1361550976318" x2="593.1361550976318" y1="0" y2="30"/><line opacity="0.2" x1="384.9848771697163" x2="384.9848771697163" y1="0" y2="30"/><line opacity="0.2" x1="220.34984795618712" x2="220.34984795618712" y1="0" y2="30"/><line opacity="0.2" x1="372.12688156333667" x2="372.12688156333667" y1="0" y2="30"/><line opacity="0.2" x1="213.36782949904728" x2="213.36782949904728" y1="0" y2="30"/><line opacity="0.2" x1="368.8987037916812" x2="368.8987037916812" y1="0" y2="30"/><line opacity="0.2" x1="381.9879946200515" x2="381.9879946200515" y1="0" y2="30"/><line opacity="0.2" x1="246.978417805503" x2="246.978417805503" y1="0" y2="30"/><line opacity="0.2" x1="129.35016902602158" x2="129.35016902602158" y1="0" y2="30"/><line opacity="0.2" x1="248.61166038683615" x2="248.61166038683615" y1="0" y2="30"/><line opacity="0.2" x1="389.83567683074773" x2="389.83567683074773" y1="0" y2="30"/><line opacity="0.2" x1="225.72164192286226" x2="225.72164192286226" y1="0" y2="30"/><line opacity="0.2" x1="483.272431273302" x2="483.272431273302" y1="0" y2="30"/><line opacity="0.2" x1="331.1487624901272" x2="331.1487624901272" y1="0" y2="30"/><line opacity="0.2" x1="298.8524059137091" x2="298.8524059137091" y1="0" y2="30"/><line opacity="0.2" x1="154.046707691538" x2="154.046707691538" y1="0" y2="30"/><line opacity="0.2" x1="253.30187372314197" x2="253.30187372314197" y1="0" y2="30"/><line opacity="0.2" x1="335.67575573233034" x2="335.67575573233034" y1="0" y2="30"/><line opacity="0.2" x1="293.187079266571" x2="293.187079266571" y1="0" y2="30"/><line opacity="0.2" x1="524.2080336037073" x2="524.2080336037073" y1="0" y2="30"/><line opacity="0.2" x1="360.41080239992164" x2="360.41080239992164" y1="0" y2="30"/><line opacity="0.2" x1="327.6745860763297" x2="327.6745860763297" y1="0" y2="30"/><line opacity="0.2" x1="446.1541053990563" x2="446.1541053990563" y1="0" y2="30"/><line opacity="0.2" x1="383.81427421240807" x2="383.81427421240807" y1="0" y2="30"/><line opacity="0.2" x1="565.2797530018944" x2="565.2797530018944" y1="0" y2="30"/><line opacity="0.2" x1="376.64077897318083" x2="376.64077897318083" y1="0" y2="30"/><line opacity="0.2" x1="354.63066156964544" x2="354.63066156964544" y1="0" y2="30"/><line opacity="0.2" x1="434.59973558726614" x2="434.59973558726614" y1="0" y2="30"/><line opacity="0.2" x1="500.68938022625355" x2="500.68938022625355" y1="0" y2="30"/><line opacity="0.2" x1="211.61002835691158" x2="211.61002835691158" y1="0" y2="30"/><line opacity="0.2" x1="423.66697300781624" x2="423.66697300781624" y1="0" y2="30"/><line opacity="0.2" x1="371.25451324097094" x2="371.25451324097094" y1="0" y2="30"/><line opacity="0.2" x1="351.54082510678717" x2="351.54082510678717" y1="0" y2="30"/><line opacity="0.2" x1="271.9311012391383" x2="271.9311012391383" y1="0" y2="30"/><line opacity="0.2" x1="246.16247574669922" x2="246.16247574669922" y1="0" y2="30"/><line opacity="0.2" x1="392.2775303912803" x2="392.2775303912803" y1="0" y2="30"/><line opacity="0.2" x1="318.95968192271965" x2="318.95968192271965" y1="0" y2="30"/><line opacity="0.2" x1="336.6823283776475" x2="336.6823283776475" y1="0" y2="30"/><line opacity="0.2" x1="552.2399270804308" x2="552.2399270804308" y1="0" y2="30"/><line opacity="0.2" x1="482.5229654089429" x2="482.5229654089429" y1="0" y2="30"/><line opacity="0.2" x1="405.95825645585046" x2="405.95825645585046" y1="0" y2="30"/><line opacity="0.2" x1="353.1952220213866" x2="353.1952220213866" y1="0" y2="30"/><line opacity="0.2" x1="374.13304002002326" x2="374.13304002002326" y1="0" y2="30"/><line opacity="0.2" x1="330.2405468699463" x2="330.2405468699463" y1="0" y2="30"/><line opacity="0.2" x1="333.6312586293704" x2="333.6312586293704" y1="0" y2="30"/><line opacity="0.2" x1="283.4672302653646" x2="283.4672302653646" y1="0" y2="30"/><line opacity="0.2" x1="352.56947729780205" x2="352.56947729780205" y1="0" y2="30"/><line opacity="0.2" x1="323.77101972408195" x2="323.77101972408195" y1="0" y2="30"/><line opacity="0.2" x1="547.8582310461649" x2="547.8582310461649" y1="0" y2="30"/><line opacity="0.2" x1="454.9493511722768" x2="454.9493511722768" y1="0" y2="30"/><line opacity="0.2" x1="319.4156096385455" x2="319.4156096385455" y1="0" y2="30"/><line opacity="0.2" x1="335.6016851754604" x2="335.6016851754604" y1="0" y2="30"/><line opacity="0.2" x1="278.1376144109084" x2="278.1376144109084" y1="0" y2="30"/><line opacity="0.2" x1="256.13129220828284" x2="256.13129220828284" y1="0" y2="30"/><line opacity="0.2" x1="436.4617394751603" x2="436.4617394751603" y1="0" y2="30"/><line opacity="0.2" x1="401.9517544243862" x2="401.9517544243862" y1="0" y2="30"/><line opacity="0.2" x1="320.24474220261266" x2="320.24474220261266" y1="0" y2="30"/><line opacity="0.2" x1="473.5744581799413" x2="473.5744581799413" y1="0" y2="30"/><line opacity="0.2" x1="400.55598227030424" x2="400.55598227030424" y1="0" y2="30"/><line opacity="0.2" x1="378.17548377777274" x2="378.17548377777274" y1="0" y2="30"/><line opacity="0.2" x1="334.99290649073987" x2="334.99290649073987" y1="0" y2="30"/><line opacity="0.2" x1="326.63284250481695" x2="326.63284250481695" y1="0" y2="30"/><line opacity="0.2" x1="286.7398001619635" x2="286.7398001619635" y1="0" y2="30"/><line opacity="0.2" x1="587.2967400303304" x2="587.2967400303304" y1="0" y2="30"/><line opacity="0.2" x1="212.16615382784994" x2="212.16615382784994" y1="0" y2="30"/><line opacity="0.2" x1="298.92583007787744" x2="298.92583007787744" y1="0" y2="30"/><line opacity="0.2" x1="131.04459770443142" x2="131.04459770443142" y1="0" y2="30"/><line opacity="0.2" x1="329.70972196496916" x2="329.70972196496916" y1="0" y2="30"/><line opacity="0.2" x1="339.393484590846" x2="339.393484590846" y1="0" y2="30"/><line opacity="0.2" x1="389.4154371211567" x2="389.4154371211567" y1="0" y2="30"/><line opacity="0.2" x1="245.01603740513775" x2="245.01603740513775" y1="0" y2="30"/><line opacity="0.2" x1="204.6100219802074" x2="204.6100219802074" y1="0" y2="30"/><line opacity="0.2" x1="307.9663874674059" x2="307.9663874674059" y1="0" y2="30"/><line opacity="0.2" x1="355.48395747635607" x2="355.48395747635607" y1="0" y2="30"/><line opacity="0.2" x1="402.09510644723474" x2="402.09510644723474" y1="0" y2="30"/><line opacity="0.2" x1="481.2264541247568" x2="481.2264541247568" y1="0" y2="30"/><line opacity="0.2" x1="203.5043447318364" x2="203.5043447318364" y1="0" y2="30"/><line opacity="0.2" x1="302.94705494915377" x2="302.94705494915377" y1="0" y2="30"/><line opacity="0.2" x1="327.40000182756546" x2="327.40000182756546" y1="0" y2="30"/><line opacity="0.2" x1="438.00610776744134" x2="438.00610776744134" y1="0" y2="30"/><line opacity="0.2" x1="256.2489693995681" x2="256.2489693995681" y1="0" y2="30"/><line opacity="0.2" x1="230.2171696825783" x2="230.2171696825783" y1="0" y2="30"/><line opacity="0.2" x1="383.6829788975152" x2="383.6829788975152" y1="0" y2="30"/><line opacity="0.2" x1="394.75447289412745" x2="394.75447289412745" y1="0" y2="30"/><line opacity="0.2" x1="455.12525505081845" x2="455.12525505081845" y1="0" y2="30"/><line opacity="0.2" x1="242.53743163534463" x2="242.53743163534463" y1="0" y2="30"/><line opacity="0.2" x1="409.3034018845975" x2="409.3034018845975" y1="0" y2="30"/><line opacity="0.2" x1="377.14509052938877" x2="377.14509052938877" y1="0" y2="30"/><line opacity="0.2" x1="425.7414815223101" x2="425.7414815223101" y1="0" y2="30"/><line opacity="0.2" x1="384.02022221592506" x2="384.02022221592506" y1="0" y2="30"/><line opacity="0.2" x1="355.7605806135603" x2="355.7605806135603" y1="0" y2="30"/><line opacity="0.2" x1="165.7025849642451" x2="165.7025849642451" y1="0" y2="30"/><line opacity="0.2" x1="167.18584820016693" x2="167.18584820016693" y1="0" y2="30"/><line opacity="0.2" x1="152.06996135226336" x2="152.06996135226336" y1="0" y2="30"/><line opacity="0.2" x1="375.93129994541613" x2="375.93129994541613" y1="0" y2="30"/><line opacity="0.2" x1="258.1405742789926" x2="258.1405742789926" y1="0" y2="30"/><line opacity="0.2" x1="558.2846813453647" x2="558.2846813453647" y1="0" y2="30"/><line opacity="0.2" x1="461.7349858107835" x2="461.7349858107835" y1="0" y2="30"/><line opacity="0.2" x1="358.528383889196" x2="358.528383889196" y1="0" y2="30"/><line opacity="0.2" x1="477.3446387759689" x2="477.3446387759689" y1="0" y2="30"/><line opacity="0.2" x1="393.3228174364007" x2="393.3228174364007" y1="0" y2="30"/><line opacity="0.2" x1="372.7409510647941" x2="372.7409510647941" y1="0" y2="30"/><line opacity="0.2" x1="367.4494289898521" x2="367.4494289898521" y1="0" y2="30"/><line opacity="0.2" x1="416.36176477710035" x2="416.36176477710035" y1="0" y2="30"/><line opacity="0.2" x1="316.51499348611134" x2="316.51499348611134" y1="0" y2="30"/><line opacity="0.2" x1="170.58798501154007" x2="170.58798501154007" y1="0" y2="30"/><line opacity="0.2" x1="343.2983194759652" x2="343.2983194759652" y1="0" y2="30"/><line opacity="0.2" x1="398.818610741241" x2="398.818610741241" y1="0" y2="30"/><line opacity="0.2" x1="382.7481888128475" x2="382.7481888128475" y1="0" y2="30"/><line opacity="0.2" x1="339.74955084461607" x2="339.74955084461607" y1="0" y2="30"/><line opacity="0.2" x1="352.16456947783337" x2="352.16456947783337" y1="0" y2="30"/><line opacity="0.2" x1="205.079564786818" x2="205.079564786818" y1="0" y2="30"/><line opacity="0.2" x1="321.4452063049225" x2="321.4452063049225" y1="0" y2="30"/><line opacity="0.2" x1="373.60812912619417" x2="373.60812912619417" y1="0" y2="30"/><line opacity="0.2" x1="339.5321076952414" x2="339.5321076952414" y1="0" y2="30"/><line opacity="0.2" x1="425.1317943191251" x2="425.1317943191251" y1="0" y2="30"/><line opacity="0.2" x1="232.56234372517628" x2="232.56234372517628" y1="0" y2="30"/><line opacity="0.2" x1="177.50698054756177" x2="177.50698054756177" y1="0" y2="30"/><line opacity="0.2" x1="346.2419976052267" x2="346.2419976052267" y1="0" y2="30"/><line opacity="0.2" x1="442.852074246436" x2="442.852074246436" y1="0" y2="30"/><line opacity="0.2" x1="226.53805745249656" x2="226.53805745249656" y1="0" y2="30"/><line opacity="0.2" x1="604.9224791918041" x2="604.9224791918041" y1="0" y2="30"/><line opacity="0.2" x1="264.06569035020135" x2="264.06569035020135" y1="0" y2="30"/><line opacity="0.2" x1="388.98366740299707" x2="388.98366740299707" y1="0" y2="30"/><line opacity="0.2" x1="298.15175218028304" x2="298.15175218028304" y1="0" y2="30"/><line opacity="0.2" x1="151.86353012552001" x2="151.86353012552001" y1="0" y2="30"/><line opacity="0.2" x1="420.9700358261997" x2="420.9700358261997" y1="0" y2="30"/><line opacity="0.2" x1="440.6506667109004" x2="440.6506667109004" y1="0" y2="30"/><line opacity="0.2" x1="293.6923853350486" x2="293.6923853350486" y1="0" y2="30"/><line opacity="0.2" x1="449.2226928071051" x2="449.2226928071051" y1="0" y2="30"/><line opacity="0.2" x1="469.2015050913192" x2="469.2015050913192" y1="0" y2="30"/><line opacity="0.2" x1="545.3884230282657" x2="545.3884230282657" y1="0" y2="30"/><line opacity="0.2" x1="347.2057552256204" x2="347.2057552256204" y1="0" y2="30"/><line opacity="0.2" x1="363.9959263513828" x2="363.9959263513828" y1="0" y2="30"/><line opacity="0.2" x1="222.3513823036303" x2="222.3513823036303" y1="0" y2="30"/><line opacity="0.2" x1="247.505638044959" x2="247.505638044959" y1="0" y2="30"/><line opacity="0.2" x1="442.9467270762357" x2="442.9467270762357" y1="0" y2="30"/><line opacity="0.2" x1="262.23148003621804" x2="262.23148003621804" y1="0" y2="30"/><line opacity="0.2" x1="340.97905142883553" x2="340.97905142883553" y1="0" y2="30"/><line opacity="0.2" x1="351.82429653475276" x2="351.82429653475276" y1="0" y2="30"/><line opacity="0.2" x1="442.7017208822096" x2="442.7017208822096" y1="0" y2="30"/><line opacity="0.2" x1="278.95137933355926" x2="278.95137933355926" y1="0" y2="30"/><line opacity="0.2" x1="261.3865254075505" x2="261.3865254075505" y1="0" y2="30"/><line opacity="0.2" x1="323.7981093676011" x2="323.7981093676011" y1="0" y2="30"/><line opacity="0.2" x1="386.405702101223" x2="386.405702101223" y1="0" y2="30"/><line opacity="0.2" x1="109.30546968046534" x2="109.30546968046534" y1="0" y2="30"/><line opacity="0.2" x1="427.9411439693231" x2="427.9411439693231" y1="0" y2="30"/><line opacity="0.2" x1="404.22840465798936" x2="404.22840465798936" y1="0" y2="30"/><line opacity="0.2" x1="456.92897198546257" x2="456.92897198546257" y1="0" y2="30"/><line opacity="0.2" x1="330.43927932578276" x2="330.43927932578276" y1="0" y2="30"/><line opacity="0.2" x1="493.19203612915504" x2="493.19203612915504" y1="0" y2="30"/><line opacity="0.2" x1="377.0033994668201" x2="377.0033994668201" y1="0" y2="30"/><line opacity="0.2" x1="422.58475107154965" x2="422.58475107154965" y1="0" y2="30"/><line opacity="0.2" x1="115.11065949736289" x2="115.11065949736289" y1="0" y2="30"/><line opacity="0.2" x1="131.8249282652094" x2="131.8249282652094" y1="0" y2="30"/><line opacity="0.2" x1="328.9035087301443" x2="328.9035087301443" y1="0" y2="30"/><line opacity="0.2" x1="277.96308217936485" x2="277.96308217936485" y1="0" y2="30"/><line opacity="0.2" x1="348.05184408798436" x2="348.05184408798436" y1="0" y2="30"/><line opacity="0.2" x1="270.38416658848183" x2="270.38416658848183" y1="0" y2="30"/><line opacity="0.2" x1="385.629000980508" x2="385.629000980508" y1="0" y2="30"/><line opacity="0.2" x1="446.54476100936137" x2="446.54476100936137" y1="0" y2="30"/><line opacity="0.2" x1="333.49186489910505" x2="333.49186489910505" y1="0" y2="30"/><line opacity="0.2" x1="405.1095348358209" x2="405.1095348358209" y1="0" y2="30"/><line opacity="0.2" x1="357.4639214837956" x2="357.4639214837956" y1="0" y2="30"/><line opacity="0.2" x1="571.5202844757894" x2="571.5202844757894" y1="0" y2="30"/><line opacity="0.2" x1="323.22994502604155" x2="323.22994502604155" y1="0" y2="30"/><line opacity="0.2" x1="401.1176177713709" x2="401.1176177713709" y1="0" y2="30"/><line opacity="0.2" x1="414.8957597137043" x2="414.8957597137043" y1="0" y2="30"/><line opacity="0.2" x1="341.86658740164376" x2="341.86658740164376" y1="0" y2="30"/><line opacity="0.2" x1="354.2119548537681" x2="354.2119548537681" y1="0" y2="30"/><line opacity="0.2" x1="187.29206049237587" x2="187.29206049237587" y1="0" y2="30"/><line opacity="0.2" x1="299.5387518815406" x2="299.5387518815406" y1="0" y2="30"/><line opacity="0.2" x1="483.5320316805164" x2="483.5320316805164" y1="0" y2="30"/><line opacity="0.2" x1="369.4792843781965" x2="369.4792843781965" y1="0" y2="30"/><line opacity="0.2" x1="384.54242410807416" x2="384.54242410807416" y1="0" y2="30"/><line opacity="0.2" x1="189.93002276762343" x2="189.93002276762343" y1="0" y2="30"/><line opacity="0.2" x1="296.78902260149835" x2="296.78902260149835" y1="0" y2="30"/><line opacity="0.2" x1="298.52755855001027" x2="298.52755855001027" y1="0" y2="30"/><line opacity="0.2" x1="286.377187361369" x2="286.377187361369" y1="0" y2="30"/><line opacity="0.2" x1="403.9771817297656" x2="403.9771817297656" y1="0" y2="30"/><line opacity="0.2" x1="216.80922367784305" x2="216.80922367784305" y1="0" y2="30"/><line opacity="0.2" x1="398.6853937210462" x2="398.6853937210462" y1="0" y2="30"/><line opacity="0.2" x1="422.01334589158114" x2="422.01334589158114" y1="0" y2="30"/><line opacity="0.2" x1="240.6821937159687" x2="240.6821937159687" y1="0" y2="30"/><line opacity="0.2" x1="356.86625256495995" x2="356.86625256495995" y1="0" y2="30"/><line opacity="0.2" x1="370.7471058061656" x2="370.7471058061656" y1="0" y2="30"/><line opacity="0.2" x1="461.6504331573035" x2="461.6504331573035" y1="0" y2="30"/><line opacity="0.2" x1="393.5545076962232" x2="393.5545076962232" y1="0" y2="30"/><line opacity="0.2" x1="323.9522751234317" x2="323.9522751234317" y1="0" y2="30"/><line opacity="0.2" x1="473.1006202352877" x2="473.1006202352877" y1="0" y2="30"/><line opacity="0.2" x1="379.2781336613735" x2="379.2781336613735" y1="0" y2="30"/><line opacity="0.2" x1="384.2546180842483" x2="384.2546180842483" y1="0" y2="30"/><line opacity="0.2" x1="315.17068792866746" x2="315.17068792866746" y1="0" y2="30"/><line opacity="0.2" x1="144.23687470703993" x2="144.23687470703993" y1="0" y2="30"/><line opacity="0.2" x1="323.7457543327008" x2="323.7457543327008" y1="0" y2="30"/><line opacity="0.2" x1="332.1193559084487" x2="332.1193559084487" y1="0" y2="30"/><line opacity="0.2" x1="510.577696928608" x2="510.577696928608" y1="0" y2="30"/><line opacity="0.2" x1="149.386152952545" x2="149.386152952545" y1="0" y2="30"/><line opacity="0.2" x1="208.1371672310429" x2="208.1371672310429" y1="0" y2="30"/><line opacity="0.2" x1="586.158536456168" x2="586.158536456168" y1="0" y2="30"/><line opacity="0.2" x1="503.88003960738286" x2="503.88003960738286" y1="0" y2="30"/><line opacity="0.2" x1="384.0194359650934" x2="384.0194359650934" y1="0" y2="30"/><line opacity="0.2" x1="270.31151895255044" x2="270.31151895255044" y1="0" y2="30"/><line opacity="0.2" x1="432.0548874384722" x2="432.0548874384722" y1="0" y2="30"/><line opacity="0.2" x1="336.1883581882491" x2="336.1883581882491" y1="0" y2="30"/><line opacity="0.2" x1="321.1668234287256" x2="321.1668234287256" y1="0" y2="30"/><line opacity="0.2" x1="288.6960045009791" x2="288.6960045009791" y1="0" y2="30"/><line opacity="0.2" x1="491.0667184219287" x2="491.0667184219287" y1="0" y2="30"/><line opacity="0.2" x1="267.8553705808153" x2="267.8553705808153" y1="0" y2="30"/><line opacity="0.2" x1="369.23418150904274" x2="369.23418150904274" y1="0" y2="30"/><line opacity="0.2" x1="344.7535160455236" x2="344.7535160455236" y1="0" y2="30"/><line opacity="0.2" x1="329.50496662092223" x2="329.50496662092223" y1="0" y2="30"/><line opacity="0.2" x1="312.40834874621083" x2="312.40834874621083" y1="0" y2="30"/><line opacity="0.2" x1="349.9938913790427" x2="349.9938913790427" y1="0" y2="30"/><line opacity="0.2" x1="453.141665924146" x2="453.141665924146" y1="0" y2="30"/><line opacity="0.2" x1="258.4735529455094" x2="258.4735529455094" y1="0" y2="30"/><line opacity="0.2" x1="385.17600854693154" x2="385.17600854693154" y1="0" y2="30"/><line opacity="0.2" x1="338.0586789711836" x2="338.0586789711836" y1="0" y2="30"/><line opacity="0.2" x1="453.05929962261064" x2="453.05929962261064" y1="0" y2="30"/><line opacity="0.2" x1="334.5908735904176" x2="334.5908735904176" y1="0" y2="30"/><line opacity="0.2" x1="240.42369530598307" x2="240.42369530598307" y1="0" y2="30"/><line opacity="0.2" x1="394.24137803363783" x2="394.24137803363783" y1="0" y2="30"/><line opacity="0.2" x1="275.1039026019932" x2="275.1039026019932" y1="0" y2="30"/><line opacity="0.2" x1="309.55486044120664" x2="309.55486044120664" y1="0" y2="30"/><line opacity="0.2" x1="268.11811464844266" x2="268.11811464844266" y1="0" y2="30"/><line opacity="0.2" x1="369.4842523244798" x2="369.4842523244798" y1="0" y2="30"/><line opacity="0.2" x1="173.87134387883208" x2="173.87134387883208" y1="0" y2="30"/><line opacity="0.2" x1="383.3247391379326" x2="383.3247391379326" y1="0" y2="30"/><line opacity="0.2" x1="309.98065345915967" x2="309.98065345915967" y1="0" y2="30"/><line opacity="0.2" x1="327.5637361979234" x2="327.5637361979234" y1="0" y2="30"/><line opacity="0.2" x1="195.31550892763266" x2="195.31550892763266" y1="0" y2="30"/><line opacity="0.2" x1="297.5758065072737" x2="297.5758065072737" y1="0" y2="30"/><line opacity="0.2" x1="583.6464032973147" x2="583.6464032973147" y1="0" y2="30"/><line opacity="0.2" x1="316.94055392456397" x2="316.94055392456397" y1="0" y2="30"/><line opacity="0.2" x1="357.45791948478916" x2="357.45791948478916" y1="0" y2="30"/><line opacity="0.2" x1="237.152864886925" x2="237.152864886925" y1="0" y2="30"/><line opacity="0.2" x1="453.9829581372267" x2="453.9829581372267" y1="0" y2="30"/><line opacity="0.2" x1="274.9607099582443" x2="274.9607099582443" y1="0" y2="30"/><line opacity="0.2" x1="409.88002713553954" x2="409.88002713553954" y1="0" y2="30"/><line opacity="0.2" x1="352.8597341083921" x2="352.8597341083921" y1="0" y2="30"/><line opacity="0.2" x1="471.3833559230023" x2="471.3833559230023" y1="0" y2="30"/><line opacity="0.2" x1="369.1705851466397" x2="369.1705851466397" y1="0" y2="30"/><line opacity="0.2" x1="520.6405794592428" x2="520.6405794592428" y1="0" y2="30"/><line opacity="0.2" x1="214.35860226595543" x2="214.35860226595543" y1="0" y2="30"/><line opacity="0.2" x1="522.8748526227491" x2="522.8748526227491" y1="0" y2="30"/><line opacity="0.2" x1="317.2678636783573" x2="317.2678636783573" y1="0" y2="30"/><line opacity="0.2" x1="315.1202988711703" x2="315.1202988711703" y1="0" y2="30"/><line opacity="0.2" x1="432.2822020473834" x2="432.2822020473834" y1="0" y2="30"/><line opacity="0.2" x1="535.7412255539878" x2="535.7412255539878" y1="0" y2="30"/><line opacity="0.2" x1="310.0760633946661" x2="310.0760633946661" y1="0" y2="30"/><line opacity="0.2" x1="225.42867209737133" x2="225.42867209737133" y1="0" y2="30"/><line opacity="0.2" x1="391.27842792271696" x2="391.27842792271696" y1="0" y2="30"/><line opacity="0.2" x1="399.8237896550926" x2="399.8237896550926" y1="0" y2="30"/><line opacity="0.2" x1="178.70088413992266" x2="178.70088413992266" y1="0" y2="30"/><line opacity="0.2" x1="371.77386125542995" x2="371.77386125542995" y1="0" y2="30"/><line opacity="0.2" x1="439.8794244593348" x2="439.8794244593348" y1="0" y2="30"/><line opacity="0.2" x1="562.3674385918544" x2="562.3674385918544" y1="0" y2="30"/><line opacity="0.2" x1="385.59698120037945" x2="385.59698120037945" y1="0" y2="30"/><line opacity="0.2" x1="410.1578302136492" x2="410.1578302136492" y1="0" y2="30"/><line opacity="0.2" x1="591.4769413435735" x2="591.4769413435735" y1="0" y2="30"/><line opacity="0.2" x1="357.37717994100984" x2="357.37717994100984" y1="0" y2="30"/><line opacity="0.2" x1="442.7307227477875" x2="442.7307227477875" y1="0" y2="30"/><line opacity="0.2" x1="384.8872649473247" x2="384.8872649473247" y1="0" y2="30"/><line opacity="0.2" x1="298.4362989769799" x2="298.4362989769799" y1="0" y2="30"/><line opacity="0.2" x1="461.31621245420234" x2="461.31621245420234" y1="0" y2="30"/><line opacity="0.2" x1="343.23638649748534" x2="343.23638649748534" y1="0" y2="30"/><line opacity="0.2" x1="380.0273094464884" x2="380.0273094464884" y1="0" y2="30"/><line opacity="0.2" x1="193.437492865046" x2="193.437492865046" y1="0" y2="30"/><line opacity="0.2" x1="148.7067011068473" x2="148.7067011068473" y1="0" y2="30"/><line opacity="0.2" x1="420.09166143885335" x2="420.09166143885335" y1="0" y2="30"/><line opacity="0.2" x1="159.58823434001732" x2="159.58823434001732" y1="0" y2="30"/><line opacity="0.2" x1="341.64033837361814" x2="341.64033837361814" y1="0" y2="30"/><line opacity="0.2" x1="324.47617410327405" x2="324.47617410327405" y1="0" y2="30"/><line opacity="0.2" x1="318.2836496610305" x2="318.2836496610305" y1="0" y2="30"/><line opacity="0.2" x1="370.7793947321404" x2="370.7793947321404" y1="0" y2="30"/><line opacity="0.2" x1="291.06219575259416" x2="291.06219575259416" y1="0" y2="30"/><line opacity="0.2" x1="388.772802595236" x2="388.772802595236" y1="0" y2="30"/><line opacity="0.2" x1="364.4436342967863" x2="364.4436342967863" y1="0" y2="30"/><line opacity="0.2" x1="387.73643205867654" x2="387.73643205867654" y1="0" y2="30"/><line opacity="0.2" x1="478.39615961196694" x2="478.39615961196694" y1="0" y2="30"/><line opacity="0.2" x1="412.80716283357435" x2="412.80716283357435" y1="0" y2="30"/><line opacity="0.2" x1="338.2690432472943" x2="338.2690432472943" y1="0" y2="30"/><line opacity="0.2" x1="517.4304654247718" x2="517.4304654247718" y1="0" y2="30"/><line opacity="0.2" x1="466.0229331008191" x2="466.0229331008191" y1="0" y2="30"/><line opacity="0.2" x1="491.1273368084451" x2="491.1273368084451" y1="0" y2="30"/><line opacity="0.2" x1="252.4594699339288" x2="252.4594699339288" y1="0" y2="30"/><line opacity="0.2" x1="451.8500585389766" x2="451.8500585389766" y1="0" y2="30"/><line opacity="0.2" x1="520.749833970976" x2="520.749833970976" y1="0" y2="30"/><line opacity="0.2" x1="339.1890406308712" x2="339.1890406308712" y1="0" y2="30"/><line opacity="0.2" x1="275.62287103747144" x2="275.62287103747144" y1="0" y2="30"/><line opacity="0.2" x1="430.6577964685194" x2="430.6577964685194" y1="0" y2="30"/><line opacity="0.2" x1="211.31603514377085" x2="211.31603514377085" y1="0" y2="30"/><line opacity="0.2" x1="235.61708502222942" x2="235.61708502222942" y1="0" y2="30"/><line opacity="0.2" x1="405.16603156121465" x2="405.16603156121465" y1="0" y2="30"/><line opacity="0.2" x1="280.25934063405197" x2="280.25934063405197" y1="0" y2="30"/><line opacity="0.2" x1="430.4271689283931" x2="430.4271689283931" y1="0" y2="30"/><line opacity="0.2" x1="334.6394532433442" x2="334.6394532433442" y1="0" y2="30"/><line opacity="0.2" x1="292.48228717170025" x2="292.48228717170025" y1="0" y2="30"/><line opacity="0.2" x1="415.33534217229345" x2="415.33534217229345" y1="0" y2="30"/><line opacity="0.2" x1="324.2932138313625" x2="324.2932138313625" y1="0" y2="30"/><line opacity="0.2" x1="361.68064701886846" x2="361.68064701886846" y1="0" y2="30"/><line opacity="0.2" x1="207.92940701209287" x2="207.92940701209287" y1="0" y2="30"/><line opacity="0.2" x1="331.47318395076434" x2="331.47318395076434" y1="0" y2="30"/><line opacity="0.2" x1="291.1467214155436" x2="291.1467214155436" y1="0" y2="30"/><line opacity="0.2" x1="398.05801373270145" x2="398.05801373270145" y1="0" y2="30"/><line opacity="0.2" x1="119.39377608988343" x2="119.39377608988343" y1="0" y2="30"/><line opacity="0.2" x1="586.5202477425253" x2="586.5202477425253" y1="0" y2="30"/><line opacity="0.2" x1="415.04804227064665" x2="415.04804227064665" y1="0" y2="30"/><line opacity="0.2" x1="469.73614288169273" x2="469.73614288169273" y1="0" y2="30"/><line opacity="0.2" x1="118.89578174909332" x2="118.89578174909332" y1="0" y2="30"/><line opacity="0.2" x1="499.8864103951933" x2="499.8864103951933" y1="0" y2="30"/><line opacity="0.2" x1="356.35125698806854" x2="356.35125698806854" y1="0" y2="30"/><line opacity="0.2" x1="611.1302070336853" x2="611.1302070336853" y1="0" y2="30"/><line opacity="0.2" x1="316.40015959301877" x2="316.40015959301877" y1="0" y2="30"/><line opacity="0.2" x1="301.9720728091461" x2="301.9720728091461" y1="0" y2="30"/><line opacity="0.2" x1="305.46108498166376" x2="305.46108498166376" y1="0" y2="30"/><line opacity="0.2" x1="357.14255159774626" x2="357.14255159774626" y1="0" y2="30"/><line opacity="0.2" x1="299.7280256012023" x2="299.7280256012023" y1="0" y2="30"/><line opacity="0.2" x1="559.8385696387087" x2="559.8385696387087" y1="0" y2="30"/><line opacity="0.2" x1="512.541448228801" x2="512.541448228801" y1="0" y2="30"/><line opacity="0.2" x1="405.5965575245991" x2="405.5965575245991" y1="0" y2="30"/><line opacity="0.2" x1="341.26277835542385" x2="341.26277835542385" y1="0" y2="30"/><line opacity="0.2" x1="346.0719692349893" x2="346.0719692349893" y1="0" y2="30"/><line opacity="0.2" x1="322.65956867797166" x2="322.65956867797166" y1="0" y2="30"/><line opacity="0.2" x1="200.98362063115923" x2="200.98362063115923" y1="0" y2="30"/><line opacity="0.2" x1="309.72340505802003" x2="309.72340505802003" y1="0" y2="30"/><line opacity="0.2" x1="486.5195286506543" x2="486.5195286506543" y1="0" y2="30"/><line opacity="0.2" x1="443.68691410986366" x2="443.68691410986366" y1="0" y2="30"/><line opacity="0.2" x1="416.85091022274804" x2="416.85091022274804" y1="0" y2="30"/><line opacity="0.2" x1="444.1566312665134" x2="444.1566312665134" y1="0" y2="30"/><line opacity="0.2" x1="148.2769269121289" x2="148.2769269121289" y1="0" y2="30"/><line opacity="0.2" x1="284.8698562800591" x2="284.8698562800591" y1="0" y2="30"/><line opacity="0.2" x1="427.12325533000075" x2="427.12325533000075" y1="0" y2="30"/><line opacity="0.2" x1="402.6946547239178" x2="402.6946547239178" y1="0" y2="30"/><line opacity="0.2" x1="353.18688827955293" x2="353.18688827955293" y1="0" y2="30"/><line opacity="0.2" x1="345.6927107843564" x2="345.6927107843564" y1="0" y2="30"/><line opacity="0.2" x1="399.8484700972509" x2="399.8484700972509" y1="0" y2="30"/><line opacity="0.2" x1="227.91573699837156" x2="227.91573699837156" y1="0" y2="30"/><line opacity="0.2" x1="309.7965218357425" x2="309.7965218357425" y1="0" y2="30"/><line opacity="0.2" x1="436.2844617057866" x2="436.2844617057866" y1="0" y2="30"/><line opacity="0.2" x1="265.0247604364049" x2="265.0247604364049" y1="0" y2="30"/><line opacity="0.2" x1="373.394735843163" x2="373.394735843163" y1="0" y2="30"/><line opacity="0.2" x1="320.57414188629934" x2="320.57414188629934" y1="0" y2="30"/><line opacity="0.2" x1="405.08901532169097" x2="405.08901532169097" y1="0" y2="30"/><line opacity="0.2" x1="342.67648896580766" x2="342.67648896580766" y1="0" y2="30"/><line opacity="0.2" x1="237.25039272476937" x2="237.25039272476937" y1="0" y2="30"/><line opacity="0.2" x1="598.8317498661802" x2="598.8317498661802" y1="0" y2="30"/><line opacity="0.2" x1="398.80510615122427" x2="398.80510615122427" y1="0" y2="30"/><line opacity="0.2" x1="440.87099979747984" x2="440.87099979747984" y1="0" y2="30"/><line opacity="0.2" x1="438.9093075793672" x2="438.9093075793672" y1="0" y2="30"/><line opacity="0.2" x1="277.2781671837455" x2="277.2781671837455" y1="0" y2="30"/><line opacity="0.2" x1="160.28135342995049" x2="160.28135342995049" y1="0" y2="30"/><line opacity="0.2" x1="476.70354356212755" x2="476.70354356212755" y1="0" y2="30"/><line opacity="0.2" x1="508.2712707161576" x2="508.2712707161576" y1="0" y2="30"/><line opacity="0.2" x1="435.0616008836654" x2="435.0616008836654" y1="0" y2="30"/><line opacity="0.2" x1="357.12225436270995" x2="357.12225436270995" y1="0" y2="30"/><line opacity="0.2" x1="483.8674385184462" x2="483.8674385184462" y1="0" y2="30"/><line opacity="0.2" x1="383.2333628097263" x2="383.2333628097263" y1="0" y2="30"/><line opacity="0.2" x1="366.15025291072527" x2="366.15025291072527" y1="0" y2="30"/><line opacity="0.2" x1="341.93779690050656" x2="341.93779690050656" y1="0" y2="30"/><line opacity="0.2" x1="268.7567864263031" x2="268.7567864263031" y1="0" y2="30"/><line opacity="0.2" x1="350.5931884203482" x2="350.5931884203482" y1="0" y2="30"/><line opacity="0.2" x1="229.67434084846843" x2="229.67434084846843" y1="0" y2="30"/><line opacity="0.2" x1="320.1292640648734" x2="320.1292640648734" y1="0" y2="30"/><line opacity="0.2" x1="387.98506319030804" x2="387.98506319030804" y1="0" y2="30"/><line opacity="0.2" x1="468.097105920774" x2="468.097105920774" y1="0" y2="30"/><line opacity="0.2" x1="344.12125613859644" x2="344.12125613859644" y1="0" y2="30"/><line opacity="0.2" x1="547.2580788940598" x2="547.2580788940598" y1="0" y2="30"/><line opacity="0.2" x1="351.0778535249681" x2="351.0778535249681" y1="0" y2="30"/><line opacity="0.2" x1="403.6380427149285" x2="403.6380427149285" y1="0" y2="30"/><line opacity="0.2" x1="307.3347762693616" x2="307.3347762693616" y1="0" y2="30"/><line opacity="0.2" x1="196.21871826251598" x2="196.21871826251598" y1="0" y2="30"/><line opacity="0.2" x1="229.46075529237118" x2="229.46075529237118" y1="0" y2="30"/><line opacity="0.2" x1="349.3595505044303" x2="349.3595505044303" y1="0" y2="30"/><line opacity="0.2" x1="480.7934047760764" x2="480.7934047760764" y1="0" y2="30"/><line opacity="0.2" x1="185.5131881851936" x2="185.5131881851936" y1="0" y2="30"/><line opacity="0.2" x1="414.9967523049151" x2="414.9967523049151" y1="0" y2="30"/><line opacity="0.2" x1="443.9144065428917" x2="443.9144065428917" y1="0" y2="30"/><line opacity="0.2" x1="222.80565629324863" x2="222.80565629324863" y1="0" y2="30"/><line opacity="0.2" x1="219.12562420899718" x2="219.12562420899718" y1="0" y2="30"/><line opacity="0.2" x1="425.43065594350657" x2="425.43065594350657" y1="0" y2="30"/><line opacity="0.2" x1="292.6745118250723" x2="292.6745118250723" y1="0" y2="30"/><line opacity="0.2" x1="333.3525575162527" x2="333.3525575162527" y1="0" y2="30"/><line opacity="0.2" x1="561.9968922789354" x2="561.9968922789354" y1="0" y2="30"/><line opacity="0.2" x1="438.19271115659035" x2="438.19271115659035" y1="0" y2="30"/><line opacity="0.2" x1="400.9004845366878" x2="400.9004845366878" y1="0" y2="30"/><line opacity="0.2" x1="365.3721379025333" x2="365.3721379025333" y1="0" y2="30"/><line opacity="0.2" x1="492.17724105670135" x2="492.17724105670135" y1="0" y2="30"/><line opacity="0.2" x1="347.49362435524773" x2="347.49362435524773" y1="0" y2="30"/><line opacity="0.2" x1="366.3928654722688" x2="366.3928654722688" y1="0" y2="30"/><line opacity="0.2" x1="384.64607671561527" x2="384.64607671561527" y1="0" y2="30"/><line opacity="0.2" x1="452.9837756526407" x2="452.9837756526407" y1="0" y2="30"/><line opacity="0.2" x1="399.15909941151676" x2="399.15909941151676" y1="0" y2="30"/><line opacity="0.2" x1="216.08085222242713" x2="216.08085222242713" y1="0" y2="30"/><line opacity="0.2" x1="470.6231073592858" x2="470.6231073592858" y1="0" y2="30"/><line opacity="0.2" x1="553.0358175853471" x2="553.0358175853471" y1="0" y2="30"/><line opacity="0.2" x1="384.7072449250332" x2="384.7072449250332" y1="0" y2="30"/><line opacity="0.2" x1="429.4264991110897" x2="429.4264991110897" y1="0" y2="30"/><line opacity="0.2" x1="479.78174519658074" x2="479.78174519658074" y1="0" y2="30"/><line opacity="0.2" x1="325.8765862178468" x2="325.8765862178468" y1="0" y2="30"/><line opacity="0.2" x1="293.2916477720318" x2="293.2916477720318" y1="0" y2="30"/><line opacity="0.2" x1="328.51828780501046" x2="328.51828780501046" y1="0" y2="30"/><line opacity="0.2" x1="581.7541998948798" x2="581.7541998948798" y1="0" y2="30"/><line opacity="0.2" x1="396.3979535249115" x2="396.3979535249115" y1="0" y2="30"/><line opacity="0.2" x1="487.05762874388137" x2="487.05762874388137" y1="0" y2="30"/><line opacity="0.2" x1="440.287726123246" x2="440.287726123246" y1="0" y2="30"/><line opacity="0.2" x1="279.8948579607503" x2="279.8948579607503" y1="0" y2="30"/><line opacity="0.2" x1="297.9266500392041" x2="297.9266500392041" y1="0" y2="30"/><line opacity="0.2" x1="594.1990985074416" x2="594.1990985074416" y1="0" y2="30"/><line opacity="0.2" x1="330.25215200537934" x2="330.25215200537934" y1="0" y2="30"/><line opacity="0.2" x1="417.0734216898902" x2="417.0734216898902" y1="0" y2="30"/><line opacity="0.2" x1="101.6894427510554" x2="101.6894427510554" y1="0" y2="30"/><line opacity="0.2" x1="267.1601216615157" x2="267.1601216615157" y1="0" y2="30"/><line opacity="0.2" x1="184.17524305573116" x2="184.17524305573116" y1="0" y2="30"/><line opacity="0.2" x1="323.38939455408786" x2="323.38939455408786" y1="0" y2="30"/><line opacity="0.2" x1="360.1353626643135" x2="360.1353626643135" y1="0" y2="30"/><line opacity="0.2" x1="408.37851271706984" x2="408.37851271706984" y1="0" y2="30"/><line opacity="0.2" x1="229.9330105844143" x2="229.9330105844143" y1="0" y2="30"/><line opacity="0.2" x1="304.3405644555093" x2="304.3405644555093" y1="0" y2="30"/><line opacity="0.2" x1="499.4192638790564" x2="499.4192638790564" y1="0" y2="30"/><line opacity="0.2" x1="372.47772815737056" x2="372.47772815737056" y1="0" y2="30"/><line opacity="0.2" x1="364.64183005444056" x2="364.64183005444056" y1="0" y2="30"/><line opacity="0.2" x1="238.37608372214524" x2="238.37608372214524" y1="0" y2="30"/><line opacity="0.2" x1="157.37483672074652" x2="157.37483672074652" y1="0" y2="30"/><line opacity="0.2" x1="426.8995910402493" x2="426.8995910402493" y1="0" y2="30"/><line opacity="0.2" x1="317.48392857449466" x2="317.48392857449466" y1="0" y2="30"/><line opacity="0.2" x1="368.27596637595724" x2="368.27596637595724" y1="0" y2="30"/><line opacity="0.2" x1="493.1172579149425" x2="493.1172579149425" y1="0" y2="30"/><line opacity="0.2" x1="409.83471495794413" x2="409.83471495794413" y1="0" y2="30"/><line opacity="0.2" x1="396.32626155262784" x2="396.32626155262784" y1="0" y2="30"/><line opacity="0.2" x1="461.2872927370342" x2="461.2872927370342" y1="0" y2="30"/><line opacity="0.2" x1="274.8215804581064" x2="274.8215804581064" y1="0" y2="30"/><line opacity="0.2" x1="341.84112819773094" x2="341.84112819773094" y1="0" y2="30"/><line opacity="0.2" x1="274.8109161393437" x2="274.8109161393437" y1="0" y2="30"/><line opacity="0.2" x1="264.52983431214585" x2="264.52983431214585" y1="0" y2="30"/><line opacity="0.2" x1="226.67930216052943" x2="226.67930216052943" y1="0" y2="30"/><line opacity="0.2" x1="361.52998445943666" x2="361.52998445943666" y1="0" y2="30"/><line opacity="0.2" x1="362.35078177303103" x2="362.35078177303103" y1="0" y2="30"/><line opacity="0.2" x1="302.74525431841903" x2="302.74525431841903" y1="0" y2="30"/><line opacity="0.2" x1="465.0197586350166" x2="465.0197586350166" y1="0" y2="30"/><line opacity="0.2" x1="545.0955919150969" x2="545.0955919150969" y1="0" y2="30"/><line opacity="0.2" x1="291.7827300665076" x2="291.7827300665076" y1="0" y2="30"/><line opacity="0.2" x1="447.51883371010166" x2="447.51883371010166" y1="0" y2="30"/><line opacity="0.2" x1="548.1635651337746" x2="548.1635651337746" y1="0" y2="30"/><line opacity="0.2" x1="272.3027390516019" x2="272.3027390516019" y1="0" y2="30"/><line opacity="0.2" x1="261.12007554299896" x2="261.12007554299896" y1="0" y2="30"/><line opacity="0.2" x1="372.713728281903" x2="372.713728281903" y1="0" y2="30"/><line opacity="0.2" x1="433.8868867903106" x2="433.8868867903106" y1="0" y2="30"/><line opacity="0.2" x1="380.04988110756443" x2="380.04988110756443" y1="0" y2="30"/><line opacity="0.2" x1="242.6930490551629" x2="242.6930490551629" y1="0" y2="30"/><line opacity="0.2" x1="224.6801304152088" x2="224.6801304152088" y1="0" y2="30"/><line opacity="0.2" x1="429.32465792933175" x2="429.32465792933175" y1="0" y2="30"/><line opacity="0.2" x1="536.8844551030912" x2="536.8844551030912" y1="0" y2="30"/><line opacity="0.2" x1="320.73762917199736" x2="320.73762917199736" y1="0" y2="30"/><line opacity="0.2" x1="482.31547796148226" x2="482.31547796148226" y1="0" y2="30"/><line opacity="0.2" x1="364.42987105294924" x2="364.42987105294924" y1="0" y2="30"/><line opacity="0.2" x1="237.98826252973174" x2="237.98826252973174" y1="0" y2="30"/><line opacity="0.2" x1="262.5472406950653" x2="262.5472406950653" y1="0" y2="30"/><line opacity="0.2" x1="304.1300606044816" x2="304.1300606044816" y1="0" y2="30"/><line opacity="0.2" x1="347.7090367152059" x2="347.7090367152059" y1="0" y2="30"/><line opacity="0.2" x1="115.15702854167624" x2="115.15702854167624" y1="0" y2="30"/><line opacity="0.2" x1="210.329407735992" x2="210.329407735992" y1="0" y2="30"/><line opacity="0.2" x1="321.840119876512" x2="321.840119876512" y1="0" y2="30"/><line opacity="0.2" x1="437.02242220767283" x2="437.02242220767283" y1="0" y2="30"/><line opacity="0.2" x1="370.8896970549352" x2="370.8896970549352" y1="0" y2="30"/><line opacity="0.2" x1="319.4690118022106" x2="319.4690118022106" y1="0" y2="30"/><line opacity="0.2" x1="322.8154094457914" x2="322.8154094457914" y1="0" y2="30"/><line opacity="0.2" x1="426.01763342094296" x2="426.01763342094296" y1="0" y2="30"/><line opacity="0.2" x1="577.2732533493263" x2="577.2732533493263" y1="0" y2="30"/><line opacity="0.2" x1="471.36761259102076" x2="471.36761259102076" y1="0" y2="30"/><line opacity="0.2" x1="301.5401013340314" x2="301.5401013340314" y1="0" y2="30"/><line opacity="0.2" x1="174.8170006616128" x2="174.8170006616128" y1="0" y2="30"/><line opacity="0.2" x1="371.40184562554083" x2="371.40184562554083" y1="0" y2="30"/><line opacity="0.2" x1="370.24023900980114" x2="370.24023900980114" y1="0" y2="30"/><line opacity="0.2" x1="247.11948252868285" x2="247.11948252868285" y1="0" y2="30"/><line opacity="0.2" x1="341.13378957539703" x2="341.13378957539703" y1="0" y2="30"/><line opacity="0.2" x1="251.31209383813575" x2="251.31209383813575" y1="0" y2="30"/><line opacity="0.2" x1="282.9036520441643" x2="282.9036520441643" y1="0" y2="30"/><line opacity="0.2" x1="311.2456950370589" x2="311.2456950370589" y1="0" y2="30"/><line opacity="0.2" x1="309.92969045582623" x2="309.92969045582623" y1="0" y2="30"/><line opacity="0.2" x1="247.40705574949027" x2="247.40705574949027" y1="0" y2="30"/><line opacity="0.2" x1="420.26476942527063" x2="420.26476942527063" y1="0" y2="30"/><line opacity="0.2" x1="408.14222067537554" x2="408.14222067537554" y1="0" y2="30"/><line opacity="0.2" x1="298.86331563971135" x2="298.86331563971135" y1="0" y2="30"/><line opacity="0.2" x1="348.4051983418635" x2="348.4051983418635" y1="0" y2="30"/><line opacity="0.2" x1="176.54024857991092" x2="176.54024857991092" y1="0" y2="30"/><line opacity="0.2" x1="340.25913240073584" x2="340.25913240073584" y1="0" y2="30"/><line opacity="0.2" x1="493.08905893312823" x2="493.08905893312823" y1="0" y2="30"/><line opacity="0.2" x1="304.1370509354303" x2="304.1370509354303" y1="0" y2="30"/></g></svg>