<svg xmlns="http://www.w3.org/2000/svg" xmlns:xlink="http://www.w3.org/1999/xlink" class="plot-6f412eefbc4df" fill="currentColor" font-family="system-ui, sans-serif" font-size="10" text-anchor="middle" width="640" height="60" viewBox="0 0 640 60" style="color: black;"><style>
        .plot-6f412eefbc4df {
          display: block;
          background: white;
          height: auto;
          height: intrinsic;
          max-width: 100%;
        }
        .plot-6f412eefbc4df text,
        .plot-6f412eefbc4df tspan {
          white-space: pre;
        }
      </style><g aria-label="x-axis tick" fill="none" stroke="currentColor" transform="translate(0.5,0)"><path transform="translate(29.42775854283571,30)" d="M0,0L0,6"/><path transform="translate(124.26545178339221,30)" d="M0,0L0,6"/><path transform="translate(219.10314502394868,30)" d="M0,0L0,6"/><path transform="translate(313.9408382645052,30)" d="M0,0L0,6"/><path transform="translate(408.7785315050617,30)" d="M0,0L0,6"/><path transform="translate(503.6162247456182,30)" d="M0,0L0,6"/><path transform="translate(598.4539179861747,30)" d="M0,0L0,6"/></g><g aria-label="x-axis tick label" font-variant="tabular-nums" transform="translate(0.5,9.5)"><text y="0.71em" transform="translate(29.42775854283571,30)">−3</text><text y="0.71em" transform="translate(124.26545178339221,30)">−2</text><text y="0.71em" transform="translate(219.10314502394868,30)">−1</text><text y="0.71em" transform="translate(313.9408382645052,30)">0</text><text y="0.71em" transform="translate(408.7785315050617,30)">1</text><text y="0.71em" transform="translate(503.6162247456182,30)">2</text><text y="0.71em" transform="translate(598.4539179861747,30)">3</text></g><g aria-label="tick" stroke="steelblue" transform="translate(0.5,0)"><line opacity="0.2" x1="97.82498546152142" x2="97.82498546152142" y1="0" y2="30"/><line opacity="0.2" x1="341.1929305906991" x2="341.1929305906991" y1="0" y2="30"/><line opacity="0.2" x1="55.48056489439895" x2="55.48056489439895" y1="0" y2="30"/><line opacity="0.2" x1="244.5392177014883" x2="244.5392177014883" y1="0" y2="30"/><line opacity="0.2" x1="415.7509701528869" x2="415.7509701528869" y1="0" y2="30"/><line opacity="0.2" x1="279.13923552483874" x2="279.13923552483874" y1="0" y2="30"/><line opacity="0.2" x1="230.81027332944447" x2="230.81027332944447" y1="0" y2="30"/><line opacity="0.2" x1="393.1536824782281" x2="393.1536824782281" y1="0" y2="30"/><line opacity="0.2" x1="463.91224828694294" x2="463.91224828694294" y1="0" y2="30"/><line opacity="0.2" x1="213.37446573910273" x2="213.37446573910273" y1="0" y2="30"/><line opacity="0.2" x1="531.8981800738961" x2="531.8981800738961" y1="0" y2="30"/><line opacity="0.2" x1="331.84524343431616" x2="331.84524343431616" y1="0" y2="30"/><line opacity="0.2" x1="418.48805294888024" x2="418.48805294888024" y1="0" y2="30"/><line opacity="0.2" x1="311.04374721426854" x2="311.04374721426854" y1="0" y2="30"/><line opacity="0.2" x1="390.48065549596083" x2="390.48065549596083" y1="0" y2="30"/><line opacity="0.2" x1="426.0263207309255" x2="426.0263207309255" y1="0" y2="30"/><line opacity="0.2" x1="382.43586797246246" x2="382.43586797246246" y1="0" y2="30"/><line opacity="0.2" x1="273.8930679555897" x2="273.8930679555897" y1="0" y2="30"/><line opacity="0.2" x1="181.81473282388572" x2="181.81473282388572" y1="0" y2="30"/><line opacity="0.2" x1="167.01672975274025" x2="167.01672975274025" y1="0" y2="30"/><line opacity="0.2" x1="370.5960524129995" x2="370.5960524129995" y1="0" y2="30"/><line opacity="0.2" x1="369.87162979856004" x2="369.87162979856004" y1="0" y2="30"/><line opacity="0.2" x1="399.254996666488" x2="399.254996666488" y1="0" y2="30"/><line opacity="0.2" x1="347.5988861093212" x2="347.5988861093212" y1="0" y2="30"/><line opacity="0.2" x1="472.3570915630073" x2="472.3570915630073" y1="0" y2="30"/><line opacity="0.2" x1="380.55225867828597" x2="380.55225867828597" y1="0" y2="30"/><line opacity="0.2" x1="283.46191870638455" x2="283.46191870638455" y1="0" y2="30"/><line opacity="0.2" x1="251.19719809015155" x2="251.19719809015155" y1="0" y2="30"/><line opacity="0.2" x1="294.6104822298458" x2="294.6104822298458" y1="0" y2="30"/><line opacity="0.2" x1="417.13876614949453" x2="417.13876614949453" y1="0" y2="30"/><line opacity="0.2" x1="331.5831265684644" x2="331.5831265684644" y1="0" y2="30"/><line opacity="0.2" x1="355.43385297319367" x2="355.43385297319367" y1="0" y2="30"/><line opacity="0.2" x1="318.71241711700907" x2="318.71241711700907" y1="0" y2="30"/><line opacity="0.2" x1="172.33901298931505" x2="172.33901298931505" y1="0" y2="30"/><line opacity="0.2" x1="428.9377446636411" x2="428.9377446636411" y1="0" y2="30"/><line opacity="0.2" x1="265.13015304238354" x2="265.13015304238354" y1="0" y2="30"/><line opacity="0.2" x1="440.38780931171055" x2="440.38780931171055" y1="0" y2="30"/><line opacity="0.2" x1="398.7690318998436" x2="398.7690318998436" y1="0" y2="30"/><line opacity="0.2" x1="219.2566325530979" x2="219.2566325530979" y1="0" y2="30"/><line opacity="0.2" x1="196.09410574326444" x2="196.09410574326444" y1="0" y2="30"/><line opacity="0.2" x1="347.3740106453291" x2="347.3740106453291" y1="0" y2="30"/><line opacity="0.2" x1="394.66028538644997" x2="394.66028538644997" y1="0" y2="30"/><line opacity="0.2" x1="359.63586611087993" x2="359.63586611087993" y1="0" y2="30"/><line opacity="0.2" x1="330.56146072840824" x2="330.56146072840824" y1="0" y2="30"/><line opacity="0.2" x1="499.9665704834663" x2="499.9665704834663" y1="0" y2="30"/><line opacity="0.2" x1="361.5964167429419" x2="361.5964167429419" y1="0" y2="30"/><line opacity="0.2" x1="261.5937806739116" x2="261.5937806739116" y1="0" y2="30"/><line opacity="0.2" x1="357.2199758573496" x2="357.2199758573496" y1="0" y2="30"/><line opacity="0.2" x1="297.61068366115046" x2="297.61068366115046" y1="0" y2="30"/><line opacity="0.2" x1="356.3687553353806" x2="356.3687553353806" y1="0" y2="30"/><line opacity="0.2" x1="314.08741061873457" x2="314.08741061873457" y1="0" y2="30"/><line opacity="0.2" x1="181.6380501825851" x2="181.6380501825851" y1="0" y2="30"/><line opacity="0.2" x1="457.1054328030138" x2="457.1054328030138" y1="0" y2="30"/><line opacity="0.2" x1="441.37383276981893" x2="441.37383276981893" y1="0" y2="30"/><line opacity="0.2" x1="86.42388817384241" x2="86.42388817384241" y1="0" y2="30"/><line opacity="0.2" x1="244.86441932910554" x2="244.86441932910554" y1="0" y2="30"/><line opacity="0.2" x1="371.21208152322123" x2="371.21208152322123" y1="0" y2="30"/><line opacity="0.2" x1="356.55504924410627" x2="356.55504924410627" y1="0" y2="30"/><line opacity="0.2" x1="123.88799801512384" x2="123.88799801512384" y1="0" y2="30"/><line opacity="0.2" x1="376.3204229083061" x2="376.3204229083061" y1="0" y2="30"/><line opacity="0.2" x1="89.14980688106152" x2="89.14980688106152" y1="0" y2="30"/><line opacity="0.2" x1="453.0593941929616" x2="453.0593941929616" y1="0" y2="30"/><line opacity="0.2" x1="298.5979463556134" x2="298.5979463556134" y1="0" y2="30"/><line opacity="0.2" x1="509.6394907625523" x2="509.6394907625523" y1="0" y2="30"/><line opacity="0.2" x1="270.5963658067441" x2="270.5963658067441" y1="0" y2="30"/><line opacity="0.2" x1="272.23364356067816" x2="272.23364356067816" y1="0" y2="30"/><line opacity="0.2" x1="273.44578707365486" x2="273.44578707365486" y1="0" y2="30"/><line opacity="0.2" x1="431.41757615857074" x2="431.41757615857074" y1="0" y2="30"/><line opacity="0.2" x1="214.95063594061244" x2="214.95063594061244" y1="0" y2="30"/><line opacity="0.2" x1="242.8655612133873" x2="242.8655612133873" y1="0" y2="30"/><line opacity="0.2" x1="314.957879087" x2="314.957879087" y1="0" y2="30"/><line opacity="0.2" x1="172.51923949132348" x2="172.51923949132348" y1="0" y2="30"/><line opacity="0.2" x1="242.7125623761558" x2="242.7125623761558" y1="0" y2="30"/><line opacity="0.2" x1="440.3236987311991" x2="440.3236987311991" y1="0" y2="30"/><line opacity="0.2" x1="245.44311228030344" x2="245.44311228030344" y1="0" y2="30"/><line opacity="0.2" x1="448.04199430986523" x2="448.04199430986523" y1="0" y2="30"/><line opacity="0.2" x1="249.75074548251027" x2="249.75074548251027" y1="0" y2="30"/><line opacity="0.2" x1="358.87401866469554" x2="358.87401866469554" y1="0" y2="30"/><line opacity="0.2" x1="258.65801847792284" x2="258.65801847792284" y1="0" y2="30"/><line opacity="0.2" x1="364.47927643560166" x2="364.47927643560166" y1="0" y2="30"/><line opacity="0.2" x1="276.28589834324396" x2="276.28589834324396" y1="0" y2="30"/><line opacity="0.2" x1="406.19572666616364" x2="406.19572666616364" y1="0" y2="30"/><line opacity="0.2" x1="246.25147832277688" x2="246.25147832277688" y1="0" y2="30"/><line opacity="0.2" x1="385.82037159087804" x2="385.82037159087804" y1="0" y2="30"/><line opacity="0.2" x1="381.90740282835725" x2="381.90740282835725" y1="0" y2="30"/><line opacity="0.2" x1="271.4693301312419" x2="271.4693301312419" y1="0" y2="30"/><line opacity="0.2" x1="415.84175078192" x2="415.84175078192" y1="0" y2="30"/><line opacity="0.2" x1="371.7111230103256" x2="371.7111230103256" y1="0" y2="30"/><line opacity="0.2" x1="397.98942539802766" x2="397.98942539802766" y1="0" y2="30"/><line opacity="0.2" x1="105.7542856252772" x2="105.7542856252772" y1="0" y2="30"/><line opacity="0.2" x1="313.005951468532" x2="313.005951468532" y1="0" y2="30"/><line opacity="0.2" x1="235.98972005702785" x2="235.98972005702785" y1="0" y2="30"/><line opacity="0.2" x1="330.54156747020795" x2="330.54156747020795" y1="0" y2="30"/><line opacity="0.2" x1="310.47516372439475" x2="310.47516372439475" y1="0" y2="30"/><line opacity="0.2" x1="362.57543429904763" x2="362.57543429904763" y1="0" y2="30"/><line opacity="0.2" x1="174.44441077857" x2="174.44441077857" y1="0" y2="30"/><line opacity="0.2" x1="345.46580344028837" x2="345.46580344028837" y1="0" y2="30"/><line opacity="0.2" x1="138.61854181832004" x2="138.61854181832004" y1="0" y2="30"/><line opacity="0.2" x1="402.8946590802776" x2="402.8946590802776" y1="0" y2="30"/><line opacity="0.2" x1="277.76107364916675" x2="277.76107364916675" y1="0" y2="30"/><line opacity="0.2" x1="301.8170319325326" x2="301.8170319325326" y1="0" y2="30"/><line opacity="0.2" x1="254.80083800872" x2="254.80083800872" y1="0" y2="30"/><line opacity="0.2" x1="323.717845830785" x2="323.717845830785" y1="0" y2="30"/><line opacity="0.2" x1="403.7056245986298" x2="403.7056245986298" y1="0" y2="30"/><line opacity="0.2" x1="47.24020790897205" x2="47.24020790897205" y1="0" y2="30"/><line opacity="0.2" x1="358.13231791548867" x2="358.13231791548867" y1="0" y2="30"/><line opacity="0.2" x1="154.84305944525218" x2="154.84305944525218" y1="0" y2="30"/><line opacity="0.2" x1="316.14141436311667" x2="316.14141436311667" y1="0" y2="30"/><line opacity="0.2" x1="262.05814878837447" x2="262.05814878837447" y1="0" y2="30"/><line opacity="0.2" x1="347.44691873825735" x2="347.44691873825735" y1="0" y2="30"/><line opacity="0.2" x1="348.6567861511005" x2="348.6567861511005" y1="0" y2="30"/><line opacity="0.2" x1="367.2790618413093" x2="367.2790618413093" y1="0" y2="30"/><line opacity="0.2" x1="106.41567452528304" x2="106.41567452528304" y1="0" y2="30"/><line opacity="0.2" x1="308.35509595489884" x2="308.35509595489884" y1="0" y2="30"/><line opacity="0.2" x1="122.18457143161831" x2="122.18457143161831" y1="0" y2="30"/><line opacity="0.2" x1="176.95731193190932" x2="176.95731193190932" y1="0" y2="30"/><line opacity="0.2" x1="308.19552783000324" x2="308.19552783000324" y1="0" y2="30"/><line opacity="0.2" x1="378.09456360625956" x2="378.09456360625956" y1="0" y2="30"/><line opacity="0.2" x1="236.29289106458077" x2="236.29289106458077" y1="0" y2="30"/><line opacity="0.2" x1="330.438137337836" x2="330.438137337836" y1="0" y2="30"/><line opacity="0.2" x1="194.91445232569936" x2="194.91445232569936" y1="0" y2="30"/><line opacity="0.2" x1="214.0730705665781" x2="214.0730705665781" y1="0" y2="30"/><line opacity="0.2" x1="313.11047259412976" x2="313.11047259412976" y1="0" y2="30"/><line opacity="0.2" x1="302.9095612277729" x2="302.9095612277729" y1="0" y2="30"/><line opacity="0.2" x1="280.20439395140073" x2="280.20439395140073" y1="0" y2="30"/><line opacity="0.2" x1="397.18202213207974" x2="397.18202213207974" y1="0" y2="30"/><line opacity="0.2" x1="381.5821048437403" x2="381.5821048437403" y1="0" y2="30"/><line opacity="0.2" x1="327.97600509876975" x2="327.97600509876975" y1="0" y2="30"/><line opacity="0.2" x1="364.92765390610447" x2="364.92765390610447" y1="0" y2="30"/><line opacity="0.2" x1="464.52794095753654" x2="464.52794095753654" y1="0" y2="30"/><line opacity="0.2" x1="178.12906986411429" x2="178.12906986411429" y1="0" y2="30"/><line opacity="0.2" x1="341.1340819378927" x2="341.1340819378927" y1="0" y2="30"/><line opacity="0.2" x1="423.13796162196815" x2="423.13796162196815" y1="0" y2="30"/><line opacity="0.2" x1="276.0803551299204" x2="276.0803551299204" y1="0" y2="30"/><line opacity="0.2" x1="326.516617589129" x2="326.516617589129" y1="0" y2="30"/><line opacity="0.2" x1="40.678353680282356" x2="40.678353680282356" y1="0" y2="30"/><line opacity="0.2" x1="394.38549751272484" x2="394.38549751272484" y1="0" y2="30"/><line opacity="0.2" x1="280.72051200291423" x2="280.72051200291423" y1="0" y2="30"/><line opacity="0.2" x1="225.11552792241898" x2="225.11552792241898" y1="0" y2="30"/><line opacity="0.2" x1="297.25739928331654" x2="297.25739928331654" y1="0" y2="30"/><line opacity="0.2" x1="390.6657772453679" x2="390.6657772453679" y1="0" y2="30"/><line opacity="0.2" x1="585.2669727862238" x2="585.2669727862238" y1="0" y2="30"/><line opacity="0.2" x1="269.2086211915573" x2="269.2086211915573" y1="0" y2="30"/><line opacity="0.2" x1="259.37899445672116" x2="259.37899445672116" y1="0" y2="30"/><line opacity="0.2" x1="287.28606522062574" x2="287.28606522062574" y1="0" y2="30"/><line opacity="0.2" x1="199.2430975122966" x2="199.2430975122966" y1="0" y2="30"/><line opacity="0.2" x1="280.6706139372564" x2="280.6706139372564" y1="0" y2="30"/><line opacity="0.2" x1="388.0965640151644" x2="388.0965640151644" y1="0" y2="30"/><line opacity="0.2" x1="265.4854489991479" x2="265.4854489991479" y1="0" y2="30"/><line opacity="0.2" x1="307.2384037491089" x2="307.2384037491089" y1="0" y2="30"/><line opacity="0.2" x1="335.4710305456881" x2="335.4710305456881" y1="0" y2="30"/><line opacity="0.2" x1="534.6269745207462" x2="534.6269745207462" y1="0" y2="30"/><line opacity="0.2" x1="251.26596144296136" x2="251.26596144296136" y1="0" y2="30"/><line opacity="0.2" x1="134.0974688192949" x2="134.0974688192949" y1="0" y2="30"/><line opacity="0.2" x1="225.6326448335821" x2="225.6326448335821" y1="0" y2="30"/><line opacity="0.2" x1="297.17998379342356" x2="297.17998379342356" y1="0" y2="30"/><line opacity="0.2" x1="336.7919132265118" x2="336.7919132265118" y1="0" y2="30"/><line opacity="0.2" x1="338.02965882812936" x2="338.02965882812936" y1="0" y2="30"/><line opacity="0.2" x1="250.94142718502584" x2="250.94142718502584" y1="0" y2="30"/><line opacity="0.2" x1="225.33927521322212" x2="225.33927521322212" y1="0" y2="30"/><line opacity="0.2" x1="393.3055628597097" x2="393.3055628597097" y1="0" y2="30"/><line opacity="0.2" x1="446.53216661977285" x2="446.53216661977285" y1="0" y2="30"/><line opacity="0.2" x1="276.9120062508609" x2="276.9120062508609" y1="0" y2="30"/><line opacity="0.2" x1="112.33271918861266" x2="112.33271918861266" y1="0" y2="30"/><line opacity="0.2" x1="261.5471844549144" x2="261.5471844549144" y1="0" y2="30"/><line opacity="0.2" x1="302.8894033925757" x2="302.8894033925757" y1="0" y2="30"/><line opacity="0.2" x1="456.1357694196035" x2="456.1357694196035" y1="0" y2="30"/><line opacity="0.2" x1="241.09266256800115" x2="241.09266256800115" y1="0" y2="30"/><line opacity="0.2" x1="253.66590223167427" x2="253.66590223167427" y1="0" y2="30"/><line opacity="0.2" x1="334.0618668610093" x2="334.0618668610093" y1="0" y2="30"/><line opacity="0.2" x1="457.93917769126074" x2="457.93917769126074" y1="0" y2="30"/><line opacity="0.2" x1="205.31180753002886" x2="205.31180753002886" y1="0" y2="30"/><line opacity="0.2" x1="310.9765475821797" x2="310.9765475821797" y1="0" y2="30"/><line opacity="0.2" x1="326.90040023023334" x2="326.90040023023334" y1="0" y2="30"/><line opacity="0.2" x1="394.7683160303656" x2="394.7683160303656" y1="0" y2="30"/><line opacity="0.2" x1="68.01023898081965" x2="68.01023898081965" y1="0" y2="30"/><line opacity="0.2" x1="255.25462120428335" x2="255.25462120428335" y1="0" y2="30"/><line opacity="0.2" x1="353.14261062003936" x2="353.14261062003936" y1="0" y2="30"/><line opacity="0.2" x1="374.4056729951553" x2="374.4056729951553" y1="0" y2="30"/><line opacity="0.2" x1="379.2512945913889" x2="379.2512945913889" y1="0" y2="30"/><line opacity="0.2" x1="220.77546638302235" x2="220.77546638302235" y1="0" y2="30"/><line opacity="0.2" x1="204.0057520031417" x2="204.0057520031417" y1="0" y2="30"/><line opacity="0.2" x1="351.39956569271266" x2="351.39956569271266" y1="0" y2="30"/><line opacity="0.2" x1="323.51290672398335" x2="323.51290672398335" y1="0" y2="30"/><line opacity="0.2" x1="227.8811328733406" x2="227.8811328733406" y1="0" y2="30"/><line opacity="0.2" x1="295.9674413662641" x2="295.9674413662641" y1="0" y2="30"/><line opacity="0.2" x1="399.4288661416446" x2="399.4288661416446" y1="0" y2="30"/><line opacity="0.2" x1="293.26718966768556" x2="293.26718966768556" y1="0" y2="30"/><line opacity="0.2" x1="296.7589203702231" x2="296.7589203702231" y1="0" y2="30"/><line opacity="0.2" x1="391.25676952665674" x2="391.25676952665674" y1="0" y2="30"/><line opacity="0.2" x1="194.6103977632498" x2="194.6103977632498" y1="0" y2="30"/><line opacity="0.2" x1="211.66846821821116" x2="211.66846821821116" y1="0" y2="30"/><line opacity="0.2" x1="195.4043027342903" x2="195.4043027342903" y1="0" y2="30"/><line opacity="0.2" x1="102.14270683447182" x2="102.14270683447182" y1="0" y2="30"/><line opacity="0.2" x1="316.14195047968917" x2="316.14195047968917" y1="0" y2="30"/><line opacity="0.2" x1="382.8904171995092" x2="382.8904171995092" y1="0" y2="30"/><line opacity="0.2" x1="242.54806016557274" x2="242.54806016557274" y1="0" y2="30"/><line opacity="0.2" x1="247.0655633617346" x2="247.0655633617346" y1="0" y2="30"/><line opacity="0.2" x1="237.49234431497928" x2="237.49234431497928" y1="0" y2="30"/><line opacity="0.2" x1="362.4190913164691" x2="362.4190913164691" y1="0" y2="30"/><line opacity="0.2" x1="241.11742277274075" x2="241.11742277274075" y1="0" y2="30"/><line opacity="0.2" x1="377.5136131411265" x2="377.5136131411265" y1="0" y2="30"/><line opacity="0.2" x1="305.47056694258424" x2="305.47056694258424" y1="0" y2="30"/><line opacity="0.2" x1="235.38736381540116" x2="235.38736381540116" y1="0" y2="30"/><line opacity="0.2" x1="265.26785075556865" x2="265.26785075556865" y1="0" y2="30"/><line opacity="0.2" x1="409.59466920014944" x2="409.59466920014944" y1="0" y2="30"/><line opacity="0.2" x1="267.40117988891785" x2="267.40117988891785" y1="0" y2="30"/><line opacity="0.2" x1="190.85301542397482" x2="190.85301542397482" y1="0" y2="30"/><line opacity="0.2" x1="227.46035555414346" x2="227.46035555414346" y1="0" y2="30"/><line opacity="0.2" x1="481.6910342838127" x2="481.6910342838127" y1="0" y2="30"/><line opacity="0.2" x1="256.1278717972037" x2="256.1278717972037" y1="0" y2="30"/><line opacity="0.2" x1="234.78105684004288" x2="234.78105684004288" y1="0" y2="30"/><line opacity="0.2" x1="220.44836693344135" x2="220.44836693344135" y1="0" y2="30"/><line opacity="0.2" x1="440.051461107182" x2="440.051461107182" y1="0" y2="30"/><line opacity="0.2" x1="257.1110722379113" x2="257.1110722379113" y1="0" y2="30"/><line opacity="0.2" x1="280.44549033417417" x2="280.44549033417417" y1="0" y2="30"/><line opacity="0.2" x1="373.95751966893204" x2="373.95751966893204" y1="0" y2="30"/><line opacity="0.2" x1="443.40893379575056" x2="443.40893379575056" y1="0" y2="30"/><line opacity="0.2" x1="361.88346985650264" x2="361.88346985650264" y1="0" y2="30"/><line opacity="0.2" x1="258.01592975161634" x2="258.01592975161634" y1="0" y2="30"/><line opacity="0.2" x1="336.73959502674046" x2="336.73959502674046" y1="0" y2="30"/><line opacity="0.2" x1="269.65496459558017" x2="269.65496459558017" y1="0" y2="30"/><line opacity="0.2" x1="287.0932032025216" x2="287.0932032025216" y1="0" y2="30"/><line opacity="0.2" x1="251.57566444783237" x2="251.57566444783237" y1="0" y2="30"/><line opacity="0.2" x1="422.8378425478931" x2="422.8378425478931" y1="0" y2="30"/><line opacity="0.2" x1="299.34625188934" x2="299.34625188934" y1="0" y2="30"/><line opacity="0.2" x1="445.8260265952625" x2="445.8260265952625" y1="0" y2="30"/><line opacity="0.2" x1="357.58470736823944" x2="357.58470736823944" y1="0" y2="30"/><line opacity="0.2" x1="146.17904591018126" x2="146.17904591018126" y1="0" y2="30"/><line opacity="0.2" x1="114.43341207457713" x2="114.43341207457713" y1="0" y2="30"/><line opacity="0.2" x1="406.5904554228959" x2="406.5904554228959" y1="0" y2="30"/><line opacity="0.2" x1="370.6933118667827" x2="370.6933118667827" y1="0" y2="30"/><line opacity="0.2" x1="224.69629670952574" x2="224.69629670952574" y1="0" y2="30"/><line opacity="0.2" x1="176.37577780913523" x2="176.37577780913523" y1="0" y2="30"/><line opacity="0.2" x1="244.92416840884457" x2="244.92416840884457" y1="0" y2="30"/><line opacity="0.2" x1="376.6254928803595" x2="376.6254928803595" y1="0" y2="30"/><line opacity="0.2" x1="504.7640386529636" x2="504.7640386529636" y1="0" y2="30"/><line opacity="0.2" x1="201.5065755055683" x2="201.5065755055683" y1="0" y2="30"/><line opacity="0.2" x1="279.4857646629693" x2="279.4857646629693" y1="0" y2="30"/><line opacity="0.2" x1="423.79044284308117" x2="423.79044284308117" y1="0" y2="30"/><line opacity="0.2" x1="283.2767780323967" x2="283.2767780323967" y1="0" y2="30"/><line opacity="0.2" x1="226.2527891927919" x2="226.2527891927919" y1="0" y2="30"/><line opacity="0.2" x1="270.12413838461157" x2="270.12413838461157" y1="0" y2="30"/><line opacity="0.2" x1="294.7404015576787" x2="294.7404015576787" y1="0" y2="30"/><line opacity="0.2" x1="236.9105782224959" x2="236.9105782224959" y1="0" y2="30"/><line opacity="0.2" x1="133.01034078189454" x2="133.01034078189454" y1="0" y2="30"/><line opacity="0.2" x1="322.77128332762624" x2="322.77128332762624" y1="0" y2="30"/><line opacity="0.2" x1="318.37548455840135" x2="318.37548455840135" y1="0" y2="30"/><line opacity="0.2" x1="230.85124827619308" x2="230.85124827619308" y1="0" y2="30"/><line opacity="0.2" x1="275.81810067618363" x2="275.81810067618363" y1="0" y2="30"/><line opacity="0.2" x1="376.15191576860826" x2="376.15191576860826" y1="0" y2="30"/><line opacity="0.2" x1="164.8454326461429" x2="164.8454326461429" y1="0" y2="30"/><line opacity="0.2" x1="267.1242318513959" x2="267.1242318513959" y1="0" y2="30"/><line opacity="0.2" x1="262.0169179375571" x2="262.0169179375571" y1="0" y2="30"/><line opacity="0.2" x1="292.13319150423234" x2="292.13319150423234" y1="0" y2="30"/><line opacity="0.2" x1="205.17342273800145" x2="205.17342273800145" y1="0" y2="30"/><line opacity="0.2" x1="299.22113786916117" x2="299.22113786916117" y1="0" y2="30"/><line opacity="0.2" x1="320.1926683560717" x2="320.1926683560717" y1="0" y2="30"/><line opacity="0.2" x1="418.82119357775207" x2="418.82119357775207" y1="0" y2="30"/><line opacity="0.2" x1="339.9826408143449" x2="339.9826408143449" y1="0" y2="30"/><line opacity="0.2" x1="320.7456670714786" x2="320.7456670714786" y1="0" y2="30"/><line opacity="0.2" x1="284.9591920542319" x2="284.9591920542319" y1="0" y2="30"/><line opacity="0.2" x1="250.93807075436553" x2="250.93807075436553" y1="0" y2="30"/><line opacity="0.2" x1="174.94592049301883" x2="174.94592049301883" y1="0" y2="30"/><line opacity="0.2" x1="245.33411212008596" x2="245.33411212008596" y1="0" y2="30"/><line opacity="0.2" x1="348.1536023472738" x2="348.1536023472738" y1="0" y2="30"/><line opacity="0.2" x1="315.26352926097496" x2="315.26352926097496" y1="0" y2="30"/><line opacity="0.2" x1="379.25866355528103" x2="379.25866355528103" y1="0" y2="30"/><line opacity="0.2" x1="380.22584674966316" x2="380.22584674966316" y1="0" y2="30"/><line opacity="0.2" x1="347.2281309176646" x2="347.2281309176646" y1="0" y2="30"/><line opacity="0.2" x1="185.25198598108685" x2="185.25198598108685" y1="0" y2="30"/><line opacity="0.2" x1="490.9277003322781" x2="490.9277003322781" y1="0" y2="30"/><line opacity="0.2" x1="326.6401237628213" x2="326.6401237628213" y1="0" y2="30"/><line opacity="0.2" x1="209.32597819198108" x2="209.32597819198108" y1="0" y2="30"/><line opacity="0.2" x1="391.05273618983136" x2="391.05273618983136" y1="0" y2="30"/><line opacity="0.2" x1="364.6454587812298" x2="364.6454587812298" y1="0" y2="30"/><line opacity="0.2" x1="231.97848912512984" x2="231.97848912512984" y1="0" y2="30"/><line opacity="0.2" x1="304.7906536598691" x2="304.7906536598691" y1="0" y2="30"/><line opacity="0.2" x1="401.85814627995984" x2="401.85814627995984" y1="0" y2="30"/><line opacity="0.2" x1="373.35685641931235" x2="373.35685641931235" y1="0" y2="30"/><line opacity="0.2" x1="371.2415686300401" x2="371.2415686300401" y1="0" y2="30"/><line opacity="0.2" x1="289.63631948814253" x2="289.63631948814253" y1="0" y2="30"/><line opacity="0.2" x1="136.017846165932" x2="136.017846165932" y1="0" y2="30"/><line opacity="0.2" x1="218.03909645460783" x2="218.03909645460783" y1="0" y2="30"/><line opacity="0.2" x1="361.86014957689326" x2="361.86014957689326" y1="0" y2="30"/><line opacity="0.2" x1="401.65128794564805" x2="401.65128794564805" y1="0" y2="30"/><line opacity="0.2" x1="422.0835944173114" x2="422.0835944173114" y1="0" y2="30"/><line opacity="0.2" x1="394.1648020589183" x2="394.1648020589183" y1="0" y2="30"/><line opacity="0.2" x1="193.877004735899" x2="193.877004735899" y1="0" y2="30"/><line opacity="0.2" x1="359.6368049517665" x2="359.6368049517665" y1="0" y2="30"/><line opacity="0.2" x1="293.6409657319091" x2="293.6409657319091" y1="0" y2="30"/><line opacity="0.2" x1="403.3220423849126" x2="403.3220423849126" y1="0" y2="30"/><line opacity="0.2" x1="309.29473632858094" x2="309.29473632858094" y1="0" y2="30"/><line opacity="0.2" x1="317.73780617746286" x2="317.73780617746286" y1="0" y2="30"/><line opacity="0.2" x1="332.4775083221507" x2="332.4775083221507" y1="0" y2="30"/><line opacity="0.2" x1="190.35272916948017" x2="190.35272916948017" y1="0" y2="30"/><line opacity="0.2" x1="241.823488701943" x2="241.823488701943" y1="0" y2="30"/><line opacity="0.2" x1="380.646700681757" x2="380.646700681757" y1="0" y2="30"/><line opacity="0.2" x1="224.9352371973561" x2="224.9352371973561" y1="0" y2="30"/><line opacity="0.2" x1="396.69876325306444" x2="396.69876325306444" y1="0" y2="30"/><line opacity="0.2" x1="218.15286739313694" x2="218.15286739313694" y1="0" y2="30"/><line opacity="0.2" x1="219.5829755757317" x2="219.5829755757317" y1="0" y2="30"/><line opacity="0.2" x1="362.798064511824" x2="362.798064511824" y1="0" y2="30"/><line opacity="0.2" x1="347.3750924286753" x2="347.3750924286753" y1="0" y2="30"/><line opacity="0.2" x1="253.94786862976204" x2="253.94786862976204" y1="0" y2="30"/><line opacity="0.2" x1="167.95241387251897" x2="167.95241387251897" y1="0" y2="30"/><line opacity="0.2" x1="150.4639549560975" x2="150.4639549560975" y1="0" y2="30"/><line opacity="0.2" x1="374.7084892443317" x2="374.7084892443317" y1="0" y2="30"/><line opacity="0.2" x1="358.8044929084366" x2="358.8044929084366" y1="0" y2="30"/><line opacity="0.2" x1="270.1656438382141" x2="270.1656438382141" y1="0" y2="30"/><line opacity="0.2" x1="401.6078312827568" x2="401.6078312827568" y1="0" y2="30"/><line opacity="0.2" x1="336.3582205061902" x2="336.3582205061902" y1="0" y2="30"/><line opacity="0.2" x1="275.2209920869369" x2="275.2209920869369" y1="0" y2="30"/><line opacity="0.2" x1="341.35067117769063" x2="341.35067117769063" y1="0" y2="30"/><line opacity="0.2" x1="370.9749583464109" x2="370.9749583464109" y1="0" y2="30"/><line opacity="0.2" x1="252.24962088615717" x2="252.24962088615717" y1="0" y2="30"/><line opacity="0.2" x1="312.6245998903706" x2="312.6245998903706" y1="0" y2="30"/><line opacity="0.2" x1="351.5160828590839" x2="351.5160828590839" y1="0" y2="30"/><line opacity="0.2" x1="295.44865887425175" x2="295.44865887425175" y1="0" y2="30"/><line opacity="0.2" x1="434.5975002846916" x2="434.5975002846916" y1="0" y2="30"/><line opacity="0.2" x1="347.0609114320359" x2="347.0609114320359" y1="0" y2="30"/><line opacity="0.2" x1="373.9641069581807" x2="373.9641069581807" y1="0" y2="30"/><line opacity="0.2" x1="228.7548805772185" x2="228.7548805772185" y1="0" y2="30"/><line opacity="0.2" x1="427.27817589499585" x2="427.27817589499585" y1="0" y2="30"/><line opacity="0.2" x1="205.94954343977068" x2="205.94954343977068" y1="0" y2="30"/><line opacity="0.2" x1="283.54234123067636" x2="283.54234123067636" y1="0" y2="30"/><line opacity="0.2" x1="200.58698372537154" x2="200.58698372537154" y1="0" y2="30"/><line opacity="0.2" x1="429.77788565457166" x2="429.77788565457166" y1="0" y2="30"/><line opacity="0.2" x1="531.9362690807766" x2="531.9362690807766" y1="0" y2="30"/><line opacity="0.2" x1="333.0849149634758" x2="333.0849149634758" y1="0" y2="30"/><line opacity="0.2" x1="220.13044740583592" x2="220.13044740583592" y1="0" y2="30"/><line opacity="0.2" x1="177.3702323122282" x2="177.3702323122282" y1="0" y2="30"/><line opacity="0.2" x1="263.4657998268822" x2="263.4657998268822" y1="0" y2="30"/><line opacity="0.2" x1="412.9925493027997" x2="412.9925493027997" y1="0" y2="30"/><line opacity="0.2" x1="159.57334751566796" x2="159.57334751566796" y1="0" y2="30"/><line opacity="0.2" x1="393.67603402408355" x2="393.67603402408355" y1="0" y2="30"/><line opacity="0.2" x1="296.1051776539138" x2="296.1051776539138" y1="0" y2="30"/><line opacity="0.2" x1="193.27770580888182" x2="193.27770580888182" y1="0" y2="30"/><line opacity="0.2" x1="476.4524992319033" x2="476.4524992319033" y1="0" y2="30"/><line opacity="0.2" x1="167.91791426355712" x2="167.91791426355712" y1="0" y2="30"/><line opacity="0.2" x1="194.10871098522534" x2="194.10871098522534" y1="0" y2="30"/><line opacity="0.2" x1="217.08582680864353" x2="217.08582680864353" y1="0" y2="30"/><line opacity="0.2" x1="409.5618313946613" x2="409.5618313946613" y1="0" y2="30"/><line opacity="0.2" x1="333.40782746295235" x2="333.40782746295235" y1="0" y2="30"/><line opacity="0.2" x1="335.0366533011458" x2="335.0366533011458" y1="0" y2="30"/><line opacity="0.2" x1="277.89349027834675" x2="277.89349027834675" y1="0" y2="30"/><line opacity="0.2" x1="300.3848175469088" x2="300.3848175469088" y1="0" y2="30"/><line opacity="0.2" x1="292.8609195462096" x2="292.8609195462096" y1="0" y2="30"/><line opacity="0.2" x1="268.0868014785221" x2="268.0868014785221" y1="0" y2="30"/><line opacity="0.2" x1="338.9104988106559" x2="338.9104988106559" y1="0" y2="30"/><line opacity="0.2" x1="245.5944369944579" x2="245.5944369944579" y1="0" y2="30"/><line opacity="0.2" x1="422.23486216124917" x2="422.23486216124917" y1="0" y2="30"/><line opacity="0.2" x1="441.120688499591" x2="441.120688499591" y1="0" y2="30"/><line opacity="0.2" x1="471.28052438379746" x2="471.28052438379746" y1="0" y2="30"/><line opacity="0.2" x1="216.78407798841278" x2="216.78407798841278" y1="0" y2="30"/><line opacity="0.2" x1="238.00772055255078" x2="238.00772055255078" y1="0" y2="30"/><line opacity="0.2" x1="412.947875597798" x2="412.947875597798" y1="0" y2="30"/><line opacity="0.2" x1="223.80112250436628" x2="223.80112250436628" y1="0" y2="30"/><line opacity="0.2" x1="409.94961108133765" x2="409.94961108133765" y1="0" y2="30"/><line opacity="0.2" x1="353.2778320138273" x2="353.2778320138273" y1="0" y2="30"/><line opacity="0.2" x1="168.42314971283577" x2="168.42314971283577" y1="0" y2="30"/><line opacity="0.2" x1="68.367375026893" x2="68.367375026893" y1="0" y2="30"/><line opacity="0.2" x1="292.103956366804" x2="292.103956366804" y1="0" y2="30"/><line opacity="0.2" x1="217.04938102243398" x2="217.04938102243398" y1="0" y2="30"/><line opacity="0.2" x1="406.719539059622" x2="406.719539059622" y1="0" y2="30"/><line opacity="0.2" x1="273.37413863690335" x2="273.37413863690335" y1="0" y2="30"/><line opacity="0.2" x1="439.73903357657724" x2="439.73903357657724" y1="0" y2="30"/><line opacity="0.2" x1="244.0371410101095" x2="244.0371410101095" y1="0" y2="30"/><line opacity="0.2" x1="282.63389836471714" x2="282.63389836471714" y1="0" y2="30"/><line opacity="0.2" x1="345.7077145914116" x2="345.7077145914116" y1="0" y2="30"/><line opacity="0.2" x1="276.12527593572577" x2="276.12527593572577" y1="0" y2="30"/><line opacity="0.2" x1="130.86468279686102" x2="130.86468279686102" y1="0" y2="30"/><line opacity="0.2" x1="275.02462659417506" x2="275.02462659417506" y1="0" y2="30"/><line opacity="0.2" x1="293.4208084608192" x2="293.4208084608192" y1="0" y2="30"/><line opacity="0.2" x1="313.0208976309857" x2="313.0208976309857" y1="0" y2="30"/><line opacity="0.2" x1="445.4908598413785" x2="445.4908598413785" y1="0" y2="30"/><line opacity="0.2" x1="458.65887147008846" x2="458.65887147008846" y1="0" y2="30"/><line opacity="0.2" x1="416.25698473608395" x2="416.25698473608395" y1="0" y2="30"/><line opacity="0.2" x1="210.6941802134873" x2="210.6941802134873" y1="0" y2="30"/><line opacity="0.2" x1="388.99204080674457" x2="388.99204080674457" y1="0" y2="30"/><line opacity="0.2" x1="321.07408545014835" x2="321.07408545014835" y1="0" y2="30"/><line opacity="0.2" x1="534.4764106749376" x2="534.4764106749376" y1="0" y2="30"/><line opacity="0.2" x1="264.6642388804598" x2="264.6642388804598" y1="0" y2="30"/><line opacity="0.2" x1="217.2398348468603" x2="217.2398348468603" y1="0" y2="30"/><line opacity="0.2" x1="170.82635999890147" x2="170.82635999890147" y1="0" y2="30"/><line opacity="0.2" x1="337.38807602744674" x2="337.38807602744674" y1="0" y2="30"/><line opacity="0.2" x1="292.54637027253364" x2="292.54637027253364" y1="0" y2="30"/><line opacity="0.2" x1="414.39583289354727" x2="414.39583289354727" y1="0" y2="30"/><line opacity="0.2" x1="276.07821367233834" x2="276.07821367233834" y1="0" y2="30"/><line opacity="0.2" x1="428.9824031371356" x2="428.9824031371356" y1="0" y2="30"/><line opacity="0.2" x1="341.06073211672776" x2="341.06073211672776" y1="0" y2="30"/><line opacity="0.2" x1="279.05640363941154" x2="279.05640363941154" y1="0" y2="30"/><line opacity="0.2" x1="371.47751867876815" x2="371.47751867876815" y1="0" y2="30"/><line opacity="0.2" x1="259.52335758926404" x2="259.52335758926404" y1="0" y2="30"/><line opacity="0.2" x1="195.4732718925398" x2="195.4732718925398" y1="0" y2="30"/><line opacity="0.2" x1="379.88076740510337" x2="379.88076740510337" y1="0" y2="30"/><line opacity="0.2" x1="387.22576462999024" x2="387.22576462999024" y1="0" y2="30"/><line opacity="0.2" x1="375.5929741336756" x2="375.5929741336756" y1="0" y2="30"/><line opacity="0.2" x1="274.4303924301631" x2="274.4303924301631" y1="0" y2="30"/><line opacity="0.2" x1="486.2449676772174" x2="486.2449676772174" y1="0" y2="30"/><line opacity="0.2" x1="464.6998171619598" x2="464.6998171619598" y1="0" y2="30"/><line opacity="0.2" x1="329.34726743118017" x2="329.34726743118017" y1="0" y2="30"/><line opacity="0.2" x1="304.74106012688515" x2="304.74106012688515" y1="0" y2="30"/><line opacity="0.2" x1="410.18783194360157" x2="410.18783194360157" y1="0" y2="30"/><line opacity="0.2" x1="322.7053946342209" x2="322.7053946342209" y1="0" y2="30"/><line opacity="0.2" x1="145.4067136119335" x2="145.4067136119335" y1="0" y2="30"/><line opacity="0.2" x1="426.31076371882034" x2="426.31076371882034" y1="0" y2="30"/><line opacity="0.2" x1="174.38486850296812" x2="174.38486850296812" y1="0" y2="30"/><line opacity="0.2" x1="308.4242250834099" x2="308.4242250834099" y1="0" y2="30"/><line opacity="0.2" x1="340.29699728188064" x2="340.29699728188064" y1="0" y2="30"/><line opacity="0.2" x1="382.48032610272077" x2="382.48032610272077" y1="0" y2="30"/><line opacity="0.2" x1="240.09767747144113" x2="240.09767747144113" y1="0" y2="30"/><line opacity="0.2" x1="229.8559558548409" x2="229.8559558548409" y1="0" y2="30"/><line opacity="0.2" x1="121.88115317639543" x2="121.88115317639543" y1="0" y2="30"/><line opacity="0.2" x1="198.2513991947967" x2="198.2513991947967" y1="0" y2="30"/><line opacity="0.2" x1="301.43481032973017" x2="301.43481032973017" y1="0" y2="30"/><line opacity="0.2" x1="273.94718893355065" x2="273.94718893355065" y1="0" y2="30"/><line opacity="0.2" x1="371.11792685587864" x2="371.11792685587864" y1="0" y2="30"/><line opacity="0.2" x1="207.08703815793683" x2="207.08703815793683" y1="0" y2="30"/><line opacity="0.2" x1="297.5764857923394" x2="297.5764857923394" y1="0" y2="30"/><line opacity="0.2" x1="160.1266299605114" x2="160.1266299605114" y1="0" y2="30"/><line opacity="0.2" x1="197.57122189296052" x2="197.57122189296052" y1="0" y2="30"/><line opacity="0.2" x1="312.9068755562271" x2="312.9068755562271" y1="0" y2="30"/><line opacity="0.2" x1="352.5658182959709" x2="352.5658182959709" y1="0" y2="30"/><line opacity="0.2" x1="349.47668573875643" x2="349.47668573875643" y1="0" y2="30"/><line opacity="0.2" x1="376.3925820831097" x2="376.3925820831097" y1="0" y2="30"/><line opacity="0.2" x1="381.0368566448181" x2="381.0368566448181" y1="0" y2="30"/><line opacity="0.2" x1="302.3020497409344" x2="302.3020497409344" y1="0" y2="30"/><line opacity="0.2" x1="330.3933250086821" x2="330.3933250086821" y1="0" y2="30"/><line opacity="0.2" x1="314.056792880112" x2="314.056792880112" y1="0" y2="30"/><line opacity="0.2" x1="318.6045926030602" x2="318.6045926030602" y1="0" y2="30"/><line opacity="0.2" x1="213.6382278324179" x2="213.6382278324179" y1="0" y2="30"/><line opacity="0.2" x1="215.14286364345105" x2="215.14286364345105" y1="0" y2="30"/><line opacity="0.2" x1="282.40245196512245" x2="282.40245196512245" y1="0" y2="30"/><line opacity="0.2" x1="176.2343785524531" x2="176.2343785524531" y1="0" y2="30"/><line opacity="0.2" x1="198.186627340712" x2="198.186627340712" y1="0" y2="30"/><line opacity="0.2" x1="358.0352113731941" x2="358.0352113731941" y1="0" y2="30"/><line opacity="0.2" x1="235.47958791652573" x2="235.47958791652573" y1="0" y2="30"/><line opacity="0.2" x1="379.6650150118617" x2="379.6650150118617" y1="0" y2="30"/><line opacity="0.2" x1="372.0736952396801" x2="372.0736952396801" y1="0" y2="30"/><line opacity="0.2" x1="279.3260750428857" x2="279.3260750428857" y1="0" y2="30"/><line opacity="0.2" x1="240.0837055013092" x2="240.0837055013092" y1="0" y2="30"/><line opacity="0.2" x1="364.525703149202" x2="364.525703149202" y1="0" y2="30"/><line opacity="0.2" x1="526.2800384827343" x2="526.2800384827343" y1="0" y2="30"/><line opacity="0.2" x1="250.81345916389148" x2="250.81345916389148" y1="0" y2="30"/><line opacity="0.2" x1="347.8890303482033" x2="347.8890303482033" y1="0" y2="30"/><line opacity="0.2" x1="568.2330107750138" x2="568.2330107750138" y1="0" y2="30"/><line opacity="0.2" x1="487.35838094392165" x2="487.35838094392165" y1="0" y2="30"/><line opacity="0.2" x1="288.352282248264" x2="288.352282248264" y1="0" y2="30"/><line opacity="0.2" x1="334.78782427340246" x2="334.78782427340246" y1="0" y2="30"/><line opacity="0.2" x1="320.4921309136431" x2="320.4921309136431" y1="0" y2="30"/><line opacity="0.2" x1="292.12972515672953" x2="292.12972515672953" y1="0" y2="30"/><line opacity="0.2" x1="321.56389257309627" x2="321.56389257309627" y1="0" y2="30"/><line opacity="0.2" x1="394.5583089350911" x2="394.5583089350911" y1="0" y2="30"/><line opacity="0.2" x1="323.79663061904904" x2="323.79663061904904" y1="0" y2="30"/><line opacity="0.2" x1="253.3627665434166" x2="253.3627665434166" y1="0" y2="30"/><line opacity="0.2" x1="294.16200714592384" x2="294.16200714592384" y1="0" y2="30"/><line opacity="0.2" x1="214.11561952202626" x2="214.11561952202626" y1="0" y2="30"/><line opacity="0.2" x1="308.92097647513305" x2="308.92097647513305" y1="0" y2="30"/><line opacity="0.2" x1="239.50154151328198" x2="239.50154151328198" y1="0" y2="30"/><line opacity="0.2" x1="210.37473188111306" x2="210.37473188111306" y1="0" y2="30"/><line opacity="0.2" x1="360.7385038567146" x2="360.7385038567146" y1="0" y2="30"/><line opacity="0.2" x1="355.82003923860793" x2="355.82003923860793" y1="0" y2="30"/><line opacity="0.2" x1="352.34969363380657" x2="352.34969363380657" y1="0" y2="30"/><line opacity="0.2" x1="340.9658899902573" x2="340.9658899902573" y1="0" y2="30"/><line opacity="0.2" x1="334.0086607350432" x2="334.0086607350432" y1="0" y2="30"/><line opacity="0.2" x1="251.1975485429231" x2="251.1975485429231" y1="0" y2="30"/><line opacity="0.2" x1="470.89295774525056" x2="470.89295774525056" y1="0" y2="30"/><line opacity="0.2" x1="380.3068897873366" x2="380.3068897873366" y1="0" y2="30"/><line opacity="0.2" x1="372.3362751989086" x2="372.3362751989086" y1="0" y2="30"/><line opacity="0.2" x1="331.91708699613514" x2="331.91708699613514" y1="0" y2="30"/><line opacity="0.2" x1="395.9831393137809" x2="395.9831393137809" y1="0" y2="30"/><line opacity="0.2" x1="267.1717765644782" x2="267.1717765644782" y1="0" y2="30"/><line opacity="0.2" x1="396.0886312977441" x2="396.0886312977441" y1="0" y2="30"/><line opacity="0.2" x1="197.05954965459935" x2="197.05954965459935" y1="0" y2="30"/><line opacity="0.2" x1="493.12592835851024" x2="493.12592835851024" y1="0" y2="30"/><line opacity="0.2" x1="458.2584912447188" x2="458.2584912447188" y1="0" y2="30"/><line opacity="0.2" x1="326.89849289965656" x2="326.89849289965656" y1="0" y2="30"/><line opacity="0.2" x1="582.3768047624554" x2="582.3768047624554" y1="0" y2="30"/><line opacity="0.2" x1="356.1444886965685" x2="356.1444886965685" y1="0" y2="30"/><line opacity="0.2" x1="359.7243343742896" x2="359.7243343742896" y1="0" y2="30"/><line opacity="0.2" x1="205.72960069428316" x2="205.72960069428316" y1="0" y2="30"/><line opacity="0.2" x1="274.00318809317184" x2="274.00318809317184" y1="0" y2="30"/><line opacity="0.2" x1="398.8806493120812" x2="398.8806493120812" y1="0" y2="30"/><line opacity="0.2" x1="335.09008002181" x2="335.09008002181" y1="0" y2="30"/><line opacity="0.2" x1="322.3742198351749" x2="322.3742198351749" y1="0" y2="30"/><line opacity="0.2" x1="382.2568275804367" x2="382.2568275804367" y1="0" y2="30"/><line opacity="0.2" x1="372.0709327717956" x2="372.0709327717956" y1="0" y2="30"/><line opacity="0.2" x1="81.50446337581134" x2="81.50446337581134" y1="0" y2="30"/><line opacity="0.2" x1="416.8406945412374" x2="416.8406945412374" y1="0" y2="30"/><line opacity="0.2" x1="106.18240877846874" x2="106.18240877846874" y1="0" y2="30"/><line opacity="0.2" x1="273.2409217509795" x2="273.2409217509795" y1="0" y2="30"/><line opacity="0.2" x1="362.6348174299357" x2="362.6348174299357" y1="0" y2="30"/><line opacity="0.2" x1="269.85365604852586" x2="269.85365604852586" y1="0" y2="30"/><line opacity="0.2" x1="295.70050913827254" x2="295.70050913827254" y1="0" y2="30"/><line opacity="0.2" x1="302.05335028991476" x2="302.05335028991476" y1="0" y2="30"/><line opacity="0.2" x1="373.083310454893" x2="373.083310454893" y1="0" y2="30"/><line opacity="0.2" x1="515.7889012583481" x2="515.7889012583481" y1="0" y2="30"/><line opacity="0.2" x1="226.2872220186579" x2="226.2872220186579" y1="0" y2="30"/><line opacity="0.2" x1="130.59704230417572" x2="130.59704230417572" y1="0" y2="30"/><line opacity="0.2" x1="245.05042844742326" x2="245.05042844742326" y1="0" y2="30"/><line opacity="0.2" x1="202.47995840493178" x2="202.47995840493178" y1="0" y2="30"/><line opacity="0.2" x1="363.3515378253739" x2="363.3515378253739" y1="0" y2="30"/><line opacity="0.2" x1="222.57484974170572" x2="222.57484974170572" y1="0" y2="30"/><line opacity="0.2" x1="309.71819829147114" x2="309.71819829147114" y1="0" y2="30"/><line opacity="0.2" x1="239.19379217874516" x2="239.19379217874516" y1="0" y2="30"/><line opacity="0.2" x1="378.34606665112614" x2="378.34606665112614" y1="0" y2="30"/><line opacity="0.2" x1="285.99780399654827" x2="285.99780399654827" y1="0" y2="30"/><line opacity="0.2" x1="289.7643967558893" x2="289.7643967558893" y1="0" y2="30"/><line opacity="0.2" x1="257.8039133862887" x2="257.8039133862887" y1="0" y2="30"/><line opacity="0.2" x1="269.21283901714014" x2="269.21283901714014" y1="0" y2="30"/><line opacity="0.2" x1="414.5903914086425" x2="414.5903914086425" y1="0" y2="30"/><line opacity="0.2" x1="390.1912468463635" x2="390.1912468463635" y1="0" y2="30"/><line opacity="0.2" x1="281.4213346767236" x2="281.4213346767236" y1="0" y2="30"/><line opacity="0.2" x1="279.3552683789169" x2="279.3552683789169" y1="0" y2="30"/><line opacity="0.2" x1="365.1209715415062" x2="365.1209715415062" y1="0" y2="30"/><line opacity="0.2" x1="431.2360542935383" x2="431.2360542935383" y1="0" y2="30"/><line opacity="0.2" x1="171.86726118563996" x2="171.86726118563996" y1="0" y2="30"/><line opacity="0.2" x1="406.511631330606" x2="406.511631330606" y1="0" y2="30"/><line opacity="0.2" x1="386.0390125455488" x2="386.0390125455488" y1="0" y2="30"/><line opacity="0.2" x1="314.2452473491268" x2="314.2452473491268" y1="0" y2="30"/><line opacity="0.2" x1="306.72255983970285" x2="306.72255983970285" y1="0" y2="30"/><line opacity="0.2" x1="420.7157805152818" x2="420.7157805152818" y1="0" y2="30"/><line opacity="0.2" x1="286.3336483808194" x2="286.3336483808194" y1="0" y2="30"/><line opacity="0.2" x1="353.41462237420393" x2="353.41462237420393" y1="0" y2="30"/><line opacity="0.2" x1="363.7566034023098" x2="363.7566034023098" y1="0" y2="30"/><line opacity="0.2" x1="372.5846836556203" x2="372.5846836556203" y1="0" y2="30"/><line opacity="0.2" x1="227.2004397672662" x2="227.2004397672662" y1="0" y2="30"/><line opacity="0.2" x1="330.9854414997392" x2="330.9854414997392" y1="0" y2="30"/><line opacity="0.2" x1="383.4569747609813" x2="383.4569747609813" y1="0" y2="30"/><line opacity="0.2" x1="170.06739091693723" x2="170.06739091693723" y1="0" y2="30"/><line opacity="0.2" x1="383.33065686866655" x2="383.33065686866655" y1="0" y2="30"/><line opacity="0.2" x1="362.10876228565337" x2="362.10876228565337" y1="0" y2="30"/><line opacity="0.2" x1="227.02194885296197" x2="227.02194885296197" y1="0" y2="30"/><line opacity="0.2" x1="405.45962938560456" x2="405.45962938560456" y1="0" y2="30"/><line opacity="0.2" x1="198.1317021766228" x2="198.1317021766228" y1="0" y2="30"/><line opacity="0.2" x1="278.76428755247196" x2="278.76428755247196" y1="0" y2="30"/><line opacity="0.2" x1="318.3661678091683" x2="318.3661678091683" y1="0" y2="30"/><line opacity="0.2" x1="504.3299520533608" x2="504.3299520533608" y1="0" y2="30"/><line opacity="0.2" x1="429.6791672532102" x2="429.6791672532102" y1="0" y2="30"/><line opacity="0.2" x1="355.70690460468956" x2="355.70690460468956" y1="0" y2="30"/><line opacity="0.2" x1="474.21157937393656" x2="474.21157937393656" y1="0" y2="30"/><line opacity="0.2" x1="252.2462265303178" x2="252.2462265303178" y1="0" y2="30"/><line opacity="0.2" x1="208.10482240545244" x2="208.10482240545244" y1="0" y2="30"/><line opacity="0.2" x1="274.0894425895291" x2="274.0894425895291" y1="0" y2="30"/><line opacity="0.2" x1="412.40230516380456" x2="412.40230516380456" y1="0" y2="30"/><line opacity="0.2" x1="160.76722905252635" x2="160.76722905252635" y1="0" y2="30"/><line opacity="0.2" x1="469.4130105065309" x2="469.4130105065309" y1="0" y2="30"/><line opacity="0.2" x1="289.70976542003507" x2="289.70976542003507" y1="0" y2="30"/><line opacity="0.2" x1="348.9998559124136" x2="348.9998559124136" y1="0" y2="30"/><line opacity="0.2" x1="97.17614298435245" x2="97.17614298435245" y1="0" y2="30"/><line opacity="0.2" x1="209.99443490079864" x2="209.99443490079864" y1="0" y2="30"/><line opacity="0.2" x1="359.6982731285084" x2="359.6982731285084" y1="0" y2="30"/><line opacity="0.2" x1="313.56999119800685" x2="313.56999119800685" y1="0" y2="30"/><line opacity="0.2" x1="400.5556640944159" x2="400.5556640944159" y1="0" y2="30"/><line opacity="0.2" x1="279.90378005361765" x2="279.90378005361765" y1="0" y2="30"/><line opacity="0.2" x1="308.09428250899265" x2="308.09428250899265" y1="0" y2="30"/><line opacity="0.2" x1="245.4995987608123" x2="245.4995987608123" y1="0" y2="30"/><line opacity="0.2" x1="445.6347057934315" x2="445.6347057934315" y1="0" y2="30"/><line opacity="0.2" x1="331.29608084155814" x2="331.29608084155814" y1="0" y2="30"/><line opacity="0.2" x1="232.12849517346467" x2="232.12849517346467" y1="0" y2="30"/><line opacity="0.2" x1="181.70672753535183" x2="181.70672753535183" y1="0" y2="30"/><line opacity="0.2" x1="174.8588295049784" x2="174.8588295049784" y1="0" y2="30"/><line opacity="0.2" x1="361.30575551374386" x2="361.30575551374386" y1="0" y2="30"/><line opacity="0.2" x1="20" x2="20" y1="0" y2="30"/><line opacity="0.2" x1="381.8624615209725" x2="381.8624615209725" y1="0" y2="30"/><line opacity="0.2" x1="601.5928570148546" x2="601.5928570148546" y1="0" y2="30"/><line opacity="0.2" x1="245.14390330873127" x2="245.14390330873127" y1="0" y2="30"/><line opacity="0.2" x1="97.27877736293054" x2="97.27877736293054" y1="0" y2="30"/><line opacity="0.2" x1="297.6915333269498" x2="297.6915333269498" y1="0" y2="30"/><line opacity="0.2" x1="276.431861453328" x2="276.431861453328" y1="0" y2="30"/><line opacity="0.2" x1="226.06739036091335" x2="226.06739036091335" y1="0" y2="30"/><line opacity="0.2" x1="201.06204024468627" x2="201.06204024468627" y1="0" y2="30"/><line opacity="0.2" x1="151.21803704179968" x2="151.21803704179968" y1="0" y2="30"/><line opacity="0.2" x1="169.55700663237937" x2="169.55700663237937" y1="0" y2="30"/><line opacity="0.2" x1="347.3943888466709" x2="347.3943888466709" y1="0" y2="30"/><line opacity="0.2" x1="472.6203587589473" x2="472.6203587589473" y1="0" y2="30"/><line opacity="0.2" x1="405.0769195995689" x2="405.0769195995689" y1="0" y2="30"/><line opacity="0.2" x1="330.33764088736575" x2="330.33764088736575" y1="0" y2="30"/><line opacity="0.2" x1="315.8433821279628" x2="315.8433821279628" y1="0" y2="30"/><line opacity="0.2" x1="287.33896468126017" x2="287.33896468126017" y1="0" y2="30"/><line opacity="0.2" x1="268.72965178496065" x2="268.72965178496065" y1="0" y2="30"/><line opacity="0.2" x1="197.08177175346125" x2="197.08177175346125" y1="0" y2="30"/><line opacity="0.2" x1="207.7848572706655" x2="207.7848572706655" y1="0" y2="30"/><line opacity="0.2" x1="506.0360360864827" x2="506.0360360864827" y1="0" y2="30"/><line opacity="0.2" x1="222.0326194480026" x2="222.0326194480026" y1="0" y2="30"/><line opacity="0.2" x1="380.198864072049" x2="380.198864072049" y1="0" y2="30"/><line opacity="0.2" x1="333.02212336427385" x2="333.02212336427385" y1="0" y2="30"/><line opacity="0.2" x1="309.5637670586593" x2="309.5637670586593" y1="0" y2="30"/><line opacity="0.2" x1="579.0298445871003" x2="579.0298445871003" y1="0" y2="30"/><line opacity="0.2" x1="331.5699260242334" x2="331.5699260242334" y1="0" y2="30"/><line opacity="0.2" x1="345.08059760537395" x2="345.08059760537395" y1="0" y2="30"/><line opacity="0.2" x1="248.10614640758664" x2="248.10614640758664" y1="0" y2="30"/><line opacity="0.2" x1="372.36723954158197" x2="372.36723954158197" y1="0" y2="30"/><line opacity="0.2" x1="238.9224325000738" x2="238.9224325000738" y1="0" y2="30"/><line opacity="0.2" x1="270.07468425172647" x2="270.07468425172647" y1="0" y2="30"/><line opacity="0.2" x1="142.9151940047951" x2="142.9151940047951" y1="0" y2="30"/><line opacity="0.2" x1="354.2093446763009" x2="354.2093446763009" y1="0" y2="30"/><line opacity="0.2" x1="267.99199101338127" x2="267.99199101338127" y1="0" y2="30"/><line opacity="0.2" x1="365.6765075142658" x2="365.6765075142658" y1="0" y2="30"/><line opacity="0.2" x1="251.27928449378723" x2="251.27928449378723" y1="0" y2="30"/><line opacity="0.2" x1="303.2182708329868" x2="303.2182708329868" y1="0" y2="30"/><line opacity="0.2" x1="292.6650065431202" x2="292.6650065431202" y1="0" y2="30"/><line opacity="0.2" x1="426.04777197956366" x2="426.04777197956366" y1="0" y2="30"/><line opacity="0.2" x1="394.37853193887105" x2="394.37853193887105" y1="0" y2="30"/><line opacity="0.2" x1="273.81037534849395" x2="273.81037534849395" y1="0" y2="30"/><line opacity="0.2" x1="332.8741055486107" x2="332.8741055486107" y1="0" y2="30"/><line opacity="0.2" x1="121.69709270853238" x2="121.69709270853238" y1="0" y2="30"/><line opacity="0.2" x1="394.128828670924" x2="394.128828670924" y1="0" y2="30"/><line opacity="0.2" x1="281.8951401876752" x2="281.8951401876752" y1="0" y2="30"/><line opacity="0.2" x1="200.1740969266793" x2="200.1740969266793" y1="0" y2="30"/><line opacity="0.2" x1="272.4078795363235" x2="272.4078795363235" y1="0" y2="30"/><line opacity="0.2" x1="580.1491638607683" x2="580.1491638607683" y1="0" y2="30"/><line opacity="0.2" x1="418.2886671406095" x2="418.2886671406095" y1="0" y2="30"/><line opacity="0.2" x1="302.1483050148351" x2="302.1483050148351" y1="0" y2="30"/><line opacity="0.2" x1="333.79176616124533" x2="333.79176616124533" y1="0" y2="30"/><line opacity="0.2" x1="232.39136346789505" x2="232.39136346789505" y1="0" y2="30"/><line opacity="0.2" x1="315.65600539130463" x2="315.65600539130463" y1="0" y2="30"/><line opacity="0.2" x1="230.86347695841226" x2="230.86347695841226" y1="0" y2="30"/><line opacity="0.2" x1="479.9938670704622" x2="479.9938670704622" y1="0" y2="30"/><line opacity="0.2" x1="334.34028512679663" x2="334.34028512679663" y1="0" y2="30"/><line opacity="0.2" x1="281.31110749426665" x2="281.31110749426665" y1="0" y2="30"/><line opacity="0.2" x1="428.3585320345406" x2="428.3585320345406" y1="0" y2="30"/><line opacity="0.2" x1="323.58944702550315" x2="323.58944702550315" y1="0" y2="30"/><line opacity="0.2" x1="205.64969095307035" x2="205.64969095307035" y1="0" y2="30"/><line opacity="0.2" x1="231.47091973227012" x2="231.47091973227012" y1="0" y2="30"/><line opacity="0.2" x1="367.1982366920205" x2="367.1982366920205" y1="0" y2="30"/><line opacity="0.2" x1="430.7285297139177" x2="430.7285297139177" y1="0" y2="30"/><line opacity="0.2" x1="392.5169766739255" x2="392.5169766739255" y1="0" y2="30"/><line opacity="0.2" x1="230.5592533034503" x2="230.5592533034503" y1="0" y2="30"/><line opacity="0.2" x1="404.47515414716554" x2="404.47515414716554" y1="0" y2="30"/><line opacity="0.2" x1="430.0714407409262" x2="430.0714407409262" y1="0" y2="30"/><line opacity="0.2" x1="258.4690799682878" x2="258.4690799682878" y1="0" y2="30"/><line opacity="0.2" x1="253.4632145329783" x2="253.4632145329783" y1="0" y2="30"/><line opacity="0.2" x1="246.5350637726365" x2="246.5350637726365" y1="0" y2="30"/><line opacity="0.2" x1="355.63024269503336" x2="355.63024269503336" y1="0" y2="30"/><line opacity="0.2" x1="311.9373269421611" x2="311.9373269421611" y1="0" y2="30"/><line opacity="0.2" x1="429.589700494252" x2="429.589700494252" y1="0" y2="30"/><line opacity="0.2" x1="169.8291700665822" x2="169.8291700665822" y1="0" y2="30"/><line opacity="0.2" x1="160.4250515606205" x2="160.4250515606205" y1="0" y2="30"/><line opacity="0.2" x1="323.6344921551944" x2="323.6344921551944" y1="0" y2="30"/><line opacity="0.2" x1="153.53511178777256" x2="153.53511178777256" y1="0" y2="30"/><line opacity="0.2" x1="87.91209952111748" x2="87.91209952111748" y1="0" y2="30"/><line opacity="0.2" x1="387.27107219874364" x2="387.27107219874364" y1="0" y2="30"/><line opacity="0.2" x1="249.40421494211597" x2="249.40421494211597" y1="0" y2="30"/><line opacity="0.2" x1="285.759401501221" x2="285.759401501221" y1="0" y2="30"/><line opacity="0.2" x1="341.75992421947217" x2="341.75992421947217" y1="0" y2="30"/><line opacity="0.2" x1="213.80333524289324" x2="213.80333524289324" y1="0" y2="30"/><line opacity="0.2" x1="199.27392516939793" x2="199.27392516939793" y1="0" y2="30"/><line opacity="0.2" x1="311.5587809795095" x2="311.5587809795095" y1="0" y2="30"/><line opacity="0.2" x1="169.58696990059207" x2="169.58696990059207" y1="0" y2="30"/><line opacity="0.2" x1="466.3194849283275" x2="466.3194849283275" y1="0" y2="30"/><line opacity="0.2" x1="343.5093395464853" x2="343.5093395464853" y1="0" y2="30"/><line opacity="0.2" x1="301.51342711023085" x2="301.51342711023085" y1="0" y2="30"/><line opacity="0.2" x1="221.67955193738226" x2="221.67955193738226" y1="0" y2="30"/><line opacity="0.2" x1="356.8554309123701" x2="356.8554309123701" y1="0" y2="30"/><line opacity="0.2" x1="423.518693337533" x2="423.518693337533" y1="0" y2="30"/><line opacity="0.2" x1="269.3597640385626" x2="269.3597640385626" y1="0" y2="30"/><line opacity="0.2" x1="312.653751016567" x2="312.653751016567" y1="0" y2="30"/><line opacity="0.2" x1="502.7885878990426" x2="502.7885878990426" y1="0" y2="30"/><line opacity="0.2" x1="417.63235310091926" x2="417.63235310091926" y1="0" y2="30"/><line opacity="0.2" x1="262.83572656531794" x2="262.83572656531794" y1="0" y2="30"/><line opacity="0.2" x1="324.6380960625444" x2="324.6380960625444" y1="0" y2="30"/><line opacity="0.2" x1="272.93052007425786" x2="272.93052007425786" y1="0" y2="30"/><line opacity="0.2" x1="325.5904026666493" x2="325.5904026666493" y1="0" y2="30"/><line opacity="0.2" x1="174.59620412505944" x2="174.59620412505944" y1="0" y2="30"/><line opacity="0.2" x1="342.701895167175" x2="342.701895167175" y1="0" y2="30"/><line opacity="0.2" x1="390.3698254995619" x2="390.3698254995619" y1="0" y2="30"/><line opacity="0.2" x1="290.9226070270819" x2="290.9226070270819" y1="0" y2="30"/><line opacity="0.2" x1="259.29301027129077" x2="259.29301027129077" y1="0" y2="30"/><line opacity="0.2" x1="495.3186429810661" x2="495.3186429810661" y1="0" y2="30"/><line opacity="0.2" x1="342.83380766804055" x2="342.83380766804055" y1="0" y2="30"/><line opacity="0.2" x1="137.0215051415635" x2="137.0215051415635" y1="0" y2="30"/><line opacity="0.2" x1="250.78025168256477" x2="250.78025168256477" y1="0" y2="30"/><line opacity="0.2" x1="328.8144594315181" x2="328.8144594315181" y1="0" y2="30"/><line opacity="0.2" x1="326.39696791434505" x2="326.39696791434505" y1="0" y2="30"/><line opacity="0.2" x1="358.05221241572156" x2="358.05221241572156" y1="0" y2="30"/><line opacity="0.2" x1="355.77296515276583" x2="355.77296515276583" y1="0" y2="30"/><line opacity="0.2" x1="475.34310097892035" x2="475.34310097892035" y1="0" y2="30"/><line opacity="0.2" x1="343.742923287252" x2="343.742923287252" y1="0" y2="30"/><line opacity="0.2" x1="165.84175194701962" x2="165.84175194701962" y1="0" y2="30"/><line opacity="0.2" x1="316.96776104756793" x2="316.96776104756793" y1="0" y2="30"/><line opacity="0.2" x1="386.1211089910361" x2="386.1211089910361" y1="0" y2="30"/><line opacity="0.2" x1="447.80072498510214" x2="447.80072498510214" y1="0" y2="30"/><line opacity="0.2" x1="368.57206521001444" x2="368.57206521001444" y1="0" y2="30"/><line opacity="0.2" x1="311.30345522394373" x2="311.30345522394373" y1="0" y2="30"/><line opacity="0.2" x1="210.56808240032998" x2="210.56808240032998" y1="0" y2="30"/><line opacity="0.2" x1="304.1891569792373" x2="304.1891569792373" y1="0" y2="30"/><line opacity="0.2" x1="328.24815239766394" x2="328.24815239766394" y1="0" y2="30"/><line opacity="0.2" x1="395.202054232013" x2="395.202054232013" y1="0" y2="30"/><line opacity="0.2" x1="196.3898436751325" x2="196.3898436751325" y1="0" y2="30"/><line opacity="0.2" x1="172.3450602281433" x2="172.3450602281433" y1="0" y2="30"/><line opacity="0.2" x1="273.4939602352001" x2="273.4939602352001" y1="0" y2="30"/><line opacity="0.2" x1="458.00071067025493" x2="458.00071067025493" y1="0" y2="30"/><line opacity="0.2" x1="236.05123774165602" x2="236.05123774165602" y1="0" y2="30"/><line opacity="0.2" x1="185.37092825302653" x2="185.37092825302653" y1="0" y2="30"/><line opacity="0.2" x1="424.5933028864738" x2="424.5933028864738" y1="0" y2="30"/><line opacity="0.2" x1="465.61608492835563" x2="465.61608492835563" y1="0" y2="30"/><line opacity="0.2" x1="445.9699337317164" x2="445.9699337317164" y1="0" y2="30"/><line opacity="0.2" x1="355.88719628768325" x2="355.88719628768325" y1="0" y2="30"/><line opacity="0.2" x1="370.10109806171266" x2="370.10109806171266" y1="0" y2="30"/><line opacity="0.2" x1="525.7661278931087" x2="525.7661278931087" y1="0" y2="30"/><line opacity="0.2" x1="97.89314907431137" x2="97.89314907431137" y1="0" y2="30"/><line opacity="0.2" x1="371.7725321216268" x2="371.7725321216268" y1="0" y2="30"/><line opacity="0.2" x1="434.79387042968455" x2="434.79387042968455" y1="0" y2="30"/><line opacity="0.2" x1="322.2366568873138" x2="322.2366568873138" y1="0" y2="30"/><line opacity="0.2" x1="415.67731570613563" x2="415.67731570613563" y1="0" y2="30"/><line opacity="0.2" x1="287.8567117214176" x2="287.8567117214176" y1="0" y2="30"/><line opacity="0.2" x1="220.56676713736692" x2="220.56676713736692" y1="0" y2="30"/><line opacity="0.2" x1="202.53643828476893" x2="202.53643828476893" y1="0" y2="30"/><line opacity="0.2" x1="117.38753333136833" x2="117.38753333136833" y1="0" y2="30"/><line opacity="0.2" x1="224.3743622499753" x2="224.3743622499753" y1="0" y2="30"/><line opacity="0.2" x1="543.8173207643702" x2="543.8173207643702" y1="0" y2="30"/><line opacity="0.2" x1="85.3947917347927" x2="85.3947917347927" y1="0" y2="30"/><line opacity="0.2" x1="451.21635035738245" x2="451.21635035738245" y1="0" y2="30"/><line opacity="0.2" x1="401.5766353732233" x2="401.5766353732233" y1="0" y2="30"/><line opacity="0.2" x1="300.41448572269394" x2="300.41448572269394" y1="0" y2="30"/><line opacity="0.2" x1="377.03048054987653" x2="377.03048054987653" y1="0" y2="30"/><line opacity="0.2" x1="559.8359037876986" x2="559.8359037876986" y1="0" y2="30"/><line opacity="0.2" x1="447.7534774245826" x2="447.7534774245826" y1="0" y2="30"/><line opacity="0.2" x1="342.2602505878798" x2="342.2602505878798" y1="0" y2="30"/><line opacity="0.2" x1="195.00553977690493" x2="195.00553977690493" y1="0" y2="30"/><line opacity="0.2" x1="288.7671143837956" x2="288.7671143837956" y1="0" y2="30"/><line opacity="0.2" x1="251.7659896466807" x2="251.7659896466807" y1="0" y2="30"/><line opacity="0.2" x1="132.21642681686868" x2="132.21642681686868" y1="0" y2="30"/><line opacity="0.2" x1="214.09069592115853" x2="214.09069592115853" y1="0" y2="30"/><line opacity="0.2" x1="441.9454528530127" x2="441.9454528530127" y1="0" y2="30"/><line opacity="0.2" x1="356.3789770997331" x2="356.3789770997331" y1="0" y2="30"/><line opacity="0.2" x1="368.8887066562977" x2="368.8887066562977" y1="0" y2="30"/><line opacity="0.2" x1="173.97778833984648" x2="173.97778833984648" y1="0" y2="30"/><line opacity="0.2" x1="350.5567521355437" x2="350.5567521355437" y1="0" y2="30"/><line opacity="0.2" x1="235.66423789565394" x2="235.66423789565394" y1="0" y2="30"/><line opacity="0.2" x1="248.93893812406284" x2="248.93893812406284" y1="0" y2="30"/><line opacity="0.2" x1="342.6679081789573" x2="342.6679081789573" y1="0" y2="30"/><line opacity="0.2" x1="313.10995524081744" x2="313.10995524081744" y1="0" y2="30"/><line opacity="0.2" x1="164.06491020121248" x2="164.06491020121248" y1="0" y2="30"/><line opacity="0.2" x1="230.62248628782754" x2="230.62248628782754" y1="0" y2="30"/><line opacity="0.2" x1="306.28836640690884" x2="306.28836640690884" y1="0" y2="30"/><line opacity="0.2" x1="266.35995534927423" x2="266.35995534927423" y1="0" y2="30"/><line opacity="0.2" x1="402.43333435845705" x2="402.43333435845705" y1="0" y2="30"/><line opacity="0.2" x1="325.525120813263" x2="325.525120813263" y1="0" y2="30"/><line opacity="0.2" x1="221.2701920036845" x2="221.2701920036845" y1="0" y2="30"/><line opacity="0.2" x1="361.6441349466737" x2="361.6441349466737" y1="0" y2="30"/><line opacity="0.2" x1="123.16688696589642" x2="123.16688696589642" y1="0" y2="30"/><line opacity="0.2" x1="191.4222969778741" x2="191.4222969778741" y1="0" y2="30"/><line opacity="0.2" x1="421.91084411114497" x2="421.91084411114497" y1="0" y2="30"/><line opacity="0.2" x1="166.5829302856835" x2="166.5829302856835" y1="0" y2="30"/><line opacity="0.2" x1="380.6196047837097" x2="380.6196047837097" y1="0" y2="30"/><line opacity="0.2" x1="343.24491413623855" x2="343.24491413623855" y1="0" y2="30"/><line opacity="0.2" x1="457.88101060606795" x2="457.88101060606795" y1="0" y2="30"/><line opacity="0.2" x1="325.6005742176638" x2="325.6005742176638" y1="0" y2="30"/><line opacity="0.2" x1="265.4898728698551" x2="265.4898728698551" y1="0" y2="30"/><line opacity="0.2" x1="244.92157968199712" x2="244.92157968199712" y1="0" y2="30"/><line opacity="0.2" x1="246.05608429981967" x2="246.05608429981967" y1="0" y2="30"/><line opacity="0.2" x1="323.09097654507826" x2="323.09097654507826" y1="0" y2="30"/><line opacity="0.2" x1="349.69192422726024" x2="349.69192422726024" y1="0" y2="30"/><line opacity="0.2" x1="329.0050251166172" x2="329.0050251166172" y1="0" y2="30"/><line opacity="0.2" x1="311.3610866536153" x2="311.3610866536153" y1="0" y2="30"/><line opacity="0.2" x1="343.49779437508755" x2="343.49779437508755" y1="0" y2="30"/><line opacity="0.2" x1="441.42766012833135" x2="441.42766012833135" y1="0" y2="30"/><line opacity="0.2" x1="193.0950362543881" x2="193.0950362543881" y1="0" y2="30"/><line opacity="0.2" x1="320.2446324788054" x2="320.2446324788054" y1="0" y2="30"/><line opacity="0.2" x1="363.68245881276715" x2="363.68245881276715" y1="0" y2="30"/><line opacity="0.2" x1="423.9899114032712" x2="423.9899114032712" y1="0" y2="30"/><line opacity="0.2" x1="140.11324431202473" x2="140.11324431202473" y1="0" y2="30"/><line opacity="0.2" x1="455.9761128369731" x2="455.9761128369731" y1="0" y2="30"/><line opacity="0.2" x1="239.11213185109153" x2="239.11213185109153" y1="0" y2="30"/><line opacity="0.2" x1="406.36685312701206" x2="406.36685312701206" y1="0" y2="30"/><line opacity="0.2" x1="112.56491448932559" x2="112.56491448932559" y1="0" y2="30"/><line opacity="0.2" x1="303.5096831893898" x2="303.5096831893898" y1="0" y2="30"/><line opacity="0.2" x1="285.46501659447733" x2="285.46501659447733" y1="0" y2="30"/><line opacity="0.2" x1="485.205241158183" x2="485.205241158183" y1="0" y2="30"/><line opacity="0.2" x1="151.79941621654157" x2="151.79941621654157" y1="0" y2="30"/><line opacity="0.2" x1="337.66628452409003" x2="337.66628452409003" y1="0" y2="30"/><line opacity="0.2" x1="171.45934438568628" x2="171.45934438568628" y1="0" y2="30"/><line opacity="0.2" x1="353.25886794285367" x2="353.25886794285367" y1="0" y2="30"/><line opacity="0.2" x1="398.25502853976496" x2="398.25502853976496" y1="0" y2="30"/><line opacity="0.2" x1="330.9761020214967" x2="330.9761020214967" y1="0" y2="30"/><line opacity="0.2" x1="366.7104354706987" x2="366.7104354706987" y1="0" y2="30"/><line opacity="0.2" x1="332.1846184920877" x2="332.1846184920877" y1="0" y2="30"/><line opacity="0.2" x1="332.42533550190655" x2="332.42533550190655" y1="0" y2="30"/><line opacity="0.2" x1="439.3954521648531" x2="439.3954521648531" y1="0" y2="30"/><line opacity="0.2" x1="467.0932722324255" x2="467.0932722324255" y1="0" y2="30"/><line opacity="0.2" x1="246.89608096972768" x2="246.89608096972768" y1="0" y2="30"/><line opacity="0.2" x1="143.4054885204353" x2="143.4054885204353" y1="0" y2="30"/><line opacity="0.2" x1="378.7296153273927" x2="378.7296153273927" y1="0" y2="30"/><line opacity="0.2" x1="262.1997596573027" x2="262.1997596573027" y1="0" y2="30"/><line opacity="0.2" x1="392.03713884161436" x2="392.03713884161436" y1="0" y2="30"/><line opacity="0.2" x1="325.81448476823897" x2="325.81448476823897" y1="0" y2="30"/><line opacity="0.2" x1="118.70417542997507" x2="118.70417542997507" y1="0" y2="30"/><line opacity="0.2" x1="292.16359163917133" x2="292.16359163917133" y1="0" y2="30"/><line opacity="0.2" x1="201.5723906900475" x2="201.5723906900475" y1="0" y2="30"/><line opacity="0.2" x1="379.77368724530294" x2="379.77368724530294" y1="0" y2="30"/><line opacity="0.2" x1="168.9772570949815" x2="168.9772570949815" y1="0" y2="30"/><line opacity="0.2" x1="110.0216257698483" x2="110.0216257698483" y1="0" y2="30"/><line opacity="0.2" x1="319.94420464626376" x2="319.94420464626376" y1="0" y2="30"/><line opacity="0.2" x1="164.03711285490067" x2="164.03711285490067" y1="0" y2="30"/><line opacity="0.2" x1="496.8526532663888" x2="496.8526532663888" y1="0" y2="30"/><line opacity="0.2" x1="283.8836043693548" x2="283.8836043693548" y1="0" y2="30"/><line opacity="0.2" x1="453.3966208408062" x2="453.3966208408062" y1="0" y2="30"/><line opacity="0.2" x1="177.59317142897925" x2="177.59317142897925" y1="0" y2="30"/><line opacity="0.2" x1="531.8437092529443" x2="531.8437092529443" y1="0" y2="30"/><line opacity="0.2" x1="249.36501376593344" x2="249.36501376593344" y1="0" y2="30"/><line opacity="0.2" x1="332.7849292802385" x2="332.7849292802385" y1="0" y2="30"/><line opacity="0.2" x1="411.6546352421012" x2="411.6546352421012" y1="0" y2="30"/><line opacity="0.2" x1="329.2980100763495" x2="329.2980100763495" y1="0" y2="30"/><line opacity="0.2" x1="525.3562419880644" x2="525.3562419880644" y1="0" y2="30"/><line opacity="0.2" x1="225.85217234027942" x2="225.85217234027942" y1="0" y2="30"/><line opacity="0.2" x1="484.84600707342486" x2="484.84600707342486" y1="0" y2="30"/><line opacity="0.2" x1="213.24518045676425" x2="213.24518045676425" y1="0" y2="30"/><line opacity="0.2" x1="214.59077669524038" x2="214.59077669524038" y1="0" y2="30"/><line opacity="0.2" x1="313.9549995596733" x2="313.9549995596733" y1="0" y2="30"/><line opacity="0.2" x1="240.23750215263595" x2="240.23750215263595" y1="0" y2="30"/><line opacity="0.2" x1="266.7137211973071" x2="266.7137211973071" y1="0" y2="30"/><line opacity="0.2" x1="307.5564412764219" x2="307.5564412764219" y1="0" y2="30"/><line opacity="0.2" x1="383.3019879456437" x2="383.3019879456437" y1="0" y2="30"/><line opacity="0.2" x1="86.67745371524906" x2="86.67745371524906" y1="0" y2="30"/><line opacity="0.2" x1="345.4590469068477" x2="345.4590469068477" y1="0" y2="30"/><line opacity="0.2" x1="181.17684135468525" x2="181.17684135468525" y1="0" y2="30"/><line opacity="0.2" x1="328.45792599511356" x2="328.45792599511356" y1="0" y2="30"/><line opacity="0.2" x1="450.89390593091156" x2="450.89390593091156" y1="0" y2="30"/><line opacity="0.2" x1="171.07476591864125" x2="171.07476591864125" y1="0" y2="30"/><line opacity="0.2" x1="313.68489316172185" x2="313.68489316172185" y1="0" y2="30"/><line opacity="0.2" x1="134.15576181726567" x2="134.15576181726567" y1="0" y2="30"/><line opacity="0.2" x1="333.75884180429233" x2="333.75884180429233" y1="0" y2="30"/><line opacity="0.2" x1="446.8936906186152" x2="446.8936906186152" y1="0" y2="30"/><line opacity="0.2" x1="378.66554157652945" x2="378.66554157652945" y1="0" y2="30"/><line opacity="0.2" x1="294.98508913532135" x2="294.98508913532135" y1="0" y2="30"/><line opacity="0.2" x1="194.88420039065363" x2="194.88420039065363" y1="0" y2="30"/><line opacity="0.2" x1="144.23386561195255" x2="144.23386561195255" y1="0" y2="30"/><line opacity="0.2" x1="541.8874675621289" x2="541.8874675621289" y1="0" y2="30"/><line opacity="0.2" x1="244.75389061710774" x2="244.75389061710774" y1="0" y2="30"/><line opacity="0.2" x1="341.92992423098167" x2="341.92992423098167" y1="0" y2="30"/><line opacity="0.2" x1="276.7279317418018" x2="276.7279317418018" y1="0" y2="30"/><line opacity="0.2" x1="284.3632962181403" x2="284.3632962181403" y1="0" y2="30"/><line opacity="0.2" x1="204.62537972538303" x2="204.62537972538303" y1="0" y2="30"/><line opacity="0.2" x1="336.8525567015571" x2="336.8525567015571" y1="0" y2="30"/><line opacity="0.2" x1="152.2684993496858" x2="152.2684993496858" y1="0" y2="30"/><line opacity="0.2" x1="185.36652144788607" x2="185.36652144788607" y1="0" y2="30"/><line opacity="0.2" x1="349.24316107131676" x2="349.24316107131676" y1="0" y2="30"/><line opacity="0.2" x1="312.36907224263234" x2="312.36907224263234" y1="0" y2="30"/><line opacity="0.2" x1="369.1660406892474" x2="369.1660406892474" y1="0" y2="30"/><line opacity="0.2" x1="257.0227807938665" x2="257.0227807938665" y1="0" y2="30"/><line opacity="0.2" x1="403.40361953106526" x2="403.40361953106526" y1="0" y2="30"/><line opacity="0.2" x1="348.6001927846212" x2="348.6001927846212" y1="0" y2="30"/><line opacity="0.2" x1="397.3895349896541" x2="397.3895349896541" y1="0" y2="30"/><line opacity="0.2" x1="464.16212726356605" x2="464.16212726356605" y1="0" y2="30"/><line opacity="0.2" x1="154.6591115972508" x2="154.6591115972508" y1="0" y2="30"/><line opacity="0.2" x1="312.39105526942313" x2="312.39105526942313" y1="0" y2="30"/><line opacity="0.2" x1="200.9460728150837" x2="200.9460728150837" y1="0" y2="30"/><line opacity="0.2" x1="414.56033367506984" x2="414.56033367506984" y1="0" y2="30"/><line opacity="0.2" x1="373.87995946539985" x2="373.87995946539985" y1="0" y2="30"/><line opacity="0.2" x1="224.43732705622702" x2="224.43732705622702" y1="0" y2="30"/><line opacity="0.2" x1="346.4964964658766" x2="346.4964964658766" y1="0" y2="30"/><line opacity="0.2" x1="233.44073810053732" x2="233.44073810053732" y1="0" y2="30"/><line opacity="0.2" x1="344.9799419839861" x2="344.9799419839861" y1="0" y2="30"/><line opacity="0.2" x1="271.30486788782025" x2="271.30486788782025" y1="0" y2="30"/><line opacity="0.2" x1="207.43228236267518" x2="207.43228236267518" y1="0" y2="30"/><line opacity="0.2" x1="444.20356762199077" x2="444.20356762199077" y1="0" y2="30"/><line opacity="0.2" x1="265.9643639461285" x2="265.9643639461285" y1="0" y2="30"/><line opacity="0.2" x1="334.0116481470197" x2="334.0116481470197" y1="0" y2="30"/><line opacity="0.2" x1="330.35794625014523" x2="330.35794625014523" y1="0" y2="30"/><line opacity="0.2" x1="324.1995593805533" x2="324.1995593805533" y1="0" y2="30"/><line opacity="0.2" x1="222.38965711969823" x2="222.38965711969823" y1="0" y2="30"/><line opacity="0.2" x1="373.21225384567055" x2="373.21225384567055" y1="0" y2="30"/><line opacity="0.2" x1="243.39632005267842" x2="243.39632005267842" y1="0" y2="30"/><line opacity="0.2" x1="102.31280261772889" x2="102.31280261772889" y1="0" y2="30"/><line opacity="0.2" x1="327.01132814610423" x2="327.01132814610423" y1="0" y2="30"/><line opacity="0.2" x1="543.7123681817552" x2="543.7123681817552" y1="0" y2="30"/><line opacity="0.2" x1="482.09176676286427" x2="482.09176676286427" y1="0" y2="30"/><line opacity="0.2" x1="359.09534061523857" x2="359.09534061523857" y1="0" y2="30"/><line opacity="0.2" x1="218.0499236770021" x2="218.0499236770021" y1="0" y2="30"/><line opacity="0.2" x1="264.20048822190006" x2="264.20048822190006" y1="0" y2="30"/><line opacity="0.2" x1="277.981875258365" x2="277.981875258365" y1="0" y2="30"/><line opacity="0.2" x1="320.25158649314636" x2="320.25158649314636" y1="0" y2="30"/><line opacity="0.2" x1="253.5145857150983" x2="253.5145857150983" y1="0" y2="30"/><line opacity="0.2" x1="349.6164586722417" x2="349.6164586722417" y1="0" y2="30"/><line opacity="0.2" x1="447.3172156771845" x2="447.3172156771845" y1="0" y2="30"/><line opacity="0.2" x1="248.15335399643425" x2="248.15335399643425" y1="0" y2="30"/><line opacity="0.2" x1="137.86205679607863" x2="137.86205679607863" y1="0" y2="30"/><line opacity="0.2" x1="352.70663472768024" x2="352.70663472768024" y1="0" y2="30"/><line opacity="0.2" x1="264.79107430197394" x2="264.79107430197394" y1="0" y2="30"/><line opacity="0.2" x1="425.8369853664332" x2="425.8369853664332" y1="0" y2="30"/><line opacity="0.2" x1="472.6074266554309" x2="472.6074266554309" y1="0" y2="30"/><line opacity="0.2" x1="522.6623960683933" x2="522.6623960683933" y1="0" y2="30"/><line opacity="0.2" x1="456.5872296492111" x2="456.5872296492111" y1="0" y2="30"/><line opacity="0.2" x1="423.099273287232" x2="423.099273287232" y1="0" y2="30"/><line opacity="0.2" x1="358.043311972939" x2="358.043311972939" y1="0" y2="30"/><line opacity="0.2" x1="328.2460194400707" x2="328.2460194400707" y1="0" y2="30"/><line opacity="0.2" x1="335.0060700319853" x2="335.0060700319853" y1="0" y2="30"/><line opacity="0.2" x1="410.4099954166639" x2="410.4099954166639" y1="0" y2="30"/><line opacity="0.2" x1="252.5117171959655" x2="252.5117171959655" y1="0" y2="30"/><line opacity="0.2" x1="154.95792099901828" x2="154.95792099901828" y1="0" y2="30"/><line opacity="0.2" x1="245.3637160555946" x2="245.3637160555946" y1="0" y2="30"/><line opacity="0.2" x1="358.445585919534" x2="358.445585919534" y1="0" y2="30"/><line opacity="0.2" x1="430.6423301153629" x2="430.6423301153629" y1="0" y2="30"/><line opacity="0.2" x1="206.8713891787107" x2="206.8713891787107" y1="0" y2="30"/><line opacity="0.2" x1="390.8856873936749" x2="390.8856873936749" y1="0" y2="30"/><line opacity="0.2" x1="201.21721116861067" x2="201.21721116861067" y1="0" y2="30"/><line opacity="0.2" x1="564.0822590347059" x2="564.0822590347059" y1="0" y2="30"/><line opacity="0.2" x1="366.1502401385252" x2="366.1502401385252" y1="0" y2="30"/><line opacity="0.2" x1="235.23171434687671" x2="235.23171434687671" y1="0" y2="30"/><line opacity="0.2" x1="334.603426759724" x2="334.603426759724" y1="0" y2="30"/><line opacity="0.2" x1="367.40997342271703" x2="367.40997342271703" y1="0" y2="30"/><line opacity="0.2" x1="344.6573475218787" x2="344.6573475218787" y1="0" y2="30"/><line opacity="0.2" x1="324.68875364183117" x2="324.68875364183117" y1="0" y2="30"/><line opacity="0.2" x1="207.50044048597496" x2="207.50044048597496" y1="0" y2="30"/><line opacity="0.2" x1="200.62079941332345" x2="200.62079941332345" y1="0" y2="30"/><line opacity="0.2" x1="430.0063077948098" x2="430.0063077948098" y1="0" y2="30"/><line opacity="0.2" x1="417.3760574125595" x2="417.3760574125595" y1="0" y2="30"/><line opacity="0.2" x1="285.5157966437654" x2="285.5157966437654" y1="0" y2="30"/><line opacity="0.2" x1="428.55084130776623" x2="428.55084130776623" y1="0" y2="30"/><line opacity="0.2" x1="323.0228564054628" x2="323.0228564054628" y1="0" y2="30"/><line opacity="0.2" x1="409.4081846337935" x2="409.4081846337935" y1="0" y2="30"/><line opacity="0.2" x1="334.09283710561914" x2="334.09283710561914" y1="0" y2="30"/><line opacity="0.2" x1="374.36136982305067" x2="374.36136982305067" y1="0" y2="30"/><line opacity="0.2" x1="400.1766175122767" x2="400.1766175122767" y1="0" y2="30"/><line opacity="0.2" x1="238.2205556772617" x2="238.2205556772617" y1="0" y2="30"/><line opacity="0.2" x1="127.88019351986468" x2="127.88019351986468" y1="0" y2="30"/><line opacity="0.2" x1="376.9010837072336" x2="376.9010837072336" y1="0" y2="30"/><line opacity="0.2" x1="226.25140914607877" x2="226.25140914607877" y1="0" y2="30"/><line opacity="0.2" x1="198.03463764999765" x2="198.03463764999765" y1="0" y2="30"/><line opacity="0.2" x1="440.540433145522" x2="440.540433145522" y1="0" y2="30"/><line opacity="0.2" x1="412.37413678249584" x2="412.37413678249584" y1="0" y2="30"/><line opacity="0.2" x1="301.13491477679486" x2="301.13491477679486" y1="0" y2="30"/><line opacity="0.2" x1="217.7057281348786" x2="217.7057281348786" y1="0" y2="30"/><line opacity="0.2" x1="354.44463646447355" x2="354.44463646447355" y1="0" y2="30"/><line opacity="0.2" x1="401.7677240755494" x2="401.7677240755494" y1="0" y2="30"/><line opacity="0.2" x1="273.74179662693706" x2="273.74179662693706" y1="0" y2="30"/><line opacity="0.2" x1="229.6278109556396" x2="229.6278109556396" y1="0" y2="30"/><line opacity="0.2" x1="377.7853377335617" x2="377.7853377335617" y1="0" y2="30"/><line opacity="0.2" x1="170.0649618737117" x2="170.0649618737117" y1="0" y2="30"/><line opacity="0.2" x1="327.7392880777847" x2="327.7392880777847" y1="0" y2="30"/><line opacity="0.2" x1="402.7249900537978" x2="402.7249900537978" y1="0" y2="30"/><line opacity="0.2" x1="360.45931481066896" x2="360.45931481066896" y1="0" y2="30"/><line opacity="0.2" x1="279.3567758090545" x2="279.3567758090545" y1="0" y2="30"/><line opacity="0.2" x1="407.97739756837626" x2="407.97739756837626" y1="0" y2="30"/><line opacity="0.2" x1="418.59552728570395" x2="418.59552728570395" y1="0" y2="30"/><line opacity="0.2" x1="361.924345069103" x2="361.924345069103" y1="0" y2="30"/><line opacity="0.2" x1="294.48027090138436" x2="294.48027090138436" y1="0" y2="30"/><line opacity="0.2" x1="448.0718384839283" x2="448.0718384839283" y1="0" y2="30"/><line opacity="0.2" x1="196.70609678021475" x2="196.70609678021475" y1="0" y2="30"/><line opacity="0.2" x1="259.66951502486916" x2="259.66951502486916" y1="0" y2="30"/><line opacity="0.2" x1="352.6318495251279" x2="352.6318495251279" y1="0" y2="30"/><line opacity="0.2" x1="330.34353679037383" x2="330.34353679037383" y1="0" y2="30"/><line opacity="0.2" x1="288.8878790900793" x2="288.8878790900793" y1="0" y2="30"/><line opacity="0.2" x1="300.7300868266325" x2="300.7300868266325" y1="0" y2="30"/><line opacity="0.2" x1="352.24433579747324" x2="352.24433579747324" y1="0" y2="30"/><line opacity="0.2" x1="343.4188733458341" x2="343.4188733458341" y1="0" y2="30"/><line opacity="0.2" x1="291.0325788791666" x2="291.0325788791666" y1="0" y2="30"/><line opacity="0.2" x1="229.3181154621433" x2="229.3181154621433" y1="0" y2="30"/><line opacity="0.2" x1="104.62410246104739" x2="104.62410246104739" y1="0" y2="30"/><line opacity="0.2" x1="287.3961023785741" x2="287.3961023785741" y1="0" y2="30"/><line opacity="0.2" x1="259.33400801708274" x2="259.33400801708274" y1="0" y2="30"/><line opacity="0.2" x1="287.45939643470086" x2="287.45939643470086" y1="0" y2="30"/><line opacity="0.2" x1="367.090299725868" x2="367.090299725868" y1="0" y2="30"/><line opacity="0.2" x1="363.15504337567154" x2="363.15504337567154" y1="0" y2="30"/><line opacity="0.2" x1="262.26909802737464" x2="262.26909802737464" y1="0" y2="30"/><line opacity="0.2" x1="381.98325246382154" x2="381.98325246382154" y1="0" y2="30"/><line opacity="0.2" x1="252.46891669826243" x2="252.46891669826243" y1="0" y2="30"/><line opacity="0.2" x1="157.76191235636207" x2="157.76191235636207" y1="0" y2="30"/><line opacity="0.2" x1="269.09594833088005" x2="269.09594833088005" y1="0" y2="30"/><line opacity="0.2" x1="325.09685142899343" x2="325.09685142899343" y1="0" y2="30"/><line opacity="0.2" x1="283.33813585349145" x2="283.33813585349145" y1="0" y2="30"/><line opacity="0.2" x1="346.48627655530277" x2="346.48627655530277" y1="0" y2="30"/><line opacity="0.2" x1="326.4108128657027" x2="326.4108128657027" y1="0" y2="30"/><line opacity="0.2" x1="375.1986488591468" x2="375.1986488591468" y1="0" y2="30"/><line opacity="0.2" x1="284.9779581989707" x2="284.9779581989707" y1="0" y2="30"/><line opacity="0.2" x1="301.3178439169307" x2="301.3178439169307" y1="0" y2="30"/><line opacity="0.2" x1="257.05909794257315" x2="257.05909794257315" y1="0" y2="30"/><line opacity="0.2" x1="275.6899637704385" x2="275.6899637704385" y1="0" y2="30"/><line opacity="0.2" x1="374.2451353442" x2="374.2451353442" y1="0" y2="30"/><line opacity="0.2" x1="440.8736849951681" x2="440.8736849951681" y1="0" y2="30"/><line opacity="0.2" x1="273.042634256534" x2="273.042634256534" y1="0" y2="30"/><line opacity="0.2" x1="620" x2="620" y1="0" y2="30"/><line opacity="0.2" x1="277.3326146425018" x2="277.3326146425018" y1="0" y2="30"/><line opacity="0.2" x1="207.85592790635866" x2="207.85592790635866" y1="0" y2="30"/><line opacity="0.2" x1="374.4835516252041" x2="374.4835516252041" y1="0" y2="30"/><line opacity="0.2" x1="253.84404340683156" x2="253.84404340683156" y1="0" y2="30"/><line opacity="0.2" x1="339.27208426393514" x2="339.27208426393514" y1="0" y2="30"/><line opacity="0.2" x1="340.15627542394117" x2="340.15627542394117" y1="0" y2="30"/><line opacity="0.2" x1="312.6269617299232" x2="312.6269617299232" y1="0" y2="30"/><line opacity="0.2" x1="255.56461553634836" x2="255.56461553634836" y1="0" y2="30"/><line opacity="0.2" x1="358.3676702066788" x2="358.3676702066788" y1="0" y2="30"/><line opacity="0.2" x1="411.4879687339615" x2="411.4879687339615" y1="0" y2="30"/><line opacity="0.2" x1="153.28478054553597" x2="153.28478054553597" y1="0" y2="30"/><line opacity="0.2" x1="303.193814979743" x2="303.193814979743" y1="0" y2="30"/><line opacity="0.2" x1="239.12530955121778" x2="239.12530955121778" y1="0" y2="30"/><line opacity="0.2" x1="411.61357615016794" x2="411.61357615016794" y1="0" y2="30"/><line opacity="0.2" x1="420.2943192403737" x2="420.2943192403737" y1="0" y2="30"/><line opacity="0.2" x1="222.08554171390776" x2="222.08554171390776" y1="0" y2="30"/><line opacity="0.2" x1="334.9481515915814" x2="334.9481515915814" y1="0" y2="30"/><line opacity="0.2" x1="251.81668391335498" x2="251.81668391335498" y1="0" y2="30"/><line opacity="0.2" x1="315.94712546004945" x2="315.94712546004945" y1="0" y2="30"/><line opacity="0.2" x1="408.5342672091985" x2="408.5342672091985" y1="0" y2="30"/><line opacity="0.2" x1="185.2841536868247" x2="185.2841536868247" y1="0" y2="30"/><line opacity="0.2" x1="331.2162671394309" x2="331.2162671394309" y1="0" y2="30"/><line opacity="0.2" x1="173.9832572560934" x2="173.9832572560934" y1="0" y2="30"/><line opacity="0.2" x1="334.4729596106149" x2="334.4729596106149" y1="0" y2="30"/><line opacity="0.2" x1="460.0180816416442" x2="460.0180816416442" y1="0" y2="30"/></g></svg>