<svg xmlns="http://www.w3.org/2000/svg" xmlns:xlink="http://www.w3.org/1999/xlink" class="plot-d6a7b5" fill="currentColor" font-family="system-ui, sans-serif" font-size="10" text-anchor="middle" width="640" height="400" viewBox="0 0 640 400" style="color: black; background-color: white;"><style>.plot-d6a7b5 {
  display: block;
  background: white;
  height: auto;
  height: intrinsic;
  max-width: 100%;
}
.plot-d6a7b5 text,
.plot-d6a7b5 tspan {
  white-space: pre;
}</style><g aria-label="y-axis tick" fill="none" stroke="currentColor"><path transform="translate(40,360.21413940711085)" d="M0,0L-6,0"/><path transform="translate(40,329.7950074202398)" d="M0,0L-6,0"/><path transform="translate(40,299.3758754333688)" d="M0,0L-6,0"/><path transform="translate(40,268.95674344649774)" d="M0,0L-6,0"/><path transform="translate(40,238.53761145962665)" d="M0,0L-6,0"/><path transform="translate(40,208.11847947275555)" d="M0,0L-6,0"/><path transform="translate(40,177.6993474858845)" d="M0,0L-6,0"/><path transform="translate(40,147.28021549901345)" d="M0,0L-6,0"/><path transform="translate(40,116.86108351214239)" d="M0,0L-6,0"/><path transform="translate(40,86.44195152527132)" d="M0,0L-6,0"/><path transform="translate(40,56.02281953840024)" d="M0,0L-6,0"/><path transform="translate(40,25.603687551529205)" d="M0,0L-6,0"/></g><g aria-label="y-axis tick label" text-anchor="end" font-variant="tabular-nums" transform="translate(-9,0)"><text y="0.32em" transform="translate(40,360.21413940711085)">−8</text><text y="0.32em" transform="translate(40,329.7950074202398)">−7</text><text y="0.32em" transform="translate(40,299.3758754333688)">−6</text><text y="0.32em" transform="translate(40,268.95674344649774)">−5</text><text y="0.32em" transform="translate(40,238.53761145962665)">−4</text><text y="0.32em" transform="translate(40,208.11847947275555)">−3</text><text y="0.32em" transform="translate(40,177.6993474858845)">−2</text><text y="0.32em" transform="translate(40,147.28021549901345)">−1</text><text y="0.32em" transform="translate(40,116.86108351214239)">0</text><text y="0.32em" transform="translate(40,86.44195152527132)">1</text><text y="0.32em" transform="translate(40,56.02281953840024)">2</text><text y="0.32em" transform="translate(40,25.603687551529205)">3</text></g><g aria-label="rule" stroke="steelblue"><line x1="40" x2="639.5" y1="116.86108351214239" y2="116.86108351214239"/></g><g aria-label="line" fill="none" stroke="currentColor" stroke-width="1.5" stroke-linejoin="round" stroke-linecap="round"><path d="M40,86.305L46.056,60.775L52.111,59.448L58.167,20L64.222,35.981L70.278,55.397L76.333,101.346L82.389,142.439L88.444,135.91L94.5,131.145L100.556,126.746L106.611,123.59L112.667,86.838L118.722,57.412L124.778,48.006L130.833,83.334L136.889,157.542L142.944,168.876L149,152.752L155.056,99.417L161.111,51.992L167.167,88.524L173.222,34.736L179.278,57.255L185.333,111.709L191.389,171.484L197.444,150.84L203.5,116.274L209.556,156.724L215.611,114.837L221.667,127.342L227.722,96.793L233.778,156.226L239.833,186.218L245.889,140.027L251.944,111.786L258,127.67L264.056,140.187L270.111,189.626L276.167,166.199L282.222,197.233L288.278,190.195L294.333,179.012L300.389,160.94L306.444,128.303L312.5,127.886L318.556,165.443L324.611,128.493L330.667,135.365L336.722,140.598L342.778,175.736L348.833,173.035L354.889,164.051L360.944,133.024L367,141.911L373.056,140.35L379.111,134.362L385.167,106.736L391.222,91.463L397.278,107.938L403.333,98.71L409.389,117.855L415.444,87.503L421.5,101.151L427.556,149.747L433.611,173.504L439.667,147.438L445.722,186.584L451.778,194.472L457.833,183.025L463.889,191.504L469.944,178.866L476,186.883L482.056,211.367L488.111,225.005L494.167,172.513L500.222,223.035L506.278,219.862L512.333,232.275L518.389,264.776L524.444,295.208L530.5,332.157L536.556,270.157L542.611,299.326L548.667,299.39L554.722,330.424L560.778,335.807L566.833,380L572.889,335.402L578.944,353.64L585,354.618L591.056,346.328L597.111,362.133L603.167,342.56L609.222,288.752L615.278,297.782L621.333,292.374L627.389,274.944L633.444,252.908L639.5,359.432"/></g></svg>