<svg xmlns="http://www.w3.org/2000/svg" xmlns:xlink="http://www.w3.org/1999/xlink" class="plot-e478576455152" fill="currentColor" font-family="system-ui, sans-serif" font-size="10" text-anchor="middle" width="640" height="400" viewBox="0 0 640 400" style="color: black;"><style>
        .plot-e478576455152 {
          display: block;
          background: white;
          height: auto;
          height: intrinsic;
          max-width: 100%;
        }
        .plot-e478576455152 text,
        .plot-e478576455152 tspan {
          white-space: pre;
        }
      </style><g aria-label="y-axis tick" fill="none" stroke="currentColor" transform="translate(0,0.5)"><path transform="translate(40,358.17441322138825)" d="M0,0L-6,0"/><path transform="translate(40,331.3461576868646)" d="M0,0L-6,0"/><path transform="translate(40,304.5179021523409)" d="M0,0L-6,0"/><path transform="translate(40,277.68964661781735)" d="M0,0L-6,0"/><path transform="translate(40,250.86139108329377)" d="M0,0L-6,0"/><path transform="translate(40,224.03313554877013)" d="M0,0L-6,0"/><path transform="translate(40,197.20488001424653)" d="M0,0L-6,0"/><path transform="translate(40,170.3766244797229)" d="M0,0L-6,0"/><path transform="translate(40,143.5483689451993)" d="M0,0L-6,0"/><path transform="translate(40,116.72011341067568)" d="M0,0L-6,0"/><path transform="translate(40,89.89185787615203)" d="M0,0L-6,0"/><path transform="translate(40,63.06360234162843)" d="M0,0L-6,0"/><path transform="translate(40,36.2353468071048)" d="M0,0L-6,0"/></g><g aria-label="y-axis tick label" text-anchor="end" font-variant="tabular-nums" transform="translate(-8.5,0.5)"><text y="0.32em" transform="translate(40,358.17441322138825)">−3</text><text y="0.32em" transform="translate(40,331.3461576868646)">−2</text><text y="0.32em" transform="translate(40,304.5179021523409)">−1</text><text y="0.32em" transform="translate(40,277.68964661781735)">0</text><text y="0.32em" transform="translate(40,250.86139108329377)">1</text><text y="0.32em" transform="translate(40,224.03313554877013)">2</text><text y="0.32em" transform="translate(40,197.20488001424653)">3</text><text y="0.32em" transform="translate(40,170.3766244797229)">4</text><text y="0.32em" transform="translate(40,143.5483689451993)">5</text><text y="0.32em" transform="translate(40,116.72011341067568)">6</text><text y="0.32em" transform="translate(40,89.89185787615203)">7</text><text y="0.32em" transform="translate(40,63.06360234162843)">8</text><text y="0.32em" transform="translate(40,36.2353468071048)">9</text></g><g aria-label="rule" stroke="steelblue" transform="translate(0,0.5)"><line x1="40" x2="639" y1="277.68964661781735" y2="277.68964661781735"/></g><g aria-label="line" fill="none" stroke="currentColor" stroke-width="1.5" stroke-linejoin="round" stroke-linecap="round" transform="translate(0.5,0.5)"><path d="M40,307.268L46.051,307.099L52.101,274.645L58.152,297.349L64.202,310.738L70.253,322.121L76.303,308.383L82.354,258.551L88.404,239.564L94.455,263.137L100.505,251.554L106.556,237.361L112.606,296.217L118.657,312.662L124.707,364.21L130.758,336.22L136.808,351.993L142.859,342.295L148.909,319.063L154.96,320.709L161.01,344.723L167.061,374.106L173.111,357.839L179.162,362.591L185.212,368.769L191.263,373.144L197.313,367.033L203.364,356.767L209.414,380L215.465,352.434L221.515,317.547L227.566,339.221L233.616,310.668L239.667,303.669L245.717,281.008L251.768,274.764L257.818,259.277L263.869,265.907L269.919,252.966L275.97,217.738L282.02,206.256L288.071,217.767L294.121,242.023L300.172,181.429L306.222,236.703L312.273,236.039L318.323,221.855L324.374,277.974L330.424,284.904L336.475,258.609L342.525,240.889L348.576,246.771L354.626,261.751L360.677,243.119L366.727,272.485L372.778,249.433L378.828,203.102L384.879,146.238L390.929,157.253L396.98,101.043L403.03,68.142L409.081,63.308L415.131,47.099L421.182,83.913L427.232,66.533L433.283,104.698L439.333,112.597L445.384,144.986L451.434,135.46L457.485,79.305L463.535,63.738L469.586,46.14L475.636,72.074L481.687,72.917L487.737,33.372L493.788,62.022L499.838,98.032L505.889,110.985L511.939,96.767L517.99,69.347L524.04,49.635L530.091,20L536.141,29.607L542.192,64.923L548.242,69.935L554.293,69.264L560.343,105.317L566.394,119.687L572.444,79.898L578.495,98.982L584.545,150.679L590.596,138.005L596.646,161.334L602.697,132.412L608.747,81.722L614.798,33.875L620.848,44.39L626.899,26.276L632.949,65.845L639,78.389"/></g></svg>