<svg xmlns="http://www.w3.org/2000/svg" xmlns:xlink="http://www.w3.org/1999/xlink" class="plot-dc99a47e7cd15" fill="currentColor" font-family="system-ui, sans-serif" font-size="10" text-anchor="middle" width="640" height="400" viewBox="0 0 640 400" style="color: black;"><style>
        .plot-dc99a47e7cd15 {
          display: block;
          background: white;
          height: auto;
          height: intrinsic;
          max-width: 100%;
        }
        .plot-dc99a47e7cd15 text,
        .plot-dc99a47e7cd15 tspan {
          white-space: pre;
        }
      </style><g aria-label="y-axis tick" fill="none" stroke="currentColor" transform="translate(0,0.5)"><path transform="translate(40,379.23079050355034)" d="M0,0L-6,0"/><path transform="translate(40,337.03530641437925)" d="M0,0L-6,0"/><path transform="translate(40,294.8398223252081)" d="M0,0L-6,0"/><path transform="translate(40,252.64433823603704)" d="M0,0L-6,0"/><path transform="translate(40,210.44885414686593)" d="M0,0L-6,0"/><path transform="translate(40,168.25337005769487)" d="M0,0L-6,0"/><path transform="translate(40,126.05788596852373)" d="M0,0L-6,0"/><path transform="translate(40,83.86240187935266)" d="M0,0L-6,0"/><path transform="translate(40,41.66691779018154)" d="M0,0L-6,0"/></g><g aria-label="y-axis tick label" text-anchor="end" font-variant="tabular-nums" transform="translate(-8.5,0.5)"><text y="0.32em" transform="translate(40,379.23079050355034)">−4</text><text y="0.32em" transform="translate(40,337.03530641437925)">−3</text><text y="0.32em" transform="translate(40,294.8398223252081)">−2</text><text y="0.32em" transform="translate(40,252.64433823603704)">−1</text><text y="0.32em" transform="translate(40,210.44885414686593)">0</text><text y="0.32em" transform="translate(40,168.25337005769487)">1</text><text y="0.32em" transform="translate(40,126.05788596852373)">2</text><text y="0.32em" transform="translate(40,83.86240187935266)">3</text><text y="0.32em" transform="translate(40,41.66691779018154)">4</text></g><g aria-label="line" fill="none" stroke="currentColor" stroke-width="1.5" stroke-linejoin="round" stroke-linecap="round" transform="translate(0.5,0.5)"><path d="M40,187.432L46.051,164.932L52.101,190.165L58.152,215.292L64.202,232.215L70.253,242.177L76.303,289.378L82.354,272.593L88.404,254.913L94.455,281.517L100.505,239.594L106.556,271.423L112.606,349.3L118.657,323.605L124.707,318.934L130.758,315.266L136.808,308.435L142.859,288.482L148.909,292.262L154.96,296.356L161.01,285.061L167.061,196.4L173.111,230.169L179.162,286.235L185.212,272.696L191.263,273.553L197.313,219.332L203.364,219.47L209.414,239.519L215.465,242.433L221.515,153.729L227.566,103.197L233.616,113.835L239.667,134.057L245.717,143.866L251.768,107.224L257.818,78.692L263.869,142.367L269.919,106.767L275.97,53.259L282.02,82.274L288.071,131.453L294.121,139.676L300.172,153.857L306.222,179.99L312.273,192.728L318.323,235.593L324.374,264.511L330.424,295.992L336.475,323.083L342.525,322.8L348.576,359.384L354.626,380L360.677,338.046L366.727,321.394L372.778,308.803L378.828,288.998L384.879,259.049L390.929,240.441L396.98,259.504L403.03,239.768L409.081,215.43L415.131,175.859L421.182,74.869L427.232,135.912L433.283,71.489L439.333,64.935L445.384,115.572L451.434,104.21L457.485,20L463.535,34.874L469.586,69.046L475.636,98.345L481.687,114.911L487.737,132.96L493.788,141.098L499.838,189.219L505.889,194.635L511.939,208.377L517.99,211.262L524.04,296.525L530.091,270.321L536.141,271.231L542.192,251.8L548.242,230.247L554.293,157.683L560.343,95.824L566.394,66.85L572.444,38.658L578.495,54.358L584.545,134.794L590.596,68.327L596.646,90.299L602.697,126.438L608.747,124.006L614.798,119.273L620.848,64.637L626.899,102.436L632.949,86.4L639,109.359"/></g></svg>