<svg xmlns="http://www.w3.org/2000/svg" xmlns:xlink="http://www.w3.org/1999/xlink" class="plot-d6a7b5" fill="currentColor" font-family="system-ui, sans-serif" font-size="10" text-anchor="middle" width="640" height="60" viewBox="0 0 640 60" style="color: black; background-color: white;"><style>.plot-d6a7b5 {
  display: block;
  background: white;
  height: auto;
  height: intrinsic;
  max-width: 100%;
}
.plot-d6a7b5 text,
.plot-d6a7b5 tspan {
  white-space: pre;
}</style><g aria-label="x-axis tick" fill="none" stroke="currentColor"><path transform="translate(88.32223837881835,30)" d="M0,0L0,6"/><path transform="translate(185.00990978796167,30)" d="M0,0L0,6"/><path transform="translate(281.697581197105,30)" d="M0,0L0,6"/><path transform="translate(378.38525260624834,30)" d="M0,0L0,6"/><path transform="translate(475.0729240153917,30)" d="M0,0L0,6"/><path transform="translate(571.7605954245352,30)" d="M0,0L0,6"/></g><g aria-label="x-axis tick label" font-variant="tabular-nums" transform="translate(0,9)"><text y="0.71em" transform="translate(88.32223837881835,30)">−2</text><text y="0.71em" transform="translate(185.00990978796167,30)">−1</text><text y="0.71em" transform="translate(281.697581197105,30)">0</text><text y="0.71em" transform="translate(378.38525260624834,30)">1</text><text y="0.71em" transform="translate(475.0729240153917,30)">2</text><text y="0.71em" transform="translate(571.7605954245352,30)">3</text></g><g aria-label="tick" stroke="steelblue"><line opacity="0.2" x1="255.47088958465784" x2="255.47088958465784" y1="0.5" y2="30"/><line opacity="0.2" x1="305.42603397572935" x2="305.42603397572935" y1="0.5" y2="30"/><line opacity="0.2" x1="334.0647238190619" x2="334.0647238190619" y1="0.5" y2="30"/><line opacity="0.2" x1="212.03591628845103" x2="212.03591628845103" y1="0.5" y2="30"/><line opacity="0.2" x1="298.29589020741497" x2="298.29589020741497" y1="0.5" y2="30"/><line opacity="0.2" x1="245.5848941687501" x2="245.5848941687501" y1="0.5" y2="30"/><line opacity="0.2" x1="199.02235202082554" x2="199.02235202082554" y1="0.5" y2="30"/><line opacity="0.2" x1="240.85892856607393" x2="240.85892856607393" y1="0.5" y2="30"/><line opacity="0.2" x1="300.9648341819603" x2="300.9648341819603" y1="0.5" y2="30"/><line opacity="0.2" x1="316.8949826716775" x2="316.8949826716775" y1="0.5" y2="30"/><line opacity="0.2" x1="229.50524596308324" x2="229.50524596308324" y1="0.5" y2="30"/><line opacity="0.2" x1="297.55396414898513" x2="297.55396414898513" y1="0.5" y2="30"/><line opacity="0.2" x1="310.79303936661097" x2="310.79303936661097" y1="0.5" y2="30"/><line opacity="0.2" x1="338.3249987891443" x2="338.3249987891443" y1="0.5" y2="30"/><line opacity="0.2" x1="261.4102334995117" x2="261.4102334995117" y1="0.5" y2="30"/><line opacity="0.2" x1="241.56299007322457" x2="241.56299007322457" y1="0.5" y2="30"/><line opacity="0.2" x1="133.44109035209996" x2="133.44109035209996" y1="0.5" y2="30"/><line opacity="0.2" x1="298.7902771956176" x2="298.7902771956176" y1="0.5" y2="30"/><line opacity="0.2" x1="194.04273792434947" x2="194.04273792434947" y1="0.5" y2="30"/><line opacity="0.2" x1="323.1065749929887" x2="323.1065749929887" y1="0.5" y2="30"/><line opacity="0.2" x1="324.84278562716844" x2="324.84278562716844" y1="0.5" y2="30"/><line opacity="0.2" x1="188.25219974743774" x2="188.25219974743774" y1="0.5" y2="30"/><line opacity="0.2" x1="433.9895064927367" x2="433.9895064927367" y1="0.5" y2="30"/><line opacity="0.2" x1="262.90952135919974" x2="262.90952135919974" y1="0.5" y2="30"/><line opacity="0.2" x1="268.2176946648878" x2="268.2176946648878" y1="0.5" y2="30"/><line opacity="0.2" x1="199.32661391354225" x2="199.32661391354225" y1="0.5" y2="30"/><line opacity="0.2" x1="163.70275382779474" x2="163.70275382779474" y1="0.5" y2="30"/><line opacity="0.2" x1="360.96112551336705" x2="360.96112551336705" y1="0.5" y2="30"/><line opacity="0.2" x1="201.11822382270051" x2="201.11822382270051" y1="0.5" y2="30"/><line opacity="0.2" x1="168.78793185368932" x2="168.78793185368932" y1="0.5" y2="30"/><line opacity="0.2" x1="284.7373863975512" x2="284.7373863975512" y1="0.5" y2="30"/><line opacity="0.2" x1="300.6139395264177" x2="300.6139395264177" y1="0.5" y2="30"/><line opacity="0.2" x1="110.32578470301189" x2="110.32578470301189" y1="0.5" y2="30"/><line opacity="0.2" x1="433.43264295461404" x2="433.43264295461404" y1="0.5" y2="30"/><line opacity="0.2" x1="265.38253925223364" x2="265.38253925223364" y1="0.5" y2="30"/><line opacity="0.2" x1="268.33172292711265" x2="268.33172292711265" y1="0.5" y2="30"/><line opacity="0.2" x1="323.98140196711114" x2="323.98140196711114" y1="0.5" y2="30"/><line opacity="0.2" x1="339.14838847778714" x2="339.14838847778714" y1="0.5" y2="30"/><line opacity="0.2" x1="126.69400537129123" x2="126.69400537129123" y1="0.5" y2="30"/><line opacity="0.2" x1="182.25205423253263" x2="182.25205423253263" y1="0.5" y2="30"/><line opacity="0.2" x1="206.557131455355" x2="206.557131455355" y1="0.5" y2="30"/><line opacity="0.2" x1="358.2093782333196" x2="358.2093782333196" y1="0.5" y2="30"/><line opacity="0.2" x1="148.57112915858943" x2="148.57112915858943" y1="0.5" y2="30"/><line opacity="0.2" x1="169.41243196103505" x2="169.41243196103505" y1="0.5" y2="30"/><line opacity="0.2" x1="283.2381522056671" x2="283.2381522056671" y1="0.5" y2="30"/><line opacity="0.2" x1="167.68551179918387" x2="167.68551179918387" y1="0.5" y2="30"/><line opacity="0.2" x1="339.090250217472" x2="339.090250217472" y1="0.5" y2="30"/><line opacity="0.2" x1="235.38705795671842" x2="235.38705795671842" y1="0.5" y2="30"/><line opacity="0.2" x1="284.35977315882883" x2="284.35977315882883" y1="0.5" y2="30"/><line opacity="0.2" x1="207.58232342565344" x2="207.58232342565344" y1="0.5" y2="30"/><line opacity="0.2" x1="286.88265186015843" x2="286.88265186015843" y1="0.5" y2="30"/><line opacity="0.2" x1="329.19205349007365" x2="329.19205349007365" y1="0.5" y2="30"/><line opacity="0.2" x1="141.81520959983504" x2="141.81520959983504" y1="0.5" y2="30"/><line opacity="0.2" x1="312.19909360733794" x2="312.19909360733794" y1="0.5" y2="30"/><line opacity="0.2" x1="434.9285500751954" x2="434.9285500751954" y1="0.5" y2="30"/><line opacity="0.2" x1="273.1923881336821" x2="273.1923881336821" y1="0.5" y2="30"/><line opacity="0.2" x1="544.5411119992867" x2="544.5411119992867" y1="0.5" y2="30"/><line opacity="0.2" x1="275.45953428399247" x2="275.45953428399247" y1="0.5" y2="30"/><line opacity="0.2" x1="186.16333376756643" x2="186.16333376756643" y1="0.5" y2="30"/><line opacity="0.2" x1="356.92693536223425" x2="356.92693536223425" y1="0.5" y2="30"/><line opacity="0.2" x1="369.3470207826043" x2="369.3470207826043" y1="0.5" y2="30"/><line opacity="0.2" x1="231.73928320716098" x2="231.73928320716098" y1="0.5" y2="30"/><line opacity="0.2" x1="295.4841625615003" x2="295.4841625615003" y1="0.5" y2="30"/><line opacity="0.2" x1="340.1665622181774" x2="340.1665622181774" y1="0.5" y2="30"/><line opacity="0.2" x1="213.03811170865" x2="213.03811170865" y1="0.5" y2="30"/><line opacity="0.2" x1="218.25782581746031" x2="218.25782581746031" y1="0.5" y2="30"/><line opacity="0.2" x1="264.3699890260337" x2="264.3699890260337" y1="0.5" y2="30"/><line opacity="0.2" x1="482.8850443976567" x2="482.8850443976567" y1="0.5" y2="30"/><line opacity="0.2" x1="285.28904377321857" x2="285.28904377321857" y1="0.5" y2="30"/><line opacity="0.2" x1="437.8102532560453" x2="437.8102532560453" y1="0.5" y2="30"/><line opacity="0.2" x1="217.98625500616203" x2="217.98625500616203" y1="0.5" y2="30"/><line opacity="0.2" x1="233.60052320492287" x2="233.60052320492287" y1="0.5" y2="30"/><line opacity="0.2" x1="297.3090756999411" x2="297.3090756999411" y1="0.5" y2="30"/><line opacity="0.2" x1="291.11114659343616" x2="291.11114659343616" y1="0.5" y2="30"/><line opacity="0.2" x1="386.1609893555357" x2="386.1609893555357" y1="0.5" y2="30"/><line opacity="0.2" x1="229.58151626785858" x2="229.58151626785858" y1="0.5" y2="30"/><line opacity="0.2" x1="158.5077074701688" x2="158.5077074701688" y1="0.5" y2="30"/><line opacity="0.2" x1="202.97167978187522" x2="202.97167978187522" y1="0.5" y2="30"/><line opacity="0.2" x1="346.5678599529822" x2="346.5678599529822" y1="0.5" y2="30"/><line opacity="0.2" x1="253.81008272559404" x2="253.81008272559404" y1="0.5" y2="30"/><line opacity="0.2" x1="242.6276620260732" x2="242.6276620260732" y1="0.5" y2="30"/><line opacity="0.2" x1="293.2961550235582" x2="293.2961550235582" y1="0.5" y2="30"/><line opacity="0.2" x1="349.27598209092463" x2="349.27598209092463" y1="0.5" y2="30"/><line opacity="0.2" x1="357.5811207535918" x2="357.5811207535918" y1="0.5" y2="30"/><line opacity="0.2" x1="285.8670378389957" x2="285.8670378389957" y1="0.5" y2="30"/><line opacity="0.2" x1="261.6432058645557" x2="261.6432058645557" y1="0.5" y2="30"/><line opacity="0.2" x1="342.2388183845113" x2="342.2388183845113" y1="0.5" y2="30"/><line opacity="0.2" x1="337.92714645256024" x2="337.92714645256024" y1="0.5" y2="30"/><line opacity="0.2" x1="215.73404676484282" x2="215.73404676484282" y1="0.5" y2="30"/><line opacity="0.2" x1="354.81491694643546" x2="354.81491694643546" y1="0.5" y2="30"/><line opacity="0.2" x1="351.8243852269677" x2="351.8243852269677" y1="0.5" y2="30"/><line opacity="0.2" x1="181.83061656737596" x2="181.83061656737596" y1="0.5" y2="30"/><line opacity="0.2" x1="157.5590007362177" x2="157.5590007362177" y1="0.5" y2="30"/><line opacity="0.2" x1="129.1383665420488" x2="129.1383665420488" y1="0.5" y2="30"/><line opacity="0.2" x1="338.4012717380258" x2="338.4012717380258" y1="0.5" y2="30"/><line opacity="0.2" x1="461.0554458993944" x2="461.0554458993944" y1="0.5" y2="30"/><line opacity="0.2" x1="283.7346415290778" x2="283.7346415290778" y1="0.5" y2="30"/><line opacity="0.2" x1="227.1269301848688" x2="227.1269301848688" y1="0.5" y2="30"/><line opacity="0.2" x1="177.25313548063983" x2="177.25313548063983" y1="0.5" y2="30"/><line opacity="0.2" x1="234.4786152166791" x2="234.4786152166791" y1="0.5" y2="30"/><line opacity="0.2" x1="368.9128328123239" x2="368.9128328123239" y1="0.5" y2="30"/><line opacity="0.2" x1="304.2316163176363" x2="304.2316163176363" y1="0.5" y2="30"/><line opacity="0.2" x1="315.0624845051165" x2="315.0624845051165" y1="0.5" y2="30"/><line opacity="0.2" x1="313.63869201677113" x2="313.63869201677113" y1="0.5" y2="30"/><line opacity="0.2" x1="247.73203752513106" x2="247.73203752513106" y1="0.5" y2="30"/><line opacity="0.2" x1="334.8858285531178" x2="334.8858285531178" y1="0.5" y2="30"/><line opacity="0.2" x1="207.13066234509296" x2="207.13066234509296" y1="0.5" y2="30"/><line opacity="0.2" x1="414.7098801369144" x2="414.7098801369144" y1="0.5" y2="30"/><line opacity="0.2" x1="224.28911840649803" x2="224.28911840649803" y1="0.5" y2="30"/><line opacity="0.2" x1="351.5012178812815" x2="351.5012178812815" y1="0.5" y2="30"/><line opacity="0.2" x1="299.13879213954306" x2="299.13879213954306" y1="0.5" y2="30"/><line opacity="0.2" x1="218.8998142377926" x2="218.8998142377926" y1="0.5" y2="30"/><line opacity="0.2" x1="231.04922870179126" x2="231.04922870179126" y1="0.5" y2="30"/><line opacity="0.2" x1="448.1450078514042" x2="448.1450078514042" y1="0.5" y2="30"/><line opacity="0.2" x1="296.80549530853756" x2="296.80549530853756" y1="0.5" y2="30"/><line opacity="0.2" x1="295.6826900712217" x2="295.6826900712217" y1="0.5" y2="30"/><line opacity="0.2" x1="187.30351049191444" x2="187.30351049191444" y1="0.5" y2="30"/><line opacity="0.2" x1="267.8992664956045" x2="267.8992664956045" y1="0.5" y2="30"/><line opacity="0.2" x1="174.112945000579" x2="174.112945000579" y1="0.5" y2="30"/><line opacity="0.2" x1="560.9679303457842" x2="560.9679303457842" y1="0.5" y2="30"/><line opacity="0.2" x1="239.33653288680864" x2="239.33653288680864" y1="0.5" y2="30"/><line opacity="0.2" x1="176.42945393307247" x2="176.42945393307247" y1="0.5" y2="30"/><line opacity="0.2" x1="465.3038042778178" x2="465.3038042778178" y1="0.5" y2="30"/><line opacity="0.2" x1="289.45954584461174" x2="289.45954584461174" y1="0.5" y2="30"/><line opacity="0.2" x1="252.81119759109689" x2="252.81119759109689" y1="0.5" y2="30"/><line opacity="0.2" x1="318.41047877119075" x2="318.41047877119075" y1="0.5" y2="30"/><line opacity="0.2" x1="290.50818325134594" x2="290.50818325134594" y1="0.5" y2="30"/><line opacity="0.2" x1="256.46266511491916" x2="256.46266511491916" y1="0.5" y2="30"/><line opacity="0.2" x1="193.49019469999806" x2="193.49019469999806" y1="0.5" y2="30"/><line opacity="0.2" x1="218.49700692789364" x2="218.49700692789364" y1="0.5" y2="30"/><line opacity="0.2" x1="379.89684803307676" x2="379.89684803307676" y1="0.5" y2="30"/><line opacity="0.2" x1="224.31116429743395" x2="224.31116429743395" y1="0.5" y2="30"/><line opacity="0.2" x1="395.09560491020324" x2="395.09560491020324" y1="0.5" y2="30"/><line opacity="0.2" x1="216.9182262151927" x2="216.9182262151927" y1="0.5" y2="30"/><line opacity="0.2" x1="233.62508711649372" x2="233.62508711649372" y1="0.5" y2="30"/><line opacity="0.2" x1="470.08829486280047" x2="470.08829486280047" y1="0.5" y2="30"/><line opacity="0.2" x1="314.0517563776997" x2="314.0517563776997" y1="0.5" y2="30"/><line opacity="0.2" x1="353.1697510133065" x2="353.1697510133065" y1="0.5" y2="30"/><line opacity="0.2" x1="312.1325113416291" x2="312.1325113416291" y1="0.5" y2="30"/><line opacity="0.2" x1="227.22966653837094" x2="227.22966653837094" y1="0.5" y2="30"/><line opacity="0.2" x1="245.02731207861183" x2="245.02731207861183" y1="0.5" y2="30"/><line opacity="0.2" x1="301.65356332551687" x2="301.65356332551687" y1="0.5" y2="30"/><line opacity="0.2" x1="280.9594412419417" x2="280.9594412419417" y1="0.5" y2="30"/><line opacity="0.2" x1="173.14268853590295" x2="173.14268853590295" y1="0.5" y2="30"/><line opacity="0.2" x1="260.4625605500219" x2="260.4625605500219" y1="0.5" y2="30"/><line opacity="0.2" x1="339.9936460782298" x2="339.9936460782298" y1="0.5" y2="30"/><line opacity="0.2" x1="362.71830492567415" x2="362.71830492567415" y1="0.5" y2="30"/><line opacity="0.2" x1="407.61978515114913" x2="407.61978515114913" y1="0.5" y2="30"/><line opacity="0.2" x1="421.9133297072988" x2="421.9133297072988" y1="0.5" y2="30"/><line opacity="0.2" x1="194.47596725034057" x2="194.47596725034057" y1="0.5" y2="30"/><line opacity="0.2" x1="216.89684437628998" x2="216.89684437628998" y1="0.5" y2="30"/><line opacity="0.2" x1="101.23073197009165" x2="101.23073197009165" y1="0.5" y2="30"/><line opacity="0.2" x1="357.87805137596763" x2="357.87805137596763" y1="0.5" y2="30"/><line opacity="0.2" x1="282.1325205760373" x2="282.1325205760373" y1="0.5" y2="30"/><line opacity="0.2" x1="340.56452899808914" x2="340.56452899808914" y1="0.5" y2="30"/><line opacity="0.2" x1="377.5963067204684" x2="377.5963067204684" y1="0.5" y2="30"/><line opacity="0.2" x1="490.92878179156367" x2="490.92878179156367" y1="0.5" y2="30"/><line opacity="0.2" x1="226.84518720275207" x2="226.84518720275207" y1="0.5" y2="30"/><line opacity="0.2" x1="134.88011801389032" x2="134.88011801389032" y1="0.5" y2="30"/><line opacity="0.2" x1="507.54709213920586" x2="507.54709213920586" y1="0.5" y2="30"/><line opacity="0.2" x1="161.05407536563567" x2="161.05407536563567" y1="0.5" y2="30"/><line opacity="0.2" x1="345.91672099788445" x2="345.91672099788445" y1="0.5" y2="30"/><line opacity="0.2" x1="187.34993007281227" x2="187.34993007281227" y1="0.5" y2="30"/><line opacity="0.2" x1="529.8673669492748" x2="529.8673669492748" y1="0.5" y2="30"/><line opacity="0.2" x1="489.97839548797674" x2="489.97839548797674" y1="0.5" y2="30"/><line opacity="0.2" x1="258.5214208684013" x2="258.5214208684013" y1="0.5" y2="30"/><line opacity="0.2" x1="344.7782425455997" x2="344.7782425455997" y1="0.5" y2="30"/><line opacity="0.2" x1="275.4261131367057" x2="275.4261131367057" y1="0.5" y2="30"/><line opacity="0.2" x1="620" x2="620" y1="0.5" y2="30"/><line opacity="0.2" x1="215.16932619919146" x2="215.16932619919146" y1="0.5" y2="30"/><line opacity="0.2" x1="112.40635837692203" x2="112.40635837692203" y1="0.5" y2="30"/><line opacity="0.2" x1="252.48345526547436" x2="252.48345526547436" y1="0.5" y2="30"/><line opacity="0.2" x1="393.7087141673613" x2="393.7087141673613" y1="0.5" y2="30"/><line opacity="0.2" x1="276.7673331773576" x2="276.7673331773576" y1="0.5" y2="30"/><line opacity="0.2" x1="304.58102645964476" x2="304.58102645964476" y1="0.5" y2="30"/><line opacity="0.2" x1="424.9303139233762" x2="424.9303139233762" y1="0.5" y2="30"/><line opacity="0.2" x1="298.7159319710283" x2="298.7159319710283" y1="0.5" y2="30"/><line opacity="0.2" x1="335.6203762184137" x2="335.6203762184137" y1="0.5" y2="30"/><line opacity="0.2" x1="342.0526363125423" x2="342.0526363125423" y1="0.5" y2="30"/><line opacity="0.2" x1="357.27634678888154" x2="357.27634678888154" y1="0.5" y2="30"/><line opacity="0.2" x1="403.5087131794365" x2="403.5087131794365" y1="0.5" y2="30"/><line opacity="0.2" x1="346.5640329277319" x2="346.5640329277319" y1="0.5" y2="30"/><line opacity="0.2" x1="398.2893004528435" x2="398.2893004528435" y1="0.5" y2="30"/><line opacity="0.2" x1="296.035395501463" x2="296.035395501463" y1="0.5" y2="30"/><line opacity="0.2" x1="419.3117886398389" x2="419.3117886398389" y1="0.5" y2="30"/><line opacity="0.2" x1="160.4920248596769" x2="160.4920248596769" y1="0.5" y2="30"/><line opacity="0.2" x1="197.33378851484883" x2="197.33378851484883" y1="0.5" y2="30"/><line opacity="0.2" x1="211.18809372542563" x2="211.18809372542563" y1="0.5" y2="30"/><line opacity="0.2" x1="325.00871137754666" x2="325.00871137754666" y1="0.5" y2="30"/><line opacity="0.2" x1="200.06285529161232" x2="200.06285529161232" y1="0.5" y2="30"/><line opacity="0.2" x1="276.63583153831723" x2="276.63583153831723" y1="0.5" y2="30"/><line opacity="0.2" x1="455.945171081303" x2="455.945171081303" y1="0.5" y2="30"/><line opacity="0.2" x1="279.42001533019624" x2="279.42001533019624" y1="0.5" y2="30"/><line opacity="0.2" x1="117.75931456435295" x2="117.75931456435295" y1="0.5" y2="30"/><line opacity="0.2" x1="353.9411353218841" x2="353.9411353218841" y1="0.5" y2="30"/><line opacity="0.2" x1="271.9711618561915" x2="271.9711618561915" y1="0.5" y2="30"/><line opacity="0.2" x1="342.925282446506" x2="342.925282446506" y1="0.5" y2="30"/><line opacity="0.2" x1="142.20451219793443" x2="142.20451219793443" y1="0.5" y2="30"/><line opacity="0.2" x1="498.16289449746046" x2="498.16289449746046" y1="0.5" y2="30"/><line opacity="0.2" x1="396.9694124414201" x2="396.9694124414201" y1="0.5" y2="30"/><line opacity="0.2" x1="248.49375368023397" x2="248.49375368023397" y1="0.5" y2="30"/><line opacity="0.2" x1="207.89898406194163" x2="207.89898406194163" y1="0.5" y2="30"/><line opacity="0.2" x1="379.4381105335069" x2="379.4381105335069" y1="0.5" y2="30"/><line opacity="0.2" x1="384.7631385400562" x2="384.7631385400562" y1="0.5" y2="30"/><line opacity="0.2" x1="359.272703725316" x2="359.272703725316" y1="0.5" y2="30"/><line opacity="0.2" x1="410.3764495791959" x2="410.3764495791959" y1="0.5" y2="30"/><line opacity="0.2" x1="422.7740514318301" x2="422.7740514318301" y1="0.5" y2="30"/><line opacity="0.2" x1="266.6177044588259" x2="266.6177044588259" y1="0.5" y2="30"/><line opacity="0.2" x1="391.40717700253174" x2="391.40717700253174" y1="0.5" y2="30"/><line opacity="0.2" x1="347.81415613061523" x2="347.81415613061523" y1="0.5" y2="30"/><line opacity="0.2" x1="196.77984665396676" x2="196.77984665396676" y1="0.5" y2="30"/><line opacity="0.2" x1="358.4755426433728" x2="358.4755426433728" y1="0.5" y2="30"/><line opacity="0.2" x1="229.64905500277348" x2="229.64905500277348" y1="0.5" y2="30"/><line opacity="0.2" x1="457.04798196700153" x2="457.04798196700153" y1="0.5" y2="30"/><line opacity="0.2" x1="111.80187774909348" x2="111.80187774909348" y1="0.5" y2="30"/><line opacity="0.2" x1="195.87204227743723" x2="195.87204227743723" y1="0.5" y2="30"/><line opacity="0.2" x1="265.01388476124475" x2="265.01388476124475" y1="0.5" y2="30"/><line opacity="0.2" x1="221.66064181952208" x2="221.66064181952208" y1="0.5" y2="30"/><line opacity="0.2" x1="170.40382556390207" x2="170.40382556390207" y1="0.5" y2="30"/><line opacity="0.2" x1="262.22829996691695" x2="262.22829996691695" y1="0.5" y2="30"/><line opacity="0.2" x1="211.2381206204817" x2="211.2381206204817" y1="0.5" y2="30"/><line opacity="0.2" x1="510.1492652058788" x2="510.1492652058788" y1="0.5" y2="30"/><line opacity="0.2" x1="266.1376129794153" x2="266.1376129794153" y1="0.5" y2="30"/><line opacity="0.2" x1="99.011862690467" x2="99.011862690467" y1="0.5" y2="30"/><line opacity="0.2" x1="270.58574257788456" x2="270.58574257788456" y1="0.5" y2="30"/><line opacity="0.2" x1="374.45228417356316" x2="374.45228417356316" y1="0.5" y2="30"/><line opacity="0.2" x1="282.95766990223467" x2="282.95766990223467" y1="0.5" y2="30"/><line opacity="0.2" x1="197.43235683300628" x2="197.43235683300628" y1="0.5" y2="30"/><line opacity="0.2" x1="304.83925914278313" x2="304.83925914278313" y1="0.5" y2="30"/><line opacity="0.2" x1="232.9362675976243" x2="232.9362675976243" y1="0.5" y2="30"/><line opacity="0.2" x1="356.56939073229154" x2="356.56939073229154" y1="0.5" y2="30"/><line opacity="0.2" x1="242.59860293504065" x2="242.59860293504065" y1="0.5" y2="30"/><line opacity="0.2" x1="307.723684738651" x2="307.723684738651" y1="0.5" y2="30"/><line opacity="0.2" x1="382.4091328957506" x2="382.4091328957506" y1="0.5" y2="30"/><line opacity="0.2" x1="309.83266784772" x2="309.83266784772" y1="0.5" y2="30"/><line opacity="0.2" x1="35.26885423902336" x2="35.26885423902336" y1="0.5" y2="30"/><line opacity="0.2" x1="203.53654368259686" x2="203.53654368259686" y1="0.5" y2="30"/><line opacity="0.2" x1="47.26016689480657" x2="47.26016689480657" y1="0.5" y2="30"/><line opacity="0.2" x1="413.1083640627928" x2="413.1083640627928" y1="0.5" y2="30"/><line opacity="0.2" x1="212.13832175461684" x2="212.13832175461684" y1="0.5" y2="30"/><line opacity="0.2" x1="271.2218074629774" x2="271.2218074629774" y1="0.5" y2="30"/><line opacity="0.2" x1="300.48812313378977" x2="300.48812313378977" y1="0.5" y2="30"/><line opacity="0.2" x1="108.71816287214752" x2="108.71816287214752" y1="0.5" y2="30"/><line opacity="0.2" x1="442.5743970868551" x2="442.5743970868551" y1="0.5" y2="30"/><line opacity="0.2" x1="430.615890508803" x2="430.615890508803" y1="0.5" y2="30"/><line opacity="0.2" x1="335.0634674637608" x2="335.0634674637608" y1="0.5" y2="30"/><line opacity="0.2" x1="239.7885875974284" x2="239.7885875974284" y1="0.5" y2="30"/><line opacity="0.2" x1="244.46101133576656" x2="244.46101133576656" y1="0.5" y2="30"/><line opacity="0.2" x1="372.48561294297497" x2="372.48561294297497" y1="0.5" y2="30"/><line opacity="0.2" x1="376.4537624423913" x2="376.4537624423913" y1="0.5" y2="30"/><line opacity="0.2" x1="238.75091718626575" x2="238.75091718626575" y1="0.5" y2="30"/><line opacity="0.2" x1="246.56683889626638" x2="246.56683889626638" y1="0.5" y2="30"/><line opacity="0.2" x1="386.2567924505485" x2="386.2567924505485" y1="0.5" y2="30"/><line opacity="0.2" x1="290.8513164142991" x2="290.8513164142991" y1="0.5" y2="30"/><line opacity="0.2" x1="172.78678718528053" x2="172.78678718528053" y1="0.5" y2="30"/><line opacity="0.2" x1="282.2646424521648" x2="282.2646424521648" y1="0.5" y2="30"/><line opacity="0.2" x1="342.0079595550619" x2="342.0079595550619" y1="0.5" y2="30"/><line opacity="0.2" x1="221.8631518330241" x2="221.8631518330241" y1="0.5" y2="30"/><line opacity="0.2" x1="212.28230868182564" x2="212.28230868182564" y1="0.5" y2="30"/><line opacity="0.2" x1="198.66931536531763" x2="198.66931536531763" y1="0.5" y2="30"/><line opacity="0.2" x1="326.3590729001442" x2="326.3590729001442" y1="0.5" y2="30"/><line opacity="0.2" x1="347.81134972675943" x2="347.81134972675943" y1="0.5" y2="30"/><line opacity="0.2" x1="287.86823834593866" x2="287.86823834593866" y1="0.5" y2="30"/><line opacity="0.2" x1="449.20791826821556" x2="449.20791826821556" y1="0.5" y2="30"/><line opacity="0.2" x1="202.05793128517138" x2="202.05793128517138" y1="0.5" y2="30"/><line opacity="0.2" x1="206.43049633180178" x2="206.43049633180178" y1="0.5" y2="30"/><line opacity="0.2" x1="284.32779598538565" x2="284.32779598538565" y1="0.5" y2="30"/><line opacity="0.2" x1="198.47822766266145" x2="198.47822766266145" y1="0.5" y2="30"/><line opacity="0.2" x1="200.24856076463973" x2="200.24856076463973" y1="0.5" y2="30"/><line opacity="0.2" x1="433.321791030057" x2="433.321791030057" y1="0.5" y2="30"/><line opacity="0.2" x1="75.8925235589558" x2="75.8925235589558" y1="0.5" y2="30"/><line opacity="0.2" x1="386.41548045877727" x2="386.41548045877727" y1="0.5" y2="30"/><line opacity="0.2" x1="525.4714809723399" x2="525.4714809723399" y1="0.5" y2="30"/><line opacity="0.2" x1="344.16096222830663" x2="344.16096222830663" y1="0.5" y2="30"/><line opacity="0.2" x1="287.9792303194751" x2="287.9792303194751" y1="0.5" y2="30"/><line opacity="0.2" x1="368.15919184462894" x2="368.15919184462894" y1="0.5" y2="30"/><line opacity="0.2" x1="405.41181106500085" x2="405.41181106500085" y1="0.5" y2="30"/><line opacity="0.2" x1="305.7254978317857" x2="305.7254978317857" y1="0.5" y2="30"/><line opacity="0.2" x1="434.36291085158695" x2="434.36291085158695" y1="0.5" y2="30"/><line opacity="0.2" x1="287.44191119602465" x2="287.44191119602465" y1="0.5" y2="30"/><line opacity="0.2" x1="383.07230203085214" x2="383.07230203085214" y1="0.5" y2="30"/><line opacity="0.2" x1="303.83069334700355" x2="303.83069334700355" y1="0.5" y2="30"/><line opacity="0.2" x1="242.55285215798833" x2="242.55285215798833" y1="0.5" y2="30"/><line opacity="0.2" x1="323.31219457900863" x2="323.31219457900863" y1="0.5" y2="30"/><line opacity="0.2" x1="231.12082267320406" x2="231.12082267320406" y1="0.5" y2="30"/><line opacity="0.2" x1="316.1540757892161" x2="316.1540757892161" y1="0.5" y2="30"/><line opacity="0.2" x1="324.5368657524099" x2="324.5368657524099" y1="0.5" y2="30"/><line opacity="0.2" x1="208.23634180919893" x2="208.23634180919893" y1="0.5" y2="30"/><line opacity="0.2" x1="365.7812436640815" x2="365.7812436640815" y1="0.5" y2="30"/><line opacity="0.2" x1="248.40326393869682" x2="248.40326393869682" y1="0.5" y2="30"/><line opacity="0.2" x1="345.131138401202" x2="345.131138401202" y1="0.5" y2="30"/><line opacity="0.2" x1="504.00299410462094" x2="504.00299410462094" y1="0.5" y2="30"/><line opacity="0.2" x1="306.6828675826878" x2="306.6828675826878" y1="0.5" y2="30"/><line opacity="0.2" x1="188.08173046583906" x2="188.08173046583906" y1="0.5" y2="30"/><line opacity="0.2" x1="129.2830509238523" x2="129.2830509238523" y1="0.5" y2="30"/><line opacity="0.2" x1="379.49681498086466" x2="379.49681498086466" y1="0.5" y2="30"/><line opacity="0.2" x1="204.32373836656194" x2="204.32373836656194" y1="0.5" y2="30"/><line opacity="0.2" x1="364.41323010826335" x2="364.41323010826335" y1="0.5" y2="30"/><line opacity="0.2" x1="304.18545877043573" x2="304.18545877043573" y1="0.5" y2="30"/><line opacity="0.2" x1="272.6439955638267" x2="272.6439955638267" y1="0.5" y2="30"/><line opacity="0.2" x1="198.33644884155166" x2="198.33644884155166" y1="0.5" y2="30"/><line opacity="0.2" x1="186.12717139874957" x2="186.12717139874957" y1="0.5" y2="30"/><line opacity="0.2" x1="246.44232648839161" x2="246.44232648839161" y1="0.5" y2="30"/><line opacity="0.2" x1="381.8935020168616" x2="381.8935020168616" y1="0.5" y2="30"/><line opacity="0.2" x1="256.73200470597226" x2="256.73200470597226" y1="0.5" y2="30"/><line opacity="0.2" x1="341.96453973187204" x2="341.96453973187204" y1="0.5" y2="30"/><line opacity="0.2" x1="352.97390024985725" x2="352.97390024985725" y1="0.5" y2="30"/><line opacity="0.2" x1="233.16888658623972" x2="233.16888658623972" y1="0.5" y2="30"/><line opacity="0.2" x1="326.16646981543744" x2="326.16646981543744" y1="0.5" y2="30"/><line opacity="0.2" x1="105.71671944012863" x2="105.71671944012863" y1="0.5" y2="30"/><line opacity="0.2" x1="149.00204668636894" x2="149.00204668636894" y1="0.5" y2="30"/><line opacity="0.2" x1="405.36641408553095" x2="405.36641408553095" y1="0.5" y2="30"/><line opacity="0.2" x1="383.7986016979643" x2="383.7986016979643" y1="0.5" y2="30"/><line opacity="0.2" x1="390.3859194445953" x2="390.3859194445953" y1="0.5" y2="30"/><line opacity="0.2" x1="174.39561172773952" x2="174.39561172773952" y1="0.5" y2="30"/><line opacity="0.2" x1="267.7746485533837" x2="267.7746485533837" y1="0.5" y2="30"/><line opacity="0.2" x1="428.5684811972315" x2="428.5684811972315" y1="0.5" y2="30"/><line opacity="0.2" x1="378.62546070744054" x2="378.62546070744054" y1="0.5" y2="30"/><line opacity="0.2" x1="384.03309738200505" x2="384.03309738200505" y1="0.5" y2="30"/><line opacity="0.2" x1="399.8079441365067" x2="399.8079441365067" y1="0.5" y2="30"/><line opacity="0.2" x1="471.14967234789185" x2="471.14967234789185" y1="0.5" y2="30"/><line opacity="0.2" x1="198.9558296391967" x2="198.9558296391967" y1="0.5" y2="30"/><line opacity="0.2" x1="164.8514809456222" x2="164.8514809456222" y1="0.5" y2="30"/><line opacity="0.2" x1="309.53883629408347" x2="309.53883629408347" y1="0.5" y2="30"/><line opacity="0.2" x1="235.93980774624586" x2="235.93980774624586" y1="0.5" y2="30"/><line opacity="0.2" x1="200.8012181922805" x2="200.8012181922805" y1="0.5" y2="30"/><line opacity="0.2" x1="237.78786864915895" x2="237.78786864915895" y1="0.5" y2="30"/><line opacity="0.2" x1="249.7301793746445" x2="249.7301793746445" y1="0.5" y2="30"/><line opacity="0.2" x1="280.38849926358233" x2="280.38849926358233" y1="0.5" y2="30"/><line opacity="0.2" x1="384.79060461404976" x2="384.79060461404976" y1="0.5" y2="30"/><line opacity="0.2" x1="344.21703342348854" x2="344.21703342348854" y1="0.5" y2="30"/><line opacity="0.2" x1="269.37613028582996" x2="269.37613028582996" y1="0.5" y2="30"/><line opacity="0.2" x1="326.5872583595703" x2="326.5872583595703" y1="0.5" y2="30"/><line opacity="0.2" x1="173.23881711354784" x2="173.23881711354784" y1="0.5" y2="30"/><line opacity="0.2" x1="222.9438040797478" x2="222.9438040797478" y1="0.5" y2="30"/><line opacity="0.2" x1="136.71045106756287" x2="136.71045106756287" y1="0.5" y2="30"/><line opacity="0.2" x1="234.1027537988445" x2="234.1027537988445" y1="0.5" y2="30"/><line opacity="0.2" x1="493.33807071016525" x2="493.33807071016525" y1="0.5" y2="30"/><line opacity="0.2" x1="268.74877036770476" x2="268.74877036770476" y1="0.5" y2="30"/><line opacity="0.2" x1="351.35108997284925" x2="351.35108997284925" y1="0.5" y2="30"/><line opacity="0.2" x1="343.80872254542055" x2="343.80872254542055" y1="0.5" y2="30"/><line opacity="0.2" x1="344.67734866929595" x2="344.67734866929595" y1="0.5" y2="30"/><line opacity="0.2" x1="354.3777717444715" x2="354.3777717444715" y1="0.5" y2="30"/><line opacity="0.2" x1="323.17632550997735" x2="323.17632550997735" y1="0.5" y2="30"/><line opacity="0.2" x1="170.96739992973107" x2="170.96739992973107" y1="0.5" y2="30"/><line opacity="0.2" x1="370.4693266994491" x2="370.4693266994491" y1="0.5" y2="30"/><line opacity="0.2" x1="153.6734470206502" x2="153.6734470206502" y1="0.5" y2="30"/><line opacity="0.2" x1="291.0598417326674" x2="291.0598417326674" y1="0.5" y2="30"/><line opacity="0.2" x1="312.0765234293878" x2="312.0765234293878" y1="0.5" y2="30"/><line opacity="0.2" x1="169.51309711332604" x2="169.51309711332604" y1="0.5" y2="30"/><line opacity="0.2" x1="326.7947580046438" x2="326.7947580046438" y1="0.5" y2="30"/><line opacity="0.2" x1="166.8684301830535" x2="166.8684301830535" y1="0.5" y2="30"/><line opacity="0.2" x1="231.15366186559143" x2="231.15366186559143" y1="0.5" y2="30"/><line opacity="0.2" x1="255.1697734296705" x2="255.1697734296705" y1="0.5" y2="30"/><line opacity="0.2" x1="218.09611511844875" x2="218.09611511844875" y1="0.5" y2="30"/><line opacity="0.2" x1="237.35314392052175" x2="237.35314392052175" y1="0.5" y2="30"/><line opacity="0.2" x1="249.83874150917975" x2="249.83874150917975" y1="0.5" y2="30"/><line opacity="0.2" x1="211.4155774612769" x2="211.4155774612769" y1="0.5" y2="30"/><line opacity="0.2" x1="258.77309471691115" x2="258.77309471691115" y1="0.5" y2="30"/><line opacity="0.2" x1="335.4343225088992" x2="335.4343225088992" y1="0.5" y2="30"/><line opacity="0.2" x1="242.00686958334632" x2="242.00686958334632" y1="0.5" y2="30"/><line opacity="0.2" x1="203.8023562080622" x2="203.8023562080622" y1="0.5" y2="30"/><line opacity="0.2" x1="167.93818744936812" x2="167.93818744936812" y1="0.5" y2="30"/><line opacity="0.2" x1="311.0621683647594" x2="311.0621683647594" y1="0.5" y2="30"/><line opacity="0.2" x1="177.97879669633357" x2="177.97879669633357" y1="0.5" y2="30"/><line opacity="0.2" x1="236.69182626382448" x2="236.69182626382448" y1="0.5" y2="30"/><line opacity="0.2" x1="224.04704898562727" x2="224.04704898562727" y1="0.5" y2="30"/><line opacity="0.2" x1="315.59497795175474" x2="315.59497795175474" y1="0.5" y2="30"/><line opacity="0.2" x1="237.90441455470256" x2="237.90441455470256" y1="0.5" y2="30"/><line opacity="0.2" x1="234.00856804580553" x2="234.00856804580553" y1="0.5" y2="30"/><line opacity="0.2" x1="143.35722357376912" x2="143.35722357376912" y1="0.5" y2="30"/><line opacity="0.2" x1="330.64600989085454" x2="330.64600989085454" y1="0.5" y2="30"/><line opacity="0.2" x1="194.5917830948119" x2="194.5917830948119" y1="0.5" y2="30"/><line opacity="0.2" x1="243.33423406913835" x2="243.33423406913835" y1="0.5" y2="30"/><line opacity="0.2" x1="337.6021676888101" x2="337.6021676888101" y1="0.5" y2="30"/><line opacity="0.2" x1="197.39927966863002" x2="197.39927966863002" y1="0.5" y2="30"/><line opacity="0.2" x1="177.1579758554433" x2="177.1579758554433" y1="0.5" y2="30"/><line opacity="0.2" x1="260.9257184861229" x2="260.9257184861229" y1="0.5" y2="30"/><line opacity="0.2" x1="396.69266643206333" x2="396.69266643206333" y1="0.5" y2="30"/><line opacity="0.2" x1="316.663491569419" x2="316.663491569419" y1="0.5" y2="30"/><line opacity="0.2" x1="290.48700433140226" x2="290.48700433140226" y1="0.5" y2="30"/><line opacity="0.2" x1="403.0024498946423" x2="403.0024498946423" y1="0.5" y2="30"/><line opacity="0.2" x1="142.26926342413066" x2="142.26926342413066" y1="0.5" y2="30"/><line opacity="0.2" x1="335.1442791806024" x2="335.1442791806024" y1="0.5" y2="30"/><line opacity="0.2" x1="238.61167814324807" x2="238.61167814324807" y1="0.5" y2="30"/><line opacity="0.2" x1="281.92528056364523" x2="281.92528056364523" y1="0.5" y2="30"/><line opacity="0.2" x1="301.4566328662637" x2="301.4566328662637" y1="0.5" y2="30"/><line opacity="0.2" x1="298.3994921582384" x2="298.3994921582384" y1="0.5" y2="30"/><line opacity="0.2" x1="330.4755359362507" x2="330.4755359362507" y1="0.5" y2="30"/><line opacity="0.2" x1="345.2410816071059" x2="345.2410816071059" y1="0.5" y2="30"/><line opacity="0.2" x1="209.51389708158132" x2="209.51389708158132" y1="0.5" y2="30"/><line opacity="0.2" x1="472.370607686724" x2="472.370607686724" y1="0.5" y2="30"/><line opacity="0.2" x1="385.6062463192619" x2="385.6062463192619" y1="0.5" y2="30"/><line opacity="0.2" x1="453.8413190454584" x2="453.8413190454584" y1="0.5" y2="30"/><line opacity="0.2" x1="188.88642066185818" x2="188.88642066185818" y1="0.5" y2="30"/><line opacity="0.2" x1="422.163597842919" x2="422.163597842919" y1="0.5" y2="30"/><line opacity="0.2" x1="202.7083656181436" x2="202.7083656181436" y1="0.5" y2="30"/><line opacity="0.2" x1="412.5088906035584" x2="412.5088906035584" y1="0.5" y2="30"/><line opacity="0.2" x1="363.886389093828" x2="363.886389093828" y1="0.5" y2="30"/><line opacity="0.2" x1="197.34619372891578" x2="197.34619372891578" y1="0.5" y2="30"/><line opacity="0.2" x1="279.5193486174082" x2="279.5193486174082" y1="0.5" y2="30"/><line opacity="0.2" x1="342.7837567932418" x2="342.7837567932418" y1="0.5" y2="30"/><line opacity="0.2" x1="178.44248088962493" x2="178.44248088962493" y1="0.5" y2="30"/><line opacity="0.2" x1="264.9435475799127" x2="264.9435475799127" y1="0.5" y2="30"/><line opacity="0.2" x1="283.8600952898247" x2="283.8600952898247" y1="0.5" y2="30"/><line opacity="0.2" x1="304.54018643611715" x2="304.54018643611715" y1="0.5" y2="30"/><line opacity="0.2" x1="322.0228361142321" x2="322.0228361142321" y1="0.5" y2="30"/><line opacity="0.2" x1="167.96352218274748" x2="167.96352218274748" y1="0.5" y2="30"/><line opacity="0.2" x1="355.8567166236151" x2="355.8567166236151" y1="0.5" y2="30"/><line opacity="0.2" x1="77.54418332883603" x2="77.54418332883603" y1="0.5" y2="30"/><line opacity="0.2" x1="216.61605171209467" x2="216.61605171209467" y1="0.5" y2="30"/><line opacity="0.2" x1="409.44249898594273" x2="409.44249898594273" y1="0.5" y2="30"/><line opacity="0.2" x1="369.1352587109634" x2="369.1352587109634" y1="0.5" y2="30"/><line opacity="0.2" x1="496.37786478436834" x2="496.37786478436834" y1="0.5" y2="30"/><line opacity="0.2" x1="333.9667118414198" x2="333.9667118414198" y1="0.5" y2="30"/><line opacity="0.2" x1="360.5815267345727" x2="360.5815267345727" y1="0.5" y2="30"/><line opacity="0.2" x1="206.25328429570166" x2="206.25328429570166" y1="0.5" y2="30"/><line opacity="0.2" x1="307.2870707616711" x2="307.2870707616711" y1="0.5" y2="30"/><line opacity="0.2" x1="85.42603672113844" x2="85.42603672113844" y1="0.5" y2="30"/><line opacity="0.2" x1="376.10766233826047" x2="376.10766233826047" y1="0.5" y2="30"/><line opacity="0.2" x1="290.88041315543177" x2="290.88041315543177" y1="0.5" y2="30"/><line opacity="0.2" x1="254.68593907479237" x2="254.68593907479237" y1="0.5" y2="30"/><line opacity="0.2" x1="348.93419808542143" x2="348.93419808542143" y1="0.5" y2="30"/><line opacity="0.2" x1="322.05010297846536" x2="322.05010297846536" y1="0.5" y2="30"/><line opacity="0.2" x1="236.3661142717164" x2="236.3661142717164" y1="0.5" y2="30"/><line opacity="0.2" x1="336.0861331841068" x2="336.0861331841068" y1="0.5" y2="30"/><line opacity="0.2" x1="167.8141986639607" x2="167.8141986639607" y1="0.5" y2="30"/><line opacity="0.2" x1="321.48874220388234" x2="321.48874220388234" y1="0.5" y2="30"/><line opacity="0.2" x1="241.55716641879314" x2="241.55716641879314" y1="0.5" y2="30"/><line opacity="0.2" x1="134.52278317744188" x2="134.52278317744188" y1="0.5" y2="30"/><line opacity="0.2" x1="139.72515105634335" x2="139.72515105634335" y1="0.5" y2="30"/><line opacity="0.2" x1="162.78922716276654" x2="162.78922716276654" y1="0.5" y2="30"/><line opacity="0.2" x1="253.3385458907505" x2="253.3385458907505" y1="0.5" y2="30"/><line opacity="0.2" x1="366.488893591523" x2="366.488893591523" y1="0.5" y2="30"/><line opacity="0.2" x1="314.3622325155329" x2="314.3622325155329" y1="0.5" y2="30"/><line opacity="0.2" x1="318.07462601125565" x2="318.07462601125565" y1="0.5" y2="30"/><line opacity="0.2" x1="202.89258593311948" x2="202.89258593311948" y1="0.5" y2="30"/><line opacity="0.2" x1="294.16168731947596" x2="294.16168731947596" y1="0.5" y2="30"/><line opacity="0.2" x1="145.02491877176172" x2="145.02491877176172" y1="0.5" y2="30"/><line opacity="0.2" x1="228.49687403978896" x2="228.49687403978896" y1="0.5" y2="30"/><line opacity="0.2" x1="373.7905422912608" x2="373.7905422912608" y1="0.5" y2="30"/><line opacity="0.2" x1="379.2160344726585" x2="379.2160344726585" y1="0.5" y2="30"/><line opacity="0.2" x1="392.45400417880023" x2="392.45400417880023" y1="0.5" y2="30"/><line opacity="0.2" x1="200.3135633141121" x2="200.3135633141121" y1="0.5" y2="30"/><line opacity="0.2" x1="436.7332951658201" x2="436.7332951658201" y1="0.5" y2="30"/><line opacity="0.2" x1="247.58247950770198" x2="247.58247950770198" y1="0.5" y2="30"/><line opacity="0.2" x1="381.7678309089316" x2="381.7678309089316" y1="0.5" y2="30"/><line opacity="0.2" x1="292.4605309360262" x2="292.4605309360262" y1="0.5" y2="30"/><line opacity="0.2" x1="294.25975315771666" x2="294.25975315771666" y1="0.5" y2="30"/><line opacity="0.2" x1="249.5488717827837" x2="249.5488717827837" y1="0.5" y2="30"/><line opacity="0.2" x1="281.0938689010945" x2="281.0938689010945" y1="0.5" y2="30"/><line opacity="0.2" x1="288.1148982201266" x2="288.1148982201266" y1="0.5" y2="30"/><line opacity="0.2" x1="258.96904256456776" x2="258.96904256456776" y1="0.5" y2="30"/><line opacity="0.2" x1="338.8677373572102" x2="338.8677373572102" y1="0.5" y2="30"/><line opacity="0.2" x1="453.641862689929" x2="453.641862689929" y1="0.5" y2="30"/><line opacity="0.2" x1="319.18636980089184" x2="319.18636980089184" y1="0.5" y2="30"/><line opacity="0.2" x1="342.6689770660819" x2="342.6689770660819" y1="0.5" y2="30"/><line opacity="0.2" x1="339.40762250814" x2="339.40762250814" y1="0.5" y2="30"/><line opacity="0.2" x1="214.6132857753723" x2="214.6132857753723" y1="0.5" y2="30"/><line opacity="0.2" x1="198.251820468241" x2="198.251820468241" y1="0.5" y2="30"/><line opacity="0.2" x1="254.7885241722582" x2="254.7885241722582" y1="0.5" y2="30"/><line opacity="0.2" x1="363.7607244042566" x2="363.7607244042566" y1="0.5" y2="30"/><line opacity="0.2" x1="355.45228333007947" x2="355.45228333007947" y1="0.5" y2="30"/><line opacity="0.2" x1="312.0494240098514" x2="312.0494240098514" y1="0.5" y2="30"/><line opacity="0.2" x1="312.7756721816617" x2="312.7756721816617" y1="0.5" y2="30"/><line opacity="0.2" x1="81.83423584357834" x2="81.83423584357834" y1="0.5" y2="30"/><line opacity="0.2" x1="348.0190846707237" x2="348.0190846707237" y1="0.5" y2="30"/><line opacity="0.2" x1="261.7496851747823" x2="261.7496851747823" y1="0.5" y2="30"/><line opacity="0.2" x1="432.11442776856615" x2="432.11442776856615" y1="0.5" y2="30"/><line opacity="0.2" x1="309.38373037204025" x2="309.38373037204025" y1="0.5" y2="30"/><line opacity="0.2" x1="238.3019287146079" x2="238.3019287146079" y1="0.5" y2="30"/><line opacity="0.2" x1="57.878748740381596" x2="57.878748740381596" y1="0.5" y2="30"/><line opacity="0.2" x1="498.91931107015273" x2="498.91931107015273" y1="0.5" y2="30"/><line opacity="0.2" x1="276.0997151661465" x2="276.0997151661465" y1="0.5" y2="30"/><line opacity="0.2" x1="239.12630235863998" x2="239.12630235863998" y1="0.5" y2="30"/><line opacity="0.2" x1="342.22166731183773" x2="342.22166731183773" y1="0.5" y2="30"/><line opacity="0.2" x1="318.372490126062" x2="318.372490126062" y1="0.5" y2="30"/><line opacity="0.2" x1="296.3407018104496" x2="296.3407018104496" y1="0.5" y2="30"/><line opacity="0.2" x1="417.00470495456057" x2="417.00470495456057" y1="0.5" y2="30"/><line opacity="0.2" x1="203.66370204615995" x2="203.66370204615995" y1="0.5" y2="30"/><line opacity="0.2" x1="360.1335425958903" x2="360.1335425958903" y1="0.5" y2="30"/><line opacity="0.2" x1="314.6481649703411" x2="314.6481649703411" y1="0.5" y2="30"/><line opacity="0.2" x1="390.61780222965916" x2="390.61780222965916" y1="0.5" y2="30"/><line opacity="0.2" x1="303.1531434403818" x2="303.1531434403818" y1="0.5" y2="30"/><line opacity="0.2" x1="381.7275053222379" x2="381.7275053222379" y1="0.5" y2="30"/><line opacity="0.2" x1="275.283919018163" x2="275.283919018163" y1="0.5" y2="30"/><line opacity="0.2" x1="149.27572838326313" x2="149.27572838326313" y1="0.5" y2="30"/><line opacity="0.2" x1="161.03207943054667" x2="161.03207943054667" y1="0.5" y2="30"/><line opacity="0.2" x1="229.82525632602923" x2="229.82525632602923" y1="0.5" y2="30"/><line opacity="0.2" x1="20" x2="20" y1="0.5" y2="30"/><line opacity="0.2" x1="316.01348405296966" x2="316.01348405296966" y1="0.5" y2="30"/><line opacity="0.2" x1="363.9348187030047" x2="363.9348187030047" y1="0.5" y2="30"/><line opacity="0.2" x1="230.47783209223903" x2="230.47783209223903" y1="0.5" y2="30"/><line opacity="0.2" x1="245.36964789280677" x2="245.36964789280677" y1="0.5" y2="30"/><line opacity="0.2" x1="164.9743097971532" x2="164.9743097971532" y1="0.5" y2="30"/><line opacity="0.2" x1="135.70308833290017" x2="135.70308833290017" y1="0.5" y2="30"/><line opacity="0.2" x1="112.5261427806116" x2="112.5261427806116" y1="0.5" y2="30"/><line opacity="0.2" x1="245.21806740507" x2="245.21806740507" y1="0.5" y2="30"/><line opacity="0.2" x1="268.360643049594" x2="268.360643049594" y1="0.5" y2="30"/><line opacity="0.2" x1="175.2253360667058" x2="175.2253360667058" y1="0.5" y2="30"/><line opacity="0.2" x1="335.05475874610715" x2="335.05475874610715" y1="0.5" y2="30"/><line opacity="0.2" x1="272.0037164559334" x2="272.0037164559334" y1="0.5" y2="30"/><line opacity="0.2" x1="262.2590723068316" x2="262.2590723068316" y1="0.5" y2="30"/><line opacity="0.2" x1="322.9576132667958" x2="322.9576132667958" y1="0.5" y2="30"/><line opacity="0.2" x1="426.5161396634083" x2="426.5161396634083" y1="0.5" y2="30"/><line opacity="0.2" x1="247.54660116883753" x2="247.54660116883753" y1="0.5" y2="30"/><line opacity="0.2" x1="551.213712522901" x2="551.213712522901" y1="0.5" y2="30"/><line opacity="0.2" x1="202.73207937242813" x2="202.73207937242813" y1="0.5" y2="30"/><line opacity="0.2" x1="329.73196001807264" x2="329.73196001807264" y1="0.5" y2="30"/><line opacity="0.2" x1="314.6278210071268" x2="314.6278210071268" y1="0.5" y2="30"/><line opacity="0.2" x1="291.2008085385841" x2="291.2008085385841" y1="0.5" y2="30"/><line opacity="0.2" x1="287.5213691217941" x2="287.5213691217941" y1="0.5" y2="30"/><line opacity="0.2" x1="196.15935322281868" x2="196.15935322281868" y1="0.5" y2="30"/><line opacity="0.2" x1="325.50327564693305" x2="325.50327564693305" y1="0.5" y2="30"/><line opacity="0.2" x1="285.7527520095136" x2="285.7527520095136" y1="0.5" y2="30"/><line opacity="0.2" x1="343.480716845511" x2="343.480716845511" y1="0.5" y2="30"/><line opacity="0.2" x1="142.7123279891403" x2="142.7123279891403" y1="0.5" y2="30"/><line opacity="0.2" x1="210.94490108958564" x2="210.94490108958564" y1="0.5" y2="30"/><line opacity="0.2" x1="189.16458477607074" x2="189.16458477607074" y1="0.5" y2="30"/><line opacity="0.2" x1="297.5870360024193" x2="297.5870360024193" y1="0.5" y2="30"/><line opacity="0.2" x1="326.188635235162" x2="326.188635235162" y1="0.5" y2="30"/><line opacity="0.2" x1="327.28951443829123" x2="327.28951443829123" y1="0.5" y2="30"/><line opacity="0.2" x1="330.98544338106063" x2="330.98544338106063" y1="0.5" y2="30"/><line opacity="0.2" x1="408.59175480370857" x2="408.59175480370857" y1="0.5" y2="30"/><line opacity="0.2" x1="245.25014948291295" x2="245.25014948291295" y1="0.5" y2="30"/><line opacity="0.2" x1="369.7945587803906" x2="369.7945587803906" y1="0.5" y2="30"/><line opacity="0.2" x1="177.705567509726" x2="177.705567509726" y1="0.5" y2="30"/><line opacity="0.2" x1="296.336952647613" x2="296.336952647613" y1="0.5" y2="30"/><line opacity="0.2" x1="458.76412938961596" x2="458.76412938961596" y1="0.5" y2="30"/><line opacity="0.2" x1="414.8689582121259" x2="414.8689582121259" y1="0.5" y2="30"/><line opacity="0.2" x1="268.50470538897713" x2="268.50470538897713" y1="0.5" y2="30"/><line opacity="0.2" x1="272.7627850462864" x2="272.7627850462864" y1="0.5" y2="30"/><line opacity="0.2" x1="262.98675725062265" x2="262.98675725062265" y1="0.5" y2="30"/><line opacity="0.2" x1="120.27839459077362" x2="120.27839459077362" y1="0.5" y2="30"/><line opacity="0.2" x1="280.16002125413456" x2="280.16002125413456" y1="0.5" y2="30"/><line opacity="0.2" x1="287.02339892050617" x2="287.02339892050617" y1="0.5" y2="30"/><line opacity="0.2" x1="253.3167958920474" x2="253.3167958920474" y1="0.5" y2="30"/><line opacity="0.2" x1="210.97055297035075" x2="210.97055297035075" y1="0.5" y2="30"/><line opacity="0.2" x1="387.00888054534306" x2="387.00888054534306" y1="0.5" y2="30"/><line opacity="0.2" x1="320.9695596154826" x2="320.9695596154826" y1="0.5" y2="30"/><line opacity="0.2" x1="141.71514568675877" x2="141.71514568675877" y1="0.5" y2="30"/><line opacity="0.2" x1="118.2529337923798" x2="118.2529337923798" y1="0.5" y2="30"/><line opacity="0.2" x1="356.6336348618908" x2="356.6336348618908" y1="0.5" y2="30"/><line opacity="0.2" x1="366.36813450102284" x2="366.36813450102284" y1="0.5" y2="30"/><line opacity="0.2" x1="278.969688636033" x2="278.969688636033" y1="0.5" y2="30"/><line opacity="0.2" x1="268.3506732814322" x2="268.3506732814322" y1="0.5" y2="30"/><line opacity="0.2" x1="177.85689169724304" x2="177.85689169724304" y1="0.5" y2="30"/><line opacity="0.2" x1="383.32872108134836" x2="383.32872108134836" y1="0.5" y2="30"/><line opacity="0.2" x1="244.27863062634682" x2="244.27863062634682" y1="0.5" y2="30"/><line opacity="0.2" x1="235.51195671804822" x2="235.51195671804822" y1="0.5" y2="30"/><line opacity="0.2" x1="395.7417630321491" x2="395.7417630321491" y1="0.5" y2="30"/><line opacity="0.2" x1="322.8445225264127" x2="322.8445225264127" y1="0.5" y2="30"/><line opacity="0.2" x1="389.2706060418501" x2="389.2706060418501" y1="0.5" y2="30"/><line opacity="0.2" x1="265.07199362921415" x2="265.07199362921415" y1="0.5" y2="30"/><line opacity="0.2" x1="260.54668641849696" x2="260.54668641849696" y1="0.5" y2="30"/><line opacity="0.2" x1="230.66566785702022" x2="230.66566785702022" y1="0.5" y2="30"/><line opacity="0.2" x1="266.3431788516778" x2="266.3431788516778" y1="0.5" y2="30"/><line opacity="0.2" x1="318.12327303188823" x2="318.12327303188823" y1="0.5" y2="30"/><line opacity="0.2" x1="383.923749294885" x2="383.923749294885" y1="0.5" y2="30"/><line opacity="0.2" x1="203.9512552910379" x2="203.9512552910379" y1="0.5" y2="30"/><line opacity="0.2" x1="160.75858384105422" x2="160.75858384105422" y1="0.5" y2="30"/><line opacity="0.2" x1="159.86030168189455" x2="159.86030168189455" y1="0.5" y2="30"/><line opacity="0.2" x1="246.13077312888194" x2="246.13077312888194" y1="0.5" y2="30"/><line opacity="0.2" x1="188.39358456848345" x2="188.39358456848345" y1="0.5" y2="30"/><line opacity="0.2" x1="206.3574984106966" x2="206.3574984106966" y1="0.5" y2="30"/><line opacity="0.2" x1="118.8154008922624" x2="118.8154008922624" y1="0.5" y2="30"/><line opacity="0.2" x1="429.68781128645287" x2="429.68781128645287" y1="0.5" y2="30"/><line opacity="0.2" x1="318.0995254870074" x2="318.0995254870074" y1="0.5" y2="30"/><line opacity="0.2" x1="251.0183831211709" x2="251.0183831211709" y1="0.5" y2="30"/><line opacity="0.2" x1="227.59476064263453" x2="227.59476064263453" y1="0.5" y2="30"/><line opacity="0.2" x1="326.7515835068282" x2="326.7515835068282" y1="0.5" y2="30"/><line opacity="0.2" x1="373.2927366387829" x2="373.2927366387829" y1="0.5" y2="30"/><line opacity="0.2" x1="236.78205092021574" x2="236.78205092021574" y1="0.5" y2="30"/><line opacity="0.2" x1="262.5355846494352" x2="262.5355846494352" y1="0.5" y2="30"/><line opacity="0.2" x1="206.4363143745262" x2="206.4363143745262" y1="0.5" y2="30"/><line opacity="0.2" x1="269.32537963858164" x2="269.32537963858164" y1="0.5" y2="30"/><line opacity="0.2" x1="243.78939176165898" x2="243.78939176165898" y1="0.5" y2="30"/><line opacity="0.2" x1="387.031161301095" x2="387.031161301095" y1="0.5" y2="30"/><line opacity="0.2" x1="413.8260286439054" x2="413.8260286439054" y1="0.5" y2="30"/><line opacity="0.2" x1="226.47917723402637" x2="226.47917723402637" y1="0.5" y2="30"/><line opacity="0.2" x1="338.95679276010765" x2="338.95679276010765" y1="0.5" y2="30"/><line opacity="0.2" x1="137.25720057447992" x2="137.25720057447992" y1="0.5" y2="30"/><line opacity="0.2" x1="275.97545436900106" x2="275.97545436900106" y1="0.5" y2="30"/><line opacity="0.2" x1="234.6587466352801" x2="234.6587466352801" y1="0.5" y2="30"/><line opacity="0.2" x1="273.7024201990384" x2="273.7024201990384" y1="0.5" y2="30"/><line opacity="0.2" x1="219.63710233728074" x2="219.63710233728074" y1="0.5" y2="30"/><line opacity="0.2" x1="394.56357788273766" x2="394.56357788273766" y1="0.5" y2="30"/><line opacity="0.2" x1="356.1228080586913" x2="356.1228080586913" y1="0.5" y2="30"/><line opacity="0.2" x1="207.57036861804335" x2="207.57036861804335" y1="0.5" y2="30"/><line opacity="0.2" x1="123.46110976778672" x2="123.46110976778672" y1="0.5" y2="30"/><line opacity="0.2" x1="352.6505550135543" x2="352.6505550135543" y1="0.5" y2="30"/><line opacity="0.2" x1="348.6396532393374" x2="348.6396532393374" y1="0.5" y2="30"/><line opacity="0.2" x1="74.84992018042014" x2="74.84992018042014" y1="0.5" y2="30"/><line opacity="0.2" x1="260.075177649832" x2="260.075177649832" y1="0.5" y2="30"/><line opacity="0.2" x1="170.32406554209086" x2="170.32406554209086" y1="0.5" y2="30"/><line opacity="0.2" x1="207.61318876270116" x2="207.61318876270116" y1="0.5" y2="30"/><line opacity="0.2" x1="386.6928058716388" x2="386.6928058716388" y1="0.5" y2="30"/><line opacity="0.2" x1="289.0766402471739" x2="289.0766402471739" y1="0.5" y2="30"/><line opacity="0.2" x1="216.74774115000338" x2="216.74774115000338" y1="0.5" y2="30"/><line opacity="0.2" x1="316.69922410054306" x2="316.69922410054306" y1="0.5" y2="30"/><line opacity="0.2" x1="386.52854657540064" x2="386.52854657540064" y1="0.5" y2="30"/><line opacity="0.2" x1="238.8278358769246" x2="238.8278358769246" y1="0.5" y2="30"/><line opacity="0.2" x1="266.10649089220425" x2="266.10649089220425" y1="0.5" y2="30"/><line opacity="0.2" x1="108.94479397828209" x2="108.94479397828209" y1="0.5" y2="30"/><line opacity="0.2" x1="140.82041655451783" x2="140.82041655451783" y1="0.5" y2="30"/><line opacity="0.2" x1="341.3866414750254" x2="341.3866414750254" y1="0.5" y2="30"/><line opacity="0.2" x1="110.07223111539167" x2="110.07223111539167" y1="0.5" y2="30"/><line opacity="0.2" x1="539.7385277125431" x2="539.7385277125431" y1="0.5" y2="30"/><line opacity="0.2" x1="356.57610931528336" x2="356.57610931528336" y1="0.5" y2="30"/><line opacity="0.2" x1="261.49262559669364" x2="261.49262559669364" y1="0.5" y2="30"/><line opacity="0.2" x1="153.97589380805897" x2="153.97589380805897" y1="0.5" y2="30"/><line opacity="0.2" x1="384.4888340896682" x2="384.4888340896682" y1="0.5" y2="30"/><line opacity="0.2" x1="320.32362127903576" x2="320.32362127903576" y1="0.5" y2="30"/><line opacity="0.2" x1="189.951656304719" x2="189.951656304719" y1="0.5" y2="30"/><line opacity="0.2" x1="167.9591648578097" x2="167.9591648578097" y1="0.5" y2="30"/><line opacity="0.2" x1="281.3747535415473" x2="281.3747535415473" y1="0.5" y2="30"/><line opacity="0.2" x1="171.31031542024306" x2="171.31031542024306" y1="0.5" y2="30"/><line opacity="0.2" x1="377.141255259121" x2="377.141255259121" y1="0.5" y2="30"/><line opacity="0.2" x1="146.83801330612917" x2="146.83801330612917" y1="0.5" y2="30"/><line opacity="0.2" x1="143.50045081399384" x2="143.50045081399384" y1="0.5" y2="30"/><line opacity="0.2" x1="255.341546081194" x2="255.341546081194" y1="0.5" y2="30"/><line opacity="0.2" x1="155.53589510616135" x2="155.53589510616135" y1="0.5" y2="30"/><line opacity="0.2" x1="289.8455605569217" x2="289.8455605569217" y1="0.5" y2="30"/><line opacity="0.2" x1="310.71452499499003" x2="310.71452499499003" y1="0.5" y2="30"/><line opacity="0.2" x1="352.281988966237" x2="352.281988966237" y1="0.5" y2="30"/><line opacity="0.2" x1="232.51988490263236" x2="232.51988490263236" y1="0.5" y2="30"/><line opacity="0.2" x1="288.3469590970222" x2="288.3469590970222" y1="0.5" y2="30"/><line opacity="0.2" x1="142.5557230923238" x2="142.5557230923238" y1="0.5" y2="30"/><line opacity="0.2" x1="353.76069874902043" x2="353.76069874902043" y1="0.5" y2="30"/><line opacity="0.2" x1="181.84824416567034" x2="181.84824416567034" y1="0.5" y2="30"/><line opacity="0.2" x1="161.97207886463767" x2="161.97207886463767" y1="0.5" y2="30"/><line opacity="0.2" x1="350.1354732580307" x2="350.1354732580307" y1="0.5" y2="30"/><line opacity="0.2" x1="317.16073435875563" x2="317.16073435875563" y1="0.5" y2="30"/><line opacity="0.2" x1="363.110174611498" x2="363.110174611498" y1="0.5" y2="30"/><line opacity="0.2" x1="259.04314834786885" x2="259.04314834786885" y1="0.5" y2="30"/><line opacity="0.2" x1="373.45948292343024" x2="373.45948292343024" y1="0.5" y2="30"/><line opacity="0.2" x1="301.539647302017" x2="301.539647302017" y1="0.5" y2="30"/><line opacity="0.2" x1="309.46855194095883" x2="309.46855194095883" y1="0.5" y2="30"/><line opacity="0.2" x1="297.1709657101575" x2="297.1709657101575" y1="0.5" y2="30"/><line opacity="0.2" x1="249.34077081124798" x2="249.34077081124798" y1="0.5" y2="30"/><line opacity="0.2" x1="284.89013647118844" x2="284.89013647118844" y1="0.5" y2="30"/><line opacity="0.2" x1="265.3790899240461" x2="265.3790899240461" y1="0.5" y2="30"/><line opacity="0.2" x1="307.9025892230131" x2="307.9025892230131" y1="0.5" y2="30"/><line opacity="0.2" x1="361.53004472467757" x2="361.53004472467757" y1="0.5" y2="30"/><line opacity="0.2" x1="61.85027894686529" x2="61.85027894686529" y1="0.5" y2="30"/><line opacity="0.2" x1="190.69301122518755" x2="190.69301122518755" y1="0.5" y2="30"/><line opacity="0.2" x1="248.66565801284526" x2="248.66565801284526" y1="0.5" y2="30"/><line opacity="0.2" x1="327.1933279361075" x2="327.1933279361075" y1="0.5" y2="30"/><line opacity="0.2" x1="402.76016930580573" x2="402.76016930580573" y1="0.5" y2="30"/><line opacity="0.2" x1="320.8700739052225" x2="320.8700739052225" y1="0.5" y2="30"/><line opacity="0.2" x1="157.06925469048056" x2="157.06925469048056" y1="0.5" y2="30"/><line opacity="0.2" x1="244.05323477461738" x2="244.05323477461738" y1="0.5" y2="30"/><line opacity="0.2" x1="23.121762617823016" x2="23.121762617823016" y1="0.5" y2="30"/><line opacity="0.2" x1="173.19439454608042" x2="173.19439454608042" y1="0.5" y2="30"/><line opacity="0.2" x1="233.87806348287756" x2="233.87806348287756" y1="0.5" y2="30"/><line opacity="0.2" x1="318.3127704608004" x2="318.3127704608004" y1="0.5" y2="30"/><line opacity="0.2" x1="344.9216638015633" x2="344.9216638015633" y1="0.5" y2="30"/><line opacity="0.2" x1="258.1016655082031" x2="258.1016655082031" y1="0.5" y2="30"/><line opacity="0.2" x1="307.10471503775943" x2="307.10471503775943" y1="0.5" y2="30"/><line opacity="0.2" x1="263.567923426996" x2="263.567923426996" y1="0.5" y2="30"/><line opacity="0.2" x1="254.27104013279586" x2="254.27104013279586" y1="0.5" y2="30"/><line opacity="0.2" x1="242.4860690755553" x2="242.4860690755553" y1="0.5" y2="30"/><line opacity="0.2" x1="224.2452982861951" x2="224.2452982861951" y1="0.5" y2="30"/><line opacity="0.2" x1="334.982865711431" x2="334.982865711431" y1="0.5" y2="30"/><line opacity="0.2" x1="328.2581455097144" x2="328.2581455097144" y1="0.5" y2="30"/><line opacity="0.2" x1="223.19120618816697" x2="223.19120618816697" y1="0.5" y2="30"/><line opacity="0.2" x1="217.5345278117165" x2="217.5345278117165" y1="0.5" y2="30"/><line opacity="0.2" x1="392.32779193453644" x2="392.32779193453644" y1="0.5" y2="30"/><line opacity="0.2" x1="218.81552558000203" x2="218.81552558000203" y1="0.5" y2="30"/><line opacity="0.2" x1="335.4922797988929" x2="335.4922797988929" y1="0.5" y2="30"/><line opacity="0.2" x1="382.5994985463829" x2="382.5994985463829" y1="0.5" y2="30"/><line opacity="0.2" x1="222.8035977262503" x2="222.8035977262503" y1="0.5" y2="30"/><line opacity="0.2" x1="367.1523946373078" x2="367.1523946373078" y1="0.5" y2="30"/><line opacity="0.2" x1="493.51989863683104" x2="493.51989863683104" y1="0.5" y2="30"/><line opacity="0.2" x1="371.66784542252634" x2="371.66784542252634" y1="0.5" y2="30"/><line opacity="0.2" x1="434.86960712909473" x2="434.86960712909473" y1="0.5" y2="30"/><line opacity="0.2" x1="419.5789256286916" x2="419.5789256286916" y1="0.5" y2="30"/><line opacity="0.2" x1="215.38932387899138" x2="215.38932387899138" y1="0.5" y2="30"/><line opacity="0.2" x1="328.7971567864692" x2="328.7971567864692" y1="0.5" y2="30"/><line opacity="0.2" x1="166.75537163988847" x2="166.75537163988847" y1="0.5" y2="30"/><line opacity="0.2" x1="240.06824019912375" x2="240.06824019912375" y1="0.5" y2="30"/><line opacity="0.2" x1="234.0289315818745" x2="234.0289315818745" y1="0.5" y2="30"/><line opacity="0.2" x1="378.1498048792102" x2="378.1498048792102" y1="0.5" y2="30"/><line opacity="0.2" x1="238.66439606394354" x2="238.66439606394354" y1="0.5" y2="30"/><line opacity="0.2" x1="274.25495647934355" x2="274.25495647934355" y1="0.5" y2="30"/><line opacity="0.2" x1="116.98245382003537" x2="116.98245382003537" y1="0.5" y2="30"/><line opacity="0.2" x1="376.4432356543546" x2="376.4432356543546" y1="0.5" y2="30"/><line opacity="0.2" x1="312.6452625598786" x2="312.6452625598786" y1="0.5" y2="30"/><line opacity="0.2" x1="292.4801077844144" x2="292.4801077844144" y1="0.5" y2="30"/><line opacity="0.2" x1="338.120988942676" x2="338.120988942676" y1="0.5" y2="30"/><line opacity="0.2" x1="136.9259765655454" x2="136.9259765655454" y1="0.5" y2="30"/><line opacity="0.2" x1="168.4616586706102" x2="168.4616586706102" y1="0.5" y2="30"/><line opacity="0.2" x1="258.96454637109207" x2="258.96454637109207" y1="0.5" y2="30"/><line opacity="0.2" x1="303.13730595275337" x2="303.13730595275337" y1="0.5" y2="30"/><line opacity="0.2" x1="113.46832850563624" x2="113.46832850563624" y1="0.5" y2="30"/><line opacity="0.2" x1="196.397679779654" x2="196.397679779654" y1="0.5" y2="30"/><line opacity="0.2" x1="267.20662152619843" x2="267.20662152619843" y1="0.5" y2="30"/><line opacity="0.2" x1="328.32082282262473" x2="328.32082282262473" y1="0.5" y2="30"/><line opacity="0.2" x1="176.42792625962502" x2="176.42792625962502" y1="0.5" y2="30"/><line opacity="0.2" x1="311.891079832095" x2="311.891079832095" y1="0.5" y2="30"/><line opacity="0.2" x1="297.43781191438063" x2="297.43781191438063" y1="0.5" y2="30"/><line opacity="0.2" x1="261.36875867819543" x2="261.36875867819543" y1="0.5" y2="30"/><line opacity="0.2" x1="189.00159535638045" x2="189.00159535638045" y1="0.5" y2="30"/><line opacity="0.2" x1="267.3639581152878" x2="267.3639581152878" y1="0.5" y2="30"/><line opacity="0.2" x1="319.71541616962617" x2="319.71541616962617" y1="0.5" y2="30"/><line opacity="0.2" x1="337.3802178588314" x2="337.3802178588314" y1="0.5" y2="30"/><line opacity="0.2" x1="144.9022437300721" x2="144.9022437300721" y1="0.5" y2="30"/><line opacity="0.2" x1="389.1790679739628" x2="389.1790679739628" y1="0.5" y2="30"/><line opacity="0.2" x1="327.3245616055274" x2="327.3245616055274" y1="0.5" y2="30"/><line opacity="0.2" x1="290.0899718154838" x2="290.0899718154838" y1="0.5" y2="30"/><line opacity="0.2" x1="369.9340493651674" x2="369.9340493651674" y1="0.5" y2="30"/><line opacity="0.2" x1="215.05570478558718" x2="215.05570478558718" y1="0.5" y2="30"/><line opacity="0.2" x1="55.948957853138715" x2="55.948957853138715" y1="0.5" y2="30"/><line opacity="0.2" x1="249.32000678008257" x2="249.32000678008257" y1="0.5" y2="30"/><line opacity="0.2" x1="194.6836853784612" x2="194.6836853784612" y1="0.5" y2="30"/><line opacity="0.2" x1="313.6882672317585" x2="313.6882672317585" y1="0.5" y2="30"/><line opacity="0.2" x1="450.5839145395254" x2="450.5839145395254" y1="0.5" y2="30"/><line opacity="0.2" x1="165.56466410032039" x2="165.56466410032039" y1="0.5" y2="30"/><line opacity="0.2" x1="202.84986291408265" x2="202.84986291408265" y1="0.5" y2="30"/><line opacity="0.2" x1="388.30838112367235" x2="388.30838112367235" y1="0.5" y2="30"/><line opacity="0.2" x1="310.54032940272964" x2="310.54032940272964" y1="0.5" y2="30"/><line opacity="0.2" x1="238.48665297815904" x2="238.48665297815904" y1="0.5" y2="30"/><line opacity="0.2" x1="164.99917013185186" x2="164.99917013185186" y1="0.5" y2="30"/><line opacity="0.2" x1="331.0058534425674" x2="331.0058534425674" y1="0.5" y2="30"/><line opacity="0.2" x1="153.56810272491143" x2="153.56810272491143" y1="0.5" y2="30"/><line opacity="0.2" x1="292.9484647370754" x2="292.9484647370754" y1="0.5" y2="30"/><line opacity="0.2" x1="340.3477851582908" x2="340.3477851582908" y1="0.5" y2="30"/><line opacity="0.2" x1="320.10518150101257" x2="320.10518150101257" y1="0.5" y2="30"/><line opacity="0.2" x1="237.0747038130809" x2="237.0747038130809" y1="0.5" y2="30"/><line opacity="0.2" x1="266.91647273923417" x2="266.91647273923417" y1="0.5" y2="30"/><line opacity="0.2" x1="282.06089314428465" x2="282.06089314428465" y1="0.5" y2="30"/><line opacity="0.2" x1="500.32102416797005" x2="500.32102416797005" y1="0.5" y2="30"/><line opacity="0.2" x1="141.11179668103097" x2="141.11179668103097" y1="0.5" y2="30"/><line opacity="0.2" x1="300.3565963776995" x2="300.3565963776995" y1="0.5" y2="30"/><line opacity="0.2" x1="263.7508861523992" x2="263.7508861523992" y1="0.5" y2="30"/><line opacity="0.2" x1="519.215697237569" x2="519.215697237569" y1="0.5" y2="30"/><line opacity="0.2" x1="326.82081225103616" x2="326.82081225103616" y1="0.5" y2="30"/><line opacity="0.2" x1="261.3401800587606" x2="261.3401800587606" y1="0.5" y2="30"/><line opacity="0.2" x1="341.24919547648153" x2="341.24919547648153" y1="0.5" y2="30"/><line opacity="0.2" x1="209.18536189154128" x2="209.18536189154128" y1="0.5" y2="30"/><line opacity="0.2" x1="359.6692056845671" x2="359.6692056845671" y1="0.5" y2="30"/><line opacity="0.2" x1="395.8466539037456" x2="395.8466539037456" y1="0.5" y2="30"/><line opacity="0.2" x1="127.08185699458113" x2="127.08185699458113" y1="0.5" y2="30"/><line opacity="0.2" x1="168.92489158308305" x2="168.92489158308305" y1="0.5" y2="30"/><line opacity="0.2" x1="377.82365773092744" x2="377.82365773092744" y1="0.5" y2="30"/><line opacity="0.2" x1="254.82506758716937" x2="254.82506758716937" y1="0.5" y2="30"/><line opacity="0.2" x1="266.6741239216619" x2="266.6741239216619" y1="0.5" y2="30"/><line opacity="0.2" x1="262.81871165556237" x2="262.81871165556237" y1="0.5" y2="30"/><line opacity="0.2" x1="245.33715472592644" x2="245.33715472592644" y1="0.5" y2="30"/><line opacity="0.2" x1="308.9133768092985" x2="308.9133768092985" y1="0.5" y2="30"/><line opacity="0.2" x1="361.3572596324426" x2="361.3572596324426" y1="0.5" y2="30"/><line opacity="0.2" x1="73.66610697710482" x2="73.66610697710482" y1="0.5" y2="30"/><line opacity="0.2" x1="411.633853159286" x2="411.633853159286" y1="0.5" y2="30"/><line opacity="0.2" x1="377.532559392036" x2="377.532559392036" y1="0.5" y2="30"/><line opacity="0.2" x1="210.93177298092755" x2="210.93177298092755" y1="0.5" y2="30"/><line opacity="0.2" x1="250.81457559492077" x2="250.81457559492077" y1="0.5" y2="30"/><line opacity="0.2" x1="251.03416274660083" x2="251.03416274660083" y1="0.5" y2="30"/><line opacity="0.2" x1="431.74222861103914" x2="431.74222861103914" y1="0.5" y2="30"/><line opacity="0.2" x1="285.43562300394143" x2="285.43562300394143" y1="0.5" y2="30"/><line opacity="0.2" x1="250.30918501245313" x2="250.30918501245313" y1="0.5" y2="30"/><line opacity="0.2" x1="107.99555979516401" x2="107.99555979516401" y1="0.5" y2="30"/><line opacity="0.2" x1="228.71366905491095" x2="228.71366905491095" y1="0.5" y2="30"/><line opacity="0.2" x1="217.38429602377806" x2="217.38429602377806" y1="0.5" y2="30"/><line opacity="0.2" x1="206.89404229952623" x2="206.89404229952623" y1="0.5" y2="30"/><line opacity="0.2" x1="118.99796983991943" x2="118.99796983991943" y1="0.5" y2="30"/><line opacity="0.2" x1="450.3323120800982" x2="450.3323120800982" y1="0.5" y2="30"/><line opacity="0.2" x1="198.67234744315945" x2="198.67234744315945" y1="0.5" y2="30"/><line opacity="0.2" x1="346.2482097637558" x2="346.2482097637558" y1="0.5" y2="30"/><line opacity="0.2" x1="108.3936089174003" x2="108.3936089174003" y1="0.5" y2="30"/><line opacity="0.2" x1="364.66383156554656" x2="364.66383156554656" y1="0.5" y2="30"/><line opacity="0.2" x1="261.062533105063" x2="261.062533105063" y1="0.5" y2="30"/><line opacity="0.2" x1="320.81844818495074" x2="320.81844818495074" y1="0.5" y2="30"/><line opacity="0.2" x1="277.68598977931043" x2="277.68598977931043" y1="0.5" y2="30"/><line opacity="0.2" x1="156.8495396267329" x2="156.8495396267329" y1="0.5" y2="30"/><line opacity="0.2" x1="146.65940377287367" x2="146.65940377287367" y1="0.5" y2="30"/><line opacity="0.2" x1="272.9077788731643" x2="272.9077788731643" y1="0.5" y2="30"/><line opacity="0.2" x1="373.16037873512533" x2="373.16037873512533" y1="0.5" y2="30"/><line opacity="0.2" x1="304.18830211006957" x2="304.18830211006957" y1="0.5" y2="30"/><line opacity="0.2" x1="263.5835278874181" x2="263.5835278874181" y1="0.5" y2="30"/><line opacity="0.2" x1="297.8446602382943" x2="297.8446602382943" y1="0.5" y2="30"/><line opacity="0.2" x1="250.70117597784542" x2="250.70117597784542" y1="0.5" y2="30"/><line opacity="0.2" x1="150.28244563410954" x2="150.28244563410954" y1="0.5" y2="30"/><line opacity="0.2" x1="335.13317982308877" x2="335.13317982308877" y1="0.5" y2="30"/><line opacity="0.2" x1="250.11718089418832" x2="250.11718089418832" y1="0.5" y2="30"/><line opacity="0.2" x1="347.7091022182803" x2="347.7091022182803" y1="0.5" y2="30"/><line opacity="0.2" x1="335.6195871360556" x2="335.6195871360556" y1="0.5" y2="30"/><line opacity="0.2" x1="249.3620044676297" x2="249.3620044676297" y1="0.5" y2="30"/><line opacity="0.2" x1="281.9798573856861" x2="281.9798573856861" y1="0.5" y2="30"/><line opacity="0.2" x1="308.51404605292703" x2="308.51404605292703" y1="0.5" y2="30"/><line opacity="0.2" x1="222.63560472312474" x2="222.63560472312474" y1="0.5" y2="30"/><line opacity="0.2" x1="131.43081753745557" x2="131.43081753745557" y1="0.5" y2="30"/><line opacity="0.2" x1="281.7912683597642" x2="281.7912683597642" y1="0.5" y2="30"/><line opacity="0.2" x1="284.2726519627326" x2="284.2726519627326" y1="0.5" y2="30"/><line opacity="0.2" x1="378.15153774489437" x2="378.15153774489437" y1="0.5" y2="30"/><line opacity="0.2" x1="315.1734219734738" x2="315.1734219734738" y1="0.5" y2="30"/><line opacity="0.2" x1="329.4104150161866" x2="329.4104150161866" y1="0.5" y2="30"/><line opacity="0.2" x1="449.87691719247" x2="449.87691719247" y1="0.5" y2="30"/><line opacity="0.2" x1="243.1186231151308" x2="243.1186231151308" y1="0.5" y2="30"/><line opacity="0.2" x1="254.70299430519302" x2="254.70299430519302" y1="0.5" y2="30"/><line opacity="0.2" x1="336.6488501848177" x2="336.6488501848177" y1="0.5" y2="30"/><line opacity="0.2" x1="293.8404537324227" x2="293.8404537324227" y1="0.5" y2="30"/><line opacity="0.2" x1="226.4633888274748" x2="226.4633888274748" y1="0.5" y2="30"/><line opacity="0.2" x1="312.8043446116722" x2="312.8043446116722" y1="0.5" y2="30"/><line opacity="0.2" x1="257.4695173335225" x2="257.4695173335225" y1="0.5" y2="30"/><line opacity="0.2" x1="237.95392047304796" x2="237.95392047304796" y1="0.5" y2="30"/><line opacity="0.2" x1="161.59821788587166" x2="161.59821788587166" y1="0.5" y2="30"/><line opacity="0.2" x1="305.09783012894815" x2="305.09783012894815" y1="0.5" y2="30"/><line opacity="0.2" x1="458.23299761570627" x2="458.23299761570627" y1="0.5" y2="30"/><line opacity="0.2" x1="257.65996893175236" x2="257.65996893175236" y1="0.5" y2="30"/><line opacity="0.2" x1="222.05083498035773" x2="222.05083498035773" y1="0.5" y2="30"/><line opacity="0.2" x1="397.18651227902774" x2="397.18651227902774" y1="0.5" y2="30"/><line opacity="0.2" x1="284.415697612513" x2="284.415697612513" y1="0.5" y2="30"/><line opacity="0.2" x1="336.63382367250637" x2="336.63382367250637" y1="0.5" y2="30"/><line opacity="0.2" x1="238.76221150175246" x2="238.76221150175246" y1="0.5" y2="30"/><line opacity="0.2" x1="310.0799265534111" x2="310.0799265534111" y1="0.5" y2="30"/><line opacity="0.2" x1="225.4021318568947" x2="225.4021318568947" y1="0.5" y2="30"/><line opacity="0.2" x1="437.7060036899045" x2="437.7060036899045" y1="0.5" y2="30"/><line opacity="0.2" x1="210.54191519490882" x2="210.54191519490882" y1="0.5" y2="30"/><line opacity="0.2" x1="246.84543867304214" x2="246.84543867304214" y1="0.5" y2="30"/><line opacity="0.2" x1="271.28305762637154" x2="271.28305762637154" y1="0.5" y2="30"/><line opacity="0.2" x1="387.34324507330007" x2="387.34324507330007" y1="0.5" y2="30"/><line opacity="0.2" x1="190.3963524611467" x2="190.3963524611467" y1="0.5" y2="30"/><line opacity="0.2" x1="335.88806900267195" x2="335.88806900267195" y1="0.5" y2="30"/><line opacity="0.2" x1="310.6730611303665" x2="310.6730611303665" y1="0.5" y2="30"/><line opacity="0.2" x1="295.2654088963689" x2="295.2654088963689" y1="0.5" y2="30"/><line opacity="0.2" x1="302.4770951730208" x2="302.4770951730208" y1="0.5" y2="30"/><line opacity="0.2" x1="351.50633154347855" x2="351.50633154347855" y1="0.5" y2="30"/><line opacity="0.2" x1="223.66249819435237" x2="223.66249819435237" y1="0.5" y2="30"/><line opacity="0.2" x1="294.75444258190714" x2="294.75444258190714" y1="0.5" y2="30"/><line opacity="0.2" x1="237.69770837898935" x2="237.69770837898935" y1="0.5" y2="30"/><line opacity="0.2" x1="234.2024681244299" x2="234.2024681244299" y1="0.5" y2="30"/><line opacity="0.2" x1="247.61042006086728" x2="247.61042006086728" y1="0.5" y2="30"/><line opacity="0.2" x1="135.74137492533686" x2="135.74137492533686" y1="0.5" y2="30"/><line opacity="0.2" x1="190.46005629093355" x2="190.46005629093355" y1="0.5" y2="30"/><line opacity="0.2" x1="385.9634484722908" x2="385.9634484722908" y1="0.5" y2="30"/><line opacity="0.2" x1="280.61361866569223" x2="280.61361866569223" y1="0.5" y2="30"/><line opacity="0.2" x1="289.99913310226304" x2="289.99913310226304" y1="0.5" y2="30"/><line opacity="0.2" x1="195.1553034497658" x2="195.1553034497658" y1="0.5" y2="30"/><line opacity="0.2" x1="462.34969501654217" x2="462.34969501654217" y1="0.5" y2="30"/><line opacity="0.2" x1="424.749126301989" x2="424.749126301989" y1="0.5" y2="30"/><line opacity="0.2" x1="384.43554378056933" x2="384.43554378056933" y1="0.5" y2="30"/><line opacity="0.2" x1="351.9316610702762" x2="351.9316610702762" y1="0.5" y2="30"/><line opacity="0.2" x1="363.59061026441753" x2="363.59061026441753" y1="0.5" y2="30"/><line opacity="0.2" x1="385.29525084345414" x2="385.29525084345414" y1="0.5" y2="30"/><line opacity="0.2" x1="259.1061678444295" x2="259.1061678444295" y1="0.5" y2="30"/><line opacity="0.2" x1="313.9888781703869" x2="313.9888781703869" y1="0.5" y2="30"/><line opacity="0.2" x1="307.29782194600756" x2="307.29782194600756" y1="0.5" y2="30"/><line opacity="0.2" x1="112.35284943895948" x2="112.35284943895948" y1="0.5" y2="30"/><line opacity="0.2" x1="174.50497170083443" x2="174.50497170083443" y1="0.5" y2="30"/><line opacity="0.2" x1="110.79935628999894" x2="110.79935628999894" y1="0.5" y2="30"/><line opacity="0.2" x1="280.2377227253848" x2="280.2377227253848" y1="0.5" y2="30"/><line opacity="0.2" x1="402.14698604170934" x2="402.14698604170934" y1="0.5" y2="30"/><line opacity="0.2" x1="81.61267128895014" x2="81.61267128895014" y1="0.5" y2="30"/><line opacity="0.2" x1="192.51975984426602" x2="192.51975984426602" y1="0.5" y2="30"/><line opacity="0.2" x1="291.6840231905039" x2="291.6840231905039" y1="0.5" y2="30"/><line opacity="0.2" x1="316.35717614336704" x2="316.35717614336704" y1="0.5" y2="30"/><line opacity="0.2" x1="337.0035802826485" x2="337.0035802826485" y1="0.5" y2="30"/><line opacity="0.2" x1="356.6816853128683" x2="356.6816853128683" y1="0.5" y2="30"/><line opacity="0.2" x1="334.6738923493535" x2="334.6738923493535" y1="0.5" y2="30"/><line opacity="0.2" x1="272.53264754276165" x2="272.53264754276165" y1="0.5" y2="30"/><line opacity="0.2" x1="261.60630168738027" x2="261.60630168738027" y1="0.5" y2="30"/><line opacity="0.2" x1="331.8114071540288" x2="331.8114071540288" y1="0.5" y2="30"/><line opacity="0.2" x1="365.2785278123554" x2="365.2785278123554" y1="0.5" y2="30"/><line opacity="0.2" x1="320.98819522395365" x2="320.98819522395365" y1="0.5" y2="30"/><line opacity="0.2" x1="130.6608530194004" x2="130.6608530194004" y1="0.5" y2="30"/><line opacity="0.2" x1="290.07671702791623" x2="290.07671702791623" y1="0.5" y2="30"/><line opacity="0.2" x1="188.50680248443842" x2="188.50680248443842" y1="0.5" y2="30"/><line opacity="0.2" x1="305.05919980520855" x2="305.05919980520855" y1="0.5" y2="30"/><line opacity="0.2" x1="206.20158831522534" x2="206.20158831522534" y1="0.5" y2="30"/><line opacity="0.2" x1="150.82485913519923" x2="150.82485913519923" y1="0.5" y2="30"/><line opacity="0.2" x1="255.1228014394222" x2="255.1228014394222" y1="0.5" y2="30"/><line opacity="0.2" x1="255.87820813367145" x2="255.87820813367145" y1="0.5" y2="30"/><line opacity="0.2" x1="335.0035021531746" x2="335.0035021531746" y1="0.5" y2="30"/><line opacity="0.2" x1="418.21089686648367" x2="418.21089686648367" y1="0.5" y2="30"/><line opacity="0.2" x1="247.63325189172124" x2="247.63325189172124" y1="0.5" y2="30"/><line opacity="0.2" x1="232.59248752267024" x2="232.59248752267024" y1="0.5" y2="30"/><line opacity="0.2" x1="262.3721429926168" x2="262.3721429926168" y1="0.5" y2="30"/><line opacity="0.2" x1="383.3746332633312" x2="383.3746332633312" y1="0.5" y2="30"/><line opacity="0.2" x1="325.54012450235456" x2="325.54012450235456" y1="0.5" y2="30"/><line opacity="0.2" x1="521.349912124239" x2="521.349912124239" y1="0.5" y2="30"/><line opacity="0.2" x1="355.6085402399823" x2="355.6085402399823" y1="0.5" y2="30"/><line opacity="0.2" x1="199.85285671462512" x2="199.85285671462512" y1="0.5" y2="30"/><line opacity="0.2" x1="218.280544259868" x2="218.280544259868" y1="0.5" y2="30"/><line opacity="0.2" x1="232.28710439110188" x2="232.28710439110188" y1="0.5" y2="30"/><line opacity="0.2" x1="249.24884149907416" x2="249.24884149907416" y1="0.5" y2="30"/><line opacity="0.2" x1="308.6715552423277" x2="308.6715552423277" y1="0.5" y2="30"/><line opacity="0.2" x1="388.5522445512601" x2="388.5522445512601" y1="0.5" y2="30"/><line opacity="0.2" x1="309.05173866703547" x2="309.05173866703547" y1="0.5" y2="30"/><line opacity="0.2" x1="384.4949522438022" x2="384.4949522438022" y1="0.5" y2="30"/><line opacity="0.2" x1="377.57147590145786" x2="377.57147590145786" y1="0.5" y2="30"/><line opacity="0.2" x1="436.67637041183957" x2="436.67637041183957" y1="0.5" y2="30"/><line opacity="0.2" x1="372.85335796897834" x2="372.85335796897834" y1="0.5" y2="30"/><line opacity="0.2" x1="341.4194137689479" x2="341.4194137689479" y1="0.5" y2="30"/><line opacity="0.2" x1="235.43859177502748" x2="235.43859177502748" y1="0.5" y2="30"/><line opacity="0.2" x1="363.68423056556406" x2="363.68423056556406" y1="0.5" y2="30"/><line opacity="0.2" x1="252.25199652223412" x2="252.25199652223412" y1="0.5" y2="30"/><line opacity="0.2" x1="287.67063308223055" x2="287.67063308223055" y1="0.5" y2="30"/><line opacity="0.2" x1="382.6036368497043" x2="382.6036368497043" y1="0.5" y2="30"/><line opacity="0.2" x1="373.0506267110411" x2="373.0506267110411" y1="0.5" y2="30"/><line opacity="0.2" x1="116.23768720629369" x2="116.23768720629369" y1="0.5" y2="30"/><line opacity="0.2" x1="514.599957501135" x2="514.599957501135" y1="0.5" y2="30"/><line opacity="0.2" x1="226.70200254026662" x2="226.70200254026662" y1="0.5" y2="30"/><line opacity="0.2" x1="303.81627006167975" x2="303.81627006167975" y1="0.5" y2="30"/><line opacity="0.2" x1="164.26848952726405" x2="164.26848952726405" y1="0.5" y2="30"/><line opacity="0.2" x1="299.83299140831355" x2="299.83299140831355" y1="0.5" y2="30"/><line opacity="0.2" x1="246.73863979665418" x2="246.73863979665418" y1="0.5" y2="30"/><line opacity="0.2" x1="144.5585533405218" x2="144.5585533405218" y1="0.5" y2="30"/><line opacity="0.2" x1="365.44580761705106" x2="365.44580761705106" y1="0.5" y2="30"/><line opacity="0.2" x1="299.79984396711404" x2="299.79984396711404" y1="0.5" y2="30"/><line opacity="0.2" x1="267.57573157366386" x2="267.57573157366386" y1="0.5" y2="30"/><line opacity="0.2" x1="268.38838947347733" x2="268.38838947347733" y1="0.5" y2="30"/><line opacity="0.2" x1="309.1653513687017" x2="309.1653513687017" y1="0.5" y2="30"/><line opacity="0.2" x1="276.0104651511943" x2="276.0104651511943" y1="0.5" y2="30"/><line opacity="0.2" x1="339.52590066551136" x2="339.52590066551136" y1="0.5" y2="30"/><line opacity="0.2" x1="154.6158846353622" x2="154.6158846353622" y1="0.5" y2="30"/><line opacity="0.2" x1="308.43231423383344" x2="308.43231423383344" y1="0.5" y2="30"/><line opacity="0.2" x1="348.85056291814533" x2="348.85056291814533" y1="0.5" y2="30"/><line opacity="0.2" x1="292.5216415559831" x2="292.5216415559831" y1="0.5" y2="30"/><line opacity="0.2" x1="235.7866617797481" x2="235.7866617797481" y1="0.5" y2="30"/><line opacity="0.2" x1="180.30853220930274" x2="180.30853220930274" y1="0.5" y2="30"/><line opacity="0.2" x1="181.2141777012987" x2="181.2141777012987" y1="0.5" y2="30"/><line opacity="0.2" x1="412.2127893313864" x2="412.2127893313864" y1="0.5" y2="30"/><line opacity="0.2" x1="249.15801111188995" x2="249.15801111188995" y1="0.5" y2="30"/><line opacity="0.2" x1="446.6194834239659" x2="446.6194834239659" y1="0.5" y2="30"/><line opacity="0.2" x1="431.85202054112443" x2="431.85202054112443" y1="0.5" y2="30"/><line opacity="0.2" x1="291.33993760394674" x2="291.33993760394674" y1="0.5" y2="30"/><line opacity="0.2" x1="347.4897636119169" x2="347.4897636119169" y1="0.5" y2="30"/><line opacity="0.2" x1="300.8337906199531" x2="300.8337906199531" y1="0.5" y2="30"/><line opacity="0.2" x1="456.8327979059686" x2="456.8327979059686" y1="0.5" y2="30"/><line opacity="0.2" x1="296.34749693866854" x2="296.34749693866854" y1="0.5" y2="30"/><line opacity="0.2" x1="351.61646647614236" x2="351.61646647614236" y1="0.5" y2="30"/><line opacity="0.2" x1="79.14934022359047" x2="79.14934022359047" y1="0.5" y2="30"/><line opacity="0.2" x1="352.098574245159" x2="352.098574245159" y1="0.5" y2="30"/><line opacity="0.2" x1="284.79340351747726" x2="284.79340351747726" y1="0.5" y2="30"/><line opacity="0.2" x1="330.14702448703156" x2="330.14702448703156" y1="0.5" y2="30"/><line opacity="0.2" x1="242.11620221405704" x2="242.11620221405704" y1="0.5" y2="30"/><line opacity="0.2" x1="205.8229737903315" x2="205.8229737903315" y1="0.5" y2="30"/><line opacity="0.2" x1="139.4427453358482" x2="139.4427453358482" y1="0.5" y2="30"/><line opacity="0.2" x1="301.5490858223977" x2="301.5490858223977" y1="0.5" y2="30"/><line opacity="0.2" x1="230.06137898259175" x2="230.06137898259175" y1="0.5" y2="30"/><line opacity="0.2" x1="339.9741938256118" x2="339.9741938256118" y1="0.5" y2="30"/><line opacity="0.2" x1="270.7872970429652" x2="270.7872970429652" y1="0.5" y2="30"/><line opacity="0.2" x1="242.5473419820787" x2="242.5473419820787" y1="0.5" y2="30"/><line opacity="0.2" x1="313.2530900939667" x2="313.2530900939667" y1="0.5" y2="30"/><line opacity="0.2" x1="194.53060220740835" x2="194.53060220740835" y1="0.5" y2="30"/><line opacity="0.2" x1="81.68530400905732" x2="81.68530400905732" y1="0.5" y2="30"/><line opacity="0.2" x1="266.7843210832203" x2="266.7843210832203" y1="0.5" y2="30"/><line opacity="0.2" x1="168.24569817055246" x2="168.24569817055246" y1="0.5" y2="30"/><line opacity="0.2" x1="252.40213628969127" x2="252.40213628969127" y1="0.5" y2="30"/><line opacity="0.2" x1="266.8101364746428" x2="266.8101364746428" y1="0.5" y2="30"/><line opacity="0.2" x1="183.3403098248597" x2="183.3403098248597" y1="0.5" y2="30"/><line opacity="0.2" x1="96.54027265087667" x2="96.54027265087667" y1="0.5" y2="30"/><line opacity="0.2" x1="169.93284568104866" x2="169.93284568104866" y1="0.5" y2="30"/><line opacity="0.2" x1="158.92342625179154" x2="158.92342625179154" y1="0.5" y2="30"/><line opacity="0.2" x1="147.78385324805657" x2="147.78385324805657" y1="0.5" y2="30"/><line opacity="0.2" x1="195.5824003694657" x2="195.5824003694657" y1="0.5" y2="30"/><line opacity="0.2" x1="271.4819599532271" x2="271.4819599532271" y1="0.5" y2="30"/><line opacity="0.2" x1="241.4410374802404" x2="241.4410374802404" y1="0.5" y2="30"/><line opacity="0.2" x1="303.34848152464957" x2="303.34848152464957" y1="0.5" y2="30"/><line opacity="0.2" x1="217.2220994538368" x2="217.2220994538368" y1="0.5" y2="30"/><line opacity="0.2" x1="183.2411174646809" x2="183.2411174646809" y1="0.5" y2="30"/><line opacity="0.2" x1="144.93685308757227" x2="144.93685308757227" y1="0.5" y2="30"/><line opacity="0.2" x1="309.3217479135266" x2="309.3217479135266" y1="0.5" y2="30"/><line opacity="0.2" x1="118.87128756835229" x2="118.87128756835229" y1="0.5" y2="30"/><line opacity="0.2" x1="281.1230318292623" x2="281.1230318292623" y1="0.5" y2="30"/><line opacity="0.2" x1="336.57499576471264" x2="336.57499576471264" y1="0.5" y2="30"/><line opacity="0.2" x1="324.60295204033304" x2="324.60295204033304" y1="0.5" y2="30"/><line opacity="0.2" x1="307.25620749615933" x2="307.25620749615933" y1="0.5" y2="30"/><line opacity="0.2" x1="253.3756791530869" x2="253.3756791530869" y1="0.5" y2="30"/><line opacity="0.2" x1="150.47444115789372" x2="150.47444115789372" y1="0.5" y2="30"/><line opacity="0.2" x1="158.20458123426025" x2="158.20458123426025" y1="0.5" y2="30"/><line opacity="0.2" x1="256.15840650648676" x2="256.15840650648676" y1="0.5" y2="30"/><line opacity="0.2" x1="195.88560135023278" x2="195.88560135023278" y1="0.5" y2="30"/><line opacity="0.2" x1="209.0501530770966" x2="209.0501530770966" y1="0.5" y2="30"/><line opacity="0.2" x1="237.17174878623467" x2="237.17174878623467" y1="0.5" y2="30"/><line opacity="0.2" x1="273.8692468265232" x2="273.8692468265232" y1="0.5" y2="30"/><line opacity="0.2" x1="317.0168950540402" x2="317.0168950540402" y1="0.5" y2="30"/><line opacity="0.2" x1="240.32096423592955" x2="240.32096423592955" y1="0.5" y2="30"/><line opacity="0.2" x1="333.38509005382906" x2="333.38509005382906" y1="0.5" y2="30"/><line opacity="0.2" x1="215.44233152334618" x2="215.44233152334618" y1="0.5" y2="30"/><line opacity="0.2" x1="183.3406901834312" x2="183.3406901834312" y1="0.5" y2="30"/><line opacity="0.2" x1="436.5427857640184" x2="436.5427857640184" y1="0.5" y2="30"/><line opacity="0.2" x1="139.17008017414642" x2="139.17008017414642" y1="0.5" y2="30"/><line opacity="0.2" x1="399.70168102041384" x2="399.70168102041384" y1="0.5" y2="30"/><line opacity="0.2" x1="285.5656192276167" x2="285.5656192276167" y1="0.5" y2="30"/><line opacity="0.2" x1="356.1165648265438" x2="356.1165648265438" y1="0.5" y2="30"/><line opacity="0.2" x1="143.26359062152963" x2="143.26359062152963" y1="0.5" y2="30"/><line opacity="0.2" x1="116.01969552480566" x2="116.01969552480566" y1="0.5" y2="30"/><line opacity="0.2" x1="183.71197998492238" x2="183.71197998492238" y1="0.5" y2="30"/><line opacity="0.2" x1="208.34462919112173" x2="208.34462919112173" y1="0.5" y2="30"/><line opacity="0.2" x1="282.8217396536011" x2="282.8217396536011" y1="0.5" y2="30"/><line opacity="0.2" x1="284.6655335673978" x2="284.6655335673978" y1="0.5" y2="30"/><line opacity="0.2" x1="370.9169370583457" x2="370.9169370583457" y1="0.5" y2="30"/><line opacity="0.2" x1="352.70519153521593" x2="352.70519153521593" y1="0.5" y2="30"/><line opacity="0.2" x1="312.4872882756258" x2="312.4872882756258" y1="0.5" y2="30"/><line opacity="0.2" x1="396.6851688053197" x2="396.6851688053197" y1="0.5" y2="30"/><line opacity="0.2" x1="405.6633117416964" x2="405.6633117416964" y1="0.5" y2="30"/><line opacity="0.2" x1="392.9034210922748" x2="392.9034210922748" y1="0.5" y2="30"/><line opacity="0.2" x1="270.97711068349116" x2="270.97711068349116" y1="0.5" y2="30"/><line opacity="0.2" x1="228.34110649645683" x2="228.34110649645683" y1="0.5" y2="30"/></g></svg>