<svg xmlns="http://www.w3.org/2000/svg" xmlns:xlink="http://www.w3.org/1999/xlink" class="plot-f0dbce8876a2f" fill="currentColor" font-family="system-ui, sans-serif" font-size="10" text-anchor="middle" width="640" height="400" viewBox="0 0 640 400" style="color: black;"><style>
        .plot-f0dbce8876a2f {
          display: block;
          background: white;
          height: auto;
          height: intrinsic;
          max-width: 100%;
        }
        .plot-f0dbce8876a2f text,
        .plot-f0dbce8876a2f tspan {
          white-space: pre;
        }
      </style><g aria-label="y-axis tick" fill="none" stroke="currentColor" transform="translate(0,0.5)"><path transform="translate(40,377.4441879183275)" d="M0,0L-6,0"/><path transform="translate(40,352.63102983643614)" d="M0,0L-6,0"/><path transform="translate(40,327.8178717545447)" d="M0,0L-6,0"/><path transform="translate(40,303.00471367265334)" d="M0,0L-6,0"/><path transform="translate(40,278.1915555907619)" d="M0,0L-6,0"/><path transform="translate(40,253.3783975088705)" d="M0,0L-6,0"/><path transform="translate(40,228.5652394269791)" d="M0,0L-6,0"/><path transform="translate(40,203.7520813450877)" d="M0,0L-6,0"/><path transform="translate(40,178.93892326319633)" d="M0,0L-6,0"/><path transform="translate(40,154.1257651813049)" d="M0,0L-6,0"/><path transform="translate(40,129.31260709941353)" d="M0,0L-6,0"/><path transform="translate(40,104.4994490175221)" d="M0,0L-6,0"/><path transform="translate(40,79.68629093563072)" d="M0,0L-6,0"/><path transform="translate(40,54.87313285373929)" d="M0,0L-6,0"/><path transform="translate(40,30.05997477184791)" d="M0,0L-6,0"/></g><g aria-label="y-axis tick label" text-anchor="end" font-variant="tabular-nums" transform="translate(-8.5,0.5)"><text y="0.32em" transform="translate(40,377.4441879183275)">−13</text><text y="0.32em" transform="translate(40,352.63102983643614)">−12</text><text y="0.32em" transform="translate(40,327.8178717545447)">−11</text><text y="0.32em" transform="translate(40,303.00471367265334)">−10</text><text y="0.32em" transform="translate(40,278.1915555907619)">−9</text><text y="0.32em" transform="translate(40,253.3783975088705)">−8</text><text y="0.32em" transform="translate(40,228.5652394269791)">−7</text><text y="0.32em" transform="translate(40,203.7520813450877)">−6</text><text y="0.32em" transform="translate(40,178.93892326319633)">−5</text><text y="0.32em" transform="translate(40,154.1257651813049)">−4</text><text y="0.32em" transform="translate(40,129.31260709941353)">−3</text><text y="0.32em" transform="translate(40,104.4994490175221)">−2</text><text y="0.32em" transform="translate(40,79.68629093563072)">−1</text><text y="0.32em" transform="translate(40,54.87313285373929)">0</text><text y="0.32em" transform="translate(40,30.05997477184791)">1</text></g><g aria-label="line" fill="none" stroke="currentColor" stroke-width="1.5" stroke-linejoin="round" stroke-linecap="round" transform="translate(0.5,0.5)"><path d="M40,107.31L46.051,112.52L52.101,88.673L58.152,85.925L64.202,59.976L70.253,38.148L76.303,31.75L82.354,53.231L88.404,70.55L94.455,84.957L100.505,98.359L106.556,61.558L112.606,56.195L118.657,57.139L124.707,68.529L130.758,89.967L136.808,65.583L142.859,36.78L148.909,87.482L154.96,89.465L161.01,104.838L167.061,78.443L173.111,43.671L179.162,74.81L185.212,20L191.263,66.353L197.313,44.391L203.364,68.995L209.414,116.308L215.465,137.885L221.515,150.352L227.566,146.561L233.616,192.248L239.667,197.993L245.717,208.931L251.768,263L257.818,300.317L263.869,291.233L269.919,313.893L275.97,300.455L282.02,290.57L288.071,279.272L294.121,256.679L300.172,264.292L306.222,273.034L312.273,305.736L318.323,312.573L324.374,321.895L330.424,294.777L336.475,286.794L342.525,257.197L348.576,272.581L354.626,270.11L360.677,293.519L366.727,265.954L372.778,265.953L378.828,245.062L384.879,303.628L390.929,349.585L396.98,342.914L403.03,346.817L409.081,375.421L415.131,380L421.182,354.107L427.232,346.781L433.283,261.264L439.333,281.054L445.384,267.053L451.434,261.838L457.485,263.87L463.535,303.278L469.586,318.321L475.636,313.983L481.687,331.52L487.737,310.991L493.788,302.219L499.838,318.013L505.889,325.907L511.939,339.537L517.99,282.277L524.04,273.746L530.091,287.799L536.141,264.415L542.192,261.041L548.242,250.356L554.293,257.672L560.343,231.615L566.394,210.289L572.444,217.557L578.495,212.585L584.545,238.367L590.596,267.758L596.646,241.048L602.697,253.947L608.747,230.083L614.798,227.921L620.848,230.019L626.899,187.423L632.949,193.881L639,157.098"/></g></svg>