<svg xmlns="http://www.w3.org/2000/svg" xmlns:xlink="http://www.w3.org/1999/xlink" class="plot-d6a7b5" fill="currentColor" font-family="system-ui, sans-serif" font-size="10" text-anchor="middle" width="640" height="400" viewBox="0 0 640 400" style="color: black; background-color: white;"><style>.plot-d6a7b5 {
  display: block;
  background: white;
  height: auto;
  height: intrinsic;
  max-width: 100%;
}
.plot-d6a7b5 text,
.plot-d6a7b5 tspan {
  white-space: pre;
}</style><g aria-label="y-axis tick" fill="none" stroke="currentColor"><path transform="translate(40,363.1895273445303)" d="M0,0L-6,0"/><path transform="translate(40,317.7920356683352)" d="M0,0L-6,0"/><path transform="translate(40,272.3945439921401)" d="M0,0L-6,0"/><path transform="translate(40,226.99705231594498)" d="M0,0L-6,0"/><path transform="translate(40,181.59956063974988)" d="M0,0L-6,0"/><path transform="translate(40,136.20206896355478)" d="M0,0L-6,0"/><path transform="translate(40,90.80457728735969)" d="M0,0L-6,0"/><path transform="translate(40,45.407085611164575)" d="M0,0L-6,0"/></g><g aria-label="y-axis tick label" text-anchor="end" font-variant="tabular-nums" transform="translate(-9,0)"><text y="0.32em" transform="translate(40,363.1895273445303)">−7</text><text y="0.32em" transform="translate(40,317.7920356683352)">−6</text><text y="0.32em" transform="translate(40,272.3945439921401)">−5</text><text y="0.32em" transform="translate(40,226.99705231594498)">−4</text><text y="0.32em" transform="translate(40,181.59956063974988)">−3</text><text y="0.32em" transform="translate(40,136.20206896355478)">−2</text><text y="0.32em" transform="translate(40,90.80457728735969)">−1</text><text y="0.32em" transform="translate(40,45.407085611164575)">0</text></g><g aria-label="rule" stroke="steelblue"><line x1="40" x2="639.5" y1="45.407085611164575" y2="45.407085611164575"/></g><g aria-label="line" fill="none" stroke="currentColor" stroke-width="1.5" stroke-linejoin="round" stroke-linecap="round"><path d="M40,122.961L46.056,94.763L52.111,101.795L58.167,73.805L64.222,167.526L70.278,204.323L76.333,195.001L82.389,282.003L88.444,257.98L94.5,254.68L100.556,296.577L106.611,349.147L112.667,280.848L118.722,246.729L124.778,266.23L130.833,271.183L136.889,152.994L142.944,226.265L149,158.567L155.056,195.057L161.111,179.994L167.167,177.499L173.222,186.903L179.278,243.797L185.333,298.719L191.389,304.629L197.444,271.399L203.5,284.423L209.556,318.069L215.611,313.969L221.667,327.682L227.722,353.092L233.778,314.614L239.833,338.642L245.889,320.735L251.944,254.709L258,278.158L264.056,303.283L270.111,237.534L276.167,242.542L282.222,219.219L288.278,222.175L294.333,248.945L300.389,274.318L306.444,246.994L312.5,273.894L318.556,224.06L324.611,189.204L330.667,204.224L336.722,168.487L342.778,113.951L348.833,87.632L354.889,58.73L360.944,49.241L367,101.74L373.056,66.392L379.111,102.87L385.167,112.238L391.222,158.992L397.278,135.328L403.333,100.493L409.389,104.424L415.444,133.009L421.5,93.693L427.556,69.001L433.611,221.191L439.667,195.227L445.722,219.786L451.778,273.91L457.833,367.725L463.889,380L469.944,313.876L476,286.552L482.056,272.839L488.111,187.147L494.167,166.51L500.222,166.261L506.278,137.01L512.333,183.283L518.389,281.15L524.444,255.721L530.5,203.413L536.556,215.612L542.611,167.366L548.667,156.948L554.722,101.039L560.778,20L566.833,43.682L572.889,28.679L578.944,114.161L585,97.444L591.056,173.932L597.111,250.734L603.167,239.146L609.222,181.743L615.278,68.504L621.333,179.307L627.389,121.385L633.444,186.727L639.5,150.972"/></g></svg>