<svg xmlns="http://www.w3.org/2000/svg" xmlns:xlink="http://www.w3.org/1999/xlink" class="plot-d6a7b5" fill="currentColor" font-family="system-ui, sans-serif" font-size="10" text-anchor="middle" width="640" height="60" viewBox="0 0 640 60" style="color: black; background-color: white;"><style>:where(.plot-d6a7b5) {
  --plot-background: white;
  display: block;
  height: auto;
  height: intrinsic;
  max-width: 100%;
}
:where(.plot-d6a7b5 text),
:where(.plot-d6a7b5 tspan) {
  white-space: pre;
}</style><g aria-label="x-axis tick" aria-hidden="true" fill="none" stroke="currentColor"><path transform="translate(47.839088702042105,30)" d="M0,0L0,6"/><path transform="translate(141.31553396180598,30)" d="M0,0L0,6"/><path transform="translate(234.79197922156993,30)" d="M0,0L0,6"/><path transform="translate(328.2684244813338,30)" d="M0,0L0,6"/><path transform="translate(421.7448697410977,30)" d="M0,0L0,6"/><path transform="translate(515.2213150008618,30)" d="M0,0L0,6"/><path transform="translate(608.6977602606256,30)" d="M0,0L0,6"/></g><g aria-label="x-axis tick label" font-variant="tabular-nums" transform="translate(0,9)"><text y="0.71em" transform="translate(47.839088702042105,30)">−3</text><text y="0.71em" transform="translate(141.31553396180598,30)">−2</text><text y="0.71em" transform="translate(234.79197922156993,30)">−1</text><text y="0.71em" transform="translate(328.2684244813338,30)">0</text><text y="0.71em" transform="translate(421.7448697410977,30)">1</text><text y="0.71em" transform="translate(515.2213150008618,30)">2</text><text y="0.71em" transform="translate(608.6977602606256,30)">3</text></g><g aria-label="tick" stroke="steelblue"><line opacity="0.2" x1="407.99573585215484" x2="407.99573585215484" y1="0.5" y2="30"/><line opacity="0.2" x1="168.47465568272915" x2="168.47465568272915" y1="0.5" y2="30"/><line opacity="0.2" x1="228.62835305669566" x2="228.62835305669566" y1="0.5" y2="30"/><line opacity="0.2" x1="387.7547718576054" x2="387.7547718576054" y1="0.5" y2="30"/><line opacity="0.2" x1="231.2869783632275" x2="231.2869783632275" y1="0.5" y2="30"/><line opacity="0.2" x1="440.57708369928713" x2="440.57708369928713" y1="0.5" y2="30"/><line opacity="0.2" x1="479.4674248404662" x2="479.4674248404662" y1="0.5" y2="30"/><line opacity="0.2" x1="322.6827075903627" x2="322.6827075903627" y1="0.5" y2="30"/><line opacity="0.2" x1="474.20566921978633" x2="474.20566921978633" y1="0.5" y2="30"/><line opacity="0.2" x1="349.30148911559945" x2="349.30148911559945" y1="0.5" y2="30"/><line opacity="0.2" x1="498.7670917410508" x2="498.7670917410508" y1="0.5" y2="30"/><line opacity="0.2" x1="251.0497786482789" x2="251.0497786482789" y1="0.5" y2="30"/><line opacity="0.2" x1="365.722390320235" x2="365.722390320235" y1="0.5" y2="30"/><line opacity="0.2" x1="423.71339059681844" x2="423.71339059681844" y1="0.5" y2="30"/><line opacity="0.2" x1="401.48120446720833" x2="401.48120446720833" y1="0.5" y2="30"/><line opacity="0.2" x1="502.52686901409334" x2="502.52686901409334" y1="0.5" y2="30"/><line opacity="0.2" x1="269.7577009752361" x2="269.7577009752361" y1="0.5" y2="30"/><line opacity="0.2" x1="401.74299129663854" x2="401.74299129663854" y1="0.5" y2="30"/><line opacity="0.2" x1="525.1007157212523" x2="525.1007157212523" y1="0.5" y2="30"/><line opacity="0.2" x1="229.06031140824743" x2="229.06031140824743" y1="0.5" y2="30"/><line opacity="0.2" x1="387.8964334198693" x2="387.8964334198693" y1="0.5" y2="30"/><line opacity="0.2" x1="366.1891380654382" x2="366.1891380654382" y1="0.5" y2="30"/><line opacity="0.2" x1="260.84138078823054" x2="260.84138078823054" y1="0.5" y2="30"/><line opacity="0.2" x1="360.3781808387577" x2="360.3781808387577" y1="0.5" y2="30"/><line opacity="0.2" x1="427.5947454747667" x2="427.5947454747667" y1="0.5" y2="30"/><line opacity="0.2" x1="275.34349785596464" x2="275.34349785596464" y1="0.5" y2="30"/><line opacity="0.2" x1="498.35217818495374" x2="498.35217818495374" y1="0.5" y2="30"/><line opacity="0.2" x1="325.9035373438749" x2="325.9035373438749" y1="0.5" y2="30"/><line opacity="0.2" x1="96.1197301720603" x2="96.1197301720603" y1="0.5" y2="30"/><line opacity="0.2" x1="254.62166562878306" x2="254.62166562878306" y1="0.5" y2="30"/><line opacity="0.2" x1="271.5570740246513" x2="271.5570740246513" y1="0.5" y2="30"/><line opacity="0.2" x1="146.74875065397535" x2="146.74875065397535" y1="0.5" y2="30"/><line opacity="0.2" x1="237.29817406246138" x2="237.29817406246138" y1="0.5" y2="30"/><line opacity="0.2" x1="219.08819889992893" x2="219.08819889992893" y1="0.5" y2="30"/><line opacity="0.2" x1="205.69416040954258" x2="205.69416040954258" y1="0.5" y2="30"/><line opacity="0.2" x1="377.57521476420106" x2="377.57521476420106" y1="0.5" y2="30"/><line opacity="0.2" x1="334.3465683468636" x2="334.3465683468636" y1="0.5" y2="30"/><line opacity="0.2" x1="377.0896415624524" x2="377.0896415624524" y1="0.5" y2="30"/><line opacity="0.2" x1="220.43953255028214" x2="220.43953255028214" y1="0.5" y2="30"/><line opacity="0.2" x1="158.44586468323436" x2="158.44586468323436" y1="0.5" y2="30"/><line opacity="0.2" x1="349.44031311719624" x2="349.44031311719624" y1="0.5" y2="30"/><line opacity="0.2" x1="408.65292948550814" x2="408.65292948550814" y1="0.5" y2="30"/><line opacity="0.2" x1="276.441486721679" x2="276.441486721679" y1="0.5" y2="30"/><line opacity="0.2" x1="278.4539377363952" x2="278.4539377363952" y1="0.5" y2="30"/><line opacity="0.2" x1="207.29633346156163" x2="207.29633346156163" y1="0.5" y2="30"/><line opacity="0.2" x1="380.69507426456687" x2="380.69507426456687" y1="0.5" y2="30"/><line opacity="0.2" x1="131.46056878923258" x2="131.46056878923258" y1="0.5" y2="30"/><line opacity="0.2" x1="361.4534624865724" x2="361.4534624865724" y1="0.5" y2="30"/><line opacity="0.2" x1="343.1377324901293" x2="343.1377324901293" y1="0.5" y2="30"/><line opacity="0.2" x1="344.38940733349733" x2="344.38940733349733" y1="0.5" y2="30"/><line opacity="0.2" x1="190.4173819898537" x2="190.4173819898537" y1="0.5" y2="30"/><line opacity="0.2" x1="296.5853859975756" x2="296.5853859975756" y1="0.5" y2="30"/><line opacity="0.2" x1="342.1510735924138" x2="342.1510735924138" y1="0.5" y2="30"/><line opacity="0.2" x1="294.91339958760415" x2="294.91339958760415" y1="0.5" y2="30"/><line opacity="0.2" x1="265.4011198514405" x2="265.4011198514405" y1="0.5" y2="30"/><line opacity="0.2" x1="428.4421808647628" x2="428.4421808647628" y1="0.5" y2="30"/><line opacity="0.2" x1="341.15841426592834" x2="341.15841426592834" y1="0.5" y2="30"/><line opacity="0.2" x1="333.43438914599665" x2="333.43438914599665" y1="0.5" y2="30"/><line opacity="0.2" x1="361.5804211830774" x2="361.5804211830774" y1="0.5" y2="30"/><line opacity="0.2" x1="318.87425575873976" x2="318.87425575873976" y1="0.5" y2="30"/><line opacity="0.2" x1="331.19262389590256" x2="331.19262389590256" y1="0.5" y2="30"/><line opacity="0.2" x1="257.1198133574528" x2="257.1198133574528" y1="0.5" y2="30"/><line opacity="0.2" x1="339.21352047310324" x2="339.21352047310324" y1="0.5" y2="30"/><line opacity="0.2" x1="390.6679053896049" x2="390.6679053896049" y1="0.5" y2="30"/><line opacity="0.2" x1="332.3495791760282" x2="332.3495791760282" y1="0.5" y2="30"/><line opacity="0.2" x1="293.1105186231566" x2="293.1105186231566" y1="0.5" y2="30"/><line opacity="0.2" x1="411.5950321776695" x2="411.5950321776695" y1="0.5" y2="30"/><line opacity="0.2" x1="388.95192624863273" x2="388.95192624863273" y1="0.5" y2="30"/><line opacity="0.2" x1="397.15331374572816" x2="397.15331374572816" y1="0.5" y2="30"/><line opacity="0.2" x1="227.98233478458596" x2="227.98233478458596" y1="0.5" y2="30"/><line opacity="0.2" x1="299.6741752841515" x2="299.6741752841515" y1="0.5" y2="30"/><line opacity="0.2" x1="415.84054437007086" x2="415.84054437007086" y1="0.5" y2="30"/><line opacity="0.2" x1="456.6493925064415" x2="456.6493925064415" y1="0.5" y2="30"/><line opacity="0.2" x1="197.38629004443237" x2="197.38629004443237" y1="0.5" y2="30"/><line opacity="0.2" x1="270.75088941287754" x2="270.75088941287754" y1="0.5" y2="30"/><line opacity="0.2" x1="423.18468340730936" x2="423.18468340730936" y1="0.5" y2="30"/><line opacity="0.2" x1="363.3682658477719" x2="363.3682658477719" y1="0.5" y2="30"/><line opacity="0.2" x1="248.72304326419132" x2="248.72304326419132" y1="0.5" y2="30"/><line opacity="0.2" x1="225.03537603098303" x2="225.03537603098303" y1="0.5" y2="30"/><line opacity="0.2" x1="267.5876076535962" x2="267.5876076535962" y1="0.5" y2="30"/><line opacity="0.2" x1="301.1450943976023" x2="301.1450943976023" y1="0.5" y2="30"/><line opacity="0.2" x1="445.16178203928047" x2="445.16178203928047" y1="0.5" y2="30"/><line opacity="0.2" x1="221.012223321441" x2="221.012223321441" y1="0.5" y2="30"/><line opacity="0.2" x1="310.9408919753762" x2="310.9408919753762" y1="0.5" y2="30"/><line opacity="0.2" x1="270.42184265256793" x2="270.42184265256793" y1="0.5" y2="30"/><line opacity="0.2" x1="240.57638338207838" x2="240.57638338207838" y1="0.5" y2="30"/><line opacity="0.2" x1="262.75622217253544" x2="262.75622217253544" y1="0.5" y2="30"/><line opacity="0.2" x1="452.82381887601315" x2="452.82381887601315" y1="0.5" y2="30"/><line opacity="0.2" x1="379.9233556046057" x2="379.9233556046057" y1="0.5" y2="30"/><line opacity="0.2" x1="236.3102342952052" x2="236.3102342952052" y1="0.5" y2="30"/><line opacity="0.2" x1="436.519613794414" x2="436.519613794414" y1="0.5" y2="30"/><line opacity="0.2" x1="274.8531281007168" x2="274.8531281007168" y1="0.5" y2="30"/><line opacity="0.2" x1="539.8571362064264" x2="539.8571362064264" y1="0.5" y2="30"/><line opacity="0.2" x1="194.8447486276074" x2="194.8447486276074" y1="0.5" y2="30"/><line opacity="0.2" x1="405.0746513006849" x2="405.0746513006849" y1="0.5" y2="30"/><line opacity="0.2" x1="445.0985780317915" x2="445.0985780317915" y1="0.5" y2="30"/><line opacity="0.2" x1="350.3479161284745" x2="350.3479161284745" y1="0.5" y2="30"/><line opacity="0.2" x1="309.2090671846176" x2="309.2090671846176" y1="0.5" y2="30"/><line opacity="0.2" x1="306.5103079126445" x2="306.5103079126445" y1="0.5" y2="30"/><line opacity="0.2" x1="487.17991073282934" x2="487.17991073282934" y1="0.5" y2="30"/><line opacity="0.2" x1="381.576455832715" x2="381.576455832715" y1="0.5" y2="30"/><line opacity="0.2" x1="356.3038986788072" x2="356.3038986788072" y1="0.5" y2="30"/><line opacity="0.2" x1="339.3772369295484" x2="339.3772369295484" y1="0.5" y2="30"/><line opacity="0.2" x1="273.7695214240216" x2="273.7695214240216" y1="0.5" y2="30"/><line opacity="0.2" x1="419.0401997895208" x2="419.0401997895208" y1="0.5" y2="30"/><line opacity="0.2" x1="475.1782344629395" x2="475.1782344629395" y1="0.5" y2="30"/><line opacity="0.2" x1="620" x2="620" y1="0.5" y2="30"/><line opacity="0.2" x1="301.36498426064685" x2="301.36498426064685" y1="0.5" y2="30"/><line opacity="0.2" x1="478.0836577877313" x2="478.0836577877313" y1="0.5" y2="30"/><line opacity="0.2" x1="334.9026556978761" x2="334.9026556978761" y1="0.5" y2="30"/><line opacity="0.2" x1="243.34701762934907" x2="243.34701762934907" y1="0.5" y2="30"/><line opacity="0.2" x1="347.0961444225849" x2="347.0961444225849" y1="0.5" y2="30"/><line opacity="0.2" x1="417.33431789582755" x2="417.33431789582755" y1="0.5" y2="30"/><line opacity="0.2" x1="234.23671443658188" x2="234.23671443658188" y1="0.5" y2="30"/><line opacity="0.2" x1="215.17124944137902" x2="215.17124944137902" y1="0.5" y2="30"/><line opacity="0.2" x1="273.1465603247654" x2="273.1465603247654" y1="0.5" y2="30"/><line opacity="0.2" x1="336.92937057313884" x2="336.92937057313884" y1="0.5" y2="30"/><line opacity="0.2" x1="213.7158823673804" x2="213.7158823673804" y1="0.5" y2="30"/><line opacity="0.2" x1="208.07637921769967" x2="208.07637921769967" y1="0.5" y2="30"/><line opacity="0.2" x1="309.8017323034809" x2="309.8017323034809" y1="0.5" y2="30"/><line opacity="0.2" x1="481.0615206552437" x2="481.0615206552437" y1="0.5" y2="30"/><line opacity="0.2" x1="229.11180128402864" x2="229.11180128402864" y1="0.5" y2="30"/><line opacity="0.2" x1="277.568210801424" x2="277.568210801424" y1="0.5" y2="30"/><line opacity="0.2" x1="472.20503768907423" x2="472.20503768907423" y1="0.5" y2="30"/><line opacity="0.2" x1="280.2683596344108" x2="280.2683596344108" y1="0.5" y2="30"/><line opacity="0.2" x1="350.66128563511245" x2="350.66128563511245" y1="0.5" y2="30"/><line opacity="0.2" x1="255.44143889026492" x2="255.44143889026492" y1="0.5" y2="30"/><line opacity="0.2" x1="443.2043303632642" x2="443.2043303632642" y1="0.5" y2="30"/><line opacity="0.2" x1="251.91791691869838" x2="251.91791691869838" y1="0.5" y2="30"/><line opacity="0.2" x1="250.13917807874287" x2="250.13917807874287" y1="0.5" y2="30"/><line opacity="0.2" x1="352.8440099608391" x2="352.8440099608391" y1="0.5" y2="30"/><line opacity="0.2" x1="246.4716009683303" x2="246.4716009683303" y1="0.5" y2="30"/><line opacity="0.2" x1="303.06718070293914" x2="303.06718070293914" y1="0.5" y2="30"/><line opacity="0.2" x1="217.5668935779961" x2="217.5668935779961" y1="0.5" y2="30"/><line opacity="0.2" x1="235.8956633317296" x2="235.8956633317296" y1="0.5" y2="30"/><line opacity="0.2" x1="218.51448599172045" x2="218.51448599172045" y1="0.5" y2="30"/><line opacity="0.2" x1="442.75975966803094" x2="442.75975966803094" y1="0.5" y2="30"/><line opacity="0.2" x1="405.26276111294806" x2="405.26276111294806" y1="0.5" y2="30"/><line opacity="0.2" x1="441.35920591905494" x2="441.35920591905494" y1="0.5" y2="30"/><line opacity="0.2" x1="352.5657455696646" x2="352.5657455696646" y1="0.5" y2="30"/><line opacity="0.2" x1="426.46212728283353" x2="426.46212728283353" y1="0.5" y2="30"/><line opacity="0.2" x1="201.45227833999598" x2="201.45227833999598" y1="0.5" y2="30"/><line opacity="0.2" x1="292.71507905451006" x2="292.71507905451006" y1="0.5" y2="30"/><line opacity="0.2" x1="249.36096745575634" x2="249.36096745575634" y1="0.5" y2="30"/><line opacity="0.2" x1="269.94592707332936" x2="269.94592707332936" y1="0.5" y2="30"/><line opacity="0.2" x1="307.719223064966" x2="307.719223064966" y1="0.5" y2="30"/><line opacity="0.2" x1="174.02072064606722" x2="174.02072064606722" y1="0.5" y2="30"/><line opacity="0.2" x1="249.89941778214342" x2="249.89941778214342" y1="0.5" y2="30"/><line opacity="0.2" x1="285.3023067660047" x2="285.3023067660047" y1="0.5" y2="30"/><line opacity="0.2" x1="395.31200243410166" x2="395.31200243410166" y1="0.5" y2="30"/><line opacity="0.2" x1="301.0796041883434" x2="301.0796041883434" y1="0.5" y2="30"/><line opacity="0.2" x1="364.6242516193437" x2="364.6242516193437" y1="0.5" y2="30"/><line opacity="0.2" x1="222.68676264711095" x2="222.68676264711095" y1="0.5" y2="30"/><line opacity="0.2" x1="399.9718842732638" x2="399.9718842732638" y1="0.5" y2="30"/><line opacity="0.2" x1="259.80982877023786" x2="259.80982877023786" y1="0.5" y2="30"/><line opacity="0.2" x1="345.049122708929" x2="345.049122708929" y1="0.5" y2="30"/><line opacity="0.2" x1="471.3039000079387" x2="471.3039000079387" y1="0.5" y2="30"/><line opacity="0.2" x1="320.86742452305907" x2="320.86742452305907" y1="0.5" y2="30"/><line opacity="0.2" x1="331.4467786039955" x2="331.4467786039955" y1="0.5" y2="30"/><line opacity="0.2" x1="400.94104939225355" x2="400.94104939225355" y1="0.5" y2="30"/><line opacity="0.2" x1="296.0314187689449" x2="296.0314187689449" y1="0.5" y2="30"/><line opacity="0.2" x1="157.84074359489028" x2="157.84074359489028" y1="0.5" y2="30"/><line opacity="0.2" x1="387.1328428831897" x2="387.1328428831897" y1="0.5" y2="30"/><line opacity="0.2" x1="546.8116059128947" x2="546.8116059128947" y1="0.5" y2="30"/><line opacity="0.2" x1="415.3518488966605" x2="415.3518488966605" y1="0.5" y2="30"/><line opacity="0.2" x1="592.2524246469045" x2="592.2524246469045" y1="0.5" y2="30"/><line opacity="0.2" x1="408.5843780607765" x2="408.5843780607765" y1="0.5" y2="30"/><line opacity="0.2" x1="483.21679484135257" x2="483.21679484135257" y1="0.5" y2="30"/><line opacity="0.2" x1="434.9930990715546" x2="434.9930990715546" y1="0.5" y2="30"/><line opacity="0.2" x1="267.1835873341308" x2="267.1835873341308" y1="0.5" y2="30"/><line opacity="0.2" x1="309.0688157882995" x2="309.0688157882995" y1="0.5" y2="30"/><line opacity="0.2" x1="224.80905547263458" x2="224.80905547263458" y1="0.5" y2="30"/><line opacity="0.2" x1="315.2270005840103" x2="315.2270005840103" y1="0.5" y2="30"/><line opacity="0.2" x1="345.86946173218445" x2="345.86946173218445" y1="0.5" y2="30"/><line opacity="0.2" x1="491.4454639660974" x2="491.4454639660974" y1="0.5" y2="30"/><line opacity="0.2" x1="424.71884871764263" x2="424.71884871764263" y1="0.5" y2="30"/><line opacity="0.2" x1="362.08828175871065" x2="362.08828175871065" y1="0.5" y2="30"/><line opacity="0.2" x1="359.7805654851449" x2="359.7805654851449" y1="0.5" y2="30"/><line opacity="0.2" x1="285.0699247647407" x2="285.0699247647407" y1="0.5" y2="30"/><line opacity="0.2" x1="362.23697211602183" x2="362.23697211602183" y1="0.5" y2="30"/><line opacity="0.2" x1="450.59402047551475" x2="450.59402047551475" y1="0.5" y2="30"/><line opacity="0.2" x1="268.89647785875127" x2="268.89647785875127" y1="0.5" y2="30"/><line opacity="0.2" x1="188.8183505032129" x2="188.8183505032129" y1="0.5" y2="30"/><line opacity="0.2" x1="295.9844143847232" x2="295.9844143847232" y1="0.5" y2="30"/><line opacity="0.2" x1="322.701615227503" x2="322.701615227503" y1="0.5" y2="30"/><line opacity="0.2" x1="230.20592756917972" x2="230.20592756917972" y1="0.5" y2="30"/><line opacity="0.2" x1="225.41969085556335" x2="225.41969085556335" y1="0.5" y2="30"/><line opacity="0.2" x1="424.2218392180687" x2="424.2218392180687" y1="0.5" y2="30"/><line opacity="0.2" x1="207.23279115809316" x2="207.23279115809316" y1="0.5" y2="30"/><line opacity="0.2" x1="403.4196410318223" x2="403.4196410318223" y1="0.5" y2="30"/><line opacity="0.2" x1="225.42214486696915" x2="225.42214486696915" y1="0.5" y2="30"/><line opacity="0.2" x1="228.12225474072855" x2="228.12225474072855" y1="0.5" y2="30"/><line opacity="0.2" x1="372.5376940118247" x2="372.5376940118247" y1="0.5" y2="30"/><line opacity="0.2" x1="429.48774753776115" x2="429.48774753776115" y1="0.5" y2="30"/><line opacity="0.2" x1="368.4442200465416" x2="368.4442200465416" y1="0.5" y2="30"/><line opacity="0.2" x1="163.3912241349902" x2="163.3912241349902" y1="0.5" y2="30"/><line opacity="0.2" x1="246.39476936911637" x2="246.39476936911637" y1="0.5" y2="30"/><line opacity="0.2" x1="311.1052102244476" x2="311.1052102244476" y1="0.5" y2="30"/><line opacity="0.2" x1="395.7441874612617" x2="395.7441874612617" y1="0.5" y2="30"/><line opacity="0.2" x1="355.905696325585" x2="355.905696325585" y1="0.5" y2="30"/><line opacity="0.2" x1="276.36930488003685" x2="276.36930488003685" y1="0.5" y2="30"/><line opacity="0.2" x1="363.48482852855216" x2="363.48482852855216" y1="0.5" y2="30"/><line opacity="0.2" x1="405.78252313616815" x2="405.78252313616815" y1="0.5" y2="30"/><line opacity="0.2" x1="282.91817323263024" x2="282.91817323263024" y1="0.5" y2="30"/><line opacity="0.2" x1="344.35901030481637" x2="344.35901030481637" y1="0.5" y2="30"/><line opacity="0.2" x1="308.87870870021993" x2="308.87870870021993" y1="0.5" y2="30"/><line opacity="0.2" x1="327.9428502426094" x2="327.9428502426094" y1="0.5" y2="30"/><line opacity="0.2" x1="365.1383566949737" x2="365.1383566949737" y1="0.5" y2="30"/><line opacity="0.2" x1="291.4320746282836" x2="291.4320746282836" y1="0.5" y2="30"/><line opacity="0.2" x1="416.91902793066674" x2="416.91902793066674" y1="0.5" y2="30"/><line opacity="0.2" x1="512.8342129402648" x2="512.8342129402648" y1="0.5" y2="30"/><line opacity="0.2" x1="470.9020551635516" x2="470.9020551635516" y1="0.5" y2="30"/><line opacity="0.2" x1="359.0432007018884" x2="359.0432007018884" y1="0.5" y2="30"/><line opacity="0.2" x1="244.83899412420004" x2="244.83899412420004" y1="0.5" y2="30"/><line opacity="0.2" x1="465.5301958542215" x2="465.5301958542215" y1="0.5" y2="30"/><line opacity="0.2" x1="297.0157603203763" x2="297.0157603203763" y1="0.5" y2="30"/><line opacity="0.2" x1="329.08512091773065" x2="329.08512091773065" y1="0.5" y2="30"/><line opacity="0.2" x1="229.8033748543197" x2="229.8033748543197" y1="0.5" y2="30"/><line opacity="0.2" x1="351.1880879248914" x2="351.1880879248914" y1="0.5" y2="30"/><line opacity="0.2" x1="249.16641639256233" x2="249.16641639256233" y1="0.5" y2="30"/><line opacity="0.2" x1="470.0164975302769" x2="470.0164975302769" y1="0.5" y2="30"/><line opacity="0.2" x1="453.8403237107432" x2="453.8403237107432" y1="0.5" y2="30"/><line opacity="0.2" x1="253.49456015514698" x2="253.49456015514698" y1="0.5" y2="30"/><line opacity="0.2" x1="453.5917528058317" x2="453.5917528058317" y1="0.5" y2="30"/><line opacity="0.2" x1="615.1830353822298" x2="615.1830353822298" y1="0.5" y2="30"/><line opacity="0.2" x1="451.0038820139369" x2="451.0038820139369" y1="0.5" y2="30"/><line opacity="0.2" x1="513.304522225916" x2="513.304522225916" y1="0.5" y2="30"/><line opacity="0.2" x1="387.55434223259846" x2="387.55434223259846" y1="0.5" y2="30"/><line opacity="0.2" x1="355.9418195098928" x2="355.9418195098928" y1="0.5" y2="30"/><line opacity="0.2" x1="523.7685715216428" x2="523.7685715216428" y1="0.5" y2="30"/><line opacity="0.2" x1="232.10482102059635" x2="232.10482102059635" y1="0.5" y2="30"/><line opacity="0.2" x1="420.81104748165984" x2="420.81104748165984" y1="0.5" y2="30"/><line opacity="0.2" x1="314.3370035339565" x2="314.3370035339565" y1="0.5" y2="30"/><line opacity="0.2" x1="405.5451320166532" x2="405.5451320166532" y1="0.5" y2="30"/><line opacity="0.2" x1="307.4154011386337" x2="307.4154011386337" y1="0.5" y2="30"/><line opacity="0.2" x1="413.20261217109385" x2="413.20261217109385" y1="0.5" y2="30"/><line opacity="0.2" x1="459.58318333386137" x2="459.58318333386137" y1="0.5" y2="30"/><line opacity="0.2" x1="366.89074218438196" x2="366.89074218438196" y1="0.5" y2="30"/><line opacity="0.2" x1="220.2717114359765" x2="220.2717114359765" y1="0.5" y2="30"/><line opacity="0.2" x1="252.5652205356975" x2="252.5652205356975" y1="0.5" y2="30"/><line opacity="0.2" x1="251.493025041518" x2="251.493025041518" y1="0.5" y2="30"/><line opacity="0.2" x1="327.76026940472445" x2="327.76026940472445" y1="0.5" y2="30"/><line opacity="0.2" x1="289.926635870216" x2="289.926635870216" y1="0.5" y2="30"/><line opacity="0.2" x1="27.837704764164386" x2="27.837704764164386" y1="0.5" y2="30"/><line opacity="0.2" x1="501.7678850572241" x2="501.7678850572241" y1="0.5" y2="30"/><line opacity="0.2" x1="300.9812854622985" x2="300.9812854622985" y1="0.5" y2="30"/><line opacity="0.2" x1="287.12625774132164" x2="287.12625774132164" y1="0.5" y2="30"/><line opacity="0.2" x1="307.73440203988815" x2="307.73440203988815" y1="0.5" y2="30"/><line opacity="0.2" x1="458.8752453367589" x2="458.8752453367589" y1="0.5" y2="30"/><line opacity="0.2" x1="456.2102089919679" x2="456.2102089919679" y1="0.5" y2="30"/><line opacity="0.2" x1="205.07696132799998" x2="205.07696132799998" y1="0.5" y2="30"/><line opacity="0.2" x1="355.5989259100082" x2="355.5989259100082" y1="0.5" y2="30"/><line opacity="0.2" x1="281.40737651710054" x2="281.40737651710054" y1="0.5" y2="30"/><line opacity="0.2" x1="255.01466638081624" x2="255.01466638081624" y1="0.5" y2="30"/><line opacity="0.2" x1="282.7085484297551" x2="282.7085484297551" y1="0.5" y2="30"/><line opacity="0.2" x1="256.47958874290475" x2="256.47958874290475" y1="0.5" y2="30"/><line opacity="0.2" x1="323.9204635826073" x2="323.9204635826073" y1="0.5" y2="30"/><line opacity="0.2" x1="229.1522246284338" x2="229.1522246284338" y1="0.5" y2="30"/><line opacity="0.2" x1="382.40307047753276" x2="382.40307047753276" y1="0.5" y2="30"/><line opacity="0.2" x1="421.8993204208659" x2="421.8993204208659" y1="0.5" y2="30"/><line opacity="0.2" x1="345.4025630453093" x2="345.4025630453093" y1="0.5" y2="30"/><line opacity="0.2" x1="424.1849531722203" x2="424.1849531722203" y1="0.5" y2="30"/><line opacity="0.2" x1="217.92398055354653" x2="217.92398055354653" y1="0.5" y2="30"/><line opacity="0.2" x1="314.6041565636847" x2="314.6041565636847" y1="0.5" y2="30"/><line opacity="0.2" x1="464.0730404344736" x2="464.0730404344736" y1="0.5" y2="30"/><line opacity="0.2" x1="228.64720256384905" x2="228.64720256384905" y1="0.5" y2="30"/><line opacity="0.2" x1="279.3401449761159" x2="279.3401449761159" y1="0.5" y2="30"/><line opacity="0.2" x1="489.46464074905776" x2="489.46464074905776" y1="0.5" y2="30"/><line opacity="0.2" x1="195.19585132604303" x2="195.19585132604303" y1="0.5" y2="30"/><line opacity="0.2" x1="373.9491220232998" x2="373.9491220232998" y1="0.5" y2="30"/><line opacity="0.2" x1="266.40411843271744" x2="266.40411843271744" y1="0.5" y2="30"/><line opacity="0.2" x1="218.89537976505883" x2="218.89537976505883" y1="0.5" y2="30"/><line opacity="0.2" x1="392.8191047746999" x2="392.8191047746999" y1="0.5" y2="30"/><line opacity="0.2" x1="227.7402236731206" x2="227.7402236731206" y1="0.5" y2="30"/><line opacity="0.2" x1="398.25618273066294" x2="398.25618273066294" y1="0.5" y2="30"/><line opacity="0.2" x1="398.7148181618652" x2="398.7148181618652" y1="0.5" y2="30"/><line opacity="0.2" x1="456.802627966313" x2="456.802627966313" y1="0.5" y2="30"/><line opacity="0.2" x1="22.588613896055445" x2="22.588613896055445" y1="0.5" y2="30"/><line opacity="0.2" x1="354.0467139288521" x2="354.0467139288521" y1="0.5" y2="30"/><line opacity="0.2" x1="322.4871739442316" x2="322.4871739442316" y1="0.5" y2="30"/><line opacity="0.2" x1="494.6109907937978" x2="494.6109907937978" y1="0.5" y2="30"/><line opacity="0.2" x1="274.31420440340634" x2="274.31420440340634" y1="0.5" y2="30"/><line opacity="0.2" x1="345.9573420540205" x2="345.9573420540205" y1="0.5" y2="30"/><line opacity="0.2" x1="274.2818282233506" x2="274.2818282233506" y1="0.5" y2="30"/><line opacity="0.2" x1="467.785318476704" x2="467.785318476704" y1="0.5" y2="30"/><line opacity="0.2" x1="297.31387750549635" x2="297.31387750549635" y1="0.5" y2="30"/><line opacity="0.2" x1="260.8948825650782" x2="260.8948825650782" y1="0.5" y2="30"/><line opacity="0.2" x1="227.14098467925928" x2="227.14098467925928" y1="0.5" y2="30"/><line opacity="0.2" x1="359.59573903598323" x2="359.59573903598323" y1="0.5" y2="30"/><line opacity="0.2" x1="457.0401640674497" x2="457.0401640674497" y1="0.5" y2="30"/><line opacity="0.2" x1="236.69456592323556" x2="236.69456592323556" y1="0.5" y2="30"/><line opacity="0.2" x1="289.532306394281" x2="289.532306394281" y1="0.5" y2="30"/><line opacity="0.2" x1="306.4800112218927" x2="306.4800112218927" y1="0.5" y2="30"/><line opacity="0.2" x1="247.12341760536054" x2="247.12341760536054" y1="0.5" y2="30"/><line opacity="0.2" x1="502.84837299679674" x2="502.84837299679674" y1="0.5" y2="30"/><line opacity="0.2" x1="164.9068967085492" x2="164.9068967085492" y1="0.5" y2="30"/><line opacity="0.2" x1="307.13997029254597" x2="307.13997029254597" y1="0.5" y2="30"/><line opacity="0.2" x1="240.32542959510283" x2="240.32542959510283" y1="0.5" y2="30"/><line opacity="0.2" x1="241.47093265505833" x2="241.47093265505833" y1="0.5" y2="30"/><line opacity="0.2" x1="355.9403912764753" x2="355.9403912764753" y1="0.5" y2="30"/><line opacity="0.2" x1="181.44626697405013" x2="181.44626697405013" y1="0.5" y2="30"/><line opacity="0.2" x1="447.9959430838103" x2="447.9959430838103" y1="0.5" y2="30"/><line opacity="0.2" x1="270.52267811974355" x2="270.52267811974355" y1="0.5" y2="30"/><line opacity="0.2" x1="266.5185627585775" x2="266.5185627585775" y1="0.5" y2="30"/><line opacity="0.2" x1="343.61364184688273" x2="343.61364184688273" y1="0.5" y2="30"/><line opacity="0.2" x1="375.7961526293985" x2="375.7961526293985" y1="0.5" y2="30"/><line opacity="0.2" x1="336.3195625615519" x2="336.3195625615519" y1="0.5" y2="30"/><line opacity="0.2" x1="272.14235147316646" x2="272.14235147316646" y1="0.5" y2="30"/><line opacity="0.2" x1="297.6005591475038" x2="297.6005591475038" y1="0.5" y2="30"/><line opacity="0.2" x1="312.53719222218905" x2="312.53719222218905" y1="0.5" y2="30"/><line opacity="0.2" x1="262.2094970773233" x2="262.2094970773233" y1="0.5" y2="30"/><line opacity="0.2" x1="414.75107490050283" x2="414.75107490050283" y1="0.5" y2="30"/><line opacity="0.2" x1="357.90308415351967" x2="357.90308415351967" y1="0.5" y2="30"/><line opacity="0.2" x1="349.61081094464623" x2="349.61081094464623" y1="0.5" y2="30"/><line opacity="0.2" x1="231.89111639779816" x2="231.89111639779816" y1="0.5" y2="30"/><line opacity="0.2" x1="279.27835569221367" x2="279.27835569221367" y1="0.5" y2="30"/><line opacity="0.2" x1="188.8008664183989" x2="188.8008664183989" y1="0.5" y2="30"/><line opacity="0.2" x1="180.63615739381686" x2="180.63615739381686" y1="0.5" y2="30"/><line opacity="0.2" x1="364.0442108471647" x2="364.0442108471647" y1="0.5" y2="30"/><line opacity="0.2" x1="225.33617019011072" x2="225.33617019011072" y1="0.5" y2="30"/><line opacity="0.2" x1="370.2248056399458" x2="370.2248056399458" y1="0.5" y2="30"/><line opacity="0.2" x1="373.78308790714243" x2="373.78308790714243" y1="0.5" y2="30"/><line opacity="0.2" x1="417.2844351384374" x2="417.2844351384374" y1="0.5" y2="30"/><line opacity="0.2" x1="166.09117851077517" x2="166.09117851077517" y1="0.5" y2="30"/><line opacity="0.2" x1="281.38694144981326" x2="281.38694144981326" y1="0.5" y2="30"/><line opacity="0.2" x1="308.21340616098695" x2="308.21340616098695" y1="0.5" y2="30"/><line opacity="0.2" x1="436.1123631263133" x2="436.1123631263133" y1="0.5" y2="30"/><line opacity="0.2" x1="326.82441564816736" x2="326.82441564816736" y1="0.5" y2="30"/><line opacity="0.2" x1="219.80862918927662" x2="219.80862918927662" y1="0.5" y2="30"/><line opacity="0.2" x1="488.24967591843364" x2="488.24967591843364" y1="0.5" y2="30"/><line opacity="0.2" x1="281.179804698435" x2="281.179804698435" y1="0.5" y2="30"/><line opacity="0.2" x1="340.777719671831" x2="340.777719671831" y1="0.5" y2="30"/><line opacity="0.2" x1="349.3121504066173" x2="349.3121504066173" y1="0.5" y2="30"/><line opacity="0.2" x1="147.46755199200425" x2="147.46755199200425" y1="0.5" y2="30"/><line opacity="0.2" x1="386.9862385576679" x2="386.9862385576679" y1="0.5" y2="30"/><line opacity="0.2" x1="244.77447070994413" x2="244.77447070994413" y1="0.5" y2="30"/><line opacity="0.2" x1="449.74064394308783" x2="449.74064394308783" y1="0.5" y2="30"/><line opacity="0.2" x1="374.990461484848" x2="374.990461484848" y1="0.5" y2="30"/><line opacity="0.2" x1="333.84690407026216" x2="333.84690407026216" y1="0.5" y2="30"/><line opacity="0.2" x1="343.9022759229557" x2="343.9022759229557" y1="0.5" y2="30"/><line opacity="0.2" x1="352.21066699255766" x2="352.21066699255766" y1="0.5" y2="30"/><line opacity="0.2" x1="422.4678412884053" x2="422.4678412884053" y1="0.5" y2="30"/><line opacity="0.2" x1="573.4616891243838" x2="573.4616891243838" y1="0.5" y2="30"/><line opacity="0.2" x1="343.29431183778684" x2="343.29431183778684" y1="0.5" y2="30"/><line opacity="0.2" x1="220.8908605382167" x2="220.8908605382167" y1="0.5" y2="30"/><line opacity="0.2" x1="219.94171021634207" x2="219.94171021634207" y1="0.5" y2="30"/><line opacity="0.2" x1="337.882604252691" x2="337.882604252691" y1="0.5" y2="30"/><line opacity="0.2" x1="507.092343709164" x2="507.092343709164" y1="0.5" y2="30"/><line opacity="0.2" x1="327.6141643725805" x2="327.6141643725805" y1="0.5" y2="30"/><line opacity="0.2" x1="164.12293996422568" x2="164.12293996422568" y1="0.5" y2="30"/><line opacity="0.2" x1="312.1608796409582" x2="312.1608796409582" y1="0.5" y2="30"/><line opacity="0.2" x1="183.48553703399554" x2="183.48553703399554" y1="0.5" y2="30"/><line opacity="0.2" x1="421.6772165235345" x2="421.6772165235345" y1="0.5" y2="30"/><line opacity="0.2" x1="292.5277770295623" x2="292.5277770295623" y1="0.5" y2="30"/><line opacity="0.2" x1="356.6494585551173" x2="356.6494585551173" y1="0.5" y2="30"/><line opacity="0.2" x1="382.67482743815174" x2="382.67482743815174" y1="0.5" y2="30"/><line opacity="0.2" x1="453.2785250353172" x2="453.2785250353172" y1="0.5" y2="30"/><line opacity="0.2" x1="441.07716240545955" x2="441.07716240545955" y1="0.5" y2="30"/><line opacity="0.2" x1="368.14702109010955" x2="368.14702109010955" y1="0.5" y2="30"/><line opacity="0.2" x1="540.2171442467966" x2="540.2171442467966" y1="0.5" y2="30"/><line opacity="0.2" x1="198.00956796887812" x2="198.00956796887812" y1="0.5" y2="30"/><line opacity="0.2" x1="460.37958175138795" x2="460.37958175138795" y1="0.5" y2="30"/><line opacity="0.2" x1="469.42021626875623" x2="469.42021626875623" y1="0.5" y2="30"/><line opacity="0.2" x1="316.3735242138947" x2="316.3735242138947" y1="0.5" y2="30"/><line opacity="0.2" x1="377.255798088979" x2="377.255798088979" y1="0.5" y2="30"/><line opacity="0.2" x1="182.76906853975765" x2="182.76906853975765" y1="0.5" y2="30"/><line opacity="0.2" x1="223.83775721577942" x2="223.83775721577942" y1="0.5" y2="30"/><line opacity="0.2" x1="344.64018834058294" x2="344.64018834058294" y1="0.5" y2="30"/><line opacity="0.2" x1="267.07198707820777" x2="267.07198707820777" y1="0.5" y2="30"/><line opacity="0.2" x1="375.3977420676826" x2="375.3977420676826" y1="0.5" y2="30"/><line opacity="0.2" x1="280.013915780102" x2="280.013915780102" y1="0.5" y2="30"/><line opacity="0.2" x1="189.87672629178564" x2="189.87672629178564" y1="0.5" y2="30"/><line opacity="0.2" x1="225.66763666426863" x2="225.66763666426863" y1="0.5" y2="30"/><line opacity="0.2" x1="330.5625889026321" x2="330.5625889026321" y1="0.5" y2="30"/><line opacity="0.2" x1="434.42959921278566" x2="434.42959921278566" y1="0.5" y2="30"/><line opacity="0.2" x1="369.6636631623948" x2="369.6636631623948" y1="0.5" y2="30"/><line opacity="0.2" x1="421.9853070346187" x2="421.9853070346187" y1="0.5" y2="30"/><line opacity="0.2" x1="375.02621540151836" x2="375.02621540151836" y1="0.5" y2="30"/><line opacity="0.2" x1="539.4239030277064" x2="539.4239030277064" y1="0.5" y2="30"/><line opacity="0.2" x1="282.2258573308952" x2="282.2258573308952" y1="0.5" y2="30"/><line opacity="0.2" x1="176.80730719197584" x2="176.80730719197584" y1="0.5" y2="30"/><line opacity="0.2" x1="429.2355011017948" x2="429.2355011017948" y1="0.5" y2="30"/><line opacity="0.2" x1="423.59438371143256" x2="423.59438371143256" y1="0.5" y2="30"/><line opacity="0.2" x1="290.1337769821581" x2="290.1337769821581" y1="0.5" y2="30"/><line opacity="0.2" x1="405.08446618392423" x2="405.08446618392423" y1="0.5" y2="30"/><line opacity="0.2" x1="204.32383085013092" x2="204.32383085013092" y1="0.5" y2="30"/><line opacity="0.2" x1="348.524494816814" x2="348.524494816814" y1="0.5" y2="30"/><line opacity="0.2" x1="344.29296193840815" x2="344.29296193840815" y1="0.5" y2="30"/><line opacity="0.2" x1="260.83473619289543" x2="260.83473619289543" y1="0.5" y2="30"/><line opacity="0.2" x1="20" x2="20" y1="0.5" y2="30"/><line opacity="0.2" x1="237.53329088419454" x2="237.53329088419454" y1="0.5" y2="30"/><line opacity="0.2" x1="475.4227378715474" x2="475.4227378715474" y1="0.5" y2="30"/><line opacity="0.2" x1="384.400210806036" x2="384.400210806036" y1="0.5" y2="30"/><line opacity="0.2" x1="319.4479350942161" x2="319.4479350942161" y1="0.5" y2="30"/><line opacity="0.2" x1="295.3224598188044" x2="295.3224598188044" y1="0.5" y2="30"/><line opacity="0.2" x1="383.19402885631985" x2="383.19402885631985" y1="0.5" y2="30"/><line opacity="0.2" x1="363.2185496110511" x2="363.2185496110511" y1="0.5" y2="30"/><line opacity="0.2" x1="250.4998958567533" x2="250.4998958567533" y1="0.5" y2="30"/><line opacity="0.2" x1="280.1541734327445" x2="280.1541734327445" y1="0.5" y2="30"/><line opacity="0.2" x1="373.6991043636589" x2="373.6991043636589" y1="0.5" y2="30"/><line opacity="0.2" x1="399.09173407793764" x2="399.09173407793764" y1="0.5" y2="30"/><line opacity="0.2" x1="309.24901835534087" x2="309.24901835534087" y1="0.5" y2="30"/><line opacity="0.2" x1="455.97593311927733" x2="455.97593311927733" y1="0.5" y2="30"/><line opacity="0.2" x1="334.89609604025213" x2="334.89609604025213" y1="0.5" y2="30"/><line opacity="0.2" x1="375.11238557407603" x2="375.11238557407603" y1="0.5" y2="30"/><line opacity="0.2" x1="426.79214590789843" x2="426.79214590789843" y1="0.5" y2="30"/><line opacity="0.2" x1="269.89254979486793" x2="269.89254979486793" y1="0.5" y2="30"/><line opacity="0.2" x1="333.51827278400555" x2="333.51827278400555" y1="0.5" y2="30"/><line opacity="0.2" x1="217.73940558664378" x2="217.73940558664378" y1="0.5" y2="30"/><line opacity="0.2" x1="413.98537661525154" x2="413.98537661525154" y1="0.5" y2="30"/><line opacity="0.2" x1="343.66071187553956" x2="343.66071187553956" y1="0.5" y2="30"/><line opacity="0.2" x1="390.8911547679741" x2="390.8911547679741" y1="0.5" y2="30"/><line opacity="0.2" x1="303.77988123556116" x2="303.77988123556116" y1="0.5" y2="30"/><line opacity="0.2" x1="365.49835441168113" x2="365.49835441168113" y1="0.5" y2="30"/><line opacity="0.2" x1="168.42053935310346" x2="168.42053935310346" y1="0.5" y2="30"/><line opacity="0.2" x1="235.40810528591666" x2="235.40810528591666" y1="0.5" y2="30"/><line opacity="0.2" x1="287.4063199190688" x2="287.4063199190688" y1="0.5" y2="30"/><line opacity="0.2" x1="396.44908849413815" x2="396.44908849413815" y1="0.5" y2="30"/><line opacity="0.2" x1="414.6486546235634" x2="414.6486546235634" y1="0.5" y2="30"/><line opacity="0.2" x1="345.8893111969721" x2="345.8893111969721" y1="0.5" y2="30"/><line opacity="0.2" x1="221.68327037511332" x2="221.68327037511332" y1="0.5" y2="30"/><line opacity="0.2" x1="295.0399604509424" x2="295.0399604509424" y1="0.5" y2="30"/><line opacity="0.2" x1="253.55017828311367" x2="253.55017828311367" y1="0.5" y2="30"/><line opacity="0.2" x1="435.9308494753693" x2="435.9308494753693" y1="0.5" y2="30"/><line opacity="0.2" x1="205.19410555035958" x2="205.19410555035958" y1="0.5" y2="30"/><line opacity="0.2" x1="333.85081350793905" x2="333.85081350793905" y1="0.5" y2="30"/><line opacity="0.2" x1="146.32212064585116" x2="146.32212064585116" y1="0.5" y2="30"/><line opacity="0.2" x1="441.27043581028875" x2="441.27043581028875" y1="0.5" y2="30"/><line opacity="0.2" x1="314.73731121113985" x2="314.73731121113985" y1="0.5" y2="30"/><line opacity="0.2" x1="176.99816191102917" x2="176.99816191102917" y1="0.5" y2="30"/><line opacity="0.2" x1="457.7153836622042" x2="457.7153836622042" y1="0.5" y2="30"/><line opacity="0.2" x1="394.2942098509492" x2="394.2942098509492" y1="0.5" y2="30"/><line opacity="0.2" x1="111.6536349951464" x2="111.6536349951464" y1="0.5" y2="30"/><line opacity="0.2" x1="371.98174632608124" x2="371.98174632608124" y1="0.5" y2="30"/><line opacity="0.2" x1="339.7591709260081" x2="339.7591709260081" y1="0.5" y2="30"/><line opacity="0.2" x1="416.60687736966617" x2="416.60687736966617" y1="0.5" y2="30"/><line opacity="0.2" x1="470.47145791046773" x2="470.47145791046773" y1="0.5" y2="30"/><line opacity="0.2" x1="433.4701089997887" x2="433.4701089997887" y1="0.5" y2="30"/><line opacity="0.2" x1="370.6738854821226" x2="370.6738854821226" y1="0.5" y2="30"/><line opacity="0.2" x1="367.84312919102507" x2="367.84312919102507" y1="0.5" y2="30"/><line opacity="0.2" x1="262.3495809187775" x2="262.3495809187775" y1="0.5" y2="30"/><line opacity="0.2" x1="457.75142085708285" x2="457.75142085708285" y1="0.5" y2="30"/><line opacity="0.2" x1="396.8080408958439" x2="396.8080408958439" y1="0.5" y2="30"/><line opacity="0.2" x1="520.0957379111384" x2="520.0957379111384" y1="0.5" y2="30"/><line opacity="0.2" x1="259.5336091300807" x2="259.5336091300807" y1="0.5" y2="30"/><line opacity="0.2" x1="384.59298186275265" x2="384.59298186275265" y1="0.5" y2="30"/><line opacity="0.2" x1="238.86875259361966" x2="238.86875259361966" y1="0.5" y2="30"/><line opacity="0.2" x1="395.3271654565269" x2="395.3271654565269" y1="0.5" y2="30"/><line opacity="0.2" x1="422.9468906928764" x2="422.9468906928764" y1="0.5" y2="30"/><line opacity="0.2" x1="267.68948343812735" x2="267.68948343812735" y1="0.5" y2="30"/><line opacity="0.2" x1="171.14241340720508" x2="171.14241340720508" y1="0.5" y2="30"/><line opacity="0.2" x1="500.64762152796885" x2="500.64762152796885" y1="0.5" y2="30"/><line opacity="0.2" x1="255.00733515491402" x2="255.00733515491402" y1="0.5" y2="30"/><line opacity="0.2" x1="458.51905229484925" x2="458.51905229484925" y1="0.5" y2="30"/><line opacity="0.2" x1="442.7852907103154" x2="442.7852907103154" y1="0.5" y2="30"/><line opacity="0.2" x1="427.18113247154525" x2="427.18113247154525" y1="0.5" y2="30"/><line opacity="0.2" x1="328.12498547449934" x2="328.12498547449934" y1="0.5" y2="30"/><line opacity="0.2" x1="581.603562134247" x2="581.603562134247" y1="0.5" y2="30"/><line opacity="0.2" x1="243.68464842817895" x2="243.68464842817895" y1="0.5" y2="30"/><line opacity="0.2" x1="577.1618326433522" x2="577.1618326433522" y1="0.5" y2="30"/><line opacity="0.2" x1="423.18941642684354" x2="423.18941642684354" y1="0.5" y2="30"/><line opacity="0.2" x1="258.9024118295921" x2="258.9024118295921" y1="0.5" y2="30"/><line opacity="0.2" x1="251.30203905568249" x2="251.30203905568249" y1="0.5" y2="30"/><line opacity="0.2" x1="326.069941484539" x2="326.069941484539" y1="0.5" y2="30"/><line opacity="0.2" x1="335.82393309745987" x2="335.82393309745987" y1="0.5" y2="30"/><line opacity="0.2" x1="308.96576990453747" x2="308.96576990453747" y1="0.5" y2="30"/><line opacity="0.2" x1="333.0978961549946" x2="333.0978961549946" y1="0.5" y2="30"/><line opacity="0.2" x1="463.3095500418133" x2="463.3095500418133" y1="0.5" y2="30"/><line opacity="0.2" x1="487.8474669361752" x2="487.8474669361752" y1="0.5" y2="30"/><line opacity="0.2" x1="379.87043124605304" x2="379.87043124605304" y1="0.5" y2="30"/><line opacity="0.2" x1="325.1882101915293" x2="325.1882101915293" y1="0.5" y2="30"/><line opacity="0.2" x1="363.189353195915" x2="363.189353195915" y1="0.5" y2="30"/><line opacity="0.2" x1="260.0594501041786" x2="260.0594501041786" y1="0.5" y2="30"/><line opacity="0.2" x1="363.47750769878905" x2="363.47750769878905" y1="0.5" y2="30"/><line opacity="0.2" x1="456.3049476107645" x2="456.3049476107645" y1="0.5" y2="30"/><line opacity="0.2" x1="173.89670376910962" x2="173.89670376910962" y1="0.5" y2="30"/><line opacity="0.2" x1="383.9570013520743" x2="383.9570013520743" y1="0.5" y2="30"/><line opacity="0.2" x1="341.0108493291318" x2="341.0108493291318" y1="0.5" y2="30"/><line opacity="0.2" x1="61.75758579017839" x2="61.75758579017839" y1="0.5" y2="30"/><line opacity="0.2" x1="304.6854789991448" x2="304.6854789991448" y1="0.5" y2="30"/><line opacity="0.2" x1="344.1078989365138" x2="344.1078989365138" y1="0.5" y2="30"/><line opacity="0.2" x1="304.07662087125044" x2="304.07662087125044" y1="0.5" y2="30"/><line opacity="0.2" x1="283.5864413978894" x2="283.5864413978894" y1="0.5" y2="30"/><line opacity="0.2" x1="323.71222382093464" x2="323.71222382093464" y1="0.5" y2="30"/><line opacity="0.2" x1="227.96409121312846" x2="227.96409121312846" y1="0.5" y2="30"/><line opacity="0.2" x1="428.44455513344815" x2="428.44455513344815" y1="0.5" y2="30"/><line opacity="0.2" x1="268.20877495894695" x2="268.20877495894695" y1="0.5" y2="30"/><line opacity="0.2" x1="339.98312792554293" x2="339.98312792554293" y1="0.5" y2="30"/><line opacity="0.2" x1="271.13223003495244" x2="271.13223003495244" y1="0.5" y2="30"/><line opacity="0.2" x1="408.3348511851803" x2="408.3348511851803" y1="0.5" y2="30"/><line opacity="0.2" x1="224.65537572001347" x2="224.65537572001347" y1="0.5" y2="30"/><line opacity="0.2" x1="234.86091289631918" x2="234.86091289631918" y1="0.5" y2="30"/><line opacity="0.2" x1="269.434328568559" x2="269.434328568559" y1="0.5" y2="30"/><line opacity="0.2" x1="277.62185596906124" x2="277.62185596906124" y1="0.5" y2="30"/><line opacity="0.2" x1="365.2620656978768" x2="365.2620656978768" y1="0.5" y2="30"/><line opacity="0.2" x1="247.503800343631" x2="247.503800343631" y1="0.5" y2="30"/><line opacity="0.2" x1="239.85864922186207" x2="239.85864922186207" y1="0.5" y2="30"/><line opacity="0.2" x1="256.9912212575593" x2="256.9912212575593" y1="0.5" y2="30"/><line opacity="0.2" x1="355.1157332518189" x2="355.1157332518189" y1="0.5" y2="30"/><line opacity="0.2" x1="374.7423864974686" x2="374.7423864974686" y1="0.5" y2="30"/><line opacity="0.2" x1="346.1774843229226" x2="346.1774843229226" y1="0.5" y2="30"/><line opacity="0.2" x1="360.95351991207264" x2="360.95351991207264" y1="0.5" y2="30"/><line opacity="0.2" x1="392.4074712137574" x2="392.4074712137574" y1="0.5" y2="30"/><line opacity="0.2" x1="293.2577768959939" x2="293.2577768959939" y1="0.5" y2="30"/><line opacity="0.2" x1="378.6807871608044" x2="378.6807871608044" y1="0.5" y2="30"/><line opacity="0.2" x1="189.45940646114477" x2="189.45940646114477" y1="0.5" y2="30"/><line opacity="0.2" x1="449.9172191478067" x2="449.9172191478067" y1="0.5" y2="30"/><line opacity="0.2" x1="198.80229509435424" x2="198.80229509435424" y1="0.5" y2="30"/><line opacity="0.2" x1="298.1582344314071" x2="298.1582344314071" y1="0.5" y2="30"/><line opacity="0.2" x1="453.3871962022794" x2="453.3871962022794" y1="0.5" y2="30"/><line opacity="0.2" x1="458.34462376499636" x2="458.34462376499636" y1="0.5" y2="30"/><line opacity="0.2" x1="337.88738303998826" x2="337.88738303998826" y1="0.5" y2="30"/><line opacity="0.2" x1="470.71917046723456" x2="470.71917046723456" y1="0.5" y2="30"/><line opacity="0.2" x1="405.31220401620357" x2="405.31220401620357" y1="0.5" y2="30"/><line opacity="0.2" x1="254.7534675252991" x2="254.7534675252991" y1="0.5" y2="30"/><line opacity="0.2" x1="238.5558967283597" x2="238.5558967283597" y1="0.5" y2="30"/><line opacity="0.2" x1="342.07581002322047" x2="342.07581002322047" y1="0.5" y2="30"/><line opacity="0.2" x1="269.7912984869039" x2="269.7912984869039" y1="0.5" y2="30"/><line opacity="0.2" x1="516.9218929031958" x2="516.9218929031958" y1="0.5" y2="30"/><line opacity="0.2" x1="501.71885350642" x2="501.71885350642" y1="0.5" y2="30"/><line opacity="0.2" x1="221.18700685960104" x2="221.18700685960104" y1="0.5" y2="30"/><line opacity="0.2" x1="389.74552462239524" x2="389.74552462239524" y1="0.5" y2="30"/><line opacity="0.2" x1="527.173510187403" x2="527.173510187403" y1="0.5" y2="30"/><line opacity="0.2" x1="387.93527687394834" x2="387.93527687394834" y1="0.5" y2="30"/><line opacity="0.2" x1="458.94562122971803" x2="458.94562122971803" y1="0.5" y2="30"/><line opacity="0.2" x1="270.3136982459309" x2="270.3136982459309" y1="0.5" y2="30"/><line opacity="0.2" x1="352.3550497017256" x2="352.3550497017256" y1="0.5" y2="30"/><line opacity="0.2" x1="357.2243371754917" x2="357.2243371754917" y1="0.5" y2="30"/><line opacity="0.2" x1="396.97321602434477" x2="396.97321602434477" y1="0.5" y2="30"/><line opacity="0.2" x1="399.87400000241365" x2="399.87400000241365" y1="0.5" y2="30"/><line opacity="0.2" x1="165.20578370256604" x2="165.20578370256604" y1="0.5" y2="30"/><line opacity="0.2" x1="441.7275497083537" x2="441.7275497083537" y1="0.5" y2="30"/><line opacity="0.2" x1="303.35829148189595" x2="303.35829148189595" y1="0.5" y2="30"/><line opacity="0.2" x1="379.64555777457645" x2="379.64555777457645" y1="0.5" y2="30"/><line opacity="0.2" x1="190.30320318923125" x2="190.30320318923125" y1="0.5" y2="30"/><line opacity="0.2" x1="247.33961684612711" x2="247.33961684612711" y1="0.5" y2="30"/><line opacity="0.2" x1="365.64032405573937" x2="365.64032405573937" y1="0.5" y2="30"/><line opacity="0.2" x1="394.1850356851175" x2="394.1850356851175" y1="0.5" y2="30"/><line opacity="0.2" x1="248.8688384480298" x2="248.8688384480298" y1="0.5" y2="30"/><line opacity="0.2" x1="370.6441769232247" x2="370.6441769232247" y1="0.5" y2="30"/><line opacity="0.2" x1="281.85689712084303" x2="281.85689712084303" y1="0.5" y2="30"/><line opacity="0.2" x1="372.1004793377434" x2="372.1004793377434" y1="0.5" y2="30"/><line opacity="0.2" x1="298.14893569633523" x2="298.14893569633523" y1="0.5" y2="30"/><line opacity="0.2" x1="418.6833047668963" x2="418.6833047668963" y1="0.5" y2="30"/><line opacity="0.2" x1="349.88744207965635" x2="349.88744207965635" y1="0.5" y2="30"/><line opacity="0.2" x1="497.14225532088864" x2="497.14225532088864" y1="0.5" y2="30"/><line opacity="0.2" x1="359.83765948791466" x2="359.83765948791466" y1="0.5" y2="30"/><line opacity="0.2" x1="294.2660868687417" x2="294.2660868687417" y1="0.5" y2="30"/><line opacity="0.2" x1="436.5928685146662" x2="436.5928685146662" y1="0.5" y2="30"/><line opacity="0.2" x1="355.82364621553495" x2="355.82364621553495" y1="0.5" y2="30"/><line opacity="0.2" x1="417.0405104887777" x2="417.0405104887777" y1="0.5" y2="30"/><line opacity="0.2" x1="255.40812787514824" x2="255.40812787514824" y1="0.5" y2="30"/><line opacity="0.2" x1="311.16480292020105" x2="311.16480292020105" y1="0.5" y2="30"/><line opacity="0.2" x1="432.4702303276437" x2="432.4702303276437" y1="0.5" y2="30"/><line opacity="0.2" x1="446.4440826822594" x2="446.4440826822594" y1="0.5" y2="30"/><line opacity="0.2" x1="330.89898309896785" x2="330.89898309896785" y1="0.5" y2="30"/><line opacity="0.2" x1="395.80506457949576" x2="395.80506457949576" y1="0.5" y2="30"/><line opacity="0.2" x1="446.766854521452" x2="446.766854521452" y1="0.5" y2="30"/><line opacity="0.2" x1="318.1957758783588" x2="318.1957758783588" y1="0.5" y2="30"/><line opacity="0.2" x1="403.4528542461833" x2="403.4528542461833" y1="0.5" y2="30"/><line opacity="0.2" x1="362.2350074336294" x2="362.2350074336294" y1="0.5" y2="30"/><line opacity="0.2" x1="455.3005906841591" x2="455.3005906841591" y1="0.5" y2="30"/><line opacity="0.2" x1="394.6579624944838" x2="394.6579624944838" y1="0.5" y2="30"/><line opacity="0.2" x1="294.8789686672562" x2="294.8789686672562" y1="0.5" y2="30"/><line opacity="0.2" x1="359.0271598430568" x2="359.0271598430568" y1="0.5" y2="30"/><line opacity="0.2" x1="236.79891088906163" x2="236.79891088906163" y1="0.5" y2="30"/><line opacity="0.2" x1="337.73355751006335" x2="337.73355751006335" y1="0.5" y2="30"/><line opacity="0.2" x1="254.93948042138334" x2="254.93948042138334" y1="0.5" y2="30"/><line opacity="0.2" x1="284.6003989741984" x2="284.6003989741984" y1="0.5" y2="30"/><line opacity="0.2" x1="190.78212410150326" x2="190.78212410150326" y1="0.5" y2="30"/><line opacity="0.2" x1="432.69696858715855" x2="432.69696858715855" y1="0.5" y2="30"/><line opacity="0.2" x1="410.2886211346314" x2="410.2886211346314" y1="0.5" y2="30"/><line opacity="0.2" x1="320.10084849451835" x2="320.10084849451835" y1="0.5" y2="30"/><line opacity="0.2" x1="409.9283751491019" x2="409.9283751491019" y1="0.5" y2="30"/><line opacity="0.2" x1="307.9579975953279" x2="307.9579975953279" y1="0.5" y2="30"/><line opacity="0.2" x1="268.7996083163067" x2="268.7996083163067" y1="0.5" y2="30"/><line opacity="0.2" x1="417.45238687345517" x2="417.45238687345517" y1="0.5" y2="30"/><line opacity="0.2" x1="431.96434595872114" x2="431.96434595872114" y1="0.5" y2="30"/><line opacity="0.2" x1="305.8257694903375" x2="305.8257694903375" y1="0.5" y2="30"/><line opacity="0.2" x1="244.23574779243725" x2="244.23574779243725" y1="0.5" y2="30"/><line opacity="0.2" x1="287.83527393557983" x2="287.83527393557983" y1="0.5" y2="30"/><line opacity="0.2" x1="465.25097447731565" x2="465.25097447731565" y1="0.5" y2="30"/><line opacity="0.2" x1="566.6605679638922" x2="566.6605679638922" y1="0.5" y2="30"/><line opacity="0.2" x1="242.5507446035228" x2="242.5507446035228" y1="0.5" y2="30"/><line opacity="0.2" x1="465.0239889467829" x2="465.0239889467829" y1="0.5" y2="30"/><line opacity="0.2" x1="240.8687022817519" x2="240.8687022817519" y1="0.5" y2="30"/><line opacity="0.2" x1="494.0918326089939" x2="494.0918326089939" y1="0.5" y2="30"/><line opacity="0.2" x1="422.8148454145634" x2="422.8148454145634" y1="0.5" y2="30"/><line opacity="0.2" x1="409.8943526448776" x2="409.8943526448776" y1="0.5" y2="30"/><line opacity="0.2" x1="372.9646709802892" x2="372.9646709802892" y1="0.5" y2="30"/><line opacity="0.2" x1="364.0142945433179" x2="364.0142945433179" y1="0.5" y2="30"/><line opacity="0.2" x1="301.86079699947544" x2="301.86079699947544" y1="0.5" y2="30"/><line opacity="0.2" x1="321.21501081304075" x2="321.21501081304075" y1="0.5" y2="30"/><line opacity="0.2" x1="260.11704060800207" x2="260.11704060800207" y1="0.5" y2="30"/><line opacity="0.2" x1="294.4884689559621" x2="294.4884689559621" y1="0.5" y2="30"/><line opacity="0.2" x1="310.39944173182437" x2="310.39944173182437" y1="0.5" y2="30"/><line opacity="0.2" x1="329.8080787935742" x2="329.8080787935742" y1="0.5" y2="30"/><line opacity="0.2" x1="586.6257745433444" x2="586.6257745433444" y1="0.5" y2="30"/><line opacity="0.2" x1="351.7704359863369" x2="351.7704359863369" y1="0.5" y2="30"/><line opacity="0.2" x1="299.93661073229566" x2="299.93661073229566" y1="0.5" y2="30"/><line opacity="0.2" x1="361.9291099109261" x2="361.9291099109261" y1="0.5" y2="30"/><line opacity="0.2" x1="267.8502800658703" x2="267.8502800658703" y1="0.5" y2="30"/><line opacity="0.2" x1="277.19423241945924" x2="277.19423241945924" y1="0.5" y2="30"/><line opacity="0.2" x1="285.8991439914022" x2="285.8991439914022" y1="0.5" y2="30"/><line opacity="0.2" x1="81.24525500473506" x2="81.24525500473506" y1="0.5" y2="30"/><line opacity="0.2" x1="288.1312386254619" x2="288.1312386254619" y1="0.5" y2="30"/><line opacity="0.2" x1="609.3811463605025" x2="609.3811463605025" y1="0.5" y2="30"/><line opacity="0.2" x1="319.50066001426" x2="319.50066001426" y1="0.5" y2="30"/><line opacity="0.2" x1="259.56499139498675" x2="259.56499139498675" y1="0.5" y2="30"/><line opacity="0.2" x1="425.0719145143404" x2="425.0719145143404" y1="0.5" y2="30"/><line opacity="0.2" x1="370.5504562555579" x2="370.5504562555579" y1="0.5" y2="30"/><line opacity="0.2" x1="460.2489405295053" x2="460.2489405295053" y1="0.5" y2="30"/><line opacity="0.2" x1="521.3474042320811" x2="521.3474042320811" y1="0.5" y2="30"/><line opacity="0.2" x1="292.8593760541922" x2="292.8593760541922" y1="0.5" y2="30"/><line opacity="0.2" x1="343.84873666009855" x2="343.84873666009855" y1="0.5" y2="30"/><line opacity="0.2" x1="313.8506683199097" x2="313.8506683199097" y1="0.5" y2="30"/><line opacity="0.2" x1="187.67754824449216" x2="187.67754824449216" y1="0.5" y2="30"/><line opacity="0.2" x1="475.7452410556624" x2="475.7452410556624" y1="0.5" y2="30"/><line opacity="0.2" x1="309.8930962495504" x2="309.8930962495504" y1="0.5" y2="30"/><line opacity="0.2" x1="313.71885979976696" x2="313.71885979976696" y1="0.5" y2="30"/><line opacity="0.2" x1="401.84950137962903" x2="401.84950137962903" y1="0.5" y2="30"/><line opacity="0.2" x1="259.32915705478354" x2="259.32915705478354" y1="0.5" y2="30"/><line opacity="0.2" x1="169.3825654058249" x2="169.3825654058249" y1="0.5" y2="30"/><line opacity="0.2" x1="240.17825285257808" x2="240.17825285257808" y1="0.5" y2="30"/><line opacity="0.2" x1="214.03781842973757" x2="214.03781842973757" y1="0.5" y2="30"/><line opacity="0.2" x1="355.03933418656584" x2="355.03933418656584" y1="0.5" y2="30"/><line opacity="0.2" x1="272.8212213963729" x2="272.8212213963729" y1="0.5" y2="30"/><line opacity="0.2" x1="168.0149394249296" x2="168.0149394249296" y1="0.5" y2="30"/><line opacity="0.2" x1="420.93168520612926" x2="420.93168520612926" y1="0.5" y2="30"/><line opacity="0.2" x1="259.810000912848" x2="259.810000912848" y1="0.5" y2="30"/><line opacity="0.2" x1="269.0943282550877" x2="269.0943282550877" y1="0.5" y2="30"/><line opacity="0.2" x1="420.06418711489266" x2="420.06418711489266" y1="0.5" y2="30"/><line opacity="0.2" x1="417.6164738373718" x2="417.6164738373718" y1="0.5" y2="30"/><line opacity="0.2" x1="387.95122524902786" x2="387.95122524902786" y1="0.5" y2="30"/><line opacity="0.2" x1="325.970650914264" x2="325.970650914264" y1="0.5" y2="30"/><line opacity="0.2" x1="140.67560012080034" x2="140.67560012080034" y1="0.5" y2="30"/><line opacity="0.2" x1="331.70387075598137" x2="331.70387075598137" y1="0.5" y2="30"/><line opacity="0.2" x1="266.3311798123829" x2="266.3311798123829" y1="0.5" y2="30"/><line opacity="0.2" x1="220.6624131528412" x2="220.6624131528412" y1="0.5" y2="30"/><line opacity="0.2" x1="334.11042280799404" x2="334.11042280799404" y1="0.5" y2="30"/><line opacity="0.2" x1="384.9244579730123" x2="384.9244579730123" y1="0.5" y2="30"/><line opacity="0.2" x1="396.7539554469805" x2="396.7539554469805" y1="0.5" y2="30"/><line opacity="0.2" x1="372.8845044062433" x2="372.8845044062433" y1="0.5" y2="30"/><line opacity="0.2" x1="466.29034356367606" x2="466.29034356367606" y1="0.5" y2="30"/><line opacity="0.2" x1="169.02253028621817" x2="169.02253028621817" y1="0.5" y2="30"/><line opacity="0.2" x1="404.1974956764461" x2="404.1974956764461" y1="0.5" y2="30"/><line opacity="0.2" x1="430.94097545748946" x2="430.94097545748946" y1="0.5" y2="30"/><line opacity="0.2" x1="379.84967431732804" x2="379.84967431732804" y1="0.5" y2="30"/><line opacity="0.2" x1="344.74689164924905" x2="344.74689164924905" y1="0.5" y2="30"/><line opacity="0.2" x1="421.04125752363234" x2="421.04125752363234" y1="0.5" y2="30"/><line opacity="0.2" x1="268.6256207417359" x2="268.6256207417359" y1="0.5" y2="30"/><line opacity="0.2" x1="80.40128919138837" x2="80.40128919138837" y1="0.5" y2="30"/><line opacity="0.2" x1="250.92829679884656" x2="250.92829679884656" y1="0.5" y2="30"/><line opacity="0.2" x1="284.088678593728" x2="284.088678593728" y1="0.5" y2="30"/><line opacity="0.2" x1="169.79933210589928" x2="169.79933210589928" y1="0.5" y2="30"/><line opacity="0.2" x1="208.58088152850624" x2="208.58088152850624" y1="0.5" y2="30"/><line opacity="0.2" x1="282.76960893842096" x2="282.76960893842096" y1="0.5" y2="30"/><line opacity="0.2" x1="410.9960012282322" x2="410.9960012282322" y1="0.5" y2="30"/><line opacity="0.2" x1="216.59132216925457" x2="216.59132216925457" y1="0.5" y2="30"/><line opacity="0.2" x1="137.62991689817122" x2="137.62991689817122" y1="0.5" y2="30"/><line opacity="0.2" x1="303.4190634207639" x2="303.4190634207639" y1="0.5" y2="30"/><line opacity="0.2" x1="218.5074416004563" x2="218.5074416004563" y1="0.5" y2="30"/><line opacity="0.2" x1="368.0783272900996" x2="368.0783272900996" y1="0.5" y2="30"/><line opacity="0.2" x1="219.77080574053923" x2="219.77080574053923" y1="0.5" y2="30"/><line opacity="0.2" x1="430.036733843068" x2="430.036733843068" y1="0.5" y2="30"/><line opacity="0.2" x1="367.02330095786806" x2="367.02330095786806" y1="0.5" y2="30"/><line opacity="0.2" x1="272.72803398048933" x2="272.72803398048933" y1="0.5" y2="30"/><line opacity="0.2" x1="232.46549982991525" x2="232.46549982991525" y1="0.5" y2="30"/><line opacity="0.2" x1="616.1316474500416" x2="616.1316474500416" y1="0.5" y2="30"/><line opacity="0.2" x1="312.64910149900726" x2="312.64910149900726" y1="0.5" y2="30"/><line opacity="0.2" x1="434.3514680976059" x2="434.3514680976059" y1="0.5" y2="30"/><line opacity="0.2" x1="358.6489575454077" x2="358.6489575454077" y1="0.5" y2="30"/><line opacity="0.2" x1="326.20037005579775" x2="326.20037005579775" y1="0.5" y2="30"/><line opacity="0.2" x1="291.2235737350273" x2="291.2235737350273" y1="0.5" y2="30"/><line opacity="0.2" x1="336.5625058333078" x2="336.5625058333078" y1="0.5" y2="30"/><line opacity="0.2" x1="450.67493917107777" x2="450.67493917107777" y1="0.5" y2="30"/><line opacity="0.2" x1="242.19480732999452" x2="242.19480732999452" y1="0.5" y2="30"/><line opacity="0.2" x1="317.2762404179415" x2="317.2762404179415" y1="0.5" y2="30"/><line opacity="0.2" x1="301.26928489389746" x2="301.26928489389746" y1="0.5" y2="30"/><line opacity="0.2" x1="395.1378092049445" x2="395.1378092049445" y1="0.5" y2="30"/><line opacity="0.2" x1="283.012485671599" x2="283.012485671599" y1="0.5" y2="30"/><line opacity="0.2" x1="232.5435301174866" x2="232.5435301174866" y1="0.5" y2="30"/><line opacity="0.2" x1="190.96078391208837" x2="190.96078391208837" y1="0.5" y2="30"/><line opacity="0.2" x1="399.6487613576548" x2="399.6487613576548" y1="0.5" y2="30"/><line opacity="0.2" x1="254.1216831168675" x2="254.1216831168675" y1="0.5" y2="30"/><line opacity="0.2" x1="238.8077256372232" x2="238.8077256372232" y1="0.5" y2="30"/><line opacity="0.2" x1="413.3970109664481" x2="413.3970109664481" y1="0.5" y2="30"/><line opacity="0.2" x1="560.829993227871" x2="560.829993227871" y1="0.5" y2="30"/><line opacity="0.2" x1="309.12047472495334" x2="309.12047472495334" y1="0.5" y2="30"/><line opacity="0.2" x1="344.78570290705517" x2="344.78570290705517" y1="0.5" y2="30"/><line opacity="0.2" x1="203.07223943489024" x2="203.07223943489024" y1="0.5" y2="30"/><line opacity="0.2" x1="340.26006595323213" x2="340.26006595323213" y1="0.5" y2="30"/><line opacity="0.2" x1="247.20262663278243" x2="247.20262663278243" y1="0.5" y2="30"/><line opacity="0.2" x1="420.8415673937917" x2="420.8415673937917" y1="0.5" y2="30"/><line opacity="0.2" x1="425.75687175265796" x2="425.75687175265796" y1="0.5" y2="30"/><line opacity="0.2" x1="235.14366548217333" x2="235.14366548217333" y1="0.5" y2="30"/><line opacity="0.2" x1="297.59419683647496" x2="297.59419683647496" y1="0.5" y2="30"/><line opacity="0.2" x1="328.81961417607926" x2="328.81961417607926" y1="0.5" y2="30"/><line opacity="0.2" x1="497.7960209455111" x2="497.7960209455111" y1="0.5" y2="30"/><line opacity="0.2" x1="533.7029401530089" x2="533.7029401530089" y1="0.5" y2="30"/><line opacity="0.2" x1="409.5628524100081" x2="409.5628524100081" y1="0.5" y2="30"/><line opacity="0.2" x1="391.0510190862629" x2="391.0510190862629" y1="0.5" y2="30"/><line opacity="0.2" x1="316.1661998218191" x2="316.1661998218191" y1="0.5" y2="30"/><line opacity="0.2" x1="458.7075751652036" x2="458.7075751652036" y1="0.5" y2="30"/><line opacity="0.2" x1="268.04703738646566" x2="268.04703738646566" y1="0.5" y2="30"/><line opacity="0.2" x1="278.9359898871532" x2="278.9359898871532" y1="0.5" y2="30"/><line opacity="0.2" x1="327.4564721059241" x2="327.4564721059241" y1="0.5" y2="30"/><line opacity="0.2" x1="374.8179045414195" x2="374.8179045414195" y1="0.5" y2="30"/><line opacity="0.2" x1="500.5196533676192" x2="500.5196533676192" y1="0.5" y2="30"/><line opacity="0.2" x1="243.5690427008319" x2="243.5690427008319" y1="0.5" y2="30"/><line opacity="0.2" x1="176.5639587399162" x2="176.5639587399162" y1="0.5" y2="30"/><line opacity="0.2" x1="450.41287785038935" x2="450.41287785038935" y1="0.5" y2="30"/><line opacity="0.2" x1="337.95256711259987" x2="337.95256711259987" y1="0.5" y2="30"/><line opacity="0.2" x1="289.47463733253954" x2="289.47463733253954" y1="0.5" y2="30"/><line opacity="0.2" x1="341.9888756482545" x2="341.9888756482545" y1="0.5" y2="30"/><line opacity="0.2" x1="368.93407909720537" x2="368.93407909720537" y1="0.5" y2="30"/><line opacity="0.2" x1="386.3622392991225" x2="386.3622392991225" y1="0.5" y2="30"/><line opacity="0.2" x1="231.03801886400706" x2="231.03801886400706" y1="0.5" y2="30"/><line opacity="0.2" x1="334.4890217843956" x2="334.4890217843956" y1="0.5" y2="30"/><line opacity="0.2" x1="508.42515137444815" x2="508.42515137444815" y1="0.5" y2="30"/><line opacity="0.2" x1="419.714899261986" x2="419.714899261986" y1="0.5" y2="30"/><line opacity="0.2" x1="372.8485204068367" x2="372.8485204068367" y1="0.5" y2="30"/><line opacity="0.2" x1="265.26475037917794" x2="265.26475037917794" y1="0.5" y2="30"/><line opacity="0.2" x1="247.18171842828883" x2="247.18171842828883" y1="0.5" y2="30"/><line opacity="0.2" x1="379.3947484886238" x2="379.3947484886238" y1="0.5" y2="30"/><line opacity="0.2" x1="296.8744337932451" x2="296.8744337932451" y1="0.5" y2="30"/><line opacity="0.2" x1="299.84835412133475" x2="299.84835412133475" y1="0.5" y2="30"/><line opacity="0.2" x1="293.93382855324734" x2="293.93382855324734" y1="0.5" y2="30"/><line opacity="0.2" x1="390.38880894128795" x2="390.38880894128795" y1="0.5" y2="30"/><line opacity="0.2" x1="382.1788745210985" x2="382.1788745210985" y1="0.5" y2="30"/><line opacity="0.2" x1="239.95591005572084" x2="239.95591005572084" y1="0.5" y2="30"/><line opacity="0.2" x1="308.0601416241566" x2="308.0601416241566" y1="0.5" y2="30"/><line opacity="0.2" x1="290.3636828381188" x2="290.3636828381188" y1="0.5" y2="30"/><line opacity="0.2" x1="281.53246419824785" x2="281.53246419824785" y1="0.5" y2="30"/><line opacity="0.2" x1="296.9509281271889" x2="296.9509281271889" y1="0.5" y2="30"/><line opacity="0.2" x1="314.6924162454751" x2="314.6924162454751" y1="0.5" y2="30"/><line opacity="0.2" x1="166.59419936661996" x2="166.59419936661996" y1="0.5" y2="30"/><line opacity="0.2" x1="319.4998346063416" x2="319.4998346063416" y1="0.5" y2="30"/><line opacity="0.2" x1="454.94558060454045" x2="454.94558060454045" y1="0.5" y2="30"/><line opacity="0.2" x1="272.63677116262505" x2="272.63677116262505" y1="0.5" y2="30"/><line opacity="0.2" x1="301.3380328546819" x2="301.3380328546819" y1="0.5" y2="30"/><line opacity="0.2" x1="310.4557901296443" x2="310.4557901296443" y1="0.5" y2="30"/><line opacity="0.2" x1="233.03511743090903" x2="233.03511743090903" y1="0.5" y2="30"/><line opacity="0.2" x1="459.30195867465073" x2="459.30195867465073" y1="0.5" y2="30"/><line opacity="0.2" x1="233.9679859771419" x2="233.9679859771419" y1="0.5" y2="30"/><line opacity="0.2" x1="156.87820772659776" x2="156.87820772659776" y1="0.5" y2="30"/><line opacity="0.2" x1="389.6120245263528" x2="389.6120245263528" y1="0.5" y2="30"/><line opacity="0.2" x1="305.9552752493089" x2="305.9552752493089" y1="0.5" y2="30"/><line opacity="0.2" x1="274.411498916718" x2="274.411498916718" y1="0.5" y2="30"/><line opacity="0.2" x1="293.7686995589427" x2="293.7686995589427" y1="0.5" y2="30"/><line opacity="0.2" x1="537.3052897144634" x2="537.3052897144634" y1="0.5" y2="30"/><line opacity="0.2" x1="280.82179545877165" x2="280.82179545877165" y1="0.5" y2="30"/><line opacity="0.2" x1="120.83795924127851" x2="120.83795924127851" y1="0.5" y2="30"/><line opacity="0.2" x1="358.0574331446968" x2="358.0574331446968" y1="0.5" y2="30"/><line opacity="0.2" x1="202.37132306370336" x2="202.37132306370336" y1="0.5" y2="30"/><line opacity="0.2" x1="369.90493022124963" x2="369.90493022124963" y1="0.5" y2="30"/><line opacity="0.2" x1="339.08342653607093" x2="339.08342653607093" y1="0.5" y2="30"/><line opacity="0.2" x1="232.76411514038355" x2="232.76411514038355" y1="0.5" y2="30"/><line opacity="0.2" x1="120.01535862124214" x2="120.01535862124214" y1="0.5" y2="30"/><line opacity="0.2" x1="351.4667161903893" x2="351.4667161903893" y1="0.5" y2="30"/><line opacity="0.2" x1="483.0834353226735" x2="483.0834353226735" y1="0.5" y2="30"/><line opacity="0.2" x1="374.76847341440345" x2="374.76847341440345" y1="0.5" y2="30"/><line opacity="0.2" x1="243.7901593066476" x2="243.7901593066476" y1="0.5" y2="30"/><line opacity="0.2" x1="411.12100022583076" x2="411.12100022583076" y1="0.5" y2="30"/><line opacity="0.2" x1="276.5260999249172" x2="276.5260999249172" y1="0.5" y2="30"/><line opacity="0.2" x1="369.25732285035326" x2="369.25732285035326" y1="0.5" y2="30"/><line opacity="0.2" x1="423.90276605371196" x2="423.90276605371196" y1="0.5" y2="30"/><line opacity="0.2" x1="248.0295518587213" x2="248.0295518587213" y1="0.5" y2="30"/><line opacity="0.2" x1="379.01742026675714" x2="379.01742026675714" y1="0.5" y2="30"/><line opacity="0.2" x1="241.24222590014296" x2="241.24222590014296" y1="0.5" y2="30"/><line opacity="0.2" x1="301.3183854314891" x2="301.3183854314891" y1="0.5" y2="30"/><line opacity="0.2" x1="349.81691484073264" x2="349.81691484073264" y1="0.5" y2="30"/><line opacity="0.2" x1="391.0336799295672" x2="391.0336799295672" y1="0.5" y2="30"/><line opacity="0.2" x1="362.9578537330499" x2="362.9578537330499" y1="0.5" y2="30"/><line opacity="0.2" x1="399.3670259058592" x2="399.3670259058592" y1="0.5" y2="30"/><line opacity="0.2" x1="498.511500151354" x2="498.511500151354" y1="0.5" y2="30"/><line opacity="0.2" x1="409.44928623521156" x2="409.44928623521156" y1="0.5" y2="30"/><line opacity="0.2" x1="398.9629179433486" x2="398.9629179433486" y1="0.5" y2="30"/><line opacity="0.2" x1="331.09885986840413" x2="331.09885986840413" y1="0.5" y2="30"/><line opacity="0.2" x1="235.81803984618583" x2="235.81803984618583" y1="0.5" y2="30"/><line opacity="0.2" x1="230.05264055389904" x2="230.05264055389904" y1="0.5" y2="30"/><line opacity="0.2" x1="293.2219599181874" x2="293.2219599181874" y1="0.5" y2="30"/><line opacity="0.2" x1="302.9269929437405" x2="302.9269929437405" y1="0.5" y2="30"/><line opacity="0.2" x1="325.2485226214514" x2="325.2485226214514" y1="0.5" y2="30"/><line opacity="0.2" x1="325.1327430658848" x2="325.1327430658848" y1="0.5" y2="30"/><line opacity="0.2" x1="506.05105614362105" x2="506.05105614362105" y1="0.5" y2="30"/><line opacity="0.2" x1="367.51806300964523" x2="367.51806300964523" y1="0.5" y2="30"/><line opacity="0.2" x1="273.17612185420427" x2="273.17612185420427" y1="0.5" y2="30"/><line opacity="0.2" x1="344.7866588181445" x2="344.7866588181445" y1="0.5" y2="30"/><line opacity="0.2" x1="242.6184540780071" x2="242.6184540780071" y1="0.5" y2="30"/><line opacity="0.2" x1="252.35424655631553" x2="252.35424655631553" y1="0.5" y2="30"/><line opacity="0.2" x1="305.20752851431973" x2="305.20752851431973" y1="0.5" y2="30"/><line opacity="0.2" x1="20.9702580089908" x2="20.9702580089908" y1="0.5" y2="30"/><line opacity="0.2" x1="440.4556480113755" x2="440.4556480113755" y1="0.5" y2="30"/><line opacity="0.2" x1="394.6933600518636" x2="394.6933600518636" y1="0.5" y2="30"/><line opacity="0.2" x1="343.6723268075893" x2="343.6723268075893" y1="0.5" y2="30"/><line opacity="0.2" x1="398.5870230067638" x2="398.5870230067638" y1="0.5" y2="30"/><line opacity="0.2" x1="296.54750255202566" x2="296.54750255202566" y1="0.5" y2="30"/><line opacity="0.2" x1="425.7800557884236" x2="425.7800557884236" y1="0.5" y2="30"/><line opacity="0.2" x1="290.32777115092864" x2="290.32777115092864" y1="0.5" y2="30"/><line opacity="0.2" x1="295.53720967959026" x2="295.53720967959026" y1="0.5" y2="30"/><line opacity="0.2" x1="372.27470198092783" x2="372.27470198092783" y1="0.5" y2="30"/><line opacity="0.2" x1="316.9897251346924" x2="316.9897251346924" y1="0.5" y2="30"/><line opacity="0.2" x1="222.5512318302811" x2="222.5512318302811" y1="0.5" y2="30"/><line opacity="0.2" x1="373.608926486279" x2="373.608926486279" y1="0.5" y2="30"/><line opacity="0.2" x1="342.51441939985517" x2="342.51441939985517" y1="0.5" y2="30"/><line opacity="0.2" x1="129.7338637299545" x2="129.7338637299545" y1="0.5" y2="30"/><line opacity="0.2" x1="457.058754405824" x2="457.058754405824" y1="0.5" y2="30"/><line opacity="0.2" x1="327.97885884867264" x2="327.97885884867264" y1="0.5" y2="30"/><line opacity="0.2" x1="366.78531591045635" x2="366.78531591045635" y1="0.5" y2="30"/><line opacity="0.2" x1="323.294955290333" x2="323.294955290333" y1="0.5" y2="30"/><line opacity="0.2" x1="225.72532225925434" x2="225.72532225925434" y1="0.5" y2="30"/><line opacity="0.2" x1="194.8648023829061" x2="194.8648023829061" y1="0.5" y2="30"/><line opacity="0.2" x1="394.1498497848486" x2="394.1498497848486" y1="0.5" y2="30"/><line opacity="0.2" x1="313.36626872832795" x2="313.36626872832795" y1="0.5" y2="30"/><line opacity="0.2" x1="256.19330551694475" x2="256.19330551694475" y1="0.5" y2="30"/><line opacity="0.2" x1="316.5643260547011" x2="316.5643260547011" y1="0.5" y2="30"/><line opacity="0.2" x1="435.7000715791605" x2="435.7000715791605" y1="0.5" y2="30"/><line opacity="0.2" x1="369.684590374358" x2="369.684590374358" y1="0.5" y2="30"/><line opacity="0.2" x1="307.18887101361395" x2="307.18887101361395" y1="0.5" y2="30"/><line opacity="0.2" x1="368.7280055171099" x2="368.7280055171099" y1="0.5" y2="30"/><line opacity="0.2" x1="282.60253577611155" x2="282.60253577611155" y1="0.5" y2="30"/><line opacity="0.2" x1="193.85002530199975" x2="193.85002530199975" y1="0.5" y2="30"/><line opacity="0.2" x1="223.64275172963866" x2="223.64275172963866" y1="0.5" y2="30"/><line opacity="0.2" x1="169.8273665893587" x2="169.8273665893587" y1="0.5" y2="30"/><line opacity="0.2" x1="187.5063450819269" x2="187.5063450819269" y1="0.5" y2="30"/><line opacity="0.2" x1="364.41441956483027" x2="364.41441956483027" y1="0.5" y2="30"/><line opacity="0.2" x1="386.25640863304557" x2="386.25640863304557" y1="0.5" y2="30"/><line opacity="0.2" x1="398.5936965187167" x2="398.5936965187167" y1="0.5" y2="30"/><line opacity="0.2" x1="515.0353630889304" x2="515.0353630889304" y1="0.5" y2="30"/><line opacity="0.2" x1="239.43397296001677" x2="239.43397296001677" y1="0.5" y2="30"/><line opacity="0.2" x1="184.07737576794895" x2="184.07737576794895" y1="0.5" y2="30"/><line opacity="0.2" x1="363.21471776325797" x2="363.21471776325797" y1="0.5" y2="30"/><line opacity="0.2" x1="402.7047653946888" x2="402.7047653946888" y1="0.5" y2="30"/><line opacity="0.2" x1="416.6663123712281" x2="416.6663123712281" y1="0.5" y2="30"/><line opacity="0.2" x1="418.1479155414059" x2="418.1479155414059" y1="0.5" y2="30"/><line opacity="0.2" x1="418.3652945672239" x2="418.3652945672239" y1="0.5" y2="30"/><line opacity="0.2" x1="444.68650248223975" x2="444.68650248223975" y1="0.5" y2="30"/><line opacity="0.2" x1="194.0361294632408" x2="194.0361294632408" y1="0.5" y2="30"/><line opacity="0.2" x1="318.0120897028405" x2="318.0120897028405" y1="0.5" y2="30"/><line opacity="0.2" x1="383.2307785103769" x2="383.2307785103769" y1="0.5" y2="30"/><line opacity="0.2" x1="336.9086993694897" x2="336.9086993694897" y1="0.5" y2="30"/><line opacity="0.2" x1="354.99647627022466" x2="354.99647627022466" y1="0.5" y2="30"/><line opacity="0.2" x1="333.63908562353316" x2="333.63908562353316" y1="0.5" y2="30"/><line opacity="0.2" x1="246.19895393962582" x2="246.19895393962582" y1="0.5" y2="30"/><line opacity="0.2" x1="227.59844567546946" x2="227.59844567546946" y1="0.5" y2="30"/><line opacity="0.2" x1="270.2560062602861" x2="270.2560062602861" y1="0.5" y2="30"/><line opacity="0.2" x1="97.09757577594317" x2="97.09757577594317" y1="0.5" y2="30"/><line opacity="0.2" x1="354.28777705929656" x2="354.28777705929656" y1="0.5" y2="30"/><line opacity="0.2" x1="241.77293144001402" x2="241.77293144001402" y1="0.5" y2="30"/><line opacity="0.2" x1="246.24716087048412" x2="246.24716087048412" y1="0.5" y2="30"/><line opacity="0.2" x1="432.8935904286472" x2="432.8935904286472" y1="0.5" y2="30"/><line opacity="0.2" x1="180.14862858107898" x2="180.14862858107898" y1="0.5" y2="30"/><line opacity="0.2" x1="257.9645485873491" x2="257.9645485873491" y1="0.5" y2="30"/><line opacity="0.2" x1="547.0825236177214" x2="547.0825236177214" y1="0.5" y2="30"/><line opacity="0.2" x1="318.47829379627177" x2="318.47829379627177" y1="0.5" y2="30"/><line opacity="0.2" x1="344.1457949240943" x2="344.1457949240943" y1="0.5" y2="30"/><line opacity="0.2" x1="301.84611111641004" x2="301.84611111641004" y1="0.5" y2="30"/><line opacity="0.2" x1="304.9337073405847" x2="304.9337073405847" y1="0.5" y2="30"/><line opacity="0.2" x1="451.905151091729" x2="451.905151091729" y1="0.5" y2="30"/><line opacity="0.2" x1="248.60615492678284" x2="248.60615492678284" y1="0.5" y2="30"/><line opacity="0.2" x1="332.7912543057837" x2="332.7912543057837" y1="0.5" y2="30"/><line opacity="0.2" x1="307.3534949771019" x2="307.3534949771019" y1="0.5" y2="30"/><line opacity="0.2" x1="218.74960155004916" x2="218.74960155004916" y1="0.5" y2="30"/><line opacity="0.2" x1="472.09270984647276" x2="472.09270984647276" y1="0.5" y2="30"/><line opacity="0.2" x1="221.35207683850743" x2="221.35207683850743" y1="0.5" y2="30"/><line opacity="0.2" x1="344.81534427839836" x2="344.81534427839836" y1="0.5" y2="30"/><line opacity="0.2" x1="319.12906625344704" x2="319.12906625344704" y1="0.5" y2="30"/><line opacity="0.2" x1="299.86108456442696" x2="299.86108456442696" y1="0.5" y2="30"/><line opacity="0.2" x1="323.605045679728" x2="323.605045679728" y1="0.5" y2="30"/><line opacity="0.2" x1="385.51323512840577" x2="385.51323512840577" y1="0.5" y2="30"/><line opacity="0.2" x1="361.39383679895974" x2="361.39383679895974" y1="0.5" y2="30"/><line opacity="0.2" x1="451.9266158449571" x2="451.9266158449571" y1="0.5" y2="30"/><line opacity="0.2" x1="313.92531363679285" x2="313.92531363679285" y1="0.5" y2="30"/><line opacity="0.2" x1="338.4437007853688" x2="338.4437007853688" y1="0.5" y2="30"/><line opacity="0.2" x1="416.2942194930669" x2="416.2942194930669" y1="0.5" y2="30"/><line opacity="0.2" x1="275.93683857096795" x2="275.93683857096795" y1="0.5" y2="30"/><line opacity="0.2" x1="366.1074878983449" x2="366.1074878983449" y1="0.5" y2="30"/><line opacity="0.2" x1="99.28771530598058" x2="99.28771530598058" y1="0.5" y2="30"/><line opacity="0.2" x1="260.00622469146526" x2="260.00622469146526" y1="0.5" y2="30"/><line opacity="0.2" x1="411.40264191757274" x2="411.40264191757274" y1="0.5" y2="30"/><line opacity="0.2" x1="375.1632981365774" x2="375.1632981365774" y1="0.5" y2="30"/><line opacity="0.2" x1="260.2941396409754" x2="260.2941396409754" y1="0.5" y2="30"/><line opacity="0.2" x1="424.40885941496043" x2="424.40885941496043" y1="0.5" y2="30"/><line opacity="0.2" x1="351.81064469907415" x2="351.81064469907415" y1="0.5" y2="30"/><line opacity="0.2" x1="309.37782083632607" x2="309.37782083632607" y1="0.5" y2="30"/><line opacity="0.2" x1="346.71081140386684" x2="346.71081140386684" y1="0.5" y2="30"/><line opacity="0.2" x1="197.8671738053818" x2="197.8671738053818" y1="0.5" y2="30"/><line opacity="0.2" x1="204.18740404787616" x2="204.18740404787616" y1="0.5" y2="30"/><line opacity="0.2" x1="291.79952295501516" x2="291.79952295501516" y1="0.5" y2="30"/><line opacity="0.2" x1="419.6023771384536" x2="419.6023771384536" y1="0.5" y2="30"/><line opacity="0.2" x1="393.6342201656553" x2="393.6342201656553" y1="0.5" y2="30"/><line opacity="0.2" x1="333.5466381175257" x2="333.5466381175257" y1="0.5" y2="30"/><line opacity="0.2" x1="436.1389840032435" x2="436.1389840032435" y1="0.5" y2="30"/><line opacity="0.2" x1="206.49370903717383" x2="206.49370903717383" y1="0.5" y2="30"/><line opacity="0.2" x1="449.6460154241567" x2="449.6460154241567" y1="0.5" y2="30"/><line opacity="0.2" x1="265.80669480756603" x2="265.80669480756603" y1="0.5" y2="30"/><line opacity="0.2" x1="414.0177669617362" x2="414.0177669617362" y1="0.5" y2="30"/><line opacity="0.2" x1="392.53690799647234" x2="392.53690799647234" y1="0.5" y2="30"/><line opacity="0.2" x1="275.87088799402767" x2="275.87088799402767" y1="0.5" y2="30"/><line opacity="0.2" x1="292.7099609512474" x2="292.7099609512474" y1="0.5" y2="30"/><line opacity="0.2" x1="269.2443581332655" x2="269.2443581332655" y1="0.5" y2="30"/><line opacity="0.2" x1="444.68630831002696" x2="444.68630831002696" y1="0.5" y2="30"/><line opacity="0.2" x1="358.67748852643405" x2="358.67748852643405" y1="0.5" y2="30"/><line opacity="0.2" x1="437.1881986514837" x2="437.1881986514837" y1="0.5" y2="30"/><line opacity="0.2" x1="421.43970547353206" x2="421.43970547353206" y1="0.5" y2="30"/><line opacity="0.2" x1="461.1248886423441" x2="461.1248886423441" y1="0.5" y2="30"/><line opacity="0.2" x1="265.57660574055353" x2="265.57660574055353" y1="0.5" y2="30"/><line opacity="0.2" x1="255.97108824370434" x2="255.97108824370434" y1="0.5" y2="30"/><line opacity="0.2" x1="288.04133913262586" x2="288.04133913262586" y1="0.5" y2="30"/><line opacity="0.2" x1="353.1687461669516" x2="353.1687461669516" y1="0.5" y2="30"/><line opacity="0.2" x1="324.00543219110295" x2="324.00543219110295" y1="0.5" y2="30"/><line opacity="0.2" x1="335.8079392821191" x2="335.8079392821191" y1="0.5" y2="30"/><line opacity="0.2" x1="278.7536019237777" x2="278.7536019237777" y1="0.5" y2="30"/><line opacity="0.2" x1="317.1177154924062" x2="317.1177154924062" y1="0.5" y2="30"/><line opacity="0.2" x1="349.78505621833" x2="349.78505621833" y1="0.5" y2="30"/><line opacity="0.2" x1="269.6515292017454" x2="269.6515292017454" y1="0.5" y2="30"/><line opacity="0.2" x1="357.84886298682954" x2="357.84886298682954" y1="0.5" y2="30"/><line opacity="0.2" x1="291.4519503660418" x2="291.4519503660418" y1="0.5" y2="30"/><line opacity="0.2" x1="312.6793669070416" x2="312.6793669070416" y1="0.5" y2="30"/><line opacity="0.2" x1="358.6692492404794" x2="358.6692492404794" y1="0.5" y2="30"/><line opacity="0.2" x1="322.36364412019" x2="322.36364412019" y1="0.5" y2="30"/><line opacity="0.2" x1="316.7817883298655" x2="316.7817883298655" y1="0.5" y2="30"/><line opacity="0.2" x1="293.6594362622126" x2="293.6594362622126" y1="0.5" y2="30"/><line opacity="0.2" x1="330.8666083058197" x2="330.8666083058197" y1="0.5" y2="30"/><line opacity="0.2" x1="516.2529009370434" x2="516.2529009370434" y1="0.5" y2="30"/><line opacity="0.2" x1="261.8600932701079" x2="261.8600932701079" y1="0.5" y2="30"/><line opacity="0.2" x1="342.29509177647344" x2="342.29509177647344" y1="0.5" y2="30"/><line opacity="0.2" x1="466.87684084638585" x2="466.87684084638585" y1="0.5" y2="30"/><line opacity="0.2" x1="304.3114777860779" x2="304.3114777860779" y1="0.5" y2="30"/><line opacity="0.2" x1="348.4649540624943" x2="348.4649540624943" y1="0.5" y2="30"/><line opacity="0.2" x1="328.2847593792456" x2="328.2847593792456" y1="0.5" y2="30"/><line opacity="0.2" x1="339.6018118659181" x2="339.6018118659181" y1="0.5" y2="30"/><line opacity="0.2" x1="295.7002672764636" x2="295.7002672764636" y1="0.5" y2="30"/><line opacity="0.2" x1="265.8663020505129" x2="265.8663020505129" y1="0.5" y2="30"/><line opacity="0.2" x1="370.84360436259635" x2="370.84360436259635" y1="0.5" y2="30"/><line opacity="0.2" x1="518.4029515352756" x2="518.4029515352756" y1="0.5" y2="30"/><line opacity="0.2" x1="314.6416075455086" x2="314.6416075455086" y1="0.5" y2="30"/><line opacity="0.2" x1="282.54181497111426" x2="282.54181497111426" y1="0.5" y2="30"/><line opacity="0.2" x1="106.2000479584308" x2="106.2000479584308" y1="0.5" y2="30"/><line opacity="0.2" x1="282.88143599943976" x2="282.88143599943976" y1="0.5" y2="30"/><line opacity="0.2" x1="270.9617812693192" x2="270.9617812693192" y1="0.5" y2="30"/><line opacity="0.2" x1="381.6449812859445" x2="381.6449812859445" y1="0.5" y2="30"/><line opacity="0.2" x1="246.62344490961607" x2="246.62344490961607" y1="0.5" y2="30"/><line opacity="0.2" x1="312.02536217520367" x2="312.02536217520367" y1="0.5" y2="30"/><line opacity="0.2" x1="208.16089485855656" x2="208.16089485855656" y1="0.5" y2="30"/><line opacity="0.2" x1="276.0920695416479" x2="276.0920695416479" y1="0.5" y2="30"/><line opacity="0.2" x1="406.17710581724316" x2="406.17710581724316" y1="0.5" y2="30"/><line opacity="0.2" x1="217.11903285649123" x2="217.11903285649123" y1="0.5" y2="30"/><line opacity="0.2" x1="228.47694262595996" x2="228.47694262595996" y1="0.5" y2="30"/><line opacity="0.2" x1="359.22427434394325" x2="359.22427434394325" y1="0.5" y2="30"/><line opacity="0.2" x1="210.51645528724995" x2="210.51645528724995" y1="0.5" y2="30"/><line opacity="0.2" x1="298.5123069436845" x2="298.5123069436845" y1="0.5" y2="30"/><line opacity="0.2" x1="280.36291389800687" x2="280.36291389800687" y1="0.5" y2="30"/><line opacity="0.2" x1="232.29899504050582" x2="232.29899504050582" y1="0.5" y2="30"/><line opacity="0.2" x1="240.39443354755608" x2="240.39443354755608" y1="0.5" y2="30"/><line opacity="0.2" x1="359.00960392565776" x2="359.00960392565776" y1="0.5" y2="30"/><line opacity="0.2" x1="208.63789636758034" x2="208.63789636758034" y1="0.5" y2="30"/><line opacity="0.2" x1="111.37104957761967" x2="111.37104957761967" y1="0.5" y2="30"/><line opacity="0.2" x1="298.2978853379942" x2="298.2978853379942" y1="0.5" y2="30"/><line opacity="0.2" x1="434.5534269838479" x2="434.5534269838479" y1="0.5" y2="30"/><line opacity="0.2" x1="293.43654067310985" x2="293.43654067310985" y1="0.5" y2="30"/><line opacity="0.2" x1="263.25067042337525" x2="263.25067042337525" y1="0.5" y2="30"/><line opacity="0.2" x1="382.6122607874727" x2="382.6122607874727" y1="0.5" y2="30"/><line opacity="0.2" x1="423.95175269226235" x2="423.95175269226235" y1="0.5" y2="30"/><line opacity="0.2" x1="384.3589071486546" x2="384.3589071486546" y1="0.5" y2="30"/><line opacity="0.2" x1="148.24869441124378" x2="148.24869441124378" y1="0.5" y2="30"/><line opacity="0.2" x1="286.1867165081854" x2="286.1867165081854" y1="0.5" y2="30"/><line opacity="0.2" x1="236.25793886789907" x2="236.25793886789907" y1="0.5" y2="30"/><line opacity="0.2" x1="246.84826295045494" x2="246.84826295045494" y1="0.5" y2="30"/><line opacity="0.2" x1="364.6850769317244" x2="364.6850769317244" y1="0.5" y2="30"/><line opacity="0.2" x1="208.37451011692502" x2="208.37451011692502" y1="0.5" y2="30"/><line opacity="0.2" x1="260.51577935177494" x2="260.51577935177494" y1="0.5" y2="30"/><line opacity="0.2" x1="376.4175117237447" x2="376.4175117237447" y1="0.5" y2="30"/><line opacity="0.2" x1="276.1665439026071" x2="276.1665439026071" y1="0.5" y2="30"/><line opacity="0.2" x1="206.63728929010216" x2="206.63728929010216" y1="0.5" y2="30"/><line opacity="0.2" x1="462.7157019359665" x2="462.7157019359665" y1="0.5" y2="30"/><line opacity="0.2" x1="288.8099727409553" x2="288.8099727409553" y1="0.5" y2="30"/><line opacity="0.2" x1="307.326941018721" x2="307.326941018721" y1="0.5" y2="30"/><line opacity="0.2" x1="350.3998242161276" x2="350.3998242161276" y1="0.5" y2="30"/><line opacity="0.2" x1="385.52414510167984" x2="385.52414510167984" y1="0.5" y2="30"/><line opacity="0.2" x1="247.00376629311987" x2="247.00376629311987" y1="0.5" y2="30"/><line opacity="0.2" x1="311.1914803319536" x2="311.1914803319536" y1="0.5" y2="30"/><line opacity="0.2" x1="502.1488733797217" x2="502.1488733797217" y1="0.5" y2="30"/><line opacity="0.2" x1="167.15689897373835" x2="167.15689897373835" y1="0.5" y2="30"/><line opacity="0.2" x1="230.0335410389552" x2="230.0335410389552" y1="0.5" y2="30"/><line opacity="0.2" x1="341.550737564208" x2="341.550737564208" y1="0.5" y2="30"/><line opacity="0.2" x1="382.67597966363775" x2="382.67597966363775" y1="0.5" y2="30"/><line opacity="0.2" x1="379.7055325508634" x2="379.7055325508634" y1="0.5" y2="30"/><line opacity="0.2" x1="363.06989257101634" x2="363.06989257101634" y1="0.5" y2="30"/><line opacity="0.2" x1="164.90181831887153" x2="164.90181831887153" y1="0.5" y2="30"/><line opacity="0.2" x1="325.2654015210915" x2="325.2654015210915" y1="0.5" y2="30"/><line opacity="0.2" x1="384.53862319487604" x2="384.53862319487604" y1="0.5" y2="30"/><line opacity="0.2" x1="277.7203286502597" x2="277.7203286502597" y1="0.5" y2="30"/><line opacity="0.2" x1="312.90848976952816" x2="312.90848976952816" y1="0.5" y2="30"/><line opacity="0.2" x1="244.1091147418395" x2="244.1091147418395" y1="0.5" y2="30"/><line opacity="0.2" x1="206.95251876653106" x2="206.95251876653106" y1="0.5" y2="30"/><line opacity="0.2" x1="425.5248765996342" x2="425.5248765996342" y1="0.5" y2="30"/><line opacity="0.2" x1="331.783217502785" x2="331.783217502785" y1="0.5" y2="30"/><line opacity="0.2" x1="458.74129748300794" x2="458.74129748300794" y1="0.5" y2="30"/></g></svg>