<svg xmlns="http://www.w3.org/2000/svg" xmlns:xlink="http://www.w3.org/1999/xlink" class="plot-b7493089e5d6a" fill="currentColor" font-family="system-ui, sans-serif" font-size="10" text-anchor="middle" width="640" height="60" viewBox="0 0 640 60" style="color: black;"><style>
        .plot-b7493089e5d6a {
          display: block;
          background: white;
          height: auto;
          height: intrinsic;
          max-width: 100%;
        }
        .plot-b7493089e5d6a text,
        .plot-b7493089e5d6a tspan {
          white-space: pre;
        }
      </style><g aria-label="x-axis tick" fill="none" stroke="currentColor" transform="translate(0.5,0)"><path transform="translate(50.898427084295804,30)" d="M0,0L0,6"/><path transform="translate(147.53363151779612,30)" d="M0,0L0,6"/><path transform="translate(244.16883595129644,30)" d="M0,0L0,6"/><path transform="translate(340.8040403847968,30)" d="M0,0L0,6"/><path transform="translate(437.4392448182971,30)" d="M0,0L0,6"/><path transform="translate(534.0744492517974,30)" d="M0,0L0,6"/></g><g aria-label="x-axis tick label" font-variant="tabular-nums" transform="translate(0.5,9.5)"><text y="0.71em" transform="translate(50.898427084295804,30)">−3</text><text y="0.71em" transform="translate(147.53363151779612,30)">−2</text><text y="0.71em" transform="translate(244.16883595129644,30)">−1</text><text y="0.71em" transform="translate(340.8040403847968,30)">0</text><text y="0.71em" transform="translate(437.4392448182971,30)">1</text><text y="0.71em" transform="translate(534.0744492517974,30)">2</text></g><g aria-label="tick" stroke="royalblue" transform="translate(0.5,0)"><line opacity="0.2" x1="345.5271323983204" x2="345.5271323983204" y1="0" y2="30"/><line opacity="0.2" x1="216.53417909370904" x2="216.53417909370904" y1="0" y2="30"/><line opacity="0.2" x1="373.2943075461345" x2="373.2943075461345" y1="0" y2="30"/><line opacity="0.2" x1="276.374081600943" x2="276.374081600943" y1="0" y2="30"/><line opacity="0.2" x1="328.5011190763999" x2="328.5011190763999" y1="0" y2="30"/><line opacity="0.2" x1="382.43622329684064" x2="382.43622329684064" y1="0" y2="30"/><line opacity="0.2" x1="350.1844481404897" x2="350.1844481404897" y1="0" y2="30"/><line opacity="0.2" x1="234.38985699907568" x2="234.38985699907568" y1="0" y2="30"/><line opacity="0.2" x1="392.5834422649162" x2="392.5834422649162" y1="0" y2="30"/><line opacity="0.2" x1="201.39545495420964" x2="201.39545495420964" y1="0" y2="30"/><line opacity="0.2" x1="405.7997790811048" x2="405.7997790811048" y1="0" y2="30"/><line opacity="0.2" x1="300.8206339240754" x2="300.8206339240754" y1="0" y2="30"/><line opacity="0.2" x1="570.243582149967" x2="570.243582149967" y1="0" y2="30"/><line opacity="0.2" x1="385.4699166625253" x2="385.4699166625253" y1="0" y2="30"/><line opacity="0.2" x1="369.8091345955148" x2="369.8091345955148" y1="0" y2="30"/><line opacity="0.2" x1="244.3465813898955" x2="244.3465813898955" y1="0" y2="30"/><line opacity="0.2" x1="290.2046366957312" x2="290.2046366957312" y1="0" y2="30"/><line opacity="0.2" x1="300.9715770864439" x2="300.9715770864439" y1="0" y2="30"/><line opacity="0.2" x1="278.40398709065244" x2="278.40398709065244" y1="0" y2="30"/><line opacity="0.2" x1="432.753770913117" x2="432.753770913117" y1="0" y2="30"/><line opacity="0.2" x1="380.8764082833898" x2="380.8764082833898" y1="0" y2="30"/><line opacity="0.2" x1="391.1913709122951" x2="391.1913709122951" y1="0" y2="30"/><line opacity="0.2" x1="472.40051851020024" x2="472.40051851020024" y1="0" y2="30"/><line opacity="0.2" x1="412.3408952784622" x2="412.3408952784622" y1="0" y2="30"/><line opacity="0.2" x1="166.7085745041238" x2="166.7085745041238" y1="0" y2="30"/><line opacity="0.2" x1="291.6691123155688" x2="291.6691123155688" y1="0" y2="30"/><line opacity="0.2" x1="531.7165836583648" x2="531.7165836583648" y1="0" y2="30"/><line opacity="0.2" x1="427.1922093303683" x2="427.1922093303683" y1="0" y2="30"/><line opacity="0.2" x1="200.3020343831307" x2="200.3020343831307" y1="0" y2="30"/><line opacity="0.2" x1="364.6044101309393" x2="364.6044101309393" y1="0" y2="30"/><line opacity="0.2" x1="107.36638921918552" x2="107.36638921918552" y1="0" y2="30"/><line opacity="0.2" x1="142.37587406624624" x2="142.37587406624624" y1="0" y2="30"/><line opacity="0.2" x1="430.631595632094" x2="430.631595632094" y1="0" y2="30"/><line opacity="0.2" x1="230.3891575611818" x2="230.3891575611818" y1="0" y2="30"/><line opacity="0.2" x1="236.9941278533833" x2="236.9941278533833" y1="0" y2="30"/><line opacity="0.2" x1="305.1837955879892" x2="305.1837955879892" y1="0" y2="30"/><line opacity="0.2" x1="270.5249612085842" x2="270.5249612085842" y1="0" y2="30"/><line opacity="0.2" x1="268.159545647834" x2="268.159545647834" y1="0" y2="30"/><line opacity="0.2" x1="169.34898809292255" x2="169.34898809292255" y1="0" y2="30"/><line opacity="0.2" x1="409.0819952229224" x2="409.0819952229224" y1="0" y2="30"/><line opacity="0.2" x1="421.41683921695454" x2="421.41683921695454" y1="0" y2="30"/><line opacity="0.2" x1="254.49722945508873" x2="254.49722945508873" y1="0" y2="30"/><line opacity="0.2" x1="347.34684633199913" x2="347.34684633199913" y1="0" y2="30"/><line opacity="0.2" x1="254.9037138512323" x2="254.9037138512323" y1="0" y2="30"/><line opacity="0.2" x1="386.8765462308285" x2="386.8765462308285" y1="0" y2="30"/><line opacity="0.2" x1="219.19408476356855" x2="219.19408476356855" y1="0" y2="30"/><line opacity="0.2" x1="311.53483672068927" x2="311.53483672068927" y1="0" y2="30"/><line opacity="0.2" x1="394.9012488844109" x2="394.9012488844109" y1="0" y2="30"/><line opacity="0.2" x1="168.43579823201745" x2="168.43579823201745" y1="0" y2="30"/><line opacity="0.2" x1="440.07668768284003" x2="440.07668768284003" y1="0" y2="30"/><line opacity="0.2" x1="317.58343238437334" x2="317.58343238437334" y1="0" y2="30"/><line opacity="0.2" x1="386.60010053889937" x2="386.60010053889937" y1="0" y2="30"/><line opacity="0.2" x1="254.57274744809206" x2="254.57274744809206" y1="0" y2="30"/><line opacity="0.2" x1="359.27278234004814" x2="359.27278234004814" y1="0" y2="30"/><line opacity="0.2" x1="269.73400417932504" x2="269.73400417932504" y1="0" y2="30"/><line opacity="0.2" x1="580.3576341278418" x2="580.3576341278418" y1="0" y2="30"/><line opacity="0.2" x1="257.3333303224558" x2="257.3333303224558" y1="0" y2="30"/><line opacity="0.2" x1="264.78353172288604" x2="264.78353172288604" y1="0" y2="30"/><line opacity="0.2" x1="393.32566596062406" x2="393.32566596062406" y1="0" y2="30"/><line opacity="0.2" x1="446.45147486737636" x2="446.45147486737636" y1="0" y2="30"/><line opacity="0.2" x1="487.0389550001287" x2="487.0389550001287" y1="0" y2="30"/><line opacity="0.2" x1="531.789688946724" x2="531.789688946724" y1="0" y2="30"/><line opacity="0.2" x1="327.312674039581" x2="327.312674039581" y1="0" y2="30"/><line opacity="0.2" x1="387.0389559758133" x2="387.0389559758133" y1="0" y2="30"/><line opacity="0.2" x1="432.788419952749" x2="432.788419952749" y1="0" y2="30"/><line opacity="0.2" x1="439.7769611202532" x2="439.7769611202532" y1="0" y2="30"/><line opacity="0.2" x1="473.6225739261897" x2="473.6225739261897" y1="0" y2="30"/><line opacity="0.2" x1="389.1527697392992" x2="389.1527697392992" y1="0" y2="30"/><line opacity="0.2" x1="43.126787656184064" x2="43.126787656184064" y1="0" y2="30"/><line opacity="0.2" x1="389.93612928884147" x2="389.93612928884147" y1="0" y2="30"/><line opacity="0.2" x1="375.8420501128761" x2="375.8420501128761" y1="0" y2="30"/><line opacity="0.2" x1="445.100218407867" x2="445.100218407867" y1="0" y2="30"/><line opacity="0.2" x1="434.37328498766453" x2="434.37328498766453" y1="0" y2="30"/><line opacity="0.2" x1="416.2968177613454" x2="416.2968177613454" y1="0" y2="30"/><line opacity="0.2" x1="444.895723788096" x2="444.895723788096" y1="0" y2="30"/><line opacity="0.2" x1="299.9299817757375" x2="299.9299817757375" y1="0" y2="30"/><line opacity="0.2" x1="416.7960142830198" x2="416.7960142830198" y1="0" y2="30"/><line opacity="0.2" x1="358.0487768844526" x2="358.0487768844526" y1="0" y2="30"/><line opacity="0.2" x1="297.0665039142326" x2="297.0665039142326" y1="0" y2="30"/><line opacity="0.2" x1="191.9619701836624" x2="191.9619701836624" y1="0" y2="30"/><line opacity="0.2" x1="325.85276504189596" x2="325.85276504189596" y1="0" y2="30"/><line opacity="0.2" x1="317.9709847040627" x2="317.9709847040627" y1="0" y2="30"/><line opacity="0.2" x1="497.7635745869494" x2="497.7635745869494" y1="0" y2="30"/><line opacity="0.2" x1="428.64008344446944" x2="428.64008344446944" y1="0" y2="30"/><line opacity="0.2" x1="436.47356715297184" x2="436.47356715297184" y1="0" y2="30"/><line opacity="0.2" x1="391.986771140661" x2="391.986771140661" y1="0" y2="30"/><line opacity="0.2" x1="394.3077670898666" x2="394.3077670898666" y1="0" y2="30"/><line opacity="0.2" x1="322.92453161593653" x2="322.92453161593653" y1="0" y2="30"/><line opacity="0.2" x1="196.9909522055883" x2="196.9909522055883" y1="0" y2="30"/><line opacity="0.2" x1="264.6463484306533" x2="264.6463484306533" y1="0" y2="30"/><line opacity="0.2" x1="358.3774185045159" x2="358.3774185045159" y1="0" y2="30"/><line opacity="0.2" x1="354.0005090204339" x2="354.0005090204339" y1="0" y2="30"/><line opacity="0.2" x1="319.617251456758" x2="319.617251456758" y1="0" y2="30"/><line opacity="0.2" x1="440.7228181237082" x2="440.7228181237082" y1="0" y2="30"/><line opacity="0.2" x1="443.1039694553086" x2="443.1039694553086" y1="0" y2="30"/><line opacity="0.2" x1="277.8473410415122" x2="277.8473410415122" y1="0" y2="30"/><line opacity="0.2" x1="211.89065454184612" x2="211.89065454184612" y1="0" y2="30"/><line opacity="0.2" x1="335.4175652226434" x2="335.4175652226434" y1="0" y2="30"/><line opacity="0.2" x1="255.2618605609378" x2="255.2618605609378" y1="0" y2="30"/><line opacity="0.2" x1="406.1876696298546" x2="406.1876696298546" y1="0" y2="30"/><line opacity="0.2" x1="275.35892519306987" x2="275.35892519306987" y1="0" y2="30"/><line opacity="0.2" x1="336.8876600792426" x2="336.8876600792426" y1="0" y2="30"/><line opacity="0.2" x1="344.1990630084092" x2="344.1990630084092" y1="0" y2="30"/><line opacity="0.2" x1="284.10441904655084" x2="284.10441904655084" y1="0" y2="30"/><line opacity="0.2" x1="334.46423985795894" x2="334.46423985795894" y1="0" y2="30"/><line opacity="0.2" x1="375.60171159793606" x2="375.60171159793606" y1="0" y2="30"/><line opacity="0.2" x1="339.10490621659744" x2="339.10490621659744" y1="0" y2="30"/><line opacity="0.2" x1="533.5124840438058" x2="533.5124840438058" y1="0" y2="30"/><line opacity="0.2" x1="332.56153251808183" x2="332.56153251808183" y1="0" y2="30"/><line opacity="0.2" x1="356.7148827616439" x2="356.7148827616439" y1="0" y2="30"/><line opacity="0.2" x1="502.22515761463654" x2="502.22515761463654" y1="0" y2="30"/><line opacity="0.2" x1="384.0127177110593" x2="384.0127177110593" y1="0" y2="30"/><line opacity="0.2" x1="381.87127471609625" x2="381.87127471609625" y1="0" y2="30"/><line opacity="0.2" x1="375.81431397166415" x2="375.81431397166415" y1="0" y2="30"/><line opacity="0.2" x1="327.05870652098235" x2="327.05870652098235" y1="0" y2="30"/><line opacity="0.2" x1="218.99705236789754" x2="218.99705236789754" y1="0" y2="30"/><line opacity="0.2" x1="507.41450823532887" x2="507.41450823532887" y1="0" y2="30"/><line opacity="0.2" x1="398.21007539501187" x2="398.21007539501187" y1="0" y2="30"/><line opacity="0.2" x1="522.2768760315437" x2="522.2768760315437" y1="0" y2="30"/><line opacity="0.2" x1="205.7122027952811" x2="205.7122027952811" y1="0" y2="30"/><line opacity="0.2" x1="300.5070877412541" x2="300.5070877412541" y1="0" y2="30"/><line opacity="0.2" x1="370.266094698789" x2="370.266094698789" y1="0" y2="30"/><line opacity="0.2" x1="196.88220602918807" x2="196.88220602918807" y1="0" y2="30"/><line opacity="0.2" x1="443.98922233486735" x2="443.98922233486735" y1="0" y2="30"/><line opacity="0.2" x1="373.17347686364656" x2="373.17347686364656" y1="0" y2="30"/><line opacity="0.2" x1="192.46412874099298" x2="192.46412874099298" y1="0" y2="30"/><line opacity="0.2" x1="376.0068136194385" x2="376.0068136194385" y1="0" y2="30"/><line opacity="0.2" x1="315.41918759291406" x2="315.41918759291406" y1="0" y2="30"/><line opacity="0.2" x1="413.7870907335706" x2="413.7870907335706" y1="0" y2="30"/><line opacity="0.2" x1="450.7808331156147" x2="450.7808331156147" y1="0" y2="30"/><line opacity="0.2" x1="386.31032970970773" x2="386.31032970970773" y1="0" y2="30"/><line opacity="0.2" x1="323.18161228533256" x2="323.18161228533256" y1="0" y2="30"/><line opacity="0.2" x1="411.67886924322147" x2="411.67886924322147" y1="0" y2="30"/><line opacity="0.2" x1="372.0492659324008" x2="372.0492659324008" y1="0" y2="30"/><line opacity="0.2" x1="309.579651474494" x2="309.579651474494" y1="0" y2="30"/><line opacity="0.2" x1="210.86388878374777" x2="210.86388878374777" y1="0" y2="30"/><line opacity="0.2" x1="293.46097186538873" x2="293.46097186538873" y1="0" y2="30"/><line opacity="0.2" x1="451.7603665267493" x2="451.7603665267493" y1="0" y2="30"/><line opacity="0.2" x1="568.1022023717203" x2="568.1022023717203" y1="0" y2="30"/><line opacity="0.2" x1="305.89207726356693" x2="305.89207726356693" y1="0" y2="30"/><line opacity="0.2" x1="162.39762011510194" x2="162.39762011510194" y1="0" y2="30"/><line opacity="0.2" x1="589.1566297161562" x2="589.1566297161562" y1="0" y2="30"/><line opacity="0.2" x1="237.0911526339329" x2="237.0911526339329" y1="0" y2="30"/><line opacity="0.2" x1="347.3204947122286" x2="347.3204947122286" y1="0" y2="30"/><line opacity="0.2" x1="457.78542287759785" x2="457.78542287759785" y1="0" y2="30"/><line opacity="0.2" x1="394.7038141760492" x2="394.7038141760492" y1="0" y2="30"/><line opacity="0.2" x1="277.4627837828634" x2="277.4627837828634" y1="0" y2="30"/><line opacity="0.2" x1="348.96725845556887" x2="348.96725845556887" y1="0" y2="30"/><line opacity="0.2" x1="340.034442064922" x2="340.034442064922" y1="0" y2="30"/><line opacity="0.2" x1="335.92935723217136" x2="335.92935723217136" y1="0" y2="30"/><line opacity="0.2" x1="377.09336780522494" x2="377.09336780522494" y1="0" y2="30"/><line opacity="0.2" x1="237.91173512238836" x2="237.91173512238836" y1="0" y2="30"/><line opacity="0.2" x1="265.90956802073924" x2="265.90956802073924" y1="0" y2="30"/><line opacity="0.2" x1="352.43344949488534" x2="352.43344949488534" y1="0" y2="30"/><line opacity="0.2" x1="310.08497240144027" x2="310.08497240144027" y1="0" y2="30"/><line opacity="0.2" x1="245.00203000559523" x2="245.00203000559523" y1="0" y2="30"/><line opacity="0.2" x1="361.3843159815166" x2="361.3843159815166" y1="0" y2="30"/><line opacity="0.2" x1="298.3548981050689" x2="298.3548981050689" y1="0" y2="30"/><line opacity="0.2" x1="456.2706067600139" x2="456.2706067600139" y1="0" y2="30"/><line opacity="0.2" x1="161.82954581669526" x2="161.82954581669526" y1="0" y2="30"/><line opacity="0.2" x1="276.36446121360564" x2="276.36446121360564" y1="0" y2="30"/><line opacity="0.2" x1="325.88408182079615" x2="325.88408182079615" y1="0" y2="30"/><line opacity="0.2" x1="372.7559875366468" x2="372.7559875366468" y1="0" y2="30"/><line opacity="0.2" x1="294.20665234332074" x2="294.20665234332074" y1="0" y2="30"/><line opacity="0.2" x1="367.30884892943357" x2="367.30884892943357" y1="0" y2="30"/><line opacity="0.2" x1="313.4426230166549" x2="313.4426230166549" y1="0" y2="30"/><line opacity="0.2" x1="231.96338001696125" x2="231.96338001696125" y1="0" y2="30"/><line opacity="0.2" x1="219.11102941831484" x2="219.11102941831484" y1="0" y2="30"/><line opacity="0.2" x1="417.0688035002158" x2="417.0688035002158" y1="0" y2="30"/><line opacity="0.2" x1="315.4833605772134" x2="315.4833605772134" y1="0" y2="30"/><line opacity="0.2" x1="293.10612640255545" x2="293.10612640255545" y1="0" y2="30"/><line opacity="0.2" x1="371.4087285433862" x2="371.4087285433862" y1="0" y2="30"/><line opacity="0.2" x1="382.4964024902078" x2="382.4964024902078" y1="0" y2="30"/><line opacity="0.2" x1="390.1852561401691" x2="390.1852561401691" y1="0" y2="30"/><line opacity="0.2" x1="323.75802618260997" x2="323.75802618260997" y1="0" y2="30"/><line opacity="0.2" x1="316.6524962326425" x2="316.6524962326425" y1="0" y2="30"/><line opacity="0.2" x1="456.88753090682945" x2="456.88753090682945" y1="0" y2="30"/><line opacity="0.2" x1="278.873804464574" x2="278.873804464574" y1="0" y2="30"/><line opacity="0.2" x1="515.4130252306977" x2="515.4130252306977" y1="0" y2="30"/><line opacity="0.2" x1="195.29598512468073" x2="195.29598512468073" y1="0" y2="30"/><line opacity="0.2" x1="271.4528737569311" x2="271.4528737569311" y1="0" y2="30"/><line opacity="0.2" x1="202.6343811496191" x2="202.6343811496191" y1="0" y2="30"/><line opacity="0.2" x1="316.35011841407606" x2="316.35011841407606" y1="0" y2="30"/><line opacity="0.2" x1="349.0924932655827" x2="349.0924932655827" y1="0" y2="30"/><line opacity="0.2" x1="377.6687700832549" x2="377.6687700832549" y1="0" y2="30"/><line opacity="0.2" x1="465.9668228984503" x2="465.9668228984503" y1="0" y2="30"/><line opacity="0.2" x1="338.6773747546365" x2="338.6773747546365" y1="0" y2="30"/><line opacity="0.2" x1="328.73741659561307" x2="328.73741659561307" y1="0" y2="30"/><line opacity="0.2" x1="354.04879959765617" x2="354.04879959765617" y1="0" y2="30"/><line opacity="0.2" x1="317.9434371040805" x2="317.9434371040805" y1="0" y2="30"/><line opacity="0.2" x1="240.986882543047" x2="240.986882543047" y1="0" y2="30"/><line opacity="0.2" x1="305.08704908334533" x2="305.08704908334533" y1="0" y2="30"/><line opacity="0.2" x1="225.94616627704292" x2="225.94616627704292" y1="0" y2="30"/><line opacity="0.2" x1="20" x2="20" y1="0" y2="30"/><line opacity="0.2" x1="285.6798015815226" x2="285.6798015815226" y1="0" y2="30"/><line opacity="0.2" x1="420.9145317609333" x2="420.9145317609333" y1="0" y2="30"/><line opacity="0.2" x1="334.50008934746296" x2="334.50008934746296" y1="0" y2="30"/><line opacity="0.2" x1="111.09357892354404" x2="111.09357892354404" y1="0" y2="30"/><line opacity="0.2" x1="362.67820327573827" x2="362.67820327573827" y1="0" y2="30"/><line opacity="0.2" x1="404.5613156279364" x2="404.5613156279364" y1="0" y2="30"/><line opacity="0.2" x1="384.88001813588215" x2="384.88001813588215" y1="0" y2="30"/><line opacity="0.2" x1="352.2856344630768" x2="352.2856344630768" y1="0" y2="30"/><line opacity="0.2" x1="252.10353217648023" x2="252.10353217648023" y1="0" y2="30"/><line opacity="0.2" x1="563.2002070807216" x2="563.2002070807216" y1="0" y2="30"/><line opacity="0.2" x1="196.69515202790714" x2="196.69515202790714" y1="0" y2="30"/><line opacity="0.2" x1="343.0539057103242" x2="343.0539057103242" y1="0" y2="30"/><line opacity="0.2" x1="368.44957714590464" x2="368.44957714590464" y1="0" y2="30"/><line opacity="0.2" x1="209.21963091544654" x2="209.21963091544654" y1="0" y2="30"/><line opacity="0.2" x1="422.797643435248" x2="422.797643435248" y1="0" y2="30"/><line opacity="0.2" x1="216.8523834291724" x2="216.8523834291724" y1="0" y2="30"/><line opacity="0.2" x1="380.5864567071739" x2="380.5864567071739" y1="0" y2="30"/><line opacity="0.2" x1="377.0274147516223" x2="377.0274147516223" y1="0" y2="30"/><line opacity="0.2" x1="334.0035994508896" x2="334.0035994508896" y1="0" y2="30"/><line opacity="0.2" x1="352.05372516498574" x2="352.05372516498574" y1="0" y2="30"/><line opacity="0.2" x1="321.6332620638589" x2="321.6332620638589" y1="0" y2="30"/><line opacity="0.2" x1="337.19198855883343" x2="337.19198855883343" y1="0" y2="30"/><line opacity="0.2" x1="409.39692012597817" x2="409.39692012597817" y1="0" y2="30"/><line opacity="0.2" x1="435.22591564753566" x2="435.22591564753566" y1="0" y2="30"/><line opacity="0.2" x1="249.0811157688038" x2="249.0811157688038" y1="0" y2="30"/><line opacity="0.2" x1="433.23166359487396" x2="433.23166359487396" y1="0" y2="30"/><line opacity="0.2" x1="295.435173543097" x2="295.435173543097" y1="0" y2="30"/><line opacity="0.2" x1="367.2262623343255" x2="367.2262623343255" y1="0" y2="30"/><line opacity="0.2" x1="454.2364518021143" x2="454.2364518021143" y1="0" y2="30"/><line opacity="0.2" x1="414.75008626064334" x2="414.75008626064334" y1="0" y2="30"/><line opacity="0.2" x1="399.71365857612744" x2="399.71365857612744" y1="0" y2="30"/><line opacity="0.2" x1="430.6840567152112" x2="430.6840567152112" y1="0" y2="30"/><line opacity="0.2" x1="490.85918224741613" x2="490.85918224741613" y1="0" y2="30"/><line opacity="0.2" x1="169.8116537440469" x2="169.8116537440469" y1="0" y2="30"/><line opacity="0.2" x1="375.45432326617447" x2="375.45432326617447" y1="0" y2="30"/><line opacity="0.2" x1="340.97486390630274" x2="340.97486390630274" y1="0" y2="30"/><line opacity="0.2" x1="192.1566891599903" x2="192.1566891599903" y1="0" y2="30"/><line opacity="0.2" x1="282.99455669650854" x2="282.99455669650854" y1="0" y2="30"/><line opacity="0.2" x1="412.7757858455187" x2="412.7757858455187" y1="0" y2="30"/><line opacity="0.2" x1="432.04865625449384" x2="432.04865625449384" y1="0" y2="30"/><line opacity="0.2" x1="231.8531592496548" x2="231.8531592496548" y1="0" y2="30"/><line opacity="0.2" x1="317.06709742101765" x2="317.06709742101765" y1="0" y2="30"/><line opacity="0.2" x1="302.8285970935204" x2="302.8285970935204" y1="0" y2="30"/><line opacity="0.2" x1="320.0642310824617" x2="320.0642310824617" y1="0" y2="30"/><line opacity="0.2" x1="370.4431348843109" x2="370.4431348843109" y1="0" y2="30"/><line opacity="0.2" x1="319.1026001979283" x2="319.1026001979283" y1="0" y2="30"/><line opacity="0.2" x1="413.4262183689806" x2="413.4262183689806" y1="0" y2="30"/><line opacity="0.2" x1="313.7377843195568" x2="313.7377843195568" y1="0" y2="30"/><line opacity="0.2" x1="294.6951029843457" x2="294.6951029843457" y1="0" y2="30"/><line opacity="0.2" x1="210.29378628117718" x2="210.29378628117718" y1="0" y2="30"/><line opacity="0.2" x1="272.9500231471308" x2="272.9500231471308" y1="0" y2="30"/><line opacity="0.2" x1="156.3283530322055" x2="156.3283530322055" y1="0" y2="30"/><line opacity="0.2" x1="397.9269284255914" x2="397.9269284255914" y1="0" y2="30"/><line opacity="0.2" x1="316.17821246462046" x2="316.17821246462046" y1="0" y2="30"/><line opacity="0.2" x1="443.80907095262603" x2="443.80907095262603" y1="0" y2="30"/><line opacity="0.2" x1="217.2495874415308" x2="217.2495874415308" y1="0" y2="30"/><line opacity="0.2" x1="240.16356936435696" x2="240.16356936435696" y1="0" y2="30"/><line opacity="0.2" x1="236.26893702798083" x2="236.26893702798083" y1="0" y2="30"/><line opacity="0.2" x1="413.10881152469443" x2="413.10881152469443" y1="0" y2="30"/><line opacity="0.2" x1="438.00033340246574" x2="438.00033340246574" y1="0" y2="30"/><line opacity="0.2" x1="368.04274404288645" x2="368.04274404288645" y1="0" y2="30"/><line opacity="0.2" x1="191.96024278459592" x2="191.96024278459592" y1="0" y2="30"/><line opacity="0.2" x1="202.19139148368686" x2="202.19139148368686" y1="0" y2="30"/><line opacity="0.2" x1="461.7825305779369" x2="461.7825305779369" y1="0" y2="30"/><line opacity="0.2" x1="382.5914561123054" x2="382.5914561123054" y1="0" y2="30"/><line opacity="0.2" x1="227.8851190179089" x2="227.8851190179089" y1="0" y2="30"/><line opacity="0.2" x1="308.7629640936378" x2="308.7629640936378" y1="0" y2="30"/><line opacity="0.2" x1="382.646818902408" x2="382.646818902408" y1="0" y2="30"/><line opacity="0.2" x1="412.9068526700001" x2="412.9068526700001" y1="0" y2="30"/><line opacity="0.2" x1="286.118056799183" x2="286.118056799183" y1="0" y2="30"/><line opacity="0.2" x1="338.67904378785767" x2="338.67904378785767" y1="0" y2="30"/><line opacity="0.2" x1="394.26998378610665" x2="394.26998378610665" y1="0" y2="30"/><line opacity="0.2" x1="121.25870605719811" x2="121.25870605719811" y1="0" y2="30"/><line opacity="0.2" x1="310.39172986660583" x2="310.39172986660583" y1="0" y2="30"/><line opacity="0.2" x1="417.9047226131683" x2="417.9047226131683" y1="0" y2="30"/><line opacity="0.2" x1="412.4545305852638" x2="412.4545305852638" y1="0" y2="30"/><line opacity="0.2" x1="415.1637877351553" x2="415.1637877351553" y1="0" y2="30"/><line opacity="0.2" x1="352.3795470825309" x2="352.3795470825309" y1="0" y2="30"/><line opacity="0.2" x1="523.3984029646324" x2="523.3984029646324" y1="0" y2="30"/><line opacity="0.2" x1="223.73600381270495" x2="223.73600381270495" y1="0" y2="30"/><line opacity="0.2" x1="474.4018100326175" x2="474.4018100326175" y1="0" y2="30"/><line opacity="0.2" x1="319.38407310216843" x2="319.38407310216843" y1="0" y2="30"/><line opacity="0.2" x1="456.1910054404468" x2="456.1910054404468" y1="0" y2="30"/><line opacity="0.2" x1="494.11544720089876" x2="494.11544720089876" y1="0" y2="30"/><line opacity="0.2" x1="224.0304971656684" x2="224.0304971656684" y1="0" y2="30"/><line opacity="0.2" x1="304.0534696586634" x2="304.0534696586634" y1="0" y2="30"/><line opacity="0.2" x1="172.30391362831355" x2="172.30391362831355" y1="0" y2="30"/><line opacity="0.2" x1="338.8200903462118" x2="338.8200903462118" y1="0" y2="30"/><line opacity="0.2" x1="294.6745578444206" x2="294.6745578444206" y1="0" y2="30"/><line opacity="0.2" x1="99.40516497210717" x2="99.40516497210717" y1="0" y2="30"/><line opacity="0.2" x1="474.84314602607895" x2="474.84314602607895" y1="0" y2="30"/><line opacity="0.2" x1="204.1860616206814" x2="204.1860616206814" y1="0" y2="30"/><line opacity="0.2" x1="536.0367949288321" x2="536.0367949288321" y1="0" y2="30"/><line opacity="0.2" x1="281.9994189024792" x2="281.9994189024792" y1="0" y2="30"/><line opacity="0.2" x1="174.9766661841674" x2="174.9766661841674" y1="0" y2="30"/><line opacity="0.2" x1="461.2076758370256" x2="461.2076758370256" y1="0" y2="30"/><line opacity="0.2" x1="272.8346554084727" x2="272.8346554084727" y1="0" y2="30"/><line opacity="0.2" x1="137.60480973283205" x2="137.60480973283205" y1="0" y2="30"/><line opacity="0.2" x1="375.43157159772704" x2="375.43157159772704" y1="0" y2="30"/><line opacity="0.2" x1="324.48268933624075" x2="324.48268933624075" y1="0" y2="30"/><line opacity="0.2" x1="252.9674490575939" x2="252.9674490575939" y1="0" y2="30"/><line opacity="0.2" x1="532.5263026681431" x2="532.5263026681431" y1="0" y2="30"/><line opacity="0.2" x1="465.3344215275417" x2="465.3344215275417" y1="0" y2="30"/><line opacity="0.2" x1="246.21952072608647" x2="246.21952072608647" y1="0" y2="30"/><line opacity="0.2" x1="552.5481697362275" x2="552.5481697362275" y1="0" y2="30"/><line opacity="0.2" x1="439.4772270869613" x2="439.4772270869613" y1="0" y2="30"/><line opacity="0.2" x1="547.7936418416028" x2="547.7936418416028" y1="0" y2="30"/><line opacity="0.2" x1="260.71054584652575" x2="260.71054584652575" y1="0" y2="30"/><line opacity="0.2" x1="240.50866688605709" x2="240.50866688605709" y1="0" y2="30"/><line opacity="0.2" x1="386.838832186523" x2="386.838832186523" y1="0" y2="30"/><line opacity="0.2" x1="340.0596724632858" x2="340.0596724632858" y1="0" y2="30"/><line opacity="0.2" x1="437.81550127739894" x2="437.81550127739894" y1="0" y2="30"/><line opacity="0.2" x1="386.93226106365586" x2="386.93226106365586" y1="0" y2="30"/><line opacity="0.2" x1="428.7136874884298" x2="428.7136874884298" y1="0" y2="30"/><line opacity="0.2" x1="328.0537917984717" x2="328.0537917984717" y1="0" y2="30"/><line opacity="0.2" x1="299.2862390200327" x2="299.2862390200327" y1="0" y2="30"/><line opacity="0.2" x1="464.6302308092675" x2="464.6302308092675" y1="0" y2="30"/><line opacity="0.2" x1="175.47800950013982" x2="175.47800950013982" y1="0" y2="30"/><line opacity="0.2" x1="386.7486082845209" x2="386.7486082845209" y1="0" y2="30"/><line opacity="0.2" x1="337.02117118020806" x2="337.02117118020806" y1="0" y2="30"/><line opacity="0.2" x1="280.09739636635874" x2="280.09739636635874" y1="0" y2="30"/><line opacity="0.2" x1="501.06825596966877" x2="501.06825596966877" y1="0" y2="30"/><line opacity="0.2" x1="219.94789779922687" x2="219.94789779922687" y1="0" y2="30"/><line opacity="0.2" x1="303.6019082008665" x2="303.6019082008665" y1="0" y2="30"/><line opacity="0.2" x1="221.09930045894285" x2="221.09930045894285" y1="0" y2="30"/><line opacity="0.2" x1="213.28140751001007" x2="213.28140751001007" y1="0" y2="30"/><line opacity="0.2" x1="432.6821044850049" x2="432.6821044850049" y1="0" y2="30"/><line opacity="0.2" x1="278.5735467924078" x2="278.5735467924078" y1="0" y2="30"/><line opacity="0.2" x1="450.58388182507576" x2="450.58388182507576" y1="0" y2="30"/><line opacity="0.2" x1="363.1420780612893" x2="363.1420780612893" y1="0" y2="30"/><line opacity="0.2" x1="229.9878956841793" x2="229.9878956841793" y1="0" y2="30"/><line opacity="0.2" x1="264.4580410559775" x2="264.4580410559775" y1="0" y2="30"/><line opacity="0.2" x1="237.47048017225262" x2="237.47048017225262" y1="0" y2="30"/><line opacity="0.2" x1="418.27765163983435" x2="418.27765163983435" y1="0" y2="30"/><line opacity="0.2" x1="223.46802713858742" x2="223.46802713858742" y1="0" y2="30"/><line opacity="0.2" x1="352.36137154069417" x2="352.36137154069417" y1="0" y2="30"/><line opacity="0.2" x1="188.02600761247606" x2="188.02600761247606" y1="0" y2="30"/><line opacity="0.2" x1="80.1567156798184" x2="80.1567156798184" y1="0" y2="30"/><line opacity="0.2" x1="457.62973795749394" x2="457.62973795749394" y1="0" y2="30"/><line opacity="0.2" x1="304.37037180540636" x2="304.37037180540636" y1="0" y2="30"/><line opacity="0.2" x1="359.35912350618526" x2="359.35912350618526" y1="0" y2="30"/><line opacity="0.2" x1="295.4952390658767" x2="295.4952390658767" y1="0" y2="30"/><line opacity="0.2" x1="419.7460272291271" x2="419.7460272291271" y1="0" y2="30"/><line opacity="0.2" x1="245.3382458429191" x2="245.3382458429191" y1="0" y2="30"/><line opacity="0.2" x1="353.0522721301745" x2="353.0522721301745" y1="0" y2="30"/><line opacity="0.2" x1="448.3808901076598" x2="448.3808901076598" y1="0" y2="30"/><line opacity="0.2" x1="507.70925366573937" x2="507.70925366573937" y1="0" y2="30"/><line opacity="0.2" x1="161.7004945424463" x2="161.7004945424463" y1="0" y2="30"/><line opacity="0.2" x1="486.66710708878304" x2="486.66710708878304" y1="0" y2="30"/><line opacity="0.2" x1="251.70924057917634" x2="251.70924057917634" y1="0" y2="30"/><line opacity="0.2" x1="141.10551515163277" x2="141.10551515163277" y1="0" y2="30"/><line opacity="0.2" x1="370.043415450722" x2="370.043415450722" y1="0" y2="30"/><line opacity="0.2" x1="352.39584842409295" x2="352.39584842409295" y1="0" y2="30"/><line opacity="0.2" x1="244.64143168398354" x2="244.64143168398354" y1="0" y2="30"/><line opacity="0.2" x1="227.83979977211533" x2="227.83979977211533" y1="0" y2="30"/><line opacity="0.2" x1="397.21492688478656" x2="397.21492688478656" y1="0" y2="30"/><line opacity="0.2" x1="286.5058554969547" x2="286.5058554969547" y1="0" y2="30"/><line opacity="0.2" x1="451.3602626546708" x2="451.3602626546708" y1="0" y2="30"/><line opacity="0.2" x1="509.55243118906196" x2="509.55243118906196" y1="0" y2="30"/><line opacity="0.2" x1="271.081700762478" x2="271.081700762478" y1="0" y2="30"/><line opacity="0.2" x1="508.71827400049364" x2="508.71827400049364" y1="0" y2="30"/><line opacity="0.2" x1="195.30533024695944" x2="195.30533024695944" y1="0" y2="30"/><line opacity="0.2" x1="175.0758488677693" x2="175.0758488677693" y1="0" y2="30"/><line opacity="0.2" x1="446.3405395606096" x2="446.3405395606096" y1="0" y2="30"/><line opacity="0.2" x1="327.30152774100065" x2="327.30152774100065" y1="0" y2="30"/><line opacity="0.2" x1="305.92945657780854" x2="305.92945657780854" y1="0" y2="30"/><line opacity="0.2" x1="255.77293101793956" x2="255.77293101793956" y1="0" y2="30"/><line opacity="0.2" x1="538.3893306428196" x2="538.3893306428196" y1="0" y2="30"/><line opacity="0.2" x1="194.61217536462786" x2="194.61217536462786" y1="0" y2="30"/><line opacity="0.2" x1="253.7818643182407" x2="253.7818643182407" y1="0" y2="30"/><line opacity="0.2" x1="307.3715917329767" x2="307.3715917329767" y1="0" y2="30"/><line opacity="0.2" x1="351.2477736352445" x2="351.2477736352445" y1="0" y2="30"/><line opacity="0.2" x1="214.29663035177393" x2="214.29663035177393" y1="0" y2="30"/><line opacity="0.2" x1="319.0480720334599" x2="319.0480720334599" y1="0" y2="30"/><line opacity="0.2" x1="215.10993189339925" x2="215.10993189339925" y1="0" y2="30"/><line opacity="0.2" x1="357.19974599018394" x2="357.19974599018394" y1="0" y2="30"/><line opacity="0.2" x1="323.75090449577505" x2="323.75090449577505" y1="0" y2="30"/><line opacity="0.2" x1="454.45093074748905" x2="454.45093074748905" y1="0" y2="30"/><line opacity="0.2" x1="373.864403374077" x2="373.864403374077" y1="0" y2="30"/><line opacity="0.2" x1="290.2412646435818" x2="290.2412646435818" y1="0" y2="30"/><line opacity="0.2" x1="392.21847432821005" x2="392.21847432821005" y1="0" y2="30"/><line opacity="0.2" x1="370.15677877604986" x2="370.15677877604986" y1="0" y2="30"/><line opacity="0.2" x1="397.0661957074743" x2="397.0661957074743" y1="0" y2="30"/><line opacity="0.2" x1="273.44171301544515" x2="273.44171301544515" y1="0" y2="30"/><line opacity="0.2" x1="471.62958059077306" x2="471.62958059077306" y1="0" y2="30"/><line opacity="0.2" x1="375.3296770365977" x2="375.3296770365977" y1="0" y2="30"/><line opacity="0.2" x1="370.6991335309649" x2="370.6991335309649" y1="0" y2="30"/><line opacity="0.2" x1="351.7597269751054" x2="351.7597269751054" y1="0" y2="30"/><line opacity="0.2" x1="256.60109721088327" x2="256.60109721088327" y1="0" y2="30"/><line opacity="0.2" x1="539.5040208862126" x2="539.5040208862126" y1="0" y2="30"/><line opacity="0.2" x1="482.02213349406776" x2="482.02213349406776" y1="0" y2="30"/><line opacity="0.2" x1="323.40807839204643" x2="323.40807839204643" y1="0" y2="30"/><line opacity="0.2" x1="228.63964876060362" x2="228.63964876060362" y1="0" y2="30"/><line opacity="0.2" x1="359.3080526907474" x2="359.3080526907474" y1="0" y2="30"/><line opacity="0.2" x1="256.40319971358747" x2="256.40319971358747" y1="0" y2="30"/><line opacity="0.2" x1="248.40718147408612" x2="248.40718147408612" y1="0" y2="30"/><line opacity="0.2" x1="328.40714656211713" x2="328.40714656211713" y1="0" y2="30"/><line opacity="0.2" x1="400.0137244740013" x2="400.0137244740013" y1="0" y2="30"/><line opacity="0.2" x1="426.64524274832127" x2="426.64524274832127" y1="0" y2="30"/><line opacity="0.2" x1="415.97986329222095" x2="415.97986329222095" y1="0" y2="30"/><line opacity="0.2" x1="217.55772383999297" x2="217.55772383999297" y1="0" y2="30"/><line opacity="0.2" x1="464.86264393503274" x2="464.86264393503274" y1="0" y2="30"/><line opacity="0.2" x1="190.26294063185708" x2="190.26294063185708" y1="0" y2="30"/><line opacity="0.2" x1="202.51536971511337" x2="202.51536971511337" y1="0" y2="30"/><line opacity="0.2" x1="386.6002647932304" x2="386.6002647932304" y1="0" y2="30"/><line opacity="0.2" x1="295.63928435715786" x2="295.63928435715786" y1="0" y2="30"/><line opacity="0.2" x1="405.6374364981113" x2="405.6374364981113" y1="0" y2="30"/><line opacity="0.2" x1="375.2322320797527" x2="375.2322320797527" y1="0" y2="30"/><line opacity="0.2" x1="429.0741774369509" x2="429.0741774369509" y1="0" y2="30"/><line opacity="0.2" x1="408.71715459632935" x2="408.71715459632935" y1="0" y2="30"/><line opacity="0.2" x1="343.5774699381168" x2="343.5774699381168" y1="0" y2="30"/><line opacity="0.2" x1="241.74666918479085" x2="241.74666918479085" y1="0" y2="30"/><line opacity="0.2" x1="461.2690850152033" x2="461.2690850152033" y1="0" y2="30"/><line opacity="0.2" x1="537.392400401381" x2="537.392400401381" y1="0" y2="30"/><line opacity="0.2" x1="511.3171341070306" x2="511.3171341070306" y1="0" y2="30"/><line opacity="0.2" x1="305.7054005225088" x2="305.7054005225088" y1="0" y2="30"/><line opacity="0.2" x1="211.7603695370777" x2="211.7603695370777" y1="0" y2="30"/><line opacity="0.2" x1="302.31961379965713" x2="302.31961379965713" y1="0" y2="30"/><line opacity="0.2" x1="403.62016035744324" x2="403.62016035744324" y1="0" y2="30"/><line opacity="0.2" x1="278.2819881616576" x2="278.2819881616576" y1="0" y2="30"/><line opacity="0.2" x1="596.1677380915181" x2="596.1677380915181" y1="0" y2="30"/><line opacity="0.2" x1="412.917987384284" x2="412.917987384284" y1="0" y2="30"/><line opacity="0.2" x1="441.4579064819866" x2="441.4579064819866" y1="0" y2="30"/><line opacity="0.2" x1="266.64912463004384" x2="266.64912463004384" y1="0" y2="30"/><line opacity="0.2" x1="465.89214478684977" x2="465.89214478684977" y1="0" y2="30"/><line opacity="0.2" x1="136.2048907949631" x2="136.2048907949631" y1="0" y2="30"/><line opacity="0.2" x1="404.69731440431633" x2="404.69731440431633" y1="0" y2="30"/><line opacity="0.2" x1="282.3274329687835" x2="282.3274329687835" y1="0" y2="30"/><line opacity="0.2" x1="257.9359056267819" x2="257.9359056267819" y1="0" y2="30"/><line opacity="0.2" x1="382.9052563186418" x2="382.9052563186418" y1="0" y2="30"/><line opacity="0.2" x1="378.4942300829378" x2="378.4942300829378" y1="0" y2="30"/><line opacity="0.2" x1="396.25066271806224" x2="396.25066271806224" y1="0" y2="30"/><line opacity="0.2" x1="313.13714825093996" x2="313.13714825093996" y1="0" y2="30"/><line opacity="0.2" x1="296.45790364914325" x2="296.45790364914325" y1="0" y2="30"/><line opacity="0.2" x1="438.03460845518157" x2="438.03460845518157" y1="0" y2="30"/><line opacity="0.2" x1="308.3296845062323" x2="308.3296845062323" y1="0" y2="30"/><line opacity="0.2" x1="376.3646004840867" x2="376.3646004840867" y1="0" y2="30"/><line opacity="0.2" x1="364.7046159684855" x2="364.7046159684855" y1="0" y2="30"/><line opacity="0.2" x1="217.6958074729151" x2="217.6958074729151" y1="0" y2="30"/><line opacity="0.2" x1="216.22438567402202" x2="216.22438567402202" y1="0" y2="30"/><line opacity="0.2" x1="211.6670374760506" x2="211.6670374760506" y1="0" y2="30"/><line opacity="0.2" x1="310.9980177842144" x2="310.9980177842144" y1="0" y2="30"/><line opacity="0.2" x1="300.48353165174393" x2="300.48353165174393" y1="0" y2="30"/><line opacity="0.2" x1="414.5420331448216" x2="414.5420331448216" y1="0" y2="30"/><line opacity="0.2" x1="333.9540554090401" x2="333.9540554090401" y1="0" y2="30"/><line opacity="0.2" x1="311.9988515454898" x2="311.9988515454898" y1="0" y2="30"/><line opacity="0.2" x1="367.9503147699184" x2="367.9503147699184" y1="0" y2="30"/><line opacity="0.2" x1="351.51743896797205" x2="351.51743896797205" y1="0" y2="30"/><line opacity="0.2" x1="292.3151887966292" x2="292.3151887966292" y1="0" y2="30"/><line opacity="0.2" x1="428.89120021825005" x2="428.89120021825005" y1="0" y2="30"/><line opacity="0.2" x1="225.55062075376586" x2="225.55062075376586" y1="0" y2="30"/><line opacity="0.2" x1="310.86199787163775" x2="310.86199787163775" y1="0" y2="30"/><line opacity="0.2" x1="403.58230704686986" x2="403.58230704686986" y1="0" y2="30"/><line opacity="0.2" x1="399.25030676563074" x2="399.25030676563074" y1="0" y2="30"/><line opacity="0.2" x1="394.8787754579325" x2="394.8787754579325" y1="0" y2="30"/><line opacity="0.2" x1="376.2021875674155" x2="376.2021875674155" y1="0" y2="30"/><line opacity="0.2" x1="346.1818524982706" x2="346.1818524982706" y1="0" y2="30"/><line opacity="0.2" x1="352.69911691634087" x2="352.69911691634087" y1="0" y2="30"/><line opacity="0.2" x1="379.3317693181475" x2="379.3317693181475" y1="0" y2="30"/><line opacity="0.2" x1="384.88818721864436" x2="384.88818721864436" y1="0" y2="30"/><line opacity="0.2" x1="338.8974867162727" x2="338.8974867162727" y1="0" y2="30"/><line opacity="0.2" x1="348.1265317878173" x2="348.1265317878173" y1="0" y2="30"/><line opacity="0.2" x1="341.49549551570635" x2="341.49549551570635" y1="0" y2="30"/><line opacity="0.2" x1="335.6784393587619" x2="335.6784393587619" y1="0" y2="30"/><line opacity="0.2" x1="396.4819039140822" x2="396.4819039140822" y1="0" y2="30"/><line opacity="0.2" x1="495.9871451145543" x2="495.9871451145543" y1="0" y2="30"/><line opacity="0.2" x1="289.73852584649126" x2="289.73852584649126" y1="0" y2="30"/><line opacity="0.2" x1="481.63766332881613" x2="481.63766332881613" y1="0" y2="30"/><line opacity="0.2" x1="298.4871918788376" x2="298.4871918788376" y1="0" y2="30"/><line opacity="0.2" x1="337.3937021734251" x2="337.3937021734251" y1="0" y2="30"/><line opacity="0.2" x1="382.48235279609713" x2="382.48235279609713" y1="0" y2="30"/><line opacity="0.2" x1="150.7340984374464" x2="150.7340984374464" y1="0" y2="30"/><line opacity="0.2" x1="389.049252115421" x2="389.049252115421" y1="0" y2="30"/><line opacity="0.2" x1="171.1633583258842" x2="171.1633583258842" y1="0" y2="30"/><line opacity="0.2" x1="584.7314214137125" x2="584.7314214137125" y1="0" y2="30"/><line opacity="0.2" x1="394.2705034786258" x2="394.2705034786258" y1="0" y2="30"/><line opacity="0.2" x1="267.99372657379087" x2="267.99372657379087" y1="0" y2="30"/><line opacity="0.2" x1="418.07061826380965" x2="418.07061826380965" y1="0" y2="30"/><line opacity="0.2" x1="348.51810688671014" x2="348.51810688671014" y1="0" y2="30"/><line opacity="0.2" x1="310.3049606484577" x2="310.3049606484577" y1="0" y2="30"/><line opacity="0.2" x1="297.41008680737605" x2="297.41008680737605" y1="0" y2="30"/><line opacity="0.2" x1="343.77676547111025" x2="343.77676547111025" y1="0" y2="30"/><line opacity="0.2" x1="334.8243900323982" x2="334.8243900323982" y1="0" y2="30"/><line opacity="0.2" x1="226.02283479349526" x2="226.02283479349526" y1="0" y2="30"/><line opacity="0.2" x1="475.1904447825495" x2="475.1904447825495" y1="0" y2="30"/><line opacity="0.2" x1="444.06263319888006" x2="444.06263319888006" y1="0" y2="30"/><line opacity="0.2" x1="426.1271026188646" x2="426.1271026188646" y1="0" y2="30"/><line opacity="0.2" x1="134.54021371935676" x2="134.54021371935676" y1="0" y2="30"/><line opacity="0.2" x1="423.72359309922007" x2="423.72359309922007" y1="0" y2="30"/><line opacity="0.2" x1="478.1977593588818" x2="478.1977593588818" y1="0" y2="30"/><line opacity="0.2" x1="351.01210775142437" x2="351.01210775142437" y1="0" y2="30"/><line opacity="0.2" x1="271.3004694561555" x2="271.3004694561555" y1="0" y2="30"/><line opacity="0.2" x1="487.35983916267026" x2="487.35983916267026" y1="0" y2="30"/><line opacity="0.2" x1="156.0034609793476" x2="156.0034609793476" y1="0" y2="30"/><line opacity="0.2" x1="401.5577952056698" x2="401.5577952056698" y1="0" y2="30"/><line opacity="0.2" x1="415.27738892248607" x2="415.27738892248607" y1="0" y2="30"/><line opacity="0.2" x1="212.38640687177988" x2="212.38640687177988" y1="0" y2="30"/><line opacity="0.2" x1="411.35079653500236" x2="411.35079653500236" y1="0" y2="30"/><line opacity="0.2" x1="432.677893843343" x2="432.677893843343" y1="0" y2="30"/><line opacity="0.2" x1="411.4761382890525" x2="411.4761382890525" y1="0" y2="30"/><line opacity="0.2" x1="428.81486044130105" x2="428.81486044130105" y1="0" y2="30"/><line opacity="0.2" x1="405.3773496078928" x2="405.3773496078928" y1="0" y2="30"/><line opacity="0.2" x1="233.33665984137772" x2="233.33665984137772" y1="0" y2="30"/><line opacity="0.2" x1="408.08312575340085" x2="408.08312575340085" y1="0" y2="30"/><line opacity="0.2" x1="341.4706579467319" x2="341.4706579467319" y1="0" y2="30"/><line opacity="0.2" x1="263.9763909252014" x2="263.9763909252014" y1="0" y2="30"/><line opacity="0.2" x1="416.4429338645488" x2="416.4429338645488" y1="0" y2="30"/><line opacity="0.2" x1="372.6987091358409" x2="372.6987091358409" y1="0" y2="30"/><line opacity="0.2" x1="326.8647850998746" x2="326.8647850998746" y1="0" y2="30"/><line opacity="0.2" x1="427.16691176480003" x2="427.16691176480003" y1="0" y2="30"/><line opacity="0.2" x1="347.1592597559748" x2="347.1592597559748" y1="0" y2="30"/><line opacity="0.2" x1="237.06298799850214" x2="237.06298799850214" y1="0" y2="30"/><line opacity="0.2" x1="411.6549701083809" x2="411.6549701083809" y1="0" y2="30"/><line opacity="0.2" x1="404.40386670446094" x2="404.40386670446094" y1="0" y2="30"/><line opacity="0.2" x1="331.4676858783071" x2="331.4676858783071" y1="0" y2="30"/><line opacity="0.2" x1="260.60335321615514" x2="260.60335321615514" y1="0" y2="30"/><line opacity="0.2" x1="369.4655434415862" x2="369.4655434415862" y1="0" y2="30"/><line opacity="0.2" x1="138.84753080614445" x2="138.84753080614445" y1="0" y2="30"/><line opacity="0.2" x1="500.89003046653534" x2="500.89003046653534" y1="0" y2="30"/><line opacity="0.2" x1="233.17458616628767" x2="233.17458616628767" y1="0" y2="30"/><line opacity="0.2" x1="422.15385742280864" x2="422.15385742280864" y1="0" y2="30"/><line opacity="0.2" x1="422.2750653666943" x2="422.2750653666943" y1="0" y2="30"/><line opacity="0.2" x1="450.32768392500117" x2="450.32768392500117" y1="0" y2="30"/><line opacity="0.2" x1="318.36534753756854" x2="318.36534753756854" y1="0" y2="30"/><line opacity="0.2" x1="285.484834899248" x2="285.484834899248" y1="0" y2="30"/><line opacity="0.2" x1="204.93934980377801" x2="204.93934980377801" y1="0" y2="30"/><line opacity="0.2" x1="338.59889301803344" x2="338.59889301803344" y1="0" y2="30"/><line opacity="0.2" x1="364.9759537836805" x2="364.9759537836805" y1="0" y2="30"/><line opacity="0.2" x1="351.77306235373925" x2="351.77306235373925" y1="0" y2="30"/><line opacity="0.2" x1="306.17245707689034" x2="306.17245707689034" y1="0" y2="30"/><line opacity="0.2" x1="468.38957902056194" x2="468.38957902056194" y1="0" y2="30"/><line opacity="0.2" x1="496.44344259365874" x2="496.44344259365874" y1="0" y2="30"/><line opacity="0.2" x1="200.08556279023304" x2="200.08556279023304" y1="0" y2="30"/><line opacity="0.2" x1="366.2683918355677" x2="366.2683918355677" y1="0" y2="30"/><line opacity="0.2" x1="265.56657206969453" x2="265.56657206969453" y1="0" y2="30"/><line opacity="0.2" x1="267.03039937486693" x2="267.03039937486693" y1="0" y2="30"/><line opacity="0.2" x1="340.79161946115096" x2="340.79161946115096" y1="0" y2="30"/><line opacity="0.2" x1="441.21120373145266" x2="441.21120373145266" y1="0" y2="30"/><line opacity="0.2" x1="187.16292308865962" x2="187.16292308865962" y1="0" y2="30"/><line opacity="0.2" x1="387.1833817256861" x2="387.1833817256861" y1="0" y2="30"/><line opacity="0.2" x1="487.77258881762134" x2="487.77258881762134" y1="0" y2="30"/><line opacity="0.2" x1="451.942690339448" x2="451.942690339448" y1="0" y2="30"/><line opacity="0.2" x1="252.3640202509292" x2="252.3640202509292" y1="0" y2="30"/><line opacity="0.2" x1="324.64831355012905" x2="324.64831355012905" y1="0" y2="30"/><line opacity="0.2" x1="112.42760377037493" x2="112.42760377037493" y1="0" y2="30"/><line opacity="0.2" x1="401.51784973947326" x2="401.51784973947326" y1="0" y2="30"/><line opacity="0.2" x1="265.8040357005845" x2="265.8040357005845" y1="0" y2="30"/><line opacity="0.2" x1="301.6465239626637" x2="301.6465239626637" y1="0" y2="30"/><line opacity="0.2" x1="542.7426169823314" x2="542.7426169823314" y1="0" y2="30"/><line opacity="0.2" x1="363.8921718170667" x2="363.8921718170667" y1="0" y2="30"/><line opacity="0.2" x1="324.2596934698548" x2="324.2596934698548" y1="0" y2="30"/><line opacity="0.2" x1="279.3260505340081" x2="279.3260505340081" y1="0" y2="30"/><line opacity="0.2" x1="302.1379762639908" x2="302.1379762639908" y1="0" y2="30"/><line opacity="0.2" x1="281.353777972456" x2="281.353777972456" y1="0" y2="30"/><line opacity="0.2" x1="273.4903162842699" x2="273.4903162842699" y1="0" y2="30"/><line opacity="0.2" x1="162.7931655053712" x2="162.7931655053712" y1="0" y2="30"/><line opacity="0.2" x1="237.01002507597656" x2="237.01002507597656" y1="0" y2="30"/><line opacity="0.2" x1="204.47754082938386" x2="204.47754082938386" y1="0" y2="30"/><line opacity="0.2" x1="294.4540517531829" x2="294.4540517531829" y1="0" y2="30"/><line opacity="0.2" x1="351.7979267602244" x2="351.7979267602244" y1="0" y2="30"/><line opacity="0.2" x1="256.6455314726486" x2="256.6455314726486" y1="0" y2="30"/><line opacity="0.2" x1="520.6749456809516" x2="520.6749456809516" y1="0" y2="30"/><line opacity="0.2" x1="214.76813643773943" x2="214.76813643773943" y1="0" y2="30"/><line opacity="0.2" x1="289.61063452651433" x2="289.61063452651433" y1="0" y2="30"/><line opacity="0.2" x1="349.8059466790799" x2="349.8059466790799" y1="0" y2="30"/><line opacity="0.2" x1="196.9572318965571" x2="196.9572318965571" y1="0" y2="30"/><line opacity="0.2" x1="402.14107531446666" x2="402.14107531446666" y1="0" y2="30"/><line opacity="0.2" x1="352.7525683932457" x2="352.7525683932457" y1="0" y2="30"/><line opacity="0.2" x1="510.79244104896924" x2="510.79244104896924" y1="0" y2="30"/><line opacity="0.2" x1="312.5473903327574" x2="312.5473903327574" y1="0" y2="30"/><line opacity="0.2" x1="419.34784902630696" x2="419.34784902630696" y1="0" y2="30"/><line opacity="0.2" x1="236.88761137636521" x2="236.88761137636521" y1="0" y2="30"/><line opacity="0.2" x1="224.63055667498037" x2="224.63055667498037" y1="0" y2="30"/><line opacity="0.2" x1="257.991793480817" x2="257.991793480817" y1="0" y2="30"/><line opacity="0.2" x1="463.33695305115293" x2="463.33695305115293" y1="0" y2="30"/><line opacity="0.2" x1="385.2067016526729" x2="385.2067016526729" y1="0" y2="30"/><line opacity="0.2" x1="392.6835590338571" x2="392.6835590338571" y1="0" y2="30"/><line opacity="0.2" x1="268.5873884350804" x2="268.5873884350804" y1="0" y2="30"/><line opacity="0.2" x1="496.0009976694847" x2="496.0009976694847" y1="0" y2="30"/><line opacity="0.2" x1="296.298822014192" x2="296.298822014192" y1="0" y2="30"/><line opacity="0.2" x1="379.4687976147941" x2="379.4687976147941" y1="0" y2="30"/><line opacity="0.2" x1="343.32893671608474" x2="343.32893671608474" y1="0" y2="30"/><line opacity="0.2" x1="295.17503961060874" x2="295.17503961060874" y1="0" y2="30"/><line opacity="0.2" x1="210.28847490783" x2="210.28847490783" y1="0" y2="30"/><line opacity="0.2" x1="328.0976284357803" x2="328.0976284357803" y1="0" y2="30"/><line opacity="0.2" x1="302.5593797056328" x2="302.5593797056328" y1="0" y2="30"/><line opacity="0.2" x1="509.01969855115954" x2="509.01969855115954" y1="0" y2="30"/><line opacity="0.2" x1="292.3035904707862" x2="292.3035904707862" y1="0" y2="30"/><line opacity="0.2" x1="438.2353770100173" x2="438.2353770100173" y1="0" y2="30"/><line opacity="0.2" x1="397.4840498448852" x2="397.4840498448852" y1="0" y2="30"/><line opacity="0.2" x1="186.3176706800046" x2="186.3176706800046" y1="0" y2="30"/><line opacity="0.2" x1="477.17936281387523" x2="477.17936281387523" y1="0" y2="30"/><line opacity="0.2" x1="215.17795550902187" x2="215.17795550902187" y1="0" y2="30"/><line opacity="0.2" x1="260.93137934759545" x2="260.93137934759545" y1="0" y2="30"/><line opacity="0.2" x1="350.3419188267405" x2="350.3419188267405" y1="0" y2="30"/><line opacity="0.2" x1="348.25225415207154" x2="348.25225415207154" y1="0" y2="30"/><line opacity="0.2" x1="406.56085243209736" x2="406.56085243209736" y1="0" y2="30"/><line opacity="0.2" x1="337.4272456575354" x2="337.4272456575354" y1="0" y2="30"/><line opacity="0.2" x1="259.9782326525307" x2="259.9782326525307" y1="0" y2="30"/><line opacity="0.2" x1="177.60715722227113" x2="177.60715722227113" y1="0" y2="30"/><line opacity="0.2" x1="352.31538309064166" x2="352.31538309064166" y1="0" y2="30"/><line opacity="0.2" x1="423.31141805442496" x2="423.31141805442496" y1="0" y2="30"/><line opacity="0.2" x1="176.82806368891244" x2="176.82806368891244" y1="0" y2="30"/><line opacity="0.2" x1="472.87539050577556" x2="472.87539050577556" y1="0" y2="30"/><line opacity="0.2" x1="404.2424521357148" x2="404.2424521357148" y1="0" y2="30"/><line opacity="0.2" x1="271.4985172119482" x2="271.4985172119482" y1="0" y2="30"/><line opacity="0.2" x1="186.8417575562591" x2="186.8417575562591" y1="0" y2="30"/><line opacity="0.2" x1="407.96062307273957" x2="407.96062307273957" y1="0" y2="30"/><line opacity="0.2" x1="363.1448707664671" x2="363.1448707664671" y1="0" y2="30"/><line opacity="0.2" x1="381.0740696100465" x2="381.0740696100465" y1="0" y2="30"/><line opacity="0.2" x1="256.7128965742794" x2="256.7128965742794" y1="0" y2="30"/><line opacity="0.2" x1="352.10823834906216" x2="352.10823834906216" y1="0" y2="30"/><line opacity="0.2" x1="157.52830043884103" x2="157.52830043884103" y1="0" y2="30"/><line opacity="0.2" x1="410.72754566227866" x2="410.72754566227866" y1="0" y2="30"/><line opacity="0.2" x1="308.03894192759213" x2="308.03894192759213" y1="0" y2="30"/><line opacity="0.2" x1="259.60649826725097" x2="259.60649826725097" y1="0" y2="30"/><line opacity="0.2" x1="249.23325573363155" x2="249.23325573363155" y1="0" y2="30"/><line opacity="0.2" x1="366.2943237245278" x2="366.2943237245278" y1="0" y2="30"/><line opacity="0.2" x1="508.2802294086389" x2="508.2802294086389" y1="0" y2="30"/><line opacity="0.2" x1="291.43692772521274" x2="291.43692772521274" y1="0" y2="30"/><line opacity="0.2" x1="376.2028588971509" x2="376.2028588971509" y1="0" y2="30"/><line opacity="0.2" x1="586.341236011798" x2="586.341236011798" y1="0" y2="30"/><line opacity="0.2" x1="310.90158829291966" x2="310.90158829291966" y1="0" y2="30"/><line opacity="0.2" x1="279.3071884685995" x2="279.3071884685995" y1="0" y2="30"/><line opacity="0.2" x1="464.8520846090711" x2="464.8520846090711" y1="0" y2="30"/><line opacity="0.2" x1="306.15755287283713" x2="306.15755287283713" y1="0" y2="30"/><line opacity="0.2" x1="204.61514822813612" x2="204.61514822813612" y1="0" y2="30"/><line opacity="0.2" x1="548.2468179995861" x2="548.2468179995861" y1="0" y2="30"/><line opacity="0.2" x1="618.412452369029" x2="618.412452369029" y1="0" y2="30"/><line opacity="0.2" x1="251.8458900919201" x2="251.8458900919201" y1="0" y2="30"/><line opacity="0.2" x1="413.25478946598474" x2="413.25478946598474" y1="0" y2="30"/><line opacity="0.2" x1="281.4120125857513" x2="281.4120125857513" y1="0" y2="30"/><line opacity="0.2" x1="297.2601137759325" x2="297.2601137759325" y1="0" y2="30"/><line opacity="0.2" x1="323.6056797940614" x2="323.6056797940614" y1="0" y2="30"/><line opacity="0.2" x1="320.9833036660931" x2="320.9833036660931" y1="0" y2="30"/><line opacity="0.2" x1="334.9364949847063" x2="334.9364949847063" y1="0" y2="30"/><line opacity="0.2" x1="326.3846202790372" x2="326.3846202790372" y1="0" y2="30"/><line opacity="0.2" x1="401.34446131429826" x2="401.34446131429826" y1="0" y2="30"/><line opacity="0.2" x1="198.09736268715722" x2="198.09736268715722" y1="0" y2="30"/><line opacity="0.2" x1="371.29227401229764" x2="371.29227401229764" y1="0" y2="30"/><line opacity="0.2" x1="296.27968485532404" x2="296.27968485532404" y1="0" y2="30"/><line opacity="0.2" x1="383.0716628985255" x2="383.0716628985255" y1="0" y2="30"/><line opacity="0.2" x1="450.41022112640445" x2="450.41022112640445" y1="0" y2="30"/><line opacity="0.2" x1="294.6737944625748" x2="294.6737944625748" y1="0" y2="30"/><line opacity="0.2" x1="441.2596144020631" x2="441.2596144020631" y1="0" y2="30"/><line opacity="0.2" x1="356.3655464395941" x2="356.3655464395941" y1="0" y2="30"/><line opacity="0.2" x1="232.57658124517482" x2="232.57658124517482" y1="0" y2="30"/><line opacity="0.2" x1="401.47018217230095" x2="401.47018217230095" y1="0" y2="30"/><line opacity="0.2" x1="455.9538960789857" x2="455.9538960789857" y1="0" y2="30"/><line opacity="0.2" x1="285.5697781457642" x2="285.5697781457642" y1="0" y2="30"/><line opacity="0.2" x1="259.3129489693806" x2="259.3129489693806" y1="0" y2="30"/><line opacity="0.2" x1="393.31532983338616" x2="393.31532983338616" y1="0" y2="30"/><line opacity="0.2" x1="418.78276487392753" x2="418.78276487392753" y1="0" y2="30"/><line opacity="0.2" x1="332.14587479603205" x2="332.14587479603205" y1="0" y2="30"/><line opacity="0.2" x1="429.1413691240465" x2="429.1413691240465" y1="0" y2="30"/><line opacity="0.2" x1="407.146019781073" x2="407.146019781073" y1="0" y2="30"/><line opacity="0.2" x1="328.001095354929" x2="328.001095354929" y1="0" y2="30"/><line opacity="0.2" x1="277.324572771802" x2="277.324572771802" y1="0" y2="30"/><line opacity="0.2" x1="339.561419021883" x2="339.561419021883" y1="0" y2="30"/><line opacity="0.2" x1="287.06951942015473" x2="287.06951942015473" y1="0" y2="30"/><line opacity="0.2" x1="312.72416968559594" x2="312.72416968559594" y1="0" y2="30"/><line opacity="0.2" x1="231.08720048446068" x2="231.08720048446068" y1="0" y2="30"/><line opacity="0.2" x1="367.52788307535957" x2="367.52788307535957" y1="0" y2="30"/><line opacity="0.2" x1="377.0748424647422" x2="377.0748424647422" y1="0" y2="30"/><line opacity="0.2" x1="373.998812733906" x2="373.998812733906" y1="0" y2="30"/><line opacity="0.2" x1="166.3850885396925" x2="166.3850885396925" y1="0" y2="30"/><line opacity="0.2" x1="287.235967491773" x2="287.235967491773" y1="0" y2="30"/><line opacity="0.2" x1="302.02667373988396" x2="302.02667373988396" y1="0" y2="30"/><line opacity="0.2" x1="406.9028359474878" x2="406.9028359474878" y1="0" y2="30"/><line opacity="0.2" x1="300.4633294332966" x2="300.4633294332966" y1="0" y2="30"/><line opacity="0.2" x1="216.0648930293166" x2="216.0648930293166" y1="0" y2="30"/><line opacity="0.2" x1="347.1419220280059" x2="347.1419220280059" y1="0" y2="30"/><line opacity="0.2" x1="512.413690042322" x2="512.413690042322" y1="0" y2="30"/><line opacity="0.2" x1="394.00617228119563" x2="394.00617228119563" y1="0" y2="30"/><line opacity="0.2" x1="481.44324295346553" x2="481.44324295346553" y1="0" y2="30"/><line opacity="0.2" x1="273.78798962457955" x2="273.78798962457955" y1="0" y2="30"/><line opacity="0.2" x1="283.58739421062984" x2="283.58739421062984" y1="0" y2="30"/><line opacity="0.2" x1="487.86478661393136" x2="487.86478661393136" y1="0" y2="30"/><line opacity="0.2" x1="478.91946469794283" x2="478.91946469794283" y1="0" y2="30"/><line opacity="0.2" x1="356.1772320503883" x2="356.1772320503883" y1="0" y2="30"/><line opacity="0.2" x1="430.8594227040919" x2="430.8594227040919" y1="0" y2="30"/><line opacity="0.2" x1="620" x2="620" y1="0" y2="30"/><line opacity="0.2" x1="300.0174216745336" x2="300.0174216745336" y1="0" y2="30"/><line opacity="0.2" x1="144.01689738387802" x2="144.01689738387802" y1="0" y2="30"/><line opacity="0.2" x1="199.2831543203247" x2="199.2831543203247" y1="0" y2="30"/><line opacity="0.2" x1="398.3122308840768" x2="398.3122308840768" y1="0" y2="30"/><line opacity="0.2" x1="290.2273771890868" x2="290.2273771890868" y1="0" y2="30"/><line opacity="0.2" x1="325.87626850250865" x2="325.87626850250865" y1="0" y2="30"/><line opacity="0.2" x1="378.66469384794493" x2="378.66469384794493" y1="0" y2="30"/><line opacity="0.2" x1="494.88379685643304" x2="494.88379685643304" y1="0" y2="30"/><line opacity="0.2" x1="214.88164792645227" x2="214.88164792645227" y1="0" y2="30"/><line opacity="0.2" x1="232.95878602558142" x2="232.95878602558142" y1="0" y2="30"/><line opacity="0.2" x1="451.88837553408354" x2="451.88837553408354" y1="0" y2="30"/><line opacity="0.2" x1="51.60169514915532" x2="51.60169514915532" y1="0" y2="30"/><line opacity="0.2" x1="217.7373651403234" x2="217.7373651403234" y1="0" y2="30"/><line opacity="0.2" x1="316.04436891314987" x2="316.04436891314987" y1="0" y2="30"/><line opacity="0.2" x1="178.7124679503647" x2="178.7124679503647" y1="0" y2="30"/><line opacity="0.2" x1="366.1573873118633" x2="366.1573873118633" y1="0" y2="30"/><line opacity="0.2" x1="455.7739347150922" x2="455.7739347150922" y1="0" y2="30"/><line opacity="0.2" x1="348.70867798225817" x2="348.70867798225817" y1="0" y2="30"/><line opacity="0.2" x1="342.6792083357947" x2="342.6792083357947" y1="0" y2="30"/><line opacity="0.2" x1="349.6016233008846" x2="349.6016233008846" y1="0" y2="30"/><line opacity="0.2" x1="307.2095282094342" x2="307.2095282094342" y1="0" y2="30"/><line opacity="0.2" x1="211.18859360867754" x2="211.18859360867754" y1="0" y2="30"/><line opacity="0.2" x1="270.229617039329" x2="270.229617039329" y1="0" y2="30"/><line opacity="0.2" x1="350.69956307732224" x2="350.69956307732224" y1="0" y2="30"/><line opacity="0.2" x1="299.8900148877356" x2="299.8900148877356" y1="0" y2="30"/><line opacity="0.2" x1="457.90895537743717" x2="457.90895537743717" y1="0" y2="30"/><line opacity="0.2" x1="414.0415714265774" x2="414.0415714265774" y1="0" y2="30"/><line opacity="0.2" x1="345.6346998453552" x2="345.6346998453552" y1="0" y2="30"/><line opacity="0.2" x1="167.81999348290032" x2="167.81999348290032" y1="0" y2="30"/><line opacity="0.2" x1="291.2787282440148" x2="291.2787282440148" y1="0" y2="30"/><line opacity="0.2" x1="342.4447336220439" x2="342.4447336220439" y1="0" y2="30"/><line opacity="0.2" x1="285.9193598999869" x2="285.9193598999869" y1="0" y2="30"/><line opacity="0.2" x1="388.5012586169219" x2="388.5012586169219" y1="0" y2="30"/><line opacity="0.2" x1="371.7563430059172" x2="371.7563430059172" y1="0" y2="30"/><line opacity="0.2" x1="284.9366430530335" x2="284.9366430530335" y1="0" y2="30"/><line opacity="0.2" x1="403.3490322190702" x2="403.3490322190702" y1="0" y2="30"/><line opacity="0.2" x1="261.41663391281764" x2="261.41663391281764" y1="0" y2="30"/><line opacity="0.2" x1="282.7292253458269" x2="282.7292253458269" y1="0" y2="30"/><line opacity="0.2" x1="467.96956284450647" x2="467.96956284450647" y1="0" y2="30"/><line opacity="0.2" x1="405.7116584704907" x2="405.7116584704907" y1="0" y2="30"/><line opacity="0.2" x1="438.8459567480951" x2="438.8459567480951" y1="0" y2="30"/><line opacity="0.2" x1="395.94639569166145" x2="395.94639569166145" y1="0" y2="30"/><line opacity="0.2" x1="489.8555652550069" x2="489.8555652550069" y1="0" y2="30"/><line opacity="0.2" x1="371.5762541482102" x2="371.5762541482102" y1="0" y2="30"/><line opacity="0.2" x1="227.8379216154729" x2="227.8379216154729" y1="0" y2="30"/><line opacity="0.2" x1="254.34408148599" x2="254.34408148599" y1="0" y2="30"/><line opacity="0.2" x1="533.7434137517133" x2="533.7434137517133" y1="0" y2="30"/><line opacity="0.2" x1="597.5202239538576" x2="597.5202239538576" y1="0" y2="30"/><line opacity="0.2" x1="371.0062428559447" x2="371.0062428559447" y1="0" y2="30"/><line opacity="0.2" x1="385.6518972955523" x2="385.6518972955523" y1="0" y2="30"/><line opacity="0.2" x1="304.1019023294155" x2="304.1019023294155" y1="0" y2="30"/><line opacity="0.2" x1="219.2349688053347" x2="219.2349688053347" y1="0" y2="30"/><line opacity="0.2" x1="466.63917532359835" x2="466.63917532359835" y1="0" y2="30"/><line opacity="0.2" x1="234.05791597698806" x2="234.05791597698806" y1="0" y2="30"/><line opacity="0.2" x1="379.3044445447863" x2="379.3044445447863" y1="0" y2="30"/><line opacity="0.2" x1="195.32482467733558" x2="195.32482467733558" y1="0" y2="30"/><line opacity="0.2" x1="468.93537738653794" x2="468.93537738653794" y1="0" y2="30"/><line opacity="0.2" x1="370.26025707603804" x2="370.26025707603804" y1="0" y2="30"/><line opacity="0.2" x1="256.1362154344252" x2="256.1362154344252" y1="0" y2="30"/><line opacity="0.2" x1="216.53533576351617" x2="216.53533576351617" y1="0" y2="30"/><line opacity="0.2" x1="422.68596441668245" x2="422.68596441668245" y1="0" y2="30"/><line opacity="0.2" x1="340.23149152401004" x2="340.23149152401004" y1="0" y2="30"/><line opacity="0.2" x1="437.98406787068615" x2="437.98406787068615" y1="0" y2="30"/><line opacity="0.2" x1="408.2949008344504" x2="408.2949008344504" y1="0" y2="30"/><line opacity="0.2" x1="372.793635360995" x2="372.793635360995" y1="0" y2="30"/><line opacity="0.2" x1="205.77198961080416" x2="205.77198961080416" y1="0" y2="30"/><line opacity="0.2" x1="532.6785269632666" x2="532.6785269632666" y1="0" y2="30"/><line opacity="0.2" x1="365.94715335734475" x2="365.94715335734475" y1="0" y2="30"/><line opacity="0.2" x1="618.7021630064493" x2="618.7021630064493" y1="0" y2="30"/><line opacity="0.2" x1="536.7037983938795" x2="536.7037983938795" y1="0" y2="30"/><line opacity="0.2" x1="290.0818698679907" x2="290.0818698679907" y1="0" y2="30"/><line opacity="0.2" x1="281.83934366501927" x2="281.83934366501927" y1="0" y2="30"/><line opacity="0.2" x1="349.9045960187539" x2="349.9045960187539" y1="0" y2="30"/><line opacity="0.2" x1="282.11113096302654" x2="282.11113096302654" y1="0" y2="30"/><line opacity="0.2" x1="216.2103701384515" x2="216.2103701384515" y1="0" y2="30"/><line opacity="0.2" x1="374.1673643397357" x2="374.1673643397357" y1="0" y2="30"/><line opacity="0.2" x1="527.4524583032496" x2="527.4524583032496" y1="0" y2="30"/><line opacity="0.2" x1="619.9144394859577" x2="619.9144394859577" y1="0" y2="30"/><line opacity="0.2" x1="342.1698123772496" x2="342.1698123772496" y1="0" y2="30"/><line opacity="0.2" x1="269.77383899501757" x2="269.77383899501757" y1="0" y2="30"/><line opacity="0.2" x1="315.8726192552381" x2="315.8726192552381" y1="0" y2="30"/><line opacity="0.2" x1="305.89646924746614" x2="305.89646924746614" y1="0" y2="30"/><line opacity="0.2" x1="474.5227969941912" x2="474.5227969941912" y1="0" y2="30"/><line opacity="0.2" x1="430.35410796503817" x2="430.35410796503817" y1="0" y2="30"/><line opacity="0.2" x1="472.9210358194501" x2="472.9210358194501" y1="0" y2="30"/><line opacity="0.2" x1="125.98033782881507" x2="125.98033782881507" y1="0" y2="30"/><line opacity="0.2" x1="426.814134971262" x2="426.814134971262" y1="0" y2="30"/><line opacity="0.2" x1="271.8640473463043" x2="271.8640473463043" y1="0" y2="30"/><line opacity="0.2" x1="292.2668058870708" x2="292.2668058870708" y1="0" y2="30"/><line opacity="0.2" x1="297.9404519663087" x2="297.9404519663087" y1="0" y2="30"/><line opacity="0.2" x1="311.79923288284414" x2="311.79923288284414" y1="0" y2="30"/><line opacity="0.2" x1="226.98801708678204" x2="226.98801708678204" y1="0" y2="30"/><line opacity="0.2" x1="186.75404584597857" x2="186.75404584597857" y1="0" y2="30"/><line opacity="0.2" x1="590.0657425185267" x2="590.0657425185267" y1="0" y2="30"/><line opacity="0.2" x1="370.78347643093423" x2="370.78347643093423" y1="0" y2="30"/><line opacity="0.2" x1="359.0333717061098" x2="359.0333717061098" y1="0" y2="30"/><line opacity="0.2" x1="260.813898399557" x2="260.813898399557" y1="0" y2="30"/><line opacity="0.2" x1="285.8766995841463" x2="285.8766995841463" y1="0" y2="30"/><line opacity="0.2" x1="392.23220066179124" x2="392.23220066179124" y1="0" y2="30"/><line opacity="0.2" x1="204.45258739352784" x2="204.45258739352784" y1="0" y2="30"/><line opacity="0.2" x1="384.6142835979728" x2="384.6142835979728" y1="0" y2="30"/><line opacity="0.2" x1="234.46067758035693" x2="234.46067758035693" y1="0" y2="30"/><line opacity="0.2" x1="309.31674463451156" x2="309.31674463451156" y1="0" y2="30"/><line opacity="0.2" x1="237.3143219480788" x2="237.3143219480788" y1="0" y2="30"/><line opacity="0.2" x1="382.6378052575093" x2="382.6378052575093" y1="0" y2="30"/><line opacity="0.2" x1="227.21255886657863" x2="227.21255886657863" y1="0" y2="30"/><line opacity="0.2" x1="329.95864547884395" x2="329.95864547884395" y1="0" y2="30"/><line opacity="0.2" x1="273.0266655020664" x2="273.0266655020664" y1="0" y2="30"/><line opacity="0.2" x1="184.8750874998152" x2="184.8750874998152" y1="0" y2="30"/><line opacity="0.2" x1="91.99535070341923" x2="91.99535070341923" y1="0" y2="30"/><line opacity="0.2" x1="133.0151686352272" x2="133.0151686352272" y1="0" y2="30"/><line opacity="0.2" x1="481.5849190757017" x2="481.5849190757017" y1="0" y2="30"/><line opacity="0.2" x1="311.3547122419522" x2="311.3547122419522" y1="0" y2="30"/><line opacity="0.2" x1="247.4912580734712" x2="247.4912580734712" y1="0" y2="30"/><line opacity="0.2" x1="349.1867312137776" x2="349.1867312137776" y1="0" y2="30"/><line opacity="0.2" x1="238.14905845632333" x2="238.14905845632333" y1="0" y2="30"/><line opacity="0.2" x1="408.40989815195553" x2="408.40989815195553" y1="0" y2="30"/><line opacity="0.2" x1="434.9025508986209" x2="434.9025508986209" y1="0" y2="30"/><line opacity="0.2" x1="357.47384282280655" x2="357.47384282280655" y1="0" y2="30"/><line opacity="0.2" x1="156.24324962740948" x2="156.24324962740948" y1="0" y2="30"/><line opacity="0.2" x1="327.7549458082403" x2="327.7549458082403" y1="0" y2="30"/><line opacity="0.2" x1="387.9851573874393" x2="387.9851573874393" y1="0" y2="30"/><line opacity="0.2" x1="378.14404832240564" x2="378.14404832240564" y1="0" y2="30"/><line opacity="0.2" x1="407.03264326597036" x2="407.03264326597036" y1="0" y2="30"/><line opacity="0.2" x1="318.09423786964425" x2="318.09423786964425" y1="0" y2="30"/><line opacity="0.2" x1="293.06915509853695" x2="293.06915509853695" y1="0" y2="30"/><line opacity="0.2" x1="254.92372029145042" x2="254.92372029145042" y1="0" y2="30"/><line opacity="0.2" x1="448.764933246914" x2="448.764933246914" y1="0" y2="30"/><line opacity="0.2" x1="383.7992818710166" x2="383.7992818710166" y1="0" y2="30"/><line opacity="0.2" x1="415.18778273145074" x2="415.18778273145074" y1="0" y2="30"/><line opacity="0.2" x1="279.1517848580111" x2="279.1517848580111" y1="0" y2="30"/><line opacity="0.2" x1="140.50514045821492" x2="140.50514045821492" y1="0" y2="30"/><line opacity="0.2" x1="319.75656544315734" x2="319.75656544315734" y1="0" y2="30"/><line opacity="0.2" x1="339.34555404103196" x2="339.34555404103196" y1="0" y2="30"/><line opacity="0.2" x1="237.8313419542682" x2="237.8313419542682" y1="0" y2="30"/><line opacity="0.2" x1="274.506327758602" x2="274.506327758602" y1="0" y2="30"/><line opacity="0.2" x1="572.7342413858559" x2="572.7342413858559" y1="0" y2="30"/><line opacity="0.2" x1="353.18541246618327" x2="353.18541246618327" y1="0" y2="30"/><line opacity="0.2" x1="415.8524488110463" x2="415.8524488110463" y1="0" y2="30"/><line opacity="0.2" x1="331.997289522076" x2="331.997289522076" y1="0" y2="30"/><line opacity="0.2" x1="300.74383719816916" x2="300.74383719816916" y1="0" y2="30"/><line opacity="0.2" x1="233.56169445105454" x2="233.56169445105454" y1="0" y2="30"/><line opacity="0.2" x1="339.26098021166973" x2="339.26098021166973" y1="0" y2="30"/><line opacity="0.2" x1="339.34363391610157" x2="339.34363391610157" y1="0" y2="30"/><line opacity="0.2" x1="321.4920694273239" x2="321.4920694273239" y1="0" y2="30"/><line opacity="0.2" x1="421.72831483513005" x2="421.72831483513005" y1="0" y2="30"/><line opacity="0.2" x1="254.56107941372565" x2="254.56107941372565" y1="0" y2="30"/><line opacity="0.2" x1="377.97874529116484" x2="377.97874529116484" y1="0" y2="30"/><line opacity="0.2" x1="433.3036429642075" x2="433.3036429642075" y1="0" y2="30"/><line opacity="0.2" x1="332.396194779981" x2="332.396194779981" y1="0" y2="30"/><line opacity="0.2" x1="503.1619783114387" x2="503.1619783114387" y1="0" y2="30"/><line opacity="0.2" x1="338.4949046730923" x2="338.4949046730923" y1="0" y2="30"/><line opacity="0.2" x1="439.76001142886423" x2="439.76001142886423" y1="0" y2="30"/><line opacity="0.2" x1="190.13423461234953" x2="190.13423461234953" y1="0" y2="30"/><line opacity="0.2" x1="258.4661471797366" x2="258.4661471797366" y1="0" y2="30"/><line opacity="0.2" x1="401.47307532237846" x2="401.47307532237846" y1="0" y2="30"/><line opacity="0.2" x1="247.49009142923848" x2="247.49009142923848" y1="0" y2="30"/><line opacity="0.2" x1="401.03639669821564" x2="401.03639669821564" y1="0" y2="30"/><line opacity="0.2" x1="379.5506225255487" x2="379.5506225255487" y1="0" y2="30"/><line opacity="0.2" x1="428.6549628151305" x2="428.6549628151305" y1="0" y2="30"/><line opacity="0.2" x1="236.01201864544655" x2="236.01201864544655" y1="0" y2="30"/><line opacity="0.2" x1="376.98487672049254" x2="376.98487672049254" y1="0" y2="30"/><line opacity="0.2" x1="288.5505957388787" x2="288.5505957388787" y1="0" y2="30"/><line opacity="0.2" x1="246.6477143108133" x2="246.6477143108133" y1="0" y2="30"/><line opacity="0.2" x1="435.4436048708716" x2="435.4436048708716" y1="0" y2="30"/><line opacity="0.2" x1="311.21106413255325" x2="311.21106413255325" y1="0" y2="30"/><line opacity="0.2" x1="247.042572609996" x2="247.042572609996" y1="0" y2="30"/><line opacity="0.2" x1="283.70579951424304" x2="283.70579951424304" y1="0" y2="30"/><line opacity="0.2" x1="431.4276516985853" x2="431.4276516985853" y1="0" y2="30"/><line opacity="0.2" x1="422.67819796518313" x2="422.67819796518313" y1="0" y2="30"/><line opacity="0.2" x1="416.5583584854426" x2="416.5583584854426" y1="0" y2="30"/><line opacity="0.2" x1="398.8765865579136" x2="398.8765865579136" y1="0" y2="30"/><line opacity="0.2" x1="373.9334966780569" x2="373.9334966780569" y1="0" y2="30"/><line opacity="0.2" x1="269.02811928576887" x2="269.02811928576887" y1="0" y2="30"/><line opacity="0.2" x1="282.6276394758479" x2="282.6276394758479" y1="0" y2="30"/><line opacity="0.2" x1="217.17598573427918" x2="217.17598573427918" y1="0" y2="30"/><line opacity="0.2" x1="456.4552563911157" x2="456.4552563911157" y1="0" y2="30"/><line opacity="0.2" x1="378.59660119573454" x2="378.59660119573454" y1="0" y2="30"/><line opacity="0.2" x1="470.1026421525723" x2="470.1026421525723" y1="0" y2="30"/><line opacity="0.2" x1="294.3211236593418" x2="294.3211236593418" y1="0" y2="30"/><line opacity="0.2" x1="356.46586244606465" x2="356.46586244606465" y1="0" y2="30"/><line opacity="0.2" x1="265.60770641612635" x2="265.60770641612635" y1="0" y2="30"/><line opacity="0.2" x1="325.6437164273827" x2="325.6437164273827" y1="0" y2="30"/><line opacity="0.2" x1="464.3934768702714" x2="464.3934768702714" y1="0" y2="30"/><line opacity="0.2" x1="384.20024785355486" x2="384.20024785355486" y1="0" y2="30"/><line opacity="0.2" x1="517.9100938356163" x2="517.9100938356163" y1="0" y2="30"/><line opacity="0.2" x1="381.7146127018407" x2="381.7146127018407" y1="0" y2="30"/><line opacity="0.2" x1="510.55102453577484" x2="510.55102453577484" y1="0" y2="30"/><line opacity="0.2" x1="338.93736381233504" x2="338.93736381233504" y1="0" y2="30"/><line opacity="0.2" x1="206.45032506129283" x2="206.45032506129283" y1="0" y2="30"/><line opacity="0.2" x1="459.11067871644985" x2="459.11067871644985" y1="0" y2="30"/><line opacity="0.2" x1="339.2482691994249" x2="339.2482691994249" y1="0" y2="30"/><line opacity="0.2" x1="302.3385004793616" x2="302.3385004793616" y1="0" y2="30"/><line opacity="0.2" x1="466.75706121163637" x2="466.75706121163637" y1="0" y2="30"/><line opacity="0.2" x1="238.2460143052127" x2="238.2460143052127" y1="0" y2="30"/><line opacity="0.2" x1="352.5490668779959" x2="352.5490668779959" y1="0" y2="30"/><line opacity="0.2" x1="463.7922330041372" x2="463.7922330041372" y1="0" y2="30"/><line opacity="0.2" x1="323.62032375569805" x2="323.62032375569805" y1="0" y2="30"/><line opacity="0.2" x1="249.40977014409458" x2="249.40977014409458" y1="0" y2="30"/><line opacity="0.2" x1="377.06960153018747" x2="377.06960153018747" y1="0" y2="30"/><line opacity="0.2" x1="321.8231793219074" x2="321.8231793219074" y1="0" y2="30"/><line opacity="0.2" x1="288.5494948197489" x2="288.5494948197489" y1="0" y2="30"/><line opacity="0.2" x1="368.6475119720526" x2="368.6475119720526" y1="0" y2="30"/><line opacity="0.2" x1="415.2308758240974" x2="415.2308758240974" y1="0" y2="30"/><line opacity="0.2" x1="406.16462032366314" x2="406.16462032366314" y1="0" y2="30"/><line opacity="0.2" x1="334.66179300836495" x2="334.66179300836495" y1="0" y2="30"/><line opacity="0.2" x1="252.36777964262734" x2="252.36777964262734" y1="0" y2="30"/><line opacity="0.2" x1="477.70673588626386" x2="477.70673588626386" y1="0" y2="30"/><line opacity="0.2" x1="168.99428919918805" x2="168.99428919918805" y1="0" y2="30"/><line opacity="0.2" x1="310.06716230643116" x2="310.06716230643116" y1="0" y2="30"/><line opacity="0.2" x1="478.29564500877945" x2="478.29564500877945" y1="0" y2="30"/><line opacity="0.2" x1="340.3461970023268" x2="340.3461970023268" y1="0" y2="30"/><line opacity="0.2" x1="335.6221485119807" x2="335.6221485119807" y1="0" y2="30"/><line opacity="0.2" x1="439.8251498137982" x2="439.8251498137982" y1="0" y2="30"/><line opacity="0.2" x1="352.5449625846902" x2="352.5449625846902" y1="0" y2="30"/><line opacity="0.2" x1="361.841652039099" x2="361.841652039099" y1="0" y2="30"/><line opacity="0.2" x1="371.632179499994" x2="371.632179499994" y1="0" y2="30"/><line opacity="0.2" x1="239.76158869499932" x2="239.76158869499932" y1="0" y2="30"/><line opacity="0.2" x1="215.25939849191684" x2="215.25939849191684" y1="0" y2="30"/><line opacity="0.2" x1="213.70024452882913" x2="213.70024452882913" y1="0" y2="30"/><line opacity="0.2" x1="329.9651363100274" x2="329.9651363100274" y1="0" y2="30"/><line opacity="0.2" x1="332.8030278271094" x2="332.8030278271094" y1="0" y2="30"/><line opacity="0.2" x1="247.50780472104702" x2="247.50780472104702" y1="0" y2="30"/><line opacity="0.2" x1="349.879981657703" x2="349.879981657703" y1="0" y2="30"/><line opacity="0.2" x1="300.8240702808584" x2="300.8240702808584" y1="0" y2="30"/><line opacity="0.2" x1="364.0821149303683" x2="364.0821149303683" y1="0" y2="30"/><line opacity="0.2" x1="547.7200036482149" x2="547.7200036482149" y1="0" y2="30"/><line opacity="0.2" x1="254.95707275227556" x2="254.95707275227556" y1="0" y2="30"/><line opacity="0.2" x1="330.5744356614664" x2="330.5744356614664" y1="0" y2="30"/><line opacity="0.2" x1="246.4303768269277" x2="246.4303768269277" y1="0" y2="30"/><line opacity="0.2" x1="252.22309654171167" x2="252.22309654171167" y1="0" y2="30"/><line opacity="0.2" x1="428.2380445150704" x2="428.2380445150704" y1="0" y2="30"/><line opacity="0.2" x1="374.5083337969452" x2="374.5083337969452" y1="0" y2="30"/><line opacity="0.2" x1="309.36413246138306" x2="309.36413246138306" y1="0" y2="30"/><line opacity="0.2" x1="314.0492256850027" x2="314.0492256850027" y1="0" y2="30"/><line opacity="0.2" x1="300.2107910619436" x2="300.2107910619436" y1="0" y2="30"/><line opacity="0.2" x1="271.517101744154" x2="271.517101744154" y1="0" y2="30"/><line opacity="0.2" x1="277.6221974077257" x2="277.6221974077257" y1="0" y2="30"/><line opacity="0.2" x1="415.52398701775365" x2="415.52398701775365" y1="0" y2="30"/><line opacity="0.2" x1="308.57666988105507" x2="308.57666988105507" y1="0" y2="30"/><line opacity="0.2" x1="344.1838635183203" x2="344.1838635183203" y1="0" y2="30"/><line opacity="0.2" x1="304.48995850433175" x2="304.48995850433175" y1="0" y2="30"/><line opacity="0.2" x1="212.8741029989431" x2="212.8741029989431" y1="0" y2="30"/><line opacity="0.2" x1="430.976705197397" x2="430.976705197397" y1="0" y2="30"/><line opacity="0.2" x1="513.7037292479365" x2="513.7037292479365" y1="0" y2="30"/><line opacity="0.2" x1="405.89054383291204" x2="405.89054383291204" y1="0" y2="30"/><line opacity="0.2" x1="279.7174177364346" x2="279.7174177364346" y1="0" y2="30"/><line opacity="0.2" x1="225.77893157051113" x2="225.77893157051113" y1="0" y2="30"/><line opacity="0.2" x1="259.2223874713088" x2="259.2223874713088" y1="0" y2="30"/><line opacity="0.2" x1="349.0837382473994" x2="349.0837382473994" y1="0" y2="30"/><line opacity="0.2" x1="277.0352244028448" x2="277.0352244028448" y1="0" y2="30"/><line opacity="0.2" x1="326.2260343222082" x2="326.2260343222082" y1="0" y2="30"/><line opacity="0.2" x1="92.23513791374651" x2="92.23513791374651" y1="0" y2="30"/><line opacity="0.2" x1="360.85508950886117" x2="360.85508950886117" y1="0" y2="30"/><line opacity="0.2" x1="385.24989956600706" x2="385.24989956600706" y1="0" y2="30"/><line opacity="0.2" x1="250.85574379538147" x2="250.85574379538147" y1="0" y2="30"/><line opacity="0.2" x1="194.67756451814392" x2="194.67756451814392" y1="0" y2="30"/><line opacity="0.2" x1="298.08162160401514" x2="298.08162160401514" y1="0" y2="30"/><line opacity="0.2" x1="213.47038187637634" x2="213.47038187637634" y1="0" y2="30"/><line opacity="0.2" x1="418.58342126483075" x2="418.58342126483075" y1="0" y2="30"/><line opacity="0.2" x1="190.1073591360788" x2="190.1073591360788" y1="0" y2="30"/><line opacity="0.2" x1="427.63423403359917" x2="427.63423403359917" y1="0" y2="30"/><line opacity="0.2" x1="210.52727158188043" x2="210.52727158188043" y1="0" y2="30"/><line opacity="0.2" x1="355.89600299324616" x2="355.89600299324616" y1="0" y2="30"/><line opacity="0.2" x1="405.859236447623" x2="405.859236447623" y1="0" y2="30"/><line opacity="0.2" x1="283.3913658028563" x2="283.3913658028563" y1="0" y2="30"/><line opacity="0.2" x1="178.1689589168356" x2="178.1689589168356" y1="0" y2="30"/><line opacity="0.2" x1="296.0905121968183" x2="296.0905121968183" y1="0" y2="30"/><line opacity="0.2" x1="329.4630958471889" x2="329.4630958471889" y1="0" y2="30"/><line opacity="0.2" x1="221.52515971189325" x2="221.52515971189325" y1="0" y2="30"/><line opacity="0.2" x1="129.70058735340928" x2="129.70058735340928" y1="0" y2="30"/><line opacity="0.2" x1="381.88058288136943" x2="381.88058288136943" y1="0" y2="30"/><line opacity="0.2" x1="460.4048606473461" x2="460.4048606473461" y1="0" y2="30"/><line opacity="0.2" x1="191.17665490107171" x2="191.17665490107171" y1="0" y2="30"/><line opacity="0.2" x1="258.3000312054375" x2="258.3000312054375" y1="0" y2="30"/><line opacity="0.2" x1="408.92666349431875" x2="408.92666349431875" y1="0" y2="30"/><line opacity="0.2" x1="345.08426680557636" x2="345.08426680557636" y1="0" y2="30"/><line opacity="0.2" x1="287.0062353829443" x2="287.0062353829443" y1="0" y2="30"/><line opacity="0.2" x1="247.48744301064974" x2="247.48744301064974" y1="0" y2="30"/><line opacity="0.2" x1="244.67618751383154" x2="244.67618751383154" y1="0" y2="30"/><line opacity="0.2" x1="300.9453579497643" x2="300.9453579497643" y1="0" y2="30"/><line opacity="0.2" x1="231.2412357614998" x2="231.2412357614998" y1="0" y2="30"/><line opacity="0.2" x1="394.01361095339485" x2="394.01361095339485" y1="0" y2="30"/><line opacity="0.2" x1="439.9014356949373" x2="439.9014356949373" y1="0" y2="30"/><line opacity="0.2" x1="565.7372175534107" x2="565.7372175534107" y1="0" y2="30"/><line opacity="0.2" x1="246.0241685515147" x2="246.0241685515147" y1="0" y2="30"/><line opacity="0.2" x1="231.9309986892729" x2="231.9309986892729" y1="0" y2="30"/><line opacity="0.2" x1="158.4765097677341" x2="158.4765097677341" y1="0" y2="30"/><line opacity="0.2" x1="380.7713821464532" x2="380.7713821464532" y1="0" y2="30"/><line opacity="0.2" x1="510.54731794941426" x2="510.54731794941426" y1="0" y2="30"/><line opacity="0.2" x1="351.5878658735932" x2="351.5878658735932" y1="0" y2="30"/><line opacity="0.2" x1="261.6046681128107" x2="261.6046681128107" y1="0" y2="30"/><line opacity="0.2" x1="333.974058583896" x2="333.974058583896" y1="0" y2="30"/><line opacity="0.2" x1="348.2074033781375" x2="348.2074033781375" y1="0" y2="30"/><line opacity="0.2" x1="320.28865630591685" x2="320.28865630591685" y1="0" y2="30"/><line opacity="0.2" x1="261.5441209077611" x2="261.5441209077611" y1="0" y2="30"/><line opacity="0.2" x1="257.40811286442556" x2="257.40811286442556" y1="0" y2="30"/><line opacity="0.2" x1="266.7575826111924" x2="266.7575826111924" y1="0" y2="30"/><line opacity="0.2" x1="278.873334079004" x2="278.873334079004" y1="0" y2="30"/><line opacity="0.2" x1="455.3638794155999" x2="455.3638794155999" y1="0" y2="30"/><line opacity="0.2" x1="407.21593464788555" x2="407.21593464788555" y1="0" y2="30"/><line opacity="0.2" x1="345.88071202538794" x2="345.88071202538794" y1="0" y2="30"/><line opacity="0.2" x1="307.4874762403706" x2="307.4874762403706" y1="0" y2="30"/><line opacity="0.2" x1="79.05676217369621" x2="79.05676217369621" y1="0" y2="30"/><line opacity="0.2" x1="390.15362338417935" x2="390.15362338417935" y1="0" y2="30"/><line opacity="0.2" x1="301.9716063805846" x2="301.9716063805846" y1="0" y2="30"/><line opacity="0.2" x1="255.52336414645032" x2="255.52336414645032" y1="0" y2="30"/><line opacity="0.2" x1="442.942434067425" x2="442.942434067425" y1="0" y2="30"/><line opacity="0.2" x1="267.97910752299197" x2="267.97910752299197" y1="0" y2="30"/><line opacity="0.2" x1="407.5087625515683" x2="407.5087625515683" y1="0" y2="30"/><line opacity="0.2" x1="330.8156998992725" x2="330.8156998992725" y1="0" y2="30"/><line opacity="0.2" x1="480.3989365606626" x2="480.3989365606626" y1="0" y2="30"/><line opacity="0.2" x1="192.78209263541646" x2="192.78209263541646" y1="0" y2="30"/><line opacity="0.2" x1="388.54053360095907" x2="388.54053360095907" y1="0" y2="30"/><line opacity="0.2" x1="216.02235224743177" x2="216.02235224743177" y1="0" y2="30"/><line opacity="0.2" x1="406.4404859919292" x2="406.4404859919292" y1="0" y2="30"/><line opacity="0.2" x1="347.3544044197053" x2="347.3544044197053" y1="0" y2="30"/><line opacity="0.2" x1="351.76648286471226" x2="351.76648286471226" y1="0" y2="30"/><line opacity="0.2" x1="283.36511506318493" x2="283.36511506318493" y1="0" y2="30"/><line opacity="0.2" x1="295.9580484620836" x2="295.9580484620836" y1="0" y2="30"/><line opacity="0.2" x1="469.63244460536987" x2="469.63244460536987" y1="0" y2="30"/><line opacity="0.2" x1="395.6588910799733" x2="395.6588910799733" y1="0" y2="30"/><line opacity="0.2" x1="190.30223758008123" x2="190.30223758008123" y1="0" y2="30"/><line opacity="0.2" x1="414.3012278658099" x2="414.3012278658099" y1="0" y2="30"/></g></svg>