<svg xmlns="http://www.w3.org/2000/svg" xmlns:xlink="http://www.w3.org/1999/xlink" class="plot-d6a7b5" fill="currentColor" font-family="system-ui, sans-serif" font-size="10" text-anchor="middle" width="640" height="60" viewBox="0 0 640 60" style="color: black; background-color: white;"><style>:where(.plot-d6a7b5) {
  --plot-background: white;
  display: block;
  height: auto;
  height: intrinsic;
  max-width: 100%;
}
:where(.plot-d6a7b5 text),
:where(.plot-d6a7b5 tspan) {
  white-space: pre;
}</style><g aria-label="x-axis tick" aria-hidden="true" fill="none" stroke="currentColor"><path transform="translate(63.61726292963887,30)" d="M0,0L0,6"/><path transform="translate(145.08284101179467,30)" d="M0,0L0,6"/><path transform="translate(226.54841909395049,30)" d="M0,0L0,6"/><path transform="translate(308.0139971761063,30)" d="M0,0L0,6"/><path transform="translate(389.4795752582621,30)" d="M0,0L0,6"/><path transform="translate(470.9451533404179,30)" d="M0,0L0,6"/><path transform="translate(552.4107314225737,30)" d="M0,0L0,6"/></g><g aria-label="x-axis tick label" font-variant="tabular-nums" transform="translate(0,9)"><text y="0.71em" transform="translate(63.61726292963887,30)">−3</text><text y="0.71em" transform="translate(145.08284101179467,30)">−2</text><text y="0.71em" transform="translate(226.54841909395049,30)">−1</text><text y="0.71em" transform="translate(308.0139971761063,30)">0</text><text y="0.71em" transform="translate(389.4795752582621,30)">1</text><text y="0.71em" transform="translate(470.9451533404179,30)">2</text><text y="0.71em" transform="translate(552.4107314225737,30)">3</text></g><g aria-label="tick" stroke="steelblue"><line opacity="0.2" x1="358.05748290884566" x2="358.05748290884566" y1="0.5" y2="30"/><line opacity="0.2" x1="323.87907268241935" x2="323.87907268241935" y1="0.5" y2="30"/><line opacity="0.2" x1="334.5090545867984" x2="334.5090545867984" y1="0.5" y2="30"/><line opacity="0.2" x1="210.19328732549317" x2="210.19328732549317" y1="0.5" y2="30"/><line opacity="0.2" x1="262.33078309108976" x2="262.33078309108976" y1="0.5" y2="30"/><line opacity="0.2" x1="367.9055048445471" x2="367.9055048445471" y1="0.5" y2="30"/><line opacity="0.2" x1="387.9113742532816" x2="387.9113742532816" y1="0.5" y2="30"/><line opacity="0.2" x1="336.2361127009623" x2="336.2361127009623" y1="0.5" y2="30"/><line opacity="0.2" x1="308.1385993695936" x2="308.1385993695936" y1="0.5" y2="30"/><line opacity="0.2" x1="503.18508052824006" x2="503.18508052824006" y1="0.5" y2="30"/><line opacity="0.2" x1="348.9555554762582" x2="348.9555554762582" y1="0.5" y2="30"/><line opacity="0.2" x1="296.04285600529994" x2="296.04285600529994" y1="0.5" y2="30"/><line opacity="0.2" x1="222.9322704962613" x2="222.9322704962613" y1="0.5" y2="30"/><line opacity="0.2" x1="521.8106407236731" x2="521.8106407236731" y1="0.5" y2="30"/><line opacity="0.2" x1="276.6384110788061" x2="276.6384110788061" y1="0.5" y2="30"/><line opacity="0.2" x1="397.8520805635875" x2="397.8520805635875" y1="0.5" y2="30"/><line opacity="0.2" x1="472.14342694738656" x2="472.14342694738656" y1="0.5" y2="30"/><line opacity="0.2" x1="313.49515235457613" x2="313.49515235457613" y1="0.5" y2="30"/><line opacity="0.2" x1="334.09199244392687" x2="334.09199244392687" y1="0.5" y2="30"/><line opacity="0.2" x1="307.3409686260172" x2="307.3409686260172" y1="0.5" y2="30"/><line opacity="0.2" x1="119.03357126574201" x2="119.03357126574201" y1="0.5" y2="30"/><line opacity="0.2" x1="263.2663333888237" x2="263.2663333888237" y1="0.5" y2="30"/><line opacity="0.2" x1="287.3376255015237" x2="287.3376255015237" y1="0.5" y2="30"/><line opacity="0.2" x1="250.14998315197064" x2="250.14998315197064" y1="0.5" y2="30"/><line opacity="0.2" x1="163.27010823614444" x2="163.27010823614444" y1="0.5" y2="30"/><line opacity="0.2" x1="364.7611491159013" x2="364.7611491159013" y1="0.5" y2="30"/><line opacity="0.2" x1="270.5000853757581" x2="270.5000853757581" y1="0.5" y2="30"/><line opacity="0.2" x1="225.85835015707315" x2="225.85835015707315" y1="0.5" y2="30"/><line opacity="0.2" x1="193.0134619200521" x2="193.0134619200521" y1="0.5" y2="30"/><line opacity="0.2" x1="290.0372409910198" x2="290.0372409910198" y1="0.5" y2="30"/><line opacity="0.2" x1="367.90528368327534" x2="367.90528368327534" y1="0.5" y2="30"/><line opacity="0.2" x1="393.36357139261577" x2="393.36357139261577" y1="0.5" y2="30"/><line opacity="0.2" x1="402.9323079164304" x2="402.9323079164304" y1="0.5" y2="30"/><line opacity="0.2" x1="280.0295208580849" x2="280.0295208580849" y1="0.5" y2="30"/><line opacity="0.2" x1="213.70594271537618" x2="213.70594271537618" y1="0.5" y2="30"/><line opacity="0.2" x1="354.1876695952903" x2="354.1876695952903" y1="0.5" y2="30"/><line opacity="0.2" x1="443.3085842841954" x2="443.3085842841954" y1="0.5" y2="30"/><line opacity="0.2" x1="295.13705947695837" x2="295.13705947695837" y1="0.5" y2="30"/><line opacity="0.2" x1="315.45948956612926" x2="315.45948956612926" y1="0.5" y2="30"/><line opacity="0.2" x1="328.16529720812736" x2="328.16529720812736" y1="0.5" y2="30"/><line opacity="0.2" x1="422.22527511491035" x2="422.22527511491035" y1="0.5" y2="30"/><line opacity="0.2" x1="310.37345720245145" x2="310.37345720245145" y1="0.5" y2="30"/><line opacity="0.2" x1="194.2192198419518" x2="194.2192198419518" y1="0.5" y2="30"/><line opacity="0.2" x1="357.0110911051579" x2="357.0110911051579" y1="0.5" y2="30"/><line opacity="0.2" x1="292.67963523628646" x2="292.67963523628646" y1="0.5" y2="30"/><line opacity="0.2" x1="137.5344641853666" x2="137.5344641853666" y1="0.5" y2="30"/><line opacity="0.2" x1="336.453765267316" x2="336.453765267316" y1="0.5" y2="30"/><line opacity="0.2" x1="327.0429178490057" x2="327.0429178490057" y1="0.5" y2="30"/><line opacity="0.2" x1="253.02075654674468" x2="253.02075654674468" y1="0.5" y2="30"/><line opacity="0.2" x1="315.2734438118675" x2="315.2734438118675" y1="0.5" y2="30"/><line opacity="0.2" x1="371.91291860406415" x2="371.91291860406415" y1="0.5" y2="30"/><line opacity="0.2" x1="170.0376995208105" x2="170.0376995208105" y1="0.5" y2="30"/><line opacity="0.2" x1="369.78292979393103" x2="369.78292979393103" y1="0.5" y2="30"/><line opacity="0.2" x1="259.1680480381418" x2="259.1680480381418" y1="0.5" y2="30"/><line opacity="0.2" x1="323.8766541488748" x2="323.8766541488748" y1="0.5" y2="30"/><line opacity="0.2" x1="286.0146530045845" x2="286.0146530045845" y1="0.5" y2="30"/><line opacity="0.2" x1="296.7676636812491" x2="296.7676636812491" y1="0.5" y2="30"/><line opacity="0.2" x1="211.72528191806242" x2="211.72528191806242" y1="0.5" y2="30"/><line opacity="0.2" x1="400.2340877726409" x2="400.2340877726409" y1="0.5" y2="30"/><line opacity="0.2" x1="470.3169593726989" x2="470.3169593726989" y1="0.5" y2="30"/><line opacity="0.2" x1="356.2480190085485" x2="356.2480190085485" y1="0.5" y2="30"/><line opacity="0.2" x1="193.46906692640843" x2="193.46906692640843" y1="0.5" y2="30"/><line opacity="0.2" x1="152.4868182640124" x2="152.4868182640124" y1="0.5" y2="30"/><line opacity="0.2" x1="266.70129482782215" x2="266.70129482782215" y1="0.5" y2="30"/><line opacity="0.2" x1="449.1848270809714" x2="449.1848270809714" y1="0.5" y2="30"/><line opacity="0.2" x1="289.6815871777536" x2="289.6815871777536" y1="0.5" y2="30"/><line opacity="0.2" x1="244.31561808408625" x2="244.31561808408625" y1="0.5" y2="30"/><line opacity="0.2" x1="229.93772324058932" x2="229.93772324058932" y1="0.5" y2="30"/><line opacity="0.2" x1="344.3710517940974" x2="344.3710517940974" y1="0.5" y2="30"/><line opacity="0.2" x1="345.89978847051066" x2="345.89978847051066" y1="0.5" y2="30"/><line opacity="0.2" x1="209.3587011482086" x2="209.3587011482086" y1="0.5" y2="30"/><line opacity="0.2" x1="265.2938736544117" x2="265.2938736544117" y1="0.5" y2="30"/><line opacity="0.2" x1="220.02479007484501" x2="220.02479007484501" y1="0.5" y2="30"/><line opacity="0.2" x1="188.14974074406476" x2="188.14974074406476" y1="0.5" y2="30"/><line opacity="0.2" x1="258.2550799180588" x2="258.2550799180588" y1="0.5" y2="30"/><line opacity="0.2" x1="180.43519366974263" x2="180.43519366974263" y1="0.5" y2="30"/><line opacity="0.2" x1="352.24075469745344" x2="352.24075469745344" y1="0.5" y2="30"/><line opacity="0.2" x1="407.54032314877435" x2="407.54032314877435" y1="0.5" y2="30"/><line opacity="0.2" x1="443.4943526110306" x2="443.4943526110306" y1="0.5" y2="30"/><line opacity="0.2" x1="180.83337088243078" x2="180.83337088243078" y1="0.5" y2="30"/><line opacity="0.2" x1="338.9549262715429" x2="338.9549262715429" y1="0.5" y2="30"/><line opacity="0.2" x1="190.1098574730406" x2="190.1098574730406" y1="0.5" y2="30"/><line opacity="0.2" x1="376.1385271142412" x2="376.1385271142412" y1="0.5" y2="30"/><line opacity="0.2" x1="256.79197048617635" x2="256.79197048617635" y1="0.5" y2="30"/><line opacity="0.2" x1="176.60186927696319" x2="176.60186927696319" y1="0.5" y2="30"/><line opacity="0.2" x1="274.43213505597834" x2="274.43213505597834" y1="0.5" y2="30"/><line opacity="0.2" x1="275.57756761167445" x2="275.57756761167445" y1="0.5" y2="30"/><line opacity="0.2" x1="266.32395530696857" x2="266.32395530696857" y1="0.5" y2="30"/><line opacity="0.2" x1="442.61813165942897" x2="442.61813165942897" y1="0.5" y2="30"/><line opacity="0.2" x1="240.85914804217714" x2="240.85914804217714" y1="0.5" y2="30"/><line opacity="0.2" x1="315.757042930753" x2="315.757042930753" y1="0.5" y2="30"/><line opacity="0.2" x1="466.71330706101236" x2="466.71330706101236" y1="0.5" y2="30"/><line opacity="0.2" x1="287.1873833779266" x2="287.1873833779266" y1="0.5" y2="30"/><line opacity="0.2" x1="398.8382506231661" x2="398.8382506231661" y1="0.5" y2="30"/><line opacity="0.2" x1="293.126300150124" x2="293.126300150124" y1="0.5" y2="30"/><line opacity="0.2" x1="307.32685226303147" x2="307.32685226303147" y1="0.5" y2="30"/><line opacity="0.2" x1="340.80446385764424" x2="340.80446385764424" y1="0.5" y2="30"/><line opacity="0.2" x1="417.23518059481387" x2="417.23518059481387" y1="0.5" y2="30"/><line opacity="0.2" x1="473.40316150182696" x2="473.40316150182696" y1="0.5" y2="30"/><line opacity="0.2" x1="348.4263505010049" x2="348.4263505010049" y1="0.5" y2="30"/><line opacity="0.2" x1="388.0201637832909" x2="388.0201637832909" y1="0.5" y2="30"/><line opacity="0.2" x1="317.01809628577854" x2="317.01809628577854" y1="0.5" y2="30"/><line opacity="0.2" x1="224.09658586747133" x2="224.09658586747133" y1="0.5" y2="30"/><line opacity="0.2" x1="230.9545389989315" x2="230.9545389989315" y1="0.5" y2="30"/><line opacity="0.2" x1="298.87444416602284" x2="298.87444416602284" y1="0.5" y2="30"/><line opacity="0.2" x1="505.3834030128269" x2="505.3834030128269" y1="0.5" y2="30"/><line opacity="0.2" x1="204.9158285953525" x2="204.9158285953525" y1="0.5" y2="30"/><line opacity="0.2" x1="276.80603748250337" x2="276.80603748250337" y1="0.5" y2="30"/><line opacity="0.2" x1="349.3393463699462" x2="349.3393463699462" y1="0.5" y2="30"/><line opacity="0.2" x1="284.8714720881129" x2="284.8714720881129" y1="0.5" y2="30"/><line opacity="0.2" x1="152.85816802693714" x2="152.85816802693714" y1="0.5" y2="30"/><line opacity="0.2" x1="325.56645831527123" x2="325.56645831527123" y1="0.5" y2="30"/><line opacity="0.2" x1="402.9346728547368" x2="402.9346728547368" y1="0.5" y2="30"/><line opacity="0.2" x1="342.87592767815016" x2="342.87592767815016" y1="0.5" y2="30"/><line opacity="0.2" x1="324.7120953708868" x2="324.7120953708868" y1="0.5" y2="30"/><line opacity="0.2" x1="327.5641821478354" x2="327.5641821478354" y1="0.5" y2="30"/><line opacity="0.2" x1="224.06087674745177" x2="224.06087674745177" y1="0.5" y2="30"/><line opacity="0.2" x1="310.9141198294714" x2="310.9141198294714" y1="0.5" y2="30"/><line opacity="0.2" x1="485.29928757087345" x2="485.29928757087345" y1="0.5" y2="30"/><line opacity="0.2" x1="242.4363474257393" x2="242.4363474257393" y1="0.5" y2="30"/><line opacity="0.2" x1="261.2849600260579" x2="261.2849600260579" y1="0.5" y2="30"/><line opacity="0.2" x1="377.34029027223914" x2="377.34029027223914" y1="0.5" y2="30"/><line opacity="0.2" x1="457.45323030101605" x2="457.45323030101605" y1="0.5" y2="30"/><line opacity="0.2" x1="318.0466143464461" x2="318.0466143464461" y1="0.5" y2="30"/><line opacity="0.2" x1="456.09853694311283" x2="456.09853694311283" y1="0.5" y2="30"/><line opacity="0.2" x1="424.49902863438604" x2="424.49902863438604" y1="0.5" y2="30"/><line opacity="0.2" x1="452.37722798012635" x2="452.37722798012635" y1="0.5" y2="30"/><line opacity="0.2" x1="309.6922034073877" x2="309.6922034073877" y1="0.5" y2="30"/><line opacity="0.2" x1="414.9282199600168" x2="414.9282199600168" y1="0.5" y2="30"/><line opacity="0.2" x1="492.7905982895106" x2="492.7905982895106" y1="0.5" y2="30"/><line opacity="0.2" x1="352.56157809555515" x2="352.56157809555515" y1="0.5" y2="30"/><line opacity="0.2" x1="338.65412059710815" x2="338.65412059710815" y1="0.5" y2="30"/><line opacity="0.2" x1="181.58649031293413" x2="181.58649031293413" y1="0.5" y2="30"/><line opacity="0.2" x1="248.5040374844649" x2="248.5040374844649" y1="0.5" y2="30"/><line opacity="0.2" x1="316.5355936011167" x2="316.5355936011167" y1="0.5" y2="30"/><line opacity="0.2" x1="220.22863307964988" x2="220.22863307964988" y1="0.5" y2="30"/><line opacity="0.2" x1="274.1826019688061" x2="274.1826019688061" y1="0.5" y2="30"/><line opacity="0.2" x1="357.8467396571351" x2="357.8467396571351" y1="0.5" y2="30"/><line opacity="0.2" x1="279.63640626280545" x2="279.63640626280545" y1="0.5" y2="30"/><line opacity="0.2" x1="173.5233262579801" x2="173.5233262579801" y1="0.5" y2="30"/><line opacity="0.2" x1="390.4697994172531" x2="390.4697994172531" y1="0.5" y2="30"/><line opacity="0.2" x1="431.36136539761054" x2="431.36136539761054" y1="0.5" y2="30"/><line opacity="0.2" x1="257.38155655179696" x2="257.38155655179696" y1="0.5" y2="30"/><line opacity="0.2" x1="349.5877684942835" x2="349.5877684942835" y1="0.5" y2="30"/><line opacity="0.2" x1="321.9798561702531" x2="321.9798561702531" y1="0.5" y2="30"/><line opacity="0.2" x1="259.19110892527425" x2="259.19110892527425" y1="0.5" y2="30"/><line opacity="0.2" x1="338.0179288983389" x2="338.0179288983389" y1="0.5" y2="30"/><line opacity="0.2" x1="350.08167920173656" x2="350.08167920173656" y1="0.5" y2="30"/><line opacity="0.2" x1="176.66720325958153" x2="176.66720325958153" y1="0.5" y2="30"/><line opacity="0.2" x1="224.98369889444314" x2="224.98369889444314" y1="0.5" y2="30"/><line opacity="0.2" x1="441.35655982072893" x2="441.35655982072893" y1="0.5" y2="30"/><line opacity="0.2" x1="230.18232670553638" x2="230.18232670553638" y1="0.5" y2="30"/><line opacity="0.2" x1="295.25748541486985" x2="295.25748541486985" y1="0.5" y2="30"/><line opacity="0.2" x1="281.17063989662176" x2="281.17063989662176" y1="0.5" y2="30"/><line opacity="0.2" x1="391.44026911508854" x2="391.44026911508854" y1="0.5" y2="30"/><line opacity="0.2" x1="235.06997479902216" x2="235.06997479902216" y1="0.5" y2="30"/><line opacity="0.2" x1="237.18947280026939" x2="237.18947280026939" y1="0.5" y2="30"/><line opacity="0.2" x1="260.2808541941536" x2="260.2808541941536" y1="0.5" y2="30"/><line opacity="0.2" x1="402.0616389451881" x2="402.0616389451881" y1="0.5" y2="30"/><line opacity="0.2" x1="193.08527121234002" x2="193.08527121234002" y1="0.5" y2="30"/><line opacity="0.2" x1="249.50299539246873" x2="249.50299539246873" y1="0.5" y2="30"/><line opacity="0.2" x1="279.0824341791715" x2="279.0824341791715" y1="0.5" y2="30"/><line opacity="0.2" x1="316.23427839939603" x2="316.23427839939603" y1="0.5" y2="30"/><line opacity="0.2" x1="286.9507970053814" x2="286.9507970053814" y1="0.5" y2="30"/><line opacity="0.2" x1="264.05275736697416" x2="264.05275736697416" y1="0.5" y2="30"/><line opacity="0.2" x1="344.54173926826564" x2="344.54173926826564" y1="0.5" y2="30"/><line opacity="0.2" x1="284.26602211917424" x2="284.26602211917424" y1="0.5" y2="30"/><line opacity="0.2" x1="492.51137450006973" x2="492.51137450006973" y1="0.5" y2="30"/><line opacity="0.2" x1="161.16886338149342" x2="161.16886338149342" y1="0.5" y2="30"/><line opacity="0.2" x1="280.8468736841679" x2="280.8468736841679" y1="0.5" y2="30"/><line opacity="0.2" x1="297.41714385558583" x2="297.41714385558583" y1="0.5" y2="30"/><line opacity="0.2" x1="316.64290729634257" x2="316.64290729634257" y1="0.5" y2="30"/><line opacity="0.2" x1="332.6172797991309" x2="332.6172797991309" y1="0.5" y2="30"/><line opacity="0.2" x1="226.70494275487226" x2="226.70494275487226" y1="0.5" y2="30"/><line opacity="0.2" x1="392.6493146457452" x2="392.6493146457452" y1="0.5" y2="30"/><line opacity="0.2" x1="354.61942595930225" x2="354.61942595930225" y1="0.5" y2="30"/><line opacity="0.2" x1="297.907136835262" x2="297.907136835262" y1="0.5" y2="30"/><line opacity="0.2" x1="296.3494491968742" x2="296.3494491968742" y1="0.5" y2="30"/><line opacity="0.2" x1="312.8625865435127" x2="312.8625865435127" y1="0.5" y2="30"/><line opacity="0.2" x1="302.95178487874915" x2="302.95178487874915" y1="0.5" y2="30"/><line opacity="0.2" x1="324.3937408059987" x2="324.3937408059987" y1="0.5" y2="30"/><line opacity="0.2" x1="376.9121436601703" x2="376.9121436601703" y1="0.5" y2="30"/><line opacity="0.2" x1="309.77191506133414" x2="309.77191506133414" y1="0.5" y2="30"/><line opacity="0.2" x1="477.56084745621604" x2="477.56084745621604" y1="0.5" y2="30"/><line opacity="0.2" x1="292.18418800395744" x2="292.18418800395744" y1="0.5" y2="30"/><line opacity="0.2" x1="327.852803805801" x2="327.852803805801" y1="0.5" y2="30"/><line opacity="0.2" x1="253.4310084508917" x2="253.4310084508917" y1="0.5" y2="30"/><line opacity="0.2" x1="309.5320077363622" x2="309.5320077363622" y1="0.5" y2="30"/><line opacity="0.2" x1="376.5725998175313" x2="376.5725998175313" y1="0.5" y2="30"/><line opacity="0.2" x1="113.48102548492392" x2="113.48102548492392" y1="0.5" y2="30"/><line opacity="0.2" x1="409.49686176054695" x2="409.49686176054695" y1="0.5" y2="30"/><line opacity="0.2" x1="379.55824735853867" x2="379.55824735853867" y1="0.5" y2="30"/><line opacity="0.2" x1="193.27629233880623" x2="193.27629233880623" y1="0.5" y2="30"/><line opacity="0.2" x1="311.1490537004566" x2="311.1490537004566" y1="0.5" y2="30"/><line opacity="0.2" x1="283.8946179570776" x2="283.8946179570776" y1="0.5" y2="30"/><line opacity="0.2" x1="250.34938567208104" x2="250.34938567208104" y1="0.5" y2="30"/><line opacity="0.2" x1="286.19227031080766" x2="286.19227031080766" y1="0.5" y2="30"/><line opacity="0.2" x1="274.3473834210191" x2="274.3473834210191" y1="0.5" y2="30"/><line opacity="0.2" x1="158.78242633253592" x2="158.78242633253592" y1="0.5" y2="30"/><line opacity="0.2" x1="408.8942112344538" x2="408.8942112344538" y1="0.5" y2="30"/><line opacity="0.2" x1="233.34748204327272" x2="233.34748204327272" y1="0.5" y2="30"/><line opacity="0.2" x1="248.41643489862463" x2="248.41643489862463" y1="0.5" y2="30"/><line opacity="0.2" x1="284.6533701786025" x2="284.6533701786025" y1="0.5" y2="30"/><line opacity="0.2" x1="372.1029752515832" x2="372.1029752515832" y1="0.5" y2="30"/><line opacity="0.2" x1="127.09782457244127" x2="127.09782457244127" y1="0.5" y2="30"/><line opacity="0.2" x1="354.4246997070068" x2="354.4246997070068" y1="0.5" y2="30"/><line opacity="0.2" x1="332.7210866283548" x2="332.7210866283548" y1="0.5" y2="30"/><line opacity="0.2" x1="230.64845997882665" x2="230.64845997882665" y1="0.5" y2="30"/><line opacity="0.2" x1="229.09941603829176" x2="229.09941603829176" y1="0.5" y2="30"/><line opacity="0.2" x1="319.4900601371847" x2="319.4900601371847" y1="0.5" y2="30"/><line opacity="0.2" x1="200.23527385696764" x2="200.23527385696764" y1="0.5" y2="30"/><line opacity="0.2" x1="339.27208298382544" x2="339.27208298382544" y1="0.5" y2="30"/><line opacity="0.2" x1="346.40974893126196" x2="346.40974893126196" y1="0.5" y2="30"/><line opacity="0.2" x1="403.50611427410206" x2="403.50611427410206" y1="0.5" y2="30"/><line opacity="0.2" x1="317.3225495178244" x2="317.3225495178244" y1="0.5" y2="30"/><line opacity="0.2" x1="233.70387087244848" x2="233.70387087244848" y1="0.5" y2="30"/><line opacity="0.2" x1="282.4180293925538" x2="282.4180293925538" y1="0.5" y2="30"/><line opacity="0.2" x1="340.99807637741765" x2="340.99807637741765" y1="0.5" y2="30"/><line opacity="0.2" x1="447.055497411215" x2="447.055497411215" y1="0.5" y2="30"/><line opacity="0.2" x1="384.23452542156025" x2="384.23452542156025" y1="0.5" y2="30"/><line opacity="0.2" x1="232.9394342813735" x2="232.9394342813735" y1="0.5" y2="30"/><line opacity="0.2" x1="272.60829211620614" x2="272.60829211620614" y1="0.5" y2="30"/><line opacity="0.2" x1="421.1141606817962" x2="421.1141606817962" y1="0.5" y2="30"/><line opacity="0.2" x1="321.0756026386342" x2="321.0756026386342" y1="0.5" y2="30"/><line opacity="0.2" x1="227.95222802580346" x2="227.95222802580346" y1="0.5" y2="30"/><line opacity="0.2" x1="359.92217506989397" x2="359.92217506989397" y1="0.5" y2="30"/><line opacity="0.2" x1="174.67934162228738" x2="174.67934162228738" y1="0.5" y2="30"/><line opacity="0.2" x1="450.17262128148224" x2="450.17262128148224" y1="0.5" y2="30"/><line opacity="0.2" x1="137.24328481843133" x2="137.24328481843133" y1="0.5" y2="30"/><line opacity="0.2" x1="259.92066449033166" x2="259.92066449033166" y1="0.5" y2="30"/><line opacity="0.2" x1="303.3944299475499" x2="303.3944299475499" y1="0.5" y2="30"/><line opacity="0.2" x1="336.40802395784465" x2="336.40802395784465" y1="0.5" y2="30"/><line opacity="0.2" x1="295.59726980608747" x2="295.59726980608747" y1="0.5" y2="30"/><line opacity="0.2" x1="164.6248721409453" x2="164.6248721409453" y1="0.5" y2="30"/><line opacity="0.2" x1="223.75993855542495" x2="223.75993855542495" y1="0.5" y2="30"/><line opacity="0.2" x1="354.25516938586475" x2="354.25516938586475" y1="0.5" y2="30"/><line opacity="0.2" x1="209.25413232604734" x2="209.25413232604734" y1="0.5" y2="30"/><line opacity="0.2" x1="420.2129498270903" x2="420.2129498270903" y1="0.5" y2="30"/><line opacity="0.2" x1="403.3469701400326" x2="403.3469701400326" y1="0.5" y2="30"/><line opacity="0.2" x1="335.1623967052642" x2="335.1623967052642" y1="0.5" y2="30"/><line opacity="0.2" x1="326.2370925572942" x2="326.2370925572942" y1="0.5" y2="30"/><line opacity="0.2" x1="221.03339028717505" x2="221.03339028717505" y1="0.5" y2="30"/><line opacity="0.2" x1="294.59827840357406" x2="294.59827840357406" y1="0.5" y2="30"/><line opacity="0.2" x1="331.3588284774608" x2="331.3588284774608" y1="0.5" y2="30"/><line opacity="0.2" x1="292.6578910478655" x2="292.6578910478655" y1="0.5" y2="30"/><line opacity="0.2" x1="306.72121241670493" x2="306.72121241670493" y1="0.5" y2="30"/><line opacity="0.2" x1="475.6938623538126" x2="475.6938623538126" y1="0.5" y2="30"/><line opacity="0.2" x1="275.36162751448865" x2="275.36162751448865" y1="0.5" y2="30"/><line opacity="0.2" x1="363.7708958718412" x2="363.7708958718412" y1="0.5" y2="30"/><line opacity="0.2" x1="196.04390242744694" x2="196.04390242744694" y1="0.5" y2="30"/><line opacity="0.2" x1="311.7932449746725" x2="311.7932449746725" y1="0.5" y2="30"/><line opacity="0.2" x1="396.6973204944236" x2="396.6973204944236" y1="0.5" y2="30"/><line opacity="0.2" x1="309.0608443445932" x2="309.0608443445932" y1="0.5" y2="30"/><line opacity="0.2" x1="282.17846683172826" x2="282.17846683172826" y1="0.5" y2="30"/><line opacity="0.2" x1="204.1727596849962" x2="204.1727596849962" y1="0.5" y2="30"/><line opacity="0.2" x1="414.1467272697625" x2="414.1467272697625" y1="0.5" y2="30"/><line opacity="0.2" x1="168.05623435959274" x2="168.05623435959274" y1="0.5" y2="30"/><line opacity="0.2" x1="333.0508817391704" x2="333.0508817391704" y1="0.5" y2="30"/><line opacity="0.2" x1="264.16765406409274" x2="264.16765406409274" y1="0.5" y2="30"/><line opacity="0.2" x1="317.4231099642705" x2="317.4231099642705" y1="0.5" y2="30"/><line opacity="0.2" x1="292.0928746114596" x2="292.0928746114596" y1="0.5" y2="30"/><line opacity="0.2" x1="522.1676909983299" x2="522.1676909983299" y1="0.5" y2="30"/><line opacity="0.2" x1="229.33939894089042" x2="229.33939894089042" y1="0.5" y2="30"/><line opacity="0.2" x1="332.56213489261495" x2="332.56213489261495" y1="0.5" y2="30"/><line opacity="0.2" x1="336.9429680628926" x2="336.9429680628926" y1="0.5" y2="30"/><line opacity="0.2" x1="390.14880332476645" x2="390.14880332476645" y1="0.5" y2="30"/><line opacity="0.2" x1="415.52009178919366" x2="415.52009178919366" y1="0.5" y2="30"/><line opacity="0.2" x1="377.981133821731" x2="377.981133821731" y1="0.5" y2="30"/><line opacity="0.2" x1="362.5887367730658" x2="362.5887367730658" y1="0.5" y2="30"/><line opacity="0.2" x1="307.0479122256935" x2="307.0479122256935" y1="0.5" y2="30"/><line opacity="0.2" x1="460.7980787339906" x2="460.7980787339906" y1="0.5" y2="30"/><line opacity="0.2" x1="346.12583259160004" x2="346.12583259160004" y1="0.5" y2="30"/><line opacity="0.2" x1="308.5724257353481" x2="308.5724257353481" y1="0.5" y2="30"/><line opacity="0.2" x1="324.9178752042482" x2="324.9178752042482" y1="0.5" y2="30"/><line opacity="0.2" x1="249.6269704096529" x2="249.6269704096529" y1="0.5" y2="30"/><line opacity="0.2" x1="199.7704847551141" x2="199.7704847551141" y1="0.5" y2="30"/><line opacity="0.2" x1="242.76333198806694" x2="242.76333198806694" y1="0.5" y2="30"/><line opacity="0.2" x1="300.44915702508786" x2="300.44915702508786" y1="0.5" y2="30"/><line opacity="0.2" x1="238.82793506616187" x2="238.82793506616187" y1="0.5" y2="30"/><line opacity="0.2" x1="296.86521124940646" x2="296.86521124940646" y1="0.5" y2="30"/><line opacity="0.2" x1="324.18650865075847" x2="324.18650865075847" y1="0.5" y2="30"/><line opacity="0.2" x1="228.24109320923705" x2="228.24109320923705" y1="0.5" y2="30"/><line opacity="0.2" x1="376.5812944273059" x2="376.5812944273059" y1="0.5" y2="30"/><line opacity="0.2" x1="290.8387451978135" x2="290.8387451978135" y1="0.5" y2="30"/><line opacity="0.2" x1="266.318791121846" x2="266.318791121846" y1="0.5" y2="30"/><line opacity="0.2" x1="280.61399633869473" x2="280.61399633869473" y1="0.5" y2="30"/><line opacity="0.2" x1="212.8000521585239" x2="212.8000521585239" y1="0.5" y2="30"/><line opacity="0.2" x1="436.14712740542416" x2="436.14712740542416" y1="0.5" y2="30"/><line opacity="0.2" x1="267.04034033502165" x2="267.04034033502165" y1="0.5" y2="30"/><line opacity="0.2" x1="331.79142589846305" x2="331.79142589846305" y1="0.5" y2="30"/><line opacity="0.2" x1="301.39734482915355" x2="301.39734482915355" y1="0.5" y2="30"/><line opacity="0.2" x1="272.9371719220194" x2="272.9371719220194" y1="0.5" y2="30"/><line opacity="0.2" x1="421.09563163870496" x2="421.09563163870496" y1="0.5" y2="30"/><line opacity="0.2" x1="275.85187683941916" x2="275.85187683941916" y1="0.5" y2="30"/><line opacity="0.2" x1="290.72445358101146" x2="290.72445358101146" y1="0.5" y2="30"/><line opacity="0.2" x1="218.22990462229552" x2="218.22990462229552" y1="0.5" y2="30"/><line opacity="0.2" x1="326.6010979871805" x2="326.6010979871805" y1="0.5" y2="30"/><line opacity="0.2" x1="316.39144932883295" x2="316.39144932883295" y1="0.5" y2="30"/><line opacity="0.2" x1="344.5813396777264" x2="344.5813396777264" y1="0.5" y2="30"/><line opacity="0.2" x1="185.07270433602582" x2="185.07270433602582" y1="0.5" y2="30"/><line opacity="0.2" x1="421.30680842608604" x2="421.30680842608604" y1="0.5" y2="30"/><line opacity="0.2" x1="296.2710065350861" x2="296.2710065350861" y1="0.5" y2="30"/><line opacity="0.2" x1="230.00991926213882" x2="230.00991926213882" y1="0.5" y2="30"/><line opacity="0.2" x1="303.04867981565366" x2="303.04867981565366" y1="0.5" y2="30"/><line opacity="0.2" x1="260.7922003000992" x2="260.7922003000992" y1="0.5" y2="30"/><line opacity="0.2" x1="279.3843680966756" x2="279.3843680966756" y1="0.5" y2="30"/><line opacity="0.2" x1="308.2694456332824" x2="308.2694456332824" y1="0.5" y2="30"/><line opacity="0.2" x1="374.6998900325185" x2="374.6998900325185" y1="0.5" y2="30"/><line opacity="0.2" x1="156.15904942301677" x2="156.15904942301677" y1="0.5" y2="30"/><line opacity="0.2" x1="234.8675311574837" x2="234.8675311574837" y1="0.5" y2="30"/><line opacity="0.2" x1="411.31465765517413" x2="411.31465765517413" y1="0.5" y2="30"/><line opacity="0.2" x1="380.3619653248377" x2="380.3619653248377" y1="0.5" y2="30"/><line opacity="0.2" x1="286.3874365199694" x2="286.3874365199694" y1="0.5" y2="30"/><line opacity="0.2" x1="331.66644767166235" x2="331.66644767166235" y1="0.5" y2="30"/><line opacity="0.2" x1="195.0185034203688" x2="195.0185034203688" y1="0.5" y2="30"/><line opacity="0.2" x1="129.20308246255087" x2="129.20308246255087" y1="0.5" y2="30"/><line opacity="0.2" x1="107.70443301821206" x2="107.70443301821206" y1="0.5" y2="30"/><line opacity="0.2" x1="283.9519355459887" x2="283.9519355459887" y1="0.5" y2="30"/><line opacity="0.2" x1="370.3790219623466" x2="370.3790219623466" y1="0.5" y2="30"/><line opacity="0.2" x1="344.8921969584295" x2="344.8921969584295" y1="0.5" y2="30"/><line opacity="0.2" x1="416.8942976763261" x2="416.8942976763261" y1="0.5" y2="30"/><line opacity="0.2" x1="414.4561089294337" x2="414.4561089294337" y1="0.5" y2="30"/><line opacity="0.2" x1="491.377267844745" x2="491.377267844745" y1="0.5" y2="30"/><line opacity="0.2" x1="461.53018440562016" x2="461.53018440562016" y1="0.5" y2="30"/><line opacity="0.2" x1="218.31181578770565" x2="218.31181578770565" y1="0.5" y2="30"/><line opacity="0.2" x1="259.89000769402946" x2="259.89000769402946" y1="0.5" y2="30"/><line opacity="0.2" x1="324.5346292504278" x2="324.5346292504278" y1="0.5" y2="30"/><line opacity="0.2" x1="247.74616060481526" x2="247.74616060481526" y1="0.5" y2="30"/><line opacity="0.2" x1="514.1158670768792" x2="514.1158670768792" y1="0.5" y2="30"/><line opacity="0.2" x1="329.9119960708883" x2="329.9119960708883" y1="0.5" y2="30"/><line opacity="0.2" x1="365.7627351114935" x2="365.7627351114935" y1="0.5" y2="30"/><line opacity="0.2" x1="397.48759024664366" x2="397.48759024664366" y1="0.5" y2="30"/><line opacity="0.2" x1="246.16242991558056" x2="246.16242991558056" y1="0.5" y2="30"/><line opacity="0.2" x1="197.7113102603542" x2="197.7113102603542" y1="0.5" y2="30"/><line opacity="0.2" x1="247.76197935895118" x2="247.76197935895118" y1="0.5" y2="30"/><line opacity="0.2" x1="224.82173981200273" x2="224.82173981200273" y1="0.5" y2="30"/><line opacity="0.2" x1="363.3731981092262" x2="363.3731981092262" y1="0.5" y2="30"/><line opacity="0.2" x1="293.8624823678655" x2="293.8624823678655" y1="0.5" y2="30"/><line opacity="0.2" x1="294.42748578183483" x2="294.42748578183483" y1="0.5" y2="30"/><line opacity="0.2" x1="325.4975797596357" x2="325.4975797596357" y1="0.5" y2="30"/><line opacity="0.2" x1="342.8824857426515" x2="342.8824857426515" y1="0.5" y2="30"/><line opacity="0.2" x1="242.51577036989724" x2="242.51577036989724" y1="0.5" y2="30"/><line opacity="0.2" x1="363.36624585930366" x2="363.36624585930366" y1="0.5" y2="30"/><line opacity="0.2" x1="302.3683283677495" x2="302.3683283677495" y1="0.5" y2="30"/><line opacity="0.2" x1="467.29803208757716" x2="467.29803208757716" y1="0.5" y2="30"/><line opacity="0.2" x1="421.3190690899254" x2="421.3190690899254" y1="0.5" y2="30"/><line opacity="0.2" x1="230.16389654232384" x2="230.16389654232384" y1="0.5" y2="30"/><line opacity="0.2" x1="215.6195873399438" x2="215.6195873399438" y1="0.5" y2="30"/><line opacity="0.2" x1="386.4341689305463" x2="386.4341689305463" y1="0.5" y2="30"/><line opacity="0.2" x1="280.50739810772944" x2="280.50739810772944" y1="0.5" y2="30"/><line opacity="0.2" x1="298.4626870319877" x2="298.4626870319877" y1="0.5" y2="30"/><line opacity="0.2" x1="270.95855938582037" x2="270.95855938582037" y1="0.5" y2="30"/><line opacity="0.2" x1="309.0221429983995" x2="309.0221429983995" y1="0.5" y2="30"/><line opacity="0.2" x1="328.9035053920333" x2="328.9035053920333" y1="0.5" y2="30"/><line opacity="0.2" x1="184.1807524465515" x2="184.1807524465515" y1="0.5" y2="30"/><line opacity="0.2" x1="254.59858015031045" x2="254.59858015031045" y1="0.5" y2="30"/><line opacity="0.2" x1="359.99361111343967" x2="359.99361111343967" y1="0.5" y2="30"/><line opacity="0.2" x1="265.4581543788734" x2="265.4581543788734" y1="0.5" y2="30"/><line opacity="0.2" x1="255.31742224294442" x2="255.31742224294442" y1="0.5" y2="30"/><line opacity="0.2" x1="247.5111857787258" x2="247.5111857787258" y1="0.5" y2="30"/><line opacity="0.2" x1="437.53884457338677" x2="437.53884457338677" y1="0.5" y2="30"/><line opacity="0.2" x1="306.26311410014193" x2="306.26311410014193" y1="0.5" y2="30"/><line opacity="0.2" x1="261.8823733205416" x2="261.8823733205416" y1="0.5" y2="30"/><line opacity="0.2" x1="339.5622620383463" x2="339.5622620383463" y1="0.5" y2="30"/><line opacity="0.2" x1="387.100664539491" x2="387.100664539491" y1="0.5" y2="30"/><line opacity="0.2" x1="272.803272884857" x2="272.803272884857" y1="0.5" y2="30"/><line opacity="0.2" x1="256.45847881022763" x2="256.45847881022763" y1="0.5" y2="30"/><line opacity="0.2" x1="128.7686796687134" x2="128.7686796687134" y1="0.5" y2="30"/><line opacity="0.2" x1="243.644233621962" x2="243.644233621962" y1="0.5" y2="30"/><line opacity="0.2" x1="224.9712997737684" x2="224.9712997737684" y1="0.5" y2="30"/><line opacity="0.2" x1="388.77534795807725" x2="388.77534795807725" y1="0.5" y2="30"/><line opacity="0.2" x1="277.0163064316695" x2="277.0163064316695" y1="0.5" y2="30"/><line opacity="0.2" x1="285.59701269191834" x2="285.59701269191834" y1="0.5" y2="30"/><line opacity="0.2" x1="405.59015302860826" x2="405.59015302860826" y1="0.5" y2="30"/><line opacity="0.2" x1="426.7612139970097" x2="426.7612139970097" y1="0.5" y2="30"/><line opacity="0.2" x1="343.26449645176666" x2="343.26449645176666" y1="0.5" y2="30"/><line opacity="0.2" x1="255.4396033675506" x2="255.4396033675506" y1="0.5" y2="30"/><line opacity="0.2" x1="287.5051793939095" x2="287.5051793939095" y1="0.5" y2="30"/><line opacity="0.2" x1="335.29045349097976" x2="335.29045349097976" y1="0.5" y2="30"/><line opacity="0.2" x1="323.1088694550982" x2="323.1088694550982" y1="0.5" y2="30"/><line opacity="0.2" x1="229.20853029101147" x2="229.20853029101147" y1="0.5" y2="30"/><line opacity="0.2" x1="516.7270104586753" x2="516.7270104586753" y1="0.5" y2="30"/><line opacity="0.2" x1="218.67280618692996" x2="218.67280618692996" y1="0.5" y2="30"/><line opacity="0.2" x1="319.81691910824804" x2="319.81691910824804" y1="0.5" y2="30"/><line opacity="0.2" x1="322.42447187490467" x2="322.42447187490467" y1="0.5" y2="30"/><line opacity="0.2" x1="394.5304384582412" x2="394.5304384582412" y1="0.5" y2="30"/><line opacity="0.2" x1="301.3591531524091" x2="301.3591531524091" y1="0.5" y2="30"/><line opacity="0.2" x1="345.07838838863364" x2="345.07838838863364" y1="0.5" y2="30"/><line opacity="0.2" x1="289.3392109937166" x2="289.3392109937166" y1="0.5" y2="30"/><line opacity="0.2" x1="495.7633396877382" x2="495.7633396877382" y1="0.5" y2="30"/><line opacity="0.2" x1="366.1508018088738" x2="366.1508018088738" y1="0.5" y2="30"/><line opacity="0.2" x1="335.5252452633224" x2="335.5252452633224" y1="0.5" y2="30"/><line opacity="0.2" x1="332.99688268911785" x2="332.99688268911785" y1="0.5" y2="30"/><line opacity="0.2" x1="358.7976858584134" x2="358.7976858584134" y1="0.5" y2="30"/><line opacity="0.2" x1="295.7915034102287" x2="295.7915034102287" y1="0.5" y2="30"/><line opacity="0.2" x1="172.0603835840409" x2="172.0603835840409" y1="0.5" y2="30"/><line opacity="0.2" x1="347.7342026079137" x2="347.7342026079137" y1="0.5" y2="30"/><line opacity="0.2" x1="377.84558698807007" x2="377.84558698807007" y1="0.5" y2="30"/><line opacity="0.2" x1="352.2700036804558" x2="352.2700036804558" y1="0.5" y2="30"/><line opacity="0.2" x1="414.50758076363445" x2="414.50758076363445" y1="0.5" y2="30"/><line opacity="0.2" x1="472.4659920825994" x2="472.4659920825994" y1="0.5" y2="30"/><line opacity="0.2" x1="272.05310428136556" x2="272.05310428136556" y1="0.5" y2="30"/><line opacity="0.2" x1="281.55597905904415" x2="281.55597905904415" y1="0.5" y2="30"/><line opacity="0.2" x1="330.3667363249735" x2="330.3667363249735" y1="0.5" y2="30"/><line opacity="0.2" x1="352.88180356588305" x2="352.88180356588305" y1="0.5" y2="30"/><line opacity="0.2" x1="252.47069278440995" x2="252.47069278440995" y1="0.5" y2="30"/><line opacity="0.2" x1="302.93493702423615" x2="302.93493702423615" y1="0.5" y2="30"/><line opacity="0.2" x1="196.8768807977899" x2="196.8768807977899" y1="0.5" y2="30"/><line opacity="0.2" x1="424.89107709852067" x2="424.89107709852067" y1="0.5" y2="30"/><line opacity="0.2" x1="391.7395373760206" x2="391.7395373760206" y1="0.5" y2="30"/><line opacity="0.2" x1="384.6801586565173" x2="384.6801586565173" y1="0.5" y2="30"/><line opacity="0.2" x1="302.4289230551905" x2="302.4289230551905" y1="0.5" y2="30"/><line opacity="0.2" x1="231.58483856423086" x2="231.58483856423086" y1="0.5" y2="30"/><line opacity="0.2" x1="263.81109757995034" x2="263.81109757995034" y1="0.5" y2="30"/><line opacity="0.2" x1="340.5382080875561" x2="340.5382080875561" y1="0.5" y2="30"/><line opacity="0.2" x1="288.9133084526704" x2="288.9133084526704" y1="0.5" y2="30"/><line opacity="0.2" x1="351.76124580487414" x2="351.76124580487414" y1="0.5" y2="30"/><line opacity="0.2" x1="247.98815028608618" x2="247.98815028608618" y1="0.5" y2="30"/><line opacity="0.2" x1="196.8762022462539" x2="196.8762022462539" y1="0.5" y2="30"/><line opacity="0.2" x1="352.17803928928197" x2="352.17803928928197" y1="0.5" y2="30"/><line opacity="0.2" x1="393.601233709271" x2="393.601233709271" y1="0.5" y2="30"/><line opacity="0.2" x1="373.56359008535907" x2="373.56359008535907" y1="0.5" y2="30"/><line opacity="0.2" x1="92.8655514035285" x2="92.8655514035285" y1="0.5" y2="30"/><line opacity="0.2" x1="222.98786819077182" x2="222.98786819077182" y1="0.5" y2="30"/><line opacity="0.2" x1="446.45474011412335" x2="446.45474011412335" y1="0.5" y2="30"/><line opacity="0.2" x1="327.1234805579104" x2="327.1234805579104" y1="0.5" y2="30"/><line opacity="0.2" x1="257.3662401309614" x2="257.3662401309614" y1="0.5" y2="30"/><line opacity="0.2" x1="308.0896316894577" x2="308.0896316894577" y1="0.5" y2="30"/><line opacity="0.2" x1="265.75022152795754" x2="265.75022152795754" y1="0.5" y2="30"/><line opacity="0.2" x1="322.2984457116987" x2="322.2984457116987" y1="0.5" y2="30"/><line opacity="0.2" x1="167.72620493126362" x2="167.72620493126362" y1="0.5" y2="30"/><line opacity="0.2" x1="344.3559024550095" x2="344.3559024550095" y1="0.5" y2="30"/><line opacity="0.2" x1="400.4409444909071" x2="400.4409444909071" y1="0.5" y2="30"/><line opacity="0.2" x1="239.42408887312928" x2="239.42408887312928" y1="0.5" y2="30"/><line opacity="0.2" x1="217.16788305440932" x2="217.16788305440932" y1="0.5" y2="30"/><line opacity="0.2" x1="227.9448748893815" x2="227.9448748893815" y1="0.5" y2="30"/><line opacity="0.2" x1="252.64913308608575" x2="252.64913308608575" y1="0.5" y2="30"/><line opacity="0.2" x1="248.6673993691528" x2="248.6673993691528" y1="0.5" y2="30"/><line opacity="0.2" x1="393.9896886490171" x2="393.9896886490171" y1="0.5" y2="30"/><line opacity="0.2" x1="99.34759506981908" x2="99.34759506981908" y1="0.5" y2="30"/><line opacity="0.2" x1="382.5360417814604" x2="382.5360417814604" y1="0.5" y2="30"/><line opacity="0.2" x1="229.31157513294224" x2="229.31157513294224" y1="0.5" y2="30"/><line opacity="0.2" x1="197.75017433870423" x2="197.75017433870423" y1="0.5" y2="30"/><line opacity="0.2" x1="219.9154360259081" x2="219.9154360259081" y1="0.5" y2="30"/><line opacity="0.2" x1="199.84370960006973" x2="199.84370960006973" y1="0.5" y2="30"/><line opacity="0.2" x1="377.09153860429274" x2="377.09153860429274" y1="0.5" y2="30"/><line opacity="0.2" x1="261.89242889195793" x2="261.89242889195793" y1="0.5" y2="30"/><line opacity="0.2" x1="380.4565544660179" x2="380.4565544660179" y1="0.5" y2="30"/><line opacity="0.2" x1="238.1305448684703" x2="238.1305448684703" y1="0.5" y2="30"/><line opacity="0.2" x1="374.4323390620141" x2="374.4323390620141" y1="0.5" y2="30"/><line opacity="0.2" x1="299.98010579636855" x2="299.98010579636855" y1="0.5" y2="30"/><line opacity="0.2" x1="260.76686442370334" x2="260.76686442370334" y1="0.5" y2="30"/><line opacity="0.2" x1="408.37413065123417" x2="408.37413065123417" y1="0.5" y2="30"/><line opacity="0.2" x1="173.68063660542373" x2="173.68063660542373" y1="0.5" y2="30"/><line opacity="0.2" x1="303.3567723775731" x2="303.3567723775731" y1="0.5" y2="30"/><line opacity="0.2" x1="428.70059417350285" x2="428.70059417350285" y1="0.5" y2="30"/><line opacity="0.2" x1="308.4277244680125" x2="308.4277244680125" y1="0.5" y2="30"/><line opacity="0.2" x1="322.8898634804338" x2="322.8898634804338" y1="0.5" y2="30"/><line opacity="0.2" x1="308.8967155179841" x2="308.8967155179841" y1="0.5" y2="30"/><line opacity="0.2" x1="390.8679194463968" x2="390.8679194463968" y1="0.5" y2="30"/><line opacity="0.2" x1="366.10886150377246" x2="366.10886150377246" y1="0.5" y2="30"/><line opacity="0.2" x1="286.73319005311964" x2="286.73319005311964" y1="0.5" y2="30"/><line opacity="0.2" x1="224.46564700818845" x2="224.46564700818845" y1="0.5" y2="30"/><line opacity="0.2" x1="225.44680908589265" x2="225.44680908589265" y1="0.5" y2="30"/><line opacity="0.2" x1="233.6028962111557" x2="233.6028962111557" y1="0.5" y2="30"/><line opacity="0.2" x1="381.7188319981173" x2="381.7188319981173" y1="0.5" y2="30"/><line opacity="0.2" x1="396.29058755385813" x2="396.29058755385813" y1="0.5" y2="30"/><line opacity="0.2" x1="197.4470325382705" x2="197.4470325382705" y1="0.5" y2="30"/><line opacity="0.2" x1="262.0938377000701" x2="262.0938377000701" y1="0.5" y2="30"/><line opacity="0.2" x1="313.4575709539748" x2="313.4575709539748" y1="0.5" y2="30"/><line opacity="0.2" x1="343.42400806931965" x2="343.42400806931965" y1="0.5" y2="30"/><line opacity="0.2" x1="316.03937081290434" x2="316.03937081290434" y1="0.5" y2="30"/><line opacity="0.2" x1="371.8582186872446" x2="371.8582186872446" y1="0.5" y2="30"/><line opacity="0.2" x1="380.08519283094944" x2="380.08519283094944" y1="0.5" y2="30"/><line opacity="0.2" x1="288.8974446360661" x2="288.8974446360661" y1="0.5" y2="30"/><line opacity="0.2" x1="322.1998691145721" x2="322.1998691145721" y1="0.5" y2="30"/><line opacity="0.2" x1="95.62336564377418" x2="95.62336564377418" y1="0.5" y2="30"/><line opacity="0.2" x1="401.75830561024907" x2="401.75830561024907" y1="0.5" y2="30"/><line opacity="0.2" x1="390.3644063664128" x2="390.3644063664128" y1="0.5" y2="30"/><line opacity="0.2" x1="371.2332314051722" x2="371.2332314051722" y1="0.5" y2="30"/><line opacity="0.2" x1="213.36370101522132" x2="213.36370101522132" y1="0.5" y2="30"/><line opacity="0.2" x1="450.4277756782462" x2="450.4277756782462" y1="0.5" y2="30"/><line opacity="0.2" x1="248.99225065931637" x2="248.99225065931637" y1="0.5" y2="30"/><line opacity="0.2" x1="366.8468656993601" x2="366.8468656993601" y1="0.5" y2="30"/><line opacity="0.2" x1="269.06140264407884" x2="269.06140264407884" y1="0.5" y2="30"/><line opacity="0.2" x1="251.49414086197027" x2="251.49414086197027" y1="0.5" y2="30"/><line opacity="0.2" x1="273.92458583111846" x2="273.92458583111846" y1="0.5" y2="30"/><line opacity="0.2" x1="368.89203542248237" x2="368.89203542248237" y1="0.5" y2="30"/><line opacity="0.2" x1="255.59483121238867" x2="255.59483121238867" y1="0.5" y2="30"/><line opacity="0.2" x1="263.3257050632467" x2="263.3257050632467" y1="0.5" y2="30"/><line opacity="0.2" x1="152.0423440226379" x2="152.0423440226379" y1="0.5" y2="30"/><line opacity="0.2" x1="265.398923597765" x2="265.398923597765" y1="0.5" y2="30"/><line opacity="0.2" x1="411.01773193713944" x2="411.01773193713944" y1="0.5" y2="30"/><line opacity="0.2" x1="265.0878477947613" x2="265.0878477947613" y1="0.5" y2="30"/><line opacity="0.2" x1="239.01921063362383" x2="239.01921063362383" y1="0.5" y2="30"/><line opacity="0.2" x1="219.05319565343865" x2="219.05319565343865" y1="0.5" y2="30"/><line opacity="0.2" x1="417.7778157726172" x2="417.7778157726172" y1="0.5" y2="30"/><line opacity="0.2" x1="366.96478558758486" x2="366.96478558758486" y1="0.5" y2="30"/><line opacity="0.2" x1="221.25898227470117" x2="221.25898227470117" y1="0.5" y2="30"/><line opacity="0.2" x1="272.883491902929" x2="272.883491902929" y1="0.5" y2="30"/><line opacity="0.2" x1="323.3522357948169" x2="323.3522357948169" y1="0.5" y2="30"/><line opacity="0.2" x1="383.26947151927095" x2="383.26947151927095" y1="0.5" y2="30"/><line opacity="0.2" x1="414.58403977930567" x2="414.58403977930567" y1="0.5" y2="30"/><line opacity="0.2" x1="275.3673994513329" x2="275.3673994513329" y1="0.5" y2="30"/><line opacity="0.2" x1="407.2233188765111" x2="407.2233188765111" y1="0.5" y2="30"/><line opacity="0.2" x1="288.7701304042543" x2="288.7701304042543" y1="0.5" y2="30"/><line opacity="0.2" x1="273.203640410243" x2="273.203640410243" y1="0.5" y2="30"/><line opacity="0.2" x1="252.38644080637354" x2="252.38644080637354" y1="0.5" y2="30"/><line opacity="0.2" x1="369.0717260215284" x2="369.0717260215284" y1="0.5" y2="30"/><line opacity="0.2" x1="259.88729760998507" x2="259.88729760998507" y1="0.5" y2="30"/><line opacity="0.2" x1="352.6778196292995" x2="352.6778196292995" y1="0.5" y2="30"/><line opacity="0.2" x1="224.8929987055855" x2="224.8929987055855" y1="0.5" y2="30"/><line opacity="0.2" x1="398.5628267957912" x2="398.5628267957912" y1="0.5" y2="30"/><line opacity="0.2" x1="341.7068820860508" x2="341.7068820860508" y1="0.5" y2="30"/><line opacity="0.2" x1="385.6942019648959" x2="385.6942019648959" y1="0.5" y2="30"/><line opacity="0.2" x1="161.27828375937727" x2="161.27828375937727" y1="0.5" y2="30"/><line opacity="0.2" x1="320.0252678091417" x2="320.0252678091417" y1="0.5" y2="30"/><line opacity="0.2" x1="214.3025254472435" x2="214.3025254472435" y1="0.5" y2="30"/><line opacity="0.2" x1="152.73883457012545" x2="152.73883457012545" y1="0.5" y2="30"/><line opacity="0.2" x1="330.7096814512713" x2="330.7096814512713" y1="0.5" y2="30"/><line opacity="0.2" x1="303.58081160205876" x2="303.58081160205876" y1="0.5" y2="30"/><line opacity="0.2" x1="354.4773681615011" x2="354.4773681615011" y1="0.5" y2="30"/><line opacity="0.2" x1="343.7856354741556" x2="343.7856354741556" y1="0.5" y2="30"/><line opacity="0.2" x1="156.14439375992123" x2="156.14439375992123" y1="0.5" y2="30"/><line opacity="0.2" x1="321.46941278601304" x2="321.46941278601304" y1="0.5" y2="30"/><line opacity="0.2" x1="487.9798817024149" x2="487.9798817024149" y1="0.5" y2="30"/><line opacity="0.2" x1="314.7694775428386" x2="314.7694775428386" y1="0.5" y2="30"/><line opacity="0.2" x1="380.9144513621578" x2="380.9144513621578" y1="0.5" y2="30"/><line opacity="0.2" x1="191.14826389853425" x2="191.14826389853425" y1="0.5" y2="30"/><line opacity="0.2" x1="295.498630092791" x2="295.498630092791" y1="0.5" y2="30"/><line opacity="0.2" x1="310.4944162730546" x2="310.4944162730546" y1="0.5" y2="30"/><line opacity="0.2" x1="327.7326733333566" x2="327.7326733333566" y1="0.5" y2="30"/><line opacity="0.2" x1="413.93516679960464" x2="413.93516679960464" y1="0.5" y2="30"/><line opacity="0.2" x1="355.5938827177172" x2="355.5938827177172" y1="0.5" y2="30"/><line opacity="0.2" x1="210.71453106010094" x2="210.71453106010094" y1="0.5" y2="30"/><line opacity="0.2" x1="62.854180000154344" x2="62.854180000154344" y1="0.5" y2="30"/><line opacity="0.2" x1="357.25406705196787" x2="357.25406705196787" y1="0.5" y2="30"/><line opacity="0.2" x1="121.08780927981434" x2="121.08780927981434" y1="0.5" y2="30"/><line opacity="0.2" x1="274.31814474014107" x2="274.31814474014107" y1="0.5" y2="30"/><line opacity="0.2" x1="362.4829018760217" x2="362.4829018760217" y1="0.5" y2="30"/><line opacity="0.2" x1="343.42954764513115" x2="343.42954764513115" y1="0.5" y2="30"/><line opacity="0.2" x1="344.8101040213455" x2="344.8101040213455" y1="0.5" y2="30"/><line opacity="0.2" x1="411.37050426010626" x2="411.37050426010626" y1="0.5" y2="30"/><line opacity="0.2" x1="267.69428766311603" x2="267.69428766311603" y1="0.5" y2="30"/><line opacity="0.2" x1="162.7414055981754" x2="162.7414055981754" y1="0.5" y2="30"/><line opacity="0.2" x1="269.80881240204604" x2="269.80881240204604" y1="0.5" y2="30"/><line opacity="0.2" x1="334.7786347644273" x2="334.7786347644273" y1="0.5" y2="30"/><line opacity="0.2" x1="206.55076241475072" x2="206.55076241475072" y1="0.5" y2="30"/><line opacity="0.2" x1="278.3713077211252" x2="278.3713077211252" y1="0.5" y2="30"/><line opacity="0.2" x1="345.35923806145115" x2="345.35923806145115" y1="0.5" y2="30"/><line opacity="0.2" x1="409.35977440006036" x2="409.35977440006036" y1="0.5" y2="30"/><line opacity="0.2" x1="222.9951974913509" x2="222.9951974913509" y1="0.5" y2="30"/><line opacity="0.2" x1="359.4866599218705" x2="359.4866599218705" y1="0.5" y2="30"/><line opacity="0.2" x1="285.9031022672136" x2="285.9031022672136" y1="0.5" y2="30"/><line opacity="0.2" x1="252.85215448018894" x2="252.85215448018894" y1="0.5" y2="30"/><line opacity="0.2" x1="376.13303161321545" x2="376.13303161321545" y1="0.5" y2="30"/><line opacity="0.2" x1="299.28279083726557" x2="299.28279083726557" y1="0.5" y2="30"/><line opacity="0.2" x1="298.74958690380055" x2="298.74958690380055" y1="0.5" y2="30"/><line opacity="0.2" x1="317.7167958544855" x2="317.7167958544855" y1="0.5" y2="30"/><line opacity="0.2" x1="254.4089667835449" x2="254.4089667835449" y1="0.5" y2="30"/><line opacity="0.2" x1="383.71809319180124" x2="383.71809319180124" y1="0.5" y2="30"/><line opacity="0.2" x1="262.3291676242466" x2="262.3291676242466" y1="0.5" y2="30"/><line opacity="0.2" x1="228.5640928952399" x2="228.5640928952399" y1="0.5" y2="30"/><line opacity="0.2" x1="317.22486154129194" x2="317.22486154129194" y1="0.5" y2="30"/><line opacity="0.2" x1="383.7709977635953" x2="383.7709977635953" y1="0.5" y2="30"/><line opacity="0.2" x1="287.67610498746666" x2="287.67610498746666" y1="0.5" y2="30"/><line opacity="0.2" x1="377.16558937815967" x2="377.16558937815967" y1="0.5" y2="30"/><line opacity="0.2" x1="202.90216134168782" x2="202.90216134168782" y1="0.5" y2="30"/><line opacity="0.2" x1="259.31182823503786" x2="259.31182823503786" y1="0.5" y2="30"/><line opacity="0.2" x1="257.3728332567561" x2="257.3728332567561" y1="0.5" y2="30"/><line opacity="0.2" x1="237.0457518088218" x2="237.0457518088218" y1="0.5" y2="30"/><line opacity="0.2" x1="429.459351942595" x2="429.459351942595" y1="0.5" y2="30"/><line opacity="0.2" x1="415.2672372563786" x2="415.2672372563786" y1="0.5" y2="30"/><line opacity="0.2" x1="203.43073961593782" x2="203.43073961593782" y1="0.5" y2="30"/><line opacity="0.2" x1="162.02621429646712" x2="162.02621429646712" y1="0.5" y2="30"/><line opacity="0.2" x1="253.53965340427925" x2="253.53965340427925" y1="0.5" y2="30"/><line opacity="0.2" x1="242.93050496892815" x2="242.93050496892815" y1="0.5" y2="30"/><line opacity="0.2" x1="306.0723802761146" x2="306.0723802761146" y1="0.5" y2="30"/><line opacity="0.2" x1="163.60424725432932" x2="163.60424725432932" y1="0.5" y2="30"/><line opacity="0.2" x1="256.71892743374184" x2="256.71892743374184" y1="0.5" y2="30"/><line opacity="0.2" x1="431.9268830888397" x2="431.9268830888397" y1="0.5" y2="30"/><line opacity="0.2" x1="286.16231236817407" x2="286.16231236817407" y1="0.5" y2="30"/><line opacity="0.2" x1="477.4439325112825" x2="477.4439325112825" y1="0.5" y2="30"/><line opacity="0.2" x1="261.89927983247117" x2="261.89927983247117" y1="0.5" y2="30"/><line opacity="0.2" x1="333.15471708191757" x2="333.15471708191757" y1="0.5" y2="30"/><line opacity="0.2" x1="407.4607076663595" x2="407.4607076663595" y1="0.5" y2="30"/><line opacity="0.2" x1="242.21278033548606" x2="242.21278033548606" y1="0.5" y2="30"/><line opacity="0.2" x1="406.6798686474331" x2="406.6798686474331" y1="0.5" y2="30"/><line opacity="0.2" x1="343.47621655634634" x2="343.47621655634634" y1="0.5" y2="30"/><line opacity="0.2" x1="242.71078978664642" x2="242.71078978664642" y1="0.5" y2="30"/><line opacity="0.2" x1="265.156860635032" x2="265.156860635032" y1="0.5" y2="30"/><line opacity="0.2" x1="241.16314760275083" x2="241.16314760275083" y1="0.5" y2="30"/><line opacity="0.2" x1="363.7200639759852" x2="363.7200639759852" y1="0.5" y2="30"/><line opacity="0.2" x1="345.81399625659475" x2="345.81399625659475" y1="0.5" y2="30"/><line opacity="0.2" x1="398.38648003071756" x2="398.38648003071756" y1="0.5" y2="30"/><line opacity="0.2" x1="268.2777579012329" x2="268.2777579012329" y1="0.5" y2="30"/><line opacity="0.2" x1="267.67561498501635" x2="267.67561498501635" y1="0.5" y2="30"/><line opacity="0.2" x1="255.68507346121265" x2="255.68507346121265" y1="0.5" y2="30"/><line opacity="0.2" x1="307.54099771103455" x2="307.54099771103455" y1="0.5" y2="30"/><line opacity="0.2" x1="297.27114817714676" x2="297.27114817714676" y1="0.5" y2="30"/><line opacity="0.2" x1="262.8141145192222" x2="262.8141145192222" y1="0.5" y2="30"/><line opacity="0.2" x1="281.60833777100527" x2="281.60833777100527" y1="0.5" y2="30"/><line opacity="0.2" x1="293.13470994777623" x2="293.13470994777623" y1="0.5" y2="30"/><line opacity="0.2" x1="308.2104630970829" x2="308.2104630970829" y1="0.5" y2="30"/><line opacity="0.2" x1="247.955619962431" x2="247.955619962431" y1="0.5" y2="30"/><line opacity="0.2" x1="223.53413724372922" x2="223.53413724372922" y1="0.5" y2="30"/><line opacity="0.2" x1="329.0467455534231" x2="329.0467455534231" y1="0.5" y2="30"/><line opacity="0.2" x1="306.36482933151615" x2="306.36482933151615" y1="0.5" y2="30"/><line opacity="0.2" x1="186.89391890721953" x2="186.89391890721953" y1="0.5" y2="30"/><line opacity="0.2" x1="316.7439224479093" x2="316.7439224479093" y1="0.5" y2="30"/><line opacity="0.2" x1="168.61098681599418" x2="168.61098681599418" y1="0.5" y2="30"/><line opacity="0.2" x1="259.42313929816396" x2="259.42313929816396" y1="0.5" y2="30"/><line opacity="0.2" x1="380.934722902224" x2="380.934722902224" y1="0.5" y2="30"/><line opacity="0.2" x1="309.4907423961465" x2="309.4907423961465" y1="0.5" y2="30"/><line opacity="0.2" x1="341.46010105506525" x2="341.46010105506525" y1="0.5" y2="30"/><line opacity="0.2" x1="331.5923801846933" x2="331.5923801846933" y1="0.5" y2="30"/><line opacity="0.2" x1="295.6880391062107" x2="295.6880391062107" y1="0.5" y2="30"/><line opacity="0.2" x1="307.03009082142273" x2="307.03009082142273" y1="0.5" y2="30"/><line opacity="0.2" x1="181.97469282965756" x2="181.97469282965756" y1="0.5" y2="30"/><line opacity="0.2" x1="393.85349936997443" x2="393.85349936997443" y1="0.5" y2="30"/><line opacity="0.2" x1="383.6192082345461" x2="383.6192082345461" y1="0.5" y2="30"/><line opacity="0.2" x1="497.603020670021" x2="497.603020670021" y1="0.5" y2="30"/><line opacity="0.2" x1="353.6682819224818" x2="353.6682819224818" y1="0.5" y2="30"/><line opacity="0.2" x1="374.70076079864" x2="374.70076079864" y1="0.5" y2="30"/><line opacity="0.2" x1="449.7735249640884" x2="449.7735249640884" y1="0.5" y2="30"/><line opacity="0.2" x1="228.06264015528868" x2="228.06264015528868" y1="0.5" y2="30"/><line opacity="0.2" x1="317.65757640745903" x2="317.65757640745903" y1="0.5" y2="30"/><line opacity="0.2" x1="345.65991105398564" x2="345.65991105398564" y1="0.5" y2="30"/><line opacity="0.2" x1="338.8940093601503" x2="338.8940093601503" y1="0.5" y2="30"/><line opacity="0.2" x1="237.1086864026763" x2="237.1086864026763" y1="0.5" y2="30"/><line opacity="0.2" x1="336.11921241271114" x2="336.11921241271114" y1="0.5" y2="30"/><line opacity="0.2" x1="274.1095585677949" x2="274.1095585677949" y1="0.5" y2="30"/><line opacity="0.2" x1="292.3770965428831" x2="292.3770965428831" y1="0.5" y2="30"/><line opacity="0.2" x1="237.4473508503359" x2="237.4473508503359" y1="0.5" y2="30"/><line opacity="0.2" x1="286.1786033874617" x2="286.1786033874617" y1="0.5" y2="30"/><line opacity="0.2" x1="150.70172847109745" x2="150.70172847109745" y1="0.5" y2="30"/><line opacity="0.2" x1="332.69685323674275" x2="332.69685323674275" y1="0.5" y2="30"/><line opacity="0.2" x1="245.55574326499024" x2="245.55574326499024" y1="0.5" y2="30"/><line opacity="0.2" x1="20" x2="20" y1="0.5" y2="30"/><line opacity="0.2" x1="287.203136203246" x2="287.203136203246" y1="0.5" y2="30"/><line opacity="0.2" x1="256.49123117759143" x2="256.49123117759143" y1="0.5" y2="30"/><line opacity="0.2" x1="308.4785380569288" x2="308.4785380569288" y1="0.5" y2="30"/><line opacity="0.2" x1="365.72534895819655" x2="365.72534895819655" y1="0.5" y2="30"/><line opacity="0.2" x1="401.78782510649125" x2="401.78782510649125" y1="0.5" y2="30"/><line opacity="0.2" x1="231.41021694138627" x2="231.41021694138627" y1="0.5" y2="30"/><line opacity="0.2" x1="249.69882461195667" x2="249.69882461195667" y1="0.5" y2="30"/><line opacity="0.2" x1="256.24543773842737" x2="256.24543773842737" y1="0.5" y2="30"/><line opacity="0.2" x1="293.09255100242143" x2="293.09255100242143" y1="0.5" y2="30"/><line opacity="0.2" x1="222.50597091042647" x2="222.50597091042647" y1="0.5" y2="30"/><line opacity="0.2" x1="396.70108899803245" x2="396.70108899803245" y1="0.5" y2="30"/><line opacity="0.2" x1="333.89033043922757" x2="333.89033043922757" y1="0.5" y2="30"/><line opacity="0.2" x1="287.7757398733295" x2="287.7757398733295" y1="0.5" y2="30"/><line opacity="0.2" x1="139.17694140716463" x2="139.17694140716463" y1="0.5" y2="30"/><line opacity="0.2" x1="315.89785283128407" x2="315.89785283128407" y1="0.5" y2="30"/><line opacity="0.2" x1="160.3568635433559" x2="160.3568635433559" y1="0.5" y2="30"/><line opacity="0.2" x1="324.6012172394312" x2="324.6012172394312" y1="0.5" y2="30"/><line opacity="0.2" x1="346.01103403110335" x2="346.01103403110335" y1="0.5" y2="30"/><line opacity="0.2" x1="237.53275202871777" x2="237.53275202871777" y1="0.5" y2="30"/><line opacity="0.2" x1="409.3055348899611" x2="409.3055348899611" y1="0.5" y2="30"/><line opacity="0.2" x1="425.9472471619175" x2="425.9472471619175" y1="0.5" y2="30"/><line opacity="0.2" x1="99.0763881781071" x2="99.0763881781071" y1="0.5" y2="30"/><line opacity="0.2" x1="221.5492630135802" x2="221.5492630135802" y1="0.5" y2="30"/><line opacity="0.2" x1="388.31090183260653" x2="388.31090183260653" y1="0.5" y2="30"/><line opacity="0.2" x1="397.4017708334872" x2="397.4017708334872" y1="0.5" y2="30"/><line opacity="0.2" x1="419.5283207929621" x2="419.5283207929621" y1="0.5" y2="30"/><line opacity="0.2" x1="371.57533919464544" x2="371.57533919464544" y1="0.5" y2="30"/><line opacity="0.2" x1="485.16223470080854" x2="485.16223470080854" y1="0.5" y2="30"/><line opacity="0.2" x1="240.2859535617205" x2="240.2859535617205" y1="0.5" y2="30"/><line opacity="0.2" x1="310.0773247063255" x2="310.0773247063255" y1="0.5" y2="30"/><line opacity="0.2" x1="337.0718108084255" x2="337.0718108084255" y1="0.5" y2="30"/><line opacity="0.2" x1="293.23849242146696" x2="293.23849242146696" y1="0.5" y2="30"/><line opacity="0.2" x1="204.52334666027417" x2="204.52334666027417" y1="0.5" y2="30"/><line opacity="0.2" x1="384.0601129794844" x2="384.0601129794844" y1="0.5" y2="30"/><line opacity="0.2" x1="285.05971406765684" x2="285.05971406765684" y1="0.5" y2="30"/><line opacity="0.2" x1="274.01066661841355" x2="274.01066661841355" y1="0.5" y2="30"/><line opacity="0.2" x1="307.3266247190574" x2="307.3266247190574" y1="0.5" y2="30"/><line opacity="0.2" x1="372.9143402056239" x2="372.9143402056239" y1="0.5" y2="30"/><line opacity="0.2" x1="182.26510041683585" x2="182.26510041683585" y1="0.5" y2="30"/><line opacity="0.2" x1="171.10551956021266" x2="171.10551956021266" y1="0.5" y2="30"/><line opacity="0.2" x1="311.1778265881845" x2="311.1778265881845" y1="0.5" y2="30"/><line opacity="0.2" x1="308.0837238660333" x2="308.0837238660333" y1="0.5" y2="30"/><line opacity="0.2" x1="277.98755730643626" x2="277.98755730643626" y1="0.5" y2="30"/><line opacity="0.2" x1="398.55258084981796" x2="398.55258084981796" y1="0.5" y2="30"/><line opacity="0.2" x1="226.3751846006942" x2="226.3751846006942" y1="0.5" y2="30"/><line opacity="0.2" x1="318.45574867449767" x2="318.45574867449767" y1="0.5" y2="30"/><line opacity="0.2" x1="404.00689956274647" x2="404.00689956274647" y1="0.5" y2="30"/><line opacity="0.2" x1="339.85159371626304" x2="339.85159371626304" y1="0.5" y2="30"/><line opacity="0.2" x1="275.34672135560675" x2="275.34672135560675" y1="0.5" y2="30"/><line opacity="0.2" x1="260.89566578471306" x2="260.89566578471306" y1="0.5" y2="30"/><line opacity="0.2" x1="307.6890976313993" x2="307.6890976313993" y1="0.5" y2="30"/><line opacity="0.2" x1="353.65348238586597" x2="353.65348238586597" y1="0.5" y2="30"/><line opacity="0.2" x1="474.01118967745015" x2="474.01118967745015" y1="0.5" y2="30"/><line opacity="0.2" x1="353.3834427368973" x2="353.3834427368973" y1="0.5" y2="30"/><line opacity="0.2" x1="409.9080009593023" x2="409.9080009593023" y1="0.5" y2="30"/><line opacity="0.2" x1="251.95237222367092" x2="251.95237222367092" y1="0.5" y2="30"/><line opacity="0.2" x1="147.21738503853118" x2="147.21738503853118" y1="0.5" y2="30"/><line opacity="0.2" x1="332.6423206850003" x2="332.6423206850003" y1="0.5" y2="30"/><line opacity="0.2" x1="350.02219883484355" x2="350.02219883484355" y1="0.5" y2="30"/><line opacity="0.2" x1="202.53754039659376" x2="202.53754039659376" y1="0.5" y2="30"/><line opacity="0.2" x1="409.0528238341017" x2="409.0528238341017" y1="0.5" y2="30"/><line opacity="0.2" x1="333.7901987365424" x2="333.7901987365424" y1="0.5" y2="30"/><line opacity="0.2" x1="288.07209982716614" x2="288.07209982716614" y1="0.5" y2="30"/><line opacity="0.2" x1="418.29485671454785" x2="418.29485671454785" y1="0.5" y2="30"/><line opacity="0.2" x1="262.6186288093081" x2="262.6186288093081" y1="0.5" y2="30"/><line opacity="0.2" x1="207.2704580369999" x2="207.2704580369999" y1="0.5" y2="30"/><line opacity="0.2" x1="256.9429430652669" x2="256.9429430652669" y1="0.5" y2="30"/><line opacity="0.2" x1="345.9798255772774" x2="345.9798255772774" y1="0.5" y2="30"/><line opacity="0.2" x1="344.23141980400857" x2="344.23141980400857" y1="0.5" y2="30"/><line opacity="0.2" x1="121.43417282501909" x2="121.43417282501909" y1="0.5" y2="30"/><line opacity="0.2" x1="403.3725536483769" x2="403.3725536483769" y1="0.5" y2="30"/><line opacity="0.2" x1="302.6706313686421" x2="302.6706313686421" y1="0.5" y2="30"/><line opacity="0.2" x1="236.3633410120154" x2="236.3633410120154" y1="0.5" y2="30"/><line opacity="0.2" x1="265.38807696392325" x2="265.38807696392325" y1="0.5" y2="30"/><line opacity="0.2" x1="263.1848494712545" x2="263.1848494712545" y1="0.5" y2="30"/><line opacity="0.2" x1="302.28010307276935" x2="302.28010307276935" y1="0.5" y2="30"/><line opacity="0.2" x1="338.58605655371883" x2="338.58605655371883" y1="0.5" y2="30"/><line opacity="0.2" x1="348.19237522020586" x2="348.19237522020586" y1="0.5" y2="30"/><line opacity="0.2" x1="312.9443751683299" x2="312.9443751683299" y1="0.5" y2="30"/><line opacity="0.2" x1="217.0360344984355" x2="217.0360344984355" y1="0.5" y2="30"/><line opacity="0.2" x1="169.98272680151968" x2="169.98272680151968" y1="0.5" y2="30"/><line opacity="0.2" x1="289.1594135318726" x2="289.1594135318726" y1="0.5" y2="30"/><line opacity="0.2" x1="271.15997290700307" x2="271.15997290700307" y1="0.5" y2="30"/><line opacity="0.2" x1="283.1818038973234" x2="283.1818038973234" y1="0.5" y2="30"/><line opacity="0.2" x1="259.3292516008126" x2="259.3292516008126" y1="0.5" y2="30"/><line opacity="0.2" x1="249.75352635034372" x2="249.75352635034372" y1="0.5" y2="30"/><line opacity="0.2" x1="373.39475477801545" x2="373.39475477801545" y1="0.5" y2="30"/><line opacity="0.2" x1="346.3110352297635" x2="346.3110352297635" y1="0.5" y2="30"/><line opacity="0.2" x1="263.0287663925836" x2="263.0287663925836" y1="0.5" y2="30"/><line opacity="0.2" x1="238.41217415684451" x2="238.41217415684451" y1="0.5" y2="30"/><line opacity="0.2" x1="322.13302750587917" x2="322.13302750587917" y1="0.5" y2="30"/><line opacity="0.2" x1="328.770158482339" x2="328.770158482339" y1="0.5" y2="30"/><line opacity="0.2" x1="357.5109444107343" x2="357.5109444107343" y1="0.5" y2="30"/><line opacity="0.2" x1="377.5106237756471" x2="377.5106237756471" y1="0.5" y2="30"/><line opacity="0.2" x1="222.70972423608384" x2="222.70972423608384" y1="0.5" y2="30"/><line opacity="0.2" x1="308.49213653542614" x2="308.49213653542614" y1="0.5" y2="30"/><line opacity="0.2" x1="375.13703750115144" x2="375.13703750115144" y1="0.5" y2="30"/><line opacity="0.2" x1="311.510573290385" x2="311.510573290385" y1="0.5" y2="30"/><line opacity="0.2" x1="280.0863054257035" x2="280.0863054257035" y1="0.5" y2="30"/><line opacity="0.2" x1="394.4957326474743" x2="394.4957326474743" y1="0.5" y2="30"/><line opacity="0.2" x1="201.10541104108634" x2="201.10541104108634" y1="0.5" y2="30"/><line opacity="0.2" x1="302.86636876501757" x2="302.86636876501757" y1="0.5" y2="30"/><line opacity="0.2" x1="222.16997958695714" x2="222.16997958695714" y1="0.5" y2="30"/><line opacity="0.2" x1="364.3596069953195" x2="364.3596069953195" y1="0.5" y2="30"/><line opacity="0.2" x1="346.05130196429604" x2="346.05130196429604" y1="0.5" y2="30"/><line opacity="0.2" x1="141.98079434851013" x2="141.98079434851013" y1="0.5" y2="30"/><line opacity="0.2" x1="346.4319907244338" x2="346.4319907244338" y1="0.5" y2="30"/><line opacity="0.2" x1="293.9968139944404" x2="293.9968139944404" y1="0.5" y2="30"/><line opacity="0.2" x1="443.5361461527601" x2="443.5361461527601" y1="0.5" y2="30"/><line opacity="0.2" x1="337.8607220603445" x2="337.8607220603445" y1="0.5" y2="30"/><line opacity="0.2" x1="246.0195259321642" x2="246.0195259321642" y1="0.5" y2="30"/><line opacity="0.2" x1="281.30098956738345" x2="281.30098956738345" y1="0.5" y2="30"/><line opacity="0.2" x1="382.55163114391576" x2="382.55163114391576" y1="0.5" y2="30"/><line opacity="0.2" x1="266.41906108526035" x2="266.41906108526035" y1="0.5" y2="30"/><line opacity="0.2" x1="213.8135380743712" x2="213.8135380743712" y1="0.5" y2="30"/><line opacity="0.2" x1="333.7532979614408" x2="333.7532979614408" y1="0.5" y2="30"/><line opacity="0.2" x1="435.2046023999864" x2="435.2046023999864" y1="0.5" y2="30"/><line opacity="0.2" x1="123.23093246051803" x2="123.23093246051803" y1="0.5" y2="30"/><line opacity="0.2" x1="221.57741007518746" x2="221.57741007518746" y1="0.5" y2="30"/><line opacity="0.2" x1="378.9885843373556" x2="378.9885843373556" y1="0.5" y2="30"/><line opacity="0.2" x1="248.5707018514976" x2="248.5707018514976" y1="0.5" y2="30"/><line opacity="0.2" x1="427.9405830022969" x2="427.9405830022969" y1="0.5" y2="30"/><line opacity="0.2" x1="343.6930995735924" x2="343.6930995735924" y1="0.5" y2="30"/><line opacity="0.2" x1="316.7242661405311" x2="316.7242661405311" y1="0.5" y2="30"/><line opacity="0.2" x1="226.88161112411348" x2="226.88161112411348" y1="0.5" y2="30"/><line opacity="0.2" x1="423.4270718854666" x2="423.4270718854666" y1="0.5" y2="30"/><line opacity="0.2" x1="353.9977039041654" x2="353.9977039041654" y1="0.5" y2="30"/><line opacity="0.2" x1="265.6850024224953" x2="265.6850024224953" y1="0.5" y2="30"/><line opacity="0.2" x1="249.28936935421945" x2="249.28936935421945" y1="0.5" y2="30"/><line opacity="0.2" x1="206.39049718906918" x2="206.39049718906918" y1="0.5" y2="30"/><line opacity="0.2" x1="229.8778906737416" x2="229.8778906737416" y1="0.5" y2="30"/><line opacity="0.2" x1="428.4310131949918" x2="428.4310131949918" y1="0.5" y2="30"/><line opacity="0.2" x1="289.8527182435079" x2="289.8527182435079" y1="0.5" y2="30"/><line opacity="0.2" x1="369.55051309985066" x2="369.55051309985066" y1="0.5" y2="30"/><line opacity="0.2" x1="350.57509774203777" x2="350.57509774203777" y1="0.5" y2="30"/><line opacity="0.2" x1="402.5997699780402" x2="402.5997699780402" y1="0.5" y2="30"/><line opacity="0.2" x1="224.75533869297269" x2="224.75533869297269" y1="0.5" y2="30"/><line opacity="0.2" x1="183.072137206438" x2="183.072137206438" y1="0.5" y2="30"/><line opacity="0.2" x1="320.5743787585295" x2="320.5743787585295" y1="0.5" y2="30"/><line opacity="0.2" x1="433.94565244835354" x2="433.94565244835354" y1="0.5" y2="30"/><line opacity="0.2" x1="362.7357766567671" x2="362.7357766567671" y1="0.5" y2="30"/><line opacity="0.2" x1="250.3251859253425" x2="250.3251859253425" y1="0.5" y2="30"/><line opacity="0.2" x1="365.94575612110174" x2="365.94575612110174" y1="0.5" y2="30"/><line opacity="0.2" x1="220.98194511784126" x2="220.98194511784126" y1="0.5" y2="30"/><line opacity="0.2" x1="370.9961040071284" x2="370.9961040071284" y1="0.5" y2="30"/><line opacity="0.2" x1="323.7590137943718" x2="323.7590137943718" y1="0.5" y2="30"/><line opacity="0.2" x1="382.03235222277493" x2="382.03235222277493" y1="0.5" y2="30"/><line opacity="0.2" x1="312.32436491313524" x2="312.32436491313524" y1="0.5" y2="30"/><line opacity="0.2" x1="400.18228671003914" x2="400.18228671003914" y1="0.5" y2="30"/><line opacity="0.2" x1="279.9702022364045" x2="279.9702022364045" y1="0.5" y2="30"/><line opacity="0.2" x1="280.2097982178719" x2="280.2097982178719" y1="0.5" y2="30"/><line opacity="0.2" x1="300.72242663340916" x2="300.72242663340916" y1="0.5" y2="30"/><line opacity="0.2" x1="294.05727564093763" x2="294.05727564093763" y1="0.5" y2="30"/><line opacity="0.2" x1="313.7634762701197" x2="313.7634762701197" y1="0.5" y2="30"/><line opacity="0.2" x1="287.68957646286833" x2="287.68957646286833" y1="0.5" y2="30"/><line opacity="0.2" x1="137.86528644822377" x2="137.86528644822377" y1="0.5" y2="30"/><line opacity="0.2" x1="303.5253508580868" x2="303.5253508580868" y1="0.5" y2="30"/><line opacity="0.2" x1="361.99400529181696" x2="361.99400529181696" y1="0.5" y2="30"/><line opacity="0.2" x1="318.9076998842674" x2="318.9076998842674" y1="0.5" y2="30"/><line opacity="0.2" x1="163.9434059652771" x2="163.9434059652771" y1="0.5" y2="30"/><line opacity="0.2" x1="406.9466261083909" x2="406.9466261083909" y1="0.5" y2="30"/><line opacity="0.2" x1="236.3370718894478" x2="236.3370718894478" y1="0.5" y2="30"/><line opacity="0.2" x1="399.41468390229505" x2="399.41468390229505" y1="0.5" y2="30"/><line opacity="0.2" x1="317.3125613947136" x2="317.3125613947136" y1="0.5" y2="30"/><line opacity="0.2" x1="214.04517922255545" x2="214.04517922255545" y1="0.5" y2="30"/><line opacity="0.2" x1="317.87967044096666" x2="317.87967044096666" y1="0.5" y2="30"/><line opacity="0.2" x1="191.69537215678326" x2="191.69537215678326" y1="0.5" y2="30"/><line opacity="0.2" x1="279.3000354290844" x2="279.3000354290844" y1="0.5" y2="30"/><line opacity="0.2" x1="277.82747033708114" x2="277.82747033708114" y1="0.5" y2="30"/><line opacity="0.2" x1="242.3970175115757" x2="242.3970175115757" y1="0.5" y2="30"/><line opacity="0.2" x1="417.80487563496945" x2="417.80487563496945" y1="0.5" y2="30"/><line opacity="0.2" x1="413.4403486283607" x2="413.4403486283607" y1="0.5" y2="30"/><line opacity="0.2" x1="216.24026608451192" x2="216.24026608451192" y1="0.5" y2="30"/><line opacity="0.2" x1="259.2437899393159" x2="259.2437899393159" y1="0.5" y2="30"/><line opacity="0.2" x1="216.31416462151964" x2="216.31416462151964" y1="0.5" y2="30"/><line opacity="0.2" x1="209.64299368297745" x2="209.64299368297745" y1="0.5" y2="30"/><line opacity="0.2" x1="435.65317143304225" x2="435.65317143304225" y1="0.5" y2="30"/><line opacity="0.2" x1="253.1680628869102" x2="253.1680628869102" y1="0.5" y2="30"/><line opacity="0.2" x1="125.97833962273126" x2="125.97833962273126" y1="0.5" y2="30"/><line opacity="0.2" x1="256.79595090415745" x2="256.79595090415745" y1="0.5" y2="30"/><line opacity="0.2" x1="302.1432563805945" x2="302.1432563805945" y1="0.5" y2="30"/><line opacity="0.2" x1="292.0933350909944" x2="292.0933350909944" y1="0.5" y2="30"/><line opacity="0.2" x1="247.94666863937573" x2="247.94666863937573" y1="0.5" y2="30"/><line opacity="0.2" x1="304.8173281477897" x2="304.8173281477897" y1="0.5" y2="30"/><line opacity="0.2" x1="220.7985868495698" x2="220.7985868495698" y1="0.5" y2="30"/><line opacity="0.2" x1="289.1295504582069" x2="289.1295504582069" y1="0.5" y2="30"/><line opacity="0.2" x1="248.55702554375293" x2="248.55702554375293" y1="0.5" y2="30"/><line opacity="0.2" x1="323.8517607639577" x2="323.8517607639577" y1="0.5" y2="30"/><line opacity="0.2" x1="299.3007911773097" x2="299.3007911773097" y1="0.5" y2="30"/><line opacity="0.2" x1="351.2487915456488" x2="351.2487915456488" y1="0.5" y2="30"/><line opacity="0.2" x1="328.17978221132233" x2="328.17978221132233" y1="0.5" y2="30"/><line opacity="0.2" x1="379.0339920888833" x2="379.0339920888833" y1="0.5" y2="30"/><line opacity="0.2" x1="465.04711003400297" x2="465.04711003400297" y1="0.5" y2="30"/><line opacity="0.2" x1="95.60514513640204" x2="95.60514513640204" y1="0.5" y2="30"/><line opacity="0.2" x1="388.26668830065415" x2="388.26668830065415" y1="0.5" y2="30"/><line opacity="0.2" x1="377.16551099914204" x2="377.16551099914204" y1="0.5" y2="30"/><line opacity="0.2" x1="384.3757053450016" x2="384.3757053450016" y1="0.5" y2="30"/><line opacity="0.2" x1="186.64269603946352" x2="186.64269603946352" y1="0.5" y2="30"/><line opacity="0.2" x1="243.02483564287547" x2="243.02483564287547" y1="0.5" y2="30"/><line opacity="0.2" x1="310.645485935405" x2="310.645485935405" y1="0.5" y2="30"/><line opacity="0.2" x1="166.46690871055975" x2="166.46690871055975" y1="0.5" y2="30"/><line opacity="0.2" x1="354.2512794004649" x2="354.2512794004649" y1="0.5" y2="30"/><line opacity="0.2" x1="298.41640814736803" x2="298.41640814736803" y1="0.5" y2="30"/><line opacity="0.2" x1="282.2512514235808" x2="282.2512514235808" y1="0.5" y2="30"/><line opacity="0.2" x1="248.15024293282588" x2="248.15024293282588" y1="0.5" y2="30"/><line opacity="0.2" x1="294.0519235159762" x2="294.0519235159762" y1="0.5" y2="30"/><line opacity="0.2" x1="333.5869610950182" x2="333.5869610950182" y1="0.5" y2="30"/><line opacity="0.2" x1="262.7826585870212" x2="262.7826585870212" y1="0.5" y2="30"/><line opacity="0.2" x1="232.394141145457" x2="232.394141145457" y1="0.5" y2="30"/><line opacity="0.2" x1="346.1322220668934" x2="346.1322220668934" y1="0.5" y2="30"/><line opacity="0.2" x1="290.1876500938016" x2="290.1876500938016" y1="0.5" y2="30"/><line opacity="0.2" x1="371.41248860415305" x2="371.41248860415305" y1="0.5" y2="30"/><line opacity="0.2" x1="263.15568004791726" x2="263.15568004791726" y1="0.5" y2="30"/><line opacity="0.2" x1="405.50850121030084" x2="405.50850121030084" y1="0.5" y2="30"/><line opacity="0.2" x1="176.0460303746322" x2="176.0460303746322" y1="0.5" y2="30"/><line opacity="0.2" x1="256.18855893748395" x2="256.18855893748395" y1="0.5" y2="30"/><line opacity="0.2" x1="368.7554263280518" x2="368.7554263280518" y1="0.5" y2="30"/><line opacity="0.2" x1="375.20731845053047" x2="375.20731845053047" y1="0.5" y2="30"/><line opacity="0.2" x1="161.72019926157" x2="161.72019926157" y1="0.5" y2="30"/><line opacity="0.2" x1="120.42108209316734" x2="120.42108209316734" y1="0.5" y2="30"/><line opacity="0.2" x1="414.3168023145703" x2="414.3168023145703" y1="0.5" y2="30"/><line opacity="0.2" x1="305.91811318264337" x2="305.91811318264337" y1="0.5" y2="30"/><line opacity="0.2" x1="311.78086192333456" x2="311.78086192333456" y1="0.5" y2="30"/><line opacity="0.2" x1="212.28875586324025" x2="212.28875586324025" y1="0.5" y2="30"/><line opacity="0.2" x1="271.8451235179938" x2="271.8451235179938" y1="0.5" y2="30"/><line opacity="0.2" x1="359.7246980437176" x2="359.7246980437176" y1="0.5" y2="30"/><line opacity="0.2" x1="283.50257155590657" x2="283.50257155590657" y1="0.5" y2="30"/><line opacity="0.2" x1="409.5037782112322" x2="409.5037782112322" y1="0.5" y2="30"/><line opacity="0.2" x1="307.17358106723884" x2="307.17358106723884" y1="0.5" y2="30"/><line opacity="0.2" x1="387.29877108988046" x2="387.29877108988046" y1="0.5" y2="30"/><line opacity="0.2" x1="319.422079527953" x2="319.422079527953" y1="0.5" y2="30"/><line opacity="0.2" x1="500.7482359592024" x2="500.7482359592024" y1="0.5" y2="30"/><line opacity="0.2" x1="327.1203484084134" x2="327.1203484084134" y1="0.5" y2="30"/><line opacity="0.2" x1="218.92832204031242" x2="218.92832204031242" y1="0.5" y2="30"/><line opacity="0.2" x1="179.23314284787546" x2="179.23314284787546" y1="0.5" y2="30"/><line opacity="0.2" x1="363.8021339202085" x2="363.8021339202085" y1="0.5" y2="30"/><line opacity="0.2" x1="338.20791542090046" x2="338.20791542090046" y1="0.5" y2="30"/><line opacity="0.2" x1="294.75067130650353" x2="294.75067130650353" y1="0.5" y2="30"/><line opacity="0.2" x1="235.18416399557572" x2="235.18416399557572" y1="0.5" y2="30"/><line opacity="0.2" x1="462.0434563878416" x2="462.0434563878416" y1="0.5" y2="30"/><line opacity="0.2" x1="260.7513085282517" x2="260.7513085282517" y1="0.5" y2="30"/><line opacity="0.2" x1="270.81654653115686" x2="270.81654653115686" y1="0.5" y2="30"/><line opacity="0.2" x1="284.192440212374" x2="284.192440212374" y1="0.5" y2="30"/><line opacity="0.2" x1="340.96789063277413" x2="340.96789063277413" y1="0.5" y2="30"/><line opacity="0.2" x1="249.8140904126335" x2="249.8140904126335" y1="0.5" y2="30"/><line opacity="0.2" x1="258.2108078411138" x2="258.2108078411138" y1="0.5" y2="30"/><line opacity="0.2" x1="356.89856529549" x2="356.89856529549" y1="0.5" y2="30"/><line opacity="0.2" x1="364.4531846605925" x2="364.4531846605925" y1="0.5" y2="30"/><line opacity="0.2" x1="243.07574578442834" x2="243.07574578442834" y1="0.5" y2="30"/><line opacity="0.2" x1="308.56165712896353" x2="308.56165712896353" y1="0.5" y2="30"/><line opacity="0.2" x1="282.2923264655802" x2="282.2923264655802" y1="0.5" y2="30"/><line opacity="0.2" x1="423.2294562724754" x2="423.2294562724754" y1="0.5" y2="30"/><line opacity="0.2" x1="139.48306063308252" x2="139.48306063308252" y1="0.5" y2="30"/><line opacity="0.2" x1="236.26785292858426" x2="236.26785292858426" y1="0.5" y2="30"/><line opacity="0.2" x1="298.49558956012766" x2="298.49558956012766" y1="0.5" y2="30"/><line opacity="0.2" x1="232.94165600622148" x2="232.94165600622148" y1="0.5" y2="30"/><line opacity="0.2" x1="371.84099176136255" x2="371.84099176136255" y1="0.5" y2="30"/><line opacity="0.2" x1="347.95121900686456" x2="347.95121900686456" y1="0.5" y2="30"/><line opacity="0.2" x1="399.43999504605245" x2="399.43999504605245" y1="0.5" y2="30"/><line opacity="0.2" x1="255.01126582613858" x2="255.01126582613858" y1="0.5" y2="30"/><line opacity="0.2" x1="393.7933502523004" x2="393.7933502523004" y1="0.5" y2="30"/><line opacity="0.2" x1="278.6182989790516" x2="278.6182989790516" y1="0.5" y2="30"/><line opacity="0.2" x1="365.1826753621387" x2="365.1826753621387" y1="0.5" y2="30"/><line opacity="0.2" x1="267.63702115190193" x2="267.63702115190193" y1="0.5" y2="30"/><line opacity="0.2" x1="254.04823922109114" x2="254.04823922109114" y1="0.5" y2="30"/><line opacity="0.2" x1="253.4272079315353" x2="253.4272079315353" y1="0.5" y2="30"/><line opacity="0.2" x1="353.8302213742707" x2="353.8302213742707" y1="0.5" y2="30"/><line opacity="0.2" x1="220.51041532080876" x2="220.51041532080876" y1="0.5" y2="30"/><line opacity="0.2" x1="341.3307591835887" x2="341.3307591835887" y1="0.5" y2="30"/><line opacity="0.2" x1="268.5005966304303" x2="268.5005966304303" y1="0.5" y2="30"/><line opacity="0.2" x1="305.4774270803349" x2="305.4774270803349" y1="0.5" y2="30"/><line opacity="0.2" x1="324.4027312386127" x2="324.4027312386127" y1="0.5" y2="30"/><line opacity="0.2" x1="176.07984550922376" x2="176.07984550922376" y1="0.5" y2="30"/><line opacity="0.2" x1="172.350279906279" x2="172.350279906279" y1="0.5" y2="30"/><line opacity="0.2" x1="393.3219474652521" x2="393.3219474652521" y1="0.5" y2="30"/><line opacity="0.2" x1="268.44373861020455" x2="268.44373861020455" y1="0.5" y2="30"/><line opacity="0.2" x1="297.1066390532449" x2="297.1066390532449" y1="0.5" y2="30"/><line opacity="0.2" x1="201.1296649371344" x2="201.1296649371344" y1="0.5" y2="30"/><line opacity="0.2" x1="342.3779257842494" x2="342.3779257842494" y1="0.5" y2="30"/><line opacity="0.2" x1="413.8072946231217" x2="413.8072946231217" y1="0.5" y2="30"/><line opacity="0.2" x1="332.551462248377" x2="332.551462248377" y1="0.5" y2="30"/><line opacity="0.2" x1="242.65890917226307" x2="242.65890917226307" y1="0.5" y2="30"/><line opacity="0.2" x1="234.512322744674" x2="234.512322744674" y1="0.5" y2="30"/><line opacity="0.2" x1="269.0125501691071" x2="269.0125501691071" y1="0.5" y2="30"/><line opacity="0.2" x1="329.84457429703815" x2="329.84457429703815" y1="0.5" y2="30"/><line opacity="0.2" x1="350.10326557163125" x2="350.10326557163125" y1="0.5" y2="30"/><line opacity="0.2" x1="418.7108453541151" x2="418.7108453541151" y1="0.5" y2="30"/><line opacity="0.2" x1="334.82375921799684" x2="334.82375921799684" y1="0.5" y2="30"/><line opacity="0.2" x1="281.389553843822" x2="281.389553843822" y1="0.5" y2="30"/><line opacity="0.2" x1="363.011011593856" x2="363.011011593856" y1="0.5" y2="30"/><line opacity="0.2" x1="341.5934246500559" x2="341.5934246500559" y1="0.5" y2="30"/><line opacity="0.2" x1="162.9020913826765" x2="162.9020913826765" y1="0.5" y2="30"/><line opacity="0.2" x1="229.3010066420913" x2="229.3010066420913" y1="0.5" y2="30"/><line opacity="0.2" x1="251.6018880938196" x2="251.6018880938196" y1="0.5" y2="30"/><line opacity="0.2" x1="341.4744864696358" x2="341.4744864696358" y1="0.5" y2="30"/><line opacity="0.2" x1="101.89941793099426" x2="101.89941793099426" y1="0.5" y2="30"/><line opacity="0.2" x1="318.74012210446483" x2="318.74012210446483" y1="0.5" y2="30"/><line opacity="0.2" x1="305.8347739059196" x2="305.8347739059196" y1="0.5" y2="30"/><line opacity="0.2" x1="257.78347094462003" x2="257.78347094462003" y1="0.5" y2="30"/><line opacity="0.2" x1="377.51533649125145" x2="377.51533649125145" y1="0.5" y2="30"/><line opacity="0.2" x1="338.32892883424284" x2="338.32892883424284" y1="0.5" y2="30"/><line opacity="0.2" x1="353.4609637170507" x2="353.4609637170507" y1="0.5" y2="30"/><line opacity="0.2" x1="268.3812771690235" x2="268.3812771690235" y1="0.5" y2="30"/><line opacity="0.2" x1="289.6724025299215" x2="289.6724025299215" y1="0.5" y2="30"/><line opacity="0.2" x1="265.546357916839" x2="265.546357916839" y1="0.5" y2="30"/><line opacity="0.2" x1="412.10711752389" x2="412.10711752389" y1="0.5" y2="30"/><line opacity="0.2" x1="420.9565601794884" x2="420.9565601794884" y1="0.5" y2="30"/><line opacity="0.2" x1="267.04811142362405" x2="267.04811142362405" y1="0.5" y2="30"/><line opacity="0.2" x1="273.0458845739555" x2="273.0458845739555" y1="0.5" y2="30"/><line opacity="0.2" x1="272.45282354744563" x2="272.45282354744563" y1="0.5" y2="30"/><line opacity="0.2" x1="445.86528718426024" x2="445.86528718426024" y1="0.5" y2="30"/><line opacity="0.2" x1="226.63113580473947" x2="226.63113580473947" y1="0.5" y2="30"/><line opacity="0.2" x1="556.4506695410735" x2="556.4506695410735" y1="0.5" y2="30"/><line opacity="0.2" x1="315.11404947920437" x2="315.11404947920437" y1="0.5" y2="30"/><line opacity="0.2" x1="384.2548096416874" x2="384.2548096416874" y1="0.5" y2="30"/><line opacity="0.2" x1="620" x2="620" y1="0.5" y2="30"/><line opacity="0.2" x1="298.03010289557614" x2="298.03010289557614" y1="0.5" y2="30"/><line opacity="0.2" x1="188.0761544140816" x2="188.0761544140816" y1="0.5" y2="30"/><line opacity="0.2" x1="234.2844365719842" x2="234.2844365719842" y1="0.5" y2="30"/><line opacity="0.2" x1="381.1514169059152" x2="381.1514169059152" y1="0.5" y2="30"/><line opacity="0.2" x1="191.38188657469925" x2="191.38188657469925" y1="0.5" y2="30"/><line opacity="0.2" x1="363.48893047096504" x2="363.48893047096504" y1="0.5" y2="30"/><line opacity="0.2" x1="191.1619985770067" x2="191.1619985770067" y1="0.5" y2="30"/><line opacity="0.2" x1="314.406185779108" x2="314.406185779108" y1="0.5" y2="30"/><line opacity="0.2" x1="199.0974161830609" x2="199.0974161830609" y1="0.5" y2="30"/><line opacity="0.2" x1="335.1646881717093" x2="335.1646881717093" y1="0.5" y2="30"/><line opacity="0.2" x1="489.9775363462372" x2="489.9775363462372" y1="0.5" y2="30"/><line opacity="0.2" x1="309.2051949425002" x2="309.2051949425002" y1="0.5" y2="30"/><line opacity="0.2" x1="229.685506620752" x2="229.685506620752" y1="0.5" y2="30"/><line opacity="0.2" x1="292.30235237280993" x2="292.30235237280993" y1="0.5" y2="30"/><line opacity="0.2" x1="346.7962600013033" x2="346.7962600013033" y1="0.5" y2="30"/><line opacity="0.2" x1="378.97710170812996" x2="378.97710170812996" y1="0.5" y2="30"/><line opacity="0.2" x1="344.94804390352516" x2="344.94804390352516" y1="0.5" y2="30"/><line opacity="0.2" x1="393.58514996032847" x2="393.58514996032847" y1="0.5" y2="30"/><line opacity="0.2" x1="297.2880394158257" x2="297.2880394158257" y1="0.5" y2="30"/><line opacity="0.2" x1="351.5567504763189" x2="351.5567504763189" y1="0.5" y2="30"/><line opacity="0.2" x1="288.6337466144098" x2="288.6337466144098" y1="0.5" y2="30"/><line opacity="0.2" x1="291.2391383252884" x2="291.2391383252884" y1="0.5" y2="30"/><line opacity="0.2" x1="150.72594317524712" x2="150.72594317524712" y1="0.5" y2="30"/><line opacity="0.2" x1="345.61325954549653" x2="345.61325954549653" y1="0.5" y2="30"/><line opacity="0.2" x1="376.125292451984" x2="376.125292451984" y1="0.5" y2="30"/><line opacity="0.2" x1="253.32882331410738" x2="253.32882331410738" y1="0.5" y2="30"/><line opacity="0.2" x1="359.6730510977511" x2="359.6730510977511" y1="0.5" y2="30"/><line opacity="0.2" x1="268.3487816771142" x2="268.3487816771142" y1="0.5" y2="30"/><line opacity="0.2" x1="445.25325625317885" x2="445.25325625317885" y1="0.5" y2="30"/><line opacity="0.2" x1="235.29995657356096" x2="235.29995657356096" y1="0.5" y2="30"/><line opacity="0.2" x1="420.38507729887596" x2="420.38507729887596" y1="0.5" y2="30"/><line opacity="0.2" x1="275.6757044049237" x2="275.6757044049237" y1="0.5" y2="30"/><line opacity="0.2" x1="198.99763967871158" x2="198.99763967871158" y1="0.5" y2="30"/><line opacity="0.2" x1="350.4305257874127" x2="350.4305257874127" y1="0.5" y2="30"/><line opacity="0.2" x1="383.5012755256216" x2="383.5012755256216" y1="0.5" y2="30"/><line opacity="0.2" x1="254.23033051263613" x2="254.23033051263613" y1="0.5" y2="30"/><line opacity="0.2" x1="208.9958969446939" x2="208.9958969446939" y1="0.5" y2="30"/><line opacity="0.2" x1="347.6083993768148" x2="347.6083993768148" y1="0.5" y2="30"/><line opacity="0.2" x1="390.33164197784305" x2="390.33164197784305" y1="0.5" y2="30"/><line opacity="0.2" x1="301.62815577712047" x2="301.62815577712047" y1="0.5" y2="30"/><line opacity="0.2" x1="315.98680062594957" x2="315.98680062594957" y1="0.5" y2="30"/><line opacity="0.2" x1="286.8797814314122" x2="286.8797814314122" y1="0.5" y2="30"/><line opacity="0.2" x1="179.33092782241334" x2="179.33092782241334" y1="0.5" y2="30"/><line opacity="0.2" x1="278.0688515510735" x2="278.0688515510735" y1="0.5" y2="30"/><line opacity="0.2" x1="353.57965056496107" x2="353.57965056496107" y1="0.5" y2="30"/></g></svg>