<svg xmlns="http://www.w3.org/2000/svg" xmlns:xlink="http://www.w3.org/1999/xlink" class="plot-2f6a3104e8bd4" fill="currentColor" font-family="system-ui, sans-serif" font-size="10" text-anchor="middle" width="640" height="60" viewBox="0 0 640 60" style="color: black;"><style>
        .plot-2f6a3104e8bd4 {
          display: block;
          background: white;
          height: auto;
          height: intrinsic;
          max-width: 100%;
        }
        .plot-2f6a3104e8bd4 text,
        .plot-2f6a3104e8bd4 tspan {
          white-space: pre;
        }
      </style><g aria-label="x-axis tick" fill="none" stroke="currentColor" transform="translate(0.5,0)"><path transform="translate(28.8462000583756,30)" d="M0,0L0,6"/><path transform="translate(126.67441980574984,30)" d="M0,0L0,6"/><path transform="translate(224.50263955312408,30)" d="M0,0L0,6"/><path transform="translate(322.3308593004983,30)" d="M0,0L0,6"/><path transform="translate(420.1590790478726,30)" d="M0,0L0,6"/><path transform="translate(517.9872987952467,30)" d="M0,0L0,6"/><path transform="translate(615.815518542621,30)" d="M0,0L0,6"/></g><g aria-label="x-axis tick label" font-variant="tabular-nums" transform="translate(0.5,9.5)"><text y="0.71em" transform="translate(28.8462000583756,30)">−3</text><text y="0.71em" transform="translate(126.67441980574984,30)">−2</text><text y="0.71em" transform="translate(224.50263955312408,30)">−1</text><text y="0.71em" transform="translate(322.3308593004983,30)">0</text><text y="0.71em" transform="translate(420.1590790478726,30)">1</text><text y="0.71em" transform="translate(517.9872987952467,30)">2</text><text y="0.71em" transform="translate(615.815518542621,30)">3</text></g><g aria-label="tick" stroke="steelblue" transform="translate(0.5,0)"><line opacity="0.2" x1="395.5701073154228" x2="395.5701073154228" y1="0" y2="30"/><line opacity="0.2" x1="129.3750457845463" x2="129.3750457845463" y1="0" y2="30"/><line opacity="0.2" x1="335.6190226965991" x2="335.6190226965991" y1="0" y2="30"/><line opacity="0.2" x1="285.02399793531345" x2="285.02399793531345" y1="0" y2="30"/><line opacity="0.2" x1="369.5552037776808" x2="369.5552037776808" y1="0" y2="30"/><line opacity="0.2" x1="329.51117185711496" x2="329.51117185711496" y1="0" y2="30"/><line opacity="0.2" x1="318.0750020754754" x2="318.0750020754754" y1="0" y2="30"/><line opacity="0.2" x1="246.1131058229689" x2="246.1131058229689" y1="0" y2="30"/><line opacity="0.2" x1="351.77255010359" x2="351.77255010359" y1="0" y2="30"/><line opacity="0.2" x1="354.5494525805252" x2="354.5494525805252" y1="0" y2="30"/><line opacity="0.2" x1="396.3782020529371" x2="396.3782020529371" y1="0" y2="30"/><line opacity="0.2" x1="328.3479802523032" x2="328.3479802523032" y1="0" y2="30"/><line opacity="0.2" x1="233.52047643573854" x2="233.52047643573854" y1="0" y2="30"/><line opacity="0.2" x1="363.5703003632605" x2="363.5703003632605" y1="0" y2="30"/><line opacity="0.2" x1="252.5386506795322" x2="252.5386506795322" y1="0" y2="30"/><line opacity="0.2" x1="323.0169278494467" x2="323.0169278494467" y1="0" y2="30"/><line opacity="0.2" x1="405.18110744642337" x2="405.18110744642337" y1="0" y2="30"/><line opacity="0.2" x1="362.11350952374016" x2="362.11350952374016" y1="0" y2="30"/><line opacity="0.2" x1="563.4699081777862" x2="563.4699081777862" y1="0" y2="30"/><line opacity="0.2" x1="262.1495850268175" x2="262.1495850268175" y1="0" y2="30"/><line opacity="0.2" x1="257.033378956013" x2="257.033378956013" y1="0" y2="30"/><line opacity="0.2" x1="103.08063610574587" x2="103.08063610574587" y1="0" y2="30"/><line opacity="0.2" x1="242.32947709927925" x2="242.32947709927925" y1="0" y2="30"/><line opacity="0.2" x1="278.11588585474027" x2="278.11588585474027" y1="0" y2="30"/><line opacity="0.2" x1="257.60532688851674" x2="257.60532688851674" y1="0" y2="30"/><line opacity="0.2" x1="328.0660970398212" x2="328.0660970398212" y1="0" y2="30"/><line opacity="0.2" x1="393.931130636804" x2="393.931130636804" y1="0" y2="30"/><line opacity="0.2" x1="371.01840409566813" x2="371.01840409566813" y1="0" y2="30"/><line opacity="0.2" x1="238.4696939700646" x2="238.4696939700646" y1="0" y2="30"/><line opacity="0.2" x1="388.23370364518235" x2="388.23370364518235" y1="0" y2="30"/><line opacity="0.2" x1="250.4285811462609" x2="250.4285811462609" y1="0" y2="30"/><line opacity="0.2" x1="478.2155419138218" x2="478.2155419138218" y1="0" y2="30"/><line opacity="0.2" x1="134.04973371562428" x2="134.04973371562428" y1="0" y2="30"/><line opacity="0.2" x1="593.0022955585299" x2="593.0022955585299" y1="0" y2="30"/><line opacity="0.2" x1="286.3298196553586" x2="286.3298196553586" y1="0" y2="30"/><line opacity="0.2" x1="230.34459218399564" x2="230.34459218399564" y1="0" y2="30"/><line opacity="0.2" x1="352.9584012469426" x2="352.9584012469426" y1="0" y2="30"/><line opacity="0.2" x1="402.1553366464665" x2="402.1553366464665" y1="0" y2="30"/><line opacity="0.2" x1="281.64447984038014" x2="281.64447984038014" y1="0" y2="30"/><line opacity="0.2" x1="252.41898791460034" x2="252.41898791460034" y1="0" y2="30"/><line opacity="0.2" x1="311.0285324800321" x2="311.0285324800321" y1="0" y2="30"/><line opacity="0.2" x1="395.1012327497233" x2="395.1012327497233" y1="0" y2="30"/><line opacity="0.2" x1="251.14323022667037" x2="251.14323022667037" y1="0" y2="30"/><line opacity="0.2" x1="370.0969911832392" x2="370.0969911832392" y1="0" y2="30"/><line opacity="0.2" x1="334.72599466686734" x2="334.72599466686734" y1="0" y2="30"/><line opacity="0.2" x1="263.6231799068506" x2="263.6231799068506" y1="0" y2="30"/><line opacity="0.2" x1="278.65440531896263" x2="278.65440531896263" y1="0" y2="30"/><line opacity="0.2" x1="245.7176518927542" x2="245.7176518927542" y1="0" y2="30"/><line opacity="0.2" x1="366.7527851764354" x2="366.7527851764354" y1="0" y2="30"/><line opacity="0.2" x1="374.1204379593723" x2="374.1204379593723" y1="0" y2="30"/><line opacity="0.2" x1="232.2856088234169" x2="232.2856088234169" y1="0" y2="30"/><line opacity="0.2" x1="413.7989526123002" x2="413.7989526123002" y1="0" y2="30"/><line opacity="0.2" x1="324.43056817533085" x2="324.43056817533085" y1="0" y2="30"/><line opacity="0.2" x1="313.2471721254946" x2="313.2471721254946" y1="0" y2="30"/><line opacity="0.2" x1="202.57175131424793" x2="202.57175131424793" y1="0" y2="30"/><line opacity="0.2" x1="420.0037974522548" x2="420.0037974522548" y1="0" y2="30"/><line opacity="0.2" x1="183.7106481795811" x2="183.7106481795811" y1="0" y2="30"/><line opacity="0.2" x1="291.9770289073859" x2="291.9770289073859" y1="0" y2="30"/><line opacity="0.2" x1="536.1564664382971" x2="536.1564664382971" y1="0" y2="30"/><line opacity="0.2" x1="327.41544275807973" x2="327.41544275807973" y1="0" y2="30"/><line opacity="0.2" x1="353.6489712103133" x2="353.6489712103133" y1="0" y2="30"/><line opacity="0.2" x1="279.29027057722334" x2="279.29027057722334" y1="0" y2="30"/><line opacity="0.2" x1="523.3421129655378" x2="523.3421129655378" y1="0" y2="30"/><line opacity="0.2" x1="186.84104100102488" x2="186.84104100102488" y1="0" y2="30"/><line opacity="0.2" x1="186.40428947179146" x2="186.40428947179146" y1="0" y2="30"/><line opacity="0.2" x1="296.7921328962473" x2="296.7921328962473" y1="0" y2="30"/><line opacity="0.2" x1="322.2826157144418" x2="322.2826157144418" y1="0" y2="30"/><line opacity="0.2" x1="490.79993047769847" x2="490.79993047769847" y1="0" y2="30"/><line opacity="0.2" x1="377.5433277136777" x2="377.5433277136777" y1="0" y2="30"/><line opacity="0.2" x1="281.09860417090516" x2="281.09860417090516" y1="0" y2="30"/><line opacity="0.2" x1="412.26146973866906" x2="412.26146973866906" y1="0" y2="30"/><line opacity="0.2" x1="133.38701339055714" x2="133.38701339055714" y1="0" y2="30"/><line opacity="0.2" x1="329.34476239036417" x2="329.34476239036417" y1="0" y2="30"/><line opacity="0.2" x1="242.19543689822103" x2="242.19543689822103" y1="0" y2="30"/><line opacity="0.2" x1="488.2394308870686" x2="488.2394308870686" y1="0" y2="30"/><line opacity="0.2" x1="424.36467601694426" x2="424.36467601694426" y1="0" y2="30"/><line opacity="0.2" x1="237.08384470000954" x2="237.08384470000954" y1="0" y2="30"/><line opacity="0.2" x1="460.7175664665555" x2="460.7175664665555" y1="0" y2="30"/><line opacity="0.2" x1="210.64635535758893" x2="210.64635535758893" y1="0" y2="30"/><line opacity="0.2" x1="278.0818540808647" x2="278.0818540808647" y1="0" y2="30"/><line opacity="0.2" x1="484.6912332783846" x2="484.6912332783846" y1="0" y2="30"/><line opacity="0.2" x1="371.33580172400275" x2="371.33580172400275" y1="0" y2="30"/><line opacity="0.2" x1="244.47833225877284" x2="244.47833225877284" y1="0" y2="30"/><line opacity="0.2" x1="375.6574682607183" x2="375.6574682607183" y1="0" y2="30"/><line opacity="0.2" x1="364.83317537625305" x2="364.83317537625305" y1="0" y2="30"/><line opacity="0.2" x1="449.196409132013" x2="449.196409132013" y1="0" y2="30"/><line opacity="0.2" x1="391.0163234618586" x2="391.0163234618586" y1="0" y2="30"/><line opacity="0.2" x1="193.64936288845706" x2="193.64936288845706" y1="0" y2="30"/><line opacity="0.2" x1="290.88825075355516" x2="290.88825075355516" y1="0" y2="30"/><line opacity="0.2" x1="369.3805165919254" x2="369.3805165919254" y1="0" y2="30"/><line opacity="0.2" x1="263.92204791655706" x2="263.92204791655706" y1="0" y2="30"/><line opacity="0.2" x1="386.7620645728405" x2="386.7620645728405" y1="0" y2="30"/><line opacity="0.2" x1="436.6802561590822" x2="436.6802561590822" y1="0" y2="30"/><line opacity="0.2" x1="259.1301179750549" x2="259.1301179750549" y1="0" y2="30"/><line opacity="0.2" x1="385.76246335877414" x2="385.76246335877414" y1="0" y2="30"/><line opacity="0.2" x1="288.2079012904697" x2="288.2079012904697" y1="0" y2="30"/><line opacity="0.2" x1="247.76889192207125" x2="247.76889192207125" y1="0" y2="30"/><line opacity="0.2" x1="326.7659864707675" x2="326.7659864707675" y1="0" y2="30"/><line opacity="0.2" x1="340.0362218951966" x2="340.0362218951966" y1="0" y2="30"/><line opacity="0.2" x1="572.1925479172654" x2="572.1925479172654" y1="0" y2="30"/><line opacity="0.2" x1="338.1058421194028" x2="338.1058421194028" y1="0" y2="30"/><line opacity="0.2" x1="189.05405323799255" x2="189.05405323799255" y1="0" y2="30"/><line opacity="0.2" x1="307.5148319158868" x2="307.5148319158868" y1="0" y2="30"/><line opacity="0.2" x1="352.19632198624487" x2="352.19632198624487" y1="0" y2="30"/><line opacity="0.2" x1="437.01285245292604" x2="437.01285245292604" y1="0" y2="30"/><line opacity="0.2" x1="440.0141504046911" x2="440.0141504046911" y1="0" y2="30"/><line opacity="0.2" x1="311.3588994176188" x2="311.3588994176188" y1="0" y2="30"/><line opacity="0.2" x1="372.62852630867496" x2="372.62852630867496" y1="0" y2="30"/><line opacity="0.2" x1="554.4930513200338" x2="554.4930513200338" y1="0" y2="30"/><line opacity="0.2" x1="497.12148078726335" x2="497.12148078726335" y1="0" y2="30"/><line opacity="0.2" x1="391.89667512210883" x2="391.89667512210883" y1="0" y2="30"/><line opacity="0.2" x1="411.47966621570123" x2="411.47966621570123" y1="0" y2="30"/><line opacity="0.2" x1="364.5884567754554" x2="364.5884567754554" y1="0" y2="30"/><line opacity="0.2" x1="281.84453858703614" x2="281.84453858703614" y1="0" y2="30"/><line opacity="0.2" x1="389.1238004041352" x2="389.1238004041352" y1="0" y2="30"/><line opacity="0.2" x1="400.3346468135191" x2="400.3346468135191" y1="0" y2="30"/><line opacity="0.2" x1="410.0429176351297" x2="410.0429176351297" y1="0" y2="30"/><line opacity="0.2" x1="499.3304575396877" x2="499.3304575396877" y1="0" y2="30"/><line opacity="0.2" x1="383.37926228336653" x2="383.37926228336653" y1="0" y2="30"/><line opacity="0.2" x1="487.3598070520968" x2="487.3598070520968" y1="0" y2="30"/><line opacity="0.2" x1="356.2041262965962" x2="356.2041262965962" y1="0" y2="30"/><line opacity="0.2" x1="238.54246468659443" x2="238.54246468659443" y1="0" y2="30"/><line opacity="0.2" x1="334.6003409304901" x2="334.6003409304901" y1="0" y2="30"/><line opacity="0.2" x1="403.333129390029" x2="403.333129390029" y1="0" y2="30"/><line opacity="0.2" x1="354.82156278678326" x2="354.82156278678326" y1="0" y2="30"/><line opacity="0.2" x1="350.06520320744835" x2="350.06520320744835" y1="0" y2="30"/><line opacity="0.2" x1="284.9931804472581" x2="284.9931804472581" y1="0" y2="30"/><line opacity="0.2" x1="311.8376438625211" x2="311.8376438625211" y1="0" y2="30"/><line opacity="0.2" x1="286.2575502844065" x2="286.2575502844065" y1="0" y2="30"/><line opacity="0.2" x1="253.05767467574253" x2="253.05767467574253" y1="0" y2="30"/><line opacity="0.2" x1="333.9593307191798" x2="333.9593307191798" y1="0" y2="30"/><line opacity="0.2" x1="445.63233232777236" x2="445.63233232777236" y1="0" y2="30"/><line opacity="0.2" x1="450.816149486368" x2="450.816149486368" y1="0" y2="30"/><line opacity="0.2" x1="289.15333745090186" x2="289.15333745090186" y1="0" y2="30"/><line opacity="0.2" x1="339.9165649749143" x2="339.9165649749143" y1="0" y2="30"/><line opacity="0.2" x1="273.79374210840695" x2="273.79374210840695" y1="0" y2="30"/><line opacity="0.2" x1="390.80385664505343" x2="390.80385664505343" y1="0" y2="30"/><line opacity="0.2" x1="389.2088422799098" x2="389.2088422799098" y1="0" y2="30"/><line opacity="0.2" x1="330.67880836594355" x2="330.67880836594355" y1="0" y2="30"/><line opacity="0.2" x1="320.4237957507155" x2="320.4237957507155" y1="0" y2="30"/><line opacity="0.2" x1="278.22560976280903" x2="278.22560976280903" y1="0" y2="30"/><line opacity="0.2" x1="221.64532465295034" x2="221.64532465295034" y1="0" y2="30"/><line opacity="0.2" x1="340.70607894282574" x2="340.70607894282574" y1="0" y2="30"/><line opacity="0.2" x1="193.0306118941069" x2="193.0306118941069" y1="0" y2="30"/><line opacity="0.2" x1="276.46438660855836" x2="276.46438660855836" y1="0" y2="30"/><line opacity="0.2" x1="156.23246277842307" x2="156.23246277842307" y1="0" y2="30"/><line opacity="0.2" x1="404.7447945418626" x2="404.7447945418626" y1="0" y2="30"/><line opacity="0.2" x1="357.279301738055" x2="357.279301738055" y1="0" y2="30"/><line opacity="0.2" x1="519.1491788145543" x2="519.1491788145543" y1="0" y2="30"/><line opacity="0.2" x1="381.1824962283624" x2="381.1824962283624" y1="0" y2="30"/><line opacity="0.2" x1="380.4450811007498" x2="380.4450811007498" y1="0" y2="30"/><line opacity="0.2" x1="292.9601768567703" x2="292.9601768567703" y1="0" y2="30"/><line opacity="0.2" x1="72.9681371330648" x2="72.9681371330648" y1="0" y2="30"/><line opacity="0.2" x1="344.6511346822261" x2="344.6511346822261" y1="0" y2="30"/><line opacity="0.2" x1="441.654930129367" x2="441.654930129367" y1="0" y2="30"/><line opacity="0.2" x1="362.726534711128" x2="362.726534711128" y1="0" y2="30"/><line opacity="0.2" x1="332.8142978581378" x2="332.8142978581378" y1="0" y2="30"/><line opacity="0.2" x1="425.05920880566555" x2="425.05920880566555" y1="0" y2="30"/><line opacity="0.2" x1="233.66330360800796" x2="233.66330360800796" y1="0" y2="30"/><line opacity="0.2" x1="337.6176756681843" x2="337.6176756681843" y1="0" y2="30"/><line opacity="0.2" x1="363.8863805140251" x2="363.8863805140251" y1="0" y2="30"/><line opacity="0.2" x1="390.6288067150444" x2="390.6288067150444" y1="0" y2="30"/><line opacity="0.2" x1="189.63276387076738" x2="189.63276387076738" y1="0" y2="30"/><line opacity="0.2" x1="414.2428510837864" x2="414.2428510837864" y1="0" y2="30"/><line opacity="0.2" x1="576.718792665023" x2="576.718792665023" y1="0" y2="30"/><line opacity="0.2" x1="253.65173972540958" x2="253.65173972540958" y1="0" y2="30"/><line opacity="0.2" x1="391.03547833798996" x2="391.03547833798996" y1="0" y2="30"/><line opacity="0.2" x1="367.66872778410834" x2="367.66872778410834" y1="0" y2="30"/><line opacity="0.2" x1="173.31455172788583" x2="173.31455172788583" y1="0" y2="30"/><line opacity="0.2" x1="433.18648660626826" x2="433.18648660626826" y1="0" y2="30"/><line opacity="0.2" x1="351.2621640212263" x2="351.2621640212263" y1="0" y2="30"/><line opacity="0.2" x1="409.756912343893" x2="409.756912343893" y1="0" y2="30"/><line opacity="0.2" x1="174.1672383692876" x2="174.1672383692876" y1="0" y2="30"/><line opacity="0.2" x1="333.727914666512" x2="333.727914666512" y1="0" y2="30"/><line opacity="0.2" x1="195.30282932437223" x2="195.30282932437223" y1="0" y2="30"/><line opacity="0.2" x1="471.26663321609055" x2="471.26663321609055" y1="0" y2="30"/><line opacity="0.2" x1="126.9019207151538" x2="126.9019207151538" y1="0" y2="30"/><line opacity="0.2" x1="382.33038628119004" x2="382.33038628119004" y1="0" y2="30"/><line opacity="0.2" x1="423.94154501633943" x2="423.94154501633943" y1="0" y2="30"/><line opacity="0.2" x1="363.8916402468575" x2="363.8916402468575" y1="0" y2="30"/><line opacity="0.2" x1="250.2210836580894" x2="250.2210836580894" y1="0" y2="30"/><line opacity="0.2" x1="280.5365412957338" x2="280.5365412957338" y1="0" y2="30"/><line opacity="0.2" x1="258.68146860980903" x2="258.68146860980903" y1="0" y2="30"/><line opacity="0.2" x1="242.5287026522114" x2="242.5287026522114" y1="0" y2="30"/><line opacity="0.2" x1="388.39089920692317" x2="388.39089920692317" y1="0" y2="30"/><line opacity="0.2" x1="420.0566674845872" x2="420.0566674845872" y1="0" y2="30"/><line opacity="0.2" x1="582.8478969927332" x2="582.8478969927332" y1="0" y2="30"/><line opacity="0.2" x1="236.8116913511036" x2="236.8116913511036" y1="0" y2="30"/><line opacity="0.2" x1="344.5295816216839" x2="344.5295816216839" y1="0" y2="30"/><line opacity="0.2" x1="267.2803164861028" x2="267.2803164861028" y1="0" y2="30"/><line opacity="0.2" x1="284.78900001673367" x2="284.78900001673367" y1="0" y2="30"/><line opacity="0.2" x1="297.7966125901523" x2="297.7966125901523" y1="0" y2="30"/><line opacity="0.2" x1="505.2267761805135" x2="505.2267761805135" y1="0" y2="30"/><line opacity="0.2" x1="201.4737708687175" x2="201.4737708687175" y1="0" y2="30"/><line opacity="0.2" x1="316.6033051183891" x2="316.6033051183891" y1="0" y2="30"/><line opacity="0.2" x1="156.38564856562823" x2="156.38564856562823" y1="0" y2="30"/><line opacity="0.2" x1="273.78569629376545" x2="273.78569629376545" y1="0" y2="30"/><line opacity="0.2" x1="386.12194374278204" x2="386.12194374278204" y1="0" y2="30"/><line opacity="0.2" x1="375.35509414319915" x2="375.35509414319915" y1="0" y2="30"/><line opacity="0.2" x1="432.834086730158" x2="432.834086730158" y1="0" y2="30"/><line opacity="0.2" x1="517.8876601831579" x2="517.8876601831579" y1="0" y2="30"/><line opacity="0.2" x1="467.1433458907579" x2="467.1433458907579" y1="0" y2="30"/><line opacity="0.2" x1="122.16931431227827" x2="122.16931431227827" y1="0" y2="30"/><line opacity="0.2" x1="199.09412084525107" x2="199.09412084525107" y1="0" y2="30"/><line opacity="0.2" x1="313.0250656326337" x2="313.0250656326337" y1="0" y2="30"/><line opacity="0.2" x1="193.4309941538459" x2="193.4309941538459" y1="0" y2="30"/><line opacity="0.2" x1="376.83320366724917" x2="376.83320366724917" y1="0" y2="30"/><line opacity="0.2" x1="165.25568131938448" x2="165.25568131938448" y1="0" y2="30"/><line opacity="0.2" x1="440.81501938979306" x2="440.81501938979306" y1="0" y2="30"/><line opacity="0.2" x1="267.6634373905123" x2="267.6634373905123" y1="0" y2="30"/><line opacity="0.2" x1="295.6978803098457" x2="295.6978803098457" y1="0" y2="30"/><line opacity="0.2" x1="235.74133486072432" x2="235.74133486072432" y1="0" y2="30"/><line opacity="0.2" x1="413.0870051363746" x2="413.0870051363746" y1="0" y2="30"/><line opacity="0.2" x1="347.6764628061685" x2="347.6764628061685" y1="0" y2="30"/><line opacity="0.2" x1="217.98148379365793" x2="217.98148379365793" y1="0" y2="30"/><line opacity="0.2" x1="328.93613119875414" x2="328.93613119875414" y1="0" y2="30"/><line opacity="0.2" x1="377.8626105303425" x2="377.8626105303425" y1="0" y2="30"/><line opacity="0.2" x1="362.900225529184" x2="362.900225529184" y1="0" y2="30"/><line opacity="0.2" x1="324.8547100047051" x2="324.8547100047051" y1="0" y2="30"/><line opacity="0.2" x1="401.1956179299925" x2="401.1956179299925" y1="0" y2="30"/><line opacity="0.2" x1="379.31261020241664" x2="379.31261020241664" y1="0" y2="30"/><line opacity="0.2" x1="346.1977103772077" x2="346.1977103772077" y1="0" y2="30"/><line opacity="0.2" x1="389.42266259334605" x2="389.42266259334605" y1="0" y2="30"/><line opacity="0.2" x1="145.39303121159088" x2="145.39303121159088" y1="0" y2="30"/><line opacity="0.2" x1="248.5850599220961" x2="248.5850599220961" y1="0" y2="30"/><line opacity="0.2" x1="303.78840787071823" x2="303.78840787071823" y1="0" y2="30"/><line opacity="0.2" x1="138.22620694171263" x2="138.22620694171263" y1="0" y2="30"/><line opacity="0.2" x1="381.26743953050646" x2="381.26743953050646" y1="0" y2="30"/><line opacity="0.2" x1="321.3632516228465" x2="321.3632516228465" y1="0" y2="30"/><line opacity="0.2" x1="320.9388184066122" x2="320.9388184066122" y1="0" y2="30"/><line opacity="0.2" x1="88.54728511021156" x2="88.54728511021156" y1="0" y2="30"/><line opacity="0.2" x1="332.69992449294415" x2="332.69992449294415" y1="0" y2="30"/><line opacity="0.2" x1="220.35901496106976" x2="220.35901496106976" y1="0" y2="30"/><line opacity="0.2" x1="245.68235711607235" x2="245.68235711607235" y1="0" y2="30"/><line opacity="0.2" x1="353.60671786324" x2="353.60671786324" y1="0" y2="30"/><line opacity="0.2" x1="183.37517166769334" x2="183.37517166769334" y1="0" y2="30"/><line opacity="0.2" x1="250.18399270079894" x2="250.18399270079894" y1="0" y2="30"/><line opacity="0.2" x1="353.9295241206875" x2="353.9295241206875" y1="0" y2="30"/><line opacity="0.2" x1="419.2737315240247" x2="419.2737315240247" y1="0" y2="30"/><line opacity="0.2" x1="259.00759412834054" x2="259.00759412834054" y1="0" y2="30"/><line opacity="0.2" x1="288.9630619019126" x2="288.9630619019126" y1="0" y2="30"/><line opacity="0.2" x1="368.64778792297886" x2="368.64778792297886" y1="0" y2="30"/><line opacity="0.2" x1="278.1498499706564" x2="278.1498499706564" y1="0" y2="30"/><line opacity="0.2" x1="259.2619160270334" x2="259.2619160270334" y1="0" y2="30"/><line opacity="0.2" x1="143.3102484849273" x2="143.3102484849273" y1="0" y2="30"/><line opacity="0.2" x1="228.30142748624888" x2="228.30142748624888" y1="0" y2="30"/><line opacity="0.2" x1="422.5402094300539" x2="422.5402094300539" y1="0" y2="30"/><line opacity="0.2" x1="118.91602072432235" x2="118.91602072432235" y1="0" y2="30"/><line opacity="0.2" x1="359.291347883614" x2="359.291347883614" y1="0" y2="30"/><line opacity="0.2" x1="292.38657601600227" x2="292.38657601600227" y1="0" y2="30"/><line opacity="0.2" x1="242.0164315089949" x2="242.0164315089949" y1="0" y2="30"/><line opacity="0.2" x1="278.85169638818627" x2="278.85169638818627" y1="0" y2="30"/><line opacity="0.2" x1="345.93226343321464" x2="345.93226343321464" y1="0" y2="30"/><line opacity="0.2" x1="39.86740616260484" x2="39.86740616260484" y1="0" y2="30"/><line opacity="0.2" x1="217.58323720904232" x2="217.58323720904232" y1="0" y2="30"/><line opacity="0.2" x1="317.27934622576646" x2="317.27934622576646" y1="0" y2="30"/><line opacity="0.2" x1="283.7832368198921" x2="283.7832368198921" y1="0" y2="30"/><line opacity="0.2" x1="333.43913565376204" x2="333.43913565376204" y1="0" y2="30"/><line opacity="0.2" x1="283.3407986461132" x2="283.3407986461132" y1="0" y2="30"/><line opacity="0.2" x1="337.1455507495536" x2="337.1455507495536" y1="0" y2="30"/><line opacity="0.2" x1="493.37168668722376" x2="493.37168668722376" y1="0" y2="30"/><line opacity="0.2" x1="246.32120261088193" x2="246.32120261088193" y1="0" y2="30"/><line opacity="0.2" x1="261.9070154492756" x2="261.9070154492756" y1="0" y2="30"/><line opacity="0.2" x1="354.313772133508" x2="354.313772133508" y1="0" y2="30"/><line opacity="0.2" x1="408.69179367591016" x2="408.69179367591016" y1="0" y2="30"/><line opacity="0.2" x1="372.64513075809396" x2="372.64513075809396" y1="0" y2="30"/><line opacity="0.2" x1="439.144701101406" x2="439.144701101406" y1="0" y2="30"/><line opacity="0.2" x1="248.1598466391084" x2="248.1598466391084" y1="0" y2="30"/><line opacity="0.2" x1="404.379704686249" x2="404.379704686249" y1="0" y2="30"/><line opacity="0.2" x1="135.55426406186226" x2="135.55426406186226" y1="0" y2="30"/><line opacity="0.2" x1="379.0604301336069" x2="379.0604301336069" y1="0" y2="30"/><line opacity="0.2" x1="357.495525110704" x2="357.495525110704" y1="0" y2="30"/><line opacity="0.2" x1="394.7170863490076" x2="394.7170863490076" y1="0" y2="30"/><line opacity="0.2" x1="232.77316325519686" x2="232.77316325519686" y1="0" y2="30"/><line opacity="0.2" x1="421.6050790716345" x2="421.6050790716345" y1="0" y2="30"/><line opacity="0.2" x1="457.4475199568681" x2="457.4475199568681" y1="0" y2="30"/><line opacity="0.2" x1="404.47502692997693" x2="404.47502692997693" y1="0" y2="30"/><line opacity="0.2" x1="300.67052628267174" x2="300.67052628267174" y1="0" y2="30"/><line opacity="0.2" x1="416.31175336771213" x2="416.31175336771213" y1="0" y2="30"/><line opacity="0.2" x1="261.80195918328064" x2="261.80195918328064" y1="0" y2="30"/><line opacity="0.2" x1="339.22884761131934" x2="339.22884761131934" y1="0" y2="30"/><line opacity="0.2" x1="419.62316454102466" x2="419.62316454102466" y1="0" y2="30"/><line opacity="0.2" x1="364.0725452091613" x2="364.0725452091613" y1="0" y2="30"/><line opacity="0.2" x1="276.33039261476944" x2="276.33039261476944" y1="0" y2="30"/><line opacity="0.2" x1="334.37494287938944" x2="334.37494287938944" y1="0" y2="30"/><line opacity="0.2" x1="427.5541351702779" x2="427.5541351702779" y1="0" y2="30"/><line opacity="0.2" x1="440.40159215648134" x2="440.40159215648134" y1="0" y2="30"/><line opacity="0.2" x1="137.71309028368034" x2="137.71309028368034" y1="0" y2="30"/><line opacity="0.2" x1="300.28391958962106" x2="300.28391958962106" y1="0" y2="30"/><line opacity="0.2" x1="314.16896019211964" x2="314.16896019211964" y1="0" y2="30"/><line opacity="0.2" x1="333.08882975007776" x2="333.08882975007776" y1="0" y2="30"/><line opacity="0.2" x1="371.9795752202953" x2="371.9795752202953" y1="0" y2="30"/><line opacity="0.2" x1="331.74866580696306" x2="331.74866580696306" y1="0" y2="30"/><line opacity="0.2" x1="620" x2="620" y1="0" y2="30"/><line opacity="0.2" x1="348.8747907573533" x2="348.8747907573533" y1="0" y2="30"/><line opacity="0.2" x1="356.274547133306" x2="356.274547133306" y1="0" y2="30"/><line opacity="0.2" x1="373.8768626808576" x2="373.8768626808576" y1="0" y2="30"/><line opacity="0.2" x1="383.0109242289376" x2="383.0109242289376" y1="0" y2="30"/><line opacity="0.2" x1="239.94240100479894" x2="239.94240100479894" y1="0" y2="30"/><line opacity="0.2" x1="307.00838461836463" x2="307.00838461836463" y1="0" y2="30"/><line opacity="0.2" x1="341.83435222589674" x2="341.83435222589674" y1="0" y2="30"/><line opacity="0.2" x1="53.19141346899286" x2="53.19141346899286" y1="0" y2="30"/><line opacity="0.2" x1="232.24173805859044" x2="232.24173805859044" y1="0" y2="30"/><line opacity="0.2" x1="339.29764774745433" x2="339.29764774745433" y1="0" y2="30"/><line opacity="0.2" x1="241.11702488974646" x2="241.11702488974646" y1="0" y2="30"/><line opacity="0.2" x1="250.64294790842143" x2="250.64294790842143" y1="0" y2="30"/><line opacity="0.2" x1="288.9081712486451" x2="288.9081712486451" y1="0" y2="30"/><line opacity="0.2" x1="486.21287048604853" x2="486.21287048604853" y1="0" y2="30"/><line opacity="0.2" x1="368.259966585176" x2="368.259966585176" y1="0" y2="30"/><line opacity="0.2" x1="320.45867428490885" x2="320.45867428490885" y1="0" y2="30"/><line opacity="0.2" x1="282.26117998488445" x2="282.26117998488445" y1="0" y2="30"/><line opacity="0.2" x1="351.6044036263811" x2="351.6044036263811" y1="0" y2="30"/><line opacity="0.2" x1="206.7602783777466" x2="206.7602783777466" y1="0" y2="30"/><line opacity="0.2" x1="270.3086784067172" x2="270.3086784067172" y1="0" y2="30"/><line opacity="0.2" x1="312.46680942026194" x2="312.46680942026194" y1="0" y2="30"/><line opacity="0.2" x1="129.61854596707755" x2="129.61854596707755" y1="0" y2="30"/><line opacity="0.2" x1="363.1167939351393" x2="363.1167939351393" y1="0" y2="30"/><line opacity="0.2" x1="161.61217099419684" x2="161.61217099419684" y1="0" y2="30"/><line opacity="0.2" x1="388.8235856435866" x2="388.8235856435866" y1="0" y2="30"/><line opacity="0.2" x1="215.9691312672282" x2="215.9691312672282" y1="0" y2="30"/><line opacity="0.2" x1="361.3463204155795" x2="361.3463204155795" y1="0" y2="30"/><line opacity="0.2" x1="279.3265850816378" x2="279.3265850816378" y1="0" y2="30"/><line opacity="0.2" x1="395.78900673182864" x2="395.78900673182864" y1="0" y2="30"/><line opacity="0.2" x1="457.5939490552544" x2="457.5939490552544" y1="0" y2="30"/><line opacity="0.2" x1="252.55397881971493" x2="252.55397881971493" y1="0" y2="30"/><line opacity="0.2" x1="323.59580026925937" x2="323.59580026925937" y1="0" y2="30"/><line opacity="0.2" x1="426.12569734170546" x2="426.12569734170546" y1="0" y2="30"/><line opacity="0.2" x1="186.5480544135843" x2="186.5480544135843" y1="0" y2="30"/><line opacity="0.2" x1="538.6372999457565" x2="538.6372999457565" y1="0" y2="30"/><line opacity="0.2" x1="270.4543281554289" x2="270.4543281554289" y1="0" y2="30"/><line opacity="0.2" x1="275.4132339206068" x2="275.4132339206068" y1="0" y2="30"/><line opacity="0.2" x1="201.47157346770817" x2="201.47157346770817" y1="0" y2="30"/><line opacity="0.2" x1="195.8356884874108" x2="195.8356884874108" y1="0" y2="30"/><line opacity="0.2" x1="240.01137766190558" x2="240.01137766190558" y1="0" y2="30"/><line opacity="0.2" x1="251.20806629563154" x2="251.20806629563154" y1="0" y2="30"/><line opacity="0.2" x1="397.64107605075867" x2="397.64107605075867" y1="0" y2="30"/><line opacity="0.2" x1="272.7524531700652" x2="272.7524531700652" y1="0" y2="30"/><line opacity="0.2" x1="218.07683837259952" x2="218.07683837259952" y1="0" y2="30"/><line opacity="0.2" x1="305.80652183088415" x2="305.80652183088415" y1="0" y2="30"/><line opacity="0.2" x1="487.3236822719763" x2="487.3236822719763" y1="0" y2="30"/><line opacity="0.2" x1="253.5444802793673" x2="253.5444802793673" y1="0" y2="30"/><line opacity="0.2" x1="344.87437453885786" x2="344.87437453885786" y1="0" y2="30"/><line opacity="0.2" x1="334.99297859599517" x2="334.99297859599517" y1="0" y2="30"/><line opacity="0.2" x1="432.29266609600563" x2="432.29266609600563" y1="0" y2="30"/><line opacity="0.2" x1="208.71891513813318" x2="208.71891513813318" y1="0" y2="30"/><line opacity="0.2" x1="259.4931885369246" x2="259.4931885369246" y1="0" y2="30"/><line opacity="0.2" x1="301.4879315874106" x2="301.4879315874106" y1="0" y2="30"/><line opacity="0.2" x1="329.01888342769684" x2="329.01888342769684" y1="0" y2="30"/><line opacity="0.2" x1="178.16592197451587" x2="178.16592197451587" y1="0" y2="30"/><line opacity="0.2" x1="480.5833052139597" x2="480.5833052139597" y1="0" y2="30"/><line opacity="0.2" x1="268.0385998752776" x2="268.0385998752776" y1="0" y2="30"/><line opacity="0.2" x1="254.84665508807913" x2="254.84665508807913" y1="0" y2="30"/><line opacity="0.2" x1="214.79805285587562" x2="214.79805285587562" y1="0" y2="30"/><line opacity="0.2" x1="220.0022548354391" x2="220.0022548354391" y1="0" y2="30"/><line opacity="0.2" x1="332.7846608627655" x2="332.7846608627655" y1="0" y2="30"/><line opacity="0.2" x1="183.7321449383862" x2="183.7321449383862" y1="0" y2="30"/><line opacity="0.2" x1="316.87287766908753" x2="316.87287766908753" y1="0" y2="30"/><line opacity="0.2" x1="287.156122414248" x2="287.156122414248" y1="0" y2="30"/><line opacity="0.2" x1="290.01237687619897" x2="290.01237687619897" y1="0" y2="30"/><line opacity="0.2" x1="414.99189350299747" x2="414.99189350299747" y1="0" y2="30"/><line opacity="0.2" x1="443.57347829435906" x2="443.57347829435906" y1="0" y2="30"/><line opacity="0.2" x1="394.59265796343317" x2="394.59265796343317" y1="0" y2="30"/><line opacity="0.2" x1="379.50837764472993" x2="379.50837764472993" y1="0" y2="30"/><line opacity="0.2" x1="345.9939809569725" x2="345.9939809569725" y1="0" y2="30"/><line opacity="0.2" x1="314.02848425180383" x2="314.02848425180383" y1="0" y2="30"/><line opacity="0.2" x1="404.60937402682873" x2="404.60937402682873" y1="0" y2="30"/><line opacity="0.2" x1="427.7695643407838" x2="427.7695643407838" y1="0" y2="30"/><line opacity="0.2" x1="519.5516989281281" x2="519.5516989281281" y1="0" y2="30"/><line opacity="0.2" x1="377.1168779410064" x2="377.1168779410064" y1="0" y2="30"/><line opacity="0.2" x1="307.3828540676135" x2="307.3828540676135" y1="0" y2="30"/><line opacity="0.2" x1="533.9698293373867" x2="533.9698293373867" y1="0" y2="30"/><line opacity="0.2" x1="537.1902743718308" x2="537.1902743718308" y1="0" y2="30"/><line opacity="0.2" x1="445.7034129421201" x2="445.7034129421201" y1="0" y2="30"/><line opacity="0.2" x1="282.04303018061796" x2="282.04303018061796" y1="0" y2="30"/><line opacity="0.2" x1="476.72120503500184" x2="476.72120503500184" y1="0" y2="30"/><line opacity="0.2" x1="264.8960739038392" x2="264.8960739038392" y1="0" y2="30"/><line opacity="0.2" x1="382.7458453557622" x2="382.7458453557622" y1="0" y2="30"/><line opacity="0.2" x1="443.95753204302207" x2="443.95753204302207" y1="0" y2="30"/><line opacity="0.2" x1="298.6935365391193" x2="298.6935365391193" y1="0" y2="30"/><line opacity="0.2" x1="437.81103943823416" x2="437.81103943823416" y1="0" y2="30"/><line opacity="0.2" x1="238.2434228316508" x2="238.2434228316508" y1="0" y2="30"/><line opacity="0.2" x1="258.1703326355553" x2="258.1703326355553" y1="0" y2="30"/><line opacity="0.2" x1="270.85743726435527" x2="270.85743726435527" y1="0" y2="30"/><line opacity="0.2" x1="288.6209085920052" x2="288.6209085920052" y1="0" y2="30"/><line opacity="0.2" x1="332.4083834178705" x2="332.4083834178705" y1="0" y2="30"/><line opacity="0.2" x1="383.47775342925706" x2="383.47775342925706" y1="0" y2="30"/><line opacity="0.2" x1="363.319125513097" x2="363.319125513097" y1="0" y2="30"/><line opacity="0.2" x1="395.9307062247222" x2="395.9307062247222" y1="0" y2="30"/><line opacity="0.2" x1="270.8647401881338" x2="270.8647401881338" y1="0" y2="30"/><line opacity="0.2" x1="401.18347221783137" x2="401.18347221783137" y1="0" y2="30"/><line opacity="0.2" x1="223.15915572578695" x2="223.15915572578695" y1="0" y2="30"/><line opacity="0.2" x1="317.08131043812057" x2="317.08131043812057" y1="0" y2="30"/><line opacity="0.2" x1="373.38962465733084" x2="373.38962465733084" y1="0" y2="30"/><line opacity="0.2" x1="443.8889339917619" x2="443.8889339917619" y1="0" y2="30"/><line opacity="0.2" x1="253.96433776593915" x2="253.96433776593915" y1="0" y2="30"/><line opacity="0.2" x1="277.76659865255283" x2="277.76659865255283" y1="0" y2="30"/><line opacity="0.2" x1="389.43911264442715" x2="389.43911264442715" y1="0" y2="30"/><line opacity="0.2" x1="325.07610792204747" x2="325.07610792204747" y1="0" y2="30"/><line opacity="0.2" x1="241.41250304295025" x2="241.41250304295025" y1="0" y2="30"/><line opacity="0.2" x1="213.4764973047835" x2="213.4764973047835" y1="0" y2="30"/><line opacity="0.2" x1="270.11601281829473" x2="270.11601281829473" y1="0" y2="30"/><line opacity="0.2" x1="374.32517020183144" x2="374.32517020183144" y1="0" y2="30"/><line opacity="0.2" x1="335.9526867749251" x2="335.9526867749251" y1="0" y2="30"/><line opacity="0.2" x1="172.66259003720404" x2="172.66259003720404" y1="0" y2="30"/><line opacity="0.2" x1="295.899571757387" x2="295.899571757387" y1="0" y2="30"/><line opacity="0.2" x1="418.67259914581535" x2="418.67259914581535" y1="0" y2="30"/><line opacity="0.2" x1="183.3989078340693" x2="183.3989078340693" y1="0" y2="30"/><line opacity="0.2" x1="342.77607027405224" x2="342.77607027405224" y1="0" y2="30"/><line opacity="0.2" x1="390.86142352730656" x2="390.86142352730656" y1="0" y2="30"/><line opacity="0.2" x1="320.7204542143228" x2="320.7204542143228" y1="0" y2="30"/><line opacity="0.2" x1="503.33523254774786" x2="503.33523254774786" y1="0" y2="30"/><line opacity="0.2" x1="164.93946221526227" x2="164.93946221526227" y1="0" y2="30"/><line opacity="0.2" x1="135.8216769789555" x2="135.8216769789555" y1="0" y2="30"/><line opacity="0.2" x1="356.60956315060315" x2="356.60956315060315" y1="0" y2="30"/><line opacity="0.2" x1="468.699310341961" x2="468.699310341961" y1="0" y2="30"/><line opacity="0.2" x1="487.84124572974997" x2="487.84124572974997" y1="0" y2="30"/><line opacity="0.2" x1="242.00878705070795" x2="242.00878705070795" y1="0" y2="30"/><line opacity="0.2" x1="491.11851369233585" x2="491.11851369233585" y1="0" y2="30"/><line opacity="0.2" x1="305.29044719815363" x2="305.29044719815363" y1="0" y2="30"/><line opacity="0.2" x1="344.37135699473055" x2="344.37135699473055" y1="0" y2="30"/><line opacity="0.2" x1="236.2701410835773" x2="236.2701410835773" y1="0" y2="30"/><line opacity="0.2" x1="199.60551747164598" x2="199.60551747164598" y1="0" y2="30"/><line opacity="0.2" x1="444.9204613352931" x2="444.9204613352931" y1="0" y2="30"/><line opacity="0.2" x1="429.0556282173129" x2="429.0556282173129" y1="0" y2="30"/><line opacity="0.2" x1="397.501176523291" x2="397.501176523291" y1="0" y2="30"/><line opacity="0.2" x1="211.6250036012188" x2="211.6250036012188" y1="0" y2="30"/><line opacity="0.2" x1="236.039195461861" x2="236.039195461861" y1="0" y2="30"/><line opacity="0.2" x1="336.66638291437494" x2="336.66638291437494" y1="0" y2="30"/><line opacity="0.2" x1="461.1622041560614" x2="461.1622041560614" y1="0" y2="30"/><line opacity="0.2" x1="306.389066289112" x2="306.389066289112" y1="0" y2="30"/><line opacity="0.2" x1="443.960675858146" x2="443.960675858146" y1="0" y2="30"/><line opacity="0.2" x1="366.77071014853726" x2="366.77071014853726" y1="0" y2="30"/><line opacity="0.2" x1="322.29921698933714" x2="322.29921698933714" y1="0" y2="30"/><line opacity="0.2" x1="372.61757661129593" x2="372.61757661129593" y1="0" y2="30"/><line opacity="0.2" x1="245.95714635282184" x2="245.95714635282184" y1="0" y2="30"/><line opacity="0.2" x1="443.77600431472825" x2="443.77600431472825" y1="0" y2="30"/><line opacity="0.2" x1="458.2834543872201" x2="458.2834543872201" y1="0" y2="30"/><line opacity="0.2" x1="455.8721308285618" x2="455.8721308285618" y1="0" y2="30"/><line opacity="0.2" x1="289.76472679260496" x2="289.76472679260496" y1="0" y2="30"/><line opacity="0.2" x1="423.01456237869667" x2="423.01456237869667" y1="0" y2="30"/><line opacity="0.2" x1="326.81283714529263" x2="326.81283714529263" y1="0" y2="30"/><line opacity="0.2" x1="303.44095627024114" x2="303.44095627024114" y1="0" y2="30"/><line opacity="0.2" x1="350.55840661093214" x2="350.55840661093214" y1="0" y2="30"/><line opacity="0.2" x1="166.3173606916001" x2="166.3173606916001" y1="0" y2="30"/><line opacity="0.2" x1="420.92691457658646" x2="420.92691457658646" y1="0" y2="30"/><line opacity="0.2" x1="405.656896896813" x2="405.656896896813" y1="0" y2="30"/><line opacity="0.2" x1="317.7420263485243" x2="317.7420263485243" y1="0" y2="30"/><line opacity="0.2" x1="360.23423468264735" x2="360.23423468264735" y1="0" y2="30"/><line opacity="0.2" x1="427.0277948827383" x2="427.0277948827383" y1="0" y2="30"/><line opacity="0.2" x1="98.35252679961832" x2="98.35252679961832" y1="0" y2="30"/><line opacity="0.2" x1="323.1056988121886" x2="323.1056988121886" y1="0" y2="30"/><line opacity="0.2" x1="369.4250851106668" x2="369.4250851106668" y1="0" y2="30"/><line opacity="0.2" x1="294.22590185420535" x2="294.22590185420535" y1="0" y2="30"/><line opacity="0.2" x1="434.1650658050477" x2="434.1650658050477" y1="0" y2="30"/><line opacity="0.2" x1="396.9948970735834" x2="396.9948970735834" y1="0" y2="30"/><line opacity="0.2" x1="362.5088868829589" x2="362.5088868829589" y1="0" y2="30"/><line opacity="0.2" x1="322.084913043617" x2="322.084913043617" y1="0" y2="30"/><line opacity="0.2" x1="409.1775610530387" x2="409.1775610530387" y1="0" y2="30"/><line opacity="0.2" x1="327.3785202999505" x2="327.3785202999505" y1="0" y2="30"/><line opacity="0.2" x1="234.53449002706344" x2="234.53449002706344" y1="0" y2="30"/><line opacity="0.2" x1="420.81097940054724" x2="420.81097940054724" y1="0" y2="30"/><line opacity="0.2" x1="285.03156654540066" x2="285.03156654540066" y1="0" y2="30"/><line opacity="0.2" x1="321.83402109478766" x2="321.83402109478766" y1="0" y2="30"/><line opacity="0.2" x1="420.1565581784384" x2="420.1565581784384" y1="0" y2="30"/><line opacity="0.2" x1="358.98066522864065" x2="358.98066522864065" y1="0" y2="30"/><line opacity="0.2" x1="307.2760777398522" x2="307.2760777398522" y1="0" y2="30"/><line opacity="0.2" x1="369.318479154447" x2="369.318479154447" y1="0" y2="30"/><line opacity="0.2" x1="133.63497999865962" x2="133.63497999865962" y1="0" y2="30"/><line opacity="0.2" x1="350.6417890396271" x2="350.6417890396271" y1="0" y2="30"/><line opacity="0.2" x1="436.4759360655224" x2="436.4759360655224" y1="0" y2="30"/><line opacity="0.2" x1="284.63643485656786" x2="284.63643485656786" y1="0" y2="30"/><line opacity="0.2" x1="380.91021970783663" x2="380.91021970783663" y1="0" y2="30"/><line opacity="0.2" x1="209.4561696336635" x2="209.4561696336635" y1="0" y2="30"/><line opacity="0.2" x1="272.2585659845787" x2="272.2585659845787" y1="0" y2="30"/><line opacity="0.2" x1="405.18723458984863" x2="405.18723458984863" y1="0" y2="30"/><line opacity="0.2" x1="363.931919536912" x2="363.931919536912" y1="0" y2="30"/><line opacity="0.2" x1="377.6761324855434" x2="377.6761324855434" y1="0" y2="30"/><line opacity="0.2" x1="375.3668741581112" x2="375.3668741581112" y1="0" y2="30"/><line opacity="0.2" x1="175.30044909130282" x2="175.30044909130282" y1="0" y2="30"/><line opacity="0.2" x1="171.01713575960835" x2="171.01713575960835" y1="0" y2="30"/><line opacity="0.2" x1="422.2159262744876" x2="422.2159262744876" y1="0" y2="30"/><line opacity="0.2" x1="357.4103869891831" x2="357.4103869891831" y1="0" y2="30"/><line opacity="0.2" x1="411.59344959696256" x2="411.59344959696256" y1="0" y2="30"/><line opacity="0.2" x1="389.836702590431" x2="389.836702590431" y1="0" y2="30"/><line opacity="0.2" x1="281.65731206324625" x2="281.65731206324625" y1="0" y2="30"/><line opacity="0.2" x1="336.4462485402706" x2="336.4462485402706" y1="0" y2="30"/><line opacity="0.2" x1="410.42534359855733" x2="410.42534359855733" y1="0" y2="30"/><line opacity="0.2" x1="402.01103580414065" x2="402.01103580414065" y1="0" y2="30"/><line opacity="0.2" x1="277.9400457980377" x2="277.9400457980377" y1="0" y2="30"/><line opacity="0.2" x1="377.0286461348123" x2="377.0286461348123" y1="0" y2="30"/><line opacity="0.2" x1="78.42056613283296" x2="78.42056613283296" y1="0" y2="30"/><line opacity="0.2" x1="276.46521622016496" x2="276.46521622016496" y1="0" y2="30"/><line opacity="0.2" x1="307.28859335609206" x2="307.28859335609206" y1="0" y2="30"/><line opacity="0.2" x1="303.97700594671136" x2="303.97700594671136" y1="0" y2="30"/><line opacity="0.2" x1="343.34543785982623" x2="343.34543785982623" y1="0" y2="30"/><line opacity="0.2" x1="192.84417506176234" x2="192.84417506176234" y1="0" y2="30"/><line opacity="0.2" x1="446.85239460296475" x2="446.85239460296475" y1="0" y2="30"/><line opacity="0.2" x1="270.9742966755606" x2="270.9742966755606" y1="0" y2="30"/><line opacity="0.2" x1="541.0769812491739" x2="541.0769812491739" y1="0" y2="30"/><line opacity="0.2" x1="467.33107917624875" x2="467.33107917624875" y1="0" y2="30"/><line opacity="0.2" x1="276.13930481584896" x2="276.13930481584896" y1="0" y2="30"/><line opacity="0.2" x1="355.11720439081904" x2="355.11720439081904" y1="0" y2="30"/><line opacity="0.2" x1="374.5460368544483" x2="374.5460368544483" y1="0" y2="30"/><line opacity="0.2" x1="175.0965551756937" x2="175.0965551756937" y1="0" y2="30"/><line opacity="0.2" x1="450.09757240525767" x2="450.09757240525767" y1="0" y2="30"/><line opacity="0.2" x1="404.4258294269215" x2="404.4258294269215" y1="0" y2="30"/><line opacity="0.2" x1="457.46367141993244" x2="457.46367141993244" y1="0" y2="30"/><line opacity="0.2" x1="199.28773438126862" x2="199.28773438126862" y1="0" y2="30"/><line opacity="0.2" x1="222.30217224521937" x2="222.30217224521937" y1="0" y2="30"/><line opacity="0.2" x1="524.2408639943086" x2="524.2408639943086" y1="0" y2="30"/><line opacity="0.2" x1="157.58657576216694" x2="157.58657576216694" y1="0" y2="30"/><line opacity="0.2" x1="411.3731209402506" x2="411.3731209402506" y1="0" y2="30"/><line opacity="0.2" x1="288.33570623977806" x2="288.33570623977806" y1="0" y2="30"/><line opacity="0.2" x1="303.4800133501689" x2="303.4800133501689" y1="0" y2="30"/><line opacity="0.2" x1="309.7454741937096" x2="309.7454741937096" y1="0" y2="30"/><line opacity="0.2" x1="146.81382807081397" x2="146.81382807081397" y1="0" y2="30"/><line opacity="0.2" x1="277.54866302075317" x2="277.54866302075317" y1="0" y2="30"/><line opacity="0.2" x1="506.8477881676373" x2="506.8477881676373" y1="0" y2="30"/><line opacity="0.2" x1="437.1732185574809" x2="437.1732185574809" y1="0" y2="30"/><line opacity="0.2" x1="366.23766404877324" x2="366.23766404877324" y1="0" y2="30"/><line opacity="0.2" x1="195.20036329887282" x2="195.20036329887282" y1="0" y2="30"/><line opacity="0.2" x1="380.0349150767435" x2="380.0349150767435" y1="0" y2="30"/><line opacity="0.2" x1="303.9725629884989" x2="303.9725629884989" y1="0" y2="30"/><line opacity="0.2" x1="525.970757445652" x2="525.970757445652" y1="0" y2="30"/><line opacity="0.2" x1="346.6073934481707" x2="346.6073934481707" y1="0" y2="30"/><line opacity="0.2" x1="326.5207006278214" x2="326.5207006278214" y1="0" y2="30"/><line opacity="0.2" x1="305.53710613762945" x2="305.53710613762945" y1="0" y2="30"/><line opacity="0.2" x1="342.99077745302986" x2="342.99077745302986" y1="0" y2="30"/><line opacity="0.2" x1="396.08728935386966" x2="396.08728935386966" y1="0" y2="30"/><line opacity="0.2" x1="284.09354109297067" x2="284.09354109297067" y1="0" y2="30"/><line opacity="0.2" x1="431.23631650272876" x2="431.23631650272876" y1="0" y2="30"/><line opacity="0.2" x1="257.36919399497737" x2="257.36919399497737" y1="0" y2="30"/><line opacity="0.2" x1="321.7198349745216" x2="321.7198349745216" y1="0" y2="30"/><line opacity="0.2" x1="351.9110945264164" x2="351.9110945264164" y1="0" y2="30"/><line opacity="0.2" x1="390.2998934808397" x2="390.2998934808397" y1="0" y2="30"/><line opacity="0.2" x1="319.1038458314924" x2="319.1038458314924" y1="0" y2="30"/><line opacity="0.2" x1="443.56505578908536" x2="443.56505578908536" y1="0" y2="30"/><line opacity="0.2" x1="413.80629873822556" x2="413.80629873822556" y1="0" y2="30"/><line opacity="0.2" x1="435.80780899529003" x2="435.80780899529003" y1="0" y2="30"/><line opacity="0.2" x1="276.9934469559074" x2="276.9934469559074" y1="0" y2="30"/><line opacity="0.2" x1="265.87029396214115" x2="265.87029396214115" y1="0" y2="30"/><line opacity="0.2" x1="396.1559067010054" x2="396.1559067010054" y1="0" y2="30"/><line opacity="0.2" x1="172.40907911566285" x2="172.40907911566285" y1="0" y2="30"/><line opacity="0.2" x1="516.4600802657826" x2="516.4600802657826" y1="0" y2="30"/><line opacity="0.2" x1="169.30728578928233" x2="169.30728578928233" y1="0" y2="30"/><line opacity="0.2" x1="372.39333989506656" x2="372.39333989506656" y1="0" y2="30"/><line opacity="0.2" x1="228.98517428036865" x2="228.98517428036865" y1="0" y2="30"/><line opacity="0.2" x1="283.59655835345853" x2="283.59655835345853" y1="0" y2="30"/><line opacity="0.2" x1="426.6613217951" x2="426.6613217951" y1="0" y2="30"/><line opacity="0.2" x1="313.4167549944043" x2="313.4167549944043" y1="0" y2="30"/><line opacity="0.2" x1="315.5462088961533" x2="315.5462088961533" y1="0" y2="30"/><line opacity="0.2" x1="319.64139263062" x2="319.64139263062" y1="0" y2="30"/><line opacity="0.2" x1="378.5475251074576" x2="378.5475251074576" y1="0" y2="30"/><line opacity="0.2" x1="364.7006105841106" x2="364.7006105841106" y1="0" y2="30"/><line opacity="0.2" x1="217.70619090107687" x2="217.70619090107687" y1="0" y2="30"/><line opacity="0.2" x1="282.94243698531506" x2="282.94243698531506" y1="0" y2="30"/><line opacity="0.2" x1="53.34667547118305" x2="53.34667547118305" y1="0" y2="30"/><line opacity="0.2" x1="219.4767426904224" x2="219.4767426904224" y1="0" y2="30"/><line opacity="0.2" x1="287.27244007107635" x2="287.27244007107635" y1="0" y2="30"/><line opacity="0.2" x1="289.4073202385943" x2="289.4073202385943" y1="0" y2="30"/><line opacity="0.2" x1="447.18768116952697" x2="447.18768116952697" y1="0" y2="30"/><line opacity="0.2" x1="383.60721964176525" x2="383.60721964176525" y1="0" y2="30"/><line opacity="0.2" x1="468.5525591600832" x2="468.5525591600832" y1="0" y2="30"/><line opacity="0.2" x1="203.09133225169842" x2="203.09133225169842" y1="0" y2="30"/><line opacity="0.2" x1="368.23586603623687" x2="368.23586603623687" y1="0" y2="30"/><line opacity="0.2" x1="86.6155330342292" x2="86.6155330342292" y1="0" y2="30"/><line opacity="0.2" x1="117.77827675905915" x2="117.77827675905915" y1="0" y2="30"/><line opacity="0.2" x1="380.9232027732848" x2="380.9232027732848" y1="0" y2="30"/><line opacity="0.2" x1="334.58880212714183" x2="334.58880212714183" y1="0" y2="30"/><line opacity="0.2" x1="374.4996512675633" x2="374.4996512675633" y1="0" y2="30"/><line opacity="0.2" x1="380.01987827749304" x2="380.01987827749304" y1="0" y2="30"/><line opacity="0.2" x1="547.0627295045612" x2="547.0627295045612" y1="0" y2="30"/><line opacity="0.2" x1="233.19925291350063" x2="233.19925291350063" y1="0" y2="30"/><line opacity="0.2" x1="147.95494728561027" x2="147.95494728561027" y1="0" y2="30"/><line opacity="0.2" x1="274.1837703379118" x2="274.1837703379118" y1="0" y2="30"/><line opacity="0.2" x1="372.6651154481274" x2="372.6651154481274" y1="0" y2="30"/><line opacity="0.2" x1="248.21750771085348" x2="248.21750771085348" y1="0" y2="30"/><line opacity="0.2" x1="190.4423957676509" x2="190.4423957676509" y1="0" y2="30"/><line opacity="0.2" x1="355.10345769721" x2="355.10345769721" y1="0" y2="30"/><line opacity="0.2" x1="338.48316740088234" x2="338.48316740088234" y1="0" y2="30"/><line opacity="0.2" x1="510.747864421997" x2="510.747864421997" y1="0" y2="30"/><line opacity="0.2" x1="258.09868448206555" x2="258.09868448206555" y1="0" y2="30"/><line opacity="0.2" x1="392.5673136350471" x2="392.5673136350471" y1="0" y2="30"/><line opacity="0.2" x1="234.2664524727964" x2="234.2664524727964" y1="0" y2="30"/><line opacity="0.2" x1="240.01124955159688" x2="240.01124955159688" y1="0" y2="30"/><line opacity="0.2" x1="212.82190961018043" x2="212.82190961018043" y1="0" y2="30"/><line opacity="0.2" x1="299.00515603050303" x2="299.00515603050303" y1="0" y2="30"/><line opacity="0.2" x1="182.38845095658465" x2="182.38845095658465" y1="0" y2="30"/><line opacity="0.2" x1="357.9433550699035" x2="357.9433550699035" y1="0" y2="30"/><line opacity="0.2" x1="357.9074343003204" x2="357.9074343003204" y1="0" y2="30"/><line opacity="0.2" x1="439.1996513158411" x2="439.1996513158411" y1="0" y2="30"/><line opacity="0.2" x1="218.02417954915205" x2="218.02417954915205" y1="0" y2="30"/><line opacity="0.2" x1="183.2079815159699" x2="183.2079815159699" y1="0" y2="30"/><line opacity="0.2" x1="148.76046567369252" x2="148.76046567369252" y1="0" y2="30"/><line opacity="0.2" x1="333.8731640650509" x2="333.8731640650509" y1="0" y2="30"/><line opacity="0.2" x1="359.9645264548202" x2="359.9645264548202" y1="0" y2="30"/><line opacity="0.2" x1="486.5028995254361" x2="486.5028995254361" y1="0" y2="30"/><line opacity="0.2" x1="175.33056206904666" x2="175.33056206904666" y1="0" y2="30"/><line opacity="0.2" x1="407.68733183508" x2="407.68733183508" y1="0" y2="30"/><line opacity="0.2" x1="363.31909151546006" x2="363.31909151546006" y1="0" y2="30"/><line opacity="0.2" x1="378.15763790709707" x2="378.15763790709707" y1="0" y2="30"/><line opacity="0.2" x1="479.86899706342217" x2="479.86899706342217" y1="0" y2="30"/><line opacity="0.2" x1="290.9929335649959" x2="290.9929335649959" y1="0" y2="30"/><line opacity="0.2" x1="358.7719883899329" x2="358.7719883899329" y1="0" y2="30"/><line opacity="0.2" x1="138.88462833788577" x2="138.88462833788577" y1="0" y2="30"/><line opacity="0.2" x1="228.58886896975935" x2="228.58886896975935" y1="0" y2="30"/><line opacity="0.2" x1="353.8716863551785" x2="353.8716863551785" y1="0" y2="30"/><line opacity="0.2" x1="487.31219319342074" x2="487.31219319342074" y1="0" y2="30"/><line opacity="0.2" x1="281.7779574564573" x2="281.7779574564573" y1="0" y2="30"/><line opacity="0.2" x1="304.57947366492465" x2="304.57947366492465" y1="0" y2="30"/><line opacity="0.2" x1="186.04527598057533" x2="186.04527598057533" y1="0" y2="30"/><line opacity="0.2" x1="368.325246428745" x2="368.325246428745" y1="0" y2="30"/><line opacity="0.2" x1="359.384606969448" x2="359.384606969448" y1="0" y2="30"/><line opacity="0.2" x1="165.09556610432674" x2="165.09556610432674" y1="0" y2="30"/><line opacity="0.2" x1="576.060334188538" x2="576.060334188538" y1="0" y2="30"/><line opacity="0.2" x1="304.25440004872917" x2="304.25440004872917" y1="0" y2="30"/><line opacity="0.2" x1="369.22505815057866" x2="369.22505815057866" y1="0" y2="30"/><line opacity="0.2" x1="385.7923955601136" x2="385.7923955601136" y1="0" y2="30"/><line opacity="0.2" x1="362.92680738859514" x2="362.92680738859514" y1="0" y2="30"/><line opacity="0.2" x1="417.2775086277489" x2="417.2775086277489" y1="0" y2="30"/><line opacity="0.2" x1="344.21051716352605" x2="344.21051716352605" y1="0" y2="30"/><line opacity="0.2" x1="338.81064207922975" x2="338.81064207922975" y1="0" y2="30"/><line opacity="0.2" x1="338.9762160054901" x2="338.9762160054901" y1="0" y2="30"/><line opacity="0.2" x1="378.0777869711126" x2="378.0777869711126" y1="0" y2="30"/><line opacity="0.2" x1="309.3180063951243" x2="309.3180063951243" y1="0" y2="30"/><line opacity="0.2" x1="288.9441382872125" x2="288.9441382872125" y1="0" y2="30"/><line opacity="0.2" x1="417.2869481699469" x2="417.2869481699469" y1="0" y2="30"/><line opacity="0.2" x1="361.1656798210104" x2="361.1656798210104" y1="0" y2="30"/><line opacity="0.2" x1="306.5688122458045" x2="306.5688122458045" y1="0" y2="30"/><line opacity="0.2" x1="180.96333103188584" x2="180.96333103188584" y1="0" y2="30"/><line opacity="0.2" x1="256.45339097333596" x2="256.45339097333596" y1="0" y2="30"/><line opacity="0.2" x1="296.85081112648317" x2="296.85081112648317" y1="0" y2="30"/><line opacity="0.2" x1="356.9588081127547" x2="356.9588081127547" y1="0" y2="30"/><line opacity="0.2" x1="369.81897538555427" x2="369.81897538555427" y1="0" y2="30"/><line opacity="0.2" x1="401.0728094593312" x2="401.0728094593312" y1="0" y2="30"/><line opacity="0.2" x1="375.84077433292055" x2="375.84077433292055" y1="0" y2="30"/><line opacity="0.2" x1="183.71917884174755" x2="183.71917884174755" y1="0" y2="30"/><line opacity="0.2" x1="300.30024838192344" x2="300.30024838192344" y1="0" y2="30"/><line opacity="0.2" x1="243.16457546272432" x2="243.16457546272432" y1="0" y2="30"/><line opacity="0.2" x1="344.6494552846513" x2="344.6494552846513" y1="0" y2="30"/><line opacity="0.2" x1="296.82719881600457" x2="296.82719881600457" y1="0" y2="30"/><line opacity="0.2" x1="243.80155409570847" x2="243.80155409570847" y1="0" y2="30"/><line opacity="0.2" x1="253.6647633201025" x2="253.6647633201025" y1="0" y2="30"/><line opacity="0.2" x1="417.9712851970896" x2="417.9712851970896" y1="0" y2="30"/><line opacity="0.2" x1="245.04447475909524" x2="245.04447475909524" y1="0" y2="30"/><line opacity="0.2" x1="452.01030703529494" x2="452.01030703529494" y1="0" y2="30"/><line opacity="0.2" x1="296.18763671752254" x2="296.18763671752254" y1="0" y2="30"/><line opacity="0.2" x1="412.10848482971346" x2="412.10848482971346" y1="0" y2="30"/><line opacity="0.2" x1="245.8491369448494" x2="245.8491369448494" y1="0" y2="30"/><line opacity="0.2" x1="188.3110100628672" x2="188.3110100628672" y1="0" y2="30"/><line opacity="0.2" x1="287.7031951415598" x2="287.7031951415598" y1="0" y2="30"/><line opacity="0.2" x1="277.6217792622176" x2="277.6217792622176" y1="0" y2="30"/><line opacity="0.2" x1="458.9561021908385" x2="458.9561021908385" y1="0" y2="30"/><line opacity="0.2" x1="400.3691575000586" x2="400.3691575000586" y1="0" y2="30"/><line opacity="0.2" x1="294.4332607821024" x2="294.4332607821024" y1="0" y2="30"/><line opacity="0.2" x1="215.74445056596576" x2="215.74445056596576" y1="0" y2="30"/><line opacity="0.2" x1="312.3395124654633" x2="312.3395124654633" y1="0" y2="30"/><line opacity="0.2" x1="273.53954525041456" x2="273.53954525041456" y1="0" y2="30"/><line opacity="0.2" x1="357.8257600899442" x2="357.8257600899442" y1="0" y2="30"/><line opacity="0.2" x1="369.5328523465354" x2="369.5328523465354" y1="0" y2="30"/><line opacity="0.2" x1="272.3350887011816" x2="272.3350887011816" y1="0" y2="30"/><line opacity="0.2" x1="387.14999802759013" x2="387.14999802759013" y1="0" y2="30"/><line opacity="0.2" x1="302.47373142846004" x2="302.47373142846004" y1="0" y2="30"/><line opacity="0.2" x1="404.43681724131625" x2="404.43681724131625" y1="0" y2="30"/><line opacity="0.2" x1="328.51310257164255" x2="328.51310257164255" y1="0" y2="30"/><line opacity="0.2" x1="186.76739245134502" x2="186.76739245134502" y1="0" y2="30"/><line opacity="0.2" x1="310.73329932293547" x2="310.73329932293547" y1="0" y2="30"/><line opacity="0.2" x1="460.61674922162007" x2="460.61674922162007" y1="0" y2="30"/><line opacity="0.2" x1="154.1997201595109" x2="154.1997201595109" y1="0" y2="30"/><line opacity="0.2" x1="423.87764290729126" x2="423.87764290729126" y1="0" y2="30"/><line opacity="0.2" x1="408.3118678387277" x2="408.3118678387277" y1="0" y2="30"/><line opacity="0.2" x1="351.6941644029259" x2="351.6941644029259" y1="0" y2="30"/><line opacity="0.2" x1="336.8903754174082" x2="336.8903754174082" y1="0" y2="30"/><line opacity="0.2" x1="254.37895263768405" x2="254.37895263768405" y1="0" y2="30"/><line opacity="0.2" x1="460.8903794320754" x2="460.8903794320754" y1="0" y2="30"/><line opacity="0.2" x1="277.98036013542435" x2="277.98036013542435" y1="0" y2="30"/><line opacity="0.2" x1="512.7756591604044" x2="512.7756591604044" y1="0" y2="30"/><line opacity="0.2" x1="341.6626682459918" x2="341.6626682459918" y1="0" y2="30"/><line opacity="0.2" x1="467.1614530831631" x2="467.1614530831631" y1="0" y2="30"/><line opacity="0.2" x1="254.68125147144656" x2="254.68125147144656" y1="0" y2="30"/><line opacity="0.2" x1="193.70796724420862" x2="193.70796724420862" y1="0" y2="30"/><line opacity="0.2" x1="414.089592634178" x2="414.089592634178" y1="0" y2="30"/><line opacity="0.2" x1="216.16903707435088" x2="216.16903707435088" y1="0" y2="30"/><line opacity="0.2" x1="389.5469849358132" x2="389.5469849358132" y1="0" y2="30"/><line opacity="0.2" x1="314.7351016169678" x2="314.7351016169678" y1="0" y2="30"/><line opacity="0.2" x1="312.14400409260526" x2="312.14400409260526" y1="0" y2="30"/><line opacity="0.2" x1="205.20708120369375" x2="205.20708120369375" y1="0" y2="30"/><line opacity="0.2" x1="242.58050482123363" x2="242.58050482123363" y1="0" y2="30"/><line opacity="0.2" x1="310.24946707928945" x2="310.24946707928945" y1="0" y2="30"/><line opacity="0.2" x1="410.48464503424543" x2="410.48464503424543" y1="0" y2="30"/><line opacity="0.2" x1="355.091183741058" x2="355.091183741058" y1="0" y2="30"/><line opacity="0.2" x1="364.7537954638949" x2="364.7537954638949" y1="0" y2="30"/><line opacity="0.2" x1="242.84735860717066" x2="242.84735860717066" y1="0" y2="30"/><line opacity="0.2" x1="295.77868332786505" x2="295.77868332786505" y1="0" y2="30"/><line opacity="0.2" x1="153.28734248422737" x2="153.28734248422737" y1="0" y2="30"/><line opacity="0.2" x1="311.6668367203103" x2="311.6668367203103" y1="0" y2="30"/><line opacity="0.2" x1="157.13382407804613" x2="157.13382407804613" y1="0" y2="30"/><line opacity="0.2" x1="339.4890414357879" x2="339.4890414357879" y1="0" y2="30"/><line opacity="0.2" x1="243.42407251044338" x2="243.42407251044338" y1="0" y2="30"/><line opacity="0.2" x1="286.16351785072226" x2="286.16351785072226" y1="0" y2="30"/><line opacity="0.2" x1="346.2773073938878" x2="346.2773073938878" y1="0" y2="30"/><line opacity="0.2" x1="417.5989742479183" x2="417.5989742479183" y1="0" y2="30"/><line opacity="0.2" x1="430.1450627630978" x2="430.1450627630978" y1="0" y2="30"/><line opacity="0.2" x1="376.36220056866443" x2="376.36220056866443" y1="0" y2="30"/><line opacity="0.2" x1="162.87882971891744" x2="162.87882971891744" y1="0" y2="30"/><line opacity="0.2" x1="379.3590942491374" x2="379.3590942491374" y1="0" y2="30"/><line opacity="0.2" x1="247.88470420338368" x2="247.88470420338368" y1="0" y2="30"/><line opacity="0.2" x1="295.3167249576086" x2="295.3167249576086" y1="0" y2="30"/><line opacity="0.2" x1="308.871149659189" x2="308.871149659189" y1="0" y2="30"/><line opacity="0.2" x1="292.8323588717177" x2="292.8323588717177" y1="0" y2="30"/><line opacity="0.2" x1="325.26103077813207" x2="325.26103077813207" y1="0" y2="30"/><line opacity="0.2" x1="399.40643817090375" x2="399.40643817090375" y1="0" y2="30"/><line opacity="0.2" x1="474.75641212407527" x2="474.75641212407527" y1="0" y2="30"/><line opacity="0.2" x1="501.06284660024005" x2="501.06284660024005" y1="0" y2="30"/><line opacity="0.2" x1="257.2928734406154" x2="257.2928734406154" y1="0" y2="30"/><line opacity="0.2" x1="453.39703707559994" x2="453.39703707559994" y1="0" y2="30"/><line opacity="0.2" x1="275.93308714644644" x2="275.93308714644644" y1="0" y2="30"/><line opacity="0.2" x1="316.71571122863264" x2="316.71571122863264" y1="0" y2="30"/><line opacity="0.2" x1="247.78772269982457" x2="247.78772269982457" y1="0" y2="30"/><line opacity="0.2" x1="237.16128147780594" x2="237.16128147780594" y1="0" y2="30"/><line opacity="0.2" x1="203.544640989393" x2="203.544640989393" y1="0" y2="30"/><line opacity="0.2" x1="278.1783741132121" x2="278.1783741132121" y1="0" y2="30"/><line opacity="0.2" x1="390.3528417600834" x2="390.3528417600834" y1="0" y2="30"/><line opacity="0.2" x1="331.631491527842" x2="331.631491527842" y1="0" y2="30"/><line opacity="0.2" x1="293.3408981154058" x2="293.3408981154058" y1="0" y2="30"/><line opacity="0.2" x1="487.75050300063054" x2="487.75050300063054" y1="0" y2="30"/><line opacity="0.2" x1="194.7501416302648" x2="194.7501416302648" y1="0" y2="30"/><line opacity="0.2" x1="464.25989828291495" x2="464.25989828291495" y1="0" y2="30"/><line opacity="0.2" x1="320.77188426189855" x2="320.77188426189855" y1="0" y2="30"/><line opacity="0.2" x1="164.3601861059428" x2="164.3601861059428" y1="0" y2="30"/><line opacity="0.2" x1="262.0378941994922" x2="262.0378941994922" y1="0" y2="30"/><line opacity="0.2" x1="273.05615963984803" x2="273.05615963984803" y1="0" y2="30"/><line opacity="0.2" x1="282.09587655222475" x2="282.09587655222475" y1="0" y2="30"/><line opacity="0.2" x1="497.8605829889446" x2="497.8605829889446" y1="0" y2="30"/><line opacity="0.2" x1="475.33232177415505" x2="475.33232177415505" y1="0" y2="30"/><line opacity="0.2" x1="96.95233439140422" x2="96.95233439140422" y1="0" y2="30"/><line opacity="0.2" x1="443.3549582052421" x2="443.3549582052421" y1="0" y2="30"/><line opacity="0.2" x1="378.0430354455815" x2="378.0430354455815" y1="0" y2="30"/><line opacity="0.2" x1="394.53214409755435" x2="394.53214409755435" y1="0" y2="30"/><line opacity="0.2" x1="84.63725885788335" x2="84.63725885788335" y1="0" y2="30"/><line opacity="0.2" x1="322.05608130715854" x2="322.05608130715854" y1="0" y2="30"/><line opacity="0.2" x1="246.39546998752786" x2="246.39546998752786" y1="0" y2="30"/><line opacity="0.2" x1="511.2571366723095" x2="511.2571366723095" y1="0" y2="30"/><line opacity="0.2" x1="323.7482408646532" x2="323.7482408646532" y1="0" y2="30"/><line opacity="0.2" x1="345.0720814984849" x2="345.0720814984849" y1="0" y2="30"/><line opacity="0.2" x1="312.3982729318839" x2="312.3982729318839" y1="0" y2="30"/><line opacity="0.2" x1="443.15519052433115" x2="443.15519052433115" y1="0" y2="30"/><line opacity="0.2" x1="313.8305546749088" x2="313.8305546749088" y1="0" y2="30"/><line opacity="0.2" x1="240.1208501005321" x2="240.1208501005321" y1="0" y2="30"/><line opacity="0.2" x1="222.51671285958136" x2="222.51671285958136" y1="0" y2="30"/><line opacity="0.2" x1="365.3977268044738" x2="365.3977268044738" y1="0" y2="30"/><line opacity="0.2" x1="389.69705225644884" x2="389.69705225644884" y1="0" y2="30"/><line opacity="0.2" x1="210.92858403875172" x2="210.92858403875172" y1="0" y2="30"/><line opacity="0.2" x1="478.1558143844196" x2="478.1558143844196" y1="0" y2="30"/><line opacity="0.2" x1="205.1843601051361" x2="205.1843601051361" y1="0" y2="30"/><line opacity="0.2" x1="298.225651697426" x2="298.225651697426" y1="0" y2="30"/><line opacity="0.2" x1="271.2603540482937" x2="271.2603540482937" y1="0" y2="30"/><line opacity="0.2" x1="412.519380482612" x2="412.519380482612" y1="0" y2="30"/><line opacity="0.2" x1="382.2418333693266" x2="382.2418333693266" y1="0" y2="30"/><line opacity="0.2" x1="370.7563372173583" x2="370.7563372173583" y1="0" y2="30"/><line opacity="0.2" x1="223.5599971114717" x2="223.5599971114717" y1="0" y2="30"/><line opacity="0.2" x1="428.6551066818963" x2="428.6551066818963" y1="0" y2="30"/><line opacity="0.2" x1="437.3068492545472" x2="437.3068492545472" y1="0" y2="30"/><line opacity="0.2" x1="325.91996782818086" x2="325.91996782818086" y1="0" y2="30"/><line opacity="0.2" x1="557.9715680858975" x2="557.9715680858975" y1="0" y2="30"/><line opacity="0.2" x1="376.3424278402903" x2="376.3424278402903" y1="0" y2="30"/><line opacity="0.2" x1="381.7636457259074" x2="381.7636457259074" y1="0" y2="30"/><line opacity="0.2" x1="365.9486693061255" x2="365.9486693061255" y1="0" y2="30"/><line opacity="0.2" x1="396.7678042916163" x2="396.7678042916163" y1="0" y2="30"/><line opacity="0.2" x1="475.7540747560043" x2="475.7540747560043" y1="0" y2="30"/><line opacity="0.2" x1="360.2280698339515" x2="360.2280698339515" y1="0" y2="30"/><line opacity="0.2" x1="308.50389214318636" x2="308.50389214318636" y1="0" y2="30"/><line opacity="0.2" x1="345.1845808764005" x2="345.1845808764005" y1="0" y2="30"/><line opacity="0.2" x1="272.9285221017824" x2="272.9285221017824" y1="0" y2="30"/><line opacity="0.2" x1="346.28199384213576" x2="346.28199384213576" y1="0" y2="30"/><line opacity="0.2" x1="307.6139614174133" x2="307.6139614174133" y1="0" y2="30"/><line opacity="0.2" x1="264.12691058165956" x2="264.12691058165956" y1="0" y2="30"/><line opacity="0.2" x1="364.01408497449347" x2="364.01408497449347" y1="0" y2="30"/><line opacity="0.2" x1="356.1507382313155" x2="356.1507382313155" y1="0" y2="30"/><line opacity="0.2" x1="366.4797426476615" x2="366.4797426476615" y1="0" y2="30"/><line opacity="0.2" x1="305.98635921769096" x2="305.98635921769096" y1="0" y2="30"/><line opacity="0.2" x1="249.41620552051629" x2="249.41620552051629" y1="0" y2="30"/><line opacity="0.2" x1="450.9576005210157" x2="450.9576005210157" y1="0" y2="30"/><line opacity="0.2" x1="365.09055812139013" x2="365.09055812139013" y1="0" y2="30"/><line opacity="0.2" x1="174.73575295787322" x2="174.73575295787322" y1="0" y2="30"/><line opacity="0.2" x1="421.92122415878913" x2="421.92122415878913" y1="0" y2="30"/><line opacity="0.2" x1="384.7635576701169" x2="384.7635576701169" y1="0" y2="30"/><line opacity="0.2" x1="361.33451674339193" x2="361.33451674339193" y1="0" y2="30"/><line opacity="0.2" x1="146.76948007903462" x2="146.76948007903462" y1="0" y2="30"/><line opacity="0.2" x1="339.17102372263514" x2="339.17102372263514" y1="0" y2="30"/><line opacity="0.2" x1="307.3539552512791" x2="307.3539552512791" y1="0" y2="30"/><line opacity="0.2" x1="339.56819490740025" x2="339.56819490740025" y1="0" y2="30"/><line opacity="0.2" x1="298.92642069486686" x2="298.92642069486686" y1="0" y2="30"/><line opacity="0.2" x1="420.9866465879607" x2="420.9866465879607" y1="0" y2="30"/><line opacity="0.2" x1="244.30200261782272" x2="244.30200261782272" y1="0" y2="30"/><line opacity="0.2" x1="413.84973180309976" x2="413.84973180309976" y1="0" y2="30"/><line opacity="0.2" x1="404.579758079964" x2="404.579758079964" y1="0" y2="30"/><line opacity="0.2" x1="208.8113170143768" x2="208.8113170143768" y1="0" y2="30"/><line opacity="0.2" x1="175.7249429972274" x2="175.7249429972274" y1="0" y2="30"/><line opacity="0.2" x1="140.9507738777941" x2="140.9507738777941" y1="0" y2="30"/><line opacity="0.2" x1="530.4354183884294" x2="530.4354183884294" y1="0" y2="30"/><line opacity="0.2" x1="162.7870398802079" x2="162.7870398802079" y1="0" y2="30"/><line opacity="0.2" x1="285.2332245513489" x2="285.2332245513489" y1="0" y2="30"/><line opacity="0.2" x1="233.17437933798124" x2="233.17437933798124" y1="0" y2="30"/><line opacity="0.2" x1="325.11624836987323" x2="325.11624836987323" y1="0" y2="30"/><line opacity="0.2" x1="366.4783625702551" x2="366.4783625702551" y1="0" y2="30"/><line opacity="0.2" x1="343.9442338858234" x2="343.9442338858234" y1="0" y2="30"/><line opacity="0.2" x1="322.73406176397225" x2="322.73406176397225" y1="0" y2="30"/><line opacity="0.2" x1="378.3541211843842" x2="378.3541211843842" y1="0" y2="30"/><line opacity="0.2" x1="541.1445654199434" x2="541.1445654199434" y1="0" y2="30"/><line opacity="0.2" x1="224.55417503830958" x2="224.55417503830958" y1="0" y2="30"/><line opacity="0.2" x1="255.4805840707202" x2="255.4805840707202" y1="0" y2="30"/><line opacity="0.2" x1="273.5640143435615" x2="273.5640143435615" y1="0" y2="30"/><line opacity="0.2" x1="432.47791638210026" x2="432.47791638210026" y1="0" y2="30"/><line opacity="0.2" x1="348.64369022583435" x2="348.64369022583435" y1="0" y2="30"/><line opacity="0.2" x1="241.6073323794754" x2="241.6073323794754" y1="0" y2="30"/><line opacity="0.2" x1="370.74159514228245" x2="370.74159514228245" y1="0" y2="30"/><line opacity="0.2" x1="259.69642696724" x2="259.69642696724" y1="0" y2="30"/><line opacity="0.2" x1="464.36788952561517" x2="464.36788952561517" y1="0" y2="30"/><line opacity="0.2" x1="314.3609382157797" x2="314.3609382157797" y1="0" y2="30"/><line opacity="0.2" x1="411.89419003343323" x2="411.89419003343323" y1="0" y2="30"/><line opacity="0.2" x1="407.5673165920839" x2="407.5673165920839" y1="0" y2="30"/><line opacity="0.2" x1="453.20226009226917" x2="453.20226009226917" y1="0" y2="30"/><line opacity="0.2" x1="153.23186387671583" x2="153.23186387671583" y1="0" y2="30"/><line opacity="0.2" x1="359.03925445311205" x2="359.03925445311205" y1="0" y2="30"/><line opacity="0.2" x1="345.4339709237763" x2="345.4339709237763" y1="0" y2="30"/><line opacity="0.2" x1="127.14593545834637" x2="127.14593545834637" y1="0" y2="30"/><line opacity="0.2" x1="354.31565581745167" x2="354.31565581745167" y1="0" y2="30"/><line opacity="0.2" x1="207.87484064106584" x2="207.87484064106584" y1="0" y2="30"/><line opacity="0.2" x1="187.0874211568994" x2="187.0874211568994" y1="0" y2="30"/><line opacity="0.2" x1="348.215153298395" x2="348.215153298395" y1="0" y2="30"/><line opacity="0.2" x1="356.6354677732816" x2="356.6354677732816" y1="0" y2="30"/><line opacity="0.2" x1="337.9982378812636" x2="337.9982378812636" y1="0" y2="30"/><line opacity="0.2" x1="307.47461223825746" x2="307.47461223825746" y1="0" y2="30"/><line opacity="0.2" x1="405.1966476040685" x2="405.1966476040685" y1="0" y2="30"/><line opacity="0.2" x1="465.7086700764361" x2="465.7086700764361" y1="0" y2="30"/><line opacity="0.2" x1="342.50482479326257" x2="342.50482479326257" y1="0" y2="30"/><line opacity="0.2" x1="320.4821309898638" x2="320.4821309898638" y1="0" y2="30"/><line opacity="0.2" x1="318.1128439331075" x2="318.1128439331075" y1="0" y2="30"/><line opacity="0.2" x1="537.1091836726004" x2="537.1091836726004" y1="0" y2="30"/><line opacity="0.2" x1="438.5188426164895" x2="438.5188426164895" y1="0" y2="30"/><line opacity="0.2" x1="377.0643307098028" x2="377.0643307098028" y1="0" y2="30"/><line opacity="0.2" x1="242.46250164529314" x2="242.46250164529314" y1="0" y2="30"/><line opacity="0.2" x1="378.5231375578899" x2="378.5231375578899" y1="0" y2="30"/><line opacity="0.2" x1="248.32915003203215" x2="248.32915003203215" y1="0" y2="30"/><line opacity="0.2" x1="382.15297604696747" x2="382.15297604696747" y1="0" y2="30"/><line opacity="0.2" x1="307.9015158419339" x2="307.9015158419339" y1="0" y2="30"/><line opacity="0.2" x1="311.37776002618614" x2="311.37776002618614" y1="0" y2="30"/><line opacity="0.2" x1="247.07690114205656" x2="247.07690114205656" y1="0" y2="30"/><line opacity="0.2" x1="340.1296624478901" x2="340.1296624478901" y1="0" y2="30"/><line opacity="0.2" x1="480.00045541655476" x2="480.00045541655476" y1="0" y2="30"/><line opacity="0.2" x1="363.3510613113176" x2="363.3510613113176" y1="0" y2="30"/><line opacity="0.2" x1="385.26579466724985" x2="385.26579466724985" y1="0" y2="30"/><line opacity="0.2" x1="336.7245176404302" x2="336.7245176404302" y1="0" y2="30"/><line opacity="0.2" x1="180.5852675513898" x2="180.5852675513898" y1="0" y2="30"/><line opacity="0.2" x1="237.21230124075265" x2="237.21230124075265" y1="0" y2="30"/><line opacity="0.2" x1="256.41131974007214" x2="256.41131974007214" y1="0" y2="30"/><line opacity="0.2" x1="313.2980552725174" x2="313.2980552725174" y1="0" y2="30"/><line opacity="0.2" x1="207.20131666828303" x2="207.20131666828303" y1="0" y2="30"/><line opacity="0.2" x1="214.68903135443477" x2="214.68903135443477" y1="0" y2="30"/><line opacity="0.2" x1="197.88185999715768" x2="197.88185999715768" y1="0" y2="30"/><line opacity="0.2" x1="351.57739126441135" x2="351.57739126441135" y1="0" y2="30"/><line opacity="0.2" x1="340.6536878693081" x2="340.6536878693081" y1="0" y2="30"/><line opacity="0.2" x1="347.5866202160463" x2="347.5866202160463" y1="0" y2="30"/><line opacity="0.2" x1="498.1122246527977" x2="498.1122246527977" y1="0" y2="30"/><line opacity="0.2" x1="369.9489258521828" x2="369.9489258521828" y1="0" y2="30"/><line opacity="0.2" x1="381.85358943378316" x2="381.85358943378316" y1="0" y2="30"/><line opacity="0.2" x1="339.94256312143887" x2="339.94256312143887" y1="0" y2="30"/><line opacity="0.2" x1="473.2683220425346" x2="473.2683220425346" y1="0" y2="30"/><line opacity="0.2" x1="173.78746680598974" x2="173.78746680598974" y1="0" y2="30"/><line opacity="0.2" x1="468.1452518619006" x2="468.1452518619006" y1="0" y2="30"/><line opacity="0.2" x1="263.8166650287906" x2="263.8166650287906" y1="0" y2="30"/><line opacity="0.2" x1="412.53866203428385" x2="412.53866203428385" y1="0" y2="30"/><line opacity="0.2" x1="371.66575091576686" x2="371.66575091576686" y1="0" y2="30"/><line opacity="0.2" x1="266.0612465869421" x2="266.0612465869421" y1="0" y2="30"/><line opacity="0.2" x1="260.24183064318214" x2="260.24183064318214" y1="0" y2="30"/><line opacity="0.2" x1="418.47073670329513" x2="418.47073670329513" y1="0" y2="30"/><line opacity="0.2" x1="222.89355986289002" x2="222.89355986289002" y1="0" y2="30"/><line opacity="0.2" x1="354.84879939246065" x2="354.84879939246065" y1="0" y2="30"/><line opacity="0.2" x1="479.5213490186125" x2="479.5213490186125" y1="0" y2="30"/><line opacity="0.2" x1="426.62093132074347" x2="426.62093132074347" y1="0" y2="30"/><line opacity="0.2" x1="260.86730067320366" x2="260.86730067320366" y1="0" y2="30"/><line opacity="0.2" x1="490.89251934351955" x2="490.89251934351955" y1="0" y2="30"/><line opacity="0.2" x1="293.56336515863774" x2="293.56336515863774" y1="0" y2="30"/><line opacity="0.2" x1="454.31729112763423" x2="454.31729112763423" y1="0" y2="30"/><line opacity="0.2" x1="146.23395848148144" x2="146.23395848148144" y1="0" y2="30"/><line opacity="0.2" x1="419.43562554094825" x2="419.43562554094825" y1="0" y2="30"/><line opacity="0.2" x1="339.8584023595886" x2="339.8584023595886" y1="0" y2="30"/><line opacity="0.2" x1="263.9997163787898" x2="263.9997163787898" y1="0" y2="30"/><line opacity="0.2" x1="305.555944317741" x2="305.555944317741" y1="0" y2="30"/><line opacity="0.2" x1="305.6180502749698" x2="305.6180502749698" y1="0" y2="30"/><line opacity="0.2" x1="248.52296632600644" x2="248.52296632600644" y1="0" y2="30"/><line opacity="0.2" x1="212.85908451611095" x2="212.85908451611095" y1="0" y2="30"/><line opacity="0.2" x1="310.8493098563602" x2="310.8493098563602" y1="0" y2="30"/><line opacity="0.2" x1="326.5972219628848" x2="326.5972219628848" y1="0" y2="30"/><line opacity="0.2" x1="478.1902592668033" x2="478.1902592668033" y1="0" y2="30"/><line opacity="0.2" x1="349.17223437296525" x2="349.17223437296525" y1="0" y2="30"/><line opacity="0.2" x1="345.71740569233293" x2="345.71740569233293" y1="0" y2="30"/><line opacity="0.2" x1="378.5486133729622" x2="378.5486133729622" y1="0" y2="30"/><line opacity="0.2" x1="331.1963732075957" x2="331.1963732075957" y1="0" y2="30"/><line opacity="0.2" x1="207.62321431698487" x2="207.62321431698487" y1="0" y2="30"/><line opacity="0.2" x1="356.7418111435882" x2="356.7418111435882" y1="0" y2="30"/><line opacity="0.2" x1="308.0017459529474" x2="308.0017459529474" y1="0" y2="30"/><line opacity="0.2" x1="309.77590099279183" x2="309.77590099279183" y1="0" y2="30"/><line opacity="0.2" x1="363.538525025606" x2="363.538525025606" y1="0" y2="30"/><line opacity="0.2" x1="240.6937855593952" x2="240.6937855593952" y1="0" y2="30"/><line opacity="0.2" x1="163.7287533629926" x2="163.7287533629926" y1="0" y2="30"/><line opacity="0.2" x1="227.87345085337046" x2="227.87345085337046" y1="0" y2="30"/><line opacity="0.2" x1="300.727116579758" x2="300.727116579758" y1="0" y2="30"/><line opacity="0.2" x1="236.75626446607902" x2="236.75626446607902" y1="0" y2="30"/><line opacity="0.2" x1="497.2991509765737" x2="497.2991509765737" y1="0" y2="30"/><line opacity="0.2" x1="389.5342584001531" x2="389.5342584001531" y1="0" y2="30"/><line opacity="0.2" x1="159.22456330987495" x2="159.22456330987495" y1="0" y2="30"/><line opacity="0.2" x1="458.61167098591767" x2="458.61167098591767" y1="0" y2="30"/><line opacity="0.2" x1="244.41217303077207" x2="244.41217303077207" y1="0" y2="30"/><line opacity="0.2" x1="429.55495101067555" x2="429.55495101067555" y1="0" y2="30"/><line opacity="0.2" x1="288.3827143377" x2="288.3827143377" y1="0" y2="30"/><line opacity="0.2" x1="427.63647472252376" x2="427.63647472252376" y1="0" y2="30"/><line opacity="0.2" x1="236.34941407434528" x2="236.34941407434528" y1="0" y2="30"/><line opacity="0.2" x1="381.52211293936944" x2="381.52211293936944" y1="0" y2="30"/><line opacity="0.2" x1="361.4694920239192" x2="361.4694920239192" y1="0" y2="30"/><line opacity="0.2" x1="387.8834129638749" x2="387.8834129638749" y1="0" y2="30"/><line opacity="0.2" x1="363.85634904959" x2="363.85634904959" y1="0" y2="30"/><line opacity="0.2" x1="397.4206590209804" x2="397.4206590209804" y1="0" y2="30"/><line opacity="0.2" x1="308.97618482785936" x2="308.97618482785936" y1="0" y2="30"/><line opacity="0.2" x1="360.2234865954179" x2="360.2234865954179" y1="0" y2="30"/><line opacity="0.2" x1="327.04230430917687" x2="327.04230430917687" y1="0" y2="30"/><line opacity="0.2" x1="348.47147206367106" x2="348.47147206367106" y1="0" y2="30"/><line opacity="0.2" x1="322.6032865102377" x2="322.6032865102377" y1="0" y2="30"/><line opacity="0.2" x1="243.05589699047118" x2="243.05589699047118" y1="0" y2="30"/><line opacity="0.2" x1="330.66957466874794" x2="330.66957466874794" y1="0" y2="30"/><line opacity="0.2" x1="506.8698992961265" x2="506.8698992961265" y1="0" y2="30"/><line opacity="0.2" x1="203.3489559782557" x2="203.3489559782557" y1="0" y2="30"/><line opacity="0.2" x1="343.7464544006488" x2="343.7464544006488" y1="0" y2="30"/><line opacity="0.2" x1="442.61779420851974" x2="442.61779420851974" y1="0" y2="30"/><line opacity="0.2" x1="273.11833010990426" x2="273.11833010990426" y1="0" y2="30"/><line opacity="0.2" x1="460.5393594139397" x2="460.5393594139397" y1="0" y2="30"/><line opacity="0.2" x1="335.4914290450212" x2="335.4914290450212" y1="0" y2="30"/><line opacity="0.2" x1="177.18334431235567" x2="177.18334431235567" y1="0" y2="30"/><line opacity="0.2" x1="406.35056302392604" x2="406.35056302392604" y1="0" y2="30"/><line opacity="0.2" x1="480.2366844158737" x2="480.2366844158737" y1="0" y2="30"/><line opacity="0.2" x1="345.4323681715691" x2="345.4323681715691" y1="0" y2="30"/><line opacity="0.2" x1="393.28025931587837" x2="393.28025931587837" y1="0" y2="30"/><line opacity="0.2" x1="345.19045598549536" x2="345.19045598549536" y1="0" y2="30"/><line opacity="0.2" x1="391.8671464681995" x2="391.8671464681995" y1="0" y2="30"/><line opacity="0.2" x1="392.2091439268882" x2="392.2091439268882" y1="0" y2="30"/><line opacity="0.2" x1="416.22598239348827" x2="416.22598239348827" y1="0" y2="30"/><line opacity="0.2" x1="217.79168259686202" x2="217.79168259686202" y1="0" y2="30"/><line opacity="0.2" x1="185.5621282056572" x2="185.5621282056572" y1="0" y2="30"/><line opacity="0.2" x1="156.58095954657145" x2="156.58095954657145" y1="0" y2="30"/><line opacity="0.2" x1="529.3581858131247" x2="529.3581858131247" y1="0" y2="30"/><line opacity="0.2" x1="418.116785491584" x2="418.116785491584" y1="0" y2="30"/><line opacity="0.2" x1="426.8762592981992" x2="426.8762592981992" y1="0" y2="30"/><line opacity="0.2" x1="416.4309038097983" x2="416.4309038097983" y1="0" y2="30"/><line opacity="0.2" x1="377.5396398687433" x2="377.5396398687433" y1="0" y2="30"/><line opacity="0.2" x1="465.48827884460337" x2="465.48827884460337" y1="0" y2="30"/><line opacity="0.2" x1="376.222963250839" x2="376.222963250839" y1="0" y2="30"/><line opacity="0.2" x1="339.6965755371001" x2="339.6965755371001" y1="0" y2="30"/><line opacity="0.2" x1="261.4195838129843" x2="261.4195838129843" y1="0" y2="30"/><line opacity="0.2" x1="358.56845583658423" x2="358.56845583658423" y1="0" y2="30"/><line opacity="0.2" x1="371.1470218904483" x2="371.1470218904483" y1="0" y2="30"/><line opacity="0.2" x1="237.84263666452551" x2="237.84263666452551" y1="0" y2="30"/><line opacity="0.2" x1="226.1283465550095" x2="226.1283465550095" y1="0" y2="30"/><line opacity="0.2" x1="519.3084205883641" x2="519.3084205883641" y1="0" y2="30"/><line opacity="0.2" x1="474.0991230079297" x2="474.0991230079297" y1="0" y2="30"/><line opacity="0.2" x1="314.51956940196965" x2="314.51956940196965" y1="0" y2="30"/><line opacity="0.2" x1="264.6801643608909" x2="264.6801643608909" y1="0" y2="30"/><line opacity="0.2" x1="400.2591610919933" x2="400.2591610919933" y1="0" y2="30"/><line opacity="0.2" x1="292.44199535054173" x2="292.44199535054173" y1="0" y2="30"/><line opacity="0.2" x1="508.92823202984744" x2="508.92823202984744" y1="0" y2="30"/><line opacity="0.2" x1="217.51522778800953" x2="217.51522778800953" y1="0" y2="30"/><line opacity="0.2" x1="462.9688193575964" x2="462.9688193575964" y1="0" y2="30"/><line opacity="0.2" x1="278.10533281133627" x2="278.10533281133627" y1="0" y2="30"/><line opacity="0.2" x1="579.0371778954478" x2="579.0371778954478" y1="0" y2="30"/><line opacity="0.2" x1="305.0617101228846" x2="305.0617101228846" y1="0" y2="30"/><line opacity="0.2" x1="310.47724520332076" x2="310.47724520332076" y1="0" y2="30"/><line opacity="0.2" x1="290.7128375543116" x2="290.7128375543116" y1="0" y2="30"/><line opacity="0.2" x1="358.9252409553086" x2="358.9252409553086" y1="0" y2="30"/><line opacity="0.2" x1="279.8818403860532" x2="279.8818403860532" y1="0" y2="30"/><line opacity="0.2" x1="323.8510515019357" x2="323.8510515019357" y1="0" y2="30"/><line opacity="0.2" x1="492.72958803545254" x2="492.72958803545254" y1="0" y2="30"/><line opacity="0.2" x1="20" x2="20" y1="0" y2="30"/><line opacity="0.2" x1="408.7891513267339" x2="408.7891513267339" y1="0" y2="30"/><line opacity="0.2" x1="369.7870862508076" x2="369.7870862508076" y1="0" y2="30"/><line opacity="0.2" x1="501.931226282616" x2="501.931226282616" y1="0" y2="30"/><line opacity="0.2" x1="403.7760041481054" x2="403.7760041481054" y1="0" y2="30"/><line opacity="0.2" x1="315.20257646494935" x2="315.20257646494935" y1="0" y2="30"/><line opacity="0.2" x1="300.29737499873374" x2="300.29737499873374" y1="0" y2="30"/><line opacity="0.2" x1="506.89207838402854" x2="506.89207838402854" y1="0" y2="30"/><line opacity="0.2" x1="481.9281749038064" x2="481.9281749038064" y1="0" y2="30"/><line opacity="0.2" x1="418.73375684580645" x2="418.73375684580645" y1="0" y2="30"/><line opacity="0.2" x1="414.0371393127171" x2="414.0371393127171" y1="0" y2="30"/><line opacity="0.2" x1="340.92799700289225" x2="340.92799700289225" y1="0" y2="30"/><line opacity="0.2" x1="294.23565398486437" x2="294.23565398486437" y1="0" y2="30"/><line opacity="0.2" x1="162.34961488952018" x2="162.34961488952018" y1="0" y2="30"/><line opacity="0.2" x1="266.96781754642353" x2="266.96781754642353" y1="0" y2="30"/><line opacity="0.2" x1="238.8613209368591" x2="238.8613209368591" y1="0" y2="30"/><line opacity="0.2" x1="256.73419974356875" x2="256.73419974356875" y1="0" y2="30"/><line opacity="0.2" x1="416.6322725952168" x2="416.6322725952168" y1="0" y2="30"/><line opacity="0.2" x1="398.3396043961126" x2="398.3396043961126" y1="0" y2="30"/></g></svg>