<svg xmlns="http://www.w3.org/2000/svg" xmlns:xlink="http://www.w3.org/1999/xlink" class="plot-d6a7b5" fill="currentColor" font-family="system-ui, sans-serif" font-size="10" text-anchor="middle" width="640" height="400" viewBox="0 0 640 400" style="color: black; background-color: white;"><style>.plot-d6a7b5 {
  display: block;
  background: white;
  height: auto;
  height: intrinsic;
  max-width: 100%;
}
.plot-d6a7b5 text,
.plot-d6a7b5 tspan {
  white-space: pre;
}</style><g aria-label="y-axis tick" fill="none" stroke="currentColor"><path transform="translate(40,377.9238569329109)" d="M0,0L-6,0"/><path transform="translate(40,350.3912525534562)" d="M0,0L-6,0"/><path transform="translate(40,322.85864817400153)" d="M0,0L-6,0"/><path transform="translate(40,295.3260437945468)" d="M0,0L-6,0"/><path transform="translate(40,267.79343941509217)" d="M0,0L-6,0"/><path transform="translate(40,240.26083503563748)" d="M0,0L-6,0"/><path transform="translate(40,212.7282306561828)" d="M0,0L-6,0"/><path transform="translate(40,185.1956262767281)" d="M0,0L-6,0"/><path transform="translate(40,157.6630218972734)" d="M0,0L-6,0"/><path transform="translate(40,130.13041751781873)" d="M0,0L-6,0"/><path transform="translate(40,102.59781313836407)" d="M0,0L-6,0"/><path transform="translate(40,75.06520875890935)" d="M0,0L-6,0"/><path transform="translate(40,47.532604379454675)" d="M0,0L-6,0"/><path transform="translate(40,20)" d="M0,0L-6,0"/></g><g aria-label="y-axis tick label" text-anchor="end" font-variant="tabular-nums" transform="translate(-9,0)"><text y="0.32em" transform="translate(40,377.9238569329109)">−13</text><text y="0.32em" transform="translate(40,350.3912525534562)">−12</text><text y="0.32em" transform="translate(40,322.85864817400153)">−11</text><text y="0.32em" transform="translate(40,295.3260437945468)">−10</text><text y="0.32em" transform="translate(40,267.79343941509217)">−9</text><text y="0.32em" transform="translate(40,240.26083503563748)">−8</text><text y="0.32em" transform="translate(40,212.7282306561828)">−7</text><text y="0.32em" transform="translate(40,185.1956262767281)">−6</text><text y="0.32em" transform="translate(40,157.6630218972734)">−5</text><text y="0.32em" transform="translate(40,130.13041751781873)">−4</text><text y="0.32em" transform="translate(40,102.59781313836407)">−3</text><text y="0.32em" transform="translate(40,75.06520875890935)">−2</text><text y="0.32em" transform="translate(40,47.532604379454675)">−1</text><text y="0.32em" transform="translate(40,20)">0</text></g><g aria-label="rule" stroke="steelblue"><line x1="40" x2="639.5" y1="20" y2="20"/></g><g aria-label="line" fill="none" stroke="currentColor" stroke-width="1.5" stroke-linejoin="round" stroke-linecap="round"><path d="M40,30.603L46.056,40.03L52.111,24.822L58.167,72.155L64.222,145.748L70.278,226.028L76.333,241.15L82.389,258.449L88.444,263.337L94.5,246.788L100.556,243.012L106.611,228.695L112.667,220.856L118.722,238.258L124.778,247.596L130.833,243.466L136.889,167.958L142.944,228.388L149,212.766L155.056,235.295L161.111,205.827L167.167,217.025L173.222,201.709L179.278,258.843L185.333,210.832L191.389,211.604L197.444,232.604L203.5,233.782L209.556,271.259L215.611,262.115L221.667,224.965L227.722,259.69L233.778,220.392L239.833,227.304L245.889,205.605L251.944,202.758L258,168.646L264.056,234.459L270.111,220.386L276.167,240.254L282.222,271.902L288.278,303.401L294.333,291.393L300.389,314.914L306.444,273.318L312.5,302.911L318.556,336.212L324.611,340.81L330.667,326.883L336.722,357.551L342.778,380L348.833,360.612L354.889,327.18L360.944,283.694L367,346.105L373.056,326.969L379.111,293.049L385.167,294.928L391.222,268.45L397.278,270.189L403.333,280.529L409.389,278.521L415.444,256.778L421.5,263.287L427.556,256.557L433.611,284.798L439.667,276.739L445.722,259.787L451.778,217.788L457.833,188.43L463.889,207.58L469.944,184.299L476,157.233L482.056,153.25L488.111,145.414L494.167,163.147L500.222,167.046L506.278,203.925L512.333,198.316L518.389,223.048L524.444,249.696L530.5,258.999L536.556,263.817L542.611,256.6L548.667,273.42L554.722,298.887L560.778,321.851L566.833,305.3L572.889,332.462L578.944,360.887L585,339.749L591.056,310.105L597.111,287.483L603.167,276.547L609.222,336.152L615.278,348.12L621.333,336.254L627.389,362.606L633.444,362.638L639.5,312.963"/></g></svg>