<svg xmlns="http://www.w3.org/2000/svg" xmlns:xlink="http://www.w3.org/1999/xlink" class="plot-d6a7b5" fill="currentColor" font-family="system-ui, sans-serif" font-size="10" text-anchor="middle" width="640" height="400" viewBox="0 0 640 400" style="color: black; background-color: white;"><style>:where(.plot-d6a7b5) {
  --plot-background: white;
  display: block;
  height: auto;
  height: intrinsic;
  max-width: 100%;
}
:where(.plot-d6a7b5 text),
:where(.plot-d6a7b5 tspan) {
  white-space: pre;
}</style><g aria-label="y-axis tick" fill="none" stroke="currentColor"><path transform="translate(40,376.700834540699)" d="M0,0L-6,0"/><path transform="translate(40,327.6562861026912)" d="M0,0L-6,0"/><path transform="translate(40,278.61173766468335)" d="M0,0L-6,0"/><path transform="translate(40,229.56718922667545)" d="M0,0L-6,0"/><path transform="translate(40,180.52264078866764)" d="M0,0L-6,0"/><path transform="translate(40,131.47809235065978)" d="M0,0L-6,0"/><path transform="translate(40,82.43354391265194)" d="M0,0L-6,0"/><path transform="translate(40,33.3889954746441)" d="M0,0L-6,0"/></g><g aria-label="y-axis tick label" text-anchor="end" font-variant="tabular-nums" transform="translate(-9,0)"><text y="0.32em" transform="translate(40,376.700834540699)">−8</text><text y="0.32em" transform="translate(40,327.6562861026912)">−6</text><text y="0.32em" transform="translate(40,278.61173766468335)">−4</text><text y="0.32em" transform="translate(40,229.56718922667545)">−2</text><text y="0.32em" transform="translate(40,180.52264078866764)">0</text><text y="0.32em" transform="translate(40,131.47809235065978)">2</text><text y="0.32em" transform="translate(40,82.43354391265194)">4</text><text y="0.32em" transform="translate(40,33.3889954746441)">6</text></g><g aria-label="rule" stroke="steelblue"><line x1="40" x2="639.5" y1="180.52264078866764" y2="180.52264078866764"/></g><g aria-label="line" fill="none" stroke="currentColor" stroke-width="1.5" stroke-linejoin="round" stroke-linecap="round"><path d="M40,170.066L46.056,161.999L52.111,108.358L58.167,104.634L64.222,85.137L70.278,99.147L76.333,101.782L82.389,74.365L88.444,78.102L94.5,86.511L100.556,68.581L106.611,86.935L112.667,49.066L118.722,25.022L124.778,20L130.833,33.957L136.889,41.37L142.944,49.373L149,117.846L155.056,98.672L161.111,39.955L167.167,34.566L173.222,53.926L179.278,46.065L185.333,87.708L191.389,50.163L197.444,87.49L203.5,107.618L209.556,121.935L215.611,123.595L221.667,159.74L227.722,132.525L233.778,189.2L239.833,171.911L245.889,192.801L251.944,184.258L258,235.801L264.056,270.996L270.111,269.233L276.167,279.472L282.222,256.375L288.278,234.949L294.333,216.139L300.389,238.639L306.444,204.036L312.5,210.24L318.556,196.77L324.611,128.901L330.667,141.879L336.722,133.781L342.778,104.604L348.833,131.06L354.889,167.2L360.944,128.986L367,147.705L373.056,136.076L379.111,128.65L385.167,170.25L391.222,188.062L397.278,161.185L403.333,148.711L409.389,171.218L415.444,174.73L421.5,181.905L427.556,199.426L433.611,244.666L439.667,259.11L445.722,314.559L451.778,331.734L457.833,343.679L463.889,365.945L469.944,380L476,376.542L482.056,367.67L488.111,341.86L494.167,306.388L500.222,320.096L506.278,310.316L512.333,367.406L518.389,335.706L524.444,374.521L530.5,349.306L536.556,308.529L542.611,319.949L548.667,295.006L554.722,275.849L560.778,242.162L566.833,217.353L572.889,208.973L578.944,213.409L585,210.084L591.056,191.613L597.111,205.079L603.167,257.426L609.222,273.919L615.278,253.678L621.333,225.56L627.389,262.919L633.444,332.004L639.5,311.406"/></g></svg>