<svg xmlns="http://www.w3.org/2000/svg" xmlns:xlink="http://www.w3.org/1999/xlink" class="plot-7e28a435e1d11" fill="currentColor" font-family="system-ui, sans-serif" font-size="10" text-anchor="middle" width="640" height="400" viewBox="0 0 640 400" style="color: black;"><style>
        .plot-7e28a435e1d11 {
          display: block;
          background: white;
          height: auto;
          height: intrinsic;
          max-width: 100%;
        }
        .plot-7e28a435e1d11 text,
        .plot-7e28a435e1d11 tspan {
          white-space: pre;
        }
      </style><g aria-label="y-axis tick" fill="none" stroke="currentColor" transform="translate(0,0.5)"><path transform="translate(40,340.68364441411984)" d="M0,0L-6,0"/><path transform="translate(40,294.9881803948646)" d="M0,0L-6,0"/><path transform="translate(40,249.29271637560933)" d="M0,0L-6,0"/><path transform="translate(40,203.59725235635406)" d="M0,0L-6,0"/><path transform="translate(40,157.90178833709882)" d="M0,0L-6,0"/><path transform="translate(40,112.20632431784357)" d="M0,0L-6,0"/><path transform="translate(40,66.51086029858827)" d="M0,0L-6,0"/><path transform="translate(40,20.815396279333008)" d="M0,0L-6,0"/></g><g aria-label="y-axis tick label" text-anchor="end" font-variant="tabular-nums" transform="translate(-8.5,0.5)"><text y="0.32em" transform="translate(40,340.68364441411984)">−1</text><text y="0.32em" transform="translate(40,294.9881803948646)">0</text><text y="0.32em" transform="translate(40,249.29271637560933)">1</text><text y="0.32em" transform="translate(40,203.59725235635406)">2</text><text y="0.32em" transform="translate(40,157.90178833709882)">3</text><text y="0.32em" transform="translate(40,112.20632431784357)">4</text><text y="0.32em" transform="translate(40,66.51086029858827)">5</text><text y="0.32em" transform="translate(40,20.815396279333008)">6</text></g><g aria-label="line" fill="none" stroke="currentColor" stroke-width="1.5" stroke-linejoin="round" stroke-linecap="round" transform="translate(0.5,0.5)"><path d="M40,353.734L46.051,323.586L52.101,367.09L58.152,323.78L64.202,339.037L70.253,315.435L76.303,306.997L82.354,319.31L88.404,346.184L94.455,283.001L100.505,279.214L106.556,322.357L112.606,304.964L118.657,271.969L124.707,270.275L130.758,224L136.808,288.434L142.859,345.524L148.909,239.037L154.96,235.952L161.01,227.196L167.061,197.836L173.111,178.976L179.162,116.326L185.212,215.004L191.263,193.53L197.313,210.572L203.364,282.58L209.414,292.063L215.465,271.944L221.515,267.486L227.566,246.672L233.616,246.933L239.667,272.908L245.717,254.9L251.768,267.831L257.818,298.813L263.869,284.16L269.919,292.6L275.97,317.826L282.02,292.715L288.071,269.672L294.121,256.369L300.172,281.534L306.222,378.46L312.273,341.191L318.323,380L324.374,354.056L330.424,299.439L336.475,273.814L342.525,281.993L348.576,216.805L354.626,201.134L360.677,205.459L366.727,168.61L372.778,140.654L378.828,200.804L384.879,207.208L390.929,241.927L396.98,180.491L403.03,244.29L409.081,279.067L415.131,297.887L421.182,268.094L427.232,354.014L433.283,309.846L439.333,250.905L445.384,199.382L451.434,163.893L457.485,108.864L463.535,139.47L469.586,149.594L475.636,111.335L481.687,78.095L487.737,87.499L493.788,74.859L499.838,82.045L505.889,134.839L511.939,128.889L517.99,35.686L524.04,20.419L530.091,74.302L536.141,35.842L542.192,61.02L548.242,25.659L554.293,20L560.343,72.623L566.394,71.956L572.444,147.737L578.495,86.919L584.545,49.035L590.596,133.36L596.646,162.921L602.697,196.574L608.747,252.119L614.798,222.691L620.848,264.103L626.899,274.877L632.949,303.592L639,308.978"/></g></svg>