<svg xmlns="http://www.w3.org/2000/svg" xmlns:xlink="http://www.w3.org/1999/xlink" class="plot-d6a7b5" fill="currentColor" font-family="system-ui, sans-serif" font-size="10" text-anchor="middle" width="640" height="60" viewBox="0 0 640 60" style="color: black; background-color: white;"><style>:where(.plot-d6a7b5) {
  --plot-background: white;
  display: block;
  height: auto;
  height: intrinsic;
  max-width: 100%;
}
:where(.plot-d6a7b5 text),
:where(.plot-d6a7b5 tspan) {
  white-space: pre;
}</style><g aria-label="x-axis tick" aria-hidden="true" fill="none" stroke="currentColor"><path transform="translate(39.36611795617503,30)" d="M0,0L0,6"/><path transform="translate(123.61774373054364,30)" d="M0,0L0,6"/><path transform="translate(207.86936950491227,30)" d="M0,0L0,6"/><path transform="translate(292.1209952792809,30)" d="M0,0L0,6"/><path transform="translate(376.3726210536496,30)" d="M0,0L0,6"/><path transform="translate(460.62424682801816,30)" d="M0,0L0,6"/><path transform="translate(544.8758726023868,30)" d="M0,0L0,6"/></g><g aria-label="x-axis tick label" font-variant="tabular-nums" transform="translate(0,9)"><text y="0.71em" transform="translate(39.36611795617503,30)">−3</text><text y="0.71em" transform="translate(123.61774373054364,30)">−2</text><text y="0.71em" transform="translate(207.86936950491227,30)">−1</text><text y="0.71em" transform="translate(292.1209952792809,30)">0</text><text y="0.71em" transform="translate(376.3726210536496,30)">1</text><text y="0.71em" transform="translate(460.62424682801816,30)">2</text><text y="0.71em" transform="translate(544.8758726023868,30)">3</text></g><g aria-label="tick" stroke="steelblue"><line opacity="0.2" x1="250.13226700003898" x2="250.13226700003898" y1="0.5" y2="30"/><line opacity="0.2" x1="414.7717050601856" x2="414.7717050601856" y1="0.5" y2="30"/><line opacity="0.2" x1="244.5822759844284" x2="244.5822759844284" y1="0.5" y2="30"/><line opacity="0.2" x1="290.3199679043292" x2="290.3199679043292" y1="0.5" y2="30"/><line opacity="0.2" x1="324.967951129796" x2="324.967951129796" y1="0.5" y2="30"/><line opacity="0.2" x1="242.32883684585488" x2="242.32883684585488" y1="0.5" y2="30"/><line opacity="0.2" x1="439.74826519624696" x2="439.74826519624696" y1="0.5" y2="30"/><line opacity="0.2" x1="271.5222439994619" x2="271.5222439994619" y1="0.5" y2="30"/><line opacity="0.2" x1="376.0731777184268" x2="376.0731777184268" y1="0.5" y2="30"/><line opacity="0.2" x1="280.79114928041645" x2="280.79114928041645" y1="0.5" y2="30"/><line opacity="0.2" x1="404.374981497802" x2="404.374981497802" y1="0.5" y2="30"/><line opacity="0.2" x1="335.4849558746106" x2="335.4849558746106" y1="0.5" y2="30"/><line opacity="0.2" x1="214.20745441950797" x2="214.20745441950797" y1="0.5" y2="30"/><line opacity="0.2" x1="324.99962711079843" x2="324.99962711079843" y1="0.5" y2="30"/><line opacity="0.2" x1="317.11294803510754" x2="317.11294803510754" y1="0.5" y2="30"/><line opacity="0.2" x1="286.55221246778177" x2="286.55221246778177" y1="0.5" y2="30"/><line opacity="0.2" x1="188.81732120018714" x2="188.81732120018714" y1="0.5" y2="30"/><line opacity="0.2" x1="225.2758137024022" x2="225.2758137024022" y1="0.5" y2="30"/><line opacity="0.2" x1="294.7385887185505" x2="294.7385887185505" y1="0.5" y2="30"/><line opacity="0.2" x1="236.42897835385907" x2="236.42897835385907" y1="0.5" y2="30"/><line opacity="0.2" x1="426.2599413449515" x2="426.2599413449515" y1="0.5" y2="30"/><line opacity="0.2" x1="361.4152592791383" x2="361.4152592791383" y1="0.5" y2="30"/><line opacity="0.2" x1="252.38103939956878" x2="252.38103939956878" y1="0.5" y2="30"/><line opacity="0.2" x1="325.559261395893" x2="325.559261395893" y1="0.5" y2="30"/><line opacity="0.2" x1="200.77934059366157" x2="200.77934059366157" y1="0.5" y2="30"/><line opacity="0.2" x1="171.01658379863176" x2="171.01658379863176" y1="0.5" y2="30"/><line opacity="0.2" x1="360.29833637008556" x2="360.29833637008556" y1="0.5" y2="30"/><line opacity="0.2" x1="279.59099479171914" x2="279.59099479171914" y1="0.5" y2="30"/><line opacity="0.2" x1="146.21960456345397" x2="146.21960456345397" y1="0.5" y2="30"/><line opacity="0.2" x1="258.6942811386897" x2="258.6942811386897" y1="0.5" y2="30"/><line opacity="0.2" x1="297.8215604742112" x2="297.8215604742112" y1="0.5" y2="30"/><line opacity="0.2" x1="379.2423427178756" x2="379.2423427178756" y1="0.5" y2="30"/><line opacity="0.2" x1="285.3683735173454" x2="285.3683735173454" y1="0.5" y2="30"/><line opacity="0.2" x1="321.4490460326535" x2="321.4490460326535" y1="0.5" y2="30"/><line opacity="0.2" x1="291.5469769543276" x2="291.5469769543276" y1="0.5" y2="30"/><line opacity="0.2" x1="245.4162066238526" x2="245.4162066238526" y1="0.5" y2="30"/><line opacity="0.2" x1="269.76880348858657" x2="269.76880348858657" y1="0.5" y2="30"/><line opacity="0.2" x1="366.9217608219735" x2="366.9217608219735" y1="0.5" y2="30"/><line opacity="0.2" x1="344.6524611819947" x2="344.6524611819947" y1="0.5" y2="30"/><line opacity="0.2" x1="429.4819665838452" x2="429.4819665838452" y1="0.5" y2="30"/><line opacity="0.2" x1="210.21810711612454" x2="210.21810711612454" y1="0.5" y2="30"/><line opacity="0.2" x1="144.38144160617995" x2="144.38144160617995" y1="0.5" y2="30"/><line opacity="0.2" x1="213.01670591134072" x2="213.01670591134072" y1="0.5" y2="30"/><line opacity="0.2" x1="344.4597827979265" x2="344.4597827979265" y1="0.5" y2="30"/><line opacity="0.2" x1="288.58393045699944" x2="288.58393045699944" y1="0.5" y2="30"/><line opacity="0.2" x1="304.7853972561393" x2="304.7853972561393" y1="0.5" y2="30"/><line opacity="0.2" x1="192.14100050627488" x2="192.14100050627488" y1="0.5" y2="30"/><line opacity="0.2" x1="347.2454536879273" x2="347.2454536879273" y1="0.5" y2="30"/><line opacity="0.2" x1="248.7202844230939" x2="248.7202844230939" y1="0.5" y2="30"/><line opacity="0.2" x1="310.6843860620737" x2="310.6843860620737" y1="0.5" y2="30"/><line opacity="0.2" x1="153.70795574526272" x2="153.70795574526272" y1="0.5" y2="30"/><line opacity="0.2" x1="327.86289356804394" x2="327.86289356804394" y1="0.5" y2="30"/><line opacity="0.2" x1="412.11760192783555" x2="412.11760192783555" y1="0.5" y2="30"/><line opacity="0.2" x1="252.81356501032948" x2="252.81356501032948" y1="0.5" y2="30"/><line opacity="0.2" x1="241.03846258336887" x2="241.03846258336887" y1="0.5" y2="30"/><line opacity="0.2" x1="400.4125007096732" x2="400.4125007096732" y1="0.5" y2="30"/><line opacity="0.2" x1="201.33508322968345" x2="201.33508322968345" y1="0.5" y2="30"/><line opacity="0.2" x1="395.712276511086" x2="395.712276511086" y1="0.5" y2="30"/><line opacity="0.2" x1="358.45137924826827" x2="358.45137924826827" y1="0.5" y2="30"/><line opacity="0.2" x1="384.54455530419267" x2="384.54455530419267" y1="0.5" y2="30"/><line opacity="0.2" x1="352.6971743853161" x2="352.6971743853161" y1="0.5" y2="30"/><line opacity="0.2" x1="333.29794192235954" x2="333.29794192235954" y1="0.5" y2="30"/><line opacity="0.2" x1="65.06427611183807" x2="65.06427611183807" y1="0.5" y2="30"/><line opacity="0.2" x1="289.55997298579973" x2="289.55997298579973" y1="0.5" y2="30"/><line opacity="0.2" x1="233.7278702547665" x2="233.7278702547665" y1="0.5" y2="30"/><line opacity="0.2" x1="235.76783578597636" x2="235.76783578597636" y1="0.5" y2="30"/><line opacity="0.2" x1="202.68344459599834" x2="202.68344459599834" y1="0.5" y2="30"/><line opacity="0.2" x1="210.19673791345423" x2="210.19673791345423" y1="0.5" y2="30"/><line opacity="0.2" x1="263.9398094989774" x2="263.9398094989774" y1="0.5" y2="30"/><line opacity="0.2" x1="325.48369259423805" x2="325.48369259423805" y1="0.5" y2="30"/><line opacity="0.2" x1="283.54700981768707" x2="283.54700981768707" y1="0.5" y2="30"/><line opacity="0.2" x1="346.61673904821237" x2="346.61673904821237" y1="0.5" y2="30"/><line opacity="0.2" x1="189.79399420860008" x2="189.79399420860008" y1="0.5" y2="30"/><line opacity="0.2" x1="289.88985444295855" x2="289.88985444295855" y1="0.5" y2="30"/><line opacity="0.2" x1="249.48279969483917" x2="249.48279969483917" y1="0.5" y2="30"/><line opacity="0.2" x1="355.24645569116933" x2="355.24645569116933" y1="0.5" y2="30"/><line opacity="0.2" x1="252.12907579746076" x2="252.12907579746076" y1="0.5" y2="30"/><line opacity="0.2" x1="161.26247182043264" x2="161.26247182043264" y1="0.5" y2="30"/><line opacity="0.2" x1="442.9606293529426" x2="442.9606293529426" y1="0.5" y2="30"/><line opacity="0.2" x1="265.31493254928637" x2="265.31493254928637" y1="0.5" y2="30"/><line opacity="0.2" x1="256.31001486462446" x2="256.31001486462446" y1="0.5" y2="30"/><line opacity="0.2" x1="187.8338803056113" x2="187.8338803056113" y1="0.5" y2="30"/><line opacity="0.2" x1="336.28992204460707" x2="336.28992204460707" y1="0.5" y2="30"/><line opacity="0.2" x1="238.23768414829152" x2="238.23768414829152" y1="0.5" y2="30"/><line opacity="0.2" x1="494.0508998365721" x2="494.0508998365721" y1="0.5" y2="30"/><line opacity="0.2" x1="306.6577057251219" x2="306.6577057251219" y1="0.5" y2="30"/><line opacity="0.2" x1="184.07643766985348" x2="184.07643766985348" y1="0.5" y2="30"/><line opacity="0.2" x1="412.80851540011207" x2="412.80851540011207" y1="0.5" y2="30"/><line opacity="0.2" x1="232.06710287028523" x2="232.06710287028523" y1="0.5" y2="30"/><line opacity="0.2" x1="414.8635368483433" x2="414.8635368483433" y1="0.5" y2="30"/><line opacity="0.2" x1="227.09835485461088" x2="227.09835485461088" y1="0.5" y2="30"/><line opacity="0.2" x1="224.76791619014912" x2="224.76791619014912" y1="0.5" y2="30"/><line opacity="0.2" x1="282.81527857770277" x2="282.81527857770277" y1="0.5" y2="30"/><line opacity="0.2" x1="372.23052482300386" x2="372.23052482300386" y1="0.5" y2="30"/><line opacity="0.2" x1="463.6192061224685" x2="463.6192061224685" y1="0.5" y2="30"/><line opacity="0.2" x1="463.04126467571047" x2="463.04126467571047" y1="0.5" y2="30"/><line opacity="0.2" x1="170.39152525523446" x2="170.39152525523446" y1="0.5" y2="30"/><line opacity="0.2" x1="310.1215597647816" x2="310.1215597647816" y1="0.5" y2="30"/><line opacity="0.2" x1="314.21393685043836" x2="314.21393685043836" y1="0.5" y2="30"/><line opacity="0.2" x1="372.51761263138496" x2="372.51761263138496" y1="0.5" y2="30"/><line opacity="0.2" x1="246.45777004329045" x2="246.45777004329045" y1="0.5" y2="30"/><line opacity="0.2" x1="240.95622913430867" x2="240.95622913430867" y1="0.5" y2="30"/><line opacity="0.2" x1="350.42531365100547" x2="350.42531365100547" y1="0.5" y2="30"/><line opacity="0.2" x1="379.3848150895274" x2="379.3848150895274" y1="0.5" y2="30"/><line opacity="0.2" x1="205.4413250893883" x2="205.4413250893883" y1="0.5" y2="30"/><line opacity="0.2" x1="298.73505444501075" x2="298.73505444501075" y1="0.5" y2="30"/><line opacity="0.2" x1="168.3814130116662" x2="168.3814130116662" y1="0.5" y2="30"/><line opacity="0.2" x1="338.4692595529301" x2="338.4692595529301" y1="0.5" y2="30"/><line opacity="0.2" x1="375.6440427374681" x2="375.6440427374681" y1="0.5" y2="30"/><line opacity="0.2" x1="447.4863881960508" x2="447.4863881960508" y1="0.5" y2="30"/><line opacity="0.2" x1="265.86435827936987" x2="265.86435827936987" y1="0.5" y2="30"/><line opacity="0.2" x1="192.19776856922962" x2="192.19776856922962" y1="0.5" y2="30"/><line opacity="0.2" x1="351.45494054941673" x2="351.45494054941673" y1="0.5" y2="30"/><line opacity="0.2" x1="285.0836433759736" x2="285.0836433759736" y1="0.5" y2="30"/><line opacity="0.2" x1="273.6646911866271" x2="273.6646911866271" y1="0.5" y2="30"/><line opacity="0.2" x1="202.77378683038143" x2="202.77378683038143" y1="0.5" y2="30"/><line opacity="0.2" x1="295.8882236854578" x2="295.8882236854578" y1="0.5" y2="30"/><line opacity="0.2" x1="315.87017389702163" x2="315.87017389702163" y1="0.5" y2="30"/><line opacity="0.2" x1="327.0642480239321" x2="327.0642480239321" y1="0.5" y2="30"/><line opacity="0.2" x1="172.47740667212395" x2="172.47740667212395" y1="0.5" y2="30"/><line opacity="0.2" x1="232.1102560045358" x2="232.1102560045358" y1="0.5" y2="30"/><line opacity="0.2" x1="335.77951110193214" x2="335.77951110193214" y1="0.5" y2="30"/><line opacity="0.2" x1="409.9564453764765" x2="409.9564453764765" y1="0.5" y2="30"/><line opacity="0.2" x1="177.53266327695266" x2="177.53266327695266" y1="0.5" y2="30"/><line opacity="0.2" x1="380.07499455489864" x2="380.07499455489864" y1="0.5" y2="30"/><line opacity="0.2" x1="324.28451165421734" x2="324.28451165421734" y1="0.5" y2="30"/><line opacity="0.2" x1="234.36572417032528" x2="234.36572417032528" y1="0.5" y2="30"/><line opacity="0.2" x1="259.6191835877093" x2="259.6191835877093" y1="0.5" y2="30"/><line opacity="0.2" x1="226.20949463711707" x2="226.20949463711707" y1="0.5" y2="30"/><line opacity="0.2" x1="217.8630445732801" x2="217.8630445732801" y1="0.5" y2="30"/><line opacity="0.2" x1="448.02350751823394" x2="448.02350751823394" y1="0.5" y2="30"/><line opacity="0.2" x1="364.03686882605933" x2="364.03686882605933" y1="0.5" y2="30"/><line opacity="0.2" x1="367.6076427511331" x2="367.6076427511331" y1="0.5" y2="30"/><line opacity="0.2" x1="168.85375621349405" x2="168.85375621349405" y1="0.5" y2="30"/><line opacity="0.2" x1="386.43033873673187" x2="386.43033873673187" y1="0.5" y2="30"/><line opacity="0.2" x1="83.1586745856435" x2="83.1586745856435" y1="0.5" y2="30"/><line opacity="0.2" x1="208.37192230012965" x2="208.37192230012965" y1="0.5" y2="30"/><line opacity="0.2" x1="228.32201904143807" x2="228.32201904143807" y1="0.5" y2="30"/><line opacity="0.2" x1="285.30013979878754" x2="285.30013979878754" y1="0.5" y2="30"/><line opacity="0.2" x1="303.5939313060062" x2="303.5939313060062" y1="0.5" y2="30"/><line opacity="0.2" x1="274.566471493031" x2="274.566471493031" y1="0.5" y2="30"/><line opacity="0.2" x1="276.43028409382316" x2="276.43028409382316" y1="0.5" y2="30"/><line opacity="0.2" x1="184.33525725699343" x2="184.33525725699343" y1="0.5" y2="30"/><line opacity="0.2" x1="235.54115580073713" x2="235.54115580073713" y1="0.5" y2="30"/><line opacity="0.2" x1="232.0659444377722" x2="232.0659444377722" y1="0.5" y2="30"/><line opacity="0.2" x1="307.73016263562045" x2="307.73016263562045" y1="0.5" y2="30"/><line opacity="0.2" x1="365.13624234872134" x2="365.13624234872134" y1="0.5" y2="30"/><line opacity="0.2" x1="201.93364316596677" x2="201.93364316596677" y1="0.5" y2="30"/><line opacity="0.2" x1="210.67295582520373" x2="210.67295582520373" y1="0.5" y2="30"/><line opacity="0.2" x1="189.383087571002" x2="189.383087571002" y1="0.5" y2="30"/><line opacity="0.2" x1="490.08055958496305" x2="490.08055958496305" y1="0.5" y2="30"/><line opacity="0.2" x1="171.01818547616082" x2="171.01818547616082" y1="0.5" y2="30"/><line opacity="0.2" x1="385.1309979196501" x2="385.1309979196501" y1="0.5" y2="30"/><line opacity="0.2" x1="238.44594463009287" x2="238.44594463009287" y1="0.5" y2="30"/><line opacity="0.2" x1="400.0763555286972" x2="400.0763555286972" y1="0.5" y2="30"/><line opacity="0.2" x1="337.3258319106715" x2="337.3258319106715" y1="0.5" y2="30"/><line opacity="0.2" x1="203.77898224412428" x2="203.77898224412428" y1="0.5" y2="30"/><line opacity="0.2" x1="393.5674545091474" x2="393.5674545091474" y1="0.5" y2="30"/><line opacity="0.2" x1="296.6638681279702" x2="296.6638681279702" y1="0.5" y2="30"/><line opacity="0.2" x1="221.92903550531426" x2="221.92903550531426" y1="0.5" y2="30"/><line opacity="0.2" x1="409.98695086744897" x2="409.98695086744897" y1="0.5" y2="30"/><line opacity="0.2" x1="166.52653760901836" x2="166.52653760901836" y1="0.5" y2="30"/><line opacity="0.2" x1="285.90646624464523" x2="285.90646624464523" y1="0.5" y2="30"/><line opacity="0.2" x1="200.04257684806126" x2="200.04257684806126" y1="0.5" y2="30"/><line opacity="0.2" x1="143.33082397676347" x2="143.33082397676347" y1="0.5" y2="30"/><line opacity="0.2" x1="254.13262411755477" x2="254.13262411755477" y1="0.5" y2="30"/><line opacity="0.2" x1="255.34160491532356" x2="255.34160491532356" y1="0.5" y2="30"/><line opacity="0.2" x1="219.43882429153936" x2="219.43882429153936" y1="0.5" y2="30"/><line opacity="0.2" x1="221.58551835121764" x2="221.58551835121764" y1="0.5" y2="30"/><line opacity="0.2" x1="181.81117289170862" x2="181.81117289170862" y1="0.5" y2="30"/><line opacity="0.2" x1="224.58578810330079" x2="224.58578810330079" y1="0.5" y2="30"/><line opacity="0.2" x1="357.1754651636002" x2="357.1754651636002" y1="0.5" y2="30"/><line opacity="0.2" x1="363.11358973970806" x2="363.11358973970806" y1="0.5" y2="30"/><line opacity="0.2" x1="340.2613410064083" x2="340.2613410064083" y1="0.5" y2="30"/><line opacity="0.2" x1="298.3965647135036" x2="298.3965647135036" y1="0.5" y2="30"/><line opacity="0.2" x1="312.766742465095" x2="312.766742465095" y1="0.5" y2="30"/><line opacity="0.2" x1="266.98938192221533" x2="266.98938192221533" y1="0.5" y2="30"/><line opacity="0.2" x1="327.93808971730124" x2="327.93808971730124" y1="0.5" y2="30"/><line opacity="0.2" x1="341.00792858596736" x2="341.00792858596736" y1="0.5" y2="30"/><line opacity="0.2" x1="268.2039411737652" x2="268.2039411737652" y1="0.5" y2="30"/><line opacity="0.2" x1="214.72818964576453" x2="214.72818964576453" y1="0.5" y2="30"/><line opacity="0.2" x1="290.9112967485506" x2="290.9112967485506" y1="0.5" y2="30"/><line opacity="0.2" x1="304.5426583710452" x2="304.5426583710452" y1="0.5" y2="30"/><line opacity="0.2" x1="429.01348890897503" x2="429.01348890897503" y1="0.5" y2="30"/><line opacity="0.2" x1="308.0003515633446" x2="308.0003515633446" y1="0.5" y2="30"/><line opacity="0.2" x1="310.82792755719663" x2="310.82792755719663" y1="0.5" y2="30"/><line opacity="0.2" x1="240.321799867673" x2="240.321799867673" y1="0.5" y2="30"/><line opacity="0.2" x1="228.31244553109974" x2="228.31244553109974" y1="0.5" y2="30"/><line opacity="0.2" x1="400.6750076945579" x2="400.6750076945579" y1="0.5" y2="30"/><line opacity="0.2" x1="316.53536535411143" x2="316.53536535411143" y1="0.5" y2="30"/><line opacity="0.2" x1="307.6828370565587" x2="307.6828370565587" y1="0.5" y2="30"/><line opacity="0.2" x1="423.2696394828162" x2="423.2696394828162" y1="0.5" y2="30"/><line opacity="0.2" x1="335.70917025538745" x2="335.70917025538745" y1="0.5" y2="30"/><line opacity="0.2" x1="320.4465371844534" x2="320.4465371844534" y1="0.5" y2="30"/><line opacity="0.2" x1="274.2726320214261" x2="274.2726320214261" y1="0.5" y2="30"/><line opacity="0.2" x1="298.7334981157604" x2="298.7334981157604" y1="0.5" y2="30"/><line opacity="0.2" x1="245.46718205717613" x2="245.46718205717613" y1="0.5" y2="30"/><line opacity="0.2" x1="338.59454031885355" x2="338.59454031885355" y1="0.5" y2="30"/><line opacity="0.2" x1="411.85181860326287" x2="411.85181860326287" y1="0.5" y2="30"/><line opacity="0.2" x1="194.7061406108304" x2="194.7061406108304" y1="0.5" y2="30"/><line opacity="0.2" x1="286.1343737582581" x2="286.1343737582581" y1="0.5" y2="30"/><line opacity="0.2" x1="230.1277443089568" x2="230.1277443089568" y1="0.5" y2="30"/><line opacity="0.2" x1="243.77177364096232" x2="243.77177364096232" y1="0.5" y2="30"/><line opacity="0.2" x1="285.0339135271224" x2="285.0339135271224" y1="0.5" y2="30"/><line opacity="0.2" x1="243.2845289319469" x2="243.2845289319469" y1="0.5" y2="30"/><line opacity="0.2" x1="260.1777777274259" x2="260.1777777274259" y1="0.5" y2="30"/><line opacity="0.2" x1="421.91843384012896" x2="421.91843384012896" y1="0.5" y2="30"/><line opacity="0.2" x1="226.67058896807825" x2="226.67058896807825" y1="0.5" y2="30"/><line opacity="0.2" x1="281.90575945109845" x2="281.90575945109845" y1="0.5" y2="30"/><line opacity="0.2" x1="336.0128968089818" x2="336.0128968089818" y1="0.5" y2="30"/><line opacity="0.2" x1="267.71308290595437" x2="267.71308290595437" y1="0.5" y2="30"/><line opacity="0.2" x1="395.9383124521186" x2="395.9383124521186" y1="0.5" y2="30"/><line opacity="0.2" x1="373.9035932177832" x2="373.9035932177832" y1="0.5" y2="30"/><line opacity="0.2" x1="335.7169461927193" x2="335.7169461927193" y1="0.5" y2="30"/><line opacity="0.2" x1="250.72762307327594" x2="250.72762307327594" y1="0.5" y2="30"/><line opacity="0.2" x1="116.65465167715942" x2="116.65465167715942" y1="0.5" y2="30"/><line opacity="0.2" x1="323.6154132599888" x2="323.6154132599888" y1="0.5" y2="30"/><line opacity="0.2" x1="305.2614489664083" x2="305.2614489664083" y1="0.5" y2="30"/><line opacity="0.2" x1="238.66955844802334" x2="238.66955844802334" y1="0.5" y2="30"/><line opacity="0.2" x1="514.0766916963496" x2="514.0766916963496" y1="0.5" y2="30"/><line opacity="0.2" x1="266.3433772142701" x2="266.3433772142701" y1="0.5" y2="30"/><line opacity="0.2" x1="279.1568256281931" x2="279.1568256281931" y1="0.5" y2="30"/><line opacity="0.2" x1="245.3356242847592" x2="245.3356242847592" y1="0.5" y2="30"/><line opacity="0.2" x1="241.47801055724557" x2="241.47801055724557" y1="0.5" y2="30"/><line opacity="0.2" x1="326.9713282937613" x2="326.9713282937613" y1="0.5" y2="30"/><line opacity="0.2" x1="254.50387256304614" x2="254.50387256304614" y1="0.5" y2="30"/><line opacity="0.2" x1="247.47285166607918" x2="247.47285166607918" y1="0.5" y2="30"/><line opacity="0.2" x1="350.491879954662" x2="350.491879954662" y1="0.5" y2="30"/><line opacity="0.2" x1="301.6863291738395" x2="301.6863291738395" y1="0.5" y2="30"/><line opacity="0.2" x1="294.7584747484169" x2="294.7584747484169" y1="0.5" y2="30"/><line opacity="0.2" x1="310.61535425909557" x2="310.61535425909557" y1="0.5" y2="30"/><line opacity="0.2" x1="354.02997378371674" x2="354.02997378371674" y1="0.5" y2="30"/><line opacity="0.2" x1="292.9772922917402" x2="292.9772922917402" y1="0.5" y2="30"/><line opacity="0.2" x1="314.89094400319726" x2="314.89094400319726" y1="0.5" y2="30"/><line opacity="0.2" x1="202.78428690216967" x2="202.78428690216967" y1="0.5" y2="30"/><line opacity="0.2" x1="20" x2="20" y1="0.5" y2="30"/><line opacity="0.2" x1="319.3951058142554" x2="319.3951058142554" y1="0.5" y2="30"/><line opacity="0.2" x1="256.1005641416794" x2="256.1005641416794" y1="0.5" y2="30"/><line opacity="0.2" x1="314.05668237084734" x2="314.05668237084734" y1="0.5" y2="30"/><line opacity="0.2" x1="154.72789249100208" x2="154.72789249100208" y1="0.5" y2="30"/><line opacity="0.2" x1="238.71630719767776" x2="238.71630719767776" y1="0.5" y2="30"/><line opacity="0.2" x1="287.733712053532" x2="287.733712053532" y1="0.5" y2="30"/><line opacity="0.2" x1="388.6027203094804" x2="388.6027203094804" y1="0.5" y2="30"/><line opacity="0.2" x1="411.3772604940602" x2="411.3772604940602" y1="0.5" y2="30"/><line opacity="0.2" x1="330.7124705590589" x2="330.7124705590589" y1="0.5" y2="30"/><line opacity="0.2" x1="183.81111849168275" x2="183.81111849168275" y1="0.5" y2="30"/><line opacity="0.2" x1="247.6083883818072" x2="247.6083883818072" y1="0.5" y2="30"/><line opacity="0.2" x1="303.94027285275337" x2="303.94027285275337" y1="0.5" y2="30"/><line opacity="0.2" x1="347.3535342325455" x2="347.3535342325455" y1="0.5" y2="30"/><line opacity="0.2" x1="294.56021033129014" x2="294.56021033129014" y1="0.5" y2="30"/><line opacity="0.2" x1="534.9184431220508" x2="534.9184431220508" y1="0.5" y2="30"/><line opacity="0.2" x1="252.29679101087305" x2="252.29679101087305" y1="0.5" y2="30"/><line opacity="0.2" x1="309.03810225676074" x2="309.03810225676074" y1="0.5" y2="30"/><line opacity="0.2" x1="51.6666566140085" x2="51.6666566140085" y1="0.5" y2="30"/><line opacity="0.2" x1="106.04188019745962" x2="106.04188019745962" y1="0.5" y2="30"/><line opacity="0.2" x1="170.6834243305369" x2="170.6834243305369" y1="0.5" y2="30"/><line opacity="0.2" x1="333.8056430436152" x2="333.8056430436152" y1="0.5" y2="30"/><line opacity="0.2" x1="238.71033105445463" x2="238.71033105445463" y1="0.5" y2="30"/><line opacity="0.2" x1="173.68936170808732" x2="173.68936170808732" y1="0.5" y2="30"/><line opacity="0.2" x1="213.3992226546678" x2="213.3992226546678" y1="0.5" y2="30"/><line opacity="0.2" x1="235.57752885566765" x2="235.57752885566765" y1="0.5" y2="30"/><line opacity="0.2" x1="357.35289256468445" x2="357.35289256468445" y1="0.5" y2="30"/><line opacity="0.2" x1="222.4123594939749" x2="222.4123594939749" y1="0.5" y2="30"/><line opacity="0.2" x1="413.34459882264264" x2="413.34459882264264" y1="0.5" y2="30"/><line opacity="0.2" x1="351.3505365197028" x2="351.3505365197028" y1="0.5" y2="30"/><line opacity="0.2" x1="132.08766001661047" x2="132.08766001661047" y1="0.5" y2="30"/><line opacity="0.2" x1="363.06677277071344" x2="363.06677277071344" y1="0.5" y2="30"/><line opacity="0.2" x1="343.8569486961438" x2="343.8569486961438" y1="0.5" y2="30"/><line opacity="0.2" x1="491.8408444014864" x2="491.8408444014864" y1="0.5" y2="30"/><line opacity="0.2" x1="344.41451607750406" x2="344.41451607750406" y1="0.5" y2="30"/><line opacity="0.2" x1="310.99411566205004" x2="310.99411566205004" y1="0.5" y2="30"/><line opacity="0.2" x1="254.9475327208258" x2="254.9475327208258" y1="0.5" y2="30"/><line opacity="0.2" x1="233.24395135203463" x2="233.24395135203463" y1="0.5" y2="30"/><line opacity="0.2" x1="509.6662859565685" x2="509.6662859565685" y1="0.5" y2="30"/><line opacity="0.2" x1="381.926863696603" x2="381.926863696603" y1="0.5" y2="30"/><line opacity="0.2" x1="166.076399618071" x2="166.076399618071" y1="0.5" y2="30"/><line opacity="0.2" x1="316.9079779107248" x2="316.9079779107248" y1="0.5" y2="30"/><line opacity="0.2" x1="323.7955354784285" x2="323.7955354784285" y1="0.5" y2="30"/><line opacity="0.2" x1="132.91668235905425" x2="132.91668235905425" y1="0.5" y2="30"/><line opacity="0.2" x1="309.0688210456275" x2="309.0688210456275" y1="0.5" y2="30"/><line opacity="0.2" x1="259.30927563690517" x2="259.30927563690517" y1="0.5" y2="30"/><line opacity="0.2" x1="408.6250915469845" x2="408.6250915469845" y1="0.5" y2="30"/><line opacity="0.2" x1="274.2945285571451" x2="274.2945285571451" y1="0.5" y2="30"/><line opacity="0.2" x1="95.91155402110108" x2="95.91155402110108" y1="0.5" y2="30"/><line opacity="0.2" x1="323.6506733633273" x2="323.6506733633273" y1="0.5" y2="30"/><line opacity="0.2" x1="223.95207330713413" x2="223.95207330713413" y1="0.5" y2="30"/><line opacity="0.2" x1="287.0978191773324" x2="287.0978191773324" y1="0.5" y2="30"/><line opacity="0.2" x1="211.31288796449797" x2="211.31288796449797" y1="0.5" y2="30"/><line opacity="0.2" x1="230.1531877889439" x2="230.1531877889439" y1="0.5" y2="30"/><line opacity="0.2" x1="175.70458881327738" x2="175.70458881327738" y1="0.5" y2="30"/><line opacity="0.2" x1="411.45575727905134" x2="411.45575727905134" y1="0.5" y2="30"/><line opacity="0.2" x1="241.94474428461479" x2="241.94474428461479" y1="0.5" y2="30"/><line opacity="0.2" x1="266.00040877668505" x2="266.00040877668505" y1="0.5" y2="30"/><line opacity="0.2" x1="310.34492784433183" x2="310.34492784433183" y1="0.5" y2="30"/><line opacity="0.2" x1="412.7598214743026" x2="412.7598214743026" y1="0.5" y2="30"/><line opacity="0.2" x1="351.9500917411772" x2="351.9500917411772" y1="0.5" y2="30"/><line opacity="0.2" x1="354.5493586606084" x2="354.5493586606084" y1="0.5" y2="30"/><line opacity="0.2" x1="342.01178814841717" x2="342.01178814841717" y1="0.5" y2="30"/><line opacity="0.2" x1="482.1990875606084" x2="482.1990875606084" y1="0.5" y2="30"/><line opacity="0.2" x1="286.95937093636906" x2="286.95937093636906" y1="0.5" y2="30"/><line opacity="0.2" x1="205.49512400950718" x2="205.49512400950718" y1="0.5" y2="30"/><line opacity="0.2" x1="336.34379649911943" x2="336.34379649911943" y1="0.5" y2="30"/><line opacity="0.2" x1="377.81616027510125" x2="377.81616027510125" y1="0.5" y2="30"/><line opacity="0.2" x1="335.1873844352582" x2="335.1873844352582" y1="0.5" y2="30"/><line opacity="0.2" x1="280.35764839617326" x2="280.35764839617326" y1="0.5" y2="30"/><line opacity="0.2" x1="258.87134798172673" x2="258.87134798172673" y1="0.5" y2="30"/><line opacity="0.2" x1="215.12635718464438" x2="215.12635718464438" y1="0.5" y2="30"/><line opacity="0.2" x1="304.7799948016614" x2="304.7799948016614" y1="0.5" y2="30"/><line opacity="0.2" x1="133.60064938037067" x2="133.60064938037067" y1="0.5" y2="30"/><line opacity="0.2" x1="246.401119750207" x2="246.401119750207" y1="0.5" y2="30"/><line opacity="0.2" x1="222.3346405874214" x2="222.3346405874214" y1="0.5" y2="30"/><line opacity="0.2" x1="228.29735236967647" x2="228.29735236967647" y1="0.5" y2="30"/><line opacity="0.2" x1="266.78388908114437" x2="266.78388908114437" y1="0.5" y2="30"/><line opacity="0.2" x1="280.06454708512456" x2="280.06454708512456" y1="0.5" y2="30"/><line opacity="0.2" x1="204.9531744919233" x2="204.9531744919233" y1="0.5" y2="30"/><line opacity="0.2" x1="277.23607401883623" x2="277.23607401883623" y1="0.5" y2="30"/><line opacity="0.2" x1="214.74966371814114" x2="214.74966371814114" y1="0.5" y2="30"/><line opacity="0.2" x1="367.1715159423598" x2="367.1715159423598" y1="0.5" y2="30"/><line opacity="0.2" x1="216.03226360828188" x2="216.03226360828188" y1="0.5" y2="30"/><line opacity="0.2" x1="306.3839219426796" x2="306.3839219426796" y1="0.5" y2="30"/><line opacity="0.2" x1="348.95929752456067" x2="348.95929752456067" y1="0.5" y2="30"/><line opacity="0.2" x1="314.5922853075614" x2="314.5922853075614" y1="0.5" y2="30"/><line opacity="0.2" x1="297.09700403622463" x2="297.09700403622463" y1="0.5" y2="30"/><line opacity="0.2" x1="399.1829971482636" x2="399.1829971482636" y1="0.5" y2="30"/><line opacity="0.2" x1="322.2600949178948" x2="322.2600949178948" y1="0.5" y2="30"/><line opacity="0.2" x1="159.66955867957395" x2="159.66955867957395" y1="0.5" y2="30"/><line opacity="0.2" x1="205.69387776690274" x2="205.69387776690274" y1="0.5" y2="30"/><line opacity="0.2" x1="366.9931551913797" x2="366.9931551913797" y1="0.5" y2="30"/><line opacity="0.2" x1="103.43506408487819" x2="103.43506408487819" y1="0.5" y2="30"/><line opacity="0.2" x1="313.58530203912306" x2="313.58530203912306" y1="0.5" y2="30"/><line opacity="0.2" x1="415.6258518501377" x2="415.6258518501377" y1="0.5" y2="30"/><line opacity="0.2" x1="369.54871754935687" x2="369.54871754935687" y1="0.5" y2="30"/><line opacity="0.2" x1="318.5340389286375" x2="318.5340389286375" y1="0.5" y2="30"/><line opacity="0.2" x1="264.81284066885553" x2="264.81284066885553" y1="0.5" y2="30"/><line opacity="0.2" x1="297.5661779025389" x2="297.5661779025389" y1="0.5" y2="30"/><line opacity="0.2" x1="308.8778784174848" x2="308.8778784174848" y1="0.5" y2="30"/><line opacity="0.2" x1="284.2449140403701" x2="284.2449140403701" y1="0.5" y2="30"/><line opacity="0.2" x1="220.04766136527655" x2="220.04766136527655" y1="0.5" y2="30"/><line opacity="0.2" x1="496.90798882424303" x2="496.90798882424303" y1="0.5" y2="30"/><line opacity="0.2" x1="309.3079288615364" x2="309.3079288615364" y1="0.5" y2="30"/><line opacity="0.2" x1="82.05989625832046" x2="82.05989625832046" y1="0.5" y2="30"/><line opacity="0.2" x1="276.40667285095964" x2="276.40667285095964" y1="0.5" y2="30"/><line opacity="0.2" x1="153.89816219162833" x2="153.89816219162833" y1="0.5" y2="30"/><line opacity="0.2" x1="249.52810753698316" x2="249.52810753698316" y1="0.5" y2="30"/><line opacity="0.2" x1="264.2029884151568" x2="264.2029884151568" y1="0.5" y2="30"/><line opacity="0.2" x1="156.2092402751789" x2="156.2092402751789" y1="0.5" y2="30"/><line opacity="0.2" x1="183.6646664732772" x2="183.6646664732772" y1="0.5" y2="30"/><line opacity="0.2" x1="237.71080981574673" x2="237.71080981574673" y1="0.5" y2="30"/><line opacity="0.2" x1="184.86739139723636" x2="184.86739139723636" y1="0.5" y2="30"/><line opacity="0.2" x1="152.28316730267207" x2="152.28316730267207" y1="0.5" y2="30"/><line opacity="0.2" x1="409.6252143286341" x2="409.6252143286341" y1="0.5" y2="30"/><line opacity="0.2" x1="319.47371530045996" x2="319.47371530045996" y1="0.5" y2="30"/><line opacity="0.2" x1="319.1421753123412" x2="319.1421753123412" y1="0.5" y2="30"/><line opacity="0.2" x1="335.1219258471271" x2="335.1219258471271" y1="0.5" y2="30"/><line opacity="0.2" x1="378.628239062046" x2="378.628239062046" y1="0.5" y2="30"/><line opacity="0.2" x1="323.31506255301144" x2="323.31506255301144" y1="0.5" y2="30"/><line opacity="0.2" x1="220.42910751223332" x2="220.42910751223332" y1="0.5" y2="30"/><line opacity="0.2" x1="287.466557593178" x2="287.466557593178" y1="0.5" y2="30"/><line opacity="0.2" x1="372.4840120380955" x2="372.4840120380955" y1="0.5" y2="30"/><line opacity="0.2" x1="108.19279333990978" x2="108.19279333990978" y1="0.5" y2="30"/><line opacity="0.2" x1="254.70804339965332" x2="254.70804339965332" y1="0.5" y2="30"/><line opacity="0.2" x1="279.5573599939597" x2="279.5573599939597" y1="0.5" y2="30"/><line opacity="0.2" x1="303.1248672458939" x2="303.1248672458939" y1="0.5" y2="30"/><line opacity="0.2" x1="447.8217250958768" x2="447.8217250958768" y1="0.5" y2="30"/><line opacity="0.2" x1="348.8781983922316" x2="348.8781983922316" y1="0.5" y2="30"/><line opacity="0.2" x1="402.1836638107174" x2="402.1836638107174" y1="0.5" y2="30"/><line opacity="0.2" x1="212.86936333823803" x2="212.86936333823803" y1="0.5" y2="30"/><line opacity="0.2" x1="177.77752421416898" x2="177.77752421416898" y1="0.5" y2="30"/><line opacity="0.2" x1="455.47613288134045" x2="455.47613288134045" y1="0.5" y2="30"/><line opacity="0.2" x1="202.74053262991498" x2="202.74053262991498" y1="0.5" y2="30"/><line opacity="0.2" x1="593.0836011282663" x2="593.0836011282663" y1="0.5" y2="30"/><line opacity="0.2" x1="292.5615341910681" x2="292.5615341910681" y1="0.5" y2="30"/><line opacity="0.2" x1="215.80135909204364" x2="215.80135909204364" y1="0.5" y2="30"/><line opacity="0.2" x1="257.1280473367208" x2="257.1280473367208" y1="0.5" y2="30"/><line opacity="0.2" x1="216.19806321819496" x2="216.19806321819496" y1="0.5" y2="30"/><line opacity="0.2" x1="178.5937318622038" x2="178.5937318622038" y1="0.5" y2="30"/><line opacity="0.2" x1="282.99866739403956" x2="282.99866739403956" y1="0.5" y2="30"/><line opacity="0.2" x1="337.6927759797676" x2="337.6927759797676" y1="0.5" y2="30"/><line opacity="0.2" x1="267.2778606123322" x2="267.2778606123322" y1="0.5" y2="30"/><line opacity="0.2" x1="391.5385986843908" x2="391.5385986843908" y1="0.5" y2="30"/><line opacity="0.2" x1="196.69349318562152" x2="196.69349318562152" y1="0.5" y2="30"/><line opacity="0.2" x1="223.56705145161268" x2="223.56705145161268" y1="0.5" y2="30"/><line opacity="0.2" x1="305.65154602336827" x2="305.65154602336827" y1="0.5" y2="30"/><line opacity="0.2" x1="190.0607589119121" x2="190.0607589119121" y1="0.5" y2="30"/><line opacity="0.2" x1="101.33672745313832" x2="101.33672745313832" y1="0.5" y2="30"/><line opacity="0.2" x1="333.04057126904496" x2="333.04057126904496" y1="0.5" y2="30"/><line opacity="0.2" x1="289.50793660206847" x2="289.50793660206847" y1="0.5" y2="30"/><line opacity="0.2" x1="161.93738912565578" x2="161.93738912565578" y1="0.5" y2="30"/><line opacity="0.2" x1="309.99479800059225" x2="309.99479800059225" y1="0.5" y2="30"/><line opacity="0.2" x1="452.8725378891833" x2="452.8725378891833" y1="0.5" y2="30"/><line opacity="0.2" x1="349.40676941977983" x2="349.40676941977983" y1="0.5" y2="30"/><line opacity="0.2" x1="222.88749892011768" x2="222.88749892011768" y1="0.5" y2="30"/><line opacity="0.2" x1="321.3902864794968" x2="321.3902864794968" y1="0.5" y2="30"/><line opacity="0.2" x1="337.22096782571856" x2="337.22096782571856" y1="0.5" y2="30"/><line opacity="0.2" x1="286.71642580510405" x2="286.71642580510405" y1="0.5" y2="30"/><line opacity="0.2" x1="83.37783797920099" x2="83.37783797920099" y1="0.5" y2="30"/><line opacity="0.2" x1="262.8140872433648" x2="262.8140872433648" y1="0.5" y2="30"/><line opacity="0.2" x1="252.50433730134887" x2="252.50433730134887" y1="0.5" y2="30"/><line opacity="0.2" x1="301.9569035812877" x2="301.9569035812877" y1="0.5" y2="30"/><line opacity="0.2" x1="286.03174865205864" x2="286.03174865205864" y1="0.5" y2="30"/><line opacity="0.2" x1="430.672621411886" x2="430.672621411886" y1="0.5" y2="30"/><line opacity="0.2" x1="293.56004112677635" x2="293.56004112677635" y1="0.5" y2="30"/><line opacity="0.2" x1="333.5736586093245" x2="333.5736586093245" y1="0.5" y2="30"/><line opacity="0.2" x1="421.05581642640504" x2="421.05581642640504" y1="0.5" y2="30"/><line opacity="0.2" x1="256.9058301193833" x2="256.9058301193833" y1="0.5" y2="30"/><line opacity="0.2" x1="345.74359133712204" x2="345.74359133712204" y1="0.5" y2="30"/><line opacity="0.2" x1="390.42058080800797" x2="390.42058080800797" y1="0.5" y2="30"/><line opacity="0.2" x1="328.3940441611092" x2="328.3940441611092" y1="0.5" y2="30"/><line opacity="0.2" x1="205.15246940167034" x2="205.15246940167034" y1="0.5" y2="30"/><line opacity="0.2" x1="134.3083470514005" x2="134.3083470514005" y1="0.5" y2="30"/><line opacity="0.2" x1="306.05841616807606" x2="306.05841616807606" y1="0.5" y2="30"/><line opacity="0.2" x1="304.8045576648207" x2="304.8045576648207" y1="0.5" y2="30"/><line opacity="0.2" x1="167.43328931098094" x2="167.43328931098094" y1="0.5" y2="30"/><line opacity="0.2" x1="367.5327558894317" x2="367.5327558894317" y1="0.5" y2="30"/><line opacity="0.2" x1="383.91109983707594" x2="383.91109983707594" y1="0.5" y2="30"/><line opacity="0.2" x1="350.8781407372316" x2="350.8781407372316" y1="0.5" y2="30"/><line opacity="0.2" x1="352.7335805537599" x2="352.7335805537599" y1="0.5" y2="30"/><line opacity="0.2" x1="357.31634344449196" x2="357.31634344449196" y1="0.5" y2="30"/><line opacity="0.2" x1="132.01108773051973" x2="132.01108773051973" y1="0.5" y2="30"/><line opacity="0.2" x1="227.59453779246638" x2="227.59453779246638" y1="0.5" y2="30"/><line opacity="0.2" x1="397.95654809236123" x2="397.95654809236123" y1="0.5" y2="30"/><line opacity="0.2" x1="473.11969256216975" x2="473.11969256216975" y1="0.5" y2="30"/><line opacity="0.2" x1="248.5156036951886" x2="248.5156036951886" y1="0.5" y2="30"/><line opacity="0.2" x1="297.9112779353735" x2="297.9112779353735" y1="0.5" y2="30"/><line opacity="0.2" x1="411.62423394118696" x2="411.62423394118696" y1="0.5" y2="30"/><line opacity="0.2" x1="211.37361908906956" x2="211.37361908906956" y1="0.5" y2="30"/><line opacity="0.2" x1="391.3632504009511" x2="391.3632504009511" y1="0.5" y2="30"/><line opacity="0.2" x1="308.014244454322" x2="308.014244454322" y1="0.5" y2="30"/><line opacity="0.2" x1="331.45379716825477" x2="331.45379716825477" y1="0.5" y2="30"/><line opacity="0.2" x1="305.1195294292584" x2="305.1195294292584" y1="0.5" y2="30"/><line opacity="0.2" x1="219.4987575604718" x2="219.4987575604718" y1="0.5" y2="30"/><line opacity="0.2" x1="153.11637129881495" x2="153.11637129881495" y1="0.5" y2="30"/><line opacity="0.2" x1="315.1701991996019" x2="315.1701991996019" y1="0.5" y2="30"/><line opacity="0.2" x1="114.70122640944166" x2="114.70122640944166" y1="0.5" y2="30"/><line opacity="0.2" x1="231.73601181166183" x2="231.73601181166183" y1="0.5" y2="30"/><line opacity="0.2" x1="368.871834489114" x2="368.871834489114" y1="0.5" y2="30"/><line opacity="0.2" x1="183.26588309149753" x2="183.26588309149753" y1="0.5" y2="30"/><line opacity="0.2" x1="260.05020047147025" x2="260.05020047147025" y1="0.5" y2="30"/><line opacity="0.2" x1="256.0050003634113" x2="256.0050003634113" y1="0.5" y2="30"/><line opacity="0.2" x1="226.75004951333003" x2="226.75004951333003" y1="0.5" y2="30"/><line opacity="0.2" x1="369.8129159238134" x2="369.8129159238134" y1="0.5" y2="30"/><line opacity="0.2" x1="324.14409434097246" x2="324.14409434097246" y1="0.5" y2="30"/><line opacity="0.2" x1="265.26096336538683" x2="265.26096336538683" y1="0.5" y2="30"/><line opacity="0.2" x1="262.0959069182882" x2="262.0959069182882" y1="0.5" y2="30"/><line opacity="0.2" x1="332.6061188358724" x2="332.6061188358724" y1="0.5" y2="30"/><line opacity="0.2" x1="250.00635069402927" x2="250.00635069402927" y1="0.5" y2="30"/><line opacity="0.2" x1="212.00298187659016" x2="212.00298187659016" y1="0.5" y2="30"/><line opacity="0.2" x1="434.5211129140028" x2="434.5211129140028" y1="0.5" y2="30"/><line opacity="0.2" x1="283.07905093735445" x2="283.07905093735445" y1="0.5" y2="30"/><line opacity="0.2" x1="432.89770808070176" x2="432.89770808070176" y1="0.5" y2="30"/><line opacity="0.2" x1="253.45126752151404" x2="253.45126752151404" y1="0.5" y2="30"/><line opacity="0.2" x1="280.62564895996763" x2="280.62564895996763" y1="0.5" y2="30"/><line opacity="0.2" x1="380.5393083253093" x2="380.5393083253093" y1="0.5" y2="30"/><line opacity="0.2" x1="385.0819430930584" x2="385.0819430930584" y1="0.5" y2="30"/><line opacity="0.2" x1="304.7717771791923" x2="304.7717771791923" y1="0.5" y2="30"/><line opacity="0.2" x1="374.81369451221354" x2="374.81369451221354" y1="0.5" y2="30"/><line opacity="0.2" x1="162.31980809631486" x2="162.31980809631486" y1="0.5" y2="30"/><line opacity="0.2" x1="292.80372851069325" x2="292.80372851069325" y1="0.5" y2="30"/><line opacity="0.2" x1="431.48092749804357" x2="431.48092749804357" y1="0.5" y2="30"/><line opacity="0.2" x1="238.51745995892367" x2="238.51745995892367" y1="0.5" y2="30"/><line opacity="0.2" x1="350.50084654788446" x2="350.50084654788446" y1="0.5" y2="30"/><line opacity="0.2" x1="69.92437453195764" x2="69.92437453195764" y1="0.5" y2="30"/><line opacity="0.2" x1="246.82628036845688" x2="246.82628036845688" y1="0.5" y2="30"/><line opacity="0.2" x1="527.6620152285861" x2="527.6620152285861" y1="0.5" y2="30"/><line opacity="0.2" x1="378.5667789506662" x2="378.5667789506662" y1="0.5" y2="30"/><line opacity="0.2" x1="252.56763233196145" x2="252.56763233196145" y1="0.5" y2="30"/><line opacity="0.2" x1="297.0472311876701" x2="297.0472311876701" y1="0.5" y2="30"/><line opacity="0.2" x1="339.389574069638" x2="339.389574069638" y1="0.5" y2="30"/><line opacity="0.2" x1="464.7080293784797" x2="464.7080293784797" y1="0.5" y2="30"/><line opacity="0.2" x1="272.8827729266299" x2="272.8827729266299" y1="0.5" y2="30"/><line opacity="0.2" x1="203.3860992799256" x2="203.3860992799256" y1="0.5" y2="30"/><line opacity="0.2" x1="314.6019325699005" x2="314.6019325699005" y1="0.5" y2="30"/><line opacity="0.2" x1="267.2742517738805" x2="267.2742517738805" y1="0.5" y2="30"/><line opacity="0.2" x1="253.8065103152486" x2="253.8065103152486" y1="0.5" y2="30"/><line opacity="0.2" x1="335.5122648567" x2="335.5122648567" y1="0.5" y2="30"/><line opacity="0.2" x1="380.4975489298817" x2="380.4975489298817" y1="0.5" y2="30"/><line opacity="0.2" x1="240.40804349627987" x2="240.40804349627987" y1="0.5" y2="30"/><line opacity="0.2" x1="277.2282987934377" x2="277.2282987934377" y1="0.5" y2="30"/><line opacity="0.2" x1="244.61152588801815" x2="244.61152588801815" y1="0.5" y2="30"/><line opacity="0.2" x1="385.42064048804133" x2="385.42064048804133" y1="0.5" y2="30"/><line opacity="0.2" x1="318.36384549010313" x2="318.36384549010313" y1="0.5" y2="30"/><line opacity="0.2" x1="153.35618833030296" x2="153.35618833030296" y1="0.5" y2="30"/><line opacity="0.2" x1="355.9627907339177" x2="355.9627907339177" y1="0.5" y2="30"/><line opacity="0.2" x1="280.9185912114152" x2="280.9185912114152" y1="0.5" y2="30"/><line opacity="0.2" x1="452.0440412297501" x2="452.0440412297501" y1="0.5" y2="30"/><line opacity="0.2" x1="387.5368808071903" x2="387.5368808071903" y1="0.5" y2="30"/><line opacity="0.2" x1="313.00493419189036" x2="313.00493419189036" y1="0.5" y2="30"/><line opacity="0.2" x1="237.4794424526984" x2="237.4794424526984" y1="0.5" y2="30"/><line opacity="0.2" x1="286.142751428225" x2="286.142751428225" y1="0.5" y2="30"/><line opacity="0.2" x1="206.27595261091048" x2="206.27595261091048" y1="0.5" y2="30"/><line opacity="0.2" x1="330.6753550109669" x2="330.6753550109669" y1="0.5" y2="30"/><line opacity="0.2" x1="288.34196397036555" x2="288.34196397036555" y1="0.5" y2="30"/><line opacity="0.2" x1="374.77582482106095" x2="374.77582482106095" y1="0.5" y2="30"/><line opacity="0.2" x1="254.4331730486093" x2="254.4331730486093" y1="0.5" y2="30"/><line opacity="0.2" x1="227.16005588743235" x2="227.16005588743235" y1="0.5" y2="30"/><line opacity="0.2" x1="220.74261818562837" x2="220.74261818562837" y1="0.5" y2="30"/><line opacity="0.2" x1="337.05216647012116" x2="337.05216647012116" y1="0.5" y2="30"/><line opacity="0.2" x1="206.42606744257859" x2="206.42606744257859" y1="0.5" y2="30"/><line opacity="0.2" x1="302.88703922974656" x2="302.88703922974656" y1="0.5" y2="30"/><line opacity="0.2" x1="350.14852005458397" x2="350.14852005458397" y1="0.5" y2="30"/><line opacity="0.2" x1="296.3607435747234" x2="296.3607435747234" y1="0.5" y2="30"/><line opacity="0.2" x1="238.69417751910257" x2="238.69417751910257" y1="0.5" y2="30"/><line opacity="0.2" x1="291.5845465033355" x2="291.5845465033355" y1="0.5" y2="30"/><line opacity="0.2" x1="303.834784510224" x2="303.834784510224" y1="0.5" y2="30"/><line opacity="0.2" x1="278.72063079549145" x2="278.72063079549145" y1="0.5" y2="30"/><line opacity="0.2" x1="300.82385554100773" x2="300.82385554100773" y1="0.5" y2="30"/><line opacity="0.2" x1="283.7751150363136" x2="283.7751150363136" y1="0.5" y2="30"/><line opacity="0.2" x1="319.4948714298958" x2="319.4948714298958" y1="0.5" y2="30"/><line opacity="0.2" x1="362.04943821750834" x2="362.04943821750834" y1="0.5" y2="30"/><line opacity="0.2" x1="276.9561431790284" x2="276.9561431790284" y1="0.5" y2="30"/><line opacity="0.2" x1="215.52817013379703" x2="215.52817013379703" y1="0.5" y2="30"/><line opacity="0.2" x1="257.84166175651757" x2="257.84166175651757" y1="0.5" y2="30"/><line opacity="0.2" x1="288.1321833239307" x2="288.1321833239307" y1="0.5" y2="30"/><line opacity="0.2" x1="228.64601917466715" x2="228.64601917466715" y1="0.5" y2="30"/><line opacity="0.2" x1="337.0653943484916" x2="337.0653943484916" y1="0.5" y2="30"/><line opacity="0.2" x1="224.28808970889662" x2="224.28808970889662" y1="0.5" y2="30"/><line opacity="0.2" x1="288.69047470593034" x2="288.69047470593034" y1="0.5" y2="30"/><line opacity="0.2" x1="284.28626880719025" x2="284.28626880719025" y1="0.5" y2="30"/><line opacity="0.2" x1="342.6882600038003" x2="342.6882600038003" y1="0.5" y2="30"/><line opacity="0.2" x1="214.32998699455956" x2="214.32998699455956" y1="0.5" y2="30"/><line opacity="0.2" x1="282.7286120481137" x2="282.7286120481137" y1="0.5" y2="30"/><line opacity="0.2" x1="153.6281860670631" x2="153.6281860670631" y1="0.5" y2="30"/><line opacity="0.2" x1="320.40022923275967" x2="320.40022923275967" y1="0.5" y2="30"/><line opacity="0.2" x1="291.98723684266605" x2="291.98723684266605" y1="0.5" y2="30"/><line opacity="0.2" x1="324.6055683014373" x2="324.6055683014373" y1="0.5" y2="30"/><line opacity="0.2" x1="286.780467937152" x2="286.780467937152" y1="0.5" y2="30"/><line opacity="0.2" x1="178.122630444325" x2="178.122630444325" y1="0.5" y2="30"/><line opacity="0.2" x1="243.239613276211" x2="243.239613276211" y1="0.5" y2="30"/><line opacity="0.2" x1="302.1356337195883" x2="302.1356337195883" y1="0.5" y2="30"/><line opacity="0.2" x1="377.67045475524253" x2="377.67045475524253" y1="0.5" y2="30"/><line opacity="0.2" x1="311.47587252469157" x2="311.47587252469157" y1="0.5" y2="30"/><line opacity="0.2" x1="347.16411935816967" x2="347.16411935816967" y1="0.5" y2="30"/><line opacity="0.2" x1="302.59706935802586" x2="302.59706935802586" y1="0.5" y2="30"/><line opacity="0.2" x1="326.3688164281736" x2="326.3688164281736" y1="0.5" y2="30"/><line opacity="0.2" x1="315.60180119819216" x2="315.60180119819216" y1="0.5" y2="30"/><line opacity="0.2" x1="329.4641210131315" x2="329.4641210131315" y1="0.5" y2="30"/><line opacity="0.2" x1="202.2695091194756" x2="202.2695091194756" y1="0.5" y2="30"/><line opacity="0.2" x1="255.93811314047872" x2="255.93811314047872" y1="0.5" y2="30"/><line opacity="0.2" x1="466.77855797354266" x2="466.77855797354266" y1="0.5" y2="30"/><line opacity="0.2" x1="392.3734049800294" x2="392.3734049800294" y1="0.5" y2="30"/><line opacity="0.2" x1="340.4896265875449" x2="340.4896265875449" y1="0.5" y2="30"/><line opacity="0.2" x1="264.5115588122325" x2="264.5115588122325" y1="0.5" y2="30"/><line opacity="0.2" x1="433.96469680557925" x2="433.96469680557925" y1="0.5" y2="30"/><line opacity="0.2" x1="395.5692804983657" x2="395.5692804983657" y1="0.5" y2="30"/><line opacity="0.2" x1="344.6580703584749" x2="344.6580703584749" y1="0.5" y2="30"/><line opacity="0.2" x1="245.53114388709423" x2="245.53114388709423" y1="0.5" y2="30"/><line opacity="0.2" x1="228.15493253927946" x2="228.15493253927946" y1="0.5" y2="30"/><line opacity="0.2" x1="284.6332379450167" x2="284.6332379450167" y1="0.5" y2="30"/><line opacity="0.2" x1="278.50179883093114" x2="278.50179883093114" y1="0.5" y2="30"/><line opacity="0.2" x1="620" x2="620" y1="0.5" y2="30"/><line opacity="0.2" x1="482.2618578046024" x2="482.2618578046024" y1="0.5" y2="30"/><line opacity="0.2" x1="311.195161384847" x2="311.195161384847" y1="0.5" y2="30"/><line opacity="0.2" x1="240.13421399931667" x2="240.13421399931667" y1="0.5" y2="30"/><line opacity="0.2" x1="367.70067471553244" x2="367.70067471553244" y1="0.5" y2="30"/><line opacity="0.2" x1="336.0325403805583" x2="336.0325403805583" y1="0.5" y2="30"/><line opacity="0.2" x1="214.8703389144152" x2="214.8703389144152" y1="0.5" y2="30"/><line opacity="0.2" x1="139.72232161055175" x2="139.72232161055175" y1="0.5" y2="30"/><line opacity="0.2" x1="270.6165446491963" x2="270.6165446491963" y1="0.5" y2="30"/><line opacity="0.2" x1="222.1625039726579" x2="222.1625039726579" y1="0.5" y2="30"/><line opacity="0.2" x1="387.7458952908496" x2="387.7458952908496" y1="0.5" y2="30"/><line opacity="0.2" x1="255.9187853130329" x2="255.9187853130329" y1="0.5" y2="30"/><line opacity="0.2" x1="193.8548351970748" x2="193.8548351970748" y1="0.5" y2="30"/><line opacity="0.2" x1="344.0271605033238" x2="344.0271605033238" y1="0.5" y2="30"/><line opacity="0.2" x1="312.1689099340513" x2="312.1689099340513" y1="0.5" y2="30"/><line opacity="0.2" x1="256.11439237326107" x2="256.11439237326107" y1="0.5" y2="30"/><line opacity="0.2" x1="99.76499242474281" x2="99.76499242474281" y1="0.5" y2="30"/><line opacity="0.2" x1="307.41941732755646" x2="307.41941732755646" y1="0.5" y2="30"/><line opacity="0.2" x1="426.25882229475394" x2="426.25882229475394" y1="0.5" y2="30"/><line opacity="0.2" x1="341.7331636646072" x2="341.7331636646072" y1="0.5" y2="30"/><line opacity="0.2" x1="453.57806830292805" x2="453.57806830292805" y1="0.5" y2="30"/><line opacity="0.2" x1="216.32564468552368" x2="216.32564468552368" y1="0.5" y2="30"/><line opacity="0.2" x1="271.5204906100083" x2="271.5204906100083" y1="0.5" y2="30"/><line opacity="0.2" x1="326.4234819286375" x2="326.4234819286375" y1="0.5" y2="30"/><line opacity="0.2" x1="392.2966849479873" x2="392.2966849479873" y1="0.5" y2="30"/><line opacity="0.2" x1="318.99470703114815" x2="318.99470703114815" y1="0.5" y2="30"/><line opacity="0.2" x1="330.41222095557373" x2="330.41222095557373" y1="0.5" y2="30"/><line opacity="0.2" x1="244.17053113764496" x2="244.17053113764496" y1="0.5" y2="30"/><line opacity="0.2" x1="296.30529127867806" x2="296.30529127867806" y1="0.5" y2="30"/><line opacity="0.2" x1="295.4386375719772" x2="295.4386375719772" y1="0.5" y2="30"/><line opacity="0.2" x1="323.0506606765232" x2="323.0506606765232" y1="0.5" y2="30"/><line opacity="0.2" x1="309.52797117359927" x2="309.52797117359927" y1="0.5" y2="30"/><line opacity="0.2" x1="152.8439691877336" x2="152.8439691877336" y1="0.5" y2="30"/><line opacity="0.2" x1="169.4130625843378" x2="169.4130625843378" y1="0.5" y2="30"/><line opacity="0.2" x1="222.9747255033227" x2="222.9747255033227" y1="0.5" y2="30"/><line opacity="0.2" x1="257.8614629160397" x2="257.8614629160397" y1="0.5" y2="30"/><line opacity="0.2" x1="313.30380326561436" x2="313.30380326561436" y1="0.5" y2="30"/><line opacity="0.2" x1="266.7119771729829" x2="266.7119771729829" y1="0.5" y2="30"/><line opacity="0.2" x1="390.0197276389129" x2="390.0197276389129" y1="0.5" y2="30"/><line opacity="0.2" x1="175.2337038955268" x2="175.2337038955268" y1="0.5" y2="30"/><line opacity="0.2" x1="216.90193610675982" x2="216.90193610675982" y1="0.5" y2="30"/><line opacity="0.2" x1="419.81186940944116" x2="419.81186940944116" y1="0.5" y2="30"/><line opacity="0.2" x1="202.28415248408882" x2="202.28415248408882" y1="0.5" y2="30"/><line opacity="0.2" x1="344.41166747402923" x2="344.41166747402923" y1="0.5" y2="30"/><line opacity="0.2" x1="209.61249509497458" x2="209.61249509497458" y1="0.5" y2="30"/><line opacity="0.2" x1="449.1138181046854" x2="449.1138181046854" y1="0.5" y2="30"/><line opacity="0.2" x1="409.3759552666482" x2="409.3759552666482" y1="0.5" y2="30"/><line opacity="0.2" x1="256.6968961489705" x2="256.6968961489705" y1="0.5" y2="30"/><line opacity="0.2" x1="307.43439098499107" x2="307.43439098499107" y1="0.5" y2="30"/><line opacity="0.2" x1="201.06235924077887" x2="201.06235924077887" y1="0.5" y2="30"/><line opacity="0.2" x1="200.82121176390697" x2="200.82121176390697" y1="0.5" y2="30"/><line opacity="0.2" x1="313.48851223836135" x2="313.48851223836135" y1="0.5" y2="30"/><line opacity="0.2" x1="358.9749234915005" x2="358.9749234915005" y1="0.5" y2="30"/><line opacity="0.2" x1="387.5186542281248" x2="387.5186542281248" y1="0.5" y2="30"/><line opacity="0.2" x1="235.03656450747724" x2="235.03656450747724" y1="0.5" y2="30"/><line opacity="0.2" x1="157.06856290050587" x2="157.06856290050587" y1="0.5" y2="30"/><line opacity="0.2" x1="155.3795484749977" x2="155.3795484749977" y1="0.5" y2="30"/><line opacity="0.2" x1="248.74285959084168" x2="248.74285959084168" y1="0.5" y2="30"/><line opacity="0.2" x1="251.5147117821491" x2="251.5147117821491" y1="0.5" y2="30"/><line opacity="0.2" x1="327.8035409833161" x2="327.8035409833161" y1="0.5" y2="30"/><line opacity="0.2" x1="334.9847528600884" x2="334.9847528600884" y1="0.5" y2="30"/><line opacity="0.2" x1="263.168987184013" x2="263.168987184013" y1="0.5" y2="30"/><line opacity="0.2" x1="265.45569930029103" x2="265.45569930029103" y1="0.5" y2="30"/><line opacity="0.2" x1="373.8378736213596" x2="373.8378736213596" y1="0.5" y2="30"/><line opacity="0.2" x1="382.05049235928766" x2="382.05049235928766" y1="0.5" y2="30"/><line opacity="0.2" x1="268.85538192073295" x2="268.85538192073295" y1="0.5" y2="30"/><line opacity="0.2" x1="258.05350986754445" x2="258.05350986754445" y1="0.5" y2="30"/><line opacity="0.2" x1="275.86836800643016" x2="275.86836800643016" y1="0.5" y2="30"/><line opacity="0.2" x1="256.36245024448084" x2="256.36245024448084" y1="0.5" y2="30"/><line opacity="0.2" x1="394.3990168036754" x2="394.3990168036754" y1="0.5" y2="30"/><line opacity="0.2" x1="456.27234014367474" x2="456.27234014367474" y1="0.5" y2="30"/><line opacity="0.2" x1="332.076847158863" x2="332.076847158863" y1="0.5" y2="30"/><line opacity="0.2" x1="138.71150326903998" x2="138.71150326903998" y1="0.5" y2="30"/><line opacity="0.2" x1="234.97101241756596" x2="234.97101241756596" y1="0.5" y2="30"/><line opacity="0.2" x1="389.28345418169937" x2="389.28345418169937" y1="0.5" y2="30"/><line opacity="0.2" x1="467.5950994278988" x2="467.5950994278988" y1="0.5" y2="30"/><line opacity="0.2" x1="79.64607573503685" x2="79.64607573503685" y1="0.5" y2="30"/><line opacity="0.2" x1="387.23790111445715" x2="387.23790111445715" y1="0.5" y2="30"/><line opacity="0.2" x1="168.80010753938421" x2="168.80010753938421" y1="0.5" y2="30"/><line opacity="0.2" x1="188.1676847784912" x2="188.1676847784912" y1="0.5" y2="30"/><line opacity="0.2" x1="174.42253885756827" x2="174.42253885756827" y1="0.5" y2="30"/><line opacity="0.2" x1="302.84701690069494" x2="302.84701690069494" y1="0.5" y2="30"/><line opacity="0.2" x1="377.03689126574113" x2="377.03689126574113" y1="0.5" y2="30"/><line opacity="0.2" x1="378.91589064567466" x2="378.91589064567466" y1="0.5" y2="30"/><line opacity="0.2" x1="226.81279217839423" x2="226.81279217839423" y1="0.5" y2="30"/><line opacity="0.2" x1="277.35931111120703" x2="277.35931111120703" y1="0.5" y2="30"/><line opacity="0.2" x1="263.5908380776107" x2="263.5908380776107" y1="0.5" y2="30"/><line opacity="0.2" x1="233.82696080298584" x2="233.82696080298584" y1="0.5" y2="30"/><line opacity="0.2" x1="253.40650880736155" x2="253.40650880736155" y1="0.5" y2="30"/><line opacity="0.2" x1="342.9025989894662" x2="342.9025989894662" y1="0.5" y2="30"/><line opacity="0.2" x1="304.1984688826454" x2="304.1984688826454" y1="0.5" y2="30"/><line opacity="0.2" x1="454.43492362595697" x2="454.43492362595697" y1="0.5" y2="30"/><line opacity="0.2" x1="234.40288881659956" x2="234.40288881659956" y1="0.5" y2="30"/><line opacity="0.2" x1="244.09164495590278" x2="244.09164495590278" y1="0.5" y2="30"/><line opacity="0.2" x1="367.3970279749818" x2="367.3970279749818" y1="0.5" y2="30"/><line opacity="0.2" x1="432.9354375306163" x2="432.9354375306163" y1="0.5" y2="30"/><line opacity="0.2" x1="182.16128289798513" x2="182.16128289798513" y1="0.5" y2="30"/><line opacity="0.2" x1="268.17030911385723" x2="268.17030911385723" y1="0.5" y2="30"/><line opacity="0.2" x1="353.6504563692159" x2="353.6504563692159" y1="0.5" y2="30"/><line opacity="0.2" x1="430.62952205371124" x2="430.62952205371124" y1="0.5" y2="30"/><line opacity="0.2" x1="351.1484878353881" x2="351.1484878353881" y1="0.5" y2="30"/><line opacity="0.2" x1="151.01994432129598" x2="151.01994432129598" y1="0.5" y2="30"/><line opacity="0.2" x1="385.6402489615324" x2="385.6402489615324" y1="0.5" y2="30"/><line opacity="0.2" x1="213.68953729818372" x2="213.68953729818372" y1="0.5" y2="30"/><line opacity="0.2" x1="214.937412164806" x2="214.937412164806" y1="0.5" y2="30"/><line opacity="0.2" x1="413.56511625559176" x2="413.56511625559176" y1="0.5" y2="30"/><line opacity="0.2" x1="250.83000385106615" x2="250.83000385106615" y1="0.5" y2="30"/><line opacity="0.2" x1="112.87795628843523" x2="112.87795628843523" y1="0.5" y2="30"/><line opacity="0.2" x1="287.2140197471035" x2="287.2140197471035" y1="0.5" y2="30"/><line opacity="0.2" x1="327.31394492524475" x2="327.31394492524475" y1="0.5" y2="30"/><line opacity="0.2" x1="309.7550383404581" x2="309.7550383404581" y1="0.5" y2="30"/><line opacity="0.2" x1="295.6244253235968" x2="295.6244253235968" y1="0.5" y2="30"/><line opacity="0.2" x1="277.27309761648894" x2="277.27309761648894" y1="0.5" y2="30"/><line opacity="0.2" x1="292.0502664548136" x2="292.0502664548136" y1="0.5" y2="30"/><line opacity="0.2" x1="410.9216085460889" x2="410.9216085460889" y1="0.5" y2="30"/><line opacity="0.2" x1="118.27180273271964" x2="118.27180273271964" y1="0.5" y2="30"/><line opacity="0.2" x1="358.0280972920452" x2="358.0280972920452" y1="0.5" y2="30"/><line opacity="0.2" x1="205.64525642071453" x2="205.64525642071453" y1="0.5" y2="30"/><line opacity="0.2" x1="339.5784309744337" x2="339.5784309744337" y1="0.5" y2="30"/><line opacity="0.2" x1="113.32838609018312" x2="113.32838609018312" y1="0.5" y2="30"/><line opacity="0.2" x1="326.4845875130837" x2="326.4845875130837" y1="0.5" y2="30"/><line opacity="0.2" x1="152.1910433157336" x2="152.1910433157336" y1="0.5" y2="30"/><line opacity="0.2" x1="189.64979049526352" x2="189.64979049526352" y1="0.5" y2="30"/><line opacity="0.2" x1="331.7293029776606" x2="331.7293029776606" y1="0.5" y2="30"/><line opacity="0.2" x1="323.3556886967748" x2="323.3556886967748" y1="0.5" y2="30"/><line opacity="0.2" x1="273.5773011393032" x2="273.5773011393032" y1="0.5" y2="30"/><line opacity="0.2" x1="346.77445203059585" x2="346.77445203059585" y1="0.5" y2="30"/><line opacity="0.2" x1="236.04240617676618" x2="236.04240617676618" y1="0.5" y2="30"/><line opacity="0.2" x1="312.6788615496557" x2="312.6788615496557" y1="0.5" y2="30"/><line opacity="0.2" x1="265.98009667331644" x2="265.98009667331644" y1="0.5" y2="30"/><line opacity="0.2" x1="272.5677090997375" x2="272.5677090997375" y1="0.5" y2="30"/><line opacity="0.2" x1="360.17183967324905" x2="360.17183967324905" y1="0.5" y2="30"/><line opacity="0.2" x1="327.34744817135885" x2="327.34744817135885" y1="0.5" y2="30"/><line opacity="0.2" x1="292.2134953700185" x2="292.2134953700185" y1="0.5" y2="30"/><line opacity="0.2" x1="473.3989389868308" x2="473.3989389868308" y1="0.5" y2="30"/><line opacity="0.2" x1="391.0008576451802" x2="391.0008576451802" y1="0.5" y2="30"/><line opacity="0.2" x1="404.3659579297034" x2="404.3659579297034" y1="0.5" y2="30"/><line opacity="0.2" x1="348.5128743669354" x2="348.5128743669354" y1="0.5" y2="30"/><line opacity="0.2" x1="294.06417202283524" x2="294.06417202283524" y1="0.5" y2="30"/><line opacity="0.2" x1="300.37734672050846" x2="300.37734672050846" y1="0.5" y2="30"/><line opacity="0.2" x1="204.5706053006791" x2="204.5706053006791" y1="0.5" y2="30"/><line opacity="0.2" x1="381.2337527567017" x2="381.2337527567017" y1="0.5" y2="30"/><line opacity="0.2" x1="250.27986797617365" x2="250.27986797617365" y1="0.5" y2="30"/><line opacity="0.2" x1="254.74674176265452" x2="254.74674176265452" y1="0.5" y2="30"/><line opacity="0.2" x1="346.0388099468057" x2="346.0388099468057" y1="0.5" y2="30"/><line opacity="0.2" x1="312.9537474713954" x2="312.9537474713954" y1="0.5" y2="30"/><line opacity="0.2" x1="225.7218091422158" x2="225.7218091422158" y1="0.5" y2="30"/><line opacity="0.2" x1="212.21961948116532" x2="212.21961948116532" y1="0.5" y2="30"/><line opacity="0.2" x1="188.25855995735105" x2="188.25855995735105" y1="0.5" y2="30"/><line opacity="0.2" x1="379.822470892323" x2="379.822470892323" y1="0.5" y2="30"/><line opacity="0.2" x1="523.4927174670594" x2="523.4927174670594" y1="0.5" y2="30"/><line opacity="0.2" x1="347.1507017120242" x2="347.1507017120242" y1="0.5" y2="30"/><line opacity="0.2" x1="299.66764091914905" x2="299.66764091914905" y1="0.5" y2="30"/><line opacity="0.2" x1="353.2678401457419" x2="353.2678401457419" y1="0.5" y2="30"/><line opacity="0.2" x1="243.03524523664842" x2="243.03524523664842" y1="0.5" y2="30"/><line opacity="0.2" x1="273.38862830472414" x2="273.38862830472414" y1="0.5" y2="30"/><line opacity="0.2" x1="200.37066843329234" x2="200.37066843329234" y1="0.5" y2="30"/><line opacity="0.2" x1="232.8949888185495" x2="232.8949888185495" y1="0.5" y2="30"/><line opacity="0.2" x1="345.71437994434746" x2="345.71437994434746" y1="0.5" y2="30"/><line opacity="0.2" x1="387.1229840159232" x2="387.1229840159232" y1="0.5" y2="30"/><line opacity="0.2" x1="272.30262703159536" x2="272.30262703159536" y1="0.5" y2="30"/><line opacity="0.2" x1="230.2836323624376" x2="230.2836323624376" y1="0.5" y2="30"/><line opacity="0.2" x1="69.37524664703236" x2="69.37524664703236" y1="0.5" y2="30"/><line opacity="0.2" x1="251.0889749197843" x2="251.0889749197843" y1="0.5" y2="30"/><line opacity="0.2" x1="334.3275375688577" x2="334.3275375688577" y1="0.5" y2="30"/><line opacity="0.2" x1="380.7082155452304" x2="380.7082155452304" y1="0.5" y2="30"/><line opacity="0.2" x1="280.260028397174" x2="280.260028397174" y1="0.5" y2="30"/><line opacity="0.2" x1="203.32629173890226" x2="203.32629173890226" y1="0.5" y2="30"/><line opacity="0.2" x1="412.59372327313406" x2="412.59372327313406" y1="0.5" y2="30"/><line opacity="0.2" x1="288.318851231382" x2="288.318851231382" y1="0.5" y2="30"/><line opacity="0.2" x1="215.64381569536607" x2="215.64381569536607" y1="0.5" y2="30"/><line opacity="0.2" x1="403.80809324179666" x2="403.80809324179666" y1="0.5" y2="30"/><line opacity="0.2" x1="273.31483325501165" x2="273.31483325501165" y1="0.5" y2="30"/><line opacity="0.2" x1="356.5311641912292" x2="356.5311641912292" y1="0.5" y2="30"/><line opacity="0.2" x1="358.9635109329671" x2="358.9635109329671" y1="0.5" y2="30"/><line opacity="0.2" x1="224.57129373280202" x2="224.57129373280202" y1="0.5" y2="30"/><line opacity="0.2" x1="357.44255772353563" x2="357.44255772353563" y1="0.5" y2="30"/><line opacity="0.2" x1="185.02473617584195" x2="185.02473617584195" y1="0.5" y2="30"/><line opacity="0.2" x1="276.953904745576" x2="276.953904745576" y1="0.5" y2="30"/><line opacity="0.2" x1="316.06004351754245" x2="316.06004351754245" y1="0.5" y2="30"/><line opacity="0.2" x1="115.90439124424704" x2="115.90439124424704" y1="0.5" y2="30"/><line opacity="0.2" x1="196.6786161704966" x2="196.6786161704966" y1="0.5" y2="30"/><line opacity="0.2" x1="341.32512318130176" x2="341.32512318130176" y1="0.5" y2="30"/><line opacity="0.2" x1="393.3343151913364" x2="393.3343151913364" y1="0.5" y2="30"/><line opacity="0.2" x1="209.26512824877923" x2="209.26512824877923" y1="0.5" y2="30"/><line opacity="0.2" x1="246.72921543646066" x2="246.72921543646066" y1="0.5" y2="30"/><line opacity="0.2" x1="196.22632776188493" x2="196.22632776188493" y1="0.5" y2="30"/><line opacity="0.2" x1="311.9403312769881" x2="311.9403312769881" y1="0.5" y2="30"/><line opacity="0.2" x1="510.9453097447156" x2="510.9453097447156" y1="0.5" y2="30"/><line opacity="0.2" x1="343.2464626872907" x2="343.2464626872907" y1="0.5" y2="30"/><line opacity="0.2" x1="276.49138239071186" x2="276.49138239071186" y1="0.5" y2="30"/><line opacity="0.2" x1="177.2807212122991" x2="177.2807212122991" y1="0.5" y2="30"/><line opacity="0.2" x1="290.69729331925527" x2="290.69729331925527" y1="0.5" y2="30"/><line opacity="0.2" x1="248.7524838336839" x2="248.7524838336839" y1="0.5" y2="30"/><line opacity="0.2" x1="343.49617784385026" x2="343.49617784385026" y1="0.5" y2="30"/><line opacity="0.2" x1="255.16309846387526" x2="255.16309846387526" y1="0.5" y2="30"/><line opacity="0.2" x1="371.0791673107617" x2="371.0791673107617" y1="0.5" y2="30"/><line opacity="0.2" x1="392.059101081651" x2="392.059101081651" y1="0.5" y2="30"/><line opacity="0.2" x1="348.35894351499223" x2="348.35894351499223" y1="0.5" y2="30"/><line opacity="0.2" x1="208.5744031457308" x2="208.5744031457308" y1="0.5" y2="30"/><line opacity="0.2" x1="238.9796124454555" x2="238.9796124454555" y1="0.5" y2="30"/><line opacity="0.2" x1="193.18448665626508" x2="193.18448665626508" y1="0.5" y2="30"/><line opacity="0.2" x1="281.8696395926129" x2="281.8696395926129" y1="0.5" y2="30"/><line opacity="0.2" x1="158.99461987116106" x2="158.99461987116106" y1="0.5" y2="30"/><line opacity="0.2" x1="369.0243456149834" x2="369.0243456149834" y1="0.5" y2="30"/><line opacity="0.2" x1="338.09191556181565" x2="338.09191556181565" y1="0.5" y2="30"/><line opacity="0.2" x1="321.7283244484649" x2="321.7283244484649" y1="0.5" y2="30"/><line opacity="0.2" x1="280.8010868324343" x2="280.8010868324343" y1="0.5" y2="30"/><line opacity="0.2" x1="313.2290926284041" x2="313.2290926284041" y1="0.5" y2="30"/><line opacity="0.2" x1="395.61639402243316" x2="395.61639402243316" y1="0.5" y2="30"/><line opacity="0.2" x1="54.98783884692805" x2="54.98783884692805" y1="0.5" y2="30"/><line opacity="0.2" x1="264.76425231254683" x2="264.76425231254683" y1="0.5" y2="30"/><line opacity="0.2" x1="265.5434838738615" x2="265.5434838738615" y1="0.5" y2="30"/><line opacity="0.2" x1="393.10929293017466" x2="393.10929293017466" y1="0.5" y2="30"/><line opacity="0.2" x1="357.5558668237227" x2="357.5558668237227" y1="0.5" y2="30"/><line opacity="0.2" x1="366.4512210302107" x2="366.4512210302107" y1="0.5" y2="30"/><line opacity="0.2" x1="270.4529097235119" x2="270.4529097235119" y1="0.5" y2="30"/><line opacity="0.2" x1="363.51078204294026" x2="363.51078204294026" y1="0.5" y2="30"/><line opacity="0.2" x1="277.4308960184088" x2="277.4308960184088" y1="0.5" y2="30"/><line opacity="0.2" x1="269.757129148384" x2="269.757129148384" y1="0.5" y2="30"/><line opacity="0.2" x1="186.41417661682044" x2="186.41417661682044" y1="0.5" y2="30"/><line opacity="0.2" x1="397.043106666873" x2="397.043106666873" y1="0.5" y2="30"/><line opacity="0.2" x1="248.62266428100182" x2="248.62266428100182" y1="0.5" y2="30"/><line opacity="0.2" x1="315.2744467024329" x2="315.2744467024329" y1="0.5" y2="30"/><line opacity="0.2" x1="333.11662574906967" x2="333.11662574906967" y1="0.5" y2="30"/><line opacity="0.2" x1="420.32717493489963" x2="420.32717493489963" y1="0.5" y2="30"/><line opacity="0.2" x1="292.0845568101437" x2="292.0845568101437" y1="0.5" y2="30"/><line opacity="0.2" x1="271.616690102095" x2="271.616690102095" y1="0.5" y2="30"/><line opacity="0.2" x1="390.8914459066048" x2="390.8914459066048" y1="0.5" y2="30"/><line opacity="0.2" x1="58.15682390976136" x2="58.15682390976136" y1="0.5" y2="30"/><line opacity="0.2" x1="316.18798069574495" x2="316.18798069574495" y1="0.5" y2="30"/><line opacity="0.2" x1="199.51459941626982" x2="199.51459941626982" y1="0.5" y2="30"/><line opacity="0.2" x1="229.17968919137277" x2="229.17968919137277" y1="0.5" y2="30"/><line opacity="0.2" x1="428.2743567255379" x2="428.2743567255379" y1="0.5" y2="30"/><line opacity="0.2" x1="207.0555857823639" x2="207.0555857823639" y1="0.5" y2="30"/><line opacity="0.2" x1="327.53159415810615" x2="327.53159415810615" y1="0.5" y2="30"/><line opacity="0.2" x1="295.7955099506048" x2="295.7955099506048" y1="0.5" y2="30"/><line opacity="0.2" x1="137.18481414493795" x2="137.18481414493795" y1="0.5" y2="30"/><line opacity="0.2" x1="192.21382710208957" x2="192.21382710208957" y1="0.5" y2="30"/><line opacity="0.2" x1="261.08792329392867" x2="261.08792329392867" y1="0.5" y2="30"/><line opacity="0.2" x1="270.9227472191346" x2="270.9227472191346" y1="0.5" y2="30"/><line opacity="0.2" x1="355.2729875471454" x2="355.2729875471454" y1="0.5" y2="30"/><line opacity="0.2" x1="333.52834071767256" x2="333.52834071767256" y1="0.5" y2="30"/><line opacity="0.2" x1="223.28313484608051" x2="223.28313484608051" y1="0.5" y2="30"/><line opacity="0.2" x1="321.4969738209753" x2="321.4969738209753" y1="0.5" y2="30"/><line opacity="0.2" x1="326.5083800861347" x2="326.5083800861347" y1="0.5" y2="30"/><line opacity="0.2" x1="346.1424302494074" x2="346.1424302494074" y1="0.5" y2="30"/><line opacity="0.2" x1="178.0709052728993" x2="178.0709052728993" y1="0.5" y2="30"/><line opacity="0.2" x1="188.289634858637" x2="188.289634858637" y1="0.5" y2="30"/><line opacity="0.2" x1="262.93078910913783" x2="262.93078910913783" y1="0.5" y2="30"/><line opacity="0.2" x1="276.04695403895664" x2="276.04695403895664" y1="0.5" y2="30"/><line opacity="0.2" x1="248.51511447987693" x2="248.51511447987693" y1="0.5" y2="30"/><line opacity="0.2" x1="282.064608504913" x2="282.064608504913" y1="0.5" y2="30"/><line opacity="0.2" x1="258.4873784609047" x2="258.4873784609047" y1="0.5" y2="30"/><line opacity="0.2" x1="267.69460936595135" x2="267.69460936595135" y1="0.5" y2="30"/><line opacity="0.2" x1="508.3499582979585" x2="508.3499582979585" y1="0.5" y2="30"/><line opacity="0.2" x1="480.66173621702046" x2="480.66173621702046" y1="0.5" y2="30"/><line opacity="0.2" x1="461.18099348785915" x2="461.18099348785915" y1="0.5" y2="30"/><line opacity="0.2" x1="300.5962811178709" x2="300.5962811178709" y1="0.5" y2="30"/><line opacity="0.2" x1="368.1053083428944" x2="368.1053083428944" y1="0.5" y2="30"/><line opacity="0.2" x1="390.7189053586502" x2="390.7189053586502" y1="0.5" y2="30"/><line opacity="0.2" x1="443.6649812707903" x2="443.6649812707903" y1="0.5" y2="30"/><line opacity="0.2" x1="283.2441765800667" x2="283.2441765800667" y1="0.5" y2="30"/><line opacity="0.2" x1="270.7949350892284" x2="270.7949350892284" y1="0.5" y2="30"/><line opacity="0.2" x1="248.2840465095682" x2="248.2840465095682" y1="0.5" y2="30"/><line opacity="0.2" x1="218.92790960771106" x2="218.92790960771106" y1="0.5" y2="30"/><line opacity="0.2" x1="294.45615435424793" x2="294.45615435424793" y1="0.5" y2="30"/><line opacity="0.2" x1="222.77151201422944" x2="222.77151201422944" y1="0.5" y2="30"/><line opacity="0.2" x1="284.7048332257899" x2="284.7048332257899" y1="0.5" y2="30"/><line opacity="0.2" x1="305.9719717666471" x2="305.9719717666471" y1="0.5" y2="30"/><line opacity="0.2" x1="196.96501960194405" x2="196.96501960194405" y1="0.5" y2="30"/><line opacity="0.2" x1="421.1902892373323" x2="421.1902892373323" y1="0.5" y2="30"/><line opacity="0.2" x1="247.66139351495679" x2="247.66139351495679" y1="0.5" y2="30"/><line opacity="0.2" x1="236.33323871497424" x2="236.33323871497424" y1="0.5" y2="30"/><line opacity="0.2" x1="179.86497016587842" x2="179.86497016587842" y1="0.5" y2="30"/><line opacity="0.2" x1="249.20118054823868" x2="249.20118054823868" y1="0.5" y2="30"/><line opacity="0.2" x1="372.4587825428004" x2="372.4587825428004" y1="0.5" y2="30"/><line opacity="0.2" x1="248.70176808797848" x2="248.70176808797848" y1="0.5" y2="30"/><line opacity="0.2" x1="255.7500156454375" x2="255.7500156454375" y1="0.5" y2="30"/><line opacity="0.2" x1="391.86677278325425" x2="391.86677278325425" y1="0.5" y2="30"/><line opacity="0.2" x1="497.44458423602265" x2="497.44458423602265" y1="0.5" y2="30"/><line opacity="0.2" x1="286.0791365287523" x2="286.0791365287523" y1="0.5" y2="30"/><line opacity="0.2" x1="331.91925545418167" x2="331.91925545418167" y1="0.5" y2="30"/><line opacity="0.2" x1="183.83391403698457" x2="183.83391403698457" y1="0.5" y2="30"/><line opacity="0.2" x1="277.9310566213352" x2="277.9310566213352" y1="0.5" y2="30"/><line opacity="0.2" x1="193.47745707712406" x2="193.47745707712406" y1="0.5" y2="30"/><line opacity="0.2" x1="258.9008728511371" x2="258.9008728511371" y1="0.5" y2="30"/><line opacity="0.2" x1="255.20082617328123" x2="255.20082617328123" y1="0.5" y2="30"/><line opacity="0.2" x1="337.9741706367644" x2="337.9741706367644" y1="0.5" y2="30"/><line opacity="0.2" x1="275.8171778504759" x2="275.8171778504759" y1="0.5" y2="30"/><line opacity="0.2" x1="262.6926783826433" x2="262.6926783826433" y1="0.5" y2="30"/><line opacity="0.2" x1="175.48716851965563" x2="175.48716851965563" y1="0.5" y2="30"/><line opacity="0.2" x1="306.19934208496267" x2="306.19934208496267" y1="0.5" y2="30"/><line opacity="0.2" x1="365.17319433440616" x2="365.17319433440616" y1="0.5" y2="30"/><line opacity="0.2" x1="309.84398655450354" x2="309.84398655450354" y1="0.5" y2="30"/><line opacity="0.2" x1="292.73772303745625" x2="292.73772303745625" y1="0.5" y2="30"/><line opacity="0.2" x1="267.3416920811847" x2="267.3416920811847" y1="0.5" y2="30"/><line opacity="0.2" x1="279.513668687987" x2="279.513668687987" y1="0.5" y2="30"/><line opacity="0.2" x1="268.4684893131604" x2="268.4684893131604" y1="0.5" y2="30"/><line opacity="0.2" x1="260.0447475667119" x2="260.0447475667119" y1="0.5" y2="30"/><line opacity="0.2" x1="374.424347923895" x2="374.424347923895" y1="0.5" y2="30"/><line opacity="0.2" x1="270.2780427209018" x2="270.2780427209018" y1="0.5" y2="30"/><line opacity="0.2" x1="250.1497132669551" x2="250.1497132669551" y1="0.5" y2="30"/><line opacity="0.2" x1="276.92093792583165" x2="276.92093792583165" y1="0.5" y2="30"/><line opacity="0.2" x1="389.21891449465977" x2="389.21891449465977" y1="0.5" y2="30"/><line opacity="0.2" x1="208.51259527502074" x2="208.51259527502074" y1="0.5" y2="30"/><line opacity="0.2" x1="238.0115631055057" x2="238.0115631055057" y1="0.5" y2="30"/><line opacity="0.2" x1="335.8504947824936" x2="335.8504947824936" y1="0.5" y2="30"/><line opacity="0.2" x1="210.51412163497628" x2="210.51412163497628" y1="0.5" y2="30"/><line opacity="0.2" x1="326.6907229462692" x2="326.6907229462692" y1="0.5" y2="30"/><line opacity="0.2" x1="304.004516018708" x2="304.004516018708" y1="0.5" y2="30"/><line opacity="0.2" x1="297.2078132185984" x2="297.2078132185984" y1="0.5" y2="30"/><line opacity="0.2" x1="377.2476130748618" x2="377.2476130748618" y1="0.5" y2="30"/><line opacity="0.2" x1="402.7705323735187" x2="402.7705323735187" y1="0.5" y2="30"/><line opacity="0.2" x1="257.446762193837" x2="257.446762193837" y1="0.5" y2="30"/><line opacity="0.2" x1="241.74475703338794" x2="241.74475703338794" y1="0.5" y2="30"/><line opacity="0.2" x1="321.9366775751049" x2="321.9366775751049" y1="0.5" y2="30"/><line opacity="0.2" x1="343.07479821747876" x2="343.07479821747876" y1="0.5" y2="30"/><line opacity="0.2" x1="425.7194523165003" x2="425.7194523165003" y1="0.5" y2="30"/><line opacity="0.2" x1="333.41930946324595" x2="333.41930946324595" y1="0.5" y2="30"/><line opacity="0.2" x1="261.6041144776003" x2="261.6041144776003" y1="0.5" y2="30"/><line opacity="0.2" x1="365.2754932522335" x2="365.2754932522335" y1="0.5" y2="30"/><line opacity="0.2" x1="357.5738919067292" x2="357.5738919067292" y1="0.5" y2="30"/><line opacity="0.2" x1="340.55567728857466" x2="340.55567728857466" y1="0.5" y2="30"/><line opacity="0.2" x1="269.68941207822" x2="269.68941207822" y1="0.5" y2="30"/><line opacity="0.2" x1="113.7524249810423" x2="113.7524249810423" y1="0.5" y2="30"/><line opacity="0.2" x1="358.1217325877398" x2="358.1217325877398" y1="0.5" y2="30"/><line opacity="0.2" x1="501.5996054278385" x2="501.5996054278385" y1="0.5" y2="30"/><line opacity="0.2" x1="357.0140705035802" x2="357.0140705035802" y1="0.5" y2="30"/><line opacity="0.2" x1="316.3865724410148" x2="316.3865724410148" y1="0.5" y2="30"/><line opacity="0.2" x1="300.30441294678616" x2="300.30441294678616" y1="0.5" y2="30"/><line opacity="0.2" x1="465.0411608353685" x2="465.0411608353685" y1="0.5" y2="30"/><line opacity="0.2" x1="264.1042320282123" x2="264.1042320282123" y1="0.5" y2="30"/><line opacity="0.2" x1="263.3230626918244" x2="263.3230626918244" y1="0.5" y2="30"/><line opacity="0.2" x1="318.60808586690075" x2="318.60808586690075" y1="0.5" y2="30"/><line opacity="0.2" x1="282.64558429282937" x2="282.64558429282937" y1="0.5" y2="30"/><line opacity="0.2" x1="309.61493172791904" x2="309.61493172791904" y1="0.5" y2="30"/><line opacity="0.2" x1="284.5193396242575" x2="284.5193396242575" y1="0.5" y2="30"/><line opacity="0.2" x1="267.89210525018143" x2="267.89210525018143" y1="0.5" y2="30"/><line opacity="0.2" x1="440.63069324440767" x2="440.63069324440767" y1="0.5" y2="30"/><line opacity="0.2" x1="360.22016855420856" x2="360.22016855420856" y1="0.5" y2="30"/><line opacity="0.2" x1="393.8097112219694" x2="393.8097112219694" y1="0.5" y2="30"/><line opacity="0.2" x1="375.8295304605347" x2="375.8295304605347" y1="0.5" y2="30"/><line opacity="0.2" x1="288.5163380211071" x2="288.5163380211071" y1="0.5" y2="30"/><line opacity="0.2" x1="190.90862743749568" x2="190.90862743749568" y1="0.5" y2="30"/><line opacity="0.2" x1="347.35221087931524" x2="347.35221087931524" y1="0.5" y2="30"/><line opacity="0.2" x1="199.73285020870512" x2="199.73285020870512" y1="0.5" y2="30"/><line opacity="0.2" x1="152.65656955501672" x2="152.65656955501672" y1="0.5" y2="30"/><line opacity="0.2" x1="407.69874255936423" x2="407.69874255936423" y1="0.5" y2="30"/><line opacity="0.2" x1="379.7341697957302" x2="379.7341697957302" y1="0.5" y2="30"/><line opacity="0.2" x1="166.40164739891722" x2="166.40164739891722" y1="0.5" y2="30"/><line opacity="0.2" x1="83.94131131319622" x2="83.94131131319622" y1="0.5" y2="30"/><line opacity="0.2" x1="240.32141717932834" x2="240.32141717932834" y1="0.5" y2="30"/><line opacity="0.2" x1="237.53804329972434" x2="237.53804329972434" y1="0.5" y2="30"/><line opacity="0.2" x1="282.24932976569784" x2="282.24932976569784" y1="0.5" y2="30"/><line opacity="0.2" x1="231.95871250205462" x2="231.95871250205462" y1="0.5" y2="30"/><line opacity="0.2" x1="403.8071757270328" x2="403.8071757270328" y1="0.5" y2="30"/><line opacity="0.2" x1="297.4940317883109" x2="297.4940317883109" y1="0.5" y2="30"/><line opacity="0.2" x1="360.4022626856852" x2="360.4022626856852" y1="0.5" y2="30"/><line opacity="0.2" x1="283.0756462064584" x2="283.0756462064584" y1="0.5" y2="30"/><line opacity="0.2" x1="270.1102408838935" x2="270.1102408838935" y1="0.5" y2="30"/><line opacity="0.2" x1="131.21284936916064" x2="131.21284936916064" y1="0.5" y2="30"/><line opacity="0.2" x1="386.25987212456505" x2="386.25987212456505" y1="0.5" y2="30"/><line opacity="0.2" x1="352.8038616354809" x2="352.8038616354809" y1="0.5" y2="30"/><line opacity="0.2" x1="200.5596144172325" x2="200.5596144172325" y1="0.5" y2="30"/><line opacity="0.2" x1="310.95381005842904" x2="310.95381005842904" y1="0.5" y2="30"/><line opacity="0.2" x1="238.68621772700564" x2="238.68621772700564" y1="0.5" y2="30"/><line opacity="0.2" x1="293.1254402420945" x2="293.1254402420945" y1="0.5" y2="30"/><line opacity="0.2" x1="236.64973742432778" x2="236.64973742432778" y1="0.5" y2="30"/><line opacity="0.2" x1="195.45008328225407" x2="195.45008328225407" y1="0.5" y2="30"/><line opacity="0.2" x1="244.4496799632627" x2="244.4496799632627" y1="0.5" y2="30"/><line opacity="0.2" x1="450.0295158408716" x2="450.0295158408716" y1="0.5" y2="30"/><line opacity="0.2" x1="199.61175833425503" x2="199.61175833425503" y1="0.5" y2="30"/><line opacity="0.2" x1="338.28853753888745" x2="338.28853753888745" y1="0.5" y2="30"/><line opacity="0.2" x1="412.6517515443572" x2="412.6517515443572" y1="0.5" y2="30"/><line opacity="0.2" x1="297.68884720813963" x2="297.68884720813963" y1="0.5" y2="30"/><line opacity="0.2" x1="296.7591219940727" x2="296.7591219940727" y1="0.5" y2="30"/><line opacity="0.2" x1="343.5070881047691" x2="343.5070881047691" y1="0.5" y2="30"/><line opacity="0.2" x1="274.18913460957066" x2="274.18913460957066" y1="0.5" y2="30"/><line opacity="0.2" x1="159.77922913632983" x2="159.77922913632983" y1="0.5" y2="30"/><line opacity="0.2" x1="287.8951401545322" x2="287.8951401545322" y1="0.5" y2="30"/><line opacity="0.2" x1="368.043427939938" x2="368.043427939938" y1="0.5" y2="30"/><line opacity="0.2" x1="435.0379526889227" x2="435.0379526889227" y1="0.5" y2="30"/><line opacity="0.2" x1="139.4158404517091" x2="139.4158404517091" y1="0.5" y2="30"/><line opacity="0.2" x1="388.537253826149" x2="388.537253826149" y1="0.5" y2="30"/><line opacity="0.2" x1="308.40834709890987" x2="308.40834709890987" y1="0.5" y2="30"/><line opacity="0.2" x1="281.5029949148618" x2="281.5029949148618" y1="0.5" y2="30"/><line opacity="0.2" x1="399.67313719555705" x2="399.67313719555705" y1="0.5" y2="30"/><line opacity="0.2" x1="140.50839734993818" x2="140.50839734993818" y1="0.5" y2="30"/><line opacity="0.2" x1="310.68279686016695" x2="310.68279686016695" y1="0.5" y2="30"/><line opacity="0.2" x1="284.6011052286824" x2="284.6011052286824" y1="0.5" y2="30"/><line opacity="0.2" x1="258.4688598665916" x2="258.4688598665916" y1="0.5" y2="30"/><line opacity="0.2" x1="295.94570989340565" x2="295.94570989340565" y1="0.5" y2="30"/><line opacity="0.2" x1="315.5282303847431" x2="315.5282303847431" y1="0.5" y2="30"/><line opacity="0.2" x1="363.42004729119446" x2="363.42004729119446" y1="0.5" y2="30"/><line opacity="0.2" x1="331.8831340321431" x2="331.8831340321431" y1="0.5" y2="30"/><line opacity="0.2" x1="388.1683237135382" x2="388.1683237135382" y1="0.5" y2="30"/><line opacity="0.2" x1="120.24849496955694" x2="120.24849496955694" y1="0.5" y2="30"/><line opacity="0.2" x1="268.4905935371477" x2="268.4905935371477" y1="0.5" y2="30"/><line opacity="0.2" x1="378.4028428234879" x2="378.4028428234879" y1="0.5" y2="30"/><line opacity="0.2" x1="387.42098917624537" x2="387.42098917624537" y1="0.5" y2="30"/><line opacity="0.2" x1="208.7403402959455" x2="208.7403402959455" y1="0.5" y2="30"/><line opacity="0.2" x1="372.0113297960945" x2="372.0113297960945" y1="0.5" y2="30"/><line opacity="0.2" x1="360.212598598393" x2="360.212598598393" y1="0.5" y2="30"/><line opacity="0.2" x1="411.5944463412687" x2="411.5944463412687" y1="0.5" y2="30"/><line opacity="0.2" x1="303.620810108637" x2="303.620810108637" y1="0.5" y2="30"/><line opacity="0.2" x1="264.2919217938774" x2="264.2919217938774" y1="0.5" y2="30"/><line opacity="0.2" x1="192.2067656446191" x2="192.2067656446191" y1="0.5" y2="30"/><line opacity="0.2" x1="244.34051360483463" x2="244.34051360483463" y1="0.5" y2="30"/><line opacity="0.2" x1="343.36448966710043" x2="343.36448966710043" y1="0.5" y2="30"/><line opacity="0.2" x1="452.1986788060653" x2="452.1986788060653" y1="0.5" y2="30"/><line opacity="0.2" x1="429.63658095104205" x2="429.63658095104205" y1="0.5" y2="30"/><line opacity="0.2" x1="116.88954898163261" x2="116.88954898163261" y1="0.5" y2="30"/><line opacity="0.2" x1="208.88164737984394" x2="208.88164737984394" y1="0.5" y2="30"/><line opacity="0.2" x1="277.6120535494874" x2="277.6120535494874" y1="0.5" y2="30"/><line opacity="0.2" x1="214.1145600821035" x2="214.1145600821035" y1="0.5" y2="30"/><line opacity="0.2" x1="351.4110511595345" x2="351.4110511595345" y1="0.5" y2="30"/><line opacity="0.2" x1="315.27697183286875" x2="315.27697183286875" y1="0.5" y2="30"/><line opacity="0.2" x1="108.60340438096343" x2="108.60340438096343" y1="0.5" y2="30"/><line opacity="0.2" x1="317.3999871953764" x2="317.3999871953764" y1="0.5" y2="30"/><line opacity="0.2" x1="382.61773640016264" x2="382.61773640016264" y1="0.5" y2="30"/><line opacity="0.2" x1="280.66894253434276" x2="280.66894253434276" y1="0.5" y2="30"/><line opacity="0.2" x1="353.7995047473783" x2="353.7995047473783" y1="0.5" y2="30"/><line opacity="0.2" x1="292.3885953917606" x2="292.3885953917606" y1="0.5" y2="30"/><line opacity="0.2" x1="259.260064076462" x2="259.260064076462" y1="0.5" y2="30"/><line opacity="0.2" x1="445.86193500740706" x2="445.86193500740706" y1="0.5" y2="30"/><line opacity="0.2" x1="343.9731180545451" x2="343.9731180545451" y1="0.5" y2="30"/><line opacity="0.2" x1="273.25994896840365" x2="273.25994896840365" y1="0.5" y2="30"/><line opacity="0.2" x1="376.4266526903449" x2="376.4266526903449" y1="0.5" y2="30"/><line opacity="0.2" x1="245.40305915591418" x2="245.40305915591418" y1="0.5" y2="30"/><line opacity="0.2" x1="269.8480916927678" x2="269.8480916927678" y1="0.5" y2="30"/><line opacity="0.2" x1="381.69519222085034" x2="381.69519222085034" y1="0.5" y2="30"/><line opacity="0.2" x1="281.5971721460765" x2="281.5971721460765" y1="0.5" y2="30"/><line opacity="0.2" x1="453.10020059562044" x2="453.10020059562044" y1="0.5" y2="30"/><line opacity="0.2" x1="265.519712412177" x2="265.519712412177" y1="0.5" y2="30"/><line opacity="0.2" x1="291.1632672173436" x2="291.1632672173436" y1="0.5" y2="30"/><line opacity="0.2" x1="285.77448240904596" x2="285.77448240904596" y1="0.5" y2="30"/><line opacity="0.2" x1="189.59134647793053" x2="189.59134647793053" y1="0.5" y2="30"/><line opacity="0.2" x1="262.47883823171907" x2="262.47883823171907" y1="0.5" y2="30"/><line opacity="0.2" x1="238.0879424731488" x2="238.0879424731488" y1="0.5" y2="30"/><line opacity="0.2" x1="283.9035998721781" x2="283.9035998721781" y1="0.5" y2="30"/><line opacity="0.2" x1="273.94555618477193" x2="273.94555618477193" y1="0.5" y2="30"/><line opacity="0.2" x1="305.9686215650543" x2="305.9686215650543" y1="0.5" y2="30"/><line opacity="0.2" x1="201.0888935153318" x2="201.0888935153318" y1="0.5" y2="30"/><line opacity="0.2" x1="246.16434431455363" x2="246.16434431455363" y1="0.5" y2="30"/><line opacity="0.2" x1="334.10580638315827" x2="334.10580638315827" y1="0.5" y2="30"/><line opacity="0.2" x1="384.1864789484584" x2="384.1864789484584" y1="0.5" y2="30"/><line opacity="0.2" x1="284.4160799688363" x2="284.4160799688363" y1="0.5" y2="30"/><line opacity="0.2" x1="265.4247455518073" x2="265.4247455518073" y1="0.5" y2="30"/><line opacity="0.2" x1="271.60754364000474" x2="271.60754364000474" y1="0.5" y2="30"/><line opacity="0.2" x1="438.0099671110175" x2="438.0099671110175" y1="0.5" y2="30"/></g></svg>