<svg xmlns="http://www.w3.org/2000/svg" xmlns:xlink="http://www.w3.org/1999/xlink" class="plot-d874f34a716f4" fill="currentColor" font-family="system-ui, sans-serif" font-size="10" text-anchor="middle" width="640" height="60" viewBox="0 0 640 60" style="color: black;"><style>
        .plot-d874f34a716f4 {
          display: block;
          background: white;
          height: auto;
          height: intrinsic;
          max-width: 100%;
        }
        .plot-d874f34a716f4 text,
        .plot-d874f34a716f4 tspan {
          white-space: pre;
        }
      </style><g aria-label="x-axis tick" fill="none" stroke="currentColor" transform="translate(0.5,0)"><path transform="translate(80.77758366585951,30)" d="M0,0L0,6"/><path transform="translate(169.7053790140795,30)" d="M0,0L0,6"/><path transform="translate(258.63317436229954,30)" d="M0,0L0,6"/><path transform="translate(347.5609697105195,30)" d="M0,0L0,6"/><path transform="translate(436.4887650587395,30)" d="M0,0L0,6"/><path transform="translate(525.4165604069594,30)" d="M0,0L0,6"/><path transform="translate(614.3443557551795,30)" d="M0,0L0,6"/></g><g aria-label="x-axis tick label" font-variant="tabular-nums" transform="translate(0.5,9.5)"><text y="0.71em" transform="translate(80.77758366585951,30)">−3</text><text y="0.71em" transform="translate(169.7053790140795,30)">−2</text><text y="0.71em" transform="translate(258.63317436229954,30)">−1</text><text y="0.71em" transform="translate(347.5609697105195,30)">0</text><text y="0.71em" transform="translate(436.4887650587395,30)">1</text><text y="0.71em" transform="translate(525.4165604069594,30)">2</text><text y="0.71em" transform="translate(614.3443557551795,30)">3</text></g><g aria-label="tick" stroke="royalblue" transform="translate(0.5,0)"><line opacity="0.2" x1="350.7652345624761" x2="350.7652345624761" y1="0" y2="30"/><line opacity="0.2" x1="338.5708622084838" x2="338.5708622084838" y1="0" y2="30"/><line opacity="0.2" x1="378.83570405012597" x2="378.83570405012597" y1="0" y2="30"/><line opacity="0.2" x1="129.80728977264297" x2="129.80728977264297" y1="0" y2="30"/><line opacity="0.2" x1="468.68633559549124" x2="468.68633559549124" y1="0" y2="30"/><line opacity="0.2" x1="322.4725479254612" x2="322.4725479254612" y1="0" y2="30"/><line opacity="0.2" x1="232.6322263009751" x2="232.6322263009751" y1="0" y2="30"/><line opacity="0.2" x1="370.86499462612034" x2="370.86499462612034" y1="0" y2="30"/><line opacity="0.2" x1="280.0101998531376" x2="280.0101998531376" y1="0" y2="30"/><line opacity="0.2" x1="332.1834723318825" x2="332.1834723318825" y1="0" y2="30"/><line opacity="0.2" x1="545.0893394821207" x2="545.0893394821207" y1="0" y2="30"/><line opacity="0.2" x1="310.6002394081534" x2="310.6002394081534" y1="0" y2="30"/><line opacity="0.2" x1="302.2865949648741" x2="302.2865949648741" y1="0" y2="30"/><line opacity="0.2" x1="358.42686234402134" x2="358.42686234402134" y1="0" y2="30"/><line opacity="0.2" x1="348.6304721648483" x2="348.6304721648483" y1="0" y2="30"/><line opacity="0.2" x1="227.36217649211727" x2="227.36217649211727" y1="0" y2="30"/><line opacity="0.2" x1="355.5656054944594" x2="355.5656054944594" y1="0" y2="30"/><line opacity="0.2" x1="319.4822462422731" x2="319.4822462422731" y1="0" y2="30"/><line opacity="0.2" x1="230.41508830629735" x2="230.41508830629735" y1="0" y2="30"/><line opacity="0.2" x1="397.6188816544404" x2="397.6188816544404" y1="0" y2="30"/><line opacity="0.2" x1="310.0761660283871" x2="310.0761660283871" y1="0" y2="30"/><line opacity="0.2" x1="249.97594987034387" x2="249.97594987034387" y1="0" y2="30"/><line opacity="0.2" x1="419.83640290252544" x2="419.83640290252544" y1="0" y2="30"/><line opacity="0.2" x1="267.1279369744023" x2="267.1279369744023" y1="0" y2="30"/><line opacity="0.2" x1="280.48307465502916" x2="280.48307465502916" y1="0" y2="30"/><line opacity="0.2" x1="383.7802405625375" x2="383.7802405625375" y1="0" y2="30"/><line opacity="0.2" x1="298.2770053035429" x2="298.2770053035429" y1="0" y2="30"/><line opacity="0.2" x1="302.1347964425144" x2="302.1347964425144" y1="0" y2="30"/><line opacity="0.2" x1="441.71607573120923" x2="441.71607573120923" y1="0" y2="30"/><line opacity="0.2" x1="295.268664725647" x2="295.268664725647" y1="0" y2="30"/><line opacity="0.2" x1="312.1133823434662" x2="312.1133823434662" y1="0" y2="30"/><line opacity="0.2" x1="500.3111972476912" x2="500.3111972476912" y1="0" y2="30"/><line opacity="0.2" x1="379.0030864006176" x2="379.0030864006176" y1="0" y2="30"/><line opacity="0.2" x1="340.6970623384478" x2="340.6970623384478" y1="0" y2="30"/><line opacity="0.2" x1="558.4287514213108" x2="558.4287514213108" y1="0" y2="30"/><line opacity="0.2" x1="243.3573510393531" x2="243.3573510393531" y1="0" y2="30"/><line opacity="0.2" x1="412.09244268655124" x2="412.09244268655124" y1="0" y2="30"/><line opacity="0.2" x1="288.81001264468784" x2="288.81001264468784" y1="0" y2="30"/><line opacity="0.2" x1="234.51272858970174" x2="234.51272858970174" y1="0" y2="30"/><line opacity="0.2" x1="333.8852709574173" x2="333.8852709574173" y1="0" y2="30"/><line opacity="0.2" x1="286.16781899771934" x2="286.16781899771934" y1="0" y2="30"/><line opacity="0.2" x1="560.0391633224325" x2="560.0391633224325" y1="0" y2="30"/><line opacity="0.2" x1="280.3716625531947" x2="280.3716625531947" y1="0" y2="30"/><line opacity="0.2" x1="300.0311121296628" x2="300.0311121296628" y1="0" y2="30"/><line opacity="0.2" x1="312.14803905840097" x2="312.14803905840097" y1="0" y2="30"/><line opacity="0.2" x1="349.4383226083022" x2="349.4383226083022" y1="0" y2="30"/><line opacity="0.2" x1="367.12446932551074" x2="367.12446932551074" y1="0" y2="30"/><line opacity="0.2" x1="369.5863482526114" x2="369.5863482526114" y1="0" y2="30"/><line opacity="0.2" x1="441.01808051101176" x2="441.01808051101176" y1="0" y2="30"/><line opacity="0.2" x1="225.6437267955322" x2="225.6437267955322" y1="0" y2="30"/><line opacity="0.2" x1="392.7088397887544" x2="392.7088397887544" y1="0" y2="30"/><line opacity="0.2" x1="446.5514460062311" x2="446.5514460062311" y1="0" y2="30"/><line opacity="0.2" x1="195.71980496178108" x2="195.71980496178108" y1="0" y2="30"/><line opacity="0.2" x1="333.7604049306957" x2="333.7604049306957" y1="0" y2="30"/><line opacity="0.2" x1="311.98268187869337" x2="311.98268187869337" y1="0" y2="30"/><line opacity="0.2" x1="620" x2="620" y1="0" y2="30"/><line opacity="0.2" x1="441.22825485675844" x2="441.22825485675844" y1="0" y2="30"/><line opacity="0.2" x1="372.1522354762887" x2="372.1522354762887" y1="0" y2="30"/><line opacity="0.2" x1="392.90637660625384" x2="392.90637660625384" y1="0" y2="30"/><line opacity="0.2" x1="317.8344203871554" x2="317.8344203871554" y1="0" y2="30"/><line opacity="0.2" x1="330.8790885360529" x2="330.8790885360529" y1="0" y2="30"/><line opacity="0.2" x1="474.3206215309296" x2="474.3206215309296" y1="0" y2="30"/><line opacity="0.2" x1="253.1343669946915" x2="253.1343669946915" y1="0" y2="30"/><line opacity="0.2" x1="263.4002514939427" x2="263.4002514939427" y1="0" y2="30"/><line opacity="0.2" x1="285.7689001472487" x2="285.7689001472487" y1="0" y2="30"/><line opacity="0.2" x1="315.5659806720433" x2="315.5659806720433" y1="0" y2="30"/><line opacity="0.2" x1="312.2081255820333" x2="312.2081255820333" y1="0" y2="30"/><line opacity="0.2" x1="346.4958132664146" x2="346.4958132664146" y1="0" y2="30"/><line opacity="0.2" x1="457.46140759682" x2="457.46140759682" y1="0" y2="30"/><line opacity="0.2" x1="305.6948753073532" x2="305.6948753073532" y1="0" y2="30"/><line opacity="0.2" x1="201.02428682389967" x2="201.02428682389967" y1="0" y2="30"/><line opacity="0.2" x1="283.48742278534445" x2="283.48742278534445" y1="0" y2="30"/><line opacity="0.2" x1="151.82971133990986" x2="151.82971133990986" y1="0" y2="30"/><line opacity="0.2" x1="398.0359232853252" x2="398.0359232853252" y1="0" y2="30"/><line opacity="0.2" x1="409.97691353160394" x2="409.97691353160394" y1="0" y2="30"/><line opacity="0.2" x1="475.8171327296466" x2="475.8171327296466" y1="0" y2="30"/><line opacity="0.2" x1="347.1921256224993" x2="347.1921256224993" y1="0" y2="30"/><line opacity="0.2" x1="400.92952867837676" x2="400.92952867837676" y1="0" y2="30"/><line opacity="0.2" x1="371.95666435926563" x2="371.95666435926563" y1="0" y2="30"/><line opacity="0.2" x1="444.5842367323171" x2="444.5842367323171" y1="0" y2="30"/><line opacity="0.2" x1="237.7283891489648" x2="237.7283891489648" y1="0" y2="30"/><line opacity="0.2" x1="425.36692494445003" x2="425.36692494445003" y1="0" y2="30"/><line opacity="0.2" x1="420.684914919256" x2="420.684914919256" y1="0" y2="30"/><line opacity="0.2" x1="390.42470593671834" x2="390.42470593671834" y1="0" y2="30"/><line opacity="0.2" x1="221.01701613002592" x2="221.01701613002592" y1="0" y2="30"/><line opacity="0.2" x1="242.99926034113898" x2="242.99926034113898" y1="0" y2="30"/><line opacity="0.2" x1="364.12960267980344" x2="364.12960267980344" y1="0" y2="30"/><line opacity="0.2" x1="265.1843543474558" x2="265.1843543474558" y1="0" y2="30"/><line opacity="0.2" x1="446.3649343263052" x2="446.3649343263052" y1="0" y2="30"/><line opacity="0.2" x1="311.1367586527764" x2="311.1367586527764" y1="0" y2="30"/><line opacity="0.2" x1="20" x2="20" y1="0" y2="30"/><line opacity="0.2" x1="341.2850641012529" x2="341.2850641012529" y1="0" y2="30"/><line opacity="0.2" x1="323.89650850979547" x2="323.89650850979547" y1="0" y2="30"/><line opacity="0.2" x1="487.7665471141043" x2="487.7665471141043" y1="0" y2="30"/><line opacity="0.2" x1="377.26348984063446" x2="377.26348984063446" y1="0" y2="30"/><line opacity="0.2" x1="320.9725978131601" x2="320.9725978131601" y1="0" y2="30"/><line opacity="0.2" x1="458.0501064512884" x2="458.0501064512884" y1="0" y2="30"/><line opacity="0.2" x1="459.3507081188715" x2="459.3507081188715" y1="0" y2="30"/><line opacity="0.2" x1="334.9000096284808" x2="334.9000096284808" y1="0" y2="30"/><line opacity="0.2" x1="434.9508895103574" x2="434.9508895103574" y1="0" y2="30"/><line opacity="0.2" x1="472.3066536897678" x2="472.3066536897678" y1="0" y2="30"/><line opacity="0.2" x1="505.2467816860393" x2="505.2467816860393" y1="0" y2="30"/><line opacity="0.2" x1="361.94973401985555" x2="361.94973401985555" y1="0" y2="30"/><line opacity="0.2" x1="268.4264109725404" x2="268.4264109725404" y1="0" y2="30"/><line opacity="0.2" x1="453.7753206334588" x2="453.7753206334588" y1="0" y2="30"/><line opacity="0.2" x1="374.2156558592741" x2="374.2156558592741" y1="0" y2="30"/><line opacity="0.2" x1="418.3841321979579" x2="418.3841321979579" y1="0" y2="30"/><line opacity="0.2" x1="355.86257981636993" x2="355.86257981636993" y1="0" y2="30"/><line opacity="0.2" x1="308.0574341474881" x2="308.0574341474881" y1="0" y2="30"/><line opacity="0.2" x1="510.77700780790514" x2="510.77700780790514" y1="0" y2="30"/><line opacity="0.2" x1="240.50402974183788" x2="240.50402974183788" y1="0" y2="30"/><line opacity="0.2" x1="401.1428312791116" x2="401.1428312791116" y1="0" y2="30"/><line opacity="0.2" x1="283.14989545421594" x2="283.14989545421594" y1="0" y2="30"/><line opacity="0.2" x1="369.16716645823027" x2="369.16716645823027" y1="0" y2="30"/><line opacity="0.2" x1="460.8186483664042" x2="460.8186483664042" y1="0" y2="30"/><line opacity="0.2" x1="235.51835921689323" x2="235.51835921689323" y1="0" y2="30"/><line opacity="0.2" x1="71.39538763062681" x2="71.39538763062681" y1="0" y2="30"/><line opacity="0.2" x1="238.68426102948496" x2="238.68426102948496" y1="0" y2="30"/><line opacity="0.2" x1="350.1831882001428" x2="350.1831882001428" y1="0" y2="30"/><line opacity="0.2" x1="354.70832841370566" x2="354.70832841370566" y1="0" y2="30"/><line opacity="0.2" x1="340.5484251708801" x2="340.5484251708801" y1="0" y2="30"/><line opacity="0.2" x1="406.0741574837969" x2="406.0741574837969" y1="0" y2="30"/><line opacity="0.2" x1="275.20478811850273" x2="275.20478811850273" y1="0" y2="30"/><line opacity="0.2" x1="249.3080329853048" x2="249.3080329853048" y1="0" y2="30"/><line opacity="0.2" x1="123.74484283332953" x2="123.74484283332953" y1="0" y2="30"/><line opacity="0.2" x1="222.6646806828909" x2="222.6646806828909" y1="0" y2="30"/><line opacity="0.2" x1="411.30048352298866" x2="411.30048352298866" y1="0" y2="30"/><line opacity="0.2" x1="288.3753755867756" x2="288.3753755867756" y1="0" y2="30"/><line opacity="0.2" x1="326.57231775307577" x2="326.57231775307577" y1="0" y2="30"/><line opacity="0.2" x1="504.4708904804423" x2="504.4708904804423" y1="0" y2="30"/><line opacity="0.2" x1="489.71971348866595" x2="489.71971348866595" y1="0" y2="30"/><line opacity="0.2" x1="350.49203694699" x2="350.49203694699" y1="0" y2="30"/><line opacity="0.2" x1="255.20652714932535" x2="255.20652714932535" y1="0" y2="30"/><line opacity="0.2" x1="337.23489656981985" x2="337.23489656981985" y1="0" y2="30"/><line opacity="0.2" x1="269.41938301230493" x2="269.41938301230493" y1="0" y2="30"/><line opacity="0.2" x1="388.9821763857895" x2="388.9821763857895" y1="0" y2="30"/><line opacity="0.2" x1="368.61232502292467" x2="368.61232502292467" y1="0" y2="30"/><line opacity="0.2" x1="274.8805475828507" x2="274.8805475828507" y1="0" y2="30"/><line opacity="0.2" x1="390.4261445585968" x2="390.4261445585968" y1="0" y2="30"/><line opacity="0.2" x1="353.9843439335984" x2="353.9843439335984" y1="0" y2="30"/><line opacity="0.2" x1="523.7925958604343" x2="523.7925958604343" y1="0" y2="30"/><line opacity="0.2" x1="285.7678390767228" x2="285.7678390767228" y1="0" y2="30"/><line opacity="0.2" x1="340.5757906273508" x2="340.5757906273508" y1="0" y2="30"/><line opacity="0.2" x1="458.0401525766044" x2="458.0401525766044" y1="0" y2="30"/><line opacity="0.2" x1="403.6927245807368" x2="403.6927245807368" y1="0" y2="30"/><line opacity="0.2" x1="307.49752019174093" x2="307.49752019174093" y1="0" y2="30"/><line opacity="0.2" x1="225.2287965613949" x2="225.2287965613949" y1="0" y2="30"/><line opacity="0.2" x1="400.1406329921383" x2="400.1406329921383" y1="0" y2="30"/><line opacity="0.2" x1="465.96121078968565" x2="465.96121078968565" y1="0" y2="30"/><line opacity="0.2" x1="344.425930451755" x2="344.425930451755" y1="0" y2="30"/><line opacity="0.2" x1="529.3738307980839" x2="529.3738307980839" y1="0" y2="30"/><line opacity="0.2" x1="360.2517073784615" x2="360.2517073784615" y1="0" y2="30"/><line opacity="0.2" x1="312.0246766769218" x2="312.0246766769218" y1="0" y2="30"/><line opacity="0.2" x1="364.9237262955446" x2="364.9237262955446" y1="0" y2="30"/><line opacity="0.2" x1="256.30541999633954" x2="256.30541999633954" y1="0" y2="30"/><line opacity="0.2" x1="338.59867673320326" x2="338.59867673320326" y1="0" y2="30"/><line opacity="0.2" x1="259.7213333068476" x2="259.7213333068476" y1="0" y2="30"/><line opacity="0.2" x1="388.76070017718195" x2="388.76070017718195" y1="0" y2="30"/><line opacity="0.2" x1="450.0330857090588" x2="450.0330857090588" y1="0" y2="30"/><line opacity="0.2" x1="196.40030817439862" x2="196.40030817439862" y1="0" y2="30"/><line opacity="0.2" x1="192.5629521819336" x2="192.5629521819336" y1="0" y2="30"/><line opacity="0.2" x1="206.2736599532156" x2="206.2736599532156" y1="0" y2="30"/><line opacity="0.2" x1="421.4078572950976" x2="421.4078572950976" y1="0" y2="30"/><line opacity="0.2" x1="291.32542226813183" x2="291.32542226813183" y1="0" y2="30"/><line opacity="0.2" x1="338.78212556764385" x2="338.78212556764385" y1="0" y2="30"/><line opacity="0.2" x1="447.99250323213397" x2="447.99250323213397" y1="0" y2="30"/><line opacity="0.2" x1="482.2650008260104" x2="482.2650008260104" y1="0" y2="30"/><line opacity="0.2" x1="293.50092501472807" x2="293.50092501472807" y1="0" y2="30"/><line opacity="0.2" x1="228.68256967676675" x2="228.68256967676675" y1="0" y2="30"/><line opacity="0.2" x1="433.74357791228624" x2="433.74357791228624" y1="0" y2="30"/><line opacity="0.2" x1="276.9146431015286" x2="276.9146431015286" y1="0" y2="30"/><line opacity="0.2" x1="304.85327879509066" x2="304.85327879509066" y1="0" y2="30"/><line opacity="0.2" x1="190.45626472685396" x2="190.45626472685396" y1="0" y2="30"/><line opacity="0.2" x1="311.11049246914297" x2="311.11049246914297" y1="0" y2="30"/><line opacity="0.2" x1="238.5926025606301" x2="238.5926025606301" y1="0" y2="30"/><line opacity="0.2" x1="211.40521425108597" x2="211.40521425108597" y1="0" y2="30"/><line opacity="0.2" x1="235.0812941152135" x2="235.0812941152135" y1="0" y2="30"/><line opacity="0.2" x1="396.12106130725857" x2="396.12106130725857" y1="0" y2="30"/><line opacity="0.2" x1="394.6281965980543" x2="394.6281965980543" y1="0" y2="30"/><line opacity="0.2" x1="301.58543232982925" x2="301.58543232982925" y1="0" y2="30"/><line opacity="0.2" x1="465.70152464542866" x2="465.70152464542866" y1="0" y2="30"/><line opacity="0.2" x1="468.2192362574544" x2="468.2192362574544" y1="0" y2="30"/><line opacity="0.2" x1="258.9637207614102" x2="258.9637207614102" y1="0" y2="30"/><line opacity="0.2" x1="129.59442065630157" x2="129.59442065630157" y1="0" y2="30"/><line opacity="0.2" x1="480.5903732642453" x2="480.5903732642453" y1="0" y2="30"/><line opacity="0.2" x1="377.9816423408005" x2="377.9816423408005" y1="0" y2="30"/><line opacity="0.2" x1="258.41653429199846" x2="258.41653429199846" y1="0" y2="30"/><line opacity="0.2" x1="424.203882936095" x2="424.203882936095" y1="0" y2="30"/><line opacity="0.2" x1="240.05420241017896" x2="240.05420241017896" y1="0" y2="30"/><line opacity="0.2" x1="327.0406626562649" x2="327.0406626562649" y1="0" y2="30"/><line opacity="0.2" x1="342.7325237179489" x2="342.7325237179489" y1="0" y2="30"/><line opacity="0.2" x1="437.5905790354459" x2="437.5905790354459" y1="0" y2="30"/><line opacity="0.2" x1="412.6492536531574" x2="412.6492536531574" y1="0" y2="30"/><line opacity="0.2" x1="356.9589237627262" x2="356.9589237627262" y1="0" y2="30"/><line opacity="0.2" x1="436.0527742967241" x2="436.0527742967241" y1="0" y2="30"/><line opacity="0.2" x1="352.14116342773883" x2="352.14116342773883" y1="0" y2="30"/><line opacity="0.2" x1="278.22908069497" x2="278.22908069497" y1="0" y2="30"/><line opacity="0.2" x1="305.1374966691481" x2="305.1374966691481" y1="0" y2="30"/><line opacity="0.2" x1="377.1518460244132" x2="377.1518460244132" y1="0" y2="30"/><line opacity="0.2" x1="195.56289971316826" x2="195.56289971316826" y1="0" y2="30"/><line opacity="0.2" x1="315.93699090500655" x2="315.93699090500655" y1="0" y2="30"/><line opacity="0.2" x1="208.2404852216971" x2="208.2404852216971" y1="0" y2="30"/><line opacity="0.2" x1="339.96513004714933" x2="339.96513004714933" y1="0" y2="30"/><line opacity="0.2" x1="418.10877715184466" x2="418.10877715184466" y1="0" y2="30"/><line opacity="0.2" x1="448.5971723103284" x2="448.5971723103284" y1="0" y2="30"/><line opacity="0.2" x1="332.9243381330063" x2="332.9243381330063" y1="0" y2="30"/><line opacity="0.2" x1="239.14003608671334" x2="239.14003608671334" y1="0" y2="30"/><line opacity="0.2" x1="389.5471914429389" x2="389.5471914429389" y1="0" y2="30"/><line opacity="0.2" x1="339.4722576374232" x2="339.4722576374232" y1="0" y2="30"/><line opacity="0.2" x1="422.6638876961217" x2="422.6638876961217" y1="0" y2="30"/><line opacity="0.2" x1="270.1193514691019" x2="270.1193514691019" y1="0" y2="30"/><line opacity="0.2" x1="405.8085575720604" x2="405.8085575720604" y1="0" y2="30"/><line opacity="0.2" x1="318.634674018266" x2="318.634674018266" y1="0" y2="30"/><line opacity="0.2" x1="380.9377539832049" x2="380.9377539832049" y1="0" y2="30"/><line opacity="0.2" x1="414.06558606356697" x2="414.06558606356697" y1="0" y2="30"/><line opacity="0.2" x1="336.14043589698696" x2="336.14043589698696" y1="0" y2="30"/><line opacity="0.2" x1="450.98134315899165" x2="450.98134315899165" y1="0" y2="30"/><line opacity="0.2" x1="341.5564061102539" x2="341.5564061102539" y1="0" y2="30"/><line opacity="0.2" x1="383.22530234806914" x2="383.22530234806914" y1="0" y2="30"/><line opacity="0.2" x1="425.0847608107439" x2="425.0847608107439" y1="0" y2="30"/><line opacity="0.2" x1="460.4572623709034" x2="460.4572623709034" y1="0" y2="30"/><line opacity="0.2" x1="491.88076425982257" x2="491.88076425982257" y1="0" y2="30"/><line opacity="0.2" x1="435.63653643251996" x2="435.63653643251996" y1="0" y2="30"/><line opacity="0.2" x1="469.4214264660957" x2="469.4214264660957" y1="0" y2="30"/><line opacity="0.2" x1="362.01714706595897" x2="362.01714706595897" y1="0" y2="30"/><line opacity="0.2" x1="278.58125771514375" x2="278.58125771514375" y1="0" y2="30"/><line opacity="0.2" x1="405.14092549809965" x2="405.14092549809965" y1="0" y2="30"/><line opacity="0.2" x1="396.0688261181016" x2="396.0688261181016" y1="0" y2="30"/><line opacity="0.2" x1="276.01125705218857" x2="276.01125705218857" y1="0" y2="30"/><line opacity="0.2" x1="433.50437191005557" x2="433.50437191005557" y1="0" y2="30"/><line opacity="0.2" x1="444.1782635192307" x2="444.1782635192307" y1="0" y2="30"/><line opacity="0.2" x1="383.45214828043845" x2="383.45214828043845" y1="0" y2="30"/><line opacity="0.2" x1="218.64090218395756" x2="218.64090218395756" y1="0" y2="30"/><line opacity="0.2" x1="341.0521446210268" x2="341.0521446210268" y1="0" y2="30"/><line opacity="0.2" x1="451.74638872806344" x2="451.74638872806344" y1="0" y2="30"/><line opacity="0.2" x1="272.4747798196201" x2="272.4747798196201" y1="0" y2="30"/><line opacity="0.2" x1="351.07597108503205" x2="351.07597108503205" y1="0" y2="30"/><line opacity="0.2" x1="357.3307551646778" x2="357.3307551646778" y1="0" y2="30"/><line opacity="0.2" x1="324.2603843274321" x2="324.2603843274321" y1="0" y2="30"/><line opacity="0.2" x1="191.17441277925954" x2="191.17441277925954" y1="0" y2="30"/><line opacity="0.2" x1="385.00176518025415" x2="385.00176518025415" y1="0" y2="30"/><line opacity="0.2" x1="383.8975785619868" x2="383.8975785619868" y1="0" y2="30"/><line opacity="0.2" x1="406.950663898256" x2="406.950663898256" y1="0" y2="30"/><line opacity="0.2" x1="226.5309065234514" x2="226.5309065234514" y1="0" y2="30"/><line opacity="0.2" x1="502.42771932868254" x2="502.42771932868254" y1="0" y2="30"/><line opacity="0.2" x1="436.78721059675985" x2="436.78721059675985" y1="0" y2="30"/><line opacity="0.2" x1="320.2782426153712" x2="320.2782426153712" y1="0" y2="30"/><line opacity="0.2" x1="468.9131963752786" x2="468.9131963752786" y1="0" y2="30"/><line opacity="0.2" x1="438.78247193619035" x2="438.78247193619035" y1="0" y2="30"/><line opacity="0.2" x1="299.8551692111203" x2="299.8551692111203" y1="0" y2="30"/><line opacity="0.2" x1="415.09076297421944" x2="415.09076297421944" y1="0" y2="30"/><line opacity="0.2" x1="362.2238745436634" x2="362.2238745436634" y1="0" y2="30"/><line opacity="0.2" x1="238.48122008594763" x2="238.48122008594763" y1="0" y2="30"/><line opacity="0.2" x1="348.2154976899396" x2="348.2154976899396" y1="0" y2="30"/><line opacity="0.2" x1="341.0921829683757" x2="341.0921829683757" y1="0" y2="30"/><line opacity="0.2" x1="377.7533474408281" x2="377.7533474408281" y1="0" y2="30"/><line opacity="0.2" x1="217.88101265088625" x2="217.88101265088625" y1="0" y2="30"/><line opacity="0.2" x1="325.431139451786" x2="325.431139451786" y1="0" y2="30"/><line opacity="0.2" x1="298.54219876008784" x2="298.54219876008784" y1="0" y2="30"/><line opacity="0.2" x1="288.28374381503465" x2="288.28374381503465" y1="0" y2="30"/><line opacity="0.2" x1="380.58324367465855" x2="380.58324367465855" y1="0" y2="30"/><line opacity="0.2" x1="338.12498906026457" x2="338.12498906026457" y1="0" y2="30"/><line opacity="0.2" x1="336.48699950606516" x2="336.48699950606516" y1="0" y2="30"/><line opacity="0.2" x1="521.6263583719315" x2="521.6263583719315" y1="0" y2="30"/><line opacity="0.2" x1="391.3209267893022" x2="391.3209267893022" y1="0" y2="30"/><line opacity="0.2" x1="403.23113549338836" x2="403.23113549338836" y1="0" y2="30"/><line opacity="0.2" x1="391.04002682269476" x2="391.04002682269476" y1="0" y2="30"/><line opacity="0.2" x1="550.4047607311313" x2="550.4047607311313" y1="0" y2="30"/><line opacity="0.2" x1="468.35085186306196" x2="468.35085186306196" y1="0" y2="30"/><line opacity="0.2" x1="341.8255489600655" x2="341.8255489600655" y1="0" y2="30"/><line opacity="0.2" x1="410.6778973548189" x2="410.6778973548189" y1="0" y2="30"/><line opacity="0.2" x1="409.4305721412308" x2="409.4305721412308" y1="0" y2="30"/><line opacity="0.2" x1="468.9180573868171" x2="468.9180573868171" y1="0" y2="30"/><line opacity="0.2" x1="404.1017567349133" x2="404.1017567349133" y1="0" y2="30"/><line opacity="0.2" x1="320.04058124263344" x2="320.04058124263344" y1="0" y2="30"/><line opacity="0.2" x1="383.8181347443284" x2="383.8181347443284" y1="0" y2="30"/><line opacity="0.2" x1="137.73765971792463" x2="137.73765971792463" y1="0" y2="30"/><line opacity="0.2" x1="363.07029873611634" x2="363.07029873611634" y1="0" y2="30"/><line opacity="0.2" x1="520.6605265658441" x2="520.6605265658441" y1="0" y2="30"/><line opacity="0.2" x1="492.82909762196283" x2="492.82909762196283" y1="0" y2="30"/><line opacity="0.2" x1="380.71928150159914" x2="380.71928150159914" y1="0" y2="30"/><line opacity="0.2" x1="356.09899664274104" x2="356.09899664274104" y1="0" y2="30"/><line opacity="0.2" x1="346.19268318907103" x2="346.19268318907103" y1="0" y2="30"/><line opacity="0.2" x1="401.0395736144725" x2="401.0395736144725" y1="0" y2="30"/><line opacity="0.2" x1="249.92152551611602" x2="249.92152551611602" y1="0" y2="30"/><line opacity="0.2" x1="248.42231553320886" x2="248.42231553320886" y1="0" y2="30"/><line opacity="0.2" x1="319.06007236171723" x2="319.06007236171723" y1="0" y2="30"/><line opacity="0.2" x1="408.34269938594883" x2="408.34269938594883" y1="0" y2="30"/><line opacity="0.2" x1="307.7434427077594" x2="307.7434427077594" y1="0" y2="30"/><line opacity="0.2" x1="485.760373677131" x2="485.760373677131" y1="0" y2="30"/><line opacity="0.2" x1="356.63962623405496" x2="356.63962623405496" y1="0" y2="30"/><line opacity="0.2" x1="74.76548129286869" x2="74.76548129286869" y1="0" y2="30"/><line opacity="0.2" x1="329.7418269976524" x2="329.7418269976524" y1="0" y2="30"/><line opacity="0.2" x1="275.05547987923626" x2="275.05547987923626" y1="0" y2="30"/><line opacity="0.2" x1="340.06187308411415" x2="340.06187308411415" y1="0" y2="30"/><line opacity="0.2" x1="149.15249622742328" x2="149.15249622742328" y1="0" y2="30"/><line opacity="0.2" x1="356.40539545208094" x2="356.40539545208094" y1="0" y2="30"/><line opacity="0.2" x1="331.25178850619545" x2="331.25178850619545" y1="0" y2="30"/><line opacity="0.2" x1="369.9501570209181" x2="369.9501570209181" y1="0" y2="30"/><line opacity="0.2" x1="257.73988469046907" x2="257.73988469046907" y1="0" y2="30"/><line opacity="0.2" x1="235.23115206812105" x2="235.23115206812105" y1="0" y2="30"/><line opacity="0.2" x1="324.23877838546156" x2="324.23877838546156" y1="0" y2="30"/><line opacity="0.2" x1="222.7631060714171" x2="222.7631060714171" y1="0" y2="30"/><line opacity="0.2" x1="495.4911136003335" x2="495.4911136003335" y1="0" y2="30"/><line opacity="0.2" x1="354.2404905437967" x2="354.2404905437967" y1="0" y2="30"/><line opacity="0.2" x1="438.85748905493284" x2="438.85748905493284" y1="0" y2="30"/><line opacity="0.2" x1="394.28613978500346" x2="394.28613978500346" y1="0" y2="30"/><line opacity="0.2" x1="311.60538161742136" x2="311.60538161742136" y1="0" y2="30"/><line opacity="0.2" x1="305.69763201595003" x2="305.69763201595003" y1="0" y2="30"/><line opacity="0.2" x1="325.8687056052854" x2="325.8687056052854" y1="0" y2="30"/><line opacity="0.2" x1="490.15796177497015" x2="490.15796177497015" y1="0" y2="30"/><line opacity="0.2" x1="290.47769440185556" x2="290.47769440185556" y1="0" y2="30"/><line opacity="0.2" x1="434.87468915309427" x2="434.87468915309427" y1="0" y2="30"/><line opacity="0.2" x1="412.71974023592344" x2="412.71974023592344" y1="0" y2="30"/><line opacity="0.2" x1="392.5990685983012" x2="392.5990685983012" y1="0" y2="30"/><line opacity="0.2" x1="515.0009760247531" x2="515.0009760247531" y1="0" y2="30"/><line opacity="0.2" x1="390.4627680439269" x2="390.4627680439269" y1="0" y2="30"/><line opacity="0.2" x1="277.8876414780371" x2="277.8876414780371" y1="0" y2="30"/><line opacity="0.2" x1="216.77860077621295" x2="216.77860077621295" y1="0" y2="30"/><line opacity="0.2" x1="266.8185104721794" x2="266.8185104721794" y1="0" y2="30"/><line opacity="0.2" x1="422.0161258527124" x2="422.0161258527124" y1="0" y2="30"/><line opacity="0.2" x1="432.64882514989426" x2="432.64882514989426" y1="0" y2="30"/><line opacity="0.2" x1="434.4895865339635" x2="434.4895865339635" y1="0" y2="30"/><line opacity="0.2" x1="244.08753352592834" x2="244.08753352592834" y1="0" y2="30"/><line opacity="0.2" x1="336.9856417165825" x2="336.9856417165825" y1="0" y2="30"/><line opacity="0.2" x1="320.7229603935968" x2="320.7229603935968" y1="0" y2="30"/><line opacity="0.2" x1="378.91671539616834" x2="378.91671539616834" y1="0" y2="30"/><line opacity="0.2" x1="364.17549103726583" x2="364.17549103726583" y1="0" y2="30"/><line opacity="0.2" x1="277.14892269161743" x2="277.14892269161743" y1="0" y2="30"/><line opacity="0.2" x1="222.52270877026996" x2="222.52270877026996" y1="0" y2="30"/><line opacity="0.2" x1="273.1857845208572" x2="273.1857845208572" y1="0" y2="30"/><line opacity="0.2" x1="335.5455980572314" x2="335.5455980572314" y1="0" y2="30"/><line opacity="0.2" x1="358.50750539568446" x2="358.50750539568446" y1="0" y2="30"/><line opacity="0.2" x1="614.5585638422442" x2="614.5585638422442" y1="0" y2="30"/><line opacity="0.2" x1="253.7324107838602" x2="253.7324107838602" y1="0" y2="30"/><line opacity="0.2" x1="219.0796408755934" x2="219.0796408755934" y1="0" y2="30"/><line opacity="0.2" x1="350.55404299137973" x2="350.55404299137973" y1="0" y2="30"/><line opacity="0.2" x1="382.1669129850424" x2="382.1669129850424" y1="0" y2="30"/><line opacity="0.2" x1="468.8285695871916" x2="468.8285695871916" y1="0" y2="30"/><line opacity="0.2" x1="328.2953362007188" x2="328.2953362007188" y1="0" y2="30"/><line opacity="0.2" x1="386.1304278555842" x2="386.1304278555842" y1="0" y2="30"/><line opacity="0.2" x1="246.92832073758382" x2="246.92832073758382" y1="0" y2="30"/><line opacity="0.2" x1="310.91675537262483" x2="310.91675537262483" y1="0" y2="30"/><line opacity="0.2" x1="324.1167898670118" x2="324.1167898670118" y1="0" y2="30"/><line opacity="0.2" x1="495.9878926888026" x2="495.9878926888026" y1="0" y2="30"/><line opacity="0.2" x1="437.04894923553354" x2="437.04894923553354" y1="0" y2="30"/><line opacity="0.2" x1="281.8587041100915" x2="281.8587041100915" y1="0" y2="30"/><line opacity="0.2" x1="315.18635691092373" x2="315.18635691092373" y1="0" y2="30"/><line opacity="0.2" x1="406.8592716426799" x2="406.8592716426799" y1="0" y2="30"/><line opacity="0.2" x1="271.07053081784454" x2="271.07053081784454" y1="0" y2="30"/><line opacity="0.2" x1="451.44671290772425" x2="451.44671290772425" y1="0" y2="30"/><line opacity="0.2" x1="164.06802493805162" x2="164.06802493805162" y1="0" y2="30"/><line opacity="0.2" x1="220.72964794907298" x2="220.72964794907298" y1="0" y2="30"/><line opacity="0.2" x1="332.5126119474183" x2="332.5126119474183" y1="0" y2="30"/><line opacity="0.2" x1="357.0486568455349" x2="357.0486568455349" y1="0" y2="30"/><line opacity="0.2" x1="379.77256427626406" x2="379.77256427626406" y1="0" y2="30"/><line opacity="0.2" x1="425.4894431125532" x2="425.4894431125532" y1="0" y2="30"/><line opacity="0.2" x1="111.45940656945182" x2="111.45940656945182" y1="0" y2="30"/><line opacity="0.2" x1="411.6604269179497" x2="411.6604269179497" y1="0" y2="30"/><line opacity="0.2" x1="462.51644103240875" x2="462.51644103240875" y1="0" y2="30"/><line opacity="0.2" x1="436.7355480259238" x2="436.7355480259238" y1="0" y2="30"/><line opacity="0.2" x1="499.7837378897773" x2="499.7837378897773" y1="0" y2="30"/><line opacity="0.2" x1="367.68675715356846" x2="367.68675715356846" y1="0" y2="30"/><line opacity="0.2" x1="372.2732795915965" x2="372.2732795915965" y1="0" y2="30"/><line opacity="0.2" x1="230.34208960832925" x2="230.34208960832925" y1="0" y2="30"/><line opacity="0.2" x1="228.35837561383045" x2="228.35837561383045" y1="0" y2="30"/><line opacity="0.2" x1="378.22111182898516" x2="378.22111182898516" y1="0" y2="30"/><line opacity="0.2" x1="418.02024138790784" x2="418.02024138790784" y1="0" y2="30"/><line opacity="0.2" x1="515.8560699525074" x2="515.8560699525074" y1="0" y2="30"/><line opacity="0.2" x1="401.08180263140804" x2="401.08180263140804" y1="0" y2="30"/><line opacity="0.2" x1="471.1911426131445" x2="471.1911426131445" y1="0" y2="30"/><line opacity="0.2" x1="331.91672371647275" x2="331.91672371647275" y1="0" y2="30"/><line opacity="0.2" x1="430.02187317626374" x2="430.02187317626374" y1="0" y2="30"/><line opacity="0.2" x1="362.5166935252641" x2="362.5166935252641" y1="0" y2="30"/><line opacity="0.2" x1="306.3300593589108" x2="306.3300593589108" y1="0" y2="30"/><line opacity="0.2" x1="238.3724155328109" x2="238.3724155328109" y1="0" y2="30"/><line opacity="0.2" x1="466.7357526910829" x2="466.7357526910829" y1="0" y2="30"/><line opacity="0.2" x1="378.31233797290105" x2="378.31233797290105" y1="0" y2="30"/><line opacity="0.2" x1="291.30768217570363" x2="291.30768217570363" y1="0" y2="30"/><line opacity="0.2" x1="328.94037882441984" x2="328.94037882441984" y1="0" y2="30"/><line opacity="0.2" x1="259.5272209445324" x2="259.5272209445324" y1="0" y2="30"/><line opacity="0.2" x1="293.2622007514575" x2="293.2622007514575" y1="0" y2="30"/><line opacity="0.2" x1="119.02691444715086" x2="119.02691444715086" y1="0" y2="30"/><line opacity="0.2" x1="391.29217220676094" x2="391.29217220676094" y1="0" y2="30"/><line opacity="0.2" x1="502.71084660571415" x2="502.71084660571415" y1="0" y2="30"/><line opacity="0.2" x1="358.5703624785297" x2="358.5703624785297" y1="0" y2="30"/><line opacity="0.2" x1="520.2746812856159" x2="520.2746812856159" y1="0" y2="30"/><line opacity="0.2" x1="173.48639802546643" x2="173.48639802546643" y1="0" y2="30"/><line opacity="0.2" x1="381.385159686425" x2="381.385159686425" y1="0" y2="30"/><line opacity="0.2" x1="408.2572871049999" x2="408.2572871049999" y1="0" y2="30"/><line opacity="0.2" x1="307.38920150267865" x2="307.38920150267865" y1="0" y2="30"/><line opacity="0.2" x1="305.86233583519413" x2="305.86233583519413" y1="0" y2="30"/><line opacity="0.2" x1="554.9344697348652" x2="554.9344697348652" y1="0" y2="30"/><line opacity="0.2" x1="305.2590116459689" x2="305.2590116459689" y1="0" y2="30"/><line opacity="0.2" x1="226.44835050609927" x2="226.44835050609927" y1="0" y2="30"/><line opacity="0.2" x1="321.2836468076014" x2="321.2836468076014" y1="0" y2="30"/><line opacity="0.2" x1="267.82009502224736" x2="267.82009502224736" y1="0" y2="30"/><line opacity="0.2" x1="245.6304918759203" x2="245.6304918759203" y1="0" y2="30"/><line opacity="0.2" x1="347.48714870155123" x2="347.48714870155123" y1="0" y2="30"/><line opacity="0.2" x1="558.5838705821295" x2="558.5838705821295" y1="0" y2="30"/><line opacity="0.2" x1="425.8131133050407" x2="425.8131133050407" y1="0" y2="30"/><line opacity="0.2" x1="422.81798136541215" x2="422.81798136541215" y1="0" y2="30"/><line opacity="0.2" x1="336.9064950320309" x2="336.9064950320309" y1="0" y2="30"/><line opacity="0.2" x1="323.8460432251636" x2="323.8460432251636" y1="0" y2="30"/><line opacity="0.2" x1="332.8793594430201" x2="332.8793594430201" y1="0" y2="30"/><line opacity="0.2" x1="302.6215587772748" x2="302.6215587772748" y1="0" y2="30"/><line opacity="0.2" x1="396.24717149171806" x2="396.24717149171806" y1="0" y2="30"/><line opacity="0.2" x1="325.00411513506396" x2="325.00411513506396" y1="0" y2="30"/><line opacity="0.2" x1="357.65807585440973" x2="357.65807585440973" y1="0" y2="30"/><line opacity="0.2" x1="317.6193479995237" x2="317.6193479995237" y1="0" y2="30"/><line opacity="0.2" x1="293.7833520922757" x2="293.7833520922757" y1="0" y2="30"/><line opacity="0.2" x1="331.51933593953333" x2="331.51933593953333" y1="0" y2="30"/><line opacity="0.2" x1="411.43713911025844" x2="411.43713911025844" y1="0" y2="30"/><line opacity="0.2" x1="352.0284715773507" x2="352.0284715773507" y1="0" y2="30"/><line opacity="0.2" x1="460.1300433073642" x2="460.1300433073642" y1="0" y2="30"/><line opacity="0.2" x1="338.5430297036776" x2="338.5430297036776" y1="0" y2="30"/><line opacity="0.2" x1="423.3286817334902" x2="423.3286817334902" y1="0" y2="30"/><line opacity="0.2" x1="421.04550414183444" x2="421.04550414183444" y1="0" y2="30"/><line opacity="0.2" x1="351.3175673167909" x2="351.3175673167909" y1="0" y2="30"/><line opacity="0.2" x1="323.4293595824914" x2="323.4293595824914" y1="0" y2="30"/><line opacity="0.2" x1="330.8158494520059" x2="330.8158494520059" y1="0" y2="30"/><line opacity="0.2" x1="296.0257754989353" x2="296.0257754989353" y1="0" y2="30"/><line opacity="0.2" x1="284.5962844473735" x2="284.5962844473735" y1="0" y2="30"/><line opacity="0.2" x1="433.5553142980132" x2="433.5553142980132" y1="0" y2="30"/><line opacity="0.2" x1="316.2675196092053" x2="316.2675196092053" y1="0" y2="30"/><line opacity="0.2" x1="365.4321161001645" x2="365.4321161001645" y1="0" y2="30"/><line opacity="0.2" x1="408.0138004117707" x2="408.0138004117707" y1="0" y2="30"/><line opacity="0.2" x1="311.9838245537974" x2="311.9838245537974" y1="0" y2="30"/><line opacity="0.2" x1="401.2084713142276" x2="401.2084713142276" y1="0" y2="30"/><line opacity="0.2" x1="352.2461911820993" x2="352.2461911820993" y1="0" y2="30"/><line opacity="0.2" x1="363.994971887578" x2="363.994971887578" y1="0" y2="30"/><line opacity="0.2" x1="494.09751470617283" x2="494.09751470617283" y1="0" y2="30"/><line opacity="0.2" x1="291.68856702844107" x2="291.68856702844107" y1="0" y2="30"/><line opacity="0.2" x1="455.80534363877155" x2="455.80534363877155" y1="0" y2="30"/><line opacity="0.2" x1="378.5558743971006" x2="378.5558743971006" y1="0" y2="30"/><line opacity="0.2" x1="550.7392735910546" x2="550.7392735910546" y1="0" y2="30"/><line opacity="0.2" x1="425.2376353294776" x2="425.2376353294776" y1="0" y2="30"/><line opacity="0.2" x1="356.1407991428788" x2="356.1407991428788" y1="0" y2="30"/><line opacity="0.2" x1="301.28523074109944" x2="301.28523074109944" y1="0" y2="30"/><line opacity="0.2" x1="540.4874549283148" x2="540.4874549283148" y1="0" y2="30"/><line opacity="0.2" x1="359.2974742190637" x2="359.2974742190637" y1="0" y2="30"/><line opacity="0.2" x1="471.19941693909385" x2="471.19941693909385" y1="0" y2="30"/><line opacity="0.2" x1="453.8957376348735" x2="453.8957376348735" y1="0" y2="30"/><line opacity="0.2" x1="422.2379025613367" x2="422.2379025613367" y1="0" y2="30"/><line opacity="0.2" x1="309.6148089285279" x2="309.6148089285279" y1="0" y2="30"/><line opacity="0.2" x1="275.4052685140847" x2="275.4052685140847" y1="0" y2="30"/><line opacity="0.2" x1="315.3562153938179" x2="315.3562153938179" y1="0" y2="30"/><line opacity="0.2" x1="231.5911183551014" x2="231.5911183551014" y1="0" y2="30"/><line opacity="0.2" x1="457.19076668152655" x2="457.19076668152655" y1="0" y2="30"/><line opacity="0.2" x1="178.45420383403544" x2="178.45420383403544" y1="0" y2="30"/><line opacity="0.2" x1="266.6005186467922" x2="266.6005186467922" y1="0" y2="30"/><line opacity="0.2" x1="432.3831981649061" x2="432.3831981649061" y1="0" y2="30"/><line opacity="0.2" x1="551.7579185036954" x2="551.7579185036954" y1="0" y2="30"/><line opacity="0.2" x1="440.20273605489757" x2="440.20273605489757" y1="0" y2="30"/><line opacity="0.2" x1="439.11732894084264" x2="439.11732894084264" y1="0" y2="30"/><line opacity="0.2" x1="290.94003777182945" x2="290.94003777182945" y1="0" y2="30"/><line opacity="0.2" x1="301.090513846475" x2="301.090513846475" y1="0" y2="30"/><line opacity="0.2" x1="279.75199071248585" x2="279.75199071248585" y1="0" y2="30"/><line opacity="0.2" x1="196.78069419342438" x2="196.78069419342438" y1="0" y2="30"/><line opacity="0.2" x1="366.0867123441154" x2="366.0867123441154" y1="0" y2="30"/><line opacity="0.2" x1="274.66112993925924" x2="274.66112993925924" y1="0" y2="30"/><line opacity="0.2" x1="469.9409598912441" x2="469.9409598912441" y1="0" y2="30"/><line opacity="0.2" x1="365.2707191133992" x2="365.2707191133992" y1="0" y2="30"/><line opacity="0.2" x1="290.7208394346612" x2="290.7208394346612" y1="0" y2="30"/><line opacity="0.2" x1="313.7040136020658" x2="313.7040136020658" y1="0" y2="30"/><line opacity="0.2" x1="144.94205383354978" x2="144.94205383354978" y1="0" y2="30"/><line opacity="0.2" x1="320.25960864070396" x2="320.25960864070396" y1="0" y2="30"/><line opacity="0.2" x1="382.01265147471224" x2="382.01265147471224" y1="0" y2="30"/><line opacity="0.2" x1="346.4383873935201" x2="346.4383873935201" y1="0" y2="30"/><line opacity="0.2" x1="321.64938094757576" x2="321.64938094757576" y1="0" y2="30"/><line opacity="0.2" x1="355.9278614148471" x2="355.9278614148471" y1="0" y2="30"/><line opacity="0.2" x1="285.12281911916455" x2="285.12281911916455" y1="0" y2="30"/><line opacity="0.2" x1="400.1490219253314" x2="400.1490219253314" y1="0" y2="30"/><line opacity="0.2" x1="405.2012340929371" x2="405.2012340929371" y1="0" y2="30"/><line opacity="0.2" x1="351.1087158118009" x2="351.1087158118009" y1="0" y2="30"/><line opacity="0.2" x1="283.1634191275382" x2="283.1634191275382" y1="0" y2="30"/><line opacity="0.2" x1="207.41521388363876" x2="207.41521388363876" y1="0" y2="30"/><line opacity="0.2" x1="371.11934539370634" x2="371.11934539370634" y1="0" y2="30"/><line opacity="0.2" x1="330.8931482553431" x2="330.8931482553431" y1="0" y2="30"/><line opacity="0.2" x1="376.33781003146413" x2="376.33781003146413" y1="0" y2="30"/><line opacity="0.2" x1="366.11167720327603" x2="366.11167720327603" y1="0" y2="30"/><line opacity="0.2" x1="365.2220417148833" x2="365.2220417148833" y1="0" y2="30"/><line opacity="0.2" x1="447.0529500581435" x2="447.0529500581435" y1="0" y2="30"/><line opacity="0.2" x1="171.72358572204826" x2="171.72358572204826" y1="0" y2="30"/><line opacity="0.2" x1="209.77063154169704" x2="209.77063154169704" y1="0" y2="30"/><line opacity="0.2" x1="115.48493880397331" x2="115.48493880397331" y1="0" y2="30"/><line opacity="0.2" x1="265.3217457637397" x2="265.3217457637397" y1="0" y2="30"/><line opacity="0.2" x1="298.04298871935435" x2="298.04298871935435" y1="0" y2="30"/><line opacity="0.2" x1="485.3209534232117" x2="485.3209534232117" y1="0" y2="30"/><line opacity="0.2" x1="364.265954903629" x2="364.265954903629" y1="0" y2="30"/><line opacity="0.2" x1="472.7239275457941" x2="472.7239275457941" y1="0" y2="30"/><line opacity="0.2" x1="433.75221988403854" x2="433.75221988403854" y1="0" y2="30"/><line opacity="0.2" x1="346.4440682174013" x2="346.4440682174013" y1="0" y2="30"/><line opacity="0.2" x1="540.9065672184336" x2="540.9065672184336" y1="0" y2="30"/><line opacity="0.2" x1="229.28552998125286" x2="229.28552998125286" y1="0" y2="30"/><line opacity="0.2" x1="528.0139272754324" x2="528.0139272754324" y1="0" y2="30"/><line opacity="0.2" x1="420.2617602224307" x2="420.2617602224307" y1="0" y2="30"/><line opacity="0.2" x1="403.6829554733729" x2="403.6829554733729" y1="0" y2="30"/><line opacity="0.2" x1="213.63490165216857" x2="213.63490165216857" y1="0" y2="30"/><line opacity="0.2" x1="363.9631155809048" x2="363.9631155809048" y1="0" y2="30"/><line opacity="0.2" x1="387.2194709606618" x2="387.2194709606618" y1="0" y2="30"/><line opacity="0.2" x1="245.2839273582075" x2="245.2839273582075" y1="0" y2="30"/><line opacity="0.2" x1="416.2329470647398" x2="416.2329470647398" y1="0" y2="30"/><line opacity="0.2" x1="355.72718870456293" x2="355.72718870456293" y1="0" y2="30"/><line opacity="0.2" x1="275.63386026674846" x2="275.63386026674846" y1="0" y2="30"/><line opacity="0.2" x1="571.2558399536067" x2="571.2558399536067" y1="0" y2="30"/><line opacity="0.2" x1="613.369863765997" x2="613.369863765997" y1="0" y2="30"/><line opacity="0.2" x1="375.2049780277514" x2="375.2049780277514" y1="0" y2="30"/><line opacity="0.2" x1="352.99417760469123" x2="352.99417760469123" y1="0" y2="30"/><line opacity="0.2" x1="193.95416180291994" x2="193.95416180291994" y1="0" y2="30"/><line opacity="0.2" x1="360.56007270613947" x2="360.56007270613947" y1="0" y2="30"/><line opacity="0.2" x1="346.46171144446" x2="346.46171144446" y1="0" y2="30"/><line opacity="0.2" x1="383.9936143283674" x2="383.9936143283674" y1="0" y2="30"/><line opacity="0.2" x1="265.6699685114971" x2="265.6699685114971" y1="0" y2="30"/><line opacity="0.2" x1="145.08389126990525" x2="145.08389126990525" y1="0" y2="30"/><line opacity="0.2" x1="437.2545715484685" x2="437.2545715484685" y1="0" y2="30"/><line opacity="0.2" x1="284.8155689410938" x2="284.8155689410938" y1="0" y2="30"/><line opacity="0.2" x1="333.86233665495166" x2="333.86233665495166" y1="0" y2="30"/><line opacity="0.2" x1="384.9907191710738" x2="384.9907191710738" y1="0" y2="30"/><line opacity="0.2" x1="473.23679886350584" x2="473.23679886350584" y1="0" y2="30"/><line opacity="0.2" x1="289.1963680278955" x2="289.1963680278955" y1="0" y2="30"/><line opacity="0.2" x1="374.7975523899399" x2="374.7975523899399" y1="0" y2="30"/><line opacity="0.2" x1="472.8620063020365" x2="472.8620063020365" y1="0" y2="30"/><line opacity="0.2" x1="314.29725626256254" x2="314.29725626256254" y1="0" y2="30"/><line opacity="0.2" x1="341.7011294625967" x2="341.7011294625967" y1="0" y2="30"/><line opacity="0.2" x1="336.24517624467404" x2="336.24517624467404" y1="0" y2="30"/><line opacity="0.2" x1="420.8101739247041" x2="420.8101739247041" y1="0" y2="30"/><line opacity="0.2" x1="357.5112053828977" x2="357.5112053828977" y1="0" y2="30"/><line opacity="0.2" x1="319.50711568010274" x2="319.50711568010274" y1="0" y2="30"/><line opacity="0.2" x1="452.7463280894769" x2="452.7463280894769" y1="0" y2="30"/><line opacity="0.2" x1="578.5951644198838" x2="578.5951644198838" y1="0" y2="30"/><line opacity="0.2" x1="517.5565225483559" x2="517.5565225483559" y1="0" y2="30"/><line opacity="0.2" x1="365.9841022060213" x2="365.9841022060213" y1="0" y2="30"/><line opacity="0.2" x1="422.3664088230194" x2="422.3664088230194" y1="0" y2="30"/><line opacity="0.2" x1="372.51464243708324" x2="372.51464243708324" y1="0" y2="30"/><line opacity="0.2" x1="337.1892776206527" x2="337.1892776206527" y1="0" y2="30"/><line opacity="0.2" x1="492.30985794150104" x2="492.30985794150104" y1="0" y2="30"/><line opacity="0.2" x1="343.8927359658151" x2="343.8927359658151" y1="0" y2="30"/><line opacity="0.2" x1="356.7479210826499" x2="356.7479210826499" y1="0" y2="30"/><line opacity="0.2" x1="426.8645385250868" x2="426.8645385250868" y1="0" y2="30"/><line opacity="0.2" x1="224.64836447914536" x2="224.64836447914536" y1="0" y2="30"/><line opacity="0.2" x1="391.4976458598908" x2="391.4976458598908" y1="0" y2="30"/><line opacity="0.2" x1="370.7592036910999" x2="370.7592036910999" y1="0" y2="30"/><line opacity="0.2" x1="207.07220921291957" x2="207.07220921291957" y1="0" y2="30"/><line opacity="0.2" x1="341.51239201088725" x2="341.51239201088725" y1="0" y2="30"/><line opacity="0.2" x1="297.11249562803545" x2="297.11249562803545" y1="0" y2="30"/><line opacity="0.2" x1="248.0097673837934" x2="248.0097673837934" y1="0" y2="30"/><line opacity="0.2" x1="261.30544149629344" x2="261.30544149629344" y1="0" y2="30"/><line opacity="0.2" x1="292.5625703522753" x2="292.5625703522753" y1="0" y2="30"/><line opacity="0.2" x1="398.66104404608774" x2="398.66104404608774" y1="0" y2="30"/><line opacity="0.2" x1="334.6762284688901" x2="334.6762284688901" y1="0" y2="30"/><line opacity="0.2" x1="494.6302323109256" x2="494.6302323109256" y1="0" y2="30"/><line opacity="0.2" x1="206.6911773918508" x2="206.6911773918508" y1="0" y2="30"/><line opacity="0.2" x1="373.613414737471" x2="373.613414737471" y1="0" y2="30"/><line opacity="0.2" x1="414.95305916928044" x2="414.95305916928044" y1="0" y2="30"/><line opacity="0.2" x1="297.2412954257696" x2="297.2412954257696" y1="0" y2="30"/><line opacity="0.2" x1="361.13127825979814" x2="361.13127825979814" y1="0" y2="30"/><line opacity="0.2" x1="269.6032668062369" x2="269.6032668062369" y1="0" y2="30"/><line opacity="0.2" x1="516.2879719152131" x2="516.2879719152131" y1="0" y2="30"/><line opacity="0.2" x1="291.8480112088134" x2="291.8480112088134" y1="0" y2="30"/><line opacity="0.2" x1="356.3134631125238" x2="356.3134631125238" y1="0" y2="30"/><line opacity="0.2" x1="474.64895194973474" x2="474.64895194973474" y1="0" y2="30"/><line opacity="0.2" x1="504.8079541336868" x2="504.8079541336868" y1="0" y2="30"/><line opacity="0.2" x1="357.49017405930823" x2="357.49017405930823" y1="0" y2="30"/><line opacity="0.2" x1="335.83982767868775" x2="335.83982767868775" y1="0" y2="30"/><line opacity="0.2" x1="313.73931174175834" x2="313.73931174175834" y1="0" y2="30"/><line opacity="0.2" x1="239.32704821264795" x2="239.32704821264795" y1="0" y2="30"/><line opacity="0.2" x1="463.87456243869076" x2="463.87456243869076" y1="0" y2="30"/><line opacity="0.2" x1="345.39865799500154" x2="345.39865799500154" y1="0" y2="30"/><line opacity="0.2" x1="490.38008359277757" x2="490.38008359277757" y1="0" y2="30"/><line opacity="0.2" x1="413.4468986706702" x2="413.4468986706702" y1="0" y2="30"/><line opacity="0.2" x1="356.80165300439256" x2="356.80165300439256" y1="0" y2="30"/><line opacity="0.2" x1="304.78322599248764" x2="304.78322599248764" y1="0" y2="30"/><line opacity="0.2" x1="295.35640602621663" x2="295.35640602621663" y1="0" y2="30"/><line opacity="0.2" x1="252.8177679240285" x2="252.8177679240285" y1="0" y2="30"/><line opacity="0.2" x1="352.8260247715424" x2="352.8260247715424" y1="0" y2="30"/><line opacity="0.2" x1="438.812243849169" x2="438.812243849169" y1="0" y2="30"/><line opacity="0.2" x1="370.6553302690634" x2="370.6553302690634" y1="0" y2="30"/><line opacity="0.2" x1="467.20436715685463" x2="467.20436715685463" y1="0" y2="30"/><line opacity="0.2" x1="372.30370316187447" x2="372.30370316187447" y1="0" y2="30"/><line opacity="0.2" x1="355.74701671174734" x2="355.74701671174734" y1="0" y2="30"/><line opacity="0.2" x1="377.9562313143949" x2="377.9562313143949" y1="0" y2="30"/><line opacity="0.2" x1="380.8454916432923" x2="380.8454916432923" y1="0" y2="30"/><line opacity="0.2" x1="345.8537927165264" x2="345.8537927165264" y1="0" y2="30"/><line opacity="0.2" x1="274.9384156887398" x2="274.9384156887398" y1="0" y2="30"/><line opacity="0.2" x1="324.88467926130465" x2="324.88467926130465" y1="0" y2="30"/><line opacity="0.2" x1="250.95367199189639" x2="250.95367199189639" y1="0" y2="30"/><line opacity="0.2" x1="417.82947050314243" x2="417.82947050314243" y1="0" y2="30"/><line opacity="0.2" x1="405.0519841208144" x2="405.0519841208144" y1="0" y2="30"/><line opacity="0.2" x1="328.72294930632177" x2="328.72294930632177" y1="0" y2="30"/><line opacity="0.2" x1="444.22236094564573" x2="444.22236094564573" y1="0" y2="30"/><line opacity="0.2" x1="433.65559125081694" x2="433.65559125081694" y1="0" y2="30"/><line opacity="0.2" x1="264.0786427549442" x2="264.0786427549442" y1="0" y2="30"/><line opacity="0.2" x1="470.6919874707068" x2="470.6919874707068" y1="0" y2="30"/><line opacity="0.2" x1="207.35717673576758" x2="207.35717673576758" y1="0" y2="30"/><line opacity="0.2" x1="353.71254952462556" x2="353.71254952462556" y1="0" y2="30"/><line opacity="0.2" x1="340.32934033454086" x2="340.32934033454086" y1="0" y2="30"/><line opacity="0.2" x1="276.3538937838312" x2="276.3538937838312" y1="0" y2="30"/><line opacity="0.2" x1="467.41040510385477" x2="467.41040510385477" y1="0" y2="30"/><line opacity="0.2" x1="337.04869184003303" x2="337.04869184003303" y1="0" y2="30"/><line opacity="0.2" x1="261.5456379150451" x2="261.5456379150451" y1="0" y2="30"/><line opacity="0.2" x1="463.31778339818703" x2="463.31778339818703" y1="0" y2="30"/><line opacity="0.2" x1="402.9414166099483" x2="402.9414166099483" y1="0" y2="30"/><line opacity="0.2" x1="423.46494594475257" x2="423.46494594475257" y1="0" y2="30"/><line opacity="0.2" x1="346.6211152370308" x2="346.6211152370308" y1="0" y2="30"/><line opacity="0.2" x1="305.87898174614736" x2="305.87898174614736" y1="0" y2="30"/><line opacity="0.2" x1="312.13191124130066" x2="312.13191124130066" y1="0" y2="30"/><line opacity="0.2" x1="402.12294110157677" x2="402.12294110157677" y1="0" y2="30"/><line opacity="0.2" x1="323.72042496397705" x2="323.72042496397705" y1="0" y2="30"/><line opacity="0.2" x1="241.82349932398063" x2="241.82349932398063" y1="0" y2="30"/><line opacity="0.2" x1="305.48544321457354" x2="305.48544321457354" y1="0" y2="30"/><line opacity="0.2" x1="331.97753485474743" x2="331.97753485474743" y1="0" y2="30"/><line opacity="0.2" x1="463.41170872735256" x2="463.41170872735256" y1="0" y2="30"/><line opacity="0.2" x1="509.65497844350307" x2="509.65497844350307" y1="0" y2="30"/><line opacity="0.2" x1="270.84894677062994" x2="270.84894677062994" y1="0" y2="30"/><line opacity="0.2" x1="223.54011907930717" x2="223.54011907930717" y1="0" y2="30"/><line opacity="0.2" x1="340.57887853654563" x2="340.57887853654563" y1="0" y2="30"/><line opacity="0.2" x1="373.3440625274658" x2="373.3440625274658" y1="0" y2="30"/><line opacity="0.2" x1="377.7225593542816" x2="377.7225593542816" y1="0" y2="30"/><line opacity="0.2" x1="493.16900667197194" x2="493.16900667197194" y1="0" y2="30"/><line opacity="0.2" x1="300.7809476458152" x2="300.7809476458152" y1="0" y2="30"/><line opacity="0.2" x1="395.8666294961471" x2="395.8666294961471" y1="0" y2="30"/><line opacity="0.2" x1="256.6725438962378" x2="256.6725438962378" y1="0" y2="30"/><line opacity="0.2" x1="455.25615041396566" x2="455.25615041396566" y1="0" y2="30"/><line opacity="0.2" x1="238.13669960904744" x2="238.13669960904744" y1="0" y2="30"/><line opacity="0.2" x1="391.8650144886718" x2="391.8650144886718" y1="0" y2="30"/><line opacity="0.2" x1="230.89119723761482" x2="230.89119723761482" y1="0" y2="30"/><line opacity="0.2" x1="111.7546854493113" x2="111.7546854493113" y1="0" y2="30"/><line opacity="0.2" x1="377.9195005736707" x2="377.9195005736707" y1="0" y2="30"/><line opacity="0.2" x1="289.77630323929174" x2="289.77630323929174" y1="0" y2="30"/><line opacity="0.2" x1="352.16101140686465" x2="352.16101140686465" y1="0" y2="30"/><line opacity="0.2" x1="417.31220672838344" x2="417.31220672838344" y1="0" y2="30"/><line opacity="0.2" x1="185.9960405889259" x2="185.9960405889259" y1="0" y2="30"/><line opacity="0.2" x1="452.4843906873264" x2="452.4843906873264" y1="0" y2="30"/><line opacity="0.2" x1="318.86207434607" x2="318.86207434607" y1="0" y2="30"/><line opacity="0.2" x1="134.97151373614378" x2="134.97151373614378" y1="0" y2="30"/><line opacity="0.2" x1="352.99502059338664" x2="352.99502059338664" y1="0" y2="30"/><line opacity="0.2" x1="364.0858580739556" x2="364.0858580739556" y1="0" y2="30"/><line opacity="0.2" x1="397.1834518801126" x2="397.1834518801126" y1="0" y2="30"/><line opacity="0.2" x1="445.15144004724425" x2="445.15144004724425" y1="0" y2="30"/><line opacity="0.2" x1="348.7957915580784" x2="348.7957915580784" y1="0" y2="30"/><line opacity="0.2" x1="357.7523966979237" x2="357.7523966979237" y1="0" y2="30"/><line opacity="0.2" x1="329.3456594367877" x2="329.3456594367877" y1="0" y2="30"/><line opacity="0.2" x1="212.3852495099456" x2="212.3852495099456" y1="0" y2="30"/><line opacity="0.2" x1="236.92253233013147" x2="236.92253233013147" y1="0" y2="30"/><line opacity="0.2" x1="493.5414347296472" x2="493.5414347296472" y1="0" y2="30"/><line opacity="0.2" x1="383.7084293456195" x2="383.7084293456195" y1="0" y2="30"/><line opacity="0.2" x1="267.52538138800395" x2="267.52538138800395" y1="0" y2="30"/><line opacity="0.2" x1="449.45319339909395" x2="449.45319339909395" y1="0" y2="30"/><line opacity="0.2" x1="325.0077414793521" x2="325.0077414793521" y1="0" y2="30"/><line opacity="0.2" x1="305.19231014998707" x2="305.19231014998707" y1="0" y2="30"/><line opacity="0.2" x1="314.43443702224175" x2="314.43443702224175" y1="0" y2="30"/><line opacity="0.2" x1="362.2858807849327" x2="362.2858807849327" y1="0" y2="30"/><line opacity="0.2" x1="348.79045873652456" x2="348.79045873652456" y1="0" y2="30"/><line opacity="0.2" x1="512.3533004076342" x2="512.3533004076342" y1="0" y2="30"/><line opacity="0.2" x1="594.9913077999545" x2="594.9913077999545" y1="0" y2="30"/><line opacity="0.2" x1="309.4094838266088" x2="309.4094838266088" y1="0" y2="30"/><line opacity="0.2" x1="378.8970990464614" x2="378.8970990464614" y1="0" y2="30"/><line opacity="0.2" x1="330.1641345217515" x2="330.1641345217515" y1="0" y2="30"/><line opacity="0.2" x1="380.5728360379503" x2="380.5728360379503" y1="0" y2="30"/><line opacity="0.2" x1="296.2323284444658" x2="296.2323284444658" y1="0" y2="30"/><line opacity="0.2" x1="332.6279903031338" x2="332.6279903031338" y1="0" y2="30"/><line opacity="0.2" x1="489.3040107262255" x2="489.3040107262255" y1="0" y2="30"/><line opacity="0.2" x1="393.5464963721332" x2="393.5464963721332" y1="0" y2="30"/><line opacity="0.2" x1="275.7318092618432" x2="275.7318092618432" y1="0" y2="30"/><line opacity="0.2" x1="358.3358993301481" x2="358.3358993301481" y1="0" y2="30"/><line opacity="0.2" x1="359.3266968074656" x2="359.3266968074656" y1="0" y2="30"/><line opacity="0.2" x1="387.84916891766744" x2="387.84916891766744" y1="0" y2="30"/><line opacity="0.2" x1="465.1655908932398" x2="465.1655908932398" y1="0" y2="30"/><line opacity="0.2" x1="268.68870384799357" x2="268.68870384799357" y1="0" y2="30"/><line opacity="0.2" x1="379.8578084196628" x2="379.8578084196628" y1="0" y2="30"/><line opacity="0.2" x1="400.8375425625423" x2="400.8375425625423" y1="0" y2="30"/><line opacity="0.2" x1="149.44896490378454" x2="149.44896490378454" y1="0" y2="30"/><line opacity="0.2" x1="391.63114097266504" x2="391.63114097266504" y1="0" y2="30"/><line opacity="0.2" x1="357.8858027282164" x2="357.8858027282164" y1="0" y2="30"/><line opacity="0.2" x1="434.191297476204" x2="434.191297476204" y1="0" y2="30"/><line opacity="0.2" x1="303.1437294035836" x2="303.1437294035836" y1="0" y2="30"/><line opacity="0.2" x1="359.9616785387445" x2="359.9616785387445" y1="0" y2="30"/><line opacity="0.2" x1="518.9499864446128" x2="518.9499864446128" y1="0" y2="30"/><line opacity="0.2" x1="457.9904073682832" x2="457.9904073682832" y1="0" y2="30"/><line opacity="0.2" x1="372.2189645934283" x2="372.2189645934283" y1="0" y2="30"/><line opacity="0.2" x1="356.7937752534121" x2="356.7937752534121" y1="0" y2="30"/><line opacity="0.2" x1="342.71889132964765" x2="342.71889132964765" y1="0" y2="30"/><line opacity="0.2" x1="418.2614955729822" x2="418.2614955729822" y1="0" y2="30"/><line opacity="0.2" x1="457.65083900812397" x2="457.65083900812397" y1="0" y2="30"/><line opacity="0.2" x1="464.9014639315554" x2="464.9014639315554" y1="0" y2="30"/><line opacity="0.2" x1="415.8424462310818" x2="415.8424462310818" y1="0" y2="30"/><line opacity="0.2" x1="354.32696496591245" x2="354.32696496591245" y1="0" y2="30"/><line opacity="0.2" x1="271.5312028675446" x2="271.5312028675446" y1="0" y2="30"/><line opacity="0.2" x1="342.724730480827" x2="342.724730480827" y1="0" y2="30"/><line opacity="0.2" x1="304.86752125468456" x2="304.86752125468456" y1="0" y2="30"/><line opacity="0.2" x1="252.2018393353371" x2="252.2018393353371" y1="0" y2="30"/><line opacity="0.2" x1="154.8589168359814" x2="154.8589168359814" y1="0" y2="30"/><line opacity="0.2" x1="484.73202557871923" x2="484.73202557871923" y1="0" y2="30"/><line opacity="0.2" x1="145.1279167000497" x2="145.1279167000497" y1="0" y2="30"/><line opacity="0.2" x1="384.2504995581173" x2="384.2504995581173" y1="0" y2="30"/><line opacity="0.2" x1="497.45288461733224" x2="497.45288461733224" y1="0" y2="30"/><line opacity="0.2" x1="277.63972573607305" x2="277.63972573607305" y1="0" y2="30"/><line opacity="0.2" x1="444.39296829421755" x2="444.39296829421755" y1="0" y2="30"/><line opacity="0.2" x1="453.3387444955031" x2="453.3387444955031" y1="0" y2="30"/><line opacity="0.2" x1="413.97994622080057" x2="413.97994622080057" y1="0" y2="30"/><line opacity="0.2" x1="316.4039714574616" x2="316.4039714574616" y1="0" y2="30"/><line opacity="0.2" x1="382.755692062984" x2="382.755692062984" y1="0" y2="30"/><line opacity="0.2" x1="257.3030002668519" x2="257.3030002668519" y1="0" y2="30"/><line opacity="0.2" x1="232.12738015768846" x2="232.12738015768846" y1="0" y2="30"/><line opacity="0.2" x1="256.8822009210461" x2="256.8822009210461" y1="0" y2="30"/><line opacity="0.2" x1="355.90949022035966" x2="355.90949022035966" y1="0" y2="30"/><line opacity="0.2" x1="383.7732226892025" x2="383.7732226892025" y1="0" y2="30"/><line opacity="0.2" x1="328.5962067420255" x2="328.5962067420255" y1="0" y2="30"/><line opacity="0.2" x1="368.9710951058022" x2="368.9710951058022" y1="0" y2="30"/><line opacity="0.2" x1="310.97453242605184" x2="310.97453242605184" y1="0" y2="30"/><line opacity="0.2" x1="323.7161357377735" x2="323.7161357377735" y1="0" y2="30"/><line opacity="0.2" x1="426.8519416746373" x2="426.8519416746373" y1="0" y2="30"/><line opacity="0.2" x1="405.81682363859363" x2="405.81682363859363" y1="0" y2="30"/><line opacity="0.2" x1="253.40359828561552" x2="253.40359828561552" y1="0" y2="30"/><line opacity="0.2" x1="458.4293175956297" x2="458.4293175956297" y1="0" y2="30"/><line opacity="0.2" x1="306.03134513721363" x2="306.03134513721363" y1="0" y2="30"/><line opacity="0.2" x1="298.74274498301304" x2="298.74274498301304" y1="0" y2="30"/><line opacity="0.2" x1="127.33391600811441" x2="127.33391600811441" y1="0" y2="30"/><line opacity="0.2" x1="413.4449700973229" x2="413.4449700973229" y1="0" y2="30"/><line opacity="0.2" x1="365.5797352663894" x2="365.5797352663894" y1="0" y2="30"/><line opacity="0.2" x1="404.4988644075019" x2="404.4988644075019" y1="0" y2="30"/><line opacity="0.2" x1="497.7547487764084" x2="497.7547487764084" y1="0" y2="30"/><line opacity="0.2" x1="459.8766865682468" x2="459.8766865682468" y1="0" y2="30"/><line opacity="0.2" x1="438.8271205569581" x2="438.8271205569581" y1="0" y2="30"/><line opacity="0.2" x1="510.20139446880165" x2="510.20139446880165" y1="0" y2="30"/><line opacity="0.2" x1="256.55369970464545" x2="256.55369970464545" y1="0" y2="30"/><line opacity="0.2" x1="370.19763671540363" x2="370.19763671540363" y1="0" y2="30"/><line opacity="0.2" x1="349.3468072457926" x2="349.3468072457926" y1="0" y2="30"/><line opacity="0.2" x1="445.65191922773863" x2="445.65191922773863" y1="0" y2="30"/><line opacity="0.2" x1="256.07371162619586" x2="256.07371162619586" y1="0" y2="30"/><line opacity="0.2" x1="363.74389527886666" x2="363.74389527886666" y1="0" y2="30"/><line opacity="0.2" x1="414.08636674080736" x2="414.08636674080736" y1="0" y2="30"/><line opacity="0.2" x1="339.27267012604443" x2="339.27267012604443" y1="0" y2="30"/><line opacity="0.2" x1="315.1645523341899" x2="315.1645523341899" y1="0" y2="30"/><line opacity="0.2" x1="237.9986671051534" x2="237.9986671051534" y1="0" y2="30"/><line opacity="0.2" x1="388.98581943592217" x2="388.98581943592217" y1="0" y2="30"/><line opacity="0.2" x1="406.0303925528954" x2="406.0303925528954" y1="0" y2="30"/><line opacity="0.2" x1="273.3024367200384" x2="273.3024367200384" y1="0" y2="30"/><line opacity="0.2" x1="379.30144052547" x2="379.30144052547" y1="0" y2="30"/><line opacity="0.2" x1="504.454719705399" x2="504.454719705399" y1="0" y2="30"/><line opacity="0.2" x1="363.5595856322909" x2="363.5595856322909" y1="0" y2="30"/><line opacity="0.2" x1="338.09744378351684" x2="338.09744378351684" y1="0" y2="30"/><line opacity="0.2" x1="124.7867444371995" x2="124.7867444371995" y1="0" y2="30"/><line opacity="0.2" x1="314.79666057792645" x2="314.79666057792645" y1="0" y2="30"/><line opacity="0.2" x1="411.4975194500641" x2="411.4975194500641" y1="0" y2="30"/><line opacity="0.2" x1="301.2844923797815" x2="301.2844923797815" y1="0" y2="30"/><line opacity="0.2" x1="330.1880245750088" x2="330.1880245750088" y1="0" y2="30"/><line opacity="0.2" x1="388.01118259071893" x2="388.01118259071893" y1="0" y2="30"/><line opacity="0.2" x1="477.0813680299015" x2="477.0813680299015" y1="0" y2="30"/><line opacity="0.2" x1="333.3512986182104" x2="333.3512986182104" y1="0" y2="30"/><line opacity="0.2" x1="383.9881887641858" x2="383.9881887641858" y1="0" y2="30"/><line opacity="0.2" x1="245.8771284641557" x2="245.8771284641557" y1="0" y2="30"/><line opacity="0.2" x1="249.4869380704531" x2="249.4869380704531" y1="0" y2="30"/><line opacity="0.2" x1="272.89958197089305" x2="272.89958197089305" y1="0" y2="30"/><line opacity="0.2" x1="510.55382000913556" x2="510.55382000913556" y1="0" y2="30"/><line opacity="0.2" x1="245.79897719496623" x2="245.79897719496623" y1="0" y2="30"/><line opacity="0.2" x1="298.09691240158446" x2="298.09691240158446" y1="0" y2="30"/><line opacity="0.2" x1="322.1055507982459" x2="322.1055507982459" y1="0" y2="30"/><line opacity="0.2" x1="379.33557737745616" x2="379.33557737745616" y1="0" y2="30"/><line opacity="0.2" x1="310.80487493160035" x2="310.80487493160035" y1="0" y2="30"/><line opacity="0.2" x1="181.76465848966652" x2="181.76465848966652" y1="0" y2="30"/><line opacity="0.2" x1="192.82844984568612" x2="192.82844984568612" y1="0" y2="30"/><line opacity="0.2" x1="167.21360127605604" x2="167.21360127605604" y1="0" y2="30"/><line opacity="0.2" x1="289.9546711552309" x2="289.9546711552309" y1="0" y2="30"/><line opacity="0.2" x1="405.3673637277663" x2="405.3673637277663" y1="0" y2="30"/><line opacity="0.2" x1="201.96146300015397" x2="201.96146300015397" y1="0" y2="30"/><line opacity="0.2" x1="321.71239576604864" x2="321.71239576604864" y1="0" y2="30"/><line opacity="0.2" x1="269.6341774684018" x2="269.6341774684018" y1="0" y2="30"/><line opacity="0.2" x1="268.96345041463326" x2="268.96345041463326" y1="0" y2="30"/><line opacity="0.2" x1="431.634382577015" x2="431.634382577015" y1="0" y2="30"/><line opacity="0.2" x1="360.5125050437542" x2="360.5125050437542" y1="0" y2="30"/><line opacity="0.2" x1="416.11585638470666" x2="416.11585638470666" y1="0" y2="30"/><line opacity="0.2" x1="382.6085156125147" x2="382.6085156125147" y1="0" y2="30"/><line opacity="0.2" x1="497.6259871615099" x2="497.6259871615099" y1="0" y2="30"/><line opacity="0.2" x1="261.07074656898163" x2="261.07074656898163" y1="0" y2="30"/><line opacity="0.2" x1="412.417502345028" x2="412.417502345028" y1="0" y2="30"/><line opacity="0.2" x1="418.43987399273783" x2="418.43987399273783" y1="0" y2="30"/><line opacity="0.2" x1="248.87052843776652" x2="248.87052843776652" y1="0" y2="30"/><line opacity="0.2" x1="417.99626252245577" x2="417.99626252245577" y1="0" y2="30"/><line opacity="0.2" x1="369.6535337760295" x2="369.6535337760295" y1="0" y2="30"/><line opacity="0.2" x1="305.14674549416134" x2="305.14674549416134" y1="0" y2="30"/><line opacity="0.2" x1="369.3502098826534" x2="369.3502098826534" y1="0" y2="30"/><line opacity="0.2" x1="305.1566872733611" x2="305.1566872733611" y1="0" y2="30"/><line opacity="0.2" x1="411.45219706163306" x2="411.45219706163306" y1="0" y2="30"/><line opacity="0.2" x1="375.2735063572776" x2="375.2735063572776" y1="0" y2="30"/><line opacity="0.2" x1="182.31619673274292" x2="182.31619673274292" y1="0" y2="30"/><line opacity="0.2" x1="368.2943523932331" x2="368.2943523932331" y1="0" y2="30"/><line opacity="0.2" x1="466.2713050166678" x2="466.2713050166678" y1="0" y2="30"/><line opacity="0.2" x1="318.7863816287544" x2="318.7863816287544" y1="0" y2="30"/><line opacity="0.2" x1="332.66309678917105" x2="332.66309678917105" y1="0" y2="30"/><line opacity="0.2" x1="350.4077457314488" x2="350.4077457314488" y1="0" y2="30"/><line opacity="0.2" x1="387.97492312762853" x2="387.97492312762853" y1="0" y2="30"/><line opacity="0.2" x1="322.1902420370436" x2="322.1902420370436" y1="0" y2="30"/><line opacity="0.2" x1="398.78872850929383" x2="398.78872850929383" y1="0" y2="30"/><line opacity="0.2" x1="305.78242306223046" x2="305.78242306223046" y1="0" y2="30"/><line opacity="0.2" x1="309.8931632180373" x2="309.8931632180373" y1="0" y2="30"/><line opacity="0.2" x1="248.3693725363415" x2="248.3693725363415" y1="0" y2="30"/><line opacity="0.2" x1="346.11072230947644" x2="346.11072230947644" y1="0" y2="30"/><line opacity="0.2" x1="302.46190279221787" x2="302.46190279221787" y1="0" y2="30"/><line opacity="0.2" x1="396.51964337277855" x2="396.51964337277855" y1="0" y2="30"/><line opacity="0.2" x1="132.7829785303214" x2="132.7829785303214" y1="0" y2="30"/><line opacity="0.2" x1="377.51180129965627" x2="377.51180129965627" y1="0" y2="30"/><line opacity="0.2" x1="361.24206262859565" x2="361.24206262859565" y1="0" y2="30"/><line opacity="0.2" x1="392.4184954113872" x2="392.4184954113872" y1="0" y2="30"/><line opacity="0.2" x1="340.7863974075647" x2="340.7863974075647" y1="0" y2="30"/><line opacity="0.2" x1="475.285476421914" x2="475.285476421914" y1="0" y2="30"/><line opacity="0.2" x1="401.63395966078946" x2="401.63395966078946" y1="0" y2="30"/><line opacity="0.2" x1="189.38608701370634" x2="189.38608701370634" y1="0" y2="30"/><line opacity="0.2" x1="366.8213451772796" x2="366.8213451772796" y1="0" y2="30"/><line opacity="0.2" x1="280.38742777607234" x2="280.38742777607234" y1="0" y2="30"/><line opacity="0.2" x1="310.16059710208145" x2="310.16059710208145" y1="0" y2="30"/><line opacity="0.2" x1="512.2990091077862" x2="512.2990091077862" y1="0" y2="30"/><line opacity="0.2" x1="102.3577879137725" x2="102.3577879137725" y1="0" y2="30"/><line opacity="0.2" x1="343.8655946807657" x2="343.8655946807657" y1="0" y2="30"/><line opacity="0.2" x1="331.99897814880404" x2="331.99897814880404" y1="0" y2="30"/><line opacity="0.2" x1="245.51312579712328" x2="245.51312579712328" y1="0" y2="30"/><line opacity="0.2" x1="455.26889494919084" x2="455.26889494919084" y1="0" y2="30"/><line opacity="0.2" x1="309.41123143632416" x2="309.41123143632416" y1="0" y2="30"/><line opacity="0.2" x1="373.7897674290873" x2="373.7897674290873" y1="0" y2="30"/><line opacity="0.2" x1="254.96668771781296" x2="254.96668771781296" y1="0" y2="30"/><line opacity="0.2" x1="439.09545635988167" x2="439.09545635988167" y1="0" y2="30"/><line opacity="0.2" x1="283.00975636268123" x2="283.00975636268123" y1="0" y2="30"/><line opacity="0.2" x1="249.12983976820368" x2="249.12983976820368" y1="0" y2="30"/><line opacity="0.2" x1="413.3107183743549" x2="413.3107183743549" y1="0" y2="30"/><line opacity="0.2" x1="300.09440013467645" x2="300.09440013467645" y1="0" y2="30"/><line opacity="0.2" x1="284.10275268995605" x2="284.10275268995605" y1="0" y2="30"/><line opacity="0.2" x1="263.4092371530624" x2="263.4092371530624" y1="0" y2="30"/><line opacity="0.2" x1="309.2740725441519" x2="309.2740725441519" y1="0" y2="30"/><line opacity="0.2" x1="411.3469079412935" x2="411.3469079412935" y1="0" y2="30"/><line opacity="0.2" x1="397.2528482919852" x2="397.2528482919852" y1="0" y2="30"/><line opacity="0.2" x1="502.6723417350871" x2="502.6723417350871" y1="0" y2="30"/><line opacity="0.2" x1="457.6913702621971" x2="457.6913702621971" y1="0" y2="30"/><line opacity="0.2" x1="528.9905357508364" x2="528.9905357508364" y1="0" y2="30"/><line opacity="0.2" x1="379.5333395829124" x2="379.5333395829124" y1="0" y2="30"/><line opacity="0.2" x1="469.90426975187404" x2="469.90426975187404" y1="0" y2="30"/><line opacity="0.2" x1="371.0891884318785" x2="371.0891884318785" y1="0" y2="30"/><line opacity="0.2" x1="296.1894799631286" x2="296.1894799631286" y1="0" y2="30"/><line opacity="0.2" x1="390.8623130368917" x2="390.8623130368917" y1="0" y2="30"/><line opacity="0.2" x1="400.38037413453634" x2="400.38037413453634" y1="0" y2="30"/><line opacity="0.2" x1="340.67310632477813" x2="340.67310632477813" y1="0" y2="30"/><line opacity="0.2" x1="311.0166344273264" x2="311.0166344273264" y1="0" y2="30"/><line opacity="0.2" x1="321.4043764002969" x2="321.4043764002969" y1="0" y2="30"/><line opacity="0.2" x1="367.2240629174318" x2="367.2240629174318" y1="0" y2="30"/><line opacity="0.2" x1="365.9215998658992" x2="365.9215998658992" y1="0" y2="30"/><line opacity="0.2" x1="261.5209651622737" x2="261.5209651622737" y1="0" y2="30"/><line opacity="0.2" x1="428.7712604959866" x2="428.7712604959866" y1="0" y2="30"/><line opacity="0.2" x1="214.69105278404902" x2="214.69105278404902" y1="0" y2="30"/><line opacity="0.2" x1="261.9504614568224" x2="261.9504614568224" y1="0" y2="30"/><line opacity="0.2" x1="263.77012637172584" x2="263.77012637172584" y1="0" y2="30"/><line opacity="0.2" x1="528.8273742381032" x2="528.8273742381032" y1="0" y2="30"/><line opacity="0.2" x1="193.96863478003664" x2="193.96863478003664" y1="0" y2="30"/><line opacity="0.2" x1="275.10960432779586" x2="275.10960432779586" y1="0" y2="30"/><line opacity="0.2" x1="378.1524560823306" x2="378.1524560823306" y1="0" y2="30"/><line opacity="0.2" x1="327.14157026359624" x2="327.14157026359624" y1="0" y2="30"/><line opacity="0.2" x1="240.25692011630971" x2="240.25692011630971" y1="0" y2="30"/><line opacity="0.2" x1="409.1324543220138" x2="409.1324543220138" y1="0" y2="30"/><line opacity="0.2" x1="300.8858668453675" x2="300.8858668453675" y1="0" y2="30"/><line opacity="0.2" x1="224.3294124654158" x2="224.3294124654158" y1="0" y2="30"/><line opacity="0.2" x1="362.2560172842466" x2="362.2560172842466" y1="0" y2="30"/><line opacity="0.2" x1="403.0091212369022" x2="403.0091212369022" y1="0" y2="30"/><line opacity="0.2" x1="297.85711415523434" x2="297.85711415523434" y1="0" y2="30"/><line opacity="0.2" x1="518.7996276054214" x2="518.7996276054214" y1="0" y2="30"/><line opacity="0.2" x1="241.3049132535804" x2="241.3049132535804" y1="0" y2="30"/><line opacity="0.2" x1="375.5780591721634" x2="375.5780591721634" y1="0" y2="30"/><line opacity="0.2" x1="300.6293937001322" x2="300.6293937001322" y1="0" y2="30"/><line opacity="0.2" x1="369.4601572761979" x2="369.4601572761979" y1="0" y2="30"/><line opacity="0.2" x1="500.98525146044653" x2="500.98525146044653" y1="0" y2="30"/><line opacity="0.2" x1="194.5600686072549" x2="194.5600686072549" y1="0" y2="30"/><line opacity="0.2" x1="346.3129355282813" x2="346.3129355282813" y1="0" y2="30"/><line opacity="0.2" x1="308.19994741559503" x2="308.19994741559503" y1="0" y2="30"/><line opacity="0.2" x1="540.1296911282018" x2="540.1296911282018" y1="0" y2="30"/><line opacity="0.2" x1="330.7658192902001" x2="330.7658192902001" y1="0" y2="30"/><line opacity="0.2" x1="469.36890336992013" x2="469.36890336992013" y1="0" y2="30"/><line opacity="0.2" x1="322.28613866116166" x2="322.28613866116166" y1="0" y2="30"/><line opacity="0.2" x1="356.8441902853252" x2="356.8441902853252" y1="0" y2="30"/><line opacity="0.2" x1="317.13492567432604" x2="317.13492567432604" y1="0" y2="30"/><line opacity="0.2" x1="347.20408203890554" x2="347.20408203890554" y1="0" y2="30"/><line opacity="0.2" x1="369.68829013142454" x2="369.68829013142454" y1="0" y2="30"/><line opacity="0.2" x1="523.5491506246791" x2="523.5491506246791" y1="0" y2="30"/><line opacity="0.2" x1="436.96748887852266" x2="436.96748887852266" y1="0" y2="30"/><line opacity="0.2" x1="344.56576689448065" x2="344.56576689448065" y1="0" y2="30"/><line opacity="0.2" x1="552.0122440384956" x2="552.0122440384956" y1="0" y2="30"/><line opacity="0.2" x1="173.02971278651845" x2="173.02971278651845" y1="0" y2="30"/><line opacity="0.2" x1="472.5794545437881" x2="472.5794545437881" y1="0" y2="30"/><line opacity="0.2" x1="318.5917733343318" x2="318.5917733343318" y1="0" y2="30"/><line opacity="0.2" x1="382.9828278443912" x2="382.9828278443912" y1="0" y2="30"/><line opacity="0.2" x1="190.44719044060236" x2="190.44719044060236" y1="0" y2="30"/><line opacity="0.2" x1="228.6819926556785" x2="228.6819926556785" y1="0" y2="30"/><line opacity="0.2" x1="330.21170735806567" x2="330.21170735806567" y1="0" y2="30"/><line opacity="0.2" x1="331.306664358465" x2="331.306664358465" y1="0" y2="30"/><line opacity="0.2" x1="430.5229608980655" x2="430.5229608980655" y1="0" y2="30"/><line opacity="0.2" x1="226.612190703642" x2="226.612190703642" y1="0" y2="30"/><line opacity="0.2" x1="327.2229763253931" x2="327.2229763253931" y1="0" y2="30"/><line opacity="0.2" x1="272.2664700130083" x2="272.2664700130083" y1="0" y2="30"/><line opacity="0.2" x1="412.23080200000146" x2="412.23080200000146" y1="0" y2="30"/><line opacity="0.2" x1="222.9594376592886" x2="222.9594376592886" y1="0" y2="30"/><line opacity="0.2" x1="408.4211417083791" x2="408.4211417083791" y1="0" y2="30"/><line opacity="0.2" x1="291.6208435083306" x2="291.6208435083306" y1="0" y2="30"/><line opacity="0.2" x1="217.91438761668496" x2="217.91438761668496" y1="0" y2="30"/><line opacity="0.2" x1="312.3274866808536" x2="312.3274866808536" y1="0" y2="30"/><line opacity="0.2" x1="297.21966289250275" x2="297.21966289250275" y1="0" y2="30"/><line opacity="0.2" x1="300.4935062602572" x2="300.4935062602572" y1="0" y2="30"/><line opacity="0.2" x1="269.02164542506137" x2="269.02164542506137" y1="0" y2="30"/><line opacity="0.2" x1="172.831752483444" x2="172.831752483444" y1="0" y2="30"/><line opacity="0.2" x1="144.01693774123177" x2="144.01693774123177" y1="0" y2="30"/><line opacity="0.2" x1="441.88308720121864" x2="441.88308720121864" y1="0" y2="30"/><line opacity="0.2" x1="399.1116207507919" x2="399.1116207507919" y1="0" y2="30"/><line opacity="0.2" x1="409.1167653721325" x2="409.1167653721325" y1="0" y2="30"/><line opacity="0.2" x1="409.47530389711363" x2="409.47530389711363" y1="0" y2="30"/><line opacity="0.2" x1="173.98579188692528" x2="173.98579188692528" y1="0" y2="30"/><line opacity="0.2" x1="276.06599382614536" x2="276.06599382614536" y1="0" y2="30"/><line opacity="0.2" x1="339.826873938459" x2="339.826873938459" y1="0" y2="30"/><line opacity="0.2" x1="409.6986732452356" x2="409.6986732452356" y1="0" y2="30"/><line opacity="0.2" x1="292.71298315789534" x2="292.71298315789534" y1="0" y2="30"/><line opacity="0.2" x1="379.2454025973853" x2="379.2454025973853" y1="0" y2="30"/><line opacity="0.2" x1="251.57766862949512" x2="251.57766862949512" y1="0" y2="30"/><line opacity="0.2" x1="322.7639096834848" x2="322.7639096834848" y1="0" y2="30"/><line opacity="0.2" x1="551.942260309009" x2="551.942260309009" y1="0" y2="30"/><line opacity="0.2" x1="330.6564452236789" x2="330.6564452236789" y1="0" y2="30"/><line opacity="0.2" x1="182.10568370468715" x2="182.10568370468715" y1="0" y2="30"/><line opacity="0.2" x1="320.98047675258124" x2="320.98047675258124" y1="0" y2="30"/><line opacity="0.2" x1="345.81284176263176" x2="345.81284176263176" y1="0" y2="30"/><line opacity="0.2" x1="378.3678894631567" x2="378.3678894631567" y1="0" y2="30"/><line opacity="0.2" x1="391.4184875549376" x2="391.4184875549376" y1="0" y2="30"/><line opacity="0.2" x1="446.8849420034533" x2="446.8849420034533" y1="0" y2="30"/><line opacity="0.2" x1="414.60946185263094" x2="414.60946185263094" y1="0" y2="30"/><line opacity="0.2" x1="361.09147604146006" x2="361.09147604146006" y1="0" y2="30"/><line opacity="0.2" x1="448.08494163420056" x2="448.08494163420056" y1="0" y2="30"/><line opacity="0.2" x1="368.92233508533354" x2="368.92233508533354" y1="0" y2="30"/><line opacity="0.2" x1="305.2601457559338" x2="305.2601457559338" y1="0" y2="30"/><line opacity="0.2" x1="347.85535473858766" x2="347.85535473858766" y1="0" y2="30"/><line opacity="0.2" x1="335.6329823607031" x2="335.6329823607031" y1="0" y2="30"/><line opacity="0.2" x1="425.3747960693819" x2="425.3747960693819" y1="0" y2="30"/><line opacity="0.2" x1="405.89821509866806" x2="405.89821509866806" y1="0" y2="30"/><line opacity="0.2" x1="324.28516372790324" x2="324.28516372790324" y1="0" y2="30"/><line opacity="0.2" x1="252.62460416721856" x2="252.62460416721856" y1="0" y2="30"/><line opacity="0.2" x1="363.6879063386794" x2="363.6879063386794" y1="0" y2="30"/><line opacity="0.2" x1="421.10803253464803" x2="421.10803253464803" y1="0" y2="30"/><line opacity="0.2" x1="379.3834095618499" x2="379.3834095618499" y1="0" y2="30"/><line opacity="0.2" x1="416.8449343038877" x2="416.8449343038877" y1="0" y2="30"/><line opacity="0.2" x1="388.1795866732177" x2="388.1795866732177" y1="0" y2="30"/><line opacity="0.2" x1="454.70892602672404" x2="454.70892602672404" y1="0" y2="30"/><line opacity="0.2" x1="178.82261654932313" x2="178.82261654932313" y1="0" y2="30"/><line opacity="0.2" x1="336.00645806435597" x2="336.00645806435597" y1="0" y2="30"/><line opacity="0.2" x1="265.48188411071055" x2="265.48188411071055" y1="0" y2="30"/><line opacity="0.2" x1="324.15731448448554" x2="324.15731448448554" y1="0" y2="30"/><line opacity="0.2" x1="444.6523394132746" x2="444.6523394132746" y1="0" y2="30"/><line opacity="0.2" x1="422.44575344933503" x2="422.44575344933503" y1="0" y2="30"/><line opacity="0.2" x1="168.41242428417553" x2="168.41242428417553" y1="0" y2="30"/><line opacity="0.2" x1="248.44586052463126" x2="248.44586052463126" y1="0" y2="30"/><line opacity="0.2" x1="459.29445455413384" x2="459.29445455413384" y1="0" y2="30"/><line opacity="0.2" x1="319.2104296793715" x2="319.2104296793715" y1="0" y2="30"/><line opacity="0.2" x1="299.2646979883523" x2="299.2646979883523" y1="0" y2="30"/><line opacity="0.2" x1="407.80604422640585" x2="407.80604422640585" y1="0" y2="30"/><line opacity="0.2" x1="246.6152420796936" x2="246.6152420796936" y1="0" y2="30"/><line opacity="0.2" x1="432.4779407739643" x2="432.4779407739643" y1="0" y2="30"/><line opacity="0.2" x1="244.55044312966018" x2="244.55044312966018" y1="0" y2="30"/><line opacity="0.2" x1="517.8523785604395" x2="517.8523785604395" y1="0" y2="30"/><line opacity="0.2" x1="286.0267972263667" x2="286.0267972263667" y1="0" y2="30"/><line opacity="0.2" x1="294.505900367109" x2="294.505900367109" y1="0" y2="30"/><line opacity="0.2" x1="225.17932787002198" x2="225.17932787002198" y1="0" y2="30"/><line opacity="0.2" x1="185.60794620820272" x2="185.60794620820272" y1="0" y2="30"/><line opacity="0.2" x1="453.2357004558146" x2="453.2357004558146" y1="0" y2="30"/><line opacity="0.2" x1="414.45007139201675" x2="414.45007139201675" y1="0" y2="30"/><line opacity="0.2" x1="378.1187580965813" x2="378.1187580965813" y1="0" y2="30"/><line opacity="0.2" x1="167.62712279928726" x2="167.62712279928726" y1="0" y2="30"/><line opacity="0.2" x1="560.181704657886" x2="560.181704657886" y1="0" y2="30"/><line opacity="0.2" x1="407.64278159645664" x2="407.64278159645664" y1="0" y2="30"/><line opacity="0.2" x1="331.96932242990124" x2="331.96932242990124" y1="0" y2="30"/><line opacity="0.2" x1="367.63458858221145" x2="367.63458858221145" y1="0" y2="30"/><line opacity="0.2" x1="270.5919188134031" x2="270.5919188134031" y1="0" y2="30"/><line opacity="0.2" x1="169.97028160203166" x2="169.97028160203166" y1="0" y2="30"/><line opacity="0.2" x1="429.23483799722067" x2="429.23483799722067" y1="0" y2="30"/><line opacity="0.2" x1="411.76069462056154" x2="411.76069462056154" y1="0" y2="30"/><line opacity="0.2" x1="408.0780227652164" x2="408.0780227652164" y1="0" y2="30"/><line opacity="0.2" x1="397.7276550283662" x2="397.7276550283662" y1="0" y2="30"/><line opacity="0.2" x1="236.44052279440965" x2="236.44052279440965" y1="0" y2="30"/><line opacity="0.2" x1="411.1659069304251" x2="411.1659069304251" y1="0" y2="30"/><line opacity="0.2" x1="227.4022280472342" x2="227.4022280472342" y1="0" y2="30"/><line opacity="0.2" x1="357.03850424146316" x2="357.03850424146316" y1="0" y2="30"/><line opacity="0.2" x1="283.62931160701703" x2="283.62931160701703" y1="0" y2="30"/><line opacity="0.2" x1="274.88946258107654" x2="274.88946258107654" y1="0" y2="30"/><line opacity="0.2" x1="438.8154656917609" x2="438.8154656917609" y1="0" y2="30"/><line opacity="0.2" x1="308.089391998588" x2="308.089391998588" y1="0" y2="30"/><line opacity="0.2" x1="360.79534050678" x2="360.79534050678" y1="0" y2="30"/><line opacity="0.2" x1="373.5538844619829" x2="373.5538844619829" y1="0" y2="30"/><line opacity="0.2" x1="269.29499985466776" x2="269.29499985466776" y1="0" y2="30"/><line opacity="0.2" x1="326.13380135618775" x2="326.13380135618775" y1="0" y2="30"/><line opacity="0.2" x1="299.6896548081107" x2="299.6896548081107" y1="0" y2="30"/><line opacity="0.2" x1="178.68622304370652" x2="178.68622304370652" y1="0" y2="30"/><line opacity="0.2" x1="229.99142114166554" x2="229.99142114166554" y1="0" y2="30"/><line opacity="0.2" x1="380.20170523232673" x2="380.20170523232673" y1="0" y2="30"/><line opacity="0.2" x1="299.6751679107195" x2="299.6751679107195" y1="0" y2="30"/><line opacity="0.2" x1="415.46979765911857" x2="415.46979765911857" y1="0" y2="30"/><line opacity="0.2" x1="408.54383236190955" x2="408.54383236190955" y1="0" y2="30"/><line opacity="0.2" x1="216.9676004985951" x2="216.9676004985951" y1="0" y2="30"/><line opacity="0.2" x1="336.36668802957973" x2="336.36668802957973" y1="0" y2="30"/><line opacity="0.2" x1="310.1022887871403" x2="310.1022887871403" y1="0" y2="30"/><line opacity="0.2" x1="359.78703061955946" x2="359.78703061955946" y1="0" y2="30"/></g></svg>