<svg xmlns="http://www.w3.org/2000/svg" xmlns:xlink="http://www.w3.org/1999/xlink" class="plot-d6a7b5" fill="currentColor" font-family="system-ui, sans-serif" font-size="10" text-anchor="middle" width="640" height="400" viewBox="0 0 640 400" style="color: black; background-color: white;"><style>.plot-d6a7b5 {
  display: block;
  background: white;
  height: auto;
  height: intrinsic;
  max-width: 100%;
}
.plot-d6a7b5 text,
.plot-d6a7b5 tspan {
  white-space: pre;
}</style><g aria-label="y-axis tick" fill="none" stroke="currentColor"><path transform="translate(40,373.8810059302731)" d="M0,0L-6,0"/><path transform="translate(40,341.6072418148685)" d="M0,0L-6,0"/><path transform="translate(40,309.3334776994638)" d="M0,0L-6,0"/><path transform="translate(40,277.0597135840591)" d="M0,0L-6,0"/><path transform="translate(40,244.7859494686545)" d="M0,0L-6,0"/><path transform="translate(40,212.51218535324983)" d="M0,0L-6,0"/><path transform="translate(40,180.23842123784516)" d="M0,0L-6,0"/><path transform="translate(40,147.96465712244054)" d="M0,0L-6,0"/><path transform="translate(40,115.69089300703587)" d="M0,0L-6,0"/><path transform="translate(40,83.4171288916312)" d="M0,0L-6,0"/><path transform="translate(40,51.143364776226534)" d="M0,0L-6,0"/></g><g aria-label="y-axis tick label" text-anchor="end" font-variant="tabular-nums" transform="translate(-9,0)"><text y="0.32em" transform="translate(40,373.8810059302731)">−5</text><text y="0.32em" transform="translate(40,341.6072418148685)">−4</text><text y="0.32em" transform="translate(40,309.3334776994638)">−3</text><text y="0.32em" transform="translate(40,277.0597135840591)">−2</text><text y="0.32em" transform="translate(40,244.7859494686545)">−1</text><text y="0.32em" transform="translate(40,212.51218535324983)">0</text><text y="0.32em" transform="translate(40,180.23842123784516)">1</text><text y="0.32em" transform="translate(40,147.96465712244054)">2</text><text y="0.32em" transform="translate(40,115.69089300703587)">3</text><text y="0.32em" transform="translate(40,83.4171288916312)">4</text><text y="0.32em" transform="translate(40,51.143364776226534)">5</text></g><g aria-label="rule" stroke="steelblue"><line x1="40" x2="639.5" y1="212.51218535324983" y2="212.51218535324983"/></g><g aria-label="line" fill="none" stroke="currentColor" stroke-width="1.5" stroke-linejoin="round" stroke-linecap="round"><path d="M40,165.327L46.056,155.458L52.111,141.498L58.167,173.636L64.222,139.608L70.278,174.785L76.333,149.49L82.389,166.73L88.444,156.814L94.5,162.861L100.556,108.983L106.611,150.489L112.667,133.308L118.722,186.47L124.778,200.777L130.833,196.871L136.889,253.761L142.944,225.725L149,220.655L155.056,135.264L161.111,107.831L167.167,114.053L173.222,110.814L179.278,58.282L185.333,67.092L191.389,50.69L197.444,26.001L203.5,20.979L209.556,20L215.611,45.095L221.667,76.276L227.722,106.922L233.778,86.839L239.833,72.929L245.889,69.433L251.944,115.001L258,174.218L264.056,186.572L270.111,139.446L276.167,126.406L282.222,175.084L288.278,173.948L294.333,143.508L300.389,146.364L306.444,116.015L312.5,176.39L318.556,218.538L324.611,256.117L330.667,273.777L336.722,287.417L342.778,239.622L348.833,225.357L354.889,264.623L360.944,296.097L367,332.836L373.056,308.177L379.111,274.981L385.167,294.004L391.222,280.164L397.278,216.315L403.333,167.491L409.389,181.764L415.444,187.591L421.5,203.363L427.556,281.815L433.611,213.978L439.667,234.803L445.722,234.627L451.778,237.158L457.833,238.018L463.889,236.108L469.944,290.619L476,296.312L482.056,253.728L488.111,254.933L494.167,209.256L500.222,292.881L506.278,270.098L512.333,290.661L518.389,307.054L524.444,292.15L530.5,336.04L536.556,292.726L542.611,339.898L548.667,380L554.722,308.023L560.778,303.853L566.833,322.266L572.889,319.454L578.944,283.633L585,275.141L591.056,302.922L597.111,302.366L603.167,315.07L609.222,294.195L615.278,290.38L621.333,370.335L627.389,330.839L633.444,257.615L639.5,238.183"/></g></svg>