<svg xmlns="http://www.w3.org/2000/svg" xmlns:xlink="http://www.w3.org/1999/xlink" class="plot-c50f0990a2a81" fill="currentColor" font-family="system-ui, sans-serif" font-size="10" text-anchor="middle" width="640" height="400" viewBox="0 0 640 400" style="color: black;"><style>
        .plot-c50f0990a2a81 {
          display: block;
          background: white;
          height: auto;
          height: intrinsic;
          max-width: 100%;
        }
        .plot-c50f0990a2a81 text,
        .plot-c50f0990a2a81 tspan {
          white-space: pre;
        }
      </style><g aria-label="y-axis tick" fill="none" stroke="currentColor" transform="translate(0,0.5)"><path transform="translate(40,358.71891124700255)" d="M0,0L-6,0"/><path transform="translate(40,332.52489441258416)" d="M0,0L-6,0"/><path transform="translate(40,306.33087757816565)" d="M0,0L-6,0"/><path transform="translate(40,280.13686074374715)" d="M0,0L-6,0"/><path transform="translate(40,253.94284390932864)" d="M0,0L-6,0"/><path transform="translate(40,227.74882707491014)" d="M0,0L-6,0"/><path transform="translate(40,201.5548102404917)" d="M0,0L-6,0"/><path transform="translate(40,175.3607934060732)" d="M0,0L-6,0"/><path transform="translate(40,149.16677657165468)" d="M0,0L-6,0"/><path transform="translate(40,122.9727597372362)" d="M0,0L-6,0"/><path transform="translate(40,96.77874290281774)" d="M0,0L-6,0"/><path transform="translate(40,70.58472606839925)" d="M0,0L-6,0"/><path transform="translate(40,44.390709233980736)" d="M0,0L-6,0"/></g><g aria-label="y-axis tick label" text-anchor="end" font-variant="tabular-nums" transform="translate(-8.5,0.5)"><text y="0.32em" transform="translate(40,358.71891124700255)">−11</text><text y="0.32em" transform="translate(40,332.52489441258416)">−10</text><text y="0.32em" transform="translate(40,306.33087757816565)">−9</text><text y="0.32em" transform="translate(40,280.13686074374715)">−8</text><text y="0.32em" transform="translate(40,253.94284390932864)">−7</text><text y="0.32em" transform="translate(40,227.74882707491014)">−6</text><text y="0.32em" transform="translate(40,201.5548102404917)">−5</text><text y="0.32em" transform="translate(40,175.3607934060732)">−4</text><text y="0.32em" transform="translate(40,149.16677657165468)">−3</text><text y="0.32em" transform="translate(40,122.9727597372362)">−2</text><text y="0.32em" transform="translate(40,96.77874290281774)">−1</text><text y="0.32em" transform="translate(40,70.58472606839925)">0</text><text y="0.32em" transform="translate(40,44.390709233980736)">1</text></g><g aria-label="rule" stroke="steelblue" transform="translate(0,0.5)"><line x1="40" x2="639" y1="70.58472606839925" y2="70.58472606839925"/></g><g aria-label="line" fill="none" stroke="currentColor" stroke-width="1.5" stroke-linejoin="round" stroke-linecap="round" transform="translate(0.5,0.5)"><path d="M40,66.239L46.051,30.202L52.101,26.349L58.152,20L64.202,23.789L70.253,28.725L76.303,56.386L82.354,97.274L88.404,68.661L94.455,81.305L100.505,113.766L106.556,160.322L112.606,193.81L118.657,193.776L124.707,222.167L130.758,211.279L136.808,231.228L142.859,219.396L148.909,167.544L154.96,180.768L161.01,140.347L167.061,122.731L173.111,144.155L179.162,174.085L185.212,134.806L191.263,158.134L197.313,152.348L203.364,158.217L209.414,134.831L215.465,142.816L221.515,102.533L227.566,68.736L233.616,99.557L239.667,79.766L245.717,100.716L251.768,153.108L257.818,184.227L263.869,202.55L269.919,216.763L275.97,241.471L282.02,250.776L288.071,246.331L294.121,279.863L300.172,264.389L306.222,297.463L312.273,297.88L318.323,336.985L324.374,335.44L330.424,314.9L336.475,335.92L342.525,306.984L348.576,348.798L354.626,351.766L360.677,380L366.727,358.241L372.778,366.559L378.828,358.444L384.879,340.645L390.929,326.757L396.98,361.274L403.03,333.136L409.081,331.351L415.131,350.95L421.182,329.932L427.232,315.525L433.283,295.734L439.333,263.693L445.384,311.08L451.434,309.269L457.485,325.335L463.535,305.74L469.586,324.923L475.636,308.893L481.687,315.509L487.737,294.179L493.788,290.421L499.838,262.351L505.889,229.043L511.939,280.397L517.99,328.208L524.04,315.907L530.091,280.09L536.141,282.623L542.192,269.701L548.242,263.241L554.293,286.942L560.343,300.976L566.394,299.001L572.444,339.722L578.495,303.624L584.545,303.738L590.596,302.553L596.646,283.124L602.697,296.828L608.747,246.7L614.798,236.803L620.848,246.854L626.899,233.887L632.949,273.058L639,317.449"/></g></svg>