<svg xmlns="http://www.w3.org/2000/svg" xmlns:xlink="http://www.w3.org/1999/xlink" class="plot-d6a7b5" fill="currentColor" font-family="system-ui, sans-serif" font-size="10" text-anchor="middle" width="640" height="400" viewBox="0 0 640 400" style="color: black; background-color: white;"><style>.plot-d6a7b5 {
  display: block;
  background: white;
  height: auto;
  height: intrinsic;
  max-width: 100%;
}
.plot-d6a7b5 text,
.plot-d6a7b5 tspan {
  white-space: pre;
}</style><g aria-label="y-axis tick" fill="none" stroke="currentColor"><path transform="translate(40,360.8492251736336)" d="M0,0L-6,0"/><path transform="translate(40,336.44472586567935)" d="M0,0L-6,0"/><path transform="translate(40,312.040226557725)" d="M0,0L-6,0"/><path transform="translate(40,287.63572724977064)" d="M0,0L-6,0"/><path transform="translate(40,263.23122794181637)" d="M0,0L-6,0"/><path transform="translate(40,238.82672863386205)" d="M0,0L-6,0"/><path transform="translate(40,214.4222293259077)" d="M0,0L-6,0"/><path transform="translate(40,190.0177300179534)" d="M0,0L-6,0"/><path transform="translate(40,165.61323070999904)" d="M0,0L-6,0"/><path transform="translate(40,141.20873140204475)" d="M0,0L-6,0"/><path transform="translate(40,116.80423209409044)" d="M0,0L-6,0"/><path transform="translate(40,92.39973278613608)" d="M0,0L-6,0"/><path transform="translate(40,67.99523347818177)" d="M0,0L-6,0"/><path transform="translate(40,43.59073417022744)" d="M0,0L-6,0"/></g><g aria-label="y-axis tick label" text-anchor="end" font-variant="tabular-nums" transform="translate(-9,0)"><text y="0.32em" transform="translate(40,360.8492251736336)">−24</text><text y="0.32em" transform="translate(40,336.44472586567935)">−22</text><text y="0.32em" transform="translate(40,312.040226557725)">−20</text><text y="0.32em" transform="translate(40,287.63572724977064)">−18</text><text y="0.32em" transform="translate(40,263.23122794181637)">−16</text><text y="0.32em" transform="translate(40,238.82672863386205)">−14</text><text y="0.32em" transform="translate(40,214.4222293259077)">−12</text><text y="0.32em" transform="translate(40,190.0177300179534)">−10</text><text y="0.32em" transform="translate(40,165.61323070999904)">−8</text><text y="0.32em" transform="translate(40,141.20873140204475)">−6</text><text y="0.32em" transform="translate(40,116.80423209409044)">−4</text><text y="0.32em" transform="translate(40,92.39973278613608)">−2</text><text y="0.32em" transform="translate(40,67.99523347818177)">0</text><text y="0.32em" transform="translate(40,43.59073417022744)">2</text></g><g aria-label="rule" stroke="steelblue"><line x1="40" x2="639.5" y1="67.99523347818177" y2="67.99523347818177"/></g><g aria-label="line" fill="none" stroke="currentColor" stroke-width="1.5" stroke-linejoin="round" stroke-linecap="round"><path d="M40,61.554L46.056,47.031L52.111,33.617L58.167,42.471L64.222,34.974L70.278,28.284L76.333,29.481L82.389,24.574L88.444,20L94.5,22.785L100.556,20.044L106.611,22.097L112.667,27.058L118.722,45.171L124.778,23.697L130.833,29.091L136.889,31.469L142.944,35.728L149,36.889L155.056,55.079L161.111,54.159L167.167,54.216L173.222,50.702L179.278,43.847L185.333,60.109L191.389,72.525L197.444,80.958L203.5,79.369L209.556,81.033L215.611,79.309L221.667,92.26L227.722,78.674L233.778,70.468L239.833,70.364L245.889,64.847L251.944,66.514L258,74.385L264.056,93.149L270.111,94.829L276.167,108.132L282.222,104.292L288.278,102.839L294.333,109.178L300.389,79.437L306.444,103.538L312.5,107.593L318.556,86.335L324.611,80.905L330.667,80.457L336.722,73.95L342.778,73.122L348.833,94.955L354.889,119.578L360.944,130.986L367,132.83L373.056,139.906L379.111,135.824L385.167,150.17L391.222,143.618L397.278,139.141L403.333,142.354L409.389,127.779L415.444,153.309L421.5,163.415L427.556,168.747L433.611,192.084L439.667,215.457L445.722,203.266L451.778,213.935L457.833,205.081L463.889,208.978L469.944,219.649L476,214.504L482.056,240.344L488.111,251.272L494.167,265.673L500.222,277.844L506.278,292.903L512.333,286.539L518.389,289.864L524.444,289.077L530.5,285.554L536.556,296.878L542.611,328.779L548.667,343.823L554.722,327.483L560.778,333.853L566.833,351.953L572.889,353.051L578.944,325.346L585,325.884L591.056,321.755L597.111,319.45L603.167,308.126L609.222,325.724L615.278,333.489L621.333,333.302L627.389,326.389L633.444,367.805L639.5,380"/></g></svg>