<svg xmlns="http://www.w3.org/2000/svg" xmlns:xlink="http://www.w3.org/1999/xlink" class="plot-d6a7b5" fill="currentColor" font-family="system-ui, sans-serif" font-size="10" text-anchor="middle" width="640" height="400" viewBox="0 0 640 400" style="color: black; background-color: white;"><style>:where(.plot-d6a7b5) {
  --plot-background: white;
  display: block;
  height: auto;
  height: intrinsic;
  max-width: 100%;
}
:where(.plot-d6a7b5 text),
:where(.plot-d6a7b5 tspan) {
  white-space: pre;
}</style><g aria-label="y-axis tick" aria-hidden="true" fill="none" stroke="currentColor"><path transform="translate(40,374.0964813191439)" d="M0,0L-6,0"/><path transform="translate(40,348.49765470931703)" d="M0,0L-6,0"/><path transform="translate(40,322.8988280994902)" d="M0,0L-6,0"/><path transform="translate(40,297.3000014896634)" d="M0,0L-6,0"/><path transform="translate(40,271.7011748798365)" d="M0,0L-6,0"/><path transform="translate(40,246.10234827000966)" d="M0,0L-6,0"/><path transform="translate(40,220.5035216601828)" d="M0,0L-6,0"/><path transform="translate(40,194.90469505035594)" d="M0,0L-6,0"/><path transform="translate(40,169.30586844052914)" d="M0,0L-6,0"/><path transform="translate(40,143.70704183070228)" d="M0,0L-6,0"/><path transform="translate(40,118.10821522087541)" d="M0,0L-6,0"/><path transform="translate(40,92.50938861104854)" d="M0,0L-6,0"/><path transform="translate(40,66.91056200122172)" d="M0,0L-6,0"/><path transform="translate(40,41.31173539139486)" d="M0,0L-6,0"/></g><g aria-label="y-axis tick label" text-anchor="end" font-variant="tabular-nums" transform="translate(-9,0)"><text y="0.32em" transform="translate(40,374.0964813191439)">−9</text><text y="0.32em" transform="translate(40,348.49765470931703)">−8</text><text y="0.32em" transform="translate(40,322.8988280994902)">−7</text><text y="0.32em" transform="translate(40,297.3000014896634)">−6</text><text y="0.32em" transform="translate(40,271.7011748798365)">−5</text><text y="0.32em" transform="translate(40,246.10234827000966)">−4</text><text y="0.32em" transform="translate(40,220.5035216601828)">−3</text><text y="0.32em" transform="translate(40,194.90469505035594)">−2</text><text y="0.32em" transform="translate(40,169.30586844052914)">−1</text><text y="0.32em" transform="translate(40,143.70704183070228)">0</text><text y="0.32em" transform="translate(40,118.10821522087541)">1</text><text y="0.32em" transform="translate(40,92.50938861104854)">2</text><text y="0.32em" transform="translate(40,66.91056200122172)">3</text><text y="0.32em" transform="translate(40,41.31173539139486)">4</text></g><g aria-label="rule" stroke="steelblue"><line x1="40" x2="639.5" y1="143.70704183070228" y2="143.70704183070228"/></g><g aria-label="line" fill="none" stroke="currentColor" stroke-width="1.5" stroke-linejoin="round" stroke-linecap="round"><path d="M40,114.357L46.056,58.728L52.111,30.884L58.167,37.693L64.222,46.851L70.278,49.694L76.333,87.011L82.389,98.481L88.444,125.806L94.5,180.863L100.556,164.419L106.611,128.07L112.667,137.372L118.722,120.387L124.778,99.457L130.833,131.823L136.889,115.447L142.944,122.017L149,144.642L155.056,184.877L161.111,209.258L167.167,202.75L173.222,147.484L179.278,134.015L185.333,104.218L191.389,78.926L197.444,68.627L203.5,20L209.556,37.97L215.611,59.345L221.667,71.066L227.722,90.588L233.778,92.882L239.833,52.032L245.889,49.982L251.944,26.973L258,28.304L264.056,80.383L270.111,118.254L276.167,140L282.222,129.644L288.278,173.043L294.333,181.044L300.389,180.058L306.444,213.613L312.5,213.013L318.556,186.932L324.611,184.286L330.667,168.574L336.722,152.51L342.778,136.917L348.833,133.547L354.889,130.747L360.944,140.793L367,155.382L373.056,179.49L379.111,167.763L385.167,206.642L391.222,253.802L397.278,269.63L403.333,286.563L409.389,321.686L415.444,323.653L421.5,322.819L427.556,370.352L433.611,378.365L439.667,375.249L445.722,327.618L451.778,360.734L457.833,348.58L463.889,365.298L469.944,370.931L476,347.121L482.056,351.76L488.111,380L494.167,360.952L500.222,332.806L506.278,314.937L512.333,333.033L518.389,336.932L524.444,335.914L530.5,287.14L536.556,270.979L542.611,230.496L548.667,230.232L554.722,233.234L560.778,231.425L566.833,252.505L572.889,250.517L578.944,269.615L585,287.662L591.056,322.81L597.111,354.063L603.167,373.467L609.222,342.454L615.278,319.081L621.333,345.906L627.389,347.436L633.444,357.973L639.5,346.242"/></g></svg>