<svg xmlns="http://www.w3.org/2000/svg" xmlns:xlink="http://www.w3.org/1999/xlink" class="plot-d6a7b5" fill="currentColor" font-family="system-ui, sans-serif" font-size="10" text-anchor="middle" width="640" height="400" viewBox="0 0 640 400" style="color: black;"><style>.plot-d6a7b5 {
  display: block;
  background: white;
  height: auto;
  height: intrinsic;
  max-width: 100%;
}
.plot-d6a7b5 text,
.plot-d6a7b5 tspan {
  white-space: pre;
}</style><g aria-label="y-axis tick" fill="none" stroke="currentColor"><path transform="translate(40,371.56967820619013)" d="M0,0L-6,0"/><path transform="translate(40,324.7366399410026)" d="M0,0L-6,0"/><path transform="translate(40,277.9036016758151)" d="M0,0L-6,0"/><path transform="translate(40,231.0705634106275)" d="M0,0L-6,0"/><path transform="translate(40,184.23752514543995)" d="M0,0L-6,0"/><path transform="translate(40,137.4044868802524)" d="M0,0L-6,0"/><path transform="translate(40,90.57144861506482)" d="M0,0L-6,0"/><path transform="translate(40,43.73841034987731)" d="M0,0L-6,0"/></g><g aria-label="y-axis tick label" text-anchor="end" font-variant="tabular-nums" transform="translate(-9,0)"><text y="0.32em" transform="translate(40,371.56967820619013)">−8</text><text y="0.32em" transform="translate(40,324.7366399410026)">−6</text><text y="0.32em" transform="translate(40,277.9036016758151)">−4</text><text y="0.32em" transform="translate(40,231.0705634106275)">−2</text><text y="0.32em" transform="translate(40,184.23752514543995)">0</text><text y="0.32em" transform="translate(40,137.4044868802524)">2</text><text y="0.32em" transform="translate(40,90.57144861506482)">4</text><text y="0.32em" transform="translate(40,43.73841034987731)">6</text></g><g aria-label="rule" stroke="steelblue"><line x1="40" x2="639.5" y1="184.23752514543995" y2="184.23752514543995"/></g><g aria-label="line" fill="none" stroke="currentColor" stroke-width="1.5" stroke-linejoin="round" stroke-linecap="round"><path d="M40,221.956L46.056,202.785L52.111,213.101L58.167,254.013L64.222,257.529L70.278,237.765L76.333,250.178L82.389,302.715L88.444,321.486L94.5,359.004L100.556,346.504L106.611,374.104L112.667,380L118.722,375.557L124.778,323.577L130.833,288.714L136.889,255.501L142.944,244.842L149,224.469L155.056,226.658L161.111,249.691L167.167,248.648L173.222,244.204L179.278,224.706L185.333,244.838L191.389,219.34L197.444,245.136L203.5,250.142L209.556,227.931L215.611,200.881L221.667,188.883L227.722,206.568L233.778,187.991L239.833,207.985L245.889,206.383L251.944,195.848L258,183.773L264.056,179.888L270.111,176.774L276.167,190.259L282.222,171.595L288.278,204.114L294.333,175.501L300.389,200.585L306.444,222.466L312.5,158.638L318.556,141.797L324.611,173.278L330.667,185.497L336.722,237.884L342.778,227.123L348.833,229.321L354.889,251.749L360.944,243.147L367,258.424L373.056,210.741L379.111,186.437L385.167,170.886L391.222,133.294L397.278,172.322L403.333,177.681L409.389,178.896L415.444,151.863L421.5,159.286L427.556,198.955L433.611,186.861L439.667,195.504L445.722,224.594L451.778,189.556L457.833,164.392L463.889,154.805L469.944,170.615L476,195.737L482.056,195.487L488.111,163.75L494.167,157.448L500.222,168.631L506.278,127.545L512.333,105.399L518.389,102.086L524.444,93.651L530.5,69.705L536.556,78.328L542.611,55.061L548.667,45.295L554.722,42.626L560.778,41.81L566.833,52.472L572.889,64.17L578.944,55.224L585,20L591.056,58.338L597.111,65.365L603.167,69.159L609.222,72.984L615.278,44.285L621.333,38.267L627.389,79.861L633.444,68.218L639.5,44.982"/></g></svg>