<svg xmlns="http://www.w3.org/2000/svg" xmlns:xlink="http://www.w3.org/1999/xlink" class="plot-2dd811eeea06" fill="currentColor" font-family="system-ui, sans-serif" font-size="10" text-anchor="middle" width="640" height="400" viewBox="0 0 640 400" style="color: black;"><style>
        .plot-2dd811eeea06 {
          display: block;
          background: white;
          height: auto;
          height: intrinsic;
          max-width: 100%;
        }
        .plot-2dd811eeea06 text,
        .plot-2dd811eeea06 tspan {
          white-space: pre;
        }
      </style><g aria-label="y-axis tick" fill="none" stroke="currentColor" transform="translate(0,0.5)"><path transform="translate(40,366.86064145921256)" d="M0,0L-6,0"/><path transform="translate(40,340.9901976645643)" d="M0,0L-6,0"/><path transform="translate(40,315.1197538699158)" d="M0,0L-6,0"/><path transform="translate(40,289.24931007526743)" d="M0,0L-6,0"/><path transform="translate(40,263.37886628061904)" d="M0,0L-6,0"/><path transform="translate(40,237.5084224859707)" d="M0,0L-6,0"/><path transform="translate(40,211.63797869132236)" d="M0,0L-6,0"/><path transform="translate(40,185.76753489667396)" d="M0,0L-6,0"/><path transform="translate(40,159.89709110202557)" d="M0,0L-6,0"/><path transform="translate(40,134.02664730737717)" d="M0,0L-6,0"/><path transform="translate(40,108.15620351272882)" d="M0,0L-6,0"/><path transform="translate(40,82.28575971808046)" d="M0,0L-6,0"/><path transform="translate(40,56.41531592343205)" d="M0,0L-6,0"/><path transform="translate(40,30.544872128783684)" d="M0,0L-6,0"/></g><g aria-label="y-axis tick label" text-anchor="end" font-variant="tabular-nums" transform="translate(-8.5,0.5)"><text y="0.32em" transform="translate(40,366.86064145921256)">−4</text><text y="0.32em" transform="translate(40,340.9901976645643)">−2</text><text y="0.32em" transform="translate(40,315.1197538699158)">0</text><text y="0.32em" transform="translate(40,289.24931007526743)">2</text><text y="0.32em" transform="translate(40,263.37886628061904)">4</text><text y="0.32em" transform="translate(40,237.5084224859707)">6</text><text y="0.32em" transform="translate(40,211.63797869132236)">8</text><text y="0.32em" transform="translate(40,185.76753489667396)">10</text><text y="0.32em" transform="translate(40,159.89709110202557)">12</text><text y="0.32em" transform="translate(40,134.02664730737717)">14</text><text y="0.32em" transform="translate(40,108.15620351272882)">16</text><text y="0.32em" transform="translate(40,82.28575971808046)">18</text><text y="0.32em" transform="translate(40,56.41531592343205)">20</text><text y="0.32em" transform="translate(40,30.544872128783684)">22</text></g><g aria-label="line" fill="none" stroke="currentColor" stroke-width="1.5" stroke-linejoin="round" stroke-linecap="round" transform="translate(0.5,0.5)"><path d="M40,311.53L46.051,314.554L52.101,288.027L58.152,296.983L64.202,276.269L70.253,255.103L76.303,274.807L82.354,300.664L88.404,327.2L94.455,334.627L100.505,348.621L106.556,351.987L112.606,348.888L118.657,362.76L124.707,380L130.758,373.961L136.808,353.311L142.859,335.996L148.909,340.613L154.96,331.936L161.01,318.766L167.061,314.772L173.111,299.266L179.162,282.066L185.212,295.861L191.263,298.466L197.313,289.896L203.364,308.153L209.414,332.218L215.465,334.5L221.515,342.722L227.566,342.89L233.616,346.936L239.667,322.498L245.717,316.752L251.768,307.624L257.818,331.439L263.869,316.481L269.919,295.058L275.97,283.645L282.02,281.737L288.071,269.242L294.121,274.493L300.172,285.948L306.222,289.532L312.273,286.09L318.323,287.89L324.374,270.096L330.424,252.647L336.475,265.285L342.525,272.206L348.576,259.428L354.626,254.233L360.677,252.629L366.727,241.212L372.778,272.965L378.828,274.849L384.879,254.695L390.929,234.182L396.98,231.765L403.03,227.726L409.081,217.033L415.131,224.913L421.182,229.762L427.232,242.788L433.283,220.337L439.333,196.609L445.384,188.779L451.434,173.851L457.485,139.309L463.535,139.856L469.586,121.257L475.636,97.003L481.687,93.171L487.737,75.567L493.788,69.943L499.838,79.969L505.889,62.282L511.939,68.58L517.99,31.865L524.04,20L530.091,29.828L536.141,34.827L542.192,48.478L548.242,76.598L554.293,60.691L560.343,49.723L566.394,44.687L572.444,53.928L578.495,50.317L584.545,66.665L590.596,66.529L596.646,66.366L602.697,89.02L608.747,89.48L614.798,94.238L620.848,104.436L626.899,93.572L632.949,99.16L639,95.222"/></g></svg>