<svg xmlns="http://www.w3.org/2000/svg" xmlns:xlink="http://www.w3.org/1999/xlink" class="plot-9e9bf7fca57f7" fill="currentColor" font-family="system-ui, sans-serif" font-size="10" text-anchor="middle" width="640" height="60" viewBox="0 0 640 60" style="color: black;"><style>
        .plot-9e9bf7fca57f7 {
          display: block;
          background: white;
          height: auto;
          height: intrinsic;
          max-width: 100%;
        }
        .plot-9e9bf7fca57f7 text,
        .plot-9e9bf7fca57f7 tspan {
          white-space: pre;
        }
      </style><g aria-label="x-axis tick" fill="none" stroke="currentColor" transform="translate(0.5,0)"><path transform="translate(49.42277614197468,30)" d="M0,0L0,6"/><path transform="translate(138.96435004395641,30)" d="M0,0L0,6"/><path transform="translate(228.50592394593818,30)" d="M0,0L0,6"/><path transform="translate(318.04749784791994,30)" d="M0,0L0,6"/><path transform="translate(407.58907174990173,30)" d="M0,0L0,6"/><path transform="translate(497.1306456518835,30)" d="M0,0L0,6"/><path transform="translate(586.6722195538653,30)" d="M0,0L0,6"/></g><g aria-label="x-axis tick label" font-variant="tabular-nums" transform="translate(0.5,9.5)"><text y="0.71em" transform="translate(49.42277614197468,30)">−3</text><text y="0.71em" transform="translate(138.96435004395641,30)">−2</text><text y="0.71em" transform="translate(228.50592394593818,30)">−1</text><text y="0.71em" transform="translate(318.04749784791994,30)">0</text><text y="0.71em" transform="translate(407.58907174990173,30)">1</text><text y="0.71em" transform="translate(497.1306456518835,30)">2</text><text y="0.71em" transform="translate(586.6722195538653,30)">3</text></g><g aria-label="tick" stroke="steelblue" transform="translate(0.5,0)"><line opacity="0.2" x1="267.671874297329" x2="267.671874297329" y1="0" y2="30"/><line opacity="0.2" x1="375.3251091165394" x2="375.3251091165394" y1="0" y2="30"/><line opacity="0.2" x1="285.1033945990691" x2="285.1033945990691" y1="0" y2="30"/><line opacity="0.2" x1="244.42909663839356" x2="244.42909663839356" y1="0" y2="30"/><line opacity="0.2" x1="265.02116897274243" x2="265.02116897274243" y1="0" y2="30"/><line opacity="0.2" x1="317.302218907258" x2="317.302218907258" y1="0" y2="30"/><line opacity="0.2" x1="333.82266400834175" x2="333.82266400834175" y1="0" y2="30"/><line opacity="0.2" x1="319.7817409267235" x2="319.7817409267235" y1="0" y2="30"/><line opacity="0.2" x1="76.28781197688694" x2="76.28781197688694" y1="0" y2="30"/><line opacity="0.2" x1="411.6180670170993" x2="411.6180670170993" y1="0" y2="30"/><line opacity="0.2" x1="401.0479024748307" x2="401.0479024748307" y1="0" y2="30"/><line opacity="0.2" x1="142.0119757519364" x2="142.0119757519364" y1="0" y2="30"/><line opacity="0.2" x1="233.12317055466582" x2="233.12317055466582" y1="0" y2="30"/><line opacity="0.2" x1="326.5254582841475" x2="326.5254582841475" y1="0" y2="30"/><line opacity="0.2" x1="339.62628975170696" x2="339.62628975170696" y1="0" y2="30"/><line opacity="0.2" x1="244.29385402551708" x2="244.29385402551708" y1="0" y2="30"/><line opacity="0.2" x1="394.248093488167" x2="394.248093488167" y1="0" y2="30"/><line opacity="0.2" x1="313.2694508701023" x2="313.2694508701023" y1="0" y2="30"/><line opacity="0.2" x1="405.1386262498096" x2="405.1386262498096" y1="0" y2="30"/><line opacity="0.2" x1="232.54546839763492" x2="232.54546839763492" y1="0" y2="30"/><line opacity="0.2" x1="52.518933230239455" x2="52.518933230239455" y1="0" y2="30"/><line opacity="0.2" x1="167.71073262955264" x2="167.71073262955264" y1="0" y2="30"/><line opacity="0.2" x1="412.0179947673848" x2="412.0179947673848" y1="0" y2="30"/><line opacity="0.2" x1="249.24602182163434" x2="249.24602182163434" y1="0" y2="30"/><line opacity="0.2" x1="234.94786260152873" x2="234.94786260152873" y1="0" y2="30"/><line opacity="0.2" x1="416.94332997743936" x2="416.94332997743936" y1="0" y2="30"/><line opacity="0.2" x1="212.51526468625127" x2="212.51526468625127" y1="0" y2="30"/><line opacity="0.2" x1="303.8235425146431" x2="303.8235425146431" y1="0" y2="30"/><line opacity="0.2" x1="403.080688889248" x2="403.080688889248" y1="0" y2="30"/><line opacity="0.2" x1="404.03427966720636" x2="404.03427966720636" y1="0" y2="30"/><line opacity="0.2" x1="438.87620148549627" x2="438.87620148549627" y1="0" y2="30"/><line opacity="0.2" x1="309.51459865418906" x2="309.51459865418906" y1="0" y2="30"/><line opacity="0.2" x1="372.17974281056024" x2="372.17974281056024" y1="0" y2="30"/><line opacity="0.2" x1="329.9359489301088" x2="329.9359489301088" y1="0" y2="30"/><line opacity="0.2" x1="389.7005248091955" x2="389.7005248091955" y1="0" y2="30"/><line opacity="0.2" x1="346.7838015053681" x2="346.7838015053681" y1="0" y2="30"/><line opacity="0.2" x1="266.9654645283963" x2="266.9654645283963" y1="0" y2="30"/><line opacity="0.2" x1="186.44182871177978" x2="186.44182871177978" y1="0" y2="30"/><line opacity="0.2" x1="257.60654014566376" x2="257.60654014566376" y1="0" y2="30"/><line opacity="0.2" x1="260.5794554094977" x2="260.5794554094977" y1="0" y2="30"/><line opacity="0.2" x1="248.82124030127142" x2="248.82124030127142" y1="0" y2="30"/><line opacity="0.2" x1="298.99082342913266" x2="298.99082342913266" y1="0" y2="30"/><line opacity="0.2" x1="20" x2="20" y1="0" y2="30"/><line opacity="0.2" x1="436.98937158768337" x2="436.98937158768337" y1="0" y2="30"/><line opacity="0.2" x1="182.04324933139998" x2="182.04324933139998" y1="0" y2="30"/><line opacity="0.2" x1="356.0060640711162" x2="356.0060640711162" y1="0" y2="30"/><line opacity="0.2" x1="208.45088472797875" x2="208.45088472797875" y1="0" y2="30"/><line opacity="0.2" x1="309.7744396977802" x2="309.7744396977802" y1="0" y2="30"/><line opacity="0.2" x1="337.54118664080687" x2="337.54118664080687" y1="0" y2="30"/><line opacity="0.2" x1="219.96349600129227" x2="219.96349600129227" y1="0" y2="30"/><line opacity="0.2" x1="285.11885026270545" x2="285.11885026270545" y1="0" y2="30"/><line opacity="0.2" x1="328.563203654345" x2="328.563203654345" y1="0" y2="30"/><line opacity="0.2" x1="241.09268902240353" x2="241.09268902240353" y1="0" y2="30"/><line opacity="0.2" x1="462.64862337696843" x2="462.64862337696843" y1="0" y2="30"/><line opacity="0.2" x1="391.7150634607268" x2="391.7150634607268" y1="0" y2="30"/><line opacity="0.2" x1="267.358008429721" x2="267.358008429721" y1="0" y2="30"/><line opacity="0.2" x1="410.83958908070775" x2="410.83958908070775" y1="0" y2="30"/><line opacity="0.2" x1="299.1511729674382" x2="299.1511729674382" y1="0" y2="30"/><line opacity="0.2" x1="210.9991484886607" x2="210.9991484886607" y1="0" y2="30"/><line opacity="0.2" x1="379.4557191412049" x2="379.4557191412049" y1="0" y2="30"/><line opacity="0.2" x1="227.00607209532996" x2="227.00607209532996" y1="0" y2="30"/><line opacity="0.2" x1="327.34593028329516" x2="327.34593028329516" y1="0" y2="30"/><line opacity="0.2" x1="231.22482798855694" x2="231.22482798855694" y1="0" y2="30"/><line opacity="0.2" x1="268.6400276616972" x2="268.6400276616972" y1="0" y2="30"/><line opacity="0.2" x1="214.27818935745987" x2="214.27818935745987" y1="0" y2="30"/><line opacity="0.2" x1="469.55340732533983" x2="469.55340732533983" y1="0" y2="30"/><line opacity="0.2" x1="358.41817353071025" x2="358.41817353071025" y1="0" y2="30"/><line opacity="0.2" x1="363.50504639910235" x2="363.50504639910235" y1="0" y2="30"/><line opacity="0.2" x1="336.36865567794126" x2="336.36865567794126" y1="0" y2="30"/><line opacity="0.2" x1="280.65376283012006" x2="280.65376283012006" y1="0" y2="30"/><line opacity="0.2" x1="236.80138808908322" x2="236.80138808908322" y1="0" y2="30"/><line opacity="0.2" x1="518.2866833299092" x2="518.2866833299092" y1="0" y2="30"/><line opacity="0.2" x1="252.0311584135837" x2="252.0311584135837" y1="0" y2="30"/><line opacity="0.2" x1="241.87725630139215" x2="241.87725630139215" y1="0" y2="30"/><line opacity="0.2" x1="308.0633702894734" x2="308.0633702894734" y1="0" y2="30"/><line opacity="0.2" x1="356.92293875999354" x2="356.92293875999354" y1="0" y2="30"/><line opacity="0.2" x1="345.5293686404927" x2="345.5293686404927" y1="0" y2="30"/><line opacity="0.2" x1="447.3696529753414" x2="447.3696529753414" y1="0" y2="30"/><line opacity="0.2" x1="163.47929554420816" x2="163.47929554420816" y1="0" y2="30"/><line opacity="0.2" x1="459.88495482173755" x2="459.88495482173755" y1="0" y2="30"/><line opacity="0.2" x1="313.0787883441941" x2="313.0787883441941" y1="0" y2="30"/><line opacity="0.2" x1="405.5330179771373" x2="405.5330179771373" y1="0" y2="30"/><line opacity="0.2" x1="230.32799381124627" x2="230.32799381124627" y1="0" y2="30"/><line opacity="0.2" x1="279.56851370348545" x2="279.56851370348545" y1="0" y2="30"/><line opacity="0.2" x1="396.20605326806015" x2="396.20605326806015" y1="0" y2="30"/><line opacity="0.2" x1="374.33026862420706" x2="374.33026862420706" y1="0" y2="30"/><line opacity="0.2" x1="365.6345216581188" x2="365.6345216581188" y1="0" y2="30"/><line opacity="0.2" x1="383.5524554063536" x2="383.5524554063536" y1="0" y2="30"/><line opacity="0.2" x1="344.72014517961543" x2="344.72014517961543" y1="0" y2="30"/><line opacity="0.2" x1="371.28093201110454" x2="371.28093201110454" y1="0" y2="30"/><line opacity="0.2" x1="412.74764678074933" x2="412.74764678074933" y1="0" y2="30"/><line opacity="0.2" x1="179.2543724529283" x2="179.2543724529283" y1="0" y2="30"/><line opacity="0.2" x1="607.8931770982372" x2="607.8931770982372" y1="0" y2="30"/><line opacity="0.2" x1="470.6315189723397" x2="470.6315189723397" y1="0" y2="30"/><line opacity="0.2" x1="430.9505371236844" x2="430.9505371236844" y1="0" y2="30"/><line opacity="0.2" x1="360.31894975962575" x2="360.31894975962575" y1="0" y2="30"/><line opacity="0.2" x1="410.6444072899547" x2="410.6444072899547" y1="0" y2="30"/><line opacity="0.2" x1="393.2188934048881" x2="393.2188934048881" y1="0" y2="30"/><line opacity="0.2" x1="384.7974002357374" x2="384.7974002357374" y1="0" y2="30"/><line opacity="0.2" x1="253.96684157182307" x2="253.96684157182307" y1="0" y2="30"/><line opacity="0.2" x1="320.86922034663297" x2="320.86922034663297" y1="0" y2="30"/><line opacity="0.2" x1="405.1855108245585" x2="405.1855108245585" y1="0" y2="30"/><line opacity="0.2" x1="278.39993717390615" x2="278.39993717390615" y1="0" y2="30"/><line opacity="0.2" x1="188.33554769692174" x2="188.33554769692174" y1="0" y2="30"/><line opacity="0.2" x1="294.17737825433085" x2="294.17737825433085" y1="0" y2="30"/><line opacity="0.2" x1="252.88857144038013" x2="252.88857144038013" y1="0" y2="30"/><line opacity="0.2" x1="576.4071334828818" x2="576.4071334828818" y1="0" y2="30"/><line opacity="0.2" x1="448.91604130476065" x2="448.91604130476065" y1="0" y2="30"/><line opacity="0.2" x1="211.53572906220788" x2="211.53572906220788" y1="0" y2="30"/><line opacity="0.2" x1="410.0998738000945" x2="410.0998738000945" y1="0" y2="30"/><line opacity="0.2" x1="395.13197267166095" x2="395.13197267166095" y1="0" y2="30"/><line opacity="0.2" x1="267.8118713081034" x2="267.8118713081034" y1="0" y2="30"/><line opacity="0.2" x1="335.96866377072445" x2="335.96866377072445" y1="0" y2="30"/><line opacity="0.2" x1="372.74655842281766" x2="372.74655842281766" y1="0" y2="30"/><line opacity="0.2" x1="247.48914607082392" x2="247.48914607082392" y1="0" y2="30"/><line opacity="0.2" x1="446.9966846046651" x2="446.9966846046651" y1="0" y2="30"/><line opacity="0.2" x1="347.27598679761564" x2="347.27598679761564" y1="0" y2="30"/><line opacity="0.2" x1="315.1293347001497" x2="315.1293347001497" y1="0" y2="30"/><line opacity="0.2" x1="363.06380017335096" x2="363.06380017335096" y1="0" y2="30"/><line opacity="0.2" x1="125.28711018385644" x2="125.28711018385644" y1="0" y2="30"/><line opacity="0.2" x1="419.5586576744968" x2="419.5586576744968" y1="0" y2="30"/><line opacity="0.2" x1="492.66838320981" x2="492.66838320981" y1="0" y2="30"/><line opacity="0.2" x1="379.3186517124637" x2="379.3186517124637" y1="0" y2="30"/><line opacity="0.2" x1="222.05188613977813" x2="222.05188613977813" y1="0" y2="30"/><line opacity="0.2" x1="308.59530207979753" x2="308.59530207979753" y1="0" y2="30"/><line opacity="0.2" x1="449.2091866574551" x2="449.2091866574551" y1="0" y2="30"/><line opacity="0.2" x1="458.4240146876157" x2="458.4240146876157" y1="0" y2="30"/><line opacity="0.2" x1="208.72879902555746" x2="208.72879902555746" y1="0" y2="30"/><line opacity="0.2" x1="336.0287332635265" x2="336.0287332635265" y1="0" y2="30"/><line opacity="0.2" x1="353.83727643934577" x2="353.83727643934577" y1="0" y2="30"/><line opacity="0.2" x1="439.7577078334375" x2="439.7577078334375" y1="0" y2="30"/><line opacity="0.2" x1="389.9233218038204" x2="389.9233218038204" y1="0" y2="30"/><line opacity="0.2" x1="332.90376220198965" x2="332.90376220198965" y1="0" y2="30"/><line opacity="0.2" x1="215.4194248593373" x2="215.4194248593373" y1="0" y2="30"/><line opacity="0.2" x1="286.547776693722" x2="286.547776693722" y1="0" y2="30"/><line opacity="0.2" x1="230.42512798947018" x2="230.42512798947018" y1="0" y2="30"/><line opacity="0.2" x1="351.7819569365601" x2="351.7819569365601" y1="0" y2="30"/><line opacity="0.2" x1="286.0260437044458" x2="286.0260437044458" y1="0" y2="30"/><line opacity="0.2" x1="332.3063138964082" x2="332.3063138964082" y1="0" y2="30"/><line opacity="0.2" x1="329.44192798937365" x2="329.44192798937365" y1="0" y2="30"/><line opacity="0.2" x1="353.6098647999965" x2="353.6098647999965" y1="0" y2="30"/><line opacity="0.2" x1="370.82239245355464" x2="370.82239245355464" y1="0" y2="30"/><line opacity="0.2" x1="327.0174336960369" x2="327.0174336960369" y1="0" y2="30"/><line opacity="0.2" x1="332.53529955040483" x2="332.53529955040483" y1="0" y2="30"/><line opacity="0.2" x1="367.8306892572499" x2="367.8306892572499" y1="0" y2="30"/><line opacity="0.2" x1="519.6086770812949" x2="519.6086770812949" y1="0" y2="30"/><line opacity="0.2" x1="282.52700400051555" x2="282.52700400051555" y1="0" y2="30"/><line opacity="0.2" x1="252.11309063868677" x2="252.11309063868677" y1="0" y2="30"/><line opacity="0.2" x1="289.8467779601132" x2="289.8467779601132" y1="0" y2="30"/><line opacity="0.2" x1="300.9236442014673" x2="300.9236442014673" y1="0" y2="30"/><line opacity="0.2" x1="361.46686220356776" x2="361.46686220356776" y1="0" y2="30"/><line opacity="0.2" x1="225.61089923285257" x2="225.61089923285257" y1="0" y2="30"/><line opacity="0.2" x1="312.4131704162729" x2="312.4131704162729" y1="0" y2="30"/><line opacity="0.2" x1="352.93498811018173" x2="352.93498811018173" y1="0" y2="30"/><line opacity="0.2" x1="552.3617774994266" x2="552.3617774994266" y1="0" y2="30"/><line opacity="0.2" x1="429.2874345085501" x2="429.2874345085501" y1="0" y2="30"/><line opacity="0.2" x1="244.11332036771358" x2="244.11332036771358" y1="0" y2="30"/><line opacity="0.2" x1="308.08880130724634" x2="308.08880130724634" y1="0" y2="30"/><line opacity="0.2" x1="152.55624748382962" x2="152.55624748382962" y1="0" y2="30"/><line opacity="0.2" x1="334.10324307268235" x2="334.10324307268235" y1="0" y2="30"/><line opacity="0.2" x1="475.82610046185573" x2="475.82610046185573" y1="0" y2="30"/><line opacity="0.2" x1="376.0502136252551" x2="376.0502136252551" y1="0" y2="30"/><line opacity="0.2" x1="339.74695862659416" x2="339.74695862659416" y1="0" y2="30"/><line opacity="0.2" x1="233.17687752659657" x2="233.17687752659657" y1="0" y2="30"/><line opacity="0.2" x1="194.6045561379893" x2="194.6045561379893" y1="0" y2="30"/><line opacity="0.2" x1="414.0651332491863" x2="414.0651332491863" y1="0" y2="30"/><line opacity="0.2" x1="322.34314951412824" x2="322.34314951412824" y1="0" y2="30"/><line opacity="0.2" x1="283.10504252126" x2="283.10504252126" y1="0" y2="30"/><line opacity="0.2" x1="215.4813252491857" x2="215.4813252491857" y1="0" y2="30"/><line opacity="0.2" x1="323.372994701635" x2="323.372994701635" y1="0" y2="30"/><line opacity="0.2" x1="317.8845980715395" x2="317.8845980715395" y1="0" y2="30"/><line opacity="0.2" x1="292.22430947431724" x2="292.22430947431724" y1="0" y2="30"/><line opacity="0.2" x1="205.0292631645796" x2="205.0292631645796" y1="0" y2="30"/><line opacity="0.2" x1="309.9801331169083" x2="309.9801331169083" y1="0" y2="30"/><line opacity="0.2" x1="465.4290614987243" x2="465.4290614987243" y1="0" y2="30"/><line opacity="0.2" x1="178.84523463665815" x2="178.84523463665815" y1="0" y2="30"/><line opacity="0.2" x1="145.503283685379" x2="145.503283685379" y1="0" y2="30"/><line opacity="0.2" x1="346.1124270340631" x2="346.1124270340631" y1="0" y2="30"/><line opacity="0.2" x1="429.2766827306985" x2="429.2766827306985" y1="0" y2="30"/><line opacity="0.2" x1="330.73896691069905" x2="330.73896691069905" y1="0" y2="30"/><line opacity="0.2" x1="271.2089533123956" x2="271.2089533123956" y1="0" y2="30"/><line opacity="0.2" x1="308.0695835446823" x2="308.0695835446823" y1="0" y2="30"/><line opacity="0.2" x1="302.0847716727981" x2="302.0847716727981" y1="0" y2="30"/><line opacity="0.2" x1="326.708917596642" x2="326.708917596642" y1="0" y2="30"/><line opacity="0.2" x1="290.4634126724464" x2="290.4634126724464" y1="0" y2="30"/><line opacity="0.2" x1="332.95404046345504" x2="332.95404046345504" y1="0" y2="30"/><line opacity="0.2" x1="204.1679231160496" x2="204.1679231160496" y1="0" y2="30"/><line opacity="0.2" x1="323.297729052134" x2="323.297729052134" y1="0" y2="30"/><line opacity="0.2" x1="403.23863767085226" x2="403.23863767085226" y1="0" y2="30"/><line opacity="0.2" x1="361.9485893542123" x2="361.9485893542123" y1="0" y2="30"/><line opacity="0.2" x1="353.8325853599275" x2="353.8325853599275" y1="0" y2="30"/><line opacity="0.2" x1="285.46869623497594" x2="285.46869623497594" y1="0" y2="30"/><line opacity="0.2" x1="281.3271275944435" x2="281.3271275944435" y1="0" y2="30"/><line opacity="0.2" x1="287.1792618464266" x2="287.1792618464266" y1="0" y2="30"/><line opacity="0.2" x1="261.1019358539812" x2="261.1019358539812" y1="0" y2="30"/><line opacity="0.2" x1="337.70834238576515" x2="337.70834238576515" y1="0" y2="30"/><line opacity="0.2" x1="292.1871733498338" x2="292.1871733498338" y1="0" y2="30"/><line opacity="0.2" x1="210.2675579963056" x2="210.2675579963056" y1="0" y2="30"/><line opacity="0.2" x1="292.31018895792107" x2="292.31018895792107" y1="0" y2="30"/><line opacity="0.2" x1="386.64286089677057" x2="386.64286089677057" y1="0" y2="30"/><line opacity="0.2" x1="286.0186469192734" x2="286.0186469192734" y1="0" y2="30"/><line opacity="0.2" x1="273.07174260932476" x2="273.07174260932476" y1="0" y2="30"/><line opacity="0.2" x1="311.1882512574843" x2="311.1882512574843" y1="0" y2="30"/><line opacity="0.2" x1="357.9010319544824" x2="357.9010319544824" y1="0" y2="30"/><line opacity="0.2" x1="249.1005031639227" x2="249.1005031639227" y1="0" y2="30"/><line opacity="0.2" x1="265.22999340048494" x2="265.22999340048494" y1="0" y2="30"/><line opacity="0.2" x1="325.64542004148075" x2="325.64542004148075" y1="0" y2="30"/><line opacity="0.2" x1="298.9973085318329" x2="298.9973085318329" y1="0" y2="30"/><line opacity="0.2" x1="531.2001669595398" x2="531.2001669595398" y1="0" y2="30"/><line opacity="0.2" x1="373.23983511906863" x2="373.23983511906863" y1="0" y2="30"/><line opacity="0.2" x1="276.2542801460281" x2="276.2542801460281" y1="0" y2="30"/><line opacity="0.2" x1="338.21952627334116" x2="338.21952627334116" y1="0" y2="30"/><line opacity="0.2" x1="475.7835050416454" x2="475.7835050416454" y1="0" y2="30"/><line opacity="0.2" x1="178.9054488328182" x2="178.9054488328182" y1="0" y2="30"/><line opacity="0.2" x1="344.0418263913552" x2="344.0418263913552" y1="0" y2="30"/><line opacity="0.2" x1="405.3034078670976" x2="405.3034078670976" y1="0" y2="30"/><line opacity="0.2" x1="304.77055372259673" x2="304.77055372259673" y1="0" y2="30"/><line opacity="0.2" x1="363.9223453359251" x2="363.9223453359251" y1="0" y2="30"/><line opacity="0.2" x1="273.1795107057865" x2="273.1795107057865" y1="0" y2="30"/><line opacity="0.2" x1="334.40311921275895" x2="334.40311921275895" y1="0" y2="30"/><line opacity="0.2" x1="279.11853872043525" x2="279.11853872043525" y1="0" y2="30"/><line opacity="0.2" x1="244.60328900671252" x2="244.60328900671252" y1="0" y2="30"/><line opacity="0.2" x1="212.77166210191015" x2="212.77166210191015" y1="0" y2="30"/><line opacity="0.2" x1="156.51072523014653" x2="156.51072523014653" y1="0" y2="30"/><line opacity="0.2" x1="347.35502619330526" x2="347.35502619330526" y1="0" y2="30"/><line opacity="0.2" x1="159.57019194295313" x2="159.57019194295313" y1="0" y2="30"/><line opacity="0.2" x1="249.39822051861444" x2="249.39822051861444" y1="0" y2="30"/><line opacity="0.2" x1="271.48710749567925" x2="271.48710749567925" y1="0" y2="30"/><line opacity="0.2" x1="325.33662503358823" x2="325.33662503358823" y1="0" y2="30"/><line opacity="0.2" x1="449.20954707193715" x2="449.20954707193715" y1="0" y2="30"/><line opacity="0.2" x1="306.7431939511242" x2="306.7431939511242" y1="0" y2="30"/><line opacity="0.2" x1="266.3390957967209" x2="266.3390957967209" y1="0" y2="30"/><line opacity="0.2" x1="259.0506556406575" x2="259.0506556406575" y1="0" y2="30"/><line opacity="0.2" x1="430.3675142471844" x2="430.3675142471844" y1="0" y2="30"/><line opacity="0.2" x1="327.8408754550751" x2="327.8408754550751" y1="0" y2="30"/><line opacity="0.2" x1="298.78959473440204" x2="298.78959473440204" y1="0" y2="30"/><line opacity="0.2" x1="291.89429651198424" x2="291.89429651198424" y1="0" y2="30"/><line opacity="0.2" x1="463.1873411290947" x2="463.1873411290947" y1="0" y2="30"/><line opacity="0.2" x1="196.0462052355454" x2="196.0462052355454" y1="0" y2="30"/><line opacity="0.2" x1="433.2988902066304" x2="433.2988902066304" y1="0" y2="30"/><line opacity="0.2" x1="138.32867034167157" x2="138.32867034167157" y1="0" y2="30"/><line opacity="0.2" x1="351.160599035921" x2="351.160599035921" y1="0" y2="30"/><line opacity="0.2" x1="233.19376656792565" x2="233.19376656792565" y1="0" y2="30"/><line opacity="0.2" x1="296.5117683505607" x2="296.5117683505607" y1="0" y2="30"/><line opacity="0.2" x1="362.35059549550624" x2="362.35059549550624" y1="0" y2="30"/><line opacity="0.2" x1="255.89263964397537" x2="255.89263964397537" y1="0" y2="30"/><line opacity="0.2" x1="375.53398334947667" x2="375.53398334947667" y1="0" y2="30"/><line opacity="0.2" x1="314.8266706146063" x2="314.8266706146063" y1="0" y2="30"/><line opacity="0.2" x1="123.40298247582871" x2="123.40298247582871" y1="0" y2="30"/><line opacity="0.2" x1="402.3008065556475" x2="402.3008065556475" y1="0" y2="30"/><line opacity="0.2" x1="225.2449185470531" x2="225.2449185470531" y1="0" y2="30"/><line opacity="0.2" x1="308.5170675572075" x2="308.5170675572075" y1="0" y2="30"/><line opacity="0.2" x1="32.77619043100515" x2="32.77619043100515" y1="0" y2="30"/><line opacity="0.2" x1="256.4287896404412" x2="256.4287896404412" y1="0" y2="30"/><line opacity="0.2" x1="376.89556185046666" x2="376.89556185046666" y1="0" y2="30"/><line opacity="0.2" x1="466.3661285110486" x2="466.3661285110486" y1="0" y2="30"/><line opacity="0.2" x1="232.09237741768877" x2="232.09237741768877" y1="0" y2="30"/><line opacity="0.2" x1="314.0403126551427" x2="314.0403126551427" y1="0" y2="30"/><line opacity="0.2" x1="335.3101705287087" x2="335.3101705287087" y1="0" y2="30"/><line opacity="0.2" x1="301.5691237442354" x2="301.5691237442354" y1="0" y2="30"/><line opacity="0.2" x1="326.17465744658426" x2="326.17465744658426" y1="0" y2="30"/><line opacity="0.2" x1="439.86006421189757" x2="439.86006421189757" y1="0" y2="30"/><line opacity="0.2" x1="345.18931853467143" x2="345.18931853467143" y1="0" y2="30"/><line opacity="0.2" x1="383.1143712297986" x2="383.1143712297986" y1="0" y2="30"/><line opacity="0.2" x1="236.67643331946206" x2="236.67643331946206" y1="0" y2="30"/><line opacity="0.2" x1="318.302903484711" x2="318.302903484711" y1="0" y2="30"/><line opacity="0.2" x1="420.7155092220404" x2="420.7155092220404" y1="0" y2="30"/><line opacity="0.2" x1="312.7004708325448" x2="312.7004708325448" y1="0" y2="30"/><line opacity="0.2" x1="230.46687089169916" x2="230.46687089169916" y1="0" y2="30"/><line opacity="0.2" x1="323.4667667408872" x2="323.4667667408872" y1="0" y2="30"/><line opacity="0.2" x1="241.89504178550675" x2="241.89504178550675" y1="0" y2="30"/><line opacity="0.2" x1="404.59643164711485" x2="404.59643164711485" y1="0" y2="30"/><line opacity="0.2" x1="393.057003616298" x2="393.057003616298" y1="0" y2="30"/><line opacity="0.2" x1="272.2746455055628" x2="272.2746455055628" y1="0" y2="30"/><line opacity="0.2" x1="271.70137988181324" x2="271.70137988181324" y1="0" y2="30"/><line opacity="0.2" x1="190.17872399030057" x2="190.17872399030057" y1="0" y2="30"/><line opacity="0.2" x1="112.58166087035721" x2="112.58166087035721" y1="0" y2="30"/><line opacity="0.2" x1="381.17267405952236" x2="381.17267405952236" y1="0" y2="30"/><line opacity="0.2" x1="234.06662541324127" x2="234.06662541324127" y1="0" y2="30"/><line opacity="0.2" x1="393.0070756700632" x2="393.0070756700632" y1="0" y2="30"/><line opacity="0.2" x1="496.79124754677287" x2="496.79124754677287" y1="0" y2="30"/><line opacity="0.2" x1="338.28255522411143" x2="338.28255522411143" y1="0" y2="30"/><line opacity="0.2" x1="390.24879138205296" x2="390.24879138205296" y1="0" y2="30"/><line opacity="0.2" x1="343.1683955092057" x2="343.1683955092057" y1="0" y2="30"/><line opacity="0.2" x1="345.69746938238745" x2="345.69746938238745" y1="0" y2="30"/><line opacity="0.2" x1="126.0079407460957" x2="126.0079407460957" y1="0" y2="30"/><line opacity="0.2" x1="335.3614433550395" x2="335.3614433550395" y1="0" y2="30"/><line opacity="0.2" x1="472.64976332680624" x2="472.64976332680624" y1="0" y2="30"/><line opacity="0.2" x1="318.8808014290291" x2="318.8808014290291" y1="0" y2="30"/><line opacity="0.2" x1="445.84819726246855" x2="445.84819726246855" y1="0" y2="30"/><line opacity="0.2" x1="349.2715925592451" x2="349.2715925592451" y1="0" y2="30"/><line opacity="0.2" x1="322.7497055168441" x2="322.7497055168441" y1="0" y2="30"/><line opacity="0.2" x1="327.8074499380546" x2="327.8074499380546" y1="0" y2="30"/><line opacity="0.2" x1="280.02206058893313" x2="280.02206058893313" y1="0" y2="30"/><line opacity="0.2" x1="345.5612636385169" x2="345.5612636385169" y1="0" y2="30"/><line opacity="0.2" x1="297.1114327935499" x2="297.1114327935499" y1="0" y2="30"/><line opacity="0.2" x1="329.2688521424789" x2="329.2688521424789" y1="0" y2="30"/><line opacity="0.2" x1="227.97488918282625" x2="227.97488918282625" y1="0" y2="30"/><line opacity="0.2" x1="444.5623783059819" x2="444.5623783059819" y1="0" y2="30"/><line opacity="0.2" x1="426.3337832799593" x2="426.3337832799593" y1="0" y2="30"/><line opacity="0.2" x1="309.77403296265663" x2="309.77403296265663" y1="0" y2="30"/><line opacity="0.2" x1="235.0446407124816" x2="235.0446407124816" y1="0" y2="30"/><line opacity="0.2" x1="224.8866092199582" x2="224.8866092199582" y1="0" y2="30"/><line opacity="0.2" x1="400.1175895272786" x2="400.1175895272786" y1="0" y2="30"/><line opacity="0.2" x1="465.0557451458954" x2="465.0557451458954" y1="0" y2="30"/><line opacity="0.2" x1="234.07046451147758" x2="234.07046451147758" y1="0" y2="30"/><line opacity="0.2" x1="236.38644426168156" x2="236.38644426168156" y1="0" y2="30"/><line opacity="0.2" x1="446.296563876626" x2="446.296563876626" y1="0" y2="30"/><line opacity="0.2" x1="293.1819133515471" x2="293.1819133515471" y1="0" y2="30"/><line opacity="0.2" x1="557.282298264128" x2="557.282298264128" y1="0" y2="30"/><line opacity="0.2" x1="293.17566978981927" x2="293.17566978981927" y1="0" y2="30"/><line opacity="0.2" x1="259.01802930379876" x2="259.01802930379876" y1="0" y2="30"/><line opacity="0.2" x1="228.73161430906796" x2="228.73161430906796" y1="0" y2="30"/><line opacity="0.2" x1="115.56186746503809" x2="115.56186746503809" y1="0" y2="30"/><line opacity="0.2" x1="452.9332290384206" x2="452.9332290384206" y1="0" y2="30"/><line opacity="0.2" x1="310.8854362309039" x2="310.8854362309039" y1="0" y2="30"/><line opacity="0.2" x1="248.85617958012688" x2="248.85617958012688" y1="0" y2="30"/><line opacity="0.2" x1="167.09464486834455" x2="167.09464486834455" y1="0" y2="30"/><line opacity="0.2" x1="436.18412617045556" x2="436.18412617045556" y1="0" y2="30"/><line opacity="0.2" x1="278.13944523005813" x2="278.13944523005813" y1="0" y2="30"/><line opacity="0.2" x1="353.77954876092343" x2="353.77954876092343" y1="0" y2="30"/><line opacity="0.2" x1="438.42306672845444" x2="438.42306672845444" y1="0" y2="30"/><line opacity="0.2" x1="408.4486881914724" x2="408.4486881914724" y1="0" y2="30"/><line opacity="0.2" x1="417.45929818744236" x2="417.45929818744236" y1="0" y2="30"/><line opacity="0.2" x1="387.43757721734534" x2="387.43757721734534" y1="0" y2="30"/><line opacity="0.2" x1="221.49881710158309" x2="221.49881710158309" y1="0" y2="30"/><line opacity="0.2" x1="376.27901312153244" x2="376.27901312153244" y1="0" y2="30"/><line opacity="0.2" x1="429.4139163602781" x2="429.4139163602781" y1="0" y2="30"/><line opacity="0.2" x1="279.32215263534806" x2="279.32215263534806" y1="0" y2="30"/><line opacity="0.2" x1="365.2296645030458" x2="365.2296645030458" y1="0" y2="30"/><line opacity="0.2" x1="371.7212683754851" x2="371.7212683754851" y1="0" y2="30"/><line opacity="0.2" x1="326.55010495638504" x2="326.55010495638504" y1="0" y2="30"/><line opacity="0.2" x1="354.9489593772839" x2="354.9489593772839" y1="0" y2="30"/><line opacity="0.2" x1="377.7142258737895" x2="377.7142258737895" y1="0" y2="30"/><line opacity="0.2" x1="436.5979606048801" x2="436.5979606048801" y1="0" y2="30"/><line opacity="0.2" x1="182.55711772827937" x2="182.55711772827937" y1="0" y2="30"/><line opacity="0.2" x1="261.4302563794143" x2="261.4302563794143" y1="0" y2="30"/><line opacity="0.2" x1="298.45120235007226" x2="298.45120235007226" y1="0" y2="30"/><line opacity="0.2" x1="414.08483680758405" x2="414.08483680758405" y1="0" y2="30"/><line opacity="0.2" x1="451.2557810224653" x2="451.2557810224653" y1="0" y2="30"/><line opacity="0.2" x1="343.36004275004797" x2="343.36004275004797" y1="0" y2="30"/><line opacity="0.2" x1="515.4635785597383" x2="515.4635785597383" y1="0" y2="30"/><line opacity="0.2" x1="275.4016649000003" x2="275.4016649000003" y1="0" y2="30"/><line opacity="0.2" x1="274.67834742274437" x2="274.67834742274437" y1="0" y2="30"/><line opacity="0.2" x1="350.5742536695952" x2="350.5742536695952" y1="0" y2="30"/><line opacity="0.2" x1="248.55305768815003" x2="248.55305768815003" y1="0" y2="30"/><line opacity="0.2" x1="277.08210360735495" x2="277.08210360735495" y1="0" y2="30"/><line opacity="0.2" x1="365.3061026871535" x2="365.3061026871535" y1="0" y2="30"/><line opacity="0.2" x1="263.112319872081" x2="263.112319872081" y1="0" y2="30"/><line opacity="0.2" x1="435.1596697326666" x2="435.1596697326666" y1="0" y2="30"/><line opacity="0.2" x1="243.10240287101968" x2="243.10240287101968" y1="0" y2="30"/><line opacity="0.2" x1="308.47388012109974" x2="308.47388012109974" y1="0" y2="30"/><line opacity="0.2" x1="433.72355606277057" x2="433.72355606277057" y1="0" y2="30"/><line opacity="0.2" x1="322.0477441302214" x2="322.0477441302214" y1="0" y2="30"/><line opacity="0.2" x1="179.85537085384436" x2="179.85537085384436" y1="0" y2="30"/><line opacity="0.2" x1="302.1623076762422" x2="302.1623076762422" y1="0" y2="30"/><line opacity="0.2" x1="242.4004999365628" x2="242.4004999365628" y1="0" y2="30"/><line opacity="0.2" x1="174.48031193330334" x2="174.48031193330334" y1="0" y2="30"/><line opacity="0.2" x1="206.7392870328482" x2="206.7392870328482" y1="0" y2="30"/><line opacity="0.2" x1="262.0731221199442" x2="262.0731221199442" y1="0" y2="30"/><line opacity="0.2" x1="248.18847904664756" x2="248.18847904664756" y1="0" y2="30"/><line opacity="0.2" x1="317.08554576720377" x2="317.08554576720377" y1="0" y2="30"/><line opacity="0.2" x1="200.4595597530115" x2="200.4595597530115" y1="0" y2="30"/><line opacity="0.2" x1="412.81459074755" x2="412.81459074755" y1="0" y2="30"/><line opacity="0.2" x1="319.35405026346456" x2="319.35405026346456" y1="0" y2="30"/><line opacity="0.2" x1="298.71789252539776" x2="298.71789252539776" y1="0" y2="30"/><line opacity="0.2" x1="510.2887488881247" x2="510.2887488881247" y1="0" y2="30"/><line opacity="0.2" x1="364.1817839027772" x2="364.1817839027772" y1="0" y2="30"/><line opacity="0.2" x1="387.75250742268895" x2="387.75250742268895" y1="0" y2="30"/><line opacity="0.2" x1="372.5920889771628" x2="372.5920889771628" y1="0" y2="30"/><line opacity="0.2" x1="367.3621557158297" x2="367.3621557158297" y1="0" y2="30"/><line opacity="0.2" x1="325.85402264282334" x2="325.85402264282334" y1="0" y2="30"/><line opacity="0.2" x1="267.4391536963986" x2="267.4391536963986" y1="0" y2="30"/><line opacity="0.2" x1="402.80763557255284" x2="402.80763557255284" y1="0" y2="30"/><line opacity="0.2" x1="242.34521568052227" x2="242.34521568052227" y1="0" y2="30"/><line opacity="0.2" x1="268.5915940440632" x2="268.5915940440632" y1="0" y2="30"/><line opacity="0.2" x1="284.7566498583734" x2="284.7566498583734" y1="0" y2="30"/><line opacity="0.2" x1="392.2375007496168" x2="392.2375007496168" y1="0" y2="30"/><line opacity="0.2" x1="268.9726828452671" x2="268.9726828452671" y1="0" y2="30"/><line opacity="0.2" x1="237.73452815863453" x2="237.73452815863453" y1="0" y2="30"/><line opacity="0.2" x1="246.32173057839458" x2="246.32173057839458" y1="0" y2="30"/><line opacity="0.2" x1="379.6008724644006" x2="379.6008724644006" y1="0" y2="30"/><line opacity="0.2" x1="340.815225634571" x2="340.815225634571" y1="0" y2="30"/><line opacity="0.2" x1="240.86427192653716" x2="240.86427192653716" y1="0" y2="30"/><line opacity="0.2" x1="364.3741452043777" x2="364.3741452043777" y1="0" y2="30"/><line opacity="0.2" x1="315.76712974208596" x2="315.76712974208596" y1="0" y2="30"/><line opacity="0.2" x1="385.460645027798" x2="385.460645027798" y1="0" y2="30"/><line opacity="0.2" x1="237.760731338607" x2="237.760731338607" y1="0" y2="30"/><line opacity="0.2" x1="336.7576256641652" x2="336.7576256641652" y1="0" y2="30"/><line opacity="0.2" x1="443.3106430827104" x2="443.3106430827104" y1="0" y2="30"/><line opacity="0.2" x1="453.00657806178714" x2="453.00657806178714" y1="0" y2="30"/><line opacity="0.2" x1="335.96294230210736" x2="335.96294230210736" y1="0" y2="30"/><line opacity="0.2" x1="274.49194370752707" x2="274.49194370752707" y1="0" y2="30"/><line opacity="0.2" x1="266.0131586374732" x2="266.0131586374732" y1="0" y2="30"/><line opacity="0.2" x1="197.13902030684002" x2="197.13902030684002" y1="0" y2="30"/><line opacity="0.2" x1="212.1779056030128" x2="212.1779056030128" y1="0" y2="30"/><line opacity="0.2" x1="366.9951415541527" x2="366.9951415541527" y1="0" y2="30"/><line opacity="0.2" x1="258.74546067814293" x2="258.74546067814293" y1="0" y2="30"/><line opacity="0.2" x1="238.39601746725126" x2="238.39601746725126" y1="0" y2="30"/><line opacity="0.2" x1="358.2824968264923" x2="358.2824968264923" y1="0" y2="30"/><line opacity="0.2" x1="589.093062131216" x2="589.093062131216" y1="0" y2="30"/><line opacity="0.2" x1="209.74147922618988" x2="209.74147922618988" y1="0" y2="30"/><line opacity="0.2" x1="225.43989544506888" x2="225.43989544506888" y1="0" y2="30"/><line opacity="0.2" x1="417.7422320783695" x2="417.7422320783695" y1="0" y2="30"/><line opacity="0.2" x1="344.0794643114643" x2="344.0794643114643" y1="0" y2="30"/><line opacity="0.2" x1="446.6041088108247" x2="446.6041088108247" y1="0" y2="30"/><line opacity="0.2" x1="186.78652273222087" x2="186.78652273222087" y1="0" y2="30"/><line opacity="0.2" x1="384.15021835347835" x2="384.15021835347835" y1="0" y2="30"/><line opacity="0.2" x1="267.9744900455214" x2="267.9744900455214" y1="0" y2="30"/><line opacity="0.2" x1="203.8424761077073" x2="203.8424761077073" y1="0" y2="30"/><line opacity="0.2" x1="309.8974148530787" x2="309.8974148530787" y1="0" y2="30"/><line opacity="0.2" x1="385.81456679127365" x2="385.81456679127365" y1="0" y2="30"/><line opacity="0.2" x1="276.8945152206987" x2="276.8945152206987" y1="0" y2="30"/><line opacity="0.2" x1="343.0023649265452" x2="343.0023649265452" y1="0" y2="30"/><line opacity="0.2" x1="360.49682803739836" x2="360.49682803739836" y1="0" y2="30"/><line opacity="0.2" x1="244.3470488543474" x2="244.3470488543474" y1="0" y2="30"/><line opacity="0.2" x1="325.0725339526976" x2="325.0725339526976" y1="0" y2="30"/><line opacity="0.2" x1="336.4400770297887" x2="336.4400770297887" y1="0" y2="30"/><line opacity="0.2" x1="262.0897141322543" x2="262.0897141322543" y1="0" y2="30"/><line opacity="0.2" x1="373.8446070348624" x2="373.8446070348624" y1="0" y2="30"/><line opacity="0.2" x1="429.48970197384244" x2="429.48970197384244" y1="0" y2="30"/><line opacity="0.2" x1="178.0872681348042" x2="178.0872681348042" y1="0" y2="30"/><line opacity="0.2" x1="288.1324968428353" x2="288.1324968428353" y1="0" y2="30"/><line opacity="0.2" x1="189.34779857906216" x2="189.34779857906216" y1="0" y2="30"/><line opacity="0.2" x1="230.74562209473171" x2="230.74562209473171" y1="0" y2="30"/><line opacity="0.2" x1="248.24708350454125" x2="248.24708350454125" y1="0" y2="30"/><line opacity="0.2" x1="384.66723575923527" x2="384.66723575923527" y1="0" y2="30"/><line opacity="0.2" x1="375.1584187424862" x2="375.1584187424862" y1="0" y2="30"/><line opacity="0.2" x1="366.7147202077791" x2="366.7147202077791" y1="0" y2="30"/><line opacity="0.2" x1="381.61688886420313" x2="381.61688886420313" y1="0" y2="30"/><line opacity="0.2" x1="302.9018845473136" x2="302.9018845473136" y1="0" y2="30"/><line opacity="0.2" x1="250.46148522811885" x2="250.46148522811885" y1="0" y2="30"/><line opacity="0.2" x1="158.20206035128092" x2="158.20206035128092" y1="0" y2="30"/><line opacity="0.2" x1="375.9872143874123" x2="375.9872143874123" y1="0" y2="30"/><line opacity="0.2" x1="140.37115631890745" x2="140.37115631890745" y1="0" y2="30"/><line opacity="0.2" x1="183.42813176915513" x2="183.42813176915513" y1="0" y2="30"/><line opacity="0.2" x1="262.92523674514166" x2="262.92523674514166" y1="0" y2="30"/><line opacity="0.2" x1="204.32812315492458" x2="204.32812315492458" y1="0" y2="30"/><line opacity="0.2" x1="262.5214098101999" x2="262.5214098101999" y1="0" y2="30"/><line opacity="0.2" x1="321.55695788975765" x2="321.55695788975765" y1="0" y2="30"/><line opacity="0.2" x1="406.05014989611726" x2="406.05014989611726" y1="0" y2="30"/><line opacity="0.2" x1="267.2217168704362" x2="267.2217168704362" y1="0" y2="30"/><line opacity="0.2" x1="345.3567861839678" x2="345.3567861839678" y1="0" y2="30"/><line opacity="0.2" x1="433.85011909389425" x2="433.85011909389425" y1="0" y2="30"/><line opacity="0.2" x1="346.5111006268692" x2="346.5111006268692" y1="0" y2="30"/><line opacity="0.2" x1="436.3907707990725" x2="436.3907707990725" y1="0" y2="30"/><line opacity="0.2" x1="374.1722287207551" x2="374.1722287207551" y1="0" y2="30"/><line opacity="0.2" x1="312.81744380734654" x2="312.81744380734654" y1="0" y2="30"/><line opacity="0.2" x1="402.7956828547391" x2="402.7956828547391" y1="0" y2="30"/><line opacity="0.2" x1="239.9486447179293" x2="239.9486447179293" y1="0" y2="30"/><line opacity="0.2" x1="342.33113829886594" x2="342.33113829886594" y1="0" y2="30"/><line opacity="0.2" x1="196.95566458469142" x2="196.95566458469142" y1="0" y2="30"/><line opacity="0.2" x1="375.2929118550717" x2="375.2929118550717" y1="0" y2="30"/><line opacity="0.2" x1="620" x2="620" y1="0" y2="30"/><line opacity="0.2" x1="278.29607015852457" x2="278.29607015852457" y1="0" y2="30"/><line opacity="0.2" x1="361.5270632903811" x2="361.5270632903811" y1="0" y2="30"/><line opacity="0.2" x1="236.94600011744234" x2="236.94600011744234" y1="0" y2="30"/><line opacity="0.2" x1="322.77663546109574" x2="322.77663546109574" y1="0" y2="30"/><line opacity="0.2" x1="337.83032328032226" x2="337.83032328032226" y1="0" y2="30"/><line opacity="0.2" x1="447.18524753238745" x2="447.18524753238745" y1="0" y2="30"/><line opacity="0.2" x1="263.9100721998529" x2="263.9100721998529" y1="0" y2="30"/><line opacity="0.2" x1="215.20084124871792" x2="215.20084124871792" y1="0" y2="30"/><line opacity="0.2" x1="283.66399406746723" x2="283.66399406746723" y1="0" y2="30"/><line opacity="0.2" x1="453.15724273836724" x2="453.15724273836724" y1="0" y2="30"/><line opacity="0.2" x1="352.89299242577084" x2="352.89299242577084" y1="0" y2="30"/><line opacity="0.2" x1="311.3927320916473" x2="311.3927320916473" y1="0" y2="30"/><line opacity="0.2" x1="308.818105337649" x2="308.818105337649" y1="0" y2="30"/><line opacity="0.2" x1="462.6898485421353" x2="462.6898485421353" y1="0" y2="30"/><line opacity="0.2" x1="410.88632975428544" x2="410.88632975428544" y1="0" y2="30"/><line opacity="0.2" x1="90.10058332519812" x2="90.10058332519812" y1="0" y2="30"/><line opacity="0.2" x1="228.97157300500731" x2="228.97157300500731" y1="0" y2="30"/><line opacity="0.2" x1="413.3258856297078" x2="413.3258856297078" y1="0" y2="30"/><line opacity="0.2" x1="254.30643535651174" x2="254.30643535651174" y1="0" y2="30"/><line opacity="0.2" x1="509.7872946197683" x2="509.7872946197683" y1="0" y2="30"/><line opacity="0.2" x1="252.38259295996033" x2="252.38259295996033" y1="0" y2="30"/><line opacity="0.2" x1="484.4700850943912" x2="484.4700850943912" y1="0" y2="30"/><line opacity="0.2" x1="130.5817192149639" x2="130.5817192149639" y1="0" y2="30"/><line opacity="0.2" x1="280.9778152894148" x2="280.9778152894148" y1="0" y2="30"/><line opacity="0.2" x1="234.72056928691507" x2="234.72056928691507" y1="0" y2="30"/><line opacity="0.2" x1="212.78474929366382" x2="212.78474929366382" y1="0" y2="30"/><line opacity="0.2" x1="222.6940941678409" x2="222.6940941678409" y1="0" y2="30"/><line opacity="0.2" x1="268.8830510488704" x2="268.8830510488704" y1="0" y2="30"/><line opacity="0.2" x1="345.4087171487611" x2="345.4087171487611" y1="0" y2="30"/><line opacity="0.2" x1="365.63987806167466" x2="365.63987806167466" y1="0" y2="30"/><line opacity="0.2" x1="315.49990991746347" x2="315.49990991746347" y1="0" y2="30"/><line opacity="0.2" x1="110.2592222308042" x2="110.2592222308042" y1="0" y2="30"/><line opacity="0.2" x1="478.1570424209189" x2="478.1570424209189" y1="0" y2="30"/><line opacity="0.2" x1="323.90595912866956" x2="323.90595912866956" y1="0" y2="30"/><line opacity="0.2" x1="426.56594226877957" x2="426.56594226877957" y1="0" y2="30"/><line opacity="0.2" x1="186.26872734119408" x2="186.26872734119408" y1="0" y2="30"/><line opacity="0.2" x1="318.1438273009075" x2="318.1438273009075" y1="0" y2="30"/><line opacity="0.2" x1="397.4064427177288" x2="397.4064427177288" y1="0" y2="30"/><line opacity="0.2" x1="269.6948933016323" x2="269.6948933016323" y1="0" y2="30"/><line opacity="0.2" x1="220.84945975703795" x2="220.84945975703795" y1="0" y2="30"/><line opacity="0.2" x1="225.2413243070689" x2="225.2413243070689" y1="0" y2="30"/><line opacity="0.2" x1="344.7372976839319" x2="344.7372976839319" y1="0" y2="30"/><line opacity="0.2" x1="182.51624775469594" x2="182.51624775469594" y1="0" y2="30"/><line opacity="0.2" x1="437.3129086483687" x2="437.3129086483687" y1="0" y2="30"/><line opacity="0.2" x1="277.3904046291658" x2="277.3904046291658" y1="0" y2="30"/><line opacity="0.2" x1="440.14361852699784" x2="440.14361852699784" y1="0" y2="30"/><line opacity="0.2" x1="339.19500667749094" x2="339.19500667749094" y1="0" y2="30"/><line opacity="0.2" x1="349.6505176074754" x2="349.6505176074754" y1="0" y2="30"/><line opacity="0.2" x1="271.89775573748125" x2="271.89775573748125" y1="0" y2="30"/><line opacity="0.2" x1="281.011863985512" x2="281.011863985512" y1="0" y2="30"/><line opacity="0.2" x1="421.17449677228007" x2="421.17449677228007" y1="0" y2="30"/><line opacity="0.2" x1="415.28033391821344" x2="415.28033391821344" y1="0" y2="30"/><line opacity="0.2" x1="151.82125838984928" x2="151.82125838984928" y1="0" y2="30"/><line opacity="0.2" x1="307.23355991535084" x2="307.23355991535084" y1="0" y2="30"/><line opacity="0.2" x1="324.37735126061983" x2="324.37735126061983" y1="0" y2="30"/><line opacity="0.2" x1="290.7895957240148" x2="290.7895957240148" y1="0" y2="30"/><line opacity="0.2" x1="279.28174924974803" x2="279.28174924974803" y1="0" y2="30"/><line opacity="0.2" x1="365.3110834898332" x2="365.3110834898332" y1="0" y2="30"/><line opacity="0.2" x1="265.0023495705138" x2="265.0023495705138" y1="0" y2="30"/><line opacity="0.2" x1="288.8749525232025" x2="288.8749525232025" y1="0" y2="30"/><line opacity="0.2" x1="238.5450388363969" x2="238.5450388363969" y1="0" y2="30"/><line opacity="0.2" x1="334.4797708795903" x2="334.4797708795903" y1="0" y2="30"/><line opacity="0.2" x1="346.1653816747378" x2="346.1653816747378" y1="0" y2="30"/><line opacity="0.2" x1="406.3931997212441" x2="406.3931997212441" y1="0" y2="30"/><line opacity="0.2" x1="238.8478279935603" x2="238.8478279935603" y1="0" y2="30"/><line opacity="0.2" x1="344.7707757130741" x2="344.7707757130741" y1="0" y2="30"/><line opacity="0.2" x1="434.4581205291703" x2="434.4581205291703" y1="0" y2="30"/><line opacity="0.2" x1="328.1306664541849" x2="328.1306664541849" y1="0" y2="30"/><line opacity="0.2" x1="277.9146310966445" x2="277.9146310966445" y1="0" y2="30"/><line opacity="0.2" x1="308.7790253728243" x2="308.7790253728243" y1="0" y2="30"/><line opacity="0.2" x1="337.22106737627524" x2="337.22106737627524" y1="0" y2="30"/><line opacity="0.2" x1="366.07297765493695" x2="366.07297765493695" y1="0" y2="30"/><line opacity="0.2" x1="264.1307837788921" x2="264.1307837788921" y1="0" y2="30"/><line opacity="0.2" x1="290.9403037203149" x2="290.9403037203149" y1="0" y2="30"/><line opacity="0.2" x1="402.6796212044616" x2="402.6796212044616" y1="0" y2="30"/><line opacity="0.2" x1="360.05537064538515" x2="360.05537064538515" y1="0" y2="30"/><line opacity="0.2" x1="439.56492273405934" x2="439.56492273405934" y1="0" y2="30"/><line opacity="0.2" x1="303.4445298453145" x2="303.4445298453145" y1="0" y2="30"/><line opacity="0.2" x1="381.6228313264171" x2="381.6228313264171" y1="0" y2="30"/><line opacity="0.2" x1="518.4313115055629" x2="518.4313115055629" y1="0" y2="30"/><line opacity="0.2" x1="170.10724173535107" x2="170.10724173535107" y1="0" y2="30"/><line opacity="0.2" x1="405.77076342579386" x2="405.77076342579386" y1="0" y2="30"/><line opacity="0.2" x1="411.0591766951147" x2="411.0591766951147" y1="0" y2="30"/><line opacity="0.2" x1="269.95222247799427" x2="269.95222247799427" y1="0" y2="30"/><line opacity="0.2" x1="262.24752323980726" x2="262.24752323980726" y1="0" y2="30"/><line opacity="0.2" x1="347.7549381307311" x2="347.7549381307311" y1="0" y2="30"/><line opacity="0.2" x1="342.28140660293263" x2="342.28140660293263" y1="0" y2="30"/><line opacity="0.2" x1="268.9035952187448" x2="268.9035952187448" y1="0" y2="30"/><line opacity="0.2" x1="380.86631136752413" x2="380.86631136752413" y1="0" y2="30"/><line opacity="0.2" x1="305.9548166900592" x2="305.9548166900592" y1="0" y2="30"/><line opacity="0.2" x1="246.30972975332608" x2="246.30972975332608" y1="0" y2="30"/><line opacity="0.2" x1="348.1744793108238" x2="348.1744793108238" y1="0" y2="30"/><line opacity="0.2" x1="311.2533431013966" x2="311.2533431013966" y1="0" y2="30"/><line opacity="0.2" x1="337.08507872321456" x2="337.08507872321456" y1="0" y2="30"/><line opacity="0.2" x1="458.6016728820141" x2="458.6016728820141" y1="0" y2="30"/><line opacity="0.2" x1="235.68962993570673" x2="235.68962993570673" y1="0" y2="30"/><line opacity="0.2" x1="177.24930588392465" x2="177.24930588392465" y1="0" y2="30"/><line opacity="0.2" x1="314.1954836059481" x2="314.1954836059481" y1="0" y2="30"/><line opacity="0.2" x1="347.8931148637068" x2="347.8931148637068" y1="0" y2="30"/><line opacity="0.2" x1="150.13011474820507" x2="150.13011474820507" y1="0" y2="30"/><line opacity="0.2" x1="424.90284302118835" x2="424.90284302118835" y1="0" y2="30"/><line opacity="0.2" x1="235.14520758949072" x2="235.14520758949072" y1="0" y2="30"/><line opacity="0.2" x1="301.48941658491736" x2="301.48941658491736" y1="0" y2="30"/><line opacity="0.2" x1="379.7703257777981" x2="379.7703257777981" y1="0" y2="30"/><line opacity="0.2" x1="361.47986415633954" x2="361.47986415633954" y1="0" y2="30"/><line opacity="0.2" x1="529.6041483757456" x2="529.6041483757456" y1="0" y2="30"/><line opacity="0.2" x1="501.18286814163037" x2="501.18286814163037" y1="0" y2="30"/><line opacity="0.2" x1="275.09005127821155" x2="275.09005127821155" y1="0" y2="30"/><line opacity="0.2" x1="271.3833894084703" x2="271.3833894084703" y1="0" y2="30"/><line opacity="0.2" x1="469.29162742757137" x2="469.29162742757137" y1="0" y2="30"/><line opacity="0.2" x1="376.14923490504685" x2="376.14923490504685" y1="0" y2="30"/><line opacity="0.2" x1="340.1739981121574" x2="340.1739981121574" y1="0" y2="30"/><line opacity="0.2" x1="391.8961683013235" x2="391.8961683013235" y1="0" y2="30"/><line opacity="0.2" x1="275.2793061088542" x2="275.2793061088542" y1="0" y2="30"/><line opacity="0.2" x1="287.41576088941645" x2="287.41576088941645" y1="0" y2="30"/><line opacity="0.2" x1="455.20976413401735" x2="455.20976413401735" y1="0" y2="30"/><line opacity="0.2" x1="312.20849834869324" x2="312.20849834869324" y1="0" y2="30"/><line opacity="0.2" x1="258.98705909207933" x2="258.98705909207933" y1="0" y2="30"/><line opacity="0.2" x1="254.1629377885533" x2="254.1629377885533" y1="0" y2="30"/><line opacity="0.2" x1="316.9609202059951" x2="316.9609202059951" y1="0" y2="30"/><line opacity="0.2" x1="297.66568188419603" x2="297.66568188419603" y1="0" y2="30"/><line opacity="0.2" x1="287.14450362437594" x2="287.14450362437594" y1="0" y2="30"/><line opacity="0.2" x1="209.5638362576115" x2="209.5638362576115" y1="0" y2="30"/><line opacity="0.2" x1="267.69804263494757" x2="267.69804263494757" y1="0" y2="30"/><line opacity="0.2" x1="435.4903863181159" x2="435.4903863181159" y1="0" y2="30"/><line opacity="0.2" x1="105.2446073735245" x2="105.2446073735245" y1="0" y2="30"/><line opacity="0.2" x1="187.62694251460968" x2="187.62694251460968" y1="0" y2="30"/><line opacity="0.2" x1="250.31596830867224" x2="250.31596830867224" y1="0" y2="30"/><line opacity="0.2" x1="363.4050325418421" x2="363.4050325418421" y1="0" y2="30"/><line opacity="0.2" x1="410.19423962423076" x2="410.19423962423076" y1="0" y2="30"/><line opacity="0.2" x1="203.69752995303588" x2="203.69752995303588" y1="0" y2="30"/><line opacity="0.2" x1="258.1590905741452" x2="258.1590905741452" y1="0" y2="30"/><line opacity="0.2" x1="339.1441908340987" x2="339.1441908340987" y1="0" y2="30"/><line opacity="0.2" x1="384.11486595730617" x2="384.11486595730617" y1="0" y2="30"/><line opacity="0.2" x1="221.21550697824247" x2="221.21550697824247" y1="0" y2="30"/><line opacity="0.2" x1="305.7165208016317" x2="305.7165208016317" y1="0" y2="30"/><line opacity="0.2" x1="191.8518329047527" x2="191.8518329047527" y1="0" y2="30"/><line opacity="0.2" x1="395.60219206775724" x2="395.60219206775724" y1="0" y2="30"/><line opacity="0.2" x1="322.16046140238547" x2="322.16046140238547" y1="0" y2="30"/><line opacity="0.2" x1="287.65567035030097" x2="287.65567035030097" y1="0" y2="30"/><line opacity="0.2" x1="199.11260675809652" x2="199.11260675809652" y1="0" y2="30"/><line opacity="0.2" x1="367.92781239493775" x2="367.92781239493775" y1="0" y2="30"/><line opacity="0.2" x1="357.5350470138088" x2="357.5350470138088" y1="0" y2="30"/><line opacity="0.2" x1="348.37852593361026" x2="348.37852593361026" y1="0" y2="30"/><line opacity="0.2" x1="246.56901899840514" x2="246.56901899840514" y1="0" y2="30"/><line opacity="0.2" x1="416.136399997421" x2="416.136399997421" y1="0" y2="30"/><line opacity="0.2" x1="381.50397689547157" x2="381.50397689547157" y1="0" y2="30"/><line opacity="0.2" x1="380.90971179985956" x2="380.90971179985956" y1="0" y2="30"/><line opacity="0.2" x1="376.88026688529146" x2="376.88026688529146" y1="0" y2="30"/><line opacity="0.2" x1="207.56614322636287" x2="207.56614322636287" y1="0" y2="30"/><line opacity="0.2" x1="79.11775925418533" x2="79.11775925418533" y1="0" y2="30"/><line opacity="0.2" x1="140.20969734412137" x2="140.20969734412137" y1="0" y2="30"/><line opacity="0.2" x1="226.05215812395772" x2="226.05215812395772" y1="0" y2="30"/><line opacity="0.2" x1="367.98501253640853" x2="367.98501253640853" y1="0" y2="30"/><line opacity="0.2" x1="325.7625983355356" x2="325.7625983355356" y1="0" y2="30"/><line opacity="0.2" x1="135.96463720861558" x2="135.96463720861558" y1="0" y2="30"/><line opacity="0.2" x1="327.9457054254217" x2="327.9457054254217" y1="0" y2="30"/><line opacity="0.2" x1="381.68204123881094" x2="381.68204123881094" y1="0" y2="30"/><line opacity="0.2" x1="253.9686949072008" x2="253.9686949072008" y1="0" y2="30"/><line opacity="0.2" x1="375.4894269640205" x2="375.4894269640205" y1="0" y2="30"/><line opacity="0.2" x1="108.48888944882161" x2="108.48888944882161" y1="0" y2="30"/><line opacity="0.2" x1="429.58358679258873" x2="429.58358679258873" y1="0" y2="30"/><line opacity="0.2" x1="403.20292041505144" x2="403.20292041505144" y1="0" y2="30"/><line opacity="0.2" x1="146.5863454992986" x2="146.5863454992986" y1="0" y2="30"/><line opacity="0.2" x1="341.0145634449758" x2="341.0145634449758" y1="0" y2="30"/><line opacity="0.2" x1="373.7308953583536" x2="373.7308953583536" y1="0" y2="30"/><line opacity="0.2" x1="278.24001928232116" x2="278.24001928232116" y1="0" y2="30"/><line opacity="0.2" x1="275.0462108714482" x2="275.0462108714482" y1="0" y2="30"/><line opacity="0.2" x1="263.2668176998364" x2="263.2668176998364" y1="0" y2="30"/><line opacity="0.2" x1="202.13016934040616" x2="202.13016934040616" y1="0" y2="30"/><line opacity="0.2" x1="358.96861520321136" x2="358.96861520321136" y1="0" y2="30"/><line opacity="0.2" x1="367.3330594391845" x2="367.3330594391845" y1="0" y2="30"/><line opacity="0.2" x1="196.96202447809577" x2="196.96202447809577" y1="0" y2="30"/><line opacity="0.2" x1="363.5098136145711" x2="363.5098136145711" y1="0" y2="30"/><line opacity="0.2" x1="235.8836382917139" x2="235.8836382917139" y1="0" y2="30"/><line opacity="0.2" x1="296.3128334820137" x2="296.3128334820137" y1="0" y2="30"/><line opacity="0.2" x1="235.46385778673397" x2="235.46385778673397" y1="0" y2="30"/><line opacity="0.2" x1="322.16108827133115" x2="322.16108827133115" y1="0" y2="30"/><line opacity="0.2" x1="192.38719863422534" x2="192.38719863422534" y1="0" y2="30"/><line opacity="0.2" x1="315.15466116388393" x2="315.15466116388393" y1="0" y2="30"/><line opacity="0.2" x1="164.3734756880697" x2="164.3734756880697" y1="0" y2="30"/><line opacity="0.2" x1="217.11554186896794" x2="217.11554186896794" y1="0" y2="30"/><line opacity="0.2" x1="473.6358600851397" x2="473.6358600851397" y1="0" y2="30"/><line opacity="0.2" x1="429.1261021254051" x2="429.1261021254051" y1="0" y2="30"/><line opacity="0.2" x1="156.10276308252463" x2="156.10276308252463" y1="0" y2="30"/><line opacity="0.2" x1="192.0002464687921" x2="192.0002464687921" y1="0" y2="30"/><line opacity="0.2" x1="252.34939631958025" x2="252.34939631958025" y1="0" y2="30"/><line opacity="0.2" x1="376.3963430250652" x2="376.3963430250652" y1="0" y2="30"/><line opacity="0.2" x1="302.71244471298206" x2="302.71244471298206" y1="0" y2="30"/><line opacity="0.2" x1="147.1992056226385" x2="147.1992056226385" y1="0" y2="30"/><line opacity="0.2" x1="275.0372861691871" x2="275.0372861691871" y1="0" y2="30"/><line opacity="0.2" x1="334.16668241137234" x2="334.16668241137234" y1="0" y2="30"/><line opacity="0.2" x1="263.15453240953366" x2="263.15453240953366" y1="0" y2="30"/><line opacity="0.2" x1="371.6439200481335" x2="371.6439200481335" y1="0" y2="30"/><line opacity="0.2" x1="308.31482081433" x2="308.31482081433" y1="0" y2="30"/><line opacity="0.2" x1="564.8027934521647" x2="564.8027934521647" y1="0" y2="30"/><line opacity="0.2" x1="463.66670900320327" x2="463.66670900320327" y1="0" y2="30"/><line opacity="0.2" x1="382.27291489605454" x2="382.27291489605454" y1="0" y2="30"/><line opacity="0.2" x1="378.28354856784705" x2="378.28354856784705" y1="0" y2="30"/><line opacity="0.2" x1="442.7432554297331" x2="442.7432554297331" y1="0" y2="30"/><line opacity="0.2" x1="302.99684922967475" x2="302.99684922967475" y1="0" y2="30"/><line opacity="0.2" x1="261.01294909462393" x2="261.01294909462393" y1="0" y2="30"/><line opacity="0.2" x1="257.0842637642942" x2="257.0842637642942" y1="0" y2="30"/><line opacity="0.2" x1="315.40079091855824" x2="315.40079091855824" y1="0" y2="30"/><line opacity="0.2" x1="341.23070144962117" x2="341.23070144962117" y1="0" y2="30"/><line opacity="0.2" x1="222.27177587717782" x2="222.27177587717782" y1="0" y2="30"/><line opacity="0.2" x1="320.13845385844" x2="320.13845385844" y1="0" y2="30"/><line opacity="0.2" x1="394.82600827592904" x2="394.82600827592904" y1="0" y2="30"/><line opacity="0.2" x1="215.69491976740824" x2="215.69491976740824" y1="0" y2="30"/><line opacity="0.2" x1="324.93598615478754" x2="324.93598615478754" y1="0" y2="30"/><line opacity="0.2" x1="291.82481277097634" x2="291.82481277097634" y1="0" y2="30"/><line opacity="0.2" x1="287.9292554228176" x2="287.9292554228176" y1="0" y2="30"/><line opacity="0.2" x1="325.28737383492404" x2="325.28737383492404" y1="0" y2="30"/><line opacity="0.2" x1="291.334985995981" x2="291.334985995981" y1="0" y2="30"/><line opacity="0.2" x1="337.24401861530436" x2="337.24401861530436" y1="0" y2="30"/><line opacity="0.2" x1="403.7126340026699" x2="403.7126340026699" y1="0" y2="30"/><line opacity="0.2" x1="321.37487498640746" x2="321.37487498640746" y1="0" y2="30"/><line opacity="0.2" x1="365.84232622795236" x2="365.84232622795236" y1="0" y2="30"/><line opacity="0.2" x1="401.48246507274945" x2="401.48246507274945" y1="0" y2="30"/><line opacity="0.2" x1="378.32326897482375" x2="378.32326897482375" y1="0" y2="30"/><line opacity="0.2" x1="378.8125198093946" x2="378.8125198093946" y1="0" y2="30"/><line opacity="0.2" x1="350.9003661316327" x2="350.9003661316327" y1="0" y2="30"/><line opacity="0.2" x1="40.75252834202459" x2="40.75252834202459" y1="0" y2="30"/><line opacity="0.2" x1="307.616377440013" x2="307.616377440013" y1="0" y2="30"/><line opacity="0.2" x1="295.47599634177004" x2="295.47599634177004" y1="0" y2="30"/><line opacity="0.2" x1="392.39860253418306" x2="392.39860253418306" y1="0" y2="30"/><line opacity="0.2" x1="248.76222699686565" x2="248.76222699686565" y1="0" y2="30"/><line opacity="0.2" x1="427.1343548856621" x2="427.1343548856621" y1="0" y2="30"/><line opacity="0.2" x1="519.0663862534612" x2="519.0663862534612" y1="0" y2="30"/><line opacity="0.2" x1="368.0402479542749" x2="368.0402479542749" y1="0" y2="30"/><line opacity="0.2" x1="205.14403647174802" x2="205.14403647174802" y1="0" y2="30"/><line opacity="0.2" x1="417.78885780233793" x2="417.78885780233793" y1="0" y2="30"/><line opacity="0.2" x1="280.5627912481325" x2="280.5627912481325" y1="0" y2="30"/><line opacity="0.2" x1="183.65192811782438" x2="183.65192811782438" y1="0" y2="30"/><line opacity="0.2" x1="356.7369467296726" x2="356.7369467296726" y1="0" y2="30"/><line opacity="0.2" x1="320.69976509989453" x2="320.69976509989453" y1="0" y2="30"/><line opacity="0.2" x1="386.5914871535052" x2="386.5914871535052" y1="0" y2="30"/><line opacity="0.2" x1="375.65063162554907" x2="375.65063162554907" y1="0" y2="30"/><line opacity="0.2" x1="323.1528569558182" x2="323.1528569558182" y1="0" y2="30"/><line opacity="0.2" x1="316.7645351807252" x2="316.7645351807252" y1="0" y2="30"/><line opacity="0.2" x1="305.76480877489814" x2="305.76480877489814" y1="0" y2="30"/><line opacity="0.2" x1="431.56882249537244" x2="431.56882249537244" y1="0" y2="30"/><line opacity="0.2" x1="300.8694673684894" x2="300.8694673684894" y1="0" y2="30"/><line opacity="0.2" x1="452.74711167853934" x2="452.74711167853934" y1="0" y2="30"/><line opacity="0.2" x1="284.8834554074916" x2="284.8834554074916" y1="0" y2="30"/><line opacity="0.2" x1="489.95570868326183" x2="489.95570868326183" y1="0" y2="30"/><line opacity="0.2" x1="259.6010056976283" x2="259.6010056976283" y1="0" y2="30"/><line opacity="0.2" x1="572.6197074208308" x2="572.6197074208308" y1="0" y2="30"/><line opacity="0.2" x1="217.41855864580205" x2="217.41855864580205" y1="0" y2="30"/><line opacity="0.2" x1="138.7101545410039" x2="138.7101545410039" y1="0" y2="30"/><line opacity="0.2" x1="316.4643587539804" x2="316.4643587539804" y1="0" y2="30"/><line opacity="0.2" x1="344.7234758860119" x2="344.7234758860119" y1="0" y2="30"/><line opacity="0.2" x1="433.3536636941279" x2="433.3536636941279" y1="0" y2="30"/><line opacity="0.2" x1="122.19433296234547" x2="122.19433296234547" y1="0" y2="30"/><line opacity="0.2" x1="412.53812570656237" x2="412.53812570656237" y1="0" y2="30"/><line opacity="0.2" x1="307.72069198865614" x2="307.72069198865614" y1="0" y2="30"/><line opacity="0.2" x1="334.55237363967154" x2="334.55237363967154" y1="0" y2="30"/><line opacity="0.2" x1="85.2432444124517" x2="85.2432444124517" y1="0" y2="30"/><line opacity="0.2" x1="219.54842672336167" x2="219.54842672336167" y1="0" y2="30"/><line opacity="0.2" x1="311.26612496220304" x2="311.26612496220304" y1="0" y2="30"/><line opacity="0.2" x1="467.36610073548434" x2="467.36610073548434" y1="0" y2="30"/><line opacity="0.2" x1="236.7803145096975" x2="236.7803145096975" y1="0" y2="30"/><line opacity="0.2" x1="37.71893107722995" x2="37.71893107722995" y1="0" y2="30"/><line opacity="0.2" x1="379.3119512766264" x2="379.3119512766264" y1="0" y2="30"/><line opacity="0.2" x1="199.18155360846873" x2="199.18155360846873" y1="0" y2="30"/><line opacity="0.2" x1="294.7258255802166" x2="294.7258255802166" y1="0" y2="30"/><line opacity="0.2" x1="226.0739852409787" x2="226.0739852409787" y1="0" y2="30"/><line opacity="0.2" x1="373.47006906132026" x2="373.47006906132026" y1="0" y2="30"/><line opacity="0.2" x1="427.01746644607624" x2="427.01746644607624" y1="0" y2="30"/><line opacity="0.2" x1="369.84324214109427" x2="369.84324214109427" y1="0" y2="30"/><line opacity="0.2" x1="260.93671802963695" x2="260.93671802963695" y1="0" y2="30"/><line opacity="0.2" x1="272.20227120176327" x2="272.20227120176327" y1="0" y2="30"/><line opacity="0.2" x1="334.59648143409413" x2="334.59648143409413" y1="0" y2="30"/><line opacity="0.2" x1="307.5597232677305" x2="307.5597232677305" y1="0" y2="30"/><line opacity="0.2" x1="277.4096936681207" x2="277.4096936681207" y1="0" y2="30"/><line opacity="0.2" x1="297.29221109544727" x2="297.29221109544727" y1="0" y2="30"/><line opacity="0.2" x1="357.88897398253107" x2="357.88897398253107" y1="0" y2="30"/><line opacity="0.2" x1="333.085334648378" x2="333.085334648378" y1="0" y2="30"/><line opacity="0.2" x1="369.9527757251062" x2="369.9527757251062" y1="0" y2="30"/><line opacity="0.2" x1="270.137134851424" x2="270.137134851424" y1="0" y2="30"/><line opacity="0.2" x1="427.0105194301268" x2="427.0105194301268" y1="0" y2="30"/><line opacity="0.2" x1="415.0425707347865" x2="415.0425707347865" y1="0" y2="30"/><line opacity="0.2" x1="440.20142585980085" x2="440.20142585980085" y1="0" y2="30"/><line opacity="0.2" x1="354.3418769753732" x2="354.3418769753732" y1="0" y2="30"/><line opacity="0.2" x1="381.74912189933974" x2="381.74912189933974" y1="0" y2="30"/><line opacity="0.2" x1="390.7537131789699" x2="390.7537131789699" y1="0" y2="30"/><line opacity="0.2" x1="226.640729459404" x2="226.640729459404" y1="0" y2="30"/><line opacity="0.2" x1="184.6025239759571" x2="184.6025239759571" y1="0" y2="30"/><line opacity="0.2" x1="365.7147397127658" x2="365.7147397127658" y1="0" y2="30"/><line opacity="0.2" x1="256.6019223863751" x2="256.6019223863751" y1="0" y2="30"/><line opacity="0.2" x1="315.4658761296382" x2="315.4658761296382" y1="0" y2="30"/><line opacity="0.2" x1="233.2136353729688" x2="233.2136353729688" y1="0" y2="30"/><line opacity="0.2" x1="240.7417198560519" x2="240.7417198560519" y1="0" y2="30"/><line opacity="0.2" x1="315.763860861523" x2="315.763860861523" y1="0" y2="30"/><line opacity="0.2" x1="401.45716695807886" x2="401.45716695807886" y1="0" y2="30"/><line opacity="0.2" x1="350.77187316766083" x2="350.77187316766083" y1="0" y2="30"/><line opacity="0.2" x1="506.87218706872324" x2="506.87218706872324" y1="0" y2="30"/><line opacity="0.2" x1="313.8539285818926" x2="313.8539285818926" y1="0" y2="30"/><line opacity="0.2" x1="233.9701723514886" x2="233.9701723514886" y1="0" y2="30"/><line opacity="0.2" x1="325.9584578378542" x2="325.9584578378542" y1="0" y2="30"/><line opacity="0.2" x1="94.46465400344103" x2="94.46465400344103" y1="0" y2="30"/><line opacity="0.2" x1="323.2847711122486" x2="323.2847711122486" y1="0" y2="30"/><line opacity="0.2" x1="209.60759483275638" x2="209.60759483275638" y1="0" y2="30"/><line opacity="0.2" x1="270.5774328084376" x2="270.5774328084376" y1="0" y2="30"/><line opacity="0.2" x1="383.9656265242636" x2="383.9656265242636" y1="0" y2="30"/><line opacity="0.2" x1="280.59400461109726" x2="280.59400461109726" y1="0" y2="30"/><line opacity="0.2" x1="308.6027430739723" x2="308.6027430739723" y1="0" y2="30"/><line opacity="0.2" x1="256.65150084219954" x2="256.65150084219954" y1="0" y2="30"/><line opacity="0.2" x1="294.05955052871604" x2="294.05955052871604" y1="0" y2="30"/><line opacity="0.2" x1="258.34679225450867" x2="258.34679225450867" y1="0" y2="30"/><line opacity="0.2" x1="210.10985314541762" x2="210.10985314541762" y1="0" y2="30"/><line opacity="0.2" x1="215.9326261888088" x2="215.9326261888088" y1="0" y2="30"/><line opacity="0.2" x1="391.1647126042717" x2="391.1647126042717" y1="0" y2="30"/><line opacity="0.2" x1="368.4931650047125" x2="368.4931650047125" y1="0" y2="30"/><line opacity="0.2" x1="320.3204099175511" x2="320.3204099175511" y1="0" y2="30"/><line opacity="0.2" x1="240.48651763650705" x2="240.48651763650705" y1="0" y2="30"/><line opacity="0.2" x1="283.57753068351667" x2="283.57753068351667" y1="0" y2="30"/><line opacity="0.2" x1="329.9472804529735" x2="329.9472804529735" y1="0" y2="30"/><line opacity="0.2" x1="388.36863067603656" x2="388.36863067603656" y1="0" y2="30"/><line opacity="0.2" x1="482.3831255432298" x2="482.3831255432298" y1="0" y2="30"/><line opacity="0.2" x1="290.72877504597506" x2="290.72877504597506" y1="0" y2="30"/><line opacity="0.2" x1="338.15998407581577" x2="338.15998407581577" y1="0" y2="30"/><line opacity="0.2" x1="410.62407398638794" x2="410.62407398638794" y1="0" y2="30"/><line opacity="0.2" x1="290.5996366274196" x2="290.5996366274196" y1="0" y2="30"/><line opacity="0.2" x1="289.9690500614187" x2="289.9690500614187" y1="0" y2="30"/><line opacity="0.2" x1="326.99535345506905" x2="326.99535345506905" y1="0" y2="30"/><line opacity="0.2" x1="318.3396127594993" x2="318.3396127594993" y1="0" y2="30"/><line opacity="0.2" x1="360.8080486299051" x2="360.8080486299051" y1="0" y2="30"/><line opacity="0.2" x1="269.5124009207036" x2="269.5124009207036" y1="0" y2="30"/><line opacity="0.2" x1="286.71361065279905" x2="286.71361065279905" y1="0" y2="30"/><line opacity="0.2" x1="441.77457949864436" x2="441.77457949864436" y1="0" y2="30"/><line opacity="0.2" x1="287.03612342725967" x2="287.03612342725967" y1="0" y2="30"/><line opacity="0.2" x1="63.88260631915797" x2="63.88260631915797" y1="0" y2="30"/><line opacity="0.2" x1="312.8768971203807" x2="312.8768971203807" y1="0" y2="30"/><line opacity="0.2" x1="260.77043580267474" x2="260.77043580267474" y1="0" y2="30"/><line opacity="0.2" x1="376.3844838455285" x2="376.3844838455285" y1="0" y2="30"/><line opacity="0.2" x1="407.9748031621802" x2="407.9748031621802" y1="0" y2="30"/><line opacity="0.2" x1="382.57949535474654" x2="382.57949535474654" y1="0" y2="30"/><line opacity="0.2" x1="329.2889867588203" x2="329.2889867588203" y1="0" y2="30"/><line opacity="0.2" x1="287.39837944331754" x2="287.39837944331754" y1="0" y2="30"/><line opacity="0.2" x1="324.8739330287643" x2="324.8739330287643" y1="0" y2="30"/><line opacity="0.2" x1="377.28434522650525" x2="377.28434522650525" y1="0" y2="30"/><line opacity="0.2" x1="162.80758595803348" x2="162.80758595803348" y1="0" y2="30"/><line opacity="0.2" x1="200.28674785243223" x2="200.28674785243223" y1="0" y2="30"/><line opacity="0.2" x1="387.8089423972645" x2="387.8089423972645" y1="0" y2="30"/><line opacity="0.2" x1="333.45227936746323" x2="333.45227936746323" y1="0" y2="30"/><line opacity="0.2" x1="266.9713867211211" x2="266.9713867211211" y1="0" y2="30"/><line opacity="0.2" x1="192.96205890954747" x2="192.96205890954747" y1="0" y2="30"/><line opacity="0.2" x1="422.8999291191407" x2="422.8999291191407" y1="0" y2="30"/><line opacity="0.2" x1="348.93904334068003" x2="348.93904334068003" y1="0" y2="30"/><line opacity="0.2" x1="282.2715390208214" x2="282.2715390208214" y1="0" y2="30"/><line opacity="0.2" x1="443.0072717549655" x2="443.0072717549655" y1="0" y2="30"/><line opacity="0.2" x1="280.6696008606725" x2="280.6696008606725" y1="0" y2="30"/><line opacity="0.2" x1="264.88360076436805" x2="264.88360076436805" y1="0" y2="30"/><line opacity="0.2" x1="303.4404527656693" x2="303.4404527656693" y1="0" y2="30"/><line opacity="0.2" x1="305.4900947162568" x2="305.4900947162568" y1="0" y2="30"/><line opacity="0.2" x1="250.59504800743625" x2="250.59504800743625" y1="0" y2="30"/><line opacity="0.2" x1="469.3415456268855" x2="469.3415456268855" y1="0" y2="30"/><line opacity="0.2" x1="273.20464457625" x2="273.20464457625" y1="0" y2="30"/><line opacity="0.2" x1="300.72371065452734" x2="300.72371065452734" y1="0" y2="30"/><line opacity="0.2" x1="375.31627413091655" x2="375.31627413091655" y1="0" y2="30"/><line opacity="0.2" x1="298.1730260247934" x2="298.1730260247934" y1="0" y2="30"/><line opacity="0.2" x1="470.5126932350079" x2="470.5126932350079" y1="0" y2="30"/><line opacity="0.2" x1="283.5503880218373" x2="283.5503880218373" y1="0" y2="30"/><line opacity="0.2" x1="416.65130674487165" x2="416.65130674487165" y1="0" y2="30"/><line opacity="0.2" x1="330.6841208369414" x2="330.6841208369414" y1="0" y2="30"/><line opacity="0.2" x1="312.0581049185841" x2="312.0581049185841" y1="0" y2="30"/><line opacity="0.2" x1="293.38131965164314" x2="293.38131965164314" y1="0" y2="30"/><line opacity="0.2" x1="283.6465716450457" x2="283.6465716450457" y1="0" y2="30"/><line opacity="0.2" x1="264.8401259502975" x2="264.8401259502975" y1="0" y2="30"/><line opacity="0.2" x1="341.824875884231" x2="341.824875884231" y1="0" y2="30"/><line opacity="0.2" x1="349.03828806227807" x2="349.03828806227807" y1="0" y2="30"/><line opacity="0.2" x1="319.16255650656217" x2="319.16255650656217" y1="0" y2="30"/><line opacity="0.2" x1="292.7613472613823" x2="292.7613472613823" y1="0" y2="30"/><line opacity="0.2" x1="479.1666506853679" x2="479.1666506853679" y1="0" y2="30"/><line opacity="0.2" x1="502.62738351750704" x2="502.62738351750704" y1="0" y2="30"/><line opacity="0.2" x1="318.9954498877054" x2="318.9954498877054" y1="0" y2="30"/><line opacity="0.2" x1="402.1008347982812" x2="402.1008347982812" y1="0" y2="30"/><line opacity="0.2" x1="274.6237195054991" x2="274.6237195054991" y1="0" y2="30"/><line opacity="0.2" x1="296.3903391029755" x2="296.3903391029755" y1="0" y2="30"/><line opacity="0.2" x1="190.86785650146464" x2="190.86785650146464" y1="0" y2="30"/><line opacity="0.2" x1="268.82209355176735" x2="268.82209355176735" y1="0" y2="30"/><line opacity="0.2" x1="287.0773852305974" x2="287.0773852305974" y1="0" y2="30"/><line opacity="0.2" x1="400.2174864887548" x2="400.2174864887548" y1="0" y2="30"/><line opacity="0.2" x1="325.0719733526184" x2="325.0719733526184" y1="0" y2="30"/><line opacity="0.2" x1="218.26561032973777" x2="218.26561032973777" y1="0" y2="30"/><line opacity="0.2" x1="218.0620676046184" x2="218.0620676046184" y1="0" y2="30"/><line opacity="0.2" x1="170.36609699972792" x2="170.36609699972792" y1="0" y2="30"/><line opacity="0.2" x1="373.11084914495575" x2="373.11084914495575" y1="0" y2="30"/><line opacity="0.2" x1="295.91858963135604" x2="295.91858963135604" y1="0" y2="30"/><line opacity="0.2" x1="329.87175276759086" x2="329.87175276759086" y1="0" y2="30"/><line opacity="0.2" x1="417.0112595865734" x2="417.0112595865734" y1="0" y2="30"/><line opacity="0.2" x1="303.56158885518465" x2="303.56158885518465" y1="0" y2="30"/><line opacity="0.2" x1="413.5035820154332" x2="413.5035820154332" y1="0" y2="30"/><line opacity="0.2" x1="339.6376512502459" x2="339.6376512502459" y1="0" y2="30"/><line opacity="0.2" x1="303.5939496795843" x2="303.5939496795843" y1="0" y2="30"/><line opacity="0.2" x1="327.35995980460297" x2="327.35995980460297" y1="0" y2="30"/><line opacity="0.2" x1="298.3876256835786" x2="298.3876256835786" y1="0" y2="30"/><line opacity="0.2" x1="343.95457252106354" x2="343.95457252106354" y1="0" y2="30"/><line opacity="0.2" x1="328.6734821669558" x2="328.6734821669558" y1="0" y2="30"/><line opacity="0.2" x1="300.0052686151415" x2="300.0052686151415" y1="0" y2="30"/><line opacity="0.2" x1="412.4382559771807" x2="412.4382559771807" y1="0" y2="30"/><line opacity="0.2" x1="311.38826847792257" x2="311.38826847792257" y1="0" y2="30"/><line opacity="0.2" x1="260.7025831039369" x2="260.7025831039369" y1="0" y2="30"/><line opacity="0.2" x1="259.9867736486046" x2="259.9867736486046" y1="0" y2="30"/><line opacity="0.2" x1="347.79928298109013" x2="347.79928298109013" y1="0" y2="30"/><line opacity="0.2" x1="296.36799704951636" x2="296.36799704951636" y1="0" y2="30"/><line opacity="0.2" x1="299.5600024563505" x2="299.5600024563505" y1="0" y2="30"/><line opacity="0.2" x1="264.7494579425172" x2="264.7494579425172" y1="0" y2="30"/><line opacity="0.2" x1="247.8741116994588" x2="247.8741116994588" y1="0" y2="30"/><line opacity="0.2" x1="270.4219185335194" x2="270.4219185335194" y1="0" y2="30"/><line opacity="0.2" x1="332.19747641046354" x2="332.19747641046354" y1="0" y2="30"/><line opacity="0.2" x1="323.7771310618342" x2="323.7771310618342" y1="0" y2="30"/><line opacity="0.2" x1="348.9001813588555" x2="348.9001813588555" y1="0" y2="30"/><line opacity="0.2" x1="353.61254494412606" x2="353.61254494412606" y1="0" y2="30"/><line opacity="0.2" x1="423.4393293948043" x2="423.4393293948043" y1="0" y2="30"/><line opacity="0.2" x1="280.6236466001351" x2="280.6236466001351" y1="0" y2="30"/><line opacity="0.2" x1="465.2098633992939" x2="465.2098633992939" y1="0" y2="30"/><line opacity="0.2" x1="317.81570652764015" x2="317.81570652764015" y1="0" y2="30"/><line opacity="0.2" x1="479.54318268122296" x2="479.54318268122296" y1="0" y2="30"/><line opacity="0.2" x1="381.0793310954815" x2="381.0793310954815" y1="0" y2="30"/><line opacity="0.2" x1="405.4767388369552" x2="405.4767388369552" y1="0" y2="30"/><line opacity="0.2" x1="273.44370264709215" x2="273.44370264709215" y1="0" y2="30"/><line opacity="0.2" x1="363.0281595061919" x2="363.0281595061919" y1="0" y2="30"/><line opacity="0.2" x1="245.46342577883863" x2="245.46342577883863" y1="0" y2="30"/><line opacity="0.2" x1="269.5132085525244" x2="269.5132085525244" y1="0" y2="30"/><line opacity="0.2" x1="431.00030282846564" x2="431.00030282846564" y1="0" y2="30"/><line opacity="0.2" x1="358.93308103675963" x2="358.93308103675963" y1="0" y2="30"/><line opacity="0.2" x1="417.6405185870223" x2="417.6405185870223" y1="0" y2="30"/><line opacity="0.2" x1="483.0140166517136" x2="483.0140166517136" y1="0" y2="30"/><line opacity="0.2" x1="368.3938935116374" x2="368.3938935116374" y1="0" y2="30"/><line opacity="0.2" x1="305.60521004371884" x2="305.60521004371884" y1="0" y2="30"/><line opacity="0.2" x1="371.59199936202333" x2="371.59199936202333" y1="0" y2="30"/><line opacity="0.2" x1="262.72650732725083" x2="262.72650732725083" y1="0" y2="30"/><line opacity="0.2" x1="417.25384036924527" x2="417.25384036924527" y1="0" y2="30"/><line opacity="0.2" x1="484.85497708027503" x2="484.85497708027503" y1="0" y2="30"/><line opacity="0.2" x1="295.8853566762611" x2="295.8853566762611" y1="0" y2="30"/><line opacity="0.2" x1="224.7711378958943" x2="224.7711378958943" y1="0" y2="30"/><line opacity="0.2" x1="461.68808686454946" x2="461.68808686454946" y1="0" y2="30"/><line opacity="0.2" x1="426.19532426626427" x2="426.19532426626427" y1="0" y2="30"/><line opacity="0.2" x1="415.4292584343478" x2="415.4292584343478" y1="0" y2="30"/><line opacity="0.2" x1="334.3604711882881" x2="334.3604711882881" y1="0" y2="30"/><line opacity="0.2" x1="284.0581714905008" x2="284.0581714905008" y1="0" y2="30"/><line opacity="0.2" x1="235.032784965206" x2="235.032784965206" y1="0" y2="30"/><line opacity="0.2" x1="493.5355086355707" x2="493.5355086355707" y1="0" y2="30"/><line opacity="0.2" x1="361.4342128521481" x2="361.4342128521481" y1="0" y2="30"/><line opacity="0.2" x1="370.71131427961825" x2="370.71131427961825" y1="0" y2="30"/><line opacity="0.2" x1="403.3028947619804" x2="403.3028947619804" y1="0" y2="30"/><line opacity="0.2" x1="345.06156514794003" x2="345.06156514794003" y1="0" y2="30"/><line opacity="0.2" x1="468.08936266990486" x2="468.08936266990486" y1="0" y2="30"/><line opacity="0.2" x1="372.7177643146845" x2="372.7177643146845" y1="0" y2="30"/><line opacity="0.2" x1="450.74150667045205" x2="450.74150667045205" y1="0" y2="30"/><line opacity="0.2" x1="20.200224725434392" x2="20.200224725434392" y1="0" y2="30"/><line opacity="0.2" x1="274.16329449778476" x2="274.16329449778476" y1="0" y2="30"/><line opacity="0.2" x1="333.6541176938905" x2="333.6541176938905" y1="0" y2="30"/><line opacity="0.2" x1="279.45292971934015" x2="279.45292971934015" y1="0" y2="30"/><line opacity="0.2" x1="398.96169449824635" x2="398.96169449824635" y1="0" y2="30"/><line opacity="0.2" x1="169.99416246350324" x2="169.99416246350324" y1="0" y2="30"/><line opacity="0.2" x1="137.69472425652378" x2="137.69472425652378" y1="0" y2="30"/><line opacity="0.2" x1="304.1027059013425" x2="304.1027059013425" y1="0" y2="30"/><line opacity="0.2" x1="306.0598752361411" x2="306.0598752361411" y1="0" y2="30"/><line opacity="0.2" x1="187.34278114062266" x2="187.34278114062266" y1="0" y2="30"/><line opacity="0.2" x1="373.165458687828" x2="373.165458687828" y1="0" y2="30"/><line opacity="0.2" x1="245.09772011239744" x2="245.09772011239744" y1="0" y2="30"/><line opacity="0.2" x1="115.61440291377505" x2="115.61440291377505" y1="0" y2="30"/><line opacity="0.2" x1="350.39898063432395" x2="350.39898063432395" y1="0" y2="30"/><line opacity="0.2" x1="454.17885040307743" x2="454.17885040307743" y1="0" y2="30"/><line opacity="0.2" x1="187.7626805288437" x2="187.7626805288437" y1="0" y2="30"/><line opacity="0.2" x1="405.76156217018087" x2="405.76156217018087" y1="0" y2="30"/><line opacity="0.2" x1="473.4834531557418" x2="473.4834531557418" y1="0" y2="30"/><line opacity="0.2" x1="123.77587484667269" x2="123.77587484667269" y1="0" y2="30"/><line opacity="0.2" x1="334.04984910314136" x2="334.04984910314136" y1="0" y2="30"/><line opacity="0.2" x1="476.16226304097614" x2="476.16226304097614" y1="0" y2="30"/><line opacity="0.2" x1="396.7424116583384" x2="396.7424116583384" y1="0" y2="30"/><line opacity="0.2" x1="339.8842013825734" x2="339.8842013825734" y1="0" y2="30"/><line opacity="0.2" x1="380.49708682157905" x2="380.49708682157905" y1="0" y2="30"/><line opacity="0.2" x1="247.43569800592385" x2="247.43569800592385" y1="0" y2="30"/><line opacity="0.2" x1="233.7709474921852" x2="233.7709474921852" y1="0" y2="30"/><line opacity="0.2" x1="313.3668258781582" x2="313.3668258781582" y1="0" y2="30"/><line opacity="0.2" x1="402.13193699084695" x2="402.13193699084695" y1="0" y2="30"/><line opacity="0.2" x1="477.07271435307945" x2="477.07271435307945" y1="0" y2="30"/><line opacity="0.2" x1="160.67315024945825" x2="160.67315024945825" y1="0" y2="30"/><line opacity="0.2" x1="275.9900573591825" x2="275.9900573591825" y1="0" y2="30"/><line opacity="0.2" x1="335.93295235305595" x2="335.93295235305595" y1="0" y2="30"/><line opacity="0.2" x1="332.03020860518717" x2="332.03020860518717" y1="0" y2="30"/><line opacity="0.2" x1="322.8328991734059" x2="322.8328991734059" y1="0" y2="30"/><line opacity="0.2" x1="412.00955123975143" x2="412.00955123975143" y1="0" y2="30"/><line opacity="0.2" x1="241.26911513511922" x2="241.26911513511922" y1="0" y2="30"/><line opacity="0.2" x1="394.24757922290314" x2="394.24757922290314" y1="0" y2="30"/><line opacity="0.2" x1="267.7817203505704" x2="267.7817203505704" y1="0" y2="30"/><line opacity="0.2" x1="291.8516893115718" x2="291.8516893115718" y1="0" y2="30"/><line opacity="0.2" x1="314.82629781634927" x2="314.82629781634927" y1="0" y2="30"/><line opacity="0.2" x1="344.4406276641735" x2="344.4406276641735" y1="0" y2="30"/><line opacity="0.2" x1="358.9680727115632" x2="358.9680727115632" y1="0" y2="30"/><line opacity="0.2" x1="251.39706518961745" x2="251.39706518961745" y1="0" y2="30"/><line opacity="0.2" x1="462.255782101449" x2="462.255782101449" y1="0" y2="30"/><line opacity="0.2" x1="323.734902491431" x2="323.734902491431" y1="0" y2="30"/><line opacity="0.2" x1="270.3167384099632" x2="270.3167384099632" y1="0" y2="30"/><line opacity="0.2" x1="364.54460516628876" x2="364.54460516628876" y1="0" y2="30"/><line opacity="0.2" x1="358.5643963973628" x2="358.5643963973628" y1="0" y2="30"/><line opacity="0.2" x1="212.75397955217392" x2="212.75397955217392" y1="0" y2="30"/><line opacity="0.2" x1="168.8530211067919" x2="168.8530211067919" y1="0" y2="30"/><line opacity="0.2" x1="340.2872168813511" x2="340.2872168813511" y1="0" y2="30"/><line opacity="0.2" x1="352.2360874970172" x2="352.2360874970172" y1="0" y2="30"/><line opacity="0.2" x1="292.61071834998523" x2="292.61071834998523" y1="0" y2="30"/><line opacity="0.2" x1="533.7726636382241" x2="533.7726636382241" y1="0" y2="30"/><line opacity="0.2" x1="180.4525921442467" x2="180.4525921442467" y1="0" y2="30"/><line opacity="0.2" x1="265.1191159251081" x2="265.1191159251081" y1="0" y2="30"/><line opacity="0.2" x1="207.59502244919585" x2="207.59502244919585" y1="0" y2="30"/><line opacity="0.2" x1="531.748816996397" x2="531.748816996397" y1="0" y2="30"/><line opacity="0.2" x1="482.73514362448276" x2="482.73514362448276" y1="0" y2="30"/><line opacity="0.2" x1="270.1779661140083" x2="270.1779661140083" y1="0" y2="30"/><line opacity="0.2" x1="184.20298466594494" x2="184.20298466594494" y1="0" y2="30"/><line opacity="0.2" x1="345.11714676977647" x2="345.11714676977647" y1="0" y2="30"/><line opacity="0.2" x1="133.35936373966163" x2="133.35936373966163" y1="0" y2="30"/><line opacity="0.2" x1="383.6067613324925" x2="383.6067613324925" y1="0" y2="30"/><line opacity="0.2" x1="147.92490847532588" x2="147.92490847532588" y1="0" y2="30"/><line opacity="0.2" x1="362.6015645199265" x2="362.6015645199265" y1="0" y2="30"/><line opacity="0.2" x1="186.53266437484814" x2="186.53266437484814" y1="0" y2="30"/><line opacity="0.2" x1="225.64558390561916" x2="225.64558390561916" y1="0" y2="30"/><line opacity="0.2" x1="302.4662623956645" x2="302.4662623956645" y1="0" y2="30"/><line opacity="0.2" x1="295.46664227553293" x2="295.46664227553293" y1="0" y2="30"/><line opacity="0.2" x1="181.9949644387445" x2="181.9949644387445" y1="0" y2="30"/><line opacity="0.2" x1="343.7445868274898" x2="343.7445868274898" y1="0" y2="30"/><line opacity="0.2" x1="279.97647549692294" x2="279.97647549692294" y1="0" y2="30"/><line opacity="0.2" x1="312.8711596379729" x2="312.8711596379729" y1="0" y2="30"/><line opacity="0.2" x1="358.1434852685333" x2="358.1434852685333" y1="0" y2="30"/><line opacity="0.2" x1="361.8874538653676" x2="361.8874538653676" y1="0" y2="30"/><line opacity="0.2" x1="280.1151974877004" x2="280.1151974877004" y1="0" y2="30"/><line opacity="0.2" x1="248.82002573191" x2="248.82002573191" y1="0" y2="30"/><line opacity="0.2" x1="395.29136482301374" x2="395.29136482301374" y1="0" y2="30"/><line opacity="0.2" x1="468.0361091444233" x2="468.0361091444233" y1="0" y2="30"/><line opacity="0.2" x1="234.58047630369114" x2="234.58047630369114" y1="0" y2="30"/><line opacity="0.2" x1="374.4317236281819" x2="374.4317236281819" y1="0" y2="30"/><line opacity="0.2" x1="201.0740122812402" x2="201.0740122812402" y1="0" y2="30"/><line opacity="0.2" x1="228.03088585770598" x2="228.03088585770598" y1="0" y2="30"/><line opacity="0.2" x1="459.7073460412609" x2="459.7073460412609" y1="0" y2="30"/><line opacity="0.2" x1="328.8105448416705" x2="328.8105448416705" y1="0" y2="30"/><line opacity="0.2" x1="365.15849110079677" x2="365.15849110079677" y1="0" y2="30"/><line opacity="0.2" x1="215.45217578284226" x2="215.45217578284226" y1="0" y2="30"/><line opacity="0.2" x1="541.5369899557426" x2="541.5369899557426" y1="0" y2="30"/><line opacity="0.2" x1="209.44862669747062" x2="209.44862669747062" y1="0" y2="30"/><line opacity="0.2" x1="279.664136588223" x2="279.664136588223" y1="0" y2="30"/><line opacity="0.2" x1="215.77236693088417" x2="215.77236693088417" y1="0" y2="30"/><line opacity="0.2" x1="438.4035908592411" x2="438.4035908592411" y1="0" y2="30"/><line opacity="0.2" x1="177.26007922779868" x2="177.26007922779868" y1="0" y2="30"/></g></svg>