<svg xmlns="http://www.w3.org/2000/svg" xmlns:xlink="http://www.w3.org/1999/xlink" class="plot-d6a7b5" fill="currentColor" font-family="system-ui, sans-serif" font-size="10" text-anchor="middle" width="640" height="60" viewBox="0 0 640 60" style="color: black; background-color: white;"><style>.plot-d6a7b5 {
  display: block;
  background: white;
  height: auto;
  height: intrinsic;
  max-width: 100%;
}
.plot-d6a7b5 text,
.plot-d6a7b5 tspan {
  white-space: pre;
}</style><g aria-label="x-axis tick" fill="none" stroke="currentColor"><path transform="translate(23.01976880676815,30)" d="M0,0L0,6"/><path transform="translate(97.70421918416716,30)" d="M0,0L0,6"/><path transform="translate(172.3886695615662,30)" d="M0,0L0,6"/><path transform="translate(247.07311993896522,30)" d="M0,0L0,6"/><path transform="translate(321.75757031636425,30)" d="M0,0L0,6"/><path transform="translate(396.4420206937632,30)" d="M0,0L0,6"/><path transform="translate(471.12647107116226,30)" d="M0,0L0,6"/><path transform="translate(545.8109214485613,30)" d="M0,0L0,6"/></g><g aria-label="x-axis tick label" font-variant="tabular-nums" transform="translate(0,9)"><text y="0.71em" transform="translate(23.01976880676815,30)">−4</text><text y="0.71em" transform="translate(97.70421918416716,30)">−3</text><text y="0.71em" transform="translate(172.3886695615662,30)">−2</text><text y="0.71em" transform="translate(247.07311993896522,30)">−1</text><text y="0.71em" transform="translate(321.75757031636425,30)">0</text><text y="0.71em" transform="translate(396.4420206937632,30)">1</text><text y="0.71em" transform="translate(471.12647107116226,30)">2</text><text y="0.71em" transform="translate(545.8109214485613,30)">3</text></g><g aria-label="tick" stroke="steelblue"><line opacity="0.2" x1="296.66317769921494" x2="296.66317769921494" y1="0.5" y2="30"/><line opacity="0.2" x1="322.2542581834336" x2="322.2542581834336" y1="0.5" y2="30"/><line opacity="0.2" x1="338.0022939810192" x2="338.0022939810192" y1="0.5" y2="30"/><line opacity="0.2" x1="399.81009822603517" x2="399.81009822603517" y1="0.5" y2="30"/><line opacity="0.2" x1="341.4159444448661" x2="341.4159444448661" y1="0.5" y2="30"/><line opacity="0.2" x1="390.3919979080986" x2="390.3919979080986" y1="0.5" y2="30"/><line opacity="0.2" x1="330.4100523596177" x2="330.4100523596177" y1="0.5" y2="30"/><line opacity="0.2" x1="353.5416709386939" x2="353.5416709386939" y1="0.5" y2="30"/><line opacity="0.2" x1="501.7689514104181" x2="501.7689514104181" y1="0.5" y2="30"/><line opacity="0.2" x1="325.3566527421876" x2="325.3566527421876" y1="0.5" y2="30"/><line opacity="0.2" x1="209.47925514935721" x2="209.47925514935721" y1="0.5" y2="30"/><line opacity="0.2" x1="153.01172592425644" x2="153.01172592425644" y1="0.5" y2="30"/><line opacity="0.2" x1="189.85420331430208" x2="189.85420331430208" y1="0.5" y2="30"/><line opacity="0.2" x1="358.12115621643346" x2="358.12115621643346" y1="0.5" y2="30"/><line opacity="0.2" x1="274.9912318023302" x2="274.9912318023302" y1="0.5" y2="30"/><line opacity="0.2" x1="314.1958210139268" x2="314.1958210139268" y1="0.5" y2="30"/><line opacity="0.2" x1="385.7259637984618" x2="385.7259637984618" y1="0.5" y2="30"/><line opacity="0.2" x1="363.7547369555598" x2="363.7547369555598" y1="0.5" y2="30"/><line opacity="0.2" x1="325.7351927169287" x2="325.7351927169287" y1="0.5" y2="30"/><line opacity="0.2" x1="270.76738373281927" x2="270.76738373281927" y1="0.5" y2="30"/><line opacity="0.2" x1="341.78379829238355" x2="341.78379829238355" y1="0.5" y2="30"/><line opacity="0.2" x1="443.5110236743386" x2="443.5110236743386" y1="0.5" y2="30"/><line opacity="0.2" x1="328.69099468950037" x2="328.69099468950037" y1="0.5" y2="30"/><line opacity="0.2" x1="262.65746187721584" x2="262.65746187721584" y1="0.5" y2="30"/><line opacity="0.2" x1="340.1276935807661" x2="340.1276935807661" y1="0.5" y2="30"/><line opacity="0.2" x1="291.8715042707178" x2="291.8715042707178" y1="0.5" y2="30"/><line opacity="0.2" x1="351.82319965305174" x2="351.82319965305174" y1="0.5" y2="30"/><line opacity="0.2" x1="290.35667402089683" x2="290.35667402089683" y1="0.5" y2="30"/><line opacity="0.2" x1="440.01476628355374" x2="440.01476628355374" y1="0.5" y2="30"/><line opacity="0.2" x1="308.0401037135048" x2="308.0401037135048" y1="0.5" y2="30"/><line opacity="0.2" x1="153.47621614013516" x2="153.47621614013516" y1="0.5" y2="30"/><line opacity="0.2" x1="407.74227275193186" x2="407.74227275193186" y1="0.5" y2="30"/><line opacity="0.2" x1="319.1828055387639" x2="319.1828055387639" y1="0.5" y2="30"/><line opacity="0.2" x1="480.41093952138874" x2="480.41093952138874" y1="0.5" y2="30"/><line opacity="0.2" x1="404.63493014942827" x2="404.63493014942827" y1="0.5" y2="30"/><line opacity="0.2" x1="328.3799445706464" x2="328.3799445706464" y1="0.5" y2="30"/><line opacity="0.2" x1="229.63797443400486" x2="229.63797443400486" y1="0.5" y2="30"/><line opacity="0.2" x1="156.75439603290192" x2="156.75439603290192" y1="0.5" y2="30"/><line opacity="0.2" x1="330.2092248534492" x2="330.2092248534492" y1="0.5" y2="30"/><line opacity="0.2" x1="352.9017930862966" x2="352.9017930862966" y1="0.5" y2="30"/><line opacity="0.2" x1="301.39860731568723" x2="301.39860731568723" y1="0.5" y2="30"/><line opacity="0.2" x1="302.4834137688257" x2="302.4834137688257" y1="0.5" y2="30"/><line opacity="0.2" x1="345.7841637189639" x2="345.7841637189639" y1="0.5" y2="30"/><line opacity="0.2" x1="289.80657332400074" x2="289.80657332400074" y1="0.5" y2="30"/><line opacity="0.2" x1="406.14050051298034" x2="406.14050051298034" y1="0.5" y2="30"/><line opacity="0.2" x1="335.926568567408" x2="335.926568567408" y1="0.5" y2="30"/><line opacity="0.2" x1="366.7925318473716" x2="366.7925318473716" y1="0.5" y2="30"/><line opacity="0.2" x1="370.78333459980644" x2="370.78333459980644" y1="0.5" y2="30"/><line opacity="0.2" x1="327.04300806835056" x2="327.04300806835056" y1="0.5" y2="30"/><line opacity="0.2" x1="370.9016670861926" x2="370.9016670861926" y1="0.5" y2="30"/><line opacity="0.2" x1="320.1358229006437" x2="320.1358229006437" y1="0.5" y2="30"/><line opacity="0.2" x1="279.48145587121394" x2="279.48145587121394" y1="0.5" y2="30"/><line opacity="0.2" x1="334.15459672848215" x2="334.15459672848215" y1="0.5" y2="30"/><line opacity="0.2" x1="336.4493458319652" x2="336.4493458319652" y1="0.5" y2="30"/><line opacity="0.2" x1="268.90301018375004" x2="268.90301018375004" y1="0.5" y2="30"/><line opacity="0.2" x1="220.09418222680083" x2="220.09418222680083" y1="0.5" y2="30"/><line opacity="0.2" x1="257.21436793333777" x2="257.21436793333777" y1="0.5" y2="30"/><line opacity="0.2" x1="368.2310503798282" x2="368.2310503798282" y1="0.5" y2="30"/><line opacity="0.2" x1="322.630412044871" x2="322.630412044871" y1="0.5" y2="30"/><line opacity="0.2" x1="222.38581121546167" x2="222.38581121546167" y1="0.5" y2="30"/><line opacity="0.2" x1="293.9833636772743" x2="293.9833636772743" y1="0.5" y2="30"/><line opacity="0.2" x1="400.6984034267493" x2="400.6984034267493" y1="0.5" y2="30"/><line opacity="0.2" x1="334.3042042018006" x2="334.3042042018006" y1="0.5" y2="30"/><line opacity="0.2" x1="248.5287571633516" x2="248.5287571633516" y1="0.5" y2="30"/><line opacity="0.2" x1="386.4716367075786" x2="386.4716367075786" y1="0.5" y2="30"/><line opacity="0.2" x1="440.13372504827" x2="440.13372504827" y1="0.5" y2="30"/><line opacity="0.2" x1="310.8110080284148" x2="310.8110080284148" y1="0.5" y2="30"/><line opacity="0.2" x1="413.5624022406605" x2="413.5624022406605" y1="0.5" y2="30"/><line opacity="0.2" x1="376.2822544706989" x2="376.2822544706989" y1="0.5" y2="30"/><line opacity="0.2" x1="469.03257915189715" x2="469.03257915189715" y1="0.5" y2="30"/><line opacity="0.2" x1="323.8991019768676" x2="323.8991019768676" y1="0.5" y2="30"/><line opacity="0.2" x1="366.40996146415966" x2="366.40996146415966" y1="0.5" y2="30"/><line opacity="0.2" x1="173.85147128745177" x2="173.85147128745177" y1="0.5" y2="30"/><line opacity="0.2" x1="383.89139911119577" x2="383.89139911119577" y1="0.5" y2="30"/><line opacity="0.2" x1="391.5804135063517" x2="391.5804135063517" y1="0.5" y2="30"/><line opacity="0.2" x1="191.07508126322998" x2="191.07508126322998" y1="0.5" y2="30"/><line opacity="0.2" x1="313.09460068677686" x2="313.09460068677686" y1="0.5" y2="30"/><line opacity="0.2" x1="425.42077636187753" x2="425.42077636187753" y1="0.5" y2="30"/><line opacity="0.2" x1="269.1073247797756" x2="269.1073247797756" y1="0.5" y2="30"/><line opacity="0.2" x1="521.0213764043284" x2="521.0213764043284" y1="0.5" y2="30"/><line opacity="0.2" x1="572.5320473944055" x2="572.5320473944055" y1="0.5" y2="30"/><line opacity="0.2" x1="319.77328349524316" x2="319.77328349524316" y1="0.5" y2="30"/><line opacity="0.2" x1="87.25066899774183" x2="87.25066899774183" y1="0.5" y2="30"/><line opacity="0.2" x1="297.51572499242525" x2="297.51572499242525" y1="0.5" y2="30"/><line opacity="0.2" x1="299.8407754024648" x2="299.8407754024648" y1="0.5" y2="30"/><line opacity="0.2" x1="345.19024086655526" x2="345.19024086655526" y1="0.5" y2="30"/><line opacity="0.2" x1="361.0559418149519" x2="361.0559418149519" y1="0.5" y2="30"/><line opacity="0.2" x1="416.77962203783966" x2="416.77962203783966" y1="0.5" y2="30"/><line opacity="0.2" x1="250.34954872946764" x2="250.34954872946764" y1="0.5" y2="30"/><line opacity="0.2" x1="368.0373251565469" x2="368.0373251565469" y1="0.5" y2="30"/><line opacity="0.2" x1="443.30083637718053" x2="443.30083637718053" y1="0.5" y2="30"/><line opacity="0.2" x1="505.1346216330008" x2="505.1346216330008" y1="0.5" y2="30"/><line opacity="0.2" x1="350.3554423646581" x2="350.3554423646581" y1="0.5" y2="30"/><line opacity="0.2" x1="346.64401574259495" x2="346.64401574259495" y1="0.5" y2="30"/><line opacity="0.2" x1="284.51488538948286" x2="284.51488538948286" y1="0.5" y2="30"/><line opacity="0.2" x1="326.5617685653189" x2="326.5617685653189" y1="0.5" y2="30"/><line opacity="0.2" x1="364.0929354577723" x2="364.0929354577723" y1="0.5" y2="30"/><line opacity="0.2" x1="298.56641646751706" x2="298.56641646751706" y1="0.5" y2="30"/><line opacity="0.2" x1="297.90578691611535" x2="297.90578691611535" y1="0.5" y2="30"/><line opacity="0.2" x1="310.6397885525286" x2="310.6397885525286" y1="0.5" y2="30"/><line opacity="0.2" x1="221.5414849556042" x2="221.5414849556042" y1="0.5" y2="30"/><line opacity="0.2" x1="296.8603100720212" x2="296.8603100720212" y1="0.5" y2="30"/><line opacity="0.2" x1="374.1963856427287" x2="374.1963856427287" y1="0.5" y2="30"/><line opacity="0.2" x1="295.03662200196004" x2="295.03662200196004" y1="0.5" y2="30"/><line opacity="0.2" x1="348.9420108667033" x2="348.9420108667033" y1="0.5" y2="30"/><line opacity="0.2" x1="326.86856496375407" x2="326.86856496375407" y1="0.5" y2="30"/><line opacity="0.2" x1="386.5326547072197" x2="386.5326547072197" y1="0.5" y2="30"/><line opacity="0.2" x1="313.88723746044553" x2="313.88723746044553" y1="0.5" y2="30"/><line opacity="0.2" x1="181.97681246887188" x2="181.97681246887188" y1="0.5" y2="30"/><line opacity="0.2" x1="378.9187350844194" x2="378.9187350844194" y1="0.5" y2="30"/><line opacity="0.2" x1="255.24397487840255" x2="255.24397487840255" y1="0.5" y2="30"/><line opacity="0.2" x1="301.1086443149962" x2="301.1086443149962" y1="0.5" y2="30"/><line opacity="0.2" x1="315.7431214499754" x2="315.7431214499754" y1="0.5" y2="30"/><line opacity="0.2" x1="298.98324300785447" x2="298.98324300785447" y1="0.5" y2="30"/><line opacity="0.2" x1="359.3026343316441" x2="359.3026343316441" y1="0.5" y2="30"/><line opacity="0.2" x1="385.04641572058927" x2="385.04641572058927" y1="0.5" y2="30"/><line opacity="0.2" x1="366.4809194483365" x2="366.4809194483365" y1="0.5" y2="30"/><line opacity="0.2" x1="331.6937497530503" x2="331.6937497530503" y1="0.5" y2="30"/><line opacity="0.2" x1="266.667568068767" x2="266.667568068767" y1="0.5" y2="30"/><line opacity="0.2" x1="226.80401489644774" x2="226.80401489644774" y1="0.5" y2="30"/><line opacity="0.2" x1="393.2057098992575" x2="393.2057098992575" y1="0.5" y2="30"/><line opacity="0.2" x1="193.2003234235617" x2="193.2003234235617" y1="0.5" y2="30"/><line opacity="0.2" x1="338.28099515921525" x2="338.28099515921525" y1="0.5" y2="30"/><line opacity="0.2" x1="328.0863127995219" x2="328.0863127995219" y1="0.5" y2="30"/><line opacity="0.2" x1="336.0244380287384" x2="336.0244380287384" y1="0.5" y2="30"/><line opacity="0.2" x1="104.40779452551078" x2="104.40779452551078" y1="0.5" y2="30"/><line opacity="0.2" x1="267.21303577147535" x2="267.21303577147535" y1="0.5" y2="30"/><line opacity="0.2" x1="351.4679200890128" x2="351.4679200890128" y1="0.5" y2="30"/><line opacity="0.2" x1="247.1153004289134" x2="247.1153004289134" y1="0.5" y2="30"/><line opacity="0.2" x1="255.51403031237942" x2="255.51403031237942" y1="0.5" y2="30"/><line opacity="0.2" x1="316.1816961080979" x2="316.1816961080979" y1="0.5" y2="30"/><line opacity="0.2" x1="426.9520578461353" x2="426.9520578461353" y1="0.5" y2="30"/><line opacity="0.2" x1="408.7033635371611" x2="408.7033635371611" y1="0.5" y2="30"/><line opacity="0.2" x1="98.66076578510169" x2="98.66076578510169" y1="0.5" y2="30"/><line opacity="0.2" x1="257.8603380082462" x2="257.8603380082462" y1="0.5" y2="30"/><line opacity="0.2" x1="376.3967955432522" x2="376.3967955432522" y1="0.5" y2="30"/><line opacity="0.2" x1="295.28758365946726" x2="295.28758365946726" y1="0.5" y2="30"/><line opacity="0.2" x1="226.30297660013215" x2="226.30297660013215" y1="0.5" y2="30"/><line opacity="0.2" x1="258.44765167598274" x2="258.44765167598274" y1="0.5" y2="30"/><line opacity="0.2" x1="316.06503534127984" x2="316.06503534127984" y1="0.5" y2="30"/><line opacity="0.2" x1="355.0759255652714" x2="355.0759255652714" y1="0.5" y2="30"/><line opacity="0.2" x1="192.77660039504715" x2="192.77660039504715" y1="0.5" y2="30"/><line opacity="0.2" x1="318.7671621575365" x2="318.7671621575365" y1="0.5" y2="30"/><line opacity="0.2" x1="376.70598205084366" x2="376.70598205084366" y1="0.5" y2="30"/><line opacity="0.2" x1="388.41169634622867" x2="388.41169634622867" y1="0.5" y2="30"/><line opacity="0.2" x1="376.4135178947288" x2="376.4135178947288" y1="0.5" y2="30"/><line opacity="0.2" x1="314.39524106580086" x2="314.39524106580086" y1="0.5" y2="30"/><line opacity="0.2" x1="365.92588066280007" x2="365.92588066280007" y1="0.5" y2="30"/><line opacity="0.2" x1="252.54240393965196" x2="252.54240393965196" y1="0.5" y2="30"/><line opacity="0.2" x1="232.66409823398226" x2="232.66409823398226" y1="0.5" y2="30"/><line opacity="0.2" x1="437.5300248040901" x2="437.5300248040901" y1="0.5" y2="30"/><line opacity="0.2" x1="220.6610165766367" x2="220.6610165766367" y1="0.5" y2="30"/><line opacity="0.2" x1="343.94505392886816" x2="343.94505392886816" y1="0.5" y2="30"/><line opacity="0.2" x1="285.663374231688" x2="285.663374231688" y1="0.5" y2="30"/><line opacity="0.2" x1="346.2095890033461" x2="346.2095890033461" y1="0.5" y2="30"/><line opacity="0.2" x1="186.8252357456757" x2="186.8252357456757" y1="0.5" y2="30"/><line opacity="0.2" x1="351.93878778091903" x2="351.93878778091903" y1="0.5" y2="30"/><line opacity="0.2" x1="372.0902065520184" x2="372.0902065520184" y1="0.5" y2="30"/><line opacity="0.2" x1="399.51041700511763" x2="399.51041700511763" y1="0.5" y2="30"/><line opacity="0.2" x1="327.0216873829265" x2="327.0216873829265" y1="0.5" y2="30"/><line opacity="0.2" x1="301.0276007617528" x2="301.0276007617528" y1="0.5" y2="30"/><line opacity="0.2" x1="295.0249243693981" x2="295.0249243693981" y1="0.5" y2="30"/><line opacity="0.2" x1="406.33118316551827" x2="406.33118316551827" y1="0.5" y2="30"/><line opacity="0.2" x1="453.8360480903188" x2="453.8360480903188" y1="0.5" y2="30"/><line opacity="0.2" x1="381.4124720947104" x2="381.4124720947104" y1="0.5" y2="30"/><line opacity="0.2" x1="234.4243318507926" x2="234.4243318507926" y1="0.5" y2="30"/><line opacity="0.2" x1="357.1918167229188" x2="357.1918167229188" y1="0.5" y2="30"/><line opacity="0.2" x1="321.1598363775539" x2="321.1598363775539" y1="0.5" y2="30"/><line opacity="0.2" x1="342.47747881563646" x2="342.47747881563646" y1="0.5" y2="30"/><line opacity="0.2" x1="300.9415803367397" x2="300.9415803367397" y1="0.5" y2="30"/><line opacity="0.2" x1="402.907314524963" x2="402.907314524963" y1="0.5" y2="30"/><line opacity="0.2" x1="378.0120421401385" x2="378.0120421401385" y1="0.5" y2="30"/><line opacity="0.2" x1="380.12039862030645" x2="380.12039862030645" y1="0.5" y2="30"/><line opacity="0.2" x1="466.99419901692403" x2="466.99419901692403" y1="0.5" y2="30"/><line opacity="0.2" x1="266.2338100218456" x2="266.2338100218456" y1="0.5" y2="30"/><line opacity="0.2" x1="237.86953344985147" x2="237.86953344985147" y1="0.5" y2="30"/><line opacity="0.2" x1="380.99255862369455" x2="380.99255862369455" y1="0.5" y2="30"/><line opacity="0.2" x1="349.0129254189576" x2="349.0129254189576" y1="0.5" y2="30"/><line opacity="0.2" x1="346.40538888398385" x2="346.40538888398385" y1="0.5" y2="30"/><line opacity="0.2" x1="337.76701133769734" x2="337.76701133769734" y1="0.5" y2="30"/><line opacity="0.2" x1="307.1286398992141" x2="307.1286398992141" y1="0.5" y2="30"/><line opacity="0.2" x1="368.42829859251964" x2="368.42829859251964" y1="0.5" y2="30"/><line opacity="0.2" x1="259.11933660711907" x2="259.11933660711907" y1="0.5" y2="30"/><line opacity="0.2" x1="409.8662385736846" x2="409.8662385736846" y1="0.5" y2="30"/><line opacity="0.2" x1="314.1659041438321" x2="314.1659041438321" y1="0.5" y2="30"/><line opacity="0.2" x1="427.7347371353532" x2="427.7347371353532" y1="0.5" y2="30"/><line opacity="0.2" x1="416.8636864294466" x2="416.8636864294466" y1="0.5" y2="30"/><line opacity="0.2" x1="361.0186458420426" x2="361.0186458420426" y1="0.5" y2="30"/><line opacity="0.2" x1="304.91231719894563" x2="304.91231719894563" y1="0.5" y2="30"/><line opacity="0.2" x1="210.52324986677164" x2="210.52324986677164" y1="0.5" y2="30"/><line opacity="0.2" x1="124.11231940622562" x2="124.11231940622562" y1="0.5" y2="30"/><line opacity="0.2" x1="388.9455651524649" x2="388.9455651524649" y1="0.5" y2="30"/><line opacity="0.2" x1="324.27067134999646" x2="324.27067134999646" y1="0.5" y2="30"/><line opacity="0.2" x1="261.41819268883404" x2="261.41819268883404" y1="0.5" y2="30"/><line opacity="0.2" x1="259.33251992611923" x2="259.33251992611923" y1="0.5" y2="30"/><line opacity="0.2" x1="264.20370017434163" x2="264.20370017434163" y1="0.5" y2="30"/><line opacity="0.2" x1="273.0589567868997" x2="273.0589567868997" y1="0.5" y2="30"/><line opacity="0.2" x1="269.66113430741365" x2="269.66113430741365" y1="0.5" y2="30"/><line opacity="0.2" x1="399.92363962164666" x2="399.92363962164666" y1="0.5" y2="30"/><line opacity="0.2" x1="470.98622764325023" x2="470.98622764325023" y1="0.5" y2="30"/><line opacity="0.2" x1="373.8140085040354" x2="373.8140085040354" y1="0.5" y2="30"/><line opacity="0.2" x1="376.6006476057984" x2="376.6006476057984" y1="0.5" y2="30"/><line opacity="0.2" x1="397.1762483088693" x2="397.1762483088693" y1="0.5" y2="30"/><line opacity="0.2" x1="294.8397558685479" x2="294.8397558685479" y1="0.5" y2="30"/><line opacity="0.2" x1="101.86941669839241" x2="101.86941669839241" y1="0.5" y2="30"/><line opacity="0.2" x1="343.65822998258153" x2="343.65822998258153" y1="0.5" y2="30"/><line opacity="0.2" x1="324.9949848760852" x2="324.9949848760852" y1="0.5" y2="30"/><line opacity="0.2" x1="304.7851682797891" x2="304.7851682797891" y1="0.5" y2="30"/><line opacity="0.2" x1="458.6321524670296" x2="458.6321524670296" y1="0.5" y2="30"/><line opacity="0.2" x1="255.5373102549181" x2="255.5373102549181" y1="0.5" y2="30"/><line opacity="0.2" x1="385.34651055479856" x2="385.34651055479856" y1="0.5" y2="30"/><line opacity="0.2" x1="168.54998908390965" x2="168.54998908390965" y1="0.5" y2="30"/><line opacity="0.2" x1="298.73271550424766" x2="298.73271550424766" y1="0.5" y2="30"/><line opacity="0.2" x1="126.2962224369648" x2="126.2962224369648" y1="0.5" y2="30"/><line opacity="0.2" x1="135.34322214314184" x2="135.34322214314184" y1="0.5" y2="30"/><line opacity="0.2" x1="355.2382589711731" x2="355.2382589711731" y1="0.5" y2="30"/><line opacity="0.2" x1="207.35662599767926" x2="207.35662599767926" y1="0.5" y2="30"/><line opacity="0.2" x1="254.44533515810124" x2="254.44533515810124" y1="0.5" y2="30"/><line opacity="0.2" x1="362.4116693059739" x2="362.4116693059739" y1="0.5" y2="30"/><line opacity="0.2" x1="333.6136741115238" x2="333.6136741115238" y1="0.5" y2="30"/><line opacity="0.2" x1="271.9272914423446" x2="271.9272914423446" y1="0.5" y2="30"/><line opacity="0.2" x1="341.1922403061676" x2="341.1922403061676" y1="0.5" y2="30"/><line opacity="0.2" x1="341.7480578458554" x2="341.7480578458554" y1="0.5" y2="30"/><line opacity="0.2" x1="340.5923202294204" x2="340.5923202294204" y1="0.5" y2="30"/><line opacity="0.2" x1="366.64191113849716" x2="366.64191113849716" y1="0.5" y2="30"/><line opacity="0.2" x1="379.35646805242527" x2="379.35646805242527" y1="0.5" y2="30"/><line opacity="0.2" x1="393.1427135014088" x2="393.1427135014088" y1="0.5" y2="30"/><line opacity="0.2" x1="362.0503274581426" x2="362.0503274581426" y1="0.5" y2="30"/><line opacity="0.2" x1="258.06575618876553" x2="258.06575618876553" y1="0.5" y2="30"/><line opacity="0.2" x1="292.4233875101029" x2="292.4233875101029" y1="0.5" y2="30"/><line opacity="0.2" x1="285.7562609931318" x2="285.7562609931318" y1="0.5" y2="30"/><line opacity="0.2" x1="336.83342581818994" x2="336.83342581818994" y1="0.5" y2="30"/><line opacity="0.2" x1="322.1244520519578" x2="322.1244520519578" y1="0.5" y2="30"/><line opacity="0.2" x1="339.2522758739482" x2="339.2522758739482" y1="0.5" y2="30"/><line opacity="0.2" x1="250.96029713743792" x2="250.96029713743792" y1="0.5" y2="30"/><line opacity="0.2" x1="321.7241237907592" x2="321.7241237907592" y1="0.5" y2="30"/><line opacity="0.2" x1="253.97295743570618" x2="253.97295743570618" y1="0.5" y2="30"/><line opacity="0.2" x1="254.21058458963083" x2="254.21058458963083" y1="0.5" y2="30"/><line opacity="0.2" x1="269.8530064326334" x2="269.8530064326334" y1="0.5" y2="30"/><line opacity="0.2" x1="308.2969855158673" x2="308.2969855158673" y1="0.5" y2="30"/><line opacity="0.2" x1="254.82422516589824" x2="254.82422516589824" y1="0.5" y2="30"/><line opacity="0.2" x1="262.5926570264584" x2="262.5926570264584" y1="0.5" y2="30"/><line opacity="0.2" x1="372.47881519167527" x2="372.47881519167527" y1="0.5" y2="30"/><line opacity="0.2" x1="394.28414832099384" x2="394.28414832099384" y1="0.5" y2="30"/><line opacity="0.2" x1="255.42281755671587" x2="255.42281755671587" y1="0.5" y2="30"/><line opacity="0.2" x1="378.1810957300109" x2="378.1810957300109" y1="0.5" y2="30"/><line opacity="0.2" x1="241.4926343670625" x2="241.4926343670625" y1="0.5" y2="30"/><line opacity="0.2" x1="338.93559371489266" x2="338.93559371489266" y1="0.5" y2="30"/><line opacity="0.2" x1="316.7376923190987" x2="316.7376923190987" y1="0.5" y2="30"/><line opacity="0.2" x1="331.84390478912206" x2="331.84390478912206" y1="0.5" y2="30"/><line opacity="0.2" x1="179.21659833346285" x2="179.21659833346285" y1="0.5" y2="30"/><line opacity="0.2" x1="261.0441394864069" x2="261.0441394864069" y1="0.5" y2="30"/><line opacity="0.2" x1="304.9262569223847" x2="304.9262569223847" y1="0.5" y2="30"/><line opacity="0.2" x1="320.4873068286474" x2="320.4873068286474" y1="0.5" y2="30"/><line opacity="0.2" x1="379.2282669496323" x2="379.2282669496323" y1="0.5" y2="30"/><line opacity="0.2" x1="270.24922869291555" x2="270.24922869291555" y1="0.5" y2="30"/><line opacity="0.2" x1="382.21493232798264" x2="382.21493232798264" y1="0.5" y2="30"/><line opacity="0.2" x1="330.27411245880245" x2="330.27411245880245" y1="0.5" y2="30"/><line opacity="0.2" x1="332.74837636330034" x2="332.74837636330034" y1="0.5" y2="30"/><line opacity="0.2" x1="299.16663436392287" x2="299.16663436392287" y1="0.5" y2="30"/><line opacity="0.2" x1="229.94021298085227" x2="229.94021298085227" y1="0.5" y2="30"/><line opacity="0.2" x1="235.70034664258867" x2="235.70034664258867" y1="0.5" y2="30"/><line opacity="0.2" x1="311.28373202352697" x2="311.28373202352697" y1="0.5" y2="30"/><line opacity="0.2" x1="240.31915182771704" x2="240.31915182771704" y1="0.5" y2="30"/><line opacity="0.2" x1="318.878819337425" x2="318.878819337425" y1="0.5" y2="30"/><line opacity="0.2" x1="214.61837643571965" x2="214.61837643571965" y1="0.5" y2="30"/><line opacity="0.2" x1="390.95672380906893" x2="390.95672380906893" y1="0.5" y2="30"/><line opacity="0.2" x1="255.4006738857376" x2="255.4006738857376" y1="0.5" y2="30"/><line opacity="0.2" x1="354.0667119177068" x2="354.0667119177068" y1="0.5" y2="30"/><line opacity="0.2" x1="257.34803924246313" x2="257.34803924246313" y1="0.5" y2="30"/><line opacity="0.2" x1="292.99953202315186" x2="292.99953202315186" y1="0.5" y2="30"/><line opacity="0.2" x1="284.70105436588136" x2="284.70105436588136" y1="0.5" y2="30"/><line opacity="0.2" x1="362.87233419842465" x2="362.87233419842465" y1="0.5" y2="30"/><line opacity="0.2" x1="295.1948555738259" x2="295.1948555738259" y1="0.5" y2="30"/><line opacity="0.2" x1="338.99018457400723" x2="338.99018457400723" y1="0.5" y2="30"/><line opacity="0.2" x1="287.05554562168544" x2="287.05554562168544" y1="0.5" y2="30"/><line opacity="0.2" x1="244.2992539408395" x2="244.2992539408395" y1="0.5" y2="30"/><line opacity="0.2" x1="346.79202666774694" x2="346.79202666774694" y1="0.5" y2="30"/><line opacity="0.2" x1="472.9609824913184" x2="472.9609824913184" y1="0.5" y2="30"/><line opacity="0.2" x1="247.57545728856945" x2="247.57545728856945" y1="0.5" y2="30"/><line opacity="0.2" x1="358.7137970758083" x2="358.7137970758083" y1="0.5" y2="30"/><line opacity="0.2" x1="389.0869393621335" x2="389.0869393621335" y1="0.5" y2="30"/><line opacity="0.2" x1="364.4067204988469" x2="364.4067204988469" y1="0.5" y2="30"/><line opacity="0.2" x1="204.21371854802592" x2="204.21371854802592" y1="0.5" y2="30"/><line opacity="0.2" x1="272.86748530391856" x2="272.86748530391856" y1="0.5" y2="30"/><line opacity="0.2" x1="238.1014717485144" x2="238.1014717485144" y1="0.5" y2="30"/><line opacity="0.2" x1="401.68762116547725" x2="401.68762116547725" y1="0.5" y2="30"/><line opacity="0.2" x1="350.56717526482277" x2="350.56717526482277" y1="0.5" y2="30"/><line opacity="0.2" x1="393.5776990271868" x2="393.5776990271868" y1="0.5" y2="30"/><line opacity="0.2" x1="148.3343171980926" x2="148.3343171980926" y1="0.5" y2="30"/><line opacity="0.2" x1="397.23812852958775" x2="397.23812852958775" y1="0.5" y2="30"/><line opacity="0.2" x1="306.8132490890973" x2="306.8132490890973" y1="0.5" y2="30"/><line opacity="0.2" x1="509.6482273116751" x2="509.6482273116751" y1="0.5" y2="30"/><line opacity="0.2" x1="356.159531330987" x2="356.159531330987" y1="0.5" y2="30"/><line opacity="0.2" x1="151.75237451532254" x2="151.75237451532254" y1="0.5" y2="30"/><line opacity="0.2" x1="240.5883861773992" x2="240.5883861773992" y1="0.5" y2="30"/><line opacity="0.2" x1="294.76490250696924" x2="294.76490250696924" y1="0.5" y2="30"/><line opacity="0.2" x1="304.1834128294468" x2="304.1834128294468" y1="0.5" y2="30"/><line opacity="0.2" x1="292.4252015572713" x2="292.4252015572713" y1="0.5" y2="30"/><line opacity="0.2" x1="285.74594997060774" x2="285.74594997060774" y1="0.5" y2="30"/><line opacity="0.2" x1="232.8864783289878" x2="232.8864783289878" y1="0.5" y2="30"/><line opacity="0.2" x1="368.26289647217425" x2="368.26289647217425" y1="0.5" y2="30"/><line opacity="0.2" x1="285.046391681761" x2="285.046391681761" y1="0.5" y2="30"/><line opacity="0.2" x1="330.96739455617933" x2="330.96739455617933" y1="0.5" y2="30"/><line opacity="0.2" x1="254.35120931178102" x2="254.35120931178102" y1="0.5" y2="30"/><line opacity="0.2" x1="287.189327819577" x2="287.189327819577" y1="0.5" y2="30"/><line opacity="0.2" x1="393.6788625251131" x2="393.6788625251131" y1="0.5" y2="30"/><line opacity="0.2" x1="324.79723750822694" x2="324.79723750822694" y1="0.5" y2="30"/><line opacity="0.2" x1="286.7535568222708" x2="286.7535568222708" y1="0.5" y2="30"/><line opacity="0.2" x1="272.15758209084595" x2="272.15758209084595" y1="0.5" y2="30"/><line opacity="0.2" x1="442.80954589311807" x2="442.80954589311807" y1="0.5" y2="30"/><line opacity="0.2" x1="301.08794235286825" x2="301.08794235286825" y1="0.5" y2="30"/><line opacity="0.2" x1="190.23551414622392" x2="190.23551414622392" y1="0.5" y2="30"/><line opacity="0.2" x1="392.9608186470744" x2="392.9608186470744" y1="0.5" y2="30"/><line opacity="0.2" x1="465.30869757684263" x2="465.30869757684263" y1="0.5" y2="30"/><line opacity="0.2" x1="407.3998170825033" x2="407.3998170825033" y1="0.5" y2="30"/><line opacity="0.2" x1="275.2538451240579" x2="275.2538451240579" y1="0.5" y2="30"/><line opacity="0.2" x1="309.69642631474824" x2="309.69642631474824" y1="0.5" y2="30"/><line opacity="0.2" x1="328.3525156960776" x2="328.3525156960776" y1="0.5" y2="30"/><line opacity="0.2" x1="224.25567290619884" x2="224.25567290619884" y1="0.5" y2="30"/><line opacity="0.2" x1="351.79846203454383" x2="351.79846203454383" y1="0.5" y2="30"/><line opacity="0.2" x1="312.8133654932612" x2="312.8133654932612" y1="0.5" y2="30"/><line opacity="0.2" x1="421.1530918763715" x2="421.1530918763715" y1="0.5" y2="30"/><line opacity="0.2" x1="230.015502300907" x2="230.015502300907" y1="0.5" y2="30"/><line opacity="0.2" x1="285.1870452971852" x2="285.1870452971852" y1="0.5" y2="30"/><line opacity="0.2" x1="360.56705787488426" x2="360.56705787488426" y1="0.5" y2="30"/><line opacity="0.2" x1="310.2638340347914" x2="310.2638340347914" y1="0.5" y2="30"/><line opacity="0.2" x1="551.7294984014846" x2="551.7294984014846" y1="0.5" y2="30"/><line opacity="0.2" x1="252.00626589818074" x2="252.00626589818074" y1="0.5" y2="30"/><line opacity="0.2" x1="253.19783077822368" x2="253.19783077822368" y1="0.5" y2="30"/><line opacity="0.2" x1="286.04640428285273" x2="286.04640428285273" y1="0.5" y2="30"/><line opacity="0.2" x1="466.54384095543986" x2="466.54384095543986" y1="0.5" y2="30"/><line opacity="0.2" x1="372.22851389055376" x2="372.22851389055376" y1="0.5" y2="30"/><line opacity="0.2" x1="335.6825676082487" x2="335.6825676082487" y1="0.5" y2="30"/><line opacity="0.2" x1="249.86486438264546" x2="249.86486438264546" y1="0.5" y2="30"/><line opacity="0.2" x1="260.94513236582253" x2="260.94513236582253" y1="0.5" y2="30"/><line opacity="0.2" x1="254.73023062062705" x2="254.73023062062705" y1="0.5" y2="30"/><line opacity="0.2" x1="227.4336976120717" x2="227.4336976120717" y1="0.5" y2="30"/><line opacity="0.2" x1="279.77778934627" x2="279.77778934627" y1="0.5" y2="30"/><line opacity="0.2" x1="397.070622291578" x2="397.070622291578" y1="0.5" y2="30"/><line opacity="0.2" x1="297.6832608348342" x2="297.6832608348342" y1="0.5" y2="30"/><line opacity="0.2" x1="417.11760978692587" x2="417.11760978692587" y1="0.5" y2="30"/><line opacity="0.2" x1="231.9194365079042" x2="231.9194365079042" y1="0.5" y2="30"/><line opacity="0.2" x1="212.954327499617" x2="212.954327499617" y1="0.5" y2="30"/><line opacity="0.2" x1="169.96199238238353" x2="169.96199238238353" y1="0.5" y2="30"/><line opacity="0.2" x1="324.13340383557704" x2="324.13340383557704" y1="0.5" y2="30"/><line opacity="0.2" x1="347.79115568382673" x2="347.79115568382673" y1="0.5" y2="30"/><line opacity="0.2" x1="254.2442110747816" x2="254.2442110747816" y1="0.5" y2="30"/><line opacity="0.2" x1="371.28355346688153" x2="371.28355346688153" y1="0.5" y2="30"/><line opacity="0.2" x1="344.2542174647724" x2="344.2542174647724" y1="0.5" y2="30"/><line opacity="0.2" x1="365.4627486875784" x2="365.4627486875784" y1="0.5" y2="30"/><line opacity="0.2" x1="437.787855775909" x2="437.787855775909" y1="0.5" y2="30"/><line opacity="0.2" x1="405.1215468879988" x2="405.1215468879988" y1="0.5" y2="30"/><line opacity="0.2" x1="399.3854340557579" x2="399.3854340557579" y1="0.5" y2="30"/><line opacity="0.2" x1="397.06285756197803" x2="397.06285756197803" y1="0.5" y2="30"/><line opacity="0.2" x1="262.94804503877066" x2="262.94804503877066" y1="0.5" y2="30"/><line opacity="0.2" x1="377.6818804684264" x2="377.6818804684264" y1="0.5" y2="30"/><line opacity="0.2" x1="258.8424337140508" x2="258.8424337140508" y1="0.5" y2="30"/><line opacity="0.2" x1="303.61020391879794" x2="303.61020391879794" y1="0.5" y2="30"/><line opacity="0.2" x1="365.9002978496349" x2="365.9002978496349" y1="0.5" y2="30"/><line opacity="0.2" x1="212.59998865565845" x2="212.59998865565845" y1="0.5" y2="30"/><line opacity="0.2" x1="333.470360274394" x2="333.470360274394" y1="0.5" y2="30"/><line opacity="0.2" x1="290.444025572879" x2="290.444025572879" y1="0.5" y2="30"/><line opacity="0.2" x1="304.61895137547197" x2="304.61895137547197" y1="0.5" y2="30"/><line opacity="0.2" x1="305.37920655481037" x2="305.37920655481037" y1="0.5" y2="30"/><line opacity="0.2" x1="377.7461717452971" x2="377.7461717452971" y1="0.5" y2="30"/><line opacity="0.2" x1="327.78324105511786" x2="327.78324105511786" y1="0.5" y2="30"/><line opacity="0.2" x1="432.3660923213979" x2="432.3660923213979" y1="0.5" y2="30"/><line opacity="0.2" x1="250.90529406556192" x2="250.90529406556192" y1="0.5" y2="30"/><line opacity="0.2" x1="250.02850349385324" x2="250.02850349385324" y1="0.5" y2="30"/><line opacity="0.2" x1="249.868616901207" x2="249.868616901207" y1="0.5" y2="30"/><line opacity="0.2" x1="374.485791479552" x2="374.485791479552" y1="0.5" y2="30"/><line opacity="0.2" x1="147.63083050021316" x2="147.63083050021316" y1="0.5" y2="30"/><line opacity="0.2" x1="318.95309515770657" x2="318.95309515770657" y1="0.5" y2="30"/><line opacity="0.2" x1="318.7578758269067" x2="318.7578758269067" y1="0.5" y2="30"/><line opacity="0.2" x1="20" x2="20" y1="0.5" y2="30"/><line opacity="0.2" x1="301.3086275261514" x2="301.3086275261514" y1="0.5" y2="30"/><line opacity="0.2" x1="228.72905540519892" x2="228.72905540519892" y1="0.5" y2="30"/><line opacity="0.2" x1="288.2495205796208" x2="288.2495205796208" y1="0.5" y2="30"/><line opacity="0.2" x1="423.1231976377905" x2="423.1231976377905" y1="0.5" y2="30"/><line opacity="0.2" x1="357.01782457286845" x2="357.01782457286845" y1="0.5" y2="30"/><line opacity="0.2" x1="259.6073482804109" x2="259.6073482804109" y1="0.5" y2="30"/><line opacity="0.2" x1="289.0781047153305" x2="289.0781047153305" y1="0.5" y2="30"/><line opacity="0.2" x1="286.4661818892167" x2="286.4661818892167" y1="0.5" y2="30"/><line opacity="0.2" x1="355.47356330516516" x2="355.47356330516516" y1="0.5" y2="30"/><line opacity="0.2" x1="336.0985599254522" x2="336.0985599254522" y1="0.5" y2="30"/><line opacity="0.2" x1="348.4885247481037" x2="348.4885247481037" y1="0.5" y2="30"/><line opacity="0.2" x1="329.0960483342972" x2="329.0960483342972" y1="0.5" y2="30"/><line opacity="0.2" x1="327.71456749904956" x2="327.71456749904956" y1="0.5" y2="30"/><line opacity="0.2" x1="198.29965519796207" x2="198.29965519796207" y1="0.5" y2="30"/><line opacity="0.2" x1="161.21852367241002" x2="161.21852367241002" y1="0.5" y2="30"/><line opacity="0.2" x1="234.54559040888833" x2="234.54559040888833" y1="0.5" y2="30"/><line opacity="0.2" x1="356.0795454263625" x2="356.0795454263625" y1="0.5" y2="30"/><line opacity="0.2" x1="305.986946687376" x2="305.986946687376" y1="0.5" y2="30"/><line opacity="0.2" x1="417.67209799256244" x2="417.67209799256244" y1="0.5" y2="30"/><line opacity="0.2" x1="249.89626689900837" x2="249.89626689900837" y1="0.5" y2="30"/><line opacity="0.2" x1="259.02963686067375" x2="259.02963686067375" y1="0.5" y2="30"/><line opacity="0.2" x1="352.61537773723757" x2="352.61537773723757" y1="0.5" y2="30"/><line opacity="0.2" x1="409.4031717760627" x2="409.4031717760627" y1="0.5" y2="30"/><line opacity="0.2" x1="353.6185060329485" x2="353.6185060329485" y1="0.5" y2="30"/><line opacity="0.2" x1="535.5351985741729" x2="535.5351985741729" y1="0.5" y2="30"/><line opacity="0.2" x1="175.07414385123377" x2="175.07414385123377" y1="0.5" y2="30"/><line opacity="0.2" x1="354.7327459826655" x2="354.7327459826655" y1="0.5" y2="30"/><line opacity="0.2" x1="401.2349417354578" x2="401.2349417354578" y1="0.5" y2="30"/><line opacity="0.2" x1="256.2614369483513" x2="256.2614369483513" y1="0.5" y2="30"/><line opacity="0.2" x1="234.2230614949352" x2="234.2230614949352" y1="0.5" y2="30"/><line opacity="0.2" x1="276.8153664475722" x2="276.8153664475722" y1="0.5" y2="30"/><line opacity="0.2" x1="449.5756800276039" x2="449.5756800276039" y1="0.5" y2="30"/><line opacity="0.2" x1="317.27705307529465" x2="317.27705307529465" y1="0.5" y2="30"/><line opacity="0.2" x1="378.2536452682848" x2="378.2536452682848" y1="0.5" y2="30"/><line opacity="0.2" x1="319.5161440918515" x2="319.5161440918515" y1="0.5" y2="30"/><line opacity="0.2" x1="459.39186877288694" x2="459.39186877288694" y1="0.5" y2="30"/><line opacity="0.2" x1="306.3376885931912" x2="306.3376885931912" y1="0.5" y2="30"/><line opacity="0.2" x1="355.2932335980219" x2="355.2932335980219" y1="0.5" y2="30"/><line opacity="0.2" x1="326.1692167015207" x2="326.1692167015207" y1="0.5" y2="30"/><line opacity="0.2" x1="307.61968257508346" x2="307.61968257508346" y1="0.5" y2="30"/><line opacity="0.2" x1="446.25857908525836" x2="446.25857908525836" y1="0.5" y2="30"/><line opacity="0.2" x1="287.0089502605905" x2="287.0089502605905" y1="0.5" y2="30"/><line opacity="0.2" x1="377.67546440499945" x2="377.67546440499945" y1="0.5" y2="30"/><line opacity="0.2" x1="355.826588394494" x2="355.826588394494" y1="0.5" y2="30"/><line opacity="0.2" x1="321.8646957496608" x2="321.8646957496608" y1="0.5" y2="30"/><line opacity="0.2" x1="342.69192885745287" x2="342.69192885745287" y1="0.5" y2="30"/><line opacity="0.2" x1="231.31486994612766" x2="231.31486994612766" y1="0.5" y2="30"/><line opacity="0.2" x1="398.77388870835904" x2="398.77388870835904" y1="0.5" y2="30"/><line opacity="0.2" x1="308.9980459020594" x2="308.9980459020594" y1="0.5" y2="30"/><line opacity="0.2" x1="291.26884872756176" x2="291.26884872756176" y1="0.5" y2="30"/><line opacity="0.2" x1="253.7264578846712" x2="253.7264578846712" y1="0.5" y2="30"/><line opacity="0.2" x1="447.4912983138622" x2="447.4912983138622" y1="0.5" y2="30"/><line opacity="0.2" x1="368.5628286766134" x2="368.5628286766134" y1="0.5" y2="30"/><line opacity="0.2" x1="204.2344830587151" x2="204.2344830587151" y1="0.5" y2="30"/><line opacity="0.2" x1="273.89679426966205" x2="273.89679426966205" y1="0.5" y2="30"/><line opacity="0.2" x1="332.92145579341394" x2="332.92145579341394" y1="0.5" y2="30"/><line opacity="0.2" x1="338.463028707514" x2="338.463028707514" y1="0.5" y2="30"/><line opacity="0.2" x1="298.0110240007379" x2="298.0110240007379" y1="0.5" y2="30"/><line opacity="0.2" x1="229.80219399824563" x2="229.80219399824563" y1="0.5" y2="30"/><line opacity="0.2" x1="340.60917255695415" x2="340.60917255695415" y1="0.5" y2="30"/><line opacity="0.2" x1="296.71934474096497" x2="296.71934474096497" y1="0.5" y2="30"/><line opacity="0.2" x1="233.3718614095213" x2="233.3718614095213" y1="0.5" y2="30"/><line opacity="0.2" x1="467.19912045383546" x2="467.19912045383546" y1="0.5" y2="30"/><line opacity="0.2" x1="300.94763332218287" x2="300.94763332218287" y1="0.5" y2="30"/><line opacity="0.2" x1="236.80508387868625" x2="236.80508387868625" y1="0.5" y2="30"/><line opacity="0.2" x1="358.5868812666189" x2="358.5868812666189" y1="0.5" y2="30"/><line opacity="0.2" x1="353.573194972438" x2="353.573194972438" y1="0.5" y2="30"/><line opacity="0.2" x1="285.2203829970464" x2="285.2203829970464" y1="0.5" y2="30"/><line opacity="0.2" x1="215.7970769538065" x2="215.7970769538065" y1="0.5" y2="30"/><line opacity="0.2" x1="389.06794404106756" x2="389.06794404106756" y1="0.5" y2="30"/><line opacity="0.2" x1="316.3925448397134" x2="316.3925448397134" y1="0.5" y2="30"/><line opacity="0.2" x1="344.6378431188775" x2="344.6378431188775" y1="0.5" y2="30"/><line opacity="0.2" x1="322.03822258772186" x2="322.03822258772186" y1="0.5" y2="30"/><line opacity="0.2" x1="278.0755767993479" x2="278.0755767993479" y1="0.5" y2="30"/><line opacity="0.2" x1="383.9473446878261" x2="383.9473446878261" y1="0.5" y2="30"/><line opacity="0.2" x1="217.20162325495113" x2="217.20162325495113" y1="0.5" y2="30"/><line opacity="0.2" x1="292.8573673694017" x2="292.8573673694017" y1="0.5" y2="30"/><line opacity="0.2" x1="375.5509346276712" x2="375.5509346276712" y1="0.5" y2="30"/><line opacity="0.2" x1="252.00895179806892" x2="252.00895179806892" y1="0.5" y2="30"/><line opacity="0.2" x1="338.29402047825124" x2="338.29402047825124" y1="0.5" y2="30"/><line opacity="0.2" x1="182.65172689197163" x2="182.65172689197163" y1="0.5" y2="30"/><line opacity="0.2" x1="407.1881806063657" x2="407.1881806063657" y1="0.5" y2="30"/><line opacity="0.2" x1="278.81942873715457" x2="278.81942873715457" y1="0.5" y2="30"/><line opacity="0.2" x1="297.1062193681467" x2="297.1062193681467" y1="0.5" y2="30"/><line opacity="0.2" x1="297.6783063441885" x2="297.6783063441885" y1="0.5" y2="30"/><line opacity="0.2" x1="202.10404824646736" x2="202.10404824646736" y1="0.5" y2="30"/><line opacity="0.2" x1="246.75566680452954" x2="246.75566680452954" y1="0.5" y2="30"/><line opacity="0.2" x1="239.44114060262157" x2="239.44114060262157" y1="0.5" y2="30"/><line opacity="0.2" x1="367.393096064165" x2="367.393096064165" y1="0.5" y2="30"/><line opacity="0.2" x1="315.9670322808294" x2="315.9670322808294" y1="0.5" y2="30"/><line opacity="0.2" x1="246.16671705294672" x2="246.16671705294672" y1="0.5" y2="30"/><line opacity="0.2" x1="374.58109826320316" x2="374.58109826320316" y1="0.5" y2="30"/><line opacity="0.2" x1="315.15205235889755" x2="315.15205235889755" y1="0.5" y2="30"/><line opacity="0.2" x1="311.67536869526026" x2="311.67536869526026" y1="0.5" y2="30"/><line opacity="0.2" x1="281.7523964038832" x2="281.7523964038832" y1="0.5" y2="30"/><line opacity="0.2" x1="399.2514871946129" x2="399.2514871946129" y1="0.5" y2="30"/><line opacity="0.2" x1="288.308056824076" x2="288.308056824076" y1="0.5" y2="30"/><line opacity="0.2" x1="317.4935357879835" x2="317.4935357879835" y1="0.5" y2="30"/><line opacity="0.2" x1="386.2043702349958" x2="386.2043702349958" y1="0.5" y2="30"/><line opacity="0.2" x1="226.13559537926167" x2="226.13559537926167" y1="0.5" y2="30"/><line opacity="0.2" x1="266.6646927623311" x2="266.6646927623311" y1="0.5" y2="30"/><line opacity="0.2" x1="347.7740913594798" x2="347.7740913594798" y1="0.5" y2="30"/><line opacity="0.2" x1="443.734674259756" x2="443.734674259756" y1="0.5" y2="30"/><line opacity="0.2" x1="166.08558663209487" x2="166.08558663209487" y1="0.5" y2="30"/><line opacity="0.2" x1="236.50112117535872" x2="236.50112117535872" y1="0.5" y2="30"/><line opacity="0.2" x1="389.0423708641573" x2="389.0423708641573" y1="0.5" y2="30"/><line opacity="0.2" x1="335.56274163365663" x2="335.56274163365663" y1="0.5" y2="30"/><line opacity="0.2" x1="204.09358166928865" x2="204.09358166928865" y1="0.5" y2="30"/><line opacity="0.2" x1="351.77148082544534" x2="351.77148082544534" y1="0.5" y2="30"/><line opacity="0.2" x1="166.33873680739308" x2="166.33873680739308" y1="0.5" y2="30"/><line opacity="0.2" x1="396.02247197656123" x2="396.02247197656123" y1="0.5" y2="30"/><line opacity="0.2" x1="283.55088785102487" x2="283.55088785102487" y1="0.5" y2="30"/><line opacity="0.2" x1="371.85041042880835" x2="371.85041042880835" y1="0.5" y2="30"/><line opacity="0.2" x1="365.32143680374554" x2="365.32143680374554" y1="0.5" y2="30"/><line opacity="0.2" x1="223.37309740306574" x2="223.37309740306574" y1="0.5" y2="30"/><line opacity="0.2" x1="311.05954820918805" x2="311.05954820918805" y1="0.5" y2="30"/><line opacity="0.2" x1="229.12747290015955" x2="229.12747290015955" y1="0.5" y2="30"/><line opacity="0.2" x1="332.94795867597725" x2="332.94795867597725" y1="0.5" y2="30"/><line opacity="0.2" x1="292.87120620793667" x2="292.87120620793667" y1="0.5" y2="30"/><line opacity="0.2" x1="210.7183038564279" x2="210.7183038564279" y1="0.5" y2="30"/><line opacity="0.2" x1="488.44881331726083" x2="488.44881331726083" y1="0.5" y2="30"/><line opacity="0.2" x1="343.5075084800923" x2="343.5075084800923" y1="0.5" y2="30"/><line opacity="0.2" x1="245.3639921724514" x2="245.3639921724514" y1="0.5" y2="30"/><line opacity="0.2" x1="395.36023526328955" x2="395.36023526328955" y1="0.5" y2="30"/><line opacity="0.2" x1="368.03321388792597" x2="368.03321388792597" y1="0.5" y2="30"/><line opacity="0.2" x1="327.7416213801835" x2="327.7416213801835" y1="0.5" y2="30"/><line opacity="0.2" x1="220.53423025953285" x2="220.53423025953285" y1="0.5" y2="30"/><line opacity="0.2" x1="204.8410005503818" x2="204.8410005503818" y1="0.5" y2="30"/><line opacity="0.2" x1="307.41539264192454" x2="307.41539264192454" y1="0.5" y2="30"/><line opacity="0.2" x1="310.4313506278653" x2="310.4313506278653" y1="0.5" y2="30"/><line opacity="0.2" x1="353.121418896699" x2="353.121418896699" y1="0.5" y2="30"/><line opacity="0.2" x1="374.40956563897913" x2="374.40956563897913" y1="0.5" y2="30"/><line opacity="0.2" x1="128.8475924580924" x2="128.8475924580924" y1="0.5" y2="30"/><line opacity="0.2" x1="227.38073342545124" x2="227.38073342545124" y1="0.5" y2="30"/><line opacity="0.2" x1="262.6179746498417" x2="262.6179746498417" y1="0.5" y2="30"/><line opacity="0.2" x1="356.283177590522" x2="356.283177590522" y1="0.5" y2="30"/><line opacity="0.2" x1="413.77965310147295" x2="413.77965310147295" y1="0.5" y2="30"/><line opacity="0.2" x1="379.3666453548194" x2="379.3666453548194" y1="0.5" y2="30"/><line opacity="0.2" x1="337.3471756863421" x2="337.3471756863421" y1="0.5" y2="30"/><line opacity="0.2" x1="359.3577188076819" x2="359.3577188076819" y1="0.5" y2="30"/><line opacity="0.2" x1="323.8989966863176" x2="323.8989966863176" y1="0.5" y2="30"/><line opacity="0.2" x1="211.5358533973707" x2="211.5358533973707" y1="0.5" y2="30"/><line opacity="0.2" x1="407.0747285245913" x2="407.0747285245913" y1="0.5" y2="30"/><line opacity="0.2" x1="306.8285964340063" x2="306.8285964340063" y1="0.5" y2="30"/><line opacity="0.2" x1="299.91354342491235" x2="299.91354342491235" y1="0.5" y2="30"/><line opacity="0.2" x1="363.88081267336275" x2="363.88081267336275" y1="0.5" y2="30"/><line opacity="0.2" x1="317.72851504957384" x2="317.72851504957384" y1="0.5" y2="30"/><line opacity="0.2" x1="301.9645693734588" x2="301.9645693734588" y1="0.5" y2="30"/><line opacity="0.2" x1="295.2027340827202" x2="295.2027340827202" y1="0.5" y2="30"/><line opacity="0.2" x1="386.69565036509925" x2="386.69565036509925" y1="0.5" y2="30"/><line opacity="0.2" x1="306.16699043933545" x2="306.16699043933545" y1="0.5" y2="30"/><line opacity="0.2" x1="301.1546771078061" x2="301.1546771078061" y1="0.5" y2="30"/><line opacity="0.2" x1="324.45153250684086" x2="324.45153250684086" y1="0.5" y2="30"/><line opacity="0.2" x1="193.23718934225244" x2="193.23718934225244" y1="0.5" y2="30"/><line opacity="0.2" x1="373.8868731296951" x2="373.8868731296951" y1="0.5" y2="30"/><line opacity="0.2" x1="216.2810218156371" x2="216.2810218156371" y1="0.5" y2="30"/><line opacity="0.2" x1="253.20659266687275" x2="253.20659266687275" y1="0.5" y2="30"/><line opacity="0.2" x1="355.9216913343157" x2="355.9216913343157" y1="0.5" y2="30"/><line opacity="0.2" x1="373.5669371937507" x2="373.5669371937507" y1="0.5" y2="30"/><line opacity="0.2" x1="240.19264503592711" x2="240.19264503592711" y1="0.5" y2="30"/><line opacity="0.2" x1="269.2517783401185" x2="269.2517783401185" y1="0.5" y2="30"/><line opacity="0.2" x1="339.4841232703152" x2="339.4841232703152" y1="0.5" y2="30"/><line opacity="0.2" x1="379.46353540970387" x2="379.46353540970387" y1="0.5" y2="30"/><line opacity="0.2" x1="349.25703294537567" x2="349.25703294537567" y1="0.5" y2="30"/><line opacity="0.2" x1="113.63563142703774" x2="113.63563142703774" y1="0.5" y2="30"/><line opacity="0.2" x1="169.83620205983053" x2="169.83620205983053" y1="0.5" y2="30"/><line opacity="0.2" x1="277.77542288054684" x2="277.77542288054684" y1="0.5" y2="30"/><line opacity="0.2" x1="384.5858757787719" x2="384.5858757787719" y1="0.5" y2="30"/><line opacity="0.2" x1="428.40759978078813" x2="428.40759978078813" y1="0.5" y2="30"/><line opacity="0.2" x1="325.4558294370363" x2="325.4558294370363" y1="0.5" y2="30"/><line opacity="0.2" x1="326.7627222835328" x2="326.7627222835328" y1="0.5" y2="30"/><line opacity="0.2" x1="213.34893553767455" x2="213.34893553767455" y1="0.5" y2="30"/><line opacity="0.2" x1="238.17221472563875" x2="238.17221472563875" y1="0.5" y2="30"/><line opacity="0.2" x1="162.75860349362176" x2="162.75860349362176" y1="0.5" y2="30"/><line opacity="0.2" x1="467.47237601899036" x2="467.47237601899036" y1="0.5" y2="30"/><line opacity="0.2" x1="342.77835973353564" x2="342.77835973353564" y1="0.5" y2="30"/><line opacity="0.2" x1="247.18719694672555" x2="247.18719694672555" y1="0.5" y2="30"/><line opacity="0.2" x1="331.25245940880615" x2="331.25245940880615" y1="0.5" y2="30"/><line opacity="0.2" x1="225.95686310262695" x2="225.95686310262695" y1="0.5" y2="30"/><line opacity="0.2" x1="272.17262455559285" x2="272.17262455559285" y1="0.5" y2="30"/><line opacity="0.2" x1="214.03351349770588" x2="214.03351349770588" y1="0.5" y2="30"/><line opacity="0.2" x1="359.2968871842314" x2="359.2968871842314" y1="0.5" y2="30"/><line opacity="0.2" x1="363.83410062107765" x2="363.83410062107765" y1="0.5" y2="30"/><line opacity="0.2" x1="188.80086423683767" x2="188.80086423683767" y1="0.5" y2="30"/><line opacity="0.2" x1="447.31872355185425" x2="447.31872355185425" y1="0.5" y2="30"/><line opacity="0.2" x1="450.52383898081763" x2="450.52383898081763" y1="0.5" y2="30"/><line opacity="0.2" x1="440.21277358604107" x2="440.21277358604107" y1="0.5" y2="30"/><line opacity="0.2" x1="319.32337413903355" x2="319.32337413903355" y1="0.5" y2="30"/><line opacity="0.2" x1="189.26297156270545" x2="189.26297156270545" y1="0.5" y2="30"/><line opacity="0.2" x1="458.8060719351965" x2="458.8060719351965" y1="0.5" y2="30"/><line opacity="0.2" x1="476.927387059436" x2="476.927387059436" y1="0.5" y2="30"/><line opacity="0.2" x1="339.69690089793517" x2="339.69690089793517" y1="0.5" y2="30"/><line opacity="0.2" x1="253.72557185581894" x2="253.72557185581894" y1="0.5" y2="30"/><line opacity="0.2" x1="389.06187862599194" x2="389.06187862599194" y1="0.5" y2="30"/><line opacity="0.2" x1="349.7039487694238" x2="349.7039487694238" y1="0.5" y2="30"/><line opacity="0.2" x1="240.53132438830784" x2="240.53132438830784" y1="0.5" y2="30"/><line opacity="0.2" x1="237.75738587320132" x2="237.75738587320132" y1="0.5" y2="30"/><line opacity="0.2" x1="394.2203173912615" x2="394.2203173912615" y1="0.5" y2="30"/><line opacity="0.2" x1="182.18570239951399" x2="182.18570239951399" y1="0.5" y2="30"/><line opacity="0.2" x1="308.38201141471444" x2="308.38201141471444" y1="0.5" y2="30"/><line opacity="0.2" x1="425.0356109596753" x2="425.0356109596753" y1="0.5" y2="30"/><line opacity="0.2" x1="222.70813961356077" x2="222.70813961356077" y1="0.5" y2="30"/><line opacity="0.2" x1="342.28001952747854" x2="342.28001952747854" y1="0.5" y2="30"/><line opacity="0.2" x1="336.56966656102304" x2="336.56966656102304" y1="0.5" y2="30"/><line opacity="0.2" x1="377.913155001237" x2="377.913155001237" y1="0.5" y2="30"/><line opacity="0.2" x1="326.44197568011253" x2="326.44197568011253" y1="0.5" y2="30"/><line opacity="0.2" x1="328.4294253159372" x2="328.4294253159372" y1="0.5" y2="30"/><line opacity="0.2" x1="339.0788203022653" x2="339.0788203022653" y1="0.5" y2="30"/><line opacity="0.2" x1="326.8724291507061" x2="326.8724291507061" y1="0.5" y2="30"/><line opacity="0.2" x1="230.55930701903188" x2="230.55930701903188" y1="0.5" y2="30"/><line opacity="0.2" x1="306.9812180329467" x2="306.9812180329467" y1="0.5" y2="30"/><line opacity="0.2" x1="444.7698228699345" x2="444.7698228699345" y1="0.5" y2="30"/><line opacity="0.2" x1="358.05852064341957" x2="358.05852064341957" y1="0.5" y2="30"/><line opacity="0.2" x1="180.93188116728635" x2="180.93188116728635" y1="0.5" y2="30"/><line opacity="0.2" x1="457.1995803734656" x2="457.1995803734656" y1="0.5" y2="30"/><line opacity="0.2" x1="251.0764799539443" x2="251.0764799539443" y1="0.5" y2="30"/><line opacity="0.2" x1="294.62578306002604" x2="294.62578306002604" y1="0.5" y2="30"/><line opacity="0.2" x1="219.69300918762258" x2="219.69300918762258" y1="0.5" y2="30"/><line opacity="0.2" x1="377.718775658549" x2="377.718775658549" y1="0.5" y2="30"/><line opacity="0.2" x1="325.6173595053608" x2="325.6173595053608" y1="0.5" y2="30"/><line opacity="0.2" x1="272.5086116967919" x2="272.5086116967919" y1="0.5" y2="30"/><line opacity="0.2" x1="380.7406426238764" x2="380.7406426238764" y1="0.5" y2="30"/><line opacity="0.2" x1="302.24061949131396" x2="302.24061949131396" y1="0.5" y2="30"/><line opacity="0.2" x1="360.0069938560584" x2="360.0069938560584" y1="0.5" y2="30"/><line opacity="0.2" x1="322.51358155780076" x2="322.51358155780076" y1="0.5" y2="30"/><line opacity="0.2" x1="352.43295886682193" x2="352.43295886682193" y1="0.5" y2="30"/><line opacity="0.2" x1="282.2364621806102" x2="282.2364621806102" y1="0.5" y2="30"/><line opacity="0.2" x1="293.8998302441429" x2="293.8998302441429" y1="0.5" y2="30"/><line opacity="0.2" x1="288.47592437663735" x2="288.47592437663735" y1="0.5" y2="30"/><line opacity="0.2" x1="263.55222562800105" x2="263.55222562800105" y1="0.5" y2="30"/><line opacity="0.2" x1="281.5998761794982" x2="281.5998761794982" y1="0.5" y2="30"/><line opacity="0.2" x1="419.8893784441816" x2="419.8893784441816" y1="0.5" y2="30"/><line opacity="0.2" x1="390.39146683426054" x2="390.39146683426054" y1="0.5" y2="30"/><line opacity="0.2" x1="304.93153479271336" x2="304.93153479271336" y1="0.5" y2="30"/><line opacity="0.2" x1="232.17926310990066" x2="232.17926310990066" y1="0.5" y2="30"/><line opacity="0.2" x1="372.1517532786418" x2="372.1517532786418" y1="0.5" y2="30"/><line opacity="0.2" x1="254.78454245012128" x2="254.78454245012128" y1="0.5" y2="30"/><line opacity="0.2" x1="315.8612731321642" x2="315.8612731321642" y1="0.5" y2="30"/><line opacity="0.2" x1="428.66154508583617" x2="428.66154508583617" y1="0.5" y2="30"/><line opacity="0.2" x1="433.56740550066604" x2="433.56740550066604" y1="0.5" y2="30"/><line opacity="0.2" x1="233.60274592995154" x2="233.60274592995154" y1="0.5" y2="30"/><line opacity="0.2" x1="186.85271176189727" x2="186.85271176189727" y1="0.5" y2="30"/><line opacity="0.2" x1="327.18860067033654" x2="327.18860067033654" y1="0.5" y2="30"/><line opacity="0.2" x1="362.1611264694779" x2="362.1611264694779" y1="0.5" y2="30"/><line opacity="0.2" x1="319.3960371665447" x2="319.3960371665447" y1="0.5" y2="30"/><line opacity="0.2" x1="325.8558548769133" x2="325.8558548769133" y1="0.5" y2="30"/><line opacity="0.2" x1="334.9787964369771" x2="334.9787964369771" y1="0.5" y2="30"/><line opacity="0.2" x1="240.29907197542198" x2="240.29907197542198" y1="0.5" y2="30"/><line opacity="0.2" x1="311.14416210831297" x2="311.14416210831297" y1="0.5" y2="30"/><line opacity="0.2" x1="326.4988681085291" x2="326.4988681085291" y1="0.5" y2="30"/><line opacity="0.2" x1="159.75408987935538" x2="159.75408987935538" y1="0.5" y2="30"/><line opacity="0.2" x1="137.57135090389178" x2="137.57135090389178" y1="0.5" y2="30"/><line opacity="0.2" x1="381.33296025039425" x2="381.33296025039425" y1="0.5" y2="30"/><line opacity="0.2" x1="206.73359552391105" x2="206.73359552391105" y1="0.5" y2="30"/><line opacity="0.2" x1="197.30464018275129" x2="197.30464018275129" y1="0.5" y2="30"/><line opacity="0.2" x1="234.67630465547643" x2="234.67630465547643" y1="0.5" y2="30"/><line opacity="0.2" x1="355.48225116794276" x2="355.48225116794276" y1="0.5" y2="30"/><line opacity="0.2" x1="354.48181365534543" x2="354.48181365534543" y1="0.5" y2="30"/><line opacity="0.2" x1="359.56147705617735" x2="359.56147705617735" y1="0.5" y2="30"/><line opacity="0.2" x1="231.045179486706" x2="231.045179486706" y1="0.5" y2="30"/><line opacity="0.2" x1="221.04862573666404" x2="221.04862573666404" y1="0.5" y2="30"/><line opacity="0.2" x1="412.3412644243534" x2="412.3412644243534" y1="0.5" y2="30"/><line opacity="0.2" x1="317.403231287143" x2="317.403231287143" y1="0.5" y2="30"/><line opacity="0.2" x1="396.3997116962711" x2="396.3997116962711" y1="0.5" y2="30"/><line opacity="0.2" x1="382.5761688643947" x2="382.5761688643947" y1="0.5" y2="30"/><line opacity="0.2" x1="282.93104256462533" x2="282.93104256462533" y1="0.5" y2="30"/><line opacity="0.2" x1="418.79455407052313" x2="418.79455407052313" y1="0.5" y2="30"/><line opacity="0.2" x1="242.18210200859914" x2="242.18210200859914" y1="0.5" y2="30"/><line opacity="0.2" x1="393.9700397776136" x2="393.9700397776136" y1="0.5" y2="30"/><line opacity="0.2" x1="344.32939644059775" x2="344.32939644059775" y1="0.5" y2="30"/><line opacity="0.2" x1="381.8316374910111" x2="381.8316374910111" y1="0.5" y2="30"/><line opacity="0.2" x1="390.34842438980826" x2="390.34842438980826" y1="0.5" y2="30"/><line opacity="0.2" x1="307.0140513809366" x2="307.0140513809366" y1="0.5" y2="30"/><line opacity="0.2" x1="350.09646694981024" x2="350.09646694981024" y1="0.5" y2="30"/><line opacity="0.2" x1="320.1489950209675" x2="320.1489950209675" y1="0.5" y2="30"/><line opacity="0.2" x1="354.47443170109005" x2="354.47443170109005" y1="0.5" y2="30"/><line opacity="0.2" x1="265.3873159266145" x2="265.3873159266145" y1="0.5" y2="30"/><line opacity="0.2" x1="491.6959087352075" x2="491.6959087352075" y1="0.5" y2="30"/><line opacity="0.2" x1="378.7007266309159" x2="378.7007266309159" y1="0.5" y2="30"/><line opacity="0.2" x1="484.8733270328397" x2="484.8733270328397" y1="0.5" y2="30"/><line opacity="0.2" x1="277.05936330611894" x2="277.05936330611894" y1="0.5" y2="30"/><line opacity="0.2" x1="295.01969761158887" x2="295.01969761158887" y1="0.5" y2="30"/><line opacity="0.2" x1="385.6584707395681" x2="385.6584707395681" y1="0.5" y2="30"/><line opacity="0.2" x1="520.0429263973116" x2="520.0429263973116" y1="0.5" y2="30"/><line opacity="0.2" x1="335.91096561413497" x2="335.91096561413497" y1="0.5" y2="30"/><line opacity="0.2" x1="320.4672524295867" x2="320.4672524295867" y1="0.5" y2="30"/><line opacity="0.2" x1="360.54745001548196" x2="360.54745001548196" y1="0.5" y2="30"/><line opacity="0.2" x1="246.9908191132877" x2="246.9908191132877" y1="0.5" y2="30"/><line opacity="0.2" x1="302.75671661511427" x2="302.75671661511427" y1="0.5" y2="30"/><line opacity="0.2" x1="427.4157209366968" x2="427.4157209366968" y1="0.5" y2="30"/><line opacity="0.2" x1="402.3852452216559" x2="402.3852452216559" y1="0.5" y2="30"/><line opacity="0.2" x1="400.35417721369487" x2="400.35417721369487" y1="0.5" y2="30"/><line opacity="0.2" x1="481.6964180242067" x2="481.6964180242067" y1="0.5" y2="30"/><line opacity="0.2" x1="339.14847931002373" x2="339.14847931002373" y1="0.5" y2="30"/><line opacity="0.2" x1="310.73509253740264" x2="310.73509253740264" y1="0.5" y2="30"/><line opacity="0.2" x1="396.8393006219868" x2="396.8393006219868" y1="0.5" y2="30"/><line opacity="0.2" x1="287.94601468135784" x2="287.94601468135784" y1="0.5" y2="30"/><line opacity="0.2" x1="245.83633882064652" x2="245.83633882064652" y1="0.5" y2="30"/><line opacity="0.2" x1="351.181584185115" x2="351.181584185115" y1="0.5" y2="30"/><line opacity="0.2" x1="268.2087221161534" x2="268.2087221161534" y1="0.5" y2="30"/><line opacity="0.2" x1="372.9576439963032" x2="372.9576439963032" y1="0.5" y2="30"/><line opacity="0.2" x1="377.3071768172501" x2="377.3071768172501" y1="0.5" y2="30"/><line opacity="0.2" x1="246.39350660606948" x2="246.39350660606948" y1="0.5" y2="30"/><line opacity="0.2" x1="510.1715466317914" x2="510.1715466317914" y1="0.5" y2="30"/><line opacity="0.2" x1="287.39822663005276" x2="287.39822663005276" y1="0.5" y2="30"/><line opacity="0.2" x1="350.3257042388686" x2="350.3257042388686" y1="0.5" y2="30"/><line opacity="0.2" x1="454.1606915974239" x2="454.1606915974239" y1="0.5" y2="30"/><line opacity="0.2" x1="233.71020397345845" x2="233.71020397345845" y1="0.5" y2="30"/><line opacity="0.2" x1="443.59256987465324" x2="443.59256987465324" y1="0.5" y2="30"/><line opacity="0.2" x1="372.21317510632406" x2="372.21317510632406" y1="0.5" y2="30"/><line opacity="0.2" x1="241.3450743430316" x2="241.3450743430316" y1="0.5" y2="30"/><line opacity="0.2" x1="335.67411172919833" x2="335.67411172919833" y1="0.5" y2="30"/><line opacity="0.2" x1="332.18766006107387" x2="332.18766006107387" y1="0.5" y2="30"/><line opacity="0.2" x1="195.6921141004123" x2="195.6921141004123" y1="0.5" y2="30"/><line opacity="0.2" x1="308.66602427211166" x2="308.66602427211166" y1="0.5" y2="30"/><line opacity="0.2" x1="493.851495431939" x2="493.851495431939" y1="0.5" y2="30"/><line opacity="0.2" x1="283.67114582713873" x2="283.67114582713873" y1="0.5" y2="30"/><line opacity="0.2" x1="412.9397941931535" x2="412.9397941931535" y1="0.5" y2="30"/><line opacity="0.2" x1="295.4676036247505" x2="295.4676036247505" y1="0.5" y2="30"/><line opacity="0.2" x1="303.49332976563943" x2="303.49332976563943" y1="0.5" y2="30"/><line opacity="0.2" x1="304.332895315437" x2="304.332895315437" y1="0.5" y2="30"/><line opacity="0.2" x1="420.8084763085362" x2="420.8084763085362" y1="0.5" y2="30"/><line opacity="0.2" x1="505.5563780914107" x2="505.5563780914107" y1="0.5" y2="30"/><line opacity="0.2" x1="279.85455158726296" x2="279.85455158726296" y1="0.5" y2="30"/><line opacity="0.2" x1="539.9453824161751" x2="539.9453824161751" y1="0.5" y2="30"/><line opacity="0.2" x1="371.70093817752996" x2="371.70093817752996" y1="0.5" y2="30"/><line opacity="0.2" x1="248.04445479877165" x2="248.04445479877165" y1="0.5" y2="30"/><line opacity="0.2" x1="318.18387705829264" x2="318.18387705829264" y1="0.5" y2="30"/><line opacity="0.2" x1="362.9696279777848" x2="362.9696279777848" y1="0.5" y2="30"/><line opacity="0.2" x1="414.3026680100388" x2="414.3026680100388" y1="0.5" y2="30"/><line opacity="0.2" x1="482.9253637327967" x2="482.9253637327967" y1="0.5" y2="30"/><line opacity="0.2" x1="194.1391919904513" x2="194.1391919904513" y1="0.5" y2="30"/><line opacity="0.2" x1="318.0223289922252" x2="318.0223289922252" y1="0.5" y2="30"/><line opacity="0.2" x1="372.8070891360143" x2="372.8070891360143" y1="0.5" y2="30"/><line opacity="0.2" x1="234.44048037434519" x2="234.44048037434519" y1="0.5" y2="30"/><line opacity="0.2" x1="244.1011392010318" x2="244.1011392010318" y1="0.5" y2="30"/><line opacity="0.2" x1="404.43173659769536" x2="404.43173659769536" y1="0.5" y2="30"/><line opacity="0.2" x1="239.48716609081382" x2="239.48716609081382" y1="0.5" y2="30"/><line opacity="0.2" x1="289.9411362688669" x2="289.9411362688669" y1="0.5" y2="30"/><line opacity="0.2" x1="323.0823793536325" x2="323.0823793536325" y1="0.5" y2="30"/><line opacity="0.2" x1="334.09586466723096" x2="334.09586466723096" y1="0.5" y2="30"/><line opacity="0.2" x1="351.21626630904746" x2="351.21626630904746" y1="0.5" y2="30"/><line opacity="0.2" x1="416.3840689783122" x2="416.3840689783122" y1="0.5" y2="30"/><line opacity="0.2" x1="186.8932952243109" x2="186.8932952243109" y1="0.5" y2="30"/><line opacity="0.2" x1="372.62129999011546" x2="372.62129999011546" y1="0.5" y2="30"/><line opacity="0.2" x1="358.0582920649347" x2="358.0582920649347" y1="0.5" y2="30"/><line opacity="0.2" x1="405.9834801479633" x2="405.9834801479633" y1="0.5" y2="30"/><line opacity="0.2" x1="217.25111039330085" x2="217.25111039330085" y1="0.5" y2="30"/><line opacity="0.2" x1="415.6787549444739" x2="415.6787549444739" y1="0.5" y2="30"/><line opacity="0.2" x1="307.8802391012777" x2="307.8802391012777" y1="0.5" y2="30"/><line opacity="0.2" x1="178.53548898820785" x2="178.53548898820785" y1="0.5" y2="30"/><line opacity="0.2" x1="328.0650968519873" x2="328.0650968519873" y1="0.5" y2="30"/><line opacity="0.2" x1="246.66613472383733" x2="246.66613472383733" y1="0.5" y2="30"/><line opacity="0.2" x1="298.2112101582144" x2="298.2112101582144" y1="0.5" y2="30"/><line opacity="0.2" x1="179.62897371282511" x2="179.62897371282511" y1="0.5" y2="30"/><line opacity="0.2" x1="156.03784851791053" x2="156.03784851791053" y1="0.5" y2="30"/><line opacity="0.2" x1="345.1368989368303" x2="345.1368989368303" y1="0.5" y2="30"/><line opacity="0.2" x1="444.82288076749165" x2="444.82288076749165" y1="0.5" y2="30"/><line opacity="0.2" x1="341.02765469669527" x2="341.02765469669527" y1="0.5" y2="30"/><line opacity="0.2" x1="380.0581585920053" x2="380.0581585920053" y1="0.5" y2="30"/><line opacity="0.2" x1="437.70590317926207" x2="437.70590317926207" y1="0.5" y2="30"/><line opacity="0.2" x1="263.85926458596015" x2="263.85926458596015" y1="0.5" y2="30"/><line opacity="0.2" x1="221.14669480327316" x2="221.14669480327316" y1="0.5" y2="30"/><line opacity="0.2" x1="319.8123141350927" x2="319.8123141350927" y1="0.5" y2="30"/><line opacity="0.2" x1="300.91593627095256" x2="300.91593627095256" y1="0.5" y2="30"/><line opacity="0.2" x1="384.56689559442316" x2="384.56689559442316" y1="0.5" y2="30"/><line opacity="0.2" x1="224.16971702011128" x2="224.16971702011128" y1="0.5" y2="30"/><line opacity="0.2" x1="357.23422569206167" x2="357.23422569206167" y1="0.5" y2="30"/><line opacity="0.2" x1="358.27578655461025" x2="358.27578655461025" y1="0.5" y2="30"/><line opacity="0.2" x1="317.5319656145278" x2="317.5319656145278" y1="0.5" y2="30"/><line opacity="0.2" x1="373.58104020296247" x2="373.58104020296247" y1="0.5" y2="30"/><line opacity="0.2" x1="454.20994548512635" x2="454.20994548512635" y1="0.5" y2="30"/><line opacity="0.2" x1="241.5403114818361" x2="241.5403114818361" y1="0.5" y2="30"/><line opacity="0.2" x1="245.1190888210841" x2="245.1190888210841" y1="0.5" y2="30"/><line opacity="0.2" x1="467.3198183764223" x2="467.3198183764223" y1="0.5" y2="30"/><line opacity="0.2" x1="235.4979454192384" x2="235.4979454192384" y1="0.5" y2="30"/><line opacity="0.2" x1="478.6398752927374" x2="478.6398752927374" y1="0.5" y2="30"/><line opacity="0.2" x1="370.31060401690746" x2="370.31060401690746" y1="0.5" y2="30"/><line opacity="0.2" x1="206.6937197640291" x2="206.6937197640291" y1="0.5" y2="30"/><line opacity="0.2" x1="351.827101722639" x2="351.827101722639" y1="0.5" y2="30"/><line opacity="0.2" x1="278.554023761942" x2="278.554023761942" y1="0.5" y2="30"/><line opacity="0.2" x1="319.2892905564871" x2="319.2892905564871" y1="0.5" y2="30"/><line opacity="0.2" x1="359.3426681348187" x2="359.3426681348187" y1="0.5" y2="30"/><line opacity="0.2" x1="448.8618192824861" x2="448.8618192824861" y1="0.5" y2="30"/><line opacity="0.2" x1="368.3383735900054" x2="368.3383735900054" y1="0.5" y2="30"/><line opacity="0.2" x1="333.57575477390276" x2="333.57575477390276" y1="0.5" y2="30"/><line opacity="0.2" x1="293.45283262898124" x2="293.45283262898124" y1="0.5" y2="30"/><line opacity="0.2" x1="314.2054357983036" x2="314.2054357983036" y1="0.5" y2="30"/><line opacity="0.2" x1="266.2349580918916" x2="266.2349580918916" y1="0.5" y2="30"/><line opacity="0.2" x1="321.56163665673176" x2="321.56163665673176" y1="0.5" y2="30"/><line opacity="0.2" x1="262.05835933317957" x2="262.05835933317957" y1="0.5" y2="30"/><line opacity="0.2" x1="357.10774866754855" x2="357.10774866754855" y1="0.5" y2="30"/><line opacity="0.2" x1="398.9743577828112" x2="398.9743577828112" y1="0.5" y2="30"/><line opacity="0.2" x1="333.4241740991358" x2="333.4241740991358" y1="0.5" y2="30"/><line opacity="0.2" x1="289.1352047211903" x2="289.1352047211903" y1="0.5" y2="30"/><line opacity="0.2" x1="410.3850131889335" x2="410.3850131889335" y1="0.5" y2="30"/><line opacity="0.2" x1="312.83081007286506" x2="312.83081007286506" y1="0.5" y2="30"/><line opacity="0.2" x1="360.91493761452034" x2="360.91493761452034" y1="0.5" y2="30"/><line opacity="0.2" x1="318.2533872086526" x2="318.2533872086526" y1="0.5" y2="30"/><line opacity="0.2" x1="371.45616050241586" x2="371.45616050241586" y1="0.5" y2="30"/><line opacity="0.2" x1="333.33860274403776" x2="333.33860274403776" y1="0.5" y2="30"/><line opacity="0.2" x1="398.50001350459917" x2="398.50001350459917" y1="0.5" y2="30"/><line opacity="0.2" x1="366.7118153369109" x2="366.7118153369109" y1="0.5" y2="30"/><line opacity="0.2" x1="290.755230153168" x2="290.755230153168" y1="0.5" y2="30"/><line opacity="0.2" x1="223.74733067651457" x2="223.74733067651457" y1="0.5" y2="30"/><line opacity="0.2" x1="208.45997985193657" x2="208.45997985193657" y1="0.5" y2="30"/><line opacity="0.2" x1="334.11843329090567" x2="334.11843329090567" y1="0.5" y2="30"/><line opacity="0.2" x1="434.43587575886636" x2="434.43587575886636" y1="0.5" y2="30"/><line opacity="0.2" x1="239.52001061945265" x2="239.52001061945265" y1="0.5" y2="30"/><line opacity="0.2" x1="279.92781847444115" x2="279.92781847444115" y1="0.5" y2="30"/><line opacity="0.2" x1="214.9661554624335" x2="214.9661554624335" y1="0.5" y2="30"/><line opacity="0.2" x1="266.63372226523376" x2="266.63372226523376" y1="0.5" y2="30"/><line opacity="0.2" x1="168.35733715978165" x2="168.35733715978165" y1="0.5" y2="30"/><line opacity="0.2" x1="235.56013630131662" x2="235.56013630131662" y1="0.5" y2="30"/><line opacity="0.2" x1="315.7791801188507" x2="315.7791801188507" y1="0.5" y2="30"/><line opacity="0.2" x1="413.8358634615285" x2="413.8358634615285" y1="0.5" y2="30"/><line opacity="0.2" x1="322.0000590139084" x2="322.0000590139084" y1="0.5" y2="30"/><line opacity="0.2" x1="302.61519418621776" x2="302.61519418621776" y1="0.5" y2="30"/><line opacity="0.2" x1="426.91890413009213" x2="426.91890413009213" y1="0.5" y2="30"/><line opacity="0.2" x1="317.20278032562777" x2="317.20278032562777" y1="0.5" y2="30"/><line opacity="0.2" x1="284.59704410642064" x2="284.59704410642064" y1="0.5" y2="30"/><line opacity="0.2" x1="391.35944960191546" x2="391.35944960191546" y1="0.5" y2="30"/><line opacity="0.2" x1="301.81683024175686" x2="301.81683024175686" y1="0.5" y2="30"/><line opacity="0.2" x1="256.18450095215627" x2="256.18450095215627" y1="0.5" y2="30"/><line opacity="0.2" x1="336.0961004320013" x2="336.0961004320013" y1="0.5" y2="30"/><line opacity="0.2" x1="373.53241712519537" x2="373.53241712519537" y1="0.5" y2="30"/><line opacity="0.2" x1="231.40532651733412" x2="231.40532651733412" y1="0.5" y2="30"/><line opacity="0.2" x1="356.45460103148815" x2="356.45460103148815" y1="0.5" y2="30"/><line opacity="0.2" x1="324.7891219080665" x2="324.7891219080665" y1="0.5" y2="30"/><line opacity="0.2" x1="405.47567446638567" x2="405.47567446638567" y1="0.5" y2="30"/><line opacity="0.2" x1="381.57588493720436" x2="381.57588493720436" y1="0.5" y2="30"/><line opacity="0.2" x1="344.59197500941775" x2="344.59197500941775" y1="0.5" y2="30"/><line opacity="0.2" x1="399.53061468468417" x2="399.53061468468417" y1="0.5" y2="30"/><line opacity="0.2" x1="293.7426454957116" x2="293.7426454957116" y1="0.5" y2="30"/><line opacity="0.2" x1="362.848370362582" x2="362.848370362582" y1="0.5" y2="30"/><line opacity="0.2" x1="267.00319968240143" x2="267.00319968240143" y1="0.5" y2="30"/><line opacity="0.2" x1="343.63742501871786" x2="343.63742501871786" y1="0.5" y2="30"/><line opacity="0.2" x1="236.51872147821763" x2="236.51872147821763" y1="0.5" y2="30"/><line opacity="0.2" x1="391.05633395685635" x2="391.05633395685635" y1="0.5" y2="30"/><line opacity="0.2" x1="418.7932243518141" x2="418.7932243518141" y1="0.5" y2="30"/><line opacity="0.2" x1="308.3512386975571" x2="308.3512386975571" y1="0.5" y2="30"/><line opacity="0.2" x1="300.4116504064017" x2="300.4116504064017" y1="0.5" y2="30"/><line opacity="0.2" x1="292.7360399686544" x2="292.7360399686544" y1="0.5" y2="30"/><line opacity="0.2" x1="357.75714562421234" x2="357.75714562421234" y1="0.5" y2="30"/><line opacity="0.2" x1="270.3843894921084" x2="270.3843894921084" y1="0.5" y2="30"/><line opacity="0.2" x1="298.94046601186295" x2="298.94046601186295" y1="0.5" y2="30"/><line opacity="0.2" x1="377.06399908884214" x2="377.06399908884214" y1="0.5" y2="30"/><line opacity="0.2" x1="391.86586357540386" x2="391.86586357540386" y1="0.5" y2="30"/><line opacity="0.2" x1="264.81373268223103" x2="264.81373268223103" y1="0.5" y2="30"/><line opacity="0.2" x1="352.5342305546462" x2="352.5342305546462" y1="0.5" y2="30"/><line opacity="0.2" x1="404.07865339191767" x2="404.07865339191767" y1="0.5" y2="30"/><line opacity="0.2" x1="337.7753901261339" x2="337.7753901261339" y1="0.5" y2="30"/><line opacity="0.2" x1="237.16059517542448" x2="237.16059517542448" y1="0.5" y2="30"/><line opacity="0.2" x1="589.7452894364213" x2="589.7452894364213" y1="0.5" y2="30"/><line opacity="0.2" x1="265.11941258812834" x2="265.11941258812834" y1="0.5" y2="30"/><line opacity="0.2" x1="342.60928311294714" x2="342.60928311294714" y1="0.5" y2="30"/><line opacity="0.2" x1="327.5096316423251" x2="327.5096316423251" y1="0.5" y2="30"/><line opacity="0.2" x1="281.573432866755" x2="281.573432866755" y1="0.5" y2="30"/><line opacity="0.2" x1="313.24247755997646" x2="313.24247755997646" y1="0.5" y2="30"/><line opacity="0.2" x1="403.87210593283424" x2="403.87210593283424" y1="0.5" y2="30"/><line opacity="0.2" x1="354.14747650077015" x2="354.14747650077015" y1="0.5" y2="30"/><line opacity="0.2" x1="245.85864779786507" x2="245.85864779786507" y1="0.5" y2="30"/><line opacity="0.2" x1="127.2162353903777" x2="127.2162353903777" y1="0.5" y2="30"/><line opacity="0.2" x1="150.57225730846537" x2="150.57225730846537" y1="0.5" y2="30"/><line opacity="0.2" x1="472.6428744846994" x2="472.6428744846994" y1="0.5" y2="30"/><line opacity="0.2" x1="304.8059168689393" x2="304.8059168689393" y1="0.5" y2="30"/><line opacity="0.2" x1="323.14069444483766" x2="323.14069444483766" y1="0.5" y2="30"/><line opacity="0.2" x1="208.72801615231867" x2="208.72801615231867" y1="0.5" y2="30"/><line opacity="0.2" x1="212.25890020106618" x2="212.25890020106618" y1="0.5" y2="30"/><line opacity="0.2" x1="311.6589739728243" x2="311.6589739728243" y1="0.5" y2="30"/><line opacity="0.2" x1="336.58459006759955" x2="336.58459006759955" y1="0.5" y2="30"/><line opacity="0.2" x1="220.558793456421" x2="220.558793456421" y1="0.5" y2="30"/><line opacity="0.2" x1="352.0505433590783" x2="352.0505433590783" y1="0.5" y2="30"/><line opacity="0.2" x1="225.3671493550922" x2="225.3671493550922" y1="0.5" y2="30"/><line opacity="0.2" x1="149.0866016274661" x2="149.0866016274661" y1="0.5" y2="30"/><line opacity="0.2" x1="267.22981736875204" x2="267.22981736875204" y1="0.5" y2="30"/><line opacity="0.2" x1="388.97456962135914" x2="388.97456962135914" y1="0.5" y2="30"/><line opacity="0.2" x1="323.6114518716934" x2="323.6114518716934" y1="0.5" y2="30"/><line opacity="0.2" x1="366.5033602096738" x2="366.5033602096738" y1="0.5" y2="30"/><line opacity="0.2" x1="515.0721629083448" x2="515.0721629083448" y1="0.5" y2="30"/><line opacity="0.2" x1="326.46692860666207" x2="326.46692860666207" y1="0.5" y2="30"/><line opacity="0.2" x1="362.21455362718774" x2="362.21455362718774" y1="0.5" y2="30"/><line opacity="0.2" x1="301.50902057420393" x2="301.50902057420393" y1="0.5" y2="30"/><line opacity="0.2" x1="387.45538160031447" x2="387.45538160031447" y1="0.5" y2="30"/><line opacity="0.2" x1="304.48568174750454" x2="304.48568174750454" y1="0.5" y2="30"/><line opacity="0.2" x1="389.9251404594293" x2="389.9251404594293" y1="0.5" y2="30"/><line opacity="0.2" x1="378.93825995715457" x2="378.93825995715457" y1="0.5" y2="30"/><line opacity="0.2" x1="273.60446701135857" x2="273.60446701135857" y1="0.5" y2="30"/><line opacity="0.2" x1="263.35939669973465" x2="263.35939669973465" y1="0.5" y2="30"/><line opacity="0.2" x1="425.21706152454755" x2="425.21706152454755" y1="0.5" y2="30"/><line opacity="0.2" x1="354.78556457700154" x2="354.78556457700154" y1="0.5" y2="30"/><line opacity="0.2" x1="420.8224833771529" x2="420.8224833771529" y1="0.5" y2="30"/><line opacity="0.2" x1="370.60405010850627" x2="370.60405010850627" y1="0.5" y2="30"/><line opacity="0.2" x1="318.7725201989625" x2="318.7725201989625" y1="0.5" y2="30"/><line opacity="0.2" x1="292.61312093392075" x2="292.61312093392075" y1="0.5" y2="30"/><line opacity="0.2" x1="387.3643498493756" x2="387.3643498493756" y1="0.5" y2="30"/><line opacity="0.2" x1="352.18801208053077" x2="352.18801208053077" y1="0.5" y2="30"/><line opacity="0.2" x1="395.3130739185395" x2="395.3130739185395" y1="0.5" y2="30"/><line opacity="0.2" x1="210.39548517869795" x2="210.39548517869795" y1="0.5" y2="30"/><line opacity="0.2" x1="186.62205230881648" x2="186.62205230881648" y1="0.5" y2="30"/><line opacity="0.2" x1="225.20964112674386" x2="225.20964112674386" y1="0.5" y2="30"/><line opacity="0.2" x1="284.6053402133844" x2="284.6053402133844" y1="0.5" y2="30"/><line opacity="0.2" x1="190.9882057477074" x2="190.9882057477074" y1="0.5" y2="30"/><line opacity="0.2" x1="300.5845723146011" x2="300.5845723146011" y1="0.5" y2="30"/><line opacity="0.2" x1="358.5969136519666" x2="358.5969136519666" y1="0.5" y2="30"/><line opacity="0.2" x1="234.57794318961734" x2="234.57794318961734" y1="0.5" y2="30"/><line opacity="0.2" x1="390.3707053639757" x2="390.3707053639757" y1="0.5" y2="30"/><line opacity="0.2" x1="403.4425198786252" x2="403.4425198786252" y1="0.5" y2="30"/><line opacity="0.2" x1="339.81905151954584" x2="339.81905151954584" y1="0.5" y2="30"/><line opacity="0.2" x1="221.36689712459759" x2="221.36689712459759" y1="0.5" y2="30"/><line opacity="0.2" x1="269.55131031534347" x2="269.55131031534347" y1="0.5" y2="30"/><line opacity="0.2" x1="230.95081849153013" x2="230.95081849153013" y1="0.5" y2="30"/><line opacity="0.2" x1="354.5649420337746" x2="354.5649420337746" y1="0.5" y2="30"/><line opacity="0.2" x1="403.20182089103383" x2="403.20182089103383" y1="0.5" y2="30"/><line opacity="0.2" x1="421.90970185318116" x2="421.90970185318116" y1="0.5" y2="30"/><line opacity="0.2" x1="310.23304445854103" x2="310.23304445854103" y1="0.5" y2="30"/><line opacity="0.2" x1="323.0916902246369" x2="323.0916902246369" y1="0.5" y2="30"/><line opacity="0.2" x1="427.6786069254733" x2="427.6786069254733" y1="0.5" y2="30"/><line opacity="0.2" x1="201.3827797724328" x2="201.3827797724328" y1="0.5" y2="30"/><line opacity="0.2" x1="375.38407121753596" x2="375.38407121753596" y1="0.5" y2="30"/><line opacity="0.2" x1="292.7689622660372" x2="292.7689622660372" y1="0.5" y2="30"/><line opacity="0.2" x1="418.80108315152916" x2="418.80108315152916" y1="0.5" y2="30"/><line opacity="0.2" x1="418.61372051238646" x2="418.61372051238646" y1="0.5" y2="30"/><line opacity="0.2" x1="275.9476768448547" x2="275.9476768448547" y1="0.5" y2="30"/><line opacity="0.2" x1="368.0723097604928" x2="368.0723097604928" y1="0.5" y2="30"/><line opacity="0.2" x1="355.7250049655509" x2="355.7250049655509" y1="0.5" y2="30"/><line opacity="0.2" x1="322.39565678025565" x2="322.39565678025565" y1="0.5" y2="30"/><line opacity="0.2" x1="177.88788962699255" x2="177.88788962699255" y1="0.5" y2="30"/><line opacity="0.2" x1="316.94895390705557" x2="316.94895390705557" y1="0.5" y2="30"/><line opacity="0.2" x1="316.8006048274401" x2="316.8006048274401" y1="0.5" y2="30"/><line opacity="0.2" x1="339.9134346904965" x2="339.9134346904965" y1="0.5" y2="30"/><line opacity="0.2" x1="207.31639518406837" x2="207.31639518406837" y1="0.5" y2="30"/><line opacity="0.2" x1="284.89790809299546" x2="284.89790809299546" y1="0.5" y2="30"/><line opacity="0.2" x1="329.51669694314353" x2="329.51669694314353" y1="0.5" y2="30"/><line opacity="0.2" x1="317.0223915355537" x2="317.0223915355537" y1="0.5" y2="30"/><line opacity="0.2" x1="219.6997333165856" x2="219.6997333165856" y1="0.5" y2="30"/><line opacity="0.2" x1="521.0161336689491" x2="521.0161336689491" y1="0.5" y2="30"/><line opacity="0.2" x1="283.30827499930297" x2="283.30827499930297" y1="0.5" y2="30"/><line opacity="0.2" x1="323.6507933571393" x2="323.6507933571393" y1="0.5" y2="30"/><line opacity="0.2" x1="325.13637713225654" x2="325.13637713225654" y1="0.5" y2="30"/><line opacity="0.2" x1="356.3808115850569" x2="356.3808115850569" y1="0.5" y2="30"/><line opacity="0.2" x1="446.56557126549836" x2="446.56557126549836" y1="0.5" y2="30"/><line opacity="0.2" x1="332.528763357415" x2="332.528763357415" y1="0.5" y2="30"/><line opacity="0.2" x1="349.4416849718583" x2="349.4416849718583" y1="0.5" y2="30"/><line opacity="0.2" x1="312.8402272231263" x2="312.8402272231263" y1="0.5" y2="30"/><line opacity="0.2" x1="332.341458905273" x2="332.341458905273" y1="0.5" y2="30"/><line opacity="0.2" x1="424.2131701054658" x2="424.2131701054658" y1="0.5" y2="30"/><line opacity="0.2" x1="399.55507959629284" x2="399.55507959629284" y1="0.5" y2="30"/><line opacity="0.2" x1="385.3641076296424" x2="385.3641076296424" y1="0.5" y2="30"/><line opacity="0.2" x1="367.0737583589098" x2="367.0737583589098" y1="0.5" y2="30"/><line opacity="0.2" x1="221.11282526632314" x2="221.11282526632314" y1="0.5" y2="30"/><line opacity="0.2" x1="431.4605173812931" x2="431.4605173812931" y1="0.5" y2="30"/><line opacity="0.2" x1="237.9706929213757" x2="237.9706929213757" y1="0.5" y2="30"/><line opacity="0.2" x1="244.030005375373" x2="244.030005375373" y1="0.5" y2="30"/><line opacity="0.2" x1="322.8444021531943" x2="322.8444021531943" y1="0.5" y2="30"/><line opacity="0.2" x1="264.97092250268827" x2="264.97092250268827" y1="0.5" y2="30"/><line opacity="0.2" x1="319.490331712683" x2="319.490331712683" y1="0.5" y2="30"/><line opacity="0.2" x1="279.0739554157305" x2="279.0739554157305" y1="0.5" y2="30"/><line opacity="0.2" x1="376.4745763148014" x2="376.4745763148014" y1="0.5" y2="30"/><line opacity="0.2" x1="196.1794470519305" x2="196.1794470519305" y1="0.5" y2="30"/><line opacity="0.2" x1="285.8827144888413" x2="285.8827144888413" y1="0.5" y2="30"/><line opacity="0.2" x1="374.72999072826116" x2="374.72999072826116" y1="0.5" y2="30"/><line opacity="0.2" x1="620" x2="620" y1="0.5" y2="30"/><line opacity="0.2" x1="349.35051399521814" x2="349.35051399521814" y1="0.5" y2="30"/><line opacity="0.2" x1="318.35536863705516" x2="318.35536863705516" y1="0.5" y2="30"/><line opacity="0.2" x1="338.47763333790533" x2="338.47763333790533" y1="0.5" y2="30"/><line opacity="0.2" x1="300.2706645616768" x2="300.2706645616768" y1="0.5" y2="30"/><line opacity="0.2" x1="303.6416150689208" x2="303.6416150689208" y1="0.5" y2="30"/><line opacity="0.2" x1="169.04756589675375" x2="169.04756589675375" y1="0.5" y2="30"/><line opacity="0.2" x1="301.1744842395144" x2="301.1744842395144" y1="0.5" y2="30"/><line opacity="0.2" x1="445.6967771855794" x2="445.6967771855794" y1="0.5" y2="30"/><line opacity="0.2" x1="422.9845290287724" x2="422.9845290287724" y1="0.5" y2="30"/><line opacity="0.2" x1="377.96958288499644" x2="377.96958288499644" y1="0.5" y2="30"/><line opacity="0.2" x1="532.3700869809792" x2="532.3700869809792" y1="0.5" y2="30"/><line opacity="0.2" x1="372.653067540457" x2="372.653067540457" y1="0.5" y2="30"/><line opacity="0.2" x1="337.2752070964873" x2="337.2752070964873" y1="0.5" y2="30"/><line opacity="0.2" x1="329.3695972382666" x2="329.3695972382666" y1="0.5" y2="30"/><line opacity="0.2" x1="290.23642924230893" x2="290.23642924230893" y1="0.5" y2="30"/><line opacity="0.2" x1="328.9969860171183" x2="328.9969860171183" y1="0.5" y2="30"/><line opacity="0.2" x1="397.76148773781" x2="397.76148773781" y1="0.5" y2="30"/><line opacity="0.2" x1="249.0953665196924" x2="249.0953665196924" y1="0.5" y2="30"/><line opacity="0.2" x1="269.3455349660493" x2="269.3455349660493" y1="0.5" y2="30"/><line opacity="0.2" x1="283.76448083200114" x2="283.76448083200114" y1="0.5" y2="30"/><line opacity="0.2" x1="204.891090399548" x2="204.891090399548" y1="0.5" y2="30"/><line opacity="0.2" x1="176.96226820884533" x2="176.96226820884533" y1="0.5" y2="30"/><line opacity="0.2" x1="188.71255231402435" x2="188.71255231402435" y1="0.5" y2="30"/><line opacity="0.2" x1="412.15676162495333" x2="412.15676162495333" y1="0.5" y2="30"/><line opacity="0.2" x1="328.51310678876234" x2="328.51310678876234" y1="0.5" y2="30"/><line opacity="0.2" x1="428.51042249791504" x2="428.51042249791504" y1="0.5" y2="30"/><line opacity="0.2" x1="246.45420627175747" x2="246.45420627175747" y1="0.5" y2="30"/><line opacity="0.2" x1="341.58218423603313" x2="341.58218423603313" y1="0.5" y2="30"/><line opacity="0.2" x1="271.0741497610769" x2="271.0741497610769" y1="0.5" y2="30"/><line opacity="0.2" x1="362.51945665352406" x2="362.51945665352406" y1="0.5" y2="30"/><line opacity="0.2" x1="344.84551972358895" x2="344.84551972358895" y1="0.5" y2="30"/><line opacity="0.2" x1="248.72378026499564" x2="248.72378026499564" y1="0.5" y2="30"/><line opacity="0.2" x1="95.19492380690909" x2="95.19492380690909" y1="0.5" y2="30"/><line opacity="0.2" x1="345.8277967199029" x2="345.8277967199029" y1="0.5" y2="30"/><line opacity="0.2" x1="311.9330476067193" x2="311.9330476067193" y1="0.5" y2="30"/><line opacity="0.2" x1="349.2657351447119" x2="349.2657351447119" y1="0.5" y2="30"/><line opacity="0.2" x1="348.2131610779338" x2="348.2131610779338" y1="0.5" y2="30"/><line opacity="0.2" x1="303.91043962522286" x2="303.91043962522286" y1="0.5" y2="30"/><line opacity="0.2" x1="435.70949317735864" x2="435.70949317735864" y1="0.5" y2="30"/><line opacity="0.2" x1="340.742702583923" x2="340.742702583923" y1="0.5" y2="30"/><line opacity="0.2" x1="282.0124379927525" x2="282.0124379927525" y1="0.5" y2="30"/><line opacity="0.2" x1="345.91337007723627" x2="345.91337007723627" y1="0.5" y2="30"/><line opacity="0.2" x1="205.44900962485116" x2="205.44900962485116" y1="0.5" y2="30"/><line opacity="0.2" x1="279.3558910517713" x2="279.3558910517713" y1="0.5" y2="30"/><line opacity="0.2" x1="282.1588852471758" x2="282.1588852471758" y1="0.5" y2="30"/><line opacity="0.2" x1="449.1785593364949" x2="449.1785593364949" y1="0.5" y2="30"/><line opacity="0.2" x1="357.5022350166266" x2="357.5022350166266" y1="0.5" y2="30"/><line opacity="0.2" x1="314.20439187818465" x2="314.20439187818465" y1="0.5" y2="30"/><line opacity="0.2" x1="224.70677994743255" x2="224.70677994743255" y1="0.5" y2="30"/><line opacity="0.2" x1="287.72218436051054" x2="287.72218436051054" y1="0.5" y2="30"/><line opacity="0.2" x1="326.06974423599416" x2="326.06974423599416" y1="0.5" y2="30"/><line opacity="0.2" x1="181.17441106757758" x2="181.17441106757758" y1="0.5" y2="30"/><line opacity="0.2" x1="285.17913193781175" x2="285.17913193781175" y1="0.5" y2="30"/><line opacity="0.2" x1="231.2518391830569" x2="231.2518391830569" y1="0.5" y2="30"/><line opacity="0.2" x1="360.4390909853888" x2="360.4390909853888" y1="0.5" y2="30"/><line opacity="0.2" x1="256.0409612575448" x2="256.0409612575448" y1="0.5" y2="30"/><line opacity="0.2" x1="261.87141134152347" x2="261.87141134152347" y1="0.5" y2="30"/><line opacity="0.2" x1="295.8240641806069" x2="295.8240641806069" y1="0.5" y2="30"/><line opacity="0.2" x1="389.80990388725667" x2="389.80990388725667" y1="0.5" y2="30"/><line opacity="0.2" x1="347.94440853081494" x2="347.94440853081494" y1="0.5" y2="30"/><line opacity="0.2" x1="245.46645436723364" x2="245.46645436723364" y1="0.5" y2="30"/></g></svg>