<svg xmlns="http://www.w3.org/2000/svg" xmlns:xlink="http://www.w3.org/1999/xlink" class="plot-d6a7b5" fill="currentColor" font-family="system-ui, sans-serif" font-size="10" text-anchor="middle" width="640" height="60" viewBox="0 0 640 60" style="color: black; background-color: white;"><style>.plot-d6a7b5 {
  display: block;
  background: white;
  height: auto;
  height: intrinsic;
  max-width: 100%;
}
.plot-d6a7b5 text,
.plot-d6a7b5 tspan {
  white-space: pre;
}</style><g aria-label="x-axis tick" fill="none" stroke="currentColor"><path transform="translate(117.29261649279425,30)" d="M0,0L0,6"/><path transform="translate(218.5603481992186,30)" d="M0,0L0,6"/><path transform="translate(319.82807990564294,30)" d="M0,0L0,6"/><path transform="translate(421.09581161206734,30)" d="M0,0L0,6"/><path transform="translate(522.3635433184917,30)" d="M0,0L0,6"/></g><g aria-label="x-axis tick label" font-variant="tabular-nums" transform="translate(0,9)"><text y="0.71em" transform="translate(117.29261649279425,30)">−2</text><text y="0.71em" transform="translate(218.5603481992186,30)">−1</text><text y="0.71em" transform="translate(319.82807990564294,30)">0</text><text y="0.71em" transform="translate(421.09581161206734,30)">1</text><text y="0.71em" transform="translate(522.3635433184917,30)">2</text></g><g aria-label="tick" stroke="steelblue"><line opacity="0.2" x1="252.36846531504355" x2="252.36846531504355" y1="0.5" y2="30"/><line opacity="0.2" x1="338.6141098886325" x2="338.6141098886325" y1="0.5" y2="30"/><line opacity="0.2" x1="308.4521682544372" x2="308.4521682544372" y1="0.5" y2="30"/><line opacity="0.2" x1="199.83655908752817" x2="199.83655908752817" y1="0.5" y2="30"/><line opacity="0.2" x1="228.92304499506744" x2="228.92304499506744" y1="0.5" y2="30"/><line opacity="0.2" x1="423.770390652085" x2="423.770390652085" y1="0.5" y2="30"/><line opacity="0.2" x1="295.3218915674011" x2="295.3218915674011" y1="0.5" y2="30"/><line opacity="0.2" x1="430.0708893970444" x2="430.0708893970444" y1="0.5" y2="30"/><line opacity="0.2" x1="231.52179010255801" x2="231.52179010255801" y1="0.5" y2="30"/><line opacity="0.2" x1="254.20328685112568" x2="254.20328685112568" y1="0.5" y2="30"/><line opacity="0.2" x1="479.4465582169285" x2="479.4465582169285" y1="0.5" y2="30"/><line opacity="0.2" x1="165.00966591418913" x2="165.00966591418913" y1="0.5" y2="30"/><line opacity="0.2" x1="421.8077099439878" x2="421.8077099439878" y1="0.5" y2="30"/><line opacity="0.2" x1="294.23332012609853" x2="294.23332012609853" y1="0.5" y2="30"/><line opacity="0.2" x1="271.35745936697907" x2="271.35745936697907" y1="0.5" y2="30"/><line opacity="0.2" x1="295.78480468371936" x2="295.78480468371936" y1="0.5" y2="30"/><line opacity="0.2" x1="299.22721230882865" x2="299.22721230882865" y1="0.5" y2="30"/><line opacity="0.2" x1="242.89528187465783" x2="242.89528187465783" y1="0.5" y2="30"/><line opacity="0.2" x1="169.43139658241864" x2="169.43139658241864" y1="0.5" y2="30"/><line opacity="0.2" x1="428.0164608794734" x2="428.0164608794734" y1="0.5" y2="30"/><line opacity="0.2" x1="380.5077382965416" x2="380.5077382965416" y1="0.5" y2="30"/><line opacity="0.2" x1="372.1965260800818" x2="372.1965260800818" y1="0.5" y2="30"/><line opacity="0.2" x1="424.1731870276391" x2="424.1731870276391" y1="0.5" y2="30"/><line opacity="0.2" x1="105.84712245563102" x2="105.84712245563102" y1="0.5" y2="30"/><line opacity="0.2" x1="246.53063446728663" x2="246.53063446728663" y1="0.5" y2="30"/><line opacity="0.2" x1="142.1281525682022" x2="142.1281525682022" y1="0.5" y2="30"/><line opacity="0.2" x1="264.1616694561728" x2="264.1616694561728" y1="0.5" y2="30"/><line opacity="0.2" x1="420.87508854821044" x2="420.87508854821044" y1="0.5" y2="30"/><line opacity="0.2" x1="305.9737719564214" x2="305.9737719564214" y1="0.5" y2="30"/><line opacity="0.2" x1="233.0770869733655" x2="233.0770869733655" y1="0.5" y2="30"/><line opacity="0.2" x1="246.2003542459774" x2="246.2003542459774" y1="0.5" y2="30"/><line opacity="0.2" x1="373.78540986857894" x2="373.78540986857894" y1="0.5" y2="30"/><line opacity="0.2" x1="243.5914666917111" x2="243.5914666917111" y1="0.5" y2="30"/><line opacity="0.2" x1="340.88492405906004" x2="340.88492405906004" y1="0.5" y2="30"/><line opacity="0.2" x1="143.70691983856645" x2="143.70691983856645" y1="0.5" y2="30"/><line opacity="0.2" x1="209.3302590827971" x2="209.3302590827971" y1="0.5" y2="30"/><line opacity="0.2" x1="379.17816416188697" x2="379.17816416188697" y1="0.5" y2="30"/><line opacity="0.2" x1="483.34437334742256" x2="483.34437334742256" y1="0.5" y2="30"/><line opacity="0.2" x1="288.88208889853274" x2="288.88208889853274" y1="0.5" y2="30"/><line opacity="0.2" x1="286.54088855335925" x2="286.54088855335925" y1="0.5" y2="30"/><line opacity="0.2" x1="346.241758399029" x2="346.241758399029" y1="0.5" y2="30"/><line opacity="0.2" x1="165.06298635878838" x2="165.06298635878838" y1="0.5" y2="30"/><line opacity="0.2" x1="262.9313837800457" x2="262.9313837800457" y1="0.5" y2="30"/><line opacity="0.2" x1="382.702750745624" x2="382.702750745624" y1="0.5" y2="30"/><line opacity="0.2" x1="367.4915753302383" x2="367.4915753302383" y1="0.5" y2="30"/><line opacity="0.2" x1="361.4461875419041" x2="361.4461875419041" y1="0.5" y2="30"/><line opacity="0.2" x1="563.852896665284" x2="563.852896665284" y1="0.5" y2="30"/><line opacity="0.2" x1="268.83039002894816" x2="268.83039002894816" y1="0.5" y2="30"/><line opacity="0.2" x1="224.4370089688736" x2="224.4370089688736" y1="0.5" y2="30"/><line opacity="0.2" x1="571.4171261287039" x2="571.4171261287039" y1="0.5" y2="30"/><line opacity="0.2" x1="448.5425148702518" x2="448.5425148702518" y1="0.5" y2="30"/><line opacity="0.2" x1="346.54407602270356" x2="346.54407602270356" y1="0.5" y2="30"/><line opacity="0.2" x1="353.07943184396845" x2="353.07943184396845" y1="0.5" y2="30"/><line opacity="0.2" x1="209.96081182483508" x2="209.96081182483508" y1="0.5" y2="30"/><line opacity="0.2" x1="287.21168963985656" x2="287.21168963985656" y1="0.5" y2="30"/><line opacity="0.2" x1="193.69324179859927" x2="193.69324179859927" y1="0.5" y2="30"/><line opacity="0.2" x1="311.97056194151867" x2="311.97056194151867" y1="0.5" y2="30"/><line opacity="0.2" x1="203.8989910080727" x2="203.8989910080727" y1="0.5" y2="30"/><line opacity="0.2" x1="300.44094425244674" x2="300.44094425244674" y1="0.5" y2="30"/><line opacity="0.2" x1="337.6643742201858" x2="337.6643742201858" y1="0.5" y2="30"/><line opacity="0.2" x1="226.92763968751268" x2="226.92763968751268" y1="0.5" y2="30"/><line opacity="0.2" x1="377.46544940156036" x2="377.46544940156036" y1="0.5" y2="30"/><line opacity="0.2" x1="128.23049742179384" x2="128.23049742179384" y1="0.5" y2="30"/><line opacity="0.2" x1="316.03356345713115" x2="316.03356345713115" y1="0.5" y2="30"/><line opacity="0.2" x1="407.8526126357497" x2="407.8526126357497" y1="0.5" y2="30"/><line opacity="0.2" x1="236.61009417125265" x2="236.61009417125265" y1="0.5" y2="30"/><line opacity="0.2" x1="405.69220259540316" x2="405.69220259540316" y1="0.5" y2="30"/><line opacity="0.2" x1="447.7949488849025" x2="447.7949488849025" y1="0.5" y2="30"/><line opacity="0.2" x1="250.0544750673161" x2="250.0544750673161" y1="0.5" y2="30"/><line opacity="0.2" x1="280.0270815691584" x2="280.0270815691584" y1="0.5" y2="30"/><line opacity="0.2" x1="278.9008202952261" x2="278.9008202952261" y1="0.5" y2="30"/><line opacity="0.2" x1="279.8546415598857" x2="279.8546415598857" y1="0.5" y2="30"/><line opacity="0.2" x1="379.9110434397518" x2="379.9110434397518" y1="0.5" y2="30"/><line opacity="0.2" x1="447.36221895227663" x2="447.36221895227663" y1="0.5" y2="30"/><line opacity="0.2" x1="193.39694851969466" x2="193.39694851969466" y1="0.5" y2="30"/><line opacity="0.2" x1="420.90118297444656" x2="420.90118297444656" y1="0.5" y2="30"/><line opacity="0.2" x1="441.83637491356654" x2="441.83637491356654" y1="0.5" y2="30"/><line opacity="0.2" x1="320.59566571862325" x2="320.59566571862325" y1="0.5" y2="30"/><line opacity="0.2" x1="303.1602975805096" x2="303.1602975805096" y1="0.5" y2="30"/><line opacity="0.2" x1="224.11362702304848" x2="224.11362702304848" y1="0.5" y2="30"/><line opacity="0.2" x1="342.8506032164904" x2="342.8506032164904" y1="0.5" y2="30"/><line opacity="0.2" x1="156.38476544984852" x2="156.38476544984852" y1="0.5" y2="30"/><line opacity="0.2" x1="378.95243575137016" x2="378.95243575137016" y1="0.5" y2="30"/><line opacity="0.2" x1="194.84886895477268" x2="194.84886895477268" y1="0.5" y2="30"/><line opacity="0.2" x1="392.105422194377" x2="392.105422194377" y1="0.5" y2="30"/><line opacity="0.2" x1="251.3773457432783" x2="251.3773457432783" y1="0.5" y2="30"/><line opacity="0.2" x1="199.7734665547958" x2="199.7734665547958" y1="0.5" y2="30"/><line opacity="0.2" x1="254.70536676070222" x2="254.70536676070222" y1="0.5" y2="30"/><line opacity="0.2" x1="359.5659853469293" x2="359.5659853469293" y1="0.5" y2="30"/><line opacity="0.2" x1="298.2317005209243" x2="298.2317005209243" y1="0.5" y2="30"/><line opacity="0.2" x1="238.05073230339718" x2="238.05073230339718" y1="0.5" y2="30"/><line opacity="0.2" x1="342.54496444703454" x2="342.54496444703454" y1="0.5" y2="30"/><line opacity="0.2" x1="333.8911466247928" x2="333.8911466247928" y1="0.5" y2="30"/><line opacity="0.2" x1="315.16014797788677" x2="315.16014797788677" y1="0.5" y2="30"/><line opacity="0.2" x1="196.07767105704968" x2="196.07767105704968" y1="0.5" y2="30"/><line opacity="0.2" x1="456.87636021254104" x2="456.87636021254104" y1="0.5" y2="30"/><line opacity="0.2" x1="375.890765870563" x2="375.890765870563" y1="0.5" y2="30"/><line opacity="0.2" x1="257.8030094382039" x2="257.8030094382039" y1="0.5" y2="30"/><line opacity="0.2" x1="315.3841247536953" x2="315.3841247536953" y1="0.5" y2="30"/><line opacity="0.2" x1="471.6768494632415" x2="471.6768494632415" y1="0.5" y2="30"/><line opacity="0.2" x1="566.1769428858365" x2="566.1769428858365" y1="0.5" y2="30"/><line opacity="0.2" x1="148.92309004710182" x2="148.92309004710182" y1="0.5" y2="30"/><line opacity="0.2" x1="415.61157335171885" x2="415.61157335171885" y1="0.5" y2="30"/><line opacity="0.2" x1="371.5425736418479" x2="371.5425736418479" y1="0.5" y2="30"/><line opacity="0.2" x1="471.8058807508273" x2="471.8058807508273" y1="0.5" y2="30"/><line opacity="0.2" x1="311.43650908612534" x2="311.43650908612534" y1="0.5" y2="30"/><line opacity="0.2" x1="215.18518349619268" x2="215.18518349619268" y1="0.5" y2="30"/><line opacity="0.2" x1="437.2942281510678" x2="437.2942281510678" y1="0.5" y2="30"/><line opacity="0.2" x1="352.3654237654912" x2="352.3654237654912" y1="0.5" y2="30"/><line opacity="0.2" x1="276.7803834456114" x2="276.7803834456114" y1="0.5" y2="30"/><line opacity="0.2" x1="439.1028923552533" x2="439.1028923552533" y1="0.5" y2="30"/><line opacity="0.2" x1="313.599990439098" x2="313.599990439098" y1="0.5" y2="30"/><line opacity="0.2" x1="416.8254875996722" x2="416.8254875996722" y1="0.5" y2="30"/><line opacity="0.2" x1="464.4754124693304" x2="464.4754124693304" y1="0.5" y2="30"/><line opacity="0.2" x1="435.5449260029983" x2="435.5449260029983" y1="0.5" y2="30"/><line opacity="0.2" x1="211.0454383635048" x2="211.0454383635048" y1="0.5" y2="30"/><line opacity="0.2" x1="234.2646165066547" x2="234.2646165066547" y1="0.5" y2="30"/><line opacity="0.2" x1="259.4803743331767" x2="259.4803743331767" y1="0.5" y2="30"/><line opacity="0.2" x1="278.53053435379496" x2="278.53053435379496" y1="0.5" y2="30"/><line opacity="0.2" x1="466.01437002007367" x2="466.01437002007367" y1="0.5" y2="30"/><line opacity="0.2" x1="399.44654517586514" x2="399.44654517586514" y1="0.5" y2="30"/><line opacity="0.2" x1="311.5435977149001" x2="311.5435977149001" y1="0.5" y2="30"/><line opacity="0.2" x1="126.51196914798231" x2="126.51196914798231" y1="0.5" y2="30"/><line opacity="0.2" x1="301.302966757492" x2="301.302966757492" y1="0.5" y2="30"/><line opacity="0.2" x1="288.87991660106326" x2="288.87991660106326" y1="0.5" y2="30"/><line opacity="0.2" x1="305.1901494991202" x2="305.1901494991202" y1="0.5" y2="30"/><line opacity="0.2" x1="300.6917988465708" x2="300.6917988465708" y1="0.5" y2="30"/><line opacity="0.2" x1="326.46733981117796" x2="326.46733981117796" y1="0.5" y2="30"/><line opacity="0.2" x1="495.12872449677974" x2="495.12872449677974" y1="0.5" y2="30"/><line opacity="0.2" x1="533.803782033892" x2="533.803782033892" y1="0.5" y2="30"/><line opacity="0.2" x1="252.1724232722469" x2="252.1724232722469" y1="0.5" y2="30"/><line opacity="0.2" x1="217.95690045973322" x2="217.95690045973322" y1="0.5" y2="30"/><line opacity="0.2" x1="407.0731773000013" x2="407.0731773000013" y1="0.5" y2="30"/><line opacity="0.2" x1="508.2501943070407" x2="508.2501943070407" y1="0.5" y2="30"/><line opacity="0.2" x1="370.47331196252475" x2="370.47331196252475" y1="0.5" y2="30"/><line opacity="0.2" x1="404.0860692838937" x2="404.0860692838937" y1="0.5" y2="30"/><line opacity="0.2" x1="476.09232730232975" x2="476.09232730232975" y1="0.5" y2="30"/><line opacity="0.2" x1="242.0203716768432" x2="242.0203716768432" y1="0.5" y2="30"/><line opacity="0.2" x1="323.57448937274074" x2="323.57448937274074" y1="0.5" y2="30"/><line opacity="0.2" x1="294.8513084053597" x2="294.8513084053597" y1="0.5" y2="30"/><line opacity="0.2" x1="419.65736299212205" x2="419.65736299212205" y1="0.5" y2="30"/><line opacity="0.2" x1="397.3100255444401" x2="397.3100255444401" y1="0.5" y2="30"/><line opacity="0.2" x1="337.87667028449926" x2="337.87667028449926" y1="0.5" y2="30"/><line opacity="0.2" x1="66.60754923364456" x2="66.60754923364456" y1="0.5" y2="30"/><line opacity="0.2" x1="272.6125513554804" x2="272.6125513554804" y1="0.5" y2="30"/><line opacity="0.2" x1="292.3997532708465" x2="292.3997532708465" y1="0.5" y2="30"/><line opacity="0.2" x1="495.82117779135547" x2="495.82117779135547" y1="0.5" y2="30"/><line opacity="0.2" x1="368.8545131982882" x2="368.8545131982882" y1="0.5" y2="30"/><line opacity="0.2" x1="308.7278827186744" x2="308.7278827186744" y1="0.5" y2="30"/><line opacity="0.2" x1="311.4237144973645" x2="311.4237144973645" y1="0.5" y2="30"/><line opacity="0.2" x1="457.0373387158651" x2="457.0373387158651" y1="0.5" y2="30"/><line opacity="0.2" x1="325.6915411799842" x2="325.6915411799842" y1="0.5" y2="30"/><line opacity="0.2" x1="339.74482661503873" x2="339.74482661503873" y1="0.5" y2="30"/><line opacity="0.2" x1="249.15752838968336" x2="249.15752838968336" y1="0.5" y2="30"/><line opacity="0.2" x1="430.84768970243186" x2="430.84768970243186" y1="0.5" y2="30"/><line opacity="0.2" x1="362.337972846319" x2="362.337972846319" y1="0.5" y2="30"/><line opacity="0.2" x1="307.98482100195815" x2="307.98482100195815" y1="0.5" y2="30"/><line opacity="0.2" x1="404.77045799115217" x2="404.77045799115217" y1="0.5" y2="30"/><line opacity="0.2" x1="148.30923880061957" x2="148.30923880061957" y1="0.5" y2="30"/><line opacity="0.2" x1="230.61209329427902" x2="230.61209329427902" y1="0.5" y2="30"/><line opacity="0.2" x1="125.38308427549259" x2="125.38308427549259" y1="0.5" y2="30"/><line opacity="0.2" x1="214.5257192539074" x2="214.5257192539074" y1="0.5" y2="30"/><line opacity="0.2" x1="334.3191118336381" x2="334.3191118336381" y1="0.5" y2="30"/><line opacity="0.2" x1="414.4984543786328" x2="414.4984543786328" y1="0.5" y2="30"/><line opacity="0.2" x1="389.2682996518151" x2="389.2682996518151" y1="0.5" y2="30"/><line opacity="0.2" x1="147.358089825272" x2="147.358089825272" y1="0.5" y2="30"/><line opacity="0.2" x1="515.5803884729289" x2="515.5803884729289" y1="0.5" y2="30"/><line opacity="0.2" x1="260.1719742378747" x2="260.1719742378747" y1="0.5" y2="30"/><line opacity="0.2" x1="219.50458513707758" x2="219.50458513707758" y1="0.5" y2="30"/><line opacity="0.2" x1="278.1093639477336" x2="278.1093639477336" y1="0.5" y2="30"/><line opacity="0.2" x1="310.54821921713904" x2="310.54821921713904" y1="0.5" y2="30"/><line opacity="0.2" x1="224.51462037006996" x2="224.51462037006996" y1="0.5" y2="30"/><line opacity="0.2" x1="330.77418932536773" x2="330.77418932536773" y1="0.5" y2="30"/><line opacity="0.2" x1="390.6729239143637" x2="390.6729239143637" y1="0.5" y2="30"/><line opacity="0.2" x1="435.59521632035734" x2="435.59521632035734" y1="0.5" y2="30"/><line opacity="0.2" x1="145.22428376345982" x2="145.22428376345982" y1="0.5" y2="30"/><line opacity="0.2" x1="329.3606513207819" x2="329.3606513207819" y1="0.5" y2="30"/><line opacity="0.2" x1="372.40800856654107" x2="372.40800856654107" y1="0.5" y2="30"/><line opacity="0.2" x1="311.66962436836764" x2="311.66962436836764" y1="0.5" y2="30"/><line opacity="0.2" x1="236.73432982976595" x2="236.73432982976595" y1="0.5" y2="30"/><line opacity="0.2" x1="291.28002264106055" x2="291.28002264106055" y1="0.5" y2="30"/><line opacity="0.2" x1="199.6702036076487" x2="199.6702036076487" y1="0.5" y2="30"/><line opacity="0.2" x1="391.0223834600352" x2="391.0223834600352" y1="0.5" y2="30"/><line opacity="0.2" x1="139.46684057472234" x2="139.46684057472234" y1="0.5" y2="30"/><line opacity="0.2" x1="284.54996767917163" x2="284.54996767917163" y1="0.5" y2="30"/><line opacity="0.2" x1="303.6693231360782" x2="303.6693231360782" y1="0.5" y2="30"/><line opacity="0.2" x1="341.64457620704644" x2="341.64457620704644" y1="0.5" y2="30"/><line opacity="0.2" x1="258.5352624205975" x2="258.5352624205975" y1="0.5" y2="30"/><line opacity="0.2" x1="287.8642545396578" x2="287.8642545396578" y1="0.5" y2="30"/><line opacity="0.2" x1="259.5692328816082" x2="259.5692328816082" y1="0.5" y2="30"/><line opacity="0.2" x1="398.25129310804414" x2="398.25129310804414" y1="0.5" y2="30"/><line opacity="0.2" x1="144.97657065146203" x2="144.97657065146203" y1="0.5" y2="30"/><line opacity="0.2" x1="369.7444137540697" x2="369.7444137540697" y1="0.5" y2="30"/><line opacity="0.2" x1="309.74289284564884" x2="309.74289284564884" y1="0.5" y2="30"/><line opacity="0.2" x1="105.12623231720184" x2="105.12623231720184" y1="0.5" y2="30"/><line opacity="0.2" x1="420.3862933304678" x2="420.3862933304678" y1="0.5" y2="30"/><line opacity="0.2" x1="274.35787287672406" x2="274.35787287672406" y1="0.5" y2="30"/><line opacity="0.2" x1="332.07755495451653" x2="332.07755495451653" y1="0.5" y2="30"/><line opacity="0.2" x1="216.08577672128402" x2="216.08577672128402" y1="0.5" y2="30"/><line opacity="0.2" x1="226.7451517799094" x2="226.7451517799094" y1="0.5" y2="30"/><line opacity="0.2" x1="380.3373528825105" x2="380.3373528825105" y1="0.5" y2="30"/><line opacity="0.2" x1="169.66118685541346" x2="169.66118685541346" y1="0.5" y2="30"/><line opacity="0.2" x1="257.6445849406525" x2="257.6445849406525" y1="0.5" y2="30"/><line opacity="0.2" x1="286.1614863980735" x2="286.1614863980735" y1="0.5" y2="30"/><line opacity="0.2" x1="333.890221514329" x2="333.890221514329" y1="0.5" y2="30"/><line opacity="0.2" x1="144.6192215429471" x2="144.6192215429471" y1="0.5" y2="30"/><line opacity="0.2" x1="221.53374760386808" x2="221.53374760386808" y1="0.5" y2="30"/><line opacity="0.2" x1="242.89602026882227" x2="242.89602026882227" y1="0.5" y2="30"/><line opacity="0.2" x1="307.9670450278443" x2="307.9670450278443" y1="0.5" y2="30"/><line opacity="0.2" x1="393.49423802839846" x2="393.49423802839846" y1="0.5" y2="30"/><line opacity="0.2" x1="383.34553729401307" x2="383.34553729401307" y1="0.5" y2="30"/><line opacity="0.2" x1="295.1257560164879" x2="295.1257560164879" y1="0.5" y2="30"/><line opacity="0.2" x1="461.28951528066125" x2="461.28951528066125" y1="0.5" y2="30"/><line opacity="0.2" x1="201.66090633750127" x2="201.66090633750127" y1="0.5" y2="30"/><line opacity="0.2" x1="349.3100855528118" x2="349.3100855528118" y1="0.5" y2="30"/><line opacity="0.2" x1="498.01688579309547" x2="498.01688579309547" y1="0.5" y2="30"/><line opacity="0.2" x1="360.13205518795434" x2="360.13205518795434" y1="0.5" y2="30"/><line opacity="0.2" x1="362.06641700885825" x2="362.06641700885825" y1="0.5" y2="30"/><line opacity="0.2" x1="509.2644586939305" x2="509.2644586939305" y1="0.5" y2="30"/><line opacity="0.2" x1="322.90785154165644" x2="322.90785154165644" y1="0.5" y2="30"/><line opacity="0.2" x1="233.30830943112431" x2="233.30830943112431" y1="0.5" y2="30"/><line opacity="0.2" x1="181.86168145254385" x2="181.86168145254385" y1="0.5" y2="30"/><line opacity="0.2" x1="294.68129759169284" x2="294.68129759169284" y1="0.5" y2="30"/><line opacity="0.2" x1="405.4597273341042" x2="405.4597273341042" y1="0.5" y2="30"/><line opacity="0.2" x1="311.16395919964356" x2="311.16395919964356" y1="0.5" y2="30"/><line opacity="0.2" x1="234.23244508249172" x2="234.23244508249172" y1="0.5" y2="30"/><line opacity="0.2" x1="457.8617744952988" x2="457.8617744952988" y1="0.5" y2="30"/><line opacity="0.2" x1="365.1273434730842" x2="365.1273434730842" y1="0.5" y2="30"/><line opacity="0.2" x1="427.417686251139" x2="427.417686251139" y1="0.5" y2="30"/><line opacity="0.2" x1="335.4008677310134" x2="335.4008677310134" y1="0.5" y2="30"/><line opacity="0.2" x1="306.9231340349629" x2="306.9231340349629" y1="0.5" y2="30"/><line opacity="0.2" x1="334.4197315222773" x2="334.4197315222773" y1="0.5" y2="30"/><line opacity="0.2" x1="441.39530294266365" x2="441.39530294266365" y1="0.5" y2="30"/><line opacity="0.2" x1="333.3182965172676" x2="333.3182965172676" y1="0.5" y2="30"/><line opacity="0.2" x1="254.4654409338159" x2="254.4654409338159" y1="0.5" y2="30"/><line opacity="0.2" x1="249.23085857449084" x2="249.23085857449084" y1="0.5" y2="30"/><line opacity="0.2" x1="289.7513491266184" x2="289.7513491266184" y1="0.5" y2="30"/><line opacity="0.2" x1="104.59194947830997" x2="104.59194947830997" y1="0.5" y2="30"/><line opacity="0.2" x1="160.63171652566655" x2="160.63171652566655" y1="0.5" y2="30"/><line opacity="0.2" x1="483.56568609268334" x2="483.56568609268334" y1="0.5" y2="30"/><line opacity="0.2" x1="274.65446233366436" x2="274.65446233366436" y1="0.5" y2="30"/><line opacity="0.2" x1="183.01591312684366" x2="183.01591312684366" y1="0.5" y2="30"/><line opacity="0.2" x1="252.99450737507897" x2="252.99450737507897" y1="0.5" y2="30"/><line opacity="0.2" x1="419.39440742191977" x2="419.39440742191977" y1="0.5" y2="30"/><line opacity="0.2" x1="375.4918805399766" x2="375.4918805399766" y1="0.5" y2="30"/><line opacity="0.2" x1="313.90385803868395" x2="313.90385803868395" y1="0.5" y2="30"/><line opacity="0.2" x1="294.9384816501368" x2="294.9384816501368" y1="0.5" y2="30"/><line opacity="0.2" x1="283.47461209306346" x2="283.47461209306346" y1="0.5" y2="30"/><line opacity="0.2" x1="515.2748514690463" x2="515.2748514690463" y1="0.5" y2="30"/><line opacity="0.2" x1="448.3195514646296" x2="448.3195514646296" y1="0.5" y2="30"/><line opacity="0.2" x1="207.41341783576442" x2="207.41341783576442" y1="0.5" y2="30"/><line opacity="0.2" x1="453.0030641985103" x2="453.0030641985103" y1="0.5" y2="30"/><line opacity="0.2" x1="282.19981517613365" x2="282.19981517613365" y1="0.5" y2="30"/><line opacity="0.2" x1="181.77181632669365" x2="181.77181632669365" y1="0.5" y2="30"/><line opacity="0.2" x1="175.20393137249712" x2="175.20393137249712" y1="0.5" y2="30"/><line opacity="0.2" x1="227.87363042120703" x2="227.87363042120703" y1="0.5" y2="30"/><line opacity="0.2" x1="394.22576414893456" x2="394.22576414893456" y1="0.5" y2="30"/><line opacity="0.2" x1="443.81041350288405" x2="443.81041350288405" y1="0.5" y2="30"/><line opacity="0.2" x1="327.08783274399434" x2="327.08783274399434" y1="0.5" y2="30"/><line opacity="0.2" x1="369.3357266405895" x2="369.3357266405895" y1="0.5" y2="30"/><line opacity="0.2" x1="179.55896886008475" x2="179.55896886008475" y1="0.5" y2="30"/><line opacity="0.2" x1="379.91731138559294" x2="379.91731138559294" y1="0.5" y2="30"/><line opacity="0.2" x1="235.25461652120546" x2="235.25461652120546" y1="0.5" y2="30"/><line opacity="0.2" x1="218.72089066637844" x2="218.72089066637844" y1="0.5" y2="30"/><line opacity="0.2" x1="331.60818708698207" x2="331.60818708698207" y1="0.5" y2="30"/><line opacity="0.2" x1="462.48458092883374" x2="462.48458092883374" y1="0.5" y2="30"/><line opacity="0.2" x1="407.1997416003283" x2="407.1997416003283" y1="0.5" y2="30"/><line opacity="0.2" x1="322.46892339059417" x2="322.46892339059417" y1="0.5" y2="30"/><line opacity="0.2" x1="277.49831337319756" x2="277.49831337319756" y1="0.5" y2="30"/><line opacity="0.2" x1="382.64955597113476" x2="382.64955597113476" y1="0.5" y2="30"/><line opacity="0.2" x1="216.36250149575184" x2="216.36250149575184" y1="0.5" y2="30"/><line opacity="0.2" x1="470.37063194318836" x2="470.37063194318836" y1="0.5" y2="30"/><line opacity="0.2" x1="374.02583343637025" x2="374.02583343637025" y1="0.5" y2="30"/><line opacity="0.2" x1="326.87821724410543" x2="326.87821724410543" y1="0.5" y2="30"/><line opacity="0.2" x1="223.14910845307801" x2="223.14910845307801" y1="0.5" y2="30"/><line opacity="0.2" x1="190.93123479637043" x2="190.93123479637043" y1="0.5" y2="30"/><line opacity="0.2" x1="323.1324269252365" x2="323.1324269252365" y1="0.5" y2="30"/><line opacity="0.2" x1="136.33960617464004" x2="136.33960617464004" y1="0.5" y2="30"/><line opacity="0.2" x1="338.72328761252817" x2="338.72328761252817" y1="0.5" y2="30"/><line opacity="0.2" x1="177.18632792896224" x2="177.18632792896224" y1="0.5" y2="30"/><line opacity="0.2" x1="354.39116525169015" x2="354.39116525169015" y1="0.5" y2="30"/><line opacity="0.2" x1="437.1405001447469" x2="437.1405001447469" y1="0.5" y2="30"/><line opacity="0.2" x1="397.8109879484691" x2="397.8109879484691" y1="0.5" y2="30"/><line opacity="0.2" x1="290.8387661153635" x2="290.8387661153635" y1="0.5" y2="30"/><line opacity="0.2" x1="317.25501578156883" x2="317.25501578156883" y1="0.5" y2="30"/><line opacity="0.2" x1="435.40529425139596" x2="435.40529425139596" y1="0.5" y2="30"/><line opacity="0.2" x1="349.32869766512704" x2="349.32869766512704" y1="0.5" y2="30"/><line opacity="0.2" x1="426.92185728569694" x2="426.92185728569694" y1="0.5" y2="30"/><line opacity="0.2" x1="89.26699645881567" x2="89.26699645881567" y1="0.5" y2="30"/><line opacity="0.2" x1="396.66141536901074" x2="396.66141536901074" y1="0.5" y2="30"/><line opacity="0.2" x1="430.59835260844056" x2="430.59835260844056" y1="0.5" y2="30"/><line opacity="0.2" x1="236.18173054497822" x2="236.18173054497822" y1="0.5" y2="30"/><line opacity="0.2" x1="253.01562174198835" x2="253.01562174198835" y1="0.5" y2="30"/><line opacity="0.2" x1="218.11142717484503" x2="218.11142717484503" y1="0.5" y2="30"/><line opacity="0.2" x1="469.17590780290533" x2="469.17590780290533" y1="0.5" y2="30"/><line opacity="0.2" x1="385.6474311968425" x2="385.6474311968425" y1="0.5" y2="30"/><line opacity="0.2" x1="504.27335623263326" x2="504.27335623263326" y1="0.5" y2="30"/><line opacity="0.2" x1="182.49514856227248" x2="182.49514856227248" y1="0.5" y2="30"/><line opacity="0.2" x1="516.2173411369849" x2="516.2173411369849" y1="0.5" y2="30"/><line opacity="0.2" x1="252.59722911705276" x2="252.59722911705276" y1="0.5" y2="30"/><line opacity="0.2" x1="296.58134240437016" x2="296.58134240437016" y1="0.5" y2="30"/><line opacity="0.2" x1="321.22287107248343" x2="321.22287107248343" y1="0.5" y2="30"/><line opacity="0.2" x1="328.0113492045645" x2="328.0113492045645" y1="0.5" y2="30"/><line opacity="0.2" x1="386.4325717489874" x2="386.4325717489874" y1="0.5" y2="30"/><line opacity="0.2" x1="261.5919302793952" x2="261.5919302793952" y1="0.5" y2="30"/><line opacity="0.2" x1="430.2091113987177" x2="430.2091113987177" y1="0.5" y2="30"/><line opacity="0.2" x1="458.54368456862755" x2="458.54368456862755" y1="0.5" y2="30"/><line opacity="0.2" x1="97.97039436386189" x2="97.97039436386189" y1="0.5" y2="30"/><line opacity="0.2" x1="224.3279702772412" x2="224.3279702772412" y1="0.5" y2="30"/><line opacity="0.2" x1="458.4763663285989" x2="458.4763663285989" y1="0.5" y2="30"/><line opacity="0.2" x1="234.85271029524264" x2="234.85271029524264" y1="0.5" y2="30"/><line opacity="0.2" x1="346.55446196181487" x2="346.55446196181487" y1="0.5" y2="30"/><line opacity="0.2" x1="361.9754796922741" x2="361.9754796922741" y1="0.5" y2="30"/><line opacity="0.2" x1="376.99842356212" x2="376.99842356212" y1="0.5" y2="30"/><line opacity="0.2" x1="463.35028700600037" x2="463.35028700600037" y1="0.5" y2="30"/><line opacity="0.2" x1="371.1662093521765" x2="371.1662093521765" y1="0.5" y2="30"/><line opacity="0.2" x1="472.5171645945567" x2="472.5171645945567" y1="0.5" y2="30"/><line opacity="0.2" x1="494.0820064587561" x2="494.0820064587561" y1="0.5" y2="30"/><line opacity="0.2" x1="550.038619241056" x2="550.038619241056" y1="0.5" y2="30"/><line opacity="0.2" x1="345.14193950847744" x2="345.14193950847744" y1="0.5" y2="30"/><line opacity="0.2" x1="306.2125993366406" x2="306.2125993366406" y1="0.5" y2="30"/><line opacity="0.2" x1="307.5895024911043" x2="307.5895024911043" y1="0.5" y2="30"/><line opacity="0.2" x1="255.48074245230598" x2="255.48074245230598" y1="0.5" y2="30"/><line opacity="0.2" x1="213.09663968687732" x2="213.09663968687732" y1="0.5" y2="30"/><line opacity="0.2" x1="588.5684399691729" x2="588.5684399691729" y1="0.5" y2="30"/><line opacity="0.2" x1="260.9993784783428" x2="260.9993784783428" y1="0.5" y2="30"/><line opacity="0.2" x1="407.19422189356317" x2="407.19422189356317" y1="0.5" y2="30"/><line opacity="0.2" x1="412.54479801502237" x2="412.54479801502237" y1="0.5" y2="30"/><line opacity="0.2" x1="222.34692846920586" x2="222.34692846920586" y1="0.5" y2="30"/><line opacity="0.2" x1="171.38160619645754" x2="171.38160619645754" y1="0.5" y2="30"/><line opacity="0.2" x1="460.79050137162506" x2="460.79050137162506" y1="0.5" y2="30"/><line opacity="0.2" x1="313.12012927847485" x2="313.12012927847485" y1="0.5" y2="30"/><line opacity="0.2" x1="308.5984080356167" x2="308.5984080356167" y1="0.5" y2="30"/><line opacity="0.2" x1="465.81018682574904" x2="465.81018682574904" y1="0.5" y2="30"/><line opacity="0.2" x1="260.9465502696861" x2="260.9465502696861" y1="0.5" y2="30"/><line opacity="0.2" x1="376.7680389931592" x2="376.7680389931592" y1="0.5" y2="30"/><line opacity="0.2" x1="208.2338375705643" x2="208.2338375705643" y1="0.5" y2="30"/><line opacity="0.2" x1="167.35454633269893" x2="167.35454633269893" y1="0.5" y2="30"/><line opacity="0.2" x1="370.1409430431595" x2="370.1409430431595" y1="0.5" y2="30"/><line opacity="0.2" x1="321.6887339329401" x2="321.6887339329401" y1="0.5" y2="30"/><line opacity="0.2" x1="334.01598546929904" x2="334.01598546929904" y1="0.5" y2="30"/><line opacity="0.2" x1="309.5921922917041" x2="309.5921922917041" y1="0.5" y2="30"/><line opacity="0.2" x1="404.72779793954624" x2="404.72779793954624" y1="0.5" y2="30"/><line opacity="0.2" x1="395.82443329170076" x2="395.82443329170076" y1="0.5" y2="30"/><line opacity="0.2" x1="388.06947386498683" x2="388.06947386498683" y1="0.5" y2="30"/><line opacity="0.2" x1="385.5588544635196" x2="385.5588544635196" y1="0.5" y2="30"/><line opacity="0.2" x1="445.6506674727117" x2="445.6506674727117" y1="0.5" y2="30"/><line opacity="0.2" x1="273.4317353996241" x2="273.4317353996241" y1="0.5" y2="30"/><line opacity="0.2" x1="188.46897989236805" x2="188.46897989236805" y1="0.5" y2="30"/><line opacity="0.2" x1="315.3911936703063" x2="315.3911936703063" y1="0.5" y2="30"/><line opacity="0.2" x1="295.45010708837475" x2="295.45010708837475" y1="0.5" y2="30"/><line opacity="0.2" x1="235.19566342792848" x2="235.19566342792848" y1="0.5" y2="30"/><line opacity="0.2" x1="261.44857762282453" x2="261.44857762282453" y1="0.5" y2="30"/><line opacity="0.2" x1="352.45574475198515" x2="352.45574475198515" y1="0.5" y2="30"/><line opacity="0.2" x1="260.16117794945524" x2="260.16117794945524" y1="0.5" y2="30"/><line opacity="0.2" x1="244.40417629092477" x2="244.40417629092477" y1="0.5" y2="30"/><line opacity="0.2" x1="339.1651301298824" x2="339.1651301298824" y1="0.5" y2="30"/><line opacity="0.2" x1="434.4372216373318" x2="434.4372216373318" y1="0.5" y2="30"/><line opacity="0.2" x1="292.8761157860402" x2="292.8761157860402" y1="0.5" y2="30"/><line opacity="0.2" x1="390.8322375495007" x2="390.8322375495007" y1="0.5" y2="30"/><line opacity="0.2" x1="267.16265678584875" x2="267.16265678584875" y1="0.5" y2="30"/><line opacity="0.2" x1="231.48731701701544" x2="231.48731701701544" y1="0.5" y2="30"/><line opacity="0.2" x1="278.5323263639728" x2="278.5323263639728" y1="0.5" y2="30"/><line opacity="0.2" x1="320.58387979597455" x2="320.58387979597455" y1="0.5" y2="30"/><line opacity="0.2" x1="535.6168004248647" x2="535.6168004248647" y1="0.5" y2="30"/><line opacity="0.2" x1="480.99310523884856" x2="480.99310523884856" y1="0.5" y2="30"/><line opacity="0.2" x1="276.7119561207618" x2="276.7119561207618" y1="0.5" y2="30"/><line opacity="0.2" x1="310.05180713090306" x2="310.05180713090306" y1="0.5" y2="30"/><line opacity="0.2" x1="253.7338685067259" x2="253.7338685067259" y1="0.5" y2="30"/><line opacity="0.2" x1="371.24125395626595" x2="371.24125395626595" y1="0.5" y2="30"/><line opacity="0.2" x1="325.3143021070724" x2="325.3143021070724" y1="0.5" y2="30"/><line opacity="0.2" x1="366.11808303615135" x2="366.11808303615135" y1="0.5" y2="30"/><line opacity="0.2" x1="482.1288267056575" x2="482.1288267056575" y1="0.5" y2="30"/><line opacity="0.2" x1="201.8047406398987" x2="201.8047406398987" y1="0.5" y2="30"/><line opacity="0.2" x1="343.7508284701645" x2="343.7508284701645" y1="0.5" y2="30"/><line opacity="0.2" x1="279.8431568931566" x2="279.8431568931566" y1="0.5" y2="30"/><line opacity="0.2" x1="342.0183512802702" x2="342.0183512802702" y1="0.5" y2="30"/><line opacity="0.2" x1="271.8916419480338" x2="271.8916419480338" y1="0.5" y2="30"/><line opacity="0.2" x1="369.1484192940874" x2="369.1484192940874" y1="0.5" y2="30"/><line opacity="0.2" x1="348.3769558099057" x2="348.3769558099057" y1="0.5" y2="30"/><line opacity="0.2" x1="245.51689369821725" x2="245.51689369821725" y1="0.5" y2="30"/><line opacity="0.2" x1="436.6768074371102" x2="436.6768074371102" y1="0.5" y2="30"/><line opacity="0.2" x1="295.0949696958069" x2="295.0949696958069" y1="0.5" y2="30"/><line opacity="0.2" x1="313.97316345948997" x2="313.97316345948997" y1="0.5" y2="30"/><line opacity="0.2" x1="314.0453214823332" x2="314.0453214823332" y1="0.5" y2="30"/><line opacity="0.2" x1="184.85733884845087" x2="184.85733884845087" y1="0.5" y2="30"/><line opacity="0.2" x1="209.75390265722547" x2="209.75390265722547" y1="0.5" y2="30"/><line opacity="0.2" x1="350.32154507586137" x2="350.32154507586137" y1="0.5" y2="30"/><line opacity="0.2" x1="467.5954239179177" x2="467.5954239179177" y1="0.5" y2="30"/><line opacity="0.2" x1="398.9937044357503" x2="398.9937044357503" y1="0.5" y2="30"/><line opacity="0.2" x1="440.15407232403305" x2="440.15407232403305" y1="0.5" y2="30"/><line opacity="0.2" x1="295.57915490412614" x2="295.57915490412614" y1="0.5" y2="30"/><line opacity="0.2" x1="330.8744219106038" x2="330.8744219106038" y1="0.5" y2="30"/><line opacity="0.2" x1="344.5167251701598" x2="344.5167251701598" y1="0.5" y2="30"/><line opacity="0.2" x1="222.23643071942348" x2="222.23643071942348" y1="0.5" y2="30"/><line opacity="0.2" x1="302.66687575717253" x2="302.66687575717253" y1="0.5" y2="30"/><line opacity="0.2" x1="364.3918328541852" x2="364.3918328541852" y1="0.5" y2="30"/><line opacity="0.2" x1="260.0354905900949" x2="260.0354905900949" y1="0.5" y2="30"/><line opacity="0.2" x1="219.78874503284445" x2="219.78874503284445" y1="0.5" y2="30"/><line opacity="0.2" x1="263.5623634670522" x2="263.5623634670522" y1="0.5" y2="30"/><line opacity="0.2" x1="294.5545530029935" x2="294.5545530029935" y1="0.5" y2="30"/><line opacity="0.2" x1="403.8194016260757" x2="403.8194016260757" y1="0.5" y2="30"/><line opacity="0.2" x1="435.2093461036925" x2="435.2093461036925" y1="0.5" y2="30"/><line opacity="0.2" x1="374.358609895443" x2="374.358609895443" y1="0.5" y2="30"/><line opacity="0.2" x1="268.73023791844724" x2="268.73023791844724" y1="0.5" y2="30"/><line opacity="0.2" x1="240.135179454107" x2="240.135179454107" y1="0.5" y2="30"/><line opacity="0.2" x1="397.6800259543419" x2="397.6800259543419" y1="0.5" y2="30"/><line opacity="0.2" x1="228.46690883866972" x2="228.46690883866972" y1="0.5" y2="30"/><line opacity="0.2" x1="461.52005808005464" x2="461.52005808005464" y1="0.5" y2="30"/><line opacity="0.2" x1="300.6837326464207" x2="300.6837326464207" y1="0.5" y2="30"/><line opacity="0.2" x1="524.9149196380398" x2="524.9149196380398" y1="0.5" y2="30"/><line opacity="0.2" x1="321.9294121776076" x2="321.9294121776076" y1="0.5" y2="30"/><line opacity="0.2" x1="266.6149993838777" x2="266.6149993838777" y1="0.5" y2="30"/><line opacity="0.2" x1="380.1737866867972" x2="380.1737866867972" y1="0.5" y2="30"/><line opacity="0.2" x1="274.25893306409495" x2="274.25893306409495" y1="0.5" y2="30"/><line opacity="0.2" x1="366.1363499479812" x2="366.1363499479812" y1="0.5" y2="30"/><line opacity="0.2" x1="327.66086292648305" x2="327.66086292648305" y1="0.5" y2="30"/><line opacity="0.2" x1="317.02100465859064" x2="317.02100465859064" y1="0.5" y2="30"/><line opacity="0.2" x1="297.7087454088038" x2="297.7087454088038" y1="0.5" y2="30"/><line opacity="0.2" x1="380.00743942277296" x2="380.00743942277296" y1="0.5" y2="30"/><line opacity="0.2" x1="318.803939784991" x2="318.803939784991" y1="0.5" y2="30"/><line opacity="0.2" x1="263.9705884135942" x2="263.9705884135942" y1="0.5" y2="30"/><line opacity="0.2" x1="233.73555589275168" x2="233.73555589275168" y1="0.5" y2="30"/><line opacity="0.2" x1="382.7183238037967" x2="382.7183238037967" y1="0.5" y2="30"/><line opacity="0.2" x1="324.3358336194632" x2="324.3358336194632" y1="0.5" y2="30"/><line opacity="0.2" x1="406.6389748642689" x2="406.6389748642689" y1="0.5" y2="30"/><line opacity="0.2" x1="353.0667886716109" x2="353.0667886716109" y1="0.5" y2="30"/><line opacity="0.2" x1="354.7432876451273" x2="354.7432876451273" y1="0.5" y2="30"/><line opacity="0.2" x1="402.82244809485286" x2="402.82244809485286" y1="0.5" y2="30"/><line opacity="0.2" x1="106.18041823193818" x2="106.18041823193818" y1="0.5" y2="30"/><line opacity="0.2" x1="359.7413382629231" x2="359.7413382629231" y1="0.5" y2="30"/><line opacity="0.2" x1="513.7494605683862" x2="513.7494605683862" y1="0.5" y2="30"/><line opacity="0.2" x1="283.68809522579903" x2="283.68809522579903" y1="0.5" y2="30"/><line opacity="0.2" x1="256.624856875205" x2="256.624856875205" y1="0.5" y2="30"/><line opacity="0.2" x1="177.55945218811218" x2="177.55945218811218" y1="0.5" y2="30"/><line opacity="0.2" x1="448.8933278884606" x2="448.8933278884606" y1="0.5" y2="30"/><line opacity="0.2" x1="359.8177343781129" x2="359.8177343781129" y1="0.5" y2="30"/><line opacity="0.2" x1="314.7636737187938" x2="314.7636737187938" y1="0.5" y2="30"/><line opacity="0.2" x1="463.86541260002804" x2="463.86541260002804" y1="0.5" y2="30"/><line opacity="0.2" x1="287.81107059546247" x2="287.81107059546247" y1="0.5" y2="30"/><line opacity="0.2" x1="109.35883567414714" x2="109.35883567414714" y1="0.5" y2="30"/><line opacity="0.2" x1="247.30034784066171" x2="247.30034784066171" y1="0.5" y2="30"/><line opacity="0.2" x1="201.15830608899614" x2="201.15830608899614" y1="0.5" y2="30"/><line opacity="0.2" x1="461.6879550074803" x2="461.6879550074803" y1="0.5" y2="30"/><line opacity="0.2" x1="374.94187769382995" x2="374.94187769382995" y1="0.5" y2="30"/><line opacity="0.2" x1="348.8306994960832" x2="348.8306994960832" y1="0.5" y2="30"/><line opacity="0.2" x1="253.7569933918084" x2="253.7569933918084" y1="0.5" y2="30"/><line opacity="0.2" x1="310.2478222445613" x2="310.2478222445613" y1="0.5" y2="30"/><line opacity="0.2" x1="199.54323765548443" x2="199.54323765548443" y1="0.5" y2="30"/><line opacity="0.2" x1="377.2600338610235" x2="377.2600338610235" y1="0.5" y2="30"/><line opacity="0.2" x1="289.5973101647472" x2="289.5973101647472" y1="0.5" y2="30"/><line opacity="0.2" x1="297.4804680440253" x2="297.4804680440253" y1="0.5" y2="30"/><line opacity="0.2" x1="203.4490776716877" x2="203.4490776716877" y1="0.5" y2="30"/><line opacity="0.2" x1="264.6263081113135" x2="264.6263081113135" y1="0.5" y2="30"/><line opacity="0.2" x1="183.3700905626419" x2="183.3700905626419" y1="0.5" y2="30"/><line opacity="0.2" x1="340.18349849501243" x2="340.18349849501243" y1="0.5" y2="30"/><line opacity="0.2" x1="427.28743184803017" x2="427.28743184803017" y1="0.5" y2="30"/><line opacity="0.2" x1="219.02005022367115" x2="219.02005022367115" y1="0.5" y2="30"/><line opacity="0.2" x1="310.60870552652165" x2="310.60870552652165" y1="0.5" y2="30"/><line opacity="0.2" x1="252.02180415732605" x2="252.02180415732605" y1="0.5" y2="30"/><line opacity="0.2" x1="319.5063620247929" x2="319.5063620247929" y1="0.5" y2="30"/><line opacity="0.2" x1="208.08463832955945" x2="208.08463832955945" y1="0.5" y2="30"/><line opacity="0.2" x1="356.6403919151935" x2="356.6403919151935" y1="0.5" y2="30"/><line opacity="0.2" x1="412.91943769732296" x2="412.91943769732296" y1="0.5" y2="30"/><line opacity="0.2" x1="294.9334130247996" x2="294.9334130247996" y1="0.5" y2="30"/><line opacity="0.2" x1="346.6414899713269" x2="346.6414899713269" y1="0.5" y2="30"/><line opacity="0.2" x1="396.4033771168978" x2="396.4033771168978" y1="0.5" y2="30"/><line opacity="0.2" x1="294.37184273659193" x2="294.37184273659193" y1="0.5" y2="30"/><line opacity="0.2" x1="396.92802927452675" x2="396.92802927452675" y1="0.5" y2="30"/><line opacity="0.2" x1="246.15907021199473" x2="246.15907021199473" y1="0.5" y2="30"/><line opacity="0.2" x1="480.89710868588946" x2="480.89710868588946" y1="0.5" y2="30"/><line opacity="0.2" x1="255.21445178471066" x2="255.21445178471066" y1="0.5" y2="30"/><line opacity="0.2" x1="362.5326857117186" x2="362.5326857117186" y1="0.5" y2="30"/><line opacity="0.2" x1="253.0797923089163" x2="253.0797923089163" y1="0.5" y2="30"/><line opacity="0.2" x1="334.4460749937027" x2="334.4460749937027" y1="0.5" y2="30"/><line opacity="0.2" x1="383.1745074655969" x2="383.1745074655969" y1="0.5" y2="30"/><line opacity="0.2" x1="576.7478264484951" x2="576.7478264484951" y1="0.5" y2="30"/><line opacity="0.2" x1="228.67890575910553" x2="228.67890575910553" y1="0.5" y2="30"/><line opacity="0.2" x1="110.78377793686312" x2="110.78377793686312" y1="0.5" y2="30"/><line opacity="0.2" x1="397.2732698289086" x2="397.2732698289086" y1="0.5" y2="30"/><line opacity="0.2" x1="444.302129496165" x2="444.302129496165" y1="0.5" y2="30"/><line opacity="0.2" x1="376.64166986803355" x2="376.64166986803355" y1="0.5" y2="30"/><line opacity="0.2" x1="264.53388199709894" x2="264.53388199709894" y1="0.5" y2="30"/><line opacity="0.2" x1="315.3873764873831" x2="315.3873764873831" y1="0.5" y2="30"/><line opacity="0.2" x1="336.6117034924664" x2="336.6117034924664" y1="0.5" y2="30"/><line opacity="0.2" x1="318.5695921733767" x2="318.5695921733767" y1="0.5" y2="30"/><line opacity="0.2" x1="515.600756140209" x2="515.600756140209" y1="0.5" y2="30"/><line opacity="0.2" x1="220.74755465361528" x2="220.74755465361528" y1="0.5" y2="30"/><line opacity="0.2" x1="99.98036116309004" x2="99.98036116309004" y1="0.5" y2="30"/><line opacity="0.2" x1="391.37595241416165" x2="391.37595241416165" y1="0.5" y2="30"/><line opacity="0.2" x1="358.2834532947886" x2="358.2834532947886" y1="0.5" y2="30"/><line opacity="0.2" x1="245.21835092820143" x2="245.21835092820143" y1="0.5" y2="30"/><line opacity="0.2" x1="335.7724078371436" x2="335.7724078371436" y1="0.5" y2="30"/><line opacity="0.2" x1="247.98109347207614" x2="247.98109347207614" y1="0.5" y2="30"/><line opacity="0.2" x1="264.17579765338803" x2="264.17579765338803" y1="0.5" y2="30"/><line opacity="0.2" x1="459.4683984616447" x2="459.4683984616447" y1="0.5" y2="30"/><line opacity="0.2" x1="195.24720383531613" x2="195.24720383531613" y1="0.5" y2="30"/><line opacity="0.2" x1="453.35471267968484" x2="453.35471267968484" y1="0.5" y2="30"/><line opacity="0.2" x1="276.7339550826215" x2="276.7339550826215" y1="0.5" y2="30"/><line opacity="0.2" x1="289.27610598211885" x2="289.27610598211885" y1="0.5" y2="30"/><line opacity="0.2" x1="369.72206634835686" x2="369.72206634835686" y1="0.5" y2="30"/><line opacity="0.2" x1="472.67384503343095" x2="472.67384503343095" y1="0.5" y2="30"/><line opacity="0.2" x1="503.7972385982091" x2="503.7972385982091" y1="0.5" y2="30"/><line opacity="0.2" x1="148.4424880893534" x2="148.4424880893534" y1="0.5" y2="30"/><line opacity="0.2" x1="163.03524291594144" x2="163.03524291594144" y1="0.5" y2="30"/><line opacity="0.2" x1="267.4767187135343" x2="267.4767187135343" y1="0.5" y2="30"/><line opacity="0.2" x1="405.9577750295099" x2="405.9577750295099" y1="0.5" y2="30"/><line opacity="0.2" x1="349.52928980264994" x2="349.52928980264994" y1="0.5" y2="30"/><line opacity="0.2" x1="175.43411427237015" x2="175.43411427237015" y1="0.5" y2="30"/><line opacity="0.2" x1="414.3913599475136" x2="414.3913599475136" y1="0.5" y2="30"/><line opacity="0.2" x1="227.36793607551667" x2="227.36793607551667" y1="0.5" y2="30"/><line opacity="0.2" x1="401.9148058284265" x2="401.9148058284265" y1="0.5" y2="30"/><line opacity="0.2" x1="331.0307639184046" x2="331.0307639184046" y1="0.5" y2="30"/><line opacity="0.2" x1="127.86397860406375" x2="127.86397860406375" y1="0.5" y2="30"/><line opacity="0.2" x1="343.17814846211337" x2="343.17814846211337" y1="0.5" y2="30"/><line opacity="0.2" x1="314.7700241645231" x2="314.7700241645231" y1="0.5" y2="30"/><line opacity="0.2" x1="287.7477507452594" x2="287.7477507452594" y1="0.5" y2="30"/><line opacity="0.2" x1="87.45602054577923" x2="87.45602054577923" y1="0.5" y2="30"/><line opacity="0.2" x1="234.7905040257393" x2="234.7905040257393" y1="0.5" y2="30"/><line opacity="0.2" x1="404.0784989410221" x2="404.0784989410221" y1="0.5" y2="30"/><line opacity="0.2" x1="386.53349695795157" x2="386.53349695795157" y1="0.5" y2="30"/><line opacity="0.2" x1="222.49695341608884" x2="222.49695341608884" y1="0.5" y2="30"/><line opacity="0.2" x1="316.7138572829358" x2="316.7138572829358" y1="0.5" y2="30"/><line opacity="0.2" x1="194.216135846131" x2="194.216135846131" y1="0.5" y2="30"/><line opacity="0.2" x1="212.48057809713742" x2="212.48057809713742" y1="0.5" y2="30"/><line opacity="0.2" x1="446.6585296954843" x2="446.6585296954843" y1="0.5" y2="30"/><line opacity="0.2" x1="205.04854157096878" x2="205.04854157096878" y1="0.5" y2="30"/><line opacity="0.2" x1="262.5436090456925" x2="262.5436090456925" y1="0.5" y2="30"/><line opacity="0.2" x1="317.93815897596005" x2="317.93815897596005" y1="0.5" y2="30"/><line opacity="0.2" x1="241.07117135533042" x2="241.07117135533042" y1="0.5" y2="30"/><line opacity="0.2" x1="324.315381647751" x2="324.315381647751" y1="0.5" y2="30"/><line opacity="0.2" x1="324.77744797027964" x2="324.77744797027964" y1="0.5" y2="30"/><line opacity="0.2" x1="539.4068474593124" x2="539.4068474593124" y1="0.5" y2="30"/><line opacity="0.2" x1="620" x2="620" y1="0.5" y2="30"/><line opacity="0.2" x1="372.8019426066498" x2="372.8019426066498" y1="0.5" y2="30"/><line opacity="0.2" x1="223.9441448931145" x2="223.9441448931145" y1="0.5" y2="30"/><line opacity="0.2" x1="301.12814992039966" x2="301.12814992039966" y1="0.5" y2="30"/><line opacity="0.2" x1="246.3857932825508" x2="246.3857932825508" y1="0.5" y2="30"/><line opacity="0.2" x1="245.67996585009197" x2="245.67996585009197" y1="0.5" y2="30"/><line opacity="0.2" x1="251.7427677958196" x2="251.7427677958196" y1="0.5" y2="30"/><line opacity="0.2" x1="430.52768234997916" x2="430.52768234997916" y1="0.5" y2="30"/><line opacity="0.2" x1="203.24731564026536" x2="203.24731564026536" y1="0.5" y2="30"/><line opacity="0.2" x1="321.5018471055096" x2="321.5018471055096" y1="0.5" y2="30"/><line opacity="0.2" x1="611.8415277557608" x2="611.8415277557608" y1="0.5" y2="30"/><line opacity="0.2" x1="325.33944372196606" x2="325.33944372196606" y1="0.5" y2="30"/><line opacity="0.2" x1="385.4368182586349" x2="385.4368182586349" y1="0.5" y2="30"/><line opacity="0.2" x1="233.2506920327782" x2="233.2506920327782" y1="0.5" y2="30"/><line opacity="0.2" x1="166.33443401560075" x2="166.33443401560075" y1="0.5" y2="30"/><line opacity="0.2" x1="295.44477953600943" x2="295.44477953600943" y1="0.5" y2="30"/><line opacity="0.2" x1="121.63384174481644" x2="121.63384174481644" y1="0.5" y2="30"/><line opacity="0.2" x1="419.10792766901994" x2="419.10792766901994" y1="0.5" y2="30"/><line opacity="0.2" x1="466.0965838267534" x2="466.0965838267534" y1="0.5" y2="30"/><line opacity="0.2" x1="381.0168671216226" x2="381.0168671216226" y1="0.5" y2="30"/><line opacity="0.2" x1="366.7171522136634" x2="366.7171522136634" y1="0.5" y2="30"/><line opacity="0.2" x1="190.81969322271365" x2="190.81969322271365" y1="0.5" y2="30"/><line opacity="0.2" x1="205.30948408936047" x2="205.30948408936047" y1="0.5" y2="30"/><line opacity="0.2" x1="158.60464908622856" x2="158.60464908622856" y1="0.5" y2="30"/><line opacity="0.2" x1="211.26108863180644" x2="211.26108863180644" y1="0.5" y2="30"/><line opacity="0.2" x1="238.66198496760896" x2="238.66198496760896" y1="0.5" y2="30"/><line opacity="0.2" x1="315.13564410091533" x2="315.13564410091533" y1="0.5" y2="30"/><line opacity="0.2" x1="318.6089852925013" x2="318.6089852925013" y1="0.5" y2="30"/><line opacity="0.2" x1="373.7830094565642" x2="373.7830094565642" y1="0.5" y2="30"/><line opacity="0.2" x1="222.12891380321457" x2="222.12891380321457" y1="0.5" y2="30"/><line opacity="0.2" x1="247.3990392483274" x2="247.3990392483274" y1="0.5" y2="30"/><line opacity="0.2" x1="434.4222319604249" x2="434.4222319604249" y1="0.5" y2="30"/><line opacity="0.2" x1="442.95949047996123" x2="442.95949047996123" y1="0.5" y2="30"/><line opacity="0.2" x1="435.004561889235" x2="435.004561889235" y1="0.5" y2="30"/><line opacity="0.2" x1="298.28362476145173" x2="298.28362476145173" y1="0.5" y2="30"/><line opacity="0.2" x1="201.0698648134709" x2="201.0698648134709" y1="0.5" y2="30"/><line opacity="0.2" x1="364.9090612664828" x2="364.9090612664828" y1="0.5" y2="30"/><line opacity="0.2" x1="422.2781667562501" x2="422.2781667562501" y1="0.5" y2="30"/><line opacity="0.2" x1="270.8229386041424" x2="270.8229386041424" y1="0.5" y2="30"/><line opacity="0.2" x1="308.02977734655246" x2="308.02977734655246" y1="0.5" y2="30"/><line opacity="0.2" x1="205.24633391260056" x2="205.24633391260056" y1="0.5" y2="30"/><line opacity="0.2" x1="155.64251926219455" x2="155.64251926219455" y1="0.5" y2="30"/><line opacity="0.2" x1="125.04675996423938" x2="125.04675996423938" y1="0.5" y2="30"/><line opacity="0.2" x1="368.92480193192" x2="368.92480193192" y1="0.5" y2="30"/><line opacity="0.2" x1="471.60525582147983" x2="471.60525582147983" y1="0.5" y2="30"/><line opacity="0.2" x1="310.38679224628345" x2="310.38679224628345" y1="0.5" y2="30"/><line opacity="0.2" x1="455.9200113609602" x2="455.9200113609602" y1="0.5" y2="30"/><line opacity="0.2" x1="208.58936616164843" x2="208.58936616164843" y1="0.5" y2="30"/><line opacity="0.2" x1="332.88624110730746" x2="332.88624110730746" y1="0.5" y2="30"/><line opacity="0.2" x1="381.1279583139229" x2="381.1279583139229" y1="0.5" y2="30"/><line opacity="0.2" x1="146.4677253436047" x2="146.4677253436047" y1="0.5" y2="30"/><line opacity="0.2" x1="330.5631228231975" x2="330.5631228231975" y1="0.5" y2="30"/><line opacity="0.2" x1="225.2972344541501" x2="225.2972344541501" y1="0.5" y2="30"/><line opacity="0.2" x1="427.8991814862377" x2="427.8991814862377" y1="0.5" y2="30"/><line opacity="0.2" x1="207.27552217812155" x2="207.27552217812155" y1="0.5" y2="30"/><line opacity="0.2" x1="444.26237097834144" x2="444.26237097834144" y1="0.5" y2="30"/><line opacity="0.2" x1="421.7562533390998" x2="421.7562533390998" y1="0.5" y2="30"/><line opacity="0.2" x1="308.9502872915997" x2="308.9502872915997" y1="0.5" y2="30"/><line opacity="0.2" x1="20" x2="20" y1="0.5" y2="30"/><line opacity="0.2" x1="180.3368919395807" x2="180.3368919395807" y1="0.5" y2="30"/><line opacity="0.2" x1="393.7672386465925" x2="393.7672386465925" y1="0.5" y2="30"/><line opacity="0.2" x1="235.08804925283079" x2="235.08804925283079" y1="0.5" y2="30"/><line opacity="0.2" x1="272.3802443064324" x2="272.3802443064324" y1="0.5" y2="30"/><line opacity="0.2" x1="278.9565182055116" x2="278.9565182055116" y1="0.5" y2="30"/><line opacity="0.2" x1="216.5953601130389" x2="216.5953601130389" y1="0.5" y2="30"/><line opacity="0.2" x1="506.70548706312405" x2="506.70548706312405" y1="0.5" y2="30"/><line opacity="0.2" x1="368.8824663203145" x2="368.8824663203145" y1="0.5" y2="30"/><line opacity="0.2" x1="401.29468457358536" x2="401.29468457358536" y1="0.5" y2="30"/><line opacity="0.2" x1="381.90303458900706" x2="381.90303458900706" y1="0.5" y2="30"/><line opacity="0.2" x1="432.33469275045064" x2="432.33469275045064" y1="0.5" y2="30"/><line opacity="0.2" x1="290.9711840548526" x2="290.9711840548526" y1="0.5" y2="30"/><line opacity="0.2" x1="197.64079964032769" x2="197.64079964032769" y1="0.5" y2="30"/><line opacity="0.2" x1="296.5810136735335" x2="296.5810136735335" y1="0.5" y2="30"/><line opacity="0.2" x1="345.2405648287907" x2="345.2405648287907" y1="0.5" y2="30"/><line opacity="0.2" x1="465.5289806497138" x2="465.5289806497138" y1="0.5" y2="30"/><line opacity="0.2" x1="254.73770874509952" x2="254.73770874509952" y1="0.5" y2="30"/><line opacity="0.2" x1="271.6789493354604" x2="271.6789493354604" y1="0.5" y2="30"/><line opacity="0.2" x1="255.1254254695806" x2="255.1254254695806" y1="0.5" y2="30"/><line opacity="0.2" x1="363.7217201338878" x2="363.7217201338878" y1="0.5" y2="30"/><line opacity="0.2" x1="520.1193403618898" x2="520.1193403618898" y1="0.5" y2="30"/><line opacity="0.2" x1="351.2763634389628" x2="351.2763634389628" y1="0.5" y2="30"/><line opacity="0.2" x1="272.44608925899735" x2="272.44608925899735" y1="0.5" y2="30"/><line opacity="0.2" x1="163.39858461440087" x2="163.39858461440087" y1="0.5" y2="30"/><line opacity="0.2" x1="277.9040092457378" x2="277.9040092457378" y1="0.5" y2="30"/><line opacity="0.2" x1="430.16672853855357" x2="430.16672853855357" y1="0.5" y2="30"/><line opacity="0.2" x1="387.3726675419757" x2="387.3726675419757" y1="0.5" y2="30"/><line opacity="0.2" x1="232.32390745254955" x2="232.32390745254955" y1="0.5" y2="30"/><line opacity="0.2" x1="488.94556113904025" x2="488.94556113904025" y1="0.5" y2="30"/><line opacity="0.2" x1="246.12949199944472" x2="246.12949199944472" y1="0.5" y2="30"/><line opacity="0.2" x1="544.8851126101131" x2="544.8851126101131" y1="0.5" y2="30"/><line opacity="0.2" x1="388.49644725199613" x2="388.49644725199613" y1="0.5" y2="30"/><line opacity="0.2" x1="298.8669161229014" x2="298.8669161229014" y1="0.5" y2="30"/><line opacity="0.2" x1="334.97532363383914" x2="334.97532363383914" y1="0.5" y2="30"/><line opacity="0.2" x1="254.04462628202972" x2="254.04462628202972" y1="0.5" y2="30"/><line opacity="0.2" x1="253.0762879601946" x2="253.0762879601946" y1="0.5" y2="30"/><line opacity="0.2" x1="200.59331458869" x2="200.59331458869" y1="0.5" y2="30"/><line opacity="0.2" x1="370.48072616591674" x2="370.48072616591674" y1="0.5" y2="30"/><line opacity="0.2" x1="287.24310619670274" x2="287.24310619670274" y1="0.5" y2="30"/><line opacity="0.2" x1="242.04908317588223" x2="242.04908317588223" y1="0.5" y2="30"/><line opacity="0.2" x1="339.89927352407346" x2="339.89927352407346" y1="0.5" y2="30"/><line opacity="0.2" x1="323.88518851419565" x2="323.88518851419565" y1="0.5" y2="30"/><line opacity="0.2" x1="222.2831620875716" x2="222.2831620875716" y1="0.5" y2="30"/><line opacity="0.2" x1="239.0742782951759" x2="239.0742782951759" y1="0.5" y2="30"/><line opacity="0.2" x1="308.0805026801867" x2="308.0805026801867" y1="0.5" y2="30"/><line opacity="0.2" x1="358.023312510256" x2="358.023312510256" y1="0.5" y2="30"/><line opacity="0.2" x1="444.49642822389524" x2="444.49642822389524" y1="0.5" y2="30"/><line opacity="0.2" x1="157.0998421646626" x2="157.0998421646626" y1="0.5" y2="30"/><line opacity="0.2" x1="263.5451593276769" x2="263.5451593276769" y1="0.5" y2="30"/><line opacity="0.2" x1="414.37803424687866" x2="414.37803424687866" y1="0.5" y2="30"/><line opacity="0.2" x1="238.13619176629592" x2="238.13619176629592" y1="0.5" y2="30"/><line opacity="0.2" x1="412.9463856521001" x2="412.9463856521001" y1="0.5" y2="30"/><line opacity="0.2" x1="259.2084044279116" x2="259.2084044279116" y1="0.5" y2="30"/><line opacity="0.2" x1="391.34618765856237" x2="391.34618765856237" y1="0.5" y2="30"/><line opacity="0.2" x1="339.2505199019926" x2="339.2505199019926" y1="0.5" y2="30"/><line opacity="0.2" x1="259.87047277845335" x2="259.87047277845335" y1="0.5" y2="30"/><line opacity="0.2" x1="482.6289671017432" x2="482.6289671017432" y1="0.5" y2="30"/><line opacity="0.2" x1="276.0322799804361" x2="276.0322799804361" y1="0.5" y2="30"/><line opacity="0.2" x1="333.90478237333525" x2="333.90478237333525" y1="0.5" y2="30"/><line opacity="0.2" x1="376.9883641610692" x2="376.9883641610692" y1="0.5" y2="30"/><line opacity="0.2" x1="308.3884977035532" x2="308.3884977035532" y1="0.5" y2="30"/><line opacity="0.2" x1="140.54938820487902" x2="140.54938820487902" y1="0.5" y2="30"/><line opacity="0.2" x1="432.61190392074525" x2="432.61190392074525" y1="0.5" y2="30"/><line opacity="0.2" x1="223.49743185692117" x2="223.49743185692117" y1="0.5" y2="30"/><line opacity="0.2" x1="326.7640820589451" x2="326.7640820589451" y1="0.5" y2="30"/><line opacity="0.2" x1="209.37635385146703" x2="209.37635385146703" y1="0.5" y2="30"/><line opacity="0.2" x1="336.5575784904177" x2="336.5575784904177" y1="0.5" y2="30"/><line opacity="0.2" x1="197.10283542764006" x2="197.10283542764006" y1="0.5" y2="30"/><line opacity="0.2" x1="402.9851111924128" x2="402.9851111924128" y1="0.5" y2="30"/><line opacity="0.2" x1="424.07081204588553" x2="424.07081204588553" y1="0.5" y2="30"/><line opacity="0.2" x1="127.09414359082122" x2="127.09414359082122" y1="0.5" y2="30"/><line opacity="0.2" x1="278.57119334840513" x2="278.57119334840513" y1="0.5" y2="30"/><line opacity="0.2" x1="394.5623766576295" x2="394.5623766576295" y1="0.5" y2="30"/><line opacity="0.2" x1="204.9852805769975" x2="204.9852805769975" y1="0.5" y2="30"/><line opacity="0.2" x1="459.18402349861407" x2="459.18402349861407" y1="0.5" y2="30"/><line opacity="0.2" x1="198.6902270417537" x2="198.6902270417537" y1="0.5" y2="30"/><line opacity="0.2" x1="254.99985828287055" x2="254.99985828287055" y1="0.5" y2="30"/><line opacity="0.2" x1="356.3592706576222" x2="356.3592706576222" y1="0.5" y2="30"/><line opacity="0.2" x1="282.3668044505042" x2="282.3668044505042" y1="0.5" y2="30"/><line opacity="0.2" x1="213.15949094366368" x2="213.15949094366368" y1="0.5" y2="30"/><line opacity="0.2" x1="443.7677954213511" x2="443.7677954213511" y1="0.5" y2="30"/><line opacity="0.2" x1="338.5629209736637" x2="338.5629209736637" y1="0.5" y2="30"/><line opacity="0.2" x1="327.53294104712546" x2="327.53294104712546" y1="0.5" y2="30"/><line opacity="0.2" x1="242.3351173825694" x2="242.3351173825694" y1="0.5" y2="30"/><line opacity="0.2" x1="206.9621953587957" x2="206.9621953587957" y1="0.5" y2="30"/><line opacity="0.2" x1="297.6454925688291" x2="297.6454925688291" y1="0.5" y2="30"/><line opacity="0.2" x1="180.44509255166605" x2="180.44509255166605" y1="0.5" y2="30"/><line opacity="0.2" x1="216.60904768808064" x2="216.60904768808064" y1="0.5" y2="30"/><line opacity="0.2" x1="515.4657890903874" x2="515.4657890903874" y1="0.5" y2="30"/><line opacity="0.2" x1="344.3087798384639" x2="344.3087798384639" y1="0.5" y2="30"/><line opacity="0.2" x1="243.88498635532767" x2="243.88498635532767" y1="0.5" y2="30"/><line opacity="0.2" x1="215.63636338380616" x2="215.63636338380616" y1="0.5" y2="30"/><line opacity="0.2" x1="478.8422822014763" x2="478.8422822014763" y1="0.5" y2="30"/><line opacity="0.2" x1="265.5924066191401" x2="265.5924066191401" y1="0.5" y2="30"/><line opacity="0.2" x1="255.33789956843628" x2="255.33789956843628" y1="0.5" y2="30"/><line opacity="0.2" x1="219.561432426847" x2="219.561432426847" y1="0.5" y2="30"/><line opacity="0.2" x1="256.0353339239174" x2="256.0353339239174" y1="0.5" y2="30"/><line opacity="0.2" x1="107.63659313135017" x2="107.63659313135017" y1="0.5" y2="30"/><line opacity="0.2" x1="142.93539483227585" x2="142.93539483227585" y1="0.5" y2="30"/><line opacity="0.2" x1="295.12979482639463" x2="295.12979482639463" y1="0.5" y2="30"/><line opacity="0.2" x1="188.85671083684394" x2="188.85671083684394" y1="0.5" y2="30"/><line opacity="0.2" x1="272.19584017497004" x2="272.19584017497004" y1="0.5" y2="30"/><line opacity="0.2" x1="378.1225589052162" x2="378.1225589052162" y1="0.5" y2="30"/><line opacity="0.2" x1="470.830192956174" x2="470.830192956174" y1="0.5" y2="30"/><line opacity="0.2" x1="256.7693517526631" x2="256.7693517526631" y1="0.5" y2="30"/><line opacity="0.2" x1="328.25620110179705" x2="328.25620110179705" y1="0.5" y2="30"/><line opacity="0.2" x1="427.1961233499523" x2="427.1961233499523" y1="0.5" y2="30"/><line opacity="0.2" x1="272.69289005051763" x2="272.69289005051763" y1="0.5" y2="30"/><line opacity="0.2" x1="388.70051339296964" x2="388.70051339296964" y1="0.5" y2="30"/><line opacity="0.2" x1="432.2920848395731" x2="432.2920848395731" y1="0.5" y2="30"/><line opacity="0.2" x1="324.90631367226536" x2="324.90631367226536" y1="0.5" y2="30"/><line opacity="0.2" x1="201.5033077066232" x2="201.5033077066232" y1="0.5" y2="30"/><line opacity="0.2" x1="296.8099880349388" x2="296.8099880349388" y1="0.5" y2="30"/><line opacity="0.2" x1="303.9739622339544" x2="303.9739622339544" y1="0.5" y2="30"/><line opacity="0.2" x1="245.82878925657892" x2="245.82878925657892" y1="0.5" y2="30"/><line opacity="0.2" x1="319.01505630942563" x2="319.01505630942563" y1="0.5" y2="30"/><line opacity="0.2" x1="332.82499268394946" x2="332.82499268394946" y1="0.5" y2="30"/><line opacity="0.2" x1="317.2005343429644" x2="317.2005343429644" y1="0.5" y2="30"/><line opacity="0.2" x1="280.4813826616688" x2="280.4813826616688" y1="0.5" y2="30"/><line opacity="0.2" x1="364.6740213225552" x2="364.6740213225552" y1="0.5" y2="30"/><line opacity="0.2" x1="171.1792245758994" x2="171.1792245758994" y1="0.5" y2="30"/><line opacity="0.2" x1="403.0397681944166" x2="403.0397681944166" y1="0.5" y2="30"/><line opacity="0.2" x1="334.164956518611" x2="334.164956518611" y1="0.5" y2="30"/><line opacity="0.2" x1="292.4758190446306" x2="292.4758190446306" y1="0.5" y2="30"/><line opacity="0.2" x1="249.81459680349053" x2="249.81459680349053" y1="0.5" y2="30"/><line opacity="0.2" x1="28.13829174163174" x2="28.13829174163174" y1="0.5" y2="30"/><line opacity="0.2" x1="275.28766051073046" x2="275.28766051073046" y1="0.5" y2="30"/><line opacity="0.2" x1="488.51395672096544" x2="488.51395672096544" y1="0.5" y2="30"/><line opacity="0.2" x1="270.0929151564434" x2="270.0929151564434" y1="0.5" y2="30"/><line opacity="0.2" x1="398.42466189018114" x2="398.42466189018114" y1="0.5" y2="30"/><line opacity="0.2" x1="221.9984669369067" x2="221.9984669369067" y1="0.5" y2="30"/><line opacity="0.2" x1="422.7829735384746" x2="422.7829735384746" y1="0.5" y2="30"/><line opacity="0.2" x1="485.69390975074003" x2="485.69390975074003" y1="0.5" y2="30"/><line opacity="0.2" x1="431.11357648468874" x2="431.11357648468874" y1="0.5" y2="30"/><line opacity="0.2" x1="315.64303553574837" x2="315.64303553574837" y1="0.5" y2="30"/><line opacity="0.2" x1="432.4852634465933" x2="432.4852634465933" y1="0.5" y2="30"/><line opacity="0.2" x1="374.75593511446596" x2="374.75593511446596" y1="0.5" y2="30"/><line opacity="0.2" x1="44.327273441553224" x2="44.327273441553224" y1="0.5" y2="30"/><line opacity="0.2" x1="308.60371289125715" x2="308.60371289125715" y1="0.5" y2="30"/><line opacity="0.2" x1="366.2029860680815" x2="366.2029860680815" y1="0.5" y2="30"/><line opacity="0.2" x1="189.43646042700442" x2="189.43646042700442" y1="0.5" y2="30"/><line opacity="0.2" x1="459.82107226937785" x2="459.82107226937785" y1="0.5" y2="30"/><line opacity="0.2" x1="261.6355248979525" x2="261.6355248979525" y1="0.5" y2="30"/><line opacity="0.2" x1="404.6143496929911" x2="404.6143496929911" y1="0.5" y2="30"/><line opacity="0.2" x1="249.09871386963857" x2="249.09871386963857" y1="0.5" y2="30"/><line opacity="0.2" x1="253.57458541306912" x2="253.57458541306912" y1="0.5" y2="30"/><line opacity="0.2" x1="304.6439591733929" x2="304.6439591733929" y1="0.5" y2="30"/><line opacity="0.2" x1="461.51742886007105" x2="461.51742886007105" y1="0.5" y2="30"/><line opacity="0.2" x1="487.7127935080805" x2="487.7127935080805" y1="0.5" y2="30"/><line opacity="0.2" x1="316.8530902255576" x2="316.8530902255576" y1="0.5" y2="30"/><line opacity="0.2" x1="371.72973244352255" x2="371.72973244352255" y1="0.5" y2="30"/><line opacity="0.2" x1="261.9989017668392" x2="261.9989017668392" y1="0.5" y2="30"/><line opacity="0.2" x1="215.18490196207915" x2="215.18490196207915" y1="0.5" y2="30"/><line opacity="0.2" x1="266.25286736754555" x2="266.25286736754555" y1="0.5" y2="30"/><line opacity="0.2" x1="331.5001163702812" x2="331.5001163702812" y1="0.5" y2="30"/><line opacity="0.2" x1="346.6964447485014" x2="346.6964447485014" y1="0.5" y2="30"/><line opacity="0.2" x1="477.1570036867656" x2="477.1570036867656" y1="0.5" y2="30"/><line opacity="0.2" x1="295.68950901108974" x2="295.68950901108974" y1="0.5" y2="30"/><line opacity="0.2" x1="392.3727712618304" x2="392.3727712618304" y1="0.5" y2="30"/><line opacity="0.2" x1="168.09392381094474" x2="168.09392381094474" y1="0.5" y2="30"/><line opacity="0.2" x1="288.72569497964713" x2="288.72569497964713" y1="0.5" y2="30"/><line opacity="0.2" x1="441.33616783495023" x2="441.33616783495023" y1="0.5" y2="30"/><line opacity="0.2" x1="252.95199257755556" x2="252.95199257755556" y1="0.5" y2="30"/><line opacity="0.2" x1="231.70113357939772" x2="231.70113357939772" y1="0.5" y2="30"/><line opacity="0.2" x1="425.34481718717956" x2="425.34481718717956" y1="0.5" y2="30"/><line opacity="0.2" x1="371.40627846502423" x2="371.40627846502423" y1="0.5" y2="30"/><line opacity="0.2" x1="245.32630364738267" x2="245.32630364738267" y1="0.5" y2="30"/><line opacity="0.2" x1="285.4793589995213" x2="285.4793589995213" y1="0.5" y2="30"/><line opacity="0.2" x1="281.1230627389144" x2="281.1230627389144" y1="0.5" y2="30"/><line opacity="0.2" x1="254.0795058327862" x2="254.0795058327862" y1="0.5" y2="30"/><line opacity="0.2" x1="264.94447415628395" x2="264.94447415628395" y1="0.5" y2="30"/><line opacity="0.2" x1="202.02925257132583" x2="202.02925257132583" y1="0.5" y2="30"/><line opacity="0.2" x1="247.56932823173972" x2="247.56932823173972" y1="0.5" y2="30"/><line opacity="0.2" x1="397.53566814619927" x2="397.53566814619927" y1="0.5" y2="30"/><line opacity="0.2" x1="312.5189386868664" x2="312.5189386868664" y1="0.5" y2="30"/><line opacity="0.2" x1="269.13924869381015" x2="269.13924869381015" y1="0.5" y2="30"/><line opacity="0.2" x1="358.90625094554224" x2="358.90625094554224" y1="0.5" y2="30"/><line opacity="0.2" x1="293.93077365955355" x2="293.93077365955355" y1="0.5" y2="30"/><line opacity="0.2" x1="337.89669286130413" x2="337.89669286130413" y1="0.5" y2="30"/><line opacity="0.2" x1="433.5153619446087" x2="433.5153619446087" y1="0.5" y2="30"/><line opacity="0.2" x1="361.04685870065686" x2="361.04685870065686" y1="0.5" y2="30"/><line opacity="0.2" x1="222.07593918546252" x2="222.07593918546252" y1="0.5" y2="30"/><line opacity="0.2" x1="538.781654213535" x2="538.781654213535" y1="0.5" y2="30"/><line opacity="0.2" x1="455.9879206404667" x2="455.9879206404667" y1="0.5" y2="30"/><line opacity="0.2" x1="225.64703823770174" x2="225.64703823770174" y1="0.5" y2="30"/><line opacity="0.2" x1="381.7842117885725" x2="381.7842117885725" y1="0.5" y2="30"/><line opacity="0.2" x1="294.7926986948277" x2="294.7926986948277" y1="0.5" y2="30"/><line opacity="0.2" x1="386.9582110549068" x2="386.9582110549068" y1="0.5" y2="30"/><line opacity="0.2" x1="348.0402585568064" x2="348.0402585568064" y1="0.5" y2="30"/><line opacity="0.2" x1="467.59324110454247" x2="467.59324110454247" y1="0.5" y2="30"/><line opacity="0.2" x1="173.4239819009665" x2="173.4239819009665" y1="0.5" y2="30"/><line opacity="0.2" x1="201.35021037216464" x2="201.35021037216464" y1="0.5" y2="30"/><line opacity="0.2" x1="365.13265994457265" x2="365.13265994457265" y1="0.5" y2="30"/><line opacity="0.2" x1="400.63628663264655" x2="400.63628663264655" y1="0.5" y2="30"/><line opacity="0.2" x1="405.3761975528162" x2="405.3761975528162" y1="0.5" y2="30"/><line opacity="0.2" x1="320.4147660378555" x2="320.4147660378555" y1="0.5" y2="30"/><line opacity="0.2" x1="295.14855631520277" x2="295.14855631520277" y1="0.5" y2="30"/><line opacity="0.2" x1="295.09330477432985" x2="295.09330477432985" y1="0.5" y2="30"/><line opacity="0.2" x1="343.39866045577077" x2="343.39866045577077" y1="0.5" y2="30"/><line opacity="0.2" x1="293.00095661741096" x2="293.00095661741096" y1="0.5" y2="30"/><line opacity="0.2" x1="265.93981437468926" x2="265.93981437468926" y1="0.5" y2="30"/><line opacity="0.2" x1="468.1475313718884" x2="468.1475313718884" y1="0.5" y2="30"/><line opacity="0.2" x1="304.40700739858795" x2="304.40700739858795" y1="0.5" y2="30"/><line opacity="0.2" x1="230.56313307795122" x2="230.56313307795122" y1="0.5" y2="30"/><line opacity="0.2" x1="322.9314994916557" x2="322.9314994916557" y1="0.5" y2="30"/><line opacity="0.2" x1="344.79639578429874" x2="344.79639578429874" y1="0.5" y2="30"/><line opacity="0.2" x1="360.1057409494229" x2="360.1057409494229" y1="0.5" y2="30"/><line opacity="0.2" x1="299.955362164514" x2="299.955362164514" y1="0.5" y2="30"/><line opacity="0.2" x1="277.120831007601" x2="277.120831007601" y1="0.5" y2="30"/><line opacity="0.2" x1="434.2321316004778" x2="434.2321316004778" y1="0.5" y2="30"/><line opacity="0.2" x1="174.23629193136688" x2="174.23629193136688" y1="0.5" y2="30"/><line opacity="0.2" x1="436.91744355249506" x2="436.91744355249506" y1="0.5" y2="30"/><line opacity="0.2" x1="393.5426505231933" x2="393.5426505231933" y1="0.5" y2="30"/><line opacity="0.2" x1="204.20060826362737" x2="204.20060826362737" y1="0.5" y2="30"/><line opacity="0.2" x1="266.2989059207013" x2="266.2989059207013" y1="0.5" y2="30"/><line opacity="0.2" x1="357.84774555142263" x2="357.84774555142263" y1="0.5" y2="30"/><line opacity="0.2" x1="386.9200406717864" x2="386.9200406717864" y1="0.5" y2="30"/><line opacity="0.2" x1="241.87877991813554" x2="241.87877991813554" y1="0.5" y2="30"/><line opacity="0.2" x1="278.37190217702596" x2="278.37190217702596" y1="0.5" y2="30"/><line opacity="0.2" x1="326.00986563189167" x2="326.00986563189167" y1="0.5" y2="30"/><line opacity="0.2" x1="155.20346953903555" x2="155.20346953903555" y1="0.5" y2="30"/><line opacity="0.2" x1="331.7847664769759" x2="331.7847664769759" y1="0.5" y2="30"/><line opacity="0.2" x1="243.63425404349363" x2="243.63425404349363" y1="0.5" y2="30"/><line opacity="0.2" x1="205.3673722565764" x2="205.3673722565764" y1="0.5" y2="30"/><line opacity="0.2" x1="367.91381356981435" x2="367.91381356981435" y1="0.5" y2="30"/><line opacity="0.2" x1="446.5904240720876" x2="446.5904240720876" y1="0.5" y2="30"/><line opacity="0.2" x1="372.241213492193" x2="372.241213492193" y1="0.5" y2="30"/><line opacity="0.2" x1="421.66639847294965" x2="421.66639847294965" y1="0.5" y2="30"/><line opacity="0.2" x1="292.05217787180493" x2="292.05217787180493" y1="0.5" y2="30"/><line opacity="0.2" x1="510.3640837617307" x2="510.3640837617307" y1="0.5" y2="30"/><line opacity="0.2" x1="325.50377659970763" x2="325.50377659970763" y1="0.5" y2="30"/><line opacity="0.2" x1="190.5416118954797" x2="190.5416118954797" y1="0.5" y2="30"/><line opacity="0.2" x1="333.51778637827556" x2="333.51778637827556" y1="0.5" y2="30"/><line opacity="0.2" x1="223.3610354240772" x2="223.3610354240772" y1="0.5" y2="30"/><line opacity="0.2" x1="468.6312570885078" x2="468.6312570885078" y1="0.5" y2="30"/><line opacity="0.2" x1="341.8440836248891" x2="341.8440836248891" y1="0.5" y2="30"/><line opacity="0.2" x1="343.28221769468246" x2="343.28221769468246" y1="0.5" y2="30"/><line opacity="0.2" x1="328.48742722911743" x2="328.48742722911743" y1="0.5" y2="30"/><line opacity="0.2" x1="128.28993280833257" x2="128.28993280833257" y1="0.5" y2="30"/><line opacity="0.2" x1="420.5208837501638" x2="420.5208837501638" y1="0.5" y2="30"/><line opacity="0.2" x1="254.2922295843621" x2="254.2922295843621" y1="0.5" y2="30"/><line opacity="0.2" x1="382.8755507496032" x2="382.8755507496032" y1="0.5" y2="30"/><line opacity="0.2" x1="495.20211478034497" x2="495.20211478034497" y1="0.5" y2="30"/><line opacity="0.2" x1="217.1876425889633" x2="217.1876425889633" y1="0.5" y2="30"/><line opacity="0.2" x1="275.1895232609993" x2="275.1895232609993" y1="0.5" y2="30"/><line opacity="0.2" x1="216.89650304954728" x2="216.89650304954728" y1="0.5" y2="30"/><line opacity="0.2" x1="369.7374125887561" x2="369.7374125887561" y1="0.5" y2="30"/><line opacity="0.2" x1="194.45234652720296" x2="194.45234652720296" y1="0.5" y2="30"/><line opacity="0.2" x1="174.3488725571562" x2="174.3488725571562" y1="0.5" y2="30"/><line opacity="0.2" x1="451.2398661024952" x2="451.2398661024952" y1="0.5" y2="30"/><line opacity="0.2" x1="498.61793341142914" x2="498.61793341142914" y1="0.5" y2="30"/><line opacity="0.2" x1="361.33166002544067" x2="361.33166002544067" y1="0.5" y2="30"/><line opacity="0.2" x1="386.5380952283246" x2="386.5380952283246" y1="0.5" y2="30"/><line opacity="0.2" x1="345.1466889289601" x2="345.1466889289601" y1="0.5" y2="30"/><line opacity="0.2" x1="295.3540348597204" x2="295.3540348597204" y1="0.5" y2="30"/><line opacity="0.2" x1="268.9909776226656" x2="268.9909776226656" y1="0.5" y2="30"/><line opacity="0.2" x1="415.3568060506457" x2="415.3568060506457" y1="0.5" y2="30"/><line opacity="0.2" x1="309.92575021584287" x2="309.92575021584287" y1="0.5" y2="30"/><line opacity="0.2" x1="324.40983708349387" x2="324.40983708349387" y1="0.5" y2="30"/><line opacity="0.2" x1="379.3724985644482" x2="379.3724985644482" y1="0.5" y2="30"/><line opacity="0.2" x1="414.3282605245744" x2="414.3282605245744" y1="0.5" y2="30"/><line opacity="0.2" x1="299.6813221630529" x2="299.6813221630529" y1="0.5" y2="30"/><line opacity="0.2" x1="352.02556212924065" x2="352.02556212924065" y1="0.5" y2="30"/><line opacity="0.2" x1="284.13108285806055" x2="284.13108285806055" y1="0.5" y2="30"/><line opacity="0.2" x1="236.9310447089196" x2="236.9310447089196" y1="0.5" y2="30"/><line opacity="0.2" x1="311.2224412596577" x2="311.2224412596577" y1="0.5" y2="30"/><line opacity="0.2" x1="53.169071062310955" x2="53.169071062310955" y1="0.5" y2="30"/><line opacity="0.2" x1="290.4657422213271" x2="290.4657422213271" y1="0.5" y2="30"/><line opacity="0.2" x1="334.99131725720065" x2="334.99131725720065" y1="0.5" y2="30"/><line opacity="0.2" x1="233.40928528590473" x2="233.40928528590473" y1="0.5" y2="30"/><line opacity="0.2" x1="243.84584798580673" x2="243.84584798580673" y1="0.5" y2="30"/><line opacity="0.2" x1="210.66750394067657" x2="210.66750394067657" y1="0.5" y2="30"/><line opacity="0.2" x1="476.0836342184163" x2="476.0836342184163" y1="0.5" y2="30"/><line opacity="0.2" x1="280.4334842419903" x2="280.4334842419903" y1="0.5" y2="30"/><line opacity="0.2" x1="549.9384470586594" x2="549.9384470586594" y1="0.5" y2="30"/><line opacity="0.2" x1="324.49387970704953" x2="324.49387970704953" y1="0.5" y2="30"/><line opacity="0.2" x1="169.20974787223864" x2="169.20974787223864" y1="0.5" y2="30"/><line opacity="0.2" x1="319.59330524547255" x2="319.59330524547255" y1="0.5" y2="30"/><line opacity="0.2" x1="307.5339180993536" x2="307.5339180993536" y1="0.5" y2="30"/><line opacity="0.2" x1="399.56880672583185" x2="399.56880672583185" y1="0.5" y2="30"/><line opacity="0.2" x1="364.9351770643615" x2="364.9351770643615" y1="0.5" y2="30"/><line opacity="0.2" x1="252.33662660131557" x2="252.33662660131557" y1="0.5" y2="30"/><line opacity="0.2" x1="184.11270769200632" x2="184.11270769200632" y1="0.5" y2="30"/><line opacity="0.2" x1="347.9386842198552" x2="347.9386842198552" y1="0.5" y2="30"/><line opacity="0.2" x1="303.955463911315" x2="303.955463911315" y1="0.5" y2="30"/><line opacity="0.2" x1="504.43858890256035" x2="504.43858890256035" y1="0.5" y2="30"/><line opacity="0.2" x1="542.1786067037034" x2="542.1786067037034" y1="0.5" y2="30"/><line opacity="0.2" x1="337.6363348908239" x2="337.6363348908239" y1="0.5" y2="30"/><line opacity="0.2" x1="475.6301249461502" x2="475.6301249461502" y1="0.5" y2="30"/><line opacity="0.2" x1="290.6699600463663" x2="290.6699600463663" y1="0.5" y2="30"/><line opacity="0.2" x1="254.67104812086023" x2="254.67104812086023" y1="0.5" y2="30"/><line opacity="0.2" x1="246.19842596185094" x2="246.19842596185094" y1="0.5" y2="30"/><line opacity="0.2" x1="480.6049408357399" x2="480.6049408357399" y1="0.5" y2="30"/><line opacity="0.2" x1="301.79865854083954" x2="301.79865854083954" y1="0.5" y2="30"/><line opacity="0.2" x1="377.1538805006719" x2="377.1538805006719" y1="0.5" y2="30"/><line opacity="0.2" x1="339.2397481444186" x2="339.2397481444186" y1="0.5" y2="30"/><line opacity="0.2" x1="421.7420157709536" x2="421.7420157709536" y1="0.5" y2="30"/><line opacity="0.2" x1="331.0131303466185" x2="331.0131303466185" y1="0.5" y2="30"/><line opacity="0.2" x1="214.0728539331129" x2="214.0728539331129" y1="0.5" y2="30"/><line opacity="0.2" x1="381.21867440221433" x2="381.21867440221433" y1="0.5" y2="30"/><line opacity="0.2" x1="288.9531374259138" x2="288.9531374259138" y1="0.5" y2="30"/><line opacity="0.2" x1="522.3302443050902" x2="522.3302443050902" y1="0.5" y2="30"/><line opacity="0.2" x1="265.65008896638614" x2="265.65008896638614" y1="0.5" y2="30"/><line opacity="0.2" x1="409.6053003175309" x2="409.6053003175309" y1="0.5" y2="30"/><line opacity="0.2" x1="344.3710719029666" x2="344.3710719029666" y1="0.5" y2="30"/><line opacity="0.2" x1="530.6697767463861" x2="530.6697767463861" y1="0.5" y2="30"/><line opacity="0.2" x1="405.5419809808097" x2="405.5419809808097" y1="0.5" y2="30"/><line opacity="0.2" x1="268.68702226655125" x2="268.68702226655125" y1="0.5" y2="30"/><line opacity="0.2" x1="241.88397992526652" x2="241.88397992526652" y1="0.5" y2="30"/><line opacity="0.2" x1="349.7191512184118" x2="349.7191512184118" y1="0.5" y2="30"/><line opacity="0.2" x1="243.56061816990268" x2="243.56061816990268" y1="0.5" y2="30"/><line opacity="0.2" x1="269.6887206744281" x2="269.6887206744281" y1="0.5" y2="30"/><line opacity="0.2" x1="447.6532232125882" x2="447.6532232125882" y1="0.5" y2="30"/><line opacity="0.2" x1="431.3878334575386" x2="431.3878334575386" y1="0.5" y2="30"/><line opacity="0.2" x1="249.42954684838367" x2="249.42954684838367" y1="0.5" y2="30"/><line opacity="0.2" x1="236.23911512344392" x2="236.23911512344392" y1="0.5" y2="30"/><line opacity="0.2" x1="519.2747513552607" x2="519.2747513552607" y1="0.5" y2="30"/><line opacity="0.2" x1="295.7981477517085" x2="295.7981477517085" y1="0.5" y2="30"/><line opacity="0.2" x1="246.47609254050235" x2="246.47609254050235" y1="0.5" y2="30"/><line opacity="0.2" x1="351.84035099753777" x2="351.84035099753777" y1="0.5" y2="30"/><line opacity="0.2" x1="213.28013330547947" x2="213.28013330547947" y1="0.5" y2="30"/><line opacity="0.2" x1="392.53047494940483" x2="392.53047494940483" y1="0.5" y2="30"/><line opacity="0.2" x1="342.07671329164157" x2="342.07671329164157" y1="0.5" y2="30"/><line opacity="0.2" x1="479.8793211058693" x2="479.8793211058693" y1="0.5" y2="30"/><line opacity="0.2" x1="327.1160776984177" x2="327.1160776984177" y1="0.5" y2="30"/><line opacity="0.2" x1="327.52930354600943" x2="327.52930354600943" y1="0.5" y2="30"/><line opacity="0.2" x1="98.67369939991725" x2="98.67369939991725" y1="0.5" y2="30"/><line opacity="0.2" x1="269.3512461497742" x2="269.3512461497742" y1="0.5" y2="30"/><line opacity="0.2" x1="255.36295529585325" x2="255.36295529585325" y1="0.5" y2="30"/><line opacity="0.2" x1="363.5508163328732" x2="363.5508163328732" y1="0.5" y2="30"/><line opacity="0.2" x1="174.54572353634222" x2="174.54572353634222" y1="0.5" y2="30"/><line opacity="0.2" x1="345.04377551963074" x2="345.04377551963074" y1="0.5" y2="30"/><line opacity="0.2" x1="225.8160525367266" x2="225.8160525367266" y1="0.5" y2="30"/><line opacity="0.2" x1="277.70788379211064" x2="277.70788379211064" y1="0.5" y2="30"/><line opacity="0.2" x1="264.80037994808885" x2="264.80037994808885" y1="0.5" y2="30"/><line opacity="0.2" x1="353.8284723276928" x2="353.8284723276928" y1="0.5" y2="30"/><line opacity="0.2" x1="162.69155639298975" x2="162.69155639298975" y1="0.5" y2="30"/><line opacity="0.2" x1="365.6496103788027" x2="365.6496103788027" y1="0.5" y2="30"/><line opacity="0.2" x1="350.7701115406988" x2="350.7701115406988" y1="0.5" y2="30"/><line opacity="0.2" x1="189.38473574288133" x2="189.38473574288133" y1="0.5" y2="30"/><line opacity="0.2" x1="353.84904696698493" x2="353.84904696698493" y1="0.5" y2="30"/><line opacity="0.2" x1="279.76238628690464" x2="279.76238628690464" y1="0.5" y2="30"/><line opacity="0.2" x1="481.48673975328495" x2="481.48673975328495" y1="0.5" y2="30"/><line opacity="0.2" x1="423.07305651486473" x2="423.07305651486473" y1="0.5" y2="30"/><line opacity="0.2" x1="430.66177294206227" x2="430.66177294206227" y1="0.5" y2="30"/><line opacity="0.2" x1="100.80804034278984" x2="100.80804034278984" y1="0.5" y2="30"/><line opacity="0.2" x1="341.9646483596323" x2="341.9646483596323" y1="0.5" y2="30"/><line opacity="0.2" x1="260.1598878779984" x2="260.1598878779984" y1="0.5" y2="30"/><line opacity="0.2" x1="281.6579860380138" x2="281.6579860380138" y1="0.5" y2="30"/><line opacity="0.2" x1="225.5486204083636" x2="225.5486204083636" y1="0.5" y2="30"/><line opacity="0.2" x1="381.25170196668114" x2="381.25170196668114" y1="0.5" y2="30"/><line opacity="0.2" x1="313.2042318195513" x2="313.2042318195513" y1="0.5" y2="30"/><line opacity="0.2" x1="405.2055473459413" x2="405.2055473459413" y1="0.5" y2="30"/><line opacity="0.2" x1="330.1374683981931" x2="330.1374683981931" y1="0.5" y2="30"/><line opacity="0.2" x1="546.1892125496507" x2="546.1892125496507" y1="0.5" y2="30"/><line opacity="0.2" x1="140.52406090245987" x2="140.52406090245987" y1="0.5" y2="30"/><line opacity="0.2" x1="407.8864689447171" x2="407.8864689447171" y1="0.5" y2="30"/><line opacity="0.2" x1="356.8598926371649" x2="356.8598926371649" y1="0.5" y2="30"/><line opacity="0.2" x1="155.4526182852208" x2="155.4526182852208" y1="0.5" y2="30"/><line opacity="0.2" x1="363.2218618947704" x2="363.2218618947704" y1="0.5" y2="30"/><line opacity="0.2" x1="442.3534566607882" x2="442.3534566607882" y1="0.5" y2="30"/><line opacity="0.2" x1="169.91245263382731" x2="169.91245263382731" y1="0.5" y2="30"/><line opacity="0.2" x1="365.92896764012636" x2="365.92896764012636" y1="0.5" y2="30"/><line opacity="0.2" x1="340.04545488045363" x2="340.04545488045363" y1="0.5" y2="30"/><line opacity="0.2" x1="337.4031701991957" x2="337.4031701991957" y1="0.5" y2="30"/><line opacity="0.2" x1="151.99882190346534" x2="151.99882190346534" y1="0.5" y2="30"/><line opacity="0.2" x1="225.21718310795853" x2="225.21718310795853" y1="0.5" y2="30"/><line opacity="0.2" x1="444.17218791013585" x2="444.17218791013585" y1="0.5" y2="30"/><line opacity="0.2" x1="234.92941480420058" x2="234.92941480420058" y1="0.5" y2="30"/><line opacity="0.2" x1="449.0500905728569" x2="449.0500905728569" y1="0.5" y2="30"/><line opacity="0.2" x1="388.8381273891739" x2="388.8381273891739" y1="0.5" y2="30"/><line opacity="0.2" x1="443.40013619431625" x2="443.40013619431625" y1="0.5" y2="30"/><line opacity="0.2" x1="351.95604576120957" x2="351.95604576120957" y1="0.5" y2="30"/><line opacity="0.2" x1="307.27514182886426" x2="307.27514182886426" y1="0.5" y2="30"/><line opacity="0.2" x1="346.4066633534984" x2="346.4066633534984" y1="0.5" y2="30"/><line opacity="0.2" x1="418.96958760992425" x2="418.96958760992425" y1="0.5" y2="30"/><line opacity="0.2" x1="171.56821115367845" x2="171.56821115367845" y1="0.5" y2="30"/><line opacity="0.2" x1="265.2947510754375" x2="265.2947510754375" y1="0.5" y2="30"/><line opacity="0.2" x1="483.7905955230193" x2="483.7905955230193" y1="0.5" y2="30"/><line opacity="0.2" x1="455.66289296866915" x2="455.66289296866915" y1="0.5" y2="30"/><line opacity="0.2" x1="296.85666798517906" x2="296.85666798517906" y1="0.5" y2="30"/><line opacity="0.2" x1="332.89086425217874" x2="332.89086425217874" y1="0.5" y2="30"/><line opacity="0.2" x1="332.7937128190312" x2="332.7937128190312" y1="0.5" y2="30"/><line opacity="0.2" x1="218.44014029358482" x2="218.44014029358482" y1="0.5" y2="30"/><line opacity="0.2" x1="439.13385639806796" x2="439.13385639806796" y1="0.5" y2="30"/><line opacity="0.2" x1="423.2828981318943" x2="423.2828981318943" y1="0.5" y2="30"/><line opacity="0.2" x1="204.0300563146559" x2="204.0300563146559" y1="0.5" y2="30"/><line opacity="0.2" x1="308.9210480992418" x2="308.9210480992418" y1="0.5" y2="30"/><line opacity="0.2" x1="344.0770308404538" x2="344.0770308404538" y1="0.5" y2="30"/><line opacity="0.2" x1="287.39918521611344" x2="287.39918521611344" y1="0.5" y2="30"/><line opacity="0.2" x1="381.3130043341007" x2="381.3130043341007" y1="0.5" y2="30"/><line opacity="0.2" x1="402.6538271828138" x2="402.6538271828138" y1="0.5" y2="30"/><line opacity="0.2" x1="263.03921070981386" x2="263.03921070981386" y1="0.5" y2="30"/><line opacity="0.2" x1="272.01013396402794" x2="272.01013396402794" y1="0.5" y2="30"/><line opacity="0.2" x1="197.2743757428035" x2="197.2743757428035" y1="0.5" y2="30"/><line opacity="0.2" x1="320.40826590527274" x2="320.40826590527274" y1="0.5" y2="30"/><line opacity="0.2" x1="206.29229896459233" x2="206.29229896459233" y1="0.5" y2="30"/><line opacity="0.2" x1="323.38446344107894" x2="323.38446344107894" y1="0.5" y2="30"/><line opacity="0.2" x1="333.6057177945055" x2="333.6057177945055" y1="0.5" y2="30"/><line opacity="0.2" x1="217.66333342810128" x2="217.66333342810128" y1="0.5" y2="30"/><line opacity="0.2" x1="350.5284758237725" x2="350.5284758237725" y1="0.5" y2="30"/><line opacity="0.2" x1="376.0768384281434" x2="376.0768384281434" y1="0.5" y2="30"/><line opacity="0.2" x1="138.73434384413298" x2="138.73434384413298" y1="0.5" y2="30"/><line opacity="0.2" x1="441.30882478244723" x2="441.30882478244723" y1="0.5" y2="30"/><line opacity="0.2" x1="441.95297337365633" x2="441.95297337365633" y1="0.5" y2="30"/><line opacity="0.2" x1="292.78831556213316" x2="292.78831556213316" y1="0.5" y2="30"/><line opacity="0.2" x1="393.42743221652046" x2="393.42743221652046" y1="0.5" y2="30"/><line opacity="0.2" x1="189.03977275508484" x2="189.03977275508484" y1="0.5" y2="30"/></g></svg>