<svg xmlns="http://www.w3.org/2000/svg" xmlns:xlink="http://www.w3.org/1999/xlink" class="plot-65f8fd35b2ff6" fill="currentColor" font-family="system-ui, sans-serif" font-size="10" text-anchor="middle" width="640" height="400" viewBox="0 0 640 400" style="color: black;"><style>
        .plot-65f8fd35b2ff6 {
          display: block;
          background: white;
          height: auto;
          height: intrinsic;
          max-width: 100%;
        }
        .plot-65f8fd35b2ff6 text,
        .plot-65f8fd35b2ff6 tspan {
          white-space: pre;
        }
      </style><g aria-label="y-axis tick" fill="none" stroke="currentColor" transform="translate(0,0.5)"><path transform="translate(40,374.4937101499426)" d="M0,0L-6,0"/><path transform="translate(40,346.65111090828543)" d="M0,0L-6,0"/><path transform="translate(40,318.80851166662825)" d="M0,0L-6,0"/><path transform="translate(40,290.9659124249711)" d="M0,0L-6,0"/><path transform="translate(40,263.123313183314)" d="M0,0L-6,0"/><path transform="translate(40,235.2807139416568)" d="M0,0L-6,0"/><path transform="translate(40,207.43811469999966)" d="M0,0L-6,0"/><path transform="translate(40,179.5955154583425)" d="M0,0L-6,0"/><path transform="translate(40,151.75291621668535)" d="M0,0L-6,0"/><path transform="translate(40,123.91031697502822)" d="M0,0L-6,0"/><path transform="translate(40,96.06771773337107)" d="M0,0L-6,0"/><path transform="translate(40,68.2251184917139)" d="M0,0L-6,0"/><path transform="translate(40,40.382519250056745)" d="M0,0L-6,0"/></g><g aria-label="y-axis tick label" text-anchor="end" font-variant="tabular-nums" transform="translate(-8.5,0.5)"><text y="0.32em" transform="translate(40,374.4937101499426)">−9</text><text y="0.32em" transform="translate(40,346.65111090828543)">−8</text><text y="0.32em" transform="translate(40,318.80851166662825)">−7</text><text y="0.32em" transform="translate(40,290.9659124249711)">−6</text><text y="0.32em" transform="translate(40,263.123313183314)">−5</text><text y="0.32em" transform="translate(40,235.2807139416568)">−4</text><text y="0.32em" transform="translate(40,207.43811469999966)">−3</text><text y="0.32em" transform="translate(40,179.5955154583425)">−2</text><text y="0.32em" transform="translate(40,151.75291621668535)">−1</text><text y="0.32em" transform="translate(40,123.91031697502822)">0</text><text y="0.32em" transform="translate(40,96.06771773337107)">1</text><text y="0.32em" transform="translate(40,68.2251184917139)">2</text><text y="0.32em" transform="translate(40,40.382519250056745)">3</text></g><g aria-label="line" fill="none" stroke="currentColor" stroke-width="1.5" stroke-linejoin="round" stroke-linecap="round" transform="translate(0.5,0.5)"><path d="M40,131.541L46.051,159.599L52.101,118.075L58.152,104.294L64.202,122.993L70.253,57.376L76.303,54.107L82.354,116.438L88.404,128.597L94.455,156.49L100.505,197.589L106.556,192.923L112.606,190.819L118.657,186.333L124.707,145.282L130.758,144.955L136.808,170.038L142.859,185.741L148.909,137.984L154.96,177.655L161.01,124.817L167.061,90.223L173.111,119.751L179.162,112.335L185.212,164.276L191.263,197.957L197.313,160.755L203.364,152.759L209.414,112.137L215.465,90.752L221.515,115.55L227.566,106.134L233.616,69.759L239.667,95.508L245.717,91.066L251.768,114.801L257.818,133.419L263.869,91.25L269.919,66.44L275.97,56.29L282.02,68.269L288.071,57.432L294.121,79.299L300.172,97.935L306.222,83.243L312.273,68.073L318.323,20L324.374,63.084L330.424,88.218L336.475,29.835L342.525,54.724L348.576,53.354L354.626,81.217L360.677,95.005L366.727,84.197L372.778,82.408L378.828,100.607L384.879,135.906L390.929,122.041L396.98,176.337L403.03,184.22L409.081,185.62L415.131,151.239L421.182,183.42L427.232,215.049L433.283,234.947L439.333,269.015L445.384,311.19L451.434,272.836L457.485,236.978L463.535,272.139L469.586,305.003L475.636,289.012L481.687,284.842L487.737,275.38L493.788,257.12L499.838,252.512L505.889,250.109L511.939,237.435L517.99,299.755L524.04,290.465L530.091,328.485L536.141,296.807L542.192,294.576L548.242,270.174L554.293,273.569L560.343,288.377L566.394,325.11L572.444,303.241L578.495,295.517L584.545,290.653L590.596,380L596.646,335.185L602.697,307.372L608.747,284.8L614.798,209.702L620.848,190.384L626.899,178.047L632.949,194.758L639,177.857"/></g></svg>