<svg xmlns="http://www.w3.org/2000/svg" xmlns:xlink="http://www.w3.org/1999/xlink" class="plot-d6a7b5" fill="currentColor" font-family="system-ui, sans-serif" font-size="10" text-anchor="middle" width="640" height="400" viewBox="0 0 640 400" style="color: black; background-color: white;"><style>.plot-d6a7b5 {
  display: block;
  background: white;
  height: auto;
  height: intrinsic;
  max-width: 100%;
}
.plot-d6a7b5 text,
.plot-d6a7b5 tspan {
  white-space: pre;
}</style><g aria-label="y-axis tick" fill="none" stroke="currentColor"><path transform="translate(40,344.22133135844746)" d="M0,0L-6,0"/><path transform="translate(40,306.83946925111417)" d="M0,0L-6,0"/><path transform="translate(40,269.4576071437809)" d="M0,0L-6,0"/><path transform="translate(40,232.07574503644756)" d="M0,0L-6,0"/><path transform="translate(40,194.69388292911424)" d="M0,0L-6,0"/><path transform="translate(40,157.3120208217809)" d="M0,0L-6,0"/><path transform="translate(40,119.93015871444757)" d="M0,0L-6,0"/><path transform="translate(40,82.54829660711425)" d="M0,0L-6,0"/><path transform="translate(40,45.16643449978092)" d="M0,0L-6,0"/></g><g aria-label="y-axis tick label" text-anchor="end" font-variant="tabular-nums" transform="translate(-9,0)"><text y="0.32em" transform="translate(40,344.22133135844746)">−4</text><text y="0.32em" transform="translate(40,306.83946925111417)">−3</text><text y="0.32em" transform="translate(40,269.4576071437809)">−2</text><text y="0.32em" transform="translate(40,232.07574503644756)">−1</text><text y="0.32em" transform="translate(40,194.69388292911424)">0</text><text y="0.32em" transform="translate(40,157.3120208217809)">1</text><text y="0.32em" transform="translate(40,119.93015871444757)">2</text><text y="0.32em" transform="translate(40,82.54829660711425)">3</text><text y="0.32em" transform="translate(40,45.16643449978092)">4</text></g><g aria-label="rule" stroke="steelblue"><line x1="40" x2="639.5" y1="194.69388292911424" y2="194.69388292911424"/></g><g aria-label="line" fill="none" stroke="currentColor" stroke-width="1.5" stroke-linejoin="round" stroke-linecap="round"><path d="M40,284.35L46.056,316.138L52.111,301.223L58.167,312.077L64.222,380L70.278,342.812L76.333,324.813L82.389,288.739L88.444,305.126L94.5,314.142L100.556,330.891L106.611,304.417L112.667,349.593L118.722,340.994L124.778,328.314L130.833,310.844L136.889,275.003L142.944,292.141L149,255.459L155.056,244.105L161.111,196.536L167.167,249.142L173.222,240.558L179.278,231.222L185.333,257.137L191.389,301.568L197.444,266.347L203.5,235.833L209.556,252.81L215.611,240.927L221.667,226.424L227.722,208.257L233.778,168.783L239.833,179.453L245.889,234.936L251.944,280.063L258,256.935L264.056,228.061L270.111,232.664L276.167,197.255L282.222,223.675L288.278,257.591L294.333,257.981L300.389,272.395L306.444,227.291L312.5,222.025L318.556,170.736L324.611,193.28L330.667,179.729L336.722,180.677L342.778,173.697L348.833,188.254L354.889,228.083L360.944,221.577L367,229.747L373.056,200.068L379.111,193.285L385.167,160.113L391.222,128.687L397.278,149.696L403.333,124.039L409.389,143.043L415.444,112.866L421.5,110.78L427.556,161.359L433.611,131.105L439.667,166.143L445.722,144.057L451.778,173.087L457.833,243.822L463.889,253.343L469.944,241.233L476,176.135L482.056,183.756L488.111,171.888L494.167,112.415L500.222,83.217L506.278,97.623L512.333,116.901L518.389,150.549L524.444,169.349L530.5,145.221L536.556,143.736L542.611,166.04L548.667,193.231L554.722,185.226L560.778,216.854L566.833,189.714L572.889,169.225L578.944,115.482L585,92.474L591.056,97.39L597.111,142.702L603.167,107.393L609.222,58.084L615.278,84.58L621.333,32.027L627.389,42.698L633.444,40.318L639.5,20"/></g></svg>