<svg xmlns="http://www.w3.org/2000/svg" xmlns:xlink="http://www.w3.org/1999/xlink" class="plot-d6a7b5" fill="currentColor" font-family="system-ui, sans-serif" font-size="10" text-anchor="middle" width="640" height="400" viewBox="0 0 640 400" style="color: black;"><style>.plot-d6a7b5 {
  display: block;
  background: white;
  height: auto;
  height: intrinsic;
  max-width: 100%;
}
.plot-d6a7b5 text,
.plot-d6a7b5 tspan {
  white-space: pre;
}</style><g aria-label="y-axis tick" fill="none" stroke="currentColor"><path transform="translate(40,371.06276271125864)" d="M0,0L-6,0"/><path transform="translate(40,324.6295270941332)" d="M0,0L-6,0"/><path transform="translate(40,278.1962914770078)" d="M0,0L-6,0"/><path transform="translate(40,231.76305585988234)" d="M0,0L-6,0"/><path transform="translate(40,185.32982024275688)" d="M0,0L-6,0"/><path transform="translate(40,138.89658462563148)" d="M0,0L-6,0"/><path transform="translate(40,92.46334900850603)" d="M0,0L-6,0"/><path transform="translate(40,46.03011339138059)" d="M0,0L-6,0"/></g><g aria-label="y-axis tick label" text-anchor="end" font-variant="tabular-nums" transform="translate(-9,0)"><text y="0.32em" transform="translate(40,371.06276271125864)">−2</text><text y="0.32em" transform="translate(40,324.6295270941332)">0</text><text y="0.32em" transform="translate(40,278.1962914770078)">2</text><text y="0.32em" transform="translate(40,231.76305585988234)">4</text><text y="0.32em" transform="translate(40,185.32982024275688)">6</text><text y="0.32em" transform="translate(40,138.89658462563148)">8</text><text y="0.32em" transform="translate(40,92.46334900850603)">10</text><text y="0.32em" transform="translate(40,46.03011339138059)">12</text></g><g aria-label="rule" stroke="steelblue"><line x1="40" x2="639.5" y1="324.6295270941332" y2="324.6295270941332"/></g><g aria-label="line" fill="none" stroke="currentColor" stroke-width="1.5" stroke-linejoin="round" stroke-linecap="round"><path d="M40,366.217L46.056,362.153L52.111,369.381L58.167,358.629L64.222,354.887L70.278,343.599L76.333,356.671L82.389,351.186L88.444,343.578L94.5,380L100.556,342.236L106.611,330.261L112.667,302.733L118.722,293.755L124.778,282.29L130.833,284.046L136.889,289.118L142.944,290.456L149,289.285L155.056,288.155L161.111,298.101L167.167,275.594L173.222,300.797L179.278,321.612L185.333,326.549L191.389,327.904L197.444,322.597L203.5,322.67L209.556,325.611L215.611,298.497L221.667,319.676L227.722,315.971L233.778,319.569L239.833,341.589L245.889,366.033L251.944,369.289L258,320.762L264.056,255.311L270.111,271.264L276.167,243.603L282.222,246.391L288.278,224.232L294.333,206.775L300.389,203.417L306.444,218.894L312.5,201.451L318.556,211.426L324.611,143.611L330.667,117.781L336.722,78.354L342.778,37.61L348.833,47.056L354.889,36.964L360.944,56.081L367,96.042L373.056,48.35L379.111,69.937L385.167,20L391.222,37.14L397.278,43.669L403.333,83.707L409.389,105.502L415.444,113.337L421.5,110.949L427.556,138.094L433.611,166.871L439.667,156.573L445.722,162.883L451.778,153.684L457.833,137.19L463.889,133.56L469.944,134.36L476,167.435L482.056,177.008L488.111,204.67L494.167,229.55L500.222,241.839L506.278,273.933L512.333,251.587L518.389,233.703L524.444,250.327L530.5,220.544L536.556,222.442L542.611,231.854L548.667,202.283L554.722,215.694L560.778,229.872L566.833,244.614L572.889,281.003L578.944,302.777L585,316.194L591.056,281.787L597.111,266.616L603.167,240.433L609.222,250.634L615.278,243.901L621.333,213.706L627.389,190.298L633.444,238.622L639.5,264.059"/></g></svg>