<svg xmlns="http://www.w3.org/2000/svg" xmlns:xlink="http://www.w3.org/1999/xlink" class="plot-d9c4bc2591a9a" fill="currentColor" font-family="system-ui, sans-serif" font-size="10" text-anchor="middle" width="640" height="60" viewBox="0 0 640 60" style="color: black;"><style>
        .plot-d9c4bc2591a9a {
          display: block;
          background: white;
          height: auto;
          height: intrinsic;
          max-width: 100%;
        }
        .plot-d9c4bc2591a9a text,
        .plot-d9c4bc2591a9a tspan {
          white-space: pre;
        }
      </style><g aria-label="x-axis tick" fill="none" stroke="currentColor" transform="translate(0.5,0)"><path transform="translate(33.04785770455153,30)" d="M0,0L0,6"/><path transform="translate(122.18567645368975,30)" d="M0,0L0,6"/><path transform="translate(211.32349520282793,30)" d="M0,0L0,6"/><path transform="translate(300.4613139519662,30)" d="M0,0L0,6"/><path transform="translate(389.5991327011044,30)" d="M0,0L0,6"/><path transform="translate(478.7369514502426,30)" d="M0,0L0,6"/><path transform="translate(567.8747701993808,30)" d="M0,0L0,6"/></g><g aria-label="x-axis tick label" font-variant="tabular-nums" transform="translate(0.5,9.5)"><text y="0.71em" transform="translate(33.04785770455153,30)">−3</text><text y="0.71em" transform="translate(122.18567645368975,30)">−2</text><text y="0.71em" transform="translate(211.32349520282793,30)">−1</text><text y="0.71em" transform="translate(300.4613139519662,30)">0</text><text y="0.71em" transform="translate(389.5991327011044,30)">1</text><text y="0.71em" transform="translate(478.7369514502426,30)">2</text><text y="0.71em" transform="translate(567.8747701993808,30)">3</text></g><g aria-label="tick" stroke="steelblue" transform="translate(0.5,0)"><line opacity="0.2" x1="261.200759939482" x2="261.200759939482" y1="0" y2="30"/><line opacity="0.2" x1="238.35339023740835" x2="238.35339023740835" y1="0" y2="30"/><line opacity="0.2" x1="310.55479745442454" x2="310.55479745442454" y1="0" y2="30"/><line opacity="0.2" x1="297.0363167579609" x2="297.0363167579609" y1="0" y2="30"/><line opacity="0.2" x1="141.5518693522479" x2="141.5518693522479" y1="0" y2="30"/><line opacity="0.2" x1="136.01911427469238" x2="136.01911427469238" y1="0" y2="30"/><line opacity="0.2" x1="208.22991102061198" x2="208.22991102061198" y1="0" y2="30"/><line opacity="0.2" x1="401.7743181691077" x2="401.7743181691077" y1="0" y2="30"/><line opacity="0.2" x1="218.08667505320724" x2="218.08667505320724" y1="0" y2="30"/><line opacity="0.2" x1="192.50680487802052" x2="192.50680487802052" y1="0" y2="30"/><line opacity="0.2" x1="380.5616676055593" x2="380.5616676055593" y1="0" y2="30"/><line opacity="0.2" x1="178.98149803810009" x2="178.98149803810009" y1="0" y2="30"/><line opacity="0.2" x1="407.5768067155553" x2="407.5768067155553" y1="0" y2="30"/><line opacity="0.2" x1="388.4636012660361" x2="388.4636012660361" y1="0" y2="30"/><line opacity="0.2" x1="251.3720714321008" x2="251.3720714321008" y1="0" y2="30"/><line opacity="0.2" x1="386.9832900205087" x2="386.9832900205087" y1="0" y2="30"/><line opacity="0.2" x1="271.7567398027904" x2="271.7567398027904" y1="0" y2="30"/><line opacity="0.2" x1="260.8640241968717" x2="260.8640241968717" y1="0" y2="30"/><line opacity="0.2" x1="317.6658428873287" x2="317.6658428873287" y1="0" y2="30"/><line opacity="0.2" x1="277.8036323099033" x2="277.8036323099033" y1="0" y2="30"/><line opacity="0.2" x1="337.14533445273713" x2="337.14533445273713" y1="0" y2="30"/><line opacity="0.2" x1="334.7765745972245" x2="334.7765745972245" y1="0" y2="30"/><line opacity="0.2" x1="374.8153609785013" x2="374.8153609785013" y1="0" y2="30"/><line opacity="0.2" x1="269.5094747281192" x2="269.5094747281192" y1="0" y2="30"/><line opacity="0.2" x1="228.20839209393478" x2="228.20839209393478" y1="0" y2="30"/><line opacity="0.2" x1="347.0062874833044" x2="347.0062874833044" y1="0" y2="30"/><line opacity="0.2" x1="206.13012865811618" x2="206.13012865811618" y1="0" y2="30"/><line opacity="0.2" x1="246.58785218192952" x2="246.58785218192952" y1="0" y2="30"/><line opacity="0.2" x1="289.76719241865203" x2="289.76719241865203" y1="0" y2="30"/><line opacity="0.2" x1="348.7805657432747" x2="348.7805657432747" y1="0" y2="30"/><line opacity="0.2" x1="438.09603574301747" x2="438.09603574301747" y1="0" y2="30"/><line opacity="0.2" x1="234.78174295784524" x2="234.78174295784524" y1="0" y2="30"/><line opacity="0.2" x1="236.90324648031404" x2="236.90324648031404" y1="0" y2="30"/><line opacity="0.2" x1="347.54350682068355" x2="347.54350682068355" y1="0" y2="30"/><line opacity="0.2" x1="214.70316074329628" x2="214.70316074329628" y1="0" y2="30"/><line opacity="0.2" x1="289.7304604756091" x2="289.7304604756091" y1="0" y2="30"/><line opacity="0.2" x1="275.64303035529525" x2="275.64303035529525" y1="0" y2="30"/><line opacity="0.2" x1="351.56594702371206" x2="351.56594702371206" y1="0" y2="30"/><line opacity="0.2" x1="169.87332973682703" x2="169.87332973682703" y1="0" y2="30"/><line opacity="0.2" x1="333.48753709627636" x2="333.48753709627636" y1="0" y2="30"/><line opacity="0.2" x1="205.14803007323033" x2="205.14803007323033" y1="0" y2="30"/><line opacity="0.2" x1="350.63469896985055" x2="350.63469896985055" y1="0" y2="30"/><line opacity="0.2" x1="421.68610135029644" x2="421.68610135029644" y1="0" y2="30"/><line opacity="0.2" x1="232.12304095269948" x2="232.12304095269948" y1="0" y2="30"/><line opacity="0.2" x1="275.9171867149361" x2="275.9171867149361" y1="0" y2="30"/><line opacity="0.2" x1="220.2360709910315" x2="220.2360709910315" y1="0" y2="30"/><line opacity="0.2" x1="320.1247817016724" x2="320.1247817016724" y1="0" y2="30"/><line opacity="0.2" x1="196.1616974045487" x2="196.1616974045487" y1="0" y2="30"/><line opacity="0.2" x1="317.1729223115278" x2="317.1729223115278" y1="0" y2="30"/><line opacity="0.2" x1="344.75702335916276" x2="344.75702335916276" y1="0" y2="30"/><line opacity="0.2" x1="231.5912749763543" x2="231.5912749763543" y1="0" y2="30"/><line opacity="0.2" x1="222.78234409564075" x2="222.78234409564075" y1="0" y2="30"/><line opacity="0.2" x1="403.02623962453623" x2="403.02623962453623" y1="0" y2="30"/><line opacity="0.2" x1="196.2559478439456" x2="196.2559478439456" y1="0" y2="30"/><line opacity="0.2" x1="313.6620696982679" x2="313.6620696982679" y1="0" y2="30"/><line opacity="0.2" x1="291.0404645273486" x2="291.0404645273486" y1="0" y2="30"/><line opacity="0.2" x1="339.53752796008433" x2="339.53752796008433" y1="0" y2="30"/><line opacity="0.2" x1="272.26742780810326" x2="272.26742780810326" y1="0" y2="30"/><line opacity="0.2" x1="343.2958524207182" x2="343.2958524207182" y1="0" y2="30"/><line opacity="0.2" x1="364.4546421645722" x2="364.4546421645722" y1="0" y2="30"/><line opacity="0.2" x1="143.89639311899492" x2="143.89639311899492" y1="0" y2="30"/><line opacity="0.2" x1="294.29865110487174" x2="294.29865110487174" y1="0" y2="30"/><line opacity="0.2" x1="169.50597073104666" x2="169.50597073104666" y1="0" y2="30"/><line opacity="0.2" x1="354.75506984958963" x2="354.75506984958963" y1="0" y2="30"/><line opacity="0.2" x1="186.6057421080701" x2="186.6057421080701" y1="0" y2="30"/><line opacity="0.2" x1="301.0053082285775" x2="301.0053082285775" y1="0" y2="30"/><line opacity="0.2" x1="372.5007631149552" x2="372.5007631149552" y1="0" y2="30"/><line opacity="0.2" x1="296.51696412453157" x2="296.51696412453157" y1="0" y2="30"/><line opacity="0.2" x1="304.9179201279999" x2="304.9179201279999" y1="0" y2="30"/><line opacity="0.2" x1="395.210322819381" x2="395.210322819381" y1="0" y2="30"/><line opacity="0.2" x1="264.5995758290563" x2="264.5995758290563" y1="0" y2="30"/><line opacity="0.2" x1="155.46332010572067" x2="155.46332010572067" y1="0" y2="30"/><line opacity="0.2" x1="416.43429787492965" x2="416.43429787492965" y1="0" y2="30"/><line opacity="0.2" x1="257.4128376581504" x2="257.4128376581504" y1="0" y2="30"/><line opacity="0.2" x1="240.84084070882125" x2="240.84084070882125" y1="0" y2="30"/><line opacity="0.2" x1="202.24285050233397" x2="202.24285050233397" y1="0" y2="30"/><line opacity="0.2" x1="405.08457334591327" x2="405.08457334591327" y1="0" y2="30"/><line opacity="0.2" x1="242.0166038690964" x2="242.0166038690964" y1="0" y2="30"/><line opacity="0.2" x1="211.60282087780192" x2="211.60282087780192" y1="0" y2="30"/><line opacity="0.2" x1="465.51447701835355" x2="465.51447701835355" y1="0" y2="30"/><line opacity="0.2" x1="289.5873009941947" x2="289.5873009941947" y1="0" y2="30"/><line opacity="0.2" x1="414.0544914535202" x2="414.0544914535202" y1="0" y2="30"/><line opacity="0.2" x1="334.50755774435913" x2="334.50755774435913" y1="0" y2="30"/><line opacity="0.2" x1="156.30084612595152" x2="156.30084612595152" y1="0" y2="30"/><line opacity="0.2" x1="243.25983770665897" x2="243.25983770665897" y1="0" y2="30"/><line opacity="0.2" x1="309.9968992056117" x2="309.9968992056117" y1="0" y2="30"/><line opacity="0.2" x1="343.86503428325847" x2="343.86503428325847" y1="0" y2="30"/><line opacity="0.2" x1="73.44629670498358" x2="73.44629670498358" y1="0" y2="30"/><line opacity="0.2" x1="130.42948730269893" x2="130.42948730269893" y1="0" y2="30"/><line opacity="0.2" x1="289.670086144149" x2="289.670086144149" y1="0" y2="30"/><line opacity="0.2" x1="331.0114177020458" x2="331.0114177020458" y1="0" y2="30"/><line opacity="0.2" x1="479.75308775447144" x2="479.75308775447144" y1="0" y2="30"/><line opacity="0.2" x1="363.3214493201862" x2="363.3214493201862" y1="0" y2="30"/><line opacity="0.2" x1="383.7247623856704" x2="383.7247623856704" y1="0" y2="30"/><line opacity="0.2" x1="256.79366359121775" x2="256.79366359121775" y1="0" y2="30"/><line opacity="0.2" x1="377.89159284638254" x2="377.89159284638254" y1="0" y2="30"/><line opacity="0.2" x1="242.78728583741693" x2="242.78728583741693" y1="0" y2="30"/><line opacity="0.2" x1="366.6927458925084" x2="366.6927458925084" y1="0" y2="30"/><line opacity="0.2" x1="376.3044434616274" x2="376.3044434616274" y1="0" y2="30"/><line opacity="0.2" x1="467.1309372153372" x2="467.1309372153372" y1="0" y2="30"/><line opacity="0.2" x1="141.26433938058335" x2="141.26433938058335" y1="0" y2="30"/><line opacity="0.2" x1="94.8766271327202" x2="94.8766271327202" y1="0" y2="30"/><line opacity="0.2" x1="225.7448392894482" x2="225.7448392894482" y1="0" y2="30"/><line opacity="0.2" x1="194.32118157574686" x2="194.32118157574686" y1="0" y2="30"/><line opacity="0.2" x1="202.72830469383686" x2="202.72830469383686" y1="0" y2="30"/><line opacity="0.2" x1="250.19934038188083" x2="250.19934038188083" y1="0" y2="30"/><line opacity="0.2" x1="285.9096120525363" x2="285.9096120525363" y1="0" y2="30"/><line opacity="0.2" x1="303.7170255012818" x2="303.7170255012818" y1="0" y2="30"/><line opacity="0.2" x1="421.9346615594329" x2="421.9346615594329" y1="0" y2="30"/><line opacity="0.2" x1="291.75888132518025" x2="291.75888132518025" y1="0" y2="30"/><line opacity="0.2" x1="253.40425194810192" x2="253.40425194810192" y1="0" y2="30"/><line opacity="0.2" x1="313.605110246798" x2="313.605110246798" y1="0" y2="30"/><line opacity="0.2" x1="313.48769919060567" x2="313.48769919060567" y1="0" y2="30"/><line opacity="0.2" x1="234.0616112743842" x2="234.0616112743842" y1="0" y2="30"/><line opacity="0.2" x1="338.19631665028186" x2="338.19631665028186" y1="0" y2="30"/><line opacity="0.2" x1="340.08834472502434" x2="340.08834472502434" y1="0" y2="30"/><line opacity="0.2" x1="435.9374335770308" x2="435.9374335770308" y1="0" y2="30"/><line opacity="0.2" x1="309.1384457168287" x2="309.1384457168287" y1="0" y2="30"/><line opacity="0.2" x1="229.3557062556259" x2="229.3557062556259" y1="0" y2="30"/><line opacity="0.2" x1="409.2006760096942" x2="409.2006760096942" y1="0" y2="30"/><line opacity="0.2" x1="283.9517596078041" x2="283.9517596078041" y1="0" y2="30"/><line opacity="0.2" x1="327.1760955468287" x2="327.1760955468287" y1="0" y2="30"/><line opacity="0.2" x1="354.8843593264658" x2="354.8843593264658" y1="0" y2="30"/><line opacity="0.2" x1="343.9081949324546" x2="343.9081949324546" y1="0" y2="30"/><line opacity="0.2" x1="320.0620458063856" x2="320.0620458063856" y1="0" y2="30"/><line opacity="0.2" x1="305.5455267208167" x2="305.5455267208167" y1="0" y2="30"/><line opacity="0.2" x1="300.2768634075764" x2="300.2768634075764" y1="0" y2="30"/><line opacity="0.2" x1="281.9617906301635" x2="281.9617906301635" y1="0" y2="30"/><line opacity="0.2" x1="379.131942439104" x2="379.131942439104" y1="0" y2="30"/><line opacity="0.2" x1="343.43238008114986" x2="343.43238008114986" y1="0" y2="30"/><line opacity="0.2" x1="251.2954469059107" x2="251.2954469059107" y1="0" y2="30"/><line opacity="0.2" x1="194.95407664951367" x2="194.95407664951367" y1="0" y2="30"/><line opacity="0.2" x1="217.9985434822799" x2="217.9985434822799" y1="0" y2="30"/><line opacity="0.2" x1="363.18231133099744" x2="363.18231133099744" y1="0" y2="30"/><line opacity="0.2" x1="419.2010269534174" x2="419.2010269534174" y1="0" y2="30"/><line opacity="0.2" x1="349.34429197569676" x2="349.34429197569676" y1="0" y2="30"/><line opacity="0.2" x1="480.2075099637435" x2="480.2075099637435" y1="0" y2="30"/><line opacity="0.2" x1="479.2126427613999" x2="479.2126427613999" y1="0" y2="30"/><line opacity="0.2" x1="303.7707275391028" x2="303.7707275391028" y1="0" y2="30"/><line opacity="0.2" x1="337.80939846900645" x2="337.80939846900645" y1="0" y2="30"/><line opacity="0.2" x1="274.50216426877256" x2="274.50216426877256" y1="0" y2="30"/><line opacity="0.2" x1="258.0019675347504" x2="258.0019675347504" y1="0" y2="30"/><line opacity="0.2" x1="475.6793765133101" x2="475.6793765133101" y1="0" y2="30"/><line opacity="0.2" x1="426.2506299390907" x2="426.2506299390907" y1="0" y2="30"/><line opacity="0.2" x1="217.4621764732922" x2="217.4621764732922" y1="0" y2="30"/><line opacity="0.2" x1="209.94273890974569" x2="209.94273890974569" y1="0" y2="30"/><line opacity="0.2" x1="268.0322152735624" x2="268.0322152735624" y1="0" y2="30"/><line opacity="0.2" x1="247.637647656843" x2="247.637647656843" y1="0" y2="30"/><line opacity="0.2" x1="207.69965252049306" x2="207.69965252049306" y1="0" y2="30"/><line opacity="0.2" x1="272.45753798774865" x2="272.45753798774865" y1="0" y2="30"/><line opacity="0.2" x1="171.63509356806753" x2="171.63509356806753" y1="0" y2="30"/><line opacity="0.2" x1="350.52136207635186" x2="350.52136207635186" y1="0" y2="30"/><line opacity="0.2" x1="297.9344750524224" x2="297.9344750524224" y1="0" y2="30"/><line opacity="0.2" x1="375.8418992586355" x2="375.8418992586355" y1="0" y2="30"/><line opacity="0.2" x1="310.3025359993468" x2="310.3025359993468" y1="0" y2="30"/><line opacity="0.2" x1="382.8849215883485" x2="382.8849215883485" y1="0" y2="30"/><line opacity="0.2" x1="353.87817074655277" x2="353.87817074655277" y1="0" y2="30"/><line opacity="0.2" x1="323.1211411433015" x2="323.1211411433015" y1="0" y2="30"/><line opacity="0.2" x1="278.38926371362595" x2="278.38926371362595" y1="0" y2="30"/><line opacity="0.2" x1="437.02507635475695" x2="437.02507635475695" y1="0" y2="30"/><line opacity="0.2" x1="395.83873595963877" x2="395.83873595963877" y1="0" y2="30"/><line opacity="0.2" x1="321.26109909016407" x2="321.26109909016407" y1="0" y2="30"/><line opacity="0.2" x1="251.01998364688444" x2="251.01998364688444" y1="0" y2="30"/><line opacity="0.2" x1="287.22692333829303" x2="287.22692333829303" y1="0" y2="30"/><line opacity="0.2" x1="373.3769707121717" x2="373.3769707121717" y1="0" y2="30"/><line opacity="0.2" x1="406.26134345871486" x2="406.26134345871486" y1="0" y2="30"/><line opacity="0.2" x1="372.16209837082874" x2="372.16209837082874" y1="0" y2="30"/><line opacity="0.2" x1="376.2409422281905" x2="376.2409422281905" y1="0" y2="30"/><line opacity="0.2" x1="443.89021091991344" x2="443.89021091991344" y1="0" y2="30"/><line opacity="0.2" x1="239.16547974702715" x2="239.16547974702715" y1="0" y2="30"/><line opacity="0.2" x1="366.34595990840717" x2="366.34595990840717" y1="0" y2="30"/><line opacity="0.2" x1="401.91225444160347" x2="401.91225444160347" y1="0" y2="30"/><line opacity="0.2" x1="341.3226520725994" x2="341.3226520725994" y1="0" y2="30"/><line opacity="0.2" x1="152.50671925205197" x2="152.50671925205197" y1="0" y2="30"/><line opacity="0.2" x1="329.4231244994398" x2="329.4231244994398" y1="0" y2="30"/><line opacity="0.2" x1="200.66052082334335" x2="200.66052082334335" y1="0" y2="30"/><line opacity="0.2" x1="484.045721350517" x2="484.045721350517" y1="0" y2="30"/><line opacity="0.2" x1="242.10586694173546" x2="242.10586694173546" y1="0" y2="30"/><line opacity="0.2" x1="272.53684292376175" x2="272.53684292376175" y1="0" y2="30"/><line opacity="0.2" x1="268.17221519691424" x2="268.17221519691424" y1="0" y2="30"/><line opacity="0.2" x1="355.4317058882223" x2="355.4317058882223" y1="0" y2="30"/><line opacity="0.2" x1="119.11806439185752" x2="119.11806439185752" y1="0" y2="30"/><line opacity="0.2" x1="401.56037366986425" x2="401.56037366986425" y1="0" y2="30"/><line opacity="0.2" x1="119.10231540745605" x2="119.10231540745605" y1="0" y2="30"/><line opacity="0.2" x1="243.24729578313972" x2="243.24729578313972" y1="0" y2="30"/><line opacity="0.2" x1="223.03893949230925" x2="223.03893949230925" y1="0" y2="30"/><line opacity="0.2" x1="223.8639812673618" x2="223.8639812673618" y1="0" y2="30"/><line opacity="0.2" x1="481.28807321170825" x2="481.28807321170825" y1="0" y2="30"/><line opacity="0.2" x1="257.4257510976344" x2="257.4257510976344" y1="0" y2="30"/><line opacity="0.2" x1="194.0192857131431" x2="194.0192857131431" y1="0" y2="30"/><line opacity="0.2" x1="226.89671924375926" x2="226.89671924375926" y1="0" y2="30"/><line opacity="0.2" x1="266.3907849002685" x2="266.3907849002685" y1="0" y2="30"/><line opacity="0.2" x1="513.9687557912514" x2="513.9687557912514" y1="0" y2="30"/><line opacity="0.2" x1="435.36204540198037" x2="435.36204540198037" y1="0" y2="30"/><line opacity="0.2" x1="358.2239520893209" x2="358.2239520893209" y1="0" y2="30"/><line opacity="0.2" x1="311.0991996331379" x2="311.0991996331379" y1="0" y2="30"/><line opacity="0.2" x1="171.0260018580577" x2="171.0260018580577" y1="0" y2="30"/><line opacity="0.2" x1="420.737965013333" x2="420.737965013333" y1="0" y2="30"/><line opacity="0.2" x1="345.05038901851975" x2="345.05038901851975" y1="0" y2="30"/><line opacity="0.2" x1="301.4868121713173" x2="301.4868121713173" y1="0" y2="30"/><line opacity="0.2" x1="359.42544239310354" x2="359.42544239310354" y1="0" y2="30"/><line opacity="0.2" x1="244.23620002813053" x2="244.23620002813053" y1="0" y2="30"/><line opacity="0.2" x1="206.7841085497961" x2="206.7841085497961" y1="0" y2="30"/><line opacity="0.2" x1="447.744447624366" x2="447.744447624366" y1="0" y2="30"/><line opacity="0.2" x1="323.81226045073623" x2="323.81226045073623" y1="0" y2="30"/><line opacity="0.2" x1="357.9298863470621" x2="357.9298863470621" y1="0" y2="30"/><line opacity="0.2" x1="437.73713974049673" x2="437.73713974049673" y1="0" y2="30"/><line opacity="0.2" x1="148.54244052387588" x2="148.54244052387588" y1="0" y2="30"/><line opacity="0.2" x1="413.5013095115616" x2="413.5013095115616" y1="0" y2="30"/><line opacity="0.2" x1="248.9747370620803" x2="248.9747370620803" y1="0" y2="30"/><line opacity="0.2" x1="395.8892484108963" x2="395.8892484108963" y1="0" y2="30"/><line opacity="0.2" x1="183.79081570400066" x2="183.79081570400066" y1="0" y2="30"/><line opacity="0.2" x1="269.2887877864593" x2="269.2887877864593" y1="0" y2="30"/><line opacity="0.2" x1="327.0615616455886" x2="327.0615616455886" y1="0" y2="30"/><line opacity="0.2" x1="346.413679606946" x2="346.413679606946" y1="0" y2="30"/><line opacity="0.2" x1="172.41894200289767" x2="172.41894200289767" y1="0" y2="30"/><line opacity="0.2" x1="231.17125506290103" x2="231.17125506290103" y1="0" y2="30"/><line opacity="0.2" x1="185.07334396192198" x2="185.07334396192198" y1="0" y2="30"/><line opacity="0.2" x1="400.68879671476947" x2="400.68879671476947" y1="0" y2="30"/><line opacity="0.2" x1="314.23419338026963" x2="314.23419338026963" y1="0" y2="30"/><line opacity="0.2" x1="349.4592597412032" x2="349.4592597412032" y1="0" y2="30"/><line opacity="0.2" x1="247.52401610033215" x2="247.52401610033215" y1="0" y2="30"/><line opacity="0.2" x1="217.74764470522885" x2="217.74764470522885" y1="0" y2="30"/><line opacity="0.2" x1="322.0094700922467" x2="322.0094700922467" y1="0" y2="30"/><line opacity="0.2" x1="303.5914534463894" x2="303.5914534463894" y1="0" y2="30"/><line opacity="0.2" x1="271.9421720386901" x2="271.9421720386901" y1="0" y2="30"/><line opacity="0.2" x1="399.1870194693303" x2="399.1870194693303" y1="0" y2="30"/><line opacity="0.2" x1="200.87055986005439" x2="200.87055986005439" y1="0" y2="30"/><line opacity="0.2" x1="246.47249599587758" x2="246.47249599587758" y1="0" y2="30"/><line opacity="0.2" x1="330.34478800085475" x2="330.34478800085475" y1="0" y2="30"/><line opacity="0.2" x1="245.0625175360717" x2="245.0625175360717" y1="0" y2="30"/><line opacity="0.2" x1="283.14820451882116" x2="283.14820451882116" y1="0" y2="30"/><line opacity="0.2" x1="460.50922432670075" x2="460.50922432670075" y1="0" y2="30"/><line opacity="0.2" x1="299.21540620823" x2="299.21540620823" y1="0" y2="30"/><line opacity="0.2" x1="455.0730157812174" x2="455.0730157812174" y1="0" y2="30"/><line opacity="0.2" x1="225.30904987233794" x2="225.30904987233794" y1="0" y2="30"/><line opacity="0.2" x1="371.2743069595245" x2="371.2743069595245" y1="0" y2="30"/><line opacity="0.2" x1="419.25104305773397" x2="419.25104305773397" y1="0" y2="30"/><line opacity="0.2" x1="290.4203545626789" x2="290.4203545626789" y1="0" y2="30"/><line opacity="0.2" x1="213.5250971592182" x2="213.5250971592182" y1="0" y2="30"/><line opacity="0.2" x1="242.77502349351298" x2="242.77502349351298" y1="0" y2="30"/><line opacity="0.2" x1="179.91089510354325" x2="179.91089510354325" y1="0" y2="30"/><line opacity="0.2" x1="362.4834645151824" x2="362.4834645151824" y1="0" y2="30"/><line opacity="0.2" x1="381.7717441146478" x2="381.7717441146478" y1="0" y2="30"/><line opacity="0.2" x1="309.48147943400704" x2="309.48147943400704" y1="0" y2="30"/><line opacity="0.2" x1="103.97043568528143" x2="103.97043568528143" y1="0" y2="30"/><line opacity="0.2" x1="347.8051348720527" x2="347.8051348720527" y1="0" y2="30"/><line opacity="0.2" x1="387.8752752411126" x2="387.8752752411126" y1="0" y2="30"/><line opacity="0.2" x1="148.01979515683087" x2="148.01979515683087" y1="0" y2="30"/><line opacity="0.2" x1="339.26985684400984" x2="339.26985684400984" y1="0" y2="30"/><line opacity="0.2" x1="368.83107025239445" x2="368.83107025239445" y1="0" y2="30"/><line opacity="0.2" x1="135.29071948484054" x2="135.29071948484054" y1="0" y2="30"/><line opacity="0.2" x1="314.44638491656383" x2="314.44638491656383" y1="0" y2="30"/><line opacity="0.2" x1="242.64859245281832" x2="242.64859245281832" y1="0" y2="30"/><line opacity="0.2" x1="224.98067180607896" x2="224.98067180607896" y1="0" y2="30"/><line opacity="0.2" x1="418.84371664400084" x2="418.84371664400084" y1="0" y2="30"/><line opacity="0.2" x1="344.76841405119404" x2="344.76841405119404" y1="0" y2="30"/><line opacity="0.2" x1="333.0037115826876" x2="333.0037115826876" y1="0" y2="30"/><line opacity="0.2" x1="256.4226664183892" x2="256.4226664183892" y1="0" y2="30"/><line opacity="0.2" x1="215.2496134636808" x2="215.2496134636808" y1="0" y2="30"/><line opacity="0.2" x1="138.99394730668874" x2="138.99394730668874" y1="0" y2="30"/><line opacity="0.2" x1="365.12809469035614" x2="365.12809469035614" y1="0" y2="30"/><line opacity="0.2" x1="314.479298047862" x2="314.479298047862" y1="0" y2="30"/><line opacity="0.2" x1="357.1827343159903" x2="357.1827343159903" y1="0" y2="30"/><line opacity="0.2" x1="433.7425478227819" x2="433.7425478227819" y1="0" y2="30"/><line opacity="0.2" x1="498.3702408176879" x2="498.3702408176879" y1="0" y2="30"/><line opacity="0.2" x1="192.3863870776858" x2="192.3863870776858" y1="0" y2="30"/><line opacity="0.2" x1="301.75646495102575" x2="301.75646495102575" y1="0" y2="30"/><line opacity="0.2" x1="181.9111591641366" x2="181.9111591641366" y1="0" y2="30"/><line opacity="0.2" x1="340.40451669135285" x2="340.40451669135285" y1="0" y2="30"/><line opacity="0.2" x1="360.3677344558139" x2="360.3677344558139" y1="0" y2="30"/><line opacity="0.2" x1="289.8756509126231" x2="289.8756509126231" y1="0" y2="30"/><line opacity="0.2" x1="314.0747651953872" x2="314.0747651953872" y1="0" y2="30"/><line opacity="0.2" x1="401.01348624602167" x2="401.01348624602167" y1="0" y2="30"/><line opacity="0.2" x1="312.5207539485685" x2="312.5207539485685" y1="0" y2="30"/><line opacity="0.2" x1="228.5466083927341" x2="228.5466083927341" y1="0" y2="30"/><line opacity="0.2" x1="258.240123559013" x2="258.240123559013" y1="0" y2="30"/><line opacity="0.2" x1="306.60103188185656" x2="306.60103188185656" y1="0" y2="30"/><line opacity="0.2" x1="89.73757401461452" x2="89.73757401461452" y1="0" y2="30"/><line opacity="0.2" x1="381.5095483667442" x2="381.5095483667442" y1="0" y2="30"/><line opacity="0.2" x1="280.07159762757146" x2="280.07159762757146" y1="0" y2="30"/><line opacity="0.2" x1="453.4897495919463" x2="453.4897495919463" y1="0" y2="30"/><line opacity="0.2" x1="297.43163538411017" x2="297.43163538411017" y1="0" y2="30"/><line opacity="0.2" x1="479.1660932218587" x2="479.1660932218587" y1="0" y2="30"/><line opacity="0.2" x1="449.1634758926528" x2="449.1634758926528" y1="0" y2="30"/><line opacity="0.2" x1="330.72717872834744" x2="330.72717872834744" y1="0" y2="30"/><line opacity="0.2" x1="201.01652265805185" x2="201.01652265805185" y1="0" y2="30"/><line opacity="0.2" x1="254.2496522190335" x2="254.2496522190335" y1="0" y2="30"/><line opacity="0.2" x1="206.0849453101892" x2="206.0849453101892" y1="0" y2="30"/><line opacity="0.2" x1="432.5442854087466" x2="432.5442854087466" y1="0" y2="30"/><line opacity="0.2" x1="209.92771518222605" x2="209.92771518222605" y1="0" y2="30"/><line opacity="0.2" x1="383.8374617108993" x2="383.8374617108993" y1="0" y2="30"/><line opacity="0.2" x1="314.87540074614776" x2="314.87540074614776" y1="0" y2="30"/><line opacity="0.2" x1="369.8856738972032" x2="369.8856738972032" y1="0" y2="30"/><line opacity="0.2" x1="188.64427515351508" x2="188.64427515351508" y1="0" y2="30"/><line opacity="0.2" x1="279.37400689851256" x2="279.37400689851256" y1="0" y2="30"/><line opacity="0.2" x1="403.53405522873146" x2="403.53405522873146" y1="0" y2="30"/><line opacity="0.2" x1="490.3296279329454" x2="490.3296279329454" y1="0" y2="30"/><line opacity="0.2" x1="312.55456882393787" x2="312.55456882393787" y1="0" y2="30"/><line opacity="0.2" x1="394.35026090670874" x2="394.35026090670874" y1="0" y2="30"/><line opacity="0.2" x1="296.8549648111973" x2="296.8549648111973" y1="0" y2="30"/><line opacity="0.2" x1="360.40056851996593" x2="360.40056851996593" y1="0" y2="30"/><line opacity="0.2" x1="333.96262888438616" x2="333.96262888438616" y1="0" y2="30"/><line opacity="0.2" x1="277.0826371080027" x2="277.0826371080027" y1="0" y2="30"/><line opacity="0.2" x1="384.88062419623924" x2="384.88062419623924" y1="0" y2="30"/><line opacity="0.2" x1="275.2759242927682" x2="275.2759242927682" y1="0" y2="30"/><line opacity="0.2" x1="290.8869647022999" x2="290.8869647022999" y1="0" y2="30"/><line opacity="0.2" x1="429.54111511177524" x2="429.54111511177524" y1="0" y2="30"/><line opacity="0.2" x1="233.74059325928806" x2="233.74059325928806" y1="0" y2="30"/><line opacity="0.2" x1="171.5036439944861" x2="171.5036439944861" y1="0" y2="30"/><line opacity="0.2" x1="422.4144187791686" x2="422.4144187791686" y1="0" y2="30"/><line opacity="0.2" x1="364.68357189219" x2="364.68357189219" y1="0" y2="30"/><line opacity="0.2" x1="318.9357768988584" x2="318.9357768988584" y1="0" y2="30"/><line opacity="0.2" x1="246.39524045107498" x2="246.39524045107498" y1="0" y2="30"/><line opacity="0.2" x1="144.1643835150842" x2="144.1643835150842" y1="0" y2="30"/><line opacity="0.2" x1="157.21147746324573" x2="157.21147746324573" y1="0" y2="30"/><line opacity="0.2" x1="516.8949139177075" x2="516.8949139177075" y1="0" y2="30"/><line opacity="0.2" x1="223.26909484674343" x2="223.26909484674343" y1="0" y2="30"/><line opacity="0.2" x1="234.9323033069673" x2="234.9323033069673" y1="0" y2="30"/><line opacity="0.2" x1="303.82008355052125" x2="303.82008355052125" y1="0" y2="30"/><line opacity="0.2" x1="126.10217202763775" x2="126.10217202763775" y1="0" y2="30"/><line opacity="0.2" x1="403.5639017727716" x2="403.5639017727716" y1="0" y2="30"/><line opacity="0.2" x1="346.5858915997906" x2="346.5858915997906" y1="0" y2="30"/><line opacity="0.2" x1="63.68735628000337" x2="63.68735628000337" y1="0" y2="30"/><line opacity="0.2" x1="385.90333666550595" x2="385.90333666550595" y1="0" y2="30"/><line opacity="0.2" x1="354.9369160274825" x2="354.9369160274825" y1="0" y2="30"/><line opacity="0.2" x1="160.0795727115771" x2="160.0795727115771" y1="0" y2="30"/><line opacity="0.2" x1="260.4796100796821" x2="260.4796100796821" y1="0" y2="30"/><line opacity="0.2" x1="454.3584974950735" x2="454.3584974950735" y1="0" y2="30"/><line opacity="0.2" x1="462.8815156334628" x2="462.8815156334628" y1="0" y2="30"/><line opacity="0.2" x1="270.593640538809" x2="270.593640538809" y1="0" y2="30"/><line opacity="0.2" x1="156.96468807054438" x2="156.96468807054438" y1="0" y2="30"/><line opacity="0.2" x1="219.69016173922378" x2="219.69016173922378" y1="0" y2="30"/><line opacity="0.2" x1="261.6517188849632" x2="261.6517188849632" y1="0" y2="30"/><line opacity="0.2" x1="306.9661635545691" x2="306.9661635545691" y1="0" y2="30"/><line opacity="0.2" x1="171.0890983525539" x2="171.0890983525539" y1="0" y2="30"/><line opacity="0.2" x1="166.87898297024034" x2="166.87898297024034" y1="0" y2="30"/><line opacity="0.2" x1="231.05631260696023" x2="231.05631260696023" y1="0" y2="30"/><line opacity="0.2" x1="277.0333446790626" x2="277.0333446790626" y1="0" y2="30"/><line opacity="0.2" x1="289.9252402541836" x2="289.9252402541836" y1="0" y2="30"/><line opacity="0.2" x1="382.00220509321457" x2="382.00220509321457" y1="0" y2="30"/><line opacity="0.2" x1="263.50966785477027" x2="263.50966785477027" y1="0" y2="30"/><line opacity="0.2" x1="292.36283878798065" x2="292.36283878798065" y1="0" y2="30"/><line opacity="0.2" x1="535.0835069383686" x2="535.0835069383686" y1="0" y2="30"/><line opacity="0.2" x1="306.2486305320714" x2="306.2486305320714" y1="0" y2="30"/><line opacity="0.2" x1="361.4823214719921" x2="361.4823214719921" y1="0" y2="30"/><line opacity="0.2" x1="210.05879682667387" x2="210.05879682667387" y1="0" y2="30"/><line opacity="0.2" x1="318.11114391890027" x2="318.11114391890027" y1="0" y2="30"/><line opacity="0.2" x1="225.93954087241653" x2="225.93954087241653" y1="0" y2="30"/><line opacity="0.2" x1="296.5702893305214" x2="296.5702893305214" y1="0" y2="30"/><line opacity="0.2" x1="494.771149143415" x2="494.771149143415" y1="0" y2="30"/><line opacity="0.2" x1="495.6761502806234" x2="495.6761502806234" y1="0" y2="30"/><line opacity="0.2" x1="310.07898718434814" x2="310.07898718434814" y1="0" y2="30"/><line opacity="0.2" x1="309.0607360919173" x2="309.0607360919173" y1="0" y2="30"/><line opacity="0.2" x1="325.0405967889019" x2="325.0405967889019" y1="0" y2="30"/><line opacity="0.2" x1="381.64855655196277" x2="381.64855655196277" y1="0" y2="30"/><line opacity="0.2" x1="356.27414229490404" x2="356.27414229490404" y1="0" y2="30"/><line opacity="0.2" x1="329.4588664635786" x2="329.4588664635786" y1="0" y2="30"/><line opacity="0.2" x1="295.30824222397086" x2="295.30824222397086" y1="0" y2="30"/><line opacity="0.2" x1="313.81682971145915" x2="313.81682971145915" y1="0" y2="30"/><line opacity="0.2" x1="298.44632398952416" x2="298.44632398952416" y1="0" y2="30"/><line opacity="0.2" x1="398.3737888023311" x2="398.3737888023311" y1="0" y2="30"/><line opacity="0.2" x1="368.4159030001343" x2="368.4159030001343" y1="0" y2="30"/><line opacity="0.2" x1="301.0115938523118" x2="301.0115938523118" y1="0" y2="30"/><line opacity="0.2" x1="272.79579958054677" x2="272.79579958054677" y1="0" y2="30"/><line opacity="0.2" x1="331.117343080006" x2="331.117343080006" y1="0" y2="30"/><line opacity="0.2" x1="131.6211296185584" x2="131.6211296185584" y1="0" y2="30"/><line opacity="0.2" x1="298.58450309869175" x2="298.58450309869175" y1="0" y2="30"/><line opacity="0.2" x1="412.2912044458694" x2="412.2912044458694" y1="0" y2="30"/><line opacity="0.2" x1="369.4566746364526" x2="369.4566746364526" y1="0" y2="30"/><line opacity="0.2" x1="301.98543634906576" x2="301.98543634906576" y1="0" y2="30"/><line opacity="0.2" x1="382.7281370218363" x2="382.7281370218363" y1="0" y2="30"/><line opacity="0.2" x1="476.5904476553229" x2="476.5904476553229" y1="0" y2="30"/><line opacity="0.2" x1="342.2304089922376" x2="342.2304089922376" y1="0" y2="30"/><line opacity="0.2" x1="326.6374448414847" x2="326.6374448414847" y1="0" y2="30"/><line opacity="0.2" x1="353.5706770320486" x2="353.5706770320486" y1="0" y2="30"/><line opacity="0.2" x1="394.88569280168645" x2="394.88569280168645" y1="0" y2="30"/><line opacity="0.2" x1="188.56730824758318" x2="188.56730824758318" y1="0" y2="30"/><line opacity="0.2" x1="273.0028667471973" x2="273.0028667471973" y1="0" y2="30"/><line opacity="0.2" x1="312.3808762323457" x2="312.3808762323457" y1="0" y2="30"/><line opacity="0.2" x1="191.75333660851396" x2="191.75333660851396" y1="0" y2="30"/><line opacity="0.2" x1="290.33952950992" x2="290.33952950992" y1="0" y2="30"/><line opacity="0.2" x1="349.76234418602587" x2="349.76234418602587" y1="0" y2="30"/><line opacity="0.2" x1="369.3587113423296" x2="369.3587113423296" y1="0" y2="30"/><line opacity="0.2" x1="301.25641434244886" x2="301.25641434244886" y1="0" y2="30"/><line opacity="0.2" x1="374.0144467290216" x2="374.0144467290216" y1="0" y2="30"/><line opacity="0.2" x1="468.3002316990699" x2="468.3002316990699" y1="0" y2="30"/><line opacity="0.2" x1="255.142697870331" x2="255.142697870331" y1="0" y2="30"/><line opacity="0.2" x1="177.47990316661122" x2="177.47990316661122" y1="0" y2="30"/><line opacity="0.2" x1="341.0183565553589" x2="341.0183565553589" y1="0" y2="30"/><line opacity="0.2" x1="249.87173501830722" x2="249.87173501830722" y1="0" y2="30"/><line opacity="0.2" x1="251.30645532144428" x2="251.30645532144428" y1="0" y2="30"/><line opacity="0.2" x1="304.9056468031022" x2="304.9056468031022" y1="0" y2="30"/><line opacity="0.2" x1="382.98952954712" x2="382.98952954712" y1="0" y2="30"/><line opacity="0.2" x1="333.2973824765512" x2="333.2973824765512" y1="0" y2="30"/><line opacity="0.2" x1="271.2721912415545" x2="271.2721912415545" y1="0" y2="30"/><line opacity="0.2" x1="348.173020296678" x2="348.173020296678" y1="0" y2="30"/><line opacity="0.2" x1="248.03174948488123" x2="248.03174948488123" y1="0" y2="30"/><line opacity="0.2" x1="452.3465842695712" x2="452.3465842695712" y1="0" y2="30"/><line opacity="0.2" x1="412.4184558929703" x2="412.4184558929703" y1="0" y2="30"/><line opacity="0.2" x1="205.1757784120816" x2="205.1757784120816" y1="0" y2="30"/><line opacity="0.2" x1="238.31257699131993" x2="238.31257699131993" y1="0" y2="30"/><line opacity="0.2" x1="374.0861212921776" x2="374.0861212921776" y1="0" y2="30"/><line opacity="0.2" x1="358.5590606060306" x2="358.5590606060306" y1="0" y2="30"/><line opacity="0.2" x1="393.3505240835361" x2="393.3505240835361" y1="0" y2="30"/><line opacity="0.2" x1="282.7647219586277" x2="282.7647219586277" y1="0" y2="30"/><line opacity="0.2" x1="374.3512770473841" x2="374.3512770473841" y1="0" y2="30"/><line opacity="0.2" x1="85.12171368529616" x2="85.12171368529616" y1="0" y2="30"/><line opacity="0.2" x1="366.21826157724854" x2="366.21826157724854" y1="0" y2="30"/><line opacity="0.2" x1="221.01980310254322" x2="221.01980310254322" y1="0" y2="30"/><line opacity="0.2" x1="198.4462485691192" x2="198.4462485691192" y1="0" y2="30"/><line opacity="0.2" x1="280.84148559879696" x2="280.84148559879696" y1="0" y2="30"/><line opacity="0.2" x1="320.57125871841555" x2="320.57125871841555" y1="0" y2="30"/><line opacity="0.2" x1="380.88299929594336" x2="380.88299929594336" y1="0" y2="30"/><line opacity="0.2" x1="244.23841912957303" x2="244.23841912957303" y1="0" y2="30"/><line opacity="0.2" x1="243.43949858672602" x2="243.43949858672602" y1="0" y2="30"/><line opacity="0.2" x1="313.22409798532834" x2="313.22409798532834" y1="0" y2="30"/><line opacity="0.2" x1="293.9007231422337" x2="293.9007231422337" y1="0" y2="30"/><line opacity="0.2" x1="316.8234532313535" x2="316.8234532313535" y1="0" y2="30"/><line opacity="0.2" x1="417.30525068888295" x2="417.30525068888295" y1="0" y2="30"/><line opacity="0.2" x1="327.96427499733966" x2="327.96427499733966" y1="0" y2="30"/><line opacity="0.2" x1="452.83380175611126" x2="452.83380175611126" y1="0" y2="30"/><line opacity="0.2" x1="371.76594086914577" x2="371.76594086914577" y1="0" y2="30"/><line opacity="0.2" x1="360.03101029962687" x2="360.03101029962687" y1="0" y2="30"/><line opacity="0.2" x1="158.51223306925206" x2="158.51223306925206" y1="0" y2="30"/><line opacity="0.2" x1="352.2104300768476" x2="352.2104300768476" y1="0" y2="30"/><line opacity="0.2" x1="462.16576324000954" x2="462.16576324000954" y1="0" y2="30"/><line opacity="0.2" x1="249.5216324013355" x2="249.5216324013355" y1="0" y2="30"/><line opacity="0.2" x1="263.25156842108674" x2="263.25156842108674" y1="0" y2="30"/><line opacity="0.2" x1="218.4468020563361" x2="218.4468020563361" y1="0" y2="30"/><line opacity="0.2" x1="428.4135080344687" x2="428.4135080344687" y1="0" y2="30"/><line opacity="0.2" x1="198.04236090517907" x2="198.04236090517907" y1="0" y2="30"/><line opacity="0.2" x1="178.14944013982776" x2="178.14944013982776" y1="0" y2="30"/><line opacity="0.2" x1="240.90824648057955" x2="240.90824648057955" y1="0" y2="30"/><line opacity="0.2" x1="225.91494378912068" x2="225.91494378912068" y1="0" y2="30"/><line opacity="0.2" x1="323.2291272714056" x2="323.2291272714056" y1="0" y2="30"/><line opacity="0.2" x1="374.59013769202164" x2="374.59013769202164" y1="0" y2="30"/><line opacity="0.2" x1="285.3287317699514" x2="285.3287317699514" y1="0" y2="30"/><line opacity="0.2" x1="253.24454880722737" x2="253.24454880722737" y1="0" y2="30"/><line opacity="0.2" x1="381.1579713148621" x2="381.1579713148621" y1="0" y2="30"/><line opacity="0.2" x1="136.0429340618557" x2="136.0429340618557" y1="0" y2="30"/><line opacity="0.2" x1="416.7731817081746" x2="416.7731817081746" y1="0" y2="30"/><line opacity="0.2" x1="278.37085374062895" x2="278.37085374062895" y1="0" y2="30"/><line opacity="0.2" x1="520.7810722185645" x2="520.7810722185645" y1="0" y2="30"/><line opacity="0.2" x1="189.2705955582268" x2="189.2705955582268" y1="0" y2="30"/><line opacity="0.2" x1="282.4351510719058" x2="282.4351510719058" y1="0" y2="30"/><line opacity="0.2" x1="386.87514065445407" x2="386.87514065445407" y1="0" y2="30"/><line opacity="0.2" x1="397.38599018862897" x2="397.38599018862897" y1="0" y2="30"/><line opacity="0.2" x1="244.67757865539664" x2="244.67757865539664" y1="0" y2="30"/><line opacity="0.2" x1="312.14955325900104" x2="312.14955325900104" y1="0" y2="30"/><line opacity="0.2" x1="202.73779845865909" x2="202.73779845865909" y1="0" y2="30"/><line opacity="0.2" x1="341.0357944260396" x2="341.0357944260396" y1="0" y2="30"/><line opacity="0.2" x1="458.7446639547336" x2="458.7446639547336" y1="0" y2="30"/><line opacity="0.2" x1="437.99435018746647" x2="437.99435018746647" y1="0" y2="30"/><line opacity="0.2" x1="465.2733206873231" x2="465.2733206873231" y1="0" y2="30"/><line opacity="0.2" x1="322.6543864031948" x2="322.6543864031948" y1="0" y2="30"/><line opacity="0.2" x1="174.0521244524918" x2="174.0521244524918" y1="0" y2="30"/><line opacity="0.2" x1="339.5361905327438" x2="339.5361905327438" y1="0" y2="30"/><line opacity="0.2" x1="226.35831145649337" x2="226.35831145649337" y1="0" y2="30"/><line opacity="0.2" x1="328.91859619999934" x2="328.91859619999934" y1="0" y2="30"/><line opacity="0.2" x1="304.05465976269454" x2="304.05465976269454" y1="0" y2="30"/><line opacity="0.2" x1="476.16733840456465" x2="476.16733840456465" y1="0" y2="30"/><line opacity="0.2" x1="290.7374612531412" x2="290.7374612531412" y1="0" y2="30"/><line opacity="0.2" x1="314.47441776892833" x2="314.47441776892833" y1="0" y2="30"/><line opacity="0.2" x1="245.2519453103514" x2="245.2519453103514" y1="0" y2="30"/><line opacity="0.2" x1="135.52257744683806" x2="135.52257744683806" y1="0" y2="30"/><line opacity="0.2" x1="442.05284926224664" x2="442.05284926224664" y1="0" y2="30"/><line opacity="0.2" x1="377.34602010116305" x2="377.34602010116305" y1="0" y2="30"/><line opacity="0.2" x1="403.7423754723461" x2="403.7423754723461" y1="0" y2="30"/><line opacity="0.2" x1="339.3786417636486" x2="339.3786417636486" y1="0" y2="30"/><line opacity="0.2" x1="299.61830833706256" x2="299.61830833706256" y1="0" y2="30"/><line opacity="0.2" x1="486.3213533400097" x2="486.3213533400097" y1="0" y2="30"/><line opacity="0.2" x1="368.7784608561753" x2="368.7784608561753" y1="0" y2="30"/><line opacity="0.2" x1="350.73823127472684" x2="350.73823127472684" y1="0" y2="30"/><line opacity="0.2" x1="184.92889533782386" x2="184.92889533782386" y1="0" y2="30"/><line opacity="0.2" x1="291.93713313416157" x2="291.93713313416157" y1="0" y2="30"/><line opacity="0.2" x1="339.79958300704" x2="339.79958300704" y1="0" y2="30"/><line opacity="0.2" x1="352.50819193053786" x2="352.50819193053786" y1="0" y2="30"/><line opacity="0.2" x1="353.0699947211641" x2="353.0699947211641" y1="0" y2="30"/><line opacity="0.2" x1="355.0703198672242" x2="355.0703198672242" y1="0" y2="30"/><line opacity="0.2" x1="377.26799985065435" x2="377.26799985065435" y1="0" y2="30"/><line opacity="0.2" x1="264.4275724640431" x2="264.4275724640431" y1="0" y2="30"/><line opacity="0.2" x1="217.76507066579214" x2="217.76507066579214" y1="0" y2="30"/><line opacity="0.2" x1="248.81941636269266" x2="248.81941636269266" y1="0" y2="30"/><line opacity="0.2" x1="371.6597896433628" x2="371.6597896433628" y1="0" y2="30"/><line opacity="0.2" x1="275.599177760221" x2="275.599177760221" y1="0" y2="30"/><line opacity="0.2" x1="220.57681839887226" x2="220.57681839887226" y1="0" y2="30"/><line opacity="0.2" x1="460.057005048317" x2="460.057005048317" y1="0" y2="30"/><line opacity="0.2" x1="333.8424611644471" x2="333.8424611644471" y1="0" y2="30"/><line opacity="0.2" x1="131.18642230457166" x2="131.18642230457166" y1="0" y2="30"/><line opacity="0.2" x1="422.18964577716093" x2="422.18964577716093" y1="0" y2="30"/><line opacity="0.2" x1="369.5859750497993" x2="369.5859750497993" y1="0" y2="30"/><line opacity="0.2" x1="329.79772191938486" x2="329.79772191938486" y1="0" y2="30"/><line opacity="0.2" x1="352.7061668541168" x2="352.7061668541168" y1="0" y2="30"/><line opacity="0.2" x1="418.35174018935" x2="418.35174018935" y1="0" y2="30"/><line opacity="0.2" x1="162.50826560266458" x2="162.50826560266458" y1="0" y2="30"/><line opacity="0.2" x1="271.80955625896473" x2="271.80955625896473" y1="0" y2="30"/><line opacity="0.2" x1="259.5149062541612" x2="259.5149062541612" y1="0" y2="30"/><line opacity="0.2" x1="386.8374290252989" x2="386.8374290252989" y1="0" y2="30"/><line opacity="0.2" x1="321.95481797194907" x2="321.95481797194907" y1="0" y2="30"/><line opacity="0.2" x1="257.38810302997024" x2="257.38810302997024" y1="0" y2="30"/><line opacity="0.2" x1="449.9673320947452" x2="449.9673320947452" y1="0" y2="30"/><line opacity="0.2" x1="307.67679702620035" x2="307.67679702620035" y1="0" y2="30"/><line opacity="0.2" x1="282.2002666669336" x2="282.2002666669336" y1="0" y2="30"/><line opacity="0.2" x1="252.09309863261285" x2="252.09309863261285" y1="0" y2="30"/><line opacity="0.2" x1="284.0608890282757" x2="284.0608890282757" y1="0" y2="30"/><line opacity="0.2" x1="330.9741280205083" x2="330.9741280205083" y1="0" y2="30"/><line opacity="0.2" x1="290.5238724857796" x2="290.5238724857796" y1="0" y2="30"/><line opacity="0.2" x1="214.4101537202329" x2="214.4101537202329" y1="0" y2="30"/><line opacity="0.2" x1="330.1747312281694" x2="330.1747312281694" y1="0" y2="30"/><line opacity="0.2" x1="308.4564178592286" x2="308.4564178592286" y1="0" y2="30"/><line opacity="0.2" x1="252.99014571148413" x2="252.99014571148413" y1="0" y2="30"/><line opacity="0.2" x1="454.06709268895247" x2="454.06709268895247" y1="0" y2="30"/><line opacity="0.2" x1="376.06761664514386" x2="376.06761664514386" y1="0" y2="30"/><line opacity="0.2" x1="243.44863369752326" x2="243.44863369752326" y1="0" y2="30"/><line opacity="0.2" x1="377.27842515893394" x2="377.27842515893394" y1="0" y2="30"/><line opacity="0.2" x1="469.2273997661981" x2="469.2273997661981" y1="0" y2="30"/><line opacity="0.2" x1="209.9983933117548" x2="209.9983933117548" y1="0" y2="30"/><line opacity="0.2" x1="304.75906863576535" x2="304.75906863576535" y1="0" y2="30"/><line opacity="0.2" x1="291.1221802840241" x2="291.1221802840241" y1="0" y2="30"/><line opacity="0.2" x1="143.57346860636812" x2="143.57346860636812" y1="0" y2="30"/><line opacity="0.2" x1="209.9060584689257" x2="209.9060584689257" y1="0" y2="30"/><line opacity="0.2" x1="250.0663179985753" x2="250.0663179985753" y1="0" y2="30"/><line opacity="0.2" x1="302.4254215576664" x2="302.4254215576664" y1="0" y2="30"/><line opacity="0.2" x1="379.62285912476153" x2="379.62285912476153" y1="0" y2="30"/><line opacity="0.2" x1="407.32998705169643" x2="407.32998705169643" y1="0" y2="30"/><line opacity="0.2" x1="382.01936319055625" x2="382.01936319055625" y1="0" y2="30"/><line opacity="0.2" x1="236.43115072270714" x2="236.43115072270714" y1="0" y2="30"/><line opacity="0.2" x1="245.464175062964" x2="245.464175062964" y1="0" y2="30"/><line opacity="0.2" x1="278.80766525396444" x2="278.80766525396444" y1="0" y2="30"/><line opacity="0.2" x1="293.7172656526568" x2="293.7172656526568" y1="0" y2="30"/><line opacity="0.2" x1="280.3616433474783" x2="280.3616433474783" y1="0" y2="30"/><line opacity="0.2" x1="373.99561961526604" x2="373.99561961526604" y1="0" y2="30"/><line opacity="0.2" x1="345.98625789229794" x2="345.98625789229794" y1="0" y2="30"/><line opacity="0.2" x1="242.7115315498397" x2="242.7115315498397" y1="0" y2="30"/><line opacity="0.2" x1="463.23558908965055" x2="463.23558908965055" y1="0" y2="30"/><line opacity="0.2" x1="318.55388725657997" x2="318.55388725657997" y1="0" y2="30"/><line opacity="0.2" x1="345.9334076653761" x2="345.9334076653761" y1="0" y2="30"/><line opacity="0.2" x1="374.7936578387802" x2="374.7936578387802" y1="0" y2="30"/><line opacity="0.2" x1="426.00363063460264" x2="426.00363063460264" y1="0" y2="30"/><line opacity="0.2" x1="353.436919930966" x2="353.436919930966" y1="0" y2="30"/><line opacity="0.2" x1="434.2155175309856" x2="434.2155175309856" y1="0" y2="30"/><line opacity="0.2" x1="215.09345177464866" x2="215.09345177464866" y1="0" y2="30"/><line opacity="0.2" x1="378.69924418288736" x2="378.69924418288736" y1="0" y2="30"/><line opacity="0.2" x1="358.2973610934694" x2="358.2973610934694" y1="0" y2="30"/><line opacity="0.2" x1="224.6120253170773" x2="224.6120253170773" y1="0" y2="30"/><line opacity="0.2" x1="312.113621856452" x2="312.113621856452" y1="0" y2="30"/><line opacity="0.2" x1="445.99174785756014" x2="445.99174785756014" y1="0" y2="30"/><line opacity="0.2" x1="143.61736435242534" x2="143.61736435242534" y1="0" y2="30"/><line opacity="0.2" x1="296.0195244389588" x2="296.0195244389588" y1="0" y2="30"/><line opacity="0.2" x1="239.753185428052" x2="239.753185428052" y1="0" y2="30"/><line opacity="0.2" x1="216.77495525002954" x2="216.77495525002954" y1="0" y2="30"/><line opacity="0.2" x1="335.39502327084307" x2="335.39502327084307" y1="0" y2="30"/><line opacity="0.2" x1="322.70668082388704" x2="322.70668082388704" y1="0" y2="30"/><line opacity="0.2" x1="284.76247228826537" x2="284.76247228826537" y1="0" y2="30"/><line opacity="0.2" x1="190.70836614401546" x2="190.70836614401546" y1="0" y2="30"/><line opacity="0.2" x1="182.59623120918943" x2="182.59623120918943" y1="0" y2="30"/><line opacity="0.2" x1="275.1001084307121" x2="275.1001084307121" y1="0" y2="30"/><line opacity="0.2" x1="158.31038211808627" x2="158.31038211808627" y1="0" y2="30"/><line opacity="0.2" x1="432.4256921494166" x2="432.4256921494166" y1="0" y2="30"/><line opacity="0.2" x1="463.53011040038706" x2="463.53011040038706" y1="0" y2="30"/><line opacity="0.2" x1="319.62780792424485" x2="319.62780792424485" y1="0" y2="30"/><line opacity="0.2" x1="207.7335446819327" x2="207.7335446819327" y1="0" y2="30"/><line opacity="0.2" x1="323.2639129801877" x2="323.2639129801877" y1="0" y2="30"/><line opacity="0.2" x1="223.23210915176327" x2="223.23210915176327" y1="0" y2="30"/><line opacity="0.2" x1="252.22309046359894" x2="252.22309046359894" y1="0" y2="30"/><line opacity="0.2" x1="203.64419175662474" x2="203.64419175662474" y1="0" y2="30"/><line opacity="0.2" x1="315.7312541762772" x2="315.7312541762772" y1="0" y2="30"/><line opacity="0.2" x1="258.168375313241" x2="258.168375313241" y1="0" y2="30"/><line opacity="0.2" x1="306.79001584492045" x2="306.79001584492045" y1="0" y2="30"/><line opacity="0.2" x1="372.5210218499225" x2="372.5210218499225" y1="0" y2="30"/><line opacity="0.2" x1="370.4500249559621" x2="370.4500249559621" y1="0" y2="30"/><line opacity="0.2" x1="259.3748871914896" x2="259.3748871914896" y1="0" y2="30"/><line opacity="0.2" x1="410.594043310297" x2="410.594043310297" y1="0" y2="30"/><line opacity="0.2" x1="421.0215929996718" x2="421.0215929996718" y1="0" y2="30"/><line opacity="0.2" x1="344.35143175613734" x2="344.35143175613734" y1="0" y2="30"/><line opacity="0.2" x1="345.4419083835281" x2="345.4419083835281" y1="0" y2="30"/><line opacity="0.2" x1="302.42211108590436" x2="302.42211108590436" y1="0" y2="30"/><line opacity="0.2" x1="338.3838956820387" x2="338.3838956820387" y1="0" y2="30"/><line opacity="0.2" x1="420.89764630866785" x2="420.89764630866785" y1="0" y2="30"/><line opacity="0.2" x1="241.78536393500406" x2="241.78536393500406" y1="0" y2="30"/><line opacity="0.2" x1="385.544634935606" x2="385.544634935606" y1="0" y2="30"/><line opacity="0.2" x1="260.6548662947013" x2="260.6548662947013" y1="0" y2="30"/><line opacity="0.2" x1="334.24811562964965" x2="334.24811562964965" y1="0" y2="30"/><line opacity="0.2" x1="296.65153230890803" x2="296.65153230890803" y1="0" y2="30"/><line opacity="0.2" x1="284.392846674519" x2="284.392846674519" y1="0" y2="30"/><line opacity="0.2" x1="372.9678882460916" x2="372.9678882460916" y1="0" y2="30"/><line opacity="0.2" x1="208.0836290907395" x2="208.0836290907395" y1="0" y2="30"/><line opacity="0.2" x1="294.295913071469" x2="294.295913071469" y1="0" y2="30"/><line opacity="0.2" x1="265.9468546423171" x2="265.9468546423171" y1="0" y2="30"/><line opacity="0.2" x1="400.688723782735" x2="400.688723782735" y1="0" y2="30"/><line opacity="0.2" x1="468.5409848445591" x2="468.5409848445591" y1="0" y2="30"/><line opacity="0.2" x1="331.4881201210315" x2="331.4881201210315" y1="0" y2="30"/><line opacity="0.2" x1="431.5763475994817" x2="431.5763475994817" y1="0" y2="30"/><line opacity="0.2" x1="207.64679636235095" x2="207.64679636235095" y1="0" y2="30"/><line opacity="0.2" x1="288.56402833561754" x2="288.56402833561754" y1="0" y2="30"/><line opacity="0.2" x1="352.04554277468355" x2="352.04554277468355" y1="0" y2="30"/><line opacity="0.2" x1="353.0482933784169" x2="353.0482933784169" y1="0" y2="30"/><line opacity="0.2" x1="456.2215065006249" x2="456.2215065006249" y1="0" y2="30"/><line opacity="0.2" x1="332.72859632796394" x2="332.72859632796394" y1="0" y2="30"/><line opacity="0.2" x1="150.45795644887124" x2="150.45795644887124" y1="0" y2="30"/><line opacity="0.2" x1="346.34542805394165" x2="346.34542805394165" y1="0" y2="30"/><line opacity="0.2" x1="349.40592583864503" x2="349.40592583864503" y1="0" y2="30"/><line opacity="0.2" x1="420.09524002878885" x2="420.09524002878885" y1="0" y2="30"/><line opacity="0.2" x1="181.65285110682848" x2="181.65285110682848" y1="0" y2="30"/><line opacity="0.2" x1="275.33308014579274" x2="275.33308014579274" y1="0" y2="30"/><line opacity="0.2" x1="196.0661056591252" x2="196.0661056591252" y1="0" y2="30"/><line opacity="0.2" x1="290.821665512047" x2="290.821665512047" y1="0" y2="30"/><line opacity="0.2" x1="286.32584896066135" x2="286.32584896066135" y1="0" y2="30"/><line opacity="0.2" x1="476.66614225691916" x2="476.66614225691916" y1="0" y2="30"/><line opacity="0.2" x1="203.6036850523583" x2="203.6036850523583" y1="0" y2="30"/><line opacity="0.2" x1="353.18128114061847" x2="353.18128114061847" y1="0" y2="30"/><line opacity="0.2" x1="173.90347649742736" x2="173.90347649742736" y1="0" y2="30"/><line opacity="0.2" x1="103.00350958071483" x2="103.00350958071483" y1="0" y2="30"/><line opacity="0.2" x1="343.9302987425749" x2="343.9302987425749" y1="0" y2="30"/><line opacity="0.2" x1="465.14312755094267" x2="465.14312755094267" y1="0" y2="30"/><line opacity="0.2" x1="367.7733679914137" x2="367.7733679914137" y1="0" y2="30"/><line opacity="0.2" x1="249.20180164850325" x2="249.20180164850325" y1="0" y2="30"/><line opacity="0.2" x1="396.70904239144744" x2="396.70904239144744" y1="0" y2="30"/><line opacity="0.2" x1="280.33951205161407" x2="280.33951205161407" y1="0" y2="30"/><line opacity="0.2" x1="350.12848817676075" x2="350.12848817676075" y1="0" y2="30"/><line opacity="0.2" x1="271.38700267683504" x2="271.38700267683504" y1="0" y2="30"/><line opacity="0.2" x1="322.612304112038" x2="322.612304112038" y1="0" y2="30"/><line opacity="0.2" x1="322.50964357249603" x2="322.50964357249603" y1="0" y2="30"/><line opacity="0.2" x1="375.3372725610165" x2="375.3372725610165" y1="0" y2="30"/><line opacity="0.2" x1="270.03191203562244" x2="270.03191203562244" y1="0" y2="30"/><line opacity="0.2" x1="386.29473188708323" x2="386.29473188708323" y1="0" y2="30"/><line opacity="0.2" x1="349.9416222390574" x2="349.9416222390574" y1="0" y2="30"/><line opacity="0.2" x1="406.0328412740639" x2="406.0328412740639" y1="0" y2="30"/><line opacity="0.2" x1="272.18258400757884" x2="272.18258400757884" y1="0" y2="30"/><line opacity="0.2" x1="204.31305685121612" x2="204.31305685121612" y1="0" y2="30"/><line opacity="0.2" x1="188.3383867939442" x2="188.3383867939442" y1="0" y2="30"/><line opacity="0.2" x1="254.90926951556585" x2="254.90926951556585" y1="0" y2="30"/><line opacity="0.2" x1="348.40860034835254" x2="348.40860034835254" y1="0" y2="30"/><line opacity="0.2" x1="99.76817272787218" x2="99.76817272787218" y1="0" y2="30"/><line opacity="0.2" x1="324.62211585055815" x2="324.62211585055815" y1="0" y2="30"/><line opacity="0.2" x1="197.73670893758927" x2="197.73670893758927" y1="0" y2="30"/><line opacity="0.2" x1="233.4166490818231" x2="233.4166490818231" y1="0" y2="30"/><line opacity="0.2" x1="304.5530116442821" x2="304.5530116442821" y1="0" y2="30"/><line opacity="0.2" x1="203.21557174617993" x2="203.21557174617993" y1="0" y2="30"/><line opacity="0.2" x1="346.0088343951168" x2="346.0088343951168" y1="0" y2="30"/><line opacity="0.2" x1="167.81198376617908" x2="167.81198376617908" y1="0" y2="30"/><line opacity="0.2" x1="345.5816609031087" x2="345.5816609031087" y1="0" y2="30"/><line opacity="0.2" x1="280.5549091308915" x2="280.5549091308915" y1="0" y2="30"/><line opacity="0.2" x1="306.1868776692138" x2="306.1868776692138" y1="0" y2="30"/><line opacity="0.2" x1="248.70149441098903" x2="248.70149441098903" y1="0" y2="30"/><line opacity="0.2" x1="199.2490762046129" x2="199.2490762046129" y1="0" y2="30"/><line opacity="0.2" x1="336.9626904025557" x2="336.9626904025557" y1="0" y2="30"/><line opacity="0.2" x1="229.08445019768936" x2="229.08445019768936" y1="0" y2="30"/><line opacity="0.2" x1="145.471315676219" x2="145.471315676219" y1="0" y2="30"/><line opacity="0.2" x1="417.07084435685385" x2="417.07084435685385" y1="0" y2="30"/><line opacity="0.2" x1="379.94878611068344" x2="379.94878611068344" y1="0" y2="30"/><line opacity="0.2" x1="352.45635027053015" x2="352.45635027053015" y1="0" y2="30"/><line opacity="0.2" x1="478.9135421596092" x2="478.9135421596092" y1="0" y2="30"/><line opacity="0.2" x1="364.47287835283356" x2="364.47287835283356" y1="0" y2="30"/><line opacity="0.2" x1="219.38842247501572" x2="219.38842247501572" y1="0" y2="30"/><line opacity="0.2" x1="247.7384569886393" x2="247.7384569886393" y1="0" y2="30"/><line opacity="0.2" x1="421.8761966042747" x2="421.8761966042747" y1="0" y2="30"/><line opacity="0.2" x1="323.4014208281662" x2="323.4014208281662" y1="0" y2="30"/><line opacity="0.2" x1="428.8749948104404" x2="428.8749948104404" y1="0" y2="30"/><line opacity="0.2" x1="353.7778131362584" x2="353.7778131362584" y1="0" y2="30"/><line opacity="0.2" x1="276.4013053547573" x2="276.4013053547573" y1="0" y2="30"/><line opacity="0.2" x1="338.1322210706847" x2="338.1322210706847" y1="0" y2="30"/><line opacity="0.2" x1="242.17015947823543" x2="242.17015947823543" y1="0" y2="30"/><line opacity="0.2" x1="287.2856987442823" x2="287.2856987442823" y1="0" y2="30"/><line opacity="0.2" x1="327.7115262810814" x2="327.7115262810814" y1="0" y2="30"/><line opacity="0.2" x1="149.62626534017755" x2="149.62626534017755" y1="0" y2="30"/><line opacity="0.2" x1="261.02645478686736" x2="261.02645478686736" y1="0" y2="30"/><line opacity="0.2" x1="174.52199554911795" x2="174.52199554911795" y1="0" y2="30"/><line opacity="0.2" x1="267.2075908743776" x2="267.2075908743776" y1="0" y2="30"/><line opacity="0.2" x1="231.38653096263823" x2="231.38653096263823" y1="0" y2="30"/><line opacity="0.2" x1="310.54559249808347" x2="310.54559249808347" y1="0" y2="30"/><line opacity="0.2" x1="171.82720160669246" x2="171.82720160669246" y1="0" y2="30"/><line opacity="0.2" x1="238.58648547131384" x2="238.58648547131384" y1="0" y2="30"/><line opacity="0.2" x1="289.6038638439684" x2="289.6038638439684" y1="0" y2="30"/><line opacity="0.2" x1="351.4579810391525" x2="351.4579810391525" y1="0" y2="30"/><line opacity="0.2" x1="371.7299461854581" x2="371.7299461854581" y1="0" y2="30"/><line opacity="0.2" x1="408.02911800504495" x2="408.02911800504495" y1="0" y2="30"/><line opacity="0.2" x1="231.53604120453048" x2="231.53604120453048" y1="0" y2="30"/><line opacity="0.2" x1="435.5442017333194" x2="435.5442017333194" y1="0" y2="30"/><line opacity="0.2" x1="325.4614538810682" x2="325.4614538810682" y1="0" y2="30"/><line opacity="0.2" x1="419.18543089731634" x2="419.18543089731634" y1="0" y2="30"/><line opacity="0.2" x1="314.7814772713982" x2="314.7814772713982" y1="0" y2="30"/><line opacity="0.2" x1="20" x2="20" y1="0" y2="30"/><line opacity="0.2" x1="232.8764555604941" x2="232.8764555604941" y1="0" y2="30"/><line opacity="0.2" x1="398.67437383903496" x2="398.67437383903496" y1="0" y2="30"/><line opacity="0.2" x1="303.8936396127051" x2="303.8936396127051" y1="0" y2="30"/><line opacity="0.2" x1="317.686690591946" x2="317.686690591946" y1="0" y2="30"/><line opacity="0.2" x1="286.0083498022515" x2="286.0083498022515" y1="0" y2="30"/><line opacity="0.2" x1="364.0962665300373" x2="364.0962665300373" y1="0" y2="30"/><line opacity="0.2" x1="292.705190474244" x2="292.705190474244" y1="0" y2="30"/><line opacity="0.2" x1="241.19422367412017" x2="241.19422367412017" y1="0" y2="30"/><line opacity="0.2" x1="201.01206525097442" x2="201.01206525097442" y1="0" y2="30"/><line opacity="0.2" x1="387.4490728045608" x2="387.4490728045608" y1="0" y2="30"/><line opacity="0.2" x1="395.48744683872786" x2="395.48744683872786" y1="0" y2="30"/><line opacity="0.2" x1="231.2869804143603" x2="231.2869804143603" y1="0" y2="30"/><line opacity="0.2" x1="223.04399878003792" x2="223.04399878003792" y1="0" y2="30"/><line opacity="0.2" x1="365.7001282607072" x2="365.7001282607072" y1="0" y2="30"/><line opacity="0.2" x1="382.7079066671986" x2="382.7079066671986" y1="0" y2="30"/><line opacity="0.2" x1="267.6272512548762" x2="267.6272512548762" y1="0" y2="30"/><line opacity="0.2" x1="176.54339060811535" x2="176.54339060811535" y1="0" y2="30"/><line opacity="0.2" x1="250.0696878734904" x2="250.0696878734904" y1="0" y2="30"/><line opacity="0.2" x1="399.72986170599836" x2="399.72986170599836" y1="0" y2="30"/><line opacity="0.2" x1="238.30193885507174" x2="238.30193885507174" y1="0" y2="30"/><line opacity="0.2" x1="327.62267776987386" x2="327.62267776987386" y1="0" y2="30"/><line opacity="0.2" x1="156.8729588008683" x2="156.8729588008683" y1="0" y2="30"/><line opacity="0.2" x1="189.71817543610058" x2="189.71817543610058" y1="0" y2="30"/><line opacity="0.2" x1="314.4254801564238" x2="314.4254801564238" y1="0" y2="30"/><line opacity="0.2" x1="346.4688265728132" x2="346.4688265728132" y1="0" y2="30"/><line opacity="0.2" x1="272.74333639789404" x2="272.74333639789404" y1="0" y2="30"/><line opacity="0.2" x1="308.7479875747042" x2="308.7479875747042" y1="0" y2="30"/><line opacity="0.2" x1="362.24071268761134" x2="362.24071268761134" y1="0" y2="30"/><line opacity="0.2" x1="182.57959773415863" x2="182.57959773415863" y1="0" y2="30"/><line opacity="0.2" x1="299.4869351963772" x2="299.4869351963772" y1="0" y2="30"/><line opacity="0.2" x1="210.78782750572213" x2="210.78782750572213" y1="0" y2="30"/><line opacity="0.2" x1="303.3081781700218" x2="303.3081781700218" y1="0" y2="30"/><line opacity="0.2" x1="202.2534976694347" x2="202.2534976694347" y1="0" y2="30"/><line opacity="0.2" x1="344.4967772372999" x2="344.4967772372999" y1="0" y2="30"/><line opacity="0.2" x1="254.58007701904032" x2="254.58007701904032" y1="0" y2="30"/><line opacity="0.2" x1="408.77236816514943" x2="408.77236816514943" y1="0" y2="30"/><line opacity="0.2" x1="406.99741755687967" x2="406.99741755687967" y1="0" y2="30"/><line opacity="0.2" x1="292.7496165307361" x2="292.7496165307361" y1="0" y2="30"/><line opacity="0.2" x1="252.29410880360302" x2="252.29410880360302" y1="0" y2="30"/><line opacity="0.2" x1="251.67620755046963" x2="251.67620755046963" y1="0" y2="30"/><line opacity="0.2" x1="272.3397819885734" x2="272.3397819885734" y1="0" y2="30"/><line opacity="0.2" x1="408.9490610740207" x2="408.9490610740207" y1="0" y2="30"/><line opacity="0.2" x1="219.63842864668902" x2="219.63842864668902" y1="0" y2="30"/><line opacity="0.2" x1="459.8155631939579" x2="459.8155631939579" y1="0" y2="30"/><line opacity="0.2" x1="250.44575917148558" x2="250.44575917148558" y1="0" y2="30"/><line opacity="0.2" x1="447.9927416987386" x2="447.9927416987386" y1="0" y2="30"/><line opacity="0.2" x1="270.97415638515525" x2="270.97415638515525" y1="0" y2="30"/><line opacity="0.2" x1="281.90411767819046" x2="281.90411767819046" y1="0" y2="30"/><line opacity="0.2" x1="333.04061858760207" x2="333.04061858760207" y1="0" y2="30"/><line opacity="0.2" x1="158.76710161877506" x2="158.76710161877506" y1="0" y2="30"/><line opacity="0.2" x1="133.85920660660403" x2="133.85920660660403" y1="0" y2="30"/><line opacity="0.2" x1="274.5365619430552" x2="274.5365619430552" y1="0" y2="30"/><line opacity="0.2" x1="357.16134712079406" x2="357.16134712079406" y1="0" y2="30"/><line opacity="0.2" x1="241.4342819501548" x2="241.4342819501548" y1="0" y2="30"/><line opacity="0.2" x1="285.7470246763741" x2="285.7470246763741" y1="0" y2="30"/><line opacity="0.2" x1="259.9897929189079" x2="259.9897929189079" y1="0" y2="30"/><line opacity="0.2" x1="133.54999740021245" x2="133.54999740021245" y1="0" y2="30"/><line opacity="0.2" x1="346.79199825965964" x2="346.79199825965964" y1="0" y2="30"/><line opacity="0.2" x1="383.5987909120252" x2="383.5987909120252" y1="0" y2="30"/><line opacity="0.2" x1="445.7885115917573" x2="445.7885115917573" y1="0" y2="30"/><line opacity="0.2" x1="324.99513818930075" x2="324.99513818930075" y1="0" y2="30"/><line opacity="0.2" x1="252.84697281964918" x2="252.84697281964918" y1="0" y2="30"/><line opacity="0.2" x1="241.7447163490171" x2="241.7447163490171" y1="0" y2="30"/><line opacity="0.2" x1="261.2011260594756" x2="261.2011260594756" y1="0" y2="30"/><line opacity="0.2" x1="272.5816353415486" x2="272.5816353415486" y1="0" y2="30"/><line opacity="0.2" x1="334.98107401827156" x2="334.98107401827156" y1="0" y2="30"/><line opacity="0.2" x1="394.69750600644903" x2="394.69750600644903" y1="0" y2="30"/><line opacity="0.2" x1="423.224624201947" x2="423.224624201947" y1="0" y2="30"/><line opacity="0.2" x1="306.07727171595724" x2="306.07727171595724" y1="0" y2="30"/><line opacity="0.2" x1="334.6019277937484" x2="334.6019277937484" y1="0" y2="30"/><line opacity="0.2" x1="348.7837821391509" x2="348.7837821391509" y1="0" y2="30"/><line opacity="0.2" x1="348.8559532517834" x2="348.8559532517834" y1="0" y2="30"/><line opacity="0.2" x1="413.46045060824224" x2="413.46045060824224" y1="0" y2="30"/><line opacity="0.2" x1="387.0421967345265" x2="387.0421967345265" y1="0" y2="30"/><line opacity="0.2" x1="295.9339616401505" x2="295.9339616401505" y1="0" y2="30"/><line opacity="0.2" x1="378.2100990400387" x2="378.2100990400387" y1="0" y2="30"/><line opacity="0.2" x1="397.47328970206985" x2="397.47328970206985" y1="0" y2="30"/><line opacity="0.2" x1="264.52108466140584" x2="264.52108466140584" y1="0" y2="30"/><line opacity="0.2" x1="233.7750723674649" x2="233.7750723674649" y1="0" y2="30"/><line opacity="0.2" x1="378.39850389101167" x2="378.39850389101167" y1="0" y2="30"/><line opacity="0.2" x1="139.36234244183234" x2="139.36234244183234" y1="0" y2="30"/><line opacity="0.2" x1="231.78575732247762" x2="231.78575732247762" y1="0" y2="30"/><line opacity="0.2" x1="333.8020265882669" x2="333.8020265882669" y1="0" y2="30"/><line opacity="0.2" x1="387.0347220730623" x2="387.0347220730623" y1="0" y2="30"/><line opacity="0.2" x1="278.55201129285723" x2="278.55201129285723" y1="0" y2="30"/><line opacity="0.2" x1="286.1324275345042" x2="286.1324275345042" y1="0" y2="30"/><line opacity="0.2" x1="328.6729830894344" x2="328.6729830894344" y1="0" y2="30"/><line opacity="0.2" x1="299.02721511513226" x2="299.02721511513226" y1="0" y2="30"/><line opacity="0.2" x1="270.7733417145712" x2="270.7733417145712" y1="0" y2="30"/><line opacity="0.2" x1="219.4204166375815" x2="219.4204166375815" y1="0" y2="30"/><line opacity="0.2" x1="106.39600792551565" x2="106.39600792551565" y1="0" y2="30"/><line opacity="0.2" x1="305.82168596222084" x2="305.82168596222084" y1="0" y2="30"/><line opacity="0.2" x1="361.14327535354477" x2="361.14327535354477" y1="0" y2="30"/><line opacity="0.2" x1="293.9718361072691" x2="293.9718361072691" y1="0" y2="30"/><line opacity="0.2" x1="217.53267742832662" x2="217.53267742832662" y1="0" y2="30"/><line opacity="0.2" x1="305.42473392208166" x2="305.42473392208166" y1="0" y2="30"/><line opacity="0.2" x1="620" x2="620" y1="0" y2="30"/><line opacity="0.2" x1="274.3884476468443" x2="274.3884476468443" y1="0" y2="30"/><line opacity="0.2" x1="154.15080417010304" x2="154.15080417010304" y1="0" y2="30"/><line opacity="0.2" x1="379.25909079263107" x2="379.25909079263107" y1="0" y2="30"/><line opacity="0.2" x1="356.8743545700243" x2="356.8743545700243" y1="0" y2="30"/><line opacity="0.2" x1="218.5209478107878" x2="218.5209478107878" y1="0" y2="30"/><line opacity="0.2" x1="268.27649084256547" x2="268.27649084256547" y1="0" y2="30"/><line opacity="0.2" x1="373.6057143358384" x2="373.6057143358384" y1="0" y2="30"/><line opacity="0.2" x1="467.48443803321226" x2="467.48443803321226" y1="0" y2="30"/><line opacity="0.2" x1="256.0802249124837" x2="256.0802249124837" y1="0" y2="30"/><line opacity="0.2" x1="396.97103304400923" x2="396.97103304400923" y1="0" y2="30"/><line opacity="0.2" x1="304.38121064144013" x2="304.38121064144013" y1="0" y2="30"/><line opacity="0.2" x1="295.7869060846187" x2="295.7869060846187" y1="0" y2="30"/><line opacity="0.2" x1="406.5316260152081" x2="406.5316260152081" y1="0" y2="30"/><line opacity="0.2" x1="361.9896437374548" x2="361.9896437374548" y1="0" y2="30"/><line opacity="0.2" x1="121.18922603207668" x2="121.18922603207668" y1="0" y2="30"/><line opacity="0.2" x1="364.1782464669116" x2="364.1782464669116" y1="0" y2="30"/><line opacity="0.2" x1="362.97201833213705" x2="362.97201833213705" y1="0" y2="30"/><line opacity="0.2" x1="176.05572751017115" x2="176.05572751017115" y1="0" y2="30"/><line opacity="0.2" x1="229.06511521039099" x2="229.06511521039099" y1="0" y2="30"/><line opacity="0.2" x1="381.8490688857661" x2="381.8490688857661" y1="0" y2="30"/><line opacity="0.2" x1="260.39127880128416" x2="260.39127880128416" y1="0" y2="30"/><line opacity="0.2" x1="334.0497545148984" x2="334.0497545148984" y1="0" y2="30"/><line opacity="0.2" x1="213.3563613992326" x2="213.3563613992326" y1="0" y2="30"/><line opacity="0.2" x1="60.411466258149616" x2="60.411466258149616" y1="0" y2="30"/><line opacity="0.2" x1="159.14871389869103" x2="159.14871389869103" y1="0" y2="30"/><line opacity="0.2" x1="388.6010112875453" x2="388.6010112875453" y1="0" y2="30"/><line opacity="0.2" x1="224.78850096943654" x2="224.78850096943654" y1="0" y2="30"/><line opacity="0.2" x1="398.3878357664596" x2="398.3878357664596" y1="0" y2="30"/><line opacity="0.2" x1="487.32779373328094" x2="487.32779373328094" y1="0" y2="30"/><line opacity="0.2" x1="196.80062335540777" x2="196.80062335540777" y1="0" y2="30"/><line opacity="0.2" x1="323.8751411242042" x2="323.8751411242042" y1="0" y2="30"/><line opacity="0.2" x1="337.018249296689" x2="337.018249296689" y1="0" y2="30"/><line opacity="0.2" x1="306.3264349592042" x2="306.3264349592042" y1="0" y2="30"/><line opacity="0.2" x1="280.715439313987" x2="280.715439313987" y1="0" y2="30"/><line opacity="0.2" x1="152.4076382736297" x2="152.4076382736297" y1="0" y2="30"/><line opacity="0.2" x1="298.07232411900793" x2="298.07232411900793" y1="0" y2="30"/><line opacity="0.2" x1="390.09054440469646" x2="390.09054440469646" y1="0" y2="30"/><line opacity="0.2" x1="227.08225225431073" x2="227.08225225431073" y1="0" y2="30"/><line opacity="0.2" x1="380.5760893674487" x2="380.5760893674487" y1="0" y2="30"/><line opacity="0.2" x1="327.75797061377926" x2="327.75797061377926" y1="0" y2="30"/><line opacity="0.2" x1="210.45355086866286" x2="210.45355086866286" y1="0" y2="30"/><line opacity="0.2" x1="287.316551901328" x2="287.316551901328" y1="0" y2="30"/><line opacity="0.2" x1="235.2939103744553" x2="235.2939103744553" y1="0" y2="30"/><line opacity="0.2" x1="279.23417421783216" x2="279.23417421783216" y1="0" y2="30"/><line opacity="0.2" x1="249.91771670529903" x2="249.91771670529903" y1="0" y2="30"/><line opacity="0.2" x1="381.70888666190274" x2="381.70888666190274" y1="0" y2="30"/><line opacity="0.2" x1="165.5117271828791" x2="165.5117271828791" y1="0" y2="30"/><line opacity="0.2" x1="447.89736866471975" x2="447.89736866471975" y1="0" y2="30"/><line opacity="0.2" x1="465.7119817324768" x2="465.7119817324768" y1="0" y2="30"/><line opacity="0.2" x1="305.8002839013871" x2="305.8002839013871" y1="0" y2="30"/><line opacity="0.2" x1="376.35356589801216" x2="376.35356589801216" y1="0" y2="30"/><line opacity="0.2" x1="156.19728368535735" x2="156.19728368535735" y1="0" y2="30"/><line opacity="0.2" x1="293.9918905424322" x2="293.9918905424322" y1="0" y2="30"/><line opacity="0.2" x1="455.86025953716324" x2="455.86025953716324" y1="0" y2="30"/><line opacity="0.2" x1="467.6314667661296" x2="467.6314667661296" y1="0" y2="30"/><line opacity="0.2" x1="408.6466017349358" x2="408.6466017349358" y1="0" y2="30"/><line opacity="0.2" x1="344.14182147104816" x2="344.14182147104816" y1="0" y2="30"/><line opacity="0.2" x1="375.36378100584795" x2="375.36378100584795" y1="0" y2="30"/><line opacity="0.2" x1="262.39051784550367" x2="262.39051784550367" y1="0" y2="30"/><line opacity="0.2" x1="250.34312363456166" x2="250.34312363456166" y1="0" y2="30"/><line opacity="0.2" x1="329.9784125720146" x2="329.9784125720146" y1="0" y2="30"/><line opacity="0.2" x1="272.82948465449203" x2="272.82948465449203" y1="0" y2="30"/><line opacity="0.2" x1="414.7339982322878" x2="414.7339982322878" y1="0" y2="30"/><line opacity="0.2" x1="351.5019364448954" x2="351.5019364448954" y1="0" y2="30"/><line opacity="0.2" x1="249.75540672706765" x2="249.75540672706765" y1="0" y2="30"/><line opacity="0.2" x1="409.7496964214596" x2="409.7496964214596" y1="0" y2="30"/><line opacity="0.2" x1="310.35290828865357" x2="310.35290828865357" y1="0" y2="30"/><line opacity="0.2" x1="220.83574445175708" x2="220.83574445175708" y1="0" y2="30"/><line opacity="0.2" x1="282.09808220277984" x2="282.09808220277984" y1="0" y2="30"/><line opacity="0.2" x1="241.24331978141544" x2="241.24331978141544" y1="0" y2="30"/><line opacity="0.2" x1="379.81672386882445" x2="379.81672386882445" y1="0" y2="30"/><line opacity="0.2" x1="199.25520689421325" x2="199.25520689421325" y1="0" y2="30"/><line opacity="0.2" x1="267.0211555134572" x2="267.0211555134572" y1="0" y2="30"/><line opacity="0.2" x1="139.9230407684136" x2="139.9230407684136" y1="0" y2="30"/><line opacity="0.2" x1="149.71782820463545" x2="149.71782820463545" y1="0" y2="30"/><line opacity="0.2" x1="29.030591570913508" x2="29.030591570913508" y1="0" y2="30"/><line opacity="0.2" x1="322.20687549560023" x2="322.20687549560023" y1="0" y2="30"/><line opacity="0.2" x1="174.75572944748814" x2="174.75572944748814" y1="0" y2="30"/><line opacity="0.2" x1="158.46339021931286" x2="158.46339021931286" y1="0" y2="30"/><line opacity="0.2" x1="275.93791940649055" x2="275.93791940649055" y1="0" y2="30"/><line opacity="0.2" x1="241.60338217464303" x2="241.60338217464303" y1="0" y2="30"/><line opacity="0.2" x1="417.5731623474958" x2="417.5731623474958" y1="0" y2="30"/><line opacity="0.2" x1="240.9974675527947" x2="240.9974675527947" y1="0" y2="30"/><line opacity="0.2" x1="376.94615120707675" x2="376.94615120707675" y1="0" y2="30"/><line opacity="0.2" x1="235.82206217087216" x2="235.82206217087216" y1="0" y2="30"/><line opacity="0.2" x1="341.09129844355635" x2="341.09129844355635" y1="0" y2="30"/><line opacity="0.2" x1="422.253036819173" x2="422.253036819173" y1="0" y2="30"/><line opacity="0.2" x1="332.1760419237214" x2="332.1760419237214" y1="0" y2="30"/><line opacity="0.2" x1="307.1098209376076" x2="307.1098209376076" y1="0" y2="30"/><line opacity="0.2" x1="341.44555360586173" x2="341.44555360586173" y1="0" y2="30"/><line opacity="0.2" x1="225.6959790965751" x2="225.6959790965751" y1="0" y2="30"/><line opacity="0.2" x1="360.5530202822698" x2="360.5530202822698" y1="0" y2="30"/><line opacity="0.2" x1="322.6232625688626" x2="322.6232625688626" y1="0" y2="30"/><line opacity="0.2" x1="279.2450239607239" x2="279.2450239607239" y1="0" y2="30"/><line opacity="0.2" x1="252.5239565844342" x2="252.5239565844342" y1="0" y2="30"/><line opacity="0.2" x1="354.90175527821305" x2="354.90175527821305" y1="0" y2="30"/><line opacity="0.2" x1="376.1754728932366" x2="376.1754728932366" y1="0" y2="30"/><line opacity="0.2" x1="381.6186951847118" x2="381.6186951847118" y1="0" y2="30"/><line opacity="0.2" x1="201.6923573150188" x2="201.6923573150188" y1="0" y2="30"/><line opacity="0.2" x1="107.49791961126222" x2="107.49791961126222" y1="0" y2="30"/><line opacity="0.2" x1="229.85327078630507" x2="229.85327078630507" y1="0" y2="30"/><line opacity="0.2" x1="422.7373825517656" x2="422.7373825517656" y1="0" y2="30"/><line opacity="0.2" x1="34.8258189389699" x2="34.8258189389699" y1="0" y2="30"/><line opacity="0.2" x1="339.458458816485" x2="339.458458816485" y1="0" y2="30"/><line opacity="0.2" x1="344.2004386494022" x2="344.2004386494022" y1="0" y2="30"/><line opacity="0.2" x1="174.02245455407004" x2="174.02245455407004" y1="0" y2="30"/><line opacity="0.2" x1="290.26574001116944" x2="290.26574001116944" y1="0" y2="30"/><line opacity="0.2" x1="268.92555494231397" x2="268.92555494231397" y1="0" y2="30"/><line opacity="0.2" x1="412.1840687294383" x2="412.1840687294383" y1="0" y2="30"/><line opacity="0.2" x1="231.62219824815799" x2="231.62219824815799" y1="0" y2="30"/><line opacity="0.2" x1="232.70775607625725" x2="232.70775607625725" y1="0" y2="30"/><line opacity="0.2" x1="155.77207128159773" x2="155.77207128159773" y1="0" y2="30"/><line opacity="0.2" x1="322.1808456010231" x2="322.1808456010231" y1="0" y2="30"/><line opacity="0.2" x1="404.3148204023216" x2="404.3148204023216" y1="0" y2="30"/><line opacity="0.2" x1="199.3663199293167" x2="199.3663199293167" y1="0" y2="30"/><line opacity="0.2" x1="270.47607619674005" x2="270.47607619674005" y1="0" y2="30"/><line opacity="0.2" x1="346.8306504882023" x2="346.8306504882023" y1="0" y2="30"/><line opacity="0.2" x1="359.6316627396737" x2="359.6316627396737" y1="0" y2="30"/><line opacity="0.2" x1="337.36192297105765" x2="337.36192297105765" y1="0" y2="30"/><line opacity="0.2" x1="324.24589465351875" x2="324.24589465351875" y1="0" y2="30"/><line opacity="0.2" x1="283.3966851587859" x2="283.3966851587859" y1="0" y2="30"/><line opacity="0.2" x1="308.2255120070019" x2="308.2255120070019" y1="0" y2="30"/><line opacity="0.2" x1="340.0287797248209" x2="340.0287797248209" y1="0" y2="30"/><line opacity="0.2" x1="276.88536925107746" x2="276.88536925107746" y1="0" y2="30"/><line opacity="0.2" x1="292.5921752816865" x2="292.5921752816865" y1="0" y2="30"/><line opacity="0.2" x1="216.97307288849848" x2="216.97307288849848" y1="0" y2="30"/><line opacity="0.2" x1="334.91151356740966" x2="334.91151356740966" y1="0" y2="30"/><line opacity="0.2" x1="289.9845402555136" x2="289.9845402555136" y1="0" y2="30"/><line opacity="0.2" x1="198.39346541814785" x2="198.39346541814785" y1="0" y2="30"/><line opacity="0.2" x1="342.2567004523193" x2="342.2567004523193" y1="0" y2="30"/><line opacity="0.2" x1="227.7802705771267" x2="227.7802705771267" y1="0" y2="30"/><line opacity="0.2" x1="387.97255143193826" x2="387.97255143193826" y1="0" y2="30"/><line opacity="0.2" x1="240.63506975999292" x2="240.63506975999292" y1="0" y2="30"/><line opacity="0.2" x1="296.99058947280014" x2="296.99058947280014" y1="0" y2="30"/><line opacity="0.2" x1="280.98011179995905" x2="280.98011179995905" y1="0" y2="30"/><line opacity="0.2" x1="381.29874418915705" x2="381.29874418915705" y1="0" y2="30"/><line opacity="0.2" x1="274.27500459625264" x2="274.27500459625264" y1="0" y2="30"/><line opacity="0.2" x1="439.53207599065956" x2="439.53207599065956" y1="0" y2="30"/><line opacity="0.2" x1="381.51944343367427" x2="381.51944343367427" y1="0" y2="30"/><line opacity="0.2" x1="305.9084082200194" x2="305.9084082200194" y1="0" y2="30"/><line opacity="0.2" x1="277.9933562491193" x2="277.9933562491193" y1="0" y2="30"/><line opacity="0.2" x1="248.72123259404796" x2="248.72123259404796" y1="0" y2="30"/><line opacity="0.2" x1="187.28906169696944" x2="187.28906169696944" y1="0" y2="30"/><line opacity="0.2" x1="164.42263042066264" x2="164.42263042066264" y1="0" y2="30"/><line opacity="0.2" x1="292.41536196985794" x2="292.41536196985794" y1="0" y2="30"/><line opacity="0.2" x1="221.92588843225596" x2="221.92588843225596" y1="0" y2="30"/><line opacity="0.2" x1="343.66176173504215" x2="343.66176173504215" y1="0" y2="30"/><line opacity="0.2" x1="381.422828385775" x2="381.422828385775" y1="0" y2="30"/><line opacity="0.2" x1="333.1514771685914" x2="333.1514771685914" y1="0" y2="30"/><line opacity="0.2" x1="487.4286193945255" x2="487.4286193945255" y1="0" y2="30"/><line opacity="0.2" x1="330.3910584679469" x2="330.3910584679469" y1="0" y2="30"/><line opacity="0.2" x1="311.0572935144844" x2="311.0572935144844" y1="0" y2="30"/><line opacity="0.2" x1="335.00861932171216" x2="335.00861932171216" y1="0" y2="30"/><line opacity="0.2" x1="409.01228848359614" x2="409.01228848359614" y1="0" y2="30"/><line opacity="0.2" x1="250.1282050318291" x2="250.1282050318291" y1="0" y2="30"/><line opacity="0.2" x1="385.89559194862534" x2="385.89559194862534" y1="0" y2="30"/><line opacity="0.2" x1="325.2172198143932" x2="325.2172198143932" y1="0" y2="30"/><line opacity="0.2" x1="379.81803851252505" x2="379.81803851252505" y1="0" y2="30"/><line opacity="0.2" x1="225.72667177491047" x2="225.72667177491047" y1="0" y2="30"/><line opacity="0.2" x1="408.9289650695367" x2="408.9289650695367" y1="0" y2="30"/><line opacity="0.2" x1="291.65471482733653" x2="291.65471482733653" y1="0" y2="30"/><line opacity="0.2" x1="321.57178489529286" x2="321.57178489529286" y1="0" y2="30"/><line opacity="0.2" x1="306.30083036589224" x2="306.30083036589224" y1="0" y2="30"/><line opacity="0.2" x1="134.04060627500368" x2="134.04060627500368" y1="0" y2="30"/><line opacity="0.2" x1="272.7202401761368" x2="272.7202401761368" y1="0" y2="30"/><line opacity="0.2" x1="292.9315641332634" x2="292.9315641332634" y1="0" y2="30"/><line opacity="0.2" x1="482.4231806362091" x2="482.4231806362091" y1="0" y2="30"/><line opacity="0.2" x1="284.6953877097252" x2="284.6953877097252" y1="0" y2="30"/><line opacity="0.2" x1="221.12862416725744" x2="221.12862416725744" y1="0" y2="30"/><line opacity="0.2" x1="294.546155257952" x2="294.546155257952" y1="0" y2="30"/><line opacity="0.2" x1="298.6219817482801" x2="298.6219817482801" y1="0" y2="30"/><line opacity="0.2" x1="340.85375308952945" x2="340.85375308952945" y1="0" y2="30"/><line opacity="0.2" x1="398.41081006654656" x2="398.41081006654656" y1="0" y2="30"/><line opacity="0.2" x1="250.22808700316907" x2="250.22808700316907" y1="0" y2="30"/><line opacity="0.2" x1="235.63905978637467" x2="235.63905978637467" y1="0" y2="30"/><line opacity="0.2" x1="449.8228931621276" x2="449.8228931621276" y1="0" y2="30"/><line opacity="0.2" x1="338.1834532504259" x2="338.1834532504259" y1="0" y2="30"/><line opacity="0.2" x1="387.30494859383555" x2="387.30494859383555" y1="0" y2="30"/><line opacity="0.2" x1="343.5725658423206" x2="343.5725658423206" y1="0" y2="30"/><line opacity="0.2" x1="269.78534765909757" x2="269.78534765909757" y1="0" y2="30"/><line opacity="0.2" x1="188.8622174111671" x2="188.8622174111671" y1="0" y2="30"/><line opacity="0.2" x1="226.13287577711426" x2="226.13287577711426" y1="0" y2="30"/><line opacity="0.2" x1="380.88930896283927" x2="380.88930896283927" y1="0" y2="30"/><line opacity="0.2" x1="379.74916611402307" x2="379.74916611402307" y1="0" y2="30"/><line opacity="0.2" x1="278.88798173978034" x2="278.88798173978034" y1="0" y2="30"/><line opacity="0.2" x1="363.2434599633549" x2="363.2434599633549" y1="0" y2="30"/><line opacity="0.2" x1="117.96907143071984" x2="117.96907143071984" y1="0" y2="30"/><line opacity="0.2" x1="324.37885235709183" x2="324.37885235709183" y1="0" y2="30"/><line opacity="0.2" x1="245.30232745112443" x2="245.30232745112443" y1="0" y2="30"/><line opacity="0.2" x1="283.95815514413823" x2="283.95815514413823" y1="0" y2="30"/><line opacity="0.2" x1="368.70342904797656" x2="368.70342904797656" y1="0" y2="30"/><line opacity="0.2" x1="392.8934927451377" x2="392.8934927451377" y1="0" y2="30"/><line opacity="0.2" x1="404.71465575193275" x2="404.71465575193275" y1="0" y2="30"/><line opacity="0.2" x1="420.8830841321281" x2="420.8830841321281" y1="0" y2="30"/><line opacity="0.2" x1="327.0398063118141" x2="327.0398063118141" y1="0" y2="30"/><line opacity="0.2" x1="229.37842534086957" x2="229.37842534086957" y1="0" y2="30"/><line opacity="0.2" x1="488.66168576055196" x2="488.66168576055196" y1="0" y2="30"/><line opacity="0.2" x1="283.29103276145713" x2="283.29103276145713" y1="0" y2="30"/><line opacity="0.2" x1="253.18477052635356" x2="253.18477052635356" y1="0" y2="30"/><line opacity="0.2" x1="238.8254812501734" x2="238.8254812501734" y1="0" y2="30"/><line opacity="0.2" x1="304.86743713036236" x2="304.86743713036236" y1="0" y2="30"/><line opacity="0.2" x1="326.79063347337956" x2="326.79063347337956" y1="0" y2="30"/><line opacity="0.2" x1="249.34390501922422" x2="249.34390501922422" y1="0" y2="30"/><line opacity="0.2" x1="278.8402683508732" x2="278.8402683508732" y1="0" y2="30"/><line opacity="0.2" x1="353.42861119251654" x2="353.42861119251654" y1="0" y2="30"/><line opacity="0.2" x1="250.27053198276388" x2="250.27053198276388" y1="0" y2="30"/><line opacity="0.2" x1="275.46451936557423" x2="275.46451936557423" y1="0" y2="30"/><line opacity="0.2" x1="323.13183637976607" x2="323.13183637976607" y1="0" y2="30"/><line opacity="0.2" x1="418.17528814369894" x2="418.17528814369894" y1="0" y2="30"/><line opacity="0.2" x1="350.23583646184" x2="350.23583646184" y1="0" y2="30"/><line opacity="0.2" x1="115.72126420457184" x2="115.72126420457184" y1="0" y2="30"/><line opacity="0.2" x1="311.55961605172996" x2="311.55961605172996" y1="0" y2="30"/><line opacity="0.2" x1="323.8081554410926" x2="323.8081554410926" y1="0" y2="30"/><line opacity="0.2" x1="140.17154224842477" x2="140.17154224842477" y1="0" y2="30"/><line opacity="0.2" x1="152.45448248578924" x2="152.45448248578924" y1="0" y2="30"/><line opacity="0.2" x1="271.64420911621386" x2="271.64420911621386" y1="0" y2="30"/><line opacity="0.2" x1="160.2534676509227" x2="160.2534676509227" y1="0" y2="30"/><line opacity="0.2" x1="250.85843227081492" x2="250.85843227081492" y1="0" y2="30"/><line opacity="0.2" x1="322.6618023639703" x2="322.6618023639703" y1="0" y2="30"/></g></svg>