<svg xmlns="http://www.w3.org/2000/svg" xmlns:xlink="http://www.w3.org/1999/xlink" class="plot-5783c90656352" fill="currentColor" font-family="system-ui, sans-serif" font-size="10" text-anchor="middle" width="640" height="60" viewBox="0 0 640 60" style="color: black;"><style>
        .plot-5783c90656352 {
          display: block;
          background: white;
          height: auto;
          height: intrinsic;
          max-width: 100%;
        }
        .plot-5783c90656352 text,
        .plot-5783c90656352 tspan {
          white-space: pre;
        }
      </style><g aria-label="x-axis tick" fill="none" stroke="currentColor" transform="translate(0.5,0)"><path transform="translate(64.15112974812149,30)" d="M0,0L0,6"/><path transform="translate(149.80194647537812,30)" d="M0,0L0,6"/><path transform="translate(235.45276320263474,30)" d="M0,0L0,6"/><path transform="translate(321.1035799298914,30)" d="M0,0L0,6"/><path transform="translate(406.75439665714805,30)" d="M0,0L0,6"/><path transform="translate(492.4052133844047,30)" d="M0,0L0,6"/><path transform="translate(578.0560301116614,30)" d="M0,0L0,6"/></g><g aria-label="x-axis tick label" font-variant="tabular-nums" transform="translate(0.5,9.5)"><text y="0.71em" transform="translate(64.15112974812149,30)">−3</text><text y="0.71em" transform="translate(149.80194647537812,30)">−2</text><text y="0.71em" transform="translate(235.45276320263474,30)">−1</text><text y="0.71em" transform="translate(321.1035799298914,30)">0</text><text y="0.71em" transform="translate(406.75439665714805,30)">1</text><text y="0.71em" transform="translate(492.4052133844047,30)">2</text><text y="0.71em" transform="translate(578.0560301116614,30)">3</text></g><g aria-label="tick" stroke="steelblue" transform="translate(0.5,0)"><line opacity="0.2" x1="342.4717601259003" x2="342.4717601259003" y1="0" y2="30"/><line opacity="0.2" x1="323.2985964334027" x2="323.2985964334027" y1="0" y2="30"/><line opacity="0.2" x1="349.7271341772605" x2="349.7271341772605" y1="0" y2="30"/><line opacity="0.2" x1="202.06880421879228" x2="202.06880421879228" y1="0" y2="30"/><line opacity="0.2" x1="282.57591589534843" x2="282.57591589534843" y1="0" y2="30"/><line opacity="0.2" x1="153.90112221549228" x2="153.90112221549228" y1="0" y2="30"/><line opacity="0.2" x1="352.0269324666211" x2="352.0269324666211" y1="0" y2="30"/><line opacity="0.2" x1="338.1010609426611" x2="338.1010609426611" y1="0" y2="30"/><line opacity="0.2" x1="138.72589106194906" x2="138.72589106194906" y1="0" y2="30"/><line opacity="0.2" x1="164.5518048270807" x2="164.5518048270807" y1="0" y2="30"/><line opacity="0.2" x1="506.76352744143577" x2="506.76352744143577" y1="0" y2="30"/><line opacity="0.2" x1="352.7947938380738" x2="352.7947938380738" y1="0" y2="30"/><line opacity="0.2" x1="333.8339371080874" x2="333.8339371080874" y1="0" y2="30"/><line opacity="0.2" x1="378.47944569827075" x2="378.47944569827075" y1="0" y2="30"/><line opacity="0.2" x1="325.3796561272537" x2="325.3796561272537" y1="0" y2="30"/><line opacity="0.2" x1="258.29824932059216" x2="258.29824932059216" y1="0" y2="30"/><line opacity="0.2" x1="295.98024809237427" x2="295.98024809237427" y1="0" y2="30"/><line opacity="0.2" x1="319.2851400524945" x2="319.2851400524945" y1="0" y2="30"/><line opacity="0.2" x1="290.8727962670811" x2="290.8727962670811" y1="0" y2="30"/><line opacity="0.2" x1="356.67226218510046" x2="356.67226218510046" y1="0" y2="30"/><line opacity="0.2" x1="239.5859934926246" x2="239.5859934926246" y1="0" y2="30"/><line opacity="0.2" x1="348.00022076832875" x2="348.00022076832875" y1="0" y2="30"/><line opacity="0.2" x1="256.9563255684946" x2="256.9563255684946" y1="0" y2="30"/><line opacity="0.2" x1="262.05772099079724" x2="262.05772099079724" y1="0" y2="30"/><line opacity="0.2" x1="235.5431965927472" x2="235.5431965927472" y1="0" y2="30"/><line opacity="0.2" x1="347.84379108447706" x2="347.84379108447706" y1="0" y2="30"/><line opacity="0.2" x1="434.71965144560585" x2="434.71965144560585" y1="0" y2="30"/><line opacity="0.2" x1="313.0300246518573" x2="313.0300246518573" y1="0" y2="30"/><line opacity="0.2" x1="423.3854416947391" x2="423.3854416947391" y1="0" y2="30"/><line opacity="0.2" x1="350.46232412124596" x2="350.46232412124596" y1="0" y2="30"/><line opacity="0.2" x1="183.62355690620237" x2="183.62355690620237" y1="0" y2="30"/><line opacity="0.2" x1="393.1917681487924" x2="393.1917681487924" y1="0" y2="30"/><line opacity="0.2" x1="437.55149960231097" x2="437.55149960231097" y1="0" y2="30"/><line opacity="0.2" x1="358.75753677516076" x2="358.75753677516076" y1="0" y2="30"/><line opacity="0.2" x1="288.36133554561195" x2="288.36133554561195" y1="0" y2="30"/><line opacity="0.2" x1="322.4787185033431" x2="322.4787185033431" y1="0" y2="30"/><line opacity="0.2" x1="446.3504497064723" x2="446.3504497064723" y1="0" y2="30"/><line opacity="0.2" x1="431.65545443294405" x2="431.65545443294405" y1="0" y2="30"/><line opacity="0.2" x1="590.5248074333738" x2="590.5248074333738" y1="0" y2="30"/><line opacity="0.2" x1="237.66138725689342" x2="237.66138725689342" y1="0" y2="30"/><line opacity="0.2" x1="329.98234529248066" x2="329.98234529248066" y1="0" y2="30"/><line opacity="0.2" x1="460.2738421657309" x2="460.2738421657309" y1="0" y2="30"/><line opacity="0.2" x1="476.8333617829177" x2="476.8333617829177" y1="0" y2="30"/><line opacity="0.2" x1="344.61197941417913" x2="344.61197941417913" y1="0" y2="30"/><line opacity="0.2" x1="273.6932627031898" x2="273.6932627031898" y1="0" y2="30"/><line opacity="0.2" x1="350.8878941550128" x2="350.8878941550128" y1="0" y2="30"/><line opacity="0.2" x1="458.43726809269134" x2="458.43726809269134" y1="0" y2="30"/><line opacity="0.2" x1="335.0867445597229" x2="335.0867445597229" y1="0" y2="30"/><line opacity="0.2" x1="225.1274826079278" x2="225.1274826079278" y1="0" y2="30"/><line opacity="0.2" x1="260.2368248045598" x2="260.2368248045598" y1="0" y2="30"/><line opacity="0.2" x1="298.4867135311275" x2="298.4867135311275" y1="0" y2="30"/><line opacity="0.2" x1="330.31326991004966" x2="330.31326991004966" y1="0" y2="30"/><line opacity="0.2" x1="488.2472697935833" x2="488.2472697935833" y1="0" y2="30"/><line opacity="0.2" x1="364.81311463842076" x2="364.81311463842076" y1="0" y2="30"/><line opacity="0.2" x1="317.8051016377996" x2="317.8051016377996" y1="0" y2="30"/><line opacity="0.2" x1="230.99655406160525" x2="230.99655406160525" y1="0" y2="30"/><line opacity="0.2" x1="217.08517178779138" x2="217.08517178779138" y1="0" y2="30"/><line opacity="0.2" x1="386.40050585940253" x2="386.40050585940253" y1="0" y2="30"/><line opacity="0.2" x1="242.8929735974843" x2="242.8929735974843" y1="0" y2="30"/><line opacity="0.2" x1="119.9919795301524" x2="119.9919795301524" y1="0" y2="30"/><line opacity="0.2" x1="410.7394942333516" x2="410.7394942333516" y1="0" y2="30"/><line opacity="0.2" x1="337.68351166688416" x2="337.68351166688416" y1="0" y2="30"/><line opacity="0.2" x1="439.3851245271445" x2="439.3851245271445" y1="0" y2="30"/><line opacity="0.2" x1="343.4948766948232" x2="343.4948766948232" y1="0" y2="30"/><line opacity="0.2" x1="192.77656301888157" x2="192.77656301888157" y1="0" y2="30"/><line opacity="0.2" x1="416.2155423979741" x2="416.2155423979741" y1="0" y2="30"/><line opacity="0.2" x1="405.75988831179586" x2="405.75988831179586" y1="0" y2="30"/><line opacity="0.2" x1="442.0333748777174" x2="442.0333748777174" y1="0" y2="30"/><line opacity="0.2" x1="371.7077176286298" x2="371.7077176286298" y1="0" y2="30"/><line opacity="0.2" x1="423.8948246438544" x2="423.8948246438544" y1="0" y2="30"/><line opacity="0.2" x1="486.2950929144237" x2="486.2950929144237" y1="0" y2="30"/><line opacity="0.2" x1="449.63171309514547" x2="449.63171309514547" y1="0" y2="30"/><line opacity="0.2" x1="567.3888317470124" x2="567.3888317470124" y1="0" y2="30"/><line opacity="0.2" x1="389.5980715481978" x2="389.5980715481978" y1="0" y2="30"/><line opacity="0.2" x1="330.29156398320777" x2="330.29156398320777" y1="0" y2="30"/><line opacity="0.2" x1="287.14128027963125" x2="287.14128027963125" y1="0" y2="30"/><line opacity="0.2" x1="346.5318805484767" x2="346.5318805484767" y1="0" y2="30"/><line opacity="0.2" x1="388.5668379935524" x2="388.5668379935524" y1="0" y2="30"/><line opacity="0.2" x1="167.347704295457" x2="167.347704295457" y1="0" y2="30"/><line opacity="0.2" x1="341.23567637541686" x2="341.23567637541686" y1="0" y2="30"/><line opacity="0.2" x1="406.62736769778786" x2="406.62736769778786" y1="0" y2="30"/><line opacity="0.2" x1="312.82114109813654" x2="312.82114109813654" y1="0" y2="30"/><line opacity="0.2" x1="298.9448510824189" x2="298.9448510824189" y1="0" y2="30"/><line opacity="0.2" x1="262.68743383855207" x2="262.68743383855207" y1="0" y2="30"/><line opacity="0.2" x1="342.30526696068205" x2="342.30526696068205" y1="0" y2="30"/><line opacity="0.2" x1="218.0101946752141" x2="218.0101946752141" y1="0" y2="30"/><line opacity="0.2" x1="267.9927378803846" x2="267.9927378803846" y1="0" y2="30"/><line opacity="0.2" x1="274.8560130557046" x2="274.8560130557046" y1="0" y2="30"/><line opacity="0.2" x1="366.37115013038755" x2="366.37115013038755" y1="0" y2="30"/><line opacity="0.2" x1="221.45865911279225" x2="221.45865911279225" y1="0" y2="30"/><line opacity="0.2" x1="491.30644295351124" x2="491.30644295351124" y1="0" y2="30"/><line opacity="0.2" x1="310.645425698351" x2="310.645425698351" y1="0" y2="30"/><line opacity="0.2" x1="196.73560445320285" x2="196.73560445320285" y1="0" y2="30"/><line opacity="0.2" x1="339.5645021133377" x2="339.5645021133377" y1="0" y2="30"/><line opacity="0.2" x1="445.9074239445021" x2="445.9074239445021" y1="0" y2="30"/><line opacity="0.2" x1="302.2734146250829" x2="302.2734146250829" y1="0" y2="30"/><line opacity="0.2" x1="243.55945976938062" x2="243.55945976938062" y1="0" y2="30"/><line opacity="0.2" x1="397.90303571625253" x2="397.90303571625253" y1="0" y2="30"/><line opacity="0.2" x1="408.75277520008876" x2="408.75277520008876" y1="0" y2="30"/><line opacity="0.2" x1="296.41977621833854" x2="296.41977621833854" y1="0" y2="30"/><line opacity="0.2" x1="331.60075564313263" x2="331.60075564313263" y1="0" y2="30"/><line opacity="0.2" x1="316.07385844542637" x2="316.07385844542637" y1="0" y2="30"/><line opacity="0.2" x1="279.11903219402456" x2="279.11903219402456" y1="0" y2="30"/><line opacity="0.2" x1="261.72865302040094" x2="261.72865302040094" y1="0" y2="30"/><line opacity="0.2" x1="390.3650703250793" x2="390.3650703250793" y1="0" y2="30"/><line opacity="0.2" x1="434.7180250733212" x2="434.7180250733212" y1="0" y2="30"/><line opacity="0.2" x1="310.99245784114765" x2="310.99245784114765" y1="0" y2="30"/><line opacity="0.2" x1="214.58247618696888" x2="214.58247618696888" y1="0" y2="30"/><line opacity="0.2" x1="366.62187716657735" x2="366.62187716657735" y1="0" y2="30"/><line opacity="0.2" x1="302.0151746677611" x2="302.0151746677611" y1="0" y2="30"/><line opacity="0.2" x1="456.8836595496257" x2="456.8836595496257" y1="0" y2="30"/><line opacity="0.2" x1="335.3067048369195" x2="335.3067048369195" y1="0" y2="30"/><line opacity="0.2" x1="472.2726443351296" x2="472.2726443351296" y1="0" y2="30"/><line opacity="0.2" x1="271.3806757362045" x2="271.3806757362045" y1="0" y2="30"/><line opacity="0.2" x1="400.9668250060534" x2="400.9668250060534" y1="0" y2="30"/><line opacity="0.2" x1="335.2115123094787" x2="335.2115123094787" y1="0" y2="30"/><line opacity="0.2" x1="372.42222196433426" x2="372.42222196433426" y1="0" y2="30"/><line opacity="0.2" x1="524.4825399667837" x2="524.4825399667837" y1="0" y2="30"/><line opacity="0.2" x1="414.6469405156971" x2="414.6469405156971" y1="0" y2="30"/><line opacity="0.2" x1="507.7075413138399" x2="507.7075413138399" y1="0" y2="30"/><line opacity="0.2" x1="467.8613882235685" x2="467.8613882235685" y1="0" y2="30"/><line opacity="0.2" x1="268.6207451918368" x2="268.6207451918368" y1="0" y2="30"/><line opacity="0.2" x1="416.24829742596177" x2="416.24829742596177" y1="0" y2="30"/><line opacity="0.2" x1="410.4379925427589" x2="410.4379925427589" y1="0" y2="30"/><line opacity="0.2" x1="365.66453430852937" x2="365.66453430852937" y1="0" y2="30"/><line opacity="0.2" x1="283.03555488004065" x2="283.03555488004065" y1="0" y2="30"/><line opacity="0.2" x1="371.8760957933639" x2="371.8760957933639" y1="0" y2="30"/><line opacity="0.2" x1="412.0427566060788" x2="412.0427566060788" y1="0" y2="30"/><line opacity="0.2" x1="224.4793223282739" x2="224.4793223282739" y1="0" y2="30"/><line opacity="0.2" x1="327.5584775882881" x2="327.5584775882881" y1="0" y2="30"/><line opacity="0.2" x1="300.2045040020156" x2="300.2045040020156" y1="0" y2="30"/><line opacity="0.2" x1="326.66796629830975" x2="326.66796629830975" y1="0" y2="30"/><line opacity="0.2" x1="384.58911281876067" x2="384.58911281876067" y1="0" y2="30"/><line opacity="0.2" x1="357.00691989722446" x2="357.00691989722446" y1="0" y2="30"/><line opacity="0.2" x1="271.6960062609948" x2="271.6960062609948" y1="0" y2="30"/><line opacity="0.2" x1="473.4010865411571" x2="473.4010865411571" y1="0" y2="30"/><line opacity="0.2" x1="258.6121815540767" x2="258.6121815540767" y1="0" y2="30"/><line opacity="0.2" x1="350.9346143209978" x2="350.9346143209978" y1="0" y2="30"/><line opacity="0.2" x1="323.4759900919492" x2="323.4759900919492" y1="0" y2="30"/><line opacity="0.2" x1="445.2574465859566" x2="445.2574465859566" y1="0" y2="30"/><line opacity="0.2" x1="286.1845054762271" x2="286.1845054762271" y1="0" y2="30"/><line opacity="0.2" x1="218.19644379476688" x2="218.19644379476688" y1="0" y2="30"/><line opacity="0.2" x1="240.12870187550584" x2="240.12870187550584" y1="0" y2="30"/><line opacity="0.2" x1="344.58817172991183" x2="344.58817172991183" y1="0" y2="30"/><line opacity="0.2" x1="329.5462514180004" x2="329.5462514180004" y1="0" y2="30"/><line opacity="0.2" x1="372.3823498727697" x2="372.3823498727697" y1="0" y2="30"/><line opacity="0.2" x1="285.79922306812006" x2="285.79922306812006" y1="0" y2="30"/><line opacity="0.2" x1="327.08400136191" x2="327.08400136191" y1="0" y2="30"/><line opacity="0.2" x1="340.0625342330078" x2="340.0625342330078" y1="0" y2="30"/><line opacity="0.2" x1="276.47343006613033" x2="276.47343006613033" y1="0" y2="30"/><line opacity="0.2" x1="297.72021686025226" x2="297.72021686025226" y1="0" y2="30"/><line opacity="0.2" x1="359.0841233712167" x2="359.0841233712167" y1="0" y2="30"/><line opacity="0.2" x1="433.08353680246216" x2="433.08353680246216" y1="0" y2="30"/><line opacity="0.2" x1="249.403754009919" x2="249.403754009919" y1="0" y2="30"/><line opacity="0.2" x1="269.806753184166" x2="269.806753184166" y1="0" y2="30"/><line opacity="0.2" x1="254.79584492781441" x2="254.79584492781441" y1="0" y2="30"/><line opacity="0.2" x1="250.52624518987852" x2="250.52624518987852" y1="0" y2="30"/><line opacity="0.2" x1="257.1200572216749" x2="257.1200572216749" y1="0" y2="30"/><line opacity="0.2" x1="230.4448945470294" x2="230.4448945470294" y1="0" y2="30"/><line opacity="0.2" x1="231.79791082705253" x2="231.79791082705253" y1="0" y2="30"/><line opacity="0.2" x1="278.0763345722503" x2="278.0763345722503" y1="0" y2="30"/><line opacity="0.2" x1="473.0917870353787" x2="473.0917870353787" y1="0" y2="30"/><line opacity="0.2" x1="279.70549124144503" x2="279.70549124144503" y1="0" y2="30"/><line opacity="0.2" x1="258.1726158237014" x2="258.1726158237014" y1="0" y2="30"/><line opacity="0.2" x1="168.4965454373421" x2="168.4965454373421" y1="0" y2="30"/><line opacity="0.2" x1="334.83756103147954" x2="334.83756103147954" y1="0" y2="30"/><line opacity="0.2" x1="319.98719983384296" x2="319.98719983384296" y1="0" y2="30"/><line opacity="0.2" x1="227.41464377367595" x2="227.41464377367595" y1="0" y2="30"/><line opacity="0.2" x1="320.6483735225901" x2="320.6483735225901" y1="0" y2="30"/><line opacity="0.2" x1="383.30273648769787" x2="383.30273648769787" y1="0" y2="30"/><line opacity="0.2" x1="597.0150846132506" x2="597.0150846132506" y1="0" y2="30"/><line opacity="0.2" x1="376.9149562307876" x2="376.9149562307876" y1="0" y2="30"/><line opacity="0.2" x1="348.9635600206601" x2="348.9635600206601" y1="0" y2="30"/><line opacity="0.2" x1="306.480627683568" x2="306.480627683568" y1="0" y2="30"/><line opacity="0.2" x1="248.58719085471645" x2="248.58719085471645" y1="0" y2="30"/><line opacity="0.2" x1="277.4692791164416" x2="277.4692791164416" y1="0" y2="30"/><line opacity="0.2" x1="426.1404463541593" x2="426.1404463541593" y1="0" y2="30"/><line opacity="0.2" x1="332.5876759985234" x2="332.5876759985234" y1="0" y2="30"/><line opacity="0.2" x1="292.92385244778467" x2="292.92385244778467" y1="0" y2="30"/><line opacity="0.2" x1="163.39411630710728" x2="163.39411630710728" y1="0" y2="30"/><line opacity="0.2" x1="377.2276952366568" x2="377.2276952366568" y1="0" y2="30"/><line opacity="0.2" x1="415.90251671491126" x2="415.90251671491126" y1="0" y2="30"/><line opacity="0.2" x1="165.80907010928811" x2="165.80907010928811" y1="0" y2="30"/><line opacity="0.2" x1="247.82484689608583" x2="247.82484689608583" y1="0" y2="30"/><line opacity="0.2" x1="375.0684999746353" x2="375.0684999746353" y1="0" y2="30"/><line opacity="0.2" x1="304.01305560535087" x2="304.01305560535087" y1="0" y2="30"/><line opacity="0.2" x1="427.6886829237188" x2="427.6886829237188" y1="0" y2="30"/><line opacity="0.2" x1="347.1945123615184" x2="347.1945123615184" y1="0" y2="30"/><line opacity="0.2" x1="412.70965420694915" x2="412.70965420694915" y1="0" y2="30"/><line opacity="0.2" x1="396.55346293286317" x2="396.55346293286317" y1="0" y2="30"/><line opacity="0.2" x1="356.9253604297686" x2="356.9253604297686" y1="0" y2="30"/><line opacity="0.2" x1="372.91090943941043" x2="372.91090943941043" y1="0" y2="30"/><line opacity="0.2" x1="322.2333552312959" x2="322.2333552312959" y1="0" y2="30"/><line opacity="0.2" x1="347.9027281904588" x2="347.9027281904588" y1="0" y2="30"/><line opacity="0.2" x1="409.63021556366175" x2="409.63021556366175" y1="0" y2="30"/><line opacity="0.2" x1="457.23512743192924" x2="457.23512743192924" y1="0" y2="30"/><line opacity="0.2" x1="271.3728460999092" x2="271.3728460999092" y1="0" y2="30"/><line opacity="0.2" x1="384.0215203834715" x2="384.0215203834715" y1="0" y2="30"/><line opacity="0.2" x1="171.26708403820427" x2="171.26708403820427" y1="0" y2="30"/><line opacity="0.2" x1="385.85838674790375" x2="385.85838674790375" y1="0" y2="30"/><line opacity="0.2" x1="400.4191256658711" x2="400.4191256658711" y1="0" y2="30"/><line opacity="0.2" x1="427.9108211948275" x2="427.9108211948275" y1="0" y2="30"/><line opacity="0.2" x1="246.15221479054892" x2="246.15221479054892" y1="0" y2="30"/><line opacity="0.2" x1="198.2358653759855" x2="198.2358653759855" y1="0" y2="30"/><line opacity="0.2" x1="247.7447676875376" x2="247.7447676875376" y1="0" y2="30"/><line opacity="0.2" x1="506.4963823767747" x2="506.4963823767747" y1="0" y2="30"/><line opacity="0.2" x1="416.2229254095981" x2="416.2229254095981" y1="0" y2="30"/><line opacity="0.2" x1="234.66042841050037" x2="234.66042841050037" y1="0" y2="30"/><line opacity="0.2" x1="147.68565932001803" x2="147.68565932001803" y1="0" y2="30"/><line opacity="0.2" x1="380.21416535174643" x2="380.21416535174643" y1="0" y2="30"/><line opacity="0.2" x1="440.8094067952167" x2="440.8094067952167" y1="0" y2="30"/><line opacity="0.2" x1="426.9840219742756" x2="426.9840219742756" y1="0" y2="30"/><line opacity="0.2" x1="249.33027230833383" x2="249.33027230833383" y1="0" y2="30"/><line opacity="0.2" x1="232.81813179618058" x2="232.81813179618058" y1="0" y2="30"/><line opacity="0.2" x1="503.04843464694466" x2="503.04843464694466" y1="0" y2="30"/><line opacity="0.2" x1="196.08424197548823" x2="196.08424197548823" y1="0" y2="30"/><line opacity="0.2" x1="394.9781649181507" x2="394.9781649181507" y1="0" y2="30"/><line opacity="0.2" x1="321.02567533000683" x2="321.02567533000683" y1="0" y2="30"/><line opacity="0.2" x1="389.6682987327603" x2="389.6682987327603" y1="0" y2="30"/><line opacity="0.2" x1="223.2981497278197" x2="223.2981497278197" y1="0" y2="30"/><line opacity="0.2" x1="335.06453257810415" x2="335.06453257810415" y1="0" y2="30"/><line opacity="0.2" x1="257.36920493514805" x2="257.36920493514805" y1="0" y2="30"/><line opacity="0.2" x1="281.7313364200595" x2="281.7313364200595" y1="0" y2="30"/><line opacity="0.2" x1="332.1154535807903" x2="332.1154535807903" y1="0" y2="30"/><line opacity="0.2" x1="205.39647665347002" x2="205.39647665347002" y1="0" y2="30"/><line opacity="0.2" x1="389.17278194841185" x2="389.17278194841185" y1="0" y2="30"/><line opacity="0.2" x1="409.97603833555604" x2="409.97603833555604" y1="0" y2="30"/><line opacity="0.2" x1="345.2085719175877" x2="345.2085719175877" y1="0" y2="30"/><line opacity="0.2" x1="267.27730121836373" x2="267.27730121836373" y1="0" y2="30"/><line opacity="0.2" x1="410.3277831344873" x2="410.3277831344873" y1="0" y2="30"/><line opacity="0.2" x1="420.6578841354183" x2="420.6578841354183" y1="0" y2="30"/><line opacity="0.2" x1="313.99897029889075" x2="313.99897029889075" y1="0" y2="30"/><line opacity="0.2" x1="278.9924519125179" x2="278.9924519125179" y1="0" y2="30"/><line opacity="0.2" x1="416.9790075588204" x2="416.9790075588204" y1="0" y2="30"/><line opacity="0.2" x1="453.72291722314446" x2="453.72291722314446" y1="0" y2="30"/><line opacity="0.2" x1="386.561409893799" x2="386.561409893799" y1="0" y2="30"/><line opacity="0.2" x1="318.10632424930765" x2="318.10632424930765" y1="0" y2="30"/><line opacity="0.2" x1="235.85604690156114" x2="235.85604690156114" y1="0" y2="30"/><line opacity="0.2" x1="283.56656710095217" x2="283.56656710095217" y1="0" y2="30"/><line opacity="0.2" x1="457.38224046660713" x2="457.38224046660713" y1="0" y2="30"/><line opacity="0.2" x1="305.67364386337505" x2="305.67364386337505" y1="0" y2="30"/><line opacity="0.2" x1="259.9134126294086" x2="259.9134126294086" y1="0" y2="30"/><line opacity="0.2" x1="288.06908071923334" x2="288.06908071923334" y1="0" y2="30"/><line opacity="0.2" x1="352.10400099229946" x2="352.10400099229946" y1="0" y2="30"/><line opacity="0.2" x1="416.8550275972914" x2="416.8550275972914" y1="0" y2="30"/><line opacity="0.2" x1="421.36860724422917" x2="421.36860724422917" y1="0" y2="30"/><line opacity="0.2" x1="319.0979010811522" x2="319.0979010811522" y1="0" y2="30"/><line opacity="0.2" x1="355.8710619468285" x2="355.8710619468285" y1="0" y2="30"/><line opacity="0.2" x1="256.39735472910996" x2="256.39735472910996" y1="0" y2="30"/><line opacity="0.2" x1="448.2046056058805" x2="448.2046056058805" y1="0" y2="30"/><line opacity="0.2" x1="303.0475424885614" x2="303.0475424885614" y1="0" y2="30"/><line opacity="0.2" x1="239.72071494950941" x2="239.72071494950941" y1="0" y2="30"/><line opacity="0.2" x1="325.6828758867114" x2="325.6828758867114" y1="0" y2="30"/><line opacity="0.2" x1="285.8050998792401" x2="285.8050998792401" y1="0" y2="30"/><line opacity="0.2" x1="339.26045055637525" x2="339.26045055637525" y1="0" y2="30"/><line opacity="0.2" x1="383.86146149447745" x2="383.86146149447745" y1="0" y2="30"/><line opacity="0.2" x1="323.6095432364987" x2="323.6095432364987" y1="0" y2="30"/><line opacity="0.2" x1="375.75101782948957" x2="375.75101782948957" y1="0" y2="30"/><line opacity="0.2" x1="189.94714507854843" x2="189.94714507854843" y1="0" y2="30"/><line opacity="0.2" x1="417.31904231900165" x2="417.31904231900165" y1="0" y2="30"/><line opacity="0.2" x1="415.8915435622796" x2="415.8915435622796" y1="0" y2="30"/><line opacity="0.2" x1="273.15414909554937" x2="273.15414909554937" y1="0" y2="30"/><line opacity="0.2" x1="398.2160957953036" x2="398.2160957953036" y1="0" y2="30"/><line opacity="0.2" x1="301.1753201145865" x2="301.1753201145865" y1="0" y2="30"/><line opacity="0.2" x1="460.32411073483655" x2="460.32411073483655" y1="0" y2="30"/><line opacity="0.2" x1="298.12782470775034" x2="298.12782470775034" y1="0" y2="30"/><line opacity="0.2" x1="336.1612065316385" x2="336.1612065316385" y1="0" y2="30"/><line opacity="0.2" x1="396.44236522854845" x2="396.44236522854845" y1="0" y2="30"/><line opacity="0.2" x1="245.20061459822074" x2="245.20061459822074" y1="0" y2="30"/><line opacity="0.2" x1="370.7140699771413" x2="370.7140699771413" y1="0" y2="30"/><line opacity="0.2" x1="361.9839611516275" x2="361.9839611516275" y1="0" y2="30"/><line opacity="0.2" x1="327.35771067497774" x2="327.35771067497774" y1="0" y2="30"/><line opacity="0.2" x1="212.83917257270562" x2="212.83917257270562" y1="0" y2="30"/><line opacity="0.2" x1="211.96212928273928" x2="211.96212928273928" y1="0" y2="30"/><line opacity="0.2" x1="345.3867214806776" x2="345.3867214806776" y1="0" y2="30"/><line opacity="0.2" x1="405.57555644233304" x2="405.57555644233304" y1="0" y2="30"/><line opacity="0.2" x1="216.92838759993532" x2="216.92838759993532" y1="0" y2="30"/><line opacity="0.2" x1="419.18268858672394" x2="419.18268858672394" y1="0" y2="30"/><line opacity="0.2" x1="415.6106156189312" x2="415.6106156189312" y1="0" y2="30"/><line opacity="0.2" x1="374.2833836219493" x2="374.2833836219493" y1="0" y2="30"/><line opacity="0.2" x1="176.4675018729754" x2="176.4675018729754" y1="0" y2="30"/><line opacity="0.2" x1="363.4473757517761" x2="363.4473757517761" y1="0" y2="30"/><line opacity="0.2" x1="423.4555433414529" x2="423.4555433414529" y1="0" y2="30"/><line opacity="0.2" x1="264.7800906096534" x2="264.7800906096534" y1="0" y2="30"/><line opacity="0.2" x1="380.7562146805233" x2="380.7562146805233" y1="0" y2="30"/><line opacity="0.2" x1="337.1486408866971" x2="337.1486408866971" y1="0" y2="30"/><line opacity="0.2" x1="447.3886789590149" x2="447.3886789590149" y1="0" y2="30"/><line opacity="0.2" x1="292.88070571030124" x2="292.88070571030124" y1="0" y2="30"/><line opacity="0.2" x1="298.3846416751318" x2="298.3846416751318" y1="0" y2="30"/><line opacity="0.2" x1="392.5863412366759" x2="392.5863412366759" y1="0" y2="30"/><line opacity="0.2" x1="378.68471438477025" x2="378.68471438477025" y1="0" y2="30"/><line opacity="0.2" x1="269.7611924796574" x2="269.7611924796574" y1="0" y2="30"/><line opacity="0.2" x1="338.04230790315285" x2="338.04230790315285" y1="0" y2="30"/><line opacity="0.2" x1="292.2732183965384" x2="292.2732183965384" y1="0" y2="30"/><line opacity="0.2" x1="181.18436280965147" x2="181.18436280965147" y1="0" y2="30"/><line opacity="0.2" x1="329.43696258858745" x2="329.43696258858745" y1="0" y2="30"/><line opacity="0.2" x1="390.64193973557747" x2="390.64193973557747" y1="0" y2="30"/><line opacity="0.2" x1="439.9480035994056" x2="439.9480035994056" y1="0" y2="30"/><line opacity="0.2" x1="321.7480422478268" x2="321.7480422478268" y1="0" y2="30"/><line opacity="0.2" x1="334.8525531695484" x2="334.8525531695484" y1="0" y2="30"/><line opacity="0.2" x1="276.4922846131505" x2="276.4922846131505" y1="0" y2="30"/><line opacity="0.2" x1="391.11556037872134" x2="391.11556037872134" y1="0" y2="30"/><line opacity="0.2" x1="285.55686026803625" x2="285.55686026803625" y1="0" y2="30"/><line opacity="0.2" x1="239.2498659544633" x2="239.2498659544633" y1="0" y2="30"/><line opacity="0.2" x1="290.71940399553466" x2="290.71940399553466" y1="0" y2="30"/><line opacity="0.2" x1="420.7507993307649" x2="420.7507993307649" y1="0" y2="30"/><line opacity="0.2" x1="502.1497436678867" x2="502.1497436678867" y1="0" y2="30"/><line opacity="0.2" x1="436.087974541206" x2="436.087974541206" y1="0" y2="30"/><line opacity="0.2" x1="286.4808008054423" x2="286.4808008054423" y1="0" y2="30"/><line opacity="0.2" x1="288.2967369377272" x2="288.2967369377272" y1="0" y2="30"/><line opacity="0.2" x1="366.02055902601285" x2="366.02055902601285" y1="0" y2="30"/><line opacity="0.2" x1="423.4904970346766" x2="423.4904970346766" y1="0" y2="30"/><line opacity="0.2" x1="413.62494492900197" x2="413.62494492900197" y1="0" y2="30"/><line opacity="0.2" x1="450.93077550478165" x2="450.93077550478165" y1="0" y2="30"/><line opacity="0.2" x1="278.81721576145884" x2="278.81721576145884" y1="0" y2="30"/><line opacity="0.2" x1="391.90933464508487" x2="391.90933464508487" y1="0" y2="30"/><line opacity="0.2" x1="464.4938853853662" x2="464.4938853853662" y1="0" y2="30"/><line opacity="0.2" x1="431.6101328856129" x2="431.6101328856129" y1="0" y2="30"/><line opacity="0.2" x1="311.380070133694" x2="311.380070133694" y1="0" y2="30"/><line opacity="0.2" x1="262.80738911794504" x2="262.80738911794504" y1="0" y2="30"/><line opacity="0.2" x1="378.5117797943914" x2="378.5117797943914" y1="0" y2="30"/><line opacity="0.2" x1="500.5629663927221" x2="500.5629663927221" y1="0" y2="30"/><line opacity="0.2" x1="445.5301584974656" x2="445.5301584974656" y1="0" y2="30"/><line opacity="0.2" x1="404.0624961098993" x2="404.0624961098993" y1="0" y2="30"/><line opacity="0.2" x1="293.8856439153485" x2="293.8856439153485" y1="0" y2="30"/><line opacity="0.2" x1="283.43688407532403" x2="283.43688407532403" y1="0" y2="30"/><line opacity="0.2" x1="406.24216207252795" x2="406.24216207252795" y1="0" y2="30"/><line opacity="0.2" x1="335.35052031789365" x2="335.35052031789365" y1="0" y2="30"/><line opacity="0.2" x1="324.5232384994649" x2="324.5232384994649" y1="0" y2="30"/><line opacity="0.2" x1="334.3490010407097" x2="334.3490010407097" y1="0" y2="30"/><line opacity="0.2" x1="321.8372813445128" x2="321.8372813445128" y1="0" y2="30"/><line opacity="0.2" x1="382.49750588381687" x2="382.49750588381687" y1="0" y2="30"/><line opacity="0.2" x1="336.0132945311212" x2="336.0132945311212" y1="0" y2="30"/><line opacity="0.2" x1="257.4299453618196" x2="257.4299453618196" y1="0" y2="30"/><line opacity="0.2" x1="273.57710428099466" x2="273.57710428099466" y1="0" y2="30"/><line opacity="0.2" x1="309.53315612085714" x2="309.53315612085714" y1="0" y2="30"/><line opacity="0.2" x1="432.6836559560326" x2="432.6836559560326" y1="0" y2="30"/><line opacity="0.2" x1="282.21833876936677" x2="282.21833876936677" y1="0" y2="30"/><line opacity="0.2" x1="389.5432253466875" x2="389.5432253466875" y1="0" y2="30"/><line opacity="0.2" x1="252.66171712801344" x2="252.66171712801344" y1="0" y2="30"/><line opacity="0.2" x1="396.9298456006861" x2="396.9298456006861" y1="0" y2="30"/><line opacity="0.2" x1="332.056575955769" x2="332.056575955769" y1="0" y2="30"/><line opacity="0.2" x1="368.0576611320005" x2="368.0576611320005" y1="0" y2="30"/><line opacity="0.2" x1="320.62951136568705" x2="320.62951136568705" y1="0" y2="30"/><line opacity="0.2" x1="474.98216379833127" x2="474.98216379833127" y1="0" y2="30"/><line opacity="0.2" x1="245.5742416016557" x2="245.5742416016557" y1="0" y2="30"/><line opacity="0.2" x1="449.2702254702536" x2="449.2702254702536" y1="0" y2="30"/><line opacity="0.2" x1="206.92228998692323" x2="206.92228998692323" y1="0" y2="30"/><line opacity="0.2" x1="308.60546048128765" x2="308.60546048128765" y1="0" y2="30"/><line opacity="0.2" x1="198.1847258153569" x2="198.1847258153569" y1="0" y2="30"/><line opacity="0.2" x1="222.87590319613273" x2="222.87590319613273" y1="0" y2="30"/><line opacity="0.2" x1="302.54497532992565" x2="302.54497532992565" y1="0" y2="30"/><line opacity="0.2" x1="230.96467942227073" x2="230.96467942227073" y1="0" y2="30"/><line opacity="0.2" x1="292.47024714916427" x2="292.47024714916427" y1="0" y2="30"/><line opacity="0.2" x1="321.19189188584323" x2="321.19189188584323" y1="0" y2="30"/><line opacity="0.2" x1="360.79482984542744" x2="360.79482984542744" y1="0" y2="30"/><line opacity="0.2" x1="332.75649213381996" x2="332.75649213381996" y1="0" y2="30"/><line opacity="0.2" x1="394.773267606227" x2="394.773267606227" y1="0" y2="30"/><line opacity="0.2" x1="324.3966681452564" x2="324.3966681452564" y1="0" y2="30"/><line opacity="0.2" x1="292.32665897557905" x2="292.32665897557905" y1="0" y2="30"/><line opacity="0.2" x1="468.62471506423805" x2="468.62471506423805" y1="0" y2="30"/><line opacity="0.2" x1="372.486924277446" x2="372.486924277446" y1="0" y2="30"/><line opacity="0.2" x1="292.59930289116335" x2="292.59930289116335" y1="0" y2="30"/><line opacity="0.2" x1="288.5580346680329" x2="288.5580346680329" y1="0" y2="30"/><line opacity="0.2" x1="418.16719952475" x2="418.16719952475" y1="0" y2="30"/><line opacity="0.2" x1="395.0402773674643" x2="395.0402773674643" y1="0" y2="30"/><line opacity="0.2" x1="411.7159475721667" x2="411.7159475721667" y1="0" y2="30"/><line opacity="0.2" x1="182.55166224263007" x2="182.55166224263007" y1="0" y2="30"/><line opacity="0.2" x1="421.49996374420397" x2="421.49996374420397" y1="0" y2="30"/><line opacity="0.2" x1="287.295559681889" x2="287.295559681889" y1="0" y2="30"/><line opacity="0.2" x1="396.5699454012849" x2="396.5699454012849" y1="0" y2="30"/><line opacity="0.2" x1="205.65383528253528" x2="205.65383528253528" y1="0" y2="30"/><line opacity="0.2" x1="394.91230485499705" x2="394.91230485499705" y1="0" y2="30"/><line opacity="0.2" x1="523.8338860713753" x2="523.8338860713753" y1="0" y2="30"/><line opacity="0.2" x1="487.91663039827296" x2="487.91663039827296" y1="0" y2="30"/><line opacity="0.2" x1="375.26343139555763" x2="375.26343139555763" y1="0" y2="30"/><line opacity="0.2" x1="295.56598210061486" x2="295.56598210061486" y1="0" y2="30"/><line opacity="0.2" x1="400.7624159338041" x2="400.7624159338041" y1="0" y2="30"/><line opacity="0.2" x1="359.3301196916455" x2="359.3301196916455" y1="0" y2="30"/><line opacity="0.2" x1="429.5630579594144" x2="429.5630579594144" y1="0" y2="30"/><line opacity="0.2" x1="251.65952070311306" x2="251.65952070311306" y1="0" y2="30"/><line opacity="0.2" x1="364.28979978276845" x2="364.28979978276845" y1="0" y2="30"/><line opacity="0.2" x1="290.966010538909" x2="290.966010538909" y1="0" y2="30"/><line opacity="0.2" x1="317.54181201351264" x2="317.54181201351264" y1="0" y2="30"/><line opacity="0.2" x1="325.0068150740474" x2="325.0068150740474" y1="0" y2="30"/><line opacity="0.2" x1="301.1588690534138" x2="301.1588690534138" y1="0" y2="30"/><line opacity="0.2" x1="260.30489871205" x2="260.30489871205" y1="0" y2="30"/><line opacity="0.2" x1="347.60340217549054" x2="347.60340217549054" y1="0" y2="30"/><line opacity="0.2" x1="290.0475070389482" x2="290.0475070389482" y1="0" y2="30"/><line opacity="0.2" x1="417.737960210666" x2="417.737960210666" y1="0" y2="30"/><line opacity="0.2" x1="379.2608091835431" x2="379.2608091835431" y1="0" y2="30"/><line opacity="0.2" x1="423.35034490811915" x2="423.35034490811915" y1="0" y2="30"/><line opacity="0.2" x1="249.69978020306962" x2="249.69978020306962" y1="0" y2="30"/><line opacity="0.2" x1="210.80119501913032" x2="210.80119501913032" y1="0" y2="30"/><line opacity="0.2" x1="219.3967104425118" x2="219.3967104425118" y1="0" y2="30"/><line opacity="0.2" x1="307.31712120784323" x2="307.31712120784323" y1="0" y2="30"/><line opacity="0.2" x1="426.0070043522262" x2="426.0070043522262" y1="0" y2="30"/><line opacity="0.2" x1="617.773275155873" x2="617.773275155873" y1="0" y2="30"/><line opacity="0.2" x1="128.6147259873234" x2="128.6147259873234" y1="0" y2="30"/><line opacity="0.2" x1="236.6623315493016" x2="236.6623315493016" y1="0" y2="30"/><line opacity="0.2" x1="319.08114702118166" x2="319.08114702118166" y1="0" y2="30"/><line opacity="0.2" x1="269.2464518584766" x2="269.2464518584766" y1="0" y2="30"/><line opacity="0.2" x1="443.09021777350523" x2="443.09021777350523" y1="0" y2="30"/><line opacity="0.2" x1="213.4701165356014" x2="213.4701165356014" y1="0" y2="30"/><line opacity="0.2" x1="445.34327921379105" x2="445.34327921379105" y1="0" y2="30"/><line opacity="0.2" x1="325.9096825568131" x2="325.9096825568131" y1="0" y2="30"/><line opacity="0.2" x1="207.52253534972849" x2="207.52253534972849" y1="0" y2="30"/><line opacity="0.2" x1="296.0426166560124" x2="296.0426166560124" y1="0" y2="30"/><line opacity="0.2" x1="302.30547284308335" x2="302.30547284308335" y1="0" y2="30"/><line opacity="0.2" x1="298.198670450951" x2="298.198670450951" y1="0" y2="30"/><line opacity="0.2" x1="537.6877714095117" x2="537.6877714095117" y1="0" y2="30"/><line opacity="0.2" x1="392.3123748451781" x2="392.3123748451781" y1="0" y2="30"/><line opacity="0.2" x1="278.56912806388175" x2="278.56912806388175" y1="0" y2="30"/><line opacity="0.2" x1="380.1023414378725" x2="380.1023414378725" y1="0" y2="30"/><line opacity="0.2" x1="350.32633094064397" x2="350.32633094064397" y1="0" y2="30"/><line opacity="0.2" x1="269.60149327659235" x2="269.60149327659235" y1="0" y2="30"/><line opacity="0.2" x1="409.0700584457498" x2="409.0700584457498" y1="0" y2="30"/><line opacity="0.2" x1="311.08442094354405" x2="311.08442094354405" y1="0" y2="30"/><line opacity="0.2" x1="185.23342611432827" x2="185.23342611432827" y1="0" y2="30"/><line opacity="0.2" x1="250.94830267117334" x2="250.94830267117334" y1="0" y2="30"/><line opacity="0.2" x1="254.79392918729332" x2="254.79392918729332" y1="0" y2="30"/><line opacity="0.2" x1="230.69905560612386" x2="230.69905560612386" y1="0" y2="30"/><line opacity="0.2" x1="261.8990575775669" x2="261.8990575775669" y1="0" y2="30"/><line opacity="0.2" x1="307.6061735391883" x2="307.6061735391883" y1="0" y2="30"/><line opacity="0.2" x1="369.5699468172771" x2="369.5699468172771" y1="0" y2="30"/><line opacity="0.2" x1="400.39487647393855" x2="400.39487647393855" y1="0" y2="30"/><line opacity="0.2" x1="471.83396880157545" x2="471.83396880157545" y1="0" y2="30"/><line opacity="0.2" x1="431.6129178637691" x2="431.6129178637691" y1="0" y2="30"/><line opacity="0.2" x1="274.4503245748112" x2="274.4503245748112" y1="0" y2="30"/><line opacity="0.2" x1="356.1002475811167" x2="356.1002475811167" y1="0" y2="30"/><line opacity="0.2" x1="299.6544077941535" x2="299.6544077941535" y1="0" y2="30"/><line opacity="0.2" x1="390.6367673583755" x2="390.6367673583755" y1="0" y2="30"/><line opacity="0.2" x1="333.9323448061869" x2="333.9323448061869" y1="0" y2="30"/><line opacity="0.2" x1="317.30543180097123" x2="317.30543180097123" y1="0" y2="30"/><line opacity="0.2" x1="302.4230654593853" x2="302.4230654593853" y1="0" y2="30"/><line opacity="0.2" x1="368.8107110679592" x2="368.8107110679592" y1="0" y2="30"/><line opacity="0.2" x1="303.0096223126085" x2="303.0096223126085" y1="0" y2="30"/><line opacity="0.2" x1="293.6532128907401" x2="293.6532128907401" y1="0" y2="30"/><line opacity="0.2" x1="190.06269950631443" x2="190.06269950631443" y1="0" y2="30"/><line opacity="0.2" x1="342.66577512756703" x2="342.66577512756703" y1="0" y2="30"/><line opacity="0.2" x1="267.5976818582139" x2="267.5976818582139" y1="0" y2="30"/><line opacity="0.2" x1="311.9189797263359" x2="311.9189797263359" y1="0" y2="30"/><line opacity="0.2" x1="279.0164623343173" x2="279.0164623343173" y1="0" y2="30"/><line opacity="0.2" x1="282.14322657610774" x2="282.14322657610774" y1="0" y2="30"/><line opacity="0.2" x1="310.4909339099213" x2="310.4909339099213" y1="0" y2="30"/><line opacity="0.2" x1="336.5111538117585" x2="336.5111538117585" y1="0" y2="30"/><line opacity="0.2" x1="409.3204830107323" x2="409.3204830107323" y1="0" y2="30"/><line opacity="0.2" x1="184.26897903148142" x2="184.26897903148142" y1="0" y2="30"/><line opacity="0.2" x1="395.6599431731136" x2="395.6599431731136" y1="0" y2="30"/><line opacity="0.2" x1="320.98369101195055" x2="320.98369101195055" y1="0" y2="30"/><line opacity="0.2" x1="355.20777054936366" x2="355.20777054936366" y1="0" y2="30"/><line opacity="0.2" x1="325.5779523642905" x2="325.5779523642905" y1="0" y2="30"/><line opacity="0.2" x1="382.16219911717735" x2="382.16219911717735" y1="0" y2="30"/><line opacity="0.2" x1="323.3570907380977" x2="323.3570907380977" y1="0" y2="30"/><line opacity="0.2" x1="332.2323623859178" x2="332.2323623859178" y1="0" y2="30"/><line opacity="0.2" x1="410.65589462381666" x2="410.65589462381666" y1="0" y2="30"/><line opacity="0.2" x1="197.86081639552833" x2="197.86081639552833" y1="0" y2="30"/><line opacity="0.2" x1="327.55951061280985" x2="327.55951061280985" y1="0" y2="30"/><line opacity="0.2" x1="255.6789417723197" x2="255.6789417723197" y1="0" y2="30"/><line opacity="0.2" x1="343.649527694542" x2="343.649527694542" y1="0" y2="30"/><line opacity="0.2" x1="268.09532276176253" x2="268.09532276176253" y1="0" y2="30"/><line opacity="0.2" x1="293.16753081366795" x2="293.16753081366795" y1="0" y2="30"/><line opacity="0.2" x1="369.9747860222228" x2="369.9747860222228" y1="0" y2="30"/><line opacity="0.2" x1="270.6269293514496" x2="270.6269293514496" y1="0" y2="30"/><line opacity="0.2" x1="190.65378588777455" x2="190.65378588777455" y1="0" y2="30"/><line opacity="0.2" x1="354.323495912261" x2="354.323495912261" y1="0" y2="30"/><line opacity="0.2" x1="298.95555676977483" x2="298.95555676977483" y1="0" y2="30"/><line opacity="0.2" x1="359.5628382418441" x2="359.5628382418441" y1="0" y2="30"/><line opacity="0.2" x1="362.6828341916136" x2="362.6828341916136" y1="0" y2="30"/><line opacity="0.2" x1="480.0444441899698" x2="480.0444441899698" y1="0" y2="30"/><line opacity="0.2" x1="252.5376379391947" x2="252.5376379391947" y1="0" y2="30"/><line opacity="0.2" x1="235.5704745856866" x2="235.5704745856866" y1="0" y2="30"/><line opacity="0.2" x1="438.9219483593158" x2="438.9219483593158" y1="0" y2="30"/><line opacity="0.2" x1="285.4663762326082" x2="285.4663762326082" y1="0" y2="30"/><line opacity="0.2" x1="357.42272048867903" x2="357.42272048867903" y1="0" y2="30"/><line opacity="0.2" x1="225.8441425990346" x2="225.8441425990346" y1="0" y2="30"/><line opacity="0.2" x1="332.5134255604952" x2="332.5134255604952" y1="0" y2="30"/><line opacity="0.2" x1="273.2982293606983" x2="273.2982293606983" y1="0" y2="30"/><line opacity="0.2" x1="296.9431665634356" x2="296.9431665634356" y1="0" y2="30"/><line opacity="0.2" x1="401.44481776699143" x2="401.44481776699143" y1="0" y2="30"/><line opacity="0.2" x1="269.8890149096829" x2="269.8890149096829" y1="0" y2="30"/><line opacity="0.2" x1="362.75631972656254" x2="362.75631972656254" y1="0" y2="30"/><line opacity="0.2" x1="279.45147665622125" x2="279.45147665622125" y1="0" y2="30"/><line opacity="0.2" x1="423.76328032430274" x2="423.76328032430274" y1="0" y2="30"/><line opacity="0.2" x1="26.45994162177982" x2="26.45994162177982" y1="0" y2="30"/><line opacity="0.2" x1="368.86592813586395" x2="368.86592813586395" y1="0" y2="30"/><line opacity="0.2" x1="326.2790641651969" x2="326.2790641651969" y1="0" y2="30"/><line opacity="0.2" x1="263.2123011343944" x2="263.2123011343944" y1="0" y2="30"/><line opacity="0.2" x1="300.94171282967733" x2="300.94171282967733" y1="0" y2="30"/><line opacity="0.2" x1="396.42990469611846" x2="396.42990469611846" y1="0" y2="30"/><line opacity="0.2" x1="401.73785115287336" x2="401.73785115287336" y1="0" y2="30"/><line opacity="0.2" x1="378.0208455656421" x2="378.0208455656421" y1="0" y2="30"/><line opacity="0.2" x1="436.61474059686674" x2="436.61474059686674" y1="0" y2="30"/><line opacity="0.2" x1="401.11680536946596" x2="401.11680536946596" y1="0" y2="30"/><line opacity="0.2" x1="160.10415700828793" x2="160.10415700828793" y1="0" y2="30"/><line opacity="0.2" x1="383.19730870536034" x2="383.19730870536034" y1="0" y2="30"/><line opacity="0.2" x1="340.1281330060353" x2="340.1281330060353" y1="0" y2="30"/><line opacity="0.2" x1="315.1239560863588" x2="315.1239560863588" y1="0" y2="30"/><line opacity="0.2" x1="456.19428206222807" x2="456.19428206222807" y1="0" y2="30"/><line opacity="0.2" x1="304.6184997886685" x2="304.6184997886685" y1="0" y2="30"/><line opacity="0.2" x1="277.9894136628088" x2="277.9894136628088" y1="0" y2="30"/><line opacity="0.2" x1="309.91605676656553" x2="309.91605676656553" y1="0" y2="30"/><line opacity="0.2" x1="290.4286532041782" x2="290.4286532041782" y1="0" y2="30"/><line opacity="0.2" x1="283.88614082047667" x2="283.88614082047667" y1="0" y2="30"/><line opacity="0.2" x1="342.0763788351225" x2="342.0763788351225" y1="0" y2="30"/><line opacity="0.2" x1="443.6737446928932" x2="443.6737446928932" y1="0" y2="30"/><line opacity="0.2" x1="487.81038512198666" x2="487.81038512198666" y1="0" y2="30"/><line opacity="0.2" x1="371.76606065360323" x2="371.76606065360323" y1="0" y2="30"/><line opacity="0.2" x1="275.80216382153793" x2="275.80216382153793" y1="0" y2="30"/><line opacity="0.2" x1="225.317670251848" x2="225.317670251848" y1="0" y2="30"/><line opacity="0.2" x1="494.06082534661925" x2="494.06082534661925" y1="0" y2="30"/><line opacity="0.2" x1="356.8697315078664" x2="356.8697315078664" y1="0" y2="30"/><line opacity="0.2" x1="460.71461938922175" x2="460.71461938922175" y1="0" y2="30"/><line opacity="0.2" x1="537.8979529938152" x2="537.8979529938152" y1="0" y2="30"/><line opacity="0.2" x1="354.69211072989924" x2="354.69211072989924" y1="0" y2="30"/><line opacity="0.2" x1="393.1249749904468" x2="393.1249749904468" y1="0" y2="30"/><line opacity="0.2" x1="270.74903018414886" x2="270.74903018414886" y1="0" y2="30"/><line opacity="0.2" x1="340.59161968267057" x2="340.59161968267057" y1="0" y2="30"/><line opacity="0.2" x1="317.9758644373877" x2="317.9758644373877" y1="0" y2="30"/><line opacity="0.2" x1="143.60663458285282" x2="143.60663458285282" y1="0" y2="30"/><line opacity="0.2" x1="504.142673469619" x2="504.142673469619" y1="0" y2="30"/><line opacity="0.2" x1="322.96740033946065" x2="322.96740033946065" y1="0" y2="30"/><line opacity="0.2" x1="50.082236309471654" x2="50.082236309471654" y1="0" y2="30"/><line opacity="0.2" x1="325.80588349551476" x2="325.80588349551476" y1="0" y2="30"/><line opacity="0.2" x1="325.0570163486937" x2="325.0570163486937" y1="0" y2="30"/><line opacity="0.2" x1="375.7250251057492" x2="375.7250251057492" y1="0" y2="30"/><line opacity="0.2" x1="375.75868815347076" x2="375.75868815347076" y1="0" y2="30"/><line opacity="0.2" x1="276.95000814754957" x2="276.95000814754957" y1="0" y2="30"/><line opacity="0.2" x1="446.188593861966" x2="446.188593861966" y1="0" y2="30"/><line opacity="0.2" x1="457.1036033997808" x2="457.1036033997808" y1="0" y2="30"/><line opacity="0.2" x1="323.4205322161923" x2="323.4205322161923" y1="0" y2="30"/><line opacity="0.2" x1="433.20935617677617" x2="433.20935617677617" y1="0" y2="30"/><line opacity="0.2" x1="310.8625086785224" x2="310.8625086785224" y1="0" y2="30"/><line opacity="0.2" x1="407.13132601547045" x2="407.13132601547045" y1="0" y2="30"/><line opacity="0.2" x1="233.22358974745393" x2="233.22358974745393" y1="0" y2="30"/><line opacity="0.2" x1="423.6980315750143" x2="423.6980315750143" y1="0" y2="30"/><line opacity="0.2" x1="350.9641175611492" x2="350.9641175611492" y1="0" y2="30"/><line opacity="0.2" x1="309.25925395151205" x2="309.25925395151205" y1="0" y2="30"/><line opacity="0.2" x1="142.92757491783033" x2="142.92757491783033" y1="0" y2="30"/><line opacity="0.2" x1="307.2563739341929" x2="307.2563739341929" y1="0" y2="30"/><line opacity="0.2" x1="359.9050899663839" x2="359.9050899663839" y1="0" y2="30"/><line opacity="0.2" x1="425.3919348290933" x2="425.3919348290933" y1="0" y2="30"/><line opacity="0.2" x1="408.864368010088" x2="408.864368010088" y1="0" y2="30"/><line opacity="0.2" x1="369.74329209523864" x2="369.74329209523864" y1="0" y2="30"/><line opacity="0.2" x1="191.3430307998441" x2="191.3430307998441" y1="0" y2="30"/><line opacity="0.2" x1="277.3717682843057" x2="277.3717682843057" y1="0" y2="30"/><line opacity="0.2" x1="359.580619665851" x2="359.580619665851" y1="0" y2="30"/><line opacity="0.2" x1="315.85590275597895" x2="315.85590275597895" y1="0" y2="30"/><line opacity="0.2" x1="240.64469624841672" x2="240.64469624841672" y1="0" y2="30"/><line opacity="0.2" x1="322.29679435741036" x2="322.29679435741036" y1="0" y2="30"/><line opacity="0.2" x1="198.28396269360712" x2="198.28396269360712" y1="0" y2="30"/><line opacity="0.2" x1="279.85646476826" x2="279.85646476826" y1="0" y2="30"/><line opacity="0.2" x1="358.71552451924805" x2="358.71552451924805" y1="0" y2="30"/><line opacity="0.2" x1="317.0982588324296" x2="317.0982588324296" y1="0" y2="30"/><line opacity="0.2" x1="226.47131933372927" x2="226.47131933372927" y1="0" y2="30"/><line opacity="0.2" x1="291.4173969625497" x2="291.4173969625497" y1="0" y2="30"/><line opacity="0.2" x1="379.37732963001883" x2="379.37732963001883" y1="0" y2="30"/><line opacity="0.2" x1="213.35289535082566" x2="213.35289535082566" y1="0" y2="30"/><line opacity="0.2" x1="260.4379230490978" x2="260.4379230490978" y1="0" y2="30"/><line opacity="0.2" x1="101.1970026222715" x2="101.1970026222715" y1="0" y2="30"/><line opacity="0.2" x1="481.2974411471587" x2="481.2974411471587" y1="0" y2="30"/><line opacity="0.2" x1="216.8403490455112" x2="216.8403490455112" y1="0" y2="30"/><line opacity="0.2" x1="204.40277140970812" x2="204.40277140970812" y1="0" y2="30"/><line opacity="0.2" x1="460.0742913734308" x2="460.0742913734308" y1="0" y2="30"/><line opacity="0.2" x1="408.6897511383268" x2="408.6897511383268" y1="0" y2="30"/><line opacity="0.2" x1="416.47706348832224" x2="416.47706348832224" y1="0" y2="30"/><line opacity="0.2" x1="360.095646835843" x2="360.095646835843" y1="0" y2="30"/><line opacity="0.2" x1="384.440000306267" x2="384.440000306267" y1="0" y2="30"/><line opacity="0.2" x1="267.9100852187019" x2="267.9100852187019" y1="0" y2="30"/><line opacity="0.2" x1="410.2660761029123" x2="410.2660761029123" y1="0" y2="30"/><line opacity="0.2" x1="305.5829088053873" x2="305.5829088053873" y1="0" y2="30"/><line opacity="0.2" x1="230.80725399445788" x2="230.80725399445788" y1="0" y2="30"/><line opacity="0.2" x1="370.17803687798465" x2="370.17803687798465" y1="0" y2="30"/><line opacity="0.2" x1="249.30714391403228" x2="249.30714391403228" y1="0" y2="30"/><line opacity="0.2" x1="275.42594995331416" x2="275.42594995331416" y1="0" y2="30"/><line opacity="0.2" x1="263.0805364544971" x2="263.0805364544971" y1="0" y2="30"/><line opacity="0.2" x1="192.59298353624342" x2="192.59298353624342" y1="0" y2="30"/><line opacity="0.2" x1="358.37890084182783" x2="358.37890084182783" y1="0" y2="30"/><line opacity="0.2" x1="212.14278292910464" x2="212.14278292910464" y1="0" y2="30"/><line opacity="0.2" x1="298.13676050729276" x2="298.13676050729276" y1="0" y2="30"/><line opacity="0.2" x1="412.2550828786338" x2="412.2550828786338" y1="0" y2="30"/><line opacity="0.2" x1="362.2618899324161" x2="362.2618899324161" y1="0" y2="30"/><line opacity="0.2" x1="150.12648496368672" x2="150.12648496368672" y1="0" y2="30"/><line opacity="0.2" x1="297.62519655854464" x2="297.62519655854464" y1="0" y2="30"/><line opacity="0.2" x1="388.4322858458694" x2="388.4322858458694" y1="0" y2="30"/><line opacity="0.2" x1="297.11404636721954" x2="297.11404636721954" y1="0" y2="30"/><line opacity="0.2" x1="493.9168056276663" x2="493.9168056276663" y1="0" y2="30"/><line opacity="0.2" x1="285.0915560777013" x2="285.0915560777013" y1="0" y2="30"/><line opacity="0.2" x1="406.35468018419743" x2="406.35468018419743" y1="0" y2="30"/><line opacity="0.2" x1="259.43985586526287" x2="259.43985586526287" y1="0" y2="30"/><line opacity="0.2" x1="330.3496371541091" x2="330.3496371541091" y1="0" y2="30"/><line opacity="0.2" x1="290.97540213873305" x2="290.97540213873305" y1="0" y2="30"/><line opacity="0.2" x1="313.40230067134326" x2="313.40230067134326" y1="0" y2="30"/><line opacity="0.2" x1="485.574085522116" x2="485.574085522116" y1="0" y2="30"/><line opacity="0.2" x1="225.8913024088278" x2="225.8913024088278" y1="0" y2="30"/><line opacity="0.2" x1="330.1071496929437" x2="330.1071496929437" y1="0" y2="30"/><line opacity="0.2" x1="321.3974931701064" x2="321.3974931701064" y1="0" y2="30"/><line opacity="0.2" x1="125.30331849421145" x2="125.30331849421145" y1="0" y2="30"/><line opacity="0.2" x1="334.8593676382957" x2="334.8593676382957" y1="0" y2="30"/><line opacity="0.2" x1="366.36912506144836" x2="366.36912506144836" y1="0" y2="30"/><line opacity="0.2" x1="229.277330858926" x2="229.277330858926" y1="0" y2="30"/><line opacity="0.2" x1="475.0353071373511" x2="475.0353071373511" y1="0" y2="30"/><line opacity="0.2" x1="269.5800804932872" x2="269.5800804932872" y1="0" y2="30"/><line opacity="0.2" x1="231.0034554338412" x2="231.0034554338412" y1="0" y2="30"/><line opacity="0.2" x1="279.6336302192137" x2="279.6336302192137" y1="0" y2="30"/><line opacity="0.2" x1="271.644424898585" x2="271.644424898585" y1="0" y2="30"/><line opacity="0.2" x1="308.1852558524175" x2="308.1852558524175" y1="0" y2="30"/><line opacity="0.2" x1="372.40510033216367" x2="372.40510033216367" y1="0" y2="30"/><line opacity="0.2" x1="335.5264682461368" x2="335.5264682461368" y1="0" y2="30"/><line opacity="0.2" x1="330.8186459858653" x2="330.8186459858653" y1="0" y2="30"/><line opacity="0.2" x1="284.95333673842777" x2="284.95333673842777" y1="0" y2="30"/><line opacity="0.2" x1="392.21449687619446" x2="392.21449687619446" y1="0" y2="30"/><line opacity="0.2" x1="285.955321737423" x2="285.955321737423" y1="0" y2="30"/><line opacity="0.2" x1="335.96996810496415" x2="335.96996810496415" y1="0" y2="30"/><line opacity="0.2" x1="368.08699511039896" x2="368.08699511039896" y1="0" y2="30"/><line opacity="0.2" x1="305.7513404663912" x2="305.7513404663912" y1="0" y2="30"/><line opacity="0.2" x1="229.87073761769435" x2="229.87073761769435" y1="0" y2="30"/><line opacity="0.2" x1="362.4919841697332" x2="362.4919841697332" y1="0" y2="30"/><line opacity="0.2" x1="304.78830084617" x2="304.78830084617" y1="0" y2="30"/><line opacity="0.2" x1="358.55002725382656" x2="358.55002725382656" y1="0" y2="30"/><line opacity="0.2" x1="271.9891128748168" x2="271.9891128748168" y1="0" y2="30"/><line opacity="0.2" x1="279.61921109673204" x2="279.61921109673204" y1="0" y2="30"/><line opacity="0.2" x1="388.77078398037565" x2="388.77078398037565" y1="0" y2="30"/><line opacity="0.2" x1="309.19496957893324" x2="309.19496957893324" y1="0" y2="30"/><line opacity="0.2" x1="456.59527268340327" x2="456.59527268340327" y1="0" y2="30"/><line opacity="0.2" x1="314.69257422157835" x2="314.69257422157835" y1="0" y2="30"/><line opacity="0.2" x1="376.0370310843356" x2="376.0370310843356" y1="0" y2="30"/><line opacity="0.2" x1="365.12267696326103" x2="365.12267696326103" y1="0" y2="30"/><line opacity="0.2" x1="288.60125975771905" x2="288.60125975771905" y1="0" y2="30"/><line opacity="0.2" x1="212.00633438567695" x2="212.00633438567695" y1="0" y2="30"/><line opacity="0.2" x1="391.77085871387044" x2="391.77085871387044" y1="0" y2="30"/><line opacity="0.2" x1="239.40646869700822" x2="239.40646869700822" y1="0" y2="30"/><line opacity="0.2" x1="328.667803184152" x2="328.667803184152" y1="0" y2="30"/><line opacity="0.2" x1="222.91368420817938" x2="222.91368420817938" y1="0" y2="30"/><line opacity="0.2" x1="372.9504513173259" x2="372.9504513173259" y1="0" y2="30"/><line opacity="0.2" x1="435.4771478099102" x2="435.4771478099102" y1="0" y2="30"/><line opacity="0.2" x1="532.2146103336486" x2="532.2146103336486" y1="0" y2="30"/><line opacity="0.2" x1="276.3048140376893" x2="276.3048140376893" y1="0" y2="30"/><line opacity="0.2" x1="309.756761128665" x2="309.756761128665" y1="0" y2="30"/><line opacity="0.2" x1="238.63045565314627" x2="238.63045565314627" y1="0" y2="30"/><line opacity="0.2" x1="330.2686224208535" x2="330.2686224208535" y1="0" y2="30"/><line opacity="0.2" x1="280.22461614019437" x2="280.22461614019437" y1="0" y2="30"/><line opacity="0.2" x1="271.33115043531984" x2="271.33115043531984" y1="0" y2="30"/><line opacity="0.2" x1="330.97215939543895" x2="330.97215939543895" y1="0" y2="30"/><line opacity="0.2" x1="336.5288603263551" x2="336.5288603263551" y1="0" y2="30"/><line opacity="0.2" x1="423.9751381640608" x2="423.9751381640608" y1="0" y2="30"/><line opacity="0.2" x1="304.6104712486365" x2="304.6104712486365" y1="0" y2="30"/><line opacity="0.2" x1="368.4579680572861" x2="368.4579680572861" y1="0" y2="30"/><line opacity="0.2" x1="315.09167235153114" x2="315.09167235153114" y1="0" y2="30"/><line opacity="0.2" x1="272.9209420004248" x2="272.9209420004248" y1="0" y2="30"/><line opacity="0.2" x1="449.3016880657678" x2="449.3016880657678" y1="0" y2="30"/><line opacity="0.2" x1="220.92977577131376" x2="220.92977577131376" y1="0" y2="30"/><line opacity="0.2" x1="400.0116667071867" x2="400.0116667071867" y1="0" y2="30"/><line opacity="0.2" x1="361.8625031661804" x2="361.8625031661804" y1="0" y2="30"/><line opacity="0.2" x1="187.55856486291697" x2="187.55856486291697" y1="0" y2="30"/><line opacity="0.2" x1="396.3214914850712" x2="396.3214914850712" y1="0" y2="30"/><line opacity="0.2" x1="304.1307044321986" x2="304.1307044321986" y1="0" y2="30"/><line opacity="0.2" x1="168.15750314168838" x2="168.15750314168838" y1="0" y2="30"/><line opacity="0.2" x1="262.50465267043256" x2="262.50465267043256" y1="0" y2="30"/><line opacity="0.2" x1="223.22190628159439" x2="223.22190628159439" y1="0" y2="30"/><line opacity="0.2" x1="333.58523421307154" x2="333.58523421307154" y1="0" y2="30"/><line opacity="0.2" x1="374.30929330035946" x2="374.30929330035946" y1="0" y2="30"/><line opacity="0.2" x1="352.4731662292433" x2="352.4731662292433" y1="0" y2="30"/><line opacity="0.2" x1="386.881872375579" x2="386.881872375579" y1="0" y2="30"/><line opacity="0.2" x1="304.67466460059734" x2="304.67466460059734" y1="0" y2="30"/><line opacity="0.2" x1="430.4770450555403" x2="430.4770450555403" y1="0" y2="30"/><line opacity="0.2" x1="369.8036028025713" x2="369.8036028025713" y1="0" y2="30"/><line opacity="0.2" x1="246.8572642358969" x2="246.8572642358969" y1="0" y2="30"/><line opacity="0.2" x1="332.96622982847157" x2="332.96622982847157" y1="0" y2="30"/><line opacity="0.2" x1="438.5245830373146" x2="438.5245830373146" y1="0" y2="30"/><line opacity="0.2" x1="269.4842255558184" x2="269.4842255558184" y1="0" y2="30"/><line opacity="0.2" x1="352.8692240159035" x2="352.8692240159035" y1="0" y2="30"/><line opacity="0.2" x1="342.40162739001653" x2="342.40162739001653" y1="0" y2="30"/><line opacity="0.2" x1="236.82348926861292" x2="236.82348926861292" y1="0" y2="30"/><line opacity="0.2" x1="287.76728670347643" x2="287.76728670347643" y1="0" y2="30"/><line opacity="0.2" x1="310.5129238952501" x2="310.5129238952501" y1="0" y2="30"/><line opacity="0.2" x1="290.8188350268509" x2="290.8188350268509" y1="0" y2="30"/><line opacity="0.2" x1="339.98474955665483" x2="339.98474955665483" y1="0" y2="30"/><line opacity="0.2" x1="302.48241544532164" x2="302.48241544532164" y1="0" y2="30"/><line opacity="0.2" x1="350.05567650230614" x2="350.05567650230614" y1="0" y2="30"/><line opacity="0.2" x1="415.7748691764325" x2="415.7748691764325" y1="0" y2="30"/><line opacity="0.2" x1="318.6610442536012" x2="318.6610442536012" y1="0" y2="30"/><line opacity="0.2" x1="148.88106087358094" x2="148.88106087358094" y1="0" y2="30"/><line opacity="0.2" x1="360.81693077944124" x2="360.81693077944124" y1="0" y2="30"/><line opacity="0.2" x1="343.6400862822528" x2="343.6400862822528" y1="0" y2="30"/><line opacity="0.2" x1="243.37075180101465" x2="243.37075180101465" y1="0" y2="30"/><line opacity="0.2" x1="260.4327197825634" x2="260.4327197825634" y1="0" y2="30"/><line opacity="0.2" x1="385.1597843722323" x2="385.1597843722323" y1="0" y2="30"/><line opacity="0.2" x1="269.94669658515164" x2="269.94669658515164" y1="0" y2="30"/><line opacity="0.2" x1="197.0620941478457" x2="197.0620941478457" y1="0" y2="30"/><line opacity="0.2" x1="207.35576396414" x2="207.35576396414" y1="0" y2="30"/><line opacity="0.2" x1="341.43761302929227" x2="341.43761302929227" y1="0" y2="30"/><line opacity="0.2" x1="239.47528239453152" x2="239.47528239453152" y1="0" y2="30"/><line opacity="0.2" x1="446.274398918845" x2="446.274398918845" y1="0" y2="30"/><line opacity="0.2" x1="163.73323690592596" x2="163.73323690592596" y1="0" y2="30"/><line opacity="0.2" x1="247.8758226350048" x2="247.8758226350048" y1="0" y2="30"/><line opacity="0.2" x1="325.52986245617" x2="325.52986245617" y1="0" y2="30"/><line opacity="0.2" x1="297.4445929595922" x2="297.4445929595922" y1="0" y2="30"/><line opacity="0.2" x1="209.909430041273" x2="209.909430041273" y1="0" y2="30"/><line opacity="0.2" x1="288.41006928228296" x2="288.41006928228296" y1="0" y2="30"/><line opacity="0.2" x1="184.98631829056077" x2="184.98631829056077" y1="0" y2="30"/><line opacity="0.2" x1="286.3548081274362" x2="286.3548081274362" y1="0" y2="30"/><line opacity="0.2" x1="247.95659666311207" x2="247.95659666311207" y1="0" y2="30"/><line opacity="0.2" x1="361.7625994217809" x2="361.7625994217809" y1="0" y2="30"/><line opacity="0.2" x1="241.54744025364846" x2="241.54744025364846" y1="0" y2="30"/><line opacity="0.2" x1="169.02908226150282" x2="169.02908226150282" y1="0" y2="30"/><line opacity="0.2" x1="322.3368661001942" x2="322.3368661001942" y1="0" y2="30"/><line opacity="0.2" x1="308.4894853670351" x2="308.4894853670351" y1="0" y2="30"/><line opacity="0.2" x1="379.48502922400036" x2="379.48502922400036" y1="0" y2="30"/><line opacity="0.2" x1="330.91492376453095" x2="330.91492376453095" y1="0" y2="30"/><line opacity="0.2" x1="341.9842756910723" x2="341.9842756910723" y1="0" y2="30"/><line opacity="0.2" x1="361.3761444338705" x2="361.3761444338705" y1="0" y2="30"/><line opacity="0.2" x1="337.3763755421649" x2="337.3763755421649" y1="0" y2="30"/><line opacity="0.2" x1="369.6675842475847" x2="369.6675842475847" y1="0" y2="30"/><line opacity="0.2" x1="367.28666144210837" x2="367.28666144210837" y1="0" y2="30"/><line opacity="0.2" x1="415.4204400191619" x2="415.4204400191619" y1="0" y2="30"/><line opacity="0.2" x1="283.4183716689812" x2="283.4183716689812" y1="0" y2="30"/><line opacity="0.2" x1="322.87295987802605" x2="322.87295987802605" y1="0" y2="30"/><line opacity="0.2" x1="334.90330833813243" x2="334.90330833813243" y1="0" y2="30"/><line opacity="0.2" x1="298.82096980701243" x2="298.82096980701243" y1="0" y2="30"/><line opacity="0.2" x1="291.09480347566347" x2="291.09480347566347" y1="0" y2="30"/><line opacity="0.2" x1="386.3871975561278" x2="386.3871975561278" y1="0" y2="30"/><line opacity="0.2" x1="517.4382500213246" x2="517.4382500213246" y1="0" y2="30"/><line opacity="0.2" x1="440.1432317687016" x2="440.1432317687016" y1="0" y2="30"/><line opacity="0.2" x1="387.7362328853376" x2="387.7362328853376" y1="0" y2="30"/><line opacity="0.2" x1="530.6050036446829" x2="530.6050036446829" y1="0" y2="30"/><line opacity="0.2" x1="363.1270335515597" x2="363.1270335515597" y1="0" y2="30"/><line opacity="0.2" x1="278.0265726090749" x2="278.0265726090749" y1="0" y2="30"/><line opacity="0.2" x1="304.4925242367726" x2="304.4925242367726" y1="0" y2="30"/><line opacity="0.2" x1="337.9051435525645" x2="337.9051435525645" y1="0" y2="30"/><line opacity="0.2" x1="448.48747862284137" x2="448.48747862284137" y1="0" y2="30"/><line opacity="0.2" x1="496.5428495917458" x2="496.5428495917458" y1="0" y2="30"/><line opacity="0.2" x1="267.2980375059807" x2="267.2980375059807" y1="0" y2="30"/><line opacity="0.2" x1="377.2683462950009" x2="377.2683462950009" y1="0" y2="30"/><line opacity="0.2" x1="385.6401464097853" x2="385.6401464097853" y1="0" y2="30"/><line opacity="0.2" x1="358.79702087794305" x2="358.79702087794305" y1="0" y2="30"/><line opacity="0.2" x1="333.8902897029051" x2="333.8902897029051" y1="0" y2="30"/><line opacity="0.2" x1="243.9035612711006" x2="243.9035612711006" y1="0" y2="30"/><line opacity="0.2" x1="274.22575218022223" x2="274.22575218022223" y1="0" y2="30"/><line opacity="0.2" x1="299.6977639732619" x2="299.6977639732619" y1="0" y2="30"/><line opacity="0.2" x1="475.63955813614876" x2="475.63955813614876" y1="0" y2="30"/><line opacity="0.2" x1="379.0889670769514" x2="379.0889670769514" y1="0" y2="30"/><line opacity="0.2" x1="381.20343918737393" x2="381.20343918737393" y1="0" y2="30"/><line opacity="0.2" x1="287.7219288417459" x2="287.7219288417459" y1="0" y2="30"/><line opacity="0.2" x1="199.6895424223614" x2="199.6895424223614" y1="0" y2="30"/><line opacity="0.2" x1="418.5158624100379" x2="418.5158624100379" y1="0" y2="30"/><line opacity="0.2" x1="362.56795334656425" x2="362.56795334656425" y1="0" y2="30"/><line opacity="0.2" x1="311.41971434140936" x2="311.41971434140936" y1="0" y2="30"/><line opacity="0.2" x1="488.61550169756555" x2="488.61550169756555" y1="0" y2="30"/><line opacity="0.2" x1="352.2284785345838" x2="352.2284785345838" y1="0" y2="30"/><line opacity="0.2" x1="322.53301759963784" x2="322.53301759963784" y1="0" y2="30"/><line opacity="0.2" x1="369.8431996655538" x2="369.8431996655538" y1="0" y2="30"/><line opacity="0.2" x1="305.78500807587164" x2="305.78500807587164" y1="0" y2="30"/><line opacity="0.2" x1="323.31927090735866" x2="323.31927090735866" y1="0" y2="30"/><line opacity="0.2" x1="314.61360125000556" x2="314.61360125000556" y1="0" y2="30"/><line opacity="0.2" x1="229.208719994933" x2="229.208719994933" y1="0" y2="30"/><line opacity="0.2" x1="208.78225373306867" x2="208.78225373306867" y1="0" y2="30"/><line opacity="0.2" x1="255.04901672182788" x2="255.04901672182788" y1="0" y2="30"/><line opacity="0.2" x1="303.56568787190065" x2="303.56568787190065" y1="0" y2="30"/><line opacity="0.2" x1="412.58301107195473" x2="412.58301107195473" y1="0" y2="30"/><line opacity="0.2" x1="279.29364271909685" x2="279.29364271909685" y1="0" y2="30"/><line opacity="0.2" x1="357.84251573970295" x2="357.84251573970295" y1="0" y2="30"/><line opacity="0.2" x1="293.27320222833083" x2="293.27320222833083" y1="0" y2="30"/><line opacity="0.2" x1="276.37198768817194" x2="276.37198768817194" y1="0" y2="30"/><line opacity="0.2" x1="276.7399958977377" x2="276.7399958977377" y1="0" y2="30"/><line opacity="0.2" x1="403.4566940823" x2="403.4566940823" y1="0" y2="30"/><line opacity="0.2" x1="329.9510553047888" x2="329.9510553047888" y1="0" y2="30"/><line opacity="0.2" x1="443.8189053170186" x2="443.8189053170186" y1="0" y2="30"/><line opacity="0.2" x1="272.68256947091055" x2="272.68256947091055" y1="0" y2="30"/><line opacity="0.2" x1="314.88784536260033" x2="314.88784536260033" y1="0" y2="30"/><line opacity="0.2" x1="298.23922887366166" x2="298.23922887366166" y1="0" y2="30"/><line opacity="0.2" x1="331.01343899311337" x2="331.01343899311337" y1="0" y2="30"/><line opacity="0.2" x1="226.30900496946586" x2="226.30900496946586" y1="0" y2="30"/><line opacity="0.2" x1="129.10409531409198" x2="129.10409531409198" y1="0" y2="30"/><line opacity="0.2" x1="210.17448711698495" x2="210.17448711698495" y1="0" y2="30"/><line opacity="0.2" x1="175.79863501293423" x2="175.79863501293423" y1="0" y2="30"/><line opacity="0.2" x1="334.1491221306814" x2="334.1491221306814" y1="0" y2="30"/><line opacity="0.2" x1="362.1351110317249" x2="362.1351110317249" y1="0" y2="30"/><line opacity="0.2" x1="170.66453378178673" x2="170.66453378178673" y1="0" y2="30"/><line opacity="0.2" x1="302.62529170616193" x2="302.62529170616193" y1="0" y2="30"/><line opacity="0.2" x1="330.33047594360227" x2="330.33047594360227" y1="0" y2="30"/><line opacity="0.2" x1="443.43988466261266" x2="443.43988466261266" y1="0" y2="30"/><line opacity="0.2" x1="284.1225395309003" x2="284.1225395309003" y1="0" y2="30"/><line opacity="0.2" x1="273.94292879822075" x2="273.94292879822075" y1="0" y2="30"/><line opacity="0.2" x1="168.9747205858146" x2="168.9747205858146" y1="0" y2="30"/><line opacity="0.2" x1="282.48301266772927" x2="282.48301266772927" y1="0" y2="30"/><line opacity="0.2" x1="350.19906104843415" x2="350.19906104843415" y1="0" y2="30"/><line opacity="0.2" x1="445.65848954712396" x2="445.65848954712396" y1="0" y2="30"/><line opacity="0.2" x1="304.00367816335654" x2="304.00367816335654" y1="0" y2="30"/><line opacity="0.2" x1="346.2917844782243" x2="346.2917844782243" y1="0" y2="30"/><line opacity="0.2" x1="244.66190595510176" x2="244.66190595510176" y1="0" y2="30"/><line opacity="0.2" x1="236.0746700035846" x2="236.0746700035846" y1="0" y2="30"/><line opacity="0.2" x1="258.77594850458183" x2="258.77594850458183" y1="0" y2="30"/><line opacity="0.2" x1="318.0832343247198" x2="318.0832343247198" y1="0" y2="30"/><line opacity="0.2" x1="449.5491473352446" x2="449.5491473352446" y1="0" y2="30"/><line opacity="0.2" x1="296.54040345229487" x2="296.54040345229487" y1="0" y2="30"/><line opacity="0.2" x1="313.01763858528665" x2="313.01763858528665" y1="0" y2="30"/><line opacity="0.2" x1="469.68808263283535" x2="469.68808263283535" y1="0" y2="30"/><line opacity="0.2" x1="327.4617556789945" x2="327.4617556789945" y1="0" y2="30"/><line opacity="0.2" x1="342.8423924093801" x2="342.8423924093801" y1="0" y2="30"/><line opacity="0.2" x1="336.92672992021767" x2="336.92672992021767" y1="0" y2="30"/><line opacity="0.2" x1="280.8871010141039" x2="280.8871010141039" y1="0" y2="30"/><line opacity="0.2" x1="154.39245634046313" x2="154.39245634046313" y1="0" y2="30"/><line opacity="0.2" x1="412.49275787545463" x2="412.49275787545463" y1="0" y2="30"/><line opacity="0.2" x1="293.37958972822116" x2="293.37958972822116" y1="0" y2="30"/><line opacity="0.2" x1="312.6521644084921" x2="312.6521644084921" y1="0" y2="30"/><line opacity="0.2" x1="246.259171649578" x2="246.259171649578" y1="0" y2="30"/><line opacity="0.2" x1="275.7951493533978" x2="275.7951493533978" y1="0" y2="30"/><line opacity="0.2" x1="259.7662538642881" x2="259.7662538642881" y1="0" y2="30"/><line opacity="0.2" x1="317.63511607241765" x2="317.63511607241765" y1="0" y2="30"/><line opacity="0.2" x1="332.6340952010323" x2="332.6340952010323" y1="0" y2="30"/><line opacity="0.2" x1="383.08039144659466" x2="383.08039144659466" y1="0" y2="30"/><line opacity="0.2" x1="329.39260080805553" x2="329.39260080805553" y1="0" y2="30"/><line opacity="0.2" x1="283.34477792707366" x2="283.34477792707366" y1="0" y2="30"/><line opacity="0.2" x1="247.4538284064954" x2="247.4538284064954" y1="0" y2="30"/><line opacity="0.2" x1="264.964994681" x2="264.964994681" y1="0" y2="30"/><line opacity="0.2" x1="395.3720008734345" x2="395.3720008734345" y1="0" y2="30"/><line opacity="0.2" x1="380.9504121961944" x2="380.9504121961944" y1="0" y2="30"/><line opacity="0.2" x1="321.4069527324305" x2="321.4069527324305" y1="0" y2="30"/><line opacity="0.2" x1="405.73511181771454" x2="405.73511181771454" y1="0" y2="30"/><line opacity="0.2" x1="323.09939389933896" x2="323.09939389933896" y1="0" y2="30"/><line opacity="0.2" x1="326.3963908221036" x2="326.3963908221036" y1="0" y2="30"/><line opacity="0.2" x1="313.86538658311343" x2="313.86538658311343" y1="0" y2="30"/><line opacity="0.2" x1="387.91208941278836" x2="387.91208941278836" y1="0" y2="30"/><line opacity="0.2" x1="434.18193291201794" x2="434.18193291201794" y1="0" y2="30"/><line opacity="0.2" x1="387.2499562955247" x2="387.2499562955247" y1="0" y2="30"/><line opacity="0.2" x1="268.86232086901765" x2="268.86232086901765" y1="0" y2="30"/><line opacity="0.2" x1="365.472462875076" x2="365.472462875076" y1="0" y2="30"/><line opacity="0.2" x1="193.03908953600524" x2="193.03908953600524" y1="0" y2="30"/><line opacity="0.2" x1="381.38534956487666" x2="381.38534956487666" y1="0" y2="30"/><line opacity="0.2" x1="244.50555048178904" x2="244.50555048178904" y1="0" y2="30"/><line opacity="0.2" x1="57.88270560142509" x2="57.88270560142509" y1="0" y2="30"/><line opacity="0.2" x1="359.5647000884375" x2="359.5647000884375" y1="0" y2="30"/><line opacity="0.2" x1="407.59329252847203" x2="407.59329252847203" y1="0" y2="30"/><line opacity="0.2" x1="362.4895598720564" x2="362.4895598720564" y1="0" y2="30"/><line opacity="0.2" x1="341.466961357647" x2="341.466961357647" y1="0" y2="30"/><line opacity="0.2" x1="467.907358396436" x2="467.907358396436" y1="0" y2="30"/><line opacity="0.2" x1="279.4947311020487" x2="279.4947311020487" y1="0" y2="30"/><line opacity="0.2" x1="530.6115687445113" x2="530.6115687445113" y1="0" y2="30"/><line opacity="0.2" x1="328.7762797142772" x2="328.7762797142772" y1="0" y2="30"/><line opacity="0.2" x1="388.4268335423898" x2="388.4268335423898" y1="0" y2="30"/><line opacity="0.2" x1="345.81685932930975" x2="345.81685932930975" y1="0" y2="30"/><line opacity="0.2" x1="219.41441135229178" x2="219.41441135229178" y1="0" y2="30"/><line opacity="0.2" x1="271.07208017934437" x2="271.07208017934437" y1="0" y2="30"/><line opacity="0.2" x1="408.58143668740877" x2="408.58143668740877" y1="0" y2="30"/><line opacity="0.2" x1="249.78444253080409" x2="249.78444253080409" y1="0" y2="30"/><line opacity="0.2" x1="307.2042186798576" x2="307.2042186798576" y1="0" y2="30"/><line opacity="0.2" x1="511.2676376436438" x2="511.2676376436438" y1="0" y2="30"/><line opacity="0.2" x1="174.66458069573247" x2="174.66458069573247" y1="0" y2="30"/><line opacity="0.2" x1="386.0073908390889" x2="386.0073908390889" y1="0" y2="30"/><line opacity="0.2" x1="144.80795745966634" x2="144.80795745966634" y1="0" y2="30"/><line opacity="0.2" x1="160.16992326065255" x2="160.16992326065255" y1="0" y2="30"/><line opacity="0.2" x1="304.1513965014801" x2="304.1513965014801" y1="0" y2="30"/><line opacity="0.2" x1="439.1078209739209" x2="439.1078209739209" y1="0" y2="30"/><line opacity="0.2" x1="367.20928809672887" x2="367.20928809672887" y1="0" y2="30"/><line opacity="0.2" x1="350.28722950807133" x2="350.28722950807133" y1="0" y2="30"/><line opacity="0.2" x1="329.0499749239474" x2="329.0499749239474" y1="0" y2="30"/><line opacity="0.2" x1="427.6607373142354" x2="427.6607373142354" y1="0" y2="30"/><line opacity="0.2" x1="375.2079512329154" x2="375.2079512329154" y1="0" y2="30"/><line opacity="0.2" x1="310.92723321538466" x2="310.92723321538466" y1="0" y2="30"/><line opacity="0.2" x1="169.83792151225785" x2="169.83792151225785" y1="0" y2="30"/><line opacity="0.2" x1="422.23813185606673" x2="422.23813185606673" y1="0" y2="30"/><line opacity="0.2" x1="391.6615094794444" x2="391.6615094794444" y1="0" y2="30"/><line opacity="0.2" x1="467.3369101898881" x2="467.3369101898881" y1="0" y2="30"/><line opacity="0.2" x1="287.9421804834515" x2="287.9421804834515" y1="0" y2="30"/><line opacity="0.2" x1="273.86129692811005" x2="273.86129692811005" y1="0" y2="30"/><line opacity="0.2" x1="153.88044205639585" x2="153.88044205639585" y1="0" y2="30"/><line opacity="0.2" x1="363.80685422716533" x2="363.80685422716533" y1="0" y2="30"/><line opacity="0.2" x1="366.2146509929421" x2="366.2146509929421" y1="0" y2="30"/><line opacity="0.2" x1="282.566170536733" x2="282.566170536733" y1="0" y2="30"/><line opacity="0.2" x1="290.0609893260504" x2="290.0609893260504" y1="0" y2="30"/><line opacity="0.2" x1="303.8832633547241" x2="303.8832633547241" y1="0" y2="30"/><line opacity="0.2" x1="287.8464387115929" x2="287.8464387115929" y1="0" y2="30"/><line opacity="0.2" x1="299.43196134815867" x2="299.43196134815867" y1="0" y2="30"/><line opacity="0.2" x1="259.80469060122067" x2="259.80469060122067" y1="0" y2="30"/><line opacity="0.2" x1="314.95465514042496" x2="314.95465514042496" y1="0" y2="30"/><line opacity="0.2" x1="294.0388636644926" x2="294.0388636644926" y1="0" y2="30"/><line opacity="0.2" x1="342.05876124956563" x2="342.05876124956563" y1="0" y2="30"/><line opacity="0.2" x1="366.2217154884102" x2="366.2217154884102" y1="0" y2="30"/><line opacity="0.2" x1="78.12024640189786" x2="78.12024640189786" y1="0" y2="30"/><line opacity="0.2" x1="376.2993545977233" x2="376.2993545977233" y1="0" y2="30"/><line opacity="0.2" x1="316.92127144315674" x2="316.92127144315674" y1="0" y2="30"/><line opacity="0.2" x1="397.2285875218728" x2="397.2285875218728" y1="0" y2="30"/><line opacity="0.2" x1="255.04997862180306" x2="255.04997862180306" y1="0" y2="30"/><line opacity="0.2" x1="355.6454889187069" x2="355.6454889187069" y1="0" y2="30"/><line opacity="0.2" x1="313.5639977483698" x2="313.5639977483698" y1="0" y2="30"/><line opacity="0.2" x1="314.4994603211977" x2="314.4994603211977" y1="0" y2="30"/><line opacity="0.2" x1="341.97790379376346" x2="341.97790379376346" y1="0" y2="30"/><line opacity="0.2" x1="304.3044674401796" x2="304.3044674401796" y1="0" y2="30"/><line opacity="0.2" x1="356.00987688623394" x2="356.00987688623394" y1="0" y2="30"/><line opacity="0.2" x1="176.1888634096057" x2="176.1888634096057" y1="0" y2="30"/><line opacity="0.2" x1="221.75525225637475" x2="221.75525225637475" y1="0" y2="30"/><line opacity="0.2" x1="204.85653299189642" x2="204.85653299189642" y1="0" y2="30"/><line opacity="0.2" x1="309.6728004122774" x2="309.6728004122774" y1="0" y2="30"/><line opacity="0.2" x1="122.3439064685661" x2="122.3439064685661" y1="0" y2="30"/><line opacity="0.2" x1="343.008547129334" x2="343.008547129334" y1="0" y2="30"/><line opacity="0.2" x1="314.94846593180984" x2="314.94846593180984" y1="0" y2="30"/><line opacity="0.2" x1="207.95382712602452" x2="207.95382712602452" y1="0" y2="30"/><line opacity="0.2" x1="433.2373188107824" x2="433.2373188107824" y1="0" y2="30"/><line opacity="0.2" x1="124.01845613395052" x2="124.01845613395052" y1="0" y2="30"/><line opacity="0.2" x1="374.61428638304375" x2="374.61428638304375" y1="0" y2="30"/><line opacity="0.2" x1="270.593394786879" x2="270.593394786879" y1="0" y2="30"/><line opacity="0.2" x1="186.48985047440033" x2="186.48985047440033" y1="0" y2="30"/><line opacity="0.2" x1="512.9813293082196" x2="512.9813293082196" y1="0" y2="30"/><line opacity="0.2" x1="293.8445718404657" x2="293.8445718404657" y1="0" y2="30"/><line opacity="0.2" x1="313.321459057426" x2="313.321459057426" y1="0" y2="30"/><line opacity="0.2" x1="331.53382673191567" x2="331.53382673191567" y1="0" y2="30"/><line opacity="0.2" x1="337.94074164548056" x2="337.94074164548056" y1="0" y2="30"/><line opacity="0.2" x1="398.61702676759035" x2="398.61702676759035" y1="0" y2="30"/><line opacity="0.2" x1="261.08263926622334" x2="261.08263926622334" y1="0" y2="30"/><line opacity="0.2" x1="385.0614207449453" x2="385.0614207449453" y1="0" y2="30"/><line opacity="0.2" x1="502.83639228634513" x2="502.83639228634513" y1="0" y2="30"/><line opacity="0.2" x1="219.80426575282735" x2="219.80426575282735" y1="0" y2="30"/><line opacity="0.2" x1="391.5395087401759" x2="391.5395087401759" y1="0" y2="30"/><line opacity="0.2" x1="173.259508512671" x2="173.259508512671" y1="0" y2="30"/><line opacity="0.2" x1="438.79003040437993" x2="438.79003040437993" y1="0" y2="30"/><line opacity="0.2" x1="271.43308029298737" x2="271.43308029298737" y1="0" y2="30"/><line opacity="0.2" x1="175.86485405279961" x2="175.86485405279961" y1="0" y2="30"/><line opacity="0.2" x1="272.1891356996705" x2="272.1891356996705" y1="0" y2="30"/><line opacity="0.2" x1="307.67398027248396" x2="307.67398027248396" y1="0" y2="30"/><line opacity="0.2" x1="342.44553846360867" x2="342.44553846360867" y1="0" y2="30"/><line opacity="0.2" x1="349.8136763407346" x2="349.8136763407346" y1="0" y2="30"/><line opacity="0.2" x1="249.26534971528412" x2="249.26534971528412" y1="0" y2="30"/><line opacity="0.2" x1="280.99082724767425" x2="280.99082724767425" y1="0" y2="30"/><line opacity="0.2" x1="215.88743420350258" x2="215.88743420350258" y1="0" y2="30"/><line opacity="0.2" x1="322.94576678198524" x2="322.94576678198524" y1="0" y2="30"/><line opacity="0.2" x1="253.68700678381404" x2="253.68700678381404" y1="0" y2="30"/><line opacity="0.2" x1="264.4200339752487" x2="264.4200339752487" y1="0" y2="30"/><line opacity="0.2" x1="406.8175574033969" x2="406.8175574033969" y1="0" y2="30"/><line opacity="0.2" x1="131.74400258376178" x2="131.74400258376178" y1="0" y2="30"/><line opacity="0.2" x1="362.7185697770593" x2="362.7185697770593" y1="0" y2="30"/><line opacity="0.2" x1="490.8063210592008" x2="490.8063210592008" y1="0" y2="30"/><line opacity="0.2" x1="286.0958090455563" x2="286.0958090455563" y1="0" y2="30"/><line opacity="0.2" x1="295.92239916233956" x2="295.92239916233956" y1="0" y2="30"/><line opacity="0.2" x1="319.7894338768313" x2="319.7894338768313" y1="0" y2="30"/><line opacity="0.2" x1="197.2998416661353" x2="197.2998416661353" y1="0" y2="30"/><line opacity="0.2" x1="316.7227187905193" x2="316.7227187905193" y1="0" y2="30"/><line opacity="0.2" x1="471.4822362308675" x2="471.4822362308675" y1="0" y2="30"/><line opacity="0.2" x1="347.6362110988729" x2="347.6362110988729" y1="0" y2="30"/><line opacity="0.2" x1="179.34625121466723" x2="179.34625121466723" y1="0" y2="30"/><line opacity="0.2" x1="334.35348671135927" x2="334.35348671135927" y1="0" y2="30"/><line opacity="0.2" x1="219.93580023300754" x2="219.93580023300754" y1="0" y2="30"/><line opacity="0.2" x1="372.34972949160755" x2="372.34972949160755" y1="0" y2="30"/><line opacity="0.2" x1="71.8378534964425" x2="71.8378534964425" y1="0" y2="30"/><line opacity="0.2" x1="317.9109119732025" x2="317.9109119732025" y1="0" y2="30"/><line opacity="0.2" x1="388.01187643430416" x2="388.01187643430416" y1="0" y2="30"/><line opacity="0.2" x1="300.2709953367983" x2="300.2709953367983" y1="0" y2="30"/><line opacity="0.2" x1="273.0269954192792" x2="273.0269954192792" y1="0" y2="30"/><line opacity="0.2" x1="458.7801554450125" x2="458.7801554450125" y1="0" y2="30"/><line opacity="0.2" x1="300.6299701993046" x2="300.6299701993046" y1="0" y2="30"/><line opacity="0.2" x1="305.44324717986075" x2="305.44324717986075" y1="0" y2="30"/><line opacity="0.2" x1="318.1077193399178" x2="318.1077193399178" y1="0" y2="30"/><line opacity="0.2" x1="216.863620934813" x2="216.863620934813" y1="0" y2="30"/><line opacity="0.2" x1="293.9962282433406" x2="293.9962282433406" y1="0" y2="30"/><line opacity="0.2" x1="337.91117522104133" x2="337.91117522104133" y1="0" y2="30"/><line opacity="0.2" x1="301.2381459187237" x2="301.2381459187237" y1="0" y2="30"/><line opacity="0.2" x1="590.9545101069463" x2="590.9545101069463" y1="0" y2="30"/><line opacity="0.2" x1="334.97902338052586" x2="334.97902338052586" y1="0" y2="30"/><line opacity="0.2" x1="264.5836884524768" x2="264.5836884524768" y1="0" y2="30"/><line opacity="0.2" x1="461.5705951590412" x2="461.5705951590412" y1="0" y2="30"/><line opacity="0.2" x1="325.93086576930006" x2="325.93086576930006" y1="0" y2="30"/><line opacity="0.2" x1="384.08395158245355" x2="384.08395158245355" y1="0" y2="30"/><line opacity="0.2" x1="277.69278001382474" x2="277.69278001382474" y1="0" y2="30"/><line opacity="0.2" x1="292.1104850956825" x2="292.1104850956825" y1="0" y2="30"/><line opacity="0.2" x1="410.5043410043771" x2="410.5043410043771" y1="0" y2="30"/><line opacity="0.2" x1="307.6995266276934" x2="307.6995266276934" y1="0" y2="30"/><line opacity="0.2" x1="119.12259554246698" x2="119.12259554246698" y1="0" y2="30"/><line opacity="0.2" x1="374.329073250183" x2="374.329073250183" y1="0" y2="30"/><line opacity="0.2" x1="253.77373081152464" x2="253.77373081152464" y1="0" y2="30"/><line opacity="0.2" x1="277.08462597831334" x2="277.08462597831334" y1="0" y2="30"/><line opacity="0.2" x1="245.70118709410366" x2="245.70118709410366" y1="0" y2="30"/><line opacity="0.2" x1="229.58802846001785" x2="229.58802846001785" y1="0" y2="30"/><line opacity="0.2" x1="173.00110321188816" x2="173.00110321188816" y1="0" y2="30"/><line opacity="0.2" x1="109.11778458295261" x2="109.11778458295261" y1="0" y2="30"/><line opacity="0.2" x1="299.4579884356359" x2="299.4579884356359" y1="0" y2="30"/><line opacity="0.2" x1="337.9601913859888" x2="337.9601913859888" y1="0" y2="30"/><line opacity="0.2" x1="302.47160141113056" x2="302.47160141113056" y1="0" y2="30"/><line opacity="0.2" x1="342.2437246335033" x2="342.2437246335033" y1="0" y2="30"/><line opacity="0.2" x1="209.8252547025698" x2="209.8252547025698" y1="0" y2="30"/><line opacity="0.2" x1="490.4408021393697" x2="490.4408021393697" y1="0" y2="30"/><line opacity="0.2" x1="229.49435272602403" x2="229.49435272602403" y1="0" y2="30"/><line opacity="0.2" x1="341.62148189722785" x2="341.62148189722785" y1="0" y2="30"/><line opacity="0.2" x1="358.6230797685848" x2="358.6230797685848" y1="0" y2="30"/><line opacity="0.2" x1="278.2656682758286" x2="278.2656682758286" y1="0" y2="30"/><line opacity="0.2" x1="361.3148764403752" x2="361.3148764403752" y1="0" y2="30"/><line opacity="0.2" x1="404.7979141648907" x2="404.7979141648907" y1="0" y2="30"/><line opacity="0.2" x1="342.45070385825505" x2="342.45070385825505" y1="0" y2="30"/><line opacity="0.2" x1="316.96370512704743" x2="316.96370512704743" y1="0" y2="30"/><line opacity="0.2" x1="620" x2="620" y1="0" y2="30"/><line opacity="0.2" x1="400.8362539158452" x2="400.8362539158452" y1="0" y2="30"/><line opacity="0.2" x1="240.18265770783879" x2="240.18265770783879" y1="0" y2="30"/><line opacity="0.2" x1="20" x2="20" y1="0" y2="30"/><line opacity="0.2" x1="340.29209838350613" x2="340.29209838350613" y1="0" y2="30"/><line opacity="0.2" x1="379.7189960515982" x2="379.7189960515982" y1="0" y2="30"/><line opacity="0.2" x1="282.0774215848039" x2="282.0774215848039" y1="0" y2="30"/><line opacity="0.2" x1="333.6468021106616" x2="333.6468021106616" y1="0" y2="30"/><line opacity="0.2" x1="107.03810388202794" x2="107.03810388202794" y1="0" y2="30"/><line opacity="0.2" x1="296.75669236160024" x2="296.75669236160024" y1="0" y2="30"/><line opacity="0.2" x1="282.96921088616114" x2="282.96921088616114" y1="0" y2="30"/><line opacity="0.2" x1="233.52647361413656" x2="233.52647361413656" y1="0" y2="30"/></g></svg>