<svg xmlns="http://www.w3.org/2000/svg" xmlns:xlink="http://www.w3.org/1999/xlink" class="plot-d6a7b5" fill="currentColor" font-family="system-ui, sans-serif" font-size="10" text-anchor="middle" width="640" height="400" viewBox="0 0 640 400" style="color: black;"><style>.plot-d6a7b5 {
  display: block;
  background: white;
  height: auto;
  height: intrinsic;
  max-width: 100%;
}
.plot-d6a7b5 text,
.plot-d6a7b5 tspan {
  white-space: pre;
}</style><g aria-label="y-axis tick" fill="none" stroke="currentColor"><path transform="translate(40,371.61794610654994)" d="M0,0L-6,0"/><path transform="translate(40,346.36024400392046)" d="M0,0L-6,0"/><path transform="translate(40,321.1025419012909)" d="M0,0L-6,0"/><path transform="translate(40,295.84483979866144)" d="M0,0L-6,0"/><path transform="translate(40,270.5871376960321)" d="M0,0L-6,0"/><path transform="translate(40,245.32943559340254)" d="M0,0L-6,0"/><path transform="translate(40,220.07173349077303)" d="M0,0L-6,0"/><path transform="translate(40,194.81403138814355)" d="M0,0L-6,0"/><path transform="translate(40,169.55632928551407)" d="M0,0L-6,0"/><path transform="translate(40,144.2986271828846)" d="M0,0L-6,0"/><path transform="translate(40,119.0409250802551)" d="M0,0L-6,0"/><path transform="translate(40,93.78322297762564)" d="M0,0L-6,0"/><path transform="translate(40,68.52552087499612)" d="M0,0L-6,0"/><path transform="translate(40,43.26781877236665)" d="M0,0L-6,0"/></g><g aria-label="y-axis tick label" text-anchor="end" font-variant="tabular-nums" transform="translate(-9,0)"><text y="0.32em" transform="translate(40,371.61794610654994)">−6</text><text y="0.32em" transform="translate(40,346.36024400392046)">−5</text><text y="0.32em" transform="translate(40,321.1025419012909)">−4</text><text y="0.32em" transform="translate(40,295.84483979866144)">−3</text><text y="0.32em" transform="translate(40,270.5871376960321)">−2</text><text y="0.32em" transform="translate(40,245.32943559340254)">−1</text><text y="0.32em" transform="translate(40,220.07173349077303)">0</text><text y="0.32em" transform="translate(40,194.81403138814355)">1</text><text y="0.32em" transform="translate(40,169.55632928551407)">2</text><text y="0.32em" transform="translate(40,144.2986271828846)">3</text><text y="0.32em" transform="translate(40,119.0409250802551)">4</text><text y="0.32em" transform="translate(40,93.78322297762564)">5</text><text y="0.32em" transform="translate(40,68.52552087499612)">6</text><text y="0.32em" transform="translate(40,43.26781877236665)">7</text></g><g aria-label="rule" stroke="steelblue"><line x1="40" x2="639.5" y1="220.07173349077303" y2="220.07173349077303"/></g><g aria-label="line" fill="none" stroke="currentColor" stroke-width="1.5" stroke-linejoin="round" stroke-linecap="round"><path d="M40,226.079L46.056,275.023L52.111,280.78L58.167,285.47L64.222,283.015L70.278,293.003L76.333,270.64L82.389,243.97L88.444,222.054L94.5,254.977L100.556,282.223L106.611,270.011L112.667,245.217L118.722,221.48L124.778,186.844L130.833,189.996L136.889,201.193L142.944,209.848L149,177.991L155.056,136.695L161.111,99.862L167.167,141.252L173.222,152.702L179.278,115.659L185.333,120.449L191.389,124.288L197.444,128.163L203.5,147.093L209.556,141.502L215.611,129.036L221.667,121.628L227.722,116.056L233.778,111.854L239.833,105.403L245.889,150.689L251.944,145.569L258,132.436L264.056,121.346L270.111,129.855L276.167,122.052L282.222,154.879L288.278,128.627L294.333,83.706L300.389,99.429L306.444,44.014L312.5,20L318.556,41.232L324.611,29.003L330.667,45.825L336.722,30.744L342.778,26.413L348.833,31.178L354.889,57.56L360.944,47.275L367,52.091L373.056,30.005L379.111,27.975L385.167,58.621L391.222,90.763L397.278,98.083L403.333,90.267L409.389,102.278L415.444,114.661L421.5,110.374L427.556,148.686L433.611,213.359L439.667,236.424L445.722,239.605L451.778,186.805L457.833,141.234L463.889,162.65L469.944,162.014L476,175.738L482.056,190.261L488.111,164.719L494.167,126.247L500.222,133.033L506.278,162.036L512.333,203.409L518.389,208.337L524.444,185.55L530.5,205.721L536.556,181.359L542.611,169.339L548.667,240.657L554.722,265.248L560.778,288.371L566.833,272.999L572.889,282.109L578.944,264.693L585,266.414L591.056,284.269L597.111,289.067L603.167,291.57L609.222,340.907L615.278,371.376L621.333,349.043L627.389,337.303L633.444,359.836L639.5,380"/></g></svg>