<svg xmlns="http://www.w3.org/2000/svg" xmlns:xlink="http://www.w3.org/1999/xlink" class="plot-d6a7b5" fill="currentColor" font-family="system-ui, sans-serif" font-size="10" text-anchor="middle" width="640" height="400" viewBox="0 0 640 400" style="color: black; background-color: white;"><style>.plot-d6a7b5 {
  display: block;
  background: white;
  height: auto;
  height: intrinsic;
  max-width: 100%;
}
.plot-d6a7b5 text,
.plot-d6a7b5 tspan {
  white-space: pre;
}</style><g aria-label="y-axis tick" fill="none" stroke="currentColor"><path transform="translate(40,376.83878421288597)" d="M0,0L-6,0"/><path transform="translate(40,351.3573007187258)" d="M0,0L-6,0"/><path transform="translate(40,325.87581722456565)" d="M0,0L-6,0"/><path transform="translate(40,300.39433373040555)" d="M0,0L-6,0"/><path transform="translate(40,274.91285023624533)" d="M0,0L-6,0"/><path transform="translate(40,249.43136674208523)" d="M0,0L-6,0"/><path transform="translate(40,223.9498832479251)" d="M0,0L-6,0"/><path transform="translate(40,198.4683997537649)" d="M0,0L-6,0"/><path transform="translate(40,172.9869162596048)" d="M0,0L-6,0"/><path transform="translate(40,147.50543276544462)" d="M0,0L-6,0"/><path transform="translate(40,122.02394927128448)" d="M0,0L-6,0"/><path transform="translate(40,96.54246577712432)" d="M0,0L-6,0"/><path transform="translate(40,71.06098228296418)" d="M0,0L-6,0"/><path transform="translate(40,45.579498788804045)" d="M0,0L-6,0"/><path transform="translate(40,20.098015294643876)" d="M0,0L-6,0"/></g><g aria-label="y-axis tick label" text-anchor="end" font-variant="tabular-nums" transform="translate(-9,0)"><text y="0.32em" transform="translate(40,376.83878421288597)">−13</text><text y="0.32em" transform="translate(40,351.3573007187258)">−12</text><text y="0.32em" transform="translate(40,325.87581722456565)">−11</text><text y="0.32em" transform="translate(40,300.39433373040555)">−10</text><text y="0.32em" transform="translate(40,274.91285023624533)">−9</text><text y="0.32em" transform="translate(40,249.43136674208523)">−8</text><text y="0.32em" transform="translate(40,223.9498832479251)">−7</text><text y="0.32em" transform="translate(40,198.4683997537649)">−6</text><text y="0.32em" transform="translate(40,172.9869162596048)">−5</text><text y="0.32em" transform="translate(40,147.50543276544462)">−4</text><text y="0.32em" transform="translate(40,122.02394927128448)">−3</text><text y="0.32em" transform="translate(40,96.54246577712432)">−2</text><text y="0.32em" transform="translate(40,71.06098228296418)">−1</text><text y="0.32em" transform="translate(40,45.579498788804045)">0</text><text y="0.32em" transform="translate(40,20.098015294643876)">1</text></g><g aria-label="rule" stroke="steelblue"><line x1="40" x2="639.5" y1="45.579498788804045" y2="45.579498788804045"/></g><g aria-label="line" fill="none" stroke="currentColor" stroke-width="1.5" stroke-linejoin="round" stroke-linecap="round"><path d="M40,34.855L46.056,24.131L52.111,20L58.167,49.151L64.222,35.722L70.278,37.05L76.333,114.349L82.389,135.894L88.444,170.551L94.5,203.689L100.556,202.936L106.611,187.803L112.667,221.597L118.722,240.29L124.778,264.498L130.833,224.894L136.889,287.44L142.944,266.18L149,245.074L155.056,220.445L161.111,281.18L167.167,209.029L173.222,244.294L179.278,242.89L185.333,252.619L191.389,266.245L197.444,297.412L203.5,298.951L209.556,266.488L215.611,277.988L221.667,291.249L227.722,325.823L233.778,332.713L239.833,330.017L245.889,344.282L251.944,376.852L258,372.426L264.056,339.11L270.111,359.148L276.167,377.051L282.222,351.13L288.278,366.596L294.333,349.309L300.389,311.022L306.444,278.065L312.5,261.638L318.556,247.666L324.611,276.43L330.667,321.712L336.722,314.708L342.778,341.591L348.833,372.873L354.889,366.689L360.944,358.846L367,332.761L373.056,330.522L379.111,292.248L385.167,323.647L391.222,306.113L397.278,312.615L403.333,318.598L409.389,299.326L415.444,325.944L421.5,324.247L427.556,314.505L433.611,332.011L439.667,329.009L445.722,328.328L451.778,332.486L457.833,327.017L463.889,336.049L469.944,380L476,353.422L482.056,358.812L488.111,347.661L494.167,318.259L500.222,304.279L506.278,271.294L512.333,298.485L518.389,270.016L524.444,229.016L530.5,238.929L536.556,243.62L542.611,261.1L548.667,250.983L554.722,287.138L560.778,247.333L566.833,259.308L572.889,255.22L578.944,257.894L585,267.416L591.056,275.647L597.111,275.573L603.167,286.848L609.222,317.162L615.278,302.939L621.333,261.441L627.389,293.716L633.444,289.023L639.5,271.744"/></g></svg>