<svg xmlns="http://www.w3.org/2000/svg" xmlns:xlink="http://www.w3.org/1999/xlink" class="plot-efd1196b10a64" fill="currentColor" font-family="system-ui, sans-serif" font-size="10" text-anchor="middle" width="640" height="400" viewBox="0 0 640 400" style="color: black;"><style>
        .plot-efd1196b10a64 {
          display: block;
          background: white;
          height: auto;
          height: intrinsic;
          max-width: 100%;
        }
        .plot-efd1196b10a64 text,
        .plot-efd1196b10a64 tspan {
          white-space: pre;
        }
      </style><g aria-label="y-axis tick" fill="none" stroke="currentColor" transform="translate(0,0.5)"><path transform="translate(40,378.1427760536566)" d="M0,0L-6,0"/><path transform="translate(40,353.1189628047514)" d="M0,0L-6,0"/><path transform="translate(40,328.09514955584615)" d="M0,0L-6,0"/><path transform="translate(40,303.071336306941)" d="M0,0L-6,0"/><path transform="translate(40,278.04752305803584)" d="M0,0L-6,0"/><path transform="translate(40,253.02370980913062)" d="M0,0L-6,0"/><path transform="translate(40,227.99989656022547)" d="M0,0L-6,0"/><path transform="translate(40,202.9760833113203)" d="M0,0L-6,0"/><path transform="translate(40,177.95227006241507)" d="M0,0L-6,0"/><path transform="translate(40,152.9284568135099)" d="M0,0L-6,0"/><path transform="translate(40,127.90464356460471)" d="M0,0L-6,0"/><path transform="translate(40,102.88083031569955)" d="M0,0L-6,0"/><path transform="translate(40,77.85701706679436)" d="M0,0L-6,0"/><path transform="translate(40,52.8332038178892)" d="M0,0L-6,0"/><path transform="translate(40,27.809390568983993)" d="M0,0L-6,0"/></g><g aria-label="y-axis tick label" text-anchor="end" font-variant="tabular-nums" transform="translate(-8.5,0.5)"><text y="0.32em" transform="translate(40,378.1427760536566)">0</text><text y="0.32em" transform="translate(40,353.1189628047514)">1</text><text y="0.32em" transform="translate(40,328.09514955584615)">2</text><text y="0.32em" transform="translate(40,303.071336306941)">3</text><text y="0.32em" transform="translate(40,278.04752305803584)">4</text><text y="0.32em" transform="translate(40,253.02370980913062)">5</text><text y="0.32em" transform="translate(40,227.99989656022547)">6</text><text y="0.32em" transform="translate(40,202.9760833113203)">7</text><text y="0.32em" transform="translate(40,177.95227006241507)">8</text><text y="0.32em" transform="translate(40,152.9284568135099)">9</text><text y="0.32em" transform="translate(40,127.90464356460471)">10</text><text y="0.32em" transform="translate(40,102.88083031569955)">11</text><text y="0.32em" transform="translate(40,77.85701706679436)">12</text><text y="0.32em" transform="translate(40,52.8332038178892)">13</text><text y="0.32em" transform="translate(40,27.809390568983993)">14</text></g><g aria-label="line" fill="none" stroke="currentColor" stroke-width="1.5" stroke-linejoin="round" stroke-linecap="round" transform="translate(0.5,0.5)"><path d="M40,380L46.051,376.163L52.101,338.075L58.152,299.85L64.202,274.932L70.253,298.491L76.303,282.1L82.354,246.71L88.404,192.953L94.455,131.8L100.505,120.063L106.556,142.071L112.606,109.789L118.657,129.35L124.707,117.75L130.758,97.215L136.808,99.782L142.859,113.754L148.909,104.327L154.96,90.645L161.01,102.529L167.061,91.21L173.111,59.303L179.162,66.588L185.212,125.588L191.263,154.317L197.313,112.106L203.364,142.368L209.414,166.501L215.465,93.814L221.515,82.616L227.566,98.602L233.616,55.982L239.667,99.029L245.717,116.047L251.768,123.835L257.818,109.421L263.869,97.593L269.919,69.095L275.97,69.019L282.02,71.826L288.071,63.424L294.121,88.606L300.172,34.506L306.222,65.662L312.273,25.925L318.323,20L324.374,56.746L330.424,49.089L336.475,79.515L342.525,102.56L348.576,100.277L354.626,183.526L360.677,188.268L366.727,190.92L372.778,212.177L378.828,202.14L384.879,191.074L390.929,153.902L396.98,160.527L403.03,175.987L409.081,235.043L415.131,196.41L421.182,155.932L427.232,171.684L433.283,178.765L439.333,154.519L445.384,178.925L451.434,189.254L457.485,163.241L463.535,175.078L469.586,173.882L475.636,154.185L481.687,146.276L487.737,135.567L493.788,136.848L499.838,137.824L505.889,164.377L511.939,153.74L517.99,152.899L524.04,157.522L530.091,155.841L536.141,166.475L542.192,161.785L548.242,138.502L554.293,168.782L560.343,174.131L566.394,176.934L572.444,156.183L578.495,157.928L584.545,151.463L590.596,124.046L596.646,101.304L602.697,109.49L608.747,105.479L614.798,132.868L620.848,110.288L626.899,141.125L632.949,127.622L639,121.446"/></g></svg>