<svg xmlns="http://www.w3.org/2000/svg" xmlns:xlink="http://www.w3.org/1999/xlink" class="plot-04e8ed7fa25bb" fill="currentColor" font-family="system-ui, sans-serif" font-size="10" text-anchor="middle" width="640" height="400" viewBox="0 0 640 400" style="color: black;"><style>
        .plot-04e8ed7fa25bb {
          display: block;
          background: white;
          height: auto;
          height: intrinsic;
          max-width: 100%;
        }
        .plot-04e8ed7fa25bb text,
        .plot-04e8ed7fa25bb tspan {
          white-space: pre;
        }
      </style><g aria-label="y-axis tick" fill="none" stroke="currentColor" transform="translate(0,0.5)"><path transform="translate(40,378.80565242684503)" d="M0,0L-6,0"/><path transform="translate(40,348.90612892970483)" d="M0,0L-6,0"/><path transform="translate(40,319.0066054325647)" d="M0,0L-6,0"/><path transform="translate(40,289.1070819354245)" d="M0,0L-6,0"/><path transform="translate(40,259.2075584382843)" d="M0,0L-6,0"/><path transform="translate(40,229.30803494114411)" d="M0,0L-6,0"/><path transform="translate(40,199.40851144400398)" d="M0,0L-6,0"/><path transform="translate(40,169.5089879468638)" d="M0,0L-6,0"/><path transform="translate(40,139.60946444972365)" d="M0,0L-6,0"/><path transform="translate(40,109.70994095258347)" d="M0,0L-6,0"/><path transform="translate(40,79.81041745544327)" d="M0,0L-6,0"/><path transform="translate(40,49.91089395830313)" d="M0,0L-6,0"/><path transform="translate(40,20.011370461162937)" d="M0,0L-6,0"/></g><g aria-label="y-axis tick label" text-anchor="end" font-variant="tabular-nums" transform="translate(-8.5,0.5)"><text y="0.32em" transform="translate(40,378.80565242684503)">−10</text><text y="0.32em" transform="translate(40,348.90612892970483)">−9</text><text y="0.32em" transform="translate(40,319.0066054325647)">−8</text><text y="0.32em" transform="translate(40,289.1070819354245)">−7</text><text y="0.32em" transform="translate(40,259.2075584382843)">−6</text><text y="0.32em" transform="translate(40,229.30803494114411)">−5</text><text y="0.32em" transform="translate(40,199.40851144400398)">−4</text><text y="0.32em" transform="translate(40,169.5089879468638)">−3</text><text y="0.32em" transform="translate(40,139.60946444972365)">−2</text><text y="0.32em" transform="translate(40,109.70994095258347)">−1</text><text y="0.32em" transform="translate(40,79.81041745544327)">0</text><text y="0.32em" transform="translate(40,49.91089395830313)">1</text><text y="0.32em" transform="translate(40,20.011370461162937)">2</text></g><g aria-label="line" fill="none" stroke="currentColor" stroke-width="1.5" stroke-linejoin="round" stroke-linecap="round" transform="translate(0.5,0.5)"><path d="M40,102.307L46.051,51.665L52.101,39.909L58.152,38.045L64.202,32.791L70.253,20L76.303,37.1L82.354,68.318L88.404,70.662L94.455,55.895L100.505,38.63L106.556,91.401L112.606,97.494L118.657,101.4L124.707,121.671L130.758,138.085L136.808,151.873L142.859,205.999L148.909,230.32L154.96,237.051L161.01,220.387L167.061,210.992L173.111,232.726L179.162,229.873L185.212,185.996L191.263,198.336L197.313,226.438L203.364,276.54L209.414,250.077L215.465,261.881L221.515,244.419L227.566,227.694L233.616,252.532L239.667,297.028L245.717,316.016L251.768,320.376L257.818,311.007L263.869,326.135L269.919,333.25L275.97,333.812L282.02,315.989L288.071,311.599L294.121,294.867L300.172,297.213L306.222,277.596L312.273,278.345L318.323,287.438L324.374,280.65L330.424,277.12L336.475,266.934L342.525,266.451L348.576,247.522L354.626,322.177L360.677,338.563L366.727,380L372.778,371.81L378.828,357.513L384.879,312.92L390.929,320.96L396.98,322.696L403.03,329.003L409.081,341.927L415.131,315.515L421.182,315.779L427.232,357.718L433.283,283.142L439.333,298.915L445.384,266.345L451.434,181.356L457.485,213.765L463.535,231.248L469.586,230.641L475.636,299.395L481.687,324.501L487.737,273.902L493.788,253.827L499.838,256.912L505.889,255.113L511.939,207.25L517.99,206.577L524.04,197.681L530.091,191.101L536.141,189.053L542.192,152.376L548.242,179.812L554.293,180.847L560.343,208.769L566.394,173.247L572.444,194.092L578.495,175.424L584.545,160.497L590.596,142.211L596.646,172.071L602.697,180.91L608.747,215.464L614.798,233.008L620.848,208.02L626.899,191.461L632.949,228.128L639,218.225"/></g></svg>