<svg xmlns="http://www.w3.org/2000/svg" xmlns:xlink="http://www.w3.org/1999/xlink" class="plot-d6a7b5" fill="currentColor" font-family="system-ui, sans-serif" font-size="10" text-anchor="middle" width="640" height="60" viewBox="0 0 640 60" style="color: black; background-color: white;"><style>.plot-d6a7b5 {
  display: block;
  background: white;
  height: auto;
  height: intrinsic;
  max-width: 100%;
}
.plot-d6a7b5 text,
.plot-d6a7b5 tspan {
  white-space: pre;
}</style><g aria-label="x-axis tick" fill="none" stroke="currentColor"><path transform="translate(64.45190455268613,30)" d="M0,0L0,6"/><path transform="translate(150.71762854845412,30)" d="M0,0L0,6"/><path transform="translate(236.98335254422213,30)" d="M0,0L0,6"/><path transform="translate(323.24907653999014,30)" d="M0,0L0,6"/><path transform="translate(409.5148005357581,30)" d="M0,0L0,6"/><path transform="translate(495.78052453152617,30)" d="M0,0L0,6"/><path transform="translate(582.0462485272942,30)" d="M0,0L0,6"/></g><g aria-label="x-axis tick label" font-variant="tabular-nums" transform="translate(0,9)"><text y="0.71em" transform="translate(64.45190455268613,30)">−3</text><text y="0.71em" transform="translate(150.71762854845412,30)">−2</text><text y="0.71em" transform="translate(236.98335254422213,30)">−1</text><text y="0.71em" transform="translate(323.24907653999014,30)">0</text><text y="0.71em" transform="translate(409.5148005357581,30)">1</text><text y="0.71em" transform="translate(495.78052453152617,30)">2</text><text y="0.71em" transform="translate(582.0462485272942,30)">3</text></g><g aria-label="tick" stroke="steelblue"><line opacity="0.2" x1="296.7368445344879" x2="296.7368445344879" y1="0.5" y2="30"/><line opacity="0.2" x1="212.28534707339205" x2="212.28534707339205" y1="0.5" y2="30"/><line opacity="0.2" x1="390.5390080132171" x2="390.5390080132171" y1="0.5" y2="30"/><line opacity="0.2" x1="135.71889541928988" x2="135.71889541928988" y1="0.5" y2="30"/><line opacity="0.2" x1="405.59834098661736" x2="405.59834098661736" y1="0.5" y2="30"/><line opacity="0.2" x1="238.68769650520028" x2="238.68769650520028" y1="0.5" y2="30"/><line opacity="0.2" x1="326.46743311974427" x2="326.46743311974427" y1="0.5" y2="30"/><line opacity="0.2" x1="413.44572502641176" x2="413.44572502641176" y1="0.5" y2="30"/><line opacity="0.2" x1="355.51095499277653" x2="355.51095499277653" y1="0.5" y2="30"/><line opacity="0.2" x1="256.3642903275021" x2="256.3642903275021" y1="0.5" y2="30"/><line opacity="0.2" x1="411.0056497620073" x2="411.0056497620073" y1="0.5" y2="30"/><line opacity="0.2" x1="323.8055836969768" x2="323.8055836969768" y1="0.5" y2="30"/><line opacity="0.2" x1="450.7193307266525" x2="450.7193307266525" y1="0.5" y2="30"/><line opacity="0.2" x1="256.33797290991595" x2="256.33797290991595" y1="0.5" y2="30"/><line opacity="0.2" x1="326.23822591860477" x2="326.23822591860477" y1="0.5" y2="30"/><line opacity="0.2" x1="430.0191220386197" x2="430.0191220386197" y1="0.5" y2="30"/><line opacity="0.2" x1="323.4814517666145" x2="323.4814517666145" y1="0.5" y2="30"/><line opacity="0.2" x1="372.0817691233475" x2="372.0817691233475" y1="0.5" y2="30"/><line opacity="0.2" x1="317.7406891187194" x2="317.7406891187194" y1="0.5" y2="30"/><line opacity="0.2" x1="372.6220415398153" x2="372.6220415398153" y1="0.5" y2="30"/><line opacity="0.2" x1="291.8913329389189" x2="291.8913329389189" y1="0.5" y2="30"/><line opacity="0.2" x1="297.66117429527407" x2="297.66117429527407" y1="0.5" y2="30"/><line opacity="0.2" x1="246.26653462514764" x2="246.26653462514764" y1="0.5" y2="30"/><line opacity="0.2" x1="350.2314289245354" x2="350.2314289245354" y1="0.5" y2="30"/><line opacity="0.2" x1="267.17923886737" x2="267.17923886737" y1="0.5" y2="30"/><line opacity="0.2" x1="279.9818873792648" x2="279.9818873792648" y1="0.5" y2="30"/><line opacity="0.2" x1="381.3544259101679" x2="381.3544259101679" y1="0.5" y2="30"/><line opacity="0.2" x1="283.0029999687605" x2="283.0029999687605" y1="0.5" y2="30"/><line opacity="0.2" x1="335.445827200016" x2="335.445827200016" y1="0.5" y2="30"/><line opacity="0.2" x1="321.5641781546176" x2="321.5641781546176" y1="0.5" y2="30"/><line opacity="0.2" x1="362.901475507193" x2="362.901475507193" y1="0.5" y2="30"/><line opacity="0.2" x1="269.85366532011454" x2="269.85366532011454" y1="0.5" y2="30"/><line opacity="0.2" x1="350.93808163825736" x2="350.93808163825736" y1="0.5" y2="30"/><line opacity="0.2" x1="255.6036150589511" x2="255.6036150589511" y1="0.5" y2="30"/><line opacity="0.2" x1="341.499140512744" x2="341.499140512744" y1="0.5" y2="30"/><line opacity="0.2" x1="353.7441269150089" x2="353.7441269150089" y1="0.5" y2="30"/><line opacity="0.2" x1="269.8642647152878" x2="269.8642647152878" y1="0.5" y2="30"/><line opacity="0.2" x1="371.7738330154223" x2="371.7738330154223" y1="0.5" y2="30"/><line opacity="0.2" x1="196.8733439847757" x2="196.8733439847757" y1="0.5" y2="30"/><line opacity="0.2" x1="437.73767562480003" x2="437.73767562480003" y1="0.5" y2="30"/><line opacity="0.2" x1="308.52087744119746" x2="308.52087744119746" y1="0.5" y2="30"/><line opacity="0.2" x1="341.5642118214132" x2="341.5642118214132" y1="0.5" y2="30"/><line opacity="0.2" x1="289.7617220276292" x2="289.7617220276292" y1="0.5" y2="30"/><line opacity="0.2" x1="293.0368739943552" x2="293.0368739943552" y1="0.5" y2="30"/><line opacity="0.2" x1="344.5136724053748" x2="344.5136724053748" y1="0.5" y2="30"/><line opacity="0.2" x1="456.3094785924473" x2="456.3094785924473" y1="0.5" y2="30"/><line opacity="0.2" x1="399.76783393901053" x2="399.76783393901053" y1="0.5" y2="30"/><line opacity="0.2" x1="244.83576936219296" x2="244.83576936219296" y1="0.5" y2="30"/><line opacity="0.2" x1="415.8197233378608" x2="415.8197233378608" y1="0.5" y2="30"/><line opacity="0.2" x1="265.1206042796429" x2="265.1206042796429" y1="0.5" y2="30"/><line opacity="0.2" x1="311.38655262814945" x2="311.38655262814945" y1="0.5" y2="30"/><line opacity="0.2" x1="252.68127515614955" x2="252.68127515614955" y1="0.5" y2="30"/><line opacity="0.2" x1="292.1224497415163" x2="292.1224497415163" y1="0.5" y2="30"/><line opacity="0.2" x1="434.19070937627674" x2="434.19070937627674" y1="0.5" y2="30"/><line opacity="0.2" x1="259.3384598486029" x2="259.3384598486029" y1="0.5" y2="30"/><line opacity="0.2" x1="199.7448866478884" x2="199.7448866478884" y1="0.5" y2="30"/><line opacity="0.2" x1="435.03640201331257" x2="435.03640201331257" y1="0.5" y2="30"/><line opacity="0.2" x1="289.51755002708387" x2="289.51755002708387" y1="0.5" y2="30"/><line opacity="0.2" x1="403.8274284495937" x2="403.8274284495937" y1="0.5" y2="30"/><line opacity="0.2" x1="418.1774266502245" x2="418.1774266502245" y1="0.5" y2="30"/><line opacity="0.2" x1="236.09766334375544" x2="236.09766334375544" y1="0.5" y2="30"/><line opacity="0.2" x1="374.27979653140056" x2="374.27979653140056" y1="0.5" y2="30"/><line opacity="0.2" x1="186.51696691066704" x2="186.51696691066704" y1="0.5" y2="30"/><line opacity="0.2" x1="304.89770245950433" x2="304.89770245950433" y1="0.5" y2="30"/><line opacity="0.2" x1="396.6671771968305" x2="396.6671771968305" y1="0.5" y2="30"/><line opacity="0.2" x1="172.73034281667492" x2="172.73034281667492" y1="0.5" y2="30"/><line opacity="0.2" x1="276.0113167663672" x2="276.0113167663672" y1="0.5" y2="30"/><line opacity="0.2" x1="470.4865909191887" x2="470.4865909191887" y1="0.5" y2="30"/><line opacity="0.2" x1="250.9416370382585" x2="250.9416370382585" y1="0.5" y2="30"/><line opacity="0.2" x1="240.78356658277335" x2="240.78356658277335" y1="0.5" y2="30"/><line opacity="0.2" x1="520.8138563627864" x2="520.8138563627864" y1="0.5" y2="30"/><line opacity="0.2" x1="244.92622584790084" x2="244.92622584790084" y1="0.5" y2="30"/><line opacity="0.2" x1="231.04836078986455" x2="231.04836078986455" y1="0.5" y2="30"/><line opacity="0.2" x1="179.0325873719422" x2="179.0325873719422" y1="0.5" y2="30"/><line opacity="0.2" x1="400.1260069068197" x2="400.1260069068197" y1="0.5" y2="30"/><line opacity="0.2" x1="295.30317141855846" x2="295.30317141855846" y1="0.5" y2="30"/><line opacity="0.2" x1="246.6439541322667" x2="246.6439541322667" y1="0.5" y2="30"/><line opacity="0.2" x1="259.3605293341081" x2="259.3605293341081" y1="0.5" y2="30"/><line opacity="0.2" x1="273.450625458438" x2="273.450625458438" y1="0.5" y2="30"/><line opacity="0.2" x1="281.609770886888" x2="281.609770886888" y1="0.5" y2="30"/><line opacity="0.2" x1="313.21562320398743" x2="313.21562320398743" y1="0.5" y2="30"/><line opacity="0.2" x1="306.71007489490756" x2="306.71007489490756" y1="0.5" y2="30"/><line opacity="0.2" x1="273.1226804994651" x2="273.1226804994651" y1="0.5" y2="30"/><line opacity="0.2" x1="270.06507137827134" x2="270.06507137827134" y1="0.5" y2="30"/><line opacity="0.2" x1="327.72826166243266" x2="327.72826166243266" y1="0.5" y2="30"/><line opacity="0.2" x1="360.01572121297943" x2="360.01572121297943" y1="0.5" y2="30"/><line opacity="0.2" x1="245.22647993177364" x2="245.22647993177364" y1="0.5" y2="30"/><line opacity="0.2" x1="350.45365189934955" x2="350.45365189934955" y1="0.5" y2="30"/><line opacity="0.2" x1="403.3202961068482" x2="403.3202961068482" y1="0.5" y2="30"/><line opacity="0.2" x1="447.86390519273317" x2="447.86390519273317" y1="0.5" y2="30"/><line opacity="0.2" x1="271.78972109256324" x2="271.78972109256324" y1="0.5" y2="30"/><line opacity="0.2" x1="130.6587126553839" x2="130.6587126553839" y1="0.5" y2="30"/><line opacity="0.2" x1="333.9160517791752" x2="333.9160517791752" y1="0.5" y2="30"/><line opacity="0.2" x1="400.102959322391" x2="400.102959322391" y1="0.5" y2="30"/><line opacity="0.2" x1="268.9243947361914" x2="268.9243947361914" y1="0.5" y2="30"/><line opacity="0.2" x1="467.61225895381995" x2="467.61225895381995" y1="0.5" y2="30"/><line opacity="0.2" x1="234.03462773039809" x2="234.03462773039809" y1="0.5" y2="30"/><line opacity="0.2" x1="326.0819962753509" x2="326.0819962753509" y1="0.5" y2="30"/><line opacity="0.2" x1="474.9094009572825" x2="474.9094009572825" y1="0.5" y2="30"/><line opacity="0.2" x1="382.9752442312649" x2="382.9752442312649" y1="0.5" y2="30"/><line opacity="0.2" x1="335.09023587232645" x2="335.09023587232645" y1="0.5" y2="30"/><line opacity="0.2" x1="360.71386800103164" x2="360.71386800103164" y1="0.5" y2="30"/><line opacity="0.2" x1="381.2681498283267" x2="381.2681498283267" y1="0.5" y2="30"/><line opacity="0.2" x1="388.2532244799363" x2="388.2532244799363" y1="0.5" y2="30"/><line opacity="0.2" x1="216.25993162459503" x2="216.25993162459503" y1="0.5" y2="30"/><line opacity="0.2" x1="375.7030917038225" x2="375.7030917038225" y1="0.5" y2="30"/><line opacity="0.2" x1="249.17563773934063" x2="249.17563773934063" y1="0.5" y2="30"/><line opacity="0.2" x1="367.8494290145849" x2="367.8494290145849" y1="0.5" y2="30"/><line opacity="0.2" x1="328.5273384378209" x2="328.5273384378209" y1="0.5" y2="30"/><line opacity="0.2" x1="367.4098894767914" x2="367.4098894767914" y1="0.5" y2="30"/><line opacity="0.2" x1="438.45050110708" x2="438.45050110708" y1="0.5" y2="30"/><line opacity="0.2" x1="372.06960805672475" x2="372.06960805672475" y1="0.5" y2="30"/><line opacity="0.2" x1="308.8850723307133" x2="308.8850723307133" y1="0.5" y2="30"/><line opacity="0.2" x1="385.1050517658529" x2="385.1050517658529" y1="0.5" y2="30"/><line opacity="0.2" x1="345.0114054234354" x2="345.0114054234354" y1="0.5" y2="30"/><line opacity="0.2" x1="371.4460828255639" x2="371.4460828255639" y1="0.5" y2="30"/><line opacity="0.2" x1="208.4316892441122" x2="208.4316892441122" y1="0.5" y2="30"/><line opacity="0.2" x1="348.9729737185884" x2="348.9729737185884" y1="0.5" y2="30"/><line opacity="0.2" x1="362.172009147092" x2="362.172009147092" y1="0.5" y2="30"/><line opacity="0.2" x1="211.69103456212153" x2="211.69103456212153" y1="0.5" y2="30"/><line opacity="0.2" x1="395.4410424169994" x2="395.4410424169994" y1="0.5" y2="30"/><line opacity="0.2" x1="290.6956479672097" x2="290.6956479672097" y1="0.5" y2="30"/><line opacity="0.2" x1="350.68683941660504" x2="350.68683941660504" y1="0.5" y2="30"/><line opacity="0.2" x1="373.7578006038937" x2="373.7578006038937" y1="0.5" y2="30"/><line opacity="0.2" x1="272.9348397726866" x2="272.9348397726866" y1="0.5" y2="30"/><line opacity="0.2" x1="196.3774794200106" x2="196.3774794200106" y1="0.5" y2="30"/><line opacity="0.2" x1="283.9780434239783" x2="283.9780434239783" y1="0.5" y2="30"/><line opacity="0.2" x1="318.3631535312154" x2="318.3631535312154" y1="0.5" y2="30"/><line opacity="0.2" x1="143.57803466477185" x2="143.57803466477185" y1="0.5" y2="30"/><line opacity="0.2" x1="369.26650074670647" x2="369.26650074670647" y1="0.5" y2="30"/><line opacity="0.2" x1="280.68343001125686" x2="280.68343001125686" y1="0.5" y2="30"/><line opacity="0.2" x1="387.39272430528297" x2="387.39272430528297" y1="0.5" y2="30"/><line opacity="0.2" x1="220.32793922780724" x2="220.32793922780724" y1="0.5" y2="30"/><line opacity="0.2" x1="390.7027189679619" x2="390.7027189679619" y1="0.5" y2="30"/><line opacity="0.2" x1="429.5475474803832" x2="429.5475474803832" y1="0.5" y2="30"/><line opacity="0.2" x1="285.29305274245485" x2="285.29305274245485" y1="0.5" y2="30"/><line opacity="0.2" x1="350.59456693709365" x2="350.59456693709365" y1="0.5" y2="30"/><line opacity="0.2" x1="336.8299972418076" x2="336.8299972418076" y1="0.5" y2="30"/><line opacity="0.2" x1="480.5019233507786" x2="480.5019233507786" y1="0.5" y2="30"/><line opacity="0.2" x1="251.36461231621303" x2="251.36461231621303" y1="0.5" y2="30"/><line opacity="0.2" x1="291.2237036275282" x2="291.2237036275282" y1="0.5" y2="30"/><line opacity="0.2" x1="308.6791527142896" x2="308.6791527142896" y1="0.5" y2="30"/><line opacity="0.2" x1="385.0492613842017" x2="385.0492613842017" y1="0.5" y2="30"/><line opacity="0.2" x1="228.50738136467325" x2="228.50738136467325" y1="0.5" y2="30"/><line opacity="0.2" x1="370.0925911283019" x2="370.0925911283019" y1="0.5" y2="30"/><line opacity="0.2" x1="269.65177463028215" x2="269.65177463028215" y1="0.5" y2="30"/><line opacity="0.2" x1="400.35739596333184" x2="400.35739596333184" y1="0.5" y2="30"/><line opacity="0.2" x1="418.3643836940556" x2="418.3643836940556" y1="0.5" y2="30"/><line opacity="0.2" x1="312.8146625626746" x2="312.8146625626746" y1="0.5" y2="30"/><line opacity="0.2" x1="331.9469768165313" x2="331.9469768165313" y1="0.5" y2="30"/><line opacity="0.2" x1="308.76437001518497" x2="308.76437001518497" y1="0.5" y2="30"/><line opacity="0.2" x1="471.29927729317143" x2="471.29927729317143" y1="0.5" y2="30"/><line opacity="0.2" x1="423.5692494880664" x2="423.5692494880664" y1="0.5" y2="30"/><line opacity="0.2" x1="346.7032610728649" x2="346.7032610728649" y1="0.5" y2="30"/><line opacity="0.2" x1="432.3685846661111" x2="432.3685846661111" y1="0.5" y2="30"/><line opacity="0.2" x1="376.8857881317263" x2="376.8857881317263" y1="0.5" y2="30"/><line opacity="0.2" x1="223.17920949540976" x2="223.17920949540976" y1="0.5" y2="30"/><line opacity="0.2" x1="333.199905662168" x2="333.199905662168" y1="0.5" y2="30"/><line opacity="0.2" x1="223.67138161836246" x2="223.67138161836246" y1="0.5" y2="30"/><line opacity="0.2" x1="227.96602911638223" x2="227.96602911638223" y1="0.5" y2="30"/><line opacity="0.2" x1="251.83422126061583" x2="251.83422126061583" y1="0.5" y2="30"/><line opacity="0.2" x1="260.56211656380935" x2="260.56211656380935" y1="0.5" y2="30"/><line opacity="0.2" x1="267.7052175856789" x2="267.7052175856789" y1="0.5" y2="30"/><line opacity="0.2" x1="371.70169139409245" x2="371.70169139409245" y1="0.5" y2="30"/><line opacity="0.2" x1="377.119453126245" x2="377.119453126245" y1="0.5" y2="30"/><line opacity="0.2" x1="341.26923287443253" x2="341.26923287443253" y1="0.5" y2="30"/><line opacity="0.2" x1="272.83553978340876" x2="272.83553978340876" y1="0.5" y2="30"/><line opacity="0.2" x1="457.010769459382" x2="457.010769459382" y1="0.5" y2="30"/><line opacity="0.2" x1="359.57557699070173" x2="359.57557699070173" y1="0.5" y2="30"/><line opacity="0.2" x1="373.65430014799995" x2="373.65430014799995" y1="0.5" y2="30"/><line opacity="0.2" x1="182.69899206169163" x2="182.69899206169163" y1="0.5" y2="30"/><line opacity="0.2" x1="356.76804494928956" x2="356.76804494928956" y1="0.5" y2="30"/><line opacity="0.2" x1="357.2219668847568" x2="357.2219668847568" y1="0.5" y2="30"/><line opacity="0.2" x1="301.23787291320394" x2="301.23787291320394" y1="0.5" y2="30"/><line opacity="0.2" x1="448.8757168465156" x2="448.8757168465156" y1="0.5" y2="30"/><line opacity="0.2" x1="217.4935461905314" x2="217.4935461905314" y1="0.5" y2="30"/><line opacity="0.2" x1="384.92201081602553" x2="384.92201081602553" y1="0.5" y2="30"/><line opacity="0.2" x1="403.7634990397655" x2="403.7634990397655" y1="0.5" y2="30"/><line opacity="0.2" x1="370.58519192585317" x2="370.58519192585317" y1="0.5" y2="30"/><line opacity="0.2" x1="186.2007057535222" x2="186.2007057535222" y1="0.5" y2="30"/><line opacity="0.2" x1="333.72203582436384" x2="333.72203582436384" y1="0.5" y2="30"/><line opacity="0.2" x1="218.5969368881685" x2="218.5969368881685" y1="0.5" y2="30"/><line opacity="0.2" x1="306.7098236040079" x2="306.7098236040079" y1="0.5" y2="30"/><line opacity="0.2" x1="386.09846454817443" x2="386.09846454817443" y1="0.5" y2="30"/><line opacity="0.2" x1="382.2540646680588" x2="382.2540646680588" y1="0.5" y2="30"/><line opacity="0.2" x1="296.9684546531781" x2="296.9684546531781" y1="0.5" y2="30"/><line opacity="0.2" x1="420.0647528476077" x2="420.0647528476077" y1="0.5" y2="30"/><line opacity="0.2" x1="301.60472017241045" x2="301.60472017241045" y1="0.5" y2="30"/><line opacity="0.2" x1="160.76436216953735" x2="160.76436216953735" y1="0.5" y2="30"/><line opacity="0.2" x1="139.12721655719648" x2="139.12721655719648" y1="0.5" y2="30"/><line opacity="0.2" x1="352.94330000061393" x2="352.94330000061393" y1="0.5" y2="30"/><line opacity="0.2" x1="406.7531860196388" x2="406.7531860196388" y1="0.5" y2="30"/><line opacity="0.2" x1="339.9702298069225" x2="339.9702298069225" y1="0.5" y2="30"/><line opacity="0.2" x1="450.2513879945387" x2="450.2513879945387" y1="0.5" y2="30"/><line opacity="0.2" x1="245.95004989265115" x2="245.95004989265115" y1="0.5" y2="30"/><line opacity="0.2" x1="196.64196946247415" x2="196.64196946247415" y1="0.5" y2="30"/><line opacity="0.2" x1="417.35445149176456" x2="417.35445149176456" y1="0.5" y2="30"/><line opacity="0.2" x1="343.3033372619727" x2="343.3033372619727" y1="0.5" y2="30"/><line opacity="0.2" x1="258.2598623645835" x2="258.2598623645835" y1="0.5" y2="30"/><line opacity="0.2" x1="366.3101256018443" x2="366.3101256018443" y1="0.5" y2="30"/><line opacity="0.2" x1="384.4251641984947" x2="384.4251641984947" y1="0.5" y2="30"/><line opacity="0.2" x1="301.77381620157774" x2="301.77381620157774" y1="0.5" y2="30"/><line opacity="0.2" x1="404.7496205994477" x2="404.7496205994477" y1="0.5" y2="30"/><line opacity="0.2" x1="365.9300236707621" x2="365.9300236707621" y1="0.5" y2="30"/><line opacity="0.2" x1="328.78113971147945" x2="328.78113971147945" y1="0.5" y2="30"/><line opacity="0.2" x1="188.13723826130857" x2="188.13723826130857" y1="0.5" y2="30"/><line opacity="0.2" x1="272.3609411010954" x2="272.3609411010954" y1="0.5" y2="30"/><line opacity="0.2" x1="367.96386391641863" x2="367.96386391641863" y1="0.5" y2="30"/><line opacity="0.2" x1="216.61259372391004" x2="216.61259372391004" y1="0.5" y2="30"/><line opacity="0.2" x1="302.04361270667096" x2="302.04361270667096" y1="0.5" y2="30"/><line opacity="0.2" x1="277.5561277537076" x2="277.5561277537076" y1="0.5" y2="30"/><line opacity="0.2" x1="367.92356654108625" x2="367.92356654108625" y1="0.5" y2="30"/><line opacity="0.2" x1="359.1864281461307" x2="359.1864281461307" y1="0.5" y2="30"/><line opacity="0.2" x1="414.95828982704404" x2="414.95828982704404" y1="0.5" y2="30"/><line opacity="0.2" x1="156.68442927029514" x2="156.68442927029514" y1="0.5" y2="30"/><line opacity="0.2" x1="217.45469353344015" x2="217.45469353344015" y1="0.5" y2="30"/><line opacity="0.2" x1="327.23936342563695" x2="327.23936342563695" y1="0.5" y2="30"/><line opacity="0.2" x1="281.57843622690825" x2="281.57843622690825" y1="0.5" y2="30"/><line opacity="0.2" x1="202.86876490137888" x2="202.86876490137888" y1="0.5" y2="30"/><line opacity="0.2" x1="325.8817863970331" x2="325.8817863970331" y1="0.5" y2="30"/><line opacity="0.2" x1="336.69722825054066" x2="336.69722825054066" y1="0.5" y2="30"/><line opacity="0.2" x1="470.9943467449815" x2="470.9943467449815" y1="0.5" y2="30"/><line opacity="0.2" x1="379.3926918518942" x2="379.3926918518942" y1="0.5" y2="30"/><line opacity="0.2" x1="415.5635230579382" x2="415.5635230579382" y1="0.5" y2="30"/><line opacity="0.2" x1="389.50734970368643" x2="389.50734970368643" y1="0.5" y2="30"/><line opacity="0.2" x1="194.55144572624698" x2="194.55144572624698" y1="0.5" y2="30"/><line opacity="0.2" x1="237.97646753567795" x2="237.97646753567795" y1="0.5" y2="30"/><line opacity="0.2" x1="194.05333128493305" x2="194.05333128493305" y1="0.5" y2="30"/><line opacity="0.2" x1="410.32918497080396" x2="410.32918497080396" y1="0.5" y2="30"/><line opacity="0.2" x1="290.03957575393093" x2="290.03957575393093" y1="0.5" y2="30"/><line opacity="0.2" x1="262.04838772158894" x2="262.04838772158894" y1="0.5" y2="30"/><line opacity="0.2" x1="312.2919950872918" x2="312.2919950872918" y1="0.5" y2="30"/><line opacity="0.2" x1="214.33796478563386" x2="214.33796478563386" y1="0.5" y2="30"/><line opacity="0.2" x1="375.0093568886107" x2="375.0093568886107" y1="0.5" y2="30"/><line opacity="0.2" x1="295.7309273346853" x2="295.7309273346853" y1="0.5" y2="30"/><line opacity="0.2" x1="346.7936142950891" x2="346.7936142950891" y1="0.5" y2="30"/><line opacity="0.2" x1="359.64038205965284" x2="359.64038205965284" y1="0.5" y2="30"/><line opacity="0.2" x1="267.33787498266986" x2="267.33787498266986" y1="0.5" y2="30"/><line opacity="0.2" x1="363.4403743031335" x2="363.4403743031335" y1="0.5" y2="30"/><line opacity="0.2" x1="442.21459748345285" x2="442.21459748345285" y1="0.5" y2="30"/><line opacity="0.2" x1="389.585745939358" x2="389.585745939358" y1="0.5" y2="30"/><line opacity="0.2" x1="271.32114515849577" x2="271.32114515849577" y1="0.5" y2="30"/><line opacity="0.2" x1="352.7267914963601" x2="352.7267914963601" y1="0.5" y2="30"/><line opacity="0.2" x1="270.45516960921043" x2="270.45516960921043" y1="0.5" y2="30"/><line opacity="0.2" x1="478.32117294626175" x2="478.32117294626175" y1="0.5" y2="30"/><line opacity="0.2" x1="232.79268164832493" x2="232.79268164832493" y1="0.5" y2="30"/><line opacity="0.2" x1="281.8850527503479" x2="281.8850527503479" y1="0.5" y2="30"/><line opacity="0.2" x1="343.7316400814601" x2="343.7316400814601" y1="0.5" y2="30"/><line opacity="0.2" x1="278.68741222248366" x2="278.68741222248366" y1="0.5" y2="30"/><line opacity="0.2" x1="238.47599005079763" x2="238.47599005079763" y1="0.5" y2="30"/><line opacity="0.2" x1="293.0347967482307" x2="293.0347967482307" y1="0.5" y2="30"/><line opacity="0.2" x1="341.5348103739836" x2="341.5348103739836" y1="0.5" y2="30"/><line opacity="0.2" x1="277.7592830137236" x2="277.7592830137236" y1="0.5" y2="30"/><line opacity="0.2" x1="247.50262151364558" x2="247.50262151364558" y1="0.5" y2="30"/><line opacity="0.2" x1="417.5524210943071" x2="417.5524210943071" y1="0.5" y2="30"/><line opacity="0.2" x1="312.31261373667843" x2="312.31261373667843" y1="0.5" y2="30"/><line opacity="0.2" x1="345.1803234327377" x2="345.1803234327377" y1="0.5" y2="30"/><line opacity="0.2" x1="401.669181235031" x2="401.669181235031" y1="0.5" y2="30"/><line opacity="0.2" x1="317.13803107274424" x2="317.13803107274424" y1="0.5" y2="30"/><line opacity="0.2" x1="501.14677589415646" x2="501.14677589415646" y1="0.5" y2="30"/><line opacity="0.2" x1="373.9090906127846" x2="373.9090906127846" y1="0.5" y2="30"/><line opacity="0.2" x1="364.9509051744293" x2="364.9509051744293" y1="0.5" y2="30"/><line opacity="0.2" x1="346.5499631582843" x2="346.5499631582843" y1="0.5" y2="30"/><line opacity="0.2" x1="411.1377723217864" x2="411.1377723217864" y1="0.5" y2="30"/><line opacity="0.2" x1="185.24327072032196" x2="185.24327072032196" y1="0.5" y2="30"/><line opacity="0.2" x1="401.108586364456" x2="401.108586364456" y1="0.5" y2="30"/><line opacity="0.2" x1="422.1577460971529" x2="422.1577460971529" y1="0.5" y2="30"/><line opacity="0.2" x1="82.7068204230943" x2="82.7068204230943" y1="0.5" y2="30"/><line opacity="0.2" x1="383.846489972091" x2="383.846489972091" y1="0.5" y2="30"/><line opacity="0.2" x1="253.11172816433924" x2="253.11172816433924" y1="0.5" y2="30"/><line opacity="0.2" x1="269.7648636286814" x2="269.7648636286814" y1="0.5" y2="30"/><line opacity="0.2" x1="374.0085873895009" x2="374.0085873895009" y1="0.5" y2="30"/><line opacity="0.2" x1="391.2243823694846" x2="391.2243823694846" y1="0.5" y2="30"/><line opacity="0.2" x1="233.0948687625616" x2="233.0948687625616" y1="0.5" y2="30"/><line opacity="0.2" x1="180.60306470889003" x2="180.60306470889003" y1="0.5" y2="30"/><line opacity="0.2" x1="185.3651600691936" x2="185.3651600691936" y1="0.5" y2="30"/><line opacity="0.2" x1="348.4116935344919" x2="348.4116935344919" y1="0.5" y2="30"/><line opacity="0.2" x1="378.65908186497484" x2="378.65908186497484" y1="0.5" y2="30"/><line opacity="0.2" x1="409.11567350584295" x2="409.11567350584295" y1="0.5" y2="30"/><line opacity="0.2" x1="202.08616094887492" x2="202.08616094887492" y1="0.5" y2="30"/><line opacity="0.2" x1="503.5220838807261" x2="503.5220838807261" y1="0.5" y2="30"/><line opacity="0.2" x1="309.33724715296125" x2="309.33724715296125" y1="0.5" y2="30"/><line opacity="0.2" x1="328.1957668611421" x2="328.1957668611421" y1="0.5" y2="30"/><line opacity="0.2" x1="235.01528536655263" x2="235.01528536655263" y1="0.5" y2="30"/><line opacity="0.2" x1="398.678821855936" x2="398.678821855936" y1="0.5" y2="30"/><line opacity="0.2" x1="325.281924285078" x2="325.281924285078" y1="0.5" y2="30"/><line opacity="0.2" x1="376.307641020417" x2="376.307641020417" y1="0.5" y2="30"/><line opacity="0.2" x1="386.160563771032" x2="386.160563771032" y1="0.5" y2="30"/><line opacity="0.2" x1="374.3286548616748" x2="374.3286548616748" y1="0.5" y2="30"/><line opacity="0.2" x1="217.19543378025267" x2="217.19543378025267" y1="0.5" y2="30"/><line opacity="0.2" x1="173.2760235603149" x2="173.2760235603149" y1="0.5" y2="30"/><line opacity="0.2" x1="441.83846296145106" x2="441.83846296145106" y1="0.5" y2="30"/><line opacity="0.2" x1="298.47998437773236" x2="298.47998437773236" y1="0.5" y2="30"/><line opacity="0.2" x1="395.839755117209" x2="395.839755117209" y1="0.5" y2="30"/><line opacity="0.2" x1="262.30349924880716" x2="262.30349924880716" y1="0.5" y2="30"/><line opacity="0.2" x1="284.16447329728715" x2="284.16447329728715" y1="0.5" y2="30"/><line opacity="0.2" x1="303.14847582885903" x2="303.14847582885903" y1="0.5" y2="30"/><line opacity="0.2" x1="370.37624060382615" x2="370.37624060382615" y1="0.5" y2="30"/><line opacity="0.2" x1="212.0112054008489" x2="212.0112054008489" y1="0.5" y2="30"/><line opacity="0.2" x1="313.65022813294695" x2="313.65022813294695" y1="0.5" y2="30"/><line opacity="0.2" x1="288.77557085862384" x2="288.77557085862384" y1="0.5" y2="30"/><line opacity="0.2" x1="357.31787153329486" x2="357.31787153329486" y1="0.5" y2="30"/><line opacity="0.2" x1="122.66978822487899" x2="122.66978822487899" y1="0.5" y2="30"/><line opacity="0.2" x1="382.8217244766439" x2="382.8217244766439" y1="0.5" y2="30"/><line opacity="0.2" x1="281.47536032777367" x2="281.47536032777367" y1="0.5" y2="30"/><line opacity="0.2" x1="394.0950200576419" x2="394.0950200576419" y1="0.5" y2="30"/><line opacity="0.2" x1="371.62017776996674" x2="371.62017776996674" y1="0.5" y2="30"/><line opacity="0.2" x1="272.2236958079603" x2="272.2236958079603" y1="0.5" y2="30"/><line opacity="0.2" x1="207.52966153177738" x2="207.52966153177738" y1="0.5" y2="30"/><line opacity="0.2" x1="324.2071264909656" x2="324.2071264909656" y1="0.5" y2="30"/><line opacity="0.2" x1="221.36619615534153" x2="221.36619615534153" y1="0.5" y2="30"/><line opacity="0.2" x1="271.2552227146549" x2="271.2552227146549" y1="0.5" y2="30"/><line opacity="0.2" x1="413.68389428532595" x2="413.68389428532595" y1="0.5" y2="30"/><line opacity="0.2" x1="271.8441248947764" x2="271.8441248947764" y1="0.5" y2="30"/><line opacity="0.2" x1="354.97263882051925" x2="354.97263882051925" y1="0.5" y2="30"/><line opacity="0.2" x1="346.7334472253181" x2="346.7334472253181" y1="0.5" y2="30"/><line opacity="0.2" x1="167.05943536513175" x2="167.05943536513175" y1="0.5" y2="30"/><line opacity="0.2" x1="255.20621698665104" x2="255.20621698665104" y1="0.5" y2="30"/><line opacity="0.2" x1="528.4125147380228" x2="528.4125147380228" y1="0.5" y2="30"/><line opacity="0.2" x1="432.18301869955474" x2="432.18301869955474" y1="0.5" y2="30"/><line opacity="0.2" x1="258.1936141410558" x2="258.1936141410558" y1="0.5" y2="30"/><line opacity="0.2" x1="309.09405006365296" x2="309.09405006365296" y1="0.5" y2="30"/><line opacity="0.2" x1="374.95210025188214" x2="374.95210025188214" y1="0.5" y2="30"/><line opacity="0.2" x1="462.6345562226906" x2="462.6345562226906" y1="0.5" y2="30"/><line opacity="0.2" x1="203.78637176082154" x2="203.78637176082154" y1="0.5" y2="30"/><line opacity="0.2" x1="338.8482388459048" x2="338.8482388459048" y1="0.5" y2="30"/><line opacity="0.2" x1="461.46174094915955" x2="461.46174094915955" y1="0.5" y2="30"/><line opacity="0.2" x1="443.21415183649833" x2="443.21415183649833" y1="0.5" y2="30"/><line opacity="0.2" x1="334.6516233671045" x2="334.6516233671045" y1="0.5" y2="30"/><line opacity="0.2" x1="496.7022801573126" x2="496.7022801573126" y1="0.5" y2="30"/><line opacity="0.2" x1="505.13599579678055" x2="505.13599579678055" y1="0.5" y2="30"/><line opacity="0.2" x1="308.1868176671368" x2="308.1868176671368" y1="0.5" y2="30"/><line opacity="0.2" x1="309.0347639117154" x2="309.0347639117154" y1="0.5" y2="30"/><line opacity="0.2" x1="362.75677711756344" x2="362.75677711756344" y1="0.5" y2="30"/><line opacity="0.2" x1="129.80880443069537" x2="129.80880443069537" y1="0.5" y2="30"/><line opacity="0.2" x1="445.33608374159013" x2="445.33608374159013" y1="0.5" y2="30"/><line opacity="0.2" x1="277.275255665913" x2="277.275255665913" y1="0.5" y2="30"/><line opacity="0.2" x1="272.35848613940664" x2="272.35848613940664" y1="0.5" y2="30"/><line opacity="0.2" x1="423.3330911002896" x2="423.3330911002896" y1="0.5" y2="30"/><line opacity="0.2" x1="447.2385598769518" x2="447.2385598769518" y1="0.5" y2="30"/><line opacity="0.2" x1="246.90152434691066" x2="246.90152434691066" y1="0.5" y2="30"/><line opacity="0.2" x1="403.4861959527698" x2="403.4861959527698" y1="0.5" y2="30"/><line opacity="0.2" x1="211.09702699480385" x2="211.09702699480385" y1="0.5" y2="30"/><line opacity="0.2" x1="175.51119161846862" x2="175.51119161846862" y1="0.5" y2="30"/><line opacity="0.2" x1="334.1020188959651" x2="334.1020188959651" y1="0.5" y2="30"/><line opacity="0.2" x1="242.0955910979716" x2="242.0955910979716" y1="0.5" y2="30"/><line opacity="0.2" x1="412.2089040154749" x2="412.2089040154749" y1="0.5" y2="30"/><line opacity="0.2" x1="420.2421251966449" x2="420.2421251966449" y1="0.5" y2="30"/><line opacity="0.2" x1="218.01073789555852" x2="218.01073789555852" y1="0.5" y2="30"/><line opacity="0.2" x1="247.90771683805005" x2="247.90771683805005" y1="0.5" y2="30"/><line opacity="0.2" x1="208.04813186298884" x2="208.04813186298884" y1="0.5" y2="30"/><line opacity="0.2" x1="491.7208130625136" x2="491.7208130625136" y1="0.5" y2="30"/><line opacity="0.2" x1="358.02277168806415" x2="358.02277168806415" y1="0.5" y2="30"/><line opacity="0.2" x1="328.678420962495" x2="328.678420962495" y1="0.5" y2="30"/><line opacity="0.2" x1="267.132518590894" x2="267.132518590894" y1="0.5" y2="30"/><line opacity="0.2" x1="345.79731899759577" x2="345.79731899759577" y1="0.5" y2="30"/><line opacity="0.2" x1="311.7425441095695" x2="311.7425441095695" y1="0.5" y2="30"/><line opacity="0.2" x1="278.9644873084476" x2="278.9644873084476" y1="0.5" y2="30"/><line opacity="0.2" x1="310.2175779764893" x2="310.2175779764893" y1="0.5" y2="30"/><line opacity="0.2" x1="326.5959267913355" x2="326.5959267913355" y1="0.5" y2="30"/><line opacity="0.2" x1="380.1291635786941" x2="380.1291635786941" y1="0.5" y2="30"/><line opacity="0.2" x1="401.27677171423727" x2="401.27677171423727" y1="0.5" y2="30"/><line opacity="0.2" x1="304.4417902804063" x2="304.4417902804063" y1="0.5" y2="30"/><line opacity="0.2" x1="427.29092172446894" x2="427.29092172446894" y1="0.5" y2="30"/><line opacity="0.2" x1="348.42338516728853" x2="348.42338516728853" y1="0.5" y2="30"/><line opacity="0.2" x1="311.8273836610222" x2="311.8273836610222" y1="0.5" y2="30"/><line opacity="0.2" x1="372.8960757572371" x2="372.8960757572371" y1="0.5" y2="30"/><line opacity="0.2" x1="295.9206535206621" x2="295.9206535206621" y1="0.5" y2="30"/><line opacity="0.2" x1="275.016154862842" x2="275.016154862842" y1="0.5" y2="30"/><line opacity="0.2" x1="211.2867831187624" x2="211.2867831187624" y1="0.5" y2="30"/><line opacity="0.2" x1="344.1682081085962" x2="344.1682081085962" y1="0.5" y2="30"/><line opacity="0.2" x1="339.41320019729756" x2="339.41320019729756" y1="0.5" y2="30"/><line opacity="0.2" x1="271.09442397357833" x2="271.09442397357833" y1="0.5" y2="30"/><line opacity="0.2" x1="313.0009954532484" x2="313.0009954532484" y1="0.5" y2="30"/><line opacity="0.2" x1="325.13945744756455" x2="325.13945744756455" y1="0.5" y2="30"/><line opacity="0.2" x1="318.25421125513486" x2="318.25421125513486" y1="0.5" y2="30"/><line opacity="0.2" x1="308.6110302296264" x2="308.6110302296264" y1="0.5" y2="30"/><line opacity="0.2" x1="379.70699564237566" x2="379.70699564237566" y1="0.5" y2="30"/><line opacity="0.2" x1="283.1115951500236" x2="283.1115951500236" y1="0.5" y2="30"/><line opacity="0.2" x1="254.87354899511988" x2="254.87354899511988" y1="0.5" y2="30"/><line opacity="0.2" x1="394.39480143296487" x2="394.39480143296487" y1="0.5" y2="30"/><line opacity="0.2" x1="396.58790124763806" x2="396.58790124763806" y1="0.5" y2="30"/><line opacity="0.2" x1="291.4866459619972" x2="291.4866459619972" y1="0.5" y2="30"/><line opacity="0.2" x1="339.6906258947537" x2="339.6906258947537" y1="0.5" y2="30"/><line opacity="0.2" x1="413.59759837837413" x2="413.59759837837413" y1="0.5" y2="30"/><line opacity="0.2" x1="274.6537377683155" x2="274.6537377683155" y1="0.5" y2="30"/><line opacity="0.2" x1="206.67584539853942" x2="206.67584539853942" y1="0.5" y2="30"/><line opacity="0.2" x1="444.9641727199963" x2="444.9641727199963" y1="0.5" y2="30"/><line opacity="0.2" x1="253.36775105767958" x2="253.36775105767958" y1="0.5" y2="30"/><line opacity="0.2" x1="319.4637806297181" x2="319.4637806297181" y1="0.5" y2="30"/><line opacity="0.2" x1="370.822457796217" x2="370.822457796217" y1="0.5" y2="30"/><line opacity="0.2" x1="176.56934109603606" x2="176.56934109603606" y1="0.5" y2="30"/><line opacity="0.2" x1="372.89602796755787" x2="372.89602796755787" y1="0.5" y2="30"/><line opacity="0.2" x1="336.2509882383002" x2="336.2509882383002" y1="0.5" y2="30"/><line opacity="0.2" x1="344.55187920984594" x2="344.55187920984594" y1="0.5" y2="30"/><line opacity="0.2" x1="278.78659622838217" x2="278.78659622838217" y1="0.5" y2="30"/><line opacity="0.2" x1="277.08304037433953" x2="277.08304037433953" y1="0.5" y2="30"/><line opacity="0.2" x1="353.65986780438834" x2="353.65986780438834" y1="0.5" y2="30"/><line opacity="0.2" x1="495.3969617033085" x2="495.3969617033085" y1="0.5" y2="30"/><line opacity="0.2" x1="287.5228041177355" x2="287.5228041177355" y1="0.5" y2="30"/><line opacity="0.2" x1="265.13659110752053" x2="265.13659110752053" y1="0.5" y2="30"/><line opacity="0.2" x1="237.5361949050865" x2="237.5361949050865" y1="0.5" y2="30"/><line opacity="0.2" x1="485.41766201764824" x2="485.41766201764824" y1="0.5" y2="30"/><line opacity="0.2" x1="299.610464515167" x2="299.610464515167" y1="0.5" y2="30"/><line opacity="0.2" x1="303.0186363159405" x2="303.0186363159405" y1="0.5" y2="30"/><line opacity="0.2" x1="422.29448235872826" x2="422.29448235872826" y1="0.5" y2="30"/><line opacity="0.2" x1="271.8741513668023" x2="271.8741513668023" y1="0.5" y2="30"/><line opacity="0.2" x1="368.09168626880387" x2="368.09168626880387" y1="0.5" y2="30"/><line opacity="0.2" x1="235.168260143348" x2="235.168260143348" y1="0.5" y2="30"/><line opacity="0.2" x1="245.0803718879959" x2="245.0803718879959" y1="0.5" y2="30"/><line opacity="0.2" x1="126.68823445099333" x2="126.68823445099333" y1="0.5" y2="30"/><line opacity="0.2" x1="295.0995978178572" x2="295.0995978178572" y1="0.5" y2="30"/><line opacity="0.2" x1="262.66040625285586" x2="262.66040625285586" y1="0.5" y2="30"/><line opacity="0.2" x1="306.19743277212916" x2="306.19743277212916" y1="0.5" y2="30"/><line opacity="0.2" x1="91.34148139284832" x2="91.34148139284832" y1="0.5" y2="30"/><line opacity="0.2" x1="181.6509599331337" x2="181.6509599331337" y1="0.5" y2="30"/><line opacity="0.2" x1="445.23248182632733" x2="445.23248182632733" y1="0.5" y2="30"/><line opacity="0.2" x1="234.36283225093217" x2="234.36283225093217" y1="0.5" y2="30"/><line opacity="0.2" x1="262.21865895494415" x2="262.21865895494415" y1="0.5" y2="30"/><line opacity="0.2" x1="182.93148545778132" x2="182.93148545778132" y1="0.5" y2="30"/><line opacity="0.2" x1="433.6483662898532" x2="433.6483662898532" y1="0.5" y2="30"/><line opacity="0.2" x1="268.6322729858692" x2="268.6322729858692" y1="0.5" y2="30"/><line opacity="0.2" x1="368.01394123739" x2="368.01394123739" y1="0.5" y2="30"/><line opacity="0.2" x1="190.09055587275856" x2="190.09055587275856" y1="0.5" y2="30"/><line opacity="0.2" x1="162.50437299860573" x2="162.50437299860573" y1="0.5" y2="30"/><line opacity="0.2" x1="291.68510165687985" x2="291.68510165687985" y1="0.5" y2="30"/><line opacity="0.2" x1="249.86483657207307" x2="249.86483657207307" y1="0.5" y2="30"/><line opacity="0.2" x1="390.2949436681034" x2="390.2949436681034" y1="0.5" y2="30"/><line opacity="0.2" x1="408.96177046424424" x2="408.96177046424424" y1="0.5" y2="30"/><line opacity="0.2" x1="230.72466484417842" x2="230.72466484417842" y1="0.5" y2="30"/><line opacity="0.2" x1="388.5359968170902" x2="388.5359968170902" y1="0.5" y2="30"/><line opacity="0.2" x1="388.60924077563357" x2="388.60924077563357" y1="0.5" y2="30"/><line opacity="0.2" x1="473.045630451621" x2="473.045630451621" y1="0.5" y2="30"/><line opacity="0.2" x1="315.449528909164" x2="315.449528909164" y1="0.5" y2="30"/><line opacity="0.2" x1="218.68511877267125" x2="218.68511877267125" y1="0.5" y2="30"/><line opacity="0.2" x1="503.07186746205247" x2="503.07186746205247" y1="0.5" y2="30"/><line opacity="0.2" x1="504.4083136565672" x2="504.4083136565672" y1="0.5" y2="30"/><line opacity="0.2" x1="351.7161758063511" x2="351.7161758063511" y1="0.5" y2="30"/><line opacity="0.2" x1="241.25335563160553" x2="241.25335563160553" y1="0.5" y2="30"/><line opacity="0.2" x1="127.70639189798032" x2="127.70639189798032" y1="0.5" y2="30"/><line opacity="0.2" x1="343.3384987450521" x2="343.3384987450521" y1="0.5" y2="30"/><line opacity="0.2" x1="336.05444716186963" x2="336.05444716186963" y1="0.5" y2="30"/><line opacity="0.2" x1="368.7413676028537" x2="368.7413676028537" y1="0.5" y2="30"/><line opacity="0.2" x1="86.39417670018554" x2="86.39417670018554" y1="0.5" y2="30"/><line opacity="0.2" x1="148.06160487881135" x2="148.06160487881135" y1="0.5" y2="30"/><line opacity="0.2" x1="501.5582721811685" x2="501.5582721811685" y1="0.5" y2="30"/><line opacity="0.2" x1="340.43193713587965" x2="340.43193713587965" y1="0.5" y2="30"/><line opacity="0.2" x1="375.38991861852475" x2="375.38991861852475" y1="0.5" y2="30"/><line opacity="0.2" x1="143.90018525757554" x2="143.90018525757554" y1="0.5" y2="30"/><line opacity="0.2" x1="250.2874991405381" x2="250.2874991405381" y1="0.5" y2="30"/><line opacity="0.2" x1="302.85643897492423" x2="302.85643897492423" y1="0.5" y2="30"/><line opacity="0.2" x1="264.92871661898164" x2="264.92871661898164" y1="0.5" y2="30"/><line opacity="0.2" x1="402.8047011597348" x2="402.8047011597348" y1="0.5" y2="30"/><line opacity="0.2" x1="389.25525229124906" x2="389.25525229124906" y1="0.5" y2="30"/><line opacity="0.2" x1="406.510376269842" x2="406.510376269842" y1="0.5" y2="30"/><line opacity="0.2" x1="308.4095208233105" x2="308.4095208233105" y1="0.5" y2="30"/><line opacity="0.2" x1="246.53687570835095" x2="246.53687570835095" y1="0.5" y2="30"/><line opacity="0.2" x1="244.50785059965077" x2="244.50785059965077" y1="0.5" y2="30"/><line opacity="0.2" x1="273.2662133287458" x2="273.2662133287458" y1="0.5" y2="30"/><line opacity="0.2" x1="180.60373415805455" x2="180.60373415805455" y1="0.5" y2="30"/><line opacity="0.2" x1="314.7314579121389" x2="314.7314579121389" y1="0.5" y2="30"/><line opacity="0.2" x1="316.54700417792805" x2="316.54700417792805" y1="0.5" y2="30"/><line opacity="0.2" x1="447.078128510326" x2="447.078128510326" y1="0.5" y2="30"/><line opacity="0.2" x1="380.3092882565602" x2="380.3092882565602" y1="0.5" y2="30"/><line opacity="0.2" x1="340.17422290669606" x2="340.17422290669606" y1="0.5" y2="30"/><line opacity="0.2" x1="275.5087101475482" x2="275.5087101475482" y1="0.5" y2="30"/><line opacity="0.2" x1="355.6646997510965" x2="355.6646997510965" y1="0.5" y2="30"/><line opacity="0.2" x1="85.03432702632288" x2="85.03432702632288" y1="0.5" y2="30"/><line opacity="0.2" x1="389.54366771970126" x2="389.54366771970126" y1="0.5" y2="30"/><line opacity="0.2" x1="262.61504923092" x2="262.61504923092" y1="0.5" y2="30"/><line opacity="0.2" x1="301.0471343941382" x2="301.0471343941382" y1="0.5" y2="30"/><line opacity="0.2" x1="334.1338431568467" x2="334.1338431568467" y1="0.5" y2="30"/><line opacity="0.2" x1="345.511356190644" x2="345.511356190644" y1="0.5" y2="30"/><line opacity="0.2" x1="427.62914718274266" x2="427.62914718274266" y1="0.5" y2="30"/><line opacity="0.2" x1="346.25684141428485" x2="346.25684141428485" y1="0.5" y2="30"/><line opacity="0.2" x1="269.5303483039767" x2="269.5303483039767" y1="0.5" y2="30"/><line opacity="0.2" x1="181.31662859630686" x2="181.31662859630686" y1="0.5" y2="30"/><line opacity="0.2" x1="251.052655865874" x2="251.052655865874" y1="0.5" y2="30"/><line opacity="0.2" x1="304.8405810823422" x2="304.8405810823422" y1="0.5" y2="30"/><line opacity="0.2" x1="215.25799383216136" x2="215.25799383216136" y1="0.5" y2="30"/><line opacity="0.2" x1="131.52418067184195" x2="131.52418067184195" y1="0.5" y2="30"/><line opacity="0.2" x1="349.53664709688405" x2="349.53664709688405" y1="0.5" y2="30"/><line opacity="0.2" x1="252.39191037715216" x2="252.39191037715216" y1="0.5" y2="30"/><line opacity="0.2" x1="338.6205982431709" x2="338.6205982431709" y1="0.5" y2="30"/><line opacity="0.2" x1="426.29933713014424" x2="426.29933713014424" y1="0.5" y2="30"/><line opacity="0.2" x1="405.92654050119677" x2="405.92654050119677" y1="0.5" y2="30"/><line opacity="0.2" x1="263.9652837496148" x2="263.9652837496148" y1="0.5" y2="30"/><line opacity="0.2" x1="475.67002080359003" x2="475.67002080359003" y1="0.5" y2="30"/><line opacity="0.2" x1="156.05795833804996" x2="156.05795833804996" y1="0.5" y2="30"/><line opacity="0.2" x1="229.63315132810146" x2="229.63315132810146" y1="0.5" y2="30"/><line opacity="0.2" x1="474.6701385747067" x2="474.6701385747067" y1="0.5" y2="30"/><line opacity="0.2" x1="471.9489714225658" x2="471.9489714225658" y1="0.5" y2="30"/><line opacity="0.2" x1="390.27043871434324" x2="390.27043871434324" y1="0.5" y2="30"/><line opacity="0.2" x1="266.70168239430836" x2="266.70168239430836" y1="0.5" y2="30"/><line opacity="0.2" x1="216.12750588650198" x2="216.12750588650198" y1="0.5" y2="30"/><line opacity="0.2" x1="411.30798210490747" x2="411.30798210490747" y1="0.5" y2="30"/><line opacity="0.2" x1="252.51408203824752" x2="252.51408203824752" y1="0.5" y2="30"/><line opacity="0.2" x1="316.35087541427527" x2="316.35087541427527" y1="0.5" y2="30"/><line opacity="0.2" x1="387.5684689045637" x2="387.5684689045637" y1="0.5" y2="30"/><line opacity="0.2" x1="410.7989110639501" x2="410.7989110639501" y1="0.5" y2="30"/><line opacity="0.2" x1="368.57456795188733" x2="368.57456795188733" y1="0.5" y2="30"/><line opacity="0.2" x1="359.0206038982813" x2="359.0206038982813" y1="0.5" y2="30"/><line opacity="0.2" x1="240.22190047246133" x2="240.22190047246133" y1="0.5" y2="30"/><line opacity="0.2" x1="326.7745115813452" x2="326.7745115813452" y1="0.5" y2="30"/><line opacity="0.2" x1="327.34321761718627" x2="327.34321761718627" y1="0.5" y2="30"/><line opacity="0.2" x1="312.4393190388742" x2="312.4393190388742" y1="0.5" y2="30"/><line opacity="0.2" x1="351.4339349792568" x2="351.4339349792568" y1="0.5" y2="30"/><line opacity="0.2" x1="340.50178850638616" x2="340.50178850638616" y1="0.5" y2="30"/><line opacity="0.2" x1="376.0411344550021" x2="376.0411344550021" y1="0.5" y2="30"/><line opacity="0.2" x1="508.11680940620096" x2="508.11680940620096" y1="0.5" y2="30"/><line opacity="0.2" x1="368.87721628743526" x2="368.87721628743526" y1="0.5" y2="30"/><line opacity="0.2" x1="397.21364786490034" x2="397.21364786490034" y1="0.5" y2="30"/><line opacity="0.2" x1="307.3814320041363" x2="307.3814320041363" y1="0.5" y2="30"/><line opacity="0.2" x1="316.5262487804096" x2="316.5262487804096" y1="0.5" y2="30"/><line opacity="0.2" x1="352.634353829382" x2="352.634353829382" y1="0.5" y2="30"/><line opacity="0.2" x1="346.66422977075837" x2="346.66422977075837" y1="0.5" y2="30"/><line opacity="0.2" x1="285.5454535386418" x2="285.5454535386418" y1="0.5" y2="30"/><line opacity="0.2" x1="280.31385656090276" x2="280.31385656090276" y1="0.5" y2="30"/><line opacity="0.2" x1="276.29604534938284" x2="276.29604534938284" y1="0.5" y2="30"/><line opacity="0.2" x1="297.9226856333778" x2="297.9226856333778" y1="0.5" y2="30"/><line opacity="0.2" x1="400.7658534627617" x2="400.7658534627617" y1="0.5" y2="30"/><line opacity="0.2" x1="281.3488458127739" x2="281.3488458127739" y1="0.5" y2="30"/><line opacity="0.2" x1="290.14592876274435" x2="290.14592876274435" y1="0.5" y2="30"/><line opacity="0.2" x1="271.8073271970147" x2="271.8073271970147" y1="0.5" y2="30"/><line opacity="0.2" x1="298.51965702026246" x2="298.51965702026246" y1="0.5" y2="30"/><line opacity="0.2" x1="297.3040920941353" x2="297.3040920941353" y1="0.5" y2="30"/><line opacity="0.2" x1="239.0457607267519" x2="239.0457607267519" y1="0.5" y2="30"/><line opacity="0.2" x1="318.6405685720793" x2="318.6405685720793" y1="0.5" y2="30"/><line opacity="0.2" x1="429.5882426319868" x2="429.5882426319868" y1="0.5" y2="30"/><line opacity="0.2" x1="270.43817983904603" x2="270.43817983904603" y1="0.5" y2="30"/><line opacity="0.2" x1="406.8796597029927" x2="406.8796597029927" y1="0.5" y2="30"/><line opacity="0.2" x1="261.64299520657795" x2="261.64299520657795" y1="0.5" y2="30"/><line opacity="0.2" x1="303.6557401069246" x2="303.6557401069246" y1="0.5" y2="30"/><line opacity="0.2" x1="365.24870061259196" x2="365.24870061259196" y1="0.5" y2="30"/><line opacity="0.2" x1="328.0449339060291" x2="328.0449339060291" y1="0.5" y2="30"/><line opacity="0.2" x1="439.31581621300097" x2="439.31581621300097" y1="0.5" y2="30"/><line opacity="0.2" x1="257.05179153441605" x2="257.05179153441605" y1="0.5" y2="30"/><line opacity="0.2" x1="281.0606758822161" x2="281.0606758822161" y1="0.5" y2="30"/><line opacity="0.2" x1="241.97749588182933" x2="241.97749588182933" y1="0.5" y2="30"/><line opacity="0.2" x1="383.29827166105514" x2="383.29827166105514" y1="0.5" y2="30"/><line opacity="0.2" x1="135.45694019355665" x2="135.45694019355665" y1="0.5" y2="30"/><line opacity="0.2" x1="362.06729642635594" x2="362.06729642635594" y1="0.5" y2="30"/><line opacity="0.2" x1="334.32509002124925" x2="334.32509002124925" y1="0.5" y2="30"/><line opacity="0.2" x1="281.9388875869628" x2="281.9388875869628" y1="0.5" y2="30"/><line opacity="0.2" x1="161.11738120979152" x2="161.11738120979152" y1="0.5" y2="30"/><line opacity="0.2" x1="425.1038929970083" x2="425.1038929970083" y1="0.5" y2="30"/><line opacity="0.2" x1="401.077176461384" x2="401.077176461384" y1="0.5" y2="30"/><line opacity="0.2" x1="328.81305560437727" x2="328.81305560437727" y1="0.5" y2="30"/><line opacity="0.2" x1="198.16642722038344" x2="198.16642722038344" y1="0.5" y2="30"/><line opacity="0.2" x1="361.0871407571502" x2="361.0871407571502" y1="0.5" y2="30"/><line opacity="0.2" x1="397.21898897736475" x2="397.21898897736475" y1="0.5" y2="30"/><line opacity="0.2" x1="264.19476443312936" x2="264.19476443312936" y1="0.5" y2="30"/><line opacity="0.2" x1="425.9758122206114" x2="425.9758122206114" y1="0.5" y2="30"/><line opacity="0.2" x1="307.6525289518209" x2="307.6525289518209" y1="0.5" y2="30"/><line opacity="0.2" x1="385.474944578404" x2="385.474944578404" y1="0.5" y2="30"/><line opacity="0.2" x1="352.7061983090269" x2="352.7061983090269" y1="0.5" y2="30"/><line opacity="0.2" x1="279.2349098589574" x2="279.2349098589574" y1="0.5" y2="30"/><line opacity="0.2" x1="313.1118517405907" x2="313.1118517405907" y1="0.5" y2="30"/><line opacity="0.2" x1="406.59215637981043" x2="406.59215637981043" y1="0.5" y2="30"/><line opacity="0.2" x1="350.4433496085541" x2="350.4433496085541" y1="0.5" y2="30"/><line opacity="0.2" x1="467.2582367511591" x2="467.2582367511591" y1="0.5" y2="30"/><line opacity="0.2" x1="331.60819566146256" x2="331.60819566146256" y1="0.5" y2="30"/><line opacity="0.2" x1="537.6010692130902" x2="537.6010692130902" y1="0.5" y2="30"/><line opacity="0.2" x1="386.0836144873447" x2="386.0836144873447" y1="0.5" y2="30"/><line opacity="0.2" x1="349.0951713522973" x2="349.0951713522973" y1="0.5" y2="30"/><line opacity="0.2" x1="226.0111978320055" x2="226.0111978320055" y1="0.5" y2="30"/><line opacity="0.2" x1="271.26696060946443" x2="271.26696060946443" y1="0.5" y2="30"/><line opacity="0.2" x1="256.914439062477" x2="256.914439062477" y1="0.5" y2="30"/><line opacity="0.2" x1="343.25928181295757" x2="343.25928181295757" y1="0.5" y2="30"/><line opacity="0.2" x1="123.24716286117842" x2="123.24716286117842" y1="0.5" y2="30"/><line opacity="0.2" x1="372.54831357175686" x2="372.54831357175686" y1="0.5" y2="30"/><line opacity="0.2" x1="369.3006510473697" x2="369.3006510473697" y1="0.5" y2="30"/><line opacity="0.2" x1="319.01090618030565" x2="319.01090618030565" y1="0.5" y2="30"/><line opacity="0.2" x1="329.8879624390445" x2="329.8879624390445" y1="0.5" y2="30"/><line opacity="0.2" x1="441.185290563787" x2="441.185290563787" y1="0.5" y2="30"/><line opacity="0.2" x1="373.02266829434524" x2="373.02266829434524" y1="0.5" y2="30"/><line opacity="0.2" x1="489.0052640963037" x2="489.0052640963037" y1="0.5" y2="30"/><line opacity="0.2" x1="383.5892914926668" x2="383.5892914926668" y1="0.5" y2="30"/><line opacity="0.2" x1="475.4114915849378" x2="475.4114915849378" y1="0.5" y2="30"/><line opacity="0.2" x1="294.95116715641416" x2="294.95116715641416" y1="0.5" y2="30"/><line opacity="0.2" x1="240.18615294482058" x2="240.18615294482058" y1="0.5" y2="30"/><line opacity="0.2" x1="498.1686539286011" x2="498.1686539286011" y1="0.5" y2="30"/><line opacity="0.2" x1="320.49481508256616" x2="320.49481508256616" y1="0.5" y2="30"/><line opacity="0.2" x1="297.7853497921191" x2="297.7853497921191" y1="0.5" y2="30"/><line opacity="0.2" x1="406.91188243913984" x2="406.91188243913984" y1="0.5" y2="30"/><line opacity="0.2" x1="377.94956759451514" x2="377.94956759451514" y1="0.5" y2="30"/><line opacity="0.2" x1="316.2152747232879" x2="316.2152747232879" y1="0.5" y2="30"/><line opacity="0.2" x1="313.3465126623788" x2="313.3465126623788" y1="0.5" y2="30"/><line opacity="0.2" x1="287.9425326109368" x2="287.9425326109368" y1="0.5" y2="30"/><line opacity="0.2" x1="327.14237674168476" x2="327.14237674168476" y1="0.5" y2="30"/><line opacity="0.2" x1="165.81245001686935" x2="165.81245001686935" y1="0.5" y2="30"/><line opacity="0.2" x1="282.313637920179" x2="282.313637920179" y1="0.5" y2="30"/><line opacity="0.2" x1="407.57398257404583" x2="407.57398257404583" y1="0.5" y2="30"/><line opacity="0.2" x1="491.0642230182153" x2="491.0642230182153" y1="0.5" y2="30"/><line opacity="0.2" x1="50.067066465216286" x2="50.067066465216286" y1="0.5" y2="30"/><line opacity="0.2" x1="345.34664573302655" x2="345.34664573302655" y1="0.5" y2="30"/><line opacity="0.2" x1="342.0234775774681" x2="342.0234775774681" y1="0.5" y2="30"/><line opacity="0.2" x1="324.23114352553915" x2="324.23114352553915" y1="0.5" y2="30"/><line opacity="0.2" x1="315.1657985478968" x2="315.1657985478968" y1="0.5" y2="30"/><line opacity="0.2" x1="359.61099883615964" x2="359.61099883615964" y1="0.5" y2="30"/><line opacity="0.2" x1="405.13592397657226" x2="405.13592397657226" y1="0.5" y2="30"/><line opacity="0.2" x1="436.51611350410235" x2="436.51611350410235" y1="0.5" y2="30"/><line opacity="0.2" x1="189.59079403426853" x2="189.59079403426853" y1="0.5" y2="30"/><line opacity="0.2" x1="499.2890897473058" x2="499.2890897473058" y1="0.5" y2="30"/><line opacity="0.2" x1="347.791311434881" x2="347.791311434881" y1="0.5" y2="30"/><line opacity="0.2" x1="471.1700262008104" x2="471.1700262008104" y1="0.5" y2="30"/><line opacity="0.2" x1="506.84891664314904" x2="506.84891664314904" y1="0.5" y2="30"/><line opacity="0.2" x1="174.47991295049468" x2="174.47991295049468" y1="0.5" y2="30"/><line opacity="0.2" x1="249.78580250782977" x2="249.78580250782977" y1="0.5" y2="30"/><line opacity="0.2" x1="446.84235662881673" x2="446.84235662881673" y1="0.5" y2="30"/><line opacity="0.2" x1="397.91960847928226" x2="397.91960847928226" y1="0.5" y2="30"/><line opacity="0.2" x1="436.59273282689014" x2="436.59273282689014" y1="0.5" y2="30"/><line opacity="0.2" x1="316.612536529842" x2="316.612536529842" y1="0.5" y2="30"/><line opacity="0.2" x1="303.59520474372795" x2="303.59520474372795" y1="0.5" y2="30"/><line opacity="0.2" x1="325.8020924581752" x2="325.8020924581752" y1="0.5" y2="30"/><line opacity="0.2" x1="158.4493578199208" x2="158.4493578199208" y1="0.5" y2="30"/><line opacity="0.2" x1="294.68391875709364" x2="294.68391875709364" y1="0.5" y2="30"/><line opacity="0.2" x1="273.70901533344136" x2="273.70901533344136" y1="0.5" y2="30"/><line opacity="0.2" x1="418.5740234293144" x2="418.5740234293144" y1="0.5" y2="30"/><line opacity="0.2" x1="146.69598251912288" x2="146.69598251912288" y1="0.5" y2="30"/><line opacity="0.2" x1="410.02590158585616" x2="410.02590158585616" y1="0.5" y2="30"/><line opacity="0.2" x1="279.1342127600469" x2="279.1342127600469" y1="0.5" y2="30"/><line opacity="0.2" x1="327.6687106561798" x2="327.6687106561798" y1="0.5" y2="30"/><line opacity="0.2" x1="394.92954428919063" x2="394.92954428919063" y1="0.5" y2="30"/><line opacity="0.2" x1="304.5698619982878" x2="304.5698619982878" y1="0.5" y2="30"/><line opacity="0.2" x1="300.5349758503566" x2="300.5349758503566" y1="0.5" y2="30"/><line opacity="0.2" x1="404.0398915945761" x2="404.0398915945761" y1="0.5" y2="30"/><line opacity="0.2" x1="335.50461928059593" x2="335.50461928059593" y1="0.5" y2="30"/><line opacity="0.2" x1="326.27836077534664" x2="326.27836077534664" y1="0.5" y2="30"/><line opacity="0.2" x1="373.65795846176974" x2="373.65795846176974" y1="0.5" y2="30"/><line opacity="0.2" x1="216.8706569869277" x2="216.8706569869277" y1="0.5" y2="30"/><line opacity="0.2" x1="464.06442356193674" x2="464.06442356193674" y1="0.5" y2="30"/><line opacity="0.2" x1="496.11171416131253" x2="496.11171416131253" y1="0.5" y2="30"/><line opacity="0.2" x1="333.2678854377644" x2="333.2678854377644" y1="0.5" y2="30"/><line opacity="0.2" x1="406.25489291778615" x2="406.25489291778615" y1="0.5" y2="30"/><line opacity="0.2" x1="329.2423765923923" x2="329.2423765923923" y1="0.5" y2="30"/><line opacity="0.2" x1="250.6260704333027" x2="250.6260704333027" y1="0.5" y2="30"/><line opacity="0.2" x1="393.78926190929064" x2="393.78926190929064" y1="0.5" y2="30"/><line opacity="0.2" x1="118.23862470807728" x2="118.23862470807728" y1="0.5" y2="30"/><line opacity="0.2" x1="425.450409228067" x2="425.450409228067" y1="0.5" y2="30"/><line opacity="0.2" x1="318.4719140280215" x2="318.4719140280215" y1="0.5" y2="30"/><line opacity="0.2" x1="167.51388198254463" x2="167.51388198254463" y1="0.5" y2="30"/><line opacity="0.2" x1="351.10759224889256" x2="351.10759224889256" y1="0.5" y2="30"/><line opacity="0.2" x1="330.2665196670607" x2="330.2665196670607" y1="0.5" y2="30"/><line opacity="0.2" x1="340.6911783937128" x2="340.6911783937128" y1="0.5" y2="30"/><line opacity="0.2" x1="175.13406373975437" x2="175.13406373975437" y1="0.5" y2="30"/><line opacity="0.2" x1="160.02207706833033" x2="160.02207706833033" y1="0.5" y2="30"/><line opacity="0.2" x1="269.15497205600155" x2="269.15497205600155" y1="0.5" y2="30"/><line opacity="0.2" x1="182.60523102668805" x2="182.60523102668805" y1="0.5" y2="30"/><line opacity="0.2" x1="320.8658279856221" x2="320.8658279856221" y1="0.5" y2="30"/><line opacity="0.2" x1="241.93921573499728" x2="241.93921573499728" y1="0.5" y2="30"/><line opacity="0.2" x1="185.40566195482273" x2="185.40566195482273" y1="0.5" y2="30"/><line opacity="0.2" x1="299.3622659347055" x2="299.3622659347055" y1="0.5" y2="30"/><line opacity="0.2" x1="324.57806054063457" x2="324.57806054063457" y1="0.5" y2="30"/><line opacity="0.2" x1="266.87261218548326" x2="266.87261218548326" y1="0.5" y2="30"/><line opacity="0.2" x1="247.12161774916856" x2="247.12161774916856" y1="0.5" y2="30"/><line opacity="0.2" x1="367.7743898360037" x2="367.7743898360037" y1="0.5" y2="30"/><line opacity="0.2" x1="339.1629393923904" x2="339.1629393923904" y1="0.5" y2="30"/><line opacity="0.2" x1="262.36927693811083" x2="262.36927693811083" y1="0.5" y2="30"/><line opacity="0.2" x1="191.41699597059514" x2="191.41699597059514" y1="0.5" y2="30"/><line opacity="0.2" x1="375.8164788594587" x2="375.8164788594587" y1="0.5" y2="30"/><line opacity="0.2" x1="359.21300980843597" x2="359.21300980843597" y1="0.5" y2="30"/><line opacity="0.2" x1="342.4010085763566" x2="342.4010085763566" y1="0.5" y2="30"/><line opacity="0.2" x1="251.18223911776857" x2="251.18223911776857" y1="0.5" y2="30"/><line opacity="0.2" x1="226.84691434691635" x2="226.84691434691635" y1="0.5" y2="30"/><line opacity="0.2" x1="403.2345367191557" x2="403.2345367191557" y1="0.5" y2="30"/><line opacity="0.2" x1="432.5789963902258" x2="432.5789963902258" y1="0.5" y2="30"/><line opacity="0.2" x1="269.15602368432025" x2="269.15602368432025" y1="0.5" y2="30"/><line opacity="0.2" x1="358.4131916059696" x2="358.4131916059696" y1="0.5" y2="30"/><line opacity="0.2" x1="223.36089400644414" x2="223.36089400644414" y1="0.5" y2="30"/><line opacity="0.2" x1="385.42230784973935" x2="385.42230784973935" y1="0.5" y2="30"/><line opacity="0.2" x1="394.8923353998957" x2="394.8923353998957" y1="0.5" y2="30"/><line opacity="0.2" x1="258.8014526134134" x2="258.8014526134134" y1="0.5" y2="30"/><line opacity="0.2" x1="260.96797821218956" x2="260.96797821218956" y1="0.5" y2="30"/><line opacity="0.2" x1="331.72251366266033" x2="331.72251366266033" y1="0.5" y2="30"/><line opacity="0.2" x1="276.8764309765874" x2="276.8764309765874" y1="0.5" y2="30"/><line opacity="0.2" x1="456.87754450720547" x2="456.87754450720547" y1="0.5" y2="30"/><line opacity="0.2" x1="286.94257357471616" x2="286.94257357471616" y1="0.5" y2="30"/><line opacity="0.2" x1="379.67432743919716" x2="379.67432743919716" y1="0.5" y2="30"/><line opacity="0.2" x1="475.3689887928086" x2="475.3689887928086" y1="0.5" y2="30"/><line opacity="0.2" x1="367.11951328505256" x2="367.11951328505256" y1="0.5" y2="30"/><line opacity="0.2" x1="275.69925131505033" x2="275.69925131505033" y1="0.5" y2="30"/><line opacity="0.2" x1="439.931821925925" x2="439.931821925925" y1="0.5" y2="30"/><line opacity="0.2" x1="273.7018615829648" x2="273.7018615829648" y1="0.5" y2="30"/><line opacity="0.2" x1="340.5156778110477" x2="340.5156778110477" y1="0.5" y2="30"/><line opacity="0.2" x1="240.82425570721512" x2="240.82425570721512" y1="0.5" y2="30"/><line opacity="0.2" x1="342.0523219055691" x2="342.0523219055691" y1="0.5" y2="30"/><line opacity="0.2" x1="295.1156255666904" x2="295.1156255666904" y1="0.5" y2="30"/><line opacity="0.2" x1="301.92042606476826" x2="301.92042606476826" y1="0.5" y2="30"/><line opacity="0.2" x1="418.80229126338804" x2="418.80229126338804" y1="0.5" y2="30"/><line opacity="0.2" x1="411.3727061398101" x2="411.3727061398101" y1="0.5" y2="30"/><line opacity="0.2" x1="253.42049528662474" x2="253.42049528662474" y1="0.5" y2="30"/><line opacity="0.2" x1="403.7113019126475" x2="403.7113019126475" y1="0.5" y2="30"/><line opacity="0.2" x1="395.45122557664024" x2="395.45122557664024" y1="0.5" y2="30"/><line opacity="0.2" x1="352.52436517711294" x2="352.52436517711294" y1="0.5" y2="30"/><line opacity="0.2" x1="301.0980765261242" x2="301.0980765261242" y1="0.5" y2="30"/><line opacity="0.2" x1="317.5452312351918" x2="317.5452312351918" y1="0.5" y2="30"/><line opacity="0.2" x1="301.4575548266786" x2="301.4575548266786" y1="0.5" y2="30"/><line opacity="0.2" x1="426.63883195788526" x2="426.63883195788526" y1="0.5" y2="30"/><line opacity="0.2" x1="288.2672616051439" x2="288.2672616051439" y1="0.5" y2="30"/><line opacity="0.2" x1="425.3364706645993" x2="425.3364706645993" y1="0.5" y2="30"/><line opacity="0.2" x1="405.8418470720182" x2="405.8418470720182" y1="0.5" y2="30"/><line opacity="0.2" x1="273.7948883570229" x2="273.7948883570229" y1="0.5" y2="30"/><line opacity="0.2" x1="365.53560854883887" x2="365.53560854883887" y1="0.5" y2="30"/><line opacity="0.2" x1="410.32942514235106" x2="410.32942514235106" y1="0.5" y2="30"/><line opacity="0.2" x1="414.2458911678993" x2="414.2458911678993" y1="0.5" y2="30"/><line opacity="0.2" x1="331.3469678867469" x2="331.3469678867469" y1="0.5" y2="30"/><line opacity="0.2" x1="291.13177879114977" x2="291.13177879114977" y1="0.5" y2="30"/><line opacity="0.2" x1="329.5585886689651" x2="329.5585886689651" y1="0.5" y2="30"/><line opacity="0.2" x1="204.7993836290328" x2="204.7993836290328" y1="0.5" y2="30"/><line opacity="0.2" x1="272.38582090455367" x2="272.38582090455367" y1="0.5" y2="30"/><line opacity="0.2" x1="348.2387970203795" x2="348.2387970203795" y1="0.5" y2="30"/><line opacity="0.2" x1="247.30863553511904" x2="247.30863553511904" y1="0.5" y2="30"/><line opacity="0.2" x1="382.4939998890086" x2="382.4939998890086" y1="0.5" y2="30"/><line opacity="0.2" x1="298.04688675653347" x2="298.04688675653347" y1="0.5" y2="30"/><line opacity="0.2" x1="393.4288045278972" x2="393.4288045278972" y1="0.5" y2="30"/><line opacity="0.2" x1="324.4498623632469" x2="324.4498623632469" y1="0.5" y2="30"/><line opacity="0.2" x1="239.96199834862858" x2="239.96199834862858" y1="0.5" y2="30"/><line opacity="0.2" x1="262.6317911676873" x2="262.6317911676873" y1="0.5" y2="30"/><line opacity="0.2" x1="193.94930931543828" x2="193.94930931543828" y1="0.5" y2="30"/><line opacity="0.2" x1="138.10402235605244" x2="138.10402235605244" y1="0.5" y2="30"/><line opacity="0.2" x1="190.7516504828584" x2="190.7516504828584" y1="0.5" y2="30"/><line opacity="0.2" x1="336.5171199907094" x2="336.5171199907094" y1="0.5" y2="30"/><line opacity="0.2" x1="218.0048980983532" x2="218.0048980983532" y1="0.5" y2="30"/><line opacity="0.2" x1="358.15115264884304" x2="358.15115264884304" y1="0.5" y2="30"/><line opacity="0.2" x1="264.14716201671496" x2="264.14716201671496" y1="0.5" y2="30"/><line opacity="0.2" x1="214.0252197702869" x2="214.0252197702869" y1="0.5" y2="30"/><line opacity="0.2" x1="161.6128866020825" x2="161.6128866020825" y1="0.5" y2="30"/><line opacity="0.2" x1="331.1556097178022" x2="331.1556097178022" y1="0.5" y2="30"/><line opacity="0.2" x1="321.3068160979095" x2="321.3068160979095" y1="0.5" y2="30"/><line opacity="0.2" x1="254.31965810754065" x2="254.31965810754065" y1="0.5" y2="30"/><line opacity="0.2" x1="240.75190567835742" x2="240.75190567835742" y1="0.5" y2="30"/><line opacity="0.2" x1="202.77169288157015" x2="202.77169288157015" y1="0.5" y2="30"/><line opacity="0.2" x1="252.42124996699772" x2="252.42124996699772" y1="0.5" y2="30"/><line opacity="0.2" x1="354.1004907951391" x2="354.1004907951391" y1="0.5" y2="30"/><line opacity="0.2" x1="349.81925294192024" x2="349.81925294192024" y1="0.5" y2="30"/><line opacity="0.2" x1="284.97878303614357" x2="284.97878303614357" y1="0.5" y2="30"/><line opacity="0.2" x1="184.3985992863124" x2="184.3985992863124" y1="0.5" y2="30"/><line opacity="0.2" x1="178.29217837980852" x2="178.29217837980852" y1="0.5" y2="30"/><line opacity="0.2" x1="319.823239752799" x2="319.823239752799" y1="0.5" y2="30"/><line opacity="0.2" x1="366.1867664423472" x2="366.1867664423472" y1="0.5" y2="30"/><line opacity="0.2" x1="181.1573107373372" x2="181.1573107373372" y1="0.5" y2="30"/><line opacity="0.2" x1="333.8462316131317" x2="333.8462316131317" y1="0.5" y2="30"/><line opacity="0.2" x1="192.17650698487043" x2="192.17650698487043" y1="0.5" y2="30"/><line opacity="0.2" x1="349.5184394030037" x2="349.5184394030037" y1="0.5" y2="30"/><line opacity="0.2" x1="343.47106905913796" x2="343.47106905913796" y1="0.5" y2="30"/><line opacity="0.2" x1="319.8524852610401" x2="319.8524852610401" y1="0.5" y2="30"/><line opacity="0.2" x1="400.54827250837894" x2="400.54827250837894" y1="0.5" y2="30"/><line opacity="0.2" x1="199.5699507030184" x2="199.5699507030184" y1="0.5" y2="30"/><line opacity="0.2" x1="161.27401298638432" x2="161.27401298638432" y1="0.5" y2="30"/><line opacity="0.2" x1="339.4622407974231" x2="339.4622407974231" y1="0.5" y2="30"/><line opacity="0.2" x1="99.11913731300538" x2="99.11913731300538" y1="0.5" y2="30"/><line opacity="0.2" x1="219.7351491899641" x2="219.7351491899641" y1="0.5" y2="30"/><line opacity="0.2" x1="330.4719632962925" x2="330.4719632962925" y1="0.5" y2="30"/><line opacity="0.2" x1="257.5335175965982" x2="257.5335175965982" y1="0.5" y2="30"/><line opacity="0.2" x1="271.94096892997317" x2="271.94096892997317" y1="0.5" y2="30"/><line opacity="0.2" x1="315.54303198391125" x2="315.54303198391125" y1="0.5" y2="30"/><line opacity="0.2" x1="349.18561580139124" x2="349.18561580139124" y1="0.5" y2="30"/><line opacity="0.2" x1="384.2338074453542" x2="384.2338074453542" y1="0.5" y2="30"/><line opacity="0.2" x1="439.0350749310332" x2="439.0350749310332" y1="0.5" y2="30"/><line opacity="0.2" x1="373.8421449392657" x2="373.8421449392657" y1="0.5" y2="30"/><line opacity="0.2" x1="338.54858306718586" x2="338.54858306718586" y1="0.5" y2="30"/><line opacity="0.2" x1="315.07709925432715" x2="315.07709925432715" y1="0.5" y2="30"/><line opacity="0.2" x1="272.65694099083925" x2="272.65694099083925" y1="0.5" y2="30"/><line opacity="0.2" x1="278.7946778608596" x2="278.7946778608596" y1="0.5" y2="30"/><line opacity="0.2" x1="386.8664411650508" x2="386.8664411650508" y1="0.5" y2="30"/><line opacity="0.2" x1="364.8100677288431" x2="364.8100677288431" y1="0.5" y2="30"/><line opacity="0.2" x1="314.2334653861352" x2="314.2334653861352" y1="0.5" y2="30"/><line opacity="0.2" x1="356.57437086787445" x2="356.57437086787445" y1="0.5" y2="30"/><line opacity="0.2" x1="402.11013534902986" x2="402.11013534902986" y1="0.5" y2="30"/><line opacity="0.2" x1="304.7698160026672" x2="304.7698160026672" y1="0.5" y2="30"/><line opacity="0.2" x1="414.63838919057" x2="414.63838919057" y1="0.5" y2="30"/><line opacity="0.2" x1="414.40445305039924" x2="414.40445305039924" y1="0.5" y2="30"/><line opacity="0.2" x1="396.62267821621236" x2="396.62267821621236" y1="0.5" y2="30"/><line opacity="0.2" x1="358.71995767029887" x2="358.71995767029887" y1="0.5" y2="30"/><line opacity="0.2" x1="283.6970937583574" x2="283.6970937583574" y1="0.5" y2="30"/><line opacity="0.2" x1="224.6076616107879" x2="224.6076616107879" y1="0.5" y2="30"/><line opacity="0.2" x1="388.0342396040545" x2="388.0342396040545" y1="0.5" y2="30"/><line opacity="0.2" x1="175.3599121624615" x2="175.3599121624615" y1="0.5" y2="30"/><line opacity="0.2" x1="409.8640500826108" x2="409.8640500826108" y1="0.5" y2="30"/><line opacity="0.2" x1="266.9370791753812" x2="266.9370791753812" y1="0.5" y2="30"/><line opacity="0.2" x1="105.23459940189838" x2="105.23459940189838" y1="0.5" y2="30"/><line opacity="0.2" x1="365.97457943438974" x2="365.97457943438974" y1="0.5" y2="30"/><line opacity="0.2" x1="378.77707846236154" x2="378.77707846236154" y1="0.5" y2="30"/><line opacity="0.2" x1="203.9794211804212" x2="203.9794211804212" y1="0.5" y2="30"/><line opacity="0.2" x1="151.75980152643538" x2="151.75980152643538" y1="0.5" y2="30"/><line opacity="0.2" x1="390.86926172281886" x2="390.86926172281886" y1="0.5" y2="30"/><line opacity="0.2" x1="156.6252938563733" x2="156.6252938563733" y1="0.5" y2="30"/><line opacity="0.2" x1="285.9423091399536" x2="285.9423091399536" y1="0.5" y2="30"/><line opacity="0.2" x1="280.822135743521" x2="280.822135743521" y1="0.5" y2="30"/><line opacity="0.2" x1="410.6956099690497" x2="410.6956099690497" y1="0.5" y2="30"/><line opacity="0.2" x1="362.24984012717204" x2="362.24984012717204" y1="0.5" y2="30"/><line opacity="0.2" x1="289.93722897310727" x2="289.93722897310727" y1="0.5" y2="30"/><line opacity="0.2" x1="369.904793777548" x2="369.904793777548" y1="0.5" y2="30"/><line opacity="0.2" x1="268.9260300165206" x2="268.9260300165206" y1="0.5" y2="30"/><line opacity="0.2" x1="331.8218894522923" x2="331.8218894522923" y1="0.5" y2="30"/><line opacity="0.2" x1="315.0025705216214" x2="315.0025705216214" y1="0.5" y2="30"/><line opacity="0.2" x1="431.8109814496463" x2="431.8109814496463" y1="0.5" y2="30"/><line opacity="0.2" x1="340.66901824584966" x2="340.66901824584966" y1="0.5" y2="30"/><line opacity="0.2" x1="364.3567985426843" x2="364.3567985426843" y1="0.5" y2="30"/><line opacity="0.2" x1="293.4154575415554" x2="293.4154575415554" y1="0.5" y2="30"/><line opacity="0.2" x1="281.1279335489226" x2="281.1279335489226" y1="0.5" y2="30"/><line opacity="0.2" x1="363.4832336514599" x2="363.4832336514599" y1="0.5" y2="30"/><line opacity="0.2" x1="314.38139303802797" x2="314.38139303802797" y1="0.5" y2="30"/><line opacity="0.2" x1="314.17764195054394" x2="314.17764195054394" y1="0.5" y2="30"/><line opacity="0.2" x1="270.52054960021314" x2="270.52054960021314" y1="0.5" y2="30"/><line opacity="0.2" x1="324.1846525662479" x2="324.1846525662479" y1="0.5" y2="30"/><line opacity="0.2" x1="275.76378545220086" x2="275.76378545220086" y1="0.5" y2="30"/><line opacity="0.2" x1="328.46820635749964" x2="328.46820635749964" y1="0.5" y2="30"/><line opacity="0.2" x1="285.87731011371363" x2="285.87731011371363" y1="0.5" y2="30"/><line opacity="0.2" x1="237.90893289525147" x2="237.90893289525147" y1="0.5" y2="30"/><line opacity="0.2" x1="309.2120751337161" x2="309.2120751337161" y1="0.5" y2="30"/><line opacity="0.2" x1="268.4731546418244" x2="268.4731546418244" y1="0.5" y2="30"/><line opacity="0.2" x1="456.8456457956254" x2="456.8456457956254" y1="0.5" y2="30"/><line opacity="0.2" x1="316.877825406386" x2="316.877825406386" y1="0.5" y2="30"/><line opacity="0.2" x1="174.16590675463834" x2="174.16590675463834" y1="0.5" y2="30"/><line opacity="0.2" x1="183.93998435667208" x2="183.93998435667208" y1="0.5" y2="30"/><line opacity="0.2" x1="416.51953487074593" x2="416.51953487074593" y1="0.5" y2="30"/><line opacity="0.2" x1="273.48182571328357" x2="273.48182571328357" y1="0.5" y2="30"/><line opacity="0.2" x1="134.6436344824051" x2="134.6436344824051" y1="0.5" y2="30"/><line opacity="0.2" x1="238.60820107791977" x2="238.60820107791977" y1="0.5" y2="30"/><line opacity="0.2" x1="307.2623019370319" x2="307.2623019370319" y1="0.5" y2="30"/><line opacity="0.2" x1="485.66220657527634" x2="485.66220657527634" y1="0.5" y2="30"/><line opacity="0.2" x1="323.76137185709837" x2="323.76137185709837" y1="0.5" y2="30"/><line opacity="0.2" x1="361.42566606479636" x2="361.42566606479636" y1="0.5" y2="30"/><line opacity="0.2" x1="327.68036469624167" x2="327.68036469624167" y1="0.5" y2="30"/><line opacity="0.2" x1="255.054273554207" x2="255.054273554207" y1="0.5" y2="30"/><line opacity="0.2" x1="531.0245584090962" x2="531.0245584090962" y1="0.5" y2="30"/><line opacity="0.2" x1="157.20250356472997" x2="157.20250356472997" y1="0.5" y2="30"/><line opacity="0.2" x1="230.82479038143447" x2="230.82479038143447" y1="0.5" y2="30"/><line opacity="0.2" x1="444.7072984353149" x2="444.7072984353149" y1="0.5" y2="30"/><line opacity="0.2" x1="374.93171109500315" x2="374.93171109500315" y1="0.5" y2="30"/><line opacity="0.2" x1="180.9981620649585" x2="180.9981620649585" y1="0.5" y2="30"/><line opacity="0.2" x1="371.7361999482353" x2="371.7361999482353" y1="0.5" y2="30"/><line opacity="0.2" x1="244.3355754488968" x2="244.3355754488968" y1="0.5" y2="30"/><line opacity="0.2" x1="426.1722339447114" x2="426.1722339447114" y1="0.5" y2="30"/><line opacity="0.2" x1="319.04610701317847" x2="319.04610701317847" y1="0.5" y2="30"/><line opacity="0.2" x1="282.82545319752313" x2="282.82545319752313" y1="0.5" y2="30"/><line opacity="0.2" x1="332.0579830335279" x2="332.0579830335279" y1="0.5" y2="30"/><line opacity="0.2" x1="212.3236278102576" x2="212.3236278102576" y1="0.5" y2="30"/><line opacity="0.2" x1="170.9784987108659" x2="170.9784987108659" y1="0.5" y2="30"/><line opacity="0.2" x1="252.71888714031743" x2="252.71888714031743" y1="0.5" y2="30"/><line opacity="0.2" x1="284.07767170547953" x2="284.07767170547953" y1="0.5" y2="30"/><line opacity="0.2" x1="295.7715710657976" x2="295.7715710657976" y1="0.5" y2="30"/><line opacity="0.2" x1="485.16260380510374" x2="485.16260380510374" y1="0.5" y2="30"/><line opacity="0.2" x1="388.6487952837736" x2="388.6487952837736" y1="0.5" y2="30"/><line opacity="0.2" x1="351.4107824791201" x2="351.4107824791201" y1="0.5" y2="30"/><line opacity="0.2" x1="495.86366856613364" x2="495.86366856613364" y1="0.5" y2="30"/><line opacity="0.2" x1="360.6307405130719" x2="360.6307405130719" y1="0.5" y2="30"/><line opacity="0.2" x1="327.42521327044653" x2="327.42521327044653" y1="0.5" y2="30"/><line opacity="0.2" x1="582.3615736491364" x2="582.3615736491364" y1="0.5" y2="30"/><line opacity="0.2" x1="372.5692092932098" x2="372.5692092932098" y1="0.5" y2="30"/><line opacity="0.2" x1="464.026621638196" x2="464.026621638196" y1="0.5" y2="30"/><line opacity="0.2" x1="409.1060551131008" x2="409.1060551131008" y1="0.5" y2="30"/><line opacity="0.2" x1="282.8666353116572" x2="282.8666353116572" y1="0.5" y2="30"/><line opacity="0.2" x1="321.49137178832143" x2="321.49137178832143" y1="0.5" y2="30"/><line opacity="0.2" x1="357.91885312956794" x2="357.91885312956794" y1="0.5" y2="30"/><line opacity="0.2" x1="394.4571475069916" x2="394.4571475069916" y1="0.5" y2="30"/><line opacity="0.2" x1="251.06857917264" x2="251.06857917264" y1="0.5" y2="30"/><line opacity="0.2" x1="293.61113550059275" x2="293.61113550059275" y1="0.5" y2="30"/><line opacity="0.2" x1="358.79769605085966" x2="358.79769605085966" y1="0.5" y2="30"/><line opacity="0.2" x1="394.2694239621908" x2="394.2694239621908" y1="0.5" y2="30"/><line opacity="0.2" x1="379.47427115336154" x2="379.47427115336154" y1="0.5" y2="30"/><line opacity="0.2" x1="307.5178333208619" x2="307.5178333208619" y1="0.5" y2="30"/><line opacity="0.2" x1="383.6700869834946" x2="383.6700869834946" y1="0.5" y2="30"/><line opacity="0.2" x1="243.71684614686765" x2="243.71684614686765" y1="0.5" y2="30"/><line opacity="0.2" x1="546.5279178081048" x2="546.5279178081048" y1="0.5" y2="30"/><line opacity="0.2" x1="410.26282099877034" x2="410.26282099877034" y1="0.5" y2="30"/><line opacity="0.2" x1="349.99289975144757" x2="349.99289975144757" y1="0.5" y2="30"/><line opacity="0.2" x1="288.28995979304534" x2="288.28995979304534" y1="0.5" y2="30"/><line opacity="0.2" x1="327.39974132481973" x2="327.39974132481973" y1="0.5" y2="30"/><line opacity="0.2" x1="416.5302886474078" x2="416.5302886474078" y1="0.5" y2="30"/><line opacity="0.2" x1="304.25264176984524" x2="304.25264176984524" y1="0.5" y2="30"/><line opacity="0.2" x1="286.82370179458815" x2="286.82370179458815" y1="0.5" y2="30"/><line opacity="0.2" x1="431.6737924277365" x2="431.6737924277365" y1="0.5" y2="30"/><line opacity="0.2" x1="424.0348270241145" x2="424.0348270241145" y1="0.5" y2="30"/><line opacity="0.2" x1="306.67878813719267" x2="306.67878813719267" y1="0.5" y2="30"/><line opacity="0.2" x1="198.42138316600366" x2="198.42138316600366" y1="0.5" y2="30"/><line opacity="0.2" x1="116.91538494404958" x2="116.91538494404958" y1="0.5" y2="30"/><line opacity="0.2" x1="321.16869264980636" x2="321.16869264980636" y1="0.5" y2="30"/><line opacity="0.2" x1="116.72653856186432" x2="116.72653856186432" y1="0.5" y2="30"/><line opacity="0.2" x1="445.0636701538465" x2="445.0636701538465" y1="0.5" y2="30"/><line opacity="0.2" x1="505.14511776831466" x2="505.14511776831466" y1="0.5" y2="30"/><line opacity="0.2" x1="143.12166149478827" x2="143.12166149478827" y1="0.5" y2="30"/><line opacity="0.2" x1="389.06712383707156" x2="389.06712383707156" y1="0.5" y2="30"/><line opacity="0.2" x1="367.3123736186146" x2="367.3123736186146" y1="0.5" y2="30"/><line opacity="0.2" x1="397.4132526520044" x2="397.4132526520044" y1="0.5" y2="30"/><line opacity="0.2" x1="351.3772032837705" x2="351.3772032837705" y1="0.5" y2="30"/><line opacity="0.2" x1="332.5722394795647" x2="332.5722394795647" y1="0.5" y2="30"/><line opacity="0.2" x1="282.7076100699443" x2="282.7076100699443" y1="0.5" y2="30"/><line opacity="0.2" x1="374.20210351393666" x2="374.20210351393666" y1="0.5" y2="30"/><line opacity="0.2" x1="314.06778629555856" x2="314.06778629555856" y1="0.5" y2="30"/><line opacity="0.2" x1="282.1980733609887" x2="282.1980733609887" y1="0.5" y2="30"/><line opacity="0.2" x1="290.7157626937453" x2="290.7157626937453" y1="0.5" y2="30"/><line opacity="0.2" x1="394.16601747430764" x2="394.16601747430764" y1="0.5" y2="30"/><line opacity="0.2" x1="288.89472110297476" x2="288.89472110297476" y1="0.5" y2="30"/><line opacity="0.2" x1="238.24680850026684" x2="238.24680850026684" y1="0.5" y2="30"/><line opacity="0.2" x1="359.6103104483575" x2="359.6103104483575" y1="0.5" y2="30"/><line opacity="0.2" x1="347.79991569471565" x2="347.79991569471565" y1="0.5" y2="30"/><line opacity="0.2" x1="430.490042931821" x2="430.490042931821" y1="0.5" y2="30"/><line opacity="0.2" x1="269.3391054213356" x2="269.3391054213356" y1="0.5" y2="30"/><line opacity="0.2" x1="299.51306678684466" x2="299.51306678684466" y1="0.5" y2="30"/><line opacity="0.2" x1="320.8819036953457" x2="320.8819036953457" y1="0.5" y2="30"/><line opacity="0.2" x1="474.6034849935723" x2="474.6034849935723" y1="0.5" y2="30"/><line opacity="0.2" x1="396.06907753468045" x2="396.06907753468045" y1="0.5" y2="30"/><line opacity="0.2" x1="268.6847560273619" x2="268.6847560273619" y1="0.5" y2="30"/><line opacity="0.2" x1="405.844993389073" x2="405.844993389073" y1="0.5" y2="30"/><line opacity="0.2" x1="293.2185511047183" x2="293.2185511047183" y1="0.5" y2="30"/><line opacity="0.2" x1="373.0918378605075" x2="373.0918378605075" y1="0.5" y2="30"/><line opacity="0.2" x1="244.84750886969624" x2="244.84750886969624" y1="0.5" y2="30"/><line opacity="0.2" x1="159.39174730023683" x2="159.39174730023683" y1="0.5" y2="30"/><line opacity="0.2" x1="310.2033472165535" x2="310.2033472165535" y1="0.5" y2="30"/><line opacity="0.2" x1="320.68952295889653" x2="320.68952295889653" y1="0.5" y2="30"/><line opacity="0.2" x1="487.0332430298693" x2="487.0332430298693" y1="0.5" y2="30"/><line opacity="0.2" x1="620" x2="620" y1="0.5" y2="30"/><line opacity="0.2" x1="349.0015713280746" x2="349.0015713280746" y1="0.5" y2="30"/><line opacity="0.2" x1="326.6521918805406" x2="326.6521918805406" y1="0.5" y2="30"/><line opacity="0.2" x1="131.8872027744049" x2="131.8872027744049" y1="0.5" y2="30"/><line opacity="0.2" x1="310.5056390279228" x2="310.5056390279228" y1="0.5" y2="30"/><line opacity="0.2" x1="236.12299220224895" x2="236.12299220224895" y1="0.5" y2="30"/><line opacity="0.2" x1="223.65329706696366" x2="223.65329706696366" y1="0.5" y2="30"/><line opacity="0.2" x1="330.6466535423939" x2="330.6466535423939" y1="0.5" y2="30"/><line opacity="0.2" x1="370.2655401776659" x2="370.2655401776659" y1="0.5" y2="30"/><line opacity="0.2" x1="306.3285265106749" x2="306.3285265106749" y1="0.5" y2="30"/><line opacity="0.2" x1="251.3220547903412" x2="251.3220547903412" y1="0.5" y2="30"/><line opacity="0.2" x1="482.1744286294096" x2="482.1744286294096" y1="0.5" y2="30"/><line opacity="0.2" x1="427.3621958763876" x2="427.3621958763876" y1="0.5" y2="30"/><line opacity="0.2" x1="251.00420910973256" x2="251.00420910973256" y1="0.5" y2="30"/><line opacity="0.2" x1="476.3145525598143" x2="476.3145525598143" y1="0.5" y2="30"/><line opacity="0.2" x1="374.8815569524001" x2="374.8815569524001" y1="0.5" y2="30"/><line opacity="0.2" x1="259.4944231253395" x2="259.4944231253395" y1="0.5" y2="30"/><line opacity="0.2" x1="219.6980746936681" x2="219.6980746936681" y1="0.5" y2="30"/><line opacity="0.2" x1="364.856098000051" x2="364.856098000051" y1="0.5" y2="30"/><line opacity="0.2" x1="309.48752243317244" x2="309.48752243317244" y1="0.5" y2="30"/><line opacity="0.2" x1="140.05405509008864" x2="140.05405509008864" y1="0.5" y2="30"/><line opacity="0.2" x1="166.83530727438733" x2="166.83530727438733" y1="0.5" y2="30"/><line opacity="0.2" x1="39.79923460453767" x2="39.79923460453767" y1="0.5" y2="30"/><line opacity="0.2" x1="287.47589560201686" x2="287.47589560201686" y1="0.5" y2="30"/><line opacity="0.2" x1="275.3407697815188" x2="275.3407697815188" y1="0.5" y2="30"/><line opacity="0.2" x1="338.0760622945435" x2="338.0760622945435" y1="0.5" y2="30"/><line opacity="0.2" x1="301.4258621321163" x2="301.4258621321163" y1="0.5" y2="30"/><line opacity="0.2" x1="355.4669054877518" x2="355.4669054877518" y1="0.5" y2="30"/><line opacity="0.2" x1="352.3144470801593" x2="352.3144470801593" y1="0.5" y2="30"/><line opacity="0.2" x1="370.29646051059416" x2="370.29646051059416" y1="0.5" y2="30"/><line opacity="0.2" x1="339.919660161151" x2="339.919660161151" y1="0.5" y2="30"/><line opacity="0.2" x1="307.5286513759829" x2="307.5286513759829" y1="0.5" y2="30"/><line opacity="0.2" x1="177.6384604240431" x2="177.6384604240431" y1="0.5" y2="30"/><line opacity="0.2" x1="475.55931072531826" x2="475.55931072531826" y1="0.5" y2="30"/><line opacity="0.2" x1="248.88285073743202" x2="248.88285073743202" y1="0.5" y2="30"/><line opacity="0.2" x1="174.06156232536904" x2="174.06156232536904" y1="0.5" y2="30"/><line opacity="0.2" x1="313.68841155350617" x2="313.68841155350617" y1="0.5" y2="30"/><line opacity="0.2" x1="290.7452557724592" x2="290.7452557724592" y1="0.5" y2="30"/><line opacity="0.2" x1="167.70097982425239" x2="167.70097982425239" y1="0.5" y2="30"/><line opacity="0.2" x1="381.27575200577206" x2="381.27575200577206" y1="0.5" y2="30"/><line opacity="0.2" x1="243.49306493264243" x2="243.49306493264243" y1="0.5" y2="30"/><line opacity="0.2" x1="56.09412288177416" x2="56.09412288177416" y1="0.5" y2="30"/><line opacity="0.2" x1="292.06644186689533" x2="292.06644186689533" y1="0.5" y2="30"/><line opacity="0.2" x1="419.64722223128666" x2="419.64722223128666" y1="0.5" y2="30"/><line opacity="0.2" x1="279.15228523448957" x2="279.15228523448957" y1="0.5" y2="30"/><line opacity="0.2" x1="454.7914494988335" x2="454.7914494988335" y1="0.5" y2="30"/><line opacity="0.2" x1="483.88500841617844" x2="483.88500841617844" y1="0.5" y2="30"/><line opacity="0.2" x1="318.2787049959598" x2="318.2787049959598" y1="0.5" y2="30"/><line opacity="0.2" x1="290.7203707879087" x2="290.7203707879087" y1="0.5" y2="30"/><line opacity="0.2" x1="410.27772399349055" x2="410.27772399349055" y1="0.5" y2="30"/><line opacity="0.2" x1="20" x2="20" y1="0.5" y2="30"/><line opacity="0.2" x1="581.8035949334366" x2="581.8035949334366" y1="0.5" y2="30"/><line opacity="0.2" x1="323.7597131757613" x2="323.7597131757613" y1="0.5" y2="30"/><line opacity="0.2" x1="267.4967849920332" x2="267.4967849920332" y1="0.5" y2="30"/><line opacity="0.2" x1="315.7795817977991" x2="315.7795817977991" y1="0.5" y2="30"/><line opacity="0.2" x1="255.29498177199872" x2="255.29498177199872" y1="0.5" y2="30"/><line opacity="0.2" x1="313.63546173702827" x2="313.63546173702827" y1="0.5" y2="30"/><line opacity="0.2" x1="400.4473739882809" x2="400.4473739882809" y1="0.5" y2="30"/><line opacity="0.2" x1="329.9363298267803" x2="329.9363298267803" y1="0.5" y2="30"/><line opacity="0.2" x1="315.0940870877484" x2="315.0940870877484" y1="0.5" y2="30"/><line opacity="0.2" x1="335.7272084715039" x2="335.7272084715039" y1="0.5" y2="30"/><line opacity="0.2" x1="390.3323533045828" x2="390.3323533045828" y1="0.5" y2="30"/><line opacity="0.2" x1="342.99741976482596" x2="342.99741976482596" y1="0.5" y2="30"/><line opacity="0.2" x1="274.64432063578033" x2="274.64432063578033" y1="0.5" y2="30"/><line opacity="0.2" x1="459.3126804598915" x2="459.3126804598915" y1="0.5" y2="30"/><line opacity="0.2" x1="337.8936027408642" x2="337.8936027408642" y1="0.5" y2="30"/><line opacity="0.2" x1="336.44342045923645" x2="336.44342045923645" y1="0.5" y2="30"/><line opacity="0.2" x1="343.0688669415817" x2="343.0688669415817" y1="0.5" y2="30"/><line opacity="0.2" x1="267.7444125342248" x2="267.7444125342248" y1="0.5" y2="30"/><line opacity="0.2" x1="380.3600789097999" x2="380.3600789097999" y1="0.5" y2="30"/><line opacity="0.2" x1="303.2808022659058" x2="303.2808022659058" y1="0.5" y2="30"/><line opacity="0.2" x1="214.85253003829874" x2="214.85253003829874" y1="0.5" y2="30"/><line opacity="0.2" x1="343.17087263421206" x2="343.17087263421206" y1="0.5" y2="30"/><line opacity="0.2" x1="428.1141680684419" x2="428.1141680684419" y1="0.5" y2="30"/><line opacity="0.2" x1="292.7316411149106" x2="292.7316411149106" y1="0.5" y2="30"/><line opacity="0.2" x1="278.6207529385665" x2="278.6207529385665" y1="0.5" y2="30"/><line opacity="0.2" x1="394.42108686428736" x2="394.42108686428736" y1="0.5" y2="30"/><line opacity="0.2" x1="332.97304525993286" x2="332.97304525993286" y1="0.5" y2="30"/><line opacity="0.2" x1="322.28343140510475" x2="322.28343140510475" y1="0.5" y2="30"/><line opacity="0.2" x1="401.0344888104089" x2="401.0344888104089" y1="0.5" y2="30"/><line opacity="0.2" x1="387.18966125353785" x2="387.18966125353785" y1="0.5" y2="30"/><line opacity="0.2" x1="399.6297522162909" x2="399.6297522162909" y1="0.5" y2="30"/><line opacity="0.2" x1="376.8385711408591" x2="376.8385711408591" y1="0.5" y2="30"/><line opacity="0.2" x1="346.3660272314811" x2="346.3660272314811" y1="0.5" y2="30"/><line opacity="0.2" x1="365.72824472582994" x2="365.72824472582994" y1="0.5" y2="30"/><line opacity="0.2" x1="367.401113632308" x2="367.401113632308" y1="0.5" y2="30"/></g></svg>