<svg xmlns="http://www.w3.org/2000/svg" xmlns:xlink="http://www.w3.org/1999/xlink" class="plot-d6a7b5" fill="currentColor" font-family="system-ui, sans-serif" font-size="10" text-anchor="middle" width="640" height="60" viewBox="0 0 640 60" style="color: black; background-color: white;"><style>.plot-d6a7b5 {
  display: block;
  background: white;
  height: auto;
  height: intrinsic;
  max-width: 100%;
}
.plot-d6a7b5 text,
.plot-d6a7b5 tspan {
  white-space: pre;
}</style><g aria-label="x-axis tick" fill="none" stroke="currentColor"><path transform="translate(37.93036716932271,30)" d="M0,0L0,6"/><path transform="translate(116.24840638692365,30)" d="M0,0L0,6"/><path transform="translate(194.56644560452457,30)" d="M0,0L0,6"/><path transform="translate(272.88448482212556,30)" d="M0,0L0,6"/><path transform="translate(351.2025240397264,30)" d="M0,0L0,6"/><path transform="translate(429.52056325732735,30)" d="M0,0L0,6"/><path transform="translate(507.8386024749283,30)" d="M0,0L0,6"/><path transform="translate(586.1566416925292,30)" d="M0,0L0,6"/></g><g aria-label="x-axis tick label" font-variant="tabular-nums" transform="translate(0,9)"><text y="0.71em" transform="translate(37.93036716932271,30)">−3</text><text y="0.71em" transform="translate(116.24840638692365,30)">−2</text><text y="0.71em" transform="translate(194.56644560452457,30)">−1</text><text y="0.71em" transform="translate(272.88448482212556,30)">0</text><text y="0.71em" transform="translate(351.2025240397264,30)">1</text><text y="0.71em" transform="translate(429.52056325732735,30)">2</text><text y="0.71em" transform="translate(507.8386024749283,30)">3</text><text y="0.71em" transform="translate(586.1566416925292,30)">4</text></g><g aria-label="tick" stroke="steelblue"><line opacity="0.2" x1="274.66043180532455" x2="274.66043180532455" y1="0.5" y2="30"/><line opacity="0.2" x1="378.1164830303294" x2="378.1164830303294" y1="0.5" y2="30"/><line opacity="0.2" x1="239.360747661606" x2="239.360747661606" y1="0.5" y2="30"/><line opacity="0.2" x1="290.3998674202598" x2="290.3998674202598" y1="0.5" y2="30"/><line opacity="0.2" x1="329.474396072362" x2="329.474396072362" y1="0.5" y2="30"/><line opacity="0.2" x1="302.51063597943465" x2="302.51063597943465" y1="0.5" y2="30"/><line opacity="0.2" x1="360.2543104223392" x2="360.2543104223392" y1="0.5" y2="30"/><line opacity="0.2" x1="469.8760217013776" x2="469.8760217013776" y1="0.5" y2="30"/><line opacity="0.2" x1="248.16523482307971" x2="248.16523482307971" y1="0.5" y2="30"/><line opacity="0.2" x1="246.69818219931656" x2="246.69818219931656" y1="0.5" y2="30"/><line opacity="0.2" x1="332.72376449501985" x2="332.72376449501985" y1="0.5" y2="30"/><line opacity="0.2" x1="421.61623837464344" x2="421.61623837464344" y1="0.5" y2="30"/><line opacity="0.2" x1="357.9547262198131" x2="357.9547262198131" y1="0.5" y2="30"/><line opacity="0.2" x1="304.22444831437775" x2="304.22444831437775" y1="0.5" y2="30"/><line opacity="0.2" x1="280.52124683653284" x2="280.52124683653284" y1="0.5" y2="30"/><line opacity="0.2" x1="369.24821715745077" x2="369.24821715745077" y1="0.5" y2="30"/><line opacity="0.2" x1="219.57475833350247" x2="219.57475833350247" y1="0.5" y2="30"/><line opacity="0.2" x1="141.63063515053142" x2="141.63063515053142" y1="0.5" y2="30"/><line opacity="0.2" x1="345.31083843721393" x2="345.31083843721393" y1="0.5" y2="30"/><line opacity="0.2" x1="450.18464299943525" x2="450.18464299943525" y1="0.5" y2="30"/><line opacity="0.2" x1="328.29761560275466" x2="328.29761560275466" y1="0.5" y2="30"/><line opacity="0.2" x1="268.75491647759077" x2="268.75491647759077" y1="0.5" y2="30"/><line opacity="0.2" x1="367.2839124098975" x2="367.2839124098975" y1="0.5" y2="30"/><line opacity="0.2" x1="225.03468167734886" x2="225.03468167734886" y1="0.5" y2="30"/><line opacity="0.2" x1="267.08494103707153" x2="267.08494103707153" y1="0.5" y2="30"/><line opacity="0.2" x1="263.95206243585676" x2="263.95206243585676" y1="0.5" y2="30"/><line opacity="0.2" x1="222.38020983001564" x2="222.38020983001564" y1="0.5" y2="30"/><line opacity="0.2" x1="290.48206719320905" x2="290.48206719320905" y1="0.5" y2="30"/><line opacity="0.2" x1="226.36623301310934" x2="226.36623301310934" y1="0.5" y2="30"/><line opacity="0.2" x1="205.49317164036964" x2="205.49317164036964" y1="0.5" y2="30"/><line opacity="0.2" x1="200.63019639186072" x2="200.63019639186072" y1="0.5" y2="30"/><line opacity="0.2" x1="299.20248325307506" x2="299.20248325307506" y1="0.5" y2="30"/><line opacity="0.2" x1="270.6718937366989" x2="270.6718937366989" y1="0.5" y2="30"/><line opacity="0.2" x1="298.01141832180787" x2="298.01141832180787" y1="0.5" y2="30"/><line opacity="0.2" x1="283.89044767836117" x2="283.89044767836117" y1="0.5" y2="30"/><line opacity="0.2" x1="323.1470819272988" x2="323.1470819272988" y1="0.5" y2="30"/><line opacity="0.2" x1="192.73067314500457" x2="192.73067314500457" y1="0.5" y2="30"/><line opacity="0.2" x1="419.32999569118317" x2="419.32999569118317" y1="0.5" y2="30"/><line opacity="0.2" x1="307.17660754687984" x2="307.17660754687984" y1="0.5" y2="30"/><line opacity="0.2" x1="273.1590936729898" x2="273.1590936729898" y1="0.5" y2="30"/><line opacity="0.2" x1="297.47173046311224" x2="297.47173046311224" y1="0.5" y2="30"/><line opacity="0.2" x1="279.86219776109516" x2="279.86219776109516" y1="0.5" y2="30"/><line opacity="0.2" x1="235.1496755364436" x2="235.1496755364436" y1="0.5" y2="30"/><line opacity="0.2" x1="190.8402270606364" x2="190.8402270606364" y1="0.5" y2="30"/><line opacity="0.2" x1="248.5729322773175" x2="248.5729322773175" y1="0.5" y2="30"/><line opacity="0.2" x1="360.01833289461325" x2="360.01833289461325" y1="0.5" y2="30"/><line opacity="0.2" x1="273.27321765970123" x2="273.27321765970123" y1="0.5" y2="30"/><line opacity="0.2" x1="256.57725142334095" x2="256.57725142334095" y1="0.5" y2="30"/><line opacity="0.2" x1="236.79908346711332" x2="236.79908346711332" y1="0.5" y2="30"/><line opacity="0.2" x1="237.42353299124642" x2="237.42353299124642" y1="0.5" y2="30"/><line opacity="0.2" x1="120.5119252357857" x2="120.5119252357857" y1="0.5" y2="30"/><line opacity="0.2" x1="321.7035930968114" x2="321.7035930968114" y1="0.5" y2="30"/><line opacity="0.2" x1="271.9223091626751" x2="271.9223091626751" y1="0.5" y2="30"/><line opacity="0.2" x1="425.62197585930016" x2="425.62197585930016" y1="0.5" y2="30"/><line opacity="0.2" x1="324.4165231155067" x2="324.4165231155067" y1="0.5" y2="30"/><line opacity="0.2" x1="318.4182257583955" x2="318.4182257583955" y1="0.5" y2="30"/><line opacity="0.2" x1="435.36052554018477" x2="435.36052554018477" y1="0.5" y2="30"/><line opacity="0.2" x1="290.4392246739359" x2="290.4392246739359" y1="0.5" y2="30"/><line opacity="0.2" x1="193.56086749241925" x2="193.56086749241925" y1="0.5" y2="30"/><line opacity="0.2" x1="206.5103078514133" x2="206.5103078514133" y1="0.5" y2="30"/><line opacity="0.2" x1="233.98169760618094" x2="233.98169760618094" y1="0.5" y2="30"/><line opacity="0.2" x1="291.4269994597631" x2="291.4269994597631" y1="0.5" y2="30"/><line opacity="0.2" x1="191.48925695570713" x2="191.48925695570713" y1="0.5" y2="30"/><line opacity="0.2" x1="207.43828898548568" x2="207.43828898548568" y1="0.5" y2="30"/><line opacity="0.2" x1="352.90253597681124" x2="352.90253597681124" y1="0.5" y2="30"/><line opacity="0.2" x1="185.63912620274758" x2="185.63912620274758" y1="0.5" y2="30"/><line opacity="0.2" x1="387.463529661835" x2="387.463529661835" y1="0.5" y2="30"/><line opacity="0.2" x1="408.5460987422999" x2="408.5460987422999" y1="0.5" y2="30"/><line opacity="0.2" x1="213.00577086693053" x2="213.00577086693053" y1="0.5" y2="30"/><line opacity="0.2" x1="258.1728269958917" x2="258.1728269958917" y1="0.5" y2="30"/><line opacity="0.2" x1="334.14550780182105" x2="334.14550780182105" y1="0.5" y2="30"/><line opacity="0.2" x1="125.68689468383755" x2="125.68689468383755" y1="0.5" y2="30"/><line opacity="0.2" x1="331.94067581855313" x2="331.94067581855313" y1="0.5" y2="30"/><line opacity="0.2" x1="326.42055496343613" x2="326.42055496343613" y1="0.5" y2="30"/><line opacity="0.2" x1="410.7388409697495" x2="410.7388409697495" y1="0.5" y2="30"/><line opacity="0.2" x1="386.2355129382624" x2="386.2355129382624" y1="0.5" y2="30"/><line opacity="0.2" x1="199.49137172441914" x2="199.49137172441914" y1="0.5" y2="30"/><line opacity="0.2" x1="232.29528107980198" x2="232.29528107980198" y1="0.5" y2="30"/><line opacity="0.2" x1="309.41723630720657" x2="309.41723630720657" y1="0.5" y2="30"/><line opacity="0.2" x1="302.494484226024" x2="302.494484226024" y1="0.5" y2="30"/><line opacity="0.2" x1="253.85512733784773" x2="253.85512733784773" y1="0.5" y2="30"/><line opacity="0.2" x1="194.33374979025652" x2="194.33374979025652" y1="0.5" y2="30"/><line opacity="0.2" x1="324.0419641215744" x2="324.0419641215744" y1="0.5" y2="30"/><line opacity="0.2" x1="247.8881747568132" x2="247.8881747568132" y1="0.5" y2="30"/><line opacity="0.2" x1="334.48060824278565" x2="334.48060824278565" y1="0.5" y2="30"/><line opacity="0.2" x1="263.7225432426244" x2="263.7225432426244" y1="0.5" y2="30"/><line opacity="0.2" x1="191.06020845899715" x2="191.06020845899715" y1="0.5" y2="30"/><line opacity="0.2" x1="326.32007303069634" x2="326.32007303069634" y1="0.5" y2="30"/><line opacity="0.2" x1="284.31761044443476" x2="284.31761044443476" y1="0.5" y2="30"/><line opacity="0.2" x1="264.86946081782605" x2="264.86946081782605" y1="0.5" y2="30"/><line opacity="0.2" x1="350.02230750304886" x2="350.02230750304886" y1="0.5" y2="30"/><line opacity="0.2" x1="283.31185865026464" x2="283.31185865026464" y1="0.5" y2="30"/><line opacity="0.2" x1="303.36697287531615" x2="303.36697287531615" y1="0.5" y2="30"/><line opacity="0.2" x1="418.4552019816915" x2="418.4552019816915" y1="0.5" y2="30"/><line opacity="0.2" x1="355.04446537308905" x2="355.04446537308905" y1="0.5" y2="30"/><line opacity="0.2" x1="215.32067217050624" x2="215.32067217050624" y1="0.5" y2="30"/><line opacity="0.2" x1="408.85636898824094" x2="408.85636898824094" y1="0.5" y2="30"/><line opacity="0.2" x1="199.22720650021586" x2="199.22720650021586" y1="0.5" y2="30"/><line opacity="0.2" x1="199.57604526186876" x2="199.57604526186876" y1="0.5" y2="30"/><line opacity="0.2" x1="85.85224915012985" x2="85.85224915012985" y1="0.5" y2="30"/><line opacity="0.2" x1="199.75180141543717" x2="199.75180141543717" y1="0.5" y2="30"/><line opacity="0.2" x1="343.327670986315" x2="343.327670986315" y1="0.5" y2="30"/><line opacity="0.2" x1="323.92896445843326" x2="323.92896445843326" y1="0.5" y2="30"/><line opacity="0.2" x1="338.7871599922069" x2="338.7871599922069" y1="0.5" y2="30"/><line opacity="0.2" x1="271.0597295139796" x2="271.0597295139796" y1="0.5" y2="30"/><line opacity="0.2" x1="252.50652131316846" x2="252.50652131316846" y1="0.5" y2="30"/><line opacity="0.2" x1="251.45736246410712" x2="251.45736246410712" y1="0.5" y2="30"/><line opacity="0.2" x1="254.33444845755383" x2="254.33444845755383" y1="0.5" y2="30"/><line opacity="0.2" x1="245.298005547046" x2="245.298005547046" y1="0.5" y2="30"/><line opacity="0.2" x1="270.8641531785286" x2="270.8641531785286" y1="0.5" y2="30"/><line opacity="0.2" x1="305.77191712422257" x2="305.77191712422257" y1="0.5" y2="30"/><line opacity="0.2" x1="252.39035363220958" x2="252.39035363220958" y1="0.5" y2="30"/><line opacity="0.2" x1="162.94152319709357" x2="162.94152319709357" y1="0.5" y2="30"/><line opacity="0.2" x1="212.86735954113516" x2="212.86735954113516" y1="0.5" y2="30"/><line opacity="0.2" x1="316.29767040972234" x2="316.29767040972234" y1="0.5" y2="30"/><line opacity="0.2" x1="309.61635705204833" x2="309.61635705204833" y1="0.5" y2="30"/><line opacity="0.2" x1="189.25304257249218" x2="189.25304257249218" y1="0.5" y2="30"/><line opacity="0.2" x1="273.244883042843" x2="273.244883042843" y1="0.5" y2="30"/><line opacity="0.2" x1="269.3283942210096" x2="269.3283942210096" y1="0.5" y2="30"/><line opacity="0.2" x1="335.27400193168086" x2="335.27400193168086" y1="0.5" y2="30"/><line opacity="0.2" x1="251.9506232778077" x2="251.9506232778077" y1="0.5" y2="30"/><line opacity="0.2" x1="196.10878105427872" x2="196.10878105427872" y1="0.5" y2="30"/><line opacity="0.2" x1="186.4935454377132" x2="186.4935454377132" y1="0.5" y2="30"/><line opacity="0.2" x1="263.58162223188646" x2="263.58162223188646" y1="0.5" y2="30"/><line opacity="0.2" x1="229.01351305397785" x2="229.01351305397785" y1="0.5" y2="30"/><line opacity="0.2" x1="371.95766292610625" x2="371.95766292610625" y1="0.5" y2="30"/><line opacity="0.2" x1="279.92127787257243" x2="279.92127787257243" y1="0.5" y2="30"/><line opacity="0.2" x1="284.5920876610836" x2="284.5920876610836" y1="0.5" y2="30"/><line opacity="0.2" x1="135.60304507164702" x2="135.60304507164702" y1="0.5" y2="30"/><line opacity="0.2" x1="367.7886154537364" x2="367.7886154537364" y1="0.5" y2="30"/><line opacity="0.2" x1="235.55520339401687" x2="235.55520339401687" y1="0.5" y2="30"/><line opacity="0.2" x1="167.4915446932217" x2="167.4915446932217" y1="0.5" y2="30"/><line opacity="0.2" x1="310.2934826752404" x2="310.2934826752404" y1="0.5" y2="30"/><line opacity="0.2" x1="483.4218980547153" x2="483.4218980547153" y1="0.5" y2="30"/><line opacity="0.2" x1="317.54966759604343" x2="317.54966759604343" y1="0.5" y2="30"/><line opacity="0.2" x1="225.53829109144732" x2="225.53829109144732" y1="0.5" y2="30"/><line opacity="0.2" x1="202.12211643355147" x2="202.12211643355147" y1="0.5" y2="30"/><line opacity="0.2" x1="349.37952008941556" x2="349.37952008941556" y1="0.5" y2="30"/><line opacity="0.2" x1="297.27326803543525" x2="297.27326803543525" y1="0.5" y2="30"/><line opacity="0.2" x1="284.01309200085944" x2="284.01309200085944" y1="0.5" y2="30"/><line opacity="0.2" x1="302.69246542916176" x2="302.69246542916176" y1="0.5" y2="30"/><line opacity="0.2" x1="188.0627446346248" x2="188.0627446346248" y1="0.5" y2="30"/><line opacity="0.2" x1="190.17051755524457" x2="190.17051755524457" y1="0.5" y2="30"/><line opacity="0.2" x1="67.2529919665272" x2="67.2529919665272" y1="0.5" y2="30"/><line opacity="0.2" x1="69.52092969929846" x2="69.52092969929846" y1="0.5" y2="30"/><line opacity="0.2" x1="287.4465326122486" x2="287.4465326122486" y1="0.5" y2="30"/><line opacity="0.2" x1="369.5623364553254" x2="369.5623364553254" y1="0.5" y2="30"/><line opacity="0.2" x1="420.78067252068166" x2="420.78067252068166" y1="0.5" y2="30"/><line opacity="0.2" x1="284.9964983650857" x2="284.9964983650857" y1="0.5" y2="30"/><line opacity="0.2" x1="215.7301054841072" x2="215.7301054841072" y1="0.5" y2="30"/><line opacity="0.2" x1="218.17496795227274" x2="218.17496795227274" y1="0.5" y2="30"/><line opacity="0.2" x1="210.70630944624253" x2="210.70630944624253" y1="0.5" y2="30"/><line opacity="0.2" x1="398.7327260805348" x2="398.7327260805348" y1="0.5" y2="30"/><line opacity="0.2" x1="245.95908714444707" x2="245.95908714444707" y1="0.5" y2="30"/><line opacity="0.2" x1="352.8171084937873" x2="352.8171084937873" y1="0.5" y2="30"/><line opacity="0.2" x1="276.2718060048278" x2="276.2718060048278" y1="0.5" y2="30"/><line opacity="0.2" x1="151.73237346658135" x2="151.73237346658135" y1="0.5" y2="30"/><line opacity="0.2" x1="297.2562996068575" x2="297.2562996068575" y1="0.5" y2="30"/><line opacity="0.2" x1="395.0319856620467" x2="395.0319856620467" y1="0.5" y2="30"/><line opacity="0.2" x1="133.10677282263276" x2="133.10677282263276" y1="0.5" y2="30"/><line opacity="0.2" x1="204.20511707497786" x2="204.20511707497786" y1="0.5" y2="30"/><line opacity="0.2" x1="222.6799122718657" x2="222.6799122718657" y1="0.5" y2="30"/><line opacity="0.2" x1="311.0862439281525" x2="311.0862439281525" y1="0.5" y2="30"/><line opacity="0.2" x1="325.1849565965757" x2="325.1849565965757" y1="0.5" y2="30"/><line opacity="0.2" x1="235.55366635345334" x2="235.55366635345334" y1="0.5" y2="30"/><line opacity="0.2" x1="267.1952010767138" x2="267.1952010767138" y1="0.5" y2="30"/><line opacity="0.2" x1="270.42895427135613" x2="270.42895427135613" y1="0.5" y2="30"/><line opacity="0.2" x1="388.11790906924773" x2="388.11790906924773" y1="0.5" y2="30"/><line opacity="0.2" x1="296.3050146627672" x2="296.3050146627672" y1="0.5" y2="30"/><line opacity="0.2" x1="176.4313025457677" x2="176.4313025457677" y1="0.5" y2="30"/><line opacity="0.2" x1="295.65233925042793" x2="295.65233925042793" y1="0.5" y2="30"/><line opacity="0.2" x1="164.69127432615696" x2="164.69127432615696" y1="0.5" y2="30"/><line opacity="0.2" x1="306.94070228636997" x2="306.94070228636997" y1="0.5" y2="30"/><line opacity="0.2" x1="403.66136074534506" x2="403.66136074534506" y1="0.5" y2="30"/><line opacity="0.2" x1="217.81684753405565" x2="217.81684753405565" y1="0.5" y2="30"/><line opacity="0.2" x1="195.10901535097554" x2="195.10901535097554" y1="0.5" y2="30"/><line opacity="0.2" x1="368.80621285634004" x2="368.80621285634004" y1="0.5" y2="30"/><line opacity="0.2" x1="363.99649811530253" x2="363.99649811530253" y1="0.5" y2="30"/><line opacity="0.2" x1="310.784302001679" x2="310.784302001679" y1="0.5" y2="30"/><line opacity="0.2" x1="314.2570807079833" x2="314.2570807079833" y1="0.5" y2="30"/><line opacity="0.2" x1="142.17706151839334" x2="142.17706151839334" y1="0.5" y2="30"/><line opacity="0.2" x1="335.11223691578795" x2="335.11223691578795" y1="0.5" y2="30"/><line opacity="0.2" x1="265.7391832983782" x2="265.7391832983782" y1="0.5" y2="30"/><line opacity="0.2" x1="275.5364362301403" x2="275.5364362301403" y1="0.5" y2="30"/><line opacity="0.2" x1="351.9017540052179" x2="351.9017540052179" y1="0.5" y2="30"/><line opacity="0.2" x1="395.9071706708859" x2="395.9071706708859" y1="0.5" y2="30"/><line opacity="0.2" x1="353.4046592326954" x2="353.4046592326954" y1="0.5" y2="30"/><line opacity="0.2" x1="374.3736521642945" x2="374.3736521642945" y1="0.5" y2="30"/><line opacity="0.2" x1="189.2691449429682" x2="189.2691449429682" y1="0.5" y2="30"/><line opacity="0.2" x1="136.23570504556326" x2="136.23570504556326" y1="0.5" y2="30"/><line opacity="0.2" x1="308.8048450113785" x2="308.8048450113785" y1="0.5" y2="30"/><line opacity="0.2" x1="391.57023475361297" x2="391.57023475361297" y1="0.5" y2="30"/><line opacity="0.2" x1="299.61261001551077" x2="299.61261001551077" y1="0.5" y2="30"/><line opacity="0.2" x1="306.73925443942863" x2="306.73925443942863" y1="0.5" y2="30"/><line opacity="0.2" x1="316.6518127495699" x2="316.6518127495699" y1="0.5" y2="30"/><line opacity="0.2" x1="348.023672872139" x2="348.023672872139" y1="0.5" y2="30"/><line opacity="0.2" x1="207.13065114895505" x2="207.13065114895505" y1="0.5" y2="30"/><line opacity="0.2" x1="194.3623595589585" x2="194.3623595589585" y1="0.5" y2="30"/><line opacity="0.2" x1="452.88208729224726" x2="452.88208729224726" y1="0.5" y2="30"/><line opacity="0.2" x1="342.35021464799155" x2="342.35021464799155" y1="0.5" y2="30"/><line opacity="0.2" x1="139.68561022626594" x2="139.68561022626594" y1="0.5" y2="30"/><line opacity="0.2" x1="205.45166104237916" x2="205.45166104237916" y1="0.5" y2="30"/><line opacity="0.2" x1="283.6127805471381" x2="283.6127805471381" y1="0.5" y2="30"/><line opacity="0.2" x1="291.4201246683491" x2="291.4201246683491" y1="0.5" y2="30"/><line opacity="0.2" x1="220.5386144464257" x2="220.5386144464257" y1="0.5" y2="30"/><line opacity="0.2" x1="336.99891448584646" x2="336.99891448584646" y1="0.5" y2="30"/><line opacity="0.2" x1="225.35336520574737" x2="225.35336520574737" y1="0.5" y2="30"/><line opacity="0.2" x1="288.1281503387349" x2="288.1281503387349" y1="0.5" y2="30"/><line opacity="0.2" x1="238.32241875755" x2="238.32241875755" y1="0.5" y2="30"/><line opacity="0.2" x1="418.92651499860233" x2="418.92651499860233" y1="0.5" y2="30"/><line opacity="0.2" x1="327.9954554899791" x2="327.9954554899791" y1="0.5" y2="30"/><line opacity="0.2" x1="426.4348968883271" x2="426.4348968883271" y1="0.5" y2="30"/><line opacity="0.2" x1="317.6435656379929" x2="317.6435656379929" y1="0.5" y2="30"/><line opacity="0.2" x1="348.66465443738736" x2="348.66465443738736" y1="0.5" y2="30"/><line opacity="0.2" x1="248.36054556146877" x2="248.36054556146877" y1="0.5" y2="30"/><line opacity="0.2" x1="240.4652269886354" x2="240.4652269886354" y1="0.5" y2="30"/><line opacity="0.2" x1="302.2249699948946" x2="302.2249699948946" y1="0.5" y2="30"/><line opacity="0.2" x1="438.5292249226004" x2="438.5292249226004" y1="0.5" y2="30"/><line opacity="0.2" x1="174.56831944592773" x2="174.56831944592773" y1="0.5" y2="30"/><line opacity="0.2" x1="345.7206240297613" x2="345.7206240297613" y1="0.5" y2="30"/><line opacity="0.2" x1="317.7759856254234" x2="317.7759856254234" y1="0.5" y2="30"/><line opacity="0.2" x1="258.9238118666218" x2="258.9238118666218" y1="0.5" y2="30"/><line opacity="0.2" x1="217.18080890293837" x2="217.18080890293837" y1="0.5" y2="30"/><line opacity="0.2" x1="253.1359204563727" x2="253.1359204563727" y1="0.5" y2="30"/><line opacity="0.2" x1="153.5655116037881" x2="153.5655116037881" y1="0.5" y2="30"/><line opacity="0.2" x1="241.04553722346955" x2="241.04553722346955" y1="0.5" y2="30"/><line opacity="0.2" x1="236.9113536386002" x2="236.9113536386002" y1="0.5" y2="30"/><line opacity="0.2" x1="218.3741837314257" x2="218.3741837314257" y1="0.5" y2="30"/><line opacity="0.2" x1="189.39540800613207" x2="189.39540800613207" y1="0.5" y2="30"/><line opacity="0.2" x1="337.3618567196567" x2="337.3618567196567" y1="0.5" y2="30"/><line opacity="0.2" x1="132.87427220852337" x2="132.87427220852337" y1="0.5" y2="30"/><line opacity="0.2" x1="221.04553577732597" x2="221.04553577732597" y1="0.5" y2="30"/><line opacity="0.2" x1="202.19896720311118" x2="202.19896720311118" y1="0.5" y2="30"/><line opacity="0.2" x1="272.0002248645403" x2="272.0002248645403" y1="0.5" y2="30"/><line opacity="0.2" x1="379.0346204268823" x2="379.0346204268823" y1="0.5" y2="30"/><line opacity="0.2" x1="207.0343124539829" x2="207.0343124539829" y1="0.5" y2="30"/><line opacity="0.2" x1="266.79761886254664" x2="266.79761886254664" y1="0.5" y2="30"/><line opacity="0.2" x1="55.29248188322194" x2="55.29248188322194" y1="0.5" y2="30"/><line opacity="0.2" x1="231.06479726689753" x2="231.06479726689753" y1="0.5" y2="30"/><line opacity="0.2" x1="307.75419611381324" x2="307.75419611381324" y1="0.5" y2="30"/><line opacity="0.2" x1="93.27400264859236" x2="93.27400264859236" y1="0.5" y2="30"/><line opacity="0.2" x1="257.1133821783766" x2="257.1133821783766" y1="0.5" y2="30"/><line opacity="0.2" x1="176.93655850581825" x2="176.93655850581825" y1="0.5" y2="30"/><line opacity="0.2" x1="280.1452195635485" x2="280.1452195635485" y1="0.5" y2="30"/><line opacity="0.2" x1="218.33557680222805" x2="218.33557680222805" y1="0.5" y2="30"/><line opacity="0.2" x1="225.39467744676676" x2="225.39467744676676" y1="0.5" y2="30"/><line opacity="0.2" x1="281.69116017103784" x2="281.69116017103784" y1="0.5" y2="30"/><line opacity="0.2" x1="236.34627618479357" x2="236.34627618479357" y1="0.5" y2="30"/><line opacity="0.2" x1="268.7546858838083" x2="268.7546858838083" y1="0.5" y2="30"/><line opacity="0.2" x1="284.7954672992797" x2="284.7954672992797" y1="0.5" y2="30"/><line opacity="0.2" x1="308.86014959796745" x2="308.86014959796745" y1="0.5" y2="30"/><line opacity="0.2" x1="197.0751410733633" x2="197.0751410733633" y1="0.5" y2="30"/><line opacity="0.2" x1="290.5952401338811" x2="290.5952401338811" y1="0.5" y2="30"/><line opacity="0.2" x1="183.44379242302588" x2="183.44379242302588" y1="0.5" y2="30"/><line opacity="0.2" x1="262.6029968270274" x2="262.6029968270274" y1="0.5" y2="30"/><line opacity="0.2" x1="242.44965377688283" x2="242.44965377688283" y1="0.5" y2="30"/><line opacity="0.2" x1="202.67265049979724" x2="202.67265049979724" y1="0.5" y2="30"/><line opacity="0.2" x1="374.00436187182856" x2="374.00436187182856" y1="0.5" y2="30"/><line opacity="0.2" x1="277.174346029817" x2="277.174346029817" y1="0.5" y2="30"/><line opacity="0.2" x1="148.2352115080791" x2="148.2352115080791" y1="0.5" y2="30"/><line opacity="0.2" x1="311.5260293876416" x2="311.5260293876416" y1="0.5" y2="30"/><line opacity="0.2" x1="309.68058301885884" x2="309.68058301885884" y1="0.5" y2="30"/><line opacity="0.2" x1="310.87529269246335" x2="310.87529269246335" y1="0.5" y2="30"/><line opacity="0.2" x1="245.9368671754527" x2="245.9368671754527" y1="0.5" y2="30"/><line opacity="0.2" x1="247.91209161171443" x2="247.91209161171443" y1="0.5" y2="30"/><line opacity="0.2" x1="359.20072592238495" x2="359.20072592238495" y1="0.5" y2="30"/><line opacity="0.2" x1="206.93997093520437" x2="206.93997093520437" y1="0.5" y2="30"/><line opacity="0.2" x1="181.59606546477684" x2="181.59606546477684" y1="0.5" y2="30"/><line opacity="0.2" x1="292.5247372552759" x2="292.5247372552759" y1="0.5" y2="30"/><line opacity="0.2" x1="386.64332080435366" x2="386.64332080435366" y1="0.5" y2="30"/><line opacity="0.2" x1="304.01461387328175" x2="304.01461387328175" y1="0.5" y2="30"/><line opacity="0.2" x1="250.25280155094495" x2="250.25280155094495" y1="0.5" y2="30"/><line opacity="0.2" x1="212.93392330061118" x2="212.93392330061118" y1="0.5" y2="30"/><line opacity="0.2" x1="308.6878762877266" x2="308.6878762877266" y1="0.5" y2="30"/><line opacity="0.2" x1="315.59674293496056" x2="315.59674293496056" y1="0.5" y2="30"/><line opacity="0.2" x1="280.2927650698696" x2="280.2927650698696" y1="0.5" y2="30"/><line opacity="0.2" x1="302.70365401746017" x2="302.70365401746017" y1="0.5" y2="30"/><line opacity="0.2" x1="302.67734974263186" x2="302.67734974263186" y1="0.5" y2="30"/><line opacity="0.2" x1="169.37734227495457" x2="169.37734227495457" y1="0.5" y2="30"/><line opacity="0.2" x1="255.52111510633472" x2="255.52111510633472" y1="0.5" y2="30"/><line opacity="0.2" x1="403.99986228092007" x2="403.99986228092007" y1="0.5" y2="30"/><line opacity="0.2" x1="309.87758255168393" x2="309.87758255168393" y1="0.5" y2="30"/><line opacity="0.2" x1="275.3621665477115" x2="275.3621665477115" y1="0.5" y2="30"/><line opacity="0.2" x1="367.1955406835223" x2="367.1955406835223" y1="0.5" y2="30"/><line opacity="0.2" x1="182.86628393752008" x2="182.86628393752008" y1="0.5" y2="30"/><line opacity="0.2" x1="344.39787660055373" x2="344.39787660055373" y1="0.5" y2="30"/><line opacity="0.2" x1="290.2422184231651" x2="290.2422184231651" y1="0.5" y2="30"/><line opacity="0.2" x1="265.4226696984093" x2="265.4226696984093" y1="0.5" y2="30"/><line opacity="0.2" x1="165.24491018566724" x2="165.24491018566724" y1="0.5" y2="30"/><line opacity="0.2" x1="269.8653191388323" x2="269.8653191388323" y1="0.5" y2="30"/><line opacity="0.2" x1="280.7830210905385" x2="280.7830210905385" y1="0.5" y2="30"/><line opacity="0.2" x1="149.07691705301045" x2="149.07691705301045" y1="0.5" y2="30"/><line opacity="0.2" x1="215.0289160083213" x2="215.0289160083213" y1="0.5" y2="30"/><line opacity="0.2" x1="199.34964958287955" x2="199.34964958287955" y1="0.5" y2="30"/><line opacity="0.2" x1="340.46116714738645" x2="340.46116714738645" y1="0.5" y2="30"/><line opacity="0.2" x1="297.4409643589298" x2="297.4409643589298" y1="0.5" y2="30"/><line opacity="0.2" x1="331.90637762400706" x2="331.90637762400706" y1="0.5" y2="30"/><line opacity="0.2" x1="141.94578892941811" x2="141.94578892941811" y1="0.5" y2="30"/><line opacity="0.2" x1="239.03682067374712" x2="239.03682067374712" y1="0.5" y2="30"/><line opacity="0.2" x1="258.9837543835444" x2="258.9837543835444" y1="0.5" y2="30"/><line opacity="0.2" x1="390.68172332035" x2="390.68172332035" y1="0.5" y2="30"/><line opacity="0.2" x1="175.59526346165165" x2="175.59526346165165" y1="0.5" y2="30"/><line opacity="0.2" x1="414.95731114852885" x2="414.95731114852885" y1="0.5" y2="30"/><line opacity="0.2" x1="317.92327327587816" x2="317.92327327587816" y1="0.5" y2="30"/><line opacity="0.2" x1="236.39303177434076" x2="236.39303177434076" y1="0.5" y2="30"/><line opacity="0.2" x1="430.5168409770985" x2="430.5168409770985" y1="0.5" y2="30"/><line opacity="0.2" x1="298.35965467243756" x2="298.35965467243756" y1="0.5" y2="30"/><line opacity="0.2" x1="241.06821593362946" x2="241.06821593362946" y1="0.5" y2="30"/><line opacity="0.2" x1="241.23614620504503" x2="241.23614620504503" y1="0.5" y2="30"/><line opacity="0.2" x1="204.09334598250024" x2="204.09334598250024" y1="0.5" y2="30"/><line opacity="0.2" x1="142.19860598066458" x2="142.19860598066458" y1="0.5" y2="30"/><line opacity="0.2" x1="255.05877051258446" x2="255.05877051258446" y1="0.5" y2="30"/><line opacity="0.2" x1="271.4513828847789" x2="271.4513828847789" y1="0.5" y2="30"/><line opacity="0.2" x1="345.4531665870318" x2="345.4531665870318" y1="0.5" y2="30"/><line opacity="0.2" x1="344.4034924057433" x2="344.4034924057433" y1="0.5" y2="30"/><line opacity="0.2" x1="307.8219561473465" x2="307.8219561473465" y1="0.5" y2="30"/><line opacity="0.2" x1="191.81689881604066" x2="191.81689881604066" y1="0.5" y2="30"/><line opacity="0.2" x1="107.31769326439031" x2="107.31769326439031" y1="0.5" y2="30"/><line opacity="0.2" x1="329.35047918480285" x2="329.35047918480285" y1="0.5" y2="30"/><line opacity="0.2" x1="287.2508156715271" x2="287.2508156715271" y1="0.5" y2="30"/><line opacity="0.2" x1="343.0865481338527" x2="343.0865481338527" y1="0.5" y2="30"/><line opacity="0.2" x1="411.7109512834742" x2="411.7109512834742" y1="0.5" y2="30"/><line opacity="0.2" x1="261.62331321664067" x2="261.62331321664067" y1="0.5" y2="30"/><line opacity="0.2" x1="304.68516893780406" x2="304.68516893780406" y1="0.5" y2="30"/><line opacity="0.2" x1="235.98488819782204" x2="235.98488819782204" y1="0.5" y2="30"/><line opacity="0.2" x1="238.62820807742784" x2="238.62820807742784" y1="0.5" y2="30"/><line opacity="0.2" x1="269.7100346669238" x2="269.7100346669238" y1="0.5" y2="30"/><line opacity="0.2" x1="131.8467924492745" x2="131.8467924492745" y1="0.5" y2="30"/><line opacity="0.2" x1="352.09692195579305" x2="352.09692195579305" y1="0.5" y2="30"/><line opacity="0.2" x1="154.08530748286813" x2="154.08530748286813" y1="0.5" y2="30"/><line opacity="0.2" x1="168.52385386734443" x2="168.52385386734443" y1="0.5" y2="30"/><line opacity="0.2" x1="380.79887420872285" x2="380.79887420872285" y1="0.5" y2="30"/><line opacity="0.2" x1="133.81030779041194" x2="133.81030779041194" y1="0.5" y2="30"/><line opacity="0.2" x1="308.61479008304553" x2="308.61479008304553" y1="0.5" y2="30"/><line opacity="0.2" x1="244.5516127080247" x2="244.5516127080247" y1="0.5" y2="30"/><line opacity="0.2" x1="226.7100526342836" x2="226.7100526342836" y1="0.5" y2="30"/><line opacity="0.2" x1="295.59654758031763" x2="295.59654758031763" y1="0.5" y2="30"/><line opacity="0.2" x1="278.3099105039691" x2="278.3099105039691" y1="0.5" y2="30"/><line opacity="0.2" x1="280.11720873437457" x2="280.11720873437457" y1="0.5" y2="30"/><line opacity="0.2" x1="276.3821149367929" x2="276.3821149367929" y1="0.5" y2="30"/><line opacity="0.2" x1="208.28364996732623" x2="208.28364996732623" y1="0.5" y2="30"/><line opacity="0.2" x1="322.81503425491326" x2="322.81503425491326" y1="0.5" y2="30"/><line opacity="0.2" x1="240.05256753600813" x2="240.05256753600813" y1="0.5" y2="30"/><line opacity="0.2" x1="208.2877082088293" x2="208.2877082088293" y1="0.5" y2="30"/><line opacity="0.2" x1="388.7739153689458" x2="388.7739153689458" y1="0.5" y2="30"/><line opacity="0.2" x1="389.3723884084809" x2="389.3723884084809" y1="0.5" y2="30"/><line opacity="0.2" x1="289.00097184537253" x2="289.00097184537253" y1="0.5" y2="30"/><line opacity="0.2" x1="481.2254696291839" x2="481.2254696291839" y1="0.5" y2="30"/><line opacity="0.2" x1="356.20939230390775" x2="356.20939230390775" y1="0.5" y2="30"/><line opacity="0.2" x1="228.23513709786315" x2="228.23513709786315" y1="0.5" y2="30"/><line opacity="0.2" x1="311.66888023803176" x2="311.66888023803176" y1="0.5" y2="30"/><line opacity="0.2" x1="208.80590084374444" x2="208.80590084374444" y1="0.5" y2="30"/><line opacity="0.2" x1="114.50865947862049" x2="114.50865947862049" y1="0.5" y2="30"/><line opacity="0.2" x1="339.023517103954" x2="339.023517103954" y1="0.5" y2="30"/><line opacity="0.2" x1="299.4702681451447" x2="299.4702681451447" y1="0.5" y2="30"/><line opacity="0.2" x1="353.45726731247646" x2="353.45726731247646" y1="0.5" y2="30"/><line opacity="0.2" x1="229.94207746977574" x2="229.94207746977574" y1="0.5" y2="30"/><line opacity="0.2" x1="350.51837171258404" x2="350.51837171258404" y1="0.5" y2="30"/><line opacity="0.2" x1="216.48592982397682" x2="216.48592982397682" y1="0.5" y2="30"/><line opacity="0.2" x1="311.2211416807858" x2="311.2211416807858" y1="0.5" y2="30"/><line opacity="0.2" x1="240.7217071798632" x2="240.7217071798632" y1="0.5" y2="30"/><line opacity="0.2" x1="187.48312269010293" x2="187.48312269010293" y1="0.5" y2="30"/><line opacity="0.2" x1="105.47810942715174" x2="105.47810942715174" y1="0.5" y2="30"/><line opacity="0.2" x1="231.18729103042045" x2="231.18729103042045" y1="0.5" y2="30"/><line opacity="0.2" x1="292.91096717131785" x2="292.91096717131785" y1="0.5" y2="30"/><line opacity="0.2" x1="260.68030492526714" x2="260.68030492526714" y1="0.5" y2="30"/><line opacity="0.2" x1="416.74878614665414" x2="416.74878614665414" y1="0.5" y2="30"/><line opacity="0.2" x1="260.43617054840615" x2="260.43617054840615" y1="0.5" y2="30"/><line opacity="0.2" x1="350.2538585845648" x2="350.2538585845648" y1="0.5" y2="30"/><line opacity="0.2" x1="210.7422421237837" x2="210.7422421237837" y1="0.5" y2="30"/><line opacity="0.2" x1="304.2842034851635" x2="304.2842034851635" y1="0.5" y2="30"/><line opacity="0.2" x1="226.09866927882032" x2="226.09866927882032" y1="0.5" y2="30"/><line opacity="0.2" x1="210.62689542201673" x2="210.62689542201673" y1="0.5" y2="30"/><line opacity="0.2" x1="241.2360775597288" x2="241.2360775597288" y1="0.5" y2="30"/><line opacity="0.2" x1="360.11939424942614" x2="360.11939424942614" y1="0.5" y2="30"/><line opacity="0.2" x1="276.4714293732042" x2="276.4714293732042" y1="0.5" y2="30"/><line opacity="0.2" x1="235.15913471084957" x2="235.15913471084957" y1="0.5" y2="30"/><line opacity="0.2" x1="227.41460697810302" x2="227.41460697810302" y1="0.5" y2="30"/><line opacity="0.2" x1="214.9653184649479" x2="214.9653184649479" y1="0.5" y2="30"/><line opacity="0.2" x1="188.15006650337256" x2="188.15006650337256" y1="0.5" y2="30"/><line opacity="0.2" x1="292.70155985003737" x2="292.70155985003737" y1="0.5" y2="30"/><line opacity="0.2" x1="202.36141175119758" x2="202.36141175119758" y1="0.5" y2="30"/><line opacity="0.2" x1="383.5229681771821" x2="383.5229681771821" y1="0.5" y2="30"/><line opacity="0.2" x1="292.74820219407366" x2="292.74820219407366" y1="0.5" y2="30"/><line opacity="0.2" x1="187.44087616162253" x2="187.44087616162253" y1="0.5" y2="30"/><line opacity="0.2" x1="174.24267117302662" x2="174.24267117302662" y1="0.5" y2="30"/><line opacity="0.2" x1="186.43599170782744" x2="186.43599170782744" y1="0.5" y2="30"/><line opacity="0.2" x1="205.37869818102183" x2="205.37869818102183" y1="0.5" y2="30"/><line opacity="0.2" x1="231.28882741665407" x2="231.28882741665407" y1="0.5" y2="30"/><line opacity="0.2" x1="97.6091928924449" x2="97.6091928924449" y1="0.5" y2="30"/><line opacity="0.2" x1="85.69963042246425" x2="85.69963042246425" y1="0.5" y2="30"/><line opacity="0.2" x1="339.87651107093586" x2="339.87651107093586" y1="0.5" y2="30"/><line opacity="0.2" x1="336.9405589320506" x2="336.9405589320506" y1="0.5" y2="30"/><line opacity="0.2" x1="412.1398458211722" x2="412.1398458211722" y1="0.5" y2="30"/><line opacity="0.2" x1="271.1610615365381" x2="271.1610615365381" y1="0.5" y2="30"/><line opacity="0.2" x1="296.8805035454816" x2="296.8805035454816" y1="0.5" y2="30"/><line opacity="0.2" x1="239.6508636957924" x2="239.6508636957924" y1="0.5" y2="30"/><line opacity="0.2" x1="365.4065927496464" x2="365.4065927496464" y1="0.5" y2="30"/><line opacity="0.2" x1="327.89092482354846" x2="327.89092482354846" y1="0.5" y2="30"/><line opacity="0.2" x1="270.75649732167443" x2="270.75649732167443" y1="0.5" y2="30"/><line opacity="0.2" x1="241.07614299695305" x2="241.07614299695305" y1="0.5" y2="30"/><line opacity="0.2" x1="225.9089690604782" x2="225.9089690604782" y1="0.5" y2="30"/><line opacity="0.2" x1="340.10201085614125" x2="340.10201085614125" y1="0.5" y2="30"/><line opacity="0.2" x1="249.72443589762386" x2="249.72443589762386" y1="0.5" y2="30"/><line opacity="0.2" x1="340.64400166500985" x2="340.64400166500985" y1="0.5" y2="30"/><line opacity="0.2" x1="303.8957337612347" x2="303.8957337612347" y1="0.5" y2="30"/><line opacity="0.2" x1="289.7521998619963" x2="289.7521998619963" y1="0.5" y2="30"/><line opacity="0.2" x1="316.49414778730807" x2="316.49414778730807" y1="0.5" y2="30"/><line opacity="0.2" x1="247.90594265343836" x2="247.90594265343836" y1="0.5" y2="30"/><line opacity="0.2" x1="379.8326136734006" x2="379.8326136734006" y1="0.5" y2="30"/><line opacity="0.2" x1="270.5478216521412" x2="270.5478216521412" y1="0.5" y2="30"/><line opacity="0.2" x1="334.379828798651" x2="334.379828798651" y1="0.5" y2="30"/><line opacity="0.2" x1="225.838079541895" x2="225.838079541895" y1="0.5" y2="30"/><line opacity="0.2" x1="424.8035640540036" x2="424.8035640540036" y1="0.5" y2="30"/><line opacity="0.2" x1="270.8445085394632" x2="270.8445085394632" y1="0.5" y2="30"/><line opacity="0.2" x1="347.4403711573462" x2="347.4403711573462" y1="0.5" y2="30"/><line opacity="0.2" x1="231.246339191481" x2="231.246339191481" y1="0.5" y2="30"/><line opacity="0.2" x1="230.7806586097207" x2="230.7806586097207" y1="0.5" y2="30"/><line opacity="0.2" x1="174.4313194240499" x2="174.4313194240499" y1="0.5" y2="30"/><line opacity="0.2" x1="342.3585280523748" x2="342.3585280523748" y1="0.5" y2="30"/><line opacity="0.2" x1="35.12942520323185" x2="35.12942520323185" y1="0.5" y2="30"/><line opacity="0.2" x1="276.65952062447826" x2="276.65952062447826" y1="0.5" y2="30"/><line opacity="0.2" x1="185.74010977826742" x2="185.74010977826742" y1="0.5" y2="30"/><line opacity="0.2" x1="73.27174429927123" x2="73.27174429927123" y1="0.5" y2="30"/><line opacity="0.2" x1="360.2092904665911" x2="360.2092904665911" y1="0.5" y2="30"/><line opacity="0.2" x1="237.12146330162795" x2="237.12146330162795" y1="0.5" y2="30"/><line opacity="0.2" x1="237.07650211578914" x2="237.07650211578914" y1="0.5" y2="30"/><line opacity="0.2" x1="287.6214616042206" x2="287.6214616042206" y1="0.5" y2="30"/><line opacity="0.2" x1="295.6989786572119" x2="295.6989786572119" y1="0.5" y2="30"/><line opacity="0.2" x1="320.06567213447215" x2="320.06567213447215" y1="0.5" y2="30"/><line opacity="0.2" x1="395.5915198707917" x2="395.5915198707917" y1="0.5" y2="30"/><line opacity="0.2" x1="246.50187873546503" x2="246.50187873546503" y1="0.5" y2="30"/><line opacity="0.2" x1="234.89036019146766" x2="234.89036019146766" y1="0.5" y2="30"/><line opacity="0.2" x1="198.08486211976376" x2="198.08486211976376" y1="0.5" y2="30"/><line opacity="0.2" x1="273.0645340026513" x2="273.0645340026513" y1="0.5" y2="30"/><line opacity="0.2" x1="393.1128396296365" x2="393.1128396296365" y1="0.5" y2="30"/><line opacity="0.2" x1="400.9647776994171" x2="400.9647776994171" y1="0.5" y2="30"/><line opacity="0.2" x1="200.83088081766914" x2="200.83088081766914" y1="0.5" y2="30"/><line opacity="0.2" x1="368.56508395872896" x2="368.56508395872896" y1="0.5" y2="30"/><line opacity="0.2" x1="277.59994583684863" x2="277.59994583684863" y1="0.5" y2="30"/><line opacity="0.2" x1="253.76614618239958" x2="253.76614618239958" y1="0.5" y2="30"/><line opacity="0.2" x1="212.12322584629962" x2="212.12322584629962" y1="0.5" y2="30"/><line opacity="0.2" x1="620" x2="620" y1="0.5" y2="30"/><line opacity="0.2" x1="252.6902253993669" x2="252.6902253993669" y1="0.5" y2="30"/><line opacity="0.2" x1="177.73909301530372" x2="177.73909301530372" y1="0.5" y2="30"/><line opacity="0.2" x1="343.21777332932794" x2="343.21777332932794" y1="0.5" y2="30"/><line opacity="0.2" x1="218.10306813957993" x2="218.10306813957993" y1="0.5" y2="30"/><line opacity="0.2" x1="308.1842882692118" x2="308.1842882692118" y1="0.5" y2="30"/><line opacity="0.2" x1="341.45717861755264" x2="341.45717861755264" y1="0.5" y2="30"/><line opacity="0.2" x1="133.64150366516785" x2="133.64150366516785" y1="0.5" y2="30"/><line opacity="0.2" x1="283.1768060859669" x2="283.1768060859669" y1="0.5" y2="30"/><line opacity="0.2" x1="190.57302246862605" x2="190.57302246862605" y1="0.5" y2="30"/><line opacity="0.2" x1="358.69177002273" x2="358.69177002273" y1="0.5" y2="30"/><line opacity="0.2" x1="367.5987340666213" x2="367.5987340666213" y1="0.5" y2="30"/><line opacity="0.2" x1="200.80318821707908" x2="200.80318821707908" y1="0.5" y2="30"/><line opacity="0.2" x1="273.0616615198375" x2="273.0616615198375" y1="0.5" y2="30"/><line opacity="0.2" x1="230.4621984186456" x2="230.4621984186456" y1="0.5" y2="30"/><line opacity="0.2" x1="325.32129778926287" x2="325.32129778926287" y1="0.5" y2="30"/><line opacity="0.2" x1="272.45427960368835" x2="272.45427960368835" y1="0.5" y2="30"/><line opacity="0.2" x1="413.5644270680875" x2="413.5644270680875" y1="0.5" y2="30"/><line opacity="0.2" x1="363.596216629919" x2="363.596216629919" y1="0.5" y2="30"/><line opacity="0.2" x1="291.98260860372574" x2="291.98260860372574" y1="0.5" y2="30"/><line opacity="0.2" x1="347.47971809812896" x2="347.47971809812896" y1="0.5" y2="30"/><line opacity="0.2" x1="138.73870942667406" x2="138.73870942667406" y1="0.5" y2="30"/><line opacity="0.2" x1="191.8306712610571" x2="191.8306712610571" y1="0.5" y2="30"/><line opacity="0.2" x1="279.7587507397891" x2="279.7587507397891" y1="0.5" y2="30"/><line opacity="0.2" x1="201.9562213882701" x2="201.9562213882701" y1="0.5" y2="30"/><line opacity="0.2" x1="302.0889963945177" x2="302.0889963945177" y1="0.5" y2="30"/><line opacity="0.2" x1="272.0946240056606" x2="272.0946240056606" y1="0.5" y2="30"/><line opacity="0.2" x1="146.63800444606215" x2="146.63800444606215" y1="0.5" y2="30"/><line opacity="0.2" x1="215.53099007479935" x2="215.53099007479935" y1="0.5" y2="30"/><line opacity="0.2" x1="400.7086991017652" x2="400.7086991017652" y1="0.5" y2="30"/><line opacity="0.2" x1="173.6529136310578" x2="173.6529136310578" y1="0.5" y2="30"/><line opacity="0.2" x1="369.3182170874155" x2="369.3182170874155" y1="0.5" y2="30"/><line opacity="0.2" x1="198.76882824333774" x2="198.76882824333774" y1="0.5" y2="30"/><line opacity="0.2" x1="150.44528952279052" x2="150.44528952279052" y1="0.5" y2="30"/><line opacity="0.2" x1="338.27786726831437" x2="338.27786726831437" y1="0.5" y2="30"/><line opacity="0.2" x1="301.0676508572714" x2="301.0676508572714" y1="0.5" y2="30"/><line opacity="0.2" x1="298.15695202142285" x2="298.15695202142285" y1="0.5" y2="30"/><line opacity="0.2" x1="261.33004213943764" x2="261.33004213943764" y1="0.5" y2="30"/><line opacity="0.2" x1="297.1666928201847" x2="297.1666928201847" y1="0.5" y2="30"/><line opacity="0.2" x1="58.871215336004866" x2="58.871215336004866" y1="0.5" y2="30"/><line opacity="0.2" x1="250.33847990370145" x2="250.33847990370145" y1="0.5" y2="30"/><line opacity="0.2" x1="255.72943037331683" x2="255.72943037331683" y1="0.5" y2="30"/><line opacity="0.2" x1="314.5137950248901" x2="314.5137950248901" y1="0.5" y2="30"/><line opacity="0.2" x1="277.59127513502455" x2="277.59127513502455" y1="0.5" y2="30"/><line opacity="0.2" x1="268.4336488743219" x2="268.4336488743219" y1="0.5" y2="30"/><line opacity="0.2" x1="255.2785248291288" x2="255.2785248291288" y1="0.5" y2="30"/><line opacity="0.2" x1="405.47900144172723" x2="405.47900144172723" y1="0.5" y2="30"/><line opacity="0.2" x1="227.05108737888304" x2="227.05108737888304" y1="0.5" y2="30"/><line opacity="0.2" x1="460.4502107663651" x2="460.4502107663651" y1="0.5" y2="30"/><line opacity="0.2" x1="206.46446056161452" x2="206.46446056161452" y1="0.5" y2="30"/><line opacity="0.2" x1="348.75313744124594" x2="348.75313744124594" y1="0.5" y2="30"/><line opacity="0.2" x1="217.9921622095358" x2="217.9921622095358" y1="0.5" y2="30"/><line opacity="0.2" x1="198.0676044837468" x2="198.0676044837468" y1="0.5" y2="30"/><line opacity="0.2" x1="283.731201272511" x2="283.731201272511" y1="0.5" y2="30"/><line opacity="0.2" x1="282.76260993211474" x2="282.76260993211474" y1="0.5" y2="30"/><line opacity="0.2" x1="362.57710360354" x2="362.57710360354" y1="0.5" y2="30"/><line opacity="0.2" x1="281.7770465666134" x2="281.7770465666134" y1="0.5" y2="30"/><line opacity="0.2" x1="170.98836681926355" x2="170.98836681926355" y1="0.5" y2="30"/><line opacity="0.2" x1="243.41136124289508" x2="243.41136124289508" y1="0.5" y2="30"/><line opacity="0.2" x1="246.98462912187492" x2="246.98462912187492" y1="0.5" y2="30"/><line opacity="0.2" x1="384.66640499113976" x2="384.66640499113976" y1="0.5" y2="30"/><line opacity="0.2" x1="273.3335115466249" x2="273.3335115466249" y1="0.5" y2="30"/><line opacity="0.2" x1="268.2978229227991" x2="268.2978229227991" y1="0.5" y2="30"/><line opacity="0.2" x1="212.4300183931072" x2="212.4300183931072" y1="0.5" y2="30"/><line opacity="0.2" x1="204.48329279509787" x2="204.48329279509787" y1="0.5" y2="30"/><line opacity="0.2" x1="323.7225971354818" x2="323.7225971354818" y1="0.5" y2="30"/><line opacity="0.2" x1="358.0398570693099" x2="358.0398570693099" y1="0.5" y2="30"/><line opacity="0.2" x1="296.28328973265684" x2="296.28328973265684" y1="0.5" y2="30"/><line opacity="0.2" x1="177.1161045436873" x2="177.1161045436873" y1="0.5" y2="30"/><line opacity="0.2" x1="262.7698337178669" x2="262.7698337178669" y1="0.5" y2="30"/><line opacity="0.2" x1="293.8350658551981" x2="293.8350658551981" y1="0.5" y2="30"/><line opacity="0.2" x1="149.8646140124854" x2="149.8646140124854" y1="0.5" y2="30"/><line opacity="0.2" x1="247.60866348477484" x2="247.60866348477484" y1="0.5" y2="30"/><line opacity="0.2" x1="276.9973873691592" x2="276.9973873691592" y1="0.5" y2="30"/><line opacity="0.2" x1="252.63964570423542" x2="252.63964570423542" y1="0.5" y2="30"/><line opacity="0.2" x1="400.4104277780385" x2="400.4104277780385" y1="0.5" y2="30"/><line opacity="0.2" x1="212.12430219634712" x2="212.12430219634712" y1="0.5" y2="30"/><line opacity="0.2" x1="349.1096979445831" x2="349.1096979445831" y1="0.5" y2="30"/><line opacity="0.2" x1="236.81238591382467" x2="236.81238591382467" y1="0.5" y2="30"/><line opacity="0.2" x1="334.92015259153504" x2="334.92015259153504" y1="0.5" y2="30"/><line opacity="0.2" x1="126.35505324263823" x2="126.35505324263823" y1="0.5" y2="30"/><line opacity="0.2" x1="162.9959871161444" x2="162.9959871161444" y1="0.5" y2="30"/><line opacity="0.2" x1="303.7099934123711" x2="303.7099934123711" y1="0.5" y2="30"/><line opacity="0.2" x1="306.40677096466226" x2="306.40677096466226" y1="0.5" y2="30"/><line opacity="0.2" x1="300.05311176887597" x2="300.05311176887597" y1="0.5" y2="30"/><line opacity="0.2" x1="278.65783182665047" x2="278.65783182665047" y1="0.5" y2="30"/><line opacity="0.2" x1="227.772247350546" x2="227.772247350546" y1="0.5" y2="30"/><line opacity="0.2" x1="194.9480274814042" x2="194.9480274814042" y1="0.5" y2="30"/><line opacity="0.2" x1="270.60763438443166" x2="270.60763438443166" y1="0.5" y2="30"/><line opacity="0.2" x1="278.3479769330745" x2="278.3479769330745" y1="0.5" y2="30"/><line opacity="0.2" x1="221.5716632699068" x2="221.5716632699068" y1="0.5" y2="30"/><line opacity="0.2" x1="333.16669154299166" x2="333.16669154299166" y1="0.5" y2="30"/><line opacity="0.2" x1="217.9391963607079" x2="217.9391963607079" y1="0.5" y2="30"/><line opacity="0.2" x1="356.2898878312349" x2="356.2898878312349" y1="0.5" y2="30"/><line opacity="0.2" x1="306.7306341738986" x2="306.7306341738986" y1="0.5" y2="30"/><line opacity="0.2" x1="230.4593997233164" x2="230.4593997233164" y1="0.5" y2="30"/><line opacity="0.2" x1="210.83209591070172" x2="210.83209591070172" y1="0.5" y2="30"/><line opacity="0.2" x1="309.1028595185638" x2="309.1028595185638" y1="0.5" y2="30"/><line opacity="0.2" x1="257.2135417504452" x2="257.2135417504452" y1="0.5" y2="30"/><line opacity="0.2" x1="346.59304466360726" x2="346.59304466360726" y1="0.5" y2="30"/><line opacity="0.2" x1="336.4940415362631" x2="336.4940415362631" y1="0.5" y2="30"/><line opacity="0.2" x1="503.35309211346294" x2="503.35309211346294" y1="0.5" y2="30"/><line opacity="0.2" x1="251.29627352859347" x2="251.29627352859347" y1="0.5" y2="30"/><line opacity="0.2" x1="283.4055989525408" x2="283.4055989525408" y1="0.5" y2="30"/><line opacity="0.2" x1="289.3711317849505" x2="289.3711317849505" y1="0.5" y2="30"/><line opacity="0.2" x1="290.2818794011954" x2="290.2818794011954" y1="0.5" y2="30"/><line opacity="0.2" x1="169.16121524740714" x2="169.16121524740714" y1="0.5" y2="30"/><line opacity="0.2" x1="252.5656676488126" x2="252.5656676488126" y1="0.5" y2="30"/><line opacity="0.2" x1="350.4216492324508" x2="350.4216492324508" y1="0.5" y2="30"/><line opacity="0.2" x1="140.84735525091762" x2="140.84735525091762" y1="0.5" y2="30"/><line opacity="0.2" x1="285.5557925438757" x2="285.5557925438757" y1="0.5" y2="30"/><line opacity="0.2" x1="248.47648702597579" x2="248.47648702597579" y1="0.5" y2="30"/><line opacity="0.2" x1="239.59269502143823" x2="239.59269502143823" y1="0.5" y2="30"/><line opacity="0.2" x1="324.9821224004265" x2="324.9821224004265" y1="0.5" y2="30"/><line opacity="0.2" x1="338.3729602137178" x2="338.3729602137178" y1="0.5" y2="30"/><line opacity="0.2" x1="345.53315550344234" x2="345.53315550344234" y1="0.5" y2="30"/><line opacity="0.2" x1="213.96854765595356" x2="213.96854765595356" y1="0.5" y2="30"/><line opacity="0.2" x1="217.74738970275573" x2="217.74738970275573" y1="0.5" y2="30"/><line opacity="0.2" x1="224.16203436339626" x2="224.16203436339626" y1="0.5" y2="30"/><line opacity="0.2" x1="273.39150866900945" x2="273.39150866900945" y1="0.5" y2="30"/><line opacity="0.2" x1="272.89928077508625" x2="272.89928077508625" y1="0.5" y2="30"/><line opacity="0.2" x1="400.9921067271807" x2="400.9921067271807" y1="0.5" y2="30"/><line opacity="0.2" x1="305.21589428448294" x2="305.21589428448294" y1="0.5" y2="30"/><line opacity="0.2" x1="202.05618466515315" x2="202.05618466515315" y1="0.5" y2="30"/><line opacity="0.2" x1="261.72441666096245" x2="261.72441666096245" y1="0.5" y2="30"/><line opacity="0.2" x1="266.3248863457633" x2="266.3248863457633" y1="0.5" y2="30"/><line opacity="0.2" x1="187.8028120530087" x2="187.8028120530087" y1="0.5" y2="30"/><line opacity="0.2" x1="268.2077224344971" x2="268.2077224344971" y1="0.5" y2="30"/><line opacity="0.2" x1="279.2507844918531" x2="279.2507844918531" y1="0.5" y2="30"/><line opacity="0.2" x1="291.3232187529527" x2="291.3232187529527" y1="0.5" y2="30"/><line opacity="0.2" x1="94.85071653222556" x2="94.85071653222556" y1="0.5" y2="30"/><line opacity="0.2" x1="189.6358477173988" x2="189.6358477173988" y1="0.5" y2="30"/><line opacity="0.2" x1="369.2715749969351" x2="369.2715749969351" y1="0.5" y2="30"/><line opacity="0.2" x1="294.4172771985996" x2="294.4172771985996" y1="0.5" y2="30"/><line opacity="0.2" x1="225.7294308945074" x2="225.7294308945074" y1="0.5" y2="30"/><line opacity="0.2" x1="190.67130677146756" x2="190.67130677146756" y1="0.5" y2="30"/><line opacity="0.2" x1="334.7966481216487" x2="334.7966481216487" y1="0.5" y2="30"/><line opacity="0.2" x1="216.98594833163986" x2="216.98594833163986" y1="0.5" y2="30"/><line opacity="0.2" x1="126.27355347569983" x2="126.27355347569983" y1="0.5" y2="30"/><line opacity="0.2" x1="210.6052738459104" x2="210.6052738459104" y1="0.5" y2="30"/><line opacity="0.2" x1="307.0022978647803" x2="307.0022978647803" y1="0.5" y2="30"/><line opacity="0.2" x1="141.7776783907544" x2="141.7776783907544" y1="0.5" y2="30"/><line opacity="0.2" x1="112.6423692325582" x2="112.6423692325582" y1="0.5" y2="30"/><line opacity="0.2" x1="254.91562189559903" x2="254.91562189559903" y1="0.5" y2="30"/><line opacity="0.2" x1="146.1616046057643" x2="146.1616046057643" y1="0.5" y2="30"/><line opacity="0.2" x1="379.75390892415606" x2="379.75390892415606" y1="0.5" y2="30"/><line opacity="0.2" x1="257.1372231411467" x2="257.1372231411467" y1="0.5" y2="30"/><line opacity="0.2" x1="185.489588302292" x2="185.489588302292" y1="0.5" y2="30"/><line opacity="0.2" x1="207.26698418831955" x2="207.26698418831955" y1="0.5" y2="30"/><line opacity="0.2" x1="222.8468044409228" x2="222.8468044409228" y1="0.5" y2="30"/><line opacity="0.2" x1="287.61599665047964" x2="287.61599665047964" y1="0.5" y2="30"/><line opacity="0.2" x1="343.9570959499338" x2="343.9570959499338" y1="0.5" y2="30"/><line opacity="0.2" x1="159.08634765717935" x2="159.08634765717935" y1="0.5" y2="30"/><line opacity="0.2" x1="229.1810222354389" x2="229.1810222354389" y1="0.5" y2="30"/><line opacity="0.2" x1="178.4691936416604" x2="178.4691936416604" y1="0.5" y2="30"/><line opacity="0.2" x1="431.31663429902983" x2="431.31663429902983" y1="0.5" y2="30"/><line opacity="0.2" x1="270.76355043724004" x2="270.76355043724004" y1="0.5" y2="30"/><line opacity="0.2" x1="378.3857168632576" x2="378.3857168632576" y1="0.5" y2="30"/><line opacity="0.2" x1="396.09318736540047" x2="396.09318736540047" y1="0.5" y2="30"/><line opacity="0.2" x1="349.49507428985504" x2="349.49507428985504" y1="0.5" y2="30"/><line opacity="0.2" x1="325.53278797818535" x2="325.53278797818535" y1="0.5" y2="30"/><line opacity="0.2" x1="291.5992329819169" x2="291.5992329819169" y1="0.5" y2="30"/><line opacity="0.2" x1="253.74834658351412" x2="253.74834658351412" y1="0.5" y2="30"/><line opacity="0.2" x1="268.8414514570662" x2="268.8414514570662" y1="0.5" y2="30"/><line opacity="0.2" x1="330.34115001928427" x2="330.34115001928427" y1="0.5" y2="30"/><line opacity="0.2" x1="204.35428548843177" x2="204.35428548843177" y1="0.5" y2="30"/><line opacity="0.2" x1="374.9302111787547" x2="374.9302111787547" y1="0.5" y2="30"/><line opacity="0.2" x1="239.09303338436263" x2="239.09303338436263" y1="0.5" y2="30"/><line opacity="0.2" x1="278.1015969939562" x2="278.1015969939562" y1="0.5" y2="30"/><line opacity="0.2" x1="217.54476573100212" x2="217.54476573100212" y1="0.5" y2="30"/><line opacity="0.2" x1="228.9411248412113" x2="228.9411248412113" y1="0.5" y2="30"/><line opacity="0.2" x1="269.887873377197" x2="269.887873377197" y1="0.5" y2="30"/><line opacity="0.2" x1="339.4220626827312" x2="339.4220626827312" y1="0.5" y2="30"/><line opacity="0.2" x1="249.75856299988567" x2="249.75856299988567" y1="0.5" y2="30"/><line opacity="0.2" x1="265.261467351839" x2="265.261467351839" y1="0.5" y2="30"/><line opacity="0.2" x1="374.08613831460946" x2="374.08613831460946" y1="0.5" y2="30"/><line opacity="0.2" x1="378.46311657445733" x2="378.46311657445733" y1="0.5" y2="30"/><line opacity="0.2" x1="301.7560340486738" x2="301.7560340486738" y1="0.5" y2="30"/><line opacity="0.2" x1="221.29969981196703" x2="221.29969981196703" y1="0.5" y2="30"/><line opacity="0.2" x1="308.59287949064026" x2="308.59287949064026" y1="0.5" y2="30"/><line opacity="0.2" x1="301.7731751624491" x2="301.7731751624491" y1="0.5" y2="30"/><line opacity="0.2" x1="368.90042544294164" x2="368.90042544294164" y1="0.5" y2="30"/><line opacity="0.2" x1="335.938798292515" x2="335.938798292515" y1="0.5" y2="30"/><line opacity="0.2" x1="182.1055966867614" x2="182.1055966867614" y1="0.5" y2="30"/><line opacity="0.2" x1="255.40951152318115" x2="255.40951152318115" y1="0.5" y2="30"/><line opacity="0.2" x1="263.6836690740648" x2="263.6836690740648" y1="0.5" y2="30"/><line opacity="0.2" x1="202.25265313185443" x2="202.25265313185443" y1="0.5" y2="30"/><line opacity="0.2" x1="301.8393303079281" x2="301.8393303079281" y1="0.5" y2="30"/><line opacity="0.2" x1="302.16159275108174" x2="302.16159275108174" y1="0.5" y2="30"/><line opacity="0.2" x1="167.9364712736577" x2="167.9364712736577" y1="0.5" y2="30"/><line opacity="0.2" x1="432.81383990153245" x2="432.81383990153245" y1="0.5" y2="30"/><line opacity="0.2" x1="253.08949746038934" x2="253.08949746038934" y1="0.5" y2="30"/><line opacity="0.2" x1="187.25631930116197" x2="187.25631930116197" y1="0.5" y2="30"/><line opacity="0.2" x1="321.7571366133338" x2="321.7571366133338" y1="0.5" y2="30"/><line opacity="0.2" x1="300.8813738290341" x2="300.8813738290341" y1="0.5" y2="30"/><line opacity="0.2" x1="340.6841434461574" x2="340.6841434461574" y1="0.5" y2="30"/><line opacity="0.2" x1="336.4011823296512" x2="336.4011823296512" y1="0.5" y2="30"/><line opacity="0.2" x1="277.3256921471942" x2="277.3256921471942" y1="0.5" y2="30"/><line opacity="0.2" x1="295.91721349754005" x2="295.91721349754005" y1="0.5" y2="30"/><line opacity="0.2" x1="277.3581004465763" x2="277.3581004465763" y1="0.5" y2="30"/><line opacity="0.2" x1="294.17153830810565" x2="294.17153830810565" y1="0.5" y2="30"/><line opacity="0.2" x1="332.2602332880052" x2="332.2602332880052" y1="0.5" y2="30"/><line opacity="0.2" x1="256.70116615648885" x2="256.70116615648885" y1="0.5" y2="30"/><line opacity="0.2" x1="325.20334056415606" x2="325.20334056415606" y1="0.5" y2="30"/><line opacity="0.2" x1="361.7483254074185" x2="361.7483254074185" y1="0.5" y2="30"/><line opacity="0.2" x1="203.82588036761055" x2="203.82588036761055" y1="0.5" y2="30"/><line opacity="0.2" x1="242.68941235336396" x2="242.68941235336396" y1="0.5" y2="30"/><line opacity="0.2" x1="215.26903499262914" x2="215.26903499262914" y1="0.5" y2="30"/><line opacity="0.2" x1="330.7649198880239" x2="330.7649198880239" y1="0.5" y2="30"/><line opacity="0.2" x1="197.72802820428586" x2="197.72802820428586" y1="0.5" y2="30"/><line opacity="0.2" x1="190.27945144487137" x2="190.27945144487137" y1="0.5" y2="30"/><line opacity="0.2" x1="364.1197707076585" x2="364.1197707076585" y1="0.5" y2="30"/><line opacity="0.2" x1="232.94313380307653" x2="232.94313380307653" y1="0.5" y2="30"/><line opacity="0.2" x1="153.21705822652493" x2="153.21705822652493" y1="0.5" y2="30"/><line opacity="0.2" x1="303.00106145359763" x2="303.00106145359763" y1="0.5" y2="30"/><line opacity="0.2" x1="369.7733037164648" x2="369.7733037164648" y1="0.5" y2="30"/><line opacity="0.2" x1="266.7897195868252" x2="266.7897195868252" y1="0.5" y2="30"/><line opacity="0.2" x1="368.7293247626609" x2="368.7293247626609" y1="0.5" y2="30"/><line opacity="0.2" x1="265.9973375257651" x2="265.9973375257651" y1="0.5" y2="30"/><line opacity="0.2" x1="269.9221841966146" x2="269.9221841966146" y1="0.5" y2="30"/><line opacity="0.2" x1="190.70676229558958" x2="190.70676229558958" y1="0.5" y2="30"/><line opacity="0.2" x1="163.7561899950639" x2="163.7561899950639" y1="0.5" y2="30"/><line opacity="0.2" x1="215.26134506245097" x2="215.26134506245097" y1="0.5" y2="30"/><line opacity="0.2" x1="170.87367312768183" x2="170.87367312768183" y1="0.5" y2="30"/><line opacity="0.2" x1="215.46665887177122" x2="215.46665887177122" y1="0.5" y2="30"/><line opacity="0.2" x1="20" x2="20" y1="0.5" y2="30"/><line opacity="0.2" x1="384.3994770682181" x2="384.3994770682181" y1="0.5" y2="30"/><line opacity="0.2" x1="205.80069446610864" x2="205.80069446610864" y1="0.5" y2="30"/><line opacity="0.2" x1="259.8350360302396" x2="259.8350360302396" y1="0.5" y2="30"/><line opacity="0.2" x1="234.04069193356906" x2="234.04069193356906" y1="0.5" y2="30"/><line opacity="0.2" x1="237.12506484265188" x2="237.12506484265188" y1="0.5" y2="30"/><line opacity="0.2" x1="301.04064467853243" x2="301.04064467853243" y1="0.5" y2="30"/><line opacity="0.2" x1="266.52461707532774" x2="266.52461707532774" y1="0.5" y2="30"/><line opacity="0.2" x1="187.18509525724977" x2="187.18509525724977" y1="0.5" y2="30"/><line opacity="0.2" x1="253.64179295142432" x2="253.64179295142432" y1="0.5" y2="30"/><line opacity="0.2" x1="387.5797898630277" x2="387.5797898630277" y1="0.5" y2="30"/><line opacity="0.2" x1="339.70169123583526" x2="339.70169123583526" y1="0.5" y2="30"/><line opacity="0.2" x1="230.34045718838127" x2="230.34045718838127" y1="0.5" y2="30"/><line opacity="0.2" x1="230.71065859093736" x2="230.71065859093736" y1="0.5" y2="30"/><line opacity="0.2" x1="393.5185643603896" x2="393.5185643603896" y1="0.5" y2="30"/><line opacity="0.2" x1="271.9124647302042" x2="271.9124647302042" y1="0.5" y2="30"/><line opacity="0.2" x1="280.8321885000956" x2="280.8321885000956" y1="0.5" y2="30"/><line opacity="0.2" x1="132.99724828006634" x2="132.99724828006634" y1="0.5" y2="30"/><line opacity="0.2" x1="157.19984644314735" x2="157.19984644314735" y1="0.5" y2="30"/><line opacity="0.2" x1="331.70980040650113" x2="331.70980040650113" y1="0.5" y2="30"/><line opacity="0.2" x1="298.199255166876" x2="298.199255166876" y1="0.5" y2="30"/><line opacity="0.2" x1="179.07420499768867" x2="179.07420499768867" y1="0.5" y2="30"/><line opacity="0.2" x1="103.75578216111379" x2="103.75578216111379" y1="0.5" y2="30"/><line opacity="0.2" x1="323.7039578401776" x2="323.7039578401776" y1="0.5" y2="30"/><line opacity="0.2" x1="339.92082873667266" x2="339.92082873667266" y1="0.5" y2="30"/><line opacity="0.2" x1="258.5505278841417" x2="258.5505278841417" y1="0.5" y2="30"/><line opacity="0.2" x1="324.08438614013124" x2="324.08438614013124" y1="0.5" y2="30"/><line opacity="0.2" x1="216.5295343027538" x2="216.5295343027538" y1="0.5" y2="30"/><line opacity="0.2" x1="169.75409189347897" x2="169.75409189347897" y1="0.5" y2="30"/><line opacity="0.2" x1="342.1930174151618" x2="342.1930174151618" y1="0.5" y2="30"/><line opacity="0.2" x1="395.0338240528872" x2="395.0338240528872" y1="0.5" y2="30"/><line opacity="0.2" x1="177.66414881706024" x2="177.66414881706024" y1="0.5" y2="30"/><line opacity="0.2" x1="196.0051896739728" x2="196.0051896739728" y1="0.5" y2="30"/><line opacity="0.2" x1="243.39934846152423" x2="243.39934846152423" y1="0.5" y2="30"/><line opacity="0.2" x1="352.93529288513173" x2="352.93529288513173" y1="0.5" y2="30"/><line opacity="0.2" x1="326.5131048970851" x2="326.5131048970851" y1="0.5" y2="30"/><line opacity="0.2" x1="236.5936278084206" x2="236.5936278084206" y1="0.5" y2="30"/><line opacity="0.2" x1="271.40387547749214" x2="271.40387547749214" y1="0.5" y2="30"/><line opacity="0.2" x1="100.78804381815094" x2="100.78804381815094" y1="0.5" y2="30"/><line opacity="0.2" x1="290.2121496185742" x2="290.2121496185742" y1="0.5" y2="30"/><line opacity="0.2" x1="159.94706551249453" x2="159.94706551249453" y1="0.5" y2="30"/><line opacity="0.2" x1="219.37441590038483" x2="219.37441590038483" y1="0.5" y2="30"/><line opacity="0.2" x1="212.11862654181917" x2="212.11862654181917" y1="0.5" y2="30"/><line opacity="0.2" x1="297.787359888751" x2="297.787359888751" y1="0.5" y2="30"/><line opacity="0.2" x1="197.6144110157195" x2="197.6144110157195" y1="0.5" y2="30"/><line opacity="0.2" x1="264.96374926186945" x2="264.96374926186945" y1="0.5" y2="30"/><line opacity="0.2" x1="306.2689640547348" x2="306.2689640547348" y1="0.5" y2="30"/><line opacity="0.2" x1="220.2267845571129" x2="220.2267845571129" y1="0.5" y2="30"/><line opacity="0.2" x1="134.3228265914726" x2="134.3228265914726" y1="0.5" y2="30"/><line opacity="0.2" x1="379.03965059625665" x2="379.03965059625665" y1="0.5" y2="30"/><line opacity="0.2" x1="336.87707711596954" x2="336.87707711596954" y1="0.5" y2="30"/><line opacity="0.2" x1="257.4894291680021" x2="257.4894291680021" y1="0.5" y2="30"/><line opacity="0.2" x1="318.34188190599923" x2="318.34188190599923" y1="0.5" y2="30"/><line opacity="0.2" x1="351.4540181060446" x2="351.4540181060446" y1="0.5" y2="30"/><line opacity="0.2" x1="403.4626882488021" x2="403.4626882488021" y1="0.5" y2="30"/><line opacity="0.2" x1="227.11199686207829" x2="227.11199686207829" y1="0.5" y2="30"/><line opacity="0.2" x1="341.5678787397182" x2="341.5678787397182" y1="0.5" y2="30"/><line opacity="0.2" x1="269.99694041996173" x2="269.99694041996173" y1="0.5" y2="30"/><line opacity="0.2" x1="219.93443318646592" x2="219.93443318646592" y1="0.5" y2="30"/><line opacity="0.2" x1="174.69431778928168" x2="174.69431778928168" y1="0.5" y2="30"/><line opacity="0.2" x1="340.4064976206707" x2="340.4064976206707" y1="0.5" y2="30"/><line opacity="0.2" x1="304.63183945407536" x2="304.63183945407536" y1="0.5" y2="30"/><line opacity="0.2" x1="236.05997274634677" x2="236.05997274634677" y1="0.5" y2="30"/><line opacity="0.2" x1="281.58555031466886" x2="281.58555031466886" y1="0.5" y2="30"/><line opacity="0.2" x1="242.03482786430823" x2="242.03482786430823" y1="0.5" y2="30"/><line opacity="0.2" x1="352.36217131471346" x2="352.36217131471346" y1="0.5" y2="30"/><line opacity="0.2" x1="266.6875575130856" x2="266.6875575130856" y1="0.5" y2="30"/><line opacity="0.2" x1="220.801481870009" x2="220.801481870009" y1="0.5" y2="30"/><line opacity="0.2" x1="231.48310358391768" x2="231.48310358391768" y1="0.5" y2="30"/><line opacity="0.2" x1="129.0141863314615" x2="129.0141863314615" y1="0.5" y2="30"/><line opacity="0.2" x1="349.8901707140011" x2="349.8901707140011" y1="0.5" y2="30"/><line opacity="0.2" x1="309.3781198735052" x2="309.3781198735052" y1="0.5" y2="30"/><line opacity="0.2" x1="218.76122921167163" x2="218.76122921167163" y1="0.5" y2="30"/><line opacity="0.2" x1="412.20747715773206" x2="412.20747715773206" y1="0.5" y2="30"/><line opacity="0.2" x1="252.24941889707142" x2="252.24941889707142" y1="0.5" y2="30"/><line opacity="0.2" x1="179.5970931942217" x2="179.5970931942217" y1="0.5" y2="30"/><line opacity="0.2" x1="252.30242306508703" x2="252.30242306508703" y1="0.5" y2="30"/><line opacity="0.2" x1="366.7593567925212" x2="366.7593567925212" y1="0.5" y2="30"/><line opacity="0.2" x1="205.40340161699842" x2="205.40340161699842" y1="0.5" y2="30"/><line opacity="0.2" x1="273.95666835445707" x2="273.95666835445707" y1="0.5" y2="30"/><line opacity="0.2" x1="239.4399254858807" x2="239.4399254858807" y1="0.5" y2="30"/><line opacity="0.2" x1="215.03724117921104" x2="215.03724117921104" y1="0.5" y2="30"/><line opacity="0.2" x1="147.05940702905332" x2="147.05940702905332" y1="0.5" y2="30"/><line opacity="0.2" x1="248.12119245811166" x2="248.12119245811166" y1="0.5" y2="30"/><line opacity="0.2" x1="294.14224755501436" x2="294.14224755501436" y1="0.5" y2="30"/><line opacity="0.2" x1="228.40564515971386" x2="228.40564515971386" y1="0.5" y2="30"/><line opacity="0.2" x1="349.03573750949107" x2="349.03573750949107" y1="0.5" y2="30"/><line opacity="0.2" x1="307.2031260725695" x2="307.2031260725695" y1="0.5" y2="30"/><line opacity="0.2" x1="177.12714716729246" x2="177.12714716729246" y1="0.5" y2="30"/><line opacity="0.2" x1="318.8907821575787" x2="318.8907821575787" y1="0.5" y2="30"/><line opacity="0.2" x1="302.5527771435967" x2="302.5527771435967" y1="0.5" y2="30"/><line opacity="0.2" x1="282.19026425563396" x2="282.19026425563396" y1="0.5" y2="30"/><line opacity="0.2" x1="346.7802411586833" x2="346.7802411586833" y1="0.5" y2="30"/><line opacity="0.2" x1="235.55380744892472" x2="235.55380744892472" y1="0.5" y2="30"/><line opacity="0.2" x1="166.29011343390096" x2="166.29011343390096" y1="0.5" y2="30"/><line opacity="0.2" x1="291.52651867491886" x2="291.52651867491886" y1="0.5" y2="30"/><line opacity="0.2" x1="297.59646428700387" x2="297.59646428700387" y1="0.5" y2="30"/><line opacity="0.2" x1="296.2891354657184" x2="296.2891354657184" y1="0.5" y2="30"/><line opacity="0.2" x1="224.41882284631635" x2="224.41882284631635" y1="0.5" y2="30"/><line opacity="0.2" x1="325.34896747967076" x2="325.34896747967076" y1="0.5" y2="30"/><line opacity="0.2" x1="335.19301323739415" x2="335.19301323739415" y1="0.5" y2="30"/><line opacity="0.2" x1="165.78119418803777" x2="165.78119418803777" y1="0.5" y2="30"/><line opacity="0.2" x1="244.9646776109299" x2="244.9646776109299" y1="0.5" y2="30"/><line opacity="0.2" x1="247.35817841192093" x2="247.35817841192093" y1="0.5" y2="30"/><line opacity="0.2" x1="225.10231217430797" x2="225.10231217430797" y1="0.5" y2="30"/><line opacity="0.2" x1="309.58714592358024" x2="309.58714592358024" y1="0.5" y2="30"/><line opacity="0.2" x1="283.1397336213099" x2="283.1397336213099" y1="0.5" y2="30"/><line opacity="0.2" x1="380.2198611774522" x2="380.2198611774522" y1="0.5" y2="30"/><line opacity="0.2" x1="180.22452533128566" x2="180.22452533128566" y1="0.5" y2="30"/><line opacity="0.2" x1="235.86745282909982" x2="235.86745282909982" y1="0.5" y2="30"/><line opacity="0.2" x1="226.23088269667468" x2="226.23088269667468" y1="0.5" y2="30"/><line opacity="0.2" x1="368.5622719859528" x2="368.5622719859528" y1="0.5" y2="30"/><line opacity="0.2" x1="321.2082591083425" x2="321.2082591083425" y1="0.5" y2="30"/><line opacity="0.2" x1="276.37462263508684" x2="276.37462263508684" y1="0.5" y2="30"/><line opacity="0.2" x1="163.1495652309566" x2="163.1495652309566" y1="0.5" y2="30"/><line opacity="0.2" x1="261.8292658769074" x2="261.8292658769074" y1="0.5" y2="30"/><line opacity="0.2" x1="256.7860440684214" x2="256.7860440684214" y1="0.5" y2="30"/><line opacity="0.2" x1="259.5766915528609" x2="259.5766915528609" y1="0.5" y2="30"/><line opacity="0.2" x1="385.82982275113204" x2="385.82982275113204" y1="0.5" y2="30"/><line opacity="0.2" x1="293.85007185202744" x2="293.85007185202744" y1="0.5" y2="30"/><line opacity="0.2" x1="203.1423710708117" x2="203.1423710708117" y1="0.5" y2="30"/><line opacity="0.2" x1="300.74947556796457" x2="300.74947556796457" y1="0.5" y2="30"/><line opacity="0.2" x1="224.2462492579744" x2="224.2462492579744" y1="0.5" y2="30"/><line opacity="0.2" x1="213.1777081098076" x2="213.1777081098076" y1="0.5" y2="30"/><line opacity="0.2" x1="253.94763196070508" x2="253.94763196070508" y1="0.5" y2="30"/><line opacity="0.2" x1="358.93504353501197" x2="358.93504353501197" y1="0.5" y2="30"/><line opacity="0.2" x1="168.88544918827535" x2="168.88544918827535" y1="0.5" y2="30"/><line opacity="0.2" x1="310.44910303721633" x2="310.44910303721633" y1="0.5" y2="30"/><line opacity="0.2" x1="137.09613003320376" x2="137.09613003320376" y1="0.5" y2="30"/><line opacity="0.2" x1="284.69118808826664" x2="284.69118808826664" y1="0.5" y2="30"/><line opacity="0.2" x1="261.8840761475074" x2="261.8840761475074" y1="0.5" y2="30"/><line opacity="0.2" x1="329.0867455025221" x2="329.0867455025221" y1="0.5" y2="30"/><line opacity="0.2" x1="321.69927451285196" x2="321.69927451285196" y1="0.5" y2="30"/><line opacity="0.2" x1="180.49023693321894" x2="180.49023693321894" y1="0.5" y2="30"/><line opacity="0.2" x1="186.75338615761805" x2="186.75338615761805" y1="0.5" y2="30"/><line opacity="0.2" x1="340.9228374720003" x2="340.9228374720003" y1="0.5" y2="30"/><line opacity="0.2" x1="203.83526415161492" x2="203.83526415161492" y1="0.5" y2="30"/><line opacity="0.2" x1="160.48109219751373" x2="160.48109219751373" y1="0.5" y2="30"/><line opacity="0.2" x1="297.76255854359556" x2="297.76255854359556" y1="0.5" y2="30"/><line opacity="0.2" x1="227.97160709304262" x2="227.97160709304262" y1="0.5" y2="30"/><line opacity="0.2" x1="356.12243456935926" x2="356.12243456935926" y1="0.5" y2="30"/><line opacity="0.2" x1="418.7798301906926" x2="418.7798301906926" y1="0.5" y2="30"/><line opacity="0.2" x1="458.6240572826264" x2="458.6240572826264" y1="0.5" y2="30"/><line opacity="0.2" x1="368.22528471173587" x2="368.22528471173587" y1="0.5" y2="30"/><line opacity="0.2" x1="317.17083995034454" x2="317.17083995034454" y1="0.5" y2="30"/><line opacity="0.2" x1="237.35365896374537" x2="237.35365896374537" y1="0.5" y2="30"/><line opacity="0.2" x1="255.16237212079966" x2="255.16237212079966" y1="0.5" y2="30"/><line opacity="0.2" x1="325.26860581381425" x2="325.26860581381425" y1="0.5" y2="30"/><line opacity="0.2" x1="159.63326156988722" x2="159.63326156988722" y1="0.5" y2="30"/><line opacity="0.2" x1="205.75081668180604" x2="205.75081668180604" y1="0.5" y2="30"/><line opacity="0.2" x1="243.27554887127366" x2="243.27554887127366" y1="0.5" y2="30"/><line opacity="0.2" x1="395.08446429702985" x2="395.08446429702985" y1="0.5" y2="30"/><line opacity="0.2" x1="268.280341075175" x2="268.280341075175" y1="0.5" y2="30"/><line opacity="0.2" x1="341.5542555263175" x2="341.5542555263175" y1="0.5" y2="30"/><line opacity="0.2" x1="210.84605854317311" x2="210.84605854317311" y1="0.5" y2="30"/><line opacity="0.2" x1="323.7692938292672" x2="323.7692938292672" y1="0.5" y2="30"/><line opacity="0.2" x1="254.43555088326306" x2="254.43555088326306" y1="0.5" y2="30"/><line opacity="0.2" x1="295.91254162060653" x2="295.91254162060653" y1="0.5" y2="30"/><line opacity="0.2" x1="207.211683083633" x2="207.211683083633" y1="0.5" y2="30"/><line opacity="0.2" x1="219.74681825070002" x2="219.74681825070002" y1="0.5" y2="30"/><line opacity="0.2" x1="290.92307139757776" x2="290.92307139757776" y1="0.5" y2="30"/><line opacity="0.2" x1="268.2637757106257" x2="268.2637757106257" y1="0.5" y2="30"/><line opacity="0.2" x1="149.45865287325114" x2="149.45865287325114" y1="0.5" y2="30"/><line opacity="0.2" x1="418.01430896129636" x2="418.01430896129636" y1="0.5" y2="30"/><line opacity="0.2" x1="317.2720331595673" x2="317.2720331595673" y1="0.5" y2="30"/><line opacity="0.2" x1="301.216788248229" x2="301.216788248229" y1="0.5" y2="30"/><line opacity="0.2" x1="395.0598634705701" x2="395.0598634705701" y1="0.5" y2="30"/><line opacity="0.2" x1="398.3887363160504" x2="398.3887363160504" y1="0.5" y2="30"/><line opacity="0.2" x1="267.9610757633409" x2="267.9610757633409" y1="0.5" y2="30"/><line opacity="0.2" x1="320.1710925184914" x2="320.1710925184914" y1="0.5" y2="30"/><line opacity="0.2" x1="175.2255601632489" x2="175.2255601632489" y1="0.5" y2="30"/><line opacity="0.2" x1="326.6190377571137" x2="326.6190377571137" y1="0.5" y2="30"/><line opacity="0.2" x1="273.34519088073165" x2="273.34519088073165" y1="0.5" y2="30"/><line opacity="0.2" x1="179.90006949070127" x2="179.90006949070127" y1="0.5" y2="30"/><line opacity="0.2" x1="124.04226775825674" x2="124.04226775825674" y1="0.5" y2="30"/><line opacity="0.2" x1="240.89834542603117" x2="240.89834542603117" y1="0.5" y2="30"/><line opacity="0.2" x1="252.14331159073015" x2="252.14331159073015" y1="0.5" y2="30"/><line opacity="0.2" x1="73.55704475203868" x2="73.55704475203868" y1="0.5" y2="30"/><line opacity="0.2" x1="175.3601861739897" x2="175.3601861739897" y1="0.5" y2="30"/><line opacity="0.2" x1="275.75971374940013" x2="275.75971374940013" y1="0.5" y2="30"/><line opacity="0.2" x1="292.45805150967385" x2="292.45805150967385" y1="0.5" y2="30"/><line opacity="0.2" x1="175.23404660897336" x2="175.23404660897336" y1="0.5" y2="30"/><line opacity="0.2" x1="163.4337322672784" x2="163.4337322672784" y1="0.5" y2="30"/><line opacity="0.2" x1="494.0103254957283" x2="494.0103254957283" y1="0.5" y2="30"/><line opacity="0.2" x1="193.85526240990163" x2="193.85526240990163" y1="0.5" y2="30"/><line opacity="0.2" x1="376.92321035329417" x2="376.92321035329417" y1="0.5" y2="30"/><line opacity="0.2" x1="153.6424228614694" x2="153.6424228614694" y1="0.5" y2="30"/><line opacity="0.2" x1="222.57699989176578" x2="222.57699989176578" y1="0.5" y2="30"/><line opacity="0.2" x1="36.05181461959595" x2="36.05181461959595" y1="0.5" y2="30"/><line opacity="0.2" x1="285.7783245808419" x2="285.7783245808419" y1="0.5" y2="30"/><line opacity="0.2" x1="285.50975787552136" x2="285.50975787552136" y1="0.5" y2="30"/><line opacity="0.2" x1="280.4083593547871" x2="280.4083593547871" y1="0.5" y2="30"/><line opacity="0.2" x1="229.22595360767244" x2="229.22595360767244" y1="0.5" y2="30"/><line opacity="0.2" x1="251.93390054416827" x2="251.93390054416827" y1="0.5" y2="30"/><line opacity="0.2" x1="110.79591931199724" x2="110.79591931199724" y1="0.5" y2="30"/><line opacity="0.2" x1="246.113747238189" x2="246.113747238189" y1="0.5" y2="30"/><line opacity="0.2" x1="155.35982790752945" x2="155.35982790752945" y1="0.5" y2="30"/><line opacity="0.2" x1="170.60398678405647" x2="170.60398678405647" y1="0.5" y2="30"/><line opacity="0.2" x1="287.1278923309539" x2="287.1278923309539" y1="0.5" y2="30"/><line opacity="0.2" x1="258.65673000609394" x2="258.65673000609394" y1="0.5" y2="30"/><line opacity="0.2" x1="320.7010387377245" x2="320.7010387377245" y1="0.5" y2="30"/><line opacity="0.2" x1="289.82248497341163" x2="289.82248497341163" y1="0.5" y2="30"/><line opacity="0.2" x1="363.5793388791811" x2="363.5793388791811" y1="0.5" y2="30"/><line opacity="0.2" x1="141.21154375388045" x2="141.21154375388045" y1="0.5" y2="30"/><line opacity="0.2" x1="266.386675345078" x2="266.386675345078" y1="0.5" y2="30"/><line opacity="0.2" x1="273.1603122109089" x2="273.1603122109089" y1="0.5" y2="30"/><line opacity="0.2" x1="258.4190841928609" x2="258.4190841928609" y1="0.5" y2="30"/><line opacity="0.2" x1="298.94900305205334" x2="298.94900305205334" y1="0.5" y2="30"/><line opacity="0.2" x1="265.6128664985348" x2="265.6128664985348" y1="0.5" y2="30"/><line opacity="0.2" x1="391.08493791846786" x2="391.08493791846786" y1="0.5" y2="30"/><line opacity="0.2" x1="176.12944898392368" x2="176.12944898392368" y1="0.5" y2="30"/><line opacity="0.2" x1="393.46000074318215" x2="393.46000074318215" y1="0.5" y2="30"/><line opacity="0.2" x1="278.29409933113766" x2="278.29409933113766" y1="0.5" y2="30"/><line opacity="0.2" x1="312.26081328574713" x2="312.26081328574713" y1="0.5" y2="30"/><line opacity="0.2" x1="366.43041559378986" x2="366.43041559378986" y1="0.5" y2="30"/><line opacity="0.2" x1="184.1402987606564" x2="184.1402987606564" y1="0.5" y2="30"/><line opacity="0.2" x1="260.2337270850578" x2="260.2337270850578" y1="0.5" y2="30"/><line opacity="0.2" x1="274.4789407265732" x2="274.4789407265732" y1="0.5" y2="30"/><line opacity="0.2" x1="219.7509408519906" x2="219.7509408519906" y1="0.5" y2="30"/><line opacity="0.2" x1="353.6427885879118" x2="353.6427885879118" y1="0.5" y2="30"/><line opacity="0.2" x1="166.0806614015025" x2="166.0806614015025" y1="0.5" y2="30"/><line opacity="0.2" x1="296.2377284443087" x2="296.2377284443087" y1="0.5" y2="30"/><line opacity="0.2" x1="344.8681528549977" x2="344.8681528549977" y1="0.5" y2="30"/><line opacity="0.2" x1="169.66201058204308" x2="169.66201058204308" y1="0.5" y2="30"/><line opacity="0.2" x1="226.42535911451517" x2="226.42535911451517" y1="0.5" y2="30"/><line opacity="0.2" x1="310.4716616455843" x2="310.4716616455843" y1="0.5" y2="30"/><line opacity="0.2" x1="199.57105603399032" x2="199.57105603399032" y1="0.5" y2="30"/><line opacity="0.2" x1="188.99836864432368" x2="188.99836864432368" y1="0.5" y2="30"/><line opacity="0.2" x1="149.21904396681666" x2="149.21904396681666" y1="0.5" y2="30"/><line opacity="0.2" x1="302.474950211919" x2="302.474950211919" y1="0.5" y2="30"/><line opacity="0.2" x1="234.78831086305894" x2="234.78831086305894" y1="0.5" y2="30"/><line opacity="0.2" x1="237.37283941756357" x2="237.37283941756357" y1="0.5" y2="30"/><line opacity="0.2" x1="278.06915407619556" x2="278.06915407619556" y1="0.5" y2="30"/><line opacity="0.2" x1="338.5223451257081" x2="338.5223451257081" y1="0.5" y2="30"/><line opacity="0.2" x1="210.75002486214314" x2="210.75002486214314" y1="0.5" y2="30"/><line opacity="0.2" x1="378.82627942473044" x2="378.82627942473044" y1="0.5" y2="30"/><line opacity="0.2" x1="384.44382577137054" x2="384.44382577137054" y1="0.5" y2="30"/><line opacity="0.2" x1="223.12730598033434" x2="223.12730598033434" y1="0.5" y2="30"/><line opacity="0.2" x1="290.7016088752757" x2="290.7016088752757" y1="0.5" y2="30"/><line opacity="0.2" x1="293.86464152094635" x2="293.86464152094635" y1="0.5" y2="30"/><line opacity="0.2" x1="304.6543263553822" x2="304.6543263553822" y1="0.5" y2="30"/><line opacity="0.2" x1="119.94549161654757" x2="119.94549161654757" y1="0.5" y2="30"/><line opacity="0.2" x1="326.89518191165195" x2="326.89518191165195" y1="0.5" y2="30"/><line opacity="0.2" x1="303.3422430127711" x2="303.3422430127711" y1="0.5" y2="30"/><line opacity="0.2" x1="322.7994482705849" x2="322.7994482705849" y1="0.5" y2="30"/><line opacity="0.2" x1="273.19900609235646" x2="273.19900609235646" y1="0.5" y2="30"/><line opacity="0.2" x1="325.67016289670187" x2="325.67016289670187" y1="0.5" y2="30"/><line opacity="0.2" x1="379.7221816022389" x2="379.7221816022389" y1="0.5" y2="30"/><line opacity="0.2" x1="274.19154355354806" x2="274.19154355354806" y1="0.5" y2="30"/><line opacity="0.2" x1="287.1306226654939" x2="287.1306226654939" y1="0.5" y2="30"/><line opacity="0.2" x1="292.4486227434944" x2="292.4486227434944" y1="0.5" y2="30"/><line opacity="0.2" x1="295.4189214906841" x2="295.4189214906841" y1="0.5" y2="30"/><line opacity="0.2" x1="382.3746858726511" x2="382.3746858726511" y1="0.5" y2="30"/><line opacity="0.2" x1="371.21272091623" x2="371.21272091623" y1="0.5" y2="30"/><line opacity="0.2" x1="179.2565834083607" x2="179.2565834083607" y1="0.5" y2="30"/><line opacity="0.2" x1="129.4551545904273" x2="129.4551545904273" y1="0.5" y2="30"/><line opacity="0.2" x1="312.4063412116241" x2="312.4063412116241" y1="0.5" y2="30"/><line opacity="0.2" x1="372.6806627049209" x2="372.6806627049209" y1="0.5" y2="30"/><line opacity="0.2" x1="396.30398750532913" x2="396.30398750532913" y1="0.5" y2="30"/><line opacity="0.2" x1="197.94466265317322" x2="197.94466265317322" y1="0.5" y2="30"/><line opacity="0.2" x1="289.0985348084323" x2="289.0985348084323" y1="0.5" y2="30"/><line opacity="0.2" x1="260.79805938242424" x2="260.79805938242424" y1="0.5" y2="30"/><line opacity="0.2" x1="218.3769797749383" x2="218.3769797749383" y1="0.5" y2="30"/><line opacity="0.2" x1="356.25948164568024" x2="356.25948164568024" y1="0.5" y2="30"/><line opacity="0.2" x1="385.21808391472126" x2="385.21808391472126" y1="0.5" y2="30"/><line opacity="0.2" x1="174.2462424771635" x2="174.2462424771635" y1="0.5" y2="30"/><line opacity="0.2" x1="290.7549956453759" x2="290.7549956453759" y1="0.5" y2="30"/><line opacity="0.2" x1="254.41911356903063" x2="254.41911356903063" y1="0.5" y2="30"/><line opacity="0.2" x1="437.28236568999273" x2="437.28236568999273" y1="0.5" y2="30"/><line opacity="0.2" x1="259.1760119784049" x2="259.1760119784049" y1="0.5" y2="30"/><line opacity="0.2" x1="313.56498900928335" x2="313.56498900928335" y1="0.5" y2="30"/><line opacity="0.2" x1="373.54862632106546" x2="373.54862632106546" y1="0.5" y2="30"/><line opacity="0.2" x1="213.86114754030442" x2="213.86114754030442" y1="0.5" y2="30"/><line opacity="0.2" x1="150.89522706651218" x2="150.89522706651218" y1="0.5" y2="30"/><line opacity="0.2" x1="191.9737001283512" x2="191.9737001283512" y1="0.5" y2="30"/><line opacity="0.2" x1="312.64928501188183" x2="312.64928501188183" y1="0.5" y2="30"/><line opacity="0.2" x1="249.74525131147217" x2="249.74525131147217" y1="0.5" y2="30"/><line opacity="0.2" x1="320.3728578978209" x2="320.3728578978209" y1="0.5" y2="30"/><line opacity="0.2" x1="298.80726331626346" x2="298.80726331626346" y1="0.5" y2="30"/><line opacity="0.2" x1="437.2133350377676" x2="437.2133350377676" y1="0.5" y2="30"/><line opacity="0.2" x1="261.5914797482776" x2="261.5914797482776" y1="0.5" y2="30"/><line opacity="0.2" x1="130.05262661544185" x2="130.05262661544185" y1="0.5" y2="30"/><line opacity="0.2" x1="207.55589500641767" x2="207.55589500641767" y1="0.5" y2="30"/><line opacity="0.2" x1="272.8784959284097" x2="272.8784959284097" y1="0.5" y2="30"/><line opacity="0.2" x1="227.14795051728106" x2="227.14795051728106" y1="0.5" y2="30"/><line opacity="0.2" x1="276.4864959167893" x2="276.4864959167893" y1="0.5" y2="30"/><line opacity="0.2" x1="213.97631470987216" x2="213.97631470987216" y1="0.5" y2="30"/><line opacity="0.2" x1="337.62013691045945" x2="337.62013691045945" y1="0.5" y2="30"/><line opacity="0.2" x1="237.58462849379774" x2="237.58462849379774" y1="0.5" y2="30"/><line opacity="0.2" x1="322.5611312128356" x2="322.5611312128356" y1="0.5" y2="30"/><line opacity="0.2" x1="268.2298989521597" x2="268.2298989521597" y1="0.5" y2="30"/><line opacity="0.2" x1="222.16423862703675" x2="222.16423862703675" y1="0.5" y2="30"/><line opacity="0.2" x1="253.17787180672906" x2="253.17787180672906" y1="0.5" y2="30"/><line opacity="0.2" x1="241.4587542862668" x2="241.4587542862668" y1="0.5" y2="30"/><line opacity="0.2" x1="311.0305769531545" x2="311.0305769531545" y1="0.5" y2="30"/><line opacity="0.2" x1="286.79818650135985" x2="286.79818650135985" y1="0.5" y2="30"/><line opacity="0.2" x1="229.13851758258485" x2="229.13851758258485" y1="0.5" y2="30"/><line opacity="0.2" x1="289.8680620601271" x2="289.8680620601271" y1="0.5" y2="30"/><line opacity="0.2" x1="277.5546192937826" x2="277.5546192937826" y1="0.5" y2="30"/><line opacity="0.2" x1="214.57266019308224" x2="214.57266019308224" y1="0.5" y2="30"/><line opacity="0.2" x1="186.75297003199648" x2="186.75297003199648" y1="0.5" y2="30"/><line opacity="0.2" x1="309.955043940406" x2="309.955043940406" y1="0.5" y2="30"/><line opacity="0.2" x1="276.5508427764608" x2="276.5508427764608" y1="0.5" y2="30"/><line opacity="0.2" x1="253.65240995847773" x2="253.65240995847773" y1="0.5" y2="30"/><line opacity="0.2" x1="504.3698590307774" x2="504.3698590307774" y1="0.5" y2="30"/><line opacity="0.2" x1="256.77490946522033" x2="256.77490946522033" y1="0.5" y2="30"/><line opacity="0.2" x1="271.0540586129795" x2="271.0540586129795" y1="0.5" y2="30"/><line opacity="0.2" x1="283.9386915111562" x2="283.9386915111562" y1="0.5" y2="30"/><line opacity="0.2" x1="423.21010033578597" x2="423.21010033578597" y1="0.5" y2="30"/><line opacity="0.2" x1="310.4986080690345" x2="310.4986080690345" y1="0.5" y2="30"/><line opacity="0.2" x1="367.7898494401725" x2="367.7898494401725" y1="0.5" y2="30"/><line opacity="0.2" x1="335.80798220888306" x2="335.80798220888306" y1="0.5" y2="30"/><line opacity="0.2" x1="336.93908013186285" x2="336.93908013186285" y1="0.5" y2="30"/><line opacity="0.2" x1="327.2394614321402" x2="327.2394614321402" y1="0.5" y2="30"/><line opacity="0.2" x1="156.97092119964987" x2="156.97092119964987" y1="0.5" y2="30"/><line opacity="0.2" x1="294.88786733497864" x2="294.88786733497864" y1="0.5" y2="30"/><line opacity="0.2" x1="281.0033565667232" x2="281.0033565667232" y1="0.5" y2="30"/><line opacity="0.2" x1="286.16767843765854" x2="286.16767843765854" y1="0.5" y2="30"/><line opacity="0.2" x1="183.82625055366088" x2="183.82625055366088" y1="0.5" y2="30"/><line opacity="0.2" x1="345.7799842819002" x2="345.7799842819002" y1="0.5" y2="30"/><line opacity="0.2" x1="313.77648333867506" x2="313.77648333867506" y1="0.5" y2="30"/><line opacity="0.2" x1="233.04433214667043" x2="233.04433214667043" y1="0.5" y2="30"/><line opacity="0.2" x1="210.23511686653796" x2="210.23511686653796" y1="0.5" y2="30"/><line opacity="0.2" x1="309.3522681292566" x2="309.3522681292566" y1="0.5" y2="30"/><line opacity="0.2" x1="115.81046137511116" x2="115.81046137511116" y1="0.5" y2="30"/><line opacity="0.2" x1="304.0404147546075" x2="304.0404147546075" y1="0.5" y2="30"/><line opacity="0.2" x1="298.19194319311913" x2="298.19194319311913" y1="0.5" y2="30"/><line opacity="0.2" x1="283.4858562979039" x2="283.4858562979039" y1="0.5" y2="30"/><line opacity="0.2" x1="201.17906703155745" x2="201.17906703155745" y1="0.5" y2="30"/><line opacity="0.2" x1="168.5353475203187" x2="168.5353475203187" y1="0.5" y2="30"/><line opacity="0.2" x1="256.91211908839983" x2="256.91211908839983" y1="0.5" y2="30"/><line opacity="0.2" x1="440.6593322021759" x2="440.6593322021759" y1="0.5" y2="30"/><line opacity="0.2" x1="137.8394538057002" x2="137.8394538057002" y1="0.5" y2="30"/></g></svg>