<svg xmlns="http://www.w3.org/2000/svg" xmlns:xlink="http://www.w3.org/1999/xlink" class="plot-d6a7b5" fill="currentColor" font-family="system-ui, sans-serif" font-size="10" text-anchor="middle" width="640" height="400" viewBox="0 0 640 400" style="color: black; background-color: white;"><style>.plot-d6a7b5 {
  display: block;
  background: white;
  height: auto;
  height: intrinsic;
  max-width: 100%;
}
.plot-d6a7b5 text,
.plot-d6a7b5 tspan {
  white-space: pre;
}</style><g aria-label="y-axis tick" fill="none" stroke="currentColor"><path transform="translate(40,371.60093173398894)" d="M0,0L-6,0"/><path transform="translate(40,324.60456890547545)" d="M0,0L-6,0"/><path transform="translate(40,277.60820607696184)" d="M0,0L-6,0"/><path transform="translate(40,230.61184324844825)" d="M0,0L-6,0"/><path transform="translate(40,183.6154804199347)" d="M0,0L-6,0"/><path transform="translate(40,136.61911759142112)" d="M0,0L-6,0"/><path transform="translate(40,89.62275476290756)" d="M0,0L-6,0"/><path transform="translate(40,42.626391934393965)" d="M0,0L-6,0"/></g><g aria-label="y-axis tick label" text-anchor="end" font-variant="tabular-nums" transform="translate(-9,0)"><text y="0.32em" transform="translate(40,371.60093173398894)">−8</text><text y="0.32em" transform="translate(40,324.60456890547545)">−6</text><text y="0.32em" transform="translate(40,277.60820607696184)">−4</text><text y="0.32em" transform="translate(40,230.61184324844825)">−2</text><text y="0.32em" transform="translate(40,183.6154804199347)">0</text><text y="0.32em" transform="translate(40,136.61911759142112)">2</text><text y="0.32em" transform="translate(40,89.62275476290756)">4</text><text y="0.32em" transform="translate(40,42.626391934393965)">6</text></g><g aria-label="rule" stroke="steelblue"><line x1="40" x2="639.5" y1="183.6154804199347" y2="183.6154804199347"/></g><g aria-label="line" fill="none" stroke="currentColor" stroke-width="1.5" stroke-linejoin="round" stroke-linecap="round"><path d="M40,173.934L46.056,173.413L52.111,196.585L58.167,214.466L64.222,239.136L70.278,243.423L76.333,258.313L82.389,244.216L88.444,276.243L94.5,276.679L100.556,296.904L106.611,293.776L112.667,327.106L118.722,380L124.778,355.47L130.833,337.269L136.889,332.926L142.944,285.525L149,262.984L155.056,282.24L161.111,304.998L167.167,316.488L173.222,313.077L179.278,310.39L185.333,352.248L191.389,320.283L197.444,302.565L203.5,316.444L209.556,333.787L215.611,330.724L221.667,318.299L227.722,276.999L233.778,249.557L239.833,249.656L245.889,272.387L251.944,246.295L258,239.595L264.056,270.404L270.111,257.399L276.167,277.486L282.222,304.177L288.278,303.142L294.333,287.081L300.389,293.83L306.444,287.769L312.5,309.151L318.556,315.425L324.611,299.547L330.667,336.061L336.722,375.092L342.778,347.866L348.833,358.421L354.889,352.196L360.944,311.843L367,330.866L373.056,316.049L379.111,308.593L385.167,310.473L391.222,318.581L397.278,307.319L403.333,316.262L409.389,314.019L415.444,291.846L421.5,272.953L427.556,292.772L433.611,302.947L439.667,282.078L445.722,234.178L451.778,207.771L457.833,193.369L463.889,196.633L469.944,216.36L476,165.247L482.056,142.054L488.111,154.305L494.167,145.003L500.222,130.869L506.278,104.093L512.333,90.369L518.389,83.589L524.444,96.551L530.5,64.414L536.556,20L542.611,35.747L548.667,52.598L554.722,28.305L560.778,55.165L566.833,79.977L572.889,76.588L578.944,35.977L585,93.938L591.056,71.724L597.111,124.936L603.167,84.323L609.222,112.484L615.278,124.271L621.333,67.398L627.389,98.314L633.444,102.672L639.5,132.863"/></g></svg>