<svg xmlns="http://www.w3.org/2000/svg" xmlns:xlink="http://www.w3.org/1999/xlink" class="plot-d6a7b5" fill="currentColor" font-family="system-ui, sans-serif" font-size="10" text-anchor="middle" width="640" height="60" viewBox="0 0 640 60" style="color: black; background-color: white;"><style>:where(.plot-d6a7b5) {
  --plot-background: white;
  display: block;
  height: auto;
  height: intrinsic;
  max-width: 100%;
}
:where(.plot-d6a7b5 text),
:where(.plot-d6a7b5 tspan) {
  white-space: pre;
}</style><g aria-label="x-axis tick" aria-hidden="true" fill="none" stroke="currentColor"><path transform="translate(22.62383330621421,30)" d="M0,0L0,6"/><path transform="translate(123.78376513178222,30)" d="M0,0L0,6"/><path transform="translate(224.9436969573502,30)" d="M0,0L0,6"/><path transform="translate(326.10362878291824,30)" d="M0,0L0,6"/><path transform="translate(427.2635606084863,30)" d="M0,0L0,6"/><path transform="translate(528.4234924340542,30)" d="M0,0L0,6"/></g><g aria-label="x-axis tick label" font-variant="tabular-nums" transform="translate(0,9)"><text y="0.71em" transform="translate(22.62383330621421,30)">−3</text><text y="0.71em" transform="translate(123.78376513178222,30)">−2</text><text y="0.71em" transform="translate(224.9436969573502,30)">−1</text><text y="0.71em" transform="translate(326.10362878291824,30)">0</text><text y="0.71em" transform="translate(427.2635606084863,30)">1</text><text y="0.71em" transform="translate(528.4234924340542,30)">2</text></g><g aria-label="tick" stroke="steelblue"><line opacity="0.2" x1="297.4932042939936" x2="297.4932042939936" y1="0.5" y2="30"/><line opacity="0.2" x1="214.8370580287148" x2="214.8370580287148" y1="0.5" y2="30"/><line opacity="0.2" x1="328.31560454379706" x2="328.31560454379706" y1="0.5" y2="30"/><line opacity="0.2" x1="204.71954534180404" x2="204.71954534180404" y1="0.5" y2="30"/><line opacity="0.2" x1="363.7858145179079" x2="363.7858145179079" y1="0.5" y2="30"/><line opacity="0.2" x1="292.9623839682845" x2="292.9623839682845" y1="0.5" y2="30"/><line opacity="0.2" x1="304.489204660814" x2="304.489204660814" y1="0.5" y2="30"/><line opacity="0.2" x1="236.81371794919275" x2="236.81371794919275" y1="0.5" y2="30"/><line opacity="0.2" x1="189.39805173839758" x2="189.39805173839758" y1="0.5" y2="30"/><line opacity="0.2" x1="121.73803333909461" x2="121.73803333909461" y1="0.5" y2="30"/><line opacity="0.2" x1="360.3997581431359" x2="360.3997581431359" y1="0.5" y2="30"/><line opacity="0.2" x1="348.6621857112108" x2="348.6621857112108" y1="0.5" y2="30"/><line opacity="0.2" x1="303.7009797732231" x2="303.7009797732231" y1="0.5" y2="30"/><line opacity="0.2" x1="449.3917593032006" x2="449.3917593032006" y1="0.5" y2="30"/><line opacity="0.2" x1="248.36096808709334" x2="248.36096808709334" y1="0.5" y2="30"/><line opacity="0.2" x1="141.01077599643526" x2="141.01077599643526" y1="0.5" y2="30"/><line opacity="0.2" x1="293.31364846981484" x2="293.31364846981484" y1="0.5" y2="30"/><line opacity="0.2" x1="519.410315950971" x2="519.410315950971" y1="0.5" y2="30"/><line opacity="0.2" x1="331.93600492244775" x2="331.93600492244775" y1="0.5" y2="30"/><line opacity="0.2" x1="333.6415162424401" x2="333.6415162424401" y1="0.5" y2="30"/><line opacity="0.2" x1="87.71324323546509" x2="87.71324323546509" y1="0.5" y2="30"/><line opacity="0.2" x1="240.39087061338572" x2="240.39087061338572" y1="0.5" y2="30"/><line opacity="0.2" x1="203.40823535377305" x2="203.40823535377305" y1="0.5" y2="30"/><line opacity="0.2" x1="309.28982636229875" x2="309.28982636229875" y1="0.5" y2="30"/><line opacity="0.2" x1="292.2251218676767" x2="292.2251218676767" y1="0.5" y2="30"/><line opacity="0.2" x1="308.39486344816135" x2="308.39486344816135" y1="0.5" y2="30"/><line opacity="0.2" x1="404.38201568868095" x2="404.38201568868095" y1="0.5" y2="30"/><line opacity="0.2" x1="325.58836339941826" x2="325.58836339941826" y1="0.5" y2="30"/><line opacity="0.2" x1="224.6847167300505" x2="224.6847167300505" y1="0.5" y2="30"/><line opacity="0.2" x1="380.441594404653" x2="380.441594404653" y1="0.5" y2="30"/><line opacity="0.2" x1="297.36409846323545" x2="297.36409846323545" y1="0.5" y2="30"/><line opacity="0.2" x1="296.3764028892195" x2="296.3764028892195" y1="0.5" y2="30"/><line opacity="0.2" x1="281.84329763288923" x2="281.84329763288923" y1="0.5" y2="30"/><line opacity="0.2" x1="228.23640468890318" x2="228.23640468890318" y1="0.5" y2="30"/><line opacity="0.2" x1="569.3501040563677" x2="569.3501040563677" y1="0.5" y2="30"/><line opacity="0.2" x1="357.4951456096466" x2="357.4951456096466" y1="0.5" y2="30"/><line opacity="0.2" x1="316.5079301117485" x2="316.5079301117485" y1="0.5" y2="30"/><line opacity="0.2" x1="192.26644808293068" x2="192.26644808293068" y1="0.5" y2="30"/><line opacity="0.2" x1="302.96187813616916" x2="302.96187813616916" y1="0.5" y2="30"/><line opacity="0.2" x1="354.9124114482556" x2="354.9124114482556" y1="0.5" y2="30"/><line opacity="0.2" x1="314.2708253450343" x2="314.2708253450343" y1="0.5" y2="30"/><line opacity="0.2" x1="308.2855964853554" x2="308.2855964853554" y1="0.5" y2="30"/><line opacity="0.2" x1="339.3809297309889" x2="339.3809297309889" y1="0.5" y2="30"/><line opacity="0.2" x1="179.02580962326786" x2="179.02580962326786" y1="0.5" y2="30"/><line opacity="0.2" x1="231.5050509669031" x2="231.5050509669031" y1="0.5" y2="30"/><line opacity="0.2" x1="227.188039544825" x2="227.188039544825" y1="0.5" y2="30"/><line opacity="0.2" x1="426.7641585696717" x2="426.7641585696717" y1="0.5" y2="30"/><line opacity="0.2" x1="413.1055045716729" x2="413.1055045716729" y1="0.5" y2="30"/><line opacity="0.2" x1="281.51142637077186" x2="281.51142637077186" y1="0.5" y2="30"/><line opacity="0.2" x1="261.01319878706755" x2="261.01319878706755" y1="0.5" y2="30"/><line opacity="0.2" x1="425.95070694303286" x2="425.95070694303286" y1="0.5" y2="30"/><line opacity="0.2" x1="506.3394304091643" x2="506.3394304091643" y1="0.5" y2="30"/><line opacity="0.2" x1="221.68819212766857" x2="221.68819212766857" y1="0.5" y2="30"/><line opacity="0.2" x1="192.3697300065469" x2="192.3697300065469" y1="0.5" y2="30"/><line opacity="0.2" x1="518.6979137738753" x2="518.6979137738753" y1="0.5" y2="30"/><line opacity="0.2" x1="263.5918446197776" x2="263.5918446197776" y1="0.5" y2="30"/><line opacity="0.2" x1="410.46256825480856" x2="410.46256825480856" y1="0.5" y2="30"/><line opacity="0.2" x1="391.3961602999577" x2="391.3961602999577" y1="0.5" y2="30"/><line opacity="0.2" x1="320.7440808995173" x2="320.7440808995173" y1="0.5" y2="30"/><line opacity="0.2" x1="175.9348203861061" x2="175.9348203861061" y1="0.5" y2="30"/><line opacity="0.2" x1="232.43820491884597" x2="232.43820491884597" y1="0.5" y2="30"/><line opacity="0.2" x1="273.3975738486948" x2="273.3975738486948" y1="0.5" y2="30"/><line opacity="0.2" x1="154.61863420298045" x2="154.61863420298045" y1="0.5" y2="30"/><line opacity="0.2" x1="326.55326266546234" x2="326.55326266546234" y1="0.5" y2="30"/><line opacity="0.2" x1="280.9096123019287" x2="280.9096123019287" y1="0.5" y2="30"/><line opacity="0.2" x1="251.33022557560972" x2="251.33022557560972" y1="0.5" y2="30"/><line opacity="0.2" x1="193.12171320286606" x2="193.12171320286606" y1="0.5" y2="30"/><line opacity="0.2" x1="286.27608347972983" x2="286.27608347972983" y1="0.5" y2="30"/><line opacity="0.2" x1="558.4650207819288" x2="558.4650207819288" y1="0.5" y2="30"/><line opacity="0.2" x1="295.1656107547082" x2="295.1656107547082" y1="0.5" y2="30"/><line opacity="0.2" x1="442.7701181637585" x2="442.7701181637585" y1="0.5" y2="30"/><line opacity="0.2" x1="306.07809092908235" x2="306.07809092908235" y1="0.5" y2="30"/><line opacity="0.2" x1="370.94674466662326" x2="370.94674466662326" y1="0.5" y2="30"/><line opacity="0.2" x1="356.0331472005125" x2="356.0331472005125" y1="0.5" y2="30"/><line opacity="0.2" x1="408.7784422996037" x2="408.7784422996037" y1="0.5" y2="30"/><line opacity="0.2" x1="396.35120874521266" x2="396.35120874521266" y1="0.5" y2="30"/><line opacity="0.2" x1="229.87306887014338" x2="229.87306887014338" y1="0.5" y2="30"/><line opacity="0.2" x1="580.4505182479031" x2="580.4505182479031" y1="0.5" y2="30"/><line opacity="0.2" x1="187.96481931935358" x2="187.96481931935358" y1="0.5" y2="30"/><line opacity="0.2" x1="249.4339850244022" x2="249.4339850244022" y1="0.5" y2="30"/><line opacity="0.2" x1="136.34228883565038" x2="136.34228883565038" y1="0.5" y2="30"/><line opacity="0.2" x1="415.4316954351018" x2="415.4316954351018" y1="0.5" y2="30"/><line opacity="0.2" x1="233.24952890218617" x2="233.24952890218617" y1="0.5" y2="30"/><line opacity="0.2" x1="187.78046190964346" x2="187.78046190964346" y1="0.5" y2="30"/><line opacity="0.2" x1="272.2421554222809" x2="272.2421554222809" y1="0.5" y2="30"/><line opacity="0.2" x1="291.155632061108" x2="291.155632061108" y1="0.5" y2="30"/><line opacity="0.2" x1="247.08834036389447" x2="247.08834036389447" y1="0.5" y2="30"/><line opacity="0.2" x1="312.8559159595867" x2="312.8559159595867" y1="0.5" y2="30"/><line opacity="0.2" x1="332.10534836453655" x2="332.10534836453655" y1="0.5" y2="30"/><line opacity="0.2" x1="81.78621254358237" x2="81.78621254358237" y1="0.5" y2="30"/><line opacity="0.2" x1="321.40734198322804" x2="321.40734198322804" y1="0.5" y2="30"/><line opacity="0.2" x1="336.10974918058037" x2="336.10974918058037" y1="0.5" y2="30"/><line opacity="0.2" x1="247.89826236387142" x2="247.89826236387142" y1="0.5" y2="30"/><line opacity="0.2" x1="284.6150464057138" x2="284.6150464057138" y1="0.5" y2="30"/><line opacity="0.2" x1="307.97676548311864" x2="307.97676548311864" y1="0.5" y2="30"/><line opacity="0.2" x1="169.13607037347606" x2="169.13607037347606" y1="0.5" y2="30"/><line opacity="0.2" x1="248.08385999230688" x2="248.08385999230688" y1="0.5" y2="30"/><line opacity="0.2" x1="359.51441516208536" x2="359.51441516208536" y1="0.5" y2="30"/><line opacity="0.2" x1="475.09262184517377" x2="475.09262184517377" y1="0.5" y2="30"/><line opacity="0.2" x1="303.89315310451497" x2="303.89315310451497" y1="0.5" y2="30"/><line opacity="0.2" x1="241.4126457568614" x2="241.4126457568614" y1="0.5" y2="30"/><line opacity="0.2" x1="376.5069989511957" x2="376.5069989511957" y1="0.5" y2="30"/><line opacity="0.2" x1="379.747471246674" x2="379.747471246674" y1="0.5" y2="30"/><line opacity="0.2" x1="301.35280242324785" x2="301.35280242324785" y1="0.5" y2="30"/><line opacity="0.2" x1="306.48265106504215" x2="306.48265106504215" y1="0.5" y2="30"/><line opacity="0.2" x1="272.1287197967387" x2="272.1287197967387" y1="0.5" y2="30"/><line opacity="0.2" x1="360.7584151200741" x2="360.7584151200741" y1="0.5" y2="30"/><line opacity="0.2" x1="459.29145991383376" x2="459.29145991383376" y1="0.5" y2="30"/><line opacity="0.2" x1="362.58722496010546" x2="362.58722496010546" y1="0.5" y2="30"/><line opacity="0.2" x1="236.3224638279012" x2="236.3224638279012" y1="0.5" y2="30"/><line opacity="0.2" x1="304.8458758579891" x2="304.8458758579891" y1="0.5" y2="30"/><line opacity="0.2" x1="204.4423971066296" x2="204.4423971066296" y1="0.5" y2="30"/><line opacity="0.2" x1="250.70868466165598" x2="250.70868466165598" y1="0.5" y2="30"/><line opacity="0.2" x1="483.9671005911675" x2="483.9671005911675" y1="0.5" y2="30"/><line opacity="0.2" x1="382.4345689152202" x2="382.4345689152202" y1="0.5" y2="30"/><line opacity="0.2" x1="366.28355022507355" x2="366.28355022507355" y1="0.5" y2="30"/><line opacity="0.2" x1="295.2686370741427" x2="295.2686370741427" y1="0.5" y2="30"/><line opacity="0.2" x1="272.76592235310295" x2="272.76592235310295" y1="0.5" y2="30"/><line opacity="0.2" x1="345.73850774315355" x2="345.73850774315355" y1="0.5" y2="30"/><line opacity="0.2" x1="294.5592081767996" x2="294.5592081767996" y1="0.5" y2="30"/><line opacity="0.2" x1="257.0867766196433" x2="257.0867766196433" y1="0.5" y2="30"/><line opacity="0.2" x1="254.7543693732359" x2="254.7543693732359" y1="0.5" y2="30"/><line opacity="0.2" x1="342.1408345073669" x2="342.1408345073669" y1="0.5" y2="30"/><line opacity="0.2" x1="262.3142407041421" x2="262.3142407041421" y1="0.5" y2="30"/><line opacity="0.2" x1="233.0091093889783" x2="233.0091093889783" y1="0.5" y2="30"/><line opacity="0.2" x1="361.2233804632662" x2="361.2233804632662" y1="0.5" y2="30"/><line opacity="0.2" x1="407.61095398302086" x2="407.61095398302086" y1="0.5" y2="30"/><line opacity="0.2" x1="194.39174305836252" x2="194.39174305836252" y1="0.5" y2="30"/><line opacity="0.2" x1="399.25322567947813" x2="399.25322567947813" y1="0.5" y2="30"/><line opacity="0.2" x1="382.39324267922467" x2="382.39324267922467" y1="0.5" y2="30"/><line opacity="0.2" x1="262.4363322720385" x2="262.4363322720385" y1="0.5" y2="30"/><line opacity="0.2" x1="465.47086604504125" x2="465.47086604504125" y1="0.5" y2="30"/><line opacity="0.2" x1="378.21678366285136" x2="378.21678366285136" y1="0.5" y2="30"/><line opacity="0.2" x1="374.51933227341345" x2="374.51933227341345" y1="0.5" y2="30"/><line opacity="0.2" x1="259.57487479114764" x2="259.57487479114764" y1="0.5" y2="30"/><line opacity="0.2" x1="482.93787832292037" x2="482.93787832292037" y1="0.5" y2="30"/><line opacity="0.2" x1="278.7739126266362" x2="278.7739126266362" y1="0.5" y2="30"/><line opacity="0.2" x1="259.4353456285487" x2="259.4353456285487" y1="0.5" y2="30"/><line opacity="0.2" x1="481.8393575003565" x2="481.8393575003565" y1="0.5" y2="30"/><line opacity="0.2" x1="313.24421521567973" x2="313.24421521567973" y1="0.5" y2="30"/><line opacity="0.2" x1="298.7843307636466" x2="298.7843307636466" y1="0.5" y2="30"/><line opacity="0.2" x1="572.9355981537356" x2="572.9355981537356" y1="0.5" y2="30"/><line opacity="0.2" x1="340.2521313863494" x2="340.2521313863494" y1="0.5" y2="30"/><line opacity="0.2" x1="396.5632247968917" x2="396.5632247968917" y1="0.5" y2="30"/><line opacity="0.2" x1="475.78077469945663" x2="475.78077469945663" y1="0.5" y2="30"/><line opacity="0.2" x1="358.8817404902729" x2="358.8817404902729" y1="0.5" y2="30"/><line opacity="0.2" x1="220.10779579238863" x2="220.10779579238863" y1="0.5" y2="30"/><line opacity="0.2" x1="308.400087019533" x2="308.400087019533" y1="0.5" y2="30"/><line opacity="0.2" x1="261.5387518753466" x2="261.5387518753466" y1="0.5" y2="30"/><line opacity="0.2" x1="282.791497079215" x2="282.791497079215" y1="0.5" y2="30"/><line opacity="0.2" x1="263.00613420393" x2="263.00613420393" y1="0.5" y2="30"/><line opacity="0.2" x1="328.79818859842686" x2="328.79818859842686" y1="0.5" y2="30"/><line opacity="0.2" x1="238.5162149562012" x2="238.5162149562012" y1="0.5" y2="30"/><line opacity="0.2" x1="218.08739860148648" x2="218.08739860148648" y1="0.5" y2="30"/><line opacity="0.2" x1="231.15690389279644" x2="231.15690389279644" y1="0.5" y2="30"/><line opacity="0.2" x1="441.39376680406355" x2="441.39376680406355" y1="0.5" y2="30"/><line opacity="0.2" x1="364.9904004720858" x2="364.9904004720858" y1="0.5" y2="30"/><line opacity="0.2" x1="447.39850462431616" x2="447.39850462431616" y1="0.5" y2="30"/><line opacity="0.2" x1="381.4182668716381" x2="381.4182668716381" y1="0.5" y2="30"/><line opacity="0.2" x1="365.3845209268657" x2="365.3845209268657" y1="0.5" y2="30"/><line opacity="0.2" x1="339.9725383710097" x2="339.9725383710097" y1="0.5" y2="30"/><line opacity="0.2" x1="274.7000026682515" x2="274.7000026682515" y1="0.5" y2="30"/><line opacity="0.2" x1="137.16400568848832" x2="137.16400568848832" y1="0.5" y2="30"/><line opacity="0.2" x1="242.39383537264058" x2="242.39383537264058" y1="0.5" y2="30"/><line opacity="0.2" x1="416.9878541362021" x2="416.9878541362021" y1="0.5" y2="30"/><line opacity="0.2" x1="329.0113357691268" x2="329.0113357691268" y1="0.5" y2="30"/><line opacity="0.2" x1="340.1549014865103" x2="340.1549014865103" y1="0.5" y2="30"/><line opacity="0.2" x1="324.8272301823248" x2="324.8272301823248" y1="0.5" y2="30"/><line opacity="0.2" x1="190.64787492915843" x2="190.64787492915843" y1="0.5" y2="30"/><line opacity="0.2" x1="303.2934947721103" x2="303.2934947721103" y1="0.5" y2="30"/><line opacity="0.2" x1="302.543905117647" x2="302.543905117647" y1="0.5" y2="30"/><line opacity="0.2" x1="403.70127956819243" x2="403.70127956819243" y1="0.5" y2="30"/><line opacity="0.2" x1="212.8065688817465" x2="212.8065688817465" y1="0.5" y2="30"/><line opacity="0.2" x1="381.13948838295386" x2="381.13948838295386" y1="0.5" y2="30"/><line opacity="0.2" x1="454.48418575369055" x2="454.48418575369055" y1="0.5" y2="30"/><line opacity="0.2" x1="362.99000869523655" x2="362.99000869523655" y1="0.5" y2="30"/><line opacity="0.2" x1="424.8068457963562" x2="424.8068457963562" y1="0.5" y2="30"/><line opacity="0.2" x1="238.28195734345252" x2="238.28195734345252" y1="0.5" y2="30"/><line opacity="0.2" x1="220.35015556795653" x2="220.35015556795653" y1="0.5" y2="30"/><line opacity="0.2" x1="344.56088619923474" x2="344.56088619923474" y1="0.5" y2="30"/><line opacity="0.2" x1="291.5759583359752" x2="291.5759583359752" y1="0.5" y2="30"/><line opacity="0.2" x1="253.80691225090587" x2="253.80691225090587" y1="0.5" y2="30"/><line opacity="0.2" x1="361.95638665895234" x2="361.95638665895234" y1="0.5" y2="30"/><line opacity="0.2" x1="133.04663735429403" x2="133.04663735429403" y1="0.5" y2="30"/><line opacity="0.2" x1="419.27304004604173" x2="419.27304004604173" y1="0.5" y2="30"/><line opacity="0.2" x1="422.7131310464596" x2="422.7131310464596" y1="0.5" y2="30"/><line opacity="0.2" x1="252.74859003632747" x2="252.74859003632747" y1="0.5" y2="30"/><line opacity="0.2" x1="370.76533992047354" x2="370.76533992047354" y1="0.5" y2="30"/><line opacity="0.2" x1="387.8521522976108" x2="387.8521522976108" y1="0.5" y2="30"/><line opacity="0.2" x1="404.7044441454029" x2="404.7044441454029" y1="0.5" y2="30"/><line opacity="0.2" x1="305.40791096854696" x2="305.40791096854696" y1="0.5" y2="30"/><line opacity="0.2" x1="226.36851229568703" x2="226.36851229568703" y1="0.5" y2="30"/><line opacity="0.2" x1="402.1408510189827" x2="402.1408510189827" y1="0.5" y2="30"/><line opacity="0.2" x1="330.8323084302254" x2="330.8323084302254" y1="0.5" y2="30"/><line opacity="0.2" x1="474.4362416827448" x2="474.4362416827448" y1="0.5" y2="30"/><line opacity="0.2" x1="236.09687973783656" x2="236.09687973783656" y1="0.5" y2="30"/><line opacity="0.2" x1="377.49089278611405" x2="377.49089278611405" y1="0.5" y2="30"/><line opacity="0.2" x1="459.55230136959193" x2="459.55230136959193" y1="0.5" y2="30"/><line opacity="0.2" x1="409.49323919510607" x2="409.49323919510607" y1="0.5" y2="30"/><line opacity="0.2" x1="355.8076087101197" x2="355.8076087101197" y1="0.5" y2="30"/><line opacity="0.2" x1="368.8633317506526" x2="368.8633317506526" y1="0.5" y2="30"/><line opacity="0.2" x1="372.03520753203" x2="372.03520753203" y1="0.5" y2="30"/><line opacity="0.2" x1="432.6518079985798" x2="432.6518079985798" y1="0.5" y2="30"/><line opacity="0.2" x1="350.0562390919022" x2="350.0562390919022" y1="0.5" y2="30"/><line opacity="0.2" x1="404.022225625362" x2="404.022225625362" y1="0.5" y2="30"/><line opacity="0.2" x1="451.0700388473316" x2="451.0700388473316" y1="0.5" y2="30"/><line opacity="0.2" x1="381.4739133695763" x2="381.4739133695763" y1="0.5" y2="30"/><line opacity="0.2" x1="290.82780426309955" x2="290.82780426309955" y1="0.5" y2="30"/><line opacity="0.2" x1="257.02071699592295" x2="257.02071699592295" y1="0.5" y2="30"/><line opacity="0.2" x1="396.0375451147669" x2="396.0375451147669" y1="0.5" y2="30"/><line opacity="0.2" x1="283.4237570443492" x2="283.4237570443492" y1="0.5" y2="30"/><line opacity="0.2" x1="253.12123335802835" x2="253.12123335802835" y1="0.5" y2="30"/><line opacity="0.2" x1="286.91670777611" x2="286.91670777611" y1="0.5" y2="30"/><line opacity="0.2" x1="374.66094632490666" x2="374.66094632490666" y1="0.5" y2="30"/><line opacity="0.2" x1="249.40039575064458" x2="249.40039575064458" y1="0.5" y2="30"/><line opacity="0.2" x1="540.3518082348078" x2="540.3518082348078" y1="0.5" y2="30"/><line opacity="0.2" x1="270.6693832815988" x2="270.6693832815988" y1="0.5" y2="30"/><line opacity="0.2" x1="547.5559269202852" x2="547.5559269202852" y1="0.5" y2="30"/><line opacity="0.2" x1="385.02476681624427" x2="385.02476681624427" y1="0.5" y2="30"/><line opacity="0.2" x1="184.1909893918541" x2="184.1909893918541" y1="0.5" y2="30"/><line opacity="0.2" x1="183.62110284213114" x2="183.62110284213114" y1="0.5" y2="30"/><line opacity="0.2" x1="363.93805430981763" x2="363.93805430981763" y1="0.5" y2="30"/><line opacity="0.2" x1="293.4095011226121" x2="293.4095011226121" y1="0.5" y2="30"/><line opacity="0.2" x1="378.480353985355" x2="378.480353985355" y1="0.5" y2="30"/><line opacity="0.2" x1="398.37704693103865" x2="398.37704693103865" y1="0.5" y2="30"/><line opacity="0.2" x1="243.09670376056877" x2="243.09670376056877" y1="0.5" y2="30"/><line opacity="0.2" x1="369.8372040566573" x2="369.8372040566573" y1="0.5" y2="30"/><line opacity="0.2" x1="316.1414114492194" x2="316.1414114492194" y1="0.5" y2="30"/><line opacity="0.2" x1="487.91467497967074" x2="487.91467497967074" y1="0.5" y2="30"/><line opacity="0.2" x1="294.306822583448" x2="294.306822583448" y1="0.5" y2="30"/><line opacity="0.2" x1="107.30732625682619" x2="107.30732625682619" y1="0.5" y2="30"/><line opacity="0.2" x1="430.64226186442227" x2="430.64226186442227" y1="0.5" y2="30"/><line opacity="0.2" x1="309.4151860387128" x2="309.4151860387128" y1="0.5" y2="30"/><line opacity="0.2" x1="314.87737715101827" x2="314.87737715101827" y1="0.5" y2="30"/><line opacity="0.2" x1="231.7185166437995" x2="231.7185166437995" y1="0.5" y2="30"/><line opacity="0.2" x1="370.576778811715" x2="370.576778811715" y1="0.5" y2="30"/><line opacity="0.2" x1="223.7155231731197" x2="223.7155231731197" y1="0.5" y2="30"/><line opacity="0.2" x1="333.7459109411521" x2="333.7459109411521" y1="0.5" y2="30"/><line opacity="0.2" x1="238.30177611451776" x2="238.30177611451776" y1="0.5" y2="30"/><line opacity="0.2" x1="348.9086863066611" x2="348.9086863066611" y1="0.5" y2="30"/><line opacity="0.2" x1="343.90020603316896" x2="343.90020603316896" y1="0.5" y2="30"/><line opacity="0.2" x1="565.3791855774915" x2="565.3791855774915" y1="0.5" y2="30"/><line opacity="0.2" x1="188.67597667065183" x2="188.67597667065183" y1="0.5" y2="30"/><line opacity="0.2" x1="281.5960861255433" x2="281.5960861255433" y1="0.5" y2="30"/><line opacity="0.2" x1="396.9352142798284" x2="396.9352142798284" y1="0.5" y2="30"/><line opacity="0.2" x1="444.3583228351668" x2="444.3583228351668" y1="0.5" y2="30"/><line opacity="0.2" x1="496.445488192728" x2="496.445488192728" y1="0.5" y2="30"/><line opacity="0.2" x1="420.7741306391611" x2="420.7741306391611" y1="0.5" y2="30"/><line opacity="0.2" x1="281.22170621139867" x2="281.22170621139867" y1="0.5" y2="30"/><line opacity="0.2" x1="239.52010911260282" x2="239.52010911260282" y1="0.5" y2="30"/><line opacity="0.2" x1="272.733145033701" x2="272.733145033701" y1="0.5" y2="30"/><line opacity="0.2" x1="252.9515657817273" x2="252.9515657817273" y1="0.5" y2="30"/><line opacity="0.2" x1="286.0624307378438" x2="286.0624307378438" y1="0.5" y2="30"/><line opacity="0.2" x1="260.18785760754616" x2="260.18785760754616" y1="0.5" y2="30"/><line opacity="0.2" x1="436.1867130197433" x2="436.1867130197433" y1="0.5" y2="30"/><line opacity="0.2" x1="415.9821355213617" x2="415.9821355213617" y1="0.5" y2="30"/><line opacity="0.2" x1="368.0204421711347" x2="368.0204421711347" y1="0.5" y2="30"/><line opacity="0.2" x1="389.0292354142786" x2="389.0292354142786" y1="0.5" y2="30"/><line opacity="0.2" x1="220.28897436663516" x2="220.28897436663516" y1="0.5" y2="30"/><line opacity="0.2" x1="440.645639486229" x2="440.645639486229" y1="0.5" y2="30"/><line opacity="0.2" x1="230.07839622015686" x2="230.07839622015686" y1="0.5" y2="30"/><line opacity="0.2" x1="135.4141321553769" x2="135.4141321553769" y1="0.5" y2="30"/><line opacity="0.2" x1="393.64836544091776" x2="393.64836544091776" y1="0.5" y2="30"/><line opacity="0.2" x1="213.55249808663373" x2="213.55249808663373" y1="0.5" y2="30"/><line opacity="0.2" x1="390.6948499875656" x2="390.6948499875656" y1="0.5" y2="30"/><line opacity="0.2" x1="274.1347565195095" x2="274.1347565195095" y1="0.5" y2="30"/><line opacity="0.2" x1="207.9119295054117" x2="207.9119295054117" y1="0.5" y2="30"/><line opacity="0.2" x1="239.46831051302166" x2="239.46831051302166" y1="0.5" y2="30"/><line opacity="0.2" x1="268.24675072902875" x2="268.24675072902875" y1="0.5" y2="30"/><line opacity="0.2" x1="263.5958210301269" x2="263.5958210301269" y1="0.5" y2="30"/><line opacity="0.2" x1="256.3915432335724" x2="256.3915432335724" y1="0.5" y2="30"/><line opacity="0.2" x1="221.43137811562008" x2="221.43137811562008" y1="0.5" y2="30"/><line opacity="0.2" x1="392.26437466807226" x2="392.26437466807226" y1="0.5" y2="30"/><line opacity="0.2" x1="247.2026567046967" x2="247.2026567046967" y1="0.5" y2="30"/><line opacity="0.2" x1="273.79015200278707" x2="273.79015200278707" y1="0.5" y2="30"/><line opacity="0.2" x1="447.43639632145823" x2="447.43639632145823" y1="0.5" y2="30"/><line opacity="0.2" x1="209.67882298669966" x2="209.67882298669966" y1="0.5" y2="30"/><line opacity="0.2" x1="286.24447700367546" x2="286.24447700367546" y1="0.5" y2="30"/><line opacity="0.2" x1="160.67789265363524" x2="160.67789265363524" y1="0.5" y2="30"/><line opacity="0.2" x1="479.44841941691925" x2="479.44841941691925" y1="0.5" y2="30"/><line opacity="0.2" x1="279.4846278452611" x2="279.4846278452611" y1="0.5" y2="30"/><line opacity="0.2" x1="439.526718852662" x2="439.526718852662" y1="0.5" y2="30"/><line opacity="0.2" x1="381.4244049286723" x2="381.4244049286723" y1="0.5" y2="30"/><line opacity="0.2" x1="389.8808369446581" x2="389.8808369446581" y1="0.5" y2="30"/><line opacity="0.2" x1="216.138821851436" x2="216.138821851436" y1="0.5" y2="30"/><line opacity="0.2" x1="319.55716364271257" x2="319.55716364271257" y1="0.5" y2="30"/><line opacity="0.2" x1="261.243611920562" x2="261.243611920562" y1="0.5" y2="30"/><line opacity="0.2" x1="120.70779229728652" x2="120.70779229728652" y1="0.5" y2="30"/><line opacity="0.2" x1="206.5619035829187" x2="206.5619035829187" y1="0.5" y2="30"/><line opacity="0.2" x1="424.951403970618" x2="424.951403970618" y1="0.5" y2="30"/><line opacity="0.2" x1="421.5660842981563" x2="421.5660842981563" y1="0.5" y2="30"/><line opacity="0.2" x1="389.33345818915603" x2="389.33345818915603" y1="0.5" y2="30"/><line opacity="0.2" x1="225.81599526169109" x2="225.81599526169109" y1="0.5" y2="30"/><line opacity="0.2" x1="320.3208655205367" x2="320.3208655205367" y1="0.5" y2="30"/><line opacity="0.2" x1="373.4228053084048" x2="373.4228053084048" y1="0.5" y2="30"/><line opacity="0.2" x1="121.6364356399524" x2="121.6364356399524" y1="0.5" y2="30"/><line opacity="0.2" x1="389.92945143655845" x2="389.92945143655845" y1="0.5" y2="30"/><line opacity="0.2" x1="265.485736307021" x2="265.485736307021" y1="0.5" y2="30"/><line opacity="0.2" x1="306.7255922496948" x2="306.7255922496948" y1="0.5" y2="30"/><line opacity="0.2" x1="199.64778499125833" x2="199.64778499125833" y1="0.5" y2="30"/><line opacity="0.2" x1="241.3856232030073" x2="241.3856232030073" y1="0.5" y2="30"/><line opacity="0.2" x1="244.09023531912607" x2="244.09023531912607" y1="0.5" y2="30"/><line opacity="0.2" x1="386.060000757175" x2="386.060000757175" y1="0.5" y2="30"/><line opacity="0.2" x1="483.78603104855506" x2="483.78603104855506" y1="0.5" y2="30"/><line opacity="0.2" x1="231.35568253302242" x2="231.35568253302242" y1="0.5" y2="30"/><line opacity="0.2" x1="223.20866873809996" x2="223.20866873809996" y1="0.5" y2="30"/><line opacity="0.2" x1="369.5843174870845" x2="369.5843174870845" y1="0.5" y2="30"/><line opacity="0.2" x1="325.2921379143678" x2="325.2921379143678" y1="0.5" y2="30"/><line opacity="0.2" x1="334.36800480997323" x2="334.36800480997323" y1="0.5" y2="30"/><line opacity="0.2" x1="216.84535800118164" x2="216.84535800118164" y1="0.5" y2="30"/><line opacity="0.2" x1="358.88824918418453" x2="358.88824918418453" y1="0.5" y2="30"/><line opacity="0.2" x1="286.96005982037343" x2="286.96005982037343" y1="0.5" y2="30"/><line opacity="0.2" x1="206.9268178915261" x2="206.9268178915261" y1="0.5" y2="30"/><line opacity="0.2" x1="293.02236804530634" x2="293.02236804530634" y1="0.5" y2="30"/><line opacity="0.2" x1="366.8540024818544" x2="366.8540024818544" y1="0.5" y2="30"/><line opacity="0.2" x1="360.1549138847057" x2="360.1549138847057" y1="0.5" y2="30"/><line opacity="0.2" x1="294.24938062719565" x2="294.24938062719565" y1="0.5" y2="30"/><line opacity="0.2" x1="420.87874728520484" x2="420.87874728520484" y1="0.5" y2="30"/><line opacity="0.2" x1="326.212799984502" x2="326.212799984502" y1="0.5" y2="30"/><line opacity="0.2" x1="217.76125442540754" x2="217.76125442540754" y1="0.5" y2="30"/><line opacity="0.2" x1="178.57958295371898" x2="178.57958295371898" y1="0.5" y2="30"/><line opacity="0.2" x1="259.08087139243526" x2="259.08087139243526" y1="0.5" y2="30"/><line opacity="0.2" x1="127.96847192700082" x2="127.96847192700082" y1="0.5" y2="30"/><line opacity="0.2" x1="311.9128867033231" x2="311.9128867033231" y1="0.5" y2="30"/><line opacity="0.2" x1="244.38459331704465" x2="244.38459331704465" y1="0.5" y2="30"/><line opacity="0.2" x1="333.3251030258776" x2="333.3251030258776" y1="0.5" y2="30"/><line opacity="0.2" x1="297.5606661416328" x2="297.5606661416328" y1="0.5" y2="30"/><line opacity="0.2" x1="319.9386965865658" x2="319.9386965865658" y1="0.5" y2="30"/><line opacity="0.2" x1="360.051073550481" x2="360.051073550481" y1="0.5" y2="30"/><line opacity="0.2" x1="227.40645214508265" x2="227.40645214508265" y1="0.5" y2="30"/><line opacity="0.2" x1="435.0131187332019" x2="435.0131187332019" y1="0.5" y2="30"/><line opacity="0.2" x1="426.018815855948" x2="426.018815855948" y1="0.5" y2="30"/><line opacity="0.2" x1="385.7414874167458" x2="385.7414874167458" y1="0.5" y2="30"/><line opacity="0.2" x1="188.77746221807325" x2="188.77746221807325" y1="0.5" y2="30"/><line opacity="0.2" x1="219.27824584043304" x2="219.27824584043304" y1="0.5" y2="30"/><line opacity="0.2" x1="384.1280634965251" x2="384.1280634965251" y1="0.5" y2="30"/><line opacity="0.2" x1="124.69649393428466" x2="124.69649393428466" y1="0.5" y2="30"/><line opacity="0.2" x1="474.3419463317039" x2="474.3419463317039" y1="0.5" y2="30"/><line opacity="0.2" x1="321.8960927617087" x2="321.8960927617087" y1="0.5" y2="30"/><line opacity="0.2" x1="419.97864373784205" x2="419.97864373784205" y1="0.5" y2="30"/><line opacity="0.2" x1="215.80522834583337" x2="215.80522834583337" y1="0.5" y2="30"/><line opacity="0.2" x1="357.7783427925008" x2="357.7783427925008" y1="0.5" y2="30"/><line opacity="0.2" x1="330.13248246498875" x2="330.13248246498875" y1="0.5" y2="30"/><line opacity="0.2" x1="216.13299960907352" x2="216.13299960907352" y1="0.5" y2="30"/><line opacity="0.2" x1="357.10334925168127" x2="357.10334925168127" y1="0.5" y2="30"/><line opacity="0.2" x1="344.2491471955134" x2="344.2491471955134" y1="0.5" y2="30"/><line opacity="0.2" x1="206.72862320805356" x2="206.72862320805356" y1="0.5" y2="30"/><line opacity="0.2" x1="227.64889817192287" x2="227.64889817192287" y1="0.5" y2="30"/><line opacity="0.2" x1="291.1336263691742" x2="291.1336263691742" y1="0.5" y2="30"/><line opacity="0.2" x1="301.97744469009973" x2="301.97744469009973" y1="0.5" y2="30"/><line opacity="0.2" x1="251.3436066211452" x2="251.3436066211452" y1="0.5" y2="30"/><line opacity="0.2" x1="272.37225333505165" x2="272.37225333505165" y1="0.5" y2="30"/><line opacity="0.2" x1="72.64548668133835" x2="72.64548668133835" y1="0.5" y2="30"/><line opacity="0.2" x1="395.117651421771" x2="395.117651421771" y1="0.5" y2="30"/><line opacity="0.2" x1="321.38319428017365" x2="321.38319428017365" y1="0.5" y2="30"/><line opacity="0.2" x1="399.5838639318731" x2="399.5838639318731" y1="0.5" y2="30"/><line opacity="0.2" x1="393.5458993832017" x2="393.5458993832017" y1="0.5" y2="30"/><line opacity="0.2" x1="342.3884723860494" x2="342.3884723860494" y1="0.5" y2="30"/><line opacity="0.2" x1="133.58853880124076" x2="133.58853880124076" y1="0.5" y2="30"/><line opacity="0.2" x1="306.7874475199992" x2="306.7874475199992" y1="0.5" y2="30"/><line opacity="0.2" x1="338.9268736327901" x2="338.9268736327901" y1="0.5" y2="30"/><line opacity="0.2" x1="157.12425093483847" x2="157.12425093483847" y1="0.5" y2="30"/><line opacity="0.2" x1="428.8179339233801" x2="428.8179339233801" y1="0.5" y2="30"/><line opacity="0.2" x1="228.25198657161025" x2="228.25198657161025" y1="0.5" y2="30"/><line opacity="0.2" x1="259.32010628160486" x2="259.32010628160486" y1="0.5" y2="30"/><line opacity="0.2" x1="294.6601792391149" x2="294.6601792391149" y1="0.5" y2="30"/><line opacity="0.2" x1="303.96377961690035" x2="303.96377961690035" y1="0.5" y2="30"/><line opacity="0.2" x1="275.2812608884918" x2="275.2812608884918" y1="0.5" y2="30"/><line opacity="0.2" x1="340.1622160327234" x2="340.1622160327234" y1="0.5" y2="30"/><line opacity="0.2" x1="274.03215758524686" x2="274.03215758524686" y1="0.5" y2="30"/><line opacity="0.2" x1="366.2032007902646" x2="366.2032007902646" y1="0.5" y2="30"/><line opacity="0.2" x1="403.26130759673293" x2="403.26130759673293" y1="0.5" y2="30"/><line opacity="0.2" x1="401.00579458490716" x2="401.00579458490716" y1="0.5" y2="30"/><line opacity="0.2" x1="370.19545672216066" x2="370.19545672216066" y1="0.5" y2="30"/><line opacity="0.2" x1="415.9686472760413" x2="415.9686472760413" y1="0.5" y2="30"/><line opacity="0.2" x1="473.57071209095113" x2="473.57071209095113" y1="0.5" y2="30"/><line opacity="0.2" x1="268.61874249366366" x2="268.61874249366366" y1="0.5" y2="30"/><line opacity="0.2" x1="195.77247892767002" x2="195.77247892767002" y1="0.5" y2="30"/><line opacity="0.2" x1="205.10655188083197" x2="205.10655188083197" y1="0.5" y2="30"/><line opacity="0.2" x1="343.72669734908874" x2="343.72669734908874" y1="0.5" y2="30"/><line opacity="0.2" x1="265.61024250878944" x2="265.61024250878944" y1="0.5" y2="30"/><line opacity="0.2" x1="582.41915836083" x2="582.41915836083" y1="0.5" y2="30"/><line opacity="0.2" x1="297.7285993872898" x2="297.7285993872898" y1="0.5" y2="30"/><line opacity="0.2" x1="274.6266624274163" x2="274.6266624274163" y1="0.5" y2="30"/><line opacity="0.2" x1="304.7558489230639" x2="304.7558489230639" y1="0.5" y2="30"/><line opacity="0.2" x1="194.30513847554167" x2="194.30513847554167" y1="0.5" y2="30"/><line opacity="0.2" x1="389.35794420116827" x2="389.35794420116827" y1="0.5" y2="30"/><line opacity="0.2" x1="335.2055496430607" x2="335.2055496430607" y1="0.5" y2="30"/><line opacity="0.2" x1="320.33819978182925" x2="320.33819978182925" y1="0.5" y2="30"/><line opacity="0.2" x1="113.70544316494784" x2="113.70544316494784" y1="0.5" y2="30"/><line opacity="0.2" x1="237.4241105715691" x2="237.4241105715691" y1="0.5" y2="30"/><line opacity="0.2" x1="366.76613610826365" x2="366.76613610826365" y1="0.5" y2="30"/><line opacity="0.2" x1="321.936484008761" x2="321.936484008761" y1="0.5" y2="30"/><line opacity="0.2" x1="445.68873918431706" x2="445.68873918431706" y1="0.5" y2="30"/><line opacity="0.2" x1="424.8427346835113" x2="424.8427346835113" y1="0.5" y2="30"/><line opacity="0.2" x1="20" x2="20" y1="0.5" y2="30"/><line opacity="0.2" x1="230.24185735122148" x2="230.24185735122148" y1="0.5" y2="30"/><line opacity="0.2" x1="404.709275383126" x2="404.709275383126" y1="0.5" y2="30"/><line opacity="0.2" x1="289.3752664415396" x2="289.3752664415396" y1="0.5" y2="30"/><line opacity="0.2" x1="295.7131560014432" x2="295.7131560014432" y1="0.5" y2="30"/><line opacity="0.2" x1="407.5810781398757" x2="407.5810781398757" y1="0.5" y2="30"/><line opacity="0.2" x1="277.4873538188277" x2="277.4873538188277" y1="0.5" y2="30"/><line opacity="0.2" x1="411.24697844643435" x2="411.24697844643435" y1="0.5" y2="30"/><line opacity="0.2" x1="298.7049891221207" x2="298.7049891221207" y1="0.5" y2="30"/><line opacity="0.2" x1="296.0640153126189" x2="296.0640153126189" y1="0.5" y2="30"/><line opacity="0.2" x1="201.5503668899131" x2="201.5503668899131" y1="0.5" y2="30"/><line opacity="0.2" x1="352.6828394339433" x2="352.6828394339433" y1="0.5" y2="30"/><line opacity="0.2" x1="343.08938016110216" x2="343.08938016110216" y1="0.5" y2="30"/><line opacity="0.2" x1="398.19825334715557" x2="398.19825334715557" y1="0.5" y2="30"/><line opacity="0.2" x1="122.82345821830121" x2="122.82345821830121" y1="0.5" y2="30"/><line opacity="0.2" x1="373.0149028929294" x2="373.0149028929294" y1="0.5" y2="30"/><line opacity="0.2" x1="413.76409098445896" x2="413.76409098445896" y1="0.5" y2="30"/><line opacity="0.2" x1="218.2120674681991" x2="218.2120674681991" y1="0.5" y2="30"/><line opacity="0.2" x1="533.3266440942285" x2="533.3266440942285" y1="0.5" y2="30"/><line opacity="0.2" x1="498.2419745489238" x2="498.2419745489238" y1="0.5" y2="30"/><line opacity="0.2" x1="390.47822867655117" x2="390.47822867655117" y1="0.5" y2="30"/><line opacity="0.2" x1="400.97498511007467" x2="400.97498511007467" y1="0.5" y2="30"/><line opacity="0.2" x1="246.8560679109964" x2="246.8560679109964" y1="0.5" y2="30"/><line opacity="0.2" x1="403.554309305563" x2="403.554309305563" y1="0.5" y2="30"/><line opacity="0.2" x1="241.59876067439114" x2="241.59876067439114" y1="0.5" y2="30"/><line opacity="0.2" x1="221.38195672685228" x2="221.38195672685228" y1="0.5" y2="30"/><line opacity="0.2" x1="258.82102935193416" x2="258.82102935193416" y1="0.5" y2="30"/><line opacity="0.2" x1="260.3053510288376" x2="260.3053510288376" y1="0.5" y2="30"/><line opacity="0.2" x1="380.2754531471481" x2="380.2754531471481" y1="0.5" y2="30"/><line opacity="0.2" x1="366.20471554436" x2="366.20471554436" y1="0.5" y2="30"/><line opacity="0.2" x1="340.59694877932094" x2="340.59694877932094" y1="0.5" y2="30"/><line opacity="0.2" x1="225.53972053796045" x2="225.53972053796045" y1="0.5" y2="30"/><line opacity="0.2" x1="342.19308060761466" x2="342.19308060761466" y1="0.5" y2="30"/><line opacity="0.2" x1="137.95704772592185" x2="137.95704772592185" y1="0.5" y2="30"/><line opacity="0.2" x1="271.5691798316276" x2="271.5691798316276" y1="0.5" y2="30"/><line opacity="0.2" x1="219.31969398994144" x2="219.31969398994144" y1="0.5" y2="30"/><line opacity="0.2" x1="425.6983261919458" x2="425.6983261919458" y1="0.5" y2="30"/><line opacity="0.2" x1="297.3158069644135" x2="297.3158069644135" y1="0.5" y2="30"/><line opacity="0.2" x1="247.65489354765464" x2="247.65489354765464" y1="0.5" y2="30"/><line opacity="0.2" x1="218.12892590941922" x2="218.12892590941922" y1="0.5" y2="30"/><line opacity="0.2" x1="275.1338886141496" x2="275.1338886141496" y1="0.5" y2="30"/><line opacity="0.2" x1="277.2192035094062" x2="277.2192035094062" y1="0.5" y2="30"/><line opacity="0.2" x1="328.5843023160243" x2="328.5843023160243" y1="0.5" y2="30"/><line opacity="0.2" x1="385.400939988693" x2="385.400939988693" y1="0.5" y2="30"/><line opacity="0.2" x1="361.9716367310675" x2="361.9716367310675" y1="0.5" y2="30"/><line opacity="0.2" x1="25.678617068599564" x2="25.678617068599564" y1="0.5" y2="30"/><line opacity="0.2" x1="396.8257422684939" x2="396.8257422684939" y1="0.5" y2="30"/><line opacity="0.2" x1="243.6427498467661" x2="243.6427498467661" y1="0.5" y2="30"/><line opacity="0.2" x1="320.0525150656058" x2="320.0525150656058" y1="0.5" y2="30"/><line opacity="0.2" x1="159.15404487402964" x2="159.15404487402964" y1="0.5" y2="30"/><line opacity="0.2" x1="208.59594770271573" x2="208.59594770271573" y1="0.5" y2="30"/><line opacity="0.2" x1="215.19014063047433" x2="215.19014063047433" y1="0.5" y2="30"/><line opacity="0.2" x1="182.88257999200138" x2="182.88257999200138" y1="0.5" y2="30"/><line opacity="0.2" x1="392.76075134086153" x2="392.76075134086153" y1="0.5" y2="30"/><line opacity="0.2" x1="332.3560248329414" x2="332.3560248329414" y1="0.5" y2="30"/><line opacity="0.2" x1="376.44651276586717" x2="376.44651276586717" y1="0.5" y2="30"/><line opacity="0.2" x1="419.4831333596699" x2="419.4831333596699" y1="0.5" y2="30"/><line opacity="0.2" x1="353.1200319915325" x2="353.1200319915325" y1="0.5" y2="30"/><line opacity="0.2" x1="525.6828894768574" x2="525.6828894768574" y1="0.5" y2="30"/><line opacity="0.2" x1="239.94391223001602" x2="239.94391223001602" y1="0.5" y2="30"/><line opacity="0.2" x1="441.4529584677325" x2="441.4529584677325" y1="0.5" y2="30"/><line opacity="0.2" x1="275.1588875849765" x2="275.1588875849765" y1="0.5" y2="30"/><line opacity="0.2" x1="341.14785092263867" x2="341.14785092263867" y1="0.5" y2="30"/><line opacity="0.2" x1="207.44949851428333" x2="207.44949851428333" y1="0.5" y2="30"/><line opacity="0.2" x1="185.22063063410724" x2="185.22063063410724" y1="0.5" y2="30"/><line opacity="0.2" x1="430.3587734177139" x2="430.3587734177139" y1="0.5" y2="30"/><line opacity="0.2" x1="377.14163504894174" x2="377.14163504894174" y1="0.5" y2="30"/><line opacity="0.2" x1="350.30073122998533" x2="350.30073122998533" y1="0.5" y2="30"/><line opacity="0.2" x1="374.28625377773875" x2="374.28625377773875" y1="0.5" y2="30"/><line opacity="0.2" x1="496.1725799245812" x2="496.1725799245812" y1="0.5" y2="30"/><line opacity="0.2" x1="350.6413161340294" x2="350.6413161340294" y1="0.5" y2="30"/><line opacity="0.2" x1="320.1759001317106" x2="320.1759001317106" y1="0.5" y2="30"/><line opacity="0.2" x1="359.38131265180476" x2="359.38131265180476" y1="0.5" y2="30"/><line opacity="0.2" x1="235.8638576368903" x2="235.8638576368903" y1="0.5" y2="30"/><line opacity="0.2" x1="370.62354421484883" x2="370.62354421484883" y1="0.5" y2="30"/><line opacity="0.2" x1="282.68473317279387" x2="282.68473317279387" y1="0.5" y2="30"/><line opacity="0.2" x1="350.75227474298487" x2="350.75227474298487" y1="0.5" y2="30"/><line opacity="0.2" x1="263.5577853445911" x2="263.5577853445911" y1="0.5" y2="30"/><line opacity="0.2" x1="212.2435519995829" x2="212.2435519995829" y1="0.5" y2="30"/><line opacity="0.2" x1="460.0951253557918" x2="460.0951253557918" y1="0.5" y2="30"/><line opacity="0.2" x1="266.7359749905152" x2="266.7359749905152" y1="0.5" y2="30"/><line opacity="0.2" x1="275.15416358037606" x2="275.15416358037606" y1="0.5" y2="30"/><line opacity="0.2" x1="179.85043064491035" x2="179.85043064491035" y1="0.5" y2="30"/><line opacity="0.2" x1="370.2710076371512" x2="370.2710076371512" y1="0.5" y2="30"/><line opacity="0.2" x1="366.74622003661716" x2="366.74622003661716" y1="0.5" y2="30"/><line opacity="0.2" x1="313.465047017737" x2="313.465047017737" y1="0.5" y2="30"/><line opacity="0.2" x1="406.5899085587513" x2="406.5899085587513" y1="0.5" y2="30"/><line opacity="0.2" x1="325.02830278398113" x2="325.02830278398113" y1="0.5" y2="30"/><line opacity="0.2" x1="400.06509556870907" x2="400.06509556870907" y1="0.5" y2="30"/><line opacity="0.2" x1="288.01305609056925" x2="288.01305609056925" y1="0.5" y2="30"/><line opacity="0.2" x1="298.9570448413168" x2="298.9570448413168" y1="0.5" y2="30"/><line opacity="0.2" x1="295.11653190089663" x2="295.11653190089663" y1="0.5" y2="30"/><line opacity="0.2" x1="313.6060079230865" x2="313.6060079230865" y1="0.5" y2="30"/><line opacity="0.2" x1="271.42513606682405" x2="271.42513606682405" y1="0.5" y2="30"/><line opacity="0.2" x1="402.9409801169688" x2="402.9409801169688" y1="0.5" y2="30"/><line opacity="0.2" x1="322.24543579053085" x2="322.24543579053085" y1="0.5" y2="30"/><line opacity="0.2" x1="205.99679379637598" x2="205.99679379637598" y1="0.5" y2="30"/><line opacity="0.2" x1="239.61972768712005" x2="239.61972768712005" y1="0.5" y2="30"/><line opacity="0.2" x1="298.7593270902098" x2="298.7593270902098" y1="0.5" y2="30"/><line opacity="0.2" x1="328.9900374602491" x2="328.9900374602491" y1="0.5" y2="30"/><line opacity="0.2" x1="386.6601119565713" x2="386.6601119565713" y1="0.5" y2="30"/><line opacity="0.2" x1="199.70880085780982" x2="199.70880085780982" y1="0.5" y2="30"/><line opacity="0.2" x1="399.7898964687353" x2="399.7898964687353" y1="0.5" y2="30"/><line opacity="0.2" x1="318.79585325983896" x2="318.79585325983896" y1="0.5" y2="30"/><line opacity="0.2" x1="213.19465830716848" x2="213.19465830716848" y1="0.5" y2="30"/><line opacity="0.2" x1="339.16710804859173" x2="339.16710804859173" y1="0.5" y2="30"/><line opacity="0.2" x1="239.93118538192894" x2="239.93118538192894" y1="0.5" y2="30"/><line opacity="0.2" x1="337.7075367557613" x2="337.7075367557613" y1="0.5" y2="30"/><line opacity="0.2" x1="350.8661875474709" x2="350.8661875474709" y1="0.5" y2="30"/><line opacity="0.2" x1="289.114517955539" x2="289.114517955539" y1="0.5" y2="30"/><line opacity="0.2" x1="220.32659359856314" x2="220.32659359856314" y1="0.5" y2="30"/><line opacity="0.2" x1="593.8160516680082" x2="593.8160516680082" y1="0.5" y2="30"/><line opacity="0.2" x1="227.88744739569663" x2="227.88744739569663" y1="0.5" y2="30"/><line opacity="0.2" x1="364.5946209998027" x2="364.5946209998027" y1="0.5" y2="30"/><line opacity="0.2" x1="193.10182842616803" x2="193.10182842616803" y1="0.5" y2="30"/><line opacity="0.2" x1="198.37232201254395" x2="198.37232201254395" y1="0.5" y2="30"/><line opacity="0.2" x1="371.0922034006109" x2="371.0922034006109" y1="0.5" y2="30"/><line opacity="0.2" x1="500.6973269864532" x2="500.6973269864532" y1="0.5" y2="30"/><line opacity="0.2" x1="168.33112331509685" x2="168.33112331509685" y1="0.5" y2="30"/><line opacity="0.2" x1="436.86505748668867" x2="436.86505748668867" y1="0.5" y2="30"/><line opacity="0.2" x1="419.9550325163049" x2="419.9550325163049" y1="0.5" y2="30"/><line opacity="0.2" x1="94.48474740769812" x2="94.48474740769812" y1="0.5" y2="30"/><line opacity="0.2" x1="329.40341295481875" x2="329.40341295481875" y1="0.5" y2="30"/><line opacity="0.2" x1="274.42531698234643" x2="274.42531698234643" y1="0.5" y2="30"/><line opacity="0.2" x1="368.8767613205193" x2="368.8767613205193" y1="0.5" y2="30"/><line opacity="0.2" x1="367.17059322999864" x2="367.17059322999864" y1="0.5" y2="30"/><line opacity="0.2" x1="252.29786905023923" x2="252.29786905023923" y1="0.5" y2="30"/><line opacity="0.2" x1="411.3484297358431" x2="411.3484297358431" y1="0.5" y2="30"/><line opacity="0.2" x1="316.58142987520637" x2="316.58142987520637" y1="0.5" y2="30"/><line opacity="0.2" x1="294.3306133408983" x2="294.3306133408983" y1="0.5" y2="30"/><line opacity="0.2" x1="448.1210627132349" x2="448.1210627132349" y1="0.5" y2="30"/><line opacity="0.2" x1="397.49717042032324" x2="397.49717042032324" y1="0.5" y2="30"/><line opacity="0.2" x1="347.58265175161125" x2="347.58265175161125" y1="0.5" y2="30"/><line opacity="0.2" x1="258.0286526867879" x2="258.0286526867879" y1="0.5" y2="30"/><line opacity="0.2" x1="173.51153176704406" x2="173.51153176704406" y1="0.5" y2="30"/><line opacity="0.2" x1="346.0487010198846" x2="346.0487010198846" y1="0.5" y2="30"/><line opacity="0.2" x1="323.6239140550615" x2="323.6239140550615" y1="0.5" y2="30"/><line opacity="0.2" x1="217.0750854209142" x2="217.0750854209142" y1="0.5" y2="30"/><line opacity="0.2" x1="384.3466808610745" x2="384.3466808610745" y1="0.5" y2="30"/><line opacity="0.2" x1="396.96047457057443" x2="396.96047457057443" y1="0.5" y2="30"/><line opacity="0.2" x1="356.49768289197425" x2="356.49768289197425" y1="0.5" y2="30"/><line opacity="0.2" x1="356.9943002136832" x2="356.9943002136832" y1="0.5" y2="30"/><line opacity="0.2" x1="287.6849188442455" x2="287.6849188442455" y1="0.5" y2="30"/><line opacity="0.2" x1="188.8697399708458" x2="188.8697399708458" y1="0.5" y2="30"/><line opacity="0.2" x1="331.6378205260724" x2="331.6378205260724" y1="0.5" y2="30"/><line opacity="0.2" x1="416.98510808044614" x2="416.98510808044614" y1="0.5" y2="30"/><line opacity="0.2" x1="244.28522101509614" x2="244.28522101509614" y1="0.5" y2="30"/><line opacity="0.2" x1="472.33414256274824" x2="472.33414256274824" y1="0.5" y2="30"/><line opacity="0.2" x1="305.0117725982319" x2="305.0117725982319" y1="0.5" y2="30"/><line opacity="0.2" x1="328.5642032696174" x2="328.5642032696174" y1="0.5" y2="30"/><line opacity="0.2" x1="395.67175440053836" x2="395.67175440053836" y1="0.5" y2="30"/><line opacity="0.2" x1="140.484739042128" x2="140.484739042128" y1="0.5" y2="30"/><line opacity="0.2" x1="499.4443744457549" x2="499.4443744457549" y1="0.5" y2="30"/><line opacity="0.2" x1="346.1703950876229" x2="346.1703950876229" y1="0.5" y2="30"/><line opacity="0.2" x1="265.5139956256698" x2="265.5139956256698" y1="0.5" y2="30"/><line opacity="0.2" x1="353.5477548368877" x2="353.5477548368877" y1="0.5" y2="30"/><line opacity="0.2" x1="349.24290174564743" x2="349.24290174564743" y1="0.5" y2="30"/><line opacity="0.2" x1="314.171903114188" x2="314.171903114188" y1="0.5" y2="30"/><line opacity="0.2" x1="359.6239574953774" x2="359.6239574953774" y1="0.5" y2="30"/><line opacity="0.2" x1="395.7937847514443" x2="395.7937847514443" y1="0.5" y2="30"/><line opacity="0.2" x1="446.7200777311495" x2="446.7200777311495" y1="0.5" y2="30"/><line opacity="0.2" x1="262.1705133970397" x2="262.1705133970397" y1="0.5" y2="30"/><line opacity="0.2" x1="401.04871721264396" x2="401.04871721264396" y1="0.5" y2="30"/><line opacity="0.2" x1="296.6127217497083" x2="296.6127217497083" y1="0.5" y2="30"/><line opacity="0.2" x1="293.6936979744675" x2="293.6936979744675" y1="0.5" y2="30"/><line opacity="0.2" x1="120.73790435725344" x2="120.73790435725344" y1="0.5" y2="30"/><line opacity="0.2" x1="344.1455282524512" x2="344.1455282524512" y1="0.5" y2="30"/><line opacity="0.2" x1="298.5661075549621" x2="298.5661075549621" y1="0.5" y2="30"/><line opacity="0.2" x1="265.7700658168066" x2="265.7700658168066" y1="0.5" y2="30"/><line opacity="0.2" x1="264.7039326263131" x2="264.7039326263131" y1="0.5" y2="30"/><line opacity="0.2" x1="416.85826939736944" x2="416.85826939736944" y1="0.5" y2="30"/><line opacity="0.2" x1="354.280764510576" x2="354.280764510576" y1="0.5" y2="30"/><line opacity="0.2" x1="326.14085898162386" x2="326.14085898162386" y1="0.5" y2="30"/><line opacity="0.2" x1="243.49065899045513" x2="243.49065899045513" y1="0.5" y2="30"/><line opacity="0.2" x1="404.6473642513511" x2="404.6473642513511" y1="0.5" y2="30"/><line opacity="0.2" x1="277.2623708723731" x2="277.2623708723731" y1="0.5" y2="30"/><line opacity="0.2" x1="206.21582354858378" x2="206.21582354858378" y1="0.5" y2="30"/><line opacity="0.2" x1="346.025954457686" x2="346.025954457686" y1="0.5" y2="30"/><line opacity="0.2" x1="253.44550580930547" x2="253.44550580930547" y1="0.5" y2="30"/><line opacity="0.2" x1="468.030834099858" x2="468.030834099858" y1="0.5" y2="30"/><line opacity="0.2" x1="396.54474365302036" x2="396.54474365302036" y1="0.5" y2="30"/><line opacity="0.2" x1="299.55819711987976" x2="299.55819711987976" y1="0.5" y2="30"/><line opacity="0.2" x1="287.138762762785" x2="287.138762762785" y1="0.5" y2="30"/><line opacity="0.2" x1="407.6973438044172" x2="407.6973438044172" y1="0.5" y2="30"/><line opacity="0.2" x1="371.20224532840643" x2="371.20224532840643" y1="0.5" y2="30"/><line opacity="0.2" x1="307.9696565843132" x2="307.9696565843132" y1="0.5" y2="30"/><line opacity="0.2" x1="229.62878259517495" x2="229.62878259517495" y1="0.5" y2="30"/><line opacity="0.2" x1="131.51346004950798" x2="131.51346004950798" y1="0.5" y2="30"/><line opacity="0.2" x1="211.9677597493486" x2="211.9677597493486" y1="0.5" y2="30"/><line opacity="0.2" x1="349.70879213358023" x2="349.70879213358023" y1="0.5" y2="30"/><line opacity="0.2" x1="305.3737181727324" x2="305.3737181727324" y1="0.5" y2="30"/><line opacity="0.2" x1="398.3348634734608" x2="398.3348634734608" y1="0.5" y2="30"/><line opacity="0.2" x1="228.5102120979283" x2="228.5102120979283" y1="0.5" y2="30"/><line opacity="0.2" x1="383.2943325274088" x2="383.2943325274088" y1="0.5" y2="30"/><line opacity="0.2" x1="263.96350880645093" x2="263.96350880645093" y1="0.5" y2="30"/><line opacity="0.2" x1="443.654257880351" x2="443.654257880351" y1="0.5" y2="30"/><line opacity="0.2" x1="262.92528225761214" x2="262.92528225761214" y1="0.5" y2="30"/><line opacity="0.2" x1="241.63362965383948" x2="241.63362965383948" y1="0.5" y2="30"/><line opacity="0.2" x1="350.95437183366784" x2="350.95437183366784" y1="0.5" y2="30"/><line opacity="0.2" x1="317.9837615721293" x2="317.9837615721293" y1="0.5" y2="30"/><line opacity="0.2" x1="372.7456327128953" x2="372.7456327128953" y1="0.5" y2="30"/><line opacity="0.2" x1="183.01593954126537" x2="183.01593954126537" y1="0.5" y2="30"/><line opacity="0.2" x1="361.7803351961239" x2="361.7803351961239" y1="0.5" y2="30"/><line opacity="0.2" x1="439.8938320531311" x2="439.8938320531311" y1="0.5" y2="30"/><line opacity="0.2" x1="320.3034261019295" x2="320.3034261019295" y1="0.5" y2="30"/><line opacity="0.2" x1="303.4690259786151" x2="303.4690259786151" y1="0.5" y2="30"/><line opacity="0.2" x1="313.34404592784057" x2="313.34404592784057" y1="0.5" y2="30"/><line opacity="0.2" x1="389.9353984725708" x2="389.9353984725708" y1="0.5" y2="30"/><line opacity="0.2" x1="140.49725206362382" x2="140.49725206362382" y1="0.5" y2="30"/><line opacity="0.2" x1="268.52689435032295" x2="268.52689435032295" y1="0.5" y2="30"/><line opacity="0.2" x1="409.16655244923464" x2="409.16655244923464" y1="0.5" y2="30"/><line opacity="0.2" x1="310.251264646379" x2="310.251264646379" y1="0.5" y2="30"/><line opacity="0.2" x1="445.0373535005779" x2="445.0373535005779" y1="0.5" y2="30"/><line opacity="0.2" x1="202.20358198807418" x2="202.20358198807418" y1="0.5" y2="30"/><line opacity="0.2" x1="245.36329318995277" x2="245.36329318995277" y1="0.5" y2="30"/><line opacity="0.2" x1="345.99526533202385" x2="345.99526533202385" y1="0.5" y2="30"/><line opacity="0.2" x1="308.86334115743045" x2="308.86334115743045" y1="0.5" y2="30"/><line opacity="0.2" x1="250.47508811926772" x2="250.47508811926772" y1="0.5" y2="30"/><line opacity="0.2" x1="462.97578457171977" x2="462.97578457171977" y1="0.5" y2="30"/><line opacity="0.2" x1="286.42035041382985" x2="286.42035041382985" y1="0.5" y2="30"/><line opacity="0.2" x1="312.24155704316627" x2="312.24155704316627" y1="0.5" y2="30"/><line opacity="0.2" x1="324.03920475631685" x2="324.03920475631685" y1="0.5" y2="30"/><line opacity="0.2" x1="405.88897757454" x2="405.88897757454" y1="0.5" y2="30"/><line opacity="0.2" x1="310.83526443098174" x2="310.83526443098174" y1="0.5" y2="30"/><line opacity="0.2" x1="121.38887568055053" x2="121.38887568055053" y1="0.5" y2="30"/><line opacity="0.2" x1="412.91446530848884" x2="412.91446530848884" y1="0.5" y2="30"/><line opacity="0.2" x1="245.3538044207634" x2="245.3538044207634" y1="0.5" y2="30"/><line opacity="0.2" x1="455.2606490486348" x2="455.2606490486348" y1="0.5" y2="30"/><line opacity="0.2" x1="191.5401882868546" x2="191.5401882868546" y1="0.5" y2="30"/><line opacity="0.2" x1="261.1895649877275" x2="261.1895649877275" y1="0.5" y2="30"/><line opacity="0.2" x1="311.7312826346999" x2="311.7312826346999" y1="0.5" y2="30"/><line opacity="0.2" x1="285.20071484592586" x2="285.20071484592586" y1="0.5" y2="30"/><line opacity="0.2" x1="353.1803919924554" x2="353.1803919924554" y1="0.5" y2="30"/><line opacity="0.2" x1="333.7812419717482" x2="333.7812419717482" y1="0.5" y2="30"/><line opacity="0.2" x1="450.44884308063837" x2="450.44884308063837" y1="0.5" y2="30"/><line opacity="0.2" x1="195.0044012556209" x2="195.0044012556209" y1="0.5" y2="30"/><line opacity="0.2" x1="329.65378934065603" x2="329.65378934065603" y1="0.5" y2="30"/><line opacity="0.2" x1="357.2334690345664" x2="357.2334690345664" y1="0.5" y2="30"/><line opacity="0.2" x1="306.9540774343881" x2="306.9540774343881" y1="0.5" y2="30"/><line opacity="0.2" x1="373.74689775190745" x2="373.74689775190745" y1="0.5" y2="30"/><line opacity="0.2" x1="391.09060142230453" x2="391.09060142230453" y1="0.5" y2="30"/><line opacity="0.2" x1="388.82639136629496" x2="388.82639136629496" y1="0.5" y2="30"/><line opacity="0.2" x1="252.37695667425717" x2="252.37695667425717" y1="0.5" y2="30"/><line opacity="0.2" x1="251.35738916970362" x2="251.35738916970362" y1="0.5" y2="30"/><line opacity="0.2" x1="485.60692880754544" x2="485.60692880754544" y1="0.5" y2="30"/><line opacity="0.2" x1="437.62024492252135" x2="437.62024492252135" y1="0.5" y2="30"/><line opacity="0.2" x1="430.19735496348324" x2="430.19735496348324" y1="0.5" y2="30"/><line opacity="0.2" x1="314.8838506257777" x2="314.8838506257777" y1="0.5" y2="30"/><line opacity="0.2" x1="250.64993093072385" x2="250.64993093072385" y1="0.5" y2="30"/><line opacity="0.2" x1="212.13982432623234" x2="212.13982432623234" y1="0.5" y2="30"/><line opacity="0.2" x1="337.2422324411873" x2="337.2422324411873" y1="0.5" y2="30"/><line opacity="0.2" x1="185.25466119641845" x2="185.25466119641845" y1="0.5" y2="30"/><line opacity="0.2" x1="257.39754571666293" x2="257.39754571666293" y1="0.5" y2="30"/><line opacity="0.2" x1="403.90153811653124" x2="403.90153811653124" y1="0.5" y2="30"/><line opacity="0.2" x1="551.0261603550896" x2="551.0261603550896" y1="0.5" y2="30"/><line opacity="0.2" x1="483.37335323393467" x2="483.37335323393467" y1="0.5" y2="30"/><line opacity="0.2" x1="259.23472055235123" x2="259.23472055235123" y1="0.5" y2="30"/><line opacity="0.2" x1="166.69709634556932" x2="166.69709634556932" y1="0.5" y2="30"/><line opacity="0.2" x1="396.0381039091772" x2="396.0381039091772" y1="0.5" y2="30"/><line opacity="0.2" x1="407.31633479027425" x2="407.31633479027425" y1="0.5" y2="30"/><line opacity="0.2" x1="413.5500889106502" x2="413.5500889106502" y1="0.5" y2="30"/><line opacity="0.2" x1="345.8379446607996" x2="345.8379446607996" y1="0.5" y2="30"/><line opacity="0.2" x1="337.42396026160543" x2="337.42396026160543" y1="0.5" y2="30"/><line opacity="0.2" x1="146.31112634615113" x2="146.31112634615113" y1="0.5" y2="30"/><line opacity="0.2" x1="334.18486587398735" x2="334.18486587398735" y1="0.5" y2="30"/><line opacity="0.2" x1="458.6041491027515" x2="458.6041491027515" y1="0.5" y2="30"/><line opacity="0.2" x1="223.1865623866761" x2="223.1865623866761" y1="0.5" y2="30"/><line opacity="0.2" x1="351.6472678089929" x2="351.6472678089929" y1="0.5" y2="30"/><line opacity="0.2" x1="313.10722340962565" x2="313.10722340962565" y1="0.5" y2="30"/><line opacity="0.2" x1="444.2993049178424" x2="444.2993049178424" y1="0.5" y2="30"/><line opacity="0.2" x1="360.8264133644419" x2="360.8264133644419" y1="0.5" y2="30"/><line opacity="0.2" x1="432.97174085306375" x2="432.97174085306375" y1="0.5" y2="30"/><line opacity="0.2" x1="291.8474287167162" x2="291.8474287167162" y1="0.5" y2="30"/><line opacity="0.2" x1="489.15852444225203" x2="489.15852444225203" y1="0.5" y2="30"/><line opacity="0.2" x1="400.9511628456489" x2="400.9511628456489" y1="0.5" y2="30"/><line opacity="0.2" x1="289.1050327632235" x2="289.1050327632235" y1="0.5" y2="30"/><line opacity="0.2" x1="361.96971661601015" x2="361.96971661601015" y1="0.5" y2="30"/><line opacity="0.2" x1="300.7074994595683" x2="300.7074994595683" y1="0.5" y2="30"/><line opacity="0.2" x1="414.1199989450322" x2="414.1199989450322" y1="0.5" y2="30"/><line opacity="0.2" x1="207.00901701897686" x2="207.00901701897686" y1="0.5" y2="30"/><line opacity="0.2" x1="349.4694970541023" x2="349.4694970541023" y1="0.5" y2="30"/><line opacity="0.2" x1="436.7070169289111" x2="436.7070169289111" y1="0.5" y2="30"/><line opacity="0.2" x1="373.78096959453507" x2="373.78096959453507" y1="0.5" y2="30"/><line opacity="0.2" x1="357.0563379259927" x2="357.0563379259927" y1="0.5" y2="30"/><line opacity="0.2" x1="271.0043200533451" x2="271.0043200533451" y1="0.5" y2="30"/><line opacity="0.2" x1="304.8057326880513" x2="304.8057326880513" y1="0.5" y2="30"/><line opacity="0.2" x1="401.79936378590367" x2="401.79936378590367" y1="0.5" y2="30"/><line opacity="0.2" x1="307.8513715488887" x2="307.8513715488887" y1="0.5" y2="30"/><line opacity="0.2" x1="435.40960887779346" x2="435.40960887779346" y1="0.5" y2="30"/><line opacity="0.2" x1="278.1920003043651" x2="278.1920003043651" y1="0.5" y2="30"/><line opacity="0.2" x1="464.24661829210453" x2="464.24661829210453" y1="0.5" y2="30"/><line opacity="0.2" x1="330.7481905283975" x2="330.7481905283975" y1="0.5" y2="30"/><line opacity="0.2" x1="175.71338659651926" x2="175.71338659651926" y1="0.5" y2="30"/><line opacity="0.2" x1="179.64625579092723" x2="179.64625579092723" y1="0.5" y2="30"/><line opacity="0.2" x1="257.8733219356252" x2="257.8733219356252" y1="0.5" y2="30"/><line opacity="0.2" x1="147.43924256566436" x2="147.43924256566436" y1="0.5" y2="30"/><line opacity="0.2" x1="315.99386690862923" x2="315.99386690862923" y1="0.5" y2="30"/><line opacity="0.2" x1="222.4734039607885" x2="222.4734039607885" y1="0.5" y2="30"/><line opacity="0.2" x1="523.1086798992959" x2="523.1086798992959" y1="0.5" y2="30"/><line opacity="0.2" x1="411.18016075890824" x2="411.18016075890824" y1="0.5" y2="30"/><line opacity="0.2" x1="213.21128191441267" x2="213.21128191441267" y1="0.5" y2="30"/><line opacity="0.2" x1="331.63757155806724" x2="331.63757155806724" y1="0.5" y2="30"/><line opacity="0.2" x1="212.78764405395208" x2="212.78764405395208" y1="0.5" y2="30"/><line opacity="0.2" x1="443.7190198904556" x2="443.7190198904556" y1="0.5" y2="30"/><line opacity="0.2" x1="195.5996158606747" x2="195.5996158606747" y1="0.5" y2="30"/><line opacity="0.2" x1="283.12701196948393" x2="283.12701196948393" y1="0.5" y2="30"/><line opacity="0.2" x1="281.46047946421277" x2="281.46047946421277" y1="0.5" y2="30"/><line opacity="0.2" x1="382.00981210288137" x2="382.00981210288137" y1="0.5" y2="30"/><line opacity="0.2" x1="366.916023506278" x2="366.916023506278" y1="0.5" y2="30"/><line opacity="0.2" x1="315.7210948183493" x2="315.7210948183493" y1="0.5" y2="30"/><line opacity="0.2" x1="419.1542174586719" x2="419.1542174586719" y1="0.5" y2="30"/><line opacity="0.2" x1="326.7339474557041" x2="326.7339474557041" y1="0.5" y2="30"/><line opacity="0.2" x1="383.3036487785572" x2="383.3036487785572" y1="0.5" y2="30"/><line opacity="0.2" x1="207.0242781691608" x2="207.0242781691608" y1="0.5" y2="30"/><line opacity="0.2" x1="360.64973697138606" x2="360.64973697138606" y1="0.5" y2="30"/><line opacity="0.2" x1="215.87227647524938" x2="215.87227647524938" y1="0.5" y2="30"/><line opacity="0.2" x1="301.3288602904075" x2="301.3288602904075" y1="0.5" y2="30"/><line opacity="0.2" x1="419.8484404567414" x2="419.8484404567414" y1="0.5" y2="30"/><line opacity="0.2" x1="272.78103801621364" x2="272.78103801621364" y1="0.5" y2="30"/><line opacity="0.2" x1="213.16184427554563" x2="213.16184427554563" y1="0.5" y2="30"/><line opacity="0.2" x1="356.9528621503845" x2="356.9528621503845" y1="0.5" y2="30"/><line opacity="0.2" x1="376.596536380832" x2="376.596536380832" y1="0.5" y2="30"/><line opacity="0.2" x1="267.4413191352167" x2="267.4413191352167" y1="0.5" y2="30"/><line opacity="0.2" x1="471.7344704210088" x2="471.7344704210088" y1="0.5" y2="30"/><line opacity="0.2" x1="187.64316553090458" x2="187.64316553090458" y1="0.5" y2="30"/><line opacity="0.2" x1="391.62961924350157" x2="391.62961924350157" y1="0.5" y2="30"/><line opacity="0.2" x1="257.041548674222" x2="257.041548674222" y1="0.5" y2="30"/><line opacity="0.2" x1="416.8348710941399" x2="416.8348710941399" y1="0.5" y2="30"/><line opacity="0.2" x1="392.2336429279298" x2="392.2336429279298" y1="0.5" y2="30"/><line opacity="0.2" x1="544.782830889681" x2="544.782830889681" y1="0.5" y2="30"/><line opacity="0.2" x1="271.14275382587414" x2="271.14275382587414" y1="0.5" y2="30"/><line opacity="0.2" x1="318.3468907025139" x2="318.3468907025139" y1="0.5" y2="30"/><line opacity="0.2" x1="381.23819955078454" x2="381.23819955078454" y1="0.5" y2="30"/><line opacity="0.2" x1="286.0337097903491" x2="286.0337097903491" y1="0.5" y2="30"/><line opacity="0.2" x1="347.8860456305589" x2="347.8860456305589" y1="0.5" y2="30"/><line opacity="0.2" x1="418.30703785455" x2="418.30703785455" y1="0.5" y2="30"/><line opacity="0.2" x1="304.1670739401609" x2="304.1670739401609" y1="0.5" y2="30"/><line opacity="0.2" x1="128.54322867695407" x2="128.54322867695407" y1="0.5" y2="30"/><line opacity="0.2" x1="392.5641976830711" x2="392.5641976830711" y1="0.5" y2="30"/><line opacity="0.2" x1="227.2577890900678" x2="227.2577890900678" y1="0.5" y2="30"/><line opacity="0.2" x1="311.24994364265626" x2="311.24994364265626" y1="0.5" y2="30"/><line opacity="0.2" x1="285.2696076655159" x2="285.2696076655159" y1="0.5" y2="30"/><line opacity="0.2" x1="371.6398480331176" x2="371.6398480331176" y1="0.5" y2="30"/><line opacity="0.2" x1="224.18675598086347" x2="224.18675598086347" y1="0.5" y2="30"/><line opacity="0.2" x1="592.4572948640022" x2="592.4572948640022" y1="0.5" y2="30"/><line opacity="0.2" x1="443.00614647093886" x2="443.00614647093886" y1="0.5" y2="30"/><line opacity="0.2" x1="247.20958226064232" x2="247.20958226064232" y1="0.5" y2="30"/><line opacity="0.2" x1="198.3119832650208" x2="198.3119832650208" y1="0.5" y2="30"/><line opacity="0.2" x1="340.18402620752863" x2="340.18402620752863" y1="0.5" y2="30"/><line opacity="0.2" x1="371.39349549550076" x2="371.39349549550076" y1="0.5" y2="30"/><line opacity="0.2" x1="275.6809477890924" x2="275.6809477890924" y1="0.5" y2="30"/><line opacity="0.2" x1="300.0736322891026" x2="300.0736322891026" y1="0.5" y2="30"/><line opacity="0.2" x1="309.6375652873184" x2="309.6375652873184" y1="0.5" y2="30"/><line opacity="0.2" x1="361.9793666255727" x2="361.9793666255727" y1="0.5" y2="30"/><line opacity="0.2" x1="344.1056876806761" x2="344.1056876806761" y1="0.5" y2="30"/><line opacity="0.2" x1="317.8459396750648" x2="317.8459396750648" y1="0.5" y2="30"/><line opacity="0.2" x1="386.7107214764592" x2="386.7107214764592" y1="0.5" y2="30"/><line opacity="0.2" x1="471.03790683523926" x2="471.03790683523926" y1="0.5" y2="30"/><line opacity="0.2" x1="281.03747163092555" x2="281.03747163092555" y1="0.5" y2="30"/><line opacity="0.2" x1="531.1080960555391" x2="531.1080960555391" y1="0.5" y2="30"/><line opacity="0.2" x1="389.3626708382446" x2="389.3626708382446" y1="0.5" y2="30"/><line opacity="0.2" x1="252.55952180623353" x2="252.55952180623353" y1="0.5" y2="30"/><line opacity="0.2" x1="260.55736653444035" x2="260.55736653444035" y1="0.5" y2="30"/><line opacity="0.2" x1="368.46459332188056" x2="368.46459332188056" y1="0.5" y2="30"/><line opacity="0.2" x1="401.28547436765416" x2="401.28547436765416" y1="0.5" y2="30"/><line opacity="0.2" x1="201.47635352372112" x2="201.47635352372112" y1="0.5" y2="30"/><line opacity="0.2" x1="182.33500691605997" x2="182.33500691605997" y1="0.5" y2="30"/><line opacity="0.2" x1="388.55264747941845" x2="388.55264747941845" y1="0.5" y2="30"/><line opacity="0.2" x1="390.3073162535071" x2="390.3073162535071" y1="0.5" y2="30"/><line opacity="0.2" x1="253.3246975291816" x2="253.3246975291816" y1="0.5" y2="30"/><line opacity="0.2" x1="253.3922806566731" x2="253.3922806566731" y1="0.5" y2="30"/><line opacity="0.2" x1="261.61742605859735" x2="261.61742605859735" y1="0.5" y2="30"/><line opacity="0.2" x1="392.6124428594662" x2="392.6124428594662" y1="0.5" y2="30"/><line opacity="0.2" x1="396.4913902624404" x2="396.4913902624404" y1="0.5" y2="30"/><line opacity="0.2" x1="308.96491020387845" x2="308.96491020387845" y1="0.5" y2="30"/><line opacity="0.2" x1="386.01237430921947" x2="386.01237430921947" y1="0.5" y2="30"/><line opacity="0.2" x1="216.21838343311595" x2="216.21838343311595" y1="0.5" y2="30"/><line opacity="0.2" x1="321.5745379375189" x2="321.5745379375189" y1="0.5" y2="30"/><line opacity="0.2" x1="227.66853910107096" x2="227.66853910107096" y1="0.5" y2="30"/><line opacity="0.2" x1="340.398155572908" x2="340.398155572908" y1="0.5" y2="30"/><line opacity="0.2" x1="411.99172299350386" x2="411.99172299350386" y1="0.5" y2="30"/><line opacity="0.2" x1="495.2351924844126" x2="495.2351924844126" y1="0.5" y2="30"/><line opacity="0.2" x1="261.1172762276916" x2="261.1172762276916" y1="0.5" y2="30"/><line opacity="0.2" x1="319.97451935691413" x2="319.97451935691413" y1="0.5" y2="30"/><line opacity="0.2" x1="362.2500231746593" x2="362.2500231746593" y1="0.5" y2="30"/><line opacity="0.2" x1="422.04698359353375" x2="422.04698359353375" y1="0.5" y2="30"/><line opacity="0.2" x1="402.31079288350185" x2="402.31079288350185" y1="0.5" y2="30"/><line opacity="0.2" x1="132.18347722135837" x2="132.18347722135837" y1="0.5" y2="30"/><line opacity="0.2" x1="360.48820766697463" x2="360.48820766697463" y1="0.5" y2="30"/><line opacity="0.2" x1="125.48998213369109" x2="125.48998213369109" y1="0.5" y2="30"/><line opacity="0.2" x1="200.21627444475368" x2="200.21627444475368" y1="0.5" y2="30"/><line opacity="0.2" x1="329.2393324951404" x2="329.2393324951404" y1="0.5" y2="30"/><line opacity="0.2" x1="265.4758626613392" x2="265.4758626613392" y1="0.5" y2="30"/><line opacity="0.2" x1="338.0275056772932" x2="338.0275056772932" y1="0.5" y2="30"/><line opacity="0.2" x1="325.6674183743809" x2="325.6674183743809" y1="0.5" y2="30"/><line opacity="0.2" x1="268.5312474717454" x2="268.5312474717454" y1="0.5" y2="30"/><line opacity="0.2" x1="244.8489290723139" x2="244.8489290723139" y1="0.5" y2="30"/><line opacity="0.2" x1="415.422918001579" x2="415.422918001579" y1="0.5" y2="30"/><line opacity="0.2" x1="29.945367118689646" x2="29.945367118689646" y1="0.5" y2="30"/><line opacity="0.2" x1="404.95939425372245" x2="404.95939425372245" y1="0.5" y2="30"/><line opacity="0.2" x1="424.1772829383152" x2="424.1772829383152" y1="0.5" y2="30"/><line opacity="0.2" x1="235.39614491174603" x2="235.39614491174603" y1="0.5" y2="30"/><line opacity="0.2" x1="246.4011714402146" x2="246.4011714402146" y1="0.5" y2="30"/><line opacity="0.2" x1="332.63831497765204" x2="332.63831497765204" y1="0.5" y2="30"/><line opacity="0.2" x1="193.35708611749345" x2="193.35708611749345" y1="0.5" y2="30"/><line opacity="0.2" x1="361.19679949948113" x2="361.19679949948113" y1="0.5" y2="30"/><line opacity="0.2" x1="455.48492321039043" x2="455.48492321039043" y1="0.5" y2="30"/><line opacity="0.2" x1="620" x2="620" y1="0.5" y2="30"/><line opacity="0.2" x1="249.3125300776195" x2="249.3125300776195" y1="0.5" y2="30"/><line opacity="0.2" x1="405.92243118593854" x2="405.92243118593854" y1="0.5" y2="30"/><line opacity="0.2" x1="385.2848899807311" x2="385.2848899807311" y1="0.5" y2="30"/><line opacity="0.2" x1="476.4671672710149" x2="476.4671672710149" y1="0.5" y2="30"/><line opacity="0.2" x1="494.30986122700733" x2="494.30986122700733" y1="0.5" y2="30"/><line opacity="0.2" x1="269.8368161273486" x2="269.8368161273486" y1="0.5" y2="30"/><line opacity="0.2" x1="237.4544820422625" x2="237.4544820422625" y1="0.5" y2="30"/><line opacity="0.2" x1="371.6855600341603" x2="371.6855600341603" y1="0.5" y2="30"/><line opacity="0.2" x1="253.27087018442936" x2="253.27087018442936" y1="0.5" y2="30"/><line opacity="0.2" x1="214.45082326901246" x2="214.45082326901246" y1="0.5" y2="30"/><line opacity="0.2" x1="378.62795104001674" x2="378.62795104001674" y1="0.5" y2="30"/><line opacity="0.2" x1="190.23253166167632" x2="190.23253166167632" y1="0.5" y2="30"/><line opacity="0.2" x1="248.76123203807313" x2="248.76123203807313" y1="0.5" y2="30"/><line opacity="0.2" x1="371.15666722227866" x2="371.15666722227866" y1="0.5" y2="30"/><line opacity="0.2" x1="163.85403267476624" x2="163.85403267476624" y1="0.5" y2="30"/><line opacity="0.2" x1="432.9630182534453" x2="432.9630182534453" y1="0.5" y2="30"/><line opacity="0.2" x1="366.50775883122486" x2="366.50775883122486" y1="0.5" y2="30"/><line opacity="0.2" x1="270.0806547450033" x2="270.0806547450033" y1="0.5" y2="30"/><line opacity="0.2" x1="229.9795864896466" x2="229.9795864896466" y1="0.5" y2="30"/><line opacity="0.2" x1="181.33143307822053" x2="181.33143307822053" y1="0.5" y2="30"/><line opacity="0.2" x1="432.29550137566747" x2="432.29550137566747" y1="0.5" y2="30"/><line opacity="0.2" x1="242.8872674599125" x2="242.8872674599125" y1="0.5" y2="30"/><line opacity="0.2" x1="384.35998752824554" x2="384.35998752824554" y1="0.5" y2="30"/><line opacity="0.2" x1="293.7695833136891" x2="293.7695833136891" y1="0.5" y2="30"/><line opacity="0.2" x1="286.9942462320045" x2="286.9942462320045" y1="0.5" y2="30"/><line opacity="0.2" x1="337.5747760334437" x2="337.5747760334437" y1="0.5" y2="30"/><line opacity="0.2" x1="365.24261410105333" x2="365.24261410105333" y1="0.5" y2="30"/><line opacity="0.2" x1="397.9336065453808" x2="397.9336065453808" y1="0.5" y2="30"/><line opacity="0.2" x1="241.1713995993195" x2="241.1713995993195" y1="0.5" y2="30"/><line opacity="0.2" x1="307.2184830784004" x2="307.2184830784004" y1="0.5" y2="30"/><line opacity="0.2" x1="490.5652821658647" x2="490.5652821658647" y1="0.5" y2="30"/><line opacity="0.2" x1="315.6930947925499" x2="315.6930947925499" y1="0.5" y2="30"/><line opacity="0.2" x1="242.36866462949916" x2="242.36866462949916" y1="0.5" y2="30"/><line opacity="0.2" x1="306.86904242216235" x2="306.86904242216235" y1="0.5" y2="30"/><line opacity="0.2" x1="461.96951965563284" x2="461.96951965563284" y1="0.5" y2="30"/><line opacity="0.2" x1="315.134927128531" x2="315.134927128531" y1="0.5" y2="30"/><line opacity="0.2" x1="188.99529399631587" x2="188.99529399631587" y1="0.5" y2="30"/><line opacity="0.2" x1="150.21699570887617" x2="150.21699570887617" y1="0.5" y2="30"/><line opacity="0.2" x1="182.20156424859098" x2="182.20156424859098" y1="0.5" y2="30"/><line opacity="0.2" x1="195.89866698193904" x2="195.89866698193904" y1="0.5" y2="30"/><line opacity="0.2" x1="348.26052655711527" x2="348.26052655711527" y1="0.5" y2="30"/><line opacity="0.2" x1="226.65506171641903" x2="226.65506171641903" y1="0.5" y2="30"/><line opacity="0.2" x1="493.0280620945956" x2="493.0280620945956" y1="0.5" y2="30"/><line opacity="0.2" x1="334.20275891240584" x2="334.20275891240584" y1="0.5" y2="30"/><line opacity="0.2" x1="240.20485054796077" x2="240.20485054796077" y1="0.5" y2="30"/><line opacity="0.2" x1="573.210652683823" x2="573.210652683823" y1="0.5" y2="30"/><line opacity="0.2" x1="382.1378927946502" x2="382.1378927946502" y1="0.5" y2="30"/><line opacity="0.2" x1="277.84660484042865" x2="277.84660484042865" y1="0.5" y2="30"/><line opacity="0.2" x1="152.26233804783516" x2="152.26233804783516" y1="0.5" y2="30"/><line opacity="0.2" x1="209.13788266232203" x2="209.13788266232203" y1="0.5" y2="30"/><line opacity="0.2" x1="316.7286011962416" x2="316.7286011962416" y1="0.5" y2="30"/><line opacity="0.2" x1="135.21478243937673" x2="135.21478243937673" y1="0.5" y2="30"/><line opacity="0.2" x1="344.39777482054876" x2="344.39777482054876" y1="0.5" y2="30"/><line opacity="0.2" x1="161.3099755563117" x2="161.3099755563117" y1="0.5" y2="30"/><line opacity="0.2" x1="417.65932054477395" x2="417.65932054477395" y1="0.5" y2="30"/><line opacity="0.2" x1="419.029861815777" x2="419.029861815777" y1="0.5" y2="30"/><line opacity="0.2" x1="412.53840824756423" x2="412.53840824756423" y1="0.5" y2="30"/><line opacity="0.2" x1="344.7068945147731" x2="344.7068945147731" y1="0.5" y2="30"/><line opacity="0.2" x1="425.01071741253344" x2="425.01071741253344" y1="0.5" y2="30"/><line opacity="0.2" x1="229.62004168346309" x2="229.62004168346309" y1="0.5" y2="30"/><line opacity="0.2" x1="359.6453344508533" x2="359.6453344508533" y1="0.5" y2="30"/><line opacity="0.2" x1="297.1153069107343" x2="297.1153069107343" y1="0.5" y2="30"/><line opacity="0.2" x1="237.17471515716144" x2="237.17471515716144" y1="0.5" y2="30"/><line opacity="0.2" x1="428.78496991664474" x2="428.78496991664474" y1="0.5" y2="30"/><line opacity="0.2" x1="197.25912475575433" x2="197.25912475575433" y1="0.5" y2="30"/><line opacity="0.2" x1="347.359520972599" x2="347.359520972599" y1="0.5" y2="30"/><line opacity="0.2" x1="370.143341649597" x2="370.143341649597" y1="0.5" y2="30"/><line opacity="0.2" x1="279.68220162129313" x2="279.68220162129313" y1="0.5" y2="30"/><line opacity="0.2" x1="360.7026049140341" x2="360.7026049140341" y1="0.5" y2="30"/><line opacity="0.2" x1="285.1601718629486" x2="285.1601718629486" y1="0.5" y2="30"/><line opacity="0.2" x1="556.7527415099993" x2="556.7527415099993" y1="0.5" y2="30"/><line opacity="0.2" x1="473.41184153885865" x2="473.41184153885865" y1="0.5" y2="30"/><line opacity="0.2" x1="323.8414917619632" x2="323.8414917619632" y1="0.5" y2="30"/><line opacity="0.2" x1="264.3266415895535" x2="264.3266415895535" y1="0.5" y2="30"/><line opacity="0.2" x1="320.98071609471367" x2="320.98071609471367" y1="0.5" y2="30"/><line opacity="0.2" x1="246.8807677197851" x2="246.8807677197851" y1="0.5" y2="30"/><line opacity="0.2" x1="290.1797203947415" x2="290.1797203947415" y1="0.5" y2="30"/><line opacity="0.2" x1="450.79602950923135" x2="450.79602950923135" y1="0.5" y2="30"/><line opacity="0.2" x1="378.0647102124638" x2="378.0647102124638" y1="0.5" y2="30"/><line opacity="0.2" x1="421.8424274191435" x2="421.8424274191435" y1="0.5" y2="30"/><line opacity="0.2" x1="228.44242220109172" x2="228.44242220109172" y1="0.5" y2="30"/><line opacity="0.2" x1="296.06604358920885" x2="296.06604358920885" y1="0.5" y2="30"/><line opacity="0.2" x1="103.9083049063237" x2="103.9083049063237" y1="0.5" y2="30"/><line opacity="0.2" x1="279.5210399377944" x2="279.5210399377944" y1="0.5" y2="30"/><line opacity="0.2" x1="294.95888671062556" x2="294.95888671062556" y1="0.5" y2="30"/><line opacity="0.2" x1="309.80302763696204" x2="309.80302763696204" y1="0.5" y2="30"/><line opacity="0.2" x1="341.9414031993039" x2="341.9414031993039" y1="0.5" y2="30"/><line opacity="0.2" x1="456.2288758886463" x2="456.2288758886463" y1="0.5" y2="30"/><line opacity="0.2" x1="407.263833831873" x2="407.263833831873" y1="0.5" y2="30"/><line opacity="0.2" x1="163.4912468486934" x2="163.4912468486934" y1="0.5" y2="30"/><line opacity="0.2" x1="294.75342061451653" x2="294.75342061451653" y1="0.5" y2="30"/><line opacity="0.2" x1="307.4514478975326" x2="307.4514478975326" y1="0.5" y2="30"/><line opacity="0.2" x1="291.468509313833" x2="291.468509313833" y1="0.5" y2="30"/><line opacity="0.2" x1="451.39909105348397" x2="451.39909105348397" y1="0.5" y2="30"/><line opacity="0.2" x1="293.1902987555576" x2="293.1902987555576" y1="0.5" y2="30"/><line opacity="0.2" x1="264.2518204295414" x2="264.2518204295414" y1="0.5" y2="30"/><line opacity="0.2" x1="175.92144311431733" x2="175.92144311431733" y1="0.5" y2="30"/><line opacity="0.2" x1="230.78251016858064" x2="230.78251016858064" y1="0.5" y2="30"/><line opacity="0.2" x1="227.34515491909121" x2="227.34515491909121" y1="0.5" y2="30"/><line opacity="0.2" x1="269.5707128715217" x2="269.5707128715217" y1="0.5" y2="30"/><line opacity="0.2" x1="437.3542509031506" x2="437.3542509031506" y1="0.5" y2="30"/><line opacity="0.2" x1="355.91209562819375" x2="355.91209562819375" y1="0.5" y2="30"/><line opacity="0.2" x1="268.4480713855479" x2="268.4480713855479" y1="0.5" y2="30"/><line opacity="0.2" x1="349.2942109333866" x2="349.2942109333866" y1="0.5" y2="30"/><line opacity="0.2" x1="333.017714540228" x2="333.017714540228" y1="0.5" y2="30"/><line opacity="0.2" x1="361.85565009296243" x2="361.85565009296243" y1="0.5" y2="30"/><line opacity="0.2" x1="332.37554072722276" x2="332.37554072722276" y1="0.5" y2="30"/><line opacity="0.2" x1="429.3361628350609" x2="429.3361628350609" y1="0.5" y2="30"/><line opacity="0.2" x1="283.0206189804706" x2="283.0206189804706" y1="0.5" y2="30"/><line opacity="0.2" x1="368.017519957476" x2="368.017519957476" y1="0.5" y2="30"/><line opacity="0.2" x1="440.5668286452016" x2="440.5668286452016" y1="0.5" y2="30"/><line opacity="0.2" x1="451.7965276848536" x2="451.7965276848536" y1="0.5" y2="30"/><line opacity="0.2" x1="423.98073147322253" x2="423.98073147322253" y1="0.5" y2="30"/><line opacity="0.2" x1="523.8487880389765" x2="523.8487880389765" y1="0.5" y2="30"/><line opacity="0.2" x1="326.0383723693405" x2="326.0383723693405" y1="0.5" y2="30"/><line opacity="0.2" x1="187.150695076787" x2="187.150695076787" y1="0.5" y2="30"/><line opacity="0.2" x1="456.1755248008602" x2="456.1755248008602" y1="0.5" y2="30"/><line opacity="0.2" x1="352.51708037229906" x2="352.51708037229906" y1="0.5" y2="30"/><line opacity="0.2" x1="396.9835696548711" x2="396.9835696548711" y1="0.5" y2="30"/><line opacity="0.2" x1="474.7657502901668" x2="474.7657502901668" y1="0.5" y2="30"/><line opacity="0.2" x1="464.1938285527435" x2="464.1938285527435" y1="0.5" y2="30"/><line opacity="0.2" x1="524.4039931011869" x2="524.4039931011869" y1="0.5" y2="30"/><line opacity="0.2" x1="319.561309321717" x2="319.561309321717" y1="0.5" y2="30"/><line opacity="0.2" x1="220.20922229964648" x2="220.20922229964648" y1="0.5" y2="30"/><line opacity="0.2" x1="388.9467277490071" x2="388.9467277490071" y1="0.5" y2="30"/><line opacity="0.2" x1="402.6190278395423" x2="402.6190278395423" y1="0.5" y2="30"/><line opacity="0.2" x1="336.6648203471377" x2="336.6648203471377" y1="0.5" y2="30"/><line opacity="0.2" x1="398.0413656058323" x2="398.0413656058323" y1="0.5" y2="30"/><line opacity="0.2" x1="511.047137024121" x2="511.047137024121" y1="0.5" y2="30"/><line opacity="0.2" x1="450.0740860057011" x2="450.0740860057011" y1="0.5" y2="30"/><line opacity="0.2" x1="350.91184204649807" x2="350.91184204649807" y1="0.5" y2="30"/><line opacity="0.2" x1="224.65081834640782" x2="224.65081834640782" y1="0.5" y2="30"/><line opacity="0.2" x1="90.55774049876507" x2="90.55774049876507" y1="0.5" y2="30"/><line opacity="0.2" x1="419.8669495865616" x2="419.8669495865616" y1="0.5" y2="30"/><line opacity="0.2" x1="346.55556580980056" x2="346.55556580980056" y1="0.5" y2="30"/><line opacity="0.2" x1="431.66903221745866" x2="431.66903221745866" y1="0.5" y2="30"/><line opacity="0.2" x1="388.85021029445556" x2="388.85021029445556" y1="0.5" y2="30"/><line opacity="0.2" x1="329.2179443118933" x2="329.2179443118933" y1="0.5" y2="30"/><line opacity="0.2" x1="245.130330691702" x2="245.130330691702" y1="0.5" y2="30"/><line opacity="0.2" x1="384.7410872668122" x2="384.7410872668122" y1="0.5" y2="30"/><line opacity="0.2" x1="242.02237719817066" x2="242.02237719817066" y1="0.5" y2="30"/><line opacity="0.2" x1="471.78638278300036" x2="471.78638278300036" y1="0.5" y2="30"/><line opacity="0.2" x1="329.70806994850403" x2="329.70806994850403" y1="0.5" y2="30"/><line opacity="0.2" x1="346.5217392129814" x2="346.5217392129814" y1="0.5" y2="30"/><line opacity="0.2" x1="311.798531618378" x2="311.798531618378" y1="0.5" y2="30"/><line opacity="0.2" x1="423.31851719096164" x2="423.31851719096164" y1="0.5" y2="30"/><line opacity="0.2" x1="299.02631663659787" x2="299.02631663659787" y1="0.5" y2="30"/><line opacity="0.2" x1="377.83856905606604" x2="377.83856905606604" y1="0.5" y2="30"/><line opacity="0.2" x1="169.8113885163461" x2="169.8113885163461" y1="0.5" y2="30"/><line opacity="0.2" x1="224.5438048527706" x2="224.5438048527706" y1="0.5" y2="30"/><line opacity="0.2" x1="461.36891018693734" x2="461.36891018693734" y1="0.5" y2="30"/><line opacity="0.2" x1="253.19035323542067" x2="253.19035323542067" y1="0.5" y2="30"/><line opacity="0.2" x1="341.003995727518" x2="341.003995727518" y1="0.5" y2="30"/><line opacity="0.2" x1="280.5785107902592" x2="280.5785107902592" y1="0.5" y2="30"/><line opacity="0.2" x1="248.266918967073" x2="248.266918967073" y1="0.5" y2="30"/><line opacity="0.2" x1="313.65785868305215" x2="313.65785868305215" y1="0.5" y2="30"/><line opacity="0.2" x1="406.4900319235378" x2="406.4900319235378" y1="0.5" y2="30"/><line opacity="0.2" x1="317.43990780293996" x2="317.43990780293996" y1="0.5" y2="30"/><line opacity="0.2" x1="426.6527461742156" x2="426.6527461742156" y1="0.5" y2="30"/><line opacity="0.2" x1="371.1432406105283" x2="371.1432406105283" y1="0.5" y2="30"/><line opacity="0.2" x1="205.7887825434996" x2="205.7887825434996" y1="0.5" y2="30"/><line opacity="0.2" x1="226.65034546640362" x2="226.65034546640362" y1="0.5" y2="30"/><line opacity="0.2" x1="421.36491528842083" x2="421.36491528842083" y1="0.5" y2="30"/><line opacity="0.2" x1="292.6484572608733" x2="292.6484572608733" y1="0.5" y2="30"/><line opacity="0.2" x1="217.95923473051323" x2="217.95923473051323" y1="0.5" y2="30"/><line opacity="0.2" x1="306.0274900884154" x2="306.0274900884154" y1="0.5" y2="30"/><line opacity="0.2" x1="275.97914896922066" x2="275.97914896922066" y1="0.5" y2="30"/><line opacity="0.2" x1="345.8297723324771" x2="345.8297723324771" y1="0.5" y2="30"/><line opacity="0.2" x1="393.08695069704476" x2="393.08695069704476" y1="0.5" y2="30"/><line opacity="0.2" x1="319.6614524410719" x2="319.6614524410719" y1="0.5" y2="30"/><line opacity="0.2" x1="293.7101085682142" x2="293.7101085682142" y1="0.5" y2="30"/><line opacity="0.2" x1="308.7323036802808" x2="308.7323036802808" y1="0.5" y2="30"/><line opacity="0.2" x1="405.8726065274789" x2="405.8726065274789" y1="0.5" y2="30"/><line opacity="0.2" x1="194.0131455749356" x2="194.0131455749356" y1="0.5" y2="30"/><line opacity="0.2" x1="229.29362807016332" x2="229.29362807016332" y1="0.5" y2="30"/><line opacity="0.2" x1="379.76134444790364" x2="379.76134444790364" y1="0.5" y2="30"/><line opacity="0.2" x1="275.73991598883293" x2="275.73991598883293" y1="0.5" y2="30"/><line opacity="0.2" x1="334.5775739376692" x2="334.5775739376692" y1="0.5" y2="30"/><line opacity="0.2" x1="416.9229457019439" x2="416.9229457019439" y1="0.5" y2="30"/><line opacity="0.2" x1="424.0697637399467" x2="424.0697637399467" y1="0.5" y2="30"/><line opacity="0.2" x1="416.0467172890556" x2="416.0467172890556" y1="0.5" y2="30"/><line opacity="0.2" x1="278.3210207119398" x2="278.3210207119398" y1="0.5" y2="30"/><line opacity="0.2" x1="451.32855280812424" x2="451.32855280812424" y1="0.5" y2="30"/><line opacity="0.2" x1="201.05944777787911" x2="201.05944777787911" y1="0.5" y2="30"/><line opacity="0.2" x1="188.2115345343591" x2="188.2115345343591" y1="0.5" y2="30"/><line opacity="0.2" x1="455.70587581445244" x2="455.70587581445244" y1="0.5" y2="30"/><line opacity="0.2" x1="379.2419397100312" x2="379.2419397100312" y1="0.5" y2="30"/><line opacity="0.2" x1="318.4748169520329" x2="318.4748169520329" y1="0.5" y2="30"/><line opacity="0.2" x1="232.61960077385595" x2="232.61960077385595" y1="0.5" y2="30"/><line opacity="0.2" x1="360.9648359671469" x2="360.9648359671469" y1="0.5" y2="30"/><line opacity="0.2" x1="373.2434475271494" x2="373.2434475271494" y1="0.5" y2="30"/><line opacity="0.2" x1="422.30582398611716" x2="422.30582398611716" y1="0.5" y2="30"/><line opacity="0.2" x1="283.02116873022015" x2="283.02116873022015" y1="0.5" y2="30"/><line opacity="0.2" x1="297.7465931617767" x2="297.7465931617767" y1="0.5" y2="30"/><line opacity="0.2" x1="236.6819034713399" x2="236.6819034713399" y1="0.5" y2="30"/><line opacity="0.2" x1="195.77287169575132" x2="195.77287169575132" y1="0.5" y2="30"/><line opacity="0.2" x1="370.50561229249155" x2="370.50561229249155" y1="0.5" y2="30"/></g></svg>