<svg xmlns="http://www.w3.org/2000/svg" xmlns:xlink="http://www.w3.org/1999/xlink" class="plot-d6a7b5" fill="currentColor" font-family="system-ui, sans-serif" font-size="10" text-anchor="middle" width="640" height="60" viewBox="0 0 640 60" style="color: black; background-color: white;"><style>.plot-d6a7b5 {
  display: block;
  background: white;
  height: auto;
  height: intrinsic;
  max-width: 100%;
}
.plot-d6a7b5 text,
.plot-d6a7b5 tspan {
  white-space: pre;
}</style><g aria-label="x-axis tick" fill="none" stroke="currentColor"><path transform="translate(22.276558504992643,30)" d="M0,0L0,6"/><path transform="translate(126.37835423607072,30)" d="M0,0L0,6"/><path transform="translate(230.4801499671488,30)" d="M0,0L0,6"/><path transform="translate(334.5819456982269,30)" d="M0,0L0,6"/><path transform="translate(438.683741429305,30)" d="M0,0L0,6"/><path transform="translate(542.7855371603831,30)" d="M0,0L0,6"/></g><g aria-label="x-axis tick label" font-variant="tabular-nums" transform="translate(0,9)"><text y="0.71em" transform="translate(22.276558504992643,30)">−3</text><text y="0.71em" transform="translate(126.37835423607072,30)">−2</text><text y="0.71em" transform="translate(230.4801499671488,30)">−1</text><text y="0.71em" transform="translate(334.5819456982269,30)">0</text><text y="0.71em" transform="translate(438.683741429305,30)">1</text><text y="0.71em" transform="translate(542.7855371603831,30)">2</text></g><g aria-label="tick" stroke="steelblue"><line opacity="0.2" x1="282.48733357346225" x2="282.48733357346225" y1="0.5" y2="30"/><line opacity="0.2" x1="433.0569175697805" x2="433.0569175697805" y1="0.5" y2="30"/><line opacity="0.2" x1="55.791357840212555" x2="55.791357840212555" y1="0.5" y2="30"/><line opacity="0.2" x1="181.0648065189589" x2="181.0648065189589" y1="0.5" y2="30"/><line opacity="0.2" x1="541.0264110850136" x2="541.0264110850136" y1="0.5" y2="30"/><line opacity="0.2" x1="373.0380799981672" x2="373.0380799981672" y1="0.5" y2="30"/><line opacity="0.2" x1="358.5928230739898" x2="358.5928230739898" y1="0.5" y2="30"/><line opacity="0.2" x1="426.9858034236207" x2="426.9858034236207" y1="0.5" y2="30"/><line opacity="0.2" x1="307.14655218573364" x2="307.14655218573364" y1="0.5" y2="30"/><line opacity="0.2" x1="340.4679971423388" x2="340.4679971423388" y1="0.5" y2="30"/><line opacity="0.2" x1="501.2346941732009" x2="501.2346941732009" y1="0.5" y2="30"/><line opacity="0.2" x1="316.247413946445" x2="316.247413946445" y1="0.5" y2="30"/><line opacity="0.2" x1="379.85653145245345" x2="379.85653145245345" y1="0.5" y2="30"/><line opacity="0.2" x1="499.1765251689365" x2="499.1765251689365" y1="0.5" y2="30"/><line opacity="0.2" x1="411.0466758398288" x2="411.0466758398288" y1="0.5" y2="30"/><line opacity="0.2" x1="461.01998707443556" x2="461.01998707443556" y1="0.5" y2="30"/><line opacity="0.2" x1="250.35266733030656" x2="250.35266733030656" y1="0.5" y2="30"/><line opacity="0.2" x1="215.95276060336835" x2="215.95276060336835" y1="0.5" y2="30"/><line opacity="0.2" x1="410.76651710908004" x2="410.76651710908004" y1="0.5" y2="30"/><line opacity="0.2" x1="390.20703368552665" x2="390.20703368552665" y1="0.5" y2="30"/><line opacity="0.2" x1="462.86011166081965" x2="462.86011166081965" y1="0.5" y2="30"/><line opacity="0.2" x1="454.16887086786375" x2="454.16887086786375" y1="0.5" y2="30"/><line opacity="0.2" x1="395.02255396506894" x2="395.02255396506894" y1="0.5" y2="30"/><line opacity="0.2" x1="324.75192641442453" x2="324.75192641442453" y1="0.5" y2="30"/><line opacity="0.2" x1="171.86641469933713" x2="171.86641469933713" y1="0.5" y2="30"/><line opacity="0.2" x1="496.4699230955528" x2="496.4699230955528" y1="0.5" y2="30"/><line opacity="0.2" x1="433.835216256388" x2="433.835216256388" y1="0.5" y2="30"/><line opacity="0.2" x1="385.8671107554445" x2="385.8671107554445" y1="0.5" y2="30"/><line opacity="0.2" x1="291.3816929941032" x2="291.3816929941032" y1="0.5" y2="30"/><line opacity="0.2" x1="392.2047152018972" x2="392.2047152018972" y1="0.5" y2="30"/><line opacity="0.2" x1="393.2308927672391" x2="393.2308927672391" y1="0.5" y2="30"/><line opacity="0.2" x1="333.77311240839487" x2="333.77311240839487" y1="0.5" y2="30"/><line opacity="0.2" x1="533.677076726068" x2="533.677076726068" y1="0.5" y2="30"/><line opacity="0.2" x1="397.0655541444363" x2="397.0655541444363" y1="0.5" y2="30"/><line opacity="0.2" x1="239.39354661520045" x2="239.39354661520045" y1="0.5" y2="30"/><line opacity="0.2" x1="425.25911318718636" x2="425.25911318718636" y1="0.5" y2="30"/><line opacity="0.2" x1="332.33477270553334" x2="332.33477270553334" y1="0.5" y2="30"/><line opacity="0.2" x1="231.21061783543897" x2="231.21061783543897" y1="0.5" y2="30"/><line opacity="0.2" x1="319.8581195507326" x2="319.8581195507326" y1="0.5" y2="30"/><line opacity="0.2" x1="461.2669655242914" x2="461.2669655242914" y1="0.5" y2="30"/><line opacity="0.2" x1="180.9804859530935" x2="180.9804859530935" y1="0.5" y2="30"/><line opacity="0.2" x1="436.18439445813635" x2="436.18439445813635" y1="0.5" y2="30"/><line opacity="0.2" x1="501.5012854924404" x2="501.5012854924404" y1="0.5" y2="30"/><line opacity="0.2" x1="341.12282197563565" x2="341.12282197563565" y1="0.5" y2="30"/><line opacity="0.2" x1="426.1350600101607" x2="426.1350600101607" y1="0.5" y2="30"/><line opacity="0.2" x1="334.8330839931167" x2="334.8330839931167" y1="0.5" y2="30"/><line opacity="0.2" x1="273.32053472050177" x2="273.32053472050177" y1="0.5" y2="30"/><line opacity="0.2" x1="482.69672232501307" x2="482.69672232501307" y1="0.5" y2="30"/><line opacity="0.2" x1="406.66359905953016" x2="406.66359905953016" y1="0.5" y2="30"/><line opacity="0.2" x1="313.9869844346585" x2="313.9869844346585" y1="0.5" y2="30"/><line opacity="0.2" x1="231.44907342671928" x2="231.44907342671928" y1="0.5" y2="30"/><line opacity="0.2" x1="247.83391556605278" x2="247.83391556605278" y1="0.5" y2="30"/><line opacity="0.2" x1="233.76491862542875" x2="233.76491862542875" y1="0.5" y2="30"/><line opacity="0.2" x1="438.3313801727137" x2="438.3313801727137" y1="0.5" y2="30"/><line opacity="0.2" x1="163.21179511748431" x2="163.21179511748431" y1="0.5" y2="30"/><line opacity="0.2" x1="492.3570948917683" x2="492.3570948917683" y1="0.5" y2="30"/><line opacity="0.2" x1="300.711466338996" x2="300.711466338996" y1="0.5" y2="30"/><line opacity="0.2" x1="320.2171960436327" x2="320.2171960436327" y1="0.5" y2="30"/><line opacity="0.2" x1="416.96424310378717" x2="416.96424310378717" y1="0.5" y2="30"/><line opacity="0.2" x1="546.3749730549048" x2="546.3749730549048" y1="0.5" y2="30"/><line opacity="0.2" x1="461.95262357622886" x2="461.95262357622886" y1="0.5" y2="30"/><line opacity="0.2" x1="279.13869768583527" x2="279.13869768583527" y1="0.5" y2="30"/><line opacity="0.2" x1="337.91246706763656" x2="337.91246706763656" y1="0.5" y2="30"/><line opacity="0.2" x1="256.19965627651527" x2="256.19965627651527" y1="0.5" y2="30"/><line opacity="0.2" x1="361.87305034622335" x2="361.87305034622335" y1="0.5" y2="30"/><line opacity="0.2" x1="398.7410085577955" x2="398.7410085577955" y1="0.5" y2="30"/><line opacity="0.2" x1="446.8516469665962" x2="446.8516469665962" y1="0.5" y2="30"/><line opacity="0.2" x1="412.2169604150721" x2="412.2169604150721" y1="0.5" y2="30"/><line opacity="0.2" x1="432.1943877317085" x2="432.1943877317085" y1="0.5" y2="30"/><line opacity="0.2" x1="259.4348563226834" x2="259.4348563226834" y1="0.5" y2="30"/><line opacity="0.2" x1="488.5325660395181" x2="488.5325660395181" y1="0.5" y2="30"/><line opacity="0.2" x1="385.5121333798106" x2="385.5121333798106" y1="0.5" y2="30"/><line opacity="0.2" x1="517.9003447566513" x2="517.9003447566513" y1="0.5" y2="30"/><line opacity="0.2" x1="490.9484724719498" x2="490.9484724719498" y1="0.5" y2="30"/><line opacity="0.2" x1="468.29404173611994" x2="468.29404173611994" y1="0.5" y2="30"/><line opacity="0.2" x1="354.7520871133269" x2="354.7520871133269" y1="0.5" y2="30"/><line opacity="0.2" x1="370.78267751022105" x2="370.78267751022105" y1="0.5" y2="30"/><line opacity="0.2" x1="262.8421473258933" x2="262.8421473258933" y1="0.5" y2="30"/><line opacity="0.2" x1="325.34408770686844" x2="325.34408770686844" y1="0.5" y2="30"/><line opacity="0.2" x1="370.7295005412466" x2="370.7295005412466" y1="0.5" y2="30"/><line opacity="0.2" x1="259.1664121672611" x2="259.1664121672611" y1="0.5" y2="30"/><line opacity="0.2" x1="410.5558750446301" x2="410.5558750446301" y1="0.5" y2="30"/><line opacity="0.2" x1="478.7047758100718" x2="478.7047758100718" y1="0.5" y2="30"/><line opacity="0.2" x1="376.6414576005964" x2="376.6414576005964" y1="0.5" y2="30"/><line opacity="0.2" x1="191.16761660135876" x2="191.16761660135876" y1="0.5" y2="30"/><line opacity="0.2" x1="477.28183481192525" x2="477.28183481192525" y1="0.5" y2="30"/><line opacity="0.2" x1="232.32044852484398" x2="232.32044852484398" y1="0.5" y2="30"/><line opacity="0.2" x1="388.81265494619" x2="388.81265494619" y1="0.5" y2="30"/><line opacity="0.2" x1="234.24353319836433" x2="234.24353319836433" y1="0.5" y2="30"/><line opacity="0.2" x1="142.38334048671942" x2="142.38334048671942" y1="0.5" y2="30"/><line opacity="0.2" x1="315.7906295611624" x2="315.7906295611624" y1="0.5" y2="30"/><line opacity="0.2" x1="430.22757215986996" x2="430.22757215986996" y1="0.5" y2="30"/><line opacity="0.2" x1="504.7202111885649" x2="504.7202111885649" y1="0.5" y2="30"/><line opacity="0.2" x1="405.5992728625677" x2="405.5992728625677" y1="0.5" y2="30"/><line opacity="0.2" x1="307.6002896354978" x2="307.6002896354978" y1="0.5" y2="30"/><line opacity="0.2" x1="435.94633994041766" x2="435.94633994041766" y1="0.5" y2="30"/><line opacity="0.2" x1="386.8781203048979" x2="386.8781203048979" y1="0.5" y2="30"/><line opacity="0.2" x1="244.29932147533694" x2="244.29932147533694" y1="0.5" y2="30"/><line opacity="0.2" x1="284.0671172831017" x2="284.0671172831017" y1="0.5" y2="30"/><line opacity="0.2" x1="348.27460408644174" x2="348.27460408644174" y1="0.5" y2="30"/><line opacity="0.2" x1="379.9086616307138" x2="379.9086616307138" y1="0.5" y2="30"/><line opacity="0.2" x1="266.31001700237215" x2="266.31001700237215" y1="0.5" y2="30"/><line opacity="0.2" x1="225.00225105171413" x2="225.00225105171413" y1="0.5" y2="30"/><line opacity="0.2" x1="319.79489739620396" x2="319.79489739620396" y1="0.5" y2="30"/><line opacity="0.2" x1="434.0174853132932" x2="434.0174853132932" y1="0.5" y2="30"/><line opacity="0.2" x1="359.3819839270055" x2="359.3819839270055" y1="0.5" y2="30"/><line opacity="0.2" x1="320.335534076724" x2="320.335534076724" y1="0.5" y2="30"/><line opacity="0.2" x1="363.79083271846304" x2="363.79083271846304" y1="0.5" y2="30"/><line opacity="0.2" x1="407.93573836203257" x2="407.93573836203257" y1="0.5" y2="30"/><line opacity="0.2" x1="400.3669713790356" x2="400.3669713790356" y1="0.5" y2="30"/><line opacity="0.2" x1="317.318117266942" x2="317.318117266942" y1="0.5" y2="30"/><line opacity="0.2" x1="331.33274046672966" x2="331.33274046672966" y1="0.5" y2="30"/><line opacity="0.2" x1="322.65436946880857" x2="322.65436946880857" y1="0.5" y2="30"/><line opacity="0.2" x1="581.6497641911899" x2="581.6497641911899" y1="0.5" y2="30"/><line opacity="0.2" x1="321.7350270730004" x2="321.7350270730004" y1="0.5" y2="30"/><line opacity="0.2" x1="363.51430833735" x2="363.51430833735" y1="0.5" y2="30"/><line opacity="0.2" x1="264.9741036479519" x2="264.9741036479519" y1="0.5" y2="30"/><line opacity="0.2" x1="243.74395637836082" x2="243.74395637836082" y1="0.5" y2="30"/><line opacity="0.2" x1="346.65282648897187" x2="346.65282648897187" y1="0.5" y2="30"/><line opacity="0.2" x1="341.9286385190635" x2="341.9286385190635" y1="0.5" y2="30"/><line opacity="0.2" x1="460.6408577242852" x2="460.6408577242852" y1="0.5" y2="30"/><line opacity="0.2" x1="373.6178359813572" x2="373.6178359813572" y1="0.5" y2="30"/><line opacity="0.2" x1="446.18367029668764" x2="446.18367029668764" y1="0.5" y2="30"/><line opacity="0.2" x1="194.83574117424152" x2="194.83574117424152" y1="0.5" y2="30"/><line opacity="0.2" x1="470.28697433270776" x2="470.28697433270776" y1="0.5" y2="30"/><line opacity="0.2" x1="282.8663938408793" x2="282.8663938408793" y1="0.5" y2="30"/><line opacity="0.2" x1="360.619962798337" x2="360.619962798337" y1="0.5" y2="30"/><line opacity="0.2" x1="336.98510133011894" x2="336.98510133011894" y1="0.5" y2="30"/><line opacity="0.2" x1="192.5386370354438" x2="192.5386370354438" y1="0.5" y2="30"/><line opacity="0.2" x1="461.2667606282216" x2="461.2667606282216" y1="0.5" y2="30"/><line opacity="0.2" x1="418.04021542665083" x2="418.04021542665083" y1="0.5" y2="30"/><line opacity="0.2" x1="327.16917920629504" x2="327.16917920629504" y1="0.5" y2="30"/><line opacity="0.2" x1="345.08695489910275" x2="345.08695489910275" y1="0.5" y2="30"/><line opacity="0.2" x1="550.1789391588931" x2="550.1789391588931" y1="0.5" y2="30"/><line opacity="0.2" x1="333.8459417205682" x2="333.8459417205682" y1="0.5" y2="30"/><line opacity="0.2" x1="264.0348570883159" x2="264.0348570883159" y1="0.5" y2="30"/><line opacity="0.2" x1="225.54263763292337" x2="225.54263763292337" y1="0.5" y2="30"/><line opacity="0.2" x1="282.50583191158177" x2="282.50583191158177" y1="0.5" y2="30"/><line opacity="0.2" x1="179.84368822266916" x2="179.84368822266916" y1="0.5" y2="30"/><line opacity="0.2" x1="583.6203751689441" x2="583.6203751689441" y1="0.5" y2="30"/><line opacity="0.2" x1="335.1769088037516" x2="335.1769088037516" y1="0.5" y2="30"/><line opacity="0.2" x1="493.981915359872" x2="493.981915359872" y1="0.5" y2="30"/><line opacity="0.2" x1="419.1173126451406" x2="419.1173126451406" y1="0.5" y2="30"/><line opacity="0.2" x1="430.0374085337051" x2="430.0374085337051" y1="0.5" y2="30"/><line opacity="0.2" x1="306.6624058773159" x2="306.6624058773159" y1="0.5" y2="30"/><line opacity="0.2" x1="228.3185881757174" x2="228.3185881757174" y1="0.5" y2="30"/><line opacity="0.2" x1="380.71201779827" x2="380.71201779827" y1="0.5" y2="30"/><line opacity="0.2" x1="366.48274236055465" x2="366.48274236055465" y1="0.5" y2="30"/><line opacity="0.2" x1="537.0060413288547" x2="537.0060413288547" y1="0.5" y2="30"/><line opacity="0.2" x1="366.2009994955722" x2="366.2009994955722" y1="0.5" y2="30"/><line opacity="0.2" x1="219.37163936385926" x2="219.37163936385926" y1="0.5" y2="30"/><line opacity="0.2" x1="301.3742519776761" x2="301.3742519776761" y1="0.5" y2="30"/><line opacity="0.2" x1="335.4915185238049" x2="335.4915185238049" y1="0.5" y2="30"/><line opacity="0.2" x1="265.17467145688227" x2="265.17467145688227" y1="0.5" y2="30"/><line opacity="0.2" x1="397.14026897653895" x2="397.14026897653895" y1="0.5" y2="30"/><line opacity="0.2" x1="387.59441083990987" x2="387.59441083990987" y1="0.5" y2="30"/><line opacity="0.2" x1="235.1994800517883" x2="235.1994800517883" y1="0.5" y2="30"/><line opacity="0.2" x1="561.4809971758303" x2="561.4809971758303" y1="0.5" y2="30"/><line opacity="0.2" x1="210.09429951810193" x2="210.09429951810193" y1="0.5" y2="30"/><line opacity="0.2" x1="342.77649223391757" x2="342.77649223391757" y1="0.5" y2="30"/><line opacity="0.2" x1="227.92441324844347" x2="227.92441324844347" y1="0.5" y2="30"/><line opacity="0.2" x1="391.68411117444157" x2="391.68411117444157" y1="0.5" y2="30"/><line opacity="0.2" x1="298.52870472867966" x2="298.52870472867966" y1="0.5" y2="30"/><line opacity="0.2" x1="270.53125304421724" x2="270.53125304421724" y1="0.5" y2="30"/><line opacity="0.2" x1="377.07232079370095" x2="377.07232079370095" y1="0.5" y2="30"/><line opacity="0.2" x1="498.0175443916186" x2="498.0175443916186" y1="0.5" y2="30"/><line opacity="0.2" x1="322.14405206231993" x2="322.14405206231993" y1="0.5" y2="30"/><line opacity="0.2" x1="202.3211767033292" x2="202.3211767033292" y1="0.5" y2="30"/><line opacity="0.2" x1="308.9718114415259" x2="308.9718114415259" y1="0.5" y2="30"/><line opacity="0.2" x1="379.49293536659115" x2="379.49293536659115" y1="0.5" y2="30"/><line opacity="0.2" x1="355.61768342824627" x2="355.61768342824627" y1="0.5" y2="30"/><line opacity="0.2" x1="344.52786615717554" x2="344.52786615717554" y1="0.5" y2="30"/><line opacity="0.2" x1="560.1465806574807" x2="560.1465806574807" y1="0.5" y2="30"/><line opacity="0.2" x1="292.9860235448238" x2="292.9860235448238" y1="0.5" y2="30"/><line opacity="0.2" x1="57.99445049253114" x2="57.99445049253114" y1="0.5" y2="30"/><line opacity="0.2" x1="365.69262612818534" x2="365.69262612818534" y1="0.5" y2="30"/><line opacity="0.2" x1="443.35303353523716" x2="443.35303353523716" y1="0.5" y2="30"/><line opacity="0.2" x1="267.31305738868855" x2="267.31305738868855" y1="0.5" y2="30"/><line opacity="0.2" x1="346.1127729190405" x2="346.1127729190405" y1="0.5" y2="30"/><line opacity="0.2" x1="233.94140158363444" x2="233.94140158363444" y1="0.5" y2="30"/><line opacity="0.2" x1="256.6047351119661" x2="256.6047351119661" y1="0.5" y2="30"/><line opacity="0.2" x1="349.9306368559569" x2="349.9306368559569" y1="0.5" y2="30"/><line opacity="0.2" x1="347.65805084640596" x2="347.65805084640596" y1="0.5" y2="30"/><line opacity="0.2" x1="426.4886640260061" x2="426.4886640260061" y1="0.5" y2="30"/><line opacity="0.2" x1="382.7025658303805" x2="382.7025658303805" y1="0.5" y2="30"/><line opacity="0.2" x1="402.0278007959318" x2="402.0278007959318" y1="0.5" y2="30"/><line opacity="0.2" x1="397.4954518408134" x2="397.4954518408134" y1="0.5" y2="30"/><line opacity="0.2" x1="257.8511437625916" x2="257.8511437625916" y1="0.5" y2="30"/><line opacity="0.2" x1="137.67452126371532" x2="137.67452126371532" y1="0.5" y2="30"/><line opacity="0.2" x1="167.21487482139378" x2="167.21487482139378" y1="0.5" y2="30"/><line opacity="0.2" x1="290.5166462089274" x2="290.5166462089274" y1="0.5" y2="30"/><line opacity="0.2" x1="276.0172592518095" x2="276.0172592518095" y1="0.5" y2="30"/><line opacity="0.2" x1="267.4196686002262" x2="267.4196686002262" y1="0.5" y2="30"/><line opacity="0.2" x1="87.27093055312908" x2="87.27093055312908" y1="0.5" y2="30"/><line opacity="0.2" x1="317.99184063072255" x2="317.99184063072255" y1="0.5" y2="30"/><line opacity="0.2" x1="364.11380991423994" x2="364.11380991423994" y1="0.5" y2="30"/><line opacity="0.2" x1="325.2125713520634" x2="325.2125713520634" y1="0.5" y2="30"/><line opacity="0.2" x1="200.64108006045916" x2="200.64108006045916" y1="0.5" y2="30"/><line opacity="0.2" x1="367.74646140590426" x2="367.74646140590426" y1="0.5" y2="30"/><line opacity="0.2" x1="353.1419739710942" x2="353.1419739710942" y1="0.5" y2="30"/><line opacity="0.2" x1="312.04870490762875" x2="312.04870490762875" y1="0.5" y2="30"/><line opacity="0.2" x1="504.7563071264802" x2="504.7563071264802" y1="0.5" y2="30"/><line opacity="0.2" x1="307.0151189980966" x2="307.0151189980966" y1="0.5" y2="30"/><line opacity="0.2" x1="461.4809698202887" x2="461.4809698202887" y1="0.5" y2="30"/><line opacity="0.2" x1="355.2704227341832" x2="355.2704227341832" y1="0.5" y2="30"/><line opacity="0.2" x1="497.3050834912956" x2="497.3050834912956" y1="0.5" y2="30"/><line opacity="0.2" x1="261.0193162734054" x2="261.0193162734054" y1="0.5" y2="30"/><line opacity="0.2" x1="369.636017082979" x2="369.636017082979" y1="0.5" y2="30"/><line opacity="0.2" x1="309.36938813978696" x2="309.36938813978696" y1="0.5" y2="30"/><line opacity="0.2" x1="446.08962362876855" x2="446.08962362876855" y1="0.5" y2="30"/><line opacity="0.2" x1="119.76638062736974" x2="119.76638062736974" y1="0.5" y2="30"/><line opacity="0.2" x1="187.27879864238824" x2="187.27879864238824" y1="0.5" y2="30"/><line opacity="0.2" x1="344.9509045652186" x2="344.9509045652186" y1="0.5" y2="30"/><line opacity="0.2" x1="370.34854633586804" x2="370.34854633586804" y1="0.5" y2="30"/><line opacity="0.2" x1="263.75782830098245" x2="263.75782830098245" y1="0.5" y2="30"/><line opacity="0.2" x1="385.27228553486805" x2="385.27228553486805" y1="0.5" y2="30"/><line opacity="0.2" x1="270.3499101298386" x2="270.3499101298386" y1="0.5" y2="30"/><line opacity="0.2" x1="223.58524570764354" x2="223.58524570764354" y1="0.5" y2="30"/><line opacity="0.2" x1="382.9735494504163" x2="382.9735494504163" y1="0.5" y2="30"/><line opacity="0.2" x1="505.07249982262306" x2="505.07249982262306" y1="0.5" y2="30"/><line opacity="0.2" x1="264.51995428074133" x2="264.51995428074133" y1="0.5" y2="30"/><line opacity="0.2" x1="166.61496704883922" x2="166.61496704883922" y1="0.5" y2="30"/><line opacity="0.2" x1="346.0147988703499" x2="346.0147988703499" y1="0.5" y2="30"/><line opacity="0.2" x1="374.6825787665243" x2="374.6825787665243" y1="0.5" y2="30"/><line opacity="0.2" x1="250.00366598891713" x2="250.00366598891713" y1="0.5" y2="30"/><line opacity="0.2" x1="445.07493826925327" x2="445.07493826925327" y1="0.5" y2="30"/><line opacity="0.2" x1="244.3867367896445" x2="244.3867367896445" y1="0.5" y2="30"/><line opacity="0.2" x1="165.97747957988395" x2="165.97747957988395" y1="0.5" y2="30"/><line opacity="0.2" x1="563.4016399661417" x2="563.4016399661417" y1="0.5" y2="30"/><line opacity="0.2" x1="331.4897460439202" x2="331.4897460439202" y1="0.5" y2="30"/><line opacity="0.2" x1="320.84456925466276" x2="320.84456925466276" y1="0.5" y2="30"/><line opacity="0.2" x1="202.93875219347856" x2="202.93875219347856" y1="0.5" y2="30"/><line opacity="0.2" x1="244.24551982643055" x2="244.24551982643055" y1="0.5" y2="30"/><line opacity="0.2" x1="262.01360144432505" x2="262.01360144432505" y1="0.5" y2="30"/><line opacity="0.2" x1="259.306883062114" x2="259.306883062114" y1="0.5" y2="30"/><line opacity="0.2" x1="140.0728300887364" x2="140.0728300887364" y1="0.5" y2="30"/><line opacity="0.2" x1="337.7067596074434" x2="337.7067596074434" y1="0.5" y2="30"/><line opacity="0.2" x1="314.6585998393456" x2="314.6585998393456" y1="0.5" y2="30"/><line opacity="0.2" x1="204.31465240568264" x2="204.31465240568264" y1="0.5" y2="30"/><line opacity="0.2" x1="102.82980845155905" x2="102.82980845155905" y1="0.5" y2="30"/><line opacity="0.2" x1="431.7789148119445" x2="431.7789148119445" y1="0.5" y2="30"/><line opacity="0.2" x1="380.95585016145395" x2="380.95585016145395" y1="0.5" y2="30"/><line opacity="0.2" x1="198.3098764036974" x2="198.3098764036974" y1="0.5" y2="30"/><line opacity="0.2" x1="440.42547066052276" x2="440.42547066052276" y1="0.5" y2="30"/><line opacity="0.2" x1="285.3654681535334" x2="285.3654681535334" y1="0.5" y2="30"/><line opacity="0.2" x1="340.0802095358667" x2="340.0802095358667" y1="0.5" y2="30"/><line opacity="0.2" x1="212.47803309973108" x2="212.47803309973108" y1="0.5" y2="30"/><line opacity="0.2" x1="279.4442236961856" x2="279.4442236961856" y1="0.5" y2="30"/><line opacity="0.2" x1="289.4253865960052" x2="289.4253865960052" y1="0.5" y2="30"/><line opacity="0.2" x1="450.3648601946931" x2="450.3648601946931" y1="0.5" y2="30"/><line opacity="0.2" x1="372.67806406698" x2="372.67806406698" y1="0.5" y2="30"/><line opacity="0.2" x1="236.83262120586423" x2="236.83262120586423" y1="0.5" y2="30"/><line opacity="0.2" x1="271.39184592571524" x2="271.39184592571524" y1="0.5" y2="30"/><line opacity="0.2" x1="430.3993505420852" x2="430.3993505420852" y1="0.5" y2="30"/><line opacity="0.2" x1="192.0483360831772" x2="192.0483360831772" y1="0.5" y2="30"/><line opacity="0.2" x1="308.8451025992" x2="308.8451025992" y1="0.5" y2="30"/><line opacity="0.2" x1="474.6350940737194" x2="474.6350940737194" y1="0.5" y2="30"/><line opacity="0.2" x1="305.47469822762343" x2="305.47469822762343" y1="0.5" y2="30"/><line opacity="0.2" x1="373.9749204044429" x2="373.9749204044429" y1="0.5" y2="30"/><line opacity="0.2" x1="438.7110000433853" x2="438.7110000433853" y1="0.5" y2="30"/><line opacity="0.2" x1="265.7597388953416" x2="265.7597388953416" y1="0.5" y2="30"/><line opacity="0.2" x1="249.06460883370812" x2="249.06460883370812" y1="0.5" y2="30"/><line opacity="0.2" x1="469.54965801818844" x2="469.54965801818844" y1="0.5" y2="30"/><line opacity="0.2" x1="400.1756151301802" x2="400.1756151301802" y1="0.5" y2="30"/><line opacity="0.2" x1="213.9123479600837" x2="213.9123479600837" y1="0.5" y2="30"/><line opacity="0.2" x1="526.4389442595865" x2="526.4389442595865" y1="0.5" y2="30"/><line opacity="0.2" x1="407.35814765689025" x2="407.35814765689025" y1="0.5" y2="30"/><line opacity="0.2" x1="154.57731094193323" x2="154.57731094193323" y1="0.5" y2="30"/><line opacity="0.2" x1="325.21477907753274" x2="325.21477907753274" y1="0.5" y2="30"/><line opacity="0.2" x1="308.70383971153166" x2="308.70383971153166" y1="0.5" y2="30"/><line opacity="0.2" x1="250.13148394797008" x2="250.13148394797008" y1="0.5" y2="30"/><line opacity="0.2" x1="401.0032607939237" x2="401.0032607939237" y1="0.5" y2="30"/><line opacity="0.2" x1="364.62539289857807" x2="364.62539289857807" y1="0.5" y2="30"/><line opacity="0.2" x1="378.1816392392961" x2="378.1816392392961" y1="0.5" y2="30"/><line opacity="0.2" x1="300.4776406364678" x2="300.4776406364678" y1="0.5" y2="30"/><line opacity="0.2" x1="295.57989034651774" x2="295.57989034651774" y1="0.5" y2="30"/><line opacity="0.2" x1="404.1727830402246" x2="404.1727830402246" y1="0.5" y2="30"/><line opacity="0.2" x1="383.49049329047637" x2="383.49049329047637" y1="0.5" y2="30"/><line opacity="0.2" x1="354.75428293476875" x2="354.75428293476875" y1="0.5" y2="30"/><line opacity="0.2" x1="275.8488711162156" x2="275.8488711162156" y1="0.5" y2="30"/><line opacity="0.2" x1="529.0317911086452" x2="529.0317911086452" y1="0.5" y2="30"/><line opacity="0.2" x1="351.28901505655296" x2="351.28901505655296" y1="0.5" y2="30"/><line opacity="0.2" x1="299.00094571034134" x2="299.00094571034134" y1="0.5" y2="30"/><line opacity="0.2" x1="253.3353283944174" x2="253.3353283944174" y1="0.5" y2="30"/><line opacity="0.2" x1="330.64002234523366" x2="330.64002234523366" y1="0.5" y2="30"/><line opacity="0.2" x1="432.48674778180873" x2="432.48674778180873" y1="0.5" y2="30"/><line opacity="0.2" x1="371.71778619005295" x2="371.71778619005295" y1="0.5" y2="30"/><line opacity="0.2" x1="521.2877682252393" x2="521.2877682252393" y1="0.5" y2="30"/><line opacity="0.2" x1="140.39378424783482" x2="140.39378424783482" y1="0.5" y2="30"/><line opacity="0.2" x1="254.14300956144146" x2="254.14300956144146" y1="0.5" y2="30"/><line opacity="0.2" x1="441.3885187921517" x2="441.3885187921517" y1="0.5" y2="30"/><line opacity="0.2" x1="329.01305738094396" x2="329.01305738094396" y1="0.5" y2="30"/><line opacity="0.2" x1="514.3426708804866" x2="514.3426708804866" y1="0.5" y2="30"/><line opacity="0.2" x1="352.65478779319955" x2="352.65478779319955" y1="0.5" y2="30"/><line opacity="0.2" x1="255.9219063883597" x2="255.9219063883597" y1="0.5" y2="30"/><line opacity="0.2" x1="372.5892086546642" x2="372.5892086546642" y1="0.5" y2="30"/><line opacity="0.2" x1="414.1933851847053" x2="414.1933851847053" y1="0.5" y2="30"/><line opacity="0.2" x1="413.3104174481835" x2="413.3104174481835" y1="0.5" y2="30"/><line opacity="0.2" x1="315.30786360868035" x2="315.30786360868035" y1="0.5" y2="30"/><line opacity="0.2" x1="425.1930789336568" x2="425.1930789336568" y1="0.5" y2="30"/><line opacity="0.2" x1="123.00582744644743" x2="123.00582744644743" y1="0.5" y2="30"/><line opacity="0.2" x1="435.9233204501121" x2="435.9233204501121" y1="0.5" y2="30"/><line opacity="0.2" x1="266.6525235635945" x2="266.6525235635945" y1="0.5" y2="30"/><line opacity="0.2" x1="92.83352560306925" x2="92.83352560306925" y1="0.5" y2="30"/><line opacity="0.2" x1="474.41977351630965" x2="474.41977351630965" y1="0.5" y2="30"/><line opacity="0.2" x1="237.51085160595377" x2="237.51085160595377" y1="0.5" y2="30"/><line opacity="0.2" x1="524.0627911519231" x2="524.0627911519231" y1="0.5" y2="30"/><line opacity="0.2" x1="300.07888256548455" x2="300.07888256548455" y1="0.5" y2="30"/><line opacity="0.2" x1="437.49240563334615" x2="437.49240563334615" y1="0.5" y2="30"/><line opacity="0.2" x1="484.7849506370163" x2="484.7849506370163" y1="0.5" y2="30"/><line opacity="0.2" x1="151.86059833491782" x2="151.86059833491782" y1="0.5" y2="30"/><line opacity="0.2" x1="423.17214187209777" x2="423.17214187209777" y1="0.5" y2="30"/><line opacity="0.2" x1="508.7998402106517" x2="508.7998402106517" y1="0.5" y2="30"/><line opacity="0.2" x1="169.70754918700925" x2="169.70754918700925" y1="0.5" y2="30"/><line opacity="0.2" x1="442.95529409757165" x2="442.95529409757165" y1="0.5" y2="30"/><line opacity="0.2" x1="268.0503293767379" x2="268.0503293767379" y1="0.5" y2="30"/><line opacity="0.2" x1="185.15476661450765" x2="185.15476661450765" y1="0.5" y2="30"/><line opacity="0.2" x1="340.67248920013117" x2="340.67248920013117" y1="0.5" y2="30"/><line opacity="0.2" x1="233.30659799662675" x2="233.30659799662675" y1="0.5" y2="30"/><line opacity="0.2" x1="407.19011801332243" x2="407.19011801332243" y1="0.5" y2="30"/><line opacity="0.2" x1="174.4920038775995" x2="174.4920038775995" y1="0.5" y2="30"/><line opacity="0.2" x1="367.8208959036444" x2="367.8208959036444" y1="0.5" y2="30"/><line opacity="0.2" x1="496.5532588848493" x2="496.5532588848493" y1="0.5" y2="30"/><line opacity="0.2" x1="364.08715798781475" x2="364.08715798781475" y1="0.5" y2="30"/><line opacity="0.2" x1="474.8802691706755" x2="474.8802691706755" y1="0.5" y2="30"/><line opacity="0.2" x1="388.7696617079912" x2="388.7696617079912" y1="0.5" y2="30"/><line opacity="0.2" x1="176.83834332366473" x2="176.83834332366473" y1="0.5" y2="30"/><line opacity="0.2" x1="255.93904825395862" x2="255.93904825395862" y1="0.5" y2="30"/><line opacity="0.2" x1="538.4387941956913" x2="538.4387941956913" y1="0.5" y2="30"/><line opacity="0.2" x1="313.70962742007174" x2="313.70962742007174" y1="0.5" y2="30"/><line opacity="0.2" x1="238.95894041917848" x2="238.95894041917848" y1="0.5" y2="30"/><line opacity="0.2" x1="300.76695986723854" x2="300.76695986723854" y1="0.5" y2="30"/><line opacity="0.2" x1="202.88686573845368" x2="202.88686573845368" y1="0.5" y2="30"/><line opacity="0.2" x1="325.8694308544874" x2="325.8694308544874" y1="0.5" y2="30"/><line opacity="0.2" x1="334.9968113144047" x2="334.9968113144047" y1="0.5" y2="30"/><line opacity="0.2" x1="308.12216281585955" x2="308.12216281585955" y1="0.5" y2="30"/><line opacity="0.2" x1="396.5533162720271" x2="396.5533162720271" y1="0.5" y2="30"/><line opacity="0.2" x1="316.54026022075067" x2="316.54026022075067" y1="0.5" y2="30"/><line opacity="0.2" x1="298.7367005117538" x2="298.7367005117538" y1="0.5" y2="30"/><line opacity="0.2" x1="375.32776419099946" x2="375.32776419099946" y1="0.5" y2="30"/><line opacity="0.2" x1="434.0698607920562" x2="434.0698607920562" y1="0.5" y2="30"/><line opacity="0.2" x1="303.288473246233" x2="303.288473246233" y1="0.5" y2="30"/><line opacity="0.2" x1="315.26154620602557" x2="315.26154620602557" y1="0.5" y2="30"/><line opacity="0.2" x1="365.1225229583932" x2="365.1225229583932" y1="0.5" y2="30"/><line opacity="0.2" x1="229.29792093989633" x2="229.29792093989633" y1="0.5" y2="30"/><line opacity="0.2" x1="215.31241663738876" x2="215.31241663738876" y1="0.5" y2="30"/><line opacity="0.2" x1="153.99841467560674" x2="153.99841467560674" y1="0.5" y2="30"/><line opacity="0.2" x1="388.2102523408272" x2="388.2102523408272" y1="0.5" y2="30"/><line opacity="0.2" x1="418.39094834231656" x2="418.39094834231656" y1="0.5" y2="30"/><line opacity="0.2" x1="261.3385934580367" x2="261.3385934580367" y1="0.5" y2="30"/><line opacity="0.2" x1="408.4909649939997" x2="408.4909649939997" y1="0.5" y2="30"/><line opacity="0.2" x1="262.5979713296226" x2="262.5979713296226" y1="0.5" y2="30"/><line opacity="0.2" x1="320.11102416397415" x2="320.11102416397415" y1="0.5" y2="30"/><line opacity="0.2" x1="582.2396956040675" x2="582.2396956040675" y1="0.5" y2="30"/><line opacity="0.2" x1="325.0177071712721" x2="325.0177071712721" y1="0.5" y2="30"/><line opacity="0.2" x1="308.40282673696095" x2="308.40282673696095" y1="0.5" y2="30"/><line opacity="0.2" x1="345.0089766604734" x2="345.0089766604734" y1="0.5" y2="30"/><line opacity="0.2" x1="414.30268552691376" x2="414.30268552691376" y1="0.5" y2="30"/><line opacity="0.2" x1="435.92030871701655" x2="435.92030871701655" y1="0.5" y2="30"/><line opacity="0.2" x1="343.83773790521366" x2="343.83773790521366" y1="0.5" y2="30"/><line opacity="0.2" x1="575.4464293689193" x2="575.4464293689193" y1="0.5" y2="30"/><line opacity="0.2" x1="335.0723003121652" x2="335.0723003121652" y1="0.5" y2="30"/><line opacity="0.2" x1="383.1750057189083" x2="383.1750057189083" y1="0.5" y2="30"/><line opacity="0.2" x1="64.27577301419652" x2="64.27577301419652" y1="0.5" y2="30"/><line opacity="0.2" x1="235.6035496148885" x2="235.6035496148885" y1="0.5" y2="30"/><line opacity="0.2" x1="434.26969860415494" x2="434.26969860415494" y1="0.5" y2="30"/><line opacity="0.2" x1="367.0001247712482" x2="367.0001247712482" y1="0.5" y2="30"/><line opacity="0.2" x1="303.2628652870818" x2="303.2628652870818" y1="0.5" y2="30"/><line opacity="0.2" x1="383.10791209045277" x2="383.10791209045277" y1="0.5" y2="30"/><line opacity="0.2" x1="439.10569611901565" x2="439.10569611901565" y1="0.5" y2="30"/><line opacity="0.2" x1="259.140664821185" x2="259.140664821185" y1="0.5" y2="30"/><line opacity="0.2" x1="376.7890799878459" x2="376.7890799878459" y1="0.5" y2="30"/><line opacity="0.2" x1="252.6700852808308" x2="252.6700852808308" y1="0.5" y2="30"/><line opacity="0.2" x1="352.7466874265554" x2="352.7466874265554" y1="0.5" y2="30"/><line opacity="0.2" x1="389.01092410953675" x2="389.01092410953675" y1="0.5" y2="30"/><line opacity="0.2" x1="336.111282780094" x2="336.111282780094" y1="0.5" y2="30"/><line opacity="0.2" x1="453.52941662647214" x2="453.52941662647214" y1="0.5" y2="30"/><line opacity="0.2" x1="294.4528438256732" x2="294.4528438256732" y1="0.5" y2="30"/><line opacity="0.2" x1="138.730141653995" x2="138.730141653995" y1="0.5" y2="30"/><line opacity="0.2" x1="303.72360963979094" x2="303.72360963979094" y1="0.5" y2="30"/><line opacity="0.2" x1="313.14330412946447" x2="313.14330412946447" y1="0.5" y2="30"/><line opacity="0.2" x1="428.56080851256434" x2="428.56080851256434" y1="0.5" y2="30"/><line opacity="0.2" x1="182.43449744113724" x2="182.43449744113724" y1="0.5" y2="30"/><line opacity="0.2" x1="423.33854321514815" x2="423.33854321514815" y1="0.5" y2="30"/><line opacity="0.2" x1="379.16401870398397" x2="379.16401870398397" y1="0.5" y2="30"/><line opacity="0.2" x1="520.9311907800235" x2="520.9311907800235" y1="0.5" y2="30"/><line opacity="0.2" x1="387.211664954093" x2="387.211664954093" y1="0.5" y2="30"/><line opacity="0.2" x1="268.41461065141885" x2="268.41461065141885" y1="0.5" y2="30"/><line opacity="0.2" x1="331.1247410256657" x2="331.1247410256657" y1="0.5" y2="30"/><line opacity="0.2" x1="481.44014533756683" x2="481.44014533756683" y1="0.5" y2="30"/><line opacity="0.2" x1="453.4493498306248" x2="453.4493498306248" y1="0.5" y2="30"/><line opacity="0.2" x1="307.58083064829043" x2="307.58083064829043" y1="0.5" y2="30"/><line opacity="0.2" x1="304.234207051911" x2="304.234207051911" y1="0.5" y2="30"/><line opacity="0.2" x1="328.73417791050184" x2="328.73417791050184" y1="0.5" y2="30"/><line opacity="0.2" x1="363.33541042290966" x2="363.33541042290966" y1="0.5" y2="30"/><line opacity="0.2" x1="292.5153022633045" x2="292.5153022633045" y1="0.5" y2="30"/><line opacity="0.2" x1="334.01179429321706" x2="334.01179429321706" y1="0.5" y2="30"/><line opacity="0.2" x1="371.2845556864484" x2="371.2845556864484" y1="0.5" y2="30"/><line opacity="0.2" x1="444.10405555497596" x2="444.10405555497596" y1="0.5" y2="30"/><line opacity="0.2" x1="518.3254341974589" x2="518.3254341974589" y1="0.5" y2="30"/><line opacity="0.2" x1="377.0520026616031" x2="377.0520026616031" y1="0.5" y2="30"/><line opacity="0.2" x1="302.6249352354699" x2="302.6249352354699" y1="0.5" y2="30"/><line opacity="0.2" x1="341.83092381266056" x2="341.83092381266056" y1="0.5" y2="30"/><line opacity="0.2" x1="324.7700372847214" x2="324.7700372847214" y1="0.5" y2="30"/><line opacity="0.2" x1="363.4179446333496" x2="363.4179446333496" y1="0.5" y2="30"/><line opacity="0.2" x1="355.0985457845405" x2="355.0985457845405" y1="0.5" y2="30"/><line opacity="0.2" x1="220.60273990858144" x2="220.60273990858144" y1="0.5" y2="30"/><line opacity="0.2" x1="250.535225618168" x2="250.535225618168" y1="0.5" y2="30"/><line opacity="0.2" x1="388.33694909545557" x2="388.33694909545557" y1="0.5" y2="30"/><line opacity="0.2" x1="195.94313771452528" x2="195.94313771452528" y1="0.5" y2="30"/><line opacity="0.2" x1="261.5041237935061" x2="261.5041237935061" y1="0.5" y2="30"/><line opacity="0.2" x1="224.96510173752984" x2="224.96510173752984" y1="0.5" y2="30"/><line opacity="0.2" x1="399.94832868069517" x2="399.94832868069517" y1="0.5" y2="30"/><line opacity="0.2" x1="169.6573683625176" x2="169.6573683625176" y1="0.5" y2="30"/><line opacity="0.2" x1="359.415376886188" x2="359.415376886188" y1="0.5" y2="30"/><line opacity="0.2" x1="487.60080205921435" x2="487.60080205921435" y1="0.5" y2="30"/><line opacity="0.2" x1="295.6755315958775" x2="295.6755315958775" y1="0.5" y2="30"/><line opacity="0.2" x1="416.30835864033435" x2="416.30835864033435" y1="0.5" y2="30"/><line opacity="0.2" x1="281.014887442911" x2="281.014887442911" y1="0.5" y2="30"/><line opacity="0.2" x1="397.76594079607634" x2="397.76594079607634" y1="0.5" y2="30"/><line opacity="0.2" x1="475.7587416349646" x2="475.7587416349646" y1="0.5" y2="30"/><line opacity="0.2" x1="358.6257835209062" x2="358.6257835209062" y1="0.5" y2="30"/><line opacity="0.2" x1="467.8051162023109" x2="467.8051162023109" y1="0.5" y2="30"/><line opacity="0.2" x1="421.26502187329163" x2="421.26502187329163" y1="0.5" y2="30"/><line opacity="0.2" x1="268.85684314940767" x2="268.85684314940767" y1="0.5" y2="30"/><line opacity="0.2" x1="310.61032898625524" x2="310.61032898625524" y1="0.5" y2="30"/><line opacity="0.2" x1="298.20466810661856" x2="298.20466810661856" y1="0.5" y2="30"/><line opacity="0.2" x1="335.8720025853453" x2="335.8720025853453" y1="0.5" y2="30"/><line opacity="0.2" x1="163.23741398649562" x2="163.23741398649562" y1="0.5" y2="30"/><line opacity="0.2" x1="421.26969657786134" x2="421.26969657786134" y1="0.5" y2="30"/><line opacity="0.2" x1="351.23721227788786" x2="351.23721227788786" y1="0.5" y2="30"/><line opacity="0.2" x1="274.4724760578002" x2="274.4724760578002" y1="0.5" y2="30"/><line opacity="0.2" x1="525.9416027591558" x2="525.9416027591558" y1="0.5" y2="30"/><line opacity="0.2" x1="332.2151639785297" x2="332.2151639785297" y1="0.5" y2="30"/><line opacity="0.2" x1="292.75649322553653" x2="292.75649322553653" y1="0.5" y2="30"/><line opacity="0.2" x1="333.5393455718633" x2="333.5393455718633" y1="0.5" y2="30"/><line opacity="0.2" x1="275.9737995911386" x2="275.9737995911386" y1="0.5" y2="30"/><line opacity="0.2" x1="442.799399727034" x2="442.799399727034" y1="0.5" y2="30"/><line opacity="0.2" x1="392.6558809582068" x2="392.6558809582068" y1="0.5" y2="30"/><line opacity="0.2" x1="251.00194592542317" x2="251.00194592542317" y1="0.5" y2="30"/><line opacity="0.2" x1="385.5098601276463" x2="385.5098601276463" y1="0.5" y2="30"/><line opacity="0.2" x1="351.73364610297733" x2="351.73364610297733" y1="0.5" y2="30"/><line opacity="0.2" x1="322.0311964962891" x2="322.0311964962891" y1="0.5" y2="30"/><line opacity="0.2" x1="255.7774135846926" x2="255.7774135846926" y1="0.5" y2="30"/><line opacity="0.2" x1="182.75652052902592" x2="182.75652052902592" y1="0.5" y2="30"/><line opacity="0.2" x1="142.06189183972884" x2="142.06189183972884" y1="0.5" y2="30"/><line opacity="0.2" x1="450.5096858767916" x2="450.5096858767916" y1="0.5" y2="30"/><line opacity="0.2" x1="160.3870044517935" x2="160.3870044517935" y1="0.5" y2="30"/><line opacity="0.2" x1="304.7569080435059" x2="304.7569080435059" y1="0.5" y2="30"/><line opacity="0.2" x1="390.6509619307847" x2="390.6509619307847" y1="0.5" y2="30"/><line opacity="0.2" x1="400.98590661771067" x2="400.98590661771067" y1="0.5" y2="30"/><line opacity="0.2" x1="385.2076589147631" x2="385.2076589147631" y1="0.5" y2="30"/><line opacity="0.2" x1="304.8826472810183" x2="304.8826472810183" y1="0.5" y2="30"/><line opacity="0.2" x1="239.746360050212" x2="239.746360050212" y1="0.5" y2="30"/><line opacity="0.2" x1="306.92641953922185" x2="306.92641953922185" y1="0.5" y2="30"/><line opacity="0.2" x1="318.1714844801146" x2="318.1714844801146" y1="0.5" y2="30"/><line opacity="0.2" x1="315.39982534240113" x2="315.39982534240113" y1="0.5" y2="30"/><line opacity="0.2" x1="417.18727789449787" x2="417.18727789449787" y1="0.5" y2="30"/><line opacity="0.2" x1="472.2642624916672" x2="472.2642624916672" y1="0.5" y2="30"/><line opacity="0.2" x1="356.6728600368397" x2="356.6728600368397" y1="0.5" y2="30"/><line opacity="0.2" x1="261.8175818259929" x2="261.8175818259929" y1="0.5" y2="30"/><line opacity="0.2" x1="123.90568980969158" x2="123.90568980969158" y1="0.5" y2="30"/><line opacity="0.2" x1="484.96563729878824" x2="484.96563729878824" y1="0.5" y2="30"/><line opacity="0.2" x1="304.9037855658979" x2="304.9037855658979" y1="0.5" y2="30"/><line opacity="0.2" x1="195.61541721009309" x2="195.61541721009309" y1="0.5" y2="30"/><line opacity="0.2" x1="329.05085937971745" x2="329.05085937971745" y1="0.5" y2="30"/><line opacity="0.2" x1="246.52254664159682" x2="246.52254664159682" y1="0.5" y2="30"/><line opacity="0.2" x1="451.71066136923935" x2="451.71066136923935" y1="0.5" y2="30"/><line opacity="0.2" x1="339.7469053990004" x2="339.7469053990004" y1="0.5" y2="30"/><line opacity="0.2" x1="392.9172668083847" x2="392.9172668083847" y1="0.5" y2="30"/><line opacity="0.2" x1="333.0041436511776" x2="333.0041436511776" y1="0.5" y2="30"/><line opacity="0.2" x1="318.23704923138087" x2="318.23704923138087" y1="0.5" y2="30"/><line opacity="0.2" x1="305.2833694084376" x2="305.2833694084376" y1="0.5" y2="30"/><line opacity="0.2" x1="265.15738983496055" x2="265.15738983496055" y1="0.5" y2="30"/><line opacity="0.2" x1="228.9213722889885" x2="228.9213722889885" y1="0.5" y2="30"/><line opacity="0.2" x1="285.5454127100816" x2="285.5454127100816" y1="0.5" y2="30"/><line opacity="0.2" x1="444.93896729432345" x2="444.93896729432345" y1="0.5" y2="30"/><line opacity="0.2" x1="397.9924947266722" x2="397.9924947266722" y1="0.5" y2="30"/><line opacity="0.2" x1="91.39869736233454" x2="91.39869736233454" y1="0.5" y2="30"/><line opacity="0.2" x1="562.2982869549206" x2="562.2982869549206" y1="0.5" y2="30"/><line opacity="0.2" x1="349.57207232414913" x2="349.57207232414913" y1="0.5" y2="30"/><line opacity="0.2" x1="359.27456567587416" x2="359.27456567587416" y1="0.5" y2="30"/><line opacity="0.2" x1="520.5655479159856" x2="520.5655479159856" y1="0.5" y2="30"/><line opacity="0.2" x1="297.7479727764523" x2="297.7479727764523" y1="0.5" y2="30"/><line opacity="0.2" x1="306.9892804095666" x2="306.9892804095666" y1="0.5" y2="30"/><line opacity="0.2" x1="222.08593538033327" x2="222.08593538033327" y1="0.5" y2="30"/><line opacity="0.2" x1="275.92869274165264" x2="275.92869274165264" y1="0.5" y2="30"/><line opacity="0.2" x1="345.2329444769857" x2="345.2329444769857" y1="0.5" y2="30"/><line opacity="0.2" x1="342.47379937796495" x2="342.47379937796495" y1="0.5" y2="30"/><line opacity="0.2" x1="147.5379740173239" x2="147.5379740173239" y1="0.5" y2="30"/><line opacity="0.2" x1="331.5535296390648" x2="331.5535296390648" y1="0.5" y2="30"/><line opacity="0.2" x1="339.03845493956163" x2="339.03845493956163" y1="0.5" y2="30"/><line opacity="0.2" x1="354.33120013529157" x2="354.33120013529157" y1="0.5" y2="30"/><line opacity="0.2" x1="264.00975621056267" x2="264.00975621056267" y1="0.5" y2="30"/><line opacity="0.2" x1="363.4763930361361" x2="363.4763930361361" y1="0.5" y2="30"/><line opacity="0.2" x1="359.4384522249725" x2="359.4384522249725" y1="0.5" y2="30"/><line opacity="0.2" x1="448.54366828480914" x2="448.54366828480914" y1="0.5" y2="30"/><line opacity="0.2" x1="294.6360869392655" x2="294.6360869392655" y1="0.5" y2="30"/><line opacity="0.2" x1="224.58323470907442" x2="224.58323470907442" y1="0.5" y2="30"/><line opacity="0.2" x1="232.03766509417602" x2="232.03766509417602" y1="0.5" y2="30"/><line opacity="0.2" x1="326.2492175094168" x2="326.2492175094168" y1="0.5" y2="30"/><line opacity="0.2" x1="419.95270885859367" x2="419.95270885859367" y1="0.5" y2="30"/><line opacity="0.2" x1="336.0744053418215" x2="336.0744053418215" y1="0.5" y2="30"/><line opacity="0.2" x1="284.8811820926902" x2="284.8811820926902" y1="0.5" y2="30"/><line opacity="0.2" x1="291.91844426006145" x2="291.91844426006145" y1="0.5" y2="30"/><line opacity="0.2" x1="411.42468061561544" x2="411.42468061561544" y1="0.5" y2="30"/><line opacity="0.2" x1="398.81688652089804" x2="398.81688652089804" y1="0.5" y2="30"/><line opacity="0.2" x1="454.31597684801426" x2="454.31597684801426" y1="0.5" y2="30"/><line opacity="0.2" x1="326.3793364024595" x2="326.3793364024595" y1="0.5" y2="30"/><line opacity="0.2" x1="227.3711720366205" x2="227.3711720366205" y1="0.5" y2="30"/><line opacity="0.2" x1="485.9815118253893" x2="485.9815118253893" y1="0.5" y2="30"/><line opacity="0.2" x1="380.89278030830434" x2="380.89278030830434" y1="0.5" y2="30"/><line opacity="0.2" x1="313.3935539394031" x2="313.3935539394031" y1="0.5" y2="30"/><line opacity="0.2" x1="371.86778151063425" x2="371.86778151063425" y1="0.5" y2="30"/><line opacity="0.2" x1="316.8105128640469" x2="316.8105128640469" y1="0.5" y2="30"/><line opacity="0.2" x1="305.8047136593408" x2="305.8047136593408" y1="0.5" y2="30"/><line opacity="0.2" x1="254.2430041546839" x2="254.2430041546839" y1="0.5" y2="30"/><line opacity="0.2" x1="615.2850896086958" x2="615.2850896086958" y1="0.5" y2="30"/><line opacity="0.2" x1="295.1827897937476" x2="295.1827897937476" y1="0.5" y2="30"/><line opacity="0.2" x1="147.80174794644086" x2="147.80174794644086" y1="0.5" y2="30"/><line opacity="0.2" x1="352.52278209152314" x2="352.52278209152314" y1="0.5" y2="30"/><line opacity="0.2" x1="403.3971732325189" x2="403.3971732325189" y1="0.5" y2="30"/><line opacity="0.2" x1="179.30645176031075" x2="179.30645176031075" y1="0.5" y2="30"/><line opacity="0.2" x1="409.8677249280471" x2="409.8677249280471" y1="0.5" y2="30"/><line opacity="0.2" x1="386.5122507975822" x2="386.5122507975822" y1="0.5" y2="30"/><line opacity="0.2" x1="572.2872964492549" x2="572.2872964492549" y1="0.5" y2="30"/><line opacity="0.2" x1="333.7417395580667" x2="333.7417395580667" y1="0.5" y2="30"/><line opacity="0.2" x1="345.7994060122277" x2="345.7994060122277" y1="0.5" y2="30"/><line opacity="0.2" x1="556.1512126623752" x2="556.1512126623752" y1="0.5" y2="30"/><line opacity="0.2" x1="200.07866403809138" x2="200.07866403809138" y1="0.5" y2="30"/><line opacity="0.2" x1="241.00167852454666" x2="241.00167852454666" y1="0.5" y2="30"/><line opacity="0.2" x1="137.95810677883276" x2="137.95810677883276" y1="0.5" y2="30"/><line opacity="0.2" x1="433.2252982432613" x2="433.2252982432613" y1="0.5" y2="30"/><line opacity="0.2" x1="233.78445249409873" x2="233.78445249409873" y1="0.5" y2="30"/><line opacity="0.2" x1="447.82372482685713" x2="447.82372482685713" y1="0.5" y2="30"/><line opacity="0.2" x1="258.7141826214792" x2="258.7141826214792" y1="0.5" y2="30"/><line opacity="0.2" x1="450.90138711748403" x2="450.90138711748403" y1="0.5" y2="30"/><line opacity="0.2" x1="196.11400007922765" x2="196.11400007922765" y1="0.5" y2="30"/><line opacity="0.2" x1="327.6623291233706" x2="327.6623291233706" y1="0.5" y2="30"/><line opacity="0.2" x1="383.0441941926758" x2="383.0441941926758" y1="0.5" y2="30"/><line opacity="0.2" x1="249.0975130181794" x2="249.0975130181794" y1="0.5" y2="30"/><line opacity="0.2" x1="250.27249191866306" x2="250.27249191866306" y1="0.5" y2="30"/><line opacity="0.2" x1="348.41363430676415" x2="348.41363430676415" y1="0.5" y2="30"/><line opacity="0.2" x1="322.64123517746856" x2="322.64123517746856" y1="0.5" y2="30"/><line opacity="0.2" x1="424.6100701714238" x2="424.6100701714238" y1="0.5" y2="30"/><line opacity="0.2" x1="405.1724951068733" x2="405.1724951068733" y1="0.5" y2="30"/><line opacity="0.2" x1="145.7467305575336" x2="145.7467305575336" y1="0.5" y2="30"/><line opacity="0.2" x1="340.1369708636412" x2="340.1369708636412" y1="0.5" y2="30"/><line opacity="0.2" x1="383.03768694559403" x2="383.03768694559403" y1="0.5" y2="30"/><line opacity="0.2" x1="548.2397892166861" x2="548.2397892166861" y1="0.5" y2="30"/><line opacity="0.2" x1="378.3771998599332" x2="378.3771998599332" y1="0.5" y2="30"/><line opacity="0.2" x1="309.28553773380236" x2="309.28553773380236" y1="0.5" y2="30"/><line opacity="0.2" x1="440.918342293547" x2="440.918342293547" y1="0.5" y2="30"/><line opacity="0.2" x1="269.16929267018094" x2="269.16929267018094" y1="0.5" y2="30"/><line opacity="0.2" x1="474.5924249686698" x2="474.5924249686698" y1="0.5" y2="30"/><line opacity="0.2" x1="416.5934449134354" x2="416.5934449134354" y1="0.5" y2="30"/><line opacity="0.2" x1="321.49126904931205" x2="321.49126904931205" y1="0.5" y2="30"/><line opacity="0.2" x1="391.32428617593143" x2="391.32428617593143" y1="0.5" y2="30"/><line opacity="0.2" x1="297.8660441956829" x2="297.8660441956829" y1="0.5" y2="30"/><line opacity="0.2" x1="200.7536776970322" x2="200.7536776970322" y1="0.5" y2="30"/><line opacity="0.2" x1="291.7524377868402" x2="291.7524377868402" y1="0.5" y2="30"/><line opacity="0.2" x1="407.90426128019914" x2="407.90426128019914" y1="0.5" y2="30"/><line opacity="0.2" x1="153.55885594371247" x2="153.55885594371247" y1="0.5" y2="30"/><line opacity="0.2" x1="195.8948277543418" x2="195.8948277543418" y1="0.5" y2="30"/><line opacity="0.2" x1="197.66578657277182" x2="197.66578657277182" y1="0.5" y2="30"/><line opacity="0.2" x1="241.67955098300087" x2="241.67955098300087" y1="0.5" y2="30"/><line opacity="0.2" x1="409.7751206867697" x2="409.7751206867697" y1="0.5" y2="30"/><line opacity="0.2" x1="183.73222694636883" x2="183.73222694636883" y1="0.5" y2="30"/><line opacity="0.2" x1="313.39053390813393" x2="313.39053390813393" y1="0.5" y2="30"/><line opacity="0.2" x1="294.1448357301564" x2="294.1448357301564" y1="0.5" y2="30"/><line opacity="0.2" x1="187.52950021817324" x2="187.52950021817324" y1="0.5" y2="30"/><line opacity="0.2" x1="268.8403401537638" x2="268.8403401537638" y1="0.5" y2="30"/><line opacity="0.2" x1="389.7531901523747" x2="389.7531901523747" y1="0.5" y2="30"/><line opacity="0.2" x1="457.5924597431496" x2="457.5924597431496" y1="0.5" y2="30"/><line opacity="0.2" x1="551.48928220528" x2="551.48928220528" y1="0.5" y2="30"/><line opacity="0.2" x1="258.8124122240521" x2="258.8124122240521" y1="0.5" y2="30"/><line opacity="0.2" x1="366.01296577826025" x2="366.01296577826025" y1="0.5" y2="30"/><line opacity="0.2" x1="118.18272362935562" x2="118.18272362935562" y1="0.5" y2="30"/><line opacity="0.2" x1="310.19745996792153" x2="310.19745996792153" y1="0.5" y2="30"/><line opacity="0.2" x1="344.092170323052" x2="344.092170323052" y1="0.5" y2="30"/><line opacity="0.2" x1="278.5244392631677" x2="278.5244392631677" y1="0.5" y2="30"/><line opacity="0.2" x1="339.3074277253467" x2="339.3074277253467" y1="0.5" y2="30"/><line opacity="0.2" x1="177.75468773925732" x2="177.75468773925732" y1="0.5" y2="30"/><line opacity="0.2" x1="442.7224398981378" x2="442.7224398981378" y1="0.5" y2="30"/><line opacity="0.2" x1="308.8711168278593" x2="308.8711168278593" y1="0.5" y2="30"/><line opacity="0.2" x1="252.93562380937962" x2="252.93562380937962" y1="0.5" y2="30"/><line opacity="0.2" x1="298.9931828304236" x2="298.9931828304236" y1="0.5" y2="30"/><line opacity="0.2" x1="356.5494966268718" x2="356.5494966268718" y1="0.5" y2="30"/><line opacity="0.2" x1="132.11172697858993" x2="132.11172697858993" y1="0.5" y2="30"/><line opacity="0.2" x1="416.87461033149106" x2="416.87461033149106" y1="0.5" y2="30"/><line opacity="0.2" x1="311.2767747003516" x2="311.2767747003516" y1="0.5" y2="30"/><line opacity="0.2" x1="235.2224878266353" x2="235.2224878266353" y1="0.5" y2="30"/><line opacity="0.2" x1="258.905029656446" x2="258.905029656446" y1="0.5" y2="30"/><line opacity="0.2" x1="390.285090961441" x2="390.285090961441" y1="0.5" y2="30"/><line opacity="0.2" x1="346.92303470613643" x2="346.92303470613643" y1="0.5" y2="30"/><line opacity="0.2" x1="383.51914140467545" x2="383.51914140467545" y1="0.5" y2="30"/><line opacity="0.2" x1="244.9981567057571" x2="244.9981567057571" y1="0.5" y2="30"/><line opacity="0.2" x1="340.62199516576294" x2="340.62199516576294" y1="0.5" y2="30"/><line opacity="0.2" x1="211.76608691770588" x2="211.76608691770588" y1="0.5" y2="30"/><line opacity="0.2" x1="319.02878384852477" x2="319.02878384852477" y1="0.5" y2="30"/><line opacity="0.2" x1="410.95059485652484" x2="410.95059485652484" y1="0.5" y2="30"/><line opacity="0.2" x1="173.18565567171655" x2="173.18565567171655" y1="0.5" y2="30"/><line opacity="0.2" x1="487.0447074233125" x2="487.0447074233125" y1="0.5" y2="30"/><line opacity="0.2" x1="449.6455578635059" x2="449.6455578635059" y1="0.5" y2="30"/><line opacity="0.2" x1="338.8597214409824" x2="338.8597214409824" y1="0.5" y2="30"/><line opacity="0.2" x1="428.87684669015187" x2="428.87684669015187" y1="0.5" y2="30"/><line opacity="0.2" x1="431.1308992969011" x2="431.1308992969011" y1="0.5" y2="30"/><line opacity="0.2" x1="515.3131758464436" x2="515.3131758464436" y1="0.5" y2="30"/><line opacity="0.2" x1="464.3848179062211" x2="464.3848179062211" y1="0.5" y2="30"/><line opacity="0.2" x1="416.9664359461397" x2="416.9664359461397" y1="0.5" y2="30"/><line opacity="0.2" x1="306.58186278718676" x2="306.58186278718676" y1="0.5" y2="30"/><line opacity="0.2" x1="227.8180931723971" x2="227.8180931723971" y1="0.5" y2="30"/><line opacity="0.2" x1="298.10603142708123" x2="298.10603142708123" y1="0.5" y2="30"/><line opacity="0.2" x1="285.98640643026323" x2="285.98640643026323" y1="0.5" y2="30"/><line opacity="0.2" x1="495.5777093078431" x2="495.5777093078431" y1="0.5" y2="30"/><line opacity="0.2" x1="316.4160064442447" x2="316.4160064442447" y1="0.5" y2="30"/><line opacity="0.2" x1="283.3178034831203" x2="283.3178034831203" y1="0.5" y2="30"/><line opacity="0.2" x1="418.30142103999583" x2="418.30142103999583" y1="0.5" y2="30"/><line opacity="0.2" x1="347.0686876981064" x2="347.0686876981064" y1="0.5" y2="30"/><line opacity="0.2" x1="489.7787919023043" x2="489.7787919023043" y1="0.5" y2="30"/><line opacity="0.2" x1="409.41689841518706" x2="409.41689841518706" y1="0.5" y2="30"/><line opacity="0.2" x1="441.53990855413025" x2="441.53990855413025" y1="0.5" y2="30"/><line opacity="0.2" x1="304.5681220367471" x2="304.5681220367471" y1="0.5" y2="30"/><line opacity="0.2" x1="324.94085457387456" x2="324.94085457387456" y1="0.5" y2="30"/><line opacity="0.2" x1="388.4505686557717" x2="388.4505686557717" y1="0.5" y2="30"/><line opacity="0.2" x1="425.0545113422331" x2="425.0545113422331" y1="0.5" y2="30"/><line opacity="0.2" x1="539.5738430585991" x2="539.5738430585991" y1="0.5" y2="30"/><line opacity="0.2" x1="417.12503005341034" x2="417.12503005341034" y1="0.5" y2="30"/><line opacity="0.2" x1="361.27147180052185" x2="361.27147180052185" y1="0.5" y2="30"/><line opacity="0.2" x1="22.760548583313124" x2="22.760548583313124" y1="0.5" y2="30"/><line opacity="0.2" x1="370.70194903789945" x2="370.70194903789945" y1="0.5" y2="30"/><line opacity="0.2" x1="306.42719291920355" x2="306.42719291920355" y1="0.5" y2="30"/><line opacity="0.2" x1="408.56243767669565" x2="408.56243767669565" y1="0.5" y2="30"/><line opacity="0.2" x1="217.8839193090154" x2="217.8839193090154" y1="0.5" y2="30"/><line opacity="0.2" x1="254.92457016213822" x2="254.92457016213822" y1="0.5" y2="30"/><line opacity="0.2" x1="387.1645524553234" x2="387.1645524553234" y1="0.5" y2="30"/><line opacity="0.2" x1="142.9765430468438" x2="142.9765430468438" y1="0.5" y2="30"/><line opacity="0.2" x1="543.6414160161826" x2="543.6414160161826" y1="0.5" y2="30"/><line opacity="0.2" x1="400.90268755678255" x2="400.90268755678255" y1="0.5" y2="30"/><line opacity="0.2" x1="387.5907838602781" x2="387.5907838602781" y1="0.5" y2="30"/><line opacity="0.2" x1="127.91193788814307" x2="127.91193788814307" y1="0.5" y2="30"/><line opacity="0.2" x1="374.32992227138897" x2="374.32992227138897" y1="0.5" y2="30"/><line opacity="0.2" x1="305.7222218095124" x2="305.7222218095124" y1="0.5" y2="30"/><line opacity="0.2" x1="283.8621229582515" x2="283.8621229582515" y1="0.5" y2="30"/><line opacity="0.2" x1="362.90755570494906" x2="362.90755570494906" y1="0.5" y2="30"/><line opacity="0.2" x1="271.0065020898319" x2="271.0065020898319" y1="0.5" y2="30"/><line opacity="0.2" x1="200.96151573151812" x2="200.96151573151812" y1="0.5" y2="30"/><line opacity="0.2" x1="378.0910158098697" x2="378.0910158098697" y1="0.5" y2="30"/><line opacity="0.2" x1="161.47168514950778" x2="161.47168514950778" y1="0.5" y2="30"/><line opacity="0.2" x1="405.23255506347687" x2="405.23255506347687" y1="0.5" y2="30"/><line opacity="0.2" x1="296.48881214497186" x2="296.48881214497186" y1="0.5" y2="30"/><line opacity="0.2" x1="378.28083826913416" x2="378.28083826913416" y1="0.5" y2="30"/><line opacity="0.2" x1="285.83817777643395" x2="285.83817777643395" y1="0.5" y2="30"/><line opacity="0.2" x1="237.89257936491776" x2="237.89257936491776" y1="0.5" y2="30"/><line opacity="0.2" x1="430.7885582311226" x2="430.7885582311226" y1="0.5" y2="30"/><line opacity="0.2" x1="405.88323463269046" x2="405.88323463269046" y1="0.5" y2="30"/><line opacity="0.2" x1="292.5226163192028" x2="292.5226163192028" y1="0.5" y2="30"/><line opacity="0.2" x1="443.70425588472756" x2="443.70425588472756" y1="0.5" y2="30"/><line opacity="0.2" x1="339.9747201682932" x2="339.9747201682932" y1="0.5" y2="30"/><line opacity="0.2" x1="394.18032001711646" x2="394.18032001711646" y1="0.5" y2="30"/><line opacity="0.2" x1="192.52442378389094" x2="192.52442378389094" y1="0.5" y2="30"/><line opacity="0.2" x1="229.65678149344868" x2="229.65678149344868" y1="0.5" y2="30"/><line opacity="0.2" x1="239.217599059994" x2="239.217599059994" y1="0.5" y2="30"/><line opacity="0.2" x1="620" x2="620" y1="0.5" y2="30"/><line opacity="0.2" x1="271.14138459137223" x2="271.14138459137223" y1="0.5" y2="30"/><line opacity="0.2" x1="608.4523769724703" x2="608.4523769724703" y1="0.5" y2="30"/><line opacity="0.2" x1="286.3697769993087" x2="286.3697769993087" y1="0.5" y2="30"/><line opacity="0.2" x1="211.9675522683447" x2="211.9675522683447" y1="0.5" y2="30"/><line opacity="0.2" x1="361.09311757832097" x2="361.09311757832097" y1="0.5" y2="30"/><line opacity="0.2" x1="357.78528504942915" x2="357.78528504942915" y1="0.5" y2="30"/><line opacity="0.2" x1="235.24733506527534" x2="235.24733506527534" y1="0.5" y2="30"/><line opacity="0.2" x1="399.168153796376" x2="399.168153796376" y1="0.5" y2="30"/><line opacity="0.2" x1="440.0625188311426" x2="440.0625188311426" y1="0.5" y2="30"/><line opacity="0.2" x1="313.58885594617635" x2="313.58885594617635" y1="0.5" y2="30"/><line opacity="0.2" x1="364.3690789545783" x2="364.3690789545783" y1="0.5" y2="30"/><line opacity="0.2" x1="344.9533045572754" x2="344.9533045572754" y1="0.5" y2="30"/><line opacity="0.2" x1="318.9407928225488" x2="318.9407928225488" y1="0.5" y2="30"/><line opacity="0.2" x1="334.18589276397597" x2="334.18589276397597" y1="0.5" y2="30"/><line opacity="0.2" x1="155.84075992595845" x2="155.84075992595845" y1="0.5" y2="30"/><line opacity="0.2" x1="192.2936918441551" x2="192.2936918441551" y1="0.5" y2="30"/><line opacity="0.2" x1="227.16520915740932" x2="227.16520915740932" y1="0.5" y2="30"/><line opacity="0.2" x1="417.0802293075679" x2="417.0802293075679" y1="0.5" y2="30"/><line opacity="0.2" x1="271.61178159239387" x2="271.61178159239387" y1="0.5" y2="30"/><line opacity="0.2" x1="468.35789850332054" x2="468.35789850332054" y1="0.5" y2="30"/><line opacity="0.2" x1="197.22425782085622" x2="197.22425782085622" y1="0.5" y2="30"/><line opacity="0.2" x1="242.9621465205812" x2="242.9621465205812" y1="0.5" y2="30"/><line opacity="0.2" x1="318.9482364980188" x2="318.9482364980188" y1="0.5" y2="30"/><line opacity="0.2" x1="300.5225686227974" x2="300.5225686227974" y1="0.5" y2="30"/><line opacity="0.2" x1="99.75236360434005" x2="99.75236360434005" y1="0.5" y2="30"/><line opacity="0.2" x1="582.1308576052344" x2="582.1308576052344" y1="0.5" y2="30"/><line opacity="0.2" x1="358.6820999409859" x2="358.6820999409859" y1="0.5" y2="30"/><line opacity="0.2" x1="312.12796668471844" x2="312.12796668471844" y1="0.5" y2="30"/><line opacity="0.2" x1="441.5397690224367" x2="441.5397690224367" y1="0.5" y2="30"/><line opacity="0.2" x1="583.0081351811212" x2="583.0081351811212" y1="0.5" y2="30"/><line opacity="0.2" x1="354.3519413667253" x2="354.3519413667253" y1="0.5" y2="30"/><line opacity="0.2" x1="320.57894456176984" x2="320.57894456176984" y1="0.5" y2="30"/><line opacity="0.2" x1="328.58957064659444" x2="328.58957064659444" y1="0.5" y2="30"/><line opacity="0.2" x1="524.1769227362144" x2="524.1769227362144" y1="0.5" y2="30"/><line opacity="0.2" x1="323.1040616252171" x2="323.1040616252171" y1="0.5" y2="30"/><line opacity="0.2" x1="446.35040261348973" x2="446.35040261348973" y1="0.5" y2="30"/><line opacity="0.2" x1="282.60555037813185" x2="282.60555037813185" y1="0.5" y2="30"/><line opacity="0.2" x1="502.13499875721914" x2="502.13499875721914" y1="0.5" y2="30"/><line opacity="0.2" x1="345.0175184632824" x2="345.0175184632824" y1="0.5" y2="30"/><line opacity="0.2" x1="215.8125756664477" x2="215.8125756664477" y1="0.5" y2="30"/><line opacity="0.2" x1="420.7999415546165" x2="420.7999415546165" y1="0.5" y2="30"/><line opacity="0.2" x1="422.78766912993007" x2="422.78766912993007" y1="0.5" y2="30"/><line opacity="0.2" x1="287.01028831343206" x2="287.01028831343206" y1="0.5" y2="30"/><line opacity="0.2" x1="519.2167166225379" x2="519.2167166225379" y1="0.5" y2="30"/><line opacity="0.2" x1="451.9636535196414" x2="451.9636535196414" y1="0.5" y2="30"/><line opacity="0.2" x1="439.76143601650693" x2="439.76143601650693" y1="0.5" y2="30"/><line opacity="0.2" x1="369.2745721746601" x2="369.2745721746601" y1="0.5" y2="30"/><line opacity="0.2" x1="124.44184438138495" x2="124.44184438138495" y1="0.5" y2="30"/><line opacity="0.2" x1="338.6059661915265" x2="338.6059661915265" y1="0.5" y2="30"/><line opacity="0.2" x1="506.45942719862165" x2="506.45942719862165" y1="0.5" y2="30"/><line opacity="0.2" x1="316.32650387384064" x2="316.32650387384064" y1="0.5" y2="30"/><line opacity="0.2" x1="326.31329267873366" x2="326.31329267873366" y1="0.5" y2="30"/><line opacity="0.2" x1="258.5700305093808" x2="258.5700305093808" y1="0.5" y2="30"/><line opacity="0.2" x1="361.0313635341401" x2="361.0313635341401" y1="0.5" y2="30"/><line opacity="0.2" x1="200.5199197457695" x2="200.5199197457695" y1="0.5" y2="30"/><line opacity="0.2" x1="452.8658735364699" x2="452.8658735364699" y1="0.5" y2="30"/><line opacity="0.2" x1="286.55647497741694" x2="286.55647497741694" y1="0.5" y2="30"/><line opacity="0.2" x1="190.226162868907" x2="190.226162868907" y1="0.5" y2="30"/><line opacity="0.2" x1="341.3050230154187" x2="341.3050230154187" y1="0.5" y2="30"/><line opacity="0.2" x1="378.0899233034984" x2="378.0899233034984" y1="0.5" y2="30"/><line opacity="0.2" x1="423.45616364072083" x2="423.45616364072083" y1="0.5" y2="30"/><line opacity="0.2" x1="321.9262077879017" x2="321.9262077879017" y1="0.5" y2="30"/><line opacity="0.2" x1="438.5636742148" x2="438.5636742148" y1="0.5" y2="30"/><line opacity="0.2" x1="306.9822801176826" x2="306.9822801176826" y1="0.5" y2="30"/><line opacity="0.2" x1="210.13328383024407" x2="210.13328383024407" y1="0.5" y2="30"/><line opacity="0.2" x1="412.73147271028336" x2="412.73147271028336" y1="0.5" y2="30"/><line opacity="0.2" x1="301.18993618170043" x2="301.18993618170043" y1="0.5" y2="30"/><line opacity="0.2" x1="340.4231038244816" x2="340.4231038244816" y1="0.5" y2="30"/><line opacity="0.2" x1="319.08852509360446" x2="319.08852509360446" y1="0.5" y2="30"/><line opacity="0.2" x1="256.49686740766197" x2="256.49686740766197" y1="0.5" y2="30"/><line opacity="0.2" x1="384.2171463230423" x2="384.2171463230423" y1="0.5" y2="30"/><line opacity="0.2" x1="506.0047433559512" x2="506.0047433559512" y1="0.5" y2="30"/><line opacity="0.2" x1="330.4652162647689" x2="330.4652162647689" y1="0.5" y2="30"/><line opacity="0.2" x1="280.36445420006663" x2="280.36445420006663" y1="0.5" y2="30"/><line opacity="0.2" x1="231.71766140775384" x2="231.71766140775384" y1="0.5" y2="30"/><line opacity="0.2" x1="339.6521087086673" x2="339.6521087086673" y1="0.5" y2="30"/><line opacity="0.2" x1="175.36577447455974" x2="175.36577447455974" y1="0.5" y2="30"/><line opacity="0.2" x1="320.15577998328797" x2="320.15577998328797" y1="0.5" y2="30"/><line opacity="0.2" x1="331.7308378583613" x2="331.7308378583613" y1="0.5" y2="30"/><line opacity="0.2" x1="421.7315416734335" x2="421.7315416734335" y1="0.5" y2="30"/><line opacity="0.2" x1="237.8720047059981" x2="237.8720047059981" y1="0.5" y2="30"/><line opacity="0.2" x1="353.62465946265735" x2="353.62465946265735" y1="0.5" y2="30"/><line opacity="0.2" x1="316.4395858068729" x2="316.4395858068729" y1="0.5" y2="30"/><line opacity="0.2" x1="181.71312579454928" x2="181.71312579454928" y1="0.5" y2="30"/><line opacity="0.2" x1="286.21180036141055" x2="286.21180036141055" y1="0.5" y2="30"/><line opacity="0.2" x1="87.51604428126137" x2="87.51604428126137" y1="0.5" y2="30"/><line opacity="0.2" x1="488.369628588934" x2="488.369628588934" y1="0.5" y2="30"/><line opacity="0.2" x1="337.6280483044773" x2="337.6280483044773" y1="0.5" y2="30"/><line opacity="0.2" x1="326.34967437277646" x2="326.34967437277646" y1="0.5" y2="30"/><line opacity="0.2" x1="249.13584851683865" x2="249.13584851683865" y1="0.5" y2="30"/><line opacity="0.2" x1="516.4731280989334" x2="516.4731280989334" y1="0.5" y2="30"/><line opacity="0.2" x1="595.4248804603961" x2="595.4248804603961" y1="0.5" y2="30"/><line opacity="0.2" x1="127.5076066718126" x2="127.5076066718126" y1="0.5" y2="30"/><line opacity="0.2" x1="488.6542829555003" x2="488.6542829555003" y1="0.5" y2="30"/><line opacity="0.2" x1="297.0030568013513" x2="297.0030568013513" y1="0.5" y2="30"/><line opacity="0.2" x1="362.5137523258667" x2="362.5137523258667" y1="0.5" y2="30"/><line opacity="0.2" x1="260.84698191507664" x2="260.84698191507664" y1="0.5" y2="30"/><line opacity="0.2" x1="51.80433615504036" x2="51.80433615504036" y1="0.5" y2="30"/><line opacity="0.2" x1="429.24795548806725" x2="429.24795548806725" y1="0.5" y2="30"/><line opacity="0.2" x1="286.1927214473017" x2="286.1927214473017" y1="0.5" y2="30"/><line opacity="0.2" x1="416.70769931276755" x2="416.70769931276755" y1="0.5" y2="30"/><line opacity="0.2" x1="257.1867848613469" x2="257.1867848613469" y1="0.5" y2="30"/><line opacity="0.2" x1="320.26165326548244" x2="320.26165326548244" y1="0.5" y2="30"/><line opacity="0.2" x1="95.97461249648015" x2="95.97461249648015" y1="0.5" y2="30"/><line opacity="0.2" x1="435.61850566252133" x2="435.61850566252133" y1="0.5" y2="30"/><line opacity="0.2" x1="165.5295853707624" x2="165.5295853707624" y1="0.5" y2="30"/><line opacity="0.2" x1="451.79051812635555" x2="451.79051812635555" y1="0.5" y2="30"/><line opacity="0.2" x1="272.6118853507828" x2="272.6118853507828" y1="0.5" y2="30"/><line opacity="0.2" x1="340.39571713155783" x2="340.39571713155783" y1="0.5" y2="30"/><line opacity="0.2" x1="202.89192091740884" x2="202.89192091740884" y1="0.5" y2="30"/><line opacity="0.2" x1="133.20850882807534" x2="133.20850882807534" y1="0.5" y2="30"/><line opacity="0.2" x1="347.00520364075055" x2="347.00520364075055" y1="0.5" y2="30"/><line opacity="0.2" x1="414.9762875979549" x2="414.9762875979549" y1="0.5" y2="30"/><line opacity="0.2" x1="416.734625516398" x2="416.734625516398" y1="0.5" y2="30"/><line opacity="0.2" x1="488.4964060805542" x2="488.4964060805542" y1="0.5" y2="30"/><line opacity="0.2" x1="355.4970974405736" x2="355.4970974405736" y1="0.5" y2="30"/><line opacity="0.2" x1="438.0040246699058" x2="438.0040246699058" y1="0.5" y2="30"/><line opacity="0.2" x1="427.1903465868131" x2="427.1903465868131" y1="0.5" y2="30"/><line opacity="0.2" x1="295.4854557046617" x2="295.4854557046617" y1="0.5" y2="30"/><line opacity="0.2" x1="196.00507229473814" x2="196.00507229473814" y1="0.5" y2="30"/><line opacity="0.2" x1="470.31319539318724" x2="470.31319539318724" y1="0.5" y2="30"/><line opacity="0.2" x1="341.0018704322294" x2="341.0018704322294" y1="0.5" y2="30"/><line opacity="0.2" x1="20" x2="20" y1="0.5" y2="30"/><line opacity="0.2" x1="291.7763336369151" x2="291.7763336369151" y1="0.5" y2="30"/><line opacity="0.2" x1="329.3415775728049" x2="329.3415775728049" y1="0.5" y2="30"/><line opacity="0.2" x1="259.06599981457487" x2="259.06599981457487" y1="0.5" y2="30"/><line opacity="0.2" x1="340.81073385176603" x2="340.81073385176603" y1="0.5" y2="30"/><line opacity="0.2" x1="377.9469805740405" x2="377.9469805740405" y1="0.5" y2="30"/><line opacity="0.2" x1="241.5378954898004" x2="241.5378954898004" y1="0.5" y2="30"/><line opacity="0.2" x1="222.6487698029672" x2="222.6487698029672" y1="0.5" y2="30"/><line opacity="0.2" x1="246.16301099320097" x2="246.16301099320097" y1="0.5" y2="30"/><line opacity="0.2" x1="319.98548549349147" x2="319.98548549349147" y1="0.5" y2="30"/><line opacity="0.2" x1="401.1304922395298" x2="401.1304922395298" y1="0.5" y2="30"/><line opacity="0.2" x1="285.9893020171997" x2="285.9893020171997" y1="0.5" y2="30"/><line opacity="0.2" x1="261.2754209330961" x2="261.2754209330961" y1="0.5" y2="30"/><line opacity="0.2" x1="356.3497167319755" x2="356.3497167319755" y1="0.5" y2="30"/><line opacity="0.2" x1="430.1396729819883" x2="430.1396729819883" y1="0.5" y2="30"/><line opacity="0.2" x1="455.9463218846471" x2="455.9463218846471" y1="0.5" y2="30"/><line opacity="0.2" x1="387.2747834635876" x2="387.2747834635876" y1="0.5" y2="30"/><line opacity="0.2" x1="302.6155557795222" x2="302.6155557795222" y1="0.5" y2="30"/><line opacity="0.2" x1="307.10373222367383" x2="307.10373222367383" y1="0.5" y2="30"/><line opacity="0.2" x1="307.44569178051955" x2="307.44569178051955" y1="0.5" y2="30"/><line opacity="0.2" x1="247.46706037961468" x2="247.46706037961468" y1="0.5" y2="30"/><line opacity="0.2" x1="332.18717652202616" x2="332.18717652202616" y1="0.5" y2="30"/><line opacity="0.2" x1="244.72462855423652" x2="244.72462855423652" y1="0.5" y2="30"/><line opacity="0.2" x1="334.6833012838704" x2="334.6833012838704" y1="0.5" y2="30"/><line opacity="0.2" x1="383.5114050509702" x2="383.5114050509702" y1="0.5" y2="30"/><line opacity="0.2" x1="453.0382811027937" x2="453.0382811027937" y1="0.5" y2="30"/><line opacity="0.2" x1="347.0453014993526" x2="347.0453014993526" y1="0.5" y2="30"/><line opacity="0.2" x1="200.2435592325546" x2="200.2435592325546" y1="0.5" y2="30"/><line opacity="0.2" x1="270.4896474736053" x2="270.4896474736053" y1="0.5" y2="30"/><line opacity="0.2" x1="136.22267348934207" x2="136.22267348934207" y1="0.5" y2="30"/><line opacity="0.2" x1="331.5627381067842" x2="331.5627381067842" y1="0.5" y2="30"/><line opacity="0.2" x1="402.73311697100405" x2="402.73311697100405" y1="0.5" y2="30"/><line opacity="0.2" x1="330.30183410326015" x2="330.30183410326015" y1="0.5" y2="30"/><line opacity="0.2" x1="230.15090273195773" x2="230.15090273195773" y1="0.5" y2="30"/><line opacity="0.2" x1="408.0726624539111" x2="408.0726624539111" y1="0.5" y2="30"/><line opacity="0.2" x1="253.43561234813433" x2="253.43561234813433" y1="0.5" y2="30"/><line opacity="0.2" x1="388.4680736272917" x2="388.4680736272917" y1="0.5" y2="30"/><line opacity="0.2" x1="413.0576169812471" x2="413.0576169812471" y1="0.5" y2="30"/><line opacity="0.2" x1="411.7252356263299" x2="411.7252356263299" y1="0.5" y2="30"/><line opacity="0.2" x1="266.53526885882366" x2="266.53526885882366" y1="0.5" y2="30"/><line opacity="0.2" x1="382.0735824159427" x2="382.0735824159427" y1="0.5" y2="30"/><line opacity="0.2" x1="420.7874496496502" x2="420.7874496496502" y1="0.5" y2="30"/><line opacity="0.2" x1="463.994514506642" x2="463.994514506642" y1="0.5" y2="30"/><line opacity="0.2" x1="345.49376825875424" x2="345.49376825875424" y1="0.5" y2="30"/><line opacity="0.2" x1="401.43896640952806" x2="401.43896640952806" y1="0.5" y2="30"/><line opacity="0.2" x1="366.3581769648173" x2="366.3581769648173" y1="0.5" y2="30"/><line opacity="0.2" x1="329.7103376733834" x2="329.7103376733834" y1="0.5" y2="30"/><line opacity="0.2" x1="323.46076500113634" x2="323.46076500113634" y1="0.5" y2="30"/><line opacity="0.2" x1="250.8118947858803" x2="250.8118947858803" y1="0.5" y2="30"/><line opacity="0.2" x1="545.5732010141626" x2="545.5732010141626" y1="0.5" y2="30"/><line opacity="0.2" x1="372.84131846602963" x2="372.84131846602963" y1="0.5" y2="30"/><line opacity="0.2" x1="409.82261456890126" x2="409.82261456890126" y1="0.5" y2="30"/><line opacity="0.2" x1="343.6611320066576" x2="343.6611320066576" y1="0.5" y2="30"/><line opacity="0.2" x1="189.61701430471544" x2="189.61701430471544" y1="0.5" y2="30"/><line opacity="0.2" x1="371.59002104992777" x2="371.59002104992777" y1="0.5" y2="30"/><line opacity="0.2" x1="249.15466539910418" x2="249.15466539910418" y1="0.5" y2="30"/><line opacity="0.2" x1="216.41904565646263" x2="216.41904565646263" y1="0.5" y2="30"/><line opacity="0.2" x1="214.31328123447418" x2="214.31328123447418" y1="0.5" y2="30"/><line opacity="0.2" x1="161.91567022671714" x2="161.91567022671714" y1="0.5" y2="30"/><line opacity="0.2" x1="361.5820249435998" x2="361.5820249435998" y1="0.5" y2="30"/><line opacity="0.2" x1="367.8159807449958" x2="367.8159807449958" y1="0.5" y2="30"/><line opacity="0.2" x1="266.04910160209636" x2="266.04910160209636" y1="0.5" y2="30"/><line opacity="0.2" x1="396.67647249997685" x2="396.67647249997685" y1="0.5" y2="30"/><line opacity="0.2" x1="333.92608385832614" x2="333.92608385832614" y1="0.5" y2="30"/><line opacity="0.2" x1="107.9415116683499" x2="107.9415116683499" y1="0.5" y2="30"/><line opacity="0.2" x1="494.8200531299567" x2="494.8200531299567" y1="0.5" y2="30"/><line opacity="0.2" x1="369.8339006014715" x2="369.8339006014715" y1="0.5" y2="30"/><line opacity="0.2" x1="362.9962408957314" x2="362.9962408957314" y1="0.5" y2="30"/><line opacity="0.2" x1="401.5696631421886" x2="401.5696631421886" y1="0.5" y2="30"/><line opacity="0.2" x1="360.4660217316047" x2="360.4660217316047" y1="0.5" y2="30"/><line opacity="0.2" x1="258.1073250472284" x2="258.1073250472284" y1="0.5" y2="30"/><line opacity="0.2" x1="370.3411368614858" x2="370.3411368614858" y1="0.5" y2="30"/><line opacity="0.2" x1="286.92401832877135" x2="286.92401832877135" y1="0.5" y2="30"/><line opacity="0.2" x1="184.4830088774207" x2="184.4830088774207" y1="0.5" y2="30"/><line opacity="0.2" x1="428.5102144666301" x2="428.5102144666301" y1="0.5" y2="30"/><line opacity="0.2" x1="289.3132636467658" x2="289.3132636467658" y1="0.5" y2="30"/><line opacity="0.2" x1="379.1831049772021" x2="379.1831049772021" y1="0.5" y2="30"/><line opacity="0.2" x1="458.2626630578361" x2="458.2626630578361" y1="0.5" y2="30"/><line opacity="0.2" x1="366.6786910277111" x2="366.6786910277111" y1="0.5" y2="30"/><line opacity="0.2" x1="321.2077335714069" x2="321.2077335714069" y1="0.5" y2="30"/><line opacity="0.2" x1="330.8742376873221" x2="330.8742376873221" y1="0.5" y2="30"/><line opacity="0.2" x1="359.49888963205024" x2="359.49888963205024" y1="0.5" y2="30"/><line opacity="0.2" x1="299.4888484201515" x2="299.4888484201515" y1="0.5" y2="30"/><line opacity="0.2" x1="513.0687187704989" x2="513.0687187704989" y1="0.5" y2="30"/><line opacity="0.2" x1="427.5215064813828" x2="427.5215064813828" y1="0.5" y2="30"/><line opacity="0.2" x1="316.0482925644018" x2="316.0482925644018" y1="0.5" y2="30"/><line opacity="0.2" x1="411.16021076868776" x2="411.16021076868776" y1="0.5" y2="30"/><line opacity="0.2" x1="338.81615505316273" x2="338.81615505316273" y1="0.5" y2="30"/><line opacity="0.2" x1="280.2756805729305" x2="280.2756805729305" y1="0.5" y2="30"/><line opacity="0.2" x1="312.43138465665317" x2="312.43138465665317" y1="0.5" y2="30"/><line opacity="0.2" x1="470.6385779254379" x2="470.6385779254379" y1="0.5" y2="30"/><line opacity="0.2" x1="406.60971689729837" x2="406.60971689729837" y1="0.5" y2="30"/><line opacity="0.2" x1="371.1454971169972" x2="371.1454971169972" y1="0.5" y2="30"/><line opacity="0.2" x1="435.30078189072646" x2="435.30078189072646" y1="0.5" y2="30"/><line opacity="0.2" x1="265.4640649969701" x2="265.4640649969701" y1="0.5" y2="30"/><line opacity="0.2" x1="408.5705547423015" x2="408.5705547423015" y1="0.5" y2="30"/><line opacity="0.2" x1="211.14027857427422" x2="211.14027857427422" y1="0.5" y2="30"/><line opacity="0.2" x1="481.31907833215604" x2="481.31907833215604" y1="0.5" y2="30"/><line opacity="0.2" x1="300.4112301482851" x2="300.4112301482851" y1="0.5" y2="30"/><line opacity="0.2" x1="396.4078756486479" x2="396.4078756486479" y1="0.5" y2="30"/><line opacity="0.2" x1="251.07927311322052" x2="251.07927311322052" y1="0.5" y2="30"/><line opacity="0.2" x1="207.4350767459474" x2="207.4350767459474" y1="0.5" y2="30"/><line opacity="0.2" x1="199.17592925682004" x2="199.17592925682004" y1="0.5" y2="30"/><line opacity="0.2" x1="377.96114295292676" x2="377.96114295292676" y1="0.5" y2="30"/><line opacity="0.2" x1="335.1549121522204" x2="335.1549121522204" y1="0.5" y2="30"/><line opacity="0.2" x1="354.4939837322215" x2="354.4939837322215" y1="0.5" y2="30"/><line opacity="0.2" x1="305.2279085058074" x2="305.2279085058074" y1="0.5" y2="30"/><line opacity="0.2" x1="339.24398473496007" x2="339.24398473496007" y1="0.5" y2="30"/><line opacity="0.2" x1="278.83537257959915" x2="278.83537257959915" y1="0.5" y2="30"/><line opacity="0.2" x1="350.08436594705006" x2="350.08436594705006" y1="0.5" y2="30"/><line opacity="0.2" x1="291.6041778395327" x2="291.6041778395327" y1="0.5" y2="30"/><line opacity="0.2" x1="311.76091339660053" x2="311.76091339660053" y1="0.5" y2="30"/><line opacity="0.2" x1="376.70973860809636" x2="376.70973860809636" y1="0.5" y2="30"/><line opacity="0.2" x1="215.70335461410735" x2="215.70335461410735" y1="0.5" y2="30"/><line opacity="0.2" x1="502.4686361644477" x2="502.4686361644477" y1="0.5" y2="30"/><line opacity="0.2" x1="325.0455851598876" x2="325.0455851598876" y1="0.5" y2="30"/><line opacity="0.2" x1="215.07433730522604" x2="215.07433730522604" y1="0.5" y2="30"/><line opacity="0.2" x1="358.83615966767303" x2="358.83615966767303" y1="0.5" y2="30"/><line opacity="0.2" x1="497.9184088149077" x2="497.9184088149077" y1="0.5" y2="30"/><line opacity="0.2" x1="416.3158556835547" x2="416.3158556835547" y1="0.5" y2="30"/><line opacity="0.2" x1="274.95712129072155" x2="274.95712129072155" y1="0.5" y2="30"/><line opacity="0.2" x1="334.50594711257304" x2="334.50594711257304" y1="0.5" y2="30"/><line opacity="0.2" x1="181.74415201525315" x2="181.74415201525315" y1="0.5" y2="30"/><line opacity="0.2" x1="373.1898172412632" x2="373.1898172412632" y1="0.5" y2="30"/><line opacity="0.2" x1="598.3591919882575" x2="598.3591919882575" y1="0.5" y2="30"/><line opacity="0.2" x1="359.11131927800693" x2="359.11131927800693" y1="0.5" y2="30"/><line opacity="0.2" x1="119.82721104689745" x2="119.82721104689745" y1="0.5" y2="30"/><line opacity="0.2" x1="375.88073260470156" x2="375.88073260470156" y1="0.5" y2="30"/><line opacity="0.2" x1="310.11967487766185" x2="310.11967487766185" y1="0.5" y2="30"/><line opacity="0.2" x1="309.8659677052499" x2="309.8659677052499" y1="0.5" y2="30"/><line opacity="0.2" x1="239.6104750241981" x2="239.6104750241981" y1="0.5" y2="30"/><line opacity="0.2" x1="322.1023529566586" x2="322.1023529566586" y1="0.5" y2="30"/><line opacity="0.2" x1="388.0458340837399" x2="388.0458340837399" y1="0.5" y2="30"/><line opacity="0.2" x1="472.48874519259607" x2="472.48874519259607" y1="0.5" y2="30"/><line opacity="0.2" x1="316.6084807471623" x2="316.6084807471623" y1="0.5" y2="30"/><line opacity="0.2" x1="317.49805237007627" x2="317.49805237007627" y1="0.5" y2="30"/><line opacity="0.2" x1="301.8455206450206" x2="301.8455206450206" y1="0.5" y2="30"/><line opacity="0.2" x1="219.10013932445798" x2="219.10013932445798" y1="0.5" y2="30"/><line opacity="0.2" x1="461.2723355365219" x2="461.2723355365219" y1="0.5" y2="30"/><line opacity="0.2" x1="356.84239744582317" x2="356.84239744582317" y1="0.5" y2="30"/><line opacity="0.2" x1="496.7422976218327" x2="496.7422976218327" y1="0.5" y2="30"/><line opacity="0.2" x1="333.64853029871995" x2="333.64853029871995" y1="0.5" y2="30"/><line opacity="0.2" x1="298.973729591643" x2="298.973729591643" y1="0.5" y2="30"/><line opacity="0.2" x1="393.9212557784675" x2="393.9212557784675" y1="0.5" y2="30"/><line opacity="0.2" x1="346.94549751675163" x2="346.94549751675163" y1="0.5" y2="30"/><line opacity="0.2" x1="360.35813075279503" x2="360.35813075279503" y1="0.5" y2="30"/><line opacity="0.2" x1="274.2885155502494" x2="274.2885155502494" y1="0.5" y2="30"/><line opacity="0.2" x1="514.6230696261747" x2="514.6230696261747" y1="0.5" y2="30"/><line opacity="0.2" x1="464.22354902727966" x2="464.22354902727966" y1="0.5" y2="30"/><line opacity="0.2" x1="540.2323213421198" x2="540.2323213421198" y1="0.5" y2="30"/><line opacity="0.2" x1="95.06986755262616" x2="95.06986755262616" y1="0.5" y2="30"/><line opacity="0.2" x1="158.75301442759235" x2="158.75301442759235" y1="0.5" y2="30"/><line opacity="0.2" x1="466.46311256720895" x2="466.46311256720895" y1="0.5" y2="30"/><line opacity="0.2" x1="421.20107509487474" x2="421.20107509487474" y1="0.5" y2="30"/><line opacity="0.2" x1="367.6695713342603" x2="367.6695713342603" y1="0.5" y2="30"/><line opacity="0.2" x1="374.9295089535781" x2="374.9295089535781" y1="0.5" y2="30"/><line opacity="0.2" x1="417.6551419391517" x2="417.6551419391517" y1="0.5" y2="30"/><line opacity="0.2" x1="215.96253550190391" x2="215.96253550190391" y1="0.5" y2="30"/><line opacity="0.2" x1="274.31813162724086" x2="274.31813162724086" y1="0.5" y2="30"/><line opacity="0.2" x1="427.35698307026297" x2="427.35698307026297" y1="0.5" y2="30"/><line opacity="0.2" x1="295.970124153504" x2="295.970124153504" y1="0.5" y2="30"/><line opacity="0.2" x1="342.8066080678062" x2="342.8066080678062" y1="0.5" y2="30"/><line opacity="0.2" x1="395.017306381164" x2="395.017306381164" y1="0.5" y2="30"/><line opacity="0.2" x1="381.1485684471164" x2="381.1485684471164" y1="0.5" y2="30"/><line opacity="0.2" x1="541.0158905321364" x2="541.0158905321364" y1="0.5" y2="30"/><line opacity="0.2" x1="414.1561889231482" x2="414.1561889231482" y1="0.5" y2="30"/><line opacity="0.2" x1="364.2470380260795" x2="364.2470380260795" y1="0.5" y2="30"/><line opacity="0.2" x1="256.15024554795605" x2="256.15024554795605" y1="0.5" y2="30"/><line opacity="0.2" x1="193.93861933680486" x2="193.93861933680486" y1="0.5" y2="30"/><line opacity="0.2" x1="425.0680230177385" x2="425.0680230177385" y1="0.5" y2="30"/><line opacity="0.2" x1="408.6691638503325" x2="408.6691638503325" y1="0.5" y2="30"/><line opacity="0.2" x1="214.02317042405818" x2="214.02317042405818" y1="0.5" y2="30"/><line opacity="0.2" x1="342.2207001739422" x2="342.2207001739422" y1="0.5" y2="30"/><line opacity="0.2" x1="348.7505804872865" x2="348.7505804872865" y1="0.5" y2="30"/><line opacity="0.2" x1="229.88879838281224" x2="229.88879838281224" y1="0.5" y2="30"/><line opacity="0.2" x1="321.7682387776826" x2="321.7682387776826" y1="0.5" y2="30"/><line opacity="0.2" x1="157.9889625029974" x2="157.9889625029974" y1="0.5" y2="30"/><line opacity="0.2" x1="399.35007328863645" x2="399.35007328863645" y1="0.5" y2="30"/><line opacity="0.2" x1="501.477882436863" x2="501.477882436863" y1="0.5" y2="30"/><line opacity="0.2" x1="486.80163652698764" x2="486.80163652698764" y1="0.5" y2="30"/><line opacity="0.2" x1="439.4299768548749" x2="439.4299768548749" y1="0.5" y2="30"/><line opacity="0.2" x1="529.8511463581622" x2="529.8511463581622" y1="0.5" y2="30"/><line opacity="0.2" x1="238.3218845930728" x2="238.3218845930728" y1="0.5" y2="30"/><line opacity="0.2" x1="340.41423441492475" x2="340.41423441492475" y1="0.5" y2="30"/><line opacity="0.2" x1="320.0726422248978" x2="320.0726422248978" y1="0.5" y2="30"/><line opacity="0.2" x1="167.17564561061647" x2="167.17564561061647" y1="0.5" y2="30"/><line opacity="0.2" x1="290.5408740294036" x2="290.5408740294036" y1="0.5" y2="30"/><line opacity="0.2" x1="409.2995805229801" x2="409.2995805229801" y1="0.5" y2="30"/><line opacity="0.2" x1="352.80323740412217" x2="352.80323740412217" y1="0.5" y2="30"/><line opacity="0.2" x1="348.9076904673003" x2="348.9076904673003" y1="0.5" y2="30"/><line opacity="0.2" x1="263.32858701983736" x2="263.32858701983736" y1="0.5" y2="30"/><line opacity="0.2" x1="449.7923373052625" x2="449.7923373052625" y1="0.5" y2="30"/><line opacity="0.2" x1="215.17729060077738" x2="215.17729060077738" y1="0.5" y2="30"/><line opacity="0.2" x1="363.25854160161225" x2="363.25854160161225" y1="0.5" y2="30"/><line opacity="0.2" x1="444.00461750801173" x2="444.00461750801173" y1="0.5" y2="30"/><line opacity="0.2" x1="227.11537120391236" x2="227.11537120391236" y1="0.5" y2="30"/><line opacity="0.2" x1="210.53992629679766" x2="210.53992629679766" y1="0.5" y2="30"/><line opacity="0.2" x1="264.3482823743824" x2="264.3482823743824" y1="0.5" y2="30"/><line opacity="0.2" x1="177.1394959571966" x2="177.1394959571966" y1="0.5" y2="30"/><line opacity="0.2" x1="497.4779303467835" x2="497.4779303467835" y1="0.5" y2="30"/><line opacity="0.2" x1="343.63320761302634" x2="343.63320761302634" y1="0.5" y2="30"/><line opacity="0.2" x1="425.747064196622" x2="425.747064196622" y1="0.5" y2="30"/><line opacity="0.2" x1="418.7747233871975" x2="418.7747233871975" y1="0.5" y2="30"/><line opacity="0.2" x1="240.58686348909836" x2="240.58686348909836" y1="0.5" y2="30"/><line opacity="0.2" x1="150.0390080297086" x2="150.0390080297086" y1="0.5" y2="30"/><line opacity="0.2" x1="394.5240612264945" x2="394.5240612264945" y1="0.5" y2="30"/><line opacity="0.2" x1="148.20753954574724" x2="148.20753954574724" y1="0.5" y2="30"/><line opacity="0.2" x1="385.4712303730165" x2="385.4712303730165" y1="0.5" y2="30"/><line opacity="0.2" x1="327.21766675104357" x2="327.21766675104357" y1="0.5" y2="30"/><line opacity="0.2" x1="207.93946320988726" x2="207.93946320988726" y1="0.5" y2="30"/><line opacity="0.2" x1="428.43293556463203" x2="428.43293556463203" y1="0.5" y2="30"/><line opacity="0.2" x1="537.9161639494836" x2="537.9161639494836" y1="0.5" y2="30"/><line opacity="0.2" x1="136.53848477568977" x2="136.53848477568977" y1="0.5" y2="30"/><line opacity="0.2" x1="246.87237088400207" x2="246.87237088400207" y1="0.5" y2="30"/></g></svg>