<svg xmlns="http://www.w3.org/2000/svg" xmlns:xlink="http://www.w3.org/1999/xlink" class="plot-d6a7b5" fill="currentColor" font-family="system-ui, sans-serif" font-size="10" text-anchor="middle" width="640" height="60" viewBox="0 0 640 60" style="color: black; background-color: white;"><style>.plot-d6a7b5 {
  display: block;
  background: white;
  height: auto;
  height: intrinsic;
  max-width: 100%;
}
.plot-d6a7b5 text,
.plot-d6a7b5 tspan {
  white-space: pre;
}</style><g aria-label="x-axis tick" fill="none" stroke="currentColor"><path transform="translate(89.909518960842,30)" d="M0,0L0,6"/><path transform="translate(183.1650866262816,30)" d="M0,0L0,6"/><path transform="translate(276.42065429172123,30)" d="M0,0L0,6"/><path transform="translate(369.6762219571608,30)" d="M0,0L0,6"/><path transform="translate(462.9317896226003,30)" d="M0,0L0,6"/><path transform="translate(556.18735728804,30)" d="M0,0L0,6"/></g><g aria-label="x-axis tick label" font-variant="tabular-nums" transform="translate(0,9)"><text y="0.71em" transform="translate(89.909518960842,30)">−2</text><text y="0.71em" transform="translate(183.1650866262816,30)">−1</text><text y="0.71em" transform="translate(276.42065429172123,30)">0</text><text y="0.71em" transform="translate(369.6762219571608,30)">1</text><text y="0.71em" transform="translate(462.9317896226003,30)">2</text><text y="0.71em" transform="translate(556.18735728804,30)">3</text></g><g aria-label="tick" stroke="steelblue"><line opacity="0.2" x1="178.39875065214744" x2="178.39875065214744" y1="0.5" y2="30"/><line opacity="0.2" x1="294.78149125736576" x2="294.78149125736576" y1="0.5" y2="30"/><line opacity="0.2" x1="404.46338853608114" x2="404.46338853608114" y1="0.5" y2="30"/><line opacity="0.2" x1="139.085441760359" x2="139.085441760359" y1="0.5" y2="30"/><line opacity="0.2" x1="216.81951144036074" x2="216.81951144036074" y1="0.5" y2="30"/><line opacity="0.2" x1="288.21813035287596" x2="288.21813035287596" y1="0.5" y2="30"/><line opacity="0.2" x1="131.37765848634328" x2="131.37765848634328" y1="0.5" y2="30"/><line opacity="0.2" x1="217.35234193554763" x2="217.35234193554763" y1="0.5" y2="30"/><line opacity="0.2" x1="232.31547290847982" x2="232.31547290847982" y1="0.5" y2="30"/><line opacity="0.2" x1="317.2193658696004" x2="317.2193658696004" y1="0.5" y2="30"/><line opacity="0.2" x1="385.2064255444695" x2="385.2064255444695" y1="0.5" y2="30"/><line opacity="0.2" x1="367.5598630582423" x2="367.5598630582423" y1="0.5" y2="30"/><line opacity="0.2" x1="296.09463215628557" x2="296.09463215628557" y1="0.5" y2="30"/><line opacity="0.2" x1="329.2232616882033" x2="329.2232616882033" y1="0.5" y2="30"/><line opacity="0.2" x1="229.62849188466512" x2="229.62849188466512" y1="0.5" y2="30"/><line opacity="0.2" x1="295.5324316768937" x2="295.5324316768937" y1="0.5" y2="30"/><line opacity="0.2" x1="296.61897934153734" x2="296.61897934153734" y1="0.5" y2="30"/><line opacity="0.2" x1="271.9791466717882" x2="271.9791466717882" y1="0.5" y2="30"/><line opacity="0.2" x1="313.00285037931695" x2="313.00285037931695" y1="0.5" y2="30"/><line opacity="0.2" x1="256.63848534188537" x2="256.63848534188537" y1="0.5" y2="30"/><line opacity="0.2" x1="154.73506220640624" x2="154.73506220640624" y1="0.5" y2="30"/><line opacity="0.2" x1="414.88385574515064" x2="414.88385574515064" y1="0.5" y2="30"/><line opacity="0.2" x1="256.8867233391467" x2="256.8867233391467" y1="0.5" y2="30"/><line opacity="0.2" x1="319.2321505541291" x2="319.2321505541291" y1="0.5" y2="30"/><line opacity="0.2" x1="324.0693031858227" x2="324.0693031858227" y1="0.5" y2="30"/><line opacity="0.2" x1="351.936502019812" x2="351.936502019812" y1="0.5" y2="30"/><line opacity="0.2" x1="441.4965006195977" x2="441.4965006195977" y1="0.5" y2="30"/><line opacity="0.2" x1="301.04645783874923" x2="301.04645783874923" y1="0.5" y2="30"/><line opacity="0.2" x1="97.7807175745595" x2="97.7807175745595" y1="0.5" y2="30"/><line opacity="0.2" x1="256.5200008591713" x2="256.5200008591713" y1="0.5" y2="30"/><line opacity="0.2" x1="248.98255344449188" x2="248.98255344449188" y1="0.5" y2="30"/><line opacity="0.2" x1="244.35018808414955" x2="244.35018808414955" y1="0.5" y2="30"/><line opacity="0.2" x1="309.34059805573554" x2="309.34059805573554" y1="0.5" y2="30"/><line opacity="0.2" x1="270.89294995339907" x2="270.89294995339907" y1="0.5" y2="30"/><line opacity="0.2" x1="489.69673914333316" x2="489.69673914333316" y1="0.5" y2="30"/><line opacity="0.2" x1="170.22406112895558" x2="170.22406112895558" y1="0.5" y2="30"/><line opacity="0.2" x1="205.4219568146955" x2="205.4219568146955" y1="0.5" y2="30"/><line opacity="0.2" x1="441.2596796875199" x2="441.2596796875199" y1="0.5" y2="30"/><line opacity="0.2" x1="170.4335760349298" x2="170.4335760349298" y1="0.5" y2="30"/><line opacity="0.2" x1="402.36840209473826" x2="402.36840209473826" y1="0.5" y2="30"/><line opacity="0.2" x1="308.06710231690346" x2="308.06710231690346" y1="0.5" y2="30"/><line opacity="0.2" x1="328.7491190371155" x2="328.7491190371155" y1="0.5" y2="30"/><line opacity="0.2" x1="243.58602393850114" x2="243.58602393850114" y1="0.5" y2="30"/><line opacity="0.2" x1="219.66625142109578" x2="219.66625142109578" y1="0.5" y2="30"/><line opacity="0.2" x1="289.1473689464875" x2="289.1473689464875" y1="0.5" y2="30"/><line opacity="0.2" x1="310.5386384264436" x2="310.5386384264436" y1="0.5" y2="30"/><line opacity="0.2" x1="433.12269526719666" x2="433.12269526719666" y1="0.5" y2="30"/><line opacity="0.2" x1="379.08078474699187" x2="379.08078474699187" y1="0.5" y2="30"/><line opacity="0.2" x1="332.63124268468835" x2="332.63124268468835" y1="0.5" y2="30"/><line opacity="0.2" x1="274.0438725637111" x2="274.0438725637111" y1="0.5" y2="30"/><line opacity="0.2" x1="104.5219828772824" x2="104.5219828772824" y1="0.5" y2="30"/><line opacity="0.2" x1="268.38654624504017" x2="268.38654624504017" y1="0.5" y2="30"/><line opacity="0.2" x1="397.37887340285073" x2="397.37887340285073" y1="0.5" y2="30"/><line opacity="0.2" x1="265.6504018379104" x2="265.6504018379104" y1="0.5" y2="30"/><line opacity="0.2" x1="220.93112241955757" x2="220.93112241955757" y1="0.5" y2="30"/><line opacity="0.2" x1="345.80795669654975" x2="345.80795669654975" y1="0.5" y2="30"/><line opacity="0.2" x1="138.07108989111802" x2="138.07108989111802" y1="0.5" y2="30"/><line opacity="0.2" x1="150.7718691432882" x2="150.7718691432882" y1="0.5" y2="30"/><line opacity="0.2" x1="262.6770232525696" x2="262.6770232525696" y1="0.5" y2="30"/><line opacity="0.2" x1="332.9273659481446" x2="332.9273659481446" y1="0.5" y2="30"/><line opacity="0.2" x1="295.4859819053235" x2="295.4859819053235" y1="0.5" y2="30"/><line opacity="0.2" x1="231.74522235731092" x2="231.74522235731092" y1="0.5" y2="30"/><line opacity="0.2" x1="192.94787926886417" x2="192.94787926886417" y1="0.5" y2="30"/><line opacity="0.2" x1="318.96009671648903" x2="318.96009671648903" y1="0.5" y2="30"/><line opacity="0.2" x1="192.43999492307708" x2="192.43999492307708" y1="0.5" y2="30"/><line opacity="0.2" x1="305.6777246759605" x2="305.6777246759605" y1="0.5" y2="30"/><line opacity="0.2" x1="463.6130433781932" x2="463.6130433781932" y1="0.5" y2="30"/><line opacity="0.2" x1="320.09094788891275" x2="320.09094788891275" y1="0.5" y2="30"/><line opacity="0.2" x1="246.96088417259938" x2="246.96088417259938" y1="0.5" y2="30"/><line opacity="0.2" x1="318.930361996281" x2="318.930361996281" y1="0.5" y2="30"/><line opacity="0.2" x1="314.31276500466174" x2="314.31276500466174" y1="0.5" y2="30"/><line opacity="0.2" x1="287.0598490348075" x2="287.0598490348075" y1="0.5" y2="30"/><line opacity="0.2" x1="233.18554626689155" x2="233.18554626689155" y1="0.5" y2="30"/><line opacity="0.2" x1="169.7343504591195" x2="169.7343504591195" y1="0.5" y2="30"/><line opacity="0.2" x1="401.3208448662303" x2="401.3208448662303" y1="0.5" y2="30"/><line opacity="0.2" x1="311.52394906051165" x2="311.52394906051165" y1="0.5" y2="30"/><line opacity="0.2" x1="130.4966225783237" x2="130.4966225783237" y1="0.5" y2="30"/><line opacity="0.2" x1="350.2842088878529" x2="350.2842088878529" y1="0.5" y2="30"/><line opacity="0.2" x1="377.6601056192144" x2="377.6601056192144" y1="0.5" y2="30"/><line opacity="0.2" x1="226.64720183248798" x2="226.64720183248798" y1="0.5" y2="30"/><line opacity="0.2" x1="390.1181837927527" x2="390.1181837927527" y1="0.5" y2="30"/><line opacity="0.2" x1="295.4347840037312" x2="295.4347840037312" y1="0.5" y2="30"/><line opacity="0.2" x1="134.00471782503007" x2="134.00471782503007" y1="0.5" y2="30"/><line opacity="0.2" x1="205.67390781168206" x2="205.67390781168206" y1="0.5" y2="30"/><line opacity="0.2" x1="319.71710165987207" x2="319.71710165987207" y1="0.5" y2="30"/><line opacity="0.2" x1="247.22923403506755" x2="247.22923403506755" y1="0.5" y2="30"/><line opacity="0.2" x1="409.080996013995" x2="409.080996013995" y1="0.5" y2="30"/><line opacity="0.2" x1="213.65425997953724" x2="213.65425997953724" y1="0.5" y2="30"/><line opacity="0.2" x1="418.24641505103426" x2="418.24641505103426" y1="0.5" y2="30"/><line opacity="0.2" x1="146.2716232198195" x2="146.2716232198195" y1="0.5" y2="30"/><line opacity="0.2" x1="286.318343552734" x2="286.318343552734" y1="0.5" y2="30"/><line opacity="0.2" x1="286.8383289377324" x2="286.8383289377324" y1="0.5" y2="30"/><line opacity="0.2" x1="306.21422038484394" x2="306.21422038484394" y1="0.5" y2="30"/><line opacity="0.2" x1="294.1329004196935" x2="294.1329004196935" y1="0.5" y2="30"/><line opacity="0.2" x1="212.34086607198938" x2="212.34086607198938" y1="0.5" y2="30"/><line opacity="0.2" x1="118.55535818315258" x2="118.55535818315258" y1="0.5" y2="30"/><line opacity="0.2" x1="234.2383918936224" x2="234.2383918936224" y1="0.5" y2="30"/><line opacity="0.2" x1="258.0472761704179" x2="258.0472761704179" y1="0.5" y2="30"/><line opacity="0.2" x1="355.00715867121596" x2="355.00715867121596" y1="0.5" y2="30"/><line opacity="0.2" x1="327.9963350414188" x2="327.9963350414188" y1="0.5" y2="30"/><line opacity="0.2" x1="256.6980072381441" x2="256.6980072381441" y1="0.5" y2="30"/><line opacity="0.2" x1="305.1100601241723" x2="305.1100601241723" y1="0.5" y2="30"/><line opacity="0.2" x1="147.11466182504304" x2="147.11466182504304" y1="0.5" y2="30"/><line opacity="0.2" x1="268.9718913309964" x2="268.9718913309964" y1="0.5" y2="30"/><line opacity="0.2" x1="567.050102430132" x2="567.050102430132" y1="0.5" y2="30"/><line opacity="0.2" x1="340.1680223600942" x2="340.1680223600942" y1="0.5" y2="30"/><line opacity="0.2" x1="301.3763497820301" x2="301.3763497820301" y1="0.5" y2="30"/><line opacity="0.2" x1="93.35569709768424" x2="93.35569709768424" y1="0.5" y2="30"/><line opacity="0.2" x1="358.5306859114672" x2="358.5306859114672" y1="0.5" y2="30"/><line opacity="0.2" x1="198.6853977515739" x2="198.6853977515739" y1="0.5" y2="30"/><line opacity="0.2" x1="284.72096648414293" x2="284.72096648414293" y1="0.5" y2="30"/><line opacity="0.2" x1="266.827161972537" x2="266.827161972537" y1="0.5" y2="30"/><line opacity="0.2" x1="398.27962566999037" x2="398.27962566999037" y1="0.5" y2="30"/><line opacity="0.2" x1="324.90143827928625" x2="324.90143827928625" y1="0.5" y2="30"/><line opacity="0.2" x1="201.92551132045068" x2="201.92551132045068" y1="0.5" y2="30"/><line opacity="0.2" x1="324.0142359851126" x2="324.0142359851126" y1="0.5" y2="30"/><line opacity="0.2" x1="438.2282922252234" x2="438.2282922252234" y1="0.5" y2="30"/><line opacity="0.2" x1="214.76113429723074" x2="214.76113429723074" y1="0.5" y2="30"/><line opacity="0.2" x1="354.15360188776924" x2="354.15360188776924" y1="0.5" y2="30"/><line opacity="0.2" x1="198.53555063963262" x2="198.53555063963262" y1="0.5" y2="30"/><line opacity="0.2" x1="508.8194983029527" x2="508.8194983029527" y1="0.5" y2="30"/><line opacity="0.2" x1="149.20661697837897" x2="149.20661697837897" y1="0.5" y2="30"/><line opacity="0.2" x1="292.6853737632783" x2="292.6853737632783" y1="0.5" y2="30"/><line opacity="0.2" x1="323.9582965159237" x2="323.9582965159237" y1="0.5" y2="30"/><line opacity="0.2" x1="369.98472169495597" x2="369.98472169495597" y1="0.5" y2="30"/><line opacity="0.2" x1="386.1339584841576" x2="386.1339584841576" y1="0.5" y2="30"/><line opacity="0.2" x1="344.71778739044123" x2="344.71778739044123" y1="0.5" y2="30"/><line opacity="0.2" x1="114.72991584831715" x2="114.72991584831715" y1="0.5" y2="30"/><line opacity="0.2" x1="166.34682661264412" x2="166.34682661264412" y1="0.5" y2="30"/><line opacity="0.2" x1="404.2154134488362" x2="404.2154134488362" y1="0.5" y2="30"/><line opacity="0.2" x1="386.7486196425668" x2="386.7486196425668" y1="0.5" y2="30"/><line opacity="0.2" x1="250.2560022516402" x2="250.2560022516402" y1="0.5" y2="30"/><line opacity="0.2" x1="281.23787898297184" x2="281.23787898297184" y1="0.5" y2="30"/><line opacity="0.2" x1="233.8233034727844" x2="233.8233034727844" y1="0.5" y2="30"/><line opacity="0.2" x1="620" x2="620" y1="0.5" y2="30"/><line opacity="0.2" x1="186.30824774240799" x2="186.30824774240799" y1="0.5" y2="30"/><line opacity="0.2" x1="302.7313149577059" x2="302.7313149577059" y1="0.5" y2="30"/><line opacity="0.2" x1="361.2591233035688" x2="361.2591233035688" y1="0.5" y2="30"/><line opacity="0.2" x1="154.290388694267" x2="154.290388694267" y1="0.5" y2="30"/><line opacity="0.2" x1="308.3486960310455" x2="308.3486960310455" y1="0.5" y2="30"/><line opacity="0.2" x1="258.16861068227405" x2="258.16861068227405" y1="0.5" y2="30"/><line opacity="0.2" x1="254.01426999360467" x2="254.01426999360467" y1="0.5" y2="30"/><line opacity="0.2" x1="274.6350788842057" x2="274.6350788842057" y1="0.5" y2="30"/><line opacity="0.2" x1="459.6418282605187" x2="459.6418282605187" y1="0.5" y2="30"/><line opacity="0.2" x1="214.0399895248297" x2="214.0399895248297" y1="0.5" y2="30"/><line opacity="0.2" x1="103.378384325569" x2="103.378384325569" y1="0.5" y2="30"/><line opacity="0.2" x1="321.8578243497813" x2="321.8578243497813" y1="0.5" y2="30"/><line opacity="0.2" x1="360.99870043471896" x2="360.99870043471896" y1="0.5" y2="30"/><line opacity="0.2" x1="220.90618112512382" x2="220.90618112512382" y1="0.5" y2="30"/><line opacity="0.2" x1="238.74663725822202" x2="238.74663725822202" y1="0.5" y2="30"/><line opacity="0.2" x1="348.92581567948605" x2="348.92581567948605" y1="0.5" y2="30"/><line opacity="0.2" x1="141.20123469540457" x2="141.20123469540457" y1="0.5" y2="30"/><line opacity="0.2" x1="274.77534942300053" x2="274.77534942300053" y1="0.5" y2="30"/><line opacity="0.2" x1="269.176245330655" x2="269.176245330655" y1="0.5" y2="30"/><line opacity="0.2" x1="293.6002753307838" x2="293.6002753307838" y1="0.5" y2="30"/><line opacity="0.2" x1="299.7587850284619" x2="299.7587850284619" y1="0.5" y2="30"/><line opacity="0.2" x1="216.6747082080873" x2="216.6747082080873" y1="0.5" y2="30"/><line opacity="0.2" x1="193.61130832524847" x2="193.61130832524847" y1="0.5" y2="30"/><line opacity="0.2" x1="331.5156663692852" x2="331.5156663692852" y1="0.5" y2="30"/><line opacity="0.2" x1="370.6577645484922" x2="370.6577645484922" y1="0.5" y2="30"/><line opacity="0.2" x1="495.1575079546093" x2="495.1575079546093" y1="0.5" y2="30"/><line opacity="0.2" x1="130.2259347355671" x2="130.2259347355671" y1="0.5" y2="30"/><line opacity="0.2" x1="298.745452399813" x2="298.745452399813" y1="0.5" y2="30"/><line opacity="0.2" x1="187.29310754615815" x2="187.29310754615815" y1="0.5" y2="30"/><line opacity="0.2" x1="214.7644124210605" x2="214.7644124210605" y1="0.5" y2="30"/><line opacity="0.2" x1="179.61188681591062" x2="179.61188681591062" y1="0.5" y2="30"/><line opacity="0.2" x1="257.5776814234932" x2="257.5776814234932" y1="0.5" y2="30"/><line opacity="0.2" x1="306.0667060302476" x2="306.0667060302476" y1="0.5" y2="30"/><line opacity="0.2" x1="324.70451092354557" x2="324.70451092354557" y1="0.5" y2="30"/><line opacity="0.2" x1="448.2900238490975" x2="448.2900238490975" y1="0.5" y2="30"/><line opacity="0.2" x1="316.4115967508484" x2="316.4115967508484" y1="0.5" y2="30"/><line opacity="0.2" x1="142.94667923879342" x2="142.94667923879342" y1="0.5" y2="30"/><line opacity="0.2" x1="95.77634244072806" x2="95.77634244072806" y1="0.5" y2="30"/><line opacity="0.2" x1="168.00341485087813" x2="168.00341485087813" y1="0.5" y2="30"/><line opacity="0.2" x1="220.37874075605706" x2="220.37874075605706" y1="0.5" y2="30"/><line opacity="0.2" x1="182.3727755369864" x2="182.3727755369864" y1="0.5" y2="30"/><line opacity="0.2" x1="363.6183571975685" x2="363.6183571975685" y1="0.5" y2="30"/><line opacity="0.2" x1="273.52046736240277" x2="273.52046736240277" y1="0.5" y2="30"/><line opacity="0.2" x1="274.88939543786404" x2="274.88939543786404" y1="0.5" y2="30"/><line opacity="0.2" x1="274.38882179835076" x2="274.38882179835076" y1="0.5" y2="30"/><line opacity="0.2" x1="232.26713092049664" x2="232.26713092049664" y1="0.5" y2="30"/><line opacity="0.2" x1="492.2791481099572" x2="492.2791481099572" y1="0.5" y2="30"/><line opacity="0.2" x1="226.38904331530094" x2="226.38904331530094" y1="0.5" y2="30"/><line opacity="0.2" x1="346.9401648336462" x2="346.9401648336462" y1="0.5" y2="30"/><line opacity="0.2" x1="138.4158627550336" x2="138.4158627550336" y1="0.5" y2="30"/><line opacity="0.2" x1="85.56343917623973" x2="85.56343917623973" y1="0.5" y2="30"/><line opacity="0.2" x1="148.22676702854278" x2="148.22676702854278" y1="0.5" y2="30"/><line opacity="0.2" x1="332.9335909426187" x2="332.9335909426187" y1="0.5" y2="30"/><line opacity="0.2" x1="235.83806055100655" x2="235.83806055100655" y1="0.5" y2="30"/><line opacity="0.2" x1="418.0889531801273" x2="418.0889531801273" y1="0.5" y2="30"/><line opacity="0.2" x1="223.95407362619977" x2="223.95407362619977" y1="0.5" y2="30"/><line opacity="0.2" x1="525.9045189051374" x2="525.9045189051374" y1="0.5" y2="30"/><line opacity="0.2" x1="401.10173378477776" x2="401.10173378477776" y1="0.5" y2="30"/><line opacity="0.2" x1="137.1017841883563" x2="137.1017841883563" y1="0.5" y2="30"/><line opacity="0.2" x1="377.86923622037125" x2="377.86923622037125" y1="0.5" y2="30"/><line opacity="0.2" x1="228.45702900973484" x2="228.45702900973484" y1="0.5" y2="30"/><line opacity="0.2" x1="512.9245386194219" x2="512.9245386194219" y1="0.5" y2="30"/><line opacity="0.2" x1="314.58067770849686" x2="314.58067770849686" y1="0.5" y2="30"/><line opacity="0.2" x1="285.1646187995535" x2="285.1646187995535" y1="0.5" y2="30"/><line opacity="0.2" x1="363.38945708955083" x2="363.38945708955083" y1="0.5" y2="30"/><line opacity="0.2" x1="214.218957322525" x2="214.218957322525" y1="0.5" y2="30"/><line opacity="0.2" x1="291.60881915923727" x2="291.60881915923727" y1="0.5" y2="30"/><line opacity="0.2" x1="294.9663563674972" x2="294.9663563674972" y1="0.5" y2="30"/><line opacity="0.2" x1="407.96164545589" x2="407.96164545589" y1="0.5" y2="30"/><line opacity="0.2" x1="162.71970242521152" x2="162.71970242521152" y1="0.5" y2="30"/><line opacity="0.2" x1="355.4318103899523" x2="355.4318103899523" y1="0.5" y2="30"/><line opacity="0.2" x1="276.42592800690994" x2="276.42592800690994" y1="0.5" y2="30"/><line opacity="0.2" x1="284.3292680967486" x2="284.3292680967486" y1="0.5" y2="30"/><line opacity="0.2" x1="266.27139994875336" x2="266.27139994875336" y1="0.5" y2="30"/><line opacity="0.2" x1="352.42310628228665" x2="352.42310628228665" y1="0.5" y2="30"/><line opacity="0.2" x1="168.54581543652012" x2="168.54581543652012" y1="0.5" y2="30"/><line opacity="0.2" x1="203.6224834395108" x2="203.6224834395108" y1="0.5" y2="30"/><line opacity="0.2" x1="246.44899654912476" x2="246.44899654912476" y1="0.5" y2="30"/><line opacity="0.2" x1="382.0927076682314" x2="382.0927076682314" y1="0.5" y2="30"/><line opacity="0.2" x1="343.6107991750218" x2="343.6107991750218" y1="0.5" y2="30"/><line opacity="0.2" x1="211.53631645088868" x2="211.53631645088868" y1="0.5" y2="30"/><line opacity="0.2" x1="116.03997196697972" x2="116.03997196697972" y1="0.5" y2="30"/><line opacity="0.2" x1="343.17208856270804" x2="343.17208856270804" y1="0.5" y2="30"/><line opacity="0.2" x1="355.07231181280133" x2="355.07231181280133" y1="0.5" y2="30"/><line opacity="0.2" x1="242.32765998559893" x2="242.32765998559893" y1="0.5" y2="30"/><line opacity="0.2" x1="346.8110092865151" x2="346.8110092865151" y1="0.5" y2="30"/><line opacity="0.2" x1="365.0253016486929" x2="365.0253016486929" y1="0.5" y2="30"/><line opacity="0.2" x1="268.7462653053965" x2="268.7462653053965" y1="0.5" y2="30"/><line opacity="0.2" x1="235.3470826335146" x2="235.3470826335146" y1="0.5" y2="30"/><line opacity="0.2" x1="433.25938373236795" x2="433.25938373236795" y1="0.5" y2="30"/><line opacity="0.2" x1="291.6589287869257" x2="291.6589287869257" y1="0.5" y2="30"/><line opacity="0.2" x1="249.7753755964828" x2="249.7753755964828" y1="0.5" y2="30"/><line opacity="0.2" x1="186.13075084386142" x2="186.13075084386142" y1="0.5" y2="30"/><line opacity="0.2" x1="85.82820577816001" x2="85.82820577816001" y1="0.5" y2="30"/><line opacity="0.2" x1="312.5738675251366" x2="312.5738675251366" y1="0.5" y2="30"/><line opacity="0.2" x1="223.71942473548194" x2="223.71942473548194" y1="0.5" y2="30"/><line opacity="0.2" x1="297.81826669347856" x2="297.81826669347856" y1="0.5" y2="30"/><line opacity="0.2" x1="333.73167145356" x2="333.73167145356" y1="0.5" y2="30"/><line opacity="0.2" x1="179.97115905321894" x2="179.97115905321894" y1="0.5" y2="30"/><line opacity="0.2" x1="90.66372205041094" x2="90.66372205041094" y1="0.5" y2="30"/><line opacity="0.2" x1="349.8411796485015" x2="349.8411796485015" y1="0.5" y2="30"/><line opacity="0.2" x1="273.02495756439225" x2="273.02495756439225" y1="0.5" y2="30"/><line opacity="0.2" x1="223.04029122816345" x2="223.04029122816345" y1="0.5" y2="30"/><line opacity="0.2" x1="343.60498606162696" x2="343.60498606162696" y1="0.5" y2="30"/><line opacity="0.2" x1="383.01060463154624" x2="383.01060463154624" y1="0.5" y2="30"/><line opacity="0.2" x1="270.82664125403085" x2="270.82664125403085" y1="0.5" y2="30"/><line opacity="0.2" x1="285.59671803037844" x2="285.59671803037844" y1="0.5" y2="30"/><line opacity="0.2" x1="93.91673166630156" x2="93.91673166630156" y1="0.5" y2="30"/><line opacity="0.2" x1="172.98780794103297" x2="172.98780794103297" y1="0.5" y2="30"/><line opacity="0.2" x1="191.19163086837344" x2="191.19163086837344" y1="0.5" y2="30"/><line opacity="0.2" x1="341.0791957327987" x2="341.0791957327987" y1="0.5" y2="30"/><line opacity="0.2" x1="188.49664969805727" x2="188.49664969805727" y1="0.5" y2="30"/><line opacity="0.2" x1="137.52005809664823" x2="137.52005809664823" y1="0.5" y2="30"/><line opacity="0.2" x1="336.6548865357653" x2="336.6548865357653" y1="0.5" y2="30"/><line opacity="0.2" x1="273.2109860105893" x2="273.2109860105893" y1="0.5" y2="30"/><line opacity="0.2" x1="287.7339755553498" x2="287.7339755553498" y1="0.5" y2="30"/><line opacity="0.2" x1="240.61453291489588" x2="240.61453291489588" y1="0.5" y2="30"/><line opacity="0.2" x1="386.5780761456251" x2="386.5780761456251" y1="0.5" y2="30"/><line opacity="0.2" x1="252.94133788556627" x2="252.94133788556627" y1="0.5" y2="30"/><line opacity="0.2" x1="327.21556780301626" x2="327.21556780301626" y1="0.5" y2="30"/><line opacity="0.2" x1="330.23536030766786" x2="330.23536030766786" y1="0.5" y2="30"/><line opacity="0.2" x1="284.7469304150008" x2="284.7469304150008" y1="0.5" y2="30"/><line opacity="0.2" x1="288.05224584682156" x2="288.05224584682156" y1="0.5" y2="30"/><line opacity="0.2" x1="347.0359611733926" x2="347.0359611733926" y1="0.5" y2="30"/><line opacity="0.2" x1="212.5857099988739" x2="212.5857099988739" y1="0.5" y2="30"/><line opacity="0.2" x1="397.0813515382922" x2="397.0813515382922" y1="0.5" y2="30"/><line opacity="0.2" x1="244.05961388854462" x2="244.05961388854462" y1="0.5" y2="30"/><line opacity="0.2" x1="392.3796038709137" x2="392.3796038709137" y1="0.5" y2="30"/><line opacity="0.2" x1="136.02863020420102" x2="136.02863020420102" y1="0.5" y2="30"/><line opacity="0.2" x1="245.72998657868732" x2="245.72998657868732" y1="0.5" y2="30"/><line opacity="0.2" x1="288.7986506149835" x2="288.7986506149835" y1="0.5" y2="30"/><line opacity="0.2" x1="273.37840480215345" x2="273.37840480215345" y1="0.5" y2="30"/><line opacity="0.2" x1="151.42758138813474" x2="151.42758138813474" y1="0.5" y2="30"/><line opacity="0.2" x1="271.68483819584213" x2="271.68483819584213" y1="0.5" y2="30"/><line opacity="0.2" x1="299.56398619625463" x2="299.56398619625463" y1="0.5" y2="30"/><line opacity="0.2" x1="221.94791300947094" x2="221.94791300947094" y1="0.5" y2="30"/><line opacity="0.2" x1="317.34348242778935" x2="317.34348242778935" y1="0.5" y2="30"/><line opacity="0.2" x1="315.7438725130295" x2="315.7438725130295" y1="0.5" y2="30"/><line opacity="0.2" x1="232.91618982171025" x2="232.91618982171025" y1="0.5" y2="30"/><line opacity="0.2" x1="411.7208901236944" x2="411.7208901236944" y1="0.5" y2="30"/><line opacity="0.2" x1="257.8250608029749" x2="257.8250608029749" y1="0.5" y2="30"/><line opacity="0.2" x1="250.12513885110684" x2="250.12513885110684" y1="0.5" y2="30"/><line opacity="0.2" x1="177.60685190871493" x2="177.60685190871493" y1="0.5" y2="30"/><line opacity="0.2" x1="317.87221864526884" x2="317.87221864526884" y1="0.5" y2="30"/><line opacity="0.2" x1="131.2034406079243" x2="131.2034406079243" y1="0.5" y2="30"/><line opacity="0.2" x1="233.38527422529518" x2="233.38527422529518" y1="0.5" y2="30"/><line opacity="0.2" x1="325.4213879209269" x2="325.4213879209269" y1="0.5" y2="30"/><line opacity="0.2" x1="238.78232491879018" x2="238.78232491879018" y1="0.5" y2="30"/><line opacity="0.2" x1="43.91454121105148" x2="43.91454121105148" y1="0.5" y2="30"/><line opacity="0.2" x1="267.3408918504657" x2="267.3408918504657" y1="0.5" y2="30"/><line opacity="0.2" x1="205.0110812747022" x2="205.0110812747022" y1="0.5" y2="30"/><line opacity="0.2" x1="156.7339907411687" x2="156.7339907411687" y1="0.5" y2="30"/><line opacity="0.2" x1="317.1998048878381" x2="317.1998048878381" y1="0.5" y2="30"/><line opacity="0.2" x1="22.372278736393255" x2="22.372278736393255" y1="0.5" y2="30"/><line opacity="0.2" x1="272.34415462192374" x2="272.34415462192374" y1="0.5" y2="30"/><line opacity="0.2" x1="197.60274488498058" x2="197.60274488498058" y1="0.5" y2="30"/><line opacity="0.2" x1="233.66096397756442" x2="233.66096397756442" y1="0.5" y2="30"/><line opacity="0.2" x1="294.091849653511" x2="294.091849653511" y1="0.5" y2="30"/><line opacity="0.2" x1="254.4982498863645" x2="254.4982498863645" y1="0.5" y2="30"/><line opacity="0.2" x1="193.43427144026046" x2="193.43427144026046" y1="0.5" y2="30"/><line opacity="0.2" x1="221.06680574135794" x2="221.06680574135794" y1="0.5" y2="30"/><line opacity="0.2" x1="500.3224817847807" x2="500.3224817847807" y1="0.5" y2="30"/><line opacity="0.2" x1="180.25987689833227" x2="180.25987689833227" y1="0.5" y2="30"/><line opacity="0.2" x1="339.01653654355385" x2="339.01653654355385" y1="0.5" y2="30"/><line opacity="0.2" x1="308.77422023125683" x2="308.77422023125683" y1="0.5" y2="30"/><line opacity="0.2" x1="344.6086065068911" x2="344.6086065068911" y1="0.5" y2="30"/><line opacity="0.2" x1="374.32532301316064" x2="374.32532301316064" y1="0.5" y2="30"/><line opacity="0.2" x1="267.99507905517567" x2="267.99507905517567" y1="0.5" y2="30"/><line opacity="0.2" x1="425.6014635902104" x2="425.6014635902104" y1="0.5" y2="30"/><line opacity="0.2" x1="418.88295730105955" x2="418.88295730105955" y1="0.5" y2="30"/><line opacity="0.2" x1="301.867012180586" x2="301.867012180586" y1="0.5" y2="30"/><line opacity="0.2" x1="300.73725764946096" x2="300.73725764946096" y1="0.5" y2="30"/><line opacity="0.2" x1="301.70581342474435" x2="301.70581342474435" y1="0.5" y2="30"/><line opacity="0.2" x1="59.163825665101854" x2="59.163825665101854" y1="0.5" y2="30"/><line opacity="0.2" x1="476.3113211787899" x2="476.3113211787899" y1="0.5" y2="30"/><line opacity="0.2" x1="254.25365318715527" x2="254.25365318715527" y1="0.5" y2="30"/><line opacity="0.2" x1="410.86595684360367" x2="410.86595684360367" y1="0.5" y2="30"/><line opacity="0.2" x1="248.34747618150521" x2="248.34747618150521" y1="0.5" y2="30"/><line opacity="0.2" x1="261.65077591399137" x2="261.65077591399137" y1="0.5" y2="30"/><line opacity="0.2" x1="275.1373311717023" x2="275.1373311717023" y1="0.5" y2="30"/><line opacity="0.2" x1="98.85685050002964" x2="98.85685050002964" y1="0.5" y2="30"/><line opacity="0.2" x1="130.72687115712137" x2="130.72687115712137" y1="0.5" y2="30"/><line opacity="0.2" x1="478.4022102687792" x2="478.4022102687792" y1="0.5" y2="30"/><line opacity="0.2" x1="264.42201757715526" x2="264.42201757715526" y1="0.5" y2="30"/><line opacity="0.2" x1="423.710125699161" x2="423.710125699161" y1="0.5" y2="30"/><line opacity="0.2" x1="368.6104928205366" x2="368.6104928205366" y1="0.5" y2="30"/><line opacity="0.2" x1="310.9890397702286" x2="310.9890397702286" y1="0.5" y2="30"/><line opacity="0.2" x1="280.70122329133875" x2="280.70122329133875" y1="0.5" y2="30"/><line opacity="0.2" x1="314.62245653029163" x2="314.62245653029163" y1="0.5" y2="30"/><line opacity="0.2" x1="348.60312565354496" x2="348.60312565354496" y1="0.5" y2="30"/><line opacity="0.2" x1="373.5978613616399" x2="373.5978613616399" y1="0.5" y2="30"/><line opacity="0.2" x1="469.13733176116597" x2="469.13733176116597" y1="0.5" y2="30"/><line opacity="0.2" x1="260.5417346186942" x2="260.5417346186942" y1="0.5" y2="30"/><line opacity="0.2" x1="364.91445404437593" x2="364.91445404437593" y1="0.5" y2="30"/><line opacity="0.2" x1="222.84407406840714" x2="222.84407406840714" y1="0.5" y2="30"/><line opacity="0.2" x1="392.321313195561" x2="392.321313195561" y1="0.5" y2="30"/><line opacity="0.2" x1="103.35817497147836" x2="103.35817497147836" y1="0.5" y2="30"/><line opacity="0.2" x1="316.1762859475659" x2="316.1762859475659" y1="0.5" y2="30"/><line opacity="0.2" x1="390.5417096065505" x2="390.5417096065505" y1="0.5" y2="30"/><line opacity="0.2" x1="323.7004919494771" x2="323.7004919494771" y1="0.5" y2="30"/><line opacity="0.2" x1="266.34508071214526" x2="266.34508071214526" y1="0.5" y2="30"/><line opacity="0.2" x1="390.09800483317485" x2="390.09800483317485" y1="0.5" y2="30"/><line opacity="0.2" x1="357.4404485442549" x2="357.4404485442549" y1="0.5" y2="30"/><line opacity="0.2" x1="139.83751959379867" x2="139.83751959379867" y1="0.5" y2="30"/><line opacity="0.2" x1="300.850137988531" x2="300.850137988531" y1="0.5" y2="30"/><line opacity="0.2" x1="64.07022460436812" x2="64.07022460436812" y1="0.5" y2="30"/><line opacity="0.2" x1="275.6558349532134" x2="275.6558349532134" y1="0.5" y2="30"/><line opacity="0.2" x1="280.8811825364863" x2="280.8811825364863" y1="0.5" y2="30"/><line opacity="0.2" x1="236.0008955907103" x2="236.0008955907103" y1="0.5" y2="30"/><line opacity="0.2" x1="161.79252793160794" x2="161.79252793160794" y1="0.5" y2="30"/><line opacity="0.2" x1="329.3393329188562" x2="329.3393329188562" y1="0.5" y2="30"/><line opacity="0.2" x1="324.46306697593263" x2="324.46306697593263" y1="0.5" y2="30"/><line opacity="0.2" x1="284.31770698360646" x2="284.31770698360646" y1="0.5" y2="30"/><line opacity="0.2" x1="255.4922629495751" x2="255.4922629495751" y1="0.5" y2="30"/><line opacity="0.2" x1="385.54661390304966" x2="385.54661390304966" y1="0.5" y2="30"/><line opacity="0.2" x1="272.25592895021714" x2="272.25592895021714" y1="0.5" y2="30"/><line opacity="0.2" x1="354.4544173758401" x2="354.4544173758401" y1="0.5" y2="30"/><line opacity="0.2" x1="286.3893612932058" x2="286.3893612932058" y1="0.5" y2="30"/><line opacity="0.2" x1="248.44653319477084" x2="248.44653319477084" y1="0.5" y2="30"/><line opacity="0.2" x1="318.2380429299236" x2="318.2380429299236" y1="0.5" y2="30"/><line opacity="0.2" x1="354.10749535267763" x2="354.10749535267763" y1="0.5" y2="30"/><line opacity="0.2" x1="457.324156037806" x2="457.324156037806" y1="0.5" y2="30"/><line opacity="0.2" x1="48.855898715135126" x2="48.855898715135126" y1="0.5" y2="30"/><line opacity="0.2" x1="248.37320726443664" x2="248.37320726443664" y1="0.5" y2="30"/><line opacity="0.2" x1="142.02198362265105" x2="142.02198362265105" y1="0.5" y2="30"/><line opacity="0.2" x1="227.92701574773787" x2="227.92701574773787" y1="0.5" y2="30"/><line opacity="0.2" x1="238.72860316368335" x2="238.72860316368335" y1="0.5" y2="30"/><line opacity="0.2" x1="244.10976129882542" x2="244.10976129882542" y1="0.5" y2="30"/><line opacity="0.2" x1="352.78659374791386" x2="352.78659374791386" y1="0.5" y2="30"/><line opacity="0.2" x1="438.6556453229704" x2="438.6556453229704" y1="0.5" y2="30"/><line opacity="0.2" x1="230.6582061897062" x2="230.6582061897062" y1="0.5" y2="30"/><line opacity="0.2" x1="90.96024708029137" x2="90.96024708029137" y1="0.5" y2="30"/><line opacity="0.2" x1="282.459271986149" x2="282.459271986149" y1="0.5" y2="30"/><line opacity="0.2" x1="353.0544217387276" x2="353.0544217387276" y1="0.5" y2="30"/><line opacity="0.2" x1="345.6661656230844" x2="345.6661656230844" y1="0.5" y2="30"/><line opacity="0.2" x1="280.95199139794397" x2="280.95199139794397" y1="0.5" y2="30"/><line opacity="0.2" x1="484.3655965451223" x2="484.3655965451223" y1="0.5" y2="30"/><line opacity="0.2" x1="231.03419079229093" x2="231.03419079229093" y1="0.5" y2="30"/><line opacity="0.2" x1="241.840626163645" x2="241.840626163645" y1="0.5" y2="30"/><line opacity="0.2" x1="296.22331488040027" x2="296.22331488040027" y1="0.5" y2="30"/><line opacity="0.2" x1="300.7291062500443" x2="300.7291062500443" y1="0.5" y2="30"/><line opacity="0.2" x1="238.28246584565298" x2="238.28246584565298" y1="0.5" y2="30"/><line opacity="0.2" x1="354.1388324287383" x2="354.1388324287383" y1="0.5" y2="30"/><line opacity="0.2" x1="378.7440217748881" x2="378.7440217748881" y1="0.5" y2="30"/><line opacity="0.2" x1="348.65321993354553" x2="348.65321993354553" y1="0.5" y2="30"/><line opacity="0.2" x1="259.68229169618655" x2="259.68229169618655" y1="0.5" y2="30"/><line opacity="0.2" x1="207.96294188959985" x2="207.96294188959985" y1="0.5" y2="30"/><line opacity="0.2" x1="200.6138425078141" x2="200.6138425078141" y1="0.5" y2="30"/><line opacity="0.2" x1="418.78620627871356" x2="418.78620627871356" y1="0.5" y2="30"/><line opacity="0.2" x1="409.02918351266374" x2="409.02918351266374" y1="0.5" y2="30"/><line opacity="0.2" x1="349.93238217632984" x2="349.93238217632984" y1="0.5" y2="30"/><line opacity="0.2" x1="271.5338120827925" x2="271.5338120827925" y1="0.5" y2="30"/><line opacity="0.2" x1="293.0623907634659" x2="293.0623907634659" y1="0.5" y2="30"/><line opacity="0.2" x1="225.39355582553495" x2="225.39355582553495" y1="0.5" y2="30"/><line opacity="0.2" x1="314.63104014676605" x2="314.63104014676605" y1="0.5" y2="30"/><line opacity="0.2" x1="315.27790995329127" x2="315.27790995329127" y1="0.5" y2="30"/><line opacity="0.2" x1="100.6667605296214" x2="100.6667605296214" y1="0.5" y2="30"/><line opacity="0.2" x1="315.40436058195064" x2="315.40436058195064" y1="0.5" y2="30"/><line opacity="0.2" x1="275.43986460758947" x2="275.43986460758947" y1="0.5" y2="30"/><line opacity="0.2" x1="256.1792233880482" x2="256.1792233880482" y1="0.5" y2="30"/><line opacity="0.2" x1="337.8249145971445" x2="337.8249145971445" y1="0.5" y2="30"/><line opacity="0.2" x1="161.2290520494395" x2="161.2290520494395" y1="0.5" y2="30"/><line opacity="0.2" x1="250.71824436757285" x2="250.71824436757285" y1="0.5" y2="30"/><line opacity="0.2" x1="372.94611419502206" x2="372.94611419502206" y1="0.5" y2="30"/><line opacity="0.2" x1="200.66924381560133" x2="200.66924381560133" y1="0.5" y2="30"/><line opacity="0.2" x1="472.8513162209364" x2="472.8513162209364" y1="0.5" y2="30"/><line opacity="0.2" x1="340.5514692284536" x2="340.5514692284536" y1="0.5" y2="30"/><line opacity="0.2" x1="545.8788920993534" x2="545.8788920993534" y1="0.5" y2="30"/><line opacity="0.2" x1="271.2304758802287" x2="271.2304758802287" y1="0.5" y2="30"/><line opacity="0.2" x1="301.83723231541774" x2="301.83723231541774" y1="0.5" y2="30"/><line opacity="0.2" x1="261.4308978705807" x2="261.4308978705807" y1="0.5" y2="30"/><line opacity="0.2" x1="319.9517565591125" x2="319.9517565591125" y1="0.5" y2="30"/><line opacity="0.2" x1="129.07146117015276" x2="129.07146117015276" y1="0.5" y2="30"/><line opacity="0.2" x1="241.76699925705572" x2="241.76699925705572" y1="0.5" y2="30"/><line opacity="0.2" x1="501.90334830109686" x2="501.90334830109686" y1="0.5" y2="30"/><line opacity="0.2" x1="271.3288517375978" x2="271.3288517375978" y1="0.5" y2="30"/><line opacity="0.2" x1="329.24243099302595" x2="329.24243099302595" y1="0.5" y2="30"/><line opacity="0.2" x1="339.17085844866483" x2="339.17085844866483" y1="0.5" y2="30"/><line opacity="0.2" x1="251.58992389772274" x2="251.58992389772274" y1="0.5" y2="30"/><line opacity="0.2" x1="343.2738222605058" x2="343.2738222605058" y1="0.5" y2="30"/><line opacity="0.2" x1="83.58627111835025" x2="83.58627111835025" y1="0.5" y2="30"/><line opacity="0.2" x1="300.20689685633414" x2="300.20689685633414" y1="0.5" y2="30"/><line opacity="0.2" x1="163.9918918470875" x2="163.9918918470875" y1="0.5" y2="30"/><line opacity="0.2" x1="373.6533955068617" x2="373.6533955068617" y1="0.5" y2="30"/><line opacity="0.2" x1="174.45974588521136" x2="174.45974588521136" y1="0.5" y2="30"/><line opacity="0.2" x1="302.2081998672607" x2="302.2081998672607" y1="0.5" y2="30"/><line opacity="0.2" x1="229.33055569586236" x2="229.33055569586236" y1="0.5" y2="30"/><line opacity="0.2" x1="293.92614892905686" x2="293.92614892905686" y1="0.5" y2="30"/><line opacity="0.2" x1="310.0157638005481" x2="310.0157638005481" y1="0.5" y2="30"/><line opacity="0.2" x1="302.41556815126773" x2="302.41556815126773" y1="0.5" y2="30"/><line opacity="0.2" x1="284.6364318216199" x2="284.6364318216199" y1="0.5" y2="30"/><line opacity="0.2" x1="370.97998083566983" x2="370.97998083566983" y1="0.5" y2="30"/><line opacity="0.2" x1="219.1647056612523" x2="219.1647056612523" y1="0.5" y2="30"/><line opacity="0.2" x1="251.59436821925962" x2="251.59436821925962" y1="0.5" y2="30"/><line opacity="0.2" x1="227.16117090941117" x2="227.16117090941117" y1="0.5" y2="30"/><line opacity="0.2" x1="193.58344683643028" x2="193.58344683643028" y1="0.5" y2="30"/><line opacity="0.2" x1="386.7518297401338" x2="386.7518297401338" y1="0.5" y2="30"/><line opacity="0.2" x1="185.57691424612406" x2="185.57691424612406" y1="0.5" y2="30"/><line opacity="0.2" x1="237.1467069546065" x2="237.1467069546065" y1="0.5" y2="30"/><line opacity="0.2" x1="275.18002913660854" x2="275.18002913660854" y1="0.5" y2="30"/><line opacity="0.2" x1="202.33864430968134" x2="202.33864430968134" y1="0.5" y2="30"/><line opacity="0.2" x1="224.84215597668089" x2="224.84215597668089" y1="0.5" y2="30"/><line opacity="0.2" x1="186.17555185434475" x2="186.17555185434475" y1="0.5" y2="30"/><line opacity="0.2" x1="208.581204653763" x2="208.581204653763" y1="0.5" y2="30"/><line opacity="0.2" x1="268.87887007826697" x2="268.87887007826697" y1="0.5" y2="30"/><line opacity="0.2" x1="341.4834124488654" x2="341.4834124488654" y1="0.5" y2="30"/><line opacity="0.2" x1="242.00063713839677" x2="242.00063713839677" y1="0.5" y2="30"/><line opacity="0.2" x1="319.9472287945014" x2="319.9472287945014" y1="0.5" y2="30"/><line opacity="0.2" x1="265.4816679073574" x2="265.4816679073574" y1="0.5" y2="30"/><line opacity="0.2" x1="262.27757449652364" x2="262.27757449652364" y1="0.5" y2="30"/><line opacity="0.2" x1="265.12180072573494" x2="265.12180072573494" y1="0.5" y2="30"/><line opacity="0.2" x1="231.49671493851935" x2="231.49671493851935" y1="0.5" y2="30"/><line opacity="0.2" x1="315.6289300874865" x2="315.6289300874865" y1="0.5" y2="30"/><line opacity="0.2" x1="366.2977674470152" x2="366.2977674470152" y1="0.5" y2="30"/><line opacity="0.2" x1="194.84159195837586" x2="194.84159195837586" y1="0.5" y2="30"/><line opacity="0.2" x1="167.44522988583302" x2="167.44522988583302" y1="0.5" y2="30"/><line opacity="0.2" x1="337.0162114301038" x2="337.0162114301038" y1="0.5" y2="30"/><line opacity="0.2" x1="154.33139911206553" x2="154.33139911206553" y1="0.5" y2="30"/><line opacity="0.2" x1="309.2703788793387" x2="309.2703788793387" y1="0.5" y2="30"/><line opacity="0.2" x1="255.82852397064033" x2="255.82852397064033" y1="0.5" y2="30"/><line opacity="0.2" x1="391.1016257955988" x2="391.1016257955988" y1="0.5" y2="30"/><line opacity="0.2" x1="341.2410274039769" x2="341.2410274039769" y1="0.5" y2="30"/><line opacity="0.2" x1="21.47752945430636" x2="21.47752945430636" y1="0.5" y2="30"/><line opacity="0.2" x1="417.8258229270885" x2="417.8258229270885" y1="0.5" y2="30"/><line opacity="0.2" x1="341.57545149967024" x2="341.57545149967024" y1="0.5" y2="30"/><line opacity="0.2" x1="452.90979080790066" x2="452.90979080790066" y1="0.5" y2="30"/><line opacity="0.2" x1="381.99474583948694" x2="381.99474583948694" y1="0.5" y2="30"/><line opacity="0.2" x1="327.08693607480205" x2="327.08693607480205" y1="0.5" y2="30"/><line opacity="0.2" x1="323.5796483094915" x2="323.5796483094915" y1="0.5" y2="30"/><line opacity="0.2" x1="115.28331099786885" x2="115.28331099786885" y1="0.5" y2="30"/><line opacity="0.2" x1="146.3541146115027" x2="146.3541146115027" y1="0.5" y2="30"/><line opacity="0.2" x1="301.03299735640275" x2="301.03299735640275" y1="0.5" y2="30"/><line opacity="0.2" x1="291.0565741865407" x2="291.0565741865407" y1="0.5" y2="30"/><line opacity="0.2" x1="118.61879412619606" x2="118.61879412619606" y1="0.5" y2="30"/><line opacity="0.2" x1="375.2301580772521" x2="375.2301580772521" y1="0.5" y2="30"/><line opacity="0.2" x1="196.26641823938775" x2="196.26641823938775" y1="0.5" y2="30"/><line opacity="0.2" x1="172.86938603895283" x2="172.86938603895283" y1="0.5" y2="30"/><line opacity="0.2" x1="395.1942392353024" x2="395.1942392353024" y1="0.5" y2="30"/><line opacity="0.2" x1="325.18499817719714" x2="325.18499817719714" y1="0.5" y2="30"/><line opacity="0.2" x1="395.0983294041748" x2="395.0983294041748" y1="0.5" y2="30"/><line opacity="0.2" x1="414.4308129121746" x2="414.4308129121746" y1="0.5" y2="30"/><line opacity="0.2" x1="230.62326168062097" x2="230.62326168062097" y1="0.5" y2="30"/><line opacity="0.2" x1="411.5760598810818" x2="411.5760598810818" y1="0.5" y2="30"/><line opacity="0.2" x1="212.9549795745519" x2="212.9549795745519" y1="0.5" y2="30"/><line opacity="0.2" x1="434.6587703234167" x2="434.6587703234167" y1="0.5" y2="30"/><line opacity="0.2" x1="430.86427603916667" x2="430.86427603916667" y1="0.5" y2="30"/><line opacity="0.2" x1="168.75086210092982" x2="168.75086210092982" y1="0.5" y2="30"/><line opacity="0.2" x1="201.69490730915942" x2="201.69490730915942" y1="0.5" y2="30"/><line opacity="0.2" x1="182.27066901763976" x2="182.27066901763976" y1="0.5" y2="30"/><line opacity="0.2" x1="157.3526266654214" x2="157.3526266654214" y1="0.5" y2="30"/><line opacity="0.2" x1="332.3091512741767" x2="332.3091512741767" y1="0.5" y2="30"/><line opacity="0.2" x1="129.47377905952143" x2="129.47377905952143" y1="0.5" y2="30"/><line opacity="0.2" x1="286.561933475211" x2="286.561933475211" y1="0.5" y2="30"/><line opacity="0.2" x1="465.45926503695785" x2="465.45926503695785" y1="0.5" y2="30"/><line opacity="0.2" x1="293.016493707611" x2="293.016493707611" y1="0.5" y2="30"/><line opacity="0.2" x1="409.8350552279839" x2="409.8350552279839" y1="0.5" y2="30"/><line opacity="0.2" x1="265.8905226250435" x2="265.8905226250435" y1="0.5" y2="30"/><line opacity="0.2" x1="195.60295659811817" x2="195.60295659811817" y1="0.5" y2="30"/><line opacity="0.2" x1="240.72035025244224" x2="240.72035025244224" y1="0.5" y2="30"/><line opacity="0.2" x1="237.95425047514095" x2="237.95425047514095" y1="0.5" y2="30"/><line opacity="0.2" x1="318.76824446038415" x2="318.76824446038415" y1="0.5" y2="30"/><line opacity="0.2" x1="89.85146180169829" x2="89.85146180169829" y1="0.5" y2="30"/><line opacity="0.2" x1="346.2034140995097" x2="346.2034140995097" y1="0.5" y2="30"/><line opacity="0.2" x1="240.02447093955507" x2="240.02447093955507" y1="0.5" y2="30"/><line opacity="0.2" x1="242.98710722744204" x2="242.98710722744204" y1="0.5" y2="30"/><line opacity="0.2" x1="277.6788598814958" x2="277.6788598814958" y1="0.5" y2="30"/><line opacity="0.2" x1="310.86498285657734" x2="310.86498285657734" y1="0.5" y2="30"/><line opacity="0.2" x1="283.57251460317093" x2="283.57251460317093" y1="0.5" y2="30"/><line opacity="0.2" x1="202.2622673556474" x2="202.2622673556474" y1="0.5" y2="30"/><line opacity="0.2" x1="261.7643250583508" x2="261.7643250583508" y1="0.5" y2="30"/><line opacity="0.2" x1="314.73384975182825" x2="314.73384975182825" y1="0.5" y2="30"/><line opacity="0.2" x1="231.66968353029125" x2="231.66968353029125" y1="0.5" y2="30"/><line opacity="0.2" x1="154.73010404357103" x2="154.73010404357103" y1="0.5" y2="30"/><line opacity="0.2" x1="363.5813834089394" x2="363.5813834089394" y1="0.5" y2="30"/><line opacity="0.2" x1="149.04094634887758" x2="149.04094634887758" y1="0.5" y2="30"/><line opacity="0.2" x1="189.96356170556152" x2="189.96356170556152" y1="0.5" y2="30"/><line opacity="0.2" x1="180.45849293610755" x2="180.45849293610755" y1="0.5" y2="30"/><line opacity="0.2" x1="199.79799664476573" x2="199.79799664476573" y1="0.5" y2="30"/><line opacity="0.2" x1="181.0265632476611" x2="181.0265632476611" y1="0.5" y2="30"/><line opacity="0.2" x1="378.9880295624028" x2="378.9880295624028" y1="0.5" y2="30"/><line opacity="0.2" x1="294.0838991489934" x2="294.0838991489934" y1="0.5" y2="30"/><line opacity="0.2" x1="347.70417346386006" x2="347.70417346386006" y1="0.5" y2="30"/><line opacity="0.2" x1="215.59737893824135" x2="215.59737893824135" y1="0.5" y2="30"/><line opacity="0.2" x1="192.16209272467597" x2="192.16209272467597" y1="0.5" y2="30"/><line opacity="0.2" x1="318.27586709594294" x2="318.27586709594294" y1="0.5" y2="30"/><line opacity="0.2" x1="300.79255581947604" x2="300.79255581947604" y1="0.5" y2="30"/><line opacity="0.2" x1="257.92283962387046" x2="257.92283962387046" y1="0.5" y2="30"/><line opacity="0.2" x1="150.2114424303831" x2="150.2114424303831" y1="0.5" y2="30"/><line opacity="0.2" x1="247.21363842158792" x2="247.21363842158792" y1="0.5" y2="30"/><line opacity="0.2" x1="381.5573987243127" x2="381.5573987243127" y1="0.5" y2="30"/><line opacity="0.2" x1="316.81910507507166" x2="316.81910507507166" y1="0.5" y2="30"/><line opacity="0.2" x1="521.1892533473131" x2="521.1892533473131" y1="0.5" y2="30"/><line opacity="0.2" x1="228.4424238335469" x2="228.4424238335469" y1="0.5" y2="30"/><line opacity="0.2" x1="160.37190531147255" x2="160.37190531147255" y1="0.5" y2="30"/><line opacity="0.2" x1="307.94046420363634" x2="307.94046420363634" y1="0.5" y2="30"/><line opacity="0.2" x1="299.6640359397214" x2="299.6640359397214" y1="0.5" y2="30"/><line opacity="0.2" x1="298.5278361022768" x2="298.5278361022768" y1="0.5" y2="30"/><line opacity="0.2" x1="421.57469800795985" x2="421.57469800795985" y1="0.5" y2="30"/><line opacity="0.2" x1="291.92173597801894" x2="291.92173597801894" y1="0.5" y2="30"/><line opacity="0.2" x1="346.9853805610802" x2="346.9853805610802" y1="0.5" y2="30"/><line opacity="0.2" x1="248.806052444152" x2="248.806052444152" y1="0.5" y2="30"/><line opacity="0.2" x1="310.96277734243256" x2="310.96277734243256" y1="0.5" y2="30"/><line opacity="0.2" x1="267.41463258680994" x2="267.41463258680994" y1="0.5" y2="30"/><line opacity="0.2" x1="235.13880546536404" x2="235.13880546536404" y1="0.5" y2="30"/><line opacity="0.2" x1="184.17634838848255" x2="184.17634838848255" y1="0.5" y2="30"/><line opacity="0.2" x1="384.14916525682105" x2="384.14916525682105" y1="0.5" y2="30"/><line opacity="0.2" x1="388.5465390175279" x2="388.5465390175279" y1="0.5" y2="30"/><line opacity="0.2" x1="358.0523179848652" x2="358.0523179848652" y1="0.5" y2="30"/><line opacity="0.2" x1="413.2873328591689" x2="413.2873328591689" y1="0.5" y2="30"/><line opacity="0.2" x1="250.83626330213605" x2="250.83626330213605" y1="0.5" y2="30"/><line opacity="0.2" x1="203.17314313849073" x2="203.17314313849073" y1="0.5" y2="30"/><line opacity="0.2" x1="201.18053014465448" x2="201.18053014465448" y1="0.5" y2="30"/><line opacity="0.2" x1="207.3859587923865" x2="207.3859587923865" y1="0.5" y2="30"/><line opacity="0.2" x1="208.9424717325058" x2="208.9424717325058" y1="0.5" y2="30"/><line opacity="0.2" x1="391.3095434918738" x2="391.3095434918738" y1="0.5" y2="30"/><line opacity="0.2" x1="299.71447870541976" x2="299.71447870541976" y1="0.5" y2="30"/><line opacity="0.2" x1="158.99689661700535" x2="158.99689661700535" y1="0.5" y2="30"/><line opacity="0.2" x1="171.8842363613187" x2="171.8842363613187" y1="0.5" y2="30"/><line opacity="0.2" x1="401.390211463948" x2="401.390211463948" y1="0.5" y2="30"/><line opacity="0.2" x1="383.5902438522941" x2="383.5902438522941" y1="0.5" y2="30"/><line opacity="0.2" x1="265.7362136874719" x2="265.7362136874719" y1="0.5" y2="30"/><line opacity="0.2" x1="279.41032617253" x2="279.41032617253" y1="0.5" y2="30"/><line opacity="0.2" x1="346.3335175848521" x2="346.3335175848521" y1="0.5" y2="30"/><line opacity="0.2" x1="376.2355463386495" x2="376.2355463386495" y1="0.5" y2="30"/><line opacity="0.2" x1="298.4463116530803" x2="298.4463116530803" y1="0.5" y2="30"/><line opacity="0.2" x1="96.84951323613315" x2="96.84951323613315" y1="0.5" y2="30"/><line opacity="0.2" x1="284.4741708845803" x2="284.4741708845803" y1="0.5" y2="30"/><line opacity="0.2" x1="347.0244098756643" x2="347.0244098756643" y1="0.5" y2="30"/><line opacity="0.2" x1="288.90115884598043" x2="288.90115884598043" y1="0.5" y2="30"/><line opacity="0.2" x1="407.62393445829525" x2="407.62393445829525" y1="0.5" y2="30"/><line opacity="0.2" x1="219.0147505076586" x2="219.0147505076586" y1="0.5" y2="30"/><line opacity="0.2" x1="409.23820056958436" x2="409.23820056958436" y1="0.5" y2="30"/><line opacity="0.2" x1="154.93327844055352" x2="154.93327844055352" y1="0.5" y2="30"/><line opacity="0.2" x1="239.71326261507735" x2="239.71326261507735" y1="0.5" y2="30"/><line opacity="0.2" x1="189.40860907779103" x2="189.40860907779103" y1="0.5" y2="30"/><line opacity="0.2" x1="435.6783089819587" x2="435.6783089819587" y1="0.5" y2="30"/><line opacity="0.2" x1="224.7848302626584" x2="224.7848302626584" y1="0.5" y2="30"/><line opacity="0.2" x1="257.07264515160597" x2="257.07264515160597" y1="0.5" y2="30"/><line opacity="0.2" x1="432.48962130704024" x2="432.48962130704024" y1="0.5" y2="30"/><line opacity="0.2" x1="338.9958270301474" x2="338.9958270301474" y1="0.5" y2="30"/><line opacity="0.2" x1="340.56013965138885" x2="340.56013965138885" y1="0.5" y2="30"/><line opacity="0.2" x1="264.1900390100508" x2="264.1900390100508" y1="0.5" y2="30"/><line opacity="0.2" x1="268.1648050249619" x2="268.1648050249619" y1="0.5" y2="30"/><line opacity="0.2" x1="331.1564587990052" x2="331.1564587990052" y1="0.5" y2="30"/><line opacity="0.2" x1="354.69593878335405" x2="354.69593878335405" y1="0.5" y2="30"/><line opacity="0.2" x1="235.81184476790233" x2="235.81184476790233" y1="0.5" y2="30"/><line opacity="0.2" x1="335.861237526997" x2="335.861237526997" y1="0.5" y2="30"/><line opacity="0.2" x1="239.54623820209125" x2="239.54623820209125" y1="0.5" y2="30"/><line opacity="0.2" x1="44.68487657078859" x2="44.68487657078859" y1="0.5" y2="30"/><line opacity="0.2" x1="220.89871679678532" x2="220.89871679678532" y1="0.5" y2="30"/><line opacity="0.2" x1="278.18103757465286" x2="278.18103757465286" y1="0.5" y2="30"/><line opacity="0.2" x1="206.73536348694628" x2="206.73536348694628" y1="0.5" y2="30"/><line opacity="0.2" x1="249.3083445516774" x2="249.3083445516774" y1="0.5" y2="30"/><line opacity="0.2" x1="284.36912833574" x2="284.36912833574" y1="0.5" y2="30"/><line opacity="0.2" x1="290.3981510951589" x2="290.3981510951589" y1="0.5" y2="30"/><line opacity="0.2" x1="444.29019443829367" x2="444.29019443829367" y1="0.5" y2="30"/><line opacity="0.2" x1="220.41525406116665" x2="220.41525406116665" y1="0.5" y2="30"/><line opacity="0.2" x1="223.36008399472405" x2="223.36008399472405" y1="0.5" y2="30"/><line opacity="0.2" x1="382.24294990416803" x2="382.24294990416803" y1="0.5" y2="30"/><line opacity="0.2" x1="280.23669242957527" x2="280.23669242957527" y1="0.5" y2="30"/><line opacity="0.2" x1="479.97296445747196" x2="479.97296445747196" y1="0.5" y2="30"/><line opacity="0.2" x1="312.88685706760214" x2="312.88685706760214" y1="0.5" y2="30"/><line opacity="0.2" x1="285.18820913985786" x2="285.18820913985786" y1="0.5" y2="30"/><line opacity="0.2" x1="304.3378829510666" x2="304.3378829510666" y1="0.5" y2="30"/><line opacity="0.2" x1="225.87299437536814" x2="225.87299437536814" y1="0.5" y2="30"/><line opacity="0.2" x1="361.2426479918481" x2="361.2426479918481" y1="0.5" y2="30"/><line opacity="0.2" x1="126.4028814777565" x2="126.4028814777565" y1="0.5" y2="30"/><line opacity="0.2" x1="139.15603996882894" x2="139.15603996882894" y1="0.5" y2="30"/><line opacity="0.2" x1="229.5405950743344" x2="229.5405950743344" y1="0.5" y2="30"/><line opacity="0.2" x1="202.91944208363824" x2="202.91944208363824" y1="0.5" y2="30"/><line opacity="0.2" x1="208.7292242680292" x2="208.7292242680292" y1="0.5" y2="30"/><line opacity="0.2" x1="238.08705463910266" x2="238.08705463910266" y1="0.5" y2="30"/><line opacity="0.2" x1="216.3104412556247" x2="216.3104412556247" y1="0.5" y2="30"/><line opacity="0.2" x1="125.51815606921568" x2="125.51815606921568" y1="0.5" y2="30"/><line opacity="0.2" x1="272.03271325705566" x2="272.03271325705566" y1="0.5" y2="30"/><line opacity="0.2" x1="218.52790040743287" x2="218.52790040743287" y1="0.5" y2="30"/><line opacity="0.2" x1="168.85926594344778" x2="168.85926594344778" y1="0.5" y2="30"/><line opacity="0.2" x1="232.6754198619684" x2="232.6754198619684" y1="0.5" y2="30"/><line opacity="0.2" x1="280.514145514494" x2="280.514145514494" y1="0.5" y2="30"/><line opacity="0.2" x1="327.7468172256653" x2="327.7468172256653" y1="0.5" y2="30"/><line opacity="0.2" x1="448.4939684915009" x2="448.4939684915009" y1="0.5" y2="30"/><line opacity="0.2" x1="189.0954661088012" x2="189.0954661088012" y1="0.5" y2="30"/><line opacity="0.2" x1="236.68532722087014" x2="236.68532722087014" y1="0.5" y2="30"/><line opacity="0.2" x1="364.7436430683203" x2="364.7436430683203" y1="0.5" y2="30"/><line opacity="0.2" x1="214.84316641475087" x2="214.84316641475087" y1="0.5" y2="30"/><line opacity="0.2" x1="239.96603230149668" x2="239.96603230149668" y1="0.5" y2="30"/><line opacity="0.2" x1="329.47417142744354" x2="329.47417142744354" y1="0.5" y2="30"/><line opacity="0.2" x1="23.739300796219364" x2="23.739300796219364" y1="0.5" y2="30"/><line opacity="0.2" x1="238.08578108954904" x2="238.08578108954904" y1="0.5" y2="30"/><line opacity="0.2" x1="273.96988941496716" x2="273.96988941496716" y1="0.5" y2="30"/><line opacity="0.2" x1="187.48403060302192" x2="187.48403060302192" y1="0.5" y2="30"/><line opacity="0.2" x1="358.07256240580034" x2="358.07256240580034" y1="0.5" y2="30"/><line opacity="0.2" x1="332.3777586270452" x2="332.3777586270452" y1="0.5" y2="30"/><line opacity="0.2" x1="300.4576353192263" x2="300.4576353192263" y1="0.5" y2="30"/><line opacity="0.2" x1="205.53105944357705" x2="205.53105944357705" y1="0.5" y2="30"/><line opacity="0.2" x1="199.4387015919525" x2="199.4387015919525" y1="0.5" y2="30"/><line opacity="0.2" x1="343.5111819070296" x2="343.5111819070296" y1="0.5" y2="30"/><line opacity="0.2" x1="545.8427014153748" x2="545.8427014153748" y1="0.5" y2="30"/><line opacity="0.2" x1="233.3591206515282" x2="233.3591206515282" y1="0.5" y2="30"/><line opacity="0.2" x1="393.8980368104062" x2="393.8980368104062" y1="0.5" y2="30"/><line opacity="0.2" x1="317.7074147595132" x2="317.7074147595132" y1="0.5" y2="30"/><line opacity="0.2" x1="391.48546056431195" x2="391.48546056431195" y1="0.5" y2="30"/><line opacity="0.2" x1="276.07555884566125" x2="276.07555884566125" y1="0.5" y2="30"/><line opacity="0.2" x1="245.4668146670433" x2="245.4668146670433" y1="0.5" y2="30"/><line opacity="0.2" x1="141.43790082982443" x2="141.43790082982443" y1="0.5" y2="30"/><line opacity="0.2" x1="348.0693202009842" x2="348.0693202009842" y1="0.5" y2="30"/><line opacity="0.2" x1="367.6763337944836" x2="367.6763337944836" y1="0.5" y2="30"/><line opacity="0.2" x1="456.0949001391617" x2="456.0949001391617" y1="0.5" y2="30"/><line opacity="0.2" x1="202.46392197931112" x2="202.46392197931112" y1="0.5" y2="30"/><line opacity="0.2" x1="446.35804216538924" x2="446.35804216538924" y1="0.5" y2="30"/><line opacity="0.2" x1="403.095439680844" x2="403.095439680844" y1="0.5" y2="30"/><line opacity="0.2" x1="239.84831191215" x2="239.84831191215" y1="0.5" y2="30"/><line opacity="0.2" x1="502.9343401344012" x2="502.9343401344012" y1="0.5" y2="30"/><line opacity="0.2" x1="373.9187450193381" x2="373.9187450193381" y1="0.5" y2="30"/><line opacity="0.2" x1="356.51127968982905" x2="356.51127968982905" y1="0.5" y2="30"/><line opacity="0.2" x1="248.8696423767703" x2="248.8696423767703" y1="0.5" y2="30"/><line opacity="0.2" x1="211.7425103704158" x2="211.7425103704158" y1="0.5" y2="30"/><line opacity="0.2" x1="333.21688145654394" x2="333.21688145654394" y1="0.5" y2="30"/><line opacity="0.2" x1="480.34596395803436" x2="480.34596395803436" y1="0.5" y2="30"/><line opacity="0.2" x1="83.69547468951956" x2="83.69547468951956" y1="0.5" y2="30"/><line opacity="0.2" x1="144.08031005454444" x2="144.08031005454444" y1="0.5" y2="30"/><line opacity="0.2" x1="220.52555349586495" x2="220.52555349586495" y1="0.5" y2="30"/><line opacity="0.2" x1="305.46395340939097" x2="305.46395340939097" y1="0.5" y2="30"/><line opacity="0.2" x1="348.0397504042931" x2="348.0397504042931" y1="0.5" y2="30"/><line opacity="0.2" x1="164.4432550003244" x2="164.4432550003244" y1="0.5" y2="30"/><line opacity="0.2" x1="252.13335578927195" x2="252.13335578927195" y1="0.5" y2="30"/><line opacity="0.2" x1="307.6247501050832" x2="307.6247501050832" y1="0.5" y2="30"/><line opacity="0.2" x1="180.75717436051602" x2="180.75717436051602" y1="0.5" y2="30"/><line opacity="0.2" x1="282.3491219893131" x2="282.3491219893131" y1="0.5" y2="30"/><line opacity="0.2" x1="280.57773631801393" x2="280.57773631801393" y1="0.5" y2="30"/><line opacity="0.2" x1="144.04564852606052" x2="144.04564852606052" y1="0.5" y2="30"/><line opacity="0.2" x1="275.6431858595191" x2="275.6431858595191" y1="0.5" y2="30"/><line opacity="0.2" x1="173.7861030789356" x2="173.7861030789356" y1="0.5" y2="30"/><line opacity="0.2" x1="268.57186697692043" x2="268.57186697692043" y1="0.5" y2="30"/><line opacity="0.2" x1="322.3456207401972" x2="322.3456207401972" y1="0.5" y2="30"/><line opacity="0.2" x1="176.60739815982762" x2="176.60739815982762" y1="0.5" y2="30"/><line opacity="0.2" x1="326.74397971353267" x2="326.74397971353267" y1="0.5" y2="30"/><line opacity="0.2" x1="238.25995733167923" x2="238.25995733167923" y1="0.5" y2="30"/><line opacity="0.2" x1="373.38580157815886" x2="373.38580157815886" y1="0.5" y2="30"/><line opacity="0.2" x1="326.1715584001888" x2="326.1715584001888" y1="0.5" y2="30"/><line opacity="0.2" x1="344.0560098196747" x2="344.0560098196747" y1="0.5" y2="30"/><line opacity="0.2" x1="179.06393934370078" x2="179.06393934370078" y1="0.5" y2="30"/><line opacity="0.2" x1="188.43596830388776" x2="188.43596830388776" y1="0.5" y2="30"/><line opacity="0.2" x1="131.70484737290752" x2="131.70484737290752" y1="0.5" y2="30"/><line opacity="0.2" x1="244.6028891517104" x2="244.6028891517104" y1="0.5" y2="30"/><line opacity="0.2" x1="286.8894354538884" x2="286.8894354538884" y1="0.5" y2="30"/><line opacity="0.2" x1="196.8343055305159" x2="196.8343055305159" y1="0.5" y2="30"/><line opacity="0.2" x1="380.757248982445" x2="380.757248982445" y1="0.5" y2="30"/><line opacity="0.2" x1="216.51372294329917" x2="216.51372294329917" y1="0.5" y2="30"/><line opacity="0.2" x1="471.05361158610856" x2="471.05361158610856" y1="0.5" y2="30"/><line opacity="0.2" x1="390.3897454315706" x2="390.3897454315706" y1="0.5" y2="30"/><line opacity="0.2" x1="216.70145465551678" x2="216.70145465551678" y1="0.5" y2="30"/><line opacity="0.2" x1="132.8186341638819" x2="132.8186341638819" y1="0.5" y2="30"/><line opacity="0.2" x1="199.20470420411175" x2="199.20470420411175" y1="0.5" y2="30"/><line opacity="0.2" x1="245.3868183646165" x2="245.3868183646165" y1="0.5" y2="30"/><line opacity="0.2" x1="262.94214907535047" x2="262.94214907535047" y1="0.5" y2="30"/><line opacity="0.2" x1="209.57316394426945" x2="209.57316394426945" y1="0.5" y2="30"/><line opacity="0.2" x1="289.9394602405685" x2="289.9394602405685" y1="0.5" y2="30"/><line opacity="0.2" x1="249.46580002014193" x2="249.46580002014193" y1="0.5" y2="30"/><line opacity="0.2" x1="171.21404442706154" x2="171.21404442706154" y1="0.5" y2="30"/><line opacity="0.2" x1="32.03951341838817" x2="32.03951341838817" y1="0.5" y2="30"/><line opacity="0.2" x1="277.70945198790736" x2="277.70945198790736" y1="0.5" y2="30"/><line opacity="0.2" x1="305.3900282318984" x2="305.3900282318984" y1="0.5" y2="30"/><line opacity="0.2" x1="302.03883329429084" x2="302.03883329429084" y1="0.5" y2="30"/><line opacity="0.2" x1="260.0103883409126" x2="260.0103883409126" y1="0.5" y2="30"/><line opacity="0.2" x1="228.84204346197205" x2="228.84204346197205" y1="0.5" y2="30"/><line opacity="0.2" x1="302.18412461862874" x2="302.18412461862874" y1="0.5" y2="30"/><line opacity="0.2" x1="221.96077755738523" x2="221.96077755738523" y1="0.5" y2="30"/><line opacity="0.2" x1="459.7123116017941" x2="459.7123116017941" y1="0.5" y2="30"/><line opacity="0.2" x1="244.91190728322513" x2="244.91190728322513" y1="0.5" y2="30"/><line opacity="0.2" x1="108.82659343414014" x2="108.82659343414014" y1="0.5" y2="30"/><line opacity="0.2" x1="275.93116650633203" x2="275.93116650633203" y1="0.5" y2="30"/><line opacity="0.2" x1="324.5806185310728" x2="324.5806185310728" y1="0.5" y2="30"/><line opacity="0.2" x1="422.63604322572377" x2="422.63604322572377" y1="0.5" y2="30"/><line opacity="0.2" x1="143.24097924371577" x2="143.24097924371577" y1="0.5" y2="30"/><line opacity="0.2" x1="280.40082150433994" x2="280.40082150433994" y1="0.5" y2="30"/><line opacity="0.2" x1="91.67050002232307" x2="91.67050002232307" y1="0.5" y2="30"/><line opacity="0.2" x1="166.6789080374026" x2="166.6789080374026" y1="0.5" y2="30"/><line opacity="0.2" x1="289.06261636947585" x2="289.06261636947585" y1="0.5" y2="30"/><line opacity="0.2" x1="181.19660839043445" x2="181.19660839043445" y1="0.5" y2="30"/><line opacity="0.2" x1="162.01052422614643" x2="162.01052422614643" y1="0.5" y2="30"/><line opacity="0.2" x1="163.3076059869183" x2="163.3076059869183" y1="0.5" y2="30"/><line opacity="0.2" x1="119.5951932163136" x2="119.5951932163136" y1="0.5" y2="30"/><line opacity="0.2" x1="398.2155028397446" x2="398.2155028397446" y1="0.5" y2="30"/><line opacity="0.2" x1="325.7155616538704" x2="325.7155616538704" y1="0.5" y2="30"/><line opacity="0.2" x1="342.38836210188236" x2="342.38836210188236" y1="0.5" y2="30"/><line opacity="0.2" x1="294.20933410673774" x2="294.20933410673774" y1="0.5" y2="30"/><line opacity="0.2" x1="360.66809580949507" x2="360.66809580949507" y1="0.5" y2="30"/><line opacity="0.2" x1="353.61650950934626" x2="353.61650950934626" y1="0.5" y2="30"/><line opacity="0.2" x1="306.78534430229575" x2="306.78534430229575" y1="0.5" y2="30"/><line opacity="0.2" x1="341.7098649528469" x2="341.7098649528469" y1="0.5" y2="30"/><line opacity="0.2" x1="306.296994461587" x2="306.296994461587" y1="0.5" y2="30"/><line opacity="0.2" x1="302.7786254729728" x2="302.7786254729728" y1="0.5" y2="30"/><line opacity="0.2" x1="323.83009255839715" x2="323.83009255839715" y1="0.5" y2="30"/><line opacity="0.2" x1="266.68387945242426" x2="266.68387945242426" y1="0.5" y2="30"/><line opacity="0.2" x1="308.7319452791916" x2="308.7319452791916" y1="0.5" y2="30"/><line opacity="0.2" x1="174.49678704434132" x2="174.49678704434132" y1="0.5" y2="30"/><line opacity="0.2" x1="287.09751428731045" x2="287.09751428731045" y1="0.5" y2="30"/><line opacity="0.2" x1="20" x2="20" y1="0.5" y2="30"/><line opacity="0.2" x1="162.43730014534069" x2="162.43730014534069" y1="0.5" y2="30"/><line opacity="0.2" x1="420.84792304252204" x2="420.84792304252204" y1="0.5" y2="30"/><line opacity="0.2" x1="403.60306419944504" x2="403.60306419944504" y1="0.5" y2="30"/><line opacity="0.2" x1="392.8505598668467" x2="392.8505598668467" y1="0.5" y2="30"/><line opacity="0.2" x1="401.7326270827794" x2="401.7326270827794" y1="0.5" y2="30"/><line opacity="0.2" x1="279.8334713169071" x2="279.8334713169071" y1="0.5" y2="30"/><line opacity="0.2" x1="424.14887152573345" x2="424.14887152573345" y1="0.5" y2="30"/><line opacity="0.2" x1="205.87621566691394" x2="205.87621566691394" y1="0.5" y2="30"/><line opacity="0.2" x1="274.2068931235192" x2="274.2068931235192" y1="0.5" y2="30"/><line opacity="0.2" x1="313.85626378052416" x2="313.85626378052416" y1="0.5" y2="30"/><line opacity="0.2" x1="223.1922463223961" x2="223.1922463223961" y1="0.5" y2="30"/><line opacity="0.2" x1="260.1150601468876" x2="260.1150601468876" y1="0.5" y2="30"/><line opacity="0.2" x1="337.0788370933972" x2="337.0788370933972" y1="0.5" y2="30"/><line opacity="0.2" x1="219.4542456850329" x2="219.4542456850329" y1="0.5" y2="30"/><line opacity="0.2" x1="319.79794493157937" x2="319.79794493157937" y1="0.5" y2="30"/><line opacity="0.2" x1="204.1507057675439" x2="204.1507057675439" y1="0.5" y2="30"/><line opacity="0.2" x1="281.36850974534644" x2="281.36850974534644" y1="0.5" y2="30"/><line opacity="0.2" x1="359.5259975408569" x2="359.5259975408569" y1="0.5" y2="30"/><line opacity="0.2" x1="211.78578821633982" x2="211.78578821633982" y1="0.5" y2="30"/><line opacity="0.2" x1="364.26069566157133" x2="364.26069566157133" y1="0.5" y2="30"/><line opacity="0.2" x1="344.5564167134129" x2="344.5564167134129" y1="0.5" y2="30"/><line opacity="0.2" x1="319.629523523137" x2="319.629523523137" y1="0.5" y2="30"/><line opacity="0.2" x1="408.14237100750654" x2="408.14237100750654" y1="0.5" y2="30"/><line opacity="0.2" x1="241.02306986622753" x2="241.02306986622753" y1="0.5" y2="30"/><line opacity="0.2" x1="407.65163129528815" x2="407.65163129528815" y1="0.5" y2="30"/><line opacity="0.2" x1="198.36771546414275" x2="198.36771546414275" y1="0.5" y2="30"/><line opacity="0.2" x1="302.95231853959456" x2="302.95231853959456" y1="0.5" y2="30"/><line opacity="0.2" x1="324.61278883292914" x2="324.61278883292914" y1="0.5" y2="30"/><line opacity="0.2" x1="309.787515750691" x2="309.787515750691" y1="0.5" y2="30"/><line opacity="0.2" x1="221.46812800305113" x2="221.46812800305113" y1="0.5" y2="30"/><line opacity="0.2" x1="309.8618487937967" x2="309.8618487937967" y1="0.5" y2="30"/><line opacity="0.2" x1="232.29905436536785" x2="232.29905436536785" y1="0.5" y2="30"/><line opacity="0.2" x1="314.8342223907999" x2="314.8342223907999" y1="0.5" y2="30"/><line opacity="0.2" x1="318.2819341648271" x2="318.2819341648271" y1="0.5" y2="30"/><line opacity="0.2" x1="248.82848598245957" x2="248.82848598245957" y1="0.5" y2="30"/><line opacity="0.2" x1="357.8800449308633" x2="357.8800449308633" y1="0.5" y2="30"/><line opacity="0.2" x1="90.52886838945328" x2="90.52886838945328" y1="0.5" y2="30"/><line opacity="0.2" x1="232.76231926602514" x2="232.76231926602514" y1="0.5" y2="30"/><line opacity="0.2" x1="370.90756351493167" x2="370.90756351493167" y1="0.5" y2="30"/><line opacity="0.2" x1="269.9348594242552" x2="269.9348594242552" y1="0.5" y2="30"/><line opacity="0.2" x1="240.98290831726442" x2="240.98290831726442" y1="0.5" y2="30"/><line opacity="0.2" x1="448.3397750293593" x2="448.3397750293593" y1="0.5" y2="30"/><line opacity="0.2" x1="356.50451960202497" x2="356.50451960202497" y1="0.5" y2="30"/><line opacity="0.2" x1="249.95837865338888" x2="249.95837865338888" y1="0.5" y2="30"/><line opacity="0.2" x1="289.8618738590644" x2="289.8618738590644" y1="0.5" y2="30"/><line opacity="0.2" x1="386.8060404272801" x2="386.8060404272801" y1="0.5" y2="30"/><line opacity="0.2" x1="402.7572516555952" x2="402.7572516555952" y1="0.5" y2="30"/><line opacity="0.2" x1="353.71476347673365" x2="353.71476347673365" y1="0.5" y2="30"/><line opacity="0.2" x1="326.35716445863045" x2="326.35716445863045" y1="0.5" y2="30"/><line opacity="0.2" x1="224.9686046700709" x2="224.9686046700709" y1="0.5" y2="30"/><line opacity="0.2" x1="345.6017421414527" x2="345.6017421414527" y1="0.5" y2="30"/><line opacity="0.2" x1="70.00282635878806" x2="70.00282635878806" y1="0.5" y2="30"/><line opacity="0.2" x1="185.63841092388532" x2="185.63841092388532" y1="0.5" y2="30"/><line opacity="0.2" x1="248.6316127786021" x2="248.6316127786021" y1="0.5" y2="30"/><line opacity="0.2" x1="396.26850146406116" x2="396.26850146406116" y1="0.5" y2="30"/><line opacity="0.2" x1="175.41126925172333" x2="175.41126925172333" y1="0.5" y2="30"/><line opacity="0.2" x1="316.5833612501785" x2="316.5833612501785" y1="0.5" y2="30"/><line opacity="0.2" x1="163.83746796355163" x2="163.83746796355163" y1="0.5" y2="30"/><line opacity="0.2" x1="305.86427294718135" x2="305.86427294718135" y1="0.5" y2="30"/><line opacity="0.2" x1="237.66660180391472" x2="237.66660180391472" y1="0.5" y2="30"/><line opacity="0.2" x1="465.6758301028594" x2="465.6758301028594" y1="0.5" y2="30"/><line opacity="0.2" x1="251.06453514568094" x2="251.06453514568094" y1="0.5" y2="30"/><line opacity="0.2" x1="291.99506325613913" x2="291.99506325613913" y1="0.5" y2="30"/><line opacity="0.2" x1="212.26586651061336" x2="212.26586651061336" y1="0.5" y2="30"/><line opacity="0.2" x1="350.94407174520177" x2="350.94407174520177" y1="0.5" y2="30"/><line opacity="0.2" x1="276.6553382114274" x2="276.6553382114274" y1="0.5" y2="30"/><line opacity="0.2" x1="93.25765014327413" x2="93.25765014327413" y1="0.5" y2="30"/><line opacity="0.2" x1="310.3160808393116" x2="310.3160808393116" y1="0.5" y2="30"/><line opacity="0.2" x1="299.8912527794457" x2="299.8912527794457" y1="0.5" y2="30"/><line opacity="0.2" x1="192.79157362988457" x2="192.79157362988457" y1="0.5" y2="30"/><line opacity="0.2" x1="334.34920186882056" x2="334.34920186882056" y1="0.5" y2="30"/><line opacity="0.2" x1="310.3518470927552" x2="310.3518470927552" y1="0.5" y2="30"/><line opacity="0.2" x1="331.48081027795365" x2="331.48081027795365" y1="0.5" y2="30"/><line opacity="0.2" x1="134.93196995621892" x2="134.93196995621892" y1="0.5" y2="30"/><line opacity="0.2" x1="186.4425143186743" x2="186.4425143186743" y1="0.5" y2="30"/><line opacity="0.2" x1="262.7238194874279" x2="262.7238194874279" y1="0.5" y2="30"/><line opacity="0.2" x1="266.8224213151898" x2="266.8224213151898" y1="0.5" y2="30"/><line opacity="0.2" x1="247.9499936503625" x2="247.9499936503625" y1="0.5" y2="30"/><line opacity="0.2" x1="348.6536317104735" x2="348.6536317104735" y1="0.5" y2="30"/><line opacity="0.2" x1="114.16850004901514" x2="114.16850004901514" y1="0.5" y2="30"/><line opacity="0.2" x1="287.34496241470043" x2="287.34496241470043" y1="0.5" y2="30"/><line opacity="0.2" x1="263.1408515498271" x2="263.1408515498271" y1="0.5" y2="30"/><line opacity="0.2" x1="290.1976436414347" x2="290.1976436414347" y1="0.5" y2="30"/><line opacity="0.2" x1="153.18780939892287" x2="153.18780939892287" y1="0.5" y2="30"/><line opacity="0.2" x1="237.27904162066343" x2="237.27904162066343" y1="0.5" y2="30"/><line opacity="0.2" x1="219.16145209759827" x2="219.16145209759827" y1="0.5" y2="30"/><line opacity="0.2" x1="370.438902227351" x2="370.438902227351" y1="0.5" y2="30"/><line opacity="0.2" x1="66.6779628819493" x2="66.6779628819493" y1="0.5" y2="30"/><line opacity="0.2" x1="135.9888214943057" x2="135.9888214943057" y1="0.5" y2="30"/><line opacity="0.2" x1="164.6335917680768" x2="164.6335917680768" y1="0.5" y2="30"/><line opacity="0.2" x1="267.83652833137165" x2="267.83652833137165" y1="0.5" y2="30"/><line opacity="0.2" x1="271.386757423136" x2="271.386757423136" y1="0.5" y2="30"/><line opacity="0.2" x1="212.46209229563027" x2="212.46209229563027" y1="0.5" y2="30"/><line opacity="0.2" x1="242.40586097691164" x2="242.40586097691164" y1="0.5" y2="30"/><line opacity="0.2" x1="205.83085205645264" x2="205.83085205645264" y1="0.5" y2="30"/><line opacity="0.2" x1="236.92117497359044" x2="236.92117497359044" y1="0.5" y2="30"/><line opacity="0.2" x1="304.4762126991646" x2="304.4762126991646" y1="0.5" y2="30"/><line opacity="0.2" x1="121.17923024902538" x2="121.17923024902538" y1="0.5" y2="30"/><line opacity="0.2" x1="230.83529578205054" x2="230.83529578205054" y1="0.5" y2="30"/><line opacity="0.2" x1="278.0635216419132" x2="278.0635216419132" y1="0.5" y2="30"/><line opacity="0.2" x1="365.1903734245036" x2="365.1903734245036" y1="0.5" y2="30"/><line opacity="0.2" x1="323.7479733711438" x2="323.7479733711438" y1="0.5" y2="30"/><line opacity="0.2" x1="288.3380939280453" x2="288.3380939280453" y1="0.5" y2="30"/><line opacity="0.2" x1="234.2672868543514" x2="234.2672868543514" y1="0.5" y2="30"/><line opacity="0.2" x1="413.8947714350871" x2="413.8947714350871" y1="0.5" y2="30"/><line opacity="0.2" x1="213.40008381866573" x2="213.40008381866573" y1="0.5" y2="30"/><line opacity="0.2" x1="232.5991934117702" x2="232.5991934117702" y1="0.5" y2="30"/><line opacity="0.2" x1="222.37298458403515" x2="222.37298458403515" y1="0.5" y2="30"/><line opacity="0.2" x1="293.98343912642554" x2="293.98343912642554" y1="0.5" y2="30"/><line opacity="0.2" x1="271.3446097166279" x2="271.3446097166279" y1="0.5" y2="30"/><line opacity="0.2" x1="437.2034422509584" x2="437.2034422509584" y1="0.5" y2="30"/><line opacity="0.2" x1="281.36302648922816" x2="281.36302648922816" y1="0.5" y2="30"/><line opacity="0.2" x1="282.06313582717877" x2="282.06313582717877" y1="0.5" y2="30"/><line opacity="0.2" x1="131.6282423052279" x2="131.6282423052279" y1="0.5" y2="30"/><line opacity="0.2" x1="175.31178699923777" x2="175.31178699923777" y1="0.5" y2="30"/><line opacity="0.2" x1="205.36864839323485" x2="205.36864839323485" y1="0.5" y2="30"/><line opacity="0.2" x1="416.72572455885876" x2="416.72572455885876" y1="0.5" y2="30"/><line opacity="0.2" x1="273.62483330563754" x2="273.62483330563754" y1="0.5" y2="30"/><line opacity="0.2" x1="374.2499476250556" x2="374.2499476250556" y1="0.5" y2="30"/><line opacity="0.2" x1="249.89727162915727" x2="249.89727162915727" y1="0.5" y2="30"/><line opacity="0.2" x1="232.15359130317574" x2="232.15359130317574" y1="0.5" y2="30"/><line opacity="0.2" x1="369.00665541332114" x2="369.00665541332114" y1="0.5" y2="30"/><line opacity="0.2" x1="391.7104078451784" x2="391.7104078451784" y1="0.5" y2="30"/><line opacity="0.2" x1="85.4507770506653" x2="85.4507770506653" y1="0.5" y2="30"/><line opacity="0.2" x1="245.21773344266802" x2="245.21773344266802" y1="0.5" y2="30"/><line opacity="0.2" x1="346.9260752694719" x2="346.9260752694719" y1="0.5" y2="30"/><line opacity="0.2" x1="373.0138832888707" x2="373.0138832888707" y1="0.5" y2="30"/><line opacity="0.2" x1="242.15458582215237" x2="242.15458582215237" y1="0.5" y2="30"/><line opacity="0.2" x1="117.51353201012901" x2="117.51353201012901" y1="0.5" y2="30"/><line opacity="0.2" x1="193.2677176729227" x2="193.2677176729227" y1="0.5" y2="30"/><line opacity="0.2" x1="265.5961649008043" x2="265.5961649008043" y1="0.5" y2="30"/><line opacity="0.2" x1="309.3748219272926" x2="309.3748219272926" y1="0.5" y2="30"/><line opacity="0.2" x1="202.47856383115246" x2="202.47856383115246" y1="0.5" y2="30"/><line opacity="0.2" x1="202.59323841811027" x2="202.59323841811027" y1="0.5" y2="30"/><line opacity="0.2" x1="64.98692203748486" x2="64.98692203748486" y1="0.5" y2="30"/><line opacity="0.2" x1="215.80936560483434" x2="215.80936560483434" y1="0.5" y2="30"/><line opacity="0.2" x1="340.22315706380544" x2="340.22315706380544" y1="0.5" y2="30"/><line opacity="0.2" x1="24.27336931240178" x2="24.27336931240178" y1="0.5" y2="30"/><line opacity="0.2" x1="331.0551435907751" x2="331.0551435907751" y1="0.5" y2="30"/><line opacity="0.2" x1="300.0983003754312" x2="300.0983003754312" y1="0.5" y2="30"/><line opacity="0.2" x1="246.86376548112833" x2="246.86376548112833" y1="0.5" y2="30"/><line opacity="0.2" x1="163.39410279473006" x2="163.39410279473006" y1="0.5" y2="30"/><line opacity="0.2" x1="249.1577219839056" x2="249.1577219839056" y1="0.5" y2="30"/><line opacity="0.2" x1="327.0948112659521" x2="327.0948112659521" y1="0.5" y2="30"/><line opacity="0.2" x1="231.19801665463586" x2="231.19801665463586" y1="0.5" y2="30"/><line opacity="0.2" x1="413.7025068057665" x2="413.7025068057665" y1="0.5" y2="30"/><line opacity="0.2" x1="225.93608326668638" x2="225.93608326668638" y1="0.5" y2="30"/><line opacity="0.2" x1="201.87384056664135" x2="201.87384056664135" y1="0.5" y2="30"/><line opacity="0.2" x1="236.1518421834475" x2="236.1518421834475" y1="0.5" y2="30"/><line opacity="0.2" x1="262.4440023584886" x2="262.4440023584886" y1="0.5" y2="30"/><line opacity="0.2" x1="392.1916075950592" x2="392.1916075950592" y1="0.5" y2="30"/><line opacity="0.2" x1="101.85712138459519" x2="101.85712138459519" y1="0.5" y2="30"/><line opacity="0.2" x1="185.02816275834286" x2="185.02816275834286" y1="0.5" y2="30"/><line opacity="0.2" x1="150.407400939142" x2="150.407400939142" y1="0.5" y2="30"/><line opacity="0.2" x1="148.1086298456811" x2="148.1086298456811" y1="0.5" y2="30"/><line opacity="0.2" x1="218.41171015477508" x2="218.41171015477508" y1="0.5" y2="30"/><line opacity="0.2" x1="300.917490296952" x2="300.917490296952" y1="0.5" y2="30"/><line opacity="0.2" x1="360.61415717940463" x2="360.61415717940463" y1="0.5" y2="30"/><line opacity="0.2" x1="253.59264518847692" x2="253.59264518847692" y1="0.5" y2="30"/><line opacity="0.2" x1="268.6118658095945" x2="268.6118658095945" y1="0.5" y2="30"/><line opacity="0.2" x1="458.9357396592125" x2="458.9357396592125" y1="0.5" y2="30"/><line opacity="0.2" x1="395.62878899409907" x2="395.62878899409907" y1="0.5" y2="30"/><line opacity="0.2" x1="148.18100022062904" x2="148.18100022062904" y1="0.5" y2="30"/><line opacity="0.2" x1="282.40700697412376" x2="282.40700697412376" y1="0.5" y2="30"/><line opacity="0.2" x1="279.0408884869329" x2="279.0408884869329" y1="0.5" y2="30"/><line opacity="0.2" x1="67.63703689433623" x2="67.63703689433623" y1="0.5" y2="30"/><line opacity="0.2" x1="340.9914647313098" x2="340.9914647313098" y1="0.5" y2="30"/><line opacity="0.2" x1="342.07049216513474" x2="342.07049216513474" y1="0.5" y2="30"/><line opacity="0.2" x1="232.28982065651837" x2="232.28982065651837" y1="0.5" y2="30"/><line opacity="0.2" x1="111.74647109111446" x2="111.74647109111446" y1="0.5" y2="30"/><line opacity="0.2" x1="364.38543147209606" x2="364.38543147209606" y1="0.5" y2="30"/><line opacity="0.2" x1="296.4635407196685" x2="296.4635407196685" y1="0.5" y2="30"/><line opacity="0.2" x1="233.04053125366102" x2="233.04053125366102" y1="0.5" y2="30"/><line opacity="0.2" x1="343.7730888637847" x2="343.7730888637847" y1="0.5" y2="30"/><line opacity="0.2" x1="315.5197638861645" x2="315.5197638861645" y1="0.5" y2="30"/><line opacity="0.2" x1="287.42665061153707" x2="287.42665061153707" y1="0.5" y2="30"/><line opacity="0.2" x1="211.1385001125315" x2="211.1385001125315" y1="0.5" y2="30"/><line opacity="0.2" x1="421.4301140919769" x2="421.4301140919769" y1="0.5" y2="30"/><line opacity="0.2" x1="307.29617998569404" x2="307.29617998569404" y1="0.5" y2="30"/><line opacity="0.2" x1="473.30367473895194" x2="473.30367473895194" y1="0.5" y2="30"/><line opacity="0.2" x1="212.37050802737784" x2="212.37050802737784" y1="0.5" y2="30"/><line opacity="0.2" x1="365.70241895761666" x2="365.70241895761666" y1="0.5" y2="30"/><line opacity="0.2" x1="236.6804597862581" x2="236.6804597862581" y1="0.5" y2="30"/><line opacity="0.2" x1="404.3480306040881" x2="404.3480306040881" y1="0.5" y2="30"/><line opacity="0.2" x1="300.2547006545823" x2="300.2547006545823" y1="0.5" y2="30"/><line opacity="0.2" x1="305.85780762330825" x2="305.85780762330825" y1="0.5" y2="30"/><line opacity="0.2" x1="218.00174802419752" x2="218.00174802419752" y1="0.5" y2="30"/><line opacity="0.2" x1="185.53583001084792" x2="185.53583001084792" y1="0.5" y2="30"/><line opacity="0.2" x1="201.87252377275126" x2="201.87252377275126" y1="0.5" y2="30"/><line opacity="0.2" x1="150.67422358606217" x2="150.67422358606217" y1="0.5" y2="30"/><line opacity="0.2" x1="230.21820434833677" x2="230.21820434833677" y1="0.5" y2="30"/><line opacity="0.2" x1="244.5412807003231" x2="244.5412807003231" y1="0.5" y2="30"/><line opacity="0.2" x1="357.4960395105468" x2="357.4960395105468" y1="0.5" y2="30"/><line opacity="0.2" x1="342.84536743853545" x2="342.84536743853545" y1="0.5" y2="30"/><line opacity="0.2" x1="247.3705633795129" x2="247.3705633795129" y1="0.5" y2="30"/><line opacity="0.2" x1="231.3466849325769" x2="231.3466849325769" y1="0.5" y2="30"/><line opacity="0.2" x1="297.27782114158083" x2="297.27782114158083" y1="0.5" y2="30"/><line opacity="0.2" x1="137.54862264980778" x2="137.54862264980778" y1="0.5" y2="30"/><line opacity="0.2" x1="211.09366864180146" x2="211.09366864180146" y1="0.5" y2="30"/><line opacity="0.2" x1="106.89569099422414" x2="106.89569099422414" y1="0.5" y2="30"/><line opacity="0.2" x1="252.74915133212383" x2="252.74915133212383" y1="0.5" y2="30"/><line opacity="0.2" x1="375.96807814282704" x2="375.96807814282704" y1="0.5" y2="30"/><line opacity="0.2" x1="359.09866565625987" x2="359.09866565625987" y1="0.5" y2="30"/><line opacity="0.2" x1="227.9094227817496" x2="227.9094227817496" y1="0.5" y2="30"/><line opacity="0.2" x1="308.62154510995043" x2="308.62154510995043" y1="0.5" y2="30"/><line opacity="0.2" x1="391.15675802201145" x2="391.15675802201145" y1="0.5" y2="30"/><line opacity="0.2" x1="242.50790827175726" x2="242.50790827175726" y1="0.5" y2="30"/><line opacity="0.2" x1="388.7525562923588" x2="388.7525562923588" y1="0.5" y2="30"/><line opacity="0.2" x1="380.13854164358867" x2="380.13854164358867" y1="0.5" y2="30"/><line opacity="0.2" x1="152.0843316041199" x2="152.0843316041199" y1="0.5" y2="30"/><line opacity="0.2" x1="215.67277989597358" x2="215.67277989597358" y1="0.5" y2="30"/><line opacity="0.2" x1="391.05659169562216" x2="391.05659169562216" y1="0.5" y2="30"/><line opacity="0.2" x1="279.9237086270972" x2="279.9237086270972" y1="0.5" y2="30"/><line opacity="0.2" x1="358.3613760822546" x2="358.3613760822546" y1="0.5" y2="30"/><line opacity="0.2" x1="412.5038651396037" x2="412.5038651396037" y1="0.5" y2="30"/><line opacity="0.2" x1="303.5395575833251" x2="303.5395575833251" y1="0.5" y2="30"/><line opacity="0.2" x1="151.4604981201599" x2="151.4604981201599" y1="0.5" y2="30"/><line opacity="0.2" x1="378.5982869255967" x2="378.5982869255967" y1="0.5" y2="30"/><line opacity="0.2" x1="284.1864111777967" x2="284.1864111777967" y1="0.5" y2="30"/><line opacity="0.2" x1="278.21137545878145" x2="278.21137545878145" y1="0.5" y2="30"/><line opacity="0.2" x1="247.44415113660935" x2="247.44415113660935" y1="0.5" y2="30"/><line opacity="0.2" x1="408.24368495072474" x2="408.24368495072474" y1="0.5" y2="30"/><line opacity="0.2" x1="217.87738691820903" x2="217.87738691820903" y1="0.5" y2="30"/><line opacity="0.2" x1="53.92520417649796" x2="53.92520417649796" y1="0.5" y2="30"/><line opacity="0.2" x1="116.31209583890555" x2="116.31209583890555" y1="0.5" y2="30"/><line opacity="0.2" x1="106.50794694025906" x2="106.50794694025906" y1="0.5" y2="30"/><line opacity="0.2" x1="210.9150566022182" x2="210.9150566022182" y1="0.5" y2="30"/><line opacity="0.2" x1="306.64654686782967" x2="306.64654686782967" y1="0.5" y2="30"/><line opacity="0.2" x1="282.66146914636704" x2="282.66146914636704" y1="0.5" y2="30"/><line opacity="0.2" x1="282.5639515425477" x2="282.5639515425477" y1="0.5" y2="30"/><line opacity="0.2" x1="339.7861266501531" x2="339.7861266501531" y1="0.5" y2="30"/><line opacity="0.2" x1="111.36114338654849" x2="111.36114338654849" y1="0.5" y2="30"/><line opacity="0.2" x1="163.90040827411073" x2="163.90040827411073" y1="0.5" y2="30"/><line opacity="0.2" x1="140.36232572000134" x2="140.36232572000134" y1="0.5" y2="30"/><line opacity="0.2" x1="242.1084102651642" x2="242.1084102651642" y1="0.5" y2="30"/><line opacity="0.2" x1="342.7118913370564" x2="342.7118913370564" y1="0.5" y2="30"/><line opacity="0.2" x1="190.10119856697324" x2="190.10119856697324" y1="0.5" y2="30"/><line opacity="0.2" x1="329.8012701158234" x2="329.8012701158234" y1="0.5" y2="30"/><line opacity="0.2" x1="358.3761926894705" x2="358.3761926894705" y1="0.5" y2="30"/><line opacity="0.2" x1="303.2656754341928" x2="303.2656754341928" y1="0.5" y2="30"/><line opacity="0.2" x1="332.13723907495336" x2="332.13723907495336" y1="0.5" y2="30"/><line opacity="0.2" x1="286.6088441775515" x2="286.6088441775515" y1="0.5" y2="30"/><line opacity="0.2" x1="211.36680225334064" x2="211.36680225334064" y1="0.5" y2="30"/><line opacity="0.2" x1="390.03153876223183" x2="390.03153876223183" y1="0.5" y2="30"/><line opacity="0.2" x1="304.12198485185945" x2="304.12198485185945" y1="0.5" y2="30"/><line opacity="0.2" x1="193.84973015480074" x2="193.84973015480074" y1="0.5" y2="30"/><line opacity="0.2" x1="287.16249383422615" x2="287.16249383422615" y1="0.5" y2="30"/><line opacity="0.2" x1="427.4729304200918" x2="427.4729304200918" y1="0.5" y2="30"/><line opacity="0.2" x1="205.45962184588814" x2="205.45962184588814" y1="0.5" y2="30"/><line opacity="0.2" x1="133.49696809947062" x2="133.49696809947062" y1="0.5" y2="30"/><line opacity="0.2" x1="212.57566008379996" x2="212.57566008379996" y1="0.5" y2="30"/><line opacity="0.2" x1="351.37741900844986" x2="351.37741900844986" y1="0.5" y2="30"/><line opacity="0.2" x1="215.70082168484075" x2="215.70082168484075" y1="0.5" y2="30"/><line opacity="0.2" x1="267.0015495399344" x2="267.0015495399344" y1="0.5" y2="30"/><line opacity="0.2" x1="347.5525506589802" x2="347.5525506589802" y1="0.5" y2="30"/><line opacity="0.2" x1="278.283465407557" x2="278.283465407557" y1="0.5" y2="30"/><line opacity="0.2" x1="296.5137049772235" x2="296.5137049772235" y1="0.5" y2="30"/><line opacity="0.2" x1="232.90874480734604" x2="232.90874480734604" y1="0.5" y2="30"/><line opacity="0.2" x1="324.5483003646328" x2="324.5483003646328" y1="0.5" y2="30"/><line opacity="0.2" x1="185.70667073169807" x2="185.70667073169807" y1="0.5" y2="30"/><line opacity="0.2" x1="497.4905884272197" x2="497.4905884272197" y1="0.5" y2="30"/><line opacity="0.2" x1="305.6518938355938" x2="305.6518938355938" y1="0.5" y2="30"/><line opacity="0.2" x1="333.8435372011856" x2="333.8435372011856" y1="0.5" y2="30"/><line opacity="0.2" x1="322.6353975847343" x2="322.6353975847343" y1="0.5" y2="30"/><line opacity="0.2" x1="236.90294771299253" x2="236.90294771299253" y1="0.5" y2="30"/><line opacity="0.2" x1="382.9740137132428" x2="382.9740137132428" y1="0.5" y2="30"/></g></svg>