<svg xmlns="http://www.w3.org/2000/svg" xmlns:xlink="http://www.w3.org/1999/xlink" class="plot-d6a7b5" fill="currentColor" font-family="system-ui, sans-serif" font-size="10" text-anchor="middle" width="640" height="60" viewBox="0 0 640 60" style="color: black; background-color: white;"><style>.plot-d6a7b5 {
  display: block;
  background: white;
  height: auto;
  height: intrinsic;
  max-width: 100%;
}
.plot-d6a7b5 text,
.plot-d6a7b5 tspan {
  white-space: pre;
}</style><g aria-label="x-axis tick" fill="none" stroke="currentColor"><path transform="translate(115.17947830201295,30)" d="M0,0L0,6"/><path transform="translate(210.40926148952934,30)" d="M0,0L0,6"/><path transform="translate(305.6390446770457,30)" d="M0,0L0,6"/><path transform="translate(400.86882786456215,30)" d="M0,0L0,6"/><path transform="translate(496.0986110520785,30)" d="M0,0L0,6"/><path transform="translate(591.3283942395949,30)" d="M0,0L0,6"/></g><g aria-label="x-axis tick label" font-variant="tabular-nums" transform="translate(0,9)"><text y="0.71em" transform="translate(115.17947830201295,30)">−2</text><text y="0.71em" transform="translate(210.40926148952934,30)">−1</text><text y="0.71em" transform="translate(305.6390446770457,30)">0</text><text y="0.71em" transform="translate(400.86882786456215,30)">1</text><text y="0.71em" transform="translate(496.0986110520785,30)">2</text><text y="0.71em" transform="translate(591.3283942395949,30)">3</text></g><g aria-label="tick" stroke="steelblue"><line opacity="0.2" x1="374.0641340594796" x2="374.0641340594796" y1="0.5" y2="30"/><line opacity="0.2" x1="242.7662926632172" x2="242.7662926632172" y1="0.5" y2="30"/><line opacity="0.2" x1="326.4556534952955" x2="326.4556534952955" y1="0.5" y2="30"/><line opacity="0.2" x1="248.99736835544232" x2="248.99736835544232" y1="0.5" y2="30"/><line opacity="0.2" x1="320.01894348118356" x2="320.01894348118356" y1="0.5" y2="30"/><line opacity="0.2" x1="400.0516934851436" x2="400.0516934851436" y1="0.5" y2="30"/><line opacity="0.2" x1="321.12592736699145" x2="321.12592736699145" y1="0.5" y2="30"/><line opacity="0.2" x1="267.04877753851406" x2="267.04877753851406" y1="0.5" y2="30"/><line opacity="0.2" x1="343.56614196763036" x2="343.56614196763036" y1="0.5" y2="30"/><line opacity="0.2" x1="139.2500251799935" x2="139.2500251799935" y1="0.5" y2="30"/><line opacity="0.2" x1="272.58609411760756" x2="272.58609411760756" y1="0.5" y2="30"/><line opacity="0.2" x1="345.9145945087378" x2="345.9145945087378" y1="0.5" y2="30"/><line opacity="0.2" x1="298.49996492091765" x2="298.49996492091765" y1="0.5" y2="30"/><line opacity="0.2" x1="211.93639146567432" x2="211.93639146567432" y1="0.5" y2="30"/><line opacity="0.2" x1="186.6762109722755" x2="186.6762109722755" y1="0.5" y2="30"/><line opacity="0.2" x1="357.9361209767647" x2="357.9361209767647" y1="0.5" y2="30"/><line opacity="0.2" x1="342.4475150716248" x2="342.4475150716248" y1="0.5" y2="30"/><line opacity="0.2" x1="301.5448261177081" x2="301.5448261177081" y1="0.5" y2="30"/><line opacity="0.2" x1="204.87650169176078" x2="204.87650169176078" y1="0.5" y2="30"/><line opacity="0.2" x1="288.135326079166" x2="288.135326079166" y1="0.5" y2="30"/><line opacity="0.2" x1="284.77757797271664" x2="284.77757797271664" y1="0.5" y2="30"/><line opacity="0.2" x1="346.44779359" x2="346.44779359" y1="0.5" y2="30"/><line opacity="0.2" x1="342.7981203518917" x2="342.7981203518917" y1="0.5" y2="30"/><line opacity="0.2" x1="269.36471967801873" x2="269.36471967801873" y1="0.5" y2="30"/><line opacity="0.2" x1="225.65273801597368" x2="225.65273801597368" y1="0.5" y2="30"/><line opacity="0.2" x1="236.11693483279709" x2="236.11693483279709" y1="0.5" y2="30"/><line opacity="0.2" x1="39.41542899435013" x2="39.41542899435013" y1="0.5" y2="30"/><line opacity="0.2" x1="410.8728291209464" x2="410.8728291209464" y1="0.5" y2="30"/><line opacity="0.2" x1="256.99006485137136" x2="256.99006485137136" y1="0.5" y2="30"/><line opacity="0.2" x1="227.58767300664434" x2="227.58767300664434" y1="0.5" y2="30"/><line opacity="0.2" x1="397.7048202753551" x2="397.7048202753551" y1="0.5" y2="30"/><line opacity="0.2" x1="315.94608674063136" x2="315.94608674063136" y1="0.5" y2="30"/><line opacity="0.2" x1="371.5807490983532" x2="371.5807490983532" y1="0.5" y2="30"/><line opacity="0.2" x1="154.42809689790442" x2="154.42809689790442" y1="0.5" y2="30"/><line opacity="0.2" x1="344.07660532096395" x2="344.07660532096395" y1="0.5" y2="30"/><line opacity="0.2" x1="329.3516172593811" x2="329.3516172593811" y1="0.5" y2="30"/><line opacity="0.2" x1="246.05246412771194" x2="246.05246412771194" y1="0.5" y2="30"/><line opacity="0.2" x1="315.480076086402" x2="315.480076086402" y1="0.5" y2="30"/><line opacity="0.2" x1="390.50558746573023" x2="390.50558746573023" y1="0.5" y2="30"/><line opacity="0.2" x1="245.79079993639792" x2="245.79079993639792" y1="0.5" y2="30"/><line opacity="0.2" x1="416.9438190981209" x2="416.9438190981209" y1="0.5" y2="30"/><line opacity="0.2" x1="303.4889873791965" x2="303.4889873791965" y1="0.5" y2="30"/><line opacity="0.2" x1="336.0011193622653" x2="336.0011193622653" y1="0.5" y2="30"/><line opacity="0.2" x1="250.65550371739747" x2="250.65550371739747" y1="0.5" y2="30"/><line opacity="0.2" x1="171.55781215873694" x2="171.55781215873694" y1="0.5" y2="30"/><line opacity="0.2" x1="367.728914793341" x2="367.728914793341" y1="0.5" y2="30"/><line opacity="0.2" x1="378.6193500500242" x2="378.6193500500242" y1="0.5" y2="30"/><line opacity="0.2" x1="441.8352854569925" x2="441.8352854569925" y1="0.5" y2="30"/><line opacity="0.2" x1="471.45091083738487" x2="471.45091083738487" y1="0.5" y2="30"/><line opacity="0.2" x1="248.39167623646242" x2="248.39167623646242" y1="0.5" y2="30"/><line opacity="0.2" x1="196.17940196243404" x2="196.17940196243404" y1="0.5" y2="30"/><line opacity="0.2" x1="414.35019353944756" x2="414.35019353944756" y1="0.5" y2="30"/><line opacity="0.2" x1="110.19312377340549" x2="110.19312377340549" y1="0.5" y2="30"/><line opacity="0.2" x1="248.40012958514785" x2="248.40012958514785" y1="0.5" y2="30"/><line opacity="0.2" x1="349.09701339405353" x2="349.09701339405353" y1="0.5" y2="30"/><line opacity="0.2" x1="429.9068619886276" x2="429.9068619886276" y1="0.5" y2="30"/><line opacity="0.2" x1="363.2868216680718" x2="363.2868216680718" y1="0.5" y2="30"/><line opacity="0.2" x1="363.4838937720682" x2="363.4838937720682" y1="0.5" y2="30"/><line opacity="0.2" x1="268.524896872025" x2="268.524896872025" y1="0.5" y2="30"/><line opacity="0.2" x1="383.2023001104292" x2="383.2023001104292" y1="0.5" y2="30"/><line opacity="0.2" x1="342.833300730628" x2="342.833300730628" y1="0.5" y2="30"/><line opacity="0.2" x1="174.13095597546246" x2="174.13095597546246" y1="0.5" y2="30"/><line opacity="0.2" x1="315.1598571775008" x2="315.1598571775008" y1="0.5" y2="30"/><line opacity="0.2" x1="491.2817984881118" x2="491.2817984881118" y1="0.5" y2="30"/><line opacity="0.2" x1="330.90455786821417" x2="330.90455786821417" y1="0.5" y2="30"/><line opacity="0.2" x1="272.58065314050555" x2="272.58065314050555" y1="0.5" y2="30"/><line opacity="0.2" x1="291.83019614663067" x2="291.83019614663067" y1="0.5" y2="30"/><line opacity="0.2" x1="330.077955681272" x2="330.077955681272" y1="0.5" y2="30"/><line opacity="0.2" x1="301.0740599014149" x2="301.0740599014149" y1="0.5" y2="30"/><line opacity="0.2" x1="320.78285192252366" x2="320.78285192252366" y1="0.5" y2="30"/><line opacity="0.2" x1="330.8967595925103" x2="330.8967595925103" y1="0.5" y2="30"/><line opacity="0.2" x1="238.75577494166532" x2="238.75577494166532" y1="0.5" y2="30"/><line opacity="0.2" x1="253.87608998910602" x2="253.87608998910602" y1="0.5" y2="30"/><line opacity="0.2" x1="285.57818524904013" x2="285.57818524904013" y1="0.5" y2="30"/><line opacity="0.2" x1="381.9916091356742" x2="381.9916091356742" y1="0.5" y2="30"/><line opacity="0.2" x1="278.8208173167976" x2="278.8208173167976" y1="0.5" y2="30"/><line opacity="0.2" x1="312.58859205229504" x2="312.58859205229504" y1="0.5" y2="30"/><line opacity="0.2" x1="328.8328581677251" x2="328.8328581677251" y1="0.5" y2="30"/><line opacity="0.2" x1="397.6478508876916" x2="397.6478508876916" y1="0.5" y2="30"/><line opacity="0.2" x1="163.16164635483187" x2="163.16164635483187" y1="0.5" y2="30"/><line opacity="0.2" x1="134.3847861674621" x2="134.3847861674621" y1="0.5" y2="30"/><line opacity="0.2" x1="184.86737656704096" x2="184.86737656704096" y1="0.5" y2="30"/><line opacity="0.2" x1="220.898848641946" x2="220.898848641946" y1="0.5" y2="30"/><line opacity="0.2" x1="272.37926218260145" x2="272.37926218260145" y1="0.5" y2="30"/><line opacity="0.2" x1="492.4765684804946" x2="492.4765684804946" y1="0.5" y2="30"/><line opacity="0.2" x1="287.0481380443168" x2="287.0481380443168" y1="0.5" y2="30"/><line opacity="0.2" x1="260.34174918999406" x2="260.34174918999406" y1="0.5" y2="30"/><line opacity="0.2" x1="356.42120722221154" x2="356.42120722221154" y1="0.5" y2="30"/><line opacity="0.2" x1="380.570992880924" x2="380.570992880924" y1="0.5" y2="30"/><line opacity="0.2" x1="368.7375444618567" x2="368.7375444618567" y1="0.5" y2="30"/><line opacity="0.2" x1="264.02589216730604" x2="264.02589216730604" y1="0.5" y2="30"/><line opacity="0.2" x1="342.27561252362284" x2="342.27561252362284" y1="0.5" y2="30"/><line opacity="0.2" x1="312.73720289199713" x2="312.73720289199713" y1="0.5" y2="30"/><line opacity="0.2" x1="307.2778170535705" x2="307.2778170535705" y1="0.5" y2="30"/><line opacity="0.2" x1="357.59519240364864" x2="357.59519240364864" y1="0.5" y2="30"/><line opacity="0.2" x1="422.37258441469305" x2="422.37258441469305" y1="0.5" y2="30"/><line opacity="0.2" x1="252.0003746052486" x2="252.0003746052486" y1="0.5" y2="30"/><line opacity="0.2" x1="343.3820876454963" x2="343.3820876454963" y1="0.5" y2="30"/><line opacity="0.2" x1="410.2030528851841" x2="410.2030528851841" y1="0.5" y2="30"/><line opacity="0.2" x1="184.50730828947118" x2="184.50730828947118" y1="0.5" y2="30"/><line opacity="0.2" x1="285.7820169597654" x2="285.7820169597654" y1="0.5" y2="30"/><line opacity="0.2" x1="413.56779278049135" x2="413.56779278049135" y1="0.5" y2="30"/><line opacity="0.2" x1="453.72713232366084" x2="453.72713232366084" y1="0.5" y2="30"/><line opacity="0.2" x1="260.9936995935191" x2="260.9936995935191" y1="0.5" y2="30"/><line opacity="0.2" x1="418.09430467489784" x2="418.09430467489784" y1="0.5" y2="30"/><line opacity="0.2" x1="254.49661767743652" x2="254.49661767743652" y1="0.5" y2="30"/><line opacity="0.2" x1="88.18753646438603" x2="88.18753646438603" y1="0.5" y2="30"/><line opacity="0.2" x1="400.2654355236986" x2="400.2654355236986" y1="0.5" y2="30"/><line opacity="0.2" x1="258.3181836174528" x2="258.3181836174528" y1="0.5" y2="30"/><line opacity="0.2" x1="394.7278516747675" x2="394.7278516747675" y1="0.5" y2="30"/><line opacity="0.2" x1="148.63086570012825" x2="148.63086570012825" y1="0.5" y2="30"/><line opacity="0.2" x1="207.78901507325475" x2="207.78901507325475" y1="0.5" y2="30"/><line opacity="0.2" x1="208.38668471954614" x2="208.38668471954614" y1="0.5" y2="30"/><line opacity="0.2" x1="308.124653601573" x2="308.124653601573" y1="0.5" y2="30"/><line opacity="0.2" x1="338.26681098971983" x2="338.26681098971983" y1="0.5" y2="30"/><line opacity="0.2" x1="361.7872730321118" x2="361.7872730321118" y1="0.5" y2="30"/><line opacity="0.2" x1="408.94483106101455" x2="408.94483106101455" y1="0.5" y2="30"/><line opacity="0.2" x1="211.0046002165098" x2="211.0046002165098" y1="0.5" y2="30"/><line opacity="0.2" x1="450.8960724556398" x2="450.8960724556398" y1="0.5" y2="30"/><line opacity="0.2" x1="338.5014833164076" x2="338.5014833164076" y1="0.5" y2="30"/><line opacity="0.2" x1="374.733816204007" x2="374.733816204007" y1="0.5" y2="30"/><line opacity="0.2" x1="426.1918728980644" x2="426.1918728980644" y1="0.5" y2="30"/><line opacity="0.2" x1="222.27619499788855" x2="222.27619499788855" y1="0.5" y2="30"/><line opacity="0.2" x1="246.05169268323274" x2="246.05169268323274" y1="0.5" y2="30"/><line opacity="0.2" x1="448.46913220887507" x2="448.46913220887507" y1="0.5" y2="30"/><line opacity="0.2" x1="259.6071708218628" x2="259.6071708218628" y1="0.5" y2="30"/><line opacity="0.2" x1="232.3490092809178" x2="232.3490092809178" y1="0.5" y2="30"/><line opacity="0.2" x1="416.4692342417524" x2="416.4692342417524" y1="0.5" y2="30"/><line opacity="0.2" x1="147.33294277620647" x2="147.33294277620647" y1="0.5" y2="30"/><line opacity="0.2" x1="432.66274023345807" x2="432.66274023345807" y1="0.5" y2="30"/><line opacity="0.2" x1="345.96765046818655" x2="345.96765046818655" y1="0.5" y2="30"/><line opacity="0.2" x1="239.8759008956738" x2="239.8759008956738" y1="0.5" y2="30"/><line opacity="0.2" x1="195.87566398763767" x2="195.87566398763767" y1="0.5" y2="30"/><line opacity="0.2" x1="267.1956338370241" x2="267.1956338370241" y1="0.5" y2="30"/><line opacity="0.2" x1="280.4908900285637" x2="280.4908900285637" y1="0.5" y2="30"/><line opacity="0.2" x1="439.52151493694953" x2="439.52151493694953" y1="0.5" y2="30"/><line opacity="0.2" x1="168.57675291583962" x2="168.57675291583962" y1="0.5" y2="30"/><line opacity="0.2" x1="213.34572069151102" x2="213.34572069151102" y1="0.5" y2="30"/><line opacity="0.2" x1="499.3079211978857" x2="499.3079211978857" y1="0.5" y2="30"/><line opacity="0.2" x1="240.7107820081499" x2="240.7107820081499" y1="0.5" y2="30"/><line opacity="0.2" x1="326.50604708197056" x2="326.50604708197056" y1="0.5" y2="30"/><line opacity="0.2" x1="202.98090198858222" x2="202.98090198858222" y1="0.5" y2="30"/><line opacity="0.2" x1="457.32596351575273" x2="457.32596351575273" y1="0.5" y2="30"/><line opacity="0.2" x1="504.2906139274857" x2="504.2906139274857" y1="0.5" y2="30"/><line opacity="0.2" x1="319.80753745350444" x2="319.80753745350444" y1="0.5" y2="30"/><line opacity="0.2" x1="396.90728861078026" x2="396.90728861078026" y1="0.5" y2="30"/><line opacity="0.2" x1="104.8542199676471" x2="104.8542199676471" y1="0.5" y2="30"/><line opacity="0.2" x1="179.6291119474644" x2="179.6291119474644" y1="0.5" y2="30"/><line opacity="0.2" x1="381.35451454115974" x2="381.35451454115974" y1="0.5" y2="30"/><line opacity="0.2" x1="303.0411085073799" x2="303.0411085073799" y1="0.5" y2="30"/><line opacity="0.2" x1="275.297811234823" x2="275.297811234823" y1="0.5" y2="30"/><line opacity="0.2" x1="353.0456787464441" x2="353.0456787464441" y1="0.5" y2="30"/><line opacity="0.2" x1="197.91323310695194" x2="197.91323310695194" y1="0.5" y2="30"/><line opacity="0.2" x1="363.578287425067" x2="363.578287425067" y1="0.5" y2="30"/><line opacity="0.2" x1="356.9643442733021" x2="356.9643442733021" y1="0.5" y2="30"/><line opacity="0.2" x1="417.9764890223467" x2="417.9764890223467" y1="0.5" y2="30"/><line opacity="0.2" x1="356.76603063803327" x2="356.76603063803327" y1="0.5" y2="30"/><line opacity="0.2" x1="427.0132266439835" x2="427.0132266439835" y1="0.5" y2="30"/><line opacity="0.2" x1="302.4213946046509" x2="302.4213946046509" y1="0.5" y2="30"/><line opacity="0.2" x1="267.66518324125803" x2="267.66518324125803" y1="0.5" y2="30"/><line opacity="0.2" x1="284.7041925345994" x2="284.7041925345994" y1="0.5" y2="30"/><line opacity="0.2" x1="187.9039268466104" x2="187.9039268466104" y1="0.5" y2="30"/><line opacity="0.2" x1="463.83296934877677" x2="463.83296934877677" y1="0.5" y2="30"/><line opacity="0.2" x1="246.95201098655588" x2="246.95201098655588" y1="0.5" y2="30"/><line opacity="0.2" x1="407.8967811761461" x2="407.8967811761461" y1="0.5" y2="30"/><line opacity="0.2" x1="232.83954278643364" x2="232.83954278643364" y1="0.5" y2="30"/><line opacity="0.2" x1="229.2995482915589" x2="229.2995482915589" y1="0.5" y2="30"/><line opacity="0.2" x1="283.2618844764369" x2="283.2618844764369" y1="0.5" y2="30"/><line opacity="0.2" x1="300.48572314927975" x2="300.48572314927975" y1="0.5" y2="30"/><line opacity="0.2" x1="395.21685360509525" x2="395.21685360509525" y1="0.5" y2="30"/><line opacity="0.2" x1="249.07497454812142" x2="249.07497454812142" y1="0.5" y2="30"/><line opacity="0.2" x1="63.48633321329005" x2="63.48633321329005" y1="0.5" y2="30"/><line opacity="0.2" x1="213.2223439987709" x2="213.2223439987709" y1="0.5" y2="30"/><line opacity="0.2" x1="347.37477991994564" x2="347.37477991994564" y1="0.5" y2="30"/><line opacity="0.2" x1="591.9830496551796" x2="591.9830496551796" y1="0.5" y2="30"/><line opacity="0.2" x1="366.74518888225447" x2="366.74518888225447" y1="0.5" y2="30"/><line opacity="0.2" x1="373.7875342444741" x2="373.7875342444741" y1="0.5" y2="30"/><line opacity="0.2" x1="368.25473652889394" x2="368.25473652889394" y1="0.5" y2="30"/><line opacity="0.2" x1="258.3050124878393" x2="258.3050124878393" y1="0.5" y2="30"/><line opacity="0.2" x1="310.481634766584" x2="310.481634766584" y1="0.5" y2="30"/><line opacity="0.2" x1="221.98030856455037" x2="221.98030856455037" y1="0.5" y2="30"/><line opacity="0.2" x1="363.3027172186057" x2="363.3027172186057" y1="0.5" y2="30"/><line opacity="0.2" x1="323.65452395690266" x2="323.65452395690266" y1="0.5" y2="30"/><line opacity="0.2" x1="228.57066608785266" x2="228.57066608785266" y1="0.5" y2="30"/><line opacity="0.2" x1="330.7841632671516" x2="330.7841632671516" y1="0.5" y2="30"/><line opacity="0.2" x1="423.51664039798203" x2="423.51664039798203" y1="0.5" y2="30"/><line opacity="0.2" x1="342.18218749824115" x2="342.18218749824115" y1="0.5" y2="30"/><line opacity="0.2" x1="138.0197092771452" x2="138.0197092771452" y1="0.5" y2="30"/><line opacity="0.2" x1="221.4656305519387" x2="221.4656305519387" y1="0.5" y2="30"/><line opacity="0.2" x1="265.6239268668772" x2="265.6239268668772" y1="0.5" y2="30"/><line opacity="0.2" x1="229.52338282258142" x2="229.52338282258142" y1="0.5" y2="30"/><line opacity="0.2" x1="318.0686888168963" x2="318.0686888168963" y1="0.5" y2="30"/><line opacity="0.2" x1="272.03892243346627" x2="272.03892243346627" y1="0.5" y2="30"/><line opacity="0.2" x1="238.41296848228743" x2="238.41296848228743" y1="0.5" y2="30"/><line opacity="0.2" x1="245.83038027789917" x2="245.83038027789917" y1="0.5" y2="30"/><line opacity="0.2" x1="276.4900578942542" x2="276.4900578942542" y1="0.5" y2="30"/><line opacity="0.2" x1="371.01476124266395" x2="371.01476124266395" y1="0.5" y2="30"/><line opacity="0.2" x1="306.4226461277886" x2="306.4226461277886" y1="0.5" y2="30"/><line opacity="0.2" x1="237.40561669364283" x2="237.40561669364283" y1="0.5" y2="30"/><line opacity="0.2" x1="446.368468421041" x2="446.368468421041" y1="0.5" y2="30"/><line opacity="0.2" x1="390.9023435460116" x2="390.9023435460116" y1="0.5" y2="30"/><line opacity="0.2" x1="528.9423120154913" x2="528.9423120154913" y1="0.5" y2="30"/><line opacity="0.2" x1="229.40380718532023" x2="229.40380718532023" y1="0.5" y2="30"/><line opacity="0.2" x1="403.45113724321266" x2="403.45113724321266" y1="0.5" y2="30"/><line opacity="0.2" x1="438.2584829878859" x2="438.2584829878859" y1="0.5" y2="30"/><line opacity="0.2" x1="358.4131941891778" x2="358.4131941891778" y1="0.5" y2="30"/><line opacity="0.2" x1="328.26125444308695" x2="328.26125444308695" y1="0.5" y2="30"/><line opacity="0.2" x1="223.2631571057759" x2="223.2631571057759" y1="0.5" y2="30"/><line opacity="0.2" x1="401.74236429688955" x2="401.74236429688955" y1="0.5" y2="30"/><line opacity="0.2" x1="339.21370590953177" x2="339.21370590953177" y1="0.5" y2="30"/><line opacity="0.2" x1="414.3335935957433" x2="414.3335935957433" y1="0.5" y2="30"/><line opacity="0.2" x1="419.07965699599146" x2="419.07965699599146" y1="0.5" y2="30"/><line opacity="0.2" x1="319.0175721121759" x2="319.0175721121759" y1="0.5" y2="30"/><line opacity="0.2" x1="517.705210558721" x2="517.705210558721" y1="0.5" y2="30"/><line opacity="0.2" x1="284.5508026779688" x2="284.5508026779688" y1="0.5" y2="30"/><line opacity="0.2" x1="380.0676292931009" x2="380.0676292931009" y1="0.5" y2="30"/><line opacity="0.2" x1="503.78923276944784" x2="503.78923276944784" y1="0.5" y2="30"/><line opacity="0.2" x1="353.39027748994283" x2="353.39027748994283" y1="0.5" y2="30"/><line opacity="0.2" x1="378.730157474982" x2="378.730157474982" y1="0.5" y2="30"/><line opacity="0.2" x1="352.5291045569531" x2="352.5291045569531" y1="0.5" y2="30"/><line opacity="0.2" x1="277.7296916432436" x2="277.7296916432436" y1="0.5" y2="30"/><line opacity="0.2" x1="214.7490254518868" x2="214.7490254518868" y1="0.5" y2="30"/><line opacity="0.2" x1="152.38406290044043" x2="152.38406290044043" y1="0.5" y2="30"/><line opacity="0.2" x1="239.04885452390073" x2="239.04885452390073" y1="0.5" y2="30"/><line opacity="0.2" x1="178.19365845921607" x2="178.19365845921607" y1="0.5" y2="30"/><line opacity="0.2" x1="422.51203849398274" x2="422.51203849398274" y1="0.5" y2="30"/><line opacity="0.2" x1="327.5834965102011" x2="327.5834965102011" y1="0.5" y2="30"/><line opacity="0.2" x1="257.0794137169209" x2="257.0794137169209" y1="0.5" y2="30"/><line opacity="0.2" x1="379.3624979031608" x2="379.3624979031608" y1="0.5" y2="30"/><line opacity="0.2" x1="249.3011042980166" x2="249.3011042980166" y1="0.5" y2="30"/><line opacity="0.2" x1="445.9824187624446" x2="445.9824187624446" y1="0.5" y2="30"/><line opacity="0.2" x1="233.03027187707931" x2="233.03027187707931" y1="0.5" y2="30"/><line opacity="0.2" x1="219.5240465182347" x2="219.5240465182347" y1="0.5" y2="30"/><line opacity="0.2" x1="586.6322158267186" x2="586.6322158267186" y1="0.5" y2="30"/><line opacity="0.2" x1="420.3330424625716" x2="420.3330424625716" y1="0.5" y2="30"/><line opacity="0.2" x1="472.4086442195392" x2="472.4086442195392" y1="0.5" y2="30"/><line opacity="0.2" x1="274.7772657290969" x2="274.7772657290969" y1="0.5" y2="30"/><line opacity="0.2" x1="306.34228260243736" x2="306.34228260243736" y1="0.5" y2="30"/><line opacity="0.2" x1="316.4906314706584" x2="316.4906314706584" y1="0.5" y2="30"/><line opacity="0.2" x1="248.7289577160045" x2="248.7289577160045" y1="0.5" y2="30"/><line opacity="0.2" x1="219.31401311449832" x2="219.31401311449832" y1="0.5" y2="30"/><line opacity="0.2" x1="364.67681778885276" x2="364.67681778885276" y1="0.5" y2="30"/><line opacity="0.2" x1="247.56028386780878" x2="247.56028386780878" y1="0.5" y2="30"/><line opacity="0.2" x1="174.4089017123563" x2="174.4089017123563" y1="0.5" y2="30"/><line opacity="0.2" x1="324.42611507205015" x2="324.42611507205015" y1="0.5" y2="30"/><line opacity="0.2" x1="308.3127262971763" x2="308.3127262971763" y1="0.5" y2="30"/><line opacity="0.2" x1="620" x2="620" y1="0.5" y2="30"/><line opacity="0.2" x1="206.84609639271116" x2="206.84609639271116" y1="0.5" y2="30"/><line opacity="0.2" x1="168.2465538444509" x2="168.2465538444509" y1="0.5" y2="30"/><line opacity="0.2" x1="474.32090309651545" x2="474.32090309651545" y1="0.5" y2="30"/><line opacity="0.2" x1="502.6579514460877" x2="502.6579514460877" y1="0.5" y2="30"/><line opacity="0.2" x1="108.46412904160854" x2="108.46412904160854" y1="0.5" y2="30"/><line opacity="0.2" x1="139.18617757188326" x2="139.18617757188326" y1="0.5" y2="30"/><line opacity="0.2" x1="306.96962028201705" x2="306.96962028201705" y1="0.5" y2="30"/><line opacity="0.2" x1="154.22184392063338" x2="154.22184392063338" y1="0.5" y2="30"/><line opacity="0.2" x1="300.90942265909206" x2="300.90942265909206" y1="0.5" y2="30"/><line opacity="0.2" x1="288.15012966710265" x2="288.15012966710265" y1="0.5" y2="30"/><line opacity="0.2" x1="186.71788981862503" x2="186.71788981862503" y1="0.5" y2="30"/><line opacity="0.2" x1="256.9706868590587" x2="256.9706868590587" y1="0.5" y2="30"/><line opacity="0.2" x1="232.20167059548916" x2="232.20167059548916" y1="0.5" y2="30"/><line opacity="0.2" x1="350.867516627315" x2="350.867516627315" y1="0.5" y2="30"/><line opacity="0.2" x1="306.8613713607235" x2="306.8613713607235" y1="0.5" y2="30"/><line opacity="0.2" x1="248.46586514088693" x2="248.46586514088693" y1="0.5" y2="30"/><line opacity="0.2" x1="190.83522980199714" x2="190.83522980199714" y1="0.5" y2="30"/><line opacity="0.2" x1="254.02958681475653" x2="254.02958681475653" y1="0.5" y2="30"/><line opacity="0.2" x1="343.54710380564825" x2="343.54710380564825" y1="0.5" y2="30"/><line opacity="0.2" x1="241.8434203653324" x2="241.8434203653324" y1="0.5" y2="30"/><line opacity="0.2" x1="261.5100319167948" x2="261.5100319167948" y1="0.5" y2="30"/><line opacity="0.2" x1="348.90579191451053" x2="348.90579191451053" y1="0.5" y2="30"/><line opacity="0.2" x1="369.5437624400553" x2="369.5437624400553" y1="0.5" y2="30"/><line opacity="0.2" x1="20" x2="20" y1="0.5" y2="30"/><line opacity="0.2" x1="236.9334012554022" x2="236.9334012554022" y1="0.5" y2="30"/><line opacity="0.2" x1="225.18338007827504" x2="225.18338007827504" y1="0.5" y2="30"/><line opacity="0.2" x1="378.3866876483199" x2="378.3866876483199" y1="0.5" y2="30"/><line opacity="0.2" x1="530.0080430586055" x2="530.0080430586055" y1="0.5" y2="30"/><line opacity="0.2" x1="328.6243721407378" x2="328.6243721407378" y1="0.5" y2="30"/><line opacity="0.2" x1="404.0615126303268" x2="404.0615126303268" y1="0.5" y2="30"/><line opacity="0.2" x1="328.9620387372867" x2="328.9620387372867" y1="0.5" y2="30"/><line opacity="0.2" x1="212.85431315546055" x2="212.85431315546055" y1="0.5" y2="30"/><line opacity="0.2" x1="161.01828650073242" x2="161.01828650073242" y1="0.5" y2="30"/><line opacity="0.2" x1="391.97406001261135" x2="391.97406001261135" y1="0.5" y2="30"/><line opacity="0.2" x1="167.47701154092357" x2="167.47701154092357" y1="0.5" y2="30"/><line opacity="0.2" x1="208.3376025093909" x2="208.3376025093909" y1="0.5" y2="30"/><line opacity="0.2" x1="238.73157254038847" x2="238.73157254038847" y1="0.5" y2="30"/><line opacity="0.2" x1="267.7473775912062" x2="267.7473775912062" y1="0.5" y2="30"/><line opacity="0.2" x1="453.19554111257935" x2="453.19554111257935" y1="0.5" y2="30"/><line opacity="0.2" x1="304.9755291605737" x2="304.9755291605737" y1="0.5" y2="30"/><line opacity="0.2" x1="442.55484818624063" x2="442.55484818624063" y1="0.5" y2="30"/><line opacity="0.2" x1="415.7366199811597" x2="415.7366199811597" y1="0.5" y2="30"/><line opacity="0.2" x1="412.79029873370234" x2="412.79029873370234" y1="0.5" y2="30"/><line opacity="0.2" x1="382.63765856204583" x2="382.63765856204583" y1="0.5" y2="30"/><line opacity="0.2" x1="255.20106263448153" x2="255.20106263448153" y1="0.5" y2="30"/><line opacity="0.2" x1="475.22581314099443" x2="475.22581314099443" y1="0.5" y2="30"/><line opacity="0.2" x1="334.4940702789523" x2="334.4940702789523" y1="0.5" y2="30"/><line opacity="0.2" x1="284.66974723459106" x2="284.66974723459106" y1="0.5" y2="30"/><line opacity="0.2" x1="206.82030218734823" x2="206.82030218734823" y1="0.5" y2="30"/><line opacity="0.2" x1="317.5544403767517" x2="317.5544403767517" y1="0.5" y2="30"/><line opacity="0.2" x1="370.2615509174694" x2="370.2615509174694" y1="0.5" y2="30"/><line opacity="0.2" x1="207.34759109009158" x2="207.34759109009158" y1="0.5" y2="30"/><line opacity="0.2" x1="278.8325571876914" x2="278.8325571876914" y1="0.5" y2="30"/><line opacity="0.2" x1="254.64134810088123" x2="254.64134810088123" y1="0.5" y2="30"/><line opacity="0.2" x1="242.1920887494209" x2="242.1920887494209" y1="0.5" y2="30"/><line opacity="0.2" x1="175.22692803016" x2="175.22692803016" y1="0.5" y2="30"/><line opacity="0.2" x1="382.99917514598843" x2="382.99917514598843" y1="0.5" y2="30"/><line opacity="0.2" x1="277.30809040016516" x2="277.30809040016516" y1="0.5" y2="30"/><line opacity="0.2" x1="123.88234543673678" x2="123.88234543673678" y1="0.5" y2="30"/><line opacity="0.2" x1="280.95579552755635" x2="280.95579552755635" y1="0.5" y2="30"/><line opacity="0.2" x1="304.86265973211795" x2="304.86265973211795" y1="0.5" y2="30"/><line opacity="0.2" x1="313.5055235920284" x2="313.5055235920284" y1="0.5" y2="30"/><line opacity="0.2" x1="203.79994292641095" x2="203.79994292641095" y1="0.5" y2="30"/><line opacity="0.2" x1="303.52029949662386" x2="303.52029949662386" y1="0.5" y2="30"/><line opacity="0.2" x1="524.531147270483" x2="524.531147270483" y1="0.5" y2="30"/><line opacity="0.2" x1="440.6966766453405" x2="440.6966766453405" y1="0.5" y2="30"/><line opacity="0.2" x1="278.4715835777644" x2="278.4715835777644" y1="0.5" y2="30"/><line opacity="0.2" x1="235.70911340865675" x2="235.70911340865675" y1="0.5" y2="30"/><line opacity="0.2" x1="476.6793012262496" x2="476.6793012262496" y1="0.5" y2="30"/><line opacity="0.2" x1="305.432455014055" x2="305.432455014055" y1="0.5" y2="30"/><line opacity="0.2" x1="190.73332549633477" x2="190.73332549633477" y1="0.5" y2="30"/><line opacity="0.2" x1="167.27522361452066" x2="167.27522361452066" y1="0.5" y2="30"/><line opacity="0.2" x1="390.960021257674" x2="390.960021257674" y1="0.5" y2="30"/><line opacity="0.2" x1="434.9681979395972" x2="434.9681979395972" y1="0.5" y2="30"/><line opacity="0.2" x1="261.42337896310266" x2="261.42337896310266" y1="0.5" y2="30"/><line opacity="0.2" x1="205.438599707933" x2="205.438599707933" y1="0.5" y2="30"/><line opacity="0.2" x1="280.3718131579298" x2="280.3718131579298" y1="0.5" y2="30"/><line opacity="0.2" x1="282.07409335509783" x2="282.07409335509783" y1="0.5" y2="30"/><line opacity="0.2" x1="319.3914527361792" x2="319.3914527361792" y1="0.5" y2="30"/><line opacity="0.2" x1="434.16431114007565" x2="434.16431114007565" y1="0.5" y2="30"/><line opacity="0.2" x1="246.82812791609322" x2="246.82812791609322" y1="0.5" y2="30"/><line opacity="0.2" x1="390.80400571088387" x2="390.80400571088387" y1="0.5" y2="30"/><line opacity="0.2" x1="370.213043321011" x2="370.213043321011" y1="0.5" y2="30"/><line opacity="0.2" x1="266.03640699412404" x2="266.03640699412404" y1="0.5" y2="30"/><line opacity="0.2" x1="114.53215347652511" x2="114.53215347652511" y1="0.5" y2="30"/><line opacity="0.2" x1="179.90320223732735" x2="179.90320223732735" y1="0.5" y2="30"/><line opacity="0.2" x1="161.11021854303945" x2="161.11021854303945" y1="0.5" y2="30"/><line opacity="0.2" x1="296.5182104275807" x2="296.5182104275807" y1="0.5" y2="30"/><line opacity="0.2" x1="390.1864838295315" x2="390.1864838295315" y1="0.5" y2="30"/><line opacity="0.2" x1="361.40394141342887" x2="361.40394141342887" y1="0.5" y2="30"/><line opacity="0.2" x1="240.58795475786815" x2="240.58795475786815" y1="0.5" y2="30"/><line opacity="0.2" x1="425.6248759534027" x2="425.6248759534027" y1="0.5" y2="30"/><line opacity="0.2" x1="314.92666232123355" x2="314.92666232123355" y1="0.5" y2="30"/><line opacity="0.2" x1="345.35907772506926" x2="345.35907772506926" y1="0.5" y2="30"/><line opacity="0.2" x1="297.5267814772242" x2="297.5267814772242" y1="0.5" y2="30"/><line opacity="0.2" x1="361.23067207293514" x2="361.23067207293514" y1="0.5" y2="30"/><line opacity="0.2" x1="162.658441640116" x2="162.658441640116" y1="0.5" y2="30"/><line opacity="0.2" x1="313.9174739287799" x2="313.9174739287799" y1="0.5" y2="30"/><line opacity="0.2" x1="518.6688328636519" x2="518.6688328636519" y1="0.5" y2="30"/><line opacity="0.2" x1="370.52123272123754" x2="370.52123272123754" y1="0.5" y2="30"/><line opacity="0.2" x1="305.34523836593627" x2="305.34523836593627" y1="0.5" y2="30"/><line opacity="0.2" x1="282.4203636568536" x2="282.4203636568536" y1="0.5" y2="30"/><line opacity="0.2" x1="349.139080593006" x2="349.139080593006" y1="0.5" y2="30"/><line opacity="0.2" x1="260.88579197267643" x2="260.88579197267643" y1="0.5" y2="30"/><line opacity="0.2" x1="274.4996123295894" x2="274.4996123295894" y1="0.5" y2="30"/><line opacity="0.2" x1="275.30314683949905" x2="275.30314683949905" y1="0.5" y2="30"/><line opacity="0.2" x1="379.05909016113065" x2="379.05909016113065" y1="0.5" y2="30"/><line opacity="0.2" x1="316.30519057223825" x2="316.30519057223825" y1="0.5" y2="30"/><line opacity="0.2" x1="188.00201287066858" x2="188.00201287066858" y1="0.5" y2="30"/><line opacity="0.2" x1="274.99745194561007" x2="274.99745194561007" y1="0.5" y2="30"/><line opacity="0.2" x1="232.0096831947701" x2="232.0096831947701" y1="0.5" y2="30"/><line opacity="0.2" x1="297.8726544516172" x2="297.8726544516172" y1="0.5" y2="30"/><line opacity="0.2" x1="304.87852548222514" x2="304.87852548222514" y1="0.5" y2="30"/><line opacity="0.2" x1="204.8704644787784" x2="204.8704644787784" y1="0.5" y2="30"/><line opacity="0.2" x1="154.61412930836815" x2="154.61412930836815" y1="0.5" y2="30"/><line opacity="0.2" x1="235.17575477599814" x2="235.17575477599814" y1="0.5" y2="30"/><line opacity="0.2" x1="296.9542747486856" x2="296.9542747486856" y1="0.5" y2="30"/><line opacity="0.2" x1="166.59978072898087" x2="166.59978072898087" y1="0.5" y2="30"/><line opacity="0.2" x1="290.8758042593223" x2="290.8758042593223" y1="0.5" y2="30"/><line opacity="0.2" x1="291.8961073659782" x2="291.8961073659782" y1="0.5" y2="30"/><line opacity="0.2" x1="316.0298745739157" x2="316.0298745739157" y1="0.5" y2="30"/><line opacity="0.2" x1="409.2035033422973" x2="409.2035033422973" y1="0.5" y2="30"/><line opacity="0.2" x1="337.5013251561075" x2="337.5013251561075" y1="0.5" y2="30"/><line opacity="0.2" x1="352.03675309117506" x2="352.03675309117506" y1="0.5" y2="30"/><line opacity="0.2" x1="390.9799889955813" x2="390.9799889955813" y1="0.5" y2="30"/><line opacity="0.2" x1="361.29633268233533" x2="361.29633268233533" y1="0.5" y2="30"/><line opacity="0.2" x1="255.58341090925583" x2="255.58341090925583" y1="0.5" y2="30"/><line opacity="0.2" x1="280.08863921189396" x2="280.08863921189396" y1="0.5" y2="30"/><line opacity="0.2" x1="203.9851247488403" x2="203.9851247488403" y1="0.5" y2="30"/><line opacity="0.2" x1="359.09859741218196" x2="359.09859741218196" y1="0.5" y2="30"/><line opacity="0.2" x1="472.67014177930594" x2="472.67014177930594" y1="0.5" y2="30"/><line opacity="0.2" x1="398.06996477422257" x2="398.06996477422257" y1="0.5" y2="30"/><line opacity="0.2" x1="555.6494417524995" x2="555.6494417524995" y1="0.5" y2="30"/><line opacity="0.2" x1="145.54962279983374" x2="145.54962279983374" y1="0.5" y2="30"/><line opacity="0.2" x1="388.17387209253127" x2="388.17387209253127" y1="0.5" y2="30"/><line opacity="0.2" x1="337.18754714466615" x2="337.18754714466615" y1="0.5" y2="30"/><line opacity="0.2" x1="547.9715507238361" x2="547.9715507238361" y1="0.5" y2="30"/><line opacity="0.2" x1="348.7980849252788" x2="348.7980849252788" y1="0.5" y2="30"/><line opacity="0.2" x1="356.0480986973069" x2="356.0480986973069" y1="0.5" y2="30"/><line opacity="0.2" x1="203.31433636042883" x2="203.31433636042883" y1="0.5" y2="30"/><line opacity="0.2" x1="350.98506869733575" x2="350.98506869733575" y1="0.5" y2="30"/><line opacity="0.2" x1="241.58506347418958" x2="241.58506347418958" y1="0.5" y2="30"/><line opacity="0.2" x1="197.35533524163708" x2="197.35533524163708" y1="0.5" y2="30"/><line opacity="0.2" x1="357.6204745256588" x2="357.6204745256588" y1="0.5" y2="30"/><line opacity="0.2" x1="303.0378810353027" x2="303.0378810353027" y1="0.5" y2="30"/><line opacity="0.2" x1="81.02557764736972" x2="81.02557764736972" y1="0.5" y2="30"/><line opacity="0.2" x1="242.00641098247337" x2="242.00641098247337" y1="0.5" y2="30"/><line opacity="0.2" x1="239.48253311105304" x2="239.48253311105304" y1="0.5" y2="30"/><line opacity="0.2" x1="175.17475656768275" x2="175.17475656768275" y1="0.5" y2="30"/><line opacity="0.2" x1="304.12736579627546" x2="304.12736579627546" y1="0.5" y2="30"/><line opacity="0.2" x1="360.89796537777926" x2="360.89796537777926" y1="0.5" y2="30"/><line opacity="0.2" x1="357.77474808363837" x2="357.77474808363837" y1="0.5" y2="30"/><line opacity="0.2" x1="359.11723287424843" x2="359.11723287424843" y1="0.5" y2="30"/><line opacity="0.2" x1="211.20011852246458" x2="211.20011852246458" y1="0.5" y2="30"/><line opacity="0.2" x1="301.3852786443514" x2="301.3852786443514" y1="0.5" y2="30"/><line opacity="0.2" x1="228.47083563880616" x2="228.47083563880616" y1="0.5" y2="30"/><line opacity="0.2" x1="276.80335248201976" x2="276.80335248201976" y1="0.5" y2="30"/><line opacity="0.2" x1="164.996241200852" x2="164.996241200852" y1="0.5" y2="30"/><line opacity="0.2" x1="178.93672352277088" x2="178.93672352277088" y1="0.5" y2="30"/><line opacity="0.2" x1="478.00164600945857" x2="478.00164600945857" y1="0.5" y2="30"/><line opacity="0.2" x1="306.27745309487455" x2="306.27745309487455" y1="0.5" y2="30"/><line opacity="0.2" x1="240.47836585966883" x2="240.47836585966883" y1="0.5" y2="30"/><line opacity="0.2" x1="268.45971337772784" x2="268.45971337772784" y1="0.5" y2="30"/><line opacity="0.2" x1="328.67698685093774" x2="328.67698685093774" y1="0.5" y2="30"/><line opacity="0.2" x1="345.34661118490396" x2="345.34661118490396" y1="0.5" y2="30"/><line opacity="0.2" x1="225.88579962941435" x2="225.88579962941435" y1="0.5" y2="30"/><line opacity="0.2" x1="420.46738005741855" x2="420.46738005741855" y1="0.5" y2="30"/><line opacity="0.2" x1="367.58705589230436" x2="367.58705589230436" y1="0.5" y2="30"/><line opacity="0.2" x1="114.19524616782319" x2="114.19524616782319" y1="0.5" y2="30"/><line opacity="0.2" x1="387.46860509893156" x2="387.46860509893156" y1="0.5" y2="30"/><line opacity="0.2" x1="423.29388301800856" x2="423.29388301800856" y1="0.5" y2="30"/><line opacity="0.2" x1="391.5029092281189" x2="391.5029092281189" y1="0.5" y2="30"/><line opacity="0.2" x1="432.5543617135463" x2="432.5543617135463" y1="0.5" y2="30"/><line opacity="0.2" x1="440.3438252448748" x2="440.3438252448748" y1="0.5" y2="30"/><line opacity="0.2" x1="167.9648464833015" x2="167.9648464833015" y1="0.5" y2="30"/><line opacity="0.2" x1="374.90383784782586" x2="374.90383784782586" y1="0.5" y2="30"/><line opacity="0.2" x1="187.4052180326271" x2="187.4052180326271" y1="0.5" y2="30"/><line opacity="0.2" x1="332.09769178379435" x2="332.09769178379435" y1="0.5" y2="30"/><line opacity="0.2" x1="214.23400895232007" x2="214.23400895232007" y1="0.5" y2="30"/><line opacity="0.2" x1="219.61330740594096" x2="219.61330740594096" y1="0.5" y2="30"/><line opacity="0.2" x1="169.53380612496488" x2="169.53380612496488" y1="0.5" y2="30"/><line opacity="0.2" x1="239.83516510442203" x2="239.83516510442203" y1="0.5" y2="30"/><line opacity="0.2" x1="313.22101869404406" x2="313.22101869404406" y1="0.5" y2="30"/><line opacity="0.2" x1="32.58639536591457" x2="32.58639536591457" y1="0.5" y2="30"/><line opacity="0.2" x1="300.30688011474376" x2="300.30688011474376" y1="0.5" y2="30"/><line opacity="0.2" x1="170.69104925144435" x2="170.69104925144435" y1="0.5" y2="30"/><line opacity="0.2" x1="340.74620289804" x2="340.74620289804" y1="0.5" y2="30"/><line opacity="0.2" x1="397.36012574021913" x2="397.36012574021913" y1="0.5" y2="30"/><line opacity="0.2" x1="392.88503772708725" x2="392.88503772708725" y1="0.5" y2="30"/><line opacity="0.2" x1="309.6601096920693" x2="309.6601096920693" y1="0.5" y2="30"/><line opacity="0.2" x1="510.53710744496544" x2="510.53710744496544" y1="0.5" y2="30"/><line opacity="0.2" x1="350.129727441985" x2="350.129727441985" y1="0.5" y2="30"/><line opacity="0.2" x1="316.11300126580727" x2="316.11300126580727" y1="0.5" y2="30"/><line opacity="0.2" x1="223.9908008500969" x2="223.9908008500969" y1="0.5" y2="30"/><line opacity="0.2" x1="331.3162257892395" x2="331.3162257892395" y1="0.5" y2="30"/><line opacity="0.2" x1="343.369443705946" x2="343.369443705946" y1="0.5" y2="30"/><line opacity="0.2" x1="145.1661832459402" x2="145.1661832459402" y1="0.5" y2="30"/><line opacity="0.2" x1="259.5393105700651" x2="259.5393105700651" y1="0.5" y2="30"/><line opacity="0.2" x1="210.8129863154517" x2="210.8129863154517" y1="0.5" y2="30"/><line opacity="0.2" x1="211.6727865094635" x2="211.6727865094635" y1="0.5" y2="30"/><line opacity="0.2" x1="211.1251794832686" x2="211.1251794832686" y1="0.5" y2="30"/><line opacity="0.2" x1="303.4448727084962" x2="303.4448727084962" y1="0.5" y2="30"/><line opacity="0.2" x1="271.87119704688104" x2="271.87119704688104" y1="0.5" y2="30"/><line opacity="0.2" x1="518.7522763640623" x2="518.7522763640623" y1="0.5" y2="30"/><line opacity="0.2" x1="392.56073022364865" x2="392.56073022364865" y1="0.5" y2="30"/><line opacity="0.2" x1="428.93621848001624" x2="428.93621848001624" y1="0.5" y2="30"/><line opacity="0.2" x1="413.7074209323923" x2="413.7074209323923" y1="0.5" y2="30"/><line opacity="0.2" x1="346.88038626021887" x2="346.88038626021887" y1="0.5" y2="30"/><line opacity="0.2" x1="363.2834972612065" x2="363.2834972612065" y1="0.5" y2="30"/><line opacity="0.2" x1="346.1016273909023" x2="346.1016273909023" y1="0.5" y2="30"/><line opacity="0.2" x1="285.749423799381" x2="285.749423799381" y1="0.5" y2="30"/><line opacity="0.2" x1="311.20692331508945" x2="311.20692331508945" y1="0.5" y2="30"/><line opacity="0.2" x1="407.52991169310485" x2="407.52991169310485" y1="0.5" y2="30"/><line opacity="0.2" x1="441.9679533031051" x2="441.9679533031051" y1="0.5" y2="30"/><line opacity="0.2" x1="447.60503269222806" x2="447.60503269222806" y1="0.5" y2="30"/><line opacity="0.2" x1="348.7419102545559" x2="348.7419102545559" y1="0.5" y2="30"/><line opacity="0.2" x1="212.8404700799842" x2="212.8404700799842" y1="0.5" y2="30"/><line opacity="0.2" x1="362.0422606118716" x2="362.0422606118716" y1="0.5" y2="30"/><line opacity="0.2" x1="350.16215501530576" x2="350.16215501530576" y1="0.5" y2="30"/><line opacity="0.2" x1="367.21898571778263" x2="367.21898571778263" y1="0.5" y2="30"/><line opacity="0.2" x1="305.77533869952583" x2="305.77533869952583" y1="0.5" y2="30"/><line opacity="0.2" x1="223.21830454123105" x2="223.21830454123105" y1="0.5" y2="30"/><line opacity="0.2" x1="211.045399025532" x2="211.045399025532" y1="0.5" y2="30"/><line opacity="0.2" x1="185.33905228284488" x2="185.33905228284488" y1="0.5" y2="30"/><line opacity="0.2" x1="300.53229632727107" x2="300.53229632727107" y1="0.5" y2="30"/><line opacity="0.2" x1="203.06804788193693" x2="203.06804788193693" y1="0.5" y2="30"/><line opacity="0.2" x1="454.9124899848796" x2="454.9124899848796" y1="0.5" y2="30"/><line opacity="0.2" x1="333.7187531762357" x2="333.7187531762357" y1="0.5" y2="30"/><line opacity="0.2" x1="158.23767042488427" x2="158.23767042488427" y1="0.5" y2="30"/><line opacity="0.2" x1="234.73209923458512" x2="234.73209923458512" y1="0.5" y2="30"/><line opacity="0.2" x1="171.04368279881365" x2="171.04368279881365" y1="0.5" y2="30"/><line opacity="0.2" x1="159.7613404362834" x2="159.7613404362834" y1="0.5" y2="30"/><line opacity="0.2" x1="384.2697092304165" x2="384.2697092304165" y1="0.5" y2="30"/><line opacity="0.2" x1="365.27777980331985" x2="365.27777980331985" y1="0.5" y2="30"/><line opacity="0.2" x1="294.59684513047705" x2="294.59684513047705" y1="0.5" y2="30"/><line opacity="0.2" x1="228.07295170551262" x2="228.07295170551262" y1="0.5" y2="30"/><line opacity="0.2" x1="335.624555757138" x2="335.624555757138" y1="0.5" y2="30"/><line opacity="0.2" x1="322.2105065300717" x2="322.2105065300717" y1="0.5" y2="30"/><line opacity="0.2" x1="189.3687131968799" x2="189.3687131968799" y1="0.5" y2="30"/><line opacity="0.2" x1="254.0059786064327" x2="254.0059786064327" y1="0.5" y2="30"/><line opacity="0.2" x1="265.00645789754765" x2="265.00645789754765" y1="0.5" y2="30"/><line opacity="0.2" x1="261.30149310467306" x2="261.30149310467306" y1="0.5" y2="30"/><line opacity="0.2" x1="422.0580763910332" x2="422.0580763910332" y1="0.5" y2="30"/><line opacity="0.2" x1="305.1655989694294" x2="305.1655989694294" y1="0.5" y2="30"/><line opacity="0.2" x1="286.121791199328" x2="286.121791199328" y1="0.5" y2="30"/><line opacity="0.2" x1="349.7811600798587" x2="349.7811600798587" y1="0.5" y2="30"/><line opacity="0.2" x1="402.29487668728456" x2="402.29487668728456" y1="0.5" y2="30"/><line opacity="0.2" x1="319.6238491960318" x2="319.6238491960318" y1="0.5" y2="30"/><line opacity="0.2" x1="414.82936457893305" x2="414.82936457893305" y1="0.5" y2="30"/><line opacity="0.2" x1="189.90868011144443" x2="189.90868011144443" y1="0.5" y2="30"/><line opacity="0.2" x1="267.5621731861365" x2="267.5621731861365" y1="0.5" y2="30"/><line opacity="0.2" x1="257.09263119412583" x2="257.09263119412583" y1="0.5" y2="30"/><line opacity="0.2" x1="233.13707354652848" x2="233.13707354652848" y1="0.5" y2="30"/><line opacity="0.2" x1="377.0218078927176" x2="377.0218078927176" y1="0.5" y2="30"/><line opacity="0.2" x1="206.8860275732734" x2="206.8860275732734" y1="0.5" y2="30"/><line opacity="0.2" x1="169.66554759104196" x2="169.66554759104196" y1="0.5" y2="30"/><line opacity="0.2" x1="268.36374238408445" x2="268.36374238408445" y1="0.5" y2="30"/><line opacity="0.2" x1="314.13955962230847" x2="314.13955962230847" y1="0.5" y2="30"/><line opacity="0.2" x1="209.13506989089197" x2="209.13506989089197" y1="0.5" y2="30"/><line opacity="0.2" x1="301.3066547430888" x2="301.3066547430888" y1="0.5" y2="30"/><line opacity="0.2" x1="306.5793261283037" x2="306.5793261283037" y1="0.5" y2="30"/><line opacity="0.2" x1="235.28423996010466" x2="235.28423996010466" y1="0.5" y2="30"/><line opacity="0.2" x1="302.5250007525042" x2="302.5250007525042" y1="0.5" y2="30"/><line opacity="0.2" x1="281.62101305516035" x2="281.62101305516035" y1="0.5" y2="30"/><line opacity="0.2" x1="375.75006588351147" x2="375.75006588351147" y1="0.5" y2="30"/><line opacity="0.2" x1="341.97888402290897" x2="341.97888402290897" y1="0.5" y2="30"/><line opacity="0.2" x1="373.10345090375455" x2="373.10345090375455" y1="0.5" y2="30"/><line opacity="0.2" x1="536.0630361235122" x2="536.0630361235122" y1="0.5" y2="30"/><line opacity="0.2" x1="439.9124235267962" x2="439.9124235267962" y1="0.5" y2="30"/><line opacity="0.2" x1="199.35763747962102" x2="199.35763747962102" y1="0.5" y2="30"/><line opacity="0.2" x1="174.19149250344967" x2="174.19149250344967" y1="0.5" y2="30"/><line opacity="0.2" x1="421.98711147965054" x2="421.98711147965054" y1="0.5" y2="30"/><line opacity="0.2" x1="76.70750122575086" x2="76.70750122575086" y1="0.5" y2="30"/><line opacity="0.2" x1="396.7679339785579" x2="396.7679339785579" y1="0.5" y2="30"/><line opacity="0.2" x1="183.85590635943387" x2="183.85590635943387" y1="0.5" y2="30"/><line opacity="0.2" x1="161.34550242695548" x2="161.34550242695548" y1="0.5" y2="30"/><line opacity="0.2" x1="445.62516364267884" x2="445.62516364267884" y1="0.5" y2="30"/><line opacity="0.2" x1="285.50179799407266" x2="285.50179799407266" y1="0.5" y2="30"/><line opacity="0.2" x1="153.8347911926293" x2="153.8347911926293" y1="0.5" y2="30"/><line opacity="0.2" x1="174.10414717794276" x2="174.10414717794276" y1="0.5" y2="30"/><line opacity="0.2" x1="148.63796052878723" x2="148.63796052878723" y1="0.5" y2="30"/><line opacity="0.2" x1="383.52533122969163" x2="383.52533122969163" y1="0.5" y2="30"/><line opacity="0.2" x1="326.43924377034745" x2="326.43924377034745" y1="0.5" y2="30"/><line opacity="0.2" x1="245.8479928326634" x2="245.8479928326634" y1="0.5" y2="30"/><line opacity="0.2" x1="337.61400897739173" x2="337.61400897739173" y1="0.5" y2="30"/><line opacity="0.2" x1="263.59847658021624" x2="263.59847658021624" y1="0.5" y2="30"/><line opacity="0.2" x1="301.2415638057892" x2="301.2415638057892" y1="0.5" y2="30"/><line opacity="0.2" x1="259.27637647703045" x2="259.27637647703045" y1="0.5" y2="30"/><line opacity="0.2" x1="423.2724457214949" x2="423.2724457214949" y1="0.5" y2="30"/><line opacity="0.2" x1="418.68125459449857" x2="418.68125459449857" y1="0.5" y2="30"/><line opacity="0.2" x1="252.5213035350076" x2="252.5213035350076" y1="0.5" y2="30"/><line opacity="0.2" x1="253.03554927590602" x2="253.03554927590602" y1="0.5" y2="30"/><line opacity="0.2" x1="434.39940847486076" x2="434.39940847486076" y1="0.5" y2="30"/><line opacity="0.2" x1="361.42223352796213" x2="361.42223352796213" y1="0.5" y2="30"/><line opacity="0.2" x1="361.3177280870178" x2="361.3177280870178" y1="0.5" y2="30"/><line opacity="0.2" x1="342.34815719698867" x2="342.34815719698867" y1="0.5" y2="30"/><line opacity="0.2" x1="564.3308921151098" x2="564.3308921151098" y1="0.5" y2="30"/><line opacity="0.2" x1="309.4155965143104" x2="309.4155965143104" y1="0.5" y2="30"/><line opacity="0.2" x1="391.5841087971454" x2="391.5841087971454" y1="0.5" y2="30"/><line opacity="0.2" x1="315.0554574449976" x2="315.0554574449976" y1="0.5" y2="30"/><line opacity="0.2" x1="217.85953917694246" x2="217.85953917694246" y1="0.5" y2="30"/><line opacity="0.2" x1="303.5338165620316" x2="303.5338165620316" y1="0.5" y2="30"/><line opacity="0.2" x1="297.0498093681604" x2="297.0498093681604" y1="0.5" y2="30"/><line opacity="0.2" x1="511.33564613372056" x2="511.33564613372056" y1="0.5" y2="30"/><line opacity="0.2" x1="298.60304364225124" x2="298.60304364225124" y1="0.5" y2="30"/><line opacity="0.2" x1="327.98370800428063" x2="327.98370800428063" y1="0.5" y2="30"/><line opacity="0.2" x1="297.85429707776916" x2="297.85429707776916" y1="0.5" y2="30"/><line opacity="0.2" x1="546.4899450406934" x2="546.4899450406934" y1="0.5" y2="30"/><line opacity="0.2" x1="371.5022823901442" x2="371.5022823901442" y1="0.5" y2="30"/><line opacity="0.2" x1="314.77419042360026" x2="314.77419042360026" y1="0.5" y2="30"/><line opacity="0.2" x1="274.55408505277865" x2="274.55408505277865" y1="0.5" y2="30"/><line opacity="0.2" x1="293.94345265163724" x2="293.94345265163724" y1="0.5" y2="30"/><line opacity="0.2" x1="329.95880925970226" x2="329.95880925970226" y1="0.5" y2="30"/><line opacity="0.2" x1="250.88563206423223" x2="250.88563206423223" y1="0.5" y2="30"/><line opacity="0.2" x1="423.84145604526054" x2="423.84145604526054" y1="0.5" y2="30"/><line opacity="0.2" x1="210.9510589627344" x2="210.9510589627344" y1="0.5" y2="30"/><line opacity="0.2" x1="320.84616682082685" x2="320.84616682082685" y1="0.5" y2="30"/><line opacity="0.2" x1="479.65928509920514" x2="479.65928509920514" y1="0.5" y2="30"/><line opacity="0.2" x1="244.13469377266117" x2="244.13469377266117" y1="0.5" y2="30"/><line opacity="0.2" x1="338.21633178155867" x2="338.21633178155867" y1="0.5" y2="30"/><line opacity="0.2" x1="209.90332102183106" x2="209.90332102183106" y1="0.5" y2="30"/><line opacity="0.2" x1="238.0664396498317" x2="238.0664396498317" y1="0.5" y2="30"/><line opacity="0.2" x1="253.8610392670751" x2="253.8610392670751" y1="0.5" y2="30"/><line opacity="0.2" x1="293.28444853604384" x2="293.28444853604384" y1="0.5" y2="30"/><line opacity="0.2" x1="277.0043397330981" x2="277.0043397330981" y1="0.5" y2="30"/><line opacity="0.2" x1="206.86015685097948" x2="206.86015685097948" y1="0.5" y2="30"/><line opacity="0.2" x1="204.20531424865175" x2="204.20531424865175" y1="0.5" y2="30"/><line opacity="0.2" x1="263.9458203505696" x2="263.9458203505696" y1="0.5" y2="30"/><line opacity="0.2" x1="271.4325945487934" x2="271.4325945487934" y1="0.5" y2="30"/><line opacity="0.2" x1="520.8033367881683" x2="520.8033367881683" y1="0.5" y2="30"/><line opacity="0.2" x1="148.36762496655993" x2="148.36762496655993" y1="0.5" y2="30"/><line opacity="0.2" x1="232.59867903381934" x2="232.59867903381934" y1="0.5" y2="30"/><line opacity="0.2" x1="380.2067102391942" x2="380.2067102391942" y1="0.5" y2="30"/><line opacity="0.2" x1="198.49798703016293" x2="198.49798703016293" y1="0.5" y2="30"/><line opacity="0.2" x1="177.90973926127157" x2="177.90973926127157" y1="0.5" y2="30"/><line opacity="0.2" x1="109.80474603990474" x2="109.80474603990474" y1="0.5" y2="30"/><line opacity="0.2" x1="319.1516344271516" x2="319.1516344271516" y1="0.5" y2="30"/><line opacity="0.2" x1="315.33719459630225" x2="315.33719459630225" y1="0.5" y2="30"/><line opacity="0.2" x1="401.6330366232355" x2="401.6330366232355" y1="0.5" y2="30"/><line opacity="0.2" x1="380.9859038075252" x2="380.9859038075252" y1="0.5" y2="30"/><line opacity="0.2" x1="376.72720257835795" x2="376.72720257835795" y1="0.5" y2="30"/><line opacity="0.2" x1="367.9319746134103" x2="367.9319746134103" y1="0.5" y2="30"/><line opacity="0.2" x1="238.97498045051037" x2="238.97498045051037" y1="0.5" y2="30"/><line opacity="0.2" x1="360.859686316872" x2="360.859686316872" y1="0.5" y2="30"/><line opacity="0.2" x1="169.89440395367578" x2="169.89440395367578" y1="0.5" y2="30"/><line opacity="0.2" x1="185.81274393809554" x2="185.81274393809554" y1="0.5" y2="30"/><line opacity="0.2" x1="209.80279620250667" x2="209.80279620250667" y1="0.5" y2="30"/><line opacity="0.2" x1="278.3433430732164" x2="278.3433430732164" y1="0.5" y2="30"/><line opacity="0.2" x1="459.6263633208783" x2="459.6263633208783" y1="0.5" y2="30"/><line opacity="0.2" x1="152.9759806740572" x2="152.9759806740572" y1="0.5" y2="30"/><line opacity="0.2" x1="217.84521216801286" x2="217.84521216801286" y1="0.5" y2="30"/><line opacity="0.2" x1="325.14570652520706" x2="325.14570652520706" y1="0.5" y2="30"/><line opacity="0.2" x1="309.87842678333044" x2="309.87842678333044" y1="0.5" y2="30"/><line opacity="0.2" x1="261.81333082323664" x2="261.81333082323664" y1="0.5" y2="30"/><line opacity="0.2" x1="294.9887710690673" x2="294.9887710690673" y1="0.5" y2="30"/><line opacity="0.2" x1="261.64645498476426" x2="261.64645498476426" y1="0.5" y2="30"/><line opacity="0.2" x1="356.6898924062697" x2="356.6898924062697" y1="0.5" y2="30"/><line opacity="0.2" x1="244.2411982038166" x2="244.2411982038166" y1="0.5" y2="30"/><line opacity="0.2" x1="459.61581741459673" x2="459.61581741459673" y1="0.5" y2="30"/><line opacity="0.2" x1="325.34653405838793" x2="325.34653405838793" y1="0.5" y2="30"/><line opacity="0.2" x1="305.2092819332388" x2="305.2092819332388" y1="0.5" y2="30"/><line opacity="0.2" x1="542.8487294522774" x2="542.8487294522774" y1="0.5" y2="30"/><line opacity="0.2" x1="312.9654756642841" x2="312.9654756642841" y1="0.5" y2="30"/><line opacity="0.2" x1="255.2155640681851" x2="255.2155640681851" y1="0.5" y2="30"/><line opacity="0.2" x1="304.56022638851584" x2="304.56022638851584" y1="0.5" y2="30"/><line opacity="0.2" x1="303.61498450258654" x2="303.61498450258654" y1="0.5" y2="30"/><line opacity="0.2" x1="320.92794512930124" x2="320.92794512930124" y1="0.5" y2="30"/><line opacity="0.2" x1="443.9966768711267" x2="443.9966768711267" y1="0.5" y2="30"/><line opacity="0.2" x1="448.5292888143751" x2="448.5292888143751" y1="0.5" y2="30"/><line opacity="0.2" x1="139.95509683368405" x2="139.95509683368405" y1="0.5" y2="30"/><line opacity="0.2" x1="387.4182951359364" x2="387.4182951359364" y1="0.5" y2="30"/><line opacity="0.2" x1="270.97486599593043" x2="270.97486599593043" y1="0.5" y2="30"/><line opacity="0.2" x1="462.11372277055494" x2="462.11372277055494" y1="0.5" y2="30"/><line opacity="0.2" x1="309.1293107207369" x2="309.1293107207369" y1="0.5" y2="30"/><line opacity="0.2" x1="384.58750473493313" x2="384.58750473493313" y1="0.5" y2="30"/><line opacity="0.2" x1="329.9829184448316" x2="329.9829184448316" y1="0.5" y2="30"/><line opacity="0.2" x1="366.15990034542295" x2="366.15990034542295" y1="0.5" y2="30"/><line opacity="0.2" x1="420.1007587011804" x2="420.1007587011804" y1="0.5" y2="30"/><line opacity="0.2" x1="423.907981538547" x2="423.907981538547" y1="0.5" y2="30"/><line opacity="0.2" x1="265.9786730526097" x2="265.9786730526097" y1="0.5" y2="30"/><line opacity="0.2" x1="417.04419121277596" x2="417.04419121277596" y1="0.5" y2="30"/><line opacity="0.2" x1="366.2939810476115" x2="366.2939810476115" y1="0.5" y2="30"/><line opacity="0.2" x1="325.5777772653832" x2="325.5777772653832" y1="0.5" y2="30"/><line opacity="0.2" x1="383.5970093301251" x2="383.5970093301251" y1="0.5" y2="30"/><line opacity="0.2" x1="358.4486237427272" x2="358.4486237427272" y1="0.5" y2="30"/><line opacity="0.2" x1="538.1699185971123" x2="538.1699185971123" y1="0.5" y2="30"/><line opacity="0.2" x1="408.4423524752783" x2="408.4423524752783" y1="0.5" y2="30"/><line opacity="0.2" x1="295.03686060918" x2="295.03686060918" y1="0.5" y2="30"/><line opacity="0.2" x1="266.0971522666131" x2="266.0971522666131" y1="0.5" y2="30"/><line opacity="0.2" x1="284.3079344959108" x2="284.3079344959108" y1="0.5" y2="30"/><line opacity="0.2" x1="405.81972002868036" x2="405.81972002868036" y1="0.5" y2="30"/><line opacity="0.2" x1="216.67706953575154" x2="216.67706953575154" y1="0.5" y2="30"/><line opacity="0.2" x1="379.4823133820275" x2="379.4823133820275" y1="0.5" y2="30"/><line opacity="0.2" x1="240.46143330827383" x2="240.46143330827383" y1="0.5" y2="30"/><line opacity="0.2" x1="448.54781957940196" x2="448.54781957940196" y1="0.5" y2="30"/><line opacity="0.2" x1="359.7851140549718" x2="359.7851140549718" y1="0.5" y2="30"/><line opacity="0.2" x1="366.07709839474217" x2="366.07709839474217" y1="0.5" y2="30"/><line opacity="0.2" x1="288.7320403046947" x2="288.7320403046947" y1="0.5" y2="30"/><line opacity="0.2" x1="510.5157118605091" x2="510.5157118605091" y1="0.5" y2="30"/><line opacity="0.2" x1="305.92117918361186" x2="305.92117918361186" y1="0.5" y2="30"/><line opacity="0.2" x1="296.4353538044096" x2="296.4353538044096" y1="0.5" y2="30"/><line opacity="0.2" x1="29.521095574987786" x2="29.521095574987786" y1="0.5" y2="30"/><line opacity="0.2" x1="376.4239111803526" x2="376.4239111803526" y1="0.5" y2="30"/><line opacity="0.2" x1="203.38741064979698" x2="203.38741064979698" y1="0.5" y2="30"/><line opacity="0.2" x1="350.74453253838533" x2="350.74453253838533" y1="0.5" y2="30"/><line opacity="0.2" x1="213.61346542925384" x2="213.61346542925384" y1="0.5" y2="30"/><line opacity="0.2" x1="385.7270646336467" x2="385.7270646336467" y1="0.5" y2="30"/><line opacity="0.2" x1="350.5091174953118" x2="350.5091174953118" y1="0.5" y2="30"/><line opacity="0.2" x1="277.3966818670589" x2="277.3966818670589" y1="0.5" y2="30"/><line opacity="0.2" x1="359.8528151281772" x2="359.8528151281772" y1="0.5" y2="30"/><line opacity="0.2" x1="291.4285343307422" x2="291.4285343307422" y1="0.5" y2="30"/><line opacity="0.2" x1="356.13733543797366" x2="356.13733543797366" y1="0.5" y2="30"/><line opacity="0.2" x1="211.82537157327357" x2="211.82537157327357" y1="0.5" y2="30"/><line opacity="0.2" x1="226.49754083504354" x2="226.49754083504354" y1="0.5" y2="30"/><line opacity="0.2" x1="369.1396172717906" x2="369.1396172717906" y1="0.5" y2="30"/><line opacity="0.2" x1="256.5604858421995" x2="256.5604858421995" y1="0.5" y2="30"/><line opacity="0.2" x1="406.875580673244" x2="406.875580673244" y1="0.5" y2="30"/><line opacity="0.2" x1="461.39334472422564" x2="461.39334472422564" y1="0.5" y2="30"/><line opacity="0.2" x1="362.3321932080412" x2="362.3321932080412" y1="0.5" y2="30"/><line opacity="0.2" x1="279.95541749766505" x2="279.95541749766505" y1="0.5" y2="30"/><line opacity="0.2" x1="41.731522257475405" x2="41.731522257475405" y1="0.5" y2="30"/><line opacity="0.2" x1="391.3863178836268" x2="391.3863178836268" y1="0.5" y2="30"/><line opacity="0.2" x1="254.53826434700306" x2="254.53826434700306" y1="0.5" y2="30"/><line opacity="0.2" x1="396.2488570418513" x2="396.2488570418513" y1="0.5" y2="30"/><line opacity="0.2" x1="265.55650770769375" x2="265.55650770769375" y1="0.5" y2="30"/><line opacity="0.2" x1="277.38262243193657" x2="277.38262243193657" y1="0.5" y2="30"/><line opacity="0.2" x1="217.93262359372832" x2="217.93262359372832" y1="0.5" y2="30"/><line opacity="0.2" x1="307.3649189598414" x2="307.3649189598414" y1="0.5" y2="30"/><line opacity="0.2" x1="208.11812309267194" x2="208.11812309267194" y1="0.5" y2="30"/><line opacity="0.2" x1="123.80545508707425" x2="123.80545508707425" y1="0.5" y2="30"/><line opacity="0.2" x1="294.4532511466923" x2="294.4532511466923" y1="0.5" y2="30"/><line opacity="0.2" x1="228.54464073715272" x2="228.54464073715272" y1="0.5" y2="30"/><line opacity="0.2" x1="130.99437609952815" x2="130.99437609952815" y1="0.5" y2="30"/><line opacity="0.2" x1="320.25704566607214" x2="320.25704566607214" y1="0.5" y2="30"/><line opacity="0.2" x1="298.3535368393529" x2="298.3535368393529" y1="0.5" y2="30"/><line opacity="0.2" x1="374.6288367936136" x2="374.6288367936136" y1="0.5" y2="30"/><line opacity="0.2" x1="160.89742843968352" x2="160.89742843968352" y1="0.5" y2="30"/><line opacity="0.2" x1="373.1572166930099" x2="373.1572166930099" y1="0.5" y2="30"/><line opacity="0.2" x1="228.65109564603475" x2="228.65109564603475" y1="0.5" y2="30"/><line opacity="0.2" x1="349.543221282548" x2="349.543221282548" y1="0.5" y2="30"/><line opacity="0.2" x1="290.53807708322455" x2="290.53807708322455" y1="0.5" y2="30"/><line opacity="0.2" x1="380.164205962267" x2="380.164205962267" y1="0.5" y2="30"/><line opacity="0.2" x1="466.94460111132315" x2="466.94460111132315" y1="0.5" y2="30"/><line opacity="0.2" x1="174.60674276026214" x2="174.60674276026214" y1="0.5" y2="30"/><line opacity="0.2" x1="315.83358865469665" x2="315.83358865469665" y1="0.5" y2="30"/><line opacity="0.2" x1="337.1226290712598" x2="337.1226290712598" y1="0.5" y2="30"/><line opacity="0.2" x1="189.49899555839067" x2="189.49899555839067" y1="0.5" y2="30"/><line opacity="0.2" x1="309.0805413057272" x2="309.0805413057272" y1="0.5" y2="30"/><line opacity="0.2" x1="234.2535119941663" x2="234.2535119941663" y1="0.5" y2="30"/><line opacity="0.2" x1="186.4091636611619" x2="186.4091636611619" y1="0.5" y2="30"/><line opacity="0.2" x1="172.68144976034878" x2="172.68144976034878" y1="0.5" y2="30"/><line opacity="0.2" x1="132.05504363406578" x2="132.05504363406578" y1="0.5" y2="30"/><line opacity="0.2" x1="383.62406506473667" x2="383.62406506473667" y1="0.5" y2="30"/><line opacity="0.2" x1="423.7622557721686" x2="423.7622557721686" y1="0.5" y2="30"/><line opacity="0.2" x1="187.3017403048577" x2="187.3017403048577" y1="0.5" y2="30"/><line opacity="0.2" x1="346.65171515585916" x2="346.65171515585916" y1="0.5" y2="30"/><line opacity="0.2" x1="194.04267914953903" x2="194.04267914953903" y1="0.5" y2="30"/><line opacity="0.2" x1="221.171401610836" x2="221.171401610836" y1="0.5" y2="30"/><line opacity="0.2" x1="326.6813462035653" x2="326.6813462035653" y1="0.5" y2="30"/><line opacity="0.2" x1="280.5750771378442" x2="280.5750771378442" y1="0.5" y2="30"/><line opacity="0.2" x1="285.8577104279232" x2="285.8577104279232" y1="0.5" y2="30"/><line opacity="0.2" x1="204.75473496763038" x2="204.75473496763038" y1="0.5" y2="30"/><line opacity="0.2" x1="372.2649279753654" x2="372.2649279753654" y1="0.5" y2="30"/><line opacity="0.2" x1="340.43541470229206" x2="340.43541470229206" y1="0.5" y2="30"/><line opacity="0.2" x1="100.08002569398644" x2="100.08002569398644" y1="0.5" y2="30"/><line opacity="0.2" x1="292.1650393012372" x2="292.1650393012372" y1="0.5" y2="30"/><line opacity="0.2" x1="434.7099390718396" x2="434.7099390718396" y1="0.5" y2="30"/><line opacity="0.2" x1="305.9283175191314" x2="305.9283175191314" y1="0.5" y2="30"/><line opacity="0.2" x1="351.75867699020625" x2="351.75867699020625" y1="0.5" y2="30"/><line opacity="0.2" x1="261.7238110286991" x2="261.7238110286991" y1="0.5" y2="30"/><line opacity="0.2" x1="366.3770447602425" x2="366.3770447602425" y1="0.5" y2="30"/><line opacity="0.2" x1="152.19890978528196" x2="152.19890978528196" y1="0.5" y2="30"/><line opacity="0.2" x1="310.6796116168896" x2="310.6796116168896" y1="0.5" y2="30"/><line opacity="0.2" x1="334.2753898990575" x2="334.2753898990575" y1="0.5" y2="30"/><line opacity="0.2" x1="353.52664295258785" x2="353.52664295258785" y1="0.5" y2="30"/><line opacity="0.2" x1="440.4253110048091" x2="440.4253110048091" y1="0.5" y2="30"/><line opacity="0.2" x1="238.55293862448772" x2="238.55293862448772" y1="0.5" y2="30"/><line opacity="0.2" x1="405.8687827686853" x2="405.8687827686853" y1="0.5" y2="30"/><line opacity="0.2" x1="281.76390518311234" x2="281.76390518311234" y1="0.5" y2="30"/><line opacity="0.2" x1="336.9810318053655" x2="336.9810318053655" y1="0.5" y2="30"/><line opacity="0.2" x1="291.43051679172913" x2="291.43051679172913" y1="0.5" y2="30"/><line opacity="0.2" x1="253.75065560684126" x2="253.75065560684126" y1="0.5" y2="30"/><line opacity="0.2" x1="440.2514530018455" x2="440.2514530018455" y1="0.5" y2="30"/><line opacity="0.2" x1="504.27371911072044" x2="504.27371911072044" y1="0.5" y2="30"/><line opacity="0.2" x1="315.30393335351255" x2="315.30393335351255" y1="0.5" y2="30"/><line opacity="0.2" x1="336.1965998442866" x2="336.1965998442866" y1="0.5" y2="30"/><line opacity="0.2" x1="354.6062680127455" x2="354.6062680127455" y1="0.5" y2="30"/><line opacity="0.2" x1="260.8516683741354" x2="260.8516683741354" y1="0.5" y2="30"/><line opacity="0.2" x1="333.26339343969454" x2="333.26339343969454" y1="0.5" y2="30"/><line opacity="0.2" x1="173.13234228450423" x2="173.13234228450423" y1="0.5" y2="30"/><line opacity="0.2" x1="315.64271505911165" x2="315.64271505911165" y1="0.5" y2="30"/><line opacity="0.2" x1="303.16282382539254" x2="303.16282382539254" y1="0.5" y2="30"/><line opacity="0.2" x1="308.54027233692864" x2="308.54027233692864" y1="0.5" y2="30"/><line opacity="0.2" x1="269.187354376692" x2="269.187354376692" y1="0.5" y2="30"/><line opacity="0.2" x1="364.54833970419645" x2="364.54833970419645" y1="0.5" y2="30"/><line opacity="0.2" x1="301.2593620563377" x2="301.2593620563377" y1="0.5" y2="30"/><line opacity="0.2" x1="379.9941275962975" x2="379.9941275962975" y1="0.5" y2="30"/><line opacity="0.2" x1="165.66288165294554" x2="165.66288165294554" y1="0.5" y2="30"/><line opacity="0.2" x1="140.00827678819033" x2="140.00827678819033" y1="0.5" y2="30"/><line opacity="0.2" x1="330.4306068928464" x2="330.4306068928464" y1="0.5" y2="30"/><line opacity="0.2" x1="303.56196767167455" x2="303.56196767167455" y1="0.5" y2="30"/><line opacity="0.2" x1="444.2194243565407" x2="444.2194243565407" y1="0.5" y2="30"/><line opacity="0.2" x1="297.00694643304325" x2="297.00694643304325" y1="0.5" y2="30"/><line opacity="0.2" x1="229.57695706603687" x2="229.57695706603687" y1="0.5" y2="30"/><line opacity="0.2" x1="224.16005653137333" x2="224.16005653137333" y1="0.5" y2="30"/><line opacity="0.2" x1="271.59837208092495" x2="271.59837208092495" y1="0.5" y2="30"/><line opacity="0.2" x1="432.43348495137303" x2="432.43348495137303" y1="0.5" y2="30"/><line opacity="0.2" x1="212.86681871315818" x2="212.86681871315818" y1="0.5" y2="30"/><line opacity="0.2" x1="280.33579033286264" x2="280.33579033286264" y1="0.5" y2="30"/><line opacity="0.2" x1="297.0994760401331" x2="297.0994760401331" y1="0.5" y2="30"/><line opacity="0.2" x1="357.60089675942146" x2="357.60089675942146" y1="0.5" y2="30"/><line opacity="0.2" x1="249.40629612045586" x2="249.40629612045586" y1="0.5" y2="30"/><line opacity="0.2" x1="187.28495691825455" x2="187.28495691825455" y1="0.5" y2="30"/><line opacity="0.2" x1="400.9848719748238" x2="400.9848719748238" y1="0.5" y2="30"/><line opacity="0.2" x1="180.38048834371358" x2="180.38048834371358" y1="0.5" y2="30"/><line opacity="0.2" x1="355.96723218189345" x2="355.96723218189345" y1="0.5" y2="30"/><line opacity="0.2" x1="403.0644629713093" x2="403.0644629713093" y1="0.5" y2="30"/><line opacity="0.2" x1="439.88609969928217" x2="439.88609969928217" y1="0.5" y2="30"/><line opacity="0.2" x1="229.20533482252472" x2="229.20533482252472" y1="0.5" y2="30"/><line opacity="0.2" x1="370.55638528615134" x2="370.55638528615134" y1="0.5" y2="30"/><line opacity="0.2" x1="361.1136082870974" x2="361.1136082870974" y1="0.5" y2="30"/><line opacity="0.2" x1="380.0486625485067" x2="380.0486625485067" y1="0.5" y2="30"/><line opacity="0.2" x1="273.505405209029" x2="273.505405209029" y1="0.5" y2="30"/><line opacity="0.2" x1="342.6478048665142" x2="342.6478048665142" y1="0.5" y2="30"/><line opacity="0.2" x1="219.92139786212118" x2="219.92139786212118" y1="0.5" y2="30"/><line opacity="0.2" x1="353.4387262781803" x2="353.4387262781803" y1="0.5" y2="30"/><line opacity="0.2" x1="269.2793259239522" x2="269.2793259239522" y1="0.5" y2="30"/><line opacity="0.2" x1="141.8539832787835" x2="141.8539832787835" y1="0.5" y2="30"/><line opacity="0.2" x1="293.540248198888" x2="293.540248198888" y1="0.5" y2="30"/><line opacity="0.2" x1="265.0804915882748" x2="265.0804915882748" y1="0.5" y2="30"/><line opacity="0.2" x1="239.59219974769832" x2="239.59219974769832" y1="0.5" y2="30"/><line opacity="0.2" x1="248.4371556409092" x2="248.4371556409092" y1="0.5" y2="30"/><line opacity="0.2" x1="462.4116495237341" x2="462.4116495237341" y1="0.5" y2="30"/><line opacity="0.2" x1="408.0297237484656" x2="408.0297237484656" y1="0.5" y2="30"/><line opacity="0.2" x1="222.31148877324534" x2="222.31148877324534" y1="0.5" y2="30"/><line opacity="0.2" x1="343.8524340657431" x2="343.8524340657431" y1="0.5" y2="30"/><line opacity="0.2" x1="247.31277425662967" x2="247.31277425662967" y1="0.5" y2="30"/><line opacity="0.2" x1="323.8986445122566" x2="323.8986445122566" y1="0.5" y2="30"/><line opacity="0.2" x1="409.045279913513" x2="409.045279913513" y1="0.5" y2="30"/><line opacity="0.2" x1="371.0821334992695" x2="371.0821334992695" y1="0.5" y2="30"/><line opacity="0.2" x1="405.4411120993602" x2="405.4411120993602" y1="0.5" y2="30"/><line opacity="0.2" x1="338.3518959209698" x2="338.3518959209698" y1="0.5" y2="30"/><line opacity="0.2" x1="195.61092393482548" x2="195.61092393482548" y1="0.5" y2="30"/><line opacity="0.2" x1="279.32357580225056" x2="279.32357580225056" y1="0.5" y2="30"/><line opacity="0.2" x1="224.5295600061515" x2="224.5295600061515" y1="0.5" y2="30"/><line opacity="0.2" x1="284.17454467073117" x2="284.17454467073117" y1="0.5" y2="30"/><line opacity="0.2" x1="241.69512224446623" x2="241.69512224446623" y1="0.5" y2="30"/><line opacity="0.2" x1="326.3894557896487" x2="326.3894557896487" y1="0.5" y2="30"/><line opacity="0.2" x1="266.50303879006384" x2="266.50303879006384" y1="0.5" y2="30"/><line opacity="0.2" x1="313.05699298327875" x2="313.05699298327875" y1="0.5" y2="30"/><line opacity="0.2" x1="282.36088838870387" x2="282.36088838870387" y1="0.5" y2="30"/><line opacity="0.2" x1="298.5347422774586" x2="298.5347422774586" y1="0.5" y2="30"/><line opacity="0.2" x1="183.5075842488968" x2="183.5075842488968" y1="0.5" y2="30"/><line opacity="0.2" x1="177.56058699325217" x2="177.56058699325217" y1="0.5" y2="30"/><line opacity="0.2" x1="153.48249902263055" x2="153.48249902263055" y1="0.5" y2="30"/><line opacity="0.2" x1="378.5501102274775" x2="378.5501102274775" y1="0.5" y2="30"/><line opacity="0.2" x1="322.4453105949593" x2="322.4453105949593" y1="0.5" y2="30"/><line opacity="0.2" x1="378.2155965060966" x2="378.2155965060966" y1="0.5" y2="30"/><line opacity="0.2" x1="528.256842231382" x2="528.256842231382" y1="0.5" y2="30"/><line opacity="0.2" x1="217.95875193865345" x2="217.95875193865345" y1="0.5" y2="30"/><line opacity="0.2" x1="345.4651340947854" x2="345.4651340947854" y1="0.5" y2="30"/><line opacity="0.2" x1="289.8014819275618" x2="289.8014819275618" y1="0.5" y2="30"/><line opacity="0.2" x1="248.31313374316554" x2="248.31313374316554" y1="0.5" y2="30"/><line opacity="0.2" x1="449.1171583481877" x2="449.1171583481877" y1="0.5" y2="30"/><line opacity="0.2" x1="299.44321904692265" x2="299.44321904692265" y1="0.5" y2="30"/><line opacity="0.2" x1="276.999685242782" x2="276.999685242782" y1="0.5" y2="30"/><line opacity="0.2" x1="379.0183269941537" x2="379.0183269941537" y1="0.5" y2="30"/><line opacity="0.2" x1="319.87045067827864" x2="319.87045067827864" y1="0.5" y2="30"/><line opacity="0.2" x1="167.98665076528638" x2="167.98665076528638" y1="0.5" y2="30"/><line opacity="0.2" x1="312.6232104657859" x2="312.6232104657859" y1="0.5" y2="30"/><line opacity="0.2" x1="194.29467160953374" x2="194.29467160953374" y1="0.5" y2="30"/><line opacity="0.2" x1="194.86634403501108" x2="194.86634403501108" y1="0.5" y2="30"/><line opacity="0.2" x1="361.30786294727034" x2="361.30786294727034" y1="0.5" y2="30"/><line opacity="0.2" x1="343.1227443720826" x2="343.1227443720826" y1="0.5" y2="30"/><line opacity="0.2" x1="134.5785833933683" x2="134.5785833933683" y1="0.5" y2="30"/><line opacity="0.2" x1="435.2199227400894" x2="435.2199227400894" y1="0.5" y2="30"/><line opacity="0.2" x1="417.361576727019" x2="417.361576727019" y1="0.5" y2="30"/><line opacity="0.2" x1="332.6329736407548" x2="332.6329736407548" y1="0.5" y2="30"/><line opacity="0.2" x1="201.7823384388032" x2="201.7823384388032" y1="0.5" y2="30"/><line opacity="0.2" x1="461.83013216681695" x2="461.83013216681695" y1="0.5" y2="30"/><line opacity="0.2" x1="235.89655616740154" x2="235.89655616740154" y1="0.5" y2="30"/><line opacity="0.2" x1="315.7232593641318" x2="315.7232593641318" y1="0.5" y2="30"/><line opacity="0.2" x1="300.8623433788048" x2="300.8623433788048" y1="0.5" y2="30"/><line opacity="0.2" x1="504.6405324578319" x2="504.6405324578319" y1="0.5" y2="30"/><line opacity="0.2" x1="367.86519216266197" x2="367.86519216266197" y1="0.5" y2="30"/><line opacity="0.2" x1="303.7496618158144" x2="303.7496618158144" y1="0.5" y2="30"/><line opacity="0.2" x1="264.89208057771503" x2="264.89208057771503" y1="0.5" y2="30"/><line opacity="0.2" x1="270.55431161100984" x2="270.55431161100984" y1="0.5" y2="30"/><line opacity="0.2" x1="379.40794099951677" x2="379.40794099951677" y1="0.5" y2="30"/><line opacity="0.2" x1="279.45470731961245" x2="279.45470731961245" y1="0.5" y2="30"/><line opacity="0.2" x1="199.97321611293958" x2="199.97321611293958" y1="0.5" y2="30"/><line opacity="0.2" x1="218.57928777501647" x2="218.57928777501647" y1="0.5" y2="30"/><line opacity="0.2" x1="195.62995085844514" x2="195.62995085844514" y1="0.5" y2="30"/><line opacity="0.2" x1="388.4886419931875" x2="388.4886419931875" y1="0.5" y2="30"/><line opacity="0.2" x1="220.02788853333445" x2="220.02788853333445" y1="0.5" y2="30"/><line opacity="0.2" x1="244.8543829413188" x2="244.8543829413188" y1="0.5" y2="30"/><line opacity="0.2" x1="299.1389972896411" x2="299.1389972896411" y1="0.5" y2="30"/><line opacity="0.2" x1="238.87653561015526" x2="238.87653561015526" y1="0.5" y2="30"/><line opacity="0.2" x1="255.2286889078792" x2="255.2286889078792" y1="0.5" y2="30"/><line opacity="0.2" x1="410.96084507914236" x2="410.96084507914236" y1="0.5" y2="30"/><line opacity="0.2" x1="291.2027263912215" x2="291.2027263912215" y1="0.5" y2="30"/><line opacity="0.2" x1="388.95022066437303" x2="388.95022066437303" y1="0.5" y2="30"/><line opacity="0.2" x1="258.3499247339581" x2="258.3499247339581" y1="0.5" y2="30"/><line opacity="0.2" x1="425.8906777284416" x2="425.8906777284416" y1="0.5" y2="30"/><line opacity="0.2" x1="332.3121340140993" x2="332.3121340140993" y1="0.5" y2="30"/><line opacity="0.2" x1="331.92791474800737" x2="331.92791474800737" y1="0.5" y2="30"/><line opacity="0.2" x1="457.35036355200987" x2="457.35036355200987" y1="0.5" y2="30"/><line opacity="0.2" x1="306.7741156909131" x2="306.7741156909131" y1="0.5" y2="30"/><line opacity="0.2" x1="252.226312822768" x2="252.226312822768" y1="0.5" y2="30"/><line opacity="0.2" x1="321.4158148295843" x2="321.4158148295843" y1="0.5" y2="30"/><line opacity="0.2" x1="246.03436507698257" x2="246.03436507698257" y1="0.5" y2="30"/><line opacity="0.2" x1="473.2820765917866" x2="473.2820765917866" y1="0.5" y2="30"/><line opacity="0.2" x1="292.0075266637331" x2="292.0075266637331" y1="0.5" y2="30"/><line opacity="0.2" x1="368.4442724651666" x2="368.4442724651666" y1="0.5" y2="30"/><line opacity="0.2" x1="121.13615046846033" x2="121.13615046846033" y1="0.5" y2="30"/><line opacity="0.2" x1="272.836277242579" x2="272.836277242579" y1="0.5" y2="30"/><line opacity="0.2" x1="297.77297412200903" x2="297.77297412200903" y1="0.5" y2="30"/><line opacity="0.2" x1="281.98674537248866" x2="281.98674537248866" y1="0.5" y2="30"/><line opacity="0.2" x1="411.63115365669074" x2="411.63115365669074" y1="0.5" y2="30"/><line opacity="0.2" x1="275.19793792748095" x2="275.19793792748095" y1="0.5" y2="30"/><line opacity="0.2" x1="255.28404815496327" x2="255.28404815496327" y1="0.5" y2="30"/><line opacity="0.2" x1="348.2052241513799" x2="348.2052241513799" y1="0.5" y2="30"/><line opacity="0.2" x1="179.51746466106093" x2="179.51746466106093" y1="0.5" y2="30"/><line opacity="0.2" x1="256.3591816314446" x2="256.3591816314446" y1="0.5" y2="30"/><line opacity="0.2" x1="246.9314500565937" x2="246.9314500565937" y1="0.5" y2="30"/><line opacity="0.2" x1="368.85888773785547" x2="368.85888773785547" y1="0.5" y2="30"/><line opacity="0.2" x1="321.61475650401115" x2="321.61475650401115" y1="0.5" y2="30"/><line opacity="0.2" x1="212.4257016880093" x2="212.4257016880093" y1="0.5" y2="30"/><line opacity="0.2" x1="346.3270258100905" x2="346.3270258100905" y1="0.5" y2="30"/><line opacity="0.2" x1="416.8554698580482" x2="416.8554698580482" y1="0.5" y2="30"/><line opacity="0.2" x1="396.8851413033721" x2="396.8851413033721" y1="0.5" y2="30"/><line opacity="0.2" x1="156.73157153329777" x2="156.73157153329777" y1="0.5" y2="30"/><line opacity="0.2" x1="307.64966832713105" x2="307.64966832713105" y1="0.5" y2="30"/><line opacity="0.2" x1="53.39896240241622" x2="53.39896240241622" y1="0.5" y2="30"/><line opacity="0.2" x1="396.7906001767993" x2="396.7906001767993" y1="0.5" y2="30"/><line opacity="0.2" x1="346.4924025371354" x2="346.4924025371354" y1="0.5" y2="30"/><line opacity="0.2" x1="322.9185623741685" x2="322.9185623741685" y1="0.5" y2="30"/><line opacity="0.2" x1="362.63592940200306" x2="362.63592940200306" y1="0.5" y2="30"/><line opacity="0.2" x1="162.74630034316942" x2="162.74630034316942" y1="0.5" y2="30"/><line opacity="0.2" x1="310.8958309506745" x2="310.8958309506745" y1="0.5" y2="30"/><line opacity="0.2" x1="429.6623461168172" x2="429.6623461168172" y1="0.5" y2="30"/><line opacity="0.2" x1="156.00711604771692" x2="156.00711604771692" y1="0.5" y2="30"/><line opacity="0.2" x1="103.27743403002236" x2="103.27743403002236" y1="0.5" y2="30"/><line opacity="0.2" x1="267.4487800376276" x2="267.4487800376276" y1="0.5" y2="30"/><line opacity="0.2" x1="252.50199738562247" x2="252.50199738562247" y1="0.5" y2="30"/><line opacity="0.2" x1="405.72117264699" x2="405.72117264699" y1="0.5" y2="30"/><line opacity="0.2" x1="219.58071387817745" x2="219.58071387817745" y1="0.5" y2="30"/><line opacity="0.2" x1="481.71908458478856" x2="481.71908458478856" y1="0.5" y2="30"/><line opacity="0.2" x1="233.25974578594537" x2="233.25974578594537" y1="0.5" y2="30"/><line opacity="0.2" x1="400.51101821533115" x2="400.51101821533115" y1="0.5" y2="30"/><line opacity="0.2" x1="128.81318976324252" x2="128.81318976324252" y1="0.5" y2="30"/><line opacity="0.2" x1="460.28108717382923" x2="460.28108717382923" y1="0.5" y2="30"/><line opacity="0.2" x1="182.86187348799126" x2="182.86187348799126" y1="0.5" y2="30"/><line opacity="0.2" x1="524.3475651513643" x2="524.3475651513643" y1="0.5" y2="30"/><line opacity="0.2" x1="230.93339288207537" x2="230.93339288207537" y1="0.5" y2="30"/><line opacity="0.2" x1="269.2847959209287" x2="269.2847959209287" y1="0.5" y2="30"/><line opacity="0.2" x1="325.8638345070822" x2="325.8638345070822" y1="0.5" y2="30"/><line opacity="0.2" x1="332.0966041970804" x2="332.0966041970804" y1="0.5" y2="30"/><line opacity="0.2" x1="139.0469442388641" x2="139.0469442388641" y1="0.5" y2="30"/><line opacity="0.2" x1="565.5226975368242" x2="565.5226975368242" y1="0.5" y2="30"/><line opacity="0.2" x1="322.9938256961038" x2="322.9938256961038" y1="0.5" y2="30"/><line opacity="0.2" x1="359.83321079144497" x2="359.83321079144497" y1="0.5" y2="30"/><line opacity="0.2" x1="249.05632193125894" x2="249.05632193125894" y1="0.5" y2="30"/><line opacity="0.2" x1="275.10001846557435" x2="275.10001846557435" y1="0.5" y2="30"/><line opacity="0.2" x1="313.6802959180202" x2="313.6802959180202" y1="0.5" y2="30"/><line opacity="0.2" x1="231.12618986466742" x2="231.12618986466742" y1="0.5" y2="30"/><line opacity="0.2" x1="388.82796319971385" x2="388.82796319971385" y1="0.5" y2="30"/><line opacity="0.2" x1="299.72485064371494" x2="299.72485064371494" y1="0.5" y2="30"/><line opacity="0.2" x1="466.9639237068131" x2="466.9639237068131" y1="0.5" y2="30"/><line opacity="0.2" x1="543.2955147322655" x2="543.2955147322655" y1="0.5" y2="30"/><line opacity="0.2" x1="255.25219706918756" x2="255.25219706918756" y1="0.5" y2="30"/><line opacity="0.2" x1="255.21470499626608" x2="255.21470499626608" y1="0.5" y2="30"/><line opacity="0.2" x1="309.3264499716607" x2="309.3264499716607" y1="0.5" y2="30"/><line opacity="0.2" x1="374.22642197712713" x2="374.22642197712713" y1="0.5" y2="30"/><line opacity="0.2" x1="338.3868871692164" x2="338.3868871692164" y1="0.5" y2="30"/><line opacity="0.2" x1="248.23130209587038" x2="248.23130209587038" y1="0.5" y2="30"/><line opacity="0.2" x1="140.82778018317768" x2="140.82778018317768" y1="0.5" y2="30"/><line opacity="0.2" x1="479.6734571036269" x2="479.6734571036269" y1="0.5" y2="30"/><line opacity="0.2" x1="423.9774632677483" x2="423.9774632677483" y1="0.5" y2="30"/><line opacity="0.2" x1="308.81976024062374" x2="308.81976024062374" y1="0.5" y2="30"/><line opacity="0.2" x1="322.1738835825209" x2="322.1738835825209" y1="0.5" y2="30"/><line opacity="0.2" x1="217.2998254247315" x2="217.2998254247315" y1="0.5" y2="30"/><line opacity="0.2" x1="247.70483614271336" x2="247.70483614271336" y1="0.5" y2="30"/><line opacity="0.2" x1="316.02861849316093" x2="316.02861849316093" y1="0.5" y2="30"/><line opacity="0.2" x1="284.38003869550465" x2="284.38003869550465" y1="0.5" y2="30"/><line opacity="0.2" x1="347.73116866799097" x2="347.73116866799097" y1="0.5" y2="30"/><line opacity="0.2" x1="388.2624848387851" x2="388.2624848387851" y1="0.5" y2="30"/><line opacity="0.2" x1="255.23219387619847" x2="255.23219387619847" y1="0.5" y2="30"/><line opacity="0.2" x1="342.1176349628744" x2="342.1176349628744" y1="0.5" y2="30"/><line opacity="0.2" x1="491.86787498470414" x2="491.86787498470414" y1="0.5" y2="30"/><line opacity="0.2" x1="419.0731456124729" x2="419.0731456124729" y1="0.5" y2="30"/><line opacity="0.2" x1="305.3454591833028" x2="305.3454591833028" y1="0.5" y2="30"/><line opacity="0.2" x1="210.2312019761857" x2="210.2312019761857" y1="0.5" y2="30"/><line opacity="0.2" x1="160.47005355986875" x2="160.47005355986875" y1="0.5" y2="30"/><line opacity="0.2" x1="305.6922595682212" x2="305.6922595682212" y1="0.5" y2="30"/><line opacity="0.2" x1="201.26203115663535" x2="201.26203115663535" y1="0.5" y2="30"/><line opacity="0.2" x1="450.42759708048635" x2="450.42759708048635" y1="0.5" y2="30"/><line opacity="0.2" x1="274.9660741802726" x2="274.9660741802726" y1="0.5" y2="30"/><line opacity="0.2" x1="242.13931830602306" x2="242.13931830602306" y1="0.5" y2="30"/><line opacity="0.2" x1="207.35517145532936" x2="207.35517145532936" y1="0.5" y2="30"/><line opacity="0.2" x1="292.04929517732995" x2="292.04929517732995" y1="0.5" y2="30"/><line opacity="0.2" x1="127.06706878772064" x2="127.06706878772064" y1="0.5" y2="30"/><line opacity="0.2" x1="340.0135428651202" x2="340.0135428651202" y1="0.5" y2="30"/><line opacity="0.2" x1="282.09862264154725" x2="282.09862264154725" y1="0.5" y2="30"/><line opacity="0.2" x1="349.18822676417653" x2="349.18822676417653" y1="0.5" y2="30"/><line opacity="0.2" x1="394.9402993515595" x2="394.9402993515595" y1="0.5" y2="30"/><line opacity="0.2" x1="371.451616954021" x2="371.451616954021" y1="0.5" y2="30"/><line opacity="0.2" x1="321.6801342626497" x2="321.6801342626497" y1="0.5" y2="30"/><line opacity="0.2" x1="200.9264998008776" x2="200.9264998008776" y1="0.5" y2="30"/><line opacity="0.2" x1="393.5194397820858" x2="393.5194397820858" y1="0.5" y2="30"/><line opacity="0.2" x1="473.5116297632833" x2="473.5116297632833" y1="0.5" y2="30"/><line opacity="0.2" x1="215.58841971054946" x2="215.58841971054946" y1="0.5" y2="30"/><line opacity="0.2" x1="219.87234600369314" x2="219.87234600369314" y1="0.5" y2="30"/><line opacity="0.2" x1="468.8075745115703" x2="468.8075745115703" y1="0.5" y2="30"/><line opacity="0.2" x1="152.4378025444054" x2="152.4378025444054" y1="0.5" y2="30"/><line opacity="0.2" x1="313.8240240811309" x2="313.8240240811309" y1="0.5" y2="30"/><line opacity="0.2" x1="219.68199522561844" x2="219.68199522561844" y1="0.5" y2="30"/><line opacity="0.2" x1="197.93460811670266" x2="197.93460811670266" y1="0.5" y2="30"/><line opacity="0.2" x1="311.1928495353994" x2="311.1928495353994" y1="0.5" y2="30"/><line opacity="0.2" x1="298.61104759698725" x2="298.61104759698725" y1="0.5" y2="30"/><line opacity="0.2" x1="236.83654313165397" x2="236.83654313165397" y1="0.5" y2="30"/><line opacity="0.2" x1="274.0635718471972" x2="274.0635718471972" y1="0.5" y2="30"/><line opacity="0.2" x1="347.4388701215145" x2="347.4388701215145" y1="0.5" y2="30"/><line opacity="0.2" x1="393.9969592089128" x2="393.9969592089128" y1="0.5" y2="30"/><line opacity="0.2" x1="226.06554317175494" x2="226.06554317175494" y1="0.5" y2="30"/><line opacity="0.2" x1="302.76568538814325" x2="302.76568538814325" y1="0.5" y2="30"/><line opacity="0.2" x1="241.4163205970192" x2="241.4163205970192" y1="0.5" y2="30"/><line opacity="0.2" x1="335.8878489248834" x2="335.8878489248834" y1="0.5" y2="30"/><line opacity="0.2" x1="265.1291475835216" x2="265.1291475835216" y1="0.5" y2="30"/><line opacity="0.2" x1="331.5159682138305" x2="331.5159682138305" y1="0.5" y2="30"/><line opacity="0.2" x1="263.2635044838503" x2="263.2635044838503" y1="0.5" y2="30"/><line opacity="0.2" x1="328.3696604923869" x2="328.3696604923869" y1="0.5" y2="30"/><line opacity="0.2" x1="393.05255170604255" x2="393.05255170604255" y1="0.5" y2="30"/><line opacity="0.2" x1="333.41906447838835" x2="333.41906447838835" y1="0.5" y2="30"/><line opacity="0.2" x1="109.16075919272836" x2="109.16075919272836" y1="0.5" y2="30"/><line opacity="0.2" x1="164.507546438298" x2="164.507546438298" y1="0.5" y2="30"/><line opacity="0.2" x1="250.99847765669878" x2="250.99847765669878" y1="0.5" y2="30"/><line opacity="0.2" x1="500.8248051997487" x2="500.8248051997487" y1="0.5" y2="30"/><line opacity="0.2" x1="374.49474747879566" x2="374.49474747879566" y1="0.5" y2="30"/><line opacity="0.2" x1="285.0881072813089" x2="285.0881072813089" y1="0.5" y2="30"/><line opacity="0.2" x1="312.0583294839813" x2="312.0583294839813" y1="0.5" y2="30"/><line opacity="0.2" x1="136.93844942641573" x2="136.93844942641573" y1="0.5" y2="30"/><line opacity="0.2" x1="226.0442317057517" x2="226.0442317057517" y1="0.5" y2="30"/><line opacity="0.2" x1="204.6268298571232" x2="204.6268298571232" y1="0.5" y2="30"/><line opacity="0.2" x1="428.8161997973694" x2="428.8161997973694" y1="0.5" y2="30"/><line opacity="0.2" x1="289.2965297962534" x2="289.2965297962534" y1="0.5" y2="30"/><line opacity="0.2" x1="348.22385686806956" x2="348.22385686806956" y1="0.5" y2="30"/><line opacity="0.2" x1="309.02456308083754" x2="309.02456308083754" y1="0.5" y2="30"/><line opacity="0.2" x1="276.2321726993069" x2="276.2321726993069" y1="0.5" y2="30"/><line opacity="0.2" x1="464.97920002045817" x2="464.97920002045817" y1="0.5" y2="30"/><line opacity="0.2" x1="294.4432519903033" x2="294.4432519903033" y1="0.5" y2="30"/><line opacity="0.2" x1="306.49251229827576" x2="306.49251229827576" y1="0.5" y2="30"/><line opacity="0.2" x1="359.6833881457898" x2="359.6833881457898" y1="0.5" y2="30"/></g></svg>