<svg xmlns="http://www.w3.org/2000/svg" xmlns:xlink="http://www.w3.org/1999/xlink" class="plot-c8a321ce6e34a" fill="currentColor" font-family="system-ui, sans-serif" font-size="10" text-anchor="middle" width="640" height="60" viewBox="0 0 640 60" style="color: black;"><style>
        .plot-c8a321ce6e34a {
          display: block;
          background: white;
          height: auto;
          height: intrinsic;
          max-width: 100%;
        }
        .plot-c8a321ce6e34a text,
        .plot-c8a321ce6e34a tspan {
          white-space: pre;
        }
      </style><g aria-label="x-axis tick" fill="none" stroke="currentColor" transform="translate(0.5,0)"><path transform="translate(64.86958724536805,30)" d="M0,0L0,6"/><path transform="translate(158.69791265298372,30)" d="M0,0L0,6"/><path transform="translate(252.5262380605994,30)" d="M0,0L0,6"/><path transform="translate(346.3545634682151,30)" d="M0,0L0,6"/><path transform="translate(440.18288887583077,30)" d="M0,0L0,6"/><path transform="translate(534.0112142834464,30)" d="M0,0L0,6"/></g><g aria-label="x-axis tick label" font-variant="tabular-nums" transform="translate(0.5,9.5)"><text y="0.71em" transform="translate(64.86958724536805,30)">−3</text><text y="0.71em" transform="translate(158.69791265298372,30)">−2</text><text y="0.71em" transform="translate(252.5262380605994,30)">−1</text><text y="0.71em" transform="translate(346.3545634682151,30)">0</text><text y="0.71em" transform="translate(440.18288887583077,30)">1</text><text y="0.71em" transform="translate(534.0112142834464,30)">2</text></g><g aria-label="tick" stroke="steelblue" transform="translate(0.5,0)"><line opacity="0.2" x1="275.39691180000256" x2="275.39691180000256" y1="0" y2="30"/><line opacity="0.2" x1="293.91076836623205" x2="293.91076836623205" y1="0" y2="30"/><line opacity="0.2" x1="373.14397370210446" x2="373.14397370210446" y1="0" y2="30"/><line opacity="0.2" x1="494.21217687877777" x2="494.21217687877777" y1="0" y2="30"/><line opacity="0.2" x1="466.6915826997336" x2="466.6915826997336" y1="0" y2="30"/><line opacity="0.2" x1="297.14542918482016" x2="297.14542918482016" y1="0" y2="30"/><line opacity="0.2" x1="371.8664465631721" x2="371.8664465631721" y1="0" y2="30"/><line opacity="0.2" x1="376.2783909721109" x2="376.2783909721109" y1="0" y2="30"/><line opacity="0.2" x1="232.96833926615457" x2="232.96833926615457" y1="0" y2="30"/><line opacity="0.2" x1="409.2071871448207" x2="409.2071871448207" y1="0" y2="30"/><line opacity="0.2" x1="414.10675667830185" x2="414.10675667830185" y1="0" y2="30"/><line opacity="0.2" x1="409.993085667848" x2="409.993085667848" y1="0" y2="30"/><line opacity="0.2" x1="354.1887723293647" x2="354.1887723293647" y1="0" y2="30"/><line opacity="0.2" x1="295.9508757290886" x2="295.9508757290886" y1="0" y2="30"/><line opacity="0.2" x1="457.75046382970623" x2="457.75046382970623" y1="0" y2="30"/><line opacity="0.2" x1="276.6478281373024" x2="276.6478281373024" y1="0" y2="30"/><line opacity="0.2" x1="482.96615989677804" x2="482.96615989677804" y1="0" y2="30"/><line opacity="0.2" x1="174.44244419016113" x2="174.44244419016113" y1="0" y2="30"/><line opacity="0.2" x1="352.75360100876287" x2="352.75360100876287" y1="0" y2="30"/><line opacity="0.2" x1="351.0181230420612" x2="351.0181230420612" y1="0" y2="30"/><line opacity="0.2" x1="407.46974056309926" x2="407.46974056309926" y1="0" y2="30"/><line opacity="0.2" x1="586.5478327687429" x2="586.5478327687429" y1="0" y2="30"/><line opacity="0.2" x1="426.74227268339587" x2="426.74227268339587" y1="0" y2="30"/><line opacity="0.2" x1="179.14592029782202" x2="179.14592029782202" y1="0" y2="30"/><line opacity="0.2" x1="204.7406627486116" x2="204.7406627486116" y1="0" y2="30"/><line opacity="0.2" x1="316.4701408694103" x2="316.4701408694103" y1="0" y2="30"/><line opacity="0.2" x1="256.8179951137844" x2="256.8179951137844" y1="0" y2="30"/><line opacity="0.2" x1="455.18197500123705" x2="455.18197500123705" y1="0" y2="30"/><line opacity="0.2" x1="379.90890176737236" x2="379.90890176737236" y1="0" y2="30"/><line opacity="0.2" x1="449.441794878407" x2="449.441794878407" y1="0" y2="30"/><line opacity="0.2" x1="385.83097543641816" x2="385.83097543641816" y1="0" y2="30"/><line opacity="0.2" x1="374.20520844843503" x2="374.20520844843503" y1="0" y2="30"/><line opacity="0.2" x1="398.677510253099" x2="398.677510253099" y1="0" y2="30"/><line opacity="0.2" x1="260.9539978953949" x2="260.9539978953949" y1="0" y2="30"/><line opacity="0.2" x1="414.0623303752944" x2="414.0623303752944" y1="0" y2="30"/><line opacity="0.2" x1="273.387002836372" x2="273.387002836372" y1="0" y2="30"/><line opacity="0.2" x1="328.79103071551765" x2="328.79103071551765" y1="0" y2="30"/><line opacity="0.2" x1="536.7651027065996" x2="536.7651027065996" y1="0" y2="30"/><line opacity="0.2" x1="275.8757366439431" x2="275.8757366439431" y1="0" y2="30"/><line opacity="0.2" x1="276.10481564998804" x2="276.10481564998804" y1="0" y2="30"/><line opacity="0.2" x1="456.10513801394774" x2="456.10513801394774" y1="0" y2="30"/><line opacity="0.2" x1="286.88203317829533" x2="286.88203317829533" y1="0" y2="30"/><line opacity="0.2" x1="375.9961095546188" x2="375.9961095546188" y1="0" y2="30"/><line opacity="0.2" x1="297.57968501561464" x2="297.57968501561464" y1="0" y2="30"/><line opacity="0.2" x1="443.36325763609625" x2="443.36325763609625" y1="0" y2="30"/><line opacity="0.2" x1="298.0911400556704" x2="298.0911400556704" y1="0" y2="30"/><line opacity="0.2" x1="406.80904846392986" x2="406.80904846392986" y1="0" y2="30"/><line opacity="0.2" x1="196.42529409688257" x2="196.42529409688257" y1="0" y2="30"/><line opacity="0.2" x1="182.576685618869" x2="182.576685618869" y1="0" y2="30"/><line opacity="0.2" x1="252.868896123359" x2="252.868896123359" y1="0" y2="30"/><line opacity="0.2" x1="180.48804211311463" x2="180.48804211311463" y1="0" y2="30"/><line opacity="0.2" x1="130.63393431805136" x2="130.63393431805136" y1="0" y2="30"/><line opacity="0.2" x1="451.95577537768986" x2="451.95577537768986" y1="0" y2="30"/><line opacity="0.2" x1="415.69045328284454" x2="415.69045328284454" y1="0" y2="30"/><line opacity="0.2" x1="261.552075972613" x2="261.552075972613" y1="0" y2="30"/><line opacity="0.2" x1="196.2113668246991" x2="196.2113668246991" y1="0" y2="30"/><line opacity="0.2" x1="245.61547446557995" x2="245.61547446557995" y1="0" y2="30"/><line opacity="0.2" x1="234.5480314053877" x2="234.5480314053877" y1="0" y2="30"/><line opacity="0.2" x1="449.0622737149442" x2="449.0622737149442" y1="0" y2="30"/><line opacity="0.2" x1="430.25741254896235" x2="430.25741254896235" y1="0" y2="30"/><line opacity="0.2" x1="279.10285509030905" x2="279.10285509030905" y1="0" y2="30"/><line opacity="0.2" x1="254.6521527315445" x2="254.6521527315445" y1="0" y2="30"/><line opacity="0.2" x1="305.37554601923233" x2="305.37554601923233" y1="0" y2="30"/><line opacity="0.2" x1="504.98470831840933" x2="504.98470831840933" y1="0" y2="30"/><line opacity="0.2" x1="279.24267208839046" x2="279.24267208839046" y1="0" y2="30"/><line opacity="0.2" x1="375.0147428331915" x2="375.0147428331915" y1="0" y2="30"/><line opacity="0.2" x1="406.67920445516614" x2="406.67920445516614" y1="0" y2="30"/><line opacity="0.2" x1="383.76680655813954" x2="383.76680655813954" y1="0" y2="30"/><line opacity="0.2" x1="347.31796383193085" x2="347.31796383193085" y1="0" y2="30"/><line opacity="0.2" x1="177.0374730676987" x2="177.0374730676987" y1="0" y2="30"/><line opacity="0.2" x1="352.5819155338797" x2="352.5819155338797" y1="0" y2="30"/><line opacity="0.2" x1="248.4186419166277" x2="248.4186419166277" y1="0" y2="30"/><line opacity="0.2" x1="363.94381369369654" x2="363.94381369369654" y1="0" y2="30"/><line opacity="0.2" x1="373.2898133068041" x2="373.2898133068041" y1="0" y2="30"/><line opacity="0.2" x1="348.5135894298557" x2="348.5135894298557" y1="0" y2="30"/><line opacity="0.2" x1="267.3592379349449" x2="267.3592379349449" y1="0" y2="30"/><line opacity="0.2" x1="405.0457452617624" x2="405.0457452617624" y1="0" y2="30"/><line opacity="0.2" x1="193.96796448833206" x2="193.96796448833206" y1="0" y2="30"/><line opacity="0.2" x1="506.52833632682825" x2="506.52833632682825" y1="0" y2="30"/><line opacity="0.2" x1="239.49000153795114" x2="239.49000153795114" y1="0" y2="30"/><line opacity="0.2" x1="80.23844650436318" x2="80.23844650436318" y1="0" y2="30"/><line opacity="0.2" x1="335.3899756404169" x2="335.3899756404169" y1="0" y2="30"/><line opacity="0.2" x1="416.57505929105986" x2="416.57505929105986" y1="0" y2="30"/><line opacity="0.2" x1="417.53090798964763" x2="417.53090798964763" y1="0" y2="30"/><line opacity="0.2" x1="309.7434307814886" x2="309.7434307814886" y1="0" y2="30"/><line opacity="0.2" x1="435.9077663120838" x2="435.9077663120838" y1="0" y2="30"/><line opacity="0.2" x1="321.89474322410047" x2="321.89474322410047" y1="0" y2="30"/><line opacity="0.2" x1="362.26260885116193" x2="362.26260885116193" y1="0" y2="30"/><line opacity="0.2" x1="272.9386765331067" x2="272.9386765331067" y1="0" y2="30"/><line opacity="0.2" x1="458.5082602137311" x2="458.5082602137311" y1="0" y2="30"/><line opacity="0.2" x1="277.57275680113054" x2="277.57275680113054" y1="0" y2="30"/><line opacity="0.2" x1="346.47386911581225" x2="346.47386911581225" y1="0" y2="30"/><line opacity="0.2" x1="214.13453084091444" x2="214.13453084091444" y1="0" y2="30"/><line opacity="0.2" x1="410.58985313055683" x2="410.58985313055683" y1="0" y2="30"/><line opacity="0.2" x1="417.729937152456" x2="417.729937152456" y1="0" y2="30"/><line opacity="0.2" x1="339.6146748865924" x2="339.6146748865924" y1="0" y2="30"/><line opacity="0.2" x1="374.91260063547816" x2="374.91260063547816" y1="0" y2="30"/><line opacity="0.2" x1="316.3166400061093" x2="316.3166400061093" y1="0" y2="30"/><line opacity="0.2" x1="363.7673766050823" x2="363.7673766050823" y1="0" y2="30"/><line opacity="0.2" x1="420.5199875420746" x2="420.5199875420746" y1="0" y2="30"/><line opacity="0.2" x1="443.6055814634935" x2="443.6055814634935" y1="0" y2="30"/><line opacity="0.2" x1="362.153875972568" x2="362.153875972568" y1="0" y2="30"/><line opacity="0.2" x1="326.98029896563304" x2="326.98029896563304" y1="0" y2="30"/><line opacity="0.2" x1="245.96098851413024" x2="245.96098851413024" y1="0" y2="30"/><line opacity="0.2" x1="293.43445314029725" x2="293.43445314029725" y1="0" y2="30"/><line opacity="0.2" x1="413.32639602556225" x2="413.32639602556225" y1="0" y2="30"/><line opacity="0.2" x1="201.8528729707665" x2="201.8528729707665" y1="0" y2="30"/><line opacity="0.2" x1="493.19112430163335" x2="493.19112430163335" y1="0" y2="30"/><line opacity="0.2" x1="465.8837056046258" x2="465.8837056046258" y1="0" y2="30"/><line opacity="0.2" x1="333.163530841597" x2="333.163530841597" y1="0" y2="30"/><line opacity="0.2" x1="105.08757108931967" x2="105.08757108931967" y1="0" y2="30"/><line opacity="0.2" x1="345.46416749591407" x2="345.46416749591407" y1="0" y2="30"/><line opacity="0.2" x1="303.7479743106726" x2="303.7479743106726" y1="0" y2="30"/><line opacity="0.2" x1="398.545361604997" x2="398.545361604997" y1="0" y2="30"/><line opacity="0.2" x1="293.6270159504247" x2="293.6270159504247" y1="0" y2="30"/><line opacity="0.2" x1="225.06790224245145" x2="225.06790224245145" y1="0" y2="30"/><line opacity="0.2" x1="240.37481767885433" x2="240.37481767885433" y1="0" y2="30"/><line opacity="0.2" x1="273.70174566346674" x2="273.70174566346674" y1="0" y2="30"/><line opacity="0.2" x1="356.2228379012026" x2="356.2228379012026" y1="0" y2="30"/><line opacity="0.2" x1="243.7058981349207" x2="243.7058981349207" y1="0" y2="30"/><line opacity="0.2" x1="380.0764526288852" x2="380.0764526288852" y1="0" y2="30"/><line opacity="0.2" x1="276.7603747589834" x2="276.7603747589834" y1="0" y2="30"/><line opacity="0.2" x1="508.8902680356827" x2="508.8902680356827" y1="0" y2="30"/><line opacity="0.2" x1="339.59049411171094" x2="339.59049411171094" y1="0" y2="30"/><line opacity="0.2" x1="423.0418712948914" x2="423.0418712948914" y1="0" y2="30"/><line opacity="0.2" x1="254.99226437215543" x2="254.99226437215543" y1="0" y2="30"/><line opacity="0.2" x1="550.7087494338435" x2="550.7087494338435" y1="0" y2="30"/><line opacity="0.2" x1="348.7136322072116" x2="348.7136322072116" y1="0" y2="30"/><line opacity="0.2" x1="328.58551882517327" x2="328.58551882517327" y1="0" y2="30"/><line opacity="0.2" x1="213.45375753176955" x2="213.45375753176955" y1="0" y2="30"/><line opacity="0.2" x1="324.58580031608824" x2="324.58580031608824" y1="0" y2="30"/><line opacity="0.2" x1="370.67450991382805" x2="370.67450991382805" y1="0" y2="30"/><line opacity="0.2" x1="384.64537004234376" x2="384.64537004234376" y1="0" y2="30"/><line opacity="0.2" x1="126.60667613784899" x2="126.60667613784899" y1="0" y2="30"/><line opacity="0.2" x1="278.5588673706276" x2="278.5588673706276" y1="0" y2="30"/><line opacity="0.2" x1="377.524887848484" x2="377.524887848484" y1="0" y2="30"/><line opacity="0.2" x1="364.6910698385025" x2="364.6910698385025" y1="0" y2="30"/><line opacity="0.2" x1="449.2736129633488" x2="449.2736129633488" y1="0" y2="30"/><line opacity="0.2" x1="362.99882721906863" x2="362.99882721906863" y1="0" y2="30"/><line opacity="0.2" x1="357.42350665481126" x2="357.42350665481126" y1="0" y2="30"/><line opacity="0.2" x1="435.28176680561916" x2="435.28176680561916" y1="0" y2="30"/><line opacity="0.2" x1="497.91181350099396" x2="497.91181350099396" y1="0" y2="30"/><line opacity="0.2" x1="162.64874480429614" x2="162.64874480429614" y1="0" y2="30"/><line opacity="0.2" x1="368.48377049366763" x2="368.48377049366763" y1="0" y2="30"/><line opacity="0.2" x1="431.7621228112021" x2="431.7621228112021" y1="0" y2="30"/><line opacity="0.2" x1="401.89270994784874" x2="401.89270994784874" y1="0" y2="30"/><line opacity="0.2" x1="446.1770697650664" x2="446.1770697650664" y1="0" y2="30"/><line opacity="0.2" x1="353.16195829578555" x2="353.16195829578555" y1="0" y2="30"/><line opacity="0.2" x1="292.15184397141667" x2="292.15184397141667" y1="0" y2="30"/><line opacity="0.2" x1="275.7733127443741" x2="275.7733127443741" y1="0" y2="30"/><line opacity="0.2" x1="338.59046143913" x2="338.59046143913" y1="0" y2="30"/><line opacity="0.2" x1="323.30073714869366" x2="323.30073714869366" y1="0" y2="30"/><line opacity="0.2" x1="380.2868332445872" x2="380.2868332445872" y1="0" y2="30"/><line opacity="0.2" x1="326.377067913868" x2="326.377067913868" y1="0" y2="30"/><line opacity="0.2" x1="420.7804656759426" x2="420.7804656759426" y1="0" y2="30"/><line opacity="0.2" x1="448.5011153838409" x2="448.5011153838409" y1="0" y2="30"/><line opacity="0.2" x1="378.6256280865891" x2="378.6256280865891" y1="0" y2="30"/><line opacity="0.2" x1="274.5558658126804" x2="274.5558658126804" y1="0" y2="30"/><line opacity="0.2" x1="262.0394664987157" x2="262.0394664987157" y1="0" y2="30"/><line opacity="0.2" x1="230.74665612653877" x2="230.74665612653877" y1="0" y2="30"/><line opacity="0.2" x1="268.90034815593333" x2="268.90034815593333" y1="0" y2="30"/><line opacity="0.2" x1="220.47869706473665" x2="220.47869706473665" y1="0" y2="30"/><line opacity="0.2" x1="362.7910951852509" x2="362.7910951852509" y1="0" y2="30"/><line opacity="0.2" x1="384.81604631168364" x2="384.81604631168364" y1="0" y2="30"/><line opacity="0.2" x1="218.02676972526422" x2="218.02676972526422" y1="0" y2="30"/><line opacity="0.2" x1="326.57127714280284" x2="326.57127714280284" y1="0" y2="30"/><line opacity="0.2" x1="422.3870023240679" x2="422.3870023240679" y1="0" y2="30"/><line opacity="0.2" x1="510.15942564719523" x2="510.15942564719523" y1="0" y2="30"/><line opacity="0.2" x1="401.6015324404191" x2="401.6015324404191" y1="0" y2="30"/><line opacity="0.2" x1="293.2413740424804" x2="293.2413740424804" y1="0" y2="30"/><line opacity="0.2" x1="558.5919273101935" x2="558.5919273101935" y1="0" y2="30"/><line opacity="0.2" x1="384.4033741808177" x2="384.4033741808177" y1="0" y2="30"/><line opacity="0.2" x1="496.46451721608145" x2="496.46451721608145" y1="0" y2="30"/><line opacity="0.2" x1="264.99197566518075" x2="264.99197566518075" y1="0" y2="30"/><line opacity="0.2" x1="316.63174472074155" x2="316.63174472074155" y1="0" y2="30"/><line opacity="0.2" x1="286.9662733734077" x2="286.9662733734077" y1="0" y2="30"/><line opacity="0.2" x1="395.8774575277566" x2="395.8774575277566" y1="0" y2="30"/><line opacity="0.2" x1="535.3601519401708" x2="535.3601519401708" y1="0" y2="30"/><line opacity="0.2" x1="353.7535750426014" x2="353.7535750426014" y1="0" y2="30"/><line opacity="0.2" x1="322.3788821647253" x2="322.3788821647253" y1="0" y2="30"/><line opacity="0.2" x1="289.0364940779927" x2="289.0364940779927" y1="0" y2="30"/><line opacity="0.2" x1="282.0334819765935" x2="282.0334819765935" y1="0" y2="30"/><line opacity="0.2" x1="440.7111300928602" x2="440.7111300928602" y1="0" y2="30"/><line opacity="0.2" x1="360.7242093090853" x2="360.7242093090853" y1="0" y2="30"/><line opacity="0.2" x1="347.96438653954084" x2="347.96438653954084" y1="0" y2="30"/><line opacity="0.2" x1="212.95842381647816" x2="212.95842381647816" y1="0" y2="30"/><line opacity="0.2" x1="374.2964012804276" x2="374.2964012804276" y1="0" y2="30"/><line opacity="0.2" x1="207.89915673178402" x2="207.89915673178402" y1="0" y2="30"/><line opacity="0.2" x1="244.34313606889245" x2="244.34313606889245" y1="0" y2="30"/><line opacity="0.2" x1="378.5785879033248" x2="378.5785879033248" y1="0" y2="30"/><line opacity="0.2" x1="255.4894973531226" x2="255.4894973531226" y1="0" y2="30"/><line opacity="0.2" x1="379.13783132364335" x2="379.13783132364335" y1="0" y2="30"/><line opacity="0.2" x1="152.70433623197917" x2="152.70433623197917" y1="0" y2="30"/><line opacity="0.2" x1="422.45535508716983" x2="422.45535508716983" y1="0" y2="30"/><line opacity="0.2" x1="361.0393765451786" x2="361.0393765451786" y1="0" y2="30"/><line opacity="0.2" x1="459.6079403661867" x2="459.6079403661867" y1="0" y2="30"/><line opacity="0.2" x1="377.6409536137306" x2="377.6409536137306" y1="0" y2="30"/><line opacity="0.2" x1="509.3617220901724" x2="509.3617220901724" y1="0" y2="30"/><line opacity="0.2" x1="221.69320930072718" x2="221.69320930072718" y1="0" y2="30"/><line opacity="0.2" x1="364.9278638733655" x2="364.9278638733655" y1="0" y2="30"/><line opacity="0.2" x1="289.09219328762117" x2="289.09219328762117" y1="0" y2="30"/><line opacity="0.2" x1="492.1727702254209" x2="492.1727702254209" y1="0" y2="30"/><line opacity="0.2" x1="414.05401405543176" x2="414.05401405543176" y1="0" y2="30"/><line opacity="0.2" x1="364.59346930760955" x2="364.59346930760955" y1="0" y2="30"/><line opacity="0.2" x1="193.99315726207277" x2="193.99315726207277" y1="0" y2="30"/><line opacity="0.2" x1="420.8191299587491" x2="420.8191299587491" y1="0" y2="30"/><line opacity="0.2" x1="336.51699043836334" x2="336.51699043836334" y1="0" y2="30"/><line opacity="0.2" x1="289.90622587744673" x2="289.90622587744673" y1="0" y2="30"/><line opacity="0.2" x1="301.23906817294005" x2="301.23906817294005" y1="0" y2="30"/><line opacity="0.2" x1="203.41355089039806" x2="203.41355089039806" y1="0" y2="30"/><line opacity="0.2" x1="166.62173054001434" x2="166.62173054001434" y1="0" y2="30"/><line opacity="0.2" x1="505.3535280702848" x2="505.3535280702848" y1="0" y2="30"/><line opacity="0.2" x1="242.8949383451295" x2="242.8949383451295" y1="0" y2="30"/><line opacity="0.2" x1="385.63800850496284" x2="385.63800850496284" y1="0" y2="30"/><line opacity="0.2" x1="405.9123846200118" x2="405.9123846200118" y1="0" y2="30"/><line opacity="0.2" x1="314.3247809919333" x2="314.3247809919333" y1="0" y2="30"/><line opacity="0.2" x1="413.394074201186" x2="413.394074201186" y1="0" y2="30"/><line opacity="0.2" x1="339.75155795756535" x2="339.75155795756535" y1="0" y2="30"/><line opacity="0.2" x1="398.4181304172061" x2="398.4181304172061" y1="0" y2="30"/><line opacity="0.2" x1="384.72199286062363" x2="384.72199286062363" y1="0" y2="30"/><line opacity="0.2" x1="370.3527146125801" x2="370.3527146125801" y1="0" y2="30"/><line opacity="0.2" x1="459.94413781978545" x2="459.94413781978545" y1="0" y2="30"/><line opacity="0.2" x1="489.02989226618115" x2="489.02989226618115" y1="0" y2="30"/><line opacity="0.2" x1="301.8220264711904" x2="301.8220264711904" y1="0" y2="30"/><line opacity="0.2" x1="478.668610579618" x2="478.668610579618" y1="0" y2="30"/><line opacity="0.2" x1="267.9923087135529" x2="267.9923087135529" y1="0" y2="30"/><line opacity="0.2" x1="306.43125084817433" x2="306.43125084817433" y1="0" y2="30"/><line opacity="0.2" x1="392.9301703684411" x2="392.9301703684411" y1="0" y2="30"/><line opacity="0.2" x1="395.72322623933803" x2="395.72322623933803" y1="0" y2="30"/><line opacity="0.2" x1="313.3327602258131" x2="313.3327602258131" y1="0" y2="30"/><line opacity="0.2" x1="330.261996329175" x2="330.261996329175" y1="0" y2="30"/><line opacity="0.2" x1="362.1104080393457" x2="362.1104080393457" y1="0" y2="30"/><line opacity="0.2" x1="434.5961403538015" x2="434.5961403538015" y1="0" y2="30"/><line opacity="0.2" x1="228.03298012520506" x2="228.03298012520506" y1="0" y2="30"/><line opacity="0.2" x1="410.0096162719406" x2="410.0096162719406" y1="0" y2="30"/><line opacity="0.2" x1="285.6345753187558" x2="285.6345753187558" y1="0" y2="30"/><line opacity="0.2" x1="416.90376484344546" x2="416.90376484344546" y1="0" y2="30"/><line opacity="0.2" x1="573.624427763818" x2="573.624427763818" y1="0" y2="30"/><line opacity="0.2" x1="431.3255107204112" x2="431.3255107204112" y1="0" y2="30"/><line opacity="0.2" x1="336.0460099271645" x2="336.0460099271645" y1="0" y2="30"/><line opacity="0.2" x1="497.31614403751433" x2="497.31614403751433" y1="0" y2="30"/><line opacity="0.2" x1="159.5650953421041" x2="159.5650953421041" y1="0" y2="30"/><line opacity="0.2" x1="318.7073451224411" x2="318.7073451224411" y1="0" y2="30"/><line opacity="0.2" x1="505.78009791391855" x2="505.78009791391855" y1="0" y2="30"/><line opacity="0.2" x1="454.71259715837937" x2="454.71259715837937" y1="0" y2="30"/><line opacity="0.2" x1="461.31541982776844" x2="461.31541982776844" y1="0" y2="30"/><line opacity="0.2" x1="270.8494015846674" x2="270.8494015846674" y1="0" y2="30"/><line opacity="0.2" x1="381.64965259560836" x2="381.64965259560836" y1="0" y2="30"/><line opacity="0.2" x1="276.79634445618575" x2="276.79634445618575" y1="0" y2="30"/><line opacity="0.2" x1="425.65491908395126" x2="425.65491908395126" y1="0" y2="30"/><line opacity="0.2" x1="305.50854440126597" x2="305.50854440126597" y1="0" y2="30"/><line opacity="0.2" x1="379.118092383885" x2="379.118092383885" y1="0" y2="30"/><line opacity="0.2" x1="351.7603954226116" x2="351.7603954226116" y1="0" y2="30"/><line opacity="0.2" x1="313.38543601316184" x2="313.38543601316184" y1="0" y2="30"/><line opacity="0.2" x1="345.6779035172385" x2="345.6779035172385" y1="0" y2="30"/><line opacity="0.2" x1="451.77945694482236" x2="451.77945694482236" y1="0" y2="30"/><line opacity="0.2" x1="427.13855497381456" x2="427.13855497381456" y1="0" y2="30"/><line opacity="0.2" x1="394.77437031221865" x2="394.77437031221865" y1="0" y2="30"/><line opacity="0.2" x1="300.8782525036262" x2="300.8782525036262" y1="0" y2="30"/><line opacity="0.2" x1="180.44162459446883" x2="180.44162459446883" y1="0" y2="30"/><line opacity="0.2" x1="296.0002904232161" x2="296.0002904232161" y1="0" y2="30"/><line opacity="0.2" x1="354.2595616647234" x2="354.2595616647234" y1="0" y2="30"/><line opacity="0.2" x1="473.8834075228383" x2="473.8834075228383" y1="0" y2="30"/><line opacity="0.2" x1="361.43490661065624" x2="361.43490661065624" y1="0" y2="30"/><line opacity="0.2" x1="439.6307192351346" x2="439.6307192351346" y1="0" y2="30"/><line opacity="0.2" x1="85.75643577298312" x2="85.75643577298312" y1="0" y2="30"/><line opacity="0.2" x1="409.64006416505237" x2="409.64006416505237" y1="0" y2="30"/><line opacity="0.2" x1="275.92741632647505" x2="275.92741632647505" y1="0" y2="30"/><line opacity="0.2" x1="440.92042285660347" x2="440.92042285660347" y1="0" y2="30"/><line opacity="0.2" x1="300.9600896711751" x2="300.9600896711751" y1="0" y2="30"/><line opacity="0.2" x1="372.2187270971958" x2="372.2187270971958" y1="0" y2="30"/><line opacity="0.2" x1="385.527973331835" x2="385.527973331835" y1="0" y2="30"/><line opacity="0.2" x1="258.4230126234289" x2="258.4230126234289" y1="0" y2="30"/><line opacity="0.2" x1="322.29193745255435" x2="322.29193745255435" y1="0" y2="30"/><line opacity="0.2" x1="286.82423635182823" x2="286.82423635182823" y1="0" y2="30"/><line opacity="0.2" x1="437.7391501763913" x2="437.7391501763913" y1="0" y2="30"/><line opacity="0.2" x1="402.8044138726536" x2="402.8044138726536" y1="0" y2="30"/><line opacity="0.2" x1="511.6490076608798" x2="511.6490076608798" y1="0" y2="30"/><line opacity="0.2" x1="299.6392097043801" x2="299.6392097043801" y1="0" y2="30"/><line opacity="0.2" x1="425.2041801762553" x2="425.2041801762553" y1="0" y2="30"/><line opacity="0.2" x1="387.3897300558115" x2="387.3897300558115" y1="0" y2="30"/><line opacity="0.2" x1="336.08113267568916" x2="336.08113267568916" y1="0" y2="30"/><line opacity="0.2" x1="408.89819044746986" x2="408.89819044746986" y1="0" y2="30"/><line opacity="0.2" x1="244.0938512424265" x2="244.0938512424265" y1="0" y2="30"/><line opacity="0.2" x1="305.3154987226662" x2="305.3154987226662" y1="0" y2="30"/><line opacity="0.2" x1="324.5432487711185" x2="324.5432487711185" y1="0" y2="30"/><line opacity="0.2" x1="202.2682470497602" x2="202.2682470497602" y1="0" y2="30"/><line opacity="0.2" x1="308.9666336506435" x2="308.9666336506435" y1="0" y2="30"/><line opacity="0.2" x1="506.6973949441799" x2="506.6973949441799" y1="0" y2="30"/><line opacity="0.2" x1="179.18201572590436" x2="179.18201572590436" y1="0" y2="30"/><line opacity="0.2" x1="338.8070362044516" x2="338.8070362044516" y1="0" y2="30"/><line opacity="0.2" x1="331.11996614957155" x2="331.11996614957155" y1="0" y2="30"/><line opacity="0.2" x1="368.561299365383" x2="368.561299365383" y1="0" y2="30"/><line opacity="0.2" x1="311.0789068893401" x2="311.0789068893401" y1="0" y2="30"/><line opacity="0.2" x1="146.40936445911586" x2="146.40936445911586" y1="0" y2="30"/><line opacity="0.2" x1="271.7804087624543" x2="271.7804087624543" y1="0" y2="30"/><line opacity="0.2" x1="462.20063595001335" x2="462.20063595001335" y1="0" y2="30"/><line opacity="0.2" x1="320.6683903629847" x2="320.6683903629847" y1="0" y2="30"/><line opacity="0.2" x1="337.5481446090057" x2="337.5481446090057" y1="0" y2="30"/><line opacity="0.2" x1="166.7444047433495" x2="166.7444047433495" y1="0" y2="30"/><line opacity="0.2" x1="554.9265762241982" x2="554.9265762241982" y1="0" y2="30"/><line opacity="0.2" x1="267.1344790628061" x2="267.1344790628061" y1="0" y2="30"/><line opacity="0.2" x1="282.94365796413774" x2="282.94365796413774" y1="0" y2="30"/><line opacity="0.2" x1="436.40725339296796" x2="436.40725339296796" y1="0" y2="30"/><line opacity="0.2" x1="301.4234669211733" x2="301.4234669211733" y1="0" y2="30"/><line opacity="0.2" x1="335.3884709328843" x2="335.3884709328843" y1="0" y2="30"/><line opacity="0.2" x1="281.4124532169988" x2="281.4124532169988" y1="0" y2="30"/><line opacity="0.2" x1="362.1220066623081" x2="362.1220066623081" y1="0" y2="30"/><line opacity="0.2" x1="338.3527693200516" x2="338.3527693200516" y1="0" y2="30"/><line opacity="0.2" x1="263.66719928668437" x2="263.66719928668437" y1="0" y2="30"/><line opacity="0.2" x1="410.7610698257624" x2="410.7610698257624" y1="0" y2="30"/><line opacity="0.2" x1="399.10902198992744" x2="399.10902198992744" y1="0" y2="30"/><line opacity="0.2" x1="347.6533543514897" x2="347.6533543514897" y1="0" y2="30"/><line opacity="0.2" x1="404.4847320454897" x2="404.4847320454897" y1="0" y2="30"/><line opacity="0.2" x1="463.9553596971089" x2="463.9553596971089" y1="0" y2="30"/><line opacity="0.2" x1="452.1551165551281" x2="452.1551165551281" y1="0" y2="30"/><line opacity="0.2" x1="307.41637225163066" x2="307.41637225163066" y1="0" y2="30"/><line opacity="0.2" x1="225.5460752076772" x2="225.5460752076772" y1="0" y2="30"/><line opacity="0.2" x1="294.21687847562856" x2="294.21687847562856" y1="0" y2="30"/><line opacity="0.2" x1="300.6285425073655" x2="300.6285425073655" y1="0" y2="30"/><line opacity="0.2" x1="275.1965715821234" x2="275.1965715821234" y1="0" y2="30"/><line opacity="0.2" x1="195.91605469207826" x2="195.91605469207826" y1="0" y2="30"/><line opacity="0.2" x1="403.49585158683516" x2="403.49585158683516" y1="0" y2="30"/><line opacity="0.2" x1="452.858176410313" x2="452.858176410313" y1="0" y2="30"/><line opacity="0.2" x1="398.3782648782301" x2="398.3782648782301" y1="0" y2="30"/><line opacity="0.2" x1="308.7731210626926" x2="308.7731210626926" y1="0" y2="30"/><line opacity="0.2" x1="377.8293619718601" x2="377.8293619718601" y1="0" y2="30"/><line opacity="0.2" x1="298.3062871530942" x2="298.3062871530942" y1="0" y2="30"/><line opacity="0.2" x1="482.5278721707152" x2="482.5278721707152" y1="0" y2="30"/><line opacity="0.2" x1="356.6851102900407" x2="356.6851102900407" y1="0" y2="30"/><line opacity="0.2" x1="429.9578908501538" x2="429.9578908501538" y1="0" y2="30"/><line opacity="0.2" x1="406.016560732982" x2="406.016560732982" y1="0" y2="30"/><line opacity="0.2" x1="179.25411915115745" x2="179.25411915115745" y1="0" y2="30"/><line opacity="0.2" x1="285.64556145285485" x2="285.64556145285485" y1="0" y2="30"/><line opacity="0.2" x1="441.0671065145585" x2="441.0671065145585" y1="0" y2="30"/><line opacity="0.2" x1="392.1414477617907" x2="392.1414477617907" y1="0" y2="30"/><line opacity="0.2" x1="240.38547958189088" x2="240.38547958189088" y1="0" y2="30"/><line opacity="0.2" x1="340.08663059080715" x2="340.08663059080715" y1="0" y2="30"/><line opacity="0.2" x1="385.6161686330979" x2="385.6161686330979" y1="0" y2="30"/><line opacity="0.2" x1="463.3463116204107" x2="463.3463116204107" y1="0" y2="30"/><line opacity="0.2" x1="503.6409115514655" x2="503.6409115514655" y1="0" y2="30"/><line opacity="0.2" x1="441.2007529893197" x2="441.2007529893197" y1="0" y2="30"/><line opacity="0.2" x1="67.79949369476002" x2="67.79949369476002" y1="0" y2="30"/><line opacity="0.2" x1="487.3008730091182" x2="487.3008730091182" y1="0" y2="30"/><line opacity="0.2" x1="161.92407356201778" x2="161.92407356201778" y1="0" y2="30"/><line opacity="0.2" x1="325.803739669452" x2="325.803739669452" y1="0" y2="30"/><line opacity="0.2" x1="220.4393105086059" x2="220.4393105086059" y1="0" y2="30"/><line opacity="0.2" x1="541.0878466062717" x2="541.0878466062717" y1="0" y2="30"/><line opacity="0.2" x1="347.5291765344648" x2="347.5291765344648" y1="0" y2="30"/><line opacity="0.2" x1="281.5042414266495" x2="281.5042414266495" y1="0" y2="30"/><line opacity="0.2" x1="259.087533605306" x2="259.087533605306" y1="0" y2="30"/><line opacity="0.2" x1="461.2278330175161" x2="461.2278330175161" y1="0" y2="30"/><line opacity="0.2" x1="259.5804107445505" x2="259.5804107445505" y1="0" y2="30"/><line opacity="0.2" x1="345.4334018086296" x2="345.4334018086296" y1="0" y2="30"/><line opacity="0.2" x1="394.48884910756357" x2="394.48884910756357" y1="0" y2="30"/><line opacity="0.2" x1="485.751329286076" x2="485.751329286076" y1="0" y2="30"/><line opacity="0.2" x1="324.9985325551966" x2="324.9985325551966" y1="0" y2="30"/><line opacity="0.2" x1="232.97850134486225" x2="232.97850134486225" y1="0" y2="30"/><line opacity="0.2" x1="454.53752712133206" x2="454.53752712133206" y1="0" y2="30"/><line opacity="0.2" x1="549.2234209625753" x2="549.2234209625753" y1="0" y2="30"/><line opacity="0.2" x1="207.37901340812638" x2="207.37901340812638" y1="0" y2="30"/><line opacity="0.2" x1="352.060468860175" x2="352.060468860175" y1="0" y2="30"/><line opacity="0.2" x1="417.1520042569052" x2="417.1520042569052" y1="0" y2="30"/><line opacity="0.2" x1="279.36075288122305" x2="279.36075288122305" y1="0" y2="30"/><line opacity="0.2" x1="432.3240491156058" x2="432.3240491156058" y1="0" y2="30"/><line opacity="0.2" x1="194.55805486823056" x2="194.55805486823056" y1="0" y2="30"/><line opacity="0.2" x1="427.2220868227785" x2="427.2220868227785" y1="0" y2="30"/><line opacity="0.2" x1="380.59814605990107" x2="380.59814605990107" y1="0" y2="30"/><line opacity="0.2" x1="381.2394768783753" x2="381.2394768783753" y1="0" y2="30"/><line opacity="0.2" x1="310.16997836503583" x2="310.16997836503583" y1="0" y2="30"/><line opacity="0.2" x1="288.4621795205038" x2="288.4621795205038" y1="0" y2="30"/><line opacity="0.2" x1="333.9954160210841" x2="333.9954160210841" y1="0" y2="30"/><line opacity="0.2" x1="312.7903899188271" x2="312.7903899188271" y1="0" y2="30"/><line opacity="0.2" x1="457.13945411958446" x2="457.13945411958446" y1="0" y2="30"/><line opacity="0.2" x1="492.26550955108536" x2="492.26550955108536" y1="0" y2="30"/><line opacity="0.2" x1="455.4491259580673" x2="455.4491259580673" y1="0" y2="30"/><line opacity="0.2" x1="398.4213145319237" x2="398.4213145319237" y1="0" y2="30"/><line opacity="0.2" x1="357.06110566417345" x2="357.06110566417345" y1="0" y2="30"/><line opacity="0.2" x1="294.4032799256718" x2="294.4032799256718" y1="0" y2="30"/><line opacity="0.2" x1="368.1594512178479" x2="368.1594512178479" y1="0" y2="30"/><line opacity="0.2" x1="458.39278989681" x2="458.39278989681" y1="0" y2="30"/><line opacity="0.2" x1="127.29045882789457" x2="127.29045882789457" y1="0" y2="30"/><line opacity="0.2" x1="264.3831805004451" x2="264.3831805004451" y1="0" y2="30"/><line opacity="0.2" x1="381.96763323528506" x2="381.96763323528506" y1="0" y2="30"/><line opacity="0.2" x1="374.8003421115602" x2="374.8003421115602" y1="0" y2="30"/><line opacity="0.2" x1="250.44188421432412" x2="250.44188421432412" y1="0" y2="30"/><line opacity="0.2" x1="230.99309523855965" x2="230.99309523855965" y1="0" y2="30"/><line opacity="0.2" x1="363.19566503001926" x2="363.19566503001926" y1="0" y2="30"/><line opacity="0.2" x1="561.4027940419346" x2="561.4027940419346" y1="0" y2="30"/><line opacity="0.2" x1="226.23991313178777" x2="226.23991313178777" y1="0" y2="30"/><line opacity="0.2" x1="410.6329730345102" x2="410.6329730345102" y1="0" y2="30"/><line opacity="0.2" x1="549.0826657294904" x2="549.0826657294904" y1="0" y2="30"/><line opacity="0.2" x1="87.26781508567075" x2="87.26781508567075" y1="0" y2="30"/><line opacity="0.2" x1="420.5587338514743" x2="420.5587338514743" y1="0" y2="30"/><line opacity="0.2" x1="439.0290103829107" x2="439.0290103829107" y1="0" y2="30"/><line opacity="0.2" x1="366.94883762109055" x2="366.94883762109055" y1="0" y2="30"/><line opacity="0.2" x1="359.12894528162013" x2="359.12894528162013" y1="0" y2="30"/><line opacity="0.2" x1="121.42014205240865" x2="121.42014205240865" y1="0" y2="30"/><line opacity="0.2" x1="422.4362037435835" x2="422.4362037435835" y1="0" y2="30"/><line opacity="0.2" x1="352.2058513972722" x2="352.2058513972722" y1="0" y2="30"/><line opacity="0.2" x1="278.6696981007962" x2="278.6696981007962" y1="0" y2="30"/><line opacity="0.2" x1="182.22964471948046" x2="182.22964471948046" y1="0" y2="30"/><line opacity="0.2" x1="491.36369880148953" x2="491.36369880148953" y1="0" y2="30"/><line opacity="0.2" x1="264.98324659768593" x2="264.98324659768593" y1="0" y2="30"/><line opacity="0.2" x1="394.02503698243316" x2="394.02503698243316" y1="0" y2="30"/><line opacity="0.2" x1="331.13509713774044" x2="331.13509713774044" y1="0" y2="30"/><line opacity="0.2" x1="228.8831999264378" x2="228.8831999264378" y1="0" y2="30"/><line opacity="0.2" x1="435.45529206828047" x2="435.45529206828047" y1="0" y2="30"/><line opacity="0.2" x1="315.3693795935922" x2="315.3693795935922" y1="0" y2="30"/><line opacity="0.2" x1="416.3264510897318" x2="416.3264510897318" y1="0" y2="30"/><line opacity="0.2" x1="434.07912412957376" x2="434.07912412957376" y1="0" y2="30"/><line opacity="0.2" x1="399.08455543442483" x2="399.08455543442483" y1="0" y2="30"/><line opacity="0.2" x1="266.3406214926473" x2="266.3406214926473" y1="0" y2="30"/><line opacity="0.2" x1="332.37381874920646" x2="332.37381874920646" y1="0" y2="30"/><line opacity="0.2" x1="173.41532822049035" x2="173.41532822049035" y1="0" y2="30"/><line opacity="0.2" x1="400.18400169114403" x2="400.18400169114403" y1="0" y2="30"/><line opacity="0.2" x1="442.1330924466243" x2="442.1330924466243" y1="0" y2="30"/><line opacity="0.2" x1="455.6785868128067" x2="455.6785868128067" y1="0" y2="30"/><line opacity="0.2" x1="363.92385104900393" x2="363.92385104900393" y1="0" y2="30"/><line opacity="0.2" x1="463.89950711209667" x2="463.89950711209667" y1="0" y2="30"/><line opacity="0.2" x1="353.39579208691066" x2="353.39579208691066" y1="0" y2="30"/><line opacity="0.2" x1="358.6218716380492" x2="358.6218716380492" y1="0" y2="30"/><line opacity="0.2" x1="349.3231568536591" x2="349.3231568536591" y1="0" y2="30"/><line opacity="0.2" x1="251.2557325885452" x2="251.2557325885452" y1="0" y2="30"/><line opacity="0.2" x1="235.2412036689795" x2="235.2412036689795" y1="0" y2="30"/><line opacity="0.2" x1="268.04227931626417" x2="268.04227931626417" y1="0" y2="30"/><line opacity="0.2" x1="257.92649842516556" x2="257.92649842516556" y1="0" y2="30"/><line opacity="0.2" x1="393.6097838197263" x2="393.6097838197263" y1="0" y2="30"/><line opacity="0.2" x1="508.60334006231324" x2="508.60334006231324" y1="0" y2="30"/><line opacity="0.2" x1="454.18238352731885" x2="454.18238352731885" y1="0" y2="30"/><line opacity="0.2" x1="413.2430260296058" x2="413.2430260296058" y1="0" y2="30"/><line opacity="0.2" x1="202.91519601707716" x2="202.91519601707716" y1="0" y2="30"/><line opacity="0.2" x1="408.0237565228985" x2="408.0237565228985" y1="0" y2="30"/><line opacity="0.2" x1="305.2565241668561" x2="305.2565241668561" y1="0" y2="30"/><line opacity="0.2" x1="334.12262271911237" x2="334.12262271911237" y1="0" y2="30"/><line opacity="0.2" x1="262.81658239654223" x2="262.81658239654223" y1="0" y2="30"/><line opacity="0.2" x1="171.7237687391429" x2="171.7237687391429" y1="0" y2="30"/><line opacity="0.2" x1="228.83030038732326" x2="228.83030038732326" y1="0" y2="30"/><line opacity="0.2" x1="476.6741071533606" x2="476.6741071533606" y1="0" y2="30"/><line opacity="0.2" x1="239.33767404027384" x2="239.33767404027384" y1="0" y2="30"/><line opacity="0.2" x1="395.24671834462583" x2="395.24671834462583" y1="0" y2="30"/><line opacity="0.2" x1="401.60467408025164" x2="401.60467408025164" y1="0" y2="30"/><line opacity="0.2" x1="217.60631028655592" x2="217.60631028655592" y1="0" y2="30"/><line opacity="0.2" x1="450.3183113845799" x2="450.3183113845799" y1="0" y2="30"/><line opacity="0.2" x1="499.26119957794356" x2="499.26119957794356" y1="0" y2="30"/><line opacity="0.2" x1="356.2978812955039" x2="356.2978812955039" y1="0" y2="30"/><line opacity="0.2" x1="278.4900397082387" x2="278.4900397082387" y1="0" y2="30"/><line opacity="0.2" x1="415.2370860741314" x2="415.2370860741314" y1="0" y2="30"/><line opacity="0.2" x1="367.5214303529833" x2="367.5214303529833" y1="0" y2="30"/><line opacity="0.2" x1="481.7285474474205" x2="481.7285474474205" y1="0" y2="30"/><line opacity="0.2" x1="280.46295165770874" x2="280.46295165770874" y1="0" y2="30"/><line opacity="0.2" x1="245.237618762615" x2="245.237618762615" y1="0" y2="30"/><line opacity="0.2" x1="427.89683668414676" x2="427.89683668414676" y1="0" y2="30"/><line opacity="0.2" x1="401.07036015822655" x2="401.07036015822655" y1="0" y2="30"/><line opacity="0.2" x1="368.4935127750182" x2="368.4935127750182" y1="0" y2="30"/><line opacity="0.2" x1="392.48464211307856" x2="392.48464211307856" y1="0" y2="30"/><line opacity="0.2" x1="620" x2="620" y1="0" y2="30"/><line opacity="0.2" x1="185.74781478314048" x2="185.74781478314048" y1="0" y2="30"/><line opacity="0.2" x1="327.75017428018896" x2="327.75017428018896" y1="0" y2="30"/><line opacity="0.2" x1="267.07817591382025" x2="267.07817591382025" y1="0" y2="30"/><line opacity="0.2" x1="382.2031278247509" x2="382.2031278247509" y1="0" y2="30"/><line opacity="0.2" x1="431.7598430659339" x2="431.7598430659339" y1="0" y2="30"/><line opacity="0.2" x1="476.2195205200422" x2="476.2195205200422" y1="0" y2="30"/><line opacity="0.2" x1="325.1649189963499" x2="325.1649189963499" y1="0" y2="30"/><line opacity="0.2" x1="394.7438409012485" x2="394.7438409012485" y1="0" y2="30"/><line opacity="0.2" x1="362.0606703011195" x2="362.0606703011195" y1="0" y2="30"/><line opacity="0.2" x1="457.11020436397774" x2="457.11020436397774" y1="0" y2="30"/><line opacity="0.2" x1="427.0966753900033" x2="427.0966753900033" y1="0" y2="30"/><line opacity="0.2" x1="340.86554182068693" x2="340.86554182068693" y1="0" y2="30"/><line opacity="0.2" x1="345.8098849257887" x2="345.8098849257887" y1="0" y2="30"/><line opacity="0.2" x1="430.6208094045618" x2="430.6208094045618" y1="0" y2="30"/><line opacity="0.2" x1="422.147236698661" x2="422.147236698661" y1="0" y2="30"/><line opacity="0.2" x1="319.8746445742254" x2="319.8746445742254" y1="0" y2="30"/><line opacity="0.2" x1="266.90539313513034" x2="266.90539313513034" y1="0" y2="30"/><line opacity="0.2" x1="452.7202198876025" x2="452.7202198876025" y1="0" y2="30"/><line opacity="0.2" x1="311.3887823050295" x2="311.3887823050295" y1="0" y2="30"/><line opacity="0.2" x1="413.89925865484486" x2="413.89925865484486" y1="0" y2="30"/><line opacity="0.2" x1="382.7507928611194" x2="382.7507928611194" y1="0" y2="30"/><line opacity="0.2" x1="294.52096510207605" x2="294.52096510207605" y1="0" y2="30"/><line opacity="0.2" x1="565.7137582119162" x2="565.7137582119162" y1="0" y2="30"/><line opacity="0.2" x1="328.3644868571403" x2="328.3644868571403" y1="0" y2="30"/><line opacity="0.2" x1="359.327323226772" x2="359.327323226772" y1="0" y2="30"/><line opacity="0.2" x1="402.5501528733786" x2="402.5501528733786" y1="0" y2="30"/><line opacity="0.2" x1="295.210791904091" x2="295.210791904091" y1="0" y2="30"/><line opacity="0.2" x1="303.10764380997085" x2="303.10764380997085" y1="0" y2="30"/><line opacity="0.2" x1="384.18396851994356" x2="384.18396851994356" y1="0" y2="30"/><line opacity="0.2" x1="329.1144816480422" x2="329.1144816480422" y1="0" y2="30"/><line opacity="0.2" x1="333.49566722792116" x2="333.49566722792116" y1="0" y2="30"/><line opacity="0.2" x1="261.39809224034053" x2="261.39809224034053" y1="0" y2="30"/><line opacity="0.2" x1="332.7115280831194" x2="332.7115280831194" y1="0" y2="30"/><line opacity="0.2" x1="318.7874267052105" x2="318.7874267052105" y1="0" y2="30"/><line opacity="0.2" x1="237.85354661313156" x2="237.85354661313156" y1="0" y2="30"/><line opacity="0.2" x1="190.14569864282097" x2="190.14569864282097" y1="0" y2="30"/><line opacity="0.2" x1="240.94510329779183" x2="240.94510329779183" y1="0" y2="30"/><line opacity="0.2" x1="274.3008874027206" x2="274.3008874027206" y1="0" y2="30"/><line opacity="0.2" x1="327.66610873564525" x2="327.66610873564525" y1="0" y2="30"/><line opacity="0.2" x1="375.6027203967561" x2="375.6027203967561" y1="0" y2="30"/><line opacity="0.2" x1="306.88754580359563" x2="306.88754580359563" y1="0" y2="30"/><line opacity="0.2" x1="407.45896648683913" x2="407.45896648683913" y1="0" y2="30"/><line opacity="0.2" x1="277.3312496648345" x2="277.3312496648345" y1="0" y2="30"/><line opacity="0.2" x1="423.25964743576066" x2="423.25964743576066" y1="0" y2="30"/><line opacity="0.2" x1="317.00760815340607" x2="317.00760815340607" y1="0" y2="30"/><line opacity="0.2" x1="425.30921194017293" x2="425.30921194017293" y1="0" y2="30"/><line opacity="0.2" x1="272.51516740696314" x2="272.51516740696314" y1="0" y2="30"/><line opacity="0.2" x1="304.1947382356542" x2="304.1947382356542" y1="0" y2="30"/><line opacity="0.2" x1="224.60767397897874" x2="224.60767397897874" y1="0" y2="30"/><line opacity="0.2" x1="310.5466879386639" x2="310.5466879386639" y1="0" y2="30"/><line opacity="0.2" x1="546.5050693687738" x2="546.5050693687738" y1="0" y2="30"/><line opacity="0.2" x1="361.70628234039503" x2="361.70628234039503" y1="0" y2="30"/><line opacity="0.2" x1="391.19848681237346" x2="391.19848681237346" y1="0" y2="30"/><line opacity="0.2" x1="301.44869427932537" x2="301.44869427932537" y1="0" y2="30"/><line opacity="0.2" x1="542.2961292199963" x2="542.2961292199963" y1="0" y2="30"/><line opacity="0.2" x1="349.1864665706957" x2="349.1864665706957" y1="0" y2="30"/><line opacity="0.2" x1="346.9757535600126" x2="346.9757535600126" y1="0" y2="30"/><line opacity="0.2" x1="280.8878067286975" x2="280.8878067286975" y1="0" y2="30"/><line opacity="0.2" x1="409.1347726988089" x2="409.1347726988089" y1="0" y2="30"/><line opacity="0.2" x1="391.75096016919184" x2="391.75096016919184" y1="0" y2="30"/><line opacity="0.2" x1="382.98528072106785" x2="382.98528072106785" y1="0" y2="30"/><line opacity="0.2" x1="230.9153472402029" x2="230.9153472402029" y1="0" y2="30"/><line opacity="0.2" x1="526.2646749847004" x2="526.2646749847004" y1="0" y2="30"/><line opacity="0.2" x1="343.3992867282868" x2="343.3992867282868" y1="0" y2="30"/><line opacity="0.2" x1="445.26817534486645" x2="445.26817534486645" y1="0" y2="30"/><line opacity="0.2" x1="412.85005739585625" x2="412.85005739585625" y1="0" y2="30"/><line opacity="0.2" x1="349.20722507171644" x2="349.20722507171644" y1="0" y2="30"/><line opacity="0.2" x1="277.75408177013816" x2="277.75408177013816" y1="0" y2="30"/><line opacity="0.2" x1="556.8505239961194" x2="556.8505239961194" y1="0" y2="30"/><line opacity="0.2" x1="494.4408633906031" x2="494.4408633906031" y1="0" y2="30"/><line opacity="0.2" x1="281.29954677898246" x2="281.29954677898246" y1="0" y2="30"/><line opacity="0.2" x1="268.93096101407104" x2="268.93096101407104" y1="0" y2="30"/><line opacity="0.2" x1="404.02523589224285" x2="404.02523589224285" y1="0" y2="30"/><line opacity="0.2" x1="518.8722367129322" x2="518.8722367129322" y1="0" y2="30"/><line opacity="0.2" x1="485.946824846729" x2="485.946824846729" y1="0" y2="30"/><line opacity="0.2" x1="292.41154384345384" x2="292.41154384345384" y1="0" y2="30"/><line opacity="0.2" x1="322.5341141070163" x2="322.5341141070163" y1="0" y2="30"/><line opacity="0.2" x1="507.7273651057937" x2="507.7273651057937" y1="0" y2="30"/><line opacity="0.2" x1="397.5010822225352" x2="397.5010822225352" y1="0" y2="30"/><line opacity="0.2" x1="251.68899930607253" x2="251.68899930607253" y1="0" y2="30"/><line opacity="0.2" x1="454.0180647928462" x2="454.0180647928462" y1="0" y2="30"/><line opacity="0.2" x1="174.59448433181643" x2="174.59448433181643" y1="0" y2="30"/><line opacity="0.2" x1="363.8171657602355" x2="363.8171657602355" y1="0" y2="30"/><line opacity="0.2" x1="498.2249000295356" x2="498.2249000295356" y1="0" y2="30"/><line opacity="0.2" x1="479.96982490688765" x2="479.96982490688765" y1="0" y2="30"/><line opacity="0.2" x1="546.2011710902054" x2="546.2011710902054" y1="0" y2="30"/><line opacity="0.2" x1="375.15940346868786" x2="375.15940346868786" y1="0" y2="30"/><line opacity="0.2" x1="447.9112266919406" x2="447.9112266919406" y1="0" y2="30"/><line opacity="0.2" x1="352.1602828757866" x2="352.1602828757866" y1="0" y2="30"/><line opacity="0.2" x1="324.08749585530506" x2="324.08749585530506" y1="0" y2="30"/><line opacity="0.2" x1="389.72578284929114" x2="389.72578284929114" y1="0" y2="30"/><line opacity="0.2" x1="210.6896624049695" x2="210.6896624049695" y1="0" y2="30"/><line opacity="0.2" x1="256.7561935399124" x2="256.7561935399124" y1="0" y2="30"/><line opacity="0.2" x1="315.5563251393126" x2="315.5563251393126" y1="0" y2="30"/><line opacity="0.2" x1="284.0740966990607" x2="284.0740966990607" y1="0" y2="30"/><line opacity="0.2" x1="400.7336046266616" x2="400.7336046266616" y1="0" y2="30"/><line opacity="0.2" x1="227.0223384120493" x2="227.0223384120493" y1="0" y2="30"/><line opacity="0.2" x1="228.67390204637243" x2="228.67390204637243" y1="0" y2="30"/><line opacity="0.2" x1="313.82997074823544" x2="313.82997074823544" y1="0" y2="30"/><line opacity="0.2" x1="526.5902075364705" x2="526.5902075364705" y1="0" y2="30"/><line opacity="0.2" x1="452.6688704236143" x2="452.6688704236143" y1="0" y2="30"/><line opacity="0.2" x1="353.0004767362601" x2="353.0004767362601" y1="0" y2="30"/><line opacity="0.2" x1="450.3021314625532" x2="450.3021314625532" y1="0" y2="30"/><line opacity="0.2" x1="323.6776514540508" x2="323.6776514540508" y1="0" y2="30"/><line opacity="0.2" x1="249.18886892595623" x2="249.18886892595623" y1="0" y2="30"/><line opacity="0.2" x1="440.74711855620177" x2="440.74711855620177" y1="0" y2="30"/><line opacity="0.2" x1="243.3411885081225" x2="243.3411885081225" y1="0" y2="30"/><line opacity="0.2" x1="182.0466473330351" x2="182.0466473330351" y1="0" y2="30"/><line opacity="0.2" x1="126.41865526926941" x2="126.41865526926941" y1="0" y2="30"/><line opacity="0.2" x1="387.6964418506809" x2="387.6964418506809" y1="0" y2="30"/><line opacity="0.2" x1="269.04523026528324" x2="269.04523026528324" y1="0" y2="30"/><line opacity="0.2" x1="368.57763711986325" x2="368.57763711986325" y1="0" y2="30"/><line opacity="0.2" x1="343.18767503933327" x2="343.18767503933327" y1="0" y2="30"/><line opacity="0.2" x1="344.25518642684824" x2="344.25518642684824" y1="0" y2="30"/><line opacity="0.2" x1="448.62683431514097" x2="448.62683431514097" y1="0" y2="30"/><line opacity="0.2" x1="405.20619839429435" x2="405.20619839429435" y1="0" y2="30"/><line opacity="0.2" x1="422.1843641141944" x2="422.1843641141944" y1="0" y2="30"/><line opacity="0.2" x1="358.95122698208576" x2="358.95122698208576" y1="0" y2="30"/><line opacity="0.2" x1="495.1204945768115" x2="495.1204945768115" y1="0" y2="30"/><line opacity="0.2" x1="428.25532534273026" x2="428.25532534273026" y1="0" y2="30"/><line opacity="0.2" x1="387.7111513790551" x2="387.7111513790551" y1="0" y2="30"/><line opacity="0.2" x1="469.05660281615724" x2="469.05660281615724" y1="0" y2="30"/><line opacity="0.2" x1="392.2679047736616" x2="392.2679047736616" y1="0" y2="30"/><line opacity="0.2" x1="20" x2="20" y1="0" y2="30"/><line opacity="0.2" x1="270.31241448116486" x2="270.31241448116486" y1="0" y2="30"/><line opacity="0.2" x1="207.73457618633523" x2="207.73457618633523" y1="0" y2="30"/><line opacity="0.2" x1="356.7505681261129" x2="356.7505681261129" y1="0" y2="30"/><line opacity="0.2" x1="332.17859268611716" x2="332.17859268611716" y1="0" y2="30"/><line opacity="0.2" x1="394.0299055304519" x2="394.0299055304519" y1="0" y2="30"/><line opacity="0.2" x1="326.4516743314669" x2="326.4516743314669" y1="0" y2="30"/><line opacity="0.2" x1="383.54657008289894" x2="383.54657008289894" y1="0" y2="30"/><line opacity="0.2" x1="530.0503251598944" x2="530.0503251598944" y1="0" y2="30"/><line opacity="0.2" x1="341.32784043975255" x2="341.32784043975255" y1="0" y2="30"/><line opacity="0.2" x1="270.41349208811073" x2="270.41349208811073" y1="0" y2="30"/><line opacity="0.2" x1="218.76468894619595" x2="218.76468894619595" y1="0" y2="30"/><line opacity="0.2" x1="394.3877245927756" x2="394.3877245927756" y1="0" y2="30"/><line opacity="0.2" x1="258.8313921304689" x2="258.8313921304689" y1="0" y2="30"/><line opacity="0.2" x1="299.27540045403913" x2="299.27540045403913" y1="0" y2="30"/><line opacity="0.2" x1="215.27770907506653" x2="215.27770907506653" y1="0" y2="30"/><line opacity="0.2" x1="349.5871665238381" x2="349.5871665238381" y1="0" y2="30"/><line opacity="0.2" x1="354.04935138778546" x2="354.04935138778546" y1="0" y2="30"/><line opacity="0.2" x1="319.828743683164" x2="319.828743683164" y1="0" y2="30"/><line opacity="0.2" x1="575.4066897328503" x2="575.4066897328503" y1="0" y2="30"/><line opacity="0.2" x1="222.6792761856779" x2="222.6792761856779" y1="0" y2="30"/><line opacity="0.2" x1="325.0274998722753" x2="325.0274998722753" y1="0" y2="30"/><line opacity="0.2" x1="252.51242322641338" x2="252.51242322641338" y1="0" y2="30"/><line opacity="0.2" x1="319.32443321689493" x2="319.32443321689493" y1="0" y2="30"/><line opacity="0.2" x1="428.98385615896433" x2="428.98385615896433" y1="0" y2="30"/><line opacity="0.2" x1="417.9858752514695" x2="417.9858752514695" y1="0" y2="30"/><line opacity="0.2" x1="350.0979282868004" x2="350.0979282868004" y1="0" y2="30"/><line opacity="0.2" x1="430.059801890186" x2="430.059801890186" y1="0" y2="30"/><line opacity="0.2" x1="269.3169098844481" x2="269.3169098844481" y1="0" y2="30"/><line opacity="0.2" x1="296.2383416640758" x2="296.2383416640758" y1="0" y2="30"/><line opacity="0.2" x1="320.66767701880167" x2="320.66767701880167" y1="0" y2="30"/><line opacity="0.2" x1="334.1860084274521" x2="334.1860084274521" y1="0" y2="30"/><line opacity="0.2" x1="216.09092899209924" x2="216.09092899209924" y1="0" y2="30"/><line opacity="0.2" x1="237.66220358449303" x2="237.66220358449303" y1="0" y2="30"/><line opacity="0.2" x1="387.1445470866856" x2="387.1445470866856" y1="0" y2="30"/><line opacity="0.2" x1="357.5939186982411" x2="357.5939186982411" y1="0" y2="30"/><line opacity="0.2" x1="201.242621323673" x2="201.242621323673" y1="0" y2="30"/><line opacity="0.2" x1="365.728688889045" x2="365.728688889045" y1="0" y2="30"/><line opacity="0.2" x1="126.76220008159353" x2="126.76220008159353" y1="0" y2="30"/><line opacity="0.2" x1="346.5482816245297" x2="346.5482816245297" y1="0" y2="30"/><line opacity="0.2" x1="287.28509719786547" x2="287.28509719786547" y1="0" y2="30"/><line opacity="0.2" x1="296.76517278171525" x2="296.76517278171525" y1="0" y2="30"/><line opacity="0.2" x1="402.4739807201704" x2="402.4739807201704" y1="0" y2="30"/><line opacity="0.2" x1="124.5883946156054" x2="124.5883946156054" y1="0" y2="30"/><line opacity="0.2" x1="384.9992553406955" x2="384.9992553406955" y1="0" y2="30"/><line opacity="0.2" x1="418.47051329255294" x2="418.47051329255294" y1="0" y2="30"/><line opacity="0.2" x1="431.1382177101907" x2="431.1382177101907" y1="0" y2="30"/><line opacity="0.2" x1="291.9681708430821" x2="291.9681708430821" y1="0" y2="30"/><line opacity="0.2" x1="149.10240213894133" x2="149.10240213894133" y1="0" y2="30"/><line opacity="0.2" x1="447.98663525937764" x2="447.98663525937764" y1="0" y2="30"/><line opacity="0.2" x1="364.53650198407337" x2="364.53650198407337" y1="0" y2="30"/><line opacity="0.2" x1="176.4169907956654" x2="176.4169907956654" y1="0" y2="30"/><line opacity="0.2" x1="337.0193126217476" x2="337.0193126217476" y1="0" y2="30"/><line opacity="0.2" x1="439.7667104749779" x2="439.7667104749779" y1="0" y2="30"/><line opacity="0.2" x1="326.12944053729626" x2="326.12944053729626" y1="0" y2="30"/><line opacity="0.2" x1="438.6802679070151" x2="438.6802679070151" y1="0" y2="30"/><line opacity="0.2" x1="417.9372420463124" x2="417.9372420463124" y1="0" y2="30"/><line opacity="0.2" x1="335.91434743050337" x2="335.91434743050337" y1="0" y2="30"/><line opacity="0.2" x1="439.00790054162803" x2="439.00790054162803" y1="0" y2="30"/><line opacity="0.2" x1="253.932254951614" x2="253.932254951614" y1="0" y2="30"/><line opacity="0.2" x1="269.4951564733333" x2="269.4951564733333" y1="0" y2="30"/><line opacity="0.2" x1="264.33500666957116" x2="264.33500666957116" y1="0" y2="30"/><line opacity="0.2" x1="298.5918924894403" x2="298.5918924894403" y1="0" y2="30"/><line opacity="0.2" x1="209.02099467940874" x2="209.02099467940874" y1="0" y2="30"/><line opacity="0.2" x1="434.763523938004" x2="434.763523938004" y1="0" y2="30"/><line opacity="0.2" x1="378.10926235561453" x2="378.10926235561453" y1="0" y2="30"/><line opacity="0.2" x1="377.75142178921624" x2="377.75142178921624" y1="0" y2="30"/><line opacity="0.2" x1="486.54840229803085" x2="486.54840229803085" y1="0" y2="30"/><line opacity="0.2" x1="421.04544159118643" x2="421.04544159118643" y1="0" y2="30"/><line opacity="0.2" x1="444.2579986963275" x2="444.2579986963275" y1="0" y2="30"/><line opacity="0.2" x1="452.4910826605503" x2="452.4910826605503" y1="0" y2="30"/><line opacity="0.2" x1="454.1882976904866" x2="454.1882976904866" y1="0" y2="30"/><line opacity="0.2" x1="319.6460913413255" x2="319.6460913413255" y1="0" y2="30"/><line opacity="0.2" x1="489.0774166400618" x2="489.0774166400618" y1="0" y2="30"/><line opacity="0.2" x1="422.2809298345335" x2="422.2809298345335" y1="0" y2="30"/><line opacity="0.2" x1="382.86678867245803" x2="382.86678867245803" y1="0" y2="30"/><line opacity="0.2" x1="334.27214181994714" x2="334.27214181994714" y1="0" y2="30"/><line opacity="0.2" x1="367.47713458961596" x2="367.47713458961596" y1="0" y2="30"/><line opacity="0.2" x1="515.5544282423026" x2="515.5544282423026" y1="0" y2="30"/><line opacity="0.2" x1="336.1568507254547" x2="336.1568507254547" y1="0" y2="30"/><line opacity="0.2" x1="260.0351449159433" x2="260.0351449159433" y1="0" y2="30"/><line opacity="0.2" x1="491.51718072724884" x2="491.51718072724884" y1="0" y2="30"/><line opacity="0.2" x1="263.6794406020474" x2="263.6794406020474" y1="0" y2="30"/><line opacity="0.2" x1="286.3952433920367" x2="286.3952433920367" y1="0" y2="30"/><line opacity="0.2" x1="255.6879606379835" x2="255.6879606379835" y1="0" y2="30"/><line opacity="0.2" x1="366.0532693433176" x2="366.0532693433176" y1="0" y2="30"/><line opacity="0.2" x1="431.2489085967452" x2="431.2489085967452" y1="0" y2="30"/><line opacity="0.2" x1="457.0381183221829" x2="457.0381183221829" y1="0" y2="30"/><line opacity="0.2" x1="395.3022693068017" x2="395.3022693068017" y1="0" y2="30"/><line opacity="0.2" x1="369.69328750371704" x2="369.69328750371704" y1="0" y2="30"/><line opacity="0.2" x1="236.96602422813254" x2="236.96602422813254" y1="0" y2="30"/><line opacity="0.2" x1="211.89772941032237" x2="211.89772941032237" y1="0" y2="30"/><line opacity="0.2" x1="386.47098989399" x2="386.47098989399" y1="0" y2="30"/><line opacity="0.2" x1="210.3362868016477" x2="210.3362868016477" y1="0" y2="30"/><line opacity="0.2" x1="301.3311751705268" x2="301.3311751705268" y1="0" y2="30"/><line opacity="0.2" x1="266.20922986774303" x2="266.20922986774303" y1="0" y2="30"/><line opacity="0.2" x1="321.37888144829884" x2="321.37888144829884" y1="0" y2="30"/><line opacity="0.2" x1="471.69961780900223" x2="471.69961780900223" y1="0" y2="30"/><line opacity="0.2" x1="266.4252882944355" x2="266.4252882944355" y1="0" y2="30"/><line opacity="0.2" x1="384.1109239605457" x2="384.1109239605457" y1="0" y2="30"/><line opacity="0.2" x1="399.67907003417537" x2="399.67907003417537" y1="0" y2="30"/><line opacity="0.2" x1="274.61356814351353" x2="274.61356814351353" y1="0" y2="30"/><line opacity="0.2" x1="493.37397558872294" x2="493.37397558872294" y1="0" y2="30"/><line opacity="0.2" x1="279.8735817171288" x2="279.8735817171288" y1="0" y2="30"/><line opacity="0.2" x1="269.1515601202345" x2="269.1515601202345" y1="0" y2="30"/><line opacity="0.2" x1="306.13873799384817" x2="306.13873799384817" y1="0" y2="30"/><line opacity="0.2" x1="471.3162108263782" x2="471.3162108263782" y1="0" y2="30"/><line opacity="0.2" x1="372.93368855583356" x2="372.93368855583356" y1="0" y2="30"/><line opacity="0.2" x1="585.2925567743707" x2="585.2925567743707" y1="0" y2="30"/><line opacity="0.2" x1="186.4486046142198" x2="186.4486046142198" y1="0" y2="30"/><line opacity="0.2" x1="269.664047549384" x2="269.664047549384" y1="0" y2="30"/><line opacity="0.2" x1="445.5065895214419" x2="445.5065895214419" y1="0" y2="30"/><line opacity="0.2" x1="316.214919385714" x2="316.214919385714" y1="0" y2="30"/><line opacity="0.2" x1="364.4923678614592" x2="364.4923678614592" y1="0" y2="30"/><line opacity="0.2" x1="418.51414680996567" x2="418.51414680996567" y1="0" y2="30"/><line opacity="0.2" x1="429.8335042076994" x2="429.8335042076994" y1="0" y2="30"/><line opacity="0.2" x1="521.6144689399996" x2="521.6144689399996" y1="0" y2="30"/><line opacity="0.2" x1="256.2111119516892" x2="256.2111119516892" y1="0" y2="30"/><line opacity="0.2" x1="477.63633390422433" x2="477.63633390422433" y1="0" y2="30"/><line opacity="0.2" x1="333.8389009411258" x2="333.8389009411258" y1="0" y2="30"/><line opacity="0.2" x1="332.65900456968797" x2="332.65900456968797" y1="0" y2="30"/><line opacity="0.2" x1="450.0664924244031" x2="450.0664924244031" y1="0" y2="30"/><line opacity="0.2" x1="415.94801234921084" x2="415.94801234921084" y1="0" y2="30"/><line opacity="0.2" x1="406.0305379941326" x2="406.0305379941326" y1="0" y2="30"/><line opacity="0.2" x1="498.5127624694075" x2="498.5127624694075" y1="0" y2="30"/><line opacity="0.2" x1="391.80924005150536" x2="391.80924005150536" y1="0" y2="30"/><line opacity="0.2" x1="471.86548636601293" x2="471.86548636601293" y1="0" y2="30"/><line opacity="0.2" x1="331.88628676717406" x2="331.88628676717406" y1="0" y2="30"/><line opacity="0.2" x1="467.9452798221021" x2="467.9452798221021" y1="0" y2="30"/><line opacity="0.2" x1="452.84632907982797" x2="452.84632907982797" y1="0" y2="30"/><line opacity="0.2" x1="520.3728383138374" x2="520.3728383138374" y1="0" y2="30"/><line opacity="0.2" x1="281.4520696372694" x2="281.4520696372694" y1="0" y2="30"/><line opacity="0.2" x1="309.4253033959391" x2="309.4253033959391" y1="0" y2="30"/><line opacity="0.2" x1="270.92892876760743" x2="270.92892876760743" y1="0" y2="30"/><line opacity="0.2" x1="229.9962585977873" x2="229.9962585977873" y1="0" y2="30"/><line opacity="0.2" x1="305.0601216391945" x2="305.0601216391945" y1="0" y2="30"/><line opacity="0.2" x1="409.7901210579025" x2="409.7901210579025" y1="0" y2="30"/><line opacity="0.2" x1="289.2100689910339" x2="289.2100689910339" y1="0" y2="30"/><line opacity="0.2" x1="265.50011444578865" x2="265.50011444578865" y1="0" y2="30"/><line opacity="0.2" x1="370.08245715916837" x2="370.08245715916837" y1="0" y2="30"/><line opacity="0.2" x1="224.26700009030841" x2="224.26700009030841" y1="0" y2="30"/><line opacity="0.2" x1="371.5571769219198" x2="371.5571769219198" y1="0" y2="30"/><line opacity="0.2" x1="240.5164164966647" x2="240.5164164966647" y1="0" y2="30"/><line opacity="0.2" x1="213.55610888700176" x2="213.55610888700176" y1="0" y2="30"/><line opacity="0.2" x1="453.06534741950486" x2="453.06534741950486" y1="0" y2="30"/><line opacity="0.2" x1="216.42815934947106" x2="216.42815934947106" y1="0" y2="30"/><line opacity="0.2" x1="489.3579188967419" x2="489.3579188967419" y1="0" y2="30"/><line opacity="0.2" x1="327.9018892546685" x2="327.9018892546685" y1="0" y2="30"/><line opacity="0.2" x1="373.3590040890674" x2="373.3590040890674" y1="0" y2="30"/><line opacity="0.2" x1="360.08779875972004" x2="360.08779875972004" y1="0" y2="30"/><line opacity="0.2" x1="433.1298208216131" x2="433.1298208216131" y1="0" y2="30"/><line opacity="0.2" x1="290.6151835268924" x2="290.6151835268924" y1="0" y2="30"/><line opacity="0.2" x1="230.2298722523202" x2="230.2298722523202" y1="0" y2="30"/><line opacity="0.2" x1="417.1834603992411" x2="417.1834603992411" y1="0" y2="30"/><line opacity="0.2" x1="400.8555377433702" x2="400.8555377433702" y1="0" y2="30"/><line opacity="0.2" x1="404.133349348732" x2="404.133349348732" y1="0" y2="30"/><line opacity="0.2" x1="147.00556701158018" x2="147.00556701158018" y1="0" y2="30"/><line opacity="0.2" x1="278.5351994744416" x2="278.5351994744416" y1="0" y2="30"/><line opacity="0.2" x1="352.3666409809905" x2="352.3666409809905" y1="0" y2="30"/><line opacity="0.2" x1="466.79505338795377" x2="466.79505338795377" y1="0" y2="30"/><line opacity="0.2" x1="461.16466325564807" x2="461.16466325564807" y1="0" y2="30"/><line opacity="0.2" x1="415.0165202987594" x2="415.0165202987594" y1="0" y2="30"/><line opacity="0.2" x1="254.7805225708309" x2="254.7805225708309" y1="0" y2="30"/><line opacity="0.2" x1="521.1495105595933" x2="521.1495105595933" y1="0" y2="30"/><line opacity="0.2" x1="333.4376161564092" x2="333.4376161564092" y1="0" y2="30"/><line opacity="0.2" x1="365.35714431313465" x2="365.35714431313465" y1="0" y2="30"/><line opacity="0.2" x1="324.53875017381165" x2="324.53875017381165" y1="0" y2="30"/><line opacity="0.2" x1="401.8170757637768" x2="401.8170757637768" y1="0" y2="30"/><line opacity="0.2" x1="368.9582579507418" x2="368.9582579507418" y1="0" y2="30"/><line opacity="0.2" x1="385.37428926097857" x2="385.37428926097857" y1="0" y2="30"/><line opacity="0.2" x1="318.4183768587801" x2="318.4183768587801" y1="0" y2="30"/><line opacity="0.2" x1="292.8199112312439" x2="292.8199112312439" y1="0" y2="30"/><line opacity="0.2" x1="396.7471336588925" x2="396.7471336588925" y1="0" y2="30"/><line opacity="0.2" x1="221.87444486845467" x2="221.87444486845467" y1="0" y2="30"/><line opacity="0.2" x1="262.0023992845439" x2="262.0023992845439" y1="0" y2="30"/><line opacity="0.2" x1="455.5831685515493" x2="455.5831685515493" y1="0" y2="30"/><line opacity="0.2" x1="266.07629554041023" x2="266.07629554041023" y1="0" y2="30"/><line opacity="0.2" x1="465.37242503482383" x2="465.37242503482383" y1="0" y2="30"/><line opacity="0.2" x1="311.71691375683866" x2="311.71691375683866" y1="0" y2="30"/><line opacity="0.2" x1="488.35315853827785" x2="488.35315853827785" y1="0" y2="30"/><line opacity="0.2" x1="540.528427883737" x2="540.528427883737" y1="0" y2="30"/><line opacity="0.2" x1="282.220364079533" x2="282.220364079533" y1="0" y2="30"/><line opacity="0.2" x1="409.62947200568226" x2="409.62947200568226" y1="0" y2="30"/><line opacity="0.2" x1="400.4403524038576" x2="400.4403524038576" y1="0" y2="30"/><line opacity="0.2" x1="523.6303746966389" x2="523.6303746966389" y1="0" y2="30"/><line opacity="0.2" x1="372.93722178302073" x2="372.93722178302073" y1="0" y2="30"/><line opacity="0.2" x1="392.36760214154566" x2="392.36760214154566" y1="0" y2="30"/><line opacity="0.2" x1="296.3695783272152" x2="296.3695783272152" y1="0" y2="30"/><line opacity="0.2" x1="382.11336507561714" x2="382.11336507561714" y1="0" y2="30"/><line opacity="0.2" x1="216.43158620605556" x2="216.43158620605556" y1="0" y2="30"/><line opacity="0.2" x1="162.65498480897168" x2="162.65498480897168" y1="0" y2="30"/><line opacity="0.2" x1="224.2194976824651" x2="224.2194976824651" y1="0" y2="30"/><line opacity="0.2" x1="346.1457387837815" x2="346.1457387837815" y1="0" y2="30"/><line opacity="0.2" x1="403.24758898605444" x2="403.24758898605444" y1="0" y2="30"/><line opacity="0.2" x1="423.6040063234262" x2="423.6040063234262" y1="0" y2="30"/><line opacity="0.2" x1="499.2330563310687" x2="499.2330563310687" y1="0" y2="30"/><line opacity="0.2" x1="392.49990009307544" x2="392.49990009307544" y1="0" y2="30"/><line opacity="0.2" x1="340.405046525731" x2="340.405046525731" y1="0" y2="30"/><line opacity="0.2" x1="293.3994165923518" x2="293.3994165923518" y1="0" y2="30"/><line opacity="0.2" x1="312.839376208832" x2="312.839376208832" y1="0" y2="30"/><line opacity="0.2" x1="259.6755350407091" x2="259.6755350407091" y1="0" y2="30"/><line opacity="0.2" x1="238.42180701384078" x2="238.42180701384078" y1="0" y2="30"/><line opacity="0.2" x1="223.97319086036913" x2="223.97319086036913" y1="0" y2="30"/><line opacity="0.2" x1="356.25829843425953" x2="356.25829843425953" y1="0" y2="30"/><line opacity="0.2" x1="295.84840358442625" x2="295.84840358442625" y1="0" y2="30"/><line opacity="0.2" x1="423.59706754431943" x2="423.59706754431943" y1="0" y2="30"/><line opacity="0.2" x1="422.04788191109395" x2="422.04788191109395" y1="0" y2="30"/><line opacity="0.2" x1="454.5634768418546" x2="454.5634768418546" y1="0" y2="30"/><line opacity="0.2" x1="303.30343622867133" x2="303.30343622867133" y1="0" y2="30"/><line opacity="0.2" x1="128.77953687865326" x2="128.77953687865326" y1="0" y2="30"/><line opacity="0.2" x1="337.4467825089183" x2="337.4467825089183" y1="0" y2="30"/><line opacity="0.2" x1="286.25153769683703" x2="286.25153769683703" y1="0" y2="30"/><line opacity="0.2" x1="259.70555850654097" x2="259.70555850654097" y1="0" y2="30"/><line opacity="0.2" x1="193.8221167044038" x2="193.8221167044038" y1="0" y2="30"/><line opacity="0.2" x1="439.7248453353348" x2="439.7248453353348" y1="0" y2="30"/><line opacity="0.2" x1="202.01802239323194" x2="202.01802239323194" y1="0" y2="30"/><line opacity="0.2" x1="365.699154192613" x2="365.699154192613" y1="0" y2="30"/><line opacity="0.2" x1="288.50182101949537" x2="288.50182101949537" y1="0" y2="30"/><line opacity="0.2" x1="400.5950542673878" x2="400.5950542673878" y1="0" y2="30"/><line opacity="0.2" x1="352.7287733696394" x2="352.7287733696394" y1="0" y2="30"/><line opacity="0.2" x1="326.0362910371254" x2="326.0362910371254" y1="0" y2="30"/><line opacity="0.2" x1="395.9978222011489" x2="395.9978222011489" y1="0" y2="30"/><line opacity="0.2" x1="454.99608359208924" x2="454.99608359208924" y1="0" y2="30"/><line opacity="0.2" x1="434.54946354142544" x2="434.54946354142544" y1="0" y2="30"/><line opacity="0.2" x1="207.82604503033048" x2="207.82604503033048" y1="0" y2="30"/><line opacity="0.2" x1="212.93934171112662" x2="212.93934171112662" y1="0" y2="30"/><line opacity="0.2" x1="378.89131148182184" x2="378.89131148182184" y1="0" y2="30"/><line opacity="0.2" x1="277.70438900515956" x2="277.70438900515956" y1="0" y2="30"/><line opacity="0.2" x1="543.6190580731152" x2="543.6190580731152" y1="0" y2="30"/><line opacity="0.2" x1="305.13092579652937" x2="305.13092579652937" y1="0" y2="30"/><line opacity="0.2" x1="305.9639624936999" x2="305.9639624936999" y1="0" y2="30"/><line opacity="0.2" x1="368.5360485781597" x2="368.5360485781597" y1="0" y2="30"/><line opacity="0.2" x1="359.9047793840291" x2="359.9047793840291" y1="0" y2="30"/><line opacity="0.2" x1="472.84907723720755" x2="472.84907723720755" y1="0" y2="30"/><line opacity="0.2" x1="441.23455779857005" x2="441.23455779857005" y1="0" y2="30"/><line opacity="0.2" x1="442.35814258963643" x2="442.35814258963643" y1="0" y2="30"/><line opacity="0.2" x1="366.9134265788038" x2="366.9134265788038" y1="0" y2="30"/><line opacity="0.2" x1="376.18457054064834" x2="376.18457054064834" y1="0" y2="30"/><line opacity="0.2" x1="133.85889020417855" x2="133.85889020417855" y1="0" y2="30"/><line opacity="0.2" x1="244.0590696457537" x2="244.0590696457537" y1="0" y2="30"/><line opacity="0.2" x1="222.71609607722544" x2="222.71609607722544" y1="0" y2="30"/><line opacity="0.2" x1="252.87296035516678" x2="252.87296035516678" y1="0" y2="30"/><line opacity="0.2" x1="511.97227754302196" x2="511.97227754302196" y1="0" y2="30"/><line opacity="0.2" x1="311.74197613960473" x2="311.74197613960473" y1="0" y2="30"/><line opacity="0.2" x1="460.88928217919806" x2="460.88928217919806" y1="0" y2="30"/><line opacity="0.2" x1="417.1498218886315" x2="417.1498218886315" y1="0" y2="30"/><line opacity="0.2" x1="256.8254816424706" x2="256.8254816424706" y1="0" y2="30"/><line opacity="0.2" x1="283.550535313958" x2="283.550535313958" y1="0" y2="30"/><line opacity="0.2" x1="297.92800233129213" x2="297.92800233129213" y1="0" y2="30"/><line opacity="0.2" x1="489.89087610569067" x2="489.89087610569067" y1="0" y2="30"/><line opacity="0.2" x1="395.2888195851223" x2="395.2888195851223" y1="0" y2="30"/><line opacity="0.2" x1="288.39458574947713" x2="288.39458574947713" y1="0" y2="30"/><line opacity="0.2" x1="162.3149348050831" x2="162.3149348050831" y1="0" y2="30"/><line opacity="0.2" x1="385.5707738399621" x2="385.5707738399621" y1="0" y2="30"/><line opacity="0.2" x1="421.07100287728275" x2="421.07100287728275" y1="0" y2="30"/><line opacity="0.2" x1="285.7861148982546" x2="285.7861148982546" y1="0" y2="30"/><line opacity="0.2" x1="386.65977402632274" x2="386.65977402632274" y1="0" y2="30"/><line opacity="0.2" x1="384.21040247159493" x2="384.21040247159493" y1="0" y2="30"/><line opacity="0.2" x1="304.6016543038119" x2="304.6016543038119" y1="0" y2="30"/><line opacity="0.2" x1="136.1402001856807" x2="136.1402001856807" y1="0" y2="30"/><line opacity="0.2" x1="385.23690526036506" x2="385.23690526036506" y1="0" y2="30"/><line opacity="0.2" x1="166.67282417991572" x2="166.67282417991572" y1="0" y2="30"/><line opacity="0.2" x1="389.91196476005285" x2="389.91196476005285" y1="0" y2="30"/><line opacity="0.2" x1="410.96695371714816" x2="410.96695371714816" y1="0" y2="30"/><line opacity="0.2" x1="266.59706285363256" x2="266.59706285363256" y1="0" y2="30"/><line opacity="0.2" x1="212.1059839483466" x2="212.1059839483466" y1="0" y2="30"/><line opacity="0.2" x1="271.47551514356684" x2="271.47551514356684" y1="0" y2="30"/><line opacity="0.2" x1="300.9200829184557" x2="300.9200829184557" y1="0" y2="30"/><line opacity="0.2" x1="277.4108010903753" x2="277.4108010903753" y1="0" y2="30"/><line opacity="0.2" x1="334.1689674038879" x2="334.1689674038879" y1="0" y2="30"/><line opacity="0.2" x1="450.30876317916346" x2="450.30876317916346" y1="0" y2="30"/><line opacity="0.2" x1="461.70805965136435" x2="461.70805965136435" y1="0" y2="30"/><line opacity="0.2" x1="392.92065678697503" x2="392.92065678697503" y1="0" y2="30"/><line opacity="0.2" x1="331.3072591172205" x2="331.3072591172205" y1="0" y2="30"/><line opacity="0.2" x1="188.37890265495508" x2="188.37890265495508" y1="0" y2="30"/><line opacity="0.2" x1="416.4176340697668" x2="416.4176340697668" y1="0" y2="30"/><line opacity="0.2" x1="393.95240167686393" x2="393.95240167686393" y1="0" y2="30"/><line opacity="0.2" x1="488.62413365411186" x2="488.62413365411186" y1="0" y2="30"/><line opacity="0.2" x1="450.05641215844344" x2="450.05641215844344" y1="0" y2="30"/><line opacity="0.2" x1="258.93645616932736" x2="258.93645616932736" y1="0" y2="30"/><line opacity="0.2" x1="347.36348093768646" x2="347.36348093768646" y1="0" y2="30"/><line opacity="0.2" x1="163.596922052967" x2="163.596922052967" y1="0" y2="30"/><line opacity="0.2" x1="274.794236982875" x2="274.794236982875" y1="0" y2="30"/><line opacity="0.2" x1="307.0965610229313" x2="307.0965610229313" y1="0" y2="30"/><line opacity="0.2" x1="140.7822744130737" x2="140.7822744130737" y1="0" y2="30"/><line opacity="0.2" x1="318.9921698872014" x2="318.9921698872014" y1="0" y2="30"/><line opacity="0.2" x1="282.97587194454604" x2="282.97587194454604" y1="0" y2="30"/><line opacity="0.2" x1="270.34365609061064" x2="270.34365609061064" y1="0" y2="30"/><line opacity="0.2" x1="222.46363424315103" x2="222.46363424315103" y1="0" y2="30"/><line opacity="0.2" x1="393.02053683380836" x2="393.02053683380836" y1="0" y2="30"/><line opacity="0.2" x1="256.210633841909" x2="256.210633841909" y1="0" y2="30"/><line opacity="0.2" x1="411.09644995788756" x2="411.09644995788756" y1="0" y2="30"/><line opacity="0.2" x1="469.4617381454998" x2="469.4617381454998" y1="0" y2="30"/><line opacity="0.2" x1="419.46744705164417" x2="419.46744705164417" y1="0" y2="30"/><line opacity="0.2" x1="476.49593890499165" x2="476.49593890499165" y1="0" y2="30"/><line opacity="0.2" x1="194.21297110311465" x2="194.21297110311465" y1="0" y2="30"/><line opacity="0.2" x1="266.4103404486751" x2="266.4103404486751" y1="0" y2="30"/><line opacity="0.2" x1="375.1402571216312" x2="375.1402571216312" y1="0" y2="30"/><line opacity="0.2" x1="353.2556827396022" x2="353.2556827396022" y1="0" y2="30"/><line opacity="0.2" x1="329.0079372886616" x2="329.0079372886616" y1="0" y2="30"/><line opacity="0.2" x1="300.6135815010713" x2="300.6135815010713" y1="0" y2="30"/><line opacity="0.2" x1="249.2509122909877" x2="249.2509122909877" y1="0" y2="30"/><line opacity="0.2" x1="348.7847262046675" x2="348.7847262046675" y1="0" y2="30"/><line opacity="0.2" x1="216.41839995026993" x2="216.41839995026993" y1="0" y2="30"/><line opacity="0.2" x1="466.1429398386941" x2="466.1429398386941" y1="0" y2="30"/><line opacity="0.2" x1="487.6376519772504" x2="487.6376519772504" y1="0" y2="30"/><line opacity="0.2" x1="143.77720445697452" x2="143.77720445697452" y1="0" y2="30"/><line opacity="0.2" x1="390.0198714053992" x2="390.0198714053992" y1="0" y2="30"/><line opacity="0.2" x1="402.44467920988734" x2="402.44467920988734" y1="0" y2="30"/><line opacity="0.2" x1="273.25524836931214" x2="273.25524836931214" y1="0" y2="30"/><line opacity="0.2" x1="314.7883111791316" x2="314.7883111791316" y1="0" y2="30"/><line opacity="0.2" x1="457.4369348104921" x2="457.4369348104921" y1="0" y2="30"/><line opacity="0.2" x1="268.74752704015464" x2="268.74752704015464" y1="0" y2="30"/><line opacity="0.2" x1="222.39330269553773" x2="222.39330269553773" y1="0" y2="30"/><line opacity="0.2" x1="459.821968569148" x2="459.821968569148" y1="0" y2="30"/><line opacity="0.2" x1="537.8135589918934" x2="537.8135589918934" y1="0" y2="30"/><line opacity="0.2" x1="380.34564399597076" x2="380.34564399597076" y1="0" y2="30"/><line opacity="0.2" x1="391.0744257293621" x2="391.0744257293621" y1="0" y2="30"/><line opacity="0.2" x1="336.50235064804997" x2="336.50235064804997" y1="0" y2="30"/><line opacity="0.2" x1="340.4605871676511" x2="340.4605871676511" y1="0" y2="30"/><line opacity="0.2" x1="480.928533959797" x2="480.928533959797" y1="0" y2="30"/><line opacity="0.2" x1="376.7038653454332" x2="376.7038653454332" y1="0" y2="30"/><line opacity="0.2" x1="377.8479578137241" x2="377.8479578137241" y1="0" y2="30"/><line opacity="0.2" x1="526.5300261912275" x2="526.5300261912275" y1="0" y2="30"/><line opacity="0.2" x1="380.0660497325345" x2="380.0660497325345" y1="0" y2="30"/><line opacity="0.2" x1="410.4717999593499" x2="410.4717999593499" y1="0" y2="30"/><line opacity="0.2" x1="175.88387634370463" x2="175.88387634370463" y1="0" y2="30"/><line opacity="0.2" x1="363.502048985508" x2="363.502048985508" y1="0" y2="30"/><line opacity="0.2" x1="363.6501954807215" x2="363.6501954807215" y1="0" y2="30"/><line opacity="0.2" x1="375.83625921907026" x2="375.83625921907026" y1="0" y2="30"/><line opacity="0.2" x1="391.44334712909324" x2="391.44334712909324" y1="0" y2="30"/><line opacity="0.2" x1="428.4559219342908" x2="428.4559219342908" y1="0" y2="30"/><line opacity="0.2" x1="502.16290313711085" x2="502.16290313711085" y1="0" y2="30"/><line opacity="0.2" x1="439.24379471244885" x2="439.24379471244885" y1="0" y2="30"/><line opacity="0.2" x1="356.92142103096194" x2="356.92142103096194" y1="0" y2="30"/><line opacity="0.2" x1="236.9126431018444" x2="236.9126431018444" y1="0" y2="30"/><line opacity="0.2" x1="373.4227339988201" x2="373.4227339988201" y1="0" y2="30"/><line opacity="0.2" x1="445.2087554053731" x2="445.2087554053731" y1="0" y2="30"/><line opacity="0.2" x1="390.1475108780914" x2="390.1475108780914" y1="0" y2="30"/><line opacity="0.2" x1="414.11928817998063" x2="414.11928817998063" y1="0" y2="30"/><line opacity="0.2" x1="423.81022468942297" x2="423.81022468942297" y1="0" y2="30"/><line opacity="0.2" x1="322.2548027447056" x2="322.2548027447056" y1="0" y2="30"/><line opacity="0.2" x1="449.68686190473863" x2="449.68686190473863" y1="0" y2="30"/><line opacity="0.2" x1="320.46658107269093" x2="320.46658107269093" y1="0" y2="30"/><line opacity="0.2" x1="340.7464977558759" x2="340.7464977558759" y1="0" y2="30"/><line opacity="0.2" x1="368.930522000181" x2="368.930522000181" y1="0" y2="30"/><line opacity="0.2" x1="289.1353689544491" x2="289.1353689544491" y1="0" y2="30"/><line opacity="0.2" x1="231.5607227716151" x2="231.5607227716151" y1="0" y2="30"/><line opacity="0.2" x1="304.30658573312354" x2="304.30658573312354" y1="0" y2="30"/><line opacity="0.2" x1="353.46310427237154" x2="353.46310427237154" y1="0" y2="30"/><line opacity="0.2" x1="322.8004213879437" x2="322.8004213879437" y1="0" y2="30"/><line opacity="0.2" x1="421.1801127485314" x2="421.1801127485314" y1="0" y2="30"/><line opacity="0.2" x1="407.13442828423234" x2="407.13442828423234" y1="0" y2="30"/><line opacity="0.2" x1="403.98133543303106" x2="403.98133543303106" y1="0" y2="30"/><line opacity="0.2" x1="508.20239169696583" x2="508.20239169696583" y1="0" y2="30"/><line opacity="0.2" x1="291.28202185951295" x2="291.28202185951295" y1="0" y2="30"/><line opacity="0.2" x1="265.8522720769257" x2="265.8522720769257" y1="0" y2="30"/><line opacity="0.2" x1="249.94557777343456" x2="249.94557777343456" y1="0" y2="30"/><line opacity="0.2" x1="458.1136880268308" x2="458.1136880268308" y1="0" y2="30"/><line opacity="0.2" x1="352.511287199213" x2="352.511287199213" y1="0" y2="30"/><line opacity="0.2" x1="392.2028228143409" x2="392.2028228143409" y1="0" y2="30"/><line opacity="0.2" x1="350.28702464473264" x2="350.28702464473264" y1="0" y2="30"/><line opacity="0.2" x1="242.83996852613467" x2="242.83996852613467" y1="0" y2="30"/><line opacity="0.2" x1="317.9427090286869" x2="317.9427090286869" y1="0" y2="30"/><line opacity="0.2" x1="302.0863575986857" x2="302.0863575986857" y1="0" y2="30"/><line opacity="0.2" x1="327.36119226535834" x2="327.36119226535834" y1="0" y2="30"/><line opacity="0.2" x1="255.11830194333723" x2="255.11830194333723" y1="0" y2="30"/><line opacity="0.2" x1="410.1948846914205" x2="410.1948846914205" y1="0" y2="30"/><line opacity="0.2" x1="380.42637809452197" x2="380.42637809452197" y1="0" y2="30"/><line opacity="0.2" x1="446.4041497756188" x2="446.4041497756188" y1="0" y2="30"/><line opacity="0.2" x1="211.07415820103" x2="211.07415820103" y1="0" y2="30"/><line opacity="0.2" x1="442.89857661206054" x2="442.89857661206054" y1="0" y2="30"/><line opacity="0.2" x1="300.6816538037294" x2="300.6816538037294" y1="0" y2="30"/><line opacity="0.2" x1="256.82683414557994" x2="256.82683414557994" y1="0" y2="30"/><line opacity="0.2" x1="451.6731453696689" x2="451.6731453696689" y1="0" y2="30"/><line opacity="0.2" x1="410.1425118354219" x2="410.1425118354219" y1="0" y2="30"/><line opacity="0.2" x1="388.283484686622" x2="388.283484686622" y1="0" y2="30"/><line opacity="0.2" x1="208.26479812073092" x2="208.26479812073092" y1="0" y2="30"/><line opacity="0.2" x1="387.5632418774463" x2="387.5632418774463" y1="0" y2="30"/><line opacity="0.2" x1="208.93317953266575" x2="208.93317953266575" y1="0" y2="30"/><line opacity="0.2" x1="363.8380027498325" x2="363.8380027498325" y1="0" y2="30"/><line opacity="0.2" x1="278.2949346033273" x2="278.2949346033273" y1="0" y2="30"/><line opacity="0.2" x1="477.7324965612446" x2="477.7324965612446" y1="0" y2="30"/><line opacity="0.2" x1="409.6962768987786" x2="409.6962768987786" y1="0" y2="30"/><line opacity="0.2" x1="423.01292103463845" x2="423.01292103463845" y1="0" y2="30"/><line opacity="0.2" x1="193.28956952826388" x2="193.28956952826388" y1="0" y2="30"/><line opacity="0.2" x1="421.8131358718516" x2="421.8131358718516" y1="0" y2="30"/><line opacity="0.2" x1="321.4844014317774" x2="321.4844014317774" y1="0" y2="30"/><line opacity="0.2" x1="310.8101252319095" x2="310.8101252319095" y1="0" y2="30"/><line opacity="0.2" x1="347.8565921410015" x2="347.8565921410015" y1="0" y2="30"/><line opacity="0.2" x1="334.3283827117671" x2="334.3283827117671" y1="0" y2="30"/><line opacity="0.2" x1="260.1837445414778" x2="260.1837445414778" y1="0" y2="30"/><line opacity="0.2" x1="349.7374183123655" x2="349.7374183123655" y1="0" y2="30"/><line opacity="0.2" x1="304.9102296909882" x2="304.9102296909882" y1="0" y2="30"/><line opacity="0.2" x1="421.59815271231713" x2="421.59815271231713" y1="0" y2="30"/><line opacity="0.2" x1="425.6279428909124" x2="425.6279428909124" y1="0" y2="30"/><line opacity="0.2" x1="385.2921506131242" x2="385.2921506131242" y1="0" y2="30"/><line opacity="0.2" x1="416.13569205407936" x2="416.13569205407936" y1="0" y2="30"/><line opacity="0.2" x1="387.36085441663596" x2="387.36085441663596" y1="0" y2="30"/><line opacity="0.2" x1="387.30137321981294" x2="387.30137321981294" y1="0" y2="30"/><line opacity="0.2" x1="308.1927144544574" x2="308.1927144544574" y1="0" y2="30"/><line opacity="0.2" x1="368.9963393019393" x2="368.9963393019393" y1="0" y2="30"/><line opacity="0.2" x1="312.08799402367765" x2="312.08799402367765" y1="0" y2="30"/><line opacity="0.2" x1="352.3800390499595" x2="352.3800390499595" y1="0" y2="30"/><line opacity="0.2" x1="300.90054114129515" x2="300.90054114129515" y1="0" y2="30"/><line opacity="0.2" x1="334.42164761485327" x2="334.42164761485327" y1="0" y2="30"/><line opacity="0.2" x1="441.5212087307984" x2="441.5212087307984" y1="0" y2="30"/><line opacity="0.2" x1="379.43612971707626" x2="379.43612971707626" y1="0" y2="30"/><line opacity="0.2" x1="253.8856643579137" x2="253.8856643579137" y1="0" y2="30"/><line opacity="0.2" x1="378.55468659596056" x2="378.55468659596056" y1="0" y2="30"/><line opacity="0.2" x1="342.84266405957356" x2="342.84266405957356" y1="0" y2="30"/><line opacity="0.2" x1="222.16027244339267" x2="222.16027244339267" y1="0" y2="30"/><line opacity="0.2" x1="437.62019850519914" x2="437.62019850519914" y1="0" y2="30"/><line opacity="0.2" x1="447.14118836520805" x2="447.14118836520805" y1="0" y2="30"/><line opacity="0.2" x1="328.51606264519353" x2="328.51606264519353" y1="0" y2="30"/><line opacity="0.2" x1="322.2876909994866" x2="322.2876909994866" y1="0" y2="30"/><line opacity="0.2" x1="370.77507402929456" x2="370.77507402929456" y1="0" y2="30"/><line opacity="0.2" x1="172.7943146997451" x2="172.7943146997451" y1="0" y2="30"/><line opacity="0.2" x1="429.25533785325916" x2="429.25533785325916" y1="0" y2="30"/><line opacity="0.2" x1="515.635459327002" x2="515.635459327002" y1="0" y2="30"/></g></svg>