<svg xmlns="http://www.w3.org/2000/svg" xmlns:xlink="http://www.w3.org/1999/xlink" class="plot-d6a7b5" fill="currentColor" font-family="system-ui, sans-serif" font-size="10" text-anchor="middle" width="640" height="400" viewBox="0 0 640 400" style="color: black; background-color: white;"><style>.plot-d6a7b5 {
  display: block;
  background: white;
  height: auto;
  height: intrinsic;
  max-width: 100%;
}
.plot-d6a7b5 text,
.plot-d6a7b5 tspan {
  white-space: pre;
}</style><g aria-label="y-axis tick" fill="none" stroke="currentColor"><path transform="translate(40,363.13624430604756)" d="M0,0L-6,0"/><path transform="translate(40,318.86232710014457)" d="M0,0L-6,0"/><path transform="translate(40,274.5884098942414)" d="M0,0L-6,0"/><path transform="translate(40,230.31449268833842)" d="M0,0L-6,0"/><path transform="translate(40,186.04057548243534)" d="M0,0L-6,0"/><path transform="translate(40,141.76665827653227)" d="M0,0L-6,0"/><path transform="translate(40,97.49274107062925)" d="M0,0L-6,0"/><path transform="translate(40,53.21882386472619)" d="M0,0L-6,0"/></g><g aria-label="y-axis tick label" text-anchor="end" font-variant="tabular-nums" transform="translate(-9,0)"><text y="0.32em" transform="translate(40,363.13624430604756)">−10</text><text y="0.32em" transform="translate(40,318.86232710014457)">−8</text><text y="0.32em" transform="translate(40,274.5884098942414)">−6</text><text y="0.32em" transform="translate(40,230.31449268833842)">−4</text><text y="0.32em" transform="translate(40,186.04057548243534)">−2</text><text y="0.32em" transform="translate(40,141.76665827653227)">0</text><text y="0.32em" transform="translate(40,97.49274107062925)">2</text><text y="0.32em" transform="translate(40,53.21882386472619)">4</text></g><g aria-label="rule" stroke="steelblue"><line x1="40" x2="639.5" y1="141.76665827653227" y2="141.76665827653227"/></g><g aria-label="line" fill="none" stroke="currentColor" stroke-width="1.5" stroke-linejoin="round" stroke-linecap="round"><path d="M40,132.35L46.056,123.696L52.111,133.765L58.167,113.405L64.222,115.433L70.278,129.543L76.333,125.314L82.389,122.408L88.444,111.606L94.5,105.696L100.556,140.446L106.611,132.811L112.667,121.624L118.722,88.358L124.778,117.164L130.833,150.563L136.889,128.838L142.944,79.518L149,76.337L155.056,72.656L161.111,49.997L167.167,20L173.222,58.286L179.278,79.939L185.333,73.723L191.389,91.34L197.444,130.173L203.5,126.964L209.556,146.417L215.611,118.871L221.667,122.135L227.722,101.18L233.778,92.512L239.833,94.138L245.889,127.843L251.944,81.439L258,91.056L264.056,84.929L270.111,38.463L276.167,30.433L282.222,43.245L288.278,70.603L294.333,74.464L300.389,85.072L306.444,94.569L312.5,104.631L318.556,129.681L324.611,130.43L330.667,100.568L336.722,101.78L342.778,108.238L348.833,118.753L354.889,147.105L360.944,176.479L367,182.636L373.056,164.099L379.111,139.208L385.167,150.832L391.222,117.391L397.278,127.36L403.333,136.672L409.389,138.676L415.444,143.94L421.5,135.011L427.556,125.643L433.611,134.251L439.667,88.368L445.722,98.642L451.778,117.032L457.833,119.162L463.889,153.724L469.944,175.905L476,175.014L482.056,171.959L488.111,182.972L494.167,207.001L500.222,200.082L506.278,162.913L512.333,187.142L518.389,183.862L524.444,186.516L530.5,158.143L536.556,226.875L542.611,218.869L548.667,238.883L554.722,240.513L560.778,264.684L566.833,263.058L572.889,278.632L578.944,319.772L585,315.551L591.056,284.349L597.111,319.443L603.167,294.797L609.222,294.79L615.278,300.383L621.333,320.203L627.389,305.79L633.444,337.753L639.5,380"/></g></svg>