<svg xmlns="http://www.w3.org/2000/svg" xmlns:xlink="http://www.w3.org/1999/xlink" class="plot-ec769f190eeaf" fill="currentColor" font-family="system-ui, sans-serif" font-size="10" text-anchor="middle" width="640" height="60" viewBox="0 0 640 60" style="color: black;"><style>
        .plot-ec769f190eeaf {
          display: block;
          background: white;
          height: auto;
          height: intrinsic;
          max-width: 100%;
        }
        .plot-ec769f190eeaf text,
        .plot-ec769f190eeaf tspan {
          white-space: pre;
        }
      </style><g aria-label="x-axis tick" fill="none" stroke="currentColor" transform="translate(0.5,0)"><path transform="translate(114.9524347494217,30)" d="M0,0L0,6"/><path transform="translate(217.78125421520795,30)" d="M0,0L0,6"/><path transform="translate(320.6100736809942,30)" d="M0,0L0,6"/><path transform="translate(423.4388931467805,30)" d="M0,0L0,6"/><path transform="translate(526.2677126125668,30)" d="M0,0L0,6"/></g><g aria-label="x-axis tick label" font-variant="tabular-nums" transform="translate(0.5,9.5)"><text y="0.71em" transform="translate(114.9524347494217,30)">−2</text><text y="0.71em" transform="translate(217.78125421520795,30)">−1</text><text y="0.71em" transform="translate(320.6100736809942,30)">0</text><text y="0.71em" transform="translate(423.4388931467805,30)">1</text><text y="0.71em" transform="translate(526.2677126125668,30)">2</text></g><g aria-label="tick" stroke="royalblue" transform="translate(0.5,0)"><line opacity="0.2" x1="326.51173104918337" x2="326.51173104918337" y1="0" y2="30"/><line opacity="0.2" x1="331.8677029841037" x2="331.8677029841037" y1="0" y2="30"/><line opacity="0.2" x1="309.4440420679854" x2="309.4440420679854" y1="0" y2="30"/><line opacity="0.2" x1="169.2453319182861" x2="169.2453319182861" y1="0" y2="30"/><line opacity="0.2" x1="88.01520109608302" x2="88.01520109608302" y1="0" y2="30"/><line opacity="0.2" x1="362.99420417032" x2="362.99420417032" y1="0" y2="30"/><line opacity="0.2" x1="230.03633358080197" x2="230.03633358080197" y1="0" y2="30"/><line opacity="0.2" x1="402.6171374686021" x2="402.6171374686021" y1="0" y2="30"/><line opacity="0.2" x1="406.7527531024577" x2="406.7527531024577" y1="0" y2="30"/><line opacity="0.2" x1="295.07120128942245" x2="295.07120128942245" y1="0" y2="30"/><line opacity="0.2" x1="363.11736062811605" x2="363.11736062811605" y1="0" y2="30"/><line opacity="0.2" x1="399.58515836878195" x2="399.58515836878195" y1="0" y2="30"/><line opacity="0.2" x1="476.50120332617956" x2="476.50120332617956" y1="0" y2="30"/><line opacity="0.2" x1="496.07279746392175" x2="496.07279746392175" y1="0" y2="30"/><line opacity="0.2" x1="209.08384556164822" x2="209.08384556164822" y1="0" y2="30"/><line opacity="0.2" x1="296.1557590761156" x2="296.1557590761156" y1="0" y2="30"/><line opacity="0.2" x1="363.5927579002152" x2="363.5927579002152" y1="0" y2="30"/><line opacity="0.2" x1="205.6321555792281" x2="205.6321555792281" y1="0" y2="30"/><line opacity="0.2" x1="440.65429618178734" x2="440.65429618178734" y1="0" y2="30"/><line opacity="0.2" x1="355.3969983084696" x2="355.3969983084696" y1="0" y2="30"/><line opacity="0.2" x1="236.2221164666627" x2="236.2221164666627" y1="0" y2="30"/><line opacity="0.2" x1="383.5130476817144" x2="383.5130476817144" y1="0" y2="30"/><line opacity="0.2" x1="330.7733166561088" x2="330.7733166561088" y1="0" y2="30"/><line opacity="0.2" x1="430.887682108348" x2="430.887682108348" y1="0" y2="30"/><line opacity="0.2" x1="218.2887425006622" x2="218.2887425006622" y1="0" y2="30"/><line opacity="0.2" x1="338.21864346708566" x2="338.21864346708566" y1="0" y2="30"/><line opacity="0.2" x1="348.7622723554716" x2="348.7622723554716" y1="0" y2="30"/><line opacity="0.2" x1="280.43483655065904" x2="280.43483655065904" y1="0" y2="30"/><line opacity="0.2" x1="311.3502424552471" x2="311.3502424552471" y1="0" y2="30"/><line opacity="0.2" x1="347.8785210728507" x2="347.8785210728507" y1="0" y2="30"/><line opacity="0.2" x1="155.8878011949232" x2="155.8878011949232" y1="0" y2="30"/><line opacity="0.2" x1="182.76227425092222" x2="182.76227425092222" y1="0" y2="30"/><line opacity="0.2" x1="457.231132789577" x2="457.231132789577" y1="0" y2="30"/><line opacity="0.2" x1="412.77363776204635" x2="412.77363776204635" y1="0" y2="30"/><line opacity="0.2" x1="252.8653522419368" x2="252.8653522419368" y1="0" y2="30"/><line opacity="0.2" x1="324.76950362884196" x2="324.76950362884196" y1="0" y2="30"/><line opacity="0.2" x1="339.05864707715375" x2="339.05864707715375" y1="0" y2="30"/><line opacity="0.2" x1="359.4257791454657" x2="359.4257791454657" y1="0" y2="30"/><line opacity="0.2" x1="283.9138134376606" x2="283.9138134376606" y1="0" y2="30"/><line opacity="0.2" x1="211.66147769216042" x2="211.66147769216042" y1="0" y2="30"/><line opacity="0.2" x1="272.161837184773" x2="272.161837184773" y1="0" y2="30"/><line opacity="0.2" x1="459.0601651016517" x2="459.0601651016517" y1="0" y2="30"/><line opacity="0.2" x1="181.970406157189" x2="181.970406157189" y1="0" y2="30"/><line opacity="0.2" x1="426.88576165825947" x2="426.88576165825947" y1="0" y2="30"/><line opacity="0.2" x1="349.872800362946" x2="349.872800362946" y1="0" y2="30"/><line opacity="0.2" x1="348.8781638937543" x2="348.8781638937543" y1="0" y2="30"/><line opacity="0.2" x1="255.73632677318471" x2="255.73632677318471" y1="0" y2="30"/><line opacity="0.2" x1="309.36998418547074" x2="309.36998418547074" y1="0" y2="30"/><line opacity="0.2" x1="391.7433109436956" x2="391.7433109436956" y1="0" y2="30"/><line opacity="0.2" x1="476.68776786634965" x2="476.68776786634965" y1="0" y2="30"/><line opacity="0.2" x1="270.84685204339337" x2="270.84685204339337" y1="0" y2="30"/><line opacity="0.2" x1="481.4339725190944" x2="481.4339725190944" y1="0" y2="30"/><line opacity="0.2" x1="284.903783378733" x2="284.903783378733" y1="0" y2="30"/><line opacity="0.2" x1="301.50320361862117" x2="301.50320361862117" y1="0" y2="30"/><line opacity="0.2" x1="442.45671845192993" x2="442.45671845192993" y1="0" y2="30"/><line opacity="0.2" x1="408.1629931207562" x2="408.1629931207562" y1="0" y2="30"/><line opacity="0.2" x1="280.82092981571736" x2="280.82092981571736" y1="0" y2="30"/><line opacity="0.2" x1="340.74624095459365" x2="340.74624095459365" y1="0" y2="30"/><line opacity="0.2" x1="469.62023238252624" x2="469.62023238252624" y1="0" y2="30"/><line opacity="0.2" x1="161.07349266173281" x2="161.07349266173281" y1="0" y2="30"/><line opacity="0.2" x1="450.2482693213211" x2="450.2482693213211" y1="0" y2="30"/><line opacity="0.2" x1="233.61704748278623" x2="233.61704748278623" y1="0" y2="30"/><line opacity="0.2" x1="346.0982933884462" x2="346.0982933884462" y1="0" y2="30"/><line opacity="0.2" x1="412.94213488128577" x2="412.94213488128577" y1="0" y2="30"/><line opacity="0.2" x1="532.0598920319154" x2="532.0598920319154" y1="0" y2="30"/><line opacity="0.2" x1="335.61201654217996" x2="335.61201654217996" y1="0" y2="30"/><line opacity="0.2" x1="289.2249504555473" x2="289.2249504555473" y1="0" y2="30"/><line opacity="0.2" x1="276.9999957503563" x2="276.9999957503563" y1="0" y2="30"/><line opacity="0.2" x1="507.14647774590304" x2="507.14647774590304" y1="0" y2="30"/><line opacity="0.2" x1="398.0838579707803" x2="398.0838579707803" y1="0" y2="30"/><line opacity="0.2" x1="347.39532066557035" x2="347.39532066557035" y1="0" y2="30"/><line opacity="0.2" x1="139.1755544476566" x2="139.1755544476566" y1="0" y2="30"/><line opacity="0.2" x1="498.95793637054004" x2="498.95793637054004" y1="0" y2="30"/><line opacity="0.2" x1="298.4314734151641" x2="298.4314734151641" y1="0" y2="30"/><line opacity="0.2" x1="452.59264489168515" x2="452.59264489168515" y1="0" y2="30"/><line opacity="0.2" x1="445.8121077020042" x2="445.8121077020042" y1="0" y2="30"/><line opacity="0.2" x1="215.64882131900248" x2="215.64882131900248" y1="0" y2="30"/><line opacity="0.2" x1="373.8204648267193" x2="373.8204648267193" y1="0" y2="30"/><line opacity="0.2" x1="398.53977397362456" x2="398.53977397362456" y1="0" y2="30"/><line opacity="0.2" x1="417.3348380102717" x2="417.3348380102717" y1="0" y2="30"/><line opacity="0.2" x1="201.65537145412898" x2="201.65537145412898" y1="0" y2="30"/><line opacity="0.2" x1="323.01035876028755" x2="323.01035876028755" y1="0" y2="30"/><line opacity="0.2" x1="160.54626627422883" x2="160.54626627422883" y1="0" y2="30"/><line opacity="0.2" x1="475.04826619339593" x2="475.04826619339593" y1="0" y2="30"/><line opacity="0.2" x1="252.60180055712124" x2="252.60180055712124" y1="0" y2="30"/><line opacity="0.2" x1="126.75445791319075" x2="126.75445791319075" y1="0" y2="30"/><line opacity="0.2" x1="275.5731065988328" x2="275.5731065988328" y1="0" y2="30"/><line opacity="0.2" x1="319.23532443227646" x2="319.23532443227646" y1="0" y2="30"/><line opacity="0.2" x1="151.53328192538504" x2="151.53328192538504" y1="0" y2="30"/><line opacity="0.2" x1="487.6835541093531" x2="487.6835541093531" y1="0" y2="30"/><line opacity="0.2" x1="312.5653208674484" x2="312.5653208674484" y1="0" y2="30"/><line opacity="0.2" x1="197.08937537028223" x2="197.08937537028223" y1="0" y2="30"/><line opacity="0.2" x1="218.39323700000017" x2="218.39323700000017" y1="0" y2="30"/><line opacity="0.2" x1="350.74825207698774" x2="350.74825207698774" y1="0" y2="30"/><line opacity="0.2" x1="448.01957937831554" x2="448.01957937831554" y1="0" y2="30"/><line opacity="0.2" x1="381.9515879907213" x2="381.9515879907213" y1="0" y2="30"/><line opacity="0.2" x1="255.65471599597362" x2="255.65471599597362" y1="0" y2="30"/><line opacity="0.2" x1="348.29163180235435" x2="348.29163180235435" y1="0" y2="30"/><line opacity="0.2" x1="480.3955546418701" x2="480.3955546418701" y1="0" y2="30"/><line opacity="0.2" x1="318.68988037548587" x2="318.68988037548587" y1="0" y2="30"/><line opacity="0.2" x1="396.8525553087603" x2="396.8525553087603" y1="0" y2="30"/><line opacity="0.2" x1="489.08685840985623" x2="489.08685840985623" y1="0" y2="30"/><line opacity="0.2" x1="328.42131694005445" x2="328.42131694005445" y1="0" y2="30"/><line opacity="0.2" x1="182.5293518102842" x2="182.5293518102842" y1="0" y2="30"/><line opacity="0.2" x1="177.93229157174505" x2="177.93229157174505" y1="0" y2="30"/><line opacity="0.2" x1="345.87174511792546" x2="345.87174511792546" y1="0" y2="30"/><line opacity="0.2" x1="345.7539990030937" x2="345.7539990030937" y1="0" y2="30"/><line opacity="0.2" x1="272.52071769799267" x2="272.52071769799267" y1="0" y2="30"/><line opacity="0.2" x1="227.73519229891187" x2="227.73519229891187" y1="0" y2="30"/><line opacity="0.2" x1="529.4276816066107" x2="529.4276816066107" y1="0" y2="30"/><line opacity="0.2" x1="406.43497604802593" x2="406.43497604802593" y1="0" y2="30"/><line opacity="0.2" x1="373.11838079686004" x2="373.11838079686004" y1="0" y2="30"/><line opacity="0.2" x1="296.8119529733082" x2="296.8119529733082" y1="0" y2="30"/><line opacity="0.2" x1="253.11008717601737" x2="253.11008717601737" y1="0" y2="30"/><line opacity="0.2" x1="324.8380320082061" x2="324.8380320082061" y1="0" y2="30"/><line opacity="0.2" x1="550.8429320678287" x2="550.8429320678287" y1="0" y2="30"/><line opacity="0.2" x1="456.7232036611799" x2="456.7232036611799" y1="0" y2="30"/><line opacity="0.2" x1="232.67004785026728" x2="232.67004785026728" y1="0" y2="30"/><line opacity="0.2" x1="302.1917019798429" x2="302.1917019798429" y1="0" y2="30"/><line opacity="0.2" x1="413.1653279032309" x2="413.1653279032309" y1="0" y2="30"/><line opacity="0.2" x1="445.36884413064524" x2="445.36884413064524" y1="0" y2="30"/><line opacity="0.2" x1="209.4766824917721" x2="209.4766824917721" y1="0" y2="30"/><line opacity="0.2" x1="388.3040116442875" x2="388.3040116442875" y1="0" y2="30"/><line opacity="0.2" x1="340.6075065685656" x2="340.6075065685656" y1="0" y2="30"/><line opacity="0.2" x1="177.99059671904146" x2="177.99059671904146" y1="0" y2="30"/><line opacity="0.2" x1="284.90353242657346" x2="284.90353242657346" y1="0" y2="30"/><line opacity="0.2" x1="195.26065677957055" x2="195.26065677957055" y1="0" y2="30"/><line opacity="0.2" x1="319.82642966787574" x2="319.82642966787574" y1="0" y2="30"/><line opacity="0.2" x1="374.32957355169873" x2="374.32957355169873" y1="0" y2="30"/><line opacity="0.2" x1="363.9305919792102" x2="363.9305919792102" y1="0" y2="30"/><line opacity="0.2" x1="462.39303566956465" x2="462.39303566956465" y1="0" y2="30"/><line opacity="0.2" x1="420.98512725415986" x2="420.98512725415986" y1="0" y2="30"/><line opacity="0.2" x1="453.1747368144421" x2="453.1747368144421" y1="0" y2="30"/><line opacity="0.2" x1="190.95932089557058" x2="190.95932089557058" y1="0" y2="30"/><line opacity="0.2" x1="292.0329390031827" x2="292.0329390031827" y1="0" y2="30"/><line opacity="0.2" x1="284.60869935938524" x2="284.60869935938524" y1="0" y2="30"/><line opacity="0.2" x1="268.8516669984477" x2="268.8516669984477" y1="0" y2="30"/><line opacity="0.2" x1="550.3798685906876" x2="550.3798685906876" y1="0" y2="30"/><line opacity="0.2" x1="307.09600624842096" x2="307.09600624842096" y1="0" y2="30"/><line opacity="0.2" x1="400.9648381979521" x2="400.9648381979521" y1="0" y2="30"/><line opacity="0.2" x1="376.62115093934926" x2="376.62115093934926" y1="0" y2="30"/><line opacity="0.2" x1="449.61616212640143" x2="449.61616212640143" y1="0" y2="30"/><line opacity="0.2" x1="462.10522010757904" x2="462.10522010757904" y1="0" y2="30"/><line opacity="0.2" x1="223.34173310160173" x2="223.34173310160173" y1="0" y2="30"/><line opacity="0.2" x1="322.77383292724323" x2="322.77383292724323" y1="0" y2="30"/><line opacity="0.2" x1="225.84412866892106" x2="225.84412866892106" y1="0" y2="30"/><line opacity="0.2" x1="496.65251518898083" x2="496.65251518898083" y1="0" y2="30"/><line opacity="0.2" x1="277.96225627394335" x2="277.96225627394335" y1="0" y2="30"/><line opacity="0.2" x1="312.29583924553464" x2="312.29583924553464" y1="0" y2="30"/><line opacity="0.2" x1="242.27459073986188" x2="242.27459073986188" y1="0" y2="30"/><line opacity="0.2" x1="498.6676792094435" x2="498.6676792094435" y1="0" y2="30"/><line opacity="0.2" x1="223.48342592677645" x2="223.48342592677645" y1="0" y2="30"/><line opacity="0.2" x1="350.41365414863685" x2="350.41365414863685" y1="0" y2="30"/><line opacity="0.2" x1="266.05273938674975" x2="266.05273938674975" y1="0" y2="30"/><line opacity="0.2" x1="193.72970748867533" x2="193.72970748867533" y1="0" y2="30"/><line opacity="0.2" x1="356.77188508851543" x2="356.77188508851543" y1="0" y2="30"/><line opacity="0.2" x1="390.02762561470024" x2="390.02762561470024" y1="0" y2="30"/><line opacity="0.2" x1="383.1896683754792" x2="383.1896683754792" y1="0" y2="30"/><line opacity="0.2" x1="363.92695655515195" x2="363.92695655515195" y1="0" y2="30"/><line opacity="0.2" x1="218.32611627496578" x2="218.32611627496578" y1="0" y2="30"/><line opacity="0.2" x1="403.78269555162143" x2="403.78269555162143" y1="0" y2="30"/><line opacity="0.2" x1="287.1001396202081" x2="287.1001396202081" y1="0" y2="30"/><line opacity="0.2" x1="552.2507017682199" x2="552.2507017682199" y1="0" y2="30"/><line opacity="0.2" x1="283.7511224269133" x2="283.7511224269133" y1="0" y2="30"/><line opacity="0.2" x1="194.32666430833592" x2="194.32666430833592" y1="0" y2="30"/><line opacity="0.2" x1="206.44491627578736" x2="206.44491627578736" y1="0" y2="30"/><line opacity="0.2" x1="351.3707551414069" x2="351.3707551414069" y1="0" y2="30"/><line opacity="0.2" x1="267.2215204220825" x2="267.2215204220825" y1="0" y2="30"/><line opacity="0.2" x1="257.8374952503412" x2="257.8374952503412" y1="0" y2="30"/><line opacity="0.2" x1="296.3519953009972" x2="296.3519953009972" y1="0" y2="30"/><line opacity="0.2" x1="137.46875135873827" x2="137.46875135873827" y1="0" y2="30"/><line opacity="0.2" x1="582.6170471144875" x2="582.6170471144875" y1="0" y2="30"/><line opacity="0.2" x1="339.44976995024433" x2="339.44976995024433" y1="0" y2="30"/><line opacity="0.2" x1="516.259986305395" x2="516.259986305395" y1="0" y2="30"/><line opacity="0.2" x1="299.5073941995099" x2="299.5073941995099" y1="0" y2="30"/><line opacity="0.2" x1="469.75188889826916" x2="469.75188889826916" y1="0" y2="30"/><line opacity="0.2" x1="422.8815878794898" x2="422.8815878794898" y1="0" y2="30"/><line opacity="0.2" x1="84.6859128819226" x2="84.6859128819226" y1="0" y2="30"/><line opacity="0.2" x1="340.4977396041749" x2="340.4977396041749" y1="0" y2="30"/><line opacity="0.2" x1="457.5241905041134" x2="457.5241905041134" y1="0" y2="30"/><line opacity="0.2" x1="332.02217774774186" x2="332.02217774774186" y1="0" y2="30"/><line opacity="0.2" x1="252.93877427220642" x2="252.93877427220642" y1="0" y2="30"/><line opacity="0.2" x1="297.1086906132881" x2="297.1086906132881" y1="0" y2="30"/><line opacity="0.2" x1="322.3556705988641" x2="322.3556705988641" y1="0" y2="30"/><line opacity="0.2" x1="284.4719838933336" x2="284.4719838933336" y1="0" y2="30"/><line opacity="0.2" x1="238.96841644545296" x2="238.96841644545296" y1="0" y2="30"/><line opacity="0.2" x1="455.8327890111882" x2="455.8327890111882" y1="0" y2="30"/><line opacity="0.2" x1="407.0789622427834" x2="407.0789622427834" y1="0" y2="30"/><line opacity="0.2" x1="328.692924596737" x2="328.692924596737" y1="0" y2="30"/><line opacity="0.2" x1="148.05609947536075" x2="148.05609947536075" y1="0" y2="30"/><line opacity="0.2" x1="375.40680834192926" x2="375.40680834192926" y1="0" y2="30"/><line opacity="0.2" x1="398.56913214642344" x2="398.56913214642344" y1="0" y2="30"/><line opacity="0.2" x1="246.93311912523518" x2="246.93311912523518" y1="0" y2="30"/><line opacity="0.2" x1="439.8524429402611" x2="439.8524429402611" y1="0" y2="30"/><line opacity="0.2" x1="384.93387478116375" x2="384.93387478116375" y1="0" y2="30"/><line opacity="0.2" x1="364.808368008108" x2="364.808368008108" y1="0" y2="30"/><line opacity="0.2" x1="395.04567804451517" x2="395.04567804451517" y1="0" y2="30"/><line opacity="0.2" x1="310.7365411113106" x2="310.7365411113106" y1="0" y2="30"/><line opacity="0.2" x1="336.3945686604176" x2="336.3945686604176" y1="0" y2="30"/><line opacity="0.2" x1="343.7422072875455" x2="343.7422072875455" y1="0" y2="30"/><line opacity="0.2" x1="414.86090394367096" x2="414.86090394367096" y1="0" y2="30"/><line opacity="0.2" x1="287.48593180857694" x2="287.48593180857694" y1="0" y2="30"/><line opacity="0.2" x1="267.29083003788793" x2="267.29083003788793" y1="0" y2="30"/><line opacity="0.2" x1="446.85602947579906" x2="446.85602947579906" y1="0" y2="30"/><line opacity="0.2" x1="211.0360148572784" x2="211.0360148572784" y1="0" y2="30"/><line opacity="0.2" x1="153.88427323099916" x2="153.88427323099916" y1="0" y2="30"/><line opacity="0.2" x1="171.38358051927983" x2="171.38358051927983" y1="0" y2="30"/><line opacity="0.2" x1="275.95951162342067" x2="275.95951162342067" y1="0" y2="30"/><line opacity="0.2" x1="159.32388689083714" x2="159.32388689083714" y1="0" y2="30"/><line opacity="0.2" x1="275.66051555786095" x2="275.66051555786095" y1="0" y2="30"/><line opacity="0.2" x1="263.6100528955674" x2="263.6100528955674" y1="0" y2="30"/><line opacity="0.2" x1="414.89532587583784" x2="414.89532587583784" y1="0" y2="30"/><line opacity="0.2" x1="282.0915751779242" x2="282.0915751779242" y1="0" y2="30"/><line opacity="0.2" x1="283.7974612849363" x2="283.7974612849363" y1="0" y2="30"/><line opacity="0.2" x1="275.8821610824609" x2="275.8821610824609" y1="0" y2="30"/><line opacity="0.2" x1="184.96543286385318" x2="184.96543286385318" y1="0" y2="30"/><line opacity="0.2" x1="304.68359726595895" x2="304.68359726595895" y1="0" y2="30"/><line opacity="0.2" x1="297.00437257049606" x2="297.00437257049606" y1="0" y2="30"/><line opacity="0.2" x1="171.92539199706437" x2="171.92539199706437" y1="0" y2="30"/><line opacity="0.2" x1="313.5488871944046" x2="313.5488871944046" y1="0" y2="30"/><line opacity="0.2" x1="386.348463784207" x2="386.348463784207" y1="0" y2="30"/><line opacity="0.2" x1="351.0778639697668" x2="351.0778639697668" y1="0" y2="30"/><line opacity="0.2" x1="150.2137437454653" x2="150.2137437454653" y1="0" y2="30"/><line opacity="0.2" x1="406.6322801090186" x2="406.6322801090186" y1="0" y2="30"/><line opacity="0.2" x1="435.3353652621766" x2="435.3353652621766" y1="0" y2="30"/><line opacity="0.2" x1="491.6240069198852" x2="491.6240069198852" y1="0" y2="30"/><line opacity="0.2" x1="185.59808566015903" x2="185.59808566015903" y1="0" y2="30"/><line opacity="0.2" x1="194.37366439464125" x2="194.37366439464125" y1="0" y2="30"/><line opacity="0.2" x1="301.78846787245635" x2="301.78846787245635" y1="0" y2="30"/><line opacity="0.2" x1="246.5934552964694" x2="246.5934552964694" y1="0" y2="30"/><line opacity="0.2" x1="319.0158681849592" x2="319.0158681849592" y1="0" y2="30"/><line opacity="0.2" x1="331.5018877482606" x2="331.5018877482606" y1="0" y2="30"/><line opacity="0.2" x1="198.5171633287926" x2="198.5171633287926" y1="0" y2="30"/><line opacity="0.2" x1="333.0563357151785" x2="333.0563357151785" y1="0" y2="30"/><line opacity="0.2" x1="352.3478068851586" x2="352.3478068851586" y1="0" y2="30"/><line opacity="0.2" x1="345.1659829033101" x2="345.1659829033101" y1="0" y2="30"/><line opacity="0.2" x1="260.96343078468345" x2="260.96343078468345" y1="0" y2="30"/><line opacity="0.2" x1="95.00929803967809" x2="95.00929803967809" y1="0" y2="30"/><line opacity="0.2" x1="202.39330740940716" x2="202.39330740940716" y1="0" y2="30"/><line opacity="0.2" x1="298.1369422719781" x2="298.1369422719781" y1="0" y2="30"/><line opacity="0.2" x1="278.9619829058187" x2="278.9619829058187" y1="0" y2="30"/><line opacity="0.2" x1="505.26391654236954" x2="505.26391654236954" y1="0" y2="30"/><line opacity="0.2" x1="444.91243941702464" x2="444.91243941702464" y1="0" y2="30"/><line opacity="0.2" x1="204.72471830336605" x2="204.72471830336605" y1="0" y2="30"/><line opacity="0.2" x1="470.9209182363925" x2="470.9209182363925" y1="0" y2="30"/><line opacity="0.2" x1="480.41112364694897" x2="480.41112364694897" y1="0" y2="30"/><line opacity="0.2" x1="382.95349006419826" x2="382.95349006419826" y1="0" y2="30"/><line opacity="0.2" x1="225.24013396786387" x2="225.24013396786387" y1="0" y2="30"/><line opacity="0.2" x1="331.7813846801476" x2="331.7813846801476" y1="0" y2="30"/><line opacity="0.2" x1="160.00245844453138" x2="160.00245844453138" y1="0" y2="30"/><line opacity="0.2" x1="227.5397589165391" x2="227.5397589165391" y1="0" y2="30"/><line opacity="0.2" x1="580.846495896295" x2="580.846495896295" y1="0" y2="30"/><line opacity="0.2" x1="219.9363377524184" x2="219.9363377524184" y1="0" y2="30"/><line opacity="0.2" x1="302.974314661914" x2="302.974314661914" y1="0" y2="30"/><line opacity="0.2" x1="284.98904409229607" x2="284.98904409229607" y1="0" y2="30"/><line opacity="0.2" x1="463.08702956696334" x2="463.08702956696334" y1="0" y2="30"/><line opacity="0.2" x1="432.78311150887066" x2="432.78311150887066" y1="0" y2="30"/><line opacity="0.2" x1="363.8345930603048" x2="363.8345930603048" y1="0" y2="30"/><line opacity="0.2" x1="456.73027824663626" x2="456.73027824663626" y1="0" y2="30"/><line opacity="0.2" x1="179.61102397120527" x2="179.61102397120527" y1="0" y2="30"/><line opacity="0.2" x1="126.04729925117397" x2="126.04729925117397" y1="0" y2="30"/><line opacity="0.2" x1="188.12182788641474" x2="188.12182788641474" y1="0" y2="30"/><line opacity="0.2" x1="485.42863121822865" x2="485.42863121822865" y1="0" y2="30"/><line opacity="0.2" x1="180.6837263327561" x2="180.6837263327561" y1="0" y2="30"/><line opacity="0.2" x1="284.0064288341211" x2="284.0064288341211" y1="0" y2="30"/><line opacity="0.2" x1="441.7996205269154" x2="441.7996205269154" y1="0" y2="30"/><line opacity="0.2" x1="324.6981744272099" x2="324.6981744272099" y1="0" y2="30"/><line opacity="0.2" x1="349.68753926793175" x2="349.68753926793175" y1="0" y2="30"/><line opacity="0.2" x1="309.97061596052015" x2="309.97061596052015" y1="0" y2="30"/><line opacity="0.2" x1="380.0871672549026" x2="380.0871672549026" y1="0" y2="30"/><line opacity="0.2" x1="295.45636069916657" x2="295.45636069916657" y1="0" y2="30"/><line opacity="0.2" x1="353.85828733640335" x2="353.85828733640335" y1="0" y2="30"/><line opacity="0.2" x1="177.10023404885422" x2="177.10023404885422" y1="0" y2="30"/><line opacity="0.2" x1="512.2386512648544" x2="512.2386512648544" y1="0" y2="30"/><line opacity="0.2" x1="460.5643530925564" x2="460.5643530925564" y1="0" y2="30"/><line opacity="0.2" x1="192.6134224367223" x2="192.6134224367223" y1="0" y2="30"/><line opacity="0.2" x1="96.4534548826117" x2="96.4534548826117" y1="0" y2="30"/><line opacity="0.2" x1="499.96717815827094" x2="499.96717815827094" y1="0" y2="30"/><line opacity="0.2" x1="271.59747771899964" x2="271.59747771899964" y1="0" y2="30"/><line opacity="0.2" x1="299.64350137638263" x2="299.64350137638263" y1="0" y2="30"/><line opacity="0.2" x1="115.5637149776062" x2="115.5637149776062" y1="0" y2="30"/><line opacity="0.2" x1="466.5303817146744" x2="466.5303817146744" y1="0" y2="30"/><line opacity="0.2" x1="452.6916581270609" x2="452.6916581270609" y1="0" y2="30"/><line opacity="0.2" x1="412.66457937028173" x2="412.66457937028173" y1="0" y2="30"/><line opacity="0.2" x1="273.37689866296586" x2="273.37689866296586" y1="0" y2="30"/><line opacity="0.2" x1="250.11829678490054" x2="250.11829678490054" y1="0" y2="30"/><line opacity="0.2" x1="315.38858113362784" x2="315.38858113362784" y1="0" y2="30"/><line opacity="0.2" x1="199.23490374623373" x2="199.23490374623373" y1="0" y2="30"/><line opacity="0.2" x1="399.99715486811374" x2="399.99715486811374" y1="0" y2="30"/><line opacity="0.2" x1="135.68295298109263" x2="135.68295298109263" y1="0" y2="30"/><line opacity="0.2" x1="95.41177360627003" x2="95.41177360627003" y1="0" y2="30"/><line opacity="0.2" x1="351.18809519551246" x2="351.18809519551246" y1="0" y2="30"/><line opacity="0.2" x1="185.0215624615865" x2="185.0215624615865" y1="0" y2="30"/><line opacity="0.2" x1="355.8861577637431" x2="355.8861577637431" y1="0" y2="30"/><line opacity="0.2" x1="275.6720318592003" x2="275.6720318592003" y1="0" y2="30"/><line opacity="0.2" x1="330.4329474109244" x2="330.4329474109244" y1="0" y2="30"/><line opacity="0.2" x1="378.22250941794334" x2="378.22250941794334" y1="0" y2="30"/><line opacity="0.2" x1="422.02616225774267" x2="422.02616225774267" y1="0" y2="30"/><line opacity="0.2" x1="135.91457862173388" x2="135.91457862173388" y1="0" y2="30"/><line opacity="0.2" x1="472.37399385687684" x2="472.37399385687684" y1="0" y2="30"/><line opacity="0.2" x1="309.01703913228107" x2="309.01703913228107" y1="0" y2="30"/><line opacity="0.2" x1="382.22792313721186" x2="382.22792313721186" y1="0" y2="30"/><line opacity="0.2" x1="426.34413305211916" x2="426.34413305211916" y1="0" y2="30"/><line opacity="0.2" x1="431.23219252223345" x2="431.23219252223345" y1="0" y2="30"/><line opacity="0.2" x1="354.022218065815" x2="354.022218065815" y1="0" y2="30"/><line opacity="0.2" x1="443.195414215539" x2="443.195414215539" y1="0" y2="30"/><line opacity="0.2" x1="414.33030889902835" x2="414.33030889902835" y1="0" y2="30"/><line opacity="0.2" x1="275.65773479193746" x2="275.65773479193746" y1="0" y2="30"/><line opacity="0.2" x1="226.53720683837972" x2="226.53720683837972" y1="0" y2="30"/><line opacity="0.2" x1="229.30325865336874" x2="229.30325865336874" y1="0" y2="30"/><line opacity="0.2" x1="443.02468878840756" x2="443.02468878840756" y1="0" y2="30"/><line opacity="0.2" x1="528.237486639541" x2="528.237486639541" y1="0" y2="30"/><line opacity="0.2" x1="273.33487722061227" x2="273.33487722061227" y1="0" y2="30"/><line opacity="0.2" x1="261.7383392633964" x2="261.7383392633964" y1="0" y2="30"/><line opacity="0.2" x1="243.92141650234785" x2="243.92141650234785" y1="0" y2="30"/><line opacity="0.2" x1="296.46892612350507" x2="296.46892612350507" y1="0" y2="30"/><line opacity="0.2" x1="392.0196103738035" x2="392.0196103738035" y1="0" y2="30"/><line opacity="0.2" x1="376.4470187695286" x2="376.4470187695286" y1="0" y2="30"/><line opacity="0.2" x1="353.25783948581136" x2="353.25783948581136" y1="0" y2="30"/><line opacity="0.2" x1="500.78308151445975" x2="500.78308151445975" y1="0" y2="30"/><line opacity="0.2" x1="432.5308700997406" x2="432.5308700997406" y1="0" y2="30"/><line opacity="0.2" x1="273.75973912700425" x2="273.75973912700425" y1="0" y2="30"/><line opacity="0.2" x1="497.9382684936233" x2="497.9382684936233" y1="0" y2="30"/><line opacity="0.2" x1="266.217293587887" x2="266.217293587887" y1="0" y2="30"/><line opacity="0.2" x1="254.52715991279632" x2="254.52715991279632" y1="0" y2="30"/><line opacity="0.2" x1="297.0873242881644" x2="297.0873242881644" y1="0" y2="30"/><line opacity="0.2" x1="247.99091968362336" x2="247.99091968362336" y1="0" y2="30"/><line opacity="0.2" x1="183.38290762992614" x2="183.38290762992614" y1="0" y2="30"/><line opacity="0.2" x1="330.0044256807239" x2="330.0044256807239" y1="0" y2="30"/><line opacity="0.2" x1="163.09750632952773" x2="163.09750632952773" y1="0" y2="30"/><line opacity="0.2" x1="363.2562211183617" x2="363.2562211183617" y1="0" y2="30"/><line opacity="0.2" x1="341.2214335872205" x2="341.2214335872205" y1="0" y2="30"/><line opacity="0.2" x1="334.2137313520693" x2="334.2137313520693" y1="0" y2="30"/><line opacity="0.2" x1="333.6361380002093" x2="333.6361380002093" y1="0" y2="30"/><line opacity="0.2" x1="421.01715882108186" x2="421.01715882108186" y1="0" y2="30"/><line opacity="0.2" x1="266.02748106109726" x2="266.02748106109726" y1="0" y2="30"/><line opacity="0.2" x1="358.64979366992395" x2="358.64979366992395" y1="0" y2="30"/><line opacity="0.2" x1="250.4502911350894" x2="250.4502911350894" y1="0" y2="30"/><line opacity="0.2" x1="297.361670463058" x2="297.361670463058" y1="0" y2="30"/><line opacity="0.2" x1="238.46886214703744" x2="238.46886214703744" y1="0" y2="30"/><line opacity="0.2" x1="236.7403137587993" x2="236.7403137587993" y1="0" y2="30"/><line opacity="0.2" x1="180.3948479992929" x2="180.3948479992929" y1="0" y2="30"/><line opacity="0.2" x1="329.6081454497017" x2="329.6081454497017" y1="0" y2="30"/><line opacity="0.2" x1="315.66607737212155" x2="315.66607737212155" y1="0" y2="30"/><line opacity="0.2" x1="278.09676503098376" x2="278.09676503098376" y1="0" y2="30"/><line opacity="0.2" x1="378.1448561718733" x2="378.1448561718733" y1="0" y2="30"/><line opacity="0.2" x1="158.08583542233907" x2="158.08583542233907" y1="0" y2="30"/><line opacity="0.2" x1="199.68484492949287" x2="199.68484492949287" y1="0" y2="30"/><line opacity="0.2" x1="253.06864103330233" x2="253.06864103330233" y1="0" y2="30"/><line opacity="0.2" x1="415.3567380199678" x2="415.3567380199678" y1="0" y2="30"/><line opacity="0.2" x1="287.60717836669403" x2="287.60717836669403" y1="0" y2="30"/><line opacity="0.2" x1="456.46662601059404" x2="456.46662601059404" y1="0" y2="30"/><line opacity="0.2" x1="175.4246921032664" x2="175.4246921032664" y1="0" y2="30"/><line opacity="0.2" x1="360.03463096090843" x2="360.03463096090843" y1="0" y2="30"/><line opacity="0.2" x1="170.77214015498998" x2="170.77214015498998" y1="0" y2="30"/><line opacity="0.2" x1="381.76497480190073" x2="381.76497480190073" y1="0" y2="30"/><line opacity="0.2" x1="446.2396432355496" x2="446.2396432355496" y1="0" y2="30"/><line opacity="0.2" x1="223.12873845468522" x2="223.12873845468522" y1="0" y2="30"/><line opacity="0.2" x1="468.47629275324806" x2="468.47629275324806" y1="0" y2="30"/><line opacity="0.2" x1="253.5300518279897" x2="253.5300518279897" y1="0" y2="30"/><line opacity="0.2" x1="337.1280551924392" x2="337.1280551924392" y1="0" y2="30"/><line opacity="0.2" x1="324.021073033099" x2="324.021073033099" y1="0" y2="30"/><line opacity="0.2" x1="256.0350603126156" x2="256.0350603126156" y1="0" y2="30"/><line opacity="0.2" x1="467.4418885517723" x2="467.4418885517723" y1="0" y2="30"/><line opacity="0.2" x1="288.59649622182513" x2="288.59649622182513" y1="0" y2="30"/><line opacity="0.2" x1="335.85265790481543" x2="335.85265790481543" y1="0" y2="30"/><line opacity="0.2" x1="129.4303081073562" x2="129.4303081073562" y1="0" y2="30"/><line opacity="0.2" x1="268.197948329649" x2="268.197948329649" y1="0" y2="30"/><line opacity="0.2" x1="305.75994734270444" x2="305.75994734270444" y1="0" y2="30"/><line opacity="0.2" x1="332.54882276680473" x2="332.54882276680473" y1="0" y2="30"/><line opacity="0.2" x1="292.99159884636487" x2="292.99159884636487" y1="0" y2="30"/><line opacity="0.2" x1="114.18116562337778" x2="114.18116562337778" y1="0" y2="30"/><line opacity="0.2" x1="335.3875913062724" x2="335.3875913062724" y1="0" y2="30"/><line opacity="0.2" x1="370.39255355315277" x2="370.39255355315277" y1="0" y2="30"/><line opacity="0.2" x1="318.5586550360123" x2="318.5586550360123" y1="0" y2="30"/><line opacity="0.2" x1="435.37351882657185" x2="435.37351882657185" y1="0" y2="30"/><line opacity="0.2" x1="329.4601489135243" x2="329.4601489135243" y1="0" y2="30"/><line opacity="0.2" x1="431.89729181968295" x2="431.89729181968295" y1="0" y2="30"/><line opacity="0.2" x1="317.2245329647196" x2="317.2245329647196" y1="0" y2="30"/><line opacity="0.2" x1="317.9232591665074" x2="317.9232591665074" y1="0" y2="30"/><line opacity="0.2" x1="388.01653760787923" x2="388.01653760787923" y1="0" y2="30"/><line opacity="0.2" x1="341.1606953042005" x2="341.1606953042005" y1="0" y2="30"/><line opacity="0.2" x1="362.10604133249" x2="362.10604133249" y1="0" y2="30"/><line opacity="0.2" x1="382.88029751319823" x2="382.88029751319823" y1="0" y2="30"/><line opacity="0.2" x1="595.3770531149354" x2="595.3770531149354" y1="0" y2="30"/><line opacity="0.2" x1="125.66430160773147" x2="125.66430160773147" y1="0" y2="30"/><line opacity="0.2" x1="354.65447382082823" x2="354.65447382082823" y1="0" y2="30"/><line opacity="0.2" x1="306.7898163265726" x2="306.7898163265726" y1="0" y2="30"/><line opacity="0.2" x1="317.2076802211102" x2="317.2076802211102" y1="0" y2="30"/><line opacity="0.2" x1="138.18337011970726" x2="138.18337011970726" y1="0" y2="30"/><line opacity="0.2" x1="369.7915053321215" x2="369.7915053321215" y1="0" y2="30"/><line opacity="0.2" x1="348.5134852389898" x2="348.5134852389898" y1="0" y2="30"/><line opacity="0.2" x1="263.8539095084189" x2="263.8539095084189" y1="0" y2="30"/><line opacity="0.2" x1="297.5250558466371" x2="297.5250558466371" y1="0" y2="30"/><line opacity="0.2" x1="409.68643294621415" x2="409.68643294621415" y1="0" y2="30"/><line opacity="0.2" x1="247.6219301838047" x2="247.6219301838047" y1="0" y2="30"/><line opacity="0.2" x1="407.5344262404035" x2="407.5344262404035" y1="0" y2="30"/><line opacity="0.2" x1="351.7015778054826" x2="351.7015778054826" y1="0" y2="30"/><line opacity="0.2" x1="388.2175072447397" x2="388.2175072447397" y1="0" y2="30"/><line opacity="0.2" x1="326.18365439535404" x2="326.18365439535404" y1="0" y2="30"/><line opacity="0.2" x1="423.5113654957665" x2="423.5113654957665" y1="0" y2="30"/><line opacity="0.2" x1="264.2346638903983" x2="264.2346638903983" y1="0" y2="30"/><line opacity="0.2" x1="374.03073190601555" x2="374.03073190601555" y1="0" y2="30"/><line opacity="0.2" x1="308.11520112193807" x2="308.11520112193807" y1="0" y2="30"/><line opacity="0.2" x1="150.65927054202905" x2="150.65927054202905" y1="0" y2="30"/><line opacity="0.2" x1="181.6895007991992" x2="181.6895007991992" y1="0" y2="30"/><line opacity="0.2" x1="317.37446113894896" x2="317.37446113894896" y1="0" y2="30"/><line opacity="0.2" x1="323.44372667349126" x2="323.44372667349126" y1="0" y2="30"/><line opacity="0.2" x1="182.08298192051083" x2="182.08298192051083" y1="0" y2="30"/><line opacity="0.2" x1="348.9729227303026" x2="348.9729227303026" y1="0" y2="30"/><line opacity="0.2" x1="361.37598680281457" x2="361.37598680281457" y1="0" y2="30"/><line opacity="0.2" x1="426.85219557099435" x2="426.85219557099435" y1="0" y2="30"/><line opacity="0.2" x1="296.6245691125547" x2="296.6245691125547" y1="0" y2="30"/><line opacity="0.2" x1="295.21820981120766" x2="295.21820981120766" y1="0" y2="30"/><line opacity="0.2" x1="384.21012009852615" x2="384.21012009852615" y1="0" y2="30"/><line opacity="0.2" x1="348.1115204689335" x2="348.1115204689335" y1="0" y2="30"/><line opacity="0.2" x1="106.51165739113097" x2="106.51165739113097" y1="0" y2="30"/><line opacity="0.2" x1="315.20304546589114" x2="315.20304546589114" y1="0" y2="30"/><line opacity="0.2" x1="100.25533082053845" x2="100.25533082053845" y1="0" y2="30"/><line opacity="0.2" x1="391.9504908091335" x2="391.9504908091335" y1="0" y2="30"/><line opacity="0.2" x1="423.78369061961126" x2="423.78369061961126" y1="0" y2="30"/><line opacity="0.2" x1="396.4269143910256" x2="396.4269143910256" y1="0" y2="30"/><line opacity="0.2" x1="250.5739161037364" x2="250.5739161037364" y1="0" y2="30"/><line opacity="0.2" x1="351.6897484621905" x2="351.6897484621905" y1="0" y2="30"/><line opacity="0.2" x1="220.51184330210012" x2="220.51184330210012" y1="0" y2="30"/><line opacity="0.2" x1="408.61067229917137" x2="408.61067229917137" y1="0" y2="30"/><line opacity="0.2" x1="437.5607148981071" x2="437.5607148981071" y1="0" y2="30"/><line opacity="0.2" x1="394.1168710682637" x2="394.1168710682637" y1="0" y2="30"/><line opacity="0.2" x1="287.55746637764236" x2="287.55746637764236" y1="0" y2="30"/><line opacity="0.2" x1="477.01733950368487" x2="477.01733950368487" y1="0" y2="30"/><line opacity="0.2" x1="289.81168453880815" x2="289.81168453880815" y1="0" y2="30"/><line opacity="0.2" x1="302.6720076173013" x2="302.6720076173013" y1="0" y2="30"/><line opacity="0.2" x1="364.64628243172484" x2="364.64628243172484" y1="0" y2="30"/><line opacity="0.2" x1="177.81378932224487" x2="177.81378932224487" y1="0" y2="30"/><line opacity="0.2" x1="376.90177401017746" x2="376.90177401017746" y1="0" y2="30"/><line opacity="0.2" x1="216.4780933103642" x2="216.4780933103642" y1="0" y2="30"/><line opacity="0.2" x1="322.554272832131" x2="322.554272832131" y1="0" y2="30"/><line opacity="0.2" x1="327.58907604730547" x2="327.58907604730547" y1="0" y2="30"/><line opacity="0.2" x1="378.43159444066237" x2="378.43159444066237" y1="0" y2="30"/><line opacity="0.2" x1="74.40211581489297" x2="74.40211581489297" y1="0" y2="30"/><line opacity="0.2" x1="364.31388868391554" x2="364.31388868391554" y1="0" y2="30"/><line opacity="0.2" x1="197.61238708158166" x2="197.61238708158166" y1="0" y2="30"/><line opacity="0.2" x1="398.98110898829043" x2="398.98110898829043" y1="0" y2="30"/><line opacity="0.2" x1="317.8737351372914" x2="317.8737351372914" y1="0" y2="30"/><line opacity="0.2" x1="227.45225790117422" x2="227.45225790117422" y1="0" y2="30"/><line opacity="0.2" x1="350.36073161265847" x2="350.36073161265847" y1="0" y2="30"/><line opacity="0.2" x1="373.58318110370806" x2="373.58318110370806" y1="0" y2="30"/><line opacity="0.2" x1="495.48903823310724" x2="495.48903823310724" y1="0" y2="30"/><line opacity="0.2" x1="335.9383647375202" x2="335.9383647375202" y1="0" y2="30"/><line opacity="0.2" x1="274.0933366581085" x2="274.0933366581085" y1="0" y2="30"/><line opacity="0.2" x1="284.56415715290495" x2="284.56415715290495" y1="0" y2="30"/><line opacity="0.2" x1="394.8006598421735" x2="394.8006598421735" y1="0" y2="30"/><line opacity="0.2" x1="294.845287026247" x2="294.845287026247" y1="0" y2="30"/><line opacity="0.2" x1="337.56236047250934" x2="337.56236047250934" y1="0" y2="30"/><line opacity="0.2" x1="209.57346247172057" x2="209.57346247172057" y1="0" y2="30"/><line opacity="0.2" x1="379.319013756006" x2="379.319013756006" y1="0" y2="30"/><line opacity="0.2" x1="382.8400081124851" x2="382.8400081124851" y1="0" y2="30"/><line opacity="0.2" x1="282.23025128432" x2="282.23025128432" y1="0" y2="30"/><line opacity="0.2" x1="301.295788042967" x2="301.295788042967" y1="0" y2="30"/><line opacity="0.2" x1="333.4189087602804" x2="333.4189087602804" y1="0" y2="30"/><line opacity="0.2" x1="412.547650884058" x2="412.547650884058" y1="0" y2="30"/><line opacity="0.2" x1="404.1191766458762" x2="404.1191766458762" y1="0" y2="30"/><line opacity="0.2" x1="438.55552824001506" x2="438.55552824001506" y1="0" y2="30"/><line opacity="0.2" x1="365.6189545793593" x2="365.6189545793593" y1="0" y2="30"/><line opacity="0.2" x1="433.1712823034875" x2="433.1712823034875" y1="0" y2="30"/><line opacity="0.2" x1="367.5751223018213" x2="367.5751223018213" y1="0" y2="30"/><line opacity="0.2" x1="446.4084260264247" x2="446.4084260264247" y1="0" y2="30"/><line opacity="0.2" x1="322.748037111428" x2="322.748037111428" y1="0" y2="30"/><line opacity="0.2" x1="271.14098035930033" x2="271.14098035930033" y1="0" y2="30"/><line opacity="0.2" x1="448.81524651685476" x2="448.81524651685476" y1="0" y2="30"/><line opacity="0.2" x1="347.4376920718693" x2="347.4376920718693" y1="0" y2="30"/><line opacity="0.2" x1="276.48648697608917" x2="276.48648697608917" y1="0" y2="30"/><line opacity="0.2" x1="454.7308352680625" x2="454.7308352680625" y1="0" y2="30"/><line opacity="0.2" x1="350.14159807352746" x2="350.14159807352746" y1="0" y2="30"/><line opacity="0.2" x1="330.86241684634365" x2="330.86241684634365" y1="0" y2="30"/><line opacity="0.2" x1="143.4774470871684" x2="143.4774470871684" y1="0" y2="30"/><line opacity="0.2" x1="231.50658832002122" x2="231.50658832002122" y1="0" y2="30"/><line opacity="0.2" x1="297.49454550885304" x2="297.49454550885304" y1="0" y2="30"/><line opacity="0.2" x1="195.67747195809557" x2="195.67747195809557" y1="0" y2="30"/><line opacity="0.2" x1="396.6660475479032" x2="396.6660475479032" y1="0" y2="30"/><line opacity="0.2" x1="279.4982389206612" x2="279.4982389206612" y1="0" y2="30"/><line opacity="0.2" x1="195.48042794570142" x2="195.48042794570142" y1="0" y2="30"/><line opacity="0.2" x1="314.4197775504476" x2="314.4197775504476" y1="0" y2="30"/><line opacity="0.2" x1="428.63573263130337" x2="428.63573263130337" y1="0" y2="30"/><line opacity="0.2" x1="377.65644455322325" x2="377.65644455322325" y1="0" y2="30"/><line opacity="0.2" x1="232.93157402442245" x2="232.93157402442245" y1="0" y2="30"/><line opacity="0.2" x1="285.4851476322624" x2="285.4851476322624" y1="0" y2="30"/><line opacity="0.2" x1="310.64597406669003" x2="310.64597406669003" y1="0" y2="30"/><line opacity="0.2" x1="316.1461807150053" x2="316.1461807150053" y1="0" y2="30"/><line opacity="0.2" x1="228.31154879630697" x2="228.31154879630697" y1="0" y2="30"/><line opacity="0.2" x1="184.93040863478572" x2="184.93040863478572" y1="0" y2="30"/><line opacity="0.2" x1="348.6301988615823" x2="348.6301988615823" y1="0" y2="30"/><line opacity="0.2" x1="422.7264555351351" x2="422.7264555351351" y1="0" y2="30"/><line opacity="0.2" x1="228.34154391009844" x2="228.34154391009844" y1="0" y2="30"/><line opacity="0.2" x1="372.873701887962" x2="372.873701887962" y1="0" y2="30"/><line opacity="0.2" x1="157.2857280207656" x2="157.2857280207656" y1="0" y2="30"/><line opacity="0.2" x1="249.74177519690687" x2="249.74177519690687" y1="0" y2="30"/><line opacity="0.2" x1="336.8904041851449" x2="336.8904041851449" y1="0" y2="30"/><line opacity="0.2" x1="342.48368601765316" x2="342.48368601765316" y1="0" y2="30"/><line opacity="0.2" x1="428.3281719159178" x2="428.3281719159178" y1="0" y2="30"/><line opacity="0.2" x1="342.0615991775294" x2="342.0615991775294" y1="0" y2="30"/><line opacity="0.2" x1="133.41517888368531" x2="133.41517888368531" y1="0" y2="30"/><line opacity="0.2" x1="204.82557390502518" x2="204.82557390502518" y1="0" y2="30"/><line opacity="0.2" x1="344.2422788674205" x2="344.2422788674205" y1="0" y2="30"/><line opacity="0.2" x1="249.26967840331395" x2="249.26967840331395" y1="0" y2="30"/><line opacity="0.2" x1="343.4322094572182" x2="343.4322094572182" y1="0" y2="30"/><line opacity="0.2" x1="320.95646904467344" x2="320.95646904467344" y1="0" y2="30"/><line opacity="0.2" x1="411.21883914715465" x2="411.21883914715465" y1="0" y2="30"/><line opacity="0.2" x1="461.60130606444324" x2="461.60130606444324" y1="0" y2="30"/><line opacity="0.2" x1="201.05652506360917" x2="201.05652506360917" y1="0" y2="30"/><line opacity="0.2" x1="304.5197915834959" x2="304.5197915834959" y1="0" y2="30"/><line opacity="0.2" x1="527.1871438931936" x2="527.1871438931936" y1="0" y2="30"/><line opacity="0.2" x1="296.80542361456725" x2="296.80542361456725" y1="0" y2="30"/><line opacity="0.2" x1="419.98278051606167" x2="419.98278051606167" y1="0" y2="30"/><line opacity="0.2" x1="285.9447812583762" x2="285.9447812583762" y1="0" y2="30"/><line opacity="0.2" x1="335.3997290635342" x2="335.3997290635342" y1="0" y2="30"/><line opacity="0.2" x1="301.14357634782533" x2="301.14357634782533" y1="0" y2="30"/><line opacity="0.2" x1="259.3568486712597" x2="259.3568486712597" y1="0" y2="30"/><line opacity="0.2" x1="336.34026973186775" x2="336.34026973186775" y1="0" y2="30"/><line opacity="0.2" x1="299.29739789287214" x2="299.29739789287214" y1="0" y2="30"/><line opacity="0.2" x1="178.14232508877112" x2="178.14232508877112" y1="0" y2="30"/><line opacity="0.2" x1="251.13366548405068" x2="251.13366548405068" y1="0" y2="30"/><line opacity="0.2" x1="200.3656423524804" x2="200.3656423524804" y1="0" y2="30"/><line opacity="0.2" x1="295.83983389042277" x2="295.83983389042277" y1="0" y2="30"/><line opacity="0.2" x1="449.0553641052967" x2="449.0553641052967" y1="0" y2="30"/><line opacity="0.2" x1="205.05698374783879" x2="205.05698374783879" y1="0" y2="30"/><line opacity="0.2" x1="275.07770737412216" x2="275.07770737412216" y1="0" y2="30"/><line opacity="0.2" x1="417.6754283871744" x2="417.6754283871744" y1="0" y2="30"/><line opacity="0.2" x1="256.78996978554557" x2="256.78996978554557" y1="0" y2="30"/><line opacity="0.2" x1="425.28162826886677" x2="425.28162826886677" y1="0" y2="30"/><line opacity="0.2" x1="209.6205948930628" x2="209.6205948930628" y1="0" y2="30"/><line opacity="0.2" x1="309.35486316863205" x2="309.35486316863205" y1="0" y2="30"/><line opacity="0.2" x1="163.08908796931925" x2="163.08908796931925" y1="0" y2="30"/><line opacity="0.2" x1="284.12749970715316" x2="284.12749970715316" y1="0" y2="30"/><line opacity="0.2" x1="337.7609327560108" x2="337.7609327560108" y1="0" y2="30"/><line opacity="0.2" x1="432.94874649523166" x2="432.94874649523166" y1="0" y2="30"/><line opacity="0.2" x1="253.35642588138754" x2="253.35642588138754" y1="0" y2="30"/><line opacity="0.2" x1="373.6741770036267" x2="373.6741770036267" y1="0" y2="30"/><line opacity="0.2" x1="336.896395105464" x2="336.896395105464" y1="0" y2="30"/><line opacity="0.2" x1="379.15860136112195" x2="379.15860136112195" y1="0" y2="30"/><line opacity="0.2" x1="471.6346721659753" x2="471.6346721659753" y1="0" y2="30"/><line opacity="0.2" x1="455.96305445316506" x2="455.96305445316506" y1="0" y2="30"/><line opacity="0.2" x1="259.0434872524842" x2="259.0434872524842" y1="0" y2="30"/><line opacity="0.2" x1="327.6659442693705" x2="327.6659442693705" y1="0" y2="30"/><line opacity="0.2" x1="183.14157748688243" x2="183.14157748688243" y1="0" y2="30"/><line opacity="0.2" x1="236.3845345987838" x2="236.3845345987838" y1="0" y2="30"/><line opacity="0.2" x1="464.16684666177656" x2="464.16684666177656" y1="0" y2="30"/><line opacity="0.2" x1="446.7197569360936" x2="446.7197569360936" y1="0" y2="30"/><line opacity="0.2" x1="270.7976910970342" x2="270.7976910970342" y1="0" y2="30"/><line opacity="0.2" x1="277.6853306411473" x2="277.6853306411473" y1="0" y2="30"/><line opacity="0.2" x1="400.2173207504839" x2="400.2173207504839" y1="0" y2="30"/><line opacity="0.2" x1="338.1856754826523" x2="338.1856754826523" y1="0" y2="30"/><line opacity="0.2" x1="174.68289348802088" x2="174.68289348802088" y1="0" y2="30"/><line opacity="0.2" x1="279.35819201892514" x2="279.35819201892514" y1="0" y2="30"/><line opacity="0.2" x1="298.7088228484989" x2="298.7088228484989" y1="0" y2="30"/><line opacity="0.2" x1="383.85915315667955" x2="383.85915315667955" y1="0" y2="30"/><line opacity="0.2" x1="202.73255922684802" x2="202.73255922684802" y1="0" y2="30"/><line opacity="0.2" x1="235.44333580306113" x2="235.44333580306113" y1="0" y2="30"/><line opacity="0.2" x1="250.87104405495654" x2="250.87104405495654" y1="0" y2="30"/><line opacity="0.2" x1="360.1935112437113" x2="360.1935112437113" y1="0" y2="30"/><line opacity="0.2" x1="467.6298718201613" x2="467.6298718201613" y1="0" y2="30"/><line opacity="0.2" x1="265.84231087516673" x2="265.84231087516673" y1="0" y2="30"/><line opacity="0.2" x1="455.1792351259149" x2="455.1792351259149" y1="0" y2="30"/><line opacity="0.2" x1="375.6082724246481" x2="375.6082724246481" y1="0" y2="30"/><line opacity="0.2" x1="235.07464793953696" x2="235.07464793953696" y1="0" y2="30"/><line opacity="0.2" x1="374.35418889543774" x2="374.35418889543774" y1="0" y2="30"/><line opacity="0.2" x1="170.93450690676454" x2="170.93450690676454" y1="0" y2="30"/><line opacity="0.2" x1="331.93970794833194" x2="331.93970794833194" y1="0" y2="30"/><line opacity="0.2" x1="468.04115125442905" x2="468.04115125442905" y1="0" y2="30"/><line opacity="0.2" x1="190.08871400781138" x2="190.08871400781138" y1="0" y2="30"/><line opacity="0.2" x1="238.92450329016137" x2="238.92450329016137" y1="0" y2="30"/><line opacity="0.2" x1="448.27223166631404" x2="448.27223166631404" y1="0" y2="30"/><line opacity="0.2" x1="183.74834975034614" x2="183.74834975034614" y1="0" y2="30"/><line opacity="0.2" x1="366.04382260378617" x2="366.04382260378617" y1="0" y2="30"/><line opacity="0.2" x1="367.20198242113463" x2="367.20198242113463" y1="0" y2="30"/><line opacity="0.2" x1="360.67335049608096" x2="360.67335049608096" y1="0" y2="30"/><line opacity="0.2" x1="312.3231698765617" x2="312.3231698765617" y1="0" y2="30"/><line opacity="0.2" x1="450.838886914132" x2="450.838886914132" y1="0" y2="30"/><line opacity="0.2" x1="434.92280199000305" x2="434.92280199000305" y1="0" y2="30"/><line opacity="0.2" x1="330.05601427175645" x2="330.05601427175645" y1="0" y2="30"/><line opacity="0.2" x1="145.12193019556764" x2="145.12193019556764" y1="0" y2="30"/><line opacity="0.2" x1="349.5953595835404" x2="349.5953595835404" y1="0" y2="30"/><line opacity="0.2" x1="457.0029840583233" x2="457.0029840583233" y1="0" y2="30"/><line opacity="0.2" x1="20" x2="20" y1="0" y2="30"/><line opacity="0.2" x1="332.76934662232486" x2="332.76934662232486" y1="0" y2="30"/><line opacity="0.2" x1="289.490700477775" x2="289.490700477775" y1="0" y2="30"/><line opacity="0.2" x1="173.0153703340964" x2="173.0153703340964" y1="0" y2="30"/><line opacity="0.2" x1="319.5477510844517" x2="319.5477510844517" y1="0" y2="30"/><line opacity="0.2" x1="305.6339543415313" x2="305.6339543415313" y1="0" y2="30"/><line opacity="0.2" x1="448.6573011707967" x2="448.6573011707967" y1="0" y2="30"/><line opacity="0.2" x1="452.33098386992066" x2="452.33098386992066" y1="0" y2="30"/><line opacity="0.2" x1="189.3110901219218" x2="189.3110901219218" y1="0" y2="30"/><line opacity="0.2" x1="354.20803441608575" x2="354.20803441608575" y1="0" y2="30"/><line opacity="0.2" x1="275.7947812596284" x2="275.7947812596284" y1="0" y2="30"/><line opacity="0.2" x1="343.9256851393359" x2="343.9256851393359" y1="0" y2="30"/><line opacity="0.2" x1="296.2915577691822" x2="296.2915577691822" y1="0" y2="30"/><line opacity="0.2" x1="219.08699521565646" x2="219.08699521565646" y1="0" y2="30"/><line opacity="0.2" x1="392.83630124963236" x2="392.83630124963236" y1="0" y2="30"/><line opacity="0.2" x1="289.8553553737083" x2="289.8553553737083" y1="0" y2="30"/><line opacity="0.2" x1="509.9310517022546" x2="509.9310517022546" y1="0" y2="30"/><line opacity="0.2" x1="412.87157887435797" x2="412.87157887435797" y1="0" y2="30"/><line opacity="0.2" x1="444.3880773965018" x2="444.3880773965018" y1="0" y2="30"/><line opacity="0.2" x1="369.62908269602866" x2="369.62908269602866" y1="0" y2="30"/><line opacity="0.2" x1="366.9396366126161" x2="366.9396366126161" y1="0" y2="30"/><line opacity="0.2" x1="409.9530091055039" x2="409.9530091055039" y1="0" y2="30"/><line opacity="0.2" x1="238.75739882526733" x2="238.75739882526733" y1="0" y2="30"/><line opacity="0.2" x1="352.1204816267341" x2="352.1204816267341" y1="0" y2="30"/><line opacity="0.2" x1="216.39199142324554" x2="216.39199142324554" y1="0" y2="30"/><line opacity="0.2" x1="277.9339534677598" x2="277.9339534677598" y1="0" y2="30"/><line opacity="0.2" x1="419.6436577498276" x2="419.6436577498276" y1="0" y2="30"/><line opacity="0.2" x1="118.84065233473981" x2="118.84065233473981" y1="0" y2="30"/><line opacity="0.2" x1="362.52612761453764" x2="362.52612761453764" y1="0" y2="30"/><line opacity="0.2" x1="371.57818874046114" x2="371.57818874046114" y1="0" y2="30"/><line opacity="0.2" x1="329.19956228599875" x2="329.19956228599875" y1="0" y2="30"/><line opacity="0.2" x1="377.4060813344226" x2="377.4060813344226" y1="0" y2="30"/><line opacity="0.2" x1="398.2458418502689" x2="398.2458418502689" y1="0" y2="30"/><line opacity="0.2" x1="184.15093815997872" x2="184.15093815997872" y1="0" y2="30"/><line opacity="0.2" x1="60.694611897771864" x2="60.694611897771864" y1="0" y2="30"/><line opacity="0.2" x1="314.35165190812126" x2="314.35165190812126" y1="0" y2="30"/><line opacity="0.2" x1="275.82268182326277" x2="275.82268182326277" y1="0" y2="30"/><line opacity="0.2" x1="126.05231975503982" x2="126.05231975503982" y1="0" y2="30"/><line opacity="0.2" x1="276.12451898025097" x2="276.12451898025097" y1="0" y2="30"/><line opacity="0.2" x1="329.5119765129681" x2="329.5119765129681" y1="0" y2="30"/><line opacity="0.2" x1="364.4551219503985" x2="364.4551219503985" y1="0" y2="30"/><line opacity="0.2" x1="561.2804139037501" x2="561.2804139037501" y1="0" y2="30"/><line opacity="0.2" x1="372.123301201455" x2="372.123301201455" y1="0" y2="30"/><line opacity="0.2" x1="485.25501859293865" x2="485.25501859293865" y1="0" y2="30"/><line opacity="0.2" x1="347.82433109042324" x2="347.82433109042324" y1="0" y2="30"/><line opacity="0.2" x1="242.7529554406901" x2="242.7529554406901" y1="0" y2="30"/><line opacity="0.2" x1="238.86656442340941" x2="238.86656442340941" y1="0" y2="30"/><line opacity="0.2" x1="442.064084179763" x2="442.064084179763" y1="0" y2="30"/><line opacity="0.2" x1="374.2337740400746" x2="374.2337740400746" y1="0" y2="30"/><line opacity="0.2" x1="349.1361902174297" x2="349.1361902174297" y1="0" y2="30"/><line opacity="0.2" x1="465.94453820229234" x2="465.94453820229234" y1="0" y2="30"/><line opacity="0.2" x1="318.0093384281335" x2="318.0093384281335" y1="0" y2="30"/><line opacity="0.2" x1="221.00542535284382" x2="221.00542535284382" y1="0" y2="30"/><line opacity="0.2" x1="249.77761958847933" x2="249.77761958847933" y1="0" y2="30"/><line opacity="0.2" x1="170.91692032460162" x2="170.91692032460162" y1="0" y2="30"/><line opacity="0.2" x1="324.5801416980423" x2="324.5801416980423" y1="0" y2="30"/><line opacity="0.2" x1="404.3409840551769" x2="404.3409840551769" y1="0" y2="30"/><line opacity="0.2" x1="139.9200944400799" x2="139.9200944400799" y1="0" y2="30"/><line opacity="0.2" x1="223.1263933375055" x2="223.1263933375055" y1="0" y2="30"/><line opacity="0.2" x1="242.56505651760915" x2="242.56505651760915" y1="0" y2="30"/><line opacity="0.2" x1="180.81925820151608" x2="180.81925820151608" y1="0" y2="30"/><line opacity="0.2" x1="232.398042222506" x2="232.398042222506" y1="0" y2="30"/><line opacity="0.2" x1="211.6197613691573" x2="211.6197613691573" y1="0" y2="30"/><line opacity="0.2" x1="391.27119328865155" x2="391.27119328865155" y1="0" y2="30"/><line opacity="0.2" x1="302.19179887591594" x2="302.19179887591594" y1="0" y2="30"/><line opacity="0.2" x1="330.7537964128499" x2="330.7537964128499" y1="0" y2="30"/><line opacity="0.2" x1="228.67634469522653" x2="228.67634469522653" y1="0" y2="30"/><line opacity="0.2" x1="198.4638011626267" x2="198.4638011626267" y1="0" y2="30"/><line opacity="0.2" x1="419.2703737650585" x2="419.2703737650585" y1="0" y2="30"/><line opacity="0.2" x1="341.52335629701304" x2="341.52335629701304" y1="0" y2="30"/><line opacity="0.2" x1="462.0503062091963" x2="462.0503062091963" y1="0" y2="30"/><line opacity="0.2" x1="494.8784779508711" x2="494.8784779508711" y1="0" y2="30"/><line opacity="0.2" x1="435.6874679361366" x2="435.6874679361366" y1="0" y2="30"/><line opacity="0.2" x1="383.7501112426298" x2="383.7501112426298" y1="0" y2="30"/><line opacity="0.2" x1="433.00163266145046" x2="433.00163266145046" y1="0" y2="30"/><line opacity="0.2" x1="488.93641786275947" x2="488.93641786275947" y1="0" y2="30"/><line opacity="0.2" x1="364.76883452649304" x2="364.76883452649304" y1="0" y2="30"/><line opacity="0.2" x1="350.7253930924919" x2="350.7253930924919" y1="0" y2="30"/><line opacity="0.2" x1="525.3635201061716" x2="525.3635201061716" y1="0" y2="30"/><line opacity="0.2" x1="277.6875672502313" x2="277.6875672502313" y1="0" y2="30"/><line opacity="0.2" x1="302.4854018130486" x2="302.4854018130486" y1="0" y2="30"/><line opacity="0.2" x1="259.8472238651168" x2="259.8472238651168" y1="0" y2="30"/><line opacity="0.2" x1="72.59303490889347" x2="72.59303490889347" y1="0" y2="30"/><line opacity="0.2" x1="272.41824672045817" x2="272.41824672045817" y1="0" y2="30"/><line opacity="0.2" x1="429.4544789504847" x2="429.4544789504847" y1="0" y2="30"/><line opacity="0.2" x1="224.00042127641774" x2="224.00042127641774" y1="0" y2="30"/><line opacity="0.2" x1="283.8199927372243" x2="283.8199927372243" y1="0" y2="30"/><line opacity="0.2" x1="268.4258476412441" x2="268.4258476412441" y1="0" y2="30"/><line opacity="0.2" x1="282.75329535941415" x2="282.75329535941415" y1="0" y2="30"/><line opacity="0.2" x1="234.47354615781964" x2="234.47354615781964" y1="0" y2="30"/><line opacity="0.2" x1="207.7230271292196" x2="207.7230271292196" y1="0" y2="30"/><line opacity="0.2" x1="374.11095106694614" x2="374.11095106694614" y1="0" y2="30"/><line opacity="0.2" x1="412.5653938263445" x2="412.5653938263445" y1="0" y2="30"/><line opacity="0.2" x1="443.58700995189866" x2="443.58700995189866" y1="0" y2="30"/><line opacity="0.2" x1="286.20028972737765" x2="286.20028972737765" y1="0" y2="30"/><line opacity="0.2" x1="333.2016014779061" x2="333.2016014779061" y1="0" y2="30"/><line opacity="0.2" x1="395.15164491102723" x2="395.15164491102723" y1="0" y2="30"/><line opacity="0.2" x1="322.88333433910793" x2="322.88333433910793" y1="0" y2="30"/><line opacity="0.2" x1="340.6149260069664" x2="340.6149260069664" y1="0" y2="30"/><line opacity="0.2" x1="252.48111500539196" x2="252.48111500539196" y1="0" y2="30"/><line opacity="0.2" x1="456.8198987974" x2="456.8198987974" y1="0" y2="30"/><line opacity="0.2" x1="374.6660479270473" x2="374.6660479270473" y1="0" y2="30"/><line opacity="0.2" x1="408.32546513403213" x2="408.32546513403213" y1="0" y2="30"/><line opacity="0.2" x1="482.2703723019522" x2="482.2703723019522" y1="0" y2="30"/><line opacity="0.2" x1="215.83446763038268" x2="215.83446763038268" y1="0" y2="30"/><line opacity="0.2" x1="327.46636594244865" x2="327.46636594244865" y1="0" y2="30"/><line opacity="0.2" x1="205.44645248655837" x2="205.44645248655837" y1="0" y2="30"/><line opacity="0.2" x1="170.2860580274372" x2="170.2860580274372" y1="0" y2="30"/><line opacity="0.2" x1="420.82994766759407" x2="420.82994766759407" y1="0" y2="30"/><line opacity="0.2" x1="165.1827707225146" x2="165.1827707225146" y1="0" y2="30"/><line opacity="0.2" x1="364.55162384475364" x2="364.55162384475364" y1="0" y2="30"/><line opacity="0.2" x1="293.0195933849957" x2="293.0195933849957" y1="0" y2="30"/><line opacity="0.2" x1="509.025466997695" x2="509.025466997695" y1="0" y2="30"/><line opacity="0.2" x1="143.2848349728756" x2="143.2848349728756" y1="0" y2="30"/><line opacity="0.2" x1="262.7250605557659" x2="262.7250605557659" y1="0" y2="30"/><line opacity="0.2" x1="369.9981119788399" x2="369.9981119788399" y1="0" y2="30"/><line opacity="0.2" x1="235.50540863619284" x2="235.50540863619284" y1="0" y2="30"/><line opacity="0.2" x1="263.13910498181303" x2="263.13910498181303" y1="0" y2="30"/><line opacity="0.2" x1="198.4008968658864" x2="198.4008968658864" y1="0" y2="30"/><line opacity="0.2" x1="388.30844254289065" x2="388.30844254289065" y1="0" y2="30"/><line opacity="0.2" x1="364.21858039455543" x2="364.21858039455543" y1="0" y2="30"/><line opacity="0.2" x1="187.9050909964597" x2="187.9050909964597" y1="0" y2="30"/><line opacity="0.2" x1="371.48890528865184" x2="371.48890528865184" y1="0" y2="30"/><line opacity="0.2" x1="166.94102231405793" x2="166.94102231405793" y1="0" y2="30"/><line opacity="0.2" x1="270.24520361675906" x2="270.24520361675906" y1="0" y2="30"/><line opacity="0.2" x1="265.0495690861022" x2="265.0495690861022" y1="0" y2="30"/><line opacity="0.2" x1="401.0102342181881" x2="401.0102342181881" y1="0" y2="30"/><line opacity="0.2" x1="291.77920113767436" x2="291.77920113767436" y1="0" y2="30"/><line opacity="0.2" x1="244.14313462253654" x2="244.14313462253654" y1="0" y2="30"/><line opacity="0.2" x1="149.14165124354747" x2="149.14165124354747" y1="0" y2="30"/><line opacity="0.2" x1="469.6998808392385" x2="469.6998808392385" y1="0" y2="30"/><line opacity="0.2" x1="202.79842653059052" x2="202.79842653059052" y1="0" y2="30"/><line opacity="0.2" x1="280.33728425922675" x2="280.33728425922675" y1="0" y2="30"/><line opacity="0.2" x1="302.64462413001644" x2="302.64462413001644" y1="0" y2="30"/><line opacity="0.2" x1="557.6370717688762" x2="557.6370717688762" y1="0" y2="30"/><line opacity="0.2" x1="252.04000143776094" x2="252.04000143776094" y1="0" y2="30"/><line opacity="0.2" x1="230.30706900965495" x2="230.30706900965495" y1="0" y2="30"/><line opacity="0.2" x1="104.78079549915074" x2="104.78079549915074" y1="0" y2="30"/><line opacity="0.2" x1="353.4468654510987" x2="353.4468654510987" y1="0" y2="30"/><line opacity="0.2" x1="389.02107647556124" x2="389.02107647556124" y1="0" y2="30"/><line opacity="0.2" x1="620" x2="620" y1="0" y2="30"/><line opacity="0.2" x1="540.6676637563678" x2="540.6676637563678" y1="0" y2="30"/><line opacity="0.2" x1="368.82542743512676" x2="368.82542743512676" y1="0" y2="30"/><line opacity="0.2" x1="428.4445470256855" x2="428.4445470256855" y1="0" y2="30"/><line opacity="0.2" x1="190.37571447092307" x2="190.37571447092307" y1="0" y2="30"/><line opacity="0.2" x1="187.05251426885218" x2="187.05251426885218" y1="0" y2="30"/><line opacity="0.2" x1="265.4322432225174" x2="265.4322432225174" y1="0" y2="30"/><line opacity="0.2" x1="445.2505094081778" x2="445.2505094081778" y1="0" y2="30"/><line opacity="0.2" x1="186.59017710831273" x2="186.59017710831273" y1="0" y2="30"/><line opacity="0.2" x1="352.8986118718765" x2="352.8986118718765" y1="0" y2="30"/><line opacity="0.2" x1="397.86659755436875" x2="397.86659755436875" y1="0" y2="30"/><line opacity="0.2" x1="191.0800514500395" x2="191.0800514500395" y1="0" y2="30"/><line opacity="0.2" x1="121.60783051569746" x2="121.60783051569746" y1="0" y2="30"/><line opacity="0.2" x1="285.6337602390427" x2="285.6337602390427" y1="0" y2="30"/><line opacity="0.2" x1="294.90147851397995" x2="294.90147851397995" y1="0" y2="30"/><line opacity="0.2" x1="419.7264225828454" x2="419.7264225828454" y1="0" y2="30"/><line opacity="0.2" x1="292.9037857243003" x2="292.9037857243003" y1="0" y2="30"/><line opacity="0.2" x1="385.17854066224396" x2="385.17854066224396" y1="0" y2="30"/><line opacity="0.2" x1="380.01036234074013" x2="380.01036234074013" y1="0" y2="30"/><line opacity="0.2" x1="161.78358832007228" x2="161.78358832007228" y1="0" y2="30"/><line opacity="0.2" x1="338.45048438506524" x2="338.45048438506524" y1="0" y2="30"/><line opacity="0.2" x1="261.4464865945699" x2="261.4464865945699" y1="0" y2="30"/><line opacity="0.2" x1="366.954444973615" x2="366.954444973615" y1="0" y2="30"/><line opacity="0.2" x1="262.911802199603" x2="262.911802199603" y1="0" y2="30"/><line opacity="0.2" x1="294.8521840370764" x2="294.8521840370764" y1="0" y2="30"/><line opacity="0.2" x1="303.35114627644305" x2="303.35114627644305" y1="0" y2="30"/><line opacity="0.2" x1="347.457550121962" x2="347.457550121962" y1="0" y2="30"/><line opacity="0.2" x1="113.64606825594494" x2="113.64606825594494" y1="0" y2="30"/><line opacity="0.2" x1="348.5158204079339" x2="348.5158204079339" y1="0" y2="30"/><line opacity="0.2" x1="321.6312937041326" x2="321.6312937041326" y1="0" y2="30"/><line opacity="0.2" x1="170.8732285933249" x2="170.8732285933249" y1="0" y2="30"/><line opacity="0.2" x1="182.33554491953578" x2="182.33554491953578" y1="0" y2="30"/><line opacity="0.2" x1="242.2519338813792" x2="242.2519338813792" y1="0" y2="30"/><line opacity="0.2" x1="263.1380897794571" x2="263.1380897794571" y1="0" y2="30"/><line opacity="0.2" x1="153.79826956397778" x2="153.79826956397778" y1="0" y2="30"/><line opacity="0.2" x1="174.68174743533348" x2="174.68174743533348" y1="0" y2="30"/><line opacity="0.2" x1="351.44233171761266" x2="351.44233171761266" y1="0" y2="30"/><line opacity="0.2" x1="454.4463088350923" x2="454.4463088350923" y1="0" y2="30"/><line opacity="0.2" x1="399.70942411767237" x2="399.70942411767237" y1="0" y2="30"/><line opacity="0.2" x1="255.9470129850227" x2="255.9470129850227" y1="0" y2="30"/><line opacity="0.2" x1="223.55778540576938" x2="223.55778540576938" y1="0" y2="30"/><line opacity="0.2" x1="352.0516592222705" x2="352.0516592222705" y1="0" y2="30"/><line opacity="0.2" x1="265.64556241491823" x2="265.64556241491823" y1="0" y2="30"/><line opacity="0.2" x1="462.1879982664924" x2="462.1879982664924" y1="0" y2="30"/><line opacity="0.2" x1="274.5636142763249" x2="274.5636142763249" y1="0" y2="30"/><line opacity="0.2" x1="490.5208265008142" x2="490.5208265008142" y1="0" y2="30"/><line opacity="0.2" x1="386.2150264340569" x2="386.2150264340569" y1="0" y2="30"/><line opacity="0.2" x1="295.5909622204599" x2="295.5909622204599" y1="0" y2="30"/><line opacity="0.2" x1="226.23377393558528" x2="226.23377393558528" y1="0" y2="30"/><line opacity="0.2" x1="547.3759257292672" x2="547.3759257292672" y1="0" y2="30"/><line opacity="0.2" x1="133.93060508168656" x2="133.93060508168656" y1="0" y2="30"/><line opacity="0.2" x1="228.49427522895905" x2="228.49427522895905" y1="0" y2="30"/><line opacity="0.2" x1="301.07717839223017" x2="301.07717839223017" y1="0" y2="30"/><line opacity="0.2" x1="285.0902719829487" x2="285.0902719829487" y1="0" y2="30"/><line opacity="0.2" x1="361.9758684253803" x2="361.9758684253803" y1="0" y2="30"/><line opacity="0.2" x1="243.7683684292483" x2="243.7683684292483" y1="0" y2="30"/><line opacity="0.2" x1="325.58827460535275" x2="325.58827460535275" y1="0" y2="30"/><line opacity="0.2" x1="454.48237584433264" x2="454.48237584433264" y1="0" y2="30"/><line opacity="0.2" x1="166.8980586948916" x2="166.8980586948916" y1="0" y2="30"/><line opacity="0.2" x1="308.9200813605638" x2="308.9200813605638" y1="0" y2="30"/><line opacity="0.2" x1="218.80284642785915" x2="218.80284642785915" y1="0" y2="30"/><line opacity="0.2" x1="397.10465495521316" x2="397.10465495521316" y1="0" y2="30"/><line opacity="0.2" x1="223.83856824188481" x2="223.83856824188481" y1="0" y2="30"/><line opacity="0.2" x1="248.1902255117842" x2="248.1902255117842" y1="0" y2="30"/><line opacity="0.2" x1="281.7601283435946" x2="281.7601283435946" y1="0" y2="30"/><line opacity="0.2" x1="86.57185664530131" x2="86.57185664530131" y1="0" y2="30"/><line opacity="0.2" x1="363.760761693081" x2="363.760761693081" y1="0" y2="30"/><line opacity="0.2" x1="270.8917809223527" x2="270.8917809223527" y1="0" y2="30"/><line opacity="0.2" x1="447.0979584619385" x2="447.0979584619385" y1="0" y2="30"/><line opacity="0.2" x1="505.5911768681562" x2="505.5911768681562" y1="0" y2="30"/><line opacity="0.2" x1="246.2830181306934" x2="246.2830181306934" y1="0" y2="30"/><line opacity="0.2" x1="310.20822364179503" x2="310.20822364179503" y1="0" y2="30"/><line opacity="0.2" x1="119.50718358618454" x2="119.50718358618454" y1="0" y2="30"/><line opacity="0.2" x1="175.79701886725832" x2="175.79701886725832" y1="0" y2="30"/><line opacity="0.2" x1="504.833255127256" x2="504.833255127256" y1="0" y2="30"/><line opacity="0.2" x1="400.4714671903057" x2="400.4714671903057" y1="0" y2="30"/><line opacity="0.2" x1="278.91342092232645" x2="278.91342092232645" y1="0" y2="30"/><line opacity="0.2" x1="395.35793112860347" x2="395.35793112860347" y1="0" y2="30"/><line opacity="0.2" x1="364.5686595952377" x2="364.5686595952377" y1="0" y2="30"/><line opacity="0.2" x1="220.12752661050524" x2="220.12752661050524" y1="0" y2="30"/><line opacity="0.2" x1="258.17097823994703" x2="258.17097823994703" y1="0" y2="30"/><line opacity="0.2" x1="337.50206988672977" x2="337.50206988672977" y1="0" y2="30"/><line opacity="0.2" x1="232.1505582220747" x2="232.1505582220747" y1="0" y2="30"/><line opacity="0.2" x1="393.5610508573377" x2="393.5610508573377" y1="0" y2="30"/><line opacity="0.2" x1="421.98865493772877" x2="421.98865493772877" y1="0" y2="30"/><line opacity="0.2" x1="437.42025879058224" x2="437.42025879058224" y1="0" y2="30"/><line opacity="0.2" x1="237.2761206350194" x2="237.2761206350194" y1="0" y2="30"/><line opacity="0.2" x1="417.492709591199" x2="417.492709591199" y1="0" y2="30"/><line opacity="0.2" x1="384.5675353075741" x2="384.5675353075741" y1="0" y2="30"/><line opacity="0.2" x1="164.36502532227954" x2="164.36502532227954" y1="0" y2="30"/><line opacity="0.2" x1="160.90050570882718" x2="160.90050570882718" y1="0" y2="30"/><line opacity="0.2" x1="315.64476295364915" x2="315.64476295364915" y1="0" y2="30"/><line opacity="0.2" x1="344.72961371569704" x2="344.72961371569704" y1="0" y2="30"/><line opacity="0.2" x1="194.00680554544593" x2="194.00680554544593" y1="0" y2="30"/><line opacity="0.2" x1="327.3228249224274" x2="327.3228249224274" y1="0" y2="30"/><line opacity="0.2" x1="242.13795858681348" x2="242.13795858681348" y1="0" y2="30"/><line opacity="0.2" x1="356.5933367423397" x2="356.5933367423397" y1="0" y2="30"/><line opacity="0.2" x1="413.99841162361804" x2="413.99841162361804" y1="0" y2="30"/><line opacity="0.2" x1="389.2026881388061" x2="389.2026881388061" y1="0" y2="30"/><line opacity="0.2" x1="98.52751843188344" x2="98.52751843188344" y1="0" y2="30"/><line opacity="0.2" x1="389.74663963402895" x2="389.74663963402895" y1="0" y2="30"/><line opacity="0.2" x1="241.40487754658267" x2="241.40487754658267" y1="0" y2="30"/><line opacity="0.2" x1="393.3437910305266" x2="393.3437910305266" y1="0" y2="30"/><line opacity="0.2" x1="237.79662436369287" x2="237.79662436369287" y1="0" y2="30"/><line opacity="0.2" x1="424.7954717981823" x2="424.7954717981823" y1="0" y2="30"/><line opacity="0.2" x1="293.62805718457093" x2="293.62805718457093" y1="0" y2="30"/><line opacity="0.2" x1="325.7804179913252" x2="325.7804179913252" y1="0" y2="30"/><line opacity="0.2" x1="189.66696857565245" x2="189.66696857565245" y1="0" y2="30"/><line opacity="0.2" x1="158.1136109732965" x2="158.1136109732965" y1="0" y2="30"/><line opacity="0.2" x1="527.597585709173" x2="527.597585709173" y1="0" y2="30"/><line opacity="0.2" x1="462.77609630620924" x2="462.77609630620924" y1="0" y2="30"/><line opacity="0.2" x1="306.4282854247475" x2="306.4282854247475" y1="0" y2="30"/><line opacity="0.2" x1="418.29467851960044" x2="418.29467851960044" y1="0" y2="30"/><line opacity="0.2" x1="368.95288886420224" x2="368.95288886420224" y1="0" y2="30"/><line opacity="0.2" x1="310.29754851920194" x2="310.29754851920194" y1="0" y2="30"/><line opacity="0.2" x1="557.4697325019584" x2="557.4697325019584" y1="0" y2="30"/><line opacity="0.2" x1="196.23907240650806" x2="196.23907240650806" y1="0" y2="30"/><line opacity="0.2" x1="511.3747974607095" x2="511.3747974607095" y1="0" y2="30"/><line opacity="0.2" x1="170.72543476417854" x2="170.72543476417854" y1="0" y2="30"/><line opacity="0.2" x1="214.47314824295063" x2="214.47314824295063" y1="0" y2="30"/><line opacity="0.2" x1="140.61753462259398" x2="140.61753462259398" y1="0" y2="30"/><line opacity="0.2" x1="381.6567930934384" x2="381.6567930934384" y1="0" y2="30"/><line opacity="0.2" x1="370.6842037635344" x2="370.6842037635344" y1="0" y2="30"/><line opacity="0.2" x1="287.58437171165804" x2="287.58437171165804" y1="0" y2="30"/><line opacity="0.2" x1="162.67502175664677" x2="162.67502175664677" y1="0" y2="30"/><line opacity="0.2" x1="430.457803755635" x2="430.457803755635" y1="0" y2="30"/><line opacity="0.2" x1="348.73208968128375" x2="348.73208968128375" y1="0" y2="30"/><line opacity="0.2" x1="385.68188763170673" x2="385.68188763170673" y1="0" y2="30"/><line opacity="0.2" x1="249.70248661858955" x2="249.70248661858955" y1="0" y2="30"/><line opacity="0.2" x1="406.0892355929531" x2="406.0892355929531" y1="0" y2="30"/><line opacity="0.2" x1="399.63680834085187" x2="399.63680834085187" y1="0" y2="30"/><line opacity="0.2" x1="349.99457855202394" x2="349.99457855202394" y1="0" y2="30"/><line opacity="0.2" x1="363.64180499311556" x2="363.64180499311556" y1="0" y2="30"/><line opacity="0.2" x1="280.28397066140997" x2="280.28397066140997" y1="0" y2="30"/><line opacity="0.2" x1="222.49567823599872" x2="222.49567823599872" y1="0" y2="30"/><line opacity="0.2" x1="227.31737082481078" x2="227.31737082481078" y1="0" y2="30"/><line opacity="0.2" x1="202.96805581163687" x2="202.96805581163687" y1="0" y2="30"/><line opacity="0.2" x1="228.4978189157896" x2="228.4978189157896" y1="0" y2="30"/><line opacity="0.2" x1="160.1351975045879" x2="160.1351975045879" y1="0" y2="30"/><line opacity="0.2" x1="241.18835187753993" x2="241.18835187753993" y1="0" y2="30"/><line opacity="0.2" x1="359.0894643407731" x2="359.0894643407731" y1="0" y2="30"/><line opacity="0.2" x1="492.6313269650423" x2="492.6313269650423" y1="0" y2="30"/><line opacity="0.2" x1="235.58096860841965" x2="235.58096860841965" y1="0" y2="30"/><line opacity="0.2" x1="362.4084418343568" x2="362.4084418343568" y1="0" y2="30"/><line opacity="0.2" x1="247.64890744971896" x2="247.64890744971896" y1="0" y2="30"/><line opacity="0.2" x1="314.88631814904335" x2="314.88631814904335" y1="0" y2="30"/><line opacity="0.2" x1="431.5149393322399" x2="431.5149393322399" y1="0" y2="30"/><line opacity="0.2" x1="398.20369034791133" x2="398.20369034791133" y1="0" y2="30"/><line opacity="0.2" x1="437.383232292945" x2="437.383232292945" y1="0" y2="30"/><line opacity="0.2" x1="216.40776165287406" x2="216.40776165287406" y1="0" y2="30"/><line opacity="0.2" x1="241.2573058259782" x2="241.2573058259782" y1="0" y2="30"/><line opacity="0.2" x1="252.98291186500296" x2="252.98291186500296" y1="0" y2="30"/><line opacity="0.2" x1="151.49929623878933" x2="151.49929623878933" y1="0" y2="30"/><line opacity="0.2" x1="155.89112867810346" x2="155.89112867810346" y1="0" y2="30"/><line opacity="0.2" x1="409.1466952183286" x2="409.1466952183286" y1="0" y2="30"/><line opacity="0.2" x1="373.04817024180966" x2="373.04817024180966" y1="0" y2="30"/><line opacity="0.2" x1="281.5147487359367" x2="281.5147487359367" y1="0" y2="30"/><line opacity="0.2" x1="331.02316704081977" x2="331.02316704081977" y1="0" y2="30"/><line opacity="0.2" x1="306.54108060602135" x2="306.54108060602135" y1="0" y2="30"/><line opacity="0.2" x1="449.2859542978532" x2="449.2859542978532" y1="0" y2="30"/><line opacity="0.2" x1="318.0960212644283" x2="318.0960212644283" y1="0" y2="30"/><line opacity="0.2" x1="65.68411640417538" x2="65.68411640417538" y1="0" y2="30"/><line opacity="0.2" x1="426.90824000908617" x2="426.90824000908617" y1="0" y2="30"/><line opacity="0.2" x1="169.35447713651843" x2="169.35447713651843" y1="0" y2="30"/><line opacity="0.2" x1="329.05069072570643" x2="329.05069072570643" y1="0" y2="30"/><line opacity="0.2" x1="230.186592723601" x2="230.186592723601" y1="0" y2="30"/><line opacity="0.2" x1="336.37928721400584" x2="336.37928721400584" y1="0" y2="30"/><line opacity="0.2" x1="290.8464358390023" x2="290.8464358390023" y1="0" y2="30"/><line opacity="0.2" x1="330.1381870164608" x2="330.1381870164608" y1="0" y2="30"/><line opacity="0.2" x1="374.51125742806374" x2="374.51125742806374" y1="0" y2="30"/><line opacity="0.2" x1="330.11710817697514" x2="330.11710817697514" y1="0" y2="30"/><line opacity="0.2" x1="248.21156637908675" x2="248.21156637908675" y1="0" y2="30"/><line opacity="0.2" x1="413.1490583474771" x2="413.1490583474771" y1="0" y2="30"/><line opacity="0.2" x1="313.80325024195054" x2="313.80325024195054" y1="0" y2="30"/><line opacity="0.2" x1="360.9173855863763" x2="360.9173855863763" y1="0" y2="30"/><line opacity="0.2" x1="385.93117261971724" x2="385.93117261971724" y1="0" y2="30"/><line opacity="0.2" x1="207.43609990088936" x2="207.43609990088936" y1="0" y2="30"/><line opacity="0.2" x1="417.9380498903576" x2="417.9380498903576" y1="0" y2="30"/><line opacity="0.2" x1="363.6762067264777" x2="363.6762067264777" y1="0" y2="30"/><line opacity="0.2" x1="375.07701986023056" x2="375.07701986023056" y1="0" y2="30"/><line opacity="0.2" x1="397.8371031898887" x2="397.8371031898887" y1="0" y2="30"/><line opacity="0.2" x1="261.8380943701119" x2="261.8380943701119" y1="0" y2="30"/><line opacity="0.2" x1="463.14139534714474" x2="463.14139534714474" y1="0" y2="30"/><line opacity="0.2" x1="281.9579413931652" x2="281.9579413931652" y1="0" y2="30"/><line opacity="0.2" x1="411.7631306781642" x2="411.7631306781642" y1="0" y2="30"/><line opacity="0.2" x1="225.12524286172817" x2="225.12524286172817" y1="0" y2="30"/><line opacity="0.2" x1="284.7457894249338" x2="284.7457894249338" y1="0" y2="30"/><line opacity="0.2" x1="280.67056369450637" x2="280.67056369450637" y1="0" y2="30"/><line opacity="0.2" x1="198.58438648445218" x2="198.58438648445218" y1="0" y2="30"/><line opacity="0.2" x1="472.3050340927512" x2="472.3050340927512" y1="0" y2="30"/><line opacity="0.2" x1="282.85562943737074" x2="282.85562943737074" y1="0" y2="30"/><line opacity="0.2" x1="254.2466578362763" x2="254.2466578362763" y1="0" y2="30"/><line opacity="0.2" x1="208.70532440052463" x2="208.70532440052463" y1="0" y2="30"/><line opacity="0.2" x1="290.6178664461035" x2="290.6178664461035" y1="0" y2="30"/><line opacity="0.2" x1="257.68784010003003" x2="257.68784010003003" y1="0" y2="30"/><line opacity="0.2" x1="565.9836110891523" x2="565.9836110891523" y1="0" y2="30"/><line opacity="0.2" x1="226.52274066563618" x2="226.52274066563618" y1="0" y2="30"/><line opacity="0.2" x1="163.44806735980828" x2="163.44806735980828" y1="0" y2="30"/><line opacity="0.2" x1="203.52806367609207" x2="203.52806367609207" y1="0" y2="30"/><line opacity="0.2" x1="347.6381085593375" x2="347.6381085593375" y1="0" y2="30"/><line opacity="0.2" x1="321.81703934428697" x2="321.81703934428697" y1="0" y2="30"/><line opacity="0.2" x1="223.55421086918267" x2="223.55421086918267" y1="0" y2="30"/><line opacity="0.2" x1="159.52376352000914" x2="159.52376352000914" y1="0" y2="30"/><line opacity="0.2" x1="355.7455625354516" x2="355.7455625354516" y1="0" y2="30"/><line opacity="0.2" x1="331.21682066082315" x2="331.21682066082315" y1="0" y2="30"/><line opacity="0.2" x1="330.4714262958143" x2="330.4714262958143" y1="0" y2="30"/><line opacity="0.2" x1="389.2951687884425" x2="389.2951687884425" y1="0" y2="30"/><line opacity="0.2" x1="260.1323758809017" x2="260.1323758809017" y1="0" y2="30"/><line opacity="0.2" x1="383.5126207393707" x2="383.5126207393707" y1="0" y2="30"/><line opacity="0.2" x1="396.67455234784416" x2="396.67455234784416" y1="0" y2="30"/><line opacity="0.2" x1="156.95916213385732" x2="156.95916213385732" y1="0" y2="30"/><line opacity="0.2" x1="382.94350103290304" x2="382.94350103290304" y1="0" y2="30"/><line opacity="0.2" x1="380.4192231488472" x2="380.4192231488472" y1="0" y2="30"/><line opacity="0.2" x1="169.7065833772548" x2="169.7065833772548" y1="0" y2="30"/><line opacity="0.2" x1="405.620755308111" x2="405.620755308111" y1="0" y2="30"/><line opacity="0.2" x1="391.7118066715706" x2="391.7118066715706" y1="0" y2="30"/><line opacity="0.2" x1="371.4686943122303" x2="371.4686943122303" y1="0" y2="30"/><line opacity="0.2" x1="288.1908238413637" x2="288.1908238413637" y1="0" y2="30"/><line opacity="0.2" x1="120.0775053474085" x2="120.0775053474085" y1="0" y2="30"/><line opacity="0.2" x1="461.43283173378705" x2="461.43283173378705" y1="0" y2="30"/><line opacity="0.2" x1="438.34906915661134" x2="438.34906915661134" y1="0" y2="30"/><line opacity="0.2" x1="328.77432498344893" x2="328.77432498344893" y1="0" y2="30"/><line opacity="0.2" x1="237.00904876250166" x2="237.00904876250166" y1="0" y2="30"/><line opacity="0.2" x1="328.54827999118487" x2="328.54827999118487" y1="0" y2="30"/><line opacity="0.2" x1="371.4311024904143" x2="371.4311024904143" y1="0" y2="30"/><line opacity="0.2" x1="481.483531537096" x2="481.483531537096" y1="0" y2="30"/><line opacity="0.2" x1="174.86218185910803" x2="174.86218185910803" y1="0" y2="30"/><line opacity="0.2" x1="449.602995544353" x2="449.602995544353" y1="0" y2="30"/><line opacity="0.2" x1="203.86920065688003" x2="203.86920065688003" y1="0" y2="30"/><line opacity="0.2" x1="401.89414747460586" x2="401.89414747460586" y1="0" y2="30"/><line opacity="0.2" x1="423.67140455860743" x2="423.67140455860743" y1="0" y2="30"/><line opacity="0.2" x1="423.0785097812832" x2="423.0785097812832" y1="0" y2="30"/><line opacity="0.2" x1="269.09520183062574" x2="269.09520183062574" y1="0" y2="30"/><line opacity="0.2" x1="307.6435571742017" x2="307.6435571742017" y1="0" y2="30"/><line opacity="0.2" x1="261.790254794268" x2="261.790254794268" y1="0" y2="30"/><line opacity="0.2" x1="214.08067331270172" x2="214.08067331270172" y1="0" y2="30"/><line opacity="0.2" x1="302.1774945586352" x2="302.1774945586352" y1="0" y2="30"/><line opacity="0.2" x1="338.756165974683" x2="338.756165974683" y1="0" y2="30"/><line opacity="0.2" x1="201.57655398038813" x2="201.57655398038813" y1="0" y2="30"/><line opacity="0.2" x1="483.8415259696848" x2="483.8415259696848" y1="0" y2="30"/><line opacity="0.2" x1="141.30613256952617" x2="141.30613256952617" y1="0" y2="30"/><line opacity="0.2" x1="426.71300598832323" x2="426.71300598832323" y1="0" y2="30"/><line opacity="0.2" x1="178.0736318218339" x2="178.0736318218339" y1="0" y2="30"/><line opacity="0.2" x1="367.1389483918639" x2="367.1389483918639" y1="0" y2="30"/><line opacity="0.2" x1="140.5094421184876" x2="140.5094421184876" y1="0" y2="30"/><line opacity="0.2" x1="392.9309818193956" x2="392.9309818193956" y1="0" y2="30"/><line opacity="0.2" x1="132.0091553830143" x2="132.0091553830143" y1="0" y2="30"/><line opacity="0.2" x1="233.05853189000493" x2="233.05853189000493" y1="0" y2="30"/><line opacity="0.2" x1="186.32785886759714" x2="186.32785886759714" y1="0" y2="30"/><line opacity="0.2" x1="424.25990225970776" x2="424.25990225970776" y1="0" y2="30"/><line opacity="0.2" x1="261.3879579286985" x2="261.3879579286985" y1="0" y2="30"/><line opacity="0.2" x1="187.50172892861335" x2="187.50172892861335" y1="0" y2="30"/><line opacity="0.2" x1="264.6249893393563" x2="264.6249893393563" y1="0" y2="30"/><line opacity="0.2" x1="524.0803257483002" x2="524.0803257483002" y1="0" y2="30"/><line opacity="0.2" x1="209.99794653970224" x2="209.99794653970224" y1="0" y2="30"/><line opacity="0.2" x1="467.0120904918395" x2="467.0120904918395" y1="0" y2="30"/><line opacity="0.2" x1="273.6363662760036" x2="273.6363662760036" y1="0" y2="30"/><line opacity="0.2" x1="483.8207404045855" x2="483.8207404045855" y1="0" y2="30"/><line opacity="0.2" x1="158.83183141109086" x2="158.83183141109086" y1="0" y2="30"/><line opacity="0.2" x1="292.9485348748325" x2="292.9485348748325" y1="0" y2="30"/><line opacity="0.2" x1="357.26242294413936" x2="357.26242294413936" y1="0" y2="30"/><line opacity="0.2" x1="569.0778094984211" x2="569.0778094984211" y1="0" y2="30"/><line opacity="0.2" x1="447.7960433662275" x2="447.7960433662275" y1="0" y2="30"/><line opacity="0.2" x1="345.6411752850753" x2="345.6411752850753" y1="0" y2="30"/><line opacity="0.2" x1="325.5174219570217" x2="325.5174219570217" y1="0" y2="30"/><line opacity="0.2" x1="517.5049476614255" x2="517.5049476614255" y1="0" y2="30"/><line opacity="0.2" x1="257.17093721365205" x2="257.17093721365205" y1="0" y2="30"/><line opacity="0.2" x1="356.10000220586625" x2="356.10000220586625" y1="0" y2="30"/><line opacity="0.2" x1="465.56048547186464" x2="465.56048547186464" y1="0" y2="30"/><line opacity="0.2" x1="363.7231788387432" x2="363.7231788387432" y1="0" y2="30"/><line opacity="0.2" x1="42.55474305012876" x2="42.55474305012876" y1="0" y2="30"/><line opacity="0.2" x1="287.7824110544559" x2="287.7824110544559" y1="0" y2="30"/><line opacity="0.2" x1="302.9590369377567" x2="302.9590369377567" y1="0" y2="30"/><line opacity="0.2" x1="175.01447354347994" x2="175.01447354347994" y1="0" y2="30"/><line opacity="0.2" x1="408.19660598229524" x2="408.19660598229524" y1="0" y2="30"/><line opacity="0.2" x1="436.632349363033" x2="436.632349363033" y1="0" y2="30"/><line opacity="0.2" x1="258.5362101867863" x2="258.5362101867863" y1="0" y2="30"/></g></svg>