<svg xmlns="http://www.w3.org/2000/svg" xmlns:xlink="http://www.w3.org/1999/xlink" class="plot-78832567e0e0e" fill="currentColor" font-family="system-ui, sans-serif" font-size="10" text-anchor="middle" width="640" height="400" viewBox="0 0 640 400" style="color: black;"><style>
        .plot-78832567e0e0e {
          display: block;
          background: white;
          height: auto;
          height: intrinsic;
          max-width: 100%;
        }
        .plot-78832567e0e0e text,
        .plot-78832567e0e0e tspan {
          white-space: pre;
        }
      </style><g aria-label="y-axis tick" fill="none" stroke="currentColor" transform="translate(0,0.5)"><path transform="translate(40,376.44851455841905)" d="M0,0L-6,0"/><path transform="translate(40,335.6435507082298)" d="M0,0L-6,0"/><path transform="translate(40,294.83858685804046)" d="M0,0L-6,0"/><path transform="translate(40,254.0336230078512)" d="M0,0L-6,0"/><path transform="translate(40,213.22865915766184)" d="M0,0L-6,0"/><path transform="translate(40,172.42369530747254)" d="M0,0L-6,0"/><path transform="translate(40,131.61873145728327)" d="M0,0L-6,0"/><path transform="translate(40,90.81376760709398)" d="M0,0L-6,0"/><path transform="translate(40,50.0088037569047)" d="M0,0L-6,0"/></g><g aria-label="y-axis tick label" text-anchor="end" font-variant="tabular-nums" transform="translate(-8.5,0.5)"><text y="0.32em" transform="translate(40,376.44851455841905)">−6</text><text y="0.32em" transform="translate(40,335.6435507082298)">−5</text><text y="0.32em" transform="translate(40,294.83858685804046)">−4</text><text y="0.32em" transform="translate(40,254.0336230078512)">−3</text><text y="0.32em" transform="translate(40,213.22865915766184)">−2</text><text y="0.32em" transform="translate(40,172.42369530747254)">−1</text><text y="0.32em" transform="translate(40,131.61873145728327)">0</text><text y="0.32em" transform="translate(40,90.81376760709398)">1</text><text y="0.32em" transform="translate(40,50.0088037569047)">2</text></g><g aria-label="rule" stroke="steelblue" transform="translate(0,0.5)"><line x1="40" x2="639" y1="131.61873145728327" y2="131.61873145728327"/></g><g aria-label="line" fill="none" stroke="currentColor" stroke-width="1.5" stroke-linejoin="round" stroke-linecap="round" transform="translate(0.5,0.5)"><path d="M40,129.857L46.051,162.523L52.101,144.736L58.152,137.155L64.202,183.34L70.253,192.709L76.303,147.543L82.354,85.988L88.404,97.065L94.455,116.977L100.505,192.144L106.556,190.635L112.606,218.144L118.657,140.31L124.707,143.794L130.758,148.515L136.808,110.965L142.859,154.249L148.909,185.358L154.96,193.586L161.01,214.971L167.061,215.086L173.111,245.495L179.162,261.341L185.212,297.752L191.263,291.326L197.313,321.63L203.364,248.588L209.414,267.024L215.465,247.745L221.515,261.535L227.566,279.817L233.616,251.522L239.667,248.884L245.717,217.573L251.768,186.987L257.818,181.016L263.869,240.448L269.919,232.99L275.97,246.624L282.02,216.211L288.071,236.475L294.121,199.889L300.172,208.987L306.222,172.967L312.273,189.39L318.323,148.648L324.374,89.427L330.424,116.674L336.475,96.908L342.525,118.853L348.576,138.266L354.626,148.731L360.677,117.379L366.727,95.386L372.778,97.608L378.828,45.57L384.879,70.922L390.929,120.49L396.98,125.232L403.03,128.133L409.081,99.836L415.131,20L421.182,23.703L427.232,84.814L433.283,108.611L439.333,195.659L445.384,166.636L451.434,153.358L457.485,158.316L463.535,232.184L469.586,267.405L475.636,296.607L481.687,335.775L487.737,344.024L493.788,317.653L499.838,337.802L505.889,380L511.939,379.15L517.99,345.648L524.04,356.828L530.091,287.612L536.141,279.547L542.192,186.604L548.242,202.82L554.293,174.441L560.343,169.728L566.394,185.492L572.444,191.3L578.495,180.926L584.545,219.703L590.596,163.064L596.646,240.768L602.697,238.96L608.747,222.062L614.798,247.456L620.848,236.986L626.899,225.761L632.949,181.458L639,243.522"/></g></svg>