<svg xmlns="http://www.w3.org/2000/svg" xmlns:xlink="http://www.w3.org/1999/xlink" class="plot-cf1583113a75c" fill="currentColor" font-family="system-ui, sans-serif" font-size="10" text-anchor="middle" width="640" height="60" viewBox="0 0 640 60" style="color: black;"><style>
        .plot-cf1583113a75c {
          display: block;
          background: white;
          height: auto;
          height: intrinsic;
          max-width: 100%;
        }
        .plot-cf1583113a75c text,
        .plot-cf1583113a75c tspan {
          white-space: pre;
        }
      </style><g aria-label="x-axis tick" fill="none" stroke="currentColor" transform="translate(0.5,0)"><path transform="translate(118.43126157207465,30)" d="M0,0L0,6"/><path transform="translate(220.9646027843432,30)" d="M0,0L0,6"/><path transform="translate(323.4979439966118,30)" d="M0,0L0,6"/><path transform="translate(426.0312852088803,30)" d="M0,0L0,6"/><path transform="translate(528.564626421149,30)" d="M0,0L0,6"/></g><g aria-label="x-axis tick label" font-variant="tabular-nums" transform="translate(0.5,9.5)"><text y="0.71em" transform="translate(118.43126157207465,30)">−2</text><text y="0.71em" transform="translate(220.9646027843432,30)">−1</text><text y="0.71em" transform="translate(323.4979439966118,30)">0</text><text y="0.71em" transform="translate(426.0312852088803,30)">1</text><text y="0.71em" transform="translate(528.564626421149,30)">2</text></g><g aria-label="tick" stroke="steelblue" transform="translate(0.5,0)"><line opacity="0.2" x1="321.8406530817235" x2="321.8406530817235" y1="0" y2="30"/><line opacity="0.2" x1="152.7722903942148" x2="152.7722903942148" y1="0" y2="30"/><line opacity="0.2" x1="227.11771634528972" x2="227.11771634528972" y1="0" y2="30"/><line opacity="0.2" x1="311.84524046881796" x2="311.84524046881796" y1="0" y2="30"/><line opacity="0.2" x1="540.1561458426222" x2="540.1561458426222" y1="0" y2="30"/><line opacity="0.2" x1="301.2847294341885" x2="301.2847294341885" y1="0" y2="30"/><line opacity="0.2" x1="157.44305743783747" x2="157.44305743783747" y1="0" y2="30"/><line opacity="0.2" x1="369.71731287618263" x2="369.71731287618263" y1="0" y2="30"/><line opacity="0.2" x1="189.7545002560042" x2="189.7545002560042" y1="0" y2="30"/><line opacity="0.2" x1="327.44710888367365" x2="327.44710888367365" y1="0" y2="30"/><line opacity="0.2" x1="418.64087141543786" x2="418.64087141543786" y1="0" y2="30"/><line opacity="0.2" x1="365.11718289922067" x2="365.11718289922067" y1="0" y2="30"/><line opacity="0.2" x1="219.04324145972447" x2="219.04324145972447" y1="0" y2="30"/><line opacity="0.2" x1="322.8304219385607" x2="322.8304219385607" y1="0" y2="30"/><line opacity="0.2" x1="502.7681670996904" x2="502.7681670996904" y1="0" y2="30"/><line opacity="0.2" x1="354.4151091276744" x2="354.4151091276744" y1="0" y2="30"/><line opacity="0.2" x1="387.0767074466191" x2="387.0767074466191" y1="0" y2="30"/><line opacity="0.2" x1="206.36991308714295" x2="206.36991308714295" y1="0" y2="30"/><line opacity="0.2" x1="248.15266434375278" x2="248.15266434375278" y1="0" y2="30"/><line opacity="0.2" x1="399.3432693284666" x2="399.3432693284666" y1="0" y2="30"/><line opacity="0.2" x1="223.2603277387193" x2="223.2603277387193" y1="0" y2="30"/><line opacity="0.2" x1="353.5371367948517" x2="353.5371367948517" y1="0" y2="30"/><line opacity="0.2" x1="298.4831609245311" x2="298.4831609245311" y1="0" y2="30"/><line opacity="0.2" x1="316.58927079684617" x2="316.58927079684617" y1="0" y2="30"/><line opacity="0.2" x1="293.9298245225147" x2="293.9298245225147" y1="0" y2="30"/><line opacity="0.2" x1="353.2177025550368" x2="353.2177025550368" y1="0" y2="30"/><line opacity="0.2" x1="356.0514490597019" x2="356.0514490597019" y1="0" y2="30"/><line opacity="0.2" x1="472.635943652705" x2="472.635943652705" y1="0" y2="30"/><line opacity="0.2" x1="283.21401476294596" x2="283.21401476294596" y1="0" y2="30"/><line opacity="0.2" x1="329.52931547607227" x2="329.52931547607227" y1="0" y2="30"/><line opacity="0.2" x1="137.53501457010358" x2="137.53501457010358" y1="0" y2="30"/><line opacity="0.2" x1="424.78094359923864" x2="424.78094359923864" y1="0" y2="30"/><line opacity="0.2" x1="319.7851698318026" x2="319.7851698318026" y1="0" y2="30"/><line opacity="0.2" x1="453.12317581899964" x2="453.12317581899964" y1="0" y2="30"/><line opacity="0.2" x1="450.83528273771975" x2="450.83528273771975" y1="0" y2="30"/><line opacity="0.2" x1="287.1501132975435" x2="287.1501132975435" y1="0" y2="30"/><line opacity="0.2" x1="336.7728492006987" x2="336.7728492006987" y1="0" y2="30"/><line opacity="0.2" x1="253.09865277208795" x2="253.09865277208795" y1="0" y2="30"/><line opacity="0.2" x1="364.92512139863254" x2="364.92512139863254" y1="0" y2="30"/><line opacity="0.2" x1="297.2661599453946" x2="297.2661599453946" y1="0" y2="30"/><line opacity="0.2" x1="258.43893600171435" x2="258.43893600171435" y1="0" y2="30"/><line opacity="0.2" x1="340.7637126455409" x2="340.7637126455409" y1="0" y2="30"/><line opacity="0.2" x1="290.9053310164956" x2="290.9053310164956" y1="0" y2="30"/><line opacity="0.2" x1="215.33636704917222" x2="215.33636704917222" y1="0" y2="30"/><line opacity="0.2" x1="527.0915614716172" x2="527.0915614716172" y1="0" y2="30"/><line opacity="0.2" x1="456.38915810613145" x2="456.38915810613145" y1="0" y2="30"/><line opacity="0.2" x1="251.4069980225342" x2="251.4069980225342" y1="0" y2="30"/><line opacity="0.2" x1="266.67648681801086" x2="266.67648681801086" y1="0" y2="30"/><line opacity="0.2" x1="288.9576774692743" x2="288.9576774692743" y1="0" y2="30"/><line opacity="0.2" x1="387.40730038740196" x2="387.40730038740196" y1="0" y2="30"/><line opacity="0.2" x1="416.44888062248566" x2="416.44888062248566" y1="0" y2="30"/><line opacity="0.2" x1="304.6930100618322" x2="304.6930100618322" y1="0" y2="30"/><line opacity="0.2" x1="389.8522743720481" x2="389.8522743720481" y1="0" y2="30"/><line opacity="0.2" x1="325.71596724758416" x2="325.71596724758416" y1="0" y2="30"/><line opacity="0.2" x1="429.91497315419906" x2="429.91497315419906" y1="0" y2="30"/><line opacity="0.2" x1="349.52056824791964" x2="349.52056824791964" y1="0" y2="30"/><line opacity="0.2" x1="567.4851352212019" x2="567.4851352212019" y1="0" y2="30"/><line opacity="0.2" x1="310.90327580792984" x2="310.90327580792984" y1="0" y2="30"/><line opacity="0.2" x1="133.14255566919087" x2="133.14255566919087" y1="0" y2="30"/><line opacity="0.2" x1="254.5506835244341" x2="254.5506835244341" y1="0" y2="30"/><line opacity="0.2" x1="273.02536091642406" x2="273.02536091642406" y1="0" y2="30"/><line opacity="0.2" x1="152.73812269092383" x2="152.73812269092383" y1="0" y2="30"/><line opacity="0.2" x1="275.3131558683037" x2="275.3131558683037" y1="0" y2="30"/><line opacity="0.2" x1="165.0919174175419" x2="165.0919174175419" y1="0" y2="30"/><line opacity="0.2" x1="264.2782391638482" x2="264.2782391638482" y1="0" y2="30"/><line opacity="0.2" x1="379.10159890459727" x2="379.10159890459727" y1="0" y2="30"/><line opacity="0.2" x1="324.09833079336937" x2="324.09833079336937" y1="0" y2="30"/><line opacity="0.2" x1="284.9381113444982" x2="284.9381113444982" y1="0" y2="30"/><line opacity="0.2" x1="520.3518390487645" x2="520.3518390487645" y1="0" y2="30"/><line opacity="0.2" x1="88.11615132370198" x2="88.11615132370198" y1="0" y2="30"/><line opacity="0.2" x1="391.2824784223848" x2="391.2824784223848" y1="0" y2="30"/><line opacity="0.2" x1="379.4638627322107" x2="379.4638627322107" y1="0" y2="30"/><line opacity="0.2" x1="296.6499813598418" x2="296.6499813598418" y1="0" y2="30"/><line opacity="0.2" x1="596.2937828184668" x2="596.2937828184668" y1="0" y2="30"/><line opacity="0.2" x1="223.28254567361898" x2="223.28254567361898" y1="0" y2="30"/><line opacity="0.2" x1="239.2512554072943" x2="239.2512554072943" y1="0" y2="30"/><line opacity="0.2" x1="420.1195157153308" x2="420.1195157153308" y1="0" y2="30"/><line opacity="0.2" x1="245.93104547435365" x2="245.93104547435365" y1="0" y2="30"/><line opacity="0.2" x1="328.2493769201896" x2="328.2493769201896" y1="0" y2="30"/><line opacity="0.2" x1="454.33490916712924" x2="454.33490916712924" y1="0" y2="30"/><line opacity="0.2" x1="339.4039308010496" x2="339.4039308010496" y1="0" y2="30"/><line opacity="0.2" x1="270.2060705475319" x2="270.2060705475319" y1="0" y2="30"/><line opacity="0.2" x1="155.60210914043245" x2="155.60210914043245" y1="0" y2="30"/><line opacity="0.2" x1="213.59558920749248" x2="213.59558920749248" y1="0" y2="30"/><line opacity="0.2" x1="439.74778255627876" x2="439.74778255627876" y1="0" y2="30"/><line opacity="0.2" x1="308.8749904151735" x2="308.8749904151735" y1="0" y2="30"/><line opacity="0.2" x1="386.3550712805109" x2="386.3550712805109" y1="0" y2="30"/><line opacity="0.2" x1="226.25323206490035" x2="226.25323206490035" y1="0" y2="30"/><line opacity="0.2" x1="418.3025694832742" x2="418.3025694832742" y1="0" y2="30"/><line opacity="0.2" x1="208.74260549745475" x2="208.74260549745475" y1="0" y2="30"/><line opacity="0.2" x1="255.2119452787006" x2="255.2119452787006" y1="0" y2="30"/><line opacity="0.2" x1="288.9533978944105" x2="288.9533978944105" y1="0" y2="30"/><line opacity="0.2" x1="360.16243151130374" x2="360.16243151130374" y1="0" y2="30"/><line opacity="0.2" x1="298.8877651995849" x2="298.8877651995849" y1="0" y2="30"/><line opacity="0.2" x1="531.6727041832545" x2="531.6727041832545" y1="0" y2="30"/><line opacity="0.2" x1="452.17104100637584" x2="452.17104100637584" y1="0" y2="30"/><line opacity="0.2" x1="442.7025392456549" x2="442.7025392456549" y1="0" y2="30"/><line opacity="0.2" x1="354.51865419581753" x2="354.51865419581753" y1="0" y2="30"/><line opacity="0.2" x1="396.61739163184075" x2="396.61739163184075" y1="0" y2="30"/><line opacity="0.2" x1="462.4676874587122" x2="462.4676874587122" y1="0" y2="30"/><line opacity="0.2" x1="107.33708788258645" x2="107.33708788258645" y1="0" y2="30"/><line opacity="0.2" x1="369.5408924724817" x2="369.5408924724817" y1="0" y2="30"/><line opacity="0.2" x1="252.55762954154747" x2="252.55762954154747" y1="0" y2="30"/><line opacity="0.2" x1="329.5631319449313" x2="329.5631319449313" y1="0" y2="30"/><line opacity="0.2" x1="367.3374043490874" x2="367.3374043490874" y1="0" y2="30"/><line opacity="0.2" x1="560.5858580366107" x2="560.5858580366107" y1="0" y2="30"/><line opacity="0.2" x1="304.8864517254779" x2="304.8864517254779" y1="0" y2="30"/><line opacity="0.2" x1="205.2069823072881" x2="205.2069823072881" y1="0" y2="30"/><line opacity="0.2" x1="411.3883912663913" x2="411.3883912663913" y1="0" y2="30"/><line opacity="0.2" x1="193.6560964457987" x2="193.6560964457987" y1="0" y2="30"/><line opacity="0.2" x1="164.34477277032573" x2="164.34477277032573" y1="0" y2="30"/><line opacity="0.2" x1="107.91921548292905" x2="107.91921548292905" y1="0" y2="30"/><line opacity="0.2" x1="464.8527502373151" x2="464.8527502373151" y1="0" y2="30"/><line opacity="0.2" x1="345.5009722912276" x2="345.5009722912276" y1="0" y2="30"/><line opacity="0.2" x1="403.02803570156647" x2="403.02803570156647" y1="0" y2="30"/><line opacity="0.2" x1="124.95414085483279" x2="124.95414085483279" y1="0" y2="30"/><line opacity="0.2" x1="258.2306429976282" x2="258.2306429976282" y1="0" y2="30"/><line opacity="0.2" x1="341.78431303019084" x2="341.78431303019084" y1="0" y2="30"/><line opacity="0.2" x1="521.9950314314605" x2="521.9950314314605" y1="0" y2="30"/><line opacity="0.2" x1="253.14008375856" x2="253.14008375856" y1="0" y2="30"/><line opacity="0.2" x1="233.24849242305189" x2="233.24849242305189" y1="0" y2="30"/><line opacity="0.2" x1="241.72218475713154" x2="241.72218475713154" y1="0" y2="30"/><line opacity="0.2" x1="184.69499874001485" x2="184.69499874001485" y1="0" y2="30"/><line opacity="0.2" x1="413.3460548688712" x2="413.3460548688712" y1="0" y2="30"/><line opacity="0.2" x1="345.4898974943001" x2="345.4898974943001" y1="0" y2="30"/><line opacity="0.2" x1="369.11233298300766" x2="369.11233298300766" y1="0" y2="30"/><line opacity="0.2" x1="406.04523597798504" x2="406.04523597798504" y1="0" y2="30"/><line opacity="0.2" x1="380.4266233931672" x2="380.4266233931672" y1="0" y2="30"/><line opacity="0.2" x1="270.404424010799" x2="270.404424010799" y1="0" y2="30"/><line opacity="0.2" x1="406.95651762809484" x2="406.95651762809484" y1="0" y2="30"/><line opacity="0.2" x1="377.8074488374789" x2="377.8074488374789" y1="0" y2="30"/><line opacity="0.2" x1="317.2731861261051" x2="317.2731861261051" y1="0" y2="30"/><line opacity="0.2" x1="152.0114224815463" x2="152.0114224815463" y1="0" y2="30"/><line opacity="0.2" x1="447.15029801356343" x2="447.15029801356343" y1="0" y2="30"/><line opacity="0.2" x1="420.6041357498238" x2="420.6041357498238" y1="0" y2="30"/><line opacity="0.2" x1="316.20096142525693" x2="316.20096142525693" y1="0" y2="30"/><line opacity="0.2" x1="250.98217324527516" x2="250.98217324527516" y1="0" y2="30"/><line opacity="0.2" x1="131.56238044157774" x2="131.56238044157774" y1="0" y2="30"/><line opacity="0.2" x1="341.2637005088678" x2="341.2637005088678" y1="0" y2="30"/><line opacity="0.2" x1="357.14331563708606" x2="357.14331563708606" y1="0" y2="30"/><line opacity="0.2" x1="385.07491237709075" x2="385.07491237709075" y1="0" y2="30"/><line opacity="0.2" x1="163.84515182450747" x2="163.84515182450747" y1="0" y2="30"/><line opacity="0.2" x1="502.3751868915968" x2="502.3751868915968" y1="0" y2="30"/><line opacity="0.2" x1="146.30932408323812" x2="146.30932408323812" y1="0" y2="30"/><line opacity="0.2" x1="362.72527765861105" x2="362.72527765861105" y1="0" y2="30"/><line opacity="0.2" x1="281.49291288124755" x2="281.49291288124755" y1="0" y2="30"/><line opacity="0.2" x1="331.577215023416" x2="331.577215023416" y1="0" y2="30"/><line opacity="0.2" x1="241.66397082870313" x2="241.66397082870313" y1="0" y2="30"/><line opacity="0.2" x1="231.00231874487622" x2="231.00231874487622" y1="0" y2="30"/><line opacity="0.2" x1="300.08579489975926" x2="300.08579489975926" y1="0" y2="30"/><line opacity="0.2" x1="348.97611078458084" x2="348.97611078458084" y1="0" y2="30"/><line opacity="0.2" x1="238.9609218324269" x2="238.9609218324269" y1="0" y2="30"/><line opacity="0.2" x1="223.57155574585337" x2="223.57155574585337" y1="0" y2="30"/><line opacity="0.2" x1="427.63243005604255" x2="427.63243005604255" y1="0" y2="30"/><line opacity="0.2" x1="299.8017908746193" x2="299.8017908746193" y1="0" y2="30"/><line opacity="0.2" x1="317.9730551534635" x2="317.9730551534635" y1="0" y2="30"/><line opacity="0.2" x1="308.59021511630914" x2="308.59021511630914" y1="0" y2="30"/><line opacity="0.2" x1="298.29500763835983" x2="298.29500763835983" y1="0" y2="30"/><line opacity="0.2" x1="280.38301561879155" x2="280.38301561879155" y1="0" y2="30"/><line opacity="0.2" x1="291.8348818048147" x2="291.8348818048147" y1="0" y2="30"/><line opacity="0.2" x1="421.1502567290068" x2="421.1502567290068" y1="0" y2="30"/><line opacity="0.2" x1="190.6427478002194" x2="190.6427478002194" y1="0" y2="30"/><line opacity="0.2" x1="554.0919777766185" x2="554.0919777766185" y1="0" y2="30"/><line opacity="0.2" x1="439.02742357449364" x2="439.02742357449364" y1="0" y2="30"/><line opacity="0.2" x1="386.7135861617093" x2="386.7135861617093" y1="0" y2="30"/><line opacity="0.2" x1="362.6046837642022" x2="362.6046837642022" y1="0" y2="30"/><line opacity="0.2" x1="169.72393299120964" x2="169.72393299120964" y1="0" y2="30"/><line opacity="0.2" x1="491.8335047344584" x2="491.8335047344584" y1="0" y2="30"/><line opacity="0.2" x1="333.3896205272342" x2="333.3896205272342" y1="0" y2="30"/><line opacity="0.2" x1="221.49994736522564" x2="221.49994736522564" y1="0" y2="30"/><line opacity="0.2" x1="299.6058261714051" x2="299.6058261714051" y1="0" y2="30"/><line opacity="0.2" x1="378.9493724748966" x2="378.9493724748966" y1="0" y2="30"/><line opacity="0.2" x1="446.08945251500796" x2="446.08945251500796" y1="0" y2="30"/><line opacity="0.2" x1="291.7426720761526" x2="291.7426720761526" y1="0" y2="30"/><line opacity="0.2" x1="383.6379455266222" x2="383.6379455266222" y1="0" y2="30"/><line opacity="0.2" x1="281.4609306697437" x2="281.4609306697437" y1="0" y2="30"/><line opacity="0.2" x1="303.2321421554202" x2="303.2321421554202" y1="0" y2="30"/><line opacity="0.2" x1="187.79545201737417" x2="187.79545201737417" y1="0" y2="30"/><line opacity="0.2" x1="261.45536695151804" x2="261.45536695151804" y1="0" y2="30"/><line opacity="0.2" x1="399.3422825706232" x2="399.3422825706232" y1="0" y2="30"/><line opacity="0.2" x1="271.00773422270026" x2="271.00773422270026" y1="0" y2="30"/><line opacity="0.2" x1="424.1788004631608" x2="424.1788004631608" y1="0" y2="30"/><line opacity="0.2" x1="285.798606971499" x2="285.798606971499" y1="0" y2="30"/><line opacity="0.2" x1="303.88338588825246" x2="303.88338588825246" y1="0" y2="30"/><line opacity="0.2" x1="120.33252188334919" x2="120.33252188334919" y1="0" y2="30"/><line opacity="0.2" x1="383.68436954487413" x2="383.68436954487413" y1="0" y2="30"/><line opacity="0.2" x1="169.2664513580938" x2="169.2664513580938" y1="0" y2="30"/><line opacity="0.2" x1="533.5067069287536" x2="533.5067069287536" y1="0" y2="30"/><line opacity="0.2" x1="279.3927525572306" x2="279.3927525572306" y1="0" y2="30"/><line opacity="0.2" x1="328.8318083758941" x2="328.8318083758941" y1="0" y2="30"/><line opacity="0.2" x1="288.80938380699325" x2="288.80938380699325" y1="0" y2="30"/><line opacity="0.2" x1="365.0945818906405" x2="365.0945818906405" y1="0" y2="30"/><line opacity="0.2" x1="224.07947490146844" x2="224.07947490146844" y1="0" y2="30"/><line opacity="0.2" x1="345.82001029760096" x2="345.82001029760096" y1="0" y2="30"/><line opacity="0.2" x1="408.94586711924785" x2="408.94586711924785" y1="0" y2="30"/><line opacity="0.2" x1="316.82068475854896" x2="316.82068475854896" y1="0" y2="30"/><line opacity="0.2" x1="374.72017635547263" x2="374.72017635547263" y1="0" y2="30"/><line opacity="0.2" x1="269.45804491468857" x2="269.45804491468857" y1="0" y2="30"/><line opacity="0.2" x1="410.17254054495686" x2="410.17254054495686" y1="0" y2="30"/><line opacity="0.2" x1="376.066365577199" x2="376.066365577199" y1="0" y2="30"/><line opacity="0.2" x1="232.38931095782408" x2="232.38931095782408" y1="0" y2="30"/><line opacity="0.2" x1="259.5504834500146" x2="259.5504834500146" y1="0" y2="30"/><line opacity="0.2" x1="323.40081674821323" x2="323.40081674821323" y1="0" y2="30"/><line opacity="0.2" x1="417.2488209564308" x2="417.2488209564308" y1="0" y2="30"/><line opacity="0.2" x1="443.95290834839693" x2="443.95290834839693" y1="0" y2="30"/><line opacity="0.2" x1="399.4623643949321" x2="399.4623643949321" y1="0" y2="30"/><line opacity="0.2" x1="326.21776580084196" x2="326.21776580084196" y1="0" y2="30"/><line opacity="0.2" x1="473.4017649343205" x2="473.4017649343205" y1="0" y2="30"/><line opacity="0.2" x1="388.6424389487985" x2="388.6424389487985" y1="0" y2="30"/><line opacity="0.2" x1="467.63104787525344" x2="467.63104787525344" y1="0" y2="30"/><line opacity="0.2" x1="334.00420687341773" x2="334.00420687341773" y1="0" y2="30"/><line opacity="0.2" x1="452.4294122027399" x2="452.4294122027399" y1="0" y2="30"/><line opacity="0.2" x1="221.50443797150092" x2="221.50443797150092" y1="0" y2="30"/><line opacity="0.2" x1="296.96190155506486" x2="296.96190155506486" y1="0" y2="30"/><line opacity="0.2" x1="365.10636558727845" x2="365.10636558727845" y1="0" y2="30"/><line opacity="0.2" x1="360.4121074175244" x2="360.4121074175244" y1="0" y2="30"/><line opacity="0.2" x1="459.8424879893" x2="459.8424879893" y1="0" y2="30"/><line opacity="0.2" x1="388.48606725357564" x2="388.48606725357564" y1="0" y2="30"/><line opacity="0.2" x1="404.42452360108217" x2="404.42452360108217" y1="0" y2="30"/><line opacity="0.2" x1="394.2639195104352" x2="394.2639195104352" y1="0" y2="30"/><line opacity="0.2" x1="281.7845635359971" x2="281.7845635359971" y1="0" y2="30"/><line opacity="0.2" x1="344.0563426136665" x2="344.0563426136665" y1="0" y2="30"/><line opacity="0.2" x1="495.9896165837351" x2="495.9896165837351" y1="0" y2="30"/><line opacity="0.2" x1="408.88869955985103" x2="408.88869955985103" y1="0" y2="30"/><line opacity="0.2" x1="176.43031977049702" x2="176.43031977049702" y1="0" y2="30"/><line opacity="0.2" x1="331.24062892747173" x2="331.24062892747173" y1="0" y2="30"/><line opacity="0.2" x1="336.7146368335529" x2="336.7146368335529" y1="0" y2="30"/><line opacity="0.2" x1="404.066498509656" x2="404.066498509656" y1="0" y2="30"/><line opacity="0.2" x1="303.90541398964103" x2="303.90541398964103" y1="0" y2="30"/><line opacity="0.2" x1="312.38870305398945" x2="312.38870305398945" y1="0" y2="30"/><line opacity="0.2" x1="280.5151061687278" x2="280.5151061687278" y1="0" y2="30"/><line opacity="0.2" x1="257.20139162754845" x2="257.20139162754845" y1="0" y2="30"/><line opacity="0.2" x1="481.0329628085251" x2="481.0329628085251" y1="0" y2="30"/><line opacity="0.2" x1="311.2972727264888" x2="311.2972727264888" y1="0" y2="30"/><line opacity="0.2" x1="127.0804010682346" x2="127.0804010682346" y1="0" y2="30"/><line opacity="0.2" x1="414.7071736571627" x2="414.7071736571627" y1="0" y2="30"/><line opacity="0.2" x1="132.7147569591468" x2="132.7147569591468" y1="0" y2="30"/><line opacity="0.2" x1="293.51105778820596" x2="293.51105778820596" y1="0" y2="30"/><line opacity="0.2" x1="174.7350592593426" x2="174.7350592593426" y1="0" y2="30"/><line opacity="0.2" x1="370.8884440514923" x2="370.8884440514923" y1="0" y2="30"/><line opacity="0.2" x1="116.60886772397112" x2="116.60886772397112" y1="0" y2="30"/><line opacity="0.2" x1="174.57761353633092" x2="174.57761353633092" y1="0" y2="30"/><line opacity="0.2" x1="349.8444842778332" x2="349.8444842778332" y1="0" y2="30"/><line opacity="0.2" x1="225.93069879975263" x2="225.93069879975263" y1="0" y2="30"/><line opacity="0.2" x1="257.43436735265766" x2="257.43436735265766" y1="0" y2="30"/><line opacity="0.2" x1="332.2625022106163" x2="332.2625022106163" y1="0" y2="30"/><line opacity="0.2" x1="313.0431926032695" x2="313.0431926032695" y1="0" y2="30"/><line opacity="0.2" x1="69.91527503528377" x2="69.91527503528377" y1="0" y2="30"/><line opacity="0.2" x1="294.5451030379068" x2="294.5451030379068" y1="0" y2="30"/><line opacity="0.2" x1="380.7110710185114" x2="380.7110710185114" y1="0" y2="30"/><line opacity="0.2" x1="297.4096328398686" x2="297.4096328398686" y1="0" y2="30"/><line opacity="0.2" x1="458.2077487105395" x2="458.2077487105395" y1="0" y2="30"/><line opacity="0.2" x1="459.3445947744428" x2="459.3445947744428" y1="0" y2="30"/><line opacity="0.2" x1="275.37046681168624" x2="275.37046681168624" y1="0" y2="30"/><line opacity="0.2" x1="279.952562895787" x2="279.952562895787" y1="0" y2="30"/><line opacity="0.2" x1="205.62948108256523" x2="205.62948108256523" y1="0" y2="30"/><line opacity="0.2" x1="116.13049905307068" x2="116.13049905307068" y1="0" y2="30"/><line opacity="0.2" x1="336.54412072640906" x2="336.54412072640906" y1="0" y2="30"/><line opacity="0.2" x1="328.3168393971628" x2="328.3168393971628" y1="0" y2="30"/><line opacity="0.2" x1="345.60772666592396" x2="345.60772666592396" y1="0" y2="30"/><line opacity="0.2" x1="303.2853751917127" x2="303.2853751917127" y1="0" y2="30"/><line opacity="0.2" x1="482.9636105813095" x2="482.9636105813095" y1="0" y2="30"/><line opacity="0.2" x1="401.99968363056513" x2="401.99968363056513" y1="0" y2="30"/><line opacity="0.2" x1="441.6882309348891" x2="441.6882309348891" y1="0" y2="30"/><line opacity="0.2" x1="283.9741526078624" x2="283.9741526078624" y1="0" y2="30"/><line opacity="0.2" x1="375.89490888089114" x2="375.89490888089114" y1="0" y2="30"/><line opacity="0.2" x1="375.112621507984" x2="375.112621507984" y1="0" y2="30"/><line opacity="0.2" x1="427.5972370202511" x2="427.5972370202511" y1="0" y2="30"/><line opacity="0.2" x1="315.2617453652842" x2="315.2617453652842" y1="0" y2="30"/><line opacity="0.2" x1="250.40745118044927" x2="250.40745118044927" y1="0" y2="30"/><line opacity="0.2" x1="79.38189655570004" x2="79.38189655570004" y1="0" y2="30"/><line opacity="0.2" x1="188.37876429079688" x2="188.37876429079688" y1="0" y2="30"/><line opacity="0.2" x1="331.40749478744704" x2="331.40749478744704" y1="0" y2="30"/><line opacity="0.2" x1="360.4438544006839" x2="360.4438544006839" y1="0" y2="30"/><line opacity="0.2" x1="385.02016008707136" x2="385.02016008707136" y1="0" y2="30"/><line opacity="0.2" x1="219.32554074321575" x2="219.32554074321575" y1="0" y2="30"/><line opacity="0.2" x1="309.8888477124259" x2="309.8888477124259" y1="0" y2="30"/><line opacity="0.2" x1="314.3597501137446" x2="314.3597501137446" y1="0" y2="30"/><line opacity="0.2" x1="355.64271922986796" x2="355.64271922986796" y1="0" y2="30"/><line opacity="0.2" x1="341.9324643021963" x2="341.9324643021963" y1="0" y2="30"/><line opacity="0.2" x1="48.19227668545054" x2="48.19227668545054" y1="0" y2="30"/><line opacity="0.2" x1="89.77347700094508" x2="89.77347700094508" y1="0" y2="30"/><line opacity="0.2" x1="205.97563576039298" x2="205.97563576039298" y1="0" y2="30"/><line opacity="0.2" x1="225.53699426694817" x2="225.53699426694817" y1="0" y2="30"/><line opacity="0.2" x1="265.5240122497311" x2="265.5240122497311" y1="0" y2="30"/><line opacity="0.2" x1="368.2856471649772" x2="368.2856471649772" y1="0" y2="30"/><line opacity="0.2" x1="391.94530005670475" x2="391.94530005670475" y1="0" y2="30"/><line opacity="0.2" x1="390.89952071144864" x2="390.89952071144864" y1="0" y2="30"/><line opacity="0.2" x1="348.19603184095683" x2="348.19603184095683" y1="0" y2="30"/><line opacity="0.2" x1="249.07439144064978" x2="249.07439144064978" y1="0" y2="30"/><line opacity="0.2" x1="282.25171294874133" x2="282.25171294874133" y1="0" y2="30"/><line opacity="0.2" x1="174.7272173047221" x2="174.7272173047221" y1="0" y2="30"/><line opacity="0.2" x1="483.54011873653695" x2="483.54011873653695" y1="0" y2="30"/><line opacity="0.2" x1="456.46655427912776" x2="456.46655427912776" y1="0" y2="30"/><line opacity="0.2" x1="356.3909335363995" x2="356.3909335363995" y1="0" y2="30"/><line opacity="0.2" x1="325.16619768905855" x2="325.16619768905855" y1="0" y2="30"/><line opacity="0.2" x1="439.6125494096381" x2="439.6125494096381" y1="0" y2="30"/><line opacity="0.2" x1="269.23511075108513" x2="269.23511075108513" y1="0" y2="30"/><line opacity="0.2" x1="280.39181854825165" x2="280.39181854825165" y1="0" y2="30"/><line opacity="0.2" x1="414.2352402122856" x2="414.2352402122856" y1="0" y2="30"/><line opacity="0.2" x1="446.2101189768756" x2="446.2101189768756" y1="0" y2="30"/><line opacity="0.2" x1="297.4572946787394" x2="297.4572946787394" y1="0" y2="30"/><line opacity="0.2" x1="403.58608542989595" x2="403.58608542989595" y1="0" y2="30"/><line opacity="0.2" x1="367.61067771185503" x2="367.61067771185503" y1="0" y2="30"/><line opacity="0.2" x1="307.9508629262429" x2="307.9508629262429" y1="0" y2="30"/><line opacity="0.2" x1="404.4010952168974" x2="404.4010952168974" y1="0" y2="30"/><line opacity="0.2" x1="77.34387609594266" x2="77.34387609594266" y1="0" y2="30"/><line opacity="0.2" x1="323.4075613579978" x2="323.4075613579978" y1="0" y2="30"/><line opacity="0.2" x1="420.1350520449228" x2="420.1350520449228" y1="0" y2="30"/><line opacity="0.2" x1="313.51527054861856" x2="313.51527054861856" y1="0" y2="30"/><line opacity="0.2" x1="418.1955336383254" x2="418.1955336383254" y1="0" y2="30"/><line opacity="0.2" x1="159.36250963120125" x2="159.36250963120125" y1="0" y2="30"/><line opacity="0.2" x1="310.38359412137686" x2="310.38359412137686" y1="0" y2="30"/><line opacity="0.2" x1="232.8857597973534" x2="232.8857597973534" y1="0" y2="30"/><line opacity="0.2" x1="159.83792302732905" x2="159.83792302732905" y1="0" y2="30"/><line opacity="0.2" x1="229.48504697890428" x2="229.48504697890428" y1="0" y2="30"/><line opacity="0.2" x1="257.1991586537369" x2="257.1991586537369" y1="0" y2="30"/><line opacity="0.2" x1="281.2628791438509" x2="281.2628791438509" y1="0" y2="30"/><line opacity="0.2" x1="305.31878463790906" x2="305.31878463790906" y1="0" y2="30"/><line opacity="0.2" x1="244.9744776238908" x2="244.9744776238908" y1="0" y2="30"/><line opacity="0.2" x1="361.01468261036257" x2="361.01468261036257" y1="0" y2="30"/><line opacity="0.2" x1="443.041814828704" x2="443.041814828704" y1="0" y2="30"/><line opacity="0.2" x1="384.9111906745209" x2="384.9111906745209" y1="0" y2="30"/><line opacity="0.2" x1="471.21481762156645" x2="471.21481762156645" y1="0" y2="30"/><line opacity="0.2" x1="206.86070346002768" x2="206.86070346002768" y1="0" y2="30"/><line opacity="0.2" x1="261.0047410987284" x2="261.0047410987284" y1="0" y2="30"/><line opacity="0.2" x1="221.9629502725372" x2="221.9629502725372" y1="0" y2="30"/><line opacity="0.2" x1="325.65669838526406" x2="325.65669838526406" y1="0" y2="30"/><line opacity="0.2" x1="466.11326516207305" x2="466.11326516207305" y1="0" y2="30"/><line opacity="0.2" x1="329.0120426983936" x2="329.0120426983936" y1="0" y2="30"/><line opacity="0.2" x1="351.0561853360482" x2="351.0561853360482" y1="0" y2="30"/><line opacity="0.2" x1="311.09557769434855" x2="311.09557769434855" y1="0" y2="30"/><line opacity="0.2" x1="280.84536211071793" x2="280.84536211071793" y1="0" y2="30"/><line opacity="0.2" x1="321.45246554696166" x2="321.45246554696166" y1="0" y2="30"/><line opacity="0.2" x1="250.9899391556237" x2="250.9899391556237" y1="0" y2="30"/><line opacity="0.2" x1="395.57004784640003" x2="395.57004784640003" y1="0" y2="30"/><line opacity="0.2" x1="300.5328439250403" x2="300.5328439250403" y1="0" y2="30"/><line opacity="0.2" x1="426.2297612954836" x2="426.2297612954836" y1="0" y2="30"/><line opacity="0.2" x1="334.71519462061013" x2="334.71519462061013" y1="0" y2="30"/><line opacity="0.2" x1="346.700951557967" x2="346.700951557967" y1="0" y2="30"/><line opacity="0.2" x1="386.1681707658188" x2="386.1681707658188" y1="0" y2="30"/><line opacity="0.2" x1="499.37454544646954" x2="499.37454544646954" y1="0" y2="30"/><line opacity="0.2" x1="320.0943113662107" x2="320.0943113662107" y1="0" y2="30"/><line opacity="0.2" x1="209.45350449804533" x2="209.45350449804533" y1="0" y2="30"/><line opacity="0.2" x1="322.8105904428692" x2="322.8105904428692" y1="0" y2="30"/><line opacity="0.2" x1="426.6245330678381" x2="426.6245330678381" y1="0" y2="30"/><line opacity="0.2" x1="327.4893562114903" x2="327.4893562114903" y1="0" y2="30"/><line opacity="0.2" x1="352.43931725275064" x2="352.43931725275064" y1="0" y2="30"/><line opacity="0.2" x1="285.0234483586625" x2="285.0234483586625" y1="0" y2="30"/><line opacity="0.2" x1="171.95270483987542" x2="171.95270483987542" y1="0" y2="30"/><line opacity="0.2" x1="214.16451501413644" x2="214.16451501413644" y1="0" y2="30"/><line opacity="0.2" x1="382.06831084616095" x2="382.06831084616095" y1="0" y2="30"/><line opacity="0.2" x1="284.7090800387191" x2="284.7090800387191" y1="0" y2="30"/><line opacity="0.2" x1="334.5433374230114" x2="334.5433374230114" y1="0" y2="30"/><line opacity="0.2" x1="389.2234612970988" x2="389.2234612970988" y1="0" y2="30"/><line opacity="0.2" x1="334.6321692383668" x2="334.6321692383668" y1="0" y2="30"/><line opacity="0.2" x1="244.97632102265038" x2="244.97632102265038" y1="0" y2="30"/><line opacity="0.2" x1="147.24249122382068" x2="147.24249122382068" y1="0" y2="30"/><line opacity="0.2" x1="505.73570788331676" x2="505.73570788331676" y1="0" y2="30"/><line opacity="0.2" x1="323.01021026999894" x2="323.01021026999894" y1="0" y2="30"/><line opacity="0.2" x1="339.83947017586036" x2="339.83947017586036" y1="0" y2="30"/><line opacity="0.2" x1="324.2748863804569" x2="324.2748863804569" y1="0" y2="30"/><line opacity="0.2" x1="250.72883949382333" x2="250.72883949382333" y1="0" y2="30"/><line opacity="0.2" x1="292.0456902842845" x2="292.0456902842845" y1="0" y2="30"/><line opacity="0.2" x1="125.90690678020698" x2="125.90690678020698" y1="0" y2="30"/><line opacity="0.2" x1="159.8471417548915" x2="159.8471417548915" y1="0" y2="30"/><line opacity="0.2" x1="419.05964876712346" x2="419.05964876712346" y1="0" y2="30"/><line opacity="0.2" x1="205.7705389759056" x2="205.7705389759056" y1="0" y2="30"/><line opacity="0.2" x1="430.236422087718" x2="430.236422087718" y1="0" y2="30"/><line opacity="0.2" x1="300.6889027274086" x2="300.6889027274086" y1="0" y2="30"/><line opacity="0.2" x1="451.1103006888271" x2="451.1103006888271" y1="0" y2="30"/><line opacity="0.2" x1="205.63082804197518" x2="205.63082804197518" y1="0" y2="30"/><line opacity="0.2" x1="482.6461896223167" x2="482.6461896223167" y1="0" y2="30"/><line opacity="0.2" x1="466.4014345974384" x2="466.4014345974384" y1="0" y2="30"/><line opacity="0.2" x1="308.69525169672016" x2="308.69525169672016" y1="0" y2="30"/><line opacity="0.2" x1="300.7292521226402" x2="300.7292521226402" y1="0" y2="30"/><line opacity="0.2" x1="471.61941733858225" x2="471.61941733858225" y1="0" y2="30"/><line opacity="0.2" x1="353.5741587800859" x2="353.5741587800859" y1="0" y2="30"/><line opacity="0.2" x1="391.09469014587177" x2="391.09469014587177" y1="0" y2="30"/><line opacity="0.2" x1="453.2120799562289" x2="453.2120799562289" y1="0" y2="30"/><line opacity="0.2" x1="257.8178291937684" x2="257.8178291937684" y1="0" y2="30"/><line opacity="0.2" x1="458.48370082897515" x2="458.48370082897515" y1="0" y2="30"/><line opacity="0.2" x1="386.8513100435597" x2="386.8513100435597" y1="0" y2="30"/><line opacity="0.2" x1="151.5871098398182" x2="151.5871098398182" y1="0" y2="30"/><line opacity="0.2" x1="321.40016383725543" x2="321.40016383725543" y1="0" y2="30"/><line opacity="0.2" x1="312.96384827147324" x2="312.96384827147324" y1="0" y2="30"/><line opacity="0.2" x1="211.891978497892" x2="211.891978497892" y1="0" y2="30"/><line opacity="0.2" x1="355.0568718351898" x2="355.0568718351898" y1="0" y2="30"/><line opacity="0.2" x1="346.3892413934615" x2="346.3892413934615" y1="0" y2="30"/><line opacity="0.2" x1="296.20958745203154" x2="296.20958745203154" y1="0" y2="30"/><line opacity="0.2" x1="497.7532487257178" x2="497.7532487257178" y1="0" y2="30"/><line opacity="0.2" x1="484.50318121480063" x2="484.50318121480063" y1="0" y2="30"/><line opacity="0.2" x1="123.43380121786387" x2="123.43380121786387" y1="0" y2="30"/><line opacity="0.2" x1="419.68125497864423" x2="419.68125497864423" y1="0" y2="30"/><line opacity="0.2" x1="248.00529890905747" x2="248.00529890905747" y1="0" y2="30"/><line opacity="0.2" x1="444.2568434122945" x2="444.2568434122945" y1="0" y2="30"/><line opacity="0.2" x1="329.7603697349859" x2="329.7603697349859" y1="0" y2="30"/><line opacity="0.2" x1="376.0291270779007" x2="376.0291270779007" y1="0" y2="30"/><line opacity="0.2" x1="376.2711698808574" x2="376.2711698808574" y1="0" y2="30"/><line opacity="0.2" x1="365.34589517919767" x2="365.34589517919767" y1="0" y2="30"/><line opacity="0.2" x1="397.5649484193598" x2="397.5649484193598" y1="0" y2="30"/><line opacity="0.2" x1="361.53433068244686" x2="361.53433068244686" y1="0" y2="30"/><line opacity="0.2" x1="305.6719571632957" x2="305.6719571632957" y1="0" y2="30"/><line opacity="0.2" x1="409.5256870925133" x2="409.5256870925133" y1="0" y2="30"/><line opacity="0.2" x1="312.82421682300594" x2="312.82421682300594" y1="0" y2="30"/><line opacity="0.2" x1="357.8677218710205" x2="357.8677218710205" y1="0" y2="30"/><line opacity="0.2" x1="301.2922734797754" x2="301.2922734797754" y1="0" y2="30"/><line opacity="0.2" x1="241.76748368613246" x2="241.76748368613246" y1="0" y2="30"/><line opacity="0.2" x1="109.11478226230142" x2="109.11478226230142" y1="0" y2="30"/><line opacity="0.2" x1="461.7683021555562" x2="461.7683021555562" y1="0" y2="30"/><line opacity="0.2" x1="327.81281633179753" x2="327.81281633179753" y1="0" y2="30"/><line opacity="0.2" x1="501.0015386479799" x2="501.0015386479799" y1="0" y2="30"/><line opacity="0.2" x1="20" x2="20" y1="0" y2="30"/><line opacity="0.2" x1="323.69897138613646" x2="323.69897138613646" y1="0" y2="30"/><line opacity="0.2" x1="391.9876761423478" x2="391.9876761423478" y1="0" y2="30"/><line opacity="0.2" x1="220.07537067992828" x2="220.07537067992828" y1="0" y2="30"/><line opacity="0.2" x1="464.875399962903" x2="464.875399962903" y1="0" y2="30"/><line opacity="0.2" x1="192.94688681847467" x2="192.94688681847467" y1="0" y2="30"/><line opacity="0.2" x1="502.90268750405664" x2="502.90268750405664" y1="0" y2="30"/><line opacity="0.2" x1="346.79591483195077" x2="346.79591483195077" y1="0" y2="30"/><line opacity="0.2" x1="414.7108992232381" x2="414.7108992232381" y1="0" y2="30"/><line opacity="0.2" x1="459.79033694296146" x2="459.79033694296146" y1="0" y2="30"/><line opacity="0.2" x1="320.80120645866566" x2="320.80120645866566" y1="0" y2="30"/><line opacity="0.2" x1="348.60264690504556" x2="348.60264690504556" y1="0" y2="30"/><line opacity="0.2" x1="374.8844482298684" x2="374.8844482298684" y1="0" y2="30"/><line opacity="0.2" x1="263.23479847604506" x2="263.23479847604506" y1="0" y2="30"/><line opacity="0.2" x1="177.16379288608098" x2="177.16379288608098" y1="0" y2="30"/><line opacity="0.2" x1="291.19569043824794" x2="291.19569043824794" y1="0" y2="30"/><line opacity="0.2" x1="280.41286107799016" x2="280.41286107799016" y1="0" y2="30"/><line opacity="0.2" x1="314.4557236750231" x2="314.4557236750231" y1="0" y2="30"/><line opacity="0.2" x1="348.5004605123968" x2="348.5004605123968" y1="0" y2="30"/><line opacity="0.2" x1="396.83506104386544" x2="396.83506104386544" y1="0" y2="30"/><line opacity="0.2" x1="383.54241071012507" x2="383.54241071012507" y1="0" y2="30"/><line opacity="0.2" x1="424.11330833984334" x2="424.11330833984334" y1="0" y2="30"/><line opacity="0.2" x1="320.1083769675916" x2="320.1083769675916" y1="0" y2="30"/><line opacity="0.2" x1="256.3756444389307" x2="256.3756444389307" y1="0" y2="30"/><line opacity="0.2" x1="256.9233266665853" x2="256.9233266665853" y1="0" y2="30"/><line opacity="0.2" x1="156.26118755954528" x2="156.26118755954528" y1="0" y2="30"/><line opacity="0.2" x1="188.0315280344168" x2="188.0315280344168" y1="0" y2="30"/><line opacity="0.2" x1="240.9178789251324" x2="240.9178789251324" y1="0" y2="30"/><line opacity="0.2" x1="519.4402539091567" x2="519.4402539091567" y1="0" y2="30"/><line opacity="0.2" x1="470.6761463954916" x2="470.6761463954916" y1="0" y2="30"/><line opacity="0.2" x1="376.7022444563914" x2="376.7022444563914" y1="0" y2="30"/><line opacity="0.2" x1="291.8940026400908" x2="291.8940026400908" y1="0" y2="30"/><line opacity="0.2" x1="288.2723204064415" x2="288.2723204064415" y1="0" y2="30"/><line opacity="0.2" x1="385.9581848224718" x2="385.9581848224718" y1="0" y2="30"/><line opacity="0.2" x1="284.19656621773254" x2="284.19656621773254" y1="0" y2="30"/><line opacity="0.2" x1="210.5240826023274" x2="210.5240826023274" y1="0" y2="30"/><line opacity="0.2" x1="124.10510962990826" x2="124.10510962990826" y1="0" y2="30"/><line opacity="0.2" x1="470.7289804190093" x2="470.7289804190093" y1="0" y2="30"/><line opacity="0.2" x1="226.96254958705796" x2="226.96254958705796" y1="0" y2="30"/><line opacity="0.2" x1="417.0931416160741" x2="417.0931416160741" y1="0" y2="30"/><line opacity="0.2" x1="435.1349748713262" x2="435.1349748713262" y1="0" y2="30"/><line opacity="0.2" x1="379.7635173578058" x2="379.7635173578058" y1="0" y2="30"/><line opacity="0.2" x1="92.36993856079377" x2="92.36993856079377" y1="0" y2="30"/><line opacity="0.2" x1="262.51913276813053" x2="262.51913276813053" y1="0" y2="30"/><line opacity="0.2" x1="166.2863865653875" x2="166.2863865653875" y1="0" y2="30"/><line opacity="0.2" x1="416.090867939902" x2="416.090867939902" y1="0" y2="30"/><line opacity="0.2" x1="226.75448867787827" x2="226.75448867787827" y1="0" y2="30"/><line opacity="0.2" x1="236.10092693435462" x2="236.10092693435462" y1="0" y2="30"/><line opacity="0.2" x1="61.919698385627754" x2="61.919698385627754" y1="0" y2="30"/><line opacity="0.2" x1="434.83251275222824" x2="434.83251275222824" y1="0" y2="30"/><line opacity="0.2" x1="453.30510161010926" x2="453.30510161010926" y1="0" y2="30"/><line opacity="0.2" x1="497.93137312237474" x2="497.93137312237474" y1="0" y2="30"/><line opacity="0.2" x1="294.2345659754816" x2="294.2345659754816" y1="0" y2="30"/><line opacity="0.2" x1="308.4515981074588" x2="308.4515981074588" y1="0" y2="30"/><line opacity="0.2" x1="366.6556633674419" x2="366.6556633674419" y1="0" y2="30"/><line opacity="0.2" x1="203.48324168516416" x2="203.48324168516416" y1="0" y2="30"/><line opacity="0.2" x1="463.15659654510824" x2="463.15659654510824" y1="0" y2="30"/><line opacity="0.2" x1="310.53962178288566" x2="310.53962178288566" y1="0" y2="30"/><line opacity="0.2" x1="223.54774779299035" x2="223.54774779299035" y1="0" y2="30"/><line opacity="0.2" x1="331.1017216621311" x2="331.1017216621311" y1="0" y2="30"/><line opacity="0.2" x1="416.7275378508771" x2="416.7275378508771" y1="0" y2="30"/><line opacity="0.2" x1="340.30250190372624" x2="340.30250190372624" y1="0" y2="30"/><line opacity="0.2" x1="289.1458188392917" x2="289.1458188392917" y1="0" y2="30"/><line opacity="0.2" x1="231.73169664337334" x2="231.73169664337334" y1="0" y2="30"/><line opacity="0.2" x1="452.39149895044335" x2="452.39149895044335" y1="0" y2="30"/><line opacity="0.2" x1="528.1663122978116" x2="528.1663122978116" y1="0" y2="30"/><line opacity="0.2" x1="297.6500532986438" x2="297.6500532986438" y1="0" y2="30"/><line opacity="0.2" x1="495.34041376989796" x2="495.34041376989796" y1="0" y2="30"/><line opacity="0.2" x1="127.11281148747372" x2="127.11281148747372" y1="0" y2="30"/><line opacity="0.2" x1="360.65636555741406" x2="360.65636555741406" y1="0" y2="30"/><line opacity="0.2" x1="395.5114029328809" x2="395.5114029328809" y1="0" y2="30"/><line opacity="0.2" x1="437.5951554825215" x2="437.5951554825215" y1="0" y2="30"/><line opacity="0.2" x1="384.3123251493999" x2="384.3123251493999" y1="0" y2="30"/><line opacity="0.2" x1="183.4631074494697" x2="183.4631074494697" y1="0" y2="30"/><line opacity="0.2" x1="130.22074478557425" x2="130.22074478557425" y1="0" y2="30"/><line opacity="0.2" x1="69.16196970932418" x2="69.16196970932418" y1="0" y2="30"/><line opacity="0.2" x1="302.4214041272826" x2="302.4214041272826" y1="0" y2="30"/><line opacity="0.2" x1="237.61569017701638" x2="237.61569017701638" y1="0" y2="30"/><line opacity="0.2" x1="398.5950654927054" x2="398.5950654927054" y1="0" y2="30"/><line opacity="0.2" x1="359.0366280409958" x2="359.0366280409958" y1="0" y2="30"/><line opacity="0.2" x1="366.185594335903" x2="366.185594335903" y1="0" y2="30"/><line opacity="0.2" x1="417.2161305806281" x2="417.2161305806281" y1="0" y2="30"/><line opacity="0.2" x1="364.3106276500553" x2="364.3106276500553" y1="0" y2="30"/><line opacity="0.2" x1="262.9386401773753" x2="262.9386401773753" y1="0" y2="30"/><line opacity="0.2" x1="188.18116588694772" x2="188.18116588694772" y1="0" y2="30"/><line opacity="0.2" x1="260.0367814104339" x2="260.0367814104339" y1="0" y2="30"/><line opacity="0.2" x1="189.3531974787362" x2="189.3531974787362" y1="0" y2="30"/><line opacity="0.2" x1="262.15738631438757" x2="262.15738631438757" y1="0" y2="30"/><line opacity="0.2" x1="352.3416295111325" x2="352.3416295111325" y1="0" y2="30"/><line opacity="0.2" x1="367.9419779139771" x2="367.9419779139771" y1="0" y2="30"/><line opacity="0.2" x1="127.35268054070417" x2="127.35268054070417" y1="0" y2="30"/><line opacity="0.2" x1="333.5563785834048" x2="333.5563785834048" y1="0" y2="30"/><line opacity="0.2" x1="495.5619493766544" x2="495.5619493766544" y1="0" y2="30"/><line opacity="0.2" x1="351.21113152237837" x2="351.21113152237837" y1="0" y2="30"/><line opacity="0.2" x1="351.35965880062355" x2="351.35965880062355" y1="0" y2="30"/><line opacity="0.2" x1="185.57283685347653" x2="185.57283685347653" y1="0" y2="30"/><line opacity="0.2" x1="186.68306209026701" x2="186.68306209026701" y1="0" y2="30"/><line opacity="0.2" x1="451.82931527988757" x2="451.82931527988757" y1="0" y2="30"/><line opacity="0.2" x1="490.2193115853881" x2="490.2193115853881" y1="0" y2="30"/><line opacity="0.2" x1="194.42409031876736" x2="194.42409031876736" y1="0" y2="30"/><line opacity="0.2" x1="307.2105660627688" x2="307.2105660627688" y1="0" y2="30"/><line opacity="0.2" x1="316.6987707425827" x2="316.6987707425827" y1="0" y2="30"/><line opacity="0.2" x1="425.0428124864189" x2="425.0428124864189" y1="0" y2="30"/><line opacity="0.2" x1="320.0932826069865" x2="320.0932826069865" y1="0" y2="30"/><line opacity="0.2" x1="457.39740341789195" x2="457.39740341789195" y1="0" y2="30"/><line opacity="0.2" x1="306.04405518839974" x2="306.04405518839974" y1="0" y2="30"/><line opacity="0.2" x1="323.0009934319168" x2="323.0009934319168" y1="0" y2="30"/><line opacity="0.2" x1="313.5528699300612" x2="313.5528699300612" y1="0" y2="30"/><line opacity="0.2" x1="318.96892317586173" x2="318.96892317586173" y1="0" y2="30"/><line opacity="0.2" x1="238.48545188209386" x2="238.48545188209386" y1="0" y2="30"/><line opacity="0.2" x1="158.9628267281784" x2="158.9628267281784" y1="0" y2="30"/><line opacity="0.2" x1="336.1180711731564" x2="336.1180711731564" y1="0" y2="30"/><line opacity="0.2" x1="385.22910103269464" x2="385.22910103269464" y1="0" y2="30"/><line opacity="0.2" x1="313.12141108222795" x2="313.12141108222795" y1="0" y2="30"/><line opacity="0.2" x1="374.668170395785" x2="374.668170395785" y1="0" y2="30"/><line opacity="0.2" x1="259.61096048280217" x2="259.61096048280217" y1="0" y2="30"/><line opacity="0.2" x1="87.83444467015755" x2="87.83444467015755" y1="0" y2="30"/><line opacity="0.2" x1="361.21976425640054" x2="361.21976425640054" y1="0" y2="30"/><line opacity="0.2" x1="306.5585753831501" x2="306.5585753831501" y1="0" y2="30"/><line opacity="0.2" x1="301.68622678304246" x2="301.68622678304246" y1="0" y2="30"/><line opacity="0.2" x1="275.61833480324236" x2="275.61833480324236" y1="0" y2="30"/><line opacity="0.2" x1="391.62939332717576" x2="391.62939332717576" y1="0" y2="30"/><line opacity="0.2" x1="294.1755046162427" x2="294.1755046162427" y1="0" y2="30"/><line opacity="0.2" x1="313.7227706115339" x2="313.7227706115339" y1="0" y2="30"/><line opacity="0.2" x1="470.75570570210937" x2="470.75570570210937" y1="0" y2="30"/><line opacity="0.2" x1="346.1831244160903" x2="346.1831244160903" y1="0" y2="30"/><line opacity="0.2" x1="222.28832664193698" x2="222.28832664193698" y1="0" y2="30"/><line opacity="0.2" x1="469.49191996123375" x2="469.49191996123375" y1="0" y2="30"/><line opacity="0.2" x1="147.6458611756991" x2="147.6458611756991" y1="0" y2="30"/><line opacity="0.2" x1="268.49646101121283" x2="268.49646101121283" y1="0" y2="30"/><line opacity="0.2" x1="165.3870535719597" x2="165.3870535719597" y1="0" y2="30"/><line opacity="0.2" x1="208.98819651405492" x2="208.98819651405492" y1="0" y2="30"/><line opacity="0.2" x1="473.62204592529986" x2="473.62204592529986" y1="0" y2="30"/><line opacity="0.2" x1="275.4070483175778" x2="275.4070483175778" y1="0" y2="30"/><line opacity="0.2" x1="454.4352793095153" x2="454.4352793095153" y1="0" y2="30"/><line opacity="0.2" x1="105.24493486475774" x2="105.24493486475774" y1="0" y2="30"/><line opacity="0.2" x1="316.531794135796" x2="316.531794135796" y1="0" y2="30"/><line opacity="0.2" x1="330.6866081547301" x2="330.6866081547301" y1="0" y2="30"/><line opacity="0.2" x1="292.7594194578674" x2="292.7594194578674" y1="0" y2="30"/><line opacity="0.2" x1="385.50681805558827" x2="385.50681805558827" y1="0" y2="30"/><line opacity="0.2" x1="486.70229267248897" x2="486.70229267248897" y1="0" y2="30"/><line opacity="0.2" x1="364.395561505915" x2="364.395561505915" y1="0" y2="30"/><line opacity="0.2" x1="367.4348377208732" x2="367.4348377208732" y1="0" y2="30"/><line opacity="0.2" x1="207.36562198233347" x2="207.36562198233347" y1="0" y2="30"/><line opacity="0.2" x1="155.43280874706605" x2="155.43280874706605" y1="0" y2="30"/><line opacity="0.2" x1="304.71190043100944" x2="304.71190043100944" y1="0" y2="30"/><line opacity="0.2" x1="292.7233217370273" x2="292.7233217370273" y1="0" y2="30"/><line opacity="0.2" x1="213.58539886911947" x2="213.58539886911947" y1="0" y2="30"/><line opacity="0.2" x1="134.38255353403844" x2="134.38255353403844" y1="0" y2="30"/><line opacity="0.2" x1="351.04636149877666" x2="351.04636149877666" y1="0" y2="30"/><line opacity="0.2" x1="301.04192553017" x2="301.04192553017" y1="0" y2="30"/><line opacity="0.2" x1="387.6520924288392" x2="387.6520924288392" y1="0" y2="30"/><line opacity="0.2" x1="410.99661614684277" x2="410.99661614684277" y1="0" y2="30"/><line opacity="0.2" x1="294.55420173657797" x2="294.55420173657797" y1="0" y2="30"/><line opacity="0.2" x1="290.8622580583542" x2="290.8622580583542" y1="0" y2="30"/><line opacity="0.2" x1="165.55707670289667" x2="165.55707670289667" y1="0" y2="30"/><line opacity="0.2" x1="453.2884715946203" x2="453.2884715946203" y1="0" y2="30"/><line opacity="0.2" x1="477.0042840661268" x2="477.0042840661268" y1="0" y2="30"/><line opacity="0.2" x1="345.94270362951846" x2="345.94270362951846" y1="0" y2="30"/><line opacity="0.2" x1="196.8167168506409" x2="196.8167168506409" y1="0" y2="30"/><line opacity="0.2" x1="129.82521357604531" x2="129.82521357604531" y1="0" y2="30"/><line opacity="0.2" x1="40.63920568139882" x2="40.63920568139882" y1="0" y2="30"/><line opacity="0.2" x1="305.7375288963165" x2="305.7375288963165" y1="0" y2="30"/><line opacity="0.2" x1="212.3265450822502" x2="212.3265450822502" y1="0" y2="30"/><line opacity="0.2" x1="321.2636191067879" x2="321.2636191067879" y1="0" y2="30"/><line opacity="0.2" x1="334.15965939637147" x2="334.15965939637147" y1="0" y2="30"/><line opacity="0.2" x1="345.7078994735182" x2="345.7078994735182" y1="0" y2="30"/><line opacity="0.2" x1="261.31488759332757" x2="261.31488759332757" y1="0" y2="30"/><line opacity="0.2" x1="407.30087119720235" x2="407.30087119720235" y1="0" y2="30"/><line opacity="0.2" x1="101.13589591291942" x2="101.13589591291942" y1="0" y2="30"/><line opacity="0.2" x1="476.92247905792146" x2="476.92247905792146" y1="0" y2="30"/><line opacity="0.2" x1="333.4780584905725" x2="333.4780584905725" y1="0" y2="30"/><line opacity="0.2" x1="281.25118489809074" x2="281.25118489809074" y1="0" y2="30"/><line opacity="0.2" x1="378.9588586249333" x2="378.9588586249333" y1="0" y2="30"/><line opacity="0.2" x1="305.6058555420502" x2="305.6058555420502" y1="0" y2="30"/><line opacity="0.2" x1="466.2512965363847" x2="466.2512965363847" y1="0" y2="30"/><line opacity="0.2" x1="202.74333843088252" x2="202.74333843088252" y1="0" y2="30"/><line opacity="0.2" x1="284.7665913274745" x2="284.7665913274745" y1="0" y2="30"/><line opacity="0.2" x1="483.08242607892527" x2="483.08242607892527" y1="0" y2="30"/><line opacity="0.2" x1="201.58429380987207" x2="201.58429380987207" y1="0" y2="30"/><line opacity="0.2" x1="135.42088619144698" x2="135.42088619144698" y1="0" y2="30"/><line opacity="0.2" x1="387.4876553297632" x2="387.4876553297632" y1="0" y2="30"/><line opacity="0.2" x1="279.88115648372013" x2="279.88115648372013" y1="0" y2="30"/><line opacity="0.2" x1="505.6637734604066" x2="505.6637734604066" y1="0" y2="30"/><line opacity="0.2" x1="602.256887712328" x2="602.256887712328" y1="0" y2="30"/><line opacity="0.2" x1="528.3826297924584" x2="528.3826297924584" y1="0" y2="30"/><line opacity="0.2" x1="395.18095313650554" x2="395.18095313650554" y1="0" y2="30"/><line opacity="0.2" x1="593.2049414375568" x2="593.2049414375568" y1="0" y2="30"/><line opacity="0.2" x1="506.78579674908906" x2="506.78579674908906" y1="0" y2="30"/><line opacity="0.2" x1="441.89313546655086" x2="441.89313546655086" y1="0" y2="30"/><line opacity="0.2" x1="262.52972286890235" x2="262.52972286890235" y1="0" y2="30"/><line opacity="0.2" x1="482.1052168009998" x2="482.1052168009998" y1="0" y2="30"/><line opacity="0.2" x1="340.77620210731345" x2="340.77620210731345" y1="0" y2="30"/><line opacity="0.2" x1="145.67428221742722" x2="145.67428221742722" y1="0" y2="30"/><line opacity="0.2" x1="367.3929251457972" x2="367.3929251457972" y1="0" y2="30"/><line opacity="0.2" x1="308.3884378163669" x2="308.3884378163669" y1="0" y2="30"/><line opacity="0.2" x1="302.10144694093333" x2="302.10144694093333" y1="0" y2="30"/><line opacity="0.2" x1="137.71605235134606" x2="137.71605235134606" y1="0" y2="30"/><line opacity="0.2" x1="330.9126262787242" x2="330.9126262787242" y1="0" y2="30"/><line opacity="0.2" x1="261.4604034074803" x2="261.4604034074803" y1="0" y2="30"/><line opacity="0.2" x1="434.92115114187175" x2="434.92115114187175" y1="0" y2="30"/><line opacity="0.2" x1="422.73119880324697" x2="422.73119880324697" y1="0" y2="30"/><line opacity="0.2" x1="439.1856114980203" x2="439.1856114980203" y1="0" y2="30"/><line opacity="0.2" x1="261.5166596368371" x2="261.5166596368371" y1="0" y2="30"/><line opacity="0.2" x1="382.2143195997166" x2="382.2143195997166" y1="0" y2="30"/><line opacity="0.2" x1="203.20145862156377" x2="203.20145862156377" y1="0" y2="30"/><line opacity="0.2" x1="324.9264367248533" x2="324.9264367248533" y1="0" y2="30"/><line opacity="0.2" x1="187.3202859390014" x2="187.3202859390014" y1="0" y2="30"/><line opacity="0.2" x1="247.75066372601398" x2="247.75066372601398" y1="0" y2="30"/><line opacity="0.2" x1="390.0490672567438" x2="390.0490672567438" y1="0" y2="30"/><line opacity="0.2" x1="395.95745302408113" x2="395.95745302408113" y1="0" y2="30"/><line opacity="0.2" x1="263.36538385204204" x2="263.36538385204204" y1="0" y2="30"/><line opacity="0.2" x1="486.67050362962857" x2="486.67050362962857" y1="0" y2="30"/><line opacity="0.2" x1="66.82098913177731" x2="66.82098913177731" y1="0" y2="30"/><line opacity="0.2" x1="266.3794333042557" x2="266.3794333042557" y1="0" y2="30"/><line opacity="0.2" x1="233.44674616461677" x2="233.44674616461677" y1="0" y2="30"/><line opacity="0.2" x1="467.33806483114057" x2="467.33806483114057" y1="0" y2="30"/><line opacity="0.2" x1="302.77126712549625" x2="302.77126712549625" y1="0" y2="30"/><line opacity="0.2" x1="471.5830055911398" x2="471.5830055911398" y1="0" y2="30"/><line opacity="0.2" x1="219.6365118862521" x2="219.6365118862521" y1="0" y2="30"/><line opacity="0.2" x1="545.1759500550269" x2="545.1759500550269" y1="0" y2="30"/><line opacity="0.2" x1="359.6300940113011" x2="359.6300940113011" y1="0" y2="30"/><line opacity="0.2" x1="304.96422112372034" x2="304.96422112372034" y1="0" y2="30"/><line opacity="0.2" x1="556.0898983232104" x2="556.0898983232104" y1="0" y2="30"/><line opacity="0.2" x1="347.8218948692202" x2="347.8218948692202" y1="0" y2="30"/><line opacity="0.2" x1="225.66661427019048" x2="225.66661427019048" y1="0" y2="30"/><line opacity="0.2" x1="291.67539555238415" x2="291.67539555238415" y1="0" y2="30"/><line opacity="0.2" x1="414.7838536553519" x2="414.7838536553519" y1="0" y2="30"/><line opacity="0.2" x1="429.09352732812175" x2="429.09352732812175" y1="0" y2="30"/><line opacity="0.2" x1="418.62698227852104" x2="418.62698227852104" y1="0" y2="30"/><line opacity="0.2" x1="350.11217883408193" x2="350.11217883408193" y1="0" y2="30"/><line opacity="0.2" x1="421.26387783171884" x2="421.26387783171884" y1="0" y2="30"/><line opacity="0.2" x1="256.44868641946016" x2="256.44868641946016" y1="0" y2="30"/><line opacity="0.2" x1="349.3888273268025" x2="349.3888273268025" y1="0" y2="30"/><line opacity="0.2" x1="114.94838872979912" x2="114.94838872979912" y1="0" y2="30"/><line opacity="0.2" x1="506.1570058819018" x2="506.1570058819018" y1="0" y2="30"/><line opacity="0.2" x1="134.76801358185145" x2="134.76801358185145" y1="0" y2="30"/><line opacity="0.2" x1="359.67432842247086" x2="359.67432842247086" y1="0" y2="30"/><line opacity="0.2" x1="271.1583633840594" x2="271.1583633840594" y1="0" y2="30"/><line opacity="0.2" x1="309.28206764914887" x2="309.28206764914887" y1="0" y2="30"/><line opacity="0.2" x1="312.60377265465274" x2="312.60377265465274" y1="0" y2="30"/><line opacity="0.2" x1="307.2831546268647" x2="307.2831546268647" y1="0" y2="30"/><line opacity="0.2" x1="341.72309627549595" x2="341.72309627549595" y1="0" y2="30"/><line opacity="0.2" x1="338.2503395544209" x2="338.2503395544209" y1="0" y2="30"/><line opacity="0.2" x1="346.03821037558566" x2="346.03821037558566" y1="0" y2="30"/><line opacity="0.2" x1="408.1140544501138" x2="408.1140544501138" y1="0" y2="30"/><line opacity="0.2" x1="326.5986688524832" x2="326.5986688524832" y1="0" y2="30"/><line opacity="0.2" x1="414.5805886572629" x2="414.5805886572629" y1="0" y2="30"/><line opacity="0.2" x1="364.937048086068" x2="364.937048086068" y1="0" y2="30"/><line opacity="0.2" x1="535.5678087565441" x2="535.5678087565441" y1="0" y2="30"/><line opacity="0.2" x1="339.12526127577075" x2="339.12526127577075" y1="0" y2="30"/><line opacity="0.2" x1="263.6242535578721" x2="263.6242535578721" y1="0" y2="30"/><line opacity="0.2" x1="338.94293864333406" x2="338.94293864333406" y1="0" y2="30"/><line opacity="0.2" x1="461.59374775962823" x2="461.59374775962823" y1="0" y2="30"/><line opacity="0.2" x1="220.75143052158688" x2="220.75143052158688" y1="0" y2="30"/><line opacity="0.2" x1="418.43672349208884" x2="418.43672349208884" y1="0" y2="30"/><line opacity="0.2" x1="303.5490157287456" x2="303.5490157287456" y1="0" y2="30"/><line opacity="0.2" x1="336.6957023211882" x2="336.6957023211882" y1="0" y2="30"/><line opacity="0.2" x1="384.1036806550498" x2="384.1036806550498" y1="0" y2="30"/><line opacity="0.2" x1="443.0168990666408" x2="443.0168990666408" y1="0" y2="30"/><line opacity="0.2" x1="522.6549061003864" x2="522.6549061003864" y1="0" y2="30"/><line opacity="0.2" x1="351.5941744614541" x2="351.5941744614541" y1="0" y2="30"/><line opacity="0.2" x1="266.29771625344216" x2="266.29771625344216" y1="0" y2="30"/><line opacity="0.2" x1="473.8199927004318" x2="473.8199927004318" y1="0" y2="30"/><line opacity="0.2" x1="379.51363062474314" x2="379.51363062474314" y1="0" y2="30"/><line opacity="0.2" x1="391.4496416689671" x2="391.4496416689671" y1="0" y2="30"/><line opacity="0.2" x1="310.37071345683177" x2="310.37071345683177" y1="0" y2="30"/><line opacity="0.2" x1="387.20520692718617" x2="387.20520692718617" y1="0" y2="30"/><line opacity="0.2" x1="290.5273626267933" x2="290.5273626267933" y1="0" y2="30"/><line opacity="0.2" x1="203.03670998238763" x2="203.03670998238763" y1="0" y2="30"/><line opacity="0.2" x1="334.70838111725243" x2="334.70838111725243" y1="0" y2="30"/><line opacity="0.2" x1="462.83162936839346" x2="462.83162936839346" y1="0" y2="30"/><line opacity="0.2" x1="535.0372017391712" x2="535.0372017391712" y1="0" y2="30"/><line opacity="0.2" x1="201.7834994019798" x2="201.7834994019798" y1="0" y2="30"/><line opacity="0.2" x1="444.1640776069337" x2="444.1640776069337" y1="0" y2="30"/><line opacity="0.2" x1="163.40580906229465" x2="163.40580906229465" y1="0" y2="30"/><line opacity="0.2" x1="421.3449978580421" x2="421.3449978580421" y1="0" y2="30"/><line opacity="0.2" x1="306.94429486254535" x2="306.94429486254535" y1="0" y2="30"/><line opacity="0.2" x1="403.1514355714531" x2="403.1514355714531" y1="0" y2="30"/><line opacity="0.2" x1="292.98964039171864" x2="292.98964039171864" y1="0" y2="30"/><line opacity="0.2" x1="513.9326323410844" x2="513.9326323410844" y1="0" y2="30"/><line opacity="0.2" x1="367.6435257363977" x2="367.6435257363977" y1="0" y2="30"/><line opacity="0.2" x1="383.0866735325742" x2="383.0866735325742" y1="0" y2="30"/><line opacity="0.2" x1="293.9898305511677" x2="293.9898305511677" y1="0" y2="30"/><line opacity="0.2" x1="250.79109487083093" x2="250.79109487083093" y1="0" y2="30"/><line opacity="0.2" x1="335.5020827455806" x2="335.5020827455806" y1="0" y2="30"/><line opacity="0.2" x1="402.2825658330734" x2="402.2825658330734" y1="0" y2="30"/><line opacity="0.2" x1="252.67053831604534" x2="252.67053831604534" y1="0" y2="30"/><line opacity="0.2" x1="272.688573008918" x2="272.688573008918" y1="0" y2="30"/><line opacity="0.2" x1="434.7473125201749" x2="434.7473125201749" y1="0" y2="30"/><line opacity="0.2" x1="113.55188238435069" x2="113.55188238435069" y1="0" y2="30"/><line opacity="0.2" x1="211.95650346981517" x2="211.95650346981517" y1="0" y2="30"/><line opacity="0.2" x1="436.41049071966063" x2="436.41049071966063" y1="0" y2="30"/><line opacity="0.2" x1="361.69912919174084" x2="361.69912919174084" y1="0" y2="30"/><line opacity="0.2" x1="322.67432394756474" x2="322.67432394756474" y1="0" y2="30"/><line opacity="0.2" x1="323.08046869085683" x2="323.08046869085683" y1="0" y2="30"/><line opacity="0.2" x1="440.72795943301355" x2="440.72795943301355" y1="0" y2="30"/><line opacity="0.2" x1="401.63588243189713" x2="401.63588243189713" y1="0" y2="30"/><line opacity="0.2" x1="276.41385862012976" x2="276.41385862012976" y1="0" y2="30"/><line opacity="0.2" x1="361.0154935045195" x2="361.0154935045195" y1="0" y2="30"/><line opacity="0.2" x1="344.59911347616236" x2="344.59911347616236" y1="0" y2="30"/><line opacity="0.2" x1="411.5469772175205" x2="411.5469772175205" y1="0" y2="30"/><line opacity="0.2" x1="233.0417592441533" x2="233.0417592441533" y1="0" y2="30"/><line opacity="0.2" x1="282.32887692300204" x2="282.32887692300204" y1="0" y2="30"/><line opacity="0.2" x1="461.245354068946" x2="461.245354068946" y1="0" y2="30"/><line opacity="0.2" x1="274.2044910860158" x2="274.2044910860158" y1="0" y2="30"/><line opacity="0.2" x1="104.37031630131587" x2="104.37031630131587" y1="0" y2="30"/><line opacity="0.2" x1="312.7651506159056" x2="312.7651506159056" y1="0" y2="30"/><line opacity="0.2" x1="525.1322144460687" x2="525.1322144460687" y1="0" y2="30"/><line opacity="0.2" x1="403.99079912374685" x2="403.99079912374685" y1="0" y2="30"/><line opacity="0.2" x1="518.0524913550712" x2="518.0524913550712" y1="0" y2="30"/><line opacity="0.2" x1="351.71127879100203" x2="351.71127879100203" y1="0" y2="30"/><line opacity="0.2" x1="385.6108477943266" x2="385.6108477943266" y1="0" y2="30"/><line opacity="0.2" x1="389.3949161606811" x2="389.3949161606811" y1="0" y2="30"/><line opacity="0.2" x1="502.6165154961504" x2="502.6165154961504" y1="0" y2="30"/><line opacity="0.2" x1="309.7651394221281" x2="309.7651394221281" y1="0" y2="30"/><line opacity="0.2" x1="401.90048574258174" x2="401.90048574258174" y1="0" y2="30"/><line opacity="0.2" x1="346.58425498336163" x2="346.58425498336163" y1="0" y2="30"/><line opacity="0.2" x1="250.92902840607192" x2="250.92902840607192" y1="0" y2="30"/><line opacity="0.2" x1="420.9412086537041" x2="420.9412086537041" y1="0" y2="30"/><line opacity="0.2" x1="371.11280648181463" x2="371.11280648181463" y1="0" y2="30"/><line opacity="0.2" x1="398.0449009321212" x2="398.0449009321212" y1="0" y2="30"/><line opacity="0.2" x1="324.28802444459933" x2="324.28802444459933" y1="0" y2="30"/><line opacity="0.2" x1="306.69175269186076" x2="306.69175269186076" y1="0" y2="30"/><line opacity="0.2" x1="345.61911069240205" x2="345.61911069240205" y1="0" y2="30"/><line opacity="0.2" x1="387.30431263408957" x2="387.30431263408957" y1="0" y2="30"/><line opacity="0.2" x1="356.7068774372597" x2="356.7068774372597" y1="0" y2="30"/><line opacity="0.2" x1="148.8891258763606" x2="148.8891258763606" y1="0" y2="30"/><line opacity="0.2" x1="299.9087808555795" x2="299.9087808555795" y1="0" y2="30"/><line opacity="0.2" x1="279.65517908529773" x2="279.65517908529773" y1="0" y2="30"/><line opacity="0.2" x1="376.8496795305962" x2="376.8496795305962" y1="0" y2="30"/><line opacity="0.2" x1="228.9473516280034" x2="228.9473516280034" y1="0" y2="30"/><line opacity="0.2" x1="473.6898078989886" x2="473.6898078989886" y1="0" y2="30"/><line opacity="0.2" x1="477.4163910105828" x2="477.4163910105828" y1="0" y2="30"/><line opacity="0.2" x1="369.376275537262" x2="369.376275537262" y1="0" y2="30"/><line opacity="0.2" x1="309.581044105828" x2="309.581044105828" y1="0" y2="30"/><line opacity="0.2" x1="272.97546217884167" x2="272.97546217884167" y1="0" y2="30"/><line opacity="0.2" x1="311.16835101000856" x2="311.16835101000856" y1="0" y2="30"/><line opacity="0.2" x1="207.08238542422174" x2="207.08238542422174" y1="0" y2="30"/><line opacity="0.2" x1="309.73630011463774" x2="309.73630011463774" y1="0" y2="30"/><line opacity="0.2" x1="380.28853161890595" x2="380.28853161890595" y1="0" y2="30"/><line opacity="0.2" x1="296.52380231818546" x2="296.52380231818546" y1="0" y2="30"/><line opacity="0.2" x1="301.549216134794" x2="301.549216134794" y1="0" y2="30"/><line opacity="0.2" x1="374.63341036856184" x2="374.63341036856184" y1="0" y2="30"/><line opacity="0.2" x1="374.37427433414325" x2="374.37427433414325" y1="0" y2="30"/><line opacity="0.2" x1="232.27056918116062" x2="232.27056918116062" y1="0" y2="30"/><line opacity="0.2" x1="314.47933121550864" x2="314.47933121550864" y1="0" y2="30"/><line opacity="0.2" x1="250.46359176881137" x2="250.46359176881137" y1="0" y2="30"/><line opacity="0.2" x1="354.10332810092507" x2="354.10332810092507" y1="0" y2="30"/><line opacity="0.2" x1="355.71255743482635" x2="355.71255743482635" y1="0" y2="30"/><line opacity="0.2" x1="408.1057343242654" x2="408.1057343242654" y1="0" y2="30"/><line opacity="0.2" x1="196.42519368744317" x2="196.42519368744317" y1="0" y2="30"/><line opacity="0.2" x1="261.8022681986895" x2="261.8022681986895" y1="0" y2="30"/><line opacity="0.2" x1="380.0232396081769" x2="380.0232396081769" y1="0" y2="30"/><line opacity="0.2" x1="328.9457924878061" x2="328.9457924878061" y1="0" y2="30"/><line opacity="0.2" x1="453.96532144509587" x2="453.96532144509587" y1="0" y2="30"/><line opacity="0.2" x1="238.86007579014193" x2="238.86007579014193" y1="0" y2="30"/><line opacity="0.2" x1="334.12497839752814" x2="334.12497839752814" y1="0" y2="30"/><line opacity="0.2" x1="91.27462052562743" x2="91.27462052562743" y1="0" y2="30"/><line opacity="0.2" x1="241.10823058227766" x2="241.10823058227766" y1="0" y2="30"/><line opacity="0.2" x1="462.3966819785359" x2="462.3966819785359" y1="0" y2="30"/><line opacity="0.2" x1="451.0215731976023" x2="451.0215731976023" y1="0" y2="30"/><line opacity="0.2" x1="316.4968975171296" x2="316.4968975171296" y1="0" y2="30"/><line opacity="0.2" x1="314.0706328210313" x2="314.0706328210313" y1="0" y2="30"/><line opacity="0.2" x1="402.27605757792685" x2="402.27605757792685" y1="0" y2="30"/><line opacity="0.2" x1="471.8286141671583" x2="471.8286141671583" y1="0" y2="30"/><line opacity="0.2" x1="317.3607653512295" x2="317.3607653512295" y1="0" y2="30"/><line opacity="0.2" x1="206.59715615916826" x2="206.59715615916826" y1="0" y2="30"/><line opacity="0.2" x1="412.4298556822167" x2="412.4298556822167" y1="0" y2="30"/><line opacity="0.2" x1="384.29061303413533" x2="384.29061303413533" y1="0" y2="30"/><line opacity="0.2" x1="404.9964463095517" x2="404.9964463095517" y1="0" y2="30"/><line opacity="0.2" x1="392.7058738733133" x2="392.7058738733133" y1="0" y2="30"/><line opacity="0.2" x1="420.94831603736304" x2="420.94831603736304" y1="0" y2="30"/><line opacity="0.2" x1="455.90047756064513" x2="455.90047756064513" y1="0" y2="30"/><line opacity="0.2" x1="516.6745853343025" x2="516.6745853343025" y1="0" y2="30"/><line opacity="0.2" x1="294.704962702031" x2="294.704962702031" y1="0" y2="30"/><line opacity="0.2" x1="258.61493016977005" x2="258.61493016977005" y1="0" y2="30"/><line opacity="0.2" x1="309.47334198077886" x2="309.47334198077886" y1="0" y2="30"/><line opacity="0.2" x1="144.91256466975727" x2="144.91256466975727" y1="0" y2="30"/><line opacity="0.2" x1="387.23053069234425" x2="387.23053069234425" y1="0" y2="30"/><line opacity="0.2" x1="243.8679835170243" x2="243.8679835170243" y1="0" y2="30"/><line opacity="0.2" x1="403.1774476632768" x2="403.1774476632768" y1="0" y2="30"/><line opacity="0.2" x1="291.56666363083366" x2="291.56666363083366" y1="0" y2="30"/><line opacity="0.2" x1="312.8426235282884" x2="312.8426235282884" y1="0" y2="30"/><line opacity="0.2" x1="236.82475773776048" x2="236.82475773776048" y1="0" y2="30"/><line opacity="0.2" x1="390.44934269816525" x2="390.44934269816525" y1="0" y2="30"/><line opacity="0.2" x1="570.2918546813144" x2="570.2918546813144" y1="0" y2="30"/><line opacity="0.2" x1="281.757458965532" x2="281.757458965532" y1="0" y2="30"/><line opacity="0.2" x1="369.48188504678143" x2="369.48188504678143" y1="0" y2="30"/><line opacity="0.2" x1="308.7076729354814" x2="308.7076729354814" y1="0" y2="30"/><line opacity="0.2" x1="534.841043079251" x2="534.841043079251" y1="0" y2="30"/><line opacity="0.2" x1="461.3834332970813" x2="461.3834332970813" y1="0" y2="30"/><line opacity="0.2" x1="564.2459789292377" x2="564.2459789292377" y1="0" y2="30"/><line opacity="0.2" x1="356.437627224887" x2="356.437627224887" y1="0" y2="30"/><line opacity="0.2" x1="389.9570662896607" x2="389.9570662896607" y1="0" y2="30"/><line opacity="0.2" x1="268.75668567004624" x2="268.75668567004624" y1="0" y2="30"/><line opacity="0.2" x1="245.93533923859763" x2="245.93533923859763" y1="0" y2="30"/><line opacity="0.2" x1="392.3673894769258" x2="392.3673894769258" y1="0" y2="30"/><line opacity="0.2" x1="347.1731894313714" x2="347.1731894313714" y1="0" y2="30"/><line opacity="0.2" x1="502.26600433894896" x2="502.26600433894896" y1="0" y2="30"/><line opacity="0.2" x1="195.22128921623903" x2="195.22128921623903" y1="0" y2="30"/><line opacity="0.2" x1="474.67416876805993" x2="474.67416876805993" y1="0" y2="30"/><line opacity="0.2" x1="324.6395130119855" x2="324.6395130119855" y1="0" y2="30"/><line opacity="0.2" x1="347.8820850983811" x2="347.8820850983811" y1="0" y2="30"/><line opacity="0.2" x1="379.0513346113153" x2="379.0513346113153" y1="0" y2="30"/><line opacity="0.2" x1="376.4350748653657" x2="376.4350748653657" y1="0" y2="30"/><line opacity="0.2" x1="128.10515042002967" x2="128.10515042002967" y1="0" y2="30"/><line opacity="0.2" x1="329.48890215179205" x2="329.48890215179205" y1="0" y2="30"/><line opacity="0.2" x1="416.891700936019" x2="416.891700936019" y1="0" y2="30"/><line opacity="0.2" x1="445.10744026369156" x2="445.10744026369156" y1="0" y2="30"/><line opacity="0.2" x1="449.5401552139309" x2="449.5401552139309" y1="0" y2="30"/><line opacity="0.2" x1="466.5052078398468" x2="466.5052078398468" y1="0" y2="30"/><line opacity="0.2" x1="122.27618771025968" x2="122.27618771025968" y1="0" y2="30"/><line opacity="0.2" x1="165.88143470964053" x2="165.88143470964053" y1="0" y2="30"/><line opacity="0.2" x1="312.66345051998275" x2="312.66345051998275" y1="0" y2="30"/><line opacity="0.2" x1="420.424569266466" x2="420.424569266466" y1="0" y2="30"/><line opacity="0.2" x1="159.76140971240773" x2="159.76140971240773" y1="0" y2="30"/><line opacity="0.2" x1="269.9641026158366" x2="269.9641026158366" y1="0" y2="30"/><line opacity="0.2" x1="360.2206966369024" x2="360.2206966369024" y1="0" y2="30"/><line opacity="0.2" x1="285.28328132237937" x2="285.28328132237937" y1="0" y2="30"/><line opacity="0.2" x1="429.6992268564707" x2="429.6992268564707" y1="0" y2="30"/><line opacity="0.2" x1="303.44316158632773" x2="303.44316158632773" y1="0" y2="30"/><line opacity="0.2" x1="71.03908250320335" x2="71.03908250320335" y1="0" y2="30"/><line opacity="0.2" x1="382.52631163751835" x2="382.52631163751835" y1="0" y2="30"/><line opacity="0.2" x1="261.44169384919365" x2="261.44169384919365" y1="0" y2="30"/><line opacity="0.2" x1="434.211829101828" x2="434.211829101828" y1="0" y2="30"/><line opacity="0.2" x1="268.6346259332858" x2="268.6346259332858" y1="0" y2="30"/><line opacity="0.2" x1="447.1828270148703" x2="447.1828270148703" y1="0" y2="30"/><line opacity="0.2" x1="256.20670900565057" x2="256.20670900565057" y1="0" y2="30"/><line opacity="0.2" x1="319.352193523287" x2="319.352193523287" y1="0" y2="30"/><line opacity="0.2" x1="244.30132145352297" x2="244.30132145352297" y1="0" y2="30"/><line opacity="0.2" x1="336.10668072124724" x2="336.10668072124724" y1="0" y2="30"/><line opacity="0.2" x1="232.29424460324034" x2="232.29424460324034" y1="0" y2="30"/><line opacity="0.2" x1="272.23086717049165" x2="272.23086717049165" y1="0" y2="30"/><line opacity="0.2" x1="277.624997683933" x2="277.624997683933" y1="0" y2="30"/><line opacity="0.2" x1="482.13724424654157" x2="482.13724424654157" y1="0" y2="30"/><line opacity="0.2" x1="264.05743995258035" x2="264.05743995258035" y1="0" y2="30"/><line opacity="0.2" x1="499.6309454342442" x2="499.6309454342442" y1="0" y2="30"/><line opacity="0.2" x1="379.01286126738904" x2="379.01286126738904" y1="0" y2="30"/><line opacity="0.2" x1="506.7364549857962" x2="506.7364549857962" y1="0" y2="30"/><line opacity="0.2" x1="368.9687084568654" x2="368.9687084568654" y1="0" y2="30"/><line opacity="0.2" x1="192.31472197370923" x2="192.31472197370923" y1="0" y2="30"/><line opacity="0.2" x1="361.5377299167025" x2="361.5377299167025" y1="0" y2="30"/><line opacity="0.2" x1="229.7505670634641" x2="229.7505670634641" y1="0" y2="30"/><line opacity="0.2" x1="351.6731881030101" x2="351.6731881030101" y1="0" y2="30"/><line opacity="0.2" x1="279.7020445309945" x2="279.7020445309945" y1="0" y2="30"/><line opacity="0.2" x1="320.74805998258" x2="320.74805998258" y1="0" y2="30"/><line opacity="0.2" x1="427.29270372913345" x2="427.29270372913345" y1="0" y2="30"/><line opacity="0.2" x1="276.35670978223567" x2="276.35670978223567" y1="0" y2="30"/><line opacity="0.2" x1="290.88129107748387" x2="290.88129107748387" y1="0" y2="30"/><line opacity="0.2" x1="248.45560823124282" x2="248.45560823124282" y1="0" y2="30"/><line opacity="0.2" x1="307.8958890921752" x2="307.8958890921752" y1="0" y2="30"/><line opacity="0.2" x1="435.4964095707913" x2="435.4964095707913" y1="0" y2="30"/><line opacity="0.2" x1="311.6750205427605" x2="311.6750205427605" y1="0" y2="30"/><line opacity="0.2" x1="298.55127342002083" x2="298.55127342002083" y1="0" y2="30"/><line opacity="0.2" x1="223.90754118080866" x2="223.90754118080866" y1="0" y2="30"/><line opacity="0.2" x1="210.7008582853189" x2="210.7008582853189" y1="0" y2="30"/><line opacity="0.2" x1="429.92358217487833" x2="429.92358217487833" y1="0" y2="30"/><line opacity="0.2" x1="219.4319705537838" x2="219.4319705537838" y1="0" y2="30"/><line opacity="0.2" x1="232.59840882715733" x2="232.59840882715733" y1="0" y2="30"/><line opacity="0.2" x1="568.497435193268" x2="568.497435193268" y1="0" y2="30"/><line opacity="0.2" x1="440.1903339313466" x2="440.1903339313466" y1="0" y2="30"/><line opacity="0.2" x1="196.99694318494952" x2="196.99694318494952" y1="0" y2="30"/><line opacity="0.2" x1="436.86119062859535" x2="436.86119062859535" y1="0" y2="30"/><line opacity="0.2" x1="308.8631853130419" x2="308.8631853130419" y1="0" y2="30"/><line opacity="0.2" x1="359.394952284553" x2="359.394952284553" y1="0" y2="30"/><line opacity="0.2" x1="205.35079544953874" x2="205.35079544953874" y1="0" y2="30"/><line opacity="0.2" x1="366.1165804797766" x2="366.1165804797766" y1="0" y2="30"/><line opacity="0.2" x1="180.88375727402436" x2="180.88375727402436" y1="0" y2="30"/><line opacity="0.2" x1="445.2032040223432" x2="445.2032040223432" y1="0" y2="30"/><line opacity="0.2" x1="368.99461107827307" x2="368.99461107827307" y1="0" y2="30"/><line opacity="0.2" x1="318.07894092027374" x2="318.07894092027374" y1="0" y2="30"/><line opacity="0.2" x1="244.91610566658295" x2="244.91610566658295" y1="0" y2="30"/><line opacity="0.2" x1="320.6796918964176" x2="320.6796918964176" y1="0" y2="30"/><line opacity="0.2" x1="192.17418664246844" x2="192.17418664246844" y1="0" y2="30"/><line opacity="0.2" x1="268.4784934353057" x2="268.4784934353057" y1="0" y2="30"/><line opacity="0.2" x1="147.85121163752598" x2="147.85121163752598" y1="0" y2="30"/><line opacity="0.2" x1="181.14468406724302" x2="181.14468406724302" y1="0" y2="30"/><line opacity="0.2" x1="212.7408885689906" x2="212.7408885689906" y1="0" y2="30"/><line opacity="0.2" x1="466.86214281808486" x2="466.86214281808486" y1="0" y2="30"/><line opacity="0.2" x1="397.30936153887404" x2="397.30936153887404" y1="0" y2="30"/><line opacity="0.2" x1="316.41304745226734" x2="316.41304745226734" y1="0" y2="30"/><line opacity="0.2" x1="221.91880035557165" x2="221.91880035557165" y1="0" y2="30"/><line opacity="0.2" x1="225.9057777885232" x2="225.9057777885232" y1="0" y2="30"/><line opacity="0.2" x1="555.2409299726704" x2="555.2409299726704" y1="0" y2="30"/><line opacity="0.2" x1="428.5333136191815" x2="428.5333136191815" y1="0" y2="30"/><line opacity="0.2" x1="327.95123154395003" x2="327.95123154395003" y1="0" y2="30"/><line opacity="0.2" x1="270.8026934223651" x2="270.8026934223651" y1="0" y2="30"/><line opacity="0.2" x1="341.44696692740797" x2="341.44696692740797" y1="0" y2="30"/><line opacity="0.2" x1="324.28535381903185" x2="324.28535381903185" y1="0" y2="30"/><line opacity="0.2" x1="233.87735474433768" x2="233.87735474433768" y1="0" y2="30"/><line opacity="0.2" x1="344.5582898328896" x2="344.5582898328896" y1="0" y2="30"/><line opacity="0.2" x1="361.88856264515476" x2="361.88856264515476" y1="0" y2="30"/><line opacity="0.2" x1="324.08266649344284" x2="324.08266649344284" y1="0" y2="30"/><line opacity="0.2" x1="328.5453668166984" x2="328.5453668166984" y1="0" y2="30"/><line opacity="0.2" x1="258.98911922436076" x2="258.98911922436076" y1="0" y2="30"/><line opacity="0.2" x1="194.20727697947044" x2="194.20727697947044" y1="0" y2="30"/><line opacity="0.2" x1="327.58475583080167" x2="327.58475583080167" y1="0" y2="30"/><line opacity="0.2" x1="620" x2="620" y1="0" y2="30"/><line opacity="0.2" x1="429.96447356686696" x2="429.96447356686696" y1="0" y2="30"/><line opacity="0.2" x1="401.77957769193006" x2="401.77957769193006" y1="0" y2="30"/><line opacity="0.2" x1="523.2375927043508" x2="523.2375927043508" y1="0" y2="30"/><line opacity="0.2" x1="244.8572758805597" x2="244.8572758805597" y1="0" y2="30"/><line opacity="0.2" x1="469.509024305522" x2="469.509024305522" y1="0" y2="30"/><line opacity="0.2" x1="312.3764818657547" x2="312.3764818657547" y1="0" y2="30"/><line opacity="0.2" x1="224.57644893797962" x2="224.57644893797962" y1="0" y2="30"/><line opacity="0.2" x1="458.6752345014704" x2="458.6752345014704" y1="0" y2="30"/><line opacity="0.2" x1="267.75569734696376" x2="267.75569734696376" y1="0" y2="30"/><line opacity="0.2" x1="368.15459122180744" x2="368.15459122180744" y1="0" y2="30"/><line opacity="0.2" x1="244.28337446442399" x2="244.28337446442399" y1="0" y2="30"/><line opacity="0.2" x1="278.37219496821217" x2="278.37219496821217" y1="0" y2="30"/><line opacity="0.2" x1="393.8886934008055" x2="393.8886934008055" y1="0" y2="30"/><line opacity="0.2" x1="168.35395041226766" x2="168.35395041226766" y1="0" y2="30"/><line opacity="0.2" x1="366.11865314446254" x2="366.11865314446254" y1="0" y2="30"/><line opacity="0.2" x1="385.7869048227556" x2="385.7869048227556" y1="0" y2="30"/><line opacity="0.2" x1="278.09195366790334" x2="278.09195366790334" y1="0" y2="30"/><line opacity="0.2" x1="151.72629550564022" x2="151.72629550564022" y1="0" y2="30"/><line opacity="0.2" x1="223.65933470411696" x2="223.65933470411696" y1="0" y2="30"/><line opacity="0.2" x1="233.75519894460714" x2="233.75519894460714" y1="0" y2="30"/><line opacity="0.2" x1="207.3193961933776" x2="207.3193961933776" y1="0" y2="30"/><line opacity="0.2" x1="363.8755933214661" x2="363.8755933214661" y1="0" y2="30"/><line opacity="0.2" x1="316.6818710703883" x2="316.6818710703883" y1="0" y2="30"/><line opacity="0.2" x1="413.31602214257066" x2="413.31602214257066" y1="0" y2="30"/><line opacity="0.2" x1="268.02640303590425" x2="268.02640303590425" y1="0" y2="30"/><line opacity="0.2" x1="494.2146318296033" x2="494.2146318296033" y1="0" y2="30"/><line opacity="0.2" x1="181.39918264801716" x2="181.39918264801716" y1="0" y2="30"/><line opacity="0.2" x1="213.01025690202695" x2="213.01025690202695" y1="0" y2="30"/><line opacity="0.2" x1="447.5321654751673" x2="447.5321654751673" y1="0" y2="30"/><line opacity="0.2" x1="283.14645175175565" x2="283.14645175175565" y1="0" y2="30"/><line opacity="0.2" x1="298.7385468003022" x2="298.7385468003022" y1="0" y2="30"/><line opacity="0.2" x1="490.09147639685074" x2="490.09147639685074" y1="0" y2="30"/><line opacity="0.2" x1="200.19346550928844" x2="200.19346550928844" y1="0" y2="30"/><line opacity="0.2" x1="318.9130271290641" x2="318.9130271290641" y1="0" y2="30"/><line opacity="0.2" x1="421.5348758390155" x2="421.5348758390155" y1="0" y2="30"/><line opacity="0.2" x1="425.37021505062233" x2="425.37021505062233" y1="0" y2="30"/><line opacity="0.2" x1="287.6780223891467" x2="287.6780223891467" y1="0" y2="30"/><line opacity="0.2" x1="364.6695693010233" x2="364.6695693010233" y1="0" y2="30"/><line opacity="0.2" x1="443.6286394717644" x2="443.6286394717644" y1="0" y2="30"/><line opacity="0.2" x1="266.00529967397415" x2="266.00529967397415" y1="0" y2="30"/><line opacity="0.2" x1="161.47122162192278" x2="161.47122162192278" y1="0" y2="30"/><line opacity="0.2" x1="203.5296051496479" x2="203.5296051496479" y1="0" y2="30"/><line opacity="0.2" x1="338.00609221217655" x2="338.00609221217655" y1="0" y2="30"/><line opacity="0.2" x1="384.5289615798023" x2="384.5289615798023" y1="0" y2="30"/><line opacity="0.2" x1="286.10641792886327" x2="286.10641792886327" y1="0" y2="30"/><line opacity="0.2" x1="425.9939305152627" x2="425.9939305152627" y1="0" y2="30"/><line opacity="0.2" x1="335.3321544410934" x2="335.3321544410934" y1="0" y2="30"/><line opacity="0.2" x1="181.5682721686485" x2="181.5682721686485" y1="0" y2="30"/><line opacity="0.2" x1="213.36032041929926" x2="213.36032041929926" y1="0" y2="30"/><line opacity="0.2" x1="336.3983486085332" x2="336.3983486085332" y1="0" y2="30"/><line opacity="0.2" x1="283.42723269031603" x2="283.42723269031603" y1="0" y2="30"/><line opacity="0.2" x1="518.7868519501874" x2="518.7868519501874" y1="0" y2="30"/><line opacity="0.2" x1="210.9227540861828" x2="210.9227540861828" y1="0" y2="30"/><line opacity="0.2" x1="224.7793048902713" x2="224.7793048902713" y1="0" y2="30"/><line opacity="0.2" x1="417.27526259138324" x2="417.27526259138324" y1="0" y2="30"/><line opacity="0.2" x1="407.91196419629244" x2="407.91196419629244" y1="0" y2="30"/><line opacity="0.2" x1="399.54739036945824" x2="399.54739036945824" y1="0" y2="30"/><line opacity="0.2" x1="256.1608457910809" x2="256.1608457910809" y1="0" y2="30"/><line opacity="0.2" x1="231.78069629646347" x2="231.78069629646347" y1="0" y2="30"/><line opacity="0.2" x1="293.00238232966143" x2="293.00238232966143" y1="0" y2="30"/><line opacity="0.2" x1="436.59547223117835" x2="436.59547223117835" y1="0" y2="30"/><line opacity="0.2" x1="374.38446465632" x2="374.38446465632" y1="0" y2="30"/><line opacity="0.2" x1="337.02908245271294" x2="337.02908245271294" y1="0" y2="30"/><line opacity="0.2" x1="377.26133422429064" x2="377.26133422429064" y1="0" y2="30"/><line opacity="0.2" x1="324.26335552293403" x2="324.26335552293403" y1="0" y2="30"/><line opacity="0.2" x1="362.36075271421663" x2="362.36075271421663" y1="0" y2="30"/><line opacity="0.2" x1="245.02698488277397" x2="245.02698488277397" y1="0" y2="30"/><line opacity="0.2" x1="279.79509421276157" x2="279.79509421276157" y1="0" y2="30"/><line opacity="0.2" x1="285.4565052112282" x2="285.4565052112282" y1="0" y2="30"/><line opacity="0.2" x1="392.47989727671535" x2="392.47989727671535" y1="0" y2="30"/><line opacity="0.2" x1="275.2328052539659" x2="275.2328052539659" y1="0" y2="30"/><line opacity="0.2" x1="450.39941515406286" x2="450.39941515406286" y1="0" y2="30"/><line opacity="0.2" x1="382.73490773058927" x2="382.73490773058927" y1="0" y2="30"/><line opacity="0.2" x1="290.9223953538405" x2="290.9223953538405" y1="0" y2="30"/><line opacity="0.2" x1="386.65403482023015" x2="386.65403482023015" y1="0" y2="30"/><line opacity="0.2" x1="254.06358134972731" x2="254.06358134972731" y1="0" y2="30"/><line opacity="0.2" x1="398.55666363119707" x2="398.55666363119707" y1="0" y2="30"/><line opacity="0.2" x1="261.2735704760925" x2="261.2735704760925" y1="0" y2="30"/><line opacity="0.2" x1="140.39684153247947" x2="140.39684153247947" y1="0" y2="30"/><line opacity="0.2" x1="321.16186432263584" x2="321.16186432263584" y1="0" y2="30"/><line opacity="0.2" x1="71.62521232034337" x2="71.62521232034337" y1="0" y2="30"/><line opacity="0.2" x1="289.069395557861" x2="289.069395557861" y1="0" y2="30"/><line opacity="0.2" x1="318.23646224005216" x2="318.23646224005216" y1="0" y2="30"/><line opacity="0.2" x1="339.376725914188" x2="339.376725914188" y1="0" y2="30"/><line opacity="0.2" x1="466.3783727904906" x2="466.3783727904906" y1="0" y2="30"/><line opacity="0.2" x1="306.55288202326585" x2="306.55288202326585" y1="0" y2="30"/><line opacity="0.2" x1="146.56195462501577" x2="146.56195462501577" y1="0" y2="30"/><line opacity="0.2" x1="444.65904269847294" x2="444.65904269847294" y1="0" y2="30"/><line opacity="0.2" x1="243.62798090305904" x2="243.62798090305904" y1="0" y2="30"/></g></svg>