<svg xmlns="http://www.w3.org/2000/svg" xmlns:xlink="http://www.w3.org/1999/xlink" class="plot-d6a7b5" fill="currentColor" font-family="system-ui, sans-serif" font-size="10" text-anchor="middle" width="640" height="400" viewBox="0 0 640 400" style="color: black; background-color: white;"><style>.plot-d6a7b5 {
  display: block;
  background: white;
  height: auto;
  height: intrinsic;
  max-width: 100%;
}
.plot-d6a7b5 text,
.plot-d6a7b5 tspan {
  white-space: pre;
}</style><g aria-label="y-axis tick" fill="none" stroke="currentColor"><path transform="translate(40,365.74778786549945)" d="M0,0L-6,0"/><path transform="translate(40,338.93793683039394)" d="M0,0L-6,0"/><path transform="translate(40,312.12808579528837)" d="M0,0L-6,0"/><path transform="translate(40,285.31823476018275)" d="M0,0L-6,0"/><path transform="translate(40,258.50838372507724)" d="M0,0L-6,0"/><path transform="translate(40,231.69853268997164)" d="M0,0L-6,0"/><path transform="translate(40,204.88868165486608)" d="M0,0L-6,0"/><path transform="translate(40,178.0788306197605)" d="M0,0L-6,0"/><path transform="translate(40,151.26897958465497)" d="M0,0L-6,0"/><path transform="translate(40,124.45912854954936)" d="M0,0L-6,0"/><path transform="translate(40,97.64927751444381)" d="M0,0L-6,0"/><path transform="translate(40,70.83942647933824)" d="M0,0L-6,0"/><path transform="translate(40,44.02957544423269)" d="M0,0L-6,0"/></g><g aria-label="y-axis tick label" text-anchor="end" font-variant="tabular-nums" transform="translate(-9,0)"><text y="0.32em" transform="translate(40,365.74778786549945)">−24</text><text y="0.32em" transform="translate(40,338.93793683039394)">−22</text><text y="0.32em" transform="translate(40,312.12808579528837)">−20</text><text y="0.32em" transform="translate(40,285.31823476018275)">−18</text><text y="0.32em" transform="translate(40,258.50838372507724)">−16</text><text y="0.32em" transform="translate(40,231.69853268997164)">−14</text><text y="0.32em" transform="translate(40,204.88868165486608)">−12</text><text y="0.32em" transform="translate(40,178.0788306197605)">−10</text><text y="0.32em" transform="translate(40,151.26897958465497)">−8</text><text y="0.32em" transform="translate(40,124.45912854954936)">−6</text><text y="0.32em" transform="translate(40,97.64927751444381)">−4</text><text y="0.32em" transform="translate(40,70.83942647933824)">−2</text><text y="0.32em" transform="translate(40,44.02957544423269)">0</text></g><g aria-label="rule" stroke="steelblue"><line x1="40" x2="639.5" y1="44.02957544423269" y2="44.02957544423269"/></g><g aria-label="line" fill="none" stroke="currentColor" stroke-width="1.5" stroke-linejoin="round" stroke-linecap="round"><path d="M40,20L46.056,29.755L52.111,34.65L58.167,27.423L64.222,57.337L70.278,87.061L76.333,93.398L82.389,92.568L88.444,101.63L94.5,88.958L100.556,98.419L106.611,115.621L112.667,121.065L118.722,127.724L124.778,136.853L130.833,106.942L136.889,96.302L142.944,125.097L149,124.773L155.056,144.009L161.111,138.598L167.167,140.447L173.222,176.075L179.278,177.618L185.333,187.166L191.389,189.921L197.444,204.933L203.5,207.066L209.556,248.099L215.611,265.658L221.667,263.778L227.722,245.941L233.778,249.248L239.833,254.779L245.889,269.735L251.944,290.397L258,310.903L264.056,292.718L270.111,293.048L276.167,298.952L282.222,274.518L288.278,272.179L294.333,275.327L300.389,279.289L306.444,279.214L312.5,296.509L318.556,301.528L324.611,313.471L330.667,310.231L336.722,300.934L342.778,283.762L348.833,287.018L354.889,282.621L360.944,287.007L367,305.098L373.056,287.359L379.111,294.068L385.167,295.11L391.222,281.257L397.278,284.5L403.333,278.711L409.389,281.042L415.444,301.591L421.5,303.187L427.556,291.589L433.611,302.652L439.667,313.976L445.722,310.178L451.778,316.048L457.833,320.017L463.889,282.035L469.944,262.665L476,251.077L482.056,241.813L488.111,232.874L494.167,222.353L500.222,228.492L506.278,239.787L512.333,244.956L518.389,233.033L524.444,236.891L530.5,245.055L536.556,245.309L542.611,264.501L548.667,269.541L554.722,274.807L560.778,277.474L566.833,268.394L572.889,287.739L578.944,282.777L585,292.264L591.056,298.532L597.111,302.814L603.167,303.821L609.222,336.823L615.278,338.378L621.333,349.814L627.389,348.256L633.444,359.532L639.5,380"/></g></svg>