<svg xmlns="http://www.w3.org/2000/svg" xmlns:xlink="http://www.w3.org/1999/xlink" class="plot-d6a7b5" fill="currentColor" font-family="system-ui, sans-serif" font-size="10" text-anchor="middle" width="640" height="60" viewBox="0 0 640 60" style="color: black; background-color: white;"><style>.plot-d6a7b5 {
  display: block;
  background: white;
  height: auto;
  height: intrinsic;
  max-width: 100%;
}
.plot-d6a7b5 text,
.plot-d6a7b5 tspan {
  white-space: pre;
}</style><g aria-label="x-axis tick" fill="none" stroke="currentColor"><path transform="translate(34.88400609563921,30)" d="M0,0L0,6"/><path transform="translate(131.77848053389283,30)" d="M0,0L0,6"/><path transform="translate(228.6729549721465,30)" d="M0,0L0,6"/><path transform="translate(325.56742941040005,30)" d="M0,0L0,6"/><path transform="translate(422.4619038486538,30)" d="M0,0L0,6"/><path transform="translate(519.3563782869073,30)" d="M0,0L0,6"/><path transform="translate(616.250852725161,30)" d="M0,0L0,6"/></g><g aria-label="x-axis tick label" font-variant="tabular-nums" transform="translate(0,9)"><text y="0.71em" transform="translate(34.88400609563921,30)">−3</text><text y="0.71em" transform="translate(131.77848053389283,30)">−2</text><text y="0.71em" transform="translate(228.6729549721465,30)">−1</text><text y="0.71em" transform="translate(325.56742941040005,30)">0</text><text y="0.71em" transform="translate(422.4619038486538,30)">1</text><text y="0.71em" transform="translate(519.3563782869073,30)">2</text><text y="0.71em" transform="translate(616.250852725161,30)">3</text></g><g aria-label="tick" stroke="steelblue"><line opacity="0.2" x1="380.2374544241693" x2="380.2374544241693" y1="0.5" y2="30"/><line opacity="0.2" x1="339.74803949811854" x2="339.74803949811854" y1="0.5" y2="30"/><line opacity="0.2" x1="573.117770225879" x2="573.117770225879" y1="0.5" y2="30"/><line opacity="0.2" x1="238.9785129519968" x2="238.9785129519968" y1="0.5" y2="30"/><line opacity="0.2" x1="361.82148371367657" x2="361.82148371367657" y1="0.5" y2="30"/><line opacity="0.2" x1="471.9382606369226" x2="471.9382606369226" y1="0.5" y2="30"/><line opacity="0.2" x1="228.72814389943983" x2="228.72814389943983" y1="0.5" y2="30"/><line opacity="0.2" x1="378.00211781696413" x2="378.00211781696413" y1="0.5" y2="30"/><line opacity="0.2" x1="241.9786390291029" x2="241.9786390291029" y1="0.5" y2="30"/><line opacity="0.2" x1="522.7435590457723" x2="522.7435590457723" y1="0.5" y2="30"/><line opacity="0.2" x1="239.21894561102607" x2="239.21894561102607" y1="0.5" y2="30"/><line opacity="0.2" x1="266.1661621716492" x2="266.1661621716492" y1="0.5" y2="30"/><line opacity="0.2" x1="338.4627830727615" x2="338.4627830727615" y1="0.5" y2="30"/><line opacity="0.2" x1="257.85429655935013" x2="257.85429655935013" y1="0.5" y2="30"/><line opacity="0.2" x1="482.3435333028795" x2="482.3435333028795" y1="0.5" y2="30"/><line opacity="0.2" x1="203.36485063059595" x2="203.36485063059595" y1="0.5" y2="30"/><line opacity="0.2" x1="462.89638106502997" x2="462.89638106502997" y1="0.5" y2="30"/><line opacity="0.2" x1="247.35459455014555" x2="247.35459455014555" y1="0.5" y2="30"/><line opacity="0.2" x1="383.196590371969" x2="383.196590371969" y1="0.5" y2="30"/><line opacity="0.2" x1="266.1862865991816" x2="266.1862865991816" y1="0.5" y2="30"/><line opacity="0.2" x1="315.0017007488597" x2="315.0017007488597" y1="0.5" y2="30"/><line opacity="0.2" x1="526.1125399796517" x2="526.1125399796517" y1="0.5" y2="30"/><line opacity="0.2" x1="357.88132148079626" x2="357.88132148079626" y1="0.5" y2="30"/><line opacity="0.2" x1="505.1507269090526" x2="505.1507269090526" y1="0.5" y2="30"/><line opacity="0.2" x1="297.75775752881657" x2="297.75775752881657" y1="0.5" y2="30"/><line opacity="0.2" x1="220.82222667418569" x2="220.82222667418569" y1="0.5" y2="30"/><line opacity="0.2" x1="251.37636248993215" x2="251.37636248993215" y1="0.5" y2="30"/><line opacity="0.2" x1="391.19207249658456" x2="391.19207249658456" y1="0.5" y2="30"/><line opacity="0.2" x1="403.88261638100585" x2="403.88261638100585" y1="0.5" y2="30"/><line opacity="0.2" x1="98.80780848036379" x2="98.80780848036379" y1="0.5" y2="30"/><line opacity="0.2" x1="368.303550215338" x2="368.303550215338" y1="0.5" y2="30"/><line opacity="0.2" x1="404.027309549828" x2="404.027309549828" y1="0.5" y2="30"/><line opacity="0.2" x1="253.92421995723433" x2="253.92421995723433" y1="0.5" y2="30"/><line opacity="0.2" x1="179.33476177558842" x2="179.33476177558842" y1="0.5" y2="30"/><line opacity="0.2" x1="271.4078101161218" x2="271.4078101161218" y1="0.5" y2="30"/><line opacity="0.2" x1="303.35884999703524" x2="303.35884999703524" y1="0.5" y2="30"/><line opacity="0.2" x1="351.18628704782316" x2="351.18628704782316" y1="0.5" y2="30"/><line opacity="0.2" x1="460.6966234559649" x2="460.6966234559649" y1="0.5" y2="30"/><line opacity="0.2" x1="295.69527824531156" x2="295.69527824531156" y1="0.5" y2="30"/><line opacity="0.2" x1="243.65259732190884" x2="243.65259732190884" y1="0.5" y2="30"/><line opacity="0.2" x1="288.75290328846927" x2="288.75290328846927" y1="0.5" y2="30"/><line opacity="0.2" x1="465.2359750488895" x2="465.2359750488895" y1="0.5" y2="30"/><line opacity="0.2" x1="202.2254073415942" x2="202.2254073415942" y1="0.5" y2="30"/><line opacity="0.2" x1="460.4396246299854" x2="460.4396246299854" y1="0.5" y2="30"/><line opacity="0.2" x1="265.7789913136514" x2="265.7789913136514" y1="0.5" y2="30"/><line opacity="0.2" x1="245.73918679719472" x2="245.73918679719472" y1="0.5" y2="30"/><line opacity="0.2" x1="570.8070593597502" x2="570.8070593597502" y1="0.5" y2="30"/><line opacity="0.2" x1="231.98566402438436" x2="231.98566402438436" y1="0.5" y2="30"/><line opacity="0.2" x1="249.2745911308314" x2="249.2745911308314" y1="0.5" y2="30"/><line opacity="0.2" x1="325.5454515727971" x2="325.5454515727971" y1="0.5" y2="30"/><line opacity="0.2" x1="193.59347198752243" x2="193.59347198752243" y1="0.5" y2="30"/><line opacity="0.2" x1="242.7634060733225" x2="242.7634060733225" y1="0.5" y2="30"/><line opacity="0.2" x1="517.6550754614996" x2="517.6550754614996" y1="0.5" y2="30"/><line opacity="0.2" x1="355.27423223660014" x2="355.27423223660014" y1="0.5" y2="30"/><line opacity="0.2" x1="489.59658086395035" x2="489.59658086395035" y1="0.5" y2="30"/><line opacity="0.2" x1="243.09780691518924" x2="243.09780691518924" y1="0.5" y2="30"/><line opacity="0.2" x1="350.1721694829177" x2="350.1721694829177" y1="0.5" y2="30"/><line opacity="0.2" x1="414.2195466158239" x2="414.2195466158239" y1="0.5" y2="30"/><line opacity="0.2" x1="233.32010295674894" x2="233.32010295674894" y1="0.5" y2="30"/><line opacity="0.2" x1="517.635889101975" x2="517.635889101975" y1="0.5" y2="30"/><line opacity="0.2" x1="196.9871115948398" x2="196.9871115948398" y1="0.5" y2="30"/><line opacity="0.2" x1="254.43121159130123" x2="254.43121159130123" y1="0.5" y2="30"/><line opacity="0.2" x1="280.10954160690125" x2="280.10954160690125" y1="0.5" y2="30"/><line opacity="0.2" x1="485.7907451131024" x2="485.7907451131024" y1="0.5" y2="30"/><line opacity="0.2" x1="347.6029577592495" x2="347.6029577592495" y1="0.5" y2="30"/><line opacity="0.2" x1="167.05118718859077" x2="167.05118718859077" y1="0.5" y2="30"/><line opacity="0.2" x1="222.5693413394892" x2="222.5693413394892" y1="0.5" y2="30"/><line opacity="0.2" x1="362.52750233038273" x2="362.52750233038273" y1="0.5" y2="30"/><line opacity="0.2" x1="373.14343193819303" x2="373.14343193819303" y1="0.5" y2="30"/><line opacity="0.2" x1="261.9924838374981" x2="261.9924838374981" y1="0.5" y2="30"/><line opacity="0.2" x1="270.73149084314093" x2="270.73149084314093" y1="0.5" y2="30"/><line opacity="0.2" x1="210.9671078943742" x2="210.9671078943742" y1="0.5" y2="30"/><line opacity="0.2" x1="331.97337745307624" x2="331.97337745307624" y1="0.5" y2="30"/><line opacity="0.2" x1="434.4743603439499" x2="434.4743603439499" y1="0.5" y2="30"/><line opacity="0.2" x1="322.5248007256974" x2="322.5248007256974" y1="0.5" y2="30"/><line opacity="0.2" x1="417.8971873484523" x2="417.8971873484523" y1="0.5" y2="30"/><line opacity="0.2" x1="405.48020442387866" x2="405.48020442387866" y1="0.5" y2="30"/><line opacity="0.2" x1="269.5435580536969" x2="269.5435580536969" y1="0.5" y2="30"/><line opacity="0.2" x1="455.7125090171508" x2="455.7125090171508" y1="0.5" y2="30"/><line opacity="0.2" x1="382.4997797972834" x2="382.4997797972834" y1="0.5" y2="30"/><line opacity="0.2" x1="122.82560976708493" x2="122.82560976708493" y1="0.5" y2="30"/><line opacity="0.2" x1="186.59997425526095" x2="186.59997425526095" y1="0.5" y2="30"/><line opacity="0.2" x1="434.0250392862591" x2="434.0250392862591" y1="0.5" y2="30"/><line opacity="0.2" x1="152.57045067165978" x2="152.57045067165978" y1="0.5" y2="30"/><line opacity="0.2" x1="337.92086248398687" x2="337.92086248398687" y1="0.5" y2="30"/><line opacity="0.2" x1="394.2938964930828" x2="394.2938964930828" y1="0.5" y2="30"/><line opacity="0.2" x1="436.3811039124473" x2="436.3811039124473" y1="0.5" y2="30"/><line opacity="0.2" x1="275.21143003000094" x2="275.21143003000094" y1="0.5" y2="30"/><line opacity="0.2" x1="589.1227709152386" x2="589.1227709152386" y1="0.5" y2="30"/><line opacity="0.2" x1="445.61863104467926" x2="445.61863104467926" y1="0.5" y2="30"/><line opacity="0.2" x1="399.15166646256876" x2="399.15166646256876" y1="0.5" y2="30"/><line opacity="0.2" x1="275.95318813763765" x2="275.95318813763765" y1="0.5" y2="30"/><line opacity="0.2" x1="360.0614362499037" x2="360.0614362499037" y1="0.5" y2="30"/><line opacity="0.2" x1="367.98639546461385" x2="367.98639546461385" y1="0.5" y2="30"/><line opacity="0.2" x1="332.0926446057464" x2="332.0926446057464" y1="0.5" y2="30"/><line opacity="0.2" x1="233.65617563972734" x2="233.65617563972734" y1="0.5" y2="30"/><line opacity="0.2" x1="389.53560535245606" x2="389.53560535245606" y1="0.5" y2="30"/><line opacity="0.2" x1="515.2876964931284" x2="515.2876964931284" y1="0.5" y2="30"/><line opacity="0.2" x1="330.4075387581443" x2="330.4075387581443" y1="0.5" y2="30"/><line opacity="0.2" x1="214.40818241777959" x2="214.40818241777959" y1="0.5" y2="30"/><line opacity="0.2" x1="594.5989468495195" x2="594.5989468495195" y1="0.5" y2="30"/><line opacity="0.2" x1="264.6740135217824" x2="264.6740135217824" y1="0.5" y2="30"/><line opacity="0.2" x1="273.1722566557051" x2="273.1722566557051" y1="0.5" y2="30"/><line opacity="0.2" x1="218.82608812010614" x2="218.82608812010614" y1="0.5" y2="30"/><line opacity="0.2" x1="253.07848385131422" x2="253.07848385131422" y1="0.5" y2="30"/><line opacity="0.2" x1="394.7555537442193" x2="394.7555537442193" y1="0.5" y2="30"/><line opacity="0.2" x1="498.20532758430636" x2="498.20532758430636" y1="0.5" y2="30"/><line opacity="0.2" x1="309.3883342112525" x2="309.3883342112525" y1="0.5" y2="30"/><line opacity="0.2" x1="254.9159367332988" x2="254.9159367332988" y1="0.5" y2="30"/><line opacity="0.2" x1="548.8062893111764" x2="548.8062893111764" y1="0.5" y2="30"/><line opacity="0.2" x1="254.12245766757354" x2="254.12245766757354" y1="0.5" y2="30"/><line opacity="0.2" x1="433.6909381035706" x2="433.6909381035706" y1="0.5" y2="30"/><line opacity="0.2" x1="359.41634440132276" x2="359.41634440132276" y1="0.5" y2="30"/><line opacity="0.2" x1="327.93859917081204" x2="327.93859917081204" y1="0.5" y2="30"/><line opacity="0.2" x1="448.2373351971103" x2="448.2373351971103" y1="0.5" y2="30"/><line opacity="0.2" x1="283.35091158285866" x2="283.35091158285866" y1="0.5" y2="30"/><line opacity="0.2" x1="188.04287265646266" x2="188.04287265646266" y1="0.5" y2="30"/><line opacity="0.2" x1="263.2855335105706" x2="263.2855335105706" y1="0.5" y2="30"/><line opacity="0.2" x1="421.5031723370128" x2="421.5031723370128" y1="0.5" y2="30"/><line opacity="0.2" x1="412.28614530455206" x2="412.28614530455206" y1="0.5" y2="30"/><line opacity="0.2" x1="252.11304291267527" x2="252.11304291267527" y1="0.5" y2="30"/><line opacity="0.2" x1="438.69605580747043" x2="438.69605580747043" y1="0.5" y2="30"/><line opacity="0.2" x1="311.9510222015399" x2="311.9510222015399" y1="0.5" y2="30"/><line opacity="0.2" x1="192.22773213650035" x2="192.22773213650035" y1="0.5" y2="30"/><line opacity="0.2" x1="297.53263590858205" x2="297.53263590858205" y1="0.5" y2="30"/><line opacity="0.2" x1="214.64855050143987" x2="214.64855050143987" y1="0.5" y2="30"/><line opacity="0.2" x1="326.7079662788633" x2="326.7079662788633" y1="0.5" y2="30"/><line opacity="0.2" x1="351.74387455041295" x2="351.74387455041295" y1="0.5" y2="30"/><line opacity="0.2" x1="271.7569308424147" x2="271.7569308424147" y1="0.5" y2="30"/><line opacity="0.2" x1="383.48322305462716" x2="383.48322305462716" y1="0.5" y2="30"/><line opacity="0.2" x1="210.25408703289798" x2="210.25408703289798" y1="0.5" y2="30"/><line opacity="0.2" x1="273.9748640136787" x2="273.9748640136787" y1="0.5" y2="30"/><line opacity="0.2" x1="358.7495068171163" x2="358.7495068171163" y1="0.5" y2="30"/><line opacity="0.2" x1="252.48821605295012" x2="252.48821605295012" y1="0.5" y2="30"/><line opacity="0.2" x1="374.13235240991304" x2="374.13235240991304" y1="0.5" y2="30"/><line opacity="0.2" x1="441.8274828054685" x2="441.8274828054685" y1="0.5" y2="30"/><line opacity="0.2" x1="184.7098395686056" x2="184.7098395686056" y1="0.5" y2="30"/><line opacity="0.2" x1="313.2793567687035" x2="313.2793567687035" y1="0.5" y2="30"/><line opacity="0.2" x1="362.84398677848213" x2="362.84398677848213" y1="0.5" y2="30"/><line opacity="0.2" x1="489.60063190592945" x2="489.60063190592945" y1="0.5" y2="30"/><line opacity="0.2" x1="414.12476892934825" x2="414.12476892934825" y1="0.5" y2="30"/><line opacity="0.2" x1="181.495342099864" x2="181.495342099864" y1="0.5" y2="30"/><line opacity="0.2" x1="433.8318826971894" x2="433.8318826971894" y1="0.5" y2="30"/><line opacity="0.2" x1="462.6071779079003" x2="462.6071779079003" y1="0.5" y2="30"/><line opacity="0.2" x1="213.39849775485249" x2="213.39849775485249" y1="0.5" y2="30"/><line opacity="0.2" x1="295.64438266016987" x2="295.64438266016987" y1="0.5" y2="30"/><line opacity="0.2" x1="407.0253818506993" x2="407.0253818506993" y1="0.5" y2="30"/><line opacity="0.2" x1="237.98862909761593" x2="237.98862909761593" y1="0.5" y2="30"/><line opacity="0.2" x1="360.87963614343676" x2="360.87963614343676" y1="0.5" y2="30"/><line opacity="0.2" x1="443.8273781393653" x2="443.8273781393653" y1="0.5" y2="30"/><line opacity="0.2" x1="209.268073179403" x2="209.268073179403" y1="0.5" y2="30"/><line opacity="0.2" x1="335.487509633853" x2="335.487509633853" y1="0.5" y2="30"/><line opacity="0.2" x1="229.6711922186833" x2="229.6711922186833" y1="0.5" y2="30"/><line opacity="0.2" x1="489.8340525769219" x2="489.8340525769219" y1="0.5" y2="30"/><line opacity="0.2" x1="396.8260826707004" x2="396.8260826707004" y1="0.5" y2="30"/><line opacity="0.2" x1="230.34439936886872" x2="230.34439936886872" y1="0.5" y2="30"/><line opacity="0.2" x1="320.2796290229266" x2="320.2796290229266" y1="0.5" y2="30"/><line opacity="0.2" x1="274.8156664914601" x2="274.8156664914601" y1="0.5" y2="30"/><line opacity="0.2" x1="247.0248089935129" x2="247.0248089935129" y1="0.5" y2="30"/><line opacity="0.2" x1="104.2947760734503" x2="104.2947760734503" y1="0.5" y2="30"/><line opacity="0.2" x1="142.82919484824734" x2="142.82919484824734" y1="0.5" y2="30"/><line opacity="0.2" x1="32.041337490476096" x2="32.041337490476096" y1="0.5" y2="30"/><line opacity="0.2" x1="164.58671009118444" x2="164.58671009118444" y1="0.5" y2="30"/><line opacity="0.2" x1="436.832998048786" x2="436.832998048786" y1="0.5" y2="30"/><line opacity="0.2" x1="298.7963815208187" x2="298.7963815208187" y1="0.5" y2="30"/><line opacity="0.2" x1="198.99503487594754" x2="198.99503487594754" y1="0.5" y2="30"/><line opacity="0.2" x1="371.56532173052864" x2="371.56532173052864" y1="0.5" y2="30"/><line opacity="0.2" x1="388.68469996899427" x2="388.68469996899427" y1="0.5" y2="30"/><line opacity="0.2" x1="232.42518095975652" x2="232.42518095975652" y1="0.5" y2="30"/><line opacity="0.2" x1="333.4812201533591" x2="333.4812201533591" y1="0.5" y2="30"/><line opacity="0.2" x1="326.0076297209928" x2="326.0076297209928" y1="0.5" y2="30"/><line opacity="0.2" x1="369.63661625409867" x2="369.63661625409867" y1="0.5" y2="30"/><line opacity="0.2" x1="340.73943794057624" x2="340.73943794057624" y1="0.5" y2="30"/><line opacity="0.2" x1="258.2532715786379" x2="258.2532715786379" y1="0.5" y2="30"/><line opacity="0.2" x1="299.65241170126956" x2="299.65241170126956" y1="0.5" y2="30"/><line opacity="0.2" x1="227.78674620391482" x2="227.78674620391482" y1="0.5" y2="30"/><line opacity="0.2" x1="317.6062607023371" x2="317.6062607023371" y1="0.5" y2="30"/><line opacity="0.2" x1="318.87440523399" x2="318.87440523399" y1="0.5" y2="30"/><line opacity="0.2" x1="358.63342055559093" x2="358.63342055559093" y1="0.5" y2="30"/><line opacity="0.2" x1="368.7645141061572" x2="368.7645141061572" y1="0.5" y2="30"/><line opacity="0.2" x1="97.8323368664024" x2="97.8323368664024" y1="0.5" y2="30"/><line opacity="0.2" x1="333.9832619740888" x2="333.9832619740888" y1="0.5" y2="30"/><line opacity="0.2" x1="308.4474212213948" x2="308.4474212213948" y1="0.5" y2="30"/><line opacity="0.2" x1="274.40407669633066" x2="274.40407669633066" y1="0.5" y2="30"/><line opacity="0.2" x1="306.3107459033069" x2="306.3107459033069" y1="0.5" y2="30"/><line opacity="0.2" x1="335.0559129780441" x2="335.0559129780441" y1="0.5" y2="30"/><line opacity="0.2" x1="213.7292083136607" x2="213.7292083136607" y1="0.5" y2="30"/><line opacity="0.2" x1="345.61535751036484" x2="345.61535751036484" y1="0.5" y2="30"/><line opacity="0.2" x1="259.8277880959943" x2="259.8277880959943" y1="0.5" y2="30"/><line opacity="0.2" x1="266.58399653171335" x2="266.58399653171335" y1="0.5" y2="30"/><line opacity="0.2" x1="400.54716245822664" x2="400.54716245822664" y1="0.5" y2="30"/><line opacity="0.2" x1="193.40238143758248" x2="193.40238143758248" y1="0.5" y2="30"/><line opacity="0.2" x1="341.42132783331044" x2="341.42132783331044" y1="0.5" y2="30"/><line opacity="0.2" x1="282.4423951816818" x2="282.4423951816818" y1="0.5" y2="30"/><line opacity="0.2" x1="361.14313985243547" x2="361.14313985243547" y1="0.5" y2="30"/><line opacity="0.2" x1="313.6836586102517" x2="313.6836586102517" y1="0.5" y2="30"/><line opacity="0.2" x1="260.52592652311597" x2="260.52592652311597" y1="0.5" y2="30"/><line opacity="0.2" x1="360.7745531499311" x2="360.7745531499311" y1="0.5" y2="30"/><line opacity="0.2" x1="342.663006682847" x2="342.663006682847" y1="0.5" y2="30"/><line opacity="0.2" x1="375.39793580819656" x2="375.39793580819656" y1="0.5" y2="30"/><line opacity="0.2" x1="219.69984071198158" x2="219.69984071198158" y1="0.5" y2="30"/><line opacity="0.2" x1="368.02455756446057" x2="368.02455756446057" y1="0.5" y2="30"/><line opacity="0.2" x1="262.3689983097279" x2="262.3689983097279" y1="0.5" y2="30"/><line opacity="0.2" x1="438.56651168469966" x2="438.56651168469966" y1="0.5" y2="30"/><line opacity="0.2" x1="252.57196466129716" x2="252.57196466129716" y1="0.5" y2="30"/><line opacity="0.2" x1="539.3183228712788" x2="539.3183228712788" y1="0.5" y2="30"/><line opacity="0.2" x1="444.3854979185543" x2="444.3854979185543" y1="0.5" y2="30"/><line opacity="0.2" x1="286.6937915849413" x2="286.6937915849413" y1="0.5" y2="30"/><line opacity="0.2" x1="182.09107131693503" x2="182.09107131693503" y1="0.5" y2="30"/><line opacity="0.2" x1="398.72932714863174" x2="398.72932714863174" y1="0.5" y2="30"/><line opacity="0.2" x1="432.6941166466597" x2="432.6941166466597" y1="0.5" y2="30"/><line opacity="0.2" x1="246.4619357579514" x2="246.4619357579514" y1="0.5" y2="30"/><line opacity="0.2" x1="257.02824516028426" x2="257.02824516028426" y1="0.5" y2="30"/><line opacity="0.2" x1="231.9569192192382" x2="231.9569192192382" y1="0.5" y2="30"/><line opacity="0.2" x1="460.52479720291495" x2="460.52479720291495" y1="0.5" y2="30"/><line opacity="0.2" x1="367.55743727826103" x2="367.55743727826103" y1="0.5" y2="30"/><line opacity="0.2" x1="289.2040843975755" x2="289.2040843975755" y1="0.5" y2="30"/><line opacity="0.2" x1="294.09078732347615" x2="294.09078732347615" y1="0.5" y2="30"/><line opacity="0.2" x1="285.4159923751535" x2="285.4159923751535" y1="0.5" y2="30"/><line opacity="0.2" x1="340.34038115452597" x2="340.34038115452597" y1="0.5" y2="30"/><line opacity="0.2" x1="336.28173763262623" x2="336.28173763262623" y1="0.5" y2="30"/><line opacity="0.2" x1="251.04079554982005" x2="251.04079554982005" y1="0.5" y2="30"/><line opacity="0.2" x1="383.53800881848343" x2="383.53800881848343" y1="0.5" y2="30"/><line opacity="0.2" x1="330.2621999777351" x2="330.2621999777351" y1="0.5" y2="30"/><line opacity="0.2" x1="228.53379913389887" x2="228.53379913389887" y1="0.5" y2="30"/><line opacity="0.2" x1="344.3158434577673" x2="344.3158434577673" y1="0.5" y2="30"/><line opacity="0.2" x1="277.38944893860275" x2="277.38944893860275" y1="0.5" y2="30"/><line opacity="0.2" x1="421.4832687925415" x2="421.4832687925415" y1="0.5" y2="30"/><line opacity="0.2" x1="487.13414472292186" x2="487.13414472292186" y1="0.5" y2="30"/><line opacity="0.2" x1="405.9037111486388" x2="405.9037111486388" y1="0.5" y2="30"/><line opacity="0.2" x1="277.888219540518" x2="277.888219540518" y1="0.5" y2="30"/><line opacity="0.2" x1="271.87183375515946" x2="271.87183375515946" y1="0.5" y2="30"/><line opacity="0.2" x1="324.19209234207443" x2="324.19209234207443" y1="0.5" y2="30"/><line opacity="0.2" x1="150.50665111263316" x2="150.50665111263316" y1="0.5" y2="30"/><line opacity="0.2" x1="282.1813558804814" x2="282.1813558804814" y1="0.5" y2="30"/><line opacity="0.2" x1="496.40260432175234" x2="496.40260432175234" y1="0.5" y2="30"/><line opacity="0.2" x1="281.7367528104838" x2="281.7367528104838" y1="0.5" y2="30"/><line opacity="0.2" x1="381.44838819620554" x2="381.44838819620554" y1="0.5" y2="30"/><line opacity="0.2" x1="451.1254710842244" x2="451.1254710842244" y1="0.5" y2="30"/><line opacity="0.2" x1="214.53231223061425" x2="214.53231223061425" y1="0.5" y2="30"/><line opacity="0.2" x1="310.68883908018694" x2="310.68883908018694" y1="0.5" y2="30"/><line opacity="0.2" x1="455.6178050565839" x2="455.6178050565839" y1="0.5" y2="30"/><line opacity="0.2" x1="297.5843203228511" x2="297.5843203228511" y1="0.5" y2="30"/><line opacity="0.2" x1="332.572365667255" x2="332.572365667255" y1="0.5" y2="30"/><line opacity="0.2" x1="446.50562157271844" x2="446.50562157271844" y1="0.5" y2="30"/><line opacity="0.2" x1="258.9477958671053" x2="258.9477958671053" y1="0.5" y2="30"/><line opacity="0.2" x1="441.8899827656398" x2="441.8899827656398" y1="0.5" y2="30"/><line opacity="0.2" x1="460.494762221052" x2="460.494762221052" y1="0.5" y2="30"/><line opacity="0.2" x1="297.53823270049327" x2="297.53823270049327" y1="0.5" y2="30"/><line opacity="0.2" x1="256.69979888467" x2="256.69979888467" y1="0.5" y2="30"/><line opacity="0.2" x1="569.4656845684464" x2="569.4656845684464" y1="0.5" y2="30"/><line opacity="0.2" x1="338.54873507962344" x2="338.54873507962344" y1="0.5" y2="30"/><line opacity="0.2" x1="347.0575870015756" x2="347.0575870015756" y1="0.5" y2="30"/><line opacity="0.2" x1="252.52597906842357" x2="252.52597906842357" y1="0.5" y2="30"/><line opacity="0.2" x1="212.30134627310366" x2="212.30134627310366" y1="0.5" y2="30"/><line opacity="0.2" x1="459.5746805873721" x2="459.5746805873721" y1="0.5" y2="30"/><line opacity="0.2" x1="441.2383807101307" x2="441.2383807101307" y1="0.5" y2="30"/><line opacity="0.2" x1="288.57567227543876" x2="288.57567227543876" y1="0.5" y2="30"/><line opacity="0.2" x1="253.13742247971186" x2="253.13742247971186" y1="0.5" y2="30"/><line opacity="0.2" x1="211.82324364675335" x2="211.82324364675335" y1="0.5" y2="30"/><line opacity="0.2" x1="312.756337733828" x2="312.756337733828" y1="0.5" y2="30"/><line opacity="0.2" x1="276.95238507669615" x2="276.95238507669615" y1="0.5" y2="30"/><line opacity="0.2" x1="333.97435188963334" x2="333.97435188963334" y1="0.5" y2="30"/><line opacity="0.2" x1="340.6672788741543" x2="340.6672788741543" y1="0.5" y2="30"/><line opacity="0.2" x1="402.9245424624752" x2="402.9245424624752" y1="0.5" y2="30"/><line opacity="0.2" x1="391.8537104500305" x2="391.8537104500305" y1="0.5" y2="30"/><line opacity="0.2" x1="46.50455656628364" x2="46.50455656628364" y1="0.5" y2="30"/><line opacity="0.2" x1="419.02541974840784" x2="419.02541974840784" y1="0.5" y2="30"/><line opacity="0.2" x1="408.5146061609396" x2="408.5146061609396" y1="0.5" y2="30"/><line opacity="0.2" x1="279.06316828490776" x2="279.06316828490776" y1="0.5" y2="30"/><line opacity="0.2" x1="244.94001746521062" x2="244.94001746521062" y1="0.5" y2="30"/><line opacity="0.2" x1="250.18470114827025" x2="250.18470114827025" y1="0.5" y2="30"/><line opacity="0.2" x1="233.70297853567715" x2="233.70297853567715" y1="0.5" y2="30"/><line opacity="0.2" x1="289.84197708953127" x2="289.84197708953127" y1="0.5" y2="30"/><line opacity="0.2" x1="229.52103923358212" x2="229.52103923358212" y1="0.5" y2="30"/><line opacity="0.2" x1="305.83435462587397" x2="305.83435462587397" y1="0.5" y2="30"/><line opacity="0.2" x1="215.70598777113398" x2="215.70598777113398" y1="0.5" y2="30"/><line opacity="0.2" x1="306.2957900531526" x2="306.2957900531526" y1="0.5" y2="30"/><line opacity="0.2" x1="307.1196577395265" x2="307.1196577395265" y1="0.5" y2="30"/><line opacity="0.2" x1="443.2688976207597" x2="443.2688976207597" y1="0.5" y2="30"/><line opacity="0.2" x1="473.3316954718003" x2="473.3316954718003" y1="0.5" y2="30"/><line opacity="0.2" x1="518.9651078478585" x2="518.9651078478585" y1="0.5" y2="30"/><line opacity="0.2" x1="226.45996032749235" x2="226.45996032749235" y1="0.5" y2="30"/><line opacity="0.2" x1="179.38651022002654" x2="179.38651022002654" y1="0.5" y2="30"/><line opacity="0.2" x1="347.8136955744483" x2="347.8136955744483" y1="0.5" y2="30"/><line opacity="0.2" x1="348.6619642389789" x2="348.6619642389789" y1="0.5" y2="30"/><line opacity="0.2" x1="523.269220076036" x2="523.269220076036" y1="0.5" y2="30"/><line opacity="0.2" x1="418.11132789967456" x2="418.11132789967456" y1="0.5" y2="30"/><line opacity="0.2" x1="459.8796473149434" x2="459.8796473149434" y1="0.5" y2="30"/><line opacity="0.2" x1="398.929118173475" x2="398.929118173475" y1="0.5" y2="30"/><line opacity="0.2" x1="275.02423981675315" x2="275.02423981675315" y1="0.5" y2="30"/><line opacity="0.2" x1="292.3034943088797" x2="292.3034943088797" y1="0.5" y2="30"/><line opacity="0.2" x1="287.0746936891587" x2="287.0746936891587" y1="0.5" y2="30"/><line opacity="0.2" x1="187.87666798102674" x2="187.87666798102674" y1="0.5" y2="30"/><line opacity="0.2" x1="360.3668261837424" x2="360.3668261837424" y1="0.5" y2="30"/><line opacity="0.2" x1="261.4052206774594" x2="261.4052206774594" y1="0.5" y2="30"/><line opacity="0.2" x1="346.4764545034486" x2="346.4764545034486" y1="0.5" y2="30"/><line opacity="0.2" x1="311.8318850064849" x2="311.8318850064849" y1="0.5" y2="30"/><line opacity="0.2" x1="356.3974800344001" x2="356.3974800344001" y1="0.5" y2="30"/><line opacity="0.2" x1="303.93995656741976" x2="303.93995656741976" y1="0.5" y2="30"/><line opacity="0.2" x1="233.80606044727716" x2="233.80606044727716" y1="0.5" y2="30"/><line opacity="0.2" x1="336.2277781778525" x2="336.2277781778525" y1="0.5" y2="30"/><line opacity="0.2" x1="182.76581017185444" x2="182.76581017185444" y1="0.5" y2="30"/><line opacity="0.2" x1="251.53903392984253" x2="251.53903392984253" y1="0.5" y2="30"/><line opacity="0.2" x1="442.6579624054143" x2="442.6579624054143" y1="0.5" y2="30"/><line opacity="0.2" x1="384.4109930301414" x2="384.4109930301414" y1="0.5" y2="30"/><line opacity="0.2" x1="454.1124753003965" x2="454.1124753003965" y1="0.5" y2="30"/><line opacity="0.2" x1="169.810164698621" x2="169.810164698621" y1="0.5" y2="30"/><line opacity="0.2" x1="547.8325299490377" x2="547.8325299490377" y1="0.5" y2="30"/><line opacity="0.2" x1="245.05613716566717" x2="245.05613716566717" y1="0.5" y2="30"/><line opacity="0.2" x1="293.4027238592094" x2="293.4027238592094" y1="0.5" y2="30"/><line opacity="0.2" x1="478.2849664493782" x2="478.2849664493782" y1="0.5" y2="30"/><line opacity="0.2" x1="423.5697687315247" x2="423.5697687315247" y1="0.5" y2="30"/><line opacity="0.2" x1="146.87150742363903" x2="146.87150742363903" y1="0.5" y2="30"/><line opacity="0.2" x1="278.0822684034441" x2="278.0822684034441" y1="0.5" y2="30"/><line opacity="0.2" x1="412.78919404262575" x2="412.78919404262575" y1="0.5" y2="30"/><line opacity="0.2" x1="383.1761672869662" x2="383.1761672869662" y1="0.5" y2="30"/><line opacity="0.2" x1="427.9491315640771" x2="427.9491315640771" y1="0.5" y2="30"/><line opacity="0.2" x1="381.4967238074688" x2="381.4967238074688" y1="0.5" y2="30"/><line opacity="0.2" x1="331.5524783543333" x2="331.5524783543333" y1="0.5" y2="30"/><line opacity="0.2" x1="163.05137210596186" x2="163.05137210596186" y1="0.5" y2="30"/><line opacity="0.2" x1="123.77665699894777" x2="123.77665699894777" y1="0.5" y2="30"/><line opacity="0.2" x1="269.1750460427557" x2="269.1750460427557" y1="0.5" y2="30"/><line opacity="0.2" x1="361.7999712441874" x2="361.7999712441874" y1="0.5" y2="30"/><line opacity="0.2" x1="117.1284550222978" x2="117.1284550222978" y1="0.5" y2="30"/><line opacity="0.2" x1="259.22464892037283" x2="259.22464892037283" y1="0.5" y2="30"/><line opacity="0.2" x1="369.3991719045258" x2="369.3991719045258" y1="0.5" y2="30"/><line opacity="0.2" x1="291.91198242167496" x2="291.91198242167496" y1="0.5" y2="30"/><line opacity="0.2" x1="235.0526871399291" x2="235.0526871399291" y1="0.5" y2="30"/><line opacity="0.2" x1="424.47894542688795" x2="424.47894542688795" y1="0.5" y2="30"/><line opacity="0.2" x1="419.1097096507719" x2="419.1097096507719" y1="0.5" y2="30"/><line opacity="0.2" x1="341.6227399744082" x2="341.6227399744082" y1="0.5" y2="30"/><line opacity="0.2" x1="388.5991271994901" x2="388.5991271994901" y1="0.5" y2="30"/><line opacity="0.2" x1="369.48653259669" x2="369.48653259669" y1="0.5" y2="30"/><line opacity="0.2" x1="384.19150865927145" x2="384.19150865927145" y1="0.5" y2="30"/><line opacity="0.2" x1="365.66057602361866" x2="365.66057602361866" y1="0.5" y2="30"/><line opacity="0.2" x1="263.930595647548" x2="263.930595647548" y1="0.5" y2="30"/><line opacity="0.2" x1="163.18699046491804" x2="163.18699046491804" y1="0.5" y2="30"/><line opacity="0.2" x1="210.1386800283006" x2="210.1386800283006" y1="0.5" y2="30"/><line opacity="0.2" x1="195.65698857012254" x2="195.65698857012254" y1="0.5" y2="30"/><line opacity="0.2" x1="304.984218281295" x2="304.984218281295" y1="0.5" y2="30"/><line opacity="0.2" x1="309.88007845724815" x2="309.88007845724815" y1="0.5" y2="30"/><line opacity="0.2" x1="234.68202221443914" x2="234.68202221443914" y1="0.5" y2="30"/><line opacity="0.2" x1="198.6596906325157" x2="198.6596906325157" y1="0.5" y2="30"/><line opacity="0.2" x1="418.5365215600407" x2="418.5365215600407" y1="0.5" y2="30"/><line opacity="0.2" x1="408.1091815084119" x2="408.1091815084119" y1="0.5" y2="30"/><line opacity="0.2" x1="330.85213548449036" x2="330.85213548449036" y1="0.5" y2="30"/><line opacity="0.2" x1="317.3460113482227" x2="317.3460113482227" y1="0.5" y2="30"/><line opacity="0.2" x1="138.37448266866528" x2="138.37448266866528" y1="0.5" y2="30"/><line opacity="0.2" x1="200.86658717831574" x2="200.86658717831574" y1="0.5" y2="30"/><line opacity="0.2" x1="311.0701538369491" x2="311.0701538369491" y1="0.5" y2="30"/><line opacity="0.2" x1="174.64408834935247" x2="174.64408834935247" y1="0.5" y2="30"/><line opacity="0.2" x1="273.710459976136" x2="273.710459976136" y1="0.5" y2="30"/><line opacity="0.2" x1="209.2370712339736" x2="209.2370712339736" y1="0.5" y2="30"/><line opacity="0.2" x1="446.28487311303144" x2="446.28487311303144" y1="0.5" y2="30"/><line opacity="0.2" x1="222.93003325196884" x2="222.93003325196884" y1="0.5" y2="30"/><line opacity="0.2" x1="463.8351429893953" x2="463.8351429893953" y1="0.5" y2="30"/><line opacity="0.2" x1="335.0944180479207" x2="335.0944180479207" y1="0.5" y2="30"/><line opacity="0.2" x1="247.861035826393" x2="247.861035826393" y1="0.5" y2="30"/><line opacity="0.2" x1="188.08652144989316" x2="188.08652144989316" y1="0.5" y2="30"/><line opacity="0.2" x1="374.83772462637955" x2="374.83772462637955" y1="0.5" y2="30"/><line opacity="0.2" x1="179.8399331426479" x2="179.8399331426479" y1="0.5" y2="30"/><line opacity="0.2" x1="428.21409525047557" x2="428.21409525047557" y1="0.5" y2="30"/><line opacity="0.2" x1="424.47421217747217" x2="424.47421217747217" y1="0.5" y2="30"/><line opacity="0.2" x1="274.71570710590294" x2="274.71570710590294" y1="0.5" y2="30"/><line opacity="0.2" x1="272.286503800449" x2="272.286503800449" y1="0.5" y2="30"/><line opacity="0.2" x1="294.2456260596051" x2="294.2456260596051" y1="0.5" y2="30"/><line opacity="0.2" x1="301.61199119494563" x2="301.61199119494563" y1="0.5" y2="30"/><line opacity="0.2" x1="262.65821481091876" x2="262.65821481091876" y1="0.5" y2="30"/><line opacity="0.2" x1="456.1730319852948" x2="456.1730319852948" y1="0.5" y2="30"/><line opacity="0.2" x1="343.9958265441847" x2="343.9958265441847" y1="0.5" y2="30"/><line opacity="0.2" x1="190.73537481536516" x2="190.73537481536516" y1="0.5" y2="30"/><line opacity="0.2" x1="327.45926958327766" x2="327.45926958327766" y1="0.5" y2="30"/><line opacity="0.2" x1="335.1283737688795" x2="335.1283737688795" y1="0.5" y2="30"/><line opacity="0.2" x1="364.952867770188" x2="364.952867770188" y1="0.5" y2="30"/><line opacity="0.2" x1="290.7278629272969" x2="290.7278629272969" y1="0.5" y2="30"/><line opacity="0.2" x1="304.4134824311078" x2="304.4134824311078" y1="0.5" y2="30"/><line opacity="0.2" x1="234.1588485581655" x2="234.1588485581655" y1="0.5" y2="30"/><line opacity="0.2" x1="270.84411691680117" x2="270.84411691680117" y1="0.5" y2="30"/><line opacity="0.2" x1="490.7602014988136" x2="490.7602014988136" y1="0.5" y2="30"/><line opacity="0.2" x1="471.76219432146667" x2="471.76219432146667" y1="0.5" y2="30"/><line opacity="0.2" x1="302.48181945736576" x2="302.48181945736576" y1="0.5" y2="30"/><line opacity="0.2" x1="313.47229328562094" x2="313.47229328562094" y1="0.5" y2="30"/><line opacity="0.2" x1="283.89430954045935" x2="283.89430954045935" y1="0.5" y2="30"/><line opacity="0.2" x1="314.831098817145" x2="314.831098817145" y1="0.5" y2="30"/><line opacity="0.2" x1="416.27691677838226" x2="416.27691677838226" y1="0.5" y2="30"/><line opacity="0.2" x1="278.65146387665646" x2="278.65146387665646" y1="0.5" y2="30"/><line opacity="0.2" x1="489.31246270315523" x2="489.31246270315523" y1="0.5" y2="30"/><line opacity="0.2" x1="330.86125164111354" x2="330.86125164111354" y1="0.5" y2="30"/><line opacity="0.2" x1="216.29472520941152" x2="216.29472520941152" y1="0.5" y2="30"/><line opacity="0.2" x1="194.4475112489416" x2="194.4475112489416" y1="0.5" y2="30"/><line opacity="0.2" x1="313.0120713189317" x2="313.0120713189317" y1="0.5" y2="30"/><line opacity="0.2" x1="459.78904827595784" x2="459.78904827595784" y1="0.5" y2="30"/><line opacity="0.2" x1="291.33460259063594" x2="291.33460259063594" y1="0.5" y2="30"/><line opacity="0.2" x1="292.33765743113634" x2="292.33765743113634" y1="0.5" y2="30"/><line opacity="0.2" x1="394.23546933406533" x2="394.23546933406533" y1="0.5" y2="30"/><line opacity="0.2" x1="308.5953006161969" x2="308.5953006161969" y1="0.5" y2="30"/><line opacity="0.2" x1="265.3760516662862" x2="265.3760516662862" y1="0.5" y2="30"/><line opacity="0.2" x1="286.04334520930485" x2="286.04334520930485" y1="0.5" y2="30"/><line opacity="0.2" x1="352.0753869040266" x2="352.0753869040266" y1="0.5" y2="30"/><line opacity="0.2" x1="171.36594277531935" x2="171.36594277531935" y1="0.5" y2="30"/><line opacity="0.2" x1="327.10442872501494" x2="327.10442872501494" y1="0.5" y2="30"/><line opacity="0.2" x1="387.24085962690236" x2="387.24085962690236" y1="0.5" y2="30"/><line opacity="0.2" x1="262.22458039093715" x2="262.22458039093715" y1="0.5" y2="30"/><line opacity="0.2" x1="230.25702610920837" x2="230.25702610920837" y1="0.5" y2="30"/><line opacity="0.2" x1="235.2565891330733" x2="235.2565891330733" y1="0.5" y2="30"/><line opacity="0.2" x1="495.5320391722264" x2="495.5320391722264" y1="0.5" y2="30"/><line opacity="0.2" x1="501.47593569694095" x2="501.47593569694095" y1="0.5" y2="30"/><line opacity="0.2" x1="364.0334258225736" x2="364.0334258225736" y1="0.5" y2="30"/><line opacity="0.2" x1="333.9079513095953" x2="333.9079513095953" y1="0.5" y2="30"/><line opacity="0.2" x1="356.90316328504485" x2="356.90316328504485" y1="0.5" y2="30"/><line opacity="0.2" x1="306.78014488115696" x2="306.78014488115696" y1="0.5" y2="30"/><line opacity="0.2" x1="238.93918366817755" x2="238.93918366817755" y1="0.5" y2="30"/><line opacity="0.2" x1="282.8599743359947" x2="282.8599743359947" y1="0.5" y2="30"/><line opacity="0.2" x1="411.66392676692453" x2="411.66392676692453" y1="0.5" y2="30"/><line opacity="0.2" x1="336.3587735474125" x2="336.3587735474125" y1="0.5" y2="30"/><line opacity="0.2" x1="276.6611156163608" x2="276.6611156163608" y1="0.5" y2="30"/><line opacity="0.2" x1="239.1407095945602" x2="239.1407095945602" y1="0.5" y2="30"/><line opacity="0.2" x1="259.2517147437913" x2="259.2517147437913" y1="0.5" y2="30"/><line opacity="0.2" x1="326.4366527261023" x2="326.4366527261023" y1="0.5" y2="30"/><line opacity="0.2" x1="277.9496019991505" x2="277.9496019991505" y1="0.5" y2="30"/><line opacity="0.2" x1="199.46743222061042" x2="199.46743222061042" y1="0.5" y2="30"/><line opacity="0.2" x1="149.19160510798784" x2="149.19160510798784" y1="0.5" y2="30"/><line opacity="0.2" x1="295.8308402014668" x2="295.8308402014668" y1="0.5" y2="30"/><line opacity="0.2" x1="332.19373807290424" x2="332.19373807290424" y1="0.5" y2="30"/><line opacity="0.2" x1="379.46746998134006" x2="379.46746998134006" y1="0.5" y2="30"/><line opacity="0.2" x1="399.59356897782624" x2="399.59356897782624" y1="0.5" y2="30"/><line opacity="0.2" x1="362.1753066940381" x2="362.1753066940381" y1="0.5" y2="30"/><line opacity="0.2" x1="382.37997603414124" x2="382.37997603414124" y1="0.5" y2="30"/><line opacity="0.2" x1="20" x2="20" y1="0.5" y2="30"/><line opacity="0.2" x1="205.83458986148077" x2="205.83458986148077" y1="0.5" y2="30"/><line opacity="0.2" x1="335.7626860476309" x2="335.7626860476309" y1="0.5" y2="30"/><line opacity="0.2" x1="338.40180085158227" x2="338.40180085158227" y1="0.5" y2="30"/><line opacity="0.2" x1="318.0120185900135" x2="318.0120185900135" y1="0.5" y2="30"/><line opacity="0.2" x1="346.71763946488556" x2="346.71763946488556" y1="0.5" y2="30"/><line opacity="0.2" x1="409.1889208245955" x2="409.1889208245955" y1="0.5" y2="30"/><line opacity="0.2" x1="238.5703066381733" x2="238.5703066381733" y1="0.5" y2="30"/><line opacity="0.2" x1="299.7549433553329" x2="299.7549433553329" y1="0.5" y2="30"/><line opacity="0.2" x1="326.3753434609646" x2="326.3753434609646" y1="0.5" y2="30"/><line opacity="0.2" x1="393.8058973268087" x2="393.8058973268087" y1="0.5" y2="30"/><line opacity="0.2" x1="333.228637598704" x2="333.228637598704" y1="0.5" y2="30"/><line opacity="0.2" x1="535.0467701381166" x2="535.0467701381166" y1="0.5" y2="30"/><line opacity="0.2" x1="351.4211017028458" x2="351.4211017028458" y1="0.5" y2="30"/><line opacity="0.2" x1="237.54488943123425" x2="237.54488943123425" y1="0.5" y2="30"/><line opacity="0.2" x1="307.0314517111702" x2="307.0314517111702" y1="0.5" y2="30"/><line opacity="0.2" x1="312.37138557003084" x2="312.37138557003084" y1="0.5" y2="30"/><line opacity="0.2" x1="296.47559454242617" x2="296.47559454242617" y1="0.5" y2="30"/><line opacity="0.2" x1="347.63307931133767" x2="347.63307931133767" y1="0.5" y2="30"/><line opacity="0.2" x1="377.8050410975536" x2="377.8050410975536" y1="0.5" y2="30"/><line opacity="0.2" x1="175.46541487688336" x2="175.46541487688336" y1="0.5" y2="30"/><line opacity="0.2" x1="349.6961558772646" x2="349.6961558772646" y1="0.5" y2="30"/><line opacity="0.2" x1="504.4446826707609" x2="504.4446826707609" y1="0.5" y2="30"/><line opacity="0.2" x1="275.59189346579194" x2="275.59189346579194" y1="0.5" y2="30"/><line opacity="0.2" x1="136.4823447343275" x2="136.4823447343275" y1="0.5" y2="30"/><line opacity="0.2" x1="399.07771122188564" x2="399.07771122188564" y1="0.5" y2="30"/><line opacity="0.2" x1="371.7732988280114" x2="371.7732988280114" y1="0.5" y2="30"/><line opacity="0.2" x1="251.53091133076146" x2="251.53091133076146" y1="0.5" y2="30"/><line opacity="0.2" x1="185.9327282269378" x2="185.9327282269378" y1="0.5" y2="30"/><line opacity="0.2" x1="454.8275122443437" x2="454.8275122443437" y1="0.5" y2="30"/><line opacity="0.2" x1="255.91930498990882" x2="255.91930498990882" y1="0.5" y2="30"/><line opacity="0.2" x1="195.16551901834663" x2="195.16551901834663" y1="0.5" y2="30"/><line opacity="0.2" x1="205.52007479372077" x2="205.52007479372077" y1="0.5" y2="30"/><line opacity="0.2" x1="448.1748726860737" x2="448.1748726860737" y1="0.5" y2="30"/><line opacity="0.2" x1="339.0515637696336" x2="339.0515637696336" y1="0.5" y2="30"/><line opacity="0.2" x1="312.6837080777673" x2="312.6837080777673" y1="0.5" y2="30"/><line opacity="0.2" x1="440.4214364955193" x2="440.4214364955193" y1="0.5" y2="30"/><line opacity="0.2" x1="354.8996222941682" x2="354.8996222941682" y1="0.5" y2="30"/><line opacity="0.2" x1="462.07865168093775" x2="462.07865168093775" y1="0.5" y2="30"/><line opacity="0.2" x1="441.46110521562485" x2="441.46110521562485" y1="0.5" y2="30"/><line opacity="0.2" x1="285.45720354251335" x2="285.45720354251335" y1="0.5" y2="30"/><line opacity="0.2" x1="557.6265413832227" x2="557.6265413832227" y1="0.5" y2="30"/><line opacity="0.2" x1="394.54082929945207" x2="394.54082929945207" y1="0.5" y2="30"/><line opacity="0.2" x1="314.50215198160004" x2="314.50215198160004" y1="0.5" y2="30"/><line opacity="0.2" x1="360.8122083671263" x2="360.8122083671263" y1="0.5" y2="30"/><line opacity="0.2" x1="273.22347154319937" x2="273.22347154319937" y1="0.5" y2="30"/><line opacity="0.2" x1="416.0169529980982" x2="416.0169529980982" y1="0.5" y2="30"/><line opacity="0.2" x1="372.14457930357946" x2="372.14457930357946" y1="0.5" y2="30"/><line opacity="0.2" x1="418.6298058083553" x2="418.6298058083553" y1="0.5" y2="30"/><line opacity="0.2" x1="299.72225550278114" x2="299.72225550278114" y1="0.5" y2="30"/><line opacity="0.2" x1="304.0096614609447" x2="304.0096614609447" y1="0.5" y2="30"/><line opacity="0.2" x1="260.26603667450087" x2="260.26603667450087" y1="0.5" y2="30"/><line opacity="0.2" x1="369.8025775262499" x2="369.8025775262499" y1="0.5" y2="30"/><line opacity="0.2" x1="388.742830701876" x2="388.742830701876" y1="0.5" y2="30"/><line opacity="0.2" x1="248.87901307684436" x2="248.87901307684436" y1="0.5" y2="30"/><line opacity="0.2" x1="357.7664257670608" x2="357.7664257670608" y1="0.5" y2="30"/><line opacity="0.2" x1="400.4191695087682" x2="400.4191695087682" y1="0.5" y2="30"/><line opacity="0.2" x1="337.17307079244557" x2="337.17307079244557" y1="0.5" y2="30"/><line opacity="0.2" x1="459.14660792973126" x2="459.14660792973126" y1="0.5" y2="30"/><line opacity="0.2" x1="206.67352265972602" x2="206.67352265972602" y1="0.5" y2="30"/><line opacity="0.2" x1="313.1562137123959" x2="313.1562137123959" y1="0.5" y2="30"/><line opacity="0.2" x1="312.74522497633825" x2="312.74522497633825" y1="0.5" y2="30"/><line opacity="0.2" x1="201.7058269461599" x2="201.7058269461599" y1="0.5" y2="30"/><line opacity="0.2" x1="270.4387655292303" x2="270.4387655292303" y1="0.5" y2="30"/><line opacity="0.2" x1="462.4838181472154" x2="462.4838181472154" y1="0.5" y2="30"/><line opacity="0.2" x1="274.9038044470577" x2="274.9038044470577" y1="0.5" y2="30"/><line opacity="0.2" x1="432.01875523275396" x2="432.01875523275396" y1="0.5" y2="30"/><line opacity="0.2" x1="429.58577713414724" x2="429.58577713414724" y1="0.5" y2="30"/><line opacity="0.2" x1="246.81944457259505" x2="246.81944457259505" y1="0.5" y2="30"/><line opacity="0.2" x1="329.285987175021" x2="329.285987175021" y1="0.5" y2="30"/><line opacity="0.2" x1="265.05885052025997" x2="265.05885052025997" y1="0.5" y2="30"/><line opacity="0.2" x1="552.6900613378867" x2="552.6900613378867" y1="0.5" y2="30"/><line opacity="0.2" x1="197.63532315472222" x2="197.63532315472222" y1="0.5" y2="30"/><line opacity="0.2" x1="286.38817998036683" x2="286.38817998036683" y1="0.5" y2="30"/><line opacity="0.2" x1="436.5064809520188" x2="436.5064809520188" y1="0.5" y2="30"/><line opacity="0.2" x1="349.8036746732887" x2="349.8036746732887" y1="0.5" y2="30"/><line opacity="0.2" x1="433.75079625915924" x2="433.75079625915924" y1="0.5" y2="30"/><line opacity="0.2" x1="342.6790791459199" x2="342.6790791459199" y1="0.5" y2="30"/><line opacity="0.2" x1="488.0765830033856" x2="488.0765830033856" y1="0.5" y2="30"/><line opacity="0.2" x1="223.1675086203413" x2="223.1675086203413" y1="0.5" y2="30"/><line opacity="0.2" x1="461.24125774225917" x2="461.24125774225917" y1="0.5" y2="30"/><line opacity="0.2" x1="413.04984767442346" x2="413.04984767442346" y1="0.5" y2="30"/><line opacity="0.2" x1="339.0417404371703" x2="339.0417404371703" y1="0.5" y2="30"/><line opacity="0.2" x1="458.0758519169218" x2="458.0758519169218" y1="0.5" y2="30"/><line opacity="0.2" x1="398.602094038821" x2="398.602094038821" y1="0.5" y2="30"/><line opacity="0.2" x1="449.5002795429095" x2="449.5002795429095" y1="0.5" y2="30"/><line opacity="0.2" x1="395.7875241453201" x2="395.7875241453201" y1="0.5" y2="30"/><line opacity="0.2" x1="372.948365497012" x2="372.948365497012" y1="0.5" y2="30"/><line opacity="0.2" x1="312.3998779142836" x2="312.3998779142836" y1="0.5" y2="30"/><line opacity="0.2" x1="344.23269439311156" x2="344.23269439311156" y1="0.5" y2="30"/><line opacity="0.2" x1="262.71632857934105" x2="262.71632857934105" y1="0.5" y2="30"/><line opacity="0.2" x1="442.5137051810548" x2="442.5137051810548" y1="0.5" y2="30"/><line opacity="0.2" x1="364.8599684697172" x2="364.8599684697172" y1="0.5" y2="30"/><line opacity="0.2" x1="442.0578567375649" x2="442.0578567375649" y1="0.5" y2="30"/><line opacity="0.2" x1="294.0819371210574" x2="294.0819371210574" y1="0.5" y2="30"/><line opacity="0.2" x1="285.7594001550675" x2="285.7594001550675" y1="0.5" y2="30"/><line opacity="0.2" x1="371.69473033453687" x2="371.69473033453687" y1="0.5" y2="30"/><line opacity="0.2" x1="376.71886349429377" x2="376.71886349429377" y1="0.5" y2="30"/><line opacity="0.2" x1="375.28893395893795" x2="375.28893395893795" y1="0.5" y2="30"/><line opacity="0.2" x1="188.044198757421" x2="188.044198757421" y1="0.5" y2="30"/><line opacity="0.2" x1="400.79487522409113" x2="400.79487522409113" y1="0.5" y2="30"/><line opacity="0.2" x1="300.22674775318836" x2="300.22674775318836" y1="0.5" y2="30"/><line opacity="0.2" x1="458.67563128693234" x2="458.67563128693234" y1="0.5" y2="30"/><line opacity="0.2" x1="349.70334353086616" x2="349.70334353086616" y1="0.5" y2="30"/><line opacity="0.2" x1="176.268220467811" x2="176.268220467811" y1="0.5" y2="30"/><line opacity="0.2" x1="362.2464727754982" x2="362.2464727754982" y1="0.5" y2="30"/><line opacity="0.2" x1="417.0824812122801" x2="417.0824812122801" y1="0.5" y2="30"/><line opacity="0.2" x1="265.6413427767832" x2="265.6413427767832" y1="0.5" y2="30"/><line opacity="0.2" x1="348.80025598012986" x2="348.80025598012986" y1="0.5" y2="30"/><line opacity="0.2" x1="356.4811039246654" x2="356.4811039246654" y1="0.5" y2="30"/><line opacity="0.2" x1="232.92788570645646" x2="232.92788570645646" y1="0.5" y2="30"/><line opacity="0.2" x1="317.2794917324968" x2="317.2794917324968" y1="0.5" y2="30"/><line opacity="0.2" x1="250.47551658773637" x2="250.47551658773637" y1="0.5" y2="30"/><line opacity="0.2" x1="182.17619491721183" x2="182.17619491721183" y1="0.5" y2="30"/><line opacity="0.2" x1="298.05905771362865" x2="298.05905771362865" y1="0.5" y2="30"/><line opacity="0.2" x1="305.53009531621535" x2="305.53009531621535" y1="0.5" y2="30"/><line opacity="0.2" x1="215.3407539101961" x2="215.3407539101961" y1="0.5" y2="30"/><line opacity="0.2" x1="450.61410166955915" x2="450.61410166955915" y1="0.5" y2="30"/><line opacity="0.2" x1="359.7138758509121" x2="359.7138758509121" y1="0.5" y2="30"/><line opacity="0.2" x1="433.7107981015083" x2="433.7107981015083" y1="0.5" y2="30"/><line opacity="0.2" x1="320.72909372900443" x2="320.72909372900443" y1="0.5" y2="30"/><line opacity="0.2" x1="223.46849653879502" x2="223.46849653879502" y1="0.5" y2="30"/><line opacity="0.2" x1="374.95529639669735" x2="374.95529639669735" y1="0.5" y2="30"/><line opacity="0.2" x1="273.3991683257264" x2="273.3991683257264" y1="0.5" y2="30"/><line opacity="0.2" x1="364.4108772584423" x2="364.4108772584423" y1="0.5" y2="30"/><line opacity="0.2" x1="289.0999159373828" x2="289.0999159373828" y1="0.5" y2="30"/><line opacity="0.2" x1="435.20277626295035" x2="435.20277626295035" y1="0.5" y2="30"/><line opacity="0.2" x1="299.14620438539004" x2="299.14620438539004" y1="0.5" y2="30"/><line opacity="0.2" x1="234.17081836628657" x2="234.17081836628657" y1="0.5" y2="30"/><line opacity="0.2" x1="438.56959715821876" x2="438.56959715821876" y1="0.5" y2="30"/><line opacity="0.2" x1="325.29424425698903" x2="325.29424425698903" y1="0.5" y2="30"/><line opacity="0.2" x1="400.44843108166293" x2="400.44843108166293" y1="0.5" y2="30"/><line opacity="0.2" x1="447.660400355147" x2="447.660400355147" y1="0.5" y2="30"/><line opacity="0.2" x1="305.6840181281347" x2="305.6840181281347" y1="0.5" y2="30"/><line opacity="0.2" x1="357.2952305103681" x2="357.2952305103681" y1="0.5" y2="30"/><line opacity="0.2" x1="465.7181563654756" x2="465.7181563654756" y1="0.5" y2="30"/><line opacity="0.2" x1="376.3812509280856" x2="376.3812509280856" y1="0.5" y2="30"/><line opacity="0.2" x1="491.30858978505637" x2="491.30858978505637" y1="0.5" y2="30"/><line opacity="0.2" x1="530.4074814930532" x2="530.4074814930532" y1="0.5" y2="30"/><line opacity="0.2" x1="254.8022965761642" x2="254.8022965761642" y1="0.5" y2="30"/><line opacity="0.2" x1="258.09107303852215" x2="258.09107303852215" y1="0.5" y2="30"/><line opacity="0.2" x1="385.76998474947055" x2="385.76998474947055" y1="0.5" y2="30"/><line opacity="0.2" x1="260.7250851817849" x2="260.7250851817849" y1="0.5" y2="30"/><line opacity="0.2" x1="292.93430519504426" x2="292.93430519504426" y1="0.5" y2="30"/><line opacity="0.2" x1="338.25194643967757" x2="338.25194643967757" y1="0.5" y2="30"/><line opacity="0.2" x1="351.32806860644473" x2="351.32806860644473" y1="0.5" y2="30"/><line opacity="0.2" x1="344.57646061816195" x2="344.57646061816195" y1="0.5" y2="30"/><line opacity="0.2" x1="438.63035504901296" x2="438.63035504901296" y1="0.5" y2="30"/><line opacity="0.2" x1="53.01805806765685" x2="53.01805806765685" y1="0.5" y2="30"/><line opacity="0.2" x1="363.19176296883813" x2="363.19176296883813" y1="0.5" y2="30"/><line opacity="0.2" x1="236.79124386023136" x2="236.79124386023136" y1="0.5" y2="30"/><line opacity="0.2" x1="438.6267663288262" x2="438.6267663288262" y1="0.5" y2="30"/><line opacity="0.2" x1="354.45907132217656" x2="354.45907132217656" y1="0.5" y2="30"/><line opacity="0.2" x1="330.2650247113473" x2="330.2650247113473" y1="0.5" y2="30"/><line opacity="0.2" x1="422.9380462442385" x2="422.9380462442385" y1="0.5" y2="30"/><line opacity="0.2" x1="198.87499142047693" x2="198.87499142047693" y1="0.5" y2="30"/><line opacity="0.2" x1="555.1748893744136" x2="555.1748893744136" y1="0.5" y2="30"/><line opacity="0.2" x1="277.6636546786099" x2="277.6636546786099" y1="0.5" y2="30"/><line opacity="0.2" x1="331.9052631554041" x2="331.9052631554041" y1="0.5" y2="30"/><line opacity="0.2" x1="218.0533338763672" x2="218.0533338763672" y1="0.5" y2="30"/><line opacity="0.2" x1="231.92226633401995" x2="231.92226633401995" y1="0.5" y2="30"/><line opacity="0.2" x1="369.4747990149613" x2="369.4747990149613" y1="0.5" y2="30"/><line opacity="0.2" x1="348.74850699310167" x2="348.74850699310167" y1="0.5" y2="30"/><line opacity="0.2" x1="332.164773140733" x2="332.164773140733" y1="0.5" y2="30"/><line opacity="0.2" x1="525.4063332152309" x2="525.4063332152309" y1="0.5" y2="30"/><line opacity="0.2" x1="325.6507655493619" x2="325.6507655493619" y1="0.5" y2="30"/><line opacity="0.2" x1="166.88280400533873" x2="166.88280400533873" y1="0.5" y2="30"/><line opacity="0.2" x1="254.4668981023001" x2="254.4668981023001" y1="0.5" y2="30"/><line opacity="0.2" x1="291.1769672546131" x2="291.1769672546131" y1="0.5" y2="30"/><line opacity="0.2" x1="296.20366899631006" x2="296.20366899631006" y1="0.5" y2="30"/><line opacity="0.2" x1="341.1785454761534" x2="341.1785454761534" y1="0.5" y2="30"/><line opacity="0.2" x1="322.30089750281417" x2="322.30089750281417" y1="0.5" y2="30"/><line opacity="0.2" x1="89.36474253637915" x2="89.36474253637915" y1="0.5" y2="30"/><line opacity="0.2" x1="461.591269370285" x2="461.591269370285" y1="0.5" y2="30"/><line opacity="0.2" x1="356.4028957175454" x2="356.4028957175454" y1="0.5" y2="30"/><line opacity="0.2" x1="532.1126009046428" x2="532.1126009046428" y1="0.5" y2="30"/><line opacity="0.2" x1="290.5484723037332" x2="290.5484723037332" y1="0.5" y2="30"/><line opacity="0.2" x1="463.87562065005574" x2="463.87562065005574" y1="0.5" y2="30"/><line opacity="0.2" x1="367.80930609291903" x2="367.80930609291903" y1="0.5" y2="30"/><line opacity="0.2" x1="357.6589333887415" x2="357.6589333887415" y1="0.5" y2="30"/><line opacity="0.2" x1="164.00192488521776" x2="164.00192488521776" y1="0.5" y2="30"/><line opacity="0.2" x1="303.7547016076471" x2="303.7547016076471" y1="0.5" y2="30"/><line opacity="0.2" x1="230.5534027948464" x2="230.5534027948464" y1="0.5" y2="30"/><line opacity="0.2" x1="452.8327895140653" x2="452.8327895140653" y1="0.5" y2="30"/><line opacity="0.2" x1="445.681340402283" x2="445.681340402283" y1="0.5" y2="30"/><line opacity="0.2" x1="307.81722427980037" x2="307.81722427980037" y1="0.5" y2="30"/><line opacity="0.2" x1="313.1889308629019" x2="313.1889308629019" y1="0.5" y2="30"/><line opacity="0.2" x1="235.22165454015519" x2="235.22165454015519" y1="0.5" y2="30"/><line opacity="0.2" x1="389.9787993229029" x2="389.9787993229029" y1="0.5" y2="30"/><line opacity="0.2" x1="244.13270816360753" x2="244.13270816360753" y1="0.5" y2="30"/><line opacity="0.2" x1="487.00632004826133" x2="487.00632004826133" y1="0.5" y2="30"/><line opacity="0.2" x1="223.31657315685095" x2="223.31657315685095" y1="0.5" y2="30"/><line opacity="0.2" x1="376.64834623832587" x2="376.64834623832587" y1="0.5" y2="30"/><line opacity="0.2" x1="232.9110476499101" x2="232.9110476499101" y1="0.5" y2="30"/><line opacity="0.2" x1="241.85841963027758" x2="241.85841963027758" y1="0.5" y2="30"/><line opacity="0.2" x1="287.09408747028226" x2="287.09408747028226" y1="0.5" y2="30"/><line opacity="0.2" x1="471.0246570453114" x2="471.0246570453114" y1="0.5" y2="30"/><line opacity="0.2" x1="221.01653001781236" x2="221.01653001781236" y1="0.5" y2="30"/><line opacity="0.2" x1="460.2279733129856" x2="460.2279733129856" y1="0.5" y2="30"/><line opacity="0.2" x1="139.55000156194737" x2="139.55000156194737" y1="0.5" y2="30"/><line opacity="0.2" x1="279.60080961682695" x2="279.60080961682695" y1="0.5" y2="30"/><line opacity="0.2" x1="194.0388561949893" x2="194.0388561949893" y1="0.5" y2="30"/><line opacity="0.2" x1="242.92915629404118" x2="242.92915629404118" y1="0.5" y2="30"/><line opacity="0.2" x1="387.4829430030873" x2="387.4829430030873" y1="0.5" y2="30"/><line opacity="0.2" x1="346.9972085694528" x2="346.9972085694528" y1="0.5" y2="30"/><line opacity="0.2" x1="238.7856746690767" x2="238.7856746690767" y1="0.5" y2="30"/><line opacity="0.2" x1="345.91571768648083" x2="345.91571768648083" y1="0.5" y2="30"/><line opacity="0.2" x1="442.45438351587273" x2="442.45438351587273" y1="0.5" y2="30"/><line opacity="0.2" x1="457.62224298564763" x2="457.62224298564763" y1="0.5" y2="30"/><line opacity="0.2" x1="334.7011710436021" x2="334.7011710436021" y1="0.5" y2="30"/><line opacity="0.2" x1="297.30222860248483" x2="297.30222860248483" y1="0.5" y2="30"/><line opacity="0.2" x1="316.2208114280687" x2="316.2208114280687" y1="0.5" y2="30"/><line opacity="0.2" x1="342.2527833815807" x2="342.2527833815807" y1="0.5" y2="30"/><line opacity="0.2" x1="353.4546691377056" x2="353.4546691377056" y1="0.5" y2="30"/><line opacity="0.2" x1="351.07019796381144" x2="351.07019796381144" y1="0.5" y2="30"/><line opacity="0.2" x1="324.95655312938095" x2="324.95655312938095" y1="0.5" y2="30"/><line opacity="0.2" x1="213.37165951079967" x2="213.37165951079967" y1="0.5" y2="30"/><line opacity="0.2" x1="405.56690894260083" x2="405.56690894260083" y1="0.5" y2="30"/><line opacity="0.2" x1="312.2876500673673" x2="312.2876500673673" y1="0.5" y2="30"/><line opacity="0.2" x1="213.40218801505603" x2="213.40218801505603" y1="0.5" y2="30"/><line opacity="0.2" x1="404.16026553381903" x2="404.16026553381903" y1="0.5" y2="30"/><line opacity="0.2" x1="351.49740232837985" x2="351.49740232837985" y1="0.5" y2="30"/><line opacity="0.2" x1="329.2966453120814" x2="329.2966453120814" y1="0.5" y2="30"/><line opacity="0.2" x1="230.38851571703708" x2="230.38851571703708" y1="0.5" y2="30"/><line opacity="0.2" x1="301.486982727267" x2="301.486982727267" y1="0.5" y2="30"/><line opacity="0.2" x1="461.4871939402603" x2="461.4871939402603" y1="0.5" y2="30"/><line opacity="0.2" x1="332.41833799245325" x2="332.41833799245325" y1="0.5" y2="30"/><line opacity="0.2" x1="185.9756538344397" x2="185.9756538344397" y1="0.5" y2="30"/><line opacity="0.2" x1="333.55435007893664" x2="333.55435007893664" y1="0.5" y2="30"/><line opacity="0.2" x1="277.780306771424" x2="277.780306771424" y1="0.5" y2="30"/><line opacity="0.2" x1="238.6427441657244" x2="238.6427441657244" y1="0.5" y2="30"/><line opacity="0.2" x1="441.732856625969" x2="441.732856625969" y1="0.5" y2="30"/><line opacity="0.2" x1="264.02242848412277" x2="264.02242848412277" y1="0.5" y2="30"/><line opacity="0.2" x1="125.13060358507178" x2="125.13060358507178" y1="0.5" y2="30"/><line opacity="0.2" x1="334.023221974704" x2="334.023221974704" y1="0.5" y2="30"/><line opacity="0.2" x1="377.7186291886496" x2="377.7186291886496" y1="0.5" y2="30"/><line opacity="0.2" x1="451.32548508920644" x2="451.32548508920644" y1="0.5" y2="30"/><line opacity="0.2" x1="450.74255297608715" x2="450.74255297608715" y1="0.5" y2="30"/><line opacity="0.2" x1="199.40960014887727" x2="199.40960014887727" y1="0.5" y2="30"/><line opacity="0.2" x1="382.43851582133044" x2="382.43851582133044" y1="0.5" y2="30"/><line opacity="0.2" x1="285.3087671639618" x2="285.3087671639618" y1="0.5" y2="30"/><line opacity="0.2" x1="396.2823396603233" x2="396.2823396603233" y1="0.5" y2="30"/><line opacity="0.2" x1="202.15055966759624" x2="202.15055966759624" y1="0.5" y2="30"/><line opacity="0.2" x1="308.8474328805236" x2="308.8474328805236" y1="0.5" y2="30"/><line opacity="0.2" x1="241.26987441815183" x2="241.26987441815183" y1="0.5" y2="30"/><line opacity="0.2" x1="366.8388719776534" x2="366.8388719776534" y1="0.5" y2="30"/><line opacity="0.2" x1="374.7848429200924" x2="374.7848429200924" y1="0.5" y2="30"/><line opacity="0.2" x1="426.53339514192805" x2="426.53339514192805" y1="0.5" y2="30"/><line opacity="0.2" x1="211.29894287047745" x2="211.29894287047745" y1="0.5" y2="30"/><line opacity="0.2" x1="194.72146648504872" x2="194.72146648504872" y1="0.5" y2="30"/><line opacity="0.2" x1="309.1173230325815" x2="309.1173230325815" y1="0.5" y2="30"/><line opacity="0.2" x1="297.66707860278433" x2="297.66707860278433" y1="0.5" y2="30"/><line opacity="0.2" x1="371.4654920274173" x2="371.4654920274173" y1="0.5" y2="30"/><line opacity="0.2" x1="401.8136641630992" x2="401.8136641630992" y1="0.5" y2="30"/><line opacity="0.2" x1="334.00672711261655" x2="334.00672711261655" y1="0.5" y2="30"/><line opacity="0.2" x1="205.78753097360118" x2="205.78753097360118" y1="0.5" y2="30"/><line opacity="0.2" x1="336.88396233913596" x2="336.88396233913596" y1="0.5" y2="30"/><line opacity="0.2" x1="229.2350390306729" x2="229.2350390306729" y1="0.5" y2="30"/><line opacity="0.2" x1="301.414915698479" x2="301.414915698479" y1="0.5" y2="30"/><line opacity="0.2" x1="498.4591215119239" x2="498.4591215119239" y1="0.5" y2="30"/><line opacity="0.2" x1="378.0640344772932" x2="378.0640344772932" y1="0.5" y2="30"/><line opacity="0.2" x1="362.9153282116726" x2="362.9153282116726" y1="0.5" y2="30"/><line opacity="0.2" x1="336.23556085222395" x2="336.23556085222395" y1="0.5" y2="30"/><line opacity="0.2" x1="135.5779912693369" x2="135.5779912693369" y1="0.5" y2="30"/><line opacity="0.2" x1="349.24651956326903" x2="349.24651956326903" y1="0.5" y2="30"/><line opacity="0.2" x1="384.1621312247733" x2="384.1621312247733" y1="0.5" y2="30"/><line opacity="0.2" x1="404.4775976497525" x2="404.4775976497525" y1="0.5" y2="30"/><line opacity="0.2" x1="479.0080878215638" x2="479.0080878215638" y1="0.5" y2="30"/><line opacity="0.2" x1="419.85501976862406" x2="419.85501976862406" y1="0.5" y2="30"/><line opacity="0.2" x1="312.4386998169371" x2="312.4386998169371" y1="0.5" y2="30"/><line opacity="0.2" x1="350.7263982486393" x2="350.7263982486393" y1="0.5" y2="30"/><line opacity="0.2" x1="337.98207282731823" x2="337.98207282731823" y1="0.5" y2="30"/><line opacity="0.2" x1="433.93700193625915" x2="433.93700193625915" y1="0.5" y2="30"/><line opacity="0.2" x1="302.8986246701308" x2="302.8986246701308" y1="0.5" y2="30"/><line opacity="0.2" x1="325.2478064320266" x2="325.2478064320266" y1="0.5" y2="30"/><line opacity="0.2" x1="361.2218918413582" x2="361.2218918413582" y1="0.5" y2="30"/><line opacity="0.2" x1="600.3462345275027" x2="600.3462345275027" y1="0.5" y2="30"/><line opacity="0.2" x1="245.4069998298475" x2="245.4069998298475" y1="0.5" y2="30"/><line opacity="0.2" x1="361.86031115681385" x2="361.86031115681385" y1="0.5" y2="30"/><line opacity="0.2" x1="254.08247294834624" x2="254.08247294834624" y1="0.5" y2="30"/><line opacity="0.2" x1="191.77179705033822" x2="191.77179705033822" y1="0.5" y2="30"/><line opacity="0.2" x1="126.24421886354071" x2="126.24421886354071" y1="0.5" y2="30"/><line opacity="0.2" x1="174.8221784921872" x2="174.8221784921872" y1="0.5" y2="30"/><line opacity="0.2" x1="406.65284058820174" x2="406.65284058820174" y1="0.5" y2="30"/><line opacity="0.2" x1="374.15690187094515" x2="374.15690187094515" y1="0.5" y2="30"/><line opacity="0.2" x1="181.08888931409615" x2="181.08888931409615" y1="0.5" y2="30"/><line opacity="0.2" x1="273.97853501869247" x2="273.97853501869247" y1="0.5" y2="30"/><line opacity="0.2" x1="395.9824418051182" x2="395.9824418051182" y1="0.5" y2="30"/><line opacity="0.2" x1="273.1124891172497" x2="273.1124891172497" y1="0.5" y2="30"/><line opacity="0.2" x1="270.6058105841577" x2="270.6058105841577" y1="0.5" y2="30"/><line opacity="0.2" x1="273.73786105451495" x2="273.73786105451495" y1="0.5" y2="30"/><line opacity="0.2" x1="311.0329264769423" x2="311.0329264769423" y1="0.5" y2="30"/><line opacity="0.2" x1="429.81417096987565" x2="429.81417096987565" y1="0.5" y2="30"/><line opacity="0.2" x1="274.2162752677905" x2="274.2162752677905" y1="0.5" y2="30"/><line opacity="0.2" x1="414.9417178822499" x2="414.9417178822499" y1="0.5" y2="30"/><line opacity="0.2" x1="408.84847940036684" x2="408.84847940036684" y1="0.5" y2="30"/><line opacity="0.2" x1="275.7131722909803" x2="275.7131722909803" y1="0.5" y2="30"/><line opacity="0.2" x1="441.6849790262063" x2="441.6849790262063" y1="0.5" y2="30"/><line opacity="0.2" x1="382.5810755934363" x2="382.5810755934363" y1="0.5" y2="30"/><line opacity="0.2" x1="311.07516903980036" x2="311.07516903980036" y1="0.5" y2="30"/><line opacity="0.2" x1="328.81768347030595" x2="328.81768347030595" y1="0.5" y2="30"/><line opacity="0.2" x1="250.49536051106284" x2="250.49536051106284" y1="0.5" y2="30"/><line opacity="0.2" x1="210.9647414716521" x2="210.9647414716521" y1="0.5" y2="30"/><line opacity="0.2" x1="255.625318994989" x2="255.625318994989" y1="0.5" y2="30"/><line opacity="0.2" x1="366.5653097829077" x2="366.5653097829077" y1="0.5" y2="30"/><line opacity="0.2" x1="249.20359155507333" x2="249.20359155507333" y1="0.5" y2="30"/><line opacity="0.2" x1="460.5253486490696" x2="460.5253486490696" y1="0.5" y2="30"/><line opacity="0.2" x1="395.66270507973366" x2="395.66270507973366" y1="0.5" y2="30"/><line opacity="0.2" x1="431.22728173329875" x2="431.22728173329875" y1="0.5" y2="30"/><line opacity="0.2" x1="327.64693105250205" x2="327.64693105250205" y1="0.5" y2="30"/><line opacity="0.2" x1="508.3125106138354" x2="508.3125106138354" y1="0.5" y2="30"/><line opacity="0.2" x1="182.1204029320059" x2="182.1204029320059" y1="0.5" y2="30"/><line opacity="0.2" x1="142.88243714817753" x2="142.88243714817753" y1="0.5" y2="30"/><line opacity="0.2" x1="383.86378696969877" x2="383.86378696969877" y1="0.5" y2="30"/><line opacity="0.2" x1="261.1751527645283" x2="261.1751527645283" y1="0.5" y2="30"/><line opacity="0.2" x1="428.17949648199885" x2="428.17949648199885" y1="0.5" y2="30"/><line opacity="0.2" x1="230.11781369546958" x2="230.11781369546958" y1="0.5" y2="30"/><line opacity="0.2" x1="350.1314264095355" x2="350.1314264095355" y1="0.5" y2="30"/><line opacity="0.2" x1="215.7720650822069" x2="215.7720650822069" y1="0.5" y2="30"/><line opacity="0.2" x1="429.13622568305914" x2="429.13622568305914" y1="0.5" y2="30"/><line opacity="0.2" x1="273.5737172018165" x2="273.5737172018165" y1="0.5" y2="30"/><line opacity="0.2" x1="320.31997141935693" x2="320.31997141935693" y1="0.5" y2="30"/><line opacity="0.2" x1="308.42365921251195" x2="308.42365921251195" y1="0.5" y2="30"/><line opacity="0.2" x1="320.1886252879649" x2="320.1886252879649" y1="0.5" y2="30"/><line opacity="0.2" x1="402.8153616862412" x2="402.8153616862412" y1="0.5" y2="30"/><line opacity="0.2" x1="460.7165370451225" x2="460.7165370451225" y1="0.5" y2="30"/><line opacity="0.2" x1="181.1376192510196" x2="181.1376192510196" y1="0.5" y2="30"/><line opacity="0.2" x1="407.3769810020425" x2="407.3769810020425" y1="0.5" y2="30"/><line opacity="0.2" x1="421.72778083911294" x2="421.72778083911294" y1="0.5" y2="30"/><line opacity="0.2" x1="295.0513047523829" x2="295.0513047523829" y1="0.5" y2="30"/><line opacity="0.2" x1="396.50420139472186" x2="396.50420139472186" y1="0.5" y2="30"/><line opacity="0.2" x1="373.81646610388145" x2="373.81646610388145" y1="0.5" y2="30"/><line opacity="0.2" x1="288.3431552591141" x2="288.3431552591141" y1="0.5" y2="30"/><line opacity="0.2" x1="352.69676283239846" x2="352.69676283239846" y1="0.5" y2="30"/><line opacity="0.2" x1="399.7507771572335" x2="399.7507771572335" y1="0.5" y2="30"/><line opacity="0.2" x1="110.35639232252989" x2="110.35639232252989" y1="0.5" y2="30"/><line opacity="0.2" x1="387.6526230476961" x2="387.6526230476961" y1="0.5" y2="30"/><line opacity="0.2" x1="341.6288672743884" x2="341.6288672743884" y1="0.5" y2="30"/><line opacity="0.2" x1="308.2889326516304" x2="308.2889326516304" y1="0.5" y2="30"/><line opacity="0.2" x1="289.43668999089067" x2="289.43668999089067" y1="0.5" y2="30"/><line opacity="0.2" x1="306.12997106508294" x2="306.12997106508294" y1="0.5" y2="30"/><line opacity="0.2" x1="598.8002255023263" x2="598.8002255023263" y1="0.5" y2="30"/><line opacity="0.2" x1="174.05272332486575" x2="174.05272332486575" y1="0.5" y2="30"/><line opacity="0.2" x1="370.51841082577755" x2="370.51841082577755" y1="0.5" y2="30"/><line opacity="0.2" x1="248.84759099414924" x2="248.84759099414924" y1="0.5" y2="30"/><line opacity="0.2" x1="419.8598430169386" x2="419.8598430169386" y1="0.5" y2="30"/><line opacity="0.2" x1="299.55022130722307" x2="299.55022130722307" y1="0.5" y2="30"/><line opacity="0.2" x1="477.12718320933163" x2="477.12718320933163" y1="0.5" y2="30"/><line opacity="0.2" x1="319.11180856331066" x2="319.11180856331066" y1="0.5" y2="30"/><line opacity="0.2" x1="345.2835120576717" x2="345.2835120576717" y1="0.5" y2="30"/><line opacity="0.2" x1="442.92933541330393" x2="442.92933541330393" y1="0.5" y2="30"/><line opacity="0.2" x1="363.96579090558583" x2="363.96579090558583" y1="0.5" y2="30"/><line opacity="0.2" x1="188.8561393211406" x2="188.8561393211406" y1="0.5" y2="30"/><line opacity="0.2" x1="405.8703740440642" x2="405.8703740440642" y1="0.5" y2="30"/><line opacity="0.2" x1="361.7037272884715" x2="361.7037272884715" y1="0.5" y2="30"/><line opacity="0.2" x1="341.09554159871396" x2="341.09554159871396" y1="0.5" y2="30"/><line opacity="0.2" x1="350.31152464345286" x2="350.31152464345286" y1="0.5" y2="30"/><line opacity="0.2" x1="286.9675238075463" x2="286.9675238075463" y1="0.5" y2="30"/><line opacity="0.2" x1="329.15612395303606" x2="329.15612395303606" y1="0.5" y2="30"/><line opacity="0.2" x1="221.98861024134783" x2="221.98861024134783" y1="0.5" y2="30"/><line opacity="0.2" x1="313.8642540856753" x2="313.8642540856753" y1="0.5" y2="30"/><line opacity="0.2" x1="324.61699790877844" x2="324.61699790877844" y1="0.5" y2="30"/><line opacity="0.2" x1="224.30176069682824" x2="224.30176069682824" y1="0.5" y2="30"/><line opacity="0.2" x1="275.1887450688119" x2="275.1887450688119" y1="0.5" y2="30"/><line opacity="0.2" x1="454.4800820784625" x2="454.4800820784625" y1="0.5" y2="30"/><line opacity="0.2" x1="365.93784875038847" x2="365.93784875038847" y1="0.5" y2="30"/><line opacity="0.2" x1="370.326395182781" x2="370.326395182781" y1="0.5" y2="30"/><line opacity="0.2" x1="359.4939078204962" x2="359.4939078204962" y1="0.5" y2="30"/><line opacity="0.2" x1="280.69295968368647" x2="280.69295968368647" y1="0.5" y2="30"/><line opacity="0.2" x1="209.17793794442338" x2="209.17793794442338" y1="0.5" y2="30"/><line opacity="0.2" x1="349.8889826653509" x2="349.8889826653509" y1="0.5" y2="30"/><line opacity="0.2" x1="440.447278787134" x2="440.447278787134" y1="0.5" y2="30"/><line opacity="0.2" x1="394.1717090606945" x2="394.1717090606945" y1="0.5" y2="30"/><line opacity="0.2" x1="354.78966283699" x2="354.78966283699" y1="0.5" y2="30"/><line opacity="0.2" x1="340.25589848976" x2="340.25589848976" y1="0.5" y2="30"/><line opacity="0.2" x1="290.89748793152955" x2="290.89748793152955" y1="0.5" y2="30"/><line opacity="0.2" x1="316.5961837074007" x2="316.5961837074007" y1="0.5" y2="30"/><line opacity="0.2" x1="332.9775456155901" x2="332.9775456155901" y1="0.5" y2="30"/><line opacity="0.2" x1="334.6123339290009" x2="334.6123339290009" y1="0.5" y2="30"/><line opacity="0.2" x1="480.4766023253046" x2="480.4766023253046" y1="0.5" y2="30"/><line opacity="0.2" x1="284.8333694223281" x2="284.8333694223281" y1="0.5" y2="30"/><line opacity="0.2" x1="386.67566712762766" x2="386.67566712762766" y1="0.5" y2="30"/><line opacity="0.2" x1="260.74040543153757" x2="260.74040543153757" y1="0.5" y2="30"/><line opacity="0.2" x1="272.5399022826135" x2="272.5399022826135" y1="0.5" y2="30"/><line opacity="0.2" x1="322.5460463806767" x2="322.5460463806767" y1="0.5" y2="30"/><line opacity="0.2" x1="416.0637977391391" x2="416.0637977391391" y1="0.5" y2="30"/><line opacity="0.2" x1="203.34218572130948" x2="203.34218572130948" y1="0.5" y2="30"/><line opacity="0.2" x1="475.6957660866693" x2="475.6957660866693" y1="0.5" y2="30"/><line opacity="0.2" x1="359.8841354323805" x2="359.8841354323805" y1="0.5" y2="30"/><line opacity="0.2" x1="253.34906198860563" x2="253.34906198860563" y1="0.5" y2="30"/><line opacity="0.2" x1="432.4097389260821" x2="432.4097389260821" y1="0.5" y2="30"/><line opacity="0.2" x1="120.38984094535093" x2="120.38984094535093" y1="0.5" y2="30"/><line opacity="0.2" x1="339.45697060647444" x2="339.45697060647444" y1="0.5" y2="30"/><line opacity="0.2" x1="397.2200408163711" x2="397.2200408163711" y1="0.5" y2="30"/><line opacity="0.2" x1="422.24807543597257" x2="422.24807543597257" y1="0.5" y2="30"/><line opacity="0.2" x1="252.62133157002017" x2="252.62133157002017" y1="0.5" y2="30"/><line opacity="0.2" x1="343.3687847398561" x2="343.3687847398561" y1="0.5" y2="30"/><line opacity="0.2" x1="466.8041477010937" x2="466.8041477010937" y1="0.5" y2="30"/><line opacity="0.2" x1="620" x2="620" y1="0.5" y2="30"/><line opacity="0.2" x1="380.92750942516835" x2="380.92750942516835" y1="0.5" y2="30"/><line opacity="0.2" x1="378.4137184494956" x2="378.4137184494956" y1="0.5" y2="30"/><line opacity="0.2" x1="231.53827396508999" x2="231.53827396508999" y1="0.5" y2="30"/><line opacity="0.2" x1="455.075447147898" x2="455.075447147898" y1="0.5" y2="30"/><line opacity="0.2" x1="310.80805554544577" x2="310.80805554544577" y1="0.5" y2="30"/><line opacity="0.2" x1="354.5553528547659" x2="354.5553528547659" y1="0.5" y2="30"/><line opacity="0.2" x1="289.56986080349816" x2="289.56986080349816" y1="0.5" y2="30"/><line opacity="0.2" x1="334.9087719222449" x2="334.9087719222449" y1="0.5" y2="30"/><line opacity="0.2" x1="368.11905971331583" x2="368.11905971331583" y1="0.5" y2="30"/><line opacity="0.2" x1="379.13494290613653" x2="379.13494290613653" y1="0.5" y2="30"/><line opacity="0.2" x1="282.24729851382796" x2="282.24729851382796" y1="0.5" y2="30"/><line opacity="0.2" x1="205.66675667514622" x2="205.66675667514622" y1="0.5" y2="30"/><line opacity="0.2" x1="419.1091876237804" x2="419.1091876237804" y1="0.5" y2="30"/><line opacity="0.2" x1="191.39149809500208" x2="191.39149809500208" y1="0.5" y2="30"/><line opacity="0.2" x1="289.5729324295967" x2="289.5729324295967" y1="0.5" y2="30"/><line opacity="0.2" x1="439.59115557027167" x2="439.59115557027167" y1="0.5" y2="30"/><line opacity="0.2" x1="434.694705013457" x2="434.694705013457" y1="0.5" y2="30"/><line opacity="0.2" x1="364.097776381421" x2="364.097776381421" y1="0.5" y2="30"/><line opacity="0.2" x1="196.23294398092295" x2="196.23294398092295" y1="0.5" y2="30"/><line opacity="0.2" x1="121.50158749419748" x2="121.50158749419748" y1="0.5" y2="30"/><line opacity="0.2" x1="373.3191628448743" x2="373.3191628448743" y1="0.5" y2="30"/><line opacity="0.2" x1="239.57868517669493" x2="239.57868517669493" y1="0.5" y2="30"/><line opacity="0.2" x1="417.6148677791803" x2="417.6148677791803" y1="0.5" y2="30"/><line opacity="0.2" x1="544.2933555250497" x2="544.2933555250497" y1="0.5" y2="30"/><line opacity="0.2" x1="209.89628373159763" x2="209.89628373159763" y1="0.5" y2="30"/><line opacity="0.2" x1="288.49905075995656" x2="288.49905075995656" y1="0.5" y2="30"/><line opacity="0.2" x1="261.68203922829343" x2="261.68203922829343" y1="0.5" y2="30"/><line opacity="0.2" x1="212.15760760053124" x2="212.15760760053124" y1="0.5" y2="30"/><line opacity="0.2" x1="356.95673476821315" x2="356.95673476821315" y1="0.5" y2="30"/><line opacity="0.2" x1="348.14368139958765" x2="348.14368139958765" y1="0.5" y2="30"/><line opacity="0.2" x1="388.20240474483455" x2="388.20240474483455" y1="0.5" y2="30"/><line opacity="0.2" x1="351.38429214403516" x2="351.38429214403516" y1="0.5" y2="30"/><line opacity="0.2" x1="207.96877240397862" x2="207.96877240397862" y1="0.5" y2="30"/><line opacity="0.2" x1="397.5936328096802" x2="397.5936328096802" y1="0.5" y2="30"/><line opacity="0.2" x1="364.5319346946924" x2="364.5319346946924" y1="0.5" y2="30"/><line opacity="0.2" x1="386.5088608168127" x2="386.5088608168127" y1="0.5" y2="30"/><line opacity="0.2" x1="509.8517690891262" x2="509.8517690891262" y1="0.5" y2="30"/><line opacity="0.2" x1="313.7594420146355" x2="313.7594420146355" y1="0.5" y2="30"/><line opacity="0.2" x1="235.02528360569076" x2="235.02528360569076" y1="0.5" y2="30"/><line opacity="0.2" x1="267.96395338964766" x2="267.96395338964766" y1="0.5" y2="30"/><line opacity="0.2" x1="286.3685546094864" x2="286.3685546094864" y1="0.5" y2="30"/><line opacity="0.2" x1="456.4443989557051" x2="456.4443989557051" y1="0.5" y2="30"/><line opacity="0.2" x1="327.9508749123916" x2="327.9508749123916" y1="0.5" y2="30"/><line opacity="0.2" x1="343.6603804540786" x2="343.6603804540786" y1="0.5" y2="30"/><line opacity="0.2" x1="318.91302422789056" x2="318.91302422789056" y1="0.5" y2="30"/><line opacity="0.2" x1="252.92845471402043" x2="252.92845471402043" y1="0.5" y2="30"/><line opacity="0.2" x1="411.6763666332734" x2="411.6763666332734" y1="0.5" y2="30"/><line opacity="0.2" x1="371.98550169157556" x2="371.98550169157556" y1="0.5" y2="30"/><line opacity="0.2" x1="415.06998201286467" x2="415.06998201286467" y1="0.5" y2="30"/><line opacity="0.2" x1="482.4567153914337" x2="482.4567153914337" y1="0.5" y2="30"/><line opacity="0.2" x1="360.51529293360016" x2="360.51529293360016" y1="0.5" y2="30"/><line opacity="0.2" x1="307.5818825376148" x2="307.5818825376148" y1="0.5" y2="30"/><line opacity="0.2" x1="281.05451947702426" x2="281.05451947702426" y1="0.5" y2="30"/><line opacity="0.2" x1="326.58993688169403" x2="326.58993688169403" y1="0.5" y2="30"/><line opacity="0.2" x1="266.62300233730053" x2="266.62300233730053" y1="0.5" y2="30"/><line opacity="0.2" x1="223.92401254081005" x2="223.92401254081005" y1="0.5" y2="30"/><line opacity="0.2" x1="373.4274794469276" x2="373.4274794469276" y1="0.5" y2="30"/><line opacity="0.2" x1="410.37806619445263" x2="410.37806619445263" y1="0.5" y2="30"/><line opacity="0.2" x1="287.2213623502304" x2="287.2213623502304" y1="0.5" y2="30"/><line opacity="0.2" x1="300.36563910769377" x2="300.36563910769377" y1="0.5" y2="30"/><line opacity="0.2" x1="361.60442697837675" x2="361.60442697837675" y1="0.5" y2="30"/><line opacity="0.2" x1="217.5087743790083" x2="217.5087743790083" y1="0.5" y2="30"/><line opacity="0.2" x1="427.00272525564185" x2="427.00272525564185" y1="0.5" y2="30"/><line opacity="0.2" x1="307.64540316517684" x2="307.64540316517684" y1="0.5" y2="30"/><line opacity="0.2" x1="377.45907950885714" x2="377.45907950885714" y1="0.5" y2="30"/><line opacity="0.2" x1="145.772964425151" x2="145.772964425151" y1="0.5" y2="30"/><line opacity="0.2" x1="420.91384802886256" x2="420.91384802886256" y1="0.5" y2="30"/><line opacity="0.2" x1="341.0794444237398" x2="341.0794444237398" y1="0.5" y2="30"/><line opacity="0.2" x1="360.5363356073786" x2="360.5363356073786" y1="0.5" y2="30"/><line opacity="0.2" x1="401.3188164471294" x2="401.3188164471294" y1="0.5" y2="30"/><line opacity="0.2" x1="334.3710616297406" x2="334.3710616297406" y1="0.5" y2="30"/><line opacity="0.2" x1="553.8281392977052" x2="553.8281392977052" y1="0.5" y2="30"/><line opacity="0.2" x1="381.4611113164601" x2="381.4611113164601" y1="0.5" y2="30"/><line opacity="0.2" x1="253.66082050458792" x2="253.66082050458792" y1="0.5" y2="30"/><line opacity="0.2" x1="338.94234127064374" x2="338.94234127064374" y1="0.5" y2="30"/><line opacity="0.2" x1="526.922115421719" x2="526.922115421719" y1="0.5" y2="30"/><line opacity="0.2" x1="356.08152436544003" x2="356.08152436544003" y1="0.5" y2="30"/><line opacity="0.2" x1="305.59509770598356" x2="305.59509770598356" y1="0.5" y2="30"/><line opacity="0.2" x1="303.49290619361625" x2="303.49290619361625" y1="0.5" y2="30"/><line opacity="0.2" x1="279.3954864947801" x2="279.3954864947801" y1="0.5" y2="30"/><line opacity="0.2" x1="476.21326493035286" x2="476.21326493035286" y1="0.5" y2="30"/><line opacity="0.2" x1="243.37445693131298" x2="243.37445693131298" y1="0.5" y2="30"/><line opacity="0.2" x1="168.9249169631464" x2="168.9249169631464" y1="0.5" y2="30"/><line opacity="0.2" x1="516.7657898799474" x2="516.7657898799474" y1="0.5" y2="30"/><line opacity="0.2" x1="312.959629260915" x2="312.959629260915" y1="0.5" y2="30"/><line opacity="0.2" x1="319.0980342845244" x2="319.0980342845244" y1="0.5" y2="30"/><line opacity="0.2" x1="297.9261257991298" x2="297.9261257991298" y1="0.5" y2="30"/><line opacity="0.2" x1="279.7039075614079" x2="279.7039075614079" y1="0.5" y2="30"/><line opacity="0.2" x1="333.2543392382379" x2="333.2543392382379" y1="0.5" y2="30"/><line opacity="0.2" x1="485.1422519894504" x2="485.1422519894504" y1="0.5" y2="30"/><line opacity="0.2" x1="197.30359925247865" x2="197.30359925247865" y1="0.5" y2="30"/><line opacity="0.2" x1="314.6918242814164" x2="314.6918242814164" y1="0.5" y2="30"/><line opacity="0.2" x1="333.70472089628015" x2="333.70472089628015" y1="0.5" y2="30"/><line opacity="0.2" x1="257.4788671030976" x2="257.4788671030976" y1="0.5" y2="30"/><line opacity="0.2" x1="240.60544675775998" x2="240.60544675775998" y1="0.5" y2="30"/><line opacity="0.2" x1="377.7405167604588" x2="377.7405167604588" y1="0.5" y2="30"/><line opacity="0.2" x1="452.1579965275703" x2="452.1579965275703" y1="0.5" y2="30"/><line opacity="0.2" x1="356.62436570903316" x2="356.62436570903316" y1="0.5" y2="30"/><line opacity="0.2" x1="352.0450228671375" x2="352.0450228671375" y1="0.5" y2="30"/><line opacity="0.2" x1="466.2733268765473" x2="466.2733268765473" y1="0.5" y2="30"/><line opacity="0.2" x1="290.37538380337844" x2="290.37538380337844" y1="0.5" y2="30"/><line opacity="0.2" x1="209.95322226049925" x2="209.95322226049925" y1="0.5" y2="30"/><line opacity="0.2" x1="324.37252754758117" x2="324.37252754758117" y1="0.5" y2="30"/><line opacity="0.2" x1="332.58848279498113" x2="332.58848279498113" y1="0.5" y2="30"/><line opacity="0.2" x1="180.34910813741251" x2="180.34910813741251" y1="0.5" y2="30"/><line opacity="0.2" x1="219.86461339151361" x2="219.86461339151361" y1="0.5" y2="30"/><line opacity="0.2" x1="399.272271071115" x2="399.272271071115" y1="0.5" y2="30"/><line opacity="0.2" x1="227.0776429060223" x2="227.0776429060223" y1="0.5" y2="30"/><line opacity="0.2" x1="282.1120942673283" x2="282.1120942673283" y1="0.5" y2="30"/><line opacity="0.2" x1="271.26032730845134" x2="271.26032730845134" y1="0.5" y2="30"/><line opacity="0.2" x1="483.265171924955" x2="483.265171924955" y1="0.5" y2="30"/><line opacity="0.2" x1="316.06149538833" x2="316.06149538833" y1="0.5" y2="30"/><line opacity="0.2" x1="423.74551710308083" x2="423.74551710308083" y1="0.5" y2="30"/><line opacity="0.2" x1="247.35395789178213" x2="247.35395789178213" y1="0.5" y2="30"/><line opacity="0.2" x1="390.64612981276935" x2="390.64612981276935" y1="0.5" y2="30"/><line opacity="0.2" x1="441.31113573086674" x2="441.31113573086674" y1="0.5" y2="30"/><line opacity="0.2" x1="245.53189779328383" x2="245.53189779328383" y1="0.5" y2="30"/><line opacity="0.2" x1="306.14606505538086" x2="306.14606505538086" y1="0.5" y2="30"/><line opacity="0.2" x1="458.64357808544503" x2="458.64357808544503" y1="0.5" y2="30"/><line opacity="0.2" x1="218.68665343477068" x2="218.68665343477068" y1="0.5" y2="30"/><line opacity="0.2" x1="338.98023540136944" x2="338.98023540136944" y1="0.5" y2="30"/><line opacity="0.2" x1="349.5558359903837" x2="349.5558359903837" y1="0.5" y2="30"/><line opacity="0.2" x1="275.28985379371755" x2="275.28985379371755" y1="0.5" y2="30"/><line opacity="0.2" x1="338.8724240458748" x2="338.8724240458748" y1="0.5" y2="30"/><line opacity="0.2" x1="398.39479846064955" x2="398.39479846064955" y1="0.5" y2="30"/><line opacity="0.2" x1="392.01968379465666" x2="392.01968379465666" y1="0.5" y2="30"/><line opacity="0.2" x1="159.67662129989316" x2="159.67662129989316" y1="0.5" y2="30"/><line opacity="0.2" x1="336.8985080061548" x2="336.8985080061548" y1="0.5" y2="30"/><line opacity="0.2" x1="309.2521031030007" x2="309.2521031030007" y1="0.5" y2="30"/><line opacity="0.2" x1="387.435847963035" x2="387.435847963035" y1="0.5" y2="30"/><line opacity="0.2" x1="244.89529763038547" x2="244.89529763038547" y1="0.5" y2="30"/><line opacity="0.2" x1="257.0721195555332" x2="257.0721195555332" y1="0.5" y2="30"/><line opacity="0.2" x1="265.2304240006739" x2="265.2304240006739" y1="0.5" y2="30"/><line opacity="0.2" x1="454.90060961525205" x2="454.90060961525205" y1="0.5" y2="30"/><line opacity="0.2" x1="379.8761236973187" x2="379.8761236973187" y1="0.5" y2="30"/><line opacity="0.2" x1="452.0662710809554" x2="452.0662710809554" y1="0.5" y2="30"/><line opacity="0.2" x1="312.14208487602895" x2="312.14208487602895" y1="0.5" y2="30"/><line opacity="0.2" x1="308.14102274429735" x2="308.14102274429735" y1="0.5" y2="30"/><line opacity="0.2" x1="374.7579470816329" x2="374.7579470816329" y1="0.5" y2="30"/><line opacity="0.2" x1="294.5054458723333" x2="294.5054458723333" y1="0.5" y2="30"/><line opacity="0.2" x1="357.2550093854844" x2="357.2550093854844" y1="0.5" y2="30"/><line opacity="0.2" x1="199.01716477181952" x2="199.01716477181952" y1="0.5" y2="30"/><line opacity="0.2" x1="268.8418528486739" x2="268.8418528486739" y1="0.5" y2="30"/><line opacity="0.2" x1="128.70820843561984" x2="128.70820843561984" y1="0.5" y2="30"/><line opacity="0.2" x1="378.69232237503564" x2="378.69232237503564" y1="0.5" y2="30"/><line opacity="0.2" x1="138.41232703743748" x2="138.41232703743748" y1="0.5" y2="30"/><line opacity="0.2" x1="430.20565099380656" x2="430.20565099380656" y1="0.5" y2="30"/><line opacity="0.2" x1="447.131455875748" x2="447.131455875748" y1="0.5" y2="30"/><line opacity="0.2" x1="178.66497636257012" x2="178.66497636257012" y1="0.5" y2="30"/><line opacity="0.2" x1="323.26641720699513" x2="323.26641720699513" y1="0.5" y2="30"/><line opacity="0.2" x1="454.83242753214483" x2="454.83242753214483" y1="0.5" y2="30"/><line opacity="0.2" x1="324.33692537492175" x2="324.33692537492175" y1="0.5" y2="30"/><line opacity="0.2" x1="269.2302656835277" x2="269.2302656835277" y1="0.5" y2="30"/><line opacity="0.2" x1="304.2616953849731" x2="304.2616953849731" y1="0.5" y2="30"/><line opacity="0.2" x1="414.058156027994" x2="414.058156027994" y1="0.5" y2="30"/><line opacity="0.2" x1="237.9076226346673" x2="237.9076226346673" y1="0.5" y2="30"/><line opacity="0.2" x1="292.76517155678295" x2="292.76517155678295" y1="0.5" y2="30"/><line opacity="0.2" x1="323.09722988620365" x2="323.09722988620365" y1="0.5" y2="30"/><line opacity="0.2" x1="531.7352366617307" x2="531.7352366617307" y1="0.5" y2="30"/><line opacity="0.2" x1="509.33377230041" x2="509.33377230041" y1="0.5" y2="30"/><line opacity="0.2" x1="230.53048643518227" x2="230.53048643518227" y1="0.5" y2="30"/><line opacity="0.2" x1="344.76313205469955" x2="344.76313205469955" y1="0.5" y2="30"/><line opacity="0.2" x1="324.19281975984813" x2="324.19281975984813" y1="0.5" y2="30"/><line opacity="0.2" x1="408.9261808216883" x2="408.9261808216883" y1="0.5" y2="30"/><line opacity="0.2" x1="41.50716587387197" x2="41.50716587387197" y1="0.5" y2="30"/><line opacity="0.2" x1="239.6757596051836" x2="239.6757596051836" y1="0.5" y2="30"/><line opacity="0.2" x1="334.84614284333327" x2="334.84614284333327" y1="0.5" y2="30"/><line opacity="0.2" x1="440.7431139545649" x2="440.7431139545649" y1="0.5" y2="30"/><line opacity="0.2" x1="320.2229731944596" x2="320.2229731944596" y1="0.5" y2="30"/><line opacity="0.2" x1="265.07530795197454" x2="265.07530795197454" y1="0.5" y2="30"/><line opacity="0.2" x1="363.0210227553332" x2="363.0210227553332" y1="0.5" y2="30"/><line opacity="0.2" x1="371.7684763006249" x2="371.7684763006249" y1="0.5" y2="30"/></g></svg>