<svg xmlns="http://www.w3.org/2000/svg" xmlns:xlink="http://www.w3.org/1999/xlink" class="plot-13d2bc1c69555" fill="currentColor" font-family="system-ui, sans-serif" font-size="10" text-anchor="middle" width="640" height="60" viewBox="0 0 640 60" style="color: black;"><style>
        .plot-13d2bc1c69555 {
          display: block;
          background: white;
          height: auto;
          height: intrinsic;
          max-width: 100%;
        }
        .plot-13d2bc1c69555 text,
        .plot-13d2bc1c69555 tspan {
          white-space: pre;
        }
      </style><g aria-label="x-axis tick" fill="none" stroke="currentColor" transform="translate(0.5,0)"><path transform="translate(36.15945644343031,30)" d="M0,0L0,6"/><path transform="translate(114.3560776809421,30)" d="M0,0L0,6"/><path transform="translate(192.55269891845387,30)" d="M0,0L0,6"/><path transform="translate(270.7493201559657,30)" d="M0,0L0,6"/><path transform="translate(348.9459413934774,30)" d="M0,0L0,6"/><path transform="translate(427.1425626309892,30)" d="M0,0L0,6"/><path transform="translate(505.3391838685009,30)" d="M0,0L0,6"/><path transform="translate(583.5358051060126,30)" d="M0,0L0,6"/></g><g aria-label="x-axis tick label" font-variant="tabular-nums" transform="translate(0.5,9.5)"><text y="0.71em" transform="translate(36.15945644343031,30)">−3</text><text y="0.71em" transform="translate(114.3560776809421,30)">−2</text><text y="0.71em" transform="translate(192.55269891845387,30)">−1</text><text y="0.71em" transform="translate(270.7493201559657,30)">0</text><text y="0.71em" transform="translate(348.9459413934774,30)">1</text><text y="0.71em" transform="translate(427.1425626309892,30)">2</text><text y="0.71em" transform="translate(505.3391838685009,30)">3</text><text y="0.71em" transform="translate(583.5358051060126,30)">4</text></g><g aria-label="tick" stroke="royalblue" transform="translate(0.5,0)"><line opacity="0.2" x1="336.9580803511018" x2="336.9580803511018" y1="0" y2="30"/><line opacity="0.2" x1="400.00200422487745" x2="400.00200422487745" y1="0" y2="30"/><line opacity="0.2" x1="197.5693692868334" x2="197.5693692868334" y1="0" y2="30"/><line opacity="0.2" x1="275.91672878360276" x2="275.91672878360276" y1="0" y2="30"/><line opacity="0.2" x1="227.33281021957927" x2="227.33281021957927" y1="0" y2="30"/><line opacity="0.2" x1="233.9733794285852" x2="233.9733794285852" y1="0" y2="30"/><line opacity="0.2" x1="182.53695330078037" x2="182.53695330078037" y1="0" y2="30"/><line opacity="0.2" x1="271.10371495910795" x2="271.10371495910795" y1="0" y2="30"/><line opacity="0.2" x1="187.97662647683677" x2="187.97662647683677" y1="0" y2="30"/><line opacity="0.2" x1="349.23452406437474" x2="349.23452406437474" y1="0" y2="30"/><line opacity="0.2" x1="357.7357121125625" x2="357.7357121125625" y1="0" y2="30"/><line opacity="0.2" x1="158.75614602813275" x2="158.75614602813275" y1="0" y2="30"/><line opacity="0.2" x1="160.946858361496" x2="160.946858361496" y1="0" y2="30"/><line opacity="0.2" x1="149.74811448457734" x2="149.74811448457734" y1="0" y2="30"/><line opacity="0.2" x1="372.19975061760226" x2="372.19975061760226" y1="0" y2="30"/><line opacity="0.2" x1="323.80808227309575" x2="323.80808227309575" y1="0" y2="30"/><line opacity="0.2" x1="335.4715959485894" x2="335.4715959485894" y1="0" y2="30"/><line opacity="0.2" x1="278.88554894464" x2="278.88554894464" y1="0" y2="30"/><line opacity="0.2" x1="233.06345168148067" x2="233.06345168148067" y1="0" y2="30"/><line opacity="0.2" x1="414.1084345154949" x2="414.1084345154949" y1="0" y2="30"/><line opacity="0.2" x1="299.2204574629179" x2="299.2204574629179" y1="0" y2="30"/><line opacity="0.2" x1="163.421151556958" x2="163.421151556958" y1="0" y2="30"/><line opacity="0.2" x1="304.03328937222255" x2="304.03328937222255" y1="0" y2="30"/><line opacity="0.2" x1="351.0378273072956" x2="351.0378273072956" y1="0" y2="30"/><line opacity="0.2" x1="234.44613943202958" x2="234.44613943202958" y1="0" y2="30"/><line opacity="0.2" x1="237.00888995086626" x2="237.00888995086626" y1="0" y2="30"/><line opacity="0.2" x1="356.2411579526967" x2="356.2411579526967" y1="0" y2="30"/><line opacity="0.2" x1="450.38148656747865" x2="450.38148656747865" y1="0" y2="30"/><line opacity="0.2" x1="244.51595313610494" x2="244.51595313610494" y1="0" y2="30"/><line opacity="0.2" x1="275.99542357060625" x2="275.99542357060625" y1="0" y2="30"/><line opacity="0.2" x1="369.01301106172133" x2="369.01301106172133" y1="0" y2="30"/><line opacity="0.2" x1="202.38694282129904" x2="202.38694282129904" y1="0" y2="30"/><line opacity="0.2" x1="217.352159217348" x2="217.352159217348" y1="0" y2="30"/><line opacity="0.2" x1="235.75462443713207" x2="235.75462443713207" y1="0" y2="30"/><line opacity="0.2" x1="392.9120160124894" x2="392.9120160124894" y1="0" y2="30"/><line opacity="0.2" x1="322.6503358067052" x2="322.6503358067052" y1="0" y2="30"/><line opacity="0.2" x1="176.42794953555588" x2="176.42794953555588" y1="0" y2="30"/><line opacity="0.2" x1="232.9830913831368" x2="232.9830913831368" y1="0" y2="30"/><line opacity="0.2" x1="185.5508985989522" x2="185.5508985989522" y1="0" y2="30"/><line opacity="0.2" x1="246.04456799029433" x2="246.04456799029433" y1="0" y2="30"/><line opacity="0.2" x1="244.68479125183575" x2="244.68479125183575" y1="0" y2="30"/><line opacity="0.2" x1="437.62839817968086" x2="437.62839817968086" y1="0" y2="30"/><line opacity="0.2" x1="162.4626268405488" x2="162.4626268405488" y1="0" y2="30"/><line opacity="0.2" x1="159.1788689425454" x2="159.1788689425454" y1="0" y2="30"/><line opacity="0.2" x1="267.365689697173" x2="267.365689697173" y1="0" y2="30"/><line opacity="0.2" x1="299.18308156971244" x2="299.18308156971244" y1="0" y2="30"/><line opacity="0.2" x1="201.79310931971796" x2="201.79310931971796" y1="0" y2="30"/><line opacity="0.2" x1="277.688333342873" x2="277.688333342873" y1="0" y2="30"/><line opacity="0.2" x1="54.91768679895835" x2="54.91768679895835" y1="0" y2="30"/><line opacity="0.2" x1="263.3194437925754" x2="263.3194437925754" y1="0" y2="30"/><line opacity="0.2" x1="340.57843437026963" x2="340.57843437026963" y1="0" y2="30"/><line opacity="0.2" x1="247.8903380108787" x2="247.8903380108787" y1="0" y2="30"/><line opacity="0.2" x1="261.9862756580678" x2="261.9862756580678" y1="0" y2="30"/><line opacity="0.2" x1="201.86264067600797" x2="201.86264067600797" y1="0" y2="30"/><line opacity="0.2" x1="132.5663150192572" x2="132.5663150192572" y1="0" y2="30"/><line opacity="0.2" x1="282.69559965925146" x2="282.69559965925146" y1="0" y2="30"/><line opacity="0.2" x1="302.6041645921381" x2="302.6041645921381" y1="0" y2="30"/><line opacity="0.2" x1="254.67794111566815" x2="254.67794111566815" y1="0" y2="30"/><line opacity="0.2" x1="365.9599444097854" x2="365.9599444097854" y1="0" y2="30"/><line opacity="0.2" x1="296.98841738312336" x2="296.98841738312336" y1="0" y2="30"/><line opacity="0.2" x1="386.53803487337206" x2="386.53803487337206" y1="0" y2="30"/><line opacity="0.2" x1="337.4539265822993" x2="337.4539265822993" y1="0" y2="30"/><line opacity="0.2" x1="334.5363873347084" x2="334.5363873347084" y1="0" y2="30"/><line opacity="0.2" x1="261.2920429910079" x2="261.2920429910079" y1="0" y2="30"/><line opacity="0.2" x1="449.33594462595147" x2="449.33594462595147" y1="0" y2="30"/><line opacity="0.2" x1="304.8205859963996" x2="304.8205859963996" y1="0" y2="30"/><line opacity="0.2" x1="231.20272213788272" x2="231.20272213788272" y1="0" y2="30"/><line opacity="0.2" x1="244.85148292823865" x2="244.85148292823865" y1="0" y2="30"/><line opacity="0.2" x1="256.51172035132765" x2="256.51172035132765" y1="0" y2="30"/><line opacity="0.2" x1="284.6046946648236" x2="284.6046946648236" y1="0" y2="30"/><line opacity="0.2" x1="242.0090244640708" x2="242.0090244640708" y1="0" y2="30"/><line opacity="0.2" x1="328.1670103479954" x2="328.1670103479954" y1="0" y2="30"/><line opacity="0.2" x1="204.1036467107161" x2="204.1036467107161" y1="0" y2="30"/><line opacity="0.2" x1="323.26924973571744" x2="323.26924973571744" y1="0" y2="30"/><line opacity="0.2" x1="258.47038578824674" x2="258.47038578824674" y1="0" y2="30"/><line opacity="0.2" x1="224.80550186190396" x2="224.80550186190396" y1="0" y2="30"/><line opacity="0.2" x1="286.62651491923924" x2="286.62651491923924" y1="0" y2="30"/><line opacity="0.2" x1="277.91086481235607" x2="277.91086481235607" y1="0" y2="30"/><line opacity="0.2" x1="300.3552414371536" x2="300.3552414371536" y1="0" y2="30"/><line opacity="0.2" x1="308.46761034690616" x2="308.46761034690616" y1="0" y2="30"/><line opacity="0.2" x1="228.55353349750996" x2="228.55353349750996" y1="0" y2="30"/><line opacity="0.2" x1="277.89556260934734" x2="277.89556260934734" y1="0" y2="30"/><line opacity="0.2" x1="320.20772754810616" x2="320.20772754810616" y1="0" y2="30"/><line opacity="0.2" x1="345.3444532865491" x2="345.3444532865491" y1="0" y2="30"/><line opacity="0.2" x1="262.12964640255757" x2="262.12964640255757" y1="0" y2="30"/><line opacity="0.2" x1="252.97161454842677" x2="252.97161454842677" y1="0" y2="30"/><line opacity="0.2" x1="246.0890032689536" x2="246.0890032689536" y1="0" y2="30"/><line opacity="0.2" x1="203.15227897005792" x2="203.15227897005792" y1="0" y2="30"/><line opacity="0.2" x1="299.73504009652294" x2="299.73504009652294" y1="0" y2="30"/><line opacity="0.2" x1="411.9947678574556" x2="411.9947678574556" y1="0" y2="30"/><line opacity="0.2" x1="191.7885670633399" x2="191.7885670633399" y1="0" y2="30"/><line opacity="0.2" x1="214.1422883706885" x2="214.1422883706885" y1="0" y2="30"/><line opacity="0.2" x1="275.7548409395959" x2="275.7548409395959" y1="0" y2="30"/><line opacity="0.2" x1="207.21924692511618" x2="207.21924692511618" y1="0" y2="30"/><line opacity="0.2" x1="200.74837572913398" x2="200.74837572913398" y1="0" y2="30"/><line opacity="0.2" x1="232.42103234659623" x2="232.42103234659623" y1="0" y2="30"/><line opacity="0.2" x1="203.724575341399" x2="203.724575341399" y1="0" y2="30"/><line opacity="0.2" x1="234.56437671344733" x2="234.56437671344733" y1="0" y2="30"/><line opacity="0.2" x1="264.37956671509784" x2="264.37956671509784" y1="0" y2="30"/><line opacity="0.2" x1="184.96962914094604" x2="184.96962914094604" y1="0" y2="30"/><line opacity="0.2" x1="272.0309492540048" x2="272.0309492540048" y1="0" y2="30"/><line opacity="0.2" x1="268.0338647446351" x2="268.0338647446351" y1="0" y2="30"/><line opacity="0.2" x1="140.52993492723022" x2="140.52993492723022" y1="0" y2="30"/><line opacity="0.2" x1="271.86709482512714" x2="271.86709482512714" y1="0" y2="30"/><line opacity="0.2" x1="172.7723979173581" x2="172.7723979173581" y1="0" y2="30"/><line opacity="0.2" x1="172.22170069271192" x2="172.22170069271192" y1="0" y2="30"/><line opacity="0.2" x1="351.9665693262986" x2="351.9665693262986" y1="0" y2="30"/><line opacity="0.2" x1="251.8778336381307" x2="251.8778336381307" y1="0" y2="30"/><line opacity="0.2" x1="159.90099893100194" x2="159.90099893100194" y1="0" y2="30"/><line opacity="0.2" x1="301.5992557131503" x2="301.5992557131503" y1="0" y2="30"/><line opacity="0.2" x1="225.1352445747131" x2="225.1352445747131" y1="0" y2="30"/><line opacity="0.2" x1="223.5378602813915" x2="223.5378602813915" y1="0" y2="30"/><line opacity="0.2" x1="221.42363013410397" x2="221.42363013410397" y1="0" y2="30"/><line opacity="0.2" x1="222.6681956360951" x2="222.6681956360951" y1="0" y2="30"/><line opacity="0.2" x1="165.96598270473177" x2="165.96598270473177" y1="0" y2="30"/><line opacity="0.2" x1="376.113954322101" x2="376.113954322101" y1="0" y2="30"/><line opacity="0.2" x1="238.62446213388813" x2="238.62446213388813" y1="0" y2="30"/><line opacity="0.2" x1="179.84978015285736" x2="179.84978015285736" y1="0" y2="30"/><line opacity="0.2" x1="177.7544575449929" x2="177.7544575449929" y1="0" y2="30"/><line opacity="0.2" x1="134.585725513612" x2="134.585725513612" y1="0" y2="30"/><line opacity="0.2" x1="203.12896033949755" x2="203.12896033949755" y1="0" y2="30"/><line opacity="0.2" x1="148.08489008512925" x2="148.08489008512925" y1="0" y2="30"/><line opacity="0.2" x1="299.9691410397864" x2="299.9691410397864" y1="0" y2="30"/><line opacity="0.2" x1="247.75204695705878" x2="247.75204695705878" y1="0" y2="30"/><line opacity="0.2" x1="168.02582399811533" x2="168.02582399811533" y1="0" y2="30"/><line opacity="0.2" x1="331.12752633414567" x2="331.12752633414567" y1="0" y2="30"/><line opacity="0.2" x1="245.21272806763298" x2="245.21272806763298" y1="0" y2="30"/><line opacity="0.2" x1="258.47123477886646" x2="258.47123477886646" y1="0" y2="30"/><line opacity="0.2" x1="282.76282267374" x2="282.76282267374" y1="0" y2="30"/><line opacity="0.2" x1="359.43260233769513" x2="359.43260233769513" y1="0" y2="30"/><line opacity="0.2" x1="169.012299906363" x2="169.012299906363" y1="0" y2="30"/><line opacity="0.2" x1="268.4708274107399" x2="268.4708274107399" y1="0" y2="30"/><line opacity="0.2" x1="228.47983044638266" x2="228.47983044638266" y1="0" y2="30"/><line opacity="0.2" x1="286.4759703128759" x2="286.4759703128759" y1="0" y2="30"/><line opacity="0.2" x1="101.87669945967414" x2="101.87669945967414" y1="0" y2="30"/><line opacity="0.2" x1="243.45187880662183" x2="243.45187880662183" y1="0" y2="30"/><line opacity="0.2" x1="170.4744525697892" x2="170.4744525697892" y1="0" y2="30"/><line opacity="0.2" x1="228.4342401775511" x2="228.4342401775511" y1="0" y2="30"/><line opacity="0.2" x1="149.79197788703038" x2="149.79197788703038" y1="0" y2="30"/><line opacity="0.2" x1="415.87051978077164" x2="415.87051978077164" y1="0" y2="30"/><line opacity="0.2" x1="246.81199436216033" x2="246.81199436216033" y1="0" y2="30"/><line opacity="0.2" x1="254.41293911900027" x2="254.41293911900027" y1="0" y2="30"/><line opacity="0.2" x1="298.91115324376983" x2="298.91115324376983" y1="0" y2="30"/><line opacity="0.2" x1="93.50518150165169" x2="93.50518150165169" y1="0" y2="30"/><line opacity="0.2" x1="283.6508124419497" x2="283.6508124419497" y1="0" y2="30"/><line opacity="0.2" x1="202.81639356048657" x2="202.81639356048657" y1="0" y2="30"/><line opacity="0.2" x1="170.58703860584973" x2="170.58703860584973" y1="0" y2="30"/><line opacity="0.2" x1="117.18410916757144" x2="117.18410916757144" y1="0" y2="30"/><line opacity="0.2" x1="262.75968131285356" x2="262.75968131285356" y1="0" y2="30"/><line opacity="0.2" x1="130.35215914379887" x2="130.35215914379887" y1="0" y2="30"/><line opacity="0.2" x1="263.8736765865013" x2="263.8736765865013" y1="0" y2="30"/><line opacity="0.2" x1="258.19009497464333" x2="258.19009497464333" y1="0" y2="30"/><line opacity="0.2" x1="296.1254185240889" x2="296.1254185240889" y1="0" y2="30"/><line opacity="0.2" x1="280.714067946455" x2="280.714067946455" y1="0" y2="30"/><line opacity="0.2" x1="267.77359822562653" x2="267.77359822562653" y1="0" y2="30"/><line opacity="0.2" x1="258.42201999016254" x2="258.42201999016254" y1="0" y2="30"/><line opacity="0.2" x1="321.95434293676976" x2="321.95434293676976" y1="0" y2="30"/><line opacity="0.2" x1="436.1512747304066" x2="436.1512747304066" y1="0" y2="30"/><line opacity="0.2" x1="334.112915291393" x2="334.112915291393" y1="0" y2="30"/><line opacity="0.2" x1="277.5584087339248" x2="277.5584087339248" y1="0" y2="30"/><line opacity="0.2" x1="220.7618035104705" x2="220.7618035104705" y1="0" y2="30"/><line opacity="0.2" x1="329.78368359761566" x2="329.78368359761566" y1="0" y2="30"/><line opacity="0.2" x1="399.79111812848663" x2="399.79111812848663" y1="0" y2="30"/><line opacity="0.2" x1="214.8781869407773" x2="214.8781869407773" y1="0" y2="30"/><line opacity="0.2" x1="270.2436915576746" x2="270.2436915576746" y1="0" y2="30"/><line opacity="0.2" x1="346.86182572940396" x2="346.86182572940396" y1="0" y2="30"/><line opacity="0.2" x1="219.3050302424238" x2="219.3050302424238" y1="0" y2="30"/><line opacity="0.2" x1="313.7723673844364" x2="313.7723673844364" y1="0" y2="30"/><line opacity="0.2" x1="337.68852566942843" x2="337.68852566942843" y1="0" y2="30"/><line opacity="0.2" x1="203.7257641006736" x2="203.7257641006736" y1="0" y2="30"/><line opacity="0.2" x1="128.42657598780085" x2="128.42657598780085" y1="0" y2="30"/><line opacity="0.2" x1="178.11698537519527" x2="178.11698537519527" y1="0" y2="30"/><line opacity="0.2" x1="306.33095354770467" x2="306.33095354770467" y1="0" y2="30"/><line opacity="0.2" x1="201.31621917495943" x2="201.31621917495943" y1="0" y2="30"/><line opacity="0.2" x1="192.45508716031762" x2="192.45508716031762" y1="0" y2="30"/><line opacity="0.2" x1="301.1673407581218" x2="301.1673407581218" y1="0" y2="30"/><line opacity="0.2" x1="385.8489337652506" x2="385.8489337652506" y1="0" y2="30"/><line opacity="0.2" x1="430.2304835594349" x2="430.2304835594349" y1="0" y2="30"/><line opacity="0.2" x1="411.1708700390288" x2="411.1708700390288" y1="0" y2="30"/><line opacity="0.2" x1="311.0605096907341" x2="311.0605096907341" y1="0" y2="30"/><line opacity="0.2" x1="423.7405254659525" x2="423.7405254659525" y1="0" y2="30"/><line opacity="0.2" x1="167.66443842252258" x2="167.66443842252258" y1="0" y2="30"/><line opacity="0.2" x1="288.9052709144215" x2="288.9052709144215" y1="0" y2="30"/><line opacity="0.2" x1="353.50600666735517" x2="353.50600666735517" y1="0" y2="30"/><line opacity="0.2" x1="310.3933148525723" x2="310.3933148525723" y1="0" y2="30"/><line opacity="0.2" x1="236.19760966376953" x2="236.19760966376953" y1="0" y2="30"/><line opacity="0.2" x1="89.39639725651064" x2="89.39639725651064" y1="0" y2="30"/><line opacity="0.2" x1="223.29377377724998" x2="223.29377377724998" y1="0" y2="30"/><line opacity="0.2" x1="279.33298635488563" x2="279.33298635488563" y1="0" y2="30"/><line opacity="0.2" x1="315.2339341692014" x2="315.2339341692014" y1="0" y2="30"/><line opacity="0.2" x1="315.56999043274396" x2="315.56999043274396" y1="0" y2="30"/><line opacity="0.2" x1="305.6252206238391" x2="305.6252206238391" y1="0" y2="30"/><line opacity="0.2" x1="101.83828475526809" x2="101.83828475526809" y1="0" y2="30"/><line opacity="0.2" x1="271.57042065859036" x2="271.57042065859036" y1="0" y2="30"/><line opacity="0.2" x1="287.75413633672184" x2="287.75413633672184" y1="0" y2="30"/><line opacity="0.2" x1="241.76297081651157" x2="241.76297081651157" y1="0" y2="30"/><line opacity="0.2" x1="325.99024945061547" x2="325.99024945061547" y1="0" y2="30"/><line opacity="0.2" x1="302.4303032357871" x2="302.4303032357871" y1="0" y2="30"/><line opacity="0.2" x1="428.0904260734505" x2="428.0904260734505" y1="0" y2="30"/><line opacity="0.2" x1="246.7559141047291" x2="246.7559141047291" y1="0" y2="30"/><line opacity="0.2" x1="251.1513820353923" x2="251.1513820353923" y1="0" y2="30"/><line opacity="0.2" x1="145.37993046024354" x2="145.37993046024354" y1="0" y2="30"/><line opacity="0.2" x1="236.41114955462416" x2="236.41114955462416" y1="0" y2="30"/><line opacity="0.2" x1="87.12165512752819" x2="87.12165512752819" y1="0" y2="30"/><line opacity="0.2" x1="186.55853993897887" x2="186.55853993897887" y1="0" y2="30"/><line opacity="0.2" x1="384.9705605791448" x2="384.9705605791448" y1="0" y2="30"/><line opacity="0.2" x1="296.8497000135202" x2="296.8497000135202" y1="0" y2="30"/><line opacity="0.2" x1="288.2257147591512" x2="288.2257147591512" y1="0" y2="30"/><line opacity="0.2" x1="408.7901552375574" x2="408.7901552375574" y1="0" y2="30"/><line opacity="0.2" x1="147.3078468269613" x2="147.3078468269613" y1="0" y2="30"/><line opacity="0.2" x1="176.98783146163728" x2="176.98783146163728" y1="0" y2="30"/><line opacity="0.2" x1="257.8256990564768" x2="257.8256990564768" y1="0" y2="30"/><line opacity="0.2" x1="328.9765899837849" x2="328.9765899837849" y1="0" y2="30"/><line opacity="0.2" x1="358.3363418285202" x2="358.3363418285202" y1="0" y2="30"/><line opacity="0.2" x1="261.34441333785946" x2="261.34441333785946" y1="0" y2="30"/><line opacity="0.2" x1="267.0374150115189" x2="267.0374150115189" y1="0" y2="30"/><line opacity="0.2" x1="291.8955412776276" x2="291.8955412776276" y1="0" y2="30"/><line opacity="0.2" x1="364.95959353121145" x2="364.95959353121145" y1="0" y2="30"/><line opacity="0.2" x1="257.0940330994852" x2="257.0940330994852" y1="0" y2="30"/><line opacity="0.2" x1="326.77907254151006" x2="326.77907254151006" y1="0" y2="30"/><line opacity="0.2" x1="313.669154679504" x2="313.669154679504" y1="0" y2="30"/><line opacity="0.2" x1="200.84709496792354" x2="200.84709496792354" y1="0" y2="30"/><line opacity="0.2" x1="290.9184761841615" x2="290.9184761841615" y1="0" y2="30"/><line opacity="0.2" x1="229.86524108381624" x2="229.86524108381624" y1="0" y2="30"/><line opacity="0.2" x1="294.8660415499138" x2="294.8660415499138" y1="0" y2="30"/><line opacity="0.2" x1="185.46798515713687" x2="185.46798515713687" y1="0" y2="30"/><line opacity="0.2" x1="232.30113550476912" x2="232.30113550476912" y1="0" y2="30"/><line opacity="0.2" x1="248.44214029840109" x2="248.44214029840109" y1="0" y2="30"/><line opacity="0.2" x1="246.0836614603714" x2="246.0836614603714" y1="0" y2="30"/><line opacity="0.2" x1="187.33263574551523" x2="187.33263574551523" y1="0" y2="30"/><line opacity="0.2" x1="230.0628862653415" x2="230.0628862653415" y1="0" y2="30"/><line opacity="0.2" x1="231.56777840139637" x2="231.56777840139637" y1="0" y2="30"/><line opacity="0.2" x1="175.61826650958022" x2="175.61826650958022" y1="0" y2="30"/><line opacity="0.2" x1="268.1472306418691" x2="268.1472306418691" y1="0" y2="30"/><line opacity="0.2" x1="391.46546035994066" x2="391.46546035994066" y1="0" y2="30"/><line opacity="0.2" x1="392.51960412889275" x2="392.51960412889275" y1="0" y2="30"/><line opacity="0.2" x1="215.28955708895327" x2="215.28955708895327" y1="0" y2="30"/><line opacity="0.2" x1="326.45859923803386" x2="326.45859923803386" y1="0" y2="30"/><line opacity="0.2" x1="329.8799829495633" x2="329.8799829495633" y1="0" y2="30"/><line opacity="0.2" x1="349.58415107767814" x2="349.58415107767814" y1="0" y2="30"/><line opacity="0.2" x1="232.09289119162668" x2="232.09289119162668" y1="0" y2="30"/><line opacity="0.2" x1="205.73848890392242" x2="205.73848890392242" y1="0" y2="30"/><line opacity="0.2" x1="223.99887123144177" x2="223.99887123144177" y1="0" y2="30"/><line opacity="0.2" x1="263.78123492624917" x2="263.78123492624917" y1="0" y2="30"/><line opacity="0.2" x1="323.9676233348991" x2="323.9676233348991" y1="0" y2="30"/><line opacity="0.2" x1="379.7038402768947" x2="379.7038402768947" y1="0" y2="30"/><line opacity="0.2" x1="206.51989572193688" x2="206.51989572193688" y1="0" y2="30"/><line opacity="0.2" x1="252.53148282613904" x2="252.53148282613904" y1="0" y2="30"/><line opacity="0.2" x1="158.01277517712137" x2="158.01277517712137" y1="0" y2="30"/><line opacity="0.2" x1="283.8468856063262" x2="283.8468856063262" y1="0" y2="30"/><line opacity="0.2" x1="260.7127277533602" x2="260.7127277533602" y1="0" y2="30"/><line opacity="0.2" x1="205.15199310918373" x2="205.15199310918373" y1="0" y2="30"/><line opacity="0.2" x1="340.9710928364903" x2="340.9710928364903" y1="0" y2="30"/><line opacity="0.2" x1="212.77725614589892" x2="212.77725614589892" y1="0" y2="30"/><line opacity="0.2" x1="310.1851592069065" x2="310.1851592069065" y1="0" y2="30"/><line opacity="0.2" x1="218.58326293794343" x2="218.58326293794343" y1="0" y2="30"/><line opacity="0.2" x1="410.6786681591433" x2="410.6786681591433" y1="0" y2="30"/><line opacity="0.2" x1="338.44113145928213" x2="338.44113145928213" y1="0" y2="30"/><line opacity="0.2" x1="282.4403779485889" x2="282.4403779485889" y1="0" y2="30"/><line opacity="0.2" x1="369.01885383941004" x2="369.01885383941004" y1="0" y2="30"/><line opacity="0.2" x1="291.12218952048056" x2="291.12218952048056" y1="0" y2="30"/><line opacity="0.2" x1="389.0166330317411" x2="389.0166330317411" y1="0" y2="30"/><line opacity="0.2" x1="272.53362634920245" x2="272.53362634920245" y1="0" y2="30"/><line opacity="0.2" x1="155.36163341642308" x2="155.36163341642308" y1="0" y2="30"/><line opacity="0.2" x1="170.68105929780052" x2="170.68105929780052" y1="0" y2="30"/><line opacity="0.2" x1="269.8584276971688" x2="269.8584276971688" y1="0" y2="30"/><line opacity="0.2" x1="340.0455320211686" x2="340.0455320211686" y1="0" y2="30"/><line opacity="0.2" x1="195.70943915419767" x2="195.70943915419767" y1="0" y2="30"/><line opacity="0.2" x1="140.65261960943934" x2="140.65261960943934" y1="0" y2="30"/><line opacity="0.2" x1="216.52007356488272" x2="216.52007356488272" y1="0" y2="30"/><line opacity="0.2" x1="258.3619528153759" x2="258.3619528153759" y1="0" y2="30"/><line opacity="0.2" x1="117.35760643951797" x2="117.35760643951797" y1="0" y2="30"/><line opacity="0.2" x1="179.35776999150767" x2="179.35776999150767" y1="0" y2="30"/><line opacity="0.2" x1="139.86456335949742" x2="139.86456335949742" y1="0" y2="30"/><line opacity="0.2" x1="363.8538347217426" x2="363.8538347217426" y1="0" y2="30"/><line opacity="0.2" x1="72.09555628948625" x2="72.09555628948625" y1="0" y2="30"/><line opacity="0.2" x1="350.61349866176903" x2="350.61349866176903" y1="0" y2="30"/><line opacity="0.2" x1="412.274648759349" x2="412.274648759349" y1="0" y2="30"/><line opacity="0.2" x1="253.5087981577079" x2="253.5087981577079" y1="0" y2="30"/><line opacity="0.2" x1="354.49959843862365" x2="354.49959843862365" y1="0" y2="30"/><line opacity="0.2" x1="338.8490401760965" x2="338.8490401760965" y1="0" y2="30"/><line opacity="0.2" x1="413.05891505740516" x2="413.05891505740516" y1="0" y2="30"/><line opacity="0.2" x1="291.0799992259841" x2="291.0799992259841" y1="0" y2="30"/><line opacity="0.2" x1="304.81412683949344" x2="304.81412683949344" y1="0" y2="30"/><line opacity="0.2" x1="258.72644786543935" x2="258.72644786543935" y1="0" y2="30"/><line opacity="0.2" x1="367.6906749099407" x2="367.6906749099407" y1="0" y2="30"/><line opacity="0.2" x1="98.91039200285117" x2="98.91039200285117" y1="0" y2="30"/><line opacity="0.2" x1="206.24568635738916" x2="206.24568635738916" y1="0" y2="30"/><line opacity="0.2" x1="190.08925941588964" x2="190.08925941588964" y1="0" y2="30"/><line opacity="0.2" x1="252.98896287680338" x2="252.98896287680338" y1="0" y2="30"/><line opacity="0.2" x1="112.35593411799937" x2="112.35593411799937" y1="0" y2="30"/><line opacity="0.2" x1="302.422197938176" x2="302.422197938176" y1="0" y2="30"/><line opacity="0.2" x1="416.83195782220844" x2="416.83195782220844" y1="0" y2="30"/><line opacity="0.2" x1="420.6930696905832" x2="420.6930696905832" y1="0" y2="30"/><line opacity="0.2" x1="416.24629135424834" x2="416.24629135424834" y1="0" y2="30"/><line opacity="0.2" x1="217.64073166861246" x2="217.64073166861246" y1="0" y2="30"/><line opacity="0.2" x1="279.25561692750165" x2="279.25561692750165" y1="0" y2="30"/><line opacity="0.2" x1="285.79320154264195" x2="285.79320154264195" y1="0" y2="30"/><line opacity="0.2" x1="206.20537775598766" x2="206.20537775598766" y1="0" y2="30"/><line opacity="0.2" x1="295.6383653129683" x2="295.6383653129683" y1="0" y2="30"/><line opacity="0.2" x1="193.95627282760654" x2="193.95627282760654" y1="0" y2="30"/><line opacity="0.2" x1="312.2883243378718" x2="312.2883243378718" y1="0" y2="30"/><line opacity="0.2" x1="260.0362488351859" x2="260.0362488351859" y1="0" y2="30"/><line opacity="0.2" x1="431.8225167270292" x2="431.8225167270292" y1="0" y2="30"/><line opacity="0.2" x1="370.20027465001726" x2="370.20027465001726" y1="0" y2="30"/><line opacity="0.2" x1="322.4182725378846" x2="322.4182725378846" y1="0" y2="30"/><line opacity="0.2" x1="240.26037664431252" x2="240.26037664431252" y1="0" y2="30"/><line opacity="0.2" x1="237.78060687218482" x2="237.78060687218482" y1="0" y2="30"/><line opacity="0.2" x1="289.8746913603006" x2="289.8746913603006" y1="0" y2="30"/><line opacity="0.2" x1="212.7252888380963" x2="212.7252888380963" y1="0" y2="30"/><line opacity="0.2" x1="163.75576660604986" x2="163.75576660604986" y1="0" y2="30"/><line opacity="0.2" x1="182.04149335011763" x2="182.04149335011763" y1="0" y2="30"/><line opacity="0.2" x1="428.95174548174583" x2="428.95174548174583" y1="0" y2="30"/><line opacity="0.2" x1="100.75919195367838" x2="100.75919195367838" y1="0" y2="30"/><line opacity="0.2" x1="295.1640298373162" x2="295.1640298373162" y1="0" y2="30"/><line opacity="0.2" x1="137.04750662338577" x2="137.04750662338577" y1="0" y2="30"/><line opacity="0.2" x1="210.0626058790086" x2="210.0626058790086" y1="0" y2="30"/><line opacity="0.2" x1="264.43701546569116" x2="264.43701546569116" y1="0" y2="30"/><line opacity="0.2" x1="200.06281253486065" x2="200.06281253486065" y1="0" y2="30"/><line opacity="0.2" x1="233.5415874232732" x2="233.5415874232732" y1="0" y2="30"/><line opacity="0.2" x1="78.1973436483429" x2="78.1973436483429" y1="0" y2="30"/><line opacity="0.2" x1="230.01260572384106" x2="230.01260572384106" y1="0" y2="30"/><line opacity="0.2" x1="238.00742382935158" x2="238.00742382935158" y1="0" y2="30"/><line opacity="0.2" x1="283.65098465340424" x2="283.65098465340424" y1="0" y2="30"/><line opacity="0.2" x1="328.1921518649766" x2="328.1921518649766" y1="0" y2="30"/><line opacity="0.2" x1="167.44480007480502" x2="167.44480007480502" y1="0" y2="30"/><line opacity="0.2" x1="382.1213802337644" x2="382.1213802337644" y1="0" y2="30"/><line opacity="0.2" x1="316.64908838220265" x2="316.64908838220265" y1="0" y2="30"/><line opacity="0.2" x1="92.16082925848754" x2="92.16082925848754" y1="0" y2="30"/><line opacity="0.2" x1="245.21760539088012" x2="245.21760539088012" y1="0" y2="30"/><line opacity="0.2" x1="137.57706206361195" x2="137.57706206361195" y1="0" y2="30"/><line opacity="0.2" x1="371.357673470738" x2="371.357673470738" y1="0" y2="30"/><line opacity="0.2" x1="361.97397527788814" x2="361.97397527788814" y1="0" y2="30"/><line opacity="0.2" x1="291.796737880609" x2="291.796737880609" y1="0" y2="30"/><line opacity="0.2" x1="74.90233720468787" x2="74.90233720468787" y1="0" y2="30"/><line opacity="0.2" x1="256.2477492289207" x2="256.2477492289207" y1="0" y2="30"/><line opacity="0.2" x1="195.46736517347614" x2="195.46736517347614" y1="0" y2="30"/><line opacity="0.2" x1="243.21750956505693" x2="243.21750956505693" y1="0" y2="30"/><line opacity="0.2" x1="317.1957441046571" x2="317.1957441046571" y1="0" y2="30"/><line opacity="0.2" x1="189.83530310537228" x2="189.83530310537228" y1="0" y2="30"/><line opacity="0.2" x1="374.63240559998235" x2="374.63240559998235" y1="0" y2="30"/><line opacity="0.2" x1="398.43532353989553" x2="398.43532353989553" y1="0" y2="30"/><line opacity="0.2" x1="312.8703380274291" x2="312.8703380274291" y1="0" y2="30"/><line opacity="0.2" x1="118.52705472959636" x2="118.52705472959636" y1="0" y2="30"/><line opacity="0.2" x1="269.52867202508605" x2="269.52867202508605" y1="0" y2="30"/><line opacity="0.2" x1="214.31038935427375" x2="214.31038935427375" y1="0" y2="30"/><line opacity="0.2" x1="249.69047664529086" x2="249.69047664529086" y1="0" y2="30"/><line opacity="0.2" x1="294.1479142885098" x2="294.1479142885098" y1="0" y2="30"/><line opacity="0.2" x1="151.67664047630007" x2="151.67664047630007" y1="0" y2="30"/><line opacity="0.2" x1="147.71468151936136" x2="147.71468151936136" y1="0" y2="30"/><line opacity="0.2" x1="301.17316707983264" x2="301.17316707983264" y1="0" y2="30"/><line opacity="0.2" x1="379.99906941889475" x2="379.99906941889475" y1="0" y2="30"/><line opacity="0.2" x1="428.1086959837458" x2="428.1086959837458" y1="0" y2="30"/><line opacity="0.2" x1="388.26721285620687" x2="388.26721285620687" y1="0" y2="30"/><line opacity="0.2" x1="295.65115178430915" x2="295.65115178430915" y1="0" y2="30"/><line opacity="0.2" x1="326.34775062738356" x2="326.34775062738356" y1="0" y2="30"/><line opacity="0.2" x1="152.28782858838508" x2="152.28782858838508" y1="0" y2="30"/><line opacity="0.2" x1="325.1733527316653" x2="325.1733527316653" y1="0" y2="30"/><line opacity="0.2" x1="290.6420447007305" x2="290.6420447007305" y1="0" y2="30"/><line opacity="0.2" x1="387.68158074964623" x2="387.68158074964623" y1="0" y2="30"/><line opacity="0.2" x1="351.75929792646633" x2="351.75929792646633" y1="0" y2="30"/><line opacity="0.2" x1="277.04862877701447" x2="277.04862877701447" y1="0" y2="30"/><line opacity="0.2" x1="344.6285605410791" x2="344.6285605410791" y1="0" y2="30"/><line opacity="0.2" x1="270.85247845689173" x2="270.85247845689173" y1="0" y2="30"/><line opacity="0.2" x1="193.8496007946369" x2="193.8496007946369" y1="0" y2="30"/><line opacity="0.2" x1="202.02096079307856" x2="202.02096079307856" y1="0" y2="30"/><line opacity="0.2" x1="353.33902184748143" x2="353.33902184748143" y1="0" y2="30"/><line opacity="0.2" x1="344.4718835084322" x2="344.4718835084322" y1="0" y2="30"/><line opacity="0.2" x1="254.7891594273842" x2="254.7891594273842" y1="0" y2="30"/><line opacity="0.2" x1="75.42784951262739" x2="75.42784951262739" y1="0" y2="30"/><line opacity="0.2" x1="209.453423157349" x2="209.453423157349" y1="0" y2="30"/><line opacity="0.2" x1="295.0276403191758" x2="295.0276403191758" y1="0" y2="30"/><line opacity="0.2" x1="242.6517364712405" x2="242.6517364712405" y1="0" y2="30"/><line opacity="0.2" x1="352.0070134293442" x2="352.0070134293442" y1="0" y2="30"/><line opacity="0.2" x1="301.33836280732766" x2="301.33836280732766" y1="0" y2="30"/><line opacity="0.2" x1="183.76365707572612" x2="183.76365707572612" y1="0" y2="30"/><line opacity="0.2" x1="242.25735961272352" x2="242.25735961272352" y1="0" y2="30"/><line opacity="0.2" x1="420.4056383269201" x2="420.4056383269201" y1="0" y2="30"/><line opacity="0.2" x1="145.35924055600262" x2="145.35924055600262" y1="0" y2="30"/><line opacity="0.2" x1="314.7200524878274" x2="314.7200524878274" y1="0" y2="30"/><line opacity="0.2" x1="260.6005912507369" x2="260.6005912507369" y1="0" y2="30"/><line opacity="0.2" x1="267.9721445451242" x2="267.9721445451242" y1="0" y2="30"/><line opacity="0.2" x1="422.47462659928624" x2="422.47462659928624" y1="0" y2="30"/><line opacity="0.2" x1="284.34091548775694" x2="284.34091548775694" y1="0" y2="30"/><line opacity="0.2" x1="353.79206247544596" x2="353.79206247544596" y1="0" y2="30"/><line opacity="0.2" x1="263.0331500890321" x2="263.0331500890321" y1="0" y2="30"/><line opacity="0.2" x1="366.78177303874764" x2="366.78177303874764" y1="0" y2="30"/><line opacity="0.2" x1="196.50278895313386" x2="196.50278895313386" y1="0" y2="30"/><line opacity="0.2" x1="271.9632430542135" x2="271.9632430542135" y1="0" y2="30"/><line opacity="0.2" x1="308.3445932352804" x2="308.3445932352804" y1="0" y2="30"/><line opacity="0.2" x1="172.91739092939648" x2="172.91739092939648" y1="0" y2="30"/><line opacity="0.2" x1="381.81433765152707" x2="381.81433765152707" y1="0" y2="30"/><line opacity="0.2" x1="161.51078748817534" x2="161.51078748817534" y1="0" y2="30"/><line opacity="0.2" x1="288.09323609536494" x2="288.09323609536494" y1="0" y2="30"/><line opacity="0.2" x1="276.7610341601541" x2="276.7610341601541" y1="0" y2="30"/><line opacity="0.2" x1="338.3203754140749" x2="338.3203754140749" y1="0" y2="30"/><line opacity="0.2" x1="278.5935558176757" x2="278.5935558176757" y1="0" y2="30"/><line opacity="0.2" x1="242.18768283373066" x2="242.18768283373066" y1="0" y2="30"/><line opacity="0.2" x1="287.468337195851" x2="287.468337195851" y1="0" y2="30"/><line opacity="0.2" x1="178.38233633398283" x2="178.38233633398283" y1="0" y2="30"/><line opacity="0.2" x1="353.0308095333777" x2="353.0308095333777" y1="0" y2="30"/><line opacity="0.2" x1="254.47344202924438" x2="254.47344202924438" y1="0" y2="30"/><line opacity="0.2" x1="236.91320301165453" x2="236.91320301165453" y1="0" y2="30"/><line opacity="0.2" x1="149.77568756690397" x2="149.77568756690397" y1="0" y2="30"/><line opacity="0.2" x1="262.23110802162154" x2="262.23110802162154" y1="0" y2="30"/><line opacity="0.2" x1="319.6528577582335" x2="319.6528577582335" y1="0" y2="30"/><line opacity="0.2" x1="296.9424542041081" x2="296.9424542041081" y1="0" y2="30"/><line opacity="0.2" x1="219.75406153792616" x2="219.75406153792616" y1="0" y2="30"/><line opacity="0.2" x1="285.1776518869375" x2="285.1776518869375" y1="0" y2="30"/><line opacity="0.2" x1="268.3154691026798" x2="268.3154691026798" y1="0" y2="30"/><line opacity="0.2" x1="432.4354980812708" x2="432.4354980812708" y1="0" y2="30"/><line opacity="0.2" x1="208.59335093125694" x2="208.59335093125694" y1="0" y2="30"/><line opacity="0.2" x1="185.7882634958679" x2="185.7882634958679" y1="0" y2="30"/><line opacity="0.2" x1="276.9500639541226" x2="276.9500639541226" y1="0" y2="30"/><line opacity="0.2" x1="260.304494477281" x2="260.304494477281" y1="0" y2="30"/><line opacity="0.2" x1="191.48597366766916" x2="191.48597366766916" y1="0" y2="30"/><line opacity="0.2" x1="291.07866045910595" x2="291.07866045910595" y1="0" y2="30"/><line opacity="0.2" x1="221.9756129226584" x2="221.9756129226584" y1="0" y2="30"/><line opacity="0.2" x1="451.88348273819554" x2="451.88348273819554" y1="0" y2="30"/><line opacity="0.2" x1="340.68034135424165" x2="340.68034135424165" y1="0" y2="30"/><line opacity="0.2" x1="267.3997092261868" x2="267.3997092261868" y1="0" y2="30"/><line opacity="0.2" x1="416.7035379830377" x2="416.7035379830377" y1="0" y2="30"/><line opacity="0.2" x1="265.16175099504744" x2="265.16175099504744" y1="0" y2="30"/><line opacity="0.2" x1="297.87940884220666" x2="297.87940884220666" y1="0" y2="30"/><line opacity="0.2" x1="202.33015249216692" x2="202.33015249216692" y1="0" y2="30"/><line opacity="0.2" x1="175.81788566591166" x2="175.81788566591166" y1="0" y2="30"/><line opacity="0.2" x1="181.8340645399075" x2="181.8340645399075" y1="0" y2="30"/><line opacity="0.2" x1="235.84158233828404" x2="235.84158233828404" y1="0" y2="30"/><line opacity="0.2" x1="301.20435235544056" x2="301.20435235544056" y1="0" y2="30"/><line opacity="0.2" x1="456.5452007517976" x2="456.5452007517976" y1="0" y2="30"/><line opacity="0.2" x1="236.73254211712623" x2="236.73254211712623" y1="0" y2="30"/><line opacity="0.2" x1="241.85216720750594" x2="241.85216720750594" y1="0" y2="30"/><line opacity="0.2" x1="257.382672455323" x2="257.382672455323" y1="0" y2="30"/><line opacity="0.2" x1="214.94403952586404" x2="214.94403952586404" y1="0" y2="30"/><line opacity="0.2" x1="237.210610459823" x2="237.210610459823" y1="0" y2="30"/><line opacity="0.2" x1="244.962959327203" x2="244.962959327203" y1="0" y2="30"/><line opacity="0.2" x1="312.48540682739184" x2="312.48540682739184" y1="0" y2="30"/><line opacity="0.2" x1="229.61884543046037" x2="229.61884543046037" y1="0" y2="30"/><line opacity="0.2" x1="366.0459355612196" x2="366.0459355612196" y1="0" y2="30"/><line opacity="0.2" x1="274.2108124954484" x2="274.2108124954484" y1="0" y2="30"/><line opacity="0.2" x1="441.624027301181" x2="441.624027301181" y1="0" y2="30"/><line opacity="0.2" x1="241.53671242767717" x2="241.53671242767717" y1="0" y2="30"/><line opacity="0.2" x1="306.5173672117867" x2="306.5173672117867" y1="0" y2="30"/><line opacity="0.2" x1="350.66909475118433" x2="350.66909475118433" y1="0" y2="30"/><line opacity="0.2" x1="373.08708795981073" x2="373.08708795981073" y1="0" y2="30"/><line opacity="0.2" x1="319.96779664317813" x2="319.96779664317813" y1="0" y2="30"/><line opacity="0.2" x1="118.0080965434014" x2="118.0080965434014" y1="0" y2="30"/><line opacity="0.2" x1="267.2998585000152" x2="267.2998585000152" y1="0" y2="30"/><line opacity="0.2" x1="253.1075490009792" x2="253.1075490009792" y1="0" y2="30"/><line opacity="0.2" x1="195.5354725614089" x2="195.5354725614089" y1="0" y2="30"/><line opacity="0.2" x1="320.3226860609399" x2="320.3226860609399" y1="0" y2="30"/><line opacity="0.2" x1="348.5647182331274" x2="348.5647182331274" y1="0" y2="30"/><line opacity="0.2" x1="237.42242740269614" x2="237.42242740269614" y1="0" y2="30"/><line opacity="0.2" x1="199.91824089665903" x2="199.91824089665903" y1="0" y2="30"/><line opacity="0.2" x1="150.38963808817516" x2="150.38963808817516" y1="0" y2="30"/><line opacity="0.2" x1="175.39484242678662" x2="175.39484242678662" y1="0" y2="30"/><line opacity="0.2" x1="274.52387968152664" x2="274.52387968152664" y1="0" y2="30"/><line opacity="0.2" x1="329.7601370989811" x2="329.7601370989811" y1="0" y2="30"/><line opacity="0.2" x1="217.41808500362478" x2="217.41808500362478" y1="0" y2="30"/><line opacity="0.2" x1="210.51085959038866" x2="210.51085959038866" y1="0" y2="30"/><line opacity="0.2" x1="186.4989580496631" x2="186.4989580496631" y1="0" y2="30"/><line opacity="0.2" x1="279.5670058263467" x2="279.5670058263467" y1="0" y2="30"/><line opacity="0.2" x1="245.69639406622537" x2="245.69639406622537" y1="0" y2="30"/><line opacity="0.2" x1="330.99303521453845" x2="330.99303521453845" y1="0" y2="30"/><line opacity="0.2" x1="215.3870839722802" x2="215.3870839722802" y1="0" y2="30"/><line opacity="0.2" x1="418.8062426142435" x2="418.8062426142435" y1="0" y2="30"/><line opacity="0.2" x1="170.17192225646022" x2="170.17192225646022" y1="0" y2="30"/><line opacity="0.2" x1="190.22256196876637" x2="190.22256196876637" y1="0" y2="30"/><line opacity="0.2" x1="270.7753356548262" x2="270.7753356548262" y1="0" y2="30"/><line opacity="0.2" x1="274.499076393357" x2="274.499076393357" y1="0" y2="30"/><line opacity="0.2" x1="310.1822373598455" x2="310.1822373598455" y1="0" y2="30"/><line opacity="0.2" x1="207.72729558869474" x2="207.72729558869474" y1="0" y2="30"/><line opacity="0.2" x1="175.21907703589625" x2="175.21907703589625" y1="0" y2="30"/><line opacity="0.2" x1="231.06163712282876" x2="231.06163712282876" y1="0" y2="30"/><line opacity="0.2" x1="219.8038074407661" x2="219.8038074407661" y1="0" y2="30"/><line opacity="0.2" x1="150.89247671204333" x2="150.89247671204333" y1="0" y2="30"/><line opacity="0.2" x1="406.3276152625547" x2="406.3276152625547" y1="0" y2="30"/><line opacity="0.2" x1="206.65617588361062" x2="206.65617588361062" y1="0" y2="30"/><line opacity="0.2" x1="154.9662213799149" x2="154.9662213799149" y1="0" y2="30"/><line opacity="0.2" x1="220.59570635486057" x2="220.59570635486057" y1="0" y2="30"/><line opacity="0.2" x1="254.10871847356438" x2="254.10871847356438" y1="0" y2="30"/><line opacity="0.2" x1="160.57797064445302" x2="160.57797064445302" y1="0" y2="30"/><line opacity="0.2" x1="238.64808996593263" x2="238.64808996593263" y1="0" y2="30"/><line opacity="0.2" x1="388.9007390366142" x2="388.9007390366142" y1="0" y2="30"/><line opacity="0.2" x1="292.2689928917487" x2="292.2689928917487" y1="0" y2="30"/><line opacity="0.2" x1="313.6416956218927" x2="313.6416956218927" y1="0" y2="30"/><line opacity="0.2" x1="280.46732718324466" x2="280.46732718324466" y1="0" y2="30"/><line opacity="0.2" x1="298.10335811833255" x2="298.10335811833255" y1="0" y2="30"/><line opacity="0.2" x1="364.7412315361287" x2="364.7412315361287" y1="0" y2="30"/><line opacity="0.2" x1="361.05102946099544" x2="361.05102946099544" y1="0" y2="30"/><line opacity="0.2" x1="383.292929517781" x2="383.292929517781" y1="0" y2="30"/><line opacity="0.2" x1="298.3276985813737" x2="298.3276985813737" y1="0" y2="30"/><line opacity="0.2" x1="336.303350450124" x2="336.303350450124" y1="0" y2="30"/><line opacity="0.2" x1="171.63715258637018" x2="171.63715258637018" y1="0" y2="30"/><line opacity="0.2" x1="251.5938238973252" x2="251.5938238973252" y1="0" y2="30"/><line opacity="0.2" x1="312.70089795447774" x2="312.70089795447774" y1="0" y2="30"/><line opacity="0.2" x1="214.59173993007494" x2="214.59173993007494" y1="0" y2="30"/><line opacity="0.2" x1="211.2280179253701" x2="211.2280179253701" y1="0" y2="30"/><line opacity="0.2" x1="178.63939873884686" x2="178.63939873884686" y1="0" y2="30"/><line opacity="0.2" x1="250.29795868943347" x2="250.29795868943347" y1="0" y2="30"/><line opacity="0.2" x1="383.77859579293147" x2="383.77859579293147" y1="0" y2="30"/><line opacity="0.2" x1="286.73017908413647" x2="286.73017908413647" y1="0" y2="30"/><line opacity="0.2" x1="153.67190086353855" x2="153.67190086353855" y1="0" y2="30"/><line opacity="0.2" x1="407.50664575540947" x2="407.50664575540947" y1="0" y2="30"/><line opacity="0.2" x1="432.5000944275048" x2="432.5000944275048" y1="0" y2="30"/><line opacity="0.2" x1="280.5749445642188" x2="280.5749445642188" y1="0" y2="30"/><line opacity="0.2" x1="259.26220986962664" x2="259.26220986962664" y1="0" y2="30"/><line opacity="0.2" x1="382.6831236859528" x2="382.6831236859528" y1="0" y2="30"/><line opacity="0.2" x1="320.4727950528442" x2="320.4727950528442" y1="0" y2="30"/><line opacity="0.2" x1="276.22422673577165" x2="276.22422673577165" y1="0" y2="30"/><line opacity="0.2" x1="237.0191904590078" x2="237.0191904590078" y1="0" y2="30"/><line opacity="0.2" x1="362.3868700527055" x2="362.3868700527055" y1="0" y2="30"/><line opacity="0.2" x1="309.5900255700316" x2="309.5900255700316" y1="0" y2="30"/><line opacity="0.2" x1="336.14790320786847" x2="336.14790320786847" y1="0" y2="30"/><line opacity="0.2" x1="366.7347555059162" x2="366.7347555059162" y1="0" y2="30"/><line opacity="0.2" x1="284.37121335555605" x2="284.37121335555605" y1="0" y2="30"/><line opacity="0.2" x1="169.81695141233442" x2="169.81695141233442" y1="0" y2="30"/><line opacity="0.2" x1="272.67215046035426" x2="272.67215046035426" y1="0" y2="30"/><line opacity="0.2" x1="217.20977901238524" x2="217.20977901238524" y1="0" y2="30"/><line opacity="0.2" x1="204.7094334282428" x2="204.7094334282428" y1="0" y2="30"/><line opacity="0.2" x1="111.33659711847159" x2="111.33659711847159" y1="0" y2="30"/><line opacity="0.2" x1="290.2880152016163" x2="290.2880152016163" y1="0" y2="30"/><line opacity="0.2" x1="306.14461444188044" x2="306.14461444188044" y1="0" y2="30"/><line opacity="0.2" x1="154.57783082340788" x2="154.57783082340788" y1="0" y2="30"/><line opacity="0.2" x1="213.10526438741334" x2="213.10526438741334" y1="0" y2="30"/><line opacity="0.2" x1="226.23735310186376" x2="226.23735310186376" y1="0" y2="30"/><line opacity="0.2" x1="179.69310812644895" x2="179.69310812644895" y1="0" y2="30"/><line opacity="0.2" x1="282.2853603016582" x2="282.2853603016582" y1="0" y2="30"/><line opacity="0.2" x1="256.07637256860085" x2="256.07637256860085" y1="0" y2="30"/><line opacity="0.2" x1="351.00775049780515" x2="351.00775049780515" y1="0" y2="30"/><line opacity="0.2" x1="267.5297822603755" x2="267.5297822603755" y1="0" y2="30"/><line opacity="0.2" x1="190.21478055614796" x2="190.21478055614796" y1="0" y2="30"/><line opacity="0.2" x1="219.6017350667108" x2="219.6017350667108" y1="0" y2="30"/><line opacity="0.2" x1="283.87049492539774" x2="283.87049492539774" y1="0" y2="30"/><line opacity="0.2" x1="214.30425962030918" x2="214.30425962030918" y1="0" y2="30"/><line opacity="0.2" x1="258.31530162855773" x2="258.31530162855773" y1="0" y2="30"/><line opacity="0.2" x1="127.62121687566975" x2="127.62121687566975" y1="0" y2="30"/><line opacity="0.2" x1="221.3158333442814" x2="221.3158333442814" y1="0" y2="30"/><line opacity="0.2" x1="300.6123322869067" x2="300.6123322869067" y1="0" y2="30"/><line opacity="0.2" x1="337.76692321620226" x2="337.76692321620226" y1="0" y2="30"/><line opacity="0.2" x1="361.0992351703161" x2="361.0992351703161" y1="0" y2="30"/><line opacity="0.2" x1="389.8912669710698" x2="389.8912669710698" y1="0" y2="30"/><line opacity="0.2" x1="343.9505337631019" x2="343.9505337631019" y1="0" y2="30"/><line opacity="0.2" x1="306.31699558321316" x2="306.31699558321316" y1="0" y2="30"/><line opacity="0.2" x1="306.12008718090266" x2="306.12008718090266" y1="0" y2="30"/><line opacity="0.2" x1="301.69927125734176" x2="301.69927125734176" y1="0" y2="30"/><line opacity="0.2" x1="350.0398678927627" x2="350.0398678927627" y1="0" y2="30"/><line opacity="0.2" x1="341.9141155516576" x2="341.9141155516576" y1="0" y2="30"/><line opacity="0.2" x1="278.4766906485362" x2="278.4766906485362" y1="0" y2="30"/><line opacity="0.2" x1="262.947477937419" x2="262.947477937419" y1="0" y2="30"/><line opacity="0.2" x1="245.3728058754577" x2="245.3728058754577" y1="0" y2="30"/><line opacity="0.2" x1="286.0887763179938" x2="286.0887763179938" y1="0" y2="30"/><line opacity="0.2" x1="339.5898594885142" x2="339.5898594885142" y1="0" y2="30"/><line opacity="0.2" x1="206.51399145579927" x2="206.51399145579927" y1="0" y2="30"/><line opacity="0.2" x1="277.33350213921545" x2="277.33350213921545" y1="0" y2="30"/><line opacity="0.2" x1="186.20900262292807" x2="186.20900262292807" y1="0" y2="30"/><line opacity="0.2" x1="187.05681275445542" x2="187.05681275445542" y1="0" y2="30"/><line opacity="0.2" x1="390.26880675601717" x2="390.26880675601717" y1="0" y2="30"/><line opacity="0.2" x1="284.50543280263093" x2="284.50543280263093" y1="0" y2="30"/><line opacity="0.2" x1="152.75565372138604" x2="152.75565372138604" y1="0" y2="30"/><line opacity="0.2" x1="367.58751140104613" x2="367.58751140104613" y1="0" y2="30"/><line opacity="0.2" x1="411.42886249517574" x2="411.42886249517574" y1="0" y2="30"/><line opacity="0.2" x1="185.81333925079866" x2="185.81333925079866" y1="0" y2="30"/><line opacity="0.2" x1="298.60203180052645" x2="298.60203180052645" y1="0" y2="30"/><line opacity="0.2" x1="287.4657663876625" x2="287.4657663876625" y1="0" y2="30"/><line opacity="0.2" x1="279.0142378645224" x2="279.0142378645224" y1="0" y2="30"/><line opacity="0.2" x1="282.49722594482273" x2="282.49722594482273" y1="0" y2="30"/><line opacity="0.2" x1="341.4588755275969" x2="341.4588755275969" y1="0" y2="30"/><line opacity="0.2" x1="233.23513154232324" x2="233.23513154232324" y1="0" y2="30"/><line opacity="0.2" x1="272.48404110789005" x2="272.48404110789005" y1="0" y2="30"/><line opacity="0.2" x1="304.6628063776185" x2="304.6628063776185" y1="0" y2="30"/><line opacity="0.2" x1="231.1861044311071" x2="231.1861044311071" y1="0" y2="30"/><line opacity="0.2" x1="170.95048784730523" x2="170.95048784730523" y1="0" y2="30"/><line opacity="0.2" x1="126.69557379165039" x2="126.69557379165039" y1="0" y2="30"/><line opacity="0.2" x1="193.5880478204127" x2="193.5880478204127" y1="0" y2="30"/><line opacity="0.2" x1="321.5650680169631" x2="321.5650680169631" y1="0" y2="30"/><line opacity="0.2" x1="322.6202458722763" x2="322.6202458722763" y1="0" y2="30"/><line opacity="0.2" x1="215.26467755885596" x2="215.26467755885596" y1="0" y2="30"/><line opacity="0.2" x1="305.15599726341327" x2="305.15599726341327" y1="0" y2="30"/><line opacity="0.2" x1="307.9002401264729" x2="307.9002401264729" y1="0" y2="30"/><line opacity="0.2" x1="120.05407694811989" x2="120.05407694811989" y1="0" y2="30"/><line opacity="0.2" x1="118.29437744214746" x2="118.29437744214746" y1="0" y2="30"/><line opacity="0.2" x1="278.97008226445985" x2="278.97008226445985" y1="0" y2="30"/><line opacity="0.2" x1="233.02800937683006" x2="233.02800937683006" y1="0" y2="30"/><line opacity="0.2" x1="292.75180297760363" x2="292.75180297760363" y1="0" y2="30"/><line opacity="0.2" x1="230.10521512879532" x2="230.10521512879532" y1="0" y2="30"/><line opacity="0.2" x1="341.2881736501584" x2="341.2881736501584" y1="0" y2="30"/><line opacity="0.2" x1="304.5278689771382" x2="304.5278689771382" y1="0" y2="30"/><line opacity="0.2" x1="140.41472952615567" x2="140.41472952615567" y1="0" y2="30"/><line opacity="0.2" x1="361.39384829217204" x2="361.39384829217204" y1="0" y2="30"/><line opacity="0.2" x1="159.6207140644998" x2="159.6207140644998" y1="0" y2="30"/><line opacity="0.2" x1="148.1331740780246" x2="148.1331740780246" y1="0" y2="30"/><line opacity="0.2" x1="157.53137019238704" x2="157.53137019238704" y1="0" y2="30"/><line opacity="0.2" x1="314.6231311088107" x2="314.6231311088107" y1="0" y2="30"/><line opacity="0.2" x1="320.1670991189878" x2="320.1670991189878" y1="0" y2="30"/><line opacity="0.2" x1="299.55108555104215" x2="299.55108555104215" y1="0" y2="30"/><line opacity="0.2" x1="206.55059183830292" x2="206.55059183830292" y1="0" y2="30"/><line opacity="0.2" x1="263.240000704688" x2="263.240000704688" y1="0" y2="30"/><line opacity="0.2" x1="229.1744791537524" x2="229.1744791537524" y1="0" y2="30"/><line opacity="0.2" x1="328.3280106059469" x2="328.3280106059469" y1="0" y2="30"/><line opacity="0.2" x1="283.365322793513" x2="283.365322793513" y1="0" y2="30"/><line opacity="0.2" x1="315.15497698068924" x2="315.15497698068924" y1="0" y2="30"/><line opacity="0.2" x1="238.2340054215163" x2="238.2340054215163" y1="0" y2="30"/><line opacity="0.2" x1="234.52133147833638" x2="234.52133147833638" y1="0" y2="30"/><line opacity="0.2" x1="288.16449374877044" x2="288.16449374877044" y1="0" y2="30"/><line opacity="0.2" x1="131.24864220598187" x2="131.24864220598187" y1="0" y2="30"/><line opacity="0.2" x1="290.70264378834355" x2="290.70264378834355" y1="0" y2="30"/><line opacity="0.2" x1="208.18303386060265" x2="208.18303386060265" y1="0" y2="30"/><line opacity="0.2" x1="145.53473258755085" x2="145.53473258755085" y1="0" y2="30"/><line opacity="0.2" x1="422.4034824523479" x2="422.4034824523479" y1="0" y2="30"/><line opacity="0.2" x1="407.7809436436207" x2="407.7809436436207" y1="0" y2="30"/><line opacity="0.2" x1="305.83619439148583" x2="305.83619439148583" y1="0" y2="30"/><line opacity="0.2" x1="296.2250034876847" x2="296.2250034876847" y1="0" y2="30"/><line opacity="0.2" x1="269.7882458866456" x2="269.7882458866456" y1="0" y2="30"/><line opacity="0.2" x1="316.6741587527154" x2="316.6741587527154" y1="0" y2="30"/><line opacity="0.2" x1="237.7202782774376" x2="237.7202782774376" y1="0" y2="30"/><line opacity="0.2" x1="307.9323067026398" x2="307.9323067026398" y1="0" y2="30"/><line opacity="0.2" x1="244.4135845657698" x2="244.4135845657698" y1="0" y2="30"/><line opacity="0.2" x1="283.22107245039615" x2="283.22107245039615" y1="0" y2="30"/><line opacity="0.2" x1="207.52121146483336" x2="207.52121146483336" y1="0" y2="30"/><line opacity="0.2" x1="203.96143269020027" x2="203.96143269020027" y1="0" y2="30"/><line opacity="0.2" x1="259.2950533756748" x2="259.2950533756748" y1="0" y2="30"/><line opacity="0.2" x1="193.49043281081524" x2="193.49043281081524" y1="0" y2="30"/><line opacity="0.2" x1="305.86058477726976" x2="305.86058477726976" y1="0" y2="30"/><line opacity="0.2" x1="338.2815405771694" x2="338.2815405771694" y1="0" y2="30"/><line opacity="0.2" x1="168.15211694131568" x2="168.15211694131568" y1="0" y2="30"/><line opacity="0.2" x1="303.51106979743525" x2="303.51106979743525" y1="0" y2="30"/><line opacity="0.2" x1="217.48329483063858" x2="217.48329483063858" y1="0" y2="30"/><line opacity="0.2" x1="320.0771342541706" x2="320.0771342541706" y1="0" y2="30"/><line opacity="0.2" x1="210.39905932571915" x2="210.39905932571915" y1="0" y2="30"/><line opacity="0.2" x1="277.7984506188011" x2="277.7984506188011" y1="0" y2="30"/><line opacity="0.2" x1="223.23943474751493" x2="223.23943474751493" y1="0" y2="30"/><line opacity="0.2" x1="335.2522340962462" x2="335.2522340962462" y1="0" y2="30"/><line opacity="0.2" x1="248.46804421690027" x2="248.46804421690027" y1="0" y2="30"/><line opacity="0.2" x1="429.87983709993625" x2="429.87983709993625" y1="0" y2="30"/><line opacity="0.2" x1="196.51030003233745" x2="196.51030003233745" y1="0" y2="30"/><line opacity="0.2" x1="195.5256942748517" x2="195.5256942748517" y1="0" y2="30"/><line opacity="0.2" x1="218.49001962836678" x2="218.49001962836678" y1="0" y2="30"/><line opacity="0.2" x1="407.29927150788126" x2="407.29927150788126" y1="0" y2="30"/><line opacity="0.2" x1="306.7896593617758" x2="306.7896593617758" y1="0" y2="30"/><line opacity="0.2" x1="260.2540325546656" x2="260.2540325546656" y1="0" y2="30"/><line opacity="0.2" x1="228.93365696890618" x2="228.93365696890618" y1="0" y2="30"/><line opacity="0.2" x1="218.7145422690728" x2="218.7145422690728" y1="0" y2="30"/><line opacity="0.2" x1="186.99385917412022" x2="186.99385917412022" y1="0" y2="30"/><line opacity="0.2" x1="361.6163966038307" x2="361.6163966038307" y1="0" y2="30"/><line opacity="0.2" x1="298.3282872616014" x2="298.3282872616014" y1="0" y2="30"/><line opacity="0.2" x1="318.8095923637836" x2="318.8095923637836" y1="0" y2="30"/><line opacity="0.2" x1="314.9565609400221" x2="314.9565609400221" y1="0" y2="30"/><line opacity="0.2" x1="381.3697017500165" x2="381.3697017500165" y1="0" y2="30"/><line opacity="0.2" x1="224.86767698915597" x2="224.86767698915597" y1="0" y2="30"/><line opacity="0.2" x1="310.5332719179382" x2="310.5332719179382" y1="0" y2="30"/><line opacity="0.2" x1="244.5979244574883" x2="244.5979244574883" y1="0" y2="30"/><line opacity="0.2" x1="330.71512565501087" x2="330.71512565501087" y1="0" y2="30"/><line opacity="0.2" x1="342.6526235542029" x2="342.6526235542029" y1="0" y2="30"/><line opacity="0.2" x1="325.2665590974678" x2="325.2665590974678" y1="0" y2="30"/><line opacity="0.2" x1="137.63953384409677" x2="137.63953384409677" y1="0" y2="30"/><line opacity="0.2" x1="268.1137188373556" x2="268.1137188373556" y1="0" y2="30"/><line opacity="0.2" x1="188.63102955361626" x2="188.63102955361626" y1="0" y2="30"/><line opacity="0.2" x1="225.44745804288536" x2="225.44745804288536" y1="0" y2="30"/><line opacity="0.2" x1="133.9630541557978" x2="133.9630541557978" y1="0" y2="30"/><line opacity="0.2" x1="246.179228187749" x2="246.179228187749" y1="0" y2="30"/><line opacity="0.2" x1="373.8503183920066" x2="373.8503183920066" y1="0" y2="30"/><line opacity="0.2" x1="277.90133499078667" x2="277.90133499078667" y1="0" y2="30"/><line opacity="0.2" x1="205.13281650099952" x2="205.13281650099952" y1="0" y2="30"/><line opacity="0.2" x1="191.0663718276073" x2="191.0663718276073" y1="0" y2="30"/><line opacity="0.2" x1="354.54377740144827" x2="354.54377740144827" y1="0" y2="30"/><line opacity="0.2" x1="254.6017723376919" x2="254.6017723376919" y1="0" y2="30"/><line opacity="0.2" x1="185.5122623062108" x2="185.5122623062108" y1="0" y2="30"/><line opacity="0.2" x1="379.82555443539684" x2="379.82555443539684" y1="0" y2="30"/><line opacity="0.2" x1="312.379300933879" x2="312.379300933879" y1="0" y2="30"/><line opacity="0.2" x1="336.1225757355097" x2="336.1225757355097" y1="0" y2="30"/><line opacity="0.2" x1="300.9233028398987" x2="300.9233028398987" y1="0" y2="30"/><line opacity="0.2" x1="335.16250018207325" x2="335.16250018207325" y1="0" y2="30"/><line opacity="0.2" x1="237.77492753401384" x2="237.77492753401384" y1="0" y2="30"/><line opacity="0.2" x1="316.7437768761588" x2="316.7437768761588" y1="0" y2="30"/><line opacity="0.2" x1="354.57500750066373" x2="354.57500750066373" y1="0" y2="30"/><line opacity="0.2" x1="323.4872409204899" x2="323.4872409204899" y1="0" y2="30"/><line opacity="0.2" x1="184.49918087717663" x2="184.49918087717663" y1="0" y2="30"/><line opacity="0.2" x1="287.2844183549155" x2="287.2844183549155" y1="0" y2="30"/><line opacity="0.2" x1="406.70797551180146" x2="406.70797551180146" y1="0" y2="30"/><line opacity="0.2" x1="296.6659435510881" x2="296.6659435510881" y1="0" y2="30"/><line opacity="0.2" x1="362.54279075504513" x2="362.54279075504513" y1="0" y2="30"/><line opacity="0.2" x1="258.0428707125649" x2="258.0428707125649" y1="0" y2="30"/><line opacity="0.2" x1="278.8416752514458" x2="278.8416752514458" y1="0" y2="30"/><line opacity="0.2" x1="349.92680276061174" x2="349.92680276061174" y1="0" y2="30"/><line opacity="0.2" x1="165.6257302061353" x2="165.6257302061353" y1="0" y2="30"/><line opacity="0.2" x1="345.7863583354452" x2="345.7863583354452" y1="0" y2="30"/><line opacity="0.2" x1="259.6113990461478" x2="259.6113990461478" y1="0" y2="30"/><line opacity="0.2" x1="255.9669740478793" x2="255.9669740478793" y1="0" y2="30"/><line opacity="0.2" x1="368.4060588095294" x2="368.4060588095294" y1="0" y2="30"/><line opacity="0.2" x1="253.42418786306214" x2="253.42418786306214" y1="0" y2="30"/><line opacity="0.2" x1="271.6717292584822" x2="271.6717292584822" y1="0" y2="30"/><line opacity="0.2" x1="275.55851549876326" x2="275.55851549876326" y1="0" y2="30"/><line opacity="0.2" x1="305.33801499815036" x2="305.33801499815036" y1="0" y2="30"/><line opacity="0.2" x1="238.60319238675498" x2="238.60319238675498" y1="0" y2="30"/><line opacity="0.2" x1="308.3377417852419" x2="308.3377417852419" y1="0" y2="30"/><line opacity="0.2" x1="263.29233366182933" x2="263.29233366182933" y1="0" y2="30"/><line opacity="0.2" x1="82.38949925493861" x2="82.38949925493861" y1="0" y2="30"/><line opacity="0.2" x1="264.7583986858902" x2="264.7583986858902" y1="0" y2="30"/><line opacity="0.2" x1="147.66272273132404" x2="147.66272273132404" y1="0" y2="30"/><line opacity="0.2" x1="149.48298581110055" x2="149.48298581110055" y1="0" y2="30"/><line opacity="0.2" x1="208.20323924218866" x2="208.20323924218866" y1="0" y2="30"/><line opacity="0.2" x1="360.0160018471331" x2="360.0160018471331" y1="0" y2="30"/><line opacity="0.2" x1="321.21273165405887" x2="321.21273165405887" y1="0" y2="30"/><line opacity="0.2" x1="231.85401953495722" x2="231.85401953495722" y1="0" y2="30"/><line opacity="0.2" x1="453.6436485483691" x2="453.6436485483691" y1="0" y2="30"/><line opacity="0.2" x1="218.36545630521496" x2="218.36545630521496" y1="0" y2="30"/><line opacity="0.2" x1="282.2056108481353" x2="282.2056108481353" y1="0" y2="30"/><line opacity="0.2" x1="110.37383778323161" x2="110.37383778323161" y1="0" y2="30"/><line opacity="0.2" x1="239.39976173910338" x2="239.39976173910338" y1="0" y2="30"/><line opacity="0.2" x1="124.68997396525234" x2="124.68997396525234" y1="0" y2="30"/><line opacity="0.2" x1="177.00615315962384" x2="177.00615315962384" y1="0" y2="30"/><line opacity="0.2" x1="373.3293972478013" x2="373.3293972478013" y1="0" y2="30"/><line opacity="0.2" x1="222.5523391251471" x2="222.5523391251471" y1="0" y2="30"/><line opacity="0.2" x1="336.7657228405795" x2="336.7657228405795" y1="0" y2="30"/><line opacity="0.2" x1="272.5912803121494" x2="272.5912803121494" y1="0" y2="30"/><line opacity="0.2" x1="275.25181161848326" x2="275.25181161848326" y1="0" y2="30"/><line opacity="0.2" x1="195.02497626197754" x2="195.02497626197754" y1="0" y2="30"/><line opacity="0.2" x1="196.64003092846318" x2="196.64003092846318" y1="0" y2="30"/><line opacity="0.2" x1="255.75379634135754" x2="255.75379634135754" y1="0" y2="30"/><line opacity="0.2" x1="391.57249894471397" x2="391.57249894471397" y1="0" y2="30"/><line opacity="0.2" x1="325.0729204821197" x2="325.0729204821197" y1="0" y2="30"/><line opacity="0.2" x1="289.2228687396906" x2="289.2228687396906" y1="0" y2="30"/><line opacity="0.2" x1="290.3353232826883" x2="290.3353232826883" y1="0" y2="30"/><line opacity="0.2" x1="258.4020097233498" x2="258.4020097233498" y1="0" y2="30"/><line opacity="0.2" x1="359.56286875622664" x2="359.56286875622664" y1="0" y2="30"/><line opacity="0.2" x1="260.84504630758073" x2="260.84504630758073" y1="0" y2="30"/><line opacity="0.2" x1="620" x2="620" y1="0" y2="30"/><line opacity="0.2" x1="230.4465688684277" x2="230.4465688684277" y1="0" y2="30"/><line opacity="0.2" x1="277.2577799369598" x2="277.2577799369598" y1="0" y2="30"/><line opacity="0.2" x1="200.3981862126194" x2="200.3981862126194" y1="0" y2="30"/><line opacity="0.2" x1="341.03809184800906" x2="341.03809184800906" y1="0" y2="30"/><line opacity="0.2" x1="411.2674523415827" x2="411.2674523415827" y1="0" y2="30"/><line opacity="0.2" x1="410.23441050326454" x2="410.23441050326454" y1="0" y2="30"/><line opacity="0.2" x1="300.3042159976049" x2="300.3042159976049" y1="0" y2="30"/><line opacity="0.2" x1="284.80309868666086" x2="284.80309868666086" y1="0" y2="30"/><line opacity="0.2" x1="54.931594675275704" x2="54.931594675275704" y1="0" y2="30"/><line opacity="0.2" x1="253.45855635206573" x2="253.45855635206573" y1="0" y2="30"/><line opacity="0.2" x1="256.6148975614739" x2="256.6148975614739" y1="0" y2="30"/><line opacity="0.2" x1="275.7509992055727" x2="275.7509992055727" y1="0" y2="30"/><line opacity="0.2" x1="232.43893017560438" x2="232.43893017560438" y1="0" y2="30"/><line opacity="0.2" x1="224.66053642319355" x2="224.66053642319355" y1="0" y2="30"/><line opacity="0.2" x1="190.59238690607455" x2="190.59238690607455" y1="0" y2="30"/><line opacity="0.2" x1="244.577416360092" x2="244.577416360092" y1="0" y2="30"/><line opacity="0.2" x1="242.43823897362617" x2="242.43823897362617" y1="0" y2="30"/><line opacity="0.2" x1="362.6159939854945" x2="362.6159939854945" y1="0" y2="30"/><line opacity="0.2" x1="269.47647091014846" x2="269.47647091014846" y1="0" y2="30"/><line opacity="0.2" x1="208.76656861505307" x2="208.76656861505307" y1="0" y2="30"/><line opacity="0.2" x1="82.35959308167696" x2="82.35959308167696" y1="0" y2="30"/><line opacity="0.2" x1="273.222753757019" x2="273.222753757019" y1="0" y2="30"/><line opacity="0.2" x1="430.15695990300077" x2="430.15695990300077" y1="0" y2="30"/><line opacity="0.2" x1="413.54645888531155" x2="413.54645888531155" y1="0" y2="30"/><line opacity="0.2" x1="323.06446340752973" x2="323.06446340752973" y1="0" y2="30"/><line opacity="0.2" x1="418.14451487308037" x2="418.14451487308037" y1="0" y2="30"/><line opacity="0.2" x1="136.60681857527473" x2="136.60681857527473" y1="0" y2="30"/><line opacity="0.2" x1="198.35494467966677" x2="198.35494467966677" y1="0" y2="30"/><line opacity="0.2" x1="136.7460146544137" x2="136.7460146544137" y1="0" y2="30"/><line opacity="0.2" x1="283.36432696538776" x2="283.36432696538776" y1="0" y2="30"/><line opacity="0.2" x1="266.14317904130064" x2="266.14317904130064" y1="0" y2="30"/><line opacity="0.2" x1="170.07409822196107" x2="170.07409822196107" y1="0" y2="30"/><line opacity="0.2" x1="361.11322004596116" x2="361.11322004596116" y1="0" y2="30"/><line opacity="0.2" x1="241.09894127940157" x2="241.09894127940157" y1="0" y2="30"/><line opacity="0.2" x1="138.57468958370185" x2="138.57468958370185" y1="0" y2="30"/><line opacity="0.2" x1="280.40548072366136" x2="280.40548072366136" y1="0" y2="30"/><line opacity="0.2" x1="165.63943738150383" x2="165.63943738150383" y1="0" y2="30"/><line opacity="0.2" x1="187.2854817910331" x2="187.2854817910331" y1="0" y2="30"/><line opacity="0.2" x1="246.60389951324143" x2="246.60389951324143" y1="0" y2="30"/><line opacity="0.2" x1="378.7711774543109" x2="378.7711774543109" y1="0" y2="30"/><line opacity="0.2" x1="224.44261074638993" x2="224.44261074638993" y1="0" y2="30"/><line opacity="0.2" x1="198.11307909988858" x2="198.11307909988858" y1="0" y2="30"/><line opacity="0.2" x1="286.34115745341904" x2="286.34115745341904" y1="0" y2="30"/><line opacity="0.2" x1="361.6988016490545" x2="361.6988016490545" y1="0" y2="30"/><line opacity="0.2" x1="260.32168000732986" x2="260.32168000732986" y1="0" y2="30"/><line opacity="0.2" x1="302.57208362872257" x2="302.57208362872257" y1="0" y2="30"/><line opacity="0.2" x1="316.5756883792224" x2="316.5756883792224" y1="0" y2="30"/><line opacity="0.2" x1="234.14518527298657" x2="234.14518527298657" y1="0" y2="30"/><line opacity="0.2" x1="226.86528388265415" x2="226.86528388265415" y1="0" y2="30"/><line opacity="0.2" x1="297.6275275923072" x2="297.6275275923072" y1="0" y2="30"/><line opacity="0.2" x1="304.2177580644958" x2="304.2177580644958" y1="0" y2="30"/><line opacity="0.2" x1="298.1996311769217" x2="298.1996311769217" y1="0" y2="30"/><line opacity="0.2" x1="336.07169188751305" x2="336.07169188751305" y1="0" y2="30"/><line opacity="0.2" x1="318.982599329055" x2="318.982599329055" y1="0" y2="30"/><line opacity="0.2" x1="219.4460571265261" x2="219.4460571265261" y1="0" y2="30"/><line opacity="0.2" x1="269.63573303650725" x2="269.63573303650725" y1="0" y2="30"/><line opacity="0.2" x1="307.89315589955834" x2="307.89315589955834" y1="0" y2="30"/><line opacity="0.2" x1="447.05423196740725" x2="447.05423196740725" y1="0" y2="30"/><line opacity="0.2" x1="343.019206934335" x2="343.019206934335" y1="0" y2="30"/><line opacity="0.2" x1="295.1441714837536" x2="295.1441714837536" y1="0" y2="30"/><line opacity="0.2" x1="331.4861142202956" x2="331.4861142202956" y1="0" y2="30"/><line opacity="0.2" x1="293.26666643311967" x2="293.26666643311967" y1="0" y2="30"/><line opacity="0.2" x1="296.79546470519955" x2="296.79546470519955" y1="0" y2="30"/><line opacity="0.2" x1="135.0597568791971" x2="135.0597568791971" y1="0" y2="30"/><line opacity="0.2" x1="117.94306776904187" x2="117.94306776904187" y1="0" y2="30"/><line opacity="0.2" x1="335.93304681242535" x2="335.93304681242535" y1="0" y2="30"/><line opacity="0.2" x1="304.99415258004774" x2="304.99415258004774" y1="0" y2="30"/><line opacity="0.2" x1="323.9749463108387" x2="323.9749463108387" y1="0" y2="30"/><line opacity="0.2" x1="280.3194429096467" x2="280.3194429096467" y1="0" y2="30"/><line opacity="0.2" x1="204.10072595869232" x2="204.10072595869232" y1="0" y2="30"/><line opacity="0.2" x1="221.0162490946202" x2="221.0162490946202" y1="0" y2="30"/><line opacity="0.2" x1="431.8059576743737" x2="431.8059576743737" y1="0" y2="30"/><line opacity="0.2" x1="293.54292766659" x2="293.54292766659" y1="0" y2="30"/><line opacity="0.2" x1="334.8081398730149" x2="334.8081398730149" y1="0" y2="30"/><line opacity="0.2" x1="255.798592056261" x2="255.798592056261" y1="0" y2="30"/><line opacity="0.2" x1="175.977641579816" x2="175.977641579816" y1="0" y2="30"/><line opacity="0.2" x1="231.26671336847915" x2="231.26671336847915" y1="0" y2="30"/><line opacity="0.2" x1="287.47683699568233" x2="287.47683699568233" y1="0" y2="30"/><line opacity="0.2" x1="374.2845486849814" x2="374.2845486849814" y1="0" y2="30"/><line opacity="0.2" x1="384.96072628924713" x2="384.96072628924713" y1="0" y2="30"/><line opacity="0.2" x1="343.0091078097589" x2="343.0091078097589" y1="0" y2="30"/><line opacity="0.2" x1="270.84763528533915" x2="270.84763528533915" y1="0" y2="30"/><line opacity="0.2" x1="271.6885345357888" x2="271.6885345357888" y1="0" y2="30"/><line opacity="0.2" x1="215.26043363206585" x2="215.26043363206585" y1="0" y2="30"/><line opacity="0.2" x1="220.54973848137718" x2="220.54973848137718" y1="0" y2="30"/><line opacity="0.2" x1="262.927625945602" x2="262.927625945602" y1="0" y2="30"/><line opacity="0.2" x1="327.97009872983676" x2="327.97009872983676" y1="0" y2="30"/><line opacity="0.2" x1="293.882184463935" x2="293.882184463935" y1="0" y2="30"/><line opacity="0.2" x1="310.3077816200953" x2="310.3077816200953" y1="0" y2="30"/><line opacity="0.2" x1="472.3979223078093" x2="472.3979223078093" y1="0" y2="30"/><line opacity="0.2" x1="238.9082411445523" x2="238.9082411445523" y1="0" y2="30"/><line opacity="0.2" x1="312.2133836718458" x2="312.2133836718458" y1="0" y2="30"/><line opacity="0.2" x1="225.18628979236425" x2="225.18628979236425" y1="0" y2="30"/><line opacity="0.2" x1="271.4155530506944" x2="271.4155530506944" y1="0" y2="30"/><line opacity="0.2" x1="293.0442275649726" x2="293.0442275649726" y1="0" y2="30"/><line opacity="0.2" x1="302.24307230606564" x2="302.24307230606564" y1="0" y2="30"/><line opacity="0.2" x1="269.5663614954943" x2="269.5663614954943" y1="0" y2="30"/><line opacity="0.2" x1="20" x2="20" y1="0" y2="30"/><line opacity="0.2" x1="125.39871559684714" x2="125.39871559684714" y1="0" y2="30"/><line opacity="0.2" x1="475.5247837395622" x2="475.5247837395622" y1="0" y2="30"/><line opacity="0.2" x1="214.27701649094234" x2="214.27701649094234" y1="0" y2="30"/><line opacity="0.2" x1="249.45605835468007" x2="249.45605835468007" y1="0" y2="30"/><line opacity="0.2" x1="182.5724207980104" x2="182.5724207980104" y1="0" y2="30"/><line opacity="0.2" x1="436.65883695857184" x2="436.65883695857184" y1="0" y2="30"/><line opacity="0.2" x1="227.4179235918276" x2="227.4179235918276" y1="0" y2="30"/><line opacity="0.2" x1="322.29823336737945" x2="322.29823336737945" y1="0" y2="30"/><line opacity="0.2" x1="247.77320438513695" x2="247.77320438513695" y1="0" y2="30"/><line opacity="0.2" x1="217.21531472092803" x2="217.21531472092803" y1="0" y2="30"/><line opacity="0.2" x1="364.7334946321258" x2="364.7334946321258" y1="0" y2="30"/><line opacity="0.2" x1="276.5964366618382" x2="276.5964366618382" y1="0" y2="30"/><line opacity="0.2" x1="271.1894745982488" x2="271.1894745982488" y1="0" y2="30"/><line opacity="0.2" x1="359.0886505318478" x2="359.0886505318478" y1="0" y2="30"/><line opacity="0.2" x1="292.51267590077475" x2="292.51267590077475" y1="0" y2="30"/><line opacity="0.2" x1="243.5534356608065" x2="243.5534356608065" y1="0" y2="30"/><line opacity="0.2" x1="220.62911788993463" x2="220.62911788993463" y1="0" y2="30"/><line opacity="0.2" x1="359.9086608897839" x2="359.9086608897839" y1="0" y2="30"/><line opacity="0.2" x1="317.32407025941467" x2="317.32407025941467" y1="0" y2="30"/><line opacity="0.2" x1="192.0931972481806" x2="192.0931972481806" y1="0" y2="30"/><line opacity="0.2" x1="515.2664150114092" x2="515.2664150114092" y1="0" y2="30"/><line opacity="0.2" x1="303.06987712358915" x2="303.06987712358915" y1="0" y2="30"/><line opacity="0.2" x1="125.38515019864406" x2="125.38515019864406" y1="0" y2="30"/><line opacity="0.2" x1="317.9971084167222" x2="317.9971084167222" y1="0" y2="30"/><line opacity="0.2" x1="345.2264770906897" x2="345.2264770906897" y1="0" y2="30"/><line opacity="0.2" x1="223.05504174507018" x2="223.05504174507018" y1="0" y2="30"/><line opacity="0.2" x1="235.30009065830166" x2="235.30009065830166" y1="0" y2="30"/><line opacity="0.2" x1="173.09525334291166" x2="173.09525334291166" y1="0" y2="30"/><line opacity="0.2" x1="226.34494567423923" x2="226.34494567423923" y1="0" y2="30"/><line opacity="0.2" x1="280.264321319455" x2="280.264321319455" y1="0" y2="30"/><line opacity="0.2" x1="396.9511298884073" x2="396.9511298884073" y1="0" y2="30"/><line opacity="0.2" x1="152.52814662306594" x2="152.52814662306594" y1="0" y2="30"/><line opacity="0.2" x1="314.41705537558187" x2="314.41705537558187" y1="0" y2="30"/><line opacity="0.2" x1="260.53163401573204" x2="260.53163401573204" y1="0" y2="30"/><line opacity="0.2" x1="397.5179756729155" x2="397.5179756729155" y1="0" y2="30"/><line opacity="0.2" x1="221.46680812124455" x2="221.46680812124455" y1="0" y2="30"/><line opacity="0.2" x1="249.13889693927578" x2="249.13889693927578" y1="0" y2="30"/><line opacity="0.2" x1="151.82575118721508" x2="151.82575118721508" y1="0" y2="30"/><line opacity="0.2" x1="333.1598546095436" x2="333.1598546095436" y1="0" y2="30"/><line opacity="0.2" x1="178.27103970364743" x2="178.27103970364743" y1="0" y2="30"/><line opacity="0.2" x1="243.61553446972408" x2="243.61553446972408" y1="0" y2="30"/><line opacity="0.2" x1="232.60177383819126" x2="232.60177383819126" y1="0" y2="30"/><line opacity="0.2" x1="367.5152573442692" x2="367.5152573442692" y1="0" y2="30"/><line opacity="0.2" x1="327.961575797685" x2="327.961575797685" y1="0" y2="30"/><line opacity="0.2" x1="312.6354891267482" x2="312.6354891267482" y1="0" y2="30"/><line opacity="0.2" x1="202.71601592111784" x2="202.71601592111784" y1="0" y2="30"/><line opacity="0.2" x1="305.4712235305713" x2="305.4712235305713" y1="0" y2="30"/><line opacity="0.2" x1="269.26345521816916" x2="269.26345521816916" y1="0" y2="30"/><line opacity="0.2" x1="208.26271413466853" x2="208.26271413466853" y1="0" y2="30"/><line opacity="0.2" x1="279.30844761636496" x2="279.30844761636496" y1="0" y2="30"/><line opacity="0.2" x1="258.02941732161537" x2="258.02941732161537" y1="0" y2="30"/><line opacity="0.2" x1="254.28840387597177" x2="254.28840387597177" y1="0" y2="30"/><line opacity="0.2" x1="178.72567460385383" x2="178.72567460385383" y1="0" y2="30"/><line opacity="0.2" x1="332.1533363022935" x2="332.1533363022935" y1="0" y2="30"/><line opacity="0.2" x1="354.12323671730275" x2="354.12323671730275" y1="0" y2="30"/><line opacity="0.2" x1="291.4351138301498" x2="291.4351138301498" y1="0" y2="30"/><line opacity="0.2" x1="240.48881941276883" x2="240.48881941276883" y1="0" y2="30"/><line opacity="0.2" x1="302.66773047775405" x2="302.66773047775405" y1="0" y2="30"/><line opacity="0.2" x1="156.97586895410967" x2="156.97586895410967" y1="0" y2="30"/><line opacity="0.2" x1="343.08718354012996" x2="343.08718354012996" y1="0" y2="30"/><line opacity="0.2" x1="241.13619380792565" x2="241.13619380792565" y1="0" y2="30"/><line opacity="0.2" x1="331.15049402280846" x2="331.15049402280846" y1="0" y2="30"/><line opacity="0.2" x1="200.1505660897276" x2="200.1505660897276" y1="0" y2="30"/><line opacity="0.2" x1="212.25989652359664" x2="212.25989652359664" y1="0" y2="30"/><line opacity="0.2" x1="452.19907595262356" x2="452.19907595262356" y1="0" y2="30"/><line opacity="0.2" x1="439.9860185467333" x2="439.9860185467333" y1="0" y2="30"/><line opacity="0.2" x1="282.40670280267415" x2="282.40670280267415" y1="0" y2="30"/><line opacity="0.2" x1="336.34221656322416" x2="336.34221656322416" y1="0" y2="30"/><line opacity="0.2" x1="341.80361381630524" x2="341.80361381630524" y1="0" y2="30"/><line opacity="0.2" x1="458.8126794210475" x2="458.8126794210475" y1="0" y2="30"/><line opacity="0.2" x1="334.6443548113246" x2="334.6443548113246" y1="0" y2="30"/><line opacity="0.2" x1="291.5607945225647" x2="291.5607945225647" y1="0" y2="30"/><line opacity="0.2" x1="113.87390766927246" x2="113.87390766927246" y1="0" y2="30"/><line opacity="0.2" x1="308.6868458604093" x2="308.6868458604093" y1="0" y2="30"/><line opacity="0.2" x1="258.85909018115433" x2="258.85909018115433" y1="0" y2="30"/><line opacity="0.2" x1="216.80220127052917" x2="216.80220127052917" y1="0" y2="30"/><line opacity="0.2" x1="250.12825125626506" x2="250.12825125626506" y1="0" y2="30"/><line opacity="0.2" x1="197.52509010578896" x2="197.52509010578896" y1="0" y2="30"/><line opacity="0.2" x1="180.4527117909329" x2="180.4527117909329" y1="0" y2="30"/><line opacity="0.2" x1="341.4529001852902" x2="341.4529001852902" y1="0" y2="30"/><line opacity="0.2" x1="135.93736316913547" x2="135.93736316913547" y1="0" y2="30"/><line opacity="0.2" x1="167.24776451579197" x2="167.24776451579197" y1="0" y2="30"/><line opacity="0.2" x1="287.2487398717608" x2="287.2487398717608" y1="0" y2="30"/><line opacity="0.2" x1="305.7573788803818" x2="305.7573788803818" y1="0" y2="30"/><line opacity="0.2" x1="333.06200852997057" x2="333.06200852997057" y1="0" y2="30"/><line opacity="0.2" x1="167.65764754593414" x2="167.65764754593414" y1="0" y2="30"/><line opacity="0.2" x1="413.94871916696087" x2="413.94871916696087" y1="0" y2="30"/><line opacity="0.2" x1="170.35726838097978" x2="170.35726838097978" y1="0" y2="30"/><line opacity="0.2" x1="374.70787036068737" x2="374.70787036068737" y1="0" y2="30"/><line opacity="0.2" x1="145.31605761229767" x2="145.31605761229767" y1="0" y2="30"/><line opacity="0.2" x1="261.211338105301" x2="261.211338105301" y1="0" y2="30"/><line opacity="0.2" x1="245.6630846956526" x2="245.6630846956526" y1="0" y2="30"/><line opacity="0.2" x1="337.4252181488918" x2="337.4252181488918" y1="0" y2="30"/><line opacity="0.2" x1="375.6143521809267" x2="375.6143521809267" y1="0" y2="30"/><line opacity="0.2" x1="269.02732853911016" x2="269.02732853911016" y1="0" y2="30"/><line opacity="0.2" x1="249.10767052460363" x2="249.10767052460363" y1="0" y2="30"/><line opacity="0.2" x1="293.3322692600621" x2="293.3322692600621" y1="0" y2="30"/><line opacity="0.2" x1="274.5224717733653" x2="274.5224717733653" y1="0" y2="30"/><line opacity="0.2" x1="252.0045409933474" x2="252.0045409933474" y1="0" y2="30"/><line opacity="0.2" x1="478.86194659979424" x2="478.86194659979424" y1="0" y2="30"/><line opacity="0.2" x1="365.9806705811935" x2="365.9806705811935" y1="0" y2="30"/><line opacity="0.2" x1="250.7762554591422" x2="250.7762554591422" y1="0" y2="30"/><line opacity="0.2" x1="228.0483637080111" x2="228.0483637080111" y1="0" y2="30"/><line opacity="0.2" x1="417.08061097252164" x2="417.08061097252164" y1="0" y2="30"/><line opacity="0.2" x1="236.8770299472677" x2="236.8770299472677" y1="0" y2="30"/><line opacity="0.2" x1="100.19042082239359" x2="100.19042082239359" y1="0" y2="30"/><line opacity="0.2" x1="239.30338778569111" x2="239.30338778569111" y1="0" y2="30"/><line opacity="0.2" x1="191.03139553504496" x2="191.03139553504496" y1="0" y2="30"/><line opacity="0.2" x1="354.430759105964" x2="354.430759105964" y1="0" y2="30"/><line opacity="0.2" x1="319.9473551364437" x2="319.9473551364437" y1="0" y2="30"/><line opacity="0.2" x1="323.48733605881324" x2="323.48733605881324" y1="0" y2="30"/><line opacity="0.2" x1="302.28021101934644" x2="302.28021101934644" y1="0" y2="30"/><line opacity="0.2" x1="260.4347603838249" x2="260.4347603838249" y1="0" y2="30"/><line opacity="0.2" x1="313.86779566677455" x2="313.86779566677455" y1="0" y2="30"/><line opacity="0.2" x1="199.47746595009437" x2="199.47746595009437" y1="0" y2="30"/><line opacity="0.2" x1="413.4347529201218" x2="413.4347529201218" y1="0" y2="30"/><line opacity="0.2" x1="294.50615276521654" x2="294.50615276521654" y1="0" y2="30"/><line opacity="0.2" x1="212.71810071906447" x2="212.71810071906447" y1="0" y2="30"/><line opacity="0.2" x1="331.9376840612856" x2="331.9376840612856" y1="0" y2="30"/><line opacity="0.2" x1="206.01279877705994" x2="206.01279877705994" y1="0" y2="30"/><line opacity="0.2" x1="268.0736809241412" x2="268.0736809241412" y1="0" y2="30"/><line opacity="0.2" x1="273.7613293589757" x2="273.7613293589757" y1="0" y2="30"/><line opacity="0.2" x1="250.44892156386712" x2="250.44892156386712" y1="0" y2="30"/><line opacity="0.2" x1="196.6649863017133" x2="196.6649863017133" y1="0" y2="30"/><line opacity="0.2" x1="301.87777691247095" x2="301.87777691247095" y1="0" y2="30"/><line opacity="0.2" x1="235.1125524562592" x2="235.1125524562592" y1="0" y2="30"/><line opacity="0.2" x1="390.16151293587234" x2="390.16151293587234" y1="0" y2="30"/><line opacity="0.2" x1="271.31579771681544" x2="271.31579771681544" y1="0" y2="30"/><line opacity="0.2" x1="235.4060923951761" x2="235.4060923951761" y1="0" y2="30"/><line opacity="0.2" x1="256.59210120699015" x2="256.59210120699015" y1="0" y2="30"/><line opacity="0.2" x1="198.88322252993373" x2="198.88322252993373" y1="0" y2="30"/><line opacity="0.2" x1="385.32175198944213" x2="385.32175198944213" y1="0" y2="30"/><line opacity="0.2" x1="244.5466642451974" x2="244.5466642451974" y1="0" y2="30"/><line opacity="0.2" x1="349.2246521954227" x2="349.2246521954227" y1="0" y2="30"/><line opacity="0.2" x1="216.8462070764472" x2="216.8462070764472" y1="0" y2="30"/><line opacity="0.2" x1="402.2667441893796" x2="402.2667441893796" y1="0" y2="30"/><line opacity="0.2" x1="238.53673074199014" x2="238.53673074199014" y1="0" y2="30"/><line opacity="0.2" x1="248.3088970708098" x2="248.3088970708098" y1="0" y2="30"/><line opacity="0.2" x1="260.17324056603496" x2="260.17324056603496" y1="0" y2="30"/><line opacity="0.2" x1="212.88517594875444" x2="212.88517594875444" y1="0" y2="30"/><line opacity="0.2" x1="380.6275423770563" x2="380.6275423770563" y1="0" y2="30"/><line opacity="0.2" x1="191.3525342448125" x2="191.3525342448125" y1="0" y2="30"/><line opacity="0.2" x1="272.0782531076246" x2="272.0782531076246" y1="0" y2="30"/><line opacity="0.2" x1="304.4954850897581" x2="304.4954850897581" y1="0" y2="30"/><line opacity="0.2" x1="209.31655011303204" x2="209.31655011303204" y1="0" y2="30"/><line opacity="0.2" x1="129.36272540544323" x2="129.36272540544323" y1="0" y2="30"/><line opacity="0.2" x1="150.5600297894067" x2="150.5600297894067" y1="0" y2="30"/><line opacity="0.2" x1="222.17582827706607" x2="222.17582827706607" y1="0" y2="30"/><line opacity="0.2" x1="312.75509302711" x2="312.75509302711" y1="0" y2="30"/><line opacity="0.2" x1="271.6120153679381" x2="271.6120153679381" y1="0" y2="30"/><line opacity="0.2" x1="521.4073148616542" x2="521.4073148616542" y1="0" y2="30"/><line opacity="0.2" x1="361.96892175096457" x2="361.96892175096457" y1="0" y2="30"/><line opacity="0.2" x1="350.71644404127886" x2="350.71644404127886" y1="0" y2="30"/><line opacity="0.2" x1="331.5612891541528" x2="331.5612891541528" y1="0" y2="30"/><line opacity="0.2" x1="347.0128521084413" x2="347.0128521084413" y1="0" y2="30"/><line opacity="0.2" x1="276.61656516059867" x2="276.61656516059867" y1="0" y2="30"/><line opacity="0.2" x1="410.15765096621635" x2="410.15765096621635" y1="0" y2="30"/><line opacity="0.2" x1="30.74855816969947" x2="30.74855816969947" y1="0" y2="30"/><line opacity="0.2" x1="132.93715699649312" x2="132.93715699649312" y1="0" y2="30"/><line opacity="0.2" x1="279.6088881848285" x2="279.6088881848285" y1="0" y2="30"/><line opacity="0.2" x1="294.1102686108022" x2="294.1102686108022" y1="0" y2="30"/><line opacity="0.2" x1="309.98430020635004" x2="309.98430020635004" y1="0" y2="30"/><line opacity="0.2" x1="353.5105171511662" x2="353.5105171511662" y1="0" y2="30"/><line opacity="0.2" x1="315.763555280299" x2="315.763555280299" y1="0" y2="30"/><line opacity="0.2" x1="314.6311803573311" x2="314.6311803573311" y1="0" y2="30"/><line opacity="0.2" x1="202.46219713731898" x2="202.46219713731898" y1="0" y2="30"/><line opacity="0.2" x1="234.58802626416244" x2="234.58802626416244" y1="0" y2="30"/><line opacity="0.2" x1="328.198869393004" x2="328.198869393004" y1="0" y2="30"/><line opacity="0.2" x1="298.3903789904586" x2="298.3903789904586" y1="0" y2="30"/><line opacity="0.2" x1="166.18502360488526" x2="166.18502360488526" y1="0" y2="30"/><line opacity="0.2" x1="187.5598729663142" x2="187.5598729663142" y1="0" y2="30"/><line opacity="0.2" x1="212.69516386386303" x2="212.69516386386303" y1="0" y2="30"/><line opacity="0.2" x1="155.9879861264656" x2="155.9879861264656" y1="0" y2="30"/><line opacity="0.2" x1="194.36783820859836" x2="194.36783820859836" y1="0" y2="30"/></g></svg>