<svg xmlns="http://www.w3.org/2000/svg" xmlns:xlink="http://www.w3.org/1999/xlink" class="plot-d6a7b5" fill="currentColor" font-family="system-ui, sans-serif" font-size="10" text-anchor="middle" width="640" height="60" viewBox="0 0 640 60" style="color: black; background-color: white;"><style>.plot-d6a7b5 {
  display: block;
  background: white;
  height: auto;
  height: intrinsic;
  max-width: 100%;
}
.plot-d6a7b5 text,
.plot-d6a7b5 tspan {
  white-space: pre;
}</style><g aria-label="x-axis tick" fill="none" stroke="currentColor"><path transform="translate(44.38809425867271,30)" d="M0,0L0,6"/><path transform="translate(139.16879019919784,30)" d="M0,0L0,6"/><path transform="translate(233.94948613972298,30)" d="M0,0L0,6"/><path transform="translate(328.7301820802481,30)" d="M0,0L0,6"/><path transform="translate(423.5108780207733,30)" d="M0,0L0,6"/><path transform="translate(518.2915739612984,30)" d="M0,0L0,6"/><path transform="translate(613.0722699018236,30)" d="M0,0L0,6"/></g><g aria-label="x-axis tick label" font-variant="tabular-nums" transform="translate(0,9)"><text y="0.71em" transform="translate(44.38809425867271,30)">−3</text><text y="0.71em" transform="translate(139.16879019919784,30)">−2</text><text y="0.71em" transform="translate(233.94948613972298,30)">−1</text><text y="0.71em" transform="translate(328.7301820802481,30)">0</text><text y="0.71em" transform="translate(423.5108780207733,30)">1</text><text y="0.71em" transform="translate(518.2915739612984,30)">2</text><text y="0.71em" transform="translate(613.0722699018236,30)">3</text></g><g aria-label="tick" stroke="steelblue"><line opacity="0.2" x1="333.8178776717922" x2="333.8178776717922" y1="0.5" y2="30"/><line opacity="0.2" x1="421.2039176768175" x2="421.2039176768175" y1="0.5" y2="30"/><line opacity="0.2" x1="297.04659094988426" x2="297.04659094988426" y1="0.5" y2="30"/><line opacity="0.2" x1="381.01614500300536" x2="381.01614500300536" y1="0.5" y2="30"/><line opacity="0.2" x1="356.6780236666717" x2="356.6780236666717" y1="0.5" y2="30"/><line opacity="0.2" x1="369.2457796174827" x2="369.2457796174827" y1="0.5" y2="30"/><line opacity="0.2" x1="356.4916501884417" x2="356.4916501884417" y1="0.5" y2="30"/><line opacity="0.2" x1="174.6656470771744" x2="174.6656470771744" y1="0.5" y2="30"/><line opacity="0.2" x1="456.25015082179516" x2="456.25015082179516" y1="0.5" y2="30"/><line opacity="0.2" x1="409.86738437992267" x2="409.86738437992267" y1="0.5" y2="30"/><line opacity="0.2" x1="254.17471944602096" x2="254.17471944602096" y1="0.5" y2="30"/><line opacity="0.2" x1="305.5721149066702" x2="305.5721149066702" y1="0.5" y2="30"/><line opacity="0.2" x1="442.9148573794527" x2="442.9148573794527" y1="0.5" y2="30"/><line opacity="0.2" x1="340.3117572312945" x2="340.3117572312945" y1="0.5" y2="30"/><line opacity="0.2" x1="232.9529592891097" x2="232.9529592891097" y1="0.5" y2="30"/><line opacity="0.2" x1="354.9314267767213" x2="354.9314267767213" y1="0.5" y2="30"/><line opacity="0.2" x1="446.40259784429503" x2="446.40259784429503" y1="0.5" y2="30"/><line opacity="0.2" x1="184.29250152584848" x2="184.29250152584848" y1="0.5" y2="30"/><line opacity="0.2" x1="280.09129571907187" x2="280.09129571907187" y1="0.5" y2="30"/><line opacity="0.2" x1="209.97664855507884" x2="209.97664855507884" y1="0.5" y2="30"/><line opacity="0.2" x1="309.05009999588685" x2="309.05009999588685" y1="0.5" y2="30"/><line opacity="0.2" x1="277.0598842629829" x2="277.0598842629829" y1="0.5" y2="30"/><line opacity="0.2" x1="190.36556056886528" x2="190.36556056886528" y1="0.5" y2="30"/><line opacity="0.2" x1="358.9306176154166" x2="358.9306176154166" y1="0.5" y2="30"/><line opacity="0.2" x1="182.21080628299217" x2="182.21080628299217" y1="0.5" y2="30"/><line opacity="0.2" x1="335.62799607900314" x2="335.62799607900314" y1="0.5" y2="30"/><line opacity="0.2" x1="228.49118171359288" x2="228.49118171359288" y1="0.5" y2="30"/><line opacity="0.2" x1="274.5858912662735" x2="274.5858912662735" y1="0.5" y2="30"/><line opacity="0.2" x1="313.69729991252547" x2="313.69729991252547" y1="0.5" y2="30"/><line opacity="0.2" x1="334.1954183273684" x2="334.1954183273684" y1="0.5" y2="30"/><line opacity="0.2" x1="370.34882133518164" x2="370.34882133518164" y1="0.5" y2="30"/><line opacity="0.2" x1="459.7833961671919" x2="459.7833961671919" y1="0.5" y2="30"/><line opacity="0.2" x1="314.2572587795526" x2="314.2572587795526" y1="0.5" y2="30"/><line opacity="0.2" x1="333.9297911979857" x2="333.9297911979857" y1="0.5" y2="30"/><line opacity="0.2" x1="309.239405002652" x2="309.239405002652" y1="0.5" y2="30"/><line opacity="0.2" x1="335.58732331635167" x2="335.58732331635167" y1="0.5" y2="30"/><line opacity="0.2" x1="271.599464375108" x2="271.599464375108" y1="0.5" y2="30"/><line opacity="0.2" x1="413.06800190512985" x2="413.06800190512985" y1="0.5" y2="30"/><line opacity="0.2" x1="340.36592509714825" x2="340.36592509714825" y1="0.5" y2="30"/><line opacity="0.2" x1="456.42680385491036" x2="456.42680385491036" y1="0.5" y2="30"/><line opacity="0.2" x1="468.79135066836267" x2="468.79135066836267" y1="0.5" y2="30"/><line opacity="0.2" x1="387.91318223868853" x2="387.91318223868853" y1="0.5" y2="30"/><line opacity="0.2" x1="322.385808670604" x2="322.385808670604" y1="0.5" y2="30"/><line opacity="0.2" x1="307.3199252509962" x2="307.3199252509962" y1="0.5" y2="30"/><line opacity="0.2" x1="278.200284433361" x2="278.200284433361" y1="0.5" y2="30"/><line opacity="0.2" x1="247.34353825024976" x2="247.34353825024976" y1="0.5" y2="30"/><line opacity="0.2" x1="420.35747945668663" x2="420.35747945668663" y1="0.5" y2="30"/><line opacity="0.2" x1="421.63411500500587" x2="421.63411500500587" y1="0.5" y2="30"/><line opacity="0.2" x1="414.2855895369358" x2="414.2855895369358" y1="0.5" y2="30"/><line opacity="0.2" x1="431.7706026430636" x2="431.7706026430636" y1="0.5" y2="30"/><line opacity="0.2" x1="259.44429124241185" x2="259.44429124241185" y1="0.5" y2="30"/><line opacity="0.2" x1="355.4600783631553" x2="355.4600783631553" y1="0.5" y2="30"/><line opacity="0.2" x1="178.76376436701364" x2="178.76376436701364" y1="0.5" y2="30"/><line opacity="0.2" x1="181.41424948985033" x2="181.41424948985033" y1="0.5" y2="30"/><line opacity="0.2" x1="265.97559229761475" x2="265.97559229761475" y1="0.5" y2="30"/><line opacity="0.2" x1="241.55349524198218" x2="241.55349524198218" y1="0.5" y2="30"/><line opacity="0.2" x1="202.2318856645301" x2="202.2318856645301" y1="0.5" y2="30"/><line opacity="0.2" x1="403.36733473599963" x2="403.36733473599963" y1="0.5" y2="30"/><line opacity="0.2" x1="374.29690540098073" x2="374.29690540098073" y1="0.5" y2="30"/><line opacity="0.2" x1="271.675193843354" x2="271.675193843354" y1="0.5" y2="30"/><line opacity="0.2" x1="428.437501020179" x2="428.437501020179" y1="0.5" y2="30"/><line opacity="0.2" x1="353.6807897264372" x2="353.6807897264372" y1="0.5" y2="30"/><line opacity="0.2" x1="135.39305255173588" x2="135.39305255173588" y1="0.5" y2="30"/><line opacity="0.2" x1="238.23571999983704" x2="238.23571999983704" y1="0.5" y2="30"/><line opacity="0.2" x1="395.65289268887994" x2="395.65289268887994" y1="0.5" y2="30"/><line opacity="0.2" x1="264.4985686132337" x2="264.4985686132337" y1="0.5" y2="30"/><line opacity="0.2" x1="475.9756131247889" x2="475.9756131247889" y1="0.5" y2="30"/><line opacity="0.2" x1="286.31512037812587" x2="286.31512037812587" y1="0.5" y2="30"/><line opacity="0.2" x1="364.1686696343305" x2="364.1686696343305" y1="0.5" y2="30"/><line opacity="0.2" x1="182.73814577260967" x2="182.73814577260967" y1="0.5" y2="30"/><line opacity="0.2" x1="390.642010766657" x2="390.642010766657" y1="0.5" y2="30"/><line opacity="0.2" x1="321.1217744092587" x2="321.1217744092587" y1="0.5" y2="30"/><line opacity="0.2" x1="497.8680700720787" x2="497.8680700720787" y1="0.5" y2="30"/><line opacity="0.2" x1="377.5126466948532" x2="377.5126466948532" y1="0.5" y2="30"/><line opacity="0.2" x1="149.8182739195216" x2="149.8182739195216" y1="0.5" y2="30"/><line opacity="0.2" x1="471.32015625816774" x2="471.32015625816774" y1="0.5" y2="30"/><line opacity="0.2" x1="323.4342911617264" x2="323.4342911617264" y1="0.5" y2="30"/><line opacity="0.2" x1="304.33217218926023" x2="304.33217218926023" y1="0.5" y2="30"/><line opacity="0.2" x1="307.1062712493613" x2="307.1062712493613" y1="0.5" y2="30"/><line opacity="0.2" x1="367.4260817134421" x2="367.4260817134421" y1="0.5" y2="30"/><line opacity="0.2" x1="278.1114018892107" x2="278.1114018892107" y1="0.5" y2="30"/><line opacity="0.2" x1="332.1928749895224" x2="332.1928749895224" y1="0.5" y2="30"/><line opacity="0.2" x1="408.6138146020626" x2="408.6138146020626" y1="0.5" y2="30"/><line opacity="0.2" x1="290.18129268296565" x2="290.18129268296565" y1="0.5" y2="30"/><line opacity="0.2" x1="308.4116610896256" x2="308.4116610896256" y1="0.5" y2="30"/><line opacity="0.2" x1="364.81223968432136" x2="364.81223968432136" y1="0.5" y2="30"/><line opacity="0.2" x1="489.7118856670726" x2="489.7118856670726" y1="0.5" y2="30"/><line opacity="0.2" x1="452.3281677810328" x2="452.3281677810328" y1="0.5" y2="30"/><line opacity="0.2" x1="416.77403596336256" x2="416.77403596336256" y1="0.5" y2="30"/><line opacity="0.2" x1="471.0776791765552" x2="471.0776791765552" y1="0.5" y2="30"/><line opacity="0.2" x1="296.6975398734475" x2="296.6975398734475" y1="0.5" y2="30"/><line opacity="0.2" x1="262.69106919949553" x2="262.69106919949553" y1="0.5" y2="30"/><line opacity="0.2" x1="375.6239266860594" x2="375.6239266860594" y1="0.5" y2="30"/><line opacity="0.2" x1="338.80420188085094" x2="338.80420188085094" y1="0.5" y2="30"/><line opacity="0.2" x1="331.9569183532956" x2="331.9569183532956" y1="0.5" y2="30"/><line opacity="0.2" x1="511.3059572222489" x2="511.3059572222489" y1="0.5" y2="30"/><line opacity="0.2" x1="391.34284156880864" x2="391.34284156880864" y1="0.5" y2="30"/><line opacity="0.2" x1="224.46275492539414" x2="224.46275492539414" y1="0.5" y2="30"/><line opacity="0.2" x1="473.71339264963433" x2="473.71339264963433" y1="0.5" y2="30"/><line opacity="0.2" x1="194.635400379819" x2="194.635400379819" y1="0.5" y2="30"/><line opacity="0.2" x1="181.43305877444593" x2="181.43305877444593" y1="0.5" y2="30"/><line opacity="0.2" x1="284.80476974504944" x2="284.80476974504944" y1="0.5" y2="30"/><line opacity="0.2" x1="349.5885257678256" x2="349.5885257678256" y1="0.5" y2="30"/><line opacity="0.2" x1="490.7288003104668" x2="490.7288003104668" y1="0.5" y2="30"/><line opacity="0.2" x1="326.595803444941" x2="326.595803444941" y1="0.5" y2="30"/><line opacity="0.2" x1="224.69201446021555" x2="224.69201446021555" y1="0.5" y2="30"/><line opacity="0.2" x1="283.74650118534566" x2="283.74650118534566" y1="0.5" y2="30"/><line opacity="0.2" x1="259.92113897520255" x2="259.92113897520255" y1="0.5" y2="30"/><line opacity="0.2" x1="312.68305566531603" x2="312.68305566531603" y1="0.5" y2="30"/><line opacity="0.2" x1="361.8204639638857" x2="361.8204639638857" y1="0.5" y2="30"/><line opacity="0.2" x1="620" x2="620" y1="0.5" y2="30"/><line opacity="0.2" x1="422.53834072312446" x2="422.53834072312446" y1="0.5" y2="30"/><line opacity="0.2" x1="484.3826020620525" x2="484.3826020620525" y1="0.5" y2="30"/><line opacity="0.2" x1="566.7304478141352" x2="566.7304478141352" y1="0.5" y2="30"/><line opacity="0.2" x1="395.15773923738493" x2="395.15773923738493" y1="0.5" y2="30"/><line opacity="0.2" x1="411.48918392713614" x2="411.48918392713614" y1="0.5" y2="30"/><line opacity="0.2" x1="305.6252976467405" x2="305.6252976467405" y1="0.5" y2="30"/><line opacity="0.2" x1="240.2221719469531" x2="240.2221719469531" y1="0.5" y2="30"/><line opacity="0.2" x1="381.8282363631802" x2="381.8282363631802" y1="0.5" y2="30"/><line opacity="0.2" x1="272.25508261327883" x2="272.25508261327883" y1="0.5" y2="30"/><line opacity="0.2" x1="496.1827267867529" x2="496.1827267867529" y1="0.5" y2="30"/><line opacity="0.2" x1="345.831055695797" x2="345.831055695797" y1="0.5" y2="30"/><line opacity="0.2" x1="283.6715617061909" x2="283.6715617061909" y1="0.5" y2="30"/><line opacity="0.2" x1="423.2667085415919" x2="423.2667085415919" y1="0.5" y2="30"/><line opacity="0.2" x1="413.17881432647823" x2="413.17881432647823" y1="0.5" y2="30"/><line opacity="0.2" x1="413.4922931662126" x2="413.4922931662126" y1="0.5" y2="30"/><line opacity="0.2" x1="347.4008472962785" x2="347.4008472962785" y1="0.5" y2="30"/><line opacity="0.2" x1="411.1939126339556" x2="411.1939126339556" y1="0.5" y2="30"/><line opacity="0.2" x1="538.2780327976344" x2="538.2780327976344" y1="0.5" y2="30"/><line opacity="0.2" x1="347.64240920349914" x2="347.64240920349914" y1="0.5" y2="30"/><line opacity="0.2" x1="289.0608207922291" x2="289.0608207922291" y1="0.5" y2="30"/><line opacity="0.2" x1="390.49003291266536" x2="390.49003291266536" y1="0.5" y2="30"/><line opacity="0.2" x1="247.9957030367906" x2="247.9957030367906" y1="0.5" y2="30"/><line opacity="0.2" x1="233.41981640345819" x2="233.41981640345819" y1="0.5" y2="30"/><line opacity="0.2" x1="255.74694647769536" x2="255.74694647769536" y1="0.5" y2="30"/><line opacity="0.2" x1="267.05880409207487" x2="267.05880409207487" y1="0.5" y2="30"/><line opacity="0.2" x1="426.4246735220466" x2="426.4246735220466" y1="0.5" y2="30"/><line opacity="0.2" x1="327.4816623282623" x2="327.4816623282623" y1="0.5" y2="30"/><line opacity="0.2" x1="241.71525572893654" x2="241.71525572893654" y1="0.5" y2="30"/><line opacity="0.2" x1="305.77649859174284" x2="305.77649859174284" y1="0.5" y2="30"/><line opacity="0.2" x1="387.29219045737557" x2="387.29219045737557" y1="0.5" y2="30"/><line opacity="0.2" x1="255.57412537050564" x2="255.57412537050564" y1="0.5" y2="30"/><line opacity="0.2" x1="218.95433565390175" x2="218.95433565390175" y1="0.5" y2="30"/><line opacity="0.2" x1="253.28863553986625" x2="253.28863553986625" y1="0.5" y2="30"/><line opacity="0.2" x1="304.18478148103367" x2="304.18478148103367" y1="0.5" y2="30"/><line opacity="0.2" x1="352.1865210095264" x2="352.1865210095264" y1="0.5" y2="30"/><line opacity="0.2" x1="395.42552695725664" x2="395.42552695725664" y1="0.5" y2="30"/><line opacity="0.2" x1="345.43174934255285" x2="345.43174934255285" y1="0.5" y2="30"/><line opacity="0.2" x1="239.45882809655865" x2="239.45882809655865" y1="0.5" y2="30"/><line opacity="0.2" x1="127.75221296534092" x2="127.75221296534092" y1="0.5" y2="30"/><line opacity="0.2" x1="176.36865711056456" x2="176.36865711056456" y1="0.5" y2="30"/><line opacity="0.2" x1="270.9970985358185" x2="270.9970985358185" y1="0.5" y2="30"/><line opacity="0.2" x1="313.8600685577209" x2="313.8600685577209" y1="0.5" y2="30"/><line opacity="0.2" x1="311.31903762130884" x2="311.31903762130884" y1="0.5" y2="30"/><line opacity="0.2" x1="348.9931883753775" x2="348.9931883753775" y1="0.5" y2="30"/><line opacity="0.2" x1="382.992366580117" x2="382.992366580117" y1="0.5" y2="30"/><line opacity="0.2" x1="218.84594004273785" x2="218.84594004273785" y1="0.5" y2="30"/><line opacity="0.2" x1="256.6401381273049" x2="256.6401381273049" y1="0.5" y2="30"/><line opacity="0.2" x1="390.656187755525" x2="390.656187755525" y1="0.5" y2="30"/><line opacity="0.2" x1="318.8981275842067" x2="318.8981275842067" y1="0.5" y2="30"/><line opacity="0.2" x1="321.34745289144826" x2="321.34745289144826" y1="0.5" y2="30"/><line opacity="0.2" x1="348.4565787711262" x2="348.4565787711262" y1="0.5" y2="30"/><line opacity="0.2" x1="418.0345964121638" x2="418.0345964121638" y1="0.5" y2="30"/><line opacity="0.2" x1="339.90336313675624" x2="339.90336313675624" y1="0.5" y2="30"/><line opacity="0.2" x1="236.13225355909034" x2="236.13225355909034" y1="0.5" y2="30"/><line opacity="0.2" x1="467.0680121302069" x2="467.0680121302069" y1="0.5" y2="30"/><line opacity="0.2" x1="378.34710644037386" x2="378.34710644037386" y1="0.5" y2="30"/><line opacity="0.2" x1="480.27119606961145" x2="480.27119606961145" y1="0.5" y2="30"/><line opacity="0.2" x1="219.71640306769814" x2="219.71640306769814" y1="0.5" y2="30"/><line opacity="0.2" x1="280.4434948927723" x2="280.4434948927723" y1="0.5" y2="30"/><line opacity="0.2" x1="350.60825171768903" x2="350.60825171768903" y1="0.5" y2="30"/><line opacity="0.2" x1="394.22913217706105" x2="394.22913217706105" y1="0.5" y2="30"/><line opacity="0.2" x1="344.2139321701485" x2="344.2139321701485" y1="0.5" y2="30"/><line opacity="0.2" x1="298.9797527563112" x2="298.9797527563112" y1="0.5" y2="30"/><line opacity="0.2" x1="281.11724295620905" x2="281.11724295620905" y1="0.5" y2="30"/><line opacity="0.2" x1="267.57353813178577" x2="267.57353813178577" y1="0.5" y2="30"/><line opacity="0.2" x1="151.89880418997822" x2="151.89880418997822" y1="0.5" y2="30"/><line opacity="0.2" x1="298.38031978528517" x2="298.38031978528517" y1="0.5" y2="30"/><line opacity="0.2" x1="314.25401274221633" x2="314.25401274221633" y1="0.5" y2="30"/><line opacity="0.2" x1="439.6267658739413" x2="439.6267658739413" y1="0.5" y2="30"/><line opacity="0.2" x1="435.5448142788656" x2="435.5448142788656" y1="0.5" y2="30"/><line opacity="0.2" x1="323.9732755662783" x2="323.9732755662783" y1="0.5" y2="30"/><line opacity="0.2" x1="227.91414598507566" x2="227.91414598507566" y1="0.5" y2="30"/><line opacity="0.2" x1="334.156256055205" x2="334.156256055205" y1="0.5" y2="30"/><line opacity="0.2" x1="281.38955465634564" x2="281.38955465634564" y1="0.5" y2="30"/><line opacity="0.2" x1="353.3804129632493" x2="353.3804129632493" y1="0.5" y2="30"/><line opacity="0.2" x1="302.3313306657901" x2="302.3313306657901" y1="0.5" y2="30"/><line opacity="0.2" x1="364.87599130438286" x2="364.87599130438286" y1="0.5" y2="30"/><line opacity="0.2" x1="476.11066377018284" x2="476.11066377018284" y1="0.5" y2="30"/><line opacity="0.2" x1="135.48201305102904" x2="135.48201305102904" y1="0.5" y2="30"/><line opacity="0.2" x1="306.3136719196322" x2="306.3136719196322" y1="0.5" y2="30"/><line opacity="0.2" x1="259.0116548503413" x2="259.0116548503413" y1="0.5" y2="30"/><line opacity="0.2" x1="264.4827574920109" x2="264.4827574920109" y1="0.5" y2="30"/><line opacity="0.2" x1="357.6826745017847" x2="357.6826745017847" y1="0.5" y2="30"/><line opacity="0.2" x1="296.570142127938" x2="296.570142127938" y1="0.5" y2="30"/><line opacity="0.2" x1="159.98847998889488" x2="159.98847998889488" y1="0.5" y2="30"/><line opacity="0.2" x1="368.0342792779114" x2="368.0342792779114" y1="0.5" y2="30"/><line opacity="0.2" x1="326.6309579475326" x2="326.6309579475326" y1="0.5" y2="30"/><line opacity="0.2" x1="209.8192996670171" x2="209.8192996670171" y1="0.5" y2="30"/><line opacity="0.2" x1="440.0416521582567" x2="440.0416521582567" y1="0.5" y2="30"/><line opacity="0.2" x1="335.41760056339166" x2="335.41760056339166" y1="0.5" y2="30"/><line opacity="0.2" x1="449.3680880846238" x2="449.3680880846238" y1="0.5" y2="30"/><line opacity="0.2" x1="269.46367174311945" x2="269.46367174311945" y1="0.5" y2="30"/><line opacity="0.2" x1="333.93796509860476" x2="333.93796509860476" y1="0.5" y2="30"/><line opacity="0.2" x1="254.14276066814227" x2="254.14276066814227" y1="0.5" y2="30"/><line opacity="0.2" x1="349.8200000226154" x2="349.8200000226154" y1="0.5" y2="30"/><line opacity="0.2" x1="399.75379573532825" x2="399.75379573532825" y1="0.5" y2="30"/><line opacity="0.2" x1="303.13947886492747" x2="303.13947886492747" y1="0.5" y2="30"/><line opacity="0.2" x1="147.55209915155226" x2="147.55209915155226" y1="0.5" y2="30"/><line opacity="0.2" x1="384.67068368713353" x2="384.67068368713353" y1="0.5" y2="30"/><line opacity="0.2" x1="439.89841789090724" x2="439.89841789090724" y1="0.5" y2="30"/><line opacity="0.2" x1="159.62549101167093" x2="159.62549101167093" y1="0.5" y2="30"/><line opacity="0.2" x1="131.97486893465936" x2="131.97486893465936" y1="0.5" y2="30"/><line opacity="0.2" x1="400.14227409841124" x2="400.14227409841124" y1="0.5" y2="30"/><line opacity="0.2" x1="307.1175223370106" x2="307.1175223370106" y1="0.5" y2="30"/><line opacity="0.2" x1="310.27740927426487" x2="310.27740927426487" y1="0.5" y2="30"/><line opacity="0.2" x1="352.2707097275847" x2="352.2707097275847" y1="0.5" y2="30"/><line opacity="0.2" x1="110.52819653245763" x2="110.52819653245763" y1="0.5" y2="30"/><line opacity="0.2" x1="389.3720718516208" x2="389.3720718516208" y1="0.5" y2="30"/><line opacity="0.2" x1="306.96429633007165" x2="306.96429633007165" y1="0.5" y2="30"/><line opacity="0.2" x1="373.254237229618" x2="373.254237229618" y1="0.5" y2="30"/><line opacity="0.2" x1="227.21804283346128" x2="227.21804283346128" y1="0.5" y2="30"/><line opacity="0.2" x1="307.89236193171246" x2="307.89236193171246" y1="0.5" y2="30"/><line opacity="0.2" x1="422.5740432261754" x2="422.5740432261754" y1="0.5" y2="30"/><line opacity="0.2" x1="360.87286108054616" x2="360.87286108054616" y1="0.5" y2="30"/><line opacity="0.2" x1="386.7821565878878" x2="386.7821565878878" y1="0.5" y2="30"/><line opacity="0.2" x1="411.26908499492635" x2="411.26908499492635" y1="0.5" y2="30"/><line opacity="0.2" x1="357.38793920575154" x2="357.38793920575154" y1="0.5" y2="30"/><line opacity="0.2" x1="319.9092928383948" x2="319.9092928383948" y1="0.5" y2="30"/><line opacity="0.2" x1="431.20521241911905" x2="431.20521241911905" y1="0.5" y2="30"/><line opacity="0.2" x1="457.2024970103653" x2="457.2024970103653" y1="0.5" y2="30"/><line opacity="0.2" x1="390.6905703250285" x2="390.6905703250285" y1="0.5" y2="30"/><line opacity="0.2" x1="237.63652218931946" x2="237.63652218931946" y1="0.5" y2="30"/><line opacity="0.2" x1="377.49898301672795" x2="377.49898301672795" y1="0.5" y2="30"/><line opacity="0.2" x1="336.11501825411455" x2="336.11501825411455" y1="0.5" y2="30"/><line opacity="0.2" x1="379.8995883567918" x2="379.8995883567918" y1="0.5" y2="30"/><line opacity="0.2" x1="510.29442254366535" x2="510.29442254366535" y1="0.5" y2="30"/><line opacity="0.2" x1="256.3861263638466" x2="256.3861263638466" y1="0.5" y2="30"/><line opacity="0.2" x1="293.1565571776463" x2="293.1565571776463" y1="0.5" y2="30"/><line opacity="0.2" x1="357.1270915486541" x2="357.1270915486541" y1="0.5" y2="30"/><line opacity="0.2" x1="302.3128902487899" x2="302.3128902487899" y1="0.5" y2="30"/><line opacity="0.2" x1="420.04674333198903" x2="420.04674333198903" y1="0.5" y2="30"/><line opacity="0.2" x1="394.5660382673155" x2="394.5660382673155" y1="0.5" y2="30"/><line opacity="0.2" x1="149.85869365457785" x2="149.85869365457785" y1="0.5" y2="30"/><line opacity="0.2" x1="225.75597525506834" x2="225.75597525506834" y1="0.5" y2="30"/><line opacity="0.2" x1="357.0548796824964" x2="357.0548796824964" y1="0.5" y2="30"/><line opacity="0.2" x1="530.3194884557989" x2="530.3194884557989" y1="0.5" y2="30"/><line opacity="0.2" x1="537.808334751567" x2="537.808334751567" y1="0.5" y2="30"/><line opacity="0.2" x1="217.25019548185026" x2="217.25019548185026" y1="0.5" y2="30"/><line opacity="0.2" x1="211.57176415721696" x2="211.57176415721696" y1="0.5" y2="30"/><line opacity="0.2" x1="424.5075621109453" x2="424.5075621109453" y1="0.5" y2="30"/><line opacity="0.2" x1="387.30972128441624" x2="387.30972128441624" y1="0.5" y2="30"/><line opacity="0.2" x1="153.17217378778977" x2="153.17217378778977" y1="0.5" y2="30"/><line opacity="0.2" x1="405.7169815465956" x2="405.7169815465956" y1="0.5" y2="30"/><line opacity="0.2" x1="502.41897809068024" x2="502.41897809068024" y1="0.5" y2="30"/><line opacity="0.2" x1="272.2729012999915" x2="272.2729012999915" y1="0.5" y2="30"/><line opacity="0.2" x1="186.28555508892165" x2="186.28555508892165" y1="0.5" y2="30"/><line opacity="0.2" x1="226.68633884270884" x2="226.68633884270884" y1="0.5" y2="30"/><line opacity="0.2" x1="301.73361647268877" x2="301.73361647268877" y1="0.5" y2="30"/><line opacity="0.2" x1="297.2136083890922" x2="297.2136083890922" y1="0.5" y2="30"/><line opacity="0.2" x1="302.22914773469404" x2="302.22914773469404" y1="0.5" y2="30"/><line opacity="0.2" x1="380.208150827445" x2="380.208150827445" y1="0.5" y2="30"/><line opacity="0.2" x1="356.6632071283869" x2="356.6632071283869" y1="0.5" y2="30"/><line opacity="0.2" x1="352.1440815324524" x2="352.1440815324524" y1="0.5" y2="30"/><line opacity="0.2" x1="250.4306581384732" x2="250.4306581384732" y1="0.5" y2="30"/><line opacity="0.2" x1="372.1983782768961" x2="372.1983782768961" y1="0.5" y2="30"/><line opacity="0.2" x1="361.6555754991231" x2="361.6555754991231" y1="0.5" y2="30"/><line opacity="0.2" x1="361.1878999307296" x2="361.1878999307296" y1="0.5" y2="30"/><line opacity="0.2" x1="519.78565294666" x2="519.78565294666" y1="0.5" y2="30"/><line opacity="0.2" x1="314.4951335356295" x2="314.4951335356295" y1="0.5" y2="30"/><line opacity="0.2" x1="397.89904445032766" x2="397.89904445032766" y1="0.5" y2="30"/><line opacity="0.2" x1="294.0136881359475" x2="294.0136881359475" y1="0.5" y2="30"/><line opacity="0.2" x1="370.3247070675467" x2="370.3247070675467" y1="0.5" y2="30"/><line opacity="0.2" x1="371.70453847084485" x2="371.70453847084485" y1="0.5" y2="30"/><line opacity="0.2" x1="331.5552784610234" x2="331.5552784610234" y1="0.5" y2="30"/><line opacity="0.2" x1="315.92707765547544" x2="315.92707765547544" y1="0.5" y2="30"/><line opacity="0.2" x1="343.65978718372446" x2="343.65978718372446" y1="0.5" y2="30"/><line opacity="0.2" x1="343.1281432193409" x2="343.1281432193409" y1="0.5" y2="30"/><line opacity="0.2" x1="335.94895256275595" x2="335.94895256275595" y1="0.5" y2="30"/><line opacity="0.2" x1="315.05513276350484" x2="315.05513276350484" y1="0.5" y2="30"/><line opacity="0.2" x1="496.4317405667008" x2="496.4317405667008" y1="0.5" y2="30"/><line opacity="0.2" x1="378.4367300943022" x2="378.4367300943022" y1="0.5" y2="30"/><line opacity="0.2" x1="337.83288727207855" x2="337.83288727207855" y1="0.5" y2="30"/><line opacity="0.2" x1="273.12123112489843" x2="273.12123112489843" y1="0.5" y2="30"/><line opacity="0.2" x1="396.0925545712689" x2="396.0925545712689" y1="0.5" y2="30"/><line opacity="0.2" x1="476.51671009283257" x2="476.51671009283257" y1="0.5" y2="30"/><line opacity="0.2" x1="419.740094584121" x2="419.740094584121" y1="0.5" y2="30"/><line opacity="0.2" x1="552.4108994943963" x2="552.4108994943963" y1="0.5" y2="30"/><line opacity="0.2" x1="411.92785170116053" x2="411.92785170116053" y1="0.5" y2="30"/><line opacity="0.2" x1="405.5814832847794" x2="405.5814832847794" y1="0.5" y2="30"/><line opacity="0.2" x1="279.6105627876289" x2="279.6105627876289" y1="0.5" y2="30"/><line opacity="0.2" x1="449.77787593988137" x2="449.77787593988137" y1="0.5" y2="30"/><line opacity="0.2" x1="337.568235890516" x2="337.568235890516" y1="0.5" y2="30"/><line opacity="0.2" x1="387.27544874745684" x2="387.27544874745684" y1="0.5" y2="30"/><line opacity="0.2" x1="411.93895266707585" x2="411.93895266707585" y1="0.5" y2="30"/><line opacity="0.2" x1="397.93038370674714" x2="397.93038370674714" y1="0.5" y2="30"/><line opacity="0.2" x1="295.4571362827565" x2="295.4571362827565" y1="0.5" y2="30"/><line opacity="0.2" x1="342.77685747536026" x2="342.77685747536026" y1="0.5" y2="30"/><line opacity="0.2" x1="377.5089587200627" x2="377.5089587200627" y1="0.5" y2="30"/><line opacity="0.2" x1="245.61432571045793" x2="245.61432571045793" y1="0.5" y2="30"/><line opacity="0.2" x1="195.6885039890884" x2="195.6885039890884" y1="0.5" y2="30"/><line opacity="0.2" x1="215.6296262141786" x2="215.6296262141786" y1="0.5" y2="30"/><line opacity="0.2" x1="356.7821594107311" x2="356.7821594107311" y1="0.5" y2="30"/><line opacity="0.2" x1="235.80172831323708" x2="235.80172831323708" y1="0.5" y2="30"/><line opacity="0.2" x1="290.9588429764129" x2="290.9588429764129" y1="0.5" y2="30"/><line opacity="0.2" x1="425.95936955200165" x2="425.95936955200165" y1="0.5" y2="30"/><line opacity="0.2" x1="442.6511609486052" x2="442.6511609486052" y1="0.5" y2="30"/><line opacity="0.2" x1="449.9628756782736" x2="449.9628756782736" y1="0.5" y2="30"/><line opacity="0.2" x1="318.21595152198734" x2="318.21595152198734" y1="0.5" y2="30"/><line opacity="0.2" x1="356.00829196646316" x2="356.00829196646316" y1="0.5" y2="30"/><line opacity="0.2" x1="209.05196593878776" x2="209.05196593878776" y1="0.5" y2="30"/><line opacity="0.2" x1="286.53091808945635" x2="286.53091808945635" y1="0.5" y2="30"/><line opacity="0.2" x1="262.35677073129045" x2="262.35677073129045" y1="0.5" y2="30"/><line opacity="0.2" x1="396.3902905400872" x2="396.3902905400872" y1="0.5" y2="30"/><line opacity="0.2" x1="275.7718534611357" x2="275.7718534611357" y1="0.5" y2="30"/><line opacity="0.2" x1="219.61488164638988" x2="219.61488164638988" y1="0.5" y2="30"/><line opacity="0.2" x1="128.78262565579348" x2="128.78262565579348" y1="0.5" y2="30"/><line opacity="0.2" x1="394.5286142942104" x2="394.5286142942104" y1="0.5" y2="30"/><line opacity="0.2" x1="397.14802043010087" x2="397.14802043010087" y1="0.5" y2="30"/><line opacity="0.2" x1="311.8473092921026" x2="311.8473092921026" y1="0.5" y2="30"/><line opacity="0.2" x1="306.52462284373706" x2="306.52462284373706" y1="0.5" y2="30"/><line opacity="0.2" x1="166.64342332953743" x2="166.64342332953743" y1="0.5" y2="30"/><line opacity="0.2" x1="236.3798000618822" x2="236.3798000618822" y1="0.5" y2="30"/><line opacity="0.2" x1="291.1659104270052" x2="291.1659104270052" y1="0.5" y2="30"/><line opacity="0.2" x1="380.95068892804375" x2="380.95068892804375" y1="0.5" y2="30"/><line opacity="0.2" x1="271.862591950647" x2="271.862591950647" y1="0.5" y2="30"/><line opacity="0.2" x1="425.18751852083415" x2="425.18751852083415" y1="0.5" y2="30"/><line opacity="0.2" x1="344.3368440893567" x2="344.3368440893567" y1="0.5" y2="30"/><line opacity="0.2" x1="246.7945767575731" x2="246.7945767575731" y1="0.5" y2="30"/><line opacity="0.2" x1="289.1113565954247" x2="289.1113565954247" y1="0.5" y2="30"/><line opacity="0.2" x1="359.32714509390996" x2="359.32714509390996" y1="0.5" y2="30"/><line opacity="0.2" x1="307.27056453804573" x2="307.27056453804573" y1="0.5" y2="30"/><line opacity="0.2" x1="354.6076280630864" x2="354.6076280630864" y1="0.5" y2="30"/><line opacity="0.2" x1="426.67267694847897" x2="426.67267694847897" y1="0.5" y2="30"/><line opacity="0.2" x1="355.06539761736707" x2="355.06539761736707" y1="0.5" y2="30"/><line opacity="0.2" x1="439.3559649586187" x2="439.3559649586187" y1="0.5" y2="30"/><line opacity="0.2" x1="301.14630143826304" x2="301.14630143826304" y1="0.5" y2="30"/><line opacity="0.2" x1="410.81756505728396" x2="410.81756505728396" y1="0.5" y2="30"/><line opacity="0.2" x1="511.2242216899425" x2="511.2242216899425" y1="0.5" y2="30"/><line opacity="0.2" x1="499.9422073914753" x2="499.9422073914753" y1="0.5" y2="30"/><line opacity="0.2" x1="266.3982139223572" x2="266.3982139223572" y1="0.5" y2="30"/><line opacity="0.2" x1="401.2068298726376" x2="401.2068298726376" y1="0.5" y2="30"/><line opacity="0.2" x1="302.68018261844134" x2="302.68018261844134" y1="0.5" y2="30"/><line opacity="0.2" x1="236.8780260320427" x2="236.8780260320427" y1="0.5" y2="30"/><line opacity="0.2" x1="249.2440864400311" x2="249.2440864400311" y1="0.5" y2="30"/><line opacity="0.2" x1="516.7494048532626" x2="516.7494048532626" y1="0.5" y2="30"/><line opacity="0.2" x1="332.00634754510486" x2="332.00634754510486" y1="0.5" y2="30"/><line opacity="0.2" x1="260.88082260662185" x2="260.88082260662185" y1="0.5" y2="30"/><line opacity="0.2" x1="351.0930377713911" x2="351.0930377713911" y1="0.5" y2="30"/><line opacity="0.2" x1="354.2367427480541" x2="354.2367427480541" y1="0.5" y2="30"/><line opacity="0.2" x1="416.7467745732575" x2="416.7467745732575" y1="0.5" y2="30"/><line opacity="0.2" x1="458.24106407801327" x2="458.24106407801327" y1="0.5" y2="30"/><line opacity="0.2" x1="173.54330943475028" x2="173.54330943475028" y1="0.5" y2="30"/><line opacity="0.2" x1="367.7162467104222" x2="367.7162467104222" y1="0.5" y2="30"/><line opacity="0.2" x1="232.43384609341626" x2="232.43384609341626" y1="0.5" y2="30"/><line opacity="0.2" x1="393.4875345470124" x2="393.4875345470124" y1="0.5" y2="30"/><line opacity="0.2" x1="416.3383310785414" x2="416.3383310785414" y1="0.5" y2="30"/><line opacity="0.2" x1="428.9713602430193" x2="428.9713602430193" y1="0.5" y2="30"/><line opacity="0.2" x1="339.3871483339191" x2="339.3871483339191" y1="0.5" y2="30"/><line opacity="0.2" x1="278.19590652062055" x2="278.19590652062055" y1="0.5" y2="30"/><line opacity="0.2" x1="588.3004934207653" x2="588.3004934207653" y1="0.5" y2="30"/><line opacity="0.2" x1="343.806830109644" x2="343.806830109644" y1="0.5" y2="30"/><line opacity="0.2" x1="485.0048230592407" x2="485.0048230592407" y1="0.5" y2="30"/><line opacity="0.2" x1="369.25401987332526" x2="369.25401987332526" y1="0.5" y2="30"/><line opacity="0.2" x1="463.4793830477856" x2="463.4793830477856" y1="0.5" y2="30"/><line opacity="0.2" x1="348.82962854935516" x2="348.82962854935516" y1="0.5" y2="30"/><line opacity="0.2" x1="287.03446151803837" x2="287.03446151803837" y1="0.5" y2="30"/><line opacity="0.2" x1="391.73576448724776" x2="391.73576448724776" y1="0.5" y2="30"/><line opacity="0.2" x1="466.59637684952395" x2="466.59637684952395" y1="0.5" y2="30"/><line opacity="0.2" x1="337.0360036047826" x2="337.0360036047826" y1="0.5" y2="30"/><line opacity="0.2" x1="305.10199535248836" x2="305.10199535248836" y1="0.5" y2="30"/><line opacity="0.2" x1="351.4218248073085" x2="351.4218248073085" y1="0.5" y2="30"/><line opacity="0.2" x1="328.7910822406672" x2="328.7910822406672" y1="0.5" y2="30"/><line opacity="0.2" x1="249.12062424561978" x2="249.12062424561978" y1="0.5" y2="30"/><line opacity="0.2" x1="330.69742739549935" x2="330.69742739549935" y1="0.5" y2="30"/><line opacity="0.2" x1="352.8977327360733" x2="352.8977327360733" y1="0.5" y2="30"/><line opacity="0.2" x1="319.7232932535083" x2="319.7232932535083" y1="0.5" y2="30"/><line opacity="0.2" x1="345.02057654886556" x2="345.02057654886556" y1="0.5" y2="30"/><line opacity="0.2" x1="296.6093853930429" x2="296.6093853930429" y1="0.5" y2="30"/><line opacity="0.2" x1="362.9499159096881" x2="362.9499159096881" y1="0.5" y2="30"/><line opacity="0.2" x1="357.41771279067154" x2="357.41771279067154" y1="0.5" y2="30"/><line opacity="0.2" x1="428.04822150324395" x2="428.04822150324395" y1="0.5" y2="30"/><line opacity="0.2" x1="391.8187690609912" x2="391.8187690609912" y1="0.5" y2="30"/><line opacity="0.2" x1="253.21584057250865" x2="253.21584057250865" y1="0.5" y2="30"/><line opacity="0.2" x1="405.6016236990083" x2="405.6016236990083" y1="0.5" y2="30"/><line opacity="0.2" x1="229.5459071028374" x2="229.5459071028374" y1="0.5" y2="30"/><line opacity="0.2" x1="403.0135620325119" x2="403.0135620325119" y1="0.5" y2="30"/><line opacity="0.2" x1="313.20961927976305" x2="313.20961927976305" y1="0.5" y2="30"/><line opacity="0.2" x1="297.8510497339691" x2="297.8510497339691" y1="0.5" y2="30"/><line opacity="0.2" x1="462.58752913321547" x2="462.58752913321547" y1="0.5" y2="30"/><line opacity="0.2" x1="417.2114883820384" x2="417.2114883820384" y1="0.5" y2="30"/><line opacity="0.2" x1="329.333366088629" x2="329.333366088629" y1="0.5" y2="30"/><line opacity="0.2" x1="298.0665003690016" x2="298.0665003690016" y1="0.5" y2="30"/><line opacity="0.2" x1="335.4730096790364" x2="335.4730096790364" y1="0.5" y2="30"/><line opacity="0.2" x1="300.1168330043581" x2="300.1168330043581" y1="0.5" y2="30"/><line opacity="0.2" x1="397.58765108809325" x2="397.58765108809325" y1="0.5" y2="30"/><line opacity="0.2" x1="352.48960393042444" x2="352.48960393042444" y1="0.5" y2="30"/><line opacity="0.2" x1="375.99420533072964" x2="375.99420533072964" y1="0.5" y2="30"/><line opacity="0.2" x1="245.38533455639663" x2="245.38533455639663" y1="0.5" y2="30"/><line opacity="0.2" x1="459.76783228074447" x2="459.76783228074447" y1="0.5" y2="30"/><line opacity="0.2" x1="428.9625933456144" x2="428.9625933456144" y1="0.5" y2="30"/><line opacity="0.2" x1="241.93843062355145" x2="241.93843062355145" y1="0.5" y2="30"/><line opacity="0.2" x1="475.9450436813762" x2="475.9450436813762" y1="0.5" y2="30"/><line opacity="0.2" x1="527.7386135669655" x2="527.7386135669655" y1="0.5" y2="30"/><line opacity="0.2" x1="356.7775883616367" x2="356.7775883616367" y1="0.5" y2="30"/><line opacity="0.2" x1="165.58327710800853" x2="165.58327710800853" y1="0.5" y2="30"/><line opacity="0.2" x1="387.0642829754563" x2="387.0642829754563" y1="0.5" y2="30"/><line opacity="0.2" x1="234.8865140825216" x2="234.8865140825216" y1="0.5" y2="30"/><line opacity="0.2" x1="206.1994344439414" x2="206.1994344439414" y1="0.5" y2="30"/><line opacity="0.2" x1="486.4197861327727" x2="486.4197861327727" y1="0.5" y2="30"/><line opacity="0.2" x1="188.22537183023647" x2="188.22537183023647" y1="0.5" y2="30"/><line opacity="0.2" x1="440.2557364502567" x2="440.2557364502567" y1="0.5" y2="30"/><line opacity="0.2" x1="280.8410557515859" x2="280.8410557515859" y1="0.5" y2="30"/><line opacity="0.2" x1="311.8134689424582" x2="311.8134689424582" y1="0.5" y2="30"/><line opacity="0.2" x1="306.9422442252712" x2="306.9422442252712" y1="0.5" y2="30"/><line opacity="0.2" x1="219.83156324311648" x2="219.83156324311648" y1="0.5" y2="30"/><line opacity="0.2" x1="457.18846500325407" x2="457.18846500325407" y1="0.5" y2="30"/><line opacity="0.2" x1="341.391273802574" x2="341.391273802574" y1="0.5" y2="30"/><line opacity="0.2" x1="271.3219962225055" x2="271.3219962225055" y1="0.5" y2="30"/><line opacity="0.2" x1="221.65965033945702" x2="221.65965033945702" y1="0.5" y2="30"/><line opacity="0.2" x1="270.73101576854754" x2="270.73101576854754" y1="0.5" y2="30"/><line opacity="0.2" x1="255.49633937098886" x2="255.49633937098886" y1="0.5" y2="30"/><line opacity="0.2" x1="347.81960733132934" x2="347.81960733132934" y1="0.5" y2="30"/><line opacity="0.2" x1="317.72735350809774" x2="317.72735350809774" y1="0.5" y2="30"/><line opacity="0.2" x1="333.659194564366" x2="333.659194564366" y1="0.5" y2="30"/><line opacity="0.2" x1="171.05873222861896" x2="171.05873222861896" y1="0.5" y2="30"/><line opacity="0.2" x1="290.850839002775" x2="290.850839002775" y1="0.5" y2="30"/><line opacity="0.2" x1="302.20460451409076" x2="302.20460451409076" y1="0.5" y2="30"/><line opacity="0.2" x1="484.68421331336543" x2="484.68421331336543" y1="0.5" y2="30"/><line opacity="0.2" x1="423.71399840352444" x2="423.71399840352444" y1="0.5" y2="30"/><line opacity="0.2" x1="421.57336508223756" x2="421.57336508223756" y1="0.5" y2="30"/><line opacity="0.2" x1="269.5489088077371" x2="269.5489088077371" y1="0.5" y2="30"/><line opacity="0.2" x1="525.9105909100699" x2="525.9105909100699" y1="0.5" y2="30"/><line opacity="0.2" x1="328.60725396865604" x2="328.60725396865604" y1="0.5" y2="30"/><line opacity="0.2" x1="323.60859282492834" x2="323.60859282492834" y1="0.5" y2="30"/><line opacity="0.2" x1="483.56435148546024" x2="483.56435148546024" y1="0.5" y2="30"/><line opacity="0.2" x1="386.61018893928923" x2="386.61018893928923" y1="0.5" y2="30"/><line opacity="0.2" x1="231.32717620537971" x2="231.32717620537971" y1="0.5" y2="30"/><line opacity="0.2" x1="273.4655875653053" x2="273.4655875653053" y1="0.5" y2="30"/><line opacity="0.2" x1="341.5691505437063" x2="341.5691505437063" y1="0.5" y2="30"/><line opacity="0.2" x1="290.42191899471914" x2="290.42191899471914" y1="0.5" y2="30"/><line opacity="0.2" x1="306.3319634588503" x2="306.3319634588503" y1="0.5" y2="30"/><line opacity="0.2" x1="300.9389649393159" x2="300.9389649393159" y1="0.5" y2="30"/><line opacity="0.2" x1="268.1413208016999" x2="268.1413208016999" y1="0.5" y2="30"/><line opacity="0.2" x1="401.6552376421907" x2="401.6552376421907" y1="0.5" y2="30"/><line opacity="0.2" x1="325.24701645274814" x2="325.24701645274814" y1="0.5" y2="30"/><line opacity="0.2" x1="446.5633154776724" x2="446.5633154776724" y1="0.5" y2="30"/><line opacity="0.2" x1="324.1244356098729" x2="324.1244356098729" y1="0.5" y2="30"/><line opacity="0.2" x1="74.4687021564441" x2="74.4687021564441" y1="0.5" y2="30"/><line opacity="0.2" x1="256.61810970449346" x2="256.61810970449346" y1="0.5" y2="30"/><line opacity="0.2" x1="342.0795853423108" x2="342.0795853423108" y1="0.5" y2="30"/><line opacity="0.2" x1="269.61707851721064" x2="269.61707851721064" y1="0.5" y2="30"/><line opacity="0.2" x1="323.3619762769101" x2="323.3619762769101" y1="0.5" y2="30"/><line opacity="0.2" x1="343.1763209318166" x2="343.1763209318166" y1="0.5" y2="30"/><line opacity="0.2" x1="468.50231300142974" x2="468.50231300142974" y1="0.5" y2="30"/><line opacity="0.2" x1="383.30370257475306" x2="383.30370257475306" y1="0.5" y2="30"/><line opacity="0.2" x1="307.71087292301604" x2="307.71087292301604" y1="0.5" y2="30"/><line opacity="0.2" x1="437.0767963620437" x2="437.0767963620437" y1="0.5" y2="30"/><line opacity="0.2" x1="323.4599771692508" x2="323.4599771692508" y1="0.5" y2="30"/><line opacity="0.2" x1="414.697374473814" x2="414.697374473814" y1="0.5" y2="30"/><line opacity="0.2" x1="455.07535503353677" x2="455.07535503353677" y1="0.5" y2="30"/><line opacity="0.2" x1="358.23344369774105" x2="358.23344369774105" y1="0.5" y2="30"/><line opacity="0.2" x1="476.8283840466056" x2="476.8283840466056" y1="0.5" y2="30"/><line opacity="0.2" x1="239.68101342444558" x2="239.68101342444558" y1="0.5" y2="30"/><line opacity="0.2" x1="267.1650551666342" x2="267.1650551666342" y1="0.5" y2="30"/><line opacity="0.2" x1="126.66910443434179" x2="126.66910443434179" y1="0.5" y2="30"/><line opacity="0.2" x1="159.1200667076274" x2="159.1200667076274" y1="0.5" y2="30"/><line opacity="0.2" x1="440.65711723576385" x2="440.65711723576385" y1="0.5" y2="30"/><line opacity="0.2" x1="299.2293071018765" x2="299.2293071018765" y1="0.5" y2="30"/><line opacity="0.2" x1="407.4937723177887" x2="407.4937723177887" y1="0.5" y2="30"/><line opacity="0.2" x1="144.4175740965254" x2="144.4175740965254" y1="0.5" y2="30"/><line opacity="0.2" x1="361.5409041037775" x2="361.5409041037775" y1="0.5" y2="30"/><line opacity="0.2" x1="408.4629461530311" x2="408.4629461530311" y1="0.5" y2="30"/><line opacity="0.2" x1="381.8302172222999" x2="381.8302172222999" y1="0.5" y2="30"/><line opacity="0.2" x1="361.4661222759976" x2="361.4661222759976" y1="0.5" y2="30"/><line opacity="0.2" x1="276.9774087866594" x2="276.9774087866594" y1="0.5" y2="30"/><line opacity="0.2" x1="245.95234850591572" x2="245.95234850591572" y1="0.5" y2="30"/><line opacity="0.2" x1="516.1522471701346" x2="516.1522471701346" y1="0.5" y2="30"/><line opacity="0.2" x1="242.67654963122652" x2="242.67654963122652" y1="0.5" y2="30"/><line opacity="0.2" x1="407.16561682688433" x2="407.16561682688433" y1="0.5" y2="30"/><line opacity="0.2" x1="573.8842797025844" x2="573.8842797025844" y1="0.5" y2="30"/><line opacity="0.2" x1="394.87507178703294" x2="394.87507178703294" y1="0.5" y2="30"/><line opacity="0.2" x1="391.6102214748206" x2="391.6102214748206" y1="0.5" y2="30"/><line opacity="0.2" x1="481.04638810149623" x2="481.04638810149623" y1="0.5" y2="30"/><line opacity="0.2" x1="442.04045970943275" x2="442.04045970943275" y1="0.5" y2="30"/><line opacity="0.2" x1="302.31599108348075" x2="302.31599108348075" y1="0.5" y2="30"/><line opacity="0.2" x1="392.79569177971143" x2="392.79569177971143" y1="0.5" y2="30"/><line opacity="0.2" x1="423.82123538818246" x2="423.82123538818246" y1="0.5" y2="30"/><line opacity="0.2" x1="322.7099020566706" x2="322.7099020566706" y1="0.5" y2="30"/><line opacity="0.2" x1="147.40063665207816" x2="147.40063665207816" y1="0.5" y2="30"/><line opacity="0.2" x1="235.6565222274976" x2="235.6565222274976" y1="0.5" y2="30"/><line opacity="0.2" x1="224.44464562133112" x2="224.44464562133112" y1="0.5" y2="30"/><line opacity="0.2" x1="380.28470239012387" x2="380.28470239012387" y1="0.5" y2="30"/><line opacity="0.2" x1="357.8390621360922" x2="357.8390621360922" y1="0.5" y2="30"/><line opacity="0.2" x1="553.2271197843612" x2="553.2271197843612" y1="0.5" y2="30"/><line opacity="0.2" x1="345.62325347562586" x2="345.62325347562586" y1="0.5" y2="30"/><line opacity="0.2" x1="454.42730044692405" x2="454.42730044692405" y1="0.5" y2="30"/><line opacity="0.2" x1="371.3901615683866" x2="371.3901615683866" y1="0.5" y2="30"/><line opacity="0.2" x1="323.06316124939127" x2="323.06316124939127" y1="0.5" y2="30"/><line opacity="0.2" x1="455.82711398353183" x2="455.82711398353183" y1="0.5" y2="30"/><line opacity="0.2" x1="307.94561489521806" x2="307.94561489521806" y1="0.5" y2="30"/><line opacity="0.2" x1="321.30268946488144" x2="321.30268946488144" y1="0.5" y2="30"/><line opacity="0.2" x1="336.01961944830697" x2="336.01961944830697" y1="0.5" y2="30"/><line opacity="0.2" x1="489.90815521750295" x2="489.90815521750295" y1="0.5" y2="30"/><line opacity="0.2" x1="302.2884994755106" x2="302.2884994755106" y1="0.5" y2="30"/><line opacity="0.2" x1="428.38765612863773" x2="428.38765612863773" y1="0.5" y2="30"/><line opacity="0.2" x1="331.77205698918414" x2="331.77205698918414" y1="0.5" y2="30"/><line opacity="0.2" x1="344.2719211613916" x2="344.2719211613916" y1="0.5" y2="30"/><line opacity="0.2" x1="435.29867134219745" x2="435.29867134219745" y1="0.5" y2="30"/><line opacity="0.2" x1="418.4711409220592" x2="418.4711409220592" y1="0.5" y2="30"/><line opacity="0.2" x1="335.6156858258965" x2="335.6156858258965" y1="0.5" y2="30"/><line opacity="0.2" x1="401.53230052099923" x2="401.53230052099923" y1="0.5" y2="30"/><line opacity="0.2" x1="167.6265187098351" x2="167.6265187098351" y1="0.5" y2="30"/><line opacity="0.2" x1="323.66364110461274" x2="323.66364110461274" y1="0.5" y2="30"/><line opacity="0.2" x1="349.62162583598183" x2="349.62162583598183" y1="0.5" y2="30"/><line opacity="0.2" x1="452.016953482171" x2="452.016953482171" y1="0.5" y2="30"/><line opacity="0.2" x1="249.99759614266122" x2="249.99759614266122" y1="0.5" y2="30"/><line opacity="0.2" x1="464.925606445973" x2="464.925606445973" y1="0.5" y2="30"/><line opacity="0.2" x1="245.7327644076866" x2="245.7327644076866" y1="0.5" y2="30"/><line opacity="0.2" x1="448.1920474615737" x2="448.1920474615737" y1="0.5" y2="30"/><line opacity="0.2" x1="560.6817837973393" x2="560.6817837973393" y1="0.5" y2="30"/><line opacity="0.2" x1="302.8018668863957" x2="302.8018668863957" y1="0.5" y2="30"/><line opacity="0.2" x1="424.20221844567214" x2="424.20221844567214" y1="0.5" y2="30"/><line opacity="0.2" x1="142.1800333093978" x2="142.1800333093978" y1="0.5" y2="30"/><line opacity="0.2" x1="316.8723254630112" x2="316.8723254630112" y1="0.5" y2="30"/><line opacity="0.2" x1="318.493226760019" x2="318.493226760019" y1="0.5" y2="30"/><line opacity="0.2" x1="314.41958264732307" x2="314.41958264732307" y1="0.5" y2="30"/><line opacity="0.2" x1="422.75424313932086" x2="422.75424313932086" y1="0.5" y2="30"/><line opacity="0.2" x1="358.229602187532" x2="358.229602187532" y1="0.5" y2="30"/><line opacity="0.2" x1="298.980385735035" x2="298.980385735035" y1="0.5" y2="30"/><line opacity="0.2" x1="430.68360152908076" x2="430.68360152908076" y1="0.5" y2="30"/><line opacity="0.2" x1="301.1254505169105" x2="301.1254505169105" y1="0.5" y2="30"/><line opacity="0.2" x1="288.2777645973041" x2="288.2777645973041" y1="0.5" y2="30"/><line opacity="0.2" x1="258.61522711897163" x2="258.61522711897163" y1="0.5" y2="30"/><line opacity="0.2" x1="409.2495573881202" x2="409.2495573881202" y1="0.5" y2="30"/><line opacity="0.2" x1="474.0375829923272" x2="474.0375829923272" y1="0.5" y2="30"/><line opacity="0.2" x1="327.84530797717787" x2="327.84530797717787" y1="0.5" y2="30"/><line opacity="0.2" x1="223.94471360606337" x2="223.94471360606337" y1="0.5" y2="30"/><line opacity="0.2" x1="354.703675702351" x2="354.703675702351" y1="0.5" y2="30"/><line opacity="0.2" x1="339.09138142352697" x2="339.09138142352697" y1="0.5" y2="30"/><line opacity="0.2" x1="271.2640384439191" x2="271.2640384439191" y1="0.5" y2="30"/><line opacity="0.2" x1="230.43469899772055" x2="230.43469899772055" y1="0.5" y2="30"/><line opacity="0.2" x1="164.823907593449" x2="164.823907593449" y1="0.5" y2="30"/><line opacity="0.2" x1="223.52236847645375" x2="223.52236847645375" y1="0.5" y2="30"/><line opacity="0.2" x1="227.50305825383546" x2="227.50305825383546" y1="0.5" y2="30"/><line opacity="0.2" x1="276.23175266338865" x2="276.23175266338865" y1="0.5" y2="30"/><line opacity="0.2" x1="402.76516986668753" x2="402.76516986668753" y1="0.5" y2="30"/><line opacity="0.2" x1="416.28978338772873" x2="416.28978338772873" y1="0.5" y2="30"/><line opacity="0.2" x1="331.2828711241822" x2="331.2828711241822" y1="0.5" y2="30"/><line opacity="0.2" x1="245.2347972028752" x2="245.2347972028752" y1="0.5" y2="30"/><line opacity="0.2" x1="322.7813618727038" x2="322.7813618727038" y1="0.5" y2="30"/><line opacity="0.2" x1="367.9453689959729" x2="367.9453689959729" y1="0.5" y2="30"/><line opacity="0.2" x1="397.95760042618105" x2="397.95760042618105" y1="0.5" y2="30"/><line opacity="0.2" x1="358.5841720022841" x2="358.5841720022841" y1="0.5" y2="30"/><line opacity="0.2" x1="399.551856119697" x2="399.551856119697" y1="0.5" y2="30"/><line opacity="0.2" x1="237.57496079247287" x2="237.57496079247287" y1="0.5" y2="30"/><line opacity="0.2" x1="309.1762073540011" x2="309.1762073540011" y1="0.5" y2="30"/><line opacity="0.2" x1="477.16339787451295" x2="477.16339787451295" y1="0.5" y2="30"/><line opacity="0.2" x1="332.1901541564371" x2="332.1901541564371" y1="0.5" y2="30"/><line opacity="0.2" x1="329.1116354639261" x2="329.1116354639261" y1="0.5" y2="30"/><line opacity="0.2" x1="227.94843107367998" x2="227.94843107367998" y1="0.5" y2="30"/><line opacity="0.2" x1="265.3038397444251" x2="265.3038397444251" y1="0.5" y2="30"/><line opacity="0.2" x1="416.68293400080154" x2="416.68293400080154" y1="0.5" y2="30"/><line opacity="0.2" x1="254.99846797285673" x2="254.99846797285673" y1="0.5" y2="30"/><line opacity="0.2" x1="163.2408421611321" x2="163.2408421611321" y1="0.5" y2="30"/><line opacity="0.2" x1="515.421119182946" x2="515.421119182946" y1="0.5" y2="30"/><line opacity="0.2" x1="280.8532356172579" x2="280.8532356172579" y1="0.5" y2="30"/><line opacity="0.2" x1="407.4294794737226" x2="407.4294794737226" y1="0.5" y2="30"/><line opacity="0.2" x1="287.3122021862826" x2="287.3122021862826" y1="0.5" y2="30"/><line opacity="0.2" x1="342.465281785677" x2="342.465281785677" y1="0.5" y2="30"/><line opacity="0.2" x1="469.30949471551634" x2="469.30949471551634" y1="0.5" y2="30"/><line opacity="0.2" x1="269.0447224306358" x2="269.0447224306358" y1="0.5" y2="30"/><line opacity="0.2" x1="296.75954392105666" x2="296.75954392105666" y1="0.5" y2="30"/><line opacity="0.2" x1="372.95327086820214" x2="372.95327086820214" y1="0.5" y2="30"/><line opacity="0.2" x1="302.3306410498303" x2="302.3306410498303" y1="0.5" y2="30"/><line opacity="0.2" x1="492.51636860805843" x2="492.51636860805843" y1="0.5" y2="30"/><line opacity="0.2" x1="292.5678220994371" x2="292.5678220994371" y1="0.5" y2="30"/><line opacity="0.2" x1="398.78889233289976" x2="398.78889233289976" y1="0.5" y2="30"/><line opacity="0.2" x1="418.44624538734" x2="418.44624538734" y1="0.5" y2="30"/><line opacity="0.2" x1="224.4925644852799" x2="224.4925644852799" y1="0.5" y2="30"/><line opacity="0.2" x1="371.23609889756915" x2="371.23609889756915" y1="0.5" y2="30"/><line opacity="0.2" x1="392.3193425056105" x2="392.3193425056105" y1="0.5" y2="30"/><line opacity="0.2" x1="235.1667058913666" x2="235.1667058913666" y1="0.5" y2="30"/><line opacity="0.2" x1="222.04491951338258" x2="222.04491951338258" y1="0.5" y2="30"/><line opacity="0.2" x1="360.72496311955445" x2="360.72496311955445" y1="0.5" y2="30"/><line opacity="0.2" x1="345.0629414542354" x2="345.0629414542354" y1="0.5" y2="30"/><line opacity="0.2" x1="129.0759526788318" x2="129.0759526788318" y1="0.5" y2="30"/><line opacity="0.2" x1="378.2154378303083" x2="378.2154378303083" y1="0.5" y2="30"/><line opacity="0.2" x1="402.9180534193986" x2="402.9180534193986" y1="0.5" y2="30"/><line opacity="0.2" x1="20" x2="20" y1="0.5" y2="30"/><line opacity="0.2" x1="287.45099390885645" x2="287.45099390885645" y1="0.5" y2="30"/><line opacity="0.2" x1="395.17421178302334" x2="395.17421178302334" y1="0.5" y2="30"/><line opacity="0.2" x1="325.3777659223092" x2="325.3777659223092" y1="0.5" y2="30"/><line opacity="0.2" x1="359.8076386354767" x2="359.8076386354767" y1="0.5" y2="30"/><line opacity="0.2" x1="358.0441380406878" x2="358.0441380406878" y1="0.5" y2="30"/><line opacity="0.2" x1="362.06990134726135" x2="362.06990134726135" y1="0.5" y2="30"/><line opacity="0.2" x1="442.7832016520574" x2="442.7832016520574" y1="0.5" y2="30"/><line opacity="0.2" x1="205.67793366977907" x2="205.67793366977907" y1="0.5" y2="30"/><line opacity="0.2" x1="244.35524849569745" x2="244.35524849569745" y1="0.5" y2="30"/><line opacity="0.2" x1="453.46705240424615" x2="453.46705240424615" y1="0.5" y2="30"/><line opacity="0.2" x1="256.5092664560205" x2="256.5092664560205" y1="0.5" y2="30"/><line opacity="0.2" x1="265.307538464828" x2="265.307538464828" y1="0.5" y2="30"/><line opacity="0.2" x1="250.16963386287316" x2="250.16963386287316" y1="0.5" y2="30"/><line opacity="0.2" x1="294.82724509327556" x2="294.82724509327556" y1="0.5" y2="30"/><line opacity="0.2" x1="271.6247675020943" x2="271.6247675020943" y1="0.5" y2="30"/><line opacity="0.2" x1="262.7510493762453" x2="262.7510493762453" y1="0.5" y2="30"/><line opacity="0.2" x1="336.28492123400764" x2="336.28492123400764" y1="0.5" y2="30"/><line opacity="0.2" x1="286.48412922192813" x2="286.48412922192813" y1="0.5" y2="30"/><line opacity="0.2" x1="428.492671987091" x2="428.492671987091" y1="0.5" y2="30"/><line opacity="0.2" x1="250.89803280707744" x2="250.89803280707744" y1="0.5" y2="30"/><line opacity="0.2" x1="196.84601408218091" x2="196.84601408218091" y1="0.5" y2="30"/><line opacity="0.2" x1="302.9616973250721" x2="302.9616973250721" y1="0.5" y2="30"/><line opacity="0.2" x1="356.3710165585864" x2="356.3710165585864" y1="0.5" y2="30"/><line opacity="0.2" x1="215.6483775007147" x2="215.6483775007147" y1="0.5" y2="30"/><line opacity="0.2" x1="379.21663517736727" x2="379.21663517736727" y1="0.5" y2="30"/><line opacity="0.2" x1="491.3396450010243" x2="491.3396450010243" y1="0.5" y2="30"/><line opacity="0.2" x1="281.7027201758001" x2="281.7027201758001" y1="0.5" y2="30"/><line opacity="0.2" x1="376.73388881978417" x2="376.73388881978417" y1="0.5" y2="30"/><line opacity="0.2" x1="540.6265642982594" x2="540.6265642982594" y1="0.5" y2="30"/><line opacity="0.2" x1="275.3026207004094" x2="275.3026207004094" y1="0.5" y2="30"/><line opacity="0.2" x1="142.069355674354" x2="142.069355674354" y1="0.5" y2="30"/><line opacity="0.2" x1="311.0592553031049" x2="311.0592553031049" y1="0.5" y2="30"/><line opacity="0.2" x1="446.8271905360525" x2="446.8271905360525" y1="0.5" y2="30"/><line opacity="0.2" x1="282.5539255430238" x2="282.5539255430238" y1="0.5" y2="30"/><line opacity="0.2" x1="331.35376895144054" x2="331.35376895144054" y1="0.5" y2="30"/><line opacity="0.2" x1="415.42280067255876" x2="415.42280067255876" y1="0.5" y2="30"/><line opacity="0.2" x1="425.4062435999331" x2="425.4062435999331" y1="0.5" y2="30"/><line opacity="0.2" x1="298.672791563551" x2="298.672791563551" y1="0.5" y2="30"/><line opacity="0.2" x1="325.3316649305777" x2="325.3316649305777" y1="0.5" y2="30"/><line opacity="0.2" x1="240.12973180189843" x2="240.12973180189843" y1="0.5" y2="30"/><line opacity="0.2" x1="349.07255853186444" x2="349.07255853186444" y1="0.5" y2="30"/><line opacity="0.2" x1="276.5649894664457" x2="276.5649894664457" y1="0.5" y2="30"/><line opacity="0.2" x1="240.7611607058464" x2="240.7611607058464" y1="0.5" y2="30"/><line opacity="0.2" x1="355.00519297654614" x2="355.00519297654614" y1="0.5" y2="30"/><line opacity="0.2" x1="239.26452640928443" x2="239.26452640928443" y1="0.5" y2="30"/><line opacity="0.2" x1="297.46954804621214" x2="297.46954804621214" y1="0.5" y2="30"/><line opacity="0.2" x1="403.8139747469762" x2="403.8139747469762" y1="0.5" y2="30"/><line opacity="0.2" x1="378.6647849179833" x2="378.6647849179833" y1="0.5" y2="30"/><line opacity="0.2" x1="449.9800708000156" x2="449.9800708000156" y1="0.5" y2="30"/><line opacity="0.2" x1="234.0086685514081" x2="234.0086685514081" y1="0.5" y2="30"/><line opacity="0.2" x1="327.79825088067923" x2="327.79825088067923" y1="0.5" y2="30"/><line opacity="0.2" x1="243.19141093206366" x2="243.19141093206366" y1="0.5" y2="30"/><line opacity="0.2" x1="300.85578163563014" x2="300.85578163563014" y1="0.5" y2="30"/><line opacity="0.2" x1="431.6534134654712" x2="431.6534134654712" y1="0.5" y2="30"/><line opacity="0.2" x1="357.69031181719214" x2="357.69031181719214" y1="0.5" y2="30"/><line opacity="0.2" x1="244.63407906647979" x2="244.63407906647979" y1="0.5" y2="30"/><line opacity="0.2" x1="336.37497832954637" x2="336.37497832954637" y1="0.5" y2="30"/><line opacity="0.2" x1="368.91659321884634" x2="368.91659321884634" y1="0.5" y2="30"/><line opacity="0.2" x1="269.9487783911268" x2="269.9487783911268" y1="0.5" y2="30"/><line opacity="0.2" x1="69.78015328682916" x2="69.78015328682916" y1="0.5" y2="30"/><line opacity="0.2" x1="231.22886402431075" x2="231.22886402431075" y1="0.5" y2="30"/><line opacity="0.2" x1="313.77997091467677" x2="313.77997091467677" y1="0.5" y2="30"/><line opacity="0.2" x1="314.7118642653391" x2="314.7118642653391" y1="0.5" y2="30"/><line opacity="0.2" x1="211.87695787218775" x2="211.87695787218775" y1="0.5" y2="30"/><line opacity="0.2" x1="373.63902180476555" x2="373.63902180476555" y1="0.5" y2="30"/><line opacity="0.2" x1="272.68089393411174" x2="272.68089393411174" y1="0.5" y2="30"/><line opacity="0.2" x1="240.50648293636527" x2="240.50648293636527" y1="0.5" y2="30"/><line opacity="0.2" x1="371.68404171117885" x2="371.68404171117885" y1="0.5" y2="30"/><line opacity="0.2" x1="331.53224952423824" x2="331.53224952423824" y1="0.5" y2="30"/><line opacity="0.2" x1="281.4216641719284" x2="281.4216641719284" y1="0.5" y2="30"/><line opacity="0.2" x1="461.8005931864058" x2="461.8005931864058" y1="0.5" y2="30"/><line opacity="0.2" x1="318.35678211891025" x2="318.35678211891025" y1="0.5" y2="30"/><line opacity="0.2" x1="368.20429287846395" x2="368.20429287846395" y1="0.5" y2="30"/><line opacity="0.2" x1="361.7539306704461" x2="361.7539306704461" y1="0.5" y2="30"/><line opacity="0.2" x1="388.00052130314657" x2="388.00052130314657" y1="0.5" y2="30"/><line opacity="0.2" x1="320.5997835122031" x2="320.5997835122031" y1="0.5" y2="30"/><line opacity="0.2" x1="243.5942632417483" x2="243.5942632417483" y1="0.5" y2="30"/><line opacity="0.2" x1="281.72992255630845" x2="281.72992255630845" y1="0.5" y2="30"/><line opacity="0.2" x1="434.24336443915814" x2="434.24336443915814" y1="0.5" y2="30"/><line opacity="0.2" x1="442.7287939409187" x2="442.7287939409187" y1="0.5" y2="30"/><line opacity="0.2" x1="498.96409873708694" x2="498.96409873708694" y1="0.5" y2="30"/><line opacity="0.2" x1="302.8668213002927" x2="302.8668213002927" y1="0.5" y2="30"/><line opacity="0.2" x1="333.4878206458915" x2="333.4878206458915" y1="0.5" y2="30"/><line opacity="0.2" x1="336.3754853191213" x2="336.3754853191213" y1="0.5" y2="30"/><line opacity="0.2" x1="176.01369323309157" x2="176.01369323309157" y1="0.5" y2="30"/><line opacity="0.2" x1="461.2492567487611" x2="461.2492567487611" y1="0.5" y2="30"/><line opacity="0.2" x1="285.3715993881595" x2="285.3715993881595" y1="0.5" y2="30"/><line opacity="0.2" x1="345.69872335537417" x2="345.69872335537417" y1="0.5" y2="30"/><line opacity="0.2" x1="402.53931868618946" x2="402.53931868618946" y1="0.5" y2="30"/><line opacity="0.2" x1="388.93291399585576" x2="388.93291399585576" y1="0.5" y2="30"/><line opacity="0.2" x1="336.18053379371827" x2="336.18053379371827" y1="0.5" y2="30"/><line opacity="0.2" x1="188.26353548626847" x2="188.26353548626847" y1="0.5" y2="30"/><line opacity="0.2" x1="290.1179684441965" x2="290.1179684441965" y1="0.5" y2="30"/><line opacity="0.2" x1="163.84649880247616" x2="163.84649880247616" y1="0.5" y2="30"/><line opacity="0.2" x1="377.78295088325586" x2="377.78295088325586" y1="0.5" y2="30"/><line opacity="0.2" x1="224.292768636599" x2="224.292768636599" y1="0.5" y2="30"/><line opacity="0.2" x1="457.41588235141904" x2="457.41588235141904" y1="0.5" y2="30"/><line opacity="0.2" x1="285.4381082316649" x2="285.4381082316649" y1="0.5" y2="30"/><line opacity="0.2" x1="244.00262572984556" x2="244.00262572984556" y1="0.5" y2="30"/><line opacity="0.2" x1="488.89097160009237" x2="488.89097160009237" y1="0.5" y2="30"/><line opacity="0.2" x1="213.80783294406788" x2="213.80783294406788" y1="0.5" y2="30"/><line opacity="0.2" x1="278.91478668910787" x2="278.91478668910787" y1="0.5" y2="30"/><line opacity="0.2" x1="282.9721107422284" x2="282.9721107422284" y1="0.5" y2="30"/><line opacity="0.2" x1="399.87699565556295" x2="399.87699565556295" y1="0.5" y2="30"/><line opacity="0.2" x1="437.7344594899415" x2="437.7344594899415" y1="0.5" y2="30"/><line opacity="0.2" x1="340.40579223992194" x2="340.40579223992194" y1="0.5" y2="30"/><line opacity="0.2" x1="297.6571334892963" x2="297.6571334892963" y1="0.5" y2="30"/><line opacity="0.2" x1="519.1632172871363" x2="519.1632172871363" y1="0.5" y2="30"/><line opacity="0.2" x1="176.29912825805786" x2="176.29912825805786" y1="0.5" y2="30"/><line opacity="0.2" x1="416.0439127699535" x2="416.0439127699535" y1="0.5" y2="30"/><line opacity="0.2" x1="394.95131686870695" x2="394.95131686870695" y1="0.5" y2="30"/><line opacity="0.2" x1="348.51651244944605" x2="348.51651244944605" y1="0.5" y2="30"/><line opacity="0.2" x1="288.50501415258174" x2="288.50501415258174" y1="0.5" y2="30"/><line opacity="0.2" x1="294.38604325701976" x2="294.38604325701976" y1="0.5" y2="30"/><line opacity="0.2" x1="280.41028321905566" x2="280.41028321905566" y1="0.5" y2="30"/><line opacity="0.2" x1="268.77644838532694" x2="268.77644838532694" y1="0.5" y2="30"/><line opacity="0.2" x1="406.60864612388156" x2="406.60864612388156" y1="0.5" y2="30"/><line opacity="0.2" x1="379.8278816869895" x2="379.8278816869895" y1="0.5" y2="30"/><line opacity="0.2" x1="389.71758651662077" x2="389.71758651662077" y1="0.5" y2="30"/><line opacity="0.2" x1="368.02124496543826" x2="368.02124496543826" y1="0.5" y2="30"/><line opacity="0.2" x1="271.6480822390687" x2="271.6480822390687" y1="0.5" y2="30"/><line opacity="0.2" x1="347.83822384619384" x2="347.83822384619384" y1="0.5" y2="30"/><line opacity="0.2" x1="270.8745050625867" x2="270.8745050625867" y1="0.5" y2="30"/><line opacity="0.2" x1="184.5233636398754" x2="184.5233636398754" y1="0.5" y2="30"/><line opacity="0.2" x1="488.1476718775488" x2="488.1476718775488" y1="0.5" y2="30"/><line opacity="0.2" x1="233.9757020043686" x2="233.9757020043686" y1="0.5" y2="30"/><line opacity="0.2" x1="175.72303098490744" x2="175.72303098490744" y1="0.5" y2="30"/><line opacity="0.2" x1="179.45203215378316" x2="179.45203215378316" y1="0.5" y2="30"/><line opacity="0.2" x1="348.29001996472846" x2="348.29001996472846" y1="0.5" y2="30"/><line opacity="0.2" x1="179.46786367812226" x2="179.46786367812226" y1="0.5" y2="30"/><line opacity="0.2" x1="408.058143727542" x2="408.058143727542" y1="0.5" y2="30"/><line opacity="0.2" x1="157.2639083489746" x2="157.2639083489746" y1="0.5" y2="30"/><line opacity="0.2" x1="133.5250680050729" x2="133.5250680050729" y1="0.5" y2="30"/><line opacity="0.2" x1="330.4224128485132" x2="330.4224128485132" y1="0.5" y2="30"/><line opacity="0.2" x1="274.337821938974" x2="274.337821938974" y1="0.5" y2="30"/><line opacity="0.2" x1="159.00747959487674" x2="159.00747959487674" y1="0.5" y2="30"/><line opacity="0.2" x1="340.191332256868" x2="340.191332256868" y1="0.5" y2="30"/><line opacity="0.2" x1="257.2971465197591" x2="257.2971465197591" y1="0.5" y2="30"/><line opacity="0.2" x1="403.66136341438045" x2="403.66136341438045" y1="0.5" y2="30"/><line opacity="0.2" x1="154.2342859317683" x2="154.2342859317683" y1="0.5" y2="30"/><line opacity="0.2" x1="313.070293993164" x2="313.070293993164" y1="0.5" y2="30"/><line opacity="0.2" x1="334.37236108920365" x2="334.37236108920365" y1="0.5" y2="30"/><line opacity="0.2" x1="453.6702576937947" x2="453.6702576937947" y1="0.5" y2="30"/><line opacity="0.2" x1="299.3322266596631" x2="299.3322266596631" y1="0.5" y2="30"/><line opacity="0.2" x1="299.48433759078665" x2="299.48433759078665" y1="0.5" y2="30"/><line opacity="0.2" x1="96.74064664393751" x2="96.74064664393751" y1="0.5" y2="30"/><line opacity="0.2" x1="245.19399087183572" x2="245.19399087183572" y1="0.5" y2="30"/><line opacity="0.2" x1="377.31839573759606" x2="377.31839573759606" y1="0.5" y2="30"/><line opacity="0.2" x1="391.72944970696676" x2="391.72944970696676" y1="0.5" y2="30"/><line opacity="0.2" x1="222.81162759807623" x2="222.81162759807623" y1="0.5" y2="30"/><line opacity="0.2" x1="488.62782410302594" x2="488.62782410302594" y1="0.5" y2="30"/><line opacity="0.2" x1="298.07247905823874" x2="298.07247905823874" y1="0.5" y2="30"/><line opacity="0.2" x1="407.7366454135156" x2="407.7366454135156" y1="0.5" y2="30"/><line opacity="0.2" x1="328.44408341313124" x2="328.44408341313124" y1="0.5" y2="30"/><line opacity="0.2" x1="302.07702687734036" x2="302.07702687734036" y1="0.5" y2="30"/><line opacity="0.2" x1="403.1755238231937" x2="403.1755238231937" y1="0.5" y2="30"/><line opacity="0.2" x1="81.0626362893064" x2="81.0626362893064" y1="0.5" y2="30"/><line opacity="0.2" x1="289.8108911969858" x2="289.8108911969858" y1="0.5" y2="30"/><line opacity="0.2" x1="434.63954200945705" x2="434.63954200945705" y1="0.5" y2="30"/><line opacity="0.2" x1="409.75977948104685" x2="409.75977948104685" y1="0.5" y2="30"/><line opacity="0.2" x1="343.3346561569878" x2="343.3346561569878" y1="0.5" y2="30"/><line opacity="0.2" x1="317.32922428248764" x2="317.32922428248764" y1="0.5" y2="30"/><line opacity="0.2" x1="296.3445094408604" x2="296.3445094408604" y1="0.5" y2="30"/><line opacity="0.2" x1="270.07560821848574" x2="270.07560821848574" y1="0.5" y2="30"/><line opacity="0.2" x1="459.71351914285424" x2="459.71351914285424" y1="0.5" y2="30"/><line opacity="0.2" x1="302.3371991762591" x2="302.3371991762591" y1="0.5" y2="30"/><line opacity="0.2" x1="228.44372374342035" x2="228.44372374342035" y1="0.5" y2="30"/><line opacity="0.2" x1="309.16090370555906" x2="309.16090370555906" y1="0.5" y2="30"/><line opacity="0.2" x1="399.59326232280546" x2="399.59326232280546" y1="0.5" y2="30"/><line opacity="0.2" x1="277.79059128299014" x2="277.79059128299014" y1="0.5" y2="30"/><line opacity="0.2" x1="402.13901459237815" x2="402.13901459237815" y1="0.5" y2="30"/><line opacity="0.2" x1="387.24475442327196" x2="387.24475442327196" y1="0.5" y2="30"/><line opacity="0.2" x1="127.49309198701798" x2="127.49309198701798" y1="0.5" y2="30"/><line opacity="0.2" x1="365.8869965419011" x2="365.8869965419011" y1="0.5" y2="30"/><line opacity="0.2" x1="319.87676964546165" x2="319.87676964546165" y1="0.5" y2="30"/><line opacity="0.2" x1="91.78661535861569" x2="91.78661535861569" y1="0.5" y2="30"/><line opacity="0.2" x1="452.12913749948314" x2="452.12913749948314" y1="0.5" y2="30"/><line opacity="0.2" x1="479.54781243240865" x2="479.54781243240865" y1="0.5" y2="30"/><line opacity="0.2" x1="315.5494302619018" x2="315.5494302619018" y1="0.5" y2="30"/><line opacity="0.2" x1="379.73414905574987" x2="379.73414905574987" y1="0.5" y2="30"/><line opacity="0.2" x1="262.88621863206333" x2="262.88621863206333" y1="0.5" y2="30"/><line opacity="0.2" x1="301.6143920570763" x2="301.6143920570763" y1="0.5" y2="30"/><line opacity="0.2" x1="284.79046650734597" x2="284.79046650734597" y1="0.5" y2="30"/><line opacity="0.2" x1="194.04142176740442" x2="194.04142176740442" y1="0.5" y2="30"/><line opacity="0.2" x1="248.9230667730574" x2="248.9230667730574" y1="0.5" y2="30"/><line opacity="0.2" x1="325.826184243724" x2="325.826184243724" y1="0.5" y2="30"/><line opacity="0.2" x1="420.05040224592005" x2="420.05040224592005" y1="0.5" y2="30"/><line opacity="0.2" x1="283.34208766471255" x2="283.34208766471255" y1="0.5" y2="30"/><line opacity="0.2" x1="281.13486413677373" x2="281.13486413677373" y1="0.5" y2="30"/><line opacity="0.2" x1="416.4175676959851" x2="416.4175676959851" y1="0.5" y2="30"/><line opacity="0.2" x1="358.8530999093169" x2="358.8530999093169" y1="0.5" y2="30"/><line opacity="0.2" x1="314.09644281843214" x2="314.09644281843214" y1="0.5" y2="30"/><line opacity="0.2" x1="390.7434715270536" x2="390.7434715270536" y1="0.5" y2="30"/><line opacity="0.2" x1="299.7450649979649" x2="299.7450649979649" y1="0.5" y2="30"/><line opacity="0.2" x1="368.12617115956556" x2="368.12617115956556" y1="0.5" y2="30"/><line opacity="0.2" x1="378.226437970864" x2="378.226437970864" y1="0.5" y2="30"/><line opacity="0.2" x1="368.67584743762825" x2="368.67584743762825" y1="0.5" y2="30"/><line opacity="0.2" x1="363.09517654395864" x2="363.09517654395864" y1="0.5" y2="30"/><line opacity="0.2" x1="474.03058327089497" x2="474.03058327089497" y1="0.5" y2="30"/><line opacity="0.2" x1="280.37298661998415" x2="280.37298661998415" y1="0.5" y2="30"/><line opacity="0.2" x1="212.18581876765592" x2="212.18581876765592" y1="0.5" y2="30"/><line opacity="0.2" x1="315.7716887817435" x2="315.7716887817435" y1="0.5" y2="30"/><line opacity="0.2" x1="287.28146977051574" x2="287.28146977051574" y1="0.5" y2="30"/><line opacity="0.2" x1="151.87781547805247" x2="151.87781547805247" y1="0.5" y2="30"/><line opacity="0.2" x1="337.65150757612867" x2="337.65150757612867" y1="0.5" y2="30"/><line opacity="0.2" x1="299.28957051155254" x2="299.28957051155254" y1="0.5" y2="30"/><line opacity="0.2" x1="358.1780205901018" x2="358.1780205901018" y1="0.5" y2="30"/><line opacity="0.2" x1="362.0754188003352" x2="362.0754188003352" y1="0.5" y2="30"/><line opacity="0.2" x1="289.0353045540605" x2="289.0353045540605" y1="0.5" y2="30"/><line opacity="0.2" x1="436.7970139365212" x2="436.7970139365212" y1="0.5" y2="30"/><line opacity="0.2" x1="273.4988501492354" x2="273.4988501492354" y1="0.5" y2="30"/><line opacity="0.2" x1="245.41090164911205" x2="245.41090164911205" y1="0.5" y2="30"/><line opacity="0.2" x1="285.68002092191693" x2="285.68002092191693" y1="0.5" y2="30"/><line opacity="0.2" x1="390.09271081065293" x2="390.09271081065293" y1="0.5" y2="30"/><line opacity="0.2" x1="403.7829119853478" x2="403.7829119853478" y1="0.5" y2="30"/><line opacity="0.2" x1="367.6123440754643" x2="367.6123440754643" y1="0.5" y2="30"/><line opacity="0.2" x1="131.21994816211333" x2="131.21994816211333" y1="0.5" y2="30"/><line opacity="0.2" x1="305.8315069638447" x2="305.8315069638447" y1="0.5" y2="30"/><line opacity="0.2" x1="240.77493224341086" x2="240.77493224341086" y1="0.5" y2="30"/><line opacity="0.2" x1="447.06254633987703" x2="447.06254633987703" y1="0.5" y2="30"/><line opacity="0.2" x1="462.04627323649237" x2="462.04627323649237" y1="0.5" y2="30"/><line opacity="0.2" x1="298.25329586321493" x2="298.25329586321493" y1="0.5" y2="30"/><line opacity="0.2" x1="320.0842992645706" x2="320.0842992645706" y1="0.5" y2="30"/><line opacity="0.2" x1="387.7310823745489" x2="387.7310823745489" y1="0.5" y2="30"/><line opacity="0.2" x1="325.4407538892545" x2="325.4407538892545" y1="0.5" y2="30"/><line opacity="0.2" x1="314.08878374933806" x2="314.08878374933806" y1="0.5" y2="30"/><line opacity="0.2" x1="300.0075546262603" x2="300.0075546262603" y1="0.5" y2="30"/><line opacity="0.2" x1="191.49904257041783" x2="191.49904257041783" y1="0.5" y2="30"/><line opacity="0.2" x1="558.4498398077488" x2="558.4498398077488" y1="0.5" y2="30"/><line opacity="0.2" x1="425.49473110838716" x2="425.49473110838716" y1="0.5" y2="30"/><line opacity="0.2" x1="184.41188512379335" x2="184.41188512379335" y1="0.5" y2="30"/><line opacity="0.2" x1="369.8452643035445" x2="369.8452643035445" y1="0.5" y2="30"/><line opacity="0.2" x1="289.98540209831145" x2="289.98540209831145" y1="0.5" y2="30"/><line opacity="0.2" x1="348.41756698243694" x2="348.41756698243694" y1="0.5" y2="30"/><line opacity="0.2" x1="416.4048363941562" x2="416.4048363941562" y1="0.5" y2="30"/><line opacity="0.2" x1="355.48034749831385" x2="355.48034749831385" y1="0.5" y2="30"/><line opacity="0.2" x1="228.7010469240174" x2="228.7010469240174" y1="0.5" y2="30"/><line opacity="0.2" x1="359.46174596029437" x2="359.46174596029437" y1="0.5" y2="30"/><line opacity="0.2" x1="261.6128952702021" x2="261.6128952702021" y1="0.5" y2="30"/><line opacity="0.2" x1="410.1785524964419" x2="410.1785524964419" y1="0.5" y2="30"/><line opacity="0.2" x1="302.4644622759568" x2="302.4644622759568" y1="0.5" y2="30"/><line opacity="0.2" x1="388.43340568065247" x2="388.43340568065247" y1="0.5" y2="30"/><line opacity="0.2" x1="476.24851554321845" x2="476.24851554321845" y1="0.5" y2="30"/><line opacity="0.2" x1="170.9153248884244" x2="170.9153248884244" y1="0.5" y2="30"/><line opacity="0.2" x1="382.4867415423731" x2="382.4867415423731" y1="0.5" y2="30"/><line opacity="0.2" x1="299.83897440379315" x2="299.83897440379315" y1="0.5" y2="30"/><line opacity="0.2" x1="282.89150428741755" x2="282.89150428741755" y1="0.5" y2="30"/><line opacity="0.2" x1="435.294595600925" x2="435.294595600925" y1="0.5" y2="30"/><line opacity="0.2" x1="263.381832599964" x2="263.381832599964" y1="0.5" y2="30"/><line opacity="0.2" x1="409.3803336919034" x2="409.3803336919034" y1="0.5" y2="30"/><line opacity="0.2" x1="302.76138487694027" x2="302.76138487694027" y1="0.5" y2="30"/><line opacity="0.2" x1="523.6797167869211" x2="523.6797167869211" y1="0.5" y2="30"/><line opacity="0.2" x1="402.5845482939681" x2="402.5845482939681" y1="0.5" y2="30"/><line opacity="0.2" x1="382.11020275397533" x2="382.11020275397533" y1="0.5" y2="30"/><line opacity="0.2" x1="342.3478015150382" x2="342.3478015150382" y1="0.5" y2="30"/><line opacity="0.2" x1="223.99504254391024" x2="223.99504254391024" y1="0.5" y2="30"/><line opacity="0.2" x1="287.6859967791883" x2="287.6859967791883" y1="0.5" y2="30"/><line opacity="0.2" x1="394.7324890745477" x2="394.7324890745477" y1="0.5" y2="30"/><line opacity="0.2" x1="285.0019916913588" x2="285.0019916913588" y1="0.5" y2="30"/><line opacity="0.2" x1="305.5713003138631" x2="305.5713003138631" y1="0.5" y2="30"/><line opacity="0.2" x1="255.33336433046236" x2="255.33336433046236" y1="0.5" y2="30"/><line opacity="0.2" x1="375.36279591028244" x2="375.36279591028244" y1="0.5" y2="30"/><line opacity="0.2" x1="291.6451220938519" x2="291.6451220938519" y1="0.5" y2="30"/><line opacity="0.2" x1="152.58408004685666" x2="152.58408004685666" y1="0.5" y2="30"/><line opacity="0.2" x1="173.04518228250035" x2="173.04518228250035" y1="0.5" y2="30"/><line opacity="0.2" x1="332.6498694267829" x2="332.6498694267829" y1="0.5" y2="30"/><line opacity="0.2" x1="319.06045063366724" x2="319.06045063366724" y1="0.5" y2="30"/><line opacity="0.2" x1="405.76408546813485" x2="405.76408546813485" y1="0.5" y2="30"/><line opacity="0.2" x1="360.4092478693413" x2="360.4092478693413" y1="0.5" y2="30"/><line opacity="0.2" x1="282.63292361469365" x2="282.63292361469365" y1="0.5" y2="30"/><line opacity="0.2" x1="256.5570405906139" x2="256.5570405906139" y1="0.5" y2="30"/><line opacity="0.2" x1="448.51717837791745" x2="448.51717837791745" y1="0.5" y2="30"/><line opacity="0.2" x1="266.3793834957239" x2="266.3793834957239" y1="0.5" y2="30"/><line opacity="0.2" x1="462.6802927621504" x2="462.6802927621504" y1="0.5" y2="30"/><line opacity="0.2" x1="326.70463468678037" x2="326.70463468678037" y1="0.5" y2="30"/><line opacity="0.2" x1="322.5079451927771" x2="322.5079451927771" y1="0.5" y2="30"/><line opacity="0.2" x1="473.6312302453872" x2="473.6312302453872" y1="0.5" y2="30"/><line opacity="0.2" x1="269.7541410298087" x2="269.7541410298087" y1="0.5" y2="30"/><line opacity="0.2" x1="348.5695854708971" x2="348.5695854708971" y1="0.5" y2="30"/><line opacity="0.2" x1="284.22076274512983" x2="284.22076274512983" y1="0.5" y2="30"/><line opacity="0.2" x1="231.63337768548695" x2="231.63337768548695" y1="0.5" y2="30"/><line opacity="0.2" x1="375.09149908158497" x2="375.09149908158497" y1="0.5" y2="30"/><line opacity="0.2" x1="478.06191574474985" x2="478.06191574474985" y1="0.5" y2="30"/><line opacity="0.2" x1="271.01806688840514" x2="271.01806688840514" y1="0.5" y2="30"/><line opacity="0.2" x1="407.58824881274234" x2="407.58824881274234" y1="0.5" y2="30"/><line opacity="0.2" x1="257.3615633013605" x2="257.3615633013605" y1="0.5" y2="30"/><line opacity="0.2" x1="431.6142451209973" x2="431.6142451209973" y1="0.5" y2="30"/><line opacity="0.2" x1="246.95919577567872" x2="246.95919577567872" y1="0.5" y2="30"/><line opacity="0.2" x1="204.73140046059385" x2="204.73140046059385" y1="0.5" y2="30"/><line opacity="0.2" x1="406.5182852741552" x2="406.5182852741552" y1="0.5" y2="30"/><line opacity="0.2" x1="418.35032004841327" x2="418.35032004841327" y1="0.5" y2="30"/><line opacity="0.2" x1="298.9581877229589" x2="298.9581877229589" y1="0.5" y2="30"/><line opacity="0.2" x1="498.49974234815903" x2="498.49974234815903" y1="0.5" y2="30"/><line opacity="0.2" x1="321.56886039789424" x2="321.56886039789424" y1="0.5" y2="30"/><line opacity="0.2" x1="318.33490974521686" x2="318.33490974521686" y1="0.5" y2="30"/><line opacity="0.2" x1="202.16104628626286" x2="202.16104628626286" y1="0.5" y2="30"/><line opacity="0.2" x1="335.55178867533397" x2="335.55178867533397" y1="0.5" y2="30"/><line opacity="0.2" x1="237.53341219183588" x2="237.53341219183588" y1="0.5" y2="30"/><line opacity="0.2" x1="241.4192317166573" x2="241.4192317166573" y1="0.5" y2="30"/><line opacity="0.2" x1="317.6703878748714" x2="317.6703878748714" y1="0.5" y2="30"/><line opacity="0.2" x1="300.7649980424663" x2="300.7649980424663" y1="0.5" y2="30"/><line opacity="0.2" x1="292.23354474588575" x2="292.23354474588575" y1="0.5" y2="30"/><line opacity="0.2" x1="310.62222146536124" x2="310.62222146536124" y1="0.5" y2="30"/><line opacity="0.2" x1="443.06662530438757" x2="443.06662530438757" y1="0.5" y2="30"/><line opacity="0.2" x1="494.2104164005231" x2="494.2104164005231" y1="0.5" y2="30"/><line opacity="0.2" x1="281.1951553778306" x2="281.1951553778306" y1="0.5" y2="30"/><line opacity="0.2" x1="202.71769662938036" x2="202.71769662938036" y1="0.5" y2="30"/><line opacity="0.2" x1="300.85404997124004" x2="300.85404997124004" y1="0.5" y2="30"/><line opacity="0.2" x1="440.7893399850138" x2="440.7893399850138" y1="0.5" y2="30"/><line opacity="0.2" x1="583.5975139030592" x2="583.5975139030592" y1="0.5" y2="30"/><line opacity="0.2" x1="328.87032196104235" x2="328.87032196104235" y1="0.5" y2="30"/><line opacity="0.2" x1="308.00679438373334" x2="308.00679438373334" y1="0.5" y2="30"/><line opacity="0.2" x1="212.64762834349233" x2="212.64762834349233" y1="0.5" y2="30"/><line opacity="0.2" x1="352.59970310987325" x2="352.59970310987325" y1="0.5" y2="30"/><line opacity="0.2" x1="347.9180618722694" x2="347.9180618722694" y1="0.5" y2="30"/><line opacity="0.2" x1="454.38855773953077" x2="454.38855773953077" y1="0.5" y2="30"/><line opacity="0.2" x1="339.77835254361776" x2="339.77835254361776" y1="0.5" y2="30"/><line opacity="0.2" x1="405.79323809495634" x2="405.79323809495634" y1="0.5" y2="30"/><line opacity="0.2" x1="544.4142550239419" x2="544.4142550239419" y1="0.5" y2="30"/><line opacity="0.2" x1="293.57715238793605" x2="293.57715238793605" y1="0.5" y2="30"/><line opacity="0.2" x1="198.9038210041839" x2="198.9038210041839" y1="0.5" y2="30"/><line opacity="0.2" x1="510.4365892869796" x2="510.4365892869796" y1="0.5" y2="30"/><line opacity="0.2" x1="388.257000757039" x2="388.257000757039" y1="0.5" y2="30"/><line opacity="0.2" x1="288.41169201362163" x2="288.41169201362163" y1="0.5" y2="30"/><line opacity="0.2" x1="399.151547215166" x2="399.151547215166" y1="0.5" y2="30"/><line opacity="0.2" x1="303.0279747256169" x2="303.0279747256169" y1="0.5" y2="30"/><line opacity="0.2" x1="327.7690252143085" x2="327.7690252143085" y1="0.5" y2="30"/><line opacity="0.2" x1="401.84651499680433" x2="401.84651499680433" y1="0.5" y2="30"/><line opacity="0.2" x1="263.6680967178177" x2="263.6680967178177" y1="0.5" y2="30"/><line opacity="0.2" x1="227.60355460756526" x2="227.60355460756526" y1="0.5" y2="30"/><line opacity="0.2" x1="342.64847445169545" x2="342.64847445169545" y1="0.5" y2="30"/><line opacity="0.2" x1="295.8955305373536" x2="295.8955305373536" y1="0.5" y2="30"/><line opacity="0.2" x1="222.3054385365321" x2="222.3054385365321" y1="0.5" y2="30"/><line opacity="0.2" x1="196.95198513178258" x2="196.95198513178258" y1="0.5" y2="30"/><line opacity="0.2" x1="446.0169884002327" x2="446.0169884002327" y1="0.5" y2="30"/><line opacity="0.2" x1="147.99532061834296" x2="147.99532061834296" y1="0.5" y2="30"/><line opacity="0.2" x1="325.36977331252706" x2="325.36977331252706" y1="0.5" y2="30"/><line opacity="0.2" x1="329.05793917034845" x2="329.05793917034845" y1="0.5" y2="30"/><line opacity="0.2" x1="203.40714887879176" x2="203.40714887879176" y1="0.5" y2="30"/><line opacity="0.2" x1="226.7229340079594" x2="226.7229340079594" y1="0.5" y2="30"/><line opacity="0.2" x1="516.2255979669633" x2="516.2255979669633" y1="0.5" y2="30"/><line opacity="0.2" x1="439.0787912162992" x2="439.0787912162992" y1="0.5" y2="30"/><line opacity="0.2" x1="292.6604911366073" x2="292.6604911366073" y1="0.5" y2="30"/><line opacity="0.2" x1="389.09281445640534" x2="389.09281445640534" y1="0.5" y2="30"/><line opacity="0.2" x1="166.8765407972916" x2="166.8765407972916" y1="0.5" y2="30"/><line opacity="0.2" x1="229.66782515344045" x2="229.66782515344045" y1="0.5" y2="30"/><line opacity="0.2" x1="507.93609540825383" x2="507.93609540825383" y1="0.5" y2="30"/><line opacity="0.2" x1="298.27830372057304" x2="298.27830372057304" y1="0.5" y2="30"/><line opacity="0.2" x1="265.4924860909803" x2="265.4924860909803" y1="0.5" y2="30"/><line opacity="0.2" x1="381.6626417424599" x2="381.6626417424599" y1="0.5" y2="30"/><line opacity="0.2" x1="396.28531182554946" x2="396.28531182554946" y1="0.5" y2="30"/><line opacity="0.2" x1="227.63178950371724" x2="227.63178950371724" y1="0.5" y2="30"/><line opacity="0.2" x1="394.14482618291794" x2="394.14482618291794" y1="0.5" y2="30"/><line opacity="0.2" x1="314.7494136240032" x2="314.7494136240032" y1="0.5" y2="30"/><line opacity="0.2" x1="250.2949208766298" x2="250.2949208766298" y1="0.5" y2="30"/><line opacity="0.2" x1="462.60481222444326" x2="462.60481222444326" y1="0.5" y2="30"/><line opacity="0.2" x1="320.8131337888696" x2="320.8131337888696" y1="0.5" y2="30"/><line opacity="0.2" x1="355.12785144997076" x2="355.12785144997076" y1="0.5" y2="30"/><line opacity="0.2" x1="418.06219334128815" x2="418.06219334128815" y1="0.5" y2="30"/><line opacity="0.2" x1="260.73439521795325" x2="260.73439521795325" y1="0.5" y2="30"/><line opacity="0.2" x1="360.2955964189119" x2="360.2955964189119" y1="0.5" y2="30"/><line opacity="0.2" x1="378.3123937406084" x2="378.3123937406084" y1="0.5" y2="30"/><line opacity="0.2" x1="335.80795793000283" x2="335.80795793000283" y1="0.5" y2="30"/><line opacity="0.2" x1="335.7932707055593" x2="335.7932707055593" y1="0.5" y2="30"/><line opacity="0.2" x1="337.062742473976" x2="337.062742473976" y1="0.5" y2="30"/><line opacity="0.2" x1="427.2418328716977" x2="427.2418328716977" y1="0.5" y2="30"/><line opacity="0.2" x1="361.0736477260358" x2="361.0736477260358" y1="0.5" y2="30"/><line opacity="0.2" x1="495.29276409968924" x2="495.29276409968924" y1="0.5" y2="30"/><line opacity="0.2" x1="213.54274644422696" x2="213.54274644422696" y1="0.5" y2="30"/><line opacity="0.2" x1="354.9220447074819" x2="354.9220447074819" y1="0.5" y2="30"/><line opacity="0.2" x1="265.2490596690452" x2="265.2490596690452" y1="0.5" y2="30"/><line opacity="0.2" x1="357.3259291279665" x2="357.3259291279665" y1="0.5" y2="30"/><line opacity="0.2" x1="106.6506136802947" x2="106.6506136802947" y1="0.5" y2="30"/><line opacity="0.2" x1="318.66133715451036" x2="318.66133715451036" y1="0.5" y2="30"/><line opacity="0.2" x1="325.6832272429848" x2="325.6832272429848" y1="0.5" y2="30"/><line opacity="0.2" x1="335.98419924958" x2="335.98419924958" y1="0.5" y2="30"/><line opacity="0.2" x1="320.7486691750523" x2="320.7486691750523" y1="0.5" y2="30"/><line opacity="0.2" x1="130.09580994180791" x2="130.09580994180791" y1="0.5" y2="30"/><line opacity="0.2" x1="322.98607927103683" x2="322.98607927103683" y1="0.5" y2="30"/><line opacity="0.2" x1="231.2866088637568" x2="231.2866088637568" y1="0.5" y2="30"/><line opacity="0.2" x1="492.4521245146475" x2="492.4521245146475" y1="0.5" y2="30"/><line opacity="0.2" x1="308.80292266440307" x2="308.80292266440307" y1="0.5" y2="30"/><line opacity="0.2" x1="263.9368241196233" x2="263.9368241196233" y1="0.5" y2="30"/><line opacity="0.2" x1="338.9730854857827" x2="338.9730854857827" y1="0.5" y2="30"/><line opacity="0.2" x1="270.46832924964616" x2="270.46832924964616" y1="0.5" y2="30"/><line opacity="0.2" x1="230.91786340437056" x2="230.91786340437056" y1="0.5" y2="30"/><line opacity="0.2" x1="218.23241837719678" x2="218.23241837719678" y1="0.5" y2="30"/><line opacity="0.2" x1="409.68162041307716" x2="409.68162041307716" y1="0.5" y2="30"/><line opacity="0.2" x1="174.92934358579686" x2="174.92934358579686" y1="0.5" y2="30"/><line opacity="0.2" x1="367.7728863183579" x2="367.7728863183579" y1="0.5" y2="30"/><line opacity="0.2" x1="427.44320501621155" x2="427.44320501621155" y1="0.5" y2="30"/><line opacity="0.2" x1="344.5755838560487" x2="344.5755838560487" y1="0.5" y2="30"/><line opacity="0.2" x1="209.47056077700955" x2="209.47056077700955" y1="0.5" y2="30"/><line opacity="0.2" x1="470.54513600486064" x2="470.54513600486064" y1="0.5" y2="30"/><line opacity="0.2" x1="456.47448277097783" x2="456.47448277097783" y1="0.5" y2="30"/><line opacity="0.2" x1="348.1427331673712" x2="348.1427331673712" y1="0.5" y2="30"/><line opacity="0.2" x1="365.0629071876477" x2="365.0629071876477" y1="0.5" y2="30"/><line opacity="0.2" x1="266.8516407774424" x2="266.8516407774424" y1="0.5" y2="30"/><line opacity="0.2" x1="171.09309109635046" x2="171.09309109635046" y1="0.5" y2="30"/><line opacity="0.2" x1="460.51545648448587" x2="460.51545648448587" y1="0.5" y2="30"/><line opacity="0.2" x1="451.13647845664144" x2="451.13647845664144" y1="0.5" y2="30"/><line opacity="0.2" x1="298.00868908067883" x2="298.00868908067883" y1="0.5" y2="30"/><line opacity="0.2" x1="368.00711334133325" x2="368.00711334133325" y1="0.5" y2="30"/><line opacity="0.2" x1="199.81513586025102" x2="199.81513586025102" y1="0.5" y2="30"/><line opacity="0.2" x1="269.82822321946855" x2="269.82822321946855" y1="0.5" y2="30"/><line opacity="0.2" x1="260.4656585900209" x2="260.4656585900209" y1="0.5" y2="30"/><line opacity="0.2" x1="402.48119587722766" x2="402.48119587722766" y1="0.5" y2="30"/><line opacity="0.2" x1="215.4624421027624" x2="215.4624421027624" y1="0.5" y2="30"/><line opacity="0.2" x1="293.42157309962494" x2="293.42157309962494" y1="0.5" y2="30"/><line opacity="0.2" x1="424.0720830466518" x2="424.0720830466518" y1="0.5" y2="30"/></g></svg>