<svg xmlns="http://www.w3.org/2000/svg" xmlns:xlink="http://www.w3.org/1999/xlink" class="plot-e87184be0c2fe" fill="currentColor" font-family="system-ui, sans-serif" font-size="10" text-anchor="middle" width="640" height="60" viewBox="0 0 640 60" style="color: black;"><style>
        .plot-e87184be0c2fe {
          display: block;
          background: white;
          height: auto;
          height: intrinsic;
          max-width: 100%;
        }
        .plot-e87184be0c2fe text,
        .plot-e87184be0c2fe tspan {
          white-space: pre;
        }
      </style><g aria-label="x-axis tick" fill="none" stroke="currentColor" transform="translate(0.5,0)"><path transform="translate(40.0344470606903,30)" d="M0,0L0,6"/><path transform="translate(138.6566684972695,30)" d="M0,0L0,6"/><path transform="translate(237.27888993384866,30)" d="M0,0L0,6"/><path transform="translate(335.9011113704278,30)" d="M0,0L0,6"/><path transform="translate(434.52333280700697,30)" d="M0,0L0,6"/><path transform="translate(533.1455542435862,30)" d="M0,0L0,6"/></g><g aria-label="x-axis tick label" font-variant="tabular-nums" transform="translate(0.5,9.5)"><text y="0.71em" transform="translate(40.0344470606903,30)">−3</text><text y="0.71em" transform="translate(138.6566684972695,30)">−2</text><text y="0.71em" transform="translate(237.27888993384866,30)">−1</text><text y="0.71em" transform="translate(335.9011113704278,30)">0</text><text y="0.71em" transform="translate(434.52333280700697,30)">1</text><text y="0.71em" transform="translate(533.1455542435862,30)">2</text></g><g aria-label="tick" stroke="steelblue" transform="translate(0.5,0)"><line opacity="0.2" x1="272.67233305297555" x2="272.67233305297555" y1="0" y2="30"/><line opacity="0.2" x1="429.75358832699743" x2="429.75358832699743" y1="0" y2="30"/><line opacity="0.2" x1="170.98858337081276" x2="170.98858337081276" y1="0" y2="30"/><line opacity="0.2" x1="460.9411671124252" x2="460.9411671124252" y1="0" y2="30"/><line opacity="0.2" x1="336.022600401234" x2="336.022600401234" y1="0" y2="30"/><line opacity="0.2" x1="312.3261516403197" x2="312.3261516403197" y1="0" y2="30"/><line opacity="0.2" x1="162.37883397668082" x2="162.37883397668082" y1="0" y2="30"/><line opacity="0.2" x1="283.19002529483237" x2="283.19002529483237" y1="0" y2="30"/><line opacity="0.2" x1="220.35854961008917" x2="220.35854961008917" y1="0" y2="30"/><line opacity="0.2" x1="251.63882937121733" x2="251.63882937121733" y1="0" y2="30"/><line opacity="0.2" x1="148.20260741521165" x2="148.20260741521165" y1="0" y2="30"/><line opacity="0.2" x1="438.67091608816884" x2="438.67091608816884" y1="0" y2="30"/><line opacity="0.2" x1="426.6994045032209" x2="426.6994045032209" y1="0" y2="30"/><line opacity="0.2" x1="256.43838235047224" x2="256.43838235047224" y1="0" y2="30"/><line opacity="0.2" x1="418.7606725548546" x2="418.7606725548546" y1="0" y2="30"/><line opacity="0.2" x1="177.65761099509155" x2="177.65761099509155" y1="0" y2="30"/><line opacity="0.2" x1="310.69864666169394" x2="310.69864666169394" y1="0" y2="30"/><line opacity="0.2" x1="410.90938850745295" x2="410.90938850745295" y1="0" y2="30"/><line opacity="0.2" x1="306.2924984760234" x2="306.2924984760234" y1="0" y2="30"/><line opacity="0.2" x1="238.77328068049556" x2="238.77328068049556" y1="0" y2="30"/><line opacity="0.2" x1="263.3484381889371" x2="263.3484381889371" y1="0" y2="30"/><line opacity="0.2" x1="361.9398474107888" x2="361.9398474107888" y1="0" y2="30"/><line opacity="0.2" x1="207.84650154264887" x2="207.84650154264887" y1="0" y2="30"/><line opacity="0.2" x1="409.6276014742421" x2="409.6276014742421" y1="0" y2="30"/><line opacity="0.2" x1="291.50392112345094" x2="291.50392112345094" y1="0" y2="30"/><line opacity="0.2" x1="234.0253897792502" x2="234.0253897792502" y1="0" y2="30"/><line opacity="0.2" x1="446.29270475438426" x2="446.29270475438426" y1="0" y2="30"/><line opacity="0.2" x1="469.31875700825935" x2="469.31875700825935" y1="0" y2="30"/><line opacity="0.2" x1="386.40692415121816" x2="386.40692415121816" y1="0" y2="30"/><line opacity="0.2" x1="326.5384594384688" x2="326.5384594384688" y1="0" y2="30"/><line opacity="0.2" x1="441.70688813078687" x2="441.70688813078687" y1="0" y2="30"/><line opacity="0.2" x1="398.4677104895728" x2="398.4677104895728" y1="0" y2="30"/><line opacity="0.2" x1="599.7280812787337" x2="599.7280812787337" y1="0" y2="30"/><line opacity="0.2" x1="337.6242200174781" x2="337.6242200174781" y1="0" y2="30"/><line opacity="0.2" x1="374.0043056161015" x2="374.0043056161015" y1="0" y2="30"/><line opacity="0.2" x1="303.0480012162831" x2="303.0480012162831" y1="0" y2="30"/><line opacity="0.2" x1="204.57107444121215" x2="204.57107444121215" y1="0" y2="30"/><line opacity="0.2" x1="418.27452253802096" x2="418.27452253802096" y1="0" y2="30"/><line opacity="0.2" x1="409.3744276415402" x2="409.3744276415402" y1="0" y2="30"/><line opacity="0.2" x1="350.1731935361882" x2="350.1731935361882" y1="0" y2="30"/><line opacity="0.2" x1="156.63679698044777" x2="156.63679698044777" y1="0" y2="30"/><line opacity="0.2" x1="336.5359370996905" x2="336.5359370996905" y1="0" y2="30"/><line opacity="0.2" x1="507.51909125437635" x2="507.51909125437635" y1="0" y2="30"/><line opacity="0.2" x1="468.955946460736" x2="468.955946460736" y1="0" y2="30"/><line opacity="0.2" x1="325.5240545621776" x2="325.5240545621776" y1="0" y2="30"/><line opacity="0.2" x1="467.78603187578676" x2="467.78603187578676" y1="0" y2="30"/><line opacity="0.2" x1="284.95547279446043" x2="284.95547279446043" y1="0" y2="30"/><line opacity="0.2" x1="280.82137089261454" x2="280.82137089261454" y1="0" y2="30"/><line opacity="0.2" x1="466.23208736968354" x2="466.23208736968354" y1="0" y2="30"/><line opacity="0.2" x1="320.83376145322273" x2="320.83376145322273" y1="0" y2="30"/><line opacity="0.2" x1="449.0667405790143" x2="449.0667405790143" y1="0" y2="30"/><line opacity="0.2" x1="378.14203276359603" x2="378.14203276359603" y1="0" y2="30"/><line opacity="0.2" x1="361.41238925796085" x2="361.41238925796085" y1="0" y2="30"/><line opacity="0.2" x1="456.9960607371001" x2="456.9960607371001" y1="0" y2="30"/><line opacity="0.2" x1="210.36426520213362" x2="210.36426520213362" y1="0" y2="30"/><line opacity="0.2" x1="401.27233670895157" x2="401.27233670895157" y1="0" y2="30"/><line opacity="0.2" x1="218.34354385726843" x2="218.34354385726843" y1="0" y2="30"/><line opacity="0.2" x1="262.64605147252445" x2="262.64605147252445" y1="0" y2="30"/><line opacity="0.2" x1="146.79017713739745" x2="146.79017713739745" y1="0" y2="30"/><line opacity="0.2" x1="345.0736123172851" x2="345.0736123172851" y1="0" y2="30"/><line opacity="0.2" x1="359.5513856451396" x2="359.5513856451396" y1="0" y2="30"/><line opacity="0.2" x1="542.2755014707309" x2="542.2755014707309" y1="0" y2="30"/><line opacity="0.2" x1="320.0494523730869" x2="320.0494523730869" y1="0" y2="30"/><line opacity="0.2" x1="379.2008156577627" x2="379.2008156577627" y1="0" y2="30"/><line opacity="0.2" x1="211.98642069207446" x2="211.98642069207446" y1="0" y2="30"/><line opacity="0.2" x1="317.1923305712945" x2="317.1923305712945" y1="0" y2="30"/><line opacity="0.2" x1="372.96246813191823" x2="372.96246813191823" y1="0" y2="30"/><line opacity="0.2" x1="336.82856446890224" x2="336.82856446890224" y1="0" y2="30"/><line opacity="0.2" x1="310.7024726462344" x2="310.7024726462344" y1="0" y2="30"/><line opacity="0.2" x1="168.11594967053117" x2="168.11594967053117" y1="0" y2="30"/><line opacity="0.2" x1="570.6097613423441" x2="570.6097613423441" y1="0" y2="30"/><line opacity="0.2" x1="360.08298705503444" x2="360.08298705503444" y1="0" y2="30"/><line opacity="0.2" x1="370.05248259059505" x2="370.05248259059505" y1="0" y2="30"/><line opacity="0.2" x1="381.52752396466707" x2="381.52752396466707" y1="0" y2="30"/><line opacity="0.2" x1="354.81871031149836" x2="354.81871031149836" y1="0" y2="30"/><line opacity="0.2" x1="301.28507619558343" x2="301.28507619558343" y1="0" y2="30"/><line opacity="0.2" x1="404.9067820811623" x2="404.9067820811623" y1="0" y2="30"/><line opacity="0.2" x1="127.92570192958505" x2="127.92570192958505" y1="0" y2="30"/><line opacity="0.2" x1="327.6054799490073" x2="327.6054799490073" y1="0" y2="30"/><line opacity="0.2" x1="329.2671051558487" x2="329.2671051558487" y1="0" y2="30"/><line opacity="0.2" x1="289.15357462748426" x2="289.15357462748426" y1="0" y2="30"/><line opacity="0.2" x1="343.3436313434812" x2="343.3436313434812" y1="0" y2="30"/><line opacity="0.2" x1="245.79036415197743" x2="245.79036415197743" y1="0" y2="30"/><line opacity="0.2" x1="398.72521059921075" x2="398.72521059921075" y1="0" y2="30"/><line opacity="0.2" x1="393.75260488464687" x2="393.75260488464687" y1="0" y2="30"/><line opacity="0.2" x1="406.3007143958744" x2="406.3007143958744" y1="0" y2="30"/><line opacity="0.2" x1="311.00076404473305" x2="311.00076404473305" y1="0" y2="30"/><line opacity="0.2" x1="447.2524891346771" x2="447.2524891346771" y1="0" y2="30"/><line opacity="0.2" x1="347.5132958512744" x2="347.5132958512744" y1="0" y2="30"/><line opacity="0.2" x1="267.80262914806355" x2="267.80262914806355" y1="0" y2="30"/><line opacity="0.2" x1="397.3998533872224" x2="397.3998533872224" y1="0" y2="30"/><line opacity="0.2" x1="304.4684824864351" x2="304.4684824864351" y1="0" y2="30"/><line opacity="0.2" x1="325.0739694943302" x2="325.0739694943302" y1="0" y2="30"/><line opacity="0.2" x1="453.9585562372318" x2="453.9585562372318" y1="0" y2="30"/><line opacity="0.2" x1="268.83100473581095" x2="268.83100473581095" y1="0" y2="30"/><line opacity="0.2" x1="345.93080073813024" x2="345.93080073813024" y1="0" y2="30"/><line opacity="0.2" x1="458.409359945651" x2="458.409359945651" y1="0" y2="30"/><line opacity="0.2" x1="286.99349842761137" x2="286.99349842761137" y1="0" y2="30"/><line opacity="0.2" x1="408.24926222219955" x2="408.24926222219955" y1="0" y2="30"/><line opacity="0.2" x1="238.71652303220392" x2="238.71652303220392" y1="0" y2="30"/><line opacity="0.2" x1="378.8844115921047" x2="378.8844115921047" y1="0" y2="30"/><line opacity="0.2" x1="399.6150522393434" x2="399.6150522393434" y1="0" y2="30"/><line opacity="0.2" x1="272.86031744491163" x2="272.86031744491163" y1="0" y2="30"/><line opacity="0.2" x1="290.7280863786933" x2="290.7280863786933" y1="0" y2="30"/><line opacity="0.2" x1="410.7415337958699" x2="410.7415337958699" y1="0" y2="30"/><line opacity="0.2" x1="233.2715993559668" x2="233.2715993559668" y1="0" y2="30"/><line opacity="0.2" x1="370.6630651009078" x2="370.6630651009078" y1="0" y2="30"/><line opacity="0.2" x1="408.4512115262872" x2="408.4512115262872" y1="0" y2="30"/><line opacity="0.2" x1="234.9089078323977" x2="234.9089078323977" y1="0" y2="30"/><line opacity="0.2" x1="258.59698643364726" x2="258.59698643364726" y1="0" y2="30"/><line opacity="0.2" x1="218.8763522133981" x2="218.8763522133981" y1="0" y2="30"/><line opacity="0.2" x1="478.4698637866252" x2="478.4698637866252" y1="0" y2="30"/><line opacity="0.2" x1="320.695949874239" x2="320.695949874239" y1="0" y2="30"/><line opacity="0.2" x1="285.5300468620102" x2="285.5300468620102" y1="0" y2="30"/><line opacity="0.2" x1="198.7329325185605" x2="198.7329325185605" y1="0" y2="30"/><line opacity="0.2" x1="259.76430290253575" x2="259.76430290253575" y1="0" y2="30"/><line opacity="0.2" x1="356.62101793153573" x2="356.62101793153573" y1="0" y2="30"/><line opacity="0.2" x1="373.3113362713326" x2="373.3113362713326" y1="0" y2="30"/><line opacity="0.2" x1="362.05189054677265" x2="362.05189054677265" y1="0" y2="30"/><line opacity="0.2" x1="403.3944885765863" x2="403.3944885765863" y1="0" y2="30"/><line opacity="0.2" x1="412.1376545308195" x2="412.1376545308195" y1="0" y2="30"/><line opacity="0.2" x1="250.89511391664894" x2="250.89511391664894" y1="0" y2="30"/><line opacity="0.2" x1="414.6041965964995" x2="414.6041965964995" y1="0" y2="30"/><line opacity="0.2" x1="254.97130661948552" x2="254.97130661948552" y1="0" y2="30"/><line opacity="0.2" x1="403.79501149934725" x2="403.79501149934725" y1="0" y2="30"/><line opacity="0.2" x1="214.9685767285532" x2="214.9685767285532" y1="0" y2="30"/><line opacity="0.2" x1="350.6139258866143" x2="350.6139258866143" y1="0" y2="30"/><line opacity="0.2" x1="268.47214370209076" x2="268.47214370209076" y1="0" y2="30"/><line opacity="0.2" x1="235.3468637259217" x2="235.3468637259217" y1="0" y2="30"/><line opacity="0.2" x1="218.9928857832211" x2="218.9928857832211" y1="0" y2="30"/><line opacity="0.2" x1="331.93048307970525" x2="331.93048307970525" y1="0" y2="30"/><line opacity="0.2" x1="198.57506604251964" x2="198.57506604251964" y1="0" y2="30"/><line opacity="0.2" x1="362.87532458611616" x2="362.87532458611616" y1="0" y2="30"/><line opacity="0.2" x1="257.09297237051913" x2="257.09297237051913" y1="0" y2="30"/><line opacity="0.2" x1="362.7228164301583" x2="362.7228164301583" y1="0" y2="30"/><line opacity="0.2" x1="377.4916045140307" x2="377.4916045140307" y1="0" y2="30"/><line opacity="0.2" x1="352.14271149257337" x2="352.14271149257337" y1="0" y2="30"/><line opacity="0.2" x1="217.44848395459834" x2="217.44848395459834" y1="0" y2="30"/><line opacity="0.2" x1="447.8423437629206" x2="447.8423437629206" y1="0" y2="30"/><line opacity="0.2" x1="326.2829955147451" x2="326.2829955147451" y1="0" y2="30"/><line opacity="0.2" x1="480.6681471719397" x2="480.6681471719397" y1="0" y2="30"/><line opacity="0.2" x1="282.0458727488809" x2="282.0458727488809" y1="0" y2="30"/><line opacity="0.2" x1="355.24076680190126" x2="355.24076680190126" y1="0" y2="30"/><line opacity="0.2" x1="258.20226361720734" x2="258.20226361720734" y1="0" y2="30"/><line opacity="0.2" x1="333.70404734555166" x2="333.70404734555166" y1="0" y2="30"/><line opacity="0.2" x1="216.59032360876512" x2="216.59032360876512" y1="0" y2="30"/><line opacity="0.2" x1="276.39178386531785" x2="276.39178386531785" y1="0" y2="30"/><line opacity="0.2" x1="367.09043035429846" x2="367.09043035429846" y1="0" y2="30"/><line opacity="0.2" x1="371.72524623331657" x2="371.72524623331657" y1="0" y2="30"/><line opacity="0.2" x1="225.08421046057538" x2="225.08421046057538" y1="0" y2="30"/><line opacity="0.2" x1="142.4888451456757" x2="142.4888451456757" y1="0" y2="30"/><line opacity="0.2" x1="243.17360014905253" x2="243.17360014905253" y1="0" y2="30"/><line opacity="0.2" x1="211.83901115305264" x2="211.83901115305264" y1="0" y2="30"/><line opacity="0.2" x1="217.5694574213378" x2="217.5694574213378" y1="0" y2="30"/><line opacity="0.2" x1="442.0785712356436" x2="442.0785712356436" y1="0" y2="30"/><line opacity="0.2" x1="310.71389949735226" x2="310.71389949735226" y1="0" y2="30"/><line opacity="0.2" x1="365.80366860972555" x2="365.80366860972555" y1="0" y2="30"/><line opacity="0.2" x1="374.1867899004942" x2="374.1867899004942" y1="0" y2="30"/><line opacity="0.2" x1="241.76154398766758" x2="241.76154398766758" y1="0" y2="30"/><line opacity="0.2" x1="264.1497338242601" x2="264.1497338242601" y1="0" y2="30"/><line opacity="0.2" x1="462.8162409224936" x2="462.8162409224936" y1="0" y2="30"/><line opacity="0.2" x1="148.56114474813768" x2="148.56114474813768" y1="0" y2="30"/><line opacity="0.2" x1="300.0065381427554" x2="300.0065381427554" y1="0" y2="30"/><line opacity="0.2" x1="486.3289508905737" x2="486.3289508905737" y1="0" y2="30"/><line opacity="0.2" x1="227.38174049036436" x2="227.38174049036436" y1="0" y2="30"/><line opacity="0.2" x1="312.1212662262342" x2="312.1212662262342" y1="0" y2="30"/><line opacity="0.2" x1="268.3562102485402" x2="268.3562102485402" y1="0" y2="30"/><line opacity="0.2" x1="331.25626504689296" x2="331.25626504689296" y1="0" y2="30"/><line opacity="0.2" x1="309.3937361720643" x2="309.3937361720643" y1="0" y2="30"/><line opacity="0.2" x1="274.08752017380647" x2="274.08752017380647" y1="0" y2="30"/><line opacity="0.2" x1="247.38482844217305" x2="247.38482844217305" y1="0" y2="30"/><line opacity="0.2" x1="380.9389678967369" x2="380.9389678967369" y1="0" y2="30"/><line opacity="0.2" x1="392.96730890818804" x2="392.96730890818804" y1="0" y2="30"/><line opacity="0.2" x1="318.11812666795186" x2="318.11812666795186" y1="0" y2="30"/><line opacity="0.2" x1="545.816746636853" x2="545.816746636853" y1="0" y2="30"/><line opacity="0.2" x1="207.9167519858637" x2="207.9167519858637" y1="0" y2="30"/><line opacity="0.2" x1="364.6782890616582" x2="364.6782890616582" y1="0" y2="30"/><line opacity="0.2" x1="419.7823360945084" x2="419.7823360945084" y1="0" y2="30"/><line opacity="0.2" x1="224.9705907505672" x2="224.9705907505672" y1="0" y2="30"/><line opacity="0.2" x1="310.350283519295" x2="310.350283519295" y1="0" y2="30"/><line opacity="0.2" x1="394.21590256190916" x2="394.21590256190916" y1="0" y2="30"/><line opacity="0.2" x1="363.0478244798515" x2="363.0478244798515" y1="0" y2="30"/><line opacity="0.2" x1="390.0867946111635" x2="390.0867946111635" y1="0" y2="30"/><line opacity="0.2" x1="434.0001414758958" x2="434.0001414758958" y1="0" y2="30"/><line opacity="0.2" x1="315.447541500145" x2="315.447541500145" y1="0" y2="30"/><line opacity="0.2" x1="229.38245406948096" x2="229.38245406948096" y1="0" y2="30"/><line opacity="0.2" x1="366.65876189870744" x2="366.65876189870744" y1="0" y2="30"/><line opacity="0.2" x1="363.0021635041927" x2="363.0021635041927" y1="0" y2="30"/><line opacity="0.2" x1="456.43657735338604" x2="456.43657735338604" y1="0" y2="30"/><line opacity="0.2" x1="316.2485477921227" x2="316.2485477921227" y1="0" y2="30"/><line opacity="0.2" x1="375.32409886037925" x2="375.32409886037925" y1="0" y2="30"/><line opacity="0.2" x1="314.12239519275835" x2="314.12239519275835" y1="0" y2="30"/><line opacity="0.2" x1="351.48126088267077" x2="351.48126088267077" y1="0" y2="30"/><line opacity="0.2" x1="326.3584893251536" x2="326.3584893251536" y1="0" y2="30"/><line opacity="0.2" x1="411.92668590612897" x2="411.92668590612897" y1="0" y2="30"/><line opacity="0.2" x1="393.87041281523864" x2="393.87041281523864" y1="0" y2="30"/><line opacity="0.2" x1="382.37177206913304" x2="382.37177206913304" y1="0" y2="30"/><line opacity="0.2" x1="208.96329844276806" x2="208.96329844276806" y1="0" y2="30"/><line opacity="0.2" x1="195.91847778877758" x2="195.91847778877758" y1="0" y2="30"/><line opacity="0.2" x1="81.74236072168789" x2="81.74236072168789" y1="0" y2="30"/><line opacity="0.2" x1="340.3419051236889" x2="340.3419051236889" y1="0" y2="30"/><line opacity="0.2" x1="509.0728432984999" x2="509.0728432984999" y1="0" y2="30"/><line opacity="0.2" x1="112.95691213774063" x2="112.95691213774063" y1="0" y2="30"/><line opacity="0.2" x1="326.82633408598355" x2="326.82633408598355" y1="0" y2="30"/><line opacity="0.2" x1="505.25770868514394" x2="505.25770868514394" y1="0" y2="30"/><line opacity="0.2" x1="299.74726206441596" x2="299.74726206441596" y1="0" y2="30"/><line opacity="0.2" x1="302.59836735393236" x2="302.59836735393236" y1="0" y2="30"/><line opacity="0.2" x1="384.4447608208719" x2="384.4447608208719" y1="0" y2="30"/><line opacity="0.2" x1="340.319094037889" x2="340.319094037889" y1="0" y2="30"/><line opacity="0.2" x1="308.6361381028657" x2="308.6361381028657" y1="0" y2="30"/><line opacity="0.2" x1="364.538916764779" x2="364.538916764779" y1="0" y2="30"/><line opacity="0.2" x1="219.31731879443134" x2="219.31731879443134" y1="0" y2="30"/><line opacity="0.2" x1="439.37694051251503" x2="439.37694051251503" y1="0" y2="30"/><line opacity="0.2" x1="412.61162851078717" x2="412.61162851078717" y1="0" y2="30"/><line opacity="0.2" x1="301.62538267017106" x2="301.62538267017106" y1="0" y2="30"/><line opacity="0.2" x1="301.98032441684023" x2="301.98032441684023" y1="0" y2="30"/><line opacity="0.2" x1="223.04366614026512" x2="223.04366614026512" y1="0" y2="30"/><line opacity="0.2" x1="293.4244382281081" x2="293.4244382281081" y1="0" y2="30"/><line opacity="0.2" x1="308.48432241137806" x2="308.48432241137806" y1="0" y2="30"/><line opacity="0.2" x1="217.92747841632013" x2="217.92747841632013" y1="0" y2="30"/><line opacity="0.2" x1="446.29398148626" x2="446.29398148626" y1="0" y2="30"/><line opacity="0.2" x1="433.78314587206995" x2="433.78314587206995" y1="0" y2="30"/><line opacity="0.2" x1="305.5489560934724" x2="305.5489560934724" y1="0" y2="30"/><line opacity="0.2" x1="462.29260689687635" x2="462.29260689687635" y1="0" y2="30"/><line opacity="0.2" x1="235.55852184699137" x2="235.55852184699137" y1="0" y2="30"/><line opacity="0.2" x1="401.04253462320406" x2="401.04253462320406" y1="0" y2="30"/><line opacity="0.2" x1="432.4351724029338" x2="432.4351724029338" y1="0" y2="30"/><line opacity="0.2" x1="163.67515943124445" x2="163.67515943124445" y1="0" y2="30"/><line opacity="0.2" x1="336.95482438876627" x2="336.95482438876627" y1="0" y2="30"/><line opacity="0.2" x1="373.2117319059496" x2="373.2117319059496" y1="0" y2="30"/><line opacity="0.2" x1="436.7921832396338" x2="436.7921832396338" y1="0" y2="30"/><line opacity="0.2" x1="336.3830985386912" x2="336.3830985386912" y1="0" y2="30"/><line opacity="0.2" x1="463.7582921986831" x2="463.7582921986831" y1="0" y2="30"/><line opacity="0.2" x1="398.65604539805565" x2="398.65604539805565" y1="0" y2="30"/><line opacity="0.2" x1="325.78246673441384" x2="325.78246673441384" y1="0" y2="30"/><line opacity="0.2" x1="341.85294323299007" x2="341.85294323299007" y1="0" y2="30"/><line opacity="0.2" x1="319.7153797011145" x2="319.7153797011145" y1="0" y2="30"/><line opacity="0.2" x1="233.09315943858883" x2="233.09315943858883" y1="0" y2="30"/><line opacity="0.2" x1="501.48463096392544" x2="501.48463096392544" y1="0" y2="30"/><line opacity="0.2" x1="379.9208841071772" x2="379.9208841071772" y1="0" y2="30"/><line opacity="0.2" x1="427.9222183918624" x2="427.9222183918624" y1="0" y2="30"/><line opacity="0.2" x1="479.6813574165057" x2="479.6813574165057" y1="0" y2="30"/><line opacity="0.2" x1="258.61065933566783" x2="258.61065933566783" y1="0" y2="30"/><line opacity="0.2" x1="423.5556653982369" x2="423.5556653982369" y1="0" y2="30"/><line opacity="0.2" x1="104.73064153179371" x2="104.73064153179371" y1="0" y2="30"/><line opacity="0.2" x1="497.5091962210643" x2="497.5091962210643" y1="0" y2="30"/><line opacity="0.2" x1="261.9414644360953" x2="261.9414644360953" y1="0" y2="30"/><line opacity="0.2" x1="329.2575340419125" x2="329.2575340419125" y1="0" y2="30"/><line opacity="0.2" x1="397.9753966025024" x2="397.9753966025024" y1="0" y2="30"/><line opacity="0.2" x1="395.5313103096675" x2="395.5313103096675" y1="0" y2="30"/><line opacity="0.2" x1="423.5049168916064" x2="423.5049168916064" y1="0" y2="30"/><line opacity="0.2" x1="249.46542158153292" x2="249.46542158153292" y1="0" y2="30"/><line opacity="0.2" x1="403.7205387790193" x2="403.7205387790193" y1="0" y2="30"/><line opacity="0.2" x1="303.6177395967158" x2="303.6177395967158" y1="0" y2="30"/><line opacity="0.2" x1="349.6130922443487" x2="349.6130922443487" y1="0" y2="30"/><line opacity="0.2" x1="532.9393629676802" x2="532.9393629676802" y1="0" y2="30"/><line opacity="0.2" x1="364.01433533573896" x2="364.01433533573896" y1="0" y2="30"/><line opacity="0.2" x1="442.68866175232483" x2="442.68866175232483" y1="0" y2="30"/><line opacity="0.2" x1="350.9748143750929" x2="350.9748143750929" y1="0" y2="30"/><line opacity="0.2" x1="139.71360336076478" x2="139.71360336076478" y1="0" y2="30"/><line opacity="0.2" x1="254.73872712949267" x2="254.73872712949267" y1="0" y2="30"/><line opacity="0.2" x1="291.3151137503538" x2="291.3151137503538" y1="0" y2="30"/><line opacity="0.2" x1="409.99372417911377" x2="409.99372417911377" y1="0" y2="30"/><line opacity="0.2" x1="562.0699656843651" x2="562.0699656843651" y1="0" y2="30"/><line opacity="0.2" x1="371.47210305496156" x2="371.47210305496156" y1="0" y2="30"/><line opacity="0.2" x1="494.9433227359401" x2="494.9433227359401" y1="0" y2="30"/><line opacity="0.2" x1="279.1303712877129" x2="279.1303712877129" y1="0" y2="30"/><line opacity="0.2" x1="170.4796110237712" x2="170.4796110237712" y1="0" y2="30"/><line opacity="0.2" x1="364.22886721615674" x2="364.22886721615674" y1="0" y2="30"/><line opacity="0.2" x1="320.52361176074896" x2="320.52361176074896" y1="0" y2="30"/><line opacity="0.2" x1="193.9082704610216" x2="193.9082704610216" y1="0" y2="30"/><line opacity="0.2" x1="282.6362397866471" x2="282.6362397866471" y1="0" y2="30"/><line opacity="0.2" x1="282.21847170223026" x2="282.21847170223026" y1="0" y2="30"/><line opacity="0.2" x1="554.5620433743966" x2="554.5620433743966" y1="0" y2="30"/><line opacity="0.2" x1="347.8709443475603" x2="347.8709443475603" y1="0" y2="30"/><line opacity="0.2" x1="276.07958202476595" x2="276.07958202476595" y1="0" y2="30"/><line opacity="0.2" x1="597.9121554279933" x2="597.9121554279933" y1="0" y2="30"/><line opacity="0.2" x1="295.23359328134524" x2="295.23359328134524" y1="0" y2="30"/><line opacity="0.2" x1="243.53202687404263" x2="243.53202687404263" y1="0" y2="30"/><line opacity="0.2" x1="337.02141902512943" x2="337.02141902512943" y1="0" y2="30"/><line opacity="0.2" x1="287.31604665216975" x2="287.31604665216975" y1="0" y2="30"/><line opacity="0.2" x1="320.2953268840365" x2="320.2953268840365" y1="0" y2="30"/><line opacity="0.2" x1="309.4876662761195" x2="309.4876662761195" y1="0" y2="30"/><line opacity="0.2" x1="325.4000313664412" x2="325.4000313664412" y1="0" y2="30"/><line opacity="0.2" x1="422.0329909036762" x2="422.0329909036762" y1="0" y2="30"/><line opacity="0.2" x1="191.06282207861375" x2="191.06282207861375" y1="0" y2="30"/><line opacity="0.2" x1="507.9603739167021" x2="507.9603739167021" y1="0" y2="30"/><line opacity="0.2" x1="524.5965458485504" x2="524.5965458485504" y1="0" y2="30"/><line opacity="0.2" x1="474.41673968857697" x2="474.41673968857697" y1="0" y2="30"/><line opacity="0.2" x1="367.5630655313246" x2="367.5630655313246" y1="0" y2="30"/><line opacity="0.2" x1="404.45016856747617" x2="404.45016856747617" y1="0" y2="30"/><line opacity="0.2" x1="259.085250648747" x2="259.085250648747" y1="0" y2="30"/><line opacity="0.2" x1="543.0961587132368" x2="543.0961587132368" y1="0" y2="30"/><line opacity="0.2" x1="320.55307595217096" x2="320.55307595217096" y1="0" y2="30"/><line opacity="0.2" x1="339.62198616030616" x2="339.62198616030616" y1="0" y2="30"/><line opacity="0.2" x1="335.2146354278081" x2="335.2146354278081" y1="0" y2="30"/><line opacity="0.2" x1="432.0608908351099" x2="432.0608908351099" y1="0" y2="30"/><line opacity="0.2" x1="443.8292823733865" x2="443.8292823733865" y1="0" y2="30"/><line opacity="0.2" x1="168.64768697755423" x2="168.64768697755423" y1="0" y2="30"/><line opacity="0.2" x1="374.6331756725611" x2="374.6331756725611" y1="0" y2="30"/><line opacity="0.2" x1="370.20015533781043" x2="370.20015533781043" y1="0" y2="30"/><line opacity="0.2" x1="280.77520787531364" x2="280.77520787531364" y1="0" y2="30"/><line opacity="0.2" x1="584.654192518837" x2="584.654192518837" y1="0" y2="30"/><line opacity="0.2" x1="281.15156249477093" x2="281.15156249477093" y1="0" y2="30"/><line opacity="0.2" x1="244.3574623553191" x2="244.3574623553191" y1="0" y2="30"/><line opacity="0.2" x1="194.97531419877362" x2="194.97531419877362" y1="0" y2="30"/><line opacity="0.2" x1="314.5588670764299" x2="314.5588670764299" y1="0" y2="30"/><line opacity="0.2" x1="262.8847326347101" x2="262.8847326347101" y1="0" y2="30"/><line opacity="0.2" x1="305.31852663169946" x2="305.31852663169946" y1="0" y2="30"/><line opacity="0.2" x1="148.00417456529803" x2="148.00417456529803" y1="0" y2="30"/><line opacity="0.2" x1="395.64866306236536" x2="395.64866306236536" y1="0" y2="30"/><line opacity="0.2" x1="363.73646871597214" x2="363.73646871597214" y1="0" y2="30"/><line opacity="0.2" x1="295.7933575574602" x2="295.7933575574602" y1="0" y2="30"/><line opacity="0.2" x1="326.8517733547249" x2="326.8517733547249" y1="0" y2="30"/><line opacity="0.2" x1="331.4079989991735" x2="331.4079989991735" y1="0" y2="30"/><line opacity="0.2" x1="306.3101444471755" x2="306.3101444471755" y1="0" y2="30"/><line opacity="0.2" x1="384.3630378583493" x2="384.3630378583493" y1="0" y2="30"/><line opacity="0.2" x1="393.3393525025197" x2="393.3393525025197" y1="0" y2="30"/><line opacity="0.2" x1="267.1175595556655" x2="267.1175595556655" y1="0" y2="30"/><line opacity="0.2" x1="466.3607322117209" x2="466.3607322117209" y1="0" y2="30"/><line opacity="0.2" x1="212.56317496999085" x2="212.56317496999085" y1="0" y2="30"/><line opacity="0.2" x1="495.23099396709875" x2="495.23099396709875" y1="0" y2="30"/><line opacity="0.2" x1="180.580910199626" x2="180.580910199626" y1="0" y2="30"/><line opacity="0.2" x1="401.93022018988086" x2="401.93022018988086" y1="0" y2="30"/><line opacity="0.2" x1="296.10267929492693" x2="296.10267929492693" y1="0" y2="30"/><line opacity="0.2" x1="355.3785001181231" x2="355.3785001181231" y1="0" y2="30"/><line opacity="0.2" x1="374.6013931128389" x2="374.6013931128389" y1="0" y2="30"/><line opacity="0.2" x1="424.7319206013179" x2="424.7319206013179" y1="0" y2="30"/><line opacity="0.2" x1="261.86363653035727" x2="261.86363653035727" y1="0" y2="30"/><line opacity="0.2" x1="179.88932884147744" x2="179.88932884147744" y1="0" y2="30"/><line opacity="0.2" x1="497.22619007225006" x2="497.22619007225006" y1="0" y2="30"/><line opacity="0.2" x1="287.3351058099891" x2="287.3351058099891" y1="0" y2="30"/><line opacity="0.2" x1="240.17511151597623" x2="240.17511151597623" y1="0" y2="30"/><line opacity="0.2" x1="301.65053440154253" x2="301.65053440154253" y1="0" y2="30"/><line opacity="0.2" x1="359.7197328592026" x2="359.7197328592026" y1="0" y2="30"/><line opacity="0.2" x1="309.0113868924922" x2="309.0113868924922" y1="0" y2="30"/><line opacity="0.2" x1="123.06620819574923" x2="123.06620819574923" y1="0" y2="30"/><line opacity="0.2" x1="464.2294313090638" x2="464.2294313090638" y1="0" y2="30"/><line opacity="0.2" x1="238.33225304631253" x2="238.33225304631253" y1="0" y2="30"/><line opacity="0.2" x1="208.60974913650085" x2="208.60974913650085" y1="0" y2="30"/><line opacity="0.2" x1="320.2917576578969" x2="320.2917576578969" y1="0" y2="30"/><line opacity="0.2" x1="470.21060510973234" x2="470.21060510973234" y1="0" y2="30"/><line opacity="0.2" x1="288.7807417761998" x2="288.7807417761998" y1="0" y2="30"/><line opacity="0.2" x1="256.8411194466964" x2="256.8411194466964" y1="0" y2="30"/><line opacity="0.2" x1="250.74921306794965" x2="250.74921306794965" y1="0" y2="30"/><line opacity="0.2" x1="390.81748136648" x2="390.81748136648" y1="0" y2="30"/><line opacity="0.2" x1="399.83234063030517" x2="399.83234063030517" y1="0" y2="30"/><line opacity="0.2" x1="235.09913813175564" x2="235.09913813175564" y1="0" y2="30"/><line opacity="0.2" x1="201.17368520902198" x2="201.17368520902198" y1="0" y2="30"/><line opacity="0.2" x1="185.73215036895473" x2="185.73215036895473" y1="0" y2="30"/><line opacity="0.2" x1="400.236811121268" x2="400.236811121268" y1="0" y2="30"/><line opacity="0.2" x1="283.04582355100246" x2="283.04582355100246" y1="0" y2="30"/><line opacity="0.2" x1="342.1130684557065" x2="342.1130684557065" y1="0" y2="30"/><line opacity="0.2" x1="392.27136636902134" x2="392.27136636902134" y1="0" y2="30"/><line opacity="0.2" x1="587.1295543095569" x2="587.1295543095569" y1="0" y2="30"/><line opacity="0.2" x1="468.2477844196842" x2="468.2477844196842" y1="0" y2="30"/><line opacity="0.2" x1="415.4784695769309" x2="415.4784695769309" y1="0" y2="30"/><line opacity="0.2" x1="277.5990952115213" x2="277.5990952115213" y1="0" y2="30"/><line opacity="0.2" x1="500.48049324766276" x2="500.48049324766276" y1="0" y2="30"/><line opacity="0.2" x1="308.2996147703083" x2="308.2996147703083" y1="0" y2="30"/><line opacity="0.2" x1="434.1433897257726" x2="434.1433897257726" y1="0" y2="30"/><line opacity="0.2" x1="305.6576765695691" x2="305.6576765695691" y1="0" y2="30"/><line opacity="0.2" x1="355.11218969968286" x2="355.11218969968286" y1="0" y2="30"/><line opacity="0.2" x1="280.59736542405386" x2="280.59736542405386" y1="0" y2="30"/><line opacity="0.2" x1="242.79408184666065" x2="242.79408184666065" y1="0" y2="30"/><line opacity="0.2" x1="373.77424294956705" x2="373.77424294956705" y1="0" y2="30"/><line opacity="0.2" x1="267.86953901285" x2="267.86953901285" y1="0" y2="30"/><line opacity="0.2" x1="235.42995579048574" x2="235.42995579048574" y1="0" y2="30"/><line opacity="0.2" x1="190.11367898212094" x2="190.11367898212094" y1="0" y2="30"/><line opacity="0.2" x1="322.5050975746652" x2="322.5050975746652" y1="0" y2="30"/><line opacity="0.2" x1="424.10884483696447" x2="424.10884483696447" y1="0" y2="30"/><line opacity="0.2" x1="292.9158180267418" x2="292.9158180267418" y1="0" y2="30"/><line opacity="0.2" x1="196.16407717408225" x2="196.16407717408225" y1="0" y2="30"/><line opacity="0.2" x1="299.41890912856377" x2="299.41890912856377" y1="0" y2="30"/><line opacity="0.2" x1="455.43599843734444" x2="455.43599843734444" y1="0" y2="30"/><line opacity="0.2" x1="172.10572538564153" x2="172.10572538564153" y1="0" y2="30"/><line opacity="0.2" x1="288.0447600480726" x2="288.0447600480726" y1="0" y2="30"/><line opacity="0.2" x1="173.0227702466986" x2="173.0227702466986" y1="0" y2="30"/><line opacity="0.2" x1="351.0776853876794" x2="351.0776853876794" y1="0" y2="30"/><line opacity="0.2" x1="285.9449533959837" x2="285.9449533959837" y1="0" y2="30"/><line opacity="0.2" x1="171.942258681711" x2="171.942258681711" y1="0" y2="30"/><line opacity="0.2" x1="442.6849185820292" x2="442.6849185820292" y1="0" y2="30"/><line opacity="0.2" x1="406.48809111698415" x2="406.48809111698415" y1="0" y2="30"/><line opacity="0.2" x1="261.24598171903" x2="261.24598171903" y1="0" y2="30"/><line opacity="0.2" x1="535.5160814357023" x2="535.5160814357023" y1="0" y2="30"/><line opacity="0.2" x1="168.67558956383095" x2="168.67558956383095" y1="0" y2="30"/><line opacity="0.2" x1="386.12068075681464" x2="386.12068075681464" y1="0" y2="30"/><line opacity="0.2" x1="360.5422367146063" x2="360.5422367146063" y1="0" y2="30"/><line opacity="0.2" x1="330.9988984694001" x2="330.9988984694001" y1="0" y2="30"/><line opacity="0.2" x1="520.6540435062496" x2="520.6540435062496" y1="0" y2="30"/><line opacity="0.2" x1="287.1019025342022" x2="287.1019025342022" y1="0" y2="30"/><line opacity="0.2" x1="373.3968168593184" x2="373.3968168593184" y1="0" y2="30"/><line opacity="0.2" x1="442.0675479377977" x2="442.0675479377977" y1="0" y2="30"/><line opacity="0.2" x1="337.24600785532283" x2="337.24600785532283" y1="0" y2="30"/><line opacity="0.2" x1="316.0117440017932" x2="316.0117440017932" y1="0" y2="30"/><line opacity="0.2" x1="182.33526889979294" x2="182.33526889979294" y1="0" y2="30"/><line opacity="0.2" x1="336.87146409047637" x2="336.87146409047637" y1="0" y2="30"/><line opacity="0.2" x1="271.18705420103805" x2="271.18705420103805" y1="0" y2="30"/><line opacity="0.2" x1="116.3515426901968" x2="116.3515426901968" y1="0" y2="30"/><line opacity="0.2" x1="414.91831586025563" x2="414.91831586025563" y1="0" y2="30"/><line opacity="0.2" x1="305.38141564784746" x2="305.38141564784746" y1="0" y2="30"/><line opacity="0.2" x1="301.01338736346383" x2="301.01338736346383" y1="0" y2="30"/><line opacity="0.2" x1="232.5829962988795" x2="232.5829962988795" y1="0" y2="30"/><line opacity="0.2" x1="432.6516272854461" x2="432.6516272854461" y1="0" y2="30"/><line opacity="0.2" x1="566.628769140715" x2="566.628769140715" y1="0" y2="30"/><line opacity="0.2" x1="423.3777866729934" x2="423.3777866729934" y1="0" y2="30"/><line opacity="0.2" x1="503.7580179760366" x2="503.7580179760366" y1="0" y2="30"/><line opacity="0.2" x1="227.52960734721316" x2="227.52960734721316" y1="0" y2="30"/><line opacity="0.2" x1="438.44942956146195" x2="438.44942956146195" y1="0" y2="30"/><line opacity="0.2" x1="333.4454850936677" x2="333.4454850936677" y1="0" y2="30"/><line opacity="0.2" x1="469.41634791012393" x2="469.41634791012393" y1="0" y2="30"/><line opacity="0.2" x1="211.1345348469935" x2="211.1345348469935" y1="0" y2="30"/><line opacity="0.2" x1="86.44827270633996" x2="86.44827270633996" y1="0" y2="30"/><line opacity="0.2" x1="147.00318997265504" x2="147.00318997265504" y1="0" y2="30"/><line opacity="0.2" x1="267.7271010584034" x2="267.7271010584034" y1="0" y2="30"/><line opacity="0.2" x1="238.02403411702082" x2="238.02403411702082" y1="0" y2="30"/><line opacity="0.2" x1="280.58862087994333" x2="280.58862087994333" y1="0" y2="30"/><line opacity="0.2" x1="382.18368179740446" x2="382.18368179740446" y1="0" y2="30"/><line opacity="0.2" x1="299.0521696272772" x2="299.0521696272772" y1="0" y2="30"/><line opacity="0.2" x1="342.5683234666807" x2="342.5683234666807" y1="0" y2="30"/><line opacity="0.2" x1="239.03903017690706" x2="239.03903017690706" y1="0" y2="30"/><line opacity="0.2" x1="317.16092560588487" x2="317.16092560588487" y1="0" y2="30"/><line opacity="0.2" x1="276.50578723501644" x2="276.50578723501644" y1="0" y2="30"/><line opacity="0.2" x1="309.85054549351526" x2="309.85054549351526" y1="0" y2="30"/><line opacity="0.2" x1="213.99220998566494" x2="213.99220998566494" y1="0" y2="30"/><line opacity="0.2" x1="387.3285072320652" x2="387.3285072320652" y1="0" y2="30"/><line opacity="0.2" x1="304.93020417302165" x2="304.93020417302165" y1="0" y2="30"/><line opacity="0.2" x1="317.99066017871263" x2="317.99066017871263" y1="0" y2="30"/><line opacity="0.2" x1="443.3247813903961" x2="443.3247813903961" y1="0" y2="30"/><line opacity="0.2" x1="263.0291130082296" x2="263.0291130082296" y1="0" y2="30"/><line opacity="0.2" x1="470.159826295941" x2="470.159826295941" y1="0" y2="30"/><line opacity="0.2" x1="338.5743318622697" x2="338.5743318622697" y1="0" y2="30"/><line opacity="0.2" x1="362.4782762383842" x2="362.4782762383842" y1="0" y2="30"/><line opacity="0.2" x1="358.81207615511016" x2="358.81207615511016" y1="0" y2="30"/><line opacity="0.2" x1="235.8509213773404" x2="235.8509213773404" y1="0" y2="30"/><line opacity="0.2" x1="520.1449912239706" x2="520.1449912239706" y1="0" y2="30"/><line opacity="0.2" x1="312.1868181826585" x2="312.1868181826585" y1="0" y2="30"/><line opacity="0.2" x1="179.73816456381957" x2="179.73816456381957" y1="0" y2="30"/><line opacity="0.2" x1="358.62904846339677" x2="358.62904846339677" y1="0" y2="30"/><line opacity="0.2" x1="348.81246270514663" x2="348.81246270514663" y1="0" y2="30"/><line opacity="0.2" x1="241.92953127957998" x2="241.92953127957998" y1="0" y2="30"/><line opacity="0.2" x1="273.20198377298954" x2="273.20198377298954" y1="0" y2="30"/><line opacity="0.2" x1="384.15715997343" x2="384.15715997343" y1="0" y2="30"/><line opacity="0.2" x1="400.1507794117832" x2="400.1507794117832" y1="0" y2="30"/><line opacity="0.2" x1="269.66462401629667" x2="269.66462401629667" y1="0" y2="30"/><line opacity="0.2" x1="137.84861298109104" x2="137.84861298109104" y1="0" y2="30"/><line opacity="0.2" x1="415.44154569448824" x2="415.44154569448824" y1="0" y2="30"/><line opacity="0.2" x1="377.2730957664909" x2="377.2730957664909" y1="0" y2="30"/><line opacity="0.2" x1="224.30106613779236" x2="224.30106613779236" y1="0" y2="30"/><line opacity="0.2" x1="505.7815177012729" x2="505.7815177012729" y1="0" y2="30"/><line opacity="0.2" x1="345.04210284070484" x2="345.04210284070484" y1="0" y2="30"/><line opacity="0.2" x1="258.7372417164532" x2="258.7372417164532" y1="0" y2="30"/><line opacity="0.2" x1="318.49724769269596" x2="318.49724769269596" y1="0" y2="30"/><line opacity="0.2" x1="239.7445000747873" x2="239.7445000747873" y1="0" y2="30"/><line opacity="0.2" x1="166.51740540003246" x2="166.51740540003246" y1="0" y2="30"/><line opacity="0.2" x1="249.00564727227385" x2="249.00564727227385" y1="0" y2="30"/><line opacity="0.2" x1="284.1307704875429" x2="284.1307704875429" y1="0" y2="30"/><line opacity="0.2" x1="89.27979848479521" x2="89.27979848479521" y1="0" y2="30"/><line opacity="0.2" x1="398.4247763183516" x2="398.4247763183516" y1="0" y2="30"/><line opacity="0.2" x1="304.2500866580041" x2="304.2500866580041" y1="0" y2="30"/><line opacity="0.2" x1="20" x2="20" y1="0" y2="30"/><line opacity="0.2" x1="451.6805112820683" x2="451.6805112820683" y1="0" y2="30"/><line opacity="0.2" x1="406.8387630757846" x2="406.8387630757846" y1="0" y2="30"/><line opacity="0.2" x1="271.3785290174133" x2="271.3785290174133" y1="0" y2="30"/><line opacity="0.2" x1="303.7254790686505" x2="303.7254790686505" y1="0" y2="30"/><line opacity="0.2" x1="322.4704283593147" x2="322.4704283593147" y1="0" y2="30"/><line opacity="0.2" x1="473.50917263236215" x2="473.50917263236215" y1="0" y2="30"/><line opacity="0.2" x1="288.8754124103802" x2="288.8754124103802" y1="0" y2="30"/><line opacity="0.2" x1="186.96753980451578" x2="186.96753980451578" y1="0" y2="30"/><line opacity="0.2" x1="151.49599712399703" x2="151.49599712399703" y1="0" y2="30"/><line opacity="0.2" x1="241.4729340248346" x2="241.4729340248346" y1="0" y2="30"/><line opacity="0.2" x1="394.8078278065291" x2="394.8078278065291" y1="0" y2="30"/><line opacity="0.2" x1="324.52760539541885" x2="324.52760539541885" y1="0" y2="30"/><line opacity="0.2" x1="326.83677190871936" x2="326.83677190871936" y1="0" y2="30"/><line opacity="0.2" x1="386.6194272028421" x2="386.6194272028421" y1="0" y2="30"/><line opacity="0.2" x1="164.09464538740997" x2="164.09464538740997" y1="0" y2="30"/><line opacity="0.2" x1="262.5939528597473" x2="262.5939528597473" y1="0" y2="30"/><line opacity="0.2" x1="136.6393147236544" x2="136.6393147236544" y1="0" y2="30"/><line opacity="0.2" x1="405.08079563651194" x2="405.08079563651194" y1="0" y2="30"/><line opacity="0.2" x1="505.5120380903397" x2="505.5120380903397" y1="0" y2="30"/><line opacity="0.2" x1="403.6876773762554" x2="403.6876773762554" y1="0" y2="30"/><line opacity="0.2" x1="347.75174301096934" x2="347.75174301096934" y1="0" y2="30"/><line opacity="0.2" x1="381.1245645340018" x2="381.1245645340018" y1="0" y2="30"/><line opacity="0.2" x1="369.1350896651716" x2="369.1350896651716" y1="0" y2="30"/><line opacity="0.2" x1="336.38904091070043" x2="336.38904091070043" y1="0" y2="30"/><line opacity="0.2" x1="405.91334170586964" x2="405.91334170586964" y1="0" y2="30"/><line opacity="0.2" x1="257.313957208688" x2="257.313957208688" y1="0" y2="30"/><line opacity="0.2" x1="431.47021752256427" x2="431.47021752256427" y1="0" y2="30"/><line opacity="0.2" x1="396.1952605601405" x2="396.1952605601405" y1="0" y2="30"/><line opacity="0.2" x1="245.16341911145793" x2="245.16341911145793" y1="0" y2="30"/><line opacity="0.2" x1="243.5095189497888" x2="243.5095189497888" y1="0" y2="30"/><line opacity="0.2" x1="468.54924640824856" x2="468.54924640824856" y1="0" y2="30"/><line opacity="0.2" x1="294.059148020167" x2="294.059148020167" y1="0" y2="30"/><line opacity="0.2" x1="385.5313184483872" x2="385.5313184483872" y1="0" y2="30"/><line opacity="0.2" x1="372.8947859733553" x2="372.8947859733553" y1="0" y2="30"/><line opacity="0.2" x1="316.33021196719716" x2="316.33021196719716" y1="0" y2="30"/><line opacity="0.2" x1="218.39979883309414" x2="218.39979883309414" y1="0" y2="30"/><line opacity="0.2" x1="293.8796016065864" x2="293.8796016065864" y1="0" y2="30"/><line opacity="0.2" x1="437.22709216628726" x2="437.22709216628726" y1="0" y2="30"/><line opacity="0.2" x1="381.75710788456485" x2="381.75710788456485" y1="0" y2="30"/><line opacity="0.2" x1="353.3974604664004" x2="353.3974604664004" y1="0" y2="30"/><line opacity="0.2" x1="334.7838379024045" x2="334.7838379024045" y1="0" y2="30"/><line opacity="0.2" x1="587.0115777413245" x2="587.0115777413245" y1="0" y2="30"/><line opacity="0.2" x1="201.20078905464666" x2="201.20078905464666" y1="0" y2="30"/><line opacity="0.2" x1="262.344660860951" x2="262.344660860951" y1="0" y2="30"/><line opacity="0.2" x1="427.8701374862497" x2="427.8701374862497" y1="0" y2="30"/><line opacity="0.2" x1="428.8807419851004" x2="428.8807419851004" y1="0" y2="30"/><line opacity="0.2" x1="385.54256347691364" x2="385.54256347691364" y1="0" y2="30"/><line opacity="0.2" x1="389.6932029920056" x2="389.6932029920056" y1="0" y2="30"/><line opacity="0.2" x1="215.319767203329" x2="215.319767203329" y1="0" y2="30"/><line opacity="0.2" x1="366.31538831273417" x2="366.31538831273417" y1="0" y2="30"/><line opacity="0.2" x1="165.51280845697306" x2="165.51280845697306" y1="0" y2="30"/><line opacity="0.2" x1="274.0299387067542" x2="274.0299387067542" y1="0" y2="30"/><line opacity="0.2" x1="297.81035974026054" x2="297.81035974026054" y1="0" y2="30"/><line opacity="0.2" x1="426.2167792799985" x2="426.2167792799985" y1="0" y2="30"/><line opacity="0.2" x1="112.13631041783438" x2="112.13631041783438" y1="0" y2="30"/><line opacity="0.2" x1="346.9477591713779" x2="346.9477591713779" y1="0" y2="30"/><line opacity="0.2" x1="495.75748327504937" x2="495.75748327504937" y1="0" y2="30"/><line opacity="0.2" x1="390.6404935334045" x2="390.6404935334045" y1="0" y2="30"/><line opacity="0.2" x1="226.94401980976355" x2="226.94401980976355" y1="0" y2="30"/><line opacity="0.2" x1="173.14653300915415" x2="173.14653300915415" y1="0" y2="30"/><line opacity="0.2" x1="299.5573224344526" x2="299.5573224344526" y1="0" y2="30"/><line opacity="0.2" x1="375.985912746335" x2="375.985912746335" y1="0" y2="30"/><line opacity="0.2" x1="390.01654339366263" x2="390.01654339366263" y1="0" y2="30"/><line opacity="0.2" x1="144.32771320073297" x2="144.32771320073297" y1="0" y2="30"/><line opacity="0.2" x1="206.94457476540893" x2="206.94457476540893" y1="0" y2="30"/><line opacity="0.2" x1="346.7493269901899" x2="346.7493269901899" y1="0" y2="30"/><line opacity="0.2" x1="345.3982258229277" x2="345.3982258229277" y1="0" y2="30"/><line opacity="0.2" x1="237.54233309036056" x2="237.54233309036056" y1="0" y2="30"/><line opacity="0.2" x1="218.22383220612838" x2="218.22383220612838" y1="0" y2="30"/><line opacity="0.2" x1="445.57488441271454" x2="445.57488441271454" y1="0" y2="30"/><line opacity="0.2" x1="250.42116882841177" x2="250.42116882841177" y1="0" y2="30"/><line opacity="0.2" x1="381.9071185655462" x2="381.9071185655462" y1="0" y2="30"/><line opacity="0.2" x1="493.407254575381" x2="493.407254575381" y1="0" y2="30"/><line opacity="0.2" x1="254.6960253131292" x2="254.6960253131292" y1="0" y2="30"/><line opacity="0.2" x1="239.2716760598442" x2="239.2716760598442" y1="0" y2="30"/><line opacity="0.2" x1="362.2921159705858" x2="362.2921159705858" y1="0" y2="30"/><line opacity="0.2" x1="320.47032905696506" x2="320.47032905696506" y1="0" y2="30"/><line opacity="0.2" x1="153.67284095735695" x2="153.67284095735695" y1="0" y2="30"/><line opacity="0.2" x1="282.1293513479145" x2="282.1293513479145" y1="0" y2="30"/><line opacity="0.2" x1="389.30172622316377" x2="389.30172622316377" y1="0" y2="30"/><line opacity="0.2" x1="274.16485528333703" x2="274.16485528333703" y1="0" y2="30"/><line opacity="0.2" x1="424.53172254902603" x2="424.53172254902603" y1="0" y2="30"/><line opacity="0.2" x1="507.05818780441126" x2="507.05818780441126" y1="0" y2="30"/><line opacity="0.2" x1="284.94706374842934" x2="284.94706374842934" y1="0" y2="30"/><line opacity="0.2" x1="363.0398476710192" x2="363.0398476710192" y1="0" y2="30"/><line opacity="0.2" x1="374.4673713352267" x2="374.4673713352267" y1="0" y2="30"/><line opacity="0.2" x1="383.68638662543253" x2="383.68638662543253" y1="0" y2="30"/><line opacity="0.2" x1="343.0452206688978" x2="343.0452206688978" y1="0" y2="30"/><line opacity="0.2" x1="306.334433252873" x2="306.334433252873" y1="0" y2="30"/><line opacity="0.2" x1="361.6315106953972" x2="361.6315106953972" y1="0" y2="30"/><line opacity="0.2" x1="443.5262556234177" x2="443.5262556234177" y1="0" y2="30"/><line opacity="0.2" x1="411.1330741069253" x2="411.1330741069253" y1="0" y2="30"/><line opacity="0.2" x1="289.03072920441605" x2="289.03072920441605" y1="0" y2="30"/><line opacity="0.2" x1="225.6960343724381" x2="225.6960343724381" y1="0" y2="30"/><line opacity="0.2" x1="372.7013086265733" x2="372.7013086265733" y1="0" y2="30"/><line opacity="0.2" x1="342.7176140290982" x2="342.7176140290982" y1="0" y2="30"/><line opacity="0.2" x1="297.0583543915985" x2="297.0583543915985" y1="0" y2="30"/><line opacity="0.2" x1="303.59620413343237" x2="303.59620413343237" y1="0" y2="30"/><line opacity="0.2" x1="362.1533820231126" x2="362.1533820231126" y1="0" y2="30"/><line opacity="0.2" x1="340.47439911781436" x2="340.47439911781436" y1="0" y2="30"/><line opacity="0.2" x1="306.1131741853819" x2="306.1131741853819" y1="0" y2="30"/><line opacity="0.2" x1="427.2076469736525" x2="427.2076469736525" y1="0" y2="30"/><line opacity="0.2" x1="288.62175704332424" x2="288.62175704332424" y1="0" y2="30"/><line opacity="0.2" x1="467.199253461645" x2="467.199253461645" y1="0" y2="30"/><line opacity="0.2" x1="313.4476624035725" x2="313.4476624035725" y1="0" y2="30"/><line opacity="0.2" x1="330.43732304016254" x2="330.43732304016254" y1="0" y2="30"/><line opacity="0.2" x1="345.58537266666855" x2="345.58537266666855" y1="0" y2="30"/><line opacity="0.2" x1="239.72323458054157" x2="239.72323458054157" y1="0" y2="30"/><line opacity="0.2" x1="298.96261215535975" x2="298.96261215535975" y1="0" y2="30"/><line opacity="0.2" x1="309.8356902338622" x2="309.8356902338622" y1="0" y2="30"/><line opacity="0.2" x1="313.16033037420254" x2="313.16033037420254" y1="0" y2="30"/><line opacity="0.2" x1="417.3771652989778" x2="417.3771652989778" y1="0" y2="30"/><line opacity="0.2" x1="338.2940701579388" x2="338.2940701579388" y1="0" y2="30"/><line opacity="0.2" x1="353.8228541579735" x2="353.8228541579735" y1="0" y2="30"/><line opacity="0.2" x1="490.6036490189835" x2="490.6036490189835" y1="0" y2="30"/><line opacity="0.2" x1="258.9400150703603" x2="258.9400150703603" y1="0" y2="30"/><line opacity="0.2" x1="507.940247152668" x2="507.940247152668" y1="0" y2="30"/><line opacity="0.2" x1="362.65478681048154" x2="362.65478681048154" y1="0" y2="30"/><line opacity="0.2" x1="333.984745441171" x2="333.984745441171" y1="0" y2="30"/><line opacity="0.2" x1="335.2399765327742" x2="335.2399765327742" y1="0" y2="30"/><line opacity="0.2" x1="512.8758439746312" x2="512.8758439746312" y1="0" y2="30"/><line opacity="0.2" x1="364.6216398665781" x2="364.6216398665781" y1="0" y2="30"/><line opacity="0.2" x1="175.94654972093738" x2="175.94654972093738" y1="0" y2="30"/><line opacity="0.2" x1="205.1166309451543" x2="205.1166309451543" y1="0" y2="30"/><line opacity="0.2" x1="391.48294260017923" x2="391.48294260017923" y1="0" y2="30"/><line opacity="0.2" x1="332.27083690566" x2="332.27083690566" y1="0" y2="30"/><line opacity="0.2" x1="259.1907355079341" x2="259.1907355079341" y1="0" y2="30"/><line opacity="0.2" x1="347.51410234030385" x2="347.51410234030385" y1="0" y2="30"/><line opacity="0.2" x1="366.8222126850116" x2="366.8222126850116" y1="0" y2="30"/><line opacity="0.2" x1="330.501357760172" x2="330.501357760172" y1="0" y2="30"/><line opacity="0.2" x1="288.1551054032284" x2="288.1551054032284" y1="0" y2="30"/><line opacity="0.2" x1="410.791415761264" x2="410.791415761264" y1="0" y2="30"/><line opacity="0.2" x1="315.9978142898905" x2="315.9978142898905" y1="0" y2="30"/><line opacity="0.2" x1="310.28869065515835" x2="310.28869065515835" y1="0" y2="30"/><line opacity="0.2" x1="584.9914432442677" x2="584.9914432442677" y1="0" y2="30"/><line opacity="0.2" x1="479.98995040015285" x2="479.98995040015285" y1="0" y2="30"/><line opacity="0.2" x1="276.17308029076014" x2="276.17308029076014" y1="0" y2="30"/><line opacity="0.2" x1="464.07602806988206" x2="464.07602806988206" y1="0" y2="30"/><line opacity="0.2" x1="355.7371249397636" x2="355.7371249397636" y1="0" y2="30"/><line opacity="0.2" x1="215.4233237547682" x2="215.4233237547682" y1="0" y2="30"/><line opacity="0.2" x1="333.714615303102" x2="333.714615303102" y1="0" y2="30"/><line opacity="0.2" x1="234.1321042673831" x2="234.1321042673831" y1="0" y2="30"/><line opacity="0.2" x1="227.47126342693826" x2="227.47126342693826" y1="0" y2="30"/><line opacity="0.2" x1="452.07112099633565" x2="452.07112099633565" y1="0" y2="30"/><line opacity="0.2" x1="308.1721476611715" x2="308.1721476611715" y1="0" y2="30"/><line opacity="0.2" x1="385.20810243610885" x2="385.20810243610885" y1="0" y2="30"/><line opacity="0.2" x1="392.4991137106792" x2="392.4991137106792" y1="0" y2="30"/><line opacity="0.2" x1="391.15615007807156" x2="391.15615007807156" y1="0" y2="30"/><line opacity="0.2" x1="366.17621926519695" x2="366.17621926519695" y1="0" y2="30"/><line opacity="0.2" x1="203.03917766062085" x2="203.03917766062085" y1="0" y2="30"/><line opacity="0.2" x1="203.46728822573706" x2="203.46728822573706" y1="0" y2="30"/><line opacity="0.2" x1="322.7989004933817" x2="322.7989004933817" y1="0" y2="30"/><line opacity="0.2" x1="461.41763628721424" x2="461.41763628721424" y1="0" y2="30"/><line opacity="0.2" x1="276.6730474611158" x2="276.6730474611158" y1="0" y2="30"/><line opacity="0.2" x1="298.16533377858013" x2="298.16533377858013" y1="0" y2="30"/><line opacity="0.2" x1="410.201892522372" x2="410.201892522372" y1="0" y2="30"/><line opacity="0.2" x1="238.53571021308997" x2="238.53571021308997" y1="0" y2="30"/><line opacity="0.2" x1="269.7517790505543" x2="269.7517790505543" y1="0" y2="30"/><line opacity="0.2" x1="324.3649090387072" x2="324.3649090387072" y1="0" y2="30"/><line opacity="0.2" x1="545.1295969670358" x2="545.1295969670358" y1="0" y2="30"/><line opacity="0.2" x1="317.34773920249756" x2="317.34773920249756" y1="0" y2="30"/><line opacity="0.2" x1="415.5429745221536" x2="415.5429745221536" y1="0" y2="30"/><line opacity="0.2" x1="449.1920076081492" x2="449.1920076081492" y1="0" y2="30"/><line opacity="0.2" x1="393.95778943650646" x2="393.95778943650646" y1="0" y2="30"/><line opacity="0.2" x1="231.2030063508137" x2="231.2030063508137" y1="0" y2="30"/><line opacity="0.2" x1="312.1736157927474" x2="312.1736157927474" y1="0" y2="30"/><line opacity="0.2" x1="428.1324626226139" x2="428.1324626226139" y1="0" y2="30"/><line opacity="0.2" x1="261.10541402812487" x2="261.10541402812487" y1="0" y2="30"/><line opacity="0.2" x1="469.1043821630794" x2="469.1043821630794" y1="0" y2="30"/><line opacity="0.2" x1="341.0023236071543" x2="341.0023236071543" y1="0" y2="30"/><line opacity="0.2" x1="402.7514900043031" x2="402.7514900043031" y1="0" y2="30"/><line opacity="0.2" x1="324.34747847942947" x2="324.34747847942947" y1="0" y2="30"/><line opacity="0.2" x1="206.13224769365425" x2="206.13224769365425" y1="0" y2="30"/><line opacity="0.2" x1="278.092429471851" x2="278.092429471851" y1="0" y2="30"/><line opacity="0.2" x1="256.5231261578919" x2="256.5231261578919" y1="0" y2="30"/><line opacity="0.2" x1="432.0988550292207" x2="432.0988550292207" y1="0" y2="30"/><line opacity="0.2" x1="302.8279231071699" x2="302.8279231071699" y1="0" y2="30"/><line opacity="0.2" x1="403.41813703981916" x2="403.41813703981916" y1="0" y2="30"/><line opacity="0.2" x1="561.5006164501207" x2="561.5006164501207" y1="0" y2="30"/><line opacity="0.2" x1="157.58920200274432" x2="157.58920200274432" y1="0" y2="30"/><line opacity="0.2" x1="358.6144551281015" x2="358.6144551281015" y1="0" y2="30"/><line opacity="0.2" x1="342.6106362727577" x2="342.6106362727577" y1="0" y2="30"/><line opacity="0.2" x1="212.84490829810866" x2="212.84490829810866" y1="0" y2="30"/><line opacity="0.2" x1="422.685638225544" x2="422.685638225544" y1="0" y2="30"/><line opacity="0.2" x1="486.87983452906866" x2="486.87983452906866" y1="0" y2="30"/><line opacity="0.2" x1="208.1321974834052" x2="208.1321974834052" y1="0" y2="30"/><line opacity="0.2" x1="404.49422240146464" x2="404.49422240146464" y1="0" y2="30"/><line opacity="0.2" x1="267.19140781670853" x2="267.19140781670853" y1="0" y2="30"/><line opacity="0.2" x1="220.2680945639473" x2="220.2680945639473" y1="0" y2="30"/><line opacity="0.2" x1="246.02413263057744" x2="246.02413263057744" y1="0" y2="30"/><line opacity="0.2" x1="458.8623174833452" x2="458.8623174833452" y1="0" y2="30"/><line opacity="0.2" x1="242.91522262724317" x2="242.91522262724317" y1="0" y2="30"/><line opacity="0.2" x1="453.41069588232955" x2="453.41069588232955" y1="0" y2="30"/><line opacity="0.2" x1="495.74834493740605" x2="495.74834493740605" y1="0" y2="30"/><line opacity="0.2" x1="336.95357352919626" x2="336.95357352919626" y1="0" y2="30"/><line opacity="0.2" x1="253.4240120581348" x2="253.4240120581348" y1="0" y2="30"/><line opacity="0.2" x1="167.5213401689009" x2="167.5213401689009" y1="0" y2="30"/><line opacity="0.2" x1="364.2023055130866" x2="364.2023055130866" y1="0" y2="30"/><line opacity="0.2" x1="320.27014712811797" x2="320.27014712811797" y1="0" y2="30"/><line opacity="0.2" x1="321.0480897816278" x2="321.0480897816278" y1="0" y2="30"/><line opacity="0.2" x1="372.5556991375799" x2="372.5556991375799" y1="0" y2="30"/><line opacity="0.2" x1="230.62622384006" x2="230.62622384006" y1="0" y2="30"/><line opacity="0.2" x1="429.96070503269635" x2="429.96070503269635" y1="0" y2="30"/><line opacity="0.2" x1="379.46894034165865" x2="379.46894034165865" y1="0" y2="30"/><line opacity="0.2" x1="354.062669903016" x2="354.062669903016" y1="0" y2="30"/><line opacity="0.2" x1="378.2529628384536" x2="378.2529628384536" y1="0" y2="30"/><line opacity="0.2" x1="420.7634434513404" x2="420.7634434513404" y1="0" y2="30"/><line opacity="0.2" x1="224.23600876600082" x2="224.23600876600082" y1="0" y2="30"/><line opacity="0.2" x1="245.13054814374985" x2="245.13054814374985" y1="0" y2="30"/><line opacity="0.2" x1="460.2988090975527" x2="460.2988090975527" y1="0" y2="30"/><line opacity="0.2" x1="257.8886691507344" x2="257.8886691507344" y1="0" y2="30"/><line opacity="0.2" x1="391.1418294467897" x2="391.1418294467897" y1="0" y2="30"/><line opacity="0.2" x1="348.3996764423906" x2="348.3996764423906" y1="0" y2="30"/><line opacity="0.2" x1="62.48618917578563" x2="62.48618917578563" y1="0" y2="30"/><line opacity="0.2" x1="297.70447065453817" x2="297.70447065453817" y1="0" y2="30"/><line opacity="0.2" x1="238.44636386622602" x2="238.44636386622602" y1="0" y2="30"/><line opacity="0.2" x1="199.82579536385515" x2="199.82579536385515" y1="0" y2="30"/><line opacity="0.2" x1="379.01438261697655" x2="379.01438261697655" y1="0" y2="30"/><line opacity="0.2" x1="460.80674153065337" x2="460.80674153065337" y1="0" y2="30"/><line opacity="0.2" x1="380.8283427772304" x2="380.8283427772304" y1="0" y2="30"/><line opacity="0.2" x1="141.4661433279037" x2="141.4661433279037" y1="0" y2="30"/><line opacity="0.2" x1="287.0259583707932" x2="287.0259583707932" y1="0" y2="30"/><line opacity="0.2" x1="287.4956805099782" x2="287.4956805099782" y1="0" y2="30"/><line opacity="0.2" x1="509.7548054010154" x2="509.7548054010154" y1="0" y2="30"/><line opacity="0.2" x1="349.94883740539495" x2="349.94883740539495" y1="0" y2="30"/><line opacity="0.2" x1="502.55905218282413" x2="502.55905218282413" y1="0" y2="30"/><line opacity="0.2" x1="238.64432208961887" x2="238.64432208961887" y1="0" y2="30"/><line opacity="0.2" x1="131.85722873062406" x2="131.85722873062406" y1="0" y2="30"/><line opacity="0.2" x1="366.41314875960813" x2="366.41314875960813" y1="0" y2="30"/><line opacity="0.2" x1="277.22429904953896" x2="277.22429904953896" y1="0" y2="30"/><line opacity="0.2" x1="280.49710211770946" x2="280.49710211770946" y1="0" y2="30"/><line opacity="0.2" x1="434.0247269028907" x2="434.0247269028907" y1="0" y2="30"/><line opacity="0.2" x1="318.6136430481023" x2="318.6136430481023" y1="0" y2="30"/><line opacity="0.2" x1="252.2417549381916" x2="252.2417549381916" y1="0" y2="30"/><line opacity="0.2" x1="438.0331044096087" x2="438.0331044096087" y1="0" y2="30"/><line opacity="0.2" x1="363.8218148045182" x2="363.8218148045182" y1="0" y2="30"/><line opacity="0.2" x1="239.40858109009343" x2="239.40858109009343" y1="0" y2="30"/><line opacity="0.2" x1="338.17239704831997" x2="338.17239704831997" y1="0" y2="30"/><line opacity="0.2" x1="481.8715004940417" x2="481.8715004940417" y1="0" y2="30"/><line opacity="0.2" x1="303.7933681179179" x2="303.7933681179179" y1="0" y2="30"/><line opacity="0.2" x1="257.16572244210215" x2="257.16572244210215" y1="0" y2="30"/><line opacity="0.2" x1="358.7414424633786" x2="358.7414424633786" y1="0" y2="30"/><line opacity="0.2" x1="469.2243657655558" x2="469.2243657655558" y1="0" y2="30"/><line opacity="0.2" x1="255.49903367936685" x2="255.49903367936685" y1="0" y2="30"/><line opacity="0.2" x1="275.89079807192917" x2="275.89079807192917" y1="0" y2="30"/><line opacity="0.2" x1="152.38054137726655" x2="152.38054137726655" y1="0" y2="30"/><line opacity="0.2" x1="435.16656911368807" x2="435.16656911368807" y1="0" y2="30"/><line opacity="0.2" x1="537.7466147213321" x2="537.7466147213321" y1="0" y2="30"/><line opacity="0.2" x1="223.26519201460576" x2="223.26519201460576" y1="0" y2="30"/><line opacity="0.2" x1="499.7606390074445" x2="499.7606390074445" y1="0" y2="30"/><line opacity="0.2" x1="347.23648352740895" x2="347.23648352740895" y1="0" y2="30"/><line opacity="0.2" x1="308.92165793124116" x2="308.92165793124116" y1="0" y2="30"/><line opacity="0.2" x1="418.535139592355" x2="418.535139592355" y1="0" y2="30"/><line opacity="0.2" x1="603.6852407802911" x2="603.6852407802911" y1="0" y2="30"/><line opacity="0.2" x1="375.50942561889775" x2="375.50942561889775" y1="0" y2="30"/><line opacity="0.2" x1="310.7344292687945" x2="310.7344292687945" y1="0" y2="30"/><line opacity="0.2" x1="320.0687701913126" x2="320.0687701913126" y1="0" y2="30"/><line opacity="0.2" x1="235.7336066801441" x2="235.7336066801441" y1="0" y2="30"/><line opacity="0.2" x1="399.7043164212748" x2="399.7043164212748" y1="0" y2="30"/><line opacity="0.2" x1="496.212408977242" x2="496.212408977242" y1="0" y2="30"/><line opacity="0.2" x1="204.99495652295693" x2="204.99495652295693" y1="0" y2="30"/><line opacity="0.2" x1="377.71468971395257" x2="377.71468971395257" y1="0" y2="30"/><line opacity="0.2" x1="225.13632424943572" x2="225.13632424943572" y1="0" y2="30"/><line opacity="0.2" x1="329.336991371545" x2="329.336991371545" y1="0" y2="30"/><line opacity="0.2" x1="397.3485998484069" x2="397.3485998484069" y1="0" y2="30"/><line opacity="0.2" x1="376.50304033561906" x2="376.50304033561906" y1="0" y2="30"/><line opacity="0.2" x1="442.4534046252937" x2="442.4534046252937" y1="0" y2="30"/><line opacity="0.2" x1="240.5493459501748" x2="240.5493459501748" y1="0" y2="30"/><line opacity="0.2" x1="359.4087295222378" x2="359.4087295222378" y1="0" y2="30"/><line opacity="0.2" x1="454.0990840177957" x2="454.0990840177957" y1="0" y2="30"/><line opacity="0.2" x1="232.57355139920483" x2="232.57355139920483" y1="0" y2="30"/><line opacity="0.2" x1="176.0824389040818" x2="176.0824389040818" y1="0" y2="30"/><line opacity="0.2" x1="285.4227648168969" x2="285.4227648168969" y1="0" y2="30"/><line opacity="0.2" x1="444.90988253368823" x2="444.90988253368823" y1="0" y2="30"/><line opacity="0.2" x1="247.88830152885168" x2="247.88830152885168" y1="0" y2="30"/><line opacity="0.2" x1="401.71075979763543" x2="401.71075979763543" y1="0" y2="30"/><line opacity="0.2" x1="248.4387457310874" x2="248.4387457310874" y1="0" y2="30"/><line opacity="0.2" x1="78.59784705710345" x2="78.59784705710345" y1="0" y2="30"/><line opacity="0.2" x1="410.5865809647055" x2="410.5865809647055" y1="0" y2="30"/><line opacity="0.2" x1="239.99873354034312" x2="239.99873354034312" y1="0" y2="30"/><line opacity="0.2" x1="422.03397559712005" x2="422.03397559712005" y1="0" y2="30"/><line opacity="0.2" x1="393.77644234146703" x2="393.77644234146703" y1="0" y2="30"/><line opacity="0.2" x1="311.80968210122603" x2="311.80968210122603" y1="0" y2="30"/><line opacity="0.2" x1="332.78731425983574" x2="332.78731425983574" y1="0" y2="30"/><line opacity="0.2" x1="431.4231455252135" x2="431.4231455252135" y1="0" y2="30"/><line opacity="0.2" x1="251.64416739118445" x2="251.64416739118445" y1="0" y2="30"/><line opacity="0.2" x1="451.104471206877" x2="451.104471206877" y1="0" y2="30"/><line opacity="0.2" x1="307.3371434709684" x2="307.3371434709684" y1="0" y2="30"/><line opacity="0.2" x1="469.1671317030215" x2="469.1671317030215" y1="0" y2="30"/><line opacity="0.2" x1="208.23720320631455" x2="208.23720320631455" y1="0" y2="30"/><line opacity="0.2" x1="325.1311284160097" x2="325.1311284160097" y1="0" y2="30"/><line opacity="0.2" x1="428.6645148048595" x2="428.6645148048595" y1="0" y2="30"/><line opacity="0.2" x1="316.8096800684254" x2="316.8096800684254" y1="0" y2="30"/><line opacity="0.2" x1="223.48189036630328" x2="223.48189036630328" y1="0" y2="30"/><line opacity="0.2" x1="324.5538800517304" x2="324.5538800517304" y1="0" y2="30"/><line opacity="0.2" x1="361.68505463961645" x2="361.68505463961645" y1="0" y2="30"/><line opacity="0.2" x1="482.0980739376414" x2="482.0980739376414" y1="0" y2="30"/><line opacity="0.2" x1="354.8889121999245" x2="354.8889121999245" y1="0" y2="30"/><line opacity="0.2" x1="286.6583155306626" x2="286.6583155306626" y1="0" y2="30"/><line opacity="0.2" x1="495.8862719499758" x2="495.8862719499758" y1="0" y2="30"/><line opacity="0.2" x1="297.5530710958204" x2="297.5530710958204" y1="0" y2="30"/><line opacity="0.2" x1="310.44432102777364" x2="310.44432102777364" y1="0" y2="30"/><line opacity="0.2" x1="405.0753419698366" x2="405.0753419698366" y1="0" y2="30"/><line opacity="0.2" x1="305.51161841951205" x2="305.51161841951205" y1="0" y2="30"/><line opacity="0.2" x1="332.88065486773746" x2="332.88065486773746" y1="0" y2="30"/><line opacity="0.2" x1="297.6992086333575" x2="297.6992086333575" y1="0" y2="30"/><line opacity="0.2" x1="337.6578055461388" x2="337.6578055461388" y1="0" y2="30"/><line opacity="0.2" x1="485.6421001329636" x2="485.6421001329636" y1="0" y2="30"/><line opacity="0.2" x1="332.5513014457061" x2="332.5513014457061" y1="0" y2="30"/><line opacity="0.2" x1="288.7988763756365" x2="288.7988763756365" y1="0" y2="30"/><line opacity="0.2" x1="471.3750496556379" x2="471.3750496556379" y1="0" y2="30"/><line opacity="0.2" x1="398.73476313572655" x2="398.73476313572655" y1="0" y2="30"/><line opacity="0.2" x1="422.68992441700505" x2="422.68992441700505" y1="0" y2="30"/><line opacity="0.2" x1="461.59519198827866" x2="461.59519198827866" y1="0" y2="30"/><line opacity="0.2" x1="313.07430547036125" x2="313.07430547036125" y1="0" y2="30"/><line opacity="0.2" x1="80.48700420937205" x2="80.48700420937205" y1="0" y2="30"/><line opacity="0.2" x1="252.38141606965453" x2="252.38141606965453" y1="0" y2="30"/><line opacity="0.2" x1="303.8324757640159" x2="303.8324757640159" y1="0" y2="30"/><line opacity="0.2" x1="356.224198640639" x2="356.224198640639" y1="0" y2="30"/><line opacity="0.2" x1="408.2068573695184" x2="408.2068573695184" y1="0" y2="30"/><line opacity="0.2" x1="323.9054957068014" x2="323.9054957068014" y1="0" y2="30"/><line opacity="0.2" x1="380.09159950264416" x2="380.09159950264416" y1="0" y2="30"/><line opacity="0.2" x1="374.3494730018751" x2="374.3494730018751" y1="0" y2="30"/><line opacity="0.2" x1="500.3063361538099" x2="500.3063361538099" y1="0" y2="30"/><line opacity="0.2" x1="191.20173518080898" x2="191.20173518080898" y1="0" y2="30"/><line opacity="0.2" x1="99.81093964442465" x2="99.81093964442465" y1="0" y2="30"/><line opacity="0.2" x1="386.6279871019856" x2="386.6279871019856" y1="0" y2="30"/><line opacity="0.2" x1="324.09077548667835" x2="324.09077548667835" y1="0" y2="30"/><line opacity="0.2" x1="162.0153911238213" x2="162.0153911238213" y1="0" y2="30"/><line opacity="0.2" x1="277.39264515757765" x2="277.39264515757765" y1="0" y2="30"/><line opacity="0.2" x1="440.15122528894113" x2="440.15122528894113" y1="0" y2="30"/><line opacity="0.2" x1="457.45391066358775" x2="457.45391066358775" y1="0" y2="30"/><line opacity="0.2" x1="573.4635823391635" x2="573.4635823391635" y1="0" y2="30"/><line opacity="0.2" x1="313.98328267469185" x2="313.98328267469185" y1="0" y2="30"/><line opacity="0.2" x1="236.6978216903628" x2="236.6978216903628" y1="0" y2="30"/><line opacity="0.2" x1="218.45098876093107" x2="218.45098876093107" y1="0" y2="30"/><line opacity="0.2" x1="239.6794856312342" x2="239.6794856312342" y1="0" y2="30"/><line opacity="0.2" x1="514.071664304018" x2="514.071664304018" y1="0" y2="30"/><line opacity="0.2" x1="252.11875977411074" x2="252.11875977411074" y1="0" y2="30"/><line opacity="0.2" x1="315.2573741791063" x2="315.2573741791063" y1="0" y2="30"/><line opacity="0.2" x1="347.2738573771137" x2="347.2738573771137" y1="0" y2="30"/><line opacity="0.2" x1="251.33206816365706" x2="251.33206816365706" y1="0" y2="30"/><line opacity="0.2" x1="414.0317015321078" x2="414.0317015321078" y1="0" y2="30"/><line opacity="0.2" x1="468.2190893214846" x2="468.2190893214846" y1="0" y2="30"/><line opacity="0.2" x1="323.4198290225798" x2="323.4198290225798" y1="0" y2="30"/><line opacity="0.2" x1="423.45200929199297" x2="423.45200929199297" y1="0" y2="30"/><line opacity="0.2" x1="300.05499233828374" x2="300.05499233828374" y1="0" y2="30"/><line opacity="0.2" x1="316.5612854526894" x2="316.5612854526894" y1="0" y2="30"/><line opacity="0.2" x1="318.1152264375653" x2="318.1152264375653" y1="0" y2="30"/><line opacity="0.2" x1="270.23714685462403" x2="270.23714685462403" y1="0" y2="30"/><line opacity="0.2" x1="343.5439068306577" x2="343.5439068306577" y1="0" y2="30"/><line opacity="0.2" x1="327.78450847468014" x2="327.78450847468014" y1="0" y2="30"/><line opacity="0.2" x1="315.12896316644526" x2="315.12896316644526" y1="0" y2="30"/><line opacity="0.2" x1="230.24138299976616" x2="230.24138299976616" y1="0" y2="30"/><line opacity="0.2" x1="296.5156017591995" x2="296.5156017591995" y1="0" y2="30"/><line opacity="0.2" x1="292.56993699603345" x2="292.56993699603345" y1="0" y2="30"/><line opacity="0.2" x1="304.80302672365747" x2="304.80302672365747" y1="0" y2="30"/><line opacity="0.2" x1="444.75084919123486" x2="444.75084919123486" y1="0" y2="30"/><line opacity="0.2" x1="228.82148900962386" x2="228.82148900962386" y1="0" y2="30"/><line opacity="0.2" x1="348.1442064256175" x2="348.1442064256175" y1="0" y2="30"/><line opacity="0.2" x1="390.3263612790008" x2="390.3263612790008" y1="0" y2="30"/><line opacity="0.2" x1="393.7268525235574" x2="393.7268525235574" y1="0" y2="30"/><line opacity="0.2" x1="459.14080280956" x2="459.14080280956" y1="0" y2="30"/><line opacity="0.2" x1="271.62815623799605" x2="271.62815623799605" y1="0" y2="30"/><line opacity="0.2" x1="222.35856284614408" x2="222.35856284614408" y1="0" y2="30"/><line opacity="0.2" x1="266.10032968834486" x2="266.10032968834486" y1="0" y2="30"/><line opacity="0.2" x1="301.6060597966062" x2="301.6060597966062" y1="0" y2="30"/><line opacity="0.2" x1="442.2264008818914" x2="442.2264008818914" y1="0" y2="30"/><line opacity="0.2" x1="284.62353237510405" x2="284.62353237510405" y1="0" y2="30"/><line opacity="0.2" x1="408.39952749025093" x2="408.39952749025093" y1="0" y2="30"/><line opacity="0.2" x1="220.55756135141414" x2="220.55756135141414" y1="0" y2="30"/><line opacity="0.2" x1="399.5991780603364" x2="399.5991780603364" y1="0" y2="30"/><line opacity="0.2" x1="350.7902611191366" x2="350.7902611191366" y1="0" y2="30"/><line opacity="0.2" x1="327.43583035438434" x2="327.43583035438434" y1="0" y2="30"/><line opacity="0.2" x1="272.6827294267975" x2="272.6827294267975" y1="0" y2="30"/><line opacity="0.2" x1="214.63977733416786" x2="214.63977733416786" y1="0" y2="30"/><line opacity="0.2" x1="232.48461556236748" x2="232.48461556236748" y1="0" y2="30"/><line opacity="0.2" x1="216.0586530613605" x2="216.0586530613605" y1="0" y2="30"/><line opacity="0.2" x1="452.23233508904644" x2="452.23233508904644" y1="0" y2="30"/><line opacity="0.2" x1="397.8810552823816" x2="397.8810552823816" y1="0" y2="30"/><line opacity="0.2" x1="394.7760074667638" x2="394.7760074667638" y1="0" y2="30"/><line opacity="0.2" x1="340.72719803674335" x2="340.72719803674335" y1="0" y2="30"/><line opacity="0.2" x1="319.7366383263456" x2="319.7366383263456" y1="0" y2="30"/><line opacity="0.2" x1="307.6595623829613" x2="307.6595623829613" y1="0" y2="30"/><line opacity="0.2" x1="262.12377954392997" x2="262.12377954392997" y1="0" y2="30"/><line opacity="0.2" x1="315.0018753886071" x2="315.0018753886071" y1="0" y2="30"/><line opacity="0.2" x1="472.053100524863" x2="472.053100524863" y1="0" y2="30"/><line opacity="0.2" x1="163.07000084793128" x2="163.07000084793128" y1="0" y2="30"/><line opacity="0.2" x1="455.06240564680195" x2="455.06240564680195" y1="0" y2="30"/><line opacity="0.2" x1="251.98644054653084" x2="251.98644054653084" y1="0" y2="30"/><line opacity="0.2" x1="355.0232073476951" x2="355.0232073476951" y1="0" y2="30"/><line opacity="0.2" x1="268.5540648682526" x2="268.5540648682526" y1="0" y2="30"/><line opacity="0.2" x1="247.51249702725232" x2="247.51249702725232" y1="0" y2="30"/><line opacity="0.2" x1="339.9511054044707" x2="339.9511054044707" y1="0" y2="30"/><line opacity="0.2" x1="358.31101439312573" x2="358.31101439312573" y1="0" y2="30"/><line opacity="0.2" x1="339.20827937765165" x2="339.20827937765165" y1="0" y2="30"/><line opacity="0.2" x1="415.818424633589" x2="415.818424633589" y1="0" y2="30"/><line opacity="0.2" x1="175.63131175251357" x2="175.63131175251357" y1="0" y2="30"/><line opacity="0.2" x1="256.4855460193664" x2="256.4855460193664" y1="0" y2="30"/><line opacity="0.2" x1="185.48761822097114" x2="185.48761822097114" y1="0" y2="30"/><line opacity="0.2" x1="325.4628045849852" x2="325.4628045849852" y1="0" y2="30"/><line opacity="0.2" x1="377.1011053887418" x2="377.1011053887418" y1="0" y2="30"/><line opacity="0.2" x1="481.8032522562301" x2="481.8032522562301" y1="0" y2="30"/><line opacity="0.2" x1="124.27468688762539" x2="124.27468688762539" y1="0" y2="30"/><line opacity="0.2" x1="388.85618466995334" x2="388.85618466995334" y1="0" y2="30"/><line opacity="0.2" x1="368.2900104844428" x2="368.2900104844428" y1="0" y2="30"/><line opacity="0.2" x1="444.9039000101476" x2="444.9039000101476" y1="0" y2="30"/><line opacity="0.2" x1="359.5753836321263" x2="359.5753836321263" y1="0" y2="30"/><line opacity="0.2" x1="407.2033205818666" x2="407.2033205818666" y1="0" y2="30"/><line opacity="0.2" x1="489.7159334015714" x2="489.7159334015714" y1="0" y2="30"/><line opacity="0.2" x1="453.96490029762174" x2="453.96490029762174" y1="0" y2="30"/><line opacity="0.2" x1="268.512613166361" x2="268.512613166361" y1="0" y2="30"/><line opacity="0.2" x1="224.72049843390988" x2="224.72049843390988" y1="0" y2="30"/><line opacity="0.2" x1="148.64372693335622" x2="148.64372693335622" y1="0" y2="30"/><line opacity="0.2" x1="226.28257276653807" x2="226.28257276653807" y1="0" y2="30"/><line opacity="0.2" x1="423.01736007280243" x2="423.01736007280243" y1="0" y2="30"/><line opacity="0.2" x1="384.2986016174345" x2="384.2986016174345" y1="0" y2="30"/><line opacity="0.2" x1="240.969147964168" x2="240.969147964168" y1="0" y2="30"/><line opacity="0.2" x1="391.132076308273" x2="391.132076308273" y1="0" y2="30"/><line opacity="0.2" x1="339.9610850873256" x2="339.9610850873256" y1="0" y2="30"/><line opacity="0.2" x1="464.9968971439745" x2="464.9968971439745" y1="0" y2="30"/><line opacity="0.2" x1="224.1427493639761" x2="224.1427493639761" y1="0" y2="30"/><line opacity="0.2" x1="184.46521013641302" x2="184.46521013641302" y1="0" y2="30"/><line opacity="0.2" x1="366.2665143239619" x2="366.2665143239619" y1="0" y2="30"/><line opacity="0.2" x1="180.1043837898192" x2="180.1043837898192" y1="0" y2="30"/><line opacity="0.2" x1="357.68067991541005" x2="357.68067991541005" y1="0" y2="30"/><line opacity="0.2" x1="485.40061286962583" x2="485.40061286962583" y1="0" y2="30"/><line opacity="0.2" x1="294.2670908126016" x2="294.2670908126016" y1="0" y2="30"/><line opacity="0.2" x1="538.0640754483089" x2="538.0640754483089" y1="0" y2="30"/><line opacity="0.2" x1="166.42763865447404" x2="166.42763865447404" y1="0" y2="30"/><line opacity="0.2" x1="82.6711398461823" x2="82.6711398461823" y1="0" y2="30"/><line opacity="0.2" x1="308.4038375633033" x2="308.4038375633033" y1="0" y2="30"/><line opacity="0.2" x1="165.47309523941945" x2="165.47309523941945" y1="0" y2="30"/><line opacity="0.2" x1="278.2113672746589" x2="278.2113672746589" y1="0" y2="30"/><line opacity="0.2" x1="177.5277292725591" x2="177.5277292725591" y1="0" y2="30"/><line opacity="0.2" x1="392.7217128005915" x2="392.7217128005915" y1="0" y2="30"/><line opacity="0.2" x1="300.8079150795352" x2="300.8079150795352" y1="0" y2="30"/><line opacity="0.2" x1="459.7798278566958" x2="459.7798278566958" y1="0" y2="30"/><line opacity="0.2" x1="103.49215449583983" x2="103.49215449583983" y1="0" y2="30"/><line opacity="0.2" x1="299.14953917051764" x2="299.14953917051764" y1="0" y2="30"/><line opacity="0.2" x1="276.91952921372035" x2="276.91952921372035" y1="0" y2="30"/><line opacity="0.2" x1="447.13780411274007" x2="447.13780411274007" y1="0" y2="30"/><line opacity="0.2" x1="478.2543040963899" x2="478.2543040963899" y1="0" y2="30"/><line opacity="0.2" x1="486.6390780092807" x2="486.6390780092807" y1="0" y2="30"/><line opacity="0.2" x1="413.71978017967314" x2="413.71978017967314" y1="0" y2="30"/><line opacity="0.2" x1="296.6991918996672" x2="296.6991918996672" y1="0" y2="30"/><line opacity="0.2" x1="402.52378723029267" x2="402.52378723029267" y1="0" y2="30"/><line opacity="0.2" x1="456.4006535772831" x2="456.4006535772831" y1="0" y2="30"/><line opacity="0.2" x1="257.7985234608624" x2="257.7985234608624" y1="0" y2="30"/><line opacity="0.2" x1="407.8535863348967" x2="407.8535863348967" y1="0" y2="30"/><line opacity="0.2" x1="427.29605017211145" x2="427.29605017211145" y1="0" y2="30"/><line opacity="0.2" x1="232.62192449503456" x2="232.62192449503456" y1="0" y2="30"/><line opacity="0.2" x1="292.25216214304965" x2="292.25216214304965" y1="0" y2="30"/><line opacity="0.2" x1="311.4921150646101" x2="311.4921150646101" y1="0" y2="30"/><line opacity="0.2" x1="297.8449095800816" x2="297.8449095800816" y1="0" y2="30"/><line opacity="0.2" x1="138.0154826280683" x2="138.0154826280683" y1="0" y2="30"/><line opacity="0.2" x1="266.89126965939903" x2="266.89126965939903" y1="0" y2="30"/><line opacity="0.2" x1="464.20196167829073" x2="464.20196167829073" y1="0" y2="30"/><line opacity="0.2" x1="312.3402990523615" x2="312.3402990523615" y1="0" y2="30"/><line opacity="0.2" x1="262.33117516805237" x2="262.33117516805237" y1="0" y2="30"/><line opacity="0.2" x1="367.24864994682883" x2="367.24864994682883" y1="0" y2="30"/><line opacity="0.2" x1="195.92996394193318" x2="195.92996394193318" y1="0" y2="30"/><line opacity="0.2" x1="268.9271257247038" x2="268.9271257247038" y1="0" y2="30"/><line opacity="0.2" x1="208.56096197890355" x2="208.56096197890355" y1="0" y2="30"/><line opacity="0.2" x1="428.46955668580034" x2="428.46955668580034" y1="0" y2="30"/><line opacity="0.2" x1="378.2811459894328" x2="378.2811459894328" y1="0" y2="30"/><line opacity="0.2" x1="149.40806414829086" x2="149.40806414829086" y1="0" y2="30"/><line opacity="0.2" x1="278.2617563006203" x2="278.2617563006203" y1="0" y2="30"/><line opacity="0.2" x1="175.69411281384953" x2="175.69411281384953" y1="0" y2="30"/><line opacity="0.2" x1="457.07744482391047" x2="457.07744482391047" y1="0" y2="30"/><line opacity="0.2" x1="345.8767246393662" x2="345.8767246393662" y1="0" y2="30"/><line opacity="0.2" x1="329.6155483958137" x2="329.6155483958137" y1="0" y2="30"/><line opacity="0.2" x1="460.29813609635073" x2="460.29813609635073" y1="0" y2="30"/><line opacity="0.2" x1="297.0442066789211" x2="297.0442066789211" y1="0" y2="30"/><line opacity="0.2" x1="189.6593407184952" x2="189.6593407184952" y1="0" y2="30"/><line opacity="0.2" x1="296.7284123249326" x2="296.7284123249326" y1="0" y2="30"/><line opacity="0.2" x1="264.85421735970317" x2="264.85421735970317" y1="0" y2="30"/><line opacity="0.2" x1="399.93818898432255" x2="399.93818898432255" y1="0" y2="30"/><line opacity="0.2" x1="444.2011358379778" x2="444.2011358379778" y1="0" y2="30"/><line opacity="0.2" x1="132.2313850273875" x2="132.2313850273875" y1="0" y2="30"/><line opacity="0.2" x1="434.814950609592" x2="434.814950609592" y1="0" y2="30"/><line opacity="0.2" x1="120.80284991912549" x2="120.80284991912549" y1="0" y2="30"/><line opacity="0.2" x1="244.5818270765139" x2="244.5818270765139" y1="0" y2="30"/><line opacity="0.2" x1="262.03990420642464" x2="262.03990420642464" y1="0" y2="30"/><line opacity="0.2" x1="522.0723009527536" x2="522.0723009527536" y1="0" y2="30"/><line opacity="0.2" x1="396.6688990555264" x2="396.6688990555264" y1="0" y2="30"/><line opacity="0.2" x1="330.4038455317514" x2="330.4038455317514" y1="0" y2="30"/><line opacity="0.2" x1="389.6450121987339" x2="389.6450121987339" y1="0" y2="30"/><line opacity="0.2" x1="485.9696855958039" x2="485.9696855958039" y1="0" y2="30"/><line opacity="0.2" x1="322.3449522077476" x2="322.3449522077476" y1="0" y2="30"/><line opacity="0.2" x1="288.5677326265464" x2="288.5677326265464" y1="0" y2="30"/><line opacity="0.2" x1="355.2921402968406" x2="355.2921402968406" y1="0" y2="30"/><line opacity="0.2" x1="371.19092058810713" x2="371.19092058810713" y1="0" y2="30"/><line opacity="0.2" x1="295.73021236125294" x2="295.73021236125294" y1="0" y2="30"/><line opacity="0.2" x1="548.1188216366769" x2="548.1188216366769" y1="0" y2="30"/><line opacity="0.2" x1="282.08897856926166" x2="282.08897856926166" y1="0" y2="30"/><line opacity="0.2" x1="318.3860567926789" x2="318.3860567926789" y1="0" y2="30"/><line opacity="0.2" x1="406.3164485468473" x2="406.3164485468473" y1="0" y2="30"/><line opacity="0.2" x1="358.8066564220178" x2="358.8066564220178" y1="0" y2="30"/><line opacity="0.2" x1="396.39284741178955" x2="396.39284741178955" y1="0" y2="30"/><line opacity="0.2" x1="427.96432295505684" x2="427.96432295505684" y1="0" y2="30"/><line opacity="0.2" x1="351.6101021657006" x2="351.6101021657006" y1="0" y2="30"/><line opacity="0.2" x1="377.2852912326384" x2="377.2852912326384" y1="0" y2="30"/><line opacity="0.2" x1="215.4286019411146" x2="215.4286019411146" y1="0" y2="30"/><line opacity="0.2" x1="184.56949339587493" x2="184.56949339587493" y1="0" y2="30"/><line opacity="0.2" x1="383.09454786831367" x2="383.09454786831367" y1="0" y2="30"/><line opacity="0.2" x1="215.3379633277961" x2="215.3379633277961" y1="0" y2="30"/><line opacity="0.2" x1="521.8357202119956" x2="521.8357202119956" y1="0" y2="30"/><line opacity="0.2" x1="350.6143356469713" x2="350.6143356469713" y1="0" y2="30"/><line opacity="0.2" x1="310.8226218941159" x2="310.8226218941159" y1="0" y2="30"/><line opacity="0.2" x1="215.1729391428865" x2="215.1729391428865" y1="0" y2="30"/><line opacity="0.2" x1="196.78711155302966" x2="196.78711155302966" y1="0" y2="30"/><line opacity="0.2" x1="398.27012217313114" x2="398.27012217313114" y1="0" y2="30"/><line opacity="0.2" x1="275.02670279159685" x2="275.02670279159685" y1="0" y2="30"/><line opacity="0.2" x1="319.2896310865694" x2="319.2896310865694" y1="0" y2="30"/><line opacity="0.2" x1="507.3069475761524" x2="507.3069475761524" y1="0" y2="30"/><line opacity="0.2" x1="484.1809325088064" x2="484.1809325088064" y1="0" y2="30"/><line opacity="0.2" x1="250.18764122332908" x2="250.18764122332908" y1="0" y2="30"/><line opacity="0.2" x1="456.7999402606732" x2="456.7999402606732" y1="0" y2="30"/><line opacity="0.2" x1="620" x2="620" y1="0" y2="30"/><line opacity="0.2" x1="415.8779756961686" x2="415.8779756961686" y1="0" y2="30"/><line opacity="0.2" x1="215.67619236727657" x2="215.67619236727657" y1="0" y2="30"/><line opacity="0.2" x1="148.86439767319496" x2="148.86439767319496" y1="0" y2="30"/><line opacity="0.2" x1="208.06084768306118" x2="208.06084768306118" y1="0" y2="30"/><line opacity="0.2" x1="255.7820070489828" x2="255.7820070489828" y1="0" y2="30"/><line opacity="0.2" x1="389.6642137994679" x2="389.6642137994679" y1="0" y2="30"/><line opacity="0.2" x1="496.43862940111006" x2="496.43862940111006" y1="0" y2="30"/><line opacity="0.2" x1="307.8269230641988" x2="307.8269230641988" y1="0" y2="30"/><line opacity="0.2" x1="421.96576925417185" x2="421.96576925417185" y1="0" y2="30"/><line opacity="0.2" x1="359.82428920542395" x2="359.82428920542395" y1="0" y2="30"/><line opacity="0.2" x1="317.4435620757058" x2="317.4435620757058" y1="0" y2="30"/><line opacity="0.2" x1="440.2748093672059" x2="440.2748093672059" y1="0" y2="30"/><line opacity="0.2" x1="398.8423130983521" x2="398.8423130983521" y1="0" y2="30"/><line opacity="0.2" x1="310.48525699911835" x2="310.48525699911835" y1="0" y2="30"/><line opacity="0.2" x1="258.5378265911383" x2="258.5378265911383" y1="0" y2="30"/><line opacity="0.2" x1="241.77692741321758" x2="241.77692741321758" y1="0" y2="30"/><line opacity="0.2" x1="359.80137544785885" x2="359.80137544785885" y1="0" y2="30"/><line opacity="0.2" x1="229.1986109924989" x2="229.1986109924989" y1="0" y2="30"/><line opacity="0.2" x1="335.20967604420207" x2="335.20967604420207" y1="0" y2="30"/></g></svg>