<svg xmlns="http://www.w3.org/2000/svg" xmlns:xlink="http://www.w3.org/1999/xlink" class="plot-d6a7b5" fill="currentColor" font-family="system-ui, sans-serif" font-size="10" text-anchor="middle" width="640" height="60" viewBox="0 0 640 60" style="color: black; background-color: white;"><style>:where(.plot-d6a7b5) {
  --plot-background: white;
  display: block;
  height: auto;
  height: intrinsic;
  max-width: 100%;
}
:where(.plot-d6a7b5 text),
:where(.plot-d6a7b5 tspan) {
  white-space: pre;
}</style><g aria-label="x-axis tick" fill="none" stroke="currentColor"><path transform="translate(41.58740291178293,30)" d="M0,0L0,6"/><path transform="translate(132.34450054475752,30)" d="M0,0L0,6"/><path transform="translate(223.10159817773211,30)" d="M0,0L0,6"/><path transform="translate(313.8586958107067,30)" d="M0,0L0,6"/><path transform="translate(404.61579344368124,30)" d="M0,0L0,6"/><path transform="translate(495.3728910766559,30)" d="M0,0L0,6"/><path transform="translate(586.1299887096304,30)" d="M0,0L0,6"/></g><g aria-label="x-axis tick label" font-variant="tabular-nums" transform="translate(0,9)"><text y="0.71em" transform="translate(41.58740291178293,30)">−3</text><text y="0.71em" transform="translate(132.34450054475752,30)">−2</text><text y="0.71em" transform="translate(223.10159817773211,30)">−1</text><text y="0.71em" transform="translate(313.8586958107067,30)">0</text><text y="0.71em" transform="translate(404.61579344368124,30)">1</text><text y="0.71em" transform="translate(495.3728910766559,30)">2</text><text y="0.71em" transform="translate(586.1299887096304,30)">3</text></g><g aria-label="tick" stroke="steelblue"><line opacity="0.2" x1="348.7889670409211" x2="348.7889670409211" y1="0.5" y2="30"/><line opacity="0.2" x1="374.45033859745087" x2="374.45033859745087" y1="0.5" y2="30"/><line opacity="0.2" x1="446.1700491418688" x2="446.1700491418688" y1="0.5" y2="30"/><line opacity="0.2" x1="270.56844467947155" x2="270.56844467947155" y1="0.5" y2="30"/><line opacity="0.2" x1="320.6328417477395" x2="320.6328417477395" y1="0.5" y2="30"/><line opacity="0.2" x1="351.54738783460056" x2="351.54738783460056" y1="0.5" y2="30"/><line opacity="0.2" x1="293.5335863714269" x2="293.5335863714269" y1="0.5" y2="30"/><line opacity="0.2" x1="231.75781830193847" x2="231.75781830193847" y1="0.5" y2="30"/><line opacity="0.2" x1="283.54691122249847" x2="283.54691122249847" y1="0.5" y2="30"/><line opacity="0.2" x1="390.2117996167015" x2="390.2117996167015" y1="0.5" y2="30"/><line opacity="0.2" x1="240.25609385037174" x2="240.25609385037174" y1="0.5" y2="30"/><line opacity="0.2" x1="327.8304572484261" x2="327.8304572484261" y1="0.5" y2="30"/><line opacity="0.2" x1="357.8588454451238" x2="357.8588454451238" y1="0.5" y2="30"/><line opacity="0.2" x1="406.6877350708469" x2="406.6877350708469" y1="0.5" y2="30"/><line opacity="0.2" x1="491.89472083423175" x2="491.89472083423175" y1="0.5" y2="30"/><line opacity="0.2" x1="268.370439513358" x2="268.370439513358" y1="0.5" y2="30"/><line opacity="0.2" x1="152.09170793995438" x2="152.09170793995438" y1="0.5" y2="30"/><line opacity="0.2" x1="385.87139093428215" x2="385.87139093428215" y1="0.5" y2="30"/><line opacity="0.2" x1="234.50349164795472" x2="234.50349164795472" y1="0.5" y2="30"/><line opacity="0.2" x1="299.25213927141164" x2="299.25213927141164" y1="0.5" y2="30"/><line opacity="0.2" x1="343.8830293195773" x2="343.8830293195773" y1="0.5" y2="30"/><line opacity="0.2" x1="500.28902625175385" x2="500.28902625175385" y1="0.5" y2="30"/><line opacity="0.2" x1="402.6884165180104" x2="402.6884165180104" y1="0.5" y2="30"/><line opacity="0.2" x1="213.2103952665988" x2="213.2103952665988" y1="0.5" y2="30"/><line opacity="0.2" x1="262.2045415606252" x2="262.2045415606252" y1="0.5" y2="30"/><line opacity="0.2" x1="226.68885312523622" x2="226.68885312523622" y1="0.5" y2="30"/><line opacity="0.2" x1="154.96647250133952" x2="154.96647250133952" y1="0.5" y2="30"/><line opacity="0.2" x1="263.3708475272016" x2="263.3708475272016" y1="0.5" y2="30"/><line opacity="0.2" x1="353.5276842083197" x2="353.5276842083197" y1="0.5" y2="30"/><line opacity="0.2" x1="204.78960238442508" x2="204.78960238442508" y1="0.5" y2="30"/><line opacity="0.2" x1="352.9861469908376" x2="352.9861469908376" y1="0.5" y2="30"/><line opacity="0.2" x1="405.48419629800895" x2="405.48419629800895" y1="0.5" y2="30"/><line opacity="0.2" x1="232.5355020883103" x2="232.5355020883103" y1="0.5" y2="30"/><line opacity="0.2" x1="425.07080085439617" x2="425.07080085439617" y1="0.5" y2="30"/><line opacity="0.2" x1="314.04785844580715" x2="314.04785844580715" y1="0.5" y2="30"/><line opacity="0.2" x1="271.7076438599699" x2="271.7076438599699" y1="0.5" y2="30"/><line opacity="0.2" x1="267.43734332298243" x2="267.43734332298243" y1="0.5" y2="30"/><line opacity="0.2" x1="319.42635465114387" x2="319.42635465114387" y1="0.5" y2="30"/><line opacity="0.2" x1="360.58621921929887" x2="360.58621921929887" y1="0.5" y2="30"/><line opacity="0.2" x1="329.62581925127495" x2="329.62581925127495" y1="0.5" y2="30"/><line opacity="0.2" x1="287.0912270074665" x2="287.0912270074665" y1="0.5" y2="30"/><line opacity="0.2" x1="323.30323963708025" x2="323.30323963708025" y1="0.5" y2="30"/><line opacity="0.2" x1="376.2366128022818" x2="376.2366128022818" y1="0.5" y2="30"/><line opacity="0.2" x1="364.3683995410819" x2="364.3683995410819" y1="0.5" y2="30"/><line opacity="0.2" x1="233.42413453942396" x2="233.42413453942396" y1="0.5" y2="30"/><line opacity="0.2" x1="330.58299361173994" x2="330.58299361173994" y1="0.5" y2="30"/><line opacity="0.2" x1="400.7553688173981" x2="400.7553688173981" y1="0.5" y2="30"/><line opacity="0.2" x1="308.9989635922729" x2="308.9989635922729" y1="0.5" y2="30"/><line opacity="0.2" x1="235.01677531953266" x2="235.01677531953266" y1="0.5" y2="30"/><line opacity="0.2" x1="246.80199382158753" x2="246.80199382158753" y1="0.5" y2="30"/><line opacity="0.2" x1="106.96884667472214" x2="106.96884667472214" y1="0.5" y2="30"/><line opacity="0.2" x1="401.6083713071166" x2="401.6083713071166" y1="0.5" y2="30"/><line opacity="0.2" x1="477.34954151671974" x2="477.34954151671974" y1="0.5" y2="30"/><line opacity="0.2" x1="187.87728147963568" x2="187.87728147963568" y1="0.5" y2="30"/><line opacity="0.2" x1="359.6708247232579" x2="359.6708247232579" y1="0.5" y2="30"/><line opacity="0.2" x1="422.39271492553246" x2="422.39271492553246" y1="0.5" y2="30"/><line opacity="0.2" x1="324.0256631608732" x2="324.0256631608732" y1="0.5" y2="30"/><line opacity="0.2" x1="251.20094442182804" x2="251.20094442182804" y1="0.5" y2="30"/><line opacity="0.2" x1="331.4358437970329" x2="331.4358437970329" y1="0.5" y2="30"/><line opacity="0.2" x1="465.46234195675856" x2="465.46234195675856" y1="0.5" y2="30"/><line opacity="0.2" x1="481.20661938377066" x2="481.20661938377066" y1="0.5" y2="30"/><line opacity="0.2" x1="198.50242055610244" x2="198.50242055610244" y1="0.5" y2="30"/><line opacity="0.2" x1="281.68143951133084" x2="281.68143951133084" y1="0.5" y2="30"/><line opacity="0.2" x1="386.4745037908551" x2="386.4745037908551" y1="0.5" y2="30"/><line opacity="0.2" x1="362.1410494964796" x2="362.1410494964796" y1="0.5" y2="30"/><line opacity="0.2" x1="213.52695284293196" x2="213.52695284293196" y1="0.5" y2="30"/><line opacity="0.2" x1="242.88884263543667" x2="242.88884263543667" y1="0.5" y2="30"/><line opacity="0.2" x1="437.4694250389781" x2="437.4694250389781" y1="0.5" y2="30"/><line opacity="0.2" x1="214.81318586944778" x2="214.81318586944778" y1="0.5" y2="30"/><line opacity="0.2" x1="211.465328399173" x2="211.465328399173" y1="0.5" y2="30"/><line opacity="0.2" x1="219.40762774915424" x2="219.40762774915424" y1="0.5" y2="30"/><line opacity="0.2" x1="364.0920981277255" x2="364.0920981277255" y1="0.5" y2="30"/><line opacity="0.2" x1="412.239832522339" x2="412.239832522339" y1="0.5" y2="30"/><line opacity="0.2" x1="390.5440624295892" x2="390.5440624295892" y1="0.5" y2="30"/><line opacity="0.2" x1="218.54683131809105" x2="218.54683131809105" y1="0.5" y2="30"/><line opacity="0.2" x1="162.1030685920884" x2="162.1030685920884" y1="0.5" y2="30"/><line opacity="0.2" x1="459.52143816342243" x2="459.52143816342243" y1="0.5" y2="30"/><line opacity="0.2" x1="373.72547566257276" x2="373.72547566257276" y1="0.5" y2="30"/><line opacity="0.2" x1="322.6141075421414" x2="322.6141075421414" y1="0.5" y2="30"/><line opacity="0.2" x1="270.3208045464809" x2="270.3208045464809" y1="0.5" y2="30"/><line opacity="0.2" x1="202.98387723047298" x2="202.98387723047298" y1="0.5" y2="30"/><line opacity="0.2" x1="220.01175003174032" x2="220.01175003174032" y1="0.5" y2="30"/><line opacity="0.2" x1="332.8529759633279" x2="332.8529759633279" y1="0.5" y2="30"/><line opacity="0.2" x1="153.66754716321512" x2="153.66754716321512" y1="0.5" y2="30"/><line opacity="0.2" x1="324.2202721993359" x2="324.2202721993359" y1="0.5" y2="30"/><line opacity="0.2" x1="166.60866767332982" x2="166.60866767332982" y1="0.5" y2="30"/><line opacity="0.2" x1="310.3047899716653" x2="310.3047899716653" y1="0.5" y2="30"/><line opacity="0.2" x1="219.1362063596419" x2="219.1362063596419" y1="0.5" y2="30"/><line opacity="0.2" x1="371.08549880348977" x2="371.08549880348977" y1="0.5" y2="30"/><line opacity="0.2" x1="395.95844019088025" x2="395.95844019088025" y1="0.5" y2="30"/><line opacity="0.2" x1="164.86762009950706" x2="164.86762009950706" y1="0.5" y2="30"/><line opacity="0.2" x1="195.06804026240417" x2="195.06804026240417" y1="0.5" y2="30"/><line opacity="0.2" x1="391.5055200180756" x2="391.5055200180756" y1="0.5" y2="30"/><line opacity="0.2" x1="405.4738677000435" x2="405.4738677000435" y1="0.5" y2="30"/><line opacity="0.2" x1="423.55588982459125" x2="423.55588982459125" y1="0.5" y2="30"/><line opacity="0.2" x1="318.555790564615" x2="318.555790564615" y1="0.5" y2="30"/><line opacity="0.2" x1="192.23071085636346" x2="192.23071085636346" y1="0.5" y2="30"/><line opacity="0.2" x1="388.5873037079321" x2="388.5873037079321" y1="0.5" y2="30"/><line opacity="0.2" x1="249.11853973800427" x2="249.11853973800427" y1="0.5" y2="30"/><line opacity="0.2" x1="273.734860607823" x2="273.734860607823" y1="0.5" y2="30"/><line opacity="0.2" x1="217.68480670540274" x2="217.68480670540274" y1="0.5" y2="30"/><line opacity="0.2" x1="444.7116849360527" x2="444.7116849360527" y1="0.5" y2="30"/><line opacity="0.2" x1="363.69927476295743" x2="363.69927476295743" y1="0.5" y2="30"/><line opacity="0.2" x1="341.34232378578537" x2="341.34232378578537" y1="0.5" y2="30"/><line opacity="0.2" x1="253.602915260527" x2="253.602915260527" y1="0.5" y2="30"/><line opacity="0.2" x1="307.4904558266779" x2="307.4904558266779" y1="0.5" y2="30"/><line opacity="0.2" x1="293.53615877725946" x2="293.53615877725946" y1="0.5" y2="30"/><line opacity="0.2" x1="304.5924539411969" x2="304.5924539411969" y1="0.5" y2="30"/><line opacity="0.2" x1="264.56226549358246" x2="264.56226549358246" y1="0.5" y2="30"/><line opacity="0.2" x1="341.11916358306206" x2="341.11916358306206" y1="0.5" y2="30"/><line opacity="0.2" x1="381.26474694672726" x2="381.26474694672726" y1="0.5" y2="30"/><line opacity="0.2" x1="274.1210517070112" x2="274.1210517070112" y1="0.5" y2="30"/><line opacity="0.2" x1="344.46663826174535" x2="344.46663826174535" y1="0.5" y2="30"/><line opacity="0.2" x1="245.15092701072902" x2="245.15092701072902" y1="0.5" y2="30"/><line opacity="0.2" x1="260.40261551963454" x2="260.40261551963454" y1="0.5" y2="30"/><line opacity="0.2" x1="182.14142700934792" x2="182.14142700934792" y1="0.5" y2="30"/><line opacity="0.2" x1="415.73463648004065" x2="415.73463648004065" y1="0.5" y2="30"/><line opacity="0.2" x1="330.4958113706379" x2="330.4958113706379" y1="0.5" y2="30"/><line opacity="0.2" x1="98.99606189432444" x2="98.99606189432444" y1="0.5" y2="30"/><line opacity="0.2" x1="362.44900439895974" x2="362.44900439895974" y1="0.5" y2="30"/><line opacity="0.2" x1="381.2962515140576" x2="381.2962515140576" y1="0.5" y2="30"/><line opacity="0.2" x1="152.52702779854621" x2="152.52702779854621" y1="0.5" y2="30"/><line opacity="0.2" x1="400.8986814677303" x2="400.8986814677303" y1="0.5" y2="30"/><line opacity="0.2" x1="157.7946311830741" x2="157.7946311830741" y1="0.5" y2="30"/><line opacity="0.2" x1="559.9070162335564" x2="559.9070162335564" y1="0.5" y2="30"/><line opacity="0.2" x1="269.06377435419284" x2="269.06377435419284" y1="0.5" y2="30"/><line opacity="0.2" x1="349.02092013963727" x2="349.02092013963727" y1="0.5" y2="30"/><line opacity="0.2" x1="244.56171427557163" x2="244.56171427557163" y1="0.5" y2="30"/><line opacity="0.2" x1="180.30129514258326" x2="180.30129514258326" y1="0.5" y2="30"/><line opacity="0.2" x1="196.63635766552017" x2="196.63635766552017" y1="0.5" y2="30"/><line opacity="0.2" x1="254.1477000438786" x2="254.1477000438786" y1="0.5" y2="30"/><line opacity="0.2" x1="262.5050403636977" x2="262.5050403636977" y1="0.5" y2="30"/><line opacity="0.2" x1="282.6084037996695" x2="282.6084037996695" y1="0.5" y2="30"/><line opacity="0.2" x1="281.5761280922082" x2="281.5761280922082" y1="0.5" y2="30"/><line opacity="0.2" x1="132.83848770536576" x2="132.83848770536576" y1="0.5" y2="30"/><line opacity="0.2" x1="287.2252155710875" x2="287.2252155710875" y1="0.5" y2="30"/><line opacity="0.2" x1="300.49093806608147" x2="300.49093806608147" y1="0.5" y2="30"/><line opacity="0.2" x1="318.93935623425176" x2="318.93935623425176" y1="0.5" y2="30"/><line opacity="0.2" x1="327.75797335218516" x2="327.75797335218516" y1="0.5" y2="30"/><line opacity="0.2" x1="130.49840804007079" x2="130.49840804007079" y1="0.5" y2="30"/><line opacity="0.2" x1="260.95506826259736" x2="260.95506826259736" y1="0.5" y2="30"/><line opacity="0.2" x1="297.34144826519434" x2="297.34144826519434" y1="0.5" y2="30"/><line opacity="0.2" x1="364.4528296150247" x2="364.4528296150247" y1="0.5" y2="30"/><line opacity="0.2" x1="154.9894682158928" x2="154.9894682158928" y1="0.5" y2="30"/><line opacity="0.2" x1="445.1565783273862" x2="445.1565783273862" y1="0.5" y2="30"/><line opacity="0.2" x1="283.8361756617285" x2="283.8361756617285" y1="0.5" y2="30"/><line opacity="0.2" x1="196.37680230499464" x2="196.37680230499464" y1="0.5" y2="30"/><line opacity="0.2" x1="211.68108879173266" x2="211.68108879173266" y1="0.5" y2="30"/><line opacity="0.2" x1="291.6509781664684" x2="291.6509781664684" y1="0.5" y2="30"/><line opacity="0.2" x1="280.2419808235335" x2="280.2419808235335" y1="0.5" y2="30"/><line opacity="0.2" x1="348.51040747415794" x2="348.51040747415794" y1="0.5" y2="30"/><line opacity="0.2" x1="274.79895431676306" x2="274.79895431676306" y1="0.5" y2="30"/><line opacity="0.2" x1="310.6722647175415" x2="310.6722647175415" y1="0.5" y2="30"/><line opacity="0.2" x1="300.7227618629281" x2="300.7227618629281" y1="0.5" y2="30"/><line opacity="0.2" x1="362.16648899257643" x2="362.16648899257643" y1="0.5" y2="30"/><line opacity="0.2" x1="95.16750497111934" x2="95.16750497111934" y1="0.5" y2="30"/><line opacity="0.2" x1="309.2747945353372" x2="309.2747945353372" y1="0.5" y2="30"/><line opacity="0.2" x1="251.69167130972792" x2="251.69167130972792" y1="0.5" y2="30"/><line opacity="0.2" x1="460.34602839937793" x2="460.34602839937793" y1="0.5" y2="30"/><line opacity="0.2" x1="376.91393308318914" x2="376.91393308318914" y1="0.5" y2="30"/><line opacity="0.2" x1="399.5877876180635" x2="399.5877876180635" y1="0.5" y2="30"/><line opacity="0.2" x1="247.15582015073053" x2="247.15582015073053" y1="0.5" y2="30"/><line opacity="0.2" x1="344.00426172716743" x2="344.00426172716743" y1="0.5" y2="30"/><line opacity="0.2" x1="295.2703132735014" x2="295.2703132735014" y1="0.5" y2="30"/><line opacity="0.2" x1="264.14628921519375" x2="264.14628921519375" y1="0.5" y2="30"/><line opacity="0.2" x1="484.82392144534776" x2="484.82392144534776" y1="0.5" y2="30"/><line opacity="0.2" x1="411.52025253791555" x2="411.52025253791555" y1="0.5" y2="30"/><line opacity="0.2" x1="296.8913387189956" x2="296.8913387189956" y1="0.5" y2="30"/><line opacity="0.2" x1="366.4150356147831" x2="366.4150356147831" y1="0.5" y2="30"/><line opacity="0.2" x1="343.9486798368794" x2="343.9486798368794" y1="0.5" y2="30"/><line opacity="0.2" x1="351.6771014370484" x2="351.6771014370484" y1="0.5" y2="30"/><line opacity="0.2" x1="335.57047944570644" x2="335.57047944570644" y1="0.5" y2="30"/><line opacity="0.2" x1="253.52597834100192" x2="253.52597834100192" y1="0.5" y2="30"/><line opacity="0.2" x1="146.70574097677118" x2="146.70574097677118" y1="0.5" y2="30"/><line opacity="0.2" x1="252.84386191523396" x2="252.84386191523396" y1="0.5" y2="30"/><line opacity="0.2" x1="367.5048484629908" x2="367.5048484629908" y1="0.5" y2="30"/><line opacity="0.2" x1="398.622565512703" x2="398.622565512703" y1="0.5" y2="30"/><line opacity="0.2" x1="421.2414697224312" x2="421.2414697224312" y1="0.5" y2="30"/><line opacity="0.2" x1="279.22417041867175" x2="279.22417041867175" y1="0.5" y2="30"/><line opacity="0.2" x1="178.1277517260647" x2="178.1277517260647" y1="0.5" y2="30"/><line opacity="0.2" x1="395.8914442063671" x2="395.8914442063671" y1="0.5" y2="30"/><line opacity="0.2" x1="499.2707586785638" x2="499.2707586785638" y1="0.5" y2="30"/><line opacity="0.2" x1="350.4316338968002" x2="350.4316338968002" y1="0.5" y2="30"/><line opacity="0.2" x1="364.04240931450977" x2="364.04240931450977" y1="0.5" y2="30"/><line opacity="0.2" x1="250.75076841458528" x2="250.75076841458528" y1="0.5" y2="30"/><line opacity="0.2" x1="271.3892223463387" x2="271.3892223463387" y1="0.5" y2="30"/><line opacity="0.2" x1="277.68458421316836" x2="277.68458421316836" y1="0.5" y2="30"/><line opacity="0.2" x1="293.58809738890625" x2="293.58809738890625" y1="0.5" y2="30"/><line opacity="0.2" x1="177.27025105109735" x2="177.27025105109735" y1="0.5" y2="30"/><line opacity="0.2" x1="126.52391759228752" x2="126.52391759228752" y1="0.5" y2="30"/><line opacity="0.2" x1="342.2235633226615" x2="342.2235633226615" y1="0.5" y2="30"/><line opacity="0.2" x1="243.54156186956635" x2="243.54156186956635" y1="0.5" y2="30"/><line opacity="0.2" x1="467.07459618022864" x2="467.07459618022864" y1="0.5" y2="30"/><line opacity="0.2" x1="210.116866404321" x2="210.116866404321" y1="0.5" y2="30"/><line opacity="0.2" x1="282.49438141788846" x2="282.49438141788846" y1="0.5" y2="30"/><line opacity="0.2" x1="481.0086106506738" x2="481.0086106506738" y1="0.5" y2="30"/><line opacity="0.2" x1="271.66359331028923" x2="271.66359331028923" y1="0.5" y2="30"/><line opacity="0.2" x1="271.03773602004435" x2="271.03773602004435" y1="0.5" y2="30"/><line opacity="0.2" x1="399.5107524227813" x2="399.5107524227813" y1="0.5" y2="30"/><line opacity="0.2" x1="293.41047217859597" x2="293.41047217859597" y1="0.5" y2="30"/><line opacity="0.2" x1="320.86738753771647" x2="320.86738753771647" y1="0.5" y2="30"/><line opacity="0.2" x1="278.1341061903574" x2="278.1341061903574" y1="0.5" y2="30"/><line opacity="0.2" x1="328.96824094646774" x2="328.96824094646774" y1="0.5" y2="30"/><line opacity="0.2" x1="264.13895190926286" x2="264.13895190926286" y1="0.5" y2="30"/><line opacity="0.2" x1="284.2673091239888" x2="284.2673091239888" y1="0.5" y2="30"/><line opacity="0.2" x1="272.99661972214585" x2="272.99661972214585" y1="0.5" y2="30"/><line opacity="0.2" x1="20" x2="20" y1="0.5" y2="30"/><line opacity="0.2" x1="200.1605947057949" x2="200.1605947057949" y1="0.5" y2="30"/><line opacity="0.2" x1="341.6165317427259" x2="341.6165317427259" y1="0.5" y2="30"/><line opacity="0.2" x1="277.55044170102593" x2="277.55044170102593" y1="0.5" y2="30"/><line opacity="0.2" x1="249.03634510774623" x2="249.03634510774623" y1="0.5" y2="30"/><line opacity="0.2" x1="224.78618801544422" x2="224.78618801544422" y1="0.5" y2="30"/><line opacity="0.2" x1="428.11149821279383" x2="428.11149821279383" y1="0.5" y2="30"/><line opacity="0.2" x1="377.84100153640213" x2="377.84100153640213" y1="0.5" y2="30"/><line opacity="0.2" x1="373.3575222169661" x2="373.3575222169661" y1="0.5" y2="30"/><line opacity="0.2" x1="275.5794983600069" x2="275.5794983600069" y1="0.5" y2="30"/><line opacity="0.2" x1="251.7174007793454" x2="251.7174007793454" y1="0.5" y2="30"/><line opacity="0.2" x1="275.12571624086104" x2="275.12571624086104" y1="0.5" y2="30"/><line opacity="0.2" x1="207.682507006889" x2="207.682507006889" y1="0.5" y2="30"/><line opacity="0.2" x1="215.34447155102967" x2="215.34447155102967" y1="0.5" y2="30"/><line opacity="0.2" x1="298.2547493133503" x2="298.2547493133503" y1="0.5" y2="30"/><line opacity="0.2" x1="322.0575050945253" x2="322.0575050945253" y1="0.5" y2="30"/><line opacity="0.2" x1="315.65474974551427" x2="315.65474974551427" y1="0.5" y2="30"/><line opacity="0.2" x1="335.4213076474923" x2="335.4213076474923" y1="0.5" y2="30"/><line opacity="0.2" x1="281.1448459663034" x2="281.1448459663034" y1="0.5" y2="30"/><line opacity="0.2" x1="277.75022350461666" x2="277.75022350461666" y1="0.5" y2="30"/><line opacity="0.2" x1="300.6981613626878" x2="300.6981613626878" y1="0.5" y2="30"/><line opacity="0.2" x1="430.23887929037306" x2="430.23887929037306" y1="0.5" y2="30"/><line opacity="0.2" x1="394.75416829256363" x2="394.75416829256363" y1="0.5" y2="30"/><line opacity="0.2" x1="285.99522984420395" x2="285.99522984420395" y1="0.5" y2="30"/><line opacity="0.2" x1="460.370014313032" x2="460.370014313032" y1="0.5" y2="30"/><line opacity="0.2" x1="350.5672565784916" x2="350.5672565784916" y1="0.5" y2="30"/><line opacity="0.2" x1="333.0770832215259" x2="333.0770832215259" y1="0.5" y2="30"/><line opacity="0.2" x1="383.6689537378755" x2="383.6689537378755" y1="0.5" y2="30"/><line opacity="0.2" x1="229.50057200178355" x2="229.50057200178355" y1="0.5" y2="30"/><line opacity="0.2" x1="296.7200615786702" x2="296.7200615786702" y1="0.5" y2="30"/><line opacity="0.2" x1="413.51434248394946" x2="413.51434248394946" y1="0.5" y2="30"/><line opacity="0.2" x1="529.228934101838" x2="529.228934101838" y1="0.5" y2="30"/><line opacity="0.2" x1="300.58947565511" x2="300.58947565511" y1="0.5" y2="30"/><line opacity="0.2" x1="286.0523402711638" x2="286.0523402711638" y1="0.5" y2="30"/><line opacity="0.2" x1="383.38381364251177" x2="383.38381364251177" y1="0.5" y2="30"/><line opacity="0.2" x1="351.02045122875046" x2="351.02045122875046" y1="0.5" y2="30"/><line opacity="0.2" x1="308.7034468707826" x2="308.7034468707826" y1="0.5" y2="30"/><line opacity="0.2" x1="358.1119657954214" x2="358.1119657954214" y1="0.5" y2="30"/><line opacity="0.2" x1="478.4674464858034" x2="478.4674464858034" y1="0.5" y2="30"/><line opacity="0.2" x1="346.7240285403984" x2="346.7240285403984" y1="0.5" y2="30"/><line opacity="0.2" x1="500.3962163283334" x2="500.3962163283334" y1="0.5" y2="30"/><line opacity="0.2" x1="295.5861418179866" x2="295.5861418179866" y1="0.5" y2="30"/><line opacity="0.2" x1="308.0607011011132" x2="308.0607011011132" y1="0.5" y2="30"/><line opacity="0.2" x1="272.3160792879271" x2="272.3160792879271" y1="0.5" y2="30"/><line opacity="0.2" x1="200.74085934089467" x2="200.74085934089467" y1="0.5" y2="30"/><line opacity="0.2" x1="385.70574177014464" x2="385.70574177014464" y1="0.5" y2="30"/><line opacity="0.2" x1="439.76570609550816" x2="439.76570609550816" y1="0.5" y2="30"/><line opacity="0.2" x1="364.94887376748324" x2="364.94887376748324" y1="0.5" y2="30"/><line opacity="0.2" x1="405.3795192542052" x2="405.3795192542052" y1="0.5" y2="30"/><line opacity="0.2" x1="302.3998837516003" x2="302.3998837516003" y1="0.5" y2="30"/><line opacity="0.2" x1="272.0096022899102" x2="272.0096022899102" y1="0.5" y2="30"/><line opacity="0.2" x1="214.74698999288688" x2="214.74698999288688" y1="0.5" y2="30"/><line opacity="0.2" x1="349.3484615902002" x2="349.3484615902002" y1="0.5" y2="30"/><line opacity="0.2" x1="368.5711602759016" x2="368.5711602759016" y1="0.5" y2="30"/><line opacity="0.2" x1="246.5966602694693" x2="246.5966602694693" y1="0.5" y2="30"/><line opacity="0.2" x1="485.42011837798526" x2="485.42011837798526" y1="0.5" y2="30"/><line opacity="0.2" x1="406.9450995628434" x2="406.9450995628434" y1="0.5" y2="30"/><line opacity="0.2" x1="255.09567384741496" x2="255.09567384741496" y1="0.5" y2="30"/><line opacity="0.2" x1="455.811482137424" x2="455.811482137424" y1="0.5" y2="30"/><line opacity="0.2" x1="362.3336558752669" x2="362.3336558752669" y1="0.5" y2="30"/><line opacity="0.2" x1="323.9471016528237" x2="323.9471016528237" y1="0.5" y2="30"/><line opacity="0.2" x1="506.57268805240557" x2="506.57268805240557" y1="0.5" y2="30"/><line opacity="0.2" x1="260.903695176498" x2="260.903695176498" y1="0.5" y2="30"/><line opacity="0.2" x1="401.6525590011504" x2="401.6525590011504" y1="0.5" y2="30"/><line opacity="0.2" x1="242.32041064414193" x2="242.32041064414193" y1="0.5" y2="30"/><line opacity="0.2" x1="312.020606435386" x2="312.020606435386" y1="0.5" y2="30"/><line opacity="0.2" x1="386.24168710834647" x2="386.24168710834647" y1="0.5" y2="30"/><line opacity="0.2" x1="350.1714130257207" x2="350.1714130257207" y1="0.5" y2="30"/><line opacity="0.2" x1="398.5509850714309" x2="398.5509850714309" y1="0.5" y2="30"/><line opacity="0.2" x1="172.03439124529893" x2="172.03439124529893" y1="0.5" y2="30"/><line opacity="0.2" x1="276.86803791376104" x2="276.86803791376104" y1="0.5" y2="30"/><line opacity="0.2" x1="269.471207853045" x2="269.471207853045" y1="0.5" y2="30"/><line opacity="0.2" x1="116.60045673279112" x2="116.60045673279112" y1="0.5" y2="30"/><line opacity="0.2" x1="263.5896220167531" x2="263.5896220167531" y1="0.5" y2="30"/><line opacity="0.2" x1="302.6712861316059" x2="302.6712861316059" y1="0.5" y2="30"/><line opacity="0.2" x1="349.7806737693423" x2="349.7806737693423" y1="0.5" y2="30"/><line opacity="0.2" x1="272.9993793493188" x2="272.9993793493188" y1="0.5" y2="30"/><line opacity="0.2" x1="262.6029386360586" x2="262.6029386360586" y1="0.5" y2="30"/><line opacity="0.2" x1="365.0077796582549" x2="365.0077796582549" y1="0.5" y2="30"/><line opacity="0.2" x1="268.1117892727211" x2="268.1117892727211" y1="0.5" y2="30"/><line opacity="0.2" x1="350.66684811264605" x2="350.66684811264605" y1="0.5" y2="30"/><line opacity="0.2" x1="440.56117466559226" x2="440.56117466559226" y1="0.5" y2="30"/><line opacity="0.2" x1="411.0657118858482" x2="411.0657118858482" y1="0.5" y2="30"/><line opacity="0.2" x1="402.22003609497824" x2="402.22003609497824" y1="0.5" y2="30"/><line opacity="0.2" x1="329.6543200382974" x2="329.6543200382974" y1="0.5" y2="30"/><line opacity="0.2" x1="227.0520348768927" x2="227.0520348768927" y1="0.5" y2="30"/><line opacity="0.2" x1="180.03762938196203" x2="180.03762938196203" y1="0.5" y2="30"/><line opacity="0.2" x1="303.10998579559794" x2="303.10998579559794" y1="0.5" y2="30"/><line opacity="0.2" x1="305.82427656749536" x2="305.82427656749536" y1="0.5" y2="30"/><line opacity="0.2" x1="197.37569782682516" x2="197.37569782682516" y1="0.5" y2="30"/><line opacity="0.2" x1="533.1064653046978" x2="533.1064653046978" y1="0.5" y2="30"/><line opacity="0.2" x1="309.87174834010466" x2="309.87174834010466" y1="0.5" y2="30"/><line opacity="0.2" x1="104.79361345054129" x2="104.79361345054129" y1="0.5" y2="30"/><line opacity="0.2" x1="296.32510046855907" x2="296.32510046855907" y1="0.5" y2="30"/><line opacity="0.2" x1="233.38778668307114" x2="233.38778668307114" y1="0.5" y2="30"/><line opacity="0.2" x1="181.0849335691483" x2="181.0849335691483" y1="0.5" y2="30"/><line opacity="0.2" x1="214.4542144924112" x2="214.4542144924112" y1="0.5" y2="30"/><line opacity="0.2" x1="186.12598918208354" x2="186.12598918208354" y1="0.5" y2="30"/><line opacity="0.2" x1="338.9323332151835" x2="338.9323332151835" y1="0.5" y2="30"/><line opacity="0.2" x1="288.3172030228258" x2="288.3172030228258" y1="0.5" y2="30"/><line opacity="0.2" x1="358.2821614520935" x2="358.2821614520935" y1="0.5" y2="30"/><line opacity="0.2" x1="418.442466879042" x2="418.442466879042" y1="0.5" y2="30"/><line opacity="0.2" x1="389.7423978433875" x2="389.7423978433875" y1="0.5" y2="30"/><line opacity="0.2" x1="207.3515867633628" x2="207.3515867633628" y1="0.5" y2="30"/><line opacity="0.2" x1="209.1549085115285" x2="209.1549085115285" y1="0.5" y2="30"/><line opacity="0.2" x1="446.9152844795877" x2="446.9152844795877" y1="0.5" y2="30"/><line opacity="0.2" x1="359.6274465546894" x2="359.6274465546894" y1="0.5" y2="30"/><line opacity="0.2" x1="381.94565067832275" x2="381.94565067832275" y1="0.5" y2="30"/><line opacity="0.2" x1="245.01767018216142" x2="245.01767018216142" y1="0.5" y2="30"/><line opacity="0.2" x1="315.70428702334476" x2="315.70428702334476" y1="0.5" y2="30"/><line opacity="0.2" x1="307.265237213035" x2="307.265237213035" y1="0.5" y2="30"/><line opacity="0.2" x1="369.6041879339313" x2="369.6041879339313" y1="0.5" y2="30"/><line opacity="0.2" x1="120.79606648454893" x2="120.79606648454893" y1="0.5" y2="30"/><line opacity="0.2" x1="478.54492288302066" x2="478.54492288302066" y1="0.5" y2="30"/><line opacity="0.2" x1="390.16554967275056" x2="390.16554967275056" y1="0.5" y2="30"/><line opacity="0.2" x1="469.6099283333544" x2="469.6099283333544" y1="0.5" y2="30"/><line opacity="0.2" x1="140.7449376883756" x2="140.7449376883756" y1="0.5" y2="30"/><line opacity="0.2" x1="299.6791005589854" x2="299.6791005589854" y1="0.5" y2="30"/><line opacity="0.2" x1="141.37800579035996" x2="141.37800579035996" y1="0.5" y2="30"/><line opacity="0.2" x1="328.01644430327076" x2="328.01644430327076" y1="0.5" y2="30"/><line opacity="0.2" x1="415.71802175300274" x2="415.71802175300274" y1="0.5" y2="30"/><line opacity="0.2" x1="208.0997552224678" x2="208.0997552224678" y1="0.5" y2="30"/><line opacity="0.2" x1="384.09053161828706" x2="384.09053161828706" y1="0.5" y2="30"/><line opacity="0.2" x1="421.4468844226653" x2="421.4468844226653" y1="0.5" y2="30"/><line opacity="0.2" x1="272.92646312707734" x2="272.92646312707734" y1="0.5" y2="30"/><line opacity="0.2" x1="519.3041378641105" x2="519.3041378641105" y1="0.5" y2="30"/><line opacity="0.2" x1="79.07045964112982" x2="79.07045964112982" y1="0.5" y2="30"/><line opacity="0.2" x1="407.8260326996717" x2="407.8260326996717" y1="0.5" y2="30"/><line opacity="0.2" x1="311.51182973996333" x2="311.51182973996333" y1="0.5" y2="30"/><line opacity="0.2" x1="285.8309676643262" x2="285.8309676643262" y1="0.5" y2="30"/><line opacity="0.2" x1="295.8391705831974" x2="295.8391705831974" y1="0.5" y2="30"/><line opacity="0.2" x1="324.1493831390236" x2="324.1493831390236" y1="0.5" y2="30"/><line opacity="0.2" x1="362.27943347690933" x2="362.27943347690933" y1="0.5" y2="30"/><line opacity="0.2" x1="384.1477465640387" x2="384.1477465640387" y1="0.5" y2="30"/><line opacity="0.2" x1="290.87658769113216" x2="290.87658769113216" y1="0.5" y2="30"/><line opacity="0.2" x1="331.0132776078422" x2="331.0132776078422" y1="0.5" y2="30"/><line opacity="0.2" x1="342.282396164976" x2="342.282396164976" y1="0.5" y2="30"/><line opacity="0.2" x1="374.4381142474297" x2="374.4381142474297" y1="0.5" y2="30"/><line opacity="0.2" x1="362.7243901409081" x2="362.7243901409081" y1="0.5" y2="30"/><line opacity="0.2" x1="280.2101167126042" x2="280.2101167126042" y1="0.5" y2="30"/><line opacity="0.2" x1="340.3411398993756" x2="340.3411398993756" y1="0.5" y2="30"/><line opacity="0.2" x1="484.9629987408" x2="484.9629987408" y1="0.5" y2="30"/><line opacity="0.2" x1="428.53586620724604" x2="428.53586620724604" y1="0.5" y2="30"/><line opacity="0.2" x1="196.3212253333187" x2="196.3212253333187" y1="0.5" y2="30"/><line opacity="0.2" x1="396.57328835488806" x2="396.57328835488806" y1="0.5" y2="30"/><line opacity="0.2" x1="309.20294570574885" x2="309.20294570574885" y1="0.5" y2="30"/><line opacity="0.2" x1="254.83743162394293" x2="254.83743162394293" y1="0.5" y2="30"/><line opacity="0.2" x1="411.42602383947394" x2="411.42602383947394" y1="0.5" y2="30"/><line opacity="0.2" x1="301.73077021745365" x2="301.73077021745365" y1="0.5" y2="30"/><line opacity="0.2" x1="362.5081881627279" x2="362.5081881627279" y1="0.5" y2="30"/><line opacity="0.2" x1="281.28902323380765" x2="281.28902323380765" y1="0.5" y2="30"/><line opacity="0.2" x1="137.2987319403068" x2="137.2987319403068" y1="0.5" y2="30"/><line opacity="0.2" x1="365.1811080510692" x2="365.1811080510692" y1="0.5" y2="30"/><line opacity="0.2" x1="283.24409946913585" x2="283.24409946913585" y1="0.5" y2="30"/><line opacity="0.2" x1="405.2898335176577" x2="405.2898335176577" y1="0.5" y2="30"/><line opacity="0.2" x1="393.2506687947452" x2="393.2506687947452" y1="0.5" y2="30"/><line opacity="0.2" x1="352.91616527963515" x2="352.91616527963515" y1="0.5" y2="30"/><line opacity="0.2" x1="264.2924879941624" x2="264.2924879941624" y1="0.5" y2="30"/><line opacity="0.2" x1="242.1529254364572" x2="242.1529254364572" y1="0.5" y2="30"/><line opacity="0.2" x1="361.2884299956784" x2="361.2884299956784" y1="0.5" y2="30"/><line opacity="0.2" x1="438.84034980643406" x2="438.84034980643406" y1="0.5" y2="30"/><line opacity="0.2" x1="459.6984825615111" x2="459.6984825615111" y1="0.5" y2="30"/><line opacity="0.2" x1="270.3431457498728" x2="270.3431457498728" y1="0.5" y2="30"/><line opacity="0.2" x1="283.2502450598346" x2="283.2502450598346" y1="0.5" y2="30"/><line opacity="0.2" x1="345.07117525902567" x2="345.07117525902567" y1="0.5" y2="30"/><line opacity="0.2" x1="218.6122312516955" x2="218.6122312516955" y1="0.5" y2="30"/><line opacity="0.2" x1="426.7199497779844" x2="426.7199497779844" y1="0.5" y2="30"/><line opacity="0.2" x1="360.7569649717375" x2="360.7569649717375" y1="0.5" y2="30"/><line opacity="0.2" x1="329.38155025915273" x2="329.38155025915273" y1="0.5" y2="30"/><line opacity="0.2" x1="282.4901887209271" x2="282.4901887209271" y1="0.5" y2="30"/><line opacity="0.2" x1="336.8818720781291" x2="336.8818720781291" y1="0.5" y2="30"/><line opacity="0.2" x1="378.7688531101924" x2="378.7688531101924" y1="0.5" y2="30"/><line opacity="0.2" x1="474.02542651705164" x2="474.02542651705164" y1="0.5" y2="30"/><line opacity="0.2" x1="240.93392537697574" x2="240.93392537697574" y1="0.5" y2="30"/><line opacity="0.2" x1="272.10186241348947" x2="272.10186241348947" y1="0.5" y2="30"/><line opacity="0.2" x1="256.52653844106015" x2="256.52653844106015" y1="0.5" y2="30"/><line opacity="0.2" x1="254.15489194281693" x2="254.15489194281693" y1="0.5" y2="30"/><line opacity="0.2" x1="226.22003352447675" x2="226.22003352447675" y1="0.5" y2="30"/><line opacity="0.2" x1="88.80957468097111" x2="88.80957468097111" y1="0.5" y2="30"/><line opacity="0.2" x1="493.8842249508754" x2="493.8842249508754" y1="0.5" y2="30"/><line opacity="0.2" x1="226.67114625112976" x2="226.67114625112976" y1="0.5" y2="30"/><line opacity="0.2" x1="426.0505690006403" x2="426.0505690006403" y1="0.5" y2="30"/><line opacity="0.2" x1="287.11968735179215" x2="287.11968735179215" y1="0.5" y2="30"/><line opacity="0.2" x1="365.50086821146283" x2="365.50086821146283" y1="0.5" y2="30"/><line opacity="0.2" x1="361.9279574085483" x2="361.9279574085483" y1="0.5" y2="30"/><line opacity="0.2" x1="225.92386387743397" x2="225.92386387743397" y1="0.5" y2="30"/><line opacity="0.2" x1="318.6877570200003" x2="318.6877570200003" y1="0.5" y2="30"/><line opacity="0.2" x1="323.3120858690593" x2="323.3120858690593" y1="0.5" y2="30"/><line opacity="0.2" x1="541.7886092060703" x2="541.7886092060703" y1="0.5" y2="30"/><line opacity="0.2" x1="159.73680653825997" x2="159.73680653825997" y1="0.5" y2="30"/><line opacity="0.2" x1="290.51630299959754" x2="290.51630299959754" y1="0.5" y2="30"/><line opacity="0.2" x1="218.94432481198064" x2="218.94432481198064" y1="0.5" y2="30"/><line opacity="0.2" x1="399.671288521579" x2="399.671288521579" y1="0.5" y2="30"/><line opacity="0.2" x1="376.8442905936781" x2="376.8442905936781" y1="0.5" y2="30"/><line opacity="0.2" x1="335.01840863827016" x2="335.01840863827016" y1="0.5" y2="30"/><line opacity="0.2" x1="197.42468292009676" x2="197.42468292009676" y1="0.5" y2="30"/><line opacity="0.2" x1="388.18102055003743" x2="388.18102055003743" y1="0.5" y2="30"/><line opacity="0.2" x1="246.74735092398677" x2="246.74735092398677" y1="0.5" y2="30"/><line opacity="0.2" x1="345.75424727058606" x2="345.75424727058606" y1="0.5" y2="30"/><line opacity="0.2" x1="408.19882099733206" x2="408.19882099733206" y1="0.5" y2="30"/><line opacity="0.2" x1="346.7744015326482" x2="346.7744015326482" y1="0.5" y2="30"/><line opacity="0.2" x1="312.6857222878832" x2="312.6857222878832" y1="0.5" y2="30"/><line opacity="0.2" x1="298.59448202016273" x2="298.59448202016273" y1="0.5" y2="30"/><line opacity="0.2" x1="253.55963669344314" x2="253.55963669344314" y1="0.5" y2="30"/><line opacity="0.2" x1="351.78139545255453" x2="351.78139545255453" y1="0.5" y2="30"/><line opacity="0.2" x1="401.0155036670938" x2="401.0155036670938" y1="0.5" y2="30"/><line opacity="0.2" x1="511.76493589660214" x2="511.76493589660214" y1="0.5" y2="30"/><line opacity="0.2" x1="151.49297777753523" x2="151.49297777753523" y1="0.5" y2="30"/><line opacity="0.2" x1="290.61106838841727" x2="290.61106838841727" y1="0.5" y2="30"/><line opacity="0.2" x1="558.4260827013336" x2="558.4260827013336" y1="0.5" y2="30"/><line opacity="0.2" x1="184.25456086891901" x2="184.25456086891901" y1="0.5" y2="30"/><line opacity="0.2" x1="366.21303396801767" x2="366.21303396801767" y1="0.5" y2="30"/><line opacity="0.2" x1="363.8246131628878" x2="363.8246131628878" y1="0.5" y2="30"/><line opacity="0.2" x1="485.4142831430643" x2="485.4142831430643" y1="0.5" y2="30"/><line opacity="0.2" x1="294.42062502642875" x2="294.42062502642875" y1="0.5" y2="30"/><line opacity="0.2" x1="277.0762574259215" x2="277.0762574259215" y1="0.5" y2="30"/><line opacity="0.2" x1="388.5533649146132" x2="388.5533649146132" y1="0.5" y2="30"/><line opacity="0.2" x1="459.2606856223026" x2="459.2606856223026" y1="0.5" y2="30"/><line opacity="0.2" x1="419.82033110265104" x2="419.82033110265104" y1="0.5" y2="30"/><line opacity="0.2" x1="318.8329503593079" x2="318.8329503593079" y1="0.5" y2="30"/><line opacity="0.2" x1="269.99090416074984" x2="269.99090416074984" y1="0.5" y2="30"/><line opacity="0.2" x1="270.6357299277155" x2="270.6357299277155" y1="0.5" y2="30"/><line opacity="0.2" x1="120.66243118507641" x2="120.66243118507641" y1="0.5" y2="30"/><line opacity="0.2" x1="180.10949699939198" x2="180.10949699939198" y1="0.5" y2="30"/><line opacity="0.2" x1="415.5273302362277" x2="415.5273302362277" y1="0.5" y2="30"/><line opacity="0.2" x1="506.8478706248377" x2="506.8478706248377" y1="0.5" y2="30"/><line opacity="0.2" x1="432.0713340243067" x2="432.0713340243067" y1="0.5" y2="30"/><line opacity="0.2" x1="375.99826831898264" x2="375.99826831898264" y1="0.5" y2="30"/><line opacity="0.2" x1="275.0905399813606" x2="275.0905399813606" y1="0.5" y2="30"/><line opacity="0.2" x1="314.426778795368" x2="314.426778795368" y1="0.5" y2="30"/><line opacity="0.2" x1="324.2987463751744" x2="324.2987463751744" y1="0.5" y2="30"/><line opacity="0.2" x1="235.59911719722464" x2="235.59911719722464" y1="0.5" y2="30"/><line opacity="0.2" x1="359.32778711845316" x2="359.32778711845316" y1="0.5" y2="30"/><line opacity="0.2" x1="287.6965848925394" x2="287.6965848925394" y1="0.5" y2="30"/><line opacity="0.2" x1="266.73394500689955" x2="266.73394500689955" y1="0.5" y2="30"/><line opacity="0.2" x1="335.3154934474319" x2="335.3154934474319" y1="0.5" y2="30"/><line opacity="0.2" x1="216.93189113512355" x2="216.93189113512355" y1="0.5" y2="30"/><line opacity="0.2" x1="175.1436809398153" x2="175.1436809398153" y1="0.5" y2="30"/><line opacity="0.2" x1="365.19387637855317" x2="365.19387637855317" y1="0.5" y2="30"/><line opacity="0.2" x1="335.95656909258867" x2="335.95656909258867" y1="0.5" y2="30"/><line opacity="0.2" x1="297.0326491125342" x2="297.0326491125342" y1="0.5" y2="30"/><line opacity="0.2" x1="351.3391729081574" x2="351.3391729081574" y1="0.5" y2="30"/><line opacity="0.2" x1="284.0686807293145" x2="284.0686807293145" y1="0.5" y2="30"/><line opacity="0.2" x1="341.3871675056039" x2="341.3871675056039" y1="0.5" y2="30"/><line opacity="0.2" x1="346.28567640316436" x2="346.28567640316436" y1="0.5" y2="30"/><line opacity="0.2" x1="279.43371568015385" x2="279.43371568015385" y1="0.5" y2="30"/><line opacity="0.2" x1="260.8872128486238" x2="260.8872128486238" y1="0.5" y2="30"/><line opacity="0.2" x1="303.07833884803483" x2="303.07833884803483" y1="0.5" y2="30"/><line opacity="0.2" x1="95.07618400583543" x2="95.07618400583543" y1="0.5" y2="30"/><line opacity="0.2" x1="223.9884467686118" x2="223.9884467686118" y1="0.5" y2="30"/><line opacity="0.2" x1="281.3825153475478" x2="281.3825153475478" y1="0.5" y2="30"/><line opacity="0.2" x1="375.62283659417795" x2="375.62283659417795" y1="0.5" y2="30"/><line opacity="0.2" x1="253.52764737974542" x2="253.52764737974542" y1="0.5" y2="30"/><line opacity="0.2" x1="278.0922987694099" x2="278.0922987694099" y1="0.5" y2="30"/><line opacity="0.2" x1="349.05759040133114" x2="349.05759040133114" y1="0.5" y2="30"/><line opacity="0.2" x1="188.18338439482227" x2="188.18338439482227" y1="0.5" y2="30"/><line opacity="0.2" x1="355.2509292823927" x2="355.2509292823927" y1="0.5" y2="30"/><line opacity="0.2" x1="485.7947622552096" x2="485.7947622552096" y1="0.5" y2="30"/><line opacity="0.2" x1="194.51121609065308" x2="194.51121609065308" y1="0.5" y2="30"/><line opacity="0.2" x1="214.65398974329096" x2="214.65398974329096" y1="0.5" y2="30"/><line opacity="0.2" x1="419.0772633498867" x2="419.0772633498867" y1="0.5" y2="30"/><line opacity="0.2" x1="297.7201532107855" x2="297.7201532107855" y1="0.5" y2="30"/><line opacity="0.2" x1="397.4984780566482" x2="397.4984780566482" y1="0.5" y2="30"/><line opacity="0.2" x1="327.610754659181" x2="327.610754659181" y1="0.5" y2="30"/><line opacity="0.2" x1="370.4269525906127" x2="370.4269525906127" y1="0.5" y2="30"/><line opacity="0.2" x1="151.13273641816352" x2="151.13273641816352" y1="0.5" y2="30"/><line opacity="0.2" x1="269.90740383970837" x2="269.90740383970837" y1="0.5" y2="30"/><line opacity="0.2" x1="276.60724189537734" x2="276.60724189537734" y1="0.5" y2="30"/><line opacity="0.2" x1="341.3132046425676" x2="341.3132046425676" y1="0.5" y2="30"/><line opacity="0.2" x1="376.16750243096925" x2="376.16750243096925" y1="0.5" y2="30"/><line opacity="0.2" x1="289.9039807632948" x2="289.9039807632948" y1="0.5" y2="30"/><line opacity="0.2" x1="251.2845916896648" x2="251.2845916896648" y1="0.5" y2="30"/><line opacity="0.2" x1="341.3995492613298" x2="341.3995492613298" y1="0.5" y2="30"/><line opacity="0.2" x1="310.4311572504641" x2="310.4311572504641" y1="0.5" y2="30"/><line opacity="0.2" x1="359.022552443917" x2="359.022552443917" y1="0.5" y2="30"/><line opacity="0.2" x1="275.2863153343852" x2="275.2863153343852" y1="0.5" y2="30"/><line opacity="0.2" x1="183.86644178947577" x2="183.86644178947577" y1="0.5" y2="30"/><line opacity="0.2" x1="511.3614648550103" x2="511.3614648550103" y1="0.5" y2="30"/><line opacity="0.2" x1="301.7211793021423" x2="301.7211793021423" y1="0.5" y2="30"/><line opacity="0.2" x1="261.9120820653826" x2="261.9120820653826" y1="0.5" y2="30"/><line opacity="0.2" x1="234.61430806396442" x2="234.61430806396442" y1="0.5" y2="30"/><line opacity="0.2" x1="300.3573295993751" x2="300.3573295993751" y1="0.5" y2="30"/><line opacity="0.2" x1="293.20993652239207" x2="293.20993652239207" y1="0.5" y2="30"/><line opacity="0.2" x1="242.04447250651498" x2="242.04447250651498" y1="0.5" y2="30"/><line opacity="0.2" x1="140.13164019624293" x2="140.13164019624293" y1="0.5" y2="30"/><line opacity="0.2" x1="381.2586731629986" x2="381.2586731629986" y1="0.5" y2="30"/><line opacity="0.2" x1="432.87075287035975" x2="432.87075287035975" y1="0.5" y2="30"/><line opacity="0.2" x1="216.5593798320945" x2="216.5593798320945" y1="0.5" y2="30"/><line opacity="0.2" x1="361.8219967150545" x2="361.8219967150545" y1="0.5" y2="30"/><line opacity="0.2" x1="273.05269118479595" x2="273.05269118479595" y1="0.5" y2="30"/><line opacity="0.2" x1="300.7121099543569" x2="300.7121099543569" y1="0.5" y2="30"/><line opacity="0.2" x1="325.9302115480686" x2="325.9302115480686" y1="0.5" y2="30"/><line opacity="0.2" x1="223.05444104265695" x2="223.05444104265695" y1="0.5" y2="30"/><line opacity="0.2" x1="486.09221845208856" x2="486.09221845208856" y1="0.5" y2="30"/><line opacity="0.2" x1="270.1598546958619" x2="270.1598546958619" y1="0.5" y2="30"/><line opacity="0.2" x1="484.13950469634864" x2="484.13950469634864" y1="0.5" y2="30"/><line opacity="0.2" x1="349.5752633683036" x2="349.5752633683036" y1="0.5" y2="30"/><line opacity="0.2" x1="191.57888487700066" x2="191.57888487700066" y1="0.5" y2="30"/><line opacity="0.2" x1="414.7224496245563" x2="414.7224496245563" y1="0.5" y2="30"/><line opacity="0.2" x1="277.0339814245251" x2="277.0339814245251" y1="0.5" y2="30"/><line opacity="0.2" x1="462.99798675546316" x2="462.99798675546316" y1="0.5" y2="30"/><line opacity="0.2" x1="347.5231390831535" x2="347.5231390831535" y1="0.5" y2="30"/><line opacity="0.2" x1="392.8741681314226" x2="392.8741681314226" y1="0.5" y2="30"/><line opacity="0.2" x1="298.7778155893849" x2="298.7778155893849" y1="0.5" y2="30"/><line opacity="0.2" x1="221.17081403773958" x2="221.17081403773958" y1="0.5" y2="30"/><line opacity="0.2" x1="314.03507023828723" x2="314.03507023828723" y1="0.5" y2="30"/><line opacity="0.2" x1="291.9833923605464" x2="291.9833923605464" y1="0.5" y2="30"/><line opacity="0.2" x1="400.027006722297" x2="400.027006722297" y1="0.5" y2="30"/><line opacity="0.2" x1="313.42611439645316" x2="313.42611439645316" y1="0.5" y2="30"/><line opacity="0.2" x1="320.89292697924475" x2="320.89292697924475" y1="0.5" y2="30"/><line opacity="0.2" x1="279.1846418270278" x2="279.1846418270278" y1="0.5" y2="30"/><line opacity="0.2" x1="367.6133686813798" x2="367.6133686813798" y1="0.5" y2="30"/><line opacity="0.2" x1="205.93728150689782" x2="205.93728150689782" y1="0.5" y2="30"/><line opacity="0.2" x1="330.6198203810642" x2="330.6198203810642" y1="0.5" y2="30"/><line opacity="0.2" x1="111.24240393317174" x2="111.24240393317174" y1="0.5" y2="30"/><line opacity="0.2" x1="378.51132548039897" x2="378.51132548039897" y1="0.5" y2="30"/><line opacity="0.2" x1="306.43565663768084" x2="306.43565663768084" y1="0.5" y2="30"/><line opacity="0.2" x1="345.5012004381785" x2="345.5012004381785" y1="0.5" y2="30"/><line opacity="0.2" x1="256.0030495106253" x2="256.0030495106253" y1="0.5" y2="30"/><line opacity="0.2" x1="350.1047708111266" x2="350.1047708111266" y1="0.5" y2="30"/><line opacity="0.2" x1="187.3876331265501" x2="187.3876331265501" y1="0.5" y2="30"/><line opacity="0.2" x1="242.4758257191447" x2="242.4758257191447" y1="0.5" y2="30"/><line opacity="0.2" x1="299.0480147653961" x2="299.0480147653961" y1="0.5" y2="30"/><line opacity="0.2" x1="297.14500994049075" x2="297.14500994049075" y1="0.5" y2="30"/><line opacity="0.2" x1="432.53078662579895" x2="432.53078662579895" y1="0.5" y2="30"/><line opacity="0.2" x1="329.2911049061498" x2="329.2911049061498" y1="0.5" y2="30"/><line opacity="0.2" x1="261.64856515651036" x2="261.64856515651036" y1="0.5" y2="30"/><line opacity="0.2" x1="430.97906145941636" x2="430.97906145941636" y1="0.5" y2="30"/><line opacity="0.2" x1="336.4761092323867" x2="336.4761092323867" y1="0.5" y2="30"/><line opacity="0.2" x1="334.3311515304966" x2="334.3311515304966" y1="0.5" y2="30"/><line opacity="0.2" x1="488.4291379495184" x2="488.4291379495184" y1="0.5" y2="30"/><line opacity="0.2" x1="491.903638936997" x2="491.903638936997" y1="0.5" y2="30"/><line opacity="0.2" x1="380.3899768089531" x2="380.3899768089531" y1="0.5" y2="30"/><line opacity="0.2" x1="479.1373457205968" x2="479.1373457205968" y1="0.5" y2="30"/><line opacity="0.2" x1="188.7534637301528" x2="188.7534637301528" y1="0.5" y2="30"/><line opacity="0.2" x1="247.29204835627604" x2="247.29204835627604" y1="0.5" y2="30"/><line opacity="0.2" x1="439.4051173017256" x2="439.4051173017256" y1="0.5" y2="30"/><line opacity="0.2" x1="271.9176613729631" x2="271.9176613729631" y1="0.5" y2="30"/><line opacity="0.2" x1="241.47350701367557" x2="241.47350701367557" y1="0.5" y2="30"/><line opacity="0.2" x1="305.83778414727584" x2="305.83778414727584" y1="0.5" y2="30"/><line opacity="0.2" x1="341.59627364421016" x2="341.59627364421016" y1="0.5" y2="30"/><line opacity="0.2" x1="382.4459550269998" x2="382.4459550269998" y1="0.5" y2="30"/><line opacity="0.2" x1="100.66461400507018" x2="100.66461400507018" y1="0.5" y2="30"/><line opacity="0.2" x1="381.19068964255507" x2="381.19068964255507" y1="0.5" y2="30"/><line opacity="0.2" x1="344.59533485462" x2="344.59533485462" y1="0.5" y2="30"/><line opacity="0.2" x1="181.85079171757775" x2="181.85079171757775" y1="0.5" y2="30"/><line opacity="0.2" x1="369.22810065370646" x2="369.22810065370646" y1="0.5" y2="30"/><line opacity="0.2" x1="292.4772241468166" x2="292.4772241468166" y1="0.5" y2="30"/><line opacity="0.2" x1="317.6357626001415" x2="317.6357626001415" y1="0.5" y2="30"/><line opacity="0.2" x1="533.6526763455092" x2="533.6526763455092" y1="0.5" y2="30"/><line opacity="0.2" x1="287.20895653300903" x2="287.20895653300903" y1="0.5" y2="30"/><line opacity="0.2" x1="352.25946651759966" x2="352.25946651759966" y1="0.5" y2="30"/><line opacity="0.2" x1="261.45316128110835" x2="261.45316128110835" y1="0.5" y2="30"/><line opacity="0.2" x1="360.40987292557594" x2="360.40987292557594" y1="0.5" y2="30"/><line opacity="0.2" x1="415.07501040082747" x2="415.07501040082747" y1="0.5" y2="30"/><line opacity="0.2" x1="379.1885002764791" x2="379.1885002764791" y1="0.5" y2="30"/><line opacity="0.2" x1="289.51913801215784" x2="289.51913801215784" y1="0.5" y2="30"/><line opacity="0.2" x1="331.80845755719963" x2="331.80845755719963" y1="0.5" y2="30"/><line opacity="0.2" x1="198.10610869747515" x2="198.10610869747515" y1="0.5" y2="30"/><line opacity="0.2" x1="376.943699421615" x2="376.943699421615" y1="0.5" y2="30"/><line opacity="0.2" x1="427.2283196981062" x2="427.2283196981062" y1="0.5" y2="30"/><line opacity="0.2" x1="203.61661625728058" x2="203.61661625728058" y1="0.5" y2="30"/><line opacity="0.2" x1="294.5648119600744" x2="294.5648119600744" y1="0.5" y2="30"/><line opacity="0.2" x1="358.126604421882" x2="358.126604421882" y1="0.5" y2="30"/><line opacity="0.2" x1="260.522683110794" x2="260.522683110794" y1="0.5" y2="30"/><line opacity="0.2" x1="344.14354820433533" x2="344.14354820433533" y1="0.5" y2="30"/><line opacity="0.2" x1="319.458810875617" x2="319.458810875617" y1="0.5" y2="30"/><line opacity="0.2" x1="298.25546574857253" x2="298.25546574857253" y1="0.5" y2="30"/><line opacity="0.2" x1="368.546967851492" x2="368.546967851492" y1="0.5" y2="30"/><line opacity="0.2" x1="333.8358232141631" x2="333.8358232141631" y1="0.5" y2="30"/><line opacity="0.2" x1="293.77061918280936" x2="293.77061918280936" y1="0.5" y2="30"/><line opacity="0.2" x1="372.0620137695244" x2="372.0620137695244" y1="0.5" y2="30"/><line opacity="0.2" x1="404.0963138387551" x2="404.0963138387551" y1="0.5" y2="30"/><line opacity="0.2" x1="95.6433515586688" x2="95.6433515586688" y1="0.5" y2="30"/><line opacity="0.2" x1="328.6716799116649" x2="328.6716799116649" y1="0.5" y2="30"/><line opacity="0.2" x1="422.3673784270178" x2="422.3673784270178" y1="0.5" y2="30"/><line opacity="0.2" x1="360.7498284953281" x2="360.7498284953281" y1="0.5" y2="30"/><line opacity="0.2" x1="212.59224481108322" x2="212.59224481108322" y1="0.5" y2="30"/><line opacity="0.2" x1="274.0533781680873" x2="274.0533781680873" y1="0.5" y2="30"/><line opacity="0.2" x1="419.464286884202" x2="419.464286884202" y1="0.5" y2="30"/><line opacity="0.2" x1="299.7654803821272" x2="299.7654803821272" y1="0.5" y2="30"/><line opacity="0.2" x1="240.44610017836993" x2="240.44610017836993" y1="0.5" y2="30"/><line opacity="0.2" x1="381.4299949336214" x2="381.4299949336214" y1="0.5" y2="30"/><line opacity="0.2" x1="165.5608591575952" x2="165.5608591575952" y1="0.5" y2="30"/><line opacity="0.2" x1="215.93280885087" x2="215.93280885087" y1="0.5" y2="30"/><line opacity="0.2" x1="341.1323047490244" x2="341.1323047490244" y1="0.5" y2="30"/><line opacity="0.2" x1="256.93867286111094" x2="256.93867286111094" y1="0.5" y2="30"/><line opacity="0.2" x1="406.7865352302519" x2="406.7865352302519" y1="0.5" y2="30"/><line opacity="0.2" x1="444.5390577443459" x2="444.5390577443459" y1="0.5" y2="30"/><line opacity="0.2" x1="248.29667356881112" x2="248.29667356881112" y1="0.5" y2="30"/><line opacity="0.2" x1="288.1365799728466" x2="288.1365799728466" y1="0.5" y2="30"/><line opacity="0.2" x1="326.51213098714413" x2="326.51213098714413" y1="0.5" y2="30"/><line opacity="0.2" x1="408.56316723757476" x2="408.56316723757476" y1="0.5" y2="30"/><line opacity="0.2" x1="199.93605449970607" x2="199.93605449970607" y1="0.5" y2="30"/><line opacity="0.2" x1="262.80738935676914" x2="262.80738935676914" y1="0.5" y2="30"/><line opacity="0.2" x1="238.21399792559862" x2="238.21399792559862" y1="0.5" y2="30"/><line opacity="0.2" x1="366.34445020612867" x2="366.34445020612867" y1="0.5" y2="30"/><line opacity="0.2" x1="357.02737419337353" x2="357.02737419337353" y1="0.5" y2="30"/><line opacity="0.2" x1="212.6289118647737" x2="212.6289118647737" y1="0.5" y2="30"/><line opacity="0.2" x1="303.4914870922233" x2="303.4914870922233" y1="0.5" y2="30"/><line opacity="0.2" x1="351.7531119706426" x2="351.7531119706426" y1="0.5" y2="30"/><line opacity="0.2" x1="279.3983677850915" x2="279.3983677850915" y1="0.5" y2="30"/><line opacity="0.2" x1="182.1334906946844" x2="182.1334906946844" y1="0.5" y2="30"/><line opacity="0.2" x1="46.777652281489964" x2="46.777652281489964" y1="0.5" y2="30"/><line opacity="0.2" x1="260.90885748642205" x2="260.90885748642205" y1="0.5" y2="30"/><line opacity="0.2" x1="321.8189730958896" x2="321.8189730958896" y1="0.5" y2="30"/><line opacity="0.2" x1="420.70121188132464" x2="420.70121188132464" y1="0.5" y2="30"/><line opacity="0.2" x1="173.219252114705" x2="173.219252114705" y1="0.5" y2="30"/><line opacity="0.2" x1="252.55853311536833" x2="252.55853311536833" y1="0.5" y2="30"/><line opacity="0.2" x1="425.4566068291697" x2="425.4566068291697" y1="0.5" y2="30"/><line opacity="0.2" x1="249.81635393138535" x2="249.81635393138535" y1="0.5" y2="30"/><line opacity="0.2" x1="292.5350231136921" x2="292.5350231136921" y1="0.5" y2="30"/><line opacity="0.2" x1="181.19432098982756" x2="181.19432098982756" y1="0.5" y2="30"/><line opacity="0.2" x1="230.3617513145031" x2="230.3617513145031" y1="0.5" y2="30"/><line opacity="0.2" x1="193.52659101265073" x2="193.52659101265073" y1="0.5" y2="30"/><line opacity="0.2" x1="347.96775649012994" x2="347.96775649012994" y1="0.5" y2="30"/><line opacity="0.2" x1="314.0981082761119" x2="314.0981082761119" y1="0.5" y2="30"/><line opacity="0.2" x1="254.6211737435948" x2="254.6211737435948" y1="0.5" y2="30"/><line opacity="0.2" x1="411.20057247515376" x2="411.20057247515376" y1="0.5" y2="30"/><line opacity="0.2" x1="427.7545948442494" x2="427.7545948442494" y1="0.5" y2="30"/><line opacity="0.2" x1="195.5339270890321" x2="195.5339270890321" y1="0.5" y2="30"/><line opacity="0.2" x1="430.75040446708107" x2="430.75040446708107" y1="0.5" y2="30"/><line opacity="0.2" x1="418.44061766570485" x2="418.44061766570485" y1="0.5" y2="30"/><line opacity="0.2" x1="225.64332210902796" x2="225.64332210902796" y1="0.5" y2="30"/><line opacity="0.2" x1="381.3829636592007" x2="381.3829636592007" y1="0.5" y2="30"/><line opacity="0.2" x1="248.97867804543745" x2="248.97867804543745" y1="0.5" y2="30"/><line opacity="0.2" x1="368.0504092001161" x2="368.0504092001161" y1="0.5" y2="30"/><line opacity="0.2" x1="293.35843905828244" x2="293.35843905828244" y1="0.5" y2="30"/><line opacity="0.2" x1="393.97169738431137" x2="393.97169738431137" y1="0.5" y2="30"/><line opacity="0.2" x1="411.27064180484433" x2="411.27064180484433" y1="0.5" y2="30"/><line opacity="0.2" x1="453.7407695522782" x2="453.7407695522782" y1="0.5" y2="30"/><line opacity="0.2" x1="271.98820332095016" x2="271.98820332095016" y1="0.5" y2="30"/><line opacity="0.2" x1="168.5683322700211" x2="168.5683322700211" y1="0.5" y2="30"/><line opacity="0.2" x1="330.6458675879382" x2="330.6458675879382" y1="0.5" y2="30"/><line opacity="0.2" x1="233.03423437332705" x2="233.03423437332705" y1="0.5" y2="30"/><line opacity="0.2" x1="311.3778535515302" x2="311.3778535515302" y1="0.5" y2="30"/><line opacity="0.2" x1="239.73278536470045" x2="239.73278536470045" y1="0.5" y2="30"/><line opacity="0.2" x1="325.00781473490935" x2="325.00781473490935" y1="0.5" y2="30"/><line opacity="0.2" x1="205.06449517177433" x2="205.06449517177433" y1="0.5" y2="30"/><line opacity="0.2" x1="273.399031187099" x2="273.399031187099" y1="0.5" y2="30"/><line opacity="0.2" x1="239.28745627758545" x2="239.28745627758545" y1="0.5" y2="30"/><line opacity="0.2" x1="375.42723537733593" x2="375.42723537733593" y1="0.5" y2="30"/><line opacity="0.2" x1="334.04975595288175" x2="334.04975595288175" y1="0.5" y2="30"/><line opacity="0.2" x1="254.50880133898383" x2="254.50880133898383" y1="0.5" y2="30"/><line opacity="0.2" x1="312.4917909037629" x2="312.4917909037629" y1="0.5" y2="30"/><line opacity="0.2" x1="450.15075353903006" x2="450.15075353903006" y1="0.5" y2="30"/><line opacity="0.2" x1="325.9811906187166" x2="325.9811906187166" y1="0.5" y2="30"/><line opacity="0.2" x1="346.5578458831009" x2="346.5578458831009" y1="0.5" y2="30"/><line opacity="0.2" x1="165.39657853279613" x2="165.39657853279613" y1="0.5" y2="30"/><line opacity="0.2" x1="243.71927199925096" x2="243.71927199925096" y1="0.5" y2="30"/><line opacity="0.2" x1="183.63487252823523" x2="183.63487252823523" y1="0.5" y2="30"/><line opacity="0.2" x1="320.55846922860127" x2="320.55846922860127" y1="0.5" y2="30"/><line opacity="0.2" x1="192.45826260179626" x2="192.45826260179626" y1="0.5" y2="30"/><line opacity="0.2" x1="200.7795502020151" x2="200.7795502020151" y1="0.5" y2="30"/><line opacity="0.2" x1="294.53038849619026" x2="294.53038849619026" y1="0.5" y2="30"/><line opacity="0.2" x1="191.17558523090509" x2="191.17558523090509" y1="0.5" y2="30"/><line opacity="0.2" x1="181.63750998192984" x2="181.63750998192984" y1="0.5" y2="30"/><line opacity="0.2" x1="381.4795556595206" x2="381.4795556595206" y1="0.5" y2="30"/><line opacity="0.2" x1="281.1751125708229" x2="281.1751125708229" y1="0.5" y2="30"/><line opacity="0.2" x1="447.9793740155464" x2="447.9793740155464" y1="0.5" y2="30"/><line opacity="0.2" x1="307.294497932237" x2="307.294497932237" y1="0.5" y2="30"/><line opacity="0.2" x1="326.97522805055024" x2="326.97522805055024" y1="0.5" y2="30"/><line opacity="0.2" x1="213.10764406966615" x2="213.10764406966615" y1="0.5" y2="30"/><line opacity="0.2" x1="381.00524137642157" x2="381.00524137642157" y1="0.5" y2="30"/><line opacity="0.2" x1="396.6728451726907" x2="396.6728451726907" y1="0.5" y2="30"/><line opacity="0.2" x1="351.44675704820656" x2="351.44675704820656" y1="0.5" y2="30"/><line opacity="0.2" x1="234.88563663775457" x2="234.88563663775457" y1="0.5" y2="30"/><line opacity="0.2" x1="302.157511468203" x2="302.157511468203" y1="0.5" y2="30"/><line opacity="0.2" x1="283.9962833144509" x2="283.9962833144509" y1="0.5" y2="30"/><line opacity="0.2" x1="316.84194061709246" x2="316.84194061709246" y1="0.5" y2="30"/><line opacity="0.2" x1="347.328963669533" x2="347.328963669533" y1="0.5" y2="30"/><line opacity="0.2" x1="303.43755131016474" x2="303.43755131016474" y1="0.5" y2="30"/><line opacity="0.2" x1="315.0639034817933" x2="315.0639034817933" y1="0.5" y2="30"/><line opacity="0.2" x1="367.6637843012291" x2="367.6637843012291" y1="0.5" y2="30"/><line opacity="0.2" x1="400.9139429600696" x2="400.9139429600696" y1="0.5" y2="30"/><line opacity="0.2" x1="412.8894834487144" x2="412.8894834487144" y1="0.5" y2="30"/><line opacity="0.2" x1="369.2523582353162" x2="369.2523582353162" y1="0.5" y2="30"/><line opacity="0.2" x1="319.0496757531676" x2="319.0496757531676" y1="0.5" y2="30"/><line opacity="0.2" x1="376.82029995765384" x2="376.82029995765384" y1="0.5" y2="30"/><line opacity="0.2" x1="267.65379024201826" x2="267.65379024201826" y1="0.5" y2="30"/><line opacity="0.2" x1="285.21219912002283" x2="285.21219912002283" y1="0.5" y2="30"/><line opacity="0.2" x1="85.49181456596233" x2="85.49181456596233" y1="0.5" y2="30"/><line opacity="0.2" x1="516.1186278609407" x2="516.1186278609407" y1="0.5" y2="30"/><line opacity="0.2" x1="468.85352966223036" x2="468.85352966223036" y1="0.5" y2="30"/><line opacity="0.2" x1="304.5838683490426" x2="304.5838683490426" y1="0.5" y2="30"/><line opacity="0.2" x1="295.17666264441584" x2="295.17666264441584" y1="0.5" y2="30"/><line opacity="0.2" x1="171.12660842994327" x2="171.12660842994327" y1="0.5" y2="30"/><line opacity="0.2" x1="378.62848664553275" x2="378.62848664553275" y1="0.5" y2="30"/><line opacity="0.2" x1="354.43464103754206" x2="354.43464103754206" y1="0.5" y2="30"/><line opacity="0.2" x1="358.95590372466154" x2="358.95590372466154" y1="0.5" y2="30"/><line opacity="0.2" x1="378.90903117021503" x2="378.90903117021503" y1="0.5" y2="30"/><line opacity="0.2" x1="282.7969961317374" x2="282.7969961317374" y1="0.5" y2="30"/><line opacity="0.2" x1="182.16719443678465" x2="182.16719443678465" y1="0.5" y2="30"/><line opacity="0.2" x1="184.7266979633309" x2="184.7266979633309" y1="0.5" y2="30"/><line opacity="0.2" x1="440.4847823371691" x2="440.4847823371691" y1="0.5" y2="30"/><line opacity="0.2" x1="405.3197849036908" x2="405.3197849036908" y1="0.5" y2="30"/><line opacity="0.2" x1="530.5534951827677" x2="530.5534951827677" y1="0.5" y2="30"/><line opacity="0.2" x1="337.6694525572677" x2="337.6694525572677" y1="0.5" y2="30"/><line opacity="0.2" x1="181.49607952631493" x2="181.49607952631493" y1="0.5" y2="30"/><line opacity="0.2" x1="315.3840233749855" x2="315.3840233749855" y1="0.5" y2="30"/><line opacity="0.2" x1="310.799808444599" x2="310.799808444599" y1="0.5" y2="30"/><line opacity="0.2" x1="178.00775212679568" x2="178.00775212679568" y1="0.5" y2="30"/><line opacity="0.2" x1="356.842423734059" x2="356.842423734059" y1="0.5" y2="30"/><line opacity="0.2" x1="315.8901368668078" x2="315.8901368668078" y1="0.5" y2="30"/><line opacity="0.2" x1="265.0899547012032" x2="265.0899547012032" y1="0.5" y2="30"/><line opacity="0.2" x1="342.27580969357376" x2="342.27580969357376" y1="0.5" y2="30"/><line opacity="0.2" x1="435.9816998874219" x2="435.9816998874219" y1="0.5" y2="30"/><line opacity="0.2" x1="414.13566549111994" x2="414.13566549111994" y1="0.5" y2="30"/><line opacity="0.2" x1="195.53519790605463" x2="195.53519790605463" y1="0.5" y2="30"/><line opacity="0.2" x1="332.26275523701264" x2="332.26275523701264" y1="0.5" y2="30"/><line opacity="0.2" x1="416.1597433105135" x2="416.1597433105135" y1="0.5" y2="30"/><line opacity="0.2" x1="79.22628652526066" x2="79.22628652526066" y1="0.5" y2="30"/><line opacity="0.2" x1="252.45113501412146" x2="252.45113501412146" y1="0.5" y2="30"/><line opacity="0.2" x1="336.63741043373045" x2="336.63741043373045" y1="0.5" y2="30"/><line opacity="0.2" x1="389.5293349345634" x2="389.5293349345634" y1="0.5" y2="30"/><line opacity="0.2" x1="297.506288166543" x2="297.506288166543" y1="0.5" y2="30"/><line opacity="0.2" x1="334.70204253084734" x2="334.70204253084734" y1="0.5" y2="30"/><line opacity="0.2" x1="317.3461222120247" x2="317.3461222120247" y1="0.5" y2="30"/><line opacity="0.2" x1="371.7754909376846" x2="371.7754909376846" y1="0.5" y2="30"/><line opacity="0.2" x1="307.3882978667318" x2="307.3882978667318" y1="0.5" y2="30"/><line opacity="0.2" x1="189.89743678891446" x2="189.89743678891446" y1="0.5" y2="30"/><line opacity="0.2" x1="391.3915822986095" x2="391.3915822986095" y1="0.5" y2="30"/><line opacity="0.2" x1="405.9584590707773" x2="405.9584590707773" y1="0.5" y2="30"/><line opacity="0.2" x1="331.6844899885491" x2="331.6844899885491" y1="0.5" y2="30"/><line opacity="0.2" x1="326.900311822375" x2="326.900311822375" y1="0.5" y2="30"/><line opacity="0.2" x1="152.71086919008565" x2="152.71086919008565" y1="0.5" y2="30"/><line opacity="0.2" x1="434.19846934162234" x2="434.19846934162234" y1="0.5" y2="30"/><line opacity="0.2" x1="384.52704449218703" x2="384.52704449218703" y1="0.5" y2="30"/><line opacity="0.2" x1="443.2780269958968" x2="443.2780269958968" y1="0.5" y2="30"/><line opacity="0.2" x1="324.4030219969061" x2="324.4030219969061" y1="0.5" y2="30"/><line opacity="0.2" x1="346.55673101256366" x2="346.55673101256366" y1="0.5" y2="30"/><line opacity="0.2" x1="336.0984220472" x2="336.0984220472" y1="0.5" y2="30"/><line opacity="0.2" x1="452.4194223047234" x2="452.4194223047234" y1="0.5" y2="30"/><line opacity="0.2" x1="411.8764007633956" x2="411.8764007633956" y1="0.5" y2="30"/><line opacity="0.2" x1="348.65782759573506" x2="348.65782759573506" y1="0.5" y2="30"/><line opacity="0.2" x1="232.64238770125982" x2="232.64238770125982" y1="0.5" y2="30"/><line opacity="0.2" x1="325.1924571265773" x2="325.1924571265773" y1="0.5" y2="30"/><line opacity="0.2" x1="584.7302679671205" x2="584.7302679671205" y1="0.5" y2="30"/><line opacity="0.2" x1="219.1793286153286" x2="219.1793286153286" y1="0.5" y2="30"/><line opacity="0.2" x1="295.0570915217161" x2="295.0570915217161" y1="0.5" y2="30"/><line opacity="0.2" x1="263.6735588207349" x2="263.6735588207349" y1="0.5" y2="30"/><line opacity="0.2" x1="363.29039365279175" x2="363.29039365279175" y1="0.5" y2="30"/><line opacity="0.2" x1="226.45417963251026" x2="226.45417963251026" y1="0.5" y2="30"/><line opacity="0.2" x1="315.63236947719236" x2="315.63236947719236" y1="0.5" y2="30"/><line opacity="0.2" x1="298.951980844702" x2="298.951980844702" y1="0.5" y2="30"/><line opacity="0.2" x1="423.8246520724472" x2="423.8246520724472" y1="0.5" y2="30"/><line opacity="0.2" x1="409.35707437630504" x2="409.35707437630504" y1="0.5" y2="30"/><line opacity="0.2" x1="240.4656332239483" x2="240.4656332239483" y1="0.5" y2="30"/><line opacity="0.2" x1="133.48020804517537" x2="133.48020804517537" y1="0.5" y2="30"/><line opacity="0.2" x1="398.7716354586262" x2="398.7716354586262" y1="0.5" y2="30"/><line opacity="0.2" x1="274.4338177483273" x2="274.4338177483273" y1="0.5" y2="30"/><line opacity="0.2" x1="329.1614937426815" x2="329.1614937426815" y1="0.5" y2="30"/><line opacity="0.2" x1="440.827515105255" x2="440.827515105255" y1="0.5" y2="30"/><line opacity="0.2" x1="383.7636837837669" x2="383.7636837837669" y1="0.5" y2="30"/><line opacity="0.2" x1="366.3826314748881" x2="366.3826314748881" y1="0.5" y2="30"/><line opacity="0.2" x1="293.09596110430203" x2="293.09596110430203" y1="0.5" y2="30"/><line opacity="0.2" x1="251.32973184801088" x2="251.32973184801088" y1="0.5" y2="30"/><line opacity="0.2" x1="222.75394166942345" x2="222.75394166942345" y1="0.5" y2="30"/><line opacity="0.2" x1="293.6875626569682" x2="293.6875626569682" y1="0.5" y2="30"/><line opacity="0.2" x1="262.21704377978136" x2="262.21704377978136" y1="0.5" y2="30"/><line opacity="0.2" x1="406.83160186099695" x2="406.83160186099695" y1="0.5" y2="30"/><line opacity="0.2" x1="350.6231893528637" x2="350.6231893528637" y1="0.5" y2="30"/><line opacity="0.2" x1="406.658603037825" x2="406.658603037825" y1="0.5" y2="30"/><line opacity="0.2" x1="469.53496669819083" x2="469.53496669819083" y1="0.5" y2="30"/><line opacity="0.2" x1="388.92140211068676" x2="388.92140211068676" y1="0.5" y2="30"/><line opacity="0.2" x1="339.7799222047538" x2="339.7799222047538" y1="0.5" y2="30"/><line opacity="0.2" x1="289.6334243685673" x2="289.6334243685673" y1="0.5" y2="30"/><line opacity="0.2" x1="285.088434946225" x2="285.088434946225" y1="0.5" y2="30"/><line opacity="0.2" x1="277.99073953977995" x2="277.99073953977995" y1="0.5" y2="30"/><line opacity="0.2" x1="240.73007611822095" x2="240.73007611822095" y1="0.5" y2="30"/><line opacity="0.2" x1="337.25801806163804" x2="337.25801806163804" y1="0.5" y2="30"/><line opacity="0.2" x1="394.5552913266212" x2="394.5552913266212" y1="0.5" y2="30"/><line opacity="0.2" x1="245.6666298770354" x2="245.6666298770354" y1="0.5" y2="30"/><line opacity="0.2" x1="310.52208684179504" x2="310.52208684179504" y1="0.5" y2="30"/><line opacity="0.2" x1="366.1917091703491" x2="366.1917091703491" y1="0.5" y2="30"/><line opacity="0.2" x1="306.16905645061934" x2="306.16905645061934" y1="0.5" y2="30"/><line opacity="0.2" x1="373.0166846188005" x2="373.0166846188005" y1="0.5" y2="30"/><line opacity="0.2" x1="382.1038813641765" x2="382.1038813641765" y1="0.5" y2="30"/><line opacity="0.2" x1="308.7971937617425" x2="308.7971937617425" y1="0.5" y2="30"/><line opacity="0.2" x1="479.1195197064945" x2="479.1195197064945" y1="0.5" y2="30"/><line opacity="0.2" x1="312.55851461684824" x2="312.55851461684824" y1="0.5" y2="30"/><line opacity="0.2" x1="279.76550773954943" x2="279.76550773954943" y1="0.5" y2="30"/><line opacity="0.2" x1="412.03816317919166" x2="412.03816317919166" y1="0.5" y2="30"/><line opacity="0.2" x1="442.91984714058543" x2="442.91984714058543" y1="0.5" y2="30"/><line opacity="0.2" x1="281.72962799550356" x2="281.72962799550356" y1="0.5" y2="30"/><line opacity="0.2" x1="367.24352579622933" x2="367.24352579622933" y1="0.5" y2="30"/><line opacity="0.2" x1="620" x2="620" y1="0.5" y2="30"/><line opacity="0.2" x1="298.766848426241" x2="298.766848426241" y1="0.5" y2="30"/><line opacity="0.2" x1="224.3054492372914" x2="224.3054492372914" y1="0.5" y2="30"/><line opacity="0.2" x1="205.31928786984534" x2="205.31928786984534" y1="0.5" y2="30"/><line opacity="0.2" x1="361.1988393606056" x2="361.1988393606056" y1="0.5" y2="30"/><line opacity="0.2" x1="334.193187633988" x2="334.193187633988" y1="0.5" y2="30"/><line opacity="0.2" x1="257.52697317607664" x2="257.52697317607664" y1="0.5" y2="30"/><line opacity="0.2" x1="350.34508834969904" x2="350.34508834969904" y1="0.5" y2="30"/><line opacity="0.2" x1="357.3036830899594" x2="357.3036830899594" y1="0.5" y2="30"/><line opacity="0.2" x1="399.9121884251061" x2="399.9121884251061" y1="0.5" y2="30"/><line opacity="0.2" x1="266.4215791564866" x2="266.4215791564866" y1="0.5" y2="30"/><line opacity="0.2" x1="281.3025157392506" x2="281.3025157392506" y1="0.5" y2="30"/><line opacity="0.2" x1="369.36584733828" x2="369.36584733828" y1="0.5" y2="30"/><line opacity="0.2" x1="299.1794179668042" x2="299.1794179668042" y1="0.5" y2="30"/><line opacity="0.2" x1="393.7232263291697" x2="393.7232263291697" y1="0.5" y2="30"/><line opacity="0.2" x1="131.34443794538316" x2="131.34443794538316" y1="0.5" y2="30"/><line opacity="0.2" x1="298.17012325218485" x2="298.17012325218485" y1="0.5" y2="30"/><line opacity="0.2" x1="319.5703495329225" x2="319.5703495329225" y1="0.5" y2="30"/><line opacity="0.2" x1="300.78239418494456" x2="300.78239418494456" y1="0.5" y2="30"/><line opacity="0.2" x1="274.07919691839083" x2="274.07919691839083" y1="0.5" y2="30"/><line opacity="0.2" x1="347.667452100285" x2="347.667452100285" y1="0.5" y2="30"/><line opacity="0.2" x1="277.99188413394296" x2="277.99188413394296" y1="0.5" y2="30"/><line opacity="0.2" x1="334.4685681933954" x2="334.4685681933954" y1="0.5" y2="30"/><line opacity="0.2" x1="440.56589897003164" x2="440.56589897003164" y1="0.5" y2="30"/><line opacity="0.2" x1="230.4955912069182" x2="230.4955912069182" y1="0.5" y2="30"/><line opacity="0.2" x1="284.68388044520464" x2="284.68388044520464" y1="0.5" y2="30"/><line opacity="0.2" x1="384.1217188790706" x2="384.1217188790706" y1="0.5" y2="30"/><line opacity="0.2" x1="220.20264395066232" x2="220.20264395066232" y1="0.5" y2="30"/><line opacity="0.2" x1="286.420556179651" x2="286.420556179651" y1="0.5" y2="30"/><line opacity="0.2" x1="288.0153684998987" x2="288.0153684998987" y1="0.5" y2="30"/><line opacity="0.2" x1="285.6548470856612" x2="285.6548470856612" y1="0.5" y2="30"/><line opacity="0.2" x1="148.69846938435018" x2="148.69846938435018" y1="0.5" y2="30"/><line opacity="0.2" x1="275.9728432323926" x2="275.9728432323926" y1="0.5" y2="30"/><line opacity="0.2" x1="228.63266190256365" x2="228.63266190256365" y1="0.5" y2="30"/><line opacity="0.2" x1="304.59940638709895" x2="304.59940638709895" y1="0.5" y2="30"/><line opacity="0.2" x1="296.9015030554326" x2="296.9015030554326" y1="0.5" y2="30"/><line opacity="0.2" x1="366.80595267018464" x2="366.80595267018464" y1="0.5" y2="30"/><line opacity="0.2" x1="234.2530173261871" x2="234.2530173261871" y1="0.5" y2="30"/><line opacity="0.2" x1="339.1303336377875" x2="339.1303336377875" y1="0.5" y2="30"/><line opacity="0.2" x1="440.1026215945622" x2="440.1026215945622" y1="0.5" y2="30"/><line opacity="0.2" x1="226.11379890060698" x2="226.11379890060698" y1="0.5" y2="30"/><line opacity="0.2" x1="276.58664277054163" x2="276.58664277054163" y1="0.5" y2="30"/><line opacity="0.2" x1="281.53991786762003" x2="281.53991786762003" y1="0.5" y2="30"/><line opacity="0.2" x1="373.5599540437272" x2="373.5599540437272" y1="0.5" y2="30"/><line opacity="0.2" x1="317.58776071957726" x2="317.58776071957726" y1="0.5" y2="30"/><line opacity="0.2" x1="264.96286656684924" x2="264.96286656684924" y1="0.5" y2="30"/><line opacity="0.2" x1="381.5775619782936" x2="381.5775619782936" y1="0.5" y2="30"/><line opacity="0.2" x1="372.42653408883064" x2="372.42653408883064" y1="0.5" y2="30"/><line opacity="0.2" x1="343.88372728130025" x2="343.88372728130025" y1="0.5" y2="30"/><line opacity="0.2" x1="286.50983243187255" x2="286.50983243187255" y1="0.5" y2="30"/><line opacity="0.2" x1="363.8103210336911" x2="363.8103210336911" y1="0.5" y2="30"/><line opacity="0.2" x1="292.2016347373157" x2="292.2016347373157" y1="0.5" y2="30"/><line opacity="0.2" x1="427.64522554597363" x2="427.64522554597363" y1="0.5" y2="30"/><line opacity="0.2" x1="412.33879722008004" x2="412.33879722008004" y1="0.5" y2="30"/><line opacity="0.2" x1="251.26904628305343" x2="251.26904628305343" y1="0.5" y2="30"/><line opacity="0.2" x1="236.0378957098557" x2="236.0378957098557" y1="0.5" y2="30"/><line opacity="0.2" x1="146.2655093487204" x2="146.2655093487204" y1="0.5" y2="30"/><line opacity="0.2" x1="215.101792124711" x2="215.101792124711" y1="0.5" y2="30"/><line opacity="0.2" x1="152.40149579846087" x2="152.40149579846087" y1="0.5" y2="30"/><line opacity="0.2" x1="253.1265020737529" x2="253.1265020737529" y1="0.5" y2="30"/><line opacity="0.2" x1="162.21507022169135" x2="162.21507022169135" y1="0.5" y2="30"/><line opacity="0.2" x1="364.9872449496437" x2="364.9872449496437" y1="0.5" y2="30"/><line opacity="0.2" x1="404.75991059529963" x2="404.75991059529963" y1="0.5" y2="30"/><line opacity="0.2" x1="440.8499948954994" x2="440.8499948954994" y1="0.5" y2="30"/><line opacity="0.2" x1="274.40207062289494" x2="274.40207062289494" y1="0.5" y2="30"/><line opacity="0.2" x1="193.90832016819266" x2="193.90832016819266" y1="0.5" y2="30"/><line opacity="0.2" x1="183.6589293004463" x2="183.6589293004463" y1="0.5" y2="30"/><line opacity="0.2" x1="317.4093955911289" x2="317.4093955911289" y1="0.5" y2="30"/><line opacity="0.2" x1="354.0213307958395" x2="354.0213307958395" y1="0.5" y2="30"/><line opacity="0.2" x1="364.31459884319844" x2="364.31459884319844" y1="0.5" y2="30"/><line opacity="0.2" x1="281.6376760151555" x2="281.6376760151555" y1="0.5" y2="30"/><line opacity="0.2" x1="154.60662880017526" x2="154.60662880017526" y1="0.5" y2="30"/><line opacity="0.2" x1="191.0863611458154" x2="191.0863611458154" y1="0.5" y2="30"/><line opacity="0.2" x1="168.5123782821044" x2="168.5123782821044" y1="0.5" y2="30"/><line opacity="0.2" x1="243.20790284275046" x2="243.20790284275046" y1="0.5" y2="30"/><line opacity="0.2" x1="248.92600616447805" x2="248.92600616447805" y1="0.5" y2="30"/><line opacity="0.2" x1="422.6064699332816" x2="422.6064699332816" y1="0.5" y2="30"/><line opacity="0.2" x1="393.12027007790033" x2="393.12027007790033" y1="0.5" y2="30"/><line opacity="0.2" x1="221.36370913606027" x2="221.36370913606027" y1="0.5" y2="30"/><line opacity="0.2" x1="455.14951942062817" x2="455.14951942062817" y1="0.5" y2="30"/><line opacity="0.2" x1="287.64657011832145" x2="287.64657011832145" y1="0.5" y2="30"/><line opacity="0.2" x1="172.93940319409717" x2="172.93940319409717" y1="0.5" y2="30"/><line opacity="0.2" x1="134.09071105792862" x2="134.09071105792862" y1="0.5" y2="30"/><line opacity="0.2" x1="376.70466264927074" x2="376.70466264927074" y1="0.5" y2="30"/><line opacity="0.2" x1="367.51080332391246" x2="367.51080332391246" y1="0.5" y2="30"/><line opacity="0.2" x1="342.80863404496966" x2="342.80863404496966" y1="0.5" y2="30"/><line opacity="0.2" x1="206.71636461270776" x2="206.71636461270776" y1="0.5" y2="30"/><line opacity="0.2" x1="364.5096026088005" x2="364.5096026088005" y1="0.5" y2="30"/><line opacity="0.2" x1="444.2723506727881" x2="444.2723506727881" y1="0.5" y2="30"/><line opacity="0.2" x1="353.4761084239943" x2="353.4761084239943" y1="0.5" y2="30"/><line opacity="0.2" x1="377.7443040972957" x2="377.7443040972957" y1="0.5" y2="30"/><line opacity="0.2" x1="262.88331446166916" x2="262.88331446166916" y1="0.5" y2="30"/><line opacity="0.2" x1="182.9336166767375" x2="182.9336166767375" y1="0.5" y2="30"/><line opacity="0.2" x1="269.03628999929543" x2="269.03628999929543" y1="0.5" y2="30"/><line opacity="0.2" x1="157.9502922190659" x2="157.9502922190659" y1="0.5" y2="30"/><line opacity="0.2" x1="396.0038428685028" x2="396.0038428685028" y1="0.5" y2="30"/><line opacity="0.2" x1="141.14677653273174" x2="141.14677653273174" y1="0.5" y2="30"/><line opacity="0.2" x1="297.1394663575796" x2="297.1394663575796" y1="0.5" y2="30"/><line opacity="0.2" x1="344.21629646374083" x2="344.21629646374083" y1="0.5" y2="30"/><line opacity="0.2" x1="358.2514784823165" x2="358.2514784823165" y1="0.5" y2="30"/><line opacity="0.2" x1="356.8443298558809" x2="356.8443298558809" y1="0.5" y2="30"/><line opacity="0.2" x1="261.6029979056854" x2="261.6029979056854" y1="0.5" y2="30"/><line opacity="0.2" x1="329.54708482293233" x2="329.54708482293233" y1="0.5" y2="30"/><line opacity="0.2" x1="432.50794512042546" x2="432.50794512042546" y1="0.5" y2="30"/><line opacity="0.2" x1="354.08609934081767" x2="354.08609934081767" y1="0.5" y2="30"/><line opacity="0.2" x1="243.82578638297062" x2="243.82578638297062" y1="0.5" y2="30"/><line opacity="0.2" x1="415.2140051562708" x2="415.2140051562708" y1="0.5" y2="30"/><line opacity="0.2" x1="398.8776493821523" x2="398.8776493821523" y1="0.5" y2="30"/><line opacity="0.2" x1="192.30171002546112" x2="192.30171002546112" y1="0.5" y2="30"/><line opacity="0.2" x1="387.53010484413676" x2="387.53010484413676" y1="0.5" y2="30"/><line opacity="0.2" x1="337.7462545766689" x2="337.7462545766689" y1="0.5" y2="30"/><line opacity="0.2" x1="275.34902917578086" x2="275.34902917578086" y1="0.5" y2="30"/><line opacity="0.2" x1="324.43375977895744" x2="324.43375977895744" y1="0.5" y2="30"/><line opacity="0.2" x1="431.5542296306748" x2="431.5542296306748" y1="0.5" y2="30"/><line opacity="0.2" x1="274.39561408741946" x2="274.39561408741946" y1="0.5" y2="30"/><line opacity="0.2" x1="232.65234202573833" x2="232.65234202573833" y1="0.5" y2="30"/><line opacity="0.2" x1="193.71811038737886" x2="193.71811038737886" y1="0.5" y2="30"/><line opacity="0.2" x1="304.7798844663588" x2="304.7798844663588" y1="0.5" y2="30"/><line opacity="0.2" x1="320.1442810365215" x2="320.1442810365215" y1="0.5" y2="30"/><line opacity="0.2" x1="300.86836013504046" x2="300.86836013504046" y1="0.5" y2="30"/><line opacity="0.2" x1="248.62105292129033" x2="248.62105292129033" y1="0.5" y2="30"/><line opacity="0.2" x1="345.1748832492967" x2="345.1748832492967" y1="0.5" y2="30"/><line opacity="0.2" x1="217.7272179554163" x2="217.7272179554163" y1="0.5" y2="30"/><line opacity="0.2" x1="268.00260740061645" x2="268.00260740061645" y1="0.5" y2="30"/><line opacity="0.2" x1="348.5981067494775" x2="348.5981067494775" y1="0.5" y2="30"/><line opacity="0.2" x1="293.02697913881946" x2="293.02697913881946" y1="0.5" y2="30"/><line opacity="0.2" x1="523.628558294311" x2="523.628558294311" y1="0.5" y2="30"/><line opacity="0.2" x1="305.87966303628883" x2="305.87966303628883" y1="0.5" y2="30"/><line opacity="0.2" x1="381.4088242856215" x2="381.4088242856215" y1="0.5" y2="30"/><line opacity="0.2" x1="344.516913677338" x2="344.516913677338" y1="0.5" y2="30"/><line opacity="0.2" x1="102.63081674956896" x2="102.63081674956896" y1="0.5" y2="30"/><line opacity="0.2" x1="362.2336177716647" x2="362.2336177716647" y1="0.5" y2="30"/><line opacity="0.2" x1="415.49371252002203" x2="415.49371252002203" y1="0.5" y2="30"/><line opacity="0.2" x1="431.0304544148872" x2="431.0304544148872" y1="0.5" y2="30"/><line opacity="0.2" x1="269.45842815344173" x2="269.45842815344173" y1="0.5" y2="30"/><line opacity="0.2" x1="300.0699234003779" x2="300.0699234003779" y1="0.5" y2="30"/><line opacity="0.2" x1="255.69092100156266" x2="255.69092100156266" y1="0.5" y2="30"/><line opacity="0.2" x1="506.26662643396367" x2="506.26662643396367" y1="0.5" y2="30"/><line opacity="0.2" x1="390.94201445814764" x2="390.94201445814764" y1="0.5" y2="30"/><line opacity="0.2" x1="348.8411108241307" x2="348.8411108241307" y1="0.5" y2="30"/><line opacity="0.2" x1="316.4844835952971" x2="316.4844835952971" y1="0.5" y2="30"/><line opacity="0.2" x1="282.84378674900756" x2="282.84378674900756" y1="0.5" y2="30"/><line opacity="0.2" x1="340.7461209133262" x2="340.7461209133262" y1="0.5" y2="30"/><line opacity="0.2" x1="382.65096094434017" x2="382.65096094434017" y1="0.5" y2="30"/><line opacity="0.2" x1="473.4799403124714" x2="473.4799403124714" y1="0.5" y2="30"/><line opacity="0.2" x1="404.45125970545746" x2="404.45125970545746" y1="0.5" y2="30"/><line opacity="0.2" x1="373.8178938857919" x2="373.8178938857919" y1="0.5" y2="30"/><line opacity="0.2" x1="107.60300696126876" x2="107.60300696126876" y1="0.5" y2="30"/><line opacity="0.2" x1="258.2911159532515" x2="258.2911159532515" y1="0.5" y2="30"/><line opacity="0.2" x1="358.6780327674501" x2="358.6780327674501" y1="0.5" y2="30"/><line opacity="0.2" x1="344.932014767844" x2="344.932014767844" y1="0.5" y2="30"/><line opacity="0.2" x1="336.0855042476414" x2="336.0855042476414" y1="0.5" y2="30"/><line opacity="0.2" x1="454.51921206502146" x2="454.51921206502146" y1="0.5" y2="30"/><line opacity="0.2" x1="97.87299226622794" x2="97.87299226622794" y1="0.5" y2="30"/><line opacity="0.2" x1="384.6075130310396" x2="384.6075130310396" y1="0.5" y2="30"/><line opacity="0.2" x1="300.41440969894387" x2="300.41440969894387" y1="0.5" y2="30"/><line opacity="0.2" x1="493.7927649145152" x2="493.7927649145152" y1="0.5" y2="30"/><line opacity="0.2" x1="333.4056684018064" x2="333.4056684018064" y1="0.5" y2="30"/><line opacity="0.2" x1="272.07302482791664" x2="272.07302482791664" y1="0.5" y2="30"/><line opacity="0.2" x1="366.5055520223757" x2="366.5055520223757" y1="0.5" y2="30"/><line opacity="0.2" x1="252.1536845812379" x2="252.1536845812379" y1="0.5" y2="30"/><line opacity="0.2" x1="261.788161893004" x2="261.788161893004" y1="0.5" y2="30"/><line opacity="0.2" x1="457.15287125865405" x2="457.15287125865405" y1="0.5" y2="30"/><line opacity="0.2" x1="241.85207965845248" x2="241.85207965845248" y1="0.5" y2="30"/><line opacity="0.2" x1="346.09298691164605" x2="346.09298691164605" y1="0.5" y2="30"/><line opacity="0.2" x1="371.758251017214" x2="371.758251017214" y1="0.5" y2="30"/><line opacity="0.2" x1="614.2177214808095" x2="614.2177214808095" y1="0.5" y2="30"/><line opacity="0.2" x1="304.2863319934696" x2="304.2863319934696" y1="0.5" y2="30"/><line opacity="0.2" x1="309.91109728155305" x2="309.91109728155305" y1="0.5" y2="30"/><line opacity="0.2" x1="286.8685793296525" x2="286.8685793296525" y1="0.5" y2="30"/><line opacity="0.2" x1="347.77513399539913" x2="347.77513399539913" y1="0.5" y2="30"/><line opacity="0.2" x1="398.2080100855493" x2="398.2080100855493" y1="0.5" y2="30"/><line opacity="0.2" x1="361.3831389797013" x2="361.3831389797013" y1="0.5" y2="30"/><line opacity="0.2" x1="324.93320597736414" x2="324.93320597736414" y1="0.5" y2="30"/><line opacity="0.2" x1="264.1241650809662" x2="264.1241650809662" y1="0.5" y2="30"/><line opacity="0.2" x1="287.01754418201926" x2="287.01754418201926" y1="0.5" y2="30"/><line opacity="0.2" x1="279.2210768372815" x2="279.2210768372815" y1="0.5" y2="30"/><line opacity="0.2" x1="190.12685557796652" x2="190.12685557796652" y1="0.5" y2="30"/><line opacity="0.2" x1="328.5864134666991" x2="328.5864134666991" y1="0.5" y2="30"/><line opacity="0.2" x1="407.5330179712438" x2="407.5330179712438" y1="0.5" y2="30"/><line opacity="0.2" x1="377.3733370051919" x2="377.3733370051919" y1="0.5" y2="30"/><line opacity="0.2" x1="500.887670533961" x2="500.887670533961" y1="0.5" y2="30"/><line opacity="0.2" x1="520.0608611694445" x2="520.0608611694445" y1="0.5" y2="30"/><line opacity="0.2" x1="482.4205729810133" x2="482.4205729810133" y1="0.5" y2="30"/><line opacity="0.2" x1="296.8719699728938" x2="296.8719699728938" y1="0.5" y2="30"/><line opacity="0.2" x1="308.8509661484566" x2="308.8509661484566" y1="0.5" y2="30"/><line opacity="0.2" x1="281.54592671644576" x2="281.54592671644576" y1="0.5" y2="30"/><line opacity="0.2" x1="237.11192665586904" x2="237.11192665586904" y1="0.5" y2="30"/><line opacity="0.2" x1="257.8448149065359" x2="257.8448149065359" y1="0.5" y2="30"/><line opacity="0.2" x1="376.21960196318577" x2="376.21960196318577" y1="0.5" y2="30"/><line opacity="0.2" x1="600.3145239217023" x2="600.3145239217023" y1="0.5" y2="30"/><line opacity="0.2" x1="426.70341382072" x2="426.70341382072" y1="0.5" y2="30"/><line opacity="0.2" x1="318.1819643116259" x2="318.1819643116259" y1="0.5" y2="30"/><line opacity="0.2" x1="421.4812058187639" x2="421.4812058187639" y1="0.5" y2="30"/><line opacity="0.2" x1="418.2454729755532" x2="418.2454729755532" y1="0.5" y2="30"/><line opacity="0.2" x1="217.46547769978974" x2="217.46547769978974" y1="0.5" y2="30"/><line opacity="0.2" x1="204.3934996840292" x2="204.3934996840292" y1="0.5" y2="30"/><line opacity="0.2" x1="249.9414135980261" x2="249.9414135980261" y1="0.5" y2="30"/><line opacity="0.2" x1="244.19637258055138" x2="244.19637258055138" y1="0.5" y2="30"/><line opacity="0.2" x1="333.7000174624597" x2="333.7000174624597" y1="0.5" y2="30"/><line opacity="0.2" x1="220.82130610380125" x2="220.82130610380125" y1="0.5" y2="30"/><line opacity="0.2" x1="337.8882368337428" x2="337.8882368337428" y1="0.5" y2="30"/><line opacity="0.2" x1="229.12913570295183" x2="229.12913570295183" y1="0.5" y2="30"/><line opacity="0.2" x1="285.1167851305994" x2="285.1167851305994" y1="0.5" y2="30"/><line opacity="0.2" x1="380.1551186738507" x2="380.1551186738507" y1="0.5" y2="30"/><line opacity="0.2" x1="409.06786524419545" x2="409.06786524419545" y1="0.5" y2="30"/><line opacity="0.2" x1="478.44282452988625" x2="478.44282452988625" y1="0.5" y2="30"/><line opacity="0.2" x1="352.3707917328583" x2="352.3707917328583" y1="0.5" y2="30"/></g></svg>