<svg xmlns="http://www.w3.org/2000/svg" xmlns:xlink="http://www.w3.org/1999/xlink" class="plot-5463145c7494c" fill="currentColor" font-family="system-ui, sans-serif" font-size="10" text-anchor="middle" width="640" height="60" viewBox="0 0 640 60" style="color: black;"><style>
        .plot-5463145c7494c {
          display: block;
          background: white;
          height: auto;
          height: intrinsic;
          max-width: 100%;
        }
        .plot-5463145c7494c text,
        .plot-5463145c7494c tspan {
          white-space: pre;
        }
      </style><g aria-label="x-axis tick" fill="none" stroke="currentColor" transform="translate(0.5,0)"><path transform="translate(87.93936641885969,30)" d="M0,0L0,6"/><path transform="translate(170.9289292104268,30)" d="M0,0L0,6"/><path transform="translate(253.9184920019939,30)" d="M0,0L0,6"/><path transform="translate(336.908054793561,30)" d="M0,0L0,6"/><path transform="translate(419.89761758512816,30)" d="M0,0L0,6"/><path transform="translate(502.88718037669526,30)" d="M0,0L0,6"/><path transform="translate(585.8767431682624,30)" d="M0,0L0,6"/></g><g aria-label="x-axis tick label" font-variant="tabular-nums" transform="translate(0.5,9.5)"><text y="0.71em" transform="translate(87.93936641885969,30)">−3</text><text y="0.71em" transform="translate(170.9289292104268,30)">−2</text><text y="0.71em" transform="translate(253.9184920019939,30)">−1</text><text y="0.71em" transform="translate(336.908054793561,30)">0</text><text y="0.71em" transform="translate(419.89761758512816,30)">1</text><text y="0.71em" transform="translate(502.88718037669526,30)">2</text><text y="0.71em" transform="translate(585.8767431682624,30)">3</text></g><g aria-label="tick" stroke="steelblue" transform="translate(0.5,0)"><line opacity="0.2" x1="347.6980683143461" x2="347.6980683143461" y1="0" y2="30"/><line opacity="0.2" x1="241.62391725353555" x2="241.62391725353555" y1="0" y2="30"/><line opacity="0.2" x1="339.5519627761455" x2="339.5519627761455" y1="0" y2="30"/><line opacity="0.2" x1="489.1118106577497" x2="489.1118106577497" y1="0" y2="30"/><line opacity="0.2" x1="393.9564454780878" x2="393.9564454780878" y1="0" y2="30"/><line opacity="0.2" x1="363.20242075922897" x2="363.20242075922897" y1="0" y2="30"/><line opacity="0.2" x1="171.395530775621" x2="171.395530775621" y1="0" y2="30"/><line opacity="0.2" x1="255.9769387187116" x2="255.9769387187116" y1="0" y2="30"/><line opacity="0.2" x1="384.530790614985" x2="384.530790614985" y1="0" y2="30"/><line opacity="0.2" x1="212.53798825458867" x2="212.53798825458867" y1="0" y2="30"/><line opacity="0.2" x1="239.40039575135754" x2="239.40039575135754" y1="0" y2="30"/><line opacity="0.2" x1="204.76170556153875" x2="204.76170556153875" y1="0" y2="30"/><line opacity="0.2" x1="349.92041970509104" x2="349.92041970509104" y1="0" y2="30"/><line opacity="0.2" x1="366.02971810475344" x2="366.02971810475344" y1="0" y2="30"/><line opacity="0.2" x1="436.1863837154607" x2="436.1863837154607" y1="0" y2="30"/><line opacity="0.2" x1="376.2245093826382" x2="376.2245093826382" y1="0" y2="30"/><line opacity="0.2" x1="299.8907790705604" x2="299.8907790705604" y1="0" y2="30"/><line opacity="0.2" x1="414.80833773266875" x2="414.80833773266875" y1="0" y2="30"/><line opacity="0.2" x1="242.02104580111563" x2="242.02104580111563" y1="0" y2="30"/><line opacity="0.2" x1="350.53737308132406" x2="350.53737308132406" y1="0" y2="30"/><line opacity="0.2" x1="369.8870438951508" x2="369.8870438951508" y1="0" y2="30"/><line opacity="0.2" x1="533.3620555289887" x2="533.3620555289887" y1="0" y2="30"/><line opacity="0.2" x1="332.5281320334284" x2="332.5281320334284" y1="0" y2="30"/><line opacity="0.2" x1="412.65743193548747" x2="412.65743193548747" y1="0" y2="30"/><line opacity="0.2" x1="322.11587524134126" x2="322.11587524134126" y1="0" y2="30"/><line opacity="0.2" x1="362.23546805262697" x2="362.23546805262697" y1="0" y2="30"/><line opacity="0.2" x1="383.17956494768094" x2="383.17956494768094" y1="0" y2="30"/><line opacity="0.2" x1="311.5081110551778" x2="311.5081110551778" y1="0" y2="30"/><line opacity="0.2" x1="214.39906325614712" x2="214.39906325614712" y1="0" y2="30"/><line opacity="0.2" x1="352.6179975465019" x2="352.6179975465019" y1="0" y2="30"/><line opacity="0.2" x1="337.09425373836206" x2="337.09425373836206" y1="0" y2="30"/><line opacity="0.2" x1="250.06837316513182" x2="250.06837316513182" y1="0" y2="30"/><line opacity="0.2" x1="182.01130515951849" x2="182.01130515951849" y1="0" y2="30"/><line opacity="0.2" x1="209.87424047295235" x2="209.87424047295235" y1="0" y2="30"/><line opacity="0.2" x1="324.3902255763587" x2="324.3902255763587" y1="0" y2="30"/><line opacity="0.2" x1="418.42359485156373" x2="418.42359485156373" y1="0" y2="30"/><line opacity="0.2" x1="313.9704043571547" x2="313.9704043571547" y1="0" y2="30"/><line opacity="0.2" x1="296.6358485221693" x2="296.6358485221693" y1="0" y2="30"/><line opacity="0.2" x1="279.9607015947559" x2="279.9607015947559" y1="0" y2="30"/><line opacity="0.2" x1="329.0483907382185" x2="329.0483907382185" y1="0" y2="30"/><line opacity="0.2" x1="375.1124569048992" x2="375.1124569048992" y1="0" y2="30"/><line opacity="0.2" x1="261.951334525578" x2="261.951334525578" y1="0" y2="30"/><line opacity="0.2" x1="311.5590574932749" x2="311.5590574932749" y1="0" y2="30"/><line opacity="0.2" x1="378.49738302203184" x2="378.49738302203184" y1="0" y2="30"/><line opacity="0.2" x1="159.5235600530417" x2="159.5235600530417" y1="0" y2="30"/><line opacity="0.2" x1="400.4714055410993" x2="400.4714055410993" y1="0" y2="30"/><line opacity="0.2" x1="324.82565058643866" x2="324.82565058643866" y1="0" y2="30"/><line opacity="0.2" x1="414.2909978995919" x2="414.2909978995919" y1="0" y2="30"/><line opacity="0.2" x1="210.0763286129788" x2="210.0763286129788" y1="0" y2="30"/><line opacity="0.2" x1="483.6325412878393" x2="483.6325412878393" y1="0" y2="30"/><line opacity="0.2" x1="345.15211078566927" x2="345.15211078566927" y1="0" y2="30"/><line opacity="0.2" x1="344.12358822378303" x2="344.12358822378303" y1="0" y2="30"/><line opacity="0.2" x1="318.12357814940566" x2="318.12357814940566" y1="0" y2="30"/><line opacity="0.2" x1="391.5496071627142" x2="391.5496071627142" y1="0" y2="30"/><line opacity="0.2" x1="273.79703403698574" x2="273.79703403698574" y1="0" y2="30"/><line opacity="0.2" x1="534.0657787875163" x2="534.0657787875163" y1="0" y2="30"/><line opacity="0.2" x1="343.77397100485763" x2="343.77397100485763" y1="0" y2="30"/><line opacity="0.2" x1="278.31509216153023" x2="278.31509216153023" y1="0" y2="30"/><line opacity="0.2" x1="345.92702117201685" x2="345.92702117201685" y1="0" y2="30"/><line opacity="0.2" x1="367.6084196929372" x2="367.6084196929372" y1="0" y2="30"/><line opacity="0.2" x1="244.38421784048455" x2="244.38421784048455" y1="0" y2="30"/><line opacity="0.2" x1="280.11025694674987" x2="280.11025694674987" y1="0" y2="30"/><line opacity="0.2" x1="395.2624665214904" x2="395.2624665214904" y1="0" y2="30"/><line opacity="0.2" x1="330.8537234544277" x2="330.8537234544277" y1="0" y2="30"/><line opacity="0.2" x1="215.13077836166372" x2="215.13077836166372" y1="0" y2="30"/><line opacity="0.2" x1="349.9325961430737" x2="349.9325961430737" y1="0" y2="30"/><line opacity="0.2" x1="276.632558565177" x2="276.632558565177" y1="0" y2="30"/><line opacity="0.2" x1="320.7312712794458" x2="320.7312712794458" y1="0" y2="30"/><line opacity="0.2" x1="340.4720712543695" x2="340.4720712543695" y1="0" y2="30"/><line opacity="0.2" x1="372.31526997555284" x2="372.31526997555284" y1="0" y2="30"/><line opacity="0.2" x1="332.8788090806463" x2="332.8788090806463" y1="0" y2="30"/><line opacity="0.2" x1="243.32519545463188" x2="243.32519545463188" y1="0" y2="30"/><line opacity="0.2" x1="357.7952502737875" x2="357.7952502737875" y1="0" y2="30"/><line opacity="0.2" x1="271.1196882971765" x2="271.1196882971765" y1="0" y2="30"/><line opacity="0.2" x1="255.48377942664774" x2="255.48377942664774" y1="0" y2="30"/><line opacity="0.2" x1="307.802075018649" x2="307.802075018649" y1="0" y2="30"/><line opacity="0.2" x1="493.11287799625006" x2="493.11287799625006" y1="0" y2="30"/><line opacity="0.2" x1="291.40455025205756" x2="291.40455025205756" y1="0" y2="30"/><line opacity="0.2" x1="526.5525542380594" x2="526.5525542380594" y1="0" y2="30"/><line opacity="0.2" x1="368.7908627758201" x2="368.7908627758201" y1="0" y2="30"/><line opacity="0.2" x1="301.35040103945977" x2="301.35040103945977" y1="0" y2="30"/><line opacity="0.2" x1="244.6365533861337" x2="244.6365533861337" y1="0" y2="30"/><line opacity="0.2" x1="118.40039700299133" x2="118.40039700299133" y1="0" y2="30"/><line opacity="0.2" x1="237.75577075702853" x2="237.75577075702853" y1="0" y2="30"/><line opacity="0.2" x1="376.5914856703784" x2="376.5914856703784" y1="0" y2="30"/><line opacity="0.2" x1="301.37818365318066" x2="301.37818365318066" y1="0" y2="30"/><line opacity="0.2" x1="384.3125704366661" x2="384.3125704366661" y1="0" y2="30"/><line opacity="0.2" x1="393.9605147005056" x2="393.9605147005056" y1="0" y2="30"/><line opacity="0.2" x1="297.6236668203596" x2="297.6236668203596" y1="0" y2="30"/><line opacity="0.2" x1="306.77814085287315" x2="306.77814085287315" y1="0" y2="30"/><line opacity="0.2" x1="220.61798816712457" x2="220.61798816712457" y1="0" y2="30"/><line opacity="0.2" x1="431.0849915740269" x2="431.0849915740269" y1="0" y2="30"/><line opacity="0.2" x1="225.13570262351874" x2="225.13570262351874" y1="0" y2="30"/><line opacity="0.2" x1="384.6048592331008" x2="384.6048592331008" y1="0" y2="30"/><line opacity="0.2" x1="306.2804958555878" x2="306.2804958555878" y1="0" y2="30"/><line opacity="0.2" x1="301.0514269533942" x2="301.0514269533942" y1="0" y2="30"/><line opacity="0.2" x1="295.41136611614206" x2="295.41136611614206" y1="0" y2="30"/><line opacity="0.2" x1="504.0035857841123" x2="504.0035857841123" y1="0" y2="30"/><line opacity="0.2" x1="276.5872157845221" x2="276.5872157845221" y1="0" y2="30"/><line opacity="0.2" x1="455.22203362661486" x2="455.22203362661486" y1="0" y2="30"/><line opacity="0.2" x1="468.04464854132334" x2="468.04464854132334" y1="0" y2="30"/><line opacity="0.2" x1="306.29180620128005" x2="306.29180620128005" y1="0" y2="30"/><line opacity="0.2" x1="391.68380490470395" x2="391.68380490470395" y1="0" y2="30"/><line opacity="0.2" x1="447.02352878935784" x2="447.02352878935784" y1="0" y2="30"/><line opacity="0.2" x1="207.30062244330048" x2="207.30062244330048" y1="0" y2="30"/><line opacity="0.2" x1="354.00125123358026" x2="354.00125123358026" y1="0" y2="30"/><line opacity="0.2" x1="329.9317588542134" x2="329.9317588542134" y1="0" y2="30"/><line opacity="0.2" x1="355.4003587170316" x2="355.4003587170316" y1="0" y2="30"/><line opacity="0.2" x1="272.1590037781772" x2="272.1590037781772" y1="0" y2="30"/><line opacity="0.2" x1="316.76447181745726" x2="316.76447181745726" y1="0" y2="30"/><line opacity="0.2" x1="430.98158530720883" x2="430.98158530720883" y1="0" y2="30"/><line opacity="0.2" x1="499.9105520320842" x2="499.9105520320842" y1="0" y2="30"/><line opacity="0.2" x1="269.11628697084893" x2="269.11628697084893" y1="0" y2="30"/><line opacity="0.2" x1="282.5965773789067" x2="282.5965773789067" y1="0" y2="30"/><line opacity="0.2" x1="279.0434459520914" x2="279.0434459520914" y1="0" y2="30"/><line opacity="0.2" x1="312.6907264381322" x2="312.6907264381322" y1="0" y2="30"/><line opacity="0.2" x1="315.9355618574814" x2="315.9355618574814" y1="0" y2="30"/><line opacity="0.2" x1="449.79641156222056" x2="449.79641156222056" y1="0" y2="30"/><line opacity="0.2" x1="293.43772727124434" x2="293.43772727124434" y1="0" y2="30"/><line opacity="0.2" x1="399.7832168012786" x2="399.7832168012786" y1="0" y2="30"/><line opacity="0.2" x1="377.3286959812006" x2="377.3286959812006" y1="0" y2="30"/><line opacity="0.2" x1="393.30018939504754" x2="393.30018939504754" y1="0" y2="30"/><line opacity="0.2" x1="334.70365572022655" x2="334.70365572022655" y1="0" y2="30"/><line opacity="0.2" x1="286.9405450681003" x2="286.9405450681003" y1="0" y2="30"/><line opacity="0.2" x1="336.26255929723277" x2="336.26255929723277" y1="0" y2="30"/><line opacity="0.2" x1="356.18229861533536" x2="356.18229861533536" y1="0" y2="30"/><line opacity="0.2" x1="324.106939873581" x2="324.106939873581" y1="0" y2="30"/><line opacity="0.2" x1="316.41661806441215" x2="316.41661806441215" y1="0" y2="30"/><line opacity="0.2" x1="387.03689833141254" x2="387.03689833141254" y1="0" y2="30"/><line opacity="0.2" x1="418.4237503351893" x2="418.4237503351893" y1="0" y2="30"/><line opacity="0.2" x1="295.916720663446" x2="295.916720663446" y1="0" y2="30"/><line opacity="0.2" x1="406.14488403872775" x2="406.14488403872775" y1="0" y2="30"/><line opacity="0.2" x1="238.65378121782203" x2="238.65378121782203" y1="0" y2="30"/><line opacity="0.2" x1="295.5032108040923" x2="295.5032108040923" y1="0" y2="30"/><line opacity="0.2" x1="282.5975705380366" x2="282.5975705380366" y1="0" y2="30"/><line opacity="0.2" x1="354.8356322988095" x2="354.8356322988095" y1="0" y2="30"/><line opacity="0.2" x1="339.2819437561216" x2="339.2819437561216" y1="0" y2="30"/><line opacity="0.2" x1="398.18847238777977" x2="398.18847238777977" y1="0" y2="30"/><line opacity="0.2" x1="249.36844181294745" x2="249.36844181294745" y1="0" y2="30"/><line opacity="0.2" x1="465.03439573762853" x2="465.03439573762853" y1="0" y2="30"/><line opacity="0.2" x1="306.94091439578625" x2="306.94091439578625" y1="0" y2="30"/><line opacity="0.2" x1="324.68844033870533" x2="324.68844033870533" y1="0" y2="30"/><line opacity="0.2" x1="425.1795130237307" x2="425.1795130237307" y1="0" y2="30"/><line opacity="0.2" x1="371.9066508735218" x2="371.9066508735218" y1="0" y2="30"/><line opacity="0.2" x1="397.79963637617425" x2="397.79963637617425" y1="0" y2="30"/><line opacity="0.2" x1="211.0313042217879" x2="211.0313042217879" y1="0" y2="30"/><line opacity="0.2" x1="399.538565059454" x2="399.538565059454" y1="0" y2="30"/><line opacity="0.2" x1="246.47981148185136" x2="246.47981148185136" y1="0" y2="30"/><line opacity="0.2" x1="388.5655012462829" x2="388.5655012462829" y1="0" y2="30"/><line opacity="0.2" x1="379.67513200289756" x2="379.67513200289756" y1="0" y2="30"/><line opacity="0.2" x1="227.90644579843874" x2="227.90644579843874" y1="0" y2="30"/><line opacity="0.2" x1="376.4059742027221" x2="376.4059742027221" y1="0" y2="30"/><line opacity="0.2" x1="414.19419155364966" x2="414.19419155364966" y1="0" y2="30"/><line opacity="0.2" x1="314.16489850169023" x2="314.16489850169023" y1="0" y2="30"/><line opacity="0.2" x1="445.021882189963" x2="445.021882189963" y1="0" y2="30"/><line opacity="0.2" x1="530.56769091445" x2="530.56769091445" y1="0" y2="30"/><line opacity="0.2" x1="308.48849271686896" x2="308.48849271686896" y1="0" y2="30"/><line opacity="0.2" x1="427.1162944309407" x2="427.1162944309407" y1="0" y2="30"/><line opacity="0.2" x1="374.22822923618406" x2="374.22822923618406" y1="0" y2="30"/><line opacity="0.2" x1="351.8973394648676" x2="351.8973394648676" y1="0" y2="30"/><line opacity="0.2" x1="361.7061559055301" x2="361.7061559055301" y1="0" y2="30"/><line opacity="0.2" x1="248.42809135175312" x2="248.42809135175312" y1="0" y2="30"/><line opacity="0.2" x1="427.8835957109302" x2="427.8835957109302" y1="0" y2="30"/><line opacity="0.2" x1="250.67280638599706" x2="250.67280638599706" y1="0" y2="30"/><line opacity="0.2" x1="295.60657057905087" x2="295.60657057905087" y1="0" y2="30"/><line opacity="0.2" x1="387.8356231159534" x2="387.8356231159534" y1="0" y2="30"/><line opacity="0.2" x1="451.0174517949867" x2="451.0174517949867" y1="0" y2="30"/><line opacity="0.2" x1="298.5370313459685" x2="298.5370313459685" y1="0" y2="30"/><line opacity="0.2" x1="370.2497345466917" x2="370.2497345466917" y1="0" y2="30"/><line opacity="0.2" x1="294.8929187049611" x2="294.8929187049611" y1="0" y2="30"/><line opacity="0.2" x1="363.93890069576094" x2="363.93890069576094" y1="0" y2="30"/><line opacity="0.2" x1="351.04417775504646" x2="351.04417775504646" y1="0" y2="30"/><line opacity="0.2" x1="344.0185814040185" x2="344.0185814040185" y1="0" y2="30"/><line opacity="0.2" x1="257.9806605644591" x2="257.9806605644591" y1="0" y2="30"/><line opacity="0.2" x1="328.4512326249792" x2="328.4512326249792" y1="0" y2="30"/><line opacity="0.2" x1="143.95485799922653" x2="143.95485799922653" y1="0" y2="30"/><line opacity="0.2" x1="342.2444915634045" x2="342.2444915634045" y1="0" y2="30"/><line opacity="0.2" x1="363.5898456767907" x2="363.5898456767907" y1="0" y2="30"/><line opacity="0.2" x1="230.8823844547729" x2="230.8823844547729" y1="0" y2="30"/><line opacity="0.2" x1="424.06860326257544" x2="424.06860326257544" y1="0" y2="30"/><line opacity="0.2" x1="287.8084090961217" x2="287.8084090961217" y1="0" y2="30"/><line opacity="0.2" x1="299.72885045062014" x2="299.72885045062014" y1="0" y2="30"/><line opacity="0.2" x1="536.8151004972754" x2="536.8151004972754" y1="0" y2="30"/><line opacity="0.2" x1="372.0865502760487" x2="372.0865502760487" y1="0" y2="30"/><line opacity="0.2" x1="196.1095404752251" x2="196.1095404752251" y1="0" y2="30"/><line opacity="0.2" x1="301.607169056476" x2="301.607169056476" y1="0" y2="30"/><line opacity="0.2" x1="382.3677890499016" x2="382.3677890499016" y1="0" y2="30"/><line opacity="0.2" x1="400.9818891992718" x2="400.9818891992718" y1="0" y2="30"/><line opacity="0.2" x1="456.78946995115626" x2="456.78946995115626" y1="0" y2="30"/><line opacity="0.2" x1="295.0923765098036" x2="295.0923765098036" y1="0" y2="30"/><line opacity="0.2" x1="222.02851147395535" x2="222.02851147395535" y1="0" y2="30"/><line opacity="0.2" x1="446.7677834759292" x2="446.7677834759292" y1="0" y2="30"/><line opacity="0.2" x1="405.1659887659457" x2="405.1659887659457" y1="0" y2="30"/><line opacity="0.2" x1="262.46542001212043" x2="262.46542001212043" y1="0" y2="30"/><line opacity="0.2" x1="318.86571669662817" x2="318.86571669662817" y1="0" y2="30"/><line opacity="0.2" x1="135.42974298859082" x2="135.42974298859082" y1="0" y2="30"/><line opacity="0.2" x1="437.1728953576046" x2="437.1728953576046" y1="0" y2="30"/><line opacity="0.2" x1="396.8729261266525" x2="396.8729261266525" y1="0" y2="30"/><line opacity="0.2" x1="381.3192646376538" x2="381.3192646376538" y1="0" y2="30"/><line opacity="0.2" x1="337.90367677750953" x2="337.90367677750953" y1="0" y2="30"/><line opacity="0.2" x1="288.60560167614466" x2="288.60560167614466" y1="0" y2="30"/><line opacity="0.2" x1="347.9983236894395" x2="347.9983236894395" y1="0" y2="30"/><line opacity="0.2" x1="384.80324698012487" x2="384.80324698012487" y1="0" y2="30"/><line opacity="0.2" x1="434.34381905592346" x2="434.34381905592346" y1="0" y2="30"/><line opacity="0.2" x1="270.8148624349651" x2="270.8148624349651" y1="0" y2="30"/><line opacity="0.2" x1="266.37975949676724" x2="266.37975949676724" y1="0" y2="30"/><line opacity="0.2" x1="368.5152095183371" x2="368.5152095183371" y1="0" y2="30"/><line opacity="0.2" x1="314.9772015193289" x2="314.9772015193289" y1="0" y2="30"/><line opacity="0.2" x1="261.115485584308" x2="261.115485584308" y1="0" y2="30"/><line opacity="0.2" x1="269.4481991394366" x2="269.4481991394366" y1="0" y2="30"/><line opacity="0.2" x1="255.0988180456737" x2="255.0988180456737" y1="0" y2="30"/><line opacity="0.2" x1="290.7327528716171" x2="290.7327528716171" y1="0" y2="30"/><line opacity="0.2" x1="329.5408484141202" x2="329.5408484141202" y1="0" y2="30"/><line opacity="0.2" x1="305.21904213728" x2="305.21904213728" y1="0" y2="30"/><line opacity="0.2" x1="483.2041310500435" x2="483.2041310500435" y1="0" y2="30"/><line opacity="0.2" x1="338.1470501660208" x2="338.1470501660208" y1="0" y2="30"/><line opacity="0.2" x1="358.5539986253413" x2="358.5539986253413" y1="0" y2="30"/><line opacity="0.2" x1="408.2087524585407" x2="408.2087524585407" y1="0" y2="30"/><line opacity="0.2" x1="332.3500915085804" x2="332.3500915085804" y1="0" y2="30"/><line opacity="0.2" x1="392.75535371035676" x2="392.75535371035676" y1="0" y2="30"/><line opacity="0.2" x1="406.8191223509416" x2="406.8191223509416" y1="0" y2="30"/><line opacity="0.2" x1="431.61173808125517" x2="431.61173808125517" y1="0" y2="30"/><line opacity="0.2" x1="148.9094898593043" x2="148.9094898593043" y1="0" y2="30"/><line opacity="0.2" x1="311.75857431712166" x2="311.75857431712166" y1="0" y2="30"/><line opacity="0.2" x1="389.77093426824536" x2="389.77093426824536" y1="0" y2="30"/><line opacity="0.2" x1="259.94910133305314" x2="259.94910133305314" y1="0" y2="30"/><line opacity="0.2" x1="81.01826836267941" x2="81.01826836267941" y1="0" y2="30"/><line opacity="0.2" x1="460.14920553278836" x2="460.14920553278836" y1="0" y2="30"/><line opacity="0.2" x1="370.1673905897585" x2="370.1673905897585" y1="0" y2="30"/><line opacity="0.2" x1="295.8485131246371" x2="295.8485131246371" y1="0" y2="30"/><line opacity="0.2" x1="378.9166405344647" x2="378.9166405344647" y1="0" y2="30"/><line opacity="0.2" x1="360.7672585803756" x2="360.7672585803756" y1="0" y2="30"/><line opacity="0.2" x1="283.543472047886" x2="283.543472047886" y1="0" y2="30"/><line opacity="0.2" x1="328.65893994249797" x2="328.65893994249797" y1="0" y2="30"/><line opacity="0.2" x1="323.0063886353401" x2="323.0063886353401" y1="0" y2="30"/><line opacity="0.2" x1="429.3405789916748" x2="429.3405789916748" y1="0" y2="30"/><line opacity="0.2" x1="409.85623159579296" x2="409.85623159579296" y1="0" y2="30"/><line opacity="0.2" x1="192.51729428423545" x2="192.51729428423545" y1="0" y2="30"/><line opacity="0.2" x1="406.92699773675605" x2="406.92699773675605" y1="0" y2="30"/><line opacity="0.2" x1="404.71183945200573" x2="404.71183945200573" y1="0" y2="30"/><line opacity="0.2" x1="463.04086877923567" x2="463.04086877923567" y1="0" y2="30"/><line opacity="0.2" x1="459.4123612367985" x2="459.4123612367985" y1="0" y2="30"/><line opacity="0.2" x1="366.15521451764437" x2="366.15521451764437" y1="0" y2="30"/><line opacity="0.2" x1="302.28476432251125" x2="302.28476432251125" y1="0" y2="30"/><line opacity="0.2" x1="225.21728872121565" x2="225.21728872121565" y1="0" y2="30"/><line opacity="0.2" x1="299.9145117909004" x2="299.9145117909004" y1="0" y2="30"/><line opacity="0.2" x1="328.5234283348916" x2="328.5234283348916" y1="0" y2="30"/><line opacity="0.2" x1="388.9584568871296" x2="388.9584568871296" y1="0" y2="30"/><line opacity="0.2" x1="343.2608668285176" x2="343.2608668285176" y1="0" y2="30"/><line opacity="0.2" x1="245.9341952372034" x2="245.9341952372034" y1="0" y2="30"/><line opacity="0.2" x1="216.99553523386226" x2="216.99553523386226" y1="0" y2="30"/><line opacity="0.2" x1="365.6483285723919" x2="365.6483285723919" y1="0" y2="30"/><line opacity="0.2" x1="338.812575629724" x2="338.812575629724" y1="0" y2="30"/><line opacity="0.2" x1="346.22724259758064" x2="346.22724259758064" y1="0" y2="30"/><line opacity="0.2" x1="409.65746930403066" x2="409.65746930403066" y1="0" y2="30"/><line opacity="0.2" x1="422.54462987496004" x2="422.54462987496004" y1="0" y2="30"/><line opacity="0.2" x1="388.36703933168855" x2="388.36703933168855" y1="0" y2="30"/><line opacity="0.2" x1="265.4030427700442" x2="265.4030427700442" y1="0" y2="30"/><line opacity="0.2" x1="333.8841880554525" x2="333.8841880554525" y1="0" y2="30"/><line opacity="0.2" x1="313.74045901601124" x2="313.74045901601124" y1="0" y2="30"/><line opacity="0.2" x1="372.9394286991732" x2="372.9394286991732" y1="0" y2="30"/><line opacity="0.2" x1="382.6013707097409" x2="382.6013707097409" y1="0" y2="30"/><line opacity="0.2" x1="376.03444021954" x2="376.03444021954" y1="0" y2="30"/><line opacity="0.2" x1="189.6256795343863" x2="189.6256795343863" y1="0" y2="30"/><line opacity="0.2" x1="387.00537444562167" x2="387.00537444562167" y1="0" y2="30"/><line opacity="0.2" x1="462.5699455678538" x2="462.5699455678538" y1="0" y2="30"/><line opacity="0.2" x1="243.10716920970714" x2="243.10716920970714" y1="0" y2="30"/><line opacity="0.2" x1="424.93079346624864" x2="424.93079346624864" y1="0" y2="30"/><line opacity="0.2" x1="369.9238575964752" x2="369.9238575964752" y1="0" y2="30"/><line opacity="0.2" x1="267.57165083712346" x2="267.57165083712346" y1="0" y2="30"/><line opacity="0.2" x1="356.30944126738075" x2="356.30944126738075" y1="0" y2="30"/><line opacity="0.2" x1="287.49273793071546" x2="287.49273793071546" y1="0" y2="30"/><line opacity="0.2" x1="296.9486051044962" x2="296.9486051044962" y1="0" y2="30"/><line opacity="0.2" x1="420.1549233392075" x2="420.1549233392075" y1="0" y2="30"/><line opacity="0.2" x1="342.67405957191505" x2="342.67405957191505" y1="0" y2="30"/><line opacity="0.2" x1="425.9288040939199" x2="425.9288040939199" y1="0" y2="30"/><line opacity="0.2" x1="249.95584991067122" x2="249.95584991067122" y1="0" y2="30"/><line opacity="0.2" x1="259.9935693514291" x2="259.9935693514291" y1="0" y2="30"/><line opacity="0.2" x1="413.4385413453309" x2="413.4385413453309" y1="0" y2="30"/><line opacity="0.2" x1="473.70941958683727" x2="473.70941958683727" y1="0" y2="30"/><line opacity="0.2" x1="452.29793943745875" x2="452.29793943745875" y1="0" y2="30"/><line opacity="0.2" x1="300.3332475215002" x2="300.3332475215002" y1="0" y2="30"/><line opacity="0.2" x1="340.4078872602261" x2="340.4078872602261" y1="0" y2="30"/><line opacity="0.2" x1="308.34624229922656" x2="308.34624229922656" y1="0" y2="30"/><line opacity="0.2" x1="284.9494622885102" x2="284.9494622885102" y1="0" y2="30"/><line opacity="0.2" x1="339.4327551815055" x2="339.4327551815055" y1="0" y2="30"/><line opacity="0.2" x1="340.79462600709417" x2="340.79462600709417" y1="0" y2="30"/><line opacity="0.2" x1="257.15491102849126" x2="257.15491102849126" y1="0" y2="30"/><line opacity="0.2" x1="314.9832673026389" x2="314.9832673026389" y1="0" y2="30"/><line opacity="0.2" x1="299.365029631459" x2="299.365029631459" y1="0" y2="30"/><line opacity="0.2" x1="416.4852568042106" x2="416.4852568042106" y1="0" y2="30"/><line opacity="0.2" x1="382.89972217828046" x2="382.89972217828046" y1="0" y2="30"/><line opacity="0.2" x1="315.7737258742754" x2="315.7737258742754" y1="0" y2="30"/><line opacity="0.2" x1="362.20063933480304" x2="362.20063933480304" y1="0" y2="30"/><line opacity="0.2" x1="332.5655708804612" x2="332.5655708804612" y1="0" y2="30"/><line opacity="0.2" x1="287.1364898609248" x2="287.1364898609248" y1="0" y2="30"/><line opacity="0.2" x1="295.8503916471207" x2="295.8503916471207" y1="0" y2="30"/><line opacity="0.2" x1="308.84783884287623" x2="308.84783884287623" y1="0" y2="30"/><line opacity="0.2" x1="413.68703357159416" x2="413.68703357159416" y1="0" y2="30"/><line opacity="0.2" x1="275.2118770397398" x2="275.2118770397398" y1="0" y2="30"/><line opacity="0.2" x1="330.23575199191515" x2="330.23575199191515" y1="0" y2="30"/><line opacity="0.2" x1="399.5278498190546" x2="399.5278498190546" y1="0" y2="30"/><line opacity="0.2" x1="496.8780899560459" x2="496.8780899560459" y1="0" y2="30"/><line opacity="0.2" x1="423.40250847227685" x2="423.40250847227685" y1="0" y2="30"/><line opacity="0.2" x1="419.34714701072716" x2="419.34714701072716" y1="0" y2="30"/><line opacity="0.2" x1="192.58493684789437" x2="192.58493684789437" y1="0" y2="30"/><line opacity="0.2" x1="328.7952765037259" x2="328.7952765037259" y1="0" y2="30"/><line opacity="0.2" x1="272.81014220856997" x2="272.81014220856997" y1="0" y2="30"/><line opacity="0.2" x1="503.76712708505" x2="503.76712708505" y1="0" y2="30"/><line opacity="0.2" x1="277.85639201400306" x2="277.85639201400306" y1="0" y2="30"/><line opacity="0.2" x1="291.20127153719545" x2="291.20127153719545" y1="0" y2="30"/><line opacity="0.2" x1="352.4404669501219" x2="352.4404669501219" y1="0" y2="30"/><line opacity="0.2" x1="313.7012966915128" x2="313.7012966915128" y1="0" y2="30"/><line opacity="0.2" x1="497.5917644689508" x2="497.5917644689508" y1="0" y2="30"/><line opacity="0.2" x1="349.28892627851263" x2="349.28892627851263" y1="0" y2="30"/><line opacity="0.2" x1="432.9452290069978" x2="432.9452290069978" y1="0" y2="30"/><line opacity="0.2" x1="355.4059765645312" x2="355.4059765645312" y1="0" y2="30"/><line opacity="0.2" x1="102.61463295151873" x2="102.61463295151873" y1="0" y2="30"/><line opacity="0.2" x1="393.4213115141406" x2="393.4213115141406" y1="0" y2="30"/><line opacity="0.2" x1="414.50070806373424" x2="414.50070806373424" y1="0" y2="30"/><line opacity="0.2" x1="432.6866008765509" x2="432.6866008765509" y1="0" y2="30"/><line opacity="0.2" x1="110.62512801868218" x2="110.62512801868218" y1="0" y2="30"/><line opacity="0.2" x1="539.2998138651432" x2="539.2998138651432" y1="0" y2="30"/><line opacity="0.2" x1="371.7121621819226" x2="371.7121621819226" y1="0" y2="30"/><line opacity="0.2" x1="304.6476931966175" x2="304.6476931966175" y1="0" y2="30"/><line opacity="0.2" x1="343.71167831720845" x2="343.71167831720845" y1="0" y2="30"/><line opacity="0.2" x1="439.1267130110554" x2="439.1267130110554" y1="0" y2="30"/><line opacity="0.2" x1="391.98666483135855" x2="391.98666483135855" y1="0" y2="30"/><line opacity="0.2" x1="309.5874792324281" x2="309.5874792324281" y1="0" y2="30"/><line opacity="0.2" x1="217.16844335072622" x2="217.16844335072622" y1="0" y2="30"/><line opacity="0.2" x1="367.68778949489814" x2="367.68778949489814" y1="0" y2="30"/><line opacity="0.2" x1="346.3326085501967" x2="346.3326085501967" y1="0" y2="30"/><line opacity="0.2" x1="304.6215955379373" x2="304.6215955379373" y1="0" y2="30"/><line opacity="0.2" x1="410.55526963432754" x2="410.55526963432754" y1="0" y2="30"/><line opacity="0.2" x1="377.13040458552956" x2="377.13040458552956" y1="0" y2="30"/><line opacity="0.2" x1="238.412477466432" x2="238.412477466432" y1="0" y2="30"/><line opacity="0.2" x1="531.6163804851685" x2="531.6163804851685" y1="0" y2="30"/><line opacity="0.2" x1="353.8463287287977" x2="353.8463287287977" y1="0" y2="30"/><line opacity="0.2" x1="290.6260814362097" x2="290.6260814362097" y1="0" y2="30"/><line opacity="0.2" x1="437.35761536963906" x2="437.35761536963906" y1="0" y2="30"/><line opacity="0.2" x1="348.49650485653126" x2="348.49650485653126" y1="0" y2="30"/><line opacity="0.2" x1="405.4948983524962" x2="405.4948983524962" y1="0" y2="30"/><line opacity="0.2" x1="463.998913197125" x2="463.998913197125" y1="0" y2="30"/><line opacity="0.2" x1="384.60132496511807" x2="384.60132496511807" y1="0" y2="30"/><line opacity="0.2" x1="214.35935061610746" x2="214.35935061610746" y1="0" y2="30"/><line opacity="0.2" x1="331.6942962639414" x2="331.6942962639414" y1="0" y2="30"/><line opacity="0.2" x1="375.3150459939811" x2="375.3150459939811" y1="0" y2="30"/><line opacity="0.2" x1="421.9601534044331" x2="421.9601534044331" y1="0" y2="30"/><line opacity="0.2" x1="366.7126952421312" x2="366.7126952421312" y1="0" y2="30"/><line opacity="0.2" x1="173.33608389432538" x2="173.33608389432538" y1="0" y2="30"/><line opacity="0.2" x1="400.2184096221943" x2="400.2184096221943" y1="0" y2="30"/><line opacity="0.2" x1="356.1328700095347" x2="356.1328700095347" y1="0" y2="30"/><line opacity="0.2" x1="405.4914013631842" x2="405.4914013631842" y1="0" y2="30"/><line opacity="0.2" x1="407.4192838410941" x2="407.4192838410941" y1="0" y2="30"/><line opacity="0.2" x1="273.7859519583813" x2="273.7859519583813" y1="0" y2="30"/><line opacity="0.2" x1="204.9760987698117" x2="204.9760987698117" y1="0" y2="30"/><line opacity="0.2" x1="334.7943018333185" x2="334.7943018333185" y1="0" y2="30"/><line opacity="0.2" x1="321.4706780829818" x2="321.4706780829818" y1="0" y2="30"/><line opacity="0.2" x1="348.20660310934215" x2="348.20660310934215" y1="0" y2="30"/><line opacity="0.2" x1="236.34792969213993" x2="236.34792969213993" y1="0" y2="30"/><line opacity="0.2" x1="391.1690028117116" x2="391.1690028117116" y1="0" y2="30"/><line opacity="0.2" x1="439.4413828530253" x2="439.4413828530253" y1="0" y2="30"/><line opacity="0.2" x1="342.37271140405574" x2="342.37271140405574" y1="0" y2="30"/><line opacity="0.2" x1="395.24915195969845" x2="395.24915195969845" y1="0" y2="30"/><line opacity="0.2" x1="215.76100493529924" x2="215.76100493529924" y1="0" y2="30"/><line opacity="0.2" x1="341.361951547479" x2="341.361951547479" y1="0" y2="30"/><line opacity="0.2" x1="299.8759762037491" x2="299.8759762037491" y1="0" y2="30"/><line opacity="0.2" x1="336.50776768041203" x2="336.50776768041203" y1="0" y2="30"/><line opacity="0.2" x1="347.50749546073445" x2="347.50749546073445" y1="0" y2="30"/><line opacity="0.2" x1="299.0451389595917" x2="299.0451389595917" y1="0" y2="30"/><line opacity="0.2" x1="288.05693358384474" x2="288.05693358384474" y1="0" y2="30"/><line opacity="0.2" x1="384.440369452876" x2="384.440369452876" y1="0" y2="30"/><line opacity="0.2" x1="385.1986471949" x2="385.1986471949" y1="0" y2="30"/><line opacity="0.2" x1="234.50125581221772" x2="234.50125581221772" y1="0" y2="30"/><line opacity="0.2" x1="246.9183738732197" x2="246.9183738732197" y1="0" y2="30"/><line opacity="0.2" x1="215.26290824872254" x2="215.26290824872254" y1="0" y2="30"/><line opacity="0.2" x1="505.66167493957863" x2="505.66167493957863" y1="0" y2="30"/><line opacity="0.2" x1="413.9766776538177" x2="413.9766776538177" y1="0" y2="30"/><line opacity="0.2" x1="299.5864475973036" x2="299.5864475973036" y1="0" y2="30"/><line opacity="0.2" x1="375.2778254715162" x2="375.2778254715162" y1="0" y2="30"/><line opacity="0.2" x1="271.8033293357308" x2="271.8033293357308" y1="0" y2="30"/><line opacity="0.2" x1="239.52369588778208" x2="239.52369588778208" y1="0" y2="30"/><line opacity="0.2" x1="337.2303113567599" x2="337.2303113567599" y1="0" y2="30"/><line opacity="0.2" x1="316.50819905809846" x2="316.50819905809846" y1="0" y2="30"/><line opacity="0.2" x1="261.1489300375757" x2="261.1489300375757" y1="0" y2="30"/><line opacity="0.2" x1="424.2906846866069" x2="424.2906846866069" y1="0" y2="30"/><line opacity="0.2" x1="315.60969626166815" x2="315.60969626166815" y1="0" y2="30"/><line opacity="0.2" x1="230.5093309576145" x2="230.5093309576145" y1="0" y2="30"/><line opacity="0.2" x1="334.16481390877203" x2="334.16481390877203" y1="0" y2="30"/><line opacity="0.2" x1="344.9709406265216" x2="344.9709406265216" y1="0" y2="30"/><line opacity="0.2" x1="375.58816438669794" x2="375.58816438669794" y1="0" y2="30"/><line opacity="0.2" x1="233.59391106804384" x2="233.59391106804384" y1="0" y2="30"/><line opacity="0.2" x1="339.184851758921" x2="339.184851758921" y1="0" y2="30"/><line opacity="0.2" x1="359.6330517129468" x2="359.6330517129468" y1="0" y2="30"/><line opacity="0.2" x1="226.56301850547547" x2="226.56301850547547" y1="0" y2="30"/><line opacity="0.2" x1="294.02326321845584" x2="294.02326321845584" y1="0" y2="30"/><line opacity="0.2" x1="316.4708924810586" x2="316.4708924810586" y1="0" y2="30"/><line opacity="0.2" x1="368.6796884055015" x2="368.6796884055015" y1="0" y2="30"/><line opacity="0.2" x1="318.2722501939067" x2="318.2722501939067" y1="0" y2="30"/><line opacity="0.2" x1="374.02093356560874" x2="374.02093356560874" y1="0" y2="30"/><line opacity="0.2" x1="200.99552995797993" x2="200.99552995797993" y1="0" y2="30"/><line opacity="0.2" x1="373.17270506867135" x2="373.17270506867135" y1="0" y2="30"/><line opacity="0.2" x1="105.45373693150498" x2="105.45373693150498" y1="0" y2="30"/><line opacity="0.2" x1="327.12317631060375" x2="327.12317631060375" y1="0" y2="30"/><line opacity="0.2" x1="356.24208213382036" x2="356.24208213382036" y1="0" y2="30"/><line opacity="0.2" x1="174.70180636466984" x2="174.70180636466984" y1="0" y2="30"/><line opacity="0.2" x1="266.13004016344155" x2="266.13004016344155" y1="0" y2="30"/><line opacity="0.2" x1="225.61279623284733" x2="225.61279623284733" y1="0" y2="30"/><line opacity="0.2" x1="411.0400800637146" x2="411.0400800637146" y1="0" y2="30"/><line opacity="0.2" x1="349.5619497717381" x2="349.5619497717381" y1="0" y2="30"/><line opacity="0.2" x1="332.1720800646085" x2="332.1720800646085" y1="0" y2="30"/><line opacity="0.2" x1="527.6695019016313" x2="527.6695019016313" y1="0" y2="30"/><line opacity="0.2" x1="234.46399543554685" x2="234.46399543554685" y1="0" y2="30"/><line opacity="0.2" x1="327.2558952558027" x2="327.2558952558027" y1="0" y2="30"/><line opacity="0.2" x1="376.82794993240327" x2="376.82794993240327" y1="0" y2="30"/><line opacity="0.2" x1="457.4017376954883" x2="457.4017376954883" y1="0" y2="30"/><line opacity="0.2" x1="336.9451635209691" x2="336.9451635209691" y1="0" y2="30"/><line opacity="0.2" x1="330.8957918841718" x2="330.8957918841718" y1="0" y2="30"/><line opacity="0.2" x1="207.27432964287664" x2="207.27432964287664" y1="0" y2="30"/><line opacity="0.2" x1="226.43012852983586" x2="226.43012852983586" y1="0" y2="30"/><line opacity="0.2" x1="436.75630756873295" x2="436.75630756873295" y1="0" y2="30"/><line opacity="0.2" x1="303.482073848702" x2="303.482073848702" y1="0" y2="30"/><line opacity="0.2" x1="457.7545190415353" x2="457.7545190415353" y1="0" y2="30"/><line opacity="0.2" x1="412.2814401441463" x2="412.2814401441463" y1="0" y2="30"/><line opacity="0.2" x1="374.3871641482485" x2="374.3871641482485" y1="0" y2="30"/><line opacity="0.2" x1="355.7661776902608" x2="355.7661776902608" y1="0" y2="30"/><line opacity="0.2" x1="387.25051500830114" x2="387.25051500830114" y1="0" y2="30"/><line opacity="0.2" x1="446.33098084530735" x2="446.33098084530735" y1="0" y2="30"/><line opacity="0.2" x1="177.31159703542198" x2="177.31159703542198" y1="0" y2="30"/><line opacity="0.2" x1="279.2948861273245" x2="279.2948861273245" y1="0" y2="30"/><line opacity="0.2" x1="347.6394315535215" x2="347.6394315535215" y1="0" y2="30"/><line opacity="0.2" x1="318.91820197081404" x2="318.91820197081404" y1="0" y2="30"/><line opacity="0.2" x1="306.84586309960343" x2="306.84586309960343" y1="0" y2="30"/><line opacity="0.2" x1="381.6923772645028" x2="381.6923772645028" y1="0" y2="30"/><line opacity="0.2" x1="379.96767040970747" x2="379.96767040970747" y1="0" y2="30"/><line opacity="0.2" x1="358.557977628532" x2="358.557977628532" y1="0" y2="30"/><line opacity="0.2" x1="341.03816247745726" x2="341.03816247745726" y1="0" y2="30"/><line opacity="0.2" x1="520.1272825918913" x2="520.1272825918913" y1="0" y2="30"/><line opacity="0.2" x1="246.99351555951418" x2="246.99351555951418" y1="0" y2="30"/><line opacity="0.2" x1="374.41315200864057" x2="374.41315200864057" y1="0" y2="30"/><line opacity="0.2" x1="334.1314805088392" x2="334.1314805088392" y1="0" y2="30"/><line opacity="0.2" x1="275.5520433578254" x2="275.5520433578254" y1="0" y2="30"/><line opacity="0.2" x1="326.6748903683416" x2="326.6748903683416" y1="0" y2="30"/><line opacity="0.2" x1="251.76369207133345" x2="251.76369207133345" y1="0" y2="30"/><line opacity="0.2" x1="271.1310494321941" x2="271.1310494321941" y1="0" y2="30"/><line opacity="0.2" x1="335.3593607399455" x2="335.3593607399455" y1="0" y2="30"/><line opacity="0.2" x1="318.37491617090114" x2="318.37491617090114" y1="0" y2="30"/><line opacity="0.2" x1="289.29076792564774" x2="289.29076792564774" y1="0" y2="30"/><line opacity="0.2" x1="201.95513263042005" x2="201.95513263042005" y1="0" y2="30"/><line opacity="0.2" x1="300.79728543143784" x2="300.79728543143784" y1="0" y2="30"/><line opacity="0.2" x1="349.72316793135786" x2="349.72316793135786" y1="0" y2="30"/><line opacity="0.2" x1="399.0748821664569" x2="399.0748821664569" y1="0" y2="30"/><line opacity="0.2" x1="398.0127399086225" x2="398.0127399086225" y1="0" y2="30"/><line opacity="0.2" x1="428.3236006112884" x2="428.3236006112884" y1="0" y2="30"/><line opacity="0.2" x1="482.94284451620746" x2="482.94284451620746" y1="0" y2="30"/><line opacity="0.2" x1="337.61529348031456" x2="337.61529348031456" y1="0" y2="30"/><line opacity="0.2" x1="355.56810319773695" x2="355.56810319773695" y1="0" y2="30"/><line opacity="0.2" x1="300.2320226858659" x2="300.2320226858659" y1="0" y2="30"/><line opacity="0.2" x1="373.28154999335175" x2="373.28154999335175" y1="0" y2="30"/><line opacity="0.2" x1="224.4120353362036" x2="224.4120353362036" y1="0" y2="30"/><line opacity="0.2" x1="263.1223567857729" x2="263.1223567857729" y1="0" y2="30"/><line opacity="0.2" x1="277.6152925926195" x2="277.6152925926195" y1="0" y2="30"/><line opacity="0.2" x1="329.2788504227663" x2="329.2788504227663" y1="0" y2="30"/><line opacity="0.2" x1="359.71788922568527" x2="359.71788922568527" y1="0" y2="30"/><line opacity="0.2" x1="311.2213138520554" x2="311.2213138520554" y1="0" y2="30"/><line opacity="0.2" x1="380.08619181951167" x2="380.08619181951167" y1="0" y2="30"/><line opacity="0.2" x1="320.4226453275703" x2="320.4226453275703" y1="0" y2="30"/><line opacity="0.2" x1="351.68706947046746" x2="351.68706947046746" y1="0" y2="30"/><line opacity="0.2" x1="294.11713244695" x2="294.11713244695" y1="0" y2="30"/><line opacity="0.2" x1="436.00319759187255" x2="436.00319759187255" y1="0" y2="30"/><line opacity="0.2" x1="398.36659159558917" x2="398.36659159558917" y1="0" y2="30"/><line opacity="0.2" x1="305.1220432298077" x2="305.1220432298077" y1="0" y2="30"/><line opacity="0.2" x1="416.91863461217116" x2="416.91863461217116" y1="0" y2="30"/><line opacity="0.2" x1="385.39495269396343" x2="385.39495269396343" y1="0" y2="30"/><line opacity="0.2" x1="392.19902585447204" x2="392.19902585447204" y1="0" y2="30"/><line opacity="0.2" x1="321.2505540552057" x2="321.2505540552057" y1="0" y2="30"/><line opacity="0.2" x1="420.5287420991349" x2="420.5287420991349" y1="0" y2="30"/><line opacity="0.2" x1="417.4962175648899" x2="417.4962175648899" y1="0" y2="30"/><line opacity="0.2" x1="410.4088525503989" x2="410.4088525503989" y1="0" y2="30"/><line opacity="0.2" x1="393.7208861075458" x2="393.7208861075458" y1="0" y2="30"/><line opacity="0.2" x1="369.66333153614704" x2="369.66333153614704" y1="0" y2="30"/><line opacity="0.2" x1="311.28006705417897" x2="311.28006705417897" y1="0" y2="30"/><line opacity="0.2" x1="383.7227192018419" x2="383.7227192018419" y1="0" y2="30"/><line opacity="0.2" x1="558.7907640703968" x2="558.7907640703968" y1="0" y2="30"/><line opacity="0.2" x1="272.67582438090005" x2="272.67582438090005" y1="0" y2="30"/><line opacity="0.2" x1="347.52359885155823" x2="347.52359885155823" y1="0" y2="30"/><line opacity="0.2" x1="242.67350083483" x2="242.67350083483" y1="0" y2="30"/><line opacity="0.2" x1="318.46010129954715" x2="318.46010129954715" y1="0" y2="30"/><line opacity="0.2" x1="222.79111235429684" x2="222.79111235429684" y1="0" y2="30"/><line opacity="0.2" x1="236.7009930753721" x2="236.7009930753721" y1="0" y2="30"/><line opacity="0.2" x1="167.74133561921448" x2="167.74133561921448" y1="0" y2="30"/><line opacity="0.2" x1="443.8599516509943" x2="443.8599516509943" y1="0" y2="30"/><line opacity="0.2" x1="459.0991617812374" x2="459.0991617812374" y1="0" y2="30"/><line opacity="0.2" x1="218.4245516761441" x2="218.4245516761441" y1="0" y2="30"/><line opacity="0.2" x1="387.4074150168479" x2="387.4074150168479" y1="0" y2="30"/><line opacity="0.2" x1="332.07485383247223" x2="332.07485383247223" y1="0" y2="30"/><line opacity="0.2" x1="307.80328655969595" x2="307.80328655969595" y1="0" y2="30"/><line opacity="0.2" x1="263.42626363437984" x2="263.42626363437984" y1="0" y2="30"/><line opacity="0.2" x1="376.3697479260135" x2="376.3697479260135" y1="0" y2="30"/><line opacity="0.2" x1="232.5085607730782" x2="232.5085607730782" y1="0" y2="30"/><line opacity="0.2" x1="241.23905162782697" x2="241.23905162782697" y1="0" y2="30"/><line opacity="0.2" x1="314.2503958344845" x2="314.2503958344845" y1="0" y2="30"/><line opacity="0.2" x1="508.02402446243974" x2="508.02402446243974" y1="0" y2="30"/><line opacity="0.2" x1="215.49374364368256" x2="215.49374364368256" y1="0" y2="30"/><line opacity="0.2" x1="319.94448282489776" x2="319.94448282489776" y1="0" y2="30"/><line opacity="0.2" x1="335.6639690536634" x2="335.6639690536634" y1="0" y2="30"/><line opacity="0.2" x1="276.1471850291079" x2="276.1471850291079" y1="0" y2="30"/><line opacity="0.2" x1="292.1803642876343" x2="292.1803642876343" y1="0" y2="30"/><line opacity="0.2" x1="296.0032739328219" x2="296.0032739328219" y1="0" y2="30"/><line opacity="0.2" x1="324.1148834982965" x2="324.1148834982965" y1="0" y2="30"/><line opacity="0.2" x1="230.61215744692785" x2="230.61215744692785" y1="0" y2="30"/><line opacity="0.2" x1="407.15350780754324" x2="407.15350780754324" y1="0" y2="30"/><line opacity="0.2" x1="378.75164720079067" x2="378.75164720079067" y1="0" y2="30"/><line opacity="0.2" x1="327.57645037146773" x2="327.57645037146773" y1="0" y2="30"/><line opacity="0.2" x1="454.7568454727992" x2="454.7568454727992" y1="0" y2="30"/><line opacity="0.2" x1="272.7539578774883" x2="272.7539578774883" y1="0" y2="30"/><line opacity="0.2" x1="348.17809680507287" x2="348.17809680507287" y1="0" y2="30"/><line opacity="0.2" x1="386.5329704299567" x2="386.5329704299567" y1="0" y2="30"/><line opacity="0.2" x1="285.4801237298358" x2="285.4801237298358" y1="0" y2="30"/><line opacity="0.2" x1="287.2896046331452" x2="287.2896046331452" y1="0" y2="30"/><line opacity="0.2" x1="393.49727976525196" x2="393.49727976525196" y1="0" y2="30"/><line opacity="0.2" x1="285.9740724305745" x2="285.9740724305745" y1="0" y2="30"/><line opacity="0.2" x1="130.29971499047988" x2="130.29971499047988" y1="0" y2="30"/><line opacity="0.2" x1="291.23675112557385" x2="291.23675112557385" y1="0" y2="30"/><line opacity="0.2" x1="389.0065174450941" x2="389.0065174450941" y1="0" y2="30"/><line opacity="0.2" x1="426.0365774079564" x2="426.0365774079564" y1="0" y2="30"/><line opacity="0.2" x1="421.1265795813188" x2="421.1265795813188" y1="0" y2="30"/><line opacity="0.2" x1="336.9113291884781" x2="336.9113291884781" y1="0" y2="30"/><line opacity="0.2" x1="233.54032382280383" x2="233.54032382280383" y1="0" y2="30"/><line opacity="0.2" x1="347.8217706627047" x2="347.8217706627047" y1="0" y2="30"/><line opacity="0.2" x1="407.05652882394116" x2="407.05652882394116" y1="0" y2="30"/><line opacity="0.2" x1="397.3734466108381" x2="397.3734466108381" y1="0" y2="30"/><line opacity="0.2" x1="449.9018500626381" x2="449.9018500626381" y1="0" y2="30"/><line opacity="0.2" x1="295.0391822239486" x2="295.0391822239486" y1="0" y2="30"/><line opacity="0.2" x1="248.144970078386" x2="248.144970078386" y1="0" y2="30"/><line opacity="0.2" x1="179.49902289021463" x2="179.49902289021463" y1="0" y2="30"/><line opacity="0.2" x1="288.06866494624944" x2="288.06866494624944" y1="0" y2="30"/><line opacity="0.2" x1="316.2510442578574" x2="316.2510442578574" y1="0" y2="30"/><line opacity="0.2" x1="346.6426679588088" x2="346.6426679588088" y1="0" y2="30"/><line opacity="0.2" x1="362.08734999601415" x2="362.08734999601415" y1="0" y2="30"/><line opacity="0.2" x1="333.6254625280587" x2="333.6254625280587" y1="0" y2="30"/><line opacity="0.2" x1="182.4022650103612" x2="182.4022650103612" y1="0" y2="30"/><line opacity="0.2" x1="209.2429124303867" x2="209.2429124303867" y1="0" y2="30"/><line opacity="0.2" x1="382.51326451686595" x2="382.51326451686595" y1="0" y2="30"/><line opacity="0.2" x1="340.5563898783674" x2="340.5563898783674" y1="0" y2="30"/><line opacity="0.2" x1="480.33256715839985" x2="480.33256715839985" y1="0" y2="30"/><line opacity="0.2" x1="258.4825531509624" x2="258.4825531509624" y1="0" y2="30"/><line opacity="0.2" x1="333.06040356165875" x2="333.06040356165875" y1="0" y2="30"/><line opacity="0.2" x1="341.9486041098448" x2="341.9486041098448" y1="0" y2="30"/><line opacity="0.2" x1="449.1711579269888" x2="449.1711579269888" y1="0" y2="30"/><line opacity="0.2" x1="400.99335728519253" x2="400.99335728519253" y1="0" y2="30"/><line opacity="0.2" x1="337.47079313493344" x2="337.47079313493344" y1="0" y2="30"/><line opacity="0.2" x1="331.0764082203532" x2="331.0764082203532" y1="0" y2="30"/><line opacity="0.2" x1="379.77770565495325" x2="379.77770565495325" y1="0" y2="30"/><line opacity="0.2" x1="312.2325255579739" x2="312.2325255579739" y1="0" y2="30"/><line opacity="0.2" x1="362.48057362674376" x2="362.48057362674376" y1="0" y2="30"/><line opacity="0.2" x1="360.408083196907" x2="360.408083196907" y1="0" y2="30"/><line opacity="0.2" x1="268.14983229614444" x2="268.14983229614444" y1="0" y2="30"/><line opacity="0.2" x1="371.95867659685564" x2="371.95867659685564" y1="0" y2="30"/><line opacity="0.2" x1="477.2854151701791" x2="477.2854151701791" y1="0" y2="30"/><line opacity="0.2" x1="341.4692553223134" x2="341.4692553223134" y1="0" y2="30"/><line opacity="0.2" x1="367.6871664069128" x2="367.6871664069128" y1="0" y2="30"/><line opacity="0.2" x1="192.5639720403674" x2="192.5639720403674" y1="0" y2="30"/><line opacity="0.2" x1="401.4778716621329" x2="401.4778716621329" y1="0" y2="30"/><line opacity="0.2" x1="348.97833668115015" x2="348.97833668115015" y1="0" y2="30"/><line opacity="0.2" x1="324.8200336978671" x2="324.8200336978671" y1="0" y2="30"/><line opacity="0.2" x1="369.1811975463959" x2="369.1811975463959" y1="0" y2="30"/><line opacity="0.2" x1="353.18414709227045" x2="353.18414709227045" y1="0" y2="30"/><line opacity="0.2" x1="421.72692135991383" x2="421.72692135991383" y1="0" y2="30"/><line opacity="0.2" x1="308.5412020067898" x2="308.5412020067898" y1="0" y2="30"/><line opacity="0.2" x1="266.96832316350833" x2="266.96832316350833" y1="0" y2="30"/><line opacity="0.2" x1="421.50931300133874" x2="421.50931300133874" y1="0" y2="30"/><line opacity="0.2" x1="345.8270071758529" x2="345.8270071758529" y1="0" y2="30"/><line opacity="0.2" x1="277.7709040749726" x2="277.7709040749726" y1="0" y2="30"/><line opacity="0.2" x1="337.5798176655555" x2="337.5798176655555" y1="0" y2="30"/><line opacity="0.2" x1="264.6461171231739" x2="264.6461171231739" y1="0" y2="30"/><line opacity="0.2" x1="383.3233863861844" x2="383.3233863861844" y1="0" y2="30"/><line opacity="0.2" x1="376.1803969838684" x2="376.1803969838684" y1="0" y2="30"/><line opacity="0.2" x1="444.1563961893664" x2="444.1563961893664" y1="0" y2="30"/><line opacity="0.2" x1="349.0079349361857" x2="349.0079349361857" y1="0" y2="30"/><line opacity="0.2" x1="219.59255597906363" x2="219.59255597906363" y1="0" y2="30"/><line opacity="0.2" x1="365.76305283226765" x2="365.76305283226765" y1="0" y2="30"/><line opacity="0.2" x1="352.2897005672423" x2="352.2897005672423" y1="0" y2="30"/><line opacity="0.2" x1="331.21321868260685" x2="331.21321868260685" y1="0" y2="30"/><line opacity="0.2" x1="132.4728632607493" x2="132.4728632607493" y1="0" y2="30"/><line opacity="0.2" x1="322.3121339922654" x2="322.3121339922654" y1="0" y2="30"/><line opacity="0.2" x1="359.27004850491534" x2="359.27004850491534" y1="0" y2="30"/><line opacity="0.2" x1="276.70558976325185" x2="276.70558976325185" y1="0" y2="30"/><line opacity="0.2" x1="297.99059970213216" x2="297.99059970213216" y1="0" y2="30"/><line opacity="0.2" x1="228.04550432440772" x2="228.04550432440772" y1="0" y2="30"/><line opacity="0.2" x1="448.6931470467819" x2="448.6931470467819" y1="0" y2="30"/><line opacity="0.2" x1="473.33913220551915" x2="473.33913220551915" y1="0" y2="30"/><line opacity="0.2" x1="510.09771746366755" x2="510.09771746366755" y1="0" y2="30"/><line opacity="0.2" x1="380.6610660753063" x2="380.6610660753063" y1="0" y2="30"/><line opacity="0.2" x1="369.39529626426145" x2="369.39529626426145" y1="0" y2="30"/><line opacity="0.2" x1="217.8388113700454" x2="217.8388113700454" y1="0" y2="30"/><line opacity="0.2" x1="363.30010995875074" x2="363.30010995875074" y1="0" y2="30"/><line opacity="0.2" x1="255.5214985905797" x2="255.5214985905797" y1="0" y2="30"/><line opacity="0.2" x1="483.546842668032" x2="483.546842668032" y1="0" y2="30"/><line opacity="0.2" x1="295.6340780033176" x2="295.6340780033176" y1="0" y2="30"/><line opacity="0.2" x1="347.7590429828327" x2="347.7590429828327" y1="0" y2="30"/><line opacity="0.2" x1="497.5334070613451" x2="497.5334070613451" y1="0" y2="30"/><line opacity="0.2" x1="260.69758924691735" x2="260.69758924691735" y1="0" y2="30"/><line opacity="0.2" x1="338.96329667893536" x2="338.96329667893536" y1="0" y2="30"/><line opacity="0.2" x1="620" x2="620" y1="0" y2="30"/><line opacity="0.2" x1="350.6675903657209" x2="350.6675903657209" y1="0" y2="30"/><line opacity="0.2" x1="337.7577599480334" x2="337.7577599480334" y1="0" y2="30"/><line opacity="0.2" x1="466.55987446874246" x2="466.55987446874246" y1="0" y2="30"/><line opacity="0.2" x1="362.07705343733704" x2="362.07705343733704" y1="0" y2="30"/><line opacity="0.2" x1="426.89745776961695" x2="426.89745776961695" y1="0" y2="30"/><line opacity="0.2" x1="432.0678863702351" x2="432.0678863702351" y1="0" y2="30"/><line opacity="0.2" x1="497.3552601535482" x2="497.3552601535482" y1="0" y2="30"/><line opacity="0.2" x1="206.05512077103975" x2="206.05512077103975" y1="0" y2="30"/><line opacity="0.2" x1="288.7390024734697" x2="288.7390024734697" y1="0" y2="30"/><line opacity="0.2" x1="184.29782823166647" x2="184.29782823166647" y1="0" y2="30"/><line opacity="0.2" x1="358.0935287162415" x2="358.0935287162415" y1="0" y2="30"/><line opacity="0.2" x1="406.6428601875251" x2="406.6428601875251" y1="0" y2="30"/><line opacity="0.2" x1="317.9582647749247" x2="317.9582647749247" y1="0" y2="30"/><line opacity="0.2" x1="498.15853787324465" x2="498.15853787324465" y1="0" y2="30"/><line opacity="0.2" x1="222.64614159840033" x2="222.64614159840033" y1="0" y2="30"/><line opacity="0.2" x1="253.66323484140852" x2="253.66323484140852" y1="0" y2="30"/><line opacity="0.2" x1="430.10288558718275" x2="430.10288558718275" y1="0" y2="30"/><line opacity="0.2" x1="361.0757601208058" x2="361.0757601208058" y1="0" y2="30"/><line opacity="0.2" x1="288.9396995142086" x2="288.9396995142086" y1="0" y2="30"/><line opacity="0.2" x1="274.9962331407331" x2="274.9962331407331" y1="0" y2="30"/><line opacity="0.2" x1="298.09828756733066" x2="298.09828756733066" y1="0" y2="30"/><line opacity="0.2" x1="430.84458147158335" x2="430.84458147158335" y1="0" y2="30"/><line opacity="0.2" x1="312.41027109798017" x2="312.41027109798017" y1="0" y2="30"/><line opacity="0.2" x1="324.09199264982414" x2="324.09199264982414" y1="0" y2="30"/><line opacity="0.2" x1="388.0582817748051" x2="388.0582817748051" y1="0" y2="30"/><line opacity="0.2" x1="397.1534437424689" x2="397.1534437424689" y1="0" y2="30"/><line opacity="0.2" x1="250.03473248266545" x2="250.03473248266545" y1="0" y2="30"/><line opacity="0.2" x1="264.32480856704836" x2="264.32480856704836" y1="0" y2="30"/><line opacity="0.2" x1="411.55986656861415" x2="411.55986656861415" y1="0" y2="30"/><line opacity="0.2" x1="331.6937785389302" x2="331.6937785389302" y1="0" y2="30"/><line opacity="0.2" x1="531.2022247174806" x2="531.2022247174806" y1="0" y2="30"/><line opacity="0.2" x1="487.55344130191367" x2="487.55344130191367" y1="0" y2="30"/><line opacity="0.2" x1="265.1641165413362" x2="265.1641165413362" y1="0" y2="30"/><line opacity="0.2" x1="300.4825616326879" x2="300.4825616326879" y1="0" y2="30"/><line opacity="0.2" x1="392.2500499838752" x2="392.2500499838752" y1="0" y2="30"/><line opacity="0.2" x1="434.5678097971552" x2="434.5678097971552" y1="0" y2="30"/><line opacity="0.2" x1="257.85569930266587" x2="257.85569930266587" y1="0" y2="30"/><line opacity="0.2" x1="345.9426867210287" x2="345.9426867210287" y1="0" y2="30"/><line opacity="0.2" x1="341.3035303601591" x2="341.3035303601591" y1="0" y2="30"/><line opacity="0.2" x1="499.220295059656" x2="499.220295059656" y1="0" y2="30"/><line opacity="0.2" x1="324.10445264724456" x2="324.10445264724456" y1="0" y2="30"/><line opacity="0.2" x1="411.2778890512169" x2="411.2778890512169" y1="0" y2="30"/><line opacity="0.2" x1="266.842021209284" x2="266.842021209284" y1="0" y2="30"/><line opacity="0.2" x1="475.2426515263404" x2="475.2426515263404" y1="0" y2="30"/><line opacity="0.2" x1="380.3010328676251" x2="380.3010328676251" y1="0" y2="30"/><line opacity="0.2" x1="540.0746865274764" x2="540.0746865274764" y1="0" y2="30"/><line opacity="0.2" x1="358.64233474406205" x2="358.64233474406205" y1="0" y2="30"/><line opacity="0.2" x1="476.81751021123273" x2="476.81751021123273" y1="0" y2="30"/><line opacity="0.2" x1="373.92992927280767" x2="373.92992927280767" y1="0" y2="30"/><line opacity="0.2" x1="280.8100110670955" x2="280.8100110670955" y1="0" y2="30"/><line opacity="0.2" x1="497.1329444038192" x2="497.1329444038192" y1="0" y2="30"/><line opacity="0.2" x1="553.7969709967191" x2="553.7969709967191" y1="0" y2="30"/><line opacity="0.2" x1="308.02827633231027" x2="308.02827633231027" y1="0" y2="30"/><line opacity="0.2" x1="306.7916860032253" x2="306.7916860032253" y1="0" y2="30"/><line opacity="0.2" x1="192.050659124449" x2="192.050659124449" y1="0" y2="30"/><line opacity="0.2" x1="236.44145872827616" x2="236.44145872827616" y1="0" y2="30"/><line opacity="0.2" x1="193.29482358514767" x2="193.29482358514767" y1="0" y2="30"/><line opacity="0.2" x1="303.7991714913628" x2="303.7991714913628" y1="0" y2="30"/><line opacity="0.2" x1="339.05630791397584" x2="339.05630791397584" y1="0" y2="30"/><line opacity="0.2" x1="376.21526032253706" x2="376.21526032253706" y1="0" y2="30"/><line opacity="0.2" x1="294.5829688263845" x2="294.5829688263845" y1="0" y2="30"/><line opacity="0.2" x1="342.84174819910595" x2="342.84174819910595" y1="0" y2="30"/><line opacity="0.2" x1="343.1759471572656" x2="343.1759471572656" y1="0" y2="30"/><line opacity="0.2" x1="214.73694262419986" x2="214.73694262419986" y1="0" y2="30"/><line opacity="0.2" x1="350.4286729802338" x2="350.4286729802338" y1="0" y2="30"/><line opacity="0.2" x1="277.9936648338157" x2="277.9936648338157" y1="0" y2="30"/><line opacity="0.2" x1="420.90353128759335" x2="420.90353128759335" y1="0" y2="30"/><line opacity="0.2" x1="456.40727193705095" x2="456.40727193705095" y1="0" y2="30"/><line opacity="0.2" x1="405.8581431008747" x2="405.8581431008747" y1="0" y2="30"/><line opacity="0.2" x1="269.9153454209036" x2="269.9153454209036" y1="0" y2="30"/><line opacity="0.2" x1="370.97185595285987" x2="370.97185595285987" y1="0" y2="30"/><line opacity="0.2" x1="343.47637168404117" x2="343.47637168404117" y1="0" y2="30"/><line opacity="0.2" x1="346.0980669802465" x2="346.0980669802465" y1="0" y2="30"/><line opacity="0.2" x1="278.45571694538285" x2="278.45571694538285" y1="0" y2="30"/><line opacity="0.2" x1="263.9255892918287" x2="263.9255892918287" y1="0" y2="30"/><line opacity="0.2" x1="498.88046879812885" x2="498.88046879812885" y1="0" y2="30"/><line opacity="0.2" x1="234.82968155607284" x2="234.82968155607284" y1="0" y2="30"/><line opacity="0.2" x1="448.7625316853097" x2="448.7625316853097" y1="0" y2="30"/><line opacity="0.2" x1="296.14156519978246" x2="296.14156519978246" y1="0" y2="30"/><line opacity="0.2" x1="384.3558000838126" x2="384.3558000838126" y1="0" y2="30"/><line opacity="0.2" x1="259.04962325208237" x2="259.04962325208237" y1="0" y2="30"/><line opacity="0.2" x1="299.0403873333657" x2="299.0403873333657" y1="0" y2="30"/><line opacity="0.2" x1="236.83417968332657" x2="236.83417968332657" y1="0" y2="30"/><line opacity="0.2" x1="488.91784670265764" x2="488.91784670265764" y1="0" y2="30"/><line opacity="0.2" x1="260.807213715292" x2="260.807213715292" y1="0" y2="30"/><line opacity="0.2" x1="442.5189160363321" x2="442.5189160363321" y1="0" y2="30"/><line opacity="0.2" x1="292.61552574544913" x2="292.61552574544913" y1="0" y2="30"/><line opacity="0.2" x1="289.6128008498835" x2="289.6128008498835" y1="0" y2="30"/><line opacity="0.2" x1="496.4850019749839" x2="496.4850019749839" y1="0" y2="30"/><line opacity="0.2" x1="340.58968108409897" x2="340.58968108409897" y1="0" y2="30"/><line opacity="0.2" x1="404.10517581713316" x2="404.10517581713316" y1="0" y2="30"/><line opacity="0.2" x1="203.2937199951903" x2="203.2937199951903" y1="0" y2="30"/><line opacity="0.2" x1="352.4377053622796" x2="352.4377053622796" y1="0" y2="30"/><line opacity="0.2" x1="217.58711446981636" x2="217.58711446981636" y1="0" y2="30"/><line opacity="0.2" x1="393.4394437226896" x2="393.4394437226896" y1="0" y2="30"/><line opacity="0.2" x1="381.48805131622277" x2="381.48805131622277" y1="0" y2="30"/><line opacity="0.2" x1="457.85566720004977" x2="457.85566720004977" y1="0" y2="30"/><line opacity="0.2" x1="289.8697441082542" x2="289.8697441082542" y1="0" y2="30"/><line opacity="0.2" x1="320.10629147519415" x2="320.10629147519415" y1="0" y2="30"/><line opacity="0.2" x1="374.27701008923793" x2="374.27701008923793" y1="0" y2="30"/><line opacity="0.2" x1="224.6280338373479" x2="224.6280338373479" y1="0" y2="30"/><line opacity="0.2" x1="286.73685771783516" x2="286.73685771783516" y1="0" y2="30"/><line opacity="0.2" x1="158.73964235089716" x2="158.73964235089716" y1="0" y2="30"/><line opacity="0.2" x1="463.01296681578754" x2="463.01296681578754" y1="0" y2="30"/><line opacity="0.2" x1="345.00558217155134" x2="345.00558217155134" y1="0" y2="30"/><line opacity="0.2" x1="392.6218357558481" x2="392.6218357558481" y1="0" y2="30"/><line opacity="0.2" x1="294.42174072489615" x2="294.42174072489615" y1="0" y2="30"/><line opacity="0.2" x1="371.79261430723756" x2="371.79261430723756" y1="0" y2="30"/><line opacity="0.2" x1="255.34012723729992" x2="255.34012723729992" y1="0" y2="30"/><line opacity="0.2" x1="137.65349866434855" x2="137.65349866434855" y1="0" y2="30"/><line opacity="0.2" x1="292.1424649633759" x2="292.1424649633759" y1="0" y2="30"/><line opacity="0.2" x1="388.7333572724843" x2="388.7333572724843" y1="0" y2="30"/><line opacity="0.2" x1="348.62680665474153" x2="348.62680665474153" y1="0" y2="30"/><line opacity="0.2" x1="242.44416217922267" x2="242.44416217922267" y1="0" y2="30"/><line opacity="0.2" x1="367.3103862125273" x2="367.3103862125273" y1="0" y2="30"/><line opacity="0.2" x1="222.69806740344404" x2="222.69806740344404" y1="0" y2="30"/><line opacity="0.2" x1="367.3026971185883" x2="367.3026971185883" y1="0" y2="30"/><line opacity="0.2" x1="425.31335400620543" x2="425.31335400620543" y1="0" y2="30"/><line opacity="0.2" x1="327.6060849716766" x2="327.6060849716766" y1="0" y2="30"/><line opacity="0.2" x1="261.32466154593675" x2="261.32466154593675" y1="0" y2="30"/><line opacity="0.2" x1="312.1797321339703" x2="312.1797321339703" y1="0" y2="30"/><line opacity="0.2" x1="262.0755675279133" x2="262.0755675279133" y1="0" y2="30"/><line opacity="0.2" x1="290.18245971618256" x2="290.18245971618256" y1="0" y2="30"/><line opacity="0.2" x1="338.8948402111806" x2="338.8948402111806" y1="0" y2="30"/><line opacity="0.2" x1="494.94365817751617" x2="494.94365817751617" y1="0" y2="30"/><line opacity="0.2" x1="185.54648854742513" x2="185.54648854742513" y1="0" y2="30"/><line opacity="0.2" x1="89.66352876816687" x2="89.66352876816687" y1="0" y2="30"/><line opacity="0.2" x1="284.1865588878961" x2="284.1865588878961" y1="0" y2="30"/><line opacity="0.2" x1="398.62804430584043" x2="398.62804430584043" y1="0" y2="30"/><line opacity="0.2" x1="273.9009894608745" x2="273.9009894608745" y1="0" y2="30"/><line opacity="0.2" x1="260.2252350021944" x2="260.2252350021944" y1="0" y2="30"/><line opacity="0.2" x1="259.5853671295918" x2="259.5853671295918" y1="0" y2="30"/><line opacity="0.2" x1="129.27873329462022" x2="129.27873329462022" y1="0" y2="30"/><line opacity="0.2" x1="475.96138122529123" x2="475.96138122529123" y1="0" y2="30"/><line opacity="0.2" x1="416.8432490752059" x2="416.8432490752059" y1="0" y2="30"/><line opacity="0.2" x1="328.1755661660128" x2="328.1755661660128" y1="0" y2="30"/><line opacity="0.2" x1="353.84239279923753" x2="353.84239279923753" y1="0" y2="30"/><line opacity="0.2" x1="297.69255575669354" x2="297.69255575669354" y1="0" y2="30"/><line opacity="0.2" x1="228.26642130226548" x2="228.26642130226548" y1="0" y2="30"/><line opacity="0.2" x1="20" x2="20" y1="0" y2="30"/><line opacity="0.2" x1="341.4561701767119" x2="341.4561701767119" y1="0" y2="30"/><line opacity="0.2" x1="263.6480583024998" x2="263.6480583024998" y1="0" y2="30"/><line opacity="0.2" x1="285.7978522697656" x2="285.7978522697656" y1="0" y2="30"/><line opacity="0.2" x1="159.055797292448" x2="159.055797292448" y1="0" y2="30"/><line opacity="0.2" x1="414.0994263682948" x2="414.0994263682948" y1="0" y2="30"/><line opacity="0.2" x1="405.74025463878894" x2="405.74025463878894" y1="0" y2="30"/><line opacity="0.2" x1="294.60633165697084" x2="294.60633165697084" y1="0" y2="30"/><line opacity="0.2" x1="328.20567155141606" x2="328.20567155141606" y1="0" y2="30"/><line opacity="0.2" x1="400.28212668731663" x2="400.28212668731663" y1="0" y2="30"/><line opacity="0.2" x1="346.2631196639031" x2="346.2631196639031" y1="0" y2="30"/><line opacity="0.2" x1="378.0965968849296" x2="378.0965968849296" y1="0" y2="30"/><line opacity="0.2" x1="262.9061089939921" x2="262.9061089939921" y1="0" y2="30"/><line opacity="0.2" x1="374.6210865640463" x2="374.6210865640463" y1="0" y2="30"/><line opacity="0.2" x1="398.7437496028615" x2="398.7437496028615" y1="0" y2="30"/><line opacity="0.2" x1="404.25338495687333" x2="404.25338495687333" y1="0" y2="30"/><line opacity="0.2" x1="289.9353955567226" x2="289.9353955567226" y1="0" y2="30"/><line opacity="0.2" x1="418.25175999751946" x2="418.25175999751946" y1="0" y2="30"/><line opacity="0.2" x1="302.82441449377677" x2="302.82441449377677" y1="0" y2="30"/><line opacity="0.2" x1="442.57208918261273" x2="442.57208918261273" y1="0" y2="30"/><line opacity="0.2" x1="346.1786850508938" x2="346.1786850508938" y1="0" y2="30"/><line opacity="0.2" x1="333.36274752209056" x2="333.36274752209056" y1="0" y2="30"/><line opacity="0.2" x1="328.2533023581703" x2="328.2533023581703" y1="0" y2="30"/><line opacity="0.2" x1="300.99535884957345" x2="300.99535884957345" y1="0" y2="30"/><line opacity="0.2" x1="398.2355331696324" x2="398.2355331696324" y1="0" y2="30"/><line opacity="0.2" x1="239.4488096339839" x2="239.4488096339839" y1="0" y2="30"/><line opacity="0.2" x1="443.4471904684449" x2="443.4471904684449" y1="0" y2="30"/><line opacity="0.2" x1="358.3111798442163" x2="358.3111798442163" y1="0" y2="30"/><line opacity="0.2" x1="418.2082199266214" x2="418.2082199266214" y1="0" y2="30"/><line opacity="0.2" x1="331.5743559465376" x2="331.5743559465376" y1="0" y2="30"/><line opacity="0.2" x1="493.81330784867066" x2="493.81330784867066" y1="0" y2="30"/><line opacity="0.2" x1="441.2784991103442" x2="441.2784991103442" y1="0" y2="30"/><line opacity="0.2" x1="323.2260067543774" x2="323.2260067543774" y1="0" y2="30"/><line opacity="0.2" x1="322.59633665676296" x2="322.59633665676296" y1="0" y2="30"/><line opacity="0.2" x1="222.04197424058822" x2="222.04197424058822" y1="0" y2="30"/><line opacity="0.2" x1="387.6191006814651" x2="387.6191006814651" y1="0" y2="30"/><line opacity="0.2" x1="316.57735201293895" x2="316.57735201293895" y1="0" y2="30"/><line opacity="0.2" x1="342.6922545747798" x2="342.6922545747798" y1="0" y2="30"/><line opacity="0.2" x1="477.876937647193" x2="477.876937647193" y1="0" y2="30"/><line opacity="0.2" x1="312.39904605453637" x2="312.39904605453637" y1="0" y2="30"/><line opacity="0.2" x1="332.1390817915678" x2="332.1390817915678" y1="0" y2="30"/><line opacity="0.2" x1="365.13187301118813" x2="365.13187301118813" y1="0" y2="30"/><line opacity="0.2" x1="425.16551472354433" x2="425.16551472354433" y1="0" y2="30"/><line opacity="0.2" x1="316.6512954821187" x2="316.6512954821187" y1="0" y2="30"/><line opacity="0.2" x1="328.6570437637147" x2="328.6570437637147" y1="0" y2="30"/><line opacity="0.2" x1="394.89271117777133" x2="394.89271117777133" y1="0" y2="30"/><line opacity="0.2" x1="269.8945890556726" x2="269.8945890556726" y1="0" y2="30"/><line opacity="0.2" x1="250.3976531841166" x2="250.3976531841166" y1="0" y2="30"/><line opacity="0.2" x1="488.34860269061954" x2="488.34860269061954" y1="0" y2="30"/><line opacity="0.2" x1="308.0130184747934" x2="308.0130184747934" y1="0" y2="30"/><line opacity="0.2" x1="382.39406580015435" x2="382.39406580015435" y1="0" y2="30"/><line opacity="0.2" x1="263.19534169896764" x2="263.19534169896764" y1="0" y2="30"/><line opacity="0.2" x1="367.7836187298942" x2="367.7836187298942" y1="0" y2="30"/><line opacity="0.2" x1="453.226428975023" x2="453.226428975023" y1="0" y2="30"/><line opacity="0.2" x1="349.10087594052675" x2="349.10087594052675" y1="0" y2="30"/><line opacity="0.2" x1="454.72886883062245" x2="454.72886883062245" y1="0" y2="30"/><line opacity="0.2" x1="277.0195134333391" x2="277.0195134333391" y1="0" y2="30"/><line opacity="0.2" x1="414.0356967088829" x2="414.0356967088829" y1="0" y2="30"/><line opacity="0.2" x1="344.7563013091031" x2="344.7563013091031" y1="0" y2="30"/><line opacity="0.2" x1="366.21165224325193" x2="366.21165224325193" y1="0" y2="30"/><line opacity="0.2" x1="234.38889293892947" x2="234.38889293892947" y1="0" y2="30"/><line opacity="0.2" x1="443.4475784688664" x2="443.4475784688664" y1="0" y2="30"/><line opacity="0.2" x1="315.259323618012" x2="315.259323618012" y1="0" y2="30"/><line opacity="0.2" x1="351.19012416757994" x2="351.19012416757994" y1="0" y2="30"/><line opacity="0.2" x1="296.43851314543963" x2="296.43851314543963" y1="0" y2="30"/><line opacity="0.2" x1="329.2326767969714" x2="329.2326767969714" y1="0" y2="30"/><line opacity="0.2" x1="381.92239148396675" x2="381.92239148396675" y1="0" y2="30"/><line opacity="0.2" x1="348.9660875096041" x2="348.9660875096041" y1="0" y2="30"/><line opacity="0.2" x1="351.2875899219271" x2="351.2875899219271" y1="0" y2="30"/><line opacity="0.2" x1="242.47411757461626" x2="242.47411757461626" y1="0" y2="30"/><line opacity="0.2" x1="273.95547870800857" x2="273.95547870800857" y1="0" y2="30"/><line opacity="0.2" x1="292.4971952114459" x2="292.4971952114459" y1="0" y2="30"/><line opacity="0.2" x1="315.4849420569214" x2="315.4849420569214" y1="0" y2="30"/><line opacity="0.2" x1="285.03783639059446" x2="285.03783639059446" y1="0" y2="30"/><line opacity="0.2" x1="283.0578577869462" x2="283.0578577869462" y1="0" y2="30"/><line opacity="0.2" x1="229.28080868055287" x2="229.28080868055287" y1="0" y2="30"/><line opacity="0.2" x1="328.5851444616344" x2="328.5851444616344" y1="0" y2="30"/><line opacity="0.2" x1="283.7296446109629" x2="283.7296446109629" y1="0" y2="30"/><line opacity="0.2" x1="190.68151065837452" x2="190.68151065837452" y1="0" y2="30"/><line opacity="0.2" x1="477.6563620496703" x2="477.6563620496703" y1="0" y2="30"/><line opacity="0.2" x1="394.2932751323808" x2="394.2932751323808" y1="0" y2="30"/><line opacity="0.2" x1="340.65593888930624" x2="340.65593888930624" y1="0" y2="30"/><line opacity="0.2" x1="261.85623577191893" x2="261.85623577191893" y1="0" y2="30"/><line opacity="0.2" x1="418.92096726164937" x2="418.92096726164937" y1="0" y2="30"/><line opacity="0.2" x1="287.8479279465812" x2="287.8479279465812" y1="0" y2="30"/><line opacity="0.2" x1="223.9761835362248" x2="223.9761835362248" y1="0" y2="30"/><line opacity="0.2" x1="364.0195446349113" x2="364.0195446349113" y1="0" y2="30"/><line opacity="0.2" x1="290.490149509944" x2="290.490149509944" y1="0" y2="30"/><line opacity="0.2" x1="251.10642335873987" x2="251.10642335873987" y1="0" y2="30"/><line opacity="0.2" x1="248.7297682992267" x2="248.7297682992267" y1="0" y2="30"/><line opacity="0.2" x1="462.493907032007" x2="462.493907032007" y1="0" y2="30"/><line opacity="0.2" x1="419.362264558915" x2="419.362264558915" y1="0" y2="30"/><line opacity="0.2" x1="442.7170967491488" x2="442.7170967491488" y1="0" y2="30"/><line opacity="0.2" x1="439.83487455687737" x2="439.83487455687737" y1="0" y2="30"/><line opacity="0.2" x1="341.3892014406321" x2="341.3892014406321" y1="0" y2="30"/><line opacity="0.2" x1="265.8010325333485" x2="265.8010325333485" y1="0" y2="30"/><line opacity="0.2" x1="269.82764573618397" x2="269.82764573618397" y1="0" y2="30"/><line opacity="0.2" x1="369.52106204542315" x2="369.52106204542315" y1="0" y2="30"/><line opacity="0.2" x1="312.71778141077885" x2="312.71778141077885" y1="0" y2="30"/><line opacity="0.2" x1="147.336746074828" x2="147.336746074828" y1="0" y2="30"/><line opacity="0.2" x1="566.2930945926404" x2="566.2930945926404" y1="0" y2="30"/><line opacity="0.2" x1="289.79263178055635" x2="289.79263178055635" y1="0" y2="30"/><line opacity="0.2" x1="424.4859070650348" x2="424.4859070650348" y1="0" y2="30"/><line opacity="0.2" x1="398.4037925537266" x2="398.4037925537266" y1="0" y2="30"/><line opacity="0.2" x1="297.294704947743" x2="297.294704947743" y1="0" y2="30"/><line opacity="0.2" x1="354.89071524091696" x2="354.89071524091696" y1="0" y2="30"/><line opacity="0.2" x1="272.60512920851437" x2="272.60512920851437" y1="0" y2="30"/><line opacity="0.2" x1="360.6786835428282" x2="360.6786835428282" y1="0" y2="30"/><line opacity="0.2" x1="451.7266772698536" x2="451.7266772698536" y1="0" y2="30"/><line opacity="0.2" x1="233.22988892610272" x2="233.22988892610272" y1="0" y2="30"/><line opacity="0.2" x1="356.268228954732" x2="356.268228954732" y1="0" y2="30"/><line opacity="0.2" x1="380.6802847567586" x2="380.6802847567586" y1="0" y2="30"/><line opacity="0.2" x1="281.0726388958366" x2="281.0726388958366" y1="0" y2="30"/><line opacity="0.2" x1="346.2584563756697" x2="346.2584563756697" y1="0" y2="30"/><line opacity="0.2" x1="411.8273233699254" x2="411.8273233699254" y1="0" y2="30"/><line opacity="0.2" x1="414.3705368236247" x2="414.3705368236247" y1="0" y2="30"/><line opacity="0.2" x1="225.34311673102582" x2="225.34311673102582" y1="0" y2="30"/><line opacity="0.2" x1="255.23794003777255" x2="255.23794003777255" y1="0" y2="30"/><line opacity="0.2" x1="89.28255880800994" x2="89.28255880800994" y1="0" y2="30"/><line opacity="0.2" x1="250.2687763315168" x2="250.2687763315168" y1="0" y2="30"/><line opacity="0.2" x1="331.18916349892436" x2="331.18916349892436" y1="0" y2="30"/><line opacity="0.2" x1="311.49130629972757" x2="311.49130629972757" y1="0" y2="30"/><line opacity="0.2" x1="327.1733638020326" x2="327.1733638020326" y1="0" y2="30"/><line opacity="0.2" x1="398.0705786224147" x2="398.0705786224147" y1="0" y2="30"/><line opacity="0.2" x1="459.891772683597" x2="459.891772683597" y1="0" y2="30"/><line opacity="0.2" x1="399.7514211369527" x2="399.7514211369527" y1="0" y2="30"/><line opacity="0.2" x1="257.10949374102387" x2="257.10949374102387" y1="0" y2="30"/><line opacity="0.2" x1="406.9202389910264" x2="406.9202389910264" y1="0" y2="30"/><line opacity="0.2" x1="322.94534024713914" x2="322.94534024713914" y1="0" y2="30"/><line opacity="0.2" x1="217.8602430861255" x2="217.8602430861255" y1="0" y2="30"/><line opacity="0.2" x1="292.3004754953366" x2="292.3004754953366" y1="0" y2="30"/><line opacity="0.2" x1="343.0246116435676" x2="343.0246116435676" y1="0" y2="30"/><line opacity="0.2" x1="439.97699409463706" x2="439.97699409463706" y1="0" y2="30"/><line opacity="0.2" x1="257.59741547093984" x2="257.59741547093984" y1="0" y2="30"/><line opacity="0.2" x1="416.7419278878701" x2="416.7419278878701" y1="0" y2="30"/><line opacity="0.2" x1="205.6518782556997" x2="205.6518782556997" y1="0" y2="30"/><line opacity="0.2" x1="287.6106246441381" x2="287.6106246441381" y1="0" y2="30"/><line opacity="0.2" x1="401.840353694917" x2="401.840353694917" y1="0" y2="30"/><line opacity="0.2" x1="292.3200541366627" x2="292.3200541366627" y1="0" y2="30"/><line opacity="0.2" x1="349.193416666804" x2="349.193416666804" y1="0" y2="30"/><line opacity="0.2" x1="427.57834508201194" x2="427.57834508201194" y1="0" y2="30"/><line opacity="0.2" x1="456.4977435082331" x2="456.4977435082331" y1="0" y2="30"/><line opacity="0.2" x1="303.19578806314723" x2="303.19578806314723" y1="0" y2="30"/><line opacity="0.2" x1="381.7018571279418" x2="381.7018571279418" y1="0" y2="30"/><line opacity="0.2" x1="334.10798021686014" x2="334.10798021686014" y1="0" y2="30"/><line opacity="0.2" x1="397.2365868369632" x2="397.2365868369632" y1="0" y2="30"/><line opacity="0.2" x1="222.5405689599686" x2="222.5405689599686" y1="0" y2="30"/><line opacity="0.2" x1="262.6969352225936" x2="262.6969352225936" y1="0" y2="30"/><line opacity="0.2" x1="483.0243307869822" x2="483.0243307869822" y1="0" y2="30"/><line opacity="0.2" x1="350.6228850456701" x2="350.6228850456701" y1="0" y2="30"/><line opacity="0.2" x1="435.48716967292376" x2="435.48716967292376" y1="0" y2="30"/><line opacity="0.2" x1="422.4941748543761" x2="422.4941748543761" y1="0" y2="30"/><line opacity="0.2" x1="296.28527137903995" x2="296.28527137903995" y1="0" y2="30"/><line opacity="0.2" x1="235.1381506799432" x2="235.1381506799432" y1="0" y2="30"/><line opacity="0.2" x1="229.0472534960503" x2="229.0472534960503" y1="0" y2="30"/><line opacity="0.2" x1="345.552362786924" x2="345.552362786924" y1="0" y2="30"/><line opacity="0.2" x1="336.5889260268456" x2="336.5889260268456" y1="0" y2="30"/><line opacity="0.2" x1="249.28141227604533" x2="249.28141227604533" y1="0" y2="30"/><line opacity="0.2" x1="267.8366271254365" x2="267.8366271254365" y1="0" y2="30"/><line opacity="0.2" x1="254.86884190060252" x2="254.86884190060252" y1="0" y2="30"/><line opacity="0.2" x1="258.16467172032316" x2="258.16467172032316" y1="0" y2="30"/><line opacity="0.2" x1="432.47304825639867" x2="432.47304825639867" y1="0" y2="30"/><line opacity="0.2" x1="173.30931677356554" x2="173.30931677356554" y1="0" y2="30"/><line opacity="0.2" x1="291.9600075037968" x2="291.9600075037968" y1="0" y2="30"/><line opacity="0.2" x1="293.1808984083102" x2="293.1808984083102" y1="0" y2="30"/><line opacity="0.2" x1="375.16710233717725" x2="375.16710233717725" y1="0" y2="30"/><line opacity="0.2" x1="374.60344403182984" x2="374.60344403182984" y1="0" y2="30"/><line opacity="0.2" x1="236.07441480523286" x2="236.07441480523286" y1="0" y2="30"/><line opacity="0.2" x1="381.099595295526" x2="381.099595295526" y1="0" y2="30"/><line opacity="0.2" x1="267.7351012990876" x2="267.7351012990876" y1="0" y2="30"/><line opacity="0.2" x1="422.21586702052645" x2="422.21586702052645" y1="0" y2="30"/><line opacity="0.2" x1="441.57881686707475" x2="441.57881686707475" y1="0" y2="30"/><line opacity="0.2" x1="322.41700957898746" x2="322.41700957898746" y1="0" y2="30"/><line opacity="0.2" x1="332.6979958013805" x2="332.6979958013805" y1="0" y2="30"/><line opacity="0.2" x1="181.38589782215027" x2="181.38589782215027" y1="0" y2="30"/><line opacity="0.2" x1="259.5016378775119" x2="259.5016378775119" y1="0" y2="30"/><line opacity="0.2" x1="278.26893671133223" x2="278.26893671133223" y1="0" y2="30"/><line opacity="0.2" x1="346.8324771338455" x2="346.8324771338455" y1="0" y2="30"/><line opacity="0.2" x1="355.55099620641954" x2="355.55099620641954" y1="0" y2="30"/><line opacity="0.2" x1="392.6365270783093" x2="392.6365270783093" y1="0" y2="30"/><line opacity="0.2" x1="329.16472506395064" x2="329.16472506395064" y1="0" y2="30"/><line opacity="0.2" x1="246.18415339320822" x2="246.18415339320822" y1="0" y2="30"/><line opacity="0.2" x1="208.9564250181736" x2="208.9564250181736" y1="0" y2="30"/><line opacity="0.2" x1="323.1546704591319" x2="323.1546704591319" y1="0" y2="30"/><line opacity="0.2" x1="389.23117317038543" x2="389.23117317038543" y1="0" y2="30"/><line opacity="0.2" x1="322.9549663918032" x2="322.9549663918032" y1="0" y2="30"/><line opacity="0.2" x1="235.70529670094422" x2="235.70529670094422" y1="0" y2="30"/><line opacity="0.2" x1="362.67234643454736" x2="362.67234643454736" y1="0" y2="30"/><line opacity="0.2" x1="261.57055234186447" x2="261.57055234186447" y1="0" y2="30"/><line opacity="0.2" x1="443.99209100817535" x2="443.99209100817535" y1="0" y2="30"/><line opacity="0.2" x1="324.2063634997465" x2="324.2063634997465" y1="0" y2="30"/><line opacity="0.2" x1="352.1869823871222" x2="352.1869823871222" y1="0" y2="30"/><line opacity="0.2" x1="231.61874402506126" x2="231.61874402506126" y1="0" y2="30"/><line opacity="0.2" x1="308.7698603306958" x2="308.7698603306958" y1="0" y2="30"/><line opacity="0.2" x1="415.7435892930803" x2="415.7435892930803" y1="0" y2="30"/><line opacity="0.2" x1="155.98306195067963" x2="155.98306195067963" y1="0" y2="30"/><line opacity="0.2" x1="192.4378457387744" x2="192.4378457387744" y1="0" y2="30"/><line opacity="0.2" x1="248.89817433519318" x2="248.89817433519318" y1="0" y2="30"/><line opacity="0.2" x1="383.02969142245456" x2="383.02969142245456" y1="0" y2="30"/><line opacity="0.2" x1="434.8842587346889" x2="434.8842587346889" y1="0" y2="30"/><line opacity="0.2" x1="395.18074012446704" x2="395.18074012446704" y1="0" y2="30"/><line opacity="0.2" x1="332.7904332561478" x2="332.7904332561478" y1="0" y2="30"/><line opacity="0.2" x1="230.73635796075652" x2="230.73635796075652" y1="0" y2="30"/><line opacity="0.2" x1="393.1265016796882" x2="393.1265016796882" y1="0" y2="30"/><line opacity="0.2" x1="357.01126632854414" x2="357.01126632854414" y1="0" y2="30"/><line opacity="0.2" x1="302.97661453386405" x2="302.97661453386405" y1="0" y2="30"/><line opacity="0.2" x1="231.60677758588176" x2="231.60677758588176" y1="0" y2="30"/><line opacity="0.2" x1="273.56312622332104" x2="273.56312622332104" y1="0" y2="30"/><line opacity="0.2" x1="396.01110514946805" x2="396.01110514946805" y1="0" y2="30"/><line opacity="0.2" x1="508.8562382532302" x2="508.8562382532302" y1="0" y2="30"/><line opacity="0.2" x1="336.12357839772096" x2="336.12357839772096" y1="0" y2="30"/><line opacity="0.2" x1="318.4584561891339" x2="318.4584561891339" y1="0" y2="30"/><line opacity="0.2" x1="348.85560824389773" x2="348.85560824389773" y1="0" y2="30"/><line opacity="0.2" x1="312.5278265214316" x2="312.5278265214316" y1="0" y2="30"/><line opacity="0.2" x1="374.04386323487944" x2="374.04386323487944" y1="0" y2="30"/><line opacity="0.2" x1="305.95890598195774" x2="305.95890598195774" y1="0" y2="30"/><line opacity="0.2" x1="222.35980308688715" x2="222.35980308688715" y1="0" y2="30"/><line opacity="0.2" x1="332.62422035819725" x2="332.62422035819725" y1="0" y2="30"/><line opacity="0.2" x1="393.3450762947781" x2="393.3450762947781" y1="0" y2="30"/><line opacity="0.2" x1="344.8270595931826" x2="344.8270595931826" y1="0" y2="30"/><line opacity="0.2" x1="261.0624352710447" x2="261.0624352710447" y1="0" y2="30"/><line opacity="0.2" x1="482.70300137080494" x2="482.70300137080494" y1="0" y2="30"/><line opacity="0.2" x1="338.8377004858529" x2="338.8377004858529" y1="0" y2="30"/><line opacity="0.2" x1="309.44809029418207" x2="309.44809029418207" y1="0" y2="30"/><line opacity="0.2" x1="255.3531923907429" x2="255.3531923907429" y1="0" y2="30"/><line opacity="0.2" x1="524.0236076963613" x2="524.0236076963613" y1="0" y2="30"/><line opacity="0.2" x1="326.7772990410952" x2="326.7772990410952" y1="0" y2="30"/><line opacity="0.2" x1="403.7419058280254" x2="403.7419058280254" y1="0" y2="30"/><line opacity="0.2" x1="404.324854209218" x2="404.324854209218" y1="0" y2="30"/><line opacity="0.2" x1="246.97099185004865" x2="246.97099185004865" y1="0" y2="30"/><line opacity="0.2" x1="292.28528744995685" x2="292.28528744995685" y1="0" y2="30"/><line opacity="0.2" x1="276.28044973605694" x2="276.28044973605694" y1="0" y2="30"/><line opacity="0.2" x1="314.65588675245004" x2="314.65588675245004" y1="0" y2="30"/><line opacity="0.2" x1="278.94736227583866" x2="278.94736227583866" y1="0" y2="30"/><line opacity="0.2" x1="276.7639205743808" x2="276.7639205743808" y1="0" y2="30"/><line opacity="0.2" x1="397.37353665380175" x2="397.37353665380175" y1="0" y2="30"/><line opacity="0.2" x1="336.52669391868744" x2="336.52669391868744" y1="0" y2="30"/><line opacity="0.2" x1="456.6044122553036" x2="456.6044122553036" y1="0" y2="30"/><line opacity="0.2" x1="242.75953254978924" x2="242.75953254978924" y1="0" y2="30"/><line opacity="0.2" x1="284.23505219893116" x2="284.23505219893116" y1="0" y2="30"/><line opacity="0.2" x1="235.92335096911827" x2="235.92335096911827" y1="0" y2="30"/><line opacity="0.2" x1="327.60873471952226" x2="327.60873471952226" y1="0" y2="30"/><line opacity="0.2" x1="55.74711677261806" x2="55.74711677261806" y1="0" y2="30"/><line opacity="0.2" x1="285.1106692777148" x2="285.1106692777148" y1="0" y2="30"/><line opacity="0.2" x1="88.56148095731967" x2="88.56148095731967" y1="0" y2="30"/><line opacity="0.2" x1="287.2900137665864" x2="287.2900137665864" y1="0" y2="30"/><line opacity="0.2" x1="184.56215526605587" x2="184.56215526605587" y1="0" y2="30"/><line opacity="0.2" x1="240.4337337831537" x2="240.4337337831537" y1="0" y2="30"/><line opacity="0.2" x1="364.46719791970054" x2="364.46719791970054" y1="0" y2="30"/><line opacity="0.2" x1="442.35847088170885" x2="442.35847088170885" y1="0" y2="30"/><line opacity="0.2" x1="365.78993512348165" x2="365.78993512348165" y1="0" y2="30"/><line opacity="0.2" x1="278.98260575907" x2="278.98260575907" y1="0" y2="30"/><line opacity="0.2" x1="341.8680800032577" x2="341.8680800032577" y1="0" y2="30"/><line opacity="0.2" x1="431.3614447420237" x2="431.3614447420237" y1="0" y2="30"/><line opacity="0.2" x1="390.41134833321945" x2="390.41134833321945" y1="0" y2="30"/><line opacity="0.2" x1="388.06118887408286" x2="388.06118887408286" y1="0" y2="30"/></g></svg>