<svg xmlns="http://www.w3.org/2000/svg" xmlns:xlink="http://www.w3.org/1999/xlink" class="plot-b953f263923c5" fill="currentColor" font-family="system-ui, sans-serif" font-size="10" text-anchor="middle" width="640" height="400" viewBox="0 0 640 400" style="color: black;"><style>
        .plot-b953f263923c5 {
          display: block;
          background: white;
          height: auto;
          height: intrinsic;
          max-width: 100%;
        }
        .plot-b953f263923c5 text,
        .plot-b953f263923c5 tspan {
          white-space: pre;
        }
      </style><g aria-label="y-axis tick" fill="none" stroke="currentColor" transform="translate(0,0.5)"><path transform="translate(40,363.6926403593885)" d="M0,0L-6,0"/><path transform="translate(40,325.14084012465923)" d="M0,0L-6,0"/><path transform="translate(40,286.58903988992995)" d="M0,0L-6,0"/><path transform="translate(40,248.03723965520066)" d="M0,0L-6,0"/><path transform="translate(40,209.48543942047138)" d="M0,0L-6,0"/><path transform="translate(40,170.93363918574212)" d="M0,0L-6,0"/><path transform="translate(40,132.38183895101284)" d="M0,0L-6,0"/><path transform="translate(40,93.83003871628357)" d="M0,0L-6,0"/><path transform="translate(40,55.27823848155428)" d="M0,0L-6,0"/></g><g aria-label="y-axis tick label" text-anchor="end" font-variant="tabular-nums" transform="translate(-8.5,0.5)"><text y="0.32em" transform="translate(40,363.6926403593885)">−2</text><text y="0.32em" transform="translate(40,325.14084012465923)">0</text><text y="0.32em" transform="translate(40,286.58903988992995)">2</text><text y="0.32em" transform="translate(40,248.03723965520066)">4</text><text y="0.32em" transform="translate(40,209.48543942047138)">6</text><text y="0.32em" transform="translate(40,170.93363918574212)">8</text><text y="0.32em" transform="translate(40,132.38183895101284)">10</text><text y="0.32em" transform="translate(40,93.83003871628357)">12</text><text y="0.32em" transform="translate(40,55.27823848155428)">14</text></g><g aria-label="line" fill="none" stroke="currentColor" stroke-width="1.5" stroke-linejoin="round" stroke-linecap="round" transform="translate(0.5,0.5)"><path d="M40,289.676L46.051,299.24L52.101,314.865L58.152,299.968L64.202,323.184L70.253,302.107L76.303,307.085L82.354,320.695L88.404,347.957L94.455,327.788L100.505,313.579L106.556,286.781L112.606,313.734L118.657,295.617L124.707,292.186L130.758,327.934L136.808,290.677L142.859,283.012L148.909,289.091L154.96,304.533L161.01,294.132L167.061,288.405L173.111,286.896L179.162,283.691L185.212,278.845L191.263,296.876L197.313,303.656L203.364,316.602L209.414,360.505L215.465,371.126L221.515,380L227.566,379.143L233.616,361.804L239.667,337.364L245.717,312.877L251.768,307.09L257.818,291.792L263.869,293.825L269.919,274.557L275.97,292.091L282.02,311.284L288.071,301.05L294.121,308.73L300.172,285.444L306.222,277.171L312.273,248.341L318.323,257.887L324.374,236.888L330.424,261.216L336.475,277.414L342.525,282.64L348.576,273.846L354.626,304.577L360.677,308.367L366.727,297.477L372.778,302.407L378.828,282.39L384.879,258.314L390.929,276.332L396.98,306.012L403.03,295.456L409.081,303.732L415.131,256.682L421.182,235.552L427.232,216.756L433.283,219.708L439.333,200.799L445.384,192.85L451.434,198.06L457.485,230.783L463.535,219.03L469.586,260.812L475.636,283.521L481.687,267.284L487.737,252.925L493.788,228.473L499.838,242.293L505.889,258.528L511.939,249.738L517.99,198.775L524.04,222.444L530.091,244.258L536.141,215.531L542.192,200.777L548.242,175.364L554.293,147.768L560.343,137.376L566.394,103.674L572.444,80.016L578.495,87.464L584.545,84.478L590.596,80.205L596.646,99.711L602.697,94.409L608.747,72.927L614.798,46.698L620.848,35.172L626.899,27.247L632.949,20L639,36.524"/></g></svg>