<svg xmlns="http://www.w3.org/2000/svg" xmlns:xlink="http://www.w3.org/1999/xlink" class="plot-d6a7b5" fill="currentColor" font-family="system-ui, sans-serif" font-size="10" text-anchor="middle" width="640" height="400" viewBox="0 0 640 400" style="color: black; background-color: white;"><style>:where(.plot-d6a7b5) {
  --plot-background: white;
  display: block;
  height: auto;
  height: intrinsic;
  max-width: 100%;
}
:where(.plot-d6a7b5 text),
:where(.plot-d6a7b5 tspan) {
  white-space: pre;
}</style><g aria-label="y-axis tick" aria-hidden="true" fill="none" stroke="currentColor"><path transform="translate(40,354.9674680224417)" d="M0,0L-6,0"/><path transform="translate(40,315.7344974964393)" d="M0,0L-6,0"/><path transform="translate(40,276.50152697043694)" d="M0,0L-6,0"/><path transform="translate(40,237.26855644443452)" d="M0,0L-6,0"/><path transform="translate(40,198.03558591843213)" d="M0,0L-6,0"/><path transform="translate(40,158.80261539242974)" d="M0,0L-6,0"/><path transform="translate(40,119.56964486642737)" d="M0,0L-6,0"/><path transform="translate(40,80.33667434042496)" d="M0,0L-6,0"/><path transform="translate(40,41.10370381442259)" d="M0,0L-6,0"/></g><g aria-label="y-axis tick label" text-anchor="end" font-variant="tabular-nums" transform="translate(-9,0)"><text y="0.32em" transform="translate(40,354.9674680224417)">−14</text><text y="0.32em" transform="translate(40,315.7344974964393)">−12</text><text y="0.32em" transform="translate(40,276.50152697043694)">−10</text><text y="0.32em" transform="translate(40,237.26855644443452)">−8</text><text y="0.32em" transform="translate(40,198.03558591843213)">−6</text><text y="0.32em" transform="translate(40,158.80261539242974)">−4</text><text y="0.32em" transform="translate(40,119.56964486642737)">−2</text><text y="0.32em" transform="translate(40,80.33667434042496)">0</text><text y="0.32em" transform="translate(40,41.10370381442259)">2</text></g><g aria-label="rule" stroke="steelblue"><line x1="40" x2="639.5" y1="80.33667434042496" y2="80.33667434042496"/></g><g aria-label="line" fill="none" stroke="currentColor" stroke-width="1.5" stroke-linejoin="round" stroke-linecap="round"><path d="M40,64.478L46.056,20L52.111,37.919L58.167,44.021L64.222,75.775L70.278,97.158L76.333,99.429L82.389,117.843L88.444,132.958L94.5,138.991L100.556,137.445L106.611,149.975L112.667,148.229L118.722,167.658L124.778,160.94L130.833,172.629L136.889,207.51L142.944,197.477L149,204.455L155.056,191.634L161.111,208.791L167.167,231.802L173.222,247.936L179.278,223.634L185.333,210.014L191.389,213.422L197.444,209.766L203.5,220.089L209.556,247.503L215.611,247.876L221.667,252.118L227.722,229.185L233.778,212.649L239.833,199.662L245.889,197.412L251.944,179.758L258,193.095L264.056,201.137L270.111,211.474L276.167,225.678L282.222,230.755L288.278,223.029L294.333,232.478L300.389,234.266L306.444,229.471L312.5,206.735L318.556,234.654L324.611,243.583L330.667,247.635L336.722,222.896L342.778,224.876L348.833,289.833L354.889,269.091L360.944,283.891L367,268.777L373.056,296.546L379.111,314.538L385.167,304.237L391.222,349.054L397.278,337.023L403.333,364.476L409.389,356.438L415.444,356.135L421.5,349.607L427.556,343.803L433.611,371.428L439.667,380L445.722,338.763L451.778,332.181L457.833,292.72L463.889,281.528L469.944,295.73L476,275.724L482.056,284.07L488.111,290.435L494.167,273.164L500.222,263.063L506.278,254.088L512.333,242.391L518.389,234.757L524.444,195.286L530.5,215.145L536.556,236.342L542.611,224.672L548.667,255.971L554.722,251.47L560.778,222.445L566.833,193.77L572.889,202.982L578.944,199.074L585,195.931L591.056,209.376L597.111,238.421L603.167,287.201L609.222,299.577L615.278,283.322L621.333,300.62L627.389,297.305L633.444,336.108L639.5,338.284"/></g></svg>