<svg xmlns="http://www.w3.org/2000/svg" xmlns:xlink="http://www.w3.org/1999/xlink" class="plot-09528b2c02b5f" fill="currentColor" font-family="system-ui, sans-serif" font-size="10" text-anchor="middle" width="640" height="400" viewBox="0 0 640 400" style="color: black;"><style>
        .plot-09528b2c02b5f {
          display: block;
          background: white;
          height: auto;
          height: intrinsic;
          max-width: 100%;
        }
        .plot-09528b2c02b5f text,
        .plot-09528b2c02b5f tspan {
          white-space: pre;
        }
      </style><g aria-label="y-axis tick" fill="none" stroke="currentColor" transform="translate(0,0.5)"><path transform="translate(40,349.01324994765565)" d="M0,0L-6,0"/><path transform="translate(40,308.2965707059204)" d="M0,0L-6,0"/><path transform="translate(40,267.5798914641851)" d="M0,0L-6,0"/><path transform="translate(40,226.86321222244973)" d="M0,0L-6,0"/><path transform="translate(40,186.14653298071445)" d="M0,0L-6,0"/><path transform="translate(40,145.42985373897912)" d="M0,0L-6,0"/><path transform="translate(40,104.71317449724378)" d="M0,0L-6,0"/><path transform="translate(40,63.996495255508464)" d="M0,0L-6,0"/><path transform="translate(40,23.27981601377317)" d="M0,0L-6,0"/></g><g aria-label="y-axis tick label" text-anchor="end" font-variant="tabular-nums" transform="translate(-8.5,0.5)"><text y="0.32em" transform="translate(40,349.01324994765565)">0</text><text y="0.32em" transform="translate(40,308.2965707059204)">2</text><text y="0.32em" transform="translate(40,267.5798914641851)">4</text><text y="0.32em" transform="translate(40,226.86321222244973)">6</text><text y="0.32em" transform="translate(40,186.14653298071445)">8</text><text y="0.32em" transform="translate(40,145.42985373897912)">10</text><text y="0.32em" transform="translate(40,104.71317449724378)">12</text><text y="0.32em" transform="translate(40,63.996495255508464)">14</text><text y="0.32em" transform="translate(40,23.27981601377317)">16</text></g><g aria-label="line" fill="none" stroke="currentColor" stroke-width="1.5" stroke-linejoin="round" stroke-linecap="round" transform="translate(0.5,0.5)"><path d="M40,346.973L46.051,332.727L52.101,327.779L58.152,352.359L64.202,377.446L70.253,362.508L76.303,364.772L82.354,377.773L88.404,350.354L94.455,364.339L100.505,380L106.556,355.289L112.606,323.333L118.657,313.746L124.707,293.056L130.758,293.376L136.808,290.936L142.859,283.896L148.909,279.687L154.96,232.552L161.01,248.246L167.061,258.587L173.111,239.055L179.162,222.742L185.212,174.35L191.263,159.276L197.313,144.065L203.364,131.746L209.414,149.254L215.465,118.021L221.515,129.63L227.566,90.602L233.616,75.507L239.667,95.302L245.717,107.267L251.768,80.949L257.818,109.58L263.869,97.455L269.919,68.481L275.97,78.31L282.02,100.621L288.071,109.975L294.121,118.094L300.172,119.436L306.222,104.921L312.273,131.272L318.323,104.566L324.374,122.41L330.424,123.817L336.475,115.133L342.525,79.24L348.576,73.858L354.626,121.893L360.677,100.705L366.727,98.443L372.778,71.269L378.828,53.849L384.879,49.594L390.929,49.73L396.98,53.451L403.03,62.766L409.081,95.759L415.131,92.581L421.182,102.478L427.232,122.501L433.283,135.378L439.333,113.479L445.384,116.576L451.434,128.295L457.485,128.063L463.535,121.354L469.586,134.34L475.636,122.169L481.687,97.393L487.737,71.148L493.788,106.083L499.838,104.669L505.889,87.558L511.939,123.825L517.99,145.997L524.04,156.967L530.091,128.654L536.141,103.224L542.192,102.938L548.242,99.791L554.293,66.936L560.343,40.961L566.394,29.09L572.444,25.735L578.495,27.628L584.545,36.365L590.596,20L596.646,58.466L602.697,85.838L608.747,80.573L614.798,66.915L620.848,64.349L626.899,23.712L632.949,43.999L639,31.834"/></g></svg>