<svg xmlns="http://www.w3.org/2000/svg" xmlns:xlink="http://www.w3.org/1999/xlink" class="plot-d6a7b5" fill="currentColor" font-family="system-ui, sans-serif" font-size="10" text-anchor="middle" width="640" height="400" viewBox="0 0 640 400" style="color: black; background-color: white;"><style>.plot-d6a7b5 {
  display: block;
  background: white;
  height: auto;
  height: intrinsic;
  max-width: 100%;
}
.plot-d6a7b5 text,
.plot-d6a7b5 tspan {
  white-space: pre;
}</style><g aria-label="y-axis tick" fill="none" stroke="currentColor"><path transform="translate(40,358.6616387709644)" d="M0,0L-6,0"/><path transform="translate(40,319.0080915778347)" d="M0,0L-6,0"/><path transform="translate(40,279.3545443847049)" d="M0,0L-6,0"/><path transform="translate(40,239.70099719157517)" d="M0,0L-6,0"/><path transform="translate(40,200.04744999844547)" d="M0,0L-6,0"/><path transform="translate(40,160.39390280531566)" d="M0,0L-6,0"/><path transform="translate(40,120.74035561218595)" d="M0,0L-6,0"/><path transform="translate(40,81.0868084190562)" d="M0,0L-6,0"/><path transform="translate(40,41.43326122592649)" d="M0,0L-6,0"/></g><g aria-label="y-axis tick label" text-anchor="end" font-variant="tabular-nums" transform="translate(-9,0)"><text y="0.32em" transform="translate(40,358.6616387709644)">−12</text><text y="0.32em" transform="translate(40,319.0080915778347)">−10</text><text y="0.32em" transform="translate(40,279.3545443847049)">−8</text><text y="0.32em" transform="translate(40,239.70099719157517)">−6</text><text y="0.32em" transform="translate(40,200.04744999844547)">−4</text><text y="0.32em" transform="translate(40,160.39390280531566)">−2</text><text y="0.32em" transform="translate(40,120.74035561218595)">0</text><text y="0.32em" transform="translate(40,81.0868084190562)">2</text><text y="0.32em" transform="translate(40,41.43326122592649)">4</text></g><g aria-label="rule" stroke="steelblue"><line x1="40" x2="639.5" y1="120.74035561218595" y2="120.74035561218595"/></g><g aria-label="line" fill="none" stroke="currentColor" stroke-width="1.5" stroke-linejoin="round" stroke-linecap="round"><path d="M40,168.188L46.056,202.565L52.111,214.45L58.167,185.195L64.222,162.825L70.278,172.086L76.333,176.159L82.389,172.659L88.444,205.188L94.5,185.532L100.556,186.731L106.611,245.053L112.667,267.805L118.722,270.391L124.778,262.764L130.833,254.291L136.889,273.525L142.944,265.752L149,268.084L155.056,297.635L161.111,297.065L167.167,257.745L173.222,260.258L179.278,245.702L185.333,222.492L191.389,231.911L197.444,230.858L203.5,246.386L209.556,289.86L215.611,320.699L221.667,327.675L227.722,329.414L233.778,321.831L239.833,304.271L245.889,355.426L251.944,380L258,303.741L264.056,301.878L270.111,321.689L276.167,304.767L282.222,303.837L288.278,276.201L294.333,256.895L300.389,242.964L306.444,217.822L312.5,214.983L318.556,191.994L324.611,179.111L330.667,182.583L336.722,167.399L342.778,146.654L348.833,138.757L354.889,122.397L360.944,108.47L367,119.361L373.056,121.884L379.111,105.511L385.167,125.89L391.222,103.732L397.278,99.772L403.333,74.549L409.389,99.705L415.444,136.136L421.5,124.417L427.556,136.868L433.611,137.487L439.667,146.277L445.722,143.277L451.778,107.199L457.833,95.687L463.889,84.013L469.944,74.463L476,61.53L482.056,33.666L488.111,64.404L494.167,51.228L500.222,31.113L506.278,20L512.333,43.507L518.389,58.152L524.444,58.498L530.5,36.477L536.556,56.433L542.611,65.107L548.667,95.869L554.722,91.675L560.778,107.986L566.833,91.739L572.889,101.11L578.944,122.168L585,117.909L591.056,101.787L597.111,70.788L603.167,105.774L609.222,93.067L615.278,95.994L621.333,117.579L627.389,134.789L633.444,163.534L639.5,142.057"/></g></svg>