<svg xmlns="http://www.w3.org/2000/svg" xmlns:xlink="http://www.w3.org/1999/xlink" class="plot-d6a7b5" fill="currentColor" font-family="system-ui, sans-serif" font-size="10" text-anchor="middle" width="640" height="400" viewBox="0 0 640 400" style="color: black; background-color: white;"><style>.plot-d6a7b5 {
  display: block;
  background: white;
  height: auto;
  height: intrinsic;
  max-width: 100%;
}
.plot-d6a7b5 text,
.plot-d6a7b5 tspan {
  white-space: pre;
}</style><g aria-label="y-axis tick" fill="none" stroke="currentColor"><path transform="translate(40,375.5126433033703)" d="M0,0L-6,0"/><path transform="translate(40,345.70218203250425)" d="M0,0L-6,0"/><path transform="translate(40,315.8917207616383)" d="M0,0L-6,0"/><path transform="translate(40,286.08125949077225)" d="M0,0L-6,0"/><path transform="translate(40,256.2707982199063)" d="M0,0L-6,0"/><path transform="translate(40,226.46033694904023)" d="M0,0L-6,0"/><path transform="translate(40,196.64987567817425)" d="M0,0L-6,0"/><path transform="translate(40,166.83941440730825)" d="M0,0L-6,0"/><path transform="translate(40,137.02895313644225)" d="M0,0L-6,0"/><path transform="translate(40,107.21849186557628)" d="M0,0L-6,0"/><path transform="translate(40,77.40803059471028)" d="M0,0L-6,0"/><path transform="translate(40,47.59756932384425)" d="M0,0L-6,0"/></g><g aria-label="y-axis tick label" text-anchor="end" font-variant="tabular-nums" transform="translate(-9,0)"><text y="0.32em" transform="translate(40,375.5126433033703)">−6</text><text y="0.32em" transform="translate(40,345.70218203250425)">−5</text><text y="0.32em" transform="translate(40,315.8917207616383)">−4</text><text y="0.32em" transform="translate(40,286.08125949077225)">−3</text><text y="0.32em" transform="translate(40,256.2707982199063)">−2</text><text y="0.32em" transform="translate(40,226.46033694904023)">−1</text><text y="0.32em" transform="translate(40,196.64987567817425)">0</text><text y="0.32em" transform="translate(40,166.83941440730825)">1</text><text y="0.32em" transform="translate(40,137.02895313644225)">2</text><text y="0.32em" transform="translate(40,107.21849186557628)">3</text><text y="0.32em" transform="translate(40,77.40803059471028)">4</text><text y="0.32em" transform="translate(40,47.59756932384425)">5</text></g><g aria-label="rule" stroke="steelblue"><line x1="40" x2="639.5" y1="196.64987567817425" y2="196.64987567817425"/></g><g aria-label="line" fill="none" stroke="currentColor" stroke-width="1.5" stroke-linejoin="round" stroke-linecap="round"><path d="M40,180.055L46.056,175.523L52.111,159.5L58.167,141.235L64.222,161.795L70.278,192.561L76.333,213.783L82.389,164.392L88.444,151.652L94.5,153.929L100.556,165.469L106.611,196.752L112.667,182.564L118.722,196.11L124.778,185.441L130.833,209.412L136.889,253.303L142.944,219.596L149,156.416L155.056,104.275L161.111,111.607L167.167,96.022L173.222,125.371L179.278,123.647L185.333,129.354L191.389,101.295L197.444,59.052L203.5,20L209.556,39.68L215.611,94.202L221.667,101.311L227.722,76.024L233.778,65.735L239.833,32.571L245.889,40.799L251.944,86.585L258,105.091L264.056,94.333L270.111,96.525L276.167,135.041L282.222,111.566L288.278,117.332L294.333,157.241L300.389,192.384L306.444,221.097L312.5,223.436L318.556,210.201L324.611,224.989L330.667,233.643L336.722,272.028L342.778,294.426L348.833,320.488L354.889,315.426L360.944,309.051L367,324.673L373.056,380L379.111,369.748L385.167,370.82L391.222,371.776L397.278,324.577L403.333,263.14L409.389,184.817L415.444,240.646L421.5,296.766L427.556,320.224L433.611,322.815L439.667,319.917L445.722,324.005L451.778,312.056L457.833,294.324L463.889,252.421L469.944,213.595L476,195.009L482.056,214.89L488.111,209.083L494.167,189.428L500.222,157.853L506.278,191.92L512.333,191.703L518.389,169.208L524.444,142.333L530.5,125.975L536.556,127.025L542.611,128.865L548.667,127.183L554.722,140.853L560.778,207.291L566.833,200.333L572.889,190.942L578.944,192.638L585,144.03L591.056,137.95L597.111,177.039L603.167,191.706L609.222,227.937L615.278,212.129L621.333,195.918L627.389,182.196L633.444,215.667L639.5,253.815"/></g></svg>