<svg xmlns="http://www.w3.org/2000/svg" xmlns:xlink="http://www.w3.org/1999/xlink" class="plot-d7d483b2ec69e" fill="currentColor" font-family="system-ui, sans-serif" font-size="10" text-anchor="middle" width="640" height="400" viewBox="0 0 640 400" style="color: black;"><style>
        .plot-d7d483b2ec69e {
          display: block;
          background: white;
          height: auto;
          height: intrinsic;
          max-width: 100%;
        }
        .plot-d7d483b2ec69e text,
        .plot-d7d483b2ec69e tspan {
          white-space: pre;
        }
      </style><g aria-label="y-axis tick" fill="none" stroke="currentColor" transform="translate(0,0.5)"><path transform="translate(40,379.1443987524678)" d="M0,0L-6,0"/><path transform="translate(40,347.969581038123)" d="M0,0L-6,0"/><path transform="translate(40,316.7947633237782)" d="M0,0L-6,0"/><path transform="translate(40,285.6199456094335)" d="M0,0L-6,0"/><path transform="translate(40,254.44512789508872)" d="M0,0L-6,0"/><path transform="translate(40,223.270310180744)" d="M0,0L-6,0"/><path transform="translate(40,192.09549246639924)" d="M0,0L-6,0"/><path transform="translate(40,160.92067475205442)" d="M0,0L-6,0"/><path transform="translate(40,129.7458570377097)" d="M0,0L-6,0"/><path transform="translate(40,98.57103932336496)" d="M0,0L-6,0"/><path transform="translate(40,67.3962216090202)" d="M0,0L-6,0"/><path transform="translate(40,36.22140389467542)" d="M0,0L-6,0"/></g><g aria-label="y-axis tick label" text-anchor="end" font-variant="tabular-nums" transform="translate(-8.5,0.5)"><text y="0.32em" transform="translate(40,379.1443987524678)">−2</text><text y="0.32em" transform="translate(40,347.969581038123)">−1</text><text y="0.32em" transform="translate(40,316.7947633237782)">0</text><text y="0.32em" transform="translate(40,285.6199456094335)">1</text><text y="0.32em" transform="translate(40,254.44512789508872)">2</text><text y="0.32em" transform="translate(40,223.270310180744)">3</text><text y="0.32em" transform="translate(40,192.09549246639924)">4</text><text y="0.32em" transform="translate(40,160.92067475205442)">5</text><text y="0.32em" transform="translate(40,129.7458570377097)">6</text><text y="0.32em" transform="translate(40,98.57103932336496)">7</text><text y="0.32em" transform="translate(40,67.3962216090202)">8</text><text y="0.32em" transform="translate(40,36.22140389467542)">9</text></g><g aria-label="rule" stroke="steelblue" transform="translate(0,0.5)"><line x1="40" x2="639" y1="316.7947633237782" y2="316.7947633237782"/></g><g aria-label="line" fill="none" stroke="currentColor" stroke-width="1.5" stroke-linejoin="round" stroke-linecap="round" transform="translate(0.5,0.5)"><path d="M40,307.671L46.051,311.106L52.101,317.372L58.152,311.632L64.202,340.405L70.253,321.551L76.303,275.906L82.354,270.659L88.404,216.958L94.455,163.666L100.505,143.16L106.556,139.977L112.606,120.634L118.657,103.551L124.707,164.174L130.758,200.358L136.808,270.676L142.859,290.554L148.909,284.767L154.96,304.582L161.01,304.067L167.061,340.202L173.111,380L179.162,316.451L185.212,323.914L191.263,334.838L197.313,311.701L203.364,221.126L209.414,295.727L215.465,295.65L221.515,342.846L227.566,343.542L233.616,368.836L239.667,347.254L245.717,333.304L251.768,301.353L257.818,307.733L263.869,306.997L269.919,319.242L275.97,314.307L282.02,335.458L288.071,317.194L294.121,298.995L300.172,296.629L306.222,279.656L312.273,308.467L318.323,261.202L324.374,294.21L330.424,280.737L336.475,323.877L342.525,265.04L348.576,274.639L354.626,269.386L360.677,190.173L366.727,179.094L372.778,144.243L378.828,148.705L384.879,161.015L390.929,164.981L396.98,182.455L403.03,165.794L409.081,146.142L415.131,136.748L421.182,135.923L427.232,131.922L433.283,132.955L439.333,137.182L445.384,116.482L451.434,97.762L457.485,79.246L463.535,90.08L469.586,75.287L475.636,72.26L481.687,95.946L487.737,105.33L493.788,118.266L499.838,100.466L505.889,115.258L511.939,136.657L517.99,163.872L524.04,259.949L530.091,281.825L536.141,296.477L542.192,303.665L548.242,246.201L554.293,223.229L560.343,195.569L566.394,227.856L572.444,241.582L578.495,215.478L584.545,200.39L590.596,203.348L596.646,204.798L602.697,189.051L608.747,197.78L614.798,173.609L620.848,133.545L626.899,120.664L632.949,109.797L639,20"/></g></svg>