<svg xmlns="http://www.w3.org/2000/svg" xmlns:xlink="http://www.w3.org/1999/xlink" class="plot-70f0c6c9769f1" fill="currentColor" font-family="system-ui, sans-serif" font-size="10" text-anchor="middle" width="640" height="400" viewBox="0 0 640 400" style="color: black;"><style>
        .plot-70f0c6c9769f1 {
          display: block;
          background: white;
          height: auto;
          height: intrinsic;
          max-width: 100%;
        }
        .plot-70f0c6c9769f1 text,
        .plot-70f0c6c9769f1 tspan {
          white-space: pre;
        }
      </style><g aria-label="y-axis tick" fill="none" stroke="currentColor" transform="translate(0,0.5)"><path transform="translate(40,353.90688914826467)" d="M0,0L-6,0"/><path transform="translate(40,320.9550943546603)" d="M0,0L-6,0"/><path transform="translate(40,288.00329956105594)" d="M0,0L-6,0"/><path transform="translate(40,255.05150476745152)" d="M0,0L-6,0"/><path transform="translate(40,222.09970997384715)" d="M0,0L-6,0"/><path transform="translate(40,189.1479151802428)" d="M0,0L-6,0"/><path transform="translate(40,156.19612038663843)" d="M0,0L-6,0"/><path transform="translate(40,123.24432559303405)" d="M0,0L-6,0"/><path transform="translate(40,90.29253079942967)" d="M0,0L-6,0"/><path transform="translate(40,57.340736005825306)" d="M0,0L-6,0"/><path transform="translate(40,24.388941212220935)" d="M0,0L-6,0"/></g><g aria-label="y-axis tick label" text-anchor="end" font-variant="tabular-nums" transform="translate(-8.5,0.5)"><text y="0.32em" transform="translate(40,353.90688914826467)">−16</text><text y="0.32em" transform="translate(40,320.9550943546603)">−14</text><text y="0.32em" transform="translate(40,288.00329956105594)">−12</text><text y="0.32em" transform="translate(40,255.05150476745152)">−10</text><text y="0.32em" transform="translate(40,222.09970997384715)">−8</text><text y="0.32em" transform="translate(40,189.1479151802428)">−6</text><text y="0.32em" transform="translate(40,156.19612038663843)">−4</text><text y="0.32em" transform="translate(40,123.24432559303405)">−2</text><text y="0.32em" transform="translate(40,90.29253079942967)">0</text><text y="0.32em" transform="translate(40,57.340736005825306)">2</text><text y="0.32em" transform="translate(40,24.388941212220935)">4</text></g><g aria-label="rule" stroke="steelblue" transform="translate(0,0.5)"><line x1="40" x2="639" y1="90.29253079942967" y2="90.29253079942967"/></g><g aria-label="line" fill="none" stroke="currentColor" stroke-width="1.5" stroke-linejoin="round" stroke-linecap="round" transform="translate(0.5,0.5)"><path d="M40,80.492L46.051,75.689L52.101,77.012L58.152,95.664L64.202,82.261L70.253,106.572L76.303,116.711L82.354,148.26L88.404,145.915L94.455,141.266L100.505,142.561L106.556,120.61L112.606,146.619L118.657,126.6L124.707,111.755L130.758,110.484L136.808,130.363L142.859,126.76L148.909,106.302L154.96,79.167L161.01,94.117L167.061,119.189L173.111,140.615L179.162,143.742L185.212,113.357L191.263,101.898L197.313,72.653L203.364,64.012L209.414,56.868L215.465,54.205L221.515,66.933L227.566,36.009L233.616,23.723L239.667,20L245.717,21.349L251.768,36.503L257.818,47.591L263.869,55.177L269.919,54.276L275.97,53.755L282.02,53.915L288.071,54.313L294.121,81.391L300.172,62.7L306.222,94.385L312.273,100.023L318.323,87.308L324.374,95.781L330.424,116.179L336.475,137.742L342.525,170.469L348.576,208.665L354.626,216.374L360.677,206.201L366.727,190.168L372.778,207.674L378.828,214.779L384.879,208.944L390.929,204.164L396.98,194.392L403.03,185.827L409.081,169.775L415.131,172.999L421.182,196.919L427.232,181.915L433.283,185.066L439.333,203.437L445.384,230.722L451.434,235.285L457.485,258.701L463.535,276.752L469.586,284.892L475.636,294.739L481.687,277.052L487.737,252.457L493.788,239.11L499.838,252.768L505.889,287.445L511.939,276.671L517.99,296.572L524.04,319.372L530.091,330.398L536.141,359.484L542.192,337.743L548.242,342.56L554.293,361.627L560.343,371.893L566.394,363.336L572.444,380L578.495,366.077L584.545,336.121L590.596,338.637L596.646,352.575L602.697,352.057L608.747,341.956L614.798,314.072L620.848,310.333L626.899,306.747L632.949,351.594L639,352.391"/></g></svg>