<svg xmlns="http://www.w3.org/2000/svg" xmlns:xlink="http://www.w3.org/1999/xlink" class="plot-d6a7b5" fill="currentColor" font-family="system-ui, sans-serif" font-size="10" text-anchor="middle" width="640" height="400" viewBox="0 0 640 400" style="color: black; background-color: white;"><style>.plot-d6a7b5 {
  display: block;
  background: white;
  height: auto;
  height: intrinsic;
  max-width: 100%;
}
.plot-d6a7b5 text,
.plot-d6a7b5 tspan {
  white-space: pre;
}</style><g aria-label="y-axis tick" fill="none" stroke="currentColor"><path transform="translate(40,375.97260925623834)" d="M0,0L-6,0"/><path transform="translate(40,347.3869209130523)" d="M0,0L-6,0"/><path transform="translate(40,318.8012325698663)" d="M0,0L-6,0"/><path transform="translate(40,290.21554422668027)" d="M0,0L-6,0"/><path transform="translate(40,261.6298558834942)" d="M0,0L-6,0"/><path transform="translate(40,233.0441675403082)" d="M0,0L-6,0"/><path transform="translate(40,204.45847919712216)" d="M0,0L-6,0"/><path transform="translate(40,175.87279085393612)" d="M0,0L-6,0"/><path transform="translate(40,147.28710251075012)" d="M0,0L-6,0"/><path transform="translate(40,118.7014141675641)" d="M0,0L-6,0"/><path transform="translate(40,90.11572582437807)" d="M0,0L-6,0"/><path transform="translate(40,61.530037481192)" d="M0,0L-6,0"/><path transform="translate(40,32.944349138005975)" d="M0,0L-6,0"/></g><g aria-label="y-axis tick label" text-anchor="end" font-variant="tabular-nums" transform="translate(-9,0)"><text y="0.32em" transform="translate(40,375.97260925623834)">−1</text><text y="0.32em" transform="translate(40,347.3869209130523)">0</text><text y="0.32em" transform="translate(40,318.8012325698663)">1</text><text y="0.32em" transform="translate(40,290.21554422668027)">2</text><text y="0.32em" transform="translate(40,261.6298558834942)">3</text><text y="0.32em" transform="translate(40,233.0441675403082)">4</text><text y="0.32em" transform="translate(40,204.45847919712216)">5</text><text y="0.32em" transform="translate(40,175.87279085393612)">6</text><text y="0.32em" transform="translate(40,147.28710251075012)">7</text><text y="0.32em" transform="translate(40,118.7014141675641)">8</text><text y="0.32em" transform="translate(40,90.11572582437807)">9</text><text y="0.32em" transform="translate(40,61.530037481192)">10</text><text y="0.32em" transform="translate(40,32.944349138005975)">11</text></g><g aria-label="rule" stroke="steelblue"><line x1="40" x2="639.5" y1="347.3869209130523" y2="347.3869209130523"/></g><g aria-label="line" fill="none" stroke="currentColor" stroke-width="1.5" stroke-linejoin="round" stroke-linecap="round"><path d="M40,354.303L46.056,326.698L52.111,306.549L58.167,346.981L64.222,361.618L70.278,349.883L76.333,380L82.389,371.303L88.444,328.444L94.5,237.138L100.556,240.166L106.611,189.829L112.667,189.256L118.722,179.524L124.778,179.368L130.833,135.499L136.889,152.628L142.944,153.93L149,151.922L155.056,172.787L161.111,225.607L167.167,222.644L173.222,238.513L179.278,232.601L185.333,238.524L191.389,240.268L197.444,240.67L203.5,231.318L209.556,205.399L215.611,239.296L221.667,218.485L227.722,250.974L233.778,235.954L239.833,239.15L245.889,232.361L251.944,233.84L258,219.336L264.056,230.233L270.111,257.386L276.167,249.463L282.222,242.129L288.278,249.776L294.333,246.775L300.389,258.374L306.444,223.775L312.5,267.968L318.556,272.64L324.611,276.213L330.667,288.959L336.722,291.34L342.778,279.779L348.833,275.644L354.889,247.597L360.944,236.762L367,209.056L373.056,189.28L379.111,203.502L385.167,220.72L391.222,220.43L397.278,242.823L403.333,245.392L409.389,270.327L415.444,283.413L421.5,244.316L427.556,292.42L433.611,272.661L439.667,231.971L445.722,260.884L451.778,268.367L457.833,261.904L463.889,234.841L469.944,205.44L476,221.931L482.056,200.875L488.111,188.563L494.167,211.336L500.222,234.777L506.278,186.114L512.333,133.335L518.389,177.616L524.444,149.081L530.5,122.21L536.556,138.51L542.611,223.65L548.667,211.759L554.722,229.818L560.778,236.018L566.833,188.275L572.889,177.52L578.944,162.136L585,157.508L591.056,129.04L597.111,75.531L603.167,73.329L609.222,20L615.278,52.673L621.333,30.266L627.389,62.353L633.444,75.258L639.5,101.208"/></g></svg>