<svg xmlns="http://www.w3.org/2000/svg" xmlns:xlink="http://www.w3.org/1999/xlink" class="plot-7c73c2ad2fa91" fill="currentColor" font-family="system-ui, sans-serif" font-size="10" text-anchor="middle" width="640" height="60" viewBox="0 0 640 60" style="color: black;"><style>
        .plot-7c73c2ad2fa91 {
          display: block;
          background: white;
          height: auto;
          height: intrinsic;
          max-width: 100%;
        }
        .plot-7c73c2ad2fa91 text,
        .plot-7c73c2ad2fa91 tspan {
          white-space: pre;
        }
      </style><g aria-label="x-axis tick" fill="none" stroke="currentColor" transform="translate(0.5,0)"><path transform="translate(32.955420082927304,30)" d="M0,0L0,6"/><path transform="translate(122.46373362478295,30)" d="M0,0L0,6"/><path transform="translate(211.97204716663856,30)" d="M0,0L0,6"/><path transform="translate(301.48036070849423,30)" d="M0,0L0,6"/><path transform="translate(390.98867425034985,30)" d="M0,0L0,6"/><path transform="translate(480.4969877922055,30)" d="M0,0L0,6"/><path transform="translate(570.0053013340612,30)" d="M0,0L0,6"/></g><g aria-label="x-axis tick label" font-variant="tabular-nums" transform="translate(0.5,9.5)"><text y="0.71em" transform="translate(32.955420082927304,30)">−3</text><text y="0.71em" transform="translate(122.46373362478295,30)">−2</text><text y="0.71em" transform="translate(211.97204716663856,30)">−1</text><text y="0.71em" transform="translate(301.48036070849423,30)">0</text><text y="0.71em" transform="translate(390.98867425034985,30)">1</text><text y="0.71em" transform="translate(480.4969877922055,30)">2</text><text y="0.71em" transform="translate(570.0053013340612,30)">3</text></g><g aria-label="tick" stroke="steelblue" transform="translate(0.5,0)"><line opacity="0.2" x1="416.1424201739194" x2="416.1424201739194" y1="0" y2="30"/><line opacity="0.2" x1="245.40355491355245" x2="245.40355491355245" y1="0" y2="30"/><line opacity="0.2" x1="371.3756092108467" x2="371.3756092108467" y1="0" y2="30"/><line opacity="0.2" x1="183.8586281707458" x2="183.8586281707458" y1="0" y2="30"/><line opacity="0.2" x1="302.3846112952496" x2="302.3846112952496" y1="0" y2="30"/><line opacity="0.2" x1="294.06962628355944" x2="294.06962628355944" y1="0" y2="30"/><line opacity="0.2" x1="359.141875436456" x2="359.141875436456" y1="0" y2="30"/><line opacity="0.2" x1="244.98812338972238" x2="244.98812338972238" y1="0" y2="30"/><line opacity="0.2" x1="179.92111650110886" x2="179.92111650110886" y1="0" y2="30"/><line opacity="0.2" x1="342.55782879273113" x2="342.55782879273113" y1="0" y2="30"/><line opacity="0.2" x1="200.33681912623138" x2="200.33681912623138" y1="0" y2="30"/><line opacity="0.2" x1="148.68912383652494" x2="148.68912383652494" y1="0" y2="30"/><line opacity="0.2" x1="388.77290895436664" x2="388.77290895436664" y1="0" y2="30"/><line opacity="0.2" x1="319.7829166538419" x2="319.7829166538419" y1="0" y2="30"/><line opacity="0.2" x1="403.16880964032845" x2="403.16880964032845" y1="0" y2="30"/><line opacity="0.2" x1="295.31335088859464" x2="295.31335088859464" y1="0" y2="30"/><line opacity="0.2" x1="376.88101041937875" x2="376.88101041937875" y1="0" y2="30"/><line opacity="0.2" x1="306.7781141553531" x2="306.7781141553531" y1="0" y2="30"/><line opacity="0.2" x1="344.49438667426193" x2="344.49438667426193" y1="0" y2="30"/><line opacity="0.2" x1="244.18305191994642" x2="244.18305191994642" y1="0" y2="30"/><line opacity="0.2" x1="72.34193573287719" x2="72.34193573287719" y1="0" y2="30"/><line opacity="0.2" x1="321.0498174981045" x2="321.0498174981045" y1="0" y2="30"/><line opacity="0.2" x1="211.6413953318717" x2="211.6413953318717" y1="0" y2="30"/><line opacity="0.2" x1="231.08388739801762" x2="231.08388739801762" y1="0" y2="30"/><line opacity="0.2" x1="301.8984515774626" x2="301.8984515774626" y1="0" y2="30"/><line opacity="0.2" x1="302.09160950024" x2="302.09160950024" y1="0" y2="30"/><line opacity="0.2" x1="251.21700212341176" x2="251.21700212341176" y1="0" y2="30"/><line opacity="0.2" x1="362.8440438580028" x2="362.8440438580028" y1="0" y2="30"/><line opacity="0.2" x1="269.86958340826783" x2="269.86958340826783" y1="0" y2="30"/><line opacity="0.2" x1="342.0187086394569" x2="342.0187086394569" y1="0" y2="30"/><line opacity="0.2" x1="324.7414719346158" x2="324.7414719346158" y1="0" y2="30"/><line opacity="0.2" x1="244.23536531073538" x2="244.23536531073538" y1="0" y2="30"/><line opacity="0.2" x1="302.4695453758934" x2="302.4695453758934" y1="0" y2="30"/><line opacity="0.2" x1="391.23219877588144" x2="391.23219877588144" y1="0" y2="30"/><line opacity="0.2" x1="465.38828633085575" x2="465.38828633085575" y1="0" y2="30"/><line opacity="0.2" x1="417.992434682885" x2="417.992434682885" y1="0" y2="30"/><line opacity="0.2" x1="272.29420556015907" x2="272.29420556015907" y1="0" y2="30"/><line opacity="0.2" x1="447.0600888117734" x2="447.0600888117734" y1="0" y2="30"/><line opacity="0.2" x1="216.73425798854865" x2="216.73425798854865" y1="0" y2="30"/><line opacity="0.2" x1="199.46993209402248" x2="199.46993209402248" y1="0" y2="30"/><line opacity="0.2" x1="466.5690988636033" x2="466.5690988636033" y1="0" y2="30"/><line opacity="0.2" x1="238.4932649951168" x2="238.4932649951168" y1="0" y2="30"/><line opacity="0.2" x1="380.8239627335678" x2="380.8239627335678" y1="0" y2="30"/><line opacity="0.2" x1="486.3364640911661" x2="486.3364640911661" y1="0" y2="30"/><line opacity="0.2" x1="313.2177934330602" x2="313.2177934330602" y1="0" y2="30"/><line opacity="0.2" x1="312.38853656276706" x2="312.38853656276706" y1="0" y2="30"/><line opacity="0.2" x1="347.3948814335168" x2="347.3948814335168" y1="0" y2="30"/><line opacity="0.2" x1="370.94360739067736" x2="370.94360739067736" y1="0" y2="30"/><line opacity="0.2" x1="429.56838976804556" x2="429.56838976804556" y1="0" y2="30"/><line opacity="0.2" x1="218.90356816258708" x2="218.90356816258708" y1="0" y2="30"/><line opacity="0.2" x1="235.40673334272935" x2="235.40673334272935" y1="0" y2="30"/><line opacity="0.2" x1="161.030311498636" x2="161.030311498636" y1="0" y2="30"/><line opacity="0.2" x1="355.73752529758565" x2="355.73752529758565" y1="0" y2="30"/><line opacity="0.2" x1="427.6153939040093" x2="427.6153939040093" y1="0" y2="30"/><line opacity="0.2" x1="377.0344416342478" x2="377.0344416342478" y1="0" y2="30"/><line opacity="0.2" x1="223.85301205487266" x2="223.85301205487266" y1="0" y2="30"/><line opacity="0.2" x1="310.31665157112326" x2="310.31665157112326" y1="0" y2="30"/><line opacity="0.2" x1="133.97969144206223" x2="133.97969144206223" y1="0" y2="30"/><line opacity="0.2" x1="169.31025900320742" x2="169.31025900320742" y1="0" y2="30"/><line opacity="0.2" x1="108.50580560240462" x2="108.50580560240462" y1="0" y2="30"/><line opacity="0.2" x1="451.9938317163992" x2="451.9938317163992" y1="0" y2="30"/><line opacity="0.2" x1="244.87277155020854" x2="244.87277155020854" y1="0" y2="30"/><line opacity="0.2" x1="306.07722774697265" x2="306.07722774697265" y1="0" y2="30"/><line opacity="0.2" x1="233.9527214502972" x2="233.9527214502972" y1="0" y2="30"/><line opacity="0.2" x1="389.54070071812737" x2="389.54070071812737" y1="0" y2="30"/><line opacity="0.2" x1="272.2273290086145" x2="272.2273290086145" y1="0" y2="30"/><line opacity="0.2" x1="324.6166961308492" x2="324.6166961308492" y1="0" y2="30"/><line opacity="0.2" x1="400.1410618094566" x2="400.1410618094566" y1="0" y2="30"/><line opacity="0.2" x1="449.56466181202234" x2="449.56466181202234" y1="0" y2="30"/><line opacity="0.2" x1="333.27596356367354" x2="333.27596356367354" y1="0" y2="30"/><line opacity="0.2" x1="226.27189719253562" x2="226.27189719253562" y1="0" y2="30"/><line opacity="0.2" x1="306.2738210301888" x2="306.2738210301888" y1="0" y2="30"/><line opacity="0.2" x1="280.9749410416639" x2="280.9749410416639" y1="0" y2="30"/><line opacity="0.2" x1="357.23835045395373" x2="357.23835045395373" y1="0" y2="30"/><line opacity="0.2" x1="257.93094842414206" x2="257.93094842414206" y1="0" y2="30"/><line opacity="0.2" x1="278.2935030416769" x2="278.2935030416769" y1="0" y2="30"/><line opacity="0.2" x1="304.09658077500484" x2="304.09658077500484" y1="0" y2="30"/><line opacity="0.2" x1="168.18345119542312" x2="168.18345119542312" y1="0" y2="30"/><line opacity="0.2" x1="501.39747566041694" x2="501.39747566041694" y1="0" y2="30"/><line opacity="0.2" x1="472.84540966991545" x2="472.84540966991545" y1="0" y2="30"/><line opacity="0.2" x1="310.0558485071733" x2="310.0558485071733" y1="0" y2="30"/><line opacity="0.2" x1="196.44571289602072" x2="196.44571289602072" y1="0" y2="30"/><line opacity="0.2" x1="398.88591222075434" x2="398.88591222075434" y1="0" y2="30"/><line opacity="0.2" x1="248.37570156474288" x2="248.37570156474288" y1="0" y2="30"/><line opacity="0.2" x1="488.00378139273226" x2="488.00378139273226" y1="0" y2="30"/><line opacity="0.2" x1="369.9650794999185" x2="369.9650794999185" y1="0" y2="30"/><line opacity="0.2" x1="255.32955692474576" x2="255.32955692474576" y1="0" y2="30"/><line opacity="0.2" x1="368.70962036189985" x2="368.70962036189985" y1="0" y2="30"/><line opacity="0.2" x1="222.37318010222856" x2="222.37318010222856" y1="0" y2="30"/><line opacity="0.2" x1="321.06941497443046" x2="321.06941497443046" y1="0" y2="30"/><line opacity="0.2" x1="232.16524230323895" x2="232.16524230323895" y1="0" y2="30"/><line opacity="0.2" x1="219.24814649748862" x2="219.24814649748862" y1="0" y2="30"/><line opacity="0.2" x1="176.75334595881023" x2="176.75334595881023" y1="0" y2="30"/><line opacity="0.2" x1="228.4104606318303" x2="228.4104606318303" y1="0" y2="30"/><line opacity="0.2" x1="222.38634283529862" x2="222.38634283529862" y1="0" y2="30"/><line opacity="0.2" x1="282.5882906567634" x2="282.5882906567634" y1="0" y2="30"/><line opacity="0.2" x1="482.18032788223076" x2="482.18032788223076" y1="0" y2="30"/><line opacity="0.2" x1="328.594194397903" x2="328.594194397903" y1="0" y2="30"/><line opacity="0.2" x1="329.88587248280487" x2="329.88587248280487" y1="0" y2="30"/><line opacity="0.2" x1="195.96773367656232" x2="195.96773367656232" y1="0" y2="30"/><line opacity="0.2" x1="176.5733334689559" x2="176.5733334689559" y1="0" y2="30"/><line opacity="0.2" x1="243.65610746612552" x2="243.65610746612552" y1="0" y2="30"/><line opacity="0.2" x1="366.87988249357846" x2="366.87988249357846" y1="0" y2="30"/><line opacity="0.2" x1="379.3706236292712" x2="379.3706236292712" y1="0" y2="30"/><line opacity="0.2" x1="157.19031634869773" x2="157.19031634869773" y1="0" y2="30"/><line opacity="0.2" x1="359.236151594689" x2="359.236151594689" y1="0" y2="30"/><line opacity="0.2" x1="170.8323814750235" x2="170.8323814750235" y1="0" y2="30"/><line opacity="0.2" x1="297.62275516975114" x2="297.62275516975114" y1="0" y2="30"/><line opacity="0.2" x1="94.9671038518822" x2="94.9671038518822" y1="0" y2="30"/><line opacity="0.2" x1="377.53214015245504" x2="377.53214015245504" y1="0" y2="30"/><line opacity="0.2" x1="244.65872930029443" x2="244.65872930029443" y1="0" y2="30"/><line opacity="0.2" x1="310.74467109218807" x2="310.74467109218807" y1="0" y2="30"/><line opacity="0.2" x1="246.4305380833482" x2="246.4305380833482" y1="0" y2="30"/><line opacity="0.2" x1="315.85893256103566" x2="315.85893256103566" y1="0" y2="30"/><line opacity="0.2" x1="200.78343496108857" x2="200.78343496108857" y1="0" y2="30"/><line opacity="0.2" x1="193.13974037783262" x2="193.13974037783262" y1="0" y2="30"/><line opacity="0.2" x1="344.9114557984237" x2="344.9114557984237" y1="0" y2="30"/><line opacity="0.2" x1="516.8192998663496" x2="516.8192998663496" y1="0" y2="30"/><line opacity="0.2" x1="377.2408861561754" x2="377.2408861561754" y1="0" y2="30"/><line opacity="0.2" x1="336.5120630819356" x2="336.5120630819356" y1="0" y2="30"/><line opacity="0.2" x1="254.12729088246292" x2="254.12729088246292" y1="0" y2="30"/><line opacity="0.2" x1="289.6946990681126" x2="289.6946990681126" y1="0" y2="30"/><line opacity="0.2" x1="382.2452064570533" x2="382.2452064570533" y1="0" y2="30"/><line opacity="0.2" x1="455.907889119683" x2="455.907889119683" y1="0" y2="30"/><line opacity="0.2" x1="368.86221226469667" x2="368.86221226469667" y1="0" y2="30"/><line opacity="0.2" x1="363.89568284989446" x2="363.89568284989446" y1="0" y2="30"/><line opacity="0.2" x1="400.821508243248" x2="400.821508243248" y1="0" y2="30"/><line opacity="0.2" x1="258.8236091220165" x2="258.8236091220165" y1="0" y2="30"/><line opacity="0.2" x1="392.5773948852519" x2="392.5773948852519" y1="0" y2="30"/><line opacity="0.2" x1="252.91493936262074" x2="252.91493936262074" y1="0" y2="30"/><line opacity="0.2" x1="367.768902000264" x2="367.768902000264" y1="0" y2="30"/><line opacity="0.2" x1="319.02760822450693" x2="319.02760822450693" y1="0" y2="30"/><line opacity="0.2" x1="269.18430169905844" x2="269.18430169905844" y1="0" y2="30"/><line opacity="0.2" x1="206.82444340812114" x2="206.82444340812114" y1="0" y2="30"/><line opacity="0.2" x1="351.7521901464382" x2="351.7521901464382" y1="0" y2="30"/><line opacity="0.2" x1="180.42722423345793" x2="180.42722423345793" y1="0" y2="30"/><line opacity="0.2" x1="402.5197273781555" x2="402.5197273781555" y1="0" y2="30"/><line opacity="0.2" x1="280.88304730601357" x2="280.88304730601357" y1="0" y2="30"/><line opacity="0.2" x1="270.84359862595517" x2="270.84359862595517" y1="0" y2="30"/><line opacity="0.2" x1="309.7335965819403" x2="309.7335965819403" y1="0" y2="30"/><line opacity="0.2" x1="226.75466851114487" x2="226.75466851114487" y1="0" y2="30"/><line opacity="0.2" x1="362.0396209118953" x2="362.0396209118953" y1="0" y2="30"/><line opacity="0.2" x1="92.66522987330221" x2="92.66522987330221" y1="0" y2="30"/><line opacity="0.2" x1="356.13397936919836" x2="356.13397936919836" y1="0" y2="30"/><line opacity="0.2" x1="129.0554667570906" x2="129.0554667570906" y1="0" y2="30"/><line opacity="0.2" x1="429.1387387989191" x2="429.1387387989191" y1="0" y2="30"/><line opacity="0.2" x1="226.7487138919646" x2="226.7487138919646" y1="0" y2="30"/><line opacity="0.2" x1="346.1759884102632" x2="346.1759884102632" y1="0" y2="30"/><line opacity="0.2" x1="145.9775067711076" x2="145.9775067711076" y1="0" y2="30"/><line opacity="0.2" x1="299.2194097214717" x2="299.2194097214717" y1="0" y2="30"/><line opacity="0.2" x1="264.21641644138407" x2="264.21641644138407" y1="0" y2="30"/><line opacity="0.2" x1="354.2195521541855" x2="354.2195521541855" y1="0" y2="30"/><line opacity="0.2" x1="263.43341683066734" x2="263.43341683066734" y1="0" y2="30"/><line opacity="0.2" x1="324.4631759195851" x2="324.4631759195851" y1="0" y2="30"/><line opacity="0.2" x1="188.4585349234347" x2="188.4585349234347" y1="0" y2="30"/><line opacity="0.2" x1="274.24832420922405" x2="274.24832420922405" y1="0" y2="30"/><line opacity="0.2" x1="400.1832136610867" x2="400.1832136610867" y1="0" y2="30"/><line opacity="0.2" x1="238.04217406694806" x2="238.04217406694806" y1="0" y2="30"/><line opacity="0.2" x1="464.5593577876948" x2="464.5593577876948" y1="0" y2="30"/><line opacity="0.2" x1="259.21176168064335" x2="259.21176168064335" y1="0" y2="30"/><line opacity="0.2" x1="365.84689680153775" x2="365.84689680153775" y1="0" y2="30"/><line opacity="0.2" x1="360.9110678344454" x2="360.9110678344454" y1="0" y2="30"/><line opacity="0.2" x1="362.56714176836715" x2="362.56714176836715" y1="0" y2="30"/><line opacity="0.2" x1="207.56495451751465" x2="207.56495451751465" y1="0" y2="30"/><line opacity="0.2" x1="183.29569844716679" x2="183.29569844716679" y1="0" y2="30"/><line opacity="0.2" x1="458.69194886597376" x2="458.69194886597376" y1="0" y2="30"/><line opacity="0.2" x1="472.88122551208085" x2="472.88122551208085" y1="0" y2="30"/><line opacity="0.2" x1="198.8806890751445" x2="198.8806890751445" y1="0" y2="30"/><line opacity="0.2" x1="247.28245014080653" x2="247.28245014080653" y1="0" y2="30"/><line opacity="0.2" x1="384.1048102731612" x2="384.1048102731612" y1="0" y2="30"/><line opacity="0.2" x1="198.1988302922355" x2="198.1988302922355" y1="0" y2="30"/><line opacity="0.2" x1="288.3078478890389" x2="288.3078478890389" y1="0" y2="30"/><line opacity="0.2" x1="372.21047040804666" x2="372.21047040804666" y1="0" y2="30"/><line opacity="0.2" x1="347.23521159710765" x2="347.23521159710765" y1="0" y2="30"/><line opacity="0.2" x1="145.88160809623392" x2="145.88160809623392" y1="0" y2="30"/><line opacity="0.2" x1="334.31164096149485" x2="334.31164096149485" y1="0" y2="30"/><line opacity="0.2" x1="405.2259646690389" x2="405.2259646690389" y1="0" y2="30"/><line opacity="0.2" x1="326.96919077357194" x2="326.96919077357194" y1="0" y2="30"/><line opacity="0.2" x1="327.4612044145094" x2="327.4612044145094" y1="0" y2="30"/><line opacity="0.2" x1="200.19320327869724" x2="200.19320327869724" y1="0" y2="30"/><line opacity="0.2" x1="330.44809989025663" x2="330.44809989025663" y1="0" y2="30"/><line opacity="0.2" x1="393.6750663653659" x2="393.6750663653659" y1="0" y2="30"/><line opacity="0.2" x1="315.521437457142" x2="315.521437457142" y1="0" y2="30"/><line opacity="0.2" x1="334.6915829547301" x2="334.6915829547301" y1="0" y2="30"/><line opacity="0.2" x1="175.99254142022434" x2="175.99254142022434" y1="0" y2="30"/><line opacity="0.2" x1="174.4190832851427" x2="174.4190832851427" y1="0" y2="30"/><line opacity="0.2" x1="249.80032758432526" x2="249.80032758432526" y1="0" y2="30"/><line opacity="0.2" x1="395.00479696531477" x2="395.00479696531477" y1="0" y2="30"/><line opacity="0.2" x1="405.82989859626815" x2="405.82989859626815" y1="0" y2="30"/><line opacity="0.2" x1="428.3486865347501" x2="428.3486865347501" y1="0" y2="30"/><line opacity="0.2" x1="452.5332729129933" x2="452.5332729129933" y1="0" y2="30"/><line opacity="0.2" x1="250.27814090473112" x2="250.27814090473112" y1="0" y2="30"/><line opacity="0.2" x1="341.4605625954349" x2="341.4605625954349" y1="0" y2="30"/><line opacity="0.2" x1="218.48884272980365" x2="218.48884272980365" y1="0" y2="30"/><line opacity="0.2" x1="469.1221265498325" x2="469.1221265498325" y1="0" y2="30"/><line opacity="0.2" x1="367.91485734829763" x2="367.91485734829763" y1="0" y2="30"/><line opacity="0.2" x1="338.6250350517634" x2="338.6250350517634" y1="0" y2="30"/><line opacity="0.2" x1="365.9832552565968" x2="365.9832552565968" y1="0" y2="30"/><line opacity="0.2" x1="421.4684356126765" x2="421.4684356126765" y1="0" y2="30"/><line opacity="0.2" x1="349.78739526343196" x2="349.78739526343196" y1="0" y2="30"/><line opacity="0.2" x1="279.2197383956563" x2="279.2197383956563" y1="0" y2="30"/><line opacity="0.2" x1="410.2810692067046" x2="410.2810692067046" y1="0" y2="30"/><line opacity="0.2" x1="411.09453428927173" x2="411.09453428927173" y1="0" y2="30"/><line opacity="0.2" x1="341.4478057719741" x2="341.4478057719741" y1="0" y2="30"/><line opacity="0.2" x1="236.06274708451457" x2="236.06274708451457" y1="0" y2="30"/><line opacity="0.2" x1="433.7685126125563" x2="433.7685126125563" y1="0" y2="30"/><line opacity="0.2" x1="414.2575714805058" x2="414.2575714805058" y1="0" y2="30"/><line opacity="0.2" x1="215.0521945787798" x2="215.0521945787798" y1="0" y2="30"/><line opacity="0.2" x1="321.5631080092196" x2="321.5631080092196" y1="0" y2="30"/><line opacity="0.2" x1="316.89504290507523" x2="316.89504290507523" y1="0" y2="30"/><line opacity="0.2" x1="352.60219738960217" x2="352.60219738960217" y1="0" y2="30"/><line opacity="0.2" x1="242.89752268758318" x2="242.89752268758318" y1="0" y2="30"/><line opacity="0.2" x1="252.80853829150618" x2="252.80853829150618" y1="0" y2="30"/><line opacity="0.2" x1="268.2400479834751" x2="268.2400479834751" y1="0" y2="30"/><line opacity="0.2" x1="324.9684008351584" x2="324.9684008351584" y1="0" y2="30"/><line opacity="0.2" x1="262.1414805712044" x2="262.1414805712044" y1="0" y2="30"/><line opacity="0.2" x1="253.2893705436556" x2="253.2893705436556" y1="0" y2="30"/><line opacity="0.2" x1="391.47326552405855" x2="391.47326552405855" y1="0" y2="30"/><line opacity="0.2" x1="238.78757926119573" x2="238.78757926119573" y1="0" y2="30"/><line opacity="0.2" x1="177.54560063871378" x2="177.54560063871378" y1="0" y2="30"/><line opacity="0.2" x1="239.68784736885726" x2="239.68784736885726" y1="0" y2="30"/><line opacity="0.2" x1="165.98166718787834" x2="165.98166718787834" y1="0" y2="30"/><line opacity="0.2" x1="296.74969420570426" x2="296.74969420570426" y1="0" y2="30"/><line opacity="0.2" x1="363.9145630742373" x2="363.9145630742373" y1="0" y2="30"/><line opacity="0.2" x1="264.81162223329073" x2="264.81162223329073" y1="0" y2="30"/><line opacity="0.2" x1="380.5858541695526" x2="380.5858541695526" y1="0" y2="30"/><line opacity="0.2" x1="316.68071464078434" x2="316.68071464078434" y1="0" y2="30"/><line opacity="0.2" x1="201.28593752209025" x2="201.28593752209025" y1="0" y2="30"/><line opacity="0.2" x1="391.9305801341574" x2="391.9305801341574" y1="0" y2="30"/><line opacity="0.2" x1="391.8654854964499" x2="391.8654854964499" y1="0" y2="30"/><line opacity="0.2" x1="231.0647722205896" x2="231.0647722205896" y1="0" y2="30"/><line opacity="0.2" x1="322.2777534731526" x2="322.2777534731526" y1="0" y2="30"/><line opacity="0.2" x1="281.2705770625697" x2="281.2705770625697" y1="0" y2="30"/><line opacity="0.2" x1="294.007320119234" x2="294.007320119234" y1="0" y2="30"/><line opacity="0.2" x1="291.0676096416395" x2="291.0676096416395" y1="0" y2="30"/><line opacity="0.2" x1="322.8530525964929" x2="322.8530525964929" y1="0" y2="30"/><line opacity="0.2" x1="245.61218434392066" x2="245.61218434392066" y1="0" y2="30"/><line opacity="0.2" x1="164.1600726079153" x2="164.1600726079153" y1="0" y2="30"/><line opacity="0.2" x1="274.93163223156967" x2="274.93163223156967" y1="0" y2="30"/><line opacity="0.2" x1="380.1819148472141" x2="380.1819148472141" y1="0" y2="30"/><line opacity="0.2" x1="372.62501896467904" x2="372.62501896467904" y1="0" y2="30"/><line opacity="0.2" x1="270.71627093221275" x2="270.71627093221275" y1="0" y2="30"/><line opacity="0.2" x1="348.70122427403703" x2="348.70122427403703" y1="0" y2="30"/><line opacity="0.2" x1="238.90431413920197" x2="238.90431413920197" y1="0" y2="30"/><line opacity="0.2" x1="212.12773059154696" x2="212.12773059154696" y1="0" y2="30"/><line opacity="0.2" x1="133.1032241520933" x2="133.1032241520933" y1="0" y2="30"/><line opacity="0.2" x1="332.9849209761112" x2="332.9849209761112" y1="0" y2="30"/><line opacity="0.2" x1="236.87942558634097" x2="236.87942558634097" y1="0" y2="30"/><line opacity="0.2" x1="174.60892043679752" x2="174.60892043679752" y1="0" y2="30"/><line opacity="0.2" x1="555.4709620080457" x2="555.4709620080457" y1="0" y2="30"/><line opacity="0.2" x1="408.6223017852434" x2="408.6223017852434" y1="0" y2="30"/><line opacity="0.2" x1="364.60512120308425" x2="364.60512120308425" y1="0" y2="30"/><line opacity="0.2" x1="219.96797131106752" x2="219.96797131106752" y1="0" y2="30"/><line opacity="0.2" x1="433.42225759285253" x2="433.42225759285253" y1="0" y2="30"/><line opacity="0.2" x1="293.43352210327396" x2="293.43352210327396" y1="0" y2="30"/><line opacity="0.2" x1="322.7251695303382" x2="322.7251695303382" y1="0" y2="30"/><line opacity="0.2" x1="343.3463555545035" x2="343.3463555545035" y1="0" y2="30"/><line opacity="0.2" x1="362.2769100554209" x2="362.2769100554209" y1="0" y2="30"/><line opacity="0.2" x1="294.7916064963565" x2="294.7916064963565" y1="0" y2="30"/><line opacity="0.2" x1="372.0983243779607" x2="372.0983243779607" y1="0" y2="30"/><line opacity="0.2" x1="218.13644820676043" x2="218.13644820676043" y1="0" y2="30"/><line opacity="0.2" x1="319.2849734651328" x2="319.2849734651328" y1="0" y2="30"/><line opacity="0.2" x1="170.0962361728797" x2="170.0962361728797" y1="0" y2="30"/><line opacity="0.2" x1="303.241845533832" x2="303.241845533832" y1="0" y2="30"/><line opacity="0.2" x1="297.63804734272594" x2="297.63804734272594" y1="0" y2="30"/><line opacity="0.2" x1="293.7126162538016" x2="293.7126162538016" y1="0" y2="30"/><line opacity="0.2" x1="313.2062956654662" x2="313.2062956654662" y1="0" y2="30"/><line opacity="0.2" x1="187.8246093657728" x2="187.8246093657728" y1="0" y2="30"/><line opacity="0.2" x1="314.79009754764405" x2="314.79009754764405" y1="0" y2="30"/><line opacity="0.2" x1="213.32979234629101" x2="213.32979234629101" y1="0" y2="30"/><line opacity="0.2" x1="459.2813515512737" x2="459.2813515512737" y1="0" y2="30"/><line opacity="0.2" x1="152.3001040108707" x2="152.3001040108707" y1="0" y2="30"/><line opacity="0.2" x1="383.58509504276464" x2="383.58509504276464" y1="0" y2="30"/><line opacity="0.2" x1="316.3275055652986" x2="316.3275055652986" y1="0" y2="30"/><line opacity="0.2" x1="157.93472129764666" x2="157.93472129764666" y1="0" y2="30"/><line opacity="0.2" x1="262.96172573826607" x2="262.96172573826607" y1="0" y2="30"/><line opacity="0.2" x1="296.9277911820205" x2="296.9277911820205" y1="0" y2="30"/><line opacity="0.2" x1="312.32310848070887" x2="312.32310848070887" y1="0" y2="30"/><line opacity="0.2" x1="306.32433684070315" x2="306.32433684070315" y1="0" y2="30"/><line opacity="0.2" x1="237.71869054460564" x2="237.71869054460564" y1="0" y2="30"/><line opacity="0.2" x1="246.20442766843937" x2="246.20442766843937" y1="0" y2="30"/><line opacity="0.2" x1="275.02365013343837" x2="275.02365013343837" y1="0" y2="30"/><line opacity="0.2" x1="402.12384289420805" x2="402.12384289420805" y1="0" y2="30"/><line opacity="0.2" x1="201.55015672661435" x2="201.55015672661435" y1="0" y2="30"/><line opacity="0.2" x1="270.52243752090163" x2="270.52243752090163" y1="0" y2="30"/><line opacity="0.2" x1="255.87715879073562" x2="255.87715879073562" y1="0" y2="30"/><line opacity="0.2" x1="407.4487065456434" x2="407.4487065456434" y1="0" y2="30"/><line opacity="0.2" x1="409.5183234470588" x2="409.5183234470588" y1="0" y2="30"/><line opacity="0.2" x1="288.5114858042724" x2="288.5114858042724" y1="0" y2="30"/><line opacity="0.2" x1="338.1076769718299" x2="338.1076769718299" y1="0" y2="30"/><line opacity="0.2" x1="334.572590034998" x2="334.572590034998" y1="0" y2="30"/><line opacity="0.2" x1="135.23371290145926" x2="135.23371290145926" y1="0" y2="30"/><line opacity="0.2" x1="257.92008295797535" x2="257.92008295797535" y1="0" y2="30"/><line opacity="0.2" x1="243.67193378878417" x2="243.67193378878417" y1="0" y2="30"/><line opacity="0.2" x1="350.0637685626387" x2="350.0637685626387" y1="0" y2="30"/><line opacity="0.2" x1="291.8684237208929" x2="291.8684237208929" y1="0" y2="30"/><line opacity="0.2" x1="197.84629612562827" x2="197.84629612562827" y1="0" y2="30"/><line opacity="0.2" x1="333.94448351736133" x2="333.94448351736133" y1="0" y2="30"/><line opacity="0.2" x1="291.99544520755984" x2="291.99544520755984" y1="0" y2="30"/><line opacity="0.2" x1="400.2485521773236" x2="400.2485521773236" y1="0" y2="30"/><line opacity="0.2" x1="338.69945081678287" x2="338.69945081678287" y1="0" y2="30"/><line opacity="0.2" x1="331.9159044514289" x2="331.9159044514289" y1="0" y2="30"/><line opacity="0.2" x1="390.60296957226427" x2="390.60296957226427" y1="0" y2="30"/><line opacity="0.2" x1="283.1942891056041" x2="283.1942891056041" y1="0" y2="30"/><line opacity="0.2" x1="179.07655823309392" x2="179.07655823309392" y1="0" y2="30"/><line opacity="0.2" x1="483.43049271925037" x2="483.43049271925037" y1="0" y2="30"/><line opacity="0.2" x1="272.9340644343868" x2="272.9340644343868" y1="0" y2="30"/><line opacity="0.2" x1="148.89701952466808" x2="148.89701952466808" y1="0" y2="30"/><line opacity="0.2" x1="321.18002624419086" x2="321.18002624419086" y1="0" y2="30"/><line opacity="0.2" x1="267.09619317614715" x2="267.09619317614715" y1="0" y2="30"/><line opacity="0.2" x1="170.21818245756734" x2="170.21818245756734" y1="0" y2="30"/><line opacity="0.2" x1="367.0768420136433" x2="367.0768420136433" y1="0" y2="30"/><line opacity="0.2" x1="321.5993655297741" x2="321.5993655297741" y1="0" y2="30"/><line opacity="0.2" x1="299.722567072845" x2="299.722567072845" y1="0" y2="30"/><line opacity="0.2" x1="235.35402647178626" x2="235.35402647178626" y1="0" y2="30"/><line opacity="0.2" x1="421.8941978369257" x2="421.8941978369257" y1="0" y2="30"/><line opacity="0.2" x1="550.0360374206158" x2="550.0360374206158" y1="0" y2="30"/><line opacity="0.2" x1="345.37367278436653" x2="345.37367278436653" y1="0" y2="30"/><line opacity="0.2" x1="300.2429998501537" x2="300.2429998501537" y1="0" y2="30"/><line opacity="0.2" x1="314.6666137322675" x2="314.6666137322675" y1="0" y2="30"/><line opacity="0.2" x1="160.58188304773208" x2="160.58188304773208" y1="0" y2="30"/><line opacity="0.2" x1="294.2704291130104" x2="294.2704291130104" y1="0" y2="30"/><line opacity="0.2" x1="96.57333336174891" x2="96.57333336174891" y1="0" y2="30"/><line opacity="0.2" x1="265.52527199235345" x2="265.52527199235345" y1="0" y2="30"/><line opacity="0.2" x1="234.9578642363663" x2="234.9578642363663" y1="0" y2="30"/><line opacity="0.2" x1="575.9060983750841" x2="575.9060983750841" y1="0" y2="30"/><line opacity="0.2" x1="392.92875218054564" x2="392.92875218054564" y1="0" y2="30"/><line opacity="0.2" x1="419.45847287762865" x2="419.45847287762865" y1="0" y2="30"/><line opacity="0.2" x1="363.4978849537415" x2="363.4978849537415" y1="0" y2="30"/><line opacity="0.2" x1="229.1984970415904" x2="229.1984970415904" y1="0" y2="30"/><line opacity="0.2" x1="204.06313961619978" x2="204.06313961619978" y1="0" y2="30"/><line opacity="0.2" x1="331.0106237239838" x2="331.0106237239838" y1="0" y2="30"/><line opacity="0.2" x1="356.37414458245723" x2="356.37414458245723" y1="0" y2="30"/><line opacity="0.2" x1="245.75290492279854" x2="245.75290492279854" y1="0" y2="30"/><line opacity="0.2" x1="232.99997875920653" x2="232.99997875920653" y1="0" y2="30"/><line opacity="0.2" x1="411.10891615216354" x2="411.10891615216354" y1="0" y2="30"/><line opacity="0.2" x1="241.38059983021984" x2="241.38059983021984" y1="0" y2="30"/><line opacity="0.2" x1="274.6164700802909" x2="274.6164700802909" y1="0" y2="30"/><line opacity="0.2" x1="264.64349178831577" x2="264.64349178831577" y1="0" y2="30"/><line opacity="0.2" x1="231.09165758796814" x2="231.09165758796814" y1="0" y2="30"/><line opacity="0.2" x1="568.5423304693078" x2="568.5423304693078" y1="0" y2="30"/><line opacity="0.2" x1="247.22823511163787" x2="247.22823511163787" y1="0" y2="30"/><line opacity="0.2" x1="405.7386523182047" x2="405.7386523182047" y1="0" y2="30"/><line opacity="0.2" x1="468.47180865900475" x2="468.47180865900475" y1="0" y2="30"/><line opacity="0.2" x1="254.73735560420408" x2="254.73735560420408" y1="0" y2="30"/><line opacity="0.2" x1="360.60900208529165" x2="360.60900208529165" y1="0" y2="30"/><line opacity="0.2" x1="263.9741862230442" x2="263.9741862230442" y1="0" y2="30"/><line opacity="0.2" x1="290.4792857309726" x2="290.4792857309726" y1="0" y2="30"/><line opacity="0.2" x1="250.45141986753495" x2="250.45141986753495" y1="0" y2="30"/><line opacity="0.2" x1="273.6662714409896" x2="273.6662714409896" y1="0" y2="30"/><line opacity="0.2" x1="329.54068269663856" x2="329.54068269663856" y1="0" y2="30"/><line opacity="0.2" x1="267.257307452212" x2="267.257307452212" y1="0" y2="30"/><line opacity="0.2" x1="306.40068229518357" x2="306.40068229518357" y1="0" y2="30"/><line opacity="0.2" x1="303.69109208575355" x2="303.69109208575355" y1="0" y2="30"/><line opacity="0.2" x1="408.5540209574325" x2="408.5540209574325" y1="0" y2="30"/><line opacity="0.2" x1="459.4376436084163" x2="459.4376436084163" y1="0" y2="30"/><line opacity="0.2" x1="371.578413523371" x2="371.578413523371" y1="0" y2="30"/><line opacity="0.2" x1="282.18264793369576" x2="282.18264793369576" y1="0" y2="30"/><line opacity="0.2" x1="330.53864583141836" x2="330.53864583141836" y1="0" y2="30"/><line opacity="0.2" x1="293.77012951288157" x2="293.77012951288157" y1="0" y2="30"/><line opacity="0.2" x1="323.999772540597" x2="323.999772540597" y1="0" y2="30"/><line opacity="0.2" x1="265.87525537953746" x2="265.87525537953746" y1="0" y2="30"/><line opacity="0.2" x1="278.6557166754182" x2="278.6557166754182" y1="0" y2="30"/><line opacity="0.2" x1="238.72666753800394" x2="238.72666753800394" y1="0" y2="30"/><line opacity="0.2" x1="314.11797755020194" x2="314.11797755020194" y1="0" y2="30"/><line opacity="0.2" x1="347.14015258537216" x2="347.14015258537216" y1="0" y2="30"/><line opacity="0.2" x1="503.43599669760346" x2="503.43599669760346" y1="0" y2="30"/><line opacity="0.2" x1="420.9751130764076" x2="420.9751130764076" y1="0" y2="30"/><line opacity="0.2" x1="414.5226653494378" x2="414.5226653494378" y1="0" y2="30"/><line opacity="0.2" x1="292.1057460330631" x2="292.1057460330631" y1="0" y2="30"/><line opacity="0.2" x1="447.5065157081913" x2="447.5065157081913" y1="0" y2="30"/><line opacity="0.2" x1="446.6783202479544" x2="446.6783202479544" y1="0" y2="30"/><line opacity="0.2" x1="259.39912126347446" x2="259.39912126347446" y1="0" y2="30"/><line opacity="0.2" x1="397.83817490723123" x2="397.83817490723123" y1="0" y2="30"/><line opacity="0.2" x1="219.8791235587619" x2="219.8791235587619" y1="0" y2="30"/><line opacity="0.2" x1="253.26584323145613" x2="253.26584323145613" y1="0" y2="30"/><line opacity="0.2" x1="237.4025107182154" x2="237.4025107182154" y1="0" y2="30"/><line opacity="0.2" x1="311.33910800845047" x2="311.33910800845047" y1="0" y2="30"/><line opacity="0.2" x1="313.5593626537493" x2="313.5593626537493" y1="0" y2="30"/><line opacity="0.2" x1="285.8488565272976" x2="285.8488565272976" y1="0" y2="30"/><line opacity="0.2" x1="74.36747426901817" x2="74.36747426901817" y1="0" y2="30"/><line opacity="0.2" x1="427.69400795055026" x2="427.69400795055026" y1="0" y2="30"/><line opacity="0.2" x1="262.28141049814724" x2="262.28141049814724" y1="0" y2="30"/><line opacity="0.2" x1="306.78313318425586" x2="306.78313318425586" y1="0" y2="30"/><line opacity="0.2" x1="250.27929970225009" x2="250.27929970225009" y1="0" y2="30"/><line opacity="0.2" x1="470.97987346955716" x2="470.97987346955716" y1="0" y2="30"/><line opacity="0.2" x1="417.61505048230043" x2="417.61505048230043" y1="0" y2="30"/><line opacity="0.2" x1="230.25361616093284" x2="230.25361616093284" y1="0" y2="30"/><line opacity="0.2" x1="169.05177985982914" x2="169.05177985982914" y1="0" y2="30"/><line opacity="0.2" x1="222.72586962349857" x2="222.72586962349857" y1="0" y2="30"/><line opacity="0.2" x1="360.8184394722031" x2="360.8184394722031" y1="0" y2="30"/><line opacity="0.2" x1="280.92387652360935" x2="280.92387652360935" y1="0" y2="30"/><line opacity="0.2" x1="305.4474278642218" x2="305.4474278642218" y1="0" y2="30"/><line opacity="0.2" x1="319.6328709785789" x2="319.6328709785789" y1="0" y2="30"/><line opacity="0.2" x1="224.05692831351135" x2="224.05692831351135" y1="0" y2="30"/><line opacity="0.2" x1="353.67140502691063" x2="353.67140502691063" y1="0" y2="30"/><line opacity="0.2" x1="324.66679892872844" x2="324.66679892872844" y1="0" y2="30"/><line opacity="0.2" x1="55.782403422710956" x2="55.782403422710956" y1="0" y2="30"/><line opacity="0.2" x1="277.6978555626369" x2="277.6978555626369" y1="0" y2="30"/><line opacity="0.2" x1="509.62555083820087" x2="509.62555083820087" y1="0" y2="30"/><line opacity="0.2" x1="432.31954012505275" x2="432.31954012505275" y1="0" y2="30"/><line opacity="0.2" x1="165.4291474909471" x2="165.4291474909471" y1="0" y2="30"/><line opacity="0.2" x1="474.89976914485726" x2="474.89976914485726" y1="0" y2="30"/><line opacity="0.2" x1="317.069676724122" x2="317.069676724122" y1="0" y2="30"/><line opacity="0.2" x1="227.92867971668255" x2="227.92867971668255" y1="0" y2="30"/><line opacity="0.2" x1="280.16781858065167" x2="280.16781858065167" y1="0" y2="30"/><line opacity="0.2" x1="263.2052636373795" x2="263.2052636373795" y1="0" y2="30"/><line opacity="0.2" x1="282.19651634618884" x2="282.19651634618884" y1="0" y2="30"/><line opacity="0.2" x1="404.7479598393295" x2="404.7479598393295" y1="0" y2="30"/><line opacity="0.2" x1="232.820028475742" x2="232.820028475742" y1="0" y2="30"/><line opacity="0.2" x1="377.0065213490368" x2="377.0065213490368" y1="0" y2="30"/><line opacity="0.2" x1="419.4896095618467" x2="419.4896095618467" y1="0" y2="30"/><line opacity="0.2" x1="538.4364109485928" x2="538.4364109485928" y1="0" y2="30"/><line opacity="0.2" x1="381.8423549542121" x2="381.8423549542121" y1="0" y2="30"/><line opacity="0.2" x1="277.6473382473394" x2="277.6473382473394" y1="0" y2="30"/><line opacity="0.2" x1="307.34644747416087" x2="307.34644747416087" y1="0" y2="30"/><line opacity="0.2" x1="273.4792646588982" x2="273.4792646588982" y1="0" y2="30"/><line opacity="0.2" x1="229.89568809009208" x2="229.89568809009208" y1="0" y2="30"/><line opacity="0.2" x1="346.11545722273735" x2="346.11545722273735" y1="0" y2="30"/><line opacity="0.2" x1="353.6416356563565" x2="353.6416356563565" y1="0" y2="30"/><line opacity="0.2" x1="224.2988045357488" x2="224.2988045357488" y1="0" y2="30"/><line opacity="0.2" x1="288.9042813732998" x2="288.9042813732998" y1="0" y2="30"/><line opacity="0.2" x1="348.99467912316294" x2="348.99467912316294" y1="0" y2="30"/><line opacity="0.2" x1="345.5180001472059" x2="345.5180001472059" y1="0" y2="30"/><line opacity="0.2" x1="201.866598017059" x2="201.866598017059" y1="0" y2="30"/><line opacity="0.2" x1="275.97531001934055" x2="275.97531001934055" y1="0" y2="30"/><line opacity="0.2" x1="223.2614426879551" x2="223.2614426879551" y1="0" y2="30"/><line opacity="0.2" x1="297.14651648085163" x2="297.14651648085163" y1="0" y2="30"/><line opacity="0.2" x1="202.07709112627194" x2="202.07709112627194" y1="0" y2="30"/><line opacity="0.2" x1="314.7124807372552" x2="314.7124807372552" y1="0" y2="30"/><line opacity="0.2" x1="240.21714142436275" x2="240.21714142436275" y1="0" y2="30"/><line opacity="0.2" x1="204.77870337051996" x2="204.77870337051996" y1="0" y2="30"/><line opacity="0.2" x1="235.22689174763372" x2="235.22689174763372" y1="0" y2="30"/><line opacity="0.2" x1="416.19137900054926" x2="416.19137900054926" y1="0" y2="30"/><line opacity="0.2" x1="307.140415525518" x2="307.140415525518" y1="0" y2="30"/><line opacity="0.2" x1="193.3360251076529" x2="193.3360251076529" y1="0" y2="30"/><line opacity="0.2" x1="333.7585016266711" x2="333.7585016266711" y1="0" y2="30"/><line opacity="0.2" x1="311.37515791873534" x2="311.37515791873534" y1="0" y2="30"/><line opacity="0.2" x1="233.5420322537036" x2="233.5420322537036" y1="0" y2="30"/><line opacity="0.2" x1="324.74696481729325" x2="324.74696481729325" y1="0" y2="30"/><line opacity="0.2" x1="422.00071648905777" x2="422.00071648905777" y1="0" y2="30"/><line opacity="0.2" x1="249.39504820598808" x2="249.39504820598808" y1="0" y2="30"/><line opacity="0.2" x1="198.76814354560048" x2="198.76814354560048" y1="0" y2="30"/><line opacity="0.2" x1="318.4933385463585" x2="318.4933385463585" y1="0" y2="30"/><line opacity="0.2" x1="416.3570188645432" x2="416.3570188645432" y1="0" y2="30"/><line opacity="0.2" x1="239.17673059999257" x2="239.17673059999257" y1="0" y2="30"/><line opacity="0.2" x1="296.6310965838911" x2="296.6310965838911" y1="0" y2="30"/><line opacity="0.2" x1="324.3871647948165" x2="324.3871647948165" y1="0" y2="30"/><line opacity="0.2" x1="386.14087364593524" x2="386.14087364593524" y1="0" y2="30"/><line opacity="0.2" x1="547.9398929395521" x2="547.9398929395521" y1="0" y2="30"/><line opacity="0.2" x1="284.5799420664068" x2="284.5799420664068" y1="0" y2="30"/><line opacity="0.2" x1="299.5088988316142" x2="299.5088988316142" y1="0" y2="30"/><line opacity="0.2" x1="379.4870569437673" x2="379.4870569437673" y1="0" y2="30"/><line opacity="0.2" x1="375.3959776518584" x2="375.3959776518584" y1="0" y2="30"/><line opacity="0.2" x1="321.03840297856357" x2="321.03840297856357" y1="0" y2="30"/><line opacity="0.2" x1="370.7688337544496" x2="370.7688337544496" y1="0" y2="30"/><line opacity="0.2" x1="386.93116595054414" x2="386.93116595054414" y1="0" y2="30"/><line opacity="0.2" x1="261.93679342401043" x2="261.93679342401043" y1="0" y2="30"/><line opacity="0.2" x1="348.92869319752936" x2="348.92869319752936" y1="0" y2="30"/><line opacity="0.2" x1="400.8413860313315" x2="400.8413860313315" y1="0" y2="30"/><line opacity="0.2" x1="296.65432300524145" x2="296.65432300524145" y1="0" y2="30"/><line opacity="0.2" x1="157.47310273362098" x2="157.47310273362098" y1="0" y2="30"/><line opacity="0.2" x1="227.58214910731238" x2="227.58214910731238" y1="0" y2="30"/><line opacity="0.2" x1="330.77920035724327" x2="330.77920035724327" y1="0" y2="30"/><line opacity="0.2" x1="255.89760319452515" x2="255.89760319452515" y1="0" y2="30"/><line opacity="0.2" x1="382.173331379935" x2="382.173331379935" y1="0" y2="30"/><line opacity="0.2" x1="231.18235002662266" x2="231.18235002662266" y1="0" y2="30"/><line opacity="0.2" x1="263.21080703510074" x2="263.21080703510074" y1="0" y2="30"/><line opacity="0.2" x1="408.38601197655464" x2="408.38601197655464" y1="0" y2="30"/><line opacity="0.2" x1="151.20669427066656" x2="151.20669427066656" y1="0" y2="30"/><line opacity="0.2" x1="236.67870685816698" x2="236.67870685816698" y1="0" y2="30"/><line opacity="0.2" x1="228.06866122174364" x2="228.06866122174364" y1="0" y2="30"/><line opacity="0.2" x1="352.632499732513" x2="352.632499732513" y1="0" y2="30"/><line opacity="0.2" x1="323.46816130654537" x2="323.46816130654537" y1="0" y2="30"/><line opacity="0.2" x1="236.23910585419446" x2="236.23910585419446" y1="0" y2="30"/><line opacity="0.2" x1="241.2985528042015" x2="241.2985528042015" y1="0" y2="30"/><line opacity="0.2" x1="315.6480870356891" x2="315.6480870356891" y1="0" y2="30"/><line opacity="0.2" x1="306.0778211142418" x2="306.0778211142418" y1="0" y2="30"/><line opacity="0.2" x1="313.14999207042405" x2="313.14999207042405" y1="0" y2="30"/><line opacity="0.2" x1="226.6445367482014" x2="226.6445367482014" y1="0" y2="30"/><line opacity="0.2" x1="129.12307566125324" x2="129.12307566125324" y1="0" y2="30"/><line opacity="0.2" x1="423.91603540343283" x2="423.91603540343283" y1="0" y2="30"/><line opacity="0.2" x1="315.9316380070685" x2="315.9316380070685" y1="0" y2="30"/><line opacity="0.2" x1="432.4303953515789" x2="432.4303953515789" y1="0" y2="30"/><line opacity="0.2" x1="20" x2="20" y1="0" y2="30"/><line opacity="0.2" x1="284.38305300145845" x2="284.38305300145845" y1="0" y2="30"/><line opacity="0.2" x1="199.28038149728536" x2="199.28038149728536" y1="0" y2="30"/><line opacity="0.2" x1="342.223700327296" x2="342.223700327296" y1="0" y2="30"/><line opacity="0.2" x1="403.54614108932816" x2="403.54614108932816" y1="0" y2="30"/><line opacity="0.2" x1="378.0297127339185" x2="378.0297127339185" y1="0" y2="30"/><line opacity="0.2" x1="275.78530420270187" x2="275.78530420270187" y1="0" y2="30"/><line opacity="0.2" x1="366.4542272909966" x2="366.4542272909966" y1="0" y2="30"/><line opacity="0.2" x1="395.3637654252215" x2="395.3637654252215" y1="0" y2="30"/><line opacity="0.2" x1="299.6033928543804" x2="299.6033928543804" y1="0" y2="30"/><line opacity="0.2" x1="248.85182607115306" x2="248.85182607115306" y1="0" y2="30"/><line opacity="0.2" x1="283.9699208451602" x2="283.9699208451602" y1="0" y2="30"/><line opacity="0.2" x1="199.38619301329078" x2="199.38619301329078" y1="0" y2="30"/><line opacity="0.2" x1="259.0830196141117" x2="259.0830196141117" y1="0" y2="30"/><line opacity="0.2" x1="246.3978955880625" x2="246.3978955880625" y1="0" y2="30"/><line opacity="0.2" x1="257.26105191424585" x2="257.26105191424585" y1="0" y2="30"/><line opacity="0.2" x1="284.3321001962222" x2="284.3321001962222" y1="0" y2="30"/><line opacity="0.2" x1="307.4223275116434" x2="307.4223275116434" y1="0" y2="30"/><line opacity="0.2" x1="138.91159945563078" x2="138.91159945563078" y1="0" y2="30"/><line opacity="0.2" x1="272.350991866109" x2="272.350991866109" y1="0" y2="30"/><line opacity="0.2" x1="352.1110213334716" x2="352.1110213334716" y1="0" y2="30"/><line opacity="0.2" x1="272.03174888543873" x2="272.03174888543873" y1="0" y2="30"/><line opacity="0.2" x1="358.22952048756275" x2="358.22952048756275" y1="0" y2="30"/><line opacity="0.2" x1="418.15516524337613" x2="418.15516524337613" y1="0" y2="30"/><line opacity="0.2" x1="268.425614553567" x2="268.425614553567" y1="0" y2="30"/><line opacity="0.2" x1="343.20070544634194" x2="343.20070544634194" y1="0" y2="30"/><line opacity="0.2" x1="243.42651913287898" x2="243.42651913287898" y1="0" y2="30"/><line opacity="0.2" x1="269.5562146523574" x2="269.5562146523574" y1="0" y2="30"/><line opacity="0.2" x1="334.33079753832385" x2="334.33079753832385" y1="0" y2="30"/><line opacity="0.2" x1="541.0587077621134" x2="541.0587077621134" y1="0" y2="30"/><line opacity="0.2" x1="216.74365728349065" x2="216.74365728349065" y1="0" y2="30"/><line opacity="0.2" x1="298.1205985282105" x2="298.1205985282105" y1="0" y2="30"/><line opacity="0.2" x1="192.40922491294177" x2="192.40922491294177" y1="0" y2="30"/><line opacity="0.2" x1="315.81420919446754" x2="315.81420919446754" y1="0" y2="30"/><line opacity="0.2" x1="168.23968789901522" x2="168.23968789901522" y1="0" y2="30"/><line opacity="0.2" x1="356.34485912657755" x2="356.34485912657755" y1="0" y2="30"/><line opacity="0.2" x1="457.7098352300555" x2="457.7098352300555" y1="0" y2="30"/><line opacity="0.2" x1="345.68427642237333" x2="345.68427642237333" y1="0" y2="30"/><line opacity="0.2" x1="416.1343624170767" x2="416.1343624170767" y1="0" y2="30"/><line opacity="0.2" x1="412.71236131317806" x2="412.71236131317806" y1="0" y2="30"/><line opacity="0.2" x1="262.7801820222317" x2="262.7801820222317" y1="0" y2="30"/><line opacity="0.2" x1="211.46037589177664" x2="211.46037589177664" y1="0" y2="30"/><line opacity="0.2" x1="346.98769058444145" x2="346.98769058444145" y1="0" y2="30"/><line opacity="0.2" x1="216.7207186355894" x2="216.7207186355894" y1="0" y2="30"/><line opacity="0.2" x1="22.478763623257162" x2="22.478763623257162" y1="0" y2="30"/><line opacity="0.2" x1="353.4624369611905" x2="353.4624369611905" y1="0" y2="30"/><line opacity="0.2" x1="331.4736912049676" x2="331.4736912049676" y1="0" y2="30"/><line opacity="0.2" x1="354.21873538025676" x2="354.21873538025676" y1="0" y2="30"/><line opacity="0.2" x1="425.0600444024449" x2="425.0600444024449" y1="0" y2="30"/><line opacity="0.2" x1="281.85583448935273" x2="281.85583448935273" y1="0" y2="30"/><line opacity="0.2" x1="178.03711654289512" x2="178.03711654289512" y1="0" y2="30"/><line opacity="0.2" x1="372.4305881093745" x2="372.4305881093745" y1="0" y2="30"/><line opacity="0.2" x1="260.3839106639498" x2="260.3839106639498" y1="0" y2="30"/><line opacity="0.2" x1="357.30314284483154" x2="357.30314284483154" y1="0" y2="30"/><line opacity="0.2" x1="242.1860985695588" x2="242.1860985695588" y1="0" y2="30"/><line opacity="0.2" x1="257.95773636002275" x2="257.95773636002275" y1="0" y2="30"/><line opacity="0.2" x1="187.57392213035268" x2="187.57392213035268" y1="0" y2="30"/><line opacity="0.2" x1="380.97542035516494" x2="380.97542035516494" y1="0" y2="30"/><line opacity="0.2" x1="252.05449712821672" x2="252.05449712821672" y1="0" y2="30"/><line opacity="0.2" x1="252.23301466478196" x2="252.23301466478196" y1="0" y2="30"/><line opacity="0.2" x1="312.2163697408262" x2="312.2163697408262" y1="0" y2="30"/><line opacity="0.2" x1="366.0643366680677" x2="366.0643366680677" y1="0" y2="30"/><line opacity="0.2" x1="327.5284166438071" x2="327.5284166438071" y1="0" y2="30"/><line opacity="0.2" x1="388.32514967829826" x2="388.32514967829826" y1="0" y2="30"/><line opacity="0.2" x1="370.9260296713974" x2="370.9260296713974" y1="0" y2="30"/><line opacity="0.2" x1="507.9810509861948" x2="507.9810509861948" y1="0" y2="30"/><line opacity="0.2" x1="165.9264080483471" x2="165.9264080483471" y1="0" y2="30"/><line opacity="0.2" x1="274.6739508638736" x2="274.6739508638736" y1="0" y2="30"/><line opacity="0.2" x1="464.31887180079224" x2="464.31887180079224" y1="0" y2="30"/><line opacity="0.2" x1="137.77017534810025" x2="137.77017534810025" y1="0" y2="30"/><line opacity="0.2" x1="263.9205105426211" x2="263.9205105426211" y1="0" y2="30"/><line opacity="0.2" x1="253.26990263183058" x2="253.26990263183058" y1="0" y2="30"/><line opacity="0.2" x1="381.6482860229905" x2="381.6482860229905" y1="0" y2="30"/><line opacity="0.2" x1="163.45003311130785" x2="163.45003311130785" y1="0" y2="30"/><line opacity="0.2" x1="308.18595396713783" x2="308.18595396713783" y1="0" y2="30"/><line opacity="0.2" x1="334.47589870204047" x2="334.47589870204047" y1="0" y2="30"/><line opacity="0.2" x1="270.7612521714012" x2="270.7612521714012" y1="0" y2="30"/><line opacity="0.2" x1="347.5665220716241" x2="347.5665220716241" y1="0" y2="30"/><line opacity="0.2" x1="336.5167709605782" x2="336.5167709605782" y1="0" y2="30"/><line opacity="0.2" x1="289.1788735865053" x2="289.1788735865053" y1="0" y2="30"/><line opacity="0.2" x1="353.955987313367" x2="353.955987313367" y1="0" y2="30"/><line opacity="0.2" x1="356.26931103960743" x2="356.26931103960743" y1="0" y2="30"/><line opacity="0.2" x1="299.71270207135893" x2="299.71270207135893" y1="0" y2="30"/><line opacity="0.2" x1="312.2113186467637" x2="312.2113186467637" y1="0" y2="30"/><line opacity="0.2" x1="402.15322687612115" x2="402.15322687612115" y1="0" y2="30"/><line opacity="0.2" x1="272.0330914900488" x2="272.0330914900488" y1="0" y2="30"/><line opacity="0.2" x1="235.92064358504197" x2="235.92064358504197" y1="0" y2="30"/><line opacity="0.2" x1="301.16400290539355" x2="301.16400290539355" y1="0" y2="30"/><line opacity="0.2" x1="446.2797784172303" x2="446.2797784172303" y1="0" y2="30"/><line opacity="0.2" x1="255.72815547480414" x2="255.72815547480414" y1="0" y2="30"/><line opacity="0.2" x1="280.4859391840543" x2="280.4859391840543" y1="0" y2="30"/><line opacity="0.2" x1="355.8187810386283" x2="355.8187810386283" y1="0" y2="30"/><line opacity="0.2" x1="259.9350197917844" x2="259.9350197917844" y1="0" y2="30"/><line opacity="0.2" x1="372.0249028909558" x2="372.0249028909558" y1="0" y2="30"/><line opacity="0.2" x1="190.15067420940534" x2="190.15067420940534" y1="0" y2="30"/><line opacity="0.2" x1="274.87418101807424" x2="274.87418101807424" y1="0" y2="30"/><line opacity="0.2" x1="238.16499314973328" x2="238.16499314973328" y1="0" y2="30"/><line opacity="0.2" x1="412.28545871151056" x2="412.28545871151056" y1="0" y2="30"/><line opacity="0.2" x1="263.5324302012702" x2="263.5324302012702" y1="0" y2="30"/><line opacity="0.2" x1="345.0776368032057" x2="345.0776368032057" y1="0" y2="30"/><line opacity="0.2" x1="435.79315673874225" x2="435.79315673874225" y1="0" y2="30"/><line opacity="0.2" x1="388.21685575645114" x2="388.21685575645114" y1="0" y2="30"/><line opacity="0.2" x1="253.1819761959247" x2="253.1819761959247" y1="0" y2="30"/><line opacity="0.2" x1="384.9802375877903" x2="384.9802375877903" y1="0" y2="30"/><line opacity="0.2" x1="257.7069108850674" x2="257.7069108850674" y1="0" y2="30"/><line opacity="0.2" x1="293.59697460657145" x2="293.59697460657145" y1="0" y2="30"/><line opacity="0.2" x1="208.97209658049655" x2="208.97209658049655" y1="0" y2="30"/><line opacity="0.2" x1="230.95166195891642" x2="230.95166195891642" y1="0" y2="30"/><line opacity="0.2" x1="153.60741387677487" x2="153.60741387677487" y1="0" y2="30"/><line opacity="0.2" x1="399.334857777967" x2="399.334857777967" y1="0" y2="30"/><line opacity="0.2" x1="307.9156068592693" x2="307.9156068592693" y1="0" y2="30"/><line opacity="0.2" x1="281.9323660983955" x2="281.9323660983955" y1="0" y2="30"/><line opacity="0.2" x1="207.58931575082636" x2="207.58931575082636" y1="0" y2="30"/><line opacity="0.2" x1="317.839652920172" x2="317.839652920172" y1="0" y2="30"/><line opacity="0.2" x1="308.23661677604275" x2="308.23661677604275" y1="0" y2="30"/><line opacity="0.2" x1="390.1852504216541" x2="390.1852504216541" y1="0" y2="30"/><line opacity="0.2" x1="293.1253846633806" x2="293.1253846633806" y1="0" y2="30"/><line opacity="0.2" x1="265.85881719177" x2="265.85881719177" y1="0" y2="30"/><line opacity="0.2" x1="263.22947603497187" x2="263.22947603497187" y1="0" y2="30"/><line opacity="0.2" x1="399.8342083261517" x2="399.8342083261517" y1="0" y2="30"/><line opacity="0.2" x1="251.6895388930127" x2="251.6895388930127" y1="0" y2="30"/><line opacity="0.2" x1="264.2719231091802" x2="264.2719231091802" y1="0" y2="30"/><line opacity="0.2" x1="399.7236684490903" x2="399.7236684490903" y1="0" y2="30"/><line opacity="0.2" x1="23.79477795930778" x2="23.79477795930778" y1="0" y2="30"/><line opacity="0.2" x1="241.30220518964785" x2="241.30220518964785" y1="0" y2="30"/><line opacity="0.2" x1="283.0227370970324" x2="283.0227370970324" y1="0" y2="30"/><line opacity="0.2" x1="306.99805903705555" x2="306.99805903705555" y1="0" y2="30"/><line opacity="0.2" x1="238.81211811903307" x2="238.81211811903307" y1="0" y2="30"/><line opacity="0.2" x1="437.4524971010831" x2="437.4524971010831" y1="0" y2="30"/><line opacity="0.2" x1="334.8976410011275" x2="334.8976410011275" y1="0" y2="30"/><line opacity="0.2" x1="441.60170802225934" x2="441.60170802225934" y1="0" y2="30"/><line opacity="0.2" x1="419.10262896229057" x2="419.10262896229057" y1="0" y2="30"/><line opacity="0.2" x1="217.99883339940584" x2="217.99883339940584" y1="0" y2="30"/><line opacity="0.2" x1="298.324762402056" x2="298.324762402056" y1="0" y2="30"/><line opacity="0.2" x1="151.04569439534168" x2="151.04569439534168" y1="0" y2="30"/><line opacity="0.2" x1="321.1692184501433" x2="321.1692184501433" y1="0" y2="30"/><line opacity="0.2" x1="314.33120830828904" x2="314.33120830828904" y1="0" y2="30"/><line opacity="0.2" x1="177.89076419893306" x2="177.89076419893306" y1="0" y2="30"/><line opacity="0.2" x1="294.34996580245524" x2="294.34996580245524" y1="0" y2="30"/><line opacity="0.2" x1="313.05651172915543" x2="313.05651172915543" y1="0" y2="30"/><line opacity="0.2" x1="376.2605455849659" x2="376.2605455849659" y1="0" y2="30"/><line opacity="0.2" x1="299.8337680744478" x2="299.8337680744478" y1="0" y2="30"/><line opacity="0.2" x1="435.30711926068193" x2="435.30711926068193" y1="0" y2="30"/><line opacity="0.2" x1="354.15153597714936" x2="354.15153597714936" y1="0" y2="30"/><line opacity="0.2" x1="543.3668504595971" x2="543.3668504595971" y1="0" y2="30"/><line opacity="0.2" x1="260.88656224075635" x2="260.88656224075635" y1="0" y2="30"/><line opacity="0.2" x1="260.50520368706617" x2="260.50520368706617" y1="0" y2="30"/><line opacity="0.2" x1="310.56970269683694" x2="310.56970269683694" y1="0" y2="30"/><line opacity="0.2" x1="130.60538888103713" x2="130.60538888103713" y1="0" y2="30"/><line opacity="0.2" x1="149.41724853636754" x2="149.41724853636754" y1="0" y2="30"/><line opacity="0.2" x1="388.6288103915523" x2="388.6288103915523" y1="0" y2="30"/><line opacity="0.2" x1="259.42711494344985" x2="259.42711494344985" y1="0" y2="30"/><line opacity="0.2" x1="311.49142632870144" x2="311.49142632870144" y1="0" y2="30"/><line opacity="0.2" x1="323.2028707810283" x2="323.2028707810283" y1="0" y2="30"/><line opacity="0.2" x1="339.42442937842276" x2="339.42442937842276" y1="0" y2="30"/><line opacity="0.2" x1="344.12105158009865" x2="344.12105158009865" y1="0" y2="30"/><line opacity="0.2" x1="275.5551169728766" x2="275.5551169728766" y1="0" y2="30"/><line opacity="0.2" x1="343.17850897694586" x2="343.17850897694586" y1="0" y2="30"/><line opacity="0.2" x1="396.567683594379" x2="396.567683594379" y1="0" y2="30"/><line opacity="0.2" x1="178.78338382841926" x2="178.78338382841926" y1="0" y2="30"/><line opacity="0.2" x1="323.99292923369023" x2="323.99292923369023" y1="0" y2="30"/><line opacity="0.2" x1="516.5319748957588" x2="516.5319748957588" y1="0" y2="30"/><line opacity="0.2" x1="211.06232392399522" x2="211.06232392399522" y1="0" y2="30"/><line opacity="0.2" x1="389.42765796032006" x2="389.42765796032006" y1="0" y2="30"/><line opacity="0.2" x1="218.36655295816416" x2="218.36655295816416" y1="0" y2="30"/><line opacity="0.2" x1="340.34184833875184" x2="340.34184833875184" y1="0" y2="30"/><line opacity="0.2" x1="182.85226379851488" x2="182.85226379851488" y1="0" y2="30"/><line opacity="0.2" x1="186.48861909957384" x2="186.48861909957384" y1="0" y2="30"/><line opacity="0.2" x1="259.7632576055071" x2="259.7632576055071" y1="0" y2="30"/><line opacity="0.2" x1="172.39906517432712" x2="172.39906517432712" y1="0" y2="30"/><line opacity="0.2" x1="262.7763996161262" x2="262.7763996161262" y1="0" y2="30"/><line opacity="0.2" x1="314.7628131789564" x2="314.7628131789564" y1="0" y2="30"/><line opacity="0.2" x1="225.0699294362843" x2="225.0699294362843" y1="0" y2="30"/><line opacity="0.2" x1="220.11106099660813" x2="220.11106099660813" y1="0" y2="30"/><line opacity="0.2" x1="260.9868821902158" x2="260.9868821902158" y1="0" y2="30"/><line opacity="0.2" x1="334.23506273476016" x2="334.23506273476016" y1="0" y2="30"/><line opacity="0.2" x1="192.968452783597" x2="192.968452783597" y1="0" y2="30"/><line opacity="0.2" x1="347.52089337868273" x2="347.52089337868273" y1="0" y2="30"/><line opacity="0.2" x1="382.6225445463685" x2="382.6225445463685" y1="0" y2="30"/><line opacity="0.2" x1="249.63550454606712" x2="249.63550454606712" y1="0" y2="30"/><line opacity="0.2" x1="242.19472104427925" x2="242.19472104427925" y1="0" y2="30"/><line opacity="0.2" x1="139.33304310723824" x2="139.33304310723824" y1="0" y2="30"/><line opacity="0.2" x1="323.76249340323847" x2="323.76249340323847" y1="0" y2="30"/><line opacity="0.2" x1="456.9103246980473" x2="456.9103246980473" y1="0" y2="30"/><line opacity="0.2" x1="206.47181072123243" x2="206.47181072123243" y1="0" y2="30"/><line opacity="0.2" x1="295.57994129677945" x2="295.57994129677945" y1="0" y2="30"/><line opacity="0.2" x1="348.05358971557223" x2="348.05358971557223" y1="0" y2="30"/><line opacity="0.2" x1="279.72966509413436" x2="279.72966509413436" y1="0" y2="30"/><line opacity="0.2" x1="356.65108354928367" x2="356.65108354928367" y1="0" y2="30"/><line opacity="0.2" x1="94.97210268670284" x2="94.97210268670284" y1="0" y2="30"/><line opacity="0.2" x1="172.34492203858215" x2="172.34492203858215" y1="0" y2="30"/><line opacity="0.2" x1="343.2578780580892" x2="343.2578780580892" y1="0" y2="30"/><line opacity="0.2" x1="323.68635135412967" x2="323.68635135412967" y1="0" y2="30"/><line opacity="0.2" x1="322.1848878052832" x2="322.1848878052832" y1="0" y2="30"/><line opacity="0.2" x1="392.4996017740265" x2="392.4996017740265" y1="0" y2="30"/><line opacity="0.2" x1="395.2849245098153" x2="395.2849245098153" y1="0" y2="30"/><line opacity="0.2" x1="275.50405708112095" x2="275.50405708112095" y1="0" y2="30"/><line opacity="0.2" x1="221.24170360431103" x2="221.24170360431103" y1="0" y2="30"/><line opacity="0.2" x1="320.78489750222633" x2="320.78489750222633" y1="0" y2="30"/><line opacity="0.2" x1="303.5390805019816" x2="303.5390805019816" y1="0" y2="30"/><line opacity="0.2" x1="461.28014473913123" x2="461.28014473913123" y1="0" y2="30"/><line opacity="0.2" x1="310.14214462463366" x2="310.14214462463366" y1="0" y2="30"/><line opacity="0.2" x1="435.7642875378511" x2="435.7642875378511" y1="0" y2="30"/><line opacity="0.2" x1="350.70736305934037" x2="350.70736305934037" y1="0" y2="30"/><line opacity="0.2" x1="368.7209600951369" x2="368.7209600951369" y1="0" y2="30"/><line opacity="0.2" x1="347.5642726778138" x2="347.5642726778138" y1="0" y2="30"/><line opacity="0.2" x1="311.20680791185237" x2="311.20680791185237" y1="0" y2="30"/><line opacity="0.2" x1="266.88837931536654" x2="266.88837931536654" y1="0" y2="30"/><line opacity="0.2" x1="283.34058872151905" x2="283.34058872151905" y1="0" y2="30"/><line opacity="0.2" x1="323.08655942814823" x2="323.08655942814823" y1="0" y2="30"/><line opacity="0.2" x1="203.7716363986512" x2="203.7716363986512" y1="0" y2="30"/><line opacity="0.2" x1="245.08158165888355" x2="245.08158165888355" y1="0" y2="30"/><line opacity="0.2" x1="199.84315131220615" x2="199.84315131220615" y1="0" y2="30"/><line opacity="0.2" x1="190.53781274547245" x2="190.53781274547245" y1="0" y2="30"/><line opacity="0.2" x1="301.5057472163337" x2="301.5057472163337" y1="0" y2="30"/><line opacity="0.2" x1="304.69793245665204" x2="304.69793245665204" y1="0" y2="30"/><line opacity="0.2" x1="380.4150077577956" x2="380.4150077577956" y1="0" y2="30"/><line opacity="0.2" x1="342.48987326907616" x2="342.48987326907616" y1="0" y2="30"/><line opacity="0.2" x1="422.72051790664415" x2="422.72051790664415" y1="0" y2="30"/><line opacity="0.2" x1="354.6871399303231" x2="354.6871399303231" y1="0" y2="30"/><line opacity="0.2" x1="338.9625081894307" x2="338.9625081894307" y1="0" y2="30"/><line opacity="0.2" x1="364.4761063819812" x2="364.4761063819812" y1="0" y2="30"/><line opacity="0.2" x1="213.77348759500353" x2="213.77348759500353" y1="0" y2="30"/><line opacity="0.2" x1="141.57925825720883" x2="141.57925825720883" y1="0" y2="30"/><line opacity="0.2" x1="384.5570451267268" x2="384.5570451267268" y1="0" y2="30"/><line opacity="0.2" x1="143.5737065530775" x2="143.5737065530775" y1="0" y2="30"/><line opacity="0.2" x1="160.6712898449854" x2="160.6712898449854" y1="0" y2="30"/><line opacity="0.2" x1="382.49959392666614" x2="382.49959392666614" y1="0" y2="30"/><line opacity="0.2" x1="245.01864583352352" x2="245.01864583352352" y1="0" y2="30"/><line opacity="0.2" x1="209.35515217091" x2="209.35515217091" y1="0" y2="30"/><line opacity="0.2" x1="139.76420588365596" x2="139.76420588365596" y1="0" y2="30"/><line opacity="0.2" x1="373.5765637642027" x2="373.5765637642027" y1="0" y2="30"/><line opacity="0.2" x1="338.63553002737035" x2="338.63553002737035" y1="0" y2="30"/><line opacity="0.2" x1="265.1668638709663" x2="265.1668638709663" y1="0" y2="30"/><line opacity="0.2" x1="231.56513846862867" x2="231.56513846862867" y1="0" y2="30"/><line opacity="0.2" x1="313.3621482980407" x2="313.3621482980407" y1="0" y2="30"/><line opacity="0.2" x1="428.48436827473165" x2="428.48436827473165" y1="0" y2="30"/><line opacity="0.2" x1="335.11277092111897" x2="335.11277092111897" y1="0" y2="30"/><line opacity="0.2" x1="390.6195588877542" x2="390.6195588877542" y1="0" y2="30"/><line opacity="0.2" x1="369.51916288333064" x2="369.51916288333064" y1="0" y2="30"/><line opacity="0.2" x1="249.60551628133555" x2="249.60551628133555" y1="0" y2="30"/><line opacity="0.2" x1="305.4622911267999" x2="305.4622911267999" y1="0" y2="30"/><line opacity="0.2" x1="327.77142393189814" x2="327.77142393189814" y1="0" y2="30"/><line opacity="0.2" x1="94.3598018743094" x2="94.3598018743094" y1="0" y2="30"/><line opacity="0.2" x1="261.10864324361023" x2="261.10864324361023" y1="0" y2="30"/><line opacity="0.2" x1="327.1480354707439" x2="327.1480354707439" y1="0" y2="30"/><line opacity="0.2" x1="293.1564467873452" x2="293.1564467873452" y1="0" y2="30"/><line opacity="0.2" x1="244.21504410664727" x2="244.21504410664727" y1="0" y2="30"/><line opacity="0.2" x1="404.8817304401902" x2="404.8817304401902" y1="0" y2="30"/><line opacity="0.2" x1="195.36911260909372" x2="195.36911260909372" y1="0" y2="30"/><line opacity="0.2" x1="393.90640850948574" x2="393.90640850948574" y1="0" y2="30"/><line opacity="0.2" x1="259.79053707868354" x2="259.79053707868354" y1="0" y2="30"/><line opacity="0.2" x1="403.41450721355267" x2="403.41450721355267" y1="0" y2="30"/><line opacity="0.2" x1="379.7548173971786" x2="379.7548173971786" y1="0" y2="30"/><line opacity="0.2" x1="305.9217629027812" x2="305.9217629027812" y1="0" y2="30"/><line opacity="0.2" x1="306.50026594033795" x2="306.50026594033795" y1="0" y2="30"/><line opacity="0.2" x1="325.6663736270195" x2="325.6663736270195" y1="0" y2="30"/><line opacity="0.2" x1="114.61525169670283" x2="114.61525169670283" y1="0" y2="30"/><line opacity="0.2" x1="196.4311547456697" x2="196.4311547456697" y1="0" y2="30"/><line opacity="0.2" x1="308.04634601998276" x2="308.04634601998276" y1="0" y2="30"/><line opacity="0.2" x1="314.38107561222097" x2="314.38107561222097" y1="0" y2="30"/><line opacity="0.2" x1="256.85158323514787" x2="256.85158323514787" y1="0" y2="30"/><line opacity="0.2" x1="216.2063612173373" x2="216.2063612173373" y1="0" y2="30"/><line opacity="0.2" x1="437.04022657812976" x2="437.04022657812976" y1="0" y2="30"/><line opacity="0.2" x1="360.8499199810227" x2="360.8499199810227" y1="0" y2="30"/><line opacity="0.2" x1="331.76960470070196" x2="331.76960470070196" y1="0" y2="30"/><line opacity="0.2" x1="307.89343502707106" x2="307.89343502707106" y1="0" y2="30"/><line opacity="0.2" x1="297.067786415169" x2="297.067786415169" y1="0" y2="30"/><line opacity="0.2" x1="204.96383796928686" x2="204.96383796928686" y1="0" y2="30"/><line opacity="0.2" x1="421.8710260309699" x2="421.8710260309699" y1="0" y2="30"/><line opacity="0.2" x1="313.04877515749365" x2="313.04877515749365" y1="0" y2="30"/><line opacity="0.2" x1="220.0373970813615" x2="220.0373970813615" y1="0" y2="30"/><line opacity="0.2" x1="457.0979453542108" x2="457.0979453542108" y1="0" y2="30"/><line opacity="0.2" x1="350.45967046171285" x2="350.45967046171285" y1="0" y2="30"/><line opacity="0.2" x1="620" x2="620" y1="0" y2="30"/><line opacity="0.2" x1="413.3421680369162" x2="413.3421680369162" y1="0" y2="30"/><line opacity="0.2" x1="306.20999396695646" x2="306.20999396695646" y1="0" y2="30"/><line opacity="0.2" x1="451.376752940667" x2="451.376752940667" y1="0" y2="30"/><line opacity="0.2" x1="336.8761139576139" x2="336.8761139576139" y1="0" y2="30"/><line opacity="0.2" x1="269.66733751107193" x2="269.66733751107193" y1="0" y2="30"/><line opacity="0.2" x1="321.916049614047" x2="321.916049614047" y1="0" y2="30"/><line opacity="0.2" x1="205.9361604000633" x2="205.9361604000633" y1="0" y2="30"/><line opacity="0.2" x1="506.2680740434045" x2="506.2680740434045" y1="0" y2="30"/><line opacity="0.2" x1="334.4158168697183" x2="334.4158168697183" y1="0" y2="30"/><line opacity="0.2" x1="232.56013806535094" x2="232.56013806535094" y1="0" y2="30"/><line opacity="0.2" x1="377.7179028298786" x2="377.7179028298786" y1="0" y2="30"/><line opacity="0.2" x1="372.0106221665769" x2="372.0106221665769" y1="0" y2="30"/><line opacity="0.2" x1="368.5164999577736" x2="368.5164999577736" y1="0" y2="30"/><line opacity="0.2" x1="454.03182458040163" x2="454.03182458040163" y1="0" y2="30"/><line opacity="0.2" x1="378.515002797333" x2="378.515002797333" y1="0" y2="30"/><line opacity="0.2" x1="316.754386601114" x2="316.754386601114" y1="0" y2="30"/><line opacity="0.2" x1="361.8011555085053" x2="361.8011555085053" y1="0" y2="30"/><line opacity="0.2" x1="242.34537387419851" x2="242.34537387419851" y1="0" y2="30"/><line opacity="0.2" x1="306.27962303771557" x2="306.27962303771557" y1="0" y2="30"/><line opacity="0.2" x1="375.72109790164086" x2="375.72109790164086" y1="0" y2="30"/><line opacity="0.2" x1="335.4601685668037" x2="335.4601685668037" y1="0" y2="30"/><line opacity="0.2" x1="370.700542367728" x2="370.700542367728" y1="0" y2="30"/><line opacity="0.2" x1="457.71653448756143" x2="457.71653448756143" y1="0" y2="30"/><line opacity="0.2" x1="198.77930875899608" x2="198.77930875899608" y1="0" y2="30"/><line opacity="0.2" x1="293.9755776668526" x2="293.9755776668526" y1="0" y2="30"/><line opacity="0.2" x1="343.1929934729417" x2="343.1929934729417" y1="0" y2="30"/><line opacity="0.2" x1="216.10323758495798" x2="216.10323758495798" y1="0" y2="30"/><line opacity="0.2" x1="374.3167831759574" x2="374.3167831759574" y1="0" y2="30"/><line opacity="0.2" x1="353.58974148103874" x2="353.58974148103874" y1="0" y2="30"/><line opacity="0.2" x1="169.59132712130827" x2="169.59132712130827" y1="0" y2="30"/><line opacity="0.2" x1="260.42511888078286" x2="260.42511888078286" y1="0" y2="30"/><line opacity="0.2" x1="515.4688887357921" x2="515.4688887357921" y1="0" y2="30"/><line opacity="0.2" x1="332.84287239202206" x2="332.84287239202206" y1="0" y2="30"/><line opacity="0.2" x1="257.8541939916968" x2="257.8541939916968" y1="0" y2="30"/><line opacity="0.2" x1="381.0889655516785" x2="381.0889655516785" y1="0" y2="30"/><line opacity="0.2" x1="308.96284934892327" x2="308.96284934892327" y1="0" y2="30"/><line opacity="0.2" x1="369.61676750505234" x2="369.61676750505234" y1="0" y2="30"/><line opacity="0.2" x1="216.89155180102932" x2="216.89155180102932" y1="0" y2="30"/><line opacity="0.2" x1="344.70692088944617" x2="344.70692088944617" y1="0" y2="30"/><line opacity="0.2" x1="312.0144171723754" x2="312.0144171723754" y1="0" y2="30"/><line opacity="0.2" x1="113.63618192216259" x2="113.63618192216259" y1="0" y2="30"/><line opacity="0.2" x1="263.74733832167294" x2="263.74733832167294" y1="0" y2="30"/><line opacity="0.2" x1="264.8999717873426" x2="264.8999717873426" y1="0" y2="30"/><line opacity="0.2" x1="68.04626196964574" x2="68.04626196964574" y1="0" y2="30"/><line opacity="0.2" x1="333.1987520932935" x2="333.1987520932935" y1="0" y2="30"/><line opacity="0.2" x1="321.9917339134524" x2="321.9917339134524" y1="0" y2="30"/><line opacity="0.2" x1="332.1960037439104" x2="332.1960037439104" y1="0" y2="30"/><line opacity="0.2" x1="340.6805696689112" x2="340.6805696689112" y1="0" y2="30"/><line opacity="0.2" x1="164.36009887628305" x2="164.36009887628305" y1="0" y2="30"/><line opacity="0.2" x1="423.865869831478" x2="423.865869831478" y1="0" y2="30"/><line opacity="0.2" x1="380.5247823774565" x2="380.5247823774565" y1="0" y2="30"/><line opacity="0.2" x1="233.17970816058627" x2="233.17970816058627" y1="0" y2="30"/><line opacity="0.2" x1="289.7848142728711" x2="289.7848142728711" y1="0" y2="30"/><line opacity="0.2" x1="353.2407364127815" x2="353.2407364127815" y1="0" y2="30"/><line opacity="0.2" x1="418.82074465008264" x2="418.82074465008264" y1="0" y2="30"/><line opacity="0.2" x1="353.05845139999167" x2="353.05845139999167" y1="0" y2="30"/><line opacity="0.2" x1="371.5494993176778" x2="371.5494993176778" y1="0" y2="30"/><line opacity="0.2" x1="193.57431092353895" x2="193.57431092353895" y1="0" y2="30"/><line opacity="0.2" x1="536.0616654807767" x2="536.0616654807767" y1="0" y2="30"/><line opacity="0.2" x1="354.22466181818095" x2="354.22466181818095" y1="0" y2="30"/><line opacity="0.2" x1="370.77011995827485" x2="370.77011995827485" y1="0" y2="30"/><line opacity="0.2" x1="314.94698576619936" x2="314.94698576619936" y1="0" y2="30"/><line opacity="0.2" x1="158.49243508760316" x2="158.49243508760316" y1="0" y2="30"/><line opacity="0.2" x1="276.7706600938122" x2="276.7706600938122" y1="0" y2="30"/><line opacity="0.2" x1="334.98210608079023" x2="334.98210608079023" y1="0" y2="30"/><line opacity="0.2" x1="271.922712885442" x2="271.922712885442" y1="0" y2="30"/><line opacity="0.2" x1="306.20943085065113" x2="306.20943085065113" y1="0" y2="30"/><line opacity="0.2" x1="165.4048386883023" x2="165.4048386883023" y1="0" y2="30"/><line opacity="0.2" x1="323.1088393026993" x2="323.1088393026993" y1="0" y2="30"/><line opacity="0.2" x1="179.75025121439649" x2="179.75025121439649" y1="0" y2="30"/><line opacity="0.2" x1="344.65245091843" x2="344.65245091843" y1="0" y2="30"/><line opacity="0.2" x1="289.37070025749244" x2="289.37070025749244" y1="0" y2="30"/><line opacity="0.2" x1="284.4676055211451" x2="284.4676055211451" y1="0" y2="30"/><line opacity="0.2" x1="208.3011865743125" x2="208.3011865743125" y1="0" y2="30"/><line opacity="0.2" x1="480.2569412086957" x2="480.2569412086957" y1="0" y2="30"/><line opacity="0.2" x1="166.11587478721563" x2="166.11587478721563" y1="0" y2="30"/><line opacity="0.2" x1="261.34488602618916" x2="261.34488602618916" y1="0" y2="30"/><line opacity="0.2" x1="183.8625265826384" x2="183.8625265826384" y1="0" y2="30"/><line opacity="0.2" x1="271.16484659750654" x2="271.16484659750654" y1="0" y2="30"/><line opacity="0.2" x1="250.55277690052506" x2="250.55277690052506" y1="0" y2="30"/><line opacity="0.2" x1="336.5048978932759" x2="336.5048978932759" y1="0" y2="30"/><line opacity="0.2" x1="342.7237799143221" x2="342.7237799143221" y1="0" y2="30"/><line opacity="0.2" x1="266.95079535106885" x2="266.95079535106885" y1="0" y2="30"/><line opacity="0.2" x1="350.99369955845367" x2="350.99369955845367" y1="0" y2="30"/><line opacity="0.2" x1="359.16514791861243" x2="359.16514791861243" y1="0" y2="30"/><line opacity="0.2" x1="321.2511658381486" x2="321.2511658381486" y1="0" y2="30"/><line opacity="0.2" x1="147.00848603367052" x2="147.00848603367052" y1="0" y2="30"/><line opacity="0.2" x1="250.93408814015334" x2="250.93408814015334" y1="0" y2="30"/><line opacity="0.2" x1="279.8637015422351" x2="279.8637015422351" y1="0" y2="30"/><line opacity="0.2" x1="274.40913736987227" x2="274.40913736987227" y1="0" y2="30"/><line opacity="0.2" x1="254.8910377045671" x2="254.8910377045671" y1="0" y2="30"/><line opacity="0.2" x1="351.8144012609984" x2="351.8144012609984" y1="0" y2="30"/><line opacity="0.2" x1="528.6091521210606" x2="528.6091521210606" y1="0" y2="30"/><line opacity="0.2" x1="261.0501858441361" x2="261.0501858441361" y1="0" y2="30"/><line opacity="0.2" x1="171.29671250942894" x2="171.29671250942894" y1="0" y2="30"/><line opacity="0.2" x1="407.30129946557133" x2="407.30129946557133" y1="0" y2="30"/><line opacity="0.2" x1="364.5609220055275" x2="364.5609220055275" y1="0" y2="30"/><line opacity="0.2" x1="205.5528858551851" x2="205.5528858551851" y1="0" y2="30"/><line opacity="0.2" x1="290.2704046899342" x2="290.2704046899342" y1="0" y2="30"/><line opacity="0.2" x1="334.0055036800735" x2="334.0055036800735" y1="0" y2="30"/><line opacity="0.2" x1="374.95062269889866" x2="374.95062269889866" y1="0" y2="30"/><line opacity="0.2" x1="241.48519898028763" x2="241.48519898028763" y1="0" y2="30"/><line opacity="0.2" x1="338.015245239455" x2="338.015245239455" y1="0" y2="30"/><line opacity="0.2" x1="492.7365236812232" x2="492.7365236812232" y1="0" y2="30"/><line opacity="0.2" x1="514.0417017724222" x2="514.0417017724222" y1="0" y2="30"/><line opacity="0.2" x1="163.63439815905159" x2="163.63439815905159" y1="0" y2="30"/><line opacity="0.2" x1="196.04087613095865" x2="196.04087613095865" y1="0" y2="30"/><line opacity="0.2" x1="369.39121100717523" x2="369.39121100717523" y1="0" y2="30"/><line opacity="0.2" x1="530.8992903707111" x2="530.8992903707111" y1="0" y2="30"/><line opacity="0.2" x1="269.0761630033125" x2="269.0761630033125" y1="0" y2="30"/><line opacity="0.2" x1="360.86645072896596" x2="360.86645072896596" y1="0" y2="30"/><line opacity="0.2" x1="232.8786443457196" x2="232.8786443457196" y1="0" y2="30"/><line opacity="0.2" x1="466.2089467068826" x2="466.2089467068826" y1="0" y2="30"/><line opacity="0.2" x1="401.7594795138442" x2="401.7594795138442" y1="0" y2="30"/><line opacity="0.2" x1="452.8787693073676" x2="452.8787693073676" y1="0" y2="30"/><line opacity="0.2" x1="348.949797899078" x2="348.949797899078" y1="0" y2="30"/><line opacity="0.2" x1="237.79921080244947" x2="237.79921080244947" y1="0" y2="30"/><line opacity="0.2" x1="190.57584966143844" x2="190.57584966143844" y1="0" y2="30"/><line opacity="0.2" x1="302.6546905770334" x2="302.6546905770334" y1="0" y2="30"/><line opacity="0.2" x1="263.343851501295" x2="263.343851501295" y1="0" y2="30"/><line opacity="0.2" x1="358.19430241468166" x2="358.19430241468166" y1="0" y2="30"/><line opacity="0.2" x1="403.8354979263907" x2="403.8354979263907" y1="0" y2="30"/><line opacity="0.2" x1="250.96652717225402" x2="250.96652717225402" y1="0" y2="30"/><line opacity="0.2" x1="290.3245881593852" x2="290.3245881593852" y1="0" y2="30"/><line opacity="0.2" x1="259.41580615792384" x2="259.41580615792384" y1="0" y2="30"/><line opacity="0.2" x1="275.6084330223934" x2="275.6084330223934" y1="0" y2="30"/><line opacity="0.2" x1="449.4304896275747" x2="449.4304896275747" y1="0" y2="30"/><line opacity="0.2" x1="405.7333857870837" x2="405.7333857870837" y1="0" y2="30"/><line opacity="0.2" x1="262.48581070183127" x2="262.48581070183127" y1="0" y2="30"/><line opacity="0.2" x1="225.51343404002702" x2="225.51343404002702" y1="0" y2="30"/><line opacity="0.2" x1="267.6283336611115" x2="267.6283336611115" y1="0" y2="30"/><line opacity="0.2" x1="329.63404177999564" x2="329.63404177999564" y1="0" y2="30"/><line opacity="0.2" x1="358.3524215966602" x2="358.3524215966602" y1="0" y2="30"/><line opacity="0.2" x1="288.94589879783507" x2="288.94589879783507" y1="0" y2="30"/><line opacity="0.2" x1="427.3767395211529" x2="427.3767395211529" y1="0" y2="30"/><line opacity="0.2" x1="274.40120440162116" x2="274.40120440162116" y1="0" y2="30"/><line opacity="0.2" x1="250.53908558719218" x2="250.53908558719218" y1="0" y2="30"/><line opacity="0.2" x1="243.8517789016475" x2="243.8517789016475" y1="0" y2="30"/><line opacity="0.2" x1="193.68323897130816" x2="193.68323897130816" y1="0" y2="30"/><line opacity="0.2" x1="288.12525814958025" x2="288.12525814958025" y1="0" y2="30"/><line opacity="0.2" x1="420.1242785136665" x2="420.1242785136665" y1="0" y2="30"/><line opacity="0.2" x1="182.8199243325873" x2="182.8199243325873" y1="0" y2="30"/><line opacity="0.2" x1="369.5482811306986" x2="369.5482811306986" y1="0" y2="30"/><line opacity="0.2" x1="114.0973696450584" x2="114.0973696450584" y1="0" y2="30"/><line opacity="0.2" x1="197.55617138636146" x2="197.55617138636146" y1="0" y2="30"/><line opacity="0.2" x1="267.30235138750913" x2="267.30235138750913" y1="0" y2="30"/><line opacity="0.2" x1="265.96414610686514" x2="265.96414610686514" y1="0" y2="30"/><line opacity="0.2" x1="284.8373327014467" x2="284.8373327014467" y1="0" y2="30"/><line opacity="0.2" x1="280.25514136875603" x2="280.25514136875603" y1="0" y2="30"/><line opacity="0.2" x1="332.3897989916713" x2="332.3897989916713" y1="0" y2="30"/><line opacity="0.2" x1="232.53995639734595" x2="232.53995639734595" y1="0" y2="30"/><line opacity="0.2" x1="297.88172583573123" x2="297.88172583573123" y1="0" y2="30"/><line opacity="0.2" x1="284.33479064302634" x2="284.33479064302634" y1="0" y2="30"/><line opacity="0.2" x1="221.8533122996112" x2="221.8533122996112" y1="0" y2="30"/><line opacity="0.2" x1="239.4101965262103" x2="239.4101965262103" y1="0" y2="30"/><line opacity="0.2" x1="344.5713752531641" x2="344.5713752531641" y1="0" y2="30"/><line opacity="0.2" x1="343.19466368497706" x2="343.19466368497706" y1="0" y2="30"/><line opacity="0.2" x1="321.54124494735765" x2="321.54124494735765" y1="0" y2="30"/><line opacity="0.2" x1="378.027612116383" x2="378.027612116383" y1="0" y2="30"/><line opacity="0.2" x1="223.60513742749015" x2="223.60513742749015" y1="0" y2="30"/><line opacity="0.2" x1="360.646805737733" x2="360.646805737733" y1="0" y2="30"/><line opacity="0.2" x1="394.05272602114405" x2="394.05272602114405" y1="0" y2="30"/><line opacity="0.2" x1="270.79241868180213" x2="270.79241868180213" y1="0" y2="30"/><line opacity="0.2" x1="307.0976003283898" x2="307.0976003283898" y1="0" y2="30"/><line opacity="0.2" x1="475.6039767310961" x2="475.6039767310961" y1="0" y2="30"/><line opacity="0.2" x1="276.1083576538497" x2="276.1083576538497" y1="0" y2="30"/><line opacity="0.2" x1="387.7307475615903" x2="387.7307475615903" y1="0" y2="30"/><line opacity="0.2" x1="178.93026017228618" x2="178.93026017228618" y1="0" y2="30"/><line opacity="0.2" x1="445.318801351623" x2="445.318801351623" y1="0" y2="30"/><line opacity="0.2" x1="346.6675005097142" x2="346.6675005097142" y1="0" y2="30"/><line opacity="0.2" x1="359.98009009394275" x2="359.98009009394275" y1="0" y2="30"/><line opacity="0.2" x1="165.16791125266994" x2="165.16791125266994" y1="0" y2="30"/><line opacity="0.2" x1="480.3942712641047" x2="480.3942712641047" y1="0" y2="30"/><line opacity="0.2" x1="130.22286366038932" x2="130.22286366038932" y1="0" y2="30"/><line opacity="0.2" x1="387.6086863871779" x2="387.6086863871779" y1="0" y2="30"/><line opacity="0.2" x1="357.7792757805914" x2="357.7792757805914" y1="0" y2="30"/><line opacity="0.2" x1="320.0053380638796" x2="320.0053380638796" y1="0" y2="30"/><line opacity="0.2" x1="253.86804076813394" x2="253.86804076813394" y1="0" y2="30"/><line opacity="0.2" x1="361.94466324886287" x2="361.94466324886287" y1="0" y2="30"/><line opacity="0.2" x1="462.93415357720903" x2="462.93415357720903" y1="0" y2="30"/><line opacity="0.2" x1="288.3069403420008" x2="288.3069403420008" y1="0" y2="30"/><line opacity="0.2" x1="469.5190582539634" x2="469.5190582539634" y1="0" y2="30"/><line opacity="0.2" x1="246.2268235779931" x2="246.2268235779931" y1="0" y2="30"/><line opacity="0.2" x1="211.37129135842693" x2="211.37129135842693" y1="0" y2="30"/><line opacity="0.2" x1="238.90307906101734" x2="238.90307906101734" y1="0" y2="30"/><line opacity="0.2" x1="122.53824611528002" x2="122.53824611528002" y1="0" y2="30"/><line opacity="0.2" x1="327.81286415056354" x2="327.81286415056354" y1="0" y2="30"/><line opacity="0.2" x1="117.58827691020808" x2="117.58827691020808" y1="0" y2="30"/><line opacity="0.2" x1="347.5125916182159" x2="347.5125916182159" y1="0" y2="30"/><line opacity="0.2" x1="384.19537652239194" x2="384.19537652239194" y1="0" y2="30"/><line opacity="0.2" x1="239.28514437831683" x2="239.28514437831683" y1="0" y2="30"/><line opacity="0.2" x1="280.8197695578677" x2="280.8197695578677" y1="0" y2="30"/><line opacity="0.2" x1="366.8630643437353" x2="366.8630643437353" y1="0" y2="30"/><line opacity="0.2" x1="323.5187671916493" x2="323.5187671916493" y1="0" y2="30"/><line opacity="0.2" x1="263.83080162151504" x2="263.83080162151504" y1="0" y2="30"/><line opacity="0.2" x1="298.42134375348115" x2="298.42134375348115" y1="0" y2="30"/><line opacity="0.2" x1="388.4829928852467" x2="388.4829928852467" y1="0" y2="30"/><line opacity="0.2" x1="361.2214956808703" x2="361.2214956808703" y1="0" y2="30"/><line opacity="0.2" x1="119.09987623057197" x2="119.09987623057197" y1="0" y2="30"/><line opacity="0.2" x1="288.52606337525646" x2="288.52606337525646" y1="0" y2="30"/><line opacity="0.2" x1="301.78989969794844" x2="301.78989969794844" y1="0" y2="30"/><line opacity="0.2" x1="236.02319766923904" x2="236.02319766923904" y1="0" y2="30"/><line opacity="0.2" x1="203.7863544890403" x2="203.7863544890403" y1="0" y2="30"/><line opacity="0.2" x1="314.3008824067409" x2="314.3008824067409" y1="0" y2="30"/><line opacity="0.2" x1="404.20143833757805" x2="404.20143833757805" y1="0" y2="30"/><line opacity="0.2" x1="370.98323853411733" x2="370.98323853411733" y1="0" y2="30"/><line opacity="0.2" x1="189.33942485071134" x2="189.33942485071134" y1="0" y2="30"/><line opacity="0.2" x1="237.56852340662846" x2="237.56852340662846" y1="0" y2="30"/><line opacity="0.2" x1="276.2552847670639" x2="276.2552847670639" y1="0" y2="30"/><line opacity="0.2" x1="339.1883823157665" x2="339.1883823157665" y1="0" y2="30"/><line opacity="0.2" x1="337.65008716766476" x2="337.65008716766476" y1="0" y2="30"/><line opacity="0.2" x1="359.77565888718914" x2="359.77565888718914" y1="0" y2="30"/><line opacity="0.2" x1="296.1127078836241" x2="296.1127078836241" y1="0" y2="30"/><line opacity="0.2" x1="279.2064158424201" x2="279.2064158424201" y1="0" y2="30"/><line opacity="0.2" x1="466.6414598247728" x2="466.6414598247728" y1="0" y2="30"/><line opacity="0.2" x1="433.67998516502945" x2="433.67998516502945" y1="0" y2="30"/><line opacity="0.2" x1="382.0159413126619" x2="382.0159413126619" y1="0" y2="30"/><line opacity="0.2" x1="232.42680549879503" x2="232.42680549879503" y1="0" y2="30"/><line opacity="0.2" x1="368.7439367134923" x2="368.7439367134923" y1="0" y2="30"/><line opacity="0.2" x1="124.64075929255684" x2="124.64075929255684" y1="0" y2="30"/><line opacity="0.2" x1="324.4600651300757" x2="324.4600651300757" y1="0" y2="30"/><line opacity="0.2" x1="299.75266559670604" x2="299.75266559670604" y1="0" y2="30"/><line opacity="0.2" x1="331.11692829386067" x2="331.11692829386067" y1="0" y2="30"/><line opacity="0.2" x1="313.6911018163008" x2="313.6911018163008" y1="0" y2="30"/><line opacity="0.2" x1="318.5516770499447" x2="318.5516770499447" y1="0" y2="30"/><line opacity="0.2" x1="332.9651359544877" x2="332.9651359544877" y1="0" y2="30"/><line opacity="0.2" x1="277.60317476954503" x2="277.60317476954503" y1="0" y2="30"/><line opacity="0.2" x1="335.37503655300793" x2="335.37503655300793" y1="0" y2="30"/><line opacity="0.2" x1="417.4391214345893" x2="417.4391214345893" y1="0" y2="30"/><line opacity="0.2" x1="314.18812662295636" x2="314.18812662295636" y1="0" y2="30"/><line opacity="0.2" x1="338.23203986930923" x2="338.23203986930923" y1="0" y2="30"/><line opacity="0.2" x1="440.33672224092703" x2="440.33672224092703" y1="0" y2="30"/><line opacity="0.2" x1="375.27573388397803" x2="375.27573388397803" y1="0" y2="30"/><line opacity="0.2" x1="361.1354297712611" x2="361.1354297712611" y1="0" y2="30"/><line opacity="0.2" x1="191.7682086802562" x2="191.7682086802562" y1="0" y2="30"/><line opacity="0.2" x1="344.23350627322526" x2="344.23350627322526" y1="0" y2="30"/><line opacity="0.2" x1="196.05257949361967" x2="196.05257949361967" y1="0" y2="30"/><line opacity="0.2" x1="210.15989554722054" x2="210.15989554722054" y1="0" y2="30"/><line opacity="0.2" x1="332.33424604880986" x2="332.33424604880986" y1="0" y2="30"/><line opacity="0.2" x1="286.6902199550883" x2="286.6902199550883" y1="0" y2="30"/><line opacity="0.2" x1="234.2147470515283" x2="234.2147470515283" y1="0" y2="30"/></g></svg>