<svg xmlns="http://www.w3.org/2000/svg" xmlns:xlink="http://www.w3.org/1999/xlink" class="plot-5f15b92491f01" fill="currentColor" font-family="system-ui, sans-serif" font-size="10" text-anchor="middle" width="640" height="400" viewBox="0 0 640 400" style="color: black;"><style>
        .plot-5f15b92491f01 {
          display: block;
          background: white;
          height: auto;
          height: intrinsic;
          max-width: 100%;
        }
        .plot-5f15b92491f01 text,
        .plot-5f15b92491f01 tspan {
          white-space: pre;
        }
      </style><g aria-label="y-axis tick" fill="none" stroke="currentColor" transform="translate(0,0.5)"><path transform="translate(40,354.2810852641314)" d="M0,0L-6,0"/><path transform="translate(40,314.3089365639875)" d="M0,0L-6,0"/><path transform="translate(40,274.33678786384377)" d="M0,0L-6,0"/><path transform="translate(40,234.3646391636999)" d="M0,0L-6,0"/><path transform="translate(40,194.3924904635561)" d="M0,0L-6,0"/><path transform="translate(40,154.4203417634123)" d="M0,0L-6,0"/><path transform="translate(40,114.44819306326849)" d="M0,0L-6,0"/><path transform="translate(40,74.47604436312466)" d="M0,0L-6,0"/><path transform="translate(40,34.503895662980874)" d="M0,0L-6,0"/></g><g aria-label="y-axis tick label" text-anchor="end" font-variant="tabular-nums" transform="translate(-8.5,0.5)"><text y="0.32em" transform="translate(40,354.2810852641314)">−4</text><text y="0.32em" transform="translate(40,314.3089365639875)">−2</text><text y="0.32em" transform="translate(40,274.33678786384377)">0</text><text y="0.32em" transform="translate(40,234.3646391636999)">2</text><text y="0.32em" transform="translate(40,194.3924904635561)">4</text><text y="0.32em" transform="translate(40,154.4203417634123)">6</text><text y="0.32em" transform="translate(40,114.44819306326849)">8</text><text y="0.32em" transform="translate(40,74.47604436312466)">10</text><text y="0.32em" transform="translate(40,34.503895662980874)">12</text></g><g aria-label="line" fill="none" stroke="currentColor" stroke-width="1.5" stroke-linejoin="round" stroke-linecap="round" transform="translate(0.5,0.5)"><path d="M40,261.721L46.051,234.295L52.101,205.511L58.152,185.907L64.202,128.391L70.253,123.263L76.303,86.288L82.354,110.891L88.404,110.157L94.455,95.537L100.505,51.072L106.556,41.879L112.606,50.69L118.657,35.511L124.707,85.25L130.758,96.896L136.808,75.066L142.859,44.669L148.909,55.319L154.96,20L161.01,22.148L167.061,37.85L173.111,53.712L179.162,70.414L185.212,59.53L191.263,53.512L197.313,54.684L203.364,67.99L209.414,61.982L215.465,72.951L221.515,67.343L227.566,104.959L233.616,69.257L239.667,38.078L245.717,58.666L251.768,80.716L257.818,98.045L263.869,104.581L269.919,90.169L275.97,130.407L282.02,176.521L288.071,154.994L294.121,180.259L300.172,174.037L306.222,177.001L312.273,212.437L318.323,229.113L324.374,246.755L330.424,246.075L336.475,291.041L342.525,303.285L348.576,313.975L354.626,320.815L360.677,311.056L366.727,326.072L372.778,342.542L378.828,352.969L384.879,347.623L390.929,332.013L396.98,332.084L403.03,313.656L409.081,283.941L415.131,293.199L421.182,298.252L427.232,318.234L433.283,326.551L439.333,356.827L445.384,335.736L451.434,332.007L457.485,295.137L463.535,272.837L469.586,263.12L475.636,269.929L481.687,271.935L487.737,302.723L493.788,330.897L499.838,329.241L505.889,322.167L511.939,349.773L517.99,336.146L524.04,315.805L530.091,353.689L536.141,352.656L542.192,380L548.242,367.929L554.293,355.648L560.343,358.496L566.394,343.27L572.444,337.765L578.495,342.316L584.545,303.51L590.596,306.085L596.646,308.518L602.697,291.358L608.747,318.599L614.798,294.852L620.848,346.821L626.899,333.792L632.949,373.279L639,371.105"/></g></svg>