<svg xmlns="http://www.w3.org/2000/svg" xmlns:xlink="http://www.w3.org/1999/xlink" class="plot-d6a7b5" fill="currentColor" font-family="system-ui, sans-serif" font-size="10" text-anchor="middle" width="640" height="400" viewBox="0 0 640 400" style="color: black; background-color: white;"><style>.plot-d6a7b5 {
  display: block;
  background: white;
  height: auto;
  height: intrinsic;
  max-width: 100%;
}
.plot-d6a7b5 text,
.plot-d6a7b5 tspan {
  white-space: pre;
}</style><g aria-label="y-axis tick" fill="none" stroke="currentColor"><path transform="translate(40,364.94585662607454)" d="M0,0L-6,0"/><path transform="translate(40,323.25613840722576)" d="M0,0L-6,0"/><path transform="translate(40,281.56642018837704)" d="M0,0L-6,0"/><path transform="translate(40,239.87670196952828)" d="M0,0L-6,0"/><path transform="translate(40,198.18698375067947)" d="M0,0L-6,0"/><path transform="translate(40,156.4972655318307)" d="M0,0L-6,0"/><path transform="translate(40,114.80754731298194)" d="M0,0L-6,0"/><path transform="translate(40,73.11782909413313)" d="M0,0L-6,0"/><path transform="translate(40,31.42811087528432)" d="M0,0L-6,0"/></g><g aria-label="y-axis tick label" text-anchor="end" font-variant="tabular-nums" transform="translate(-9,0)"><text y="0.32em" transform="translate(40,364.94585662607454)">−1</text><text y="0.32em" transform="translate(40,323.25613840722576)">0</text><text y="0.32em" transform="translate(40,281.56642018837704)">1</text><text y="0.32em" transform="translate(40,239.87670196952828)">2</text><text y="0.32em" transform="translate(40,198.18698375067947)">3</text><text y="0.32em" transform="translate(40,156.4972655318307)">4</text><text y="0.32em" transform="translate(40,114.80754731298194)">5</text><text y="0.32em" transform="translate(40,73.11782909413313)">6</text><text y="0.32em" transform="translate(40,31.42811087528432)">7</text></g><g aria-label="rule" stroke="steelblue"><line x1="40" x2="639.5" y1="323.25613840722576" y2="323.25613840722576"/></g><g aria-label="line" fill="none" stroke="currentColor" stroke-width="1.5" stroke-linejoin="round" stroke-linecap="round"><path d="M40,314.126L46.056,367.875L52.111,376.39L58.167,361.864L64.222,380L70.278,376.899L76.333,314.799L82.389,366.582L88.444,356.291L94.5,259.327L100.556,237.816L106.611,201.537L112.667,165.79L118.722,257.887L124.778,251.06L130.833,278.741L136.889,224.517L142.944,135.061L149,190.948L155.056,135.156L161.111,136.227L167.167,131.192L173.222,147.385L179.278,204L185.333,217.777L191.389,236.118L197.444,183.89L203.5,213.441L209.556,225.115L215.611,213.814L221.667,188.068L227.722,169.438L233.778,177.438L239.833,124.784L245.889,61.976L251.944,86.426L258,20L264.056,123.81L270.111,183.92L276.167,208.726L282.222,284.375L288.278,261.286L294.333,252.326L300.389,283.265L306.444,246.39L312.5,231.028L318.556,208.728L324.611,210.157L330.667,230.2L336.722,241.23L342.778,214.975L348.833,165.044L354.889,182.984L360.944,171.476L367,156.075L373.056,214.915L379.111,240.424L385.167,215.28L391.222,178.144L397.278,151.255L403.333,157.746L409.389,138.435L415.444,152.088L421.5,167.204L427.556,161.789L433.611,239.395L439.667,258.104L445.722,240.413L451.778,204.755L457.833,230.673L463.889,168.106L469.944,229.501L476,235.804L482.056,164.126L488.111,219.141L494.167,171.826L500.222,127.741L506.278,127.462L512.333,198.174L518.389,237.393L524.444,279.105L530.5,252.065L536.556,185.4L542.611,192.295L548.667,213.569L554.722,219.41L560.778,278.038L566.833,202.277L572.889,183.038L578.944,217.455L585,261.363L591.056,194.261L597.111,196.251L603.167,207.219L609.222,220.139L615.278,227.637L621.333,210.6L627.389,260.604L633.444,311.376L639.5,340.604"/></g></svg>