<svg xmlns="http://www.w3.org/2000/svg" xmlns:xlink="http://www.w3.org/1999/xlink" class="plot-afb53a06a4066" fill="currentColor" font-family="system-ui, sans-serif" font-size="10" text-anchor="middle" width="640" height="60" viewBox="0 0 640 60" style="color: black;"><style>
        .plot-afb53a06a4066 {
          display: block;
          background: white;
          height: auto;
          height: intrinsic;
          max-width: 100%;
        }
        .plot-afb53a06a4066 text,
        .plot-afb53a06a4066 tspan {
          white-space: pre;
        }
      </style><g aria-label="x-axis tick" fill="none" stroke="currentColor" transform="translate(0.5,0)"><path transform="translate(90.38130911986445,30)" d="M0,0L0,6"/><path transform="translate(177.36616413097434,30)" d="M0,0L0,6"/><path transform="translate(264.35101914208417,30)" d="M0,0L0,6"/><path transform="translate(351.335874153194,30)" d="M0,0L0,6"/><path transform="translate(438.32072916430405,30)" d="M0,0L0,6"/><path transform="translate(525.3055841754139,30)" d="M0,0L0,6"/><path transform="translate(612.2904391865237,30)" d="M0,0L0,6"/></g><g aria-label="x-axis tick label" font-variant="tabular-nums" transform="translate(0.5,9.5)"><text y="0.71em" transform="translate(90.38130911986445,30)">−3</text><text y="0.71em" transform="translate(177.36616413097434,30)">−2</text><text y="0.71em" transform="translate(264.35101914208417,30)">−1</text><text y="0.71em" transform="translate(351.335874153194,30)">0</text><text y="0.71em" transform="translate(438.32072916430405,30)">1</text><text y="0.71em" transform="translate(525.3055841754139,30)">2</text><text y="0.71em" transform="translate(612.2904391865237,30)">3</text></g><g aria-label="tick" stroke="steelblue" transform="translate(0.5,0)"><line opacity="0.2" x1="366.3866731168299" x2="366.3866731168299" y1="0" y2="30"/><line opacity="0.2" x1="512.5877927727299" x2="512.5877927727299" y1="0" y2="30"/><line opacity="0.2" x1="143.47612542352664" x2="143.47612542352664" y1="0" y2="30"/><line opacity="0.2" x1="427.48824364435546" x2="427.48824364435546" y1="0" y2="30"/><line opacity="0.2" x1="463.60911075003736" x2="463.60911075003736" y1="0" y2="30"/><line opacity="0.2" x1="308.9837272052488" x2="308.9837272052488" y1="0" y2="30"/><line opacity="0.2" x1="348.8807364757231" x2="348.8807364757231" y1="0" y2="30"/><line opacity="0.2" x1="223.27041311346022" x2="223.27041311346022" y1="0" y2="30"/><line opacity="0.2" x1="382.4904750473412" x2="382.4904750473412" y1="0" y2="30"/><line opacity="0.2" x1="442.6918171244678" x2="442.6918171244678" y1="0" y2="30"/><line opacity="0.2" x1="402.32087654802274" x2="402.32087654802274" y1="0" y2="30"/><line opacity="0.2" x1="327.1228840640821" x2="327.1228840640821" y1="0" y2="30"/><line opacity="0.2" x1="266.0718658428491" x2="266.0718658428491" y1="0" y2="30"/><line opacity="0.2" x1="365.854676589825" x2="365.854676589825" y1="0" y2="30"/><line opacity="0.2" x1="407.2753573311947" x2="407.2753573311947" y1="0" y2="30"/><line opacity="0.2" x1="277.639591361567" x2="277.639591361567" y1="0" y2="30"/><line opacity="0.2" x1="451.3330092888031" x2="451.3330092888031" y1="0" y2="30"/><line opacity="0.2" x1="377.90433171951486" x2="377.90433171951486" y1="0" y2="30"/><line opacity="0.2" x1="294.54737342478177" x2="294.54737342478177" y1="0" y2="30"/><line opacity="0.2" x1="463.8185780216116" x2="463.8185780216116" y1="0" y2="30"/><line opacity="0.2" x1="425.6179633014085" x2="425.6179633014085" y1="0" y2="30"/><line opacity="0.2" x1="271.58313014609695" x2="271.58313014609695" y1="0" y2="30"/><line opacity="0.2" x1="359.43559090107783" x2="359.43559090107783" y1="0" y2="30"/><line opacity="0.2" x1="338.82455578764285" x2="338.82455578764285" y1="0" y2="30"/><line opacity="0.2" x1="254.80400275461415" x2="254.80400275461415" y1="0" y2="30"/><line opacity="0.2" x1="380.4498906636653" x2="380.4498906636653" y1="0" y2="30"/><line opacity="0.2" x1="324.38452839059875" x2="324.38452839059875" y1="0" y2="30"/><line opacity="0.2" x1="467.3057222943003" x2="467.3057222943003" y1="0" y2="30"/><line opacity="0.2" x1="381.56683165398925" x2="381.56683165398925" y1="0" y2="30"/><line opacity="0.2" x1="426.1698784878697" x2="426.1698784878697" y1="0" y2="30"/><line opacity="0.2" x1="330.0642023885033" x2="330.0642023885033" y1="0" y2="30"/><line opacity="0.2" x1="375.6872976081036" x2="375.6872976081036" y1="0" y2="30"/><line opacity="0.2" x1="267.47164685998877" x2="267.47164685998877" y1="0" y2="30"/><line opacity="0.2" x1="380.6741388789285" x2="380.6741388789285" y1="0" y2="30"/><line opacity="0.2" x1="552.4866615939071" x2="552.4866615939071" y1="0" y2="30"/><line opacity="0.2" x1="282.9304789068126" x2="282.9304789068126" y1="0" y2="30"/><line opacity="0.2" x1="404.82793261391026" x2="404.82793261391026" y1="0" y2="30"/><line opacity="0.2" x1="322.74546988959486" x2="322.74546988959486" y1="0" y2="30"/><line opacity="0.2" x1="339.8720156292611" x2="339.8720156292611" y1="0" y2="30"/><line opacity="0.2" x1="358.76000376521097" x2="358.76000376521097" y1="0" y2="30"/><line opacity="0.2" x1="358.2694611127698" x2="358.2694611127698" y1="0" y2="30"/><line opacity="0.2" x1="390.9333006113655" x2="390.9333006113655" y1="0" y2="30"/><line opacity="0.2" x1="377.09881889640815" x2="377.09881889640815" y1="0" y2="30"/><line opacity="0.2" x1="474.72781816353086" x2="474.72781816353086" y1="0" y2="30"/><line opacity="0.2" x1="277.2736229680868" x2="277.2736229680868" y1="0" y2="30"/><line opacity="0.2" x1="375.2383695072873" x2="375.2383695072873" y1="0" y2="30"/><line opacity="0.2" x1="313.5407614265979" x2="313.5407614265979" y1="0" y2="30"/><line opacity="0.2" x1="375.1317866013414" x2="375.1317866013414" y1="0" y2="30"/><line opacity="0.2" x1="367.4177266412152" x2="367.4177266412152" y1="0" y2="30"/><line opacity="0.2" x1="282.3456036313473" x2="282.3456036313473" y1="0" y2="30"/><line opacity="0.2" x1="450.4481186099978" x2="450.4481186099978" y1="0" y2="30"/><line opacity="0.2" x1="325.39370580920144" x2="325.39370580920144" y1="0" y2="30"/><line opacity="0.2" x1="359.40863731370195" x2="359.40863731370195" y1="0" y2="30"/><line opacity="0.2" x1="440.68017933828037" x2="440.68017933828037" y1="0" y2="30"/><line opacity="0.2" x1="294.25504742794124" x2="294.25504742794124" y1="0" y2="30"/><line opacity="0.2" x1="368.8799822405153" x2="368.8799822405153" y1="0" y2="30"/><line opacity="0.2" x1="370.4957328225833" x2="370.4957328225833" y1="0" y2="30"/><line opacity="0.2" x1="217.84286019653732" x2="217.84286019653732" y1="0" y2="30"/><line opacity="0.2" x1="275.20731241211627" x2="275.20731241211627" y1="0" y2="30"/><line opacity="0.2" x1="358.4020906857295" x2="358.4020906857295" y1="0" y2="30"/><line opacity="0.2" x1="276.2048101665363" x2="276.2048101665363" y1="0" y2="30"/><line opacity="0.2" x1="421.4792323683881" x2="421.4792323683881" y1="0" y2="30"/><line opacity="0.2" x1="370.63137168694453" x2="370.63137168694453" y1="0" y2="30"/><line opacity="0.2" x1="438.56508112900764" x2="438.56508112900764" y1="0" y2="30"/><line opacity="0.2" x1="397.12202998145494" x2="397.12202998145494" y1="0" y2="30"/><line opacity="0.2" x1="460.41718237537054" x2="460.41718237537054" y1="0" y2="30"/><line opacity="0.2" x1="263.63150283411704" x2="263.63150283411704" y1="0" y2="30"/><line opacity="0.2" x1="399.7725859404495" x2="399.7725859404495" y1="0" y2="30"/><line opacity="0.2" x1="444.1428804015796" x2="444.1428804015796" y1="0" y2="30"/><line opacity="0.2" x1="368.0020054025569" x2="368.0020054025569" y1="0" y2="30"/><line opacity="0.2" x1="259.9048782949249" x2="259.9048782949249" y1="0" y2="30"/><line opacity="0.2" x1="382.19214927174767" x2="382.19214927174767" y1="0" y2="30"/><line opacity="0.2" x1="253.4502075103837" x2="253.4502075103837" y1="0" y2="30"/><line opacity="0.2" x1="401.1583137328442" x2="401.1583137328442" y1="0" y2="30"/><line opacity="0.2" x1="285.441240551943" x2="285.441240551943" y1="0" y2="30"/><line opacity="0.2" x1="317.09498849357306" x2="317.09498849357306" y1="0" y2="30"/><line opacity="0.2" x1="511.4072525482348" x2="511.4072525482348" y1="0" y2="30"/><line opacity="0.2" x1="492.6591810271833" x2="492.6591810271833" y1="0" y2="30"/><line opacity="0.2" x1="285.05048266933875" x2="285.05048266933875" y1="0" y2="30"/><line opacity="0.2" x1="289.81359803372686" x2="289.81359803372686" y1="0" y2="30"/><line opacity="0.2" x1="224.38256364175055" x2="224.38256364175055" y1="0" y2="30"/><line opacity="0.2" x1="296.132251055569" x2="296.132251055569" y1="0" y2="30"/><line opacity="0.2" x1="268.6283452984679" x2="268.6283452984679" y1="0" y2="30"/><line opacity="0.2" x1="260.2292812457745" x2="260.2292812457745" y1="0" y2="30"/><line opacity="0.2" x1="331.71269385212236" x2="331.71269385212236" y1="0" y2="30"/><line opacity="0.2" x1="243.74013917680935" x2="243.74013917680935" y1="0" y2="30"/><line opacity="0.2" x1="297.83109106005435" x2="297.83109106005435" y1="0" y2="30"/><line opacity="0.2" x1="266.5978813276091" x2="266.5978813276091" y1="0" y2="30"/><line opacity="0.2" x1="410.72676781239613" x2="410.72676781239613" y1="0" y2="30"/><line opacity="0.2" x1="400.5620354820727" x2="400.5620354820727" y1="0" y2="30"/><line opacity="0.2" x1="392.33312384501284" x2="392.33312384501284" y1="0" y2="30"/><line opacity="0.2" x1="353.97177566311757" x2="353.97177566311757" y1="0" y2="30"/><line opacity="0.2" x1="381.23403782576355" x2="381.23403782576355" y1="0" y2="30"/><line opacity="0.2" x1="238.44234101415304" x2="238.44234101415304" y1="0" y2="30"/><line opacity="0.2" x1="473.2056000693486" x2="473.2056000693486" y1="0" y2="30"/><line opacity="0.2" x1="399.6032289512983" x2="399.6032289512983" y1="0" y2="30"/><line opacity="0.2" x1="318.57877843123526" x2="318.57877843123526" y1="0" y2="30"/><line opacity="0.2" x1="456.82302686302165" x2="456.82302686302165" y1="0" y2="30"/><line opacity="0.2" x1="523.0915058546653" x2="523.0915058546653" y1="0" y2="30"/><line opacity="0.2" x1="376.6019877401455" x2="376.6019877401455" y1="0" y2="30"/><line opacity="0.2" x1="387.1974661648615" x2="387.1974661648615" y1="0" y2="30"/><line opacity="0.2" x1="340.4386760421927" x2="340.4386760421927" y1="0" y2="30"/><line opacity="0.2" x1="199.5334357963397" x2="199.5334357963397" y1="0" y2="30"/><line opacity="0.2" x1="243.31911497807016" x2="243.31911497807016" y1="0" y2="30"/><line opacity="0.2" x1="339.0328902796144" x2="339.0328902796144" y1="0" y2="30"/><line opacity="0.2" x1="363.6545059916148" x2="363.6545059916148" y1="0" y2="30"/><line opacity="0.2" x1="414.53345673377504" x2="414.53345673377504" y1="0" y2="30"/><line opacity="0.2" x1="292.8901708552889" x2="292.8901708552889" y1="0" y2="30"/><line opacity="0.2" x1="222.44862884425652" x2="222.44862884425652" y1="0" y2="30"/><line opacity="0.2" x1="513.3848092716916" x2="513.3848092716916" y1="0" y2="30"/><line opacity="0.2" x1="256.9240572965009" x2="256.9240572965009" y1="0" y2="30"/><line opacity="0.2" x1="306.76567082772135" x2="306.76567082772135" y1="0" y2="30"/><line opacity="0.2" x1="213.27746132341838" x2="213.27746132341838" y1="0" y2="30"/><line opacity="0.2" x1="307.84274578103145" x2="307.84274578103145" y1="0" y2="30"/><line opacity="0.2" x1="240.8165255618793" x2="240.8165255618793" y1="0" y2="30"/><line opacity="0.2" x1="256.6692134025069" x2="256.6692134025069" y1="0" y2="30"/><line opacity="0.2" x1="372.265665122005" x2="372.265665122005" y1="0" y2="30"/><line opacity="0.2" x1="240.10746340616342" x2="240.10746340616342" y1="0" y2="30"/><line opacity="0.2" x1="300.63076178697577" x2="300.63076178697577" y1="0" y2="30"/><line opacity="0.2" x1="304.30557340828045" x2="304.30557340828045" y1="0" y2="30"/><line opacity="0.2" x1="444.59605032280155" x2="444.59605032280155" y1="0" y2="30"/><line opacity="0.2" x1="519.2270225997058" x2="519.2270225997058" y1="0" y2="30"/><line opacity="0.2" x1="512.5791845939275" x2="512.5791845939275" y1="0" y2="30"/><line opacity="0.2" x1="280.6200222722769" x2="280.6200222722769" y1="0" y2="30"/><line opacity="0.2" x1="267.5049808937088" x2="267.5049808937088" y1="0" y2="30"/><line opacity="0.2" x1="336.48786441552056" x2="336.48786441552056" y1="0" y2="30"/><line opacity="0.2" x1="420.29754731060115" x2="420.29754731060115" y1="0" y2="30"/><line opacity="0.2" x1="397.44401691939" x2="397.44401691939" y1="0" y2="30"/><line opacity="0.2" x1="470.47655084500997" x2="470.47655084500997" y1="0" y2="30"/><line opacity="0.2" x1="369.0306923789673" x2="369.0306923789673" y1="0" y2="30"/><line opacity="0.2" x1="290.6361055572735" x2="290.6361055572735" y1="0" y2="30"/><line opacity="0.2" x1="243.6995717083657" x2="243.6995717083657" y1="0" y2="30"/><line opacity="0.2" x1="330.931889006506" x2="330.931889006506" y1="0" y2="30"/><line opacity="0.2" x1="378.01845655676374" x2="378.01845655676374" y1="0" y2="30"/><line opacity="0.2" x1="540.340234672039" x2="540.340234672039" y1="0" y2="30"/><line opacity="0.2" x1="285.9172231144415" x2="285.9172231144415" y1="0" y2="30"/><line opacity="0.2" x1="367.7661814047277" x2="367.7661814047277" y1="0" y2="30"/><line opacity="0.2" x1="530.3196726160007" x2="530.3196726160007" y1="0" y2="30"/><line opacity="0.2" x1="397.86874510630963" x2="397.86874510630963" y1="0" y2="30"/><line opacity="0.2" x1="423.2187212683822" x2="423.2187212683822" y1="0" y2="30"/><line opacity="0.2" x1="430.36887693505605" x2="430.36887693505605" y1="0" y2="30"/><line opacity="0.2" x1="405.6995623738176" x2="405.6995623738176" y1="0" y2="30"/><line opacity="0.2" x1="205.60323889642692" x2="205.60323889642692" y1="0" y2="30"/><line opacity="0.2" x1="335.71538171095506" x2="335.71538171095506" y1="0" y2="30"/><line opacity="0.2" x1="252.42481447368604" x2="252.42481447368604" y1="0" y2="30"/><line opacity="0.2" x1="306.5519004729269" x2="306.5519004729269" y1="0" y2="30"/><line opacity="0.2" x1="379.25045881815635" x2="379.25045881815635" y1="0" y2="30"/><line opacity="0.2" x1="507.9205739697063" x2="507.9205739697063" y1="0" y2="30"/><line opacity="0.2" x1="303.3359638884686" x2="303.3359638884686" y1="0" y2="30"/><line opacity="0.2" x1="346.73006321163604" x2="346.73006321163604" y1="0" y2="30"/><line opacity="0.2" x1="384.6413902225849" x2="384.6413902225849" y1="0" y2="30"/><line opacity="0.2" x1="329.84255460326256" x2="329.84255460326256" y1="0" y2="30"/><line opacity="0.2" x1="212.63187071505016" x2="212.63187071505016" y1="0" y2="30"/><line opacity="0.2" x1="370.8347922653812" x2="370.8347922653812" y1="0" y2="30"/><line opacity="0.2" x1="239.37629698953677" x2="239.37629698953677" y1="0" y2="30"/><line opacity="0.2" x1="450.275685005844" x2="450.275685005844" y1="0" y2="30"/><line opacity="0.2" x1="423.25744474781305" x2="423.25744474781305" y1="0" y2="30"/><line opacity="0.2" x1="319.96698836389766" x2="319.96698836389766" y1="0" y2="30"/><line opacity="0.2" x1="339.3119040151519" x2="339.3119040151519" y1="0" y2="30"/><line opacity="0.2" x1="360.07034842203655" x2="360.07034842203655" y1="0" y2="30"/><line opacity="0.2" x1="348.7399526845415" x2="348.7399526845415" y1="0" y2="30"/><line opacity="0.2" x1="500.3187764688684" x2="500.3187764688684" y1="0" y2="30"/><line opacity="0.2" x1="435.62890601270425" x2="435.62890601270425" y1="0" y2="30"/><line opacity="0.2" x1="319.95895634382384" x2="319.95895634382384" y1="0" y2="30"/><line opacity="0.2" x1="327.0309413628112" x2="327.0309413628112" y1="0" y2="30"/><line opacity="0.2" x1="427.9008093227301" x2="427.9008093227301" y1="0" y2="30"/><line opacity="0.2" x1="305.49588144416714" x2="305.49588144416714" y1="0" y2="30"/><line opacity="0.2" x1="438.31052776794286" x2="438.31052776794286" y1="0" y2="30"/><line opacity="0.2" x1="360.93949943719235" x2="360.93949943719235" y1="0" y2="30"/><line opacity="0.2" x1="193.36666378439085" x2="193.36666378439085" y1="0" y2="30"/><line opacity="0.2" x1="321.0898611842282" x2="321.0898611842282" y1="0" y2="30"/><line opacity="0.2" x1="378.28290042502937" x2="378.28290042502937" y1="0" y2="30"/><line opacity="0.2" x1="219.07768370426163" x2="219.07768370426163" y1="0" y2="30"/><line opacity="0.2" x1="313.60943673430194" x2="313.60943673430194" y1="0" y2="30"/><line opacity="0.2" x1="335.43559357411664" x2="335.43559357411664" y1="0" y2="30"/><line opacity="0.2" x1="339.2714425411846" x2="339.2714425411846" y1="0" y2="30"/><line opacity="0.2" x1="375.12426634495534" x2="375.12426634495534" y1="0" y2="30"/><line opacity="0.2" x1="493.46129628274633" x2="493.46129628274633" y1="0" y2="30"/><line opacity="0.2" x1="180.23437472590152" x2="180.23437472590152" y1="0" y2="30"/><line opacity="0.2" x1="354.6183481760701" x2="354.6183481760701" y1="0" y2="30"/><line opacity="0.2" x1="266.5236153258604" x2="266.5236153258604" y1="0" y2="30"/><line opacity="0.2" x1="448.91251849596085" x2="448.91251849596085" y1="0" y2="30"/><line opacity="0.2" x1="353.0183833045045" x2="353.0183833045045" y1="0" y2="30"/><line opacity="0.2" x1="417.5494928244561" x2="417.5494928244561" y1="0" y2="30"/><line opacity="0.2" x1="365.2035867352514" x2="365.2035867352514" y1="0" y2="30"/><line opacity="0.2" x1="390.4855074259163" x2="390.4855074259163" y1="0" y2="30"/><line opacity="0.2" x1="166.18663130681622" x2="166.18663130681622" y1="0" y2="30"/><line opacity="0.2" x1="146.552698909787" x2="146.552698909787" y1="0" y2="30"/><line opacity="0.2" x1="143.8507325212845" x2="143.8507325212845" y1="0" y2="30"/><line opacity="0.2" x1="458.33816354369" x2="458.33816354369" y1="0" y2="30"/><line opacity="0.2" x1="339.42897192606915" x2="339.42897192606915" y1="0" y2="30"/><line opacity="0.2" x1="343.23181766002415" x2="343.23181766002415" y1="0" y2="30"/><line opacity="0.2" x1="306.67581745560693" x2="306.67581745560693" y1="0" y2="30"/><line opacity="0.2" x1="506.0933506989394" x2="506.0933506989394" y1="0" y2="30"/><line opacity="0.2" x1="378.5206010270039" x2="378.5206010270039" y1="0" y2="30"/><line opacity="0.2" x1="302.277251272249" x2="302.277251272249" y1="0" y2="30"/><line opacity="0.2" x1="353.262382728081" x2="353.262382728081" y1="0" y2="30"/><line opacity="0.2" x1="178.33695672228012" x2="178.33695672228012" y1="0" y2="30"/><line opacity="0.2" x1="420.51204903743184" x2="420.51204903743184" y1="0" y2="30"/><line opacity="0.2" x1="373.6004044089206" x2="373.6004044089206" y1="0" y2="30"/><line opacity="0.2" x1="375.75041000199695" x2="375.75041000199695" y1="0" y2="30"/><line opacity="0.2" x1="429.4363614217881" x2="429.4363614217881" y1="0" y2="30"/><line opacity="0.2" x1="358.39807838952675" x2="358.39807838952675" y1="0" y2="30"/><line opacity="0.2" x1="377.0263046840599" x2="377.0263046840599" y1="0" y2="30"/><line opacity="0.2" x1="231.42925458104332" x2="231.42925458104332" y1="0" y2="30"/><line opacity="0.2" x1="380.4475109372933" x2="380.4475109372933" y1="0" y2="30"/><line opacity="0.2" x1="504.93355584772326" x2="504.93355584772326" y1="0" y2="30"/><line opacity="0.2" x1="207.8553930019482" x2="207.8553930019482" y1="0" y2="30"/><line opacity="0.2" x1="524.9998610670161" x2="524.9998610670161" y1="0" y2="30"/><line opacity="0.2" x1="367.3943981071024" x2="367.3943981071024" y1="0" y2="30"/><line opacity="0.2" x1="375.91897884979085" x2="375.91897884979085" y1="0" y2="30"/><line opacity="0.2" x1="403.6603973895047" x2="403.6603973895047" y1="0" y2="30"/><line opacity="0.2" x1="478.3172756563424" x2="478.3172756563424" y1="0" y2="30"/><line opacity="0.2" x1="207.06236624097636" x2="207.06236624097636" y1="0" y2="30"/><line opacity="0.2" x1="422.51979772935914" x2="422.51979772935914" y1="0" y2="30"/><line opacity="0.2" x1="236.20771267108867" x2="236.20771267108867" y1="0" y2="30"/><line opacity="0.2" x1="353.0903750353868" x2="353.0903750353868" y1="0" y2="30"/><line opacity="0.2" x1="541.6165928240081" x2="541.6165928240081" y1="0" y2="30"/><line opacity="0.2" x1="401.5570467455691" x2="401.5570467455691" y1="0" y2="30"/><line opacity="0.2" x1="360.63959496082066" x2="360.63959496082066" y1="0" y2="30"/><line opacity="0.2" x1="349.59763625826344" x2="349.59763625826344" y1="0" y2="30"/><line opacity="0.2" x1="349.0038661552526" x2="349.0038661552526" y1="0" y2="30"/><line opacity="0.2" x1="257.16069252639943" x2="257.16069252639943" y1="0" y2="30"/><line opacity="0.2" x1="293.941114739919" x2="293.941114739919" y1="0" y2="30"/><line opacity="0.2" x1="389.90934768975353" x2="389.90934768975353" y1="0" y2="30"/><line opacity="0.2" x1="253.1657523976193" x2="253.1657523976193" y1="0" y2="30"/><line opacity="0.2" x1="207.15861100166626" x2="207.15861100166626" y1="0" y2="30"/><line opacity="0.2" x1="514.179139504353" x2="514.179139504353" y1="0" y2="30"/><line opacity="0.2" x1="175.0956881466931" x2="175.0956881466931" y1="0" y2="30"/><line opacity="0.2" x1="252.3606308439284" x2="252.3606308439284" y1="0" y2="30"/><line opacity="0.2" x1="303.22036642313446" x2="303.22036642313446" y1="0" y2="30"/><line opacity="0.2" x1="238.3970300412792" x2="238.3970300412792" y1="0" y2="30"/><line opacity="0.2" x1="279.2020175920021" x2="279.2020175920021" y1="0" y2="30"/><line opacity="0.2" x1="584.3458155293554" x2="584.3458155293554" y1="0" y2="30"/><line opacity="0.2" x1="406.47016975146323" x2="406.47016975146323" y1="0" y2="30"/><line opacity="0.2" x1="474.4288435272715" x2="474.4288435272715" y1="0" y2="30"/><line opacity="0.2" x1="167.2975618396193" x2="167.2975618396193" y1="0" y2="30"/><line opacity="0.2" x1="366.52429130389896" x2="366.52429130389896" y1="0" y2="30"/><line opacity="0.2" x1="373.2900377809646" x2="373.2900377809646" y1="0" y2="30"/><line opacity="0.2" x1="422.03809902755415" x2="422.03809902755415" y1="0" y2="30"/><line opacity="0.2" x1="403.3051626056895" x2="403.3051626056895" y1="0" y2="30"/><line opacity="0.2" x1="447.97020106798374" x2="447.97020106798374" y1="0" y2="30"/><line opacity="0.2" x1="320.5337905356564" x2="320.5337905356564" y1="0" y2="30"/><line opacity="0.2" x1="370.59352514275577" x2="370.59352514275577" y1="0" y2="30"/><line opacity="0.2" x1="446.7213435961916" x2="446.7213435961916" y1="0" y2="30"/><line opacity="0.2" x1="324.771382025711" x2="324.771382025711" y1="0" y2="30"/><line opacity="0.2" x1="448.8815199486449" x2="448.8815199486449" y1="0" y2="30"/><line opacity="0.2" x1="337.42832832603557" x2="337.42832832603557" y1="0" y2="30"/><line opacity="0.2" x1="212.08265998046502" x2="212.08265998046502" y1="0" y2="30"/><line opacity="0.2" x1="287.9181318010666" x2="287.9181318010666" y1="0" y2="30"/><line opacity="0.2" x1="315.733771356098" x2="315.733771356098" y1="0" y2="30"/><line opacity="0.2" x1="399.8451034614228" x2="399.8451034614228" y1="0" y2="30"/><line opacity="0.2" x1="293.5055971804688" x2="293.5055971804688" y1="0" y2="30"/><line opacity="0.2" x1="341.8045664669062" x2="341.8045664669062" y1="0" y2="30"/><line opacity="0.2" x1="466.11548611510216" x2="466.11548611510216" y1="0" y2="30"/><line opacity="0.2" x1="207.2031689230713" x2="207.2031689230713" y1="0" y2="30"/><line opacity="0.2" x1="244.37618922465913" x2="244.37618922465913" y1="0" y2="30"/><line opacity="0.2" x1="439.96592562306137" x2="439.96592562306137" y1="0" y2="30"/><line opacity="0.2" x1="268.768894533029" x2="268.768894533029" y1="0" y2="30"/><line opacity="0.2" x1="240.6349647515057" x2="240.6349647515057" y1="0" y2="30"/><line opacity="0.2" x1="356.93519022222114" x2="356.93519022222114" y1="0" y2="30"/><line opacity="0.2" x1="487.93960322021866" x2="487.93960322021866" y1="0" y2="30"/><line opacity="0.2" x1="487.46194746161" x2="487.46194746161" y1="0" y2="30"/><line opacity="0.2" x1="442.7004783874324" x2="442.7004783874324" y1="0" y2="30"/><line opacity="0.2" x1="429.1167708409573" x2="429.1167708409573" y1="0" y2="30"/><line opacity="0.2" x1="327.9308615030346" x2="327.9308615030346" y1="0" y2="30"/><line opacity="0.2" x1="318.5280969371062" x2="318.5280969371062" y1="0" y2="30"/><line opacity="0.2" x1="177.68980333933425" x2="177.68980333933425" y1="0" y2="30"/><line opacity="0.2" x1="378.69148956027743" x2="378.69148956027743" y1="0" y2="30"/><line opacity="0.2" x1="329.10371775476375" x2="329.10371775476375" y1="0" y2="30"/><line opacity="0.2" x1="323.8149379496891" x2="323.8149379496891" y1="0" y2="30"/><line opacity="0.2" x1="308.756395761408" x2="308.756395761408" y1="0" y2="30"/><line opacity="0.2" x1="439.61793951007786" x2="439.61793951007786" y1="0" y2="30"/><line opacity="0.2" x1="488.4521849643729" x2="488.4521849643729" y1="0" y2="30"/><line opacity="0.2" x1="263.9312391381975" x2="263.9312391381975" y1="0" y2="30"/><line opacity="0.2" x1="210.37700687369636" x2="210.37700687369636" y1="0" y2="30"/><line opacity="0.2" x1="461.5631264318117" x2="461.5631264318117" y1="0" y2="30"/><line opacity="0.2" x1="231.91403040944093" x2="231.91403040944093" y1="0" y2="30"/><line opacity="0.2" x1="405.93259622157376" x2="405.93259622157376" y1="0" y2="30"/><line opacity="0.2" x1="353.9203542764867" x2="353.9203542764867" y1="0" y2="30"/><line opacity="0.2" x1="534.3266971022689" x2="534.3266971022689" y1="0" y2="30"/><line opacity="0.2" x1="313.5642040560143" x2="313.5642040560143" y1="0" y2="30"/><line opacity="0.2" x1="333.9209233749739" x2="333.9209233749739" y1="0" y2="30"/><line opacity="0.2" x1="283.2732905862594" x2="283.2732905862594" y1="0" y2="30"/><line opacity="0.2" x1="285.34803086976945" x2="285.34803086976945" y1="0" y2="30"/><line opacity="0.2" x1="335.4007073391741" x2="335.4007073391741" y1="0" y2="30"/><line opacity="0.2" x1="543.7034162573149" x2="543.7034162573149" y1="0" y2="30"/><line opacity="0.2" x1="262.10154004631727" x2="262.10154004631727" y1="0" y2="30"/><line opacity="0.2" x1="380.0904271712948" x2="380.0904271712948" y1="0" y2="30"/><line opacity="0.2" x1="435.22148572016954" x2="435.22148572016954" y1="0" y2="30"/><line opacity="0.2" x1="282.627826567095" x2="282.627826567095" y1="0" y2="30"/><line opacity="0.2" x1="496.8142534069962" x2="496.8142534069962" y1="0" y2="30"/><line opacity="0.2" x1="319.50599414040875" x2="319.50599414040875" y1="0" y2="30"/><line opacity="0.2" x1="374.0823794921385" x2="374.0823794921385" y1="0" y2="30"/><line opacity="0.2" x1="432.0723730041458" x2="432.0723730041458" y1="0" y2="30"/><line opacity="0.2" x1="374.35376107161426" x2="374.35376107161426" y1="0" y2="30"/><line opacity="0.2" x1="440.52128625593485" x2="440.52128625593485" y1="0" y2="30"/><line opacity="0.2" x1="297.55106850777804" x2="297.55106850777804" y1="0" y2="30"/><line opacity="0.2" x1="324.5481315936937" x2="324.5481315936937" y1="0" y2="30"/><line opacity="0.2" x1="335.00185334576537" x2="335.00185334576537" y1="0" y2="30"/><line opacity="0.2" x1="425.6310811472934" x2="425.6310811472934" y1="0" y2="30"/><line opacity="0.2" x1="395.16268463624834" x2="395.16268463624834" y1="0" y2="30"/><line opacity="0.2" x1="374.23691159632085" x2="374.23691159632085" y1="0" y2="30"/><line opacity="0.2" x1="423.32908068426747" x2="423.32908068426747" y1="0" y2="30"/><line opacity="0.2" x1="424.2191443976511" x2="424.2191443976511" y1="0" y2="30"/><line opacity="0.2" x1="305.8442347723368" x2="305.8442347723368" y1="0" y2="30"/><line opacity="0.2" x1="352.2223744050025" x2="352.2223744050025" y1="0" y2="30"/><line opacity="0.2" x1="256.266879030945" x2="256.266879030945" y1="0" y2="30"/><line opacity="0.2" x1="403.2675163397189" x2="403.2675163397189" y1="0" y2="30"/><line opacity="0.2" x1="424.45088153139756" x2="424.45088153139756" y1="0" y2="30"/><line opacity="0.2" x1="295.6958576554876" x2="295.6958576554876" y1="0" y2="30"/><line opacity="0.2" x1="415.47093698687763" x2="415.47093698687763" y1="0" y2="30"/><line opacity="0.2" x1="396.21175887259056" x2="396.21175887259056" y1="0" y2="30"/><line opacity="0.2" x1="269.6922041529638" x2="269.6922041529638" y1="0" y2="30"/><line opacity="0.2" x1="259.5157541163417" x2="259.5157541163417" y1="0" y2="30"/><line opacity="0.2" x1="236.11683904679296" x2="236.11683904679296" y1="0" y2="30"/><line opacity="0.2" x1="485.1819330292755" x2="485.1819330292755" y1="0" y2="30"/><line opacity="0.2" x1="483.0562508624832" x2="483.0562508624832" y1="0" y2="30"/><line opacity="0.2" x1="391.0368854711905" x2="391.0368854711905" y1="0" y2="30"/><line opacity="0.2" x1="414.29192513049657" x2="414.29192513049657" y1="0" y2="30"/><line opacity="0.2" x1="361.34953051020705" x2="361.34953051020705" y1="0" y2="30"/><line opacity="0.2" x1="422.2077421097103" x2="422.2077421097103" y1="0" y2="30"/><line opacity="0.2" x1="481.5969081305605" x2="481.5969081305605" y1="0" y2="30"/><line opacity="0.2" x1="360.85692814196784" x2="360.85692814196784" y1="0" y2="30"/><line opacity="0.2" x1="485.75393803091765" x2="485.75393803091765" y1="0" y2="30"/><line opacity="0.2" x1="318.8619762576591" x2="318.8619762576591" y1="0" y2="30"/><line opacity="0.2" x1="478.2032492371951" x2="478.2032492371951" y1="0" y2="30"/><line opacity="0.2" x1="332.8759308283897" x2="332.8759308283897" y1="0" y2="30"/><line opacity="0.2" x1="395.80871062669917" x2="395.80871062669917" y1="0" y2="30"/><line opacity="0.2" x1="322.04921889809384" x2="322.04921889809384" y1="0" y2="30"/><line opacity="0.2" x1="351.5549462802755" x2="351.5549462802755" y1="0" y2="30"/><line opacity="0.2" x1="319.26215479002457" x2="319.26215479002457" y1="0" y2="30"/><line opacity="0.2" x1="229.8493814016918" x2="229.8493814016918" y1="0" y2="30"/><line opacity="0.2" x1="312.4078257083361" x2="312.4078257083361" y1="0" y2="30"/><line opacity="0.2" x1="226.9126262696585" x2="226.9126262696585" y1="0" y2="30"/><line opacity="0.2" x1="358.69695656640977" x2="358.69695656640977" y1="0" y2="30"/><line opacity="0.2" x1="261.6270040496673" x2="261.6270040496673" y1="0" y2="30"/><line opacity="0.2" x1="397.946181334921" x2="397.946181334921" y1="0" y2="30"/><line opacity="0.2" x1="295.6629898018419" x2="295.6629898018419" y1="0" y2="30"/><line opacity="0.2" x1="227.35806723942196" x2="227.35806723942196" y1="0" y2="30"/><line opacity="0.2" x1="253.9190697527637" x2="253.9190697527637" y1="0" y2="30"/><line opacity="0.2" x1="293.029073364772" x2="293.029073364772" y1="0" y2="30"/><line opacity="0.2" x1="620" x2="620" y1="0" y2="30"/><line opacity="0.2" x1="266.14110266819733" x2="266.14110266819733" y1="0" y2="30"/><line opacity="0.2" x1="364.29405472833224" x2="364.29405472833224" y1="0" y2="30"/><line opacity="0.2" x1="352.38283277346386" x2="352.38283277346386" y1="0" y2="30"/><line opacity="0.2" x1="322.5606519832866" x2="322.5606519832866" y1="0" y2="30"/><line opacity="0.2" x1="338.36790714178727" x2="338.36790714178727" y1="0" y2="30"/><line opacity="0.2" x1="410.00860873629097" x2="410.00860873629097" y1="0" y2="30"/><line opacity="0.2" x1="284.97440380339896" x2="284.97440380339896" y1="0" y2="30"/><line opacity="0.2" x1="415.0801320763218" x2="415.0801320763218" y1="0" y2="30"/><line opacity="0.2" x1="311.4586341709556" x2="311.4586341709556" y1="0" y2="30"/><line opacity="0.2" x1="354.0148484931881" x2="354.0148484931881" y1="0" y2="30"/><line opacity="0.2" x1="478.4905405164866" x2="478.4905405164866" y1="0" y2="30"/><line opacity="0.2" x1="381.9329876203255" x2="381.9329876203255" y1="0" y2="30"/><line opacity="0.2" x1="221.12309323889656" x2="221.12309323889656" y1="0" y2="30"/><line opacity="0.2" x1="435.9372517423464" x2="435.9372517423464" y1="0" y2="30"/><line opacity="0.2" x1="220.5915580593346" x2="220.5915580593346" y1="0" y2="30"/><line opacity="0.2" x1="281.7514732169218" x2="281.7514732169218" y1="0" y2="30"/><line opacity="0.2" x1="350.70536919183104" x2="350.70536919183104" y1="0" y2="30"/><line opacity="0.2" x1="432.1744507237819" x2="432.1744507237819" y1="0" y2="30"/><line opacity="0.2" x1="254.70251455118157" x2="254.70251455118157" y1="0" y2="30"/><line opacity="0.2" x1="457.3206782984488" x2="457.3206782984488" y1="0" y2="30"/><line opacity="0.2" x1="414.3582195871649" x2="414.3582195871649" y1="0" y2="30"/><line opacity="0.2" x1="311.21843652603184" x2="311.21843652603184" y1="0" y2="30"/><line opacity="0.2" x1="446.43874726098545" x2="446.43874726098545" y1="0" y2="30"/><line opacity="0.2" x1="298.16497056715525" x2="298.16497056715525" y1="0" y2="30"/><line opacity="0.2" x1="400.2559614235024" x2="400.2559614235024" y1="0" y2="30"/><line opacity="0.2" x1="339.98823907150137" x2="339.98823907150137" y1="0" y2="30"/><line opacity="0.2" x1="187.44871392496557" x2="187.44871392496557" y1="0" y2="30"/><line opacity="0.2" x1="308.687893337286" x2="308.687893337286" y1="0" y2="30"/><line opacity="0.2" x1="379.37458001706375" x2="379.37458001706375" y1="0" y2="30"/><line opacity="0.2" x1="503.9594342628348" x2="503.9594342628348" y1="0" y2="30"/><line opacity="0.2" x1="403.0316337583829" x2="403.0316337583829" y1="0" y2="30"/><line opacity="0.2" x1="373.88199205873667" x2="373.88199205873667" y1="0" y2="30"/><line opacity="0.2" x1="391.8010274338331" x2="391.8010274338331" y1="0" y2="30"/><line opacity="0.2" x1="224.9518840689394" x2="224.9518840689394" y1="0" y2="30"/><line opacity="0.2" x1="381.48362570046356" x2="381.48362570046356" y1="0" y2="30"/><line opacity="0.2" x1="413.32948530568694" x2="413.32948530568694" y1="0" y2="30"/><line opacity="0.2" x1="361.34686262118015" x2="361.34686262118015" y1="0" y2="30"/><line opacity="0.2" x1="367.2683395468011" x2="367.2683395468011" y1="0" y2="30"/><line opacity="0.2" x1="452.5536951928777" x2="452.5536951928777" y1="0" y2="30"/><line opacity="0.2" x1="404.2467818133668" x2="404.2467818133668" y1="0" y2="30"/><line opacity="0.2" x1="488.9709508372967" x2="488.9709508372967" y1="0" y2="30"/><line opacity="0.2" x1="529.174208105872" x2="529.174208105872" y1="0" y2="30"/><line opacity="0.2" x1="204.6617802873968" x2="204.6617802873968" y1="0" y2="30"/><line opacity="0.2" x1="379.5821368775431" x2="379.5821368775431" y1="0" y2="30"/><line opacity="0.2" x1="508.748759763438" x2="508.748759763438" y1="0" y2="30"/><line opacity="0.2" x1="440.14425137734236" x2="440.14425137734236" y1="0" y2="30"/><line opacity="0.2" x1="244.52499457328346" x2="244.52499457328346" y1="0" y2="30"/><line opacity="0.2" x1="284.0925714628344" x2="284.0925714628344" y1="0" y2="30"/><line opacity="0.2" x1="286.3410317597544" x2="286.3410317597544" y1="0" y2="30"/><line opacity="0.2" x1="299.74079072788635" x2="299.74079072788635" y1="0" y2="30"/><line opacity="0.2" x1="288.49768671371453" x2="288.49768671371453" y1="0" y2="30"/><line opacity="0.2" x1="380.72403243378386" x2="380.72403243378386" y1="0" y2="30"/><line opacity="0.2" x1="259.1319190755289" x2="259.1319190755289" y1="0" y2="30"/><line opacity="0.2" x1="396.170465631569" x2="396.170465631569" y1="0" y2="30"/><line opacity="0.2" x1="276.18282253367556" x2="276.18282253367556" y1="0" y2="30"/><line opacity="0.2" x1="426.76493434224005" x2="426.76493434224005" y1="0" y2="30"/><line opacity="0.2" x1="433.05568735574474" x2="433.05568735574474" y1="0" y2="30"/><line opacity="0.2" x1="463.11286116279416" x2="463.11286116279416" y1="0" y2="30"/><line opacity="0.2" x1="339.44141084174083" x2="339.44141084174083" y1="0" y2="30"/><line opacity="0.2" x1="473.5668231618487" x2="473.5668231618487" y1="0" y2="30"/><line opacity="0.2" x1="216.54846382970356" x2="216.54846382970356" y1="0" y2="30"/><line opacity="0.2" x1="211.63707561416044" x2="211.63707561416044" y1="0" y2="30"/><line opacity="0.2" x1="301.20068958854375" x2="301.20068958854375" y1="0" y2="30"/><line opacity="0.2" x1="356.63263229953395" x2="356.63263229953395" y1="0" y2="30"/><line opacity="0.2" x1="196.2174846046123" x2="196.2174846046123" y1="0" y2="30"/><line opacity="0.2" x1="399.88406165907566" x2="399.88406165907566" y1="0" y2="30"/><line opacity="0.2" x1="261.95759680286886" x2="261.95759680286886" y1="0" y2="30"/><line opacity="0.2" x1="371.93927249000666" x2="371.93927249000666" y1="0" y2="30"/><line opacity="0.2" x1="398.83258932581793" x2="398.83258932581793" y1="0" y2="30"/><line opacity="0.2" x1="318.87617389579816" x2="318.87617389579816" y1="0" y2="30"/><line opacity="0.2" x1="320.6027340589086" x2="320.6027340589086" y1="0" y2="30"/><line opacity="0.2" x1="402.18107316927103" x2="402.18107316927103" y1="0" y2="30"/><line opacity="0.2" x1="487.7981564744441" x2="487.7981564744441" y1="0" y2="30"/><line opacity="0.2" x1="313.9764216656459" x2="313.9764216656459" y1="0" y2="30"/><line opacity="0.2" x1="158.2396340697799" x2="158.2396340697799" y1="0" y2="30"/><line opacity="0.2" x1="345.262505162214" x2="345.262505162214" y1="0" y2="30"/><line opacity="0.2" x1="437.36214320227583" x2="437.36214320227583" y1="0" y2="30"/><line opacity="0.2" x1="516.9455763645191" x2="516.9455763645191" y1="0" y2="30"/><line opacity="0.2" x1="423.1799263023686" x2="423.1799263023686" y1="0" y2="30"/><line opacity="0.2" x1="259.4759333343788" x2="259.4759333343788" y1="0" y2="30"/><line opacity="0.2" x1="224.82415580316095" x2="224.82415580316095" y1="0" y2="30"/><line opacity="0.2" x1="276.0535959987885" x2="276.0535959987885" y1="0" y2="30"/><line opacity="0.2" x1="394.9684726157479" x2="394.9684726157479" y1="0" y2="30"/><line opacity="0.2" x1="415.6331014022693" x2="415.6331014022693" y1="0" y2="30"/><line opacity="0.2" x1="403.48899351691375" x2="403.48899351691375" y1="0" y2="30"/><line opacity="0.2" x1="343.10086113914616" x2="343.10086113914616" y1="0" y2="30"/><line opacity="0.2" x1="458.5773466403959" x2="458.5773466403959" y1="0" y2="30"/><line opacity="0.2" x1="386.155768761251" x2="386.155768761251" y1="0" y2="30"/><line opacity="0.2" x1="301.77051501484056" x2="301.77051501484056" y1="0" y2="30"/><line opacity="0.2" x1="420.30896701041803" x2="420.30896701041803" y1="0" y2="30"/><line opacity="0.2" x1="394.770995602044" x2="394.770995602044" y1="0" y2="30"/><line opacity="0.2" x1="283.4488063330302" x2="283.4488063330302" y1="0" y2="30"/><line opacity="0.2" x1="275.008282665976" x2="275.008282665976" y1="0" y2="30"/><line opacity="0.2" x1="387.411238652007" x2="387.411238652007" y1="0" y2="30"/><line opacity="0.2" x1="317.19045544776833" x2="317.19045544776833" y1="0" y2="30"/><line opacity="0.2" x1="207.86141239405194" x2="207.86141239405194" y1="0" y2="30"/><line opacity="0.2" x1="294.4169124513619" x2="294.4169124513619" y1="0" y2="30"/><line opacity="0.2" x1="296.06010394901176" x2="296.06010394901176" y1="0" y2="30"/><line opacity="0.2" x1="269.4395210632282" x2="269.4395210632282" y1="0" y2="30"/><line opacity="0.2" x1="334.16736980402834" x2="334.16736980402834" y1="0" y2="30"/><line opacity="0.2" x1="376.2073673387791" x2="376.2073673387791" y1="0" y2="30"/><line opacity="0.2" x1="412.4069095091227" x2="412.4069095091227" y1="0" y2="30"/><line opacity="0.2" x1="438.9006913895421" x2="438.9006913895421" y1="0" y2="30"/><line opacity="0.2" x1="445.6516067956232" x2="445.6516067956232" y1="0" y2="30"/><line opacity="0.2" x1="422.48261188413596" x2="422.48261188413596" y1="0" y2="30"/><line opacity="0.2" x1="397.77490906340836" x2="397.77490906340836" y1="0" y2="30"/><line opacity="0.2" x1="412.3636878769377" x2="412.3636878769377" y1="0" y2="30"/><line opacity="0.2" x1="284.75890385643504" x2="284.75890385643504" y1="0" y2="30"/><line opacity="0.2" x1="284.0242305495973" x2="284.0242305495973" y1="0" y2="30"/><line opacity="0.2" x1="376.2168294753709" x2="376.2168294753709" y1="0" y2="30"/><line opacity="0.2" x1="352.440044343143" x2="352.440044343143" y1="0" y2="30"/><line opacity="0.2" x1="410.12104094632554" x2="410.12104094632554" y1="0" y2="30"/><line opacity="0.2" x1="412.60547726211024" x2="412.60547726211024" y1="0" y2="30"/><line opacity="0.2" x1="236.76800307195273" x2="236.76800307195273" y1="0" y2="30"/><line opacity="0.2" x1="240.682922981393" x2="240.682922981393" y1="0" y2="30"/><line opacity="0.2" x1="470.74387137773004" x2="470.74387137773004" y1="0" y2="30"/><line opacity="0.2" x1="290.46841541621575" x2="290.46841541621575" y1="0" y2="30"/><line opacity="0.2" x1="454.4258242740012" x2="454.4258242740012" y1="0" y2="30"/><line opacity="0.2" x1="233.30481529900365" x2="233.30481529900365" y1="0" y2="30"/><line opacity="0.2" x1="331.5390047717389" x2="331.5390047717389" y1="0" y2="30"/><line opacity="0.2" x1="394.5115078520026" x2="394.5115078520026" y1="0" y2="30"/><line opacity="0.2" x1="391.6753183272566" x2="391.6753183272566" y1="0" y2="30"/><line opacity="0.2" x1="265.82389247741486" x2="265.82389247741486" y1="0" y2="30"/><line opacity="0.2" x1="288.09161267610074" x2="288.09161267610074" y1="0" y2="30"/><line opacity="0.2" x1="351.39829955996436" x2="351.39829955996436" y1="0" y2="30"/><line opacity="0.2" x1="566.8468384981526" x2="566.8468384981526" y1="0" y2="30"/><line opacity="0.2" x1="210.45733786808154" x2="210.45733786808154" y1="0" y2="30"/><line opacity="0.2" x1="157.2790970705324" x2="157.2790970705324" y1="0" y2="30"/><line opacity="0.2" x1="497.0895067200315" x2="497.0895067200315" y1="0" y2="30"/><line opacity="0.2" x1="378.89051502479003" x2="378.89051502479003" y1="0" y2="30"/><line opacity="0.2" x1="368.42690550369986" x2="368.42690550369986" y1="0" y2="30"/><line opacity="0.2" x1="430.23513340510465" x2="430.23513340510465" y1="0" y2="30"/><line opacity="0.2" x1="327.7874929204408" x2="327.7874929204408" y1="0" y2="30"/><line opacity="0.2" x1="226.57947394858257" x2="226.57947394858257" y1="0" y2="30"/><line opacity="0.2" x1="358.85335126201846" x2="358.85335126201846" y1="0" y2="30"/><line opacity="0.2" x1="320.85434418693256" x2="320.85434418693256" y1="0" y2="30"/><line opacity="0.2" x1="336.9873287318173" x2="336.9873287318173" y1="0" y2="30"/><line opacity="0.2" x1="219.11771282694025" x2="219.11771282694025" y1="0" y2="30"/><line opacity="0.2" x1="414.1349666152921" x2="414.1349666152921" y1="0" y2="30"/><line opacity="0.2" x1="259.4991018082199" x2="259.4991018082199" y1="0" y2="30"/><line opacity="0.2" x1="331.733944289261" x2="331.733944289261" y1="0" y2="30"/><line opacity="0.2" x1="442.95445602837526" x2="442.95445602837526" y1="0" y2="30"/><line opacity="0.2" x1="416.0788651513728" x2="416.0788651513728" y1="0" y2="30"/><line opacity="0.2" x1="363.2184336321298" x2="363.2184336321298" y1="0" y2="30"/><line opacity="0.2" x1="311.81531482400123" x2="311.81531482400123" y1="0" y2="30"/><line opacity="0.2" x1="233.5210190998101" x2="233.5210190998101" y1="0" y2="30"/><line opacity="0.2" x1="302.45339694549085" x2="302.45339694549085" y1="0" y2="30"/><line opacity="0.2" x1="367.6992462591107" x2="367.6992462591107" y1="0" y2="30"/><line opacity="0.2" x1="398.9170570960175" x2="398.9170570960175" y1="0" y2="30"/><line opacity="0.2" x1="420.2014145062564" x2="420.2014145062564" y1="0" y2="30"/><line opacity="0.2" x1="361.6172830287663" x2="361.6172830287663" y1="0" y2="30"/><line opacity="0.2" x1="335.9647247920952" x2="335.9647247920952" y1="0" y2="30"/><line opacity="0.2" x1="604.1598641510456" x2="604.1598641510456" y1="0" y2="30"/><line opacity="0.2" x1="359.84451515837293" x2="359.84451515837293" y1="0" y2="30"/><line opacity="0.2" x1="279.4434580185522" x2="279.4434580185522" y1="0" y2="30"/><line opacity="0.2" x1="328.8933846222804" x2="328.8933846222804" y1="0" y2="30"/><line opacity="0.2" x1="324.37312811107455" x2="324.37312811107455" y1="0" y2="30"/><line opacity="0.2" x1="323.3245247599678" x2="323.3245247599678" y1="0" y2="30"/><line opacity="0.2" x1="419.70659751237696" x2="419.70659751237696" y1="0" y2="30"/><line opacity="0.2" x1="488.99039793485764" x2="488.99039793485764" y1="0" y2="30"/><line opacity="0.2" x1="421.8898868476719" x2="421.8898868476719" y1="0" y2="30"/><line opacity="0.2" x1="507.29953820473503" x2="507.29953820473503" y1="0" y2="30"/><line opacity="0.2" x1="356.56148303391006" x2="356.56148303391006" y1="0" y2="30"/><line opacity="0.2" x1="273.45445414105944" x2="273.45445414105944" y1="0" y2="30"/><line opacity="0.2" x1="431.7159006083584" x2="431.7159006083584" y1="0" y2="30"/><line opacity="0.2" x1="454.62051001757294" x2="454.62051001757294" y1="0" y2="30"/><line opacity="0.2" x1="149.46580403488605" x2="149.46580403488605" y1="0" y2="30"/><line opacity="0.2" x1="385.45935196379213" x2="385.45935196379213" y1="0" y2="30"/><line opacity="0.2" x1="255.61528556738602" x2="255.61528556738602" y1="0" y2="30"/><line opacity="0.2" x1="288.1601075284415" x2="288.1601075284415" y1="0" y2="30"/><line opacity="0.2" x1="278.1578514801667" x2="278.1578514801667" y1="0" y2="30"/><line opacity="0.2" x1="452.19820674938177" x2="452.19820674938177" y1="0" y2="30"/><line opacity="0.2" x1="409.03231464343" x2="409.03231464343" y1="0" y2="30"/><line opacity="0.2" x1="415.8674840235963" x2="415.8674840235963" y1="0" y2="30"/><line opacity="0.2" x1="225.62585980510002" x2="225.62585980510002" y1="0" y2="30"/><line opacity="0.2" x1="386.96773229076524" x2="386.96773229076524" y1="0" y2="30"/><line opacity="0.2" x1="511.0733228116364" x2="511.0733228116364" y1="0" y2="30"/><line opacity="0.2" x1="370.7217422891113" x2="370.7217422891113" y1="0" y2="30"/><line opacity="0.2" x1="205.1857902276846" x2="205.1857902276846" y1="0" y2="30"/><line opacity="0.2" x1="318.9906442229864" x2="318.9906442229864" y1="0" y2="30"/><line opacity="0.2" x1="221.46330588697123" x2="221.46330588697123" y1="0" y2="30"/><line opacity="0.2" x1="335.46471578966765" x2="335.46471578966765" y1="0" y2="30"/><line opacity="0.2" x1="274.997391148777" x2="274.997391148777" y1="0" y2="30"/><line opacity="0.2" x1="571.6686590787073" x2="571.6686590787073" y1="0" y2="30"/><line opacity="0.2" x1="328.7284768372597" x2="328.7284768372597" y1="0" y2="30"/><line opacity="0.2" x1="362.7383061285534" x2="362.7383061285534" y1="0" y2="30"/><line opacity="0.2" x1="301.27466154471267" x2="301.27466154471267" y1="0" y2="30"/><line opacity="0.2" x1="462.5169501793029" x2="462.5169501793029" y1="0" y2="30"/><line opacity="0.2" x1="239.61107965546492" x2="239.61107965546492" y1="0" y2="30"/><line opacity="0.2" x1="363.96887540116967" x2="363.96887540116967" y1="0" y2="30"/><line opacity="0.2" x1="500.6390668563885" x2="500.6390668563885" y1="0" y2="30"/><line opacity="0.2" x1="326.16167678557963" x2="326.16167678557963" y1="0" y2="30"/><line opacity="0.2" x1="360.6602781081592" x2="360.6602781081592" y1="0" y2="30"/><line opacity="0.2" x1="336.31911265141235" x2="336.31911265141235" y1="0" y2="30"/><line opacity="0.2" x1="384.9200721864591" x2="384.9200721864591" y1="0" y2="30"/><line opacity="0.2" x1="272.25174689503166" x2="272.25174689503166" y1="0" y2="30"/><line opacity="0.2" x1="362.4466787004425" x2="362.4466787004425" y1="0" y2="30"/><line opacity="0.2" x1="282.02779886654656" x2="282.02779886654656" y1="0" y2="30"/><line opacity="0.2" x1="430.10963713738454" x2="430.10963713738454" y1="0" y2="30"/><line opacity="0.2" x1="356.45747730946806" x2="356.45747730946806" y1="0" y2="30"/><line opacity="0.2" x1="351.7343166138749" x2="351.7343166138749" y1="0" y2="30"/><line opacity="0.2" x1="252.9414642273148" x2="252.9414642273148" y1="0" y2="30"/><line opacity="0.2" x1="216.9992702920489" x2="216.9992702920489" y1="0" y2="30"/><line opacity="0.2" x1="477.0600571751448" x2="477.0600571751448" y1="0" y2="30"/><line opacity="0.2" x1="394.7356439977267" x2="394.7356439977267" y1="0" y2="30"/><line opacity="0.2" x1="272.403321668502" x2="272.403321668502" y1="0" y2="30"/><line opacity="0.2" x1="290.6256358823878" x2="290.6256358823878" y1="0" y2="30"/><line opacity="0.2" x1="312.57112662790223" x2="312.57112662790223" y1="0" y2="30"/><line opacity="0.2" x1="347.35528828050053" x2="347.35528828050053" y1="0" y2="30"/><line opacity="0.2" x1="422.91941723379466" x2="422.91941723379466" y1="0" y2="30"/><line opacity="0.2" x1="378.3333141412369" x2="378.3333141412369" y1="0" y2="30"/><line opacity="0.2" x1="342.33023792021277" x2="342.33023792021277" y1="0" y2="30"/><line opacity="0.2" x1="318.1197438371907" x2="318.1197438371907" y1="0" y2="30"/><line opacity="0.2" x1="296.1729731921308" x2="296.1729731921308" y1="0" y2="30"/><line opacity="0.2" x1="281.8203266748471" x2="281.8203266748471" y1="0" y2="30"/><line opacity="0.2" x1="406.19585999022155" x2="406.19585999022155" y1="0" y2="30"/><line opacity="0.2" x1="290.7389721291399" x2="290.7389721291399" y1="0" y2="30"/><line opacity="0.2" x1="221.78437326558057" x2="221.78437326558057" y1="0" y2="30"/><line opacity="0.2" x1="379.05932719055954" x2="379.05932719055954" y1="0" y2="30"/><line opacity="0.2" x1="306.469263511435" x2="306.469263511435" y1="0" y2="30"/><line opacity="0.2" x1="366.32409159349805" x2="366.32409159349805" y1="0" y2="30"/><line opacity="0.2" x1="431.5484937639539" x2="431.5484937639539" y1="0" y2="30"/><line opacity="0.2" x1="395.84264832671255" x2="395.84264832671255" y1="0" y2="30"/><line opacity="0.2" x1="539.6209876297116" x2="539.6209876297116" y1="0" y2="30"/><line opacity="0.2" x1="367.20619129265947" x2="367.20619129265947" y1="0" y2="30"/><line opacity="0.2" x1="495.49362384406714" x2="495.49362384406714" y1="0" y2="30"/><line opacity="0.2" x1="314.82303625865467" x2="314.82303625865467" y1="0" y2="30"/><line opacity="0.2" x1="478.96638499253396" x2="478.96638499253396" y1="0" y2="30"/><line opacity="0.2" x1="401.23357322806027" x2="401.23357322806027" y1="0" y2="30"/><line opacity="0.2" x1="305.9672063409331" x2="305.9672063409331" y1="0" y2="30"/><line opacity="0.2" x1="347.54287545426536" x2="347.54287545426536" y1="0" y2="30"/><line opacity="0.2" x1="447.580595854836" x2="447.580595854836" y1="0" y2="30"/><line opacity="0.2" x1="290.3541499390861" x2="290.3541499390861" y1="0" y2="30"/><line opacity="0.2" x1="279.83168842642147" x2="279.83168842642147" y1="0" y2="30"/><line opacity="0.2" x1="238.56171624671313" x2="238.56171624671313" y1="0" y2="30"/><line opacity="0.2" x1="285.83927727269196" x2="285.83927727269196" y1="0" y2="30"/><line opacity="0.2" x1="368.9890928274536" x2="368.9890928274536" y1="0" y2="30"/><line opacity="0.2" x1="332.16848140957" x2="332.16848140957" y1="0" y2="30"/><line opacity="0.2" x1="325.7155567113484" x2="325.7155567113484" y1="0" y2="30"/><line opacity="0.2" x1="302.10386443542376" x2="302.10386443542376" y1="0" y2="30"/><line opacity="0.2" x1="399.9034394102186" x2="399.9034394102186" y1="0" y2="30"/><line opacity="0.2" x1="429.2309178405802" x2="429.2309178405802" y1="0" y2="30"/><line opacity="0.2" x1="454.94203456781156" x2="454.94203456781156" y1="0" y2="30"/><line opacity="0.2" x1="430.65195263886926" x2="430.65195263886926" y1="0" y2="30"/><line opacity="0.2" x1="399.3437986919216" x2="399.3437986919216" y1="0" y2="30"/><line opacity="0.2" x1="378.82891780537284" x2="378.82891780537284" y1="0" y2="30"/><line opacity="0.2" x1="308.35479309488016" x2="308.35479309488016" y1="0" y2="30"/><line opacity="0.2" x1="396.51247436259126" x2="396.51247436259126" y1="0" y2="30"/><line opacity="0.2" x1="535.453919207584" x2="535.453919207584" y1="0" y2="30"/><line opacity="0.2" x1="285.1054698579826" x2="285.1054698579826" y1="0" y2="30"/><line opacity="0.2" x1="249.81391896629776" x2="249.81391896629776" y1="0" y2="30"/><line opacity="0.2" x1="303.8294493342412" x2="303.8294493342412" y1="0" y2="30"/><line opacity="0.2" x1="327.76110452644366" x2="327.76110452644366" y1="0" y2="30"/><line opacity="0.2" x1="430.68583151531664" x2="430.68583151531664" y1="0" y2="30"/><line opacity="0.2" x1="243.96667026195965" x2="243.96667026195965" y1="0" y2="30"/><line opacity="0.2" x1="360.35739232024366" x2="360.35739232024366" y1="0" y2="30"/><line opacity="0.2" x1="349.36884552974857" x2="349.36884552974857" y1="0" y2="30"/><line opacity="0.2" x1="400.14006613296317" x2="400.14006613296317" y1="0" y2="30"/><line opacity="0.2" x1="423.7535727203046" x2="423.7535727203046" y1="0" y2="30"/><line opacity="0.2" x1="237.56235034701677" x2="237.56235034701677" y1="0" y2="30"/><line opacity="0.2" x1="382.17799413455884" x2="382.17799413455884" y1="0" y2="30"/><line opacity="0.2" x1="318.14543698106485" x2="318.14543698106485" y1="0" y2="30"/><line opacity="0.2" x1="307.71815886259236" x2="307.71815886259236" y1="0" y2="30"/><line opacity="0.2" x1="560.1322754044826" x2="560.1322754044826" y1="0" y2="30"/><line opacity="0.2" x1="263.92010127544415" x2="263.92010127544415" y1="0" y2="30"/><line opacity="0.2" x1="239.81994667585744" x2="239.81994667585744" y1="0" y2="30"/><line opacity="0.2" x1="356.4577418113994" x2="356.4577418113994" y1="0" y2="30"/><line opacity="0.2" x1="403.88252169371344" x2="403.88252169371344" y1="0" y2="30"/><line opacity="0.2" x1="273.3782789921356" x2="273.3782789921356" y1="0" y2="30"/><line opacity="0.2" x1="427.12321617341405" x2="427.12321617341405" y1="0" y2="30"/><line opacity="0.2" x1="384.7925294036182" x2="384.7925294036182" y1="0" y2="30"/><line opacity="0.2" x1="465.6464921613585" x2="465.6464921613585" y1="0" y2="30"/><line opacity="0.2" x1="377.2763913074311" x2="377.2763913074311" y1="0" y2="30"/><line opacity="0.2" x1="392.03430070979624" x2="392.03430070979624" y1="0" y2="30"/><line opacity="0.2" x1="356.5838964038123" x2="356.5838964038123" y1="0" y2="30"/><line opacity="0.2" x1="500.954210589378" x2="500.954210589378" y1="0" y2="30"/><line opacity="0.2" x1="357.7569185421253" x2="357.7569185421253" y1="0" y2="30"/><line opacity="0.2" x1="484.5634463594759" x2="484.5634463594759" y1="0" y2="30"/><line opacity="0.2" x1="383.4858854067457" x2="383.4858854067457" y1="0" y2="30"/><line opacity="0.2" x1="363.4952411119487" x2="363.4952411119487" y1="0" y2="30"/><line opacity="0.2" x1="302.85080464383515" x2="302.85080464383515" y1="0" y2="30"/><line opacity="0.2" x1="175.69716336894632" x2="175.69716336894632" y1="0" y2="30"/><line opacity="0.2" x1="252.36828432664254" x2="252.36828432664254" y1="0" y2="30"/><line opacity="0.2" x1="397.3607042807968" x2="397.3607042807968" y1="0" y2="30"/><line opacity="0.2" x1="311.8244841479155" x2="311.8244841479155" y1="0" y2="30"/><line opacity="0.2" x1="391.2616488250928" x2="391.2616488250928" y1="0" y2="30"/><line opacity="0.2" x1="249.53538835719564" x2="249.53538835719564" y1="0" y2="30"/><line opacity="0.2" x1="199.842301569735" x2="199.842301569735" y1="0" y2="30"/><line opacity="0.2" x1="355.9425741205569" x2="355.9425741205569" y1="0" y2="30"/><line opacity="0.2" x1="297.33761229886534" x2="297.33761229886534" y1="0" y2="30"/><line opacity="0.2" x1="433.3539568033565" x2="433.3539568033565" y1="0" y2="30"/><line opacity="0.2" x1="280.9880721861247" x2="280.9880721861247" y1="0" y2="30"/><line opacity="0.2" x1="310.48269669200397" x2="310.48269669200397" y1="0" y2="30"/><line opacity="0.2" x1="335.7993429390278" x2="335.7993429390278" y1="0" y2="30"/><line opacity="0.2" x1="362.1803904589359" x2="362.1803904589359" y1="0" y2="30"/><line opacity="0.2" x1="450.7136536879278" x2="450.7136536879278" y1="0" y2="30"/><line opacity="0.2" x1="324.5780767392219" x2="324.5780767392219" y1="0" y2="30"/><line opacity="0.2" x1="249.66891906252155" x2="249.66891906252155" y1="0" y2="30"/><line opacity="0.2" x1="347.91478998349214" x2="347.91478998349214" y1="0" y2="30"/><line opacity="0.2" x1="381.50107244854985" x2="381.50107244854985" y1="0" y2="30"/><line opacity="0.2" x1="292.8608415378556" x2="292.8608415378556" y1="0" y2="30"/><line opacity="0.2" x1="535.7939920502747" x2="535.7939920502747" y1="0" y2="30"/><line opacity="0.2" x1="343.09476918181065" x2="343.09476918181065" y1="0" y2="30"/><line opacity="0.2" x1="573.4463403419603" x2="573.4463403419603" y1="0" y2="30"/><line opacity="0.2" x1="290.926875384667" x2="290.926875384667" y1="0" y2="30"/><line opacity="0.2" x1="262.40075322779285" x2="262.40075322779285" y1="0" y2="30"/><line opacity="0.2" x1="306.69414667168553" x2="306.69414667168553" y1="0" y2="30"/><line opacity="0.2" x1="303.3017641547139" x2="303.3017641547139" y1="0" y2="30"/><line opacity="0.2" x1="463.99057615404394" x2="463.99057615404394" y1="0" y2="30"/><line opacity="0.2" x1="261.52285468019426" x2="261.52285468019426" y1="0" y2="30"/><line opacity="0.2" x1="383.1099066622972" x2="383.1099066622972" y1="0" y2="30"/><line opacity="0.2" x1="459.3786734279637" x2="459.3786734279637" y1="0" y2="30"/><line opacity="0.2" x1="419.35928428047646" x2="419.35928428047646" y1="0" y2="30"/><line opacity="0.2" x1="380.0759689110628" x2="380.0759689110628" y1="0" y2="30"/><line opacity="0.2" x1="326.6075810136795" x2="326.6075810136795" y1="0" y2="30"/><line opacity="0.2" x1="408.7413152733363" x2="408.7413152733363" y1="0" y2="30"/><line opacity="0.2" x1="318.11351855635303" x2="318.11351855635303" y1="0" y2="30"/><line opacity="0.2" x1="297.55849818275294" x2="297.55849818275294" y1="0" y2="30"/><line opacity="0.2" x1="180.21285934370812" x2="180.21285934370812" y1="0" y2="30"/><line opacity="0.2" x1="350.8373943115973" x2="350.8373943115973" y1="0" y2="30"/><line opacity="0.2" x1="409.24513222188625" x2="409.24513222188625" y1="0" y2="30"/><line opacity="0.2" x1="484.7487166680144" x2="484.7487166680144" y1="0" y2="30"/><line opacity="0.2" x1="465.63209143450104" x2="465.63209143450104" y1="0" y2="30"/><line opacity="0.2" x1="370.9061915532407" x2="370.9061915532407" y1="0" y2="30"/><line opacity="0.2" x1="349.65289488169776" x2="349.65289488169776" y1="0" y2="30"/><line opacity="0.2" x1="293.9857164897156" x2="293.9857164897156" y1="0" y2="30"/><line opacity="0.2" x1="472.5270856987513" x2="472.5270856987513" y1="0" y2="30"/><line opacity="0.2" x1="361.6886582789421" x2="361.6886582789421" y1="0" y2="30"/><line opacity="0.2" x1="355.7481351580812" x2="355.7481351580812" y1="0" y2="30"/><line opacity="0.2" x1="347.6255311169978" x2="347.6255311169978" y1="0" y2="30"/><line opacity="0.2" x1="370.65371314229003" x2="370.65371314229003" y1="0" y2="30"/><line opacity="0.2" x1="356.7218984093876" x2="356.7218984093876" y1="0" y2="30"/><line opacity="0.2" x1="375.12750443147513" x2="375.12750443147513" y1="0" y2="30"/><line opacity="0.2" x1="334.9439686384997" x2="334.9439686384997" y1="0" y2="30"/><line opacity="0.2" x1="333.73384733241875" x2="333.73384733241875" y1="0" y2="30"/><line opacity="0.2" x1="289.6883140338033" x2="289.6883140338033" y1="0" y2="30"/><line opacity="0.2" x1="288.9313690441197" x2="288.9313690441197" y1="0" y2="30"/><line opacity="0.2" x1="382.32422190722775" x2="382.32422190722775" y1="0" y2="30"/><line opacity="0.2" x1="451.5605415614104" x2="451.5605415614104" y1="0" y2="30"/><line opacity="0.2" x1="327.1443962876114" x2="327.1443962876114" y1="0" y2="30"/><line opacity="0.2" x1="331.7680619224625" x2="331.7680619224625" y1="0" y2="30"/><line opacity="0.2" x1="306.27796299989683" x2="306.27796299989683" y1="0" y2="30"/><line opacity="0.2" x1="293.2700440165163" x2="293.2700440165163" y1="0" y2="30"/><line opacity="0.2" x1="427.0716636383732" x2="427.0716636383732" y1="0" y2="30"/><line opacity="0.2" x1="435.719391472271" x2="435.719391472271" y1="0" y2="30"/><line opacity="0.2" x1="297.09665742583144" x2="297.09665742583144" y1="0" y2="30"/><line opacity="0.2" x1="323.5776045995524" x2="323.5776045995524" y1="0" y2="30"/><line opacity="0.2" x1="401.11016222046624" x2="401.11016222046624" y1="0" y2="30"/><line opacity="0.2" x1="488.4067437402787" x2="488.4067437402787" y1="0" y2="30"/><line opacity="0.2" x1="380.0045870935742" x2="380.0045870935742" y1="0" y2="30"/><line opacity="0.2" x1="340.2043092319236" x2="340.2043092319236" y1="0" y2="30"/><line opacity="0.2" x1="257.7989920653243" x2="257.7989920653243" y1="0" y2="30"/><line opacity="0.2" x1="567.7258258636235" x2="567.7258258636235" y1="0" y2="30"/><line opacity="0.2" x1="305.1662117290065" x2="305.1662117290065" y1="0" y2="30"/><line opacity="0.2" x1="220.10691120381216" x2="220.10691120381216" y1="0" y2="30"/><line opacity="0.2" x1="285.7236381505036" x2="285.7236381505036" y1="0" y2="30"/><line opacity="0.2" x1="355.96270276669065" x2="355.96270276669065" y1="0" y2="30"/><line opacity="0.2" x1="237.11560890199388" x2="237.11560890199388" y1="0" y2="30"/><line opacity="0.2" x1="446.29347935924125" x2="446.29347935924125" y1="0" y2="30"/><line opacity="0.2" x1="340.0627326095767" x2="340.0627326095767" y1="0" y2="30"/><line opacity="0.2" x1="380.99059518190313" x2="380.99059518190313" y1="0" y2="30"/><line opacity="0.2" x1="381.16756193016846" x2="381.16756193016846" y1="0" y2="30"/><line opacity="0.2" x1="241.287931699405" x2="241.287931699405" y1="0" y2="30"/><line opacity="0.2" x1="371.8753231833498" x2="371.8753231833498" y1="0" y2="30"/><line opacity="0.2" x1="189.51026072328705" x2="189.51026072328705" y1="0" y2="30"/><line opacity="0.2" x1="226.04733050829824" x2="226.04733050829824" y1="0" y2="30"/><line opacity="0.2" x1="377.91252528565786" x2="377.91252528565786" y1="0" y2="30"/><line opacity="0.2" x1="244.1871607231351" x2="244.1871607231351" y1="0" y2="30"/><line opacity="0.2" x1="408.42895524425586" x2="408.42895524425586" y1="0" y2="30"/><line opacity="0.2" x1="433.07890236465147" x2="433.07890236465147" y1="0" y2="30"/><line opacity="0.2" x1="409.51963901604256" x2="409.51963901604256" y1="0" y2="30"/><line opacity="0.2" x1="448.3261939301054" x2="448.3261939301054" y1="0" y2="30"/><line opacity="0.2" x1="316.0291198773787" x2="316.0291198773787" y1="0" y2="30"/><line opacity="0.2" x1="247.73512923642411" x2="247.73512923642411" y1="0" y2="30"/><line opacity="0.2" x1="274.96664302701635" x2="274.96664302701635" y1="0" y2="30"/><line opacity="0.2" x1="452.9598848181667" x2="452.9598848181667" y1="0" y2="30"/><line opacity="0.2" x1="371.7472065456546" x2="371.7472065456546" y1="0" y2="30"/><line opacity="0.2" x1="460.94471119629293" x2="460.94471119629293" y1="0" y2="30"/><line opacity="0.2" x1="309.91089274578434" x2="309.91089274578434" y1="0" y2="30"/><line opacity="0.2" x1="324.6436893970057" x2="324.6436893970057" y1="0" y2="30"/><line opacity="0.2" x1="414.2458546836591" x2="414.2458546836591" y1="0" y2="30"/><line opacity="0.2" x1="312.2352289190029" x2="312.2352289190029" y1="0" y2="30"/><line opacity="0.2" x1="372.96187981601577" x2="372.96187981601577" y1="0" y2="30"/><line opacity="0.2" x1="211.84514620015275" x2="211.84514620015275" y1="0" y2="30"/><line opacity="0.2" x1="276.10940947658827" x2="276.10940947658827" y1="0" y2="30"/><line opacity="0.2" x1="441.0681053304913" x2="441.0681053304913" y1="0" y2="30"/><line opacity="0.2" x1="386.7094979410097" x2="386.7094979410097" y1="0" y2="30"/><line opacity="0.2" x1="478.36238411957225" x2="478.36238411957225" y1="0" y2="30"/><line opacity="0.2" x1="264.008001706735" x2="264.008001706735" y1="0" y2="30"/><line opacity="0.2" x1="501.33238557932293" x2="501.33238557932293" y1="0" y2="30"/><line opacity="0.2" x1="388.7381302289854" x2="388.7381302289854" y1="0" y2="30"/><line opacity="0.2" x1="205.02600407847717" x2="205.02600407847717" y1="0" y2="30"/><line opacity="0.2" x1="323.38050519245695" x2="323.38050519245695" y1="0" y2="30"/><line opacity="0.2" x1="345.6054095561089" x2="345.6054095561089" y1="0" y2="30"/><line opacity="0.2" x1="394.376044907491" x2="394.376044907491" y1="0" y2="30"/><line opacity="0.2" x1="447.44885204688535" x2="447.44885204688535" y1="0" y2="30"/><line opacity="0.2" x1="475.32230444118073" x2="475.32230444118073" y1="0" y2="30"/><line opacity="0.2" x1="422.27364665100356" x2="422.27364665100356" y1="0" y2="30"/><line opacity="0.2" x1="309.52876994212386" x2="309.52876994212386" y1="0" y2="30"/><line opacity="0.2" x1="425.59387438126424" x2="425.59387438126424" y1="0" y2="30"/><line opacity="0.2" x1="294.31354621869474" x2="294.31354621869474" y1="0" y2="30"/><line opacity="0.2" x1="315.6433800907828" x2="315.6433800907828" y1="0" y2="30"/><line opacity="0.2" x1="422.83525559400954" x2="422.83525559400954" y1="0" y2="30"/><line opacity="0.2" x1="404.4777775103008" x2="404.4777775103008" y1="0" y2="30"/><line opacity="0.2" x1="220.7795742040525" x2="220.7795742040525" y1="0" y2="30"/><line opacity="0.2" x1="419.79285849146765" x2="419.79285849146765" y1="0" y2="30"/><line opacity="0.2" x1="445.0951659124033" x2="445.0951659124033" y1="0" y2="30"/><line opacity="0.2" x1="390.7299132420497" x2="390.7299132420497" y1="0" y2="30"/><line opacity="0.2" x1="377.9512195529048" x2="377.9512195529048" y1="0" y2="30"/><line opacity="0.2" x1="256.3290350583598" x2="256.3290350583598" y1="0" y2="30"/><line opacity="0.2" x1="489.3732968833807" x2="489.3732968833807" y1="0" y2="30"/><line opacity="0.2" x1="364.36919969189535" x2="364.36919969189535" y1="0" y2="30"/><line opacity="0.2" x1="309.6313900403384" x2="309.6313900403384" y1="0" y2="30"/><line opacity="0.2" x1="472.95940020230057" x2="472.95940020230057" y1="0" y2="30"/><line opacity="0.2" x1="273.5193281173756" x2="273.5193281173756" y1="0" y2="30"/><line opacity="0.2" x1="365.58189805818256" x2="365.58189805818256" y1="0" y2="30"/><line opacity="0.2" x1="288.637974159579" x2="288.637974159579" y1="0" y2="30"/><line opacity="0.2" x1="383.7271060202891" x2="383.7271060202891" y1="0" y2="30"/><line opacity="0.2" x1="338.49315117865723" x2="338.49315117865723" y1="0" y2="30"/><line opacity="0.2" x1="381.2201786454029" x2="381.2201786454029" y1="0" y2="30"/><line opacity="0.2" x1="391.47310524769165" x2="391.47310524769165" y1="0" y2="30"/><line opacity="0.2" x1="499.70323517286107" x2="499.70323517286107" y1="0" y2="30"/><line opacity="0.2" x1="375.6010953167147" x2="375.6010953167147" y1="0" y2="30"/><line opacity="0.2" x1="409.1912955322701" x2="409.1912955322701" y1="0" y2="30"/><line opacity="0.2" x1="411.9299663998206" x2="411.9299663998206" y1="0" y2="30"/><line opacity="0.2" x1="262.7315202873911" x2="262.7315202873911" y1="0" y2="30"/><line opacity="0.2" x1="94.73255027944138" x2="94.73255027944138" y1="0" y2="30"/><line opacity="0.2" x1="354.5461508376164" x2="354.5461508376164" y1="0" y2="30"/><line opacity="0.2" x1="399.6107043007324" x2="399.6107043007324" y1="0" y2="30"/><line opacity="0.2" x1="373.4335862840772" x2="373.4335862840772" y1="0" y2="30"/><line opacity="0.2" x1="311.94814794189267" x2="311.94814794189267" y1="0" y2="30"/><line opacity="0.2" x1="383.14799055791445" x2="383.14799055791445" y1="0" y2="30"/><line opacity="0.2" x1="387.6760576732432" x2="387.6760576732432" y1="0" y2="30"/><line opacity="0.2" x1="151.76242808646657" x2="151.76242808646657" y1="0" y2="30"/><line opacity="0.2" x1="327.3070070604514" x2="327.3070070604514" y1="0" y2="30"/><line opacity="0.2" x1="465.2975785504735" x2="465.2975785504735" y1="0" y2="30"/><line opacity="0.2" x1="205.12964485181206" x2="205.12964485181206" y1="0" y2="30"/><line opacity="0.2" x1="515.0808002796937" x2="515.0808002796937" y1="0" y2="30"/><line opacity="0.2" x1="216.55780510071693" x2="216.55780510071693" y1="0" y2="30"/><line opacity="0.2" x1="432.26033912229997" x2="432.26033912229997" y1="0" y2="30"/><line opacity="0.2" x1="258.5254003668182" x2="258.5254003668182" y1="0" y2="30"/><line opacity="0.2" x1="390.21054314802274" x2="390.21054314802274" y1="0" y2="30"/><line opacity="0.2" x1="369.86160254965745" x2="369.86160254965745" y1="0" y2="30"/><line opacity="0.2" x1="290.19493699498366" x2="290.19493699498366" y1="0" y2="30"/><line opacity="0.2" x1="312.2621739767678" x2="312.2621739767678" y1="0" y2="30"/><line opacity="0.2" x1="450.94968178120615" x2="450.94968178120615" y1="0" y2="30"/><line opacity="0.2" x1="347.3079676696091" x2="347.3079676696091" y1="0" y2="30"/><line opacity="0.2" x1="216.94110449616397" x2="216.94110449616397" y1="0" y2="30"/><line opacity="0.2" x1="310.16478600791896" x2="310.16478600791896" y1="0" y2="30"/><line opacity="0.2" x1="247.00026182799516" x2="247.00026182799516" y1="0" y2="30"/><line opacity="0.2" x1="264.21225239932767" x2="264.21225239932767" y1="0" y2="30"/><line opacity="0.2" x1="462.63185137297614" x2="462.63185137297614" y1="0" y2="30"/><line opacity="0.2" x1="203.65230565906325" x2="203.65230565906325" y1="0" y2="30"/><line opacity="0.2" x1="199.99219802009495" x2="199.99219802009495" y1="0" y2="30"/><line opacity="0.2" x1="230.88619263444903" x2="230.88619263444903" y1="0" y2="30"/><line opacity="0.2" x1="288.0569313076815" x2="288.0569313076815" y1="0" y2="30"/><line opacity="0.2" x1="323.61938118525165" x2="323.61938118525165" y1="0" y2="30"/><line opacity="0.2" x1="331.7602586074238" x2="331.7602586074238" y1="0" y2="30"/><line opacity="0.2" x1="423.3926458886515" x2="423.3926458886515" y1="0" y2="30"/><line opacity="0.2" x1="344.174493881008" x2="344.174493881008" y1="0" y2="30"/><line opacity="0.2" x1="531.2075211022103" x2="531.2075211022103" y1="0" y2="30"/><line opacity="0.2" x1="321.78413976239545" x2="321.78413976239545" y1="0" y2="30"/><line opacity="0.2" x1="193.9299232496048" x2="193.9299232496048" y1="0" y2="30"/><line opacity="0.2" x1="327.54616869754386" x2="327.54616869754386" y1="0" y2="30"/><line opacity="0.2" x1="381.9311861503279" x2="381.9311861503279" y1="0" y2="30"/><line opacity="0.2" x1="505.01566825033876" x2="505.01566825033876" y1="0" y2="30"/><line opacity="0.2" x1="289.64065010264613" x2="289.64065010264613" y1="0" y2="30"/><line opacity="0.2" x1="430.0650541879864" x2="430.0650541879864" y1="0" y2="30"/><line opacity="0.2" x1="351.221045373698" x2="351.221045373698" y1="0" y2="30"/><line opacity="0.2" x1="244.32287062775487" x2="244.32287062775487" y1="0" y2="30"/><line opacity="0.2" x1="252.79327786017728" x2="252.79327786017728" y1="0" y2="30"/><line opacity="0.2" x1="273.85128252065834" x2="273.85128252065834" y1="0" y2="30"/><line opacity="0.2" x1="431.87743159992664" x2="431.87743159992664" y1="0" y2="30"/><line opacity="0.2" x1="403.437509551033" x2="403.437509551033" y1="0" y2="30"/><line opacity="0.2" x1="283.1893668685784" x2="283.1893668685784" y1="0" y2="30"/><line opacity="0.2" x1="190.5423218412507" x2="190.5423218412507" y1="0" y2="30"/><line opacity="0.2" x1="349.9990210848184" x2="349.9990210848184" y1="0" y2="30"/><line opacity="0.2" x1="175.77157153572503" x2="175.77157153572503" y1="0" y2="30"/><line opacity="0.2" x1="290.2874421713857" x2="290.2874421713857" y1="0" y2="30"/><line opacity="0.2" x1="328.4215022438276" x2="328.4215022438276" y1="0" y2="30"/><line opacity="0.2" x1="296.85081427422267" x2="296.85081427422267" y1="0" y2="30"/><line opacity="0.2" x1="288.5713061757327" x2="288.5713061757327" y1="0" y2="30"/><line opacity="0.2" x1="100.36988337680606" x2="100.36988337680606" y1="0" y2="30"/><line opacity="0.2" x1="283.43853071950133" x2="283.43853071950133" y1="0" y2="30"/><line opacity="0.2" x1="221.24000506584002" x2="221.24000506584002" y1="0" y2="30"/><line opacity="0.2" x1="294.607891045274" x2="294.607891045274" y1="0" y2="30"/><line opacity="0.2" x1="179.22565054186464" x2="179.22565054186464" y1="0" y2="30"/><line opacity="0.2" x1="411.7662442053095" x2="411.7662442053095" y1="0" y2="30"/><line opacity="0.2" x1="368.85415339903386" x2="368.85415339903386" y1="0" y2="30"/><line opacity="0.2" x1="399.6643706502987" x2="399.6643706502987" y1="0" y2="30"/><line opacity="0.2" x1="437.1605032217682" x2="437.1605032217682" y1="0" y2="30"/><line opacity="0.2" x1="417.2058526502076" x2="417.2058526502076" y1="0" y2="30"/><line opacity="0.2" x1="403.7069716012084" x2="403.7069716012084" y1="0" y2="30"/><line opacity="0.2" x1="361.80575744002164" x2="361.80575744002164" y1="0" y2="30"/><line opacity="0.2" x1="211.73732488258756" x2="211.73732488258756" y1="0" y2="30"/><line opacity="0.2" x1="236.27676899487682" x2="236.27676899487682" y1="0" y2="30"/><line opacity="0.2" x1="445.03919057511183" x2="445.03919057511183" y1="0" y2="30"/><line opacity="0.2" x1="374.0927478095604" x2="374.0927478095604" y1="0" y2="30"/><line opacity="0.2" x1="341.0163661032337" x2="341.0163661032337" y1="0" y2="30"/><line opacity="0.2" x1="337.8789100440847" x2="337.8789100440847" y1="0" y2="30"/><line opacity="0.2" x1="291.6555423801733" x2="291.6555423801733" y1="0" y2="30"/><line opacity="0.2" x1="392.05401893728043" x2="392.05401893728043" y1="0" y2="30"/><line opacity="0.2" x1="261.34382790496215" x2="261.34382790496215" y1="0" y2="30"/><line opacity="0.2" x1="305.5048772739829" x2="305.5048772739829" y1="0" y2="30"/><line opacity="0.2" x1="345.415263419907" x2="345.415263419907" y1="0" y2="30"/><line opacity="0.2" x1="349.0993243744453" x2="349.0993243744453" y1="0" y2="30"/><line opacity="0.2" x1="518.6011727439434" x2="518.6011727439434" y1="0" y2="30"/><line opacity="0.2" x1="408.95070026638376" x2="408.95070026638376" y1="0" y2="30"/><line opacity="0.2" x1="322.0534606535066" x2="322.0534606535066" y1="0" y2="30"/><line opacity="0.2" x1="262.94797550470037" x2="262.94797550470037" y1="0" y2="30"/><line opacity="0.2" x1="515.0497272499189" x2="515.0497272499189" y1="0" y2="30"/><line opacity="0.2" x1="253.72327216436022" x2="253.72327216436022" y1="0" y2="30"/><line opacity="0.2" x1="337.8811385905059" x2="337.8811385905059" y1="0" y2="30"/><line opacity="0.2" x1="257.77224366256075" x2="257.77224366256075" y1="0" y2="30"/><line opacity="0.2" x1="371.2200441443802" x2="371.2200441443802" y1="0" y2="30"/><line opacity="0.2" x1="330.1359328141191" x2="330.1359328141191" y1="0" y2="30"/><line opacity="0.2" x1="344.5390126115426" x2="344.5390126115426" y1="0" y2="30"/><line opacity="0.2" x1="378.92095651118814" x2="378.92095651118814" y1="0" y2="30"/><line opacity="0.2" x1="319.135047592055" x2="319.135047592055" y1="0" y2="30"/><line opacity="0.2" x1="452.9950833164336" x2="452.9950833164336" y1="0" y2="30"/><line opacity="0.2" x1="472.07502327984594" x2="472.07502327984594" y1="0" y2="30"/><line opacity="0.2" x1="393.14778538060347" x2="393.14778538060347" y1="0" y2="30"/><line opacity="0.2" x1="421.998899918363" x2="421.998899918363" y1="0" y2="30"/><line opacity="0.2" x1="381.2677218633804" x2="381.2677218633804" y1="0" y2="30"/><line opacity="0.2" x1="262.71300007797765" x2="262.71300007797765" y1="0" y2="30"/><line opacity="0.2" x1="395.4835458074413" x2="395.4835458074413" y1="0" y2="30"/><line opacity="0.2" x1="275.8149158158026" x2="275.8149158158026" y1="0" y2="30"/><line opacity="0.2" x1="409.3386373194871" x2="409.3386373194871" y1="0" y2="30"/><line opacity="0.2" x1="353.3904177188904" x2="353.3904177188904" y1="0" y2="30"/><line opacity="0.2" x1="256.8372587290579" x2="256.8372587290579" y1="0" y2="30"/><line opacity="0.2" x1="422.78155474804913" x2="422.78155474804913" y1="0" y2="30"/><line opacity="0.2" x1="270.1526063311402" x2="270.1526063311402" y1="0" y2="30"/><line opacity="0.2" x1="181.092118176193" x2="181.092118176193" y1="0" y2="30"/><line opacity="0.2" x1="20" x2="20" y1="0" y2="30"/><line opacity="0.2" x1="399.41745176792466" x2="399.41745176792466" y1="0" y2="30"/><line opacity="0.2" x1="299.29086777444644" x2="299.29086777444644" y1="0" y2="30"/><line opacity="0.2" x1="228.15918992344965" x2="228.15918992344965" y1="0" y2="30"/><line opacity="0.2" x1="243.49470924089493" x2="243.49470924089493" y1="0" y2="30"/><line opacity="0.2" x1="519.1637175760663" x2="519.1637175760663" y1="0" y2="30"/><line opacity="0.2" x1="444.3705201574588" x2="444.3705201574588" y1="0" y2="30"/><line opacity="0.2" x1="443.94723834853073" x2="443.94723834853073" y1="0" y2="30"/><line opacity="0.2" x1="337.653197069342" x2="337.653197069342" y1="0" y2="30"/><line opacity="0.2" x1="341.5177388597544" x2="341.5177388597544" y1="0" y2="30"/><line opacity="0.2" x1="498.25277327766423" x2="498.25277327766423" y1="0" y2="30"/><line opacity="0.2" x1="312.4137406802149" x2="312.4137406802149" y1="0" y2="30"/><line opacity="0.2" x1="348.71980832596284" x2="348.71980832596284" y1="0" y2="30"/><line opacity="0.2" x1="301.1953752591705" x2="301.1953752591705" y1="0" y2="30"/><line opacity="0.2" x1="411.7085153992069" x2="411.7085153992069" y1="0" y2="30"/><line opacity="0.2" x1="370.77840961124485" x2="370.77840961124485" y1="0" y2="30"/><line opacity="0.2" x1="364.8125370970524" x2="364.8125370970524" y1="0" y2="30"/><line opacity="0.2" x1="281.53263635172516" x2="281.53263635172516" y1="0" y2="30"/><line opacity="0.2" x1="266.3137049014165" x2="266.3137049014165" y1="0" y2="30"/><line opacity="0.2" x1="266.43480238056964" x2="266.43480238056964" y1="0" y2="30"/><line opacity="0.2" x1="261.58597342916806" x2="261.58597342916806" y1="0" y2="30"/><line opacity="0.2" x1="338.14044884613276" x2="338.14044884613276" y1="0" y2="30"/><line opacity="0.2" x1="442.7156901528039" x2="442.7156901528039" y1="0" y2="30"/><line opacity="0.2" x1="249.25669856377448" x2="249.25669856377448" y1="0" y2="30"/><line opacity="0.2" x1="278.7276573357498" x2="278.7276573357498" y1="0" y2="30"/><line opacity="0.2" x1="457.0993945328237" x2="457.0993945328237" y1="0" y2="30"/><line opacity="0.2" x1="519.2349982040673" x2="519.2349982040673" y1="0" y2="30"/><line opacity="0.2" x1="278.8873285693933" x2="278.8873285693933" y1="0" y2="30"/><line opacity="0.2" x1="303.2796543840269" x2="303.2796543840269" y1="0" y2="30"/><line opacity="0.2" x1="442.70007979447354" x2="442.70007979447354" y1="0" y2="30"/><line opacity="0.2" x1="416.03849792735684" x2="416.03849792735684" y1="0" y2="30"/><line opacity="0.2" x1="301.27659628950704" x2="301.27659628950704" y1="0" y2="30"/><line opacity="0.2" x1="468.1263636524331" x2="468.1263636524331" y1="0" y2="30"/><line opacity="0.2" x1="154.1582979262985" x2="154.1582979262985" y1="0" y2="30"/><line opacity="0.2" x1="305.0940121082958" x2="305.0940121082958" y1="0" y2="30"/><line opacity="0.2" x1="388.1459888368548" x2="388.1459888368548" y1="0" y2="30"/><line opacity="0.2" x1="418.2960351839969" x2="418.2960351839969" y1="0" y2="30"/><line opacity="0.2" x1="409.92277938937053" x2="409.92277938937053" y1="0" y2="30"/><line opacity="0.2" x1="323.52500982583786" x2="323.52500982583786" y1="0" y2="30"/><line opacity="0.2" x1="316.13763857794277" x2="316.13763857794277" y1="0" y2="30"/><line opacity="0.2" x1="455.29002066528426" x2="455.29002066528426" y1="0" y2="30"/><line opacity="0.2" x1="361.56759415977047" x2="361.56759415977047" y1="0" y2="30"/><line opacity="0.2" x1="249.8923201100619" x2="249.8923201100619" y1="0" y2="30"/><line opacity="0.2" x1="245.550749478116" x2="245.550749478116" y1="0" y2="30"/><line opacity="0.2" x1="311.05871860636574" x2="311.05871860636574" y1="0" y2="30"/><line opacity="0.2" x1="462.50950268276335" x2="462.50950268276335" y1="0" y2="30"/><line opacity="0.2" x1="238.464004673916" x2="238.464004673916" y1="0" y2="30"/><line opacity="0.2" x1="232.73299818383165" x2="232.73299818383165" y1="0" y2="30"/><line opacity="0.2" x1="301.92374386197145" x2="301.92374386197145" y1="0" y2="30"/><line opacity="0.2" x1="432.2368520172811" x2="432.2368520172811" y1="0" y2="30"/><line opacity="0.2" x1="329.150518273622" x2="329.150518273622" y1="0" y2="30"/><line opacity="0.2" x1="239.9729936143034" x2="239.9729936143034" y1="0" y2="30"/><line opacity="0.2" x1="456.2699838024409" x2="456.2699838024409" y1="0" y2="30"/><line opacity="0.2" x1="274.3635004706408" x2="274.3635004706408" y1="0" y2="30"/><line opacity="0.2" x1="364.14147602550275" x2="364.14147602550275" y1="0" y2="30"/><line opacity="0.2" x1="420.0724136501153" x2="420.0724136501153" y1="0" y2="30"/><line opacity="0.2" x1="364.61519036718636" x2="364.61519036718636" y1="0" y2="30"/><line opacity="0.2" x1="290.12720409829444" x2="290.12720409829444" y1="0" y2="30"/><line opacity="0.2" x1="394.3312266570001" x2="394.3312266570001" y1="0" y2="30"/><line opacity="0.2" x1="301.19834123019285" x2="301.19834123019285" y1="0" y2="30"/><line opacity="0.2" x1="450.62054036080826" x2="450.62054036080826" y1="0" y2="30"/><line opacity="0.2" x1="227.77203334520584" x2="227.77203334520584" y1="0" y2="30"/><line opacity="0.2" x1="376.80958478490646" x2="376.80958478490646" y1="0" y2="30"/><line opacity="0.2" x1="328.39655900422395" x2="328.39655900422395" y1="0" y2="30"/><line opacity="0.2" x1="390.5439255912481" x2="390.5439255912481" y1="0" y2="30"/><line opacity="0.2" x1="296.34851840131154" x2="296.34851840131154" y1="0" y2="30"/><line opacity="0.2" x1="326.8937301579387" x2="326.8937301579387" y1="0" y2="30"/><line opacity="0.2" x1="374.3946727544273" x2="374.3946727544273" y1="0" y2="30"/><line opacity="0.2" x1="384.0876954457813" x2="384.0876954457813" y1="0" y2="30"/><line opacity="0.2" x1="254.86199576410013" x2="254.86199576410013" y1="0" y2="30"/><line opacity="0.2" x1="432.28954351791424" x2="432.28954351791424" y1="0" y2="30"/><line opacity="0.2" x1="345.14453375350433" x2="345.14453375350433" y1="0" y2="30"/><line opacity="0.2" x1="328.94113746380305" x2="328.94113746380305" y1="0" y2="30"/><line opacity="0.2" x1="308.8637373213258" x2="308.8637373213258" y1="0" y2="30"/><line opacity="0.2" x1="303.1302726584348" x2="303.1302726584348" y1="0" y2="30"/><line opacity="0.2" x1="361.3323123942352" x2="361.3323123942352" y1="0" y2="30"/><line opacity="0.2" x1="374.1431445960989" x2="374.1431445960989" y1="0" y2="30"/><line opacity="0.2" x1="330.57187949134163" x2="330.57187949134163" y1="0" y2="30"/><line opacity="0.2" x1="469.80033072443837" x2="469.80033072443837" y1="0" y2="30"/><line opacity="0.2" x1="186.9085300199507" x2="186.9085300199507" y1="0" y2="30"/><line opacity="0.2" x1="343.43622955166666" x2="343.43622955166666" y1="0" y2="30"/><line opacity="0.2" x1="372.07613731887346" x2="372.07613731887346" y1="0" y2="30"/><line opacity="0.2" x1="379.0925140941709" x2="379.0925140941709" y1="0" y2="30"/><line opacity="0.2" x1="122.37160972297444" x2="122.37160972297444" y1="0" y2="30"/><line opacity="0.2" x1="425.61899580155523" x2="425.61899580155523" y1="0" y2="30"/><line opacity="0.2" x1="251.4796918945518" x2="251.4796918945518" y1="0" y2="30"/><line opacity="0.2" x1="342.2595714669022" x2="342.2595714669022" y1="0" y2="30"/><line opacity="0.2" x1="295.7696211823124" x2="295.7696211823124" y1="0" y2="30"/><line opacity="0.2" x1="328.34113216111507" x2="328.34113216111507" y1="0" y2="30"/><line opacity="0.2" x1="385.8700510977241" x2="385.8700510977241" y1="0" y2="30"/><line opacity="0.2" x1="244.86737409465982" x2="244.86737409465982" y1="0" y2="30"/><line opacity="0.2" x1="482.8675851344594" x2="482.8675851344594" y1="0" y2="30"/><line opacity="0.2" x1="262.38787321519226" x2="262.38787321519226" y1="0" y2="30"/><line opacity="0.2" x1="383.0478177569893" x2="383.0478177569893" y1="0" y2="30"/><line opacity="0.2" x1="290.474937454238" x2="290.474937454238" y1="0" y2="30"/><line opacity="0.2" x1="305.616999926729" x2="305.616999926729" y1="0" y2="30"/><line opacity="0.2" x1="303.10115330493875" x2="303.10115330493875" y1="0" y2="30"/><line opacity="0.2" x1="387.01020183175723" x2="387.01020183175723" y1="0" y2="30"/><line opacity="0.2" x1="357.5125735073" x2="357.5125735073" y1="0" y2="30"/><line opacity="0.2" x1="335.20532045791083" x2="335.20532045791083" y1="0" y2="30"/><line opacity="0.2" x1="298.7338437494249" x2="298.7338437494249" y1="0" y2="30"/><line opacity="0.2" x1="500.84611032335886" x2="500.84611032335886" y1="0" y2="30"/><line opacity="0.2" x1="495.56939445869784" x2="495.56939445869784" y1="0" y2="30"/><line opacity="0.2" x1="313.09080228886523" x2="313.09080228886523" y1="0" y2="30"/><line opacity="0.2" x1="384.55044840027875" x2="384.55044840027875" y1="0" y2="30"/><line opacity="0.2" x1="502.53609974671315" x2="502.53609974671315" y1="0" y2="30"/><line opacity="0.2" x1="407.48755068719686" x2="407.48755068719686" y1="0" y2="30"/><line opacity="0.2" x1="262.94185965769617" x2="262.94185965769617" y1="0" y2="30"/><line opacity="0.2" x1="361.63884820108154" x2="361.63884820108154" y1="0" y2="30"/><line opacity="0.2" x1="289.6291839741554" x2="289.6291839741554" y1="0" y2="30"/><line opacity="0.2" x1="351.66263668127147" x2="351.66263668127147" y1="0" y2="30"/><line opacity="0.2" x1="242.62090110579004" x2="242.62090110579004" y1="0" y2="30"/><line opacity="0.2" x1="335.70811812504854" x2="335.70811812504854" y1="0" y2="30"/><line opacity="0.2" x1="354.3401761759208" x2="354.3401761759208" y1="0" y2="30"/><line opacity="0.2" x1="224.8225311948837" x2="224.8225311948837" y1="0" y2="30"/><line opacity="0.2" x1="373.0616007372356" x2="373.0616007372356" y1="0" y2="30"/><line opacity="0.2" x1="319.9461902630362" x2="319.9461902630362" y1="0" y2="30"/><line opacity="0.2" x1="283.920682642118" x2="283.920682642118" y1="0" y2="30"/><line opacity="0.2" x1="329.2902372719346" x2="329.2902372719346" y1="0" y2="30"/><line opacity="0.2" x1="391.36487379621093" x2="391.36487379621093" y1="0" y2="30"/><line opacity="0.2" x1="523.3091535168496" x2="523.3091535168496" y1="0" y2="30"/><line opacity="0.2" x1="564.6673223626877" x2="564.6673223626877" y1="0" y2="30"/><line opacity="0.2" x1="400.6708217291135" x2="400.6708217291135" y1="0" y2="30"/><line opacity="0.2" x1="380.1295332015757" x2="380.1295332015757" y1="0" y2="30"/></g></svg>