<svg xmlns="http://www.w3.org/2000/svg" xmlns:xlink="http://www.w3.org/1999/xlink" class="plot-d6a7b5" fill="currentColor" font-family="system-ui, sans-serif" font-size="10" text-anchor="middle" width="640" height="60" viewBox="0 0 640 60" style="color: black; background-color: white;"><style>.plot-d6a7b5 {
  display: block;
  background: white;
  height: auto;
  height: intrinsic;
  max-width: 100%;
}
.plot-d6a7b5 text,
.plot-d6a7b5 tspan {
  white-space: pre;
}</style><g aria-label="x-axis tick" fill="none" stroke="currentColor"><path transform="translate(110.94884964679903,30)" d="M0,0L0,6"/><path transform="translate(211.243349225615,30)" d="M0,0L0,6"/><path transform="translate(311.53784880443095,30)" d="M0,0L0,6"/><path transform="translate(411.8323483832469,30)" d="M0,0L0,6"/><path transform="translate(512.1268479620628,30)" d="M0,0L0,6"/><path transform="translate(612.4213475408787,30)" d="M0,0L0,6"/></g><g aria-label="x-axis tick label" font-variant="tabular-nums" transform="translate(0,9)"><text y="0.71em" transform="translate(110.94884964679903,30)">−2</text><text y="0.71em" transform="translate(211.243349225615,30)">−1</text><text y="0.71em" transform="translate(311.53784880443095,30)">0</text><text y="0.71em" transform="translate(411.8323483832469,30)">1</text><text y="0.71em" transform="translate(512.1268479620628,30)">2</text><text y="0.71em" transform="translate(612.4213475408787,30)">3</text></g><g aria-label="tick" stroke="steelblue"><line opacity="0.2" x1="335.059965750484" x2="335.059965750484" y1="0.5" y2="30"/><line opacity="0.2" x1="385.62161598459744" x2="385.62161598459744" y1="0.5" y2="30"/><line opacity="0.2" x1="358.0489280844048" x2="358.0489280844048" y1="0.5" y2="30"/><line opacity="0.2" x1="308.37089399512786" x2="308.37089399512786" y1="0.5" y2="30"/><line opacity="0.2" x1="304.94198567960825" x2="304.94198567960825" y1="0.5" y2="30"/><line opacity="0.2" x1="307.2187908363828" x2="307.2187908363828" y1="0.5" y2="30"/><line opacity="0.2" x1="325.46062434927035" x2="325.46062434927035" y1="0.5" y2="30"/><line opacity="0.2" x1="522.5366341259121" x2="522.5366341259121" y1="0.5" y2="30"/><line opacity="0.2" x1="312.28624294894405" x2="312.28624294894405" y1="0.5" y2="30"/><line opacity="0.2" x1="411.9030069913661" x2="411.9030069913661" y1="0.5" y2="30"/><line opacity="0.2" x1="371.8416806606865" x2="371.8416806606865" y1="0.5" y2="30"/><line opacity="0.2" x1="204.47567811446876" x2="204.47567811446876" y1="0.5" y2="30"/><line opacity="0.2" x1="349.1466124523653" x2="349.1466124523653" y1="0.5" y2="30"/><line opacity="0.2" x1="340.86378785677795" x2="340.86378785677795" y1="0.5" y2="30"/><line opacity="0.2" x1="352.551318229956" x2="352.551318229956" y1="0.5" y2="30"/><line opacity="0.2" x1="296.02042064827936" x2="296.02042064827936" y1="0.5" y2="30"/><line opacity="0.2" x1="228.3991835214945" x2="228.3991835214945" y1="0.5" y2="30"/><line opacity="0.2" x1="379.64019670657024" x2="379.64019670657024" y1="0.5" y2="30"/><line opacity="0.2" x1="367.52877628707165" x2="367.52877628707165" y1="0.5" y2="30"/><line opacity="0.2" x1="433.4027073268392" x2="433.4027073268392" y1="0.5" y2="30"/><line opacity="0.2" x1="211.21566416446603" x2="211.21566416446603" y1="0.5" y2="30"/><line opacity="0.2" x1="432.2998752329787" x2="432.2998752329787" y1="0.5" y2="30"/><line opacity="0.2" x1="620" x2="620" y1="0.5" y2="30"/><line opacity="0.2" x1="259.08616771288854" x2="259.08616771288854" y1="0.5" y2="30"/><line opacity="0.2" x1="263.74643184777" x2="263.74643184777" y1="0.5" y2="30"/><line opacity="0.2" x1="250.05395448142468" x2="250.05395448142468" y1="0.5" y2="30"/><line opacity="0.2" x1="299.19846140337364" x2="299.19846140337364" y1="0.5" y2="30"/><line opacity="0.2" x1="276.13986152416203" x2="276.13986152416203" y1="0.5" y2="30"/><line opacity="0.2" x1="466.40471750031304" x2="466.40471750031304" y1="0.5" y2="30"/><line opacity="0.2" x1="223.68688423509616" x2="223.68688423509616" y1="0.5" y2="30"/><line opacity="0.2" x1="287.76640443928795" x2="287.76640443928795" y1="0.5" y2="30"/><line opacity="0.2" x1="372.2942309938426" x2="372.2942309938426" y1="0.5" y2="30"/><line opacity="0.2" x1="480.44461021457596" x2="480.44461021457596" y1="0.5" y2="30"/><line opacity="0.2" x1="415.48390603795013" x2="415.48390603795013" y1="0.5" y2="30"/><line opacity="0.2" x1="490.68049160170085" x2="490.68049160170085" y1="0.5" y2="30"/><line opacity="0.2" x1="347.55739283630624" x2="347.55739283630624" y1="0.5" y2="30"/><line opacity="0.2" x1="464.5707226375936" x2="464.5707226375936" y1="0.5" y2="30"/><line opacity="0.2" x1="289.3873180195547" x2="289.3873180195547" y1="0.5" y2="30"/><line opacity="0.2" x1="464.85242194809837" x2="464.85242194809837" y1="0.5" y2="30"/><line opacity="0.2" x1="414.4761579528027" x2="414.4761579528027" y1="0.5" y2="30"/><line opacity="0.2" x1="269.66397024545904" x2="269.66397024545904" y1="0.5" y2="30"/><line opacity="0.2" x1="287.9491066494913" x2="287.9491066494913" y1="0.5" y2="30"/><line opacity="0.2" x1="472.2424600728325" x2="472.2424600728325" y1="0.5" y2="30"/><line opacity="0.2" x1="478.435269684936" x2="478.435269684936" y1="0.5" y2="30"/><line opacity="0.2" x1="229.695673034011" x2="229.695673034011" y1="0.5" y2="30"/><line opacity="0.2" x1="223.51812936851076" x2="223.51812936851076" y1="0.5" y2="30"/><line opacity="0.2" x1="491.8702611984043" x2="491.8702611984043" y1="0.5" y2="30"/><line opacity="0.2" x1="233.71829183913272" x2="233.71829183913272" y1="0.5" y2="30"/><line opacity="0.2" x1="277.38735699651176" x2="277.38735699651176" y1="0.5" y2="30"/><line opacity="0.2" x1="315.42746651895266" x2="315.42746651895266" y1="0.5" y2="30"/><line opacity="0.2" x1="272.9088937625951" x2="272.9088937625951" y1="0.5" y2="30"/><line opacity="0.2" x1="252.86966752768978" x2="252.86966752768978" y1="0.5" y2="30"/><line opacity="0.2" x1="380.8654534653491" x2="380.8654534653491" y1="0.5" y2="30"/><line opacity="0.2" x1="214.49485562336386" x2="214.49485562336386" y1="0.5" y2="30"/><line opacity="0.2" x1="119.06192838464885" x2="119.06192838464885" y1="0.5" y2="30"/><line opacity="0.2" x1="231.62681312785512" x2="231.62681312785512" y1="0.5" y2="30"/><line opacity="0.2" x1="313.52616849116237" x2="313.52616849116237" y1="0.5" y2="30"/><line opacity="0.2" x1="337.91518736582" x2="337.91518736582" y1="0.5" y2="30"/><line opacity="0.2" x1="326.1973363785705" x2="326.1973363785705" y1="0.5" y2="30"/><line opacity="0.2" x1="312.08701463761327" x2="312.08701463761327" y1="0.5" y2="30"/><line opacity="0.2" x1="266.375933880878" x2="266.375933880878" y1="0.5" y2="30"/><line opacity="0.2" x1="290.69431219357915" x2="290.69431219357915" y1="0.5" y2="30"/><line opacity="0.2" x1="230.92799933866485" x2="230.92799933866485" y1="0.5" y2="30"/><line opacity="0.2" x1="297.999859208822" x2="297.999859208822" y1="0.5" y2="30"/><line opacity="0.2" x1="340.5851118090114" x2="340.5851118090114" y1="0.5" y2="30"/><line opacity="0.2" x1="154.50678768734164" x2="154.50678768734164" y1="0.5" y2="30"/><line opacity="0.2" x1="312.1825549231976" x2="312.1825549231976" y1="0.5" y2="30"/><line opacity="0.2" x1="510.9873737090787" x2="510.9873737090787" y1="0.5" y2="30"/><line opacity="0.2" x1="198.81518420628277" x2="198.81518420628277" y1="0.5" y2="30"/><line opacity="0.2" x1="335.5034501323652" x2="335.5034501323652" y1="0.5" y2="30"/><line opacity="0.2" x1="309.07306786948647" x2="309.07306786948647" y1="0.5" y2="30"/><line opacity="0.2" x1="344.59005838591105" x2="344.59005838591105" y1="0.5" y2="30"/><line opacity="0.2" x1="427.5277667681253" x2="427.5277667681253" y1="0.5" y2="30"/><line opacity="0.2" x1="280.6980256288431" x2="280.6980256288431" y1="0.5" y2="30"/><line opacity="0.2" x1="307.08124495045723" x2="307.08124495045723" y1="0.5" y2="30"/><line opacity="0.2" x1="308.1676403721849" x2="308.1676403721849" y1="0.5" y2="30"/><line opacity="0.2" x1="398.63448825435427" x2="398.63448825435427" y1="0.5" y2="30"/><line opacity="0.2" x1="294.2211132771617" x2="294.2211132771617" y1="0.5" y2="30"/><line opacity="0.2" x1="326.1050551092305" x2="326.1050551092305" y1="0.5" y2="30"/><line opacity="0.2" x1="488.3282499616037" x2="488.3282499616037" y1="0.5" y2="30"/><line opacity="0.2" x1="421.4331918318454" x2="421.4331918318454" y1="0.5" y2="30"/><line opacity="0.2" x1="319.293137492191" x2="319.293137492191" y1="0.5" y2="30"/><line opacity="0.2" x1="238.06541791830452" x2="238.06541791830452" y1="0.5" y2="30"/><line opacity="0.2" x1="375.58970694235074" x2="375.58970694235074" y1="0.5" y2="30"/><line opacity="0.2" x1="426.5416010660731" x2="426.5416010660731" y1="0.5" y2="30"/><line opacity="0.2" x1="457.58433482924744" x2="457.58433482924744" y1="0.5" y2="30"/><line opacity="0.2" x1="308.0477933642355" x2="308.0477933642355" y1="0.5" y2="30"/><line opacity="0.2" x1="246.29496740241615" x2="246.29496740241615" y1="0.5" y2="30"/><line opacity="0.2" x1="183.56068666872122" x2="183.56068666872122" y1="0.5" y2="30"/><line opacity="0.2" x1="230.32669575792974" x2="230.32669575792974" y1="0.5" y2="30"/><line opacity="0.2" x1="380.823697962906" x2="380.823697962906" y1="0.5" y2="30"/><line opacity="0.2" x1="411.49783661780486" x2="411.49783661780486" y1="0.5" y2="30"/><line opacity="0.2" x1="422.7741269142763" x2="422.7741269142763" y1="0.5" y2="30"/><line opacity="0.2" x1="460.08941910884806" x2="460.08941910884806" y1="0.5" y2="30"/><line opacity="0.2" x1="372.3755794413505" x2="372.3755794413505" y1="0.5" y2="30"/><line opacity="0.2" x1="385.66500225990717" x2="385.66500225990717" y1="0.5" y2="30"/><line opacity="0.2" x1="225.67203780334523" x2="225.67203780334523" y1="0.5" y2="30"/><line opacity="0.2" x1="375.40214382718773" x2="375.40214382718773" y1="0.5" y2="30"/><line opacity="0.2" x1="306.17695512324207" x2="306.17695512324207" y1="0.5" y2="30"/><line opacity="0.2" x1="216.23795125383748" x2="216.23795125383748" y1="0.5" y2="30"/><line opacity="0.2" x1="483.33226110286427" x2="483.33226110286427" y1="0.5" y2="30"/><line opacity="0.2" x1="446.50165073972346" x2="446.50165073972346" y1="0.5" y2="30"/><line opacity="0.2" x1="143.7059516291387" x2="143.7059516291387" y1="0.5" y2="30"/><line opacity="0.2" x1="164.30224974728878" x2="164.30224974728878" y1="0.5" y2="30"/><line opacity="0.2" x1="388.02867639985277" x2="388.02867639985277" y1="0.5" y2="30"/><line opacity="0.2" x1="402.03641964084886" x2="402.03641964084886" y1="0.5" y2="30"/><line opacity="0.2" x1="97.69870905821597" x2="97.69870905821597" y1="0.5" y2="30"/><line opacity="0.2" x1="412.5156689411439" x2="412.5156689411439" y1="0.5" y2="30"/><line opacity="0.2" x1="192.8831052904363" x2="192.8831052904363" y1="0.5" y2="30"/><line opacity="0.2" x1="265.76683756536465" x2="265.76683756536465" y1="0.5" y2="30"/><line opacity="0.2" x1="321.60813679463485" x2="321.60813679463485" y1="0.5" y2="30"/><line opacity="0.2" x1="483.9645298913997" x2="483.9645298913997" y1="0.5" y2="30"/><line opacity="0.2" x1="356.6481759987468" x2="356.6481759987468" y1="0.5" y2="30"/><line opacity="0.2" x1="431.4149235033397" x2="431.4149235033397" y1="0.5" y2="30"/><line opacity="0.2" x1="448.7639253762587" x2="448.7639253762587" y1="0.5" y2="30"/><line opacity="0.2" x1="360.0619892709075" x2="360.0619892709075" y1="0.5" y2="30"/><line opacity="0.2" x1="331.8244385176581" x2="331.8244385176581" y1="0.5" y2="30"/><line opacity="0.2" x1="319.27147978219637" x2="319.27147978219637" y1="0.5" y2="30"/><line opacity="0.2" x1="376.95780378804204" x2="376.95780378804204" y1="0.5" y2="30"/><line opacity="0.2" x1="356.04752250383" x2="356.04752250383" y1="0.5" y2="30"/><line opacity="0.2" x1="258.5444149317109" x2="258.5444149317109" y1="0.5" y2="30"/><line opacity="0.2" x1="251.64316522772242" x2="251.64316522772242" y1="0.5" y2="30"/><line opacity="0.2" x1="310.3930091357991" x2="310.3930091357991" y1="0.5" y2="30"/><line opacity="0.2" x1="247.36675046224917" x2="247.36675046224917" y1="0.5" y2="30"/><line opacity="0.2" x1="469.9197573899778" x2="469.9197573899778" y1="0.5" y2="30"/><line opacity="0.2" x1="336.6521084856072" x2="336.6521084856072" y1="0.5" y2="30"/><line opacity="0.2" x1="393.1320400226886" x2="393.1320400226886" y1="0.5" y2="30"/><line opacity="0.2" x1="300.9622171747628" x2="300.9622171747628" y1="0.5" y2="30"/><line opacity="0.2" x1="353.6812709981714" x2="353.6812709981714" y1="0.5" y2="30"/><line opacity="0.2" x1="297.10914698367907" x2="297.10914698367907" y1="0.5" y2="30"/><line opacity="0.2" x1="420.6154870587841" x2="420.6154870587841" y1="0.5" y2="30"/><line opacity="0.2" x1="129.90134284440222" x2="129.90134284440222" y1="0.5" y2="30"/><line opacity="0.2" x1="363.32089718149484" x2="363.32089718149484" y1="0.5" y2="30"/><line opacity="0.2" x1="244.69764474487653" x2="244.69764474487653" y1="0.5" y2="30"/><line opacity="0.2" x1="375.4708967082889" x2="375.4708967082889" y1="0.5" y2="30"/><line opacity="0.2" x1="345.87748959045285" x2="345.87748959045285" y1="0.5" y2="30"/><line opacity="0.2" x1="153.95791624490153" x2="153.95791624490153" y1="0.5" y2="30"/><line opacity="0.2" x1="207.03670762929295" x2="207.03670762929295" y1="0.5" y2="30"/><line opacity="0.2" x1="419.99129135746966" x2="419.99129135746966" y1="0.5" y2="30"/><line opacity="0.2" x1="307.51489480231476" x2="307.51489480231476" y1="0.5" y2="30"/><line opacity="0.2" x1="176.72953141314377" x2="176.72953141314377" y1="0.5" y2="30"/><line opacity="0.2" x1="236.7948421804431" x2="236.7948421804431" y1="0.5" y2="30"/><line opacity="0.2" x1="338.56630752280876" x2="338.56630752280876" y1="0.5" y2="30"/><line opacity="0.2" x1="353.05902229651923" x2="353.05902229651923" y1="0.5" y2="30"/><line opacity="0.2" x1="118.10301768993571" x2="118.10301768993571" y1="0.5" y2="30"/><line opacity="0.2" x1="203.32838392282252" x2="203.32838392282252" y1="0.5" y2="30"/><line opacity="0.2" x1="373.55854031318387" x2="373.55854031318387" y1="0.5" y2="30"/><line opacity="0.2" x1="406.40787438879664" x2="406.40787438879664" y1="0.5" y2="30"/><line opacity="0.2" x1="137.09475974482115" x2="137.09475974482115" y1="0.5" y2="30"/><line opacity="0.2" x1="333.4850908932706" x2="333.4850908932706" y1="0.5" y2="30"/><line opacity="0.2" x1="392.57980472836675" x2="392.57980472836675" y1="0.5" y2="30"/><line opacity="0.2" x1="256.8758585216601" x2="256.8758585216601" y1="0.5" y2="30"/><line opacity="0.2" x1="294.06075857790887" x2="294.06075857790887" y1="0.5" y2="30"/><line opacity="0.2" x1="62.89471487515695" x2="62.89471487515695" y1="0.5" y2="30"/><line opacity="0.2" x1="550.4950051145844" x2="550.4950051145844" y1="0.5" y2="30"/><line opacity="0.2" x1="280.1397139800956" x2="280.1397139800956" y1="0.5" y2="30"/><line opacity="0.2" x1="125.68531941663161" x2="125.68531941663161" y1="0.5" y2="30"/><line opacity="0.2" x1="281.51467685768426" x2="281.51467685768426" y1="0.5" y2="30"/><line opacity="0.2" x1="217.54317098084007" x2="217.54317098084007" y1="0.5" y2="30"/><line opacity="0.2" x1="325.55672411988127" x2="325.55672411988127" y1="0.5" y2="30"/><line opacity="0.2" x1="244.594585970167" x2="244.594585970167" y1="0.5" y2="30"/><line opacity="0.2" x1="182.05570823110543" x2="182.05570823110543" y1="0.5" y2="30"/><line opacity="0.2" x1="297.9926750107471" x2="297.9926750107471" y1="0.5" y2="30"/><line opacity="0.2" x1="285.1571715412928" x2="285.1571715412928" y1="0.5" y2="30"/><line opacity="0.2" x1="360.1428215974965" x2="360.1428215974965" y1="0.5" y2="30"/><line opacity="0.2" x1="308.58651941619297" x2="308.58651941619297" y1="0.5" y2="30"/><line opacity="0.2" x1="555.2375077186523" x2="555.2375077186523" y1="0.5" y2="30"/><line opacity="0.2" x1="269.2902540371125" x2="269.2902540371125" y1="0.5" y2="30"/><line opacity="0.2" x1="344.94657734822226" x2="344.94657734822226" y1="0.5" y2="30"/><line opacity="0.2" x1="279.8737316077149" x2="279.8737316077149" y1="0.5" y2="30"/><line opacity="0.2" x1="319.1932389944549" x2="319.1932389944549" y1="0.5" y2="30"/><line opacity="0.2" x1="531.4194923194996" x2="531.4194923194996" y1="0.5" y2="30"/><line opacity="0.2" x1="254.92816559623276" x2="254.92816559623276" y1="0.5" y2="30"/><line opacity="0.2" x1="521.9230167154368" x2="521.9230167154368" y1="0.5" y2="30"/><line opacity="0.2" x1="280.6826342968534" x2="280.6826342968534" y1="0.5" y2="30"/><line opacity="0.2" x1="192.10908829382484" x2="192.10908829382484" y1="0.5" y2="30"/><line opacity="0.2" x1="486.78257304406" x2="486.78257304406" y1="0.5" y2="30"/><line opacity="0.2" x1="319.58273870905634" x2="319.58273870905634" y1="0.5" y2="30"/><line opacity="0.2" x1="390.0298615643387" x2="390.0298615643387" y1="0.5" y2="30"/><line opacity="0.2" x1="507.12190543069113" x2="507.12190543069113" y1="0.5" y2="30"/><line opacity="0.2" x1="330.92065057208134" x2="330.92065057208134" y1="0.5" y2="30"/><line opacity="0.2" x1="327.5452404704629" x2="327.5452404704629" y1="0.5" y2="30"/><line opacity="0.2" x1="284.8711710964423" x2="284.8711710964423" y1="0.5" y2="30"/><line opacity="0.2" x1="446.6629215555054" x2="446.6629215555054" y1="0.5" y2="30"/><line opacity="0.2" x1="96.52241357526485" x2="96.52241357526485" y1="0.5" y2="30"/><line opacity="0.2" x1="333.96598658653295" x2="333.96598658653295" y1="0.5" y2="30"/><line opacity="0.2" x1="151.1930531110433" x2="151.1930531110433" y1="0.5" y2="30"/><line opacity="0.2" x1="189.54438086730147" x2="189.54438086730147" y1="0.5" y2="30"/><line opacity="0.2" x1="365.2704881255465" x2="365.2704881255465" y1="0.5" y2="30"/><line opacity="0.2" x1="339.9249642907117" x2="339.9249642907117" y1="0.5" y2="30"/><line opacity="0.2" x1="266.90513310586664" x2="266.90513310586664" y1="0.5" y2="30"/><line opacity="0.2" x1="438.69103097216816" x2="438.69103097216816" y1="0.5" y2="30"/><line opacity="0.2" x1="99.81953888940492" x2="99.81953888940492" y1="0.5" y2="30"/><line opacity="0.2" x1="494.7020276865221" x2="494.7020276865221" y1="0.5" y2="30"/><line opacity="0.2" x1="255.74083739690457" x2="255.74083739690457" y1="0.5" y2="30"/><line opacity="0.2" x1="297.7264777462157" x2="297.7264777462157" y1="0.5" y2="30"/><line opacity="0.2" x1="420.5970656049784" x2="420.5970656049784" y1="0.5" y2="30"/><line opacity="0.2" x1="320.47241302312506" x2="320.47241302312506" y1="0.5" y2="30"/><line opacity="0.2" x1="281.4080043985979" x2="281.4080043985979" y1="0.5" y2="30"/><line opacity="0.2" x1="305.354801089678" x2="305.354801089678" y1="0.5" y2="30"/><line opacity="0.2" x1="357.58546185819046" x2="357.58546185819046" y1="0.5" y2="30"/><line opacity="0.2" x1="443.4971596292705" x2="443.4971596292705" y1="0.5" y2="30"/><line opacity="0.2" x1="312.083401259767" x2="312.083401259767" y1="0.5" y2="30"/><line opacity="0.2" x1="323.24863339746264" x2="323.24863339746264" y1="0.5" y2="30"/><line opacity="0.2" x1="263.8427912773817" x2="263.8427912773817" y1="0.5" y2="30"/><line opacity="0.2" x1="418.11591532306323" x2="418.11591532306323" y1="0.5" y2="30"/><line opacity="0.2" x1="350.04580630740315" x2="350.04580630740315" y1="0.5" y2="30"/><line opacity="0.2" x1="327.2763710049946" x2="327.2763710049946" y1="0.5" y2="30"/><line opacity="0.2" x1="314.88643932817104" x2="314.88643932817104" y1="0.5" y2="30"/><line opacity="0.2" x1="326.82187843122614" x2="326.82187843122614" y1="0.5" y2="30"/><line opacity="0.2" x1="194.86421527595252" x2="194.86421527595252" y1="0.5" y2="30"/><line opacity="0.2" x1="253.35730883801972" x2="253.35730883801972" y1="0.5" y2="30"/><line opacity="0.2" x1="238.87504897650933" x2="238.87504897650933" y1="0.5" y2="30"/><line opacity="0.2" x1="139.93111513507188" x2="139.93111513507188" y1="0.5" y2="30"/><line opacity="0.2" x1="306.1113629196998" x2="306.1113629196998" y1="0.5" y2="30"/><line opacity="0.2" x1="166.85795851273025" x2="166.85795851273025" y1="0.5" y2="30"/><line opacity="0.2" x1="294.9944712113788" x2="294.9944712113788" y1="0.5" y2="30"/><line opacity="0.2" x1="280.3860128337573" x2="280.3860128337573" y1="0.5" y2="30"/><line opacity="0.2" x1="312.56529779642665" x2="312.56529779642665" y1="0.5" y2="30"/><line opacity="0.2" x1="203.50250290630322" x2="203.50250290630322" y1="0.5" y2="30"/><line opacity="0.2" x1="242.4640565889204" x2="242.4640565889204" y1="0.5" y2="30"/><line opacity="0.2" x1="67.43688430943702" x2="67.43688430943702" y1="0.5" y2="30"/><line opacity="0.2" x1="547.1169864841684" x2="547.1169864841684" y1="0.5" y2="30"/><line opacity="0.2" x1="208.40167078250926" x2="208.40167078250926" y1="0.5" y2="30"/><line opacity="0.2" x1="331.32705584025854" x2="331.32705584025854" y1="0.5" y2="30"/><line opacity="0.2" x1="297.5740718569998" x2="297.5740718569998" y1="0.5" y2="30"/><line opacity="0.2" x1="317.13087958531827" x2="317.13087958531827" y1="0.5" y2="30"/><line opacity="0.2" x1="190.40169005500115" x2="190.40169005500115" y1="0.5" y2="30"/><line opacity="0.2" x1="397.7422125971082" x2="397.7422125971082" y1="0.5" y2="30"/><line opacity="0.2" x1="233.79868199548156" x2="233.79868199548156" y1="0.5" y2="30"/><line opacity="0.2" x1="238.46358683279695" x2="238.46358683279695" y1="0.5" y2="30"/><line opacity="0.2" x1="244.32796555807982" x2="244.32796555807982" y1="0.5" y2="30"/><line opacity="0.2" x1="255.79335790175455" x2="255.79335790175455" y1="0.5" y2="30"/><line opacity="0.2" x1="317.737032544935" x2="317.737032544935" y1="0.5" y2="30"/><line opacity="0.2" x1="324.67626890204343" x2="324.67626890204343" y1="0.5" y2="30"/><line opacity="0.2" x1="279.9593119340501" x2="279.9593119340501" y1="0.5" y2="30"/><line opacity="0.2" x1="395.6148042271601" x2="395.6148042271601" y1="0.5" y2="30"/><line opacity="0.2" x1="372.1364324244894" x2="372.1364324244894" y1="0.5" y2="30"/><line opacity="0.2" x1="383.45309366346316" x2="383.45309366346316" y1="0.5" y2="30"/><line opacity="0.2" x1="101.13921499937837" x2="101.13921499937837" y1="0.5" y2="30"/><line opacity="0.2" x1="197.56367097255017" x2="197.56367097255017" y1="0.5" y2="30"/><line opacity="0.2" x1="301.2890613371573" x2="301.2890613371573" y1="0.5" y2="30"/><line opacity="0.2" x1="308.91924404366017" x2="308.91924404366017" y1="0.5" y2="30"/><line opacity="0.2" x1="405.4056090151769" x2="405.4056090151769" y1="0.5" y2="30"/><line opacity="0.2" x1="336.47793806335284" x2="336.47793806335284" y1="0.5" y2="30"/><line opacity="0.2" x1="433.1391664717251" x2="433.1391664717251" y1="0.5" y2="30"/><line opacity="0.2" x1="125.69043385145375" x2="125.69043385145375" y1="0.5" y2="30"/><line opacity="0.2" x1="214.66416896140439" x2="214.66416896140439" y1="0.5" y2="30"/><line opacity="0.2" x1="228.55200527680213" x2="228.55200527680213" y1="0.5" y2="30"/><line opacity="0.2" x1="272.17484025804794" x2="272.17484025804794" y1="0.5" y2="30"/><line opacity="0.2" x1="122.01974856591691" x2="122.01974856591691" y1="0.5" y2="30"/><line opacity="0.2" x1="361.3427398488939" x2="361.3427398488939" y1="0.5" y2="30"/><line opacity="0.2" x1="381.45797365161764" x2="381.45797365161764" y1="0.5" y2="30"/><line opacity="0.2" x1="561.8243651118127" x2="561.8243651118127" y1="0.5" y2="30"/><line opacity="0.2" x1="246.06863498892065" x2="246.06863498892065" y1="0.5" y2="30"/><line opacity="0.2" x1="293.4984206241845" x2="293.4984206241845" y1="0.5" y2="30"/><line opacity="0.2" x1="240.97895648814364" x2="240.97895648814364" y1="0.5" y2="30"/><line opacity="0.2" x1="319.0345569736254" x2="319.0345569736254" y1="0.5" y2="30"/><line opacity="0.2" x1="237.68996121571587" x2="237.68996121571587" y1="0.5" y2="30"/><line opacity="0.2" x1="285.97243844716655" x2="285.97243844716655" y1="0.5" y2="30"/><line opacity="0.2" x1="328.22157157573366" x2="328.22157157573366" y1="0.5" y2="30"/><line opacity="0.2" x1="204.87249523171243" x2="204.87249523171243" y1="0.5" y2="30"/><line opacity="0.2" x1="233.41086728937236" x2="233.41086728937236" y1="0.5" y2="30"/><line opacity="0.2" x1="56.25213382944435" x2="56.25213382944435" y1="0.5" y2="30"/><line opacity="0.2" x1="208.32272022933233" x2="208.32272022933233" y1="0.5" y2="30"/><line opacity="0.2" x1="338.0386481823764" x2="338.0386481823764" y1="0.5" y2="30"/><line opacity="0.2" x1="148.68904192845199" x2="148.68904192845199" y1="0.5" y2="30"/><line opacity="0.2" x1="408.91687118340354" x2="408.91687118340354" y1="0.5" y2="30"/><line opacity="0.2" x1="346.15535130974354" x2="346.15535130974354" y1="0.5" y2="30"/><line opacity="0.2" x1="202.08619561683557" x2="202.08619561683557" y1="0.5" y2="30"/><line opacity="0.2" x1="278.9841444079749" x2="278.9841444079749" y1="0.5" y2="30"/><line opacity="0.2" x1="255.22601725590528" x2="255.22601725590528" y1="0.5" y2="30"/><line opacity="0.2" x1="349.886171884988" x2="349.886171884988" y1="0.5" y2="30"/><line opacity="0.2" x1="166.57619049368424" x2="166.57619049368424" y1="0.5" y2="30"/><line opacity="0.2" x1="389.09323917022016" x2="389.09323917022016" y1="0.5" y2="30"/><line opacity="0.2" x1="261.5772856084749" x2="261.5772856084749" y1="0.5" y2="30"/><line opacity="0.2" x1="556.4829728757887" x2="556.4829728757887" y1="0.5" y2="30"/><line opacity="0.2" x1="161.6662570942883" x2="161.6662570942883" y1="0.5" y2="30"/><line opacity="0.2" x1="137.8677200994451" x2="137.8677200994451" y1="0.5" y2="30"/><line opacity="0.2" x1="436.27939389170564" x2="436.27939389170564" y1="0.5" y2="30"/><line opacity="0.2" x1="305.80256690536777" x2="305.80256690536777" y1="0.5" y2="30"/><line opacity="0.2" x1="322.52669823973207" x2="322.52669823973207" y1="0.5" y2="30"/><line opacity="0.2" x1="234.70518472067354" x2="234.70518472067354" y1="0.5" y2="30"/><line opacity="0.2" x1="198.26771891560008" x2="198.26771891560008" y1="0.5" y2="30"/><line opacity="0.2" x1="256.3150386974303" x2="256.3150386974303" y1="0.5" y2="30"/><line opacity="0.2" x1="288.2965893915318" x2="288.2965893915318" y1="0.5" y2="30"/><line opacity="0.2" x1="105.33936852127292" x2="105.33936852127292" y1="0.5" y2="30"/><line opacity="0.2" x1="351.183801585867" x2="351.183801585867" y1="0.5" y2="30"/><line opacity="0.2" x1="381.0171780766368" x2="381.0171780766368" y1="0.5" y2="30"/><line opacity="0.2" x1="142.50464936592914" x2="142.50464936592914" y1="0.5" y2="30"/><line opacity="0.2" x1="107.82290347390759" x2="107.82290347390759" y1="0.5" y2="30"/><line opacity="0.2" x1="27.44272904301272" x2="27.44272904301272" y1="0.5" y2="30"/><line opacity="0.2" x1="154.91204388900843" x2="154.91204388900843" y1="0.5" y2="30"/><line opacity="0.2" x1="253.62018714353312" x2="253.62018714353312" y1="0.5" y2="30"/><line opacity="0.2" x1="313.0861185178337" x2="313.0861185178337" y1="0.5" y2="30"/><line opacity="0.2" x1="286.24578558261425" x2="286.24578558261425" y1="0.5" y2="30"/><line opacity="0.2" x1="469.3397634353592" x2="469.3397634353592" y1="0.5" y2="30"/><line opacity="0.2" x1="432.3984667036226" x2="432.3984667036226" y1="0.5" y2="30"/><line opacity="0.2" x1="513.633747063625" x2="513.633747063625" y1="0.5" y2="30"/><line opacity="0.2" x1="313.3463939556142" x2="313.3463939556142" y1="0.5" y2="30"/><line opacity="0.2" x1="123.48653474460849" x2="123.48653474460849" y1="0.5" y2="30"/><line opacity="0.2" x1="238.01951797992848" x2="238.01951797992848" y1="0.5" y2="30"/><line opacity="0.2" x1="151.9560874423314" x2="151.9560874423314" y1="0.5" y2="30"/><line opacity="0.2" x1="105.8141408596384" x2="105.8141408596384" y1="0.5" y2="30"/><line opacity="0.2" x1="335.90704108874223" x2="335.90704108874223" y1="0.5" y2="30"/><line opacity="0.2" x1="401.95076669353347" x2="401.95076669353347" y1="0.5" y2="30"/><line opacity="0.2" x1="436.78159035270704" x2="436.78159035270704" y1="0.5" y2="30"/><line opacity="0.2" x1="156.98349982755727" x2="156.98349982755727" y1="0.5" y2="30"/><line opacity="0.2" x1="221.5208914855405" x2="221.5208914855405" y1="0.5" y2="30"/><line opacity="0.2" x1="277.1472091763575" x2="277.1472091763575" y1="0.5" y2="30"/><line opacity="0.2" x1="224.32559340401565" x2="224.32559340401565" y1="0.5" y2="30"/><line opacity="0.2" x1="368.0415044540236" x2="368.0415044540236" y1="0.5" y2="30"/><line opacity="0.2" x1="375.5401896953893" x2="375.5401896953893" y1="0.5" y2="30"/><line opacity="0.2" x1="409.0773879436099" x2="409.0773879436099" y1="0.5" y2="30"/><line opacity="0.2" x1="203.60582267207317" x2="203.60582267207317" y1="0.5" y2="30"/><line opacity="0.2" x1="346.5904598358873" x2="346.5904598358873" y1="0.5" y2="30"/><line opacity="0.2" x1="228.06803334694817" x2="228.06803334694817" y1="0.5" y2="30"/><line opacity="0.2" x1="525.6502709516095" x2="525.6502709516095" y1="0.5" y2="30"/><line opacity="0.2" x1="184.73637140429668" x2="184.73637140429668" y1="0.5" y2="30"/><line opacity="0.2" x1="518.953432549827" x2="518.953432549827" y1="0.5" y2="30"/><line opacity="0.2" x1="371.77754441149443" x2="371.77754441149443" y1="0.5" y2="30"/><line opacity="0.2" x1="215.20284684187996" x2="215.20284684187996" y1="0.5" y2="30"/><line opacity="0.2" x1="445.94695113187896" x2="445.94695113187896" y1="0.5" y2="30"/><line opacity="0.2" x1="386.50630977749756" x2="386.50630977749756" y1="0.5" y2="30"/><line opacity="0.2" x1="141.83113335940823" x2="141.83113335940823" y1="0.5" y2="30"/><line opacity="0.2" x1="493.58123669945" x2="493.58123669945" y1="0.5" y2="30"/><line opacity="0.2" x1="172.53046225501242" x2="172.53046225501242" y1="0.5" y2="30"/><line opacity="0.2" x1="256.0814542867697" x2="256.0814542867697" y1="0.5" y2="30"/><line opacity="0.2" x1="321.43992132654375" x2="321.43992132654375" y1="0.5" y2="30"/><line opacity="0.2" x1="351.26985530661403" x2="351.26985530661403" y1="0.5" y2="30"/><line opacity="0.2" x1="458.38191619421633" x2="458.38191619421633" y1="0.5" y2="30"/><line opacity="0.2" x1="341.22629282708033" x2="341.22629282708033" y1="0.5" y2="30"/><line opacity="0.2" x1="195.13033188473838" x2="195.13033188473838" y1="0.5" y2="30"/><line opacity="0.2" x1="321.5648343783094" x2="321.5648343783094" y1="0.5" y2="30"/><line opacity="0.2" x1="383.851521092908" x2="383.851521092908" y1="0.5" y2="30"/><line opacity="0.2" x1="446.4669584798754" x2="446.4669584798754" y1="0.5" y2="30"/><line opacity="0.2" x1="420.0972535629385" x2="420.0972535629385" y1="0.5" y2="30"/><line opacity="0.2" x1="357.33586483352866" x2="357.33586483352866" y1="0.5" y2="30"/><line opacity="0.2" x1="426.38551180623097" x2="426.38551180623097" y1="0.5" y2="30"/><line opacity="0.2" x1="236.71186652863716" x2="236.71186652863716" y1="0.5" y2="30"/><line opacity="0.2" x1="154.42821700553722" x2="154.42821700553722" y1="0.5" y2="30"/><line opacity="0.2" x1="348.7790216681262" x2="348.7790216681262" y1="0.5" y2="30"/><line opacity="0.2" x1="324.24328285712204" x2="324.24328285712204" y1="0.5" y2="30"/><line opacity="0.2" x1="416.16055532800226" x2="416.16055532800226" y1="0.5" y2="30"/><line opacity="0.2" x1="395.59378957555236" x2="395.59378957555236" y1="0.5" y2="30"/><line opacity="0.2" x1="302.3436683641168" x2="302.3436683641168" y1="0.5" y2="30"/><line opacity="0.2" x1="393.7714529623332" x2="393.7714529623332" y1="0.5" y2="30"/><line opacity="0.2" x1="256.5569906099206" x2="256.5569906099206" y1="0.5" y2="30"/><line opacity="0.2" x1="247.8737213537014" x2="247.8737213537014" y1="0.5" y2="30"/><line opacity="0.2" x1="373.4182633395687" x2="373.4182633395687" y1="0.5" y2="30"/><line opacity="0.2" x1="295.2362035842932" x2="295.2362035842932" y1="0.5" y2="30"/><line opacity="0.2" x1="571.8889404730438" x2="571.8889404730438" y1="0.5" y2="30"/><line opacity="0.2" x1="260.01662466219386" x2="260.01662466219386" y1="0.5" y2="30"/><line opacity="0.2" x1="337.68159119354056" x2="337.68159119354056" y1="0.5" y2="30"/><line opacity="0.2" x1="275.0946653668538" x2="275.0946653668538" y1="0.5" y2="30"/><line opacity="0.2" x1="123.44122004403431" x2="123.44122004403431" y1="0.5" y2="30"/><line opacity="0.2" x1="401.9362445167431" x2="401.9362445167431" y1="0.5" y2="30"/><line opacity="0.2" x1="357.8730828064" x2="357.8730828064" y1="0.5" y2="30"/><line opacity="0.2" x1="310.7964625150264" x2="310.7964625150264" y1="0.5" y2="30"/><line opacity="0.2" x1="186.23842783614546" x2="186.23842783614546" y1="0.5" y2="30"/><line opacity="0.2" x1="288.98211734291294" x2="288.98211734291294" y1="0.5" y2="30"/><line opacity="0.2" x1="140.38025366972872" x2="140.38025366972872" y1="0.5" y2="30"/><line opacity="0.2" x1="354.51972910182343" x2="354.51972910182343" y1="0.5" y2="30"/><line opacity="0.2" x1="143.01546515947004" x2="143.01546515947004" y1="0.5" y2="30"/><line opacity="0.2" x1="329.3464153241474" x2="329.3464153241474" y1="0.5" y2="30"/><line opacity="0.2" x1="275.95801259538473" x2="275.95801259538473" y1="0.5" y2="30"/><line opacity="0.2" x1="302.45639124016475" x2="302.45639124016475" y1="0.5" y2="30"/><line opacity="0.2" x1="441.83570635487905" x2="441.83570635487905" y1="0.5" y2="30"/><line opacity="0.2" x1="301.61897984261583" x2="301.61897984261583" y1="0.5" y2="30"/><line opacity="0.2" x1="433.1555194788992" x2="433.1555194788992" y1="0.5" y2="30"/><line opacity="0.2" x1="325.66891222042364" x2="325.66891222042364" y1="0.5" y2="30"/><line opacity="0.2" x1="358.08060849815445" x2="358.08060849815445" y1="0.5" y2="30"/><line opacity="0.2" x1="186.28009312220922" x2="186.28009312220922" y1="0.5" y2="30"/><line opacity="0.2" x1="445.28695038807587" x2="445.28695038807587" y1="0.5" y2="30"/><line opacity="0.2" x1="103.26328941008926" x2="103.26328941008926" y1="0.5" y2="30"/><line opacity="0.2" x1="325.5825762653985" x2="325.5825762653985" y1="0.5" y2="30"/><line opacity="0.2" x1="316.51592586196676" x2="316.51592586196676" y1="0.5" y2="30"/><line opacity="0.2" x1="438.2611346667693" x2="438.2611346667693" y1="0.5" y2="30"/><line opacity="0.2" x1="321.7327628762128" x2="321.7327628762128" y1="0.5" y2="30"/><line opacity="0.2" x1="439.2729293966314" x2="439.2729293966314" y1="0.5" y2="30"/><line opacity="0.2" x1="586.3649970270146" x2="586.3649970270146" y1="0.5" y2="30"/><line opacity="0.2" x1="257.22940885737796" x2="257.22940885737796" y1="0.5" y2="30"/><line opacity="0.2" x1="213.03600449202014" x2="213.03600449202014" y1="0.5" y2="30"/><line opacity="0.2" x1="348.86267085860396" x2="348.86267085860396" y1="0.5" y2="30"/><line opacity="0.2" x1="317.273956897353" x2="317.273956897353" y1="0.5" y2="30"/><line opacity="0.2" x1="175.91247856214736" x2="175.91247856214736" y1="0.5" y2="30"/><line opacity="0.2" x1="334.5431284598477" x2="334.5431284598477" y1="0.5" y2="30"/><line opacity="0.2" x1="405.449341650124" x2="405.449341650124" y1="0.5" y2="30"/><line opacity="0.2" x1="189.60341945327525" x2="189.60341945327525" y1="0.5" y2="30"/><line opacity="0.2" x1="358.7272347791246" x2="358.7272347791246" y1="0.5" y2="30"/><line opacity="0.2" x1="374.28605430467866" x2="374.28605430467866" y1="0.5" y2="30"/><line opacity="0.2" x1="426.64487097496266" x2="426.64487097496266" y1="0.5" y2="30"/><line opacity="0.2" x1="190.83336464778486" x2="190.83336464778486" y1="0.5" y2="30"/><line opacity="0.2" x1="227.11624935169556" x2="227.11624935169556" y1="0.5" y2="30"/><line opacity="0.2" x1="309.7269655382474" x2="309.7269655382474" y1="0.5" y2="30"/><line opacity="0.2" x1="309.2653068308137" x2="309.2653068308137" y1="0.5" y2="30"/><line opacity="0.2" x1="322.33123106690283" x2="322.33123106690283" y1="0.5" y2="30"/><line opacity="0.2" x1="284.5201679187139" x2="284.5201679187139" y1="0.5" y2="30"/><line opacity="0.2" x1="356.2853905092443" x2="356.2853905092443" y1="0.5" y2="30"/><line opacity="0.2" x1="168.293704651506" x2="168.293704651506" y1="0.5" y2="30"/><line opacity="0.2" x1="405.84997672504204" x2="405.84997672504204" y1="0.5" y2="30"/><line opacity="0.2" x1="193.85627126579004" x2="193.85627126579004" y1="0.5" y2="30"/><line opacity="0.2" x1="209.49734650284677" x2="209.49734650284677" y1="0.5" y2="30"/><line opacity="0.2" x1="345.6957334334241" x2="345.6957334334241" y1="0.5" y2="30"/><line opacity="0.2" x1="276.09248813958493" x2="276.09248813958493" y1="0.5" y2="30"/><line opacity="0.2" x1="220.52067794679988" x2="220.52067794679988" y1="0.5" y2="30"/><line opacity="0.2" x1="331.8170471790294" x2="331.8170471790294" y1="0.5" y2="30"/><line opacity="0.2" x1="334.8093280117562" x2="334.8093280117562" y1="0.5" y2="30"/><line opacity="0.2" x1="183.01929273028875" x2="183.01929273028875" y1="0.5" y2="30"/><line opacity="0.2" x1="427.3965507637799" x2="427.3965507637799" y1="0.5" y2="30"/><line opacity="0.2" x1="275.1968989918423" x2="275.1968989918423" y1="0.5" y2="30"/><line opacity="0.2" x1="290.21584283927524" x2="290.21584283927524" y1="0.5" y2="30"/><line opacity="0.2" x1="362.0500437760177" x2="362.0500437760177" y1="0.5" y2="30"/><line opacity="0.2" x1="317.2831815458685" x2="317.2831815458685" y1="0.5" y2="30"/><line opacity="0.2" x1="387.737940870851" x2="387.737940870851" y1="0.5" y2="30"/><line opacity="0.2" x1="315.1447642714945" x2="315.1447642714945" y1="0.5" y2="30"/><line opacity="0.2" x1="238.7277463181172" x2="238.7277463181172" y1="0.5" y2="30"/><line opacity="0.2" x1="351.83944640092705" x2="351.83944640092705" y1="0.5" y2="30"/><line opacity="0.2" x1="318.2569174227399" x2="318.2569174227399" y1="0.5" y2="30"/><line opacity="0.2" x1="369.7830740392952" x2="369.7830740392952" y1="0.5" y2="30"/><line opacity="0.2" x1="365.548145961919" x2="365.548145961919" y1="0.5" y2="30"/><line opacity="0.2" x1="362.4823764112132" x2="362.4823764112132" y1="0.5" y2="30"/><line opacity="0.2" x1="405.095281021079" x2="405.095281021079" y1="0.5" y2="30"/><line opacity="0.2" x1="267.69518817433465" x2="267.69518817433465" y1="0.5" y2="30"/><line opacity="0.2" x1="368.5963494576386" x2="368.5963494576386" y1="0.5" y2="30"/><line opacity="0.2" x1="377.2340870948558" x2="377.2340870948558" y1="0.5" y2="30"/><line opacity="0.2" x1="331.0696697227863" x2="331.0696697227863" y1="0.5" y2="30"/><line opacity="0.2" x1="435.12262499807105" x2="435.12262499807105" y1="0.5" y2="30"/><line opacity="0.2" x1="305.39006615028836" x2="305.39006615028836" y1="0.5" y2="30"/><line opacity="0.2" x1="271.6106741638299" x2="271.6106741638299" y1="0.5" y2="30"/><line opacity="0.2" x1="350.76136222038076" x2="350.76136222038076" y1="0.5" y2="30"/><line opacity="0.2" x1="284.1084145826257" x2="284.1084145826257" y1="0.5" y2="30"/><line opacity="0.2" x1="372.2612460802436" x2="372.2612460802436" y1="0.5" y2="30"/><line opacity="0.2" x1="239.53376612241095" x2="239.53376612241095" y1="0.5" y2="30"/><line opacity="0.2" x1="201.52644164766107" x2="201.52644164766107" y1="0.5" y2="30"/><line opacity="0.2" x1="342.69695020115694" x2="342.69695020115694" y1="0.5" y2="30"/><line opacity="0.2" x1="356.9312415489256" x2="356.9312415489256" y1="0.5" y2="30"/><line opacity="0.2" x1="299.65670384046035" x2="299.65670384046035" y1="0.5" y2="30"/><line opacity="0.2" x1="498.08518318801" x2="498.08518318801" y1="0.5" y2="30"/><line opacity="0.2" x1="308.0710918181999" x2="308.0710918181999" y1="0.5" y2="30"/><line opacity="0.2" x1="379.1186969984051" x2="379.1186969984051" y1="0.5" y2="30"/><line opacity="0.2" x1="397.66457989476595" x2="397.66457989476595" y1="0.5" y2="30"/><line opacity="0.2" x1="160.80046386344367" x2="160.80046386344367" y1="0.5" y2="30"/><line opacity="0.2" x1="400.8537043497595" x2="400.8537043497595" y1="0.5" y2="30"/><line opacity="0.2" x1="287.1543112335546" x2="287.1543112335546" y1="0.5" y2="30"/><line opacity="0.2" x1="453.87742072072206" x2="453.87742072072206" y1="0.5" y2="30"/><line opacity="0.2" x1="360.86126945316323" x2="360.86126945316323" y1="0.5" y2="30"/><line opacity="0.2" x1="368.51389378947863" x2="368.51389378947863" y1="0.5" y2="30"/><line opacity="0.2" x1="266.37372534213114" x2="266.37372534213114" y1="0.5" y2="30"/><line opacity="0.2" x1="425.27390450337657" x2="425.27390450337657" y1="0.5" y2="30"/><line opacity="0.2" x1="349.9146226999926" x2="349.9146226999926" y1="0.5" y2="30"/><line opacity="0.2" x1="266.1360203966959" x2="266.1360203966959" y1="0.5" y2="30"/><line opacity="0.2" x1="409.0063378457238" x2="409.0063378457238" y1="0.5" y2="30"/><line opacity="0.2" x1="320.8923292701666" x2="320.8923292701666" y1="0.5" y2="30"/><line opacity="0.2" x1="329.6252895270681" x2="329.6252895270681" y1="0.5" y2="30"/><line opacity="0.2" x1="203.35966319721086" x2="203.35966319721086" y1="0.5" y2="30"/><line opacity="0.2" x1="419.8296216488373" x2="419.8296216488373" y1="0.5" y2="30"/><line opacity="0.2" x1="96.47764950828847" x2="96.47764950828847" y1="0.5" y2="30"/><line opacity="0.2" x1="350.13553837317227" x2="350.13553837317227" y1="0.5" y2="30"/><line opacity="0.2" x1="508.9721937097705" x2="508.9721937097705" y1="0.5" y2="30"/><line opacity="0.2" x1="150.49671054973373" x2="150.49671054973373" y1="0.5" y2="30"/><line opacity="0.2" x1="158.9474962485261" x2="158.9474962485261" y1="0.5" y2="30"/><line opacity="0.2" x1="356.25219194370646" x2="356.25219194370646" y1="0.5" y2="30"/><line opacity="0.2" x1="371.49458604643024" x2="371.49458604643024" y1="0.5" y2="30"/><line opacity="0.2" x1="400.91517311756354" x2="400.91517311756354" y1="0.5" y2="30"/><line opacity="0.2" x1="616.796065261491" x2="616.796065261491" y1="0.5" y2="30"/><line opacity="0.2" x1="339.2259865887732" x2="339.2259865887732" y1="0.5" y2="30"/><line opacity="0.2" x1="212.55465340080337" x2="212.55465340080337" y1="0.5" y2="30"/><line opacity="0.2" x1="297.00548893396825" x2="297.00548893396825" y1="0.5" y2="30"/><line opacity="0.2" x1="564.0606013246513" x2="564.0606013246513" y1="0.5" y2="30"/><line opacity="0.2" x1="125.81720871569634" x2="125.81720871569634" y1="0.5" y2="30"/><line opacity="0.2" x1="169.42553888432207" x2="169.42553888432207" y1="0.5" y2="30"/><line opacity="0.2" x1="312.70602641505366" x2="312.70602641505366" y1="0.5" y2="30"/><line opacity="0.2" x1="299.3752773998273" x2="299.3752773998273" y1="0.5" y2="30"/><line opacity="0.2" x1="428.1081293035936" x2="428.1081293035936" y1="0.5" y2="30"/><line opacity="0.2" x1="390.960468137446" x2="390.960468137446" y1="0.5" y2="30"/><line opacity="0.2" x1="216.97211302022245" x2="216.97211302022245" y1="0.5" y2="30"/><line opacity="0.2" x1="313.9186681725458" x2="313.9186681725458" y1="0.5" y2="30"/><line opacity="0.2" x1="272.270571548012" x2="272.270571548012" y1="0.5" y2="30"/><line opacity="0.2" x1="339.1522190605698" x2="339.1522190605698" y1="0.5" y2="30"/><line opacity="0.2" x1="145.01915147296552" x2="145.01915147296552" y1="0.5" y2="30"/><line opacity="0.2" x1="371.23271099125924" x2="371.23271099125924" y1="0.5" y2="30"/><line opacity="0.2" x1="391.3618075910319" x2="391.3618075910319" y1="0.5" y2="30"/><line opacity="0.2" x1="327.7503552761085" x2="327.7503552761085" y1="0.5" y2="30"/><line opacity="0.2" x1="283.8594892476548" x2="283.8594892476548" y1="0.5" y2="30"/><line opacity="0.2" x1="246.9622615334896" x2="246.9622615334896" y1="0.5" y2="30"/><line opacity="0.2" x1="297.13098337730264" x2="297.13098337730264" y1="0.5" y2="30"/><line opacity="0.2" x1="201.75181436936293" x2="201.75181436936293" y1="0.5" y2="30"/><line opacity="0.2" x1="376.30498169400204" x2="376.30498169400204" y1="0.5" y2="30"/><line opacity="0.2" x1="353.10621836852073" x2="353.10621836852073" y1="0.5" y2="30"/><line opacity="0.2" x1="74.62583320344851" x2="74.62583320344851" y1="0.5" y2="30"/><line opacity="0.2" x1="337.8468611181577" x2="337.8468611181577" y1="0.5" y2="30"/><line opacity="0.2" x1="250.12401911627097" x2="250.12401911627097" y1="0.5" y2="30"/><line opacity="0.2" x1="314.8959318691768" x2="314.8959318691768" y1="0.5" y2="30"/><line opacity="0.2" x1="197.4425306139128" x2="197.4425306139128" y1="0.5" y2="30"/><line opacity="0.2" x1="379.73499411201897" x2="379.73499411201897" y1="0.5" y2="30"/><line opacity="0.2" x1="389.50771981703156" x2="389.50771981703156" y1="0.5" y2="30"/><line opacity="0.2" x1="251.4252727070327" x2="251.4252727070327" y1="0.5" y2="30"/><line opacity="0.2" x1="329.19669080529235" x2="329.19669080529235" y1="0.5" y2="30"/><line opacity="0.2" x1="318.22616399263313" x2="318.22616399263313" y1="0.5" y2="30"/><line opacity="0.2" x1="302.694362375755" x2="302.694362375755" y1="0.5" y2="30"/><line opacity="0.2" x1="219.14074882018096" x2="219.14074882018096" y1="0.5" y2="30"/><line opacity="0.2" x1="300.9682451513678" x2="300.9682451513678" y1="0.5" y2="30"/><line opacity="0.2" x1="411.6670623349717" x2="411.6670623349717" y1="0.5" y2="30"/><line opacity="0.2" x1="338.53502280789723" x2="338.53502280789723" y1="0.5" y2="30"/><line opacity="0.2" x1="198.36133862978716" x2="198.36133862978716" y1="0.5" y2="30"/><line opacity="0.2" x1="381.0200313759346" x2="381.0200313759346" y1="0.5" y2="30"/><line opacity="0.2" x1="231.35641652824407" x2="231.35641652824407" y1="0.5" y2="30"/><line opacity="0.2" x1="269.4769977422464" x2="269.4769977422464" y1="0.5" y2="30"/><line opacity="0.2" x1="166.4396712056365" x2="166.4396712056365" y1="0.5" y2="30"/><line opacity="0.2" x1="269.652042368561" x2="269.652042368561" y1="0.5" y2="30"/><line opacity="0.2" x1="341.71843038138326" x2="341.71843038138326" y1="0.5" y2="30"/><line opacity="0.2" x1="184.1002122931497" x2="184.1002122931497" y1="0.5" y2="30"/><line opacity="0.2" x1="288.2558262534363" x2="288.2558262534363" y1="0.5" y2="30"/><line opacity="0.2" x1="264.4682456149393" x2="264.4682456149393" y1="0.5" y2="30"/><line opacity="0.2" x1="431.127319133457" x2="431.127319133457" y1="0.5" y2="30"/><line opacity="0.2" x1="313.02993770757763" x2="313.02993770757763" y1="0.5" y2="30"/><line opacity="0.2" x1="235.66753947812117" x2="235.66753947812117" y1="0.5" y2="30"/><line opacity="0.2" x1="228.7753151327452" x2="228.7753151327452" y1="0.5" y2="30"/><line opacity="0.2" x1="381.7065604156221" x2="381.7065604156221" y1="0.5" y2="30"/><line opacity="0.2" x1="430.8598613557118" x2="430.8598613557118" y1="0.5" y2="30"/><line opacity="0.2" x1="270.6454122156259" x2="270.6454122156259" y1="0.5" y2="30"/><line opacity="0.2" x1="62.21862516573988" x2="62.21862516573988" y1="0.5" y2="30"/><line opacity="0.2" x1="238.12434166776688" x2="238.12434166776688" y1="0.5" y2="30"/><line opacity="0.2" x1="337.1009096108276" x2="337.1009096108276" y1="0.5" y2="30"/><line opacity="0.2" x1="316.03863767459654" x2="316.03863767459654" y1="0.5" y2="30"/><line opacity="0.2" x1="234.75067072253626" x2="234.75067072253626" y1="0.5" y2="30"/><line opacity="0.2" x1="269.63059317544645" x2="269.63059317544645" y1="0.5" y2="30"/><line opacity="0.2" x1="233.78125408422235" x2="233.78125408422235" y1="0.5" y2="30"/><line opacity="0.2" x1="195.64095719182424" x2="195.64095719182424" y1="0.5" y2="30"/><line opacity="0.2" x1="422.4330390873482" x2="422.4330390873482" y1="0.5" y2="30"/><line opacity="0.2" x1="343.61887811931604" x2="343.61887811931604" y1="0.5" y2="30"/><line opacity="0.2" x1="202.02176415518372" x2="202.02176415518372" y1="0.5" y2="30"/><line opacity="0.2" x1="335.6118608207795" x2="335.6118608207795" y1="0.5" y2="30"/><line opacity="0.2" x1="334.77517241526925" x2="334.77517241526925" y1="0.5" y2="30"/><line opacity="0.2" x1="379.1696715548889" x2="379.1696715548889" y1="0.5" y2="30"/><line opacity="0.2" x1="381.69492559699285" x2="381.69492559699285" y1="0.5" y2="30"/><line opacity="0.2" x1="300.9299876970017" x2="300.9299876970017" y1="0.5" y2="30"/><line opacity="0.2" x1="260.9741938768722" x2="260.9741938768722" y1="0.5" y2="30"/><line opacity="0.2" x1="411.27313672363334" x2="411.27313672363334" y1="0.5" y2="30"/><line opacity="0.2" x1="239.88285182246017" x2="239.88285182246017" y1="0.5" y2="30"/><line opacity="0.2" x1="211.60581983094872" x2="211.60581983094872" y1="0.5" y2="30"/><line opacity="0.2" x1="147.2460125861572" x2="147.2460125861572" y1="0.5" y2="30"/><line opacity="0.2" x1="163.49621587373025" x2="163.49621587373025" y1="0.5" y2="30"/><line opacity="0.2" x1="222.0172794484284" x2="222.0172794484284" y1="0.5" y2="30"/><line opacity="0.2" x1="274.9962093064643" x2="274.9962093064643" y1="0.5" y2="30"/><line opacity="0.2" x1="453.3888519250208" x2="453.3888519250208" y1="0.5" y2="30"/><line opacity="0.2" x1="290.8569496586488" x2="290.8569496586488" y1="0.5" y2="30"/><line opacity="0.2" x1="265.4194062683706" x2="265.4194062683706" y1="0.5" y2="30"/><line opacity="0.2" x1="384.734463360238" x2="384.734463360238" y1="0.5" y2="30"/><line opacity="0.2" x1="295.23507275241866" x2="295.23507275241866" y1="0.5" y2="30"/><line opacity="0.2" x1="124.2522474600975" x2="124.2522474600975" y1="0.5" y2="30"/><line opacity="0.2" x1="412.02029971875345" x2="412.02029971875345" y1="0.5" y2="30"/><line opacity="0.2" x1="319.65070127111454" x2="319.65070127111454" y1="0.5" y2="30"/><line opacity="0.2" x1="295.0828416405426" x2="295.0828416405426" y1="0.5" y2="30"/><line opacity="0.2" x1="189.86985196732581" x2="189.86985196732581" y1="0.5" y2="30"/><line opacity="0.2" x1="435.5536341869682" x2="435.5536341869682" y1="0.5" y2="30"/><line opacity="0.2" x1="465.166474744897" x2="465.166474744897" y1="0.5" y2="30"/><line opacity="0.2" x1="281.7502580460242" x2="281.7502580460242" y1="0.5" y2="30"/><line opacity="0.2" x1="192.28573549543705" x2="192.28573549543705" y1="0.5" y2="30"/><line opacity="0.2" x1="385.1519955429441" x2="385.1519955429441" y1="0.5" y2="30"/><line opacity="0.2" x1="213.03361747409156" x2="213.03361747409156" y1="0.5" y2="30"/><line opacity="0.2" x1="270.44359848665505" x2="270.44359848665505" y1="0.5" y2="30"/><line opacity="0.2" x1="372.32511988484583" x2="372.32511988484583" y1="0.5" y2="30"/><line opacity="0.2" x1="257.0438810247903" x2="257.0438810247903" y1="0.5" y2="30"/><line opacity="0.2" x1="450.80879820228984" x2="450.80879820228984" y1="0.5" y2="30"/><line opacity="0.2" x1="266.64190226064795" x2="266.64190226064795" y1="0.5" y2="30"/><line opacity="0.2" x1="382.2152684315491" x2="382.2152684315491" y1="0.5" y2="30"/><line opacity="0.2" x1="408.0276874328131" x2="408.0276874328131" y1="0.5" y2="30"/><line opacity="0.2" x1="192.7786767029261" x2="192.7786767029261" y1="0.5" y2="30"/><line opacity="0.2" x1="296.74489550413404" x2="296.74489550413404" y1="0.5" y2="30"/><line opacity="0.2" x1="271.8069379561328" x2="271.8069379561328" y1="0.5" y2="30"/><line opacity="0.2" x1="285.7525187846693" x2="285.7525187846693" y1="0.5" y2="30"/><line opacity="0.2" x1="462.90177228990933" x2="462.90177228990933" y1="0.5" y2="30"/><line opacity="0.2" x1="270.7796317468312" x2="270.7796317468312" y1="0.5" y2="30"/><line opacity="0.2" x1="377.67812340348166" x2="377.67812340348166" y1="0.5" y2="30"/><line opacity="0.2" x1="460.7719165678905" x2="460.7719165678905" y1="0.5" y2="30"/><line opacity="0.2" x1="175.65732486989242" x2="175.65732486989242" y1="0.5" y2="30"/><line opacity="0.2" x1="355.9978476342619" x2="355.9978476342619" y1="0.5" y2="30"/><line opacity="0.2" x1="356.56305844954613" x2="356.56305844954613" y1="0.5" y2="30"/><line opacity="0.2" x1="398.7987921430272" x2="398.7987921430272" y1="0.5" y2="30"/><line opacity="0.2" x1="315.188982685347" x2="315.188982685347" y1="0.5" y2="30"/><line opacity="0.2" x1="257.33476017216657" x2="257.33476017216657" y1="0.5" y2="30"/><line opacity="0.2" x1="382.53482966840625" x2="382.53482966840625" y1="0.5" y2="30"/><line opacity="0.2" x1="151.0814205147969" x2="151.0814205147969" y1="0.5" y2="30"/><line opacity="0.2" x1="365.7311839855812" x2="365.7311839855812" y1="0.5" y2="30"/><line opacity="0.2" x1="543.8816707789005" x2="543.8816707789005" y1="0.5" y2="30"/><line opacity="0.2" x1="363.56393905602226" x2="363.56393905602226" y1="0.5" y2="30"/><line opacity="0.2" x1="301.9455159147666" x2="301.9455159147666" y1="0.5" y2="30"/><line opacity="0.2" x1="338.512232696223" x2="338.512232696223" y1="0.5" y2="30"/><line opacity="0.2" x1="196.38401497687525" x2="196.38401497687525" y1="0.5" y2="30"/><line opacity="0.2" x1="208.99789690792326" x2="208.99789690792326" y1="0.5" y2="30"/><line opacity="0.2" x1="300.8740685236744" x2="300.8740685236744" y1="0.5" y2="30"/><line opacity="0.2" x1="384.25316582761053" x2="384.25316582761053" y1="0.5" y2="30"/><line opacity="0.2" x1="176.8384790814854" x2="176.8384790814854" y1="0.5" y2="30"/><line opacity="0.2" x1="263.3257376281293" x2="263.3257376281293" y1="0.5" y2="30"/><line opacity="0.2" x1="305.68235558697893" x2="305.68235558697893" y1="0.5" y2="30"/><line opacity="0.2" x1="210.9237433313076" x2="210.9237433313076" y1="0.5" y2="30"/><line opacity="0.2" x1="330.4264518175157" x2="330.4264518175157" y1="0.5" y2="30"/><line opacity="0.2" x1="274.71463618371257" x2="274.71463618371257" y1="0.5" y2="30"/><line opacity="0.2" x1="183.71810363576643" x2="183.71810363576643" y1="0.5" y2="30"/><line opacity="0.2" x1="328.92283820202056" x2="328.92283820202056" y1="0.5" y2="30"/><line opacity="0.2" x1="199.9525829678792" x2="199.9525829678792" y1="0.5" y2="30"/><line opacity="0.2" x1="286.0993551966025" x2="286.0993551966025" y1="0.5" y2="30"/><line opacity="0.2" x1="150.57198702133928" x2="150.57198702133928" y1="0.5" y2="30"/><line opacity="0.2" x1="284.03229770065855" x2="284.03229770065855" y1="0.5" y2="30"/><line opacity="0.2" x1="277.39980663795825" x2="277.39980663795825" y1="0.5" y2="30"/><line opacity="0.2" x1="399.6674611891086" x2="399.6674611891086" y1="0.5" y2="30"/><line opacity="0.2" x1="377.37295096189973" x2="377.37295096189973" y1="0.5" y2="30"/><line opacity="0.2" x1="194.38573038673752" x2="194.38573038673752" y1="0.5" y2="30"/><line opacity="0.2" x1="380.54420146585994" x2="380.54420146585994" y1="0.5" y2="30"/><line opacity="0.2" x1="291.0838646681878" x2="291.0838646681878" y1="0.5" y2="30"/><line opacity="0.2" x1="411.5625919105306" x2="411.5625919105306" y1="0.5" y2="30"/><line opacity="0.2" x1="458.9976869306349" x2="458.9976869306349" y1="0.5" y2="30"/><line opacity="0.2" x1="179.6246803966025" x2="179.6246803966025" y1="0.5" y2="30"/><line opacity="0.2" x1="527.3397549321776" x2="527.3397549321776" y1="0.5" y2="30"/><line opacity="0.2" x1="225.24382112013325" x2="225.24382112013325" y1="0.5" y2="30"/><line opacity="0.2" x1="299.6793448485746" x2="299.6793448485746" y1="0.5" y2="30"/><line opacity="0.2" x1="254.21483034265515" x2="254.21483034265515" y1="0.5" y2="30"/><line opacity="0.2" x1="298.65685097535686" x2="298.65685097535686" y1="0.5" y2="30"/><line opacity="0.2" x1="285.0635650505061" x2="285.0635650505061" y1="0.5" y2="30"/><line opacity="0.2" x1="251.57165552002982" x2="251.57165552002982" y1="0.5" y2="30"/><line opacity="0.2" x1="315.00717033351003" x2="315.00717033351003" y1="0.5" y2="30"/><line opacity="0.2" x1="227.73055109814692" x2="227.73055109814692" y1="0.5" y2="30"/><line opacity="0.2" x1="402.2768659660116" x2="402.2768659660116" y1="0.5" y2="30"/><line opacity="0.2" x1="162.83630178244633" x2="162.83630178244633" y1="0.5" y2="30"/><line opacity="0.2" x1="303.37711990460195" x2="303.37711990460195" y1="0.5" y2="30"/><line opacity="0.2" x1="298.17396919989744" x2="298.17396919989744" y1="0.5" y2="30"/><line opacity="0.2" x1="223.72893469845204" x2="223.72893469845204" y1="0.5" y2="30"/><line opacity="0.2" x1="266.6269953468071" x2="266.6269953468071" y1="0.5" y2="30"/><line opacity="0.2" x1="267.5067307989365" x2="267.5067307989365" y1="0.5" y2="30"/><line opacity="0.2" x1="352.02429777230924" x2="352.02429777230924" y1="0.5" y2="30"/><line opacity="0.2" x1="125.8933553063857" x2="125.8933553063857" y1="0.5" y2="30"/><line opacity="0.2" x1="276.628724704577" x2="276.628724704577" y1="0.5" y2="30"/><line opacity="0.2" x1="364.31242886735356" x2="364.31242886735356" y1="0.5" y2="30"/><line opacity="0.2" x1="347.89809766815625" x2="347.89809766815625" y1="0.5" y2="30"/><line opacity="0.2" x1="516.9918546968773" x2="516.9918546968773" y1="0.5" y2="30"/><line opacity="0.2" x1="288.97336400015854" x2="288.97336400015854" y1="0.5" y2="30"/><line opacity="0.2" x1="312.5066571101853" x2="312.5066571101853" y1="0.5" y2="30"/><line opacity="0.2" x1="366.56608130322036" x2="366.56608130322036" y1="0.5" y2="30"/><line opacity="0.2" x1="438.5068712421734" x2="438.5068712421734" y1="0.5" y2="30"/><line opacity="0.2" x1="441.53055008875515" x2="441.53055008875515" y1="0.5" y2="30"/><line opacity="0.2" x1="417.30800813630435" x2="417.30800813630435" y1="0.5" y2="30"/><line opacity="0.2" x1="265.2360996408806" x2="265.2360996408806" y1="0.5" y2="30"/><line opacity="0.2" x1="352.75558477864575" x2="352.75558477864575" y1="0.5" y2="30"/><line opacity="0.2" x1="242.89064188277382" x2="242.89064188277382" y1="0.5" y2="30"/><line opacity="0.2" x1="368.82218284397663" x2="368.82218284397663" y1="0.5" y2="30"/><line opacity="0.2" x1="242.17648456232564" x2="242.17648456232564" y1="0.5" y2="30"/><line opacity="0.2" x1="156.8293759957537" x2="156.8293759957537" y1="0.5" y2="30"/><line opacity="0.2" x1="236.94515160587315" x2="236.94515160587315" y1="0.5" y2="30"/><line opacity="0.2" x1="190.51830617912802" x2="190.51830617912802" y1="0.5" y2="30"/><line opacity="0.2" x1="360.5203238354267" x2="360.5203238354267" y1="0.5" y2="30"/><line opacity="0.2" x1="349.0534896615935" x2="349.0534896615935" y1="0.5" y2="30"/><line opacity="0.2" x1="333.4685588372969" x2="333.4685588372969" y1="0.5" y2="30"/><line opacity="0.2" x1="215.6935245420915" x2="215.6935245420915" y1="0.5" y2="30"/><line opacity="0.2" x1="428.4244157125298" x2="428.4244157125298" y1="0.5" y2="30"/><line opacity="0.2" x1="320.77891630163964" x2="320.77891630163964" y1="0.5" y2="30"/><line opacity="0.2" x1="354.34156104260006" x2="354.34156104260006" y1="0.5" y2="30"/><line opacity="0.2" x1="420.82051023244514" x2="420.82051023244514" y1="0.5" y2="30"/><line opacity="0.2" x1="313.4527647792433" x2="313.4527647792433" y1="0.5" y2="30"/><line opacity="0.2" x1="528.7080565684086" x2="528.7080565684086" y1="0.5" y2="30"/><line opacity="0.2" x1="319.09866997036846" x2="319.09866997036846" y1="0.5" y2="30"/><line opacity="0.2" x1="406.99629858562963" x2="406.99629858562963" y1="0.5" y2="30"/><line opacity="0.2" x1="369.61679767703384" x2="369.61679767703384" y1="0.5" y2="30"/><line opacity="0.2" x1="225.95232581268573" x2="225.95232581268573" y1="0.5" y2="30"/><line opacity="0.2" x1="334.51144415652317" x2="334.51144415652317" y1="0.5" y2="30"/><line opacity="0.2" x1="298.02197892747483" x2="298.02197892747483" y1="0.5" y2="30"/><line opacity="0.2" x1="294.130719669856" x2="294.130719669856" y1="0.5" y2="30"/><line opacity="0.2" x1="438.6666283574606" x2="438.6666283574606" y1="0.5" y2="30"/><line opacity="0.2" x1="344.022337120524" x2="344.022337120524" y1="0.5" y2="30"/><line opacity="0.2" x1="237.73904774071582" x2="237.73904774071582" y1="0.5" y2="30"/><line opacity="0.2" x1="239.12792514847192" x2="239.12792514847192" y1="0.5" y2="30"/><line opacity="0.2" x1="259.77514408110665" x2="259.77514408110665" y1="0.5" y2="30"/><line opacity="0.2" x1="390.7271650640388" x2="390.7271650640388" y1="0.5" y2="30"/><line opacity="0.2" x1="221.27668794767072" x2="221.27668794767072" y1="0.5" y2="30"/><line opacity="0.2" x1="226.05051837870423" x2="226.05051837870423" y1="0.5" y2="30"/><line opacity="0.2" x1="420.8484582078391" x2="420.8484582078391" y1="0.5" y2="30"/><line opacity="0.2" x1="229.68086342918625" x2="229.68086342918625" y1="0.5" y2="30"/><line opacity="0.2" x1="411.8047392816014" x2="411.8047392816014" y1="0.5" y2="30"/><line opacity="0.2" x1="211.7098298567702" x2="211.7098298567702" y1="0.5" y2="30"/><line opacity="0.2" x1="365.2218898371401" x2="365.2218898371401" y1="0.5" y2="30"/><line opacity="0.2" x1="258.9386194822603" x2="258.9386194822603" y1="0.5" y2="30"/><line opacity="0.2" x1="324.4893188646763" x2="324.4893188646763" y1="0.5" y2="30"/><line opacity="0.2" x1="334.2707869208273" x2="334.2707869208273" y1="0.5" y2="30"/><line opacity="0.2" x1="384.7566348970362" x2="384.7566348970362" y1="0.5" y2="30"/><line opacity="0.2" x1="200.53200261077512" x2="200.53200261077512" y1="0.5" y2="30"/><line opacity="0.2" x1="267.5406017774294" x2="267.5406017774294" y1="0.5" y2="30"/><line opacity="0.2" x1="346.17818320727105" x2="346.17818320727105" y1="0.5" y2="30"/><line opacity="0.2" x1="398.34439065142374" x2="398.34439065142374" y1="0.5" y2="30"/><line opacity="0.2" x1="421.2931596723881" x2="421.2931596723881" y1="0.5" y2="30"/><line opacity="0.2" x1="252.22103830183113" x2="252.22103830183113" y1="0.5" y2="30"/><line opacity="0.2" x1="435.42593603684026" x2="435.42593603684026" y1="0.5" y2="30"/><line opacity="0.2" x1="167.88937171286437" x2="167.88937171286437" y1="0.5" y2="30"/><line opacity="0.2" x1="336.72160383028927" x2="336.72160383028927" y1="0.5" y2="30"/><line opacity="0.2" x1="263.3640254811458" x2="263.3640254811458" y1="0.5" y2="30"/><line opacity="0.2" x1="369.5134616096961" x2="369.5134616096961" y1="0.5" y2="30"/><line opacity="0.2" x1="355.7471888878006" x2="355.7471888878006" y1="0.5" y2="30"/><line opacity="0.2" x1="427.8928670522689" x2="427.8928670522689" y1="0.5" y2="30"/><line opacity="0.2" x1="180.32780614621743" x2="180.32780614621743" y1="0.5" y2="30"/><line opacity="0.2" x1="504.5315721366116" x2="504.5315721366116" y1="0.5" y2="30"/><line opacity="0.2" x1="461.91908517077485" x2="461.91908517077485" y1="0.5" y2="30"/><line opacity="0.2" x1="320.38506792231965" x2="320.38506792231965" y1="0.5" y2="30"/><line opacity="0.2" x1="310.9573808642936" x2="310.9573808642936" y1="0.5" y2="30"/><line opacity="0.2" x1="231.50665809187987" x2="231.50665809187987" y1="0.5" y2="30"/><line opacity="0.2" x1="470.7403948506434" x2="470.7403948506434" y1="0.5" y2="30"/><line opacity="0.2" x1="334.71210988220196" x2="334.71210988220196" y1="0.5" y2="30"/><line opacity="0.2" x1="379.7926544614906" x2="379.7926544614906" y1="0.5" y2="30"/><line opacity="0.2" x1="559.7539571401794" x2="559.7539571401794" y1="0.5" y2="30"/><line opacity="0.2" x1="235.8239963241331" x2="235.8239963241331" y1="0.5" y2="30"/><line opacity="0.2" x1="460.5620079870513" x2="460.5620079870513" y1="0.5" y2="30"/><line opacity="0.2" x1="375.9773953988573" x2="375.9773953988573" y1="0.5" y2="30"/><line opacity="0.2" x1="380.4385136901575" x2="380.4385136901575" y1="0.5" y2="30"/><line opacity="0.2" x1="396.89448131088494" x2="396.89448131088494" y1="0.5" y2="30"/><line opacity="0.2" x1="386.4856697888534" x2="386.4856697888534" y1="0.5" y2="30"/><line opacity="0.2" x1="281.4817004051607" x2="281.4817004051607" y1="0.5" y2="30"/><line opacity="0.2" x1="290.3277164799413" x2="290.3277164799413" y1="0.5" y2="30"/><line opacity="0.2" x1="271.1511790148959" x2="271.1511790148959" y1="0.5" y2="30"/><line opacity="0.2" x1="318.092022342317" x2="318.092022342317" y1="0.5" y2="30"/><line opacity="0.2" x1="343.0916201716857" x2="343.0916201716857" y1="0.5" y2="30"/><line opacity="0.2" x1="190.26079957613422" x2="190.26079957613422" y1="0.5" y2="30"/><line opacity="0.2" x1="407.579145086919" x2="407.579145086919" y1="0.5" y2="30"/><line opacity="0.2" x1="317.8037515191533" x2="317.8037515191533" y1="0.5" y2="30"/><line opacity="0.2" x1="352.7171167103192" x2="352.7171167103192" y1="0.5" y2="30"/><line opacity="0.2" x1="302.07357482560843" x2="302.07357482560843" y1="0.5" y2="30"/><line opacity="0.2" x1="375.80650066392053" x2="375.80650066392053" y1="0.5" y2="30"/><line opacity="0.2" x1="396.92972100015066" x2="396.92972100015066" y1="0.5" y2="30"/><line opacity="0.2" x1="339.1775481757067" x2="339.1775481757067" y1="0.5" y2="30"/><line opacity="0.2" x1="170.5488413853245" x2="170.5488413853245" y1="0.5" y2="30"/><line opacity="0.2" x1="285.55809230160395" x2="285.55809230160395" y1="0.5" y2="30"/><line opacity="0.2" x1="300.1542015096874" x2="300.1542015096874" y1="0.5" y2="30"/><line opacity="0.2" x1="287.9316678152435" x2="287.9316678152435" y1="0.5" y2="30"/><line opacity="0.2" x1="466.0169111714397" x2="466.0169111714397" y1="0.5" y2="30"/><line opacity="0.2" x1="431.9412737551166" x2="431.9412737551166" y1="0.5" y2="30"/><line opacity="0.2" x1="337.1671323881948" x2="337.1671323881948" y1="0.5" y2="30"/><line opacity="0.2" x1="271.44336985119423" x2="271.44336985119423" y1="0.5" y2="30"/><line opacity="0.2" x1="314.29135349205256" x2="314.29135349205256" y1="0.5" y2="30"/><line opacity="0.2" x1="472.16136527230367" x2="472.16136527230367" y1="0.5" y2="30"/><line opacity="0.2" x1="325.78861517348037" x2="325.78861517348037" y1="0.5" y2="30"/><line opacity="0.2" x1="341.75651261067776" x2="341.75651261067776" y1="0.5" y2="30"/><line opacity="0.2" x1="231.4398180441614" x2="231.4398180441614" y1="0.5" y2="30"/><line opacity="0.2" x1="114.09521109524945" x2="114.09521109524945" y1="0.5" y2="30"/><line opacity="0.2" x1="328.9198843680875" x2="328.9198843680875" y1="0.5" y2="30"/><line opacity="0.2" x1="257.02505578632855" x2="257.02505578632855" y1="0.5" y2="30"/><line opacity="0.2" x1="439.40968339096213" x2="439.40968339096213" y1="0.5" y2="30"/><line opacity="0.2" x1="317.0829902325675" x2="317.0829902325675" y1="0.5" y2="30"/><line opacity="0.2" x1="371.51366209558404" x2="371.51366209558404" y1="0.5" y2="30"/><line opacity="0.2" x1="269.43766835022905" x2="269.43766835022905" y1="0.5" y2="30"/><line opacity="0.2" x1="348.09514452789494" x2="348.09514452789494" y1="0.5" y2="30"/><line opacity="0.2" x1="200.5915774361686" x2="200.5915774361686" y1="0.5" y2="30"/><line opacity="0.2" x1="403.4469875476087" x2="403.4469875476087" y1="0.5" y2="30"/><line opacity="0.2" x1="336.44837895823434" x2="336.44837895823434" y1="0.5" y2="30"/><line opacity="0.2" x1="360.04872648535525" x2="360.04872648535525" y1="0.5" y2="30"/><line opacity="0.2" x1="367.86841416571826" x2="367.86841416571826" y1="0.5" y2="30"/><line opacity="0.2" x1="285.1648294662471" x2="285.1648294662471" y1="0.5" y2="30"/><line opacity="0.2" x1="279.49174436132967" x2="279.49174436132967" y1="0.5" y2="30"/><line opacity="0.2" x1="443.4718572185845" x2="443.4718572185845" y1="0.5" y2="30"/><line opacity="0.2" x1="305.65062347242366" x2="305.65062347242366" y1="0.5" y2="30"/><line opacity="0.2" x1="215.12986522580812" x2="215.12986522580812" y1="0.5" y2="30"/><line opacity="0.2" x1="251.60032096198506" x2="251.60032096198506" y1="0.5" y2="30"/><line opacity="0.2" x1="372.72292902834795" x2="372.72292902834795" y1="0.5" y2="30"/><line opacity="0.2" x1="408.0123175709513" x2="408.0123175709513" y1="0.5" y2="30"/><line opacity="0.2" x1="133.50037534234286" x2="133.50037534234286" y1="0.5" y2="30"/><line opacity="0.2" x1="100.87310806298316" x2="100.87310806298316" y1="0.5" y2="30"/><line opacity="0.2" x1="286.2176672086587" x2="286.2176672086587" y1="0.5" y2="30"/><line opacity="0.2" x1="430.3689323584762" x2="430.3689323584762" y1="0.5" y2="30"/><line opacity="0.2" x1="347.91779660726246" x2="347.91779660726246" y1="0.5" y2="30"/><line opacity="0.2" x1="341.4810566022442" x2="341.4810566022442" y1="0.5" y2="30"/><line opacity="0.2" x1="309.641568316055" x2="309.641568316055" y1="0.5" y2="30"/><line opacity="0.2" x1="218.77855841090795" x2="218.77855841090795" y1="0.5" y2="30"/><line opacity="0.2" x1="333.64078051117133" x2="333.64078051117133" y1="0.5" y2="30"/><line opacity="0.2" x1="367.72401263491474" x2="367.72401263491474" y1="0.5" y2="30"/><line opacity="0.2" x1="272.4689780327984" x2="272.4689780327984" y1="0.5" y2="30"/><line opacity="0.2" x1="232.9308000689924" x2="232.9308000689924" y1="0.5" y2="30"/><line opacity="0.2" x1="303.12136413635994" x2="303.12136413635994" y1="0.5" y2="30"/><line opacity="0.2" x1="245.42706241712676" x2="245.42706241712676" y1="0.5" y2="30"/><line opacity="0.2" x1="477.1203141721694" x2="477.1203141721694" y1="0.5" y2="30"/><line opacity="0.2" x1="477.9793770588766" x2="477.9793770588766" y1="0.5" y2="30"/><line opacity="0.2" x1="381.97306644727416" x2="381.97306644727416" y1="0.5" y2="30"/><line opacity="0.2" x1="402.14548175226514" x2="402.14548175226514" y1="0.5" y2="30"/><line opacity="0.2" x1="196.4024863815717" x2="196.4024863815717" y1="0.5" y2="30"/><line opacity="0.2" x1="384.2196557795482" x2="384.2196557795482" y1="0.5" y2="30"/><line opacity="0.2" x1="302.0749425371366" x2="302.0749425371366" y1="0.5" y2="30"/><line opacity="0.2" x1="307.2210807860987" x2="307.2210807860987" y1="0.5" y2="30"/><line opacity="0.2" x1="283.5687183001975" x2="283.5687183001975" y1="0.5" y2="30"/><line opacity="0.2" x1="241.4290034430911" x2="241.4290034430911" y1="0.5" y2="30"/><line opacity="0.2" x1="317.64535475145897" x2="317.64535475145897" y1="0.5" y2="30"/><line opacity="0.2" x1="502.8660551893859" x2="502.8660551893859" y1="0.5" y2="30"/><line opacity="0.2" x1="351.0034733407598" x2="351.0034733407598" y1="0.5" y2="30"/><line opacity="0.2" x1="409.3755954189408" x2="409.3755954189408" y1="0.5" y2="30"/><line opacity="0.2" x1="338.84617381082296" x2="338.84617381082296" y1="0.5" y2="30"/><line opacity="0.2" x1="512.0129978056817" x2="512.0129978056817" y1="0.5" y2="30"/><line opacity="0.2" x1="141.74344183151112" x2="141.74344183151112" y1="0.5" y2="30"/><line opacity="0.2" x1="235.038924991665" x2="235.038924991665" y1="0.5" y2="30"/><line opacity="0.2" x1="433.4740232458966" x2="433.4740232458966" y1="0.5" y2="30"/><line opacity="0.2" x1="294.68085167964574" x2="294.68085167964574" y1="0.5" y2="30"/><line opacity="0.2" x1="148.4855848165588" x2="148.4855848165588" y1="0.5" y2="30"/><line opacity="0.2" x1="270.0522472041895" x2="270.0522472041895" y1="0.5" y2="30"/><line opacity="0.2" x1="309.1434967081357" x2="309.1434967081357" y1="0.5" y2="30"/><line opacity="0.2" x1="268.4877890883387" x2="268.4877890883387" y1="0.5" y2="30"/><line opacity="0.2" x1="488.6802268023412" x2="488.6802268023412" y1="0.5" y2="30"/><line opacity="0.2" x1="144.51592276773687" x2="144.51592276773687" y1="0.5" y2="30"/><line opacity="0.2" x1="303.58559087828155" x2="303.58559087828155" y1="0.5" y2="30"/><line opacity="0.2" x1="465.6152983898716" x2="465.6152983898716" y1="0.5" y2="30"/><line opacity="0.2" x1="178.8143036070393" x2="178.8143036070393" y1="0.5" y2="30"/><line opacity="0.2" x1="384.63870794111773" x2="384.63870794111773" y1="0.5" y2="30"/><line opacity="0.2" x1="462.11404540588217" x2="462.11404540588217" y1="0.5" y2="30"/><line opacity="0.2" x1="286.72036124580484" x2="286.72036124580484" y1="0.5" y2="30"/><line opacity="0.2" x1="420.8580450305837" x2="420.8580450305837" y1="0.5" y2="30"/><line opacity="0.2" x1="468.5920298744783" x2="468.5920298744783" y1="0.5" y2="30"/><line opacity="0.2" x1="423.86579269288325" x2="423.86579269288325" y1="0.5" y2="30"/><line opacity="0.2" x1="244.87828070310468" x2="244.87828070310468" y1="0.5" y2="30"/><line opacity="0.2" x1="294.43364145542154" x2="294.43364145542154" y1="0.5" y2="30"/><line opacity="0.2" x1="274.9011793554386" x2="274.9011793554386" y1="0.5" y2="30"/><line opacity="0.2" x1="164.32115882146294" x2="164.32115882146294" y1="0.5" y2="30"/><line opacity="0.2" x1="274.6448221014174" x2="274.6448221014174" y1="0.5" y2="30"/><line opacity="0.2" x1="324.16024469725807" x2="324.16024469725807" y1="0.5" y2="30"/><line opacity="0.2" x1="280.58229742439204" x2="280.58229742439204" y1="0.5" y2="30"/><line opacity="0.2" x1="470.6347160083777" x2="470.6347160083777" y1="0.5" y2="30"/><line opacity="0.2" x1="286.57994855092574" x2="286.57994855092574" y1="0.5" y2="30"/><line opacity="0.2" x1="180.03138312363174" x2="180.03138312363174" y1="0.5" y2="30"/><line opacity="0.2" x1="463.3466256583595" x2="463.3466256583595" y1="0.5" y2="30"/><line opacity="0.2" x1="261.0125466315695" x2="261.0125466315695" y1="0.5" y2="30"/><line opacity="0.2" x1="320.27513517963" x2="320.27513517963" y1="0.5" y2="30"/><line opacity="0.2" x1="351.4670865697875" x2="351.4670865697875" y1="0.5" y2="30"/><line opacity="0.2" x1="286.66674018993837" x2="286.66674018993837" y1="0.5" y2="30"/><line opacity="0.2" x1="380.7999149992118" x2="380.7999149992118" y1="0.5" y2="30"/><line opacity="0.2" x1="163.51892321260166" x2="163.51892321260166" y1="0.5" y2="30"/><line opacity="0.2" x1="339.7659215871179" x2="339.7659215871179" y1="0.5" y2="30"/><line opacity="0.2" x1="214.18117606267296" x2="214.18117606267296" y1="0.5" y2="30"/><line opacity="0.2" x1="321.31137440636587" x2="321.31137440636587" y1="0.5" y2="30"/><line opacity="0.2" x1="254.35392829564537" x2="254.35392829564537" y1="0.5" y2="30"/><line opacity="0.2" x1="131.94155537293219" x2="131.94155537293219" y1="0.5" y2="30"/><line opacity="0.2" x1="388.3153578157038" x2="388.3153578157038" y1="0.5" y2="30"/><line opacity="0.2" x1="242.54879596530827" x2="242.54879596530827" y1="0.5" y2="30"/><line opacity="0.2" x1="399.80413096221827" x2="399.80413096221827" y1="0.5" y2="30"/><line opacity="0.2" x1="404.5619890118181" x2="404.5619890118181" y1="0.5" y2="30"/><line opacity="0.2" x1="274.71457838128083" x2="274.71457838128083" y1="0.5" y2="30"/><line opacity="0.2" x1="193.655888020338" x2="193.655888020338" y1="0.5" y2="30"/><line opacity="0.2" x1="303.24168661895715" x2="303.24168661895715" y1="0.5" y2="30"/><line opacity="0.2" x1="378.8148063377475" x2="378.8148063377475" y1="0.5" y2="30"/><line opacity="0.2" x1="161.02309919082836" x2="161.02309919082836" y1="0.5" y2="30"/><line opacity="0.2" x1="452.46761922947985" x2="452.46761922947985" y1="0.5" y2="30"/><line opacity="0.2" x1="254.42638400387256" x2="254.42638400387256" y1="0.5" y2="30"/><line opacity="0.2" x1="318.8207774825793" x2="318.8207774825793" y1="0.5" y2="30"/><line opacity="0.2" x1="183.8072554352586" x2="183.8072554352586" y1="0.5" y2="30"/><line opacity="0.2" x1="474.11483887923265" x2="474.11483887923265" y1="0.5" y2="30"/><line opacity="0.2" x1="357.3130645958902" x2="357.3130645958902" y1="0.5" y2="30"/><line opacity="0.2" x1="470.5187309457261" x2="470.5187309457261" y1="0.5" y2="30"/><line opacity="0.2" x1="352.332605955892" x2="352.332605955892" y1="0.5" y2="30"/><line opacity="0.2" x1="327.44461403423" x2="327.44461403423" y1="0.5" y2="30"/><line opacity="0.2" x1="266.4571966825876" x2="266.4571966825876" y1="0.5" y2="30"/><line opacity="0.2" x1="379.1485649734887" x2="379.1485649734887" y1="0.5" y2="30"/><line opacity="0.2" x1="360.2281487205287" x2="360.2281487205287" y1="0.5" y2="30"/><line opacity="0.2" x1="469.3864031282903" x2="469.3864031282903" y1="0.5" y2="30"/><line opacity="0.2" x1="406.70104062846264" x2="406.70104062846264" y1="0.5" y2="30"/><line opacity="0.2" x1="213.89319780733757" x2="213.89319780733757" y1="0.5" y2="30"/><line opacity="0.2" x1="271.7802946981529" x2="271.7802946981529" y1="0.5" y2="30"/><line opacity="0.2" x1="171.40437182187537" x2="171.40437182187537" y1="0.5" y2="30"/><line opacity="0.2" x1="224.2514290170912" x2="224.2514290170912" y1="0.5" y2="30"/><line opacity="0.2" x1="241.4027696787617" x2="241.4027696787617" y1="0.5" y2="30"/><line opacity="0.2" x1="403.23111596912184" x2="403.23111596912184" y1="0.5" y2="30"/><line opacity="0.2" x1="204.085637874507" x2="204.085637874507" y1="0.5" y2="30"/><line opacity="0.2" x1="324.8055243261785" x2="324.8055243261785" y1="0.5" y2="30"/><line opacity="0.2" x1="365.5313402507779" x2="365.5313402507779" y1="0.5" y2="30"/><line opacity="0.2" x1="365.1199603192372" x2="365.1199603192372" y1="0.5" y2="30"/><line opacity="0.2" x1="331.68477573488406" x2="331.68477573488406" y1="0.5" y2="30"/><line opacity="0.2" x1="302.38701996596217" x2="302.38701996596217" y1="0.5" y2="30"/><line opacity="0.2" x1="257.0564318359663" x2="257.0564318359663" y1="0.5" y2="30"/><line opacity="0.2" x1="247.25140882490015" x2="247.25140882490015" y1="0.5" y2="30"/><line opacity="0.2" x1="484.26359572888697" x2="484.26359572888697" y1="0.5" y2="30"/><line opacity="0.2" x1="333.5220441538586" x2="333.5220441538586" y1="0.5" y2="30"/><line opacity="0.2" x1="284.359844236692" x2="284.359844236692" y1="0.5" y2="30"/><line opacity="0.2" x1="460.6862028376803" x2="460.6862028376803" y1="0.5" y2="30"/><line opacity="0.2" x1="259.5322140331324" x2="259.5322140331324" y1="0.5" y2="30"/><line opacity="0.2" x1="315.9239578078188" x2="315.9239578078188" y1="0.5" y2="30"/><line opacity="0.2" x1="345.983224376201" x2="345.983224376201" y1="0.5" y2="30"/><line opacity="0.2" x1="320.459202014632" x2="320.459202014632" y1="0.5" y2="30"/><line opacity="0.2" x1="378.8683887635438" x2="378.8683887635438" y1="0.5" y2="30"/><line opacity="0.2" x1="346.9003244671514" x2="346.9003244671514" y1="0.5" y2="30"/><line opacity="0.2" x1="390.1185094064852" x2="390.1185094064852" y1="0.5" y2="30"/><line opacity="0.2" x1="210.5324666108019" x2="210.5324666108019" y1="0.5" y2="30"/><line opacity="0.2" x1="404.9659450046001" x2="404.9659450046001" y1="0.5" y2="30"/><line opacity="0.2" x1="312.1164987799831" x2="312.1164987799831" y1="0.5" y2="30"/><line opacity="0.2" x1="238.10988316441941" x2="238.10988316441941" y1="0.5" y2="30"/><line opacity="0.2" x1="423.24294427602496" x2="423.24294427602496" y1="0.5" y2="30"/><line opacity="0.2" x1="286.00228006161717" x2="286.00228006161717" y1="0.5" y2="30"/><line opacity="0.2" x1="420.3065669984759" x2="420.3065669984759" y1="0.5" y2="30"/><line opacity="0.2" x1="125.95157547216003" x2="125.95157547216003" y1="0.5" y2="30"/><line opacity="0.2" x1="468.9986887494697" x2="468.9986887494697" y1="0.5" y2="30"/><line opacity="0.2" x1="291.35690279332823" x2="291.35690279332823" y1="0.5" y2="30"/><line opacity="0.2" x1="451.5784239757423" x2="451.5784239757423" y1="0.5" y2="30"/><line opacity="0.2" x1="335.2939282098413" x2="335.2939282098413" y1="0.5" y2="30"/><line opacity="0.2" x1="386.5533080119332" x2="386.5533080119332" y1="0.5" y2="30"/><line opacity="0.2" x1="292.847952399247" x2="292.847952399247" y1="0.5" y2="30"/><line opacity="0.2" x1="410.75989017521437" x2="410.75989017521437" y1="0.5" y2="30"/><line opacity="0.2" x1="259.2415657778822" x2="259.2415657778822" y1="0.5" y2="30"/><line opacity="0.2" x1="313.9446380506069" x2="313.9446380506069" y1="0.5" y2="30"/><line opacity="0.2" x1="276.72388197642863" x2="276.72388197642863" y1="0.5" y2="30"/><line opacity="0.2" x1="460.7605815826414" x2="460.7605815826414" y1="0.5" y2="30"/><line opacity="0.2" x1="233.5794052021149" x2="233.5794052021149" y1="0.5" y2="30"/><line opacity="0.2" x1="288.91137945083506" x2="288.91137945083506" y1="0.5" y2="30"/><line opacity="0.2" x1="291.816861460385" x2="291.816861460385" y1="0.5" y2="30"/><line opacity="0.2" x1="233.75576372328626" x2="233.75576372328626" y1="0.5" y2="30"/><line opacity="0.2" x1="409.57539359304445" x2="409.57539359304445" y1="0.5" y2="30"/><line opacity="0.2" x1="124.97930391543159" x2="124.97930391543159" y1="0.5" y2="30"/><line opacity="0.2" x1="198.63026761799395" x2="198.63026761799395" y1="0.5" y2="30"/><line opacity="0.2" x1="410.5092156481777" x2="410.5092156481777" y1="0.5" y2="30"/><line opacity="0.2" x1="371.0659821823738" x2="371.0659821823738" y1="0.5" y2="30"/><line opacity="0.2" x1="294.7508815189507" x2="294.7508815189507" y1="0.5" y2="30"/><line opacity="0.2" x1="428.60449609771837" x2="428.60449609771837" y1="0.5" y2="30"/><line opacity="0.2" x1="424.0862718252861" x2="424.0862718252861" y1="0.5" y2="30"/><line opacity="0.2" x1="245.7106065423849" x2="245.7106065423849" y1="0.5" y2="30"/><line opacity="0.2" x1="542.9187813439836" x2="542.9187813439836" y1="0.5" y2="30"/><line opacity="0.2" x1="437.5663447222455" x2="437.5663447222455" y1="0.5" y2="30"/><line opacity="0.2" x1="322.63592548627554" x2="322.63592548627554" y1="0.5" y2="30"/><line opacity="0.2" x1="313.1599928002234" x2="313.1599928002234" y1="0.5" y2="30"/><line opacity="0.2" x1="410.87378848240513" x2="410.87378848240513" y1="0.5" y2="30"/><line opacity="0.2" x1="204.56227534990765" x2="204.56227534990765" y1="0.5" y2="30"/><line opacity="0.2" x1="349.41392394443136" x2="349.41392394443136" y1="0.5" y2="30"/><line opacity="0.2" x1="355.1106816917328" x2="355.1106816917328" y1="0.5" y2="30"/><line opacity="0.2" x1="329.2488460985813" x2="329.2488460985813" y1="0.5" y2="30"/><line opacity="0.2" x1="267.5341829516285" x2="267.5341829516285" y1="0.5" y2="30"/><line opacity="0.2" x1="213.52480532386355" x2="213.52480532386355" y1="0.5" y2="30"/><line opacity="0.2" x1="430.54966083682694" x2="430.54966083682694" y1="0.5" y2="30"/><line opacity="0.2" x1="175.69724474090447" x2="175.69724474090447" y1="0.5" y2="30"/><line opacity="0.2" x1="408.3165865588271" x2="408.3165865588271" y1="0.5" y2="30"/><line opacity="0.2" x1="244.5857272813615" x2="244.5857272813615" y1="0.5" y2="30"/><line opacity="0.2" x1="331.0810030100976" x2="331.0810030100976" y1="0.5" y2="30"/><line opacity="0.2" x1="212.70010567382505" x2="212.70010567382505" y1="0.5" y2="30"/><line opacity="0.2" x1="291.77783715811546" x2="291.77783715811546" y1="0.5" y2="30"/><line opacity="0.2" x1="58.474614483154525" x2="58.474614483154525" y1="0.5" y2="30"/><line opacity="0.2" x1="475.15096242547156" x2="475.15096242547156" y1="0.5" y2="30"/><line opacity="0.2" x1="320.4942253801888" x2="320.4942253801888" y1="0.5" y2="30"/><line opacity="0.2" x1="101.9397951818373" x2="101.9397951818373" y1="0.5" y2="30"/><line opacity="0.2" x1="379.4583139151969" x2="379.4583139151969" y1="0.5" y2="30"/><line opacity="0.2" x1="237.10935023963594" x2="237.10935023963594" y1="0.5" y2="30"/><line opacity="0.2" x1="314.1653509801529" x2="314.1653509801529" y1="0.5" y2="30"/><line opacity="0.2" x1="462.4037223319536" x2="462.4037223319536" y1="0.5" y2="30"/><line opacity="0.2" x1="357.75717515858463" x2="357.75717515858463" y1="0.5" y2="30"/><line opacity="0.2" x1="258.2276218115635" x2="258.2276218115635" y1="0.5" y2="30"/><line opacity="0.2" x1="160.2697820581263" x2="160.2697820581263" y1="0.5" y2="30"/><line opacity="0.2" x1="329.14182068603736" x2="329.14182068603736" y1="0.5" y2="30"/><line opacity="0.2" x1="213.6551186542323" x2="213.6551186542323" y1="0.5" y2="30"/><line opacity="0.2" x1="256.6084307272107" x2="256.6084307272107" y1="0.5" y2="30"/><line opacity="0.2" x1="83.11396819070006" x2="83.11396819070006" y1="0.5" y2="30"/><line opacity="0.2" x1="400.96003036665695" x2="400.96003036665695" y1="0.5" y2="30"/><line opacity="0.2" x1="275.32898498964823" x2="275.32898498964823" y1="0.5" y2="30"/><line opacity="0.2" x1="125.20085105469282" x2="125.20085105469282" y1="0.5" y2="30"/><line opacity="0.2" x1="83.75859616631574" x2="83.75859616631574" y1="0.5" y2="30"/><line opacity="0.2" x1="339.3882514448045" x2="339.3882514448045" y1="0.5" y2="30"/><line opacity="0.2" x1="360.6817172939906" x2="360.6817172939906" y1="0.5" y2="30"/><line opacity="0.2" x1="430.19765288298504" x2="430.19765288298504" y1="0.5" y2="30"/><line opacity="0.2" x1="139.707054072119" x2="139.707054072119" y1="0.5" y2="30"/><line opacity="0.2" x1="199.76368582403842" x2="199.76368582403842" y1="0.5" y2="30"/><line opacity="0.2" x1="349.0220457515529" x2="349.0220457515529" y1="0.5" y2="30"/><line opacity="0.2" x1="491.64842426191353" x2="491.64842426191353" y1="0.5" y2="30"/><line opacity="0.2" x1="320.31337284526995" x2="320.31337284526995" y1="0.5" y2="30"/><line opacity="0.2" x1="299.82365148002606" x2="299.82365148002606" y1="0.5" y2="30"/><line opacity="0.2" x1="309.3654470064107" x2="309.3654470064107" y1="0.5" y2="30"/><line opacity="0.2" x1="350.4096770373681" x2="350.4096770373681" y1="0.5" y2="30"/><line opacity="0.2" x1="227.89566389615777" x2="227.89566389615777" y1="0.5" y2="30"/><line opacity="0.2" x1="411.051410507981" x2="411.051410507981" y1="0.5" y2="30"/><line opacity="0.2" x1="87.24188502985484" x2="87.24188502985484" y1="0.5" y2="30"/><line opacity="0.2" x1="469.9529694629947" x2="469.9529694629947" y1="0.5" y2="30"/><line opacity="0.2" x1="321.3014182584205" x2="321.3014182584205" y1="0.5" y2="30"/><line opacity="0.2" x1="310.4331030740377" x2="310.4331030740377" y1="0.5" y2="30"/><line opacity="0.2" x1="517.612444115139" x2="517.612444115139" y1="0.5" y2="30"/><line opacity="0.2" x1="417.9779241688005" x2="417.9779241688005" y1="0.5" y2="30"/><line opacity="0.2" x1="251.32289788617658" x2="251.32289788617658" y1="0.5" y2="30"/><line opacity="0.2" x1="404.30648422695543" x2="404.30648422695543" y1="0.5" y2="30"/><line opacity="0.2" x1="441.4190328060231" x2="441.4190328060231" y1="0.5" y2="30"/><line opacity="0.2" x1="352.22084177254686" x2="352.22084177254686" y1="0.5" y2="30"/><line opacity="0.2" x1="295.82489745478733" x2="295.82489745478733" y1="0.5" y2="30"/><line opacity="0.2" x1="387.4391152930819" x2="387.4391152930819" y1="0.5" y2="30"/><line opacity="0.2" x1="210.92161754463115" x2="210.92161754463115" y1="0.5" y2="30"/><line opacity="0.2" x1="293.5761891656953" x2="293.5761891656953" y1="0.5" y2="30"/><line opacity="0.2" x1="508.89152348568814" x2="508.89152348568814" y1="0.5" y2="30"/><line opacity="0.2" x1="439.76397384241915" x2="439.76397384241915" y1="0.5" y2="30"/><line opacity="0.2" x1="434.3111908056859" x2="434.3111908056859" y1="0.5" y2="30"/><line opacity="0.2" x1="141.23600249356255" x2="141.23600249356255" y1="0.5" y2="30"/><line opacity="0.2" x1="413.9473241818698" x2="413.9473241818698" y1="0.5" y2="30"/><line opacity="0.2" x1="330.6973224632713" x2="330.6973224632713" y1="0.5" y2="30"/><line opacity="0.2" x1="291.37362540402887" x2="291.37362540402887" y1="0.5" y2="30"/><line opacity="0.2" x1="312.5487345788968" x2="312.5487345788968" y1="0.5" y2="30"/><line opacity="0.2" x1="324.18611895301797" x2="324.18611895301797" y1="0.5" y2="30"/><line opacity="0.2" x1="463.25000885292087" x2="463.25000885292087" y1="0.5" y2="30"/><line opacity="0.2" x1="303.7785103549196" x2="303.7785103549196" y1="0.5" y2="30"/><line opacity="0.2" x1="243.59547556864896" x2="243.59547556864896" y1="0.5" y2="30"/><line opacity="0.2" x1="80.27198362764263" x2="80.27198362764263" y1="0.5" y2="30"/><line opacity="0.2" x1="522.8354303694497" x2="522.8354303694497" y1="0.5" y2="30"/><line opacity="0.2" x1="212.02902880476748" x2="212.02902880476748" y1="0.5" y2="30"/><line opacity="0.2" x1="20" x2="20" y1="0.5" y2="30"/><line opacity="0.2" x1="418.07585140572394" x2="418.07585140572394" y1="0.5" y2="30"/><line opacity="0.2" x1="321.45291111117564" x2="321.45291111117564" y1="0.5" y2="30"/><line opacity="0.2" x1="90.15002529332384" x2="90.15002529332384" y1="0.5" y2="30"/><line opacity="0.2" x1="433.7326812293516" x2="433.7326812293516" y1="0.5" y2="30"/><line opacity="0.2" x1="343.1969896280194" x2="343.1969896280194" y1="0.5" y2="30"/><line opacity="0.2" x1="418.303190518975" x2="418.303190518975" y1="0.5" y2="30"/><line opacity="0.2" x1="447.3155391415803" x2="447.3155391415803" y1="0.5" y2="30"/><line opacity="0.2" x1="436.3061554147698" x2="436.3061554147698" y1="0.5" y2="30"/></g></svg>