<svg xmlns="http://www.w3.org/2000/svg" xmlns:xlink="http://www.w3.org/1999/xlink" class="plot-43250acf168a6" fill="currentColor" font-family="system-ui, sans-serif" font-size="10" text-anchor="middle" width="640" height="60" viewBox="0 0 640 60" style="color: black;"><style>
        .plot-43250acf168a6 {
          display: block;
          background: white;
          height: auto;
          height: intrinsic;
          max-width: 100%;
        }
        .plot-43250acf168a6 text,
        .plot-43250acf168a6 tspan {
          white-space: pre;
        }
      </style><g aria-label="x-axis tick" fill="none" stroke="currentColor" transform="translate(0.5,0)"><path transform="translate(106.09798786904553,30)" d="M0,0L0,6"/><path transform="translate(202.05490311570782,30)" d="M0,0L0,6"/><path transform="translate(298.0118183623702,30)" d="M0,0L0,6"/><path transform="translate(393.9687336090325,30)" d="M0,0L0,6"/><path transform="translate(489.92564885569476,30)" d="M0,0L0,6"/><path transform="translate(585.882564102357,30)" d="M0,0L0,6"/></g><g aria-label="x-axis tick label" font-variant="tabular-nums" transform="translate(0.5,9.5)"><text y="0.71em" transform="translate(106.09798786904553,30)">−2</text><text y="0.71em" transform="translate(202.05490311570782,30)">−1</text><text y="0.71em" transform="translate(298.0118183623702,30)">0</text><text y="0.71em" transform="translate(393.9687336090325,30)">1</text><text y="0.71em" transform="translate(489.92564885569476,30)">2</text><text y="0.71em" transform="translate(585.882564102357,30)">3</text></g><g aria-label="tick" stroke="royalblue" transform="translate(0.5,0)"><line opacity="0.2" x1="328.02403972406034" x2="328.02403972406034" y1="0" y2="30"/><line opacity="0.2" x1="87.2823673259296" x2="87.2823673259296" y1="0" y2="30"/><line opacity="0.2" x1="266.06414680158986" x2="266.06414680158986" y1="0" y2="30"/><line opacity="0.2" x1="264.8236887363757" x2="264.8236887363757" y1="0" y2="30"/><line opacity="0.2" x1="218.46234438560526" x2="218.46234438560526" y1="0" y2="30"/><line opacity="0.2" x1="211.9155700906962" x2="211.9155700906962" y1="0" y2="30"/><line opacity="0.2" x1="349.69282929573274" x2="349.69282929573274" y1="0" y2="30"/><line opacity="0.2" x1="436.7043084107894" x2="436.7043084107894" y1="0" y2="30"/><line opacity="0.2" x1="311.47414565832156" x2="311.47414565832156" y1="0" y2="30"/><line opacity="0.2" x1="449.98009951416617" x2="449.98009951416617" y1="0" y2="30"/><line opacity="0.2" x1="164.92777953430263" x2="164.92777953430263" y1="0" y2="30"/><line opacity="0.2" x1="428.95942220861104" x2="428.95942220861104" y1="0" y2="30"/><line opacity="0.2" x1="104.6314858445688" x2="104.6314858445688" y1="0" y2="30"/><line opacity="0.2" x1="298.93037849376447" x2="298.93037849376447" y1="0" y2="30"/><line opacity="0.2" x1="264.3257889131932" x2="264.3257889131932" y1="0" y2="30"/><line opacity="0.2" x1="398.6349287660389" x2="398.6349287660389" y1="0" y2="30"/><line opacity="0.2" x1="301.308560998636" x2="301.308560998636" y1="0" y2="30"/><line opacity="0.2" x1="97.01609476113974" x2="97.01609476113974" y1="0" y2="30"/><line opacity="0.2" x1="365.5175587666591" x2="365.5175587666591" y1="0" y2="30"/><line opacity="0.2" x1="340.55044904238724" x2="340.55044904238724" y1="0" y2="30"/><line opacity="0.2" x1="165.46351545911745" x2="165.46351545911745" y1="0" y2="30"/><line opacity="0.2" x1="166.1543487018171" x2="166.1543487018171" y1="0" y2="30"/><line opacity="0.2" x1="310.0153280411351" x2="310.0153280411351" y1="0" y2="30"/><line opacity="0.2" x1="246.29789236735846" x2="246.29789236735846" y1="0" y2="30"/><line opacity="0.2" x1="306.7726891983055" x2="306.7726891983055" y1="0" y2="30"/><line opacity="0.2" x1="364.0751152959266" x2="364.0751152959266" y1="0" y2="30"/><line opacity="0.2" x1="293.3604683818345" x2="293.3604683818345" y1="0" y2="30"/><line opacity="0.2" x1="308.7776642170016" x2="308.7776642170016" y1="0" y2="30"/><line opacity="0.2" x1="359.45364464574686" x2="359.45364464574686" y1="0" y2="30"/><line opacity="0.2" x1="113.73269206187408" x2="113.73269206187408" y1="0" y2="30"/><line opacity="0.2" x1="129.26489211431306" x2="129.26489211431306" y1="0" y2="30"/><line opacity="0.2" x1="198.953235352004" x2="198.953235352004" y1="0" y2="30"/><line opacity="0.2" x1="254.34409992437094" x2="254.34409992437094" y1="0" y2="30"/><line opacity="0.2" x1="284.65546208116376" x2="284.65546208116376" y1="0" y2="30"/><line opacity="0.2" x1="236.32535131407212" x2="236.32535131407212" y1="0" y2="30"/><line opacity="0.2" x1="494.4733056818877" x2="494.4733056818877" y1="0" y2="30"/><line opacity="0.2" x1="377.7036967741725" x2="377.7036967741725" y1="0" y2="30"/><line opacity="0.2" x1="355.714967536688" x2="355.714967536688" y1="0" y2="30"/><line opacity="0.2" x1="290.6351280435523" x2="290.6351280435523" y1="0" y2="30"/><line opacity="0.2" x1="401.70277059752044" x2="401.70277059752044" y1="0" y2="30"/><line opacity="0.2" x1="298.9868686290159" x2="298.9868686290159" y1="0" y2="30"/><line opacity="0.2" x1="399.2927366386433" x2="399.2927366386433" y1="0" y2="30"/><line opacity="0.2" x1="353.5669530074013" x2="353.5669530074013" y1="0" y2="30"/><line opacity="0.2" x1="253.26528854185588" x2="253.26528854185588" y1="0" y2="30"/><line opacity="0.2" x1="336.2867680638842" x2="336.2867680638842" y1="0" y2="30"/><line opacity="0.2" x1="351.5255943623132" x2="351.5255943623132" y1="0" y2="30"/><line opacity="0.2" x1="312.35835154031076" x2="312.35835154031076" y1="0" y2="30"/><line opacity="0.2" x1="327.6630478725537" x2="327.6630478725537" y1="0" y2="30"/><line opacity="0.2" x1="371.798435734202" x2="371.798435734202" y1="0" y2="30"/><line opacity="0.2" x1="243.44369149208805" x2="243.44369149208805" y1="0" y2="30"/><line opacity="0.2" x1="36.4143646652944" x2="36.4143646652944" y1="0" y2="30"/><line opacity="0.2" x1="251.68895114721371" x2="251.68895114721371" y1="0" y2="30"/><line opacity="0.2" x1="346.0695989113383" x2="346.0695989113383" y1="0" y2="30"/><line opacity="0.2" x1="326.5420697248098" x2="326.5420697248098" y1="0" y2="30"/><line opacity="0.2" x1="359.6455782990472" x2="359.6455782990472" y1="0" y2="30"/><line opacity="0.2" x1="398.39001428028325" x2="398.39001428028325" y1="0" y2="30"/><line opacity="0.2" x1="182.32927565347836" x2="182.32927565347836" y1="0" y2="30"/><line opacity="0.2" x1="325.49539324953116" x2="325.49539324953116" y1="0" y2="30"/><line opacity="0.2" x1="236.45811781895864" x2="236.45811781895864" y1="0" y2="30"/><line opacity="0.2" x1="332.50852391830256" x2="332.50852391830256" y1="0" y2="30"/><line opacity="0.2" x1="376.27768924488817" x2="376.27768924488817" y1="0" y2="30"/><line opacity="0.2" x1="166.8496944380018" x2="166.8496944380018" y1="0" y2="30"/><line opacity="0.2" x1="175.75926456619368" x2="175.75926456619368" y1="0" y2="30"/><line opacity="0.2" x1="202.74841275960577" x2="202.74841275960577" y1="0" y2="30"/><line opacity="0.2" x1="285.0467340376855" x2="285.0467340376855" y1="0" y2="30"/><line opacity="0.2" x1="269.8910736250409" x2="269.8910736250409" y1="0" y2="30"/><line opacity="0.2" x1="348.5384283673054" x2="348.5384283673054" y1="0" y2="30"/><line opacity="0.2" x1="186.57192753953973" x2="186.57192753953973" y1="0" y2="30"/><line opacity="0.2" x1="303.77097877185025" x2="303.77097877185025" y1="0" y2="30"/><line opacity="0.2" x1="326.3236628662534" x2="326.3236628662534" y1="0" y2="30"/><line opacity="0.2" x1="320.53654084006047" x2="320.53654084006047" y1="0" y2="30"/><line opacity="0.2" x1="182.29358147220503" x2="182.29358147220503" y1="0" y2="30"/><line opacity="0.2" x1="427.9830969468163" x2="427.9830969468163" y1="0" y2="30"/><line opacity="0.2" x1="351.18226919337667" x2="351.18226919337667" y1="0" y2="30"/><line opacity="0.2" x1="240.29802953135993" x2="240.29802953135993" y1="0" y2="30"/><line opacity="0.2" x1="437.7488594933539" x2="437.7488594933539" y1="0" y2="30"/><line opacity="0.2" x1="476.6189463169535" x2="476.6189463169535" y1="0" y2="30"/><line opacity="0.2" x1="355.91887425183546" x2="355.91887425183546" y1="0" y2="30"/><line opacity="0.2" x1="415.9088127000451" x2="415.9088127000451" y1="0" y2="30"/><line opacity="0.2" x1="168.6047508872958" x2="168.6047508872958" y1="0" y2="30"/><line opacity="0.2" x1="76.29426635235062" x2="76.29426635235062" y1="0" y2="30"/><line opacity="0.2" x1="269.11156929866183" x2="269.11156929866183" y1="0" y2="30"/><line opacity="0.2" x1="330.89127441366463" x2="330.89127441366463" y1="0" y2="30"/><line opacity="0.2" x1="285.5675247668855" x2="285.5675247668855" y1="0" y2="30"/><line opacity="0.2" x1="443.6139864932757" x2="443.6139864932757" y1="0" y2="30"/><line opacity="0.2" x1="409.3310662786504" x2="409.3310662786504" y1="0" y2="30"/><line opacity="0.2" x1="597.0903328406874" x2="597.0903328406874" y1="0" y2="30"/><line opacity="0.2" x1="323.2994366629408" x2="323.2994366629408" y1="0" y2="30"/><line opacity="0.2" x1="436.65852277169097" x2="436.65852277169097" y1="0" y2="30"/><line opacity="0.2" x1="355.92062387691414" x2="355.92062387691414" y1="0" y2="30"/><line opacity="0.2" x1="236.68478999686377" x2="236.68478999686377" y1="0" y2="30"/><line opacity="0.2" x1="251.96216956737186" x2="251.96216956737186" y1="0" y2="30"/><line opacity="0.2" x1="169.26714947846372" x2="169.26714947846372" y1="0" y2="30"/><line opacity="0.2" x1="197.5430095098032" x2="197.5430095098032" y1="0" y2="30"/><line opacity="0.2" x1="332.3296114288466" x2="332.3296114288466" y1="0" y2="30"/><line opacity="0.2" x1="440.3001012609361" x2="440.3001012609361" y1="0" y2="30"/><line opacity="0.2" x1="332.12250520584166" x2="332.12250520584166" y1="0" y2="30"/><line opacity="0.2" x1="345.1188318164857" x2="345.1188318164857" y1="0" y2="30"/><line opacity="0.2" x1="186.15252511471877" x2="186.15252511471877" y1="0" y2="30"/><line opacity="0.2" x1="349.94079018836226" x2="349.94079018836226" y1="0" y2="30"/><line opacity="0.2" x1="194.44965764856005" x2="194.44965764856005" y1="0" y2="30"/><line opacity="0.2" x1="302.14692025742795" x2="302.14692025742795" y1="0" y2="30"/><line opacity="0.2" x1="194.96673891670238" x2="194.96673891670238" y1="0" y2="30"/><line opacity="0.2" x1="302.88604894440823" x2="302.88604894440823" y1="0" y2="30"/><line opacity="0.2" x1="196.42133190828577" x2="196.42133190828577" y1="0" y2="30"/><line opacity="0.2" x1="287.3311630497549" x2="287.3311630497549" y1="0" y2="30"/><line opacity="0.2" x1="387.6601101552508" x2="387.6601101552508" y1="0" y2="30"/><line opacity="0.2" x1="229.0731400424317" x2="229.0731400424317" y1="0" y2="30"/><line opacity="0.2" x1="232.46111354013354" x2="232.46111354013354" y1="0" y2="30"/><line opacity="0.2" x1="132.79524350843667" x2="132.79524350843667" y1="0" y2="30"/><line opacity="0.2" x1="131.76951608458157" x2="131.76951608458157" y1="0" y2="30"/><line opacity="0.2" x1="371.4761126820297" x2="371.4761126820297" y1="0" y2="30"/><line opacity="0.2" x1="388.8952354031579" x2="388.8952354031579" y1="0" y2="30"/><line opacity="0.2" x1="213.89876370374483" x2="213.89876370374483" y1="0" y2="30"/><line opacity="0.2" x1="188.35219270363316" x2="188.35219270363316" y1="0" y2="30"/><line opacity="0.2" x1="200.9563802313079" x2="200.9563802313079" y1="0" y2="30"/><line opacity="0.2" x1="255.1913940322272" x2="255.1913940322272" y1="0" y2="30"/><line opacity="0.2" x1="201.5664251560131" x2="201.5664251560131" y1="0" y2="30"/><line opacity="0.2" x1="301.15990361444244" x2="301.15990361444244" y1="0" y2="30"/><line opacity="0.2" x1="238.5070246273578" x2="238.5070246273578" y1="0" y2="30"/><line opacity="0.2" x1="190.48408876143162" x2="190.48408876143162" y1="0" y2="30"/><line opacity="0.2" x1="249.63029359570777" x2="249.63029359570777" y1="0" y2="30"/><line opacity="0.2" x1="397.57025178794515" x2="397.57025178794515" y1="0" y2="30"/><line opacity="0.2" x1="204.13031153824303" x2="204.13031153824303" y1="0" y2="30"/><line opacity="0.2" x1="340.72580979273044" x2="340.72580979273044" y1="0" y2="30"/><line opacity="0.2" x1="230.35237358348334" x2="230.35237358348334" y1="0" y2="30"/><line opacity="0.2" x1="402.60907762558486" x2="402.60907762558486" y1="0" y2="30"/><line opacity="0.2" x1="164.69636180089213" x2="164.69636180089213" y1="0" y2="30"/><line opacity="0.2" x1="250.02422662744658" x2="250.02422662744658" y1="0" y2="30"/><line opacity="0.2" x1="92.3887982059555" x2="92.3887982059555" y1="0" y2="30"/><line opacity="0.2" x1="200.4585801752387" x2="200.4585801752387" y1="0" y2="30"/><line opacity="0.2" x1="328.7253438309302" x2="328.7253438309302" y1="0" y2="30"/><line opacity="0.2" x1="301.17699097773624" x2="301.17699097773624" y1="0" y2="30"/><line opacity="0.2" x1="340.8848382618" x2="340.8848382618" y1="0" y2="30"/><line opacity="0.2" x1="262.2342103101439" x2="262.2342103101439" y1="0" y2="30"/><line opacity="0.2" x1="194.54923589279065" x2="194.54923589279065" y1="0" y2="30"/><line opacity="0.2" x1="384.1814671747943" x2="384.1814671747943" y1="0" y2="30"/><line opacity="0.2" x1="333.2630263970681" x2="333.2630263970681" y1="0" y2="30"/><line opacity="0.2" x1="327.16438167470005" x2="327.16438167470005" y1="0" y2="30"/><line opacity="0.2" x1="181.9343158732121" x2="181.9343158732121" y1="0" y2="30"/><line opacity="0.2" x1="181.69814118904105" x2="181.69814118904105" y1="0" y2="30"/><line opacity="0.2" x1="270.899223173846" x2="270.899223173846" y1="0" y2="30"/><line opacity="0.2" x1="519.2166905357817" x2="519.2166905357817" y1="0" y2="30"/><line opacity="0.2" x1="381.94808775711" x2="381.94808775711" y1="0" y2="30"/><line opacity="0.2" x1="105.10076780907693" x2="105.10076780907693" y1="0" y2="30"/><line opacity="0.2" x1="259.6519473397993" x2="259.6519473397993" y1="0" y2="30"/><line opacity="0.2" x1="255.27252589496197" x2="255.27252589496197" y1="0" y2="30"/><line opacity="0.2" x1="191.50455283675805" x2="191.50455283675805" y1="0" y2="30"/><line opacity="0.2" x1="145.5617410245288" x2="145.5617410245288" y1="0" y2="30"/><line opacity="0.2" x1="62.15502037169473" x2="62.15502037169473" y1="0" y2="30"/><line opacity="0.2" x1="299.74833568765524" x2="299.74833568765524" y1="0" y2="30"/><line opacity="0.2" x1="243.99971937160313" x2="243.99971937160313" y1="0" y2="30"/><line opacity="0.2" x1="299.16792396189743" x2="299.16792396189743" y1="0" y2="30"/><line opacity="0.2" x1="223.717966002719" x2="223.717966002719" y1="0" y2="30"/><line opacity="0.2" x1="164.44498817875566" x2="164.44498817875566" y1="0" y2="30"/><line opacity="0.2" x1="382.17877783884614" x2="382.17877783884614" y1="0" y2="30"/><line opacity="0.2" x1="322.99976062503583" x2="322.99976062503583" y1="0" y2="30"/><line opacity="0.2" x1="386.2195401596054" x2="386.2195401596054" y1="0" y2="30"/><line opacity="0.2" x1="337.25223042977933" x2="337.25223042977933" y1="0" y2="30"/><line opacity="0.2" x1="229.83206258204856" x2="229.83206258204856" y1="0" y2="30"/><line opacity="0.2" x1="341.4984334453999" x2="341.4984334453999" y1="0" y2="30"/><line opacity="0.2" x1="472.2831643843249" x2="472.2831643843249" y1="0" y2="30"/><line opacity="0.2" x1="378.1723645496035" x2="378.1723645496035" y1="0" y2="30"/><line opacity="0.2" x1="315.9125053428294" x2="315.9125053428294" y1="0" y2="30"/><line opacity="0.2" x1="328.60290295750434" x2="328.60290295750434" y1="0" y2="30"/><line opacity="0.2" x1="350.23994986248607" x2="350.23994986248607" y1="0" y2="30"/><line opacity="0.2" x1="379.8276694987921" x2="379.8276694987921" y1="0" y2="30"/><line opacity="0.2" x1="194.12828691495608" x2="194.12828691495608" y1="0" y2="30"/><line opacity="0.2" x1="461.03130884350156" x2="461.03130884350156" y1="0" y2="30"/><line opacity="0.2" x1="223.99350553266328" x2="223.99350553266328" y1="0" y2="30"/><line opacity="0.2" x1="164.81157089951938" x2="164.81157089951938" y1="0" y2="30"/><line opacity="0.2" x1="439.49744492954363" x2="439.49744492954363" y1="0" y2="30"/><line opacity="0.2" x1="323.3530922543943" x2="323.3530922543943" y1="0" y2="30"/><line opacity="0.2" x1="316.6459169300797" x2="316.6459169300797" y1="0" y2="30"/><line opacity="0.2" x1="213.46102277897333" x2="213.46102277897333" y1="0" y2="30"/><line opacity="0.2" x1="263.44261933402805" x2="263.44261933402805" y1="0" y2="30"/><line opacity="0.2" x1="175.86490710220588" x2="175.86490710220588" y1="0" y2="30"/><line opacity="0.2" x1="189.35156817781467" x2="189.35156817781467" y1="0" y2="30"/><line opacity="0.2" x1="344.8557831379129" x2="344.8557831379129" y1="0" y2="30"/><line opacity="0.2" x1="345.3832466344666" x2="345.3832466344666" y1="0" y2="30"/><line opacity="0.2" x1="253.22448727220996" x2="253.22448727220996" y1="0" y2="30"/><line opacity="0.2" x1="215.29553924673135" x2="215.29553924673135" y1="0" y2="30"/><line opacity="0.2" x1="351.62034283432" x2="351.62034283432" y1="0" y2="30"/><line opacity="0.2" x1="213.84677329318964" x2="213.84677329318964" y1="0" y2="30"/><line opacity="0.2" x1="274.6115247540683" x2="274.6115247540683" y1="0" y2="30"/><line opacity="0.2" x1="455.8830542390885" x2="455.8830542390885" y1="0" y2="30"/><line opacity="0.2" x1="364.3418435632828" x2="364.3418435632828" y1="0" y2="30"/><line opacity="0.2" x1="298.17376009147273" x2="298.17376009147273" y1="0" y2="30"/><line opacity="0.2" x1="201.10590624842584" x2="201.10590624842584" y1="0" y2="30"/><line opacity="0.2" x1="274.52684843715105" x2="274.52684843715105" y1="0" y2="30"/><line opacity="0.2" x1="309.5860511440025" x2="309.5860511440025" y1="0" y2="30"/><line opacity="0.2" x1="279.1045303939588" x2="279.1045303939588" y1="0" y2="30"/><line opacity="0.2" x1="258.39635971904966" x2="258.39635971904966" y1="0" y2="30"/><line opacity="0.2" x1="344.45781386275127" x2="344.45781386275127" y1="0" y2="30"/><line opacity="0.2" x1="255.33886656496261" x2="255.33886656496261" y1="0" y2="30"/><line opacity="0.2" x1="215.35071994464948" x2="215.35071994464948" y1="0" y2="30"/><line opacity="0.2" x1="210.2556564583283" x2="210.2556564583283" y1="0" y2="30"/><line opacity="0.2" x1="126.69916006276199" x2="126.69916006276199" y1="0" y2="30"/><line opacity="0.2" x1="169.34938129413663" x2="169.34938129413663" y1="0" y2="30"/><line opacity="0.2" x1="331.6562688498311" x2="331.6562688498311" y1="0" y2="30"/><line opacity="0.2" x1="330.74578511510833" x2="330.74578511510833" y1="0" y2="30"/><line opacity="0.2" x1="273.75015212386836" x2="273.75015212386836" y1="0" y2="30"/><line opacity="0.2" x1="443.8014369494136" x2="443.8014369494136" y1="0" y2="30"/><line opacity="0.2" x1="205.50589199782965" x2="205.50589199782965" y1="0" y2="30"/><line opacity="0.2" x1="274.23141561032844" x2="274.23141561032844" y1="0" y2="30"/><line opacity="0.2" x1="314.8094045689655" x2="314.8094045689655" y1="0" y2="30"/><line opacity="0.2" x1="129.80808416383852" x2="129.80808416383852" y1="0" y2="30"/><line opacity="0.2" x1="237.72666370239006" x2="237.72666370239006" y1="0" y2="30"/><line opacity="0.2" x1="180.89569375019488" x2="180.89569375019488" y1="0" y2="30"/><line opacity="0.2" x1="291.74316660578063" x2="291.74316660578063" y1="0" y2="30"/><line opacity="0.2" x1="271.5855637751368" x2="271.5855637751368" y1="0" y2="30"/><line opacity="0.2" x1="503.91011939842315" x2="503.91011939842315" y1="0" y2="30"/><line opacity="0.2" x1="359.8566307024418" x2="359.8566307024418" y1="0" y2="30"/><line opacity="0.2" x1="298.27093185570806" x2="298.27093185570806" y1="0" y2="30"/><line opacity="0.2" x1="166.2100752708771" x2="166.2100752708771" y1="0" y2="30"/><line opacity="0.2" x1="207.93779534149274" x2="207.93779534149274" y1="0" y2="30"/><line opacity="0.2" x1="358.3557636894911" x2="358.3557636894911" y1="0" y2="30"/><line opacity="0.2" x1="288.7164149301012" x2="288.7164149301012" y1="0" y2="30"/><line opacity="0.2" x1="260.4339791290681" x2="260.4339791290681" y1="0" y2="30"/><line opacity="0.2" x1="184.4586124153603" x2="184.4586124153603" y1="0" y2="30"/><line opacity="0.2" x1="266.8605933469661" x2="266.8605933469661" y1="0" y2="30"/><line opacity="0.2" x1="166.03052870926172" x2="166.03052870926172" y1="0" y2="30"/><line opacity="0.2" x1="230.68232607170754" x2="230.68232607170754" y1="0" y2="30"/><line opacity="0.2" x1="362.7005400081081" x2="362.7005400081081" y1="0" y2="30"/><line opacity="0.2" x1="347.53731844750143" x2="347.53731844750143" y1="0" y2="30"/><line opacity="0.2" x1="332.45315104360805" x2="332.45315104360805" y1="0" y2="30"/><line opacity="0.2" x1="181.69792990099404" x2="181.69792990099404" y1="0" y2="30"/><line opacity="0.2" x1="307.85198220295564" x2="307.85198220295564" y1="0" y2="30"/><line opacity="0.2" x1="251.29915621471451" x2="251.29915621471451" y1="0" y2="30"/><line opacity="0.2" x1="266.8808689281074" x2="266.8808689281074" y1="0" y2="30"/><line opacity="0.2" x1="313.44038208551643" x2="313.44038208551643" y1="0" y2="30"/><line opacity="0.2" x1="142.81889426623582" x2="142.81889426623582" y1="0" y2="30"/><line opacity="0.2" x1="189.55500896331367" x2="189.55500896331367" y1="0" y2="30"/><line opacity="0.2" x1="199.8623810438528" x2="199.8623810438528" y1="0" y2="30"/><line opacity="0.2" x1="349.86736832290177" x2="349.86736832290177" y1="0" y2="30"/><line opacity="0.2" x1="20" x2="20" y1="0" y2="30"/><line opacity="0.2" x1="442.759849956647" x2="442.759849956647" y1="0" y2="30"/><line opacity="0.2" x1="258.3065745510144" x2="258.3065745510144" y1="0" y2="30"/><line opacity="0.2" x1="340.7810442648696" x2="340.7810442648696" y1="0" y2="30"/><line opacity="0.2" x1="196.91267656882678" x2="196.91267656882678" y1="0" y2="30"/><line opacity="0.2" x1="393.20098362953524" x2="393.20098362953524" y1="0" y2="30"/><line opacity="0.2" x1="241.43771396438095" x2="241.43771396438095" y1="0" y2="30"/><line opacity="0.2" x1="331.4798060434769" x2="331.4798060434769" y1="0" y2="30"/><line opacity="0.2" x1="290.7757797965575" x2="290.7757797965575" y1="0" y2="30"/><line opacity="0.2" x1="176.39154674981805" x2="176.39154674981805" y1="0" y2="30"/><line opacity="0.2" x1="189.00887413892428" x2="189.00887413892428" y1="0" y2="30"/><line opacity="0.2" x1="340.9805419026673" x2="340.9805419026673" y1="0" y2="30"/><line opacity="0.2" x1="213.26325128059298" x2="213.26325128059298" y1="0" y2="30"/><line opacity="0.2" x1="142.58470366543355" x2="142.58470366543355" y1="0" y2="30"/><line opacity="0.2" x1="340.0143234525506" x2="340.0143234525506" y1="0" y2="30"/><line opacity="0.2" x1="349.26063717388485" x2="349.26063717388485" y1="0" y2="30"/><line opacity="0.2" x1="256.1936858734309" x2="256.1936858734309" y1="0" y2="30"/><line opacity="0.2" x1="191.0138985660693" x2="191.0138985660693" y1="0" y2="30"/><line opacity="0.2" x1="318.21341206744046" x2="318.21341206744046" y1="0" y2="30"/><line opacity="0.2" x1="401.1824075123016" x2="401.1824075123016" y1="0" y2="30"/><line opacity="0.2" x1="339.08926474917877" x2="339.08926474917877" y1="0" y2="30"/><line opacity="0.2" x1="150.2248031813588" x2="150.2248031813588" y1="0" y2="30"/><line opacity="0.2" x1="269.50638698436023" x2="269.50638698436023" y1="0" y2="30"/><line opacity="0.2" x1="306.7705394390529" x2="306.7705394390529" y1="0" y2="30"/><line opacity="0.2" x1="463.7950679129949" x2="463.7950679129949" y1="0" y2="30"/><line opacity="0.2" x1="447.2795466818046" x2="447.2795466818046" y1="0" y2="30"/><line opacity="0.2" x1="180.9976542309331" x2="180.9976542309331" y1="0" y2="30"/><line opacity="0.2" x1="449.18375335727256" x2="449.18375335727256" y1="0" y2="30"/><line opacity="0.2" x1="292.26586144832055" x2="292.26586144832055" y1="0" y2="30"/><line opacity="0.2" x1="216.61477858604226" x2="216.61477858604226" y1="0" y2="30"/><line opacity="0.2" x1="287.45039926100645" x2="287.45039926100645" y1="0" y2="30"/><line opacity="0.2" x1="179.38949129704244" x2="179.38949129704244" y1="0" y2="30"/><line opacity="0.2" x1="132.6208637856328" x2="132.6208637856328" y1="0" y2="30"/><line opacity="0.2" x1="322.9891539694403" x2="322.9891539694403" y1="0" y2="30"/><line opacity="0.2" x1="571.7290675343154" x2="571.7290675343154" y1="0" y2="30"/><line opacity="0.2" x1="368.5769668143951" x2="368.5769668143951" y1="0" y2="30"/><line opacity="0.2" x1="293.74784436163253" x2="293.74784436163253" y1="0" y2="30"/><line opacity="0.2" x1="231.5925262759671" x2="231.5925262759671" y1="0" y2="30"/><line opacity="0.2" x1="331.36099322056594" x2="331.36099322056594" y1="0" y2="30"/><line opacity="0.2" x1="257.5153773348161" x2="257.5153773348161" y1="0" y2="30"/><line opacity="0.2" x1="359.05502694479765" x2="359.05502694479765" y1="0" y2="30"/><line opacity="0.2" x1="352.1781436093678" x2="352.1781436093678" y1="0" y2="30"/><line opacity="0.2" x1="437.87743109087495" x2="437.87743109087495" y1="0" y2="30"/><line opacity="0.2" x1="256.38147194039874" x2="256.38147194039874" y1="0" y2="30"/><line opacity="0.2" x1="260.93036692132677" x2="260.93036692132677" y1="0" y2="30"/><line opacity="0.2" x1="308.19111038485323" x2="308.19111038485323" y1="0" y2="30"/><line opacity="0.2" x1="288.9259627492718" x2="288.9259627492718" y1="0" y2="30"/><line opacity="0.2" x1="517.4069960505834" x2="517.4069960505834" y1="0" y2="30"/><line opacity="0.2" x1="319.35758476433494" x2="319.35758476433494" y1="0" y2="30"/><line opacity="0.2" x1="244.05702602897176" x2="244.05702602897176" y1="0" y2="30"/><line opacity="0.2" x1="257.86124142998403" x2="257.86124142998403" y1="0" y2="30"/><line opacity="0.2" x1="344.3652458824467" x2="344.3652458824467" y1="0" y2="30"/><line opacity="0.2" x1="107.86428544606251" x2="107.86428544606251" y1="0" y2="30"/><line opacity="0.2" x1="294.3617474359436" x2="294.3617474359436" y1="0" y2="30"/><line opacity="0.2" x1="262.59829456702573" x2="262.59829456702573" y1="0" y2="30"/><line opacity="0.2" x1="291.26900911731104" x2="291.26900911731104" y1="0" y2="30"/><line opacity="0.2" x1="405.24179058206005" x2="405.24179058206005" y1="0" y2="30"/><line opacity="0.2" x1="547.0278493898109" x2="547.0278493898109" y1="0" y2="30"/><line opacity="0.2" x1="254.18334103977824" x2="254.18334103977824" y1="0" y2="30"/><line opacity="0.2" x1="198.98495638207314" x2="198.98495638207314" y1="0" y2="30"/><line opacity="0.2" x1="394.1163894970346" x2="394.1163894970346" y1="0" y2="30"/><line opacity="0.2" x1="441.7700477014485" x2="441.7700477014485" y1="0" y2="30"/><line opacity="0.2" x1="153.33899800501064" x2="153.33899800501064" y1="0" y2="30"/><line opacity="0.2" x1="424.83986539979287" x2="424.83986539979287" y1="0" y2="30"/><line opacity="0.2" x1="319.7595929076105" x2="319.7595929076105" y1="0" y2="30"/><line opacity="0.2" x1="495.56578434297586" x2="495.56578434297586" y1="0" y2="30"/><line opacity="0.2" x1="306.52385689343333" x2="306.52385689343333" y1="0" y2="30"/><line opacity="0.2" x1="353.5263911570779" x2="353.5263911570779" y1="0" y2="30"/><line opacity="0.2" x1="269.7670080961823" x2="269.7670080961823" y1="0" y2="30"/><line opacity="0.2" x1="207.493500397898" x2="207.493500397898" y1="0" y2="30"/><line opacity="0.2" x1="131.71072373547526" x2="131.71072373547526" y1="0" y2="30"/><line opacity="0.2" x1="295.31603297169096" x2="295.31603297169096" y1="0" y2="30"/><line opacity="0.2" x1="270.9185256143881" x2="270.9185256143881" y1="0" y2="30"/><line opacity="0.2" x1="317.9495676231616" x2="317.9495676231616" y1="0" y2="30"/><line opacity="0.2" x1="173.7524318575252" x2="173.7524318575252" y1="0" y2="30"/><line opacity="0.2" x1="353.6733557382869" x2="353.6733557382869" y1="0" y2="30"/><line opacity="0.2" x1="273.8812900867039" x2="273.8812900867039" y1="0" y2="30"/><line opacity="0.2" x1="388.86748830322483" x2="388.86748830322483" y1="0" y2="30"/><line opacity="0.2" x1="304.5310175594559" x2="304.5310175594559" y1="0" y2="30"/><line opacity="0.2" x1="299.15767932247047" x2="299.15767932247047" y1="0" y2="30"/><line opacity="0.2" x1="265.19464794355014" x2="265.19464794355014" y1="0" y2="30"/><line opacity="0.2" x1="138.9772435084329" x2="138.9772435084329" y1="0" y2="30"/><line opacity="0.2" x1="421.1955329221854" x2="421.1955329221854" y1="0" y2="30"/><line opacity="0.2" x1="237.16625096325023" x2="237.16625096325023" y1="0" y2="30"/><line opacity="0.2" x1="276.668293204749" x2="276.668293204749" y1="0" y2="30"/><line opacity="0.2" x1="155.90043427921216" x2="155.90043427921216" y1="0" y2="30"/><line opacity="0.2" x1="142.99487122663555" x2="142.99487122663555" y1="0" y2="30"/><line opacity="0.2" x1="438.6473793184786" x2="438.6473793184786" y1="0" y2="30"/><line opacity="0.2" x1="297.574819886192" x2="297.574819886192" y1="0" y2="30"/><line opacity="0.2" x1="181.72938177340436" x2="181.72938177340436" y1="0" y2="30"/><line opacity="0.2" x1="348.6227063158564" x2="348.6227063158564" y1="0" y2="30"/><line opacity="0.2" x1="352.68793246924093" x2="352.68793246924093" y1="0" y2="30"/><line opacity="0.2" x1="292.3948080258528" x2="292.3948080258528" y1="0" y2="30"/><line opacity="0.2" x1="230.55282564150798" x2="230.55282564150798" y1="0" y2="30"/><line opacity="0.2" x1="433.44097404087415" x2="433.44097404087415" y1="0" y2="30"/><line opacity="0.2" x1="133.18503084961014" x2="133.18503084961014" y1="0" y2="30"/><line opacity="0.2" x1="152.6071946179911" x2="152.6071946179911" y1="0" y2="30"/><line opacity="0.2" x1="116.18330757950119" x2="116.18330757950119" y1="0" y2="30"/><line opacity="0.2" x1="392.11820925461217" x2="392.11820925461217" y1="0" y2="30"/><line opacity="0.2" x1="318.2618920356438" x2="318.2618920356438" y1="0" y2="30"/><line opacity="0.2" x1="313.12328661108126" x2="313.12328661108126" y1="0" y2="30"/><line opacity="0.2" x1="308.0275574971684" x2="308.0275574971684" y1="0" y2="30"/><line opacity="0.2" x1="233.72787129257148" x2="233.72787129257148" y1="0" y2="30"/><line opacity="0.2" x1="340.9555006081811" x2="340.9555006081811" y1="0" y2="30"/><line opacity="0.2" x1="260.9992761950683" x2="260.9992761950683" y1="0" y2="30"/><line opacity="0.2" x1="392.2371284905576" x2="392.2371284905576" y1="0" y2="30"/><line opacity="0.2" x1="204.0400166525456" x2="204.0400166525456" y1="0" y2="30"/><line opacity="0.2" x1="373.7289978141115" x2="373.7289978141115" y1="0" y2="30"/><line opacity="0.2" x1="248.32400986227714" x2="248.32400986227714" y1="0" y2="30"/><line opacity="0.2" x1="396.261175908131" x2="396.261175908131" y1="0" y2="30"/><line opacity="0.2" x1="244.0408082523858" x2="244.0408082523858" y1="0" y2="30"/><line opacity="0.2" x1="190.19493579942326" x2="190.19493579942326" y1="0" y2="30"/><line opacity="0.2" x1="186.3121236785352" x2="186.3121236785352" y1="0" y2="30"/><line opacity="0.2" x1="176.26584725932983" x2="176.26584725932983" y1="0" y2="30"/><line opacity="0.2" x1="297.21843270552085" x2="297.21843270552085" y1="0" y2="30"/><line opacity="0.2" x1="402.82787663710144" x2="402.82787663710144" y1="0" y2="30"/><line opacity="0.2" x1="434.2735805584124" x2="434.2735805584124" y1="0" y2="30"/><line opacity="0.2" x1="261.8805167211288" x2="261.8805167211288" y1="0" y2="30"/><line opacity="0.2" x1="284.9427992714139" x2="284.9427992714139" y1="0" y2="30"/><line opacity="0.2" x1="392.09931639327107" x2="392.09931639327107" y1="0" y2="30"/><line opacity="0.2" x1="159.24198975635787" x2="159.24198975635787" y1="0" y2="30"/><line opacity="0.2" x1="182.91153277749783" x2="182.91153277749783" y1="0" y2="30"/><line opacity="0.2" x1="465.4379257239259" x2="465.4379257239259" y1="0" y2="30"/><line opacity="0.2" x1="475.23295528954225" x2="475.23295528954225" y1="0" y2="30"/><line opacity="0.2" x1="465.5408354594286" x2="465.5408354594286" y1="0" y2="30"/><line opacity="0.2" x1="273.77435299084704" x2="273.77435299084704" y1="0" y2="30"/><line opacity="0.2" x1="322.7015883430363" x2="322.7015883430363" y1="0" y2="30"/><line opacity="0.2" x1="23.785279085836002" x2="23.785279085836002" y1="0" y2="30"/><line opacity="0.2" x1="54.41652353896847" x2="54.41652353896847" y1="0" y2="30"/><line opacity="0.2" x1="134.75148399430174" x2="134.75148399430174" y1="0" y2="30"/><line opacity="0.2" x1="180.55888762613537" x2="180.55888762613537" y1="0" y2="30"/><line opacity="0.2" x1="295.10504974958866" x2="295.10504974958866" y1="0" y2="30"/><line opacity="0.2" x1="500.8777094607533" x2="500.8777094607533" y1="0" y2="30"/><line opacity="0.2" x1="229.56581601792428" x2="229.56581601792428" y1="0" y2="30"/><line opacity="0.2" x1="284.61526933707904" x2="284.61526933707904" y1="0" y2="30"/><line opacity="0.2" x1="385.70605651551944" x2="385.70605651551944" y1="0" y2="30"/><line opacity="0.2" x1="257.96406586662397" x2="257.96406586662397" y1="0" y2="30"/><line opacity="0.2" x1="222.6650051307465" x2="222.6650051307465" y1="0" y2="30"/><line opacity="0.2" x1="224.59202686565786" x2="224.59202686565786" y1="0" y2="30"/><line opacity="0.2" x1="336.50671090295367" x2="336.50671090295367" y1="0" y2="30"/><line opacity="0.2" x1="148.69960864378393" x2="148.69960864378393" y1="0" y2="30"/><line opacity="0.2" x1="349.04874681585477" x2="349.04874681585477" y1="0" y2="30"/><line opacity="0.2" x1="124.07213158669691" x2="124.07213158669691" y1="0" y2="30"/><line opacity="0.2" x1="408.56834886424883" x2="408.56834886424883" y1="0" y2="30"/><line opacity="0.2" x1="252.10047384139233" x2="252.10047384139233" y1="0" y2="30"/><line opacity="0.2" x1="451.0402187260401" x2="451.0402187260401" y1="0" y2="30"/><line opacity="0.2" x1="386.8951912775246" x2="386.8951912775246" y1="0" y2="30"/><line opacity="0.2" x1="190.61423238045384" x2="190.61423238045384" y1="0" y2="30"/><line opacity="0.2" x1="406.54339575580497" x2="406.54339575580497" y1="0" y2="30"/><line opacity="0.2" x1="282.4606825789173" x2="282.4606825789173" y1="0" y2="30"/><line opacity="0.2" x1="405.4219086825295" x2="405.4219086825295" y1="0" y2="30"/><line opacity="0.2" x1="328.34843494518736" x2="328.34843494518736" y1="0" y2="30"/><line opacity="0.2" x1="352.82194490821905" x2="352.82194490821905" y1="0" y2="30"/><line opacity="0.2" x1="178.2689392124065" x2="178.2689392124065" y1="0" y2="30"/><line opacity="0.2" x1="245.13038136326495" x2="245.13038136326495" y1="0" y2="30"/><line opacity="0.2" x1="257.76831142368303" x2="257.76831142368303" y1="0" y2="30"/><line opacity="0.2" x1="299.2287512199546" x2="299.2287512199546" y1="0" y2="30"/><line opacity="0.2" x1="391.2844696031647" x2="391.2844696031647" y1="0" y2="30"/><line opacity="0.2" x1="345.1442405575895" x2="345.1442405575895" y1="0" y2="30"/><line opacity="0.2" x1="257.2270477016132" x2="257.2270477016132" y1="0" y2="30"/><line opacity="0.2" x1="64.46474325754798" x2="64.46474325754798" y1="0" y2="30"/><line opacity="0.2" x1="370.07413562935534" x2="370.07413562935534" y1="0" y2="30"/><line opacity="0.2" x1="203.05556658707536" x2="203.05556658707536" y1="0" y2="30"/><line opacity="0.2" x1="379.3356503887596" x2="379.3356503887596" y1="0" y2="30"/><line opacity="0.2" x1="215.3308874938342" x2="215.3308874938342" y1="0" y2="30"/><line opacity="0.2" x1="306.5150849309977" x2="306.5150849309977" y1="0" y2="30"/><line opacity="0.2" x1="362.9169155191739" x2="362.9169155191739" y1="0" y2="30"/><line opacity="0.2" x1="313.68594507703875" x2="313.68594507703875" y1="0" y2="30"/><line opacity="0.2" x1="529.4785980650604" x2="529.4785980650604" y1="0" y2="30"/><line opacity="0.2" x1="461.06435681926894" x2="461.06435681926894" y1="0" y2="30"/><line opacity="0.2" x1="301.1446896401856" x2="301.1446896401856" y1="0" y2="30"/><line opacity="0.2" x1="138.30951347773814" x2="138.30951347773814" y1="0" y2="30"/><line opacity="0.2" x1="233.33210386187577" x2="233.33210386187577" y1="0" y2="30"/><line opacity="0.2" x1="272.8248560484036" x2="272.8248560484036" y1="0" y2="30"/><line opacity="0.2" x1="212.34104447313766" x2="212.34104447313766" y1="0" y2="30"/><line opacity="0.2" x1="97.23420858783547" x2="97.23420858783547" y1="0" y2="30"/><line opacity="0.2" x1="319.5136834890483" x2="319.5136834890483" y1="0" y2="30"/><line opacity="0.2" x1="323.3863897565428" x2="323.3863897565428" y1="0" y2="30"/><line opacity="0.2" x1="228.22298338399068" x2="228.22298338399068" y1="0" y2="30"/><line opacity="0.2" x1="406.2947338701882" x2="406.2947338701882" y1="0" y2="30"/><line opacity="0.2" x1="218.16490845382748" x2="218.16490845382748" y1="0" y2="30"/><line opacity="0.2" x1="121.7160633986482" x2="121.7160633986482" y1="0" y2="30"/><line opacity="0.2" x1="371.12652367015903" x2="371.12652367015903" y1="0" y2="30"/><line opacity="0.2" x1="308.0232431271749" x2="308.0232431271749" y1="0" y2="30"/><line opacity="0.2" x1="85.13329624993384" x2="85.13329624993384" y1="0" y2="30"/><line opacity="0.2" x1="397.35314771687763" x2="397.35314771687763" y1="0" y2="30"/><line opacity="0.2" x1="194.15597239259992" x2="194.15597239259992" y1="0" y2="30"/><line opacity="0.2" x1="180.93527707046948" x2="180.93527707046948" y1="0" y2="30"/><line opacity="0.2" x1="333.1666238231842" x2="333.1666238231842" y1="0" y2="30"/><line opacity="0.2" x1="365.1436755791299" x2="365.1436755791299" y1="0" y2="30"/><line opacity="0.2" x1="217.99871681442266" x2="217.99871681442266" y1="0" y2="30"/><line opacity="0.2" x1="487.94976839147625" x2="487.94976839147625" y1="0" y2="30"/><line opacity="0.2" x1="229.084398333121" x2="229.084398333121" y1="0" y2="30"/><line opacity="0.2" x1="221.8270677931802" x2="221.8270677931802" y1="0" y2="30"/><line opacity="0.2" x1="291.4336695886793" x2="291.4336695886793" y1="0" y2="30"/><line opacity="0.2" x1="372.5816893020587" x2="372.5816893020587" y1="0" y2="30"/><line opacity="0.2" x1="402.53173416256664" x2="402.53173416256664" y1="0" y2="30"/><line opacity="0.2" x1="245.24861910991297" x2="245.24861910991297" y1="0" y2="30"/><line opacity="0.2" x1="521.8190532527294" x2="521.8190532527294" y1="0" y2="30"/><line opacity="0.2" x1="292.11415662553526" x2="292.11415662553526" y1="0" y2="30"/><line opacity="0.2" x1="251.38689142007996" x2="251.38689142007996" y1="0" y2="30"/><line opacity="0.2" x1="225.23167864547943" x2="225.23167864547943" y1="0" y2="30"/><line opacity="0.2" x1="256.0164344175759" x2="256.0164344175759" y1="0" y2="30"/><line opacity="0.2" x1="269.040284921644" x2="269.040284921644" y1="0" y2="30"/><line opacity="0.2" x1="273.87655775527327" x2="273.87655775527327" y1="0" y2="30"/><line opacity="0.2" x1="198.33173686268591" x2="198.33173686268591" y1="0" y2="30"/><line opacity="0.2" x1="162.09265548109747" x2="162.09265548109747" y1="0" y2="30"/><line opacity="0.2" x1="261.66505980095087" x2="261.66505980095087" y1="0" y2="30"/><line opacity="0.2" x1="163.58112589644034" x2="163.58112589644034" y1="0" y2="30"/><line opacity="0.2" x1="231.1737463482777" x2="231.1737463482777" y1="0" y2="30"/><line opacity="0.2" x1="206.83204661510976" x2="206.83204661510976" y1="0" y2="30"/><line opacity="0.2" x1="462.4093902671501" x2="462.4093902671501" y1="0" y2="30"/><line opacity="0.2" x1="343.5010855295716" x2="343.5010855295716" y1="0" y2="30"/><line opacity="0.2" x1="276.3490247260582" x2="276.3490247260582" y1="0" y2="30"/><line opacity="0.2" x1="274.04768665796195" x2="274.04768665796195" y1="0" y2="30"/><line opacity="0.2" x1="290.0015541563057" x2="290.0015541563057" y1="0" y2="30"/><line opacity="0.2" x1="180.12451682184363" x2="180.12451682184363" y1="0" y2="30"/><line opacity="0.2" x1="237.55870839481034" x2="237.55870839481034" y1="0" y2="30"/><line opacity="0.2" x1="404.42114325452536" x2="404.42114325452536" y1="0" y2="30"/><line opacity="0.2" x1="404.80955503273344" x2="404.80955503273344" y1="0" y2="30"/><line opacity="0.2" x1="403.15291202209136" x2="403.15291202209136" y1="0" y2="30"/><line opacity="0.2" x1="162.3227557657196" x2="162.3227557657196" y1="0" y2="30"/><line opacity="0.2" x1="233.9583949759716" x2="233.9583949759716" y1="0" y2="30"/><line opacity="0.2" x1="197.9388341359662" x2="197.9388341359662" y1="0" y2="30"/><line opacity="0.2" x1="298.27440510113036" x2="298.27440510113036" y1="0" y2="30"/><line opacity="0.2" x1="345.2571009191141" x2="345.2571009191141" y1="0" y2="30"/><line opacity="0.2" x1="339.5328211711183" x2="339.5328211711183" y1="0" y2="30"/><line opacity="0.2" x1="262.1875137020234" x2="262.1875137020234" y1="0" y2="30"/><line opacity="0.2" x1="437.7603604327355" x2="437.7603604327355" y1="0" y2="30"/><line opacity="0.2" x1="164.57194241962827" x2="164.57194241962827" y1="0" y2="30"/><line opacity="0.2" x1="215.89499610092486" x2="215.89499610092486" y1="0" y2="30"/><line opacity="0.2" x1="339.34872817313544" x2="339.34872817313544" y1="0" y2="30"/><line opacity="0.2" x1="255.85008706632303" x2="255.85008706632303" y1="0" y2="30"/><line opacity="0.2" x1="474.16322320255887" x2="474.16322320255887" y1="0" y2="30"/><line opacity="0.2" x1="374.97573984925486" x2="374.97573984925486" y1="0" y2="30"/><line opacity="0.2" x1="460.0378167677046" x2="460.0378167677046" y1="0" y2="30"/><line opacity="0.2" x1="264.0906181263666" x2="264.0906181263666" y1="0" y2="30"/><line opacity="0.2" x1="388.4747535866918" x2="388.4747535866918" y1="0" y2="30"/><line opacity="0.2" x1="385.77240885328973" x2="385.77240885328973" y1="0" y2="30"/><line opacity="0.2" x1="294.88613585383985" x2="294.88613585383985" y1="0" y2="30"/><line opacity="0.2" x1="406.61708559171944" x2="406.61708559171944" y1="0" y2="30"/><line opacity="0.2" x1="379.25119367990584" x2="379.25119367990584" y1="0" y2="30"/><line opacity="0.2" x1="302.72905103959823" x2="302.72905103959823" y1="0" y2="30"/><line opacity="0.2" x1="127.56662592575884" x2="127.56662592575884" y1="0" y2="30"/><line opacity="0.2" x1="161.50013724622755" x2="161.50013724622755" y1="0" y2="30"/><line opacity="0.2" x1="191.90161252108342" x2="191.90161252108342" y1="0" y2="30"/><line opacity="0.2" x1="492.2635889937663" x2="492.2635889937663" y1="0" y2="30"/><line opacity="0.2" x1="336.81443492776424" x2="336.81443492776424" y1="0" y2="30"/><line opacity="0.2" x1="273.92400037921914" x2="273.92400037921914" y1="0" y2="30"/><line opacity="0.2" x1="350.8582936226724" x2="350.8582936226724" y1="0" y2="30"/><line opacity="0.2" x1="306.10453871650856" x2="306.10453871650856" y1="0" y2="30"/><line opacity="0.2" x1="290.9998110104925" x2="290.9998110104925" y1="0" y2="30"/><line opacity="0.2" x1="310.9624187900816" x2="310.9624187900816" y1="0" y2="30"/><line opacity="0.2" x1="386.3270051571978" x2="386.3270051571978" y1="0" y2="30"/><line opacity="0.2" x1="427.1249883660047" x2="427.1249883660047" y1="0" y2="30"/><line opacity="0.2" x1="443.61410993017284" x2="443.61410993017284" y1="0" y2="30"/><line opacity="0.2" x1="479.2081827091469" x2="479.2081827091469" y1="0" y2="30"/><line opacity="0.2" x1="87.92818156504275" x2="87.92818156504275" y1="0" y2="30"/><line opacity="0.2" x1="362.2235893103254" x2="362.2235893103254" y1="0" y2="30"/><line opacity="0.2" x1="267.97553239494846" x2="267.97553239494846" y1="0" y2="30"/><line opacity="0.2" x1="290.4760783850453" x2="290.4760783850453" y1="0" y2="30"/><line opacity="0.2" x1="310.5675751916756" x2="310.5675751916756" y1="0" y2="30"/><line opacity="0.2" x1="279.91634452994265" x2="279.91634452994265" y1="0" y2="30"/><line opacity="0.2" x1="272.2024017002034" x2="272.2024017002034" y1="0" y2="30"/><line opacity="0.2" x1="417.54416957547704" x2="417.54416957547704" y1="0" y2="30"/><line opacity="0.2" x1="318.3603598043154" x2="318.3603598043154" y1="0" y2="30"/><line opacity="0.2" x1="319.75726750007317" x2="319.75726750007317" y1="0" y2="30"/><line opacity="0.2" x1="130.1082381241261" x2="130.1082381241261" y1="0" y2="30"/><line opacity="0.2" x1="286.68100563806377" x2="286.68100563806377" y1="0" y2="30"/><line opacity="0.2" x1="201.0258996047501" x2="201.0258996047501" y1="0" y2="30"/><line opacity="0.2" x1="505.9894376275444" x2="505.9894376275444" y1="0" y2="30"/><line opacity="0.2" x1="259.7752497912138" x2="259.7752497912138" y1="0" y2="30"/><line opacity="0.2" x1="363.8707819616955" x2="363.8707819616955" y1="0" y2="30"/><line opacity="0.2" x1="206.7221992776011" x2="206.7221992776011" y1="0" y2="30"/><line opacity="0.2" x1="355.10471219562186" x2="355.10471219562186" y1="0" y2="30"/><line opacity="0.2" x1="242.91593838645974" x2="242.91593838645974" y1="0" y2="30"/><line opacity="0.2" x1="296.61478572942843" x2="296.61478572942843" y1="0" y2="30"/><line opacity="0.2" x1="283.7538321481148" x2="283.7538321481148" y1="0" y2="30"/><line opacity="0.2" x1="322.2823193472867" x2="322.2823193472867" y1="0" y2="30"/><line opacity="0.2" x1="277.8871076844247" x2="277.8871076844247" y1="0" y2="30"/><line opacity="0.2" x1="470.9386703075889" x2="470.9386703075889" y1="0" y2="30"/><line opacity="0.2" x1="366.05321956821024" x2="366.05321956821024" y1="0" y2="30"/><line opacity="0.2" x1="299.7635810864905" x2="299.7635810864905" y1="0" y2="30"/><line opacity="0.2" x1="172.30179980366185" x2="172.30179980366185" y1="0" y2="30"/><line opacity="0.2" x1="271.0816585359875" x2="271.0816585359875" y1="0" y2="30"/><line opacity="0.2" x1="272.2550110568278" x2="272.2550110568278" y1="0" y2="30"/><line opacity="0.2" x1="272.4548583510121" x2="272.4548583510121" y1="0" y2="30"/><line opacity="0.2" x1="319.7022008192509" x2="319.7022008192509" y1="0" y2="30"/><line opacity="0.2" x1="312.8028989806978" x2="312.8028989806978" y1="0" y2="30"/><line opacity="0.2" x1="258.30326691238446" x2="258.30326691238446" y1="0" y2="30"/><line opacity="0.2" x1="357.62343440510284" x2="357.62343440510284" y1="0" y2="30"/><line opacity="0.2" x1="305.30481331525584" x2="305.30481331525584" y1="0" y2="30"/><line opacity="0.2" x1="423.25180389001474" x2="423.25180389001474" y1="0" y2="30"/><line opacity="0.2" x1="318.57448130116444" x2="318.57448130116444" y1="0" y2="30"/><line opacity="0.2" x1="227.56384786150218" x2="227.56384786150218" y1="0" y2="30"/><line opacity="0.2" x1="327.302295634526" x2="327.302295634526" y1="0" y2="30"/><line opacity="0.2" x1="281.2855165814552" x2="281.2855165814552" y1="0" y2="30"/><line opacity="0.2" x1="141.95450536076945" x2="141.95450536076945" y1="0" y2="30"/><line opacity="0.2" x1="223.13002969566554" x2="223.13002969566554" y1="0" y2="30"/><line opacity="0.2" x1="383.50608587241" x2="383.50608587241" y1="0" y2="30"/><line opacity="0.2" x1="295.0095005885245" x2="295.0095005885245" y1="0" y2="30"/><line opacity="0.2" x1="275.67844361121695" x2="275.67844361121695" y1="0" y2="30"/><line opacity="0.2" x1="159.46519575823888" x2="159.46519575823888" y1="0" y2="30"/><line opacity="0.2" x1="317.91695251972675" x2="317.91695251972675" y1="0" y2="30"/><line opacity="0.2" x1="327.3779488228162" x2="327.3779488228162" y1="0" y2="30"/><line opacity="0.2" x1="343.5525162212251" x2="343.5525162212251" y1="0" y2="30"/><line opacity="0.2" x1="345.17340981768405" x2="345.17340981768405" y1="0" y2="30"/><line opacity="0.2" x1="317.96230019991873" x2="317.96230019991873" y1="0" y2="30"/><line opacity="0.2" x1="327.5605435282626" x2="327.5605435282626" y1="0" y2="30"/><line opacity="0.2" x1="281.2549084279968" x2="281.2549084279968" y1="0" y2="30"/><line opacity="0.2" x1="303.51476036558984" x2="303.51476036558984" y1="0" y2="30"/><line opacity="0.2" x1="416.1688315017416" x2="416.1688315017416" y1="0" y2="30"/><line opacity="0.2" x1="299.88663065889324" x2="299.88663065889324" y1="0" y2="30"/><line opacity="0.2" x1="162.0730914157698" x2="162.0730914157698" y1="0" y2="30"/><line opacity="0.2" x1="101.0281848512504" x2="101.0281848512504" y1="0" y2="30"/><line opacity="0.2" x1="177.67496828723233" x2="177.67496828723233" y1="0" y2="30"/><line opacity="0.2" x1="353.9266644418439" x2="353.9266644418439" y1="0" y2="30"/><line opacity="0.2" x1="338.02997821476583" x2="338.02997821476583" y1="0" y2="30"/><line opacity="0.2" x1="378.60021731970863" x2="378.60021731970863" y1="0" y2="30"/><line opacity="0.2" x1="291.33547098691156" x2="291.33547098691156" y1="0" y2="30"/><line opacity="0.2" x1="256.1265689442906" x2="256.1265689442906" y1="0" y2="30"/><line opacity="0.2" x1="425.18201606747704" x2="425.18201606747704" y1="0" y2="30"/><line opacity="0.2" x1="362.05024267062197" x2="362.05024267062197" y1="0" y2="30"/><line opacity="0.2" x1="328.74013904849505" x2="328.74013904849505" y1="0" y2="30"/><line opacity="0.2" x1="154.804448785918" x2="154.804448785918" y1="0" y2="30"/><line opacity="0.2" x1="366.11560786847133" x2="366.11560786847133" y1="0" y2="30"/><line opacity="0.2" x1="246.56092136987843" x2="246.56092136987843" y1="0" y2="30"/><line opacity="0.2" x1="314.3135387913695" x2="314.3135387913695" y1="0" y2="30"/><line opacity="0.2" x1="241.42988310647576" x2="241.42988310647576" y1="0" y2="30"/><line opacity="0.2" x1="291.4269377438173" x2="291.4269377438173" y1="0" y2="30"/><line opacity="0.2" x1="530.0414606855327" x2="530.0414606855327" y1="0" y2="30"/><line opacity="0.2" x1="464.7185889815542" x2="464.7185889815542" y1="0" y2="30"/><line opacity="0.2" x1="302.21736028444667" x2="302.21736028444667" y1="0" y2="30"/><line opacity="0.2" x1="208.50198345100588" x2="208.50198345100588" y1="0" y2="30"/><line opacity="0.2" x1="463.03885620431276" x2="463.03885620431276" y1="0" y2="30"/><line opacity="0.2" x1="296.7592820180987" x2="296.7592820180987" y1="0" y2="30"/><line opacity="0.2" x1="391.78404330459097" x2="391.78404330459097" y1="0" y2="30"/><line opacity="0.2" x1="293.21892261251634" x2="293.21892261251634" y1="0" y2="30"/><line opacity="0.2" x1="328.92260639213316" x2="328.92260639213316" y1="0" y2="30"/><line opacity="0.2" x1="333.643480876241" x2="333.643480876241" y1="0" y2="30"/><line opacity="0.2" x1="218.00599882727047" x2="218.00599882727047" y1="0" y2="30"/><line opacity="0.2" x1="307.0355957806016" x2="307.0355957806016" y1="0" y2="30"/><line opacity="0.2" x1="279.02168269161456" x2="279.02168269161456" y1="0" y2="30"/><line opacity="0.2" x1="398.67567779708514" x2="398.67567779708514" y1="0" y2="30"/><line opacity="0.2" x1="311.138988227157" x2="311.138988227157" y1="0" y2="30"/><line opacity="0.2" x1="414.36871557749123" x2="414.36871557749123" y1="0" y2="30"/><line opacity="0.2" x1="283.8290488466527" x2="283.8290488466527" y1="0" y2="30"/><line opacity="0.2" x1="259.1355846431915" x2="259.1355846431915" y1="0" y2="30"/><line opacity="0.2" x1="239.16981277533847" x2="239.16981277533847" y1="0" y2="30"/><line opacity="0.2" x1="442.66252762005075" x2="442.66252762005075" y1="0" y2="30"/><line opacity="0.2" x1="341.5517285842803" x2="341.5517285842803" y1="0" y2="30"/><line opacity="0.2" x1="275.324670999086" x2="275.324670999086" y1="0" y2="30"/><line opacity="0.2" x1="531.3030104956711" x2="531.3030104956711" y1="0" y2="30"/><line opacity="0.2" x1="437.80798336201383" x2="437.80798336201383" y1="0" y2="30"/><line opacity="0.2" x1="174.66905644203658" x2="174.66905644203658" y1="0" y2="30"/><line opacity="0.2" x1="329.1435071783075" x2="329.1435071783075" y1="0" y2="30"/><line opacity="0.2" x1="268.99541387186537" x2="268.99541387186537" y1="0" y2="30"/><line opacity="0.2" x1="428.11152989395583" x2="428.11152989395583" y1="0" y2="30"/><line opacity="0.2" x1="229.44885745673886" x2="229.44885745673886" y1="0" y2="30"/><line opacity="0.2" x1="205.45491829676018" x2="205.45491829676018" y1="0" y2="30"/><line opacity="0.2" x1="282.23294533924224" x2="282.23294533924224" y1="0" y2="30"/><line opacity="0.2" x1="276.8093651187033" x2="276.8093651187033" y1="0" y2="30"/><line opacity="0.2" x1="239.56335441021025" x2="239.56335441021025" y1="0" y2="30"/><line opacity="0.2" x1="267.11972994299896" x2="267.11972994299896" y1="0" y2="30"/><line opacity="0.2" x1="228.4997955115332" x2="228.4997955115332" y1="0" y2="30"/><line opacity="0.2" x1="283.13218189739956" x2="283.13218189739956" y1="0" y2="30"/><line opacity="0.2" x1="228.1637913972494" x2="228.1637913972494" y1="0" y2="30"/><line opacity="0.2" x1="284.8697878986866" x2="284.8697878986866" y1="0" y2="30"/><line opacity="0.2" x1="307.42305535651406" x2="307.42305535651406" y1="0" y2="30"/><line opacity="0.2" x1="327.75240476421504" x2="327.75240476421504" y1="0" y2="30"/><line opacity="0.2" x1="457.1377583651682" x2="457.1377583651682" y1="0" y2="30"/><line opacity="0.2" x1="221.8554182134444" x2="221.8554182134444" y1="0" y2="30"/><line opacity="0.2" x1="270.4982912537237" x2="270.4982912537237" y1="0" y2="30"/><line opacity="0.2" x1="332.3858217215656" x2="332.3858217215656" y1="0" y2="30"/><line opacity="0.2" x1="296.43125014999896" x2="296.43125014999896" y1="0" y2="30"/><line opacity="0.2" x1="229.93359865659627" x2="229.93359865659627" y1="0" y2="30"/><line opacity="0.2" x1="336.78984517272187" x2="336.78984517272187" y1="0" y2="30"/><line opacity="0.2" x1="190.87610435088473" x2="190.87610435088473" y1="0" y2="30"/><line opacity="0.2" x1="304.4953800651755" x2="304.4953800651755" y1="0" y2="30"/><line opacity="0.2" x1="269.3234006002585" x2="269.3234006002585" y1="0" y2="30"/><line opacity="0.2" x1="265.42742355275465" x2="265.42742355275465" y1="0" y2="30"/><line opacity="0.2" x1="202.9833474564434" x2="202.9833474564434" y1="0" y2="30"/><line opacity="0.2" x1="362.16403751349117" x2="362.16403751349117" y1="0" y2="30"/><line opacity="0.2" x1="284.88167597462467" x2="284.88167597462467" y1="0" y2="30"/><line opacity="0.2" x1="275.17836028611333" x2="275.17836028611333" y1="0" y2="30"/><line opacity="0.2" x1="153.91808809449722" x2="153.91808809449722" y1="0" y2="30"/><line opacity="0.2" x1="348.6296651846505" x2="348.6296651846505" y1="0" y2="30"/><line opacity="0.2" x1="267.7881102416351" x2="267.7881102416351" y1="0" y2="30"/><line opacity="0.2" x1="198.7886822658168" x2="198.7886822658168" y1="0" y2="30"/><line opacity="0.2" x1="440.9242635669898" x2="440.9242635669898" y1="0" y2="30"/><line opacity="0.2" x1="249.89024086570484" x2="249.89024086570484" y1="0" y2="30"/><line opacity="0.2" x1="198.51762119267377" x2="198.51762119267377" y1="0" y2="30"/><line opacity="0.2" x1="462.5849691360532" x2="462.5849691360532" y1="0" y2="30"/><line opacity="0.2" x1="299.8300332864738" x2="299.8300332864738" y1="0" y2="30"/><line opacity="0.2" x1="413.4300875152734" x2="413.4300875152734" y1="0" y2="30"/><line opacity="0.2" x1="396.4553770888839" x2="396.4553770888839" y1="0" y2="30"/><line opacity="0.2" x1="261.9322394252141" x2="261.9322394252141" y1="0" y2="30"/><line opacity="0.2" x1="218.5695367809089" x2="218.5695367809089" y1="0" y2="30"/><line opacity="0.2" x1="389.2123223856205" x2="389.2123223856205" y1="0" y2="30"/><line opacity="0.2" x1="246.45612133306895" x2="246.45612133306895" y1="0" y2="30"/><line opacity="0.2" x1="304.38554694509133" x2="304.38554694509133" y1="0" y2="30"/><line opacity="0.2" x1="321.28247244213804" x2="321.28247244213804" y1="0" y2="30"/><line opacity="0.2" x1="128.13797464609328" x2="128.13797464609328" y1="0" y2="30"/><line opacity="0.2" x1="144.84476262215492" x2="144.84476262215492" y1="0" y2="30"/><line opacity="0.2" x1="222.18399632280295" x2="222.18399632280295" y1="0" y2="30"/><line opacity="0.2" x1="287.2798741378063" x2="287.2798741378063" y1="0" y2="30"/><line opacity="0.2" x1="400.08804600875555" x2="400.08804600875555" y1="0" y2="30"/><line opacity="0.2" x1="290.3420427179573" x2="290.3420427179573" y1="0" y2="30"/><line opacity="0.2" x1="272.2660918558274" x2="272.2660918558274" y1="0" y2="30"/><line opacity="0.2" x1="290.5649953579269" x2="290.5649953579269" y1="0" y2="30"/><line opacity="0.2" x1="264.7035059435553" x2="264.7035059435553" y1="0" y2="30"/><line opacity="0.2" x1="328.9874692575918" x2="328.9874692575918" y1="0" y2="30"/><line opacity="0.2" x1="320.9612860852353" x2="320.9612860852353" y1="0" y2="30"/><line opacity="0.2" x1="244.489273750529" x2="244.489273750529" y1="0" y2="30"/><line opacity="0.2" x1="81.58456991900283" x2="81.58456991900283" y1="0" y2="30"/><line opacity="0.2" x1="278.41850906786027" x2="278.41850906786027" y1="0" y2="30"/><line opacity="0.2" x1="314.2067010529885" x2="314.2067010529885" y1="0" y2="30"/><line opacity="0.2" x1="394.1718000884926" x2="394.1718000884926" y1="0" y2="30"/><line opacity="0.2" x1="432.22313733488005" x2="432.22313733488005" y1="0" y2="30"/><line opacity="0.2" x1="121.04247806441182" x2="121.04247806441182" y1="0" y2="30"/><line opacity="0.2" x1="356.5631690914584" x2="356.5631690914584" y1="0" y2="30"/><line opacity="0.2" x1="263.70491041577174" x2="263.70491041577174" y1="0" y2="30"/><line opacity="0.2" x1="403.39720139588735" x2="403.39720139588735" y1="0" y2="30"/><line opacity="0.2" x1="245.0261911772839" x2="245.0261911772839" y1="0" y2="30"/><line opacity="0.2" x1="269.36193241154217" x2="269.36193241154217" y1="0" y2="30"/><line opacity="0.2" x1="376.4467462205151" x2="376.4467462205151" y1="0" y2="30"/><line opacity="0.2" x1="463.9912950137203" x2="463.9912950137203" y1="0" y2="30"/><line opacity="0.2" x1="421.7049111765478" x2="421.7049111765478" y1="0" y2="30"/><line opacity="0.2" x1="278.83209201357596" x2="278.83209201357596" y1="0" y2="30"/><line opacity="0.2" x1="328.47413805249334" x2="328.47413805249334" y1="0" y2="30"/><line opacity="0.2" x1="366.19350600328113" x2="366.19350600328113" y1="0" y2="30"/><line opacity="0.2" x1="283.4466820195062" x2="283.4466820195062" y1="0" y2="30"/><line opacity="0.2" x1="204.84851671339817" x2="204.84851671339817" y1="0" y2="30"/><line opacity="0.2" x1="447.26798191954833" x2="447.26798191954833" y1="0" y2="30"/><line opacity="0.2" x1="273.02543412931334" x2="273.02543412931334" y1="0" y2="30"/><line opacity="0.2" x1="205.25615024903297" x2="205.25615024903297" y1="0" y2="30"/><line opacity="0.2" x1="365.1673526285292" x2="365.1673526285292" y1="0" y2="30"/><line opacity="0.2" x1="349.4803283974218" x2="349.4803283974218" y1="0" y2="30"/><line opacity="0.2" x1="210.06752702570142" x2="210.06752702570142" y1="0" y2="30"/><line opacity="0.2" x1="216.85548704197544" x2="216.85548704197544" y1="0" y2="30"/><line opacity="0.2" x1="363.7588252656696" x2="363.7588252656696" y1="0" y2="30"/><line opacity="0.2" x1="227.18048843597748" x2="227.18048843597748" y1="0" y2="30"/><line opacity="0.2" x1="333.6081829097075" x2="333.6081829097075" y1="0" y2="30"/><line opacity="0.2" x1="375.45787587849316" x2="375.45787587849316" y1="0" y2="30"/><line opacity="0.2" x1="333.9737049724737" x2="333.9737049724737" y1="0" y2="30"/><line opacity="0.2" x1="306.0351044446553" x2="306.0351044446553" y1="0" y2="30"/><line opacity="0.2" x1="511.9172721137693" x2="511.9172721137693" y1="0" y2="30"/><line opacity="0.2" x1="331.0877169975434" x2="331.0877169975434" y1="0" y2="30"/><line opacity="0.2" x1="437.1330192057543" x2="437.1330192057543" y1="0" y2="30"/><line opacity="0.2" x1="189.3400833817381" x2="189.3400833817381" y1="0" y2="30"/><line opacity="0.2" x1="438.5014810269135" x2="438.5014810269135" y1="0" y2="30"/><line opacity="0.2" x1="287.90871115296494" x2="287.90871115296494" y1="0" y2="30"/><line opacity="0.2" x1="375.7180667834023" x2="375.7180667834023" y1="0" y2="30"/><line opacity="0.2" x1="137.44602127688148" x2="137.44602127688148" y1="0" y2="30"/><line opacity="0.2" x1="258.79778286310034" x2="258.79778286310034" y1="0" y2="30"/><line opacity="0.2" x1="262.29570804886714" x2="262.29570804886714" y1="0" y2="30"/><line opacity="0.2" x1="433.5477221462611" x2="433.5477221462611" y1="0" y2="30"/><line opacity="0.2" x1="367.8178677481322" x2="367.8178677481322" y1="0" y2="30"/><line opacity="0.2" x1="320.8494308797499" x2="320.8494308797499" y1="0" y2="30"/><line opacity="0.2" x1="322.15752422607227" x2="322.15752422607227" y1="0" y2="30"/><line opacity="0.2" x1="376.3332703041572" x2="376.3332703041572" y1="0" y2="30"/><line opacity="0.2" x1="382.29135322867864" x2="382.29135322867864" y1="0" y2="30"/><line opacity="0.2" x1="483.89536255563615" x2="483.89536255563615" y1="0" y2="30"/><line opacity="0.2" x1="216.0365122423608" x2="216.0365122423608" y1="0" y2="30"/><line opacity="0.2" x1="139.3086819983423" x2="139.3086819983423" y1="0" y2="30"/><line opacity="0.2" x1="339.0160448834068" x2="339.0160448834068" y1="0" y2="30"/><line opacity="0.2" x1="145.0254659209785" x2="145.0254659209785" y1="0" y2="30"/><line opacity="0.2" x1="43.651201665620434" x2="43.651201665620434" y1="0" y2="30"/><line opacity="0.2" x1="288.876461720176" x2="288.876461720176" y1="0" y2="30"/><line opacity="0.2" x1="173.53454403892485" x2="173.53454403892485" y1="0" y2="30"/><line opacity="0.2" x1="430.9868534368212" x2="430.9868534368212" y1="0" y2="30"/><line opacity="0.2" x1="404.85183129181536" x2="404.85183129181536" y1="0" y2="30"/><line opacity="0.2" x1="318.24145342311516" x2="318.24145342311516" y1="0" y2="30"/><line opacity="0.2" x1="265.7303543209371" x2="265.7303543209371" y1="0" y2="30"/><line opacity="0.2" x1="332.3888552210803" x2="332.3888552210803" y1="0" y2="30"/><line opacity="0.2" x1="398.8715708458951" x2="398.8715708458951" y1="0" y2="30"/><line opacity="0.2" x1="360.63835982122436" x2="360.63835982122436" y1="0" y2="30"/><line opacity="0.2" x1="314.8835812961677" x2="314.8835812961677" y1="0" y2="30"/><line opacity="0.2" x1="212.62585428434267" x2="212.62585428434267" y1="0" y2="30"/><line opacity="0.2" x1="305.98786584675156" x2="305.98786584675156" y1="0" y2="30"/><line opacity="0.2" x1="428.2841274379755" x2="428.2841274379755" y1="0" y2="30"/><line opacity="0.2" x1="343.45224808863605" x2="343.45224808863605" y1="0" y2="30"/><line opacity="0.2" x1="314.2567116589346" x2="314.2567116589346" y1="0" y2="30"/><line opacity="0.2" x1="348.4444184163305" x2="348.4444184163305" y1="0" y2="30"/><line opacity="0.2" x1="365.06568891482095" x2="365.06568891482095" y1="0" y2="30"/><line opacity="0.2" x1="363.6387471730545" x2="363.6387471730545" y1="0" y2="30"/><line opacity="0.2" x1="244.4260716005871" x2="244.4260716005871" y1="0" y2="30"/><line opacity="0.2" x1="372.7634061973851" x2="372.7634061973851" y1="0" y2="30"/><line opacity="0.2" x1="278.56846076724696" x2="278.56846076724696" y1="0" y2="30"/><line opacity="0.2" x1="259.11436980798504" x2="259.11436980798504" y1="0" y2="30"/><line opacity="0.2" x1="210.18802380689064" x2="210.18802380689064" y1="0" y2="30"/><line opacity="0.2" x1="391.8814664853898" x2="391.8814664853898" y1="0" y2="30"/><line opacity="0.2" x1="416.50367565039755" x2="416.50367565039755" y1="0" y2="30"/><line opacity="0.2" x1="256.6845090009405" x2="256.6845090009405" y1="0" y2="30"/><line opacity="0.2" x1="324.01056404217564" x2="324.01056404217564" y1="0" y2="30"/><line opacity="0.2" x1="222.52386357002294" x2="222.52386357002294" y1="0" y2="30"/><line opacity="0.2" x1="416.22309414418083" x2="416.22309414418083" y1="0" y2="30"/><line opacity="0.2" x1="377.54183216411434" x2="377.54183216411434" y1="0" y2="30"/><line opacity="0.2" x1="334.71499049661725" x2="334.71499049661725" y1="0" y2="30"/><line opacity="0.2" x1="235.65219428674902" x2="235.65219428674902" y1="0" y2="30"/><line opacity="0.2" x1="258.450942434136" x2="258.450942434136" y1="0" y2="30"/><line opacity="0.2" x1="250.0468568262072" x2="250.0468568262072" y1="0" y2="30"/><line opacity="0.2" x1="305.27201969725024" x2="305.27201969725024" y1="0" y2="30"/><line opacity="0.2" x1="252.16695794498634" x2="252.16695794498634" y1="0" y2="30"/><line opacity="0.2" x1="377.8345382710903" x2="377.8345382710903" y1="0" y2="30"/><line opacity="0.2" x1="304.43825422352484" x2="304.43825422352484" y1="0" y2="30"/><line opacity="0.2" x1="354.16800555992955" x2="354.16800555992955" y1="0" y2="30"/><line opacity="0.2" x1="176.84264664782557" x2="176.84264664782557" y1="0" y2="30"/><line opacity="0.2" x1="441.3338220712375" x2="441.3338220712375" y1="0" y2="30"/><line opacity="0.2" x1="357.7882321338489" x2="357.7882321338489" y1="0" y2="30"/><line opacity="0.2" x1="404.73432991554256" x2="404.73432991554256" y1="0" y2="30"/><line opacity="0.2" x1="341.9214298847337" x2="341.9214298847337" y1="0" y2="30"/><line opacity="0.2" x1="294.6382846095954" x2="294.6382846095954" y1="0" y2="30"/><line opacity="0.2" x1="381.2161421071725" x2="381.2161421071725" y1="0" y2="30"/><line opacity="0.2" x1="228.52418477700792" x2="228.52418477700792" y1="0" y2="30"/><line opacity="0.2" x1="328.8278567091256" x2="328.8278567091256" y1="0" y2="30"/><line opacity="0.2" x1="316.7054101090473" x2="316.7054101090473" y1="0" y2="30"/><line opacity="0.2" x1="201.30634745132127" x2="201.30634745132127" y1="0" y2="30"/><line opacity="0.2" x1="347.66387550594266" x2="347.66387550594266" y1="0" y2="30"/><line opacity="0.2" x1="145.30994401959367" x2="145.30994401959367" y1="0" y2="30"/><line opacity="0.2" x1="283.28191936573296" x2="283.28191936573296" y1="0" y2="30"/><line opacity="0.2" x1="387.4696190778738" x2="387.4696190778738" y1="0" y2="30"/><line opacity="0.2" x1="140.5502561361129" x2="140.5502561361129" y1="0" y2="30"/><line opacity="0.2" x1="384.58403963700925" x2="384.58403963700925" y1="0" y2="30"/><line opacity="0.2" x1="479.9145291061631" x2="479.9145291061631" y1="0" y2="30"/><line opacity="0.2" x1="269.9245750064149" x2="269.9245750064149" y1="0" y2="30"/><line opacity="0.2" x1="317.7228309425234" x2="317.7228309425234" y1="0" y2="30"/><line opacity="0.2" x1="417.6575109069416" x2="417.6575109069416" y1="0" y2="30"/><line opacity="0.2" x1="442.82709007794455" x2="442.82709007794455" y1="0" y2="30"/><line opacity="0.2" x1="221.3671761860325" x2="221.3671761860325" y1="0" y2="30"/><line opacity="0.2" x1="202.99686439819754" x2="202.99686439819754" y1="0" y2="30"/><line opacity="0.2" x1="317.06249558815074" x2="317.06249558815074" y1="0" y2="30"/><line opacity="0.2" x1="279.4076196311931" x2="279.4076196311931" y1="0" y2="30"/><line opacity="0.2" x1="295.0094355200383" x2="295.0094355200383" y1="0" y2="30"/><line opacity="0.2" x1="122.365104022992" x2="122.365104022992" y1="0" y2="30"/><line opacity="0.2" x1="334.2312255947912" x2="334.2312255947912" y1="0" y2="30"/><line opacity="0.2" x1="245.9898582709694" x2="245.9898582709694" y1="0" y2="30"/><line opacity="0.2" x1="269.7094795270379" x2="269.7094795270379" y1="0" y2="30"/><line opacity="0.2" x1="342.4427758187946" x2="342.4427758187946" y1="0" y2="30"/><line opacity="0.2" x1="446.33516926880935" x2="446.33516926880935" y1="0" y2="30"/><line opacity="0.2" x1="439.37219012120124" x2="439.37219012120124" y1="0" y2="30"/><line opacity="0.2" x1="207.12198922952183" x2="207.12198922952183" y1="0" y2="30"/><line opacity="0.2" x1="379.9422654690124" x2="379.9422654690124" y1="0" y2="30"/><line opacity="0.2" x1="333.53715251317396" x2="333.53715251317396" y1="0" y2="30"/><line opacity="0.2" x1="421.51845768720915" x2="421.51845768720915" y1="0" y2="30"/><line opacity="0.2" x1="328.4898520237552" x2="328.4898520237552" y1="0" y2="30"/><line opacity="0.2" x1="418.7491604395466" x2="418.7491604395466" y1="0" y2="30"/><line opacity="0.2" x1="456.37386779308105" x2="456.37386779308105" y1="0" y2="30"/><line opacity="0.2" x1="157.59108382468364" x2="157.59108382468364" y1="0" y2="30"/><line opacity="0.2" x1="187.09104464096674" x2="187.09104464096674" y1="0" y2="30"/><line opacity="0.2" x1="197.0387502009288" x2="197.0387502009288" y1="0" y2="30"/><line opacity="0.2" x1="159.89342602906888" x2="159.89342602906888" y1="0" y2="30"/><line opacity="0.2" x1="225.1052177890164" x2="225.1052177890164" y1="0" y2="30"/><line opacity="0.2" x1="361.22793255226446" x2="361.22793255226446" y1="0" y2="30"/><line opacity="0.2" x1="208.48016126801002" x2="208.48016126801002" y1="0" y2="30"/><line opacity="0.2" x1="204.02423242195485" x2="204.02423242195485" y1="0" y2="30"/><line opacity="0.2" x1="386.95873419985" x2="386.95873419985" y1="0" y2="30"/><line opacity="0.2" x1="300.3976157746853" x2="300.3976157746853" y1="0" y2="30"/><line opacity="0.2" x1="326.6296969996481" x2="326.6296969996481" y1="0" y2="30"/><line opacity="0.2" x1="186.19881710934422" x2="186.19881710934422" y1="0" y2="30"/><line opacity="0.2" x1="259.8412855427436" x2="259.8412855427436" y1="0" y2="30"/><line opacity="0.2" x1="453.274584443156" x2="453.274584443156" y1="0" y2="30"/><line opacity="0.2" x1="223.83387128896385" x2="223.83387128896385" y1="0" y2="30"/><line opacity="0.2" x1="432.11254255684145" x2="432.11254255684145" y1="0" y2="30"/><line opacity="0.2" x1="286.21333886200324" x2="286.21333886200324" y1="0" y2="30"/><line opacity="0.2" x1="360.5822178335207" x2="360.5822178335207" y1="0" y2="30"/><line opacity="0.2" x1="385.20766410293203" x2="385.20766410293203" y1="0" y2="30"/><line opacity="0.2" x1="343.7150321180101" x2="343.7150321180101" y1="0" y2="30"/><line opacity="0.2" x1="105.3570199729426" x2="105.3570199729426" y1="0" y2="30"/><line opacity="0.2" x1="313.333297384041" x2="313.333297384041" y1="0" y2="30"/><line opacity="0.2" x1="368.6499507569938" x2="368.6499507569938" y1="0" y2="30"/><line opacity="0.2" x1="347.3208081472748" x2="347.3208081472748" y1="0" y2="30"/><line opacity="0.2" x1="292.27065873445963" x2="292.27065873445963" y1="0" y2="30"/><line opacity="0.2" x1="139.2653183161491" x2="139.2653183161491" y1="0" y2="30"/><line opacity="0.2" x1="341.80509985663315" x2="341.80509985663315" y1="0" y2="30"/><line opacity="0.2" x1="378.19633638306476" x2="378.19633638306476" y1="0" y2="30"/><line opacity="0.2" x1="308.5879494781593" x2="308.5879494781593" y1="0" y2="30"/><line opacity="0.2" x1="418.30899369492215" x2="418.30899369492215" y1="0" y2="30"/><line opacity="0.2" x1="409.00829052017065" x2="409.00829052017065" y1="0" y2="30"/><line opacity="0.2" x1="367.8862561293742" x2="367.8862561293742" y1="0" y2="30"/><line opacity="0.2" x1="420.4323688196192" x2="420.4323688196192" y1="0" y2="30"/><line opacity="0.2" x1="404.5590357014775" x2="404.5590357014775" y1="0" y2="30"/><line opacity="0.2" x1="286.2690337847295" x2="286.2690337847295" y1="0" y2="30"/><line opacity="0.2" x1="182.13784667309974" x2="182.13784667309974" y1="0" y2="30"/><line opacity="0.2" x1="190.2147389144766" x2="190.2147389144766" y1="0" y2="30"/><line opacity="0.2" x1="337.7609435264192" x2="337.7609435264192" y1="0" y2="30"/><line opacity="0.2" x1="311.80222961577067" x2="311.80222961577067" y1="0" y2="30"/><line opacity="0.2" x1="177.25021171994155" x2="177.25021171994155" y1="0" y2="30"/><line opacity="0.2" x1="284.1254920041055" x2="284.1254920041055" y1="0" y2="30"/><line opacity="0.2" x1="327.3221458560958" x2="327.3221458560958" y1="0" y2="30"/><line opacity="0.2" x1="570.637984420175" x2="570.637984420175" y1="0" y2="30"/><line opacity="0.2" x1="519.4342541221981" x2="519.4342541221981" y1="0" y2="30"/><line opacity="0.2" x1="235.45499753538294" x2="235.45499753538294" y1="0" y2="30"/><line opacity="0.2" x1="270.75798981493114" x2="270.75798981493114" y1="0" y2="30"/><line opacity="0.2" x1="318.4047685132267" x2="318.4047685132267" y1="0" y2="30"/><line opacity="0.2" x1="200.30031186404042" x2="200.30031186404042" y1="0" y2="30"/><line opacity="0.2" x1="316.80537084130333" x2="316.80537084130333" y1="0" y2="30"/><line opacity="0.2" x1="241.62524994539152" x2="241.62524994539152" y1="0" y2="30"/><line opacity="0.2" x1="363.89179804254667" x2="363.89179804254667" y1="0" y2="30"/><line opacity="0.2" x1="255.54665699171028" x2="255.54665699171028" y1="0" y2="30"/><line opacity="0.2" x1="216.00356781417597" x2="216.00356781417597" y1="0" y2="30"/><line opacity="0.2" x1="327.219484946009" x2="327.219484946009" y1="0" y2="30"/><line opacity="0.2" x1="376.42597591470627" x2="376.42597591470627" y1="0" y2="30"/><line opacity="0.2" x1="304.7840876548234" x2="304.7840876548234" y1="0" y2="30"/><line opacity="0.2" x1="374.67984686043064" x2="374.67984686043064" y1="0" y2="30"/><line opacity="0.2" x1="315.9937856374363" x2="315.9937856374363" y1="0" y2="30"/><line opacity="0.2" x1="234.61886303023508" x2="234.61886303023508" y1="0" y2="30"/><line opacity="0.2" x1="424.54557840894415" x2="424.54557840894415" y1="0" y2="30"/><line opacity="0.2" x1="241.1201205160061" x2="241.1201205160061" y1="0" y2="30"/><line opacity="0.2" x1="359.1745946761485" x2="359.1745946761485" y1="0" y2="30"/><line opacity="0.2" x1="243.63104636651957" x2="243.63104636651957" y1="0" y2="30"/><line opacity="0.2" x1="289.4484881944716" x2="289.4484881944716" y1="0" y2="30"/><line opacity="0.2" x1="274.57033276555677" x2="274.57033276555677" y1="0" y2="30"/><line opacity="0.2" x1="162.25201649460567" x2="162.25201649460567" y1="0" y2="30"/><line opacity="0.2" x1="347.5114101022209" x2="347.5114101022209" y1="0" y2="30"/><line opacity="0.2" x1="276.07301725351454" x2="276.07301725351454" y1="0" y2="30"/><line opacity="0.2" x1="383.8418929887053" x2="383.8418929887053" y1="0" y2="30"/><line opacity="0.2" x1="308.77856068172844" x2="308.77856068172844" y1="0" y2="30"/><line opacity="0.2" x1="375.6521606696444" x2="375.6521606696444" y1="0" y2="30"/><line opacity="0.2" x1="273.31725723400234" x2="273.31725723400234" y1="0" y2="30"/><line opacity="0.2" x1="319.7074272378025" x2="319.7074272378025" y1="0" y2="30"/><line opacity="0.2" x1="302.71766172238597" x2="302.71766172238597" y1="0" y2="30"/><line opacity="0.2" x1="181.74405148771996" x2="181.74405148771996" y1="0" y2="30"/><line opacity="0.2" x1="427.70919373120427" x2="427.70919373120427" y1="0" y2="30"/><line opacity="0.2" x1="307.22779741605797" x2="307.22779741605797" y1="0" y2="30"/><line opacity="0.2" x1="249.93413580962854" x2="249.93413580962854" y1="0" y2="30"/><line opacity="0.2" x1="328.16959863408556" x2="328.16959863408556" y1="0" y2="30"/><line opacity="0.2" x1="620" x2="620" y1="0" y2="30"/><line opacity="0.2" x1="127.67616224521691" x2="127.67616224521691" y1="0" y2="30"/><line opacity="0.2" x1="298.3134417494437" x2="298.3134417494437" y1="0" y2="30"/><line opacity="0.2" x1="232.2163375470557" x2="232.2163375470557" y1="0" y2="30"/><line opacity="0.2" x1="439.0225217216501" x2="439.0225217216501" y1="0" y2="30"/><line opacity="0.2" x1="345.0547670980263" x2="345.0547670980263" y1="0" y2="30"/><line opacity="0.2" x1="381.08106193646034" x2="381.08106193646034" y1="0" y2="30"/><line opacity="0.2" x1="511.27821742427494" x2="511.27821742427494" y1="0" y2="30"/><line opacity="0.2" x1="347.3791186603669" x2="347.3791186603669" y1="0" y2="30"/><line opacity="0.2" x1="469.6871717926918" x2="469.6871717926918" y1="0" y2="30"/><line opacity="0.2" x1="344.2808110109917" x2="344.2808110109917" y1="0" y2="30"/><line opacity="0.2" x1="325.0309540119018" x2="325.0309540119018" y1="0" y2="30"/><line opacity="0.2" x1="286.19213828524624" x2="286.19213828524624" y1="0" y2="30"/><line opacity="0.2" x1="328.4966311796102" x2="328.4966311796102" y1="0" y2="30"/><line opacity="0.2" x1="200.05293688969792" x2="200.05293688969792" y1="0" y2="30"/><line opacity="0.2" x1="257.81472453516227" x2="257.81472453516227" y1="0" y2="30"/><line opacity="0.2" x1="185.62894092167346" x2="185.62894092167346" y1="0" y2="30"/><line opacity="0.2" x1="386.4689760294372" x2="386.4689760294372" y1="0" y2="30"/><line opacity="0.2" x1="340.8459562402797" x2="340.8459562402797" y1="0" y2="30"/><line opacity="0.2" x1="318.9846978272309" x2="318.9846978272309" y1="0" y2="30"/><line opacity="0.2" x1="286.1647882469999" x2="286.1647882469999" y1="0" y2="30"/><line opacity="0.2" x1="329.67877128714713" x2="329.67877128714713" y1="0" y2="30"/><line opacity="0.2" x1="433.66834297384077" x2="433.66834297384077" y1="0" y2="30"/><line opacity="0.2" x1="431.0336527706616" x2="431.0336527706616" y1="0" y2="30"/><line opacity="0.2" x1="326.3931506827014" x2="326.3931506827014" y1="0" y2="30"/><line opacity="0.2" x1="185.6391178412198" x2="185.6391178412198" y1="0" y2="30"/><line opacity="0.2" x1="220.4394254874874" x2="220.4394254874874" y1="0" y2="30"/><line opacity="0.2" x1="197.91788325903568" x2="197.91788325903568" y1="0" y2="30"/><line opacity="0.2" x1="163.41683271510092" x2="163.41683271510092" y1="0" y2="30"/><line opacity="0.2" x1="271.7048595289549" x2="271.7048595289549" y1="0" y2="30"/><line opacity="0.2" x1="336.1436874992425" x2="336.1436874992425" y1="0" y2="30"/><line opacity="0.2" x1="273.39579347029996" x2="273.39579347029996" y1="0" y2="30"/><line opacity="0.2" x1="187.2460943381621" x2="187.2460943381621" y1="0" y2="30"/><line opacity="0.2" x1="464.0676083142024" x2="464.0676083142024" y1="0" y2="30"/><line opacity="0.2" x1="473.5715998730725" x2="473.5715998730725" y1="0" y2="30"/><line opacity="0.2" x1="244.25977706906875" x2="244.25977706906875" y1="0" y2="30"/><line opacity="0.2" x1="266.1147454106268" x2="266.1147454106268" y1="0" y2="30"/><line opacity="0.2" x1="227.3569334291889" x2="227.3569334291889" y1="0" y2="30"/><line opacity="0.2" x1="557.4604159551692" x2="557.4604159551692" y1="0" y2="30"/><line opacity="0.2" x1="275.19117904793274" x2="275.19117904793274" y1="0" y2="30"/><line opacity="0.2" x1="270.09078137121054" x2="270.09078137121054" y1="0" y2="30"/><line opacity="0.2" x1="230.07527033333795" x2="230.07527033333795" y1="0" y2="30"/><line opacity="0.2" x1="180.912370436284" x2="180.912370436284" y1="0" y2="30"/><line opacity="0.2" x1="318.51939643149404" x2="318.51939643149404" y1="0" y2="30"/><line opacity="0.2" x1="343.2090872811065" x2="343.2090872811065" y1="0" y2="30"/><line opacity="0.2" x1="348.2654064397773" x2="348.2654064397773" y1="0" y2="30"/><line opacity="0.2" x1="287.3280034146385" x2="287.3280034146385" y1="0" y2="30"/><line opacity="0.2" x1="353.7374505700159" x2="353.7374505700159" y1="0" y2="30"/><line opacity="0.2" x1="443.5453405428752" x2="443.5453405428752" y1="0" y2="30"/><line opacity="0.2" x1="446.64625919241445" x2="446.64625919241445" y1="0" y2="30"/><line opacity="0.2" x1="475.78547258545785" x2="475.78547258545785" y1="0" y2="30"/><line opacity="0.2" x1="363.63394180385376" x2="363.63394180385376" y1="0" y2="30"/><line opacity="0.2" x1="379.1338330485178" x2="379.1338330485178" y1="0" y2="30"/><line opacity="0.2" x1="399.3246790601707" x2="399.3246790601707" y1="0" y2="30"/><line opacity="0.2" x1="318.8383852028113" x2="318.8383852028113" y1="0" y2="30"/><line opacity="0.2" x1="304.68529732982756" x2="304.68529732982756" y1="0" y2="30"/><line opacity="0.2" x1="375.3883079189142" x2="375.3883079189142" y1="0" y2="30"/><line opacity="0.2" x1="161.98480534438335" x2="161.98480534438335" y1="0" y2="30"/><line opacity="0.2" x1="135.57356236572713" x2="135.57356236572713" y1="0" y2="30"/><line opacity="0.2" x1="282.1400466411185" x2="282.1400466411185" y1="0" y2="30"/><line opacity="0.2" x1="243.37045070161142" x2="243.37045070161142" y1="0" y2="30"/><line opacity="0.2" x1="247.25276035614303" x2="247.25276035614303" y1="0" y2="30"/><line opacity="0.2" x1="337.13380068263314" x2="337.13380068263314" y1="0" y2="30"/><line opacity="0.2" x1="242.32513195283963" x2="242.32513195283963" y1="0" y2="30"/><line opacity="0.2" x1="248.2895506786496" x2="248.2895506786496" y1="0" y2="30"/><line opacity="0.2" x1="489.4685628051773" x2="489.4685628051773" y1="0" y2="30"/><line opacity="0.2" x1="186.5216978037369" x2="186.5216978037369" y1="0" y2="30"/><line opacity="0.2" x1="190.16356096054042" x2="190.16356096054042" y1="0" y2="30"/><line opacity="0.2" x1="232.7272813658718" x2="232.7272813658718" y1="0" y2="30"/><line opacity="0.2" x1="280.74045023467966" x2="280.74045023467966" y1="0" y2="30"/><line opacity="0.2" x1="279.60073352918937" x2="279.60073352918937" y1="0" y2="30"/><line opacity="0.2" x1="246.31096318153322" x2="246.31096318153322" y1="0" y2="30"/><line opacity="0.2" x1="396.4215736929873" x2="396.4215736929873" y1="0" y2="30"/><line opacity="0.2" x1="284.4986465611681" x2="284.4986465611681" y1="0" y2="30"/><line opacity="0.2" x1="259.99457694163357" x2="259.99457694163357" y1="0" y2="30"/><line opacity="0.2" x1="169.7013699242189" x2="169.7013699242189" y1="0" y2="30"/><line opacity="0.2" x1="259.53168611990105" x2="259.53168611990105" y1="0" y2="30"/><line opacity="0.2" x1="365.6656393304194" x2="365.6656393304194" y1="0" y2="30"/><line opacity="0.2" x1="165.32550379188936" x2="165.32550379188936" y1="0" y2="30"/><line opacity="0.2" x1="270.421559513803" x2="270.421559513803" y1="0" y2="30"/><line opacity="0.2" x1="234.66972857476208" x2="234.66972857476208" y1="0" y2="30"/><line opacity="0.2" x1="373.112433060193" x2="373.112433060193" y1="0" y2="30"/><line opacity="0.2" x1="240.87216712131047" x2="240.87216712131047" y1="0" y2="30"/><line opacity="0.2" x1="348.7188619392727" x2="348.7188619392727" y1="0" y2="30"/><line opacity="0.2" x1="291.203317538513" x2="291.203317538513" y1="0" y2="30"/><line opacity="0.2" x1="424.77786079908805" x2="424.77786079908805" y1="0" y2="30"/><line opacity="0.2" x1="250.55195255657276" x2="250.55195255657276" y1="0" y2="30"/><line opacity="0.2" x1="235.9174926261915" x2="235.9174926261915" y1="0" y2="30"/><line opacity="0.2" x1="479.93321074751634" x2="479.93321074751634" y1="0" y2="30"/><line opacity="0.2" x1="368.65083332293875" x2="368.65083332293875" y1="0" y2="30"/><line opacity="0.2" x1="222.65828996710425" x2="222.65828996710425" y1="0" y2="30"/><line opacity="0.2" x1="496.5594076345425" x2="496.5594076345425" y1="0" y2="30"/><line opacity="0.2" x1="375.40254837963363" x2="375.40254837963363" y1="0" y2="30"/><line opacity="0.2" x1="451.36232887799906" x2="451.36232887799906" y1="0" y2="30"/><line opacity="0.2" x1="213.52549956412847" x2="213.52549956412847" y1="0" y2="30"/><line opacity="0.2" x1="266.1704518165845" x2="266.1704518165845" y1="0" y2="30"/><line opacity="0.2" x1="341.86964188010415" x2="341.86964188010415" y1="0" y2="30"/><line opacity="0.2" x1="160.0989703065852" x2="160.0989703065852" y1="0" y2="30"/><line opacity="0.2" x1="349.73671021995165" x2="349.73671021995165" y1="0" y2="30"/><line opacity="0.2" x1="183.43401839718595" x2="183.43401839718595" y1="0" y2="30"/><line opacity="0.2" x1="170.72714410840678" x2="170.72714410840678" y1="0" y2="30"/><line opacity="0.2" x1="280.52866134292464" x2="280.52866134292464" y1="0" y2="30"/><line opacity="0.2" x1="204.8216639467784" x2="204.8216639467784" y1="0" y2="30"/><line opacity="0.2" x1="302.0612375654933" x2="302.0612375654933" y1="0" y2="30"/><line opacity="0.2" x1="272.60070457450684" x2="272.60070457450684" y1="0" y2="30"/><line opacity="0.2" x1="349.0087686795737" x2="349.0087686795737" y1="0" y2="30"/><line opacity="0.2" x1="322.23100591893945" x2="322.23100591893945" y1="0" y2="30"/><line opacity="0.2" x1="151.15655094502782" x2="151.15655094502782" y1="0" y2="30"/><line opacity="0.2" x1="229.5162727047035" x2="229.5162727047035" y1="0" y2="30"/><line opacity="0.2" x1="388.0026454904123" x2="388.0026454904123" y1="0" y2="30"/><line opacity="0.2" x1="426.4440109350212" x2="426.4440109350212" y1="0" y2="30"/><line opacity="0.2" x1="364.420079814334" x2="364.420079814334" y1="0" y2="30"/><line opacity="0.2" x1="40.52463144178671" x2="40.52463144178671" y1="0" y2="30"/><line opacity="0.2" x1="349.72387378826664" x2="349.72387378826664" y1="0" y2="30"/><line opacity="0.2" x1="302.4895003333054" x2="302.4895003333054" y1="0" y2="30"/><line opacity="0.2" x1="174.3891057715415" x2="174.3891057715415" y1="0" y2="30"/><line opacity="0.2" x1="463.2312528139686" x2="463.2312528139686" y1="0" y2="30"/><line opacity="0.2" x1="284.218483221932" x2="284.218483221932" y1="0" y2="30"/><line opacity="0.2" x1="271.0514418023847" x2="271.0514418023847" y1="0" y2="30"/><line opacity="0.2" x1="218.16312714973142" x2="218.16312714973142" y1="0" y2="30"/><line opacity="0.2" x1="273.6631255316512" x2="273.6631255316512" y1="0" y2="30"/><line opacity="0.2" x1="209.7008395026619" x2="209.7008395026619" y1="0" y2="30"/><line opacity="0.2" x1="320.15948252842037" x2="320.15948252842037" y1="0" y2="30"/><line opacity="0.2" x1="290.7330621023024" x2="290.7330621023024" y1="0" y2="30"/><line opacity="0.2" x1="215.16552228129672" x2="215.16552228129672" y1="0" y2="30"/><line opacity="0.2" x1="376.1987007079138" x2="376.1987007079138" y1="0" y2="30"/><line opacity="0.2" x1="304.60771372016836" x2="304.60771372016836" y1="0" y2="30"/><line opacity="0.2" x1="359.9011763107668" x2="359.9011763107668" y1="0" y2="30"/><line opacity="0.2" x1="379.2945137795314" x2="379.2945137795314" y1="0" y2="30"/><line opacity="0.2" x1="294.6389372240496" x2="294.6389372240496" y1="0" y2="30"/><line opacity="0.2" x1="319.17590063229045" x2="319.17590063229045" y1="0" y2="30"/><line opacity="0.2" x1="117.32691729940166" x2="117.32691729940166" y1="0" y2="30"/><line opacity="0.2" x1="331.33906976243674" x2="331.33906976243674" y1="0" y2="30"/><line opacity="0.2" x1="333.93803170073994" x2="333.93803170073994" y1="0" y2="30"/><line opacity="0.2" x1="257.8355446914088" x2="257.8355446914088" y1="0" y2="30"/><line opacity="0.2" x1="302.34486126239085" x2="302.34486126239085" y1="0" y2="30"/><line opacity="0.2" x1="253.98747109911685" x2="253.98747109911685" y1="0" y2="30"/><line opacity="0.2" x1="400.88674830519625" x2="400.88674830519625" y1="0" y2="30"/></g></svg>